<?xml version="1.0" encoding="utf-8"?>
<!-- Generator: Adobe Illustrator 15.0.0, SVG Export Plug-In . SVG Version: 6.00 Build 0)  -->
<!DOCTYPE svg PUBLIC "-//W3C//DTD SVG 1.1//EN" "http://www.w3.org/Graphics/SVG/1.1/DTD/svg11.dtd">
<svg version="1.1" id="Layer_4" xmlns="http://www.w3.org/2000/svg" xmlns:xlink="http://www.w3.org/1999/xlink" x="0px" y="0px"
	 width="85.04px" height="31.181px" viewBox="0 0 85.04 31.181" enable-background="new 0 0 85.04 31.181" xml:space="preserve">
  <style>
    /* <![CDATA[ */
#timesplus2a, #plusarrow1 {
  animation: timesplus2a 6s ease 0s 1 normal;
}
#plus4 {
  animation: plus4 6s ease 0s 1 normal;
}
#timesplus2b, #plusarrow2 {
  animation: timesplus2b 6s ease 0s 1 normal;
}
@keyframes timesplus2a {
  0% { opacity: 0; }
  20%,100% { opacity: 1; }
}
@keyframes plus4 {
  0%,10% { opacity: 0; }
  30%,100% { opacity: 1; }
}
@keyframes timesplus2b {
  0%,20% { opacity: 0; }
  40%,100% { opacity: 1; }
}

#timesmin2a, #minarrow1 {
  animation: timesmin2a 6s ease 0s 1 normal;
}
#min4 {
  animation: min4 6s ease 0s 1 normal;
}
#timesmin2b, #minarrow2 {
  animation: timesmin2b 6s ease 0s 1 normal;
}
@keyframes timesmin2a {
  0%,50% { opacity: 0; }
  70%,100% { opacity: 1; }
}
@keyframes min4 {
  0%,60% { opacity: 0; }
  80%,100% { opacity: 1; }
}
@keyframes timesmin2b {
  0%,70% { opacity: 0; }
  90%,100% { opacity: 1; }
}
    /* ]]> */
  </style>
<g id="min4">
	<path fill="#00E300" d="M39.499,18.221v-0.315h1.231v0.315H39.499z"/>
	<path fill="#00E300" d="M42.821,18.356v0.836H42.43v-0.836h-1.401v-0.32l1.571-2.227h0.221v2.227h0.515v0.32H42.821z M42.43,16.319
		l-1.201,1.717h1.201V16.319z"/>
</g>
<g id="timesmin2b">
	<path fill="#00E300" d="M49.226,29.888l-1.156-1.151l-1.156,1.151l-0.23-0.23l1.151-1.156l-1.151-1.156l0.235-0.23l1.151,1.151
		l1.156-1.151l0.23,0.225l-1.151,1.161l1.151,1.151L49.226,29.888z"/>
	<path fill="#00E300" d="M52.38,30.649c-0.791-0.45-1.221-1.296-1.221-2.147c0-0.926,0.436-1.646,1.236-2.122l0.045,0.08
		c-0.696,0.596-0.851,1.061-0.851,2.027c0,0.931,0.15,1.497,0.851,2.082L52.38,30.649z"/>
	<path fill="#00E300" d="M52.779,28.792v-0.315h1.231v0.315H52.779z"/>
	<path fill="#00E300" d="M56.351,29.763h-1.957v-0.06l0.891-0.946c0.47-0.496,0.65-0.876,0.65-1.301c0-0.456-0.27-0.706-0.696-0.706
		c-0.36,0-0.535,0.16-0.735,0.65l-0.105-0.025c0.105-0.585,0.426-0.996,1.041-0.996c0.566,0,0.926,0.385,0.926,0.881
		c0,0.396-0.195,0.771-0.641,1.241l-0.826,0.881h1.171c0.21,0,0.315-0.055,0.48-0.335l0.07,0.03L56.351,29.763z"/>
	<path fill="#00E300" d="M56.954,26.38c0.766,0.46,1.221,1.296,1.221,2.147c0,0.926-0.44,1.637-1.236,2.122l-0.045-0.08
		c0.711-0.585,0.851-1.056,0.851-2.027c0-0.936-0.125-1.511-0.851-2.082L56.954,26.38z"/>
</g>
<g id="timesmin2a">
	<path fill="#00E300" d="M29.384,29.888l-1.156-1.151l-1.156,1.151l-0.23-0.23l1.151-1.156l-1.151-1.156l0.235-0.23l1.151,1.151
		l1.156-1.151l0.23,0.225l-1.151,1.161l1.151,1.151L29.384,29.888z"/>
	<path fill="#00E300" d="M32.538,30.649c-0.791-0.45-1.221-1.296-1.221-2.147c0-0.926,0.436-1.646,1.236-2.122l0.045,0.08
		c-0.696,0.596-0.851,1.061-0.851,2.027c0,0.931,0.15,1.497,0.851,2.082L32.538,30.649z"/>
	<path fill="#00E300" d="M32.937,28.792v-0.315h1.231v0.315H32.937z"/>
	<path fill="#00E300" d="M36.508,29.763h-1.957v-0.06l0.891-0.946c0.47-0.496,0.65-0.876,0.65-1.301c0-0.456-0.27-0.706-0.696-0.706
		c-0.36,0-0.535,0.16-0.735,0.65l-0.105-0.025c0.105-0.585,0.426-0.996,1.041-0.996c0.566,0,0.926,0.385,0.926,0.881
		c0,0.396-0.195,0.771-0.641,1.241l-0.826,0.881h1.171c0.21,0,0.315-0.055,0.48-0.335l0.07,0.03L36.508,29.763z"/>
	<path fill="#00E300" d="M37.111,26.38c0.766,0.46,1.221,1.296,1.221,2.147c0,0.926-0.44,1.637-1.236,2.122l-0.045-0.08
		c0.711-0.585,0.851-1.056,0.851-2.027c0-0.936-0.125-1.511-0.851-2.082L37.111,26.38z"/>
</g>
<g id="minarrows">
	<g id="minarrow2">
		<g>
			<path fill="none" stroke="#00E300" stroke-width="0.4082" stroke-miterlimit="10" d="M43.937,19.842
				c2.765,5.53,13.621,5.666,16.784,0.408"/>
			<g>
				<polygon fill="#00E300" points="60.849,21.294 60.632,20.339 59.678,20.557 59.99,20.06 60.945,19.842 61.162,20.797 				"/>
			</g>
		</g>
	</g>
	<g id="minarrow1">
		<g>
			<path fill="none" stroke="#00E300" stroke-width="0.4082" stroke-miterlimit="10" d="M24.095,19.842
				c2.765,5.53,13.621,5.666,16.784,0.408"/>
			<g>
				<polygon fill="#00E300" points="41.007,21.294 40.79,20.339 39.835,20.557 40.148,20.06 41.103,19.842 41.32,20.797 				"/>
			</g>
		</g>
	</g>
</g>
<g id="plus4">
	<path fill="#0000E3" d="M42.821,12.687v0.836H42.43v-0.836h-1.401v-0.32L42.6,10.14h0.221v2.227h0.515v0.32H42.821z M42.43,10.65
		l-1.201,1.717h1.201V10.65z"/>
</g>
<g id="timesplus2b">
	<path fill="#0000E3" d="M51.724,4.376l-1.156-1.151l-1.156,1.151l-0.23-0.23l1.151-1.156l-1.151-1.156l0.235-0.23l1.151,1.151
		l1.156-1.151l0.23,0.225L50.803,2.99l1.151,1.151L51.724,4.376z"/>
	<path fill="#0000E3" d="M55.518,4.251h-1.957v-0.06l0.891-0.946c0.47-0.496,0.65-0.876,0.65-1.301c0-0.456-0.27-0.706-0.695-0.706
		c-0.36,0-0.536,0.16-0.736,0.65l-0.105-0.025c0.105-0.585,0.425-0.996,1.041-0.996c0.565,0,0.926,0.385,0.926,0.881
		c0,0.396-0.195,0.771-0.641,1.241l-0.826,0.881h1.171c0.21,0,0.315-0.055,0.48-0.335l0.07,0.03L55.518,4.251z"/>
</g>
<g id="timesplus2a">
	<path fill="#0000E3" d="M31.881,4.376l-1.156-1.151l-1.156,1.151l-0.23-0.23L30.49,2.99l-1.151-1.156l0.235-0.23l1.151,1.151
		l1.156-1.151l0.23,0.225L30.96,2.99l1.151,1.151L31.881,4.376z"/>
	<path fill="#0000E3" d="M35.676,4.251h-1.957v-0.06l0.891-0.946c0.47-0.496,0.65-0.876,0.65-1.301c0-0.456-0.27-0.706-0.695-0.706
		c-0.36,0-0.536,0.16-0.736,0.65l-0.105-0.025c0.105-0.585,0.425-0.996,1.041-0.996c0.565,0,0.926,0.385,0.926,0.881
		c0,0.396-0.195,0.771-0.641,1.241l-0.826,0.881h1.171c0.21,0,0.315-0.055,0.48-0.335l0.07,0.03L35.676,4.251z"/>
</g>
<g id="plusarrows">
	<g id="plusarrow2">
		<g>
			<path fill="none" stroke="#0000E3" stroke-width="0.4082" stroke-miterlimit="10" d="M43.937,9.921
				c2.765-5.53,13.621-5.666,16.784-0.408"/>
			<g>
				<polygon fill="#0000E3" points="59.678,9.206 60.632,9.424 60.849,8.469 61.162,8.966 60.945,9.921 59.99,9.704 				"/>
			</g>
		</g>
	</g>
	<g id="plusarrow1">
		<g>
			<path fill="none" stroke="#0000E3" stroke-width="0.4082" stroke-miterlimit="10" d="M24.095,9.921
				c2.765-5.53,13.621-5.666,16.784-0.408"/>
			<g>
				<polygon fill="#0000E3" points="39.835,9.206 40.79,9.424 41.007,8.469 41.32,8.966 41.103,9.921 40.148,9.704 				"/>
			</g>
		</g>
	</g>
</g>
<g>
	<path d="M60.923,18.565c-1.129,0-1.919-0.69-1.919-1.629c0-0.689,0.23-1.079,1.299-1.829c-1.029-0.849-1.239-1.229-1.239-1.879
		c0-0.959,0.83-1.559,1.939-1.559c0.989,0,1.679,0.65,1.679,1.429c0,0.75-0.35,1.089-1.339,1.619
		c1.229,0.82,1.549,1.359,1.549,2.159C62.893,17.905,62.123,18.565,60.923,18.565z M60.563,15.307
		c-0.589,0.479-0.799,0.889-0.799,1.539c0,0.919,0.51,1.439,1.269,1.439c0.65,0,1.1-0.45,1.1-1.099c0-0.62-0.3-1.02-0.979-1.479
		L60.563,15.307z M60.903,11.948c-0.669,0-1.099,0.37-1.099,0.99s0.37,1.079,1.249,1.599c0.68-0.4,0.939-0.82,0.939-1.439
		C61.993,12.408,61.583,11.948,60.903,11.948z"/>
</g>
<g>
	<path d="M25.792,18.425h-3.908v-0.12l1.779-1.889c0.939-0.99,1.299-1.749,1.299-2.599c0-0.91-0.54-1.409-1.389-1.409
		c-0.72,0-1.069,0.32-1.469,1.299l-0.21-0.05c0.21-1.169,0.85-1.989,2.079-1.989c1.129,0,1.849,0.77,1.849,1.759
		c0,0.79-0.39,1.539-1.279,2.479l-1.649,1.759h2.339c0.419,0,0.629-0.11,0.959-0.669l0.14,0.06L25.792,18.425z"/>
</g>
<rect fill="none" stroke="#FFFFFF" stroke-width="0.01" stroke-miterlimit="10" width="85.04" height="31.181"/>
</svg>
