<?xml version="1.0" encoding="utf-8"?>
<!-- Generator: Adobe Illustrator 15.0.0, SVG Export Plug-In . SVG Version: 6.00 Build 0)  -->
<!DOCTYPE svg PUBLIC "-//W3C//DTD SVG 1.1//EN" "http://www.w3.org/Graphics/SVG/1.1/DTD/svg11.dtd">
<svg version="1.1" id="Layer_1" xmlns="http://www.w3.org/2000/svg" xmlns:xlink="http://www.w3.org/1999/xlink" x="0px" y="0px"
	 width="352px" height="249px" viewBox="109.75 121.167 352 249" enable-background="new 109.75 121.167 352 249"
	 xml:space="preserve">
<polygon opacity="0.3" fill="#C4E8FF" enable-background="new    " points="137.147,342.725 137.147,199.691 138.577,205.782 
	140.539,211.665 142.502,217.346 144.465,222.827 146.427,228.111 148.391,233.2 150.354,238.094 152.316,242.799 154.279,247.317 
	156.241,251.648 158.205,255.797 160.167,259.767 162.13,263.556 164.092,267.17 166.056,270.611 168.019,273.881 169.981,276.982 
	171.945,279.918 173.908,282.69 175.87,285.301 177.833,287.752 179.795,290.049 181.759,292.192 183.721,294.184 185.684,296.024 
	187.648,297.721 189.609,299.272 191.573,300.683 193.536,301.954 195.498,303.086 197.461,304.088 199.424,304.956 
	201.387,305.694 203.35,306.305 205.313,306.793 207.275,307.159 209.238,307.403 211.201,307.532 213.164,307.545 215.127,307.446 
	217.089,307.239 219.052,306.922 221.016,306.5 222.977,305.977 224.941,305.354 226.904,304.631 228.866,303.815 230.83,302.905 
	232.792,301.905 234.755,300.818 236.717,299.645 238.68,298.388 240.645,297.051 242.605,295.637 244.568,294.146 246.532,292.581 
	248.494,290.946 250.457,289.243 252.42,287.475 254.383,285.641 256.345,283.747 258.309,281.795 260.271,279.788 262.232,277.724 
	264.196,275.609 266.16,273.448 268.122,271.237 270.084,268.984 272.048,266.69 274.011,264.355 275.973,261.985 277.938,259.581 
	279.898,257.144 281.861,254.676 283.825,252.185 285.788,249.668 287.75,247.127 289.713,244.568 291.676,241.993 293.639,239.401 
	295.602,236.797 297.564,234.185 299.527,231.563 301.49,228.938 303.452,226.31 305.414,223.682 307.379,221.055 309.341,218.435 
	311.305,215.82 313.268,213.215 315.229,210.624 317.191,208.045 319.155,205.485 321.118,202.944 323.081,200.424 323.081,342.725 
	"/>
<title>glps_renderer figure</title>
<desc>Creator: GL2PS 1.3.8, (C) 1999-2012 C. Geuzaine
For: Octave
CreationDate: Sun Dec 20 09:43:37 2015</desc>
<line fill="none" stroke="#000000" stroke-width="2" stroke-dasharray="16,0" x1="136.643" y1="343.084" x2="449.123" y2="343.084"/>
<line fill="none" stroke="#000000" stroke-width="2" stroke-dasharray="16,0" x1="136.643" y1="343.084" x2="136.643" y2="126.729"/>
<line opacity="0.6" fill="none" stroke="#000000" stroke-dasharray="16,0" enable-background="new    " x1="322.577" y1="343.084" x2="322.577" y2="200.424"/>
<line fill="none" stroke="#000000" stroke-dasharray="16,0" x1="136.643" y1="343.084" x2="136.643" y2="339.959"/>
<line fill="none" stroke="#000000" stroke-dasharray="16,0" x1="136.643" y1="126.729" x2="136.643" y2="129.472"/>
<line fill="none" stroke="#000000" stroke-dasharray="16,0" x1="136.643" y1="343.084" x2="139.771" y2="343.084"/>
<line fill="none" stroke="#000000" stroke-dasharray="16,0" x1="449.123" y1="343.084" x2="445.995" y2="343.084"/>
<text transform="matrix(1 0 0 1 320.8271 354.5991)" font-family="'STIXMath-Regular'" font-size="14">t</text>
<text transform="matrix(1 0 0 1 249.0771 318.9497)" font-family="'STIXMath-Regular'" font-size="14">q</text>
<polyline fill="none" stroke="#0000FF" points="136.643,199.318 138.606,205.407 140.568,211.292 142.531,216.973 144.494,222.454 
	146.457,227.739 148.42,232.827 150.382,237.722 152.345,242.426 154.308,246.944 156.271,251.276 158.234,255.424 160.196,259.393 
	162.159,263.183 164.122,266.797 166.085,270.239 168.048,273.508 170.01,276.609 171.973,279.545 173.936,282.317 175.898,284.928 
	177.862,287.379 179.824,289.676 181.787,291.819 183.75,293.81 185.713,295.651 187.676,297.348 189.639,298.899 191.602,300.31 
	193.564,301.581 195.527,302.713 197.49,303.715 199.453,304.583 201.416,305.321 203.378,305.933 205.342,306.42 207.305,306.784 
	209.268,307.03 211.23,307.159 213.193,307.172 215.156,307.073 217.118,306.864 219.081,306.549 221.044,306.127 223.007,305.604 
	224.97,304.979 226.934,304.258 228.895,303.441 230.857,302.532 232.821,301.532 234.784,300.445 236.746,299.271 238.709,298.015 
	240.672,296.678 242.635,295.264 244.598,293.772 246.561,292.208 248.523,290.573 250.486,288.87 252.449,287.102 254.412,285.268 
	256.374,283.374 258.337,281.422 260.3,279.413 262.263,277.351 264.227,275.236 266.188,273.075 268.15,270.864 270.113,268.611 
	272.077,266.317 274.04,263.982 276.002,261.612 277.966,259.208 279.928,256.771 281.891,254.304 283.854,251.812 285.816,249.293 
	287.78,246.754 289.742,244.195 291.706,241.62 293.668,239.028 295.631,236.424 297.594,233.811 299.557,231.19 301.52,228.565 
	303.482,225.937 305.443,223.309 307.408,220.683 309.37,218.061 311.333,215.448 313.296,212.842 315.259,210.25 317.222,207.672 
	319.186,205.112 321.146,202.57 323.109,200.051 325.073,197.556 327.036,195.088 328.998,192.648 330.962,190.241 332.925,187.868 
	334.887,185.529 336.852,183.231 338.813,180.975 340.775,178.762 342.738,176.594 344.7,174.477 346.664,172.411 348.627,170.396 
	350.589,168.438 352.553,166.54 354.516,164.702 356.479,162.926 358.439,161.217 360.403,159.579 362.366,158.006 364.329,156.51 
	366.292,155.088 368.255,153.745 370.217,152.481 372.182,151.299 374.143,150.206 376.105,149.198 378.068,148.282 
	380.031,147.456 381.994,146.727 383.958,146.094 385.921,145.562 387.883,145.131 389.846,144.807 391.811,144.588 393.771,144.48 
	395.734,144.485 397.697,144.603 399.66,144.838 401.623,145.193 403.585,145.67 405.549,146.271 407.512,146.999 409.474,147.855 
	411.438,148.844 413.398,149.965 415.362,151.225 417.325,152.624 419.288,154.163 421.251,155.846 423.214,157.674 
	425.177,159.654 427.14,161.784 429.102,164.066 431.064,166.504 433.027,169.102 434.99,171.86 436.953,174.782 438.916,177.87 
	440.879,181.125 442.842,184.551 444.805,188.15 446.768,191.924 448.729,195.877 449.436,197.362 "/>
<text transform="matrix(1 0 0 1 279.1855 360.9243)" font-family="'STIXMath-Regular'" font-size="14">τ</text>
<g>
	<g>
		<line fill="none" stroke="#000000" x1="289.911" y1="358.137" x2="311.552" y2="358.137"/>
		<g>
			<polygon points="309.23,361 308.755,360.487 311.282,358.137 308.755,355.788 309.23,355.274 312.311,358.137 			"/>
		</g>
	</g>
</g>
<text transform="matrix(6.123234e-017 -1 1 6.123234e-017 123.5269 242.3022)" font-family="'STIXMath-Regular'" font-size="14">i(τ)</text>
<g>
	<g>
		<line fill="none" stroke="#000000" x1="119.426" y1="219.387" x2="119.426" y2="197.745"/>
		<g>
			<polygon points="122.289,200.065 121.776,200.543 119.427,198.014 117.078,200.543 116.564,200.065 119.427,196.986 			"/>
		</g>
	</g>
</g>
</svg>
