<?xml version="1.0" encoding="utf-8"?>
<!-- Generator: Adobe Illustrator 15.0.0, SVG Export Plug-In . SVG Version: 6.00 Build 0)  -->
<!DOCTYPE svg PUBLIC "-//W3C//DTD SVG 1.1//EN" "http://www.w3.org/Graphics/SVG/1.1/DTD/svg11.dtd">
<svg version="1.1" id="Layer_1" xmlns="http://www.w3.org/2000/svg" xmlns:xlink="http://www.w3.org/1999/xlink" x="0px" y="0px"
	 width="161.267px" height="66.197px" viewBox="0 0 161.267 66.197" enable-background="new 0 0 161.267 66.197"
	 xml:space="preserve">
<g id="g3597" transform="matrix(0.776968,0.000000,0.000000,0.776968,-70.53812,-38.48979)">
	
		<linearGradient id="path965_1_" gradientUnits="userSpaceOnUse" x1="-57.3977" y1="396.4398" x2="-57.3267" y2="396.2346" gradientTransform="matrix(284.1654 0 0 -284.1654 16556.5117 112713.3594)">
		<stop  offset="0" style="stop-color:#868686"/>
		<stop  offset="0.3935" style="stop-color:#F3F3F3"/>
		<stop  offset="0.4794" style="stop-color:#959494"/>
		<stop  offset="1" style="stop-color:#D3D3D3"/>
	</linearGradient>
	<linearGradient id="path965_2_" gradientUnits="userSpaceOnUse" x1="-57.71" y1="397.072" x2="-57.9075" y2="397.8746">
		<stop  offset="0" style="stop-color:#010101;stop-opacity:0.5862"/>
		<stop  offset="0.7364" style="stop-color:#010101;stop-opacity:0.3103"/>
		<stop  offset="1" style="stop-color:#606060;stop-opacity:0"/>
	</linearGradient>
	<path id="path965" fill="url(#path965_1_)" stroke="url(#path965_2_)" stroke-width="0.2572" stroke-opacity="0.5849" d="
		M257.476,54.64c-20.385,0-36.939,16.543-36.939,36.93s16.553,36.937,36.939,36.937c20.387,0,36.93-16.551,36.93-36.937
		S277.862,54.64,257.476,54.64z M257.476,80.007c6.384,0,11.565,5.181,11.565,11.563c0,6.382-5.181,11.565-11.565,11.565
		c-6.384,0-11.563-5.182-11.563-11.565C245.912,85.188,251.092,80.007,257.476,80.007z"/>
	
		<linearGradient id="path1756_1_" gradientUnits="userSpaceOnUse" x1="-57.3945" y1="396.0401" x2="-57.3538" y2="396.2312" gradientTransform="matrix(278.4575 0 0 -268.3165 16224.7227 106422.8594)">
		<stop  offset="0" style="stop-color:#FFFFFF"/>
		<stop  offset="1" style="stop-color:#FFFFFF;stop-opacity:0"/>
	</linearGradient>
	<path id="path1756" fill="url(#path1756_1_)" d="M257.183,58.017c-19.977,0-35.903,13.576-35.903,33.553
		c0,19.978,16.22,36.196,36.196,36.196c19.977,0,36.187-16.218,36.187-36.196C293.663,71.593,277.16,58.017,257.183,58.017z
		 M257.476,80.238c6.256,0,11.332,5.077,11.332,11.332c0,6.254-5.077,11.332-11.332,11.332c-6.256,0-11.331-5.078-11.331-11.332
		C246.145,85.315,251.22,80.238,257.476,80.238z"/>
	
		<linearGradient id="path964_1_" gradientUnits="userSpaceOnUse" x1="-55.5255" y1="394.053" x2="-55.8802" y2="394.4699" gradientTransform="matrix(97.7371 0 0 -97.7371 5717.5283 38644.2969)">
		<stop  offset="0" style="stop-color:#010101;stop-opacity:0.4552"/>
		<stop  offset="1" style="stop-color:#FFFFFF;stop-opacity:0.4621"/>
	</linearGradient>
	<linearGradient id="path964_2_" gradientUnits="userSpaceOnUse" x1="-57.9953" y1="398.2975" x2="-57.9953" y2="397.2652">
		<stop  offset="0" style="stop-color:#010101;stop-opacity:0.4552"/>
		<stop  offset="1" style="stop-color:#FFFFFF;stop-opacity:0.4621"/>
	</linearGradient>
	<path id="path964" fill="url(#path964_1_)" stroke="url(#path964_2_)" stroke-width="0.1714" d="M257.476,78.867
		c-7.012,0-12.703,5.691-12.703,12.703c0,7.011,5.691,12.703,12.703,12.703c7.012,0,12.703-5.692,12.703-12.703
		C270.179,84.558,264.488,78.867,257.476,78.867z M257.34,85.536c3.329,0,6.034,2.704,6.034,6.034s-2.705,6.036-6.034,6.036
		c-3.331,0-6.034-2.705-6.034-6.036S254.009,85.536,257.34,85.536z"/>
	<g id="g1745" transform="matrix(-1.402752,9.803246e-2,-9.803246e-2,-1.402752,174.5288,941.7035)">
		
			<linearGradient id="path1746_1_" gradientUnits="userSpaceOnUse" x1="140.0612" y1="396.82" x2="140.2361" y2="396.4752" gradientTransform="matrix(-107.4131 -7.7004 -7.5066 110.1866 17918.1523 -42031.1992)">
			<stop  offset="0" style="stop-color:#FFFFFF"/>
			<stop  offset="1" style="stop-color:#FFFFFF;stop-opacity:0"/>
		</linearGradient>
		<path id="path1746" fill="url(#path1746_1_)" d="M-99.038,590.073l3.434-16.719c4.739,1.003,13.937,6.306,16.471,10.793
			l-14.348,9.626C-93.561,592.946-97.202,590.307-99.038,590.073z"/>
		
			<linearGradient id="path1747_1_" gradientUnits="userSpaceOnUse" x1="140.4142" y1="396.0965" x2="140.1986" y2="396.4561" gradientTransform="matrix(-79.3432 -6.77 -5.5449 96.8734 13260.665 -36862.3906)">
			<stop  offset="0" style="stop-color:#FFFFFF"/>
			<stop  offset="1" style="stop-color:#FFFFFF;stop-opacity:0"/>
		</linearGradient>
		<path id="path1747" fill="url(#path1747_1_)" d="M-96.776,590.791l6.414-15.792c2.787,1.619,6.016,3.273,8.288,5.817
			l-12.023,12.134C-94.693,592.329-95.763,591.387-96.776,590.791z"/>
		<g id="g1748" transform="matrix(-1.000000,0.000000,0.000000,-1.000000,-346.8483,969.1681)">
			
				<linearGradient id="path1749_1_" gradientUnits="userSpaceOnUse" x1="-484.1756" y1="568.5563" x2="-483.7635" y2="569.1027" gradientTransform="matrix(107.4131 7.7004 7.5066 -110.1866 47465.0547 66781.6875)">
				<stop  offset="0" style="stop-color:#FFFFFF"/>
				<stop  offset="1" style="stop-color:#FFFFFF;stop-opacity:0"/>
			</linearGradient>
			<path id="path1749" fill="url(#path1749_1_)" d="M-244.135,361.081l3.433-16.717c4.74,1.003,13.938,6.304,16.472,10.793
				l-14.347,9.625C-238.659,363.956-242.301,361.317-244.135,361.081z"/>
			
				<linearGradient id="path1750_1_" gradientUnits="userSpaceOnUse" x1="-483.0243" y1="569.4163" x2="-483.5663" y2="568.6818" gradientTransform="matrix(77.4584 6.77 5.4132 -96.8734 34133.1406 58725.0469)">
				<stop  offset="0" style="stop-color:#010101;stop-opacity:0.4549"/>
				<stop  offset="1" style="stop-color:#010101;stop-opacity:0"/>
			</linearGradient>
			<path id="path1750" fill="url(#path1750_1_)" d="M-241.874,361.802l6.415-15.793c2.786,1.619,5.714,3.53,7.94,6.168
				l-11.675,11.783C-239.79,363.339-240.861,362.396-241.874,361.802z"/>
		</g>
	</g>
	<g id="g1739" transform="matrix(0.837377,1.129654,-1.129654,0.837377,948.6487,-14.52446)">
		
			<linearGradient id="path1730_1_" gradientUnits="userSpaceOnUse" x1="-190.6283" y1="747.7153" x2="-190.4543" y2="748.0582" gradientTransform="matrix(64.1205 -88.7347 -86.5011 -65.7762 76665.0469 32721.6563)">
			<stop  offset="0" style="stop-color:#FFFFFF"/>
			<stop  offset="1" style="stop-color:#FFFFFF;stop-opacity:0"/>
		</linearGradient>
		<path id="path1730" fill="url(#path1730_1_)" d="M-230.394,430.845l3.433-16.718c4.739,1.003,13.938,6.305,16.472,10.793
			l-14.347,9.625C-224.918,433.718-228.56,431.08-230.394,430.845z"/>
		
			<linearGradient id="path1606_1_" gradientUnits="userSpaceOnUse" x1="-189.4483" y1="747.1096" x2="-189.7952" y2="746.6633" gradientTransform="matrix(46.239 -78.0134 -62.3782 -57.8289 55163.332 28815.082)">
			<stop  offset="0" style="stop-color:#010101;stop-opacity:0.4549"/>
			<stop  offset="1" style="stop-color:#010101;stop-opacity:0"/>
		</linearGradient>
		<path id="path1606" fill="url(#path1606_1_)" d="M-228.133,431.564l6.416-15.794c2.786,1.62,5.713,3.236,7.939,5.873
			l-11.674,12.079C-226.049,433.101-227.12,432.158-228.133,431.564z"/>
		<g id="g1734" transform="matrix(-1.000000,0.000000,0.000000,-1.000000,-346.8483,969.1681)">
			
				<linearGradient id="path1732_1_" gradientUnits="userSpaceOnUse" x1="-153.2743" y1="217.8106" x2="-153.1483" y2="217.4557" gradientTransform="matrix(-64.1205 88.7347 86.5011 65.7762 -28783.4277 -178.1049)">
				<stop  offset="0" style="stop-color:#FFFFFF"/>
				<stop  offset="1" style="stop-color:#FFFFFF;stop-opacity:0"/>
			</linearGradient>
			<path id="path1732" fill="url(#path1732_1_)" d="M-112.779,520.31l3.435-16.718c4.739,1.003,13.937,6.305,16.471,10.794
				l-14.347,9.625C-107.302,523.183-110.942,520.545-112.779,520.31z"/>
			
				<linearGradient id="path1733_1_" gradientUnits="userSpaceOnUse" x1="-152.8655" y1="216.9109" x2="-152.963" y2="217.0525" gradientTransform="matrix(-46.239 78.0134 62.3782 57.8289 -20703.9063 -100.9523)">
				<stop  offset="0" style="stop-color:#FFFFFF;stop-opacity:0"/>
				<stop  offset="1" style="stop-color:#FFFFFF"/>
			</linearGradient>
			<path id="path1733" fill="url(#path1733_1_)" d="M-110.516,521.03l6.414-15.793c2.786,1.619,5.714,3.53,7.939,6.168
				l-11.674,11.783C-108.434,522.567-109.504,521.624-110.516,521.03z"/>
		</g>
	</g>
	<g id="g1857" transform="matrix(6.514279e-3,1.406156,-1.406156,6.514279e-3,980.1983,421.1620)">
		
			<linearGradient id="path1859_1_" gradientUnits="userSpaceOnUse" x1="-18.9655" y1="735.9921" x2="-19.4175" y2="735.4983" gradientTransform="matrix(0.3597 -97.1085 -77.6463 -0.4498 56955.5664 -1051.5155)">
			<stop  offset="0" style="stop-color:#FFFFFF"/>
			<stop  offset="1" style="stop-color:#FFFFFF;stop-opacity:0"/>
		</linearGradient>
		<path id="path1859" fill="url(#path1859_1_)" d="M-232.751,504.709l6.415-15.793c2.787,1.62,5.713,3.53,7.939,6.167
			l-11.675,11.784C-230.667,506.245-231.738,505.304-232.751,504.709z"/>
		<g id="g1860" transform="matrix(-1.000000,0.000000,0.000000,-1.000000,-346.8483,969.1681)">
			
				<linearGradient id="path1862_1_" gradientUnits="userSpaceOnUse" x1="-324.4979" y1="227.9926" x2="-324.8744" y2="228.3621" gradientTransform="matrix(-0.3597 96.3173 77.6537 0.4462 -17897.7559 31564.9531)">
				<stop  offset="0" style="stop-color:#FFFFFF"/>
				<stop  offset="1" style="stop-color:#FFFFFF;stop-opacity:0"/>
			</linearGradient>
			<path id="path1862" fill="url(#path1862_1_)" d="M-105.899,447.884l6.194-15.646c2.787,1.619,5.937,3.089,8.162,5.726
				l-11.676,12.079C-103.814,449.422-104.886,448.48-105.899,447.884z"/>
		</g>
	</g>
</g>
<g>
	<path fill-rule="evenodd" clip-rule="evenodd" fill="#B03C55" d="M74,41.614c-2.431,0.223-0.749-1.723-0.216-3.969
		c1.841-7.764-1.157-16.393-8.036-20.928c-1.14-0.751-3.143-0.479-3.451-2.466c0.112-0.473,0.46-0.356,0.625-0.697
		c0.996,0.432,1.993,0.864,2.989,1.297c8.271,5.895,11.441,13.802,9.386,23.772C74.865,39.62,74.432,40.618,74,41.614z"/>
	<path fill-rule="evenodd" clip-rule="evenodd" fill="#B03C55" d="M65.457,38.23c-1.096-1.365,0.417-3.073,0.563-4.276
		c0.615-5.068-2.606-8.767-7.144-11.82c0.118-0.271,0.236-0.544,0.354-0.815c0.281-0.05,0.563-0.092,0.933,0.082
		c5.249,2.682,7.985,7.523,7.215,13.143C67.214,35.742,67.408,38.379,65.457,38.23z"/>
	<path fill-rule="evenodd" clip-rule="evenodd" fill="#87B3E0" d="M6.529,35.592C20.495,29.89,34.525,24.351,48.62,18.975
		C34.654,24.676,20.624,30.215,6.529,35.592z"/>
	<path fill-rule="evenodd" clip-rule="evenodd" fill="#BCD6EF" d="M4.488,39.551c3.137,7.47,6.111,15.004,8.924,22.604
		C10.275,54.683,7.301,47.149,4.488,39.551z"/>
	<path fill-rule="evenodd" clip-rule="evenodd" fill="#87B3E0" d="M17.761,64.042c13.966-5.703,27.996-11.241,42.091-16.618
		C45.885,53.126,31.855,58.665,17.761,64.042z"/>
	<path fill-rule="evenodd" clip-rule="evenodd" fill="#E1ECF8" d="M52.969,20.862c3.085,7.341,6.009,14.745,8.77,22.215
		C58.653,35.735,55.729,28.329,52.969,20.862z"/>
	<path fill-rule="evenodd" clip-rule="evenodd" fill="#87B3E0" d="M6.755,37.304C20.981,31.5,35.271,25.858,49.624,20.379
		C35.399,26.183,21.109,31.826,6.755,37.304z"/>
	<path fill-rule="evenodd" clip-rule="evenodd" fill="#87B3E0" d="M6.201,39.325c3.086,7.341,6.009,14.746,8.77,22.213
		C11.886,54.2,8.962,46.793,6.201,39.325z"/>
	<path fill-rule="evenodd" clip-rule="evenodd" fill="#87B3E0" d="M16.756,62.638c14.226-5.805,28.516-11.447,42.871-16.925
		C45.4,51.516,31.109,57.157,16.756,62.638z"/>
	<path fill-rule="evenodd" clip-rule="evenodd" fill="#4688C8" d="M61.739,43.077c0.498,1.362-0.354,3.998-1.887,4.348
		c-14.095,5.377-28.125,10.915-42.091,16.618c-1.262,0.754-4.038-0.449-4.349-1.887c-2.813-7.6-5.787-15.134-8.924-22.604
		c-0.441-1.274,0.771-3.769,2.041-3.959c14.094-5.377,28.125-10.916,42.091-16.617c1.428-0.886,3.654,0.647,4.349,1.887
		C55.729,28.329,58.653,35.735,61.739,43.077z M59.626,45.712c1.457-1.564-0.684-4.584-1.565-6.815
		c-2.543-6.443-4.646-13.484-7.774-18.553c-0.153,0.186-0.365,0.217-0.663,0.035C35.271,25.858,20.981,31.5,6.755,37.304
		c-0.877,0.343-0.573,1.369-0.554,2.021c2.761,7.469,5.685,14.875,8.77,22.213c0.431,0.49,0.911,1.447,1.785,1.1
		C31.109,57.157,45.4,51.516,59.626,45.712z"/>
	<path fill-rule="evenodd" clip-rule="evenodd" fill="#9EC9EC" d="M49.624,20.379c0.297,0.182,0.51,0.15,0.663-0.035
		c3.128,5.068,5.23,12.109,7.774,18.553c0.882,2.231,3.022,5.251,1.565,6.815c-14.354,5.479-28.645,11.121-42.871,16.925
		c-0.874,0.348-1.354-0.609-1.785-1.1c-2.761-7.467-5.684-14.873-8.77-22.213c-0.019-0.651-0.323-1.678,0.554-2.021
		C21.109,31.826,35.399,26.183,49.624,20.379z M32.581,38.822c0.67,8.678,14.702,12.125,18.159,2.065
		c1.578-4.593-1.004-9.774-5.667-11.502C39.294,27.244,32.017,31.522,32.581,38.822z M23.211,37.339
		c-2.75,4.299,3.017,6.988,5.153,4.497c1.839-2.144,1.561-4.728-1.375-5.765C25.21,35.444,23.882,36.29,23.211,37.339z
		 M13.893,41.693c-1.273,3.645,4.821,6.79,6.488,2.17c0.7-1.942-0.064-3.986-2.898-4.486C15.451,39.016,14.364,40.35,13.893,41.693z
		 M26.124,47c-1.274,3.644,4.821,6.79,6.487,2.169c0.701-1.942-0.064-3.986-2.897-4.486C27.681,44.323,26.594,45.657,26.124,47z
		 M17.905,49.57c-2.75,4.299,3.016,6.988,5.153,4.497c1.839-2.144,1.561-4.728-1.375-5.764
		C19.903,47.674,18.575,48.522,17.905,49.57z"/>
	<path fill-rule="evenodd" clip-rule="evenodd" fill="#FFFFFF" d="M45.072,29.385c4.664,1.728,7.245,6.909,5.667,11.502
		c-3.457,10.06-17.488,6.612-18.159-2.065C32.017,31.522,39.294,27.244,45.072,29.385z M38.272,36.123
		c-2.741,5.5,5.622,8.629,7.61,3.303c0.702-1.883,0.55-4.358-2.815-5.422C41.014,33.357,39.269,34.123,38.272,36.123z"/>
	<path fill-rule="evenodd" clip-rule="evenodd" fill="#FFFFFF" d="M26.99,36.072c2.935,1.037,3.214,3.621,1.375,5.765
		c-2.137,2.491-7.903-0.198-5.153-4.497C23.882,36.29,25.21,35.444,26.99,36.072z"/>
	<path fill-rule="evenodd" clip-rule="evenodd" fill="#FFFFFF" d="M17.483,39.376c2.834,0.5,3.599,2.544,2.898,4.486
		c-1.667,4.62-7.762,1.475-6.488-2.17C14.364,40.35,15.451,39.016,17.483,39.376z"/>
	<path fill-rule="evenodd" clip-rule="evenodd" fill="#FFFFFF" d="M29.714,44.683c2.833,0.5,3.598,2.544,2.897,4.486
		C30.945,53.79,24.85,50.644,26.124,47C26.594,45.657,27.681,44.323,29.714,44.683z"/>
	<path fill-rule="evenodd" clip-rule="evenodd" fill="#FFFFFF" d="M21.683,48.303c2.936,1.036,3.214,3.62,1.375,5.764
		c-2.137,2.491-7.903-0.198-5.153-4.497C18.575,48.522,19.903,47.674,21.683,48.303z"/>
	<path fill-rule="evenodd" clip-rule="evenodd" fill="#9EC9EC" d="M43.067,34.004c3.365,1.063,3.517,3.539,2.815,5.422
		c-1.988,5.326-10.352,2.197-7.61-3.303C39.269,34.123,41.014,33.357,43.067,34.004z"/>
</g>
</svg>
