<?xml version="1.0" encoding="utf-8"?>
<!-- Generator: Adobe Illustrator 25.4.1, SVG Export Plug-In . SVG Version: 6.00 Build 0)  -->
<svg version="1.1" xmlns="http://www.w3.org/2000/svg" xmlns:xlink="http://www.w3.org/1999/xlink" x="0px" y="0px"
	 viewBox="0 0 55.53 45.039" enable-background="new 0 0 55.53 45.039" xml:space="preserve">
<g id="Graph_paper_slanted" opacity="0.5">
	<g id="Clipped_grid_00000003068028900943026870000011536296927355263674_">
		<defs>
			<polygon id="SVGID_1_" points="45.75,54.683 -47.459,54.683 1.567,5.658 94.775,5.658 			"/>
		</defs>
		<clipPath id="SVGID_00000018218641663710467120000000109304361169588370_">
			<use xlink:href="#SVGID_1_"  overflow="visible"/>
		</clipPath>
		
			<g id="Grid_00000142891597197125820610000009767860333217090727_" opacity="0.25" clip-path="url(#SVGID_00000018218641663710467120000000109304361169588370_)">
			<g id="Horizontal_1_mm_00000151508609497893311650000018408800186222605470_">
				
					<line fill="none" stroke="#00ABEB" stroke-width="0.15" stroke-miterlimit="10" x1="-32.156" y1="-28.134" x2="194.685" y2="-28.134"/>
				
					<line fill="none" stroke="#00ABEB" stroke-width="0.15" stroke-miterlimit="10" x1="-30.168" y1="-30.122" x2="196.673" y2="-30.122"/>
				
					<line fill="none" stroke="#00ABEB" stroke-width="0.15" stroke-miterlimit="10" x1="-149.445" y1="89.154" x2="77.396" y2="89.154"/>
				
					<line fill="none" stroke="#00ABEB" stroke-width="0.15" stroke-miterlimit="10" x1="-147.456" y1="87.166" x2="79.384" y2="87.166"/>
				
					<line fill="none" stroke="#00ABEB" stroke-width="0.15" stroke-miterlimit="10" x1="-145.469" y1="85.179" x2="81.372" y2="85.179"/>
				
					<line fill="none" stroke="#00ABEB" stroke-width="0.15" stroke-miterlimit="10" x1="-143.481" y1="83.191" x2="83.36" y2="83.191"/>
				
					<line fill="none" stroke="#00ABEB" stroke-width="0.15" stroke-miterlimit="10" x1="-141.493" y1="81.202" x2="85.348" y2="81.202"/>
				
					<line fill="none" stroke="#00ABEB" stroke-width="0.15" stroke-miterlimit="10" x1="-139.505" y1="79.215" x2="87.336" y2="79.215"/>
				
					<line fill="none" stroke="#00ABEB" stroke-width="0.15" stroke-miterlimit="10" x1="-137.517" y1="77.227" x2="89.324" y2="77.227"/>
				
					<line fill="none" stroke="#00ABEB" stroke-width="0.15" stroke-miterlimit="10" x1="-135.53" y1="75.239" x2="91.311" y2="75.239"/>
				
					<line fill="none" stroke="#00ABEB" stroke-width="0.15" stroke-miterlimit="10" x1="-133.541" y1="73.251" x2="93.3" y2="73.251"/>
				
					<line fill="none" stroke="#00ABEB" stroke-width="0.15" stroke-miterlimit="10" x1="-131.553" y1="71.263" x2="95.288" y2="71.263"/>
				
					<line fill="none" stroke="#00ABEB" stroke-width="0.15" stroke-miterlimit="10" x1="-129.565" y1="69.275" x2="97.275" y2="69.275"/>
				
					<line fill="none" stroke="#00ABEB" stroke-width="0.15" stroke-miterlimit="10" x1="-127.577" y1="67.287" x2="99.264" y2="67.287"/>
				
					<line fill="none" stroke="#00ABEB" stroke-width="0.15" stroke-miterlimit="10" x1="-125.589" y1="65.299" x2="101.252" y2="65.299"/>
				
					<line fill="none" stroke="#00ABEB" stroke-width="0.15" stroke-miterlimit="10" x1="-123.602" y1="63.311" x2="103.239" y2="63.311"/>
				
					<line fill="none" stroke="#00ABEB" stroke-width="0.15" stroke-miterlimit="10" x1="-121.613" y1="61.323" x2="105.227" y2="61.323"/>
				
					<line fill="none" stroke="#00ABEB" stroke-width="0.15" stroke-miterlimit="10" x1="-119.625" y1="59.335" x2="107.216" y2="59.335"/>
				
					<line fill="none" stroke="#00ABEB" stroke-width="0.15" stroke-miterlimit="10" x1="-117.638" y1="57.348" x2="109.203" y2="57.348"/>
				
					<line fill="none" stroke="#00ABEB" stroke-width="0.15" stroke-miterlimit="10" x1="-115.65" y1="55.359" x2="111.191" y2="55.359"/>
				
					<line fill="none" stroke="#00ABEB" stroke-width="0.15" stroke-miterlimit="10" x1="-113.661" y1="53.371" x2="113.179" y2="53.371"/>
				
					<line fill="none" stroke="#00ABEB" stroke-width="0.15" stroke-miterlimit="10" x1="-111.674" y1="51.384" x2="115.167" y2="51.384"/>
				
					<line fill="none" stroke="#00ABEB" stroke-width="0.15" stroke-miterlimit="10" x1="-109.686" y1="49.396" x2="117.155" y2="49.396"/>
				
					<line fill="none" stroke="#00ABEB" stroke-width="0.15" stroke-miterlimit="10" x1="-107.697" y1="47.407" x2="119.144" y2="47.407"/>
				
					<line fill="none" stroke="#00ABEB" stroke-width="0.15" stroke-miterlimit="10" x1="-105.71" y1="45.42" x2="121.131" y2="45.42"/>
				
					<line fill="none" stroke="#00ABEB" stroke-width="0.15" stroke-miterlimit="10" x1="-103.722" y1="43.432" x2="123.119" y2="43.432"/>
				
					<line fill="none" stroke="#00ABEB" stroke-width="0.15" stroke-miterlimit="10" x1="-101.734" y1="41.444" x2="125.107" y2="41.444"/>
				
					<line fill="none" stroke="#00ABEB" stroke-width="0.15" stroke-miterlimit="10" x1="-99.746" y1="39.456" x2="127.095" y2="39.456"/>
				
					<line fill="none" stroke="#00ABEB" stroke-width="0.15" stroke-miterlimit="10" x1="-97.758" y1="37.468" x2="129.083" y2="37.468"/>
				
					<line fill="none" stroke="#00ABEB" stroke-width="0.15" stroke-miterlimit="10" x1="-95.77" y1="35.48" x2="131.071" y2="35.48"/>
				
					<line fill="none" stroke="#00ABEB" stroke-width="0.15" stroke-miterlimit="10" x1="-93.782" y1="33.492" x2="133.059" y2="33.492"/>
				
					<line fill="none" stroke="#00ABEB" stroke-width="0.15" stroke-miterlimit="10" x1="-91.794" y1="31.504" x2="135.047" y2="31.504"/>
				
					<line fill="none" stroke="#00ABEB" stroke-width="0.15" stroke-miterlimit="10" x1="-89.806" y1="29.516" x2="137.034" y2="29.516"/>
				
					<line fill="none" stroke="#00ABEB" stroke-width="0.15" stroke-miterlimit="10" x1="-87.818" y1="27.528" x2="139.022" y2="27.528"/>
				
					<line fill="none" stroke="#00ABEB" stroke-width="0.15" stroke-miterlimit="10" x1="-85.83" y1="25.54" x2="141.011" y2="25.54"/>
				
					<line fill="none" stroke="#00ABEB" stroke-width="0.15" stroke-miterlimit="10" x1="-83.843" y1="23.553" x2="142.998" y2="23.553"/>
				
					<line fill="none" stroke="#00ABEB" stroke-width="0.15" stroke-miterlimit="10" x1="-81.854" y1="21.565" x2="144.986" y2="21.565"/>
				
					<line fill="none" stroke="#00ABEB" stroke-width="0.15" stroke-miterlimit="10" x1="-79.866" y1="19.576" x2="146.974" y2="19.576"/>
				
					<line fill="none" stroke="#00ABEB" stroke-width="0.15" stroke-miterlimit="10" x1="-77.879" y1="17.589" x2="148.962" y2="17.589"/>
				
					<line fill="none" stroke="#00ABEB" stroke-width="0.15" stroke-miterlimit="10" x1="-75.891" y1="15.601" x2="150.95" y2="15.601"/>
				
					<line fill="none" stroke="#00ABEB" stroke-width="0.15" stroke-miterlimit="10" x1="-73.903" y1="13.613" x2="152.938" y2="13.613"/>
				
					<line fill="none" stroke="#00ABEB" stroke-width="0.15" stroke-miterlimit="10" x1="-71.915" y1="11.625" x2="154.926" y2="11.625"/>
				
					<line fill="none" stroke="#00ABEB" stroke-width="0.15" stroke-miterlimit="10" x1="-69.927" y1="9.637" x2="156.914" y2="9.637"/>
				
					<line fill="none" stroke="#00ABEB" stroke-width="0.15" stroke-miterlimit="10" x1="-67.939" y1="7.649" x2="158.902" y2="7.649"/>
				
					<line fill="none" stroke="#00ABEB" stroke-width="0.15" stroke-miterlimit="10" x1="-65.951" y1="5.661" x2="160.89" y2="5.661"/>
				
					<line fill="none" stroke="#00ABEB" stroke-width="0.15" stroke-miterlimit="10" x1="-63.963" y1="3.673" x2="162.878" y2="3.673"/>
				
					<line fill="none" stroke="#00ABEB" stroke-width="0.15" stroke-miterlimit="10" x1="-61.975" y1="1.685" x2="164.866" y2="1.685"/>
				
					<line fill="none" stroke="#00ABEB" stroke-width="0.15" stroke-miterlimit="10" x1="-59.987" y1="-0.303" x2="166.854" y2="-0.303"/>
				
					<line fill="none" stroke="#00ABEB" stroke-width="0.15" stroke-miterlimit="10" x1="-57.999" y1="-2.291" x2="168.842" y2="-2.291"/>
				
					<line fill="none" stroke="#00ABEB" stroke-width="0.15" stroke-miterlimit="10" x1="-56.011" y1="-4.278" x2="170.829" y2="-4.278"/>
				
					<line fill="none" stroke="#00ABEB" stroke-width="0.15" stroke-miterlimit="10" x1="-54.023" y1="-6.267" x2="172.818" y2="-6.267"/>
				
					<line fill="none" stroke="#00ABEB" stroke-width="0.15" stroke-miterlimit="10" x1="-52.035" y1="-8.255" x2="174.806" y2="-8.255"/>
				
					<line fill="none" stroke="#00ABEB" stroke-width="0.15" stroke-miterlimit="10" x1="-50.048" y1="-10.242" x2="176.793" y2="-10.242"/>
				
					<line fill="none" stroke="#00ABEB" stroke-width="0.15" stroke-miterlimit="10" x1="-48.059" y1="-12.23" x2="178.781" y2="-12.23"/>
				
					<line fill="none" stroke="#00ABEB" stroke-width="0.15" stroke-miterlimit="10" x1="-46.071" y1="-14.218" x2="180.77" y2="-14.218"/>
				
					<line fill="none" stroke="#00ABEB" stroke-width="0.15" stroke-miterlimit="10" x1="-44.084" y1="-16.206" x2="182.757" y2="-16.206"/>
				
					<line fill="none" stroke="#00ABEB" stroke-width="0.15" stroke-miterlimit="10" x1="-42.095" y1="-18.194" x2="184.746" y2="-18.194"/>
				
					<line fill="none" stroke="#00ABEB" stroke-width="0.15" stroke-miterlimit="10" x1="-40.108" y1="-20.182" x2="186.733" y2="-20.182"/>
				
					<line fill="none" stroke="#00ABEB" stroke-width="0.15" stroke-miterlimit="10" x1="-38.12" y1="-22.17" x2="188.721" y2="-22.17"/>
				
					<line fill="none" stroke="#00ABEB" stroke-width="0.15" stroke-miterlimit="10" x1="-36.132" y1="-24.158" x2="190.709" y2="-24.158"/>
				
					<line fill="none" stroke="#00ABEB" stroke-width="0.15" stroke-miterlimit="10" x1="-34.144" y1="-26.146" x2="192.697" y2="-26.146"/>
			</g>
			<g id="Vertical_1_mm_00000181073523592228201180000012361058669048395659_">
				<g>
					
						<line fill="none" stroke="#00ABEB" stroke-width="0.15" stroke-miterlimit="10" x1="-149.36" y1="89.145" x2="-30.04" y2="-30.175"/>
				</g>
				
					<line fill="none" stroke="#00ABEB" stroke-width="0.15" stroke-miterlimit="10" x1="-146.526" y1="89.145" x2="-27.206" y2="-30.175"/>
				
					<line fill="none" stroke="#00ABEB" stroke-width="0.15" stroke-miterlimit="10" x1="-143.691" y1="89.145" x2="-24.371" y2="-30.175"/>
				
					<line fill="none" stroke="#00ABEB" stroke-width="0.15" stroke-miterlimit="10" x1="-140.856" y1="89.145" x2="-21.536" y2="-30.175"/>
				
					<line fill="none" stroke="#00ABEB" stroke-width="0.15" stroke-miterlimit="10" x1="-138.022" y1="89.145" x2="-18.702" y2="-30.175"/>
				
					<line fill="none" stroke="#00ABEB" stroke-width="0.15" stroke-miterlimit="10" x1="-135.187" y1="89.145" x2="-15.867" y2="-30.175"/>
				
					<line fill="none" stroke="#00ABEB" stroke-width="0.15" stroke-miterlimit="10" x1="-132.352" y1="89.145" x2="-13.032" y2="-30.175"/>
				
					<line fill="none" stroke="#00ABEB" stroke-width="0.15" stroke-miterlimit="10" x1="-129.518" y1="89.145" x2="-10.198" y2="-30.175"/>
				
					<line fill="none" stroke="#00ABEB" stroke-width="0.15" stroke-miterlimit="10" x1="-126.682" y1="89.145" x2="-7.363" y2="-30.175"/>
				
					<line fill="none" stroke="#00ABEB" stroke-width="0.15" stroke-miterlimit="10" x1="-123.848" y1="89.145" x2="-4.529" y2="-30.175"/>
				
					<line fill="none" stroke="#00ABEB" stroke-width="0.15" stroke-miterlimit="10" x1="-121.014" y1="89.145" x2="-1.694" y2="-30.175"/>
				
					<line fill="none" stroke="#00ABEB" stroke-width="0.15" stroke-miterlimit="10" x1="-118.179" y1="89.145" x2="1.141" y2="-30.175"/>
				
					<line fill="none" stroke="#00ABEB" stroke-width="0.15" stroke-miterlimit="10" x1="-115.345" y1="89.145" x2="3.975" y2="-30.175"/>
				
					<line fill="none" stroke="#00ABEB" stroke-width="0.15" stroke-miterlimit="10" x1="-112.51" y1="89.145" x2="6.81" y2="-30.175"/>
				
					<line fill="none" stroke="#00ABEB" stroke-width="0.15" stroke-miterlimit="10" x1="-109.675" y1="89.145" x2="9.645" y2="-30.175"/>
				
					<line fill="none" stroke="#00ABEB" stroke-width="0.15" stroke-miterlimit="10" x1="-106.841" y1="89.145" x2="12.479" y2="-30.175"/>
				
					<line fill="none" stroke="#00ABEB" stroke-width="0.15" stroke-miterlimit="10" x1="-104.006" y1="89.145" x2="15.314" y2="-30.175"/>
				
					<line fill="none" stroke="#00ABEB" stroke-width="0.15" stroke-miterlimit="10" x1="-101.171" y1="89.145" x2="18.149" y2="-30.175"/>
				
					<line fill="none" stroke="#00ABEB" stroke-width="0.15" stroke-miterlimit="10" x1="-98.337" y1="89.145" x2="20.983" y2="-30.175"/>
				
					<line fill="none" stroke="#00ABEB" stroke-width="0.15" stroke-miterlimit="10" x1="-95.502" y1="89.145" x2="23.818" y2="-30.175"/>
				
					<line fill="none" stroke="#00ABEB" stroke-width="0.15" stroke-miterlimit="10" x1="-92.667" y1="89.145" x2="26.653" y2="-30.175"/>
				
					<line fill="none" stroke="#00ABEB" stroke-width="0.15" stroke-miterlimit="10" x1="-89.833" y1="89.145" x2="29.487" y2="-30.175"/>
				
					<line fill="none" stroke="#00ABEB" stroke-width="0.15" stroke-miterlimit="10" x1="-86.998" y1="89.145" x2="32.322" y2="-30.175"/>
				
					<line fill="none" stroke="#00ABEB" stroke-width="0.15" stroke-miterlimit="10" x1="-84.163" y1="89.145" x2="35.157" y2="-30.175"/>
				
					<line fill="none" stroke="#00ABEB" stroke-width="0.15" stroke-miterlimit="10" x1="-81.328" y1="89.145" x2="37.991" y2="-30.175"/>
				
					<line fill="none" stroke="#00ABEB" stroke-width="0.15" stroke-miterlimit="10" x1="-78.493" y1="89.145" x2="40.826" y2="-30.175"/>
				
					<line fill="none" stroke="#00ABEB" stroke-width="0.15" stroke-miterlimit="10" x1="-75.66" y1="89.145" x2="43.66" y2="-30.175"/>
				
					<line fill="none" stroke="#00ABEB" stroke-width="0.15" stroke-miterlimit="10" x1="-72.825" y1="89.145" x2="46.495" y2="-30.175"/>
				
					<line fill="none" stroke="#00ABEB" stroke-width="0.15" stroke-miterlimit="10" x1="-69.99" y1="89.145" x2="49.33" y2="-30.175"/>
				
					<line fill="none" stroke="#00ABEB" stroke-width="0.15" stroke-miterlimit="10" x1="-67.156" y1="89.145" x2="52.164" y2="-30.175"/>
				
					<line fill="none" stroke="#00ABEB" stroke-width="0.15" stroke-miterlimit="10" x1="-64.321" y1="89.145" x2="54.999" y2="-30.175"/>
				
					<line fill="none" stroke="#00ABEB" stroke-width="0.15" stroke-miterlimit="10" x1="-61.486" y1="89.145" x2="57.834" y2="-30.175"/>
				
					<line fill="none" stroke="#00ABEB" stroke-width="0.15" stroke-miterlimit="10" x1="-58.652" y1="89.145" x2="60.668" y2="-30.175"/>
				
					<line fill="none" stroke="#00ABEB" stroke-width="0.15" stroke-miterlimit="10" x1="-55.817" y1="89.145" x2="63.503" y2="-30.175"/>
				
					<line fill="none" stroke="#00ABEB" stroke-width="0.15" stroke-miterlimit="10" x1="-52.982" y1="89.145" x2="66.338" y2="-30.175"/>
				
					<line fill="none" stroke="#00ABEB" stroke-width="0.15" stroke-miterlimit="10" x1="-50.148" y1="89.145" x2="69.172" y2="-30.175"/>
				
					<line fill="none" stroke="#00ABEB" stroke-width="0.15" stroke-miterlimit="10" x1="-47.313" y1="89.145" x2="72.007" y2="-30.175"/>
				
					<line fill="none" stroke="#00ABEB" stroke-width="0.15" stroke-miterlimit="10" x1="-44.478" y1="89.145" x2="74.842" y2="-30.175"/>
				
					<line fill="none" stroke="#00ABEB" stroke-width="0.15" stroke-miterlimit="10" x1="-41.644" y1="89.145" x2="77.676" y2="-30.175"/>
				
					<line fill="none" stroke="#00ABEB" stroke-width="0.15" stroke-miterlimit="10" x1="-38.809" y1="89.145" x2="80.511" y2="-30.175"/>
				
					<line fill="none" stroke="#00ABEB" stroke-width="0.15" stroke-miterlimit="10" x1="-35.975" y1="89.145" x2="83.345" y2="-30.175"/>
				
					<line fill="none" stroke="#00ABEB" stroke-width="0.15" stroke-miterlimit="10" x1="-33.139" y1="89.145" x2="86.18" y2="-30.175"/>
				
					<line fill="none" stroke="#00ABEB" stroke-width="0.15" stroke-miterlimit="10" x1="-30.305" y1="89.145" x2="89.015" y2="-30.175"/>
				
					<line fill="none" stroke="#00ABEB" stroke-width="0.15" stroke-miterlimit="10" x1="-27.471" y1="89.145" x2="91.849" y2="-30.175"/>
				
					<line fill="none" stroke="#00ABEB" stroke-width="0.15" stroke-miterlimit="10" x1="-24.636" y1="89.145" x2="94.684" y2="-30.175"/>
				
					<line fill="none" stroke="#00ABEB" stroke-width="0.15" stroke-miterlimit="10" x1="-21.801" y1="89.145" x2="97.519" y2="-30.175"/>
				
					<line fill="none" stroke="#00ABEB" stroke-width="0.15" stroke-miterlimit="10" x1="-18.967" y1="89.145" x2="100.353" y2="-30.175"/>
				
					<line fill="none" stroke="#00ABEB" stroke-width="0.15" stroke-miterlimit="10" x1="-16.132" y1="89.145" x2="103.188" y2="-30.175"/>
				
					<line fill="none" stroke="#00ABEB" stroke-width="0.15" stroke-miterlimit="10" x1="-13.297" y1="89.145" x2="106.023" y2="-30.175"/>
				
					<line fill="none" stroke="#00ABEB" stroke-width="0.15" stroke-miterlimit="10" x1="-10.463" y1="89.145" x2="108.857" y2="-30.175"/>
				
					<line fill="none" stroke="#00ABEB" stroke-width="0.15" stroke-miterlimit="10" x1="-7.628" y1="89.145" x2="111.692" y2="-30.175"/>
				
					<line fill="none" stroke="#00ABEB" stroke-width="0.15" stroke-miterlimit="10" x1="-4.793" y1="89.145" x2="114.527" y2="-30.175"/>
				
					<line fill="none" stroke="#00ABEB" stroke-width="0.15" stroke-miterlimit="10" x1="-1.959" y1="89.145" x2="117.361" y2="-30.175"/>
				
					<line fill="none" stroke="#00ABEB" stroke-width="0.15" stroke-miterlimit="10" x1="0.876" y1="89.145" x2="120.196" y2="-30.175"/>
				
					<line fill="none" stroke="#00ABEB" stroke-width="0.15" stroke-miterlimit="10" x1="3.711" y1="89.145" x2="123.031" y2="-30.175"/>
				
					<line fill="none" stroke="#00ABEB" stroke-width="0.15" stroke-miterlimit="10" x1="6.545" y1="89.145" x2="125.865" y2="-30.175"/>
				
					<line fill="none" stroke="#00ABEB" stroke-width="0.15" stroke-miterlimit="10" x1="9.38" y1="89.145" x2="128.7" y2="-30.175"/>
				
					<line fill="none" stroke="#00ABEB" stroke-width="0.15" stroke-miterlimit="10" x1="12.214" y1="89.145" x2="131.534" y2="-30.175"/>
				
					<line fill="none" stroke="#00ABEB" stroke-width="0.15" stroke-miterlimit="10" x1="15.049" y1="89.145" x2="134.369" y2="-30.175"/>
				
					<line fill="none" stroke="#00ABEB" stroke-width="0.15" stroke-miterlimit="10" x1="17.884" y1="89.145" x2="137.204" y2="-30.175"/>
				
					<line fill="none" stroke="#00ABEB" stroke-width="0.15" stroke-miterlimit="10" x1="20.718" y1="89.145" x2="140.038" y2="-30.175"/>
				
					<line fill="none" stroke="#00ABEB" stroke-width="0.15" stroke-miterlimit="10" x1="23.553" y1="89.145" x2="142.873" y2="-30.175"/>
				
					<line fill="none" stroke="#00ABEB" stroke-width="0.15" stroke-miterlimit="10" x1="26.388" y1="89.145" x2="145.708" y2="-30.175"/>
				
					<line fill="none" stroke="#00ABEB" stroke-width="0.15" stroke-miterlimit="10" x1="29.222" y1="89.145" x2="148.542" y2="-30.175"/>
				
					<line fill="none" stroke="#00ABEB" stroke-width="0.15" stroke-miterlimit="10" x1="32.057" y1="89.145" x2="151.377" y2="-30.175"/>
				
					<line fill="none" stroke="#00ABEB" stroke-width="0.15" stroke-miterlimit="10" x1="34.892" y1="89.145" x2="154.212" y2="-30.175"/>
				
					<line fill="none" stroke="#00ABEB" stroke-width="0.15" stroke-miterlimit="10" x1="37.726" y1="89.145" x2="157.046" y2="-30.175"/>
				
					<line fill="none" stroke="#00ABEB" stroke-width="0.15" stroke-miterlimit="10" x1="40.561" y1="89.145" x2="159.881" y2="-30.175"/>
				
					<line fill="none" stroke="#00ABEB" stroke-width="0.15" stroke-miterlimit="10" x1="43.396" y1="89.145" x2="162.716" y2="-30.175"/>
				
					<line fill="none" stroke="#00ABEB" stroke-width="0.15" stroke-miterlimit="10" x1="46.23" y1="89.145" x2="165.55" y2="-30.175"/>
				
					<line fill="none" stroke="#00ABEB" stroke-width="0.15" stroke-miterlimit="10" x1="49.065" y1="89.145" x2="168.385" y2="-30.175"/>
				
					<line fill="none" stroke="#00ABEB" stroke-width="0.15" stroke-miterlimit="10" x1="51.9" y1="89.145" x2="171.22" y2="-30.175"/>
				
					<line fill="none" stroke="#00ABEB" stroke-width="0.15" stroke-miterlimit="10" x1="54.734" y1="89.145" x2="174.054" y2="-30.175"/>
				
					<line fill="none" stroke="#00ABEB" stroke-width="0.15" stroke-miterlimit="10" x1="57.569" y1="89.145" x2="176.889" y2="-30.175"/>
				
					<line fill="none" stroke="#00ABEB" stroke-width="0.15" stroke-miterlimit="10" x1="60.403" y1="89.145" x2="179.723" y2="-30.175"/>
				
					<line fill="none" stroke="#00ABEB" stroke-width="0.15" stroke-miterlimit="10" x1="63.238" y1="89.145" x2="182.558" y2="-30.175"/>
				
					<line fill="none" stroke="#00ABEB" stroke-width="0.15" stroke-miterlimit="10" x1="66.073" y1="89.145" x2="185.393" y2="-30.175"/>
				
					<line fill="none" stroke="#00ABEB" stroke-width="0.15" stroke-miterlimit="10" x1="68.907" y1="89.145" x2="188.227" y2="-30.175"/>
				
					<line fill="none" stroke="#00ABEB" stroke-width="0.15" stroke-miterlimit="10" x1="71.742" y1="89.145" x2="191.062" y2="-30.175"/>
				
					<line fill="none" stroke="#00ABEB" stroke-width="0.15" stroke-miterlimit="10" x1="74.577" y1="89.145" x2="193.897" y2="-30.175"/>
				
					<line fill="none" stroke="#00ABEB" stroke-width="0.15" stroke-miterlimit="10" x1="77.411" y1="89.145" x2="196.731" y2="-30.175"/>
			</g>
			<g id="Horizontal_5_mm_00000011735556503592991880000008134099091165005186_">
				
					<line fill="none" stroke="#00ABEB" stroke-width="0.3" stroke-miterlimit="10" x1="-149.72" y1="89.154" x2="77.396" y2="89.154"/>
				
					<line fill="none" stroke="#00ABEB" stroke-width="0.3" stroke-miterlimit="10" x1="-139.78" y1="79.215" x2="87.336" y2="79.215"/>
				
					<line fill="none" stroke="#00ABEB" stroke-width="0.3" stroke-miterlimit="10" x1="-129.84" y1="69.275" x2="97.275" y2="69.275"/>
				
					<line fill="none" stroke="#00ABEB" stroke-width="0.3" stroke-miterlimit="10" x1="-119.9" y1="59.335" x2="107.216" y2="59.335"/>
				
					<line fill="none" stroke="#00ABEB" stroke-width="0.3" stroke-miterlimit="10" x1="-109.961" y1="49.396" x2="117.155" y2="49.396"/>
				
					<line fill="none" stroke="#00ABEB" stroke-width="0.3" stroke-miterlimit="10" x1="-100.021" y1="39.456" x2="127.095" y2="39.456"/>
				
					<line fill="none" stroke="#00ABEB" stroke-width="0.3" stroke-miterlimit="10" x1="-90.081" y1="29.516" x2="137.034" y2="29.516"/>
				
					<line fill="none" stroke="#00ABEB" stroke-width="0.3" stroke-miterlimit="10" x1="-80.141" y1="19.576" x2="146.974" y2="19.576"/>
				
					<line fill="none" stroke="#00ABEB" stroke-width="0.3" stroke-miterlimit="10" x1="-70.201" y1="9.637" x2="156.914" y2="9.637"/>
				
					<line fill="none" stroke="#00ABEB" stroke-width="0.3" stroke-miterlimit="10" x1="-60.262" y1="-0.303" x2="166.854" y2="-0.303"/>
				
					<line fill="none" stroke="#00ABEB" stroke-width="0.3" stroke-miterlimit="10" x1="-50.323" y1="-10.242" x2="176.793" y2="-10.242"/>
			</g>
			<g id="Vertical_5_mm_00000064346364918789686960000003233481195482251947_">
				
					<line fill="none" stroke="#00ABEB" stroke-width="0.3" stroke-miterlimit="10" x1="-149.36" y1="89.145" x2="-29.847" y2="-30.367"/>
				
					<line fill="none" stroke="#00ABEB" stroke-width="0.3" stroke-miterlimit="10" x1="-135.187" y1="89.145" x2="-15.674" y2="-30.367"/>
				
					<line fill="none" stroke="#00ABEB" stroke-width="0.3" stroke-miterlimit="10" x1="-121.014" y1="89.145" x2="-1.501" y2="-30.367"/>
				
					<line fill="none" stroke="#00ABEB" stroke-width="0.3" stroke-miterlimit="10" x1="-106.841" y1="89.145" x2="12.672" y2="-30.367"/>
				
					<line fill="none" stroke="#00ABEB" stroke-width="0.3" stroke-miterlimit="10" x1="-92.667" y1="89.145" x2="26.846" y2="-30.367"/>
				
					<line fill="none" stroke="#00ABEB" stroke-width="0.3" stroke-miterlimit="10" x1="-78.493" y1="89.145" x2="41.019" y2="-30.367"/>
				
					<line fill="none" stroke="#00ABEB" stroke-width="0.3" stroke-miterlimit="10" x1="-64.321" y1="89.145" x2="55.192" y2="-30.367"/>
				
					<line fill="none" stroke="#00ABEB" stroke-width="0.3" stroke-miterlimit="10" x1="-50.148" y1="89.145" x2="69.365" y2="-30.367"/>
				
					<line fill="none" stroke="#00ABEB" stroke-width="0.3" stroke-miterlimit="10" x1="-35.975" y1="89.145" x2="83.538" y2="-30.367"/>
				
					<line fill="none" stroke="#00ABEB" stroke-width="0.3" stroke-miterlimit="10" x1="-21.801" y1="89.145" x2="97.712" y2="-30.367"/>
				
					<line fill="none" stroke="#00ABEB" stroke-width="0.3" stroke-miterlimit="10" x1="-7.628" y1="89.145" x2="111.885" y2="-30.367"/>
				
					<line fill="none" stroke="#00ABEB" stroke-width="0.3" stroke-miterlimit="10" x1="6.545" y1="89.145" x2="126.058" y2="-30.367"/>
				
					<line fill="none" stroke="#00ABEB" stroke-width="0.3" stroke-miterlimit="10" x1="20.718" y1="89.145" x2="140.231" y2="-30.367"/>
				
					<line fill="none" stroke="#00ABEB" stroke-width="0.3" stroke-miterlimit="10" x1="34.892" y1="89.145" x2="154.405" y2="-30.367"/>
				
					<line fill="none" stroke="#00ABEB" stroke-width="0.3" stroke-miterlimit="10" x1="49.065" y1="89.145" x2="168.578" y2="-30.367"/>
				
					<line fill="none" stroke="#00ABEB" stroke-width="0.3" stroke-miterlimit="10" x1="63.238" y1="89.145" x2="182.751" y2="-30.367"/>
				
					<line fill="none" stroke="#00ABEB" stroke-width="0.3" stroke-miterlimit="10" x1="77.411" y1="89.145" x2="196.924" y2="-30.367"/>
			</g>
			<g id="Horizontal_10_mm_00000163045836177147705350000008480455355013810362_">
				
					<line id="_x31_9_00000057116790517712807720000015084113881736219806_" fill="none" stroke="#00ABEB" stroke-width="0.7" stroke-miterlimit="10" x1="-149.72" y1="89.154" x2="77.396" y2="89.154"/>
				
					<line id="_x32_0_00000024685878617286333290000013167547815532084100_" fill="none" stroke="#00ABEB" stroke-width="0.7" stroke-miterlimit="10" x1="-129.84" y1="69.275" x2="97.275" y2="69.275"/>
				
					<line id="_x32_1_00000138564813020868535020000012777939180148238773_" fill="none" stroke="#00ABEB" stroke-width="0.7" stroke-miterlimit="10" x1="-109.961" y1="49.396" x2="117.155" y2="49.396"/>
				
					<line id="_x32_2_00000052807586205252870140000014502512662559454639_" fill="none" stroke="#00ABEB" stroke-width="0.7" stroke-miterlimit="10" x1="-90.081" y1="29.516" x2="137.034" y2="29.516"/>
				
					<line id="_x32_3_00000051376893246677475670000009295515732899575694_" fill="none" stroke="#00ABEB" stroke-width="0.7" stroke-miterlimit="10" x1="-70.201" y1="9.637" x2="156.914" y2="9.637"/>
				
					<line id="_x32_4_00000099657911357833521510000007853591198542098087_" fill="none" stroke="#00ABEB" stroke-width="0.7" stroke-miterlimit="10" x1="-50.323" y1="-10.242" x2="176.793" y2="-10.242"/>
				
					<line id="_x32_5_00000155127691660191171140000008292164438978366870_" fill="none" stroke="#00ABEB" stroke-width="0.7" stroke-miterlimit="10" x1="-30.443" y1="-30.122" x2="196.673" y2="-30.122"/>
			</g>
			<g id="Vertical_10_mm_00000134969164297783457920000010833503864539426239_">
				
					<line id="_x30__00000151539528360119995570000005083818057555393183_" fill="none" stroke="#00ABEB" stroke-width="0.7" stroke-miterlimit="10" x1="-149.36" y1="89.145" x2="-29.847" y2="-30.367"/>
				
					<line id="_x31__00000021823889366233599640000011971139016478256513_" fill="none" stroke="#00ABEB" stroke-width="0.7" stroke-miterlimit="10" x1="-121.014" y1="89.145" x2="-1.501" y2="-30.367"/>
				
					<line id="_x32__00000071550223824624162640000006130814236846722696_" fill="none" stroke="#00ABEB" stroke-width="0.7" stroke-miterlimit="10" x1="-92.667" y1="89.145" x2="26.846" y2="-30.367"/>
				
					<line id="_x33__00000042015976804734918030000005045165563697445304_" fill="none" stroke="#00ABEB" stroke-width="0.7" stroke-miterlimit="10" x1="-64.321" y1="89.145" x2="55.192" y2="-30.367"/>
				
					<line id="_x34__00000081637789328126233800000002486991317463304126_" fill="none" stroke="#00ABEB" stroke-width="0.7" stroke-miterlimit="10" x1="-35.975" y1="89.145" x2="83.538" y2="-30.367"/>
				
					<line id="_x35__00000051353690731882489090000004794744233340785543_" fill="none" stroke="#00ABEB" stroke-width="0.7" stroke-miterlimit="10" x1="-7.628" y1="89.145" x2="111.885" y2="-30.367"/>
				
					<line id="_x36__00000011745311307505536660000010485558803267122343_" fill="none" stroke="#00ABEB" stroke-width="0.7" stroke-miterlimit="10" x1="20.718" y1="89.145" x2="140.231" y2="-30.367"/>
				
					<line id="_x37__00000045602144989735358580000003937589459941247142_" fill="none" stroke="#00ABEB" stroke-width="0.7" stroke-miterlimit="10" x1="49.065" y1="89.145" x2="168.578" y2="-30.367"/>
				
					<line id="_x38__00000047029857857898873560000014194396358708286345_" fill="none" stroke="#00ABEB" stroke-width="0.7" stroke-miterlimit="10" x1="77.411" y1="89.145" x2="196.924" y2="-30.367"/>
			</g>
		</g>
	</g>
</g>
<g id="Axis">
	<g id="lines">
		<g>
			<g>
				
					<line fill="none" stroke="#000000" stroke-width="0.2" stroke-miterlimit="10" x1="23.658" y1="29.507" x2="23.658" y2="3.068"/>
				<g>
					<polygon points="24.399,3.63 23.658,3.315 22.918,3.63 23.658,1.874 					"/>
				</g>
			</g>
		</g>
		<g>
			<g>
				
					<line fill="none" stroke="#000000" stroke-width="0.2" stroke-miterlimit="10" x1="23.658" y1="29.507" x2="52.017" y2="29.507"/>
				<g>
					<polygon points="51.455,30.247 51.77,29.507 51.455,28.766 53.211,29.507 					"/>
				</g>
			</g>
		</g>
		<g>
			<g>
				
					<line fill="none" stroke="#000000" stroke-width="0.2" stroke-miterlimit="10" x1="23.658" y1="29.507" x2="9.606" y2="43.559"/>
				<g>
					<polygon points="9.479,42.638 9.78,43.384 10.527,43.686 8.761,44.403 					"/>
				</g>
			</g>
		</g>
	</g>
	<g id="names">
		<g>
			<path d="M51.499,32.682c0.339-0.564,0.487-0.852,0.487-1.027c0-0.056-0.028-0.08-0.104-0.128
				c-0.08-0.052-0.104-0.092-0.104-0.156c0-0.088,0.068-0.148,0.16-0.148c0.12,0,0.208,0.1,0.208,0.22
				c0,0.228-0.192,0.667-0.524,1.219c-0.416,0.688-0.843,1.147-1.071,1.147c-0.12,0-0.204-0.068-0.204-0.172
				c0-0.088,0.068-0.16,0.156-0.16c0.14,0,0.14,0.112,0.244,0.112c0.052,0,0.1-0.032,0.192-0.132
				c0.072-0.076,0.252-0.312,0.284-0.364c0.024-0.048,0.04-0.096,0.04-0.14c0-0.16-0.22-1.055-0.328-1.327
				c-0.076-0.196-0.148-0.256-0.308-0.256c-0.044,0-0.08,0.004-0.124,0.016v-0.068c0.044-0.008,0.088-0.016,0.128-0.024
				c0.08-0.016,0.212-0.04,0.428-0.072h0.016c0.06,0,0.271,0.664,0.34,1.02L51.499,32.682z"/>
		</g>
		<g>
			<path d="M20.929,3.406c0.232,0.052,0.32,0.096,0.48,0.332c0.104,0.152,0.18,0.2,0.28,0.2c0.064,0,0.108-0.024,0.108-0.06
				c0-0.016-0.008-0.036-0.02-0.06c-0.024-0.048-0.032-0.08-0.032-0.112c0.004-0.068,0.068-0.136,0.132-0.136
				c0.083,0,0.14,0.06,0.14,0.148c0,0.16-0.148,0.304-0.372,0.304c-0.116,0-0.252-0.052-0.452-0.176
				c-0.188-0.116-0.315-0.168-0.419-0.168c-0.064,0-0.116,0.02-0.18,0.072l-0.036-0.036l1.239-1.487h-0.544
				c-0.208,0-0.284,0.036-0.364,0.24l-0.064-0.016l0.128-0.464h1.131v0.044L20.929,3.406z"/>
		</g>
		<g>
			<path d="M12.651,43.275c0.28-0.428,0.428-0.572,0.604-0.572c0.096,0,0.164,0.06,0.164,0.148c0,0.084-0.056,0.144-0.136,0.144
				c-0.076,0-0.112-0.068-0.208-0.068c-0.072,0-0.216,0.176-0.392,0.483c0,0.028,0.008,0.084,0.032,0.18l0.128,0.536
				c0.028,0.112,0.064,0.164,0.12,0.164c0.052,0,0.096-0.04,0.188-0.16c0.036-0.048,0.052-0.072,0.084-0.112l0.06,0.036
				c-0.232,0.36-0.336,0.456-0.488,0.456c-0.128,0-0.188-0.072-0.236-0.272l-0.116-0.476l-0.352,0.476
				c-0.176,0.236-0.256,0.272-0.38,0.272s-0.2-0.064-0.2-0.168c0-0.08,0.056-0.144,0.136-0.144c0.036,0,0.076,0.016,0.128,0.044
				c0.04,0.024,0.08,0.036,0.104,0.036c0.044,0,0.12-0.076,0.204-0.196l0.328-0.464l-0.112-0.496
				c-0.056-0.24-0.084-0.272-0.184-0.272c-0.032,0-0.08,0.008-0.156,0.028l-0.072,0.02l-0.012-0.063l0.044-0.016
				c0.244-0.088,0.376-0.116,0.468-0.116c0.1,0,0.148,0.072,0.204,0.344L12.651,43.275z"/>
		</g>
	</g>
</g>
<g id="Layer_9">
	<g display="none">
		<g display="inline">
			<g>
				
					<line fill="none" stroke="#0000FF" stroke-width="0.1" stroke-miterlimit="10" x1="19.853" y1="18.458" x2="13.835" y2="24.49"/>
				<g>
					<polygon fill="#0000FF" points="13.78,23.966 13.88,23.97 13.862,24.462 14.355,24.444 14.359,24.544 13.759,24.566 					"/>
				</g>
			</g>
		</g>
		<g display="inline">
			<g>
				
					<line fill="none" stroke="#0000FF" stroke-width="0.1" stroke-miterlimit="10" x1="19.853" y1="24.573" x2="13.835" y2="30.604"/>
				<g>
					<polygon fill="#0000FF" points="13.78,30.081 13.88,30.084 13.862,30.577 14.355,30.559 14.359,30.659 13.759,30.681 					"/>
				</g>
			</g>
		</g>
		<g display="inline">
			<g>
				<line fill="none" stroke="#0000FF" stroke-width="0.1" stroke-miterlimit="10" x1="19.853" y1="30.7" x2="13.835" y2="36.732"/>
				<g>
					<polygon fill="#0000FF" points="13.78,36.209 13.88,36.212 13.862,36.705 14.355,36.686 14.359,36.786 13.759,36.809 					"/>
				</g>
			</g>
		</g>
	</g>
	<g>
		<g>
			<g>
				<g>
					<g>
						
							<line fill="none" stroke="#0000FF" stroke-width="0.1" stroke-miterlimit="10" x1="31.158" y1="6.224" x2="37.175" y2="0.192"/>
						<g>
							<polygon fill="#0000FF" points="37.231,0.715 37.131,0.712 37.148,0.219 36.655,0.238 36.652,0.138 37.252,0.115 							"/>
						</g>
					</g>
				</g>
			</g>
			<g>
				<g>
					
						<line fill="none" stroke="#0000FF" stroke-width="0.1" stroke-miterlimit="10" x1="26.126" y1="11.267" x2="29.097" y2="8.29"/>
					<g>
						<polygon fill="#0000FF" points="29.152,8.813 29.052,8.81 29.07,8.317 28.577,8.335 28.573,8.235 29.173,8.213 						"/>
					</g>
				</g>
			</g>
		</g>
		<g>
			<g>
				<g>
					<g>
						
							<line fill="none" stroke="#0000FF" stroke-width="0.1" stroke-miterlimit="10" x1="31.158" y1="13.572" x2="37.175" y2="7.541"/>
						<g>
							<polygon fill="#0000FF" points="37.231,8.064 37.131,8.061 37.148,7.568 36.655,7.586 36.652,7.486 37.252,7.464 							"/>
						</g>
					</g>
				</g>
			</g>
			<g>
				<g>
					
						<line fill="none" stroke="#0000FF" stroke-width="0.1" stroke-miterlimit="10" x1="26.126" y1="18.616" x2="29.097" y2="15.638"/>
					<g>
						<polygon fill="#0000FF" points="29.152,16.162 29.052,16.158 29.07,15.666 28.577,15.684 28.573,15.584 29.173,15.562 						
							"/>
					</g>
				</g>
			</g>
		</g>
		<g>
			<g>
				<g>
					<g>
						
							<line fill="none" stroke="#0000FF" stroke-width="0.1" stroke-miterlimit="10" x1="31.158" y1="20.584" x2="37.175" y2="14.553"/>
						<g>
							<polygon fill="#0000FF" points="37.231,15.076 37.131,15.073 37.148,14.58 36.655,14.599 36.652,14.499 37.252,14.476 
															"/>
						</g>
					</g>
				</g>
			</g>
			<g>
				<g>
					
						<line fill="none" stroke="#0000FF" stroke-width="0.1" stroke-miterlimit="10" x1="26.126" y1="25.628" x2="29.097" y2="22.651"/>
					<g>
						<polygon fill="#0000FF" points="29.152,23.174 29.052,23.171 29.07,22.678 28.577,22.696 28.573,22.596 29.173,22.574 						
							"/>
					</g>
				</g>
			</g>
		</g>
	</g>
	<g>
		<g>
			<g>
				<g>
					<g>
						
							<line fill="none" stroke="#0000FF" stroke-width="0.1" stroke-miterlimit="10" x1="16.433" y1="35.177" x2="10.415" y2="41.208"/>
						<g>
							<polygon fill="#0000FF" points="10.36,40.685 10.46,40.688 10.442,41.181 10.935,41.162 10.939,41.263 10.339,41.285 							
								"/>
						</g>
					</g>
				</g>
			</g>
			<g>
				<g>
					
						<line fill="none" stroke="#0000FF" stroke-width="0.1" stroke-miterlimit="10" x1="21.464" y1="30.133" x2="18.494" y2="33.111"/>
					<g>
						<polygon fill="#0000FF" points="18.438,32.587 18.538,32.591 18.521,33.083 19.013,33.065 19.017,33.165 18.417,33.187 						
							"/>
					</g>
				</g>
			</g>
		</g>
		<g>
			<g>
				<g>
					<g>
						
							<line fill="none" stroke="#0000FF" stroke-width="0.1" stroke-miterlimit="10" x1="16.433" y1="27.828" x2="10.415" y2="33.86"/>
						<g>
							<polygon fill="#0000FF" points="10.36,33.336 10.46,33.34 10.442,33.832 10.935,33.814 10.939,33.914 10.339,33.936 							
								"/>
						</g>
					</g>
				</g>
			</g>
			<g>
				<g>
					
						<line fill="none" stroke="#0000FF" stroke-width="0.1" stroke-miterlimit="10" x1="21.464" y1="22.784" x2="18.494" y2="25.762"/>
					<g>
						<polygon fill="#0000FF" points="18.438,25.238 18.538,25.242 18.521,25.734 19.013,25.716 19.017,25.816 18.417,25.838 						
							"/>
					</g>
				</g>
			</g>
		</g>
		<g>
			<g>
				<g>
					<g>
						
							<line fill="none" stroke="#0000FF" stroke-width="0.1" stroke-miterlimit="10" x1="16.433" y1="20.816" x2="10.415" y2="26.847"/>
						<g>
							<polygon fill="#0000FF" points="10.36,26.324 10.46,26.327 10.442,26.82 10.935,26.802 10.939,26.902 10.339,26.924 							
								"/>
						</g>
					</g>
				</g>
			</g>
			<g>
				<g>
					
						<line fill="none" stroke="#0000FF" stroke-width="0.1" stroke-miterlimit="10" x1="21.464" y1="15.772" x2="18.494" y2="18.75"/>
					<g>
						<polygon fill="#0000FF" points="18.438,18.226 18.538,18.23 18.521,18.722 19.013,18.704 19.017,18.804 18.417,18.826 						
							"/>
					</g>
				</g>
			</g>
		</g>
	</g>
</g>
<g id="n" display="none">
	<g display="inline">
		<g>
			
				<line fill="none" stroke="#00A300" stroke-width="0.3" stroke-miterlimit="10" stroke-dasharray="2,2" x1="37.35" y1="6.578" x2="31.995" y2="15.447"/>
			<g>
				<polygon fill="#00A300" points="31.458,13.962 31.752,13.901 32.054,15.349 33.476,14.942 33.559,15.23 31.826,15.726 				"/>
			</g>
		</g>
	</g>
	<g display="inline">
		
			<line fill="none" stroke="#00A300" stroke-width="0.1" stroke-miterlimit="10" stroke-dasharray="2,2" x1="23.658" y1="29.507" x2="42.873" y2="-2.571"/>
		<g>
			<g>
				<line fill="none" stroke="#00A300" stroke-width="0.3" stroke-miterlimit="10" x1="37.35" y1="6.578" x2="42.705" y2="-2.292"/>
				<g>
					<polygon fill="#00A300" points="43.242,-0.807 42.948,-0.745 42.646,-2.193 41.224,-1.786 41.141,-2.075 42.874,-2.57 					"/>
				</g>
			</g>
		</g>
		
			<polyline fill="none" stroke="#00A300" stroke-width="0.1" stroke-linecap="round" stroke-linejoin="round" stroke-miterlimit="10" points="
			37.872,5.712 38.584,6.151 38.584,6.151 38.085,6.936 		"/>
	</g>
	<g display="inline">
		<path fill="#00B200" d="M46.56-3.255c-0.405,0.553-0.554,0.672-0.833,0.672c-0.149,0-0.28-0.095-0.28-0.321
			c0-0.06,0.012-0.137,0.095-0.447l0.262-0.964c0.048-0.185,0.083-0.398,0.083-0.47c0-0.107-0.054-0.172-0.143-0.172
			c-0.238,0-0.506,0.292-0.881,0.845c-0.268,0.399-0.315,0.536-0.595,1.476h-0.446l0.571-2.083c0.006-0.03,0.012-0.065,0.012-0.101
			c0-0.119-0.083-0.155-0.387-0.161v-0.095c0.482-0.095,0.648-0.119,0.964-0.185l0.024,0.012l-0.399,1.297
			c0.595-0.952,0.994-1.31,1.375-1.31c0.256,0,0.387,0.149,0.387,0.363c0,0.107-0.024,0.232-0.06,0.357l-0.333,1.208
			c-0.059,0.214-0.083,0.315-0.083,0.363c0,0.054,0.024,0.107,0.095,0.107c0.083,0,0.19-0.095,0.363-0.315
			c0.042-0.048,0.083-0.101,0.125-0.155L46.56-3.255z"/>
	</g>
	<g display="inline">
		<path fill="#00B200" d="M46.083-5.784l-0.851-1.72h-0.006l-0.845,1.72h-0.405l1.077-2.172h0.357l1.077,2.172H46.083z"/>
	</g>
</g>
</svg>
