<?xml version="1.0" encoding="utf-8"?>
<!-- Generator: Adobe Illustrator 25.4.1, SVG Export Plug-In . SVG Version: 6.00 Build 0)  -->
<svg version="1.1" xmlns="http://www.w3.org/2000/svg" xmlns:xlink="http://www.w3.org/1999/xlink" x="0px" y="0px"
	 viewBox="0 0 181.988 109.318" enable-background="new 0 0 181.988 109.318" xml:space="preserve">
<g id="Layer_2" opacity="0.5">
	<g id="Clipped_grid">
		<defs>
			<rect id="SVGID_1_" x="-1.384" y="-2.761" width="186.611" height="115.338"/>
		</defs>
		<clipPath id="SVGID_00000000913026282416672670000015717514886721181592_">
			<use xlink:href="#SVGID_1_"  overflow="visible"/>
		</clipPath>
		<g id="Grid" opacity="0.25" clip-path="url(#SVGID_00000000913026282416672670000015717514886721181592_)">
			<g id="Horizontal_1_mm">
				
					<line fill="none" stroke="#00ABEB" stroke-width="0.15" stroke-miterlimit="10" x1="-132.146" y1="-57.758" x2="303.381" y2="-57.758"/>
				
					<line fill="none" stroke="#00ABEB" stroke-width="0.15" stroke-miterlimit="10" x1="-132.146" y1="-61.912" x2="303.381" y2="-61.912"/>
				
					<line fill="none" stroke="#00ABEB" stroke-width="0.15" stroke-miterlimit="10" x1="-132.146" y1="187.359" x2="303.381" y2="187.359"/>
				
					<line fill="none" stroke="#00ABEB" stroke-width="0.15" stroke-miterlimit="10" x1="-132.146" y1="183.204" x2="303.381" y2="183.204"/>
				
					<line fill="none" stroke="#00ABEB" stroke-width="0.15" stroke-miterlimit="10" x1="-132.146" y1="179.05" x2="303.381" y2="179.05"/>
				
					<line fill="none" stroke="#00ABEB" stroke-width="0.15" stroke-miterlimit="10" x1="-132.146" y1="174.895" x2="303.381" y2="174.895"/>
				
					<line fill="none" stroke="#00ABEB" stroke-width="0.15" stroke-miterlimit="10" x1="-132.146" y1="170.74" x2="303.381" y2="170.74"/>
				
					<line fill="none" stroke="#00ABEB" stroke-width="0.15" stroke-miterlimit="10" x1="-132.146" y1="166.587" x2="303.381" y2="166.587"/>
				
					<line fill="none" stroke="#00ABEB" stroke-width="0.15" stroke-miterlimit="10" x1="-132.146" y1="162.432" x2="303.381" y2="162.432"/>
				
					<line fill="none" stroke="#00ABEB" stroke-width="0.15" stroke-miterlimit="10" x1="-132.146" y1="158.278" x2="303.381" y2="158.278"/>
				
					<line fill="none" stroke="#00ABEB" stroke-width="0.15" stroke-miterlimit="10" x1="-132.146" y1="154.123" x2="303.381" y2="154.123"/>
				
					<line fill="none" stroke="#00ABEB" stroke-width="0.15" stroke-miterlimit="10" x1="-132.146" y1="149.968" x2="303.381" y2="149.968"/>
				
					<line fill="none" stroke="#00ABEB" stroke-width="0.15" stroke-miterlimit="10" x1="-132.146" y1="145.814" x2="303.381" y2="145.814"/>
				
					<line fill="none" stroke="#00ABEB" stroke-width="0.15" stroke-miterlimit="10" x1="-132.146" y1="141.659" x2="303.381" y2="141.659"/>
				
					<line fill="none" stroke="#00ABEB" stroke-width="0.15" stroke-miterlimit="10" x1="-132.146" y1="137.504" x2="303.381" y2="137.504"/>
				
					<line fill="none" stroke="#00ABEB" stroke-width="0.15" stroke-miterlimit="10" x1="-132.146" y1="133.351" x2="303.381" y2="133.351"/>
				
					<line fill="none" stroke="#00ABEB" stroke-width="0.15" stroke-miterlimit="10" x1="-132.146" y1="129.196" x2="303.381" y2="129.196"/>
				
					<line fill="none" stroke="#00ABEB" stroke-width="0.15" stroke-miterlimit="10" x1="-132.146" y1="125.041" x2="303.381" y2="125.041"/>
				
					<line fill="none" stroke="#00ABEB" stroke-width="0.15" stroke-miterlimit="10" x1="-132.146" y1="120.887" x2="303.381" y2="120.887"/>
				
					<line fill="none" stroke="#00ABEB" stroke-width="0.15" stroke-miterlimit="10" x1="-132.146" y1="116.732" x2="303.381" y2="116.732"/>
				
					<line fill="none" stroke="#00ABEB" stroke-width="0.15" stroke-miterlimit="10" x1="-132.146" y1="112.577" x2="303.381" y2="112.577"/>
				
					<line fill="none" stroke="#00ABEB" stroke-width="0.15" stroke-miterlimit="10" x1="-132.146" y1="108.424" x2="303.381" y2="108.424"/>
				
					<line fill="none" stroke="#00ABEB" stroke-width="0.15" stroke-miterlimit="10" x1="-132.146" y1="104.269" x2="303.381" y2="104.269"/>
				
					<line fill="none" stroke="#00ABEB" stroke-width="0.15" stroke-miterlimit="10" x1="-132.146" y1="100.113" x2="303.381" y2="100.113"/>
				
					<line fill="none" stroke="#00ABEB" stroke-width="0.15" stroke-miterlimit="10" x1="-132.146" y1="95.96" x2="303.381" y2="95.96"/>
				
					<line fill="none" stroke="#00ABEB" stroke-width="0.15" stroke-miterlimit="10" x1="-132.146" y1="91.804" x2="303.381" y2="91.804"/>
				
					<line fill="none" stroke="#00ABEB" stroke-width="0.15" stroke-miterlimit="10" x1="-132.146" y1="87.651" x2="303.381" y2="87.651"/>
				
					<line fill="none" stroke="#00ABEB" stroke-width="0.15" stroke-miterlimit="10" x1="-132.146" y1="83.496" x2="303.381" y2="83.496"/>
				
					<line fill="none" stroke="#00ABEB" stroke-width="0.15" stroke-miterlimit="10" x1="-132.146" y1="79.341" x2="303.381" y2="79.341"/>
				
					<line fill="none" stroke="#00ABEB" stroke-width="0.15" stroke-miterlimit="10" x1="-132.146" y1="75.187" x2="303.381" y2="75.187"/>
				
					<line fill="none" stroke="#00ABEB" stroke-width="0.15" stroke-miterlimit="10" x1="-132.146" y1="71.033" x2="303.381" y2="71.033"/>
				
					<line fill="none" stroke="#00ABEB" stroke-width="0.15" stroke-miterlimit="10" x1="-132.146" y1="66.877" x2="303.381" y2="66.877"/>
				
					<line fill="none" stroke="#00ABEB" stroke-width="0.15" stroke-miterlimit="10" x1="-132.146" y1="62.724" x2="303.381" y2="62.724"/>
				
					<line fill="none" stroke="#00ABEB" stroke-width="0.15" stroke-miterlimit="10" x1="-132.146" y1="58.569" x2="303.381" y2="58.569"/>
				
					<line fill="none" stroke="#00ABEB" stroke-width="0.15" stroke-miterlimit="10" x1="-132.146" y1="54.414" x2="303.381" y2="54.414"/>
				
					<line fill="none" stroke="#00ABEB" stroke-width="0.15" stroke-miterlimit="10" x1="-132.146" y1="50.26" x2="303.381" y2="50.26"/>
				
					<line fill="none" stroke="#00ABEB" stroke-width="0.15" stroke-miterlimit="10" x1="-132.146" y1="46.105" x2="303.381" y2="46.105"/>
				
					<line fill="none" stroke="#00ABEB" stroke-width="0.15" stroke-miterlimit="10" x1="-132.146" y1="41.951" x2="303.381" y2="41.951"/>
				
					<line fill="none" stroke="#00ABEB" stroke-width="0.15" stroke-miterlimit="10" x1="-132.146" y1="37.797" x2="303.381" y2="37.797"/>
				
					<line fill="none" stroke="#00ABEB" stroke-width="0.15" stroke-miterlimit="10" x1="-132.146" y1="33.642" x2="303.381" y2="33.642"/>
				
					<line fill="none" stroke="#00ABEB" stroke-width="0.15" stroke-miterlimit="10" x1="-132.146" y1="29.487" x2="303.381" y2="29.487"/>
				
					<line fill="none" stroke="#00ABEB" stroke-width="0.15" stroke-miterlimit="10" x1="-132.146" y1="25.333" x2="303.381" y2="25.333"/>
				
					<line fill="none" stroke="#00ABEB" stroke-width="0.15" stroke-miterlimit="10" x1="-132.146" y1="21.178" x2="303.381" y2="21.178"/>
				
					<line fill="none" stroke="#00ABEB" stroke-width="0.15" stroke-miterlimit="10" x1="-132.146" y1="17.024" x2="303.381" y2="17.024"/>
				
					<line fill="none" stroke="#00ABEB" stroke-width="0.15" stroke-miterlimit="10" x1="-132.146" y1="12.869" x2="303.381" y2="12.869"/>
				
					<line fill="none" stroke="#00ABEB" stroke-width="0.15" stroke-miterlimit="10" x1="-132.146" y1="8.714" x2="303.381" y2="8.714"/>
				
					<line fill="none" stroke="#00ABEB" stroke-width="0.15" stroke-miterlimit="10" x1="-132.146" y1="4.561" x2="303.381" y2="4.561"/>
				
					<line fill="none" stroke="#00ABEB" stroke-width="0.15" stroke-miterlimit="10" x1="-132.146" y1="0.406" x2="303.381" y2="0.406"/>
				
					<line fill="none" stroke="#00ABEB" stroke-width="0.15" stroke-miterlimit="10" x1="-132.146" y1="-3.749" x2="303.381" y2="-3.749"/>
				
					<line fill="none" stroke="#00ABEB" stroke-width="0.15" stroke-miterlimit="10" x1="-132.146" y1="-7.903" x2="303.381" y2="-7.903"/>
				
					<line fill="none" stroke="#00ABEB" stroke-width="0.15" stroke-miterlimit="10" x1="-132.146" y1="-12.058" x2="303.381" y2="-12.058"/>
				
					<line fill="none" stroke="#00ABEB" stroke-width="0.15" stroke-miterlimit="10" x1="-132.146" y1="-16.213" x2="303.381" y2="-16.213"/>
				
					<line fill="none" stroke="#00ABEB" stroke-width="0.15" stroke-miterlimit="10" x1="-132.146" y1="-20.366" x2="303.381" y2="-20.366"/>
				
					<line fill="none" stroke="#00ABEB" stroke-width="0.15" stroke-miterlimit="10" x1="-132.146" y1="-24.521" x2="303.381" y2="-24.521"/>
				
					<line fill="none" stroke="#00ABEB" stroke-width="0.15" stroke-miterlimit="10" x1="-132.146" y1="-28.676" x2="303.381" y2="-28.676"/>
				
					<line fill="none" stroke="#00ABEB" stroke-width="0.15" stroke-miterlimit="10" x1="-132.146" y1="-32.83" x2="303.381" y2="-32.83"/>
				
					<line fill="none" stroke="#00ABEB" stroke-width="0.15" stroke-miterlimit="10" x1="-132.146" y1="-36.985" x2="303.381" y2="-36.985"/>
				
					<line fill="none" stroke="#00ABEB" stroke-width="0.15" stroke-miterlimit="10" x1="-132.146" y1="-41.139" x2="303.381" y2="-41.139"/>
				
					<line fill="none" stroke="#00ABEB" stroke-width="0.15" stroke-miterlimit="10" x1="-132.146" y1="-45.294" x2="303.381" y2="-45.294"/>
				
					<line fill="none" stroke="#00ABEB" stroke-width="0.15" stroke-miterlimit="10" x1="-132.146" y1="-49.449" x2="303.381" y2="-49.449"/>
				
					<line fill="none" stroke="#00ABEB" stroke-width="0.15" stroke-miterlimit="10" x1="-132.146" y1="-53.603" x2="303.381" y2="-53.603"/>
			</g>
			<g id="Vertical_1_mm">
				<g>
					
						<line fill="none" stroke="#00ABEB" stroke-width="0.15" stroke-miterlimit="10" x1="-132.002" y1="187.339" x2="-132.002" y2="-62.023"/>
				</g>
				
					<line fill="none" stroke="#00ABEB" stroke-width="0.15" stroke-miterlimit="10" x1="-126.561" y1="187.339" x2="-126.561" y2="-62.023"/>
				
					<line fill="none" stroke="#00ABEB" stroke-width="0.15" stroke-miterlimit="10" x1="-121.118" y1="187.339" x2="-121.118" y2="-62.023"/>
				
					<line fill="none" stroke="#00ABEB" stroke-width="0.15" stroke-miterlimit="10" x1="-115.675" y1="187.339" x2="-115.675" y2="-62.023"/>
				
					<line fill="none" stroke="#00ABEB" stroke-width="0.15" stroke-miterlimit="10" x1="-110.234" y1="187.339" x2="-110.234" y2="-62.023"/>
				
					<line fill="none" stroke="#00ABEB" stroke-width="0.15" stroke-miterlimit="10" x1="-104.791" y1="187.339" x2="-104.791" y2="-62.023"/>
				
					<line fill="none" stroke="#00ABEB" stroke-width="0.15" stroke-miterlimit="10" x1="-99.347" y1="187.339" x2="-99.347" y2="-62.023"/>
				
					<line fill="none" stroke="#00ABEB" stroke-width="0.15" stroke-miterlimit="10" x1="-93.906" y1="187.339" x2="-93.906" y2="-62.023"/>
				
					<line fill="none" stroke="#00ABEB" stroke-width="0.15" stroke-miterlimit="10" x1="-88.462" y1="187.339" x2="-88.462" y2="-62.023"/>
				
					<line fill="none" stroke="#00ABEB" stroke-width="0.15" stroke-miterlimit="10" x1="-83.021" y1="187.339" x2="-83.021" y2="-62.023"/>
				
					<line fill="none" stroke="#00ABEB" stroke-width="0.15" stroke-miterlimit="10" x1="-77.578" y1="187.339" x2="-77.578" y2="-62.023"/>
				
					<line fill="none" stroke="#00ABEB" stroke-width="0.15" stroke-miterlimit="10" x1="-72.135" y1="187.339" x2="-72.135" y2="-62.023"/>
				
					<line fill="none" stroke="#00ABEB" stroke-width="0.15" stroke-miterlimit="10" x1="-66.694" y1="187.339" x2="-66.694" y2="-62.023"/>
				
					<line fill="none" stroke="#00ABEB" stroke-width="0.15" stroke-miterlimit="10" x1="-61.251" y1="187.339" x2="-61.251" y2="-62.023"/>
				
					<line fill="none" stroke="#00ABEB" stroke-width="0.15" stroke-miterlimit="10" x1="-55.808" y1="187.339" x2="-55.808" y2="-62.023"/>
				
					<line fill="none" stroke="#00ABEB" stroke-width="0.15" stroke-miterlimit="10" x1="-50.367" y1="187.339" x2="-50.367" y2="-62.023"/>
				
					<line fill="none" stroke="#00ABEB" stroke-width="0.15" stroke-miterlimit="10" x1="-44.924" y1="187.339" x2="-44.924" y2="-62.023"/>
				
					<line fill="none" stroke="#00ABEB" stroke-width="0.15" stroke-miterlimit="10" x1="-39.481" y1="187.339" x2="-39.481" y2="-62.023"/>
				
					<line fill="none" stroke="#00ABEB" stroke-width="0.15" stroke-miterlimit="10" x1="-34.039" y1="187.339" x2="-34.039" y2="-62.023"/>
				
					<line fill="none" stroke="#00ABEB" stroke-width="0.15" stroke-miterlimit="10" x1="-28.596" y1="187.339" x2="-28.596" y2="-62.023"/>
				
					<line fill="none" stroke="#00ABEB" stroke-width="0.15" stroke-miterlimit="10" x1="-23.153" y1="187.339" x2="-23.153" y2="-62.023"/>
				
					<line fill="none" stroke="#00ABEB" stroke-width="0.15" stroke-miterlimit="10" x1="-17.712" y1="187.339" x2="-17.712" y2="-62.023"/>
				
					<line fill="none" stroke="#00ABEB" stroke-width="0.15" stroke-miterlimit="10" x1="-12.269" y1="187.339" x2="-12.269" y2="-62.023"/>
				
					<line fill="none" stroke="#00ABEB" stroke-width="0.15" stroke-miterlimit="10" x1="-6.826" y1="187.339" x2="-6.826" y2="-62.023"/>
				
					<line fill="none" stroke="#00ABEB" stroke-width="0.15" stroke-miterlimit="10" x1="-1.384" y1="187.339" x2="-1.384" y2="-62.023"/>
				
					<line fill="none" stroke="#00ABEB" stroke-width="0.15" stroke-miterlimit="10" x1="4.059" y1="187.339" x2="4.059" y2="-62.023"/>
				<line fill="none" stroke="#00ABEB" stroke-width="0.15" stroke-miterlimit="10" x1="9.5" y1="187.339" x2="9.5" y2="-62.023"/>
				
					<line fill="none" stroke="#00ABEB" stroke-width="0.15" stroke-miterlimit="10" x1="14.943" y1="187.339" x2="14.943" y2="-62.023"/>
				
					<line fill="none" stroke="#00ABEB" stroke-width="0.15" stroke-miterlimit="10" x1="20.386" y1="187.339" x2="20.386" y2="-62.023"/>
				
					<line fill="none" stroke="#00ABEB" stroke-width="0.15" stroke-miterlimit="10" x1="25.827" y1="187.339" x2="25.827" y2="-62.023"/>
				
					<line fill="none" stroke="#00ABEB" stroke-width="0.15" stroke-miterlimit="10" x1="31.27" y1="187.339" x2="31.27" y2="-62.023"/>
				
					<line fill="none" stroke="#00ABEB" stroke-width="0.15" stroke-miterlimit="10" x1="36.713" y1="187.339" x2="36.713" y2="-62.023"/>
				
					<line fill="none" stroke="#00ABEB" stroke-width="0.15" stroke-miterlimit="10" x1="42.155" y1="187.339" x2="42.155" y2="-62.023"/>
				
					<line fill="none" stroke="#00ABEB" stroke-width="0.15" stroke-miterlimit="10" x1="47.598" y1="187.339" x2="47.598" y2="-62.023"/>
				
					<line fill="none" stroke="#00ABEB" stroke-width="0.15" stroke-miterlimit="10" x1="53.041" y1="187.339" x2="53.041" y2="-62.023"/>
				
					<line fill="none" stroke="#00ABEB" stroke-width="0.15" stroke-miterlimit="10" x1="58.482" y1="187.339" x2="58.482" y2="-62.023"/>
				
					<line fill="none" stroke="#00ABEB" stroke-width="0.15" stroke-miterlimit="10" x1="63.925" y1="187.339" x2="63.925" y2="-62.023"/>
				
					<line fill="none" stroke="#00ABEB" stroke-width="0.15" stroke-miterlimit="10" x1="69.368" y1="187.339" x2="69.368" y2="-62.023"/>
				
					<line fill="none" stroke="#00ABEB" stroke-width="0.15" stroke-miterlimit="10" x1="74.809" y1="187.339" x2="74.809" y2="-62.023"/>
				
					<line fill="none" stroke="#00ABEB" stroke-width="0.15" stroke-miterlimit="10" x1="80.252" y1="187.339" x2="80.252" y2="-62.023"/>
				
					<line fill="none" stroke="#00ABEB" stroke-width="0.15" stroke-miterlimit="10" x1="85.693" y1="187.339" x2="85.693" y2="-62.023"/>
				
					<line fill="none" stroke="#00ABEB" stroke-width="0.15" stroke-miterlimit="10" x1="91.137" y1="187.339" x2="91.137" y2="-62.023"/>
				
					<line fill="none" stroke="#00ABEB" stroke-width="0.15" stroke-miterlimit="10" x1="96.58" y1="187.339" x2="96.58" y2="-62.023"/>
				
					<line fill="none" stroke="#00ABEB" stroke-width="0.15" stroke-miterlimit="10" x1="102.021" y1="187.339" x2="102.021" y2="-62.023"/>
				
					<line fill="none" stroke="#00ABEB" stroke-width="0.15" stroke-miterlimit="10" x1="107.465" y1="187.339" x2="107.465" y2="-62.023"/>
				
					<line fill="none" stroke="#00ABEB" stroke-width="0.15" stroke-miterlimit="10" x1="112.907" y1="187.339" x2="112.907" y2="-62.023"/>
				
					<line fill="none" stroke="#00ABEB" stroke-width="0.15" stroke-miterlimit="10" x1="118.349" y1="187.339" x2="118.349" y2="-62.023"/>
				
					<line fill="none" stroke="#00ABEB" stroke-width="0.15" stroke-miterlimit="10" x1="123.792" y1="187.339" x2="123.792" y2="-62.023"/>
				
					<line fill="none" stroke="#00ABEB" stroke-width="0.15" stroke-miterlimit="10" x1="129.235" y1="187.339" x2="129.235" y2="-62.023"/>
				
					<line fill="none" stroke="#00ABEB" stroke-width="0.15" stroke-miterlimit="10" x1="134.676" y1="187.339" x2="134.676" y2="-62.023"/>
				
					<line fill="none" stroke="#00ABEB" stroke-width="0.15" stroke-miterlimit="10" x1="140.119" y1="187.339" x2="140.119" y2="-62.023"/>
				
					<line fill="none" stroke="#00ABEB" stroke-width="0.15" stroke-miterlimit="10" x1="145.562" y1="187.339" x2="145.562" y2="-62.023"/>
				
					<line fill="none" stroke="#00ABEB" stroke-width="0.15" stroke-miterlimit="10" x1="151.003" y1="187.339" x2="151.003" y2="-62.023"/>
				
					<line fill="none" stroke="#00ABEB" stroke-width="0.15" stroke-miterlimit="10" x1="156.446" y1="187.339" x2="156.446" y2="-62.023"/>
				
					<line fill="none" stroke="#00ABEB" stroke-width="0.15" stroke-miterlimit="10" x1="161.889" y1="187.339" x2="161.889" y2="-62.023"/>
				
					<line fill="none" stroke="#00ABEB" stroke-width="0.15" stroke-miterlimit="10" x1="167.33" y1="187.339" x2="167.33" y2="-62.023"/>
				
					<line fill="none" stroke="#00ABEB" stroke-width="0.15" stroke-miterlimit="10" x1="172.774" y1="187.339" x2="172.774" y2="-62.023"/>
				
					<line fill="none" stroke="#00ABEB" stroke-width="0.15" stroke-miterlimit="10" x1="178.216" y1="187.339" x2="178.216" y2="-62.023"/>
				
					<line fill="none" stroke="#00ABEB" stroke-width="0.15" stroke-miterlimit="10" x1="183.659" y1="187.339" x2="183.659" y2="-62.023"/>
				
					<line fill="none" stroke="#00ABEB" stroke-width="0.15" stroke-miterlimit="10" x1="189.102" y1="187.339" x2="189.102" y2="-62.023"/>
				
					<line fill="none" stroke="#00ABEB" stroke-width="0.15" stroke-miterlimit="10" x1="194.543" y1="187.339" x2="194.543" y2="-62.023"/>
				
					<line fill="none" stroke="#00ABEB" stroke-width="0.15" stroke-miterlimit="10" x1="199.986" y1="187.339" x2="199.986" y2="-62.023"/>
				
					<line fill="none" stroke="#00ABEB" stroke-width="0.15" stroke-miterlimit="10" x1="205.429" y1="187.339" x2="205.429" y2="-62.023"/>
				
					<line fill="none" stroke="#00ABEB" stroke-width="0.15" stroke-miterlimit="10" x1="210.87" y1="187.339" x2="210.87" y2="-62.023"/>
				
					<line fill="none" stroke="#00ABEB" stroke-width="0.15" stroke-miterlimit="10" x1="216.313" y1="187.339" x2="216.313" y2="-62.023"/>
				
					<line fill="none" stroke="#00ABEB" stroke-width="0.15" stroke-miterlimit="10" x1="221.756" y1="187.339" x2="221.756" y2="-62.023"/>
				
					<line fill="none" stroke="#00ABEB" stroke-width="0.15" stroke-miterlimit="10" x1="227.197" y1="187.339" x2="227.197" y2="-62.023"/>
				
					<line fill="none" stroke="#00ABEB" stroke-width="0.15" stroke-miterlimit="10" x1="232.64" y1="187.339" x2="232.64" y2="-62.023"/>
				
					<line fill="none" stroke="#00ABEB" stroke-width="0.15" stroke-miterlimit="10" x1="238.083" y1="187.339" x2="238.083" y2="-62.023"/>
				
					<line fill="none" stroke="#00ABEB" stroke-width="0.15" stroke-miterlimit="10" x1="243.525" y1="187.339" x2="243.525" y2="-62.023"/>
				
					<line fill="none" stroke="#00ABEB" stroke-width="0.15" stroke-miterlimit="10" x1="248.968" y1="187.339" x2="248.968" y2="-62.023"/>
				
					<line fill="none" stroke="#00ABEB" stroke-width="0.15" stroke-miterlimit="10" x1="254.411" y1="187.339" x2="254.411" y2="-62.023"/>
				
					<line fill="none" stroke="#00ABEB" stroke-width="0.15" stroke-miterlimit="10" x1="259.853" y1="187.339" x2="259.853" y2="-62.023"/>
				
					<line fill="none" stroke="#00ABEB" stroke-width="0.15" stroke-miterlimit="10" x1="265.296" y1="187.339" x2="265.296" y2="-62.023"/>
				
					<line fill="none" stroke="#00ABEB" stroke-width="0.15" stroke-miterlimit="10" x1="270.737" y1="187.339" x2="270.737" y2="-62.023"/>
				
					<line fill="none" stroke="#00ABEB" stroke-width="0.15" stroke-miterlimit="10" x1="276.18" y1="187.339" x2="276.18" y2="-62.023"/>
				
					<line fill="none" stroke="#00ABEB" stroke-width="0.15" stroke-miterlimit="10" x1="281.623" y1="187.339" x2="281.623" y2="-62.023"/>
				
					<line fill="none" stroke="#00ABEB" stroke-width="0.15" stroke-miterlimit="10" x1="287.064" y1="187.339" x2="287.064" y2="-62.023"/>
				
					<line fill="none" stroke="#00ABEB" stroke-width="0.15" stroke-miterlimit="10" x1="292.507" y1="187.339" x2="292.507" y2="-62.023"/>
				
					<line fill="none" stroke="#00ABEB" stroke-width="0.15" stroke-miterlimit="10" x1="297.95" y1="187.339" x2="297.95" y2="-62.023"/>
				
					<line fill="none" stroke="#00ABEB" stroke-width="0.15" stroke-miterlimit="10" x1="303.391" y1="187.339" x2="303.391" y2="-62.023"/>
			</g>
			<g id="Horizontal_5_mm_1_">
				
					<line fill="none" stroke="#00ABEB" stroke-width="0.3" stroke-miterlimit="10" x1="-132.674" y1="187.359" x2="303.381" y2="187.359"/>
				
					<line fill="none" stroke="#00ABEB" stroke-width="0.3" stroke-miterlimit="10" x1="-132.674" y1="166.587" x2="303.381" y2="166.587"/>
				
					<line fill="none" stroke="#00ABEB" stroke-width="0.3" stroke-miterlimit="10" x1="-132.674" y1="145.814" x2="303.381" y2="145.814"/>
				
					<line fill="none" stroke="#00ABEB" stroke-width="0.3" stroke-miterlimit="10" x1="-132.674" y1="125.041" x2="303.381" y2="125.041"/>
				
					<line fill="none" stroke="#00ABEB" stroke-width="0.3" stroke-miterlimit="10" x1="-132.674" y1="104.269" x2="303.381" y2="104.269"/>
				
					<line fill="none" stroke="#00ABEB" stroke-width="0.3" stroke-miterlimit="10" x1="-132.674" y1="83.496" x2="303.381" y2="83.496"/>
				
					<line fill="none" stroke="#00ABEB" stroke-width="0.3" stroke-miterlimit="10" x1="-132.674" y1="62.724" x2="303.381" y2="62.724"/>
				
					<line fill="none" stroke="#00ABEB" stroke-width="0.3" stroke-miterlimit="10" x1="-132.674" y1="41.951" x2="303.381" y2="41.951"/>
				
					<line fill="none" stroke="#00ABEB" stroke-width="0.3" stroke-miterlimit="10" x1="-132.674" y1="21.178" x2="303.381" y2="21.178"/>
				
					<line fill="none" stroke="#00ABEB" stroke-width="0.3" stroke-miterlimit="10" x1="-132.674" y1="0.406" x2="303.381" y2="0.406"/>
				
					<line fill="none" stroke="#00ABEB" stroke-width="0.3" stroke-miterlimit="10" x1="-132.674" y1="-20.366" x2="303.381" y2="-20.366"/>
			</g>
			<g id="Vertical_5_mm">
				
					<line fill="none" stroke="#00ABEB" stroke-width="0.3" stroke-miterlimit="10" x1="-132.002" y1="187.339" x2="-132.002" y2="-62.426"/>
				
					<line fill="none" stroke="#00ABEB" stroke-width="0.3" stroke-miterlimit="10" x1="-104.791" y1="187.339" x2="-104.791" y2="-62.426"/>
				
					<line fill="none" stroke="#00ABEB" stroke-width="0.3" stroke-miterlimit="10" x1="-77.578" y1="187.339" x2="-77.578" y2="-62.426"/>
				
					<line fill="none" stroke="#00ABEB" stroke-width="0.3" stroke-miterlimit="10" x1="-50.367" y1="187.339" x2="-50.367" y2="-62.426"/>
				
					<line fill="none" stroke="#00ABEB" stroke-width="0.3" stroke-miterlimit="10" x1="-23.153" y1="187.339" x2="-23.153" y2="-62.426"/>
				
					<line fill="none" stroke="#00ABEB" stroke-width="0.3" stroke-miterlimit="10" x1="4.059" y1="187.339" x2="4.059" y2="-62.426"/>
				
					<line fill="none" stroke="#00ABEB" stroke-width="0.3" stroke-miterlimit="10" x1="31.27" y1="187.339" x2="31.27" y2="-62.426"/>
				
					<line fill="none" stroke="#00ABEB" stroke-width="0.3" stroke-miterlimit="10" x1="58.482" y1="187.339" x2="58.482" y2="-62.426"/>
				
					<line fill="none" stroke="#00ABEB" stroke-width="0.3" stroke-miterlimit="10" x1="85.693" y1="187.339" x2="85.693" y2="-62.426"/>
				
					<line fill="none" stroke="#00ABEB" stroke-width="0.3" stroke-miterlimit="10" x1="112.907" y1="187.339" x2="112.907" y2="-62.426"/>
				
					<line fill="none" stroke="#00ABEB" stroke-width="0.3" stroke-miterlimit="10" x1="140.119" y1="187.339" x2="140.119" y2="-62.426"/>
				
					<line fill="none" stroke="#00ABEB" stroke-width="0.3" stroke-miterlimit="10" x1="167.33" y1="187.339" x2="167.33" y2="-62.426"/>
				
					<line fill="none" stroke="#00ABEB" stroke-width="0.3" stroke-miterlimit="10" x1="194.543" y1="187.339" x2="194.543" y2="-62.426"/>
				
					<line fill="none" stroke="#00ABEB" stroke-width="0.3" stroke-miterlimit="10" x1="221.756" y1="187.339" x2="221.756" y2="-62.426"/>
				
					<line fill="none" stroke="#00ABEB" stroke-width="0.3" stroke-miterlimit="10" x1="248.968" y1="187.339" x2="248.968" y2="-62.426"/>
				
					<line fill="none" stroke="#00ABEB" stroke-width="0.3" stroke-miterlimit="10" x1="276.18" y1="187.339" x2="276.18" y2="-62.426"/>
				
					<line fill="none" stroke="#00ABEB" stroke-width="0.3" stroke-miterlimit="10" x1="303.391" y1="187.339" x2="303.391" y2="-62.426"/>
			</g>
			<g id="Horizontal_10_mm">
				
					<line id="_x31_9_1_" fill="none" stroke="#00ABEB" stroke-width="0.7" stroke-miterlimit="10" x1="-132.674" y1="187.359" x2="303.381" y2="187.359"/>
				
					<line id="_x32_0" fill="none" stroke="#00ABEB" stroke-width="0.7" stroke-miterlimit="10" x1="-132.674" y1="145.814" x2="303.381" y2="145.814"/>
				
					<line id="_x32_1" fill="none" stroke="#00ABEB" stroke-width="0.7" stroke-miterlimit="10" x1="-132.674" y1="104.269" x2="303.381" y2="104.269"/>
				
					<line id="_x32_2" fill="none" stroke="#00ABEB" stroke-width="0.7" stroke-miterlimit="10" x1="-132.674" y1="62.724" x2="303.381" y2="62.724"/>
				
					<line id="_x32_3" fill="none" stroke="#00ABEB" stroke-width="0.7" stroke-miterlimit="10" x1="-132.674" y1="21.178" x2="303.381" y2="21.178"/>
				
					<line id="_x32_4" fill="none" stroke="#00ABEB" stroke-width="0.7" stroke-miterlimit="10" x1="-132.674" y1="-20.366" x2="303.381" y2="-20.366"/>
				
					<line id="_x32_5" fill="none" stroke="#00ABEB" stroke-width="0.7" stroke-miterlimit="10" x1="-132.674" y1="-61.912" x2="303.381" y2="-61.912"/>
			</g>
			<g id="Vertical_10_mm">
				
					<line id="_x30_" fill="none" stroke="#00ABEB" stroke-width="0.7" stroke-miterlimit="10" x1="-132.002" y1="187.339" x2="-132.002" y2="-62.426"/>
				
					<line id="_x31_" fill="none" stroke="#00ABEB" stroke-width="0.7" stroke-miterlimit="10" x1="-77.578" y1="187.339" x2="-77.578" y2="-62.426"/>
				
					<line id="_x32_" fill="none" stroke="#00ABEB" stroke-width="0.7" stroke-miterlimit="10" x1="-23.153" y1="187.339" x2="-23.153" y2="-62.426"/>
				
					<line id="_x33_" fill="none" stroke="#00ABEB" stroke-width="0.7" stroke-miterlimit="10" x1="31.27" y1="187.339" x2="31.27" y2="-62.426"/>
				
					<line id="_x34_" fill="none" stroke="#00ABEB" stroke-width="0.7" stroke-miterlimit="10" x1="85.693" y1="187.339" x2="85.693" y2="-62.426"/>
				
					<line id="_x35_" fill="none" stroke="#00ABEB" stroke-width="0.7" stroke-miterlimit="10" x1="140.119" y1="187.339" x2="140.119" y2="-62.426"/>
				
					<line id="_x36_" fill="none" stroke="#00ABEB" stroke-width="0.7" stroke-miterlimit="10" x1="194.543" y1="187.339" x2="194.543" y2="-62.426"/>
				
					<line id="_x37_" fill="none" stroke="#00ABEB" stroke-width="0.7" stroke-miterlimit="10" x1="248.968" y1="187.339" x2="248.968" y2="-62.426"/>
				
					<line id="_x38_" fill="none" stroke="#00ABEB" stroke-width="0.7" stroke-miterlimit="10" x1="303.391" y1="187.339" x2="303.391" y2="-62.426"/>
			</g>
		</g>
	</g>
</g>
<g id="layer_1">
	<g>
		<path fill="#FF0000" d="M102.185,90.606l-0.318-0.053c-0.212-1.893-1.079-2.883-2.635-2.883c-1.309,0-2.546,0.672-3.519,1.716
			c-1.273,1.361-1.91,3.378-1.91,5.323c0,2.476,1.132,3.625,3.095,3.625c1.45,0,2.511-0.513,4.05-2.104l0.318,0.266
			c-1.591,1.874-3.006,2.635-4.828,2.635c-2.706,0-4.616-1.698-4.616-4.616c0-2.493,1.362-4.81,3.307-6.189
			c1.132-0.813,2.476-1.291,3.873-1.291c0.583,0,1.327,0.035,2.069,0.301c0.354,0.124,0.566,0.124,0.725,0.124
			c0.354,0,0.53-0.106,0.672-0.39h0.372L102.185,90.606z"/>
	</g>
	<path opacity="0.05" fill="#FF0000" d="M94.802,78.97c-16.534,3.159-63.695,24.515-66.744,7.96
		c-4.286-23.269,33.678-20.615,34.291-33.27c0.555-11.466-38.577-11.838-29.596-35.107c5.684-14.726,49.211,8.531,64.907,10.206
		c15.308,1.633,51.997-20.185,55.518-6.532c4.843,18.778-27.2,18.108-26.943,27.759c0.408,15.308,40.618,9.593,36.74,30.004
		C159.997,95.664,110.472,75.976,94.802,78.97z"/>
	<g>
		<g>
			<path fill="none" stroke="#FF0000" stroke-width="1.5" stroke-linecap="round" stroke-linejoin="round" d="M93.215,79.306
				c-17.767,4.083-62.201,23.677-65.158,7.624c-4.286-23.269,33.678-20.615,34.291-33.27c0.555-11.466-38.577-11.838-29.596-35.107
				c5.684-14.726,49.211,8.531,64.907,10.206c15.308,1.633,51.997-20.185,55.518-6.532c4.843,18.778-27.2,18.108-26.943,27.759
				c0.408,15.308,40.618,9.593,36.74,30.004c-2.978,15.673-52.503-4.014-68.173-1.021"/>
			<g>
				<polygon fill="#FF0000" points="86.922,74.603 86.193,75.916 92.663,79.499 88.617,85.691 89.874,86.511 94.801,78.969 				"/>
			</g>
		</g>
	</g>
	<g>
		<g>
			
				<line fill="none" stroke="#309424" stroke-width="0.5" stroke-linecap="round" stroke-linejoin="round" x1="62.349" y1="19.726" x2="62.349" y2="22.726"/>
			
				<line fill="none" stroke="#309424" stroke-width="0.5" stroke-linecap="round" stroke-linejoin="round" stroke-dasharray="5.5812,5.5812" x1="62.349" y1="28.307" x2="62.349" y2="81.328"/>
			
				<line fill="none" stroke="#309424" stroke-width="0.5" stroke-linecap="round" stroke-linejoin="round" x1="62.349" y1="84.119" x2="62.349" y2="87.119"/>
		</g>
	</g>
	<g>
		<g>
			
				<line fill="none" stroke="#309424" stroke-width="0.5" stroke-linecap="round" stroke-linejoin="round" x1="126.323" y1="23.181" x2="126.323" y2="26.181"/>
			
				<line fill="none" stroke="#309424" stroke-width="0.5" stroke-linecap="round" stroke-linejoin="round" stroke-dasharray="5.9649,5.9649" x1="126.323" y1="32.146" x2="126.323" y2="76.883"/>
			
				<line fill="none" stroke="#309424" stroke-width="0.5" stroke-linecap="round" stroke-linejoin="round" x1="126.323" y1="79.865" x2="126.323" y2="82.865"/>
		</g>
	</g>
	<g>
	</g>
</g>
</svg>
