<?xml version="1.0" encoding="utf-8"?>
<!-- Generator: Adobe Illustrator 25.4.1, SVG Export Plug-In . SVG Version: 6.00 Build 0)  -->
<svg version="1.1" xmlns="http://www.w3.org/2000/svg" xmlns:xlink="http://www.w3.org/1999/xlink" x="0px" y="0px"
	 viewBox="0 0 50.503 38.061" enable-background="new 0 0 50.503 38.061" xml:space="preserve">
<g id="Graph_paper_slanted" opacity="0.5">
	<g id="Clipped_grid_00000003068028900943026870000011536296927355263674_">
		<defs>
			<polygon id="SVGID_1_" points="33.469,38.843 -21.835,38.843 7.254,9.755 62.558,9.755 			"/>
		</defs>
		<clipPath id="SVGID_00000141423568090280599170000011768275381313114301_">
			<use xlink:href="#SVGID_1_"  overflow="visible"/>
		</clipPath>
		
			<g id="Grid_00000142891597197125820610000009767860333217090727_" opacity="0.25" clip-path="url(#SVGID_00000141423568090280599170000011768275381313114301_)">
			<g id="Horizontal_1_mm_00000151508609497893311650000018408800186222605470_">
				
					<line fill="none" stroke="#00ABEB" stroke-width="0.15" stroke-miterlimit="10" x1="-13.861" y1="-11.45" x2="125.226" y2="-11.45"/>
				
					<line fill="none" stroke="#00ABEB" stroke-width="0.15" stroke-miterlimit="10" x1="-12.642" y1="-12.669" x2="126.445" y2="-12.669"/>
				
					<line fill="none" stroke="#00ABEB" stroke-width="0.15" stroke-miterlimit="10" x1="-85.776" y1="60.465" x2="53.311" y2="60.465"/>
				
					<line fill="none" stroke="#00ABEB" stroke-width="0.15" stroke-miterlimit="10" x1="-84.557" y1="59.246" x2="54.53" y2="59.246"/>
				
					<line fill="none" stroke="#00ABEB" stroke-width="0.15" stroke-miterlimit="10" x1="-83.338" y1="58.027" x2="55.749" y2="58.027"/>
				
					<line fill="none" stroke="#00ABEB" stroke-width="0.15" stroke-miterlimit="10" x1="-82.119" y1="56.808" x2="56.968" y2="56.808"/>
				
					<line fill="none" stroke="#00ABEB" stroke-width="0.15" stroke-miterlimit="10" x1="-80.9" y1="55.589" x2="58.187" y2="55.589"/>
				
					<line fill="none" stroke="#00ABEB" stroke-width="0.15" stroke-miterlimit="10" x1="-79.682" y1="54.371" x2="59.405" y2="54.371"/>
				
					<line fill="none" stroke="#00ABEB" stroke-width="0.15" stroke-miterlimit="10" x1="-78.463" y1="53.152" x2="60.624" y2="53.152"/>
				
					<line fill="none" stroke="#00ABEB" stroke-width="0.15" stroke-miterlimit="10" x1="-77.244" y1="51.933" x2="61.843" y2="51.933"/>
				
					<line fill="none" stroke="#00ABEB" stroke-width="0.15" stroke-miterlimit="10" x1="-76.025" y1="50.714" x2="63.062" y2="50.714"/>
				
					<line fill="none" stroke="#00ABEB" stroke-width="0.15" stroke-miterlimit="10" x1="-74.806" y1="49.495" x2="64.281" y2="49.495"/>
				
					<line fill="none" stroke="#00ABEB" stroke-width="0.15" stroke-miterlimit="10" x1="-73.587" y1="48.276" x2="65.5" y2="48.276"/>
				
					<line fill="none" stroke="#00ABEB" stroke-width="0.15" stroke-miterlimit="10" x1="-72.368" y1="47.057" x2="66.719" y2="47.057"/>
				
					<line fill="none" stroke="#00ABEB" stroke-width="0.15" stroke-miterlimit="10" x1="-71.149" y1="45.838" x2="67.938" y2="45.838"/>
				
					<line fill="none" stroke="#00ABEB" stroke-width="0.15" stroke-miterlimit="10" x1="-69.931" y1="44.619" x2="69.157" y2="44.619"/>
				<line fill="none" stroke="#00ABEB" stroke-width="0.15" stroke-miterlimit="10" x1="-68.711" y1="43.4" x2="70.376" y2="43.4"/>
				
					<line fill="none" stroke="#00ABEB" stroke-width="0.15" stroke-miterlimit="10" x1="-67.492" y1="42.181" x2="71.595" y2="42.181"/>
				
					<line fill="none" stroke="#00ABEB" stroke-width="0.15" stroke-miterlimit="10" x1="-66.274" y1="40.963" x2="72.813" y2="40.963"/>
				
					<line fill="none" stroke="#00ABEB" stroke-width="0.15" stroke-miterlimit="10" x1="-65.055" y1="39.744" x2="74.032" y2="39.744"/>
				
					<line fill="none" stroke="#00ABEB" stroke-width="0.15" stroke-miterlimit="10" x1="-63.836" y1="38.525" x2="75.251" y2="38.525"/>
				
					<line fill="none" stroke="#00ABEB" stroke-width="0.15" stroke-miterlimit="10" x1="-62.617" y1="37.306" x2="76.47" y2="37.306"/>
				
					<line fill="none" stroke="#00ABEB" stroke-width="0.15" stroke-miterlimit="10" x1="-61.398" y1="36.087" x2="77.689" y2="36.087"/>
				
					<line fill="none" stroke="#00ABEB" stroke-width="0.15" stroke-miterlimit="10" x1="-60.179" y1="34.868" x2="78.908" y2="34.868"/>
				
					<line fill="none" stroke="#00ABEB" stroke-width="0.15" stroke-miterlimit="10" x1="-58.96" y1="33.649" x2="80.127" y2="33.649"/>
				
					<line fill="none" stroke="#00ABEB" stroke-width="0.15" stroke-miterlimit="10" x1="-57.741" y1="32.43" x2="81.346" y2="32.43"/>
				
					<line fill="none" stroke="#00ABEB" stroke-width="0.15" stroke-miterlimit="10" x1="-56.523" y1="31.212" x2="82.565" y2="31.212"/>
				
					<line fill="none" stroke="#00ABEB" stroke-width="0.15" stroke-miterlimit="10" x1="-55.304" y1="29.993" x2="83.784" y2="29.993"/>
				
					<line fill="none" stroke="#00ABEB" stroke-width="0.15" stroke-miterlimit="10" x1="-54.084" y1="28.773" x2="85.003" y2="28.773"/>
				
					<line fill="none" stroke="#00ABEB" stroke-width="0.15" stroke-miterlimit="10" x1="-52.866" y1="27.555" x2="86.221" y2="27.555"/>
				
					<line fill="none" stroke="#00ABEB" stroke-width="0.15" stroke-miterlimit="10" x1="-51.647" y1="26.336" x2="87.44" y2="26.336"/>
				
					<line fill="none" stroke="#00ABEB" stroke-width="0.15" stroke-miterlimit="10" x1="-50.428" y1="25.117" x2="88.659" y2="25.117"/>
				
					<line fill="none" stroke="#00ABEB" stroke-width="0.15" stroke-miterlimit="10" x1="-49.209" y1="23.898" x2="89.878" y2="23.898"/>
				
					<line fill="none" stroke="#00ABEB" stroke-width="0.15" stroke-miterlimit="10" x1="-47.99" y1="22.679" x2="91.097" y2="22.679"/>
				
					<line fill="none" stroke="#00ABEB" stroke-width="0.15" stroke-miterlimit="10" x1="-46.771" y1="21.46" x2="92.316" y2="21.46"/>
				
					<line fill="none" stroke="#00ABEB" stroke-width="0.15" stroke-miterlimit="10" x1="-45.552" y1="20.241" x2="93.535" y2="20.241"/>
				
					<line fill="none" stroke="#00ABEB" stroke-width="0.15" stroke-miterlimit="10" x1="-44.333" y1="19.022" x2="94.754" y2="19.022"/>
				
					<line fill="none" stroke="#00ABEB" stroke-width="0.15" stroke-miterlimit="10" x1="-43.114" y1="17.803" x2="95.973" y2="17.803"/>
				
					<line fill="none" stroke="#00ABEB" stroke-width="0.15" stroke-miterlimit="10" x1="-41.896" y1="16.585" x2="97.191" y2="16.585"/>
				
					<line fill="none" stroke="#00ABEB" stroke-width="0.15" stroke-miterlimit="10" x1="-40.677" y1="15.366" x2="98.41" y2="15.366"/>
				
					<line fill="none" stroke="#00ABEB" stroke-width="0.15" stroke-miterlimit="10" x1="-39.458" y1="14.147" x2="99.629" y2="14.147"/>
				
					<line fill="none" stroke="#00ABEB" stroke-width="0.15" stroke-miterlimit="10" x1="-38.239" y1="12.928" x2="100.848" y2="12.928"/>
				
					<line fill="none" stroke="#00ABEB" stroke-width="0.15" stroke-miterlimit="10" x1="-37.02" y1="11.709" x2="102.067" y2="11.709"/>
				
					<line fill="none" stroke="#00ABEB" stroke-width="0.15" stroke-miterlimit="10" x1="-35.801" y1="10.49" x2="103.286" y2="10.49"/>
				
					<line fill="none" stroke="#00ABEB" stroke-width="0.15" stroke-miterlimit="10" x1="-34.582" y1="9.271" x2="104.505" y2="9.271"/>
				
					<line fill="none" stroke="#00ABEB" stroke-width="0.15" stroke-miterlimit="10" x1="-33.363" y1="8.052" x2="105.724" y2="8.052"/>
				
					<line fill="none" stroke="#00ABEB" stroke-width="0.15" stroke-miterlimit="10" x1="-32.144" y1="6.834" x2="106.943" y2="6.834"/>
				
					<line fill="none" stroke="#00ABEB" stroke-width="0.15" stroke-miterlimit="10" x1="-30.925" y1="5.615" x2="108.162" y2="5.615"/>
				
					<line fill="none" stroke="#00ABEB" stroke-width="0.15" stroke-miterlimit="10" x1="-29.706" y1="4.396" x2="109.381" y2="4.396"/>
				
					<line fill="none" stroke="#00ABEB" stroke-width="0.15" stroke-miterlimit="10" x1="-28.488" y1="3.177" x2="110.599" y2="3.177"/>
				
					<line fill="none" stroke="#00ABEB" stroke-width="0.15" stroke-miterlimit="10" x1="-27.269" y1="1.958" x2="111.818" y2="1.958"/>
				
					<line fill="none" stroke="#00ABEB" stroke-width="0.15" stroke-miterlimit="10" x1="-26.05" y1="0.739" x2="113.037" y2="0.739"/>
				
					<line fill="none" stroke="#00ABEB" stroke-width="0.15" stroke-miterlimit="10" x1="-24.831" y1="-0.48" x2="114.256" y2="-0.48"/>
				
					<line fill="none" stroke="#00ABEB" stroke-width="0.15" stroke-miterlimit="10" x1="-23.612" y1="-1.699" x2="115.475" y2="-1.699"/>
				
					<line fill="none" stroke="#00ABEB" stroke-width="0.15" stroke-miterlimit="10" x1="-22.393" y1="-2.918" x2="116.694" y2="-2.918"/>
				
					<line fill="none" stroke="#00ABEB" stroke-width="0.15" stroke-miterlimit="10" x1="-21.174" y1="-4.136" x2="117.913" y2="-4.136"/>
				
					<line fill="none" stroke="#00ABEB" stroke-width="0.15" stroke-miterlimit="10" x1="-19.955" y1="-5.356" x2="119.132" y2="-5.356"/>
				
					<line fill="none" stroke="#00ABEB" stroke-width="0.15" stroke-miterlimit="10" x1="-18.736" y1="-6.574" x2="120.351" y2="-6.574"/>
				
					<line fill="none" stroke="#00ABEB" stroke-width="0.15" stroke-miterlimit="10" x1="-17.517" y1="-7.793" x2="121.57" y2="-7.793"/>
				
					<line fill="none" stroke="#00ABEB" stroke-width="0.15" stroke-miterlimit="10" x1="-16.298" y1="-9.012" x2="122.789" y2="-9.012"/>
				
					<line fill="none" stroke="#00ABEB" stroke-width="0.15" stroke-miterlimit="10" x1="-15.08" y1="-10.231" x2="124.007" y2="-10.231"/>
			</g>
			<g id="Vertical_1_mm_00000181073523592228201180000012361058669048395659_">
				<g>
					
						<line fill="none" stroke="#00ABEB" stroke-width="0.15" stroke-miterlimit="10" x1="-85.724" y1="60.459" x2="-12.563" y2="-12.701"/>
				</g>
				
					<line fill="none" stroke="#00ABEB" stroke-width="0.15" stroke-miterlimit="10" x1="-83.986" y1="60.459" x2="-10.826" y2="-12.701"/>
				
					<line fill="none" stroke="#00ABEB" stroke-width="0.15" stroke-miterlimit="10" x1="-82.248" y1="60.459" x2="-9.087" y2="-12.701"/>
				
					<line fill="none" stroke="#00ABEB" stroke-width="0.15" stroke-miterlimit="10" x1="-80.51" y1="60.459" x2="-7.349" y2="-12.701"/>
				
					<line fill="none" stroke="#00ABEB" stroke-width="0.15" stroke-miterlimit="10" x1="-78.772" y1="60.459" x2="-5.611" y2="-12.701"/>
				
					<line fill="none" stroke="#00ABEB" stroke-width="0.15" stroke-miterlimit="10" x1="-77.034" y1="60.459" x2="-3.873" y2="-12.701"/>
				
					<line fill="none" stroke="#00ABEB" stroke-width="0.15" stroke-miterlimit="10" x1="-75.296" y1="60.459" x2="-2.135" y2="-12.701"/>
				
					<line fill="none" stroke="#00ABEB" stroke-width="0.15" stroke-miterlimit="10" x1="-73.558" y1="60.459" x2="-0.397" y2="-12.701"/>
				
					<line fill="none" stroke="#00ABEB" stroke-width="0.15" stroke-miterlimit="10" x1="-71.82" y1="60.459" x2="1.341" y2="-12.701"/>
				
					<line fill="none" stroke="#00ABEB" stroke-width="0.15" stroke-miterlimit="10" x1="-70.082" y1="60.459" x2="3.079" y2="-12.701"/>
				
					<line fill="none" stroke="#00ABEB" stroke-width="0.15" stroke-miterlimit="10" x1="-68.344" y1="60.459" x2="4.817" y2="-12.701"/>
				
					<line fill="none" stroke="#00ABEB" stroke-width="0.15" stroke-miterlimit="10" x1="-66.605" y1="60.459" x2="6.555" y2="-12.701"/>
				
					<line fill="none" stroke="#00ABEB" stroke-width="0.15" stroke-miterlimit="10" x1="-64.868" y1="60.459" x2="8.293" y2="-12.701"/>
				
					<line fill="none" stroke="#00ABEB" stroke-width="0.15" stroke-miterlimit="10" x1="-63.13" y1="60.459" x2="10.031" y2="-12.701"/>
				
					<line fill="none" stroke="#00ABEB" stroke-width="0.15" stroke-miterlimit="10" x1="-61.391" y1="60.459" x2="11.77" y2="-12.701"/>
				
					<line fill="none" stroke="#00ABEB" stroke-width="0.15" stroke-miterlimit="10" x1="-59.654" y1="60.459" x2="13.507" y2="-12.701"/>
				
					<line fill="none" stroke="#00ABEB" stroke-width="0.15" stroke-miterlimit="10" x1="-57.915" y1="60.459" x2="15.245" y2="-12.701"/>
				
					<line fill="none" stroke="#00ABEB" stroke-width="0.15" stroke-miterlimit="10" x1="-56.177" y1="60.459" x2="16.984" y2="-12.701"/>
				
					<line fill="none" stroke="#00ABEB" stroke-width="0.15" stroke-miterlimit="10" x1="-54.439" y1="60.459" x2="18.721" y2="-12.701"/>
				
					<line fill="none" stroke="#00ABEB" stroke-width="0.15" stroke-miterlimit="10" x1="-52.701" y1="60.459" x2="20.46" y2="-12.701"/>
				
					<line fill="none" stroke="#00ABEB" stroke-width="0.15" stroke-miterlimit="10" x1="-50.963" y1="60.459" x2="22.198" y2="-12.701"/>
				
					<line fill="none" stroke="#00ABEB" stroke-width="0.15" stroke-miterlimit="10" x1="-49.225" y1="60.459" x2="23.936" y2="-12.701"/>
				
					<line fill="none" stroke="#00ABEB" stroke-width="0.15" stroke-miterlimit="10" x1="-47.487" y1="60.459" x2="25.674" y2="-12.701"/>
				
					<line fill="none" stroke="#00ABEB" stroke-width="0.15" stroke-miterlimit="10" x1="-45.749" y1="60.459" x2="27.412" y2="-12.701"/>
				
					<line fill="none" stroke="#00ABEB" stroke-width="0.15" stroke-miterlimit="10" x1="-44.011" y1="60.459" x2="29.15" y2="-12.701"/>
				
					<line fill="none" stroke="#00ABEB" stroke-width="0.15" stroke-miterlimit="10" x1="-42.273" y1="60.459" x2="30.888" y2="-12.701"/>
				
					<line fill="none" stroke="#00ABEB" stroke-width="0.15" stroke-miterlimit="10" x1="-40.535" y1="60.459" x2="32.626" y2="-12.701"/>
				
					<line fill="none" stroke="#00ABEB" stroke-width="0.15" stroke-miterlimit="10" x1="-38.797" y1="60.459" x2="34.364" y2="-12.701"/>
				
					<line fill="none" stroke="#00ABEB" stroke-width="0.15" stroke-miterlimit="10" x1="-37.058" y1="60.459" x2="36.102" y2="-12.701"/>
				
					<line fill="none" stroke="#00ABEB" stroke-width="0.15" stroke-miterlimit="10" x1="-35.321" y1="60.459" x2="37.84" y2="-12.701"/>
				
					<line fill="none" stroke="#00ABEB" stroke-width="0.15" stroke-miterlimit="10" x1="-33.583" y1="60.459" x2="39.578" y2="-12.701"/>
				
					<line fill="none" stroke="#00ABEB" stroke-width="0.15" stroke-miterlimit="10" x1="-31.844" y1="60.459" x2="41.317" y2="-12.701"/>
				
					<line fill="none" stroke="#00ABEB" stroke-width="0.15" stroke-miterlimit="10" x1="-30.107" y1="60.459" x2="43.054" y2="-12.701"/>
				
					<line fill="none" stroke="#00ABEB" stroke-width="0.15" stroke-miterlimit="10" x1="-28.368" y1="60.459" x2="44.792" y2="-12.701"/>
				
					<line fill="none" stroke="#00ABEB" stroke-width="0.15" stroke-miterlimit="10" x1="-26.63" y1="60.459" x2="46.531" y2="-12.701"/>
				
					<line fill="none" stroke="#00ABEB" stroke-width="0.15" stroke-miterlimit="10" x1="-24.892" y1="60.459" x2="48.268" y2="-12.701"/>
				
					<line fill="none" stroke="#00ABEB" stroke-width="0.15" stroke-miterlimit="10" x1="-23.154" y1="60.459" x2="50.007" y2="-12.701"/>
				
					<line fill="none" stroke="#00ABEB" stroke-width="0.15" stroke-miterlimit="10" x1="-21.416" y1="60.459" x2="51.745" y2="-12.701"/>
				
					<line fill="none" stroke="#00ABEB" stroke-width="0.15" stroke-miterlimit="10" x1="-19.678" y1="60.459" x2="53.483" y2="-12.701"/>
				
					<line fill="none" stroke="#00ABEB" stroke-width="0.15" stroke-miterlimit="10" x1="-17.94" y1="60.459" x2="55.221" y2="-12.701"/>
				
					<line fill="none" stroke="#00ABEB" stroke-width="0.15" stroke-miterlimit="10" x1="-16.202" y1="60.459" x2="56.958" y2="-12.701"/>
				
					<line fill="none" stroke="#00ABEB" stroke-width="0.15" stroke-miterlimit="10" x1="-14.464" y1="60.459" x2="58.697" y2="-12.701"/>
				
					<line fill="none" stroke="#00ABEB" stroke-width="0.15" stroke-miterlimit="10" x1="-12.726" y1="60.459" x2="60.435" y2="-12.701"/>
				
					<line fill="none" stroke="#00ABEB" stroke-width="0.15" stroke-miterlimit="10" x1="-10.988" y1="60.459" x2="62.173" y2="-12.701"/>
				
					<line fill="none" stroke="#00ABEB" stroke-width="0.15" stroke-miterlimit="10" x1="-9.25" y1="60.459" x2="63.911" y2="-12.701"/>
				
					<line fill="none" stroke="#00ABEB" stroke-width="0.15" stroke-miterlimit="10" x1="-7.512" y1="60.459" x2="65.649" y2="-12.701"/>
				
					<line fill="none" stroke="#00ABEB" stroke-width="0.15" stroke-miterlimit="10" x1="-5.774" y1="60.459" x2="67.387" y2="-12.701"/>
				
					<line fill="none" stroke="#00ABEB" stroke-width="0.15" stroke-miterlimit="10" x1="-4.036" y1="60.459" x2="69.125" y2="-12.701"/>
				
					<line fill="none" stroke="#00ABEB" stroke-width="0.15" stroke-miterlimit="10" x1="-2.297" y1="60.459" x2="70.863" y2="-12.701"/>
				
					<line fill="none" stroke="#00ABEB" stroke-width="0.15" stroke-miterlimit="10" x1="-0.56" y1="60.459" x2="72.601" y2="-12.701"/>
				
					<line fill="none" stroke="#00ABEB" stroke-width="0.15" stroke-miterlimit="10" x1="1.179" y1="60.459" x2="74.339" y2="-12.701"/>
				
					<line fill="none" stroke="#00ABEB" stroke-width="0.15" stroke-miterlimit="10" x1="2.917" y1="60.459" x2="76.078" y2="-12.701"/>
				
					<line fill="none" stroke="#00ABEB" stroke-width="0.15" stroke-miterlimit="10" x1="4.654" y1="60.459" x2="77.815" y2="-12.701"/>
				
					<line fill="none" stroke="#00ABEB" stroke-width="0.15" stroke-miterlimit="10" x1="6.393" y1="60.459" x2="79.554" y2="-12.701"/>
				
					<line fill="none" stroke="#00ABEB" stroke-width="0.15" stroke-miterlimit="10" x1="8.131" y1="60.459" x2="81.292" y2="-12.701"/>
				
					<line fill="none" stroke="#00ABEB" stroke-width="0.15" stroke-miterlimit="10" x1="9.869" y1="60.459" x2="83.029" y2="-12.701"/>
				
					<line fill="none" stroke="#00ABEB" stroke-width="0.15" stroke-miterlimit="10" x1="11.607" y1="60.459" x2="84.768" y2="-12.701"/>
				
					<line fill="none" stroke="#00ABEB" stroke-width="0.15" stroke-miterlimit="10" x1="13.345" y1="60.459" x2="86.506" y2="-12.701"/>
				
					<line fill="none" stroke="#00ABEB" stroke-width="0.15" stroke-miterlimit="10" x1="15.083" y1="60.459" x2="88.244" y2="-12.701"/>
				
					<line fill="none" stroke="#00ABEB" stroke-width="0.15" stroke-miterlimit="10" x1="16.821" y1="60.459" x2="89.982" y2="-12.701"/>
				
					<line fill="none" stroke="#00ABEB" stroke-width="0.15" stroke-miterlimit="10" x1="18.559" y1="60.459" x2="91.72" y2="-12.701"/>
				
					<line fill="none" stroke="#00ABEB" stroke-width="0.15" stroke-miterlimit="10" x1="20.297" y1="60.459" x2="93.458" y2="-12.701"/>
				
					<line fill="none" stroke="#00ABEB" stroke-width="0.15" stroke-miterlimit="10" x1="22.035" y1="60.459" x2="95.196" y2="-12.701"/>
				
					<line fill="none" stroke="#00ABEB" stroke-width="0.15" stroke-miterlimit="10" x1="23.773" y1="60.459" x2="96.934" y2="-12.701"/>
				
					<line fill="none" stroke="#00ABEB" stroke-width="0.15" stroke-miterlimit="10" x1="25.511" y1="60.459" x2="98.672" y2="-12.701"/>
				
					<line fill="none" stroke="#00ABEB" stroke-width="0.15" stroke-miterlimit="10" x1="27.25" y1="60.459" x2="100.41" y2="-12.701"/>
				
					<line fill="none" stroke="#00ABEB" stroke-width="0.15" stroke-miterlimit="10" x1="28.987" y1="60.459" x2="102.148" y2="-12.701"/>
				
					<line fill="none" stroke="#00ABEB" stroke-width="0.15" stroke-miterlimit="10" x1="30.726" y1="60.459" x2="103.886" y2="-12.701"/>
				
					<line fill="none" stroke="#00ABEB" stroke-width="0.15" stroke-miterlimit="10" x1="32.464" y1="60.459" x2="105.625" y2="-12.701"/>
				
					<line fill="none" stroke="#00ABEB" stroke-width="0.15" stroke-miterlimit="10" x1="34.201" y1="60.459" x2="107.362" y2="-12.701"/>
				
					<line fill="none" stroke="#00ABEB" stroke-width="0.15" stroke-miterlimit="10" x1="35.94" y1="60.459" x2="109.101" y2="-12.701"/>
				
					<line fill="none" stroke="#00ABEB" stroke-width="0.15" stroke-miterlimit="10" x1="37.678" y1="60.459" x2="110.839" y2="-12.701"/>
				
					<line fill="none" stroke="#00ABEB" stroke-width="0.15" stroke-miterlimit="10" x1="39.416" y1="60.459" x2="112.577" y2="-12.701"/>
				
					<line fill="none" stroke="#00ABEB" stroke-width="0.15" stroke-miterlimit="10" x1="41.154" y1="60.459" x2="114.315" y2="-12.701"/>
				
					<line fill="none" stroke="#00ABEB" stroke-width="0.15" stroke-miterlimit="10" x1="42.892" y1="60.459" x2="116.053" y2="-12.701"/>
				
					<line fill="none" stroke="#00ABEB" stroke-width="0.15" stroke-miterlimit="10" x1="44.63" y1="60.459" x2="117.791" y2="-12.701"/>
				
					<line fill="none" stroke="#00ABEB" stroke-width="0.15" stroke-miterlimit="10" x1="46.368" y1="60.459" x2="119.529" y2="-12.701"/>
				
					<line fill="none" stroke="#00ABEB" stroke-width="0.15" stroke-miterlimit="10" x1="48.106" y1="60.459" x2="121.267" y2="-12.701"/>
				
					<line fill="none" stroke="#00ABEB" stroke-width="0.15" stroke-miterlimit="10" x1="49.844" y1="60.459" x2="123.005" y2="-12.701"/>
				
					<line fill="none" stroke="#00ABEB" stroke-width="0.15" stroke-miterlimit="10" x1="51.582" y1="60.459" x2="124.743" y2="-12.701"/>
				
					<line fill="none" stroke="#00ABEB" stroke-width="0.15" stroke-miterlimit="10" x1="53.32" y1="60.459" x2="126.481" y2="-12.701"/>
			</g>
			<g id="Horizontal_5_mm_00000011735556503592991880000008134099091165005186_">
				
					<line fill="none" stroke="#00ABEB" stroke-width="0.3" stroke-miterlimit="10" x1="-85.945" y1="60.465" x2="53.311" y2="60.465"/>
				
					<line fill="none" stroke="#00ABEB" stroke-width="0.3" stroke-miterlimit="10" x1="-79.85" y1="54.371" x2="59.405" y2="54.371"/>
				
					<line fill="none" stroke="#00ABEB" stroke-width="0.3" stroke-miterlimit="10" x1="-73.756" y1="48.276" x2="65.5" y2="48.276"/>
				
					<line fill="none" stroke="#00ABEB" stroke-width="0.3" stroke-miterlimit="10" x1="-67.661" y1="42.181" x2="71.595" y2="42.181"/>
				
					<line fill="none" stroke="#00ABEB" stroke-width="0.3" stroke-miterlimit="10" x1="-61.567" y1="36.087" x2="77.689" y2="36.087"/>
				
					<line fill="none" stroke="#00ABEB" stroke-width="0.3" stroke-miterlimit="10" x1="-55.472" y1="29.993" x2="83.784" y2="29.993"/>
				
					<line fill="none" stroke="#00ABEB" stroke-width="0.3" stroke-miterlimit="10" x1="-49.378" y1="23.898" x2="89.878" y2="23.898"/>
				
					<line fill="none" stroke="#00ABEB" stroke-width="0.3" stroke-miterlimit="10" x1="-43.283" y1="17.803" x2="95.973" y2="17.803"/>
				
					<line fill="none" stroke="#00ABEB" stroke-width="0.3" stroke-miterlimit="10" x1="-37.188" y1="11.709" x2="102.067" y2="11.709"/>
				
					<line fill="none" stroke="#00ABEB" stroke-width="0.3" stroke-miterlimit="10" x1="-31.094" y1="5.615" x2="108.162" y2="5.615"/>
				<line fill="none" stroke="#00ABEB" stroke-width="0.3" stroke-miterlimit="10" x1="-25" y1="-0.48" x2="114.256" y2="-0.48"/>
			</g>
			<g id="Vertical_5_mm_00000064346364918789686960000003233481195482251947_">
				
					<line fill="none" stroke="#00ABEB" stroke-width="0.3" stroke-miterlimit="10" x1="-85.724" y1="60.459" x2="-12.445" y2="-12.82"/>
				
					<line fill="none" stroke="#00ABEB" stroke-width="0.3" stroke-miterlimit="10" x1="-77.034" y1="60.459" x2="-3.755" y2="-12.82"/>
				
					<line fill="none" stroke="#00ABEB" stroke-width="0.3" stroke-miterlimit="10" x1="-68.344" y1="60.459" x2="4.935" y2="-12.82"/>
				
					<line fill="none" stroke="#00ABEB" stroke-width="0.3" stroke-miterlimit="10" x1="-59.654" y1="60.459" x2="13.625" y2="-12.82"/>
				
					<line fill="none" stroke="#00ABEB" stroke-width="0.3" stroke-miterlimit="10" x1="-50.963" y1="60.459" x2="22.316" y2="-12.82"/>
				
					<line fill="none" stroke="#00ABEB" stroke-width="0.3" stroke-miterlimit="10" x1="-42.273" y1="60.459" x2="31.006" y2="-12.82"/>
				
					<line fill="none" stroke="#00ABEB" stroke-width="0.3" stroke-miterlimit="10" x1="-33.583" y1="60.459" x2="39.696" y2="-12.82"/>
				
					<line fill="none" stroke="#00ABEB" stroke-width="0.3" stroke-miterlimit="10" x1="-24.892" y1="60.459" x2="48.387" y2="-12.82"/>
				
					<line fill="none" stroke="#00ABEB" stroke-width="0.3" stroke-miterlimit="10" x1="-16.202" y1="60.459" x2="57.077" y2="-12.82"/>
				
					<line fill="none" stroke="#00ABEB" stroke-width="0.3" stroke-miterlimit="10" x1="-7.512" y1="60.459" x2="65.768" y2="-12.82"/>
				
					<line fill="none" stroke="#00ABEB" stroke-width="0.3" stroke-miterlimit="10" x1="1.179" y1="60.459" x2="74.458" y2="-12.82"/>
				
					<line fill="none" stroke="#00ABEB" stroke-width="0.3" stroke-miterlimit="10" x1="9.869" y1="60.459" x2="83.148" y2="-12.82"/>
				
					<line fill="none" stroke="#00ABEB" stroke-width="0.3" stroke-miterlimit="10" x1="18.559" y1="60.459" x2="91.838" y2="-12.82"/>
				
					<line fill="none" stroke="#00ABEB" stroke-width="0.3" stroke-miterlimit="10" x1="27.25" y1="60.459" x2="100.529" y2="-12.82"/>
				
					<line fill="none" stroke="#00ABEB" stroke-width="0.3" stroke-miterlimit="10" x1="35.94" y1="60.459" x2="109.219" y2="-12.82"/>
				
					<line fill="none" stroke="#00ABEB" stroke-width="0.3" stroke-miterlimit="10" x1="44.63" y1="60.459" x2="117.909" y2="-12.82"/>
				
					<line fill="none" stroke="#00ABEB" stroke-width="0.3" stroke-miterlimit="10" x1="53.32" y1="60.459" x2="126.599" y2="-12.82"/>
			</g>
			<g id="Horizontal_10_mm_00000163045836177147705350000008480455355013810362_">
				
					<line id="_x31_9_00000057116790517712807720000015084113881736219806_" fill="none" stroke="#00ABEB" stroke-width="0.7" stroke-miterlimit="10" x1="-85.945" y1="60.465" x2="53.311" y2="60.465"/>
				
					<line id="_x32_0_00000024685878617286333290000013167547815532084100_" fill="none" stroke="#00ABEB" stroke-width="0.7" stroke-miterlimit="10" x1="-73.756" y1="48.276" x2="65.5" y2="48.276"/>
				
					<line id="_x32_1_00000138564813020868535020000012777939180148238773_" fill="none" stroke="#00ABEB" stroke-width="0.7" stroke-miterlimit="10" x1="-61.567" y1="36.087" x2="77.689" y2="36.087"/>
				
					<line id="_x32_2_00000052807586205252870140000014502512662559454639_" fill="none" stroke="#00ABEB" stroke-width="0.7" stroke-miterlimit="10" x1="-49.378" y1="23.898" x2="89.878" y2="23.898"/>
				
					<line id="_x32_3_00000051376893246677475670000009295515732899575694_" fill="none" stroke="#00ABEB" stroke-width="0.7" stroke-miterlimit="10" x1="-37.188" y1="11.709" x2="102.067" y2="11.709"/>
				
					<line id="_x32_4_00000099657911357833521510000007853591198542098087_" fill="none" stroke="#00ABEB" stroke-width="0.7" stroke-miterlimit="10" x1="-25" y1="-0.48" x2="114.256" y2="-0.48"/>
				
					<line id="_x32_5_00000155127691660191171140000008292164438978366870_" fill="none" stroke="#00ABEB" stroke-width="0.7" stroke-miterlimit="10" x1="-12.81" y1="-12.669" x2="126.445" y2="-12.669"/>
			</g>
			<g id="Vertical_10_mm_00000134969164297783457920000010833503864539426239_">
				
					<line id="_x30__00000151539528360119995570000005083818057555393183_" fill="none" stroke="#00ABEB" stroke-width="0.7" stroke-miterlimit="10" x1="-85.724" y1="60.459" x2="-12.445" y2="-12.82"/>
				
					<line id="_x31__00000021823889366233599640000011971139016478256513_" fill="none" stroke="#00ABEB" stroke-width="0.7" stroke-miterlimit="10" x1="-68.344" y1="60.459" x2="4.935" y2="-12.82"/>
				
					<line id="_x32__00000071550223824624162640000006130814236846722696_" fill="none" stroke="#00ABEB" stroke-width="0.7" stroke-miterlimit="10" x1="-50.963" y1="60.459" x2="22.316" y2="-12.82"/>
				
					<line id="_x33__00000042015976804734918030000005045165563697445304_" fill="none" stroke="#00ABEB" stroke-width="0.7" stroke-miterlimit="10" x1="-33.583" y1="60.459" x2="39.696" y2="-12.82"/>
				
					<line id="_x34__00000081637789328126233800000002486991317463304126_" fill="none" stroke="#00ABEB" stroke-width="0.7" stroke-miterlimit="10" x1="-16.202" y1="60.459" x2="57.077" y2="-12.82"/>
				
					<line id="_x35__00000051353690731882489090000004794744233340785543_" fill="none" stroke="#00ABEB" stroke-width="0.7" stroke-miterlimit="10" x1="1.179" y1="60.459" x2="74.458" y2="-12.82"/>
				
					<line id="_x36__00000011745311307505536660000010485558803267122343_" fill="none" stroke="#00ABEB" stroke-width="0.7" stroke-miterlimit="10" x1="18.559" y1="60.459" x2="91.838" y2="-12.82"/>
				
					<line id="_x37__00000045602144989735358580000003937589459941247142_" fill="none" stroke="#00ABEB" stroke-width="0.7" stroke-miterlimit="10" x1="35.94" y1="60.459" x2="109.219" y2="-12.82"/>
				
					<line id="_x38__00000047029857857898873560000014194396358708286345_" fill="none" stroke="#00ABEB" stroke-width="0.7" stroke-miterlimit="10" x1="53.32" y1="60.459" x2="126.599" y2="-12.82"/>
			</g>
		</g>
	</g>
</g>
<g id="Axis">
	<g id="lines">
		<g>
			<g>
				
					<line fill="none" stroke="#000000" stroke-width="0.2" stroke-miterlimit="10" x1="20.361" y1="23.856" x2="20.361" y2="1.967"/>
				<g>
					<polygon points="21.102,2.529 20.361,2.214 19.621,2.529 20.361,0.773 					"/>
				</g>
			</g>
		</g>
		<g>
			<g>
				
					<line fill="none" stroke="#000000" stroke-width="0.2" stroke-miterlimit="10" x1="20.362" y1="23.856" x2="48.72" y2="23.856"/>
				<g>
					<polygon points="48.158,24.597 48.473,23.856 48.158,23.116 49.914,23.856 					"/>
				</g>
			</g>
		</g>
		<g>
			<g>
				
					<line fill="none" stroke="#000000" stroke-width="0.2" stroke-miterlimit="10" x1="20.362" y1="23.856" x2="9.268" y2="34.949"/>
				<g>
					<polygon points="9.142,34.029 9.443,34.775 10.189,35.076 8.424,35.794 					"/>
				</g>
			</g>
		</g>
	</g>
	<g id="names">
		<g>
			<path d="M48.203,27.032c0.339-0.564,0.487-0.852,0.487-1.027c0-0.056-0.028-0.08-0.104-0.128
				c-0.08-0.052-0.104-0.092-0.104-0.156c0-0.088,0.068-0.148,0.16-0.148c0.12,0,0.208,0.1,0.208,0.22
				c0,0.228-0.192,0.667-0.524,1.219c-0.416,0.688-0.843,1.147-1.071,1.147c-0.12,0-0.204-0.068-0.204-0.172
				c0-0.088,0.068-0.16,0.156-0.16c0.14,0,0.14,0.112,0.244,0.112c0.052,0,0.1-0.032,0.192-0.132
				c0.072-0.076,0.252-0.312,0.284-0.364c0.024-0.048,0.04-0.096,0.04-0.14c0-0.16-0.22-1.055-0.328-1.327
				c-0.076-0.196-0.148-0.256-0.308-0.256c-0.044,0-0.08,0.004-0.124,0.016v-0.068c0.044-0.008,0.088-0.016,0.128-0.024
				c0.08-0.016,0.212-0.04,0.428-0.072h0.016c0.06,0,0.271,0.664,0.34,1.02L48.203,27.032z"/>
		</g>
		<g>
			<path d="M17.632,2.799c0.232,0.052,0.32,0.096,0.48,0.332c0.104,0.152,0.18,0.2,0.28,0.2c0.064,0,0.108-0.024,0.108-0.06
				c0-0.016-0.008-0.036-0.02-0.06c-0.024-0.048-0.032-0.08-0.032-0.112c0.004-0.068,0.068-0.136,0.132-0.136
				c0.083,0,0.14,0.06,0.14,0.148c0,0.16-0.148,0.304-0.372,0.304c-0.116,0-0.252-0.052-0.452-0.176
				c-0.188-0.116-0.315-0.168-0.419-0.168c-0.064,0-0.116,0.02-0.18,0.072l-0.036-0.036L18.5,1.619h-0.544
				c-0.208,0-0.284,0.036-0.364,0.24l-0.064-0.016l0.128-0.464h1.131v0.044L17.632,2.799z"/>
		</g>
		<g>
			<path d="M11.564,35.091c0.28-0.428,0.428-0.572,0.604-0.572c0.096,0,0.164,0.06,0.164,0.148c0,0.084-0.056,0.144-0.136,0.144
				c-0.076,0-0.112-0.068-0.208-0.068c-0.072,0-0.216,0.176-0.392,0.483c0,0.028,0.008,0.084,0.032,0.18l0.128,0.536
				c0.028,0.112,0.064,0.164,0.12,0.164c0.052,0,0.096-0.04,0.188-0.16c0.036-0.048,0.052-0.072,0.084-0.112l0.06,0.036
				c-0.232,0.36-0.336,0.456-0.488,0.456c-0.128,0-0.188-0.072-0.236-0.272l-0.116-0.476l-0.352,0.476
				c-0.176,0.236-0.256,0.272-0.38,0.272s-0.2-0.064-0.2-0.168c0-0.08,0.056-0.144,0.136-0.144c0.036,0,0.076,0.016,0.128,0.044
				c0.04,0.024,0.08,0.036,0.104,0.036c0.044,0,0.12-0.076,0.204-0.196l0.328-0.464l-0.112-0.496
				c-0.056-0.24-0.084-0.272-0.184-0.272c-0.032,0-0.08,0.008-0.156,0.028l-0.072,0.02L10.8,34.652l0.044-0.016
				c0.244-0.088,0.376-0.116,0.468-0.116c0.1,0,0.148,0.072,0.204,0.344L11.564,35.091z"/>
		</g>
	</g>
</g>
<g id="Layer_9">
	<g id="Layer_5">
	</g>
	<g>
		<g>
			<path fill="none" stroke="#FF0000" stroke-width="0.3" stroke-miterlimit="10" stroke-dasharray="3,2" d="M38.067,24.258
				c-0.597,2.551-8.296,4.569-17.705,4.569c-9.799,0-17.742-2.189-17.742-4.888s7.944-4.888,17.742-4.888s17.742,2.189,17.742,4.888
				"/>
			<g>
				<polygon fill="#FF0000" points="36.484,24.727 36.615,24.997 37.945,24.349 38.494,25.723 38.773,25.611 38.104,23.938 				"/>
			</g>
		</g>
	</g>
	<g>
		<g>
			<path fill="none" stroke="#FF0000" stroke-width="0.3" stroke-miterlimit="10" d="M38.067,24.258
				c-0.597,2.551-8.296,4.569-17.705,4.569c-9.799,0-17.742-2.189-17.742-4.888"/>
			<g>
				<polygon fill="#FF0000" points="36.484,24.727 36.615,24.997 37.945,24.349 38.494,25.723 38.773,25.611 38.104,23.938 				"/>
			</g>
		</g>
	</g>
	<g id="stickman" transform="translate(0.000000,1280.000000) scale(0.100000,-0.100000)" display="none">
		<path display="inline" d="M215.022,12588.996c-1.375-0.282-2.494-0.711-3.695-1.419c-5.093-2.973-7.371-9.125-5.454-14.703
			c1.354-3.915,4.562-6.896,8.567-7.954c5.134-1.353,10.604,0.759,13.518,5.223c0.812,1.254,1.099,1.925,1.548,3.639
			c0.449,1.715,0.533,2.43,0.435,3.931c-0.292,4.668-3.304,8.852-7.662,10.651
			C219.975,12589.316,217.571,12589.525,215.022,12588.996z"/>
		<path display="inline" d="M226.061,12562.867c-4.272,0.675-9.656,0.77-14.878,0.273l-0.65-0.06l-1.055-0.851
			c-8.005-6.428-13.936-8.848-20.159-8.232c-1.113,0.109-4.719,1.03-5.798,1.479c-0.937,0.388-2.616,1.153-3.195,1.455l-0.481,0.253
			l0.146,0.557c0.264,1.01,0.051,2.255-0.527,3.104c-0.384,0.561-1.078,1.123-1.719,1.402c-1.826,0.779-3.988,0.005-4.923-1.748
			c-0.641-1.204-0.606-2.554,0.083-3.741c0.613-1.049,1.348-1.574,2.571-1.84c0.646-0.138,0.843-0.142,1.334-0.056
			c0.315,0.053,0.714,0.154,0.885,0.229l0.31,0.125l1.021-0.521c2.681-1.36,4.1-1.907,6.705-2.59
			c2.264-0.593,2.993-0.713,4.77-0.773c4.233-0.157,8.291,0.953,12.717,3.466l1.219,0.688l-0.338-1.474
			c-0.583-2.528-0.723-5.029-0.493-8.936c0.321-5.524,1.368-11.43,2.668-15.094c1.1-3.096,2.666-5.504,4.513-6.932
			c1.027-0.801,2.699-1.563,3.83-1.757c0.689-0.125,1.966-0.245,2.219-0.217c0.186,0.015,0.186,0.015-0.002-0.705
			c-0.404-1.544-1.258-3.834-2.012-5.381c-1.295-2.675-2.74-4.405-4.906-5.893c-1.489-1.021-3.916-2.083-7.697-3.376
			c-2.264-0.771-2.307-0.784-2.76-0.697c-0.618,0.123-0.946,0.113-1.415-0.041c-1.748-0.558-2.606-3.228-1.986-6.189
			c0.574-2.744,2.07-5.023,3.888-5.896c0.605-0.294,1.189-0.367,1.825-0.24c1.164,0.234,1.923,1.193,2.269,2.879
			c0.44,2.105-0.055,4.574-1.326,6.716c-0.248,0.414-0.429,0.755-0.41,0.766c0.019,0.011,0.811,0.279,1.754,0.611
			c4.5,1.557,7.044,2.881,9.136,4.752c1.532,1.367,2.893,3.263,4.013,5.571c0.682,1.423,1.799,4.414,2.174,5.846l0.142,0.542
			l0.429,0.062c2.777,0.398,8.214,1.021,11.306,1.289c5.625,0.493,9.134,0.565,11.709,0.256l0.76-0.097l0.024-0.212
			c0.01-0.114,0.036-0.62,0.056-1.117c0.091-2.379-0.022-4.476-0.61-11.078c-0.362-4.077-0.502-6.427-0.465-7.468
			c0.014-0.281-0.026-0.461-0.148-0.715c-0.612-1.275-0.105-2.732,1.21-3.466c0.525-0.296,1.794-0.628,2.521-0.668
			c2.79-0.128,5.96,1.135,7.518,2.995c1.058,1.254,1.307,2.386,0.77,3.486c-0.366,0.754-1.162,1.287-2.401,1.612
			c-1.842,0.475-3.998,0.207-6.092-0.76c-0.389-0.184-0.716-0.312-0.727-0.293c-0.022,0.037,0.246,3.361,0.558,6.976
			c0.555,6.325,0.611,9.205,0.224,11.813l-0.138,0.924l-0.625,0.188c-0.786,0.238-1.928,0.45-2.836,0.529
			c-3.382,0.291-8.537,0.047-15.853-0.756c-1.364-0.15-2.489-0.269-2.504-0.265c-0.015,0.004,0.085,0.112,0.222,0.243
			c2.321,2.168,3.765,5.834,4.148,10.508c0.333,4.116-0.204,10.213-1.361,15.544c-0.733,3.349-1.469,5.413-2.707,7.529
			c-0.82,1.412-1.32,2.075-2.219,2.913c-0.26,0.25-0.455,0.444-0.432,0.438s0.333-0.031,0.697-0.063
			c2.408-0.194,4.829-0.639,7.079-1.283c3.886-1.121,6.781-2.665,9.604-5.117c0.866-0.751,1.288-1.17,2.47-2.439
			c0.055-0.062,0-0.183-0.199-0.487c-1.441-2.2-0.278-5.209,2.284-5.872c2.043-0.527,4.154,0.72,4.693,2.775
			c0.278,1.062,0.149,1.96-0.429,2.936c-0.394,0.675-0.812,1.077-1.511,1.467c-0.555,0.304-1.479,0.498-2.083,0.435l-0.415-0.042
			l-0.176,0.236c-0.367,0.477-1.61,1.754-2.482,2.546c-2.973,2.698-5.807,4.32-10.21,5.831
			C230.418,12561.94,227.188,12562.69,226.061,12562.867z"/>
	</g>
	<g>
		<path fill="#FF0000" d="M35.866,29.185l-0.108-0.018c-0.072-0.642-0.366-0.978-0.894-0.978c-0.443,0-0.863,0.228-1.193,0.582
			c-0.432,0.462-0.647,1.146-0.647,1.805c0,0.839,0.384,1.229,1.049,1.229c0.492,0,0.852-0.174,1.374-0.713l0.108,0.09
			c-0.54,0.636-1.02,0.894-1.637,0.894c-0.917,0-1.565-0.576-1.565-1.565c0-0.846,0.461-1.631,1.121-2.099
			c0.384-0.276,0.84-0.438,1.313-0.438c0.198,0,0.45,0.012,0.702,0.102c0.12,0.042,0.192,0.042,0.246,0.042
			c0.12,0,0.18-0.036,0.228-0.132h0.126L35.866,29.185z"/>
	</g>
</g>
<g id="Layer_6">
	<g id="Layer_7">
		<path opacity="0.05" fill="#0000FF" d="M38.104,23.938c0,0-7.155-19.816-17.742-19.816H20.36
			c-10.587,0-17.742,19.816-17.742,19.816h0.001c0,2.7,7.944,4.888,17.742,4.888S38.104,26.638,38.104,23.938z"/>
	</g>
	<path fill="none" stroke="#0000FF" stroke-width="0.2" stroke-miterlimit="10" d="M38.104,23.938c0,0-7.155-19.816-17.742-19.816
		H20.36c-10.587,0-17.742,19.816-17.742,19.816"/>
</g>
<g id="n">
	<g>
		<g>
			<line fill="none" stroke="#00A300" stroke-width="0.3" stroke-miterlimit="10" x1="27.714" y1="10.589" x2="35.407" y2="3.314"/>
			<g>
				<polygon fill="#00A300" points="35.528,4.889 35.228,4.87 35.323,3.394 33.844,3.406 33.842,3.106 35.643,3.091 				"/>
			</g>
		</g>
	</g>
	
		<polyline fill="none" stroke="#00A300" stroke-width="0.1" stroke-linecap="round" stroke-linejoin="round" stroke-miterlimit="10" points="
		28.935,9.433 29.882,10.453 29.882,10.453 28.733,11.489 	"/>
	<g>
		<path fill="#00B200" d="M39.554,6.79c-0.408,0.558-0.558,0.678-0.839,0.678c-0.15,0-0.282-0.096-0.282-0.324
			c0-0.06,0.012-0.138,0.096-0.45l0.264-0.971c0.048-0.186,0.084-0.402,0.084-0.474c0-0.108-0.054-0.174-0.144-0.174
			c-0.24,0-0.51,0.294-0.888,0.852c-0.27,0.402-0.318,0.54-0.6,1.487h-0.45l0.576-2.099c0.006-0.03,0.012-0.066,0.012-0.102
			c0-0.12-0.083-0.156-0.39-0.162V4.955c0.486-0.096,0.654-0.12,0.972-0.186l0.024,0.012l-0.402,1.307
			c0.6-0.959,1.001-1.319,1.385-1.319c0.258,0,0.39,0.15,0.39,0.366c0,0.108-0.024,0.234-0.06,0.36l-0.335,1.217
			c-0.06,0.216-0.084,0.318-0.084,0.366c0,0.054,0.024,0.108,0.096,0.108c0.084,0,0.192-0.096,0.366-0.318
			c0.042-0.048,0.084-0.102,0.126-0.156L39.554,6.79z"/>
	</g>
	<g>
		<path fill="#00B200" d="M39.23,4.14l-0.858-1.733h-0.006L37.515,4.14h-0.408l1.085-2.188h0.36l1.085,2.188H39.23z"/>
	</g>
	<g>
	</g>
	<g>
	</g>
</g>
</svg>
