<?xml version="1.0" encoding="utf-8"?>
<!-- Generator: Adobe Illustrator 25.4.1, SVG Export Plug-In . SVG Version: 6.00 Build 0)  -->
<svg version="1.1" xmlns="http://www.w3.org/2000/svg" xmlns:xlink="http://www.w3.org/1999/xlink" x="0px" y="0px"
	 viewBox="0 0 151.945 87.35" enable-background="new 0 0 151.945 87.35" xml:space="preserve">
<g id="Layer_2" opacity="0.5">
	<g id="Clipped_grid">
		<defs>
			<rect id="SVGID_1_" x="-3.871" y="-3.27" width="158.577" height="95.554"/>
		</defs>
		<clipPath id="SVGID_00000183215449646104019710000004154416877809163142_">
			<use xlink:href="#SVGID_1_"  overflow="visible"/>
		</clipPath>
		<g id="Grid" opacity="0.25" clip-path="url(#SVGID_00000183215449646104019710000004154416877809163142_)">
			<g id="Horizontal_1_mm">
				
					<line fill="none" stroke="#00ABEB" stroke-width="0.15" stroke-miterlimit="10" x1="-152.583" y1="-57.278" x2="282.945" y2="-57.278"/>
				
					<line fill="none" stroke="#00ABEB" stroke-width="0.15" stroke-miterlimit="10" x1="-152.583" y1="-61.433" x2="282.945" y2="-61.433"/>
				
					<line fill="none" stroke="#00ABEB" stroke-width="0.15" stroke-miterlimit="10" x1="-152.583" y1="187.838" x2="282.945" y2="187.838"/>
				
					<line fill="none" stroke="#00ABEB" stroke-width="0.15" stroke-miterlimit="10" x1="-152.583" y1="183.683" x2="282.945" y2="183.683"/>
				
					<line fill="none" stroke="#00ABEB" stroke-width="0.15" stroke-miterlimit="10" x1="-152.583" y1="179.53" x2="282.945" y2="179.53"/>
				
					<line fill="none" stroke="#00ABEB" stroke-width="0.15" stroke-miterlimit="10" x1="-152.583" y1="175.375" x2="282.945" y2="175.375"/>
				
					<line fill="none" stroke="#00ABEB" stroke-width="0.15" stroke-miterlimit="10" x1="-152.583" y1="171.22" x2="282.945" y2="171.22"/>
				
					<line fill="none" stroke="#00ABEB" stroke-width="0.15" stroke-miterlimit="10" x1="-152.583" y1="167.066" x2="282.945" y2="167.066"/>
				
					<line fill="none" stroke="#00ABEB" stroke-width="0.15" stroke-miterlimit="10" x1="-152.583" y1="162.911" x2="282.945" y2="162.911"/>
				
					<line fill="none" stroke="#00ABEB" stroke-width="0.15" stroke-miterlimit="10" x1="-152.583" y1="158.758" x2="282.945" y2="158.758"/>
				
					<line fill="none" stroke="#00ABEB" stroke-width="0.15" stroke-miterlimit="10" x1="-152.583" y1="154.602" x2="282.945" y2="154.602"/>
				
					<line fill="none" stroke="#00ABEB" stroke-width="0.15" stroke-miterlimit="10" x1="-152.583" y1="150.447" x2="282.945" y2="150.447"/>
				
					<line fill="none" stroke="#00ABEB" stroke-width="0.15" stroke-miterlimit="10" x1="-152.583" y1="146.294" x2="282.945" y2="146.294"/>
				
					<line fill="none" stroke="#00ABEB" stroke-width="0.15" stroke-miterlimit="10" x1="-152.583" y1="142.139" x2="282.945" y2="142.139"/>
				
					<line fill="none" stroke="#00ABEB" stroke-width="0.15" stroke-miterlimit="10" x1="-152.583" y1="137.984" x2="282.945" y2="137.984"/>
				
					<line fill="none" stroke="#00ABEB" stroke-width="0.15" stroke-miterlimit="10" x1="-152.583" y1="133.83" x2="282.945" y2="133.83"/>
				
					<line fill="none" stroke="#00ABEB" stroke-width="0.15" stroke-miterlimit="10" x1="-152.583" y1="129.675" x2="282.945" y2="129.675"/>
				
					<line fill="none" stroke="#00ABEB" stroke-width="0.15" stroke-miterlimit="10" x1="-152.583" y1="125.52" x2="282.945" y2="125.52"/>
				
					<line fill="none" stroke="#00ABEB" stroke-width="0.15" stroke-miterlimit="10" x1="-152.583" y1="121.367" x2="282.945" y2="121.367"/>
				
					<line fill="none" stroke="#00ABEB" stroke-width="0.15" stroke-miterlimit="10" x1="-152.583" y1="117.212" x2="282.945" y2="117.212"/>
				
					<line fill="none" stroke="#00ABEB" stroke-width="0.15" stroke-miterlimit="10" x1="-152.583" y1="113.057" x2="282.945" y2="113.057"/>
				
					<line fill="none" stroke="#00ABEB" stroke-width="0.15" stroke-miterlimit="10" x1="-152.583" y1="108.903" x2="282.945" y2="108.903"/>
				
					<line fill="none" stroke="#00ABEB" stroke-width="0.15" stroke-miterlimit="10" x1="-152.583" y1="104.748" x2="282.945" y2="104.748"/>
				
					<line fill="none" stroke="#00ABEB" stroke-width="0.15" stroke-miterlimit="10" x1="-152.583" y1="100.593" x2="282.945" y2="100.593"/>
				
					<line fill="none" stroke="#00ABEB" stroke-width="0.15" stroke-miterlimit="10" x1="-152.583" y1="96.439" x2="282.945" y2="96.439"/>
				
					<line fill="none" stroke="#00ABEB" stroke-width="0.15" stroke-miterlimit="10" x1="-152.583" y1="92.284" x2="282.945" y2="92.284"/>
				
					<line fill="none" stroke="#00ABEB" stroke-width="0.15" stroke-miterlimit="10" x1="-152.583" y1="88.13" x2="282.945" y2="88.13"/>
				
					<line fill="none" stroke="#00ABEB" stroke-width="0.15" stroke-miterlimit="10" x1="-152.583" y1="83.975" x2="282.945" y2="83.975"/>
				
					<line fill="none" stroke="#00ABEB" stroke-width="0.15" stroke-miterlimit="10" x1="-152.583" y1="79.82" x2="282.945" y2="79.82"/>
				
					<line fill="none" stroke="#00ABEB" stroke-width="0.15" stroke-miterlimit="10" x1="-152.583" y1="75.667" x2="282.945" y2="75.667"/>
				
					<line fill="none" stroke="#00ABEB" stroke-width="0.15" stroke-miterlimit="10" x1="-152.583" y1="71.512" x2="282.945" y2="71.512"/>
				
					<line fill="none" stroke="#00ABEB" stroke-width="0.15" stroke-miterlimit="10" x1="-152.583" y1="67.357" x2="282.945" y2="67.357"/>
				
					<line fill="none" stroke="#00ABEB" stroke-width="0.15" stroke-miterlimit="10" x1="-152.583" y1="63.203" x2="282.945" y2="63.203"/>
				
					<line fill="none" stroke="#00ABEB" stroke-width="0.15" stroke-miterlimit="10" x1="-152.583" y1="59.048" x2="282.945" y2="59.048"/>
				
					<line fill="none" stroke="#00ABEB" stroke-width="0.15" stroke-miterlimit="10" x1="-152.583" y1="54.893" x2="282.945" y2="54.893"/>
				
					<line fill="none" stroke="#00ABEB" stroke-width="0.15" stroke-miterlimit="10" x1="-152.583" y1="50.74" x2="282.945" y2="50.74"/>
				
					<line fill="none" stroke="#00ABEB" stroke-width="0.15" stroke-miterlimit="10" x1="-152.583" y1="46.585" x2="282.945" y2="46.585"/>
				
					<line fill="none" stroke="#00ABEB" stroke-width="0.15" stroke-miterlimit="10" x1="-152.583" y1="42.43" x2="282.945" y2="42.43"/>
				
					<line fill="none" stroke="#00ABEB" stroke-width="0.15" stroke-miterlimit="10" x1="-152.583" y1="38.276" x2="282.945" y2="38.276"/>
				
					<line fill="none" stroke="#00ABEB" stroke-width="0.15" stroke-miterlimit="10" x1="-152.583" y1="34.121" x2="282.945" y2="34.121"/>
				
					<line fill="none" stroke="#00ABEB" stroke-width="0.15" stroke-miterlimit="10" x1="-152.583" y1="29.966" x2="282.945" y2="29.966"/>
				
					<line fill="none" stroke="#00ABEB" stroke-width="0.15" stroke-miterlimit="10" x1="-152.583" y1="25.813" x2="282.945" y2="25.813"/>
				
					<line fill="none" stroke="#00ABEB" stroke-width="0.15" stroke-miterlimit="10" x1="-152.583" y1="21.657" x2="282.945" y2="21.657"/>
				
					<line fill="none" stroke="#00ABEB" stroke-width="0.15" stroke-miterlimit="10" x1="-152.583" y1="17.504" x2="282.945" y2="17.504"/>
				
					<line fill="none" stroke="#00ABEB" stroke-width="0.15" stroke-miterlimit="10" x1="-152.583" y1="13.349" x2="282.945" y2="13.349"/>
				
					<line fill="none" stroke="#00ABEB" stroke-width="0.15" stroke-miterlimit="10" x1="-152.583" y1="9.194" x2="282.945" y2="9.194"/>
				
					<line fill="none" stroke="#00ABEB" stroke-width="0.15" stroke-miterlimit="10" x1="-152.583" y1="5.04" x2="282.945" y2="5.04"/>
				
					<line fill="none" stroke="#00ABEB" stroke-width="0.15" stroke-miterlimit="10" x1="-152.583" y1="0.885" x2="282.945" y2="0.885"/>
				
					<line fill="none" stroke="#00ABEB" stroke-width="0.15" stroke-miterlimit="10" x1="-152.583" y1="-3.27" x2="282.945" y2="-3.27"/>
				
					<line fill="none" stroke="#00ABEB" stroke-width="0.15" stroke-miterlimit="10" x1="-152.583" y1="-7.423" x2="282.945" y2="-7.423"/>
				
					<line fill="none" stroke="#00ABEB" stroke-width="0.15" stroke-miterlimit="10" x1="-152.583" y1="-11.578" x2="282.945" y2="-11.578"/>
				
					<line fill="none" stroke="#00ABEB" stroke-width="0.15" stroke-miterlimit="10" x1="-152.583" y1="-15.733" x2="282.945" y2="-15.733"/>
				
					<line fill="none" stroke="#00ABEB" stroke-width="0.15" stroke-miterlimit="10" x1="-152.583" y1="-19.887" x2="282.945" y2="-19.887"/>
				
					<line fill="none" stroke="#00ABEB" stroke-width="0.15" stroke-miterlimit="10" x1="-152.583" y1="-24.042" x2="282.945" y2="-24.042"/>
				
					<line fill="none" stroke="#00ABEB" stroke-width="0.15" stroke-miterlimit="10" x1="-152.583" y1="-28.197" x2="282.945" y2="-28.197"/>
				
					<line fill="none" stroke="#00ABEB" stroke-width="0.15" stroke-miterlimit="10" x1="-152.583" y1="-32.35" x2="282.945" y2="-32.35"/>
				
					<line fill="none" stroke="#00ABEB" stroke-width="0.15" stroke-miterlimit="10" x1="-152.583" y1="-36.506" x2="282.945" y2="-36.506"/>
				
					<line fill="none" stroke="#00ABEB" stroke-width="0.15" stroke-miterlimit="10" x1="-152.583" y1="-40.66" x2="282.945" y2="-40.66"/>
				
					<line fill="none" stroke="#00ABEB" stroke-width="0.15" stroke-miterlimit="10" x1="-152.583" y1="-44.815" x2="282.945" y2="-44.815"/>
				
					<line fill="none" stroke="#00ABEB" stroke-width="0.15" stroke-miterlimit="10" x1="-152.583" y1="-48.97" x2="282.945" y2="-48.97"/>
				
					<line fill="none" stroke="#00ABEB" stroke-width="0.15" stroke-miterlimit="10" x1="-152.583" y1="-53.123" x2="282.945" y2="-53.123"/>
			</g>
			<g id="Vertical_1_mm">
				<g>
					
						<line fill="none" stroke="#00ABEB" stroke-width="0.15" stroke-miterlimit="10" x1="-152.438" y1="187.818" x2="-152.438" y2="-61.543"/>
				</g>
				
					<line fill="none" stroke="#00ABEB" stroke-width="0.15" stroke-miterlimit="10" x1="-146.997" y1="187.818" x2="-146.997" y2="-61.543"/>
				
					<line fill="none" stroke="#00ABEB" stroke-width="0.15" stroke-miterlimit="10" x1="-141.554" y1="187.818" x2="-141.554" y2="-61.543"/>
				
					<line fill="none" stroke="#00ABEB" stroke-width="0.15" stroke-miterlimit="10" x1="-136.111" y1="187.818" x2="-136.111" y2="-61.543"/>
				
					<line fill="none" stroke="#00ABEB" stroke-width="0.15" stroke-miterlimit="10" x1="-130.67" y1="187.818" x2="-130.67" y2="-61.543"/>
				
					<line fill="none" stroke="#00ABEB" stroke-width="0.15" stroke-miterlimit="10" x1="-125.227" y1="187.818" x2="-125.227" y2="-61.543"/>
				
					<line fill="none" stroke="#00ABEB" stroke-width="0.15" stroke-miterlimit="10" x1="-119.784" y1="187.818" x2="-119.784" y2="-61.543"/>
				
					<line fill="none" stroke="#00ABEB" stroke-width="0.15" stroke-miterlimit="10" x1="-114.343" y1="187.818" x2="-114.343" y2="-61.543"/>
				
					<line fill="none" stroke="#00ABEB" stroke-width="0.15" stroke-miterlimit="10" x1="-108.899" y1="187.818" x2="-108.899" y2="-61.543"/>
				
					<line fill="none" stroke="#00ABEB" stroke-width="0.15" stroke-miterlimit="10" x1="-103.457" y1="187.818" x2="-103.457" y2="-61.543"/>
				
					<line fill="none" stroke="#00ABEB" stroke-width="0.15" stroke-miterlimit="10" x1="-98.014" y1="187.818" x2="-98.014" y2="-61.543"/>
				
					<line fill="none" stroke="#00ABEB" stroke-width="0.15" stroke-miterlimit="10" x1="-92.571" y1="187.818" x2="-92.571" y2="-61.543"/>
				
					<line fill="none" stroke="#00ABEB" stroke-width="0.15" stroke-miterlimit="10" x1="-87.13" y1="187.818" x2="-87.13" y2="-61.543"/>
				
					<line fill="none" stroke="#00ABEB" stroke-width="0.15" stroke-miterlimit="10" x1="-81.687" y1="187.818" x2="-81.687" y2="-61.543"/>
				
					<line fill="none" stroke="#00ABEB" stroke-width="0.15" stroke-miterlimit="10" x1="-76.244" y1="187.818" x2="-76.244" y2="-61.543"/>
				
					<line fill="none" stroke="#00ABEB" stroke-width="0.15" stroke-miterlimit="10" x1="-70.803" y1="187.818" x2="-70.803" y2="-61.543"/>
				
					<line fill="none" stroke="#00ABEB" stroke-width="0.15" stroke-miterlimit="10" x1="-65.36" y1="187.818" x2="-65.36" y2="-61.543"/>
				
					<line fill="none" stroke="#00ABEB" stroke-width="0.15" stroke-miterlimit="10" x1="-59.917" y1="187.818" x2="-59.917" y2="-61.543"/>
				
					<line fill="none" stroke="#00ABEB" stroke-width="0.15" stroke-miterlimit="10" x1="-54.476" y1="187.818" x2="-54.476" y2="-61.543"/>
				
					<line fill="none" stroke="#00ABEB" stroke-width="0.15" stroke-miterlimit="10" x1="-49.033" y1="187.818" x2="-49.033" y2="-61.543"/>
				
					<line fill="none" stroke="#00ABEB" stroke-width="0.15" stroke-miterlimit="10" x1="-43.59" y1="187.818" x2="-43.59" y2="-61.543"/>
				
					<line fill="none" stroke="#00ABEB" stroke-width="0.15" stroke-miterlimit="10" x1="-38.148" y1="187.818" x2="-38.148" y2="-61.543"/>
				
					<line fill="none" stroke="#00ABEB" stroke-width="0.15" stroke-miterlimit="10" x1="-32.705" y1="187.818" x2="-32.705" y2="-61.543"/>
				
					<line fill="none" stroke="#00ABEB" stroke-width="0.15" stroke-miterlimit="10" x1="-27.262" y1="187.818" x2="-27.262" y2="-61.543"/>
				
					<line fill="none" stroke="#00ABEB" stroke-width="0.15" stroke-miterlimit="10" x1="-21.82" y1="187.818" x2="-21.82" y2="-61.543"/>
				
					<line fill="none" stroke="#00ABEB" stroke-width="0.15" stroke-miterlimit="10" x1="-16.377" y1="187.818" x2="-16.377" y2="-61.543"/>
				
					<line fill="none" stroke="#00ABEB" stroke-width="0.15" stroke-miterlimit="10" x1="-10.936" y1="187.818" x2="-10.936" y2="-61.543"/>
				
					<line fill="none" stroke="#00ABEB" stroke-width="0.15" stroke-miterlimit="10" x1="-5.493" y1="187.818" x2="-5.493" y2="-61.543"/>
				
					<line fill="none" stroke="#00ABEB" stroke-width="0.15" stroke-miterlimit="10" x1="-0.05" y1="187.818" x2="-0.05" y2="-61.543"/>
				
					<line fill="none" stroke="#00ABEB" stroke-width="0.15" stroke-miterlimit="10" x1="5.391" y1="187.818" x2="5.391" y2="-61.543"/>
				
					<line fill="none" stroke="#00ABEB" stroke-width="0.15" stroke-miterlimit="10" x1="10.834" y1="187.818" x2="10.834" y2="-61.543"/>
				
					<line fill="none" stroke="#00ABEB" stroke-width="0.15" stroke-miterlimit="10" x1="16.277" y1="187.818" x2="16.277" y2="-61.543"/>
				
					<line fill="none" stroke="#00ABEB" stroke-width="0.15" stroke-miterlimit="10" x1="21.719" y1="187.818" x2="21.719" y2="-61.543"/>
				
					<line fill="none" stroke="#00ABEB" stroke-width="0.15" stroke-miterlimit="10" x1="27.161" y1="187.818" x2="27.161" y2="-61.543"/>
				
					<line fill="none" stroke="#00ABEB" stroke-width="0.15" stroke-miterlimit="10" x1="32.605" y1="187.818" x2="32.605" y2="-61.543"/>
				
					<line fill="none" stroke="#00ABEB" stroke-width="0.15" stroke-miterlimit="10" x1="38.046" y1="187.818" x2="38.046" y2="-61.543"/>
				
					<line fill="none" stroke="#00ABEB" stroke-width="0.15" stroke-miterlimit="10" x1="43.489" y1="187.818" x2="43.489" y2="-61.543"/>
				
					<line fill="none" stroke="#00ABEB" stroke-width="0.15" stroke-miterlimit="10" x1="48.932" y1="187.818" x2="48.932" y2="-61.543"/>
				
					<line fill="none" stroke="#00ABEB" stroke-width="0.15" stroke-miterlimit="10" x1="54.373" y1="187.818" x2="54.373" y2="-61.543"/>
				
					<line fill="none" stroke="#00ABEB" stroke-width="0.15" stroke-miterlimit="10" x1="59.816" y1="187.818" x2="59.816" y2="-61.543"/>
				
					<line fill="none" stroke="#00ABEB" stroke-width="0.15" stroke-miterlimit="10" x1="65.257" y1="187.818" x2="65.257" y2="-61.543"/>
				
					<line fill="none" stroke="#00ABEB" stroke-width="0.15" stroke-miterlimit="10" x1="70.701" y1="187.818" x2="70.701" y2="-61.543"/>
				
					<line fill="none" stroke="#00ABEB" stroke-width="0.15" stroke-miterlimit="10" x1="76.144" y1="187.818" x2="76.144" y2="-61.543"/>
				
					<line fill="none" stroke="#00ABEB" stroke-width="0.15" stroke-miterlimit="10" x1="81.585" y1="187.818" x2="81.585" y2="-61.543"/>
				
					<line fill="none" stroke="#00ABEB" stroke-width="0.15" stroke-miterlimit="10" x1="87.028" y1="187.818" x2="87.028" y2="-61.543"/>
				
					<line fill="none" stroke="#00ABEB" stroke-width="0.15" stroke-miterlimit="10" x1="92.471" y1="187.818" x2="92.471" y2="-61.543"/>
				
					<line fill="none" stroke="#00ABEB" stroke-width="0.15" stroke-miterlimit="10" x1="97.913" y1="187.818" x2="97.913" y2="-61.543"/>
				
					<line fill="none" stroke="#00ABEB" stroke-width="0.15" stroke-miterlimit="10" x1="103.356" y1="187.818" x2="103.356" y2="-61.543"/>
				
					<line fill="none" stroke="#00ABEB" stroke-width="0.15" stroke-miterlimit="10" x1="108.799" y1="187.818" x2="108.799" y2="-61.543"/>
				
					<line fill="none" stroke="#00ABEB" stroke-width="0.15" stroke-miterlimit="10" x1="114.24" y1="187.818" x2="114.24" y2="-61.543"/>
				
					<line fill="none" stroke="#00ABEB" stroke-width="0.15" stroke-miterlimit="10" x1="119.683" y1="187.818" x2="119.683" y2="-61.543"/>
				
					<line fill="none" stroke="#00ABEB" stroke-width="0.15" stroke-miterlimit="10" x1="125.126" y1="187.818" x2="125.126" y2="-61.543"/>
				
					<line fill="none" stroke="#00ABEB" stroke-width="0.15" stroke-miterlimit="10" x1="130.567" y1="187.818" x2="130.567" y2="-61.543"/>
				
					<line fill="none" stroke="#00ABEB" stroke-width="0.15" stroke-miterlimit="10" x1="136.01" y1="187.818" x2="136.01" y2="-61.543"/>
				
					<line fill="none" stroke="#00ABEB" stroke-width="0.15" stroke-miterlimit="10" x1="141.453" y1="187.818" x2="141.453" y2="-61.543"/>
				
					<line fill="none" stroke="#00ABEB" stroke-width="0.15" stroke-miterlimit="10" x1="146.894" y1="187.818" x2="146.894" y2="-61.543"/>
				
					<line fill="none" stroke="#00ABEB" stroke-width="0.15" stroke-miterlimit="10" x1="152.338" y1="187.818" x2="152.338" y2="-61.543"/>
				
					<line fill="none" stroke="#00ABEB" stroke-width="0.15" stroke-miterlimit="10" x1="157.779" y1="187.818" x2="157.779" y2="-61.543"/>
				
					<line fill="none" stroke="#00ABEB" stroke-width="0.15" stroke-miterlimit="10" x1="163.222" y1="187.818" x2="163.222" y2="-61.543"/>
				
					<line fill="none" stroke="#00ABEB" stroke-width="0.15" stroke-miterlimit="10" x1="168.665" y1="187.818" x2="168.665" y2="-61.543"/>
				
					<line fill="none" stroke="#00ABEB" stroke-width="0.15" stroke-miterlimit="10" x1="174.107" y1="187.818" x2="174.107" y2="-61.543"/>
				
					<line fill="none" stroke="#00ABEB" stroke-width="0.15" stroke-miterlimit="10" x1="179.55" y1="187.818" x2="179.55" y2="-61.543"/>
				
					<line fill="none" stroke="#00ABEB" stroke-width="0.15" stroke-miterlimit="10" x1="184.993" y1="187.818" x2="184.993" y2="-61.543"/>
				
					<line fill="none" stroke="#00ABEB" stroke-width="0.15" stroke-miterlimit="10" x1="190.434" y1="187.818" x2="190.434" y2="-61.543"/>
				
					<line fill="none" stroke="#00ABEB" stroke-width="0.15" stroke-miterlimit="10" x1="195.877" y1="187.818" x2="195.877" y2="-61.543"/>
				
					<line fill="none" stroke="#00ABEB" stroke-width="0.15" stroke-miterlimit="10" x1="201.32" y1="187.818" x2="201.32" y2="-61.543"/>
				
					<line fill="none" stroke="#00ABEB" stroke-width="0.15" stroke-miterlimit="10" x1="206.761" y1="187.818" x2="206.761" y2="-61.543"/>
				
					<line fill="none" stroke="#00ABEB" stroke-width="0.15" stroke-miterlimit="10" x1="212.204" y1="187.818" x2="212.204" y2="-61.543"/>
				
					<line fill="none" stroke="#00ABEB" stroke-width="0.15" stroke-miterlimit="10" x1="217.647" y1="187.818" x2="217.647" y2="-61.543"/>
				
					<line fill="none" stroke="#00ABEB" stroke-width="0.15" stroke-miterlimit="10" x1="223.088" y1="187.818" x2="223.088" y2="-61.543"/>
				
					<line fill="none" stroke="#00ABEB" stroke-width="0.15" stroke-miterlimit="10" x1="228.531" y1="187.818" x2="228.531" y2="-61.543"/>
				
					<line fill="none" stroke="#00ABEB" stroke-width="0.15" stroke-miterlimit="10" x1="233.974" y1="187.818" x2="233.974" y2="-61.543"/>
				
					<line fill="none" stroke="#00ABEB" stroke-width="0.15" stroke-miterlimit="10" x1="239.417" y1="187.818" x2="239.417" y2="-61.543"/>
				
					<line fill="none" stroke="#00ABEB" stroke-width="0.15" stroke-miterlimit="10" x1="244.859" y1="187.818" x2="244.859" y2="-61.543"/>
				
					<line fill="none" stroke="#00ABEB" stroke-width="0.15" stroke-miterlimit="10" x1="250.301" y1="187.818" x2="250.301" y2="-61.543"/>
				
					<line fill="none" stroke="#00ABEB" stroke-width="0.15" stroke-miterlimit="10" x1="255.744" y1="187.818" x2="255.744" y2="-61.543"/>
				
					<line fill="none" stroke="#00ABEB" stroke-width="0.15" stroke-miterlimit="10" x1="261.187" y1="187.818" x2="261.187" y2="-61.543"/>
				
					<line fill="none" stroke="#00ABEB" stroke-width="0.15" stroke-miterlimit="10" x1="266.628" y1="187.818" x2="266.628" y2="-61.543"/>
				
					<line fill="none" stroke="#00ABEB" stroke-width="0.15" stroke-miterlimit="10" x1="272.071" y1="187.818" x2="272.071" y2="-61.543"/>
				
					<line fill="none" stroke="#00ABEB" stroke-width="0.15" stroke-miterlimit="10" x1="277.514" y1="187.818" x2="277.514" y2="-61.543"/>
				
					<line fill="none" stroke="#00ABEB" stroke-width="0.15" stroke-miterlimit="10" x1="282.955" y1="187.818" x2="282.955" y2="-61.543"/>
			</g>
			<g id="Horizontal_5_mm_1_">
				
					<line fill="none" stroke="#00ABEB" stroke-width="0.3" stroke-miterlimit="10" x1="-153.11" y1="187.838" x2="282.945" y2="187.838"/>
				
					<line fill="none" stroke="#00ABEB" stroke-width="0.3" stroke-miterlimit="10" x1="-153.11" y1="167.066" x2="282.945" y2="167.066"/>
				
					<line fill="none" stroke="#00ABEB" stroke-width="0.3" stroke-miterlimit="10" x1="-153.11" y1="146.294" x2="282.945" y2="146.294"/>
				
					<line fill="none" stroke="#00ABEB" stroke-width="0.3" stroke-miterlimit="10" x1="-153.11" y1="125.52" x2="282.945" y2="125.52"/>
				
					<line fill="none" stroke="#00ABEB" stroke-width="0.3" stroke-miterlimit="10" x1="-153.11" y1="104.748" x2="282.945" y2="104.748"/>
				
					<line fill="none" stroke="#00ABEB" stroke-width="0.3" stroke-miterlimit="10" x1="-153.11" y1="83.975" x2="282.945" y2="83.975"/>
				
					<line fill="none" stroke="#00ABEB" stroke-width="0.3" stroke-miterlimit="10" x1="-153.11" y1="63.203" x2="282.945" y2="63.203"/>
				
					<line fill="none" stroke="#00ABEB" stroke-width="0.3" stroke-miterlimit="10" x1="-153.11" y1="42.43" x2="282.945" y2="42.43"/>
				
					<line fill="none" stroke="#00ABEB" stroke-width="0.3" stroke-miterlimit="10" x1="-153.11" y1="21.657" x2="282.945" y2="21.657"/>
				
					<line fill="none" stroke="#00ABEB" stroke-width="0.3" stroke-miterlimit="10" x1="-153.11" y1="0.885" x2="282.945" y2="0.885"/>
				
					<line fill="none" stroke="#00ABEB" stroke-width="0.3" stroke-miterlimit="10" x1="-153.11" y1="-19.887" x2="282.945" y2="-19.887"/>
			</g>
			<g id="Vertical_5_mm">
				
					<line fill="none" stroke="#00ABEB" stroke-width="0.3" stroke-miterlimit="10" x1="-152.438" y1="187.818" x2="-152.438" y2="-61.946"/>
				
					<line fill="none" stroke="#00ABEB" stroke-width="0.3" stroke-miterlimit="10" x1="-125.227" y1="187.818" x2="-125.227" y2="-61.946"/>
				
					<line fill="none" stroke="#00ABEB" stroke-width="0.3" stroke-miterlimit="10" x1="-98.014" y1="187.818" x2="-98.014" y2="-61.946"/>
				
					<line fill="none" stroke="#00ABEB" stroke-width="0.3" stroke-miterlimit="10" x1="-70.803" y1="187.818" x2="-70.803" y2="-61.946"/>
				
					<line fill="none" stroke="#00ABEB" stroke-width="0.3" stroke-miterlimit="10" x1="-43.59" y1="187.818" x2="-43.59" y2="-61.946"/>
				
					<line fill="none" stroke="#00ABEB" stroke-width="0.3" stroke-miterlimit="10" x1="-16.377" y1="187.818" x2="-16.377" y2="-61.946"/>
				
					<line fill="none" stroke="#00ABEB" stroke-width="0.3" stroke-miterlimit="10" x1="10.834" y1="187.818" x2="10.834" y2="-61.946"/>
				
					<line fill="none" stroke="#00ABEB" stroke-width="0.3" stroke-miterlimit="10" x1="38.046" y1="187.818" x2="38.046" y2="-61.946"/>
				
					<line fill="none" stroke="#00ABEB" stroke-width="0.3" stroke-miterlimit="10" x1="65.257" y1="187.818" x2="65.257" y2="-61.946"/>
				
					<line fill="none" stroke="#00ABEB" stroke-width="0.3" stroke-miterlimit="10" x1="92.471" y1="187.818" x2="92.471" y2="-61.946"/>
				
					<line fill="none" stroke="#00ABEB" stroke-width="0.3" stroke-miterlimit="10" x1="119.683" y1="187.818" x2="119.683" y2="-61.946"/>
				
					<line fill="none" stroke="#00ABEB" stroke-width="0.3" stroke-miterlimit="10" x1="146.894" y1="187.818" x2="146.894" y2="-61.946"/>
				
					<line fill="none" stroke="#00ABEB" stroke-width="0.3" stroke-miterlimit="10" x1="174.107" y1="187.818" x2="174.107" y2="-61.946"/>
				
					<line fill="none" stroke="#00ABEB" stroke-width="0.3" stroke-miterlimit="10" x1="201.32" y1="187.818" x2="201.32" y2="-61.946"/>
				
					<line fill="none" stroke="#00ABEB" stroke-width="0.3" stroke-miterlimit="10" x1="228.531" y1="187.818" x2="228.531" y2="-61.946"/>
				
					<line fill="none" stroke="#00ABEB" stroke-width="0.3" stroke-miterlimit="10" x1="255.744" y1="187.818" x2="255.744" y2="-61.946"/>
				
					<line fill="none" stroke="#00ABEB" stroke-width="0.3" stroke-miterlimit="10" x1="282.955" y1="187.818" x2="282.955" y2="-61.946"/>
			</g>
			<g id="Horizontal_10_mm">
				
					<line id="_x31_9_1_" fill="none" stroke="#00ABEB" stroke-width="0.7" stroke-miterlimit="10" x1="-153.11" y1="187.838" x2="282.945" y2="187.838"/>
				
					<line id="_x32_0" fill="none" stroke="#00ABEB" stroke-width="0.7" stroke-miterlimit="10" x1="-153.11" y1="146.294" x2="282.945" y2="146.294"/>
				
					<line id="_x32_1" fill="none" stroke="#00ABEB" stroke-width="0.7" stroke-miterlimit="10" x1="-153.11" y1="104.748" x2="282.945" y2="104.748"/>
				
					<line id="_x32_2" fill="none" stroke="#00ABEB" stroke-width="0.7" stroke-miterlimit="10" x1="-153.11" y1="63.203" x2="282.945" y2="63.203"/>
				
					<line id="_x32_3" fill="none" stroke="#00ABEB" stroke-width="0.7" stroke-miterlimit="10" x1="-153.11" y1="21.657" x2="282.945" y2="21.657"/>
				
					<line id="_x32_4" fill="none" stroke="#00ABEB" stroke-width="0.7" stroke-miterlimit="10" x1="-153.11" y1="-19.887" x2="282.945" y2="-19.887"/>
				
					<line id="_x32_5" fill="none" stroke="#00ABEB" stroke-width="0.7" stroke-miterlimit="10" x1="-153.11" y1="-61.433" x2="282.945" y2="-61.433"/>
			</g>
			<g id="Vertical_10_mm">
				
					<line id="_x30_" fill="none" stroke="#00ABEB" stroke-width="0.7" stroke-miterlimit="10" x1="-152.438" y1="187.818" x2="-152.438" y2="-61.946"/>
				
					<line id="_x31_" fill="none" stroke="#00ABEB" stroke-width="0.7" stroke-miterlimit="10" x1="-98.014" y1="187.818" x2="-98.014" y2="-61.946"/>
				
					<line id="_x32_" fill="none" stroke="#00ABEB" stroke-width="0.7" stroke-miterlimit="10" x1="-43.59" y1="187.818" x2="-43.59" y2="-61.946"/>
				
					<line id="_x33_" fill="none" stroke="#00ABEB" stroke-width="0.7" stroke-miterlimit="10" x1="10.834" y1="187.818" x2="10.834" y2="-61.946"/>
				
					<line id="_x34_" fill="none" stroke="#00ABEB" stroke-width="0.7" stroke-miterlimit="10" x1="65.257" y1="187.818" x2="65.257" y2="-61.946"/>
				
					<line id="_x35_" fill="none" stroke="#00ABEB" stroke-width="0.7" stroke-miterlimit="10" x1="119.683" y1="187.818" x2="119.683" y2="-61.946"/>
				
					<line id="_x36_" fill="none" stroke="#00ABEB" stroke-width="0.7" stroke-miterlimit="10" x1="174.107" y1="187.818" x2="174.107" y2="-61.946"/>
				
					<line id="_x37_" fill="none" stroke="#00ABEB" stroke-width="0.7" stroke-miterlimit="10" x1="228.531" y1="187.818" x2="228.531" y2="-61.946"/>
				
					<line id="_x38_" fill="none" stroke="#00ABEB" stroke-width="0.7" stroke-miterlimit="10" x1="282.955" y1="187.818" x2="282.955" y2="-61.946"/>
			</g>
		</g>
	</g>
</g>
<g id="one_solution">
	<path display="none" fill="#E1E1E1" d="M144.333,43.21c3.311,19.15-21.79,51.152-69.689,38.809
		c-38.282-9.865-55.407-6.041-62.724-37.066C1.154-0.696,39.748-1.613,74.615,11.134C108.964,23.693,135.896-5.589,144.333,43.21z"
		/>
	<g>
		<path d="M61.997,33.685c2.641,0,4.081,1.12,4.081,2.82c0,0.96-0.5,1.94-1.32,2.561c-0.62,0.48-1.28,0.72-2.621,1.021l1.78,4.701
			c0.44,1.18,0.84,1.64,1.74,1.64v0.32h-2.94l-2.46-6.481l-1.32-0.1l-1.101,4.061c-0.22,0.78-0.26,1.061-0.26,1.26
			c0,0.601,0.2,0.82,1.34,0.94v0.32h-4.861v-0.32c1.101-0.14,1.38-0.52,1.701-1.7l2.38-8.622c0.14-0.54,0.24-0.92,0.24-1.26
			c0-0.221-0.14-0.46-0.28-0.561c-0.22-0.14-0.3-0.16-1.14-0.28v-0.319H61.997z M59.176,39.426c0.5,0.08,0.66,0.1,1.021,0.1
			c2.38,0,3.781-1.14,3.781-3.001c0-1.38-0.84-2.24-2.4-2.24c-0.62,0-1.041,0.221-1.141,0.601L59.176,39.426z"/>
	</g>
	<g id="Axis" display="none">
		<g display="inline">
			<g>
				
					<line fill="none" stroke="#000000" stroke-width="0.25" stroke-miterlimit="10" x1="2.098" y1="50.442" x2="167.686" y2="51.536"/>
				<g>
					<polygon points="166.977,52.457 167.377,51.534 166.99,50.606 169.178,51.546 					"/>
				</g>
			</g>
		</g>
		<g display="inline">
			<g>
				
					<line fill="none" stroke="#000000" stroke-width="0.25" stroke-miterlimit="10" x1="86.301" y1="112.06" x2="84.991" y2="-8.579"/>
				<g>
					<polygon points="85.925,-7.887 84.995,-8.271 84.073,-7.867 84.975,-10.072 					"/>
				</g>
			</g>
		</g>
	</g>
	<path opacity="0.1" fill="#FF0000" d="M144.333,43.21c3.311,19.15-21.79,51.152-69.689,38.809
		c-38.282-9.865-55.407-6.041-62.724-37.066C1.154-0.696,39.748-1.613,74.615,11.134C108.964,23.693,135.896-5.589,144.333,43.21z"
		/>
	<g>
		<g>
			<path fill="none" stroke="#FF0000" stroke-miterlimit="10" d="M144.487,44.28c2.225,19.243-22.827,49.854-69.843,37.738
				c-38.282-9.865-55.407-6.041-62.724-37.066C1.154-0.696,39.748-1.613,74.615,11.134c34.349,12.559,61.281-16.723,69.718,32.075"
				/>
			<g>
				<polygon fill="#FF0000" points="140.601,47.915 141.384,48.537 144.447,44.673 148.078,48.011 148.754,47.273 144.332,43.21 
									"/>
			</g>
		</g>
	</g>
	<g>
	</g>
	<g>
	</g>
</g>
</svg>
