<?xml version="1.0" encoding="utf-8"?>
<!-- Generator: Adobe Illustrator 25.4.1, SVG Export Plug-In . SVG Version: 6.00 Build 0)  -->
<svg version="1.1" xmlns="http://www.w3.org/2000/svg" xmlns:xlink="http://www.w3.org/1999/xlink" x="0px" y="0px"
	 viewBox="0 0 85.04 70.866" enable-background="new 0 0 85.04 70.866" xml:space="preserve">
<g id="Graph_paper" opacity="0.5">
	<g id="Clipped_grid">
		<defs>
			<rect id="SVGID_1_" y="-2.835" width="87.874" height="76.536"/>
		</defs>
		<clipPath id="SVGID_00000062164304637147988960000007117211478601983896_">
			<use xlink:href="#SVGID_1_"  overflow="visible"/>
		</clipPath>
		<g id="Grid" opacity="0.25" clip-path="url(#SVGID_00000062164304637147988960000007117211478601983896_)">
			<g id="Horizontal_1_mm">
				
					<line fill="none" stroke="#00ABEB" stroke-width="0.15" stroke-miterlimit="10" x1="-0.069" y1="-28.333" x2="226.772" y2="-28.333"/>
				
					<line fill="none" stroke="#00ABEB" stroke-width="0.15" stroke-miterlimit="10" x1="-0.069" y1="-31.167" x2="226.772" y2="-31.167"/>
				
					<line fill="none" stroke="#00ABEB" stroke-width="0.15" stroke-miterlimit="10" x1="-0.069" y1="138.912" x2="226.772" y2="138.912"/>
				
					<line fill="none" stroke="#00ABEB" stroke-width="0.15" stroke-miterlimit="10" x1="-0.069" y1="136.077" x2="226.772" y2="136.077"/>
				
					<line fill="none" stroke="#00ABEB" stroke-width="0.15" stroke-miterlimit="10" x1="-0.069" y1="133.243" x2="226.772" y2="133.243"/>
				
					<line fill="none" stroke="#00ABEB" stroke-width="0.15" stroke-miterlimit="10" x1="-0.069" y1="130.408" x2="226.772" y2="130.408"/>
				
					<line fill="none" stroke="#00ABEB" stroke-width="0.15" stroke-miterlimit="10" x1="-0.069" y1="127.573" x2="226.772" y2="127.573"/>
				
					<line fill="none" stroke="#00ABEB" stroke-width="0.15" stroke-miterlimit="10" x1="-0.069" y1="124.739" x2="226.772" y2="124.739"/>
				
					<line fill="none" stroke="#00ABEB" stroke-width="0.15" stroke-miterlimit="10" x1="-0.069" y1="121.904" x2="226.772" y2="121.904"/>
				
					<line fill="none" stroke="#00ABEB" stroke-width="0.15" stroke-miterlimit="10" x1="-0.069" y1="119.07" x2="226.772" y2="119.07"/>
				
					<line fill="none" stroke="#00ABEB" stroke-width="0.15" stroke-miterlimit="10" x1="-0.069" y1="116.234" x2="226.772" y2="116.234"/>
				
					<line fill="none" stroke="#00ABEB" stroke-width="0.15" stroke-miterlimit="10" x1="-0.069" y1="113.399" x2="226.772" y2="113.399"/>
				
					<line fill="none" stroke="#00ABEB" stroke-width="0.15" stroke-miterlimit="10" x1="-0.069" y1="110.565" x2="226.772" y2="110.565"/>
				
					<line fill="none" stroke="#00ABEB" stroke-width="0.15" stroke-miterlimit="10" x1="-0.069" y1="107.73" x2="226.772" y2="107.73"/>
				
					<line fill="none" stroke="#00ABEB" stroke-width="0.15" stroke-miterlimit="10" x1="-0.069" y1="104.896" x2="226.772" y2="104.896"/>
				
					<line fill="none" stroke="#00ABEB" stroke-width="0.15" stroke-miterlimit="10" x1="-0.069" y1="102.062" x2="226.772" y2="102.062"/>
				
					<line fill="none" stroke="#00ABEB" stroke-width="0.15" stroke-miterlimit="10" x1="-0.069" y1="99.227" x2="226.772" y2="99.227"/>
				
					<line fill="none" stroke="#00ABEB" stroke-width="0.15" stroke-miterlimit="10" x1="-0.069" y1="96.392" x2="226.772" y2="96.392"/>
				
					<line fill="none" stroke="#00ABEB" stroke-width="0.15" stroke-miterlimit="10" x1="-0.069" y1="93.558" x2="226.772" y2="93.558"/>
				
					<line fill="none" stroke="#00ABEB" stroke-width="0.15" stroke-miterlimit="10" x1="-0.069" y1="90.723" x2="226.772" y2="90.723"/>
				
					<line fill="none" stroke="#00ABEB" stroke-width="0.15" stroke-miterlimit="10" x1="-0.069" y1="87.888" x2="226.772" y2="87.888"/>
				
					<line fill="none" stroke="#00ABEB" stroke-width="0.15" stroke-miterlimit="10" x1="-0.069" y1="85.054" x2="226.772" y2="85.054"/>
				
					<line fill="none" stroke="#00ABEB" stroke-width="0.15" stroke-miterlimit="10" x1="-0.069" y1="82.219" x2="226.772" y2="82.219"/>
				
					<line fill="none" stroke="#00ABEB" stroke-width="0.15" stroke-miterlimit="10" x1="-0.069" y1="79.383" x2="226.772" y2="79.383"/>
				
					<line fill="none" stroke="#00ABEB" stroke-width="0.15" stroke-miterlimit="10" x1="-0.069" y1="76.549" x2="226.772" y2="76.549"/>
				
					<line fill="none" stroke="#00ABEB" stroke-width="0.15" stroke-miterlimit="10" x1="-0.069" y1="73.714" x2="226.772" y2="73.714"/>
				
					<line fill="none" stroke="#00ABEB" stroke-width="0.15" stroke-miterlimit="10" x1="-0.069" y1="70.88" x2="226.772" y2="70.88"/>
				
					<line fill="none" stroke="#00ABEB" stroke-width="0.15" stroke-miterlimit="10" x1="-0.069" y1="68.045" x2="226.772" y2="68.045"/>
				
					<line fill="none" stroke="#00ABEB" stroke-width="0.15" stroke-miterlimit="10" x1="-0.069" y1="65.21" x2="226.772" y2="65.21"/>
				
					<line fill="none" stroke="#00ABEB" stroke-width="0.15" stroke-miterlimit="10" x1="-0.069" y1="62.376" x2="226.772" y2="62.376"/>
				
					<line fill="none" stroke="#00ABEB" stroke-width="0.15" stroke-miterlimit="10" x1="-0.069" y1="59.542" x2="226.772" y2="59.542"/>
				
					<line fill="none" stroke="#00ABEB" stroke-width="0.15" stroke-miterlimit="10" x1="-0.069" y1="56.707" x2="226.772" y2="56.707"/>
				
					<line fill="none" stroke="#00ABEB" stroke-width="0.15" stroke-miterlimit="10" x1="-0.069" y1="53.873" x2="226.772" y2="53.873"/>
				
					<line fill="none" stroke="#00ABEB" stroke-width="0.15" stroke-miterlimit="10" x1="-0.069" y1="51.038" x2="226.772" y2="51.038"/>
				
					<line fill="none" stroke="#00ABEB" stroke-width="0.15" stroke-miterlimit="10" x1="-0.069" y1="48.203" x2="226.772" y2="48.203"/>
				
					<line fill="none" stroke="#00ABEB" stroke-width="0.15" stroke-miterlimit="10" x1="-0.069" y1="45.369" x2="226.772" y2="45.369"/>
				
					<line fill="none" stroke="#00ABEB" stroke-width="0.15" stroke-miterlimit="10" x1="-0.069" y1="42.534" x2="226.772" y2="42.534"/>
				
					<line fill="none" stroke="#00ABEB" stroke-width="0.15" stroke-miterlimit="10" x1="-0.069" y1="39.699" x2="226.772" y2="39.699"/>
				
					<line fill="none" stroke="#00ABEB" stroke-width="0.15" stroke-miterlimit="10" x1="-0.069" y1="36.865" x2="226.772" y2="36.865"/>
				
					<line fill="none" stroke="#00ABEB" stroke-width="0.15" stroke-miterlimit="10" x1="-0.069" y1="34.03" x2="226.772" y2="34.03"/>
				
					<line fill="none" stroke="#00ABEB" stroke-width="0.15" stroke-miterlimit="10" x1="-0.069" y1="31.195" x2="226.772" y2="31.195"/>
				
					<line fill="none" stroke="#00ABEB" stroke-width="0.15" stroke-miterlimit="10" x1="-0.069" y1="28.361" x2="226.772" y2="28.361"/>
				
					<line fill="none" stroke="#00ABEB" stroke-width="0.15" stroke-miterlimit="10" x1="-0.069" y1="25.525" x2="226.772" y2="25.525"/>
				
					<line fill="none" stroke="#00ABEB" stroke-width="0.15" stroke-miterlimit="10" x1="-0.069" y1="22.691" x2="226.772" y2="22.691"/>
				
					<line fill="none" stroke="#00ABEB" stroke-width="0.15" stroke-miterlimit="10" x1="-0.069" y1="19.856" x2="226.772" y2="19.856"/>
				
					<line fill="none" stroke="#00ABEB" stroke-width="0.15" stroke-miterlimit="10" x1="-0.069" y1="17.021" x2="226.772" y2="17.021"/>
				
					<line fill="none" stroke="#00ABEB" stroke-width="0.15" stroke-miterlimit="10" x1="-0.069" y1="14.188" x2="226.772" y2="14.188"/>
				
					<line fill="none" stroke="#00ABEB" stroke-width="0.15" stroke-miterlimit="10" x1="-0.069" y1="11.353" x2="226.772" y2="11.353"/>
				
					<line fill="none" stroke="#00ABEB" stroke-width="0.15" stroke-miterlimit="10" x1="-0.069" y1="8.518" x2="226.772" y2="8.518"/>
				
					<line fill="none" stroke="#00ABEB" stroke-width="0.15" stroke-miterlimit="10" x1="-0.069" y1="5.684" x2="226.772" y2="5.684"/>
				
					<line fill="none" stroke="#00ABEB" stroke-width="0.15" stroke-miterlimit="10" x1="-0.069" y1="2.849" x2="226.772" y2="2.849"/>
				
					<line fill="none" stroke="#00ABEB" stroke-width="0.15" stroke-miterlimit="10" x1="-0.069" y1="0.014" x2="226.772" y2="0.014"/>
				
					<line fill="none" stroke="#00ABEB" stroke-width="0.15" stroke-miterlimit="10" x1="-0.069" y1="-2.82" x2="226.772" y2="-2.82"/>
				
					<line fill="none" stroke="#00ABEB" stroke-width="0.15" stroke-miterlimit="10" x1="-0.069" y1="-5.655" x2="226.772" y2="-5.655"/>
				
					<line fill="none" stroke="#00ABEB" stroke-width="0.15" stroke-miterlimit="10" x1="-0.069" y1="-8.49" x2="226.772" y2="-8.49"/>
				
					<line fill="none" stroke="#00ABEB" stroke-width="0.15" stroke-miterlimit="10" x1="-0.069" y1="-11.324" x2="226.772" y2="-11.324"/>
				
					<line fill="none" stroke="#00ABEB" stroke-width="0.15" stroke-miterlimit="10" x1="-0.069" y1="-14.16" x2="226.772" y2="-14.16"/>
				
					<line fill="none" stroke="#00ABEB" stroke-width="0.15" stroke-miterlimit="10" x1="-0.069" y1="-16.994" x2="226.772" y2="-16.994"/>
				
					<line fill="none" stroke="#00ABEB" stroke-width="0.15" stroke-miterlimit="10" x1="-0.069" y1="-19.829" x2="226.772" y2="-19.829"/>
				
					<line fill="none" stroke="#00ABEB" stroke-width="0.15" stroke-miterlimit="10" x1="-0.069" y1="-22.664" x2="226.772" y2="-22.664"/>
				
					<line fill="none" stroke="#00ABEB" stroke-width="0.15" stroke-miterlimit="10" x1="-0.069" y1="-25.498" x2="226.772" y2="-25.498"/>
			</g>
			<g id="Vertical_1_mm">
				<g>
					
						<line fill="none" stroke="#00ABEB" stroke-width="0.15" stroke-miterlimit="10" x1="0.006" y1="138.898" x2="0.006" y2="-31.243"/>
				</g>
				
					<line fill="none" stroke="#00ABEB" stroke-width="0.15" stroke-miterlimit="10" x1="2.84" y1="138.898" x2="2.84" y2="-31.243"/>
				
					<line fill="none" stroke="#00ABEB" stroke-width="0.15" stroke-miterlimit="10" x1="5.675" y1="138.898" x2="5.675" y2="-31.243"/>
				
					<line fill="none" stroke="#00ABEB" stroke-width="0.15" stroke-miterlimit="10" x1="8.51" y1="138.898" x2="8.51" y2="-31.243"/>
				
					<line fill="none" stroke="#00ABEB" stroke-width="0.15" stroke-miterlimit="10" x1="11.344" y1="138.898" x2="11.344" y2="-31.243"/>
				
					<line fill="none" stroke="#00ABEB" stroke-width="0.15" stroke-miterlimit="10" x1="14.179" y1="138.898" x2="14.179" y2="-31.243"/>
				
					<line fill="none" stroke="#00ABEB" stroke-width="0.15" stroke-miterlimit="10" x1="17.014" y1="138.898" x2="17.014" y2="-31.243"/>
				
					<line fill="none" stroke="#00ABEB" stroke-width="0.15" stroke-miterlimit="10" x1="19.848" y1="138.898" x2="19.848" y2="-31.243"/>
				
					<line fill="none" stroke="#00ABEB" stroke-width="0.15" stroke-miterlimit="10" x1="22.684" y1="138.898" x2="22.684" y2="-31.243"/>
				
					<line fill="none" stroke="#00ABEB" stroke-width="0.15" stroke-miterlimit="10" x1="25.518" y1="138.898" x2="25.518" y2="-31.243"/>
				
					<line fill="none" stroke="#00ABEB" stroke-width="0.15" stroke-miterlimit="10" x1="28.353" y1="138.898" x2="28.353" y2="-31.243"/>
				
					<line fill="none" stroke="#00ABEB" stroke-width="0.15" stroke-miterlimit="10" x1="31.188" y1="138.898" x2="31.188" y2="-31.243"/>
				
					<line fill="none" stroke="#00ABEB" stroke-width="0.15" stroke-miterlimit="10" x1="34.021" y1="138.898" x2="34.021" y2="-31.243"/>
				
					<line fill="none" stroke="#00ABEB" stroke-width="0.15" stroke-miterlimit="10" x1="36.856" y1="138.898" x2="36.856" y2="-31.243"/>
				
					<line fill="none" stroke="#00ABEB" stroke-width="0.15" stroke-miterlimit="10" x1="39.691" y1="138.898" x2="39.691" y2="-31.243"/>
				
					<line fill="none" stroke="#00ABEB" stroke-width="0.15" stroke-miterlimit="10" x1="42.525" y1="138.898" x2="42.525" y2="-31.243"/>
				
					<line fill="none" stroke="#00ABEB" stroke-width="0.15" stroke-miterlimit="10" x1="45.36" y1="138.898" x2="45.36" y2="-31.243"/>
				
					<line fill="none" stroke="#00ABEB" stroke-width="0.15" stroke-miterlimit="10" x1="48.195" y1="138.898" x2="48.195" y2="-31.243"/>
				
					<line fill="none" stroke="#00ABEB" stroke-width="0.15" stroke-miterlimit="10" x1="51.029" y1="138.898" x2="51.029" y2="-31.243"/>
				
					<line fill="none" stroke="#00ABEB" stroke-width="0.15" stroke-miterlimit="10" x1="53.864" y1="138.898" x2="53.864" y2="-31.243"/>
				
					<line fill="none" stroke="#00ABEB" stroke-width="0.15" stroke-miterlimit="10" x1="56.699" y1="138.898" x2="56.699" y2="-31.243"/>
				
					<line fill="none" stroke="#00ABEB" stroke-width="0.15" stroke-miterlimit="10" x1="59.533" y1="138.898" x2="59.533" y2="-31.243"/>
				
					<line fill="none" stroke="#00ABEB" stroke-width="0.15" stroke-miterlimit="10" x1="62.368" y1="138.898" x2="62.368" y2="-31.243"/>
				
					<line fill="none" stroke="#00ABEB" stroke-width="0.15" stroke-miterlimit="10" x1="65.203" y1="138.898" x2="65.203" y2="-31.243"/>
				
					<line fill="none" stroke="#00ABEB" stroke-width="0.15" stroke-miterlimit="10" x1="68.038" y1="138.898" x2="68.038" y2="-31.243"/>
				
					<line fill="none" stroke="#00ABEB" stroke-width="0.15" stroke-miterlimit="10" x1="70.873" y1="138.898" x2="70.873" y2="-31.243"/>
				
					<line fill="none" stroke="#00ABEB" stroke-width="0.15" stroke-miterlimit="10" x1="73.706" y1="138.898" x2="73.706" y2="-31.243"/>
				
					<line fill="none" stroke="#00ABEB" stroke-width="0.15" stroke-miterlimit="10" x1="76.541" y1="138.898" x2="76.541" y2="-31.243"/>
				
					<line fill="none" stroke="#00ABEB" stroke-width="0.15" stroke-miterlimit="10" x1="79.377" y1="138.898" x2="79.377" y2="-31.243"/>
				
					<line fill="none" stroke="#00ABEB" stroke-width="0.15" stroke-miterlimit="10" x1="82.21" y1="138.898" x2="82.21" y2="-31.243"/>
				
					<line fill="none" stroke="#00ABEB" stroke-width="0.15" stroke-miterlimit="10" x1="85.045" y1="138.898" x2="85.045" y2="-31.243"/>
				
					<line fill="none" stroke="#00ABEB" stroke-width="0.15" stroke-miterlimit="10" x1="87.88" y1="138.898" x2="87.88" y2="-31.243"/>
				
					<line fill="none" stroke="#00ABEB" stroke-width="0.15" stroke-miterlimit="10" x1="90.714" y1="138.898" x2="90.714" y2="-31.243"/>
				
					<line fill="none" stroke="#00ABEB" stroke-width="0.15" stroke-miterlimit="10" x1="93.549" y1="138.898" x2="93.549" y2="-31.243"/>
				
					<line fill="none" stroke="#00ABEB" stroke-width="0.15" stroke-miterlimit="10" x1="96.384" y1="138.898" x2="96.384" y2="-31.243"/>
				
					<line fill="none" stroke="#00ABEB" stroke-width="0.15" stroke-miterlimit="10" x1="99.218" y1="138.898" x2="99.218" y2="-31.243"/>
				
					<line fill="none" stroke="#00ABEB" stroke-width="0.15" stroke-miterlimit="10" x1="102.053" y1="138.898" x2="102.053" y2="-31.243"/>
				
					<line fill="none" stroke="#00ABEB" stroke-width="0.15" stroke-miterlimit="10" x1="104.888" y1="138.898" x2="104.888" y2="-31.243"/>
				
					<line fill="none" stroke="#00ABEB" stroke-width="0.15" stroke-miterlimit="10" x1="107.722" y1="138.898" x2="107.722" y2="-31.243"/>
				
					<line fill="none" stroke="#00ABEB" stroke-width="0.15" stroke-miterlimit="10" x1="110.557" y1="138.898" x2="110.557" y2="-31.243"/>
				
					<line fill="none" stroke="#00ABEB" stroke-width="0.15" stroke-miterlimit="10" x1="113.391" y1="138.898" x2="113.391" y2="-31.243"/>
				
					<line fill="none" stroke="#00ABEB" stroke-width="0.15" stroke-miterlimit="10" x1="116.227" y1="138.898" x2="116.227" y2="-31.243"/>
				
					<line fill="none" stroke="#00ABEB" stroke-width="0.15" stroke-miterlimit="10" x1="119.062" y1="138.898" x2="119.062" y2="-31.243"/>
				
					<line fill="none" stroke="#00ABEB" stroke-width="0.15" stroke-miterlimit="10" x1="121.896" y1="138.898" x2="121.896" y2="-31.243"/>
				
					<line fill="none" stroke="#00ABEB" stroke-width="0.15" stroke-miterlimit="10" x1="124.73" y1="138.898" x2="124.73" y2="-31.243"/>
				
					<line fill="none" stroke="#00ABEB" stroke-width="0.15" stroke-miterlimit="10" x1="127.565" y1="138.898" x2="127.565" y2="-31.243"/>
				
					<line fill="none" stroke="#00ABEB" stroke-width="0.15" stroke-miterlimit="10" x1="130.399" y1="138.898" x2="130.399" y2="-31.243"/>
				
					<line fill="none" stroke="#00ABEB" stroke-width="0.15" stroke-miterlimit="10" x1="133.234" y1="138.898" x2="133.234" y2="-31.243"/>
				
					<line fill="none" stroke="#00ABEB" stroke-width="0.15" stroke-miterlimit="10" x1="136.069" y1="138.898" x2="136.069" y2="-31.243"/>
				
					<line fill="none" stroke="#00ABEB" stroke-width="0.15" stroke-miterlimit="10" x1="138.903" y1="138.898" x2="138.903" y2="-31.243"/>
				
					<line fill="none" stroke="#00ABEB" stroke-width="0.15" stroke-miterlimit="10" x1="141.738" y1="138.898" x2="141.738" y2="-31.243"/>
				
					<line fill="none" stroke="#00ABEB" stroke-width="0.15" stroke-miterlimit="10" x1="144.573" y1="138.898" x2="144.573" y2="-31.243"/>
				
					<line fill="none" stroke="#00ABEB" stroke-width="0.15" stroke-miterlimit="10" x1="147.407" y1="138.898" x2="147.407" y2="-31.243"/>
				
					<line fill="none" stroke="#00ABEB" stroke-width="0.15" stroke-miterlimit="10" x1="150.242" y1="138.898" x2="150.242" y2="-31.243"/>
				
					<line fill="none" stroke="#00ABEB" stroke-width="0.15" stroke-miterlimit="10" x1="153.077" y1="138.898" x2="153.077" y2="-31.243"/>
				
					<line fill="none" stroke="#00ABEB" stroke-width="0.15" stroke-miterlimit="10" x1="155.911" y1="138.898" x2="155.911" y2="-31.243"/>
				
					<line fill="none" stroke="#00ABEB" stroke-width="0.15" stroke-miterlimit="10" x1="158.747" y1="138.898" x2="158.747" y2="-31.243"/>
				
					<line fill="none" stroke="#00ABEB" stroke-width="0.15" stroke-miterlimit="10" x1="161.581" y1="138.898" x2="161.581" y2="-31.243"/>
				
					<line fill="none" stroke="#00ABEB" stroke-width="0.15" stroke-miterlimit="10" x1="164.415" y1="138.898" x2="164.415" y2="-31.243"/>
				
					<line fill="none" stroke="#00ABEB" stroke-width="0.15" stroke-miterlimit="10" x1="167.25" y1="138.898" x2="167.25" y2="-31.243"/>
				
					<line fill="none" stroke="#00ABEB" stroke-width="0.15" stroke-miterlimit="10" x1="170.085" y1="138.898" x2="170.085" y2="-31.243"/>
				
					<line fill="none" stroke="#00ABEB" stroke-width="0.15" stroke-miterlimit="10" x1="172.919" y1="138.898" x2="172.919" y2="-31.243"/>
				
					<line fill="none" stroke="#00ABEB" stroke-width="0.15" stroke-miterlimit="10" x1="175.754" y1="138.898" x2="175.754" y2="-31.243"/>
				
					<line fill="none" stroke="#00ABEB" stroke-width="0.15" stroke-miterlimit="10" x1="178.588" y1="138.898" x2="178.588" y2="-31.243"/>
				
					<line fill="none" stroke="#00ABEB" stroke-width="0.15" stroke-miterlimit="10" x1="181.423" y1="138.898" x2="181.423" y2="-31.243"/>
				
					<line fill="none" stroke="#00ABEB" stroke-width="0.15" stroke-miterlimit="10" x1="184.258" y1="138.898" x2="184.258" y2="-31.243"/>
				
					<line fill="none" stroke="#00ABEB" stroke-width="0.15" stroke-miterlimit="10" x1="187.092" y1="138.898" x2="187.092" y2="-31.243"/>
				
					<line fill="none" stroke="#00ABEB" stroke-width="0.15" stroke-miterlimit="10" x1="189.927" y1="138.898" x2="189.927" y2="-31.243"/>
				
					<line fill="none" stroke="#00ABEB" stroke-width="0.15" stroke-miterlimit="10" x1="192.762" y1="138.898" x2="192.762" y2="-31.243"/>
				
					<line fill="none" stroke="#00ABEB" stroke-width="0.15" stroke-miterlimit="10" x1="195.596" y1="138.898" x2="195.596" y2="-31.243"/>
				
					<line fill="none" stroke="#00ABEB" stroke-width="0.15" stroke-miterlimit="10" x1="198.431" y1="138.898" x2="198.431" y2="-31.243"/>
				
					<line fill="none" stroke="#00ABEB" stroke-width="0.15" stroke-miterlimit="10" x1="201.266" y1="138.898" x2="201.266" y2="-31.243"/>
				
					<line fill="none" stroke="#00ABEB" stroke-width="0.15" stroke-miterlimit="10" x1="204.101" y1="138.898" x2="204.101" y2="-31.243"/>
				
					<line fill="none" stroke="#00ABEB" stroke-width="0.15" stroke-miterlimit="10" x1="206.936" y1="138.898" x2="206.936" y2="-31.243"/>
				
					<line fill="none" stroke="#00ABEB" stroke-width="0.15" stroke-miterlimit="10" x1="209.77" y1="138.898" x2="209.77" y2="-31.243"/>
				
					<line fill="none" stroke="#00ABEB" stroke-width="0.15" stroke-miterlimit="10" x1="212.604" y1="138.898" x2="212.604" y2="-31.243"/>
				
					<line fill="none" stroke="#00ABEB" stroke-width="0.15" stroke-miterlimit="10" x1="215.439" y1="138.898" x2="215.439" y2="-31.243"/>
				
					<line fill="none" stroke="#00ABEB" stroke-width="0.15" stroke-miterlimit="10" x1="218.273" y1="138.898" x2="218.273" y2="-31.243"/>
				
					<line fill="none" stroke="#00ABEB" stroke-width="0.15" stroke-miterlimit="10" x1="221.108" y1="138.898" x2="221.108" y2="-31.243"/>
				
					<line fill="none" stroke="#00ABEB" stroke-width="0.15" stroke-miterlimit="10" x1="223.943" y1="138.898" x2="223.943" y2="-31.243"/>
				
					<line fill="none" stroke="#00ABEB" stroke-width="0.15" stroke-miterlimit="10" x1="226.777" y1="138.898" x2="226.777" y2="-31.243"/>
			</g>
			<g id="Horizontal_5_mm_1_">
				
					<line fill="none" stroke="#00ABEB" stroke-width="0.3" stroke-miterlimit="10" x1="-0.344" y1="138.912" x2="226.772" y2="138.912"/>
				
					<line fill="none" stroke="#00ABEB" stroke-width="0.3" stroke-miterlimit="10" x1="-0.344" y1="124.739" x2="226.772" y2="124.739"/>
				
					<line fill="none" stroke="#00ABEB" stroke-width="0.3" stroke-miterlimit="10" x1="-0.344" y1="110.565" x2="226.772" y2="110.565"/>
				
					<line fill="none" stroke="#00ABEB" stroke-width="0.3" stroke-miterlimit="10" x1="-0.344" y1="96.392" x2="226.772" y2="96.392"/>
				
					<line fill="none" stroke="#00ABEB" stroke-width="0.3" stroke-miterlimit="10" x1="-0.344" y1="82.219" x2="226.772" y2="82.219"/>
				
					<line fill="none" stroke="#00ABEB" stroke-width="0.3" stroke-miterlimit="10" x1="-0.344" y1="68.045" x2="226.772" y2="68.045"/>
				
					<line fill="none" stroke="#00ABEB" stroke-width="0.3" stroke-miterlimit="10" x1="-0.344" y1="53.873" x2="226.772" y2="53.873"/>
				
					<line fill="none" stroke="#00ABEB" stroke-width="0.3" stroke-miterlimit="10" x1="-0.344" y1="39.699" x2="226.772" y2="39.699"/>
				
					<line fill="none" stroke="#00ABEB" stroke-width="0.3" stroke-miterlimit="10" x1="-0.344" y1="25.525" x2="226.772" y2="25.525"/>
				
					<line fill="none" stroke="#00ABEB" stroke-width="0.3" stroke-miterlimit="10" x1="-0.344" y1="11.353" x2="226.772" y2="11.353"/>
				
					<line fill="none" stroke="#00ABEB" stroke-width="0.3" stroke-miterlimit="10" x1="-0.344" y1="-2.82" x2="226.772" y2="-2.82"/>
			</g>
			<g id="Vertical_5_mm">
				
					<line fill="none" stroke="#00ABEB" stroke-width="0.3" stroke-miterlimit="10" x1="0.006" y1="138.898" x2="0.006" y2="-31.518"/>
				
					<line fill="none" stroke="#00ABEB" stroke-width="0.3" stroke-miterlimit="10" x1="14.179" y1="138.898" x2="14.179" y2="-31.518"/>
				
					<line fill="none" stroke="#00ABEB" stroke-width="0.3" stroke-miterlimit="10" x1="28.353" y1="138.898" x2="28.353" y2="-31.518"/>
				
					<line fill="none" stroke="#00ABEB" stroke-width="0.3" stroke-miterlimit="10" x1="42.525" y1="138.898" x2="42.525" y2="-31.518"/>
				
					<line fill="none" stroke="#00ABEB" stroke-width="0.3" stroke-miterlimit="10" x1="56.699" y1="138.898" x2="56.699" y2="-31.518"/>
				
					<line fill="none" stroke="#00ABEB" stroke-width="0.3" stroke-miterlimit="10" x1="70.873" y1="138.898" x2="70.873" y2="-31.518"/>
				
					<line fill="none" stroke="#00ABEB" stroke-width="0.3" stroke-miterlimit="10" x1="85.045" y1="138.898" x2="85.045" y2="-31.518"/>
				
					<line fill="none" stroke="#00ABEB" stroke-width="0.3" stroke-miterlimit="10" x1="99.218" y1="138.898" x2="99.218" y2="-31.518"/>
				
					<line fill="none" stroke="#00ABEB" stroke-width="0.3" stroke-miterlimit="10" x1="113.391" y1="138.898" x2="113.391" y2="-31.518"/>
				
					<line fill="none" stroke="#00ABEB" stroke-width="0.3" stroke-miterlimit="10" x1="127.565" y1="138.898" x2="127.565" y2="-31.518"/>
				
					<line fill="none" stroke="#00ABEB" stroke-width="0.3" stroke-miterlimit="10" x1="141.738" y1="138.898" x2="141.738" y2="-31.518"/>
				
					<line fill="none" stroke="#00ABEB" stroke-width="0.3" stroke-miterlimit="10" x1="155.911" y1="138.898" x2="155.911" y2="-31.518"/>
				
					<line fill="none" stroke="#00ABEB" stroke-width="0.3" stroke-miterlimit="10" x1="170.085" y1="138.898" x2="170.085" y2="-31.518"/>
				
					<line fill="none" stroke="#00ABEB" stroke-width="0.3" stroke-miterlimit="10" x1="184.258" y1="138.898" x2="184.258" y2="-31.518"/>
				
					<line fill="none" stroke="#00ABEB" stroke-width="0.3" stroke-miterlimit="10" x1="198.431" y1="138.898" x2="198.431" y2="-31.518"/>
				
					<line fill="none" stroke="#00ABEB" stroke-width="0.3" stroke-miterlimit="10" x1="212.604" y1="138.898" x2="212.604" y2="-31.518"/>
				
					<line fill="none" stroke="#00ABEB" stroke-width="0.3" stroke-miterlimit="10" x1="226.777" y1="138.898" x2="226.777" y2="-31.518"/>
			</g>
			<g id="Horizontal_10_mm">
				
					<line id="_x31_9_1_" fill="none" stroke="#00ABEB" stroke-width="0.7" stroke-miterlimit="10" x1="-0.344" y1="138.912" x2="226.772" y2="138.912"/>
				
					<line id="_x32_0" fill="none" stroke="#00ABEB" stroke-width="0.7" stroke-miterlimit="10" x1="-0.344" y1="110.565" x2="226.772" y2="110.565"/>
				
					<line id="_x32_1" fill="none" stroke="#00ABEB" stroke-width="0.7" stroke-miterlimit="10" x1="-0.344" y1="82.219" x2="226.772" y2="82.219"/>
				
					<line id="_x32_2" fill="none" stroke="#00ABEB" stroke-width="0.7" stroke-miterlimit="10" x1="-0.344" y1="53.873" x2="226.772" y2="53.873"/>
				
					<line id="_x32_3" fill="none" stroke="#00ABEB" stroke-width="0.7" stroke-miterlimit="10" x1="-0.344" y1="25.525" x2="226.772" y2="25.525"/>
				
					<line id="_x32_4" fill="none" stroke="#00ABEB" stroke-width="0.7" stroke-miterlimit="10" x1="-0.344" y1="-2.82" x2="226.772" y2="-2.82"/>
				
					<line id="_x32_5" fill="none" stroke="#00ABEB" stroke-width="0.7" stroke-miterlimit="10" x1="-0.344" y1="-31.167" x2="226.772" y2="-31.167"/>
			</g>
			<g id="Vertical_10_mm">
				
					<line id="_x30_" fill="none" stroke="#00ABEB" stroke-width="0.7" stroke-miterlimit="10" x1="0.006" y1="138.898" x2="0.006" y2="-31.518"/>
				
					<line id="_x31_" fill="none" stroke="#00ABEB" stroke-width="0.7" stroke-miterlimit="10" x1="28.353" y1="138.898" x2="28.353" y2="-31.518"/>
				
					<line id="_x32_" fill="none" stroke="#00ABEB" stroke-width="0.7" stroke-miterlimit="10" x1="56.699" y1="138.898" x2="56.699" y2="-31.518"/>
				
					<line id="_x33_" fill="none" stroke="#00ABEB" stroke-width="0.7" stroke-miterlimit="10" x1="85.045" y1="138.898" x2="85.045" y2="-31.518"/>
				
					<line id="_x34_" fill="none" stroke="#00ABEB" stroke-width="0.7" stroke-miterlimit="10" x1="113.391" y1="138.898" x2="113.391" y2="-31.518"/>
				
					<line id="_x35_" fill="none" stroke="#00ABEB" stroke-width="0.7" stroke-miterlimit="10" x1="141.738" y1="138.898" x2="141.738" y2="-31.518"/>
				
					<line id="_x36_" fill="none" stroke="#00ABEB" stroke-width="0.7" stroke-miterlimit="10" x1="170.085" y1="138.898" x2="170.085" y2="-31.518"/>
				
					<line id="_x37_" fill="none" stroke="#00ABEB" stroke-width="0.7" stroke-miterlimit="10" x1="198.431" y1="138.898" x2="198.431" y2="-31.518"/>
				
					<line id="_x38_" fill="none" stroke="#00ABEB" stroke-width="0.7" stroke-miterlimit="10" x1="226.777" y1="138.898" x2="226.777" y2="-31.518"/>
			</g>
		</g>
	</g>
</g>
<g id="Layer_2">
	<g>
		<path d="M25.391,38.51c-0.636,0.888-1.163,1.283-1.727,1.283c-0.312,0-0.479-0.192-0.479-0.552c0-0.12,0.036-0.324,0.156-0.792
			l0.696-2.723c0.06-0.24,0.084-0.396,0.084-0.456c0-0.144-0.108-0.252-0.24-0.252c-0.36,0-0.971,0.564-1.571,1.403
			c-0.588,0.828-0.828,1.415-1.295,3.262h-0.899l0.324-1.115c0.528-1.823,0.815-3.094,0.815-3.25c0-0.192-0.108-0.3-0.264-0.3
			c-0.408,0-1.116,0.696-1.787,1.715c-0.408,0.624-0.576,1.055-1.151,2.95h-0.899l0.516-1.727c0.479-1.595,0.66-2.591,0.66-2.734
			c0-0.18-0.168-0.264-0.492-0.264h-0.3v-0.192l1.943-0.372l0.036,0.024l-0.696,2.507c1.067-1.739,1.907-2.531,2.639-2.531
			c0.479,0,0.719,0.288,0.719,0.72c0,0.228-0.156,0.899-0.479,1.823c0.839-1.331,1.331-1.931,1.919-2.303
			c0.288-0.18,0.516-0.24,0.755-0.24c0.444,0,0.696,0.324,0.696,0.755c0,0.084-0.024,0.276-0.036,0.336l-0.815,3.01
			c-0.072,0.276-0.12,0.492-0.12,0.54c0,0.132,0.048,0.192,0.144,0.192c0.204,0,0.42-0.192,0.78-0.636l0.252-0.312l0.18,0.144
			L25.391,38.51z"/>
	</g>
	<g>
		<g>
			
				<line fill="none" stroke="#0000FF" stroke-width="0.5" stroke-miterlimit="10" x1="70.369" y1="22.895" x2="25.864" y2="42.365"/>
			<g>
				<polygon fill="#0000FF" points="68.031,21.685 67.865,22.157 70.193,22.971 69.211,25.233 69.67,25.432 70.865,22.677 				"/>
			</g>
		</g>
	</g>
	<g>
		<g>
			<path fill="#0000FF" d="M56.733,24.313c-0.899,1.091-1.188,1.319-1.667,1.319c-0.336,0-0.48-0.144-0.48-0.492
				c0-0.3,0.024-0.396,0.276-1.379c-0.899,1.355-1.595,1.883-2.435,1.883c-0.672,0-1.199-0.479-1.199-1.391
				c0-1.859,1.835-4.03,3.43-4.03c0.516,0,0.864,0.252,0.959,0.696l0.132-0.576l0.036-0.036l0.732-0.084l0.084,0.036
				c-0.024,0.108-0.036,0.132-0.072,0.251c-0.563,2.051-1.067,4.114-1.067,4.354c0,0.084,0.072,0.156,0.168,0.156
				c0.108,0,0.264-0.096,0.624-0.492l0.324-0.348L56.733,24.313z M54.73,20.486c-0.54,0-1.067,0.372-1.571,1.104
				c-0.503,0.755-0.923,1.823-0.923,2.579c0,0.66,0.288,0.888,0.72,0.888c0.6,0,1.163-0.66,1.523-1.176
				c0.563-0.815,0.923-1.847,0.923-2.698C55.401,20.762,55.149,20.486,54.73,20.486z"/>
		</g>
		<g>
			<g>
				
					<line fill="none" stroke="#0000FF" stroke-width="0.3" stroke-miterlimit="10" x1="51.638" y1="18.259" x2="56.368" y2="18.259"/>
				<g>
					<polygon fill="#0000FF" points="55.374,19.486 55.169,19.267 56.252,18.26 55.169,17.253 55.374,17.033 56.693,18.26 					"/>
				</g>
			</g>
		</g>
	</g>
	<circle cx="25.865" cy="42.483" r="1.472"/>
	<g>
		<g>
			<line fill="none" stroke="#FF0000" stroke-width="0.6" stroke-miterlimit="10" x1="47.89" y1="32.782" x2="25.865" y2="42.418"/>
			<g>
				<polygon fill="#FF0000" points="45.085,31.331 44.886,31.897 47.679,32.874 46.501,35.588 47.052,35.826 48.486,32.521 				"/>
			</g>
		</g>
	</g>
	<g>
		<g>
			<path fill="#FF0000" d="M43.178,44.145c0.264-0.852,0.468-1.511,0.864-2.075c0.36-0.516,0.852-0.923,1.583-0.923
				c0.588,0,1.032,0.312,1.032,0.743c0,0.264-0.228,0.516-0.504,0.516c-0.216,0-0.444-0.18-0.444-0.468
				c0-0.204,0.12-0.264,0.12-0.372c0-0.096-0.096-0.156-0.264-0.156c-0.671,0-1.115,0.839-1.463,2.734h1.283l-0.072,0.384h-1.295
				l-0.864,3.838c-0.503,2.219-1.307,3.394-2.398,3.394c-0.54,0-0.948-0.312-0.948-0.731c0-0.276,0.204-0.503,0.456-0.503
				c0.276,0,0.456,0.191,0.456,0.443c0,0.156-0.108,0.216-0.108,0.348c0,0.108,0.096,0.192,0.24,0.192
				c0.504,0,0.888-0.648,1.164-1.943l1.055-5.037h-1.091l0.084-0.384H43.178z"/>
		</g>
		<g>
			<g>
				
					<line fill="none" stroke="#FF0000" stroke-width="0.3" stroke-miterlimit="10" x1="40.953" y1="39.378" x2="46.595" y2="39.378"/>
				<g>
					<polygon fill="#FF0000" points="45.601,40.604 45.397,40.385 46.48,39.378 45.397,38.371 45.601,38.151 46.921,39.378 					"/>
				</g>
			</g>
		</g>
	</g>
	<g>
	</g>
</g>
</svg>
