<?xml version="1.0" encoding="utf-8"?>
<!-- Generator: Adobe Illustrator 25.4.1, SVG Export Plug-In . SVG Version: 6.00 Build 0)  -->
<svg version="1.1" xmlns="http://www.w3.org/2000/svg" xmlns:xlink="http://www.w3.org/1999/xlink" x="0px" y="0px"
	 viewBox="0 0 49.951 28.767" enable-background="new 0 0 49.951 28.767" xml:space="preserve">
<g id="Graph_paper_slanted" opacity="0.5">
	<g id="Clipped_grid_00000003068028900943026870000011536296927355263674_">
		<defs>
			<polygon id="SVGID_1_" points="31.91,32.807 -28.074,32.807 3.476,1.257 63.46,1.257 			"/>
		</defs>
		<clipPath id="SVGID_00000000188057141040376850000015377451920193078676_">
			<use xlink:href="#SVGID_1_"  overflow="visible"/>
		</clipPath>
		
			<g id="Grid_00000142891597197125820610000009767860333217090727_" opacity="0.25" clip-path="url(#SVGID_00000000188057141040376850000015377451920193078676_)">
			<g id="Horizontal_1_mm_00000151508609497893311650000018408800186222605470_">
				
					<line fill="none" stroke="#00ABEB" stroke-width="0.15" stroke-miterlimit="10" x1="-38.121" y1="-41.272" x2="188.72" y2="-41.272"/>
				
					<line fill="none" stroke="#00ABEB" stroke-width="0.15" stroke-miterlimit="10" x1="-36.133" y1="-43.26" x2="190.708" y2="-43.26"/>
				
					<line fill="none" stroke="#00ABEB" stroke-width="0.15" stroke-miterlimit="10" x1="-155.41" y1="76.016" x2="71.431" y2="76.016"/>
				
					<line fill="none" stroke="#00ABEB" stroke-width="0.15" stroke-miterlimit="10" x1="-153.422" y1="74.028" x2="73.419" y2="74.028"/>
				
					<line fill="none" stroke="#00ABEB" stroke-width="0.15" stroke-miterlimit="10" x1="-151.434" y1="72.041" x2="75.406" y2="72.041"/>
				
					<line fill="none" stroke="#00ABEB" stroke-width="0.15" stroke-miterlimit="10" x1="-149.446" y1="70.052" x2="77.395" y2="70.052"/>
				
					<line fill="none" stroke="#00ABEB" stroke-width="0.15" stroke-miterlimit="10" x1="-147.458" y1="68.064" x2="79.383" y2="68.064"/>
				
					<line fill="none" stroke="#00ABEB" stroke-width="0.15" stroke-miterlimit="10" x1="-145.471" y1="66.077" x2="81.37" y2="66.077"/>
				
					<line fill="none" stroke="#00ABEB" stroke-width="0.15" stroke-miterlimit="10" x1="-143.482" y1="64.089" x2="83.358" y2="64.089"/>
				
					<line fill="none" stroke="#00ABEB" stroke-width="0.15" stroke-miterlimit="10" x1="-141.495" y1="62.101" x2="85.346" y2="62.101"/>
				
					<line fill="none" stroke="#00ABEB" stroke-width="0.15" stroke-miterlimit="10" x1="-139.506" y1="60.113" x2="87.334" y2="60.113"/>
				
					<line fill="none" stroke="#00ABEB" stroke-width="0.15" stroke-miterlimit="10" x1="-137.518" y1="58.125" x2="89.323" y2="58.125"/>
				
					<line fill="none" stroke="#00ABEB" stroke-width="0.15" stroke-miterlimit="10" x1="-135.531" y1="56.137" x2="91.31" y2="56.137"/>
				
					<line fill="none" stroke="#00ABEB" stroke-width="0.15" stroke-miterlimit="10" x1="-133.543" y1="54.149" x2="93.298" y2="54.149"/>
				
					<line fill="none" stroke="#00ABEB" stroke-width="0.15" stroke-miterlimit="10" x1="-131.554" y1="52.161" x2="95.286" y2="52.161"/>
				
					<line fill="none" stroke="#00ABEB" stroke-width="0.15" stroke-miterlimit="10" x1="-129.567" y1="50.173" x2="97.274" y2="50.173"/>
				
					<line fill="none" stroke="#00ABEB" stroke-width="0.15" stroke-miterlimit="10" x1="-127.579" y1="48.185" x2="99.262" y2="48.185"/>
				
					<line fill="none" stroke="#00ABEB" stroke-width="0.15" stroke-miterlimit="10" x1="-125.591" y1="46.197" x2="101.25" y2="46.197"/>
				
					<line fill="none" stroke="#00ABEB" stroke-width="0.15" stroke-miterlimit="10" x1="-123.603" y1="44.21" x2="103.238" y2="44.21"/>
				
					<line fill="none" stroke="#00ABEB" stroke-width="0.15" stroke-miterlimit="10" x1="-121.615" y1="42.221" x2="105.226" y2="42.221"/>
				
					<line fill="none" stroke="#00ABEB" stroke-width="0.15" stroke-miterlimit="10" x1="-119.627" y1="40.233" x2="107.214" y2="40.233"/>
				
					<line fill="none" stroke="#00ABEB" stroke-width="0.15" stroke-miterlimit="10" x1="-117.639" y1="38.246" x2="109.201" y2="38.246"/>
				
					<line fill="none" stroke="#00ABEB" stroke-width="0.15" stroke-miterlimit="10" x1="-115.651" y1="36.258" x2="111.19" y2="36.258"/>
				
					<line fill="none" stroke="#00ABEB" stroke-width="0.15" stroke-miterlimit="10" x1="-113.663" y1="34.269" x2="113.178" y2="34.269"/>
				
					<line fill="none" stroke="#00ABEB" stroke-width="0.15" stroke-miterlimit="10" x1="-111.675" y1="32.282" x2="115.166" y2="32.282"/>
				
					<line fill="none" stroke="#00ABEB" stroke-width="0.15" stroke-miterlimit="10" x1="-109.687" y1="30.293" x2="117.154" y2="30.293"/>
				
					<line fill="none" stroke="#00ABEB" stroke-width="0.15" stroke-miterlimit="10" x1="-107.7" y1="28.306" x2="119.141" y2="28.306"/>
				
					<line fill="none" stroke="#00ABEB" stroke-width="0.15" stroke-miterlimit="10" x1="-105.711" y1="26.318" x2="121.129" y2="26.318"/>
				
					<line fill="none" stroke="#00ABEB" stroke-width="0.15" stroke-miterlimit="10" x1="-103.723" y1="24.33" x2="123.118" y2="24.33"/>
				
					<line fill="none" stroke="#00ABEB" stroke-width="0.15" stroke-miterlimit="10" x1="-101.736" y1="22.342" x2="125.105" y2="22.342"/>
				
					<line fill="none" stroke="#00ABEB" stroke-width="0.15" stroke-miterlimit="10" x1="-99.748" y1="20.354" x2="127.093" y2="20.354"/>
				
					<line fill="none" stroke="#00ABEB" stroke-width="0.15" stroke-miterlimit="10" x1="-97.759" y1="18.366" x2="129.081" y2="18.366"/>
				
					<line fill="none" stroke="#00ABEB" stroke-width="0.15" stroke-miterlimit="10" x1="-95.772" y1="16.378" x2="131.069" y2="16.378"/>
				
					<line fill="none" stroke="#00ABEB" stroke-width="0.15" stroke-miterlimit="10" x1="-93.784" y1="14.39" x2="133.057" y2="14.39"/>
				
					<line fill="none" stroke="#00ABEB" stroke-width="0.15" stroke-miterlimit="10" x1="-91.796" y1="12.402" x2="135.045" y2="12.402"/>
				
					<line fill="none" stroke="#00ABEB" stroke-width="0.15" stroke-miterlimit="10" x1="-89.808" y1="10.415" x2="137.033" y2="10.415"/>
				
					<line fill="none" stroke="#00ABEB" stroke-width="0.15" stroke-miterlimit="10" x1="-87.82" y1="8.426" x2="139.021" y2="8.426"/>
				
					<line fill="none" stroke="#00ABEB" stroke-width="0.15" stroke-miterlimit="10" x1="-85.832" y1="6.438" x2="141.009" y2="6.438"/>
				
					<line fill="none" stroke="#00ABEB" stroke-width="0.15" stroke-miterlimit="10" x1="-83.844" y1="4.451" x2="142.997" y2="4.451"/>
				
					<line fill="none" stroke="#00ABEB" stroke-width="0.15" stroke-miterlimit="10" x1="-81.856" y1="2.463" x2="144.985" y2="2.463"/>
				
					<line fill="none" stroke="#00ABEB" stroke-width="0.15" stroke-miterlimit="10" x1="-79.868" y1="0.475" x2="146.973" y2="0.475"/>
				
					<line fill="none" stroke="#00ABEB" stroke-width="0.15" stroke-miterlimit="10" x1="-77.88" y1="-1.513" x2="148.96" y2="-1.513"/>
				
					<line fill="none" stroke="#00ABEB" stroke-width="0.15" stroke-miterlimit="10" x1="-75.892" y1="-3.501" x2="150.949" y2="-3.501"/>
				
					<line fill="none" stroke="#00ABEB" stroke-width="0.15" stroke-miterlimit="10" x1="-73.905" y1="-5.489" x2="152.936" y2="-5.489"/>
				
					<line fill="none" stroke="#00ABEB" stroke-width="0.15" stroke-miterlimit="10" x1="-71.916" y1="-7.477" x2="154.925" y2="-7.477"/>
				
					<line fill="none" stroke="#00ABEB" stroke-width="0.15" stroke-miterlimit="10" x1="-69.928" y1="-9.465" x2="156.913" y2="-9.465"/>
				
					<line fill="none" stroke="#00ABEB" stroke-width="0.15" stroke-miterlimit="10" x1="-67.941" y1="-11.453" x2="158.9" y2="-11.453"/>
				
					<line fill="none" stroke="#00ABEB" stroke-width="0.15" stroke-miterlimit="10" x1="-65.953" y1="-13.441" x2="160.888" y2="-13.441"/>
				
					<line fill="none" stroke="#00ABEB" stroke-width="0.15" stroke-miterlimit="10" x1="-63.964" y1="-15.429" x2="162.877" y2="-15.429"/>
				
					<line fill="none" stroke="#00ABEB" stroke-width="0.15" stroke-miterlimit="10" x1="-61.977" y1="-17.416" x2="164.864" y2="-17.416"/>
				
					<line fill="none" stroke="#00ABEB" stroke-width="0.15" stroke-miterlimit="10" x1="-59.989" y1="-19.405" x2="166.852" y2="-19.405"/>
				
					<line fill="none" stroke="#00ABEB" stroke-width="0.15" stroke-miterlimit="10" x1="-58.001" y1="-21.393" x2="168.84" y2="-21.393"/>
				
					<line fill="none" stroke="#00ABEB" stroke-width="0.15" stroke-miterlimit="10" x1="-56.013" y1="-23.38" x2="170.828" y2="-23.38"/>
				
					<line fill="none" stroke="#00ABEB" stroke-width="0.15" stroke-miterlimit="10" x1="-54.025" y1="-25.368" x2="172.816" y2="-25.368"/>
				
					<line fill="none" stroke="#00ABEB" stroke-width="0.15" stroke-miterlimit="10" x1="-52.037" y1="-27.356" x2="174.804" y2="-27.356"/>
				
					<line fill="none" stroke="#00ABEB" stroke-width="0.15" stroke-miterlimit="10" x1="-50.049" y1="-29.344" x2="176.792" y2="-29.344"/>
				
					<line fill="none" stroke="#00ABEB" stroke-width="0.15" stroke-miterlimit="10" x1="-48.061" y1="-31.332" x2="178.78" y2="-31.332"/>
				
					<line fill="none" stroke="#00ABEB" stroke-width="0.15" stroke-miterlimit="10" x1="-46.073" y1="-33.32" x2="180.768" y2="-33.32"/>
				
					<line fill="none" stroke="#00ABEB" stroke-width="0.15" stroke-miterlimit="10" x1="-44.085" y1="-35.308" x2="182.756" y2="-35.308"/>
				
					<line fill="none" stroke="#00ABEB" stroke-width="0.15" stroke-miterlimit="10" x1="-42.097" y1="-37.296" x2="184.744" y2="-37.296"/>
				
					<line fill="none" stroke="#00ABEB" stroke-width="0.15" stroke-miterlimit="10" x1="-40.109" y1="-39.284" x2="186.731" y2="-39.284"/>
			</g>
			<g id="Vertical_1_mm_00000181073523592228201180000012361058669048395659_">
				<g>
					
						<line fill="none" stroke="#00ABEB" stroke-width="0.15" stroke-miterlimit="10" x1="-155.325" y1="76.007" x2="-36.005" y2="-43.313"/>
				</g>
				
					<line fill="none" stroke="#00ABEB" stroke-width="0.15" stroke-miterlimit="10" x1="-152.491" y1="76.007" x2="-33.171" y2="-43.313"/>
				
					<line fill="none" stroke="#00ABEB" stroke-width="0.15" stroke-miterlimit="10" x1="-149.656" y1="76.007" x2="-30.336" y2="-43.313"/>
				
					<line fill="none" stroke="#00ABEB" stroke-width="0.15" stroke-miterlimit="10" x1="-146.821" y1="76.007" x2="-27.501" y2="-43.313"/>
				
					<line fill="none" stroke="#00ABEB" stroke-width="0.15" stroke-miterlimit="10" x1="-143.987" y1="76.007" x2="-24.667" y2="-43.313"/>
				
					<line fill="none" stroke="#00ABEB" stroke-width="0.15" stroke-miterlimit="10" x1="-141.152" y1="76.007" x2="-21.832" y2="-43.313"/>
				
					<line fill="none" stroke="#00ABEB" stroke-width="0.15" stroke-miterlimit="10" x1="-138.317" y1="76.007" x2="-18.997" y2="-43.313"/>
				
					<line fill="none" stroke="#00ABEB" stroke-width="0.15" stroke-miterlimit="10" x1="-135.483" y1="76.007" x2="-16.163" y2="-43.313"/>
				
					<line fill="none" stroke="#00ABEB" stroke-width="0.15" stroke-miterlimit="10" x1="-132.648" y1="76.007" x2="-13.328" y2="-43.313"/>
				
					<line fill="none" stroke="#00ABEB" stroke-width="0.15" stroke-miterlimit="10" x1="-129.814" y1="76.007" x2="-10.494" y2="-43.313"/>
				
					<line fill="none" stroke="#00ABEB" stroke-width="0.15" stroke-miterlimit="10" x1="-126.979" y1="76.007" x2="-7.659" y2="-43.313"/>
				
					<line fill="none" stroke="#00ABEB" stroke-width="0.15" stroke-miterlimit="10" x1="-124.144" y1="76.007" x2="-4.824" y2="-43.313"/>
				
					<line fill="none" stroke="#00ABEB" stroke-width="0.15" stroke-miterlimit="10" x1="-121.31" y1="76.007" x2="-1.99" y2="-43.313"/>
				
					<line fill="none" stroke="#00ABEB" stroke-width="0.15" stroke-miterlimit="10" x1="-118.475" y1="76.007" x2="0.845" y2="-43.313"/>
				
					<line fill="none" stroke="#00ABEB" stroke-width="0.15" stroke-miterlimit="10" x1="-115.64" y1="76.007" x2="3.68" y2="-43.313"/>
				
					<line fill="none" stroke="#00ABEB" stroke-width="0.15" stroke-miterlimit="10" x1="-112.806" y1="76.007" x2="6.514" y2="-43.313"/>
				
					<line fill="none" stroke="#00ABEB" stroke-width="0.15" stroke-miterlimit="10" x1="-109.971" y1="76.007" x2="9.349" y2="-43.313"/>
				
					<line fill="none" stroke="#00ABEB" stroke-width="0.15" stroke-miterlimit="10" x1="-107.136" y1="76.007" x2="12.184" y2="-43.313"/>
				
					<line fill="none" stroke="#00ABEB" stroke-width="0.15" stroke-miterlimit="10" x1="-104.302" y1="76.007" x2="15.018" y2="-43.313"/>
				
					<line fill="none" stroke="#00ABEB" stroke-width="0.15" stroke-miterlimit="10" x1="-101.467" y1="76.007" x2="17.853" y2="-43.313"/>
				
					<line fill="none" stroke="#00ABEB" stroke-width="0.15" stroke-miterlimit="10" x1="-98.632" y1="76.007" x2="20.688" y2="-43.313"/>
				
					<line fill="none" stroke="#00ABEB" stroke-width="0.15" stroke-miterlimit="10" x1="-95.798" y1="76.007" x2="23.522" y2="-43.313"/>
				
					<line fill="none" stroke="#00ABEB" stroke-width="0.15" stroke-miterlimit="10" x1="-92.963" y1="76.007" x2="26.357" y2="-43.313"/>
				
					<line fill="none" stroke="#00ABEB" stroke-width="0.15" stroke-miterlimit="10" x1="-90.128" y1="76.007" x2="29.192" y2="-43.313"/>
				
					<line fill="none" stroke="#00ABEB" stroke-width="0.15" stroke-miterlimit="10" x1="-87.294" y1="76.007" x2="32.026" y2="-43.313"/>
				
					<line fill="none" stroke="#00ABEB" stroke-width="0.15" stroke-miterlimit="10" x1="-84.459" y1="76.007" x2="34.861" y2="-43.313"/>
				
					<line fill="none" stroke="#00ABEB" stroke-width="0.15" stroke-miterlimit="10" x1="-81.625" y1="76.007" x2="37.695" y2="-43.313"/>
				
					<line fill="none" stroke="#00ABEB" stroke-width="0.15" stroke-miterlimit="10" x1="-78.79" y1="76.007" x2="40.53" y2="-43.313"/>
				
					<line fill="none" stroke="#00ABEB" stroke-width="0.15" stroke-miterlimit="10" x1="-75.955" y1="76.007" x2="43.365" y2="-43.313"/>
				
					<line fill="none" stroke="#00ABEB" stroke-width="0.15" stroke-miterlimit="10" x1="-73.121" y1="76.007" x2="46.199" y2="-43.313"/>
				
					<line fill="none" stroke="#00ABEB" stroke-width="0.15" stroke-miterlimit="10" x1="-70.286" y1="76.007" x2="49.034" y2="-43.313"/>
				
					<line fill="none" stroke="#00ABEB" stroke-width="0.15" stroke-miterlimit="10" x1="-67.451" y1="76.007" x2="51.869" y2="-43.313"/>
				
					<line fill="none" stroke="#00ABEB" stroke-width="0.15" stroke-miterlimit="10" x1="-64.617" y1="76.007" x2="54.703" y2="-43.313"/>
				
					<line fill="none" stroke="#00ABEB" stroke-width="0.15" stroke-miterlimit="10" x1="-61.782" y1="76.007" x2="57.538" y2="-43.313"/>
				
					<line fill="none" stroke="#00ABEB" stroke-width="0.15" stroke-miterlimit="10" x1="-58.947" y1="76.007" x2="60.373" y2="-43.313"/>
				
					<line fill="none" stroke="#00ABEB" stroke-width="0.15" stroke-miterlimit="10" x1="-56.113" y1="76.007" x2="63.207" y2="-43.313"/>
				
					<line fill="none" stroke="#00ABEB" stroke-width="0.15" stroke-miterlimit="10" x1="-53.278" y1="76.007" x2="66.042" y2="-43.313"/>
				
					<line fill="none" stroke="#00ABEB" stroke-width="0.15" stroke-miterlimit="10" x1="-50.443" y1="76.007" x2="68.877" y2="-43.313"/>
				
					<line fill="none" stroke="#00ABEB" stroke-width="0.15" stroke-miterlimit="10" x1="-47.609" y1="76.007" x2="71.711" y2="-43.313"/>
				
					<line fill="none" stroke="#00ABEB" stroke-width="0.15" stroke-miterlimit="10" x1="-44.774" y1="76.007" x2="74.546" y2="-43.313"/>
				
					<line fill="none" stroke="#00ABEB" stroke-width="0.15" stroke-miterlimit="10" x1="-41.94" y1="76.007" x2="77.38" y2="-43.313"/>
				
					<line fill="none" stroke="#00ABEB" stroke-width="0.15" stroke-miterlimit="10" x1="-39.105" y1="76.007" x2="80.215" y2="-43.313"/>
				
					<line fill="none" stroke="#00ABEB" stroke-width="0.15" stroke-miterlimit="10" x1="-36.27" y1="76.007" x2="83.05" y2="-43.313"/>
				
					<line fill="none" stroke="#00ABEB" stroke-width="0.15" stroke-miterlimit="10" x1="-33.436" y1="76.007" x2="85.884" y2="-43.313"/>
				
					<line fill="none" stroke="#00ABEB" stroke-width="0.15" stroke-miterlimit="10" x1="-30.601" y1="76.007" x2="88.719" y2="-43.313"/>
				
					<line fill="none" stroke="#00ABEB" stroke-width="0.15" stroke-miterlimit="10" x1="-27.766" y1="76.007" x2="91.554" y2="-43.313"/>
				
					<line fill="none" stroke="#00ABEB" stroke-width="0.15" stroke-miterlimit="10" x1="-24.932" y1="76.007" x2="94.388" y2="-43.313"/>
				
					<line fill="none" stroke="#00ABEB" stroke-width="0.15" stroke-miterlimit="10" x1="-22.097" y1="76.007" x2="97.223" y2="-43.313"/>
				
					<line fill="none" stroke="#00ABEB" stroke-width="0.15" stroke-miterlimit="10" x1="-19.262" y1="76.007" x2="100.058" y2="-43.313"/>
				
					<line fill="none" stroke="#00ABEB" stroke-width="0.15" stroke-miterlimit="10" x1="-16.428" y1="76.007" x2="102.892" y2="-43.313"/>
				
					<line fill="none" stroke="#00ABEB" stroke-width="0.15" stroke-miterlimit="10" x1="-13.593" y1="76.007" x2="105.727" y2="-43.313"/>
				
					<line fill="none" stroke="#00ABEB" stroke-width="0.15" stroke-miterlimit="10" x1="-10.758" y1="76.007" x2="108.562" y2="-43.313"/>
				
					<line fill="none" stroke="#00ABEB" stroke-width="0.15" stroke-miterlimit="10" x1="-7.924" y1="76.007" x2="111.396" y2="-43.313"/>
				
					<line fill="none" stroke="#00ABEB" stroke-width="0.15" stroke-miterlimit="10" x1="-5.089" y1="76.007" x2="114.231" y2="-43.313"/>
				
					<line fill="none" stroke="#00ABEB" stroke-width="0.15" stroke-miterlimit="10" x1="-2.254" y1="76.007" x2="117.066" y2="-43.313"/>
				
					<line fill="none" stroke="#00ABEB" stroke-width="0.15" stroke-miterlimit="10" x1="0.58" y1="76.007" x2="119.9" y2="-43.313"/>
				
					<line fill="none" stroke="#00ABEB" stroke-width="0.15" stroke-miterlimit="10" x1="3.415" y1="76.007" x2="122.735" y2="-43.313"/>
				
					<line fill="none" stroke="#00ABEB" stroke-width="0.15" stroke-miterlimit="10" x1="6.249" y1="76.007" x2="125.569" y2="-43.313"/>
				
					<line fill="none" stroke="#00ABEB" stroke-width="0.15" stroke-miterlimit="10" x1="9.084" y1="76.007" x2="128.404" y2="-43.313"/>
				
					<line fill="none" stroke="#00ABEB" stroke-width="0.15" stroke-miterlimit="10" x1="11.919" y1="76.007" x2="131.239" y2="-43.313"/>
				
					<line fill="none" stroke="#00ABEB" stroke-width="0.15" stroke-miterlimit="10" x1="14.753" y1="76.007" x2="134.073" y2="-43.313"/>
				
					<line fill="none" stroke="#00ABEB" stroke-width="0.15" stroke-miterlimit="10" x1="17.588" y1="76.007" x2="136.908" y2="-43.313"/>
				
					<line fill="none" stroke="#00ABEB" stroke-width="0.15" stroke-miterlimit="10" x1="20.423" y1="76.007" x2="139.743" y2="-43.313"/>
				
					<line fill="none" stroke="#00ABEB" stroke-width="0.15" stroke-miterlimit="10" x1="23.257" y1="76.007" x2="142.577" y2="-43.313"/>
				
					<line fill="none" stroke="#00ABEB" stroke-width="0.15" stroke-miterlimit="10" x1="26.092" y1="76.007" x2="145.412" y2="-43.313"/>
				
					<line fill="none" stroke="#00ABEB" stroke-width="0.15" stroke-miterlimit="10" x1="28.927" y1="76.007" x2="148.247" y2="-43.313"/>
				
					<line fill="none" stroke="#00ABEB" stroke-width="0.15" stroke-miterlimit="10" x1="31.761" y1="76.007" x2="151.081" y2="-43.313"/>
				
					<line fill="none" stroke="#00ABEB" stroke-width="0.15" stroke-miterlimit="10" x1="34.596" y1="76.007" x2="153.916" y2="-43.313"/>
				
					<line fill="none" stroke="#00ABEB" stroke-width="0.15" stroke-miterlimit="10" x1="37.431" y1="76.007" x2="156.751" y2="-43.313"/>
				
					<line fill="none" stroke="#00ABEB" stroke-width="0.15" stroke-miterlimit="10" x1="40.265" y1="76.007" x2="159.585" y2="-43.313"/>
				
					<line fill="none" stroke="#00ABEB" stroke-width="0.15" stroke-miterlimit="10" x1="43.1" y1="76.007" x2="162.42" y2="-43.313"/>
				
					<line fill="none" stroke="#00ABEB" stroke-width="0.15" stroke-miterlimit="10" x1="45.935" y1="76.007" x2="165.255" y2="-43.313"/>
				
					<line fill="none" stroke="#00ABEB" stroke-width="0.15" stroke-miterlimit="10" x1="48.769" y1="76.007" x2="168.089" y2="-43.313"/>
				
					<line fill="none" stroke="#00ABEB" stroke-width="0.15" stroke-miterlimit="10" x1="51.604" y1="76.007" x2="170.924" y2="-43.313"/>
				
					<line fill="none" stroke="#00ABEB" stroke-width="0.15" stroke-miterlimit="10" x1="54.438" y1="76.007" x2="173.758" y2="-43.313"/>
				
					<line fill="none" stroke="#00ABEB" stroke-width="0.15" stroke-miterlimit="10" x1="57.273" y1="76.007" x2="176.593" y2="-43.313"/>
				
					<line fill="none" stroke="#00ABEB" stroke-width="0.15" stroke-miterlimit="10" x1="60.108" y1="76.007" x2="179.428" y2="-43.313"/>
				
					<line fill="none" stroke="#00ABEB" stroke-width="0.15" stroke-miterlimit="10" x1="62.942" y1="76.007" x2="182.262" y2="-43.313"/>
				
					<line fill="none" stroke="#00ABEB" stroke-width="0.15" stroke-miterlimit="10" x1="65.777" y1="76.007" x2="185.097" y2="-43.313"/>
				
					<line fill="none" stroke="#00ABEB" stroke-width="0.15" stroke-miterlimit="10" x1="68.612" y1="76.007" x2="187.932" y2="-43.313"/>
				
					<line fill="none" stroke="#00ABEB" stroke-width="0.15" stroke-miterlimit="10" x1="71.446" y1="76.007" x2="190.766" y2="-43.313"/>
			</g>
			<g id="Horizontal_5_mm_00000011735556503592991880000008134099091165005186_">
				
					<line fill="none" stroke="#00ABEB" stroke-width="0.3" stroke-miterlimit="10" x1="-155.685" y1="76.016" x2="71.431" y2="76.016"/>
				
					<line fill="none" stroke="#00ABEB" stroke-width="0.3" stroke-miterlimit="10" x1="-145.745" y1="66.077" x2="81.37" y2="66.077"/>
				
					<line fill="none" stroke="#00ABEB" stroke-width="0.3" stroke-miterlimit="10" x1="-135.806" y1="56.137" x2="91.31" y2="56.137"/>
				
					<line fill="none" stroke="#00ABEB" stroke-width="0.3" stroke-miterlimit="10" x1="-125.866" y1="46.197" x2="101.25" y2="46.197"/>
				
					<line fill="none" stroke="#00ABEB" stroke-width="0.3" stroke-miterlimit="10" x1="-115.926" y1="36.258" x2="111.19" y2="36.258"/>
				
					<line fill="none" stroke="#00ABEB" stroke-width="0.3" stroke-miterlimit="10" x1="-105.986" y1="26.318" x2="121.129" y2="26.318"/>
				
					<line fill="none" stroke="#00ABEB" stroke-width="0.3" stroke-miterlimit="10" x1="-96.047" y1="16.378" x2="131.069" y2="16.378"/>
				
					<line fill="none" stroke="#00ABEB" stroke-width="0.3" stroke-miterlimit="10" x1="-86.107" y1="6.438" x2="141.009" y2="6.438"/>
				
					<line fill="none" stroke="#00ABEB" stroke-width="0.3" stroke-miterlimit="10" x1="-76.167" y1="-3.501" x2="150.949" y2="-3.501"/>
				
					<line fill="none" stroke="#00ABEB" stroke-width="0.3" stroke-miterlimit="10" x1="-66.227" y1="-13.441" x2="160.888" y2="-13.441"/>
				
					<line fill="none" stroke="#00ABEB" stroke-width="0.3" stroke-miterlimit="10" x1="-56.288" y1="-23.38" x2="170.828" y2="-23.38"/>
			</g>
			<g id="Vertical_5_mm_00000064346364918789686960000003233481195482251947_">
				
					<line fill="none" stroke="#00ABEB" stroke-width="0.3" stroke-miterlimit="10" x1="-155.325" y1="76.007" x2="-35.812" y2="-43.506"/>
				
					<line fill="none" stroke="#00ABEB" stroke-width="0.3" stroke-miterlimit="10" x1="-141.152" y1="76.007" x2="-21.64" y2="-43.506"/>
				
					<line fill="none" stroke="#00ABEB" stroke-width="0.3" stroke-miterlimit="10" x1="-126.979" y1="76.007" x2="-7.466" y2="-43.506"/>
				
					<line fill="none" stroke="#00ABEB" stroke-width="0.3" stroke-miterlimit="10" x1="-112.806" y1="76.007" x2="6.707" y2="-43.506"/>
				
					<line fill="none" stroke="#00ABEB" stroke-width="0.3" stroke-miterlimit="10" x1="-98.632" y1="76.007" x2="20.88" y2="-43.506"/>
				
					<line fill="none" stroke="#00ABEB" stroke-width="0.3" stroke-miterlimit="10" x1="-84.459" y1="76.007" x2="35.054" y2="-43.506"/>
				
					<line fill="none" stroke="#00ABEB" stroke-width="0.3" stroke-miterlimit="10" x1="-70.286" y1="76.007" x2="49.227" y2="-43.506"/>
				
					<line fill="none" stroke="#00ABEB" stroke-width="0.3" stroke-miterlimit="10" x1="-56.113" y1="76.007" x2="63.4" y2="-43.506"/>
				
					<line fill="none" stroke="#00ABEB" stroke-width="0.3" stroke-miterlimit="10" x1="-41.94" y1="76.007" x2="77.572" y2="-43.506"/>
				
					<line fill="none" stroke="#00ABEB" stroke-width="0.3" stroke-miterlimit="10" x1="-27.766" y1="76.007" x2="91.747" y2="-43.506"/>
				
					<line fill="none" stroke="#00ABEB" stroke-width="0.3" stroke-miterlimit="10" x1="-13.593" y1="76.007" x2="105.92" y2="-43.506"/>
				
					<line fill="none" stroke="#00ABEB" stroke-width="0.3" stroke-miterlimit="10" x1="0.58" y1="76.007" x2="120.092" y2="-43.506"/>
				
					<line fill="none" stroke="#00ABEB" stroke-width="0.3" stroke-miterlimit="10" x1="14.753" y1="76.007" x2="134.266" y2="-43.506"/>
				
					<line fill="none" stroke="#00ABEB" stroke-width="0.3" stroke-miterlimit="10" x1="28.927" y1="76.007" x2="148.44" y2="-43.506"/>
				
					<line fill="none" stroke="#00ABEB" stroke-width="0.3" stroke-miterlimit="10" x1="43.1" y1="76.007" x2="162.612" y2="-43.506"/>
				
					<line fill="none" stroke="#00ABEB" stroke-width="0.3" stroke-miterlimit="10" x1="57.273" y1="76.007" x2="176.786" y2="-43.506"/>
				
					<line fill="none" stroke="#00ABEB" stroke-width="0.3" stroke-miterlimit="10" x1="71.446" y1="76.007" x2="190.959" y2="-43.506"/>
			</g>
			<g id="Horizontal_10_mm_00000163045836177147705350000008480455355013810362_">
				
					<line id="_x31_9_00000057116790517712807720000015084113881736219806_" fill="none" stroke="#00ABEB" stroke-width="0.7" stroke-miterlimit="10" x1="-155.685" y1="76.016" x2="71.431" y2="76.016"/>
				
					<line id="_x32_0_00000024685878617286333290000013167547815532084100_" fill="none" stroke="#00ABEB" stroke-width="0.7" stroke-miterlimit="10" x1="-135.806" y1="56.137" x2="91.31" y2="56.137"/>
				
					<line id="_x32_1_00000138564813020868535020000012777939180148238773_" fill="none" stroke="#00ABEB" stroke-width="0.7" stroke-miterlimit="10" x1="-115.926" y1="36.258" x2="111.19" y2="36.258"/>
				
					<line id="_x32_2_00000052807586205252870140000014502512662559454639_" fill="none" stroke="#00ABEB" stroke-width="0.7" stroke-miterlimit="10" x1="-96.047" y1="16.378" x2="131.069" y2="16.378"/>
				
					<line id="_x32_3_00000051376893246677475670000009295515732899575694_" fill="none" stroke="#00ABEB" stroke-width="0.7" stroke-miterlimit="10" x1="-76.167" y1="-3.501" x2="150.949" y2="-3.501"/>
				
					<line id="_x32_4_00000099657911357833521510000007853591198542098087_" fill="none" stroke="#00ABEB" stroke-width="0.7" stroke-miterlimit="10" x1="-56.288" y1="-23.38" x2="170.828" y2="-23.38"/>
				
					<line id="_x32_5_00000155127691660191171140000008292164438978366870_" fill="none" stroke="#00ABEB" stroke-width="0.7" stroke-miterlimit="10" x1="-36.408" y1="-43.26" x2="190.708" y2="-43.26"/>
			</g>
			<g id="Vertical_10_mm_00000134969164297783457920000010833503864539426239_">
				
					<line id="_x30__00000151539528360119995570000005083818057555393183_" fill="none" stroke="#00ABEB" stroke-width="0.7" stroke-miterlimit="10" x1="-155.325" y1="76.007" x2="-35.812" y2="-43.506"/>
				
					<line id="_x31__00000021823889366233599640000011971139016478256513_" fill="none" stroke="#00ABEB" stroke-width="0.7" stroke-miterlimit="10" x1="-126.979" y1="76.007" x2="-7.466" y2="-43.506"/>
				
					<line id="_x32__00000071550223824624162640000006130814236846722696_" fill="none" stroke="#00ABEB" stroke-width="0.7" stroke-miterlimit="10" x1="-98.632" y1="76.007" x2="20.88" y2="-43.506"/>
				
					<line id="_x33__00000042015976804734918030000005045165563697445304_" fill="none" stroke="#00ABEB" stroke-width="0.7" stroke-miterlimit="10" x1="-70.286" y1="76.007" x2="49.227" y2="-43.506"/>
				
					<line id="_x34__00000081637789328126233800000002486991317463304126_" fill="none" stroke="#00ABEB" stroke-width="0.7" stroke-miterlimit="10" x1="-41.94" y1="76.007" x2="77.572" y2="-43.506"/>
				
					<line id="_x35__00000051353690731882489090000004794744233340785543_" fill="none" stroke="#00ABEB" stroke-width="0.7" stroke-miterlimit="10" x1="-13.593" y1="76.007" x2="105.92" y2="-43.506"/>
				
					<line id="_x36__00000011745311307505536660000010485558803267122343_" fill="none" stroke="#00ABEB" stroke-width="0.7" stroke-miterlimit="10" x1="14.753" y1="76.007" x2="134.266" y2="-43.506"/>
				
					<line id="_x37__00000045602144989735358580000003937589459941247142_" fill="none" stroke="#00ABEB" stroke-width="0.7" stroke-miterlimit="10" x1="43.1" y1="76.007" x2="162.612" y2="-43.506"/>
				
					<line id="_x38__00000047029857857898873560000014194396358708286345_" fill="none" stroke="#00ABEB" stroke-width="0.7" stroke-miterlimit="10" x1="71.446" y1="76.007" x2="190.959" y2="-43.506"/>
			</g>
		</g>
	</g>
</g>
<g id="Axis" display="none">
	<g id="lines" display="inline">
		<g>
			<g>
				
					<line fill="none" stroke="#000000" stroke-width="0.2" stroke-miterlimit="10" x1="17.693" y1="16.369" x2="17.693" y2="-1.729"/>
				<g>
					<polygon points="18.433,-1.168 17.693,-1.482 16.952,-1.168 17.693,-2.923 					"/>
				</g>
			</g>
		</g>
		<g>
			<g>
				
					<line fill="none" stroke="#000000" stroke-width="0.2" stroke-miterlimit="10" x1="17.693" y1="16.368" x2="46.051" y2="16.368"/>
				<g>
					<polygon points="45.49,17.109 45.804,16.368 45.49,15.628 47.245,16.368 					"/>
				</g>
			</g>
		</g>
		<g>
			<g>
				<line fill="none" stroke="#000000" stroke-width="0.2" stroke-miterlimit="10" x1="17.693" y1="16.368" x2="3.64" y2="30.421"/>
				<g>
					<polygon points="3.514,29.5 3.815,30.246 4.561,30.548 2.796,31.265 					"/>
				</g>
			</g>
		</g>
	</g>
	<g id="names" display="inline">
		<g>
			<path d="M45.534,19.544c0.339-0.564,0.487-0.852,0.487-1.027c0-0.056-0.028-0.08-0.104-0.128
				c-0.08-0.052-0.104-0.092-0.104-0.156c0-0.088,0.068-0.148,0.16-0.148c0.12,0,0.208,0.1,0.208,0.22
				c0,0.228-0.192,0.667-0.524,1.219c-0.416,0.688-0.843,1.147-1.071,1.147c-0.12,0-0.204-0.068-0.204-0.172
				c0-0.088,0.068-0.16,0.156-0.16c0.14,0,0.14,0.112,0.244,0.112c0.052,0,0.1-0.032,0.192-0.132
				c0.072-0.076,0.252-0.312,0.284-0.364c0.024-0.048,0.04-0.096,0.04-0.14c0-0.16-0.22-1.055-0.328-1.327
				c-0.076-0.196-0.148-0.256-0.308-0.256c-0.044,0-0.08,0.004-0.124,0.016v-0.068c0.044-0.008,0.088-0.016,0.128-0.024
				c0.08-0.016,0.212-0.04,0.428-0.072h0.016c0.06,0,0.271,0.664,0.34,1.02L45.534,19.544z"/>
		</g>
		<g>
			<path d="M14.964-1.781c0.232,0.052,0.32,0.096,0.48,0.332c0.104,0.152,0.18,0.2,0.28,0.2c0.064,0,0.108-0.024,0.108-0.06
				c0-0.016-0.008-0.036-0.02-0.06c-0.024-0.048-0.032-0.08-0.032-0.112c0.004-0.068,0.068-0.136,0.132-0.136
				c0.083,0,0.14,0.06,0.14,0.148c0,0.16-0.148,0.304-0.372,0.304c-0.116,0-0.252-0.052-0.452-0.176
				c-0.188-0.116-0.315-0.168-0.419-0.168c-0.064,0-0.116,0.02-0.18,0.072l-0.036-0.036l1.239-1.487h-0.544
				c-0.208,0-0.284,0.036-0.364,0.24L14.86-2.736L14.988-3.2h1.131v0.044L14.964-1.781z"/>
		</g>
		<g>
			<path d="M6.686,30.137c0.28-0.428,0.428-0.572,0.604-0.572c0.096,0,0.164,0.06,0.164,0.148c0,0.084-0.056,0.144-0.136,0.144
				c-0.076,0-0.112-0.068-0.208-0.068c-0.072,0-0.216,0.176-0.392,0.483c0,0.028,0.008,0.084,0.032,0.18l0.128,0.536
				c0.028,0.112,0.064,0.164,0.12,0.164c0.052,0,0.096-0.04,0.188-0.16c0.036-0.048,0.052-0.072,0.084-0.112l0.06,0.036
				c-0.232,0.36-0.336,0.456-0.488,0.456c-0.128,0-0.188-0.072-0.236-0.272L6.49,30.625L6.138,31.1
				c-0.176,0.236-0.256,0.272-0.38,0.272s-0.2-0.064-0.2-0.168c0-0.08,0.056-0.144,0.136-0.144c0.036,0,0.076,0.016,0.128,0.044
				c0.04,0.024,0.08,0.036,0.104,0.036c0.044,0,0.12-0.076,0.204-0.196l0.328-0.464l-0.112-0.496
				c-0.056-0.24-0.084-0.272-0.184-0.272c-0.032,0-0.08,0.008-0.156,0.028l-0.072,0.02l-0.012-0.063l0.044-0.016
				c0.244-0.088,0.376-0.116,0.468-0.116c0.1,0,0.148,0.072,0.204,0.344L6.686,30.137z"/>
		</g>
	</g>
</g>
<g id="Layer_9">
	<g id="Layer_5">
	</g>
	<g>
		<path fill="#FF0000" d="M47.578,19.775l-0.108-0.018c-0.072-0.642-0.366-0.978-0.894-0.978c-0.443,0-0.863,0.228-1.193,0.582
			c-0.432,0.462-0.647,1.146-0.647,1.805c0,0.839,0.384,1.229,1.049,1.229c0.492,0,0.852-0.174,1.374-0.713l0.108,0.09
			c-0.54,0.636-1.02,0.894-1.637,0.894c-0.917,0-1.565-0.576-1.565-1.565c0-0.846,0.461-1.631,1.121-2.099
			c0.384-0.276,0.84-0.438,1.313-0.438c0.198,0,0.45,0.012,0.702,0.102c0.12,0.042,0.192,0.042,0.246,0.042
			c0.12,0,0.18-0.036,0.228-0.132h0.126L47.578,19.775z"/>
	</g>
	<path opacity="0.05" fill="#0000FF" d="M44.541,15.536c-3.914,8.404-7.723,7.272-16.857,6.076c-5.022-0.658-7.995,1.862-9.41,2.048
		C7.009,25.145,3.398,20.457,3.398,15.536S13.962,8.242,23.97,6.625C35.293,4.795,46.619,11.075,44.541,15.536z"/>
	<g>
		<g>
			<path fill="none" stroke="#FF0000" stroke-width="0.3" stroke-miterlimit="10" d="M44.402,15.831
				c-3.866,8.081-7.692,6.962-16.718,5.781c-5.022-0.658-7.995,1.862-9.41,2.048C7.009,25.145,3.398,20.457,3.398,15.536
				S13.962,8.242,23.97,6.625c11.323-1.83,22.649,4.45,20.571,8.911"/>
			<g>
				<polygon fill="#FF0000" points="42.834,16.112 42.93,16.397 44.331,15.923 44.701,17.355 44.992,17.28 44.541,15.536 				"/>
			</g>
		</g>
	</g>
</g>
<g id="Layer_7" display="none">
	
		<line display="inline" fill="none" stroke="#0000FF" stroke-width="0.1" stroke-miterlimit="10" x1="3.386" y1="17.77" x2="38.582" y2="16.378"/>
	
		<line display="inline" fill="none" stroke="#0000FF" stroke-width="0.1" stroke-miterlimit="10" x1="4.736" y1="20.972" x2="39.932" y2="19.581"/>
</g>
<g id="Layer_6">
	
		<polygon fill="none" stroke="#0000FF" stroke-width="0.1" stroke-linecap="round" stroke-linejoin="round" stroke-miterlimit="10" points="
		22.45,17.889 18.55,17.889 19.377,23.291 22.402,22.088 	"/>
	<g>
		<g>
			<polyline fill="none" stroke="#00A300" stroke-width="0.3" stroke-linecap="round" stroke-linejoin="round" points="
				25.732,17.157 22.449,17.889 22.402,22.088 25.685,21.356 25.728,17.482 			"/>
			<g>
				<polygon fill="#00A300" points="26.944,18.49 26.722,18.692 25.727,17.597 24.708,18.67 24.49,18.463 25.732,17.157 				"/>
			</g>
		</g>
	</g>
	
		<polygon fill="none" stroke="#0000FF" stroke-width="0.1" stroke-linecap="round" stroke-linejoin="round" stroke-miterlimit="10" points="
		29.059,16.705 25.78,17.147 25.732,21.346 29.004,21.618 	"/>
	
		<polygon fill="none" stroke="#0000FF" stroke-width="0.1" stroke-linecap="round" stroke-linejoin="round" stroke-miterlimit="10" points="
		32.378,16.987 29.106,16.703 29.004,21.618 32.321,22.088 	"/>
	
		<polygon fill="none" stroke="#0000FF" stroke-width="0.1" stroke-linecap="round" stroke-linejoin="round" stroke-miterlimit="10" points="
		12.473,19.162 9.509,18.654 9.098,23.069 12.473,23.864 	"/>
	
		<polygon fill="none" stroke="#0000FF" stroke-width="0.1" stroke-linecap="round" stroke-linejoin="round" stroke-miterlimit="10" points="
		15.548,19.162 12.473,19.162 12.473,23.864 16.05,23.881 	"/>
	
		<polygon fill="none" stroke="#0000FF" stroke-width="0.1" stroke-linecap="round" stroke-linejoin="round" stroke-miterlimit="10" points="
		9.509,18.654 6.825,17.68 5.99,21.522 9.098,23.069 	"/>
	
		<polygon fill="none" stroke="#0000FF" stroke-width="0.1" stroke-linecap="round" stroke-linejoin="round" stroke-miterlimit="10" points="
		28.47,6.299 25.132,6.465 25.76,9.303 29.206,8.914 	"/>
	
		<polygon fill="none" stroke="#0000FF" stroke-width="0.1" stroke-linecap="round" stroke-linejoin="round" stroke-miterlimit="10" points="
		32.321,6.554 28.47,6.299 29.206,8.914 32.473,8.417 	"/>
	
		<polygon fill="none" stroke="#0000FF" stroke-width="0.1" stroke-linecap="round" stroke-linejoin="round" stroke-miterlimit="10" points="
		35.639,7.357 32.321,6.554 32.473,8.417 35.744,9.303 	"/>
	
		<polygon fill="none" stroke="#0000FF" stroke-width="0.1" stroke-linecap="round" stroke-linejoin="round" stroke-miterlimit="10" points="
		18.55,17.889 15.548,19.162 16.05,23.881 19.377,23.291 	"/>
	
		<polygon fill="none" stroke="#0000FF" stroke-width="0.1" stroke-linecap="round" stroke-linejoin="round" stroke-miterlimit="10" points="
		6.825,17.68 4.683,15.816 4.042,18.871 5.99,21.522 	"/>
	
		<polygon fill="none" stroke="#0000FF" stroke-width="0.1" stroke-linecap="round" stroke-linejoin="round" stroke-miterlimit="10" points="
		4.683,15.816 4.042,13.486 3.319,15.816 4.042,18.871 	"/>
	
		<polygon fill="none" stroke="#0000FF" stroke-width="0.1" stroke-linecap="round" stroke-linejoin="round" stroke-miterlimit="10" points="
		9.732,15.582 7.258,14.39 6.825,17.68 9.509,18.654 	"/>
	
		<polygon fill="none" stroke="#0000FF" stroke-width="0.1" stroke-linecap="round" stroke-linejoin="round" stroke-miterlimit="10" points="
		7.258,14.39 5.527,12.709 4.683,15.816 6.768,17.68 	"/>
	
		<polygon fill="none" stroke="#0000FF" stroke-width="0.1" stroke-linecap="round" stroke-linejoin="round" stroke-miterlimit="10" points="
		5.527,12.709 5.434,12.114 4.042,13.486 4.683,15.816 	"/>
	
		<polygon fill="none" stroke="#0000FF" stroke-width="0.1" stroke-linecap="round" stroke-linejoin="round" stroke-miterlimit="10" points="
		12.713,15.299 9.732,15.582 9.509,18.654 12.473,19.162 	"/>
	
		<polygon fill="none" stroke="#0000FF" stroke-width="0.1" stroke-linecap="round" stroke-linejoin="round" stroke-miterlimit="10" points="
		15.851,14.758 12.713,15.299 12.473,19.162 15.548,19.162 	"/>
	
		<polygon fill="none" stroke="#0000FF" stroke-width="0.1" stroke-linecap="round" stroke-linejoin="round" stroke-miterlimit="10" points="
		18.596,13.74 15.851,14.758 15.548,19.162 18.55,17.889 	"/>
	
		<polygon fill="none" stroke="#0000FF" stroke-width="0.1" stroke-linecap="round" stroke-linejoin="round" stroke-miterlimit="10" points="
		22.402,12.528 18.596,13.74 18.55,17.889 22.45,17.889 	"/>
	
		<polygon fill="none" stroke="#0000FF" stroke-width="0.1" stroke-linecap="round" stroke-linejoin="round" stroke-miterlimit="10" points="
		25.732,12.709 22.402,12.528 22.45,17.889 25.732,17.157 	"/>
	
		<polygon fill="none" stroke="#0000FF" stroke-width="0.1" stroke-linecap="round" stroke-linejoin="round" stroke-miterlimit="10" points="
		29.111,12.138 25.732,12.709 25.732,17.157 29.059,16.705 	"/>
	
		<polygon fill="none" stroke="#0000FF" stroke-width="0.1" stroke-linecap="round" stroke-linejoin="round" stroke-miterlimit="10" points="
		32.481,12.31 29.111,12.138 29.111,16.761 32.378,16.987 	"/>
	
		<polygon fill="none" stroke="#0000FF" stroke-width="0.1" stroke-linecap="round" stroke-linejoin="round" stroke-miterlimit="10" points="
		35.693,17.615 32.378,16.987 32.321,22.088 35.639,22.437 	"/>
	
		<polygon fill="none" stroke="#0000FF" stroke-width="0.1" stroke-linecap="round" stroke-linejoin="round" stroke-miterlimit="10" points="
		39.081,16.974 35.693,17.615 35.639,22.437 39.012,21.882 	"/>
	
		<polygon fill="none" stroke="#0000FF" stroke-width="0.1" stroke-linecap="round" stroke-linejoin="round" stroke-miterlimit="10" points="
		41.803,15.991 39.115,16.966 39.012,21.882 42.036,19.659 	"/>
	
		<polygon fill="none" stroke="#0000FF" stroke-width="0.1" stroke-linecap="round" stroke-linejoin="round" stroke-miterlimit="10" points="
		43.946,14.238 41.803,15.991 42.036,19.563 44.119,16.703 	"/>
	
		<polygon fill="none" stroke="#0000FF" stroke-width="0.1" stroke-linecap="round" stroke-linejoin="round" stroke-miterlimit="10" points="
		44.789,13.743 43.946,14.238 44.119,16.785 44.942,14.433 	"/>
	
		<polygon fill="none" stroke="#0000FF" stroke-width="0.1" stroke-linecap="round" stroke-linejoin="round" stroke-miterlimit="10" points="
		35.744,13.048 32.481,12.31 32.378,16.987 35.693,17.615 	"/>
	
		<polygon fill="none" stroke="#0000FF" stroke-width="0.1" stroke-linecap="round" stroke-linejoin="round" stroke-miterlimit="10" points="
		39.119,13.394 35.744,13.048 35.693,17.615 39.115,16.966 	"/>
	
		<polygon fill="none" stroke="#0000FF" stroke-width="0.1" stroke-linecap="round" stroke-linejoin="round" stroke-miterlimit="10" points="
		41.673,13.048 39.119,13.394 39.115,16.966 41.803,15.991 	"/>
	
		<polygon fill="none" stroke="#0000FF" stroke-width="0.1" stroke-linecap="round" stroke-linejoin="round" stroke-miterlimit="10" points="
		43.669,11.85 41.673,13.048 41.803,15.991 43.946,14.238 	"/>
	
		<polygon fill="none" stroke="#0000FF" stroke-width="0.1" stroke-linecap="round" stroke-linejoin="round" stroke-miterlimit="10" points="
		44.025,12.31 43.669,11.85 43.946,14.238 44.789,13.743 	"/>
	
		<polygon fill="none" stroke="#0000FF" stroke-width="0.1" stroke-linecap="round" stroke-linejoin="round" stroke-miterlimit="10" points="
		7.947,10.65 5.434,12.114 5.571,12.769 7.54,11.727 	"/>
	
		<polygon fill="none" stroke="#0000FF" stroke-width="0.1" stroke-linecap="round" stroke-linejoin="round" stroke-miterlimit="10" points="
		8.535,12.528 7.54,11.727 5.571,12.769 7.258,14.39 	"/>
	
		<polygon fill="none" stroke="#0000FF" stroke-width="0.1" stroke-linecap="round" stroke-linejoin="round" stroke-miterlimit="10" points="
		10.462,13.394 8.535,12.528 7.258,14.39 9.743,15.63 	"/>
	
		<polygon fill="none" stroke="#0000FF" stroke-width="0.1" stroke-linecap="round" stroke-linejoin="round" stroke-miterlimit="10" points="
		12.963,12.528 10.462,13.394 9.732,15.582 12.713,15.299 	"/>
	
		<polygon fill="none" stroke="#0000FF" stroke-width="0.1" stroke-linecap="round" stroke-linejoin="round" stroke-miterlimit="10" points="
		16.05,11.251 12.963,12.528 12.713,15.299 15.85,14.749 	"/>
	
		<polygon fill="none" stroke="#0000FF" stroke-width="0.1" stroke-linecap="round" stroke-linejoin="round" stroke-miterlimit="10" points="
		18.687,11.251 16.05,11.251 15.851,14.758 18.596,13.74 	"/>
	
		<polygon fill="none" stroke="#0000FF" stroke-width="0.1" stroke-linecap="round" stroke-linejoin="round" stroke-miterlimit="10" points="
		22.45,10.061 18.687,11.251 18.596,13.74 22.402,12.528 	"/>
	
		<polygon fill="none" stroke="#0000FF" stroke-width="0.1" stroke-linecap="round" stroke-linejoin="round" stroke-miterlimit="10" points="
		25.76,9.303 22.45,10.061 22.402,12.528 25.732,12.709 	"/>
	
		<polygon fill="none" stroke="#0000FF" stroke-width="0.1" stroke-linecap="round" stroke-linejoin="round" stroke-miterlimit="10" points="
		29.206,8.914 25.76,9.303 25.732,12.709 29.111,12.138 	"/>
	
		<polygon fill="none" stroke="#0000FF" stroke-width="0.1" stroke-linecap="round" stroke-linejoin="round" stroke-miterlimit="10" points="
		32.473,8.417 29.206,8.914 29.111,12.138 32.481,12.31 	"/>
	
		<polygon fill="none" stroke="#0000FF" stroke-width="0.1" stroke-linecap="round" stroke-linejoin="round" stroke-miterlimit="10" points="
		35.744,9.303 32.473,8.417 32.481,12.31 35.744,13.048 	"/>
	
		<polygon fill="none" stroke="#0000FF" stroke-width="0.1" stroke-linecap="round" stroke-linejoin="round" stroke-miterlimit="10" points="
		38.86,10.967 35.744,9.303 35.744,13.048 39.119,13.394 	"/>
	
		<polygon fill="none" stroke="#0000FF" stroke-width="0.1" stroke-linecap="round" stroke-linejoin="round" stroke-miterlimit="10" points="
		40.524,10.732 38.86,10.967 39.119,13.394 41.673,13.048 	"/>
	
		<polygon fill="none" stroke="#0000FF" stroke-width="0.1" stroke-linecap="round" stroke-linejoin="round" stroke-miterlimit="10" points="
		42.053,10.364 40.524,10.732 41.673,13.048 43.669,11.85 	"/>
	
		<polygon fill="none" stroke="#0000FF" stroke-width="0.1" stroke-linecap="round" stroke-linejoin="round" stroke-miterlimit="10" points="
		10.159,9.812 7.947,10.65 7.54,11.727 8.535,12.528 	"/>
	
		<polygon fill="none" stroke="#0000FF" stroke-width="0.1" stroke-linecap="round" stroke-linejoin="round" stroke-miterlimit="10" points="
		11.717,9.303 10.159,9.812 8.535,12.528 10.462,13.394 	"/>
	
		<polygon fill="none" stroke="#0000FF" stroke-width="0.1" stroke-linecap="round" stroke-linejoin="round" stroke-miterlimit="10" points="
		13.018,8.914 11.717,9.303 10.462,13.394 12.963,12.528 	"/>
	
		<polygon fill="none" stroke="#0000FF" stroke-width="0.1" stroke-linecap="round" stroke-linejoin="round" stroke-miterlimit="10" points="
		15.443,8.255 13.018,8.914 12.963,12.528 16.05,11.251 	"/>
	
		<polygon fill="none" stroke="#0000FF" stroke-width="0.1" stroke-linecap="round" stroke-linejoin="round" stroke-miterlimit="10" points="
		19.006,7.498 15.443,8.255 16.05,11.251 18.687,11.251 	"/>
	
		<polygon fill="none" stroke="#0000FF" stroke-width="0.1" stroke-linecap="round" stroke-linejoin="round" stroke-miterlimit="10" points="
		22.104,7.002 19.006,7.498 18.687,11.251 22.45,10.061 	"/>
	
		<polygon fill="none" stroke="#0000FF" stroke-width="0.1" stroke-linecap="round" stroke-linejoin="round" stroke-miterlimit="10" points="
		25.132,6.465 22.104,7.002 22.45,10.061 25.76,9.303 	"/>
	
		<polygon fill="none" stroke="#0000FF" stroke-width="0.1" stroke-linecap="round" stroke-linejoin="round" stroke-miterlimit="10" points="
		38.011,8.166 35.639,7.357 35.744,9.303 38.86,10.967 	"/>
	
		<polygon fill="none" stroke="#0000FF" stroke-width="0.1" stroke-linecap="round" stroke-linejoin="round" stroke-miterlimit="10" points="
		39.802,8.979 38.011,8.166 38.86,10.967 40.524,10.732 	"/>
	
		<polygon fill="none" stroke="#0000FF" stroke-width="0.1" stroke-linecap="round" stroke-linejoin="round" stroke-miterlimit="10" points="
		40.524,9.303 39.802,8.979 40.524,10.732 41.937,10.392 	"/>
</g>
<g id="n" display="none">
	<g display="inline">
		<g>
			<line fill="none" stroke="#00A300" stroke-width="0.3" stroke-miterlimit="10" x1="28.285" y1="22.489" x2="28.3" y2="11.901"/>
			<g>
				<polygon fill="#00A300" points="29.525,12.897 29.305,13.101 28.3,12.016 27.291,13.098 27.071,12.893 28.3,11.576 				"/>
			</g>
		</g>
	</g>
	
		<polyline display="inline" fill="none" stroke="#00A300" stroke-width="0.1" stroke-linecap="round" stroke-linejoin="round" stroke-miterlimit="10" points="
		28.286,20.808 29.678,20.822 29.678,20.822 29.639,22.369 	"/>
	<g display="inline">
		<path fill="#00B200" d="M32.914,11.548c-0.408,0.558-0.558,0.678-0.839,0.678c-0.15,0-0.282-0.096-0.282-0.324
			c0-0.06,0.012-0.138,0.096-0.45l0.264-0.971c0.048-0.186,0.084-0.402,0.084-0.474c0-0.108-0.054-0.174-0.144-0.174
			c-0.24,0-0.51,0.294-0.888,0.852c-0.27,0.402-0.318,0.54-0.6,1.487h-0.45l0.576-2.099c0.006-0.03,0.012-0.066,0.012-0.102
			c0-0.12-0.083-0.156-0.39-0.162V9.713c0.486-0.096,0.654-0.12,0.972-0.186l0.024,0.012l-0.402,1.307
			c0.6-0.959,1.001-1.319,1.385-1.319c0.258,0,0.39,0.15,0.39,0.366c0,0.108-0.024,0.234-0.06,0.36l-0.335,1.217
			c-0.06,0.216-0.084,0.318-0.084,0.366c0,0.054,0.024,0.108,0.096,0.108c0.084,0,0.192-0.096,0.366-0.318
			c0.042-0.048,0.084-0.102,0.126-0.156L32.914,11.548z"/>
		<path fill="#00B200" d="M33.587,10.252V9.856h3.022v0.396H33.587z M33.587,11.452v-0.396h3.022v0.396H33.587z"/>
		<path fill="#00B200" d="M39.886,9.701c-0.282,0.018-0.468,0.138-1.35,0.923l0.222,0.528c0.234,0.552,0.372,0.773,0.486,0.773
			c0.09,0,0.162-0.066,0.27-0.251c0.03-0.048,0.06-0.102,0.09-0.156l0.09,0.066c-0.276,0.504-0.426,0.654-0.666,0.654
			c-0.174,0-0.293-0.114-0.485-0.492c-0.108-0.21-0.264-0.582-0.36-0.846l-0.24,0.192l-0.288,1.08h-0.45l0.846-3.166
			c0.078-0.288,0.096-0.426,0.108-0.528c-0.012-0.108-0.102-0.144-0.306-0.144h-0.108V8.238c0.354-0.042,0.588-0.084,0.941-0.162
			l0.036,0.036l-0.72,2.734l0.258-0.198c0.564-0.432,0.858-0.72,0.858-0.84c0-0.066-0.072-0.108-0.222-0.108h-0.084V9.605h1.074
			V9.701z"/>
	</g>
	<g display="inline">
		<path fill="#00B200" d="M32.278,8.898L31.42,7.165h-0.006l-0.852,1.733h-0.408l1.085-2.188h0.36l1.085,2.188H32.278z"/>
		<path fill="#00B200" d="M39.31,8.898l-0.858-1.733h-0.006l-0.852,1.733h-0.408l1.085-2.188h0.36l1.085,2.188H39.31z"/>
	</g>
</g>
</svg>
