<?xml version="1.0" encoding="utf-8"?>
<!-- Generator: Adobe Illustrator 25.4.1, SVG Export Plug-In . SVG Version: 6.00 Build 0)  -->
<svg version="1.1" xmlns="http://www.w3.org/2000/svg" xmlns:xlink="http://www.w3.org/1999/xlink" x="0px" y="0px"
	 viewBox="0 0 168.665 86.767" enable-background="new 0 0 168.665 86.767" xml:space="preserve">
<g id="Layer_2">
	<g id="Clipped_grid" opacity="0.5">
		<defs>
			<rect id="SVGID_1_" x="-7.067" y="-3.27" opacity="0.5" width="204.368" height="91.4"/>
		</defs>
		<clipPath id="SVGID_00000042706468330827470640000013632457505813904562_">
			<use xlink:href="#SVGID_1_"  overflow="visible"/>
		</clipPath>
		<g id="Grid" opacity="0.25" clip-path="url(#SVGID_00000042706468330827470640000013632457505813904562_)">
			<g id="Horizontal_1_mm">
				
					<line fill="none" stroke="#00ABEB" stroke-width="0.15" stroke-miterlimit="10" x1="-152.583" y1="-57.278" x2="282.945" y2="-57.278"/>
				
					<line fill="none" stroke="#00ABEB" stroke-width="0.15" stroke-miterlimit="10" x1="-152.583" y1="-61.433" x2="282.945" y2="-61.433"/>
				
					<line fill="none" stroke="#00ABEB" stroke-width="0.15" stroke-miterlimit="10" x1="-152.583" y1="187.838" x2="282.945" y2="187.838"/>
				
					<line fill="none" stroke="#00ABEB" stroke-width="0.15" stroke-miterlimit="10" x1="-152.583" y1="183.683" x2="282.945" y2="183.683"/>
				
					<line fill="none" stroke="#00ABEB" stroke-width="0.15" stroke-miterlimit="10" x1="-152.583" y1="179.53" x2="282.945" y2="179.53"/>
				
					<line fill="none" stroke="#00ABEB" stroke-width="0.15" stroke-miterlimit="10" x1="-152.583" y1="175.375" x2="282.945" y2="175.375"/>
				
					<line fill="none" stroke="#00ABEB" stroke-width="0.15" stroke-miterlimit="10" x1="-152.583" y1="171.22" x2="282.945" y2="171.22"/>
				
					<line fill="none" stroke="#00ABEB" stroke-width="0.15" stroke-miterlimit="10" x1="-152.583" y1="167.066" x2="282.945" y2="167.066"/>
				
					<line fill="none" stroke="#00ABEB" stroke-width="0.15" stroke-miterlimit="10" x1="-152.583" y1="162.911" x2="282.945" y2="162.911"/>
				
					<line fill="none" stroke="#00ABEB" stroke-width="0.15" stroke-miterlimit="10" x1="-152.583" y1="158.758" x2="282.945" y2="158.758"/>
				
					<line fill="none" stroke="#00ABEB" stroke-width="0.15" stroke-miterlimit="10" x1="-152.583" y1="154.602" x2="282.945" y2="154.602"/>
				
					<line fill="none" stroke="#00ABEB" stroke-width="0.15" stroke-miterlimit="10" x1="-152.583" y1="150.447" x2="282.945" y2="150.447"/>
				
					<line fill="none" stroke="#00ABEB" stroke-width="0.15" stroke-miterlimit="10" x1="-152.583" y1="146.294" x2="282.945" y2="146.294"/>
				
					<line fill="none" stroke="#00ABEB" stroke-width="0.15" stroke-miterlimit="10" x1="-152.583" y1="142.139" x2="282.945" y2="142.139"/>
				
					<line fill="none" stroke="#00ABEB" stroke-width="0.15" stroke-miterlimit="10" x1="-152.583" y1="137.984" x2="282.945" y2="137.984"/>
				
					<line fill="none" stroke="#00ABEB" stroke-width="0.15" stroke-miterlimit="10" x1="-152.583" y1="133.83" x2="282.945" y2="133.83"/>
				
					<line fill="none" stroke="#00ABEB" stroke-width="0.15" stroke-miterlimit="10" x1="-152.583" y1="129.675" x2="282.945" y2="129.675"/>
				
					<line fill="none" stroke="#00ABEB" stroke-width="0.15" stroke-miterlimit="10" x1="-152.583" y1="125.52" x2="282.945" y2="125.52"/>
				
					<line fill="none" stroke="#00ABEB" stroke-width="0.15" stroke-miterlimit="10" x1="-152.583" y1="121.367" x2="282.945" y2="121.367"/>
				
					<line fill="none" stroke="#00ABEB" stroke-width="0.15" stroke-miterlimit="10" x1="-152.583" y1="117.212" x2="282.945" y2="117.212"/>
				
					<line fill="none" stroke="#00ABEB" stroke-width="0.15" stroke-miterlimit="10" x1="-152.583" y1="113.057" x2="282.945" y2="113.057"/>
				
					<line fill="none" stroke="#00ABEB" stroke-width="0.15" stroke-miterlimit="10" x1="-152.583" y1="108.903" x2="282.945" y2="108.903"/>
				
					<line fill="none" stroke="#00ABEB" stroke-width="0.15" stroke-miterlimit="10" x1="-152.583" y1="104.748" x2="282.945" y2="104.748"/>
				
					<line fill="none" stroke="#00ABEB" stroke-width="0.15" stroke-miterlimit="10" x1="-152.583" y1="100.593" x2="282.945" y2="100.593"/>
				
					<line fill="none" stroke="#00ABEB" stroke-width="0.15" stroke-miterlimit="10" x1="-152.583" y1="96.439" x2="282.945" y2="96.439"/>
				
					<line fill="none" stroke="#00ABEB" stroke-width="0.15" stroke-miterlimit="10" x1="-152.583" y1="92.284" x2="282.945" y2="92.284"/>
				
					<line fill="none" stroke="#00ABEB" stroke-width="0.15" stroke-miterlimit="10" x1="-152.583" y1="88.13" x2="282.945" y2="88.13"/>
				
					<line fill="none" stroke="#00ABEB" stroke-width="0.15" stroke-miterlimit="10" x1="-152.583" y1="83.975" x2="282.945" y2="83.975"/>
				
					<line fill="none" stroke="#00ABEB" stroke-width="0.15" stroke-miterlimit="10" x1="-152.583" y1="79.82" x2="282.945" y2="79.82"/>
				
					<line fill="none" stroke="#00ABEB" stroke-width="0.15" stroke-miterlimit="10" x1="-152.583" y1="75.667" x2="282.945" y2="75.667"/>
				
					<line fill="none" stroke="#00ABEB" stroke-width="0.15" stroke-miterlimit="10" x1="-152.583" y1="71.512" x2="282.945" y2="71.512"/>
				
					<line fill="none" stroke="#00ABEB" stroke-width="0.15" stroke-miterlimit="10" x1="-152.583" y1="67.357" x2="282.945" y2="67.357"/>
				
					<line fill="none" stroke="#00ABEB" stroke-width="0.15" stroke-miterlimit="10" x1="-152.583" y1="63.203" x2="282.945" y2="63.203"/>
				
					<line fill="none" stroke="#00ABEB" stroke-width="0.15" stroke-miterlimit="10" x1="-152.583" y1="59.048" x2="282.945" y2="59.048"/>
				
					<line fill="none" stroke="#00ABEB" stroke-width="0.15" stroke-miterlimit="10" x1="-152.583" y1="54.893" x2="282.945" y2="54.893"/>
				
					<line fill="none" stroke="#00ABEB" stroke-width="0.15" stroke-miterlimit="10" x1="-152.583" y1="50.74" x2="282.945" y2="50.74"/>
				
					<line fill="none" stroke="#00ABEB" stroke-width="0.15" stroke-miterlimit="10" x1="-152.583" y1="46.585" x2="282.945" y2="46.585"/>
				
					<line fill="none" stroke="#00ABEB" stroke-width="0.15" stroke-miterlimit="10" x1="-152.583" y1="42.43" x2="282.945" y2="42.43"/>
				
					<line fill="none" stroke="#00ABEB" stroke-width="0.15" stroke-miterlimit="10" x1="-152.583" y1="38.276" x2="282.945" y2="38.276"/>
				
					<line fill="none" stroke="#00ABEB" stroke-width="0.15" stroke-miterlimit="10" x1="-152.583" y1="34.121" x2="282.945" y2="34.121"/>
				
					<line fill="none" stroke="#00ABEB" stroke-width="0.15" stroke-miterlimit="10" x1="-152.583" y1="29.966" x2="282.945" y2="29.966"/>
				
					<line fill="none" stroke="#00ABEB" stroke-width="0.15" stroke-miterlimit="10" x1="-152.583" y1="25.813" x2="282.945" y2="25.813"/>
				
					<line fill="none" stroke="#00ABEB" stroke-width="0.15" stroke-miterlimit="10" x1="-152.583" y1="21.657" x2="282.945" y2="21.657"/>
				
					<line fill="none" stroke="#00ABEB" stroke-width="0.15" stroke-miterlimit="10" x1="-152.583" y1="17.504" x2="282.945" y2="17.504"/>
				
					<line fill="none" stroke="#00ABEB" stroke-width="0.15" stroke-miterlimit="10" x1="-152.583" y1="13.349" x2="282.945" y2="13.349"/>
				
					<line fill="none" stroke="#00ABEB" stroke-width="0.15" stroke-miterlimit="10" x1="-152.583" y1="9.194" x2="282.945" y2="9.194"/>
				
					<line fill="none" stroke="#00ABEB" stroke-width="0.15" stroke-miterlimit="10" x1="-152.583" y1="5.04" x2="282.945" y2="5.04"/>
				
					<line fill="none" stroke="#00ABEB" stroke-width="0.15" stroke-miterlimit="10" x1="-152.583" y1="0.885" x2="282.945" y2="0.885"/>
				
					<line fill="none" stroke="#00ABEB" stroke-width="0.15" stroke-miterlimit="10" x1="-152.583" y1="-3.27" x2="282.945" y2="-3.27"/>
				
					<line fill="none" stroke="#00ABEB" stroke-width="0.15" stroke-miterlimit="10" x1="-152.583" y1="-7.423" x2="282.945" y2="-7.423"/>
				
					<line fill="none" stroke="#00ABEB" stroke-width="0.15" stroke-miterlimit="10" x1="-152.583" y1="-11.578" x2="282.945" y2="-11.578"/>
				
					<line fill="none" stroke="#00ABEB" stroke-width="0.15" stroke-miterlimit="10" x1="-152.583" y1="-15.733" x2="282.945" y2="-15.733"/>
				
					<line fill="none" stroke="#00ABEB" stroke-width="0.15" stroke-miterlimit="10" x1="-152.583" y1="-19.887" x2="282.945" y2="-19.887"/>
				
					<line fill="none" stroke="#00ABEB" stroke-width="0.15" stroke-miterlimit="10" x1="-152.583" y1="-24.042" x2="282.945" y2="-24.042"/>
				
					<line fill="none" stroke="#00ABEB" stroke-width="0.15" stroke-miterlimit="10" x1="-152.583" y1="-28.197" x2="282.945" y2="-28.197"/>
				
					<line fill="none" stroke="#00ABEB" stroke-width="0.15" stroke-miterlimit="10" x1="-152.583" y1="-32.35" x2="282.945" y2="-32.35"/>
				
					<line fill="none" stroke="#00ABEB" stroke-width="0.15" stroke-miterlimit="10" x1="-152.583" y1="-36.506" x2="282.945" y2="-36.506"/>
				
					<line fill="none" stroke="#00ABEB" stroke-width="0.15" stroke-miterlimit="10" x1="-152.583" y1="-40.66" x2="282.945" y2="-40.66"/>
				
					<line fill="none" stroke="#00ABEB" stroke-width="0.15" stroke-miterlimit="10" x1="-152.583" y1="-44.815" x2="282.945" y2="-44.815"/>
				
					<line fill="none" stroke="#00ABEB" stroke-width="0.15" stroke-miterlimit="10" x1="-152.583" y1="-48.97" x2="282.945" y2="-48.97"/>
				
					<line fill="none" stroke="#00ABEB" stroke-width="0.15" stroke-miterlimit="10" x1="-152.583" y1="-53.123" x2="282.945" y2="-53.123"/>
			</g>
			<g id="Vertical_1_mm">
				<g>
					
						<line fill="none" stroke="#00ABEB" stroke-width="0.15" stroke-miterlimit="10" x1="-152.438" y1="187.818" x2="-152.438" y2="-61.543"/>
				</g>
				
					<line fill="none" stroke="#00ABEB" stroke-width="0.15" stroke-miterlimit="10" x1="-146.997" y1="187.818" x2="-146.997" y2="-61.543"/>
				
					<line fill="none" stroke="#00ABEB" stroke-width="0.15" stroke-miterlimit="10" x1="-141.554" y1="187.818" x2="-141.554" y2="-61.543"/>
				
					<line fill="none" stroke="#00ABEB" stroke-width="0.15" stroke-miterlimit="10" x1="-136.111" y1="187.818" x2="-136.111" y2="-61.543"/>
				
					<line fill="none" stroke="#00ABEB" stroke-width="0.15" stroke-miterlimit="10" x1="-130.67" y1="187.818" x2="-130.67" y2="-61.543"/>
				
					<line fill="none" stroke="#00ABEB" stroke-width="0.15" stroke-miterlimit="10" x1="-125.227" y1="187.818" x2="-125.227" y2="-61.543"/>
				
					<line fill="none" stroke="#00ABEB" stroke-width="0.15" stroke-miterlimit="10" x1="-119.784" y1="187.818" x2="-119.784" y2="-61.543"/>
				
					<line fill="none" stroke="#00ABEB" stroke-width="0.15" stroke-miterlimit="10" x1="-114.343" y1="187.818" x2="-114.343" y2="-61.543"/>
				
					<line fill="none" stroke="#00ABEB" stroke-width="0.15" stroke-miterlimit="10" x1="-108.899" y1="187.818" x2="-108.899" y2="-61.543"/>
				
					<line fill="none" stroke="#00ABEB" stroke-width="0.15" stroke-miterlimit="10" x1="-103.457" y1="187.818" x2="-103.457" y2="-61.543"/>
				
					<line fill="none" stroke="#00ABEB" stroke-width="0.15" stroke-miterlimit="10" x1="-98.014" y1="187.818" x2="-98.014" y2="-61.543"/>
				
					<line fill="none" stroke="#00ABEB" stroke-width="0.15" stroke-miterlimit="10" x1="-92.571" y1="187.818" x2="-92.571" y2="-61.543"/>
				
					<line fill="none" stroke="#00ABEB" stroke-width="0.15" stroke-miterlimit="10" x1="-87.13" y1="187.818" x2="-87.13" y2="-61.543"/>
				
					<line fill="none" stroke="#00ABEB" stroke-width="0.15" stroke-miterlimit="10" x1="-81.687" y1="187.818" x2="-81.687" y2="-61.543"/>
				
					<line fill="none" stroke="#00ABEB" stroke-width="0.15" stroke-miterlimit="10" x1="-76.244" y1="187.818" x2="-76.244" y2="-61.543"/>
				
					<line fill="none" stroke="#00ABEB" stroke-width="0.15" stroke-miterlimit="10" x1="-70.803" y1="187.818" x2="-70.803" y2="-61.543"/>
				
					<line fill="none" stroke="#00ABEB" stroke-width="0.15" stroke-miterlimit="10" x1="-65.36" y1="187.818" x2="-65.36" y2="-61.543"/>
				
					<line fill="none" stroke="#00ABEB" stroke-width="0.15" stroke-miterlimit="10" x1="-59.917" y1="187.818" x2="-59.917" y2="-61.543"/>
				
					<line fill="none" stroke="#00ABEB" stroke-width="0.15" stroke-miterlimit="10" x1="-54.476" y1="187.818" x2="-54.476" y2="-61.543"/>
				
					<line fill="none" stroke="#00ABEB" stroke-width="0.15" stroke-miterlimit="10" x1="-49.033" y1="187.818" x2="-49.033" y2="-61.543"/>
				
					<line fill="none" stroke="#00ABEB" stroke-width="0.15" stroke-miterlimit="10" x1="-43.59" y1="187.818" x2="-43.59" y2="-61.543"/>
				
					<line fill="none" stroke="#00ABEB" stroke-width="0.15" stroke-miterlimit="10" x1="-38.148" y1="187.818" x2="-38.148" y2="-61.543"/>
				
					<line fill="none" stroke="#00ABEB" stroke-width="0.15" stroke-miterlimit="10" x1="-32.705" y1="187.818" x2="-32.705" y2="-61.543"/>
				
					<line fill="none" stroke="#00ABEB" stroke-width="0.15" stroke-miterlimit="10" x1="-27.262" y1="187.818" x2="-27.262" y2="-61.543"/>
				
					<line fill="none" stroke="#00ABEB" stroke-width="0.15" stroke-miterlimit="10" x1="-21.82" y1="187.818" x2="-21.82" y2="-61.543"/>
				
					<line fill="none" stroke="#00ABEB" stroke-width="0.15" stroke-miterlimit="10" x1="-16.377" y1="187.818" x2="-16.377" y2="-61.543"/>
				
					<line fill="none" stroke="#00ABEB" stroke-width="0.15" stroke-miterlimit="10" x1="-10.936" y1="187.818" x2="-10.936" y2="-61.543"/>
				
					<line fill="none" stroke="#00ABEB" stroke-width="0.15" stroke-miterlimit="10" x1="-5.493" y1="187.818" x2="-5.493" y2="-61.543"/>
				
					<line fill="none" stroke="#00ABEB" stroke-width="0.15" stroke-miterlimit="10" x1="-0.05" y1="187.818" x2="-0.05" y2="-61.543"/>
				
					<line fill="none" stroke="#00ABEB" stroke-width="0.15" stroke-miterlimit="10" x1="5.391" y1="187.818" x2="5.391" y2="-61.543"/>
				
					<line fill="none" stroke="#00ABEB" stroke-width="0.15" stroke-miterlimit="10" x1="10.834" y1="187.818" x2="10.834" y2="-61.543"/>
				
					<line fill="none" stroke="#00ABEB" stroke-width="0.15" stroke-miterlimit="10" x1="16.277" y1="187.818" x2="16.277" y2="-61.543"/>
				
					<line fill="none" stroke="#00ABEB" stroke-width="0.15" stroke-miterlimit="10" x1="21.719" y1="187.818" x2="21.719" y2="-61.543"/>
				
					<line fill="none" stroke="#00ABEB" stroke-width="0.15" stroke-miterlimit="10" x1="27.161" y1="187.818" x2="27.161" y2="-61.543"/>
				
					<line fill="none" stroke="#00ABEB" stroke-width="0.15" stroke-miterlimit="10" x1="32.605" y1="187.818" x2="32.605" y2="-61.543"/>
				
					<line fill="none" stroke="#00ABEB" stroke-width="0.15" stroke-miterlimit="10" x1="38.046" y1="187.818" x2="38.046" y2="-61.543"/>
				
					<line fill="none" stroke="#00ABEB" stroke-width="0.15" stroke-miterlimit="10" x1="43.489" y1="187.818" x2="43.489" y2="-61.543"/>
				
					<line fill="none" stroke="#00ABEB" stroke-width="0.15" stroke-miterlimit="10" x1="48.932" y1="187.818" x2="48.932" y2="-61.543"/>
				
					<line fill="none" stroke="#00ABEB" stroke-width="0.15" stroke-miterlimit="10" x1="54.373" y1="187.818" x2="54.373" y2="-61.543"/>
				
					<line fill="none" stroke="#00ABEB" stroke-width="0.15" stroke-miterlimit="10" x1="59.816" y1="187.818" x2="59.816" y2="-61.543"/>
				
					<line fill="none" stroke="#00ABEB" stroke-width="0.15" stroke-miterlimit="10" x1="65.257" y1="187.818" x2="65.257" y2="-61.543"/>
				
					<line fill="none" stroke="#00ABEB" stroke-width="0.15" stroke-miterlimit="10" x1="70.701" y1="187.818" x2="70.701" y2="-61.543"/>
				
					<line fill="none" stroke="#00ABEB" stroke-width="0.15" stroke-miterlimit="10" x1="76.144" y1="187.818" x2="76.144" y2="-61.543"/>
				
					<line fill="none" stroke="#00ABEB" stroke-width="0.15" stroke-miterlimit="10" x1="81.585" y1="187.818" x2="81.585" y2="-61.543"/>
				
					<line fill="none" stroke="#00ABEB" stroke-width="0.15" stroke-miterlimit="10" x1="87.028" y1="187.818" x2="87.028" y2="-61.543"/>
				
					<line fill="none" stroke="#00ABEB" stroke-width="0.15" stroke-miterlimit="10" x1="92.471" y1="187.818" x2="92.471" y2="-61.543"/>
				
					<line fill="none" stroke="#00ABEB" stroke-width="0.15" stroke-miterlimit="10" x1="97.913" y1="187.818" x2="97.913" y2="-61.543"/>
				
					<line fill="none" stroke="#00ABEB" stroke-width="0.15" stroke-miterlimit="10" x1="103.356" y1="187.818" x2="103.356" y2="-61.543"/>
				
					<line fill="none" stroke="#00ABEB" stroke-width="0.15" stroke-miterlimit="10" x1="108.799" y1="187.818" x2="108.799" y2="-61.543"/>
				
					<line fill="none" stroke="#00ABEB" stroke-width="0.15" stroke-miterlimit="10" x1="114.24" y1="187.818" x2="114.24" y2="-61.543"/>
				
					<line fill="none" stroke="#00ABEB" stroke-width="0.15" stroke-miterlimit="10" x1="119.683" y1="187.818" x2="119.683" y2="-61.543"/>
				
					<line fill="none" stroke="#00ABEB" stroke-width="0.15" stroke-miterlimit="10" x1="125.126" y1="187.818" x2="125.126" y2="-61.543"/>
				
					<line fill="none" stroke="#00ABEB" stroke-width="0.15" stroke-miterlimit="10" x1="130.567" y1="187.818" x2="130.567" y2="-61.543"/>
				
					<line fill="none" stroke="#00ABEB" stroke-width="0.15" stroke-miterlimit="10" x1="136.01" y1="187.818" x2="136.01" y2="-61.543"/>
				
					<line fill="none" stroke="#00ABEB" stroke-width="0.15" stroke-miterlimit="10" x1="141.453" y1="187.818" x2="141.453" y2="-61.543"/>
				
					<line fill="none" stroke="#00ABEB" stroke-width="0.15" stroke-miterlimit="10" x1="146.894" y1="187.818" x2="146.894" y2="-61.543"/>
				
					<line fill="none" stroke="#00ABEB" stroke-width="0.15" stroke-miterlimit="10" x1="152.338" y1="187.818" x2="152.338" y2="-61.543"/>
				
					<line fill="none" stroke="#00ABEB" stroke-width="0.15" stroke-miterlimit="10" x1="157.779" y1="187.818" x2="157.779" y2="-61.543"/>
				
					<line fill="none" stroke="#00ABEB" stroke-width="0.15" stroke-miterlimit="10" x1="163.222" y1="187.818" x2="163.222" y2="-61.543"/>
				
					<line fill="none" stroke="#00ABEB" stroke-width="0.15" stroke-miterlimit="10" x1="168.665" y1="187.818" x2="168.665" y2="-61.543"/>
				
					<line fill="none" stroke="#00ABEB" stroke-width="0.15" stroke-miterlimit="10" x1="174.107" y1="187.818" x2="174.107" y2="-61.543"/>
				
					<line fill="none" stroke="#00ABEB" stroke-width="0.15" stroke-miterlimit="10" x1="179.55" y1="187.818" x2="179.55" y2="-61.543"/>
				
					<line fill="none" stroke="#00ABEB" stroke-width="0.15" stroke-miterlimit="10" x1="184.993" y1="187.818" x2="184.993" y2="-61.543"/>
				
					<line fill="none" stroke="#00ABEB" stroke-width="0.15" stroke-miterlimit="10" x1="190.434" y1="187.818" x2="190.434" y2="-61.543"/>
				
					<line fill="none" stroke="#00ABEB" stroke-width="0.15" stroke-miterlimit="10" x1="195.877" y1="187.818" x2="195.877" y2="-61.543"/>
				
					<line fill="none" stroke="#00ABEB" stroke-width="0.15" stroke-miterlimit="10" x1="201.32" y1="187.818" x2="201.32" y2="-61.543"/>
				
					<line fill="none" stroke="#00ABEB" stroke-width="0.15" stroke-miterlimit="10" x1="206.761" y1="187.818" x2="206.761" y2="-61.543"/>
				
					<line fill="none" stroke="#00ABEB" stroke-width="0.15" stroke-miterlimit="10" x1="212.204" y1="187.818" x2="212.204" y2="-61.543"/>
				
					<line fill="none" stroke="#00ABEB" stroke-width="0.15" stroke-miterlimit="10" x1="217.647" y1="187.818" x2="217.647" y2="-61.543"/>
				
					<line fill="none" stroke="#00ABEB" stroke-width="0.15" stroke-miterlimit="10" x1="223.088" y1="187.818" x2="223.088" y2="-61.543"/>
				
					<line fill="none" stroke="#00ABEB" stroke-width="0.15" stroke-miterlimit="10" x1="228.531" y1="187.818" x2="228.531" y2="-61.543"/>
				
					<line fill="none" stroke="#00ABEB" stroke-width="0.15" stroke-miterlimit="10" x1="233.974" y1="187.818" x2="233.974" y2="-61.543"/>
				
					<line fill="none" stroke="#00ABEB" stroke-width="0.15" stroke-miterlimit="10" x1="239.417" y1="187.818" x2="239.417" y2="-61.543"/>
				
					<line fill="none" stroke="#00ABEB" stroke-width="0.15" stroke-miterlimit="10" x1="244.859" y1="187.818" x2="244.859" y2="-61.543"/>
				
					<line fill="none" stroke="#00ABEB" stroke-width="0.15" stroke-miterlimit="10" x1="250.301" y1="187.818" x2="250.301" y2="-61.543"/>
				
					<line fill="none" stroke="#00ABEB" stroke-width="0.15" stroke-miterlimit="10" x1="255.744" y1="187.818" x2="255.744" y2="-61.543"/>
				
					<line fill="none" stroke="#00ABEB" stroke-width="0.15" stroke-miterlimit="10" x1="261.187" y1="187.818" x2="261.187" y2="-61.543"/>
				
					<line fill="none" stroke="#00ABEB" stroke-width="0.15" stroke-miterlimit="10" x1="266.628" y1="187.818" x2="266.628" y2="-61.543"/>
				
					<line fill="none" stroke="#00ABEB" stroke-width="0.15" stroke-miterlimit="10" x1="272.071" y1="187.818" x2="272.071" y2="-61.543"/>
				
					<line fill="none" stroke="#00ABEB" stroke-width="0.15" stroke-miterlimit="10" x1="277.514" y1="187.818" x2="277.514" y2="-61.543"/>
				
					<line fill="none" stroke="#00ABEB" stroke-width="0.15" stroke-miterlimit="10" x1="282.955" y1="187.818" x2="282.955" y2="-61.543"/>
			</g>
			<g id="Horizontal_5_mm_1_">
				
					<line fill="none" stroke="#00ABEB" stroke-width="0.3" stroke-miterlimit="10" x1="-153.11" y1="187.838" x2="282.945" y2="187.838"/>
				
					<line fill="none" stroke="#00ABEB" stroke-width="0.3" stroke-miterlimit="10" x1="-153.11" y1="167.066" x2="282.945" y2="167.066"/>
				
					<line fill="none" stroke="#00ABEB" stroke-width="0.3" stroke-miterlimit="10" x1="-153.11" y1="146.294" x2="282.945" y2="146.294"/>
				
					<line fill="none" stroke="#00ABEB" stroke-width="0.3" stroke-miterlimit="10" x1="-153.11" y1="125.52" x2="282.945" y2="125.52"/>
				
					<line fill="none" stroke="#00ABEB" stroke-width="0.3" stroke-miterlimit="10" x1="-153.11" y1="104.748" x2="282.945" y2="104.748"/>
				
					<line fill="none" stroke="#00ABEB" stroke-width="0.3" stroke-miterlimit="10" x1="-153.11" y1="83.975" x2="282.945" y2="83.975"/>
				
					<line fill="none" stroke="#00ABEB" stroke-width="0.3" stroke-miterlimit="10" x1="-153.11" y1="63.203" x2="282.945" y2="63.203"/>
				
					<line fill="none" stroke="#00ABEB" stroke-width="0.3" stroke-miterlimit="10" x1="-153.11" y1="42.43" x2="282.945" y2="42.43"/>
				
					<line fill="none" stroke="#00ABEB" stroke-width="0.3" stroke-miterlimit="10" x1="-153.11" y1="21.657" x2="282.945" y2="21.657"/>
				
					<line fill="none" stroke="#00ABEB" stroke-width="0.3" stroke-miterlimit="10" x1="-153.11" y1="0.885" x2="282.945" y2="0.885"/>
				
					<line fill="none" stroke="#00ABEB" stroke-width="0.3" stroke-miterlimit="10" x1="-153.11" y1="-19.887" x2="282.945" y2="-19.887"/>
			</g>
			<g id="Vertical_5_mm">
				
					<line fill="none" stroke="#00ABEB" stroke-width="0.3" stroke-miterlimit="10" x1="-152.438" y1="187.818" x2="-152.438" y2="-61.946"/>
				
					<line fill="none" stroke="#00ABEB" stroke-width="0.3" stroke-miterlimit="10" x1="-125.227" y1="187.818" x2="-125.227" y2="-61.946"/>
				
					<line fill="none" stroke="#00ABEB" stroke-width="0.3" stroke-miterlimit="10" x1="-98.014" y1="187.818" x2="-98.014" y2="-61.946"/>
				
					<line fill="none" stroke="#00ABEB" stroke-width="0.3" stroke-miterlimit="10" x1="-70.803" y1="187.818" x2="-70.803" y2="-61.946"/>
				
					<line fill="none" stroke="#00ABEB" stroke-width="0.3" stroke-miterlimit="10" x1="-43.59" y1="187.818" x2="-43.59" y2="-61.946"/>
				
					<line fill="none" stroke="#00ABEB" stroke-width="0.3" stroke-miterlimit="10" x1="-16.377" y1="187.818" x2="-16.377" y2="-61.946"/>
				
					<line fill="none" stroke="#00ABEB" stroke-width="0.3" stroke-miterlimit="10" x1="10.834" y1="187.818" x2="10.834" y2="-61.946"/>
				
					<line fill="none" stroke="#00ABEB" stroke-width="0.3" stroke-miterlimit="10" x1="38.046" y1="187.818" x2="38.046" y2="-61.946"/>
				
					<line fill="none" stroke="#00ABEB" stroke-width="0.3" stroke-miterlimit="10" x1="65.257" y1="187.818" x2="65.257" y2="-61.946"/>
				
					<line fill="none" stroke="#00ABEB" stroke-width="0.3" stroke-miterlimit="10" x1="92.471" y1="187.818" x2="92.471" y2="-61.946"/>
				
					<line fill="none" stroke="#00ABEB" stroke-width="0.3" stroke-miterlimit="10" x1="119.683" y1="187.818" x2="119.683" y2="-61.946"/>
				
					<line fill="none" stroke="#00ABEB" stroke-width="0.3" stroke-miterlimit="10" x1="146.894" y1="187.818" x2="146.894" y2="-61.946"/>
				
					<line fill="none" stroke="#00ABEB" stroke-width="0.3" stroke-miterlimit="10" x1="174.107" y1="187.818" x2="174.107" y2="-61.946"/>
				
					<line fill="none" stroke="#00ABEB" stroke-width="0.3" stroke-miterlimit="10" x1="201.32" y1="187.818" x2="201.32" y2="-61.946"/>
				
					<line fill="none" stroke="#00ABEB" stroke-width="0.3" stroke-miterlimit="10" x1="228.531" y1="187.818" x2="228.531" y2="-61.946"/>
				
					<line fill="none" stroke="#00ABEB" stroke-width="0.3" stroke-miterlimit="10" x1="255.744" y1="187.818" x2="255.744" y2="-61.946"/>
				
					<line fill="none" stroke="#00ABEB" stroke-width="0.3" stroke-miterlimit="10" x1="282.955" y1="187.818" x2="282.955" y2="-61.946"/>
			</g>
			<g id="Horizontal_10_mm">
				
					<line id="_x31_9_1_" fill="none" stroke="#00ABEB" stroke-width="0.7" stroke-miterlimit="10" x1="-153.11" y1="187.838" x2="282.945" y2="187.838"/>
				
					<line id="_x32_0" fill="none" stroke="#00ABEB" stroke-width="0.7" stroke-miterlimit="10" x1="-153.11" y1="146.294" x2="282.945" y2="146.294"/>
				
					<line id="_x32_1" fill="none" stroke="#00ABEB" stroke-width="0.7" stroke-miterlimit="10" x1="-153.11" y1="104.748" x2="282.945" y2="104.748"/>
				
					<line id="_x32_2" fill="none" stroke="#00ABEB" stroke-width="0.7" stroke-miterlimit="10" x1="-153.11" y1="63.203" x2="282.945" y2="63.203"/>
				
					<line id="_x32_3" fill="none" stroke="#00ABEB" stroke-width="0.7" stroke-miterlimit="10" x1="-153.11" y1="21.657" x2="282.945" y2="21.657"/>
				
					<line id="_x32_4" fill="none" stroke="#00ABEB" stroke-width="0.7" stroke-miterlimit="10" x1="-153.11" y1="-19.887" x2="282.945" y2="-19.887"/>
				
					<line id="_x32_5" fill="none" stroke="#00ABEB" stroke-width="0.7" stroke-miterlimit="10" x1="-153.11" y1="-61.433" x2="282.945" y2="-61.433"/>
			</g>
			<g id="Vertical_10_mm">
				
					<line id="_x30_" fill="none" stroke="#00ABEB" stroke-width="0.7" stroke-miterlimit="10" x1="-152.438" y1="187.818" x2="-152.438" y2="-61.946"/>
				
					<line id="_x31_" fill="none" stroke="#00ABEB" stroke-width="0.7" stroke-miterlimit="10" x1="-98.014" y1="187.818" x2="-98.014" y2="-61.946"/>
				
					<line id="_x32_" fill="none" stroke="#00ABEB" stroke-width="0.7" stroke-miterlimit="10" x1="-43.59" y1="187.818" x2="-43.59" y2="-61.946"/>
				
					<line id="_x33_" fill="none" stroke="#00ABEB" stroke-width="0.7" stroke-miterlimit="10" x1="10.834" y1="187.818" x2="10.834" y2="-61.946"/>
				
					<line id="_x34_" fill="none" stroke="#00ABEB" stroke-width="0.7" stroke-miterlimit="10" x1="65.257" y1="187.818" x2="65.257" y2="-61.946"/>
				
					<line id="_x35_" fill="none" stroke="#00ABEB" stroke-width="0.7" stroke-miterlimit="10" x1="119.683" y1="187.818" x2="119.683" y2="-61.946"/>
				
					<line id="_x36_" fill="none" stroke="#00ABEB" stroke-width="0.7" stroke-miterlimit="10" x1="174.107" y1="187.818" x2="174.107" y2="-61.946"/>
				
					<line id="_x37_" fill="none" stroke="#00ABEB" stroke-width="0.7" stroke-miterlimit="10" x1="228.531" y1="187.818" x2="228.531" y2="-61.946"/>
				
					<line id="_x38_" fill="none" stroke="#00ABEB" stroke-width="0.7" stroke-miterlimit="10" x1="282.955" y1="187.818" x2="282.955" y2="-61.946"/>
			</g>
		</g>
	</g>
</g>
<g id="one_solution">
	<g>
		<path fill="#FF0000" d="M162.218,71.362l-0.36-0.06c-0.24-2.141-1.22-3.261-2.98-3.261c-1.48,0-2.881,0.76-3.981,1.94
			c-1.44,1.54-2.161,3.82-2.161,6.021c0,2.8,1.28,4.101,3.501,4.101c1.64,0,2.841-0.58,4.581-2.381l0.36,0.301
			c-1.8,2.12-3.4,2.98-5.461,2.98c-3.061,0-5.221-1.921-5.221-5.222c0-2.82,1.541-5.44,3.741-7.001
			c1.28-0.921,2.801-1.461,4.381-1.461c0.66,0,1.5,0.04,2.341,0.341c0.4,0.14,0.64,0.14,0.82,0.14c0.4,0,0.6-0.12,0.76-0.44h0.42
			L162.218,71.362z"/>
	</g>
	<path opacity="0.05" fill="#FF0000" d="M150.811,51.136c-1.325,11.926-28.417,36.81-69.718,20.067
		c-36.362-14.741-68.291-7.473-71.043-19.899C3.719,22.719,38.91,8.732,81.094,31.406C115.653,49.983,156.234,2.333,150.811,51.136z
		"/>
	<g>
		<g>
			<path fill="none" stroke="#FF0000" stroke-linecap="round" stroke-linejoin="round" d="M150.632,52.202
				c-2.724,12.265-29.432,35.26-69.539,19.001c-36.362-14.741-68.291-7.473-71.043-19.898C3.719,22.719,38.91,8.732,81.094,31.406
				c34.56,18.577,75.14-29.073,69.718,19.73"/>
			<g>
				<polygon fill="#FF0000" points="145.683,54.261 146.203,55.116 150.413,52.55 152.665,56.936 153.555,56.478 150.811,51.136 
									"/>
			</g>
		</g>
	</g>
	<g>
		<path d="M80.292,43.072c2.641,0,4.081,1.12,4.081,2.82c0,0.96-0.5,1.94-1.32,2.561c-0.62,0.48-1.28,0.72-2.621,1.021l1.78,4.701
			c0.44,1.18,0.84,1.64,1.74,1.64v0.32h-2.94l-2.46-6.481l-1.32-0.1l-1.101,4.061c-0.22,0.78-0.26,1.061-0.26,1.26
			c0,0.601,0.2,0.82,1.34,0.94v0.32H72.35v-0.32c1.101-0.14,1.38-0.52,1.701-1.7l2.38-8.622c0.14-0.54,0.24-0.92,0.24-1.26
			c0-0.221-0.14-0.46-0.28-0.561c-0.22-0.14-0.3-0.16-1.14-0.28v-0.319H80.292z M77.471,48.813c0.5,0.08,0.66,0.1,1.021,0.1
			c2.38,0,3.781-1.14,3.781-3.001c0-1.38-0.84-2.24-2.4-2.24c-0.62,0-1.041,0.221-1.141,0.601L77.471,48.813z"/>
	</g>
	<g>
		<g>
			<path fill="#0000FF" d="M128.085,8.311l-0.336-0.032c0.048-0.352,0.048-0.432,0.048-0.528c0-1.168-0.368-1.376-3.186-1.376
				c-0.736,0-0.976,0.096-1.088,0.512l-1.024,3.634c2.689-0.032,2.737-0.064,3.458-1.505l0.288,0.08l-1.216,3.762l-0.272-0.08
				c0.096-0.496,0.128-0.721,0.128-0.977c0-0.64-0.448-0.704-1.201-0.704c-0.352,0-0.736-0.016-1.329-0.048l-0.944,3.409
				c-0.112,0.4-0.224,0.721-0.224,0.961c0,0.384,0.288,0.56,1.232,0.624v0.256h-4.018v-0.256c0.929-0.064,1.088-0.416,1.329-1.249
				l1.969-7.074c0.112-0.4,0.16-0.721,0.16-0.977c0-0.448-0.16-0.544-1.216-0.641V5.846h7.955L128.085,8.311z"/>
		</g>
		<g>
			<g>
				
					<line fill="none" stroke="#0000FF" stroke-width="0.5" stroke-miterlimit="10" x1="121.057" y1="3.434" x2="127.509" y2="3.366"/>
				<g>
					<polygon fill="#0000FF" points="125.874,5.428 125.529,5.066 127.317,3.369 125.493,1.709 125.831,1.339 128.051,3.361 					
						"/>
				</g>
			</g>
		</g>
		<g>
			<g>
				
					<line fill="none" stroke="#0000FF" stroke-width="0.75" stroke-miterlimit="10" x1="64.879" y1="20.123" x2="73.978" y2="2.386"/>
				<g>
					<polygon fill="#0000FF" points="75.573,5.998 74.851,6.202 73.848,2.643 70.371,3.903 70.116,3.198 74.35,1.663 					"/>
				</g>
			</g>
		</g>
	</g>
	<g id="F">
		<g>
			<g>
				
					<line fill="none" stroke="#0000FF" stroke-width="0.75" stroke-miterlimit="10" x1="92.584" y1="28.162" x2="108.138" y2="9.357"/>
				<g>
					<polygon fill="#0000FF" points="108.918,13.227 108.168,13.271 107.955,9.579 104.288,10.062 104.191,9.317 108.657,8.731 
											"/>
				</g>
			</g>
		</g>
		<g>
			<g>
				
					<line fill="none" stroke="#0000FF" stroke-width="0.75" stroke-miterlimit="10" x1="119.761" y1="48.615" x2="136.745" y2="37.966"/>
				<g>
					<polygon fill="#0000FF" points="136.269,41.885 135.544,41.692 136.502,38.12 132.869,37.425 133.011,36.688 137.435,37.535 
											"/>
				</g>
			</g>
		</g>
		<g>
			<g>
				
					<line fill="none" stroke="#0000FF" stroke-width="0.75" stroke-miterlimit="10" x1="144.481" y1="44.095" x2="163.853" y2="36.274"/>
				<g>
					<polygon fill="#0000FF" points="162.697,40.049 162.017,39.731 163.586,36.382 160.132,35.062 160.401,34.361 164.608,35.97 
											"/>
				</g>
			</g>
		</g>
		<g>
			<g>
				
					<line fill="none" stroke="#0000FF" stroke-width="0.75" stroke-miterlimit="10" x1="14.755" y1="69.953" x2="27.388" y2="49.909"/>
				<g>
					<polygon fill="#0000FF" points="28.658,53.647 27.921,53.787 27.236,50.153 23.661,51.102 23.469,50.376 27.823,49.221 					
						"/>
				</g>
			</g>
		</g>
		<g>
			<g>
				
					<line fill="none" stroke="#0000FF" stroke-width="0.75" stroke-miterlimit="10" x1="33.83" y1="35.074" x2="40.158" y2="10.842"/>
				<g>
					<polygon fill="#0000FF" points="42.498,14.022 41.837,14.378 40.086,11.121 36.965,13.106 36.563,12.472 40.364,10.055 					
						"/>
				</g>
			</g>
		</g>
		<g>
			<g>
				
					<line fill="none" stroke="#0000FF" stroke-width="0.75" stroke-miterlimit="10" x1="9.311" y1="34.932" x2="21.944" y2="14.889"/>
				<g>
					<polygon fill="#0000FF" points="23.214,18.626 22.476,18.766 21.791,15.132 18.216,16.081 18.024,15.356 22.378,14.201 					
						"/>
				</g>
			</g>
		</g>
		<g>
			<g>
				
					<line fill="none" stroke="#0000FF" stroke-width="0.75" stroke-miterlimit="10" x1="40.686" y1="75.566" x2="60.468" y2="59.452"/>
				<g>
					<polygon fill="#0000FF" points="60.478,63.4 59.734,63.297 60.245,59.635 56.554,59.393 56.604,58.644 61.099,58.939 					"/>
				</g>
			</g>
		</g>
		<g>
			<g>
				
					<line fill="none" stroke="#0000FF" stroke-width="0.75" stroke-miterlimit="10" x1="73.894" y1="68.013" x2="99.009" y2="67.353"/>
				<g>
					<polygon fill="#0000FF" points="96.605,70.484 96.079,69.949 98.721,67.361 95.947,64.915 96.444,64.352 99.822,67.332 					
						"/>
				</g>
			</g>
		</g>
		<g>
			<g>
				
					<line fill="none" stroke="#0000FF" stroke-width="0.75" stroke-miterlimit="10" x1="111.978" y1="70.923" x2="134.959" y2="76.624"/>
				<g>
					<polygon fill="#0000FF" points="131.808,79.003 131.444,78.347 134.679,76.556 132.657,73.459 133.285,73.049 135.748,76.821 
											"/>
				</g>
			</g>
		</g>
		<g>
			<g>
				
					<line fill="none" stroke="#0000FF" stroke-width="0.75" stroke-miterlimit="10" x1="44.596" y1="50.636" x2="60.15" y2="31.831"/>
				<g>
					<polygon fill="#0000FF" points="60.93,35.701 60.18,35.745 59.967,32.053 56.3,32.536 56.203,31.791 60.669,31.205 					"/>
				</g>
			</g>
		</g>
		<g>
			<g>
				
					<line fill="none" stroke="#0000FF" stroke-width="0.75" stroke-miterlimit="10" x1="95.328" y1="49.748" x2="110.883" y2="30.943"/>
				<g>
					<polygon fill="#0000FF" points="111.662,34.813 110.913,34.857 110.7,31.165 107.033,31.648 106.936,30.904 111.401,30.317 
											"/>
				</g>
			</g>
		</g>
	</g>
	<g>
	</g>
</g>
</svg>
