<?xml version="1.0" encoding="utf-8"?>
<!-- Generator: Adobe Illustrator 25.4.1, SVG Export Plug-In . SVG Version: 6.00 Build 0)  -->
<svg version="1.1" xmlns="http://www.w3.org/2000/svg" xmlns:xlink="http://www.w3.org/1999/xlink" x="0px" y="0px"
	 viewBox="0 0 77.301 62.848" enable-background="new 0 0 77.301 62.848" xml:space="preserve">
<g id="Graph_paper" opacity="0.5">
	<g id="Clipped_grid">
		<defs>
			<rect id="SVGID_1_" x="-1.933" y="-1.355" width="81.828" height="65.558"/>
		</defs>
		<clipPath id="SVGID_00000083800147382197900770000002843837922209872026_">
			<use xlink:href="#SVGID_1_"  overflow="visible"/>
		</clipPath>
		<g id="Grid" opacity="0.25" clip-path="url(#SVGID_00000083800147382197900770000002843837922209872026_)">
			<g id="Horizontal_1_mm">
				
					<line fill="none" stroke="#00ABEB" stroke-width="0.15" stroke-miterlimit="10" x1="-12.94" y1="-29.34" x2="213.901" y2="-29.34"/>
				
					<line fill="none" stroke="#00ABEB" stroke-width="0.15" stroke-miterlimit="10" x1="-12.94" y1="-32.175" x2="213.901" y2="-32.175"/>
				
					<line fill="none" stroke="#00ABEB" stroke-width="0.15" stroke-miterlimit="10" x1="-12.94" y1="137.904" x2="213.901" y2="137.904"/>
				
					<line fill="none" stroke="#00ABEB" stroke-width="0.15" stroke-miterlimit="10" x1="-12.94" y1="135.069" x2="213.901" y2="135.069"/>
				
					<line fill="none" stroke="#00ABEB" stroke-width="0.15" stroke-miterlimit="10" x1="-12.94" y1="132.235" x2="213.901" y2="132.235"/>
				
					<line fill="none" stroke="#00ABEB" stroke-width="0.15" stroke-miterlimit="10" x1="-12.94" y1="129.4" x2="213.901" y2="129.4"/>
				
					<line fill="none" stroke="#00ABEB" stroke-width="0.15" stroke-miterlimit="10" x1="-12.94" y1="126.565" x2="213.901" y2="126.565"/>
				
					<line fill="none" stroke="#00ABEB" stroke-width="0.15" stroke-miterlimit="10" x1="-12.94" y1="123.731" x2="213.901" y2="123.731"/>
				
					<line fill="none" stroke="#00ABEB" stroke-width="0.15" stroke-miterlimit="10" x1="-12.94" y1="120.896" x2="213.901" y2="120.896"/>
				
					<line fill="none" stroke="#00ABEB" stroke-width="0.15" stroke-miterlimit="10" x1="-12.94" y1="118.062" x2="213.901" y2="118.062"/>
				
					<line fill="none" stroke="#00ABEB" stroke-width="0.15" stroke-miterlimit="10" x1="-12.94" y1="115.227" x2="213.901" y2="115.227"/>
				
					<line fill="none" stroke="#00ABEB" stroke-width="0.15" stroke-miterlimit="10" x1="-12.94" y1="112.392" x2="213.901" y2="112.392"/>
				
					<line fill="none" stroke="#00ABEB" stroke-width="0.15" stroke-miterlimit="10" x1="-12.94" y1="109.558" x2="213.901" y2="109.558"/>
				
					<line fill="none" stroke="#00ABEB" stroke-width="0.15" stroke-miterlimit="10" x1="-12.94" y1="106.723" x2="213.901" y2="106.723"/>
				
					<line fill="none" stroke="#00ABEB" stroke-width="0.15" stroke-miterlimit="10" x1="-12.94" y1="103.888" x2="213.901" y2="103.888"/>
				
					<line fill="none" stroke="#00ABEB" stroke-width="0.15" stroke-miterlimit="10" x1="-12.94" y1="101.054" x2="213.901" y2="101.054"/>
				
					<line fill="none" stroke="#00ABEB" stroke-width="0.15" stroke-miterlimit="10" x1="-12.94" y1="98.219" x2="213.901" y2="98.219"/>
				
					<line fill="none" stroke="#00ABEB" stroke-width="0.15" stroke-miterlimit="10" x1="-12.94" y1="95.384" x2="213.901" y2="95.384"/>
				
					<line fill="none" stroke="#00ABEB" stroke-width="0.15" stroke-miterlimit="10" x1="-12.94" y1="92.55" x2="213.901" y2="92.55"/>
				
					<line fill="none" stroke="#00ABEB" stroke-width="0.15" stroke-miterlimit="10" x1="-12.94" y1="89.715" x2="213.901" y2="89.715"/>
				
					<line fill="none" stroke="#00ABEB" stroke-width="0.15" stroke-miterlimit="10" x1="-12.94" y1="86.88" x2="213.901" y2="86.88"/>
				
					<line fill="none" stroke="#00ABEB" stroke-width="0.15" stroke-miterlimit="10" x1="-12.94" y1="84.046" x2="213.901" y2="84.046"/>
				
					<line fill="none" stroke="#00ABEB" stroke-width="0.15" stroke-miterlimit="10" x1="-12.94" y1="81.211" x2="213.901" y2="81.211"/>
				
					<line fill="none" stroke="#00ABEB" stroke-width="0.15" stroke-miterlimit="10" x1="-12.94" y1="78.376" x2="213.901" y2="78.376"/>
				
					<line fill="none" stroke="#00ABEB" stroke-width="0.15" stroke-miterlimit="10" x1="-12.94" y1="75.542" x2="213.901" y2="75.542"/>
				
					<line fill="none" stroke="#00ABEB" stroke-width="0.15" stroke-miterlimit="10" x1="-12.94" y1="72.707" x2="213.901" y2="72.707"/>
				
					<line fill="none" stroke="#00ABEB" stroke-width="0.15" stroke-miterlimit="10" x1="-12.94" y1="69.873" x2="213.901" y2="69.873"/>
				
					<line fill="none" stroke="#00ABEB" stroke-width="0.15" stroke-miterlimit="10" x1="-12.94" y1="67.038" x2="213.901" y2="67.038"/>
				
					<line fill="none" stroke="#00ABEB" stroke-width="0.15" stroke-miterlimit="10" x1="-12.94" y1="64.203" x2="213.901" y2="64.203"/>
				
					<line fill="none" stroke="#00ABEB" stroke-width="0.15" stroke-miterlimit="10" x1="-12.94" y1="61.369" x2="213.901" y2="61.369"/>
				
					<line fill="none" stroke="#00ABEB" stroke-width="0.15" stroke-miterlimit="10" x1="-12.94" y1="58.534" x2="213.901" y2="58.534"/>
				
					<line fill="none" stroke="#00ABEB" stroke-width="0.15" stroke-miterlimit="10" x1="-12.94" y1="55.699" x2="213.901" y2="55.699"/>
				
					<line fill="none" stroke="#00ABEB" stroke-width="0.15" stroke-miterlimit="10" x1="-12.94" y1="52.865" x2="213.901" y2="52.865"/>
				
					<line fill="none" stroke="#00ABEB" stroke-width="0.15" stroke-miterlimit="10" x1="-12.94" y1="50.03" x2="213.901" y2="50.03"/>
				
					<line fill="none" stroke="#00ABEB" stroke-width="0.15" stroke-miterlimit="10" x1="-12.94" y1="47.195" x2="213.901" y2="47.195"/>
				
					<line fill="none" stroke="#00ABEB" stroke-width="0.15" stroke-miterlimit="10" x1="-12.94" y1="44.361" x2="213.901" y2="44.361"/>
				
					<line fill="none" stroke="#00ABEB" stroke-width="0.15" stroke-miterlimit="10" x1="-12.94" y1="41.526" x2="213.901" y2="41.526"/>
				
					<line fill="none" stroke="#00ABEB" stroke-width="0.15" stroke-miterlimit="10" x1="-12.94" y1="38.691" x2="213.901" y2="38.691"/>
				
					<line fill="none" stroke="#00ABEB" stroke-width="0.15" stroke-miterlimit="10" x1="-12.94" y1="35.857" x2="213.901" y2="35.857"/>
				
					<line fill="none" stroke="#00ABEB" stroke-width="0.15" stroke-miterlimit="10" x1="-12.94" y1="33.022" x2="213.901" y2="33.022"/>
				
					<line fill="none" stroke="#00ABEB" stroke-width="0.15" stroke-miterlimit="10" x1="-12.94" y1="30.187" x2="213.901" y2="30.187"/>
				
					<line fill="none" stroke="#00ABEB" stroke-width="0.15" stroke-miterlimit="10" x1="-12.94" y1="27.353" x2="213.901" y2="27.353"/>
				
					<line fill="none" stroke="#00ABEB" stroke-width="0.15" stroke-miterlimit="10" x1="-12.94" y1="24.518" x2="213.901" y2="24.518"/>
				
					<line fill="none" stroke="#00ABEB" stroke-width="0.15" stroke-miterlimit="10" x1="-12.94" y1="21.684" x2="213.901" y2="21.684"/>
				
					<line fill="none" stroke="#00ABEB" stroke-width="0.15" stroke-miterlimit="10" x1="-12.94" y1="18.849" x2="213.901" y2="18.849"/>
				
					<line fill="none" stroke="#00ABEB" stroke-width="0.15" stroke-miterlimit="10" x1="-12.94" y1="16.014" x2="213.901" y2="16.014"/>
				
					<line fill="none" stroke="#00ABEB" stroke-width="0.15" stroke-miterlimit="10" x1="-12.94" y1="13.18" x2="213.901" y2="13.18"/>
				
					<line fill="none" stroke="#00ABEB" stroke-width="0.15" stroke-miterlimit="10" x1="-12.94" y1="10.345" x2="213.901" y2="10.345"/>
				<line fill="none" stroke="#00ABEB" stroke-width="0.15" stroke-miterlimit="10" x1="-12.94" y1="7.51" x2="213.901" y2="7.51"/>
				
					<line fill="none" stroke="#00ABEB" stroke-width="0.15" stroke-miterlimit="10" x1="-12.94" y1="4.676" x2="213.901" y2="4.676"/>
				
					<line fill="none" stroke="#00ABEB" stroke-width="0.15" stroke-miterlimit="10" x1="-12.94" y1="1.841" x2="213.901" y2="1.841"/>
				
					<line fill="none" stroke="#00ABEB" stroke-width="0.15" stroke-miterlimit="10" x1="-12.94" y1="-0.994" x2="213.901" y2="-0.994"/>
				
					<line fill="none" stroke="#00ABEB" stroke-width="0.15" stroke-miterlimit="10" x1="-12.94" y1="-3.828" x2="213.901" y2="-3.828"/>
				
					<line fill="none" stroke="#00ABEB" stroke-width="0.15" stroke-miterlimit="10" x1="-12.94" y1="-6.663" x2="213.901" y2="-6.663"/>
				
					<line fill="none" stroke="#00ABEB" stroke-width="0.15" stroke-miterlimit="10" x1="-12.94" y1="-9.498" x2="213.901" y2="-9.498"/>
				
					<line fill="none" stroke="#00ABEB" stroke-width="0.15" stroke-miterlimit="10" x1="-12.94" y1="-12.332" x2="213.901" y2="-12.332"/>
				
					<line fill="none" stroke="#00ABEB" stroke-width="0.15" stroke-miterlimit="10" x1="-12.94" y1="-15.167" x2="213.901" y2="-15.167"/>
				
					<line fill="none" stroke="#00ABEB" stroke-width="0.15" stroke-miterlimit="10" x1="-12.94" y1="-18.001" x2="213.901" y2="-18.001"/>
				
					<line fill="none" stroke="#00ABEB" stroke-width="0.15" stroke-miterlimit="10" x1="-12.94" y1="-20.836" x2="213.901" y2="-20.836"/>
				
					<line fill="none" stroke="#00ABEB" stroke-width="0.15" stroke-miterlimit="10" x1="-12.94" y1="-23.671" x2="213.901" y2="-23.671"/>
				
					<line fill="none" stroke="#00ABEB" stroke-width="0.15" stroke-miterlimit="10" x1="-12.94" y1="-26.505" x2="213.901" y2="-26.505"/>
			</g>
			<g id="Vertical_1_mm">
				<g>
					
						<line fill="none" stroke="#00ABEB" stroke-width="0.15" stroke-miterlimit="10" x1="-12.865" y1="137.89" x2="-12.865" y2="-32.25"/>
				</g>
				
					<line fill="none" stroke="#00ABEB" stroke-width="0.15" stroke-miterlimit="10" x1="-10.031" y1="137.89" x2="-10.031" y2="-32.25"/>
				
					<line fill="none" stroke="#00ABEB" stroke-width="0.15" stroke-miterlimit="10" x1="-7.196" y1="137.89" x2="-7.196" y2="-32.25"/>
				
					<line fill="none" stroke="#00ABEB" stroke-width="0.15" stroke-miterlimit="10" x1="-4.361" y1="137.89" x2="-4.361" y2="-32.25"/>
				
					<line fill="none" stroke="#00ABEB" stroke-width="0.15" stroke-miterlimit="10" x1="-1.527" y1="137.89" x2="-1.527" y2="-32.25"/>
				
					<line fill="none" stroke="#00ABEB" stroke-width="0.15" stroke-miterlimit="10" x1="1.308" y1="137.89" x2="1.308" y2="-32.25"/>
				
					<line fill="none" stroke="#00ABEB" stroke-width="0.15" stroke-miterlimit="10" x1="4.143" y1="137.89" x2="4.143" y2="-32.25"/>
				
					<line fill="none" stroke="#00ABEB" stroke-width="0.15" stroke-miterlimit="10" x1="6.977" y1="137.89" x2="6.977" y2="-32.25"/>
				
					<line fill="none" stroke="#00ABEB" stroke-width="0.15" stroke-miterlimit="10" x1="9.813" y1="137.89" x2="9.813" y2="-32.25"/>
				
					<line fill="none" stroke="#00ABEB" stroke-width="0.15" stroke-miterlimit="10" x1="12.647" y1="137.89" x2="12.647" y2="-32.25"/>
				
					<line fill="none" stroke="#00ABEB" stroke-width="0.15" stroke-miterlimit="10" x1="15.481" y1="137.89" x2="15.481" y2="-32.25"/>
				
					<line fill="none" stroke="#00ABEB" stroke-width="0.15" stroke-miterlimit="10" x1="18.316" y1="137.89" x2="18.316" y2="-32.25"/>
				
					<line fill="none" stroke="#00ABEB" stroke-width="0.15" stroke-miterlimit="10" x1="21.15" y1="137.89" x2="21.15" y2="-32.25"/>
				
					<line fill="none" stroke="#00ABEB" stroke-width="0.15" stroke-miterlimit="10" x1="23.985" y1="137.89" x2="23.985" y2="-32.25"/>
				
					<line fill="none" stroke="#00ABEB" stroke-width="0.15" stroke-miterlimit="10" x1="26.82" y1="137.89" x2="26.82" y2="-32.25"/>
				
					<line fill="none" stroke="#00ABEB" stroke-width="0.15" stroke-miterlimit="10" x1="29.654" y1="137.89" x2="29.654" y2="-32.25"/>
				
					<line fill="none" stroke="#00ABEB" stroke-width="0.15" stroke-miterlimit="10" x1="32.489" y1="137.89" x2="32.489" y2="-32.25"/>
				
					<line fill="none" stroke="#00ABEB" stroke-width="0.15" stroke-miterlimit="10" x1="35.324" y1="137.89" x2="35.324" y2="-32.25"/>
				
					<line fill="none" stroke="#00ABEB" stroke-width="0.15" stroke-miterlimit="10" x1="38.158" y1="137.89" x2="38.158" y2="-32.25"/>
				
					<line fill="none" stroke="#00ABEB" stroke-width="0.15" stroke-miterlimit="10" x1="40.993" y1="137.89" x2="40.993" y2="-32.25"/>
				
					<line fill="none" stroke="#00ABEB" stroke-width="0.15" stroke-miterlimit="10" x1="43.828" y1="137.89" x2="43.828" y2="-32.25"/>
				
					<line fill="none" stroke="#00ABEB" stroke-width="0.15" stroke-miterlimit="10" x1="46.662" y1="137.89" x2="46.662" y2="-32.25"/>
				
					<line fill="none" stroke="#00ABEB" stroke-width="0.15" stroke-miterlimit="10" x1="49.497" y1="137.89" x2="49.497" y2="-32.25"/>
				
					<line fill="none" stroke="#00ABEB" stroke-width="0.15" stroke-miterlimit="10" x1="52.332" y1="137.89" x2="52.332" y2="-32.25"/>
				
					<line fill="none" stroke="#00ABEB" stroke-width="0.15" stroke-miterlimit="10" x1="55.167" y1="137.89" x2="55.167" y2="-32.25"/>
				
					<line fill="none" stroke="#00ABEB" stroke-width="0.15" stroke-miterlimit="10" x1="58.002" y1="137.89" x2="58.002" y2="-32.25"/>
				
					<line fill="none" stroke="#00ABEB" stroke-width="0.15" stroke-miterlimit="10" x1="60.835" y1="137.89" x2="60.835" y2="-32.25"/>
				
					<line fill="none" stroke="#00ABEB" stroke-width="0.15" stroke-miterlimit="10" x1="63.67" y1="137.89" x2="63.67" y2="-32.25"/>
				
					<line fill="none" stroke="#00ABEB" stroke-width="0.15" stroke-miterlimit="10" x1="66.505" y1="137.89" x2="66.505" y2="-32.25"/>
				
					<line fill="none" stroke="#00ABEB" stroke-width="0.15" stroke-miterlimit="10" x1="69.339" y1="137.89" x2="69.339" y2="-32.25"/>
				
					<line fill="none" stroke="#00ABEB" stroke-width="0.15" stroke-miterlimit="10" x1="72.174" y1="137.89" x2="72.174" y2="-32.25"/>
				
					<line fill="none" stroke="#00ABEB" stroke-width="0.15" stroke-miterlimit="10" x1="75.009" y1="137.89" x2="75.009" y2="-32.25"/>
				
					<line fill="none" stroke="#00ABEB" stroke-width="0.15" stroke-miterlimit="10" x1="77.843" y1="137.89" x2="77.843" y2="-32.25"/>
				
					<line fill="none" stroke="#00ABEB" stroke-width="0.15" stroke-miterlimit="10" x1="80.678" y1="137.89" x2="80.678" y2="-32.25"/>
				
					<line fill="none" stroke="#00ABEB" stroke-width="0.15" stroke-miterlimit="10" x1="83.513" y1="137.89" x2="83.513" y2="-32.25"/>
				
					<line fill="none" stroke="#00ABEB" stroke-width="0.15" stroke-miterlimit="10" x1="86.347" y1="137.89" x2="86.347" y2="-32.25"/>
				
					<line fill="none" stroke="#00ABEB" stroke-width="0.15" stroke-miterlimit="10" x1="89.182" y1="137.89" x2="89.182" y2="-32.25"/>
				
					<line fill="none" stroke="#00ABEB" stroke-width="0.15" stroke-miterlimit="10" x1="92.017" y1="137.89" x2="92.017" y2="-32.25"/>
				
					<line fill="none" stroke="#00ABEB" stroke-width="0.15" stroke-miterlimit="10" x1="94.851" y1="137.89" x2="94.851" y2="-32.25"/>
				
					<line fill="none" stroke="#00ABEB" stroke-width="0.15" stroke-miterlimit="10" x1="97.686" y1="137.89" x2="97.686" y2="-32.25"/>
				
					<line fill="none" stroke="#00ABEB" stroke-width="0.15" stroke-miterlimit="10" x1="100.52" y1="137.89" x2="100.52" y2="-32.25"/>
				
					<line fill="none" stroke="#00ABEB" stroke-width="0.15" stroke-miterlimit="10" x1="103.356" y1="137.89" x2="103.356" y2="-32.25"/>
				
					<line fill="none" stroke="#00ABEB" stroke-width="0.15" stroke-miterlimit="10" x1="106.19" y1="137.89" x2="106.19" y2="-32.25"/>
				
					<line fill="none" stroke="#00ABEB" stroke-width="0.15" stroke-miterlimit="10" x1="109.024" y1="137.89" x2="109.024" y2="-32.25"/>
				
					<line fill="none" stroke="#00ABEB" stroke-width="0.15" stroke-miterlimit="10" x1="111.859" y1="137.89" x2="111.859" y2="-32.25"/>
				
					<line fill="none" stroke="#00ABEB" stroke-width="0.15" stroke-miterlimit="10" x1="114.694" y1="137.89" x2="114.694" y2="-32.25"/>
				
					<line fill="none" stroke="#00ABEB" stroke-width="0.15" stroke-miterlimit="10" x1="117.528" y1="137.89" x2="117.528" y2="-32.25"/>
				
					<line fill="none" stroke="#00ABEB" stroke-width="0.15" stroke-miterlimit="10" x1="120.363" y1="137.89" x2="120.363" y2="-32.25"/>
				
					<line fill="none" stroke="#00ABEB" stroke-width="0.15" stroke-miterlimit="10" x1="123.198" y1="137.89" x2="123.198" y2="-32.25"/>
				
					<line fill="none" stroke="#00ABEB" stroke-width="0.15" stroke-miterlimit="10" x1="126.032" y1="137.89" x2="126.032" y2="-32.25"/>
				
					<line fill="none" stroke="#00ABEB" stroke-width="0.15" stroke-miterlimit="10" x1="128.867" y1="137.89" x2="128.867" y2="-32.25"/>
				
					<line fill="none" stroke="#00ABEB" stroke-width="0.15" stroke-miterlimit="10" x1="131.702" y1="137.89" x2="131.702" y2="-32.25"/>
				
					<line fill="none" stroke="#00ABEB" stroke-width="0.15" stroke-miterlimit="10" x1="134.536" y1="137.89" x2="134.536" y2="-32.25"/>
				
					<line fill="none" stroke="#00ABEB" stroke-width="0.15" stroke-miterlimit="10" x1="137.371" y1="137.89" x2="137.371" y2="-32.25"/>
				
					<line fill="none" stroke="#00ABEB" stroke-width="0.15" stroke-miterlimit="10" x1="140.206" y1="137.89" x2="140.206" y2="-32.25"/>
				
					<line fill="none" stroke="#00ABEB" stroke-width="0.15" stroke-miterlimit="10" x1="143.04" y1="137.89" x2="143.04" y2="-32.25"/>
				
					<line fill="none" stroke="#00ABEB" stroke-width="0.15" stroke-miterlimit="10" x1="145.876" y1="137.89" x2="145.876" y2="-32.25"/>
				
					<line fill="none" stroke="#00ABEB" stroke-width="0.15" stroke-miterlimit="10" x1="148.71" y1="137.89" x2="148.71" y2="-32.25"/>
				
					<line fill="none" stroke="#00ABEB" stroke-width="0.15" stroke-miterlimit="10" x1="151.544" y1="137.89" x2="151.544" y2="-32.25"/>
				
					<line fill="none" stroke="#00ABEB" stroke-width="0.15" stroke-miterlimit="10" x1="154.379" y1="137.89" x2="154.379" y2="-32.25"/>
				
					<line fill="none" stroke="#00ABEB" stroke-width="0.15" stroke-miterlimit="10" x1="157.213" y1="137.89" x2="157.213" y2="-32.25"/>
				
					<line fill="none" stroke="#00ABEB" stroke-width="0.15" stroke-miterlimit="10" x1="160.048" y1="137.89" x2="160.048" y2="-32.25"/>
				
					<line fill="none" stroke="#00ABEB" stroke-width="0.15" stroke-miterlimit="10" x1="162.883" y1="137.89" x2="162.883" y2="-32.25"/>
				
					<line fill="none" stroke="#00ABEB" stroke-width="0.15" stroke-miterlimit="10" x1="165.717" y1="137.89" x2="165.717" y2="-32.25"/>
				
					<line fill="none" stroke="#00ABEB" stroke-width="0.15" stroke-miterlimit="10" x1="168.552" y1="137.89" x2="168.552" y2="-32.25"/>
				
					<line fill="none" stroke="#00ABEB" stroke-width="0.15" stroke-miterlimit="10" x1="171.387" y1="137.89" x2="171.387" y2="-32.25"/>
				
					<line fill="none" stroke="#00ABEB" stroke-width="0.15" stroke-miterlimit="10" x1="174.221" y1="137.89" x2="174.221" y2="-32.25"/>
				
					<line fill="none" stroke="#00ABEB" stroke-width="0.15" stroke-miterlimit="10" x1="177.056" y1="137.89" x2="177.056" y2="-32.25"/>
				
					<line fill="none" stroke="#00ABEB" stroke-width="0.15" stroke-miterlimit="10" x1="179.891" y1="137.89" x2="179.891" y2="-32.25"/>
				
					<line fill="none" stroke="#00ABEB" stroke-width="0.15" stroke-miterlimit="10" x1="182.725" y1="137.89" x2="182.725" y2="-32.25"/>
				
					<line fill="none" stroke="#00ABEB" stroke-width="0.15" stroke-miterlimit="10" x1="185.56" y1="137.89" x2="185.56" y2="-32.25"/>
				
					<line fill="none" stroke="#00ABEB" stroke-width="0.15" stroke-miterlimit="10" x1="188.395" y1="137.89" x2="188.395" y2="-32.25"/>
				
					<line fill="none" stroke="#00ABEB" stroke-width="0.15" stroke-miterlimit="10" x1="191.23" y1="137.89" x2="191.23" y2="-32.25"/>
				
					<line fill="none" stroke="#00ABEB" stroke-width="0.15" stroke-miterlimit="10" x1="194.064" y1="137.89" x2="194.064" y2="-32.25"/>
				
					<line fill="none" stroke="#00ABEB" stroke-width="0.15" stroke-miterlimit="10" x1="196.898" y1="137.89" x2="196.898" y2="-32.25"/>
				
					<line fill="none" stroke="#00ABEB" stroke-width="0.15" stroke-miterlimit="10" x1="199.733" y1="137.89" x2="199.733" y2="-32.25"/>
				
					<line fill="none" stroke="#00ABEB" stroke-width="0.15" stroke-miterlimit="10" x1="202.568" y1="137.89" x2="202.568" y2="-32.25"/>
				
					<line fill="none" stroke="#00ABEB" stroke-width="0.15" stroke-miterlimit="10" x1="205.402" y1="137.89" x2="205.402" y2="-32.25"/>
				
					<line fill="none" stroke="#00ABEB" stroke-width="0.15" stroke-miterlimit="10" x1="208.237" y1="137.89" x2="208.237" y2="-32.25"/>
				
					<line fill="none" stroke="#00ABEB" stroke-width="0.15" stroke-miterlimit="10" x1="211.072" y1="137.89" x2="211.072" y2="-32.25"/>
				
					<line fill="none" stroke="#00ABEB" stroke-width="0.15" stroke-miterlimit="10" x1="213.906" y1="137.89" x2="213.906" y2="-32.25"/>
			</g>
			<g id="Horizontal_5_mm_1_">
				
					<line fill="none" stroke="#00ABEB" stroke-width="0.3" stroke-miterlimit="10" x1="-13.215" y1="137.904" x2="213.901" y2="137.904"/>
				
					<line fill="none" stroke="#00ABEB" stroke-width="0.3" stroke-miterlimit="10" x1="-13.215" y1="123.731" x2="213.901" y2="123.731"/>
				
					<line fill="none" stroke="#00ABEB" stroke-width="0.3" stroke-miterlimit="10" x1="-13.215" y1="109.558" x2="213.901" y2="109.558"/>
				
					<line fill="none" stroke="#00ABEB" stroke-width="0.3" stroke-miterlimit="10" x1="-13.215" y1="95.384" x2="213.901" y2="95.384"/>
				
					<line fill="none" stroke="#00ABEB" stroke-width="0.3" stroke-miterlimit="10" x1="-13.215" y1="81.211" x2="213.901" y2="81.211"/>
				
					<line fill="none" stroke="#00ABEB" stroke-width="0.3" stroke-miterlimit="10" x1="-13.215" y1="67.038" x2="213.901" y2="67.038"/>
				
					<line fill="none" stroke="#00ABEB" stroke-width="0.3" stroke-miterlimit="10" x1="-13.215" y1="52.865" x2="213.901" y2="52.865"/>
				
					<line fill="none" stroke="#00ABEB" stroke-width="0.3" stroke-miterlimit="10" x1="-13.215" y1="38.691" x2="213.901" y2="38.691"/>
				
					<line fill="none" stroke="#00ABEB" stroke-width="0.3" stroke-miterlimit="10" x1="-13.215" y1="24.518" x2="213.901" y2="24.518"/>
				
					<line fill="none" stroke="#00ABEB" stroke-width="0.3" stroke-miterlimit="10" x1="-13.215" y1="10.345" x2="213.901" y2="10.345"/>
				
					<line fill="none" stroke="#00ABEB" stroke-width="0.3" stroke-miterlimit="10" x1="-13.215" y1="-3.828" x2="213.901" y2="-3.828"/>
			</g>
			<g id="Vertical_5_mm">
				
					<line fill="none" stroke="#00ABEB" stroke-width="0.3" stroke-miterlimit="10" x1="-12.865" y1="137.89" x2="-12.865" y2="-32.525"/>
				
					<line fill="none" stroke="#00ABEB" stroke-width="0.3" stroke-miterlimit="10" x1="1.308" y1="137.89" x2="1.308" y2="-32.525"/>
				
					<line fill="none" stroke="#00ABEB" stroke-width="0.3" stroke-miterlimit="10" x1="15.481" y1="137.89" x2="15.481" y2="-32.525"/>
				
					<line fill="none" stroke="#00ABEB" stroke-width="0.3" stroke-miterlimit="10" x1="29.654" y1="137.89" x2="29.654" y2="-32.525"/>
				
					<line fill="none" stroke="#00ABEB" stroke-width="0.3" stroke-miterlimit="10" x1="43.828" y1="137.89" x2="43.828" y2="-32.525"/>
				
					<line fill="none" stroke="#00ABEB" stroke-width="0.3" stroke-miterlimit="10" x1="58.002" y1="137.89" x2="58.002" y2="-32.525"/>
				
					<line fill="none" stroke="#00ABEB" stroke-width="0.3" stroke-miterlimit="10" x1="72.174" y1="137.89" x2="72.174" y2="-32.525"/>
				
					<line fill="none" stroke="#00ABEB" stroke-width="0.3" stroke-miterlimit="10" x1="86.347" y1="137.89" x2="86.347" y2="-32.525"/>
				
					<line fill="none" stroke="#00ABEB" stroke-width="0.3" stroke-miterlimit="10" x1="100.52" y1="137.89" x2="100.52" y2="-32.525"/>
				
					<line fill="none" stroke="#00ABEB" stroke-width="0.3" stroke-miterlimit="10" x1="114.694" y1="137.89" x2="114.694" y2="-32.525"/>
				
					<line fill="none" stroke="#00ABEB" stroke-width="0.3" stroke-miterlimit="10" x1="128.867" y1="137.89" x2="128.867" y2="-32.525"/>
				
					<line fill="none" stroke="#00ABEB" stroke-width="0.3" stroke-miterlimit="10" x1="143.04" y1="137.89" x2="143.04" y2="-32.525"/>
				
					<line fill="none" stroke="#00ABEB" stroke-width="0.3" stroke-miterlimit="10" x1="157.213" y1="137.89" x2="157.213" y2="-32.525"/>
				
					<line fill="none" stroke="#00ABEB" stroke-width="0.3" stroke-miterlimit="10" x1="171.387" y1="137.89" x2="171.387" y2="-32.525"/>
				
					<line fill="none" stroke="#00ABEB" stroke-width="0.3" stroke-miterlimit="10" x1="185.56" y1="137.89" x2="185.56" y2="-32.525"/>
				
					<line fill="none" stroke="#00ABEB" stroke-width="0.3" stroke-miterlimit="10" x1="199.733" y1="137.89" x2="199.733" y2="-32.525"/>
				
					<line fill="none" stroke="#00ABEB" stroke-width="0.3" stroke-miterlimit="10" x1="213.906" y1="137.89" x2="213.906" y2="-32.525"/>
			</g>
			<g id="Horizontal_10_mm">
				
					<line id="_x31_9_1_" fill="none" stroke="#00ABEB" stroke-width="0.7" stroke-miterlimit="10" x1="-13.215" y1="137.904" x2="213.901" y2="137.904"/>
				
					<line id="_x32_0" fill="none" stroke="#00ABEB" stroke-width="0.7" stroke-miterlimit="10" x1="-13.215" y1="109.558" x2="213.901" y2="109.558"/>
				
					<line id="_x32_1" fill="none" stroke="#00ABEB" stroke-width="0.7" stroke-miterlimit="10" x1="-13.215" y1="81.211" x2="213.901" y2="81.211"/>
				
					<line id="_x32_2" fill="none" stroke="#00ABEB" stroke-width="0.7" stroke-miterlimit="10" x1="-13.215" y1="52.865" x2="213.901" y2="52.865"/>
				
					<line id="_x32_3" fill="none" stroke="#00ABEB" stroke-width="0.7" stroke-miterlimit="10" x1="-13.215" y1="24.518" x2="213.901" y2="24.518"/>
				
					<line id="_x32_4" fill="none" stroke="#00ABEB" stroke-width="0.7" stroke-miterlimit="10" x1="-13.215" y1="-3.828" x2="213.901" y2="-3.828"/>
				
					<line id="_x32_5" fill="none" stroke="#00ABEB" stroke-width="0.7" stroke-miterlimit="10" x1="-13.215" y1="-32.175" x2="213.901" y2="-32.175"/>
			</g>
			<g id="Vertical_10_mm">
				
					<line id="_x30_" fill="none" stroke="#00ABEB" stroke-width="0.7" stroke-miterlimit="10" x1="-12.865" y1="137.89" x2="-12.865" y2="-32.525"/>
				
					<line id="_x31_" fill="none" stroke="#00ABEB" stroke-width="0.7" stroke-miterlimit="10" x1="15.481" y1="137.89" x2="15.481" y2="-32.525"/>
				
					<line id="_x32_" fill="none" stroke="#00ABEB" stroke-width="0.7" stroke-miterlimit="10" x1="43.828" y1="137.89" x2="43.828" y2="-32.525"/>
				
					<line id="_x33_" fill="none" stroke="#00ABEB" stroke-width="0.7" stroke-miterlimit="10" x1="72.174" y1="137.89" x2="72.174" y2="-32.525"/>
				
					<line id="_x34_" fill="none" stroke="#00ABEB" stroke-width="0.7" stroke-miterlimit="10" x1="100.52" y1="137.89" x2="100.52" y2="-32.525"/>
				
					<line id="_x35_" fill="none" stroke="#00ABEB" stroke-width="0.7" stroke-miterlimit="10" x1="128.867" y1="137.89" x2="128.867" y2="-32.525"/>
				
					<line id="_x36_" fill="none" stroke="#00ABEB" stroke-width="0.7" stroke-miterlimit="10" x1="157.213" y1="137.89" x2="157.213" y2="-32.525"/>
				
					<line id="_x37_" fill="none" stroke="#00ABEB" stroke-width="0.7" stroke-miterlimit="10" x1="185.56" y1="137.89" x2="185.56" y2="-32.525"/>
				
					<line id="_x38_" fill="none" stroke="#00ABEB" stroke-width="0.7" stroke-miterlimit="10" x1="213.906" y1="137.89" x2="213.906" y2="-32.525"/>
			</g>
		</g>
	</g>
</g>
<g id="Layer_2">
	<circle cx="52.35" cy="33.29" r="1.472"/>
	<g>
		<g>
			<path fill="none" stroke="#0000FF" stroke-width="0.5" stroke-miterlimit="10" d="M21.687,11.868
				c12.515,1.855,24.03,9.384,30.498,21.376"/>
			<g>
				<polygon fill="#0000FF" points="22.989,14.167 23.385,13.861 21.875,11.912 23.929,10.549 23.652,10.132 21.15,11.793 				"/>
			</g>
		</g>
	</g>
	<g>
		<path d="M63.214,29.317c-0.636,0.888-1.163,1.283-1.727,1.283c-0.312,0-0.479-0.192-0.479-0.552c0-0.12,0.036-0.324,0.156-0.792
			l0.696-2.723c0.06-0.24,0.084-0.396,0.084-0.456c0-0.144-0.108-0.252-0.24-0.252c-0.36,0-0.971,0.564-1.571,1.403
			c-0.588,0.828-0.828,1.415-1.295,3.262h-0.899l0.324-1.115c0.528-1.823,0.815-3.094,0.815-3.25c0-0.192-0.108-0.3-0.264-0.3
			c-0.408,0-1.116,0.696-1.787,1.715c-0.408,0.624-0.576,1.055-1.151,2.95h-0.899l0.516-1.727c0.479-1.595,0.66-2.591,0.66-2.734
			c0-0.18-0.168-0.264-0.492-0.264h-0.3v-0.192l1.943-0.372l0.036,0.024l-0.696,2.507c1.067-1.739,1.907-2.531,2.639-2.531
			c0.479,0,0.719,0.288,0.719,0.72c0,0.228-0.156,0.899-0.479,1.823c0.839-1.331,1.331-1.931,1.919-2.303
			c0.288-0.18,0.516-0.24,0.755-0.24c0.444,0,0.696,0.324,0.696,0.755c0,0.084-0.024,0.276-0.036,0.336l-0.815,3.01
			c-0.072,0.276-0.12,0.492-0.12,0.54c0,0.132,0.048,0.192,0.144,0.192c0.204,0,0.42-0.192,0.78-0.636l0.252-0.312l0.18,0.144
			L63.214,29.317z"/>
	</g>
	<g>
		<g>
			<line fill="none" stroke="#00B200" stroke-width="0.5" stroke-miterlimit="10" x1="15.629" y1="52.962" x2="52.1" y2="33.545"/>
			<g>
				<polygon fill="#00B200" points="51.599,36.128 51.125,35.965 51.931,33.635 49.548,33.002 49.677,32.519 52.579,33.29 				"/>
			</g>
		</g>
	</g>
	<g>
		<g>
			
				<line fill="none" stroke="#000000" stroke-width="0.21" stroke-miterlimit="10" x1="15.475" y1="3.192" x2="15.475" y2="52.962"/>
			<g>
				<polygon points="14.698,3.782 15.475,3.451 16.253,3.782 15.475,1.938 				"/>
			</g>
		</g>
	</g>
	<g>
		<g>
			
				<line fill="none" stroke="#000000" stroke-width="0.21" stroke-miterlimit="10" x1="65.246" y1="52.962" x2="15.475" y2="52.962"/>
			<g>
				<polygon points="64.656,52.184 64.986,52.962 64.656,53.74 66.499,52.962 				"/>
			</g>
		</g>
	</g>
	<g>
		<path d="M20.088,60.666c-1.451,0-2.591-1.188-2.591-2.854s1.08-2.783,2.699-2.783c1.463,0,2.59,1.091,2.59,2.747
			C22.787,59.442,21.708,60.666,20.088,60.666z M21.108,55.964c-0.288-0.36-0.624-0.6-1.14-0.6c-0.828,0-1.391,0.708-1.391,1.907
			c0,0.948,0.192,1.811,0.636,2.459c0.264,0.384,0.647,0.6,1.079,0.6c0.888,0,1.416-0.839,1.416-2.231
			C21.708,57.284,21.492,56.456,21.108,55.964z"/>
	</g>
	<g display="none">
		<g display="inline">
			
				<line fill="none" stroke="#FF0000" stroke-width="0.35" stroke-miterlimit="10" x1="44.017" y1="19.272" x2="52.326" y2="33.119"/>
			<g>
				<polygon fill="#FF0000" points="43.386,21.003 43.729,21.075 44.086,19.387 45.744,19.866 45.841,19.53 43.822,18.946 				"/>
			</g>
		</g>
	</g>
	<g display="none">
		<g display="inline">
			<path fill="#FF0000" d="M43.842,16.471c0.863-0.888,1.643-2.207,1.643-2.771c0-0.12-0.06-0.204-0.216-0.348
				c-0.216-0.192-0.3-0.348-0.3-0.54c0-0.252,0.204-0.408,0.456-0.408c0.396,0,0.672,0.384,0.672,0.708
				c0,0.516-0.336,1.211-0.756,1.859c-0.54,0.84-1.211,1.607-1.427,1.835c-0.66,0.708-0.983,1.104-1.187,1.104
				c-0.072,0-0.108-0.12-0.108-0.324v-0.288c0-0.827-0.132-2.422-0.288-3.334s-0.288-1.115-0.731-1.115c-0.12,0-0.24,0-0.372,0.012
				v-0.156c0.54-0.084,0.959-0.168,1.343-0.252c0.096-0.036,0.18-0.048,0.24-0.048c0.108,0,0.108,0.072,0.36,1.367
				c0.156,0.804,0.228,1.463,0.3,3.083L43.842,16.471z"/>
		</g>
		<g display="inline">
			<g>
				
					<line fill="none" stroke="#FF0000" stroke-width="0.3" stroke-miterlimit="10" x1="40.987" y1="10.442" x2="46.331" y2="10.442"/>
				<g>
					<polygon fill="#FF0000" points="45.337,11.669 45.133,11.449 46.216,10.442 45.133,9.435 45.337,9.215 46.657,10.442 					"/>
				</g>
			</g>
		</g>
	</g>
	<g>
		<path fill="#0000FF" d="M30.246,7.965v0.216c0,0.576,0.144,1.188,0.408,1.188c0.168,0,0.36-0.228,0.612-0.888l0.192,0.084
			c-0.264,0.888-0.636,1.511-1.211,1.511c-0.456,0-0.6-0.528-0.624-1.259c-0.6,0.731-1.427,1.283-2.327,1.283
			c-1.164,0-1.607-0.815-1.607-1.823c0-0.972,0.42-1.991,1.091-2.675c0.528-0.54,1.332-0.923,2.075-0.923
			c1.019,0,1.511,0.72,1.511,1.427l0.551-1.271h1.032L30.246,7.965z M28.747,4.931c-0.756,0-2.075,1.631-2.075,3.538
			c0,0.684,0.216,1.379,0.828,1.379c0.839,0,1.655-1.619,1.979-2.291C29.526,7.33,29.67,7.03,29.67,6.706
			C29.67,5.891,29.514,4.931,28.747,4.931z"/>
	</g>
	<g>
		<path fill="#00B200" d="M34.786,38.529c0.228-0.504,0.636-1.14,1.127-1.655c0.312-0.324,0.671-0.54,0.947-0.54
			c0.336,0,0.564,0.252,0.564,0.612c0,0.359-0.204,0.647-0.564,0.647c-0.216,0-0.312-0.132-0.419-0.312
			c-0.072-0.12-0.108-0.167-0.192-0.167c-0.216,0-0.552,0.396-0.983,1.127c-0.516,0.888-0.732,1.367-1.332,3.382h-0.912l0.972-3.502
			c0.168-0.624,0.192-0.732,0.192-0.983c0-0.252-0.216-0.312-0.456-0.312c-0.096,0-0.192,0.012-0.372,0.036v-0.204l1.859-0.324
			l0.036,0.024l-0.66,2.591L34.786,38.529z"/>
	</g>
	<g>
		<g>
			
				<line fill="none" stroke="#FF0000" stroke-width="0.55" stroke-miterlimit="10" x1="44.231" y1="19.628" x2="52.428" y2="33.29"/>
			<g>
				<polygon fill="#FF0000" points="43.24,22.348 43.778,22.462 44.339,19.809 46.944,20.563 47.097,20.034 43.924,19.117 				"/>
			</g>
		</g>
	</g>
	<g>
		<g>
			<path fill="#FF0000" d="M50.401,10.796c0.264-0.852,0.468-1.511,0.864-2.075c0.36-0.516,0.852-0.923,1.583-0.923
				c0.588,0,1.032,0.312,1.032,0.743c0,0.264-0.228,0.516-0.504,0.516c-0.216,0-0.444-0.18-0.444-0.468
				c0-0.204,0.12-0.264,0.12-0.372c0-0.096-0.096-0.156-0.264-0.156c-0.671,0-1.115,0.839-1.463,2.734h1.283l-0.072,0.384H51.24
				l-0.864,3.838c-0.503,2.219-1.307,3.394-2.398,3.394c-0.54,0-0.948-0.312-0.948-0.731c0-0.276,0.204-0.503,0.456-0.503
				c0.276,0,0.456,0.191,0.456,0.443c0,0.156-0.108,0.216-0.108,0.348c0,0.108,0.096,0.192,0.24,0.192
				c0.504,0,0.888-0.648,1.164-1.943l1.055-5.037h-1.091l0.084-0.384H50.401z"/>
		</g>
		<g>
			<g>
				<line fill="none" stroke="#FF0000" stroke-width="0.3" stroke-miterlimit="10" x1="48.176" y1="6.028" x2="53.818" y2="6.028"/>
				<g>
					<polygon fill="#FF0000" points="52.824,7.255 52.619,7.036 53.703,6.029 52.619,5.022 52.824,4.802 54.143,6.029 					"/>
				</g>
			</g>
		</g>
	</g>
	<g>
		<g>
			<line fill="none" stroke="#0000FF" stroke-width="0.3" stroke-miterlimit="10" x1="25.688" y1="2.952" x2="31.627" y2="2.952"/>
			<g>
				<polygon fill="#0000FF" points="30.633,4.179 30.428,3.96 31.512,2.953 30.428,1.945 30.633,1.726 31.952,2.953 				"/>
			</g>
		</g>
	</g>
	<g>
		<g>
			
				<line fill="none" stroke="#00B200" stroke-width="0.3" stroke-miterlimit="10" x1="33.024" y1="34.537" x2="37.753" y2="34.537"/>
			<g>
				<polygon fill="#00B200" points="36.759,35.764 36.555,35.544 37.638,34.537 36.555,33.53 36.759,33.31 38.079,34.537 				"/>
			</g>
		</g>
	</g>
	<g>
		<g>
			<path fill="#FF00FF" d="M10.687,52.441H9.092c-0.839,1.907-0.839,2.687-0.839,2.854c0,0.36,0.12,0.611,0.432,0.611
				c0.3,0,0.696-0.396,0.899-0.827h0.192c-0.276,0.936-0.972,1.739-1.739,1.739c-0.563,0-0.768-0.336-0.768-0.852
				c0-0.875,0.612-2.291,1.176-3.526H7.713c-0.647,0-1.199,0.432-1.547,1.055H5.974c0.324-0.779,1.151-1.943,2.351-1.943h2.615
				L10.687,52.441z"/>
		</g>
		<g>
			<g>
				
					<line fill="none" stroke="#FF00FF" stroke-width="0.3" stroke-miterlimit="10" x1="5.974" y1="49.708" x2="11.049" y2="49.708"/>
				<g>
					<polygon fill="#FF00FF" points="10.055,50.935 9.85,50.715 10.934,49.708 9.85,48.701 10.055,48.481 11.374,49.708 					"/>
				</g>
			</g>
		</g>
	</g>
	<g>
		<circle fill="none" stroke="#FF00FF" stroke-width="0.5" stroke-miterlimit="10" cx="15.475" cy="52.962" r="1.896"/>
		<circle fill="#FF00FF" cx="15.475" cy="52.962" r="0.413"/>
	</g>
	<g>
		<g>
			<path fill="none" stroke="#00D6D6" stroke-width="0.3" stroke-miterlimit="10" d="M38.343,42.895
				c1.358,3.079,2.111,6.485,2.111,10.067"/>
			<g>
				<polygon fill="#00D6D6" points="37.644,44.142 38.459,43.252 39.665,43.22 37.563,41.285 				"/>
			</g>
		</g>
	</g>
	<g>
		<path fill="#00D6D6" d="M44.969,47.616c-0.673,0.891-1.399,1.212-2.124,1.212c-0.839,0-1.326-0.684-1.326-1.782
			c0-2.228,1.171-4.062,2.3-4.921c0.456-0.342,0.85-0.435,1.264-0.435c0.736,0,1.274,0.497,1.274,1.73
			C46.357,45.098,45.735,46.59,44.969,47.616z M42.69,45.45c-0.197,0.518-0.301,1.057-0.301,1.709c0,0.922,0.197,1.451,0.581,1.451
			c0.995,0,1.885-2.145,2.134-3.16H42.69z M45.176,45.119c0.176-0.601,0.311-1.347,0.311-2.124c0-0.663-0.187-1.088-0.549-1.088
			c-0.901,0-1.917,2.29-2.176,3.212H45.176z"/>
	</g>
	<g>
	</g>
	<g>
	</g>
</g>
</svg>
