<?xml version="1.0" encoding="utf-8"?>
<!-- Generator: Adobe Illustrator 25.4.1, SVG Export Plug-In . SVG Version: 6.00 Build 0)  -->
<svg version="1.1" xmlns="http://www.w3.org/2000/svg" xmlns:xlink="http://www.w3.org/1999/xlink" x="0px" y="0px"
	 viewBox="0 0 50.503 44.518" enable-background="new 0 0 50.503 44.518" xml:space="preserve">
<g id="Graph_paper_slanted" opacity="0.5">
	<g id="Clipped_grid_00000003068028900943026870000011536296927355263674_">
		<defs>
			<polygon id="SVGID_1_" points="35.896,46.505 -29.647,46.505 4.827,12.031 70.37,12.031 			"/>
		</defs>
		<clipPath id="SVGID_00000109741474545575886330000000271226933245194912_">
			<use xlink:href="#SVGID_1_"  overflow="visible"/>
		</clipPath>
		
			<g id="Grid_00000142891597197125820610000009767860333217090727_" opacity="0.25" clip-path="url(#SVGID_00000109741474545575886330000000271226933245194912_)">
			<g id="Horizontal_1_mm_00000151508609497893311650000018408800186222605470_">
				
					<line fill="none" stroke="#00ABEB" stroke-width="0.15" stroke-miterlimit="10" x1="-35.453" y1="-29.036" x2="191.388" y2="-29.036"/>
				
					<line fill="none" stroke="#00ABEB" stroke-width="0.15" stroke-miterlimit="10" x1="-33.464" y1="-31.024" x2="193.376" y2="-31.024"/>
				
					<line fill="none" stroke="#00ABEB" stroke-width="0.15" stroke-miterlimit="10" x1="-152.741" y1="88.252" x2="74.1" y2="88.252"/>
				
					<line fill="none" stroke="#00ABEB" stroke-width="0.15" stroke-miterlimit="10" x1="-150.753" y1="86.264" x2="76.088" y2="86.264"/>
				
					<line fill="none" stroke="#00ABEB" stroke-width="0.15" stroke-miterlimit="10" x1="-148.766" y1="84.277" x2="78.075" y2="84.277"/>
				
					<line fill="none" stroke="#00ABEB" stroke-width="0.15" stroke-miterlimit="10" x1="-146.778" y1="82.289" x2="80.063" y2="82.289"/>
				
					<line fill="none" stroke="#00ABEB" stroke-width="0.15" stroke-miterlimit="10" x1="-144.789" y1="80.3" x2="82.052" y2="80.3"/>
				
					<line fill="none" stroke="#00ABEB" stroke-width="0.15" stroke-miterlimit="10" x1="-142.802" y1="78.313" x2="84.039" y2="78.313"/>
				
					<line fill="none" stroke="#00ABEB" stroke-width="0.15" stroke-miterlimit="10" x1="-140.814" y1="76.325" x2="86.027" y2="76.325"/>
				
					<line fill="none" stroke="#00ABEB" stroke-width="0.15" stroke-miterlimit="10" x1="-138.826" y1="74.337" x2="88.015" y2="74.337"/>
				
					<line fill="none" stroke="#00ABEB" stroke-width="0.15" stroke-miterlimit="10" x1="-136.838" y1="72.349" x2="90.003" y2="72.349"/>
				
					<line fill="none" stroke="#00ABEB" stroke-width="0.15" stroke-miterlimit="10" x1="-134.85" y1="70.361" x2="91.991" y2="70.361"/>
				
					<line fill="none" stroke="#00ABEB" stroke-width="0.15" stroke-miterlimit="10" x1="-132.862" y1="68.373" x2="93.979" y2="68.373"/>
				
					<line fill="none" stroke="#00ABEB" stroke-width="0.15" stroke-miterlimit="10" x1="-130.874" y1="66.385" x2="95.967" y2="66.385"/>
				
					<line fill="none" stroke="#00ABEB" stroke-width="0.15" stroke-miterlimit="10" x1="-128.886" y1="64.397" x2="97.955" y2="64.397"/>
				
					<line fill="none" stroke="#00ABEB" stroke-width="0.15" stroke-miterlimit="10" x1="-126.898" y1="62.41" x2="99.943" y2="62.41"/>
				
					<line fill="none" stroke="#00ABEB" stroke-width="0.15" stroke-miterlimit="10" x1="-124.91" y1="60.421" x2="101.931" y2="60.421"/>
				
					<line fill="none" stroke="#00ABEB" stroke-width="0.15" stroke-miterlimit="10" x1="-122.922" y1="58.433" x2="103.919" y2="58.433"/>
				
					<line fill="none" stroke="#00ABEB" stroke-width="0.15" stroke-miterlimit="10" x1="-120.934" y1="56.446" x2="105.906" y2="56.446"/>
				
					<line fill="none" stroke="#00ABEB" stroke-width="0.15" stroke-miterlimit="10" x1="-118.946" y1="54.458" x2="107.895" y2="54.458"/>
				
					<line fill="none" stroke="#00ABEB" stroke-width="0.15" stroke-miterlimit="10" x1="-116.958" y1="52.469" x2="109.883" y2="52.469"/>
				
					<line fill="none" stroke="#00ABEB" stroke-width="0.15" stroke-miterlimit="10" x1="-114.971" y1="50.482" x2="111.87" y2="50.482"/>
				
					<line fill="none" stroke="#00ABEB" stroke-width="0.15" stroke-miterlimit="10" x1="-112.982" y1="48.494" x2="113.858" y2="48.494"/>
				
					<line fill="none" stroke="#00ABEB" stroke-width="0.15" stroke-miterlimit="10" x1="-110.994" y1="46.505" x2="115.847" y2="46.505"/>
				
					<line fill="none" stroke="#00ABEB" stroke-width="0.15" stroke-miterlimit="10" x1="-109.007" y1="44.518" x2="117.834" y2="44.518"/>
				
					<line fill="none" stroke="#00ABEB" stroke-width="0.15" stroke-miterlimit="10" x1="-107.018" y1="42.53" x2="119.823" y2="42.53"/>
				
					<line fill="none" stroke="#00ABEB" stroke-width="0.15" stroke-miterlimit="10" x1="-105.031" y1="40.542" x2="121.81" y2="40.542"/>
				
					<line fill="none" stroke="#00ABEB" stroke-width="0.15" stroke-miterlimit="10" x1="-103.043" y1="38.554" x2="123.798" y2="38.554"/>
				
					<line fill="none" stroke="#00ABEB" stroke-width="0.15" stroke-miterlimit="10" x1="-101.054" y1="36.566" x2="125.786" y2="36.566"/>
				
					<line fill="none" stroke="#00ABEB" stroke-width="0.15" stroke-miterlimit="10" x1="-99.067" y1="34.578" x2="127.774" y2="34.578"/>
				
					<line fill="none" stroke="#00ABEB" stroke-width="0.15" stroke-miterlimit="10" x1="-97.079" y1="32.59" x2="129.762" y2="32.59"/>
				
					<line fill="none" stroke="#00ABEB" stroke-width="0.15" stroke-miterlimit="10" x1="-95.091" y1="30.602" x2="131.75" y2="30.602"/>
				
					<line fill="none" stroke="#00ABEB" stroke-width="0.15" stroke-miterlimit="10" x1="-93.103" y1="28.615" x2="133.738" y2="28.615"/>
				
					<line fill="none" stroke="#00ABEB" stroke-width="0.15" stroke-miterlimit="10" x1="-91.115" y1="26.627" x2="135.726" y2="26.627"/>
				
					<line fill="none" stroke="#00ABEB" stroke-width="0.15" stroke-miterlimit="10" x1="-89.127" y1="24.638" x2="137.714" y2="24.638"/>
				
					<line fill="none" stroke="#00ABEB" stroke-width="0.15" stroke-miterlimit="10" x1="-87.139" y1="22.651" x2="139.701" y2="22.651"/>
				
					<line fill="none" stroke="#00ABEB" stroke-width="0.15" stroke-miterlimit="10" x1="-85.151" y1="20.663" x2="141.69" y2="20.663"/>
				
					<line fill="none" stroke="#00ABEB" stroke-width="0.15" stroke-miterlimit="10" x1="-83.163" y1="18.675" x2="143.678" y2="18.675"/>
				
					<line fill="none" stroke="#00ABEB" stroke-width="0.15" stroke-miterlimit="10" x1="-81.176" y1="16.687" x2="145.665" y2="16.687"/>
				
					<line fill="none" stroke="#00ABEB" stroke-width="0.15" stroke-miterlimit="10" x1="-79.187" y1="14.699" x2="147.653" y2="14.699"/>
				
					<line fill="none" stroke="#00ABEB" stroke-width="0.15" stroke-miterlimit="10" x1="-77.199" y1="12.711" x2="149.642" y2="12.711"/>
				
					<line fill="none" stroke="#00ABEB" stroke-width="0.15" stroke-miterlimit="10" x1="-75.212" y1="10.723" x2="151.629" y2="10.723"/>
				
					<line fill="none" stroke="#00ABEB" stroke-width="0.15" stroke-miterlimit="10" x1="-73.223" y1="8.735" x2="153.618" y2="8.735"/>
				
					<line fill="none" stroke="#00ABEB" stroke-width="0.15" stroke-miterlimit="10" x1="-71.236" y1="6.747" x2="155.605" y2="6.747"/>
				
					<line fill="none" stroke="#00ABEB" stroke-width="0.15" stroke-miterlimit="10" x1="-69.248" y1="4.759" x2="157.593" y2="4.759"/>
				
					<line fill="none" stroke="#00ABEB" stroke-width="0.15" stroke-miterlimit="10" x1="-67.259" y1="2.771" x2="159.581" y2="2.771"/>
				
					<line fill="none" stroke="#00ABEB" stroke-width="0.15" stroke-miterlimit="10" x1="-65.272" y1="0.784" x2="161.569" y2="0.784"/>
				
					<line fill="none" stroke="#00ABEB" stroke-width="0.15" stroke-miterlimit="10" x1="-63.284" y1="-1.205" x2="163.557" y2="-1.205"/>
				
					<line fill="none" stroke="#00ABEB" stroke-width="0.15" stroke-miterlimit="10" x1="-61.296" y1="-3.193" x2="165.545" y2="-3.193"/>
				
					<line fill="none" stroke="#00ABEB" stroke-width="0.15" stroke-miterlimit="10" x1="-59.308" y1="-5.18" x2="167.533" y2="-5.18"/>
				
					<line fill="none" stroke="#00ABEB" stroke-width="0.15" stroke-miterlimit="10" x1="-57.32" y1="-7.168" x2="169.521" y2="-7.168"/>
				
					<line fill="none" stroke="#00ABEB" stroke-width="0.15" stroke-miterlimit="10" x1="-55.332" y1="-9.157" x2="171.509" y2="-9.157"/>
				
					<line fill="none" stroke="#00ABEB" stroke-width="0.15" stroke-miterlimit="10" x1="-53.344" y1="-11.144" x2="173.497" y2="-11.144"/>
				
					<line fill="none" stroke="#00ABEB" stroke-width="0.15" stroke-miterlimit="10" x1="-51.356" y1="-13.132" x2="175.485" y2="-13.132"/>
				
					<line fill="none" stroke="#00ABEB" stroke-width="0.15" stroke-miterlimit="10" x1="-49.368" y1="-15.12" x2="177.473" y2="-15.12"/>
				
					<line fill="none" stroke="#00ABEB" stroke-width="0.15" stroke-miterlimit="10" x1="-47.381" y1="-17.108" x2="179.46" y2="-17.108"/>
				
					<line fill="none" stroke="#00ABEB" stroke-width="0.15" stroke-miterlimit="10" x1="-45.392" y1="-19.096" x2="181.449" y2="-19.096"/>
				
					<line fill="none" stroke="#00ABEB" stroke-width="0.15" stroke-miterlimit="10" x1="-43.405" y1="-21.084" x2="183.436" y2="-21.084"/>
				
					<line fill="none" stroke="#00ABEB" stroke-width="0.15" stroke-miterlimit="10" x1="-41.416" y1="-23.072" x2="185.424" y2="-23.072"/>
				
					<line fill="none" stroke="#00ABEB" stroke-width="0.15" stroke-miterlimit="10" x1="-39.428" y1="-25.06" x2="187.413" y2="-25.06"/>
				
					<line fill="none" stroke="#00ABEB" stroke-width="0.15" stroke-miterlimit="10" x1="-37.441" y1="-27.048" x2="189.4" y2="-27.048"/>
			</g>
			<g id="Vertical_1_mm_00000181073523592228201180000012361058669048395659_">
				<g>
					
						<line fill="none" stroke="#00ABEB" stroke-width="0.15" stroke-miterlimit="10" x1="-152.656" y1="88.243" x2="-33.336" y2="-31.077"/>
				</g>
				
					<line fill="none" stroke="#00ABEB" stroke-width="0.15" stroke-miterlimit="10" x1="-149.822" y1="88.243" x2="-30.502" y2="-31.077"/>
				
					<line fill="none" stroke="#00ABEB" stroke-width="0.15" stroke-miterlimit="10" x1="-146.988" y1="88.243" x2="-27.668" y2="-31.077"/>
				
					<line fill="none" stroke="#00ABEB" stroke-width="0.15" stroke-miterlimit="10" x1="-144.153" y1="88.243" x2="-24.833" y2="-31.077"/>
				
					<line fill="none" stroke="#00ABEB" stroke-width="0.15" stroke-miterlimit="10" x1="-141.319" y1="88.243" x2="-21.999" y2="-31.077"/>
				
					<line fill="none" stroke="#00ABEB" stroke-width="0.15" stroke-miterlimit="10" x1="-138.484" y1="88.243" x2="-19.164" y2="-31.077"/>
				
					<line fill="none" stroke="#00ABEB" stroke-width="0.15" stroke-miterlimit="10" x1="-135.649" y1="88.243" x2="-16.329" y2="-31.077"/>
				
					<line fill="none" stroke="#00ABEB" stroke-width="0.15" stroke-miterlimit="10" x1="-132.815" y1="88.243" x2="-13.495" y2="-31.077"/>
				
					<line fill="none" stroke="#00ABEB" stroke-width="0.15" stroke-miterlimit="10" x1="-129.979" y1="88.243" x2="-10.659" y2="-31.077"/>
				
					<line fill="none" stroke="#00ABEB" stroke-width="0.15" stroke-miterlimit="10" x1="-127.145" y1="88.243" x2="-7.825" y2="-31.077"/>
				
					<line fill="none" stroke="#00ABEB" stroke-width="0.15" stroke-miterlimit="10" x1="-124.31" y1="88.243" x2="-4.99" y2="-31.077"/>
				
					<line fill="none" stroke="#00ABEB" stroke-width="0.15" stroke-miterlimit="10" x1="-121.475" y1="88.243" x2="-2.155" y2="-31.077"/>
				
					<line fill="none" stroke="#00ABEB" stroke-width="0.15" stroke-miterlimit="10" x1="-118.641" y1="88.243" x2="0.679" y2="-31.077"/>
				
					<line fill="none" stroke="#00ABEB" stroke-width="0.15" stroke-miterlimit="10" x1="-115.806" y1="88.243" x2="3.514" y2="-31.077"/>
				
					<line fill="none" stroke="#00ABEB" stroke-width="0.15" stroke-miterlimit="10" x1="-112.971" y1="88.243" x2="6.349" y2="-31.077"/>
				
					<line fill="none" stroke="#00ABEB" stroke-width="0.15" stroke-miterlimit="10" x1="-110.137" y1="88.243" x2="9.183" y2="-31.077"/>
				
					<line fill="none" stroke="#00ABEB" stroke-width="0.15" stroke-miterlimit="10" x1="-107.302" y1="88.243" x2="12.018" y2="-31.077"/>
				
					<line fill="none" stroke="#00ABEB" stroke-width="0.15" stroke-miterlimit="10" x1="-104.468" y1="88.243" x2="14.852" y2="-31.077"/>
				
					<line fill="none" stroke="#00ABEB" stroke-width="0.15" stroke-miterlimit="10" x1="-101.634" y1="88.243" x2="17.686" y2="-31.077"/>
				
					<line fill="none" stroke="#00ABEB" stroke-width="0.15" stroke-miterlimit="10" x1="-98.799" y1="88.243" x2="20.521" y2="-31.077"/>
				
					<line fill="none" stroke="#00ABEB" stroke-width="0.15" stroke-miterlimit="10" x1="-95.964" y1="88.243" x2="23.356" y2="-31.077"/>
				
					<line fill="none" stroke="#00ABEB" stroke-width="0.15" stroke-miterlimit="10" x1="-93.13" y1="88.243" x2="26.19" y2="-31.077"/>
				
					<line fill="none" stroke="#00ABEB" stroke-width="0.15" stroke-miterlimit="10" x1="-90.295" y1="88.243" x2="29.025" y2="-31.077"/>
				
					<line fill="none" stroke="#00ABEB" stroke-width="0.15" stroke-miterlimit="10" x1="-87.46" y1="88.243" x2="31.86" y2="-31.077"/>
				
					<line fill="none" stroke="#00ABEB" stroke-width="0.15" stroke-miterlimit="10" x1="-84.625" y1="88.243" x2="34.695" y2="-31.077"/>
				
					<line fill="none" stroke="#00ABEB" stroke-width="0.15" stroke-miterlimit="10" x1="-81.79" y1="88.243" x2="37.53" y2="-31.077"/>
				
					<line fill="none" stroke="#00ABEB" stroke-width="0.15" stroke-miterlimit="10" x1="-78.956" y1="88.243" x2="40.364" y2="-31.077"/>
				
					<line fill="none" stroke="#00ABEB" stroke-width="0.15" stroke-miterlimit="10" x1="-76.121" y1="88.243" x2="43.199" y2="-31.077"/>
				
					<line fill="none" stroke="#00ABEB" stroke-width="0.15" stroke-miterlimit="10" x1="-73.286" y1="88.243" x2="46.034" y2="-31.077"/>
				
					<line fill="none" stroke="#00ABEB" stroke-width="0.15" stroke-miterlimit="10" x1="-70.452" y1="88.243" x2="48.868" y2="-31.077"/>
				
					<line fill="none" stroke="#00ABEB" stroke-width="0.15" stroke-miterlimit="10" x1="-67.617" y1="88.243" x2="51.703" y2="-31.077"/>
				
					<line fill="none" stroke="#00ABEB" stroke-width="0.15" stroke-miterlimit="10" x1="-64.782" y1="88.243" x2="54.538" y2="-31.077"/>
				
					<line fill="none" stroke="#00ABEB" stroke-width="0.15" stroke-miterlimit="10" x1="-61.948" y1="88.243" x2="57.372" y2="-31.077"/>
				
					<line fill="none" stroke="#00ABEB" stroke-width="0.15" stroke-miterlimit="10" x1="-59.114" y1="88.243" x2="60.206" y2="-31.077"/>
				
					<line fill="none" stroke="#00ABEB" stroke-width="0.15" stroke-miterlimit="10" x1="-56.279" y1="88.243" x2="63.041" y2="-31.077"/>
				
					<line fill="none" stroke="#00ABEB" stroke-width="0.15" stroke-miterlimit="10" x1="-53.445" y1="88.243" x2="65.875" y2="-31.077"/>
				
					<line fill="none" stroke="#00ABEB" stroke-width="0.15" stroke-miterlimit="10" x1="-50.61" y1="88.243" x2="68.71" y2="-31.077"/>
				
					<line fill="none" stroke="#00ABEB" stroke-width="0.15" stroke-miterlimit="10" x1="-47.775" y1="88.243" x2="71.545" y2="-31.077"/>
				
					<line fill="none" stroke="#00ABEB" stroke-width="0.15" stroke-miterlimit="10" x1="-44.941" y1="88.243" x2="74.379" y2="-31.077"/>
				
					<line fill="none" stroke="#00ABEB" stroke-width="0.15" stroke-miterlimit="10" x1="-42.106" y1="88.243" x2="77.214" y2="-31.077"/>
				
					<line fill="none" stroke="#00ABEB" stroke-width="0.15" stroke-miterlimit="10" x1="-39.272" y1="88.243" x2="80.048" y2="-31.077"/>
				
					<line fill="none" stroke="#00ABEB" stroke-width="0.15" stroke-miterlimit="10" x1="-36.436" y1="88.243" x2="82.884" y2="-31.077"/>
				
					<line fill="none" stroke="#00ABEB" stroke-width="0.15" stroke-miterlimit="10" x1="-33.601" y1="88.243" x2="85.719" y2="-31.077"/>
				
					<line fill="none" stroke="#00ABEB" stroke-width="0.15" stroke-miterlimit="10" x1="-30.767" y1="88.243" x2="88.553" y2="-31.077"/>
				
					<line fill="none" stroke="#00ABEB" stroke-width="0.15" stroke-miterlimit="10" x1="-27.932" y1="88.243" x2="91.388" y2="-31.077"/>
				
					<line fill="none" stroke="#00ABEB" stroke-width="0.15" stroke-miterlimit="10" x1="-25.097" y1="88.243" x2="94.223" y2="-31.077"/>
				
					<line fill="none" stroke="#00ABEB" stroke-width="0.15" stroke-miterlimit="10" x1="-22.263" y1="88.243" x2="97.057" y2="-31.077"/>
				
					<line fill="none" stroke="#00ABEB" stroke-width="0.15" stroke-miterlimit="10" x1="-19.428" y1="88.243" x2="99.892" y2="-31.077"/>
				
					<line fill="none" stroke="#00ABEB" stroke-width="0.15" stroke-miterlimit="10" x1="-16.594" y1="88.243" x2="102.726" y2="-31.077"/>
				
					<line fill="none" stroke="#00ABEB" stroke-width="0.15" stroke-miterlimit="10" x1="-13.76" y1="88.243" x2="105.56" y2="-31.077"/>
				
					<line fill="none" stroke="#00ABEB" stroke-width="0.15" stroke-miterlimit="10" x1="-10.925" y1="88.243" x2="108.395" y2="-31.077"/>
				
					<line fill="none" stroke="#00ABEB" stroke-width="0.15" stroke-miterlimit="10" x1="-8.09" y1="88.243" x2="111.23" y2="-31.077"/>
				
					<line fill="none" stroke="#00ABEB" stroke-width="0.15" stroke-miterlimit="10" x1="-5.256" y1="88.243" x2="114.064" y2="-31.077"/>
				
					<line fill="none" stroke="#00ABEB" stroke-width="0.15" stroke-miterlimit="10" x1="-2.421" y1="88.243" x2="116.899" y2="-31.077"/>
				
					<line fill="none" stroke="#00ABEB" stroke-width="0.15" stroke-miterlimit="10" x1="0.414" y1="88.243" x2="119.734" y2="-31.077"/>
				
					<line fill="none" stroke="#00ABEB" stroke-width="0.15" stroke-miterlimit="10" x1="3.248" y1="88.243" x2="122.568" y2="-31.077"/>
				
					<line fill="none" stroke="#00ABEB" stroke-width="0.15" stroke-miterlimit="10" x1="6.084" y1="88.243" x2="125.404" y2="-31.077"/>
				
					<line fill="none" stroke="#00ABEB" stroke-width="0.15" stroke-miterlimit="10" x1="8.918" y1="88.243" x2="128.238" y2="-31.077"/>
				
					<line fill="none" stroke="#00ABEB" stroke-width="0.15" stroke-miterlimit="10" x1="11.753" y1="88.243" x2="131.073" y2="-31.077"/>
				
					<line fill="none" stroke="#00ABEB" stroke-width="0.15" stroke-miterlimit="10" x1="14.588" y1="88.243" x2="133.908" y2="-31.077"/>
				
					<line fill="none" stroke="#00ABEB" stroke-width="0.15" stroke-miterlimit="10" x1="17.422" y1="88.243" x2="136.742" y2="-31.077"/>
				
					<line fill="none" stroke="#00ABEB" stroke-width="0.15" stroke-miterlimit="10" x1="20.257" y1="88.243" x2="139.577" y2="-31.077"/>
				
					<line fill="none" stroke="#00ABEB" stroke-width="0.15" stroke-miterlimit="10" x1="23.092" y1="88.243" x2="142.412" y2="-31.077"/>
				
					<line fill="none" stroke="#00ABEB" stroke-width="0.15" stroke-miterlimit="10" x1="25.926" y1="88.243" x2="145.246" y2="-31.077"/>
				
					<line fill="none" stroke="#00ABEB" stroke-width="0.15" stroke-miterlimit="10" x1="28.76" y1="88.243" x2="148.08" y2="-31.077"/>
				
					<line fill="none" stroke="#00ABEB" stroke-width="0.15" stroke-miterlimit="10" x1="31.595" y1="88.243" x2="150.915" y2="-31.077"/>
				
					<line fill="none" stroke="#00ABEB" stroke-width="0.15" stroke-miterlimit="10" x1="34.429" y1="88.243" x2="153.749" y2="-31.077"/>
				
					<line fill="none" stroke="#00ABEB" stroke-width="0.15" stroke-miterlimit="10" x1="37.264" y1="88.243" x2="156.584" y2="-31.077"/>
				
					<line fill="none" stroke="#00ABEB" stroke-width="0.15" stroke-miterlimit="10" x1="40.099" y1="88.243" x2="159.419" y2="-31.077"/>
				
					<line fill="none" stroke="#00ABEB" stroke-width="0.15" stroke-miterlimit="10" x1="42.933" y1="88.243" x2="162.253" y2="-31.077"/>
				
					<line fill="none" stroke="#00ABEB" stroke-width="0.15" stroke-miterlimit="10" x1="45.768" y1="88.243" x2="165.088" y2="-31.077"/>
				
					<line fill="none" stroke="#00ABEB" stroke-width="0.15" stroke-miterlimit="10" x1="48.603" y1="88.243" x2="167.923" y2="-31.077"/>
				
					<line fill="none" stroke="#00ABEB" stroke-width="0.15" stroke-miterlimit="10" x1="51.438" y1="88.243" x2="170.758" y2="-31.077"/>
				
					<line fill="none" stroke="#00ABEB" stroke-width="0.15" stroke-miterlimit="10" x1="54.273" y1="88.243" x2="173.593" y2="-31.077"/>
				
					<line fill="none" stroke="#00ABEB" stroke-width="0.15" stroke-miterlimit="10" x1="57.107" y1="88.243" x2="176.427" y2="-31.077"/>
				
					<line fill="none" stroke="#00ABEB" stroke-width="0.15" stroke-miterlimit="10" x1="59.942" y1="88.243" x2="179.262" y2="-31.077"/>
				
					<line fill="none" stroke="#00ABEB" stroke-width="0.15" stroke-miterlimit="10" x1="62.777" y1="88.243" x2="182.097" y2="-31.077"/>
				
					<line fill="none" stroke="#00ABEB" stroke-width="0.15" stroke-miterlimit="10" x1="65.611" y1="88.243" x2="184.931" y2="-31.077"/>
				
					<line fill="none" stroke="#00ABEB" stroke-width="0.15" stroke-miterlimit="10" x1="68.446" y1="88.243" x2="187.766" y2="-31.077"/>
				
					<line fill="none" stroke="#00ABEB" stroke-width="0.15" stroke-miterlimit="10" x1="71.281" y1="88.243" x2="190.601" y2="-31.077"/>
				
					<line fill="none" stroke="#00ABEB" stroke-width="0.15" stroke-miterlimit="10" x1="74.114" y1="88.243" x2="193.434" y2="-31.077"/>
			</g>
			<g id="Horizontal_5_mm_00000011735556503592991880000008134099091165005186_">
				
					<line fill="none" stroke="#00ABEB" stroke-width="0.3" stroke-miterlimit="10" x1="-153.016" y1="88.252" x2="74.1" y2="88.252"/>
				
					<line fill="none" stroke="#00ABEB" stroke-width="0.3" stroke-miterlimit="10" x1="-143.077" y1="78.313" x2="84.039" y2="78.313"/>
				
					<line fill="none" stroke="#00ABEB" stroke-width="0.3" stroke-miterlimit="10" x1="-133.137" y1="68.373" x2="93.979" y2="68.373"/>
				
					<line fill="none" stroke="#00ABEB" stroke-width="0.3" stroke-miterlimit="10" x1="-123.197" y1="58.433" x2="103.919" y2="58.433"/>
				
					<line fill="none" stroke="#00ABEB" stroke-width="0.3" stroke-miterlimit="10" x1="-113.257" y1="48.494" x2="113.858" y2="48.494"/>
				
					<line fill="none" stroke="#00ABEB" stroke-width="0.3" stroke-miterlimit="10" x1="-103.318" y1="38.554" x2="123.798" y2="38.554"/>
				
					<line fill="none" stroke="#00ABEB" stroke-width="0.3" stroke-miterlimit="10" x1="-93.378" y1="28.615" x2="133.738" y2="28.615"/>
				
					<line fill="none" stroke="#00ABEB" stroke-width="0.3" stroke-miterlimit="10" x1="-83.438" y1="18.675" x2="143.678" y2="18.675"/>
				
					<line fill="none" stroke="#00ABEB" stroke-width="0.3" stroke-miterlimit="10" x1="-73.498" y1="8.735" x2="153.618" y2="8.735"/>
				
					<line fill="none" stroke="#00ABEB" stroke-width="0.3" stroke-miterlimit="10" x1="-63.559" y1="-1.205" x2="163.557" y2="-1.205"/>
				
					<line fill="none" stroke="#00ABEB" stroke-width="0.3" stroke-miterlimit="10" x1="-53.619" y1="-11.144" x2="173.497" y2="-11.144"/>
			</g>
			<g id="Vertical_5_mm_00000064346364918789686960000003233481195482251947_">
				
					<line fill="none" stroke="#00ABEB" stroke-width="0.3" stroke-miterlimit="10" x1="-152.656" y1="88.243" x2="-33.144" y2="-31.269"/>
				
					<line fill="none" stroke="#00ABEB" stroke-width="0.3" stroke-miterlimit="10" x1="-138.484" y1="88.243" x2="-18.971" y2="-31.269"/>
				
					<line fill="none" stroke="#00ABEB" stroke-width="0.3" stroke-miterlimit="10" x1="-124.31" y1="88.243" x2="-4.798" y2="-31.269"/>
				
					<line fill="none" stroke="#00ABEB" stroke-width="0.3" stroke-miterlimit="10" x1="-110.137" y1="88.243" x2="9.375" y2="-31.269"/>
				
					<line fill="none" stroke="#00ABEB" stroke-width="0.3" stroke-miterlimit="10" x1="-95.964" y1="88.243" x2="23.549" y2="-31.269"/>
				
					<line fill="none" stroke="#00ABEB" stroke-width="0.3" stroke-miterlimit="10" x1="-81.79" y1="88.243" x2="37.723" y2="-31.269"/>
				
					<line fill="none" stroke="#00ABEB" stroke-width="0.3" stroke-miterlimit="10" x1="-67.617" y1="88.243" x2="51.895" y2="-31.269"/>
				
					<line fill="none" stroke="#00ABEB" stroke-width="0.3" stroke-miterlimit="10" x1="-53.445" y1="88.243" x2="66.068" y2="-31.269"/>
				
					<line fill="none" stroke="#00ABEB" stroke-width="0.3" stroke-miterlimit="10" x1="-39.272" y1="88.243" x2="80.241" y2="-31.269"/>
				
					<line fill="none" stroke="#00ABEB" stroke-width="0.3" stroke-miterlimit="10" x1="-25.097" y1="88.243" x2="94.415" y2="-31.269"/>
				
					<line fill="none" stroke="#00ABEB" stroke-width="0.3" stroke-miterlimit="10" x1="-10.925" y1="88.243" x2="108.588" y2="-31.269"/>
				
					<line fill="none" stroke="#00ABEB" stroke-width="0.3" stroke-miterlimit="10" x1="3.248" y1="88.243" x2="122.761" y2="-31.269"/>
				
					<line fill="none" stroke="#00ABEB" stroke-width="0.3" stroke-miterlimit="10" x1="17.422" y1="88.243" x2="136.934" y2="-31.269"/>
				
					<line fill="none" stroke="#00ABEB" stroke-width="0.3" stroke-miterlimit="10" x1="31.595" y1="88.243" x2="151.108" y2="-31.269"/>
				
					<line fill="none" stroke="#00ABEB" stroke-width="0.3" stroke-miterlimit="10" x1="45.768" y1="88.243" x2="165.281" y2="-31.269"/>
				
					<line fill="none" stroke="#00ABEB" stroke-width="0.3" stroke-miterlimit="10" x1="59.942" y1="88.243" x2="179.454" y2="-31.269"/>
				
					<line fill="none" stroke="#00ABEB" stroke-width="0.3" stroke-miterlimit="10" x1="74.114" y1="88.243" x2="193.627" y2="-31.269"/>
			</g>
			<g id="Horizontal_10_mm_00000163045836177147705350000008480455355013810362_">
				
					<line id="_x31_9_00000057116790517712807720000015084113881736219806_" fill="none" stroke="#00ABEB" stroke-width="0.7" stroke-miterlimit="10" x1="-153.016" y1="88.252" x2="74.1" y2="88.252"/>
				
					<line id="_x32_0_00000024685878617286333290000013167547815532084100_" fill="none" stroke="#00ABEB" stroke-width="0.7" stroke-miterlimit="10" x1="-133.137" y1="68.373" x2="93.979" y2="68.373"/>
				
					<line id="_x32_1_00000138564813020868535020000012777939180148238773_" fill="none" stroke="#00ABEB" stroke-width="0.7" stroke-miterlimit="10" x1="-113.257" y1="48.494" x2="113.858" y2="48.494"/>
				
					<line id="_x32_2_00000052807586205252870140000014502512662559454639_" fill="none" stroke="#00ABEB" stroke-width="0.7" stroke-miterlimit="10" x1="-93.378" y1="28.615" x2="133.738" y2="28.615"/>
				
					<line id="_x32_3_00000051376893246677475670000009295515732899575694_" fill="none" stroke="#00ABEB" stroke-width="0.7" stroke-miterlimit="10" x1="-73.498" y1="8.735" x2="153.618" y2="8.735"/>
				
					<line id="_x32_4_00000099657911357833521510000007853591198542098087_" fill="none" stroke="#00ABEB" stroke-width="0.7" stroke-miterlimit="10" x1="-53.619" y1="-11.144" x2="173.497" y2="-11.144"/>
				
					<line id="_x32_5_00000155127691660191171140000008292164438978366870_" fill="none" stroke="#00ABEB" stroke-width="0.7" stroke-miterlimit="10" x1="-33.739" y1="-31.024" x2="193.376" y2="-31.024"/>
			</g>
			<g id="Vertical_10_mm_00000134969164297783457920000010833503864539426239_">
				
					<line id="_x30__00000151539528360119995570000005083818057555393183_" fill="none" stroke="#00ABEB" stroke-width="0.7" stroke-miterlimit="10" x1="-152.656" y1="88.243" x2="-33.144" y2="-31.269"/>
				
					<line id="_x31__00000021823889366233599640000011971139016478256513_" fill="none" stroke="#00ABEB" stroke-width="0.7" stroke-miterlimit="10" x1="-124.31" y1="88.243" x2="-4.798" y2="-31.269"/>
				
					<line id="_x32__00000071550223824624162640000006130814236846722696_" fill="none" stroke="#00ABEB" stroke-width="0.7" stroke-miterlimit="10" x1="-95.964" y1="88.243" x2="23.549" y2="-31.269"/>
				
					<line id="_x33__00000042015976804734918030000005045165563697445304_" fill="none" stroke="#00ABEB" stroke-width="0.7" stroke-miterlimit="10" x1="-67.617" y1="88.243" x2="51.895" y2="-31.269"/>
				
					<line id="_x34__00000081637789328126233800000002486991317463304126_" fill="none" stroke="#00ABEB" stroke-width="0.7" stroke-miterlimit="10" x1="-39.272" y1="88.243" x2="80.241" y2="-31.269"/>
				
					<line id="_x35__00000051353690731882489090000004794744233340785543_" fill="none" stroke="#00ABEB" stroke-width="0.7" stroke-miterlimit="10" x1="-10.925" y1="88.243" x2="108.588" y2="-31.269"/>
				
					<line id="_x36__00000011745311307505536660000010485558803267122343_" fill="none" stroke="#00ABEB" stroke-width="0.7" stroke-miterlimit="10" x1="17.422" y1="88.243" x2="136.934" y2="-31.269"/>
				
					<line id="_x37__00000045602144989735358580000003937589459941247142_" fill="none" stroke="#00ABEB" stroke-width="0.7" stroke-miterlimit="10" x1="45.768" y1="88.243" x2="165.281" y2="-31.269"/>
				
					<line id="_x38__00000047029857857898873560000014194396358708286345_" fill="none" stroke="#00ABEB" stroke-width="0.7" stroke-miterlimit="10" x1="74.114" y1="88.243" x2="193.627" y2="-31.269"/>
			</g>
		</g>
	</g>
</g>
<g id="Axis">
	<g id="lines">
		<g>
			<g>
				
					<line fill="none" stroke="#000000" stroke-width="0.2" stroke-miterlimit="10" x1="20.361" y1="28.605" x2="20.361" y2="2.166"/>
				<g>
					<polygon points="21.102,2.728 20.361,2.413 19.621,2.728 20.361,0.972 					"/>
				</g>
			</g>
		</g>
		<g>
			<g>
				
					<line fill="none" stroke="#000000" stroke-width="0.2" stroke-miterlimit="10" x1="20.362" y1="28.605" x2="48.72" y2="28.605"/>
				<g>
					<polygon points="48.158,29.345 48.473,28.605 48.158,27.864 49.914,28.605 					"/>
				</g>
			</g>
		</g>
		<g>
			<g>
				
					<line fill="none" stroke="#000000" stroke-width="0.2" stroke-miterlimit="10" x1="20.362" y1="28.605" x2="6.309" y2="42.657"/>
				<g>
					<polygon points="6.182,41.736 6.484,42.483 7.23,42.784 5.465,43.502 					"/>
				</g>
			</g>
		</g>
	</g>
	<g id="names">
		<g>
			<path d="M48.203,31.781c0.339-0.564,0.487-0.852,0.487-1.027c0-0.056-0.028-0.08-0.104-0.128
				c-0.08-0.052-0.104-0.092-0.104-0.156c0-0.088,0.068-0.148,0.16-0.148c0.12,0,0.208,0.1,0.208,0.22
				c0,0.228-0.192,0.667-0.524,1.219c-0.416,0.688-0.843,1.147-1.071,1.147c-0.12,0-0.204-0.068-0.204-0.172
				c0-0.088,0.068-0.16,0.156-0.16c0.14,0,0.14,0.112,0.244,0.112c0.052,0,0.1-0.032,0.192-0.132
				c0.072-0.076,0.252-0.312,0.284-0.364c0.024-0.048,0.04-0.096,0.04-0.14c0-0.16-0.22-1.055-0.328-1.327
				c-0.076-0.196-0.148-0.256-0.308-0.256c-0.044,0-0.08,0.004-0.124,0.016v-0.068c0.044-0.008,0.088-0.016,0.128-0.024
				c0.08-0.016,0.212-0.04,0.428-0.072h0.016c0.06,0,0.271,0.664,0.34,1.02L48.203,31.781z"/>
		</g>
		<g>
			<path d="M17.632,2.504c0.232,0.052,0.32,0.096,0.48,0.332c0.104,0.152,0.18,0.2,0.28,0.2c0.064,0,0.108-0.024,0.108-0.06
				c0-0.016-0.008-0.036-0.02-0.06c-0.024-0.048-0.032-0.08-0.032-0.112c0.004-0.068,0.068-0.136,0.132-0.136
				c0.083,0,0.14,0.06,0.14,0.148c0,0.16-0.148,0.304-0.372,0.304c-0.116,0-0.252-0.052-0.452-0.176
				c-0.188-0.116-0.315-0.168-0.419-0.168c-0.064,0-0.116,0.02-0.18,0.072l-0.036-0.036L18.5,1.325h-0.544
				c-0.208,0-0.284,0.036-0.364,0.24l-0.064-0.016l0.128-0.464h1.131v0.044L17.632,2.504z"/>
		</g>
		<g>
			<path d="M9.355,42.373c0.28-0.428,0.428-0.572,0.604-0.572c0.096,0,0.164,0.06,0.164,0.148c0,0.084-0.056,0.144-0.136,0.144
				c-0.076,0-0.112-0.068-0.208-0.068c-0.072,0-0.216,0.176-0.392,0.483c0,0.028,0.008,0.084,0.032,0.18l0.128,0.536
				c0.028,0.112,0.064,0.164,0.12,0.164c0.052,0,0.096-0.04,0.188-0.16c0.036-0.048,0.052-0.072,0.084-0.112l0.06,0.036
				c-0.232,0.36-0.336,0.456-0.488,0.456c-0.128,0-0.188-0.072-0.236-0.272l-0.116-0.476l-0.352,0.476
				c-0.176,0.236-0.256,0.272-0.38,0.272s-0.2-0.064-0.2-0.168c0-0.08,0.056-0.144,0.136-0.144c0.036,0,0.076,0.016,0.128,0.044
				c0.04,0.024,0.08,0.036,0.104,0.036c0.044,0,0.12-0.076,0.204-0.196l0.328-0.464l-0.112-0.496
				c-0.056-0.24-0.084-0.272-0.184-0.272c-0.032,0-0.08,0.008-0.156,0.028l-0.072,0.02l-0.012-0.063l0.044-0.016
				c0.244-0.088,0.376-0.116,0.468-0.116c0.1,0,0.148,0.072,0.204,0.344L9.355,42.373z"/>
		</g>
	</g>
</g>
<g id="Layer_9">
	<path opacity="0.05" fill="#FF0000" d="M38.104,28.687c0,2.7-7.944,4.888-17.742,4.888S2.619,31.386,2.619,28.687
		c0-6.899,7.944-12.492,17.742-12.492S38.104,21.788,38.104,28.687z"/>
	<ellipse opacity="0.05" fill="#FF0000" cx="20.362" cy="28.687" rx="17.742" ry="4.888"/>
	<g id="Layer_5">
		<path opacity="0.05" fill="#FF0000" d="M38.104,28.687C37.631,14.699,24.269,7.546,20.361,4.822h0
			c-3.908,2.724-17.27,9.877-17.742,23.865c0,2.7,7.944,4.888,17.742,4.888S38.104,31.386,38.104,28.687L38.104,28.687z"/>
	</g>
	<g>
		<g>
			<path fill="none" stroke="#0000FF" stroke-width="0.3" stroke-miterlimit="10" stroke-dasharray="3,2" d="M38.067,29.006
				c-0.597,2.551-8.296,4.569-17.705,4.569c-9.799,0-17.742-2.189-17.742-4.888s7.944-4.888,17.742-4.888s17.742,2.189,17.742,4.888
				"/>
			<g>
				<polygon fill="#0000FF" points="36.484,29.475 36.615,29.746 37.945,29.098 38.494,30.471 38.773,30.36 38.104,28.687 				"/>
			</g>
		</g>
	</g>
	<g>
		<g>
			<path fill="none" stroke="#0000FF" stroke-width="0.3" stroke-miterlimit="10" d="M38.067,29.006
				c-0.597,2.551-8.296,4.569-17.705,4.569c-9.799,0-17.742-2.189-17.742-4.888"/>
			<g>
				<polygon fill="#0000FF" points="36.484,29.475 36.615,29.746 37.945,29.098 38.494,30.471 38.773,30.36 38.104,28.687 				"/>
			</g>
		</g>
	</g>
	<path fill="none" stroke="#FF0000" stroke-width="0.2" stroke-miterlimit="10" d="M2.619,28.687
		c0-6.899,7.944-12.492,17.742-12.492s17.742,5.593,17.742,12.492"/>
	<g id="stickman" transform="translate(0.000000,1280.000000) scale(0.100000,-0.100000)" display="none">
		<path display="inline" d="M215.022,12541.512c-1.375-0.282-2.494-0.711-3.695-1.42c-5.093-2.972-7.371-9.124-5.454-14.702
			c1.354-3.915,4.562-6.897,8.567-7.954c5.134-1.354,10.604,0.759,13.518,5.222c0.812,1.255,1.099,1.925,1.548,3.64
			c0.449,1.714,0.533,2.43,0.435,3.931c-0.292,4.668-3.304,8.852-7.662,10.651
			C219.975,12541.832,217.571,12542.041,215.022,12541.512z"/>
		<path display="inline" d="M226.061,12515.383c-4.272,0.675-9.656,0.769-14.878,0.272l-0.65-0.06l-1.055-0.85
			c-8.005-6.429-13.936-8.848-20.159-8.232c-1.113,0.109-4.719,1.029-5.798,1.479c-0.937,0.388-2.616,1.153-3.195,1.455
			l-0.481,0.253l0.146,0.557c0.264,1.01,0.051,2.255-0.527,3.104c-0.384,0.561-1.078,1.123-1.719,1.401
			c-1.826,0.78-3.988,0.006-4.923-1.748c-0.641-1.204-0.606-2.553,0.083-3.74c0.613-1.05,1.348-1.575,2.571-1.84
			c0.646-0.138,0.843-0.142,1.334-0.056c0.315,0.052,0.714,0.153,0.885,0.228l0.31,0.125l1.021-0.521
			c2.681-1.36,4.1-1.906,6.705-2.589c2.264-0.593,2.993-0.713,4.77-0.773c4.233-0.157,8.291,0.952,12.717,3.465l1.219,0.688
			l-0.338-1.474c-0.583-2.528-0.723-5.029-0.493-8.937c0.321-5.524,1.368-11.429,2.668-15.093c1.1-3.096,2.666-5.505,4.513-6.932
			c1.027-0.801,2.699-1.563,3.83-1.757c0.689-0.125,1.966-0.246,2.219-0.217c0.186,0.015,0.186,0.015-0.002-0.705
			c-0.404-1.544-1.258-3.834-2.012-5.382c-1.295-2.674-2.74-4.405-4.906-5.892c-1.489-1.021-3.916-2.083-7.697-3.377
			c-2.264-0.771-2.307-0.783-2.76-0.696c-0.618,0.122-0.946,0.113-1.415-0.042c-1.748-0.557-2.606-3.227-1.986-6.188
			c0.574-2.744,2.07-5.023,3.888-5.896c0.605-0.293,1.189-0.366,1.825-0.24c1.164,0.234,1.923,1.194,2.269,2.88
			c0.44,2.104-0.055,4.574-1.326,6.716c-0.248,0.414-0.429,0.754-0.41,0.766c0.019,0.011,0.811,0.279,1.754,0.61
			c4.5,1.558,7.044,2.882,9.136,4.753c1.532,1.367,2.893,3.263,4.013,5.57c0.682,1.424,1.799,4.414,2.174,5.847l0.142,0.542
			l0.429,0.062c2.777,0.398,8.214,1.021,11.306,1.289c5.625,0.493,9.134,0.565,11.709,0.255l0.76-0.096l0.024-0.212
			c0.01-0.114,0.036-0.62,0.056-1.117c0.091-2.38-0.022-4.476-0.61-11.078c-0.362-4.077-0.502-6.428-0.465-7.468
			c0.014-0.281-0.026-0.462-0.148-0.715c-0.612-1.275-0.105-2.732,1.21-3.466c0.525-0.296,1.794-0.629,2.521-0.668
			c2.79-0.128,5.96,1.135,7.518,2.995c1.058,1.253,1.307,2.386,0.77,3.485c-0.366,0.755-1.162,1.288-2.401,1.613
			c-1.842,0.475-3.998,0.206-6.092-0.76c-0.389-0.184-0.716-0.312-0.727-0.294c-0.022,0.038,0.246,3.362,0.558,6.976
			c0.555,6.326,0.611,9.206,0.224,11.813l-0.138,0.925l-0.625,0.188c-0.786,0.238-1.928,0.45-2.836,0.528
			c-3.382,0.292-8.537,0.048-15.853-0.756c-1.364-0.15-2.489-0.268-2.504-0.264c-0.015,0.004,0.085,0.112,0.222,0.243
			c2.321,2.168,3.765,5.834,4.148,10.508c0.333,4.116-0.204,10.213-1.361,15.544c-0.733,3.349-1.469,5.413-2.707,7.529
			c-0.82,1.412-1.32,2.074-2.219,2.913c-0.26,0.25-0.455,0.444-0.432,0.438s0.333-0.032,0.697-0.063
			c2.408-0.195,4.829-0.639,7.079-1.284c3.886-1.121,6.781-2.664,9.604-5.117c0.866-0.75,1.288-1.17,2.47-2.439
			c0.055-0.062,0-0.182-0.199-0.486c-1.441-2.2-0.278-5.209,2.284-5.873c2.043-0.527,4.154,0.721,4.693,2.776
			c0.278,1.061,0.149,1.959-0.429,2.936c-0.394,0.674-0.812,1.077-1.511,1.466c-0.555,0.305-1.479,0.499-2.083,0.436l-0.415-0.042
			l-0.176,0.236c-0.367,0.477-1.61,1.754-2.482,2.545c-2.973,2.698-5.807,4.321-10.21,5.831
			C230.418,12514.455,227.188,12515.206,226.061,12515.383z"/>
	</g>
	<g>
		<path fill="#FF0000" d="M16.916,12.801l-0.108-0.018c0-0.612-0.132-0.978-0.714-0.978c-0.414,0-0.671,0.222-0.671,0.6
			c0,0.294,0.048,0.39,0.593,0.936c0.546,0.552,0.678,0.81,0.678,1.199c0,0.684-0.521,1.169-1.211,1.169
			c-0.186,0-0.348-0.042-0.624-0.138c-0.162-0.06-0.216-0.072-0.282-0.072c-0.12,0-0.216,0.054-0.258,0.192h-0.108l0.204-1.343
			l0.12,0.012c-0.012,0.054-0.012,0.096-0.012,0.138c0,0.588,0.36,1.001,0.864,1.001c0.462,0,0.786-0.312,0.786-0.768
			c0-0.258-0.084-0.438-0.36-0.737l-0.234-0.252c-0.084-0.09-0.156-0.174-0.234-0.252c-0.36-0.384-0.45-0.576-0.45-0.899
			c0-0.63,0.492-0.983,1.067-0.983c0.186,0,0.384,0.03,0.51,0.084c0.126,0.048,0.198,0.066,0.276,0.066
			c0.132,0,0.186-0.03,0.27-0.156h0.138L16.916,12.801z"/>
		<path fill="#FF0000" d="M18.324,13.569c0.009,0,0.015,0.009,0.015,0.021c0,0.015-0.006,0.045-0.018,0.087l-0.43,1.56
			c-0.021,0.075-0.054,0.192-0.054,0.223c0,0.069,0.066,0.096,0.198,0.096h0.063v0.045H17.26v-0.045
			c0.237-0.018,0.304-0.051,0.336-0.166l0.409-1.467c0.015-0.057,0.024-0.087,0.024-0.108c0-0.057-0.039-0.093-0.105-0.093h-0.009
			c-0.054,0-0.12,0.003-0.177,0.006v-0.045l0.069-0.015c0.265-0.057,0.277-0.051,0.508-0.1H18.324z"/>
	</g>
	<g>
		<path fill="#0000FF" d="M35.866,33.934l-0.108-0.018c-0.072-0.642-0.366-0.978-0.894-0.978c-0.443,0-0.863,0.228-1.193,0.582
			c-0.432,0.462-0.647,1.146-0.647,1.805c0,0.839,0.384,1.229,1.049,1.229c0.492,0,0.852-0.174,1.374-0.713l0.108,0.09
			c-0.54,0.636-1.02,0.894-1.637,0.894c-0.917,0-1.565-0.576-1.565-1.565c0-0.846,0.461-1.631,1.121-2.099
			c0.384-0.276,0.84-0.438,1.313-0.438c0.198,0,0.45,0.012,0.702,0.102c0.12,0.042,0.192,0.042,0.246,0.042
			c0.12,0,0.18-0.036,0.228-0.132h0.126L35.866,33.934z"/>
	</g>
	<path fill="none" stroke="#FF0000" stroke-width="0.2" stroke-miterlimit="10" d="M2.619,28.687
		C3.092,14.699,16.454,7.546,20.362,4.822"/>
	<path fill="none" stroke="#FF0000" stroke-width="0.2" stroke-miterlimit="10" d="M38.104,28.687
		C37.631,14.699,24.269,7.546,20.361,4.822"/>
	<g>
		<path fill="#FF0000" d="M13.108,5.104l-0.108-0.018c0-0.612-0.132-0.978-0.714-0.978c-0.414,0-0.671,0.222-0.671,0.6
			c0,0.294,0.048,0.39,0.593,0.936c0.546,0.552,0.678,0.81,0.678,1.199c0,0.684-0.521,1.169-1.211,1.169
			c-0.186,0-0.348-0.042-0.624-0.138c-0.162-0.06-0.216-0.072-0.282-0.072c-0.12,0-0.216,0.054-0.258,0.192h-0.108l0.204-1.343
			l0.12,0.012c-0.012,0.054-0.012,0.096-0.012,0.138c0,0.588,0.36,1.001,0.864,1.001c0.462,0,0.786-0.312,0.786-0.768
			c0-0.258-0.084-0.438-0.36-0.737l-0.234-0.252c-0.084-0.09-0.156-0.174-0.234-0.252c-0.36-0.384-0.45-0.576-0.45-0.899
			c0-0.63,0.492-0.983,1.067-0.983c0.186,0,0.384,0.03,0.51,0.084c0.126,0.048,0.198,0.066,0.276,0.066
			c0.132,0,0.186-0.03,0.27-0.156h0.138L13.108,5.104z"/>
		<path fill="#FF0000" d="M13.543,6.36c0.072-0.178,0.141-0.28,0.246-0.361c0.117-0.09,0.247-0.126,0.385-0.126
			c0.289,0,0.487,0.223,0.487,0.508c0,0.201-0.093,0.339-0.448,0.703l-0.565,0.577v0.015h0.544c0.177,0,0.238-0.045,0.31-0.195
			l0.051,0.021l-0.15,0.403h-1.064V7.853l0.631-0.673c0.198-0.21,0.333-0.399,0.406-0.562c0.018-0.039,0.027-0.096,0.027-0.162
			c0-0.208-0.12-0.364-0.357-0.364c-0.181,0-0.334,0.087-0.439,0.289L13.543,6.36z"/>
	</g>
	<g>
		<path fill="#FF0000" d="M12.757,23.219L12.649,23.2c0-0.612-0.132-0.978-0.714-0.978c-0.414,0-0.671,0.222-0.671,0.6
			c0,0.294,0.048,0.39,0.593,0.936c0.546,0.552,0.678,0.81,0.678,1.199c0,0.684-0.521,1.169-1.211,1.169
			c-0.186,0-0.348-0.042-0.624-0.138c-0.162-0.06-0.216-0.072-0.282-0.072c-0.12,0-0.216,0.054-0.258,0.192h-0.108l0.204-1.343
			l0.12,0.012c-0.012,0.054-0.012,0.096-0.012,0.138c0,0.588,0.36,1.001,0.864,1.001c0.462,0,0.786-0.312,0.786-0.768
			c0-0.258-0.084-0.438-0.36-0.737L11.42,24.16c-0.084-0.09-0.156-0.174-0.234-0.252c-0.36-0.384-0.45-0.576-0.45-0.899
			c0-0.63,0.492-0.983,1.067-0.983c0.186,0,0.384,0.03,0.51,0.084c0.126,0.048,0.198,0.066,0.276,0.066
			c0.132,0,0.186-0.03,0.27-0.156h0.138L12.757,23.219z"/>
		<path fill="#FF0000" d="M13.438,24.3c0.099-0.217,0.292-0.313,0.514-0.313c0.234,0,0.397,0.15,0.397,0.367
			c0,0.223-0.124,0.34-0.466,0.46v0.009c0.205,0.078,0.286,0.213,0.286,0.433c0,0.238-0.108,0.448-0.279,0.598
			c-0.147,0.129-0.34,0.187-0.556,0.187s-0.333-0.072-0.333-0.171c0-0.075,0.051-0.129,0.129-0.129c0.057,0,0.111,0.018,0.192,0.09
			c0.078,0.069,0.156,0.096,0.213,0.096c0.099,0,0.205-0.054,0.28-0.138c0.078-0.093,0.114-0.237,0.114-0.379
			c0-0.325-0.192-0.475-0.481-0.475h-0.072v-0.048c0.271-0.048,0.397-0.09,0.526-0.18c0.126-0.087,0.187-0.192,0.187-0.319
			c0-0.165-0.105-0.273-0.265-0.273c-0.129,0-0.229,0.06-0.336,0.201L13.438,24.3z"/>
	</g>
	<g>
		<g>
			<path fill="none" stroke="#FF0000" stroke-width="0.1" stroke-miterlimit="10" stroke-dasharray="3,2" d="M38.1,28.791
				c-0.201,2.652-8.066,4.784-17.738,4.784c-9.799,0-17.742-2.189-17.742-4.888s7.944-4.888,17.742-4.888s17.742,2.189,17.742,4.888
				"/>
			<g>
				<polygon fill="#FF0000" points="37.635,29.062 37.698,29.14 38.082,28.832 38.362,29.238 38.444,29.182 38.104,28.687 				"/>
			</g>
		</g>
	</g>
	<g>
		<g>
			<path fill="none" stroke="#FF0000" stroke-width="0.1" stroke-miterlimit="10" d="M38.1,28.791
				c-0.201,2.652-8.066,4.784-17.738,4.784c-9.799,0-17.742-2.189-17.742-4.888"/>
			<g>
				<polygon fill="#FF0000" points="37.635,29.062 37.698,29.14 38.082,28.832 38.362,29.238 38.444,29.182 38.104,28.687 				"/>
			</g>
		</g>
	</g>
</g>
<g id="n" display="none">
	<g display="inline">
		<g>
			<line fill="none" stroke="#00A300" stroke-width="0.3" stroke-miterlimit="10" x1="30.774" y1="16.377" x2="34.962" y2="6.653"/>
			<g>
				<polygon fill="#00A300" points="35.696,8.051 35.413,8.152 34.917,6.759 33.563,7.356 33.442,7.081 35.091,6.354 				"/>
			</g>
		</g>
	</g>
	
		<polyline display="inline" fill="none" stroke="#00A300" stroke-width="0.1" stroke-linecap="round" stroke-linejoin="round" stroke-miterlimit="10" points="
		31.438,14.833 32.711,15.395 32.711,15.395 32.066,16.801 	"/>
	<g display="inline">
		<path fill="#00B200" d="M39.227,10.385c-0.408,0.558-0.558,0.678-0.839,0.678c-0.15,0-0.282-0.096-0.282-0.324
			c0-0.06,0.012-0.138,0.096-0.45l0.264-0.971c0.048-0.186,0.084-0.402,0.084-0.474c0-0.108-0.054-0.174-0.144-0.174
			c-0.24,0-0.51,0.294-0.888,0.852c-0.27,0.402-0.318,0.54-0.6,1.487h-0.45l0.576-2.099c0.006-0.03,0.012-0.066,0.012-0.102
			c0-0.12-0.083-0.156-0.39-0.162V8.55c0.486-0.096,0.654-0.12,0.972-0.186l0.024,0.012L37.26,9.683
			c0.6-0.959,1.001-1.319,1.385-1.319c0.258,0,0.39,0.15,0.39,0.366c0,0.108-0.024,0.234-0.06,0.36l-0.335,1.217
			c-0.06,0.216-0.084,0.318-0.084,0.366c0,0.054,0.024,0.108,0.096,0.108c0.084,0,0.192-0.096,0.366-0.318
			c0.042-0.048,0.084-0.102,0.126-0.156L39.227,10.385z"/>
	</g>
	<g display="inline">
		<path fill="#00B200" d="M38.902,7.736l-0.858-1.733h-0.006l-0.852,1.733h-0.408l1.085-2.188h0.36l1.085,2.188H38.902z"/>
	</g>
</g>
</svg>
