<?xml version="1.0" encoding="utf-8"?>
<!-- Generator: Adobe Illustrator 25.4.1, SVG Export Plug-In . SVG Version: 6.00 Build 0)  -->
<svg version="1.1" xmlns="http://www.w3.org/2000/svg" xmlns:xlink="http://www.w3.org/1999/xlink" x="0px" y="0px"
	 viewBox="0 0 55.53 55.573" enable-background="new 0 0 55.53 55.573" xml:space="preserve">
<g id="Graph_paper_slanted" opacity="0.5">
	<g id="Clipped_grid_00000003068028900943026870000011536296927355263674_">
		<defs>
			<polygon id="SVGID_1_" points="45.75,65.216 -47.459,65.216 1.567,16.191 94.775,16.191 			"/>
		</defs>
		<clipPath id="SVGID_00000112624601994246484530000016778599093856998795_">
			<use xlink:href="#SVGID_1_"  overflow="visible"/>
		</clipPath>
		
			<g id="Grid_00000142891597197125820610000009767860333217090727_" opacity="0.25" clip-path="url(#SVGID_00000112624601994246484530000016778599093856998795_)">
			<g id="Horizontal_1_mm_00000151508609497893311650000018408800186222605470_">
				
					<line fill="none" stroke="#00ABEB" stroke-width="0.15" stroke-miterlimit="10" x1="-32.156" y1="-17.6" x2="194.685" y2="-17.6"/>
				
					<line fill="none" stroke="#00ABEB" stroke-width="0.15" stroke-miterlimit="10" x1="-30.168" y1="-19.588" x2="196.673" y2="-19.588"/>
				
					<line fill="none" stroke="#00ABEB" stroke-width="0.15" stroke-miterlimit="10" x1="-149.445" y1="99.688" x2="77.396" y2="99.688"/>
				
					<line fill="none" stroke="#00ABEB" stroke-width="0.15" stroke-miterlimit="10" x1="-147.456" y1="97.7" x2="79.384" y2="97.7"/>
				
					<line fill="none" stroke="#00ABEB" stroke-width="0.15" stroke-miterlimit="10" x1="-145.469" y1="95.712" x2="81.372" y2="95.712"/>
				
					<line fill="none" stroke="#00ABEB" stroke-width="0.15" stroke-miterlimit="10" x1="-143.481" y1="93.724" x2="83.36" y2="93.724"/>
				
					<line fill="none" stroke="#00ABEB" stroke-width="0.15" stroke-miterlimit="10" x1="-141.493" y1="91.736" x2="85.348" y2="91.736"/>
				
					<line fill="none" stroke="#00ABEB" stroke-width="0.15" stroke-miterlimit="10" x1="-139.505" y1="89.749" x2="87.336" y2="89.749"/>
				
					<line fill="none" stroke="#00ABEB" stroke-width="0.15" stroke-miterlimit="10" x1="-137.517" y1="87.76" x2="89.324" y2="87.76"/>
				
					<line fill="none" stroke="#00ABEB" stroke-width="0.15" stroke-miterlimit="10" x1="-135.53" y1="85.773" x2="91.311" y2="85.773"/>
				
					<line fill="none" stroke="#00ABEB" stroke-width="0.15" stroke-miterlimit="10" x1="-133.541" y1="83.784" x2="93.3" y2="83.784"/>
				
					<line fill="none" stroke="#00ABEB" stroke-width="0.15" stroke-miterlimit="10" x1="-131.553" y1="81.796" x2="95.288" y2="81.796"/>
				
					<line fill="none" stroke="#00ABEB" stroke-width="0.15" stroke-miterlimit="10" x1="-129.565" y1="79.809" x2="97.275" y2="79.809"/>
				
					<line fill="none" stroke="#00ABEB" stroke-width="0.15" stroke-miterlimit="10" x1="-127.577" y1="77.821" x2="99.264" y2="77.821"/>
				
					<line fill="none" stroke="#00ABEB" stroke-width="0.15" stroke-miterlimit="10" x1="-125.589" y1="75.833" x2="101.252" y2="75.833"/>
				
					<line fill="none" stroke="#00ABEB" stroke-width="0.15" stroke-miterlimit="10" x1="-123.602" y1="73.845" x2="103.239" y2="73.845"/>
				
					<line fill="none" stroke="#00ABEB" stroke-width="0.15" stroke-miterlimit="10" x1="-121.613" y1="71.857" x2="105.227" y2="71.857"/>
				
					<line fill="none" stroke="#00ABEB" stroke-width="0.15" stroke-miterlimit="10" x1="-119.625" y1="69.869" x2="107.216" y2="69.869"/>
				
					<line fill="none" stroke="#00ABEB" stroke-width="0.15" stroke-miterlimit="10" x1="-117.638" y1="67.881" x2="109.203" y2="67.881"/>
				
					<line fill="none" stroke="#00ABEB" stroke-width="0.15" stroke-miterlimit="10" x1="-115.65" y1="65.893" x2="111.191" y2="65.893"/>
				
					<line fill="none" stroke="#00ABEB" stroke-width="0.15" stroke-miterlimit="10" x1="-113.661" y1="63.905" x2="113.179" y2="63.905"/>
				
					<line fill="none" stroke="#00ABEB" stroke-width="0.15" stroke-miterlimit="10" x1="-111.674" y1="61.918" x2="115.167" y2="61.918"/>
				
					<line fill="none" stroke="#00ABEB" stroke-width="0.15" stroke-miterlimit="10" x1="-109.686" y1="59.929" x2="117.155" y2="59.929"/>
				
					<line fill="none" stroke="#00ABEB" stroke-width="0.15" stroke-miterlimit="10" x1="-107.697" y1="57.941" x2="119.144" y2="57.941"/>
				
					<line fill="none" stroke="#00ABEB" stroke-width="0.15" stroke-miterlimit="10" x1="-105.71" y1="55.953" x2="121.131" y2="55.953"/>
				
					<line fill="none" stroke="#00ABEB" stroke-width="0.15" stroke-miterlimit="10" x1="-103.722" y1="53.965" x2="123.119" y2="53.965"/>
				
					<line fill="none" stroke="#00ABEB" stroke-width="0.15" stroke-miterlimit="10" x1="-101.734" y1="51.978" x2="125.107" y2="51.978"/>
				
					<line fill="none" stroke="#00ABEB" stroke-width="0.15" stroke-miterlimit="10" x1="-99.746" y1="49.99" x2="127.095" y2="49.99"/>
				
					<line fill="none" stroke="#00ABEB" stroke-width="0.15" stroke-miterlimit="10" x1="-97.758" y1="48.001" x2="129.083" y2="48.001"/>
				
					<line fill="none" stroke="#00ABEB" stroke-width="0.15" stroke-miterlimit="10" x1="-95.77" y1="46.014" x2="131.071" y2="46.014"/>
				
					<line fill="none" stroke="#00ABEB" stroke-width="0.15" stroke-miterlimit="10" x1="-93.782" y1="44.026" x2="133.059" y2="44.026"/>
				
					<line fill="none" stroke="#00ABEB" stroke-width="0.15" stroke-miterlimit="10" x1="-91.794" y1="42.038" x2="135.047" y2="42.038"/>
				
					<line fill="none" stroke="#00ABEB" stroke-width="0.15" stroke-miterlimit="10" x1="-89.806" y1="40.05" x2="137.034" y2="40.05"/>
				
					<line fill="none" stroke="#00ABEB" stroke-width="0.15" stroke-miterlimit="10" x1="-87.818" y1="38.062" x2="139.022" y2="38.062"/>
				
					<line fill="none" stroke="#00ABEB" stroke-width="0.15" stroke-miterlimit="10" x1="-85.83" y1="36.074" x2="141.011" y2="36.074"/>
				
					<line fill="none" stroke="#00ABEB" stroke-width="0.15" stroke-miterlimit="10" x1="-83.843" y1="34.086" x2="142.998" y2="34.086"/>
				
					<line fill="none" stroke="#00ABEB" stroke-width="0.15" stroke-miterlimit="10" x1="-81.854" y1="32.098" x2="144.986" y2="32.098"/>
				
					<line fill="none" stroke="#00ABEB" stroke-width="0.15" stroke-miterlimit="10" x1="-79.866" y1="30.11" x2="146.974" y2="30.11"/>
				
					<line fill="none" stroke="#00ABEB" stroke-width="0.15" stroke-miterlimit="10" x1="-77.879" y1="28.123" x2="148.962" y2="28.123"/>
				
					<line fill="none" stroke="#00ABEB" stroke-width="0.15" stroke-miterlimit="10" x1="-75.891" y1="26.135" x2="150.95" y2="26.135"/>
				
					<line fill="none" stroke="#00ABEB" stroke-width="0.15" stroke-miterlimit="10" x1="-73.903" y1="24.146" x2="152.938" y2="24.146"/>
				
					<line fill="none" stroke="#00ABEB" stroke-width="0.15" stroke-miterlimit="10" x1="-71.915" y1="22.159" x2="154.926" y2="22.159"/>
				
					<line fill="none" stroke="#00ABEB" stroke-width="0.15" stroke-miterlimit="10" x1="-69.927" y1="20.17" x2="156.914" y2="20.17"/>
				
					<line fill="none" stroke="#00ABEB" stroke-width="0.15" stroke-miterlimit="10" x1="-67.939" y1="18.183" x2="158.902" y2="18.183"/>
				
					<line fill="none" stroke="#00ABEB" stroke-width="0.15" stroke-miterlimit="10" x1="-65.951" y1="16.195" x2="160.89" y2="16.195"/>
				
					<line fill="none" stroke="#00ABEB" stroke-width="0.15" stroke-miterlimit="10" x1="-63.963" y1="14.207" x2="162.878" y2="14.207"/>
				
					<line fill="none" stroke="#00ABEB" stroke-width="0.15" stroke-miterlimit="10" x1="-61.975" y1="12.219" x2="164.866" y2="12.219"/>
				
					<line fill="none" stroke="#00ABEB" stroke-width="0.15" stroke-miterlimit="10" x1="-59.987" y1="10.231" x2="166.854" y2="10.231"/>
				
					<line fill="none" stroke="#00ABEB" stroke-width="0.15" stroke-miterlimit="10" x1="-57.999" y1="8.243" x2="168.842" y2="8.243"/>
				
					<line fill="none" stroke="#00ABEB" stroke-width="0.15" stroke-miterlimit="10" x1="-56.011" y1="6.255" x2="170.829" y2="6.255"/>
				
					<line fill="none" stroke="#00ABEB" stroke-width="0.15" stroke-miterlimit="10" x1="-54.023" y1="4.267" x2="172.818" y2="4.267"/>
				
					<line fill="none" stroke="#00ABEB" stroke-width="0.15" stroke-miterlimit="10" x1="-52.035" y1="2.279" x2="174.806" y2="2.279"/>
				
					<line fill="none" stroke="#00ABEB" stroke-width="0.15" stroke-miterlimit="10" x1="-50.048" y1="0.292" x2="176.793" y2="0.292"/>
				
					<line fill="none" stroke="#00ABEB" stroke-width="0.15" stroke-miterlimit="10" x1="-48.059" y1="-1.697" x2="178.781" y2="-1.697"/>
				
					<line fill="none" stroke="#00ABEB" stroke-width="0.15" stroke-miterlimit="10" x1="-46.071" y1="-3.685" x2="180.77" y2="-3.685"/>
				
					<line fill="none" stroke="#00ABEB" stroke-width="0.15" stroke-miterlimit="10" x1="-44.084" y1="-5.672" x2="182.757" y2="-5.672"/>
				
					<line fill="none" stroke="#00ABEB" stroke-width="0.15" stroke-miterlimit="10" x1="-42.095" y1="-7.661" x2="184.746" y2="-7.661"/>
				
					<line fill="none" stroke="#00ABEB" stroke-width="0.15" stroke-miterlimit="10" x1="-40.108" y1="-9.648" x2="186.733" y2="-9.648"/>
				
					<line fill="none" stroke="#00ABEB" stroke-width="0.15" stroke-miterlimit="10" x1="-38.12" y1="-11.636" x2="188.721" y2="-11.636"/>
				
					<line fill="none" stroke="#00ABEB" stroke-width="0.15" stroke-miterlimit="10" x1="-36.132" y1="-13.624" x2="190.709" y2="-13.624"/>
				
					<line fill="none" stroke="#00ABEB" stroke-width="0.15" stroke-miterlimit="10" x1="-34.144" y1="-15.612" x2="192.697" y2="-15.612"/>
			</g>
			<g id="Vertical_1_mm_00000181073523592228201180000012361058669048395659_">
				<g>
					
						<line fill="none" stroke="#00ABEB" stroke-width="0.15" stroke-miterlimit="10" x1="-149.36" y1="99.678" x2="-30.04" y2="-19.641"/>
				</g>
				
					<line fill="none" stroke="#00ABEB" stroke-width="0.15" stroke-miterlimit="10" x1="-146.526" y1="99.678" x2="-27.206" y2="-19.641"/>
				
					<line fill="none" stroke="#00ABEB" stroke-width="0.15" stroke-miterlimit="10" x1="-143.691" y1="99.678" x2="-24.371" y2="-19.641"/>
				
					<line fill="none" stroke="#00ABEB" stroke-width="0.15" stroke-miterlimit="10" x1="-140.856" y1="99.678" x2="-21.536" y2="-19.641"/>
				
					<line fill="none" stroke="#00ABEB" stroke-width="0.15" stroke-miterlimit="10" x1="-138.022" y1="99.678" x2="-18.702" y2="-19.641"/>
				
					<line fill="none" stroke="#00ABEB" stroke-width="0.15" stroke-miterlimit="10" x1="-135.187" y1="99.678" x2="-15.867" y2="-19.641"/>
				
					<line fill="none" stroke="#00ABEB" stroke-width="0.15" stroke-miterlimit="10" x1="-132.352" y1="99.678" x2="-13.032" y2="-19.641"/>
				
					<line fill="none" stroke="#00ABEB" stroke-width="0.15" stroke-miterlimit="10" x1="-129.518" y1="99.678" x2="-10.198" y2="-19.641"/>
				
					<line fill="none" stroke="#00ABEB" stroke-width="0.15" stroke-miterlimit="10" x1="-126.682" y1="99.678" x2="-7.363" y2="-19.641"/>
				
					<line fill="none" stroke="#00ABEB" stroke-width="0.15" stroke-miterlimit="10" x1="-123.848" y1="99.678" x2="-4.529" y2="-19.641"/>
				
					<line fill="none" stroke="#00ABEB" stroke-width="0.15" stroke-miterlimit="10" x1="-121.014" y1="99.678" x2="-1.694" y2="-19.641"/>
				
					<line fill="none" stroke="#00ABEB" stroke-width="0.15" stroke-miterlimit="10" x1="-118.179" y1="99.678" x2="1.141" y2="-19.641"/>
				
					<line fill="none" stroke="#00ABEB" stroke-width="0.15" stroke-miterlimit="10" x1="-115.345" y1="99.678" x2="3.975" y2="-19.641"/>
				
					<line fill="none" stroke="#00ABEB" stroke-width="0.15" stroke-miterlimit="10" x1="-112.51" y1="99.678" x2="6.81" y2="-19.641"/>
				
					<line fill="none" stroke="#00ABEB" stroke-width="0.15" stroke-miterlimit="10" x1="-109.675" y1="99.678" x2="9.645" y2="-19.641"/>
				
					<line fill="none" stroke="#00ABEB" stroke-width="0.15" stroke-miterlimit="10" x1="-106.841" y1="99.678" x2="12.479" y2="-19.641"/>
				
					<line fill="none" stroke="#00ABEB" stroke-width="0.15" stroke-miterlimit="10" x1="-104.006" y1="99.678" x2="15.314" y2="-19.641"/>
				
					<line fill="none" stroke="#00ABEB" stroke-width="0.15" stroke-miterlimit="10" x1="-101.171" y1="99.678" x2="18.149" y2="-19.641"/>
				
					<line fill="none" stroke="#00ABEB" stroke-width="0.15" stroke-miterlimit="10" x1="-98.337" y1="99.678" x2="20.983" y2="-19.641"/>
				
					<line fill="none" stroke="#00ABEB" stroke-width="0.15" stroke-miterlimit="10" x1="-95.502" y1="99.678" x2="23.818" y2="-19.641"/>
				
					<line fill="none" stroke="#00ABEB" stroke-width="0.15" stroke-miterlimit="10" x1="-92.667" y1="99.678" x2="26.653" y2="-19.641"/>
				
					<line fill="none" stroke="#00ABEB" stroke-width="0.15" stroke-miterlimit="10" x1="-89.833" y1="99.678" x2="29.487" y2="-19.641"/>
				
					<line fill="none" stroke="#00ABEB" stroke-width="0.15" stroke-miterlimit="10" x1="-86.998" y1="99.678" x2="32.322" y2="-19.641"/>
				
					<line fill="none" stroke="#00ABEB" stroke-width="0.15" stroke-miterlimit="10" x1="-84.163" y1="99.678" x2="35.157" y2="-19.641"/>
				
					<line fill="none" stroke="#00ABEB" stroke-width="0.15" stroke-miterlimit="10" x1="-81.328" y1="99.678" x2="37.991" y2="-19.641"/>
				
					<line fill="none" stroke="#00ABEB" stroke-width="0.15" stroke-miterlimit="10" x1="-78.493" y1="99.678" x2="40.826" y2="-19.641"/>
				
					<line fill="none" stroke="#00ABEB" stroke-width="0.15" stroke-miterlimit="10" x1="-75.66" y1="99.678" x2="43.66" y2="-19.641"/>
				
					<line fill="none" stroke="#00ABEB" stroke-width="0.15" stroke-miterlimit="10" x1="-72.825" y1="99.678" x2="46.495" y2="-19.641"/>
				
					<line fill="none" stroke="#00ABEB" stroke-width="0.15" stroke-miterlimit="10" x1="-69.99" y1="99.678" x2="49.33" y2="-19.641"/>
				
					<line fill="none" stroke="#00ABEB" stroke-width="0.15" stroke-miterlimit="10" x1="-67.156" y1="99.678" x2="52.164" y2="-19.641"/>
				
					<line fill="none" stroke="#00ABEB" stroke-width="0.15" stroke-miterlimit="10" x1="-64.321" y1="99.678" x2="54.999" y2="-19.641"/>
				
					<line fill="none" stroke="#00ABEB" stroke-width="0.15" stroke-miterlimit="10" x1="-61.486" y1="99.678" x2="57.834" y2="-19.641"/>
				
					<line fill="none" stroke="#00ABEB" stroke-width="0.15" stroke-miterlimit="10" x1="-58.652" y1="99.678" x2="60.668" y2="-19.641"/>
				
					<line fill="none" stroke="#00ABEB" stroke-width="0.15" stroke-miterlimit="10" x1="-55.817" y1="99.678" x2="63.503" y2="-19.641"/>
				
					<line fill="none" stroke="#00ABEB" stroke-width="0.15" stroke-miterlimit="10" x1="-52.982" y1="99.678" x2="66.338" y2="-19.641"/>
				
					<line fill="none" stroke="#00ABEB" stroke-width="0.15" stroke-miterlimit="10" x1="-50.148" y1="99.678" x2="69.172" y2="-19.641"/>
				
					<line fill="none" stroke="#00ABEB" stroke-width="0.15" stroke-miterlimit="10" x1="-47.313" y1="99.678" x2="72.007" y2="-19.641"/>
				
					<line fill="none" stroke="#00ABEB" stroke-width="0.15" stroke-miterlimit="10" x1="-44.478" y1="99.678" x2="74.842" y2="-19.641"/>
				
					<line fill="none" stroke="#00ABEB" stroke-width="0.15" stroke-miterlimit="10" x1="-41.644" y1="99.678" x2="77.676" y2="-19.641"/>
				
					<line fill="none" stroke="#00ABEB" stroke-width="0.15" stroke-miterlimit="10" x1="-38.809" y1="99.678" x2="80.511" y2="-19.641"/>
				
					<line fill="none" stroke="#00ABEB" stroke-width="0.15" stroke-miterlimit="10" x1="-35.975" y1="99.678" x2="83.345" y2="-19.641"/>
				
					<line fill="none" stroke="#00ABEB" stroke-width="0.15" stroke-miterlimit="10" x1="-33.139" y1="99.678" x2="86.18" y2="-19.641"/>
				
					<line fill="none" stroke="#00ABEB" stroke-width="0.15" stroke-miterlimit="10" x1="-30.305" y1="99.678" x2="89.015" y2="-19.641"/>
				
					<line fill="none" stroke="#00ABEB" stroke-width="0.15" stroke-miterlimit="10" x1="-27.471" y1="99.678" x2="91.849" y2="-19.641"/>
				
					<line fill="none" stroke="#00ABEB" stroke-width="0.15" stroke-miterlimit="10" x1="-24.636" y1="99.678" x2="94.684" y2="-19.641"/>
				
					<line fill="none" stroke="#00ABEB" stroke-width="0.15" stroke-miterlimit="10" x1="-21.801" y1="99.678" x2="97.519" y2="-19.641"/>
				
					<line fill="none" stroke="#00ABEB" stroke-width="0.15" stroke-miterlimit="10" x1="-18.967" y1="99.678" x2="100.353" y2="-19.641"/>
				
					<line fill="none" stroke="#00ABEB" stroke-width="0.15" stroke-miterlimit="10" x1="-16.132" y1="99.678" x2="103.188" y2="-19.641"/>
				
					<line fill="none" stroke="#00ABEB" stroke-width="0.15" stroke-miterlimit="10" x1="-13.297" y1="99.678" x2="106.023" y2="-19.641"/>
				
					<line fill="none" stroke="#00ABEB" stroke-width="0.15" stroke-miterlimit="10" x1="-10.463" y1="99.678" x2="108.857" y2="-19.641"/>
				
					<line fill="none" stroke="#00ABEB" stroke-width="0.15" stroke-miterlimit="10" x1="-7.628" y1="99.678" x2="111.692" y2="-19.641"/>
				
					<line fill="none" stroke="#00ABEB" stroke-width="0.15" stroke-miterlimit="10" x1="-4.793" y1="99.678" x2="114.527" y2="-19.641"/>
				
					<line fill="none" stroke="#00ABEB" stroke-width="0.15" stroke-miterlimit="10" x1="-1.959" y1="99.678" x2="117.361" y2="-19.641"/>
				
					<line fill="none" stroke="#00ABEB" stroke-width="0.15" stroke-miterlimit="10" x1="0.876" y1="99.678" x2="120.196" y2="-19.641"/>
				
					<line fill="none" stroke="#00ABEB" stroke-width="0.15" stroke-miterlimit="10" x1="3.711" y1="99.678" x2="123.031" y2="-19.641"/>
				
					<line fill="none" stroke="#00ABEB" stroke-width="0.15" stroke-miterlimit="10" x1="6.545" y1="99.678" x2="125.865" y2="-19.641"/>
				
					<line fill="none" stroke="#00ABEB" stroke-width="0.15" stroke-miterlimit="10" x1="9.38" y1="99.678" x2="128.7" y2="-19.641"/>
				
					<line fill="none" stroke="#00ABEB" stroke-width="0.15" stroke-miterlimit="10" x1="12.214" y1="99.678" x2="131.534" y2="-19.641"/>
				
					<line fill="none" stroke="#00ABEB" stroke-width="0.15" stroke-miterlimit="10" x1="15.049" y1="99.678" x2="134.369" y2="-19.641"/>
				
					<line fill="none" stroke="#00ABEB" stroke-width="0.15" stroke-miterlimit="10" x1="17.884" y1="99.678" x2="137.204" y2="-19.641"/>
				
					<line fill="none" stroke="#00ABEB" stroke-width="0.15" stroke-miterlimit="10" x1="20.718" y1="99.678" x2="140.038" y2="-19.641"/>
				
					<line fill="none" stroke="#00ABEB" stroke-width="0.15" stroke-miterlimit="10" x1="23.553" y1="99.678" x2="142.873" y2="-19.641"/>
				
					<line fill="none" stroke="#00ABEB" stroke-width="0.15" stroke-miterlimit="10" x1="26.388" y1="99.678" x2="145.708" y2="-19.641"/>
				
					<line fill="none" stroke="#00ABEB" stroke-width="0.15" stroke-miterlimit="10" x1="29.222" y1="99.678" x2="148.542" y2="-19.641"/>
				
					<line fill="none" stroke="#00ABEB" stroke-width="0.15" stroke-miterlimit="10" x1="32.057" y1="99.678" x2="151.377" y2="-19.641"/>
				
					<line fill="none" stroke="#00ABEB" stroke-width="0.15" stroke-miterlimit="10" x1="34.892" y1="99.678" x2="154.212" y2="-19.641"/>
				
					<line fill="none" stroke="#00ABEB" stroke-width="0.15" stroke-miterlimit="10" x1="37.726" y1="99.678" x2="157.046" y2="-19.641"/>
				
					<line fill="none" stroke="#00ABEB" stroke-width="0.15" stroke-miterlimit="10" x1="40.561" y1="99.678" x2="159.881" y2="-19.641"/>
				
					<line fill="none" stroke="#00ABEB" stroke-width="0.15" stroke-miterlimit="10" x1="43.396" y1="99.678" x2="162.716" y2="-19.641"/>
				
					<line fill="none" stroke="#00ABEB" stroke-width="0.15" stroke-miterlimit="10" x1="46.23" y1="99.678" x2="165.55" y2="-19.641"/>
				
					<line fill="none" stroke="#00ABEB" stroke-width="0.15" stroke-miterlimit="10" x1="49.065" y1="99.678" x2="168.385" y2="-19.641"/>
				
					<line fill="none" stroke="#00ABEB" stroke-width="0.15" stroke-miterlimit="10" x1="51.9" y1="99.678" x2="171.22" y2="-19.641"/>
				
					<line fill="none" stroke="#00ABEB" stroke-width="0.15" stroke-miterlimit="10" x1="54.734" y1="99.678" x2="174.054" y2="-19.641"/>
				
					<line fill="none" stroke="#00ABEB" stroke-width="0.15" stroke-miterlimit="10" x1="57.569" y1="99.678" x2="176.889" y2="-19.641"/>
				
					<line fill="none" stroke="#00ABEB" stroke-width="0.15" stroke-miterlimit="10" x1="60.403" y1="99.678" x2="179.723" y2="-19.641"/>
				
					<line fill="none" stroke="#00ABEB" stroke-width="0.15" stroke-miterlimit="10" x1="63.238" y1="99.678" x2="182.558" y2="-19.641"/>
				
					<line fill="none" stroke="#00ABEB" stroke-width="0.15" stroke-miterlimit="10" x1="66.073" y1="99.678" x2="185.393" y2="-19.641"/>
				
					<line fill="none" stroke="#00ABEB" stroke-width="0.15" stroke-miterlimit="10" x1="68.907" y1="99.678" x2="188.227" y2="-19.641"/>
				
					<line fill="none" stroke="#00ABEB" stroke-width="0.15" stroke-miterlimit="10" x1="71.742" y1="99.678" x2="191.062" y2="-19.641"/>
				
					<line fill="none" stroke="#00ABEB" stroke-width="0.15" stroke-miterlimit="10" x1="74.577" y1="99.678" x2="193.897" y2="-19.641"/>
				
					<line fill="none" stroke="#00ABEB" stroke-width="0.15" stroke-miterlimit="10" x1="77.411" y1="99.678" x2="196.731" y2="-19.641"/>
			</g>
			<g id="Horizontal_5_mm_00000011735556503592991880000008134099091165005186_">
				
					<line fill="none" stroke="#00ABEB" stroke-width="0.3" stroke-miterlimit="10" x1="-149.72" y1="99.688" x2="77.396" y2="99.688"/>
				
					<line fill="none" stroke="#00ABEB" stroke-width="0.3" stroke-miterlimit="10" x1="-139.78" y1="89.749" x2="87.336" y2="89.749"/>
				
					<line fill="none" stroke="#00ABEB" stroke-width="0.3" stroke-miterlimit="10" x1="-129.84" y1="79.809" x2="97.275" y2="79.809"/>
				
					<line fill="none" stroke="#00ABEB" stroke-width="0.3" stroke-miterlimit="10" x1="-119.9" y1="69.869" x2="107.216" y2="69.869"/>
				
					<line fill="none" stroke="#00ABEB" stroke-width="0.3" stroke-miterlimit="10" x1="-109.961" y1="59.929" x2="117.155" y2="59.929"/>
				
					<line fill="none" stroke="#00ABEB" stroke-width="0.3" stroke-miterlimit="10" x1="-100.021" y1="49.99" x2="127.095" y2="49.99"/>
				
					<line fill="none" stroke="#00ABEB" stroke-width="0.3" stroke-miterlimit="10" x1="-90.081" y1="40.05" x2="137.034" y2="40.05"/>
				
					<line fill="none" stroke="#00ABEB" stroke-width="0.3" stroke-miterlimit="10" x1="-80.141" y1="30.11" x2="146.974" y2="30.11"/>
				
					<line fill="none" stroke="#00ABEB" stroke-width="0.3" stroke-miterlimit="10" x1="-70.201" y1="20.17" x2="156.914" y2="20.17"/>
				
					<line fill="none" stroke="#00ABEB" stroke-width="0.3" stroke-miterlimit="10" x1="-60.262" y1="10.231" x2="166.854" y2="10.231"/>
				
					<line fill="none" stroke="#00ABEB" stroke-width="0.3" stroke-miterlimit="10" x1="-50.323" y1="0.292" x2="176.793" y2="0.292"/>
			</g>
			<g id="Vertical_5_mm_00000064346364918789686960000003233481195482251947_">
				
					<line fill="none" stroke="#00ABEB" stroke-width="0.3" stroke-miterlimit="10" x1="-149.36" y1="99.678" x2="-29.847" y2="-19.834"/>
				
					<line fill="none" stroke="#00ABEB" stroke-width="0.3" stroke-miterlimit="10" x1="-135.187" y1="99.678" x2="-15.674" y2="-19.834"/>
				
					<line fill="none" stroke="#00ABEB" stroke-width="0.3" stroke-miterlimit="10" x1="-121.014" y1="99.678" x2="-1.501" y2="-19.834"/>
				
					<line fill="none" stroke="#00ABEB" stroke-width="0.3" stroke-miterlimit="10" x1="-106.841" y1="99.678" x2="12.672" y2="-19.834"/>
				
					<line fill="none" stroke="#00ABEB" stroke-width="0.3" stroke-miterlimit="10" x1="-92.667" y1="99.678" x2="26.846" y2="-19.834"/>
				
					<line fill="none" stroke="#00ABEB" stroke-width="0.3" stroke-miterlimit="10" x1="-78.493" y1="99.678" x2="41.019" y2="-19.834"/>
				
					<line fill="none" stroke="#00ABEB" stroke-width="0.3" stroke-miterlimit="10" x1="-64.321" y1="99.678" x2="55.192" y2="-19.834"/>
				
					<line fill="none" stroke="#00ABEB" stroke-width="0.3" stroke-miterlimit="10" x1="-50.148" y1="99.678" x2="69.365" y2="-19.834"/>
				
					<line fill="none" stroke="#00ABEB" stroke-width="0.3" stroke-miterlimit="10" x1="-35.975" y1="99.678" x2="83.538" y2="-19.834"/>
				
					<line fill="none" stroke="#00ABEB" stroke-width="0.3" stroke-miterlimit="10" x1="-21.801" y1="99.678" x2="97.712" y2="-19.834"/>
				
					<line fill="none" stroke="#00ABEB" stroke-width="0.3" stroke-miterlimit="10" x1="-7.628" y1="99.678" x2="111.885" y2="-19.834"/>
				
					<line fill="none" stroke="#00ABEB" stroke-width="0.3" stroke-miterlimit="10" x1="6.545" y1="99.678" x2="126.058" y2="-19.834"/>
				
					<line fill="none" stroke="#00ABEB" stroke-width="0.3" stroke-miterlimit="10" x1="20.718" y1="99.678" x2="140.231" y2="-19.834"/>
				
					<line fill="none" stroke="#00ABEB" stroke-width="0.3" stroke-miterlimit="10" x1="34.892" y1="99.678" x2="154.405" y2="-19.834"/>
				
					<line fill="none" stroke="#00ABEB" stroke-width="0.3" stroke-miterlimit="10" x1="49.065" y1="99.678" x2="168.578" y2="-19.834"/>
				
					<line fill="none" stroke="#00ABEB" stroke-width="0.3" stroke-miterlimit="10" x1="63.238" y1="99.678" x2="182.751" y2="-19.834"/>
				
					<line fill="none" stroke="#00ABEB" stroke-width="0.3" stroke-miterlimit="10" x1="77.411" y1="99.678" x2="196.924" y2="-19.834"/>
			</g>
			<g id="Horizontal_10_mm_00000163045836177147705350000008480455355013810362_">
				
					<line id="_x31_9_00000057116790517712807720000015084113881736219806_" fill="none" stroke="#00ABEB" stroke-width="0.7" stroke-miterlimit="10" x1="-149.72" y1="99.688" x2="77.396" y2="99.688"/>
				
					<line id="_x32_0_00000024685878617286333290000013167547815532084100_" fill="none" stroke="#00ABEB" stroke-width="0.7" stroke-miterlimit="10" x1="-129.84" y1="79.809" x2="97.275" y2="79.809"/>
				
					<line id="_x32_1_00000138564813020868535020000012777939180148238773_" fill="none" stroke="#00ABEB" stroke-width="0.7" stroke-miterlimit="10" x1="-109.961" y1="59.929" x2="117.155" y2="59.929"/>
				
					<line id="_x32_2_00000052807586205252870140000014502512662559454639_" fill="none" stroke="#00ABEB" stroke-width="0.7" stroke-miterlimit="10" x1="-90.081" y1="40.05" x2="137.034" y2="40.05"/>
				
					<line id="_x32_3_00000051376893246677475670000009295515732899575694_" fill="none" stroke="#00ABEB" stroke-width="0.7" stroke-miterlimit="10" x1="-70.201" y1="20.17" x2="156.914" y2="20.17"/>
				
					<line id="_x32_4_00000099657911357833521510000007853591198542098087_" fill="none" stroke="#00ABEB" stroke-width="0.7" stroke-miterlimit="10" x1="-50.323" y1="0.292" x2="176.793" y2="0.292"/>
				
					<line id="_x32_5_00000155127691660191171140000008292164438978366870_" fill="none" stroke="#00ABEB" stroke-width="0.7" stroke-miterlimit="10" x1="-30.443" y1="-19.588" x2="196.673" y2="-19.588"/>
			</g>
			<g id="Vertical_10_mm_00000134969164297783457920000010833503864539426239_">
				
					<line id="_x30__00000151539528360119995570000005083818057555393183_" fill="none" stroke="#00ABEB" stroke-width="0.7" stroke-miterlimit="10" x1="-149.36" y1="99.678" x2="-29.847" y2="-19.834"/>
				
					<line id="_x31__00000021823889366233599640000011971139016478256513_" fill="none" stroke="#00ABEB" stroke-width="0.7" stroke-miterlimit="10" x1="-121.014" y1="99.678" x2="-1.501" y2="-19.834"/>
				
					<line id="_x32__00000071550223824624162640000006130814236846722696_" fill="none" stroke="#00ABEB" stroke-width="0.7" stroke-miterlimit="10" x1="-92.667" y1="99.678" x2="26.846" y2="-19.834"/>
				
					<line id="_x33__00000042015976804734918030000005045165563697445304_" fill="none" stroke="#00ABEB" stroke-width="0.7" stroke-miterlimit="10" x1="-64.321" y1="99.678" x2="55.192" y2="-19.834"/>
				
					<line id="_x34__00000081637789328126233800000002486991317463304126_" fill="none" stroke="#00ABEB" stroke-width="0.7" stroke-miterlimit="10" x1="-35.975" y1="99.678" x2="83.538" y2="-19.834"/>
				
					<line id="_x35__00000051353690731882489090000004794744233340785543_" fill="none" stroke="#00ABEB" stroke-width="0.7" stroke-miterlimit="10" x1="-7.628" y1="99.678" x2="111.885" y2="-19.834"/>
				
					<line id="_x36__00000011745311307505536660000010485558803267122343_" fill="none" stroke="#00ABEB" stroke-width="0.7" stroke-miterlimit="10" x1="20.718" y1="99.678" x2="140.231" y2="-19.834"/>
				
					<line id="_x37__00000045602144989735358580000003937589459941247142_" fill="none" stroke="#00ABEB" stroke-width="0.7" stroke-miterlimit="10" x1="49.065" y1="99.678" x2="168.578" y2="-19.834"/>
				
					<line id="_x38__00000047029857857898873560000014194396358708286345_" fill="none" stroke="#00ABEB" stroke-width="0.7" stroke-miterlimit="10" x1="77.411" y1="99.678" x2="196.924" y2="-19.834"/>
			</g>
		</g>
	</g>
</g>
<g id="Axis">
	<g id="lines">
		<g>
			<g>
				<line fill="none" stroke="#000000" stroke-width="0.2" stroke-miterlimit="10" x1="23.658" y1="40.04" x2="23.658" y2="4.01"/>
				<g>
					<polygon points="24.399,4.572 23.658,4.257 22.918,4.572 23.658,2.816 					"/>
				</g>
			</g>
		</g>
		<g>
			<g>
				<line fill="none" stroke="#000000" stroke-width="0.2" stroke-miterlimit="10" x1="23.658" y1="40.04" x2="52.017" y2="40.04"/>
				<g>
					<polygon points="51.455,40.781 51.77,40.04 51.455,39.3 53.211,40.04 					"/>
				</g>
			</g>
		</g>
		<g>
			<g>
				<line fill="none" stroke="#000000" stroke-width="0.2" stroke-miterlimit="10" x1="23.658" y1="40.04" x2="9.606" y2="54.093"/>
				<g>
					<polygon points="9.479,53.172 9.78,53.918 10.527,54.219 8.761,54.937 					"/>
				</g>
			</g>
		</g>
	</g>
	<g id="names">
		<g>
			<path d="M51.499,43.216c0.339-0.564,0.487-0.852,0.487-1.027c0-0.056-0.028-0.08-0.104-0.128
				c-0.08-0.052-0.104-0.092-0.104-0.156c0-0.088,0.068-0.148,0.16-0.148c0.12,0,0.208,0.1,0.208,0.22
				c0,0.228-0.192,0.667-0.524,1.219c-0.416,0.688-0.843,1.147-1.071,1.147c-0.12,0-0.204-0.068-0.204-0.172
				c0-0.088,0.068-0.16,0.156-0.16c0.14,0,0.14,0.112,0.244,0.112c0.052,0,0.1-0.032,0.192-0.132
				c0.072-0.076,0.252-0.312,0.284-0.364c0.024-0.048,0.04-0.096,0.04-0.14c0-0.16-0.22-1.055-0.328-1.327
				c-0.076-0.196-0.148-0.256-0.308-0.256c-0.044,0-0.08,0.004-0.124,0.016v-0.068c0.044-0.008,0.088-0.016,0.128-0.024
				c0.08-0.016,0.212-0.04,0.428-0.072h0.016c0.06,0,0.271,0.664,0.34,1.02L51.499,43.216z"/>
		</g>
		<g>
			<path d="M20.322,4.995c0.232,0.052,0.32,0.096,0.48,0.332c0.104,0.152,0.18,0.2,0.28,0.2c0.064,0,0.108-0.024,0.108-0.06
				c0-0.016-0.008-0.036-0.02-0.06c-0.024-0.048-0.032-0.08-0.032-0.112c0.004-0.068,0.068-0.136,0.132-0.136
				c0.083,0,0.14,0.06,0.14,0.148c0,0.16-0.148,0.304-0.372,0.304c-0.116,0-0.252-0.052-0.452-0.176
				c-0.188-0.116-0.315-0.168-0.419-0.168c-0.064,0-0.116,0.02-0.18,0.072L19.95,5.303l1.239-1.487h-0.544
				c-0.208,0-0.284,0.036-0.364,0.24L20.218,4.04l0.128-0.464h1.131V3.62L20.322,4.995z"/>
		</g>
		<g>
			<path d="M12.651,53.809c0.28-0.428,0.428-0.572,0.604-0.572c0.096,0,0.164,0.06,0.164,0.148c0,0.084-0.056,0.144-0.136,0.144
				c-0.076,0-0.112-0.068-0.208-0.068c-0.072,0-0.216,0.176-0.392,0.483c0,0.028,0.008,0.084,0.032,0.18l0.128,0.536
				c0.028,0.112,0.064,0.164,0.12,0.164c0.052,0,0.096-0.04,0.188-0.16c0.036-0.048,0.052-0.072,0.084-0.112l0.06,0.036
				c-0.232,0.36-0.336,0.456-0.488,0.456c-0.128,0-0.188-0.072-0.236-0.272l-0.116-0.476l-0.352,0.476
				c-0.176,0.236-0.256,0.272-0.38,0.272s-0.2-0.064-0.2-0.168c0-0.08,0.056-0.144,0.136-0.144c0.036,0,0.076,0.016,0.128,0.044
				c0.04,0.024,0.08,0.036,0.104,0.036c0.044,0,0.12-0.076,0.204-0.196l0.328-0.464l-0.112-0.496
				c-0.056-0.24-0.084-0.272-0.184-0.272c-0.032,0-0.08,0.008-0.156,0.028l-0.072,0.02l-0.012-0.063l0.044-0.016
				c0.244-0.088,0.376-0.116,0.468-0.116c0.1,0,0.148,0.072,0.204,0.344L12.651,53.809z"/>
		</g>
	</g>
</g>
<g id="Layer_10">
	<g>
		<path fill="none" stroke="#0000FF" stroke-width="0.3" stroke-miterlimit="10" stroke-dasharray="3" d="M38.634,40.04
			c0,0.91-0.737,1.763-2.025,2.497c-2.595,1.479-7.423,2.473-12.951,2.473c-8.271,0-14.976-2.225-14.976-4.97
			c0-1.082,1.042-2.083,2.811-2.899c2.719-1.254,7.154-2.07,12.165-2.07C31.929,35.071,38.634,37.296,38.634,40.04z"/>
		<g>
			<g>
				<path fill="none" stroke="#0000FF" stroke-width="0.3" stroke-miterlimit="10" d="M36.327,42.692
					c-2.653,1.393-7.335,2.318-12.668,2.318c-8.271,0-14.976-2.225-14.976-4.97c0-1.082,1.042-2.083,2.811-2.899"/>
				<g>
					<polygon fill="#0000FF" points="34.883,42.021 34.797,42.309 36.214,42.732 35.689,44.115 35.97,44.221 36.609,42.537 					"/>
				</g>
			</g>
		</g>
	</g>
	<g>
		<path fill="none" stroke="#0000FF" stroke-width="0.3" stroke-miterlimit="10" stroke-dasharray="3" d="M38.634,25.4
			c0,0.91-0.737,1.763-2.025,2.497c-2.595,1.479-7.423,2.473-12.951,2.473c-8.271,0-14.976-2.225-14.976-4.97
			c0-1.082,1.042-2.083,2.811-2.899c2.719-1.254,7.154-2.07,12.165-2.07C31.929,20.43,38.634,22.655,38.634,25.4z"/>
		<g>
			<g>
				<path fill="none" stroke="#0000FF" stroke-width="0.3" stroke-miterlimit="10" d="M36.327,28.051
					c-2.653,1.393-7.335,2.318-12.668,2.318c-8.271,0-14.976-2.225-14.976-4.97c0-1.082,1.042-2.083,2.811-2.899"/>
				<g>
					<polygon fill="#0000FF" points="34.883,27.381 34.797,27.669 36.214,28.092 35.689,29.474 35.97,29.581 36.609,27.896 					"/>
				</g>
			</g>
		</g>
	</g>
	<g>
		<path fill="none" stroke="#0000FF" stroke-width="0.3" stroke-miterlimit="10" stroke-dasharray="3" d="M38.634,11.928
			c0,0.91-0.737,1.763-2.025,2.497c-2.595,1.479-7.423,2.473-12.951,2.473c-8.271,0-14.976-2.225-14.976-4.97
			c0-1.082,1.042-2.083,2.811-2.899c2.719-1.254,7.154-2.07,12.165-2.07C31.929,6.958,38.634,9.183,38.634,11.928z"/>
		<g>
			<g>
				<path fill="none" stroke="#0000FF" stroke-width="0.3" stroke-miterlimit="10" d="M36.327,14.58
					c-2.653,1.393-7.335,2.318-12.668,2.318c-8.271,0-14.976-2.225-14.976-4.97c0-1.082,1.042-2.083,2.811-2.899"/>
				<g>
					<polygon fill="#0000FF" points="34.883,13.909 34.797,14.197 36.214,14.62 35.689,16.003 35.97,16.109 36.609,14.425 					"/>
				</g>
			</g>
		</g>
	</g>
	<g>
		<path fill="#0000FF" d="M7.242,13.006c0.204,0,0.368,0.04,0.476,0.132c0.132,0.112,0.181,0.292,0.181,0.484
			c0,0.216-0.068,0.419-0.172,0.615c-0.212,0.396-0.521,0.568-0.776,0.568c-0.312,0-0.392-0.144-0.455-0.284
			c-0.156,0.188-0.304,0.284-0.588,0.284c-0.256,0-0.516-0.168-0.516-0.563c0-0.108,0.012-0.216,0.04-0.324
			c0.132-0.483,0.543-0.911,1.107-0.911H6.61v0.064c-0.203,0-0.384,0.072-0.535,0.26c-0.2,0.252-0.348,0.684-0.348,1.015
			c0,0.276,0.1,0.376,0.228,0.376c0.18,0,0.412-0.224,0.487-0.444c-0.008-0.06-0.012-0.148-0.012-0.204
			c0-0.1,0.017-0.224,0.048-0.344c0.057-0.208,0.176-0.4,0.324-0.4c0.096,0,0.14,0.076,0.14,0.184c0,0.18-0.08,0.432-0.168,0.583
			c-0.032,0.056-0.084,0.144-0.124,0.204c-0.008,0.028-0.008,0.056-0.008,0.084c0,0.172,0.092,0.336,0.26,0.336
			c0.224,0,0.38-0.188,0.468-0.352c0.124-0.232,0.192-0.584,0.192-0.84c0-0.072-0.004-0.184-0.021-0.244
			C7.494,13.097,7.338,13.07,7.17,13.07v-0.064H7.242z"/>
	</g>
	<g>
		<path fill="#0000FF" d="M42.62,25.797c0.288-0.296,0.547-0.736,0.547-0.923c0-0.04-0.02-0.068-0.072-0.116
			c-0.072-0.064-0.1-0.116-0.1-0.18c0-0.084,0.068-0.136,0.152-0.136c0.132,0,0.224,0.128,0.224,0.236
			c0,0.172-0.112,0.404-0.252,0.62c-0.18,0.28-0.404,0.536-0.476,0.612c-0.22,0.236-0.328,0.368-0.396,0.368
			c-0.024,0-0.036-0.04-0.036-0.108v-0.096c0-0.276-0.044-0.808-0.096-1.111c-0.052-0.304-0.096-0.372-0.244-0.372
			c-0.04,0-0.08,0-0.124,0.004v-0.052c0.18-0.028,0.32-0.056,0.448-0.084c0.032-0.012,0.06-0.016,0.08-0.016
			c0.036,0,0.036,0.024,0.12,0.456c0.052,0.268,0.076,0.488,0.1,1.027L42.62,25.797z"/>
	</g>
	<g>
		<g>
			
				<line fill="none" stroke="#0000FF" stroke-width="0.2" stroke-miterlimit="10" x1="41.748" y1="23.632" x2="43.497" y2="23.632"/>
			<g>
				<polygon fill="#0000FF" points="42.834,24.45 42.698,24.303 43.42,23.632 42.698,22.961 42.834,22.814 43.714,23.632 				"/>
			</g>
		</g>
	</g>
</g>
<g id="Layer_9">
</g>
<g id="sphere" display="none">
	<circle display="inline" opacity="0.05" fill="#FF0000" cx="23.658" cy="40.04" r="28.347"/>
	
		<circle display="inline" fill="none" stroke="#FF0000" stroke-width="0.4" stroke-miterlimit="10" cx="23.658" cy="40.04" r="28.347"/>
	<g display="inline">
		
			<ellipse fill="none" stroke="#FF0000" stroke-width="0.1" stroke-miterlimit="10" stroke-dasharray="3,3" cx="23.658" cy="40.04" rx="28.347" ry="5.372"/>
		<path fill="none" stroke="#FF0000" stroke-width="0.1" stroke-miterlimit="10" d="M52.005,40.04
			c0,2.967-12.691,5.372-28.347,5.372S-4.688,43.007-4.688,40.04"/>
	</g>
</g>
<g id="dS_00000173845004210439059270000015314120835834993593_" display="none">
	<path display="inline" fill="none" stroke="#0000FF" stroke-width="0.1" stroke-miterlimit="10" d="M23.658,19.001"/>
	<path id="dS" display="inline" opacity="0.1" fill="#FF0000" d="M39.289,17.776c-0.502,0.152-1.174,0.295-1.988,0.426l0,0
		c-0.604-0.642-1.234-1.244-1.89-1.802l0,0c0.673-0.116,1.215-0.243,1.603-0.377l0,0C37.802,16.562,38.561,17.148,39.289,17.776
		L39.289,17.776z"/>
	
		<path id="dS_00000080909473959629088630000017174551033345834151_" display="inline" fill="none" stroke="#FF0000" stroke-width="0.2" stroke-linecap="round" stroke-linejoin="round" stroke-miterlimit="10" d="
		M39.288,17.776c-0.502,0.152-1.174,0.295-1.988,0.426l0,0c-0.604-0.642-1.234-1.244-1.89-1.802l0,0
		c0.673-0.116,1.215-0.243,1.603-0.377l0,0C37.802,16.562,38.561,17.148,39.288,17.776L39.288,17.776z"/>
	<g display="inline">
		<path fill="#FF0000" d="M26.811,7.693l2.398-4.006h0.156l0.792,4.006H26.811z M28.946,4.538l-1.529,2.591h2.051L28.946,4.538z"/>
		<path fill="#FF0000" d="M33.476,4.892l-0.108-0.018c0-0.612-0.132-0.978-0.714-0.978c-0.414,0-0.671,0.222-0.671,0.6
			c0,0.294,0.048,0.39,0.593,0.936c0.546,0.552,0.678,0.81,0.678,1.199c0,0.684-0.521,1.169-1.211,1.169
			c-0.186,0-0.348-0.042-0.624-0.138c-0.162-0.06-0.216-0.072-0.282-0.072c-0.12,0-0.216,0.054-0.258,0.192h-0.108l0.204-1.343
			l0.12,0.012c-0.012,0.054-0.012,0.096-0.012,0.138c0,0.588,0.36,1.001,0.864,1.001c0.462,0,0.786-0.312,0.786-0.768
			c0-0.258-0.084-0.438-0.36-0.737l-0.234-0.252c-0.084-0.09-0.156-0.174-0.234-0.252c-0.36-0.384-0.45-0.576-0.45-0.899
			c0-0.63,0.492-0.983,1.067-0.983c0.186,0,0.384,0.03,0.51,0.084c0.126,0.048,0.198,0.066,0.276,0.066
			c0.132,0,0.186-0.03,0.27-0.156h0.138L33.476,4.892z"/>
	</g>
	<g display="inline">
		<path fill="#FF0000" d="M43.378,64.626l-0.108-0.018c0-0.612-0.132-0.978-0.714-0.978c-0.414,0-0.671,0.222-0.671,0.6
			c0,0.294,0.048,0.39,0.593,0.936c0.546,0.552,0.678,0.81,0.678,1.199c0,0.684-0.521,1.169-1.211,1.169
			c-0.186,0-0.348-0.042-0.624-0.138c-0.162-0.06-0.216-0.072-0.282-0.072c-0.12,0-0.216,0.054-0.258,0.192h-0.108l0.204-1.343
			l0.12,0.012c-0.012,0.054-0.012,0.096-0.012,0.138c0,0.588,0.36,1.001,0.864,1.001c0.462,0,0.786-0.312,0.786-0.768
			c0-0.258-0.084-0.438-0.36-0.737l-0.234-0.252c-0.084-0.09-0.156-0.174-0.234-0.252c-0.36-0.384-0.45-0.576-0.45-0.899
			c0-0.63,0.492-0.983,1.067-0.983c0.186,0,0.384,0.03,0.51,0.084c0.126,0.048,0.198,0.066,0.276,0.066
			c0.132,0,0.186-0.03,0.27-0.156h0.138L43.378,64.626z"/>
	</g>
	
		<line display="inline" fill="none" stroke="#0000FF" stroke-width="0.1" stroke-miterlimit="10" x1="44.408" y1="43.7" x2="23.659" y2="40.04"/>
	<g display="inline">
		<path fill="#FF00FF" d="M24.468,19.674l2.399-4.006h0.156l0.792,4.006H24.468z M26.603,16.52l-1.529,2.591h2.051L26.603,16.52z"/>
		<path fill="#FF00FF" d="M30.485,19.038c-0.39,0.516-0.81,0.702-1.229,0.702c-0.486,0-0.768-0.396-0.768-1.031
			c0-1.29,0.677-2.351,1.331-2.849c0.264-0.198,0.492-0.252,0.731-0.252c0.426,0,0.738,0.288,0.738,1.001
			C31.288,17.581,30.929,18.445,30.485,19.038z M29.165,17.785c-0.114,0.3-0.174,0.612-0.174,0.99c0,0.534,0.114,0.839,0.336,0.839
			c0.576,0,1.091-1.241,1.235-1.829H29.165z M30.605,17.593c0.102-0.348,0.18-0.779,0.18-1.229c0-0.384-0.108-0.63-0.318-0.63
			c-0.521,0-1.109,1.325-1.259,1.859H30.605z"/>
	</g>
	<g display="inline">
		<path fill="#00B200" d="M30.713,31.043l2.399-4.006h0.156l0.792,4.006H30.713z M32.848,27.888l-1.529,2.591h2.051L32.848,27.888z"
			/>
		<path fill="#00B200" d="M37.054,28.398c0.276,0,0.438,0.006,0.606,0.072c0.294,0.114,0.479,0.33,0.479,0.756
			c0,0.695-0.653,1.877-1.835,1.883l-0.324,1.164h-0.468l0.324-1.164c-0.258,0-0.492-0.018-0.642-0.066
			c-0.312-0.102-0.461-0.384-0.461-0.768c0-0.605,0.671-1.877,1.769-1.877h0.09l0.402-1.451h0.461L37.054,28.398z M36.556,28.524
			c-0.696,0-1.319,1.067-1.319,1.913c0,0.251,0.102,0.426,0.288,0.498c0.096,0.036,0.21,0.048,0.348,0.048L36.556,28.524z
			 M36.34,30.983c0.15,0,0.246-0.012,0.414-0.096c0.492-0.246,0.882-1.308,0.882-1.805c0-0.27-0.114-0.42-0.27-0.516
			c-0.06-0.036-0.222-0.042-0.348-0.042L36.34,30.983z"/>
	</g>
</g>
<g id="Layer_6" display="none">
</g>
<g id="n" display="none">
	<g display="inline">
		<g>
			
				<line fill="none" stroke="#00A300" stroke-width="0.3" stroke-miterlimit="10" stroke-dasharray="2,2" x1="37.35" y1="17.111" x2="31.995" y2="25.981"/>
			<g>
				<polygon fill="#00A300" points="31.458,24.496 31.752,24.434 32.054,25.882 33.476,25.475 33.559,25.764 31.826,26.259 				"/>
			</g>
		</g>
	</g>
	<g display="inline">
		
			<line fill="none" stroke="#00A300" stroke-width="0.1" stroke-miterlimit="10" stroke-dasharray="2,2" x1="23.658" y1="40.04" x2="42.873" y2="7.963"/>
		<g>
			<g>
				<line fill="none" stroke="#00A300" stroke-width="0.3" stroke-miterlimit="10" x1="37.35" y1="17.111" x2="42.705" y2="8.242"/>
				<g>
					<polygon fill="#00A300" points="43.242,9.727 42.948,9.788 42.646,8.34 41.224,8.747 41.141,8.459 42.874,7.963 					"/>
				</g>
			</g>
		</g>
		
			<polyline fill="none" stroke="#00A300" stroke-width="0.1" stroke-linecap="round" stroke-linejoin="round" stroke-miterlimit="10" points="
			37.872,16.246 38.584,16.685 38.584,16.685 38.085,17.47 		"/>
	</g>
	<g display="inline">
		<path fill="#00B200" d="M46.56,7.279c-0.405,0.553-0.554,0.672-0.833,0.672c-0.149,0-0.28-0.095-0.28-0.321
			c0-0.06,0.012-0.137,0.095-0.447l0.262-0.964c0.048-0.185,0.083-0.398,0.083-0.47c0-0.107-0.054-0.172-0.143-0.172
			c-0.238,0-0.506,0.292-0.881,0.845c-0.268,0.399-0.315,0.536-0.595,1.476h-0.446l0.571-2.083c0.006-0.03,0.012-0.065,0.012-0.101
			c0-0.119-0.083-0.155-0.387-0.161V5.457c0.482-0.095,0.648-0.119,0.964-0.185l0.024,0.012l-0.399,1.297
			c0.595-0.952,0.994-1.31,1.375-1.31c0.256,0,0.387,0.149,0.387,0.363c0,0.107-0.024,0.232-0.06,0.357l-0.333,1.208
			c-0.059,0.214-0.083,0.315-0.083,0.363c0,0.054,0.024,0.107,0.095,0.107c0.083,0,0.19-0.095,0.363-0.315
			c0.042-0.048,0.083-0.101,0.125-0.155L46.56,7.279z"/>
	</g>
	<g display="inline">
		<path fill="#00B200" d="M46.083,4.749l-0.851-1.72h-0.006l-0.845,1.72h-0.405l1.077-2.172h0.357l1.077,2.172H46.083z"/>
	</g>
</g>
<g id="Layer_7" display="none">
	<g display="inline">
		<path d="M51.206,20.401c0.176-0.22,0.352-0.316,0.576-0.316c0.388,0,0.667,0.355,0.667,0.852c0,0.58-0.364,1.027-0.839,1.027
			c-0.168,0-0.26-0.04-0.404-0.172v0.627c0,0.252,0.052,0.296,0.352,0.3v0.072h-0.967v-0.068c0.236-0.024,0.28-0.068,0.28-0.276
			v-1.871c0-0.188-0.028-0.228-0.164-0.228c-0.036,0-0.064,0-0.1,0.004v-0.064c0.22-0.068,0.364-0.12,0.576-0.204l0.024,0.008
			V20.401z M51.206,21.573c0,0.12,0.228,0.264,0.416,0.264c0.288,0,0.484-0.3,0.484-0.74c0-0.468-0.196-0.771-0.492-0.771
			c-0.184,0-0.408,0.144-0.408,0.264V21.573z"/>
		<path d="M52.635,21.924v-0.06c0.276-0.016,0.316-0.052,0.316-0.356v-0.907c0-0.188-0.032-0.252-0.132-0.252
			c-0.036,0-0.096,0-0.168,0.02v-0.064l0.62-0.22l0.016,0.016v1.403c0,0.296,0.032,0.34,0.295,0.36v0.06H52.635z M53.082,19.601
			c-0.112,0-0.2-0.088-0.2-0.204c0-0.112,0.092-0.204,0.204-0.204c0.116,0,0.204,0.092,0.204,0.204
			C53.29,19.513,53.203,19.601,53.082,19.601z"/>
		<path d="M55.377,21.297c-0.156,0.436-0.436,0.667-0.835,0.667c-0.472,0-0.759-0.356-0.759-0.908c0-0.563,0.324-0.971,0.827-0.971
			c0.248,0,0.428,0.096,0.556,0.276c0.08,0.112,0.12,0.24,0.136,0.456H54.07c0.02,0.304,0.04,0.46,0.184,0.652
			c0.112,0.148,0.26,0.22,0.444,0.22c0.268,0,0.419-0.124,0.616-0.42L55.377,21.297z M54.894,20.689
			c-0.044-0.324-0.128-0.46-0.392-0.46c-0.224,0-0.379,0.16-0.423,0.46H54.894z"/>
		<path d="M57.105,21.336c-0.128,0.248-0.208,0.364-0.328,0.46c-0.136,0.112-0.288,0.168-0.46,0.168
			c-0.443,0-0.759-0.372-0.759-0.888c0-0.332,0.12-0.607,0.335-0.788c0.16-0.132,0.352-0.204,0.54-0.204
			c0.336,0,0.616,0.188,0.616,0.412c0,0.092-0.084,0.168-0.188,0.168c-0.088,0-0.16-0.068-0.192-0.184l-0.024-0.088
			c-0.04-0.148-0.092-0.192-0.236-0.192c-0.324,0-0.544,0.28-0.544,0.696c0,0.459,0.252,0.779,0.62,0.779
			c0.228,0,0.372-0.096,0.564-0.375L57.105,21.336z"/>
		<path d="M58.929,21.297c-0.156,0.436-0.436,0.667-0.835,0.667c-0.472,0-0.759-0.356-0.759-0.908c0-0.563,0.324-0.971,0.827-0.971
			c0.248,0,0.428,0.096,0.556,0.276c0.08,0.112,0.12,0.24,0.136,0.456h-1.231c0.02,0.304,0.04,0.46,0.184,0.652
			c0.112,0.148,0.26,0.22,0.444,0.22c0.268,0,0.419-0.124,0.616-0.42L58.929,21.297z M58.446,20.689
			c-0.044-0.324-0.128-0.46-0.392-0.46c-0.224,0-0.379,0.16-0.423,0.46H58.446z"/>
		<path d="M60.99,21.964c-0.484,0-0.864-0.396-0.864-0.952s0.36-0.927,0.9-0.927c0.487,0,0.863,0.364,0.863,0.916
			C61.889,21.556,61.529,21.964,60.99,21.964z M61.329,20.397c-0.096-0.12-0.208-0.2-0.38-0.2c-0.276,0-0.464,0.236-0.464,0.636
			c0,0.316,0.064,0.604,0.212,0.819c0.088,0.128,0.216,0.2,0.36,0.2c0.296,0,0.472-0.28,0.472-0.744
			C61.529,20.837,61.457,20.561,61.329,20.397z"/>
		<path d="M62.422,20.125c0.004-0.32,0.036-0.464,0.14-0.644c0.104-0.18,0.312-0.288,0.563-0.288c0.24,0,0.416,0.104,0.416,0.248
			c0,0.092-0.072,0.164-0.168,0.164c-0.068,0-0.116-0.036-0.18-0.144c-0.072-0.116-0.124-0.156-0.212-0.156
			c-0.152,0-0.224,0.12-0.224,0.356v0.464h0.488v0.128h-0.488v1.255c0,0.3,0.044,0.344,0.372,0.356v0.06H62.09v-0.06
			c0.288-0.016,0.332-0.064,0.332-0.356v-1.255h-0.328v-0.128H62.422z"/>
		<path d="M65.989,21.336c-0.128,0.248-0.208,0.364-0.328,0.46c-0.136,0.112-0.288,0.168-0.46,0.168
			c-0.443,0-0.759-0.372-0.759-0.888c0-0.332,0.12-0.607,0.335-0.788c0.16-0.132,0.352-0.204,0.54-0.204
			c0.336,0,0.616,0.188,0.616,0.412c0,0.092-0.084,0.168-0.188,0.168c-0.088,0-0.16-0.068-0.192-0.184l-0.024-0.088
			c-0.04-0.148-0.092-0.192-0.236-0.192c-0.324,0-0.544,0.28-0.544,0.696c0,0.459,0.252,0.779,0.62,0.779
			c0.228,0,0.372-0.096,0.564-0.375L65.989,21.336z"/>
		<path d="M66.182,21.924v-0.06c0.276-0.016,0.316-0.052,0.316-0.356v-0.907c0-0.188-0.032-0.252-0.132-0.252
			c-0.036,0-0.096,0-0.168,0.02v-0.064l0.62-0.22l0.016,0.016v1.403c0,0.296,0.032,0.34,0.295,0.36v0.06H66.182z M66.63,19.601
			c-0.112,0-0.2-0.088-0.2-0.204c0-0.112,0.092-0.204,0.204-0.204c0.116,0,0.204,0.092,0.204,0.204
			C66.838,19.513,66.75,19.601,66.63,19.601z"/>
		<path d="M67.87,20.461c0.2-0.288,0.312-0.375,0.479-0.375c0.136,0,0.22,0.08,0.22,0.212c0,0.112-0.06,0.18-0.156,0.18
			c-0.052,0-0.096-0.02-0.16-0.08c-0.044-0.04-0.08-0.06-0.104-0.06c-0.112,0-0.28,0.2-0.28,0.328v0.899
			c0,0.228,0.068,0.288,0.34,0.3v0.06H67.25v-0.06c0.256-0.048,0.284-0.076,0.284-0.276v-1c0-0.176-0.036-0.24-0.136-0.24
			c-0.048,0-0.084,0.004-0.14,0.016v-0.064c0.236-0.076,0.38-0.132,0.592-0.216l0.02,0.008V20.461z"/>
		<path d="M70.201,21.336c-0.128,0.248-0.208,0.364-0.328,0.46c-0.136,0.112-0.288,0.168-0.46,0.168
			c-0.443,0-0.759-0.372-0.759-0.888c0-0.332,0.12-0.607,0.335-0.788c0.16-0.132,0.352-0.204,0.54-0.204
			c0.336,0,0.616,0.188,0.616,0.412c0,0.092-0.084,0.168-0.188,0.168c-0.088,0-0.16-0.068-0.192-0.184l-0.024-0.088
			c-0.04-0.148-0.092-0.192-0.236-0.192c-0.324,0-0.544,0.28-0.544,0.696c0,0.459,0.252,0.779,0.62,0.779
			c0.228,0,0.372-0.096,0.564-0.375L70.201,21.336z"/>
		<path d="M70.414,21.924v-0.06c0.252-0.02,0.308-0.088,0.308-0.308v-1.875c0-0.192-0.04-0.256-0.167-0.256
			c-0.032,0-0.084,0-0.148,0.008v-0.064c0.276-0.068,0.423-0.108,0.631-0.176l0.02,0.016v2.367c0,0.22,0.044,0.271,0.3,0.288v0.06
			H70.414z"/>
		<path d="M73.137,21.297c-0.156,0.436-0.436,0.667-0.836,0.667c-0.472,0-0.759-0.356-0.759-0.908c0-0.563,0.324-0.971,0.828-0.971
			c0.248,0,0.428,0.096,0.556,0.276c0.08,0.112,0.12,0.24,0.136,0.456h-1.231c0.02,0.304,0.04,0.46,0.184,0.652
			c0.112,0.148,0.26,0.22,0.444,0.22c0.268,0,0.419-0.124,0.615-0.42L73.137,21.297z M72.653,20.689
			c-0.044-0.324-0.128-0.46-0.392-0.46c-0.224,0-0.379,0.16-0.423,0.46H72.653z"/>
		<path d="M51.55,24.794c-0.484,0-0.864-0.396-0.864-0.952s0.36-0.927,0.9-0.927c0.487,0,0.863,0.364,0.863,0.916
			C52.45,24.386,52.09,24.794,51.55,24.794z M51.89,23.226c-0.096-0.12-0.208-0.2-0.38-0.2c-0.276,0-0.464,0.236-0.464,0.636
			c0,0.316,0.064,0.604,0.212,0.819c0.088,0.128,0.216,0.2,0.36,0.2c0.296,0,0.472-0.28,0.472-0.744
			C52.09,23.666,52.018,23.39,51.89,23.226z"/>
		<path d="M52.982,22.955c0.004-0.32,0.036-0.464,0.14-0.644c0.104-0.18,0.312-0.288,0.563-0.288c0.24,0,0.416,0.104,0.416,0.248
			c0,0.092-0.072,0.164-0.168,0.164c-0.068,0-0.116-0.036-0.18-0.144c-0.072-0.116-0.124-0.156-0.212-0.156
			c-0.152,0-0.224,0.12-0.224,0.356v0.464h0.488v0.128h-0.488v1.255c0,0.3,0.044,0.344,0.372,0.355v0.06h-1.039v-0.06
			c0.288-0.016,0.332-0.064,0.332-0.355v-1.255h-0.328v-0.128H52.982z"/>
		<path d="M55.542,23.29c0.2-0.288,0.312-0.375,0.479-0.375c0.136,0,0.22,0.08,0.22,0.212c0,0.112-0.06,0.18-0.156,0.18
			c-0.052,0-0.096-0.02-0.16-0.08c-0.044-0.04-0.08-0.06-0.104-0.06c-0.112,0-0.28,0.2-0.28,0.328v0.899
			c0,0.228,0.068,0.288,0.34,0.3v0.06h-0.959v-0.06c0.256-0.048,0.284-0.076,0.284-0.276v-1c0-0.176-0.036-0.24-0.136-0.24
			c-0.048,0-0.084,0.004-0.14,0.016v-0.064c0.236-0.076,0.38-0.132,0.592-0.216l0.02,0.008V23.29z"/>
		<path d="M57.994,24.602c-0.12,0.152-0.224,0.192-0.36,0.192c-0.148,0-0.236-0.08-0.256-0.292h-0.004
			c-0.212,0.24-0.408,0.292-0.58,0.292c-0.248,0-0.42-0.152-0.42-0.416c0-0.208,0.124-0.364,0.28-0.468
			c0.12-0.08,0.268-0.156,0.72-0.324V23.37c0-0.248-0.132-0.36-0.312-0.36c-0.16,0-0.28,0.088-0.28,0.196
			c0,0.072,0.024,0.084,0.024,0.168c0,0.076-0.08,0.164-0.184,0.164c-0.084,0-0.172-0.076-0.172-0.184
			c0-0.104,0.064-0.232,0.204-0.32c0.112-0.072,0.28-0.12,0.46-0.12c0.224,0,0.375,0.064,0.472,0.18
			c0.096,0.116,0.112,0.2,0.112,0.444v0.764c0,0.184,0.052,0.264,0.124,0.264c0.064,0,0.104-0.02,0.172-0.076V24.602z
			 M57.374,23.682c-0.248,0.088-0.412,0.172-0.512,0.264c-0.096,0.088-0.136,0.184-0.136,0.308c0,0.212,0.12,0.308,0.276,0.308
			c0.08,0,0.164-0.02,0.232-0.064c0.116-0.08,0.14-0.136,0.14-0.252V23.682z"/>
		<path d="M59.378,24.794l-0.016-0.012v-0.256c-0.136,0.188-0.288,0.268-0.512,0.268c-0.444,0-0.74-0.348-0.74-0.859
			c0-0.568,0.372-1.02,0.832-1.02c0.16,0,0.268,0.044,0.42,0.172v-0.624c0-0.164-0.036-0.204-0.184-0.204
			c-0.032,0-0.056,0-0.088,0.004v-0.064c0.256-0.068,0.396-0.108,0.588-0.176l0.02,0.008v2.267c0,0.184,0.032,0.228,0.176,0.228
			c0.02,0,0.024,0,0.092-0.004v0.064L59.378,24.794z M59.362,23.427c0-0.212-0.192-0.4-0.408-0.4c-0.304,0-0.5,0.296-0.5,0.748
			c0,0.492,0.216,0.812,0.552,0.812c0.124,0,0.224-0.044,0.296-0.128c0.036-0.04,0.06-0.084,0.06-0.112V23.427z"/>
		<path d="M60.067,24.754v-0.06c0.276-0.016,0.316-0.052,0.316-0.355V23.43c0-0.188-0.032-0.252-0.132-0.252
			c-0.036,0-0.096,0-0.168,0.02v-0.064l0.62-0.22l0.016,0.016v1.403c0,0.296,0.032,0.34,0.295,0.36v0.06H60.067z M60.515,22.431
			c-0.112,0-0.2-0.088-0.2-0.204c0-0.112,0.092-0.204,0.204-0.204c0.116,0,0.204,0.092,0.204,0.204
			C60.723,22.343,60.635,22.431,60.515,22.431z"/>
		<path d="M63.034,24.61c-0.204,0.056-0.348,0.1-0.548,0.18l-0.02-0.012V24.45h-0.008c-0.196,0.268-0.424,0.344-0.572,0.344
			c-0.308,0-0.488-0.204-0.488-0.512v-1.003c0-0.2-0.056-0.256-0.248-0.268v-0.056h0.583v1.291c0,0.184,0.128,0.316,0.284,0.316
			c0.116,0,0.236-0.036,0.336-0.124c0.064-0.056,0.092-0.092,0.092-0.232v-0.923c0-0.212-0.056-0.244-0.295-0.26v-0.068h0.631v1.371
			c0,0.184,0.044,0.228,0.228,0.228h0.024V24.61z"/>
		<path d="M64.154,23.802c0.256,0.156,0.352,0.264,0.352,0.492c0,0.268-0.256,0.5-0.56,0.5c-0.084,0-0.2-0.004-0.292-0.036
			c-0.096-0.032-0.14-0.036-0.184-0.036c-0.048,0-0.072,0.008-0.096,0.048h-0.052v-0.628h0.064c0.084,0.388,0.232,0.564,0.508,0.564
			c0.204,0,0.332-0.132,0.332-0.296c0-0.124-0.08-0.228-0.212-0.3l-0.216-0.12c-0.332-0.184-0.479-0.375-0.479-0.58
			c0-0.316,0.224-0.492,0.551-0.492c0.096,0,0.184,0.004,0.268,0.044c0.044,0.02,0.084,0.032,0.112,0.032
			c0.016,0,0.032-0.004,0.064-0.04h0.044l0.02,0.543h-0.06c-0.092-0.36-0.212-0.492-0.452-0.492c-0.172,0-0.3,0.084-0.3,0.272
			c0,0.088,0.06,0.204,0.172,0.272L64.154,23.802z"/>
		<path d="M66.438,23.722c0.076-0.168,0.212-0.38,0.376-0.552c0.104-0.108,0.224-0.18,0.315-0.18c0.112,0,0.188,0.084,0.188,0.204
			s-0.068,0.216-0.188,0.216c-0.072,0-0.104-0.044-0.14-0.104c-0.024-0.04-0.036-0.056-0.064-0.056
			c-0.072,0-0.184,0.132-0.328,0.376c-0.172,0.296-0.244,0.456-0.444,1.127H65.85l0.324-1.167c0.056-0.208,0.064-0.244,0.064-0.328
			s-0.072-0.104-0.152-0.104c-0.032,0-0.064,0.004-0.124,0.012v-0.068l0.62-0.108l0.012,0.008l-0.22,0.863L66.438,23.722z"/>
		<path d="M67.57,23.474v-0.264h2.015v0.264H67.57z M67.57,24.274V24.01h2.015v0.264H67.57z"/>
		<path d="M71.829,24.354c-0.3,0.364-0.396,0.44-0.556,0.44c-0.112,0-0.16-0.048-0.16-0.164c0-0.1,0.008-0.132,0.092-0.459
			c-0.3,0.452-0.532,0.627-0.812,0.627c-0.224,0-0.4-0.16-0.4-0.464c0-0.62,0.612-1.343,1.144-1.343c0.172,0,0.288,0.084,0.32,0.232
			l0.044-0.192l0.012-0.012l0.244-0.028l0.028,0.012c-0.008,0.036-0.012,0.044-0.024,0.084c-0.188,0.684-0.356,1.371-0.356,1.451
			c0,0.028,0.024,0.052,0.056,0.052c0.036,0,0.088-0.032,0.208-0.164l0.108-0.116L71.829,24.354z M71.162,23.078
			c-0.18,0-0.356,0.124-0.524,0.368c-0.167,0.252-0.308,0.607-0.308,0.859c0,0.22,0.096,0.296,0.24,0.296
			c0.2,0,0.388-0.22,0.508-0.392c0.188-0.272,0.308-0.616,0.308-0.9C71.385,23.171,71.301,23.078,71.162,23.078z"/>
		<path d="M72.25,24.798c-0.112,0-0.212-0.1-0.212-0.216c0-0.128,0.1-0.228,0.22-0.228c0.12,0,0.224,0.104,0.224,0.228
			C72.482,24.702,72.378,24.798,72.25,24.798z"/>
		<path d="M74.313,23.546h-0.064c-0.04-0.332-0.16-0.463-0.356-0.463c-0.14,0-0.236,0.08-0.236,0.228
			c0,0.108,0.06,0.224,0.216,0.408c0.2,0.232,0.272,0.388,0.272,0.544c0,0.332-0.244,0.536-0.576,0.536
			c-0.068,0-0.128-0.004-0.22-0.04c-0.076-0.032-0.132-0.036-0.176-0.036c-0.044,0-0.088,0.02-0.116,0.083h-0.064l0.08-0.635h0.064
			c0.056,0.379,0.192,0.543,0.399,0.543c0.188,0,0.304-0.112,0.304-0.308c0-0.128-0.068-0.264-0.224-0.46
			c-0.172-0.216-0.252-0.396-0.252-0.523c0-0.264,0.188-0.432,0.484-0.432c0.068,0,0.124,0.012,0.224,0.04
			c0.076,0.024,0.112,0.028,0.144,0.028c0.06,0,0.088-0.016,0.12-0.072h0.056L74.313,23.546z"/>
		<path d="M75.426,24.342c-0.22,0.335-0.348,0.456-0.548,0.456c-0.132,0-0.196-0.072-0.196-0.22c0-0.08,0.028-0.22,0.088-0.444
			l0.192-0.708c0.02-0.072,0.036-0.144,0.036-0.176c0-0.08-0.04-0.092-0.256-0.096v-0.064c0.156-0.012,0.236-0.024,0.64-0.1
			l0.016,0.012l-0.376,1.371c-0.02,0.068-0.04,0.12-0.04,0.176c0,0.04,0.024,0.06,0.056,0.06c0.068,0,0.164-0.084,0.336-0.312
			L75.426,24.342z M75.346,22.563c-0.116,0-0.192-0.084-0.192-0.212c0-0.124,0.08-0.212,0.188-0.212s0.2,0.104,0.2,0.22
			C75.541,22.471,75.45,22.563,75.346,22.563z"/>
		<path d="M77.493,24.338c-0.272,0.372-0.372,0.452-0.56,0.452c-0.1,0-0.188-0.064-0.188-0.216c0-0.04,0.008-0.092,0.064-0.3
			l0.176-0.647c0.032-0.124,0.056-0.268,0.056-0.316c0-0.072-0.036-0.116-0.096-0.116c-0.16,0-0.34,0.196-0.592,0.567
			c-0.18,0.268-0.211,0.36-0.399,0.992h-0.3l0.384-1.399c0.004-0.02,0.008-0.044,0.008-0.068c0-0.08-0.056-0.104-0.26-0.108v-0.064
			c0.324-0.064,0.436-0.08,0.647-0.124l0.016,0.008l-0.268,0.872c0.4-0.64,0.668-0.88,0.924-0.88c0.172,0,0.26,0.1,0.26,0.244
			c0,0.072-0.016,0.156-0.04,0.24l-0.224,0.812c-0.04,0.144-0.056,0.212-0.056,0.244c0,0.036,0.016,0.072,0.064,0.072
			c0.056,0,0.128-0.064,0.244-0.212c0.028-0.032,0.056-0.068,0.084-0.104L77.493,24.338z"/>
		<path d="M79.253,22.991c0.184,0,0.292,0.004,0.404,0.048c0.196,0.076,0.32,0.22,0.32,0.503c0,0.464-0.436,1.251-1.224,1.255
			l-0.216,0.775h-0.312l0.216-0.775c-0.172,0-0.328-0.012-0.428-0.044c-0.208-0.068-0.308-0.256-0.308-0.512
			c0-0.404,0.448-1.251,1.179-1.251h0.06l0.268-0.967h0.308L79.253,22.991z M78.921,23.074c-0.464,0-0.879,0.712-0.879,1.275
			c0,0.168,0.068,0.284,0.192,0.332c0.064,0.024,0.14,0.032,0.232,0.032L78.921,23.074z M78.777,24.714
			c0.1,0,0.164-0.008,0.276-0.064c0.328-0.164,0.588-0.872,0.588-1.203c0-0.18-0.076-0.28-0.18-0.344
			c-0.04-0.024-0.148-0.028-0.232-0.028L78.777,24.714z"/>
	</g>
	<g display="inline">
		<path d="M50.669,28.974v-0.06c0.252-0.02,0.308-0.088,0.308-0.308v-1.875c0-0.192-0.04-0.256-0.168-0.256
			c-0.032,0-0.083,0-0.147,0.008v-0.064c0.275-0.068,0.423-0.108,0.631-0.176l0.02,0.016v2.367c0,0.22,0.044,0.271,0.3,0.288v0.06
			H50.669z"/>
		<path d="M53.392,28.346c-0.156,0.436-0.436,0.667-0.835,0.667c-0.472,0-0.759-0.356-0.759-0.908c0-0.563,0.324-0.971,0.827-0.971
			c0.248,0,0.428,0.096,0.556,0.276c0.08,0.112,0.12,0.24,0.136,0.456h-1.231c0.02,0.304,0.04,0.46,0.184,0.652
			c0.112,0.148,0.26,0.22,0.444,0.22c0.268,0,0.419-0.124,0.616-0.42L53.392,28.346z M52.909,27.739
			c-0.044-0.324-0.128-0.46-0.392-0.46c-0.224,0-0.379,0.16-0.423,0.46H52.909z"/>
		<path d="M54.58,28.974l0.004-0.06c0.2-0.016,0.248-0.096,0.248-0.36v-0.795c0-0.284-0.096-0.404-0.292-0.404
			c-0.132,0-0.228,0.048-0.412,0.228v1.103c0,0.156,0.056,0.212,0.26,0.228v0.06h-0.844v-0.06c0.204-0.016,0.248-0.08,0.248-0.316
			v-0.971c0-0.196-0.028-0.26-0.14-0.26c-0.044,0-0.088,0.004-0.116,0.016v-0.068c0.22-0.064,0.352-0.108,0.548-0.18l0.032,0.012
			v0.312h0.004c0.208-0.236,0.392-0.324,0.576-0.324c0.304,0,0.472,0.22,0.472,0.616v0.883c0,0.216,0.048,0.26,0.244,0.28v0.06
			H54.58z"/>
		<path d="M57.02,27.423c0.056,0.128,0.076,0.22,0.076,0.336c0,0.208-0.064,0.356-0.208,0.464c-0.128,0.096-0.276,0.156-0.416,0.156
			c-0.024,0-0.08-0.004-0.152-0.012l-0.076-0.008c-0.108,0.032-0.24,0.172-0.24,0.252c0,0.064,0.096,0.096,0.312,0.108l0.516,0.024
			c0.296,0.012,0.483,0.18,0.483,0.428c0,0.16-0.076,0.292-0.24,0.42c-0.208,0.16-0.512,0.256-0.799,0.256
			c-0.384,0-0.692-0.176-0.692-0.388c0-0.148,0.104-0.28,0.392-0.488c-0.168-0.08-0.212-0.124-0.212-0.212
			c0-0.08,0.052-0.16,0.184-0.276c0.06-0.052,0.116-0.104,0.172-0.16c-0.268-0.132-0.372-0.284-0.372-0.536
			c0-0.364,0.296-0.651,0.667-0.651c0.104,0,0.212,0.02,0.32,0.06l0.088,0.032c0.08,0.028,0.14,0.04,0.22,0.04h0.308v0.156H57.02z
			 M56.708,29.034c-0.196,0-0.512-0.024-0.647-0.052c-0.16,0.192-0.196,0.252-0.196,0.344c0,0.176,0.228,0.292,0.58,0.292
			c0.456,0,0.759-0.156,0.759-0.388C57.204,29.082,57.072,29.034,56.708,29.034z M56.08,27.635c0,0.384,0.164,0.644,0.412,0.644
			c0.18,0,0.296-0.14,0.296-0.36c0-0.164-0.044-0.344-0.12-0.483c-0.064-0.12-0.168-0.188-0.292-0.188
			c-0.184,0-0.296,0.14-0.296,0.376V27.635z"/>
		<path d="M58.588,28.71c-0.132,0.208-0.284,0.304-0.483,0.304c-0.232,0-0.352-0.172-0.352-0.508v-1.203h-0.212
			c-0.012-0.008-0.016-0.016-0.016-0.028c0-0.024,0.024-0.048,0.068-0.076c0.104-0.06,0.236-0.208,0.388-0.428
			c0.024-0.036,0.056-0.072,0.08-0.112c0.02,0,0.028,0.012,0.028,0.052v0.464h0.404v0.128h-0.404v1.143
			c0,0.256,0.06,0.36,0.208,0.36c0.088,0,0.152-0.036,0.24-0.14L58.588,28.71z"/>
		<path d="M59.716,28.974v-0.06c0.231-0.024,0.271-0.072,0.271-0.348v-0.792c0-0.28-0.1-0.424-0.296-0.424
			c-0.16,0-0.28,0.068-0.448,0.252v0.963c0,0.276,0.04,0.324,0.272,0.348v0.06h-0.863v-0.06c0.232-0.032,0.256-0.068,0.256-0.348
			v-1.883c0-0.172-0.032-0.204-0.204-0.204c-0.016,0-0.036,0-0.048,0.004v-0.064l0.108-0.032c0.228-0.068,0.32-0.096,0.459-0.144
			l0.02,0.012v1.216c0.184-0.24,0.352-0.336,0.588-0.336c0.328,0,0.492,0.216,0.492,0.636v0.795c0,0.276,0.024,0.308,0.24,0.348
			v0.06H59.716z"/>
		<path d="M60.809,27.695v-0.264h2.354v0.264H60.809z M60.809,28.494V28.23h2.354v0.264H60.809z"/>
		<path d="M65.26,28.574c-0.3,0.364-0.396,0.44-0.556,0.44c-0.112,0-0.16-0.048-0.16-0.164c0-0.1,0.008-0.132,0.092-0.459
			c-0.3,0.452-0.532,0.627-0.812,0.627c-0.224,0-0.4-0.16-0.4-0.464c0-0.62,0.612-1.343,1.144-1.343c0.172,0,0.288,0.084,0.32,0.232
			l0.044-0.192l0.012-0.012l0.244-0.028l0.028,0.012c-0.008,0.036-0.012,0.044-0.024,0.084c-0.188,0.684-0.356,1.371-0.356,1.451
			c0,0.028,0.024,0.052,0.056,0.052c0.036,0,0.088-0.032,0.208-0.164l0.108-0.116L65.26,28.574z M64.593,27.299
			c-0.18,0-0.356,0.124-0.524,0.368c-0.168,0.251-0.308,0.607-0.308,0.859c0,0.22,0.096,0.296,0.24,0.296
			c0.2,0,0.388-0.22,0.508-0.392c0.188-0.271,0.308-0.615,0.308-0.899C64.816,27.391,64.733,27.299,64.593,27.299z"/>
		<path d="M65.681,29.018c-0.112,0-0.212-0.1-0.212-0.216c0-0.128,0.1-0.228,0.22-0.228c0.12,0,0.224,0.104,0.224,0.228
			C65.913,28.922,65.809,29.018,65.681,29.018z"/>
		<path d="M67.745,27.766h-0.064c-0.04-0.332-0.16-0.463-0.356-0.463c-0.14,0-0.236,0.08-0.236,0.228
			c0,0.108,0.06,0.224,0.216,0.408c0.2,0.232,0.272,0.388,0.272,0.544c0,0.332-0.244,0.536-0.576,0.536
			c-0.068,0-0.128-0.004-0.22-0.04c-0.076-0.032-0.132-0.036-0.176-0.036s-0.088,0.02-0.116,0.084h-0.064l0.08-0.635h0.064
			c0.056,0.379,0.192,0.543,0.4,0.543c0.188,0,0.304-0.112,0.304-0.308c0-0.128-0.068-0.264-0.224-0.46
			c-0.172-0.216-0.252-0.396-0.252-0.523c0-0.264,0.188-0.432,0.484-0.432c0.068,0,0.124,0.012,0.224,0.04
			c0.076,0.024,0.112,0.028,0.144,0.028c0.06,0,0.088-0.016,0.12-0.072h0.056L67.745,27.766z"/>
		<path d="M68.857,28.562c-0.22,0.335-0.348,0.456-0.548,0.456c-0.132,0-0.196-0.072-0.196-0.22c0-0.08,0.028-0.22,0.088-0.444
			l0.192-0.708c0.02-0.072,0.036-0.144,0.036-0.176c0-0.08-0.04-0.092-0.256-0.096v-0.064c0.156-0.012,0.236-0.024,0.64-0.1
			l0.016,0.012l-0.376,1.371c-0.02,0.068-0.04,0.12-0.04,0.176c0,0.04,0.024,0.06,0.056,0.06c0.068,0,0.164-0.084,0.336-0.312
			L68.857,28.562z M68.777,26.783c-0.116,0-0.192-0.084-0.192-0.212c0-0.124,0.08-0.212,0.188-0.212s0.2,0.104,0.2,0.22
			C68.973,26.691,68.881,26.783,68.777,26.783z"/>
		<path d="M70.924,28.558c-0.272,0.372-0.372,0.452-0.56,0.452c-0.1,0-0.188-0.064-0.188-0.216c0-0.04,0.008-0.092,0.064-0.3
			l0.176-0.648c0.032-0.124,0.056-0.268,0.056-0.316c0-0.072-0.036-0.116-0.096-0.116c-0.16,0-0.34,0.196-0.592,0.568
			c-0.18,0.268-0.212,0.359-0.399,0.991h-0.3l0.384-1.399c0.004-0.02,0.008-0.044,0.008-0.068c0-0.08-0.056-0.104-0.26-0.108v-0.064
			c0.324-0.064,0.436-0.08,0.647-0.124l0.016,0.008l-0.268,0.872c0.4-0.64,0.668-0.88,0.924-0.88c0.172,0,0.26,0.1,0.26,0.244
			c0,0.072-0.016,0.156-0.04,0.24l-0.224,0.812c-0.04,0.144-0.056,0.212-0.056,0.244c0,0.036,0.016,0.072,0.064,0.072
			c0.056,0,0.128-0.064,0.244-0.212c0.028-0.032,0.056-0.068,0.084-0.104L70.924,28.558z"/>
		<path d="M72.684,27.211c0.184,0,0.292,0.004,0.404,0.048c0.196,0.076,0.32,0.22,0.32,0.503c0,0.464-0.436,1.251-1.224,1.255
			l-0.216,0.775h-0.312l0.216-0.775c-0.172,0-0.328-0.012-0.428-0.044c-0.208-0.068-0.308-0.256-0.308-0.512
			c0-0.404,0.448-1.251,1.179-1.251h0.06l0.268-0.967h0.308L72.684,27.211z M72.352,27.295c-0.464,0-0.879,0.712-0.879,1.275
			c0,0.168,0.068,0.284,0.192,0.332c0.064,0.024,0.14,0.032,0.232,0.032L72.352,27.295z M72.208,28.934
			c0.1,0,0.164-0.008,0.276-0.064c0.328-0.164,0.588-0.872,0.588-1.203c0-0.18-0.076-0.28-0.18-0.344
			c-0.04-0.024-0.148-0.028-0.231-0.028L72.208,28.934z"/>
		<path d="M73.857,29.018c-0.112,0-0.212-0.1-0.212-0.216c0-0.128,0.1-0.228,0.22-0.228c0.12,0,0.224,0.104,0.224,0.228
			C74.089,28.922,73.985,29.018,73.857,29.018z"/>
		<path d="M74.409,28.974l1.599-2.67h0.104l0.528,2.67H74.409z M75.832,26.871l-1.02,1.727h1.367L75.832,26.871z"/>
		<path d="M78.42,28.55c-0.26,0.344-0.54,0.468-0.82,0.468c-0.324,0-0.512-0.264-0.512-0.688c0-0.859,0.452-1.567,0.888-1.899
			c0.176-0.132,0.328-0.168,0.488-0.168c0.284,0,0.492,0.192,0.492,0.667C78.956,27.579,78.716,28.155,78.42,28.55z M77.54,27.715
			c-0.076,0.2-0.116,0.408-0.116,0.66c0,0.356,0.076,0.56,0.224,0.56c0.384,0,0.728-0.828,0.824-1.219H77.54z M78.5,27.587
			c0.068-0.232,0.12-0.52,0.12-0.82c0-0.256-0.072-0.419-0.212-0.419c-0.348,0-0.74,0.883-0.839,1.239H78.5z"/>
	</g>
	<g display="inline">
		<path d="M51.122,5.951c0.176-0.22,0.352-0.316,0.576-0.316c0.388,0,0.667,0.355,0.667,0.852c0,0.58-0.364,1.027-0.839,1.027
			c-0.168,0-0.26-0.04-0.404-0.172V7.97c0,0.252,0.052,0.296,0.352,0.3v0.072h-0.967V8.274c0.236-0.024,0.28-0.068,0.28-0.276V6.127
			c0-0.188-0.028-0.228-0.164-0.228c-0.036,0-0.064,0-0.1,0.004V5.839c0.22-0.068,0.364-0.12,0.576-0.204l0.024,0.008V5.951z
			 M51.122,7.122c0,0.12,0.228,0.264,0.416,0.264c0.288,0,0.484-0.3,0.484-0.74c0-0.468-0.196-0.771-0.492-0.771
			c-0.184,0-0.408,0.144-0.408,0.264V7.122z"/>
		<path d="M52.55,7.474v-0.06c0.276-0.016,0.316-0.052,0.316-0.356V6.151c0-0.188-0.032-0.252-0.132-0.252
			c-0.036,0-0.096,0-0.168,0.02V5.855l0.62-0.22l0.016,0.016v1.403c0,0.296,0.032,0.34,0.295,0.36v0.06H52.55z M52.998,5.151
			c-0.112,0-0.2-0.088-0.2-0.204c0-0.112,0.092-0.204,0.204-0.204c0.116,0,0.204,0.092,0.204,0.204
			C53.206,5.063,53.118,5.151,52.998,5.151z"/>
		<path d="M55.293,6.846c-0.156,0.436-0.436,0.667-0.835,0.667c-0.472,0-0.759-0.356-0.759-0.908c0-0.563,0.324-0.971,0.827-0.971
			c0.248,0,0.428,0.096,0.556,0.276c0.08,0.112,0.12,0.24,0.136,0.456h-1.231c0.02,0.304,0.04,0.46,0.184,0.652
			c0.112,0.148,0.26,0.22,0.444,0.22c0.268,0,0.419-0.124,0.616-0.42L55.293,6.846z M54.809,6.239
			c-0.044-0.324-0.128-0.46-0.392-0.46c-0.224,0-0.379,0.16-0.423,0.46H54.809z"/>
		<path d="M57.021,6.886c-0.128,0.248-0.208,0.364-0.328,0.46c-0.136,0.112-0.288,0.168-0.46,0.168
			c-0.443,0-0.759-0.372-0.759-0.888c0-0.332,0.12-0.607,0.335-0.788c0.16-0.132,0.352-0.204,0.54-0.204
			c0.336,0,0.616,0.188,0.616,0.412c0,0.092-0.084,0.168-0.188,0.168c-0.088,0-0.16-0.068-0.192-0.184l-0.024-0.088
			c-0.04-0.148-0.092-0.192-0.236-0.192c-0.324,0-0.544,0.28-0.544,0.696c0,0.459,0.252,0.779,0.62,0.779
			c0.228,0,0.372-0.096,0.564-0.375L57.021,6.886z"/>
		<path d="M58.845,6.846c-0.156,0.436-0.436,0.667-0.835,0.667c-0.472,0-0.759-0.356-0.759-0.908c0-0.563,0.324-0.971,0.827-0.971
			c0.248,0,0.428,0.096,0.556,0.276c0.08,0.112,0.12,0.24,0.136,0.456h-1.231c0.02,0.304,0.04,0.46,0.184,0.652
			c0.112,0.148,0.26,0.22,0.444,0.22c0.268,0,0.419-0.124,0.616-0.42L58.845,6.846z M58.361,6.239
			c-0.044-0.324-0.128-0.46-0.392-0.46c-0.224,0-0.379,0.16-0.423,0.46H58.361z"/>
		<path d="M60.905,7.514c-0.484,0-0.864-0.396-0.864-0.952s0.36-0.927,0.9-0.927c0.487,0,0.863,0.364,0.863,0.916
			C61.805,7.106,61.445,7.514,60.905,7.514z M61.245,5.947c-0.096-0.12-0.208-0.2-0.38-0.2c-0.276,0-0.464,0.236-0.464,0.636
			c0,0.316,0.064,0.604,0.212,0.819c0.088,0.128,0.216,0.2,0.36,0.2c0.296,0,0.472-0.28,0.472-0.744
			C61.445,6.387,61.373,6.111,61.245,5.947z"/>
		<path d="M62.337,5.675c0.004-0.32,0.036-0.464,0.14-0.644c0.104-0.18,0.312-0.288,0.563-0.288c0.24,0,0.416,0.104,0.416,0.248
			c0,0.092-0.072,0.164-0.168,0.164c-0.068,0-0.116-0.036-0.18-0.144c-0.072-0.116-0.124-0.156-0.212-0.156
			c-0.152,0-0.224,0.12-0.224,0.356v0.464h0.488v0.128h-0.488v1.255c0,0.3,0.044,0.344,0.372,0.356v0.06h-1.039v-0.06
			c0.288-0.016,0.332-0.064,0.332-0.356V5.803H62.01V5.675H62.337z"/>
		<path d="M65.905,6.886c-0.128,0.248-0.208,0.364-0.328,0.46c-0.136,0.112-0.288,0.168-0.46,0.168
			c-0.443,0-0.759-0.372-0.759-0.888c0-0.332,0.12-0.607,0.335-0.788c0.16-0.132,0.352-0.204,0.54-0.204
			c0.336,0,0.616,0.188,0.616,0.412c0,0.092-0.084,0.168-0.188,0.168c-0.088,0-0.16-0.068-0.192-0.184l-0.024-0.088
			c-0.04-0.148-0.092-0.192-0.236-0.192c-0.324,0-0.544,0.28-0.544,0.696c0,0.459,0.252,0.779,0.62,0.779
			c0.228,0,0.372-0.096,0.564-0.375L65.905,6.886z"/>
		<path d="M66.098,7.474v-0.06c0.276-0.016,0.316-0.052,0.316-0.356V6.151c0-0.188-0.032-0.252-0.132-0.252
			c-0.036,0-0.096,0-0.168,0.02V5.855l0.62-0.22l0.016,0.016v1.403c0,0.296,0.032,0.34,0.295,0.36v0.06H66.098z M66.545,5.151
			c-0.112,0-0.2-0.088-0.2-0.204c0-0.112,0.092-0.204,0.204-0.204c0.116,0,0.204,0.092,0.204,0.204
			C66.753,5.063,66.665,5.151,66.545,5.151z"/>
		<path d="M67.785,6.011c0.2-0.288,0.312-0.375,0.479-0.375c0.136,0,0.22,0.08,0.22,0.212c0,0.112-0.06,0.18-0.156,0.18
			c-0.052,0-0.096-0.02-0.16-0.08c-0.044-0.04-0.08-0.06-0.104-0.06c-0.112,0-0.28,0.2-0.28,0.328v0.899
			c0,0.228,0.068,0.288,0.34,0.3v0.06h-0.959v-0.06c0.256-0.048,0.284-0.076,0.284-0.276v-1c0-0.176-0.036-0.24-0.136-0.24
			c-0.048,0-0.084,0.004-0.14,0.016V5.851c0.236-0.076,0.38-0.132,0.592-0.216l0.02,0.008V6.011z"/>
		<path d="M70.117,6.886c-0.128,0.248-0.208,0.364-0.328,0.46c-0.136,0.112-0.288,0.168-0.46,0.168
			c-0.443,0-0.759-0.372-0.759-0.888c0-0.332,0.12-0.607,0.335-0.788c0.16-0.132,0.352-0.204,0.54-0.204
			c0.336,0,0.616,0.188,0.616,0.412c0,0.092-0.084,0.168-0.188,0.168c-0.088,0-0.16-0.068-0.192-0.184l-0.024-0.088
			c-0.04-0.148-0.092-0.192-0.236-0.192c-0.324,0-0.544,0.28-0.544,0.696c0,0.459,0.252,0.779,0.62,0.779
			c0.228,0,0.372-0.096,0.564-0.375L70.117,6.886z"/>
		<path d="M70.329,7.474v-0.06c0.252-0.02,0.308-0.088,0.308-0.308V5.231c0-0.192-0.04-0.256-0.167-0.256
			c-0.032,0-0.084,0-0.148,0.008V4.919c0.276-0.068,0.423-0.108,0.631-0.176l0.02,0.016v2.367c0,0.22,0.044,0.271,0.3,0.288v0.06
			H70.329z"/>
		<path d="M73.053,6.846c-0.156,0.436-0.436,0.667-0.836,0.667c-0.472,0-0.759-0.356-0.759-0.908c0-0.563,0.324-0.971,0.828-0.971
			c0.248,0,0.428,0.096,0.556,0.276c0.08,0.112,0.12,0.24,0.136,0.456h-1.231c0.02,0.304,0.04,0.46,0.184,0.652
			c0.112,0.148,0.26,0.22,0.444,0.22c0.268,0,0.419-0.124,0.615-0.42L73.053,6.846z M72.569,6.239
			c-0.044-0.324-0.128-0.46-0.392-0.46c-0.224,0-0.379,0.16-0.423,0.46H72.569z"/>
		<path d="M51.466,10.344c-0.484,0-0.864-0.396-0.864-0.952s0.36-0.927,0.9-0.927c0.487,0,0.863,0.364,0.863,0.916
			C52.365,9.936,52.005,10.344,51.466,10.344z M51.806,8.776c-0.096-0.12-0.208-0.2-0.38-0.2c-0.276,0-0.464,0.236-0.464,0.636
			c0,0.316,0.064,0.604,0.212,0.819c0.088,0.128,0.216,0.2,0.36,0.2c0.296,0,0.472-0.28,0.472-0.744
			C52.005,9.216,51.934,8.94,51.806,8.776z"/>
		<path d="M52.898,8.505c0.004-0.32,0.036-0.464,0.14-0.644c0.104-0.18,0.312-0.288,0.563-0.288c0.24,0,0.416,0.104,0.416,0.248
			c0,0.092-0.072,0.164-0.168,0.164c-0.068,0-0.116-0.036-0.18-0.144c-0.072-0.116-0.124-0.156-0.212-0.156
			c-0.152,0-0.224,0.12-0.224,0.356v0.464h0.488v0.128h-0.488v1.255c0,0.3,0.044,0.344,0.372,0.355v0.06h-1.039v-0.06
			c0.288-0.016,0.332-0.064,0.332-0.355V8.633H52.57V8.505H52.898z"/>
		<path d="M55.458,8.84c0.2-0.288,0.312-0.375,0.479-0.375c0.136,0,0.22,0.08,0.22,0.212c0,0.112-0.06,0.18-0.156,0.18
			c-0.052,0-0.096-0.02-0.16-0.08c-0.044-0.04-0.08-0.06-0.104-0.06c-0.112,0-0.28,0.2-0.28,0.328v0.899
			c0,0.228,0.068,0.288,0.34,0.3v0.06h-0.959v-0.06c0.256-0.048,0.284-0.076,0.284-0.276v-1c0-0.176-0.036-0.24-0.136-0.24
			c-0.048,0-0.084,0.004-0.14,0.016V8.68c0.236-0.076,0.38-0.132,0.592-0.216l0.02,0.008V8.84z"/>
		<path d="M57.91,10.152c-0.12,0.152-0.224,0.192-0.36,0.192c-0.148,0-0.236-0.08-0.256-0.292H57.29
			c-0.212,0.24-0.408,0.292-0.58,0.292c-0.248,0-0.42-0.152-0.42-0.416c0-0.208,0.124-0.364,0.28-0.468
			c0.12-0.08,0.268-0.156,0.72-0.324V8.92c0-0.248-0.132-0.36-0.312-0.36c-0.16,0-0.28,0.088-0.28,0.196
			c0,0.072,0.024,0.084,0.024,0.168c0,0.076-0.08,0.164-0.184,0.164c-0.084,0-0.172-0.076-0.172-0.184
			c0-0.104,0.064-0.232,0.204-0.32c0.112-0.072,0.28-0.12,0.46-0.12c0.224,0,0.375,0.064,0.472,0.18
			c0.096,0.116,0.112,0.2,0.112,0.444v0.764c0,0.184,0.052,0.264,0.124,0.264c0.064,0,0.104-0.02,0.172-0.076V10.152z M57.29,9.232
			c-0.248,0.088-0.412,0.172-0.512,0.264c-0.096,0.088-0.136,0.184-0.136,0.308c0,0.212,0.12,0.308,0.276,0.308
			c0.08,0,0.164-0.02,0.232-0.064c0.116-0.08,0.14-0.136,0.14-0.252V9.232z"/>
		<path d="M59.294,10.344l-0.016-0.012v-0.256c-0.136,0.188-0.288,0.268-0.512,0.268c-0.444,0-0.74-0.348-0.74-0.859
			c0-0.568,0.372-1.02,0.832-1.02c0.16,0,0.268,0.044,0.42,0.172V8.013c0-0.164-0.036-0.204-0.184-0.204
			c-0.032,0-0.056,0-0.088,0.004V7.749c0.256-0.068,0.396-0.108,0.588-0.176l0.02,0.008v2.267c0,0.184,0.032,0.228,0.176,0.228
			c0.02,0,0.024,0,0.092-0.004v0.064L59.294,10.344z M59.278,8.976c0-0.212-0.192-0.4-0.408-0.4c-0.304,0-0.5,0.296-0.5,0.748
			c0,0.492,0.216,0.812,0.552,0.812c0.124,0,0.224-0.044,0.296-0.128c0.036-0.04,0.06-0.084,0.06-0.112V8.976z"/>
		<path d="M59.982,10.304v-0.06c0.276-0.016,0.316-0.052,0.316-0.355V8.98c0-0.188-0.032-0.252-0.132-0.252
			c-0.036,0-0.096,0-0.168,0.02V8.684l0.62-0.22l0.016,0.016v1.403c0,0.296,0.032,0.34,0.295,0.36v0.06H59.982z M60.43,7.981
			c-0.112,0-0.2-0.088-0.2-0.204c0-0.112,0.092-0.204,0.204-0.204c0.116,0,0.204,0.092,0.204,0.204
			C60.638,7.893,60.55,7.981,60.43,7.981z"/>
		<path d="M62.949,10.159c-0.204,0.056-0.348,0.1-0.548,0.18l-0.02-0.012V10h-0.008c-0.196,0.268-0.424,0.344-0.572,0.344
			c-0.308,0-0.488-0.204-0.488-0.512V8.828c0-0.2-0.056-0.256-0.248-0.268V8.505h0.583v1.291c0,0.184,0.128,0.316,0.284,0.316
			c0.116,0,0.236-0.036,0.336-0.124c0.064-0.056,0.092-0.092,0.092-0.232V8.832c0-0.212-0.056-0.244-0.295-0.26V8.505h0.631v1.371
			c0,0.184,0.044,0.228,0.228,0.228h0.024V10.159z"/>
		<path d="M64.07,9.352c0.256,0.156,0.352,0.264,0.352,0.492c0,0.268-0.256,0.5-0.56,0.5c-0.084,0-0.2-0.004-0.292-0.036
			c-0.096-0.032-0.14-0.036-0.184-0.036c-0.048,0-0.072,0.008-0.096,0.048h-0.052V9.692h0.064c0.084,0.388,0.232,0.564,0.508,0.564
			c0.204,0,0.332-0.132,0.332-0.296c0-0.124-0.08-0.228-0.212-0.3l-0.216-0.12c-0.332-0.184-0.479-0.375-0.479-0.58
			c0-0.316,0.224-0.492,0.551-0.492c0.096,0,0.184,0.004,0.268,0.044c0.044,0.02,0.084,0.032,0.112,0.032
			c0.016,0,0.032-0.004,0.064-0.04h0.044l0.02,0.543h-0.06c-0.092-0.36-0.212-0.492-0.452-0.492c-0.172,0-0.3,0.084-0.3,0.272
			c0,0.088,0.06,0.204,0.172,0.272L64.07,9.352z"/>
		<path d="M67.489,9.904c-0.3,0.364-0.396,0.44-0.556,0.44c-0.112,0-0.16-0.048-0.16-0.164c0-0.1,0.008-0.132,0.092-0.459
			c-0.3,0.452-0.532,0.627-0.812,0.627c-0.224,0-0.4-0.16-0.4-0.464c0-0.62,0.612-1.343,1.144-1.343c0.172,0,0.288,0.084,0.32,0.232
			l0.044-0.192l0.012-0.012l0.244-0.028l0.028,0.012c-0.008,0.036-0.012,0.044-0.024,0.084c-0.188,0.684-0.356,1.371-0.356,1.451
			c0,0.028,0.024,0.052,0.056,0.052c0.036,0,0.088-0.032,0.208-0.164l0.108-0.116L67.489,9.904z M66.821,8.628
			c-0.18,0-0.356,0.124-0.524,0.368C66.13,9.248,65.99,9.604,65.99,9.856c0,0.22,0.096,0.296,0.24,0.296
			c0.2,0,0.388-0.22,0.508-0.392c0.188-0.272,0.308-0.616,0.308-0.9C67.045,8.72,66.961,8.628,66.821,8.628z"/>
	</g>
	<g display="inline">
		<path d="M50.494,14.521v-0.06c0.252-0.02,0.308-0.088,0.308-0.308v-1.875c0-0.192-0.04-0.256-0.168-0.256
			c-0.032,0-0.083,0-0.147,0.008v-0.064c0.275-0.068,0.423-0.108,0.631-0.176l0.02,0.016v2.367c0,0.22,0.044,0.271,0.3,0.288v0.06
			H50.494z"/>
		<path d="M53.217,13.893c-0.156,0.436-0.436,0.667-0.835,0.667c-0.472,0-0.759-0.356-0.759-0.908c0-0.563,0.324-0.971,0.827-0.971
			c0.248,0,0.428,0.096,0.556,0.276c0.08,0.112,0.12,0.24,0.136,0.456H51.91c0.02,0.304,0.04,0.46,0.184,0.652
			c0.112,0.148,0.26,0.22,0.444,0.22c0.268,0,0.419-0.124,0.616-0.42L53.217,13.893z M52.733,13.285
			c-0.044-0.324-0.128-0.46-0.392-0.46c-0.224,0-0.379,0.16-0.423,0.46H52.733z"/>
		<path d="M54.405,14.521l0.004-0.06c0.2-0.016,0.248-0.096,0.248-0.36v-0.795c0-0.284-0.096-0.404-0.292-0.404
			c-0.132,0-0.228,0.048-0.412,0.228v1.103c0,0.156,0.056,0.212,0.26,0.228v0.06H53.37v-0.06c0.204-0.016,0.248-0.08,0.248-0.316
			v-0.971c0-0.196-0.028-0.26-0.14-0.26c-0.044,0-0.088,0.004-0.116,0.016v-0.068c0.22-0.064,0.352-0.108,0.548-0.18l0.032,0.012
			v0.312h0.004c0.208-0.236,0.392-0.324,0.576-0.324c0.304,0,0.472,0.22,0.472,0.616v0.883c0,0.216,0.048,0.26,0.244,0.28v0.06
			H54.405z"/>
		<path d="M56.845,12.97c0.056,0.128,0.076,0.22,0.076,0.336c0,0.208-0.064,0.356-0.208,0.464c-0.128,0.096-0.276,0.156-0.416,0.156
			c-0.024,0-0.08-0.004-0.152-0.012l-0.076-0.008c-0.108,0.032-0.24,0.172-0.24,0.252c0,0.064,0.096,0.096,0.312,0.108l0.516,0.024
			c0.296,0.012,0.483,0.18,0.483,0.428c0,0.16-0.076,0.292-0.24,0.42c-0.208,0.16-0.512,0.256-0.799,0.256
			c-0.384,0-0.692-0.176-0.692-0.388c0-0.148,0.104-0.28,0.392-0.488c-0.168-0.08-0.212-0.124-0.212-0.212
			c0-0.08,0.052-0.16,0.184-0.276c0.06-0.052,0.116-0.104,0.172-0.16c-0.268-0.132-0.372-0.284-0.372-0.536
			c0-0.364,0.296-0.651,0.667-0.651c0.104,0,0.212,0.02,0.32,0.06l0.088,0.032c0.08,0.028,0.14,0.04,0.22,0.04h0.308v0.156H56.845z
			 M56.533,14.581c-0.196,0-0.512-0.024-0.647-0.052c-0.16,0.192-0.196,0.252-0.196,0.344c0,0.176,0.228,0.292,0.58,0.292
			c0.456,0,0.759-0.156,0.759-0.388C57.029,14.629,56.897,14.581,56.533,14.581z M55.905,13.181c0,0.384,0.164,0.644,0.412,0.644
			c0.18,0,0.296-0.14,0.296-0.36c0-0.164-0.044-0.344-0.12-0.483c-0.064-0.12-0.168-0.188-0.292-0.188
			c-0.184,0-0.296,0.14-0.296,0.376V13.181z"/>
		<path d="M58.413,14.257c-0.132,0.208-0.284,0.304-0.483,0.304c-0.232,0-0.352-0.172-0.352-0.508V12.85h-0.212
			c-0.012-0.008-0.016-0.016-0.016-0.028c0-0.024,0.024-0.048,0.068-0.076c0.104-0.06,0.236-0.208,0.388-0.428
			c0.024-0.036,0.056-0.072,0.08-0.112c0.02,0,0.028,0.012,0.028,0.052v0.464h0.404v0.128h-0.404v1.143
			c0,0.256,0.06,0.36,0.208,0.36c0.088,0,0.152-0.036,0.24-0.14L58.413,14.257z"/>
		<path d="M59.541,14.521v-0.06c0.231-0.024,0.271-0.072,0.271-0.348v-0.792c0-0.28-0.1-0.424-0.296-0.424
			c-0.16,0-0.28,0.068-0.448,0.252v0.963c0,0.276,0.04,0.324,0.272,0.348v0.06h-0.863v-0.06c0.232-0.032,0.256-0.068,0.256-0.348
			V12.23c0-0.172-0.032-0.204-0.204-0.204c-0.016,0-0.036,0-0.048,0.004v-0.064l0.108-0.032c0.228-0.068,0.32-0.096,0.459-0.144
			l0.02,0.012v1.216c0.184-0.24,0.352-0.336,0.588-0.336c0.328,0,0.492,0.216,0.492,0.636v0.795c0,0.276,0.024,0.308,0.24,0.348
			v0.06H59.541z"/>
		<path d="M60.633,13.241v-0.264h2.354v0.264H60.633z M60.633,14.041v-0.264h2.354v0.264H60.633z"/>
		<path d="M65.085,14.121c-0.3,0.364-0.396,0.44-0.556,0.44c-0.112,0-0.16-0.048-0.16-0.164c0-0.1,0.008-0.132,0.092-0.459
			c-0.3,0.452-0.532,0.627-0.812,0.627c-0.224,0-0.4-0.16-0.4-0.464c0-0.62,0.612-1.343,1.144-1.343c0.172,0,0.288,0.084,0.32,0.232
			l0.044-0.192l0.012-0.012l0.244-0.028l0.028,0.012c-0.008,0.036-0.012,0.044-0.024,0.084c-0.188,0.684-0.356,1.371-0.356,1.451
			c0,0.028,0.024,0.052,0.056,0.052c0.036,0,0.088-0.032,0.208-0.164l0.108-0.116L65.085,14.121z M64.417,12.845
			c-0.18,0-0.356,0.124-0.524,0.368c-0.168,0.251-0.308,0.607-0.308,0.859c0,0.22,0.096,0.296,0.24,0.296
			c0.2,0,0.388-0.22,0.508-0.392c0.188-0.271,0.308-0.615,0.308-0.899C64.641,12.938,64.558,12.845,64.417,12.845z"/>
		<path d="M65.506,14.565c-0.112,0-0.212-0.1-0.212-0.216c0-0.128,0.1-0.228,0.22-0.228c0.12,0,0.224,0.104,0.224,0.228
			C65.738,14.469,65.634,14.565,65.506,14.565z"/>
		<path d="M66.058,14.521l1.599-2.67h0.104l0.528,2.67H66.058z M67.481,12.418l-1.02,1.727h1.367L67.481,12.418z"/>
		<path d="M70.285,12.758c0.184,0,0.292,0.004,0.404,0.048c0.196,0.076,0.32,0.22,0.32,0.503c0,0.464-0.436,1.251-1.224,1.255
			l-0.216,0.775h-0.312l0.216-0.775c-0.172,0-0.328-0.012-0.428-0.044c-0.208-0.068-0.308-0.256-0.308-0.512
			c0-0.404,0.448-1.251,1.179-1.251h0.06l0.268-0.967h0.308L70.285,12.758z M69.953,12.842c-0.464,0-0.879,0.712-0.879,1.275
			c0,0.168,0.068,0.284,0.192,0.332c0.064,0.024,0.14,0.032,0.232,0.032L69.953,12.842z M69.809,14.481
			c0.1,0,0.164-0.008,0.276-0.064c0.328-0.164,0.588-0.872,0.588-1.203c0-0.18-0.076-0.28-0.18-0.344
			c-0.04-0.024-0.148-0.028-0.232-0.028L69.809,14.481z"/>
	</g>
	<g display="inline">
		<g>
			<path fill="none" stroke="#000000" stroke-width="0.2" stroke-miterlimit="10" d="M40.162,15.766
				c2.309-1.61,4.818-6.57,9.582-6.57"/>
			<g>
				<polygon points="40.971,16.128 40.36,15.605 40.312,14.801 39.069,16.246 				"/>
			</g>
		</g>
	</g>
	<g display="inline">
		<g>
			<path fill="none" stroke="#000000" stroke-width="0.2" stroke-miterlimit="10" d="M39.178,19.537
				c2.719,4.313,5.42,2.622,10.566,2.622"/>
			<g>
				<polygon points="38.88,20.381 39.344,19.724 40.139,19.601 38.584,18.499 				"/>
			</g>
		</g>
	</g>
	<g display="inline">
		<g>
			<path fill="none" stroke="#FF0000" stroke-width="0.2" stroke-miterlimit="10" d="M37.258,13.337
				c0.279-3.587-1.315-6.116-3.385-7.389"/>
			<g>
				<polygon fill="#FF0000" points="38.041,12.862 37.269,13.089 36.569,12.692 37.103,14.521 				"/>
			</g>
		</g>
	</g>
</g>
<g id="Layer_8" display="none">
	
		<line display="inline" fill="none" stroke="#00A300" stroke-width="0.1" stroke-miterlimit="10" x1="23.658" y1="40.04" x2="35.411" y2="16.399"/>
	
		<line display="inline" fill="none" stroke="#00A300" stroke-width="0.1" stroke-miterlimit="10" x1="23.806" y1="39.804" x2="37.301" y2="18.201"/>
	<polygon display="inline" opacity="0.03" fill="#00A300" points="37.301,18.201 23.659,40.04 35.411,16.399 	"/>
	
		<line display="inline" fill="none" stroke="#FF00FF" stroke-width="0.1" stroke-miterlimit="10" x1="35.411" y1="16.399" x2="23.658" y2="13.291"/>
	
		<line display="inline" fill="none" stroke="#FF00FF" stroke-width="0.1" stroke-miterlimit="10" x1="37.014" y1="16.021" x2="23.779" y2="13.323"/>
	<polyline display="inline" opacity="0.03" fill="#FF00FF" points="35.411,16.399 37.014,16.021 23.761,13.187 	"/>
	<path display="inline" opacity="0.03" fill="#FF00FF" d="M25.798,3.549"/>
	<polyline opacity="0.03" fill="#FF00FF" points="23.759,17.925 32.682,22.361 38.228,21.844 23.658,17.761 	"/>
	<polygon opacity="0.1" fill="#FF00FF" points="38.228,21.844 23.782,17.796 23.778,12.721 37.05,16.378 	"/>
</g>
</svg>
