<?xml version="1.0" encoding="utf-8"?>
<!-- Generator: Adobe Illustrator 25.4.1, SVG Export Plug-In . SVG Version: 6.00 Build 0)  -->
<svg version="1.1" xmlns="http://www.w3.org/2000/svg" xmlns:xlink="http://www.w3.org/1999/xlink" x="0px" y="0px"
	 viewBox="0 0 49.951 37.045" enable-background="new 0 0 49.951 37.045" xml:space="preserve">
<g id="Graph_paper_slanted" opacity="0.5">
	<g id="Clipped_grid_00000003068028900943026870000011536296927355263674_">
		<defs>
			<polygon id="SVGID_1_" points="31.91,37.571 -28.074,37.571 3.476,6.021 63.46,6.021 			"/>
		</defs>
		<clipPath id="SVGID_00000052811278756024175690000017937235465710942595_">
			<use xlink:href="#SVGID_1_"  overflow="visible"/>
		</clipPath>
		
			<g id="Grid_00000142891597197125820610000009767860333217090727_" opacity="0.25" clip-path="url(#SVGID_00000052811278756024175690000017937235465710942595_)">
			<g id="Horizontal_1_mm_00000151508609497893311650000018408800186222605470_">
				
					<line fill="none" stroke="#00ABEB" stroke-width="0.15" stroke-miterlimit="10" x1="-38.121" y1="-36.508" x2="188.72" y2="-36.508"/>
				
					<line fill="none" stroke="#00ABEB" stroke-width="0.15" stroke-miterlimit="10" x1="-36.133" y1="-38.496" x2="190.708" y2="-38.496"/>
				
					<line fill="none" stroke="#00ABEB" stroke-width="0.15" stroke-miterlimit="10" x1="-155.41" y1="80.78" x2="71.431" y2="80.78"/>
				
					<line fill="none" stroke="#00ABEB" stroke-width="0.15" stroke-miterlimit="10" x1="-153.422" y1="78.792" x2="73.419" y2="78.792"/>
				
					<line fill="none" stroke="#00ABEB" stroke-width="0.15" stroke-miterlimit="10" x1="-151.434" y1="76.804" x2="75.406" y2="76.804"/>
				
					<line fill="none" stroke="#00ABEB" stroke-width="0.15" stroke-miterlimit="10" x1="-149.446" y1="74.816" x2="77.395" y2="74.816"/>
				
					<line fill="none" stroke="#00ABEB" stroke-width="0.15" stroke-miterlimit="10" x1="-147.458" y1="72.828" x2="79.383" y2="72.828"/>
				
					<line fill="none" stroke="#00ABEB" stroke-width="0.15" stroke-miterlimit="10" x1="-145.471" y1="70.841" x2="81.37" y2="70.841"/>
				
					<line fill="none" stroke="#00ABEB" stroke-width="0.15" stroke-miterlimit="10" x1="-143.482" y1="68.853" x2="83.358" y2="68.853"/>
				
					<line fill="none" stroke="#00ABEB" stroke-width="0.15" stroke-miterlimit="10" x1="-141.495" y1="66.865" x2="85.346" y2="66.865"/>
				
					<line fill="none" stroke="#00ABEB" stroke-width="0.15" stroke-miterlimit="10" x1="-139.506" y1="64.877" x2="87.334" y2="64.877"/>
				
					<line fill="none" stroke="#00ABEB" stroke-width="0.15" stroke-miterlimit="10" x1="-137.518" y1="62.888" x2="89.323" y2="62.888"/>
				
					<line fill="none" stroke="#00ABEB" stroke-width="0.15" stroke-miterlimit="10" x1="-135.531" y1="60.901" x2="91.31" y2="60.901"/>
				
					<line fill="none" stroke="#00ABEB" stroke-width="0.15" stroke-miterlimit="10" x1="-133.543" y1="58.913" x2="93.298" y2="58.913"/>
				
					<line fill="none" stroke="#00ABEB" stroke-width="0.15" stroke-miterlimit="10" x1="-131.554" y1="56.925" x2="95.286" y2="56.925"/>
				
					<line fill="none" stroke="#00ABEB" stroke-width="0.15" stroke-miterlimit="10" x1="-129.567" y1="54.937" x2="97.274" y2="54.937"/>
				
					<line fill="none" stroke="#00ABEB" stroke-width="0.15" stroke-miterlimit="10" x1="-127.579" y1="52.949" x2="99.262" y2="52.949"/>
				
					<line fill="none" stroke="#00ABEB" stroke-width="0.15" stroke-miterlimit="10" x1="-125.591" y1="50.961" x2="101.25" y2="50.961"/>
				
					<line fill="none" stroke="#00ABEB" stroke-width="0.15" stroke-miterlimit="10" x1="-123.603" y1="48.973" x2="103.238" y2="48.973"/>
				
					<line fill="none" stroke="#00ABEB" stroke-width="0.15" stroke-miterlimit="10" x1="-121.615" y1="46.985" x2="105.226" y2="46.985"/>
				
					<line fill="none" stroke="#00ABEB" stroke-width="0.15" stroke-miterlimit="10" x1="-119.627" y1="44.997" x2="107.214" y2="44.997"/>
				
					<line fill="none" stroke="#00ABEB" stroke-width="0.15" stroke-miterlimit="10" x1="-117.639" y1="43.01" x2="109.201" y2="43.01"/>
				
					<line fill="none" stroke="#00ABEB" stroke-width="0.15" stroke-miterlimit="10" x1="-115.651" y1="41.021" x2="111.19" y2="41.021"/>
				
					<line fill="none" stroke="#00ABEB" stroke-width="0.15" stroke-miterlimit="10" x1="-113.663" y1="39.033" x2="113.178" y2="39.033"/>
				
					<line fill="none" stroke="#00ABEB" stroke-width="0.15" stroke-miterlimit="10" x1="-111.675" y1="37.045" x2="115.166" y2="37.045"/>
				
					<line fill="none" stroke="#00ABEB" stroke-width="0.15" stroke-miterlimit="10" x1="-109.687" y1="35.057" x2="117.154" y2="35.057"/>
				
					<line fill="none" stroke="#00ABEB" stroke-width="0.15" stroke-miterlimit="10" x1="-107.7" y1="33.07" x2="119.141" y2="33.07"/>
				
					<line fill="none" stroke="#00ABEB" stroke-width="0.15" stroke-miterlimit="10" x1="-105.711" y1="31.082" x2="121.129" y2="31.082"/>
				
					<line fill="none" stroke="#00ABEB" stroke-width="0.15" stroke-miterlimit="10" x1="-103.723" y1="29.094" x2="123.118" y2="29.094"/>
				
					<line fill="none" stroke="#00ABEB" stroke-width="0.15" stroke-miterlimit="10" x1="-101.736" y1="27.106" x2="125.105" y2="27.106"/>
				
					<line fill="none" stroke="#00ABEB" stroke-width="0.15" stroke-miterlimit="10" x1="-99.748" y1="25.118" x2="127.093" y2="25.118"/>
				
					<line fill="none" stroke="#00ABEB" stroke-width="0.15" stroke-miterlimit="10" x1="-97.759" y1="23.13" x2="129.081" y2="23.13"/>
				
					<line fill="none" stroke="#00ABEB" stroke-width="0.15" stroke-miterlimit="10" x1="-95.772" y1="21.142" x2="131.069" y2="21.142"/>
				
					<line fill="none" stroke="#00ABEB" stroke-width="0.15" stroke-miterlimit="10" x1="-93.784" y1="19.154" x2="133.057" y2="19.154"/>
				
					<line fill="none" stroke="#00ABEB" stroke-width="0.15" stroke-miterlimit="10" x1="-91.796" y1="17.166" x2="135.045" y2="17.166"/>
				
					<line fill="none" stroke="#00ABEB" stroke-width="0.15" stroke-miterlimit="10" x1="-89.808" y1="15.178" x2="137.033" y2="15.178"/>
				
					<line fill="none" stroke="#00ABEB" stroke-width="0.15" stroke-miterlimit="10" x1="-87.82" y1="13.19" x2="139.021" y2="13.19"/>
				
					<line fill="none" stroke="#00ABEB" stroke-width="0.15" stroke-miterlimit="10" x1="-85.832" y1="11.202" x2="141.009" y2="11.202"/>
				
					<line fill="none" stroke="#00ABEB" stroke-width="0.15" stroke-miterlimit="10" x1="-83.844" y1="9.215" x2="142.997" y2="9.215"/>
				
					<line fill="none" stroke="#00ABEB" stroke-width="0.15" stroke-miterlimit="10" x1="-81.856" y1="7.227" x2="144.985" y2="7.227"/>
				
					<line fill="none" stroke="#00ABEB" stroke-width="0.15" stroke-miterlimit="10" x1="-79.868" y1="5.238" x2="146.973" y2="5.238"/>
				
					<line fill="none" stroke="#00ABEB" stroke-width="0.15" stroke-miterlimit="10" x1="-77.88" y1="3.251" x2="148.96" y2="3.251"/>
				
					<line fill="none" stroke="#00ABEB" stroke-width="0.15" stroke-miterlimit="10" x1="-75.892" y1="1.262" x2="150.949" y2="1.262"/>
				
					<line fill="none" stroke="#00ABEB" stroke-width="0.15" stroke-miterlimit="10" x1="-73.905" y1="-0.725" x2="152.936" y2="-0.725"/>
				
					<line fill="none" stroke="#00ABEB" stroke-width="0.15" stroke-miterlimit="10" x1="-71.916" y1="-2.713" x2="154.925" y2="-2.713"/>
				
					<line fill="none" stroke="#00ABEB" stroke-width="0.15" stroke-miterlimit="10" x1="-69.928" y1="-4.701" x2="156.913" y2="-4.701"/>
				
					<line fill="none" stroke="#00ABEB" stroke-width="0.15" stroke-miterlimit="10" x1="-67.941" y1="-6.689" x2="158.9" y2="-6.689"/>
				
					<line fill="none" stroke="#00ABEB" stroke-width="0.15" stroke-miterlimit="10" x1="-65.953" y1="-8.677" x2="160.888" y2="-8.677"/>
				
					<line fill="none" stroke="#00ABEB" stroke-width="0.15" stroke-miterlimit="10" x1="-63.964" y1="-10.665" x2="162.877" y2="-10.665"/>
				
					<line fill="none" stroke="#00ABEB" stroke-width="0.15" stroke-miterlimit="10" x1="-61.977" y1="-12.653" x2="164.864" y2="-12.653"/>
				
					<line fill="none" stroke="#00ABEB" stroke-width="0.15" stroke-miterlimit="10" x1="-59.989" y1="-14.641" x2="166.852" y2="-14.641"/>
				
					<line fill="none" stroke="#00ABEB" stroke-width="0.15" stroke-miterlimit="10" x1="-58.001" y1="-16.629" x2="168.84" y2="-16.629"/>
				
					<line fill="none" stroke="#00ABEB" stroke-width="0.15" stroke-miterlimit="10" x1="-56.013" y1="-18.616" x2="170.828" y2="-18.616"/>
				
					<line fill="none" stroke="#00ABEB" stroke-width="0.15" stroke-miterlimit="10" x1="-54.025" y1="-20.605" x2="172.816" y2="-20.605"/>
				
					<line fill="none" stroke="#00ABEB" stroke-width="0.15" stroke-miterlimit="10" x1="-52.037" y1="-22.593" x2="174.804" y2="-22.593"/>
				
					<line fill="none" stroke="#00ABEB" stroke-width="0.15" stroke-miterlimit="10" x1="-50.049" y1="-24.58" x2="176.792" y2="-24.58"/>
				
					<line fill="none" stroke="#00ABEB" stroke-width="0.15" stroke-miterlimit="10" x1="-48.061" y1="-26.569" x2="178.78" y2="-26.569"/>
				
					<line fill="none" stroke="#00ABEB" stroke-width="0.15" stroke-miterlimit="10" x1="-46.073" y1="-28.556" x2="180.768" y2="-28.556"/>
				
					<line fill="none" stroke="#00ABEB" stroke-width="0.15" stroke-miterlimit="10" x1="-44.085" y1="-30.544" x2="182.756" y2="-30.544"/>
				
					<line fill="none" stroke="#00ABEB" stroke-width="0.15" stroke-miterlimit="10" x1="-42.097" y1="-32.532" x2="184.744" y2="-32.532"/>
				
					<line fill="none" stroke="#00ABEB" stroke-width="0.15" stroke-miterlimit="10" x1="-40.109" y1="-34.52" x2="186.731" y2="-34.52"/>
			</g>
			<g id="Vertical_1_mm_00000181073523592228201180000012361058669048395659_">
				<g>
					
						<line fill="none" stroke="#00ABEB" stroke-width="0.15" stroke-miterlimit="10" x1="-155.325" y1="80.77" x2="-36.005" y2="-38.549"/>
				</g>
				
					<line fill="none" stroke="#00ABEB" stroke-width="0.15" stroke-miterlimit="10" x1="-152.491" y1="80.77" x2="-33.171" y2="-38.549"/>
				
					<line fill="none" stroke="#00ABEB" stroke-width="0.15" stroke-miterlimit="10" x1="-149.656" y1="80.77" x2="-30.336" y2="-38.549"/>
				
					<line fill="none" stroke="#00ABEB" stroke-width="0.15" stroke-miterlimit="10" x1="-146.821" y1="80.77" x2="-27.501" y2="-38.549"/>
				
					<line fill="none" stroke="#00ABEB" stroke-width="0.15" stroke-miterlimit="10" x1="-143.987" y1="80.77" x2="-24.667" y2="-38.549"/>
				
					<line fill="none" stroke="#00ABEB" stroke-width="0.15" stroke-miterlimit="10" x1="-141.152" y1="80.77" x2="-21.832" y2="-38.549"/>
				
					<line fill="none" stroke="#00ABEB" stroke-width="0.15" stroke-miterlimit="10" x1="-138.317" y1="80.77" x2="-18.997" y2="-38.549"/>
				
					<line fill="none" stroke="#00ABEB" stroke-width="0.15" stroke-miterlimit="10" x1="-135.483" y1="80.77" x2="-16.163" y2="-38.549"/>
				
					<line fill="none" stroke="#00ABEB" stroke-width="0.15" stroke-miterlimit="10" x1="-132.648" y1="80.77" x2="-13.328" y2="-38.549"/>
				
					<line fill="none" stroke="#00ABEB" stroke-width="0.15" stroke-miterlimit="10" x1="-129.814" y1="80.77" x2="-10.494" y2="-38.549"/>
				
					<line fill="none" stroke="#00ABEB" stroke-width="0.15" stroke-miterlimit="10" x1="-126.979" y1="80.77" x2="-7.659" y2="-38.549"/>
				
					<line fill="none" stroke="#00ABEB" stroke-width="0.15" stroke-miterlimit="10" x1="-124.144" y1="80.77" x2="-4.824" y2="-38.549"/>
				
					<line fill="none" stroke="#00ABEB" stroke-width="0.15" stroke-miterlimit="10" x1="-121.31" y1="80.77" x2="-1.99" y2="-38.549"/>
				
					<line fill="none" stroke="#00ABEB" stroke-width="0.15" stroke-miterlimit="10" x1="-118.475" y1="80.77" x2="0.845" y2="-38.549"/>
				
					<line fill="none" stroke="#00ABEB" stroke-width="0.15" stroke-miterlimit="10" x1="-115.64" y1="80.77" x2="3.68" y2="-38.549"/>
				
					<line fill="none" stroke="#00ABEB" stroke-width="0.15" stroke-miterlimit="10" x1="-112.806" y1="80.77" x2="6.514" y2="-38.549"/>
				
					<line fill="none" stroke="#00ABEB" stroke-width="0.15" stroke-miterlimit="10" x1="-109.971" y1="80.77" x2="9.349" y2="-38.549"/>
				
					<line fill="none" stroke="#00ABEB" stroke-width="0.15" stroke-miterlimit="10" x1="-107.136" y1="80.77" x2="12.184" y2="-38.549"/>
				
					<line fill="none" stroke="#00ABEB" stroke-width="0.15" stroke-miterlimit="10" x1="-104.302" y1="80.77" x2="15.018" y2="-38.549"/>
				
					<line fill="none" stroke="#00ABEB" stroke-width="0.15" stroke-miterlimit="10" x1="-101.467" y1="80.77" x2="17.853" y2="-38.549"/>
				
					<line fill="none" stroke="#00ABEB" stroke-width="0.15" stroke-miterlimit="10" x1="-98.632" y1="80.77" x2="20.688" y2="-38.549"/>
				
					<line fill="none" stroke="#00ABEB" stroke-width="0.15" stroke-miterlimit="10" x1="-95.798" y1="80.77" x2="23.522" y2="-38.549"/>
				
					<line fill="none" stroke="#00ABEB" stroke-width="0.15" stroke-miterlimit="10" x1="-92.963" y1="80.77" x2="26.357" y2="-38.549"/>
				
					<line fill="none" stroke="#00ABEB" stroke-width="0.15" stroke-miterlimit="10" x1="-90.128" y1="80.77" x2="29.192" y2="-38.549"/>
				
					<line fill="none" stroke="#00ABEB" stroke-width="0.15" stroke-miterlimit="10" x1="-87.294" y1="80.77" x2="32.026" y2="-38.549"/>
				
					<line fill="none" stroke="#00ABEB" stroke-width="0.15" stroke-miterlimit="10" x1="-84.459" y1="80.77" x2="34.861" y2="-38.549"/>
				
					<line fill="none" stroke="#00ABEB" stroke-width="0.15" stroke-miterlimit="10" x1="-81.625" y1="80.77" x2="37.695" y2="-38.549"/>
				
					<line fill="none" stroke="#00ABEB" stroke-width="0.15" stroke-miterlimit="10" x1="-78.79" y1="80.77" x2="40.53" y2="-38.549"/>
				
					<line fill="none" stroke="#00ABEB" stroke-width="0.15" stroke-miterlimit="10" x1="-75.955" y1="80.77" x2="43.365" y2="-38.549"/>
				
					<line fill="none" stroke="#00ABEB" stroke-width="0.15" stroke-miterlimit="10" x1="-73.121" y1="80.77" x2="46.199" y2="-38.549"/>
				
					<line fill="none" stroke="#00ABEB" stroke-width="0.15" stroke-miterlimit="10" x1="-70.286" y1="80.77" x2="49.034" y2="-38.549"/>
				
					<line fill="none" stroke="#00ABEB" stroke-width="0.15" stroke-miterlimit="10" x1="-67.451" y1="80.77" x2="51.869" y2="-38.549"/>
				
					<line fill="none" stroke="#00ABEB" stroke-width="0.15" stroke-miterlimit="10" x1="-64.617" y1="80.77" x2="54.703" y2="-38.549"/>
				
					<line fill="none" stroke="#00ABEB" stroke-width="0.15" stroke-miterlimit="10" x1="-61.782" y1="80.77" x2="57.538" y2="-38.549"/>
				
					<line fill="none" stroke="#00ABEB" stroke-width="0.15" stroke-miterlimit="10" x1="-58.947" y1="80.77" x2="60.373" y2="-38.549"/>
				
					<line fill="none" stroke="#00ABEB" stroke-width="0.15" stroke-miterlimit="10" x1="-56.113" y1="80.77" x2="63.207" y2="-38.549"/>
				
					<line fill="none" stroke="#00ABEB" stroke-width="0.15" stroke-miterlimit="10" x1="-53.278" y1="80.77" x2="66.042" y2="-38.549"/>
				
					<line fill="none" stroke="#00ABEB" stroke-width="0.15" stroke-miterlimit="10" x1="-50.443" y1="80.77" x2="68.877" y2="-38.549"/>
				
					<line fill="none" stroke="#00ABEB" stroke-width="0.15" stroke-miterlimit="10" x1="-47.609" y1="80.77" x2="71.711" y2="-38.549"/>
				
					<line fill="none" stroke="#00ABEB" stroke-width="0.15" stroke-miterlimit="10" x1="-44.774" y1="80.77" x2="74.546" y2="-38.549"/>
				
					<line fill="none" stroke="#00ABEB" stroke-width="0.15" stroke-miterlimit="10" x1="-41.94" y1="80.77" x2="77.38" y2="-38.549"/>
				
					<line fill="none" stroke="#00ABEB" stroke-width="0.15" stroke-miterlimit="10" x1="-39.105" y1="80.77" x2="80.215" y2="-38.549"/>
				
					<line fill="none" stroke="#00ABEB" stroke-width="0.15" stroke-miterlimit="10" x1="-36.27" y1="80.77" x2="83.05" y2="-38.549"/>
				
					<line fill="none" stroke="#00ABEB" stroke-width="0.15" stroke-miterlimit="10" x1="-33.436" y1="80.77" x2="85.884" y2="-38.549"/>
				
					<line fill="none" stroke="#00ABEB" stroke-width="0.15" stroke-miterlimit="10" x1="-30.601" y1="80.77" x2="88.719" y2="-38.549"/>
				
					<line fill="none" stroke="#00ABEB" stroke-width="0.15" stroke-miterlimit="10" x1="-27.766" y1="80.77" x2="91.554" y2="-38.549"/>
				
					<line fill="none" stroke="#00ABEB" stroke-width="0.15" stroke-miterlimit="10" x1="-24.932" y1="80.77" x2="94.388" y2="-38.549"/>
				
					<line fill="none" stroke="#00ABEB" stroke-width="0.15" stroke-miterlimit="10" x1="-22.097" y1="80.77" x2="97.223" y2="-38.549"/>
				
					<line fill="none" stroke="#00ABEB" stroke-width="0.15" stroke-miterlimit="10" x1="-19.262" y1="80.77" x2="100.058" y2="-38.549"/>
				
					<line fill="none" stroke="#00ABEB" stroke-width="0.15" stroke-miterlimit="10" x1="-16.428" y1="80.77" x2="102.892" y2="-38.549"/>
				
					<line fill="none" stroke="#00ABEB" stroke-width="0.15" stroke-miterlimit="10" x1="-13.593" y1="80.77" x2="105.727" y2="-38.549"/>
				
					<line fill="none" stroke="#00ABEB" stroke-width="0.15" stroke-miterlimit="10" x1="-10.758" y1="80.77" x2="108.562" y2="-38.549"/>
				
					<line fill="none" stroke="#00ABEB" stroke-width="0.15" stroke-miterlimit="10" x1="-7.924" y1="80.77" x2="111.396" y2="-38.549"/>
				
					<line fill="none" stroke="#00ABEB" stroke-width="0.15" stroke-miterlimit="10" x1="-5.089" y1="80.77" x2="114.231" y2="-38.549"/>
				
					<line fill="none" stroke="#00ABEB" stroke-width="0.15" stroke-miterlimit="10" x1="-2.254" y1="80.77" x2="117.066" y2="-38.549"/>
				<line fill="none" stroke="#00ABEB" stroke-width="0.15" stroke-miterlimit="10" x1="0.58" y1="80.77" x2="119.9" y2="-38.549"/>
				
					<line fill="none" stroke="#00ABEB" stroke-width="0.15" stroke-miterlimit="10" x1="3.415" y1="80.77" x2="122.735" y2="-38.549"/>
				
					<line fill="none" stroke="#00ABEB" stroke-width="0.15" stroke-miterlimit="10" x1="6.249" y1="80.77" x2="125.569" y2="-38.549"/>
				
					<line fill="none" stroke="#00ABEB" stroke-width="0.15" stroke-miterlimit="10" x1="9.084" y1="80.77" x2="128.404" y2="-38.549"/>
				
					<line fill="none" stroke="#00ABEB" stroke-width="0.15" stroke-miterlimit="10" x1="11.919" y1="80.77" x2="131.239" y2="-38.549"/>
				
					<line fill="none" stroke="#00ABEB" stroke-width="0.15" stroke-miterlimit="10" x1="14.753" y1="80.77" x2="134.073" y2="-38.549"/>
				
					<line fill="none" stroke="#00ABEB" stroke-width="0.15" stroke-miterlimit="10" x1="17.588" y1="80.77" x2="136.908" y2="-38.549"/>
				
					<line fill="none" stroke="#00ABEB" stroke-width="0.15" stroke-miterlimit="10" x1="20.423" y1="80.77" x2="139.743" y2="-38.549"/>
				
					<line fill="none" stroke="#00ABEB" stroke-width="0.15" stroke-miterlimit="10" x1="23.257" y1="80.77" x2="142.577" y2="-38.549"/>
				
					<line fill="none" stroke="#00ABEB" stroke-width="0.15" stroke-miterlimit="10" x1="26.092" y1="80.77" x2="145.412" y2="-38.549"/>
				
					<line fill="none" stroke="#00ABEB" stroke-width="0.15" stroke-miterlimit="10" x1="28.927" y1="80.77" x2="148.247" y2="-38.549"/>
				
					<line fill="none" stroke="#00ABEB" stroke-width="0.15" stroke-miterlimit="10" x1="31.761" y1="80.77" x2="151.081" y2="-38.549"/>
				
					<line fill="none" stroke="#00ABEB" stroke-width="0.15" stroke-miterlimit="10" x1="34.596" y1="80.77" x2="153.916" y2="-38.549"/>
				
					<line fill="none" stroke="#00ABEB" stroke-width="0.15" stroke-miterlimit="10" x1="37.431" y1="80.77" x2="156.751" y2="-38.549"/>
				
					<line fill="none" stroke="#00ABEB" stroke-width="0.15" stroke-miterlimit="10" x1="40.265" y1="80.77" x2="159.585" y2="-38.549"/>
				
					<line fill="none" stroke="#00ABEB" stroke-width="0.15" stroke-miterlimit="10" x1="43.1" y1="80.77" x2="162.42" y2="-38.549"/>
				
					<line fill="none" stroke="#00ABEB" stroke-width="0.15" stroke-miterlimit="10" x1="45.935" y1="80.77" x2="165.255" y2="-38.549"/>
				
					<line fill="none" stroke="#00ABEB" stroke-width="0.15" stroke-miterlimit="10" x1="48.769" y1="80.77" x2="168.089" y2="-38.549"/>
				
					<line fill="none" stroke="#00ABEB" stroke-width="0.15" stroke-miterlimit="10" x1="51.604" y1="80.77" x2="170.924" y2="-38.549"/>
				
					<line fill="none" stroke="#00ABEB" stroke-width="0.15" stroke-miterlimit="10" x1="54.438" y1="80.77" x2="173.758" y2="-38.549"/>
				
					<line fill="none" stroke="#00ABEB" stroke-width="0.15" stroke-miterlimit="10" x1="57.273" y1="80.77" x2="176.593" y2="-38.549"/>
				
					<line fill="none" stroke="#00ABEB" stroke-width="0.15" stroke-miterlimit="10" x1="60.108" y1="80.77" x2="179.428" y2="-38.549"/>
				
					<line fill="none" stroke="#00ABEB" stroke-width="0.15" stroke-miterlimit="10" x1="62.942" y1="80.77" x2="182.262" y2="-38.549"/>
				
					<line fill="none" stroke="#00ABEB" stroke-width="0.15" stroke-miterlimit="10" x1="65.777" y1="80.77" x2="185.097" y2="-38.549"/>
				
					<line fill="none" stroke="#00ABEB" stroke-width="0.15" stroke-miterlimit="10" x1="68.612" y1="80.77" x2="187.932" y2="-38.549"/>
				
					<line fill="none" stroke="#00ABEB" stroke-width="0.15" stroke-miterlimit="10" x1="71.446" y1="80.77" x2="190.766" y2="-38.549"/>
			</g>
			<g id="Horizontal_5_mm_00000011735556503592991880000008134099091165005186_">
				
					<line fill="none" stroke="#00ABEB" stroke-width="0.3" stroke-miterlimit="10" x1="-155.685" y1="80.78" x2="71.431" y2="80.78"/>
				
					<line fill="none" stroke="#00ABEB" stroke-width="0.3" stroke-miterlimit="10" x1="-145.745" y1="70.841" x2="81.37" y2="70.841"/>
				
					<line fill="none" stroke="#00ABEB" stroke-width="0.3" stroke-miterlimit="10" x1="-135.806" y1="60.901" x2="91.31" y2="60.901"/>
				
					<line fill="none" stroke="#00ABEB" stroke-width="0.3" stroke-miterlimit="10" x1="-125.866" y1="50.961" x2="101.25" y2="50.961"/>
				
					<line fill="none" stroke="#00ABEB" stroke-width="0.3" stroke-miterlimit="10" x1="-115.926" y1="41.021" x2="111.19" y2="41.021"/>
				
					<line fill="none" stroke="#00ABEB" stroke-width="0.3" stroke-miterlimit="10" x1="-105.986" y1="31.082" x2="121.129" y2="31.082"/>
				
					<line fill="none" stroke="#00ABEB" stroke-width="0.3" stroke-miterlimit="10" x1="-96.047" y1="21.142" x2="131.069" y2="21.142"/>
				
					<line fill="none" stroke="#00ABEB" stroke-width="0.3" stroke-miterlimit="10" x1="-86.107" y1="11.202" x2="141.009" y2="11.202"/>
				
					<line fill="none" stroke="#00ABEB" stroke-width="0.3" stroke-miterlimit="10" x1="-76.167" y1="1.262" x2="150.949" y2="1.262"/>
				
					<line fill="none" stroke="#00ABEB" stroke-width="0.3" stroke-miterlimit="10" x1="-66.227" y1="-8.677" x2="160.888" y2="-8.677"/>
				
					<line fill="none" stroke="#00ABEB" stroke-width="0.3" stroke-miterlimit="10" x1="-56.288" y1="-18.616" x2="170.828" y2="-18.616"/>
			</g>
			<g id="Vertical_5_mm_00000064346364918789686960000003233481195482251947_">
				
					<line fill="none" stroke="#00ABEB" stroke-width="0.3" stroke-miterlimit="10" x1="-155.325" y1="80.77" x2="-35.812" y2="-38.742"/>
				
					<line fill="none" stroke="#00ABEB" stroke-width="0.3" stroke-miterlimit="10" x1="-141.152" y1="80.77" x2="-21.64" y2="-38.742"/>
				
					<line fill="none" stroke="#00ABEB" stroke-width="0.3" stroke-miterlimit="10" x1="-126.979" y1="80.77" x2="-7.466" y2="-38.742"/>
				
					<line fill="none" stroke="#00ABEB" stroke-width="0.3" stroke-miterlimit="10" x1="-112.806" y1="80.77" x2="6.707" y2="-38.742"/>
				
					<line fill="none" stroke="#00ABEB" stroke-width="0.3" stroke-miterlimit="10" x1="-98.632" y1="80.77" x2="20.88" y2="-38.742"/>
				
					<line fill="none" stroke="#00ABEB" stroke-width="0.3" stroke-miterlimit="10" x1="-84.459" y1="80.77" x2="35.054" y2="-38.742"/>
				
					<line fill="none" stroke="#00ABEB" stroke-width="0.3" stroke-miterlimit="10" x1="-70.286" y1="80.77" x2="49.227" y2="-38.742"/>
				
					<line fill="none" stroke="#00ABEB" stroke-width="0.3" stroke-miterlimit="10" x1="-56.113" y1="80.77" x2="63.4" y2="-38.742"/>
				
					<line fill="none" stroke="#00ABEB" stroke-width="0.3" stroke-miterlimit="10" x1="-41.94" y1="80.77" x2="77.572" y2="-38.742"/>
				
					<line fill="none" stroke="#00ABEB" stroke-width="0.3" stroke-miterlimit="10" x1="-27.766" y1="80.77" x2="91.747" y2="-38.742"/>
				
					<line fill="none" stroke="#00ABEB" stroke-width="0.3" stroke-miterlimit="10" x1="-13.593" y1="80.77" x2="105.92" y2="-38.742"/>
				
					<line fill="none" stroke="#00ABEB" stroke-width="0.3" stroke-miterlimit="10" x1="0.58" y1="80.77" x2="120.092" y2="-38.742"/>
				
					<line fill="none" stroke="#00ABEB" stroke-width="0.3" stroke-miterlimit="10" x1="14.753" y1="80.77" x2="134.266" y2="-38.742"/>
				
					<line fill="none" stroke="#00ABEB" stroke-width="0.3" stroke-miterlimit="10" x1="28.927" y1="80.77" x2="148.44" y2="-38.742"/>
				
					<line fill="none" stroke="#00ABEB" stroke-width="0.3" stroke-miterlimit="10" x1="43.1" y1="80.77" x2="162.612" y2="-38.742"/>
				
					<line fill="none" stroke="#00ABEB" stroke-width="0.3" stroke-miterlimit="10" x1="57.273" y1="80.77" x2="176.786" y2="-38.742"/>
				
					<line fill="none" stroke="#00ABEB" stroke-width="0.3" stroke-miterlimit="10" x1="71.446" y1="80.77" x2="190.959" y2="-38.742"/>
			</g>
			<g id="Horizontal_10_mm_00000163045836177147705350000008480455355013810362_">
				
					<line id="_x31_9_00000057116790517712807720000015084113881736219806_" fill="none" stroke="#00ABEB" stroke-width="0.7" stroke-miterlimit="10" x1="-155.685" y1="80.78" x2="71.431" y2="80.78"/>
				
					<line id="_x32_0_00000024685878617286333290000013167547815532084100_" fill="none" stroke="#00ABEB" stroke-width="0.7" stroke-miterlimit="10" x1="-135.806" y1="60.901" x2="91.31" y2="60.901"/>
				
					<line id="_x32_1_00000138564813020868535020000012777939180148238773_" fill="none" stroke="#00ABEB" stroke-width="0.7" stroke-miterlimit="10" x1="-115.926" y1="41.021" x2="111.19" y2="41.021"/>
				
					<line id="_x32_2_00000052807586205252870140000014502512662559454639_" fill="none" stroke="#00ABEB" stroke-width="0.7" stroke-miterlimit="10" x1="-96.047" y1="21.142" x2="131.069" y2="21.142"/>
				
					<line id="_x32_3_00000051376893246677475670000009295515732899575694_" fill="none" stroke="#00ABEB" stroke-width="0.7" stroke-miterlimit="10" x1="-76.167" y1="1.262" x2="150.949" y2="1.262"/>
				
					<line id="_x32_4_00000099657911357833521510000007853591198542098087_" fill="none" stroke="#00ABEB" stroke-width="0.7" stroke-miterlimit="10" x1="-56.288" y1="-18.616" x2="170.828" y2="-18.616"/>
				
					<line id="_x32_5_00000155127691660191171140000008292164438978366870_" fill="none" stroke="#00ABEB" stroke-width="0.7" stroke-miterlimit="10" x1="-36.408" y1="-38.496" x2="190.708" y2="-38.496"/>
			</g>
			<g id="Vertical_10_mm_00000134969164297783457920000010833503864539426239_">
				
					<line id="_x30__00000151539528360119995570000005083818057555393183_" fill="none" stroke="#00ABEB" stroke-width="0.7" stroke-miterlimit="10" x1="-155.325" y1="80.77" x2="-35.812" y2="-38.742"/>
				
					<line id="_x31__00000021823889366233599640000011971139016478256513_" fill="none" stroke="#00ABEB" stroke-width="0.7" stroke-miterlimit="10" x1="-126.979" y1="80.77" x2="-7.466" y2="-38.742"/>
				
					<line id="_x32__00000071550223824624162640000006130814236846722696_" fill="none" stroke="#00ABEB" stroke-width="0.7" stroke-miterlimit="10" x1="-98.632" y1="80.77" x2="20.88" y2="-38.742"/>
				
					<line id="_x33__00000042015976804734918030000005045165563697445304_" fill="none" stroke="#00ABEB" stroke-width="0.7" stroke-miterlimit="10" x1="-70.286" y1="80.77" x2="49.227" y2="-38.742"/>
				
					<line id="_x34__00000081637789328126233800000002486991317463304126_" fill="none" stroke="#00ABEB" stroke-width="0.7" stroke-miterlimit="10" x1="-41.94" y1="80.77" x2="77.572" y2="-38.742"/>
				
					<line id="_x35__00000051353690731882489090000004794744233340785543_" fill="none" stroke="#00ABEB" stroke-width="0.7" stroke-miterlimit="10" x1="-13.593" y1="80.77" x2="105.92" y2="-38.742"/>
				
					<line id="_x36__00000011745311307505536660000010485558803267122343_" fill="none" stroke="#00ABEB" stroke-width="0.7" stroke-miterlimit="10" x1="14.753" y1="80.77" x2="134.266" y2="-38.742"/>
				
					<line id="_x37__00000045602144989735358580000003937589459941247142_" fill="none" stroke="#00ABEB" stroke-width="0.7" stroke-miterlimit="10" x1="43.1" y1="80.77" x2="162.612" y2="-38.742"/>
				
					<line id="_x38__00000047029857857898873560000014194396358708286345_" fill="none" stroke="#00ABEB" stroke-width="0.7" stroke-miterlimit="10" x1="71.446" y1="80.77" x2="190.959" y2="-38.742"/>
			</g>
		</g>
	</g>
</g>
<g id="Axis">
	<g id="lines">
		<g>
			<g>
				
					<line fill="none" stroke="#000000" stroke-width="0.2" stroke-miterlimit="10" x1="17.693" y1="21.132" x2="17.693" y2="3.034"/>
				<g>
					<polygon points="18.433,3.596 17.693,3.282 16.952,3.596 17.693,1.84 					"/>
				</g>
			</g>
		</g>
		<g>
			<g>
				
					<line fill="none" stroke="#000000" stroke-width="0.2" stroke-miterlimit="10" x1="17.693" y1="21.132" x2="46.051" y2="21.132"/>
				<g>
					<polygon points="45.49,21.873 45.804,21.132 45.49,20.392 47.245,21.132 					"/>
				</g>
			</g>
		</g>
		<g>
			<g>
				<line fill="none" stroke="#000000" stroke-width="0.2" stroke-miterlimit="10" x1="17.693" y1="21.132" x2="3.64" y2="35.185"/>
				<g>
					<polygon points="3.514,34.264 3.815,35.01 4.561,35.311 2.796,36.029 					"/>
				</g>
			</g>
		</g>
	</g>
	<g id="names">
		<g>
			<path d="M45.534,24.308c0.339-0.564,0.487-0.852,0.487-1.027c0-0.056-0.028-0.08-0.104-0.128
				c-0.08-0.052-0.104-0.092-0.104-0.156c0-0.088,0.068-0.148,0.16-0.148c0.12,0,0.208,0.1,0.208,0.22
				c0,0.228-0.192,0.667-0.524,1.219c-0.416,0.688-0.843,1.147-1.071,1.147c-0.12,0-0.204-0.068-0.204-0.172
				c0-0.088,0.068-0.16,0.156-0.16c0.14,0,0.14,0.112,0.244,0.112c0.052,0,0.1-0.032,0.192-0.132
				c0.072-0.076,0.252-0.312,0.284-0.364c0.024-0.048,0.04-0.096,0.04-0.14c0-0.16-0.22-1.055-0.328-1.327
				c-0.076-0.196-0.148-0.256-0.308-0.256c-0.044,0-0.08,0.004-0.124,0.016v-0.068c0.044-0.008,0.088-0.016,0.128-0.024
				c0.08-0.016,0.212-0.04,0.428-0.072h0.016c0.06,0,0.271,0.664,0.34,1.02L45.534,24.308z"/>
		</g>
		<g>
			<path d="M14.964,2.982c0.232,0.052,0.32,0.096,0.48,0.332c0.104,0.152,0.18,0.2,0.28,0.2c0.064,0,0.108-0.024,0.108-0.06
				c0-0.016-0.008-0.036-0.02-0.06c-0.024-0.048-0.032-0.08-0.032-0.112c0.004-0.068,0.068-0.136,0.132-0.136
				c0.083,0,0.14,0.06,0.14,0.148c0,0.16-0.148,0.304-0.372,0.304c-0.116,0-0.252-0.052-0.452-0.176
				c-0.188-0.116-0.315-0.168-0.419-0.168c-0.064,0-0.116,0.02-0.18,0.072l-0.036-0.036l1.239-1.487h-0.544
				c-0.208,0-0.284,0.036-0.364,0.24L14.86,2.027l0.128-0.464h1.131v0.044L14.964,2.982z"/>
		</g>
		<g>
			<path d="M6.686,34.901c0.28-0.428,0.428-0.572,0.604-0.572c0.096,0,0.164,0.06,0.164,0.148c0,0.084-0.056,0.144-0.136,0.144
				c-0.076,0-0.112-0.068-0.208-0.068c-0.072,0-0.216,0.176-0.392,0.483c0,0.028,0.008,0.084,0.032,0.18l0.128,0.536
				c0.028,0.112,0.064,0.164,0.12,0.164c0.052,0,0.096-0.04,0.188-0.16c0.036-0.048,0.052-0.072,0.084-0.112l0.06,0.036
				c-0.232,0.36-0.336,0.456-0.488,0.456c-0.128,0-0.188-0.072-0.236-0.272L6.49,35.389l-0.352,0.476
				c-0.176,0.236-0.256,0.272-0.38,0.272s-0.2-0.064-0.2-0.168c0-0.08,0.056-0.144,0.136-0.144c0.036,0,0.076,0.016,0.128,0.044
				c0.04,0.024,0.08,0.036,0.104,0.036c0.044,0,0.12-0.076,0.204-0.196l0.328-0.464l-0.112-0.496
				c-0.056-0.24-0.084-0.272-0.184-0.272c-0.032,0-0.08,0.008-0.156,0.028l-0.072,0.02l-0.012-0.063l0.044-0.016
				c0.244-0.088,0.376-0.116,0.468-0.116c0.1,0,0.148,0.072,0.204,0.344L6.686,34.901z"/>
		</g>
	</g>
</g>
<g id="Layer_9">
	<g id="Layer_5">
	</g>
	<g id="stickman" transform="translate(0.000000,1280.000000) scale(0.100000,-0.100000)" display="none">
		<path display="inline" d="M188.335,12616.235c-1.375-0.282-2.494-0.711-3.695-1.419c-5.093-2.973-7.371-9.125-5.454-14.703
			c1.354-3.915,4.562-6.896,8.567-7.954c5.134-1.353,10.604,0.759,13.518,5.223c0.812,1.254,1.099,1.925,1.548,3.639
			c0.449,1.715,0.533,2.43,0.435,3.931c-0.292,4.668-3.304,8.852-7.662,10.651
			C193.288,12616.556,190.884,12616.765,188.335,12616.235z"/>
		<path display="inline" d="M199.374,12590.106c-4.272,0.675-9.656,0.77-14.878,0.273l-0.65-0.06l-1.055-0.851
			c-8.005-6.428-13.936-8.848-20.159-8.232c-1.113,0.109-4.719,1.03-5.798,1.479c-0.937,0.388-2.616,1.153-3.195,1.455l-0.481,0.253
			l0.146,0.557c0.264,1.01,0.051,2.255-0.527,3.104c-0.384,0.561-1.078,1.123-1.719,1.402c-1.826,0.779-3.988,0.005-4.923-1.748
			c-0.641-1.204-0.606-2.554,0.083-3.741c0.613-1.049,1.348-1.574,2.571-1.84c0.646-0.138,0.843-0.142,1.334-0.056
			c0.315,0.053,0.714,0.154,0.885,0.229l0.31,0.125l1.021-0.521c2.681-1.36,4.1-1.907,6.705-2.59
			c2.264-0.593,2.993-0.713,4.77-0.773c4.233-0.157,8.291,0.953,12.717,3.466l1.219,0.688l-0.338-1.474
			c-0.583-2.528-0.723-5.029-0.493-8.936c0.321-5.524,1.368-11.43,2.668-15.094c1.1-3.096,2.666-5.504,4.513-6.932
			c1.027-0.801,2.699-1.563,3.83-1.757c0.689-0.125,1.966-0.245,2.219-0.217c0.186,0.015,0.186,0.015-0.002-0.705
			c-0.404-1.544-1.258-3.834-2.012-5.381c-1.295-2.675-2.74-4.405-4.906-5.893c-1.489-1.021-3.916-2.083-7.697-3.376
			c-2.264-0.771-2.307-0.784-2.76-0.697c-0.618,0.123-0.946,0.113-1.415-0.041c-1.748-0.558-2.606-3.228-1.986-6.189
			c0.574-2.744,2.07-5.023,3.888-5.896c0.605-0.294,1.189-0.367,1.825-0.24c1.164,0.234,1.923,1.193,2.269,2.879
			c0.44,2.105-0.055,4.574-1.326,6.716c-0.248,0.414-0.429,0.755-0.41,0.766c0.019,0.011,0.811,0.279,1.754,0.611
			c4.5,1.557,7.044,2.881,9.136,4.752c1.532,1.367,2.893,3.263,4.013,5.571c0.682,1.423,1.799,4.414,2.174,5.846l0.142,0.542
			l0.429,0.062c2.777,0.398,8.214,1.021,11.306,1.289c5.625,0.493,9.134,0.565,11.709,0.256l0.76-0.097l0.024-0.212
			c0.01-0.114,0.036-0.62,0.056-1.117c0.091-2.379-0.022-4.476-0.61-11.078c-0.362-4.077-0.502-6.427-0.465-7.468
			c0.014-0.281-0.026-0.461-0.148-0.715c-0.612-1.275-0.105-2.732,1.21-3.465c0.525-0.297,1.794-0.629,2.521-0.669
			c2.79-0.128,5.96,1.135,7.518,2.995c1.058,1.254,1.307,2.386,0.77,3.486c-0.366,0.754-1.162,1.287-2.401,1.612
			c-1.842,0.475-3.998,0.207-6.092-0.76c-0.389-0.184-0.716-0.312-0.727-0.293c-0.022,0.037,0.246,3.361,0.558,6.976
			c0.555,6.325,0.611,9.205,0.224,11.813l-0.138,0.924l-0.625,0.188c-0.786,0.238-1.928,0.45-2.836,0.529
			c-3.382,0.291-8.537,0.047-15.853-0.756c-1.364-0.15-2.489-0.269-2.504-0.265c-0.015,0.004,0.085,0.112,0.222,0.243
			c2.321,2.168,3.765,5.834,4.149,10.508c0.333,4.116-0.204,10.213-1.361,15.544c-0.733,3.349-1.469,5.413-2.707,7.529
			c-0.82,1.412-1.32,2.075-2.219,2.913c-0.26,0.25-0.455,0.444-0.432,0.438s0.333-0.031,0.697-0.063
			c2.408-0.194,4.829-0.639,7.079-1.283c3.886-1.121,6.781-2.665,9.604-5.117c0.866-0.751,1.288-1.17,2.47-2.439
			c0.055-0.062,0-0.183-0.199-0.487c-1.441-2.2-0.278-5.209,2.284-5.872c2.043-0.527,4.154,0.72,4.693,2.775
			c0.278,1.062,0.149,1.96-0.429,2.936c-0.394,0.675-0.812,1.077-1.511,1.467c-0.555,0.304-1.479,0.498-2.083,0.435l-0.415-0.042
			l-0.176,0.236c-0.367,0.477-1.61,1.754-2.482,2.546c-2.973,2.698-5.807,4.32-10.21,5.831
			C203.731,12589.18,200.501,12589.93,199.374,12590.106z"/>
	</g>
	<g>
		<path fill="#FF0000" d="M44.902,28.928l-0.108-0.018c-0.072-0.642-0.366-0.978-0.894-0.978c-0.443,0-0.863,0.228-1.193,0.582
			c-0.432,0.462-0.647,1.146-0.647,1.805c0,0.839,0.384,1.229,1.049,1.229c0.492,0,0.852-0.174,1.374-0.713l0.108,0.09
			c-0.54,0.636-1.02,0.894-1.637,0.894c-0.917,0-1.565-0.576-1.565-1.565c0-0.846,0.461-1.631,1.121-2.099
			c0.384-0.276,0.84-0.438,1.313-0.438c0.198,0,0.45,0.012,0.702,0.102c0.12,0.042,0.192,0.042,0.246,0.042
			c0.12,0,0.18-0.036,0.228-0.132h0.126L44.902,28.928z"/>
	</g>
	<path opacity="0.05" fill="#FF0000" d="M39.296,27.924c-1.23,3.971-8.409,4.126-13.415,4.785c-6.049,0.797-8.68-2.142-8.68-4.785
		s5.673-3.917,11.047-4.785C34.33,22.156,40.078,25.4,39.296,27.924z"/>
	<g>
		<g>
			<path fill="none" stroke="#FF0000" stroke-width="0.3" stroke-miterlimit="10" d="M39.187,28.229
				c-1.496,3.674-8.431,3.838-13.306,4.481c-6.049,0.797-8.68-2.142-8.68-4.785s5.673-3.917,11.047-4.785
				c6.081-0.983,11.83,2.261,11.047,4.785"/>
			<g>
				<polygon fill="#FF0000" points="37.608,28.555 37.713,28.836 39.099,28.318 39.514,29.738 39.802,29.653 39.296,27.924 				"/>
			</g>
		</g>
	</g>
</g>
<g id="n">
	<g>
		<g>
			<line fill="none" stroke="#00A300" stroke-width="0.3" stroke-miterlimit="10" x1="28.285" y1="27.252" x2="28.3" y2="16.665"/>
			<g>
				<polygon fill="#00A300" points="29.525,17.661 29.305,17.865 28.3,16.78 27.291,17.862 27.071,17.657 28.3,16.339 				"/>
			</g>
		</g>
	</g>
	
		<polyline fill="none" stroke="#00A300" stroke-width="0.1" stroke-linecap="round" stroke-linejoin="round" stroke-miterlimit="10" points="
		28.286,25.572 29.678,25.586 29.678,25.586 29.639,27.133 	"/>
	<g>
		<path fill="#00B200" d="M32.914,16.312c-0.408,0.558-0.558,0.678-0.839,0.678c-0.15,0-0.282-0.096-0.282-0.324
			c0-0.06,0.012-0.138,0.096-0.45l0.264-0.971c0.048-0.186,0.084-0.402,0.084-0.474c0-0.108-0.054-0.174-0.144-0.174
			c-0.24,0-0.51,0.294-0.888,0.852c-0.27,0.402-0.318,0.54-0.6,1.487h-0.45l0.576-2.099c0.006-0.03,0.012-0.066,0.012-0.102
			c0-0.12-0.083-0.156-0.39-0.162v-0.096c0.486-0.096,0.654-0.12,0.972-0.186l0.024,0.012l-0.402,1.307
			c0.6-0.959,1.001-1.319,1.385-1.319c0.258,0,0.39,0.15,0.39,0.366c0,0.108-0.024,0.234-0.06,0.36l-0.335,1.217
			c-0.06,0.216-0.084,0.318-0.084,0.366c0,0.054,0.024,0.108,0.096,0.108c0.084,0,0.192-0.096,0.366-0.318
			c0.042-0.048,0.084-0.102,0.126-0.156L32.914,16.312z"/>
		<path fill="#00B200" d="M33.587,15.016V14.62h3.022v0.396H33.587z M33.587,16.215V15.82h3.022v0.396H33.587z"/>
		<path fill="#00B200" d="M39.886,14.464c-0.282,0.018-0.468,0.138-1.35,0.923l0.222,0.528c0.234,0.552,0.372,0.773,0.486,0.773
			c0.09,0,0.162-0.066,0.27-0.251c0.03-0.048,0.06-0.102,0.09-0.156l0.09,0.066c-0.276,0.504-0.426,0.654-0.666,0.654
			c-0.174,0-0.293-0.114-0.485-0.492c-0.108-0.21-0.264-0.582-0.36-0.846l-0.24,0.192l-0.288,1.08h-0.45l0.846-3.166
			c0.078-0.288,0.096-0.426,0.108-0.528c-0.012-0.108-0.102-0.144-0.306-0.144h-0.108v-0.096c0.354-0.042,0.588-0.084,0.941-0.162
			l0.036,0.036l-0.72,2.734l0.258-0.198c0.564-0.432,0.858-0.72,0.858-0.84c0-0.066-0.072-0.108-0.222-0.108h-0.084v-0.096h1.074
			V14.464z"/>
	</g>
	<g>
		<path fill="#00B200" d="M32.278,13.662l-0.858-1.733h-0.006l-0.852,1.733h-0.408l1.085-2.188h0.36l1.085,2.188H32.278z"/>
		<path fill="#00B200" d="M39.31,13.662l-0.858-1.733h-0.006l-0.852,1.733h-0.408l1.085-2.188h0.36l1.085,2.188H39.31z"/>
	</g>
	<g>
	</g>
	<g>
	</g>
</g>
</svg>
