<?xml version="1.0" encoding="utf-8"?>
<!-- Generator: Adobe Illustrator 15.0.0, SVG Export Plug-In . SVG Version: 6.00 Build 0)  -->
<!DOCTYPE svg PUBLIC "-//W3C//DTD SVG 1.1//EN" "http://www.w3.org/Graphics/SVG/1.1/DTD/svg11.dtd">
<svg version="1.1" id="Layer_1" xmlns="http://www.w3.org/2000/svg" xmlns:xlink="http://www.w3.org/1999/xlink" x="0px" y="0px"
	 width="502px" height="400px" viewBox="64.5 12.5 502 400" enable-background="new 64.5 12.5 502 400" xml:space="preserve">
<g id="figure_1">
	<g id="axes_1">
		<g id="patch_1">
			<path fill="#FFFFFF" d="M116.48,363.1H547.2V23.875H116.48V363.1z"/>
		</g>
		<g id="matplotlib.axis_1">
			<g id="xtick_1">
				<g id="line2d_1">
					<g>
						<defs>
							<rect id="SVGID_1_" x="116.48" y="23.875" width="430.72" height="339.225"/>
						</defs>
						<clipPath id="SVGID_2_">
							<use xlink:href="#SVGID_1_"  overflow="visible"/>
						</clipPath>
						
							<path clip-path="url(#SVGID_2_)" fill="none" stroke="#B0B0B0" stroke-width="0.8" stroke-linecap="square" stroke-linejoin="round" d="
							M153.856,363.1V23.875"/>
					</g>
				</g>
				<g id="line2d_2">
					<g>
						<g>
							<path id="mb730a2bd98" stroke="#000000" stroke-width="0.8" stroke-linejoin="round" d="M153.856,363.1v3.5"/>
						</g>
					</g>
				</g>
				<g id="text_1">
					<g transform="translate(142.799888 388.997656)scale(0.15 -0.15)">
						<g>
							<path id="DejaVuSans-2212" d="M10.595,35.499h62.591v-8.294H10.595V35.499z"/>
						</g>
						<g>
							<path id="DejaVuSans-31" d="M96.194,8.298h16.11v55.625l-17.529-3.516v8.984l17.435,3.516h9.86V8.298h16.11v-8.301H96.194
								V8.298z"/>
						</g>
					</g>
				</g>
			</g>
			<g id="xtick_2">
				<g id="line2d_3">
					<g>
						<defs>
							<rect id="SVGID_3_" x="116.48" y="23.875" width="430.72" height="339.225"/>
						</defs>
						<clipPath id="SVGID_4_">
							<use xlink:href="#SVGID_3_"  overflow="visible"/>
						</clipPath>
						
							<path clip-path="url(#SVGID_4_)" fill="none" stroke="#B0B0B0" stroke-width="0.8" stroke-linecap="square" stroke-linejoin="round" d="
							M213.185,363.1V23.875"/>
					</g>
				</g>
				<g id="line2d_4">
					<g>
						<g>
							<path id="mb730a2bd98_1_" stroke="#000000" stroke-width="0.8" stroke-linejoin="round" d="M213.185,363.1v3.5"/>
						</g>
					</g>
				</g>
				<g id="text_2">
					<g transform="translate(208.412478 388.997656)scale(0.15 -0.15)">
						<g>
							<path id="DejaVuSans-30" d="M31.781,66.404c-5.072,0-8.89-2.5-11.452-7.5c-2.552-4.987-3.828-12.5-3.828-22.526
								c0-9.993,1.276-17.487,3.828-22.487c2.562-5,6.38-7.5,11.452-7.5c5.114,0,8.949,2.5,11.501,7.5
								c2.562,5,3.844,12.493,3.844,22.487c0,10.026-1.283,17.539-3.844,22.526C40.73,63.904,36.895,66.404,31.781,66.404z
								 M31.781,74.216c8.177,0,14.421-3.229,18.734-9.701c4.313-6.458,6.468-15.84,6.468-28.138
								c0-12.272-2.155-21.641-6.468-28.112c-4.313-6.458-10.557-9.688-18.734-9.688c-8.167,0-14.408,3.229-18.717,9.688
								c-4.313,6.471-6.471,15.84-6.471,28.112c0,12.298,2.158,21.68,6.471,28.138C17.374,70.987,23.614,74.216,31.781,74.216z"/>
						</g>
					</g>
				</g>
			</g>
			<g id="xtick_3">
				<g id="line2d_5">
					<g>
						<defs>
							<rect id="SVGID_5_" x="116.48" y="23.875" width="430.72" height="339.225"/>
						</defs>
						<clipPath id="SVGID_6_">
							<use xlink:href="#SVGID_5_"  overflow="visible"/>
						</clipPath>
						
							<path clip-path="url(#SVGID_6_)" fill="none" stroke="#B0B0B0" stroke-width="0.8" stroke-linecap="square" stroke-linejoin="round" d="
							M272.512,363.1V23.875"/>
					</g>
				</g>
				<g id="line2d_6">
					<g>
						<g>
							<path id="mb730a2bd98_2_" stroke="#000000" stroke-width="0.8" stroke-linejoin="round" d="M272.512,363.1v3.5"/>
						</g>
					</g>
				</g>
				<g id="text_3">
					<g transform="translate(267.740301 388.997656)scale(0.15 -0.15)">
						<g>
							<path id="DejaVuSans-31_1_" d="M12.405,8.298h16.11v55.625l-17.529-3.516v8.984l17.435,3.516h9.86V8.298h16.11v-8.301H12.405
								V8.298z"/>
						</g>
					</g>
				</g>
			</g>
			<g id="xtick_4">
				<g id="line2d_7">
					<g>
						<defs>
							<rect id="SVGID_7_" x="116.48" y="23.875" width="430.72" height="339.225"/>
						</defs>
						<clipPath id="SVGID_8_">
							<use xlink:href="#SVGID_7_"  overflow="visible"/>
						</clipPath>
						
							<path clip-path="url(#SVGID_8_)" fill="none" stroke="#B0B0B0" stroke-width="0.8" stroke-linecap="square" stroke-linejoin="round" d="
							M331.84,363.1V23.875"/>
					</g>
				</g>
				<g id="line2d_8">
					<g>
						<g>
							<path id="mb730a2bd98_3_" stroke="#000000" stroke-width="0.8" stroke-linejoin="round" d="M331.84,363.1v3.5"/>
						</g>
					</g>
				</g>
				<g id="text_4">
					<g transform="translate(327.068125 388.997656)scale(0.15 -0.15)">
						<g>
							<path id="DejaVuSans-32" d="M19.188,8.298h34.421v-8.301H7.326v8.301c3.743,3.874,8.841,9.069,15.299,15.592
								c6.471,6.53,10.534,10.742,12.187,12.643c3.158,3.542,5.358,6.536,6.608,8.997c1.263,2.461,1.895,4.876,1.895,7.253
								c0,3.874-1.361,7.031-4.082,9.466c-2.715,2.448-6.257,3.672-10.625,3.672c-3.092,0-6.361-0.534-9.798-1.608
								c-3.424-1.074-7.09-2.702-10.996-4.889v9.967c3.965,1.595,7.676,2.793,11.126,3.607c3.457,0.814,6.615,1.217,9.479,1.217
								c7.552,0,13.574-1.888,18.066-5.671c4.486-3.77,6.732-8.809,6.732-15.124c0-3.001-0.56-5.846-1.686-8.529
								c-1.113-2.682-3.158-5.84-6.126-9.486c-0.814-0.951-3.398-3.678-7.767-8.19C33.289,22.706,27.137,16.404,19.188,8.298z"/>
						</g>
					</g>
				</g>
			</g>
			<g id="xtick_5">
				<g id="line2d_9">
					<g>
						<defs>
							<rect id="SVGID_9_" x="116.48" y="23.875" width="430.72" height="339.225"/>
						</defs>
						<clipPath id="SVGID_10_">
							<use xlink:href="#SVGID_9_"  overflow="visible"/>
						</clipPath>
						
							<path clip-path="url(#SVGID_10_)" fill="none" stroke="#B0B0B0" stroke-width="0.8" stroke-linecap="square" stroke-linejoin="round" d="
							M391.168,363.1V23.875"/>
					</g>
				</g>
				<g id="line2d_10">
					<g>
						<g>
							<path id="mb730a2bd98_4_" stroke="#000000" stroke-width="0.8" stroke-linejoin="round" d="M391.168,363.1v3.5"/>
						</g>
					</g>
				</g>
				<g id="text_5">
					<g transform="translate(386.395949 388.997656)scale(0.15 -0.15)">
						<g>
							<path id="DejaVuSans-33" d="M40.576,39.314c4.72-1.009,8.405-3.118,11.048-6.315c2.656-3.184,3.984-7.122,3.984-11.81
								c0-7.188-2.474-12.754-7.422-16.706c-4.948-3.939-11.979-5.905-21.094-5.905c-3.053,0-6.198,0.299-9.44,0.905
								c-3.236,0.605-6.582,1.51-10.026,2.721v9.512c2.728-1.589,5.716-2.793,8.965-3.607c3.262-0.814,6.667-1.217,10.221-1.217
								c6.178,0,10.885,1.217,14.121,3.652c3.242,2.441,4.863,5.99,4.863,10.645c0,4.303-1.504,7.663-4.518,10.078
								c-3.008,2.428-7.194,3.639-12.559,3.639h-8.503v8.112h8.893c4.844,0,8.548,0.964,11.12,2.904
								c2.578,1.94,3.861,4.727,3.861,8.372c0,3.743-1.328,6.615-3.984,8.613c-2.643,2.012-6.439,3.014-11.387,3.014
								c-2.708,0-5.612-0.299-8.704-0.892c-3.092-0.579-6.497-1.491-10.202-2.715v8.776c3.75,1.042,7.259,1.823,10.527,2.344
								c3.275,0.521,6.354,0.781,9.251,0.781c7.487,0,13.411-1.699,17.767-5.104c4.362-3.398,6.543-7.995,6.543-13.783
								c0-4.043-1.152-7.454-3.464-10.234C48.122,42.315,44.841,40.388,40.576,39.314z"/>
						</g>
					</g>
				</g>
			</g>
			<g id="xtick_6">
				<g id="line2d_11">
					<g>
						<defs>
							<rect id="SVGID_11_" x="116.48" y="23.875" width="430.72" height="339.225"/>
						</defs>
						<clipPath id="SVGID_12_">
							<use xlink:href="#SVGID_11_"  overflow="visible"/>
						</clipPath>
						
							<path clip-path="url(#SVGID_12_)" fill="none" stroke="#B0B0B0" stroke-width="0.8" stroke-linecap="square" stroke-linejoin="round" d="
							M450.496,363.1V23.875"/>
					</g>
				</g>
				<g id="line2d_12">
					<g>
						<g>
							<path id="mb730a2bd98_5_" stroke="#000000" stroke-width="0.8" stroke-linejoin="round" d="M450.496,363.1v3.5"/>
						</g>
					</g>
				</g>
				<g id="text_6">
					<g transform="translate(445.723772 388.997656)scale(0.15 -0.15)">
						<g>
							<path id="DejaVuSans-34" d="M37.798,64.314L12.889,25.388h24.909V64.314z M35.2,72.908h12.409v-47.52h10.404v-8.203H47.609
								V-0.003h-9.811v17.188H4.888v9.518L35.2,72.908z"/>
						</g>
					</g>
				</g>
			</g>
			<g id="xtick_7">
				<g id="line2d_13">
					<g>
						<defs>
							<rect id="SVGID_13_" x="116.48" y="23.875" width="430.72" height="339.225"/>
						</defs>
						<clipPath id="SVGID_14_">
							<use xlink:href="#SVGID_13_"  overflow="visible"/>
						</clipPath>
						
							<path clip-path="url(#SVGID_14_)" fill="none" stroke="#B0B0B0" stroke-width="0.8" stroke-linecap="square" stroke-linejoin="round" d="
							M509.823,363.1V23.875"/>
					</g>
				</g>
				<g id="line2d_14">
					<g>
						<g>
							<path id="mb730a2bd98_6_" stroke="#000000" stroke-width="0.8" stroke-linejoin="round" d="M509.823,363.1v3.5"/>
						</g>
					</g>
				</g>
				<g id="text_7">
					<g transform="translate(505.051596 388.997656)scale(0.15 -0.15)">
						<g>
							<path id="DejaVuSans-35" d="M10.795,72.908h38.717v-8.314H19.825V46.736c1.432,0.488,2.858,0.853,4.284,1.094
								c1.439,0.241,2.878,0.358,4.31,0.358c8.138,0,14.583-2.227,19.329-6.686c4.759-4.46,7.142-10.495,7.142-18.112
								c0-7.845-2.441-13.939-7.331-18.294c-4.883-4.342-11.771-6.517-20.651-6.517c-3.066,0-6.185,0.26-9.362,0.781
								c-3.164,0.521-6.445,1.302-9.831,2.344v9.922c2.93-1.595,5.957-2.78,9.082-3.561s6.426-1.172,9.902-1.172
								c5.638,0,10.098,1.478,13.379,4.434c3.288,2.962,4.935,6.979,4.935,12.064c0,5.072-1.647,9.089-4.935,12.051
								c-3.281,2.969-7.741,4.453-13.379,4.453c-2.63,0-5.26-0.293-7.891-0.879c-2.611-0.579-5.286-1.491-8.014-2.734V72.908z"/>
						</g>
					</g>
				</g>
			</g>
			<g id="text_8">
				<g transform="translate(307.425156 407.514844)scale(0.15 -0.15)">
					<g>
						<path id="DejaVuSans-58" d="M6.299,72.905h10.592l18.125-27.109L53.22,72.905h10.592L40.375,37.892l25-37.891H54.782
							L34.281,30.997L13.623,0.001H2.985L29.001,38.92L6.299,72.905z"/>
					</g>
					<g>
						<path id="DejaVuSans-20" d="M68.506,0.001"/>
					</g>
					<g>
						<path id="DejaVuSans-64" d="M145.7,46.388v29.596h8.984V0.001H145.7v8.203c-1.888-3.249-4.271-5.671-7.155-7.253
							c-2.878-1.582-6.335-2.376-10.378-2.376c-6.602,0-11.986,2.637-16.139,7.91c-4.147,5.28-6.217,12.22-6.217,20.814
							s2.07,15.521,6.217,20.794c4.154,5.273,9.538,7.904,16.139,7.904c4.043,0,7.5-0.788,10.378-2.37
							C141.429,52.052,143.812,49.643,145.7,46.388z M115.088,27.299c0-6.608,1.361-11.79,4.082-15.547
							c2.715-3.763,6.452-5.645,11.198-5.645c4.753,0,8.49,1.882,11.224,5.645c2.734,3.757,4.108,8.939,4.108,15.547
							c0,6.602-1.374,11.784-4.108,15.547c-2.734,3.757-6.471,5.638-11.224,5.638c-4.746,0-8.483-1.882-11.198-5.638
							C116.449,39.083,115.088,33.901,115.088,27.299z"/>
					</g>
					<g>
						<path id="DejaVuSans-61" d="M198.05,27.482c-7.259,0-12.292-0.827-15.091-2.48c-2.806-1.66-4.206-4.492-4.206-8.503
							c0-3.184,1.055-5.716,3.158-7.591c2.103-1.868,4.954-2.799,8.561-2.799c4.987,0,8.991,1.764,11.999,5.299
							c3.014,3.529,4.518,8.223,4.518,14.076v1.999H198.05z M215.974,31.206V0.001h-8.984v8.294
							c-2.051-3.314-4.609-5.762-7.676-7.344c-3.06-1.582-6.803-2.376-11.23-2.376c-5.592,0-10.046,1.576-13.359,4.72
							c-3.301,3.145-4.954,7.357-4.954,12.624c0,6.146,2.057,10.781,6.172,13.906c4.128,3.125,10.273,4.687,18.438,4.687h12.611
							v0.892c0,4.134-1.361,7.337-4.082,9.596c-2.715,2.259-6.536,3.392-11.452,3.392c-3.125,0-6.172-0.378-9.141-1.126
							c-2.956-0.749-5.801-1.875-8.529-3.379v8.314c3.281,1.27,6.465,2.22,9.564,2.845c3.092,0.638,6.1,0.951,9.03,0.951
							c7.917,0,13.828-2.051,17.734-6.152C214.02,45.75,215.974,39.539,215.974,31.206z"/>
					</g>
					<g>
						<path id="DejaVuSans-74" d="M243.363,70.216V54.689h18.496v-6.986h-18.496V18.015c0-4.46,0.605-7.324,1.823-8.594
							c1.224-1.27,3.704-1.908,7.454-1.908h9.219V0.001h-9.219c-6.934,0-11.725,1.289-14.355,3.874
							c-2.637,2.591-3.958,7.305-3.958,14.141v29.688h-6.589v6.986h6.589v15.527H243.363z"/>
					</g>
					<g>
						<path id="DejaVuSans-61_1_" d="M298.539,27.482c-7.259,0-12.292-0.827-15.091-2.48c-2.806-1.66-4.206-4.492-4.206-8.503
							c0-3.184,1.055-5.716,3.158-7.591c2.103-1.868,4.954-2.799,8.561-2.799c4.987,0,8.991,1.764,11.999,5.299
							c3.014,3.529,4.518,8.223,4.518,14.076v1.999H298.539z M316.462,31.206V0.001h-8.984v8.294
							c-2.051-3.314-4.609-5.762-7.676-7.344c-3.06-1.582-6.803-2.376-11.23-2.376c-5.592,0-10.046,1.576-13.359,4.72
							c-3.301,3.145-4.954,7.357-4.954,12.624c0,6.146,2.057,10.781,6.172,13.906c4.128,3.125,10.273,4.687,18.438,4.687h12.611
							v0.892c0,4.134-1.361,7.337-4.082,9.596c-2.715,2.259-6.536,3.392-11.452,3.392c-3.125,0-6.172-0.378-9.141-1.126
							c-2.956-0.749-5.801-1.875-8.529-3.379v8.314c3.281,1.27,6.465,2.22,9.564,2.845c3.092,0.638,6.1,0.951,9.03,0.951
							c7.917,0,13.828-2.051,17.734-6.152C314.509,45.75,316.462,39.539,316.462,31.206z"/>
					</g>
				</g>
			</g>
		</g>
		<g id="matplotlib.axis_2">
			<g id="ytick_1">
				<g id="line2d_15">
					<g>
						<defs>
							<rect id="SVGID_15_" x="116.48" y="23.875" width="430.72" height="339.225"/>
						</defs>
						<clipPath id="SVGID_16_">
							<use xlink:href="#SVGID_15_"  overflow="visible"/>
						</clipPath>
						
							<path clip-path="url(#SVGID_16_)" fill="none" stroke="#B0B0B0" stroke-width="0.8" stroke-linecap="square" stroke-linejoin="round" d="
							M116.48,359.661H547.2"/>
					</g>
				</g>
				<g id="line2d_16">
					<g>
						<g>
							<path id="m53252c2119" stroke="#000000" stroke-width="0.8" stroke-linejoin="round" d="M116.48,359.661h-3.5"/>
						</g>
					</g>
				</g>
				<g id="text_9">
					<g transform="translate(99.93625 365.359857)scale(0.15 -0.15)">
						<g>
							<path id="DejaVuSans-30_1_" d="M31.782,66.409c-5.075,0-8.893-2.5-11.455-7.5c-2.552-4.993-3.828-12.5-3.828-22.539
								c0-9.987,1.276-17.48,3.828-22.48c2.562-5,6.38-7.5,11.455-7.5c5.114,0,8.945,2.5,11.497,7.5
								c2.565,5,3.844,12.493,3.844,22.48c0,10.039-1.279,17.546-3.844,22.539C40.727,63.909,36.896,66.409,31.782,66.409z
								 M31.782,74.222c8.177,0,14.421-3.242,18.734-9.707c4.313-6.458,6.468-15.84,6.468-28.145
								c0-12.266-2.155-21.641-6.468-28.105c-4.313-6.458-10.557-9.688-18.734-9.688c-8.167,0-14.408,3.229-18.721,9.688
								C8.748,14.73,6.593,24.105,6.593,36.37c0,12.305,2.155,21.686,6.468,28.145C17.374,70.98,23.615,74.222,31.782,74.222z"/>
						</g>
					</g>
				</g>
			</g>
			<g id="ytick_2">
				<g id="line2d_17">
					<g>
						<defs>
							<rect id="SVGID_17_" x="116.48" y="23.875" width="430.72" height="339.225"/>
						</defs>
						<clipPath id="SVGID_18_">
							<use xlink:href="#SVGID_17_"  overflow="visible"/>
						</clipPath>
						
							<path clip-path="url(#SVGID_18_)" fill="none" stroke="#B0B0B0" stroke-width="0.8" stroke-linecap="square" stroke-linejoin="round" d="
							M116.48,293.787H547.2"/>
					</g>
				</g>
				<g id="line2d_18">
					<g>
						<g>
							<path id="m53252c2119_1_" stroke="#000000" stroke-width="0.8" stroke-linejoin="round" d="M116.48,293.787h-3.5"/>
						</g>
					</g>
				</g>
				<g id="text_10">
					<g transform="translate(99.93625 299.485455)scale(0.15 -0.15)">
						<g>
							<path id="DejaVuSans-35_1_" d="M10.796,72.911h38.721v-8.32H19.829V46.739c1.426,0.482,2.852,0.846,4.281,1.094
								c1.436,0.234,2.874,0.352,4.313,0.352c8.135,0,14.577-2.227,19.326-6.68c4.762-4.466,7.142-10.495,7.142-18.112
								c0-7.845-2.445-13.945-7.327-18.294c-4.886-4.349-11.771-6.523-20.658-6.523c-3.063,0-6.182,0.26-9.359,0.781
								C14.379-0.123,11.105,0.658,7.719,1.7v9.922c2.926-1.589,5.951-2.773,9.076-3.555s6.429-1.172,9.909-1.172
								c5.635,0,10.091,1.471,13.372,4.434c3.294,2.962,4.938,6.979,4.938,12.064c0,5.072-1.644,9.089-4.938,12.044
								c-3.281,2.969-7.738,4.453-13.372,4.453c-2.637,0-5.267-0.286-7.891-0.872c-2.617-0.586-5.286-1.497-8.018-2.734V72.911z"/>
						</g>
					</g>
				</g>
			</g>
			<g id="ytick_3">
				<g id="line2d_19">
					<g>
						<defs>
							<rect id="SVGID_19_" x="116.48" y="23.875" width="430.72" height="339.225"/>
						</defs>
						<clipPath id="SVGID_20_">
							<use xlink:href="#SVGID_19_"  overflow="visible"/>
						</clipPath>
						
							<path clip-path="url(#SVGID_20_)" fill="none" stroke="#B0B0B0" stroke-width="0.8" stroke-linecap="square" stroke-linejoin="round" d="
							M116.48,227.912H547.2"/>
					</g>
				</g>
				<g id="line2d_20">
					<g>
						<g>
							<path id="m53252c2119_2_" stroke="#000000" stroke-width="0.8" stroke-linejoin="round" d="M116.48,227.912h-3.5"/>
						</g>
					</g>
				</g>
				<g id="text_11">
					<g transform="translate(90.3925 233.611054)scale(0.15 -0.15)">
						<g>
							<path id="DejaVuSans-31_2_" d="M12.406,8.292h16.11v55.625l-17.533-3.516v8.984l17.438,3.516h9.86V8.292h16.11v-8.294H12.406
								V8.292z"/>
						</g>
						<g>
							<path id="DejaVuSans-30_2_" d="M95.404,66.404c-5.072,0-8.89-2.5-11.452-7.5c-2.552-4.987-3.828-12.5-3.828-22.526
								c0-9.993,1.276-17.487,3.828-22.487c2.562-5,6.38-7.5,11.452-7.5c5.114,0,8.949,2.5,11.501,7.5
								c2.562,5,3.844,12.493,3.844,22.487c0,10.026-1.283,17.539-3.844,22.526C104.352,63.904,100.518,66.404,95.404,66.404z
								 M95.404,74.217c8.177,0,14.421-3.229,18.734-9.701c4.313-6.458,6.468-15.84,6.468-28.138
								c0-12.279-2.155-21.641-6.468-28.112c-4.313-6.458-10.557-9.688-18.734-9.688c-8.167,0-14.408,3.229-18.717,9.688
								c-4.313,6.471-6.471,15.833-6.471,28.112c0,12.298,2.158,21.68,6.471,28.138C80.996,70.988,87.236,74.217,95.404,74.217z"/>
						</g>
					</g>
				</g>
			</g>
			<g id="ytick_4">
				<g id="line2d_21">
					<g>
						<defs>
							<rect id="SVGID_21_" x="116.48" y="23.875" width="430.72" height="339.225"/>
						</defs>
						<clipPath id="SVGID_22_">
							<use xlink:href="#SVGID_21_"  overflow="visible"/>
						</clipPath>
						
							<path clip-path="url(#SVGID_22_)" fill="none" stroke="#B0B0B0" stroke-width="0.8" stroke-linecap="square" stroke-linejoin="round" d="
							M116.48,162.038H547.2"/>
					</g>
				</g>
				<g id="line2d_22">
					<g>
						<g>
							<path id="m53252c2119_3_" stroke="#000000" stroke-width="0.8" stroke-linejoin="round" d="M116.48,162.038h-3.5"/>
						</g>
					</g>
				</g>
				<g id="text_12">
					<g transform="translate(90.3925 167.736652)scale(0.15 -0.15)">
						<g>
							<path id="DejaVuSans-31_3_" d="M12.406,8.296h16.11v55.625l-17.533-3.516v8.984l17.438,3.516h9.86V8.296h16.11v-8.298H12.406
								V8.296z"/>
						</g>
						<g>
							<path id="DejaVuSans-35_2_" d="M74.42,72.906h38.717v-8.311H83.45V46.734c1.426,0.492,2.855,0.856,4.281,1.094
								c1.439,0.241,2.874,0.361,4.313,0.361c8.135,0,14.577-2.23,19.329-6.689c4.759-4.456,7.139-10.495,7.139-18.109
								c0-7.845-2.441-13.942-7.327-18.298c-4.886-4.342-11.771-6.514-20.658-6.514c-3.06,0-6.182,0.26-9.359,0.781
								c-3.167,0.521-6.442,1.302-9.827,2.344v9.922c2.926-1.595,5.954-2.783,9.079-3.564s6.426-1.172,9.906-1.172
								c5.635,0,10.094,1.481,13.376,4.437c3.291,2.959,4.938,6.979,4.938,12.064c0,5.072-1.647,9.089-4.938,12.048
								c-3.281,2.969-7.741,4.453-13.376,4.453c-2.637,0-5.267-0.293-7.891-0.876c-2.614-0.583-5.286-1.494-8.014-2.734V72.906z"/>
						</g>
					</g>
				</g>
			</g>
			<g id="ytick_5">
				<g id="line2d_23">
					<g>
						<defs>
							<rect id="SVGID_23_" x="116.48" y="23.875" width="430.72" height="339.225"/>
						</defs>
						<clipPath id="SVGID_24_">
							<use xlink:href="#SVGID_23_"  overflow="visible"/>
						</clipPath>
						
							<path clip-path="url(#SVGID_24_)" fill="none" stroke="#B0B0B0" stroke-width="0.8" stroke-linecap="square" stroke-linejoin="round" d="
							M116.48,96.164H547.2"/>
					</g>
				</g>
				<g id="line2d_24">
					<g>
						<g>
							<path id="m53252c2119_4_" stroke="#000000" stroke-width="0.8" stroke-linejoin="round" d="M116.48,96.164h-3.5"/>
						</g>
					</g>
				</g>
				<g id="text_13">
					<g transform="translate(90.3925 101.862251)scale(0.15 -0.15)">
						<g>
							<path id="DejaVuSans-32_1_" d="M19.186,8.297H53.61V0H7.327v8.298c3.74,3.874,8.838,9.072,15.296,15.592
								c6.468,6.533,10.531,10.745,12.187,12.64c3.158,3.542,5.361,6.543,6.611,9.001c1.26,2.458,1.888,4.876,1.888,7.249
								c0,3.877-1.357,7.031-4.076,9.469c-2.721,2.448-6.263,3.672-10.625,3.672c-3.096,0-6.361-0.537-9.798-1.608
								c-3.428-1.074-7.093-2.705-10.999-4.893v9.971c3.968,1.592,7.676,2.796,11.123,3.61c3.46,0.811,6.621,1.217,9.486,1.217
								c7.552,0,13.574-1.891,18.063-5.671c4.489-3.773,6.735-8.815,6.735-15.127c0-2.998-0.563-5.843-1.689-8.532
								c-1.113-2.676-3.154-5.837-6.123-9.482c-0.814-0.947-3.402-3.678-7.767-8.187C33.284,22.708,27.135,16.399,19.186,8.297z"/>
						</g>
						<g>
							<path id="DejaVuSans-30_3_" d="M95.404,66.406c-5.072,0-8.89-2.5-11.452-7.5c-2.552-4.99-3.828-12.5-3.828-22.533
								c0-9.987,1.276-17.484,3.828-22.484c2.562-5,6.38-7.5,11.452-7.5c5.114,0,8.949,2.5,11.501,7.5
								c2.562,5,3.844,12.497,3.844,22.484c0,10.033-1.283,17.542-3.844,22.533C104.352,63.906,100.518,66.406,95.404,66.406z
								 M95.404,74.218c8.177,0,14.421-3.236,18.734-9.704c4.313-6.458,6.468-15.837,6.468-28.141
								c0-12.269-2.155-21.641-6.468-28.109c-4.313-6.458-10.557-9.687-18.734-9.687c-8.167,0-14.408,3.229-18.717,9.687
								c-4.313,6.468-6.471,15.84-6.471,28.109c0,12.305,2.158,21.683,6.471,28.141C80.996,70.983,87.236,74.218,95.404,74.218z"/>
						</g>
					</g>
				</g>
			</g>
			<g id="ytick_6">
				<g id="line2d_25">
					<g>
						<defs>
							<rect id="SVGID_25_" x="116.48" y="23.875" width="430.72" height="339.225"/>
						</defs>
						<clipPath id="SVGID_26_">
							<use xlink:href="#SVGID_25_"  overflow="visible"/>
						</clipPath>
						
							<path clip-path="url(#SVGID_26_)" fill="none" stroke="#B0B0B0" stroke-width="0.8" stroke-linecap="square" stroke-linejoin="round" d="
							M116.48,30.289H547.2"/>
					</g>
				</g>
				<g id="line2d_26">
					<g>
						<g>
							<path id="m53252c2119_5_" stroke="#000000" stroke-width="0.8" stroke-linejoin="round" d="M116.48,30.289h-3.5"/>
						</g>
					</g>
				</g>
				<g id="text_14">
					<g transform="translate(90.3925 35.987849)scale(0.15 -0.15)">
						<g>
							<path id="DejaVuSans-32_2_" d="M19.186,8.298H53.61V0H7.327v8.298c3.74,3.874,8.838,9.072,15.296,15.592
								c6.468,6.53,10.531,10.745,12.187,12.64c3.158,3.542,5.361,6.543,6.611,9.001c1.26,2.458,1.888,4.876,1.888,7.249
								c0,3.877-1.357,7.031-4.076,9.469c-2.721,2.448-6.263,3.672-10.625,3.672c-3.096,0-6.361-0.537-9.798-1.608
								c-3.428-1.074-7.093-2.705-10.999-4.893v9.971c3.968,1.592,7.676,2.796,11.123,3.607c3.46,0.814,6.621,1.221,9.486,1.221
								c7.552,0,13.574-1.891,18.063-5.674c4.489-3.77,6.735-8.812,6.735-15.124c0-3.001-0.563-5.843-1.689-8.532
								c-1.113-2.676-3.154-5.837-6.123-9.482c-0.814-0.951-3.402-3.678-7.767-8.19C33.284,22.708,27.135,16.4,19.186,8.298z"/>
						</g>
						<g>
							<path id="DejaVuSans-35_3_" d="M74.42,72.907h38.717v-8.314H83.45V46.735c1.426,0.488,2.855,0.853,4.281,1.094
								c1.439,0.238,2.874,0.358,4.313,0.358c8.135,0,14.577-2.23,19.329-6.686c4.759-4.46,7.139-10.495,7.139-18.112
								c0-7.842-2.441-13.942-7.327-18.294c-4.886-4.346-11.771-6.517-20.658-6.517c-3.06,0-6.182,0.26-9.359,0.781
								c-3.167,0.521-6.442,1.302-9.827,2.344v9.922c2.926-1.595,5.954-2.78,9.079-3.561s6.426-1.172,9.906-1.172
								c5.635,0,10.094,1.478,13.376,4.437c3.291,2.959,4.938,6.979,4.938,12.061c0,5.075-1.647,9.089-4.938,12.048
								c-3.281,2.969-7.741,4.453-13.376,4.453c-2.637,0-5.267-0.29-7.891-0.876c-2.614-0.583-5.286-1.494-8.014-2.734V72.907z"/>
						</g>
					</g>
				</g>
			</g>
			<g id="text_15">
				<g transform="translate(83.272969 217.345582)rotate(-90)scale(0.15 -0.15)">
					<g>
						<path id="DejaVuSans-59" d="M-0.203,72.908h10.609l20.202-29.984l20.078,29.984h10.596L35.5,34.721V0.001h-9.906v34.72
							L-0.203,72.908z"/>
					</g>
					<g>
						<path id="DejaVuSans-20_1_" d="M61.083,0.001"/>
					</g>
					<g>
						<path id="DejaVuSans-64_1_" d="M138.277,46.391v29.593h8.984V0.001h-8.984v8.203c-1.885-3.249-4.271-5.667-7.155-7.249
							c-2.878-1.585-6.335-2.376-10.378-2.376c-6.602,0-11.982,2.637-16.139,7.907c-4.147,5.28-6.217,12.22-6.217,20.814
							s2.07,15.524,6.217,20.794c4.157,5.273,9.538,7.907,16.139,7.907c4.043,0,7.5-0.791,10.378-2.373
							C134.006,52.052,136.392,49.643,138.277,46.391z M107.668,27.299c0-6.605,1.357-11.787,4.079-15.547
							c2.718-3.763,6.452-5.641,11.201-5.641c4.749,0,8.49,1.878,11.221,5.641c2.738,3.76,4.108,8.942,4.108,15.547
							c0,6.602-1.37,11.784-4.108,15.547c-2.731,3.76-6.471,5.638-11.221,5.638c-4.749,0-8.483-1.878-11.201-5.638
							C109.025,39.083,107.668,33.901,107.668,27.299z"/>
					</g>
					<g>
						<path id="DejaVuSans-61_2_" d="M190.627,27.484c-7.259,0-12.292-0.827-15.091-2.484c-2.803-1.657-4.206-4.489-4.206-8.499
							c0-3.187,1.055-5.719,3.158-7.594c2.103-1.865,4.958-2.796,8.561-2.796c4.99,0,8.991,1.764,12.002,5.296
							c3.011,3.532,4.515,8.223,4.515,14.079v1.999H190.627z M208.55,31.205V0.001h-8.984v8.298
							c-2.051-3.314-4.609-5.762-7.673-7.344c-3.063-1.585-6.807-2.376-11.234-2.376c-5.592,0-10.046,1.572-13.359,4.72
							c-3.301,3.145-4.954,7.354-4.954,12.624c0,6.146,2.057,10.781,6.172,13.906c4.128,3.125,10.273,4.687,18.438,4.687h12.611
							v0.892c0,4.134-1.361,7.334-4.079,9.593s-6.536,3.392-11.452,3.392c-3.125,0-6.172-0.378-9.141-1.126
							c-2.959-0.749-5.804-1.875-8.532-3.376v8.314c3.281,1.27,6.468,2.217,9.564,2.842c3.092,0.638,6.104,0.954,9.03,0.954
							c7.917,0,13.828-2.051,17.734-6.156C206.597,45.749,208.55,39.539,208.55,31.205z"/>
					</g>
					<g>
						<path id="DejaVuSans-74_1_" d="M235.94,70.219V54.688h18.499v-6.986H235.94V18.015c0-4.456,0.609-7.321,1.826-8.594
							c1.221-1.27,3.704-1.904,7.454-1.904h9.219V0.001h-9.219c-6.937,0-11.725,1.292-14.359,3.874
							c-2.637,2.594-3.955,7.308-3.955,14.141v29.687h-6.592v6.986h6.592v15.531H235.94z"/>
					</g>
					<g>
						<path id="DejaVuSans-61_3_" d="M291.115,27.484c-7.259,0-12.292-0.827-15.091-2.484c-2.803-1.657-4.206-4.489-4.206-8.499
							c0-3.187,1.055-5.719,3.158-7.594c2.103-1.865,4.958-2.796,8.561-2.796c4.99,0,8.991,1.764,12.002,5.296
							c3.011,3.532,4.515,8.223,4.515,14.079v1.999H291.115z M309.038,31.205V0.001h-8.984v8.298
							c-2.051-3.314-4.609-5.762-7.673-7.344c-3.063-1.585-6.807-2.376-11.234-2.376c-5.592,0-10.046,1.572-13.359,4.72
							c-3.301,3.145-4.954,7.354-4.954,12.624c0,6.146,2.057,10.781,6.172,13.906c4.128,3.125,10.273,4.687,18.438,4.687h12.611
							v0.892c0,4.134-1.361,7.334-4.079,9.593s-6.536,3.392-11.452,3.392c-3.125,0-6.172-0.378-9.141-1.126
							c-2.959-0.749-5.804-1.875-8.532-3.376v8.314c3.281,1.27,6.468,2.217,9.564,2.842c3.092,0.638,6.104,0.954,9.03,0.954
							c7.917,0,13.828-2.051,17.734-6.156C307.085,45.749,309.038,39.539,309.038,31.205z"/>
					</g>
				</g>
			</g>
		</g>
		<g id="line2d_27">
			<g>
				<defs>
					<rect id="SVGID_27_" x="116.48" y="23.875" width="430.72" height="339.225"/>
				</defs>
				<clipPath id="SVGID_28_">
					<use xlink:href="#SVGID_27_"  overflow="visible"/>
				</clipPath>
				<g clip-path="url(#SVGID_28_)">
					<g>
						<path id="mf416b08c90" stroke="#000000" stroke-linejoin="round" d="M153.856,334.812c0.398,0,0.779-0.158,1.061-0.439
							s0.439-0.663,0.439-1.061s-0.158-0.78-0.439-1.062s-0.663-0.438-1.061-0.438s-0.779,0.157-1.061,0.438
							s-0.439,0.664-0.439,1.062s0.158,0.779,0.439,1.061S153.458,334.812,153.856,334.812z"/>
					</g>
					<g>
						<path id="mf416b08c90_1_" stroke="#000000" stroke-linejoin="round" d="M331.84,203.063c0.398,0,0.779-0.158,1.061-0.439
							s0.439-0.663,0.439-1.061s-0.158-0.779-0.439-1.061s-0.662-0.439-1.061-0.439c-0.397,0-0.779,0.158-1.061,0.439
							s-0.439,0.663-0.439,1.061s0.158,0.779,0.439,1.061S331.442,203.063,331.84,203.063z"/>
					</g>
					<g>
						<path id="mf416b08c90_2_" stroke="#000000" stroke-linejoin="round" d="M391.168,137.188c0.397,0,0.779-0.158,1.061-0.439
							s0.439-0.663,0.439-1.061s-0.158-0.779-0.439-1.061s-0.663-0.439-1.061-0.439c-0.398,0-0.779,0.158-1.061,0.439
							s-0.439,0.663-0.439,1.061s0.158,0.779,0.439,1.061S390.769,137.188,391.168,137.188z"/>
					</g>
					<g>
						<path id="mf416b08c90_3_" stroke="#000000" stroke-linejoin="round" d="M509.823,58.139c0.398,0,0.779-0.158,1.061-0.439
							c0.281-0.281,0.439-0.663,0.439-1.061c0-0.397-0.158-0.779-0.439-1.061s-0.662-0.439-1.061-0.439
							c-0.397,0-0.779,0.158-1.061,0.439s-0.439,0.663-0.439,1.061c0,0.398,0.158,0.779,0.439,1.061
							C509.044,57.981,509.426,58.139,509.823,58.139z"/>
					</g>
				</g>
			</g>
		</g>
		<g id="line2d_28">
			<g>
				<defs>
					<rect id="SVGID_29_" x="116.48" y="23.875" width="430.72" height="339.225"/>
				</defs>
				<clipPath id="SVGID_30_">
					<use xlink:href="#SVGID_29_"  overflow="visible"/>
				</clipPath>
				
					<path clip-path="url(#SVGID_30_)" fill="none" stroke="#000000" stroke-width="1.5" stroke-linecap="square" stroke-linejoin="round" d="
					M136.058,347.681L527.607,39.294l0,0"/>
			</g>
		</g>
		<g id="patch_2">
			<path fill="none" stroke="#000000" stroke-width="0.8" stroke-linecap="square" d="M116.48,363.1V23.875"/>
		</g>
		<g id="patch_3">
			<path fill="none" stroke="#000000" stroke-width="0.8" stroke-linecap="square" d="M547.2,363.1V23.875"/>
		</g>
		<g id="patch_4">
			<path fill="none" stroke="#000000" stroke-width="0.8" stroke-linecap="square" d="M116.48,363.1H547.2"/>
		</g>
		<g id="patch_5">
			<path fill="none" stroke="#000000" stroke-width="0.8" stroke-linecap="square" d="M116.48,23.875H547.2"/>
		</g>
		<g id="text_16">
			<g transform="translate(562.273058 62.834582)rotate(-90)scale(0.0579 -0.0579)">
				<g>
					<path id="DejaVuSansMono-7a" d="M11.074,54.778h39.703v-8.197L19.389,7.333h31.388v-7.337H9.902v8.298l31.414,39.315H11.074
						V54.778z"/>
				</g>
				<g>
					<path id="DejaVuSansMono-75" d="M69.718,20.708v33.885h8.99V20.708c0-4.925,0.869-8.534,2.606-10.845
						c1.746-2.311,4.444-3.474,8.096-3.474c4.225,0,7.463,1.501,9.698,4.47c2.252,2.985,3.382,7.253,3.382,12.835v30.899h9.024
						V-0.004h-9.024V8.21c-1.594-3.154-3.77-5.549-6.519-7.185c-2.749-1.636-5.962-2.446-9.639-2.446
						c-5.608,0-9.782,1.838-12.515,5.498C71.084,7.754,69.718,13.286,69.718,20.708z"/>
				</g>
				<g>
					<path id="DejaVuSansMono-6e" d="M171.726,33.897V-0.004h-9.04v33.901c0,4.908-0.86,8.518-2.589,10.828
						c-1.72,2.311-4.419,3.458-8.096,3.458c-4.191,0-7.43-1.484-9.698-4.47c-2.26-2.968-3.39-7.236-3.39-12.802V-0.004h-8.99v54.698
						h8.99v-8.214c1.602,3.137,3.77,5.498,6.494,7.101c2.741,1.619,5.979,2.429,9.723,2.429c5.557,0,9.715-1.838,12.464-5.515
						C170.343,46.85,171.726,41.301,171.726,33.897z"/>
				</g>
				<g>
					<path id="DejaVuSansMono-7a_1_" d="M191.696,54.778h39.703v-8.197L200.002,7.333h31.397v-7.337h-40.876v8.298l31.405,39.315
						h-30.233V54.778z"/>
				</g>
				<g>
					<path id="DejaVuSansMono-75_1_" d="M250.332,20.708v33.885h8.99V20.708c0-4.925,0.869-8.534,2.606-10.845
						c1.754-2.311,4.453-3.474,8.096-3.474c4.225,0,7.463,1.501,9.698,4.47c2.252,2.985,3.382,7.253,3.382,12.835v30.899h9.032
						V-0.004h-9.032V8.21c-1.594-3.154-3.77-5.549-6.519-7.185c-2.749-1.636-5.962-2.446-9.639-2.446
						c-5.608,0-9.774,1.838-12.515,5.498C251.698,7.754,250.332,13.286,250.332,20.708z"/>
				</g>
				<g>
					<path id="DejaVuSansMono-6e_1_" d="M352.339,33.897V-0.004h-9.032v33.901c0,4.908-0.869,8.518-2.597,10.828
						c-1.72,2.311-4.419,3.458-8.096,3.458c-4.191,0-7.43-1.484-9.698-4.47c-2.26-2.968-3.39-7.236-3.39-12.802V-0.004h-8.99v54.698
						h8.99v-8.214c1.602,3.137,3.77,5.498,6.502,7.101c2.741,1.619,5.979,2.429,9.715,2.429c5.566,0,9.723-1.838,12.473-5.515
						C350.965,46.85,352.339,41.301,352.339,33.897z"/>
				</g>
				<g>
					<path id="DejaVuSansMono-73" d="M408.749,52.787V44c-2.581,1.484-5.161,2.614-7.767,3.356c-2.606,0.759-5.262,1.13-7.969,1.13
						c-4.065,0-7.101-0.658-9.108-1.99c-2.007-1.299-3.002-3.306-3.002-6.004c0-2.446,0.751-4.284,2.252-5.482
						c1.493-1.214,5.229-2.378,11.182-3.508l3.609-0.692c4.461-0.843,7.834-2.53,10.128-5.077c2.302-2.547,3.449-5.836,3.449-9.901
						c0-5.414-1.923-9.631-5.76-12.684c-3.846-3.053-9.184-4.571-16.023-4.571c-2.69,0-5.524,0.287-8.501,0.86
						c-2.952,0.573-6.156,1.434-9.605,2.564v9.277c3.356-1.72,6.561-3.019,9.605-3.879c3.07-0.86,5.971-1.282,8.711-1.282
						c3.964,0,7.042,0.793,9.217,2.395c2.184,1.619,3.281,3.879,3.281,6.763c0,4.166-3.989,7.05-11.967,8.652l-0.396,0.101
						l-3.373,0.675c-5.178,1.012-8.956,2.715-11.326,5.111c-2.378,2.395-3.567,5.65-3.567,9.782c0,5.245,1.771,9.293,5.313,12.144
						c3.55,2.834,8.619,4.267,15.205,4.267c2.926,0,5.743-0.27,8.433-0.826C403.487,54.66,406.143,53.85,408.749,52.787z"/>
				</g>
				<g>
					<path id="DejaVuSansMono-69" d="M433.93,54.693h23.006V6.978h17.828v-6.983h-44.645v6.983h17.828v40.732H433.93V54.693z
						 M447.946,75.979h8.99V64.594h-8.99V75.979z"/>
				</g>
				<g>
					<path id="DejaVuSansMono-74" d="M511.625,70.227V54.693h20.4v-6.983h-20.4V18.009c0-4.014,0.767-6.848,2.294-8.45
						c1.535-1.585,4.2-2.378,8.003-2.378h10.103v-7.185h-10.98c-6.738,0-11.494,1.349-14.269,4.048
						c-2.758,2.715-4.141,7.371-4.141,13.965v29.702h-14.606v6.983h14.606v15.534H511.625z"/>
				</g>
				<g>
					<path id="DejaVuSansMono-65" d="M596.143,29.596v-4.385h-38.919v-0.304c0-5.954,1.552-10.575,4.655-13.83
						c3.112-3.255,7.505-4.874,13.173-4.874c2.859,0,5.853,0.455,8.981,1.366s6.46,2.294,10.019,4.149V2.779
						c-3.424-1.383-6.721-2.446-9.892-3.137c-3.179-0.708-6.249-1.063-9.209-1.063c-8.501,0-15.146,2.547-19.936,7.64
						c-4.782,5.111-7.168,12.127-7.168,21.083c0,8.72,2.344,15.686,7.033,20.881c4.689,5.212,10.938,7.826,18.747,7.826
						c6.966,0,12.464-2.361,16.487-7.084C594.127,44.202,596.143,37.759,596.143,29.596z M587.161,32.244
						c-0.127,5.262-1.375,9.277-3.736,12.026c-2.37,2.749-5.76,4.115-10.187,4.115c-4.326,0-7.885-1.417-10.693-4.284
						c-2.8-2.867-4.461-6.848-4.984-11.925L587.161,32.244z"/>
				</g>
				<g>
					<path id="DejaVuSansMono-33" d="M639.936,39.024c4.79-1.282,8.45-3.525,10.988-6.78c2.538-3.238,3.812-7.269,3.812-12.11
						c0-6.713-2.252-11.992-6.763-15.821c-4.512-3.829-10.752-5.735-18.722-5.735c-3.348,0-6.772,0.32-10.263,0.945
						c-3.483,0.607-6.898,1.501-10.255,2.682v9.816c3.323-1.737,6.595-3.019,9.816-3.862c3.23-0.843,6.435-1.265,9.622-1.265
						c5.406,0,9.563,1.214,12.456,3.66c2.901,2.429,4.343,5.954,4.343,10.541c0,4.233-1.442,7.59-4.343,10.086
						c-2.893,2.479-6.814,3.727-11.764,3.727h-7.531v8.113h7.531c4.52,0,8.054,0.978,10.592,2.968
						c2.538,1.99,3.812,4.756,3.812,8.315c0,3.727-1.181,6.595-3.542,8.602c-2.37,2.007-5.726,3.019-10.078,3.019
						c-2.901,0-5.895-0.337-8.99-0.995c-3.095-0.641-6.333-1.619-9.715-2.918v9.091c3.938,1.029,7.438,1.822,10.516,2.328
						c3.078,0.523,5.81,0.793,8.189,0.793c7.092,0,12.759-1.788,17.01-5.347c4.25-3.559,6.375-8.298,6.375-14.185
						c0-3.997-1.122-7.337-3.356-10.019C647.442,42.01,644.203,40.121,639.936,39.024z"/>
				</g>
			</g>
		</g>
	</g>
</g>
</svg>
