<?xml version="1.0" encoding="utf-8"?>
<!-- Generator: Adobe Illustrator 15.0.0, SVG Export Plug-In . SVG Version: 6.00 Build 0)  -->
<!DOCTYPE svg PUBLIC "-//W3C//DTD SVG 1.1//EN" "http://www.w3.org/Graphics/SVG/1.1/DTD/svg11.dtd">
<svg version="1.1" id="Layer_1" xmlns="http://www.w3.org/2000/svg" xmlns:xlink="http://www.w3.org/1999/xlink" x="0px" y="0px"
	 width="506px" height="413px" viewBox="60.5 4.5 506 413" enable-background="new 60.5 4.5 506 413" xml:space="preserve">
<g id="figure_1">
	<g id="axes_1">
		<g id="patch_1">
			<path fill="#FFFFFF" d="M116.48,363.1H547.2V21.6H116.48V363.1z"/>
		</g>
		<g id="matplotlib.axis_1">
			<g id="xtick_1">
				<g id="line2d_1">
					<g>
						<defs>
							<rect id="SVGID_1_" x="116.48" y="21.6" width="430.72" height="341.5"/>
						</defs>
						<clipPath id="SVGID_2_">
							<use xlink:href="#SVGID_1_"  overflow="visible"/>
						</clipPath>
						
							<path clip-path="url(#SVGID_2_)" fill="none" stroke="#B0B0B0" stroke-width="0.8" stroke-linecap="square" stroke-linejoin="round" d="
							M126.852,363.1V21.6"/>
					</g>
				</g>
				<g id="line2d_2">
					<g>
						<g>
							<path id="m0547e0e1f2" stroke="#000000" stroke-width="0.8" stroke-linejoin="round" d="M126.852,363.1v3.5"/>
						</g>
					</g>
				</g>
				<g id="text_1">
					<g transform="translate(122.080265 388.997656)scale(0.15 -0.15)">
						<g>
							<path id="DejaVuSans-30" d="M31.783,66.404c-5.075,0-8.893-2.5-11.455-7.5c-2.552-4.987-3.828-12.5-3.828-22.526
								c0-9.993,1.276-17.487,3.828-22.487c2.562-5,6.38-7.5,11.455-7.5c5.114,0,8.945,2.5,11.497,7.5
								c2.565,5,3.844,12.493,3.844,22.487c0,10.026-1.279,17.539-3.844,22.526C40.728,63.904,36.897,66.404,31.783,66.404z
								 M31.783,74.216c8.177,0,14.421-3.229,18.734-9.701c4.313-6.458,6.468-15.84,6.468-28.138
								c0-12.272-2.155-21.641-6.468-28.112C46.203,1.807,39.96-1.422,31.783-1.422c-8.167,0-14.408,3.229-18.721,9.688
								c-4.313,6.471-6.468,15.84-6.468,28.112c0,12.298,2.155,21.68,6.468,28.138C17.375,70.987,23.615,74.216,31.783,74.216z"/>
						</g>
					</g>
				</g>
			</g>
			<g id="xtick_2">
				<g id="line2d_3">
					<g>
						<defs>
							<rect id="SVGID_3_" x="116.48" y="21.6" width="430.72" height="341.5"/>
						</defs>
						<clipPath id="SVGID_4_">
							<use xlink:href="#SVGID_3_"  overflow="visible"/>
						</clipPath>
						
							<path clip-path="url(#SVGID_4_)" fill="none" stroke="#B0B0B0" stroke-width="0.8" stroke-linecap="square" stroke-linejoin="round" d="
							M175.951,363.1V21.6"/>
					</g>
				</g>
				<g id="line2d_4">
					<g>
						<g>
							<path id="m0547e0e1f2_1_" stroke="#000000" stroke-width="0.8" stroke-linejoin="round" d="M175.951,363.1v3.5"/>
						</g>
					</g>
				</g>
				<g id="text_2">
					<g transform="translate(171.179154 388.997656)scale(0.15 -0.15)">
						<g>
							<path id="DejaVuSans-32" d="M19.186,8.298H53.61v-8.301H7.328v8.301c3.74,3.874,8.838,9.069,15.296,15.592
								c6.468,6.53,10.531,10.742,12.187,12.643c3.158,3.542,5.361,6.536,6.611,8.997c1.26,2.461,1.888,4.876,1.888,7.253
								c0,3.874-1.357,7.031-4.076,9.466c-2.721,2.448-6.263,3.672-10.625,3.672c-3.096,0-6.361-0.534-9.798-1.608
								c-3.428-1.074-7.093-2.702-10.999-4.889v9.967c3.968,1.595,7.676,2.793,11.123,3.607c3.46,0.814,6.621,1.217,9.486,1.217
								c7.552,0,13.574-1.888,18.063-5.671c4.489-3.77,6.735-8.809,6.735-15.124c0-3.001-0.563-5.846-1.689-8.529
								c-1.113-2.682-3.154-5.84-6.123-9.486c-0.814-0.951-3.402-3.678-7.767-8.19C33.285,22.706,27.136,16.404,19.186,8.298z"/>
						</g>
					</g>
				</g>
			</g>
			<g id="xtick_3">
				<g id="line2d_5">
					<g>
						<defs>
							<rect id="SVGID_5_" x="116.48" y="21.6" width="430.72" height="341.5"/>
						</defs>
						<clipPath id="SVGID_6_">
							<use xlink:href="#SVGID_5_"  overflow="visible"/>
						</clipPath>
						
							<path clip-path="url(#SVGID_6_)" fill="none" stroke="#B0B0B0" stroke-width="0.8" stroke-linecap="square" stroke-linejoin="round" d="
							M225.05,363.1V21.6"/>
					</g>
				</g>
				<g id="line2d_6">
					<g>
						<g>
							<path id="m0547e0e1f2_2_" stroke="#000000" stroke-width="0.8" stroke-linejoin="round" d="M225.05,363.1v3.5"/>
						</g>
					</g>
				</g>
				<g id="text_3">
					<g transform="translate(220.278042 388.997656)scale(0.15 -0.15)">
						<g>
							<path id="DejaVuSans-34" d="M37.798,64.314L12.889,25.388h24.909V64.314z M35.204,72.908h12.406v-47.52h10.407v-8.203H47.609
								V-0.003h-9.811v17.188H4.891v9.518L35.204,72.908z"/>
						</g>
					</g>
				</g>
			</g>
			<g id="xtick_4">
				<g id="line2d_7">
					<g>
						<defs>
							<rect id="SVGID_7_" x="116.48" y="21.6" width="430.72" height="341.5"/>
						</defs>
						<clipPath id="SVGID_8_">
							<use xlink:href="#SVGID_7_"  overflow="visible"/>
						</clipPath>
						
							<path clip-path="url(#SVGID_8_)" fill="none" stroke="#B0B0B0" stroke-width="0.8" stroke-linecap="square" stroke-linejoin="round" d="
							M274.149,363.1V21.6"/>
					</g>
				</g>
				<g id="line2d_8">
					<g>
						<g>
							<path id="m0547e0e1f2_3_" stroke="#000000" stroke-width="0.8" stroke-linejoin="round" d="M274.149,363.1v3.5"/>
						</g>
					</g>
				</g>
				<g id="text_4">
					<g transform="translate(269.376931 388.997656)scale(0.15 -0.15)">
						<g>
							<path id="DejaVuSans-36" d="M33.014,40.375c-4.427,0-7.936-1.517-10.531-4.544c-2.581-3.021-3.874-7.168-3.874-12.441
								c0-5.241,1.292-9.382,3.874-12.435c2.594-3.04,6.104-4.564,10.531-4.564s7.933,1.523,10.518,4.564
								c2.581,3.053,3.874,7.194,3.874,12.435c0,5.273-1.292,9.421-3.874,12.441C40.947,38.858,37.441,40.375,33.014,40.375z
								 M52.594,71.299v-8.984c-2.48,1.165-4.98,2.057-7.5,2.669c-2.523,0.625-5.023,0.938-7.5,0.938
								c-6.51,0-11.484-2.201-14.922-6.595c-3.428-4.395-5.387-11.035-5.876-19.922c1.917,2.832,4.323,5.007,7.22,6.517
								c2.904,1.51,6.097,2.266,9.577,2.266c7.324,0,13.109-2.227,17.36-6.673c4.248-4.434,6.374-10.475,6.374-18.125
								c0-7.487-2.214-13.496-6.641-18.027C46.26,0.837,40.371-1.422,33.014-1.422c-8.438,0-14.883,3.229-19.342,9.688
								c-4.46,6.471-6.686,15.84-6.686,28.112c0,11.517,2.734,20.703,8.203,27.559s12.806,10.28,22.015,10.28
								c2.477,0,4.977-0.241,7.5-0.729C47.223,72.992,49.854,72.263,52.594,71.299z"/>
						</g>
					</g>
				</g>
			</g>
			<g id="xtick_5">
				<g id="line2d_9">
					<g>
						<defs>
							<rect id="SVGID_9_" x="116.48" y="21.6" width="430.72" height="341.5"/>
						</defs>
						<clipPath id="SVGID_10_">
							<use xlink:href="#SVGID_9_"  overflow="visible"/>
						</clipPath>
						
							<path clip-path="url(#SVGID_10_)" fill="none" stroke="#B0B0B0" stroke-width="0.8" stroke-linecap="square" stroke-linejoin="round" d="
							M323.248,363.1V21.6"/>
					</g>
				</g>
				<g id="line2d_10">
					<g>
						<g>
							<path id="m0547e0e1f2_4_" stroke="#000000" stroke-width="0.8" stroke-linejoin="round" d="M323.248,363.1v3.5"/>
						</g>
					</g>
				</g>
				<g id="text_5">
					<g transform="translate(318.475819 388.997656)scale(0.15 -0.15)">
						<g>
							<path id="DejaVuSans-38" d="M31.782,34.626c-4.688,0-8.379-1.257-11.061-3.77c-2.682-2.507-4.017-5.957-4.017-10.339
								c0-4.401,1.335-7.852,4.017-10.365c2.682-2.507,6.374-3.763,11.061-3.763s8.379,1.263,11.074,3.783
								c2.708,2.533,4.063,5.977,4.063,10.345c0,4.382-1.341,7.832-4.03,10.339C40.213,33.37,36.509,34.626,31.782,34.626z
								 M21.919,38.812c-4.225,1.042-7.526,3.008-9.889,5.905c-2.35,2.91-3.529,6.445-3.529,10.612c0,5.82,2.07,10.423,6.217,13.809
								c4.154,3.385,9.844,5.078,17.064,5.078c7.259,0,12.956-1.693,17.09-5.078c4.141-3.385,6.204-7.988,6.204-13.809
								c0-4.167-1.178-7.702-3.548-10.612c-2.35-2.897-5.625-4.863-9.824-5.905c4.746-1.107,8.444-3.268,11.094-6.497
								c2.656-3.223,3.984-7.155,3.984-11.797c0-7.077-2.155-12.5-6.471-16.283c-4.31-3.77-10.488-5.658-18.529-5.658
								c-8.034,0-14.212,1.888-18.535,5.658c-4.31,3.783-6.465,9.206-6.465,16.283c0,4.642,1.335,8.574,3.997,11.797
								C13.455,35.544,17.173,37.706,21.919,38.812z M18.312,54.392c0-3.77,1.178-6.712,3.529-8.828
								c2.37-2.116,5.677-3.171,9.941-3.171c4.238,0,7.552,1.055,9.935,3.171c2.396,2.116,3.594,5.059,3.594,8.828
								c0,3.783-1.198,6.725-3.594,8.841c-2.383,2.116-5.697,3.171-9.935,3.171c-4.264,0-7.572-1.055-9.941-3.171
								C19.49,61.117,18.312,58.174,18.312,54.392z"/>
						</g>
					</g>
				</g>
			</g>
			<g id="xtick_6">
				<g id="line2d_11">
					<g>
						<defs>
							<rect id="SVGID_11_" x="116.48" y="21.6" width="430.72" height="341.5"/>
						</defs>
						<clipPath id="SVGID_12_">
							<use xlink:href="#SVGID_11_"  overflow="visible"/>
						</clipPath>
						
							<path clip-path="url(#SVGID_12_)" fill="none" stroke="#B0B0B0" stroke-width="0.8" stroke-linecap="square" stroke-linejoin="round" d="
							M372.347,363.1V21.6"/>
					</g>
				</g>
				<g id="line2d_12">
					<g>
						<g>
							<path id="m0547e0e1f2_5_" stroke="#000000" stroke-width="0.8" stroke-linejoin="round" d="M372.347,363.1v3.5"/>
						</g>
					</g>
				</g>
				<g id="text_6">
					<g transform="translate(362.802833 388.997656)scale(0.15 -0.15)">
						<g>
							<path id="DejaVuSans-31" d="M12.408,8.298h16.107v55.625l-17.533-3.516v8.984l17.441,3.516h9.857V8.298h16.107v-8.301H12.408
								V8.298z"/>
						</g>
						<g>
							<path id="DejaVuSans-30_1_" d="M95.403,66.404c-5.072,0-8.887-2.5-11.452-7.5c-2.552-4.987-3.828-12.5-3.828-22.526
								c0-9.993,1.276-17.487,3.828-22.487c2.565-5,6.38-7.5,11.452-7.5c5.117,0,8.952,2.5,11.504,7.5
								c2.559,5,3.841,12.493,3.841,22.487c0,10.026-1.283,17.539-3.841,22.526C104.355,63.904,100.52,66.404,95.403,66.404z
								 M95.403,74.216c8.177,0,14.421-3.229,18.737-9.701c4.31-6.458,6.465-15.84,6.465-28.138c0-12.272-2.155-21.641-6.465-28.112
								c-4.316-6.458-10.56-9.688-18.737-9.688c-8.164,0-14.408,3.229-18.717,9.688c-4.31,6.471-6.471,15.84-6.471,28.112
								c0,12.298,2.161,21.68,6.471,28.138C80.995,70.987,87.239,74.216,95.403,74.216z"/>
						</g>
					</g>
				</g>
			</g>
			<g id="xtick_7">
				<g id="line2d_13">
					<g>
						<defs>
							<rect id="SVGID_13_" x="116.48" y="21.6" width="430.72" height="341.5"/>
						</defs>
						<clipPath id="SVGID_14_">
							<use xlink:href="#SVGID_13_"  overflow="visible"/>
						</clipPath>
						
							<path clip-path="url(#SVGID_14_)" fill="none" stroke="#B0B0B0" stroke-width="0.8" stroke-linecap="square" stroke-linejoin="round" d="
							M421.445,363.1V21.6"/>
					</g>
				</g>
				<g id="line2d_14">
					<g>
						<g>
							<path id="m0547e0e1f2_6_" stroke="#000000" stroke-width="0.8" stroke-linejoin="round" d="M421.445,363.1v3.5"/>
						</g>
					</g>
				</g>
				<g id="text_7">
					<g transform="translate(411.901722 388.997656)scale(0.15 -0.15)">
						<g>
							<path id="DejaVuSans-31_1_" d="M12.406,8.298h16.107v55.625l-17.526-3.516v8.984l17.435,3.516h9.857V8.298h16.113v-8.301
								H12.406V8.298z"/>
						</g>
						<g>
							<path id="DejaVuSans-32_1_" d="M82.81,8.298h34.421v-8.301H70.948v8.301c3.743,3.874,8.841,9.069,15.299,15.592
								c6.471,6.53,10.534,10.742,12.188,12.643c3.158,3.542,5.358,6.536,6.608,8.997c1.263,2.461,1.895,4.876,1.895,7.253
								c0,3.874-1.361,7.031-4.082,9.466c-2.715,2.448-6.257,3.672-10.625,3.672c-3.092,0-6.361-0.534-9.798-1.608
								c-3.424-1.074-7.09-2.702-10.996-4.889v9.967c3.965,1.595,7.676,2.793,11.126,3.607c3.457,0.814,6.615,1.217,9.479,1.217
								c7.552,0,13.574-1.888,18.066-5.671c4.486-3.77,6.732-8.809,6.732-15.124c0-3.001-0.56-5.846-1.686-8.529
								c-1.113-2.682-3.158-5.84-6.126-9.486c-0.814-0.951-3.398-3.678-7.767-8.19C96.911,22.706,90.759,16.404,82.81,8.298z"/>
						</g>
					</g>
				</g>
			</g>
			<g id="xtick_8">
				<g id="line2d_15">
					<g>
						<defs>
							<rect id="SVGID_15_" x="116.48" y="21.6" width="430.72" height="341.5"/>
						</defs>
						<clipPath id="SVGID_16_">
							<use xlink:href="#SVGID_15_"  overflow="visible"/>
						</clipPath>
						
							<path clip-path="url(#SVGID_16_)" fill="none" stroke="#B0B0B0" stroke-width="0.8" stroke-linecap="square" stroke-linejoin="round" d="
							M470.544,363.1V21.6"/>
					</g>
				</g>
				<g id="line2d_16">
					<g>
						<g>
							<path id="m0547e0e1f2_7_" stroke="#000000" stroke-width="0.8" stroke-linejoin="round" d="M470.544,363.1v3.5"/>
						</g>
					</g>
				</g>
				<g id="text_8">
					<g transform="translate(461.00061 388.997656)scale(0.15 -0.15)">
						<g>
							<path id="DejaVuSans-31_2_" d="M12.404,8.298h16.113v55.625l-17.533-3.516v8.984l17.435,3.516h9.863V8.298H54.39v-8.301
								H12.404V8.298z"/>
						</g>
						<g>
							<path id="DejaVuSans-34_1_" d="M101.421,64.314L76.512,25.388h24.909V64.314z M98.824,72.908h12.409v-47.52h10.404v-8.203
								h-10.404V-0.003h-9.811v17.188h-32.91v9.518L98.824,72.908z"/>
						</g>
					</g>
				</g>
			</g>
			<g id="xtick_9">
				<g id="line2d_17">
					<g>
						<defs>
							<rect id="SVGID_17_" x="116.48" y="21.6" width="430.72" height="341.5"/>
						</defs>
						<clipPath id="SVGID_18_">
							<use xlink:href="#SVGID_17_"  overflow="visible"/>
						</clipPath>
						
							<path clip-path="url(#SVGID_18_)" fill="none" stroke="#B0B0B0" stroke-width="0.8" stroke-linecap="square" stroke-linejoin="round" d="
							M519.643,363.1V21.6"/>
					</g>
				</g>
				<g id="line2d_18">
					<g>
						<g>
							<path id="m0547e0e1f2_8_" stroke="#000000" stroke-width="0.8" stroke-linejoin="round" d="M519.643,363.1v3.5"/>
						</g>
					</g>
				</g>
				<g id="text_9">
					<g transform="translate(510.099499 388.997656)scale(0.15 -0.15)">
						<g>
							<path id="DejaVuSans-31_3_" d="M12.403,8.298h16.113v55.625l-17.533-3.516v8.984l17.435,3.516h9.863V8.298h16.107v-8.301
								H12.403V8.298z"/>
						</g>
						<g>
							<path id="DejaVuSans-36_1_" d="M96.641,40.375c-4.427,0-7.943-1.517-10.534-4.544c-2.585-3.021-3.874-7.168-3.874-12.441
								c0-5.241,1.289-9.382,3.874-12.435c2.591-3.04,6.107-4.564,10.534-4.564s7.93,1.523,10.514,4.564
								c2.585,3.053,3.874,7.194,3.874,12.435c0,5.273-1.289,9.421-3.874,12.441C104.571,38.858,101.068,40.375,96.641,40.375z
								 M116.218,71.299v-8.984c-2.48,1.165-4.98,2.057-7.5,2.669c-2.52,0.625-5.02,0.938-7.5,0.938
								c-6.51,0-11.484-2.201-14.922-6.595c-3.431-4.395-5.384-11.035-5.879-19.922c1.921,2.832,4.323,5.007,7.22,6.517
								c2.91,1.51,6.1,2.266,9.577,2.266c7.324,0,13.112-2.227,17.363-6.673c4.251-4.434,6.374-10.475,6.374-18.125
								c0-7.487-2.214-13.496-6.641-18.027c-4.427-4.525-10.319-6.784-17.669-6.784c-8.438,0-14.889,3.229-19.349,9.688
								c-4.453,6.471-6.686,15.84-6.686,28.112c0,11.517,2.734,20.703,8.203,27.559s12.806,10.28,22.018,10.28
								c2.48,0,4.98-0.241,7.5-0.729C110.847,72.992,113.477,72.263,116.218,71.299z"/>
						</g>
					</g>
				</g>
			</g>
			<g id="text_10">
				<g transform="translate(307.425156 407.514844)scale(0.15 -0.15)">
					<g>
						<path id="DejaVuSans-58" d="M6.299,72.905h10.592l18.125-27.109L53.22,72.905h10.592L40.375,37.892l25-37.891H54.783
							L34.281,30.997L13.624,0.001H2.986L29.001,38.92L6.299,72.905z"/>
					</g>
					<g>
						<path id="DejaVuSans-20" d="M68.506,0.001"/>
					</g>
					<g>
						<path id="DejaVuSans-64" d="M145.7,46.388v29.596h8.984V0.001H145.7v8.203c-1.888-3.249-4.271-5.671-7.155-7.253
							c-2.878-1.582-6.335-2.376-10.378-2.376c-6.602,0-11.986,2.637-16.139,7.91c-4.147,5.28-6.217,12.22-6.217,20.814
							s2.07,15.521,6.217,20.794c4.154,5.273,9.538,7.904,16.139,7.904c4.043,0,7.5-0.788,10.378-2.37
							C141.43,52.052,143.812,49.643,145.7,46.388z M115.089,27.299c0-6.608,1.361-11.79,4.082-15.547
							c2.715-3.763,6.452-5.645,11.198-5.645c4.753,0,8.49,1.882,11.224,5.645c2.734,3.757,4.108,8.939,4.108,15.547
							c0,6.602-1.374,11.784-4.108,15.547c-2.734,3.757-6.471,5.638-11.224,5.638c-4.746,0-8.483-1.882-11.198-5.638
							C116.449,39.083,115.089,33.901,115.089,27.299z"/>
					</g>
					<g>
						<path id="DejaVuSans-61" d="M198.051,27.482c-7.259,0-12.292-0.827-15.091-2.48c-2.806-1.66-4.206-4.492-4.206-8.503
							c0-3.184,1.055-5.716,3.158-7.591c2.103-1.868,4.954-2.799,8.561-2.799c4.987,0,8.991,1.764,11.999,5.299
							c3.014,3.529,4.518,8.223,4.518,14.076v1.999H198.051z M215.974,31.206V0.001h-8.984v8.294
							c-2.051-3.314-4.609-5.762-7.676-7.344c-3.06-1.582-6.803-2.376-11.23-2.376c-5.592,0-10.046,1.576-13.359,4.72
							c-3.301,3.145-4.954,7.357-4.954,12.624c0,6.146,2.057,10.781,6.172,13.906c4.128,3.125,10.273,4.687,18.438,4.687h12.611
							v0.892c0,4.134-1.361,7.337-4.082,9.596c-2.715,2.259-6.536,3.392-11.452,3.392c-3.125,0-6.172-0.378-9.141-1.126
							c-2.956-0.749-5.801-1.875-8.529-3.379v8.314c3.281,1.27,6.465,2.22,9.564,2.845c3.092,0.638,6.1,0.951,9.03,0.951
							c7.917,0,13.828-2.051,17.734-6.152C214.021,45.75,215.974,39.539,215.974,31.206z"/>
					</g>
					<g>
						<path id="DejaVuSans-74" d="M243.363,70.216V54.689h18.496v-6.986h-18.496V18.015c0-4.46,0.605-7.324,1.823-8.594
							c1.224-1.27,3.704-1.908,7.454-1.908h9.219V0.001h-9.219c-6.934,0-11.725,1.289-14.355,3.874
							c-2.637,2.591-3.958,7.305-3.958,14.141v29.688h-6.589v6.986h6.589v15.527H243.363z"/>
					</g>
					<g>
						<path id="DejaVuSans-61_1_" d="M298.539,27.482c-7.259,0-12.292-0.827-15.091-2.48c-2.806-1.66-4.206-4.492-4.206-8.503
							c0-3.184,1.055-5.716,3.158-7.591c2.103-1.868,4.954-2.799,8.561-2.799c4.987,0,8.991,1.764,11.999,5.299
							c3.014,3.529,4.518,8.223,4.518,14.076v1.999H298.539z M316.462,31.206V0.001h-8.984v8.294
							c-2.051-3.314-4.609-5.762-7.676-7.344c-3.06-1.582-6.803-2.376-11.23-2.376c-5.592,0-10.046,1.576-13.359,4.72
							c-3.301,3.145-4.954,7.357-4.954,12.624c0,6.146,2.057,10.781,6.172,13.906c4.128,3.125,10.273,4.687,18.438,4.687h12.611
							v0.892c0,4.134-1.361,7.337-4.082,9.596c-2.715,2.259-6.536,3.392-11.452,3.392c-3.125,0-6.172-0.378-9.141-1.126
							c-2.956-0.749-5.801-1.875-8.529-3.379v8.314c3.281,1.27,6.465,2.22,9.564,2.845c3.092,0.638,6.1,0.951,9.03,0.951
							c7.917,0,13.828-2.051,17.734-6.152C314.509,45.75,316.462,39.539,316.462,31.206z"/>
					</g>
				</g>
			</g>
		</g>
		<g id="matplotlib.axis_2">
			<g id="ytick_1">
				<g id="line2d_19">
					<g>
						<defs>
							<rect id="SVGID_19_" x="116.48" y="21.6" width="430.72" height="341.5"/>
						</defs>
						<clipPath id="SVGID_20_">
							<use xlink:href="#SVGID_19_"  overflow="visible"/>
						</clipPath>
						
							<path clip-path="url(#SVGID_20_)" fill="none" stroke="#B0B0B0" stroke-width="0.8" stroke-linecap="square" stroke-linejoin="round" d="
							M116.48,335.522H547.2"/>
					</g>
				</g>
				<g id="line2d_20">
					<g>
						<g>
							<path id="m57bf9c6abf" stroke="#000000" stroke-width="0.8" stroke-linejoin="round" d="M116.48,335.522h-3.5"/>
						</g>
					</g>
				</g>
				<g id="text_11">
					<g transform="translate(99.93625 341.220256)scale(0.15 -0.15)">
						<g>
							<path id="DejaVuSans-35" d="M10.796,72.907h38.721v-8.314H19.829V46.735c1.426,0.488,2.852,0.853,4.281,1.094
								c1.436,0.241,2.874,0.358,4.313,0.358c8.135,0,14.577-2.227,19.326-6.686c4.762-4.46,7.142-10.495,7.142-18.105
								c0-7.852-2.445-13.945-7.327-18.301c-4.886-4.342-11.771-6.517-20.658-6.517c-3.063,0-6.182,0.26-9.359,0.781
								C14.38-0.121,11.105,0.661,7.72,1.702v9.922c2.926-1.589,5.951-2.78,9.076-3.561s6.429-1.172,9.909-1.172
								c5.635,0,10.091,1.478,13.372,4.434c3.294,2.962,4.938,6.979,4.938,12.07c0,5.065-1.644,9.089-4.938,12.044
								c-3.281,2.969-7.738,4.453-13.372,4.453c-2.637,0-5.267-0.293-7.891-0.872c-2.617-0.586-5.286-1.497-8.018-2.734V72.907z"/>
						</g>
					</g>
				</g>
			</g>
			<g id="ytick_2">
				<g id="line2d_21">
					<g>
						<defs>
							<rect id="SVGID_21_" x="116.48" y="21.6" width="430.72" height="341.5"/>
						</defs>
						<clipPath id="SVGID_22_">
							<use xlink:href="#SVGID_21_"  overflow="visible"/>
						</clipPath>
						
							<path clip-path="url(#SVGID_22_)" fill="none" stroke="#B0B0B0" stroke-width="0.8" stroke-linecap="square" stroke-linejoin="round" d="
							M116.48,286.909H547.2"/>
					</g>
				</g>
				<g id="line2d_22">
					<g>
						<g>
							<path id="m57bf9c6abf_1_" stroke="#000000" stroke-width="0.8" stroke-linejoin="round" d="M116.48,286.909h-3.5"/>
						</g>
					</g>
				</g>
				<g id="text_12">
					<g transform="translate(90.3925 292.607976)scale(0.15 -0.15)">
						<g>
							<path id="DejaVuSans-31_4_" d="M12.406,8.297h16.11v55.625l-17.533-3.516v8.984l17.438,3.516h9.86V8.297h16.11V0.003H12.406
								V8.297z"/>
						</g>
						<g>
							<path id="DejaVuSans-30_2_" d="M95.404,66.409c-5.072,0-8.89-2.5-11.452-7.5c-2.552-4.993-3.828-12.5-3.828-22.539
								c0-9.987,1.276-17.48,3.828-22.48c2.562-5,6.38-7.5,11.452-7.5c5.114,0,8.949,2.5,11.501,7.5
								c2.562,5,3.844,12.493,3.844,22.48c0,10.039-1.283,17.546-3.844,22.539C104.353,63.909,100.518,66.409,95.404,66.409z
								 M95.404,74.222c8.177,0,14.421-3.242,18.734-9.707c4.313-6.458,6.468-15.84,6.468-28.145
								c0-12.266-2.155-21.641-6.468-28.105c-4.313-6.458-10.557-9.687-18.734-9.687c-8.167,0-14.408,3.229-18.717,9.687
								c-4.313,6.465-6.471,15.84-6.471,28.105c0,12.305,2.158,21.686,6.471,28.145C80.996,70.98,87.237,74.222,95.404,74.222z"/>
						</g>
					</g>
				</g>
			</g>
			<g id="ytick_3">
				<g id="line2d_23">
					<g>
						<defs>
							<rect id="SVGID_23_" x="116.48" y="21.6" width="430.72" height="341.5"/>
						</defs>
						<clipPath id="SVGID_24_">
							<use xlink:href="#SVGID_23_"  overflow="visible"/>
						</clipPath>
						
							<path clip-path="url(#SVGID_24_)" fill="none" stroke="#B0B0B0" stroke-width="0.8" stroke-linecap="square" stroke-linejoin="round" d="
							M116.48,238.297H547.2"/>
					</g>
				</g>
				<g id="line2d_24">
					<g>
						<g>
							<path id="m57bf9c6abf_2_" stroke="#000000" stroke-width="0.8" stroke-linejoin="round" d="M116.48,238.297h-3.5"/>
						</g>
					</g>
				</g>
				<g id="text_13">
					<g transform="translate(90.3925 243.995697)scale(0.15 -0.15)">
						<g>
							<path id="DejaVuSans-31_5_" d="M12.406,8.298h16.11v55.625l-17.533-3.516v8.984l17.438,3.516h9.86V8.298h16.11v-8.301H12.406
								V8.298z"/>
						</g>
						<g>
							<path id="DejaVuSans-35_1_" d="M74.421,72.907h38.717v-8.314H83.451V46.735c1.426,0.488,2.855,0.853,4.281,1.094
								c1.439,0.241,2.874,0.358,4.313,0.358c8.135,0,14.577-2.227,19.329-6.686c4.759-4.46,7.139-10.495,7.139-18.112
								c0-7.845-2.441-13.939-7.327-18.294c-4.886-4.342-11.771-6.517-20.658-6.517c-3.06,0-6.182,0.26-9.359,0.781
								c-3.167,0.521-6.442,1.302-9.827,2.344v9.922c2.926-1.595,5.954-2.78,9.079-3.561s6.426-1.172,9.906-1.172
								c5.635,0,10.094,1.478,13.376,4.434c3.291,2.962,4.938,6.979,4.938,12.064c0,5.072-1.647,9.089-4.938,12.051
								c-3.281,2.969-7.741,4.453-13.376,4.453c-2.637,0-5.267-0.293-7.891-0.879c-2.614-0.579-5.286-1.491-8.014-2.734V72.907z"/>
						</g>
					</g>
				</g>
			</g>
			<g id="ytick_4">
				<g id="line2d_25">
					<g>
						<defs>
							<rect id="SVGID_25_" x="116.48" y="21.6" width="430.72" height="341.5"/>
						</defs>
						<clipPath id="SVGID_26_">
							<use xlink:href="#SVGID_25_"  overflow="visible"/>
						</clipPath>
						
							<path clip-path="url(#SVGID_26_)" fill="none" stroke="#B0B0B0" stroke-width="0.8" stroke-linecap="square" stroke-linejoin="round" d="
							M116.48,189.685H547.2"/>
					</g>
				</g>
				<g id="line2d_26">
					<g>
						<g>
							<path id="m57bf9c6abf_3_" stroke="#000000" stroke-width="0.8" stroke-linejoin="round" d="M116.48,189.685h-3.5"/>
						</g>
					</g>
				</g>
				<g id="text_14">
					<g transform="translate(90.3925 195.383417)scale(0.15 -0.15)">
						<g>
							<path id="DejaVuSans-32_2_" d="M19.187,8.298H53.61V0H7.328v8.298c3.74,3.874,8.838,9.072,15.296,15.592
								c6.468,6.53,10.531,10.745,12.187,12.64c3.158,3.542,5.361,6.543,6.611,9.001c1.26,2.458,1.888,4.876,1.888,7.249
								c0,3.877-1.357,7.031-4.076,9.469c-2.721,2.448-6.263,3.672-10.625,3.672c-3.096,0-6.361-0.537-9.798-1.608
								c-3.428-1.074-7.093-2.705-10.999-4.893v9.971c3.968,1.592,7.676,2.796,11.123,3.607c3.46,0.814,6.621,1.221,9.486,1.221
								c7.552,0,13.574-1.891,18.063-5.674c4.489-3.77,6.735-8.812,6.735-15.124c0-3.001-0.563-5.843-1.689-8.532
								c-1.113-2.676-3.154-5.837-6.123-9.482c-0.814-0.951-3.402-3.678-7.767-8.19C33.285,22.709,27.136,16.4,19.187,8.298z"/>
						</g>
						<g>
							<path id="DejaVuSans-30_3_" d="M95.404,66.407c-5.072,0-8.89-2.5-11.452-7.5c-2.552-4.99-3.828-12.5-3.828-22.533
								c0-9.99,1.276-17.484,3.828-22.484c2.562-5,6.38-7.5,11.452-7.5c5.114,0,8.949,2.5,11.501,7.5
								c2.562,5,3.844,12.493,3.844,22.484c0,10.033-1.283,17.542-3.844,22.533C104.353,63.907,100.518,66.407,95.404,66.407z
								 M95.404,74.219c8.177,0,14.421-3.236,18.734-9.704c4.313-6.458,6.468-15.84,6.468-28.141
								c0-12.269-2.155-21.641-6.468-28.109c-4.313-6.458-10.557-9.688-18.734-9.688c-8.167,0-14.408,3.229-18.717,9.688
								c-4.313,6.468-6.471,15.84-6.471,28.109c0,12.301,2.158,21.683,6.471,28.141C80.996,70.984,87.237,74.219,95.404,74.219z"/>
						</g>
					</g>
				</g>
			</g>
			<g id="ytick_5">
				<g id="line2d_27">
					<g>
						<defs>
							<rect id="SVGID_27_" x="116.48" y="21.6" width="430.72" height="341.5"/>
						</defs>
						<clipPath id="SVGID_28_">
							<use xlink:href="#SVGID_27_"  overflow="visible"/>
						</clipPath>
						
							<path clip-path="url(#SVGID_28_)" fill="none" stroke="#B0B0B0" stroke-width="0.8" stroke-linecap="square" stroke-linejoin="round" d="
							M116.48,141.072H547.2"/>
					</g>
				</g>
				<g id="line2d_28">
					<g>
						<g>
							<path id="m57bf9c6abf_4_" stroke="#000000" stroke-width="0.8" stroke-linejoin="round" d="M116.48,141.072h-3.5"/>
						</g>
					</g>
				</g>
				<g id="text_15">
					<g transform="translate(90.3925 146.771137)scale(0.15 -0.15)">
						<g>
							<path id="DejaVuSans-32_3_" d="M19.187,8.298H53.61V0H7.328v8.298c3.74,3.874,8.838,9.072,15.296,15.592
								c6.468,6.53,10.531,10.745,12.187,12.64c3.158,3.542,5.361,6.543,6.611,9.001c1.26,2.458,1.888,4.876,1.888,7.249
								c0,3.877-1.357,7.031-4.076,9.469c-2.721,2.448-6.263,3.672-10.625,3.672c-3.096,0-6.361-0.537-9.798-1.608
								c-3.428-1.074-7.093-2.705-10.999-4.893v9.971c3.968,1.592,7.676,2.796,11.123,3.607c3.46,0.814,6.621,1.221,9.486,1.221
								c7.552,0,13.574-1.891,18.063-5.674c4.489-3.77,6.735-8.812,6.735-15.124c0-3.001-0.563-5.843-1.689-8.532
								c-1.113-2.676-3.154-5.837-6.123-9.482c-0.814-0.951-3.402-3.678-7.767-8.19C33.285,22.709,27.136,16.4,19.187,8.298z"/>
						</g>
						<g>
							<path id="DejaVuSans-35_2_" d="M74.421,72.907h38.717v-8.314H83.451V46.736c1.426,0.488,2.855,0.853,4.281,1.094
								c1.439,0.238,2.874,0.358,4.313,0.358c8.135,0,14.577-2.23,19.329-6.686c4.759-4.46,7.139-10.495,7.139-18.112
								c0-7.842-2.441-13.942-7.327-18.294c-4.886-4.346-11.771-6.517-20.658-6.517c-3.06,0-6.182,0.26-9.359,0.781
								c-3.167,0.521-6.442,1.302-9.827,2.344v9.922c2.926-1.595,5.954-2.78,9.079-3.561c3.125-0.781,6.426-1.172,9.906-1.172
								c5.635,0,10.094,1.478,13.376,4.437c3.291,2.959,4.938,6.979,4.938,12.061c0,5.075-1.647,9.089-4.938,12.048
								c-3.281,2.969-7.741,4.453-13.376,4.453c-2.637,0-5.267-0.29-7.891-0.876c-2.614-0.583-5.286-1.494-8.014-2.734V72.907z"/>
						</g>
					</g>
				</g>
			</g>
			<g id="ytick_6">
				<g id="line2d_29">
					<g>
						<defs>
							<rect id="SVGID_29_" x="116.48" y="21.6" width="430.72" height="341.5"/>
						</defs>
						<clipPath id="SVGID_30_">
							<use xlink:href="#SVGID_29_"  overflow="visible"/>
						</clipPath>
						
							<path clip-path="url(#SVGID_30_)" fill="none" stroke="#B0B0B0" stroke-width="0.8" stroke-linecap="square" stroke-linejoin="round" d="
							M116.48,92.46H547.2"/>
					</g>
				</g>
				<g id="line2d_30">
					<g>
						<g>
							<path id="m57bf9c6abf_5_" stroke="#000000" stroke-width="0.8" stroke-linejoin="round" d="M116.48,92.46h-3.5"/>
						</g>
					</g>
				</g>
				<g id="text_16">
					<g transform="translate(90.3925 98.158858)scale(0.15 -0.15)">
						<g>
							<path id="DejaVuSans-33" d="M40.576,39.311c4.72-1.009,8.402-3.112,11.048-6.312c2.656-3.187,3.984-7.126,3.984-11.813
								c0-7.188-2.474-12.754-7.422-16.702c-4.948-3.936-11.979-5.905-21.094-5.905c-3.053,0-6.198,0.303-9.437,0.905
								c-3.239,0.605-6.585,1.51-10.033,2.718v9.518c2.731-1.595,5.719-2.799,8.968-3.61c3.262-0.814,6.667-1.221,10.221-1.221
								c6.175,0,10.885,1.221,14.124,3.659c3.239,2.435,4.86,5.983,4.86,10.638c0,4.303-1.507,7.663-4.518,10.078
								c-3.008,2.428-7.197,3.643-12.562,3.643h-8.499v8.109h8.89c4.844,0,8.551,0.97,11.126,2.907
								c2.572,1.937,3.857,4.73,3.857,8.376c0,3.737-1.328,6.608-3.984,8.607c-2.643,2.012-6.442,3.018-11.39,3.018
								c-2.708,0-5.609-0.296-8.701-0.892c-3.096-0.583-6.497-1.488-10.205-2.718v8.783c3.75,1.042,7.262,1.823,10.531,2.344
								c3.271,0.521,6.354,0.781,9.251,0.781c7.49,0,13.411-1.706,17.767-5.111c4.362-3.395,6.546-7.988,6.546-13.783
								c0-4.04-1.156-7.451-3.47-10.234C48.125,42.312,44.838,40.385,40.576,39.311z"/>
						</g>
						<g>
							<path id="DejaVuSans-30_4_" d="M95.404,66.407c-5.072,0-8.89-2.5-11.452-7.5c-2.552-4.99-3.828-12.5-3.828-22.533
								c0-9.99,1.276-17.484,3.828-22.484c2.562-5,6.38-7.5,11.452-7.5c5.114,0,8.949,2.5,11.501,7.5
								c2.562,5,3.844,12.493,3.844,22.484c0,10.033-1.283,17.542-3.844,22.533C104.353,63.907,100.518,66.407,95.404,66.407z
								 M95.404,74.22c8.177,0,14.421-3.236,18.734-9.704c4.313-6.458,6.468-15.84,6.468-28.141c0-12.272-2.155-21.641-6.468-28.109
								c-4.313-6.458-10.557-9.688-18.734-9.688c-8.167,0-14.408,3.229-18.717,9.688c-4.313,6.468-6.471,15.837-6.471,28.109
								c0,12.301,2.158,21.683,6.471,28.141C80.996,70.984,87.237,74.22,95.404,74.22z"/>
						</g>
					</g>
				</g>
			</g>
			<g id="ytick_7">
				<g id="line2d_31">
					<g>
						<defs>
							<rect id="SVGID_31_" x="116.48" y="21.6" width="430.72" height="341.5"/>
						</defs>
						<clipPath id="SVGID_32_">
							<use xlink:href="#SVGID_31_"  overflow="visible"/>
						</clipPath>
						
							<path clip-path="url(#SVGID_32_)" fill="none" stroke="#B0B0B0" stroke-width="0.8" stroke-linecap="square" stroke-linejoin="round" d="
							M116.48,43.848H547.2"/>
					</g>
				</g>
				<g id="line2d_32">
					<g>
						<g>
							<path id="m57bf9c6abf_6_" stroke="#000000" stroke-width="0.8" stroke-linejoin="round" d="M116.48,43.848h-3.5"/>
						</g>
					</g>
				</g>
				<g id="text_17">
					<g transform="translate(90.3925 49.546578)scale(0.15 -0.15)">
						<g>
							<path id="DejaVuSans-33_1_" d="M40.576,39.311c4.72-1.009,8.402-3.112,11.048-6.312c2.656-3.187,3.984-7.126,3.984-11.813
								c0-7.188-2.474-12.754-7.422-16.702c-4.948-3.936-11.979-5.905-21.094-5.905c-3.053,0-6.198,0.303-9.437,0.905
								c-3.239,0.605-6.585,1.51-10.033,2.718v9.518c2.731-1.595,5.719-2.799,8.968-3.61c3.262-0.814,6.667-1.221,10.221-1.221
								c6.175,0,10.885,1.221,14.124,3.659c3.239,2.435,4.86,5.983,4.86,10.638c0,4.303-1.507,7.663-4.518,10.078
								c-3.008,2.428-7.197,3.643-12.562,3.643h-8.499v8.109h8.89c4.844,0,8.551,0.97,11.126,2.907
								c2.572,1.937,3.857,4.73,3.857,8.376c0,3.737-1.328,6.608-3.984,8.607c-2.643,2.012-6.442,3.018-11.39,3.018
								c-2.708,0-5.609-0.296-8.701-0.892c-3.096-0.583-6.497-1.488-10.205-2.718v8.783c3.75,1.042,7.262,1.823,10.531,2.344
								c3.271,0.521,6.354,0.781,9.251,0.781c7.49,0,13.411-1.706,17.767-5.111c4.362-3.395,6.546-7.988,6.546-13.783
								c0-4.04-1.156-7.451-3.47-10.234C48.125,42.312,44.838,40.385,40.576,39.311z"/>
						</g>
						<g>
							<path id="DejaVuSans-35_3_" d="M74.421,72.904h38.717v-8.311H83.451V46.733c1.426,0.492,2.855,0.856,4.281,1.094
								c1.439,0.241,2.874,0.361,4.313,0.361c8.135,0,14.577-2.23,19.329-6.689c4.759-4.456,7.139-10.495,7.139-18.109
								c0-7.842-2.441-13.942-7.327-18.298c-4.886-4.342-11.771-6.514-20.658-6.514c-3.06,0-6.182,0.26-9.359,0.781
								c-3.167,0.521-6.442,1.302-9.827,2.344v9.922c2.926-1.595,5.954-2.783,9.079-3.564s6.426-1.172,9.906-1.172
								c5.635,0,10.094,1.481,13.376,4.44c3.291,2.956,4.938,6.979,4.938,12.061c0,5.075-1.647,9.089-4.938,12.048
								c-3.281,2.969-7.741,4.453-13.376,4.453c-2.637,0-5.267-0.293-7.891-0.876c-2.614-0.583-5.286-1.494-8.014-2.734V72.904z"/>
						</g>
					</g>
				</g>
			</g>
			<g id="text_18">
				<g transform="translate(83.272969 216.208203)rotate(-90)scale(0.15 -0.15)">
					<g>
						<path id="DejaVuSans-59" d="M-0.204,72.907h10.609L30.61,42.924l20.078,29.984H61.28L35.499,34.72V0h-9.906v34.72
							L-0.204,72.907z"/>
					</g>
					<g>
						<path id="DejaVuSans-20_1_" d="M61.085,0"/>
					</g>
					<g>
						<path id="DejaVuSans-64_1_" d="M138.276,46.39v29.593h8.984V0h-8.984v8.203c-1.885-3.249-4.271-5.667-7.155-7.249
							c-2.874-1.585-6.335-2.376-10.374-2.376c-6.605,0-11.986,2.637-16.143,7.907c-4.144,5.28-6.217,12.22-6.217,20.814
							s2.074,15.524,6.217,20.794c4.157,5.273,9.538,7.907,16.143,7.907c4.04,0,7.5-0.791,10.374-2.373
							C134.005,52.051,136.391,49.642,138.276,46.39z M107.667,27.299c0-6.605,1.361-11.787,4.079-15.547
							c2.718-3.763,6.452-5.641,11.204-5.641c4.749,0,8.49,1.878,11.217,5.641c2.741,3.76,4.108,8.942,4.108,15.547
							c0,6.602-1.367,11.784-4.108,15.547c-2.728,3.76-6.468,5.638-11.217,5.638c-4.753,0-8.486-1.878-11.204-5.638
							C109.028,39.082,107.667,33.9,107.667,27.299z"/>
					</g>
					<g>
						<path id="DejaVuSans-61_2_" d="M190.629,27.484c-7.262,0-12.292-0.827-15.094-2.484s-4.202-4.489-4.202-8.499
							c0-3.187,1.051-5.719,3.154-7.594c2.106-1.865,4.961-2.796,8.564-2.796c4.99,0,8.988,1.764,11.999,5.296
							c3.011,3.532,4.515,8.223,4.515,14.079v1.999H190.629z M208.549,31.205V0h-8.984v8.298c-2.051-3.314-4.609-5.762-7.669-7.344
							c-3.063-1.585-6.81-2.376-11.237-2.376c-5.592,0-10.046,1.572-13.359,4.72c-3.301,3.145-4.951,7.354-4.951,12.624
							c0,6.146,2.057,10.781,6.172,13.906c4.124,3.125,10.27,4.687,18.438,4.687h12.607v0.892c0,4.134-1.357,7.334-4.076,9.593
							c-2.721,2.259-6.536,3.392-11.455,3.392c-3.125,0-6.172-0.378-9.141-1.126c-2.959-0.749-5.801-1.875-8.532-3.376v8.314
							c3.281,1.27,6.471,2.217,9.564,2.842c3.092,0.638,6.104,0.954,9.03,0.954c7.917,0,13.828-2.051,17.734-6.156
							C206.596,45.749,208.549,39.538,208.549,31.205z"/>
					</g>
					<g>
						<path id="DejaVuSans-74_1_" d="M235.939,70.218V54.688h18.499v-6.986h-18.499V18.015c0-4.456,0.609-7.321,1.829-8.594
							c1.217-1.27,3.701-1.904,7.451-1.904h9.219V0h-9.219c-6.937,0-11.722,1.292-14.359,3.874
							c-2.633,2.594-3.952,7.308-3.952,14.141v29.687h-6.595v6.986h6.595v15.531H235.939z"/>
					</g>
					<g>
						<path id="DejaVuSans-61_3_" d="M291.118,27.484c-7.262,0-12.292-0.827-15.094-2.484s-4.202-4.489-4.202-8.499
							c0-3.187,1.051-5.719,3.154-7.594c2.106-1.865,4.961-2.796,8.564-2.796c4.99,0,8.988,1.764,11.999,5.296
							c3.011,3.532,4.515,8.223,4.515,14.079v1.999H291.118z M309.037,31.205V0h-8.984v8.298c-2.051-3.314-4.609-5.762-7.669-7.344
							c-3.063-1.585-6.81-2.376-11.237-2.376c-5.592,0-10.046,1.572-13.359,4.72c-3.301,3.145-4.951,7.354-4.951,12.624
							c0,6.146,2.057,10.781,6.172,13.906c4.124,3.125,10.27,4.687,18.438,4.687h12.607v0.892c0,4.134-1.357,7.334-4.076,9.593
							c-2.721,2.259-6.536,3.392-11.455,3.392c-3.125,0-6.172-0.378-9.141-1.126c-2.959-0.749-5.801-1.875-8.532-3.376v8.314
							c3.281,1.27,6.471,2.217,9.564,2.842c3.092,0.638,6.104,0.954,9.03,0.954c7.917,0,13.828-2.051,17.734-6.156
							C307.084,45.749,309.037,39.538,309.037,31.205z"/>
					</g>
				</g>
			</g>
		</g>
		<g id="line2d_33">
			<g>
				<defs>
					<rect id="SVGID_33_" x="116.48" y="21.6" width="430.72" height="341.5"/>
				</defs>
				<clipPath id="SVGID_34_">
					<use xlink:href="#SVGID_33_"  overflow="visible"/>
				</clipPath>
				<g clip-path="url(#SVGID_34_)">
					<g>
						<path id="me114effa25" stroke="#000000" stroke-linejoin="round" d="M153.856,335.077c0.398,0,0.779-0.158,1.061-0.439
							s0.439-0.663,0.439-1.061s-0.158-0.78-0.439-1.062s-0.663-0.438-1.061-0.438s-0.779,0.157-1.061,0.438
							s-0.439,0.664-0.439,1.062s0.158,0.779,0.439,1.061S153.458,335.077,153.856,335.077z"/>
					</g>
					<g>
						<path id="me114effa25_1_" stroke="#000000" stroke-linejoin="round" d="M237.325,263.131c0.398,0,0.779-0.158,1.061-0.439
							s0.439-0.663,0.439-1.061c0-0.398-0.158-0.779-0.439-1.061s-0.663-0.439-1.061-0.439s-0.779,0.158-1.061,0.439
							s-0.439,0.662-0.439,1.061c0,0.397,0.158,0.779,0.439,1.061S236.927,263.131,237.325,263.131z"/>
					</g>
					<g>
						<path id="me114effa25_2_" stroke="#000000" stroke-linejoin="round" d="M323.248,191.185c0.397,0,0.779-0.158,1.061-0.439
							s0.439-0.663,0.439-1.061s-0.158-0.779-0.439-1.061s-0.663-0.439-1.061-0.439c-0.398,0-0.779,0.158-1.061,0.439
							c-0.282,0.281-0.439,0.663-0.439,1.061s0.157,0.779,0.439,1.061C322.469,191.026,322.85,191.185,323.248,191.185z"/>
					</g>
					<g>
						<path id="me114effa25_3_" stroke="#000000" stroke-linejoin="round" d="M372.347,162.017c0.397,0,0.779-0.158,1.061-0.439
							c0.281-0.282,0.439-0.663,0.439-1.061c0-0.397-0.158-0.779-0.439-1.061s-0.663-0.439-1.061-0.439s-0.779,0.158-1.061,0.439
							s-0.439,0.663-0.439,1.061c0,0.398,0.158,0.779,0.439,1.061C371.567,161.859,371.949,162.017,372.347,162.017z"/>
					</g>
					<g>
						<path id="me114effa25_4_" stroke="#000000" stroke-linejoin="round" d="M509.823,55.07c0.398,0,0.779-0.158,1.061-0.439
							s0.439-0.663,0.439-1.061c0-0.398-0.158-0.779-0.439-1.061c-0.281-0.282-0.662-0.439-1.061-0.439
							c-0.397,0-0.779,0.158-1.061,0.439c-0.281,0.281-0.439,0.663-0.439,1.061c0,0.397,0.158,0.779,0.439,1.061
							S509.426,55.07,509.823,55.07z"/>
					</g>
				</g>
			</g>
		</g>
		<g id="line2d_34">
			<g>
				<defs>
					<rect id="SVGID_35_" x="116.48" y="21.6" width="430.72" height="341.5"/>
				</defs>
				<clipPath id="SVGID_36_">
					<use xlink:href="#SVGID_35_"  overflow="visible"/>
				</clipPath>
				
					<path clip-path="url(#SVGID_36_)" fill="none" stroke="#000000" stroke-width="1.5" stroke-linecap="square" stroke-linejoin="round" d="
					M136.058,342.924L527.607,37.123l0,0"/>
			</g>
		</g>
		<g id="patch_2">
			<path fill="none" stroke="#000000" stroke-width="0.8" stroke-linecap="square" d="M116.48,363.1V21.6"/>
		</g>
		<g id="patch_3">
			<path fill="none" stroke="#000000" stroke-width="0.8" stroke-linecap="square" d="M547.2,363.1V21.6"/>
		</g>
		<g id="patch_4">
			<path fill="none" stroke="#000000" stroke-width="0.8" stroke-linecap="square" d="M116.48,363.1H547.2"/>
		</g>
		<g id="patch_5">
			<path fill="none" stroke="#000000" stroke-width="0.8" stroke-linecap="square" d="M116.48,21.6H547.2"/>
		</g>
		<g id="text_19">
			<g transform="translate(562.273058 60.692518)rotate(-90)scale(0.0579 -0.0579)">
				<g>
					<path id="DejaVuSansMono-7a" d="M11.074,54.777h39.703V46.58L19.389,7.332h31.388v-7.337H9.902v8.298l31.405,39.315H11.074
						V54.777z"/>
				</g>
				<g>
					<path id="DejaVuSansMono-75" d="M69.718,20.707v33.885h8.99V20.707c0-4.925,0.869-8.534,2.606-10.845
						c1.754-2.311,4.453-3.474,8.096-3.474c4.225,0,7.463,1.501,9.698,4.47c2.252,2.985,3.373,7.253,3.373,12.835v30.899h9.04
						V-0.005h-9.04v8.214c-1.585-3.154-3.761-5.549-6.51-7.185c-2.749-1.636-5.962-2.446-9.639-2.446
						c-5.608,0-9.774,1.838-12.515,5.498C71.085,7.753,69.718,13.285,69.718,20.707z"/>
				</g>
				<g>
					<path id="DejaVuSansMono-6e" d="M171.718,33.896V-0.005h-9.023v33.901c0,4.908-0.869,8.518-2.597,10.828
						c-1.72,2.311-4.419,3.458-8.096,3.458c-4.2,0-7.43-1.484-9.698-4.47c-2.26-2.968-3.39-7.236-3.39-12.802V-0.005h-8.99v54.698
						h8.99v-8.214c1.602,3.137,3.77,5.498,6.494,7.101c2.741,1.619,5.979,2.429,9.723,2.429c5.557,0,9.715-1.838,12.464-5.515
						C170.343,46.849,171.718,41.3,171.718,33.896z"/>
				</g>
				<g>
					<path id="DejaVuSansMono-7a_1_" d="M191.696,54.777h39.703V46.58L200.003,7.332h31.397v-7.337h-40.876v8.298l31.405,39.315
						h-30.233V54.777z"/>
				</g>
				<g>
					<path id="DejaVuSansMono-75_1_" d="M250.332,20.707v33.885h8.99V20.707c0-4.925,0.869-8.534,2.606-10.845
						c1.754-2.311,4.453-3.474,8.096-3.474c4.225,0,7.463,1.501,9.707,4.47c2.243,2.985,3.373,7.253,3.373,12.835v30.899h9.032
						V-0.005h-9.032v8.214c-1.594-3.154-3.77-5.549-6.519-7.185c-2.749-1.636-5.962-2.446-9.639-2.446
						c-5.608,0-9.774,1.838-12.515,5.498C251.698,7.753,250.332,13.285,250.332,20.707z"/>
				</g>
				<g>
					<path id="DejaVuSansMono-6e_1_" d="M352.34,33.896V-0.005h-9.032v33.901c0,4.908-0.869,8.518-2.597,10.828
						c-1.72,2.311-4.411,3.458-8.087,3.458c-4.2,0-7.438-1.484-9.707-4.47c-2.26-2.968-3.39-7.236-3.39-12.802V-0.005h-8.981v54.698
						h8.981v-8.214c1.602,3.137,3.77,5.498,6.502,7.101c2.732,1.619,5.979,2.429,9.715,2.429c5.566,0,9.715-1.838,12.473-5.515
						C350.965,46.849,352.34,41.3,352.34,33.896z"/>
				</g>
				<g>
					<path id="DejaVuSansMono-73" d="M408.741,52.786v-8.787c-2.572,1.484-5.161,2.614-7.759,3.356
						c-2.606,0.759-5.262,1.13-7.969,1.13c-4.065,0-7.101-0.658-9.116-1.99c-1.999-1.299-2.994-3.306-2.994-6.004
						c0-2.446,0.751-4.284,2.252-5.482c1.501-1.214,5.229-2.378,11.182-3.508l3.609-0.692c4.461-0.843,7.834-2.53,10.128-5.077
						c2.302-2.547,3.449-5.836,3.449-9.901c0-5.414-1.923-9.631-5.76-12.684c-3.846-3.053-9.184-4.571-16.015-4.571
						c-2.699,0-5.532,0.287-8.501,0.86c-2.96,0.573-6.165,1.434-9.614,2.564v9.277c3.356-1.72,6.561-3.019,9.614-3.879
						c3.061-0.86,5.962-1.282,8.703-1.282c3.964,0,7.042,0.793,9.217,2.395c2.184,1.619,3.28,3.879,3.28,6.763
						c0,4.166-3.989,7.05-11.967,8.652l-0.396,0.101l-3.373,0.675c-5.178,1.012-8.956,2.715-11.326,5.111
						c-2.378,2.395-3.567,5.65-3.567,9.782c0,5.245,1.771,9.293,5.313,12.144c3.559,2.834,8.619,4.267,15.205,4.267
						c2.926,0,5.743-0.27,8.442-0.826C403.487,54.659,406.143,53.849,408.741,52.786z"/>
				</g>
				<g>
					<path id="DejaVuSansMono-69" d="M433.939,54.692h22.997V6.977h17.828v-6.983h-44.645v6.983h17.836V47.71h-14.016V54.692z
						 M447.955,75.978h8.981V64.593h-8.981V75.978z"/>
				</g>
				<g>
					<path id="DejaVuSansMono-74" d="M511.626,70.226V54.692h20.408V47.71h-20.408V18.008c0-4.014,0.759-6.848,2.294-8.45
						c1.535-1.585,4.2-2.378,8.003-2.378h10.111v-7.185h-10.988c-6.738,0-11.494,1.349-14.269,4.048
						c-2.758,2.715-4.141,7.371-4.141,13.965V47.71H488.03v6.983h14.606v15.534H511.626z"/>
				</g>
				<g>
					<path id="DejaVuSansMono-65" d="M596.143,29.595V25.21h-38.928v-0.304c0-5.954,1.56-10.575,4.664-13.83
						c3.112-3.255,7.506-4.874,13.173-4.874c2.859,0,5.853,0.455,8.981,1.366c3.12,0.911,6.46,2.294,10.019,4.149V2.778
						c-3.424-1.383-6.713-2.446-9.892-3.137c-3.179-0.708-6.249-1.063-9.201-1.063c-8.501,0-15.146,2.547-19.945,7.64
						c-4.782,5.111-7.168,12.127-7.168,21.083c0,8.72,2.344,15.686,7.033,20.881c4.68,5.212,10.938,7.826,18.747,7.826
						c6.966,0,12.464-2.361,16.487-7.084S596.143,37.758,596.143,29.595z M587.153,32.243c-0.118,5.262-1.366,9.277-3.727,12.026
						c-2.37,2.749-5.76,4.115-10.187,4.115c-4.326,0-7.885-1.417-10.693-4.284c-2.8-2.867-4.461-6.848-4.984-11.925L587.153,32.243z
						"/>
				</g>
				<g>
					<path id="DejaVuSansMono-33" d="M639.945,39.023c4.773-1.282,8.442-3.525,10.98-6.78c2.547-3.238,3.812-7.269,3.812-12.11
						c0-6.713-2.252-11.992-6.763-15.821c-4.512-3.829-10.752-5.735-18.722-5.735c-3.356,0-6.772,0.32-10.263,0.945
						c-3.483,0.607-6.898,1.501-10.246,2.682v9.816c3.323-1.737,6.586-3.019,9.808-3.862c3.23-0.843,6.435-1.265,9.622-1.265
						c5.414,0,9.563,1.214,12.456,3.66c2.893,2.429,4.343,5.954,4.343,10.541c0,4.233-1.451,7.59-4.343,10.086
						c-2.893,2.479-6.814,3.727-11.764,3.727h-7.531v8.113h7.531c4.52,0,8.054,0.978,10.592,2.968
						c2.547,1.99,3.812,4.756,3.812,8.315c0,3.727-1.181,6.595-3.542,8.602c-2.37,2.007-5.726,3.019-10.086,3.019
						c-2.893,0-5.886-0.337-8.981-0.995c-3.095-0.641-6.333-1.619-9.715-2.918v9.091c3.938,1.029,7.438,1.822,10.516,2.328
						c3.078,0.523,5.81,0.793,8.18,0.793c7.101,0,12.768-1.788,17.018-5.347c4.25-3.559,6.375-8.298,6.375-14.185
						c0-3.997-1.122-7.337-3.356-10.019C647.451,42.009,644.204,40.12,639.945,39.023z"/>
				</g>
			</g>
		</g>
	</g>
</g>
</svg>
