<?xml version="1.0" encoding="utf-8"?>
<!-- Generator: Adobe Illustrator 15.0.0, SVG Export Plug-In . SVG Version: 6.00 Build 0)  -->
<!DOCTYPE svg PUBLIC "-//W3C//DTD SVG 1.0//EN" "http://www.w3.org/TR/2001/REC-SVG-20010904/DTD/svg10.dtd">
<svg version="1.0" id="Layer_1" xmlns="http://www.w3.org/2000/svg" xmlns:xlink="http://www.w3.org/1999/xlink" x="0px" y="0px"
	 width="257.952px" height="235.276px" viewBox="0 0 257.952 235.276" enable-background="new 0 0 257.952 235.276"
	 xml:space="preserve">
<rect x="73.96" y="58.135" fill="#E9E8F4" stroke="#231F20" stroke-width="2" stroke-miterlimit="10" width="113.384" height="113.384"/>
<text transform="matrix(1 0 0 1 96.4307 121.8911)" fill="#231F20" font-family="'MyriadPro-Regular'" font-size="20.2352">MSGEQ7</text>
<line fill="none" stroke="#231F20" stroke-miterlimit="10" x1="130.651" y1="223.937" x2="130.651" y2="172.914"/>
<line fill="none" stroke="#231F20" stroke-miterlimit="10" x1="164.669" y1="223.938" x2="164.669" y2="206.93"/>
<line fill="none" stroke="#231F20" stroke-miterlimit="10" x1="164.669" y1="201.259" x2="164.669" y2="171.52"/>
<line fill="none" stroke="#231F20" stroke-miterlimit="10" x1="96.638" y1="201.259" x2="96.638" y2="172.914"/>
<line fill="none" stroke="#231F20" stroke-miterlimit="10" x1="130.651" y1="58.134" x2="130.651" y2="2.834"/>
<line fill="none" stroke="#1BAAE9" stroke-miterlimit="10" x1="2.834" y1="80.811" x2="31.181" y2="80.811"/>
<g>
	<g>
		<line fill="none" stroke="#1BAAE9" stroke-miterlimit="10" x1="36.85" y1="80.813" x2="72.876" y2="80.813"/>
		<g>
			<polygon fill="#1BAAE9" points="69.563,84.902 68.88,84.17 72.492,80.813 68.88,77.456 69.563,76.724 73.96,80.813 			"/>
		</g>
	</g>
</g>
<line fill="none" stroke="#1BAAE9" stroke-miterlimit="10" x1="187.086" y1="116.221" x2="212.599" y2="116.221"/>
<line fill="none" stroke="#231F20" stroke-miterlimit="10" x1="164.668" y1="188.528" x2="184.252" y2="188.528"/>
<line fill="none" stroke="#231F20" stroke-miterlimit="10" x1="218.268" y1="188.528" x2="235.276" y2="188.528"/>
<line fill="none" stroke="#231F20" stroke-miterlimit="10" x1="130.394" y1="17.008" x2="153.071" y2="17.008"/>
<line fill="none" stroke="#1BAAE9" stroke-width="2" stroke-miterlimit="10" x1="31.181" y1="72.307" x2="31.181" y2="89.315"/>
<line fill="none" stroke="#1BAAE9" stroke-width="2" stroke-miterlimit="10" x1="36.85" y1="72.307" x2="36.85" y2="89.315"/>
<g>
	<line fill="none" stroke="#231F20" stroke-width="2" stroke-miterlimit="10" x1="156.165" y1="206.93" x2="173.173" y2="206.93"/>
	<line fill="none" stroke="#231F20" stroke-width="2" stroke-miterlimit="10" x1="156.165" y1="201.26" x2="173.173" y2="201.26"/>
</g>
<g>
	<line fill="none" stroke="#231F20" stroke-width="2" stroke-miterlimit="10" x1="88.134" y1="206.929" x2="105.141" y2="206.929"/>
	<line fill="none" stroke="#231F20" stroke-width="2" stroke-miterlimit="10" x1="88.134" y1="201.259" x2="105.141" y2="201.259"/>
</g>
<polygon fill="none" stroke="#231F20" stroke-miterlimit="10" points="136.323,223.937 130.653,232.441 124.984,223.937 "/>
<polygon fill="none" stroke="#231F20" stroke-miterlimit="10" points="170.339,223.937 164.669,232.441 159,223.937 "/>
<line fill="none" stroke="#231F20" stroke-miterlimit="10" x1="153.331" y1="39.685" x2="153.331" y2="31.181"/>
<line fill="none" stroke="#231F20" stroke-miterlimit="10" x1="153.331" y1="25.51" x2="153.331" y2="17.007"/>
<g>
	<line fill="none" stroke="#231F20" stroke-width="2" stroke-miterlimit="10" x1="144.828" y1="31.182" x2="161.835" y2="31.182"/>
	<line fill="none" stroke="#231F20" stroke-width="2" stroke-miterlimit="10" x1="144.828" y1="25.512" x2="161.835" y2="25.512"/>
</g>
<polygon fill="none" stroke="#231F20" stroke-miterlimit="10" points="159,39.686 153.331,48.189 147.662,39.686 "/>
<line fill="none" stroke="#231F20" stroke-miterlimit="10" x1="96.637" y1="223.937" x2="96.637" y2="206.929"/>
<polygon fill="none" stroke="#231F20" stroke-miterlimit="10" points="102.307,223.937 96.637,232.441 90.968,223.937 "/>
<line fill="none" stroke="#231F20" stroke-width="2" stroke-miterlimit="10" x1="124.984" y1="2.834" x2="136.323" y2="2.834"/>
<line fill="none" stroke="#231F20" stroke-miterlimit="10" x1="235.274" y1="188.528" x2="235.274" y2="174.354"/>
<line fill="none" stroke="#231F20" stroke-width="2" stroke-miterlimit="10" x1="229.606" y1="174.354" x2="240.946" y2="174.354"/>
<polyline fill="none" stroke="#231F20" stroke-width="2" stroke-miterlimit="10" points="218.268,188.528 215.434,194.198 
	209.764,182.858 204.095,194.198 198.426,182.858 192.756,194.198 187.087,182.858 184.252,188.528 "/>
<line fill="none" stroke="#01A6EB" stroke-miterlimit="10" x1="59.528" y1="116.22" x2="73.702" y2="116.22"/>
<text transform="matrix(1 0 0 1 5.6685 119.0552)" fill="#01A6EB" font-family="'MyriadPro-Regular'" font-size="8">EQ7_STROBE</text>
<polygon fill="none" stroke="#01A6EB" stroke-width="0.5" stroke-miterlimit="10" points="59.528,116.22 56.694,110.551 
	2.834,110.551 2.834,121.888 56.694,121.888 "/>
<text transform="matrix(1 0 0 1 215.4326 119.0552)" fill="#01A6EB" font-family="'MyriadPro-Regular'" font-size="8">EQ7_OUT</text>
<polygon fill="none" stroke="#01A6EB" stroke-width="0.5" stroke-miterlimit="10" points="255.118,116.22 252.284,110.551 
	212.599,110.551 212.599,121.888 252.284,121.888 "/>
<line fill="none" stroke="#01A6EB" stroke-miterlimit="10" x1="59.528" y1="150.237" x2="73.702" y2="150.237"/>
<text transform="matrix(1 0 0 1 5.6685 153.0708)" fill="#01A6EB" font-family="'MyriadPro-Regular'" font-size="8">EQ7_RESET</text>
<polygon fill="none" stroke="#01A6EB" stroke-width="0.5" stroke-miterlimit="10" points="59.528,150.237 56.694,144.567 
	2.834,144.567 2.834,155.905 56.694,155.905 "/>
</svg>
