<?xml version="1.0" encoding="utf-8"?>
<!-- Generator: Adobe Illustrator 15.0.0, SVG Export Plug-In . SVG Version: 6.00 Build 0)  -->
<!DOCTYPE svg PUBLIC "-//W3C//DTD SVG 1.0//EN" "http://www.w3.org/TR/2001/REC-SVG-20010904/DTD/svg10.dtd">
<svg version="1.0" id="Layer_1" xmlns="http://www.w3.org/2000/svg" xmlns:xlink="http://www.w3.org/1999/xlink" x="0px" y="0px"
	 width="121.89px" height="99.212px" viewBox="0 0 121.89 99.212" enable-background="new 0 0 121.89 99.212" xml:space="preserve">
<rect x="4.063" y="2.269" fill="#E9E8F4" stroke="#231F20" stroke-width="2" stroke-miterlimit="10" width="96.377" height="94.853"/>
<text transform="matrix(1 0 0 1 26.0107 41.9526)"><tspan x="0" y="0" fill="#231F20" font-family="'MyriadPro-Regular'" font-size="14">BICOLOR </tspan><tspan x="14.833" y="16.8" fill="#231F20" font-family="'MyriadPro-Regular'" font-size="14">LED </tspan><tspan x="3.416" y="33.6" fill="#231F20" font-family="'MyriadPro-Regular'" font-size="14">MATRIX</tspan></text>
<g>
	<g>
		<rect x="91.936" y="69.59" fill="#329F57" width="3.543" height="3.543"/>
		<rect x="95.479" y="69.59" fill="#329F57" width="3.543" height="3.543"/>
		<rect x="99.022" y="69.59" fill="#329F57" width="3.543" height="3.543"/>
		<rect x="102.565" y="69.59" fill="#329F57" width="3.543" height="3.544"/>
		<rect x="106.108" y="69.59" fill="#329F57" width="3.543" height="3.543"/>
		<rect x="109.651" y="69.59" fill="#329F57" width="3.543" height="3.543"/>
		<rect x="113.195" y="69.59" fill="#329F57" width="3.543" height="3.543"/>
		<rect x="116.738" y="69.59" fill="#329F57" width="3.543" height="3.544"/>
		<rect x="91.936" y="66.046" fill="#329F57" width="3.543" height="3.544"/>
		<rect x="95.479" y="66.046" fill="#329F57" width="3.543" height="3.544"/>
		<rect x="99.022" y="66.046" fill="#FFFFFF" width="3.543" height="3.544"/>
		<rect x="102.565" y="66.047" fill="#329F57" width="3.543" height="3.544"/>
		<rect x="106.108" y="66.046" fill="#329F57" width="3.543" height="3.544"/>
		<rect x="109.651" y="66.046" fill="#329F57" width="3.543" height="3.544"/>
		<rect x="113.195" y="66.046" fill="#329F57" width="3.543" height="3.544"/>
		<rect x="116.738" y="66.047" fill="#329F57" width="3.543" height="3.544"/>
		<rect x="91.936" y="62.503" fill="#329F57" width="3.543" height="3.543"/>
		<rect x="95.479" y="62.503" fill="#FFFFFF" width="3.543" height="3.543"/>
		<rect x="99.022" y="62.503" fill="#FFFFFF" width="3.543" height="3.543"/>
		<rect x="102.565" y="62.503" fill="#329F57" width="3.543" height="3.544"/>
		<rect x="106.108" y="62.503" fill="#FFFFFF" width="3.543" height="3.543"/>
		<rect x="109.651" y="62.503" fill="#329F57" width="3.543" height="3.543"/>
		<rect x="113.195" y="62.503" fill="#329F57" width="3.543" height="3.543"/>
		<rect x="116.738" y="62.503" fill="#FFFFFF" width="3.543" height="3.544"/>
		<rect x="91.936" y="58.96" fill="#329F57" width="3.543" height="3.543"/>
		<rect x="95.479" y="58.96" fill="#FFFFFF" width="3.543" height="3.543"/>
		<rect x="99.022" y="58.96" fill="#FFFFFF" width="3.543" height="3.543"/>
		<rect x="102.565" y="58.96" fill="#FFFFFF" width="3.543" height="3.544"/>
		<rect x="106.108" y="58.96" fill="#FFFFFF" width="3.543" height="3.543"/>
		<rect x="109.651" y="58.96" fill="#329F57" width="3.543" height="3.543"/>
		<rect x="113.195" y="58.96" fill="#329F57" width="3.543" height="3.543"/>
		<rect x="116.738" y="58.96" fill="#FFFFFF" width="3.543" height="3.544"/>
		<rect x="91.936" y="55.417" fill="#FDF139" width="3.543" height="3.543"/>
		<rect x="95.479" y="55.417" fill="#FFFFFF" width="3.543" height="3.543"/>
		<rect x="99.022" y="55.417" fill="#FFFFFF" width="3.543" height="3.543"/>
		<rect x="102.565" y="55.417" fill="#FDF139" width="3.543" height="3.543"/>
		<rect x="106.108" y="55.417" fill="#FFFFFF" width="3.543" height="3.543"/>
		<rect x="109.651" y="55.417" fill="#FDF139" width="3.543" height="3.543"/>
		<rect x="113.195" y="55.417" fill="#FDF139" width="3.543" height="3.543"/>
		<rect x="116.738" y="55.417" fill="#FFFFFF" width="3.543" height="3.543"/>
		<rect x="91.936" y="51.875" fill="#FDF139" width="3.543" height="3.543"/>
		<rect x="95.479" y="51.875" fill="#FFFFFF" width="3.543" height="3.543"/>
		<rect x="99.022" y="51.875" fill="#FFFFFF" width="3.543" height="3.543"/>
		<rect x="102.565" y="51.875" fill="#FFFFFF" width="3.543" height="3.543"/>
		<rect x="106.108" y="51.875" fill="#FFFFFF" width="3.543" height="3.543"/>
		<rect x="109.651" y="51.875" fill="#FFFFFF" width="3.543" height="3.543"/>
		<rect x="113.195" y="51.875" fill="#FDF139" width="3.543" height="3.543"/>
		<rect x="116.738" y="51.875" fill="#FDF139" width="3.543" height="3.543"/>
		<rect x="91.936" y="48.331" fill="#FFFFFF" width="3.543" height="3.544"/>
		<rect x="95.479" y="48.331" fill="#FFFFFF" width="3.543" height="3.544"/>
		<rect x="99.022" y="48.331" fill="#FFFFFF" width="3.543" height="3.544"/>
		<rect x="102.565" y="48.332" fill="#FFFFFF" width="3.543" height="3.543"/>
		<rect x="106.108" y="48.331" fill="#FFFFFF" width="3.543" height="3.544"/>
		<rect x="109.651" y="48.331" fill="#FFFFFF" width="3.543" height="3.544"/>
		<rect x="113.195" y="48.331" fill="#CB443A" width="3.543" height="3.544"/>
		<rect x="116.738" y="48.332" fill="#FFFFFF" width="3.543" height="3.543"/>
		<rect x="91.936" y="44.788" fill="#CB443A" width="3.543" height="3.544"/>
		<rect x="95.479" y="44.788" fill="#FFFFFF" width="3.543" height="3.544"/>
		<rect x="99.022" y="44.788" fill="#FFFFFF" width="3.543" height="3.544"/>
		<rect x="102.565" y="44.788" fill="#FFFFFF" width="3.543" height="3.544"/>
		<rect x="106.108" y="44.788" fill="#FFFFFF" width="3.543" height="3.544"/>
		<rect x="109.651" y="44.788" fill="#FFFFFF" width="3.543" height="3.544"/>
		<rect x="113.195" y="44.788" fill="#FFFFFF" width="3.543" height="3.544"/>
		<rect x="116.738" y="44.788" fill="#FFFFFF" width="3.543" height="3.544"/>
	</g>
	<rect x="91.936" y="44.788" fill="none" stroke="#231F20" stroke-miterlimit="10" width="28.346" height="28.347"/>
</g>
</svg>
