<?xml version="1.0" encoding="utf-8"?>
<!-- Generator: Adobe Illustrator 15.0.0, SVG Export Plug-In . SVG Version: 6.00 Build 0)  -->
<!DOCTYPE svg PUBLIC "-//W3C//DTD SVG 1.0//EN" "http://www.w3.org/TR/2001/REC-SVG-20010904/DTD/svg10.dtd">
<svg version="1.0" id="Layer_1" xmlns="http://www.w3.org/2000/svg" xmlns:xlink="http://www.w3.org/1999/xlink" x="0px" y="0px"
	 width="198.425px" height="147.402px" viewBox="0 0 198.425 147.402" enable-background="new 0 0 198.425 147.402"
	 xml:space="preserve">
<line fill="none" stroke="#DB8D34" stroke-miterlimit="10" x1="95.179" y1="103.543" x2="140.535" y2="103.543"/>
<text transform="matrix(1 0 0 1 143.3691 106.3784)" fill="#DB8D34" font-family="'MyriadPro-Regular'" font-size="8">IR_DETECTOR</text>
<polygon fill="none" stroke="#DB8D34" stroke-width="0.5" stroke-miterlimit="10" points="197.229,103.542 194.395,97.875 
	140.535,97.875 140.535,109.212 194.395,109.212 "/>
<g>
	<polygon fill="#231F20" stroke="#231F20" stroke-width="2" stroke-miterlimit="10" points="127.188,72.361 110.18,72.361 
		118.684,83.701 	"/>
	
		<line fill="#231F20" stroke="#231F20" stroke-width="2" stroke-miterlimit="10" x1="130.022" y1="86.535" x2="107.346" y2="86.535"/>
</g>
<g>
	<g>
		<line fill="none" stroke="#231F20" stroke-miterlimit="10" x1="132.857" y1="72.361" x2="139.662" y2="77.387"/>
		<g>
			<polygon fill="#231F20" points="134.568,78.708 134.454,77.714 139.354,77.16 138.442,72.314 139.426,72.129 140.535,78.033 			
				"/>
		</g>
	</g>
</g>
<g>
	<g>
		<line fill="none" stroke="#231F20" stroke-miterlimit="10" x1="132.857" y1="80.865" x2="139.662" y2="85.891"/>
		<g>
			<polygon fill="#231F20" points="134.568,87.212 134.454,86.218 139.354,85.664 138.442,80.818 139.426,80.633 140.535,86.537 			
				"/>
		</g>
	</g>
</g>
<polyline fill="none" stroke="#231F20" stroke-width="2" stroke-miterlimit="10" points="117.859,55.353 112.189,52.519 
	123.529,46.849 112.189,41.18 123.529,35.511 112.189,29.841 123.529,24.172 117.859,21.338 "/>
<polygon fill="none" stroke="#231F20" stroke-miterlimit="10" points="66.834,137.559 61.165,146.063 55.496,137.559 "/>
<line fill="none" stroke="#231F20" stroke-miterlimit="10" x1="61.165" y1="137.558" x2="61.165" y2="120.55"/>
<line fill="none" stroke="#231F20" stroke-miterlimit="10" x1="61.163" y1="49.685" x2="61.163" y2="4.331"/>
<line fill="none" stroke="#231F20" stroke-width="2" stroke-miterlimit="10" x1="55.495" y1="4.332" x2="66.834" y2="4.332"/>
<line fill="none" stroke="#231F20" stroke-miterlimit="10" x1="117.857" y1="21.338" x2="117.857" y2="4.33"/>
<line fill="none" stroke="#231F20" stroke-miterlimit="10" x1="117.857" y1="72.363" x2="117.857" y2="55.354"/>
<line fill="none" stroke="#231F20" stroke-miterlimit="10" x1="117.855" y1="103.543" x2="117.855" y2="86.536"/>
<line fill="none" stroke="#231F20" stroke-width="2" stroke-miterlimit="10" x1="112.189" y1="4.331" x2="123.529" y2="4.331"/>
<rect x="27.148" y="49.685" fill="#E9E8F4" stroke="#231F20" stroke-width="2" stroke-miterlimit="10" width="68.034" height="70.866"/>
<circle fill="#FFFFFF" stroke="#231F20" stroke-miterlimit="10" cx="17.227" cy="85.117" r="15.59"/>
<g>
	<polygon fill="#231F20" stroke="#231F20" stroke-miterlimit="10" points="26.905,81.746 16.936,81.746 21.921,88.393 	"/>
	<line fill="#231F20" stroke="#231F20" stroke-miterlimit="10" x1="28.567" y1="90.054" x2="15.273" y2="90.054"/>
</g>
<g>
	<g>
		<line fill="none" stroke="#231F20" stroke-width="0.5" stroke-miterlimit="10" x1="6.134" y1="80.916" x2="13.939" y2="84.037"/>
		<g>
			<polygon fill="#231F20" points="11.641,85.32 11.46,84.853 13.761,83.966 12.707,81.737 13.16,81.523 14.442,84.239 			"/>
		</g>
	</g>
</g>
<g>
	<g>
		<line fill="none" stroke="#231F20" stroke-width="0.5" stroke-miterlimit="10" x1="4.473" y1="85.9" x2="12.278" y2="89.022"/>
		<g>
			<polygon fill="#231F20" points="9.98,90.305 9.799,89.838 12.1,88.951 11.046,86.722 11.499,86.508 12.781,89.224 			"/>
		</g>
	</g>
</g>
<line fill="none" stroke="#231F20" stroke-miterlimit="10" x1="21.921" y1="81.746" x2="21.921" y2="76.76"/>
<line fill="none" stroke="#231F20" stroke-miterlimit="10" x1="21.48" y1="95.039" x2="21.48" y2="90.054"/>
<text transform="matrix(1 0 0 1 55.7261 80.8667)"><tspan x="0" y="0" fill="#231F20" font-family="'MyriadPro-Regular'" font-size="14">IR</tspan><tspan x="-20.139" y="16.799" fill="#231F20" font-family="'MyriadPro-Regular'" font-size="14">Detector</tspan></text>
</svg>
