<?xml version="1.0" encoding="utf-8"?>
<!-- Generator: Adobe Illustrator 15.0.0, SVG Export Plug-In . SVG Version: 6.00 Build 0)  -->
<!DOCTYPE svg PUBLIC "-//W3C//DTD SVG 1.0//EN" "http://www.w3.org/TR/2001/REC-SVG-20010904/DTD/svg10.dtd">
<svg version="1.0" id="Layer_1" xmlns="http://www.w3.org/2000/svg" xmlns:xlink="http://www.w3.org/1999/xlink" x="0px" y="0px"
	 width="830.55px" height="274.96px" viewBox="0 0 830.55 274.96" enable-background="new 0 0 830.55 274.96" xml:space="preserve">
<g opacity="0.2">
	<g>
		<line fill="none" stroke="#EC1C24" stroke-miterlimit="10" x1="153.071" y1="116.957" x2="153.071" y2="119.957"/>
		
			<line fill="none" stroke="#EC1C24" stroke-miterlimit="10" stroke-dasharray="6.1651,6.1651" x1="153.071" y1="126.123" x2="153.071" y2="209.35"/>
		<line fill="none" stroke="#EC1C24" stroke-miterlimit="10" x1="153.071" y1="212.433" x2="153.071" y2="215.433"/>
		<g>
			<circle fill="#EC1C24" cx="153.071" cy="117.145" r="3.76"/>
		</g>
	</g>
</g>
<g opacity="0.2">
	<g>
		<line fill="none" stroke="#00A551" stroke-miterlimit="10" x1="218.267" y1="116.957" x2="218.267" y2="119.957"/>
		
			<line fill="none" stroke="#00A551" stroke-miterlimit="10" stroke-dasharray="5.5872,5.5872" x1="218.267" y1="125.544" x2="218.267" y2="189.796"/>
		<line fill="none" stroke="#00A551" stroke-miterlimit="10" x1="218.267" y1="192.59" x2="218.267" y2="195.59"/>
		<g>
			<circle fill="#00A551" cx="218.267" cy="117.145" r="3.76"/>
		</g>
	</g>
</g>
<g opacity="0.2">
	<g>
		<line fill="none" stroke="#404041" stroke-width="0.5" stroke-miterlimit="10" x1="90.708" y1="34.016" x2="90.708" y2="33.016"/>
		
			<line fill="none" stroke="#404041" stroke-width="0.5" stroke-miterlimit="10" stroke-dasharray="2.0501,2.0501" x1="90.708" y1="30.966" x2="90.708" y2="-0.812"/>
		<line fill="none" stroke="#404041" stroke-width="0.5" stroke-miterlimit="10" x1="90.708" y1="-1.836" x2="90.708" y2="-2.836"/>
	</g>
</g>
<g opacity="0.2">
	<g>
		
			<line fill="none" stroke="#404041" stroke-width="0.5" stroke-miterlimit="10" x1="102.047" y1="99.212" x2="102.047" y2="98.212"/>
		
			<line fill="none" stroke="#404041" stroke-width="0.5" stroke-miterlimit="10" stroke-dasharray="1.9617,1.9617" x1="102.047" y1="96.25" x2="102.047" y2="-0.855"/>
		
			<line fill="none" stroke="#404041" stroke-width="0.5" stroke-miterlimit="10" x1="102.047" y1="-1.836" x2="102.047" y2="-2.836"/>
	</g>
</g>
<g opacity="0.2">
	<g>
		
			<line fill="none" stroke="#404041" stroke-width="0.5" stroke-miterlimit="10" x1="153.071" y1="114.434" x2="153.071" y2="113.434"/>
		
			<line fill="none" stroke="#404041" stroke-width="0.5" stroke-miterlimit="10" stroke-dasharray="2.0538,2.0538" x1="153.071" y1="111.38" x2="153.071" y2="67.224"/>
		
			<line fill="none" stroke="#404041" stroke-width="0.5" stroke-miterlimit="10" x1="153.071" y1="66.197" x2="153.071" y2="65.197"/>
		<g>
			<circle fill="#404041" cx="153.071" cy="114.34" r="1.88"/>
		</g>
	</g>
</g>
<g opacity="0.2">
	<g>
		
			<line fill="none" stroke="#404041" stroke-width="0.5" stroke-miterlimit="10" x1="178.583" y1="195.588" x2="178.583" y2="196.588"/>
		
			<line fill="none" stroke="#404041" stroke-width="0.5" stroke-miterlimit="10" stroke-dasharray="2.0145,2.0145" x1="178.583" y1="198.603" x2="178.583" y2="270.119"/>
		
			<line fill="none" stroke="#404041" stroke-width="0.5" stroke-miterlimit="10" x1="178.583" y1="271.125" x2="178.583" y2="272.125"/>
	</g>
</g>
<g opacity="0.2">
	<g>
		
			<line fill="none" stroke="#404041" stroke-width="0.5" stroke-miterlimit="10" x1="388.346" y1="87.874" x2="388.346" y2="88.874"/>
		
			<line fill="none" stroke="#404041" stroke-width="0.5" stroke-miterlimit="10" stroke-dasharray="2.1374,2.1374" x1="388.346" y1="91.011" x2="388.346" y2="111.317"/>
		
			<line fill="none" stroke="#404041" stroke-width="0.5" stroke-miterlimit="10" x1="388.346" y1="112.385" x2="388.346" y2="113.385"/>
	</g>
</g>
<g opacity="0.2">
	<g>
		
			<line fill="none" stroke="#404041" stroke-width="0.5" stroke-miterlimit="10" x1="408.189" y1="90.708" x2="408.189" y2="91.708"/>
		
			<line fill="none" stroke="#404041" stroke-width="0.5" stroke-miterlimit="10" stroke-dasharray="2.1374,2.1374" x1="408.189" y1="93.846" x2="408.189" y2="114.152"/>
		
			<line fill="none" stroke="#404041" stroke-width="0.5" stroke-miterlimit="10" x1="408.189" y1="115.22" x2="408.189" y2="116.22"/>
	</g>
</g>
<g opacity="0.2">
	<g>
		
			<line fill="none" stroke="#404041" stroke-width="0.5" stroke-miterlimit="10" x1="153.071" y1="215.433" x2="153.071" y2="216.433"/>
		
			<line fill="none" stroke="#404041" stroke-width="0.5" stroke-miterlimit="10" stroke-dasharray="2.0256,2.0256" x1="153.071" y1="218.458" x2="153.071" y2="270.113"/>
		
			<line fill="none" stroke="#404041" stroke-width="0.5" stroke-miterlimit="10" x1="153.071" y1="271.125" x2="153.071" y2="272.125"/>
	</g>
</g>
<text transform="matrix(1 0 0 1 106.2085 11.3384)" fill="#808184" font-family="'MyriadPro-Regular'" font-size="12">≥100ns</text>
<text transform="matrix(1 0 0 1 5.6694 141.7319)" fill="#231F20" font-family="'MyriadPro-Regular'" font-size="20">STROBE</text>
<g>
	<g>
		<path fill="none" d="M153.07,53.858"/>
	</g>
	<g>
		<path fill="none" d="M153.07-42.52"/>
	</g>
	<g>
		<path fill="none" d="M153.07,232.438"/>
	</g>
	<g>
		<path fill="none" d="M153.07,53.856"/>
	</g>
</g>
<line fill="none" stroke="#231F20" stroke-miterlimit="10" x1="153.071" y1="113.385" x2="56.693" y2="113.385"/>
<text transform="matrix(1 0 0 1 5.6694 59.5249)" fill="#F6921E" font-family="'MyriadPro-Regular'" font-size="20">RESET</text>
<text transform="matrix(1 0 0 1 5.6694 226.771)" fill="#00ADEE" font-family="'MyriadPro-Regular'" font-size="20">OUT</text>
<line fill="none" stroke="#F6921E" stroke-miterlimit="10" x1="85.039" y1="65.198" x2="56.693" y2="65.198"/>
<line fill="none" stroke="#F6921E" stroke-miterlimit="10" x1="824.88" y1="65.198" x2="107.716" y2="65.198"/>
<line fill="none" stroke="#F6921E" stroke-miterlimit="10" x1="102.047" y1="31.18" x2="90.708" y2="31.18"/>
<polygon fill="#E6E7E8" stroke="#00ADEE" stroke-miterlimit="10" points="167.244,232.44 158.74,232.44 153.07,215.431 
	158.74,198.425 167.244,198.424 172.913,215.431 "/>
<polygon fill="#E6E7E8" stroke="#00ADEE" stroke-miterlimit="10" points="252.283,232.44 243.779,232.44 238.109,215.431 
	243.779,198.425 252.283,198.424 257.952,215.431 "/>
<polygon fill="#FFFFFF" stroke="#00ADEE" stroke-miterlimit="10" points="217.752,232.44 179.098,232.44 172.913,215.431 
	179.098,198.425 217.752,198.424 223.937,215.431 "/>
<line fill="none" stroke="#00ADEE" stroke-miterlimit="10" x1="153.071" y1="215.433" x2="56.693" y2="215.433"/>
<line fill="none" stroke="#00ADEE" stroke-miterlimit="10" x1="238.11" y1="215.433" x2="223.937" y2="215.433"/>
<line fill="none" stroke="#F6921E" stroke-miterlimit="10" x1="85.039" y1="65.198" x2="90.708" y2="31.182"/>
<line fill="none" stroke="#F6921E" stroke-miterlimit="10" x1="107.716" y1="65.198" x2="102.047" y2="31.18"/>
<g>
	<line fill="none" stroke="#231F20" stroke-miterlimit="10" x1="212.598" y1="147.403" x2="158.74" y2="147.403"/>
	<line fill="none" stroke="#231F20" stroke-miterlimit="10" x1="153.071" y1="113.387" x2="158.74" y2="147.403"/>
	<line fill="none" stroke="#231F20" stroke-miterlimit="10" x1="238.109" y1="113.387" x2="218.267" y2="113.387"/>
	<line fill="none" stroke="#231F20" stroke-miterlimit="10" x1="218.267" y1="113.387" x2="212.598" y2="147.403"/>
</g>
<g opacity="0.2">
	<g>
		<line fill="none" stroke="#EC1C24" stroke-miterlimit="10" x1="238.11" y1="116.957" x2="238.11" y2="119.957"/>
		
			<line fill="none" stroke="#EC1C24" stroke-miterlimit="10" stroke-dasharray="6.1651,6.1651" x1="238.11" y1="126.123" x2="238.11" y2="209.35"/>
		<line fill="none" stroke="#EC1C24" stroke-miterlimit="10" x1="238.11" y1="212.433" x2="238.11" y2="215.433"/>
		<g>
			<circle fill="#EC1C24" cx="238.11" cy="117.145" r="3.76"/>
		</g>
	</g>
</g>
<g opacity="0.2">
	<g>
		<line fill="none" stroke="#00A551" stroke-miterlimit="10" x1="303.306" y1="116.957" x2="303.306" y2="119.957"/>
		
			<line fill="none" stroke="#00A551" stroke-miterlimit="10" stroke-dasharray="5.5872,5.5872" x1="303.306" y1="125.544" x2="303.306" y2="189.796"/>
		<line fill="none" stroke="#00A551" stroke-miterlimit="10" x1="303.306" y1="192.59" x2="303.306" y2="195.59"/>
		<g>
			<circle fill="#00A551" cx="303.306" cy="117.145" r="3.76"/>
		</g>
	</g>
</g>
<g>
	<line fill="none" stroke="#231F20" stroke-miterlimit="10" x1="297.638" y1="147.403" x2="243.779" y2="147.403"/>
	<line fill="none" stroke="#231F20" stroke-miterlimit="10" x1="238.111" y1="113.387" x2="243.78" y2="147.403"/>
	<line fill="none" stroke="#231F20" stroke-miterlimit="10" x1="323.149" y1="113.387" x2="303.307" y2="113.387"/>
	<line fill="none" stroke="#231F20" stroke-miterlimit="10" x1="303.307" y1="113.387" x2="297.638" y2="147.403"/>
</g>
<g opacity="0.2">
	<g>
		<line fill="none" stroke="#EC1C24" stroke-miterlimit="10" x1="323.149" y1="116.957" x2="323.149" y2="119.957"/>
		
			<line fill="none" stroke="#EC1C24" stroke-miterlimit="10" stroke-dasharray="6.1651,6.1651" x1="323.149" y1="126.123" x2="323.149" y2="209.35"/>
		<line fill="none" stroke="#EC1C24" stroke-miterlimit="10" x1="323.149" y1="212.433" x2="323.149" y2="215.433"/>
		<g>
			<circle fill="#EC1C24" cx="323.149" cy="117.145" r="3.76"/>
		</g>
	</g>
</g>
<g opacity="0.2">
	<g>
		<line fill="none" stroke="#00A551" stroke-miterlimit="10" x1="388.345" y1="116.957" x2="388.345" y2="119.957"/>
		
			<line fill="none" stroke="#00A551" stroke-miterlimit="10" stroke-dasharray="5.5872,5.5872" x1="388.345" y1="125.544" x2="388.345" y2="189.796"/>
		<line fill="none" stroke="#00A551" stroke-miterlimit="10" x1="388.345" y1="192.59" x2="388.345" y2="195.59"/>
		<g>
			<circle fill="#00A551" cx="388.345" cy="117.145" r="3.76"/>
		</g>
	</g>
</g>
<g>
	<line fill="none" stroke="#231F20" stroke-miterlimit="10" x1="382.676" y1="147.403" x2="328.818" y2="147.403"/>
	<line fill="none" stroke="#231F20" stroke-miterlimit="10" x1="323.149" y1="113.387" x2="328.818" y2="147.403"/>
	<line fill="none" stroke="#231F20" stroke-miterlimit="10" x1="408.188" y1="113.387" x2="388.345" y2="113.387"/>
	<line fill="none" stroke="#231F20" stroke-miterlimit="10" x1="388.345" y1="113.387" x2="382.676" y2="147.403"/>
</g>
<g opacity="0.2">
	<g>
		<line fill="none" stroke="#EC1C24" stroke-miterlimit="10" x1="408.189" y1="116.957" x2="408.189" y2="119.957"/>
		
			<line fill="none" stroke="#EC1C24" stroke-miterlimit="10" stroke-dasharray="6.1651,6.1651" x1="408.189" y1="126.123" x2="408.189" y2="209.35"/>
		<line fill="none" stroke="#EC1C24" stroke-miterlimit="10" x1="408.189" y1="212.433" x2="408.189" y2="215.433"/>
		<g>
			<circle fill="#EC1C24" cx="408.189" cy="117.145" r="3.76"/>
		</g>
	</g>
</g>
<g opacity="0.2">
	<g>
		<line fill="none" stroke="#00A551" stroke-miterlimit="10" x1="473.385" y1="116.957" x2="473.385" y2="119.957"/>
		
			<line fill="none" stroke="#00A551" stroke-miterlimit="10" stroke-dasharray="5.5872,5.5872" x1="473.385" y1="125.544" x2="473.385" y2="189.796"/>
		<line fill="none" stroke="#00A551" stroke-miterlimit="10" x1="473.385" y1="192.59" x2="473.385" y2="195.59"/>
		<g>
			<circle fill="#00A551" cx="473.385" cy="117.145" r="3.76"/>
		</g>
	</g>
</g>
<g>
	<line fill="none" stroke="#231F20" stroke-miterlimit="10" x1="467.717" y1="147.403" x2="413.858" y2="147.403"/>
	<line fill="none" stroke="#231F20" stroke-miterlimit="10" x1="408.189" y1="113.387" x2="413.859" y2="147.403"/>
	<line fill="none" stroke="#231F20" stroke-miterlimit="10" x1="493.229" y1="113.387" x2="473.386" y2="113.387"/>
	<line fill="none" stroke="#231F20" stroke-miterlimit="10" x1="473.386" y1="113.387" x2="467.717" y2="147.403"/>
</g>
<g opacity="0.2">
	<g>
		<line fill="none" stroke="#EC1C24" stroke-miterlimit="10" x1="493.228" y1="116.957" x2="493.228" y2="119.957"/>
		
			<line fill="none" stroke="#EC1C24" stroke-miterlimit="10" stroke-dasharray="6.1651,6.1651" x1="493.228" y1="126.123" x2="493.228" y2="209.35"/>
		<line fill="none" stroke="#EC1C24" stroke-miterlimit="10" x1="493.228" y1="212.433" x2="493.228" y2="215.433"/>
		<g>
			<circle fill="#EC1C24" cx="493.228" cy="117.145" r="3.76"/>
		</g>
	</g>
</g>
<g opacity="0.2">
	<g>
		<line fill="none" stroke="#00A551" stroke-miterlimit="10" x1="558.423" y1="116.957" x2="558.423" y2="119.957"/>
		
			<line fill="none" stroke="#00A551" stroke-miterlimit="10" stroke-dasharray="5.5872,5.5872" x1="558.423" y1="125.544" x2="558.423" y2="189.796"/>
		<line fill="none" stroke="#00A551" stroke-miterlimit="10" x1="558.423" y1="192.59" x2="558.423" y2="195.59"/>
		<g>
			<circle fill="#00A551" cx="558.423" cy="117.145" r="3.76"/>
		</g>
	</g>
</g>
<g>
	<line fill="none" stroke="#231F20" stroke-miterlimit="10" x1="552.755" y1="147.403" x2="498.896" y2="147.403"/>
	<line fill="none" stroke="#231F20" stroke-miterlimit="10" x1="493.228" y1="113.387" x2="498.897" y2="147.403"/>
	<line fill="none" stroke="#231F20" stroke-miterlimit="10" x1="578.267" y1="113.387" x2="558.424" y2="113.387"/>
	<line fill="none" stroke="#231F20" stroke-miterlimit="10" x1="558.424" y1="113.387" x2="552.755" y2="147.403"/>
</g>
<g opacity="0.2">
	<g>
		<line fill="none" stroke="#EC1C24" stroke-miterlimit="10" x1="578.267" y1="116.957" x2="578.267" y2="119.957"/>
		
			<line fill="none" stroke="#EC1C24" stroke-miterlimit="10" stroke-dasharray="6.1651,6.1651" x1="578.267" y1="126.123" x2="578.267" y2="209.35"/>
		<line fill="none" stroke="#EC1C24" stroke-miterlimit="10" x1="578.267" y1="212.433" x2="578.267" y2="215.433"/>
		<g>
			<circle fill="#EC1C24" cx="578.267" cy="117.145" r="3.76"/>
		</g>
	</g>
</g>
<g opacity="0.2">
	<g>
		<line fill="none" stroke="#00A551" stroke-miterlimit="10" x1="643.462" y1="116.957" x2="643.462" y2="119.957"/>
		
			<line fill="none" stroke="#00A551" stroke-miterlimit="10" stroke-dasharray="5.5872,5.5872" x1="643.462" y1="125.544" x2="643.462" y2="189.796"/>
		<line fill="none" stroke="#00A551" stroke-miterlimit="10" x1="643.462" y1="192.59" x2="643.462" y2="195.59"/>
		<g>
			<circle fill="#00A551" cx="643.462" cy="117.145" r="3.76"/>
		</g>
	</g>
</g>
<g>
	<line fill="none" stroke="#231F20" stroke-miterlimit="10" x1="637.794" y1="147.403" x2="583.936" y2="147.403"/>
	<line fill="none" stroke="#231F20" stroke-miterlimit="10" x1="578.267" y1="113.387" x2="583.937" y2="147.403"/>
	<line fill="none" stroke="#231F20" stroke-miterlimit="10" x1="663.306" y1="113.387" x2="643.463" y2="113.387"/>
	<line fill="none" stroke="#231F20" stroke-miterlimit="10" x1="643.463" y1="113.387" x2="637.794" y2="147.403"/>
</g>
<g opacity="0.2">
	<g>
		<line fill="none" stroke="#EC1C24" stroke-miterlimit="10" x1="663.306" y1="116.957" x2="663.306" y2="119.957"/>
		
			<line fill="none" stroke="#EC1C24" stroke-miterlimit="10" stroke-dasharray="6.1651,6.1651" x1="663.306" y1="126.123" x2="663.306" y2="209.35"/>
		<line fill="none" stroke="#EC1C24" stroke-miterlimit="10" x1="663.306" y1="212.433" x2="663.306" y2="215.433"/>
		<g>
			<circle fill="#EC1C24" cx="663.306" cy="117.145" r="3.76"/>
		</g>
	</g>
</g>
<g opacity="0.2">
	<g>
		<line fill="none" stroke="#00A551" stroke-miterlimit="10" x1="728.501" y1="116.957" x2="728.501" y2="119.957"/>
		
			<line fill="none" stroke="#00A551" stroke-miterlimit="10" stroke-dasharray="5.5872,5.5872" x1="728.501" y1="125.544" x2="728.501" y2="189.796"/>
		<line fill="none" stroke="#00A551" stroke-miterlimit="10" x1="728.501" y1="192.59" x2="728.501" y2="195.59"/>
		<g>
			<circle fill="#00A551" cx="728.501" cy="117.145" r="3.76"/>
		</g>
	</g>
</g>
<g>
	<line fill="none" stroke="#231F20" stroke-miterlimit="10" x1="722.833" y1="147.403" x2="668.975" y2="147.403"/>
	<line fill="none" stroke="#231F20" stroke-miterlimit="10" x1="663.306" y1="113.387" x2="668.976" y2="147.403"/>
	<line fill="none" stroke="#231F20" stroke-miterlimit="10" x1="748.345" y1="113.387" x2="728.502" y2="113.387"/>
	<line fill="none" stroke="#231F20" stroke-miterlimit="10" x1="728.502" y1="113.387" x2="722.833" y2="147.403"/>
</g>
<g opacity="0.2">
	<g>
		<line fill="none" stroke="#EC1C24" stroke-miterlimit="10" x1="748.345" y1="116.957" x2="748.345" y2="119.957"/>
		
			<line fill="none" stroke="#EC1C24" stroke-miterlimit="10" stroke-dasharray="6.1651,6.1651" x1="748.345" y1="126.123" x2="748.345" y2="209.35"/>
		<line fill="none" stroke="#EC1C24" stroke-miterlimit="10" x1="748.345" y1="212.433" x2="748.345" y2="215.433"/>
		<g>
			<circle fill="#EC1C24" cx="748.345" cy="117.145" r="3.76"/>
		</g>
	</g>
</g>
<g opacity="0.2">
	<g>
		<line fill="none" stroke="#00A551" stroke-miterlimit="10" x1="813.54" y1="116.957" x2="813.54" y2="119.957"/>
		
			<line fill="none" stroke="#00A551" stroke-miterlimit="10" stroke-dasharray="5.5872,5.5872" x1="813.54" y1="125.544" x2="813.54" y2="189.796"/>
		<line fill="none" stroke="#00A551" stroke-miterlimit="10" x1="813.54" y1="192.59" x2="813.54" y2="195.59"/>
		<g>
			<circle fill="#00A551" cx="813.54" cy="117.145" r="3.76"/>
		</g>
	</g>
</g>
<line fill="none" stroke="#231F20" stroke-miterlimit="10" x1="807.872" y1="147.403" x2="754.014" y2="147.403"/>
<line fill="none" stroke="#231F20" stroke-miterlimit="10" x1="748.345" y1="113.387" x2="754.015" y2="147.403"/>
<line fill="none" stroke="#231F20" stroke-miterlimit="10" x1="824.88" y1="113.387" x2="813.541" y2="113.387"/>
<line fill="none" stroke="#231F20" stroke-miterlimit="10" x1="813.541" y1="113.387" x2="807.872" y2="147.403"/>
<g>
	<g>
		<line fill="none" stroke="#6D6E70" stroke-width="0.5" stroke-miterlimit="10" x1="91.251" y1="8.503" x2="101.024" y2="8.503"/>
		<g>
			<polygon fill="#6D6E70" points="92.907,10.548 93.249,10.182 91.442,8.503 93.249,6.826 92.907,6.458 90.708,8.503 			"/>
		</g>
		<g>
			<polygon fill="#6D6E70" points="99.367,10.548 99.026,10.182 100.832,8.503 99.026,6.826 99.367,6.458 101.566,8.503 			"/>
		</g>
	</g>
</g>
<text transform="matrix(1 0 0 1 112.1328 87.8735)" fill="#808184" font-family="'MyriadPro-Regular'" font-size="12">≥72μs</text>
<g>
	<g>
		
			<line fill="none" stroke="#6D6E70" stroke-width="0.5" stroke-miterlimit="10" x1="103.07" y1="93.542" x2="152.528" y2="93.542"/>
		<g>
			<polygon fill="#6D6E70" points="104.727,95.587 105.068,95.221 103.262,93.542 105.068,91.865 104.727,91.498 102.528,93.542 			
				"/>
		</g>
		<g>
			<polygon fill="#6D6E70" points="150.872,95.587 150.531,95.221 152.337,93.542 150.531,91.865 150.872,91.498 153.071,93.542 			
				"/>
		</g>
	</g>
</g>
<text transform="matrix(1 0 0 1 381.4238 87.8745)" fill="#808184" font-family="'MyriadPro-Regular'" font-size="12">≥18μs</text>
<g>
	<g>
		
			<line fill="none" stroke="#6D6E70" stroke-width="0.5" stroke-miterlimit="10" x1="388.888" y1="93.544" x2="407.647" y2="93.544"/>
		<g>
			<polygon fill="#6D6E70" points="390.545,95.589 390.886,95.223 389.08,93.544 390.886,91.867 390.545,91.5 388.346,93.544 			"/>
		</g>
		<g>
			<polygon fill="#6D6E70" points="405.99,95.589 405.649,95.223 407.455,93.544 405.649,91.867 405.99,91.5 408.189,93.544 			"/>
		</g>
	</g>
</g>
<g opacity="0.2">
	<g>
		<line fill="none" stroke="#404041" stroke-width="0.5" stroke-miterlimit="10" x1="238.11" y1="90.708" x2="238.11" y2="91.708"/>
		
			<line fill="none" stroke="#404041" stroke-width="0.5" stroke-miterlimit="10" stroke-dasharray="2.1374,2.1374" x1="238.11" y1="93.846" x2="238.11" y2="114.152"/>
		<line fill="none" stroke="#404041" stroke-width="0.5" stroke-miterlimit="10" x1="238.11" y1="115.22" x2="238.11" y2="116.22"/>
	</g>
</g>
<text transform="matrix(1 0 0 1 182.999 87.8745)" fill="#808184" font-family="'MyriadPro-Regular'" font-size="12">≥72μs</text>
<g>
	<g>
		
			<line fill="none" stroke="#6D6E70" stroke-width="0.5" stroke-miterlimit="10" x1="153.613" y1="93.544" x2="237.568" y2="93.544"/>
		<g>
			<polygon fill="#6D6E70" points="155.27,95.589 155.611,95.223 153.805,93.544 155.611,91.867 155.27,91.5 153.071,93.544 			"/>
		</g>
		<g>
			<polygon fill="#6D6E70" points="235.911,95.589 235.57,95.223 237.376,93.544 235.57,91.867 235.911,91.5 238.11,93.544 			"/>
		</g>
	</g>
</g>
<text transform="matrix(1 0 0 1 184.2515 269.2905)" fill="#808184" font-family="'MyriadPro-Regular'" font-size="12">≥36μs with 33pF//1MΩ load</text>
<g>
	<g>
		
			<line fill="none" stroke="#6D6E70" stroke-width="0.5" stroke-miterlimit="10" x1="153.613" y1="266.457" x2="178.04" y2="266.457"/>
		<g>
			<polygon fill="#6D6E70" points="155.27,268.501 155.611,268.135 153.805,266.457 155.611,264.779 155.27,264.412 
				153.071,266.457 			"/>
		</g>
		<g>
			<polygon fill="#6D6E70" points="176.384,268.501 176.042,268.135 177.849,266.457 176.042,264.779 176.384,264.412 
				178.583,266.457 			"/>
		</g>
	</g>
</g>
<polygon fill="#E6E7E8" stroke="#00ADEE" stroke-miterlimit="10" points="337.322,232.44 328.818,232.44 323.148,215.431 
	328.818,198.425 337.322,198.424 342.991,215.431 "/>
<polygon fill="#E6E7E8" stroke="#00ADEE" stroke-miterlimit="10" points="422.361,232.44 413.857,232.44 408.188,215.431 
	413.857,198.425 422.361,198.424 428.03,215.431 "/>
<polygon fill="#E6E7E8" stroke="#00ADEE" stroke-miterlimit="10" points="507.401,232.44 498.897,232.44 493.228,215.431 
	498.897,198.425 507.401,198.424 513.07,215.431 "/>
<polygon fill="#E6E7E8" stroke="#00ADEE" stroke-miterlimit="10" points="592.44,232.44 583.937,232.44 578.267,215.431 
	583.937,198.425 592.44,198.424 598.109,215.431 "/>
<polygon fill="#E6E7E8" stroke="#00ADEE" stroke-miterlimit="10" points="677.479,232.44 668.976,232.44 663.306,215.431 
	668.976,198.425 677.479,198.424 683.148,215.431 "/>
<polygon fill="#E6E7E8" stroke="#00ADEE" stroke-miterlimit="10" points="762.519,232.44 754.015,232.44 748.345,215.431 
	754.015,198.425 762.519,198.424 768.188,215.431 "/>
<text transform="matrix(1 0 0 1 189.1909 221.1021)" fill="#00ADEE" font-family="'MyriadPro-Regular'" font-size="18">63</text>
<polygon fill="#FFFFFF" stroke="#00ADEE" stroke-miterlimit="10" points="302.791,232.44 264.137,232.44 257.952,215.431 
	264.137,198.425 302.791,198.424 308.976,215.431 "/>
<line fill="none" stroke="#00ADEE" stroke-miterlimit="10" x1="323.149" y1="215.433" x2="308.976" y2="215.433"/>
<text transform="matrix(1 0 0 1 269.6133 221.1021)" fill="#00ADEE" font-family="'MyriadPro-Regular'" font-size="18">160</text>
<polygon fill="#FFFFFF" stroke="#00ADEE" stroke-miterlimit="10" points="387.831,232.44 349.176,232.44 342.992,215.431 
	349.176,198.425 387.831,198.424 394.015,215.431 "/>
<line fill="none" stroke="#00ADEE" stroke-miterlimit="10" x1="408.189" y1="215.433" x2="394.015" y2="215.433"/>
<text transform="matrix(1 0 0 1 354.6528 221.1021)" fill="#00ADEE" font-family="'MyriadPro-Regular'" font-size="18">400</text>
<polygon fill="#FFFFFF" stroke="#00ADEE" stroke-miterlimit="10" points="472.869,232.44 434.215,232.44 428.03,215.431 
	434.215,198.425 472.869,198.424 479.054,215.431 "/>
<line fill="none" stroke="#00ADEE" stroke-miterlimit="10" x1="493.229" y1="215.433" x2="479.054" y2="215.433"/>
<text transform="matrix(1 0 0 1 444.7041 221.1021)" fill="#00ADEE" font-family="'MyriadPro-Regular'" font-size="18">1k</text>
<polygon fill="#FFFFFF" stroke="#00ADEE" stroke-miterlimit="10" points="555.074,232.44 516.42,232.44 510.235,215.431 
	516.42,198.425 555.074,198.424 561.259,215.431 "/>
<line fill="none" stroke="#00ADEE" stroke-miterlimit="10" x1="575.434" y1="215.433" x2="561.259" y2="215.433"/>
<text transform="matrix(1 0 0 1 520.4297 221.1021)" fill="#00ADEE" font-family="'MyriadPro-Regular'" font-size="18">2.5k</text>
<polygon fill="#FFFFFF" stroke="#00ADEE" stroke-miterlimit="10" points="642.948,232.44 604.294,232.44 598.109,215.431 
	604.294,198.425 642.948,198.424 649.133,215.431 "/>
<line fill="none" stroke="#00ADEE" stroke-miterlimit="10" x1="663.308" y1="215.433" x2="649.133" y2="215.433"/>
<text transform="matrix(1 0 0 1 603.6865 221.1021)" fill="#00ADEE" font-family="'MyriadPro-Regular'" font-size="18">6.25k</text>
<polygon fill="#FFFFFF" stroke="#00ADEE" stroke-miterlimit="10" points="727.987,232.44 689.333,232.44 683.148,215.431 
	689.333,198.425 727.987,198.424 734.172,215.431 "/>
<line fill="none" stroke="#00ADEE" stroke-miterlimit="10" x1="748.347" y1="215.433" x2="734.172" y2="215.433"/>
<text transform="matrix(1 0 0 1 695.2051 221.1021)" fill="#00ADEE" font-family="'MyriadPro-Regular'" font-size="18">16k</text>
<polygon fill="#FFFFFF" stroke="#00ADEE" stroke-miterlimit="10" points="813.024,232.44 774.37,232.44 768.186,215.431 
	774.37,198.425 813.024,198.424 819.209,215.431 "/>
<line fill="none" stroke="#00ADEE" stroke-miterlimit="10" x1="824.88" y1="215.433" x2="819.209" y2="215.433"/>
<text transform="matrix(1 0 0 1 784.4629 221.1021)" fill="#00ADEE" font-family="'MyriadPro-Regular'" font-size="18">63</text>
</svg>
