<?xml version="1.0" encoding="utf-8"?>
<!-- Generator: Adobe Illustrator 15.0.0, SVG Export Plug-In . SVG Version: 6.00 Build 0)  -->
<!DOCTYPE svg PUBLIC "-//W3C//DTD SVG 1.0//EN" "http://www.w3.org/TR/2001/REC-SVG-20010904/DTD/svg10.dtd">
<svg version="1.0" id="Layer_1" xmlns="http://www.w3.org/2000/svg" xmlns:xlink="http://www.w3.org/1999/xlink" x="0px" y="0px"
	 width="166.157px" height="275.185px" viewBox="0 0 166.157 275.185" enable-background="new 0 0 166.157 275.185"
	 xml:space="preserve">
<rect x="104.081" y="4.088" transform="matrix(0.866 0.5 -0.5 0.866 22.0339 -51.3876)" fill="#E9E8F4" stroke="#231F20" stroke-width="2" stroke-miterlimit="10" width="5.667" height="22.675"/>
<rect x="58.347" y="4.087" transform="matrix(0.866 -0.5 0.5 0.866 0.4836 32.6545)" fill="#E9E8F4" stroke="#231F20" stroke-width="2" stroke-miterlimit="10" width="5.667" height="22.675"/>
<ellipse fill="#E9E8F4" stroke="#231F20" stroke-width="2" stroke-miterlimit="10" cx="84.239" cy="53.59" rx="56.693" ry="38.268"/>
<polygon fill="#E9E8F4" stroke="#231F20" stroke-width="2" stroke-miterlimit="10" points="163.606,154.218 149.437,154.218 
	149.437,100.362 140.933,100.362 140.933,91.858 149.437,91.858 149.437,80.519 163.606,80.519 "/>
<polygon fill="#E9E8F4" stroke="#231F20" stroke-width="2" stroke-miterlimit="10" points="4.872,154.218 19.042,154.218 
	19.042,100.362 27.546,100.362 27.546,91.858 19.042,91.858 19.042,80.519 4.872,80.519 "/>
<polyline fill="#E9E8F4" stroke="#231F20" stroke-width="2" stroke-miterlimit="10" points="140.929,55.009 140.929,158.474 
	140.929,261.937 115.421,261.937 115.421,273.274 98.413,273.274 98.413,261.937 84.237,261.937 72.899,261.937 72.899,273.274 
	55.892,273.274 55.892,261.937 27.546,261.937 27.546,158.474 27.546,55.009 "/>
<line fill="none" stroke="#231F20" stroke-miterlimit="10" x1="75.735" y1="55.007" x2="89.907" y2="55.007"/>
<line fill="none" stroke="#231F20" stroke-miterlimit="10" x1="52.703" y1="55.007" x2="116.672" y2="55.007"/>
<g>
	
		<rect x="64.396" y="94.692" fill="#231F20" stroke="#231F20" stroke-width="3" stroke-miterlimit="10" width="39.686" height="11.34"/>
	<circle fill="#FFFFFF" stroke="#231F20" stroke-width="3" stroke-miterlimit="10" cx="84.237" cy="100.362" r="17.008"/>
	<text transform="matrix(1 0 0 1 73.0605 106.0308)" fill="#231F20" font-family="'MyriadPro-Regular'" font-size="14">uμS</text>
</g>
<g>
	
		<rect x="64.396" y="137.212" fill="#231F20" stroke="#231F20" stroke-width="3" stroke-miterlimit="10" width="39.686" height="11.34"/>
	<circle fill="#FFFFFF" stroke="#231F20" stroke-width="3" stroke-miterlimit="10" cx="84.237" cy="142.882" r="17.008"/>
	<text transform="matrix(1 0 0 1 73.0605 148.5498)" fill="#231F20" font-family="'MyriadPro-Regular'" font-size="14">uμS</text>
</g>
<g>
	
		<rect x="64.396" y="179.731" fill="#231F20" stroke="#231F20" stroke-width="3" stroke-miterlimit="10" width="39.686" height="11.34"/>
	<circle fill="#FFFFFF" stroke="#231F20" stroke-width="3" stroke-miterlimit="10" cx="84.237" cy="185.401" r="17.008"/>
	<text transform="matrix(1 0 0 1 73.0605 191.0693)" fill="#231F20" font-family="'MyriadPro-Regular'" font-size="14">uμS</text>
</g>
<g>
	
		<rect x="64.396" y="222.251" fill="#231F20" stroke="#231F20" stroke-width="3" stroke-miterlimit="10" width="39.686" height="11.34"/>
	<circle fill="#FFFFFF" stroke="#231F20" stroke-width="3" stroke-miterlimit="10" cx="84.237" cy="227.921" r="17.008"/>
	<text transform="matrix(1 0 0 1 76.918 233.5898)" fill="#231F20" font-family="'MyriadPro-Regular'" font-size="14">μS</text>
</g>
<g>
	<g>
		<polygon fill="#231F20" stroke="#231F20" stroke-width="2" stroke-miterlimit="10" points="61.562,46.503 61.562,63.511 
			72.899,55.007 		"/>
		
			<line fill="#231F20" stroke="#231F20" stroke-width="2" stroke-miterlimit="10" x1="75.733" y1="43.668" x2="75.733" y2="66.346"/>
	</g>
	<g>
		<line fill="#231F20" x1="61.562" y1="40.834" x2="67.231" y2="33.156"/>
		<g>
			<line fill="none" stroke="#1BAAE9" stroke-miterlimit="10" x1="61.562" y1="40.834" x2="66.587" y2="34.028"/>
			<g>
				<polygon fill="#1BAAE9" points="67.909,39.123 66.914,39.237 66.36,34.337 61.514,35.249 61.33,34.265 67.232,33.156 				"/>
			</g>
		</g>
	</g>
	<g>
		<line fill="#231F20" x1="70.065" y1="40.834" x2="75.735" y2="33.156"/>
		<g>
			<line fill="none" stroke="#1BAAE9" stroke-miterlimit="10" x1="70.065" y1="40.834" x2="75.091" y2="34.028"/>
			<g>
				<polygon fill="#1BAAE9" points="76.413,39.123 75.418,39.237 74.864,34.337 70.018,35.249 69.834,34.265 75.736,33.156 				"/>
			</g>
		</g>
	</g>
</g>
<g>
	<g>
		<polygon fill="#231F20" stroke="#231F20" stroke-width="2" stroke-miterlimit="10" points="89.907,46.503 89.907,63.511 
			101.247,55.007 		"/>
		
			<line fill="#231F20" stroke="#231F20" stroke-width="2" stroke-miterlimit="10" x1="104.081" y1="43.668" x2="104.081" y2="66.346"/>
	</g>
	<g>
		<line fill="#231F20" x1="89.907" y1="40.834" x2="95.577" y2="33.156"/>
		<g>
			<line fill="none" stroke="#1BAAE9" stroke-miterlimit="10" x1="89.907" y1="40.834" x2="94.933" y2="34.028"/>
			<g>
				<polygon fill="#1BAAE9" points="96.255,39.123 95.26,39.237 94.706,34.337 89.859,35.249 89.676,34.265 95.578,33.156 				"/>
			</g>
		</g>
	</g>
	<g>
		<line fill="#231F20" x1="98.411" y1="40.834" x2="104.081" y2="33.156"/>
		<g>
			<line fill="none" stroke="#1BAAE9" stroke-miterlimit="10" x1="98.411" y1="40.834" x2="103.437" y2="34.028"/>
			<g>
				<polygon fill="#1BAAE9" points="104.759,39.123 103.764,39.237 103.21,34.337 98.363,35.249 98.18,34.265 104.082,33.156 				
					"/>
			</g>
		</g>
	</g>
</g>
</svg>
