<?xml version="1.0" encoding="utf-8"?>
<!-- Generator: Adobe Illustrator 15.0.0, SVG Export Plug-In . SVG Version: 6.00 Build 0)  -->
<!DOCTYPE svg PUBLIC "-//W3C//DTD SVG 1.0//EN" "http://www.w3.org/TR/2001/REC-SVG-20010904/DTD/svg10.dtd">
<svg version="1.0" id="Layer_1" xmlns="http://www.w3.org/2000/svg" xmlns:xlink="http://www.w3.org/1999/xlink" x="0px" y="0px"
	 width="170.079px" height="178.583px" viewBox="0 0 170.079 178.583" enable-background="new 0 0 170.079 178.583"
	 xml:space="preserve">
<line fill="none" stroke="#231F20" stroke-miterlimit="10" x1="2.835" y1="70.866" x2="65.197" y2="104.882"/>
<rect x="8.504" y="8.504" opacity="0.2" fill="#E8B34E" width="158.74" height="158.741"/>
<rect x="147.401" y="48.189" opacity="0.3" fill="#1BAAE9" width="17.008" height="79.371"/>
<rect x="48.189" y="11.338" opacity="0.7" fill="#E4A949" width="34.016" height="17.008"/>
<rect x="34.016" y="147.402" opacity="0.7" fill="#D1D2D3" width="130.393" height="17.008"/>
<rect x="116.22" y="11.338" opacity="0.7" fill="#E4A949" width="34.016" height="17.008"/>
<text transform="matrix(1 0 0 1 119.5908 24.0942)" fill="#231F20" font-family="'MyriadPro-Regular'" font-size="12">0.1μF</text>
<text transform="matrix(1 0 0 1 53.8584 24.0942)" fill="#231F20" font-family="'MyriadPro-Regular'" font-size="12">33pF</text>
<rect x="36.851" y="36.85" fill="#FFFFFF" stroke="#231F20" stroke-miterlimit="10" width="11.339" height="11.339"/>
<rect x="59.528" y="36.85" fill="#FFFFFF" stroke="#231F20" stroke-miterlimit="10" width="11.338" height="11.339"/>
<rect x="14.173" y="127.558" fill="#FFFFFF" stroke="#231F20" stroke-miterlimit="10" width="11.339" height="11.34"/>
<rect x="14.173" y="104.882" fill="#FFFFFF" stroke="#231F20" stroke-miterlimit="10" width="11.339" height="11.34"/>
<rect x="14.173" y="14.173" fill="#FFFFFF" stroke="#231F20" stroke-miterlimit="10" width="11.339" height="11.34"/>
<rect x="150.235" y="127.558" fill="#FFFFFF" stroke="#231F20" stroke-miterlimit="10" width="11.34" height="11.34"/>
<rect x="150.235" y="36.849" fill="#FFFFFF" stroke="#231F20" stroke-miterlimit="10" width="11.34" height="11.34"/>
<rect x="59.529" y="127.558" fill="#FFFFFF" stroke="#231F20" stroke-miterlimit="10" width="11.338" height="11.34"/>
<rect x="82.205" y="36.85" fill="#FFFFFF" stroke="#231F20" stroke-miterlimit="10" width="11.337" height="11.339"/>
<rect x="104.882" y="36.85" fill="#FFFFFF" stroke="#231F20" stroke-miterlimit="10" width="11.338" height="11.339"/>
<rect x="127.561" y="82.204" fill="#FFFFFF" stroke="#231F20" stroke-miterlimit="10" width="11.338" height="11.338"/>
<rect x="127.56" y="36.85" fill="#FFFFFF" stroke="#231F20" stroke-miterlimit="10" width="11.34" height="11.339"/>
<rect x="104.882" y="14.173" fill="#FFFFFF" stroke="#231F20" stroke-miterlimit="10" width="11.338" height="11.339"/>
<rect x="150.235" y="14.173" fill="#FFFFFF" stroke="#231F20" stroke-miterlimit="10" width="11.338" height="11.339"/>
<rect x="36.851" y="14.173" fill="#FFFFFF" stroke="#231F20" stroke-miterlimit="10" width="11.338" height="11.339"/>
<rect x="82.205" y="14.173" fill="#FFFFFF" stroke="#231F20" stroke-miterlimit="10" width="11.337" height="11.339"/>
<rect x="36.851" y="104.882" fill="#FFFFFF" stroke="#231F20" stroke-miterlimit="10" width="11.339" height="11.338"/>
<rect x="59.528" y="104.882" fill="#FFFFFF" stroke="#231F20" stroke-miterlimit="10" width="11.338" height="11.338"/>
<rect x="82.205" y="104.882" fill="#FFFFFF" stroke="#231F20" stroke-miterlimit="10" width="11.337" height="11.338"/>
<rect x="104.882" y="104.882" fill="#FFFFFF" stroke="#231F20" stroke-miterlimit="10" width="11.338" height="11.338"/>
<rect x="59.528" y="150.236" fill="#FFFFFF" stroke="#231F20" stroke-miterlimit="10" width="11.339" height="11.338"/>
<rect x="36.851" y="150.236" fill="#FFFFFF" stroke="#231F20" stroke-miterlimit="10" width="11.339" height="11.34"/>
<rect x="82.205" y="150.236" fill="#FFFFFF" stroke="#231F20" stroke-miterlimit="10" width="11.337" height="11.338"/>
<rect x="104.882" y="150.236" fill="#FFFFFF" stroke="#231F20" stroke-miterlimit="10" width="11.338" height="11.338"/>
<rect x="127.558" y="150.236" fill="#FFFFFF" stroke="#231F20" stroke-miterlimit="10" width="11.34" height="11.338"/>
<rect x="150.235" y="150.236" fill="#FFFFFF" stroke="#231F20" stroke-miterlimit="10" width="11.34" height="11.34"/>
<line fill="none" stroke="#231F20" stroke-miterlimit="10" x1="42.52" y1="116.22" x2="42.52" y2="150.236"/>
<line fill="none" stroke="#231F20" stroke-miterlimit="10" x1="65.197" y1="116.22" x2="65.197" y2="150.236"/>
<line fill="none" stroke="#231F20" stroke-miterlimit="10" x1="65.197" y1="48.189" x2="133.229" y2="110.551"/>
<line fill="none" stroke="#231F20" stroke-miterlimit="10" x1="110.551" y1="116.22" x2="110.551" y2="150.236"/>
<line fill="none" stroke="#231F20" stroke-miterlimit="10" x1="87.874" y1="116.22" x2="87.874" y2="150.236"/>
<line fill="none" stroke="#231F20" stroke-miterlimit="10" x1="155.905" y1="133.228" x2="155.905" y2="150.236"/>
<line fill="none" stroke="#231F20" stroke-miterlimit="10" x1="133.229" y1="150.236" x2="133.229" y2="110.551"/>
<line fill="none" stroke="#231F20" stroke-miterlimit="10" x1="25.512" y1="110.552" x2="36.851" y2="110.552"/>
<line fill="none" stroke="#231F20" stroke-miterlimit="10" x1="42.52" y1="19.843" x2="42.52" y2="36.85"/>
<line fill="none" stroke="#231F20" stroke-miterlimit="10" x1="87.874" y1="19.843" x2="87.874" y2="2.834"/>
<line fill="none" stroke="#231F20" stroke-miterlimit="10" x1="155.905" y1="19.843" x2="155.904" y2="2.834"/>
<line fill="none" stroke="#231F20" stroke-miterlimit="10" x1="155.905" y1="2.834" x2="2.835" y2="2.834"/>
<line fill="none" stroke="#231F20" stroke-miterlimit="10" x1="2.835" y1="2.834" x2="2.835" y2="70.866"/>
<line fill="none" stroke="#231F20" stroke-miterlimit="10" x1="19.843" y1="116.22" x2="19.843" y2="127.558"/>
<text transform="matrix(1 0 0 1 36.3403 175.7476)" fill="#060606" font-family="'MyriadPro-Regular'" font-size="8.5">Vcc</text>
<text transform="matrix(1 0 0 1 40.4683 113.3862)" fill="#060606" font-family="'MyriadPro-Regular'" font-size="8">1</text>
<text transform="matrix(1 0 0 1 63.1455 113.3862)" fill="#060606" font-family="'MyriadPro-Regular'" font-size="8">2</text>
<text transform="matrix(1 0 0 1 85.8228 113.3862)" fill="#060606" font-family="'MyriadPro-Regular'" font-size="8">3</text>
<text transform="matrix(1 0 0 1 108.5 113.3862)" fill="#060606" font-family="'MyriadPro-Regular'" font-size="8">4</text>
<text transform="matrix(1 0 0 1 108.5 45.354)" fill="#060606" font-family="'MyriadPro-Regular'" font-size="8">5</text>
<text transform="matrix(1 0 0 1 85.8228 45.354)" fill="#060606" font-family="'MyriadPro-Regular'" font-size="8">6</text>
<text transform="matrix(1 0 0 1 63.1455 45.354)" fill="#060606" font-family="'MyriadPro-Regular'" font-size="8">7</text>
<text transform="matrix(1 0 0 1 40.4683 45.354)" fill="#060606" font-family="'MyriadPro-Regular'" font-size="8">8</text>
<text transform="matrix(1 0 0 1 57.6963 175.7476)" fill="#060606" font-family="'MyriadPro-Regular'" font-size="8.5">Gnd</text>
<text transform="matrix(1 0 0 1 81.1978 175.7476)" fill="#060606" font-family="'MyriadPro-Regular'" font-size="8.5">Out</text>
<text transform="matrix(1 0 0 1 98.7793 175.7476)" fill="#060606" font-family="'MyriadPro-Regular'" font-size="8.5">Strobe</text>
<text transform="matrix(1 0 0 1 123.5938 175.7476)" fill="#060606" font-family="'MyriadPro-Regular'" font-size="8.5">Reset</text>
<text transform="matrix(1 0 0 1 152.5322 175.7476)" fill="#060606" font-family="'MyriadPro-Regular'" font-size="8.5">In</text>
<rect x="34.016" y="48.189" opacity="0.7" fill="#D1D2D3" width="85.04" height="56.693"/>
<text transform="matrix(1 0 0 1 51.0771 79.3701)" fill="#231F20" font-family="'MyriadPro-Regular'" font-size="14">MSGEQ7</text>
<line fill="none" stroke="#231F20" stroke-miterlimit="10" x1="116.22" y1="42.52" x2="133.229" y2="42.52"/>
<line fill="none" stroke="#231F20" stroke-miterlimit="10" x1="133.228" y1="87.874" x2="155.905" y2="42.52"/>
<line fill="none" stroke="#231F20" stroke-miterlimit="10" x1="87.875" y1="36.85" x2="110.552" y2="19.843"/>
<line fill="none" stroke="#231F20" stroke-miterlimit="10" x1="19.843" y1="19.842" x2="42.52" y2="19.842"/>
<line opacity="0.3" fill="none" stroke="#01A6EB" stroke-miterlimit="10" x1="19.843" y1="19.843" x2="19.843" y2="25.512"/>
<line opacity="0.3" fill="none" stroke="#01A6EB" stroke-miterlimit="10" x1="19.843" y1="104.881" x2="19.843" y2="110.549"/>
<line opacity="0.3" fill="none" stroke="#01A6EB" stroke-miterlimit="10" x1="155.905" y1="42.52" x2="155.905" y2="48.188"/>
<line opacity="0.3" fill="none" stroke="#01A6EB" stroke-miterlimit="10" x1="155.905" y1="127.558" x2="155.905" y2="133.226"/>
<line opacity="0.7" fill="none" stroke="#DF9A35" stroke-miterlimit="10" x1="42.521" y1="19.842" x2="48.189" y2="19.842"/>
<line opacity="0.7" fill="none" stroke="#DF9A35" stroke-miterlimit="10" x1="82.205" y1="19.842" x2="87.873" y2="19.842"/>
<line opacity="0.7" fill="none" stroke="#DF9A35" stroke-miterlimit="10" x1="110.554" y1="19.842" x2="116.222" y2="19.842"/>
<line opacity="0.7" fill="none" stroke="#DF9A35" stroke-miterlimit="10" x1="150.236" y1="19.842" x2="155.904" y2="19.842"/>
<line opacity="0.7" fill="none" stroke="#DF9A35" stroke-miterlimit="10" x1="133.229" y1="87.874" x2="133.229" y2="82.206"/>
<line opacity="0.7" fill="none" stroke="#DF9A35" stroke-miterlimit="10" x1="133.229" y1="48.191" x2="133.229" y2="42.523"/>
<rect x="25.512" y="124.724" opacity="0.7" fill="#E4A949" width="34.016" height="17.008"/>
<text transform="matrix(1 0 0 1 28.8823 136.062)" fill="#231F20" font-family="'MyriadPro-Regular'" font-size="12">0.1μF</text>
<line opacity="0.7" fill="none" stroke="#DF9A35" stroke-miterlimit="10" x1="59.529" y1="133.228" x2="65.197" y2="133.228"/>
<line opacity="0.7" fill="none" stroke="#DF9A35" stroke-miterlimit="10" x1="19.844" y1="133.228" x2="25.512" y2="133.228"/>
<rect x="124.724" y="48.188" opacity="0.7" fill="#E4A949" width="17.008" height="34.016"/>
<text transform="matrix(0 -1 1 0 137.4814 78.833)" fill="#231F20" font-family="'MyriadPro-Regular'" font-size="12">0.1μF</text>
<circle fill="#939496" cx="42.52" cy="99.59" r="2.459"/>
<rect x="11.339" y="25.512" opacity="0.3" fill="#1BAAE9" width="17.008" height="79.371"/>
<text transform="matrix(0 -1 1 0 160.1582 100.6304)" fill="#231F20" font-family="'MyriadPro-Regular'" font-size="12">22kΩ</text>
<text transform="matrix(0 -1 1 0 24.0947 73.7012)" fill="#231F20" font-family="'MyriadPro-Regular'" font-size="12">200kΩ</text>
</svg>
