<?xml version="1.0" encoding="utf-8"?>
<!-- Generator: Adobe Illustrator 15.0.0, SVG Export Plug-In . SVG Version: 6.00 Build 0)  -->
<!DOCTYPE svg PUBLIC "-//W3C//DTD SVG 1.1//EN" "http://www.w3.org/Graphics/SVG/1.1/DTD/svg11.dtd">
<svg version="1.1" id="Layer_1" xmlns="http://www.w3.org/2000/svg" xmlns:xlink="http://www.w3.org/1999/xlink" x="0px" y="0px"
	 width="504.696px" height="173.135px" viewBox="0 0 504.696 173.135" enable-background="new 0 0 504.696 173.135"
	 xml:space="preserve">
<line fill="none" stroke="#0895B5" stroke-width="10" stroke-miterlimit="10" x1="256.497" y1="93.23" x2="256.497" y2="169.953"/>
<g opacity="0.3">
	<g>
		<line fill="none" stroke="#32579F" stroke-width="2" stroke-miterlimit="10" x1="503.11" y1="96.064" x2="264.334" y2="101.684"/>
		<g>
			<polygon fill="#32579F" points="270.768,93.35 272.167,94.783 265.102,101.664 272.481,108.207 271.153,109.703 262.167,101.732 
							"/>
		</g>
	</g>
</g>
<g opacity="0.3">
	<g>
		
			<line fill="none" stroke="#32579F" stroke-width="2" stroke-miterlimit="10" x1="250.827" y1="118.742" x2="63.074" y2="124.348"/>
		<g>
			<polygon fill="#32579F" points="69.454,115.973 70.861,117.396 63.841,124.322 71.262,130.818 69.942,132.322 60.906,124.41 			
				"/>
		</g>
	</g>
</g>
<g opacity="0.3">
	<g>
		
			<line fill="none" stroke="#32579F" stroke-width="2" stroke-miterlimit="10" x1="262.167" y1="138.771" x2="500.942" y2="144.391"/>
		<g>
			<polygon fill="#32579F" points="494.124,152.412 492.795,150.916 500.174,144.375 493.112,137.492 494.508,136.059 
				503.11,144.443 			"/>
		</g>
	</g>
</g>
<g>
	<path fill="#010101" d="M359.224,133.522v3.383h3.909v-3.383h1.057v8.084h-1.057v-3.79h-3.909v3.79h-1.056v-8.084H359.224z"/>
	<path fill="#010101" d="M367.54,134.41h-2.459v-0.888h5.984v0.888h-2.471v7.196h-1.055V134.41z"/>
	<path fill="#010101" d="M373.959,134.41H371.5v-0.888h5.984v0.888h-2.471v7.196h-1.055V134.41z"/>
	<path fill="#010101" d="M378.388,133.619c0.503-0.084,1.163-0.156,2.003-0.156c1.031,0,1.787,0.24,2.267,0.672
		c0.432,0.384,0.708,0.972,0.708,1.69c0,0.732-0.217,1.308-0.624,1.728c-0.563,0.588-1.451,0.888-2.471,0.888
		c-0.312,0-0.6-0.013-0.839-0.072v3.238h-1.044V133.619z M379.432,137.517c0.227,0.061,0.516,0.084,0.863,0.084
		c1.259,0,2.026-0.624,2.026-1.715c0-1.079-0.768-1.596-1.907-1.596c-0.455,0-0.803,0.036-0.982,0.084V137.517z"/>
	<path fill="#010101" d="M387.316,133.631c0.528-0.096,1.296-0.168,2.003-0.168c1.115,0,1.847,0.216,2.338,0.659
		c0.396,0.36,0.637,0.912,0.637,1.548c0,1.056-0.672,1.763-1.512,2.051v0.036c0.611,0.216,0.983,0.791,1.176,1.631
		c0.264,1.127,0.455,1.907,0.623,2.219h-1.079c-0.132-0.24-0.312-0.924-0.528-1.931c-0.239-1.115-0.684-1.535-1.631-1.571h-0.982
		v3.502h-1.044V133.631z M388.36,137.313h1.066c1.115,0,1.823-0.611,1.823-1.535c0-1.043-0.755-1.499-1.858-1.499
		c-0.504,0-0.852,0.036-1.031,0.084V137.313z"/>
	<path fill="#010101" d="M394.372,138.896c0.023,1.428,0.924,2.016,1.99,2.016c0.756,0,1.224-0.132,1.607-0.3l0.191,0.755
		c-0.371,0.168-1.019,0.372-1.942,0.372c-1.787,0-2.854-1.188-2.854-2.938s1.031-3.118,2.723-3.118c1.906,0,2.398,1.655,2.398,2.723
		c0,0.216-0.012,0.372-0.035,0.491H394.372z M397.465,138.141c0.012-0.66-0.275-1.703-1.463-1.703c-1.08,0-1.535,0.972-1.619,1.703
		H397.465z"/>
	<path fill="#010101" d="M399.651,140.539c0.324,0.191,0.876,0.408,1.404,0.408c0.756,0,1.115-0.372,1.115-0.864
		c0-0.504-0.301-0.768-1.068-1.055c-1.055-0.384-1.547-0.948-1.547-1.644c0-0.936,0.768-1.703,2.004-1.703
		c0.587,0,1.104,0.156,1.414,0.36l-0.252,0.768c-0.227-0.145-0.646-0.349-1.187-0.349c-0.624,0-0.96,0.36-0.96,0.792
		c0,0.479,0.336,0.695,1.092,0.995c0.996,0.372,1.523,0.876,1.523,1.739c0,1.031-0.804,1.751-2.159,1.751
		c-0.636,0-1.224-0.168-1.632-0.407L399.651,140.539z"/>
	<path fill="#010101" d="M404.547,137.696c0-0.743-0.023-1.343-0.048-1.895h0.936l0.06,0.995h0.024
		c0.419-0.707,1.115-1.115,2.063-1.115c1.415,0,2.472,1.188,2.472,2.938c0,2.087-1.284,3.118-2.651,3.118
		c-0.768,0-1.439-0.336-1.787-0.911h-0.024v3.154h-1.043V137.696z M405.59,139.244c0,0.155,0.013,0.3,0.049,0.432
		c0.191,0.731,0.827,1.235,1.582,1.235c1.116,0,1.764-0.912,1.764-2.243c0-1.151-0.611-2.146-1.727-2.146
		c-0.721,0-1.404,0.504-1.596,1.295c-0.035,0.132-0.072,0.288-0.072,0.42V139.244z"/>
	<path fill="#010101" d="M416.629,138.656c0,2.146-1.5,3.082-2.891,3.082c-1.561,0-2.783-1.151-2.783-2.986
		c0-1.931,1.283-3.07,2.879-3.07C415.5,135.682,416.629,136.893,416.629,138.656z M412.036,138.716c0,1.271,0.719,2.231,1.75,2.231
		c1.008,0,1.764-0.948,1.764-2.255c0-0.983-0.492-2.219-1.738-2.219C412.575,136.474,412.036,137.625,412.036,138.716z"/>
	<path fill="#010101" d="M417.963,137.373c0-0.612-0.012-1.092-0.049-1.571h0.936l0.061,0.959h0.023
		c0.289-0.539,0.961-1.079,1.92-1.079c0.803,0,2.051,0.479,2.051,2.471v3.454h-1.055v-3.346c0-0.936-0.348-1.716-1.344-1.716
		c-0.684,0-1.225,0.492-1.416,1.08c-0.047,0.132-0.072,0.312-0.072,0.491v3.49h-1.055V137.373z"/>
	<path fill="#010101" d="M424.479,140.539c0.324,0.191,0.877,0.408,1.404,0.408c0.756,0,1.115-0.372,1.115-0.864
		c0-0.504-0.301-0.768-1.068-1.055c-1.055-0.384-1.547-0.948-1.547-1.644c0-0.936,0.768-1.703,2.004-1.703
		c0.588,0,1.104,0.156,1.414,0.36l-0.252,0.768c-0.227-0.145-0.646-0.349-1.188-0.349c-0.623,0-0.959,0.36-0.959,0.792
		c0,0.479,0.336,0.695,1.092,0.995c0.996,0.372,1.523,0.876,1.523,1.739c0,1.031-0.805,1.751-2.158,1.751
		c-0.637,0-1.225-0.168-1.633-0.407L424.479,140.539z"/>
	<path fill="#010101" d="M429.963,138.896c0.023,1.428,0.924,2.016,1.99,2.016c0.756,0,1.225-0.132,1.607-0.3l0.191,0.755
		c-0.371,0.168-1.02,0.372-1.941,0.372c-1.787,0-2.855-1.188-2.855-2.938s1.031-3.118,2.723-3.118c1.906,0,2.398,1.655,2.398,2.723
		c0,0.216-0.012,0.372-0.035,0.491H429.963z M433.057,138.141c0.012-0.66-0.275-1.703-1.463-1.703c-1.08,0-1.535,0.972-1.619,1.703
		H433.057z"/>
</g>
<g>
	<path fill="#010101" d="M129.618,110.657v8.084h-1.056v-8.084H129.618z"/>
	<path fill="#010101" d="M131.526,114.508c0-0.612-0.012-1.092-0.048-1.571h0.936l0.06,0.959h0.024
		c0.288-0.539,0.959-1.079,1.919-1.079c0.803,0,2.051,0.479,2.051,2.471v3.454h-1.056v-3.346c0-0.936-0.348-1.716-1.343-1.716
		c-0.684,0-1.223,0.492-1.415,1.08c-0.048,0.132-0.072,0.312-0.072,0.491v3.49h-1.056V114.508z"/>
	<path fill="#010101" d="M138.294,118.741v-5.001h-0.804v-0.804h0.804v-0.276c0-0.815,0.192-1.559,0.672-2.026
		c0.396-0.384,0.923-0.54,1.415-0.54c0.384,0,0.696,0.084,0.899,0.168l-0.144,0.815c-0.156-0.071-0.359-0.132-0.671-0.132
		c-0.899,0-1.127,0.779-1.127,1.68v0.312h1.403v0.804h-1.403v5.001H138.294z"/>
	<path fill="#010101" d="M141.69,114.747c0-0.684-0.012-1.271-0.048-1.811h0.923l0.048,1.151h0.036
		c0.264-0.779,0.912-1.271,1.619-1.271c0.108,0,0.192,0.012,0.288,0.024v0.995c-0.108-0.024-0.216-0.024-0.36-0.024
		c-0.744,0-1.271,0.552-1.416,1.344c-0.024,0.144-0.036,0.324-0.036,0.491v3.095h-1.056V114.747z"/>
	<path fill="#010101" d="M149.631,117.35c0,0.504,0.024,0.996,0.084,1.392h-0.947l-0.084-0.731h-0.036
		c-0.324,0.456-0.947,0.863-1.775,0.863c-1.175,0-1.775-0.827-1.775-1.667c0-1.403,1.247-2.171,3.49-2.159v-0.119
		c0-0.468-0.132-1.344-1.319-1.332c-0.551,0-1.115,0.156-1.523,0.432l-0.24-0.707c0.479-0.3,1.188-0.504,1.919-0.504
		c1.775,0,2.207,1.211,2.207,2.362V117.35z M148.612,115.779c-1.151-0.024-2.459,0.18-2.459,1.307c0,0.696,0.456,1.008,0.983,1.008
		c0.768,0,1.259-0.479,1.427-0.972c0.036-0.12,0.048-0.24,0.048-0.336V115.779z"/>
	<path fill="#010101" d="M151.338,114.747c0-0.684-0.012-1.271-0.048-1.811h0.923l0.048,1.151h0.036
		c0.264-0.779,0.912-1.271,1.619-1.271c0.108,0,0.192,0.012,0.288,0.024v0.995c-0.108-0.024-0.216-0.024-0.359-0.024
		c-0.744,0-1.271,0.552-1.416,1.344c-0.024,0.144-0.036,0.324-0.036,0.491v3.095h-1.056V114.747z"/>
	<path fill="#010101" d="M155.729,116.03c0.024,1.428,0.923,2.016,1.991,2.016c0.755,0,1.223-0.132,1.607-0.3l0.192,0.755
		c-0.372,0.168-1.019,0.372-1.943,0.372c-1.787,0-2.854-1.188-2.854-2.938s1.032-3.118,2.723-3.118c1.907,0,2.399,1.655,2.399,2.723
		c0,0.216-0.012,0.372-0.036,0.491H155.729z M158.824,115.275c0.012-0.66-0.276-1.703-1.463-1.703c-1.079,0-1.535,0.972-1.619,1.703
		H158.824z"/>
	<path fill="#010101" d="M166.155,110.226v7.017c0,0.516,0.024,1.104,0.048,1.499h-0.936l-0.048-1.008h-0.036
		c-0.312,0.648-1.007,1.14-1.955,1.14c-1.403,0-2.495-1.188-2.495-2.95c-0.012-1.931,1.2-3.106,2.603-3.106
		c0.9,0,1.487,0.42,1.751,0.876h0.024v-3.467H166.155z M165.111,115.299c0-0.132-0.012-0.312-0.048-0.443
		c-0.156-0.66-0.731-1.212-1.523-1.212c-1.091,0-1.739,0.96-1.739,2.231c0,1.175,0.588,2.146,1.715,2.146
		c0.708,0,1.355-0.479,1.547-1.259c0.036-0.145,0.048-0.288,0.048-0.456V115.299z"/>
	<path fill="#010101" d="M174.603,118.537c-0.276,0.132-0.887,0.336-1.667,0.336c-1.751,0-2.891-1.188-2.891-2.962
		c0-1.787,1.224-3.095,3.119-3.095c0.624,0,1.175,0.156,1.463,0.312l-0.24,0.804c-0.252-0.132-0.647-0.275-1.223-0.275
		c-1.332,0-2.051,0.995-2.051,2.194c0,1.344,0.864,2.171,2.015,2.171c0.6,0,0.996-0.144,1.295-0.275L174.603,118.537z"/>
	<path fill="#010101" d="M181.022,115.791c0,2.146-1.499,3.082-2.89,3.082c-1.559,0-2.783-1.151-2.783-2.986
		c0-1.931,1.284-3.07,2.878-3.07C179.896,112.816,181.022,114.027,181.022,115.791z M176.429,115.851
		c0,1.271,0.72,2.231,1.751,2.231c1.007,0,1.763-0.948,1.763-2.255c0-0.983-0.492-2.219-1.739-2.219
		C176.969,113.608,176.429,114.76,176.429,115.851z"/>
	<path fill="#010101" d="M187.359,110.226v7.017c0,0.516,0.023,1.104,0.048,1.499h-0.936l-0.048-1.008h-0.036
		c-0.312,0.648-1.008,1.14-1.955,1.14c-1.403,0-2.494-1.188-2.494-2.95c-0.013-1.931,1.199-3.106,2.603-3.106
		c0.899,0,1.487,0.42,1.751,0.876h0.023v-3.467H187.359z M186.315,115.299c0-0.132-0.012-0.312-0.048-0.443
		c-0.155-0.66-0.731-1.212-1.522-1.212c-1.092,0-1.739,0.96-1.739,2.231c0,1.175,0.587,2.146,1.715,2.146
		c0.708,0,1.355-0.479,1.547-1.259c0.036-0.145,0.048-0.288,0.048-0.456V115.299z"/>
	<path fill="#010101" d="M189.713,116.03c0.024,1.428,0.924,2.016,1.991,2.016c0.756,0,1.224-0.132,1.607-0.3l0.191,0.755
		c-0.372,0.168-1.02,0.372-1.942,0.372c-1.787,0-2.854-1.188-2.854-2.938s1.031-3.118,2.723-3.118c1.906,0,2.398,1.655,2.398,2.723
		c0,0.216-0.012,0.372-0.036,0.491H189.713z M192.808,115.275c0.012-0.66-0.276-1.703-1.463-1.703c-1.08,0-1.535,0.972-1.619,1.703
		H192.808z"/>
	<path fill="#010101" d="M194.993,117.674c0.324,0.191,0.876,0.408,1.403,0.408c0.756,0,1.115-0.372,1.115-0.864
		c0-0.504-0.3-0.768-1.067-1.055c-1.056-0.384-1.547-0.948-1.547-1.644c0-0.936,0.768-1.703,2.003-1.703
		c0.588,0,1.104,0.156,1.415,0.36l-0.252,0.768c-0.228-0.145-0.647-0.349-1.188-0.349c-0.623,0-0.959,0.36-0.959,0.792
		c0,0.479,0.336,0.695,1.091,0.995c0.996,0.372,1.523,0.876,1.523,1.739c0,1.031-0.804,1.751-2.159,1.751
		c-0.635,0-1.223-0.168-1.631-0.407L194.993,117.674z"/>
</g>
<g>
	<path fill="#010101" d="M313.87,88.168v3.383h3.91v-3.383h1.056v8.084h-1.056v-3.79h-3.91v3.79h-1.055v-8.084H313.87z"/>
	<path fill="#010101" d="M322.186,89.056h-2.459v-0.888h5.984v0.888h-2.471v7.196h-1.055V89.056z"/>
	<path fill="#010101" d="M328.606,89.056h-2.459v-0.888h5.984v0.888h-2.471v7.196h-1.055V89.056z"/>
	<path fill="#010101" d="M333.034,88.265c0.504-0.084,1.164-0.156,2.004-0.156c1.031,0,1.786,0.24,2.266,0.672
		c0.432,0.384,0.708,0.972,0.708,1.69c0,0.732-0.216,1.308-0.624,1.728c-0.563,0.588-1.451,0.888-2.471,0.888
		c-0.312,0-0.6-0.013-0.839-0.072v3.238h-1.044V88.265z M334.078,92.162c0.228,0.061,0.516,0.084,0.863,0.084
		c1.259,0,2.026-0.624,2.026-1.715c0-1.079-0.768-1.596-1.906-1.596c-0.456,0-0.804,0.036-0.983,0.084V92.162z"/>
	<path fill="#010101" d="M341.961,88.276c0.528-0.096,1.296-0.168,2.004-0.168c1.115,0,1.846,0.216,2.338,0.659
		c0.396,0.36,0.636,0.912,0.636,1.548c0,1.056-0.671,1.763-1.511,2.051v0.036c0.611,0.216,0.982,0.791,1.175,1.631
		c0.265,1.127,0.456,1.907,0.624,2.219h-1.08c-0.131-0.24-0.312-0.924-0.527-1.931c-0.24-1.115-0.684-1.535-1.631-1.571h-0.983
		v3.502h-1.044V88.276z M343.005,91.958h1.067c1.115,0,1.822-0.611,1.822-1.535c0-1.043-0.755-1.499-1.858-1.499
		c-0.504,0-0.852,0.036-1.031,0.084V91.958z"/>
	<path fill="#010101" d="M349.018,93.541c0.023,1.428,0.923,2.016,1.99,2.016c0.756,0,1.223-0.132,1.607-0.3l0.191,0.755
		c-0.371,0.168-1.02,0.372-1.943,0.372c-1.787,0-2.854-1.188-2.854-2.938s1.031-3.118,2.723-3.118c1.906,0,2.398,1.655,2.398,2.723
		c0,0.216-0.012,0.372-0.036,0.491H349.018z M352.112,92.786c0.012-0.66-0.275-1.703-1.463-1.703c-1.08,0-1.535,0.972-1.619,1.703
		H352.112z"/>
	<path fill="#010101" d="M358.399,95.364h-0.023c-0.324,0.563-0.959,1.02-1.895,1.02c-1.355,0-2.459-1.163-2.459-2.927
		c0-2.183,1.402-3.13,2.627-3.13c0.898,0,1.498,0.443,1.786,0.995h0.024l0.035-0.875h0.996c-0.023,0.479-0.048,0.995-0.048,1.595
		v6.585h-1.044V95.364z M358.399,92.798c0-0.144-0.012-0.3-0.048-0.432c-0.167-0.647-0.72-1.199-1.511-1.199
		c-1.092,0-1.752,0.923-1.752,2.219c0,1.163,0.553,2.158,1.716,2.158c0.684,0,1.271-0.419,1.511-1.139
		c0.049-0.156,0.084-0.36,0.084-0.516V92.798z"/>
	<path fill="#010101" d="M366.054,94.657c0,0.611,0.013,1.139,0.049,1.595h-0.936l-0.061-0.947h-0.023
		c-0.265,0.468-0.888,1.079-1.919,1.079c-0.912,0-2.004-0.516-2.004-2.543v-3.394h1.057v3.202c0,1.104,0.348,1.859,1.295,1.859
		c0.707,0,1.199-0.492,1.391-0.972c0.061-0.145,0.097-0.336,0.097-0.54v-3.55h1.055V94.657z"/>
	<path fill="#010101" d="M368.397,93.541c0.024,1.428,0.924,2.016,1.991,2.016c0.756,0,1.224-0.132,1.607-0.3l0.191,0.755
		c-0.372,0.168-1.02,0.372-1.942,0.372c-1.787,0-2.854-1.188-2.854-2.938s1.031-3.118,2.723-3.118c1.906,0,2.398,1.655,2.398,2.723
		c0,0.216-0.012,0.372-0.036,0.491H368.397z M371.492,92.786c0.012-0.66-0.276-1.703-1.463-1.703c-1.08,0-1.535,0.972-1.619,1.703
		H371.492z"/>
	<path fill="#010101" d="M373.677,95.185c0.324,0.191,0.876,0.408,1.403,0.408c0.756,0,1.115-0.372,1.115-0.864
		c0-0.504-0.3-0.768-1.067-1.055c-1.056-0.384-1.547-0.948-1.547-1.644c0-0.936,0.768-1.703,2.003-1.703
		c0.588,0,1.104,0.156,1.415,0.36l-0.252,0.768c-0.228-0.145-0.647-0.349-1.188-0.349c-0.623,0-0.959,0.36-0.959,0.792
		c0,0.479,0.336,0.695,1.091,0.995c0.996,0.372,1.523,0.876,1.523,1.739c0,1.031-0.804,1.751-2.159,1.751
		c-0.635,0-1.223-0.168-1.631-0.407L373.677,95.185z"/>
	<path fill="#010101" d="M379.844,89.056v1.392h1.512v0.804h-1.512v3.13c0,0.72,0.204,1.128,0.792,1.128
		c0.288,0,0.456-0.024,0.611-0.072l0.048,0.804c-0.203,0.071-0.527,0.144-0.936,0.144c-0.491,0-0.887-0.168-1.139-0.443
		c-0.288-0.324-0.408-0.84-0.408-1.523v-3.166h-0.899v-0.804h0.899v-1.079L379.844,89.056z"/>
	<path opacity="0.7" fill="#010101" d="M313.965,103.217c0,0.359-0.252,0.647-0.671,0.647c-0.384,0-0.636-0.288-0.636-0.647
		c0-0.36,0.264-0.66,0.66-0.66C313.702,102.557,313.965,102.845,313.965,103.217z M312.791,110.652v-5.805h1.056v5.805H312.791z"/>
	<path opacity="0.7" fill="#010101" d="M315.598,106.658c0-0.684-0.012-1.271-0.047-1.811h0.923l0.048,1.151h0.036
		c0.264-0.779,0.911-1.271,1.619-1.271c0.108,0,0.192,0.012,0.288,0.024v0.995c-0.108-0.024-0.217-0.024-0.359-0.024
		c-0.744,0-1.271,0.552-1.416,1.344c-0.023,0.144-0.035,0.324-0.035,0.491v3.095h-1.057V106.658z"/>
	<path opacity="0.7" fill="#010101" d="M318.635,110.028c0-0.432,0.299-0.755,0.719-0.755s0.708,0.312,0.708,0.755
		c0,0.433-0.288,0.756-0.731,0.756C318.922,110.784,318.635,110.461,318.635,110.028z"/>
	<path opacity="0.7" fill="#010101" d="M321.371,102.137h1.056v3.635h0.023c0.168-0.301,0.432-0.576,0.756-0.756
		c0.313-0.18,0.684-0.288,1.08-0.288c0.779,0,2.026,0.479,2.026,2.471v3.454h-1.056v-3.334c0-0.936-0.348-1.715-1.344-1.715
		c-0.684,0-1.211,0.479-1.414,1.043c-0.061,0.156-0.072,0.312-0.072,0.504v3.502h-1.056V102.137z"/>
	<path opacity="0.7" fill="#010101" d="M333.284,107.702c0,2.146-1.5,3.082-2.891,3.082c-1.559,0-2.783-1.151-2.783-2.986
		c0-1.931,1.284-3.07,2.879-3.07C332.157,104.728,333.284,105.938,333.284,107.702z M328.69,107.762c0,1.271,0.72,2.231,1.751,2.231
		c1.007,0,1.763-0.948,1.763-2.255c0-0.983-0.491-2.219-1.738-2.219C329.229,105.52,328.69,106.671,328.69,107.762z"/>
	<path opacity="0.7" fill="#010101" d="M334.618,106.419c0-0.612-0.023-1.092-0.047-1.571h0.923l0.048,0.947h0.036
		c0.323-0.552,0.864-1.067,1.835-1.067c0.779,0,1.379,0.479,1.631,1.163h0.024c0.18-0.336,0.419-0.575,0.659-0.755
		c0.348-0.265,0.72-0.408,1.271-0.408c0.779,0,1.919,0.504,1.919,2.519v3.406h-1.031v-3.274c0-1.127-0.42-1.787-1.259-1.787
		c-0.612,0-1.068,0.444-1.26,0.948c-0.048,0.155-0.084,0.335-0.084,0.527v3.586h-1.031v-3.479c0-0.923-0.408-1.583-1.211-1.583
		c-0.648,0-1.141,0.528-1.309,1.056c-0.059,0.144-0.084,0.336-0.084,0.516v3.49h-1.031V106.419z"/>
	<path opacity="0.7" fill="#010101" d="M345.213,107.941c0.024,1.428,0.924,2.016,1.991,2.016c0.755,0,1.224-0.132,1.606-0.3
		l0.192,0.755c-0.372,0.168-1.019,0.372-1.942,0.372c-1.787,0-2.855-1.188-2.855-2.938s1.032-3.118,2.723-3.118
		c1.907,0,2.399,1.655,2.399,2.723c0,0.216-0.013,0.372-0.036,0.491H345.213z M348.308,107.187c0.012-0.66-0.276-1.703-1.464-1.703
		c-1.079,0-1.535,0.972-1.619,1.703H348.308z"/>
	<path opacity="0.7" fill="#010101" d="M350.242,110.028c0-0.432,0.3-0.755,0.72-0.755s0.707,0.312,0.707,0.755
		c0,0.433-0.287,0.756-0.73,0.756C350.53,110.784,350.242,110.461,350.242,110.028z"/>
	<path opacity="0.7" fill="#010101" d="M357.979,102.137v7.017c0,0.516,0.023,1.104,0.048,1.499h-0.936l-0.048-1.008h-0.036
		c-0.312,0.648-1.007,1.14-1.955,1.14c-1.403,0-2.495-1.188-2.495-2.95c-0.012-1.931,1.2-3.106,2.604-3.106
		c0.899,0,1.486,0.42,1.751,0.876h0.024v-3.467H357.979z M356.936,107.21c0-0.132-0.013-0.312-0.049-0.443
		c-0.156-0.66-0.731-1.212-1.523-1.212c-1.091,0-1.738,0.96-1.738,2.231c0,1.175,0.588,2.146,1.715,2.146
		c0.707,0,1.355-0.479,1.547-1.259c0.036-0.145,0.049-0.288,0.049-0.456V107.21z"/>
	<path opacity="0.7" fill="#010101" d="M364.999,107.702c0,2.146-1.499,3.082-2.891,3.082c-1.559,0-2.782-1.151-2.782-2.986
		c0-1.931,1.284-3.07,2.878-3.07C363.872,104.728,364.999,105.938,364.999,107.702z M360.405,107.762
		c0,1.271,0.721,2.231,1.752,2.231c1.007,0,1.763-0.948,1.763-2.255c0-0.983-0.491-2.219-1.739-2.219
		C360.945,105.52,360.405,106.671,360.405,107.762z"/>
	<path opacity="0.7" fill="#010101" d="M366.333,106.419c0-0.612-0.024-1.092-0.049-1.571h0.924l0.048,0.947h0.036
		c0.324-0.552,0.863-1.067,1.835-1.067c0.779,0,1.379,0.479,1.631,1.163h0.024c0.18-0.336,0.42-0.575,0.659-0.755
		c0.349-0.265,0.72-0.408,1.271-0.408c0.779,0,1.919,0.504,1.919,2.519v3.406h-1.031v-3.274c0-1.127-0.42-1.787-1.26-1.787
		c-0.611,0-1.067,0.444-1.259,0.948c-0.048,0.155-0.084,0.335-0.084,0.527v3.586h-1.031v-3.479c0-0.923-0.408-1.583-1.212-1.583
		c-0.647,0-1.139,0.528-1.307,1.056c-0.061,0.144-0.084,0.336-0.084,0.516v3.49h-1.031V106.419z"/>
	<path opacity="0.7" fill="#010101" d="M380.418,109.261c0,0.504,0.024,0.996,0.084,1.392h-0.947l-0.084-0.731h-0.036
		c-0.324,0.456-0.947,0.863-1.775,0.863c-1.175,0-1.774-0.827-1.774-1.667c0-1.403,1.247-2.171,3.49-2.159v-0.119
		c0-0.468-0.132-1.344-1.319-1.332c-0.552,0-1.115,0.156-1.523,0.432l-0.24-0.707c0.48-0.3,1.188-0.504,1.919-0.504
		c1.775,0,2.207,1.211,2.207,2.362V109.261z M379.399,107.69c-1.151-0.024-2.458,0.18-2.458,1.307c0,0.696,0.455,1.008,0.983,1.008
		c0.768,0,1.259-0.479,1.427-0.972c0.036-0.12,0.048-0.24,0.048-0.336V107.69z"/>
	<path opacity="0.7" fill="#010101" d="M383.3,103.217c0,0.359-0.252,0.647-0.672,0.647c-0.384,0-0.636-0.288-0.636-0.647
		c0-0.36,0.265-0.66,0.66-0.66C383.037,102.557,383.3,102.845,383.3,103.217z M382.125,110.652v-5.805h1.055v5.805H382.125z"/>
	<path opacity="0.7" fill="#010101" d="M384.933,106.419c0-0.612-0.013-1.092-0.049-1.571h0.936l0.061,0.959h0.023
		c0.288-0.539,0.96-1.079,1.919-1.079c0.804,0,2.051,0.479,2.051,2.471v3.454h-1.055v-3.346c0-0.936-0.349-1.716-1.344-1.716
		c-0.684,0-1.224,0.492-1.415,1.08c-0.048,0.132-0.072,0.312-0.072,0.491v3.49h-1.055V106.419z"/>
	<path opacity="0.7" fill="#010101" d="M391.341,110.028c0-0.432,0.3-0.755,0.719-0.755c0.42,0,0.708,0.312,0.708,0.755
		c0,0.433-0.288,0.756-0.731,0.756C391.628,110.784,391.341,110.461,391.341,110.028z"/>
	<path opacity="0.7" fill="#010101" d="M398.214,110.448c-0.276,0.132-0.888,0.336-1.668,0.336c-1.751,0-2.89-1.188-2.89-2.962
		c0-1.787,1.223-3.095,3.118-3.095c0.623,0,1.175,0.156,1.463,0.312l-0.24,0.804c-0.251-0.132-0.647-0.275-1.223-0.275
		c-1.331,0-2.051,0.995-2.051,2.194c0,1.344,0.863,2.171,2.015,2.171c0.6,0,0.995-0.144,1.295-0.275L398.214,110.448z"/>
	<path opacity="0.7" fill="#010101" d="M404.634,107.702c0,2.146-1.499,3.082-2.891,3.082c-1.56,0-2.782-1.151-2.782-2.986
		c0-1.931,1.283-3.07,2.878-3.07C403.506,104.728,404.634,105.938,404.634,107.702z M400.041,107.762
		c0,1.271,0.72,2.231,1.751,2.231c1.008,0,1.763-0.948,1.763-2.255c0-0.983-0.491-2.219-1.738-2.219
		C400.581,105.52,400.041,106.671,400.041,107.762z"/>
	<path opacity="0.7" fill="#010101" d="M405.969,106.419c0-0.612-0.024-1.092-0.049-1.571h0.924l0.048,0.947h0.036
		c0.324-0.552,0.863-1.067,1.835-1.067c0.779,0,1.379,0.479,1.631,1.163h0.024c0.18-0.336,0.42-0.575,0.659-0.755
		c0.348-0.265,0.72-0.408,1.271-0.408c0.779,0,1.919,0.504,1.919,2.519v3.406h-1.031v-3.274c0-1.127-0.42-1.787-1.26-1.787
		c-0.611,0-1.067,0.444-1.259,0.948c-0.048,0.155-0.084,0.335-0.084,0.527v3.586h-1.031v-3.479c0-0.923-0.408-1.583-1.212-1.583
		c-0.647,0-1.139,0.528-1.307,1.056c-0.061,0.144-0.084,0.336-0.084,0.516v3.49h-1.031V106.419z"/>
	<path opacity="0.7" fill="#010101" d="M415.089,111.12l3.334-8.695h0.827l-3.357,8.695H415.089z"/>
	<path opacity="0.7" fill="#010101" d="M421.268,103.217c0,0.359-0.252,0.647-0.672,0.647c-0.384,0-0.636-0.288-0.636-0.647
		c0-0.36,0.265-0.66,0.66-0.66C421.004,102.557,421.268,102.845,421.268,103.217z M420.093,110.652v-5.805h1.055v5.805H420.093z"/>
	<path opacity="0.7" fill="#010101" d="M422.901,106.658c0-0.684-0.013-1.271-0.049-1.811h0.924l0.048,1.151h0.036
		c0.264-0.779,0.911-1.271,1.619-1.271c0.108,0,0.192,0.012,0.288,0.024v0.995c-0.108-0.024-0.216-0.024-0.36-0.024
		c-0.743,0-1.271,0.552-1.415,1.344c-0.023,0.144-0.036,0.324-0.036,0.491v3.095h-1.055V106.658z"/>
	<path opacity="0.7" fill="#010101" d="M431.921,110.652c-0.228-0.228-0.443-0.468-0.756-0.779
		c-0.695,0.636-1.463,0.911-2.362,0.911c-1.571,0-2.482-1.056-2.482-2.267c0-1.104,0.659-1.859,1.583-2.362v-0.036
		c-0.42-0.528-0.672-1.128-0.672-1.691c0-0.995,0.708-2.003,2.051-2.003c1.008,0,1.787,0.66,1.787,1.715
		c0,0.852-0.491,1.523-1.775,2.159v0.048c0.684,0.792,1.451,1.667,1.968,2.243c0.371-0.564,0.623-1.344,0.779-2.363H433
		c-0.216,1.271-0.563,2.279-1.163,2.986c0.432,0.468,0.852,0.924,1.331,1.439H431.921z M430.65,109.261
		c-0.479-0.527-1.379-1.511-2.278-2.555c-0.444,0.288-1.044,0.792-1.044,1.655c0,0.924,0.684,1.632,1.667,1.632
		C429.678,109.993,430.266,109.681,430.65,109.261z M428.192,104.32c0,0.587,0.275,1.031,0.611,1.463
		c0.815-0.468,1.343-0.899,1.343-1.596c0-0.491-0.275-1.043-0.947-1.043C428.54,103.145,428.192,103.696,428.192,104.32z"/>
	<path opacity="0.7" fill="#010101" d="M434.084,106.658c0-0.684-0.013-1.271-0.049-1.811h0.924l0.048,1.151h0.036
		c0.264-0.779,0.911-1.271,1.619-1.271c0.108,0,0.192,0.012,0.288,0.024v0.995c-0.108-0.024-0.216-0.024-0.36-0.024
		c-0.743,0-1.271,0.552-1.415,1.344c-0.023,0.144-0.036,0.324-0.036,0.491v3.095h-1.055V106.658z"/>
	<path opacity="0.7" fill="#010101" d="M438.475,107.941c0.024,1.428,0.924,2.016,1.991,2.016c0.756,0,1.224-0.132,1.607-0.3
		l0.191,0.755c-0.372,0.168-1.02,0.372-1.942,0.372c-1.787,0-2.854-1.188-2.854-2.938s1.031-3.118,2.723-3.118
		c1.906,0,2.398,1.655,2.398,2.723c0,0.216-0.012,0.372-0.036,0.491H438.475z M441.57,107.187c0.012-0.66-0.276-1.703-1.463-1.703
		c-1.08,0-1.535,0.972-1.619,1.703H441.57z"/>
	<path opacity="0.7" fill="#010101" d="M447.857,109.765h-0.023c-0.324,0.563-0.96,1.02-1.896,1.02
		c-1.354,0-2.458-1.163-2.458-2.927c0-2.183,1.403-3.13,2.626-3.13c0.899,0,1.499,0.443,1.787,0.995h0.024l0.036-0.875h0.995
		c-0.024,0.479-0.048,0.995-0.048,1.595v6.585h-1.044V109.765z M447.857,107.198c0-0.144-0.012-0.3-0.048-0.432
		c-0.168-0.647-0.72-1.199-1.511-1.199c-1.092,0-1.751,0.923-1.751,2.219c0,1.163,0.552,2.158,1.715,2.158
		c0.684,0,1.271-0.419,1.511-1.139c0.049-0.156,0.084-0.36,0.084-0.516V107.198z"/>
	<path opacity="0.7" fill="#010101" d="M450.259,106.61v-0.72h6.188v0.72H450.259z M450.259,108.961v-0.72h6.188v0.72H450.259z"/>
	<path opacity="0.7" fill="#010101" d="M457.808,106.742c0-0.743-0.024-1.343-0.049-1.895h0.936l0.061,0.995h0.023
		c0.42-0.707,1.115-1.115,2.063-1.115c1.415,0,2.471,1.188,2.471,2.938c0,2.087-1.283,3.118-2.651,3.118
		c-0.768,0-1.438-0.336-1.786-0.911h-0.024v3.154h-1.043V106.742z M458.851,108.29c0,0.155,0.012,0.3,0.048,0.432
		c0.192,0.731,0.828,1.235,1.583,1.235c1.115,0,1.764-0.912,1.764-2.243c0-1.151-0.612-2.146-1.728-2.146
		c-0.72,0-1.403,0.504-1.595,1.295c-0.036,0.132-0.072,0.288-0.072,0.42V108.29z"/>
	<path opacity="0.7" fill="#010101" d="M464.636,102.137h1.055v8.516h-1.055V102.137z"/>
	<path opacity="0.7" fill="#010101" d="M471.545,109.261c0,0.504,0.024,0.996,0.084,1.392h-0.947l-0.084-0.731h-0.036
		c-0.324,0.456-0.947,0.863-1.775,0.863c-1.175,0-1.774-0.827-1.774-1.667c0-1.403,1.247-2.171,3.49-2.159v-0.119
		c0-0.468-0.132-1.344-1.319-1.332c-0.552,0-1.115,0.156-1.523,0.432l-0.24-0.707c0.48-0.3,1.188-0.504,1.919-0.504
		c1.775,0,2.207,1.211,2.207,2.362V109.261z M470.526,107.69c-1.151-0.024-2.458,0.18-2.458,1.307c0,0.696,0.455,1.008,0.983,1.008
		c0.768,0,1.259-0.479,1.427-0.972c0.036-0.12,0.048-0.24,0.048-0.336V107.69z"/>
	<path opacity="0.7" fill="#010101" d="M473.541,104.848l1.259,3.43c0.144,0.384,0.288,0.84,0.384,1.188h0.024
		c0.107-0.348,0.228-0.791,0.371-1.211l1.151-3.406h1.115l-1.583,4.138c-0.755,1.991-1.271,2.998-1.99,3.634
		c-0.528,0.444-1.032,0.624-1.296,0.672l-0.264-0.876c0.264-0.084,0.611-0.252,0.924-0.516c0.288-0.228,0.636-0.636,0.888-1.175
		c0.048-0.108,0.084-0.192,0.084-0.252c0-0.061-0.024-0.145-0.084-0.276l-2.135-5.349H473.541z"/>
</g>
<g>
	<path fill="#010101" d="M234.056,77.914h-0.024l-1.355,0.731l-0.204-0.803l1.703-0.912h0.9v7.796h-1.02V77.914z"/>
	<path fill="#010101" d="M243.114,80.745c0,2.65-0.995,4.113-2.71,4.113c-1.523,0-2.567-1.427-2.591-4.006
		c0-2.626,1.14-4.054,2.723-4.054C242.167,76.799,243.114,78.262,243.114,80.745z M238.88,80.864c0,2.027,0.624,3.179,1.583,3.179
		c1.067,0,1.583-1.26,1.583-3.25c0-1.919-0.48-3.179-1.583-3.179C239.552,77.614,238.88,78.742,238.88,80.864z"/>
	<path fill="#010101" d="M244.161,84.103c0-0.432,0.3-0.755,0.72-0.755s0.708,0.312,0.708,0.755c0,0.433-0.288,0.756-0.732,0.756
		C244.449,84.858,244.161,84.535,244.161,84.103z"/>
	<path fill="#010101" d="M251.754,80.745c0,2.65-0.996,4.113-2.711,4.113c-1.523,0-2.566-1.427-2.591-4.006
		c0-2.626,1.14-4.054,2.723-4.054C250.806,76.799,251.754,78.262,251.754,80.745z M247.52,80.864c0,2.027,0.624,3.179,1.584,3.179
		c1.066,0,1.582-1.26,1.582-3.25c0-1.919-0.479-3.179-1.582-3.179C248.192,77.614,247.52,78.742,247.52,80.864z"/>
	<path fill="#010101" d="M252.8,84.103c0-0.432,0.3-0.755,0.72-0.755s0.707,0.312,0.707,0.755c0,0.433-0.287,0.756-0.73,0.756
		C253.088,84.858,252.8,84.535,252.8,84.103z"/>
	<path fill="#010101" d="M257.491,77.914h-0.023l-1.355,0.731l-0.203-0.803l1.702-0.912h0.899v7.796h-1.02V77.914z"/>
	<path fill="#010101" d="M261.44,84.103c0-0.432,0.3-0.755,0.72-0.755s0.708,0.312,0.708,0.755c0,0.433-0.288,0.756-0.732,0.756
		C261.728,84.858,261.44,84.535,261.44,84.103z"/>
	<path fill="#010101" d="M263.84,84.727v-0.647l0.827-0.804c1.991-1.895,2.902-2.902,2.902-4.078c0-0.791-0.372-1.522-1.535-1.522
		c-0.708,0-1.296,0.359-1.655,0.659l-0.336-0.743c0.528-0.444,1.308-0.792,2.195-0.792c1.68,0,2.387,1.151,2.387,2.267
		c0,1.439-1.043,2.603-2.687,4.186l-0.612,0.576v0.023h3.49v0.876H263.84z"/>
	<path fill="#010101" d="M270.248,83.527c0.3,0.18,0.983,0.479,1.728,0.479c1.343,0,1.774-0.852,1.763-1.511
		c-0.013-1.092-0.995-1.56-2.015-1.56h-0.588v-0.791h0.588c0.768,0,1.738-0.396,1.738-1.319c0-0.624-0.396-1.176-1.367-1.176
		c-0.623,0-1.223,0.276-1.559,0.516l-0.288-0.768c0.42-0.3,1.212-0.6,2.051-0.6c1.535,0,2.231,0.911,2.231,1.859
		c0,0.815-0.492,1.499-1.439,1.847v0.024c0.959,0.18,1.727,0.899,1.738,1.99c0,1.248-0.982,2.339-2.842,2.339
		c-0.875,0-1.643-0.275-2.027-0.527L270.248,83.527z"/>
	<path fill="#010101" d="M279.414,84.727v-2.135h-3.622v-0.684l3.479-4.978h1.139v4.846h1.092v0.815h-1.092v2.135H279.414z
		 M279.414,81.776v-2.603c0-0.408,0.013-0.815,0.036-1.224h-0.036c-0.239,0.456-0.432,0.792-0.647,1.151l-1.906,2.65v0.024H279.414z
		"/>
</g>
<g>
	<path fill-rule="evenodd" clip-rule="evenodd" fill="#B03C55" d="M121.69,84.914c1.172,2.143-1.282,1.373-3.555,1.779
		c-7.854,1.4-14.577,7.586-15.999,15.702c-0.236,1.346,0.812,3.074-0.889,4.148c-0.479,0.084-0.51-0.281-0.889-0.297
		c0-1.086,0-2.172,0-3.258c2.116-9.934,8.108-15.991,18.073-18.075C119.519,84.914,120.605,84.914,121.69,84.914z"/>
	<path fill-rule="evenodd" clip-rule="evenodd" fill="#B03C55" d="M121.987,94.1c-0.816,1.549-2.985,0.84-4.147,1.186
		c-4.894,1.453-7.005,5.879-8,11.258c-0.296,0-0.593,0-0.889,0c-0.157-0.238-0.308-0.48-0.295-0.889
		c0.37-5.883,3.723-10.32,9.184-11.852C119.004,93.477,121.348,92.25,121.987,94.1z"/>
</g>
<g enable-background="new    ">
	<path fill="#4079BD" d="M228.725,25.198V15.177h2.023v10.021H228.725z"/>
	<path fill="#4079BD" d="M232.683,25.198V15.177h4.259c1.071,0,1.849,0.09,2.335,0.271c0.484,0.18,0.873,0.5,1.165,0.96
		s0.438,0.986,0.438,1.579c0,0.752-0.221,1.373-0.663,1.863c-0.442,0.489-1.103,0.798-1.982,0.926
		c0.438,0.255,0.799,0.535,1.084,0.841c0.284,0.306,0.668,0.848,1.151,1.627l1.224,1.955h-2.42l-1.463-2.181
		c-0.52-0.779-0.875-1.271-1.066-1.473c-0.191-0.203-0.395-0.342-0.608-0.418c-0.214-0.074-0.554-0.112-1.019-0.112h-0.41v4.184
		H232.683z M234.706,19.415h1.497c0.971,0,1.577-0.041,1.818-0.123s0.431-0.224,0.567-0.424s0.205-0.451,0.205-0.752
		c0-0.337-0.09-0.609-0.27-0.817c-0.181-0.207-0.435-0.338-0.763-0.393c-0.164-0.022-0.656-0.034-1.477-0.034h-1.579V19.415z"/>
	<path fill="#4079BD" d="M253.321,25.198h-1.785v-1.066c-0.295,0.415-0.646,0.724-1.049,0.927c-0.404,0.202-0.811,0.304-1.221,0.304
		c-0.834,0-1.549-0.336-2.143-1.009c-0.596-0.672-0.893-1.609-0.893-2.813c0-1.23,0.289-2.166,0.869-2.807
		c0.578-0.64,1.311-0.96,2.193-0.96c0.813,0,1.514,0.337,2.105,1.012v-3.609h1.922V25.198z M248.194,21.411
		c0,0.774,0.107,1.335,0.32,1.682c0.311,0.501,0.744,0.752,1.299,0.752c0.443,0,0.818-0.188,1.129-0.563
		c0.309-0.377,0.465-0.938,0.465-1.686c0-0.834-0.15-1.435-0.451-1.801c-0.301-0.367-0.686-0.551-1.156-0.551
		c-0.455,0-0.838,0.182-1.145,0.543C248.346,20.15,248.194,20.691,248.194,21.411z"/>
	<path fill="#4079BD" d="M259.418,22.888l1.914,0.321c-0.246,0.702-0.635,1.236-1.166,1.604c-0.531,0.366-1.195,0.55-1.992,0.55
		c-1.264,0-2.197-0.412-2.803-1.237c-0.479-0.661-0.719-1.495-0.719-2.502c0-1.203,0.314-2.146,0.943-2.826
		c0.629-0.682,1.424-1.022,2.387-1.022c1.08,0,1.932,0.356,2.557,1.069c0.623,0.714,0.922,1.807,0.895,3.278h-4.813
		c0.014,0.569,0.17,1.013,0.465,1.329c0.297,0.317,0.666,0.476,1.107,0.476c0.301,0,0.555-0.082,0.76-0.246
		S259.313,23.252,259.418,22.888z M259.528,20.946c-0.014-0.556-0.158-0.979-0.432-1.269c-0.273-0.289-0.605-0.434-0.998-0.434
		c-0.418,0-0.766,0.152-1.039,0.458s-0.408,0.72-0.402,1.244H259.528z"/>
	<path fill="#4079BD" d="M264.997,25.198l-2.926-7.26h2.016l1.367,3.705l0.396,1.237c0.105-0.314,0.172-0.521,0.199-0.622
		c0.063-0.205,0.131-0.41,0.205-0.615l1.381-3.705h1.975l-2.885,7.26H264.997z"/>
	<path fill="#4079BD" d="M270.786,16.954v-1.777h1.922v1.777H270.786z M270.786,25.198v-7.26h1.922v7.26H270.786z"/>
	<path fill="#4079BD" d="M281.006,20.085l-1.895,0.342c-0.063-0.378-0.209-0.663-0.434-0.854c-0.227-0.191-0.518-0.287-0.879-0.287
		c-0.479,0-0.859,0.165-1.145,0.496c-0.285,0.33-0.428,0.883-0.428,1.657c0,0.861,0.145,1.47,0.434,1.825
		c0.291,0.355,0.68,0.533,1.166,0.533c0.365,0,0.664-0.104,0.896-0.311c0.232-0.208,0.396-0.564,0.492-1.07l1.887,0.321
		c-0.197,0.866-0.572,1.52-1.129,1.962c-0.555,0.442-1.301,0.663-2.234,0.663c-1.063,0-1.908-0.335-2.541-1.005
		c-0.631-0.67-0.945-1.598-0.945-2.782c0-1.198,0.316-2.132,0.949-2.8c0.635-0.667,1.49-1.001,2.57-1.001
		c0.885,0,1.588,0.19,2.109,0.571C280.403,18.726,280.778,19.306,281.006,20.085z"/>
	<path fill="#4079BD" d="M286.667,22.888l1.914,0.321c-0.246,0.702-0.635,1.236-1.166,1.604c-0.531,0.366-1.195,0.55-1.992,0.55
		c-1.264,0-2.197-0.412-2.803-1.237c-0.479-0.661-0.719-1.495-0.719-2.502c0-1.203,0.314-2.146,0.943-2.826
		c0.629-0.682,1.424-1.022,2.387-1.022c1.08,0,1.932,0.356,2.557,1.069c0.623,0.714,0.922,1.807,0.895,3.278h-4.813
		c0.014,0.569,0.17,1.013,0.465,1.329c0.297,0.317,0.666,0.476,1.107,0.476c0.301,0,0.555-0.082,0.76-0.246
		S286.561,23.252,286.667,22.888z M286.776,20.946c-0.014-0.556-0.158-0.979-0.432-1.269c-0.273-0.289-0.605-0.434-0.998-0.434
		c-0.418,0-0.766,0.152-1.039,0.458s-0.408,0.72-0.402,1.244H286.776z"/>
</g>
<g>
	<g id="Chip">
		<polygon fill="#010101" points="275.325,33.927 276.295,34.9 276.295,69.234 275.325,70.207 240.99,70.205 240.019,69.234 
			240.019,34.9 240.99,33.927 		"/>
		<rect x="241.314" y="35.224" fill="#333333" width="33.684" height="33.686"/>
		<polygon fill="#272626" points="275,68.91 272.409,66.318 243.905,66.318 243.905,37.816 241.314,35.224 241.314,68.91 		"/>
		<path fill="#676767" d="M277.592,65.023h-3.24c0,0-0.646,0-0.646,0.648c0,0.646,0.648,0.646,0.648,0.646h3.238V65.023z"/>
		<path fill="#676767" d="M277.592,61.136h-3.24c0,0-0.646,0-0.646,0.648c0,0.646,0.648,0.646,0.648,0.646h3.238V61.136z"/>
		<path fill="#676767" d="M277.592,57.25h-3.24c0,0-0.646,0-0.646,0.648c0,0.646,0.648,0.646,0.648,0.646h3.238V57.25z"/>
		<path fill="#676767" d="M277.592,53.363h-3.24c0,0-0.646,0-0.646,0.646c0,0.648,0.648,0.648,0.648,0.648h3.238V53.363z"/>
		<path fill="#676767" d="M277.592,49.474h-3.24c0,0-0.646,0-0.646,0.648s0.648,0.648,0.648,0.648h3.238V49.474z"/>
		<path fill="#676767" d="M277.592,45.589h-3.24c0,0-0.646,0-0.646,0.646c0,0.648,0.646,0.648,0.646,0.648h3.24V45.589z"/>
		<path fill="#676767" d="M277.592,41.703h-3.24c0,0-0.646,0-0.646,0.646c0,0.648,0.646,0.648,0.646,0.648h3.24V41.703z"/>
		<path fill="#676767" d="M277.592,37.816h-3.24c0,0-0.646,0-0.646,0.646c0,0.648,0.646,0.648,0.646,0.648h3.24V37.816z"/>
		<path fill="#676767" d="M238.723,39.111h3.239c0,0,0.648,0,0.648-0.648c0-0.646-0.648-0.646-0.648-0.646h-3.239V39.111z"/>
		<path fill="#676767" d="M238.723,42.998h3.239c0,0,0.648,0,0.648-0.648c0-0.646-0.649-0.646-0.649-0.646h-3.238V42.998z"/>
		<path fill="#676767" d="M238.723,46.884h3.239c0,0,0.648,0,0.648-0.648c0-0.646-0.648-0.646-0.648-0.646h-3.239V46.884z"/>
		<path fill="#676767" d="M238.723,50.771h3.24c0,0,0.647,0,0.647-0.648c0-0.646-0.647-0.648-0.647-0.648l-3.24,0.002V50.771z"/>
		<path fill="#676767" d="M238.723,54.658h3.24c0,0,0.647,0,0.647-0.648c0-0.646-0.647-0.646-0.647-0.646h-3.24V54.658z"/>
		<path fill="#676767" d="M238.723,58.544h3.239c0,0,0.648,0,0.648-0.646c0-0.648-0.647-0.648-0.647-0.648h-3.24V58.544z"/>
		<path fill="#676767" d="M238.723,62.431h3.239c0,0,0.648,0,0.648-0.646c0-0.648-0.648-0.648-0.648-0.648h-3.239V62.431z"/>
		<path fill="#676767" d="M238.723,66.318h3.239c0,0,0.648,0,0.648-0.646c0-0.648-0.647-0.648-0.647-0.648h-3.24V66.318z"/>
		<path fill="#676767" d="M271.114,32.632v3.24c0,0,0,0.646,0.648,0.646c0.646,0,0.646-0.648,0.646-0.648v-3.238H271.114z"/>
		<path fill="#676767" d="M267.227,32.632v3.24c0,0,0,0.646,0.646,0.646c0.648,0,0.648-0.648,0.648-0.648v-3.238H267.227z"/>
		<path fill="#676767" d="M263.34,32.632v3.24c0,0,0,0.646,0.646,0.646c0.648,0,0.648-0.648,0.648-0.648v-3.238H263.34z"/>
		<path fill="#676767" d="M259.454,32.632v3.24c0,0,0,0.646,0.646,0.646c0.648,0,0.648-0.648,0.648-0.648v-3.238H259.454z"/>
		<path fill="#676767" d="M255.567,32.632v3.24c0,0,0,0.646,0.646,0.646c0.648,0,0.648-0.646,0.648-0.646v-3.24H255.567z"/>
		<path fill="#676767" d="M251.678,32.632v3.24c0,0,0.002,0.646,0.648,0.646c0.648,0,0.648-0.646,0.648-0.646v-3.24H251.678z"/>
		<path fill="#676767" d="M247.792,32.632v3.24c0,0,0,0.646,0.648,0.646s0.648-0.646,0.648-0.646v-3.24H247.792z"/>
		<path fill="#676767" d="M243.905,32.632v3.24c0,0,0,0.646,0.648,0.646s0.648-0.646,0.648-0.646v-3.24H243.905z"/>
		<path fill="#676767" d="M245.202,71.501v-3.24c0,0,0-0.646-0.648-0.646s-0.648,0.646-0.648,0.646v3.24H245.202z"/>
		<path fill="#676767" d="M249.088,71.501v-3.24c0,0,0-0.646-0.648-0.646s-0.648,0.646-0.648,0.646v3.24H249.088z"/>
		<path fill="#676767" d="M252.975,71.501v-3.24c0,0,0-0.646-0.648-0.646c-0.646,0-0.646,0.646-0.646,0.646v3.24H252.975z"/>
		<path fill="#676767" d="M256.862,71.501v-3.24c0,0,0-0.646-0.648-0.646c-0.646,0-0.646,0.646-0.646,0.646v3.24H256.862z"/>
		<path fill="#676767" d="M260.749,71.501v-3.24c0,0,0-0.646-0.648-0.646c-0.646,0-0.646,0.646-0.646,0.646v3.24H260.749z"/>
		<path fill="#676767" d="M264.635,71.501v-3.24c0,0,0-0.646-0.648-0.646c-0.646,0-0.646,0.646-0.646,0.646v3.24H264.635z"/>
		<path fill="#676767" d="M268.522,71.501v-3.24c0,0,0-0.646-0.648-0.646c-0.646,0-0.646,0.646-0.646,0.646v3.24H268.522z"/>
		<path fill="#676767" d="M272.409,71.501v-3.24c0,0,0-0.646-0.646-0.646c-0.648,0-0.648,0.646-0.648,0.646v3.24H272.409z"/>
		<rect x="271.114" y="33.927" fill="#CDCCCC" width="1.295" height="1.297"/>
		<rect x="267.227" y="33.927" fill="#CDCCCC" width="1.295" height="1.297"/>
		<rect x="263.342" y="33.927" fill="#CDCCCC" width="1.295" height="1.297"/>
		<rect x="259.454" y="33.927" fill="#CDCCCC" width="1.297" height="1.297"/>
		<rect x="255.567" y="33.927" fill="#CDCCCC" width="1.295" height="1.297"/>
		<rect x="251.682" y="33.929" fill="#CDCCCC" width="1.297" height="1.295"/>
		<rect x="247.79" y="33.927" fill="#CDCCCC" width="1.297" height="1.295"/>
		<rect x="243.905" y="33.927" fill="#CDCCCC" width="1.297" height="1.297"/>
		<rect x="271.116" y="68.91" fill="#CDCCCC" width="1.295" height="1.295"/>
		<rect x="267.231" y="68.912" fill="#CDCCCC" width="1.297" height="1.295"/>
		<rect x="263.34" y="68.91" fill="#CDCCCC" width="1.295" height="1.295"/>
		<rect x="259.454" y="68.91" fill="#CDCCCC" width="1.295" height="1.295"/>
		<rect x="255.567" y="68.91" fill="#CDCCCC" width="1.295" height="1.295"/>
		<rect x="251.684" y="68.912" fill="#CDCCCC" width="1.295" height="1.295"/>
		<rect x="247.793" y="68.91" fill="#CDCCCC" width="1.295" height="1.295"/>
		<rect x="243.899" y="68.904" fill="#CDCCCC" width="1.295" height="1.295"/>
		<rect x="240.02" y="37.814" fill="#CDCCCC" width="1.295" height="1.295"/>
		<rect x="240.016" y="41.703" fill="#CDCCCC" width="1.297" height="1.297"/>
		<rect x="240.02" y="45.585" fill="#CDCCCC" width="1.297" height="1.297"/>
		<rect x="240.014" y="49.48" fill="#CDCCCC" width="1.296" height="1.295"/>
		<rect x="240.021" y="53.359" fill="#CDCCCC" width="1.296" height="1.297"/>
		<rect x="240.013" y="57.254" fill="#CDCCCC" width="1.296" height="1.297"/>
		<rect x="240.021" y="61.132" fill="#CDCCCC" width="1.296" height="1.297"/>
		<rect x="240.023" y="65.017" fill="#CDCCCC" width="1.295" height="1.295"/>
		<rect x="275" y="37.812" fill="#CDCCCC" width="1.295" height="1.297"/>
		<rect x="274.999" y="41.707" fill="#CDCCCC" width="1.297" height="1.295"/>
		<rect x="275" y="45.589" fill="#CDCCCC" width="1.295" height="1.297"/>
		<rect x="274.999" y="49.48" fill="#CDCCCC" width="1.297" height="1.295"/>
		<rect x="275" y="53.363" fill="#CDCCCC" width="1.295" height="1.295"/>
		<rect x="275" y="57.248" fill="#CDCCCC" width="1.295" height="1.295"/>
		<rect x="275" y="61.136" fill="#CDCCCC" width="1.295" height="1.295"/>
		<rect x="274.999" y="65.025" fill="#CDCCCC" width="1.297" height="1.297"/>
		<rect x="271.112" y="32.632" fill="#FFFFFF" width="1.297" height="1.295"/>
		<rect x="267.227" y="32.632" fill="#FFFFFF" width="1.295" height="1.295"/>
		<rect x="263.338" y="32.632" fill="#FFFFFF" width="1.295" height="1.295"/>
		<rect x="259.45" y="32.632" fill="#FFFFFF" width="1.297" height="1.295"/>
		<rect x="255.567" y="32.632" fill="#FFFFFF" width="1.295" height="1.295"/>
		<rect x="251.676" y="32.632" fill="#FFFFFF" width="1.297" height="1.295"/>
		<rect x="247.797" y="32.634" fill="#FFFFFF" width="1.295" height="1.295"/>
		<rect x="243.907" y="32.632" fill="#FFFFFF" width="1.295" height="1.297"/>
		<rect x="271.114" y="70.205" fill="#FFFFFF" width="1.297" height="1.295"/>
		<rect x="267.227" y="70.205" fill="#FFFFFF" width="1.295" height="1.295"/>
		<rect x="263.34" y="70.205" fill="#FFFFFF" width="1.295" height="1.295"/>
		<rect x="259.45" y="70.203" fill="#FFFFFF" width="1.295" height="1.295"/>
		<rect x="255.567" y="70.205" fill="#FFFFFF" width="1.295" height="1.295"/>
		<rect x="251.68" y="70.205" fill="#FFFFFF" width="1.295" height="1.295"/>
		<rect x="247.79" y="70.203" fill="#FFFFFF" width="1.295" height="1.295"/>
		<rect x="243.911" y="70.207" fill="#FFFFFF" width="1.295" height="1.297"/>
		<rect x="238.721" y="37.818" fill="#FFFFFF" width="1.295" height="1.295"/>
		<rect x="238.727" y="41.697" fill="#FFFFFF" width="1.295" height="1.297"/>
		<rect x="238.719" y="45.593" fill="#FFFFFF" width="1.295" height="1.295"/>
		<rect x="238.727" y="49.47" fill="#FFFFFF" width="1.296" height="1.295"/>
		<rect x="238.721" y="53.365" fill="#FFFFFF" width="1.295" height="1.295"/>
		<rect x="238.717" y="57.253" fill="#FFFFFF" width="1.296" height="1.297"/>
		<rect x="238.723" y="61.136" fill="#FFFFFF" width="1.295" height="1.295"/>
		<rect x="238.725" y="65.019" fill="#FFFFFF" width="1.297" height="1.297"/>
		<rect x="276.295" y="37.812" fill="#FFFFFF" width="1.297" height="1.295"/>
		<rect x="276.295" y="41.701" fill="#FFFFFF" width="1.297" height="1.295"/>
		<rect x="276.295" y="45.589" fill="#FFFFFF" width="1.297" height="1.295"/>
		<rect x="276.295" y="49.472" fill="#FFFFFF" width="1.297" height="1.295"/>
		<rect x="276.295" y="53.365" fill="#FFFFFF" width="1.295" height="1.295"/>
		<rect x="276.295" y="57.251" fill="#FFFFFF" width="1.295" height="1.295"/>
		<rect x="276.295" y="61.136" fill="#FFFFFF" width="1.297" height="1.295"/>
		<rect x="276.295" y="65.023" fill="#FFFFFF" width="1.295" height="1.295"/>
		<g id="shade2">
			<polygon fill="#829EB8" points="252.975,32.632 251.68,31.337 250.383,31.337 250.383,33.927 251.68,33.927 251.678,32.632 			
				"/>
			<polygon fill="#829EB8" points="249.088,32.632 247.792,31.337 246.497,31.337 246.497,33.927 247.792,33.927 247.792,32.632 			
				"/>
			<polygon fill="#829EB8" points="245.202,32.632 243.905,31.337 242.61,31.337 242.61,33.927 243.905,33.927 243.905,32.632 			
				"/>
			<polygon fill="#829EB8" points="264.635,32.632 263.34,31.337 262.045,31.335 262.045,33.927 263.34,33.927 263.34,32.632 			"/>
			<polygon fill="#829EB8" points="260.749,32.632 259.454,31.337 258.159,31.335 258.159,33.927 259.454,33.927 259.454,32.632 			
				"/>
			<polygon fill="#829EB8" points="272.409,32.632 271.114,31.335 269.819,31.337 269.819,33.927 271.114,33.927 271.114,32.632 			
				"/>
			<polygon fill="#829EB8" points="268.522,32.632 267.227,31.337 265.932,31.335 265.932,33.927 267.227,33.927 267.227,32.632 			
				"/>
			<polygon fill="#829EB8" points="256.862,32.632 255.567,31.337 254.27,31.337 254.27,33.927 255.567,33.927 255.567,32.632 			
				"/>
			<polygon fill="#829EB8" points="238.723,57.25 237.428,58.544 237.428,59.841 240.019,59.841 240.019,58.544 238.723,58.544 			
				"/>
			<polygon fill="#829EB8" points="238.723,61.136 237.428,62.431 237.428,63.728 240.019,63.728 240.019,62.431 238.723,62.431 			
				"/>
			<polygon fill="#829EB8" points="238.723,65.023 237.428,66.318 237.428,67.615 240.019,67.615 240.019,66.318 238.723,66.318 			
				"/>
			<polygon fill="#829EB8" points="238.723,45.589 237.428,46.884 237.428,48.179 240.019,48.179 240.019,46.884 238.723,46.884 			
				"/>
			<polygon fill="#829EB8" points="238.723,49.474 237.428,50.771 237.428,52.068 240.019,52.068 240.018,50.771 238.723,50.771 			
				"/>
			<polygon fill="#829EB8" points="238.723,37.814 237.428,39.111 237.428,40.406 240.019,40.406 240.019,39.111 238.723,39.111 			
				"/>
			<polygon fill="#829EB8" points="238.723,41.703 237.428,42.998 237.428,44.292 240.019,44.292 240.019,42.998 238.723,42.998 			
				"/>
			<polygon fill="#829EB8" points="238.723,53.363 237.428,54.658 237.428,55.955 240.019,55.955 240.019,54.658 238.723,54.658 			
				"/>
			<polygon fill="#829EB8" points="252.975,71.501 251.68,72.796 250.383,72.796 250.383,70.207 251.68,70.205 251.68,71.501 			"/>
			<polygon fill="#829EB8" points="249.088,71.501 247.792,72.796 246.497,72.796 246.497,70.205 247.792,70.207 247.792,71.501 			
				"/>
			<polygon fill="#829EB8" points="245.202,71.501 243.905,72.796 242.61,72.796 242.61,70.207 243.905,70.205 243.905,71.501 			
				"/>
			<polygon fill="#829EB8" points="264.635,71.501 263.34,72.796 262.043,72.796 262.045,70.207 263.34,70.205 263.34,71.501 			"/>
			<polygon fill="#829EB8" points="260.749,71.501 259.454,72.796 258.159,72.796 258.159,70.205 259.454,70.207 259.454,71.501 			
				"/>
			<polygon fill="#829EB8" points="272.409,71.501 271.114,72.796 269.819,72.796 269.819,70.207 271.114,70.205 271.114,71.501 			
				"/>
			<polygon fill="#829EB8" points="268.522,71.501 267.227,72.796 265.932,72.796 265.932,70.205 267.227,70.207 267.227,71.501 			
				"/>
			<polygon fill="#829EB8" points="256.862,71.501 255.567,72.796 254.27,72.796 254.27,70.207 255.567,70.205 255.567,71.501 			
				"/>
			<polygon fill="#829EB8" points="277.592,57.25 278.887,58.544 278.887,59.841 276.295,59.841 276.295,58.544 277.592,58.544 			
				"/>
			<polygon fill="#829EB8" points="277.592,61.136 278.887,62.431 278.887,63.728 276.295,63.728 276.295,62.431 277.592,62.431 			
				"/>
			<polygon fill="#829EB8" points="277.592,65.023 278.887,66.318 278.887,67.615 276.295,67.615 276.295,66.318 277.592,66.318 			
				"/>
			<polygon fill="#829EB8" points="277.592,45.589 278.887,46.884 278.887,48.179 276.295,48.179 276.295,46.884 277.592,46.884 			
				"/>
			<polygon fill="#829EB8" points="277.592,49.474 278.887,50.771 278.887,52.068 276.295,52.068 276.295,50.771 277.592,50.771 			
				"/>
			<polygon fill="#829EB8" points="277.592,37.816 278.887,39.111 278.887,40.406 276.295,40.406 276.295,39.111 277.592,39.111 			
				"/>
			<polygon fill="#829EB8" points="277.592,41.703 278.887,42.998 278.887,44.292 276.295,44.292 276.295,42.998 277.592,42.998 			
				"/>
			<polygon fill="#829EB8" points="277.592,53.363 278.887,54.658 278.887,55.955 276.295,55.955 276.295,54.658 277.592,54.658 			
				"/>
		</g>
		<g id="shade1">
			<polygon fill="#3C5A7B" points="252.002,32.632 251.68,32.308 251.356,32.308 250.383,33.281 250.383,33.927 251.68,33.927 
				251.678,32.632 			"/>
			<polygon fill="#3C5A7B" points="248.116,32.632 247.792,32.308 247.469,32.308 246.497,33.281 246.497,33.927 247.792,33.927 
				247.792,32.632 			"/>
			<polygon fill="#3C5A7B" points="244.229,32.632 243.905,32.308 243.583,32.308 242.61,33.281 242.61,33.927 243.905,33.927 
				243.905,32.632 			"/>
			<polygon fill="#3C5A7B" points="263.665,32.632 263.34,32.308 263.016,32.308 262.045,33.281 262.045,33.927 263.34,33.927 
				263.34,32.632 			"/>
			<polygon fill="#3C5A7B" points="259.776,32.632 259.454,32.308 259.129,32.308 258.159,33.281 258.159,33.927 259.454,33.927 
				259.454,32.632 			"/>
			<polygon fill="#3C5A7B" points="271.438,32.632 271.114,32.308 270.79,32.308 269.819,33.281 269.819,33.927 271.114,33.927 
				271.114,32.632 			"/>
			<polygon fill="#3C5A7B" points="267.551,32.632 267.227,32.308 266.903,32.308 265.932,33.281 265.932,33.927 267.227,33.927 
				267.227,32.632 			"/>
			<polygon fill="#3C5A7B" points="255.891,32.632 255.567,32.308 255.243,32.308 254.27,33.281 254.27,33.927 255.567,33.927 
				255.567,32.632 			"/>
			<polygon fill="#3C5A7B" points="238.723,58.22 238.398,58.544 238.398,58.869 239.371,59.841 240.019,59.841 240.019,58.544 
				238.723,58.544 			"/>
			<polygon fill="#3C5A7B" points="238.723,62.109 238.398,62.431 238.398,62.755 239.37,63.728 240.019,63.728 240.019,62.431 
				238.723,62.431 			"/>
			<polygon fill="#3C5A7B" points="238.723,65.994 238.398,66.318 238.398,66.642 239.371,67.615 240.019,67.615 240.019,66.318 
				238.723,66.318 			"/>
			<polygon fill="#3C5A7B" points="238.723,46.56 238.398,46.884 238.398,47.208 239.371,48.179 240.019,48.179 240.019,46.884 
				238.723,46.884 			"/>
			<polygon fill="#3C5A7B" points="238.723,50.447 238.398,50.771 238.398,51.095 239.371,52.068 240.019,52.068 240.018,50.771 
				238.723,50.771 			"/>
			<polygon fill="#3C5A7B" points="238.723,38.787 238.398,39.111 238.398,39.433 239.371,40.406 240.019,40.406 240.019,39.111 
				238.723,39.111 			"/>
			<polygon fill="#3C5A7B" points="238.723,42.673 238.398,42.998 238.398,43.322 239.37,44.292 240.019,44.292 240.019,42.998 
				238.723,42.998 			"/>
			<polygon fill="#3C5A7B" points="238.723,54.333 238.398,54.658 238.398,54.982 239.371,55.955 240.019,55.955 240.019,54.658 
				238.723,54.658 			"/>
			<polygon fill="#3C5A7B" points="252.004,71.501 251.68,71.826 251.356,71.826 250.383,70.853 250.383,70.207 251.68,70.205 
				251.68,71.501 			"/>
			<polygon fill="#3C5A7B" points="248.118,71.501 247.792,71.826 247.469,71.826 246.497,70.853 246.497,70.205 247.792,70.207 
				247.792,71.501 			"/>
			<polygon fill="#3C5A7B" points="244.229,71.501 243.905,71.826 243.583,71.826 242.61,70.853 242.61,70.207 243.905,70.205 
				243.905,71.501 			"/>
			<polygon fill="#3C5A7B" points="263.665,71.501 263.34,71.826 263.016,71.826 262.045,70.853 262.045,70.207 263.34,70.205 
				263.34,71.501 			"/>
			<polygon fill="#3C5A7B" points="259.776,71.501 259.454,71.826 259.129,71.826 258.159,70.853 258.159,70.205 259.454,70.207 
				259.454,71.501 			"/>
			<polygon fill="#3C5A7B" points="271.438,71.501 271.114,71.826 270.79,71.826 269.819,70.853 269.819,70.207 271.114,70.205 
				271.114,71.501 			"/>
			<polygon fill="#3C5A7B" points="267.551,71.501 267.227,71.826 266.903,71.826 265.932,70.853 265.932,70.205 267.227,70.207 
				267.227,71.501 			"/>
			<polygon fill="#3C5A7B" points="255.891,71.501 255.567,71.826 255.243,71.826 254.27,70.853 254.27,70.207 255.567,70.205 
				255.567,71.501 			"/>
			<polygon fill="#3C5A7B" points="277.592,58.22 277.917,58.544 277.917,58.869 276.944,59.841 276.295,59.841 276.295,58.544 
				277.592,58.544 			"/>
			<polygon fill="#3C5A7B" points="277.592,62.109 277.917,62.431 277.917,62.755 276.944,63.728 276.295,63.728 276.295,62.431 
				277.592,62.431 			"/>
			<polygon fill="#3C5A7B" points="277.592,65.994 277.917,66.318 277.917,66.644 276.944,67.615 276.295,67.615 276.295,66.318 
				277.592,66.318 			"/>
			<polygon fill="#3C5A7B" points="277.592,46.56 277.917,46.884 277.917,47.208 276.944,48.179 276.295,48.179 276.295,46.884 
				277.592,46.884 			"/>
			<polygon fill="#3C5A7B" points="277.592,50.447 277.917,50.771 277.917,51.095 276.944,52.068 276.295,52.068 276.295,50.771 
				277.592,50.771 			"/>
			<polygon fill="#3C5A7B" points="277.592,38.787 277.917,39.111 277.917,39.433 276.944,40.406 276.295,40.406 276.295,39.111 
				277.592,39.111 			"/>
			<polygon fill="#3C5A7B" points="277.592,42.673 277.917,42.998 277.917,43.322 276.944,44.292 276.295,44.292 276.295,42.998 
				277.592,42.998 			"/>
			<polygon fill="#3C5A7B" points="277.592,54.333 277.917,54.658 277.917,54.982 276.944,55.955 276.295,55.955 276.295,54.658 
				277.592,54.658 			"/>
		</g>
	</g>
	<g>
		<path fill="#989898" d="M251.917,42.99v2.779H255v0.457h-3.084v3.502h3.166v0.457h-3.654v-7.652h3.654v0.457H251.917z"/>
		<path fill="#989898" d="M260.17,43.791c-0.344-0.549-0.832-0.904-1.551-0.904c-0.822,0-1.443,0.66-1.443,1.463
			c0,0.801,0.762,1.137,1.381,1.43l1.463,0.762c0.576,0.365,0.871,0.832,0.871,1.523c0,1.268-1.156,2.221-2.395,2.221
			c-1.066,0-1.898-0.658-2.252-1.643l0.426-0.193c0.324,0.813,0.922,1.381,1.846,1.381c1.006,0,1.889-0.793,1.889-1.807
			c0-0.863-0.883-1.229-1.543-1.553l-1.381-0.73c-0.506-0.314-0.791-0.762-0.791-1.371c0-1.137,0.813-1.938,1.959-1.938
			c0.771,0,1.502,0.416,1.867,1.074L260.17,43.791z"/>
		<path fill="#989898" d="M263.047,50.185h-0.488v-7.652h1.35c0.6,0,1.178,0.039,1.654,0.445c0.467,0.396,0.689,0.975,0.689,1.574
			c0,0.547-0.213,1.156-0.639,1.512c-0.467,0.406-1.105,0.486-1.705,0.486h-0.861V50.185z M263.928,46.093
			c0.498,0,0.945-0.061,1.34-0.416c0.336-0.303,0.498-0.699,0.498-1.145c0-0.479-0.193-0.955-0.578-1.238
			c-0.387-0.295-0.873-0.305-1.34-0.305h-0.801v3.104H263.928z"/>
		<path fill="#989898" d="M246.971,57.902c0-0.914,0.426-1.594,1.248-1.988c-0.66-0.326-1.076-1.025-1.076-1.746
			c0-1.158,0.893-2.02,2.051-2.02c1.156,0,2.049,0.861,2.049,2.02c0.002,0.721-0.416,1.42-1.074,1.746
			c0.822,0.396,1.248,1.074,1.248,1.988c0,1.219-1.025,2.102-2.223,2.102S246.971,59.121,246.971,57.902z M247.631,54.158
			c0,0.852,0.699,1.543,1.563,1.543c0.852,0,1.563-0.691,1.563-1.543s-0.721-1.553-1.563-1.553
			C248.342,52.605,247.631,53.306,247.631,54.158z M247.458,57.851c0,0.943,0.793,1.695,1.736,1.695
			c0.934,0,1.736-0.752,1.736-1.695s-0.803-1.695-1.736-1.695C248.25,56.156,247.458,56.908,247.458,57.851z"/>
		<path fill="#989898" d="M257.252,59.445v0.457h-4.719l2.852-3.137c0.578-0.639,1.41-1.512,1.41-2.404
			c0-0.996-0.822-1.756-1.807-1.756c-1.045,0-1.836,0.762-1.807,1.807h-0.486c0.02-0.549,0.102-1.016,0.477-1.451
			c0.447-0.498,1.158-0.813,1.816-0.813c1.27,0,2.293,0.963,2.293,2.242c0.002,1.025-0.781,1.857-1.439,2.578l-2.223,2.477H257.252z
			"/>
		<path fill="#989898" d="M261.831,52.443l-1.686,2.385l0.021,0.02c0.314-0.133,0.648-0.203,1.014-0.203
			c1.473,0,2.67,1.229,2.67,2.689c0,0.68-0.305,1.34-0.762,1.838c-0.518,0.557-1.217,0.832-1.969,0.832
			c-1.48,0-2.709-1.168-2.709-2.67c0-0.648,0.182-1.156,0.559-1.684l2.465-3.502L261.831,52.443z M263.362,57.324
			c0.002-1.217-1.014-2.223-2.23-2.223c-1.229,0-2.234,1.006-2.234,2.223c0,1.229,1.006,2.223,2.234,2.223
			C262.348,59.546,263.362,58.552,263.362,57.324z"/>
		<path fill="#989898" d="M268.641,52.443l-1.686,2.385l0.02,0.02c0.316-0.131,0.65-0.203,1.016-0.203
			c1.471,0,2.67,1.229,2.67,2.689c0,0.68-0.305,1.34-0.762,1.838c-0.518,0.557-1.217,0.832-1.969,0.832
			c-1.482,0-2.709-1.168-2.709-2.67c0-0.648,0.182-1.156,0.557-1.684l2.467-3.502L268.641,52.443z M270.172,57.324
			c0-1.217-1.014-2.223-2.232-2.223c-1.229,0-2.232,1.006-2.232,2.223c0,1.229,1.004,2.223,2.232,2.223
			C269.159,59.546,270.172,58.552,270.172,57.324z"/>
	</g>
</g>
<g opacity="0.1">
	<g>
		<path fill="#010101" d="M273.254,71.767c-1.307-1.307-1.309-3.424,0-4.732c1.307-1.307,3.424-1.311,4.732,0
			c1.311,1.309,1.311,3.424,0,4.732C276.68,73.074,274.563,73.076,273.254,71.767z M285.622,68.509l-3.334,0.291
			c0.354,3.969-3.301,7.623-7.27,7.264l-0.299,3.332c2.979,0.268,5.895-0.791,8-2.896C284.827,74.392,285.887,71.48,285.622,68.509z
			 M292.333,68.576l-3.344,0.162c0.188,3.77-1.236,7.457-3.904,10.125s-6.354,4.092-10.117,3.908l-0.162,3.342
			c4.709,0.227,9.318-1.551,12.646-4.881C290.788,77.898,292.563,73.281,292.333,68.576z M299.032,68.599l-3.344,0.115
			c0.188,5.537-1.955,10.963-5.871,14.881c-3.977,3.977-9.258,6.063-14.873,5.871l-0.111,3.348c6.457,0.217,12.783-2.28,17.354-6.85
			C296.756,81.392,299.252,75.064,299.032,68.599z"/>
	</g>
</g>
<line fill="none" stroke="#0895B5" stroke-width="10" stroke-miterlimit="10" x1="54.963" y1="93.356" x2="54.963" y2="170.079"/>
<g>
	<g enable-background="new    ">
		<path fill="#4079BD" d="M31.73,8.309l1.962,0.622c-0.301,1.094-0.801,1.906-1.5,2.437c-0.7,0.531-1.588,0.797-2.663,0.797
			c-1.331,0-2.425-0.455-3.281-1.363c-0.856-0.91-1.285-2.152-1.285-3.729c0-1.668,0.431-2.964,1.292-3.886
			c0.861-0.924,1.994-1.385,3.397-1.385c1.226,0,2.222,0.362,2.987,1.087c0.456,0.429,0.798,1.044,1.025,1.846l-2.003,0.479
			c-0.118-0.52-0.366-0.93-0.741-1.23c-0.377-0.301-0.833-0.451-1.371-0.451c-0.743,0-1.346,0.267-1.809,0.8
			c-0.462,0.533-0.693,1.396-0.693,2.591c0,1.267,0.228,2.169,0.684,2.707s1.048,0.807,1.777,0.807c0.538,0,1-0.171,1.388-0.513
			S31.561,9.042,31.73,8.309z"/>
		<path fill="#4079BD" d="M35.421,1.972h3.698c0.834,0,1.47,0.063,1.907,0.191c0.588,0.173,1.092,0.48,1.511,0.923
			s0.738,0.983,0.957,1.623c0.219,0.641,0.328,1.431,0.328,2.369c0,0.825-0.103,1.536-0.308,2.133
			c-0.251,0.729-0.608,1.319-1.073,1.771c-0.351,0.342-0.825,0.608-1.422,0.8c-0.446,0.142-1.044,0.212-1.791,0.212h-3.808V1.972z
			 M37.445,3.667v6.638h1.511c0.565,0,0.973-0.032,1.224-0.096c0.328-0.082,0.601-0.221,0.817-0.417
			c0.216-0.196,0.393-0.519,0.529-0.968c0.137-0.448,0.205-1.061,0.205-1.835s-0.068-1.369-0.205-1.784s-0.328-0.738-0.574-0.971
			s-0.559-0.39-0.937-0.472c-0.282-0.063-0.836-0.096-1.661-0.096H37.445z"/>
		<path fill="#4079BD" d="M49.36,4.733h1.791V5.8c0.232-0.364,0.547-0.661,0.943-0.889s0.836-0.342,1.319-0.342
			c0.843,0,1.559,0.33,2.146,0.991s0.882,1.581,0.882,2.762c0,1.212-0.296,2.154-0.889,2.826c-0.593,0.673-1.311,1.009-2.153,1.009
			c-0.401,0-0.765-0.08-1.091-0.239c-0.325-0.159-0.668-0.433-1.028-0.82v3.657H49.36V4.733z M51.26,8.24
			c0,0.815,0.162,1.418,0.485,1.809c0.323,0.389,0.718,0.584,1.183,0.584c0.446,0,0.818-0.179,1.114-0.537
			c0.296-0.357,0.444-0.944,0.444-1.76c0-0.761-0.152-1.326-0.458-1.695s-0.684-0.554-1.135-0.554c-0.47,0-0.859,0.181-1.169,0.544
			C51.416,6.992,51.26,7.529,51.26,8.24z"/>
		<path fill="#4079BD" d="M57.966,11.993V1.972h1.921v10.021H57.966z"/>
		<path fill="#4079BD" d="M63.292,6.948l-1.743-0.314c0.196-0.702,0.533-1.222,1.012-1.559s1.189-0.506,2.133-0.506
			c0.856,0,1.495,0.102,1.914,0.304c0.419,0.203,0.714,0.461,0.886,0.773c0.17,0.312,0.256,0.885,0.256,1.719l-0.021,2.242
			c0,0.638,0.03,1.108,0.093,1.412c0.061,0.303,0.176,0.627,0.345,0.974h-1.9c-0.05-0.128-0.111-0.316-0.185-0.567
			c-0.032-0.114-0.055-0.189-0.068-0.226c-0.328,0.319-0.679,0.559-1.053,0.718s-0.772,0.239-1.196,0.239
			c-0.747,0-1.337-0.203-1.767-0.608c-0.432-0.405-0.646-0.918-0.646-1.538c0-0.41,0.098-0.776,0.294-1.097
			c0.196-0.322,0.471-0.568,0.823-0.738c0.354-0.172,0.863-0.32,1.528-0.448c0.897-0.169,1.52-0.326,1.866-0.472V7.064
			c0-0.369-0.091-0.633-0.273-0.789c-0.183-0.158-0.526-0.236-1.032-0.236c-0.342,0-0.608,0.067-0.8,0.201
			C63.565,6.375,63.41,6.611,63.292,6.948z M65.862,8.507c-0.246,0.082-0.636,0.18-1.169,0.294s-0.882,0.226-1.046,0.335
			c-0.251,0.178-0.376,0.403-0.376,0.677c0,0.269,0.101,0.501,0.301,0.697s0.456,0.294,0.766,0.294c0.347,0,0.677-0.114,0.991-0.342
			c0.232-0.173,0.385-0.385,0.458-0.636c0.05-0.164,0.075-0.477,0.075-0.937V8.507z"/>
		<path fill="#4079BD" d="M68.733,4.733h2.044l1.736,5.154l1.695-5.154h1.989l-2.563,6.986l-0.458,1.265
			c-0.169,0.424-0.329,0.747-0.482,0.971c-0.152,0.224-0.328,0.404-0.525,0.543c-0.199,0.14-0.442,0.248-0.732,0.325
			c-0.289,0.077-0.616,0.116-0.98,0.116c-0.369,0-0.731-0.039-1.087-0.116l-0.171-1.504c0.301,0.06,0.572,0.089,0.813,0.089
			c0.446,0,0.777-0.131,0.991-0.393c0.214-0.263,0.378-0.597,0.492-1.002L68.733,4.733z"/>
		<path fill="#4079BD" d="M81.632,9.683l1.914,0.321c-0.246,0.702-0.635,1.236-1.165,1.604c-0.531,0.366-1.195,0.55-1.993,0.55
			c-1.263,0-2.196-0.412-2.803-1.237c-0.479-0.661-0.718-1.495-0.718-2.502c0-1.203,0.314-2.146,0.943-2.826
			c0.629-0.682,1.424-1.022,2.386-1.022c1.08,0,1.933,0.356,2.557,1.069c0.624,0.714,0.923,1.807,0.896,3.278h-4.813
			c0.014,0.569,0.169,1.013,0.465,1.329c0.296,0.317,0.665,0.476,1.107,0.476c0.301,0,0.554-0.082,0.759-0.246
			S81.528,10.047,81.632,9.683z M81.742,7.741c-0.014-0.556-0.157-0.979-0.431-1.269c-0.273-0.289-0.606-0.434-0.998-0.434
			c-0.419,0-0.766,0.152-1.039,0.458s-0.408,0.72-0.403,1.244H81.742z"/>
		<path fill="#4079BD" d="M87.053,11.993h-1.921v-7.26h1.784v1.032c0.306-0.487,0.58-0.809,0.824-0.964
			c0.243-0.155,0.521-0.232,0.83-0.232c0.438,0,0.859,0.121,1.265,0.362l-0.595,1.675c-0.323-0.21-0.624-0.314-0.902-0.314
			c-0.269,0-0.497,0.074-0.684,0.222c-0.187,0.148-0.334,0.416-0.441,0.804c-0.106,0.388-0.16,1.198-0.16,2.434V11.993z"/>
	</g>
</g>
<g id="g3597" transform="matrix(0.776968,0.000000,0.000000,0.776968,-70.53812,-38.48979)">
	
		<linearGradient id="path965_1_" gradientUnits="userSpaceOnUse" x1="125.315" y1="444.8803" x2="125.386" y2="444.6751" gradientTransform="matrix(284.1654 0 0 -284.1654 -35458.6953 126502.5781)">
		<stop  offset="0" style="stop-color:#868686"/>
		<stop  offset="0.3935" style="stop-color:#F3F3F3"/>
		<stop  offset="0.4794" style="stop-color:#959494"/>
		<stop  offset="1" style="stop-color:#D3D3D3"/>
	</linearGradient>
	<path id="path965" fill="url(#path965_1_)" stroke="#32579F" stroke-width="0.2572" stroke-opacity="0.5849" d="M163.088,78.725
		c-20.385,0-36.938,16.543-36.938,36.93s16.553,36.937,36.938,36.937c20.387,0,36.93-16.551,36.93-36.937
		S183.474,78.725,163.088,78.725z M163.088,104.091c6.384,0,11.565,5.181,11.565,11.563c0,6.382-5.181,11.566-11.565,11.566
		c-6.383,0-11.563-5.183-11.563-11.566C151.524,109.272,156.705,104.091,163.088,104.091z"/>
	
		<linearGradient id="path1756_1_" gradientUnits="userSpaceOnUse" x1="125.2987" y1="444.4869" x2="125.3394" y2="444.678" gradientTransform="matrix(278.4575 0 0 -268.3165 -34741.9805 119446)">
		<stop  offset="0" style="stop-color:#FFFFFF"/>
		<stop  offset="1" style="stop-color:#FFFFFF;stop-opacity:0"/>
	</linearGradient>
	<path id="path1756" fill="url(#path1756_1_)" d="M162.795,82.103c-19.977,0-35.904,13.574-35.904,33.551
		c0,19.98,16.22,36.196,36.196,36.196c19.977,0,36.188-16.216,36.188-36.196C199.275,95.678,182.772,82.103,162.795,82.103z
		 M163.088,104.322c6.255,0,11.332,5.078,11.332,11.332c0,6.254-5.077,11.332-11.332,11.332s-11.331-5.078-11.331-11.332
		C151.756,109.4,156.833,104.322,163.088,104.322z"/>
	
		<linearGradient id="path964_1_" gradientUnits="userSpaceOnUse" x1="125.3244" y1="442.6569" x2="124.9698" y2="443.0738" gradientTransform="matrix(97.7371 0 0 -97.7371 -12052.6416 43418.8555)">
		<stop  offset="0" style="stop-color:#010101;stop-opacity:0.4552"/>
		<stop  offset="1" style="stop-color:#FFFFFF;stop-opacity:0.4621"/>
	</linearGradient>
	<path id="path964" fill="url(#path964_1_)" stroke="#32579F" stroke-width="0.1714" d="M163.088,102.952
		c-7.012,0-12.703,5.691-12.703,12.702c0,7.011,5.692,12.705,12.703,12.705c7.012,0,12.704-5.694,12.704-12.705
		C175.792,108.644,170.1,102.952,163.088,102.952z M162.952,109.622c3.33,0,6.034,2.702,6.034,6.033
		c0,3.331-2.704,6.036-6.034,6.036c-3.331,0-6.035-2.705-6.035-6.036C156.917,112.324,159.621,109.622,162.952,109.622z"/>
	<g id="g1745" transform="matrix(-1.402752,9.803246e-2,-9.803246e-2,-1.402752,174.5288,941.7035)">
		
			<linearGradient id="path1746_1_" gradientUnits="userSpaceOnUse" x1="10.3065" y1="353.4696" x2="10.4805" y2="353.1267" gradientTransform="matrix(-107.4131 -7.7005 -7.5066 110.1866 3723.6213 -38266.3516)">
			<stop  offset="0" style="stop-color:#FFFFFF"/>
			<stop  offset="1" style="stop-color:#FFFFFF;stop-opacity:0"/>
		</linearGradient>
		<path id="path1746" fill="url(#path1746_1_)" d="M-30.883,577.666l3.434-16.718c4.739,1.003,13.937,6.305,16.471,10.792
			l-14.347,9.626C-25.406,580.539-29.047,577.9-30.883,577.666z"/>
		
			<linearGradient id="path1747_1_" gradientUnits="userSpaceOnUse" x1="10.0081" y1="352.8296" x2="9.7925" y2="353.1892" gradientTransform="matrix(-79.3432 -6.77 -5.5449 96.8734 2742.0796 -33566.2617)">
			<stop  offset="0" style="stop-color:#FFFFFF"/>
			<stop  offset="1" style="stop-color:#FFFFFF;stop-opacity:0"/>
		</linearGradient>
		<path id="path1747" fill="url(#path1747_1_)" d="M-28.621,578.385l6.414-15.793c2.787,1.619,6.017,3.273,8.289,5.817
			l-12.024,12.134C-26.538,579.923-27.608,578.981-28.621,578.385z"/>
		<g id="g1748" transform="matrix(-1.000000,0.000000,0.000000,-1.000000,-346.8483,969.1681)">
			
				<linearGradient id="path1749_1_" gradientUnits="userSpaceOnUse" x1="-358.0935" y1="612.1295" x2="-357.6837" y2="612.6729" gradientTransform="matrix(107.4131 7.7005 7.5066 -110.1866 33527.082 70624.2109)">
				<stop  offset="0" style="stop-color:#FFFFFF"/>
				<stop  offset="1" style="stop-color:#FFFFFF;stop-opacity:0"/>
			</linearGradient>
			<path id="path1749" fill="url(#path1749_1_)" d="M-312.29,373.488l3.434-16.716c4.74,1.003,13.938,6.304,16.472,10.792
				l-14.347,9.626C-306.814,376.363-310.455,373.723-312.29,373.488z"/>
			
				<linearGradient id="path1750_1_" gradientUnits="userSpaceOnUse" x1="-357.6442" y1="612.9763" x2="-358.1862" y2="612.2418" gradientTransform="matrix(77.4584 6.7701 5.4132 -96.8734 24117.4844 62108.4531)">
				<stop  offset="0" style="stop-color:#010101;stop-opacity:0.4549"/>
				<stop  offset="1" style="stop-color:#010101;stop-opacity:0"/>
			</linearGradient>
			<path id="path1750" fill="url(#path1750_1_)" d="M-310.029,374.208l6.415-15.793c2.787,1.619,5.714,3.53,7.94,6.168
				l-11.675,11.784C-307.945,375.746-309.016,374.802-310.029,374.208z"/>
		</g>
	</g>
	<g id="g1739" transform="matrix(0.837377,1.129654,-1.129654,0.837377,948.6487,-14.52446)">
		
			<linearGradient id="path1730_1_" gradientUnits="userSpaceOnUse" x1="-87.0161" y1="663.4329" x2="-86.8422" y2="663.7758" gradientTransform="matrix(64.1206 -88.7347 -86.5011 -65.7763 62704.5703 36436.082)">
			<stop  offset="0" style="stop-color:#FFFFFF"/>
			<stop  offset="1" style="stop-color:#FFFFFF;stop-opacity:0"/>
		</linearGradient>
		<path id="path1730" fill="url(#path1730_1_)" d="M-256.607,494.969l3.434-16.718c4.739,1.003,13.938,6.306,16.471,10.793
			l-14.347,9.625C-251.131,497.842-254.772,495.204-256.607,494.969z"/>
		
			<linearGradient id="path1606_1_" gradientUnits="userSpaceOnUse" x1="-86.263" y1="663.0894" x2="-86.6115" y2="662.6411" gradientTransform="matrix(46.239 -78.0134 -62.3782 -57.8289 45124.9531 32070.125)">
			<stop  offset="0" style="stop-color:#010101;stop-opacity:0.4549"/>
			<stop  offset="1" style="stop-color:#010101;stop-opacity:0"/>
		</linearGradient>
		<path id="path1606" fill="url(#path1606_1_)" d="M-254.345,495.688l6.415-15.793c2.787,1.62,5.713,3.236,7.939,5.873
			l-11.675,12.079C-252.261,497.226-253.333,496.283-254.345,495.688z"/>
		<g id="g1734" transform="matrix(-1.000000,0.000000,0.000000,-1.000000,-346.8483,969.1681)">
			
				<linearGradient id="path1732_1_" gradientUnits="userSpaceOnUse" x1="-260.5056" y1="302.4544" x2="-260.3796" y2="302.0995" gradientTransform="matrix(-64.1206 88.7347 86.5011 65.7763 -42954.7656 3705.3191)">
				<stop  offset="0" style="stop-color:#FFFFFF"/>
				<stop  offset="1" style="stop-color:#FFFFFF;stop-opacity:0"/>
			</linearGradient>
			<path id="path1732" fill="url(#path1732_1_)" d="M-86.566,456.185l3.434-16.718c4.74,1.003,13.938,6.306,16.472,10.794
				l-14.347,9.625C-81.09,459.059-84.729,456.422-86.566,456.185z"/>
			
				<linearGradient id="path1733_1_" gradientUnits="userSpaceOnUse" x1="-260.5272" y1="301.8337" x2="-260.6252" y2="301.9759" gradientTransform="matrix(-46.239 78.0134 62.3782 57.8289 -30953.1758 3322.998)">
				<stop  offset="0" style="stop-color:#FFFFFF;stop-opacity:0"/>
				<stop  offset="1" style="stop-color:#FFFFFF"/>
			</linearGradient>
			<path id="path1733" fill="url(#path1733_1_)" d="M-84.304,456.905l6.415-15.793c2.786,1.619,5.714,3.53,7.939,6.167
				l-11.675,11.784C-82.221,458.442-83.292,457.5-84.304,456.905z"/>
		</g>
	</g>
	<g id="g1857" transform="matrix(6.514279e-3,1.406156,-1.406156,6.514279e-3,980.1983,421.1620)">
		
			<linearGradient id="path1859_1_" gradientUnits="userSpaceOnUse" x1="13.9907" y1="605.7378" x2="13.5387" y2="605.244" gradientTransform="matrix(0.3596 -97.1085 -77.6463 -0.4498 46846.7266 2157.5615)">
			<stop  offset="0" style="stop-color:#FFFFFF"/>
			<stop  offset="1" style="stop-color:#FFFFFF;stop-opacity:0"/>
		</linearGradient>
		<path id="path1859" fill="url(#path1859_1_)" d="M-215.934,571.911l6.416-15.793c2.787,1.62,5.713,3.53,7.939,6.168
			l-11.676,11.784C-213.85,573.449-214.922,572.506-215.934,571.911z"/>
		<g id="g1860" transform="matrix(-1.000000,0.000000,0.000000,-1.000000,-346.8483,969.1681)">
			
				<linearGradient id="path1862_1_" gradientUnits="userSpaceOnUse" x1="-361.5482" y1="358.695" x2="-361.9247" y2="359.0645" gradientTransform="matrix(-0.3597 96.3173 77.6537 0.4462 -28077.416 35007.9961)">
				<stop  offset="0" style="stop-color:#FFFFFF"/>
				<stop  offset="1" style="stop-color:#FFFFFF;stop-opacity:0"/>
			</linearGradient>
			<path id="path1862" fill="url(#path1862_1_)" d="M-122.716,380.682l6.194-15.647c2.787,1.62,5.937,3.089,8.163,5.727
				l-11.676,12.078C-120.631,382.219-121.703,381.277-122.716,380.682z"/>
		</g>
	</g>
</g>
</svg>
