<?xml version="1.0" encoding="utf-8"?>
<!-- Generator: Adobe Illustrator 15.0.0, SVG Export Plug-In . SVG Version: 6.00 Build 0)  -->
<!DOCTYPE svg PUBLIC "-//W3C//DTD SVG 1.0//EN" "http://www.w3.org/TR/2001/REC-SVG-20010904/DTD/svg10.dtd">
<svg version="1.0" id="Layer_1" xmlns="http://www.w3.org/2000/svg" xmlns:xlink="http://www.w3.org/1999/xlink" x="0px" y="0px"
	 width="425.198px" height="90.708px" viewBox="0 0 425.198 90.708" enable-background="new 0 0 425.198 90.708"
	 xml:space="preserve">
<g>
	<path fill="#231F20" d="M390.485,51.024v-6.293l-4.709-8.537h2.201l2.09,4.093c0.551,1.122,1.012,2.024,1.475,3.058h0.043
		c0.396-0.968,0.925-1.936,1.496-3.058l2.135-4.093h2.156l-4.95,8.515v6.315H390.485z"/>
	<path fill="#231F20" d="M403.201,35.754c-1.606,2.178-2.75,5.017-2.75,9.021c0,3.917,1.21,6.711,2.75,8.912h-1.496
		c-1.386-1.827-2.882-4.643-2.882-8.934c0.021-4.313,1.496-7.151,2.882-8.999H403.201z"/>
	<path fill="#231F20" d="M404.057,49.902l4.797-6.271c0.484-0.594,0.924-1.1,1.408-1.672v-0.044h-5.765v-1.54h8.097v1.21
		l-4.752,6.183c-0.462,0.594-0.881,1.144-1.364,1.672v0.044h6.205v1.54h-8.626V49.902z"/>
	<path fill="#231F20" d="M413.518,53.687c1.54-2.179,2.75-5.017,2.75-8.978s-1.188-6.755-2.75-8.955h1.496
		c1.386,1.804,2.883,4.643,2.883,8.955c-0.022,4.313-1.497,7.129-2.883,8.978H413.518z"/>
</g>
<g>
	<path fill="#231F20" d="M15.003,51.024l-1.915-3.278c-0.77-1.254-1.232-2.068-1.694-2.927H11.35
		c-0.418,0.858-0.858,1.65-1.606,2.949l-1.782,3.256h-2.2l4.532-7.503l-4.356-7.327H8.16l1.958,3.477
		c0.55,0.968,0.968,1.716,1.364,2.508h0.066c0.418-0.88,0.792-1.563,1.342-2.508l2.002-3.477h2.223l-4.511,7.217l4.621,7.613H15.003
		z"/>
	<path fill="#231F20" d="M23.56,35.754c-1.606,2.178-2.75,5.017-2.75,9.021c0,3.917,1.21,6.711,2.75,8.912h-1.496
		c-1.386-1.827-2.882-4.643-2.882-8.934c0.022-4.313,1.496-7.151,2.882-8.999H23.56z"/>
	<path fill="#231F20" d="M24.417,49.902l4.797-6.271c0.484-0.594,0.924-1.1,1.408-1.672v-0.044h-5.765v-1.54h8.097v1.21
		l-4.752,6.183c-0.462,0.594-0.88,1.144-1.364,1.672v0.044h6.205v1.54h-8.625V49.902z"/>
	<path fill="#231F20" d="M33.877,53.687c1.541-2.179,2.75-5.017,2.75-8.978s-1.188-6.755-2.75-8.955h1.496
		c1.386,1.804,2.883,4.643,2.883,8.955c-0.022,4.313-1.497,7.129-2.883,8.978H33.877z"/>
</g>
<g>
	<path fill="#231F20" d="M197.513,39.685l-4.863-14.83h2.09l2.311,7.305c0.616,2.002,1.166,3.806,1.584,5.544h0.044
		c0.418-1.716,1.012-3.586,1.694-5.522l2.508-7.327h2.046l-5.303,14.83H197.513z"/>
	<path fill="#231F20" d="M210.647,24.415c-1.606,2.178-2.75,5.017-2.75,9.021c0,3.917,1.21,6.711,2.75,8.912h-1.496
		c-1.386-1.827-2.882-4.643-2.882-8.934c0.022-4.313,1.496-7.151,2.882-8.999H210.647z"/>
	<path fill="#231F20" d="M211.504,38.563l4.797-6.271c0.484-0.594,0.924-1.1,1.408-1.672v-0.044h-5.765v-1.54h8.097v1.21
		l-4.752,6.183c-0.462,0.594-0.88,1.144-1.364,1.672v0.044h6.205v1.54h-8.625V38.563z"/>
	<path fill="#231F20" d="M220.964,42.348c1.541-2.179,2.75-5.017,2.75-8.978s-1.188-6.755-2.75-8.955h1.497
		c1.386,1.804,2.882,4.643,2.882,8.955c-0.022,4.313-1.497,7.129-2.882,8.978H220.964z"/>
</g>
<rect x="102.559" y="11.339" fill="#EAEAFF" stroke="#231F20" stroke-width="2.9889" stroke-miterlimit="10" width="67.52" height="68.031"/>
<g>
	<path fill="#231F20" d="M121.6,38.891v5.078h5.87v-5.078h1.584v12.136h-1.584v-5.689h-5.87v5.689h-1.584V38.891H121.6z"/>
	<path fill="#231F20" d="M133.231,47.214h-0.024l-1.355,0.732l-0.204-0.804l1.703-0.912h0.9v7.796h-1.02V47.214z"/>
	<path fill="#231F20" d="M141.292,38.531c-1.314,1.782-2.25,4.105-2.25,7.382c0,3.205,0.99,5.491,2.25,7.292h-1.224
		c-1.135-1.495-2.359-3.799-2.359-7.31c0.018-3.529,1.224-5.852,2.359-7.364H141.292z"/>
	<path fill="#231F20" d="M141.993,50.108l3.925-5.131c0.396-0.486,0.756-0.9,1.152-1.368v-0.036h-4.717v-1.261h6.626v0.991
		l-3.889,5.059c-0.378,0.486-0.72,0.937-1.116,1.369v0.036h5.078v1.26h-7.058V50.108z"/>
	<path fill="#231F20" d="M149.733,53.205c1.26-1.783,2.25-4.105,2.25-7.346c0-3.241-0.972-5.528-2.25-7.328h1.224
		c1.134,1.476,2.359,3.799,2.359,7.328c-0.018,3.529-1.225,5.833-2.359,7.346H149.733z"/>
</g>
<rect x="249.735" y="11.339" fill="#EAEAFF" stroke="#231F20" stroke-width="3.0003" stroke-miterlimit="10" width="68.035" height="68.034"/>
<g>
	<path fill="#231F20" d="M268.491,38.891v5.078h5.869v-5.078h1.584v12.136h-1.584v-5.689h-5.869v5.689h-1.585V38.891H268.491z"/>
	<path fill="#231F20" d="M277.831,54.026v-0.647l0.828-0.804c1.99-1.895,2.902-2.902,2.902-4.078c0-0.792-0.372-1.523-1.535-1.523
		c-0.708,0-1.295,0.36-1.655,0.66l-0.336-0.744c0.528-0.444,1.308-0.792,2.194-0.792c1.68,0,2.387,1.151,2.387,2.267
		c0,1.439-1.043,2.603-2.686,4.186l-0.612,0.576v0.024h3.49v0.875H277.831z"/>
	<path fill="#231F20" d="M288.182,38.531c-1.314,1.782-2.25,4.105-2.25,7.382c0,3.205,0.99,5.491,2.25,7.292h-1.225
		c-1.135-1.495-2.358-3.799-2.358-7.31c0.019-3.529,1.224-5.852,2.358-7.364H288.182z"/>
	<path fill="#231F20" d="M288.883,50.108l3.924-5.131c0.396-0.486,0.757-0.9,1.152-1.368v-0.036h-4.717v-1.261h6.626v0.991
		l-3.89,5.059c-0.377,0.486-0.72,0.937-1.115,1.369v0.036h5.077v1.26h-7.058V50.108z"/>
	<path fill="#231F20" d="M296.624,53.205c1.26-1.783,2.25-4.105,2.25-7.346c0-3.241-0.973-5.528-2.25-7.328h1.224
		c1.134,1.476,2.358,3.799,2.358,7.328c-0.018,3.529-1.225,5.833-2.358,7.346H296.624z"/>
</g>
<g display="none">
	<path display="inline" fill-rule="evenodd" clip-rule="evenodd" fill="#231F20" d="M98.156,76.475c2.802,0.067,5.933-0.09,8.848,0
		c0.315,0.009,0.829-0.13,0.928,0.309c0.012,0.549-0.744,0.329-1.238,0.371c-0.067,2.234-2.703,3.505-1.918,5.754
		c0.469,1.344,1.839,2.288,1.856,4.146c0.487,0.049,1.247-0.174,1.299,0.31c-0.291,0.635-1.495,0.371-2.352,0.371
		c-2.179,0-4.443,0.047-6.683,0c-0.346-0.006-0.875,0.14-0.99-0.309c-0.012-0.549,0.743-0.329,1.238-0.371
		c0.105-1.648,1.424-2.84,1.918-4.084c0.124-0.31,0.196-0.931,0.062-1.485c-0.377-1.558-1.778-2.4-1.918-4.331
		c-0.411-0.043-1.018,0.109-1.237-0.124C97.851,76.803,97.959,76.56,98.156,76.475z M99.951,77.155
		c0.236,2.107,2.008,3.007,1.98,5.074c-0.027,2-1.94,2.692-1.98,4.826c1.98,0,3.959,0,5.94,0c-0.048-1.867-1.471-2.643-1.856-4.084
		c-0.652-2.437,1.639-3.528,1.856-5.816C103.91,77.155,101.931,77.155,99.951,77.155z"/>
</g>
<g>
	<g>
		<line fill="none" stroke="#231F20" stroke-miterlimit="10" x1="45.354" y1="45.354" x2="100.963" y2="45.354"/>
		<g>
			<polygon fill="#231F20" points="97.649,49.444 96.967,48.712 100.579,45.355 96.967,41.998 97.649,41.266 102.047,45.355 			"/>
		</g>
	</g>
</g>
<g>
	<g>
		<line fill="none" stroke="#231F20" stroke-miterlimit="10" x1="317.481" y1="45.354" x2="373.09" y2="45.354"/>
		<g>
			<polygon fill="#231F20" points="369.776,49.444 369.094,48.712 372.706,45.355 369.094,41.998 369.776,41.266 374.174,45.355 			
				"/>
		</g>
	</g>
</g>
<g>
	<g>
		<line fill="none" stroke="#231F20" stroke-miterlimit="10" x1="170.079" y1="45.354" x2="248.366" y2="45.354"/>
		<g>
			<polygon fill="#231F20" points="245.051,49.444 244.37,48.712 247.981,45.355 244.37,41.998 245.051,41.266 249.45,45.355 			"/>
		</g>
	</g>
</g>
<g>
	<circle fill="none" stroke="#231F20" stroke-width="2.2229" stroke-miterlimit="10" cx="532.914" cy="164.41" r="11.339"/>
	
		<line fill="none" stroke="#231F20" stroke-width="1.9883" stroke-miterlimit="10" x1="532.913" y1="158.741" x2="532.913" y2="170.08"/>
	
		<line fill="none" stroke="#231F20" stroke-width="1.9883" stroke-miterlimit="10" x1="527.245" y1="164.41" x2="538.583" y2="164.41"/>
</g>
</svg>
