<?xml version="1.0" encoding="utf-8"?>
<!-- Generator: Adobe Illustrator 15.0.0, SVG Export Plug-In . SVG Version: 6.00 Build 0)  -->
<!DOCTYPE svg PUBLIC "-//W3C//DTD SVG 1.0//EN" "http://www.w3.org/TR/2001/REC-SVG-20010904/DTD/svg10.dtd">
<svg version="1.0" id="Layer_1" xmlns="http://www.w3.org/2000/svg" xmlns:xlink="http://www.w3.org/1999/xlink" x="0px" y="0px"
	 width="162.578px" height="35.979px" viewBox="0 0 162.578 35.979" enable-background="new 0 0 162.578 35.979"
	 xml:space="preserve">
<g>
	<g>
		<line fill="none" stroke="#231F20" stroke-miterlimit="10" x1="-28.198" y1="90.651" x2="-28.198" y2="279.759"/>
		<g>
			<polygon fill="#231F20" points="-31.266,93.137 -30.716,93.648 -28.199,90.939 -25.681,93.648 -25.132,93.137 -28.199,89.838 			
				"/>
		</g>
	</g>
</g>
<g>
	<g>
		<line fill="none" stroke="#00ADEE" stroke-width="0.5" stroke-miterlimit="10" x1="59.12" y1="24.641" x2="34.014" y2="24.64"/>
		<g>
			<polygon fill="#00ADEE" points="57.877,23.106 57.622,23.382 58.976,24.641 57.621,25.899 57.877,26.174 59.526,24.641 			"/>
		</g>
	</g>
</g>
<g opacity="0.2">
	<g>
		<path d="M92.146,182.256c-0.36,0.371-1.235,1.067-1.799,1.391H90.18c-0.923-0.3-1.188-1.619-1.188-2.507
			c0-0.779-0.072-1.654-0.624-1.835l-0.887,0.216c-0.336,1.439-1.2,2.986-2.363,4.126c-0.324-0.191-1.248-0.72-1.416-0.743
			c-0.084,0.071-0.324,0.275-0.527,0.588l-0.264-0.168l1.127-1.739c0.24,0.144,1.283,0.731,1.439,0.731
			c0.611,0,0.611-2.446,0.611-3.79c0-0.911-0.084-3.106-1.295-3.106c-0.504,0-0.804,0.396-0.804,0.804
			c0,1.188,1.379,1.008,1.379,2.351c0,0.828-0.959,1.596-1.991,1.848l-0.108-0.265c0.336-0.107,0.899-0.455,0.899-0.971
			c0-1.032-1.367-1.176-1.367-2.279c0-1.188,1.02-1.858,2.219-1.858c0.936,0,1.667,0.479,2.123,1.055l1.595-1.163
			c1.559,0,2.351,0.852,2.351,1.787c0,0.888-0.48,1.679-1.487,2.063v0.024c1.475,0.924,0.612,3.742,1.703,3.742
			c0.132,0,0.492-0.372,0.647-0.54L92.146,182.256z M87.925,179.018c1.392-0.3,1.763-1.248,1.763-2.003
			c0-0.468-0.348-1.151-1.115-1.151c-0.468,0-0.768,0.18-1.235,0.647c0.132,0.372,0.24,0.947,0.24,1.295s-0.012,0.912-0.048,1.296
			L87.925,179.018z"/>
		<path d="M96.47,175.539c-1.823,1.728-2.447,4.378-2.447,6.824c0,1.163,0.132,1.896,0.576,3.118l-0.216,0.072
			c-0.768-1.235-1.187-2.795-1.187-4.33c0-1.235,0.264-2.458,0.887-3.478c0.468-0.756,1.127-1.38,2.231-2.387L96.47,175.539z"/>
		<path d="M97.779,182.507c0.696,0.156,0.959,0.288,1.439,0.996c0.312,0.455,0.54,0.6,0.839,0.6c0.192,0,0.324-0.072,0.324-0.18
			c0-0.048-0.024-0.108-0.06-0.181c-0.072-0.144-0.096-0.239-0.096-0.335c0.012-0.204,0.204-0.408,0.396-0.408
			c0.251,0,0.419,0.18,0.419,0.443c0,0.48-0.444,0.912-1.115,0.912c-0.348,0-0.756-0.156-1.355-0.528
			c-0.563-0.348-0.947-0.503-1.259-0.503c-0.192,0-0.348,0.06-0.54,0.216l-0.108-0.108l3.718-4.461h-1.631
			c-0.624,0-0.852,0.107-1.091,0.719l-0.192-0.048l0.384-1.391h3.394v0.132L97.779,182.507z"/>
		<path d="M103.635,175.359c0.563,1.007,0.755,1.475,0.959,2.362c0.144,0.672,0.228,1.367,0.228,2.016
			c0,1.211-0.336,2.351-0.936,3.382c-0.468,0.804-1.092,1.475-2.183,2.423l-0.156-0.181c1.007-1.067,1.451-1.87,1.859-3.142
			c0.372-1.151,0.588-2.531,0.588-3.658c0-1.199-0.18-2.171-0.588-3.143L103.635,175.359z"/>
	</g>
	<g>
		<path d="M-31.472,82.193c-0.324-0.287-0.54-0.359-0.779-0.359c-0.324,0-0.684,0.229-0.684,0.695c0,0.672,1.283,1.512,1.283,2.65
			c0,1.213-1.319,2.232-2.867,2.232c-1.043,0-1.571-0.156-2.003-0.48c-0.419-0.313-0.647-0.66-0.839-1.104
			c-0.18-0.408-0.432-0.6-0.671-0.6c-0.336,0-0.672,0.264-0.84,0.611l-0.276-0.072c0.108-0.467,0.792-1.498,1.715-1.498
			c1.151,0,1.439,0.91,1.703,1.691c0.24,0.695,0.647,0.994,1.307,0.994c0.792,0,1.295-0.516,1.295-1.127
			c0-1.188-1.116-1.715-1.116-2.986c0-0.912,0.828-1.512,1.619-1.512s1.067,0.313,1.367,0.672L-31.472,82.193z M-31.16,79.004
			c-0.192,0.719-0.6,1.811-1.979,1.811c-1.403,0-1.871-0.947-3.238-0.947c-0.6,0-1.403,0.396-1.403,1.367
			c0,0.816,0.648,1.211,1.224,1.211c0.264,0,0.54-0.059,0.779-0.168l0.096,0.264c-0.348,0.182-0.588,0.24-0.923,0.24
			c-1.235,0-1.991-0.707-1.991-1.738c0-1.223,1.056-2.375,2.603-2.375c1.811,0,2.159,0.947,3.55,0.947
			c0.6,0,0.923-0.527,1.007-0.695L-31.16,79.004z"/>
		<path d="M-26.765,79.16c-1.823,1.727-2.447,4.377-2.447,6.824c0,1.162,0.132,1.895,0.576,3.117l-0.216,0.072
			c-0.768-1.234-1.187-2.795-1.187-4.33c0-1.234,0.264-2.457,0.887-3.477c0.468-0.756,1.127-1.381,2.231-2.387L-26.765,79.16z"/>
		<path d="M-25.456,86.127c0.696,0.156,0.959,0.289,1.439,0.996c0.312,0.455,0.54,0.6,0.839,0.6c0.192,0,0.324-0.072,0.324-0.18
			c0-0.047-0.024-0.107-0.06-0.18c-0.072-0.145-0.096-0.24-0.096-0.336c0.012-0.203,0.204-0.408,0.396-0.408
			c0.252,0,0.42,0.18,0.42,0.443c0,0.48-0.444,0.912-1.115,0.912c-0.348,0-0.756-0.156-1.355-0.527
			c-0.563-0.348-0.947-0.504-1.259-0.504c-0.192,0-0.348,0.061-0.54,0.217l-0.108-0.109l3.718-4.461h-1.631
			c-0.624,0-0.852,0.107-1.091,0.719l-0.192-0.047l0.384-1.391h3.394v0.131L-25.456,86.127z"/>
		<path d="M-19.601,78.98c0.563,1.006,0.755,1.475,0.959,2.361c0.144,0.672,0.228,1.367,0.228,2.016
			c0,1.211-0.336,2.352-0.936,3.383c-0.468,0.803-1.091,1.475-2.183,2.422l-0.156-0.18c1.007-1.068,1.451-1.871,1.859-3.143
			c0.372-1.15,0.588-2.531,0.588-3.658c0-1.199-0.18-2.17-0.588-3.143L-19.601,78.98z"/>
	</g>
</g>
<g>
	<path fill="#231F20" d="M57.782,131.482c0.696,0.156,0.959,0.287,1.439,0.996c0.312,0.455,0.54,0.6,0.839,0.6
		c0.192,0,0.324-0.072,0.324-0.18c0-0.049-0.024-0.109-0.06-0.182c-0.072-0.143-0.096-0.238-0.096-0.334
		c0.012-0.205,0.204-0.408,0.396-0.408c0.252,0,0.42,0.18,0.42,0.443c0,0.48-0.444,0.912-1.115,0.912
		c-0.348,0-0.756-0.156-1.355-0.529c-0.563-0.348-0.947-0.502-1.259-0.502c-0.192,0-0.348,0.059-0.54,0.215l-0.108-0.107
		l3.718-4.461h-1.631c-0.624,0-0.852,0.107-1.091,0.719l-0.192-0.049l0.384-1.391h3.394v0.133L57.782,131.482z"/>
	<path fill="#231F20" d="M62.39,128.52v-0.791h6.045v0.791H62.39z M62.39,130.918v-0.791h6.045v0.791H62.39z"/>
	<path fill="#231F20" d="M74.543,130.475c-0.467,1.309-1.307,2.004-2.506,2.004c-1.415,0-2.279-1.068-2.279-2.723
		c0-1.691,0.972-2.914,2.482-2.914c0.744,0,1.284,0.287,1.667,0.826c0.24,0.336,0.36,0.721,0.408,1.367h-3.694
		c0.06,0.912,0.12,1.379,0.551,1.955c0.336,0.443,0.78,0.66,1.332,0.66c0.804,0,1.259-0.371,1.847-1.26L74.543,130.475z
		 M73.092,128.652c-0.132-0.973-0.384-1.379-1.175-1.379c-0.671,0-1.139,0.479-1.271,1.379H73.092z"/>
	<path fill="#231F20" d="M79.651,125.639h-0.144c-0.09-0.746-0.36-1.043-0.801-1.043c-0.315,0-0.531,0.18-0.531,0.512
		c0,0.244,0.135,0.504,0.486,0.918c0.45,0.523,0.612,0.875,0.612,1.225c0,0.748-0.549,1.207-1.296,1.207
		c-0.153,0-0.288-0.01-0.495-0.09c-0.171-0.072-0.297-0.082-0.396-0.082s-0.198,0.045-0.261,0.189h-0.144l0.18-1.432h0.144
		c0.126,0.855,0.432,1.225,0.9,1.225c0.423,0,0.685-0.252,0.685-0.693c0-0.287-0.153-0.594-0.504-1.035
		c-0.387-0.486-0.567-0.891-0.567-1.18c0-0.594,0.423-0.971,1.089-0.971c0.153,0,0.279,0.025,0.504,0.09
		c0.171,0.053,0.252,0.063,0.324,0.063c0.135,0,0.198-0.037,0.27-0.162h0.126L79.651,125.639z"/>
	<path fill="#231F20" d="M85.34,123.955l-0.153-0.018c0.018-0.152,0.027-0.297,0.027-0.414c0-0.477-0.324-0.729-0.91-0.729h-0.522
		l-1.233,4.41c-0.054,0.189-0.126,0.396-0.126,0.594c0,0.279,0.108,0.352,0.477,0.389l0.315,0.027v0.143h-2.593v-0.143
		c0.622-0.055,0.829-0.189,0.963-0.676l1.288-4.744c-1.422,0-1.71,0.143-2.143,1.115l-0.162-0.035l0.378-1.396h4.79L85.34,123.955z"
		/>
</g>
<g>
	<path fill="#231F20" d="M27.573,164.819c0.51,0,0.919,0.1,1.189,0.33c0.33,0.279,0.45,0.729,0.45,1.209
		c0,0.54-0.17,1.05-0.43,1.539c-0.529,0.99-1.299,1.42-1.939,1.42c-0.779,0-0.979-0.36-1.139-0.71c-0.39,0.47-0.76,0.71-1.469,0.71
		c-0.64,0-1.289-0.42-1.289-1.409c0-0.271,0.03-0.54,0.1-0.81c0.33-1.21,1.359-2.279,2.769-2.279h0.18v0.16
		c-0.51,0-0.959,0.18-1.339,0.649c-0.5,0.63-0.87,1.709-0.87,2.539c0,0.689,0.25,0.939,0.57,0.939c0.45,0,1.029-0.56,1.219-1.109
		c-0.02-0.15-0.03-0.37-0.03-0.51c0-0.25,0.04-0.56,0.12-0.859c0.14-0.521,0.44-1,0.81-1c0.24,0,0.35,0.19,0.35,0.46
		c0,0.449-0.2,1.079-0.42,1.459c-0.08,0.14-0.21,0.36-0.31,0.51c-0.02,0.07-0.02,0.14-0.02,0.21c0,0.43,0.23,0.84,0.65,0.84
		c0.56,0,0.949-0.47,1.169-0.88c0.31-0.58,0.479-1.459,0.479-2.099c0-0.18-0.01-0.46-0.05-0.609c-0.12-0.47-0.51-0.54-0.93-0.54
		v-0.16H27.573z"/>
	<path fill="#231F20" d="M35.422,164.319l-0.17-0.02c0.02-0.17,0.03-0.33,0.03-0.46c0-0.529-0.36-0.81-1.01-0.81h-0.58l-1.369,4.897
		c-0.06,0.21-0.14,0.439-0.14,0.659c0,0.311,0.12,0.391,0.53,0.431l0.35,0.029v0.16h-2.878v-0.16c0.69-0.06,0.92-0.21,1.07-0.749
		l1.429-5.268c-1.579,0-1.899,0.16-2.379,1.239l-0.18-0.04l0.419-1.549h5.317L35.422,164.319z"/>
</g>
<g>
	<path fill="#231F20" d="M56.494,185.513h-1.699c0.4,0.63,0.959,0.62,0.959,1.369c0,1.1-1.259,2.279-2.659,2.279
		c-0.939,0-1.459-0.54-1.459-1.409c0-1.35,1.209-2.979,3.098-2.979h1.939L56.494,185.513z M54.335,185.513
		c-0.689,0-1.859,1.13-1.859,2.539c0,0.6,0.31,0.899,0.78,0.899c0.959,0,1.659-1.31,1.659-2.109
		C54.915,186.202,54.655,185.702,54.335,185.513z"/>
</g>
<g>
	<path fill="#231F20" d="M40.953,19.424c0.56-0.855,0.855-1.144,1.207-1.144c0.192,0,0.328,0.12,0.328,0.296
		c0,0.168-0.112,0.288-0.272,0.288c-0.152,0-0.224-0.136-0.416-0.136c-0.144,0-0.432,0.352-0.783,0.968
		c0,0.056,0.016,0.167,0.064,0.359l0.256,1.071c0.056,0.224,0.128,0.328,0.24,0.328c0.104,0,0.192-0.08,0.376-0.32
		c0.072-0.096,0.104-0.144,0.167-0.224l0.12,0.072c-0.464,0.72-0.671,0.911-0.976,0.911c-0.256,0-0.375-0.144-0.472-0.544
		l-0.232-0.951l-0.704,0.951c-0.352,0.472-0.512,0.544-0.759,0.544c-0.248,0-0.4-0.128-0.4-0.336c0-0.16,0.112-0.288,0.272-0.288
		c0.072,0,0.152,0.032,0.256,0.088c0.08,0.049,0.16,0.072,0.208,0.072c0.088,0,0.24-0.151,0.408-0.392l0.656-0.928l-0.224-0.991
		c-0.112-0.479-0.168-0.544-0.368-0.544c-0.064,0-0.16,0.017-0.312,0.057l-0.144,0.04l-0.024-0.129l0.088-0.031
		c0.488-0.176,0.751-0.232,0.936-0.232c0.2,0,0.296,0.145,0.408,0.688L40.953,19.424z"/>
	<path fill="#231F20" d="M43.169,23.054v-6.54h1.687v0.2h-0.664c-0.272,0-0.416,0.096-0.416,0.384v5.324
		c0,0.32,0.152,0.433,0.416,0.433h0.664v0.199H43.169z"/>
	<path fill="#231F20" d="M48.92,20.976c-0.544,0.743-0.744,0.903-1.12,0.903c-0.2,0-0.375-0.128-0.375-0.432
		c0-0.08,0.016-0.185,0.128-0.601l0.352-1.295c0.064-0.248,0.112-0.535,0.112-0.632c0-0.144-0.072-0.231-0.192-0.231
		c-0.32,0-0.679,0.392-1.183,1.135c-0.36,0.536-0.424,0.72-0.8,1.983h-0.6l0.768-2.799c0.008-0.04,0.016-0.088,0.016-0.136
		c0-0.16-0.112-0.208-0.52-0.216v-0.128c0.647-0.128,0.872-0.16,1.295-0.248l0.032,0.017l-0.536,1.743
		c0.799-1.279,1.335-1.76,1.847-1.76c0.344,0,0.52,0.2,0.52,0.488c0,0.144-0.032,0.312-0.08,0.479l-0.448,1.623
		c-0.08,0.288-0.112,0.424-0.112,0.487c0,0.072,0.032,0.145,0.128,0.145c0.112,0,0.256-0.128,0.488-0.424
		c0.056-0.064,0.112-0.136,0.168-0.208L48.92,20.976z"/>
	<path fill="#231F20" d="M49.402,23.054v-0.199h0.704c0.28,0,0.375-0.12,0.375-0.368v-5.341c0-0.28-0.104-0.432-0.408-0.432h-0.671
		v-0.2h1.687v6.54H49.402z"/>
</g>
<g>
	<path fill="#231F20" d="M111.891,21.199c0.68-1.128,0.976-1.703,0.976-2.055c0-0.112-0.056-0.16-0.208-0.256
		c-0.16-0.104-0.208-0.185-0.208-0.313c0-0.176,0.136-0.296,0.32-0.296c0.24,0,0.416,0.2,0.416,0.44
		c0,0.455-0.384,1.335-1.047,2.438c-0.832,1.375-1.688,2.295-2.143,2.295c-0.24,0-0.408-0.137-0.408-0.344
		c0-0.177,0.136-0.32,0.312-0.32c0.28,0,0.28,0.224,0.488,0.224c0.104,0,0.2-0.063,0.384-0.264c0.144-0.151,0.503-0.624,0.567-0.728
		c0.048-0.096,0.08-0.191,0.08-0.279c0-0.32-0.44-2.111-0.656-2.655c-0.152-0.392-0.296-0.512-0.616-0.512
		c-0.088,0-0.16,0.008-0.248,0.032v-0.136c0.088-0.017,0.176-0.032,0.256-0.048c0.16-0.032,0.423-0.08,0.855-0.145h0.032
		c0.12,0,0.544,1.327,0.68,2.039L111.891,21.199z"/>
	<path fill="#231F20" d="M114.035,23.054v-6.54h1.687v0.2h-0.664c-0.272,0-0.416,0.096-0.416,0.384v5.324
		c0,0.32,0.152,0.433,0.416,0.433h0.664v0.199H114.035z"/>
	<path fill="#231F20" d="M119.786,20.976c-0.544,0.743-0.744,0.903-1.12,0.903c-0.2,0-0.375-0.128-0.375-0.432
		c0-0.08,0.016-0.185,0.128-0.601l0.352-1.295c0.064-0.248,0.112-0.535,0.112-0.632c0-0.144-0.072-0.231-0.192-0.231
		c-0.32,0-0.679,0.392-1.183,1.135c-0.36,0.536-0.424,0.72-0.8,1.983h-0.6l0.768-2.799c0.008-0.04,0.016-0.088,0.016-0.136
		c0-0.16-0.112-0.208-0.52-0.216v-0.128c0.647-0.128,0.872-0.16,1.295-0.248l0.032,0.017l-0.536,1.743
		c0.799-1.279,1.335-1.76,1.847-1.76c0.344,0,0.52,0.2,0.52,0.488c0,0.144-0.032,0.312-0.08,0.479l-0.448,1.623
		c-0.08,0.288-0.112,0.424-0.112,0.487c0,0.072,0.032,0.145,0.128,0.145c0.112,0,0.256-0.128,0.488-0.424
		c0.056-0.064,0.112-0.136,0.168-0.208L119.786,20.976z"/>
	<path fill="#231F20" d="M120.268,23.054v-0.199h0.704c0.28,0,0.375-0.12,0.375-0.368v-5.341c0-0.28-0.104-0.432-0.408-0.432h-0.671
		v-0.2h1.687v6.54H120.268z"/>
</g>
<g>
	<path fill="#929497" d="M-23.263,186.342c-1.539,0-2.035-1.675-2.035-3.15c0-1.594,0.622-3.062,2.071-3.062
		c1.179,0,1.999,1.27,1.999,3.115C-21.229,184.793-21.795,186.342-23.263,186.342z M-23.281,180.364
		c-0.747,0-1.152,1.063-1.152,2.89s0.396,2.854,1.17,2.854c0.766,0,1.17-1.035,1.17-2.817
		C-22.093,181.417-22.489,180.364-23.281,180.364z"/>
</g>
<line fill="none" stroke="#231F20" stroke-miterlimit="10" x1="-15.537" y1="237.236" x2="-15.536" y2="237.237"/>
<g>
	<path fill="#231F20" d="M6.354,157.734l-3.051-6.184l0.591-0.292l3.051,6.184L6.354,157.734z"/>
	<path fill="#231F20" d="M10.22,154.857c0.578-0.14,0.823-0.138,1.442,0.213c0.401,0.227,0.625,0.25,0.849,0.139
		c0.144-0.07,0.216-0.172,0.176-0.252c-0.018-0.037-0.059-0.073-0.111-0.113c-0.107-0.081-0.16-0.145-0.195-0.216
		c-0.066-0.157,0.002-0.38,0.146-0.45c0.188-0.094,0.38-0.021,0.478,0.176c0.177,0.359,0.004,0.846-0.498,1.093
		c-0.26,0.129-0.622,0.162-1.207,0.106c-0.55-0.053-0.895-0.027-1.127,0.088c-0.144,0.07-0.238,0.172-0.324,0.359l-0.12-0.041
		l1.134-4.705l-1.219,0.602c-0.467,0.23-0.598,0.395-0.551,0.94l-0.161,0.035l-0.227-1.182l2.537-1.251l0.049,0.098L10.22,154.857z"
		/>
	<path fill="#231F20" d="M15.446,153.248l-3.051-6.184l0.592-0.292l3.051,6.184L15.446,153.248z"/>
</g>
<g>
	<g>
		<line fill="none" stroke="#00ADEE" stroke-miterlimit="10" x1="-28.348" y1="177.712" x2="45.878" y2="141.878"/>
		<g>
			<polygon fill="#00ADEE" points="45.304,145.246 53.804,137.918 42.778,140.014 			"/>
		</g>
	</g>
</g>
<g>
	<g>
		<path fill="none" stroke="#00ADEE" stroke-width="0.5" stroke-miterlimit="10" d="M14.191,157.867
			c0.325,0.533,0.638,1.073,0.937,1.619"/>
		<path fill="none" stroke="#00ADEE" stroke-width="0.5" stroke-miterlimit="10" stroke-dasharray="3.4301,3.4301" d="
			M16.644,162.563c1.6,3.641,2.639,7.524,3.027,11.572"/>
		<path fill="none" stroke="#00ADEE" stroke-width="0.5" stroke-miterlimit="10" d="M19.794,175.842
			c0.031,0.62,0.046,1.243,0.046,1.87"/>
	</g>
</g>
<g>
	<g>
		
			<line fill="none" stroke="#929497" stroke-width="0.5" stroke-miterlimit="10" x1="53.856" y1="138.026" x2="53.856" y2="140.026"/>
		
			<line fill="none" stroke="#929497" stroke-width="0.5" stroke-miterlimit="10" stroke-dasharray="3.9651,3.9651" x1="53.856" y1="143.991" x2="53.856" y2="173.729"/>
		
			<line fill="none" stroke="#929497" stroke-width="0.5" stroke-miterlimit="10" x1="53.856" y1="175.712" x2="53.856" y2="177.712"/>
	</g>
</g>
<g>
	<g>
		
			<line fill="none" stroke="#929497" stroke-width="0.5" stroke-miterlimit="10" x1="-28.348" y1="138.026" x2="-25.47" y2="138.026"/>
		
			<line fill="none" stroke="#929497" stroke-width="0.5" stroke-miterlimit="10" stroke-dasharray="5.8806,5.8806" x1="-19.589" y1="138.026" x2="48.038" y2="138.026"/>
		
			<line fill="none" stroke="#929497" stroke-width="0.5" stroke-miterlimit="10" x1="50.978" y1="138.026" x2="53.856" y2="138.026"/>
	</g>
</g>
<circle fill="#231F20" cx="53.856" cy="138.025" r="2.835"/>
<rect x="59.527" y="16.137" fill="#231F20" stroke="#FFFFFF" stroke-width="0.5" stroke-miterlimit="10" width="39.685" height="17.008"/>
<polygon fill="#231F20" stroke="#FFFFFF" stroke-width="0.1336" stroke-miterlimit="10" points="102.047,28.236 99.212,33.146 
	99.212,16.137 102.047,11.228 "/>
<polygon fill="#231F20" stroke="#FFFFFF" stroke-width="0.2887" stroke-miterlimit="10" points="99.212,16.138 59.527,16.138 
	62.801,10.468 102.486,10.468 "/>
<g>
	<path fill="#FFFFFF" d="M77.591,27.476h-4.835v-0.171c0.665-0.036,0.782-0.18,0.782-0.862v-3.874c0-0.692-0.081-0.817-0.782-0.872
		v-0.17h2.543v0.17c-0.737,0.045-0.845,0.162-0.845,0.854v4.17c0,0.342,0.153,0.404,0.809,0.404h0.629
		c0.728,0,1.213-0.162,1.519-0.548c0.117-0.153,0.234-0.351,0.377-0.665h0.234L77.591,27.476z"/>
	<path fill="#FFFFFF" d="M82.716,23.054c-0.198-0.988-0.431-1.15-1.384-1.15h-0.53v4.574c0,0.684,0.125,0.791,0.863,0.827v0.171
		h-2.625v-0.171c0.746-0.045,0.845-0.144,0.845-0.935v-4.467h-0.539c-0.953,0-1.195,0.162-1.375,1.15h-0.216l0.063-1.527h5.051
		l0.063,1.527H82.716z"/>
	<path fill="#FFFFFF" d="M83.258,27.476v-0.171c0.755-0.026,0.872-0.135,0.872-0.836v-3.945c0-0.71-0.108-0.782-0.872-0.827v-0.17
		h2.669v0.17c-0.755,0.036-0.881,0.145-0.881,0.827v3.945c0,0.674,0.144,0.81,0.881,0.836v0.171H83.258z"/>
</g>
<g>
	<g>
		
			<line fill="none" stroke="#00ADEE" stroke-width="0.5" stroke-miterlimit="10" x1="125.932" y1="24.641" x2="100.827" y2="24.64"/>
		<g>
			<polygon fill="#00ADEE" points="124.689,23.106 124.434,23.382 125.788,24.641 124.434,25.899 124.689,26.174 126.339,24.641 			
				"/>
		</g>
	</g>
</g>
<g>
	<g>
		<g>
			<line fill="none" stroke="#231F20" stroke-width="0.25" stroke-miterlimit="10" x1="4.052" y1="33.146" x2="4.052" y2="2.25"/>
			<g>
				<polygon fill="#231F20" points="4.476,2.748 4.052,2.323 3.628,2.748 3.628,2.388 4.052,1.964 4.476,2.388 				"/>
			</g>
		</g>
	</g>
	<g>
		<g>
			
				<line fill="none" stroke="#00ADEE" stroke-width="0.1508" stroke-miterlimit="10" x1="6.887" y1="30.311" x2="6.887" y2="19.51"/>
			<g>
				<circle fill="#00ADEE" cx="6.887" cy="19.538" r="0.567"/>
			</g>
		</g>
	</g>
	<g>
		<g>
			
				<line fill="none" stroke="#00ADEE" stroke-width="0.1306" stroke-miterlimit="10" x1="4.052" y1="30.311" x2="4.052" y2="22.273"/>
			<g>
				<circle fill="#00ADEE" cx="4.052" cy="22.298" r="0.491"/>
			</g>
		</g>
	</g>
	<g>
		<g>
			
				<line fill="none" stroke="#00ADEE" stroke-width="0.1685" stroke-miterlimit="10" x1="12.556" y1="30.311" x2="12.556" y2="16.739"/>
			<g>
				<circle fill="#00ADEE" cx="12.556" cy="16.771" r="0.634"/>
			</g>
		</g>
	</g>
	<g>
		<g>
			
				<line fill="none" stroke="#00ADEE" stroke-width="0.2132" stroke-miterlimit="10" x1="9.721" y1="30.311" x2="9.721" y2="8.395"/>
			<g>
				<circle fill="#00ADEE" cx="9.721" cy="8.435" r="0.802"/>
			</g>
		</g>
	</g>
	<g>
		<g>
			
				<line fill="none" stroke="#00ADEE" stroke-width="0.1994" stroke-miterlimit="10" x1="18.226" y1="30.311" x2="18.226" y2="11.18"/>
			<g>
				<circle fill="#00ADEE" cx="18.226" cy="11.218" r="0.75"/>
			</g>
		</g>
	</g>
	<g>
		<g>
			
				<line fill="none" stroke="#00ADEE" stroke-width="0.1846" stroke-miterlimit="10" x1="15.391" y1="30.311" x2="15.391" y2="13.962"/>
			<g>
				<circle fill="#00ADEE" cx="15.391" cy="13.997" r="0.694"/>
			</g>
		</g>
	</g>
	<g>
		<g>
			
				<line fill="none" stroke="#00ADEE" stroke-width="0.1685" stroke-miterlimit="10" x1="23.895" y1="30.311" x2="23.895" y2="16.739"/>
			<g>
				<circle fill="#00ADEE" cx="23.895" cy="16.771" r="0.634"/>
			</g>
		</g>
	</g>
	<g>
		<g>
			
				<line fill="none" stroke="#00ADEE" stroke-width="0.1846" stroke-miterlimit="10" x1="21.06" y1="30.311" x2="21.06" y2="13.962"/>
			<g>
				<circle fill="#00ADEE" cx="21.06" cy="13.997" r="0.694"/>
			</g>
		</g>
	</g>
	<g>
		<g>
			
				<line fill="none" stroke="#00ADEE" stroke-width="0.1846" stroke-miterlimit="10" x1="29.564" y1="30.311" x2="29.564" y2="13.962"/>
			<g>
				<circle fill="#00ADEE" cx="29.564" cy="13.997" r="0.694"/>
			</g>
		</g>
	</g>
	<g>
		<g>
			
				<line fill="none" stroke="#00ADEE" stroke-width="0.1846" stroke-miterlimit="10" x1="26.729" y1="30.311" x2="26.729" y2="13.962"/>
			<g>
				<circle fill="#00ADEE" cx="26.729" cy="13.997" r="0.694"/>
			</g>
		</g>
	</g>
	<g>
		<g>
			
				<line fill="none" stroke="#231F20" stroke-width="0.24" stroke-miterlimit="10" x1="1.219" y1="29.918" x2="32.126" y2="29.918"/>
			<g>
				<polygon fill="#231F20" points="31.648,30.325 32.055,29.918 31.648,29.511 31.994,29.511 32.4,29.918 31.994,30.325 				"/>
			</g>
		</g>
	</g>
</g>
<g>
	<g>
		<g>
			
				<line fill="none" stroke="#231F20" stroke-width="0.25" stroke-miterlimit="10" x1="132.009" y1="33.146" x2="132.009" y2="2.25"/>
			<g>
				<polygon fill="#231F20" points="132.433,2.748 132.009,2.323 131.585,2.748 131.585,2.388 132.009,1.964 132.433,2.388 				"/>
			</g>
		</g>
	</g>
	<g>
		<g>
			
				<line fill="none" stroke="#00ADEE" stroke-width="0.1539" stroke-miterlimit="10" x1="134.844" y1="30.311" x2="134.844" y2="19.05"/>
			<g>
				<circle fill="#00ADEE" cx="134.844" cy="19.078" r="0.579"/>
			</g>
		</g>
	</g>
	<g>
		<g>
			
				<line fill="none" stroke="#00ADEE" stroke-width="0.1306" stroke-miterlimit="10" x1="132.009" y1="30.311" x2="132.009" y2="22.273"/>
			<g>
				<circle fill="#00ADEE" cx="132.009" cy="22.298" r="0.491"/>
			</g>
		</g>
	</g>
	<g>
		<g>
			
				<line fill="none" stroke="#00ADEE" stroke-width="0.1826" stroke-miterlimit="10" x1="140.513" y1="30.311" x2="140.513" y2="14.319"/>
			<g>
				<circle fill="#00ADEE" cx="140.513" cy="14.354" r="0.687"/>
			</g>
		</g>
	</g>
	<g>
		<g>
			
				<line fill="none" stroke="#00ADEE" stroke-width="0.1686" stroke-miterlimit="10" x1="137.678" y1="30.311" x2="137.678" y2="16.735"/>
			<g>
				<circle fill="#00ADEE" cx="137.678" cy="16.767" r="0.634"/>
			</g>
		</g>
	</g>
	<g>
		<g>
			
				<line fill="none" stroke="#00ADEE" stroke-width="0.1959" stroke-miterlimit="10" x1="146.183" y1="30.311" x2="146.183" y2="11.867"/>
			<g>
				<circle fill="#00ADEE" cx="146.183" cy="11.903" r="0.736"/>
			</g>
		</g>
	</g>
	<g>
		<g>
			
				<line fill="none" stroke="#00ADEE" stroke-width="0.1907" stroke-miterlimit="10" x1="143.348" y1="30.311" x2="143.348" y2="12.848"/>
			<g>
				<circle fill="#00ADEE" cx="143.348" cy="12.884" r="0.717"/>
			</g>
		</g>
	</g>
	<g>
		<g>
			
				<line fill="none" stroke="#00ADEE" stroke-width="0.1819" stroke-miterlimit="10" x1="151.852" y1="30.311" x2="151.852" y2="14.454"/>
			<g>
				<circle fill="#00ADEE" cx="151.852" cy="14.488" r="0.684"/>
			</g>
		</g>
	</g>
	<g>
		<g>
			
				<line fill="none" stroke="#00ADEE" stroke-width="0.1898" stroke-miterlimit="10" x1="149.017" y1="30.311" x2="149.017" y2="13.012"/>
			<g>
				<circle fill="#00ADEE" cx="149.017" cy="13.047" r="0.714"/>
			</g>
		</g>
	</g>
	<g>
		<g>
			
				<line fill="none" stroke="#00ADEE" stroke-width="0.1873" stroke-miterlimit="10" x1="157.521" y1="30.311" x2="157.521" y2="13.472"/>
			<g>
				<circle fill="#00ADEE" cx="157.521" cy="13.507" r="0.704"/>
			</g>
		</g>
	</g>
	<g>
		<g>
			
				<line fill="none" stroke="#00ADEE" stroke-width="0.1846" stroke-miterlimit="10" x1="154.686" y1="30.311" x2="154.686" y2="13.962"/>
			<g>
				<circle fill="#00ADEE" cx="154.686" cy="13.997" r="0.694"/>
			</g>
		</g>
	</g>
	<g>
		<g>
			
				<line fill="none" stroke="#231F20" stroke-width="0.24" stroke-miterlimit="10" x1="129.175" y1="29.918" x2="160.083" y2="29.918"/>
			<g>
				<polygon fill="#231F20" points="159.604,30.325 160.012,29.918 159.604,29.511 159.95,29.511 160.357,29.918 159.95,30.325 				
					"/>
			</g>
		</g>
	</g>
</g>
</svg>
