<?xml version="1.0" encoding="utf-8"?>
<!-- Generator: Adobe Illustrator 25.4.1, SVG Export Plug-In . SVG Version: 6.00 Build 0)  -->
<svg version="1.1" xmlns="http://www.w3.org/2000/svg" xmlns:xlink="http://www.w3.org/1999/xlink" x="0px" y="0px"
	 viewBox="0 0 72.515 60.074" enable-background="new 0 0 72.515 60.074" xml:space="preserve">
<g id="Layer_4" opacity="0.5">
	<g id="Clipped_grid_00000137129446308178077950000013005667437905853064_">
		<defs>
			<rect id="SVGID_1_" x="-3.536" y="-2.025" width="78.536" height="65.043"/>
		</defs>
		<clipPath id="SVGID_00000139997328679350485460000007215861785970065086_">
			<use xlink:href="#SVGID_1_"  overflow="visible"/>
		</clipPath>
		
			<g id="Grid_00000005956039729426101060000000318415640656907949_" opacity="0.25" clip-path="url(#SVGID_00000139997328679350485460000007215861785970065086_)">
			<g id="Horizontal_1_mm_00000044136886791694282240000017533152671076335276_">
				
					<line fill="none" stroke="#00ABEB" stroke-width="0.15" stroke-miterlimit="10" x1="-114.162" y1="-17.787" x2="112.679" y2="-17.787"/>
				
					<line fill="none" stroke="#00ABEB" stroke-width="0.15" stroke-miterlimit="10" x1="-114.162" y1="-20.622" x2="112.679" y2="-20.622"/>
				
					<line fill="none" stroke="#00ABEB" stroke-width="0.15" stroke-miterlimit="10" x1="-114.162" y1="149.457" x2="112.679" y2="149.457"/>
				
					<line fill="none" stroke="#00ABEB" stroke-width="0.15" stroke-miterlimit="10" x1="-114.162" y1="146.622" x2="112.679" y2="146.622"/>
				
					<line fill="none" stroke="#00ABEB" stroke-width="0.15" stroke-miterlimit="10" x1="-114.162" y1="143.788" x2="112.679" y2="143.788"/>
				
					<line fill="none" stroke="#00ABEB" stroke-width="0.15" stroke-miterlimit="10" x1="-114.162" y1="140.953" x2="112.679" y2="140.953"/>
				
					<line fill="none" stroke="#00ABEB" stroke-width="0.15" stroke-miterlimit="10" x1="-114.162" y1="138.118" x2="112.679" y2="138.118"/>
				
					<line fill="none" stroke="#00ABEB" stroke-width="0.15" stroke-miterlimit="10" x1="-114.162" y1="135.284" x2="112.679" y2="135.284"/>
				
					<line fill="none" stroke="#00ABEB" stroke-width="0.15" stroke-miterlimit="10" x1="-114.162" y1="132.449" x2="112.679" y2="132.449"/>
				
					<line fill="none" stroke="#00ABEB" stroke-width="0.15" stroke-miterlimit="10" x1="-114.162" y1="129.615" x2="112.679" y2="129.615"/>
				
					<line fill="none" stroke="#00ABEB" stroke-width="0.15" stroke-miterlimit="10" x1="-114.162" y1="126.78" x2="112.679" y2="126.78"/>
				
					<line fill="none" stroke="#00ABEB" stroke-width="0.15" stroke-miterlimit="10" x1="-114.162" y1="123.945" x2="112.679" y2="123.945"/>
				
					<line fill="none" stroke="#00ABEB" stroke-width="0.15" stroke-miterlimit="10" x1="-114.162" y1="121.111" x2="112.679" y2="121.111"/>
				
					<line fill="none" stroke="#00ABEB" stroke-width="0.15" stroke-miterlimit="10" x1="-114.162" y1="118.276" x2="112.679" y2="118.276"/>
				
					<line fill="none" stroke="#00ABEB" stroke-width="0.15" stroke-miterlimit="10" x1="-114.162" y1="115.441" x2="112.679" y2="115.441"/>
				
					<line fill="none" stroke="#00ABEB" stroke-width="0.15" stroke-miterlimit="10" x1="-114.162" y1="112.607" x2="112.679" y2="112.607"/>
				
					<line fill="none" stroke="#00ABEB" stroke-width="0.15" stroke-miterlimit="10" x1="-114.162" y1="109.772" x2="112.679" y2="109.772"/>
				
					<line fill="none" stroke="#00ABEB" stroke-width="0.15" stroke-miterlimit="10" x1="-114.162" y1="106.937" x2="112.679" y2="106.937"/>
				
					<line fill="none" stroke="#00ABEB" stroke-width="0.15" stroke-miterlimit="10" x1="-114.162" y1="104.103" x2="112.679" y2="104.103"/>
				
					<line fill="none" stroke="#00ABEB" stroke-width="0.15" stroke-miterlimit="10" x1="-114.162" y1="101.268" x2="112.679" y2="101.268"/>
				
					<line fill="none" stroke="#00ABEB" stroke-width="0.15" stroke-miterlimit="10" x1="-114.162" y1="98.433" x2="112.679" y2="98.433"/>
				
					<line fill="none" stroke="#00ABEB" stroke-width="0.15" stroke-miterlimit="10" x1="-114.162" y1="95.599" x2="112.679" y2="95.599"/>
				
					<line fill="none" stroke="#00ABEB" stroke-width="0.15" stroke-miterlimit="10" x1="-114.162" y1="92.764" x2="112.679" y2="92.764"/>
				
					<line fill="none" stroke="#00ABEB" stroke-width="0.15" stroke-miterlimit="10" x1="-114.162" y1="89.929" x2="112.679" y2="89.929"/>
				
					<line fill="none" stroke="#00ABEB" stroke-width="0.15" stroke-miterlimit="10" x1="-114.162" y1="87.095" x2="112.679" y2="87.095"/>
				
					<line fill="none" stroke="#00ABEB" stroke-width="0.15" stroke-miterlimit="10" x1="-114.162" y1="84.26" x2="112.679" y2="84.26"/>
				
					<line fill="none" stroke="#00ABEB" stroke-width="0.15" stroke-miterlimit="10" x1="-114.162" y1="81.426" x2="112.679" y2="81.426"/>
				
					<line fill="none" stroke="#00ABEB" stroke-width="0.15" stroke-miterlimit="10" x1="-114.162" y1="78.591" x2="112.679" y2="78.591"/>
				
					<line fill="none" stroke="#00ABEB" stroke-width="0.15" stroke-miterlimit="10" x1="-114.162" y1="75.756" x2="112.679" y2="75.756"/>
				
					<line fill="none" stroke="#00ABEB" stroke-width="0.15" stroke-miterlimit="10" x1="-114.162" y1="72.922" x2="112.679" y2="72.922"/>
				
					<line fill="none" stroke="#00ABEB" stroke-width="0.15" stroke-miterlimit="10" x1="-114.162" y1="70.087" x2="112.679" y2="70.087"/>
				
					<line fill="none" stroke="#00ABEB" stroke-width="0.15" stroke-miterlimit="10" x1="-114.162" y1="67.252" x2="112.679" y2="67.252"/>
				
					<line fill="none" stroke="#00ABEB" stroke-width="0.15" stroke-miterlimit="10" x1="-114.162" y1="64.418" x2="112.679" y2="64.418"/>
				
					<line fill="none" stroke="#00ABEB" stroke-width="0.15" stroke-miterlimit="10" x1="-114.162" y1="61.583" x2="112.679" y2="61.583"/>
				
					<line fill="none" stroke="#00ABEB" stroke-width="0.15" stroke-miterlimit="10" x1="-114.162" y1="58.748" x2="112.679" y2="58.748"/>
				
					<line fill="none" stroke="#00ABEB" stroke-width="0.15" stroke-miterlimit="10" x1="-114.162" y1="55.914" x2="112.679" y2="55.914"/>
				
					<line fill="none" stroke="#00ABEB" stroke-width="0.15" stroke-miterlimit="10" x1="-114.162" y1="53.079" x2="112.679" y2="53.079"/>
				
					<line fill="none" stroke="#00ABEB" stroke-width="0.15" stroke-miterlimit="10" x1="-114.162" y1="50.244" x2="112.679" y2="50.244"/>
				
					<line fill="none" stroke="#00ABEB" stroke-width="0.15" stroke-miterlimit="10" x1="-114.162" y1="47.41" x2="112.679" y2="47.41"/>
				
					<line fill="none" stroke="#00ABEB" stroke-width="0.15" stroke-miterlimit="10" x1="-114.162" y1="44.575" x2="112.679" y2="44.575"/>
				
					<line fill="none" stroke="#00ABEB" stroke-width="0.15" stroke-miterlimit="10" x1="-114.162" y1="41.74" x2="112.679" y2="41.74"/>
				
					<line fill="none" stroke="#00ABEB" stroke-width="0.15" stroke-miterlimit="10" x1="-114.162" y1="38.906" x2="112.679" y2="38.906"/>
				
					<line fill="none" stroke="#00ABEB" stroke-width="0.15" stroke-miterlimit="10" x1="-114.162" y1="36.071" x2="112.679" y2="36.071"/>
				
					<line fill="none" stroke="#00ABEB" stroke-width="0.15" stroke-miterlimit="10" x1="-114.162" y1="33.237" x2="112.679" y2="33.237"/>
				
					<line fill="none" stroke="#00ABEB" stroke-width="0.15" stroke-miterlimit="10" x1="-114.162" y1="30.402" x2="112.679" y2="30.402"/>
				
					<line fill="none" stroke="#00ABEB" stroke-width="0.15" stroke-miterlimit="10" x1="-114.162" y1="27.567" x2="112.679" y2="27.567"/>
				
					<line fill="none" stroke="#00ABEB" stroke-width="0.15" stroke-miterlimit="10" x1="-114.162" y1="24.733" x2="112.679" y2="24.733"/>
				
					<line fill="none" stroke="#00ABEB" stroke-width="0.15" stroke-miterlimit="10" x1="-114.162" y1="21.898" x2="112.679" y2="21.898"/>
				
					<line fill="none" stroke="#00ABEB" stroke-width="0.15" stroke-miterlimit="10" x1="-114.162" y1="19.063" x2="112.679" y2="19.063"/>
				
					<line fill="none" stroke="#00ABEB" stroke-width="0.15" stroke-miterlimit="10" x1="-114.162" y1="16.229" x2="112.679" y2="16.229"/>
				
					<line fill="none" stroke="#00ABEB" stroke-width="0.15" stroke-miterlimit="10" x1="-114.162" y1="13.394" x2="112.679" y2="13.394"/>
				
					<line fill="none" stroke="#00ABEB" stroke-width="0.15" stroke-miterlimit="10" x1="-114.162" y1="10.559" x2="112.679" y2="10.559"/>
				
					<line fill="none" stroke="#00ABEB" stroke-width="0.15" stroke-miterlimit="10" x1="-114.162" y1="7.725" x2="112.679" y2="7.725"/>
				
					<line fill="none" stroke="#00ABEB" stroke-width="0.15" stroke-miterlimit="10" x1="-114.162" y1="4.89" x2="112.679" y2="4.89"/>
				
					<line fill="none" stroke="#00ABEB" stroke-width="0.15" stroke-miterlimit="10" x1="-114.162" y1="2.055" x2="112.679" y2="2.055"/>
				
					<line fill="none" stroke="#00ABEB" stroke-width="0.15" stroke-miterlimit="10" x1="-114.162" y1="-0.779" x2="112.679" y2="-0.779"/>
				
					<line fill="none" stroke="#00ABEB" stroke-width="0.15" stroke-miterlimit="10" x1="-114.162" y1="-3.614" x2="112.679" y2="-3.614"/>
				
					<line fill="none" stroke="#00ABEB" stroke-width="0.15" stroke-miterlimit="10" x1="-114.162" y1="-6.448" x2="112.679" y2="-6.448"/>
				
					<line fill="none" stroke="#00ABEB" stroke-width="0.15" stroke-miterlimit="10" x1="-114.162" y1="-9.283" x2="112.679" y2="-9.283"/>
				
					<line fill="none" stroke="#00ABEB" stroke-width="0.15" stroke-miterlimit="10" x1="-114.162" y1="-12.118" x2="112.679" y2="-12.118"/>
				
					<line fill="none" stroke="#00ABEB" stroke-width="0.15" stroke-miterlimit="10" x1="-114.162" y1="-14.952" x2="112.679" y2="-14.952"/>
			</g>
			<g id="Vertical_1_mm_00000016046155830880385390000014987853359577666225_">
				<g>
					
						<line fill="none" stroke="#00ABEB" stroke-width="0.15" stroke-miterlimit="10" x1="-114.087" y1="149.443" x2="-114.087" y2="-20.697"/>
				</g>
				
					<line fill="none" stroke="#00ABEB" stroke-width="0.15" stroke-miterlimit="10" x1="-111.253" y1="149.443" x2="-111.253" y2="-20.697"/>
				
					<line fill="none" stroke="#00ABEB" stroke-width="0.15" stroke-miterlimit="10" x1="-108.418" y1="149.443" x2="-108.418" y2="-20.697"/>
				
					<line fill="none" stroke="#00ABEB" stroke-width="0.15" stroke-miterlimit="10" x1="-105.583" y1="149.443" x2="-105.583" y2="-20.697"/>
				
					<line fill="none" stroke="#00ABEB" stroke-width="0.15" stroke-miterlimit="10" x1="-102.749" y1="149.443" x2="-102.749" y2="-20.697"/>
				
					<line fill="none" stroke="#00ABEB" stroke-width="0.15" stroke-miterlimit="10" x1="-99.914" y1="149.443" x2="-99.914" y2="-20.697"/>
				
					<line fill="none" stroke="#00ABEB" stroke-width="0.15" stroke-miterlimit="10" x1="-97.079" y1="149.443" x2="-97.079" y2="-20.697"/>
				
					<line fill="none" stroke="#00ABEB" stroke-width="0.15" stroke-miterlimit="10" x1="-94.245" y1="149.443" x2="-94.245" y2="-20.697"/>
				
					<line fill="none" stroke="#00ABEB" stroke-width="0.15" stroke-miterlimit="10" x1="-91.41" y1="149.443" x2="-91.41" y2="-20.697"/>
				
					<line fill="none" stroke="#00ABEB" stroke-width="0.15" stroke-miterlimit="10" x1="-88.576" y1="149.443" x2="-88.576" y2="-20.697"/>
				
					<line fill="none" stroke="#00ABEB" stroke-width="0.15" stroke-miterlimit="10" x1="-85.741" y1="149.443" x2="-85.741" y2="-20.697"/>
				
					<line fill="none" stroke="#00ABEB" stroke-width="0.15" stroke-miterlimit="10" x1="-82.906" y1="149.443" x2="-82.906" y2="-20.697"/>
				
					<line fill="none" stroke="#00ABEB" stroke-width="0.15" stroke-miterlimit="10" x1="-80.072" y1="149.443" x2="-80.072" y2="-20.697"/>
				
					<line fill="none" stroke="#00ABEB" stroke-width="0.15" stroke-miterlimit="10" x1="-77.237" y1="149.443" x2="-77.237" y2="-20.697"/>
				
					<line fill="none" stroke="#00ABEB" stroke-width="0.15" stroke-miterlimit="10" x1="-74.402" y1="149.443" x2="-74.402" y2="-20.697"/>
				
					<line fill="none" stroke="#00ABEB" stroke-width="0.15" stroke-miterlimit="10" x1="-71.568" y1="149.443" x2="-71.568" y2="-20.697"/>
				
					<line fill="none" stroke="#00ABEB" stroke-width="0.15" stroke-miterlimit="10" x1="-68.733" y1="149.443" x2="-68.733" y2="-20.697"/>
				
					<line fill="none" stroke="#00ABEB" stroke-width="0.15" stroke-miterlimit="10" x1="-65.898" y1="149.443" x2="-65.898" y2="-20.697"/>
				
					<line fill="none" stroke="#00ABEB" stroke-width="0.15" stroke-miterlimit="10" x1="-63.064" y1="149.443" x2="-63.064" y2="-20.697"/>
				
					<line fill="none" stroke="#00ABEB" stroke-width="0.15" stroke-miterlimit="10" x1="-60.229" y1="149.443" x2="-60.229" y2="-20.697"/>
				
					<line fill="none" stroke="#00ABEB" stroke-width="0.15" stroke-miterlimit="10" x1="-57.394" y1="149.443" x2="-57.394" y2="-20.697"/>
				
					<line fill="none" stroke="#00ABEB" stroke-width="0.15" stroke-miterlimit="10" x1="-54.56" y1="149.443" x2="-54.56" y2="-20.697"/>
				
					<line fill="none" stroke="#00ABEB" stroke-width="0.15" stroke-miterlimit="10" x1="-51.725" y1="149.443" x2="-51.725" y2="-20.697"/>
				
					<line fill="none" stroke="#00ABEB" stroke-width="0.15" stroke-miterlimit="10" x1="-48.89" y1="149.443" x2="-48.89" y2="-20.697"/>
				
					<line fill="none" stroke="#00ABEB" stroke-width="0.15" stroke-miterlimit="10" x1="-46.056" y1="149.443" x2="-46.056" y2="-20.697"/>
				
					<line fill="none" stroke="#00ABEB" stroke-width="0.15" stroke-miterlimit="10" x1="-43.221" y1="149.443" x2="-43.221" y2="-20.697"/>
				
					<line fill="none" stroke="#00ABEB" stroke-width="0.15" stroke-miterlimit="10" x1="-40.387" y1="149.443" x2="-40.387" y2="-20.697"/>
				
					<line fill="none" stroke="#00ABEB" stroke-width="0.15" stroke-miterlimit="10" x1="-37.552" y1="149.443" x2="-37.552" y2="-20.697"/>
				
					<line fill="none" stroke="#00ABEB" stroke-width="0.15" stroke-miterlimit="10" x1="-34.717" y1="149.443" x2="-34.717" y2="-20.697"/>
				
					<line fill="none" stroke="#00ABEB" stroke-width="0.15" stroke-miterlimit="10" x1="-31.883" y1="149.443" x2="-31.883" y2="-20.697"/>
				
					<line fill="none" stroke="#00ABEB" stroke-width="0.15" stroke-miterlimit="10" x1="-29.048" y1="149.443" x2="-29.048" y2="-20.697"/>
				
					<line fill="none" stroke="#00ABEB" stroke-width="0.15" stroke-miterlimit="10" x1="-26.213" y1="149.443" x2="-26.213" y2="-20.697"/>
				
					<line fill="none" stroke="#00ABEB" stroke-width="0.15" stroke-miterlimit="10" x1="-23.379" y1="149.443" x2="-23.379" y2="-20.697"/>
				
					<line fill="none" stroke="#00ABEB" stroke-width="0.15" stroke-miterlimit="10" x1="-20.544" y1="149.443" x2="-20.544" y2="-20.697"/>
				
					<line fill="none" stroke="#00ABEB" stroke-width="0.15" stroke-miterlimit="10" x1="-17.709" y1="149.443" x2="-17.709" y2="-20.697"/>
				
					<line fill="none" stroke="#00ABEB" stroke-width="0.15" stroke-miterlimit="10" x1="-14.875" y1="149.443" x2="-14.875" y2="-20.697"/>
				
					<line fill="none" stroke="#00ABEB" stroke-width="0.15" stroke-miterlimit="10" x1="-12.04" y1="149.443" x2="-12.04" y2="-20.697"/>
				
					<line fill="none" stroke="#00ABEB" stroke-width="0.15" stroke-miterlimit="10" x1="-9.205" y1="149.443" x2="-9.205" y2="-20.697"/>
				
					<line fill="none" stroke="#00ABEB" stroke-width="0.15" stroke-miterlimit="10" x1="-6.371" y1="149.443" x2="-6.371" y2="-20.697"/>
				
					<line fill="none" stroke="#00ABEB" stroke-width="0.15" stroke-miterlimit="10" x1="-3.536" y1="149.443" x2="-3.536" y2="-20.697"/>
				
					<line fill="none" stroke="#00ABEB" stroke-width="0.15" stroke-miterlimit="10" x1="-0.702" y1="149.443" x2="-0.702" y2="-20.697"/>
				
					<line fill="none" stroke="#00ABEB" stroke-width="0.15" stroke-miterlimit="10" x1="2.133" y1="149.443" x2="2.133" y2="-20.697"/>
				
					<line fill="none" stroke="#00ABEB" stroke-width="0.15" stroke-miterlimit="10" x1="4.968" y1="149.443" x2="4.968" y2="-20.697"/>
				
					<line fill="none" stroke="#00ABEB" stroke-width="0.15" stroke-miterlimit="10" x1="7.802" y1="149.443" x2="7.802" y2="-20.697"/>
				
					<line fill="none" stroke="#00ABEB" stroke-width="0.15" stroke-miterlimit="10" x1="10.637" y1="149.443" x2="10.637" y2="-20.697"/>
				
					<line fill="none" stroke="#00ABEB" stroke-width="0.15" stroke-miterlimit="10" x1="13.472" y1="149.443" x2="13.472" y2="-20.697"/>
				
					<line fill="none" stroke="#00ABEB" stroke-width="0.15" stroke-miterlimit="10" x1="16.306" y1="149.443" x2="16.306" y2="-20.697"/>
				
					<line fill="none" stroke="#00ABEB" stroke-width="0.15" stroke-miterlimit="10" x1="19.141" y1="149.443" x2="19.141" y2="-20.697"/>
				
					<line fill="none" stroke="#00ABEB" stroke-width="0.15" stroke-miterlimit="10" x1="21.976" y1="149.443" x2="21.976" y2="-20.697"/>
				
					<line fill="none" stroke="#00ABEB" stroke-width="0.15" stroke-miterlimit="10" x1="24.81" y1="149.443" x2="24.81" y2="-20.697"/>
				
					<line fill="none" stroke="#00ABEB" stroke-width="0.15" stroke-miterlimit="10" x1="27.645" y1="149.443" x2="27.645" y2="-20.697"/>
				
					<line fill="none" stroke="#00ABEB" stroke-width="0.15" stroke-miterlimit="10" x1="30.48" y1="149.443" x2="30.48" y2="-20.697"/>
				
					<line fill="none" stroke="#00ABEB" stroke-width="0.15" stroke-miterlimit="10" x1="33.314" y1="149.443" x2="33.314" y2="-20.697"/>
				
					<line fill="none" stroke="#00ABEB" stroke-width="0.15" stroke-miterlimit="10" x1="36.149" y1="149.443" x2="36.149" y2="-20.697"/>
				
					<line fill="none" stroke="#00ABEB" stroke-width="0.15" stroke-miterlimit="10" x1="38.984" y1="149.443" x2="38.984" y2="-20.697"/>
				
					<line fill="none" stroke="#00ABEB" stroke-width="0.15" stroke-miterlimit="10" x1="41.818" y1="149.443" x2="41.818" y2="-20.697"/>
				
					<line fill="none" stroke="#00ABEB" stroke-width="0.15" stroke-miterlimit="10" x1="44.653" y1="149.443" x2="44.653" y2="-20.697"/>
				
					<line fill="none" stroke="#00ABEB" stroke-width="0.15" stroke-miterlimit="10" x1="47.487" y1="149.443" x2="47.487" y2="-20.697"/>
				
					<line fill="none" stroke="#00ABEB" stroke-width="0.15" stroke-miterlimit="10" x1="50.322" y1="149.443" x2="50.322" y2="-20.697"/>
				
					<line fill="none" stroke="#00ABEB" stroke-width="0.15" stroke-miterlimit="10" x1="53.157" y1="149.443" x2="53.157" y2="-20.697"/>
				
					<line fill="none" stroke="#00ABEB" stroke-width="0.15" stroke-miterlimit="10" x1="55.991" y1="149.443" x2="55.991" y2="-20.697"/>
				
					<line fill="none" stroke="#00ABEB" stroke-width="0.15" stroke-miterlimit="10" x1="58.826" y1="149.443" x2="58.826" y2="-20.697"/>
				
					<line fill="none" stroke="#00ABEB" stroke-width="0.15" stroke-miterlimit="10" x1="61.661" y1="149.443" x2="61.661" y2="-20.697"/>
				
					<line fill="none" stroke="#00ABEB" stroke-width="0.15" stroke-miterlimit="10" x1="64.495" y1="149.443" x2="64.495" y2="-20.697"/>
				
					<line fill="none" stroke="#00ABEB" stroke-width="0.15" stroke-miterlimit="10" x1="67.33" y1="149.443" x2="67.33" y2="-20.697"/>
				
					<line fill="none" stroke="#00ABEB" stroke-width="0.15" stroke-miterlimit="10" x1="70.165" y1="149.443" x2="70.165" y2="-20.697"/>
				
					<line fill="none" stroke="#00ABEB" stroke-width="0.15" stroke-miterlimit="10" x1="72.999" y1="149.443" x2="72.999" y2="-20.697"/>
				
					<line fill="none" stroke="#00ABEB" stroke-width="0.15" stroke-miterlimit="10" x1="75.834" y1="149.443" x2="75.834" y2="-20.697"/>
				
					<line fill="none" stroke="#00ABEB" stroke-width="0.15" stroke-miterlimit="10" x1="78.669" y1="149.443" x2="78.669" y2="-20.697"/>
				
					<line fill="none" stroke="#00ABEB" stroke-width="0.15" stroke-miterlimit="10" x1="81.503" y1="149.443" x2="81.503" y2="-20.697"/>
				
					<line fill="none" stroke="#00ABEB" stroke-width="0.15" stroke-miterlimit="10" x1="84.338" y1="149.443" x2="84.338" y2="-20.697"/>
				
					<line fill="none" stroke="#00ABEB" stroke-width="0.15" stroke-miterlimit="10" x1="87.173" y1="149.443" x2="87.173" y2="-20.697"/>
				
					<line fill="none" stroke="#00ABEB" stroke-width="0.15" stroke-miterlimit="10" x1="90.007" y1="149.443" x2="90.007" y2="-20.697"/>
				
					<line fill="none" stroke="#00ABEB" stroke-width="0.15" stroke-miterlimit="10" x1="92.842" y1="149.443" x2="92.842" y2="-20.697"/>
				
					<line fill="none" stroke="#00ABEB" stroke-width="0.15" stroke-miterlimit="10" x1="95.676" y1="149.443" x2="95.676" y2="-20.697"/>
				
					<line fill="none" stroke="#00ABEB" stroke-width="0.15" stroke-miterlimit="10" x1="98.511" y1="149.443" x2="98.511" y2="-20.697"/>
				
					<line fill="none" stroke="#00ABEB" stroke-width="0.15" stroke-miterlimit="10" x1="101.346" y1="149.443" x2="101.346" y2="-20.697"/>
				
					<line fill="none" stroke="#00ABEB" stroke-width="0.15" stroke-miterlimit="10" x1="104.18" y1="149.443" x2="104.18" y2="-20.697"/>
				
					<line fill="none" stroke="#00ABEB" stroke-width="0.15" stroke-miterlimit="10" x1="107.015" y1="149.443" x2="107.015" y2="-20.697"/>
				
					<line fill="none" stroke="#00ABEB" stroke-width="0.15" stroke-miterlimit="10" x1="109.85" y1="149.443" x2="109.85" y2="-20.697"/>
				
					<line fill="none" stroke="#00ABEB" stroke-width="0.15" stroke-miterlimit="10" x1="112.684" y1="149.443" x2="112.684" y2="-20.697"/>
			</g>
			<g id="Horizontal_5_mm_00000154426311712348742180000010506178608242540189_">
				
					<line fill="none" stroke="#00ABEB" stroke-width="0.3" stroke-miterlimit="10" x1="-114.437" y1="149.457" x2="112.679" y2="149.457"/>
				
					<line fill="none" stroke="#00ABEB" stroke-width="0.3" stroke-miterlimit="10" x1="-114.437" y1="135.284" x2="112.679" y2="135.284"/>
				
					<line fill="none" stroke="#00ABEB" stroke-width="0.3" stroke-miterlimit="10" x1="-114.437" y1="121.111" x2="112.679" y2="121.111"/>
				
					<line fill="none" stroke="#00ABEB" stroke-width="0.3" stroke-miterlimit="10" x1="-114.437" y1="106.937" x2="112.679" y2="106.937"/>
				
					<line fill="none" stroke="#00ABEB" stroke-width="0.3" stroke-miterlimit="10" x1="-114.437" y1="92.764" x2="112.679" y2="92.764"/>
				
					<line fill="none" stroke="#00ABEB" stroke-width="0.3" stroke-miterlimit="10" x1="-114.437" y1="78.591" x2="112.679" y2="78.591"/>
				
					<line fill="none" stroke="#00ABEB" stroke-width="0.3" stroke-miterlimit="10" x1="-114.437" y1="64.418" x2="112.679" y2="64.418"/>
				
					<line fill="none" stroke="#00ABEB" stroke-width="0.3" stroke-miterlimit="10" x1="-114.437" y1="50.244" x2="112.679" y2="50.244"/>
				
					<line fill="none" stroke="#00ABEB" stroke-width="0.3" stroke-miterlimit="10" x1="-114.437" y1="36.071" x2="112.679" y2="36.071"/>
				
					<line fill="none" stroke="#00ABEB" stroke-width="0.3" stroke-miterlimit="10" x1="-114.437" y1="21.898" x2="112.679" y2="21.898"/>
				
					<line fill="none" stroke="#00ABEB" stroke-width="0.3" stroke-miterlimit="10" x1="-114.437" y1="7.725" x2="112.679" y2="7.725"/>
			</g>
			<g id="Vertical_5_mm_00000170973566251656441140000007262765594017732280_">
				
					<line fill="none" stroke="#00ABEB" stroke-width="0.3" stroke-miterlimit="10" x1="-114.087" y1="149.443" x2="-114.087" y2="-20.972"/>
				
					<line fill="none" stroke="#00ABEB" stroke-width="0.3" stroke-miterlimit="10" x1="-99.914" y1="149.443" x2="-99.914" y2="-20.972"/>
				
					<line fill="none" stroke="#00ABEB" stroke-width="0.3" stroke-miterlimit="10" x1="-85.741" y1="149.443" x2="-85.741" y2="-20.972"/>
				
					<line fill="none" stroke="#00ABEB" stroke-width="0.3" stroke-miterlimit="10" x1="-71.568" y1="149.443" x2="-71.568" y2="-20.972"/>
				
					<line fill="none" stroke="#00ABEB" stroke-width="0.3" stroke-miterlimit="10" x1="-57.394" y1="149.443" x2="-57.394" y2="-20.972"/>
				
					<line fill="none" stroke="#00ABEB" stroke-width="0.3" stroke-miterlimit="10" x1="-43.221" y1="149.443" x2="-43.221" y2="-20.972"/>
				
					<line fill="none" stroke="#00ABEB" stroke-width="0.3" stroke-miterlimit="10" x1="-29.048" y1="149.443" x2="-29.048" y2="-20.972"/>
				
					<line fill="none" stroke="#00ABEB" stroke-width="0.3" stroke-miterlimit="10" x1="-14.875" y1="149.443" x2="-14.875" y2="-20.972"/>
				
					<line fill="none" stroke="#00ABEB" stroke-width="0.3" stroke-miterlimit="10" x1="-0.702" y1="149.443" x2="-0.702" y2="-20.972"/>
				
					<line fill="none" stroke="#00ABEB" stroke-width="0.3" stroke-miterlimit="10" x1="13.472" y1="149.443" x2="13.472" y2="-20.972"/>
				
					<line fill="none" stroke="#00ABEB" stroke-width="0.3" stroke-miterlimit="10" x1="27.645" y1="149.443" x2="27.645" y2="-20.972"/>
				
					<line fill="none" stroke="#00ABEB" stroke-width="0.3" stroke-miterlimit="10" x1="41.818" y1="149.443" x2="41.818" y2="-20.972"/>
				
					<line fill="none" stroke="#00ABEB" stroke-width="0.3" stroke-miterlimit="10" x1="55.991" y1="149.443" x2="55.991" y2="-20.972"/>
				
					<line fill="none" stroke="#00ABEB" stroke-width="0.3" stroke-miterlimit="10" x1="70.165" y1="149.443" x2="70.165" y2="-20.972"/>
				
					<line fill="none" stroke="#00ABEB" stroke-width="0.3" stroke-miterlimit="10" x1="84.338" y1="149.443" x2="84.338" y2="-20.972"/>
				
					<line fill="none" stroke="#00ABEB" stroke-width="0.3" stroke-miterlimit="10" x1="98.511" y1="149.443" x2="98.511" y2="-20.972"/>
				
					<line fill="none" stroke="#00ABEB" stroke-width="0.3" stroke-miterlimit="10" x1="112.684" y1="149.443" x2="112.684" y2="-20.972"/>
			</g>
			<g id="Horizontal_10_mm_00000094595273323708669860000010643007941384694198_">
				
					<line id="_x31_9_00000003790477251800842570000011745658169838803890_" fill="none" stroke="#00ABEB" stroke-width="0.7" stroke-miterlimit="10" x1="-114.437" y1="149.457" x2="112.679" y2="149.457"/>
				
					<line id="_x32_0_00000088122422810694144340000010470923134600732592_" fill="none" stroke="#00ABEB" stroke-width="0.7" stroke-miterlimit="10" x1="-114.437" y1="121.111" x2="112.679" y2="121.111"/>
				
					<line id="_x32_1_00000154403830626297250770000005428275677358953369_" fill="none" stroke="#00ABEB" stroke-width="0.7" stroke-miterlimit="10" x1="-114.437" y1="92.764" x2="112.679" y2="92.764"/>
				
					<line id="_x32_2_00000008848634857859620730000000593830812565524150_" fill="none" stroke="#00ABEB" stroke-width="0.7" stroke-miterlimit="10" x1="-114.437" y1="64.418" x2="112.679" y2="64.418"/>
				
					<line id="_x32_3_00000098191307111205213110000007297084638537350073_" fill="none" stroke="#00ABEB" stroke-width="0.7" stroke-miterlimit="10" x1="-114.437" y1="36.071" x2="112.679" y2="36.071"/>
				
					<line id="_x32_4_00000179639626062406001730000006094729316246840739_" fill="none" stroke="#00ABEB" stroke-width="0.7" stroke-miterlimit="10" x1="-114.437" y1="7.725" x2="112.679" y2="7.725"/>
				
					<line id="_x32_5_00000134937517992137776350000014589707839695480755_" fill="none" stroke="#00ABEB" stroke-width="0.7" stroke-miterlimit="10" x1="-114.437" y1="-20.622" x2="112.679" y2="-20.622"/>
			</g>
			<g id="Vertical_10_mm_00000051346450113319515620000016451555297870703540_">
				
					<line id="_x30__00000101070147306916411510000016769017129953685687_" fill="none" stroke="#00ABEB" stroke-width="0.7" stroke-miterlimit="10" x1="-114.087" y1="149.443" x2="-114.087" y2="-20.972"/>
				
					<line id="_x31__00000102508218024800849310000002743436313320791949_" fill="none" stroke="#00ABEB" stroke-width="0.7" stroke-miterlimit="10" x1="-85.741" y1="149.443" x2="-85.741" y2="-20.972"/>
				
					<line id="_x32__00000069385796188214243980000017957100060824408969_" fill="none" stroke="#00ABEB" stroke-width="0.7" stroke-miterlimit="10" x1="-57.394" y1="149.443" x2="-57.394" y2="-20.972"/>
				
					<line id="_x33__00000147198831960730885800000004402581641643020466_" fill="none" stroke="#00ABEB" stroke-width="0.7" stroke-miterlimit="10" x1="-29.048" y1="149.443" x2="-29.048" y2="-20.972"/>
				
					<line id="_x34__00000147915714370603737800000005187347742796262817_" fill="none" stroke="#00ABEB" stroke-width="0.7" stroke-miterlimit="10" x1="-0.702" y1="149.443" x2="-0.702" y2="-20.972"/>
				
					<line id="_x35__00000058557089507539020920000015059199104308319890_" fill="none" stroke="#00ABEB" stroke-width="0.7" stroke-miterlimit="10" x1="27.645" y1="149.443" x2="27.645" y2="-20.972"/>
				
					<line id="_x36__00000016778786381810378780000009071733393313506705_" fill="none" stroke="#00ABEB" stroke-width="0.7" stroke-miterlimit="10" x1="55.991" y1="149.443" x2="55.991" y2="-20.972"/>
				
					<line id="_x37__00000178188396445801986950000014217073854554142906_" fill="none" stroke="#00ABEB" stroke-width="0.7" stroke-miterlimit="10" x1="84.338" y1="149.443" x2="84.338" y2="-20.972"/>
				
					<line id="_x38__00000026871890071483757690000001166700500939757223_" fill="none" stroke="#00ABEB" stroke-width="0.7" stroke-miterlimit="10" x1="112.684" y1="149.443" x2="112.684" y2="-20.972"/>
			</g>
		</g>
	</g>
</g>
<g id="Layer_3">
	<g>
		<path d="M23.57,5.226c0.68-1.127,0.976-1.703,0.976-2.055c0-0.112-0.056-0.16-0.208-0.256c-0.16-0.104-0.208-0.184-0.208-0.312
			c0-0.176,0.136-0.296,0.32-0.296c0.24,0,0.416,0.2,0.416,0.439c0,0.456-0.384,1.335-1.047,2.439
			c-0.832,1.375-1.688,2.294-2.143,2.294c-0.24,0-0.408-0.136-0.408-0.344c0-0.176,0.136-0.32,0.312-0.32
			c0.28,0,0.28,0.224,0.488,0.224c0.104,0,0.2-0.064,0.384-0.264c0.144-0.152,0.503-0.624,0.567-0.728
			c0.048-0.096,0.08-0.192,0.08-0.28c0-0.32-0.44-2.111-0.656-2.654c-0.152-0.392-0.296-0.512-0.616-0.512
			c-0.088,0-0.16,0.008-0.248,0.032V2.5c0.088-0.016,0.176-0.032,0.256-0.048c0.16-0.032,0.423-0.08,0.855-0.144h0.032
			c0.12,0,0.544,1.327,0.68,2.039L23.57,5.226z"/>
	</g>
	<g>
		<path d="M66.345,40.113c0.56-0.855,0.855-1.143,1.207-1.143c0.192,0,0.328,0.12,0.328,0.296c0,0.167-0.112,0.288-0.272,0.288
			c-0.152,0-0.224-0.136-0.416-0.136c-0.144,0-0.432,0.352-0.783,0.967c0,0.056,0.016,0.168,0.064,0.36l0.256,1.071
			c0.056,0.224,0.128,0.328,0.24,0.328c0.104,0,0.192-0.08,0.376-0.319c0.072-0.096,0.104-0.144,0.167-0.224l0.12,0.072
			c-0.464,0.72-0.671,0.912-0.976,0.912c-0.256,0-0.375-0.144-0.472-0.543l-0.232-0.952l-0.704,0.952
			c-0.352,0.472-0.512,0.543-0.759,0.543c-0.248,0-0.4-0.128-0.4-0.336c0-0.16,0.112-0.288,0.272-0.288
			c0.072,0,0.152,0.032,0.256,0.088c0.08,0.048,0.16,0.072,0.208,0.072c0.088,0,0.24-0.152,0.408-0.392l0.656-0.927l-0.224-0.992
			c-0.112-0.48-0.168-0.543-0.368-0.543c-0.064,0-0.16,0.016-0.312,0.056l-0.144,0.04l-0.024-0.128l0.088-0.032
			c0.488-0.176,0.751-0.231,0.936-0.231c0.2,0,0.296,0.144,0.408,0.688L66.345,40.113z"/>
	</g>
	<circle opacity="0.5" fill="#DCDCDC" cx="27.645" cy="36.071" r="22.638"/>
	<circle fill="none" stroke="#000000" stroke-width="0.2" stroke-miterlimit="10" cx="27.645" cy="36.071" r="22.638"/>
	<g>
		<g>
			<path fill="none" stroke="#0000FF" stroke-width="0.5" stroke-miterlimit="10" d="M34.776,33.09
				c-1.646-3.938-6.173-5.796-10.112-4.15c-3.77,1.576-5.634,5.792-4.342,9.604"/>
			<g>
				<polygon fill="#0000FF" points="17.962,37.469 18.226,37.044 20.32,38.344 21.464,36.159 21.907,36.392 20.514,39.052 				"/>
			</g>
		</g>
	</g>
	<circle cx="27.644" cy="36.089" r="1.472"/>
	<g>
		<g>
			
				<line fill="none" stroke="#FF0000" stroke-width="0.1" stroke-miterlimit="10" x1="27.645" y1="36.335" x2="28.799" y2="35.376"/>
			
				<line fill="none" stroke="#FF0000" stroke-width="0.1" stroke-miterlimit="10" stroke-dasharray="2.8465,2.8465" x1="30.988" y1="33.557" x2="43.028" y2="23.55"/>
			<line fill="none" stroke="#FF0000" stroke-width="0.1" stroke-miterlimit="10" x1="44.123" y1="22.64" x2="45.276" y2="21.681"/>
		</g>
	</g>
	<g>
		<path fill="#FF0000" d="M47.459,18.626c0.152-0.336,0.424-0.759,0.751-1.104c0.208-0.216,0.448-0.359,0.632-0.359
			c0.224,0,0.376,0.168,0.376,0.408s-0.136,0.432-0.376,0.432c-0.144,0-0.208-0.088-0.28-0.208c-0.048-0.08-0.072-0.112-0.128-0.112
			c-0.144,0-0.368,0.264-0.656,0.751c-0.344,0.592-0.488,0.912-0.888,2.255h-0.607l0.647-2.334c0.112-0.416,0.128-0.488,0.128-0.656
			s-0.144-0.208-0.304-0.208c-0.064,0-0.128,0.008-0.248,0.024v-0.136l1.239-0.216l0.024,0.016l-0.44,1.727L47.459,18.626z"/>
		<path fill="#FF0000" d="M49.723,18.131v-0.528h4.03v0.528H49.723z M49.723,19.73v-0.528h4.03v0.528H49.723z"/>
		<path fill="#FF0000" d="M58.241,19.89c-0.6,0.728-0.792,0.879-1.112,0.879c-0.224,0-0.32-0.096-0.32-0.328
			c0-0.2,0.016-0.264,0.184-0.919c-0.6,0.904-1.063,1.255-1.623,1.255c-0.448,0-0.8-0.32-0.8-0.927c0-1.239,1.224-2.687,2.287-2.687
			c0.344,0,0.576,0.168,0.64,0.463l0.088-0.384l0.024-0.024l0.488-0.056l0.056,0.024c-0.016,0.072-0.024,0.088-0.048,0.168
			c-0.375,1.367-0.711,2.742-0.711,2.902c0,0.056,0.048,0.104,0.112,0.104c0.072,0,0.176-0.064,0.416-0.328l0.216-0.232
			L58.241,19.89z M56.906,17.339c-0.36,0-0.711,0.248-1.047,0.735c-0.336,0.504-0.616,1.215-0.616,1.719
			c0,0.44,0.192,0.592,0.479,0.592c0.4,0,0.776-0.44,1.016-0.784c0.376-0.544,0.616-1.231,0.616-1.799
			C57.354,17.523,57.186,17.339,56.906,17.339z"/>
	</g>
	<g>
		<g>
			<path fill="none" stroke="#FF0000" stroke-width="0.3" stroke-miterlimit="10" d="M37.768,28.343
				c1.638,2.143,2.612,4.822,2.612,7.728"/>
			<g>
				<polygon fill="#FF0000" points="37.292,29.868 37.588,29.914 37.814,28.452 39.256,28.784 39.323,28.491 37.567,28.087 				"/>
			</g>
		</g>
	</g>
	<g>
		<path fill="#FF0000" d="M43.482,32.848c-0.52,0.688-1.08,0.936-1.639,0.936c-0.647,0-1.023-0.528-1.023-1.375
			c0-1.719,0.904-3.134,1.775-3.798c0.352-0.264,0.656-0.335,0.976-0.335c0.568,0,0.983,0.384,0.983,1.335
			C44.553,30.905,44.073,32.057,43.482,32.848z M41.723,31.177c-0.152,0.4-0.232,0.815-0.232,1.319c0,0.711,0.152,1.119,0.448,1.119
			c0.768,0,1.455-1.655,1.647-2.438H41.723z M43.642,30.922c0.136-0.464,0.24-1.04,0.24-1.639c0-0.512-0.144-0.839-0.424-0.839
			c-0.696,0-1.479,1.767-1.679,2.479H43.642z"/>
	</g>
	<g>
		<path fill="#FF0000" d="M24.028,39.863c0.152-0.336,0.424-0.759,0.751-1.104c0.208-0.216,0.448-0.359,0.632-0.359
			c0.224,0,0.376,0.168,0.376,0.408s-0.136,0.432-0.376,0.432c-0.144,0-0.208-0.088-0.28-0.208c-0.048-0.08-0.072-0.112-0.128-0.112
			c-0.144,0-0.368,0.264-0.656,0.751c-0.344,0.592-0.488,0.912-0.888,2.255h-0.607l0.647-2.334c0.112-0.416,0.128-0.488,0.128-0.656
			s-0.144-0.208-0.304-0.208c-0.064,0-0.128,0.008-0.248,0.024v-0.136l1.239-0.216l0.024,0.016l-0.44,1.727L24.028,39.863z"/>
		<path fill="#FF0000" d="M26.293,39.367V38.84h4.03v0.528H26.293z M26.293,40.966v-0.528h4.03v0.528H26.293z"/>
		<path fill="#FF0000" d="M33.532,41.638c-0.328,0.231-0.672,0.344-1.008,0.344c-0.815,0-1.263-0.672-1.263-1.783
			c0-1.879,1.191-3.678,2.447-3.678c0.815,0,1.271,0.711,1.271,2.007C34.979,39.703,34.355,41.054,33.532,41.638z M33.675,36.745
			c-0.36,0-0.671,0.24-0.959,0.76c-0.416,0.751-0.823,2.318-0.823,3.174c0,0.68,0.264,1.08,0.647,1.08
			c0.368,0,0.736-0.272,1.031-0.799c0.464-0.816,0.776-2.135,0.776-3.174C34.347,37.145,34.155,36.745,33.675,36.745z"/>
	</g>
</g>
<g id="Layer_2">
	<g>
		<path d="M36.186,44.458c1.055,0,1.631,0.448,1.631,1.127c0,0.384-0.2,0.775-0.528,1.023c-0.248,0.192-0.512,0.288-1.047,0.408
			l0.711,1.879c0.176,0.472,0.336,0.656,0.696,0.656v0.128h-1.176l-0.983-2.59l-0.527-0.04l-0.44,1.623
			c-0.088,0.312-0.104,0.424-0.104,0.503c0,0.24,0.08,0.328,0.536,0.376v0.128h-1.943v-0.128c0.44-0.056,0.552-0.208,0.68-0.68
			l0.952-3.446c0.056-0.216,0.096-0.368,0.096-0.504c0-0.088-0.056-0.184-0.112-0.224c-0.088-0.056-0.12-0.064-0.456-0.112v-0.128
			H36.186z M35.058,46.753c0.2,0.032,0.264,0.04,0.408,0.04c0.952,0,1.511-0.456,1.511-1.2c0-0.551-0.336-0.896-0.959-0.896
			c-0.248,0-0.416,0.088-0.456,0.24L35.058,46.753z"/>
	</g>
	<g>
		<path fill="none" d="M59.117,23.503"/>
	</g>
	<g>
		<path fill="none" d="M58.897,36.071"/>
	</g>
	<g>
		<g>
			
				<line fill="none" stroke="#000000" stroke-width="0.21" stroke-miterlimit="10" x1="27.645" y1="2.248" x2="27.645" y2="60.331"/>
			<g>
				<polygon points="26.867,2.837 27.645,2.507 28.423,2.837 27.645,0.994 				"/>
			</g>
		</g>
	</g>
	<g>
		<g>
			
				<line fill="none" stroke="#000000" stroke-width="0.21" stroke-miterlimit="10" x1="70.525" y1="36.071" x2="-0.854" y2="36.071"/>
			<g>
				<polygon points="69.936,35.293 70.266,36.071 69.936,36.849 71.779,36.071 				"/>
			</g>
		</g>
	</g>
	<g>
		<path fill="#0000FF" d="M18.384,26.705c0.408,0,0.735,0.08,0.951,0.264c0.264,0.224,0.36,0.583,0.36,0.967
			c0,0.432-0.136,0.84-0.344,1.231c-0.424,0.792-1.04,1.135-1.551,1.135c-0.624,0-0.783-0.288-0.911-0.568
			c-0.312,0.376-0.608,0.568-1.175,0.568c-0.512,0-1.032-0.336-1.032-1.127c0-0.216,0.024-0.432,0.08-0.647
			c0.264-0.968,1.087-1.823,2.215-1.823h0.144v0.128c-0.408,0-0.768,0.144-1.072,0.52c-0.4,0.503-0.695,1.367-0.695,2.031
			c0,0.552,0.2,0.751,0.456,0.751c0.36,0,0.824-0.448,0.976-0.887c-0.016-0.12-0.024-0.296-0.024-0.408
			c0-0.2,0.032-0.447,0.096-0.688c0.112-0.416,0.352-0.799,0.648-0.799c0.191,0,0.28,0.152,0.28,0.368
			c0,0.36-0.16,0.863-0.336,1.167C17.384,29,17.28,29.175,17.2,29.296c-0.016,0.056-0.016,0.112-0.016,0.168
			c0,0.344,0.184,0.671,0.52,0.671c0.448,0,0.759-0.375,0.936-0.704c0.248-0.464,0.384-1.167,0.384-1.679
			c0-0.144-0.008-0.368-0.04-0.488c-0.096-0.376-0.408-0.432-0.744-0.432v-0.128H18.384z"/>
	</g>
	<g>
	</g>
	<g>
	</g>
</g>
</svg>
