<?xml version="1.0" encoding="utf-8"?>
<!-- Generator: Adobe Illustrator 25.4.1, SVG Export Plug-In . SVG Version: 6.00 Build 0)  -->
<svg version="1.1" xmlns="http://www.w3.org/2000/svg" xmlns:xlink="http://www.w3.org/1999/xlink" x="0px" y="0px"
	 viewBox="0 0 138.773 92.025" enable-background="new 0 0 138.773 92.025" xml:space="preserve">
<g id="Layer_5">
	<g id="Clipped_grid_00000003068028900943026870000011536296927355263674_" opacity="0.5">
		<defs>
			<polygon id="SVGID_1_" opacity="0.5" points="109.522,132.564 -117.25,132.564 2.027,13.288 228.799,13.288 			"/>
		</defs>
		<clipPath id="SVGID_00000003090939912653631540000002571135225580543390_">
			<use xlink:href="#SVGID_1_"  overflow="visible"/>
		</clipPath>
		
			<g id="Grid_00000142891597197125820610000009767860333217090727_" opacity="0.25" clip-path="url(#SVGID_00000003090939912653631540000002571135225580543390_)">
			<g id="Horizontal_1_mm_00000151508609497893311650000018408800186222605470_">
				
					<line fill="none" stroke="#00ABEB" stroke-width="0.15" stroke-miterlimit="10" x1="-0.04" y1="15.286" x2="226.801" y2="15.286"/>
				
					<line fill="none" stroke="#00ABEB" stroke-width="0.15" stroke-miterlimit="10" x1="1.948" y1="13.297" x2="228.789" y2="13.297"/>
				
					<line fill="none" stroke="#00ABEB" stroke-width="0.15" stroke-miterlimit="10" x1="-117.329" y1="132.574" x2="109.512" y2="132.574"/>
				
					<line fill="none" stroke="#00ABEB" stroke-width="0.15" stroke-miterlimit="10" x1="-115.34" y1="130.586" x2="111.5" y2="130.586"/>
				
					<line fill="none" stroke="#00ABEB" stroke-width="0.15" stroke-miterlimit="10" x1="-113.353" y1="128.598" x2="113.488" y2="128.598"/>
				
					<line fill="none" stroke="#00ABEB" stroke-width="0.15" stroke-miterlimit="10" x1="-111.365" y1="126.61" x2="115.476" y2="126.61"/>
				
					<line fill="none" stroke="#00ABEB" stroke-width="0.15" stroke-miterlimit="10" x1="-109.377" y1="124.622" x2="117.464" y2="124.622"/>
				
					<line fill="none" stroke="#00ABEB" stroke-width="0.15" stroke-miterlimit="10" x1="-107.389" y1="122.634" x2="119.452" y2="122.634"/>
				
					<line fill="none" stroke="#00ABEB" stroke-width="0.15" stroke-miterlimit="10" x1="-105.401" y1="120.646" x2="121.44" y2="120.646"/>
				
					<line fill="none" stroke="#00ABEB" stroke-width="0.15" stroke-miterlimit="10" x1="-103.413" y1="118.659" x2="123.427" y2="118.659"/>
				
					<line fill="none" stroke="#00ABEB" stroke-width="0.15" stroke-miterlimit="10" x1="-101.425" y1="116.67" x2="125.416" y2="116.67"/>
				
					<line fill="none" stroke="#00ABEB" stroke-width="0.15" stroke-miterlimit="10" x1="-99.437" y1="114.682" x2="127.404" y2="114.682"/>
				
					<line fill="none" stroke="#00ABEB" stroke-width="0.15" stroke-miterlimit="10" x1="-97.449" y1="112.695" x2="129.392" y2="112.695"/>
				
					<line fill="none" stroke="#00ABEB" stroke-width="0.15" stroke-miterlimit="10" x1="-95.461" y1="110.706" x2="131.38" y2="110.706"/>
				
					<line fill="none" stroke="#00ABEB" stroke-width="0.15" stroke-miterlimit="10" x1="-93.473" y1="108.718" x2="133.368" y2="108.718"/>
				
					<line fill="none" stroke="#00ABEB" stroke-width="0.15" stroke-miterlimit="10" x1="-91.486" y1="106.731" x2="135.355" y2="106.731"/>
				
					<line fill="none" stroke="#00ABEB" stroke-width="0.15" stroke-miterlimit="10" x1="-89.497" y1="104.743" x2="137.344" y2="104.743"/>
				
					<line fill="none" stroke="#00ABEB" stroke-width="0.15" stroke-miterlimit="10" x1="-87.509" y1="102.754" x2="139.332" y2="102.754"/>
				
					<line fill="none" stroke="#00ABEB" stroke-width="0.15" stroke-miterlimit="10" x1="-85.522" y1="100.767" x2="141.319" y2="100.767"/>
				
					<line fill="none" stroke="#00ABEB" stroke-width="0.15" stroke-miterlimit="10" x1="-83.534" y1="98.779" x2="143.307" y2="98.779"/>
				
					<line fill="none" stroke="#00ABEB" stroke-width="0.15" stroke-miterlimit="10" x1="-81.545" y1="96.791" x2="145.296" y2="96.791"/>
				
					<line fill="none" stroke="#00ABEB" stroke-width="0.15" stroke-miterlimit="10" x1="-79.558" y1="94.803" x2="147.283" y2="94.803"/>
				
					<line fill="none" stroke="#00ABEB" stroke-width="0.15" stroke-miterlimit="10" x1="-77.57" y1="92.815" x2="149.271" y2="92.815"/>
				
					<line fill="none" stroke="#00ABEB" stroke-width="0.15" stroke-miterlimit="10" x1="-75.581" y1="90.827" x2="151.26" y2="90.827"/>
				
					<line fill="none" stroke="#00ABEB" stroke-width="0.15" stroke-miterlimit="10" x1="-73.594" y1="88.839" x2="153.247" y2="88.839"/>
				
					<line fill="none" stroke="#00ABEB" stroke-width="0.15" stroke-miterlimit="10" x1="-71.606" y1="86.851" x2="155.235" y2="86.851"/>
				
					<line fill="none" stroke="#00ABEB" stroke-width="0.15" stroke-miterlimit="10" x1="-69.618" y1="84.863" x2="157.223" y2="84.863"/>
				
					<line fill="none" stroke="#00ABEB" stroke-width="0.15" stroke-miterlimit="10" x1="-67.63" y1="82.875" x2="159.211" y2="82.875"/>
				
					<line fill="none" stroke="#00ABEB" stroke-width="0.15" stroke-miterlimit="10" x1="-65.642" y1="80.887" x2="161.199" y2="80.887"/>
				
					<line fill="none" stroke="#00ABEB" stroke-width="0.15" stroke-miterlimit="10" x1="-63.654" y1="78.9" x2="163.187" y2="78.9"/>
				
					<line fill="none" stroke="#00ABEB" stroke-width="0.15" stroke-miterlimit="10" x1="-61.666" y1="76.912" x2="165.175" y2="76.912"/>
				
					<line fill="none" stroke="#00ABEB" stroke-width="0.15" stroke-miterlimit="10" x1="-59.678" y1="74.923" x2="167.163" y2="74.923"/>
				
					<line fill="none" stroke="#00ABEB" stroke-width="0.15" stroke-miterlimit="10" x1="-57.69" y1="72.936" x2="169.15" y2="72.936"/>
				
					<line fill="none" stroke="#00ABEB" stroke-width="0.15" stroke-miterlimit="10" x1="-55.702" y1="70.948" x2="171.139" y2="70.948"/>
				
					<line fill="none" stroke="#00ABEB" stroke-width="0.15" stroke-miterlimit="10" x1="-53.714" y1="68.96" x2="173.127" y2="68.96"/>
				
					<line fill="none" stroke="#00ABEB" stroke-width="0.15" stroke-miterlimit="10" x1="-51.727" y1="66.972" x2="175.114" y2="66.972"/>
				
					<line fill="none" stroke="#00ABEB" stroke-width="0.15" stroke-miterlimit="10" x1="-49.738" y1="64.984" x2="177.102" y2="64.984"/>
				
					<line fill="none" stroke="#00ABEB" stroke-width="0.15" stroke-miterlimit="10" x1="-47.75" y1="62.996" x2="179.091" y2="62.996"/>
				
					<line fill="none" stroke="#00ABEB" stroke-width="0.15" stroke-miterlimit="10" x1="-45.763" y1="61.008" x2="181.078" y2="61.008"/>
				
					<line fill="none" stroke="#00ABEB" stroke-width="0.15" stroke-miterlimit="10" x1="-43.775" y1="59.02" x2="183.066" y2="59.02"/>
				
					<line fill="none" stroke="#00ABEB" stroke-width="0.15" stroke-miterlimit="10" x1="-41.787" y1="57.032" x2="185.054" y2="57.032"/>
				
					<line fill="none" stroke="#00ABEB" stroke-width="0.15" stroke-miterlimit="10" x1="-39.799" y1="55.045" x2="187.042" y2="55.045"/>
				
					<line fill="none" stroke="#00ABEB" stroke-width="0.15" stroke-miterlimit="10" x1="-37.81" y1="53.056" x2="189.03" y2="53.056"/>
				
					<line fill="none" stroke="#00ABEB" stroke-width="0.15" stroke-miterlimit="10" x1="-35.823" y1="51.069" x2="191.018" y2="51.069"/>
				
					<line fill="none" stroke="#00ABEB" stroke-width="0.15" stroke-miterlimit="10" x1="-33.835" y1="49.08" x2="193.006" y2="49.08"/>
				
					<line fill="none" stroke="#00ABEB" stroke-width="0.15" stroke-miterlimit="10" x1="-31.847" y1="47.092" x2="194.994" y2="47.092"/>
				
					<line fill="none" stroke="#00ABEB" stroke-width="0.15" stroke-miterlimit="10" x1="-29.859" y1="45.105" x2="196.982" y2="45.105"/>
				
					<line fill="none" stroke="#00ABEB" stroke-width="0.15" stroke-miterlimit="10" x1="-27.871" y1="43.117" x2="198.97" y2="43.117"/>
				
					<line fill="none" stroke="#00ABEB" stroke-width="0.15" stroke-miterlimit="10" x1="-25.883" y1="41.128" x2="200.958" y2="41.128"/>
				
					<line fill="none" stroke="#00ABEB" stroke-width="0.15" stroke-miterlimit="10" x1="-23.895" y1="39.141" x2="202.945" y2="39.141"/>
				
					<line fill="none" stroke="#00ABEB" stroke-width="0.15" stroke-miterlimit="10" x1="-21.907" y1="37.153" x2="204.934" y2="37.153"/>
				
					<line fill="none" stroke="#00ABEB" stroke-width="0.15" stroke-miterlimit="10" x1="-19.919" y1="35.165" x2="206.922" y2="35.165"/>
				
					<line fill="none" stroke="#00ABEB" stroke-width="0.15" stroke-miterlimit="10" x1="-17.932" y1="33.177" x2="208.909" y2="33.177"/>
				
					<line fill="none" stroke="#00ABEB" stroke-width="0.15" stroke-miterlimit="10" x1="-15.943" y1="31.189" x2="210.897" y2="31.189"/>
				
					<line fill="none" stroke="#00ABEB" stroke-width="0.15" stroke-miterlimit="10" x1="-13.955" y1="29.201" x2="212.886" y2="29.201"/>
				
					<line fill="none" stroke="#00ABEB" stroke-width="0.15" stroke-miterlimit="10" x1="-11.968" y1="27.213" x2="214.873" y2="27.213"/>
				
					<line fill="none" stroke="#00ABEB" stroke-width="0.15" stroke-miterlimit="10" x1="-9.979" y1="25.225" x2="216.862" y2="25.225"/>
				
					<line fill="none" stroke="#00ABEB" stroke-width="0.15" stroke-miterlimit="10" x1="-7.992" y1="23.238" x2="218.849" y2="23.238"/>
				
					<line fill="none" stroke="#00ABEB" stroke-width="0.15" stroke-miterlimit="10" x1="-6.004" y1="21.249" x2="220.837" y2="21.249"/>
				
					<line fill="none" stroke="#00ABEB" stroke-width="0.15" stroke-miterlimit="10" x1="-4.015" y1="19.261" x2="222.825" y2="19.261"/>
				
					<line fill="none" stroke="#00ABEB" stroke-width="0.15" stroke-miterlimit="10" x1="-2.028" y1="17.274" x2="224.813" y2="17.274"/>
			</g>
			<g id="Vertical_1_mm_00000181073523592228201180000012361058669048395659_">
				<g>
					
						<line fill="none" stroke="#00ABEB" stroke-width="0.15" stroke-miterlimit="10" x1="-117.244" y1="132.564" x2="2.076" y2="13.245"/>
				</g>
				
					<line fill="none" stroke="#00ABEB" stroke-width="0.15" stroke-miterlimit="10" x1="-114.41" y1="132.564" x2="4.91" y2="13.245"/>
				
					<line fill="none" stroke="#00ABEB" stroke-width="0.15" stroke-miterlimit="10" x1="-111.575" y1="132.564" x2="7.745" y2="13.245"/>
				
					<line fill="none" stroke="#00ABEB" stroke-width="0.15" stroke-miterlimit="10" x1="-108.74" y1="132.564" x2="10.58" y2="13.245"/>
				
					<line fill="none" stroke="#00ABEB" stroke-width="0.15" stroke-miterlimit="10" x1="-105.906" y1="132.564" x2="13.414" y2="13.245"/>
				
					<line fill="none" stroke="#00ABEB" stroke-width="0.15" stroke-miterlimit="10" x1="-103.071" y1="132.564" x2="16.249" y2="13.245"/>
				
					<line fill="none" stroke="#00ABEB" stroke-width="0.15" stroke-miterlimit="10" x1="-100.236" y1="132.564" x2="19.084" y2="13.245"/>
				
					<line fill="none" stroke="#00ABEB" stroke-width="0.15" stroke-miterlimit="10" x1="-97.402" y1="132.564" x2="21.918" y2="13.245"/>
				
					<line fill="none" stroke="#00ABEB" stroke-width="0.15" stroke-miterlimit="10" x1="-94.566" y1="132.564" x2="24.754" y2="13.245"/>
				
					<line fill="none" stroke="#00ABEB" stroke-width="0.15" stroke-miterlimit="10" x1="-91.732" y1="132.564" x2="27.588" y2="13.245"/>
				
					<line fill="none" stroke="#00ABEB" stroke-width="0.15" stroke-miterlimit="10" x1="-88.898" y1="132.564" x2="30.422" y2="13.245"/>
				
					<line fill="none" stroke="#00ABEB" stroke-width="0.15" stroke-miterlimit="10" x1="-86.063" y1="132.564" x2="33.257" y2="13.245"/>
				
					<line fill="none" stroke="#00ABEB" stroke-width="0.15" stroke-miterlimit="10" x1="-83.229" y1="132.564" x2="36.091" y2="13.245"/>
				
					<line fill="none" stroke="#00ABEB" stroke-width="0.15" stroke-miterlimit="10" x1="-80.394" y1="132.564" x2="38.926" y2="13.245"/>
				
					<line fill="none" stroke="#00ABEB" stroke-width="0.15" stroke-miterlimit="10" x1="-77.559" y1="132.564" x2="41.761" y2="13.245"/>
				
					<line fill="none" stroke="#00ABEB" stroke-width="0.15" stroke-miterlimit="10" x1="-74.725" y1="132.564" x2="44.595" y2="13.245"/>
				
					<line fill="none" stroke="#00ABEB" stroke-width="0.15" stroke-miterlimit="10" x1="-71.89" y1="132.564" x2="47.43" y2="13.245"/>
				
					<line fill="none" stroke="#00ABEB" stroke-width="0.15" stroke-miterlimit="10" x1="-69.055" y1="132.564" x2="50.265" y2="13.245"/>
				
					<line fill="none" stroke="#00ABEB" stroke-width="0.15" stroke-miterlimit="10" x1="-66.221" y1="132.564" x2="53.099" y2="13.245"/>
				
					<line fill="none" stroke="#00ABEB" stroke-width="0.15" stroke-miterlimit="10" x1="-63.386" y1="132.564" x2="55.934" y2="13.245"/>
				
					<line fill="none" stroke="#00ABEB" stroke-width="0.15" stroke-miterlimit="10" x1="-60.551" y1="132.564" x2="58.769" y2="13.245"/>
				
					<line fill="none" stroke="#00ABEB" stroke-width="0.15" stroke-miterlimit="10" x1="-57.717" y1="132.564" x2="61.603" y2="13.245"/>
				
					<line fill="none" stroke="#00ABEB" stroke-width="0.15" stroke-miterlimit="10" x1="-54.882" y1="132.564" x2="64.438" y2="13.245"/>
				
					<line fill="none" stroke="#00ABEB" stroke-width="0.15" stroke-miterlimit="10" x1="-52.047" y1="132.564" x2="67.273" y2="13.245"/>
				
					<line fill="none" stroke="#00ABEB" stroke-width="0.15" stroke-miterlimit="10" x1="-49.212" y1="132.564" x2="70.108" y2="13.245"/>
				
					<line fill="none" stroke="#00ABEB" stroke-width="0.15" stroke-miterlimit="10" x1="-46.377" y1="132.564" x2="72.943" y2="13.245"/>
				
					<line fill="none" stroke="#00ABEB" stroke-width="0.15" stroke-miterlimit="10" x1="-43.544" y1="132.564" x2="75.776" y2="13.245"/>
				
					<line fill="none" stroke="#00ABEB" stroke-width="0.15" stroke-miterlimit="10" x1="-40.709" y1="132.564" x2="78.611" y2="13.245"/>
				
					<line fill="none" stroke="#00ABEB" stroke-width="0.15" stroke-miterlimit="10" x1="-37.874" y1="132.564" x2="81.446" y2="13.245"/>
				
					<line fill="none" stroke="#00ABEB" stroke-width="0.15" stroke-miterlimit="10" x1="-35.04" y1="132.564" x2="84.28" y2="13.245"/>
				
					<line fill="none" stroke="#00ABEB" stroke-width="0.15" stroke-miterlimit="10" x1="-32.205" y1="132.564" x2="87.115" y2="13.245"/>
				
					<line fill="none" stroke="#00ABEB" stroke-width="0.15" stroke-miterlimit="10" x1="-29.37" y1="132.564" x2="89.95" y2="13.245"/>
				
					<line fill="none" stroke="#00ABEB" stroke-width="0.15" stroke-miterlimit="10" x1="-26.536" y1="132.564" x2="92.784" y2="13.245"/>
				
					<line fill="none" stroke="#00ABEB" stroke-width="0.15" stroke-miterlimit="10" x1="-23.701" y1="132.564" x2="95.619" y2="13.245"/>
				
					<line fill="none" stroke="#00ABEB" stroke-width="0.15" stroke-miterlimit="10" x1="-20.866" y1="132.564" x2="98.454" y2="13.245"/>
				
					<line fill="none" stroke="#00ABEB" stroke-width="0.15" stroke-miterlimit="10" x1="-18.032" y1="132.564" x2="101.288" y2="13.245"/>
				
					<line fill="none" stroke="#00ABEB" stroke-width="0.15" stroke-miterlimit="10" x1="-15.197" y1="132.564" x2="104.123" y2="13.245"/>
				
					<line fill="none" stroke="#00ABEB" stroke-width="0.15" stroke-miterlimit="10" x1="-12.362" y1="132.564" x2="106.958" y2="13.245"/>
				
					<line fill="none" stroke="#00ABEB" stroke-width="0.15" stroke-miterlimit="10" x1="-9.528" y1="132.564" x2="109.792" y2="13.245"/>
				
					<line fill="none" stroke="#00ABEB" stroke-width="0.15" stroke-miterlimit="10" x1="-6.693" y1="132.564" x2="112.627" y2="13.245"/>
				
					<line fill="none" stroke="#00ABEB" stroke-width="0.15" stroke-miterlimit="10" x1="-3.859" y1="132.564" x2="115.461" y2="13.245"/>
				
					<line fill="none" stroke="#00ABEB" stroke-width="0.15" stroke-miterlimit="10" x1="-1.023" y1="132.564" x2="118.297" y2="13.245"/>
				
					<line fill="none" stroke="#00ABEB" stroke-width="0.15" stroke-miterlimit="10" x1="1.811" y1="132.564" x2="121.131" y2="13.245"/>
				
					<line fill="none" stroke="#00ABEB" stroke-width="0.15" stroke-miterlimit="10" x1="4.645" y1="132.564" x2="123.965" y2="13.245"/>
				
					<line fill="none" stroke="#00ABEB" stroke-width="0.15" stroke-miterlimit="10" x1="7.48" y1="132.564" x2="126.8" y2="13.245"/>
				
					<line fill="none" stroke="#00ABEB" stroke-width="0.15" stroke-miterlimit="10" x1="10.315" y1="132.564" x2="129.635" y2="13.245"/>
				
					<line fill="none" stroke="#00ABEB" stroke-width="0.15" stroke-miterlimit="10" x1="13.149" y1="132.564" x2="132.469" y2="13.245"/>
				
					<line fill="none" stroke="#00ABEB" stroke-width="0.15" stroke-miterlimit="10" x1="15.984" y1="132.564" x2="135.304" y2="13.245"/>
				
					<line fill="none" stroke="#00ABEB" stroke-width="0.15" stroke-miterlimit="10" x1="18.819" y1="132.564" x2="138.139" y2="13.245"/>
				
					<line fill="none" stroke="#00ABEB" stroke-width="0.15" stroke-miterlimit="10" x1="21.653" y1="132.564" x2="140.973" y2="13.245"/>
				
					<line fill="none" stroke="#00ABEB" stroke-width="0.15" stroke-miterlimit="10" x1="24.488" y1="132.564" x2="143.808" y2="13.245"/>
				
					<line fill="none" stroke="#00ABEB" stroke-width="0.15" stroke-miterlimit="10" x1="27.323" y1="132.564" x2="146.643" y2="13.245"/>
				
					<line fill="none" stroke="#00ABEB" stroke-width="0.15" stroke-miterlimit="10" x1="30.157" y1="132.564" x2="149.477" y2="13.245"/>
				
					<line fill="none" stroke="#00ABEB" stroke-width="0.15" stroke-miterlimit="10" x1="32.992" y1="132.564" x2="152.312" y2="13.245"/>
				
					<line fill="none" stroke="#00ABEB" stroke-width="0.15" stroke-miterlimit="10" x1="35.827" y1="132.564" x2="155.147" y2="13.245"/>
				
					<line fill="none" stroke="#00ABEB" stroke-width="0.15" stroke-miterlimit="10" x1="38.661" y1="132.564" x2="157.981" y2="13.245"/>
				
					<line fill="none" stroke="#00ABEB" stroke-width="0.15" stroke-miterlimit="10" x1="41.497" y1="132.564" x2="160.817" y2="13.245"/>
				
					<line fill="none" stroke="#00ABEB" stroke-width="0.15" stroke-miterlimit="10" x1="44.331" y1="132.564" x2="163.651" y2="13.245"/>
				
					<line fill="none" stroke="#00ABEB" stroke-width="0.15" stroke-miterlimit="10" x1="47.165" y1="132.564" x2="166.485" y2="13.245"/>
				<line fill="none" stroke="#00ABEB" stroke-width="0.15" stroke-miterlimit="10" x1="50" y1="132.564" x2="169.32" y2="13.245"/>
				
					<line fill="none" stroke="#00ABEB" stroke-width="0.15" stroke-miterlimit="10" x1="52.834" y1="132.564" x2="172.154" y2="13.245"/>
				
					<line fill="none" stroke="#00ABEB" stroke-width="0.15" stroke-miterlimit="10" x1="55.669" y1="132.564" x2="174.989" y2="13.245"/>
				
					<line fill="none" stroke="#00ABEB" stroke-width="0.15" stroke-miterlimit="10" x1="58.504" y1="132.564" x2="177.824" y2="13.245"/>
				
					<line fill="none" stroke="#00ABEB" stroke-width="0.15" stroke-miterlimit="10" x1="61.338" y1="132.564" x2="180.658" y2="13.245"/>
				
					<line fill="none" stroke="#00ABEB" stroke-width="0.15" stroke-miterlimit="10" x1="64.173" y1="132.564" x2="183.493" y2="13.245"/>
				
					<line fill="none" stroke="#00ABEB" stroke-width="0.15" stroke-miterlimit="10" x1="67.008" y1="132.564" x2="186.328" y2="13.245"/>
				
					<line fill="none" stroke="#00ABEB" stroke-width="0.15" stroke-miterlimit="10" x1="69.842" y1="132.564" x2="189.162" y2="13.245"/>
				
					<line fill="none" stroke="#00ABEB" stroke-width="0.15" stroke-miterlimit="10" x1="72.677" y1="132.564" x2="191.997" y2="13.245"/>
				
					<line fill="none" stroke="#00ABEB" stroke-width="0.15" stroke-miterlimit="10" x1="75.512" y1="132.564" x2="194.832" y2="13.245"/>
				
					<line fill="none" stroke="#00ABEB" stroke-width="0.15" stroke-miterlimit="10" x1="78.346" y1="132.564" x2="197.666" y2="13.245"/>
				
					<line fill="none" stroke="#00ABEB" stroke-width="0.15" stroke-miterlimit="10" x1="81.181" y1="132.564" x2="200.501" y2="13.245"/>
				
					<line fill="none" stroke="#00ABEB" stroke-width="0.15" stroke-miterlimit="10" x1="84.016" y1="132.564" x2="203.336" y2="13.245"/>
				
					<line fill="none" stroke="#00ABEB" stroke-width="0.15" stroke-miterlimit="10" x1="86.851" y1="132.564" x2="206.171" y2="13.245"/>
				
					<line fill="none" stroke="#00ABEB" stroke-width="0.15" stroke-miterlimit="10" x1="89.685" y1="132.564" x2="209.005" y2="13.245"/>
				
					<line fill="none" stroke="#00ABEB" stroke-width="0.15" stroke-miterlimit="10" x1="92.519" y1="132.564" x2="211.839" y2="13.245"/>
				
					<line fill="none" stroke="#00ABEB" stroke-width="0.15" stroke-miterlimit="10" x1="95.354" y1="132.564" x2="214.674" y2="13.245"/>
				
					<line fill="none" stroke="#00ABEB" stroke-width="0.15" stroke-miterlimit="10" x1="98.189" y1="132.564" x2="217.509" y2="13.245"/>
				
					<line fill="none" stroke="#00ABEB" stroke-width="0.15" stroke-miterlimit="10" x1="101.023" y1="132.564" x2="220.343" y2="13.245"/>
				
					<line fill="none" stroke="#00ABEB" stroke-width="0.15" stroke-miterlimit="10" x1="103.858" y1="132.564" x2="223.178" y2="13.245"/>
				
					<line fill="none" stroke="#00ABEB" stroke-width="0.15" stroke-miterlimit="10" x1="106.693" y1="132.564" x2="226.013" y2="13.245"/>
				
					<line fill="none" stroke="#00ABEB" stroke-width="0.15" stroke-miterlimit="10" x1="109.527" y1="132.564" x2="228.847" y2="13.245"/>
			</g>
			<g id="Horizontal_5_mm_00000011735556503592991880000008134099091165005186_">
				
					<line fill="none" stroke="#00ABEB" stroke-width="0.3" stroke-miterlimit="10" x1="-117.603" y1="132.574" x2="109.512" y2="132.574"/>
				
					<line fill="none" stroke="#00ABEB" stroke-width="0.3" stroke-miterlimit="10" x1="-107.664" y1="122.634" x2="119.452" y2="122.634"/>
				
					<line fill="none" stroke="#00ABEB" stroke-width="0.3" stroke-miterlimit="10" x1="-97.724" y1="112.695" x2="129.392" y2="112.695"/>
				
					<line fill="none" stroke="#00ABEB" stroke-width="0.3" stroke-miterlimit="10" x1="-87.784" y1="102.754" x2="139.332" y2="102.754"/>
				
					<line fill="none" stroke="#00ABEB" stroke-width="0.3" stroke-miterlimit="10" x1="-77.845" y1="92.815" x2="149.271" y2="92.815"/>
				
					<line fill="none" stroke="#00ABEB" stroke-width="0.3" stroke-miterlimit="10" x1="-67.905" y1="82.875" x2="159.211" y2="82.875"/>
				
					<line fill="none" stroke="#00ABEB" stroke-width="0.3" stroke-miterlimit="10" x1="-57.965" y1="72.936" x2="169.15" y2="72.936"/>
				
					<line fill="none" stroke="#00ABEB" stroke-width="0.3" stroke-miterlimit="10" x1="-48.025" y1="62.996" x2="179.091" y2="62.996"/>
				
					<line fill="none" stroke="#00ABEB" stroke-width="0.3" stroke-miterlimit="10" x1="-38.085" y1="53.056" x2="189.03" y2="53.056"/>
				
					<line fill="none" stroke="#00ABEB" stroke-width="0.3" stroke-miterlimit="10" x1="-28.146" y1="43.117" x2="198.97" y2="43.117"/>
				
					<line fill="none" stroke="#00ABEB" stroke-width="0.3" stroke-miterlimit="10" x1="-18.206" y1="33.177" x2="208.909" y2="33.177"/>
			</g>
			<g id="Vertical_5_mm_00000064346364918789686960000003233481195482251947_">
				
					<line fill="none" stroke="#00ABEB" stroke-width="0.3" stroke-miterlimit="10" x1="-117.244" y1="132.564" x2="2.269" y2="13.052"/>
				
					<line fill="none" stroke="#00ABEB" stroke-width="0.3" stroke-miterlimit="10" x1="-103.071" y1="132.564" x2="16.442" y2="13.052"/>
				
					<line fill="none" stroke="#00ABEB" stroke-width="0.3" stroke-miterlimit="10" x1="-88.898" y1="132.564" x2="30.615" y2="13.052"/>
				
					<line fill="none" stroke="#00ABEB" stroke-width="0.3" stroke-miterlimit="10" x1="-74.725" y1="132.564" x2="44.788" y2="13.052"/>
				
					<line fill="none" stroke="#00ABEB" stroke-width="0.3" stroke-miterlimit="10" x1="-60.551" y1="132.564" x2="58.962" y2="13.052"/>
				
					<line fill="none" stroke="#00ABEB" stroke-width="0.3" stroke-miterlimit="10" x1="-46.377" y1="132.564" x2="73.135" y2="13.052"/>
				
					<line fill="none" stroke="#00ABEB" stroke-width="0.3" stroke-miterlimit="10" x1="-32.205" y1="132.564" x2="87.308" y2="13.052"/>
				
					<line fill="none" stroke="#00ABEB" stroke-width="0.3" stroke-miterlimit="10" x1="-18.032" y1="132.564" x2="101.481" y2="13.052"/>
				
					<line fill="none" stroke="#00ABEB" stroke-width="0.3" stroke-miterlimit="10" x1="-3.859" y1="132.564" x2="115.654" y2="13.052"/>
				
					<line fill="none" stroke="#00ABEB" stroke-width="0.3" stroke-miterlimit="10" x1="10.315" y1="132.564" x2="129.828" y2="13.052"/>
				
					<line fill="none" stroke="#00ABEB" stroke-width="0.3" stroke-miterlimit="10" x1="24.488" y1="132.564" x2="144.001" y2="13.052"/>
				
					<line fill="none" stroke="#00ABEB" stroke-width="0.3" stroke-miterlimit="10" x1="38.661" y1="132.564" x2="158.174" y2="13.052"/>
				
					<line fill="none" stroke="#00ABEB" stroke-width="0.3" stroke-miterlimit="10" x1="52.834" y1="132.564" x2="172.347" y2="13.052"/>
				
					<line fill="none" stroke="#00ABEB" stroke-width="0.3" stroke-miterlimit="10" x1="67.008" y1="132.564" x2="186.521" y2="13.052"/>
				
					<line fill="none" stroke="#00ABEB" stroke-width="0.3" stroke-miterlimit="10" x1="81.181" y1="132.564" x2="200.694" y2="13.052"/>
				
					<line fill="none" stroke="#00ABEB" stroke-width="0.3" stroke-miterlimit="10" x1="95.354" y1="132.564" x2="214.867" y2="13.052"/>
				
					<line fill="none" stroke="#00ABEB" stroke-width="0.3" stroke-miterlimit="10" x1="109.527" y1="132.564" x2="229.04" y2="13.052"/>
			</g>
			<g id="Horizontal_10_mm_00000163045836177147705350000008480455355013810362_">
				
					<line id="_x31_9_00000057116790517712807720000015084113881736219806_" fill="none" stroke="#00ABEB" stroke-width="0.7" stroke-miterlimit="10" x1="-117.603" y1="132.574" x2="109.512" y2="132.574"/>
				
					<line id="_x32_0_00000024685878617286333290000013167547815532084100_" fill="none" stroke="#00ABEB" stroke-width="0.7" stroke-miterlimit="10" x1="-97.724" y1="112.695" x2="129.392" y2="112.695"/>
				
					<line id="_x32_1_00000138564813020868535020000012777939180148238773_" fill="none" stroke="#00ABEB" stroke-width="0.7" stroke-miterlimit="10" x1="-77.845" y1="92.815" x2="149.271" y2="92.815"/>
				
					<line id="_x32_2_00000052807586205252870140000014502512662559454639_" fill="none" stroke="#00ABEB" stroke-width="0.7" stroke-miterlimit="10" x1="-57.965" y1="72.936" x2="169.15" y2="72.936"/>
				
					<line id="_x32_3_00000051376893246677475670000009295515732899575694_" fill="none" stroke="#00ABEB" stroke-width="0.7" stroke-miterlimit="10" x1="-38.085" y1="53.056" x2="189.03" y2="53.056"/>
				
					<line id="_x32_4_00000099657911357833521510000007853591198542098087_" fill="none" stroke="#00ABEB" stroke-width="0.7" stroke-miterlimit="10" x1="-18.206" y1="33.177" x2="208.909" y2="33.177"/>
				
					<line id="_x32_5_00000155127691660191171140000008292164438978366870_" fill="none" stroke="#00ABEB" stroke-width="0.7" stroke-miterlimit="10" x1="1.673" y1="13.297" x2="228.789" y2="13.297"/>
			</g>
			<g id="Vertical_10_mm_00000134969164297783457920000010833503864539426239_">
				
					<line id="_x30__00000151539528360119995570000005083818057555393183_" fill="none" stroke="#00ABEB" stroke-width="0.7" stroke-miterlimit="10" x1="-117.244" y1="132.564" x2="2.269" y2="13.052"/>
				
					<line id="_x31__00000021823889366233599640000011971139016478256513_" fill="none" stroke="#00ABEB" stroke-width="0.7" stroke-miterlimit="10" x1="-88.898" y1="132.564" x2="30.615" y2="13.052"/>
				
					<line id="_x32__00000071550223824624162640000006130814236846722696_" fill="none" stroke="#00ABEB" stroke-width="0.7" stroke-miterlimit="10" x1="-60.551" y1="132.564" x2="58.962" y2="13.052"/>
				
					<line id="_x33__00000042015976804734918030000005045165563697445304_" fill="none" stroke="#00ABEB" stroke-width="0.7" stroke-miterlimit="10" x1="-32.205" y1="132.564" x2="87.308" y2="13.052"/>
				
					<line id="_x34__00000081637789328126233800000002486991317463304126_" fill="none" stroke="#00ABEB" stroke-width="0.7" stroke-miterlimit="10" x1="-3.859" y1="132.564" x2="115.654" y2="13.052"/>
				
					<line id="_x35__00000051353690731882489090000004794744233340785543_" fill="none" stroke="#00ABEB" stroke-width="0.7" stroke-miterlimit="10" x1="24.488" y1="132.564" x2="144.001" y2="13.052"/>
				
					<line id="_x36__00000011745311307505536660000010485558803267122343_" fill="none" stroke="#00ABEB" stroke-width="0.7" stroke-miterlimit="10" x1="52.834" y1="132.564" x2="172.347" y2="13.052"/>
				
					<line id="_x37__00000045602144989735358580000003937589459941247142_" fill="none" stroke="#00ABEB" stroke-width="0.7" stroke-miterlimit="10" x1="81.181" y1="132.564" x2="200.694" y2="13.052"/>
				
					<line id="_x38__00000047029857857898873560000014194396358708286345_" fill="none" stroke="#00ABEB" stroke-width="0.7" stroke-miterlimit="10" x1="109.527" y1="132.564" x2="229.04" y2="13.052"/>
			</g>
		</g>
	</g>
</g>
<g id="one_solution">
	
		<line fill="none" stroke="#FF00FE" stroke-width="0.1" stroke-linecap="round" stroke-linejoin="round" stroke-miterlimit="10" x1="57.323" y1="21.184" x2="57.323" y2="75.405"/>
	<g display="none">
		<g display="inline">
			<g>
				
					<line fill="none" stroke="#000000" stroke-width="0.25" stroke-linecap="round" stroke-linejoin="round" x1="59.632" y1="25.84" x2="59.632" y2="27.34"/>
				
					<line fill="none" stroke="#000000" stroke-width="0.25" stroke-linecap="round" stroke-linejoin="round" stroke-dasharray="2.6728,2.6728" x1="59.632" y1="30.013" x2="59.632" y2="50.059"/>
				
					<line fill="none" stroke="#000000" stroke-width="0.25" stroke-linecap="round" stroke-linejoin="round" x1="59.632" y1="51.396" x2="59.632" y2="52.896"/>
			</g>
		</g>
		<g display="inline">
			<g>
				
					<line fill="none" stroke="#000000" stroke-width="0.25" stroke-miterlimit="10" x1="59.632" y1="25.84" x2="58.132" y2="25.84"/>
				
					<line fill="none" stroke="#000000" stroke-width="0.25" stroke-miterlimit="10" stroke-dasharray="3.0246,3.0246" x1="55.107" y1="25.84" x2="50.571" y2="25.84"/>
				
					<line fill="none" stroke="#000000" stroke-width="0.25" stroke-miterlimit="10" x1="49.058" y1="25.84" x2="47.558" y2="25.84"/>
			</g>
		</g>
		<g display="inline">
			<path d="M43.58,27.084c0.85-1.409,1.219-2.129,1.219-2.568c0-0.14-0.07-0.2-0.26-0.32c-0.2-0.13-0.26-0.229-0.26-0.39
				c0-0.22,0.17-0.369,0.399-0.369c0.3,0,0.52,0.25,0.52,0.55c0,0.569-0.48,1.669-1.31,3.048c-1.039,1.719-2.109,2.868-2.678,2.868
				c-0.3,0-0.51-0.17-0.51-0.43c0-0.22,0.17-0.399,0.39-0.399c0.35,0,0.35,0.279,0.61,0.279c0.13,0,0.25-0.079,0.479-0.329
				c0.18-0.19,0.63-0.78,0.709-0.91c0.06-0.119,0.1-0.239,0.1-0.35c0-0.399-0.55-2.639-0.819-3.318c-0.19-0.489-0.37-0.64-0.77-0.64
				c-0.11,0-0.2,0.011-0.31,0.04v-0.17c0.11-0.02,0.22-0.04,0.32-0.06c0.2-0.04,0.53-0.1,1.069-0.18h0.04
				c0.15,0,0.68,1.659,0.85,2.548L43.58,27.084z"/>
		</g>
		<g display="inline">
			<path d="M59.526,57.684c0.699-1.069,1.069-1.429,1.509-1.429c0.24,0,0.41,0.149,0.41,0.369c0,0.21-0.14,0.36-0.34,0.36
				c-0.19,0-0.28-0.17-0.52-0.17c-0.18,0-0.54,0.439-0.979,1.209c0,0.07,0.02,0.21,0.08,0.45l0.32,1.339
				c0.07,0.28,0.16,0.41,0.3,0.41c0.13,0,0.24-0.101,0.47-0.4c0.09-0.12,0.13-0.18,0.21-0.279l0.15,0.09
				c-0.58,0.899-0.839,1.14-1.219,1.14c-0.32,0-0.47-0.181-0.59-0.68l-0.29-1.189l-0.88,1.189c-0.439,0.589-0.64,0.68-0.949,0.68
				c-0.31,0-0.5-0.16-0.5-0.42c0-0.2,0.14-0.36,0.34-0.36c0.09,0,0.19,0.04,0.32,0.11c0.1,0.06,0.2,0.09,0.26,0.09
				c0.11,0,0.3-0.189,0.51-0.49l0.82-1.159l-0.28-1.239c-0.14-0.6-0.21-0.68-0.46-0.68c-0.08,0-0.2,0.021-0.39,0.07l-0.18,0.05
				l-0.03-0.16l0.11-0.04c0.61-0.22,0.939-0.289,1.169-0.289c0.25,0,0.37,0.18,0.51,0.859L59.526,57.684z"/>
		</g>
	</g>
	<g id="Axis">
		<g>
			<g>
				
					<line fill="none" stroke="#000000" stroke-width="0.25" stroke-linecap="round" stroke-linejoin="round" x1="47.558" y1="52.896" x2="47.558" y2="17.351"/>
				<g>
					<polygon points="48.581,18.179 48.398,18.35 47.559,17.447 46.719,18.35 46.536,18.179 47.559,17.08 					"/>
				</g>
			</g>
		</g>
		<g>
			<g>
				
					<line fill="none" stroke="#000000" stroke-width="0.25" stroke-linecap="round" stroke-linejoin="round" x1="47.558" y1="52.896" x2="130.956" y2="52.896"/>
				<g>
					<polygon points="130.127,53.918 129.957,53.735 130.86,52.896 129.957,52.057 130.127,51.873 131.227,52.896 					"/>
				</g>
			</g>
		</g>
		<g>
			<path d="M127.461,59.148c0.85-1.409,1.219-2.129,1.219-2.568c0-0.14-0.07-0.2-0.26-0.32c-0.2-0.13-0.26-0.229-0.26-0.39
				c0-0.22,0.17-0.369,0.399-0.369c0.3,0,0.52,0.25,0.52,0.55c0,0.569-0.48,1.669-1.31,3.048c-1.039,1.719-2.109,2.868-2.678,2.868
				c-0.3,0-0.51-0.17-0.51-0.43c0-0.22,0.17-0.399,0.39-0.399c0.35,0,0.35,0.279,0.61,0.279c0.13,0,0.25-0.079,0.479-0.329
				c0.18-0.19,0.63-0.78,0.709-0.91c0.06-0.119,0.1-0.239,0.1-0.35c0-0.399-0.55-2.639-0.819-3.318c-0.19-0.489-0.37-0.64-0.77-0.64
				c-0.11,0-0.2,0.011-0.31,0.04v-0.17c0.11-0.02,0.22-0.04,0.32-0.06c0.2-0.04,0.53-0.1,1.069-0.18h0.04
				c0.15,0,0.68,1.659,0.85,2.548L127.461,59.148z"/>
		</g>
		<g>
			<path d="M41.91,20.455c0.58,0.13,0.799,0.24,1.199,0.829c0.26,0.38,0.45,0.5,0.7,0.5c0.16,0,0.27-0.06,0.27-0.149
				c0-0.04-0.02-0.091-0.05-0.15c-0.06-0.12-0.08-0.2-0.08-0.28c0.01-0.17,0.17-0.339,0.33-0.339c0.21,0,0.35,0.149,0.35,0.369
				c0,0.4-0.37,0.76-0.929,0.76c-0.29,0-0.63-0.13-1.129-0.439c-0.47-0.29-0.79-0.42-1.05-0.42c-0.16,0-0.29,0.05-0.45,0.18
				l-0.09-0.09l3.098-3.718H42.72c-0.52,0-0.71,0.09-0.91,0.6l-0.16-0.04l0.32-1.159h2.829v0.109L41.91,20.455z"/>
		</g>
		<g>
			<g>
				
					<line fill="none" stroke="#000000" stroke-width="0.25" stroke-linecap="round" stroke-linejoin="round" x1="47.558" y1="52.896" x2="10.922" y2="89.532"/>
				<g>
					<polygon points="10.785,88.223 11.035,88.232 10.989,89.464 12.221,89.419 12.23,89.669 10.73,89.724 					"/>
				</g>
			</g>
		</g>
		<g>
			<path d="M16.54,88.683c0.699-1.069,1.069-1.429,1.509-1.429c0.24,0,0.41,0.149,0.41,0.369c0,0.21-0.14,0.36-0.34,0.36
				c-0.19,0-0.28-0.17-0.52-0.17c-0.18,0-0.54,0.439-0.979,1.209c0,0.07,0.02,0.21,0.08,0.45l0.32,1.339
				c0.07,0.28,0.16,0.41,0.3,0.41c0.13,0,0.24-0.101,0.47-0.4c0.09-0.12,0.13-0.18,0.21-0.279l0.15,0.09
				c-0.58,0.899-0.839,1.14-1.219,1.14c-0.32,0-0.47-0.181-0.59-0.68l-0.29-1.189l-0.88,1.189c-0.439,0.589-0.64,0.68-0.949,0.68
				c-0.31,0-0.5-0.16-0.5-0.42c0-0.2,0.14-0.36,0.34-0.36c0.09,0,0.19,0.04,0.32,0.11c0.1,0.06,0.2,0.09,0.26,0.09
				c0.11,0,0.3-0.189,0.51-0.49l0.82-1.159l-0.28-1.239c-0.14-0.6-0.21-0.68-0.46-0.68c-0.08,0-0.2,0.021-0.39,0.07l-0.18,0.05
				l-0.03-0.16l0.11-0.04c0.61-0.22,0.939-0.289,1.169-0.289c0.25,0,0.37,0.18,0.51,0.859L16.54,88.683z"/>
		</g>
	</g>
	<ellipse id="R_shaded" display="none" fill="#DCDCDC" cx="79.621" cy="75.99" rx="22.299" ry="7.867"/>
	<g id="R">
		<g id="R_00000142148018412764618400000000713002282283943611_" opacity="0.05">
			<path opacity="0.5" fill="#FF0000" d="M57.323,75.99c0-4.345,9.983-7.867,22.299-7.867c12.315,0,22.299,3.522,22.299,7.867"/>
			<path opacity="0.5" fill="#FF0000" d="M101.92,75.99c0,4.345-9.983,7.867-22.299,7.867c-12.315,0-22.299-3.522-22.299-7.867"/>
		</g>
		<g>
			<g>
				<path fill="none" stroke="#FF0000" stroke-width="0.3" stroke-linecap="round" stroke-linejoin="round" d="M57.323,75.99
					c0-0.331,0.058-0.658,0.171-0.978"/>
				
					<path fill="none" stroke="#FF0000" stroke-width="0.3" stroke-linecap="round" stroke-linejoin="round" stroke-dasharray="1.9246,1.9246" d="
					M58.544,73.416c3.023-3.08,11.318-5.292,21.077-5.292c10.523,0,19.344,2.572,21.688,6.031"/>
				<path fill="none" stroke="#FF0000" stroke-width="0.3" stroke-linecap="round" stroke-linejoin="round" d="M101.749,75.012
					c0.113,0.321,0.171,0.647,0.171,0.978"/>
			</g>
		</g>
		
			<path fill="none" stroke="#FF0000" stroke-width="0.3" stroke-linecap="round" stroke-linejoin="round" stroke-miterlimit="10" d="
			M101.92,75.99c0,4.345-9.983,7.867-22.299,7.867c-12.315,0-22.299-3.522-22.299-7.867"/>
	</g>
	<g>
		<path fill="#FF0000" d="M104.237,80.725c1.319,0,2.039,0.56,2.039,1.409c0,0.479-0.25,0.97-0.66,1.279
			c-0.31,0.24-0.64,0.359-1.31,0.51l0.89,2.349c0.22,0.59,0.42,0.819,0.87,0.819v0.16h-1.469l-1.229-3.238l-0.66-0.05l-0.55,2.028
			c-0.11,0.391-0.13,0.53-0.13,0.63c0,0.3,0.1,0.41,0.67,0.47v0.16h-2.429v-0.16c0.55-0.069,0.689-0.26,0.85-0.85l1.189-4.308
			c0.07-0.27,0.12-0.459,0.12-0.629c0-0.11-0.07-0.23-0.14-0.28c-0.11-0.07-0.15-0.08-0.57-0.14v-0.16H104.237z M102.828,83.593
			c0.25,0.04,0.33,0.05,0.51,0.05c1.189,0,1.889-0.569,1.889-1.499c0-0.689-0.419-1.119-1.199-1.119c-0.31,0-0.52,0.11-0.57,0.3
			L102.828,83.593z"/>
	</g>
	<g>
		
			<path fill="none" stroke="#0000FF" stroke-width="0.5" stroke-linecap="round" stroke-linejoin="round" stroke-miterlimit="10" d="
			M49.804-24.301C64.34,81.969,72.693,42.683,79.036,42.325c5.222-0.294,18.032,39.358,29.296-66.626"/>
	</g>
	
		<ellipse id="R_shaded_00000101090003771750531000000001369452917712875174_" display="none" fill="#DCDCDC" cx="79.621" cy="75.99" rx="22.299" ry="7.867"/>
	<g id="f_x28_R_x29__00000049910956025112469460000003815154765754196390_">
		<g>
			<g>
				<path fill="none" stroke="#0000FE" stroke-width="0.2" stroke-linecap="round" stroke-linejoin="round" d="M55.774,13.288
					c0-0.334,0.041-0.665,0.12-0.99"/>
				
					<path fill="none" stroke="#0000FE" stroke-width="0.2" stroke-linecap="round" stroke-linejoin="round" stroke-dasharray="1.96,1.96" d="
					M56.729,10.537C59.616,6.482,68.724,3.52,79.513,3.52c11.516,0,21.117,3.374,23.282,7.851"/>
				<path fill="none" stroke="#0000FE" stroke-width="0.2" stroke-linecap="round" stroke-linejoin="round" d="M103.131,12.298
					c0.08,0.326,0.12,0.656,0.12,0.99"/>
			</g>
		</g>
		
			<path fill="none" stroke="#0000FE" stroke-width="0.2" stroke-linecap="round" stroke-linejoin="round" stroke-miterlimit="10" d="
			M103.251,13.288c0,5.395-10.628,9.768-23.738,9.768s-23.738-4.373-23.738-9.768"/>
	</g>
	<g>
		<path fill="#0000FE" d="M107.888,7.201c0.58,0.13,0.799,0.24,1.199,0.829c0.26,0.38,0.45,0.5,0.7,0.5c0.16,0,0.27-0.06,0.27-0.149
			c0-0.04-0.02-0.091-0.05-0.15c-0.06-0.12-0.08-0.2-0.08-0.28c0.01-0.17,0.17-0.339,0.33-0.339c0.21,0,0.35,0.149,0.35,0.369
			c0,0.4-0.37,0.76-0.929,0.76c-0.29,0-0.63-0.13-1.129-0.439c-0.47-0.29-0.79-0.42-1.05-0.42c-0.16,0-0.29,0.05-0.45,0.18
			l-0.09-0.09l3.098-3.718h-1.359c-0.52,0-0.71,0.09-0.91,0.6l-0.16-0.04l0.32-1.159h2.829v0.109L107.888,7.201z"/>
		<path fill="#0000FE" d="M111.728,4.732V4.073h5.038v0.659H111.728z M111.728,6.731v-0.66h5.038v0.66H111.728z"/>
		<path fill="#0000FE" d="M118.957,3.653c0.22-0.71,0.39-1.26,0.72-1.729c0.3-0.43,0.709-0.77,1.319-0.77
			c0.49,0,0.86,0.26,0.86,0.62c0,0.22-0.19,0.43-0.42,0.43c-0.18,0-0.37-0.15-0.37-0.39c0-0.17,0.1-0.221,0.1-0.311
			c0-0.08-0.08-0.13-0.22-0.13c-0.56,0-0.93,0.7-1.219,2.279h1.069l-0.06,0.319h-1.079l-0.72,3.198
			c-0.42,1.85-1.089,2.829-1.999,2.829c-0.45,0-0.79-0.261-0.79-0.61c0-0.229,0.17-0.42,0.38-0.42c0.23,0,0.38,0.16,0.38,0.37
			c0,0.13-0.09,0.18-0.09,0.29c0,0.09,0.08,0.16,0.2,0.16c0.42,0,0.74-0.54,0.969-1.619l0.88-4.198h-0.91l0.07-0.319H118.957z"/>
		<path fill="#0000FE" d="M123.547,1.394c-1.52,1.438-2.039,3.647-2.039,5.687c0,0.97,0.11,1.579,0.48,2.599l-0.18,0.06
			c-0.64-1.029-0.989-2.328-0.989-3.607c0-1.029,0.22-2.049,0.739-2.898c0.39-0.63,0.939-1.149,1.859-1.989L123.547,1.394z"/>
		<path fill="#0000FE" d="M126.277,4.952c0.699-1.069,1.069-1.429,1.509-1.429c0.24,0,0.41,0.149,0.41,0.369
			c0,0.21-0.14,0.36-0.34,0.36c-0.19,0-0.28-0.17-0.52-0.17c-0.18,0-0.54,0.439-0.979,1.209c0,0.07,0.02,0.21,0.08,0.45l0.32,1.339
			c0.07,0.28,0.16,0.41,0.3,0.41c0.13,0,0.24-0.101,0.47-0.4c0.09-0.12,0.13-0.18,0.21-0.279l0.15,0.09
			c-0.58,0.899-0.839,1.14-1.219,1.14c-0.32,0-0.47-0.181-0.59-0.68l-0.29-1.189l-0.88,1.189c-0.439,0.589-0.64,0.68-0.949,0.68
			c-0.31,0-0.5-0.16-0.5-0.42c0-0.2,0.14-0.36,0.34-0.36c0.09,0,0.19,0.04,0.32,0.11c0.1,0.06,0.2,0.09,0.26,0.09
			c0.11,0,0.3-0.189,0.51-0.49l0.82-1.159l-0.28-1.239c-0.14-0.6-0.21-0.68-0.46-0.68c-0.08,0-0.2,0.021-0.39,0.07l-0.18,0.05
			l-0.03-0.16l0.11-0.04c0.61-0.22,0.939-0.289,1.169-0.289c0.25,0,0.37,0.18,0.51,0.859L126.277,4.952z"/>
		<path fill="#0000FE" d="M128.118,9.04c0.529-0.34,0.759-0.63,0.759-0.899c0-0.1-0.04-0.17-0.2-0.29
			c-0.2-0.149-0.25-0.3-0.25-0.489c0-0.24,0.22-0.44,0.51-0.44c0.36,0,0.58,0.34,0.58,0.74c0,0.56-0.459,1.119-1.299,1.559
			L128.118,9.04z"/>
		<path fill="#0000FE" d="M133.307,7.17c0.85-1.409,1.219-2.129,1.219-2.568c0-0.14-0.07-0.2-0.26-0.32
			c-0.2-0.13-0.26-0.229-0.26-0.39c0-0.22,0.17-0.369,0.399-0.369c0.3,0,0.52,0.25,0.52,0.55c0,0.569-0.48,1.669-1.31,3.048
			c-1.039,1.719-2.109,2.868-2.678,2.868c-0.3,0-0.51-0.17-0.51-0.43c0-0.22,0.17-0.399,0.39-0.399c0.35,0,0.35,0.279,0.61,0.279
			c0.13,0,0.25-0.079,0.479-0.329c0.18-0.19,0.63-0.78,0.709-0.91c0.06-0.119,0.1-0.239,0.1-0.35c0-0.399-0.55-2.639-0.819-3.318
			c-0.19-0.489-0.37-0.64-0.77-0.64c-0.11,0-0.2,0.011-0.31,0.04v-0.17c0.11-0.02,0.22-0.04,0.32-0.06c0.2-0.04,0.53-0.1,1.069-0.18
			h0.04c0.15,0,0.68,1.659,0.85,2.548L133.307,7.17z"/>
		<path fill="#0000FE" d="M137.007,1.244c0.47,0.84,0.63,1.229,0.8,1.969c0.12,0.561,0.189,1.14,0.189,1.68
			c0,1.009-0.28,1.959-0.779,2.818c-0.39,0.67-0.91,1.229-1.819,2.019l-0.13-0.149c0.84-0.89,1.209-1.56,1.549-2.619
			c0.31-0.959,0.49-2.108,0.49-3.048c0-1-0.15-1.81-0.49-2.619L137.007,1.244z"/>
	</g>
	<g id="volume_00000134214170088642864160000012403582845752302986_">
		<g opacity="0.6">
			<g>
				
					<line fill="none" stroke="#FF00FF" stroke-width="0.25" stroke-miterlimit="10" x1="99.676" y1="45.278" x2="110.851" y2="33.901"/>
				<g>
					<polygon fill="#FF00FF" points="100.828,45.425 99.892,45.057 99.507,44.128 98.63,46.342 					"/>
				</g>
			</g>
		</g>
		<g>
			<path opacity="0.6" fill="#FF00FF" d="M114.821,27.489l-0.18-0.03c0-1.02-0.22-1.629-1.189-1.629
				c-0.689,0-1.119,0.369-1.119,0.999c0,0.49,0.08,0.649,0.989,1.56c0.91,0.919,1.129,1.349,1.129,1.999
				c0,1.139-0.87,1.948-2.019,1.948c-0.31,0-0.58-0.069-1.039-0.229c-0.27-0.101-0.36-0.12-0.47-0.12c-0.2,0-0.36,0.09-0.43,0.32
				h-0.18l0.34-2.239l0.2,0.02c-0.02,0.091-0.02,0.16-0.02,0.23c0,0.979,0.6,1.669,1.439,1.669c0.77,0,1.309-0.52,1.309-1.279
				c0-0.43-0.14-0.729-0.6-1.229l-0.39-0.42c-0.14-0.149-0.26-0.289-0.39-0.42c-0.6-0.639-0.75-0.959-0.75-1.499
				c0-1.049,0.82-1.639,1.779-1.639c0.31,0,0.64,0.05,0.85,0.14c0.21,0.08,0.33,0.11,0.459,0.11c0.22,0,0.31-0.05,0.45-0.26h0.23
				L114.821,27.489z"/>
			<path opacity="0.6" fill="#FF00FF" d="M118.292,25.62c-1.52,1.438-2.039,3.647-2.039,5.687c0,0.97,0.11,1.579,0.48,2.599
				l-0.18,0.06c-0.64-1.029-0.989-2.328-0.989-3.607c0-1.029,0.22-2.049,0.739-2.898c0.39-0.63,0.939-1.149,1.859-1.989
				L118.292,25.62z"/>
			<path opacity="0.6" fill="#FF00FF" d="M121.022,29.177c0.699-1.069,1.069-1.429,1.509-1.429c0.24,0,0.41,0.149,0.41,0.369
				c0,0.21-0.14,0.36-0.34,0.36c-0.19,0-0.28-0.17-0.52-0.17c-0.18,0-0.54,0.439-0.979,1.209c0,0.07,0.02,0.21,0.08,0.45l0.32,1.339
				c0.07,0.28,0.16,0.41,0.3,0.41c0.13,0,0.24-0.101,0.47-0.4c0.09-0.12,0.13-0.18,0.21-0.279l0.15,0.09
				c-0.58,0.899-0.839,1.14-1.219,1.14c-0.32,0-0.47-0.181-0.59-0.68l-0.29-1.189l-0.88,1.189c-0.439,0.589-0.64,0.68-0.949,0.68
				c-0.31,0-0.5-0.16-0.5-0.42c0-0.2,0.14-0.36,0.34-0.36c0.09,0,0.19,0.04,0.32,0.11c0.1,0.06,0.2,0.09,0.26,0.09
				c0.11,0,0.3-0.189,0.51-0.49l0.82-1.159l-0.28-1.239c-0.14-0.6-0.21-0.68-0.46-0.68c-0.08,0-0.2,0.021-0.39,0.07l-0.18,0.05
				l-0.03-0.16l0.11-0.04c0.61-0.22,0.939-0.289,1.169-0.289c0.25,0,0.37,0.18,0.51,0.859L121.022,29.177z"/>
			<path opacity="0.6" fill="#FF00FF" d="M124.089,31.64c-0.275,0.421-0.436,0.57-0.686,0.57c-0.165,0-0.245-0.09-0.245-0.274
				c0-0.101,0.035-0.275,0.11-0.556l0.24-0.886c0.025-0.091,0.045-0.181,0.045-0.221c0-0.1-0.05-0.115-0.32-0.12v-0.08
				c0.195-0.015,0.295-0.03,0.801-0.125l0.02,0.015l-0.47,1.717c-0.025,0.085-0.05,0.15-0.05,0.221c0,0.05,0.03,0.074,0.07,0.074
				c0.085,0,0.206-0.104,0.421-0.39L124.089,31.64z M123.989,29.413c-0.146,0-0.24-0.104-0.24-0.265c0-0.155,0.1-0.266,0.235-0.266
				c0.135,0,0.25,0.13,0.25,0.275C124.234,29.298,124.119,29.413,123.989,29.413z"/>
			<path opacity="0.6" fill="#FF00FF" d="M126.202,25.469c0.47,0.84,0.63,1.229,0.8,1.969c0.12,0.561,0.189,1.14,0.189,1.68
				c0,1.009-0.28,1.959-0.779,2.818c-0.39,0.67-0.91,1.229-1.819,2.019l-0.13-0.149c0.84-0.89,1.209-1.56,1.549-2.619
				c0.31-0.959,0.49-2.108,0.49-3.048c0-1-0.15-1.81-0.49-2.619L126.202,25.469z"/>
		</g>
	</g>
	<path id="volume_00000180344334175285854660000016296759274978050724_" display="none" opacity="0.1" fill="#FF00FE" d="
		M57.323,21.184c10.065,47.478,16.554,21.432,21.713,21.141c4.253-0.24,13.539,26.018,22.924-21.485l-0.04-0.008V75.99v0
		c0,4.345-9.983,7.867-22.299,7.867s-22.299-3.522-22.299-7.867v0V20.833L57.323,21.184z"/>
	<g>
		
			<path fill="none" stroke="#FF00FE" stroke-width="0.2" stroke-linecap="round" stroke-linejoin="round" stroke-miterlimit="10" d="
			M108.898-23.917"/>
		<g>
			<g>
				<path fill="none" stroke="#FF00FE" stroke-width="0.1" stroke-linecap="round" stroke-linejoin="round" d="M66.914,48.295
					c0.112,0.132,0.224,0.255,0.336,0.371"/>
				
					<path fill="none" stroke="#FF00FE" stroke-width="0.1" stroke-linecap="round" stroke-linejoin="round" stroke-dasharray="0.9922,0.9922" d="
					M67.989,49.329c4.732,3.569,8.426-6.44,11.613-6.62c4.168-0.235,13.171,24.98,22.362-18.729"/>
				<path fill="none" stroke="#FF00FE" stroke-width="0.1" stroke-linecap="round" stroke-linejoin="round" d="M102.066,23.495
					c0.024-0.114,0.047-0.229,0.071-0.344c0.01-0.049,0.02-0.099,0.031-0.148"/>
			</g>
		</g>
		
			<path fill="none" stroke="#FF00FE" stroke-width="0.2" stroke-linecap="round" stroke-linejoin="round" stroke-miterlimit="10" d="
			M102.099,23.335"/>
		
			<path fill="none" stroke="#FF00FE" stroke-width="0.1" stroke-linecap="round" stroke-linejoin="round" stroke-miterlimit="10" d="
			M57.662,20.483c3.746,17.986,6.999,25.795,9.874,28.464"/>
	</g>
	<g>
		<g>
			
				<line fill="none" stroke="#FF00FE" stroke-width="0.1" stroke-linecap="round" stroke-linejoin="round" x1="57.758" y1="20.833" x2="57.758" y2="21.333"/>
			
				<line fill="none" stroke="#FF00FE" stroke-width="0.1" stroke-linecap="round" stroke-linejoin="round" stroke-dasharray="0.9907,0.9907" x1="57.758" y1="22.323" x2="57.758" y2="73.342"/>
			
				<line fill="none" stroke="#FF00FE" stroke-width="0.1" stroke-linecap="round" stroke-linejoin="round" x1="57.758" y1="73.837" x2="57.758" y2="74.337"/>
		</g>
	</g>
	<g>
		<path fill="#FF00FF" d="M38.931,81.474l3.198-5.341h0.208l1.055,5.341H38.931z M41.777,77.268l-2.039,3.454h2.734L41.777,77.268z"
			/>
		<path fill="#FF00FF" d="M46.113,79.091c0.56-0.855,0.855-1.144,1.207-1.144c0.192,0,0.328,0.12,0.328,0.296
			c0,0.168-0.112,0.288-0.272,0.288c-0.152,0-0.224-0.136-0.416-0.136c-0.144,0-0.432,0.352-0.783,0.968
			c0,0.056,0.016,0.167,0.064,0.359l0.256,1.071c0.056,0.224,0.128,0.328,0.24,0.328c0.104,0,0.192-0.08,0.375-0.32
			c0.072-0.096,0.104-0.144,0.168-0.224l0.12,0.072c-0.464,0.72-0.672,0.911-0.976,0.911c-0.256,0-0.375-0.144-0.472-0.544
			l-0.232-0.951l-0.704,0.951c-0.352,0.472-0.512,0.544-0.759,0.544c-0.248,0-0.4-0.128-0.4-0.336c0-0.16,0.112-0.288,0.272-0.288
			c0.072,0,0.152,0.032,0.256,0.088c0.08,0.049,0.16,0.072,0.208,0.072c0.088,0,0.24-0.151,0.408-0.392l0.655-0.928l-0.224-0.991
			c-0.112-0.479-0.168-0.544-0.368-0.544c-0.063,0-0.16,0.017-0.312,0.057l-0.144,0.04l-0.024-0.129l0.088-0.031
			c0.488-0.176,0.751-0.232,0.936-0.232c0.2,0,0.296,0.145,0.408,0.688L46.113,79.091z"/>
	</g>
</g>
<g id="Slice">
	<path opacity="0.1" fill="#FF00FE" d="M101.612,22.567l0.091,52.838h-44.38l0-54.221l0,0
		c10.065,47.478,16.554,21.432,21.713,21.141C83.236,42.088,92.346,67.698,101.612,22.567"/>
	<path opacity="0.1" fill="#FF00FE" d="M102.171,22.988l-0.034,51.35h-44.38h0.001V20.833l-0.022,0.005
		c10.153,48.474,16.682,22.164,21.867,21.871C83.802,42.472,92.908,68.068,102.171,22.988z"/>
	<polygon opacity="0.3" fill="#FF00FE" points="57.758,74.505 57.323,75.405 57.323,21.184 57.758,20.284 	"/>
	<polygon opacity="0.3" fill="#FF00FE" points="102.171,74.215 101.655,75.405 101.655,22.665 102.171,22.665 	"/>
</g>
<g id="volume">
</g>
<g id="Layer_2">
	
		<line display="none" fill="none" stroke="#FF00FF" stroke-width="0.1" stroke-miterlimit="10" x1="78.791" y1="76.984" x2="78.791" y2="43.693"/>
	<g id="xi_x2C_yi">
		
			<line fill="none" stroke="#FF00FF" stroke-width="0.1" stroke-linecap="round" stroke-linejoin="round" stroke-miterlimit="10" stroke-dasharray="3" x1="26.117" y1="74.337" x2="58.611" y2="74.337"/>
	</g>
	<g>
		<path fill="#FF00FF" d="M20.607,72.427c0.699-1.069,1.069-1.429,1.509-1.429c0.24,0,0.41,0.149,0.41,0.369
			c0,0.21-0.14,0.36-0.34,0.36c-0.19,0-0.28-0.17-0.52-0.17c-0.18,0-0.54,0.439-0.979,1.209c0,0.07,0.02,0.21,0.08,0.45l0.32,1.339
			c0.07,0.28,0.16,0.41,0.3,0.41c0.13,0,0.24-0.101,0.47-0.4c0.09-0.12,0.13-0.18,0.21-0.279l0.15,0.09
			c-0.58,0.899-0.839,1.14-1.219,1.14c-0.32,0-0.47-0.181-0.59-0.68l-0.29-1.189l-0.88,1.189c-0.439,0.589-0.64,0.68-0.949,0.68
			c-0.31,0-0.5-0.16-0.5-0.42c0-0.2,0.14-0.36,0.34-0.36c0.09,0,0.19,0.04,0.32,0.11c0.1,0.06,0.2,0.09,0.26,0.09
			c0.11,0,0.3-0.189,0.51-0.49l0.82-1.159l-0.28-1.239c-0.14-0.6-0.21-0.68-0.46-0.68c-0.08,0-0.2,0.021-0.39,0.07l-0.18,0.05
			l-0.03-0.16l0.11-0.04c0.61-0.22,0.939-0.289,1.169-0.289c0.25,0,0.37,0.18,0.51,0.859L20.607,72.427z"/>
		<path fill="#FF00FF" d="M23.675,74.89c-0.275,0.421-0.436,0.57-0.686,0.57c-0.166,0-0.246-0.09-0.246-0.274
			c0-0.101,0.035-0.275,0.11-0.556l0.24-0.886c0.025-0.091,0.045-0.181,0.045-0.221c0-0.1-0.05-0.115-0.32-0.12v-0.08
			c0.195-0.015,0.295-0.03,0.801-0.125l0.02,0.015l-0.471,1.717c-0.025,0.085-0.05,0.15-0.05,0.221c0,0.05,0.03,0.074,0.07,0.074
			c0.085,0,0.205-0.104,0.42-0.39L23.675,74.89z M23.575,72.662c-0.145,0-0.24-0.104-0.24-0.265c0-0.155,0.1-0.266,0.235-0.266
			c0.135,0,0.25,0.13,0.25,0.275C23.82,72.548,23.704,72.662,23.575,72.662z"/>
	</g>
	<polygon fill="#FFD1FF" stroke="#FF00FF" stroke-width="0.25" stroke-miterlimit="10" points="101.703,75.405 57.323,75.405 
		57.757,74.337 102.137,74.337 	"/>
	
		<line fill="none" stroke="#FF00FE" stroke-width="0.1" stroke-linecap="round" stroke-linejoin="round" stroke-miterlimit="10" x1="101.655" y1="22.665" x2="101.655" y2="75.405"/>
	
		<line fill="none" stroke="#FF00FF" stroke-width="0.1" stroke-linecap="round" stroke-linejoin="round" stroke-miterlimit="10" x1="102.137" y1="23.164" x2="102.137" y2="74.337"/>
	
		<line fill="none" stroke="#FF00FE" stroke-width="0.1" stroke-linecap="round" stroke-linejoin="round" stroke-miterlimit="10" x1="102.137" y1="23.048" x2="102.137" y2="74.505"/>
	<g id="xi_x2C_yi_00000163777953801895123950000011267919735251969466_">
		
			<line fill="none" stroke="#000000" stroke-width="0.1" stroke-linecap="round" stroke-linejoin="round" stroke-miterlimit="10" stroke-dasharray="3" x1="32.33" y1="68.124" x2="80.053" y2="68.124"/>
	</g>
	<g id="xi_x2C_yi_00000088835746563220419570000017772033069604177060_">
		
			<line fill="none" stroke="#000000" stroke-width="0.1" stroke-linecap="round" stroke-linejoin="round" stroke-miterlimit="10" stroke-dasharray="3" x1="16.491" y1="83.968" x2="79.434" y2="83.968"/>
	</g>
	<g>
		<path fill="#FF00FF" d="M21.497,65.874c0.699-1.069,1.069-1.429,1.509-1.429c0.24,0,0.41,0.149,0.41,0.369
			c0,0.21-0.14,0.36-0.34,0.36c-0.19,0-0.28-0.17-0.52-0.17c-0.18,0-0.54,0.439-0.979,1.209c0,0.07,0.02,0.21,0.08,0.45l0.32,1.339
			c0.07,0.28,0.16,0.41,0.3,0.41c0.13,0,0.24-0.101,0.47-0.4c0.09-0.12,0.13-0.18,0.21-0.279l0.15,0.09
			c-0.58,0.899-0.839,1.14-1.219,1.14c-0.32,0-0.47-0.181-0.59-0.68l-0.29-1.189l-0.88,1.189c-0.439,0.589-0.64,0.68-0.949,0.68
			c-0.31,0-0.5-0.16-0.5-0.42c0-0.2,0.14-0.36,0.34-0.36c0.09,0,0.19,0.04,0.32,0.11c0.1,0.06,0.2,0.09,0.26,0.09
			c0.11,0,0.3-0.189,0.51-0.49l0.82-1.159l-0.28-1.239c-0.14-0.6-0.21-0.68-0.46-0.68c-0.08,0-0.2,0.021-0.39,0.07l-0.18,0.05
			l-0.03-0.16l0.11-0.04c0.61-0.22,0.939-0.289,1.169-0.289c0.25,0,0.37,0.18,0.51,0.859L21.497,65.874z"/>
		<path fill="#FF00FF" d="M26.887,68.362c-0.266,0.37-0.485,0.535-0.721,0.535c-0.13,0-0.2-0.08-0.2-0.23
			c0-0.05,0.015-0.135,0.065-0.33l0.291-1.136c0.025-0.101,0.035-0.165,0.035-0.19c0-0.06-0.045-0.105-0.1-0.105
			c-0.15,0-0.405,0.235-0.655,0.586c-0.246,0.346-0.346,0.591-0.541,1.361h-0.375l0.135-0.466c0.221-0.761,0.341-1.291,0.341-1.355
			c0-0.08-0.045-0.126-0.11-0.126c-0.17,0-0.465,0.291-0.746,0.716c-0.17,0.261-0.24,0.44-0.48,1.231h-0.375l0.215-0.721
			c0.2-0.666,0.275-1.081,0.275-1.142c0-0.074-0.07-0.109-0.205-0.109h-0.125v-0.08l0.811-0.155l0.015,0.01l-0.29,1.046
			c0.445-0.726,0.795-1.056,1.101-1.056c0.2,0,0.3,0.12,0.3,0.3c0,0.096-0.065,0.376-0.2,0.761c0.35-0.556,0.555-0.806,0.801-0.961
			c0.12-0.075,0.215-0.1,0.315-0.1c0.186,0,0.291,0.135,0.291,0.315c0,0.035-0.01,0.115-0.015,0.14l-0.34,1.257
			c-0.03,0.115-0.05,0.205-0.05,0.225c0,0.056,0.02,0.08,0.06,0.08c0.085,0,0.175-0.08,0.325-0.265l0.105-0.131l0.075,0.061
			L26.887,68.362z"/>
		<path fill="#FF00FF" d="M28.175,68.337c-0.275,0.421-0.436,0.57-0.686,0.57c-0.165,0-0.245-0.09-0.245-0.274
			c0-0.101,0.035-0.275,0.11-0.556l0.24-0.886c0.025-0.091,0.045-0.181,0.045-0.221c0-0.1-0.05-0.115-0.32-0.12v-0.08
			c0.195-0.015,0.295-0.03,0.801-0.125l0.02,0.015l-0.47,1.717c-0.025,0.085-0.05,0.15-0.05,0.221c0,0.05,0.03,0.074,0.07,0.074
			c0.085,0,0.206-0.104,0.421-0.39L28.175,68.337z M28.075,66.109c-0.146,0-0.24-0.104-0.24-0.265c0-0.155,0.1-0.266,0.235-0.266
			c0.135,0,0.25,0.13,0.25,0.275C28.32,65.995,28.204,66.109,28.075,66.109z"/>
		<path fill="#FF00FF" d="M30.761,68.332c-0.341,0.466-0.466,0.565-0.701,0.565c-0.125,0-0.235-0.08-0.235-0.271
			c0-0.05,0.01-0.115,0.08-0.375l0.22-0.811c0.04-0.155,0.07-0.336,0.07-0.396c0-0.09-0.045-0.146-0.12-0.146
			c-0.2,0-0.425,0.245-0.741,0.711c-0.225,0.335-0.265,0.45-0.5,1.241h-0.375l0.48-1.752c0.005-0.024,0.01-0.055,0.01-0.085
			c0-0.1-0.07-0.13-0.325-0.135v-0.08c0.405-0.08,0.545-0.101,0.811-0.155l0.02,0.01l-0.335,1.091
			c0.5-0.801,0.835-1.101,1.156-1.101c0.215,0,0.326,0.125,0.326,0.306c0,0.09-0.021,0.194-0.05,0.3l-0.28,1.016
			c-0.05,0.181-0.07,0.266-0.07,0.306c0,0.045,0.02,0.09,0.08,0.09c0.07,0,0.16-0.08,0.305-0.265c0.035-0.04,0.07-0.085,0.105-0.131
			L30.761,68.332z"/>
	</g>
	<g>
		<path fill="#FF00FF" d="M4.847,81.283c0.699-1.069,1.069-1.429,1.509-1.429c0.24,0,0.41,0.149,0.41,0.369
			c0,0.21-0.14,0.36-0.34,0.36c-0.19,0-0.28-0.17-0.52-0.17c-0.18,0-0.54,0.439-0.979,1.209c0,0.07,0.02,0.21,0.08,0.45l0.32,1.339
			c0.07,0.28,0.16,0.41,0.3,0.41c0.13,0,0.24-0.101,0.47-0.4c0.09-0.12,0.13-0.18,0.21-0.279l0.15,0.09
			c-0.58,0.899-0.839,1.14-1.219,1.14c-0.32,0-0.47-0.181-0.59-0.68l-0.29-1.189l-0.88,1.189c-0.439,0.589-0.64,0.68-0.949,0.68
			c-0.31,0-0.5-0.16-0.5-0.42c0-0.2,0.14-0.36,0.34-0.36c0.09,0,0.19,0.04,0.32,0.11c0.1,0.06,0.2,0.09,0.26,0.09
			c0.11,0,0.3-0.189,0.51-0.49l0.82-1.159l-0.28-1.239c-0.14-0.6-0.21-0.68-0.46-0.68c-0.08,0-0.2,0.021-0.39,0.07l-0.18,0.05
			l-0.03-0.16l0.11-0.04c0.61-0.22,0.939-0.289,1.169-0.289c0.25,0,0.37,0.18,0.51,0.859L4.847,81.283z"/>
		<path fill="#FF00FF" d="M10.236,83.771c-0.266,0.37-0.485,0.535-0.721,0.535c-0.13,0-0.2-0.08-0.2-0.23
			c0-0.05,0.015-0.135,0.065-0.33l0.291-1.136c0.025-0.101,0.035-0.165,0.035-0.19c0-0.06-0.045-0.105-0.1-0.105
			c-0.15,0-0.405,0.235-0.655,0.586c-0.246,0.346-0.346,0.591-0.541,1.361H8.034l0.135-0.466C8.39,83.035,8.51,82.505,8.51,82.44
			c0-0.08-0.045-0.126-0.11-0.126c-0.17,0-0.465,0.291-0.746,0.716c-0.17,0.261-0.24,0.44-0.48,1.231H6.798l0.215-0.721
			c0.2-0.666,0.275-1.081,0.275-1.142c0-0.074-0.07-0.109-0.205-0.109H6.958v-0.08l0.811-0.155l0.015,0.01l-0.29,1.046
			c0.445-0.726,0.795-1.056,1.101-1.056c0.2,0,0.3,0.12,0.3,0.3c0,0.096-0.065,0.376-0.2,0.761c0.35-0.556,0.555-0.806,0.801-0.961
			c0.12-0.075,0.215-0.1,0.315-0.1c0.186,0,0.291,0.135,0.291,0.315c0,0.035-0.01,0.115-0.015,0.14l-0.34,1.257
			c-0.03,0.115-0.05,0.205-0.05,0.225c0,0.056,0.02,0.08,0.06,0.08c0.085,0,0.175-0.08,0.325-0.265l0.105-0.131l0.075,0.061
			L10.236,83.771z"/>
		<path fill="#FF00FF" d="M12.73,83.761c-0.375,0.456-0.496,0.551-0.696,0.551c-0.14,0-0.2-0.06-0.2-0.205
			c0-0.125,0.01-0.165,0.115-0.575c-0.375,0.565-0.666,0.785-1.016,0.785c-0.28,0-0.5-0.2-0.5-0.58c0-0.776,0.766-1.682,1.432-1.682
			c0.215,0,0.36,0.104,0.4,0.29l0.055-0.24l0.015-0.015l0.305-0.035l0.035,0.015c-0.01,0.045-0.015,0.056-0.03,0.105
			c-0.235,0.855-0.446,1.717-0.446,1.816c0,0.035,0.03,0.065,0.07,0.065c0.045,0,0.11-0.04,0.26-0.205l0.135-0.146L12.73,83.761z
			 M11.894,82.165c-0.225,0-0.445,0.154-0.656,0.46c-0.21,0.315-0.385,0.761-0.385,1.076c0,0.275,0.12,0.37,0.3,0.37
			c0.25,0,0.485-0.275,0.636-0.49c0.235-0.34,0.385-0.771,0.385-1.126C12.174,82.28,12.069,82.165,11.894,82.165z"/>
		<path fill="#FF00FF" d="M14.129,82.771c0.35-0.536,0.535-0.716,0.756-0.716c0.12,0,0.205,0.075,0.205,0.185
			c0,0.105-0.07,0.181-0.17,0.181c-0.095,0-0.14-0.085-0.26-0.085c-0.09,0-0.27,0.22-0.49,0.605c0,0.035,0.01,0.105,0.04,0.226
			l0.16,0.67c0.035,0.141,0.08,0.206,0.15,0.206c0.065,0,0.12-0.051,0.235-0.201c0.045-0.06,0.065-0.09,0.105-0.14l0.075,0.045
			c-0.29,0.45-0.42,0.57-0.61,0.57c-0.16,0-0.235-0.09-0.295-0.34l-0.145-0.596l-0.44,0.596c-0.221,0.295-0.32,0.34-0.476,0.34
			s-0.25-0.08-0.25-0.21c0-0.1,0.07-0.18,0.17-0.18c0.045,0,0.095,0.02,0.16,0.055c0.05,0.03,0.1,0.045,0.13,0.045
			c0.055,0,0.15-0.095,0.255-0.245l0.411-0.581l-0.141-0.62c-0.07-0.3-0.105-0.341-0.23-0.341c-0.04,0-0.1,0.011-0.195,0.035
			l-0.09,0.025l-0.015-0.08l0.055-0.02c0.305-0.11,0.47-0.146,0.585-0.146c0.125,0,0.185,0.09,0.255,0.431L14.129,82.771z"/>
	</g>
	<line fill="none" stroke="#FF00FF" stroke-width="0.1" stroke-miterlimit="10" x1="50.393" y1="72.057" x2="45.305" y2="77.145"/>
	<g id="xi_x2C_yi_00000166674234761270956500000012563050046643593150_">
		
			<line fill="none" stroke="#FF00FF" stroke-width="0.1" stroke-linecap="round" stroke-linejoin="round" stroke-miterlimit="10" stroke-dasharray="3" x1="44.043" y1="75.405" x2="57.227" y2="75.405"/>
	</g>
	<g>
		<g>
			
				<line fill="none" stroke="#FF00FF" stroke-width="0.1" stroke-miterlimit="10" x1="50.393" y1="72.057" x2="48.271" y2="74.179"/>
			<g>
				<polygon fill="#FF00FF" points="48.207,73.718 48.358,74.092 48.731,74.242 47.849,74.601 				"/>
			</g>
		</g>
	</g>
	<g>
		<g>
			<line fill="none" stroke="#FF00FF" stroke-width="0.1" stroke-miterlimit="10" x1="44.712" y1="77.738" x2="46.57" y2="75.879"/>
			<g>
				<polygon fill="#FF00FF" points="46.633,76.34 46.483,75.967 46.11,75.816 46.992,75.457 				"/>
			</g>
		</g>
	</g>
	<g>
	</g>
	<g>
	</g>
</g>
</svg>
