<?xml version="1.0" encoding="utf-8"?>
<!-- Generator: Adobe Illustrator 25.4.1, SVG Export Plug-In . SVG Version: 6.00 Build 0)  -->
<svg version="1.1" xmlns="http://www.w3.org/2000/svg" xmlns:xlink="http://www.w3.org/1999/xlink" x="0px" y="0px"
	 viewBox="0 0 51.46 47.671" enable-background="new 0 0 51.46 47.671" xml:space="preserve">
<g id="Graph_paper" opacity="0.5">
	<g id="Clipped_grid">
		<defs>
			<rect id="SVGID_1_" x="-3.464" y="-2.835" width="57.832" height="52.963"/>
		</defs>
		<clipPath id="SVGID_00000046299044605859795600000005049466070580471439_">
			<use xlink:href="#SVGID_1_"  overflow="visible"/>
		</clipPath>
		<g id="Grid" opacity="0.25" clip-path="url(#SVGID_00000046299044605859795600000005049466070580471439_)">
			<g id="Horizontal_1_mm">
				
					<line fill="none" stroke="#00ABEB" stroke-width="0.15" stroke-miterlimit="10" x1="-20.547" y1="-39.685" x2="206.294" y2="-39.685"/>
				
					<line fill="none" stroke="#00ABEB" stroke-width="0.15" stroke-miterlimit="10" x1="-20.547" y1="-42.52" x2="206.294" y2="-42.52"/>
				
					<line fill="none" stroke="#00ABEB" stroke-width="0.15" stroke-miterlimit="10" x1="-20.547" y1="127.559" x2="206.294" y2="127.559"/>
				
					<line fill="none" stroke="#00ABEB" stroke-width="0.15" stroke-miterlimit="10" x1="-20.547" y1="124.724" x2="206.294" y2="124.724"/>
				
					<line fill="none" stroke="#00ABEB" stroke-width="0.15" stroke-miterlimit="10" x1="-20.547" y1="121.89" x2="206.294" y2="121.89"/>
				
					<line fill="none" stroke="#00ABEB" stroke-width="0.15" stroke-miterlimit="10" x1="-20.547" y1="119.055" x2="206.294" y2="119.055"/>
				
					<line fill="none" stroke="#00ABEB" stroke-width="0.15" stroke-miterlimit="10" x1="-20.547" y1="116.22" x2="206.294" y2="116.22"/>
				
					<line fill="none" stroke="#00ABEB" stroke-width="0.15" stroke-miterlimit="10" x1="-20.547" y1="113.386" x2="206.294" y2="113.386"/>
				
					<line fill="none" stroke="#00ABEB" stroke-width="0.15" stroke-miterlimit="10" x1="-20.547" y1="110.551" x2="206.294" y2="110.551"/>
				
					<line fill="none" stroke="#00ABEB" stroke-width="0.15" stroke-miterlimit="10" x1="-20.547" y1="107.717" x2="206.294" y2="107.717"/>
				
					<line fill="none" stroke="#00ABEB" stroke-width="0.15" stroke-miterlimit="10" x1="-20.547" y1="104.882" x2="206.294" y2="104.882"/>
				
					<line fill="none" stroke="#00ABEB" stroke-width="0.15" stroke-miterlimit="10" x1="-20.547" y1="102.047" x2="206.294" y2="102.047"/>
				
					<line fill="none" stroke="#00ABEB" stroke-width="0.15" stroke-miterlimit="10" x1="-20.547" y1="99.213" x2="206.294" y2="99.213"/>
				
					<line fill="none" stroke="#00ABEB" stroke-width="0.15" stroke-miterlimit="10" x1="-20.547" y1="96.378" x2="206.294" y2="96.378"/>
				
					<line fill="none" stroke="#00ABEB" stroke-width="0.15" stroke-miterlimit="10" x1="-20.547" y1="93.543" x2="206.294" y2="93.543"/>
				
					<line fill="none" stroke="#00ABEB" stroke-width="0.15" stroke-miterlimit="10" x1="-20.547" y1="90.709" x2="206.294" y2="90.709"/>
				
					<line fill="none" stroke="#00ABEB" stroke-width="0.15" stroke-miterlimit="10" x1="-20.547" y1="87.874" x2="206.294" y2="87.874"/>
				
					<line fill="none" stroke="#00ABEB" stroke-width="0.15" stroke-miterlimit="10" x1="-20.547" y1="85.039" x2="206.294" y2="85.039"/>
				
					<line fill="none" stroke="#00ABEB" stroke-width="0.15" stroke-miterlimit="10" x1="-20.547" y1="82.205" x2="206.294" y2="82.205"/>
				
					<line fill="none" stroke="#00ABEB" stroke-width="0.15" stroke-miterlimit="10" x1="-20.547" y1="79.37" x2="206.294" y2="79.37"/>
				
					<line fill="none" stroke="#00ABEB" stroke-width="0.15" stroke-miterlimit="10" x1="-20.547" y1="76.535" x2="206.294" y2="76.535"/>
				
					<line fill="none" stroke="#00ABEB" stroke-width="0.15" stroke-miterlimit="10" x1="-20.547" y1="73.701" x2="206.294" y2="73.701"/>
				
					<line fill="none" stroke="#00ABEB" stroke-width="0.15" stroke-miterlimit="10" x1="-20.547" y1="70.866" x2="206.294" y2="70.866"/>
				
					<line fill="none" stroke="#00ABEB" stroke-width="0.15" stroke-miterlimit="10" x1="-20.547" y1="68.031" x2="206.294" y2="68.031"/>
				
					<line fill="none" stroke="#00ABEB" stroke-width="0.15" stroke-miterlimit="10" x1="-20.547" y1="65.197" x2="206.294" y2="65.197"/>
				
					<line fill="none" stroke="#00ABEB" stroke-width="0.15" stroke-miterlimit="10" x1="-20.547" y1="62.362" x2="206.294" y2="62.362"/>
				
					<line fill="none" stroke="#00ABEB" stroke-width="0.15" stroke-miterlimit="10" x1="-20.547" y1="59.528" x2="206.294" y2="59.528"/>
				
					<line fill="none" stroke="#00ABEB" stroke-width="0.15" stroke-miterlimit="10" x1="-20.547" y1="56.693" x2="206.294" y2="56.693"/>
				
					<line fill="none" stroke="#00ABEB" stroke-width="0.15" stroke-miterlimit="10" x1="-20.547" y1="53.858" x2="206.294" y2="53.858"/>
				
					<line fill="none" stroke="#00ABEB" stroke-width="0.15" stroke-miterlimit="10" x1="-20.547" y1="51.024" x2="206.294" y2="51.024"/>
				
					<line fill="none" stroke="#00ABEB" stroke-width="0.15" stroke-miterlimit="10" x1="-20.547" y1="48.189" x2="206.294" y2="48.189"/>
				
					<line fill="none" stroke="#00ABEB" stroke-width="0.15" stroke-miterlimit="10" x1="-20.547" y1="45.354" x2="206.294" y2="45.354"/>
				
					<line fill="none" stroke="#00ABEB" stroke-width="0.15" stroke-miterlimit="10" x1="-20.547" y1="42.52" x2="206.294" y2="42.52"/>
				
					<line fill="none" stroke="#00ABEB" stroke-width="0.15" stroke-miterlimit="10" x1="-20.547" y1="39.685" x2="206.294" y2="39.685"/>
				
					<line fill="none" stroke="#00ABEB" stroke-width="0.15" stroke-miterlimit="10" x1="-20.547" y1="36.85" x2="206.294" y2="36.85"/>
				
					<line fill="none" stroke="#00ABEB" stroke-width="0.15" stroke-miterlimit="10" x1="-20.547" y1="34.016" x2="206.294" y2="34.016"/>
				
					<line fill="none" stroke="#00ABEB" stroke-width="0.15" stroke-miterlimit="10" x1="-20.547" y1="31.181" x2="206.294" y2="31.181"/>
				
					<line fill="none" stroke="#00ABEB" stroke-width="0.15" stroke-miterlimit="10" x1="-20.547" y1="28.346" x2="206.294" y2="28.346"/>
				
					<line fill="none" stroke="#00ABEB" stroke-width="0.15" stroke-miterlimit="10" x1="-20.547" y1="25.512" x2="206.294" y2="25.512"/>
				
					<line fill="none" stroke="#00ABEB" stroke-width="0.15" stroke-miterlimit="10" x1="-20.547" y1="22.677" x2="206.294" y2="22.677"/>
				
					<line fill="none" stroke="#00ABEB" stroke-width="0.15" stroke-miterlimit="10" x1="-20.547" y1="19.842" x2="206.294" y2="19.842"/>
				
					<line fill="none" stroke="#00ABEB" stroke-width="0.15" stroke-miterlimit="10" x1="-20.547" y1="17.008" x2="206.294" y2="17.008"/>
				
					<line fill="none" stroke="#00ABEB" stroke-width="0.15" stroke-miterlimit="10" x1="-20.547" y1="14.173" x2="206.294" y2="14.173"/>
				
					<line fill="none" stroke="#00ABEB" stroke-width="0.15" stroke-miterlimit="10" x1="-20.547" y1="11.339" x2="206.294" y2="11.339"/>
				
					<line fill="none" stroke="#00ABEB" stroke-width="0.15" stroke-miterlimit="10" x1="-20.547" y1="8.504" x2="206.294" y2="8.504"/>
				
					<line fill="none" stroke="#00ABEB" stroke-width="0.15" stroke-miterlimit="10" x1="-20.547" y1="5.669" x2="206.294" y2="5.669"/>
				
					<line fill="none" stroke="#00ABEB" stroke-width="0.15" stroke-miterlimit="10" x1="-20.547" y1="2.835" x2="206.294" y2="2.835"/>
				<line fill="none" stroke="#00ABEB" stroke-width="0.15" stroke-miterlimit="10" x1="-20.547" y1="0" x2="206.294" y2="0"/>
				
					<line fill="none" stroke="#00ABEB" stroke-width="0.15" stroke-miterlimit="10" x1="-20.547" y1="-2.835" x2="206.294" y2="-2.835"/>
				
					<line fill="none" stroke="#00ABEB" stroke-width="0.15" stroke-miterlimit="10" x1="-20.547" y1="-5.669" x2="206.294" y2="-5.669"/>
				
					<line fill="none" stroke="#00ABEB" stroke-width="0.15" stroke-miterlimit="10" x1="-20.547" y1="-8.504" x2="206.294" y2="-8.504"/>
				
					<line fill="none" stroke="#00ABEB" stroke-width="0.15" stroke-miterlimit="10" x1="-20.547" y1="-11.339" x2="206.294" y2="-11.339"/>
				
					<line fill="none" stroke="#00ABEB" stroke-width="0.15" stroke-miterlimit="10" x1="-20.547" y1="-14.173" x2="206.294" y2="-14.173"/>
				
					<line fill="none" stroke="#00ABEB" stroke-width="0.15" stroke-miterlimit="10" x1="-20.547" y1="-17.008" x2="206.294" y2="-17.008"/>
				
					<line fill="none" stroke="#00ABEB" stroke-width="0.15" stroke-miterlimit="10" x1="-20.547" y1="-19.843" x2="206.294" y2="-19.843"/>
				
					<line fill="none" stroke="#00ABEB" stroke-width="0.15" stroke-miterlimit="10" x1="-20.547" y1="-22.677" x2="206.294" y2="-22.677"/>
				
					<line fill="none" stroke="#00ABEB" stroke-width="0.15" stroke-miterlimit="10" x1="-20.547" y1="-25.512" x2="206.294" y2="-25.512"/>
				
					<line fill="none" stroke="#00ABEB" stroke-width="0.15" stroke-miterlimit="10" x1="-20.547" y1="-28.346" x2="206.294" y2="-28.346"/>
				
					<line fill="none" stroke="#00ABEB" stroke-width="0.15" stroke-miterlimit="10" x1="-20.547" y1="-31.181" x2="206.294" y2="-31.181"/>
				
					<line fill="none" stroke="#00ABEB" stroke-width="0.15" stroke-miterlimit="10" x1="-20.547" y1="-34.016" x2="206.294" y2="-34.016"/>
				
					<line fill="none" stroke="#00ABEB" stroke-width="0.15" stroke-miterlimit="10" x1="-20.547" y1="-36.85" x2="206.294" y2="-36.85"/>
			</g>
			<g id="Vertical_1_mm">
				<g>
					
						<line fill="none" stroke="#00ABEB" stroke-width="0.15" stroke-miterlimit="10" x1="-20.472" y1="127.545" x2="-20.472" y2="-42.595"/>
				</g>
				
					<line fill="none" stroke="#00ABEB" stroke-width="0.15" stroke-miterlimit="10" x1="-17.638" y1="127.545" x2="-17.638" y2="-42.595"/>
				
					<line fill="none" stroke="#00ABEB" stroke-width="0.15" stroke-miterlimit="10" x1="-14.803" y1="127.545" x2="-14.803" y2="-42.595"/>
				
					<line fill="none" stroke="#00ABEB" stroke-width="0.15" stroke-miterlimit="10" x1="-11.968" y1="127.545" x2="-11.968" y2="-42.595"/>
				
					<line fill="none" stroke="#00ABEB" stroke-width="0.15" stroke-miterlimit="10" x1="-9.134" y1="127.545" x2="-9.134" y2="-42.595"/>
				
					<line fill="none" stroke="#00ABEB" stroke-width="0.15" stroke-miterlimit="10" x1="-6.299" y1="127.545" x2="-6.299" y2="-42.595"/>
				
					<line fill="none" stroke="#00ABEB" stroke-width="0.15" stroke-miterlimit="10" x1="-3.464" y1="127.545" x2="-3.464" y2="-42.595"/>
				
					<line fill="none" stroke="#00ABEB" stroke-width="0.15" stroke-miterlimit="10" x1="-0.63" y1="127.545" x2="-0.63" y2="-42.595"/>
				
					<line fill="none" stroke="#00ABEB" stroke-width="0.15" stroke-miterlimit="10" x1="2.205" y1="127.545" x2="2.205" y2="-42.595"/>
				
					<line fill="none" stroke="#00ABEB" stroke-width="0.15" stroke-miterlimit="10" x1="5.039" y1="127.545" x2="5.039" y2="-42.595"/>
				
					<line fill="none" stroke="#00ABEB" stroke-width="0.15" stroke-miterlimit="10" x1="7.874" y1="127.545" x2="7.874" y2="-42.595"/>
				
					<line fill="none" stroke="#00ABEB" stroke-width="0.15" stroke-miterlimit="10" x1="10.709" y1="127.545" x2="10.709" y2="-42.595"/>
				
					<line fill="none" stroke="#00ABEB" stroke-width="0.15" stroke-miterlimit="10" x1="13.543" y1="127.545" x2="13.543" y2="-42.595"/>
				
					<line fill="none" stroke="#00ABEB" stroke-width="0.15" stroke-miterlimit="10" x1="16.378" y1="127.545" x2="16.378" y2="-42.595"/>
				
					<line fill="none" stroke="#00ABEB" stroke-width="0.15" stroke-miterlimit="10" x1="19.213" y1="127.545" x2="19.213" y2="-42.595"/>
				
					<line fill="none" stroke="#00ABEB" stroke-width="0.15" stroke-miterlimit="10" x1="22.047" y1="127.545" x2="22.047" y2="-42.595"/>
				
					<line fill="none" stroke="#00ABEB" stroke-width="0.15" stroke-miterlimit="10" x1="24.882" y1="127.545" x2="24.882" y2="-42.595"/>
				
					<line fill="none" stroke="#00ABEB" stroke-width="0.15" stroke-miterlimit="10" x1="27.717" y1="127.545" x2="27.717" y2="-42.595"/>
				
					<line fill="none" stroke="#00ABEB" stroke-width="0.15" stroke-miterlimit="10" x1="30.551" y1="127.545" x2="30.551" y2="-42.595"/>
				
					<line fill="none" stroke="#00ABEB" stroke-width="0.15" stroke-miterlimit="10" x1="33.386" y1="127.545" x2="33.386" y2="-42.595"/>
				
					<line fill="none" stroke="#00ABEB" stroke-width="0.15" stroke-miterlimit="10" x1="36.221" y1="127.545" x2="36.221" y2="-42.595"/>
				
					<line fill="none" stroke="#00ABEB" stroke-width="0.15" stroke-miterlimit="10" x1="39.055" y1="127.545" x2="39.055" y2="-42.595"/>
				
					<line fill="none" stroke="#00ABEB" stroke-width="0.15" stroke-miterlimit="10" x1="41.89" y1="127.545" x2="41.89" y2="-42.595"/>
				
					<line fill="none" stroke="#00ABEB" stroke-width="0.15" stroke-miterlimit="10" x1="44.725" y1="127.545" x2="44.725" y2="-42.595"/>
				
					<line fill="none" stroke="#00ABEB" stroke-width="0.15" stroke-miterlimit="10" x1="47.559" y1="127.545" x2="47.559" y2="-42.595"/>
				
					<line fill="none" stroke="#00ABEB" stroke-width="0.15" stroke-miterlimit="10" x1="50.394" y1="127.545" x2="50.394" y2="-42.595"/>
				
					<line fill="none" stroke="#00ABEB" stroke-width="0.15" stroke-miterlimit="10" x1="53.228" y1="127.545" x2="53.228" y2="-42.595"/>
				
					<line fill="none" stroke="#00ABEB" stroke-width="0.15" stroke-miterlimit="10" x1="56.063" y1="127.545" x2="56.063" y2="-42.595"/>
				
					<line fill="none" stroke="#00ABEB" stroke-width="0.15" stroke-miterlimit="10" x1="58.898" y1="127.545" x2="58.898" y2="-42.595"/>
				
					<line fill="none" stroke="#00ABEB" stroke-width="0.15" stroke-miterlimit="10" x1="61.732" y1="127.545" x2="61.732" y2="-42.595"/>
				
					<line fill="none" stroke="#00ABEB" stroke-width="0.15" stroke-miterlimit="10" x1="64.567" y1="127.545" x2="64.567" y2="-42.595"/>
				
					<line fill="none" stroke="#00ABEB" stroke-width="0.15" stroke-miterlimit="10" x1="67.402" y1="127.545" x2="67.402" y2="-42.595"/>
				
					<line fill="none" stroke="#00ABEB" stroke-width="0.15" stroke-miterlimit="10" x1="70.236" y1="127.545" x2="70.236" y2="-42.595"/>
				
					<line fill="none" stroke="#00ABEB" stroke-width="0.15" stroke-miterlimit="10" x1="73.071" y1="127.545" x2="73.071" y2="-42.595"/>
				
					<line fill="none" stroke="#00ABEB" stroke-width="0.15" stroke-miterlimit="10" x1="75.906" y1="127.545" x2="75.906" y2="-42.595"/>
				
					<line fill="none" stroke="#00ABEB" stroke-width="0.15" stroke-miterlimit="10" x1="78.74" y1="127.545" x2="78.74" y2="-42.595"/>
				
					<line fill="none" stroke="#00ABEB" stroke-width="0.15" stroke-miterlimit="10" x1="81.575" y1="127.545" x2="81.575" y2="-42.595"/>
				
					<line fill="none" stroke="#00ABEB" stroke-width="0.15" stroke-miterlimit="10" x1="84.41" y1="127.545" x2="84.41" y2="-42.595"/>
				
					<line fill="none" stroke="#00ABEB" stroke-width="0.15" stroke-miterlimit="10" x1="87.244" y1="127.545" x2="87.244" y2="-42.595"/>
				
					<line fill="none" stroke="#00ABEB" stroke-width="0.15" stroke-miterlimit="10" x1="90.079" y1="127.545" x2="90.079" y2="-42.595"/>
				
					<line fill="none" stroke="#00ABEB" stroke-width="0.15" stroke-miterlimit="10" x1="92.913" y1="127.545" x2="92.913" y2="-42.595"/>
				
					<line fill="none" stroke="#00ABEB" stroke-width="0.15" stroke-miterlimit="10" x1="95.748" y1="127.545" x2="95.748" y2="-42.595"/>
				
					<line fill="none" stroke="#00ABEB" stroke-width="0.15" stroke-miterlimit="10" x1="98.583" y1="127.545" x2="98.583" y2="-42.595"/>
				
					<line fill="none" stroke="#00ABEB" stroke-width="0.15" stroke-miterlimit="10" x1="101.417" y1="127.545" x2="101.417" y2="-42.595"/>
				
					<line fill="none" stroke="#00ABEB" stroke-width="0.15" stroke-miterlimit="10" x1="104.252" y1="127.545" x2="104.252" y2="-42.595"/>
				
					<line fill="none" stroke="#00ABEB" stroke-width="0.15" stroke-miterlimit="10" x1="107.087" y1="127.545" x2="107.087" y2="-42.595"/>
				
					<line fill="none" stroke="#00ABEB" stroke-width="0.15" stroke-miterlimit="10" x1="109.921" y1="127.545" x2="109.921" y2="-42.595"/>
				
					<line fill="none" stroke="#00ABEB" stroke-width="0.15" stroke-miterlimit="10" x1="112.756" y1="127.545" x2="112.756" y2="-42.595"/>
				
					<line fill="none" stroke="#00ABEB" stroke-width="0.15" stroke-miterlimit="10" x1="115.591" y1="127.545" x2="115.591" y2="-42.595"/>
				
					<line fill="none" stroke="#00ABEB" stroke-width="0.15" stroke-miterlimit="10" x1="118.425" y1="127.545" x2="118.425" y2="-42.595"/>
				
					<line fill="none" stroke="#00ABEB" stroke-width="0.15" stroke-miterlimit="10" x1="121.26" y1="127.545" x2="121.26" y2="-42.595"/>
				
					<line fill="none" stroke="#00ABEB" stroke-width="0.15" stroke-miterlimit="10" x1="124.095" y1="127.545" x2="124.095" y2="-42.595"/>
				
					<line fill="none" stroke="#00ABEB" stroke-width="0.15" stroke-miterlimit="10" x1="126.929" y1="127.545" x2="126.929" y2="-42.595"/>
				
					<line fill="none" stroke="#00ABEB" stroke-width="0.15" stroke-miterlimit="10" x1="129.764" y1="127.545" x2="129.764" y2="-42.595"/>
				
					<line fill="none" stroke="#00ABEB" stroke-width="0.15" stroke-miterlimit="10" x1="132.599" y1="127.545" x2="132.599" y2="-42.595"/>
				
					<line fill="none" stroke="#00ABEB" stroke-width="0.15" stroke-miterlimit="10" x1="135.433" y1="127.545" x2="135.433" y2="-42.595"/>
				
					<line fill="none" stroke="#00ABEB" stroke-width="0.15" stroke-miterlimit="10" x1="138.268" y1="127.545" x2="138.268" y2="-42.595"/>
				
					<line fill="none" stroke="#00ABEB" stroke-width="0.15" stroke-miterlimit="10" x1="141.102" y1="127.545" x2="141.102" y2="-42.595"/>
				
					<line fill="none" stroke="#00ABEB" stroke-width="0.15" stroke-miterlimit="10" x1="143.937" y1="127.545" x2="143.937" y2="-42.595"/>
				
					<line fill="none" stroke="#00ABEB" stroke-width="0.15" stroke-miterlimit="10" x1="146.772" y1="127.545" x2="146.772" y2="-42.595"/>
				
					<line fill="none" stroke="#00ABEB" stroke-width="0.15" stroke-miterlimit="10" x1="149.606" y1="127.545" x2="149.606" y2="-42.595"/>
				
					<line fill="none" stroke="#00ABEB" stroke-width="0.15" stroke-miterlimit="10" x1="152.441" y1="127.545" x2="152.441" y2="-42.595"/>
				
					<line fill="none" stroke="#00ABEB" stroke-width="0.15" stroke-miterlimit="10" x1="155.276" y1="127.545" x2="155.276" y2="-42.595"/>
				
					<line fill="none" stroke="#00ABEB" stroke-width="0.15" stroke-miterlimit="10" x1="158.11" y1="127.545" x2="158.11" y2="-42.595"/>
				
					<line fill="none" stroke="#00ABEB" stroke-width="0.15" stroke-miterlimit="10" x1="160.945" y1="127.545" x2="160.945" y2="-42.595"/>
				
					<line fill="none" stroke="#00ABEB" stroke-width="0.15" stroke-miterlimit="10" x1="163.78" y1="127.545" x2="163.78" y2="-42.595"/>
				
					<line fill="none" stroke="#00ABEB" stroke-width="0.15" stroke-miterlimit="10" x1="166.614" y1="127.545" x2="166.614" y2="-42.595"/>
				
					<line fill="none" stroke="#00ABEB" stroke-width="0.15" stroke-miterlimit="10" x1="169.449" y1="127.545" x2="169.449" y2="-42.595"/>
				
					<line fill="none" stroke="#00ABEB" stroke-width="0.15" stroke-miterlimit="10" x1="172.284" y1="127.545" x2="172.284" y2="-42.595"/>
				
					<line fill="none" stroke="#00ABEB" stroke-width="0.15" stroke-miterlimit="10" x1="175.118" y1="127.545" x2="175.118" y2="-42.595"/>
				
					<line fill="none" stroke="#00ABEB" stroke-width="0.15" stroke-miterlimit="10" x1="177.953" y1="127.545" x2="177.953" y2="-42.595"/>
				
					<line fill="none" stroke="#00ABEB" stroke-width="0.15" stroke-miterlimit="10" x1="180.788" y1="127.545" x2="180.788" y2="-42.595"/>
				
					<line fill="none" stroke="#00ABEB" stroke-width="0.15" stroke-miterlimit="10" x1="183.622" y1="127.545" x2="183.622" y2="-42.595"/>
				
					<line fill="none" stroke="#00ABEB" stroke-width="0.15" stroke-miterlimit="10" x1="186.457" y1="127.545" x2="186.457" y2="-42.595"/>
				
					<line fill="none" stroke="#00ABEB" stroke-width="0.15" stroke-miterlimit="10" x1="189.291" y1="127.545" x2="189.291" y2="-42.595"/>
				
					<line fill="none" stroke="#00ABEB" stroke-width="0.15" stroke-miterlimit="10" x1="192.126" y1="127.545" x2="192.126" y2="-42.595"/>
				
					<line fill="none" stroke="#00ABEB" stroke-width="0.15" stroke-miterlimit="10" x1="194.961" y1="127.545" x2="194.961" y2="-42.595"/>
				
					<line fill="none" stroke="#00ABEB" stroke-width="0.15" stroke-miterlimit="10" x1="197.795" y1="127.545" x2="197.795" y2="-42.595"/>
				
					<line fill="none" stroke="#00ABEB" stroke-width="0.15" stroke-miterlimit="10" x1="200.63" y1="127.545" x2="200.63" y2="-42.595"/>
				
					<line fill="none" stroke="#00ABEB" stroke-width="0.15" stroke-miterlimit="10" x1="203.465" y1="127.545" x2="203.465" y2="-42.595"/>
				
					<line fill="none" stroke="#00ABEB" stroke-width="0.15" stroke-miterlimit="10" x1="206.299" y1="127.545" x2="206.299" y2="-42.595"/>
			</g>
			<g id="Horizontal_5_mm_1_">
				
					<line fill="none" stroke="#00ABEB" stroke-width="0.3" stroke-miterlimit="10" x1="-20.822" y1="127.559" x2="206.294" y2="127.559"/>
				
					<line fill="none" stroke="#00ABEB" stroke-width="0.3" stroke-miterlimit="10" x1="-20.822" y1="113.386" x2="206.294" y2="113.386"/>
				
					<line fill="none" stroke="#00ABEB" stroke-width="0.3" stroke-miterlimit="10" x1="-20.822" y1="99.213" x2="206.294" y2="99.213"/>
				
					<line fill="none" stroke="#00ABEB" stroke-width="0.3" stroke-miterlimit="10" x1="-20.822" y1="85.039" x2="206.294" y2="85.039"/>
				
					<line fill="none" stroke="#00ABEB" stroke-width="0.3" stroke-miterlimit="10" x1="-20.822" y1="70.866" x2="206.294" y2="70.866"/>
				
					<line fill="none" stroke="#00ABEB" stroke-width="0.3" stroke-miterlimit="10" x1="-20.822" y1="56.693" x2="206.294" y2="56.693"/>
				
					<line fill="none" stroke="#00ABEB" stroke-width="0.3" stroke-miterlimit="10" x1="-20.822" y1="42.52" x2="206.294" y2="42.52"/>
				
					<line fill="none" stroke="#00ABEB" stroke-width="0.3" stroke-miterlimit="10" x1="-20.822" y1="28.346" x2="206.294" y2="28.346"/>
				
					<line fill="none" stroke="#00ABEB" stroke-width="0.3" stroke-miterlimit="10" x1="-20.822" y1="14.173" x2="206.294" y2="14.173"/>
				<line fill="none" stroke="#00ABEB" stroke-width="0.3" stroke-miterlimit="10" x1="-20.822" y1="0" x2="206.294" y2="0"/>
				
					<line fill="none" stroke="#00ABEB" stroke-width="0.3" stroke-miterlimit="10" x1="-20.822" y1="-14.173" x2="206.294" y2="-14.173"/>
			</g>
			<g id="Vertical_5_mm">
				
					<line fill="none" stroke="#00ABEB" stroke-width="0.3" stroke-miterlimit="10" x1="-20.472" y1="127.545" x2="-20.472" y2="-42.87"/>
				
					<line fill="none" stroke="#00ABEB" stroke-width="0.3" stroke-miterlimit="10" x1="-6.299" y1="127.545" x2="-6.299" y2="-42.87"/>
				
					<line fill="none" stroke="#00ABEB" stroke-width="0.3" stroke-miterlimit="10" x1="7.874" y1="127.545" x2="7.874" y2="-42.87"/>
				
					<line fill="none" stroke="#00ABEB" stroke-width="0.3" stroke-miterlimit="10" x1="22.047" y1="127.545" x2="22.047" y2="-42.87"/>
				
					<line fill="none" stroke="#00ABEB" stroke-width="0.3" stroke-miterlimit="10" x1="36.221" y1="127.545" x2="36.221" y2="-42.87"/>
				
					<line fill="none" stroke="#00ABEB" stroke-width="0.3" stroke-miterlimit="10" x1="50.394" y1="127.545" x2="50.394" y2="-42.87"/>
				
					<line fill="none" stroke="#00ABEB" stroke-width="0.3" stroke-miterlimit="10" x1="64.567" y1="127.545" x2="64.567" y2="-42.87"/>
				
					<line fill="none" stroke="#00ABEB" stroke-width="0.3" stroke-miterlimit="10" x1="78.74" y1="127.545" x2="78.74" y2="-42.87"/>
				
					<line fill="none" stroke="#00ABEB" stroke-width="0.3" stroke-miterlimit="10" x1="92.913" y1="127.545" x2="92.913" y2="-42.87"/>
				
					<line fill="none" stroke="#00ABEB" stroke-width="0.3" stroke-miterlimit="10" x1="107.087" y1="127.545" x2="107.087" y2="-42.87"/>
				
					<line fill="none" stroke="#00ABEB" stroke-width="0.3" stroke-miterlimit="10" x1="121.26" y1="127.545" x2="121.26" y2="-42.87"/>
				
					<line fill="none" stroke="#00ABEB" stroke-width="0.3" stroke-miterlimit="10" x1="135.433" y1="127.545" x2="135.433" y2="-42.87"/>
				
					<line fill="none" stroke="#00ABEB" stroke-width="0.3" stroke-miterlimit="10" x1="149.606" y1="127.545" x2="149.606" y2="-42.87"/>
				
					<line fill="none" stroke="#00ABEB" stroke-width="0.3" stroke-miterlimit="10" x1="163.78" y1="127.545" x2="163.78" y2="-42.87"/>
				
					<line fill="none" stroke="#00ABEB" stroke-width="0.3" stroke-miterlimit="10" x1="177.953" y1="127.545" x2="177.953" y2="-42.87"/>
				
					<line fill="none" stroke="#00ABEB" stroke-width="0.3" stroke-miterlimit="10" x1="192.126" y1="127.545" x2="192.126" y2="-42.87"/>
				
					<line fill="none" stroke="#00ABEB" stroke-width="0.3" stroke-miterlimit="10" x1="206.299" y1="127.545" x2="206.299" y2="-42.87"/>
			</g>
			<g id="Horizontal_10_mm">
				
					<line id="_x31_9_1_" fill="none" stroke="#00ABEB" stroke-width="0.7" stroke-miterlimit="10" x1="-20.822" y1="127.559" x2="206.294" y2="127.559"/>
				
					<line id="_x32_0" fill="none" stroke="#00ABEB" stroke-width="0.7" stroke-miterlimit="10" x1="-20.822" y1="99.213" x2="206.294" y2="99.213"/>
				
					<line id="_x32_1" fill="none" stroke="#00ABEB" stroke-width="0.7" stroke-miterlimit="10" x1="-20.822" y1="70.866" x2="206.294" y2="70.866"/>
				
					<line id="_x32_2" fill="none" stroke="#00ABEB" stroke-width="0.7" stroke-miterlimit="10" x1="-20.822" y1="42.52" x2="206.294" y2="42.52"/>
				
					<line id="_x32_3" fill="none" stroke="#00ABEB" stroke-width="0.7" stroke-miterlimit="10" x1="-20.822" y1="14.173" x2="206.294" y2="14.173"/>
				
					<line id="_x32_4" fill="none" stroke="#00ABEB" stroke-width="0.7" stroke-miterlimit="10" x1="-20.822" y1="-14.173" x2="206.294" y2="-14.173"/>
				
					<line id="_x32_5" fill="none" stroke="#00ABEB" stroke-width="0.7" stroke-miterlimit="10" x1="-20.822" y1="-42.52" x2="206.294" y2="-42.52"/>
			</g>
			<g id="Vertical_10_mm">
				
					<line id="_x30_" fill="none" stroke="#00ABEB" stroke-width="0.7" stroke-miterlimit="10" x1="-20.472" y1="127.545" x2="-20.472" y2="-42.87"/>
				
					<line id="_x31_" fill="none" stroke="#00ABEB" stroke-width="0.7" stroke-miterlimit="10" x1="7.874" y1="127.545" x2="7.874" y2="-42.87"/>
				
					<line id="_x32_" fill="none" stroke="#00ABEB" stroke-width="0.7" stroke-miterlimit="10" x1="36.221" y1="127.545" x2="36.221" y2="-42.87"/>
				
					<line id="_x33_" fill="none" stroke="#00ABEB" stroke-width="0.7" stroke-miterlimit="10" x1="64.567" y1="127.545" x2="64.567" y2="-42.87"/>
				
					<line id="_x34_" fill="none" stroke="#00ABEB" stroke-width="0.7" stroke-miterlimit="10" x1="92.913" y1="127.545" x2="92.913" y2="-42.87"/>
				
					<line id="_x35_" fill="none" stroke="#00ABEB" stroke-width="0.7" stroke-miterlimit="10" x1="121.26" y1="127.545" x2="121.26" y2="-42.87"/>
				
					<line id="_x36_" fill="none" stroke="#00ABEB" stroke-width="0.7" stroke-miterlimit="10" x1="149.606" y1="127.545" x2="149.606" y2="-42.87"/>
				
					<line id="_x37_" fill="none" stroke="#00ABEB" stroke-width="0.7" stroke-miterlimit="10" x1="177.953" y1="127.545" x2="177.953" y2="-42.87"/>
				
					<line id="_x38_" fill="none" stroke="#00ABEB" stroke-width="0.7" stroke-miterlimit="10" x1="206.299" y1="127.545" x2="206.299" y2="-42.87"/>
			</g>
		</g>
	</g>
</g>
<g id="Layer_3">
	<g>
		<g>
			<defs>
				<rect id="SVGID_00000179621026866135442940000004108222582968194689_" x="-3.894" y="5.239" width="55.716" height="41.854"/>
			</defs>
			<clipPath id="SVGID_00000138542465254166406430000010493048684856964998_">
				<use xlink:href="#SVGID_00000179621026866135442940000004108222582968194689_"  overflow="visible"/>
			</clipPath>
		</g>
	</g>
</g>
<g id="Layer_2">
	<g>
		<g>
			<line fill="none" stroke="#000000" stroke-width="0.21" stroke-miterlimit="10" x1="7.868" y1="2.185" x2="7.868" y2="42.506"/>
			<g>
				<polygon points="7.09,2.775 7.868,2.445 8.646,2.775 7.868,0.932 				"/>
			</g>
		</g>
	</g>
	<g>
		<g>
			
				<line fill="none" stroke="#000000" stroke-width="0.21" stroke-miterlimit="10" x1="49.141" y1="42.506" x2="7.868" y2="42.506"/>
			<g>
				<polygon points="48.551,41.728 48.881,42.506 48.551,43.283 50.394,42.506 				"/>
			</g>
		</g>
	</g>
	<g>
		<path d="M49.428,45.394c-0.325,0.495-0.456,0.595-0.691,0.595c-0.15,0-0.24-0.085-0.24-0.24c0-0.11,0.065-0.445,0.225-0.986
			C48.132,45.734,47.881,46,47.526,46c-0.175,0-0.265-0.08-0.265-0.266c0-0.095,0.045-0.275,0.135-0.641l0.175-0.695
			c0.04-0.165,0.07-0.295,0.07-0.335c0-0.035-0.025-0.075-0.055-0.09c-0.045-0.025-0.06-0.03-0.25-0.03v-0.07
			c0.286-0.035,0.465-0.07,0.751-0.135l0.02,0.015l-0.445,1.776c-0.005,0.015-0.015,0.06-0.015,0.08c0,0.075,0.025,0.125,0.1,0.125
			c0.17,0,0.4-0.265,0.71-0.735c0.235-0.355,0.305-0.546,0.551-1.216h0.37l-0.395,1.497c-0.025,0.095-0.095,0.33-0.095,0.39
			c0,0.055,0.02,0.085,0.055,0.085c0.08,0,0.16-0.07,0.415-0.406L49.428,45.394z"/>
	</g>
	<g>
		<path d="M5.014,2.972C5.374,2.602,5.7,2.051,5.7,1.816c0-0.05-0.025-0.085-0.09-0.146C5.52,1.59,5.485,1.525,5.485,1.445
			c0-0.105,0.085-0.17,0.19-0.17c0.165,0,0.28,0.16,0.28,0.295c0,0.215-0.141,0.505-0.315,0.775
			C5.414,2.697,5.134,3.017,5.044,3.112c-0.275,0.295-0.41,0.461-0.496,0.461c-0.03,0-0.045-0.05-0.045-0.135v-0.12
			c0-0.345-0.055-1.011-0.12-1.392S4.263,1.46,4.078,1.46c-0.05,0-0.1,0-0.155,0.005V1.4c0.225-0.035,0.4-0.07,0.561-0.105
			c0.04-0.015,0.075-0.02,0.1-0.02c0.045,0,0.045,0.03,0.15,0.57c0.065,0.335,0.095,0.611,0.125,1.287L5.014,2.972z"/>
	</g>
	<g>
		<path d="M6.43,12.452c0.015,0,0.025,0.015,0.025,0.035c0,0.025-0.01,0.075-0.03,0.145l-0.716,2.598
			c-0.035,0.125-0.09,0.32-0.09,0.37c0,0.115,0.11,0.16,0.33,0.16h0.105v0.075H4.658V15.76c0.395-0.03,0.505-0.085,0.561-0.275
			L5.9,13.042c0.025-0.095,0.04-0.146,0.04-0.181c0-0.095-0.065-0.155-0.175-0.155H5.749c-0.09,0-0.2,0.005-0.295,0.01v-0.075
			l0.115-0.025c0.44-0.095,0.46-0.085,0.846-0.165H6.43z"/>
	</g>
	<g>
		<path d="M36.653,43.708c0.015,0,0.025,0.015,0.025,0.035c0,0.025-0.01,0.075-0.03,0.145l-0.716,2.598
			c-0.035,0.125-0.09,0.32-0.09,0.37c0,0.115,0.11,0.16,0.33,0.16h0.105v0.075h-1.396v-0.075c0.395-0.03,0.505-0.085,0.561-0.275
			l0.681-2.442c0.025-0.095,0.04-0.146,0.04-0.181c0-0.095-0.065-0.155-0.175-0.155h-0.015c-0.09,0-0.2,0.005-0.295,0.01v-0.075
			l0.115-0.025c0.44-0.095,0.46-0.085,0.846-0.165H36.653z"/>
	</g>
	<g>
		<path fill="#0000FF" d="M18.187,26.187c-0.255,0.07-0.436,0.125-0.686,0.225l-0.025-0.015v-0.41h-0.01
			c-0.245,0.335-0.53,0.431-0.716,0.431c-0.385,0-0.61-0.255-0.61-0.641v-1.256c0-0.25-0.07-0.32-0.311-0.335v-0.07h0.731v1.617
			c0,0.23,0.16,0.396,0.355,0.396c0.146,0,0.295-0.045,0.421-0.155c0.08-0.07,0.115-0.115,0.115-0.29v-1.156
			c0-0.265-0.07-0.305-0.37-0.325v-0.085h0.791v1.717c0,0.23,0.055,0.285,0.285,0.285h0.03V26.187z"/>
		<path fill="#0000FF" d="M18.525,24.766v-0.331h2.948v0.331H18.525z M18.525,25.767v-0.331h2.948v0.331H18.525z"/>
		<path fill="#0000FF" d="M24.096,24.19c-0.15,0.015-0.19,0.055-0.325,0.391l-0.641,1.606c-0.075,0.185-0.11,0.25-0.14,0.25
			s-0.055-0.04-0.09-0.13c-0.015-0.025-0.021-0.06-0.04-0.105l-0.601-1.437c-0.215-0.516-0.266-0.565-0.456-0.576v-0.075h0.981
			v0.075c-0.17,0.015-0.23,0.05-0.23,0.135c0,0.05,0.015,0.115,0.045,0.19l0.511,1.281l0.496-1.296c0.02-0.05,0.03-0.1,0.03-0.15
			c0-0.095-0.075-0.145-0.235-0.16v-0.075h0.696V24.19z"/>
	</g>
	<g>
		<path fill="#0000FF" d="M39.394,28.437c-0.255,0.07-0.436,0.125-0.686,0.225l-0.025-0.015v-0.41h-0.01
			c-0.245,0.335-0.53,0.431-0.716,0.431c-0.385,0-0.61-0.255-0.61-0.641v-1.256c0-0.25-0.07-0.32-0.311-0.335v-0.07h0.731v1.617
			c0,0.23,0.16,0.396,0.355,0.396c0.146,0,0.295-0.045,0.421-0.155c0.08-0.07,0.115-0.115,0.115-0.29v-1.156
			c0-0.265-0.07-0.305-0.37-0.325v-0.085h0.791v1.717c0,0.23,0.055,0.285,0.285,0.285h0.03V28.437z"/>
		<path fill="#0000FF" d="M39.732,27.016v-0.331h2.948v0.331H39.732z M39.732,28.017v-0.331h2.948v0.331H39.732z"/>
		<path fill="#0000FF" d="M43.507,28.618v-0.075c0.37-0.02,0.475-0.125,0.475-0.4v-2.247c0-0.17-0.045-0.245-0.15-0.245
			c-0.05,0-0.135,0.025-0.226,0.06l-0.135,0.05v-0.07l0.896-0.456l0.045,0.015v2.988c0,0.215,0.1,0.305,0.475,0.305v0.075H43.507z"
			/>
	</g>
	<g>
		<path d="M3.096,46.27c-0.255,0.07-0.436,0.125-0.686,0.225L2.385,46.48v-0.41h-0.01C2.13,46.405,1.844,46.5,1.659,46.5
			c-0.385,0-0.61-0.255-0.61-0.641v-1.256c0-0.25-0.07-0.32-0.311-0.335v-0.07h0.731v1.617c0,0.23,0.16,0.396,0.355,0.396
			c0.145,0,0.295-0.045,0.42-0.155c0.08-0.07,0.115-0.115,0.115-0.29v-1.156c0-0.265-0.07-0.305-0.37-0.325v-0.085H2.78v1.717
			c0,0.23,0.055,0.285,0.286,0.285h0.03V46.27z"/>
		<path d="M3.434,44.849v-0.331h2.948v0.331H3.434z M3.434,45.85v-0.331h2.948v0.331H3.434z"/>
		<path d="M9.006,44.273c-0.15,0.015-0.19,0.055-0.325,0.391L8.04,46.27c-0.075,0.185-0.11,0.25-0.14,0.25s-0.055-0.04-0.09-0.13
			c-0.015-0.025-0.02-0.06-0.04-0.105l-0.601-1.437c-0.215-0.516-0.265-0.565-0.455-0.576v-0.075h0.981v0.075
			c-0.17,0.015-0.23,0.05-0.23,0.135c0,0.05,0.015,0.115,0.045,0.19l0.51,1.281l0.496-1.296c0.02-0.05,0.03-0.1,0.03-0.15
			c0-0.095-0.075-0.145-0.235-0.16v-0.075h0.695V44.273z"/>
		<path d="M9.359,44.849v-0.331h2.948v0.331H9.359z M9.359,45.85v-0.331h2.948v0.331H9.359z"/>
		<path d="M13.795,46.52c-0.856,0-1.131-0.931-1.131-1.751c0-0.886,0.345-1.702,1.151-1.702c0.656,0,1.111,0.706,1.111,1.731
			C14.925,45.66,14.61,46.52,13.795,46.52z M13.784,43.197c-0.416,0-0.641,0.591-0.641,1.607s0.22,1.586,0.651,1.586
			c0.425,0,0.65-0.576,0.65-1.566C14.445,43.783,14.225,43.197,13.784,43.197z"/>
	</g>
	<g>
		<g>
			<line fill="none" stroke="#00FF00" stroke-width="0.1" stroke-miterlimit="10" x1="44.725" y1="5.669" x2="44.548" y2="5.846"/>
			
				<line fill="none" stroke="#00FF00" stroke-width="0.1" stroke-miterlimit="10" stroke-dasharray="0.4962,0.9925" x1="43.846" y1="6.547" x2="8.396" y2="41.978"/>
			<line fill="none" stroke="#00FF00" stroke-width="0.1" stroke-miterlimit="10" x1="8.045" y1="42.329" x2="7.868" y2="42.506"/>
		</g>
	</g>
	<line fill="none" stroke="#00FF00" stroke-width="0.1" stroke-miterlimit="10" x1="36.34" y1="5.669" x2="36.34" y2="42.506"/>
</g>
<g id="Layer_4">
	
		<polygon opacity="0.5" fill="#DCDCDC" stroke="#0000FF" stroke-width="0.5" stroke-linecap="round" stroke-linejoin="round" stroke-miterlimit="10" points="
		36.34,14.049 7.867,42.506 7.873,42.506 36.22,42.506 36.34,42.506 	"/>
	<circle cx="7.867" cy="42.506" r="0.518"/>
	<g>
		<path fill="#0000FF" d="M23.3,39.526c-0.15,0.015-0.19,0.055-0.325,0.391l-0.641,1.606c-0.075,0.185-0.11,0.25-0.14,0.25
			s-0.055-0.04-0.09-0.13c-0.015-0.025-0.021-0.06-0.04-0.105l-0.601-1.437c-0.215-0.516-0.266-0.565-0.456-0.576v-0.075h0.981
			v0.075c-0.17,0.015-0.23,0.05-0.23,0.135c0,0.05,0.015,0.115,0.045,0.19l0.511,1.281l0.496-1.296c0.02-0.05,0.03-0.1,0.03-0.15
			c0-0.095-0.075-0.145-0.235-0.16v-0.075H23.3V39.526z"/>
		<path fill="#0000FF" d="M23.653,40.102v-0.331h2.948v0.331H23.653z M23.653,41.103v-0.331h2.948v0.331H23.653z"/>
		<path fill="#0000FF" d="M28.089,41.773c-0.855,0-1.131-0.931-1.131-1.751c0-0.886,0.345-1.702,1.151-1.702
			c0.655,0,1.111,0.706,1.111,1.731C29.22,40.913,28.905,41.773,28.089,41.773z M28.079,38.45c-0.416,0-0.641,0.591-0.641,1.607
			s0.22,1.586,0.65,1.586c0.426,0,0.651-0.576,0.651-1.566C28.74,39.036,28.52,38.45,28.079,38.45z"/>
	</g>
	<g>
	</g>
</g>
</svg>
