<?xml version="1.0" encoding="utf-8"?>
<!-- Generator: Adobe Illustrator 25.4.1, SVG Export Plug-In . SVG Version: 6.00 Build 0)  -->
<svg version="1.1" xmlns="http://www.w3.org/2000/svg" xmlns:xlink="http://www.w3.org/1999/xlink" x="0px" y="0px"
	 viewBox="0 0 104.319 84.975" enable-background="new 0 0 104.319 84.975" xml:space="preserve">
<g id="Layer_4" opacity="0.5">
	<g id="Clipped_grid">
		<defs>
			<rect id="SVGID_1_" x="-1.957" y="-0.865" width="107.632" height="87.166"/>
		</defs>
		<clipPath id="SVGID_00000074427207882123192070000011751256490394310836_">
			<use xlink:href="#SVGID_1_"  overflow="visible"/>
		</clipPath>
		<g id="Grid" opacity="0.25" clip-path="url(#SVGID_00000074427207882123192070000011751256490394310836_)">
			<g id="Horizontal_1_mm">
				
					<line fill="none" stroke="#00ABEB" stroke-width="0.15" stroke-miterlimit="10" x1="-74.189" y1="-6.255" x2="152.652" y2="-6.255"/>
				
					<line fill="none" stroke="#00ABEB" stroke-width="0.15" stroke-miterlimit="10" x1="-74.189" y1="-9.09" x2="152.652" y2="-9.09"/>
				
					<line fill="none" stroke="#00ABEB" stroke-width="0.15" stroke-miterlimit="10" x1="-74.189" y1="160.989" x2="152.652" y2="160.989"/>
				
					<line fill="none" stroke="#00ABEB" stroke-width="0.15" stroke-miterlimit="10" x1="-74.189" y1="158.154" x2="152.652" y2="158.154"/>
				
					<line fill="none" stroke="#00ABEB" stroke-width="0.15" stroke-miterlimit="10" x1="-74.189" y1="155.32" x2="152.652" y2="155.32"/>
				
					<line fill="none" stroke="#00ABEB" stroke-width="0.15" stroke-miterlimit="10" x1="-74.189" y1="152.485" x2="152.652" y2="152.485"/>
				
					<line fill="none" stroke="#00ABEB" stroke-width="0.15" stroke-miterlimit="10" x1="-74.189" y1="149.65" x2="152.652" y2="149.65"/>
				
					<line fill="none" stroke="#00ABEB" stroke-width="0.15" stroke-miterlimit="10" x1="-74.189" y1="146.816" x2="152.652" y2="146.816"/>
				
					<line fill="none" stroke="#00ABEB" stroke-width="0.15" stroke-miterlimit="10" x1="-74.189" y1="143.981" x2="152.652" y2="143.981"/>
				
					<line fill="none" stroke="#00ABEB" stroke-width="0.15" stroke-miterlimit="10" x1="-74.189" y1="141.147" x2="152.652" y2="141.147"/>
				
					<line fill="none" stroke="#00ABEB" stroke-width="0.15" stroke-miterlimit="10" x1="-74.189" y1="138.312" x2="152.652" y2="138.312"/>
				
					<line fill="none" stroke="#00ABEB" stroke-width="0.15" stroke-miterlimit="10" x1="-74.189" y1="135.477" x2="152.652" y2="135.477"/>
				
					<line fill="none" stroke="#00ABEB" stroke-width="0.15" stroke-miterlimit="10" x1="-74.189" y1="132.643" x2="152.652" y2="132.643"/>
				
					<line fill="none" stroke="#00ABEB" stroke-width="0.15" stroke-miterlimit="10" x1="-74.189" y1="129.808" x2="152.652" y2="129.808"/>
				
					<line fill="none" stroke="#00ABEB" stroke-width="0.15" stroke-miterlimit="10" x1="-74.189" y1="126.973" x2="152.652" y2="126.973"/>
				
					<line fill="none" stroke="#00ABEB" stroke-width="0.15" stroke-miterlimit="10" x1="-74.189" y1="124.139" x2="152.652" y2="124.139"/>
				
					<line fill="none" stroke="#00ABEB" stroke-width="0.15" stroke-miterlimit="10" x1="-74.189" y1="121.304" x2="152.652" y2="121.304"/>
				
					<line fill="none" stroke="#00ABEB" stroke-width="0.15" stroke-miterlimit="10" x1="-74.189" y1="118.469" x2="152.652" y2="118.469"/>
				
					<line fill="none" stroke="#00ABEB" stroke-width="0.15" stroke-miterlimit="10" x1="-74.189" y1="115.635" x2="152.652" y2="115.635"/>
				
					<line fill="none" stroke="#00ABEB" stroke-width="0.15" stroke-miterlimit="10" x1="-74.189" y1="112.8" x2="152.652" y2="112.8"/>
				
					<line fill="none" stroke="#00ABEB" stroke-width="0.15" stroke-miterlimit="10" x1="-74.189" y1="109.965" x2="152.652" y2="109.965"/>
				
					<line fill="none" stroke="#00ABEB" stroke-width="0.15" stroke-miterlimit="10" x1="-74.189" y1="107.131" x2="152.652" y2="107.131"/>
				
					<line fill="none" stroke="#00ABEB" stroke-width="0.15" stroke-miterlimit="10" x1="-74.189" y1="104.296" x2="152.652" y2="104.296"/>
				
					<line fill="none" stroke="#00ABEB" stroke-width="0.15" stroke-miterlimit="10" x1="-74.189" y1="101.461" x2="152.652" y2="101.461"/>
				
					<line fill="none" stroke="#00ABEB" stroke-width="0.15" stroke-miterlimit="10" x1="-74.189" y1="98.627" x2="152.652" y2="98.627"/>
				
					<line fill="none" stroke="#00ABEB" stroke-width="0.15" stroke-miterlimit="10" x1="-74.189" y1="95.792" x2="152.652" y2="95.792"/>
				
					<line fill="none" stroke="#00ABEB" stroke-width="0.15" stroke-miterlimit="10" x1="-74.189" y1="92.958" x2="152.652" y2="92.958"/>
				
					<line fill="none" stroke="#00ABEB" stroke-width="0.15" stroke-miterlimit="10" x1="-74.189" y1="90.123" x2="152.652" y2="90.123"/>
				
					<line fill="none" stroke="#00ABEB" stroke-width="0.15" stroke-miterlimit="10" x1="-74.189" y1="87.288" x2="152.652" y2="87.288"/>
				
					<line fill="none" stroke="#00ABEB" stroke-width="0.15" stroke-miterlimit="10" x1="-74.189" y1="84.454" x2="152.652" y2="84.454"/>
				
					<line fill="none" stroke="#00ABEB" stroke-width="0.15" stroke-miterlimit="10" x1="-74.189" y1="81.619" x2="152.652" y2="81.619"/>
				
					<line fill="none" stroke="#00ABEB" stroke-width="0.15" stroke-miterlimit="10" x1="-74.189" y1="78.784" x2="152.652" y2="78.784"/>
				
					<line fill="none" stroke="#00ABEB" stroke-width="0.15" stroke-miterlimit="10" x1="-74.189" y1="75.95" x2="152.652" y2="75.95"/>
				
					<line fill="none" stroke="#00ABEB" stroke-width="0.15" stroke-miterlimit="10" x1="-74.189" y1="73.115" x2="152.652" y2="73.115"/>
				
					<line fill="none" stroke="#00ABEB" stroke-width="0.15" stroke-miterlimit="10" x1="-74.189" y1="70.28" x2="152.652" y2="70.28"/>
				
					<line fill="none" stroke="#00ABEB" stroke-width="0.15" stroke-miterlimit="10" x1="-74.189" y1="67.446" x2="152.652" y2="67.446"/>
				
					<line fill="none" stroke="#00ABEB" stroke-width="0.15" stroke-miterlimit="10" x1="-74.189" y1="64.611" x2="152.652" y2="64.611"/>
				
					<line fill="none" stroke="#00ABEB" stroke-width="0.15" stroke-miterlimit="10" x1="-74.189" y1="61.776" x2="152.652" y2="61.776"/>
				
					<line fill="none" stroke="#00ABEB" stroke-width="0.15" stroke-miterlimit="10" x1="-74.189" y1="58.942" x2="152.652" y2="58.942"/>
				
					<line fill="none" stroke="#00ABEB" stroke-width="0.15" stroke-miterlimit="10" x1="-74.189" y1="56.107" x2="152.652" y2="56.107"/>
				
					<line fill="none" stroke="#00ABEB" stroke-width="0.15" stroke-miterlimit="10" x1="-74.189" y1="53.272" x2="152.652" y2="53.272"/>
				
					<line fill="none" stroke="#00ABEB" stroke-width="0.15" stroke-miterlimit="10" x1="-74.189" y1="50.438" x2="152.652" y2="50.438"/>
				
					<line fill="none" stroke="#00ABEB" stroke-width="0.15" stroke-miterlimit="10" x1="-74.189" y1="47.603" x2="152.652" y2="47.603"/>
				
					<line fill="none" stroke="#00ABEB" stroke-width="0.15" stroke-miterlimit="10" x1="-74.189" y1="44.769" x2="152.652" y2="44.769"/>
				
					<line fill="none" stroke="#00ABEB" stroke-width="0.15" stroke-miterlimit="10" x1="-74.189" y1="41.934" x2="152.652" y2="41.934"/>
				
					<line fill="none" stroke="#00ABEB" stroke-width="0.15" stroke-miterlimit="10" x1="-74.189" y1="39.099" x2="152.652" y2="39.099"/>
				
					<line fill="none" stroke="#00ABEB" stroke-width="0.15" stroke-miterlimit="10" x1="-74.189" y1="36.265" x2="152.652" y2="36.265"/>
				
					<line fill="none" stroke="#00ABEB" stroke-width="0.15" stroke-miterlimit="10" x1="-74.189" y1="33.43" x2="152.652" y2="33.43"/>
				
					<line fill="none" stroke="#00ABEB" stroke-width="0.15" stroke-miterlimit="10" x1="-74.189" y1="30.595" x2="152.652" y2="30.595"/>
				
					<line fill="none" stroke="#00ABEB" stroke-width="0.15" stroke-miterlimit="10" x1="-74.189" y1="27.761" x2="152.652" y2="27.761"/>
				
					<line fill="none" stroke="#00ABEB" stroke-width="0.15" stroke-miterlimit="10" x1="-74.189" y1="24.926" x2="152.652" y2="24.926"/>
				
					<line fill="none" stroke="#00ABEB" stroke-width="0.15" stroke-miterlimit="10" x1="-74.189" y1="22.091" x2="152.652" y2="22.091"/>
				
					<line fill="none" stroke="#00ABEB" stroke-width="0.15" stroke-miterlimit="10" x1="-74.189" y1="19.257" x2="152.652" y2="19.257"/>
				
					<line fill="none" stroke="#00ABEB" stroke-width="0.15" stroke-miterlimit="10" x1="-74.189" y1="16.422" x2="152.652" y2="16.422"/>
				
					<line fill="none" stroke="#00ABEB" stroke-width="0.15" stroke-miterlimit="10" x1="-74.189" y1="13.587" x2="152.652" y2="13.587"/>
				
					<line fill="none" stroke="#00ABEB" stroke-width="0.15" stroke-miterlimit="10" x1="-74.189" y1="10.753" x2="152.652" y2="10.753"/>
				
					<line fill="none" stroke="#00ABEB" stroke-width="0.15" stroke-miterlimit="10" x1="-74.189" y1="7.918" x2="152.652" y2="7.918"/>
				
					<line fill="none" stroke="#00ABEB" stroke-width="0.15" stroke-miterlimit="10" x1="-74.189" y1="5.084" x2="152.652" y2="5.084"/>
				
					<line fill="none" stroke="#00ABEB" stroke-width="0.15" stroke-miterlimit="10" x1="-74.189" y1="2.249" x2="152.652" y2="2.249"/>
				
					<line fill="none" stroke="#00ABEB" stroke-width="0.15" stroke-miterlimit="10" x1="-74.189" y1="-0.586" x2="152.652" y2="-0.586"/>
				
					<line fill="none" stroke="#00ABEB" stroke-width="0.15" stroke-miterlimit="10" x1="-74.189" y1="-3.42" x2="152.652" y2="-3.42"/>
			</g>
			<g id="Vertical_1_mm">
				<g>
					
						<line fill="none" stroke="#00ABEB" stroke-width="0.15" stroke-miterlimit="10" x1="-74.114" y1="160.975" x2="-74.114" y2="-9.165"/>
				</g>
				
					<line fill="none" stroke="#00ABEB" stroke-width="0.15" stroke-miterlimit="10" x1="-71.28" y1="160.975" x2="-71.28" y2="-9.165"/>
				
					<line fill="none" stroke="#00ABEB" stroke-width="0.15" stroke-miterlimit="10" x1="-68.445" y1="160.975" x2="-68.445" y2="-9.165"/>
				
					<line fill="none" stroke="#00ABEB" stroke-width="0.15" stroke-miterlimit="10" x1="-65.61" y1="160.975" x2="-65.61" y2="-9.165"/>
				
					<line fill="none" stroke="#00ABEB" stroke-width="0.15" stroke-miterlimit="10" x1="-62.776" y1="160.975" x2="-62.776" y2="-9.165"/>
				
					<line fill="none" stroke="#00ABEB" stroke-width="0.15" stroke-miterlimit="10" x1="-59.941" y1="160.975" x2="-59.941" y2="-9.165"/>
				
					<line fill="none" stroke="#00ABEB" stroke-width="0.15" stroke-miterlimit="10" x1="-57.106" y1="160.975" x2="-57.106" y2="-9.165"/>
				
					<line fill="none" stroke="#00ABEB" stroke-width="0.15" stroke-miterlimit="10" x1="-54.272" y1="160.975" x2="-54.272" y2="-9.165"/>
				
					<line fill="none" stroke="#00ABEB" stroke-width="0.15" stroke-miterlimit="10" x1="-51.437" y1="160.975" x2="-51.437" y2="-9.165"/>
				
					<line fill="none" stroke="#00ABEB" stroke-width="0.15" stroke-miterlimit="10" x1="-48.603" y1="160.975" x2="-48.603" y2="-9.165"/>
				
					<line fill="none" stroke="#00ABEB" stroke-width="0.15" stroke-miterlimit="10" x1="-45.768" y1="160.975" x2="-45.768" y2="-9.165"/>
				
					<line fill="none" stroke="#00ABEB" stroke-width="0.15" stroke-miterlimit="10" x1="-42.933" y1="160.975" x2="-42.933" y2="-9.165"/>
				
					<line fill="none" stroke="#00ABEB" stroke-width="0.15" stroke-miterlimit="10" x1="-40.099" y1="160.975" x2="-40.099" y2="-9.165"/>
				
					<line fill="none" stroke="#00ABEB" stroke-width="0.15" stroke-miterlimit="10" x1="-37.264" y1="160.975" x2="-37.264" y2="-9.165"/>
				
					<line fill="none" stroke="#00ABEB" stroke-width="0.15" stroke-miterlimit="10" x1="-34.429" y1="160.975" x2="-34.429" y2="-9.165"/>
				
					<line fill="none" stroke="#00ABEB" stroke-width="0.15" stroke-miterlimit="10" x1="-31.595" y1="160.975" x2="-31.595" y2="-9.165"/>
				
					<line fill="none" stroke="#00ABEB" stroke-width="0.15" stroke-miterlimit="10" x1="-28.76" y1="160.975" x2="-28.76" y2="-9.165"/>
				
					<line fill="none" stroke="#00ABEB" stroke-width="0.15" stroke-miterlimit="10" x1="-25.925" y1="160.975" x2="-25.925" y2="-9.165"/>
				
					<line fill="none" stroke="#00ABEB" stroke-width="0.15" stroke-miterlimit="10" x1="-23.091" y1="160.975" x2="-23.091" y2="-9.165"/>
				
					<line fill="none" stroke="#00ABEB" stroke-width="0.15" stroke-miterlimit="10" x1="-20.256" y1="160.975" x2="-20.256" y2="-9.165"/>
				
					<line fill="none" stroke="#00ABEB" stroke-width="0.15" stroke-miterlimit="10" x1="-17.421" y1="160.975" x2="-17.421" y2="-9.165"/>
				
					<line fill="none" stroke="#00ABEB" stroke-width="0.15" stroke-miterlimit="10" x1="-14.587" y1="160.975" x2="-14.587" y2="-9.165"/>
				
					<line fill="none" stroke="#00ABEB" stroke-width="0.15" stroke-miterlimit="10" x1="-11.752" y1="160.975" x2="-11.752" y2="-9.165"/>
				
					<line fill="none" stroke="#00ABEB" stroke-width="0.15" stroke-miterlimit="10" x1="-8.917" y1="160.975" x2="-8.917" y2="-9.165"/>
				
					<line fill="none" stroke="#00ABEB" stroke-width="0.15" stroke-miterlimit="10" x1="-6.083" y1="160.975" x2="-6.083" y2="-9.165"/>
				
					<line fill="none" stroke="#00ABEB" stroke-width="0.15" stroke-miterlimit="10" x1="-3.248" y1="160.975" x2="-3.248" y2="-9.165"/>
				
					<line fill="none" stroke="#00ABEB" stroke-width="0.15" stroke-miterlimit="10" x1="-0.414" y1="160.975" x2="-0.414" y2="-9.165"/>
				
					<line fill="none" stroke="#00ABEB" stroke-width="0.15" stroke-miterlimit="10" x1="2.421" y1="160.975" x2="2.421" y2="-9.165"/>
				
					<line fill="none" stroke="#00ABEB" stroke-width="0.15" stroke-miterlimit="10" x1="5.256" y1="160.975" x2="5.256" y2="-9.165"/>
				<line fill="none" stroke="#00ABEB" stroke-width="0.15" stroke-miterlimit="10" x1="8.09" y1="160.975" x2="8.09" y2="-9.165"/>
				
					<line fill="none" stroke="#00ABEB" stroke-width="0.15" stroke-miterlimit="10" x1="10.925" y1="160.975" x2="10.925" y2="-9.165"/>
				
					<line fill="none" stroke="#00ABEB" stroke-width="0.15" stroke-miterlimit="10" x1="13.76" y1="160.975" x2="13.76" y2="-9.165"/>
				
					<line fill="none" stroke="#00ABEB" stroke-width="0.15" stroke-miterlimit="10" x1="16.594" y1="160.975" x2="16.594" y2="-9.165"/>
				
					<line fill="none" stroke="#00ABEB" stroke-width="0.15" stroke-miterlimit="10" x1="19.429" y1="160.975" x2="19.429" y2="-9.165"/>
				
					<line fill="none" stroke="#00ABEB" stroke-width="0.15" stroke-miterlimit="10" x1="22.264" y1="160.975" x2="22.264" y2="-9.165"/>
				
					<line fill="none" stroke="#00ABEB" stroke-width="0.15" stroke-miterlimit="10" x1="25.098" y1="160.975" x2="25.098" y2="-9.165"/>
				
					<line fill="none" stroke="#00ABEB" stroke-width="0.15" stroke-miterlimit="10" x1="27.933" y1="160.975" x2="27.933" y2="-9.165"/>
				
					<line fill="none" stroke="#00ABEB" stroke-width="0.15" stroke-miterlimit="10" x1="30.768" y1="160.975" x2="30.768" y2="-9.165"/>
				
					<line fill="none" stroke="#00ABEB" stroke-width="0.15" stroke-miterlimit="10" x1="33.602" y1="160.975" x2="33.602" y2="-9.165"/>
				
					<line fill="none" stroke="#00ABEB" stroke-width="0.15" stroke-miterlimit="10" x1="36.437" y1="160.975" x2="36.437" y2="-9.165"/>
				
					<line fill="none" stroke="#00ABEB" stroke-width="0.15" stroke-miterlimit="10" x1="39.271" y1="160.975" x2="39.271" y2="-9.165"/>
				
					<line fill="none" stroke="#00ABEB" stroke-width="0.15" stroke-miterlimit="10" x1="42.106" y1="160.975" x2="42.106" y2="-9.165"/>
				
					<line fill="none" stroke="#00ABEB" stroke-width="0.15" stroke-miterlimit="10" x1="44.941" y1="160.975" x2="44.941" y2="-9.165"/>
				
					<line fill="none" stroke="#00ABEB" stroke-width="0.15" stroke-miterlimit="10" x1="47.775" y1="160.975" x2="47.775" y2="-9.165"/>
				
					<line fill="none" stroke="#00ABEB" stroke-width="0.15" stroke-miterlimit="10" x1="50.61" y1="160.975" x2="50.61" y2="-9.165"/>
				
					<line fill="none" stroke="#00ABEB" stroke-width="0.15" stroke-miterlimit="10" x1="53.445" y1="160.975" x2="53.445" y2="-9.165"/>
				
					<line fill="none" stroke="#00ABEB" stroke-width="0.15" stroke-miterlimit="10" x1="56.279" y1="160.975" x2="56.279" y2="-9.165"/>
				
					<line fill="none" stroke="#00ABEB" stroke-width="0.15" stroke-miterlimit="10" x1="59.114" y1="160.975" x2="59.114" y2="-9.165"/>
				
					<line fill="none" stroke="#00ABEB" stroke-width="0.15" stroke-miterlimit="10" x1="61.949" y1="160.975" x2="61.949" y2="-9.165"/>
				
					<line fill="none" stroke="#00ABEB" stroke-width="0.15" stroke-miterlimit="10" x1="64.783" y1="160.975" x2="64.783" y2="-9.165"/>
				
					<line fill="none" stroke="#00ABEB" stroke-width="0.15" stroke-miterlimit="10" x1="67.618" y1="160.975" x2="67.618" y2="-9.165"/>
				
					<line fill="none" stroke="#00ABEB" stroke-width="0.15" stroke-miterlimit="10" x1="70.453" y1="160.975" x2="70.453" y2="-9.165"/>
				
					<line fill="none" stroke="#00ABEB" stroke-width="0.15" stroke-miterlimit="10" x1="73.287" y1="160.975" x2="73.287" y2="-9.165"/>
				
					<line fill="none" stroke="#00ABEB" stroke-width="0.15" stroke-miterlimit="10" x1="76.122" y1="160.975" x2="76.122" y2="-9.165"/>
				
					<line fill="none" stroke="#00ABEB" stroke-width="0.15" stroke-miterlimit="10" x1="78.957" y1="160.975" x2="78.957" y2="-9.165"/>
				
					<line fill="none" stroke="#00ABEB" stroke-width="0.15" stroke-miterlimit="10" x1="81.791" y1="160.975" x2="81.791" y2="-9.165"/>
				
					<line fill="none" stroke="#00ABEB" stroke-width="0.15" stroke-miterlimit="10" x1="84.626" y1="160.975" x2="84.626" y2="-9.165"/>
				
					<line fill="none" stroke="#00ABEB" stroke-width="0.15" stroke-miterlimit="10" x1="87.46" y1="160.975" x2="87.46" y2="-9.165"/>
				
					<line fill="none" stroke="#00ABEB" stroke-width="0.15" stroke-miterlimit="10" x1="90.295" y1="160.975" x2="90.295" y2="-9.165"/>
				
					<line fill="none" stroke="#00ABEB" stroke-width="0.15" stroke-miterlimit="10" x1="93.13" y1="160.975" x2="93.13" y2="-9.165"/>
				
					<line fill="none" stroke="#00ABEB" stroke-width="0.15" stroke-miterlimit="10" x1="95.964" y1="160.975" x2="95.964" y2="-9.165"/>
				
					<line fill="none" stroke="#00ABEB" stroke-width="0.15" stroke-miterlimit="10" x1="98.799" y1="160.975" x2="98.799" y2="-9.165"/>
				
					<line fill="none" stroke="#00ABEB" stroke-width="0.15" stroke-miterlimit="10" x1="101.634" y1="160.975" x2="101.634" y2="-9.165"/>
				
					<line fill="none" stroke="#00ABEB" stroke-width="0.15" stroke-miterlimit="10" x1="104.468" y1="160.975" x2="104.468" y2="-9.165"/>
				
					<line fill="none" stroke="#00ABEB" stroke-width="0.15" stroke-miterlimit="10" x1="107.303" y1="160.975" x2="107.303" y2="-9.165"/>
				
					<line fill="none" stroke="#00ABEB" stroke-width="0.15" stroke-miterlimit="10" x1="110.138" y1="160.975" x2="110.138" y2="-9.165"/>
				
					<line fill="none" stroke="#00ABEB" stroke-width="0.15" stroke-miterlimit="10" x1="112.972" y1="160.975" x2="112.972" y2="-9.165"/>
				
					<line fill="none" stroke="#00ABEB" stroke-width="0.15" stroke-miterlimit="10" x1="115.807" y1="160.975" x2="115.807" y2="-9.165"/>
				
					<line fill="none" stroke="#00ABEB" stroke-width="0.15" stroke-miterlimit="10" x1="118.642" y1="160.975" x2="118.642" y2="-9.165"/>
				
					<line fill="none" stroke="#00ABEB" stroke-width="0.15" stroke-miterlimit="10" x1="121.476" y1="160.975" x2="121.476" y2="-9.165"/>
				
					<line fill="none" stroke="#00ABEB" stroke-width="0.15" stroke-miterlimit="10" x1="124.311" y1="160.975" x2="124.311" y2="-9.165"/>
				
					<line fill="none" stroke="#00ABEB" stroke-width="0.15" stroke-miterlimit="10" x1="127.146" y1="160.975" x2="127.146" y2="-9.165"/>
				
					<line fill="none" stroke="#00ABEB" stroke-width="0.15" stroke-miterlimit="10" x1="129.98" y1="160.975" x2="129.98" y2="-9.165"/>
				
					<line fill="none" stroke="#00ABEB" stroke-width="0.15" stroke-miterlimit="10" x1="132.815" y1="160.975" x2="132.815" y2="-9.165"/>
				
					<line fill="none" stroke="#00ABEB" stroke-width="0.15" stroke-miterlimit="10" x1="135.649" y1="160.975" x2="135.649" y2="-9.165"/>
				
					<line fill="none" stroke="#00ABEB" stroke-width="0.15" stroke-miterlimit="10" x1="138.484" y1="160.975" x2="138.484" y2="-9.165"/>
				
					<line fill="none" stroke="#00ABEB" stroke-width="0.15" stroke-miterlimit="10" x1="141.319" y1="160.975" x2="141.319" y2="-9.165"/>
				
					<line fill="none" stroke="#00ABEB" stroke-width="0.15" stroke-miterlimit="10" x1="144.153" y1="160.975" x2="144.153" y2="-9.165"/>
				
					<line fill="none" stroke="#00ABEB" stroke-width="0.15" stroke-miterlimit="10" x1="146.988" y1="160.975" x2="146.988" y2="-9.165"/>
				
					<line fill="none" stroke="#00ABEB" stroke-width="0.15" stroke-miterlimit="10" x1="149.823" y1="160.975" x2="149.823" y2="-9.165"/>
				
					<line fill="none" stroke="#00ABEB" stroke-width="0.15" stroke-miterlimit="10" x1="152.657" y1="160.975" x2="152.657" y2="-9.165"/>
			</g>
			<g id="Horizontal_5_mm_1_">
				
					<line fill="none" stroke="#00ABEB" stroke-width="0.3" stroke-miterlimit="10" x1="-74.464" y1="160.989" x2="152.652" y2="160.989"/>
				
					<line fill="none" stroke="#00ABEB" stroke-width="0.3" stroke-miterlimit="10" x1="-74.464" y1="146.816" x2="152.652" y2="146.816"/>
				
					<line fill="none" stroke="#00ABEB" stroke-width="0.3" stroke-miterlimit="10" x1="-74.464" y1="132.643" x2="152.652" y2="132.643"/>
				
					<line fill="none" stroke="#00ABEB" stroke-width="0.3" stroke-miterlimit="10" x1="-74.464" y1="118.469" x2="152.652" y2="118.469"/>
				
					<line fill="none" stroke="#00ABEB" stroke-width="0.3" stroke-miterlimit="10" x1="-74.464" y1="104.296" x2="152.652" y2="104.296"/>
				
					<line fill="none" stroke="#00ABEB" stroke-width="0.3" stroke-miterlimit="10" x1="-74.464" y1="90.123" x2="152.652" y2="90.123"/>
				
					<line fill="none" stroke="#00ABEB" stroke-width="0.3" stroke-miterlimit="10" x1="-74.464" y1="75.95" x2="152.652" y2="75.95"/>
				
					<line fill="none" stroke="#00ABEB" stroke-width="0.3" stroke-miterlimit="10" x1="-74.464" y1="61.776" x2="152.652" y2="61.776"/>
				
					<line fill="none" stroke="#00ABEB" stroke-width="0.3" stroke-miterlimit="10" x1="-74.464" y1="47.603" x2="152.652" y2="47.603"/>
				
					<line fill="none" stroke="#00ABEB" stroke-width="0.3" stroke-miterlimit="10" x1="-74.464" y1="33.43" x2="152.652" y2="33.43"/>
				
					<line fill="none" stroke="#00ABEB" stroke-width="0.3" stroke-miterlimit="10" x1="-74.464" y1="19.257" x2="152.652" y2="19.257"/>
			</g>
			<g id="Vertical_5_mm">
				
					<line fill="none" stroke="#00ABEB" stroke-width="0.3" stroke-miterlimit="10" x1="-74.114" y1="160.975" x2="-74.114" y2="-9.44"/>
				
					<line fill="none" stroke="#00ABEB" stroke-width="0.3" stroke-miterlimit="10" x1="-59.941" y1="160.975" x2="-59.941" y2="-9.44"/>
				
					<line fill="none" stroke="#00ABEB" stroke-width="0.3" stroke-miterlimit="10" x1="-45.768" y1="160.975" x2="-45.768" y2="-9.44"/>
				
					<line fill="none" stroke="#00ABEB" stroke-width="0.3" stroke-miterlimit="10" x1="-31.595" y1="160.975" x2="-31.595" y2="-9.44"/>
				
					<line fill="none" stroke="#00ABEB" stroke-width="0.3" stroke-miterlimit="10" x1="-17.421" y1="160.975" x2="-17.421" y2="-9.44"/>
				
					<line fill="none" stroke="#00ABEB" stroke-width="0.3" stroke-miterlimit="10" x1="-3.248" y1="160.975" x2="-3.248" y2="-9.44"/>
				
					<line fill="none" stroke="#00ABEB" stroke-width="0.3" stroke-miterlimit="10" x1="10.925" y1="160.975" x2="10.925" y2="-9.44"/>
				
					<line fill="none" stroke="#00ABEB" stroke-width="0.3" stroke-miterlimit="10" x1="25.098" y1="160.975" x2="25.098" y2="-9.44"/>
				
					<line fill="none" stroke="#00ABEB" stroke-width="0.3" stroke-miterlimit="10" x1="39.271" y1="160.975" x2="39.271" y2="-9.44"/>
				
					<line fill="none" stroke="#00ABEB" stroke-width="0.3" stroke-miterlimit="10" x1="53.445" y1="160.975" x2="53.445" y2="-9.44"/>
				
					<line fill="none" stroke="#00ABEB" stroke-width="0.3" stroke-miterlimit="10" x1="67.618" y1="160.975" x2="67.618" y2="-9.44"/>
				
					<line fill="none" stroke="#00ABEB" stroke-width="0.3" stroke-miterlimit="10" x1="81.791" y1="160.975" x2="81.791" y2="-9.44"/>
				
					<line fill="none" stroke="#00ABEB" stroke-width="0.3" stroke-miterlimit="10" x1="95.964" y1="160.975" x2="95.964" y2="-9.44"/>
				
					<line fill="none" stroke="#00ABEB" stroke-width="0.3" stroke-miterlimit="10" x1="110.138" y1="160.975" x2="110.138" y2="-9.44"/>
				
					<line fill="none" stroke="#00ABEB" stroke-width="0.3" stroke-miterlimit="10" x1="124.311" y1="160.975" x2="124.311" y2="-9.44"/>
				
					<line fill="none" stroke="#00ABEB" stroke-width="0.3" stroke-miterlimit="10" x1="138.484" y1="160.975" x2="138.484" y2="-9.44"/>
				
					<line fill="none" stroke="#00ABEB" stroke-width="0.3" stroke-miterlimit="10" x1="152.657" y1="160.975" x2="152.657" y2="-9.44"/>
			</g>
			<g id="Horizontal_10_mm">
				
					<line id="_x31_9_1_" fill="none" stroke="#00ABEB" stroke-width="0.7" stroke-miterlimit="10" x1="-74.464" y1="160.989" x2="152.652" y2="160.989"/>
				
					<line id="_x32_0" fill="none" stroke="#00ABEB" stroke-width="0.7" stroke-miterlimit="10" x1="-74.464" y1="132.643" x2="152.652" y2="132.643"/>
				
					<line id="_x32_1" fill="none" stroke="#00ABEB" stroke-width="0.7" stroke-miterlimit="10" x1="-74.464" y1="104.296" x2="152.652" y2="104.296"/>
				
					<line id="_x32_2" fill="none" stroke="#00ABEB" stroke-width="0.7" stroke-miterlimit="10" x1="-74.464" y1="75.95" x2="152.652" y2="75.95"/>
				
					<line id="_x32_3" fill="none" stroke="#00ABEB" stroke-width="0.7" stroke-miterlimit="10" x1="-74.464" y1="47.603" x2="152.652" y2="47.603"/>
				
					<line id="_x32_4" fill="none" stroke="#00ABEB" stroke-width="0.7" stroke-miterlimit="10" x1="-74.464" y1="19.257" x2="152.652" y2="19.257"/>
				
					<line id="_x32_5" fill="none" stroke="#00ABEB" stroke-width="0.7" stroke-miterlimit="10" x1="-74.464" y1="-9.09" x2="152.652" y2="-9.09"/>
			</g>
			<g id="Vertical_10_mm">
				
					<line id="_x30_" fill="none" stroke="#00ABEB" stroke-width="0.7" stroke-miterlimit="10" x1="-74.114" y1="160.975" x2="-74.114" y2="-9.44"/>
				
					<line id="_x31_" fill="none" stroke="#00ABEB" stroke-width="0.7" stroke-miterlimit="10" x1="-45.768" y1="160.975" x2="-45.768" y2="-9.44"/>
				
					<line id="_x32_" fill="none" stroke="#00ABEB" stroke-width="0.7" stroke-miterlimit="10" x1="-17.421" y1="160.975" x2="-17.421" y2="-9.44"/>
				
					<line id="_x33_" fill="none" stroke="#00ABEB" stroke-width="0.7" stroke-miterlimit="10" x1="10.925" y1="160.975" x2="10.925" y2="-9.44"/>
				
					<line id="_x34_" fill="none" stroke="#00ABEB" stroke-width="0.7" stroke-miterlimit="10" x1="39.271" y1="160.975" x2="39.271" y2="-9.44"/>
				
					<line id="_x35_" fill="none" stroke="#00ABEB" stroke-width="0.7" stroke-miterlimit="10" x1="67.618" y1="160.975" x2="67.618" y2="-9.44"/>
				
					<line id="_x36_" fill="none" stroke="#00ABEB" stroke-width="0.7" stroke-miterlimit="10" x1="95.964" y1="160.975" x2="95.964" y2="-9.44"/>
				
					<line id="_x37_" fill="none" stroke="#00ABEB" stroke-width="0.7" stroke-miterlimit="10" x1="124.311" y1="160.975" x2="124.311" y2="-9.44"/>
				
					<line id="_x38_" fill="none" stroke="#00ABEB" stroke-width="0.7" stroke-miterlimit="10" x1="152.657" y1="160.975" x2="152.657" y2="-9.44"/>
			</g>
		</g>
	</g>
</g>
<g id="one_solution">
	<g display="none">
		<g display="inline">
			<g>
				
					<line fill="none" stroke="#000000" stroke-width="0.25" stroke-linecap="round" stroke-linejoin="round" x1="22.896" y1="48.902" x2="22.896" y2="50.402"/>
				
					<line fill="none" stroke="#000000" stroke-width="0.25" stroke-linecap="round" stroke-linejoin="round" stroke-dasharray="2.6728,2.6728" x1="22.896" y1="53.075" x2="22.896" y2="73.121"/>
				
					<line fill="none" stroke="#000000" stroke-width="0.25" stroke-linecap="round" stroke-linejoin="round" x1="22.896" y1="74.457" x2="22.896" y2="75.957"/>
			</g>
		</g>
		<g display="inline">
			<g>
				
					<line fill="none" stroke="#000000" stroke-width="0.25" stroke-miterlimit="10" x1="22.896" y1="48.902" x2="21.396" y2="48.902"/>
				
					<line fill="none" stroke="#000000" stroke-width="0.25" stroke-miterlimit="10" stroke-dasharray="3.0246,3.0246" x1="18.371" y1="48.902" x2="13.834" y2="48.902"/>
				
					<line fill="none" stroke="#000000" stroke-width="0.25" stroke-miterlimit="10" x1="12.322" y1="48.902" x2="10.822" y2="48.902"/>
			</g>
		</g>
		<g display="inline">
			<path d="M6.844,50.145c0.85-1.409,1.219-2.129,1.219-2.568c0-0.14-0.07-0.2-0.26-0.32c-0.2-0.13-0.26-0.229-0.26-0.39
				c0-0.22,0.17-0.369,0.399-0.369c0.3,0,0.52,0.25,0.52,0.55c0,0.569-0.48,1.669-1.31,3.048c-1.039,1.719-2.109,2.868-2.678,2.868
				c-0.3,0-0.51-0.17-0.51-0.43c0-0.22,0.17-0.399,0.39-0.399c0.35,0,0.35,0.279,0.61,0.279c0.13,0,0.25-0.079,0.479-0.329
				c0.18-0.19,0.63-0.78,0.709-0.91c0.06-0.119,0.1-0.239,0.1-0.35c0-0.399-0.55-2.639-0.819-3.318c-0.19-0.489-0.37-0.64-0.77-0.64
				c-0.11,0-0.2,0.011-0.31,0.04v-0.17c0.11-0.02,0.22-0.04,0.32-0.06c0.2-0.04,0.53-0.1,1.069-0.18h0.04
				c0.15,0,0.68,1.659,0.85,2.548L6.844,50.145z"/>
		</g>
		<g display="inline">
			<path d="M22.79,80.745c0.699-1.069,1.069-1.429,1.509-1.429c0.24,0,0.41,0.149,0.41,0.369c0,0.21-0.14,0.36-0.34,0.36
				c-0.19,0-0.28-0.17-0.52-0.17c-0.18,0-0.54,0.439-0.979,1.209c0,0.07,0.02,0.21,0.08,0.45l0.32,1.339
				c0.07,0.28,0.16,0.41,0.3,0.41c0.13,0,0.24-0.101,0.47-0.4c0.09-0.12,0.13-0.18,0.21-0.279l0.15,0.09
				c-0.58,0.899-0.839,1.14-1.219,1.14c-0.32,0-0.47-0.181-0.59-0.68l-0.29-1.189l-0.88,1.189c-0.439,0.589-0.64,0.68-0.949,0.68
				c-0.31,0-0.5-0.16-0.5-0.42c0-0.2,0.14-0.36,0.34-0.36c0.09,0,0.19,0.04,0.32,0.11c0.1,0.06,0.2,0.09,0.26,0.09
				c0.11,0,0.3-0.189,0.51-0.49l0.82-1.159l-0.28-1.239c-0.14-0.6-0.21-0.68-0.46-0.68c-0.08,0-0.2,0.021-0.39,0.07l-0.18,0.05
				l-0.03-0.16l0.11-0.04c0.61-0.22,0.939-0.289,1.169-0.289c0.25,0,0.37,0.18,0.51,0.859L22.79,80.745z"/>
		</g>
	</g>
	<g id="Axis">
		<g>
			<g>
				
					<line fill="none" stroke="#000000" stroke-width="0.25" stroke-linecap="round" stroke-linejoin="round" x1="10.822" y1="75.957" x2="10.822" y2="2.861"/>
				<g>
					<polygon points="11.845,3.69 11.661,3.86 10.822,2.957 9.983,3.86 9.8,3.69 10.822,2.59 					"/>
				</g>
			</g>
		</g>
		<g>
			<g>
				
					<line fill="none" stroke="#000000" stroke-width="0.25" stroke-linecap="round" stroke-linejoin="round" x1="10.822" y1="75.957" x2="101.545" y2="75.957"/>
				<g>
					<polygon points="100.717,76.98 100.547,76.796 101.449,75.957 100.547,75.118 100.717,74.935 101.817,75.957 					"/>
				</g>
			</g>
		</g>
		<g>
			<path d="M96.046,79.991c0.699-1.069,1.069-1.429,1.509-1.429c0.24,0,0.41,0.149,0.41,0.369c0,0.21-0.14,0.36-0.34,0.36
				c-0.19,0-0.28-0.17-0.52-0.17c-0.18,0-0.54,0.439-0.979,1.209c0,0.07,0.02,0.21,0.08,0.45l0.32,1.339
				c0.07,0.28,0.16,0.41,0.3,0.41c0.13,0,0.24-0.101,0.47-0.4c0.09-0.12,0.13-0.18,0.21-0.279l0.15,0.09
				c-0.58,0.899-0.839,1.14-1.219,1.14c-0.32,0-0.47-0.181-0.59-0.68l-0.29-1.189l-0.88,1.189c-0.439,0.589-0.64,0.68-0.949,0.68
				c-0.31,0-0.5-0.16-0.5-0.42c0-0.2,0.14-0.36,0.34-0.36c0.09,0,0.19,0.04,0.32,0.11c0.1,0.06,0.2,0.09,0.26,0.09
				c0.11,0,0.3-0.189,0.51-0.49l0.82-1.159l-0.28-1.239c-0.14-0.6-0.21-0.68-0.46-0.68c-0.08,0-0.2,0.021-0.39,0.07l-0.18,0.05
				l-0.03-0.16l0.11-0.04c0.61-0.22,0.939-0.289,1.169-0.289c0.25,0,0.37,0.18,0.51,0.859L96.046,79.991z"/>
		</g>
		<g>
			<path d="M6.903,5.237c0.85-1.409,1.219-2.129,1.219-2.568c0-0.14-0.07-0.2-0.26-0.32c-0.2-0.13-0.26-0.229-0.26-0.39
				c0-0.22,0.17-0.369,0.399-0.369c0.3,0,0.52,0.25,0.52,0.55c0,0.569-0.48,1.669-1.31,3.048C6.173,6.906,5.104,8.055,4.534,8.055
				c-0.3,0-0.51-0.17-0.51-0.43c0-0.22,0.17-0.399,0.39-0.399c0.35,0,0.35,0.279,0.61,0.279c0.13,0,0.25-0.079,0.479-0.329
				c0.18-0.19,0.63-0.78,0.709-0.91c0.06-0.119,0.1-0.239,0.1-0.35c0-0.399-0.55-2.639-0.819-3.318c-0.19-0.489-0.37-0.64-0.77-0.64
				c-0.11,0-0.2,0.011-0.31,0.04v-0.17c0.11-0.02,0.22-0.04,0.32-0.06c0.2-0.04,0.53-0.1,1.069-0.18h0.04
				c0.15,0,0.68,1.659,0.85,2.548L6.903,5.237z"/>
		</g>
	</g>
	<path id="R_shaded_00000075875702152526844040000016818005703061960121_" opacity="0.05" fill="#FF0000" d="M73.466,36.221
		c-1.592,10.461-9.995,18.633-22.299,19.16c-12.443,0.532-20.959-8.337-22.299-19.16c-1.3-10.501,13.168-19.16,22.299-19.16
		C68.209,17.061,74.945,26.501,73.466,36.221z"/>
	<path id="R_shaded" fill="none" stroke="#FF0000" stroke-width="0.5" stroke-miterlimit="10" d="M73.466,36.221
		c-1.592,10.461-9.995,18.633-22.299,19.16c-12.443,0.532-20.959-8.337-22.299-19.16c-1.3-10.501,13.168-19.16,22.299-19.16
		C68.209,17.061,74.945,26.501,73.466,36.221z"/>
	<g opacity="0.2">
		<line fill="none" stroke="#FF00FF" stroke-width="0.1" stroke-miterlimit="10" x1="34.196" y1="24.129" x2="70.113" y2="24.129"/>
		<line fill="none" stroke="#FF00FF" stroke-width="0.1" stroke-miterlimit="10" x1="40.781" y1="19.822" x2="64.62" y2="19.822"/>
		<line fill="none" stroke="#FF00FF" stroke-width="0.1" stroke-miterlimit="10" x1="30.208" y1="28.91" x2="72.934" y2="28.91"/>
		
			<line fill="none" stroke="#FF00FF" stroke-width="0.1" stroke-linecap="round" stroke-linejoin="round" stroke-miterlimit="10" x1="28.869" y1="33.898" x2="73.404" y2="33.898"/>
		<line fill="none" stroke="#FF00FF" stroke-width="0.1" stroke-miterlimit="10" x1="29.004" y1="38.706" x2="73.067" y2="38.706"/>
		<line fill="none" stroke="#FF00FF" stroke-width="0.1" stroke-miterlimit="10" x1="30.971" y1="43.454" x2="71.094" y2="43.454"/>
		<line fill="none" stroke="#FF00FF" stroke-width="0.1" stroke-miterlimit="10" x1="33.933" y1="48.368" x2="67.538" y2="48.368"/>
		<line fill="none" stroke="#FF00FF" stroke-width="0.1" stroke-miterlimit="10" x1="39.922" y1="52.813" x2="61.465" y2="52.813"/>
		<line fill="none" stroke="#FF00FF" stroke-width="0.1" stroke-miterlimit="10" x1="50.337" y1="55.367" x2="50.337" y2="17.061"/>
		<line fill="none" stroke="#FF00FF" stroke-width="0.1" stroke-miterlimit="10" x1="55.325" y1="55.048" x2="55.325" y2="17.42"/>
		<line fill="none" stroke="#FF00FF" stroke-width="0.1" stroke-miterlimit="10" x1="60.092" y1="53.443" x2="60.092" y2="18.1"/>
		<line fill="none" stroke="#FF00FF" stroke-width="0.1" stroke-miterlimit="10" x1="65.558" y1="50.089" x2="65.558" y2="20.437"/>
		<line fill="none" stroke="#FF00FF" stroke-width="0.1" stroke-miterlimit="10" x1="70.307" y1="44.819" x2="70.307" y2="24.239"/>
		<line fill="none" stroke="#FF00FF" stroke-width="0.1" stroke-miterlimit="10" x1="45.018" y1="54.525" x2="45.018" y2="17.841"/>
		<line fill="none" stroke="#FF00FF" stroke-width="0.1" stroke-miterlimit="10" x1="39.607" y1="52.608" x2="39.607" y2="20.437"/>
		<line fill="none" stroke="#FF00FF" stroke-width="0.1" stroke-miterlimit="10" x1="34.196" y1="48.368" x2="34.196" y2="24.239"/>
	</g>
	<g>
		<path fill="#FF0000" d="M78.01,40.517c1.319,0,2.039,0.56,2.039,1.409c0,0.479-0.25,0.97-0.66,1.279
			c-0.31,0.24-0.64,0.359-1.31,0.51l0.89,2.349c0.22,0.59,0.42,0.819,0.87,0.819v0.16H78.37l-1.229-3.238l-0.66-0.05l-0.55,2.028
			c-0.11,0.391-0.13,0.53-0.13,0.63c0,0.3,0.1,0.41,0.67,0.47v0.16h-2.429v-0.16c0.55-0.069,0.689-0.26,0.85-0.85l1.189-4.308
			c0.07-0.27,0.12-0.459,0.12-0.629c0-0.11-0.07-0.23-0.14-0.28c-0.11-0.07-0.15-0.08-0.57-0.14v-0.16H78.01z M76.601,43.385
			c0.25,0.04,0.33,0.05,0.51,0.05c1.189,0,1.889-0.569,1.889-1.499c0-0.689-0.419-1.119-1.199-1.119c-0.31,0-0.52,0.11-0.57,0.3
			L76.601,43.385z"/>
	</g>
</g>
<g id="volume">
</g>
<g id="Layer_2">
	
		<line display="none" fill="none" stroke="#FF00FF" stroke-width="0.1" stroke-miterlimit="10" x1="42.055" y1="100.045" x2="42.055" y2="66.755"/>
	<g id="xi_x2C_yi">
		
			<line fill="none" stroke="#FF00FF" stroke-width="0.1" stroke-linecap="round" stroke-linejoin="round" stroke-miterlimit="10" stroke-dasharray="3" x1="11.313" y1="33.898" x2="50.337" y2="33.898"/>
		<g id="xi_x2C_yi_00000078006812336956207150000015064349026672544672_">
			
				<line fill="none" stroke="#FF00FF" stroke-width="0.1" stroke-linecap="round" stroke-linejoin="round" stroke-miterlimit="10" stroke-dasharray="3" x1="50.337" y1="35.868" x2="50.337" y2="75.957"/>
		</g>
	</g>
	<g>
		<path fill="#FF00FF" d="M50.098,79.233c0.699-1.069,1.069-1.429,1.509-1.429c0.24,0,0.41,0.149,0.41,0.369
			c0,0.21-0.14,0.36-0.34,0.36c-0.19,0-0.28-0.17-0.52-0.17c-0.18,0-0.54,0.439-0.979,1.209c0,0.07,0.02,0.21,0.08,0.45l0.32,1.339
			c0.07,0.28,0.16,0.41,0.3,0.41c0.13,0,0.24-0.101,0.47-0.4c0.09-0.12,0.13-0.18,0.21-0.279l0.15,0.09
			c-0.58,0.899-0.839,1.14-1.219,1.14c-0.32,0-0.47-0.181-0.59-0.68l-0.29-1.189l-0.88,1.189c-0.439,0.589-0.64,0.68-0.949,0.68
			c-0.31,0-0.5-0.16-0.5-0.42c0-0.2,0.14-0.36,0.34-0.36c0.09,0,0.19,0.04,0.32,0.11c0.1,0.06,0.2,0.09,0.26,0.09
			c0.11,0,0.3-0.189,0.51-0.49l0.82-1.159l-0.28-1.239c-0.14-0.6-0.21-0.68-0.46-0.68c-0.08,0-0.2,0.021-0.39,0.07l-0.18,0.05
			l-0.03-0.16l0.11-0.04c0.61-0.22,0.939-0.289,1.169-0.289c0.25,0,0.37,0.18,0.51,0.859L50.098,79.233z"/>
		<path fill="#FF00FF" d="M53.166,81.696c-0.275,0.421-0.436,0.57-0.686,0.57c-0.166,0-0.246-0.09-0.246-0.274
			c0-0.101,0.035-0.275,0.11-0.556l0.24-0.886c0.025-0.091,0.045-0.181,0.045-0.221c0-0.1-0.05-0.115-0.32-0.12v-0.08
			c0.195-0.015,0.295-0.03,0.801-0.125l0.02,0.015l-0.471,1.717c-0.025,0.085-0.05,0.15-0.05,0.221c0,0.05,0.03,0.074,0.07,0.074
			c0.085,0,0.205-0.104,0.42-0.39L53.166,81.696z M53.065,79.469c-0.145,0-0.24-0.104-0.24-0.265c0-0.155,0.1-0.266,0.235-0.266
			c0.135,0,0.25,0.13,0.25,0.275C53.311,79.354,53.195,79.469,53.065,79.469z"/>
	</g>
	<g>
		<path fill="#FF00FF" d="M5.694,34.043c0.85-1.409,1.219-2.129,1.219-2.568c0-0.14-0.07-0.2-0.26-0.32
			c-0.2-0.13-0.26-0.229-0.26-0.39c0-0.22,0.17-0.369,0.399-0.369c0.3,0,0.52,0.25,0.52,0.55c0,0.569-0.48,1.669-1.31,3.048
			c-1.039,1.719-2.109,2.868-2.678,2.868c-0.3,0-0.51-0.17-0.51-0.43c0-0.22,0.17-0.399,0.39-0.399c0.35,0,0.35,0.279,0.61,0.279
			c0.13,0,0.25-0.079,0.479-0.329c0.18-0.19,0.63-0.78,0.709-0.91c0.06-0.119,0.1-0.239,0.1-0.35c0-0.399-0.55-2.639-0.819-3.318
			c-0.19-0.489-0.37-0.64-0.77-0.64c-0.11,0-0.2,0.011-0.31,0.04v-0.17c0.11-0.02,0.22-0.04,0.32-0.06c0.2-0.04,0.53-0.1,1.069-0.18
			h0.04c0.15,0,0.68,1.659,0.85,2.548L5.694,34.043z"/>
		<path fill="#FF00FF" d="M8.672,34.287c-0.275,0.421-0.436,0.57-0.686,0.57c-0.166,0-0.246-0.09-0.246-0.274
			c0-0.101,0.035-0.275,0.11-0.556l0.24-0.886c0.025-0.091,0.045-0.181,0.045-0.221c0-0.1-0.05-0.115-0.32-0.12v-0.08
			c0.195-0.015,0.295-0.03,0.801-0.125l0.02,0.015l-0.471,1.717c-0.025,0.085-0.05,0.15-0.05,0.221c0,0.05,0.03,0.074,0.07,0.074
			c0.085,0,0.205-0.104,0.42-0.39L8.672,34.287z M8.572,32.06c-0.145,0-0.24-0.104-0.24-0.265c0-0.155,0.1-0.266,0.235-0.266
			c0.135,0,0.25,0.13,0.25,0.275C8.817,31.946,8.702,32.06,8.572,32.06z"/>
	</g>
	<g>
		<path fill="#FF00FF" d="M49.419,11.682l3.998-6.677h0.26l1.319,6.677H49.419z M52.978,6.426l-2.549,4.317h3.418L52.978,6.426z"/>
		<path fill="#FF00FF" d="M59.038,11.682v-0.16c0.629-0.029,0.77-0.189,0.77-0.529c0-0.08-0.01-0.17-0.02-0.26l-0.2-1.31h-2.199
			l-0.589,1.109c-0.14,0.26-0.22,0.5-0.22,0.66c0,0.189,0.15,0.31,0.62,0.329v0.16h-1.859v-0.16c0.46-0.09,0.59-0.26,1.339-1.559
			l2.849-4.958h0.26l0.919,5.527c0.14,0.84,0.25,0.949,0.779,0.989v0.16H59.038z M59.087,6.435l-1.489,2.629h1.939L59.087,6.435z"/>
		<path fill="#FF00FF" d="M63.135,11.167c-0.275,0.421-0.436,0.57-0.686,0.57c-0.165,0-0.245-0.09-0.245-0.274
			c0-0.101,0.035-0.275,0.11-0.556l0.24-0.886C62.58,9.93,62.6,9.841,62.6,9.801c0-0.1-0.05-0.115-0.32-0.12V9.6
			c0.195-0.015,0.295-0.03,0.801-0.125L63.1,9.49l-0.47,1.717c-0.025,0.085-0.05,0.15-0.05,0.221c0,0.05,0.03,0.074,0.07,0.074
			c0.085,0,0.206-0.104,0.421-0.39L63.135,11.167z M63.035,8.939c-0.146,0-0.24-0.104-0.24-0.265c0-0.155,0.1-0.266,0.235-0.266
			c0.135,0,0.25,0.13,0.25,0.275C63.28,8.825,63.165,8.939,63.035,8.939z"/>
		<path fill="#FF00FF" d="M64.209,8.484V7.825h5.038v0.659H64.209z M64.209,10.483v-0.66h5.038v0.66H64.209z"/>
		<path fill="#FF00FF" d="M69.779,11.682l3.998-6.677h0.26l1.319,6.677H69.779z M73.337,6.426l-2.549,4.317h3.418L73.337,6.426z"/>
		<path fill="#FF00FF" d="M78.758,8.704c0.699-1.069,1.069-1.429,1.509-1.429c0.24,0,0.41,0.149,0.41,0.369
			c0,0.21-0.14,0.36-0.34,0.36c-0.19,0-0.28-0.17-0.52-0.17c-0.18,0-0.54,0.439-0.979,1.209c0,0.07,0.02,0.21,0.08,0.45l0.32,1.339
			c0.07,0.28,0.16,0.41,0.3,0.41c0.13,0,0.24-0.101,0.47-0.4c0.09-0.12,0.13-0.18,0.21-0.279l0.15,0.09
			c-0.58,0.899-0.839,1.14-1.219,1.14c-0.32,0-0.47-0.181-0.59-0.68l-0.29-1.189l-0.88,1.189c-0.439,0.589-0.64,0.68-0.949,0.68
			c-0.31,0-0.5-0.16-0.5-0.42c0-0.2,0.14-0.36,0.34-0.36c0.09,0,0.19,0.04,0.32,0.11c0.1,0.06,0.2,0.09,0.26,0.09
			c0.11,0,0.3-0.189,0.51-0.49l0.82-1.159l-0.28-1.239c-0.14-0.6-0.21-0.68-0.46-0.68c-0.08,0-0.2,0.021-0.39,0.07l-0.18,0.05
			l-0.03-0.16l0.11-0.04c0.61-0.22,0.939-0.289,1.169-0.289c0.25,0,0.37,0.18,0.51,0.859L78.758,8.704z"/>
		<path fill="#FF00FF" d="M81.825,11.167c-0.275,0.421-0.436,0.57-0.686,0.57c-0.166,0-0.246-0.09-0.246-0.274
			c0-0.101,0.035-0.275,0.11-0.556l0.24-0.886C81.27,9.93,81.29,9.841,81.29,9.801c0-0.1-0.05-0.115-0.32-0.12V9.6
			c0.195-0.015,0.295-0.03,0.801-0.125l0.02,0.015l-0.471,1.717c-0.025,0.085-0.05,0.15-0.05,0.221c0,0.05,0.03,0.074,0.07,0.074
			c0.085,0,0.205-0.104,0.42-0.39L81.825,11.167z M81.725,8.939c-0.145,0-0.24-0.104-0.24-0.265c0-0.155,0.1-0.266,0.235-0.266
			c0.135,0,0.25,0.13,0.25,0.275C81.97,8.825,81.855,8.939,81.725,8.939z"/>
		<path fill="#FF00FF" d="M82.838,11.793c-0.28,0-0.529-0.25-0.529-0.54c0-0.32,0.25-0.569,0.549-0.569c0.3,0,0.56,0.26,0.56,0.569
			C83.418,11.553,83.158,11.793,82.838,11.793z"/>
		<path fill="#FF00FF" d="M84.219,11.682l3.998-6.677h0.26l1.319,6.677H84.219z M87.777,6.426l-2.549,4.317h3.418L87.777,6.426z"/>
		<path fill="#FF00FF" d="M93.287,10.923c0.85-1.409,1.219-2.129,1.219-2.568c0-0.14-0.07-0.2-0.26-0.32
			c-0.2-0.13-0.26-0.229-0.26-0.39c0-0.22,0.17-0.369,0.399-0.369c0.3,0,0.52,0.25,0.52,0.55c0,0.569-0.48,1.669-1.31,3.048
			c-1.039,1.719-2.109,2.868-2.678,2.868c-0.3,0-0.51-0.17-0.51-0.43c0-0.22,0.17-0.399,0.39-0.399c0.35,0,0.35,0.279,0.61,0.279
			c0.13,0,0.25-0.079,0.479-0.329c0.18-0.19,0.63-0.78,0.709-0.91c0.06-0.119,0.1-0.239,0.1-0.35c0-0.399-0.55-2.639-0.819-3.318
			c-0.19-0.489-0.37-0.64-0.77-0.64c-0.11,0-0.2,0.011-0.31,0.04v-0.17c0.11-0.02,0.22-0.04,0.32-0.06c0.2-0.04,0.53-0.1,1.069-0.18
			h0.04c0.15,0,0.68,1.659,0.85,2.548L93.287,10.923z"/>
		<path fill="#FF00FF" d="M96.265,11.167c-0.275,0.421-0.436,0.57-0.686,0.57c-0.166,0-0.246-0.09-0.246-0.274
			c0-0.101,0.035-0.275,0.11-0.556l0.24-0.886c0.025-0.091,0.045-0.181,0.045-0.221c0-0.1-0.05-0.115-0.32-0.12V9.6
			c0.195-0.015,0.295-0.03,0.801-0.125l0.02,0.015l-0.471,1.717c-0.025,0.085-0.05,0.15-0.05,0.221c0,0.05,0.03,0.074,0.07,0.074
			c0.085,0,0.205-0.104,0.42-0.39L96.265,11.167z M96.165,8.939c-0.145,0-0.24-0.104-0.24-0.265c0-0.155,0.1-0.266,0.235-0.266
			c0.135,0,0.25,0.13,0.25,0.275C96.41,8.825,96.294,8.939,96.165,8.939z"/>
	</g>
	
		<rect x="50.337" y="28.91" fill="#FFD1FF" stroke="#FF00FF" stroke-width="0.25" stroke-miterlimit="10" width="4.988" height="4.988"/>
	<g>
		<g>
			
				<line fill="none" stroke="#FF00FF" stroke-width="0.25" stroke-miterlimit="10" x1="56.319" y1="13.374" x2="52.99" y2="30.211"/>
			<g>
				<polygon fill="#FF00FF" points="52.218,29.342 53.05,29.908 54.034,29.701 52.7,31.675 				"/>
			</g>
		</g>
	</g>
	<g>
	</g>
	<g>
	</g>
</g>
</svg>
