<?xml version="1.0" encoding="utf-8"?>
<!-- Generator: Adobe Illustrator 25.4.1, SVG Export Plug-In . SVG Version: 6.00 Build 0)  -->
<svg version="1.1" xmlns="http://www.w3.org/2000/svg" xmlns:xlink="http://www.w3.org/1999/xlink" x="0px" y="0px"
	 viewBox="0 0 120.755 84.975" enable-background="new 0 0 120.755 84.975" xml:space="preserve">
<g id="Layer_4">
	<g id="Clipped_grid" opacity="0.5">
		<defs>
			<rect id="SVGID_1_" x="-2.816" y="-2.706" opacity="0.5" width="127.767" height="90.552"/>
		</defs>
		<clipPath id="SVGID_00000088120359304521236520000001352638565644815748_">
			<use xlink:href="#SVGID_1_"  overflow="visible"/>
		</clipPath>
		<g id="Grid" opacity="0.25" clip-path="url(#SVGID_00000088120359304521236520000001352638565644815748_)">
			<g id="Horizontal_1_mm">
				
					<line fill="none" stroke="#00ABEB" stroke-width="0.15" stroke-miterlimit="10" x1="-57.857" y1="-6.248" x2="168.984" y2="-6.248"/>
				
					<line fill="none" stroke="#00ABEB" stroke-width="0.15" stroke-miterlimit="10" x1="-57.857" y1="-9.083" x2="168.984" y2="-9.083"/>
				
					<line fill="none" stroke="#00ABEB" stroke-width="0.15" stroke-miterlimit="10" x1="-57.857" y1="160.996" x2="168.984" y2="160.996"/>
				
					<line fill="none" stroke="#00ABEB" stroke-width="0.15" stroke-miterlimit="10" x1="-57.857" y1="158.161" x2="168.984" y2="158.161"/>
				
					<line fill="none" stroke="#00ABEB" stroke-width="0.15" stroke-miterlimit="10" x1="-57.857" y1="155.327" x2="168.984" y2="155.327"/>
				
					<line fill="none" stroke="#00ABEB" stroke-width="0.15" stroke-miterlimit="10" x1="-57.857" y1="152.492" x2="168.984" y2="152.492"/>
				
					<line fill="none" stroke="#00ABEB" stroke-width="0.15" stroke-miterlimit="10" x1="-57.857" y1="149.657" x2="168.984" y2="149.657"/>
				
					<line fill="none" stroke="#00ABEB" stroke-width="0.15" stroke-miterlimit="10" x1="-57.857" y1="146.823" x2="168.984" y2="146.823"/>
				
					<line fill="none" stroke="#00ABEB" stroke-width="0.15" stroke-miterlimit="10" x1="-57.857" y1="143.988" x2="168.984" y2="143.988"/>
				
					<line fill="none" stroke="#00ABEB" stroke-width="0.15" stroke-miterlimit="10" x1="-57.857" y1="141.154" x2="168.984" y2="141.154"/>
				
					<line fill="none" stroke="#00ABEB" stroke-width="0.15" stroke-miterlimit="10" x1="-57.857" y1="138.319" x2="168.984" y2="138.319"/>
				
					<line fill="none" stroke="#00ABEB" stroke-width="0.15" stroke-miterlimit="10" x1="-57.857" y1="135.484" x2="168.984" y2="135.484"/>
				
					<line fill="none" stroke="#00ABEB" stroke-width="0.15" stroke-miterlimit="10" x1="-57.857" y1="132.65" x2="168.984" y2="132.65"/>
				
					<line fill="none" stroke="#00ABEB" stroke-width="0.15" stroke-miterlimit="10" x1="-57.857" y1="129.815" x2="168.984" y2="129.815"/>
				
					<line fill="none" stroke="#00ABEB" stroke-width="0.15" stroke-miterlimit="10" x1="-57.857" y1="126.98" x2="168.984" y2="126.98"/>
				
					<line fill="none" stroke="#00ABEB" stroke-width="0.15" stroke-miterlimit="10" x1="-57.857" y1="124.146" x2="168.984" y2="124.146"/>
				
					<line fill="none" stroke="#00ABEB" stroke-width="0.15" stroke-miterlimit="10" x1="-57.857" y1="121.311" x2="168.984" y2="121.311"/>
				
					<line fill="none" stroke="#00ABEB" stroke-width="0.15" stroke-miterlimit="10" x1="-57.857" y1="118.476" x2="168.984" y2="118.476"/>
				
					<line fill="none" stroke="#00ABEB" stroke-width="0.15" stroke-miterlimit="10" x1="-57.857" y1="115.642" x2="168.984" y2="115.642"/>
				
					<line fill="none" stroke="#00ABEB" stroke-width="0.15" stroke-miterlimit="10" x1="-57.857" y1="112.807" x2="168.984" y2="112.807"/>
				
					<line fill="none" stroke="#00ABEB" stroke-width="0.15" stroke-miterlimit="10" x1="-57.857" y1="109.972" x2="168.984" y2="109.972"/>
				
					<line fill="none" stroke="#00ABEB" stroke-width="0.15" stroke-miterlimit="10" x1="-57.857" y1="107.138" x2="168.984" y2="107.138"/>
				
					<line fill="none" stroke="#00ABEB" stroke-width="0.15" stroke-miterlimit="10" x1="-57.857" y1="104.303" x2="168.984" y2="104.303"/>
				
					<line fill="none" stroke="#00ABEB" stroke-width="0.15" stroke-miterlimit="10" x1="-57.857" y1="101.468" x2="168.984" y2="101.468"/>
				
					<line fill="none" stroke="#00ABEB" stroke-width="0.15" stroke-miterlimit="10" x1="-57.857" y1="98.634" x2="168.984" y2="98.634"/>
				
					<line fill="none" stroke="#00ABEB" stroke-width="0.15" stroke-miterlimit="10" x1="-57.857" y1="95.799" x2="168.984" y2="95.799"/>
				
					<line fill="none" stroke="#00ABEB" stroke-width="0.15" stroke-miterlimit="10" x1="-57.857" y1="92.965" x2="168.984" y2="92.965"/>
				
					<line fill="none" stroke="#00ABEB" stroke-width="0.15" stroke-miterlimit="10" x1="-57.857" y1="90.13" x2="168.984" y2="90.13"/>
				
					<line fill="none" stroke="#00ABEB" stroke-width="0.15" stroke-miterlimit="10" x1="-57.857" y1="87.295" x2="168.984" y2="87.295"/>
				
					<line fill="none" stroke="#00ABEB" stroke-width="0.15" stroke-miterlimit="10" x1="-57.857" y1="84.461" x2="168.984" y2="84.461"/>
				
					<line fill="none" stroke="#00ABEB" stroke-width="0.15" stroke-miterlimit="10" x1="-57.857" y1="81.626" x2="168.984" y2="81.626"/>
				
					<line fill="none" stroke="#00ABEB" stroke-width="0.15" stroke-miterlimit="10" x1="-57.857" y1="78.791" x2="168.984" y2="78.791"/>
				
					<line fill="none" stroke="#00ABEB" stroke-width="0.15" stroke-miterlimit="10" x1="-57.857" y1="75.957" x2="168.984" y2="75.957"/>
				
					<line fill="none" stroke="#00ABEB" stroke-width="0.15" stroke-miterlimit="10" x1="-57.857" y1="73.122" x2="168.984" y2="73.122"/>
				
					<line fill="none" stroke="#00ABEB" stroke-width="0.15" stroke-miterlimit="10" x1="-57.857" y1="70.287" x2="168.984" y2="70.287"/>
				
					<line fill="none" stroke="#00ABEB" stroke-width="0.15" stroke-miterlimit="10" x1="-57.857" y1="67.453" x2="168.984" y2="67.453"/>
				
					<line fill="none" stroke="#00ABEB" stroke-width="0.15" stroke-miterlimit="10" x1="-57.857" y1="64.618" x2="168.984" y2="64.618"/>
				
					<line fill="none" stroke="#00ABEB" stroke-width="0.15" stroke-miterlimit="10" x1="-57.857" y1="61.783" x2="168.984" y2="61.783"/>
				
					<line fill="none" stroke="#00ABEB" stroke-width="0.15" stroke-miterlimit="10" x1="-57.857" y1="58.949" x2="168.984" y2="58.949"/>
				
					<line fill="none" stroke="#00ABEB" stroke-width="0.15" stroke-miterlimit="10" x1="-57.857" y1="56.114" x2="168.984" y2="56.114"/>
				
					<line fill="none" stroke="#00ABEB" stroke-width="0.15" stroke-miterlimit="10" x1="-57.857" y1="53.279" x2="168.984" y2="53.279"/>
				
					<line fill="none" stroke="#00ABEB" stroke-width="0.15" stroke-miterlimit="10" x1="-57.857" y1="50.445" x2="168.984" y2="50.445"/>
				
					<line fill="none" stroke="#00ABEB" stroke-width="0.15" stroke-miterlimit="10" x1="-57.857" y1="47.61" x2="168.984" y2="47.61"/>
				
					<line fill="none" stroke="#00ABEB" stroke-width="0.15" stroke-miterlimit="10" x1="-57.857" y1="44.776" x2="168.984" y2="44.776"/>
				
					<line fill="none" stroke="#00ABEB" stroke-width="0.15" stroke-miterlimit="10" x1="-57.857" y1="41.941" x2="168.984" y2="41.941"/>
				
					<line fill="none" stroke="#00ABEB" stroke-width="0.15" stroke-miterlimit="10" x1="-57.857" y1="39.106" x2="168.984" y2="39.106"/>
				
					<line fill="none" stroke="#00ABEB" stroke-width="0.15" stroke-miterlimit="10" x1="-57.857" y1="36.272" x2="168.984" y2="36.272"/>
				
					<line fill="none" stroke="#00ABEB" stroke-width="0.15" stroke-miterlimit="10" x1="-57.857" y1="33.437" x2="168.984" y2="33.437"/>
				
					<line fill="none" stroke="#00ABEB" stroke-width="0.15" stroke-miterlimit="10" x1="-57.857" y1="30.602" x2="168.984" y2="30.602"/>
				
					<line fill="none" stroke="#00ABEB" stroke-width="0.15" stroke-miterlimit="10" x1="-57.857" y1="27.768" x2="168.984" y2="27.768"/>
				
					<line fill="none" stroke="#00ABEB" stroke-width="0.15" stroke-miterlimit="10" x1="-57.857" y1="24.933" x2="168.984" y2="24.933"/>
				
					<line fill="none" stroke="#00ABEB" stroke-width="0.15" stroke-miterlimit="10" x1="-57.857" y1="22.098" x2="168.984" y2="22.098"/>
				
					<line fill="none" stroke="#00ABEB" stroke-width="0.15" stroke-miterlimit="10" x1="-57.857" y1="19.264" x2="168.984" y2="19.264"/>
				
					<line fill="none" stroke="#00ABEB" stroke-width="0.15" stroke-miterlimit="10" x1="-57.857" y1="16.429" x2="168.984" y2="16.429"/>
				
					<line fill="none" stroke="#00ABEB" stroke-width="0.15" stroke-miterlimit="10" x1="-57.857" y1="13.594" x2="168.984" y2="13.594"/>
				
					<line fill="none" stroke="#00ABEB" stroke-width="0.15" stroke-miterlimit="10" x1="-57.857" y1="10.76" x2="168.984" y2="10.76"/>
				
					<line fill="none" stroke="#00ABEB" stroke-width="0.15" stroke-miterlimit="10" x1="-57.857" y1="7.925" x2="168.984" y2="7.925"/>
				
					<line fill="none" stroke="#00ABEB" stroke-width="0.15" stroke-miterlimit="10" x1="-57.857" y1="5.091" x2="168.984" y2="5.091"/>
				
					<line fill="none" stroke="#00ABEB" stroke-width="0.15" stroke-miterlimit="10" x1="-57.857" y1="2.256" x2="168.984" y2="2.256"/>
				
					<line fill="none" stroke="#00ABEB" stroke-width="0.15" stroke-miterlimit="10" x1="-57.857" y1="-0.579" x2="168.984" y2="-0.579"/>
				
					<line fill="none" stroke="#00ABEB" stroke-width="0.15" stroke-miterlimit="10" x1="-57.857" y1="-3.413" x2="168.984" y2="-3.413"/>
			</g>
			<g id="Vertical_1_mm">
				<g>
					
						<line fill="none" stroke="#00ABEB" stroke-width="0.15" stroke-miterlimit="10" x1="-57.781" y1="160.982" x2="-57.781" y2="-9.158"/>
				</g>
				
					<line fill="none" stroke="#00ABEB" stroke-width="0.15" stroke-miterlimit="10" x1="-54.947" y1="160.982" x2="-54.947" y2="-9.158"/>
				
					<line fill="none" stroke="#00ABEB" stroke-width="0.15" stroke-miterlimit="10" x1="-52.112" y1="160.982" x2="-52.112" y2="-9.158"/>
				
					<line fill="none" stroke="#00ABEB" stroke-width="0.15" stroke-miterlimit="10" x1="-49.277" y1="160.982" x2="-49.277" y2="-9.158"/>
				
					<line fill="none" stroke="#00ABEB" stroke-width="0.15" stroke-miterlimit="10" x1="-46.444" y1="160.982" x2="-46.444" y2="-9.158"/>
				
					<line fill="none" stroke="#00ABEB" stroke-width="0.15" stroke-miterlimit="10" x1="-43.609" y1="160.982" x2="-43.609" y2="-9.158"/>
				
					<line fill="none" stroke="#00ABEB" stroke-width="0.15" stroke-miterlimit="10" x1="-40.774" y1="160.982" x2="-40.774" y2="-9.158"/>
				
					<line fill="none" stroke="#00ABEB" stroke-width="0.15" stroke-miterlimit="10" x1="-37.94" y1="160.982" x2="-37.94" y2="-9.158"/>
				
					<line fill="none" stroke="#00ABEB" stroke-width="0.15" stroke-miterlimit="10" x1="-35.104" y1="160.982" x2="-35.104" y2="-9.158"/>
				
					<line fill="none" stroke="#00ABEB" stroke-width="0.15" stroke-miterlimit="10" x1="-32.27" y1="160.982" x2="-32.27" y2="-9.158"/>
				
					<line fill="none" stroke="#00ABEB" stroke-width="0.15" stroke-miterlimit="10" x1="-29.435" y1="160.982" x2="-29.435" y2="-9.158"/>
				
					<line fill="none" stroke="#00ABEB" stroke-width="0.15" stroke-miterlimit="10" x1="-26.6" y1="160.982" x2="-26.6" y2="-9.158"/>
				
					<line fill="none" stroke="#00ABEB" stroke-width="0.15" stroke-miterlimit="10" x1="-23.766" y1="160.982" x2="-23.766" y2="-9.158"/>
				
					<line fill="none" stroke="#00ABEB" stroke-width="0.15" stroke-miterlimit="10" x1="-20.931" y1="160.982" x2="-20.931" y2="-9.158"/>
				
					<line fill="none" stroke="#00ABEB" stroke-width="0.15" stroke-miterlimit="10" x1="-18.096" y1="160.982" x2="-18.096" y2="-9.158"/>
				
					<line fill="none" stroke="#00ABEB" stroke-width="0.15" stroke-miterlimit="10" x1="-15.262" y1="160.982" x2="-15.262" y2="-9.158"/>
				
					<line fill="none" stroke="#00ABEB" stroke-width="0.15" stroke-miterlimit="10" x1="-12.427" y1="160.982" x2="-12.427" y2="-9.158"/>
				
					<line fill="none" stroke="#00ABEB" stroke-width="0.15" stroke-miterlimit="10" x1="-9.592" y1="160.982" x2="-9.592" y2="-9.158"/>
				
					<line fill="none" stroke="#00ABEB" stroke-width="0.15" stroke-miterlimit="10" x1="-6.758" y1="160.982" x2="-6.758" y2="-9.158"/>
				
					<line fill="none" stroke="#00ABEB" stroke-width="0.15" stroke-miterlimit="10" x1="-3.923" y1="160.982" x2="-3.923" y2="-9.158"/>
				
					<line fill="none" stroke="#00ABEB" stroke-width="0.15" stroke-miterlimit="10" x1="-1.089" y1="160.982" x2="-1.089" y2="-9.158"/>
				
					<line fill="none" stroke="#00ABEB" stroke-width="0.15" stroke-miterlimit="10" x1="1.745" y1="160.982" x2="1.745" y2="-9.158"/>
				<line fill="none" stroke="#00ABEB" stroke-width="0.15" stroke-miterlimit="10" x1="4.58" y1="160.982" x2="4.58" y2="-9.158"/>
				
					<line fill="none" stroke="#00ABEB" stroke-width="0.15" stroke-miterlimit="10" x1="7.415" y1="160.982" x2="7.415" y2="-9.158"/>
				
					<line fill="none" stroke="#00ABEB" stroke-width="0.15" stroke-miterlimit="10" x1="10.25" y1="160.982" x2="10.25" y2="-9.158"/>
				
					<line fill="none" stroke="#00ABEB" stroke-width="0.15" stroke-miterlimit="10" x1="13.085" y1="160.982" x2="13.085" y2="-9.158"/>
				
					<line fill="none" stroke="#00ABEB" stroke-width="0.15" stroke-miterlimit="10" x1="15.919" y1="160.982" x2="15.919" y2="-9.158"/>
				
					<line fill="none" stroke="#00ABEB" stroke-width="0.15" stroke-miterlimit="10" x1="18.754" y1="160.982" x2="18.754" y2="-9.158"/>
				
					<line fill="none" stroke="#00ABEB" stroke-width="0.15" stroke-miterlimit="10" x1="21.589" y1="160.982" x2="21.589" y2="-9.158"/>
				
					<line fill="none" stroke="#00ABEB" stroke-width="0.15" stroke-miterlimit="10" x1="24.423" y1="160.982" x2="24.423" y2="-9.158"/>
				
					<line fill="none" stroke="#00ABEB" stroke-width="0.15" stroke-miterlimit="10" x1="27.258" y1="160.982" x2="27.258" y2="-9.158"/>
				
					<line fill="none" stroke="#00ABEB" stroke-width="0.15" stroke-miterlimit="10" x1="30.093" y1="160.982" x2="30.093" y2="-9.158"/>
				
					<line fill="none" stroke="#00ABEB" stroke-width="0.15" stroke-miterlimit="10" x1="32.927" y1="160.982" x2="32.927" y2="-9.158"/>
				
					<line fill="none" stroke="#00ABEB" stroke-width="0.15" stroke-miterlimit="10" x1="35.762" y1="160.982" x2="35.762" y2="-9.158"/>
				
					<line fill="none" stroke="#00ABEB" stroke-width="0.15" stroke-miterlimit="10" x1="38.597" y1="160.982" x2="38.597" y2="-9.158"/>
				
					<line fill="none" stroke="#00ABEB" stroke-width="0.15" stroke-miterlimit="10" x1="41.431" y1="160.982" x2="41.431" y2="-9.158"/>
				
					<line fill="none" stroke="#00ABEB" stroke-width="0.15" stroke-miterlimit="10" x1="44.265" y1="160.982" x2="44.265" y2="-9.158"/>
				<line fill="none" stroke="#00ABEB" stroke-width="0.15" stroke-miterlimit="10" x1="47.1" y1="160.982" x2="47.1" y2="-9.158"/>
				
					<line fill="none" stroke="#00ABEB" stroke-width="0.15" stroke-miterlimit="10" x1="49.934" y1="160.982" x2="49.934" y2="-9.158"/>
				
					<line fill="none" stroke="#00ABEB" stroke-width="0.15" stroke-miterlimit="10" x1="52.769" y1="160.982" x2="52.769" y2="-9.158"/>
				
					<line fill="none" stroke="#00ABEB" stroke-width="0.15" stroke-miterlimit="10" x1="55.603" y1="160.982" x2="55.603" y2="-9.158"/>
				
					<line fill="none" stroke="#00ABEB" stroke-width="0.15" stroke-miterlimit="10" x1="58.439" y1="160.982" x2="58.439" y2="-9.158"/>
				
					<line fill="none" stroke="#00ABEB" stroke-width="0.15" stroke-miterlimit="10" x1="61.274" y1="160.982" x2="61.274" y2="-9.158"/>
				
					<line fill="none" stroke="#00ABEB" stroke-width="0.15" stroke-miterlimit="10" x1="64.108" y1="160.982" x2="64.108" y2="-9.158"/>
				
					<line fill="none" stroke="#00ABEB" stroke-width="0.15" stroke-miterlimit="10" x1="66.943" y1="160.982" x2="66.943" y2="-9.158"/>
				
					<line fill="none" stroke="#00ABEB" stroke-width="0.15" stroke-miterlimit="10" x1="69.778" y1="160.982" x2="69.778" y2="-9.158"/>
				
					<line fill="none" stroke="#00ABEB" stroke-width="0.15" stroke-miterlimit="10" x1="72.612" y1="160.982" x2="72.612" y2="-9.158"/>
				
					<line fill="none" stroke="#00ABEB" stroke-width="0.15" stroke-miterlimit="10" x1="75.447" y1="160.982" x2="75.447" y2="-9.158"/>
				
					<line fill="none" stroke="#00ABEB" stroke-width="0.15" stroke-miterlimit="10" x1="78.282" y1="160.982" x2="78.282" y2="-9.158"/>
				
					<line fill="none" stroke="#00ABEB" stroke-width="0.15" stroke-miterlimit="10" x1="81.116" y1="160.982" x2="81.116" y2="-9.158"/>
				
					<line fill="none" stroke="#00ABEB" stroke-width="0.15" stroke-miterlimit="10" x1="83.951" y1="160.982" x2="83.951" y2="-9.158"/>
				
					<line fill="none" stroke="#00ABEB" stroke-width="0.15" stroke-miterlimit="10" x1="86.785" y1="160.982" x2="86.785" y2="-9.158"/>
				
					<line fill="none" stroke="#00ABEB" stroke-width="0.15" stroke-miterlimit="10" x1="89.619" y1="160.982" x2="89.619" y2="-9.158"/>
				
					<line fill="none" stroke="#00ABEB" stroke-width="0.15" stroke-miterlimit="10" x1="92.454" y1="160.982" x2="92.454" y2="-9.158"/>
				
					<line fill="none" stroke="#00ABEB" stroke-width="0.15" stroke-miterlimit="10" x1="95.289" y1="160.982" x2="95.289" y2="-9.158"/>
				
					<line fill="none" stroke="#00ABEB" stroke-width="0.15" stroke-miterlimit="10" x1="98.123" y1="160.982" x2="98.123" y2="-9.158"/>
				
					<line fill="none" stroke="#00ABEB" stroke-width="0.15" stroke-miterlimit="10" x1="100.959" y1="160.982" x2="100.959" y2="-9.158"/>
				
					<line fill="none" stroke="#00ABEB" stroke-width="0.15" stroke-miterlimit="10" x1="103.793" y1="160.982" x2="103.793" y2="-9.158"/>
				
					<line fill="none" stroke="#00ABEB" stroke-width="0.15" stroke-miterlimit="10" x1="106.628" y1="160.982" x2="106.628" y2="-9.158"/>
				
					<line fill="none" stroke="#00ABEB" stroke-width="0.15" stroke-miterlimit="10" x1="109.463" y1="160.982" x2="109.463" y2="-9.158"/>
				
					<line fill="none" stroke="#00ABEB" stroke-width="0.15" stroke-miterlimit="10" x1="112.297" y1="160.982" x2="112.297" y2="-9.158"/>
				
					<line fill="none" stroke="#00ABEB" stroke-width="0.15" stroke-miterlimit="10" x1="115.132" y1="160.982" x2="115.132" y2="-9.158"/>
				
					<line fill="none" stroke="#00ABEB" stroke-width="0.15" stroke-miterlimit="10" x1="117.967" y1="160.982" x2="117.967" y2="-9.158"/>
				
					<line fill="none" stroke="#00ABEB" stroke-width="0.15" stroke-miterlimit="10" x1="120.801" y1="160.982" x2="120.801" y2="-9.158"/>
				
					<line fill="none" stroke="#00ABEB" stroke-width="0.15" stroke-miterlimit="10" x1="123.636" y1="160.982" x2="123.636" y2="-9.158"/>
				
					<line fill="none" stroke="#00ABEB" stroke-width="0.15" stroke-miterlimit="10" x1="126.471" y1="160.982" x2="126.471" y2="-9.158"/>
				
					<line fill="none" stroke="#00ABEB" stroke-width="0.15" stroke-miterlimit="10" x1="129.305" y1="160.982" x2="129.305" y2="-9.158"/>
				
					<line fill="none" stroke="#00ABEB" stroke-width="0.15" stroke-miterlimit="10" x1="132.139" y1="160.982" x2="132.139" y2="-9.158"/>
				
					<line fill="none" stroke="#00ABEB" stroke-width="0.15" stroke-miterlimit="10" x1="134.974" y1="160.982" x2="134.974" y2="-9.158"/>
				
					<line fill="none" stroke="#00ABEB" stroke-width="0.15" stroke-miterlimit="10" x1="137.808" y1="160.982" x2="137.808" y2="-9.158"/>
				
					<line fill="none" stroke="#00ABEB" stroke-width="0.15" stroke-miterlimit="10" x1="140.643" y1="160.982" x2="140.643" y2="-9.158"/>
				
					<line fill="none" stroke="#00ABEB" stroke-width="0.15" stroke-miterlimit="10" x1="143.478" y1="160.982" x2="143.478" y2="-9.158"/>
				
					<line fill="none" stroke="#00ABEB" stroke-width="0.15" stroke-miterlimit="10" x1="146.313" y1="160.982" x2="146.313" y2="-9.158"/>
				
					<line fill="none" stroke="#00ABEB" stroke-width="0.15" stroke-miterlimit="10" x1="149.148" y1="160.982" x2="149.148" y2="-9.158"/>
				
					<line fill="none" stroke="#00ABEB" stroke-width="0.15" stroke-miterlimit="10" x1="151.982" y1="160.982" x2="151.982" y2="-9.158"/>
				
					<line fill="none" stroke="#00ABEB" stroke-width="0.15" stroke-miterlimit="10" x1="154.817" y1="160.982" x2="154.817" y2="-9.158"/>
				
					<line fill="none" stroke="#00ABEB" stroke-width="0.15" stroke-miterlimit="10" x1="157.652" y1="160.982" x2="157.652" y2="-9.158"/>
				
					<line fill="none" stroke="#00ABEB" stroke-width="0.15" stroke-miterlimit="10" x1="160.486" y1="160.982" x2="160.486" y2="-9.158"/>
				
					<line fill="none" stroke="#00ABEB" stroke-width="0.15" stroke-miterlimit="10" x1="163.321" y1="160.982" x2="163.321" y2="-9.158"/>
				
					<line fill="none" stroke="#00ABEB" stroke-width="0.15" stroke-miterlimit="10" x1="166.156" y1="160.982" x2="166.156" y2="-9.158"/>
				
					<line fill="none" stroke="#00ABEB" stroke-width="0.15" stroke-miterlimit="10" x1="168.99" y1="160.982" x2="168.99" y2="-9.158"/>
			</g>
			<g id="Horizontal_5_mm_1_">
				
					<line fill="none" stroke="#00ABEB" stroke-width="0.3" stroke-miterlimit="10" x1="-58.131" y1="160.996" x2="168.984" y2="160.996"/>
				
					<line fill="none" stroke="#00ABEB" stroke-width="0.3" stroke-miterlimit="10" x1="-58.131" y1="146.823" x2="168.984" y2="146.823"/>
				
					<line fill="none" stroke="#00ABEB" stroke-width="0.3" stroke-miterlimit="10" x1="-58.131" y1="132.65" x2="168.984" y2="132.65"/>
				
					<line fill="none" stroke="#00ABEB" stroke-width="0.3" stroke-miterlimit="10" x1="-58.131" y1="118.476" x2="168.984" y2="118.476"/>
				
					<line fill="none" stroke="#00ABEB" stroke-width="0.3" stroke-miterlimit="10" x1="-58.131" y1="104.303" x2="168.984" y2="104.303"/>
				
					<line fill="none" stroke="#00ABEB" stroke-width="0.3" stroke-miterlimit="10" x1="-58.131" y1="90.13" x2="168.984" y2="90.13"/>
				
					<line fill="none" stroke="#00ABEB" stroke-width="0.3" stroke-miterlimit="10" x1="-58.131" y1="75.957" x2="168.984" y2="75.957"/>
				
					<line fill="none" stroke="#00ABEB" stroke-width="0.3" stroke-miterlimit="10" x1="-58.131" y1="61.783" x2="168.984" y2="61.783"/>
				
					<line fill="none" stroke="#00ABEB" stroke-width="0.3" stroke-miterlimit="10" x1="-58.131" y1="47.61" x2="168.984" y2="47.61"/>
				
					<line fill="none" stroke="#00ABEB" stroke-width="0.3" stroke-miterlimit="10" x1="-58.131" y1="33.437" x2="168.984" y2="33.437"/>
				
					<line fill="none" stroke="#00ABEB" stroke-width="0.3" stroke-miterlimit="10" x1="-58.131" y1="19.264" x2="168.984" y2="19.264"/>
			</g>
			<g id="Vertical_5_mm">
				
					<line fill="none" stroke="#00ABEB" stroke-width="0.3" stroke-miterlimit="10" x1="-57.781" y1="160.982" x2="-57.781" y2="-9.433"/>
				
					<line fill="none" stroke="#00ABEB" stroke-width="0.3" stroke-miterlimit="10" x1="-43.609" y1="160.982" x2="-43.609" y2="-9.433"/>
				
					<line fill="none" stroke="#00ABEB" stroke-width="0.3" stroke-miterlimit="10" x1="-29.435" y1="160.982" x2="-29.435" y2="-9.433"/>
				
					<line fill="none" stroke="#00ABEB" stroke-width="0.3" stroke-miterlimit="10" x1="-15.262" y1="160.982" x2="-15.262" y2="-9.433"/>
				
					<line fill="none" stroke="#00ABEB" stroke-width="0.3" stroke-miterlimit="10" x1="-1.089" y1="160.982" x2="-1.089" y2="-9.433"/>
				
					<line fill="none" stroke="#00ABEB" stroke-width="0.3" stroke-miterlimit="10" x1="13.085" y1="160.982" x2="13.085" y2="-9.433"/>
				
					<line fill="none" stroke="#00ABEB" stroke-width="0.3" stroke-miterlimit="10" x1="27.258" y1="160.982" x2="27.258" y2="-9.433"/>
				
					<line fill="none" stroke="#00ABEB" stroke-width="0.3" stroke-miterlimit="10" x1="41.431" y1="160.982" x2="41.431" y2="-9.433"/>
				
					<line fill="none" stroke="#00ABEB" stroke-width="0.3" stroke-miterlimit="10" x1="55.603" y1="160.982" x2="55.603" y2="-9.433"/>
				
					<line fill="none" stroke="#00ABEB" stroke-width="0.3" stroke-miterlimit="10" x1="69.778" y1="160.982" x2="69.778" y2="-9.433"/>
				
					<line fill="none" stroke="#00ABEB" stroke-width="0.3" stroke-miterlimit="10" x1="83.951" y1="160.982" x2="83.951" y2="-9.433"/>
				
					<line fill="none" stroke="#00ABEB" stroke-width="0.3" stroke-miterlimit="10" x1="98.123" y1="160.982" x2="98.123" y2="-9.433"/>
				
					<line fill="none" stroke="#00ABEB" stroke-width="0.3" stroke-miterlimit="10" x1="112.297" y1="160.982" x2="112.297" y2="-9.433"/>
				
					<line fill="none" stroke="#00ABEB" stroke-width="0.3" stroke-miterlimit="10" x1="126.471" y1="160.982" x2="126.471" y2="-9.433"/>
				
					<line fill="none" stroke="#00ABEB" stroke-width="0.3" stroke-miterlimit="10" x1="140.643" y1="160.982" x2="140.643" y2="-9.433"/>
				
					<line fill="none" stroke="#00ABEB" stroke-width="0.3" stroke-miterlimit="10" x1="154.817" y1="160.982" x2="154.817" y2="-9.433"/>
				
					<line fill="none" stroke="#00ABEB" stroke-width="0.3" stroke-miterlimit="10" x1="168.99" y1="160.982" x2="168.99" y2="-9.433"/>
			</g>
			<g id="Horizontal_10_mm">
				
					<line id="_x31_9_1_" fill="none" stroke="#00ABEB" stroke-width="0.7" stroke-miterlimit="10" x1="-58.131" y1="160.996" x2="168.984" y2="160.996"/>
				
					<line id="_x32_0" fill="none" stroke="#00ABEB" stroke-width="0.7" stroke-miterlimit="10" x1="-58.131" y1="132.65" x2="168.984" y2="132.65"/>
				
					<line id="_x32_1" fill="none" stroke="#00ABEB" stroke-width="0.7" stroke-miterlimit="10" x1="-58.131" y1="104.303" x2="168.984" y2="104.303"/>
				
					<line id="_x32_2" fill="none" stroke="#00ABEB" stroke-width="0.7" stroke-miterlimit="10" x1="-58.131" y1="75.957" x2="168.984" y2="75.957"/>
				
					<line id="_x32_3" fill="none" stroke="#00ABEB" stroke-width="0.7" stroke-miterlimit="10" x1="-58.131" y1="47.61" x2="168.984" y2="47.61"/>
				
					<line id="_x32_4" fill="none" stroke="#00ABEB" stroke-width="0.7" stroke-miterlimit="10" x1="-58.131" y1="19.264" x2="168.984" y2="19.264"/>
				
					<line id="_x32_5" fill="none" stroke="#00ABEB" stroke-width="0.7" stroke-miterlimit="10" x1="-58.131" y1="-9.083" x2="168.984" y2="-9.083"/>
			</g>
			<g id="Vertical_10_mm">
				
					<line id="_x30_" fill="none" stroke="#00ABEB" stroke-width="0.7" stroke-miterlimit="10" x1="-57.781" y1="160.982" x2="-57.781" y2="-9.433"/>
				
					<line id="_x31_" fill="none" stroke="#00ABEB" stroke-width="0.7" stroke-miterlimit="10" x1="-29.435" y1="160.982" x2="-29.435" y2="-9.433"/>
				
					<line id="_x32_" fill="none" stroke="#00ABEB" stroke-width="0.7" stroke-miterlimit="10" x1="-1.089" y1="160.982" x2="-1.089" y2="-9.433"/>
				
					<line id="_x33_" fill="none" stroke="#00ABEB" stroke-width="0.7" stroke-miterlimit="10" x1="27.258" y1="160.982" x2="27.258" y2="-9.433"/>
				
					<line id="_x34_" fill="none" stroke="#00ABEB" stroke-width="0.7" stroke-miterlimit="10" x1="55.603" y1="160.982" x2="55.603" y2="-9.433"/>
				
					<line id="_x35_" fill="none" stroke="#00ABEB" stroke-width="0.7" stroke-miterlimit="10" x1="83.951" y1="160.982" x2="83.951" y2="-9.433"/>
				
					<line id="_x36_" fill="none" stroke="#00ABEB" stroke-width="0.7" stroke-miterlimit="10" x1="112.297" y1="160.982" x2="112.297" y2="-9.433"/>
				
					<line id="_x37_" fill="none" stroke="#00ABEB" stroke-width="0.7" stroke-miterlimit="10" x1="140.643" y1="160.982" x2="140.643" y2="-9.433"/>
				
					<line id="_x38_" fill="none" stroke="#00ABEB" stroke-width="0.7" stroke-miterlimit="10" x1="168.99" y1="160.982" x2="168.99" y2="-9.433"/>
			</g>
		</g>
	</g>
</g>
<g id="one_solution">
	<g display="none">
		<g display="inline">
			<g>
				
					<line fill="none" stroke="#000000" stroke-width="0.25" stroke-linecap="round" stroke-linejoin="round" x1="39.331" y1="48.902" x2="39.331" y2="50.402"/>
				
					<line fill="none" stroke="#000000" stroke-width="0.25" stroke-linecap="round" stroke-linejoin="round" stroke-dasharray="2.6728,2.6728" x1="39.331" y1="53.075" x2="39.331" y2="73.121"/>
				
					<line fill="none" stroke="#000000" stroke-width="0.25" stroke-linecap="round" stroke-linejoin="round" x1="39.331" y1="74.457" x2="39.331" y2="75.957"/>
			</g>
		</g>
		<g display="inline">
			<g>
				
					<line fill="none" stroke="#000000" stroke-width="0.25" stroke-miterlimit="10" x1="39.331" y1="48.902" x2="37.831" y2="48.902"/>
				
					<line fill="none" stroke="#000000" stroke-width="0.25" stroke-miterlimit="10" stroke-dasharray="3.0246,3.0246" x1="34.807" y1="48.902" x2="30.27" y2="48.902"/>
				
					<line fill="none" stroke="#000000" stroke-width="0.25" stroke-miterlimit="10" x1="28.758" y1="48.902" x2="27.258" y2="48.902"/>
			</g>
		</g>
		<g display="inline">
			<path d="M23.279,50.145c0.85-1.409,1.219-2.129,1.219-2.568c0-0.14-0.07-0.2-0.26-0.32c-0.2-0.13-0.26-0.229-0.26-0.39
				c0-0.22,0.17-0.369,0.399-0.369c0.3,0,0.52,0.25,0.52,0.55c0,0.569-0.48,1.669-1.31,3.048c-1.039,1.719-2.109,2.868-2.678,2.868
				c-0.3,0-0.51-0.17-0.51-0.43c0-0.22,0.17-0.399,0.39-0.399c0.35,0,0.35,0.279,0.61,0.279c0.13,0,0.25-0.079,0.479-0.329
				c0.18-0.19,0.63-0.78,0.709-0.91c0.06-0.119,0.1-0.239,0.1-0.35c0-0.399-0.55-2.639-0.819-3.318c-0.19-0.489-0.37-0.64-0.77-0.64
				c-0.11,0-0.2,0.011-0.31,0.04v-0.17c0.11-0.02,0.22-0.04,0.32-0.06c0.2-0.04,0.53-0.1,1.069-0.18h0.04
				c0.15,0,0.68,1.659,0.85,2.548L23.279,50.145z"/>
		</g>
		<g display="inline">
			<path d="M39.225,80.745c0.699-1.069,1.069-1.429,1.509-1.429c0.24,0,0.41,0.149,0.41,0.369c0,0.21-0.14,0.36-0.34,0.36
				c-0.19,0-0.28-0.17-0.52-0.17c-0.18,0-0.54,0.439-0.979,1.209c0,0.07,0.02,0.21,0.08,0.45l0.32,1.339
				c0.07,0.28,0.16,0.41,0.3,0.41c0.13,0,0.24-0.101,0.47-0.4c0.09-0.12,0.13-0.18,0.21-0.279l0.15,0.09
				c-0.58,0.899-0.839,1.14-1.219,1.14c-0.32,0-0.47-0.181-0.59-0.68l-0.29-1.189l-0.88,1.189c-0.439,0.589-0.64,0.68-0.949,0.68
				c-0.31,0-0.5-0.16-0.5-0.42c0-0.2,0.14-0.36,0.34-0.36c0.09,0,0.19,0.04,0.32,0.11c0.1,0.06,0.2,0.09,0.26,0.09
				c0.11,0,0.3-0.189,0.51-0.49l0.82-1.159l-0.28-1.239c-0.14-0.6-0.21-0.68-0.46-0.68c-0.08,0-0.2,0.021-0.39,0.07l-0.18,0.05
				l-0.03-0.16l0.11-0.04c0.61-0.22,0.939-0.289,1.169-0.289c0.25,0,0.37,0.18,0.51,0.859L39.225,80.745z"/>
		</g>
	</g>
	<g id="Axis">
		<g>
			<g>
				
					<line fill="none" stroke="#000000" stroke-width="0.25" stroke-linecap="round" stroke-linejoin="round" x1="27.258" y1="75.957" x2="27.258" y2="2.861"/>
				<g>
					<polygon points="28.28,3.69 28.097,3.86 27.258,2.957 26.419,3.86 26.235,3.69 27.258,2.59 					"/>
				</g>
			</g>
		</g>
		<g>
			<g>
				
					<line fill="none" stroke="#000000" stroke-width="0.25" stroke-linecap="round" stroke-linejoin="round" x1="27.258" y1="75.957" x2="117.981" y2="75.957"/>
				<g>
					<polygon points="117.153,76.98 116.982,76.796 117.885,75.957 116.982,75.118 117.153,74.935 118.252,75.957 					"/>
				</g>
			</g>
		</g>
		<g>
			<path d="M112.482,79.991c0.699-1.069,1.069-1.429,1.509-1.429c0.24,0,0.41,0.149,0.41,0.369c0,0.21-0.14,0.36-0.34,0.36
				c-0.19,0-0.28-0.17-0.52-0.17c-0.18,0-0.54,0.439-0.979,1.209c0,0.07,0.02,0.21,0.08,0.45l0.32,1.339
				c0.07,0.28,0.16,0.41,0.3,0.41c0.13,0,0.24-0.101,0.47-0.4c0.09-0.12,0.13-0.18,0.21-0.279l0.15,0.09
				c-0.58,0.899-0.839,1.14-1.219,1.14c-0.32,0-0.47-0.181-0.59-0.68l-0.29-1.189l-0.88,1.189c-0.439,0.589-0.64,0.68-0.949,0.68
				c-0.31,0-0.5-0.16-0.5-0.42c0-0.2,0.14-0.36,0.34-0.36c0.09,0,0.19,0.04,0.32,0.11c0.1,0.06,0.2,0.09,0.26,0.09
				c0.11,0,0.3-0.189,0.51-0.49l0.82-1.159l-0.28-1.239c-0.14-0.6-0.21-0.68-0.46-0.68c-0.08,0-0.2,0.021-0.39,0.07l-0.18,0.05
				l-0.03-0.16l0.11-0.04c0.61-0.22,0.939-0.289,1.169-0.289c0.25,0,0.37,0.18,0.51,0.859L112.482,79.991z"/>
		</g>
		<g>
			<path d="M23.338,5.237c0.85-1.409,1.219-2.129,1.219-2.568c0-0.14-0.07-0.2-0.26-0.32c-0.2-0.13-0.26-0.229-0.26-0.39
				c0-0.22,0.17-0.369,0.399-0.369c0.3,0,0.52,0.25,0.52,0.55c0,0.569-0.48,1.669-1.31,3.048c-1.039,1.719-2.109,2.868-2.678,2.868
				c-0.3,0-0.51-0.17-0.51-0.43c0-0.22,0.17-0.399,0.39-0.399c0.35,0,0.35,0.279,0.61,0.279c0.13,0,0.25-0.079,0.479-0.329
				c0.18-0.19,0.63-0.78,0.709-0.91c0.06-0.119,0.1-0.239,0.1-0.35c0-0.399-0.55-2.639-0.819-3.318c-0.19-0.489-0.37-0.64-0.77-0.64
				c-0.11,0-0.2,0.011-0.31,0.04v-0.17c0.11-0.02,0.22-0.04,0.32-0.06c0.2-0.04,0.53-0.1,1.069-0.18h0.04
				c0.15,0,0.68,1.659,0.85,2.548L23.338,5.237z"/>
		</g>
	</g>
	<path id="R_shaded_00000052094565763644838640000008917437292501621936_" opacity="0.05" fill="#FF0000" d="M89.902,36.221
		c-1.592,10.461-9.995,18.633-22.299,19.16c-12.443,0.532-20.959-8.337-22.299-19.16c-1.3-10.501,13.168-19.16,22.299-19.16
		C84.644,17.061,91.38,26.501,89.902,36.221z"/>
	<path id="R_shaded" fill="none" stroke="#FF0000" stroke-width="0.5" stroke-miterlimit="10" d="M89.902,36.221
		c-1.592,10.461-9.995,18.633-22.299,19.16c-12.443,0.532-20.959-8.337-22.299-19.16c-1.3-10.501,13.168-19.16,22.299-19.16
		C84.644,17.061,91.38,26.501,89.902,36.221z"/>
	<g display="none" opacity="0.2">
		
			<line display="inline" fill="none" stroke="#FF00FF" stroke-width="0.1" stroke-miterlimit="10" x1="50.632" y1="24.129" x2="86.549" y2="24.129"/>
		
			<line display="inline" fill="none" stroke="#FF00FF" stroke-width="0.1" stroke-miterlimit="10" x1="57.217" y1="19.822" x2="81.055" y2="19.822"/>
		
			<line display="inline" fill="none" stroke="#FF00FF" stroke-width="0.1" stroke-miterlimit="10" x1="46.644" y1="28.91" x2="89.369" y2="28.91"/>
		
			<line display="inline" fill="none" stroke="#FF00FF" stroke-width="0.1" stroke-linecap="round" stroke-linejoin="round" stroke-miterlimit="10" x1="45.304" y1="33.898" x2="89.84" y2="33.898"/>
		
			<line display="inline" fill="none" stroke="#FF00FF" stroke-width="0.1" stroke-miterlimit="10" x1="45.44" y1="38.706" x2="89.503" y2="38.706"/>
		
			<line display="inline" fill="none" stroke="#FF00FF" stroke-width="0.1" stroke-miterlimit="10" x1="47.407" y1="43.454" x2="87.529" y2="43.454"/>
		
			<line display="inline" fill="none" stroke="#FF00FF" stroke-width="0.1" stroke-miterlimit="10" x1="50.369" y1="48.368" x2="83.973" y2="48.368"/>
		
			<line display="inline" fill="none" stroke="#FF00FF" stroke-width="0.1" stroke-miterlimit="10" x1="56.357" y1="52.813" x2="77.901" y2="52.813"/>
		
			<line display="inline" fill="none" stroke="#FF00FF" stroke-width="0.1" stroke-miterlimit="10" x1="66.773" y1="55.367" x2="66.773" y2="17.061"/>
		
			<line display="inline" fill="none" stroke="#FF00FF" stroke-width="0.1" stroke-miterlimit="10" x1="71.761" y1="55.048" x2="71.761" y2="17.42"/>
		
			<line display="inline" fill="none" stroke="#FF00FF" stroke-width="0.1" stroke-miterlimit="10" x1="76.528" y1="53.443" x2="76.528" y2="18.1"/>
		
			<line display="inline" fill="none" stroke="#FF00FF" stroke-width="0.1" stroke-miterlimit="10" x1="81.994" y1="50.089" x2="81.994" y2="20.437"/>
		
			<line display="inline" fill="none" stroke="#FF00FF" stroke-width="0.1" stroke-miterlimit="10" x1="86.742" y1="44.819" x2="86.742" y2="24.239"/>
		
			<line display="inline" fill="none" stroke="#FF00FF" stroke-width="0.1" stroke-miterlimit="10" x1="61.454" y1="54.525" x2="61.454" y2="17.841"/>
		
			<line display="inline" fill="none" stroke="#FF00FF" stroke-width="0.1" stroke-miterlimit="10" x1="56.043" y1="52.608" x2="56.043" y2="20.437"/>
		
			<line display="inline" fill="none" stroke="#FF00FF" stroke-width="0.1" stroke-miterlimit="10" x1="50.632" y1="48.368" x2="50.632" y2="24.239"/>
	</g>
	<g>
		<path fill="#FF0000" d="M92.955,16.35c1.319,0,2.039,0.56,2.039,1.409c0,0.479-0.25,0.97-0.66,1.279
			c-0.31,0.24-0.64,0.359-1.31,0.51l0.89,2.349c0.22,0.59,0.42,0.819,0.87,0.819v0.16h-1.469l-1.229-3.238l-0.66-0.05l-0.55,2.028
			c-0.11,0.391-0.13,0.53-0.13,0.63c0,0.3,0.1,0.41,0.67,0.47v0.16h-2.429v-0.16c0.55-0.069,0.689-0.26,0.85-0.85l1.189-4.308
			c0.07-0.27,0.12-0.459,0.12-0.629c0-0.11-0.07-0.23-0.14-0.28c-0.11-0.07-0.15-0.08-0.57-0.14v-0.16H92.955z M91.546,19.219
			c0.25,0.04,0.33,0.05,0.51,0.05c1.189,0,1.889-0.569,1.889-1.499c0-0.689-0.419-1.119-1.199-1.119c-0.31,0-0.52,0.11-0.57,0.3
			L91.546,19.219z"/>
	</g>
</g>
<g id="volume">
</g>
<g id="Layer_2">
	
		<rect x="55.877" y="20.469" fill="#FF00FF" stroke="#FF00FF" stroke-width="0.1" stroke-miterlimit="10" width="0.503" height="32.254"/>
	
		<line display="none" fill="none" stroke="#FF00FF" stroke-width="0.1" stroke-miterlimit="10" x1="58.491" y1="100.045" x2="58.491" y2="66.755"/>
	<g id="xi_x2C_yi">
		
			<line fill="none" stroke="#FF00FF" stroke-width="0.1" stroke-linecap="round" stroke-linejoin="round" stroke-miterlimit="10" stroke-dasharray="3" x1="27.748" y1="20.469" x2="55.988" y2="20.469"/>
		<g id="xi_x2C_yi_00000078006812336956207150000015064349026672544672_">
			
				<line fill="none" stroke="#FF00FF" stroke-width="0.1" stroke-linecap="round" stroke-linejoin="round" stroke-miterlimit="10" stroke-dasharray="3" x1="56.129" y1="52.724" x2="56.129" y2="75.957"/>
		</g>
		
			<line fill="none" stroke="#FF00FF" stroke-width="0.1" stroke-linecap="round" stroke-linejoin="round" stroke-miterlimit="10" stroke-dasharray="3" x1="27.748" y1="52.724" x2="55.988" y2="52.724"/>
	</g>
	<g>
		<path fill="#FF00FF" d="M56.926,79.233c0.699-1.069,1.069-1.429,1.509-1.429c0.24,0,0.41,0.149,0.41,0.369
			c0,0.21-0.14,0.36-0.34,0.36c-0.19,0-0.28-0.17-0.52-0.17c-0.18,0-0.54,0.439-0.979,1.209c0,0.07,0.02,0.21,0.08,0.45l0.32,1.339
			c0.07,0.28,0.16,0.41,0.3,0.41c0.13,0,0.24-0.101,0.47-0.4c0.09-0.12,0.13-0.18,0.21-0.279l0.15,0.09
			c-0.58,0.899-0.839,1.14-1.219,1.14c-0.32,0-0.47-0.181-0.59-0.68l-0.29-1.189l-0.88,1.189c-0.439,0.589-0.64,0.68-0.949,0.68
			c-0.31,0-0.5-0.16-0.5-0.42c0-0.2,0.14-0.36,0.34-0.36c0.09,0,0.19,0.04,0.32,0.11c0.1,0.06,0.2,0.09,0.26,0.09
			c0.11,0,0.3-0.189,0.51-0.49l0.82-1.159l-0.28-1.239c-0.14-0.6-0.21-0.68-0.46-0.68c-0.08,0-0.2,0.021-0.39,0.07l-0.18,0.05
			l-0.03-0.16l0.11-0.04c0.61-0.22,0.939-0.289,1.169-0.289c0.25,0,0.37,0.18,0.51,0.859L56.926,79.233z"/>
	</g>
	<g>
		<path fill="#FF00FF" d="M4.811,22.117c0.85-1.409,1.219-2.129,1.219-2.568c0-0.14-0.07-0.2-0.26-0.32
			c-0.2-0.13-0.26-0.229-0.26-0.39c0-0.22,0.17-0.369,0.399-0.369c0.3,0,0.52,0.25,0.52,0.55c0,0.569-0.48,1.669-1.31,3.048
			c-1.039,1.719-2.109,2.868-2.678,2.868c-0.3,0-0.51-0.17-0.51-0.43c0-0.22,0.17-0.399,0.39-0.399c0.35,0,0.35,0.279,0.61,0.279
			c0.13,0,0.25-0.079,0.479-0.329c0.18-0.19,0.63-0.78,0.709-0.91c0.06-0.119,0.1-0.239,0.1-0.35c0-0.399-0.55-2.639-0.819-3.318
			c-0.19-0.489-0.37-0.64-0.77-0.64c-0.11,0-0.2,0.011-0.31,0.04v-0.17c0.11-0.02,0.22-0.04,0.32-0.06c0.2-0.04,0.53-0.1,1.069-0.18
			h0.04c0.15,0,0.68,1.659,0.85,2.548L4.811,22.117z"/>
		<path fill="#FF00FF" d="M10.111,22.387c-0.266,0.37-0.485,0.535-0.721,0.535c-0.13,0-0.2-0.08-0.2-0.23
			c0-0.05,0.015-0.135,0.065-0.33l0.291-1.136c0.025-0.101,0.035-0.165,0.035-0.19c0-0.06-0.045-0.105-0.1-0.105
			c-0.15,0-0.405,0.235-0.655,0.586c-0.246,0.346-0.346,0.591-0.541,1.361H7.909l0.135-0.466c0.221-0.761,0.341-1.291,0.341-1.355
			c0-0.08-0.045-0.126-0.11-0.126c-0.17,0-0.465,0.291-0.746,0.716c-0.17,0.261-0.24,0.44-0.48,1.231H6.672l0.215-0.721
			c0.2-0.666,0.275-1.081,0.275-1.142c0-0.074-0.07-0.109-0.205-0.109H6.833v-0.08l0.811-0.155l0.015,0.01l-0.29,1.046
			C7.814,21,8.164,20.67,8.469,20.67c0.2,0,0.3,0.12,0.3,0.3c0,0.096-0.065,0.376-0.2,0.761c0.35-0.556,0.555-0.806,0.801-0.961
			c0.12-0.075,0.215-0.1,0.315-0.1c0.186,0,0.291,0.135,0.291,0.315c0,0.035-0.01,0.115-0.015,0.14l-0.34,1.257
			c-0.03,0.115-0.05,0.205-0.05,0.225c0,0.056,0.02,0.08,0.06,0.08c0.085,0,0.175-0.08,0.325-0.265l0.105-0.131l0.075,0.061
			L10.111,22.387z"/>
		<path fill="#FF00FF" d="M12.605,22.376c-0.375,0.456-0.496,0.551-0.696,0.551c-0.14,0-0.2-0.06-0.2-0.205
			c0-0.125,0.01-0.165,0.115-0.575c-0.375,0.565-0.666,0.785-1.016,0.785c-0.28,0-0.5-0.2-0.5-0.58c0-0.776,0.766-1.682,1.432-1.682
			c0.215,0,0.36,0.104,0.4,0.29l0.055-0.24l0.015-0.015l0.305-0.035l0.035,0.015c-0.01,0.045-0.015,0.056-0.03,0.105
			c-0.235,0.855-0.446,1.717-0.446,1.816c0,0.035,0.03,0.065,0.07,0.065c0.045,0,0.11-0.04,0.26-0.205l0.135-0.146L12.605,22.376z
			 M11.769,20.78c-0.225,0-0.445,0.154-0.656,0.46c-0.21,0.315-0.385,0.761-0.385,1.076c0,0.275,0.12,0.37,0.3,0.37
			c0.25,0,0.485-0.275,0.636-0.49c0.235-0.34,0.385-0.771,0.385-1.126C12.049,20.895,11.944,20.78,11.769,20.78z"/>
		<path fill="#FF00FF" d="M14.003,21.386c0.35-0.536,0.535-0.716,0.756-0.716c0.12,0,0.205,0.075,0.205,0.185
			c0,0.105-0.07,0.181-0.17,0.181c-0.095,0-0.14-0.085-0.26-0.085c-0.09,0-0.27,0.22-0.49,0.605c0,0.035,0.01,0.105,0.04,0.226
			l0.16,0.67c0.035,0.141,0.08,0.206,0.15,0.206c0.065,0,0.12-0.051,0.235-0.201c0.045-0.06,0.065-0.09,0.105-0.14l0.075,0.045
			c-0.29,0.45-0.42,0.57-0.61,0.57c-0.16,0-0.235-0.09-0.295-0.34l-0.145-0.596l-0.44,0.596c-0.221,0.295-0.32,0.34-0.476,0.34
			s-0.25-0.08-0.25-0.21c0-0.1,0.07-0.18,0.17-0.18c0.045,0,0.095,0.02,0.16,0.055c0.05,0.03,0.1,0.045,0.13,0.045
			c0.055,0,0.15-0.095,0.255-0.245l0.411-0.581l-0.141-0.62c-0.07-0.3-0.105-0.341-0.23-0.341c-0.04,0-0.1,0.011-0.195,0.035
			l-0.09,0.025l-0.015-0.08l0.055-0.02c0.305-0.11,0.47-0.146,0.585-0.146c0.125,0,0.185,0.09,0.255,0.431L14.003,21.386z"/>
		<path fill="#FF00FF" d="M18.095,16.341c-1.52,1.438-2.039,3.647-2.039,5.687c0,0.97,0.11,1.579,0.48,2.599l-0.18,0.06
			c-0.64-1.029-0.989-2.328-0.989-3.607c0-1.029,0.22-2.049,0.739-2.898c0.39-0.63,0.939-1.149,1.859-1.989L18.095,16.341z"/>
		<path fill="#FF00FF" d="M20.826,19.898c0.699-1.069,1.069-1.429,1.509-1.429c0.24,0,0.41,0.149,0.41,0.369
			c0,0.21-0.14,0.36-0.34,0.36c-0.19,0-0.28-0.17-0.52-0.17c-0.18,0-0.54,0.439-0.979,1.209c0,0.07,0.02,0.21,0.08,0.45l0.32,1.339
			c0.07,0.28,0.16,0.41,0.3,0.41c0.13,0,0.24-0.101,0.47-0.4c0.09-0.12,0.13-0.18,0.21-0.279l0.15,0.09
			c-0.58,0.899-0.839,1.14-1.219,1.14c-0.32,0-0.47-0.181-0.59-0.68l-0.29-1.189l-0.88,1.189c-0.439,0.589-0.64,0.68-0.949,0.68
			c-0.31,0-0.5-0.16-0.5-0.42c0-0.2,0.14-0.36,0.34-0.36c0.09,0,0.19,0.04,0.32,0.11c0.1,0.06,0.2,0.09,0.26,0.09
			c0.11,0,0.3-0.189,0.51-0.49l0.82-1.159l-0.28-1.239c-0.14-0.6-0.21-0.68-0.46-0.68c-0.08,0-0.2,0.021-0.39,0.07l-0.18,0.05
			l-0.03-0.16l0.11-0.04c0.61-0.22,0.939-0.289,1.169-0.289c0.25,0,0.37,0.18,0.51,0.859L20.826,19.898z"/>
		<path fill="#FF00FF" d="M24.616,16.19c0.47,0.84,0.63,1.229,0.8,1.969c0.12,0.561,0.189,1.14,0.189,1.68
			c0,1.009-0.28,1.959-0.779,2.818c-0.39,0.67-0.91,1.229-1.819,2.019l-0.13-0.149c0.84-0.89,1.209-1.56,1.549-2.619
			c0.31-0.959,0.49-2.108,0.49-3.048c0-1-0.15-1.81-0.49-2.619L24.616,16.19z"/>
	</g>
	<g>
		<path fill="#FF00FF" d="M62.232,31.201l-0.18-0.03c0-1.02-0.22-1.629-1.189-1.629c-0.689,0-1.119,0.369-1.119,0.999
			c0,0.49,0.08,0.649,0.989,1.56c0.91,0.919,1.129,1.349,1.129,1.999c0,1.139-0.87,1.948-2.019,1.948
			c-0.31,0-0.58-0.069-1.039-0.229c-0.27-0.101-0.36-0.12-0.47-0.12c-0.2,0-0.36,0.09-0.43,0.32h-0.18l0.34-2.239l0.2,0.02
			c-0.02,0.091-0.02,0.16-0.02,0.23c0,0.979,0.6,1.669,1.439,1.669c0.77,0,1.309-0.52,1.309-1.279c0-0.43-0.14-0.729-0.6-1.229
			l-0.39-0.42c-0.14-0.149-0.26-0.289-0.39-0.42c-0.6-0.639-0.75-0.959-0.75-1.499c0-1.049,0.82-1.639,1.779-1.639
			c0.31,0,0.64,0.05,0.85,0.14c0.21,0.08,0.33,0.11,0.459,0.11c0.22,0,0.31-0.05,0.45-0.26h0.23L62.232,31.201z"/>
		<path fill="#FF00FF" d="M65.703,29.332c-1.52,1.438-2.039,3.647-2.039,5.687c0,0.97,0.11,1.579,0.48,2.599l-0.18,0.06
			c-0.64-1.029-0.989-2.328-0.989-3.607c0-1.029,0.22-2.049,0.739-2.898c0.39-0.63,0.939-1.149,1.859-1.989L65.703,29.332z"/>
		<path fill="#FF00FF" d="M68.433,32.889c0.699-1.069,1.069-1.429,1.509-1.429c0.24,0,0.41,0.149,0.41,0.369
			c0,0.21-0.14,0.36-0.34,0.36c-0.19,0-0.28-0.17-0.52-0.17c-0.18,0-0.54,0.439-0.979,1.209c0,0.07,0.02,0.21,0.08,0.45l0.32,1.339
			c0.07,0.28,0.16,0.41,0.3,0.41c0.13,0,0.24-0.101,0.47-0.4c0.09-0.12,0.13-0.18,0.21-0.279l0.15,0.09
			c-0.58,0.899-0.839,1.14-1.219,1.14c-0.32,0-0.47-0.181-0.59-0.68l-0.29-1.189l-0.88,1.189c-0.439,0.589-0.64,0.68-0.949,0.68
			c-0.31,0-0.5-0.16-0.5-0.42c0-0.2,0.14-0.36,0.34-0.36c0.09,0,0.19,0.04,0.32,0.11c0.1,0.06,0.2,0.09,0.26,0.09
			c0.11,0,0.3-0.189,0.51-0.49l0.82-1.159l-0.28-1.239c-0.14-0.6-0.21-0.68-0.46-0.68c-0.08,0-0.2,0.021-0.39,0.07l-0.18,0.05
			l-0.03-0.16l0.11-0.04c0.61-0.22,0.939-0.289,1.169-0.289c0.25,0,0.37,0.18,0.51,0.859L68.433,32.889z"/>
		<path fill="#FF00FF" d="M72.223,29.181c0.47,0.84,0.63,1.229,0.8,1.969c0.12,0.561,0.189,1.14,0.189,1.68
			c0,1.009-0.28,1.959-0.779,2.818c-0.39,0.67-0.91,1.229-1.819,2.019l-0.13-0.149c0.84-0.89,1.209-1.56,1.549-2.619
			c0.31-0.959,0.49-2.108,0.49-3.048c0-1-0.15-1.81-0.49-2.619L72.223,29.181z"/>
	</g>
	
		<rect x="66.773" y="28.91" display="none" fill="#FFD1FF" stroke="#FF00FF" stroke-width="0.25" stroke-miterlimit="10" width="4.988" height="4.988"/>
	<g>
		<path fill="#FF00FF" d="M5.829,54.24c0.85-1.409,1.219-2.129,1.219-2.568c0-0.14-0.07-0.2-0.26-0.32
			c-0.2-0.13-0.26-0.229-0.26-0.39c0-0.22,0.17-0.369,0.399-0.369c0.3,0,0.52,0.25,0.52,0.55c0,0.569-0.48,1.669-1.31,3.048
			C5.1,55.909,4.03,57.058,3.461,57.058c-0.3,0-0.51-0.17-0.51-0.43c0-0.22,0.17-0.399,0.39-0.399c0.35,0,0.35,0.279,0.61,0.279
			c0.13,0,0.25-0.079,0.479-0.329c0.18-0.19,0.63-0.78,0.709-0.91c0.06-0.119,0.1-0.239,0.1-0.35c0-0.399-0.55-2.639-0.819-3.318
			c-0.19-0.489-0.37-0.64-0.77-0.64c-0.11,0-0.2,0.011-0.31,0.04v-0.17c0.11-0.02,0.22-0.04,0.32-0.06c0.2-0.04,0.53-0.1,1.069-0.18
			h0.04c0.15,0,0.68,1.659,0.85,2.548L5.829,54.24z"/>
		<path fill="#FF00FF" d="M11.129,54.509c-0.266,0.37-0.485,0.535-0.721,0.535c-0.13,0-0.2-0.08-0.2-0.23
			c0-0.05,0.015-0.135,0.065-0.33l0.291-1.136c0.025-0.101,0.035-0.165,0.035-0.19c0-0.06-0.045-0.105-0.1-0.105
			c-0.15,0-0.405,0.235-0.655,0.586c-0.246,0.346-0.346,0.591-0.541,1.361H8.927l0.135-0.466c0.221-0.761,0.341-1.291,0.341-1.355
			c0-0.08-0.045-0.126-0.11-0.126c-0.17,0-0.465,0.291-0.746,0.716c-0.17,0.261-0.24,0.44-0.48,1.231H7.69l0.215-0.721
			c0.2-0.666,0.275-1.081,0.275-1.142c0-0.074-0.07-0.109-0.205-0.109H7.851v-0.08l0.811-0.155l0.015,0.01l-0.29,1.046
			c0.445-0.726,0.795-1.056,1.101-1.056c0.2,0,0.3,0.12,0.3,0.3c0,0.096-0.065,0.376-0.2,0.761c0.35-0.556,0.555-0.806,0.801-0.961
			c0.12-0.075,0.215-0.1,0.315-0.1c0.186,0,0.291,0.135,0.291,0.315c0,0.035-0.01,0.115-0.015,0.14l-0.34,1.257
			c-0.03,0.115-0.05,0.205-0.05,0.225c0,0.056,0.02,0.08,0.06,0.08c0.085,0,0.175-0.08,0.325-0.265l0.105-0.131l0.075,0.061
			L11.129,54.509z"/>
		<path fill="#FF00FF" d="M12.417,54.484c-0.275,0.421-0.436,0.57-0.686,0.57c-0.165,0-0.245-0.09-0.245-0.274
			c0-0.101,0.035-0.275,0.11-0.556l0.24-0.886c0.025-0.091,0.045-0.181,0.045-0.221c0-0.1-0.05-0.115-0.32-0.12v-0.08
			c0.195-0.015,0.295-0.03,0.801-0.125l0.02,0.015l-0.47,1.717c-0.025,0.085-0.05,0.15-0.05,0.221c0,0.05,0.03,0.074,0.07,0.074
			c0.085,0,0.206-0.104,0.421-0.39L12.417,54.484z M12.316,52.256c-0.146,0-0.24-0.104-0.24-0.265c0-0.155,0.1-0.266,0.235-0.266
			c0.135,0,0.25,0.13,0.25,0.275C12.562,52.142,12.446,52.256,12.316,52.256z"/>
		<path fill="#FF00FF" d="M15.003,54.479c-0.341,0.466-0.466,0.565-0.701,0.565c-0.125,0-0.235-0.08-0.235-0.271
			c0-0.05,0.01-0.115,0.08-0.375l0.22-0.811c0.04-0.155,0.07-0.336,0.07-0.396c0-0.09-0.045-0.146-0.12-0.146
			c-0.2,0-0.425,0.245-0.741,0.711c-0.225,0.335-0.265,0.45-0.5,1.241H12.7l0.48-1.752c0.005-0.024,0.01-0.055,0.01-0.085
			c0-0.1-0.07-0.13-0.325-0.135v-0.08c0.405-0.08,0.545-0.101,0.811-0.155l0.02,0.01l-0.335,1.091
			c0.5-0.801,0.835-1.101,1.156-1.101c0.215,0,0.326,0.125,0.326,0.306c0,0.09-0.021,0.194-0.05,0.3l-0.28,1.016
			c-0.05,0.181-0.07,0.266-0.07,0.306c0,0.045,0.02,0.09,0.08,0.09c0.07,0,0.16-0.08,0.305-0.265c0.035-0.04,0.07-0.085,0.105-0.131
			L15.003,54.479z"/>
		<path fill="#FF00FF" d="M18.279,48.463c-1.52,1.438-2.039,3.647-2.039,5.687c0,0.97,0.11,1.579,0.48,2.599l-0.18,0.06
			c-0.64-1.029-0.989-2.328-0.989-3.607c0-1.029,0.22-2.049,0.739-2.898c0.39-0.63,0.939-1.149,1.859-1.989L18.279,48.463z"/>
		<path fill="#FF00FF" d="M21.009,52.021c0.699-1.069,1.069-1.429,1.509-1.429c0.24,0,0.41,0.149,0.41,0.369
			c0,0.21-0.14,0.36-0.34,0.36c-0.19,0-0.28-0.17-0.52-0.17c-0.18,0-0.54,0.439-0.979,1.209c0,0.07,0.02,0.21,0.08,0.45l0.32,1.339
			c0.07,0.28,0.16,0.41,0.3,0.41c0.13,0,0.24-0.101,0.47-0.4c0.09-0.12,0.13-0.18,0.21-0.279l0.15,0.09
			c-0.58,0.899-0.839,1.14-1.219,1.14c-0.32,0-0.47-0.181-0.59-0.68l-0.29-1.189l-0.88,1.189C19.2,55.019,19,55.11,18.69,55.11
			c-0.31,0-0.5-0.16-0.5-0.42c0-0.2,0.14-0.36,0.34-0.36c0.09,0,0.19,0.04,0.32,0.11c0.1,0.06,0.2,0.09,0.26,0.09
			c0.11,0,0.3-0.189,0.51-0.49l0.82-1.159l-0.28-1.239c-0.14-0.6-0.21-0.68-0.46-0.68c-0.08,0-0.2,0.021-0.39,0.07l-0.18,0.05
			l-0.03-0.16l0.11-0.04c0.61-0.22,0.939-0.289,1.169-0.289c0.25,0,0.37,0.18,0.51,0.859L21.009,52.021z"/>
		<path fill="#FF00FF" d="M24.799,48.313c0.47,0.84,0.63,1.229,0.8,1.969c0.12,0.561,0.189,1.14,0.189,1.68
			c0,1.009-0.28,1.959-0.779,2.818c-0.39,0.67-0.91,1.229-1.819,2.019l-0.13-0.149c0.84-0.89,1.209-1.56,1.549-2.619
			c0.31-0.959,0.49-2.108,0.49-3.048c0-1-0.15-1.81-0.49-2.619L24.799,48.313z"/>
	</g>
	<g>
	</g>
</g>
</svg>
