<?xml version="1.0" encoding="utf-8"?>
<!-- Generator: Adobe Illustrator 25.4.1, SVG Export Plug-In . SVG Version: 6.00 Build 0)  -->
<svg version="1.1" xmlns="http://www.w3.org/2000/svg" xmlns:xlink="http://www.w3.org/1999/xlink" x="0px" y="0px"
	 viewBox="0 0 51.092 39.718" enable-background="new 0 0 51.092 39.718" xml:space="preserve">
<g id="Graph_paper" opacity="0.5">
	<g id="Clipped_grid">
		<defs>
			<rect id="SVGID_1_" x="-2.693" y="-3.405" width="56.393" height="46.086"/>
		</defs>
		<clipPath id="SVGID_00000016759703192227666130000011378722479870143663_">
			<use xlink:href="#SVGID_1_"  overflow="visible"/>
		</clipPath>
		<g id="Grid" opacity="0.25" clip-path="url(#SVGID_00000016759703192227666130000011378722479870143663_)">
			<g id="Horizontal_1_mm">
				
					<line fill="none" stroke="#00ABEB" stroke-width="0.15" stroke-miterlimit="10" x1="-18.566" y1="-49.378" x2="208.275" y2="-49.378"/>
				
					<line fill="none" stroke="#00ABEB" stroke-width="0.15" stroke-miterlimit="10" x1="-18.566" y1="-52.213" x2="208.275" y2="-52.213"/>
				
					<line fill="none" stroke="#00ABEB" stroke-width="0.15" stroke-miterlimit="10" x1="-18.566" y1="117.867" x2="208.275" y2="117.867"/>
				
					<line fill="none" stroke="#00ABEB" stroke-width="0.15" stroke-miterlimit="10" x1="-18.566" y1="115.032" x2="208.275" y2="115.032"/>
				
					<line fill="none" stroke="#00ABEB" stroke-width="0.15" stroke-miterlimit="10" x1="-18.566" y1="112.198" x2="208.275" y2="112.198"/>
				
					<line fill="none" stroke="#00ABEB" stroke-width="0.15" stroke-miterlimit="10" x1="-18.566" y1="109.363" x2="208.275" y2="109.363"/>
				
					<line fill="none" stroke="#00ABEB" stroke-width="0.15" stroke-miterlimit="10" x1="-18.566" y1="106.528" x2="208.275" y2="106.528"/>
				
					<line fill="none" stroke="#00ABEB" stroke-width="0.15" stroke-miterlimit="10" x1="-18.566" y1="103.694" x2="208.275" y2="103.694"/>
				
					<line fill="none" stroke="#00ABEB" stroke-width="0.15" stroke-miterlimit="10" x1="-18.566" y1="100.859" x2="208.275" y2="100.859"/>
				
					<line fill="none" stroke="#00ABEB" stroke-width="0.15" stroke-miterlimit="10" x1="-18.566" y1="98.025" x2="208.275" y2="98.025"/>
				
					<line fill="none" stroke="#00ABEB" stroke-width="0.15" stroke-miterlimit="10" x1="-18.566" y1="95.189" x2="208.275" y2="95.189"/>
				
					<line fill="none" stroke="#00ABEB" stroke-width="0.15" stroke-miterlimit="10" x1="-18.566" y1="92.354" x2="208.275" y2="92.354"/>
				
					<line fill="none" stroke="#00ABEB" stroke-width="0.15" stroke-miterlimit="10" x1="-18.566" y1="89.52" x2="208.275" y2="89.52"/>
				
					<line fill="none" stroke="#00ABEB" stroke-width="0.15" stroke-miterlimit="10" x1="-18.566" y1="86.685" x2="208.275" y2="86.685"/>
				
					<line fill="none" stroke="#00ABEB" stroke-width="0.15" stroke-miterlimit="10" x1="-18.566" y1="83.85" x2="208.275" y2="83.85"/>
				
					<line fill="none" stroke="#00ABEB" stroke-width="0.15" stroke-miterlimit="10" x1="-18.566" y1="81.016" x2="208.275" y2="81.016"/>
				
					<line fill="none" stroke="#00ABEB" stroke-width="0.15" stroke-miterlimit="10" x1="-18.566" y1="78.181" x2="208.275" y2="78.181"/>
				
					<line fill="none" stroke="#00ABEB" stroke-width="0.15" stroke-miterlimit="10" x1="-18.566" y1="75.347" x2="208.275" y2="75.347"/>
				
					<line fill="none" stroke="#00ABEB" stroke-width="0.15" stroke-miterlimit="10" x1="-18.566" y1="72.513" x2="208.275" y2="72.513"/>
				
					<line fill="none" stroke="#00ABEB" stroke-width="0.15" stroke-miterlimit="10" x1="-18.566" y1="69.678" x2="208.275" y2="69.678"/>
				
					<line fill="none" stroke="#00ABEB" stroke-width="0.15" stroke-miterlimit="10" x1="-18.566" y1="66.843" x2="208.275" y2="66.843"/>
				
					<line fill="none" stroke="#00ABEB" stroke-width="0.15" stroke-miterlimit="10" x1="-18.566" y1="64.009" x2="208.275" y2="64.009"/>
				
					<line fill="none" stroke="#00ABEB" stroke-width="0.15" stroke-miterlimit="10" x1="-18.566" y1="61.174" x2="208.275" y2="61.174"/>
				
					<line fill="none" stroke="#00ABEB" stroke-width="0.15" stroke-miterlimit="10" x1="-18.566" y1="58.338" x2="208.275" y2="58.338"/>
				
					<line fill="none" stroke="#00ABEB" stroke-width="0.15" stroke-miterlimit="10" x1="-18.566" y1="55.504" x2="208.275" y2="55.504"/>
				
					<line fill="none" stroke="#00ABEB" stroke-width="0.15" stroke-miterlimit="10" x1="-18.566" y1="52.669" x2="208.275" y2="52.669"/>
				
					<line fill="none" stroke="#00ABEB" stroke-width="0.15" stroke-miterlimit="10" x1="-18.566" y1="49.835" x2="208.275" y2="49.835"/>
				<line fill="none" stroke="#00ABEB" stroke-width="0.15" stroke-miterlimit="10" x1="-18.566" y1="47" x2="208.275" y2="47"/>
				
					<line fill="none" stroke="#00ABEB" stroke-width="0.15" stroke-miterlimit="10" x1="-18.566" y1="44.165" x2="208.275" y2="44.165"/>
				
					<line fill="none" stroke="#00ABEB" stroke-width="0.15" stroke-miterlimit="10" x1="-18.566" y1="41.331" x2="208.275" y2="41.331"/>
				
					<line fill="none" stroke="#00ABEB" stroke-width="0.15" stroke-miterlimit="10" x1="-18.566" y1="38.496" x2="208.275" y2="38.496"/>
				
					<line fill="none" stroke="#00ABEB" stroke-width="0.15" stroke-miterlimit="10" x1="-18.566" y1="35.661" x2="208.275" y2="35.661"/>
				
					<line fill="none" stroke="#00ABEB" stroke-width="0.15" stroke-miterlimit="10" x1="-18.566" y1="32.827" x2="208.275" y2="32.827"/>
				
					<line fill="none" stroke="#00ABEB" stroke-width="0.15" stroke-miterlimit="10" x1="-18.566" y1="29.993" x2="208.275" y2="29.993"/>
				
					<line fill="none" stroke="#00ABEB" stroke-width="0.15" stroke-miterlimit="10" x1="-18.566" y1="27.158" x2="208.275" y2="27.158"/>
				
					<line fill="none" stroke="#00ABEB" stroke-width="0.15" stroke-miterlimit="10" x1="-18.566" y1="24.324" x2="208.275" y2="24.324"/>
				
					<line fill="none" stroke="#00ABEB" stroke-width="0.15" stroke-miterlimit="10" x1="-18.566" y1="21.489" x2="208.275" y2="21.489"/>
				
					<line fill="none" stroke="#00ABEB" stroke-width="0.15" stroke-miterlimit="10" x1="-18.566" y1="18.654" x2="208.275" y2="18.654"/>
				
					<line fill="none" stroke="#00ABEB" stroke-width="0.15" stroke-miterlimit="10" x1="-18.566" y1="15.82" x2="208.275" y2="15.82"/>
				
					<line fill="none" stroke="#00ABEB" stroke-width="0.15" stroke-miterlimit="10" x1="-18.566" y1="12.985" x2="208.275" y2="12.985"/>
				
					<line fill="none" stroke="#00ABEB" stroke-width="0.15" stroke-miterlimit="10" x1="-18.566" y1="10.15" x2="208.275" y2="10.15"/>
				
					<line fill="none" stroke="#00ABEB" stroke-width="0.15" stroke-miterlimit="10" x1="-18.566" y1="7.316" x2="208.275" y2="7.316"/>
				
					<line fill="none" stroke="#00ABEB" stroke-width="0.15" stroke-miterlimit="10" x1="-18.566" y1="4.48" x2="208.275" y2="4.48"/>
				
					<line fill="none" stroke="#00ABEB" stroke-width="0.15" stroke-miterlimit="10" x1="-18.566" y1="1.646" x2="208.275" y2="1.646"/>
				
					<line fill="none" stroke="#00ABEB" stroke-width="0.15" stroke-miterlimit="10" x1="-18.566" y1="-1.189" x2="208.275" y2="-1.189"/>
				
					<line fill="none" stroke="#00ABEB" stroke-width="0.15" stroke-miterlimit="10" x1="-18.566" y1="-4.024" x2="208.275" y2="-4.024"/>
				
					<line fill="none" stroke="#00ABEB" stroke-width="0.15" stroke-miterlimit="10" x1="-18.566" y1="-6.858" x2="208.275" y2="-6.858"/>
				
					<line fill="none" stroke="#00ABEB" stroke-width="0.15" stroke-miterlimit="10" x1="-18.566" y1="-9.693" x2="208.275" y2="-9.693"/>
				
					<line fill="none" stroke="#00ABEB" stroke-width="0.15" stroke-miterlimit="10" x1="-18.566" y1="-12.528" x2="208.275" y2="-12.528"/>
				
					<line fill="none" stroke="#00ABEB" stroke-width="0.15" stroke-miterlimit="10" x1="-18.566" y1="-15.362" x2="208.275" y2="-15.362"/>
				
					<line fill="none" stroke="#00ABEB" stroke-width="0.15" stroke-miterlimit="10" x1="-18.566" y1="-18.196" x2="208.275" y2="-18.196"/>
				
					<line fill="none" stroke="#00ABEB" stroke-width="0.15" stroke-miterlimit="10" x1="-18.566" y1="-21.031" x2="208.275" y2="-21.031"/>
				
					<line fill="none" stroke="#00ABEB" stroke-width="0.15" stroke-miterlimit="10" x1="-18.566" y1="-23.865" x2="208.275" y2="-23.865"/>
				
					<line fill="none" stroke="#00ABEB" stroke-width="0.15" stroke-miterlimit="10" x1="-18.566" y1="-26.7" x2="208.275" y2="-26.7"/>
				
					<line fill="none" stroke="#00ABEB" stroke-width="0.15" stroke-miterlimit="10" x1="-18.566" y1="-29.535" x2="208.275" y2="-29.535"/>
				
					<line fill="none" stroke="#00ABEB" stroke-width="0.15" stroke-miterlimit="10" x1="-18.566" y1="-32.369" x2="208.275" y2="-32.369"/>
				
					<line fill="none" stroke="#00ABEB" stroke-width="0.15" stroke-miterlimit="10" x1="-18.566" y1="-35.205" x2="208.275" y2="-35.205"/>
				
					<line fill="none" stroke="#00ABEB" stroke-width="0.15" stroke-miterlimit="10" x1="-18.566" y1="-38.039" x2="208.275" y2="-38.039"/>
				
					<line fill="none" stroke="#00ABEB" stroke-width="0.15" stroke-miterlimit="10" x1="-18.566" y1="-40.874" x2="208.275" y2="-40.874"/>
				
					<line fill="none" stroke="#00ABEB" stroke-width="0.15" stroke-miterlimit="10" x1="-18.566" y1="-43.709" x2="208.275" y2="-43.709"/>
				
					<line fill="none" stroke="#00ABEB" stroke-width="0.15" stroke-miterlimit="10" x1="-18.566" y1="-46.543" x2="208.275" y2="-46.543"/>
			</g>
			<g id="Vertical_1_mm">
				<g>
					
						<line fill="none" stroke="#00ABEB" stroke-width="0.15" stroke-miterlimit="10" x1="-18.49" y1="117.853" x2="-18.49" y2="-52.288"/>
				</g>
				
					<line fill="none" stroke="#00ABEB" stroke-width="0.15" stroke-miterlimit="10" x1="-15.656" y1="117.853" x2="-15.656" y2="-52.288"/>
				
					<line fill="none" stroke="#00ABEB" stroke-width="0.15" stroke-miterlimit="10" x1="-12.821" y1="117.853" x2="-12.821" y2="-52.288"/>
				
					<line fill="none" stroke="#00ABEB" stroke-width="0.15" stroke-miterlimit="10" x1="-9.987" y1="117.853" x2="-9.987" y2="-52.288"/>
				
					<line fill="none" stroke="#00ABEB" stroke-width="0.15" stroke-miterlimit="10" x1="-7.153" y1="117.853" x2="-7.153" y2="-52.288"/>
				
					<line fill="none" stroke="#00ABEB" stroke-width="0.15" stroke-miterlimit="10" x1="-4.318" y1="117.853" x2="-4.318" y2="-52.288"/>
				
					<line fill="none" stroke="#00ABEB" stroke-width="0.15" stroke-miterlimit="10" x1="-1.483" y1="117.853" x2="-1.483" y2="-52.288"/>
				
					<line fill="none" stroke="#00ABEB" stroke-width="0.15" stroke-miterlimit="10" x1="1.351" y1="117.853" x2="1.351" y2="-52.288"/>
				
					<line fill="none" stroke="#00ABEB" stroke-width="0.15" stroke-miterlimit="10" x1="4.187" y1="117.853" x2="4.187" y2="-52.288"/>
				
					<line fill="none" stroke="#00ABEB" stroke-width="0.15" stroke-miterlimit="10" x1="7.021" y1="117.853" x2="7.021" y2="-52.288"/>
				
					<line fill="none" stroke="#00ABEB" stroke-width="0.15" stroke-miterlimit="10" x1="9.856" y1="117.853" x2="9.856" y2="-52.288"/>
				
					<line fill="none" stroke="#00ABEB" stroke-width="0.15" stroke-miterlimit="10" x1="12.691" y1="117.853" x2="12.691" y2="-52.288"/>
				
					<line fill="none" stroke="#00ABEB" stroke-width="0.15" stroke-miterlimit="10" x1="15.525" y1="117.853" x2="15.525" y2="-52.288"/>
				
					<line fill="none" stroke="#00ABEB" stroke-width="0.15" stroke-miterlimit="10" x1="18.36" y1="117.853" x2="18.36" y2="-52.288"/>
				
					<line fill="none" stroke="#00ABEB" stroke-width="0.15" stroke-miterlimit="10" x1="21.195" y1="117.853" x2="21.195" y2="-52.288"/>
				
					<line fill="none" stroke="#00ABEB" stroke-width="0.15" stroke-miterlimit="10" x1="24.029" y1="117.853" x2="24.029" y2="-52.288"/>
				
					<line fill="none" stroke="#00ABEB" stroke-width="0.15" stroke-miterlimit="10" x1="26.864" y1="117.853" x2="26.864" y2="-52.288"/>
				
					<line fill="none" stroke="#00ABEB" stroke-width="0.15" stroke-miterlimit="10" x1="29.699" y1="117.853" x2="29.699" y2="-52.288"/>
				
					<line fill="none" stroke="#00ABEB" stroke-width="0.15" stroke-miterlimit="10" x1="32.533" y1="117.853" x2="32.533" y2="-52.288"/>
				
					<line fill="none" stroke="#00ABEB" stroke-width="0.15" stroke-miterlimit="10" x1="35.368" y1="117.853" x2="35.368" y2="-52.288"/>
				
					<line fill="none" stroke="#00ABEB" stroke-width="0.15" stroke-miterlimit="10" x1="38.202" y1="117.853" x2="38.202" y2="-52.288"/>
				
					<line fill="none" stroke="#00ABEB" stroke-width="0.15" stroke-miterlimit="10" x1="41.036" y1="117.853" x2="41.036" y2="-52.288"/>
				
					<line fill="none" stroke="#00ABEB" stroke-width="0.15" stroke-miterlimit="10" x1="43.871" y1="117.853" x2="43.871" y2="-52.288"/>
				
					<line fill="none" stroke="#00ABEB" stroke-width="0.15" stroke-miterlimit="10" x1="46.706" y1="117.853" x2="46.706" y2="-52.288"/>
				
					<line fill="none" stroke="#00ABEB" stroke-width="0.15" stroke-miterlimit="10" x1="49.541" y1="117.853" x2="49.541" y2="-52.288"/>
				
					<line fill="none" stroke="#00ABEB" stroke-width="0.15" stroke-miterlimit="10" x1="52.376" y1="117.853" x2="52.376" y2="-52.288"/>
				
					<line fill="none" stroke="#00ABEB" stroke-width="0.15" stroke-miterlimit="10" x1="55.21" y1="117.853" x2="55.21" y2="-52.288"/>
				
					<line fill="none" stroke="#00ABEB" stroke-width="0.15" stroke-miterlimit="10" x1="58.045" y1="117.853" x2="58.045" y2="-52.288"/>
				
					<line fill="none" stroke="#00ABEB" stroke-width="0.15" stroke-miterlimit="10" x1="60.88" y1="117.853" x2="60.88" y2="-52.288"/>
				
					<line fill="none" stroke="#00ABEB" stroke-width="0.15" stroke-miterlimit="10" x1="63.714" y1="117.853" x2="63.714" y2="-52.288"/>
				
					<line fill="none" stroke="#00ABEB" stroke-width="0.15" stroke-miterlimit="10" x1="66.549" y1="117.853" x2="66.549" y2="-52.288"/>
				
					<line fill="none" stroke="#00ABEB" stroke-width="0.15" stroke-miterlimit="10" x1="69.384" y1="117.853" x2="69.384" y2="-52.288"/>
				
					<line fill="none" stroke="#00ABEB" stroke-width="0.15" stroke-miterlimit="10" x1="72.218" y1="117.853" x2="72.218" y2="-52.288"/>
				
					<line fill="none" stroke="#00ABEB" stroke-width="0.15" stroke-miterlimit="10" x1="75.053" y1="117.853" x2="75.053" y2="-52.288"/>
				
					<line fill="none" stroke="#00ABEB" stroke-width="0.15" stroke-miterlimit="10" x1="77.888" y1="117.853" x2="77.888" y2="-52.288"/>
				
					<line fill="none" stroke="#00ABEB" stroke-width="0.15" stroke-miterlimit="10" x1="80.722" y1="117.853" x2="80.722" y2="-52.288"/>
				
					<line fill="none" stroke="#00ABEB" stroke-width="0.15" stroke-miterlimit="10" x1="83.556" y1="117.853" x2="83.556" y2="-52.288"/>
				
					<line fill="none" stroke="#00ABEB" stroke-width="0.15" stroke-miterlimit="10" x1="86.391" y1="117.853" x2="86.391" y2="-52.288"/>
				
					<line fill="none" stroke="#00ABEB" stroke-width="0.15" stroke-miterlimit="10" x1="89.225" y1="117.853" x2="89.225" y2="-52.288"/>
				
					<line fill="none" stroke="#00ABEB" stroke-width="0.15" stroke-miterlimit="10" x1="92.06" y1="117.853" x2="92.06" y2="-52.288"/>
				
					<line fill="none" stroke="#00ABEB" stroke-width="0.15" stroke-miterlimit="10" x1="94.894" y1="117.853" x2="94.894" y2="-52.288"/>
				
					<line fill="none" stroke="#00ABEB" stroke-width="0.15" stroke-miterlimit="10" x1="97.73" y1="117.853" x2="97.73" y2="-52.288"/>
				
					<line fill="none" stroke="#00ABEB" stroke-width="0.15" stroke-miterlimit="10" x1="100.565" y1="117.853" x2="100.565" y2="-52.288"/>
				
					<line fill="none" stroke="#00ABEB" stroke-width="0.15" stroke-miterlimit="10" x1="103.399" y1="117.853" x2="103.399" y2="-52.288"/>
				
					<line fill="none" stroke="#00ABEB" stroke-width="0.15" stroke-miterlimit="10" x1="106.234" y1="117.853" x2="106.234" y2="-52.288"/>
				
					<line fill="none" stroke="#00ABEB" stroke-width="0.15" stroke-miterlimit="10" x1="109.069" y1="117.853" x2="109.069" y2="-52.288"/>
				
					<line fill="none" stroke="#00ABEB" stroke-width="0.15" stroke-miterlimit="10" x1="111.903" y1="117.853" x2="111.903" y2="-52.288"/>
				
					<line fill="none" stroke="#00ABEB" stroke-width="0.15" stroke-miterlimit="10" x1="114.738" y1="117.853" x2="114.738" y2="-52.288"/>
				
					<line fill="none" stroke="#00ABEB" stroke-width="0.15" stroke-miterlimit="10" x1="117.573" y1="117.853" x2="117.573" y2="-52.288"/>
				
					<line fill="none" stroke="#00ABEB" stroke-width="0.15" stroke-miterlimit="10" x1="120.407" y1="117.853" x2="120.407" y2="-52.288"/>
				
					<line fill="none" stroke="#00ABEB" stroke-width="0.15" stroke-miterlimit="10" x1="123.242" y1="117.853" x2="123.242" y2="-52.288"/>
				
					<line fill="none" stroke="#00ABEB" stroke-width="0.15" stroke-miterlimit="10" x1="126.076" y1="117.853" x2="126.076" y2="-52.288"/>
				
					<line fill="none" stroke="#00ABEB" stroke-width="0.15" stroke-miterlimit="10" x1="128.91" y1="117.853" x2="128.91" y2="-52.288"/>
				
					<line fill="none" stroke="#00ABEB" stroke-width="0.15" stroke-miterlimit="10" x1="131.745" y1="117.853" x2="131.745" y2="-52.288"/>
				
					<line fill="none" stroke="#00ABEB" stroke-width="0.15" stroke-miterlimit="10" x1="134.58" y1="117.853" x2="134.58" y2="-52.288"/>
				
					<line fill="none" stroke="#00ABEB" stroke-width="0.15" stroke-miterlimit="10" x1="137.414" y1="117.853" x2="137.414" y2="-52.288"/>
				
					<line fill="none" stroke="#00ABEB" stroke-width="0.15" stroke-miterlimit="10" x1="140.25" y1="117.853" x2="140.25" y2="-52.288"/>
				
					<line fill="none" stroke="#00ABEB" stroke-width="0.15" stroke-miterlimit="10" x1="143.084" y1="117.853" x2="143.084" y2="-52.288"/>
				
					<line fill="none" stroke="#00ABEB" stroke-width="0.15" stroke-miterlimit="10" x1="145.919" y1="117.853" x2="145.919" y2="-52.288"/>
				
					<line fill="none" stroke="#00ABEB" stroke-width="0.15" stroke-miterlimit="10" x1="148.754" y1="117.853" x2="148.754" y2="-52.288"/>
				
					<line fill="none" stroke="#00ABEB" stroke-width="0.15" stroke-miterlimit="10" x1="151.588" y1="117.853" x2="151.588" y2="-52.288"/>
				
					<line fill="none" stroke="#00ABEB" stroke-width="0.15" stroke-miterlimit="10" x1="154.423" y1="117.853" x2="154.423" y2="-52.288"/>
				
					<line fill="none" stroke="#00ABEB" stroke-width="0.15" stroke-miterlimit="10" x1="157.258" y1="117.853" x2="157.258" y2="-52.288"/>
				
					<line fill="none" stroke="#00ABEB" stroke-width="0.15" stroke-miterlimit="10" x1="160.092" y1="117.853" x2="160.092" y2="-52.288"/>
				
					<line fill="none" stroke="#00ABEB" stroke-width="0.15" stroke-miterlimit="10" x1="162.927" y1="117.853" x2="162.927" y2="-52.288"/>
				
					<line fill="none" stroke="#00ABEB" stroke-width="0.15" stroke-miterlimit="10" x1="165.762" y1="117.853" x2="165.762" y2="-52.288"/>
				
					<line fill="none" stroke="#00ABEB" stroke-width="0.15" stroke-miterlimit="10" x1="168.596" y1="117.853" x2="168.596" y2="-52.288"/>
				
					<line fill="none" stroke="#00ABEB" stroke-width="0.15" stroke-miterlimit="10" x1="171.43" y1="117.853" x2="171.43" y2="-52.288"/>
				
					<line fill="none" stroke="#00ABEB" stroke-width="0.15" stroke-miterlimit="10" x1="174.265" y1="117.853" x2="174.265" y2="-52.288"/>
				
					<line fill="none" stroke="#00ABEB" stroke-width="0.15" stroke-miterlimit="10" x1="177.099" y1="117.853" x2="177.099" y2="-52.288"/>
				
					<line fill="none" stroke="#00ABEB" stroke-width="0.15" stroke-miterlimit="10" x1="179.934" y1="117.853" x2="179.934" y2="-52.288"/>
				
					<line fill="none" stroke="#00ABEB" stroke-width="0.15" stroke-miterlimit="10" x1="182.769" y1="117.853" x2="182.769" y2="-52.288"/>
				
					<line fill="none" stroke="#00ABEB" stroke-width="0.15" stroke-miterlimit="10" x1="185.604" y1="117.853" x2="185.604" y2="-52.288"/>
				
					<line fill="none" stroke="#00ABEB" stroke-width="0.15" stroke-miterlimit="10" x1="188.439" y1="117.853" x2="188.439" y2="-52.288"/>
				
					<line fill="none" stroke="#00ABEB" stroke-width="0.15" stroke-miterlimit="10" x1="191.273" y1="117.853" x2="191.273" y2="-52.288"/>
				
					<line fill="none" stroke="#00ABEB" stroke-width="0.15" stroke-miterlimit="10" x1="194.108" y1="117.853" x2="194.108" y2="-52.288"/>
				
					<line fill="none" stroke="#00ABEB" stroke-width="0.15" stroke-miterlimit="10" x1="196.943" y1="117.853" x2="196.943" y2="-52.288"/>
				
					<line fill="none" stroke="#00ABEB" stroke-width="0.15" stroke-miterlimit="10" x1="199.777" y1="117.853" x2="199.777" y2="-52.288"/>
				
					<line fill="none" stroke="#00ABEB" stroke-width="0.15" stroke-miterlimit="10" x1="202.612" y1="117.853" x2="202.612" y2="-52.288"/>
				
					<line fill="none" stroke="#00ABEB" stroke-width="0.15" stroke-miterlimit="10" x1="205.447" y1="117.853" x2="205.447" y2="-52.288"/>
				
					<line fill="none" stroke="#00ABEB" stroke-width="0.15" stroke-miterlimit="10" x1="208.281" y1="117.853" x2="208.281" y2="-52.288"/>
			</g>
			<g id="Horizontal_5_mm_1_">
				
					<line fill="none" stroke="#00ABEB" stroke-width="0.3" stroke-miterlimit="10" x1="-18.841" y1="117.867" x2="208.275" y2="117.867"/>
				
					<line fill="none" stroke="#00ABEB" stroke-width="0.3" stroke-miterlimit="10" x1="-18.841" y1="103.694" x2="208.275" y2="103.694"/>
				
					<line fill="none" stroke="#00ABEB" stroke-width="0.3" stroke-miterlimit="10" x1="-18.841" y1="89.52" x2="208.275" y2="89.52"/>
				
					<line fill="none" stroke="#00ABEB" stroke-width="0.3" stroke-miterlimit="10" x1="-18.841" y1="75.347" x2="208.275" y2="75.347"/>
				
					<line fill="none" stroke="#00ABEB" stroke-width="0.3" stroke-miterlimit="10" x1="-18.841" y1="61.174" x2="208.275" y2="61.174"/>
				<line fill="none" stroke="#00ABEB" stroke-width="0.3" stroke-miterlimit="10" x1="-18.841" y1="47" x2="208.275" y2="47"/>
				
					<line fill="none" stroke="#00ABEB" stroke-width="0.3" stroke-miterlimit="10" x1="-18.841" y1="32.827" x2="208.275" y2="32.827"/>
				
					<line fill="none" stroke="#00ABEB" stroke-width="0.3" stroke-miterlimit="10" x1="-18.841" y1="18.654" x2="208.275" y2="18.654"/>
				<line fill="none" stroke="#00ABEB" stroke-width="0.3" stroke-miterlimit="10" x1="-18.841" y1="4.48" x2="208.275" y2="4.48"/>
				
					<line fill="none" stroke="#00ABEB" stroke-width="0.3" stroke-miterlimit="10" x1="-18.841" y1="-9.693" x2="208.275" y2="-9.693"/>
				
					<line fill="none" stroke="#00ABEB" stroke-width="0.3" stroke-miterlimit="10" x1="-18.841" y1="-23.865" x2="208.275" y2="-23.865"/>
			</g>
			<g id="Vertical_5_mm">
				
					<line fill="none" stroke="#00ABEB" stroke-width="0.3" stroke-miterlimit="10" x1="-18.49" y1="117.853" x2="-18.49" y2="-52.563"/>
				
					<line fill="none" stroke="#00ABEB" stroke-width="0.3" stroke-miterlimit="10" x1="-4.318" y1="117.853" x2="-4.318" y2="-52.563"/>
				
					<line fill="none" stroke="#00ABEB" stroke-width="0.3" stroke-miterlimit="10" x1="9.856" y1="117.853" x2="9.856" y2="-52.563"/>
				
					<line fill="none" stroke="#00ABEB" stroke-width="0.3" stroke-miterlimit="10" x1="24.029" y1="117.853" x2="24.029" y2="-52.563"/>
				
					<line fill="none" stroke="#00ABEB" stroke-width="0.3" stroke-miterlimit="10" x1="38.202" y1="117.853" x2="38.202" y2="-52.563"/>
				
					<line fill="none" stroke="#00ABEB" stroke-width="0.3" stroke-miterlimit="10" x1="52.376" y1="117.853" x2="52.376" y2="-52.563"/>
				
					<line fill="none" stroke="#00ABEB" stroke-width="0.3" stroke-miterlimit="10" x1="66.549" y1="117.853" x2="66.549" y2="-52.563"/>
				
					<line fill="none" stroke="#00ABEB" stroke-width="0.3" stroke-miterlimit="10" x1="80.722" y1="117.853" x2="80.722" y2="-52.563"/>
				
					<line fill="none" stroke="#00ABEB" stroke-width="0.3" stroke-miterlimit="10" x1="94.894" y1="117.853" x2="94.894" y2="-52.563"/>
				
					<line fill="none" stroke="#00ABEB" stroke-width="0.3" stroke-miterlimit="10" x1="109.069" y1="117.853" x2="109.069" y2="-52.563"/>
				
					<line fill="none" stroke="#00ABEB" stroke-width="0.3" stroke-miterlimit="10" x1="123.242" y1="117.853" x2="123.242" y2="-52.563"/>
				
					<line fill="none" stroke="#00ABEB" stroke-width="0.3" stroke-miterlimit="10" x1="137.414" y1="117.853" x2="137.414" y2="-52.563"/>
				
					<line fill="none" stroke="#00ABEB" stroke-width="0.3" stroke-miterlimit="10" x1="151.588" y1="117.853" x2="151.588" y2="-52.563"/>
				
					<line fill="none" stroke="#00ABEB" stroke-width="0.3" stroke-miterlimit="10" x1="165.762" y1="117.853" x2="165.762" y2="-52.563"/>
				
					<line fill="none" stroke="#00ABEB" stroke-width="0.3" stroke-miterlimit="10" x1="179.934" y1="117.853" x2="179.934" y2="-52.563"/>
				
					<line fill="none" stroke="#00ABEB" stroke-width="0.3" stroke-miterlimit="10" x1="194.108" y1="117.853" x2="194.108" y2="-52.563"/>
				
					<line fill="none" stroke="#00ABEB" stroke-width="0.3" stroke-miterlimit="10" x1="208.281" y1="117.853" x2="208.281" y2="-52.563"/>
			</g>
			<g id="Horizontal_10_mm">
				
					<line id="_x31_9_1_" fill="none" stroke="#00ABEB" stroke-width="0.7" stroke-miterlimit="10" x1="-18.841" y1="117.867" x2="208.275" y2="117.867"/>
				
					<line id="_x32_0" fill="none" stroke="#00ABEB" stroke-width="0.7" stroke-miterlimit="10" x1="-18.841" y1="89.52" x2="208.275" y2="89.52"/>
				
					<line id="_x32_1" fill="none" stroke="#00ABEB" stroke-width="0.7" stroke-miterlimit="10" x1="-18.841" y1="61.174" x2="208.275" y2="61.174"/>
				
					<line id="_x32_2" fill="none" stroke="#00ABEB" stroke-width="0.7" stroke-miterlimit="10" x1="-18.841" y1="32.827" x2="208.275" y2="32.827"/>
				
					<line id="_x32_3" fill="none" stroke="#00ABEB" stroke-width="0.7" stroke-miterlimit="10" x1="-18.841" y1="4.48" x2="208.275" y2="4.48"/>
				
					<line id="_x32_4" fill="none" stroke="#00ABEB" stroke-width="0.7" stroke-miterlimit="10" x1="-18.841" y1="-23.865" x2="208.275" y2="-23.865"/>
				
					<line id="_x32_5" fill="none" stroke="#00ABEB" stroke-width="0.7" stroke-miterlimit="10" x1="-18.841" y1="-52.213" x2="208.275" y2="-52.213"/>
			</g>
			<g id="Vertical_10_mm">
				
					<line id="_x30_" fill="none" stroke="#00ABEB" stroke-width="0.7" stroke-miterlimit="10" x1="-18.49" y1="117.853" x2="-18.49" y2="-52.563"/>
				
					<line id="_x31_" fill="none" stroke="#00ABEB" stroke-width="0.7" stroke-miterlimit="10" x1="9.856" y1="117.853" x2="9.856" y2="-52.563"/>
				
					<line id="_x32_" fill="none" stroke="#00ABEB" stroke-width="0.7" stroke-miterlimit="10" x1="38.202" y1="117.853" x2="38.202" y2="-52.563"/>
				
					<line id="_x33_" fill="none" stroke="#00ABEB" stroke-width="0.7" stroke-miterlimit="10" x1="66.549" y1="117.853" x2="66.549" y2="-52.563"/>
				
					<line id="_x34_" fill="none" stroke="#00ABEB" stroke-width="0.7" stroke-miterlimit="10" x1="94.894" y1="117.853" x2="94.894" y2="-52.563"/>
				
					<line id="_x35_" fill="none" stroke="#00ABEB" stroke-width="0.7" stroke-miterlimit="10" x1="123.242" y1="117.853" x2="123.242" y2="-52.563"/>
				
					<line id="_x36_" fill="none" stroke="#00ABEB" stroke-width="0.7" stroke-miterlimit="10" x1="151.588" y1="117.853" x2="151.588" y2="-52.563"/>
				
					<line id="_x37_" fill="none" stroke="#00ABEB" stroke-width="0.7" stroke-miterlimit="10" x1="179.934" y1="117.853" x2="179.934" y2="-52.563"/>
				
					<line id="_x38_" fill="none" stroke="#00ABEB" stroke-width="0.7" stroke-miterlimit="10" x1="208.281" y1="117.853" x2="208.281" y2="-52.563"/>
			</g>
		</g>
	</g>
</g>
<g id="Layer_3">
	<g>
		<path d="M6.905,3.842c0.432-0.443,0.821-1.103,0.821-1.385c0-0.06-0.03-0.102-0.108-0.174c-0.108-0.096-0.15-0.174-0.15-0.27
			c0-0.126,0.102-0.204,0.228-0.204c0.198,0,0.336,0.192,0.336,0.354c0,0.258-0.168,0.605-0.378,0.929
			c-0.27,0.42-0.605,0.804-0.713,0.917C6.611,4.364,6.45,4.561,6.347,4.561c-0.036,0-0.054-0.06-0.054-0.162V4.256
			c0-0.414-0.066-1.211-0.144-1.667C6.072,2.133,6.006,2.031,5.784,2.031c-0.06,0-0.12,0-0.186,0.006V1.959
			c0.27-0.042,0.479-0.084,0.671-0.126c0.048-0.018,0.09-0.024,0.12-0.024c0.054,0,0.054,0.036,0.18,0.684
			c0.078,0.402,0.114,0.731,0.15,1.541L6.905,3.842z"/>
	</g>
	<g>
		<path d="M49.445,36.801c-0.39,0.594-0.546,0.714-0.828,0.714c-0.18,0-0.288-0.102-0.288-0.288c0-0.132,0.078-0.534,0.27-1.181
			c-0.708,1.163-1.007,1.481-1.433,1.481c-0.21,0-0.318-0.096-0.318-0.318c0-0.114,0.054-0.33,0.162-0.768l0.21-0.833
			c0.048-0.198,0.084-0.354,0.084-0.402c0-0.042-0.03-0.09-0.066-0.108c-0.054-0.03-0.072-0.036-0.3-0.036v-0.083
			c0.342-0.042,0.558-0.084,0.899-0.162l0.024,0.018l-0.534,2.129c-0.006,0.018-0.018,0.072-0.018,0.096c0,0.09,0.03,0.15,0.12,0.15
			c0.204,0,0.48-0.318,0.852-0.881c0.282-0.426,0.366-0.654,0.66-1.457h0.444l-0.474,1.793c-0.03,0.114-0.114,0.396-0.114,0.468
			c0,0.066,0.024,0.102,0.066,0.102c0.096,0,0.192-0.084,0.498-0.485L49.445,36.801z"/>
	</g>
	<polygon fill="#DCDCDC" stroke="#000000" stroke-width="0.2" stroke-miterlimit="10" points="40.409,17.08 29.913,21.368 
		24.139,14.54 34.635,10.253 	"/>
</g>
<g id="Layer_2">
	<g>
		<path d="M27.875,17.626l2.398-4.006h0.156l0.792,4.006H27.875z M30.01,14.472l-1.529,2.591h2.051L30.01,14.472z"/>
		<path d="M33.646,17.626V17.53c0.377-0.018,0.461-0.114,0.461-0.317c0-0.048-0.006-0.102-0.012-0.156l-0.12-0.786h-1.319
			l-0.354,0.666c-0.084,0.156-0.132,0.3-0.132,0.396c0,0.114,0.09,0.186,0.372,0.198v0.096h-1.115V17.53
			c0.276-0.054,0.354-0.156,0.803-0.935l1.709-2.975h0.156l0.552,3.316c0.084,0.503,0.15,0.569,0.468,0.593v0.096H33.646z
			 M33.676,14.478l-0.894,1.577h1.164L33.676,14.478z"/>
		<path d="M36.191,15.102c0.048-0.6,0.102-1.092,0.138-1.235c0.03-0.132,0.132-0.234,0.306-0.234c0.132,0,0.21,0.09,0.21,0.186
			c0,0.096-0.162,0.522-0.516,1.284H36.191z"/>
	</g>
	<g>
		<path fill="none" d="M41.406,20.245"/>
	</g>
	<g>
		<path fill="none" d="M41.185,32.813"/>
	</g>
	<g>
		<g>
			<line fill="none" stroke="#000000" stroke-width="0.21" stroke-miterlimit="10" x1="9.933" y1="2.579" x2="9.933" y2="57.074"/>
			<g>
				<polygon points="9.156,3.169 9.933,2.838 10.711,3.169 9.933,1.325 				"/>
			</g>
		</g>
	</g>
	<g>
		<g>
			
				<line fill="none" stroke="#000000" stroke-width="0.21" stroke-miterlimit="10" x1="48.881" y1="32.813" x2="-18.566" y2="32.813"/>
			<g>
				<polygon points="48.292,32.036 48.622,32.813 48.292,33.591 50.135,32.813 				"/>
			</g>
		</g>
	</g>
	<g>
	</g>
</g>
</svg>
