<?xml version="1.0" encoding="utf-8"?>
<!-- Generator: Adobe Illustrator 25.4.1, SVG Export Plug-In . SVG Version: 6.00 Build 0)  -->
<svg version="1.1" xmlns="http://www.w3.org/2000/svg" xmlns:xlink="http://www.w3.org/1999/xlink" x="0px" y="0px"
	 viewBox="0 0 58.332 47.671" enable-background="new 0 0 58.332 47.671" xml:space="preserve">
<g id="Graph_paper" opacity="0.5">
	<g id="Clipped_grid">
		<defs>
			<rect id="SVGID_1_" x="-0.151" y="-2.835" width="61.207" height="53.859"/>
		</defs>
		<clipPath id="SVGID_00000096055186896152645200000008039212144069031844_">
			<use xlink:href="#SVGID_1_"  overflow="visible"/>
		</clipPath>
		<g id="Grid" opacity="0.25" clip-path="url(#SVGID_00000096055186896152645200000008039212144069031844_)">
			<g id="Horizontal_1_mm">
				
					<line fill="none" stroke="#00ABEB" stroke-width="0.15" stroke-miterlimit="10" x1="-16.804" y1="-39.685" x2="210.037" y2="-39.685"/>
				
					<line fill="none" stroke="#00ABEB" stroke-width="0.15" stroke-miterlimit="10" x1="-16.804" y1="-42.52" x2="210.037" y2="-42.52"/>
				
					<line fill="none" stroke="#00ABEB" stroke-width="0.15" stroke-miterlimit="10" x1="-16.804" y1="127.559" x2="210.037" y2="127.559"/>
				
					<line fill="none" stroke="#00ABEB" stroke-width="0.15" stroke-miterlimit="10" x1="-16.804" y1="124.724" x2="210.037" y2="124.724"/>
				
					<line fill="none" stroke="#00ABEB" stroke-width="0.15" stroke-miterlimit="10" x1="-16.804" y1="121.89" x2="210.037" y2="121.89"/>
				
					<line fill="none" stroke="#00ABEB" stroke-width="0.15" stroke-miterlimit="10" x1="-16.804" y1="119.055" x2="210.037" y2="119.055"/>
				
					<line fill="none" stroke="#00ABEB" stroke-width="0.15" stroke-miterlimit="10" x1="-16.804" y1="116.22" x2="210.037" y2="116.22"/>
				
					<line fill="none" stroke="#00ABEB" stroke-width="0.15" stroke-miterlimit="10" x1="-16.804" y1="113.386" x2="210.037" y2="113.386"/>
				
					<line fill="none" stroke="#00ABEB" stroke-width="0.15" stroke-miterlimit="10" x1="-16.804" y1="110.551" x2="210.037" y2="110.551"/>
				
					<line fill="none" stroke="#00ABEB" stroke-width="0.15" stroke-miterlimit="10" x1="-16.804" y1="107.717" x2="210.037" y2="107.717"/>
				
					<line fill="none" stroke="#00ABEB" stroke-width="0.15" stroke-miterlimit="10" x1="-16.804" y1="104.882" x2="210.037" y2="104.882"/>
				
					<line fill="none" stroke="#00ABEB" stroke-width="0.15" stroke-miterlimit="10" x1="-16.804" y1="102.047" x2="210.037" y2="102.047"/>
				
					<line fill="none" stroke="#00ABEB" stroke-width="0.15" stroke-miterlimit="10" x1="-16.804" y1="99.213" x2="210.037" y2="99.213"/>
				
					<line fill="none" stroke="#00ABEB" stroke-width="0.15" stroke-miterlimit="10" x1="-16.804" y1="96.378" x2="210.037" y2="96.378"/>
				
					<line fill="none" stroke="#00ABEB" stroke-width="0.15" stroke-miterlimit="10" x1="-16.804" y1="93.543" x2="210.037" y2="93.543"/>
				
					<line fill="none" stroke="#00ABEB" stroke-width="0.15" stroke-miterlimit="10" x1="-16.804" y1="90.709" x2="210.037" y2="90.709"/>
				
					<line fill="none" stroke="#00ABEB" stroke-width="0.15" stroke-miterlimit="10" x1="-16.804" y1="87.874" x2="210.037" y2="87.874"/>
				
					<line fill="none" stroke="#00ABEB" stroke-width="0.15" stroke-miterlimit="10" x1="-16.804" y1="85.039" x2="210.037" y2="85.039"/>
				
					<line fill="none" stroke="#00ABEB" stroke-width="0.15" stroke-miterlimit="10" x1="-16.804" y1="82.205" x2="210.037" y2="82.205"/>
				
					<line fill="none" stroke="#00ABEB" stroke-width="0.15" stroke-miterlimit="10" x1="-16.804" y1="79.37" x2="210.037" y2="79.37"/>
				
					<line fill="none" stroke="#00ABEB" stroke-width="0.15" stroke-miterlimit="10" x1="-16.804" y1="76.535" x2="210.037" y2="76.535"/>
				
					<line fill="none" stroke="#00ABEB" stroke-width="0.15" stroke-miterlimit="10" x1="-16.804" y1="73.701" x2="210.037" y2="73.701"/>
				
					<line fill="none" stroke="#00ABEB" stroke-width="0.15" stroke-miterlimit="10" x1="-16.804" y1="70.866" x2="210.037" y2="70.866"/>
				
					<line fill="none" stroke="#00ABEB" stroke-width="0.15" stroke-miterlimit="10" x1="-16.804" y1="68.031" x2="210.037" y2="68.031"/>
				
					<line fill="none" stroke="#00ABEB" stroke-width="0.15" stroke-miterlimit="10" x1="-16.804" y1="65.197" x2="210.037" y2="65.197"/>
				
					<line fill="none" stroke="#00ABEB" stroke-width="0.15" stroke-miterlimit="10" x1="-16.804" y1="62.362" x2="210.037" y2="62.362"/>
				
					<line fill="none" stroke="#00ABEB" stroke-width="0.15" stroke-miterlimit="10" x1="-16.804" y1="59.528" x2="210.037" y2="59.528"/>
				
					<line fill="none" stroke="#00ABEB" stroke-width="0.15" stroke-miterlimit="10" x1="-16.804" y1="56.693" x2="210.037" y2="56.693"/>
				
					<line fill="none" stroke="#00ABEB" stroke-width="0.15" stroke-miterlimit="10" x1="-16.804" y1="53.858" x2="210.037" y2="53.858"/>
				
					<line fill="none" stroke="#00ABEB" stroke-width="0.15" stroke-miterlimit="10" x1="-16.804" y1="51.024" x2="210.037" y2="51.024"/>
				
					<line fill="none" stroke="#00ABEB" stroke-width="0.15" stroke-miterlimit="10" x1="-16.804" y1="48.189" x2="210.037" y2="48.189"/>
				
					<line fill="none" stroke="#00ABEB" stroke-width="0.15" stroke-miterlimit="10" x1="-16.804" y1="45.354" x2="210.037" y2="45.354"/>
				
					<line fill="none" stroke="#00ABEB" stroke-width="0.15" stroke-miterlimit="10" x1="-16.804" y1="42.52" x2="210.037" y2="42.52"/>
				
					<line fill="none" stroke="#00ABEB" stroke-width="0.15" stroke-miterlimit="10" x1="-16.804" y1="39.685" x2="210.037" y2="39.685"/>
				
					<line fill="none" stroke="#00ABEB" stroke-width="0.15" stroke-miterlimit="10" x1="-16.804" y1="36.85" x2="210.037" y2="36.85"/>
				
					<line fill="none" stroke="#00ABEB" stroke-width="0.15" stroke-miterlimit="10" x1="-16.804" y1="34.016" x2="210.037" y2="34.016"/>
				
					<line fill="none" stroke="#00ABEB" stroke-width="0.15" stroke-miterlimit="10" x1="-16.804" y1="31.181" x2="210.037" y2="31.181"/>
				
					<line fill="none" stroke="#00ABEB" stroke-width="0.15" stroke-miterlimit="10" x1="-16.804" y1="28.346" x2="210.037" y2="28.346"/>
				
					<line fill="none" stroke="#00ABEB" stroke-width="0.15" stroke-miterlimit="10" x1="-16.804" y1="25.512" x2="210.037" y2="25.512"/>
				
					<line fill="none" stroke="#00ABEB" stroke-width="0.15" stroke-miterlimit="10" x1="-16.804" y1="22.677" x2="210.037" y2="22.677"/>
				
					<line fill="none" stroke="#00ABEB" stroke-width="0.15" stroke-miterlimit="10" x1="-16.804" y1="19.842" x2="210.037" y2="19.842"/>
				
					<line fill="none" stroke="#00ABEB" stroke-width="0.15" stroke-miterlimit="10" x1="-16.804" y1="17.008" x2="210.037" y2="17.008"/>
				
					<line fill="none" stroke="#00ABEB" stroke-width="0.15" stroke-miterlimit="10" x1="-16.804" y1="14.173" x2="210.037" y2="14.173"/>
				
					<line fill="none" stroke="#00ABEB" stroke-width="0.15" stroke-miterlimit="10" x1="-16.804" y1="11.339" x2="210.037" y2="11.339"/>
				
					<line fill="none" stroke="#00ABEB" stroke-width="0.15" stroke-miterlimit="10" x1="-16.804" y1="8.504" x2="210.037" y2="8.504"/>
				
					<line fill="none" stroke="#00ABEB" stroke-width="0.15" stroke-miterlimit="10" x1="-16.804" y1="5.669" x2="210.037" y2="5.669"/>
				
					<line fill="none" stroke="#00ABEB" stroke-width="0.15" stroke-miterlimit="10" x1="-16.804" y1="2.835" x2="210.037" y2="2.835"/>
				<line fill="none" stroke="#00ABEB" stroke-width="0.15" stroke-miterlimit="10" x1="-16.804" y1="0" x2="210.037" y2="0"/>
				
					<line fill="none" stroke="#00ABEB" stroke-width="0.15" stroke-miterlimit="10" x1="-16.804" y1="-2.835" x2="210.037" y2="-2.835"/>
				
					<line fill="none" stroke="#00ABEB" stroke-width="0.15" stroke-miterlimit="10" x1="-16.804" y1="-5.669" x2="210.037" y2="-5.669"/>
				
					<line fill="none" stroke="#00ABEB" stroke-width="0.15" stroke-miterlimit="10" x1="-16.804" y1="-8.504" x2="210.037" y2="-8.504"/>
				
					<line fill="none" stroke="#00ABEB" stroke-width="0.15" stroke-miterlimit="10" x1="-16.804" y1="-11.339" x2="210.037" y2="-11.339"/>
				
					<line fill="none" stroke="#00ABEB" stroke-width="0.15" stroke-miterlimit="10" x1="-16.804" y1="-14.173" x2="210.037" y2="-14.173"/>
				
					<line fill="none" stroke="#00ABEB" stroke-width="0.15" stroke-miterlimit="10" x1="-16.804" y1="-17.008" x2="210.037" y2="-17.008"/>
				
					<line fill="none" stroke="#00ABEB" stroke-width="0.15" stroke-miterlimit="10" x1="-16.804" y1="-19.843" x2="210.037" y2="-19.843"/>
				
					<line fill="none" stroke="#00ABEB" stroke-width="0.15" stroke-miterlimit="10" x1="-16.804" y1="-22.677" x2="210.037" y2="-22.677"/>
				
					<line fill="none" stroke="#00ABEB" stroke-width="0.15" stroke-miterlimit="10" x1="-16.804" y1="-25.512" x2="210.037" y2="-25.512"/>
				
					<line fill="none" stroke="#00ABEB" stroke-width="0.15" stroke-miterlimit="10" x1="-16.804" y1="-28.346" x2="210.037" y2="-28.346"/>
				
					<line fill="none" stroke="#00ABEB" stroke-width="0.15" stroke-miterlimit="10" x1="-16.804" y1="-31.181" x2="210.037" y2="-31.181"/>
				
					<line fill="none" stroke="#00ABEB" stroke-width="0.15" stroke-miterlimit="10" x1="-16.804" y1="-34.016" x2="210.037" y2="-34.016"/>
				
					<line fill="none" stroke="#00ABEB" stroke-width="0.15" stroke-miterlimit="10" x1="-16.804" y1="-36.85" x2="210.037" y2="-36.85"/>
			</g>
			<g id="Vertical_1_mm">
				<g>
					
						<line fill="none" stroke="#00ABEB" stroke-width="0.15" stroke-miterlimit="10" x1="-16.729" y1="127.545" x2="-16.729" y2="-42.595"/>
				</g>
				
					<line fill="none" stroke="#00ABEB" stroke-width="0.15" stroke-miterlimit="10" x1="-13.895" y1="127.545" x2="-13.895" y2="-42.595"/>
				
					<line fill="none" stroke="#00ABEB" stroke-width="0.15" stroke-miterlimit="10" x1="-11.06" y1="127.545" x2="-11.06" y2="-42.595"/>
				
					<line fill="none" stroke="#00ABEB" stroke-width="0.15" stroke-miterlimit="10" x1="-8.225" y1="127.545" x2="-8.225" y2="-42.595"/>
				
					<line fill="none" stroke="#00ABEB" stroke-width="0.15" stroke-miterlimit="10" x1="-5.391" y1="127.545" x2="-5.391" y2="-42.595"/>
				
					<line fill="none" stroke="#00ABEB" stroke-width="0.15" stroke-miterlimit="10" x1="-2.556" y1="127.545" x2="-2.556" y2="-42.595"/>
				
					<line fill="none" stroke="#00ABEB" stroke-width="0.15" stroke-miterlimit="10" x1="0.279" y1="127.545" x2="0.279" y2="-42.595"/>
				
					<line fill="none" stroke="#00ABEB" stroke-width="0.15" stroke-miterlimit="10" x1="3.113" y1="127.545" x2="3.113" y2="-42.595"/>
				
					<line fill="none" stroke="#00ABEB" stroke-width="0.15" stroke-miterlimit="10" x1="5.948" y1="127.545" x2="5.948" y2="-42.595"/>
				
					<line fill="none" stroke="#00ABEB" stroke-width="0.15" stroke-miterlimit="10" x1="8.782" y1="127.545" x2="8.782" y2="-42.595"/>
				
					<line fill="none" stroke="#00ABEB" stroke-width="0.15" stroke-miterlimit="10" x1="11.617" y1="127.545" x2="11.617" y2="-42.595"/>
				
					<line fill="none" stroke="#00ABEB" stroke-width="0.15" stroke-miterlimit="10" x1="14.452" y1="127.545" x2="14.452" y2="-42.595"/>
				
					<line fill="none" stroke="#00ABEB" stroke-width="0.15" stroke-miterlimit="10" x1="17.286" y1="127.545" x2="17.286" y2="-42.595"/>
				
					<line fill="none" stroke="#00ABEB" stroke-width="0.15" stroke-miterlimit="10" x1="20.121" y1="127.545" x2="20.121" y2="-42.595"/>
				
					<line fill="none" stroke="#00ABEB" stroke-width="0.15" stroke-miterlimit="10" x1="22.956" y1="127.545" x2="22.956" y2="-42.595"/>
				
					<line fill="none" stroke="#00ABEB" stroke-width="0.15" stroke-miterlimit="10" x1="25.79" y1="127.545" x2="25.79" y2="-42.595"/>
				
					<line fill="none" stroke="#00ABEB" stroke-width="0.15" stroke-miterlimit="10" x1="28.625" y1="127.545" x2="28.625" y2="-42.595"/>
				
					<line fill="none" stroke="#00ABEB" stroke-width="0.15" stroke-miterlimit="10" x1="31.46" y1="127.545" x2="31.46" y2="-42.595"/>
				
					<line fill="none" stroke="#00ABEB" stroke-width="0.15" stroke-miterlimit="10" x1="34.294" y1="127.545" x2="34.294" y2="-42.595"/>
				
					<line fill="none" stroke="#00ABEB" stroke-width="0.15" stroke-miterlimit="10" x1="37.129" y1="127.545" x2="37.129" y2="-42.595"/>
				
					<line fill="none" stroke="#00ABEB" stroke-width="0.15" stroke-miterlimit="10" x1="39.964" y1="127.545" x2="39.964" y2="-42.595"/>
				
					<line fill="none" stroke="#00ABEB" stroke-width="0.15" stroke-miterlimit="10" x1="42.798" y1="127.545" x2="42.798" y2="-42.595"/>
				
					<line fill="none" stroke="#00ABEB" stroke-width="0.15" stroke-miterlimit="10" x1="45.633" y1="127.545" x2="45.633" y2="-42.595"/>
				
					<line fill="none" stroke="#00ABEB" stroke-width="0.15" stroke-miterlimit="10" x1="48.468" y1="127.545" x2="48.468" y2="-42.595"/>
				
					<line fill="none" stroke="#00ABEB" stroke-width="0.15" stroke-miterlimit="10" x1="51.302" y1="127.545" x2="51.302" y2="-42.595"/>
				
					<line fill="none" stroke="#00ABEB" stroke-width="0.15" stroke-miterlimit="10" x1="54.137" y1="127.545" x2="54.137" y2="-42.595"/>
				
					<line fill="none" stroke="#00ABEB" stroke-width="0.15" stroke-miterlimit="10" x1="56.971" y1="127.545" x2="56.971" y2="-42.595"/>
				
					<line fill="none" stroke="#00ABEB" stroke-width="0.15" stroke-miterlimit="10" x1="59.806" y1="127.545" x2="59.806" y2="-42.595"/>
				
					<line fill="none" stroke="#00ABEB" stroke-width="0.15" stroke-miterlimit="10" x1="62.641" y1="127.545" x2="62.641" y2="-42.595"/>
				
					<line fill="none" stroke="#00ABEB" stroke-width="0.15" stroke-miterlimit="10" x1="65.475" y1="127.545" x2="65.475" y2="-42.595"/>
				
					<line fill="none" stroke="#00ABEB" stroke-width="0.15" stroke-miterlimit="10" x1="68.31" y1="127.545" x2="68.31" y2="-42.595"/>
				
					<line fill="none" stroke="#00ABEB" stroke-width="0.15" stroke-miterlimit="10" x1="71.145" y1="127.545" x2="71.145" y2="-42.595"/>
				
					<line fill="none" stroke="#00ABEB" stroke-width="0.15" stroke-miterlimit="10" x1="73.979" y1="127.545" x2="73.979" y2="-42.595"/>
				
					<line fill="none" stroke="#00ABEB" stroke-width="0.15" stroke-miterlimit="10" x1="76.814" y1="127.545" x2="76.814" y2="-42.595"/>
				
					<line fill="none" stroke="#00ABEB" stroke-width="0.15" stroke-miterlimit="10" x1="79.649" y1="127.545" x2="79.649" y2="-42.595"/>
				
					<line fill="none" stroke="#00ABEB" stroke-width="0.15" stroke-miterlimit="10" x1="82.483" y1="127.545" x2="82.483" y2="-42.595"/>
				
					<line fill="none" stroke="#00ABEB" stroke-width="0.15" stroke-miterlimit="10" x1="85.318" y1="127.545" x2="85.318" y2="-42.595"/>
				
					<line fill="none" stroke="#00ABEB" stroke-width="0.15" stroke-miterlimit="10" x1="88.153" y1="127.545" x2="88.153" y2="-42.595"/>
				
					<line fill="none" stroke="#00ABEB" stroke-width="0.15" stroke-miterlimit="10" x1="90.987" y1="127.545" x2="90.987" y2="-42.595"/>
				
					<line fill="none" stroke="#00ABEB" stroke-width="0.15" stroke-miterlimit="10" x1="93.822" y1="127.545" x2="93.822" y2="-42.595"/>
				
					<line fill="none" stroke="#00ABEB" stroke-width="0.15" stroke-miterlimit="10" x1="96.656" y1="127.545" x2="96.656" y2="-42.595"/>
				
					<line fill="none" stroke="#00ABEB" stroke-width="0.15" stroke-miterlimit="10" x1="99.491" y1="127.545" x2="99.491" y2="-42.595"/>
				
					<line fill="none" stroke="#00ABEB" stroke-width="0.15" stroke-miterlimit="10" x1="102.326" y1="127.545" x2="102.326" y2="-42.595"/>
				
					<line fill="none" stroke="#00ABEB" stroke-width="0.15" stroke-miterlimit="10" x1="105.16" y1="127.545" x2="105.16" y2="-42.595"/>
				
					<line fill="none" stroke="#00ABEB" stroke-width="0.15" stroke-miterlimit="10" x1="107.995" y1="127.545" x2="107.995" y2="-42.595"/>
				
					<line fill="none" stroke="#00ABEB" stroke-width="0.15" stroke-miterlimit="10" x1="110.83" y1="127.545" x2="110.83" y2="-42.595"/>
				
					<line fill="none" stroke="#00ABEB" stroke-width="0.15" stroke-miterlimit="10" x1="113.664" y1="127.545" x2="113.664" y2="-42.595"/>
				
					<line fill="none" stroke="#00ABEB" stroke-width="0.15" stroke-miterlimit="10" x1="116.499" y1="127.545" x2="116.499" y2="-42.595"/>
				
					<line fill="none" stroke="#00ABEB" stroke-width="0.15" stroke-miterlimit="10" x1="119.334" y1="127.545" x2="119.334" y2="-42.595"/>
				
					<line fill="none" stroke="#00ABEB" stroke-width="0.15" stroke-miterlimit="10" x1="122.168" y1="127.545" x2="122.168" y2="-42.595"/>
				
					<line fill="none" stroke="#00ABEB" stroke-width="0.15" stroke-miterlimit="10" x1="125.003" y1="127.545" x2="125.003" y2="-42.595"/>
				
					<line fill="none" stroke="#00ABEB" stroke-width="0.15" stroke-miterlimit="10" x1="127.838" y1="127.545" x2="127.838" y2="-42.595"/>
				
					<line fill="none" stroke="#00ABEB" stroke-width="0.15" stroke-miterlimit="10" x1="130.672" y1="127.545" x2="130.672" y2="-42.595"/>
				
					<line fill="none" stroke="#00ABEB" stroke-width="0.15" stroke-miterlimit="10" x1="133.507" y1="127.545" x2="133.507" y2="-42.595"/>
				
					<line fill="none" stroke="#00ABEB" stroke-width="0.15" stroke-miterlimit="10" x1="136.342" y1="127.545" x2="136.342" y2="-42.595"/>
				
					<line fill="none" stroke="#00ABEB" stroke-width="0.15" stroke-miterlimit="10" x1="139.176" y1="127.545" x2="139.176" y2="-42.595"/>
				
					<line fill="none" stroke="#00ABEB" stroke-width="0.15" stroke-miterlimit="10" x1="142.011" y1="127.545" x2="142.011" y2="-42.595"/>
				
					<line fill="none" stroke="#00ABEB" stroke-width="0.15" stroke-miterlimit="10" x1="144.845" y1="127.545" x2="144.845" y2="-42.595"/>
				
					<line fill="none" stroke="#00ABEB" stroke-width="0.15" stroke-miterlimit="10" x1="147.68" y1="127.545" x2="147.68" y2="-42.595"/>
				
					<line fill="none" stroke="#00ABEB" stroke-width="0.15" stroke-miterlimit="10" x1="150.515" y1="127.545" x2="150.515" y2="-42.595"/>
				
					<line fill="none" stroke="#00ABEB" stroke-width="0.15" stroke-miterlimit="10" x1="153.349" y1="127.545" x2="153.349" y2="-42.595"/>
				
					<line fill="none" stroke="#00ABEB" stroke-width="0.15" stroke-miterlimit="10" x1="156.184" y1="127.545" x2="156.184" y2="-42.595"/>
				
					<line fill="none" stroke="#00ABEB" stroke-width="0.15" stroke-miterlimit="10" x1="159.019" y1="127.545" x2="159.019" y2="-42.595"/>
				
					<line fill="none" stroke="#00ABEB" stroke-width="0.15" stroke-miterlimit="10" x1="161.853" y1="127.545" x2="161.853" y2="-42.595"/>
				
					<line fill="none" stroke="#00ABEB" stroke-width="0.15" stroke-miterlimit="10" x1="164.688" y1="127.545" x2="164.688" y2="-42.595"/>
				
					<line fill="none" stroke="#00ABEB" stroke-width="0.15" stroke-miterlimit="10" x1="167.523" y1="127.545" x2="167.523" y2="-42.595"/>
				
					<line fill="none" stroke="#00ABEB" stroke-width="0.15" stroke-miterlimit="10" x1="170.357" y1="127.545" x2="170.357" y2="-42.595"/>
				
					<line fill="none" stroke="#00ABEB" stroke-width="0.15" stroke-miterlimit="10" x1="173.192" y1="127.545" x2="173.192" y2="-42.595"/>
				
					<line fill="none" stroke="#00ABEB" stroke-width="0.15" stroke-miterlimit="10" x1="176.027" y1="127.545" x2="176.027" y2="-42.595"/>
				
					<line fill="none" stroke="#00ABEB" stroke-width="0.15" stroke-miterlimit="10" x1="178.861" y1="127.545" x2="178.861" y2="-42.595"/>
				
					<line fill="none" stroke="#00ABEB" stroke-width="0.15" stroke-miterlimit="10" x1="181.696" y1="127.545" x2="181.696" y2="-42.595"/>
				
					<line fill="none" stroke="#00ABEB" stroke-width="0.15" stroke-miterlimit="10" x1="184.531" y1="127.545" x2="184.531" y2="-42.595"/>
				
					<line fill="none" stroke="#00ABEB" stroke-width="0.15" stroke-miterlimit="10" x1="187.365" y1="127.545" x2="187.365" y2="-42.595"/>
				
					<line fill="none" stroke="#00ABEB" stroke-width="0.15" stroke-miterlimit="10" x1="190.2" y1="127.545" x2="190.2" y2="-42.595"/>
				
					<line fill="none" stroke="#00ABEB" stroke-width="0.15" stroke-miterlimit="10" x1="193.034" y1="127.545" x2="193.034" y2="-42.595"/>
				
					<line fill="none" stroke="#00ABEB" stroke-width="0.15" stroke-miterlimit="10" x1="195.869" y1="127.545" x2="195.869" y2="-42.595"/>
				
					<line fill="none" stroke="#00ABEB" stroke-width="0.15" stroke-miterlimit="10" x1="198.704" y1="127.545" x2="198.704" y2="-42.595"/>
				
					<line fill="none" stroke="#00ABEB" stroke-width="0.15" stroke-miterlimit="10" x1="201.538" y1="127.545" x2="201.538" y2="-42.595"/>
				
					<line fill="none" stroke="#00ABEB" stroke-width="0.15" stroke-miterlimit="10" x1="204.373" y1="127.545" x2="204.373" y2="-42.595"/>
				
					<line fill="none" stroke="#00ABEB" stroke-width="0.15" stroke-miterlimit="10" x1="207.208" y1="127.545" x2="207.208" y2="-42.595"/>
				
					<line fill="none" stroke="#00ABEB" stroke-width="0.15" stroke-miterlimit="10" x1="210.042" y1="127.545" x2="210.042" y2="-42.595"/>
			</g>
			<g id="Horizontal_5_mm_1_">
				
					<line fill="none" stroke="#00ABEB" stroke-width="0.3" stroke-miterlimit="10" x1="-17.079" y1="127.559" x2="210.037" y2="127.559"/>
				
					<line fill="none" stroke="#00ABEB" stroke-width="0.3" stroke-miterlimit="10" x1="-17.079" y1="113.386" x2="210.037" y2="113.386"/>
				
					<line fill="none" stroke="#00ABEB" stroke-width="0.3" stroke-miterlimit="10" x1="-17.079" y1="99.213" x2="210.037" y2="99.213"/>
				
					<line fill="none" stroke="#00ABEB" stroke-width="0.3" stroke-miterlimit="10" x1="-17.079" y1="85.039" x2="210.037" y2="85.039"/>
				
					<line fill="none" stroke="#00ABEB" stroke-width="0.3" stroke-miterlimit="10" x1="-17.079" y1="70.866" x2="210.037" y2="70.866"/>
				
					<line fill="none" stroke="#00ABEB" stroke-width="0.3" stroke-miterlimit="10" x1="-17.079" y1="56.693" x2="210.037" y2="56.693"/>
				
					<line fill="none" stroke="#00ABEB" stroke-width="0.3" stroke-miterlimit="10" x1="-17.079" y1="42.52" x2="210.037" y2="42.52"/>
				
					<line fill="none" stroke="#00ABEB" stroke-width="0.3" stroke-miterlimit="10" x1="-17.079" y1="28.346" x2="210.037" y2="28.346"/>
				
					<line fill="none" stroke="#00ABEB" stroke-width="0.3" stroke-miterlimit="10" x1="-17.079" y1="14.173" x2="210.037" y2="14.173"/>
				<line fill="none" stroke="#00ABEB" stroke-width="0.3" stroke-miterlimit="10" x1="-17.079" y1="0" x2="210.037" y2="0"/>
				
					<line fill="none" stroke="#00ABEB" stroke-width="0.3" stroke-miterlimit="10" x1="-17.079" y1="-14.173" x2="210.037" y2="-14.173"/>
			</g>
			<g id="Vertical_5_mm">
				
					<line fill="none" stroke="#00ABEB" stroke-width="0.3" stroke-miterlimit="10" x1="-16.729" y1="127.545" x2="-16.729" y2="-42.87"/>
				
					<line fill="none" stroke="#00ABEB" stroke-width="0.3" stroke-miterlimit="10" x1="-2.556" y1="127.545" x2="-2.556" y2="-42.87"/>
				
					<line fill="none" stroke="#00ABEB" stroke-width="0.3" stroke-miterlimit="10" x1="11.617" y1="127.545" x2="11.617" y2="-42.87"/>
				
					<line fill="none" stroke="#00ABEB" stroke-width="0.3" stroke-miterlimit="10" x1="25.79" y1="127.545" x2="25.79" y2="-42.87"/>
				
					<line fill="none" stroke="#00ABEB" stroke-width="0.3" stroke-miterlimit="10" x1="39.964" y1="127.545" x2="39.964" y2="-42.87"/>
				
					<line fill="none" stroke="#00ABEB" stroke-width="0.3" stroke-miterlimit="10" x1="54.137" y1="127.545" x2="54.137" y2="-42.87"/>
				
					<line fill="none" stroke="#00ABEB" stroke-width="0.3" stroke-miterlimit="10" x1="68.31" y1="127.545" x2="68.31" y2="-42.87"/>
				
					<line fill="none" stroke="#00ABEB" stroke-width="0.3" stroke-miterlimit="10" x1="82.483" y1="127.545" x2="82.483" y2="-42.87"/>
				
					<line fill="none" stroke="#00ABEB" stroke-width="0.3" stroke-miterlimit="10" x1="96.656" y1="127.545" x2="96.656" y2="-42.87"/>
				
					<line fill="none" stroke="#00ABEB" stroke-width="0.3" stroke-miterlimit="10" x1="110.83" y1="127.545" x2="110.83" y2="-42.87"/>
				
					<line fill="none" stroke="#00ABEB" stroke-width="0.3" stroke-miterlimit="10" x1="125.003" y1="127.545" x2="125.003" y2="-42.87"/>
				
					<line fill="none" stroke="#00ABEB" stroke-width="0.3" stroke-miterlimit="10" x1="139.176" y1="127.545" x2="139.176" y2="-42.87"/>
				
					<line fill="none" stroke="#00ABEB" stroke-width="0.3" stroke-miterlimit="10" x1="153.349" y1="127.545" x2="153.349" y2="-42.87"/>
				
					<line fill="none" stroke="#00ABEB" stroke-width="0.3" stroke-miterlimit="10" x1="167.523" y1="127.545" x2="167.523" y2="-42.87"/>
				
					<line fill="none" stroke="#00ABEB" stroke-width="0.3" stroke-miterlimit="10" x1="181.696" y1="127.545" x2="181.696" y2="-42.87"/>
				
					<line fill="none" stroke="#00ABEB" stroke-width="0.3" stroke-miterlimit="10" x1="195.869" y1="127.545" x2="195.869" y2="-42.87"/>
				
					<line fill="none" stroke="#00ABEB" stroke-width="0.3" stroke-miterlimit="10" x1="210.042" y1="127.545" x2="210.042" y2="-42.87"/>
			</g>
			<g id="Horizontal_10_mm">
				
					<line id="_x31_9_1_" fill="none" stroke="#00ABEB" stroke-width="0.7" stroke-miterlimit="10" x1="-17.079" y1="127.559" x2="210.037" y2="127.559"/>
				
					<line id="_x32_0" fill="none" stroke="#00ABEB" stroke-width="0.7" stroke-miterlimit="10" x1="-17.079" y1="99.213" x2="210.037" y2="99.213"/>
				
					<line id="_x32_1" fill="none" stroke="#00ABEB" stroke-width="0.7" stroke-miterlimit="10" x1="-17.079" y1="70.866" x2="210.037" y2="70.866"/>
				
					<line id="_x32_2" fill="none" stroke="#00ABEB" stroke-width="0.7" stroke-miterlimit="10" x1="-17.079" y1="42.52" x2="210.037" y2="42.52"/>
				
					<line id="_x32_3" fill="none" stroke="#00ABEB" stroke-width="0.7" stroke-miterlimit="10" x1="-17.079" y1="14.173" x2="210.037" y2="14.173"/>
				
					<line id="_x32_4" fill="none" stroke="#00ABEB" stroke-width="0.7" stroke-miterlimit="10" x1="-17.079" y1="-14.173" x2="210.037" y2="-14.173"/>
				
					<line id="_x32_5" fill="none" stroke="#00ABEB" stroke-width="0.7" stroke-miterlimit="10" x1="-17.079" y1="-42.52" x2="210.037" y2="-42.52"/>
			</g>
			<g id="Vertical_10_mm">
				
					<line id="_x30_" fill="none" stroke="#00ABEB" stroke-width="0.7" stroke-miterlimit="10" x1="-16.729" y1="127.545" x2="-16.729" y2="-42.87"/>
				
					<line id="_x31_" fill="none" stroke="#00ABEB" stroke-width="0.7" stroke-miterlimit="10" x1="11.617" y1="127.545" x2="11.617" y2="-42.87"/>
				
					<line id="_x32_" fill="none" stroke="#00ABEB" stroke-width="0.7" stroke-miterlimit="10" x1="39.964" y1="127.545" x2="39.964" y2="-42.87"/>
				
					<line id="_x33_" fill="none" stroke="#00ABEB" stroke-width="0.7" stroke-miterlimit="10" x1="68.31" y1="127.545" x2="68.31" y2="-42.87"/>
				
					<line id="_x34_" fill="none" stroke="#00ABEB" stroke-width="0.7" stroke-miterlimit="10" x1="96.656" y1="127.545" x2="96.656" y2="-42.87"/>
				
					<line id="_x35_" fill="none" stroke="#00ABEB" stroke-width="0.7" stroke-miterlimit="10" x1="125.003" y1="127.545" x2="125.003" y2="-42.87"/>
				
					<line id="_x36_" fill="none" stroke="#00ABEB" stroke-width="0.7" stroke-miterlimit="10" x1="153.349" y1="127.545" x2="153.349" y2="-42.87"/>
				
					<line id="_x37_" fill="none" stroke="#00ABEB" stroke-width="0.7" stroke-miterlimit="10" x1="181.696" y1="127.545" x2="181.696" y2="-42.87"/>
				
					<line id="_x38_" fill="none" stroke="#00ABEB" stroke-width="0.7" stroke-miterlimit="10" x1="210.042" y1="127.545" x2="210.042" y2="-42.87"/>
			</g>
		</g>
	</g>
	<g>
		<g>
			<line fill="none" stroke="#00FF00" stroke-width="0.1" stroke-miterlimit="10" x1="19.727" y1="32.276" x2="19.904" y2="32.1"/>
			
				<line fill="none" stroke="#00FF00" stroke-width="0.1" stroke-miterlimit="10" stroke-dasharray="0.5002,1.0003" x1="20.614" y1="31.395" x2="39.432" y2="12.724"/>
			
				<line fill="none" stroke="#00FF00" stroke-width="0.1" stroke-miterlimit="10" x1="39.787" y1="12.372" x2="39.964" y2="12.196"/>
		</g>
	</g>
</g>
<g id="Layer_3">
	<g>
		<g>
			<defs>
				<rect id="SVGID_00000126308919075295668880000001857726611515661239_" x="-0.151" y="5.239" width="55.716" height="41.854"/>
			</defs>
			<clipPath id="SVGID_00000082328226618379704340000004517724557004019602_">
				<use xlink:href="#SVGID_00000126308919075295668880000001857726611515661239_"  overflow="visible"/>
			</clipPath>
		</g>
	</g>
</g>
<g id="Layer_2">
	<g>
		<g>
			
				<line fill="none" stroke="#000000" stroke-width="0.21" stroke-miterlimit="10" x1="11.611" y1="2.185" x2="11.611" y2="42.506"/>
			<g>
				<polygon points="10.834,2.775 11.611,2.445 12.389,2.775 11.611,0.932 				"/>
			</g>
		</g>
	</g>
	<g>
		<g>
			
				<line fill="none" stroke="#000000" stroke-width="0.21" stroke-miterlimit="10" x1="52.884" y1="42.506" x2="11.611" y2="42.506"/>
			<g>
				<polygon points="52.294,41.728 52.624,42.506 52.294,43.283 54.137,42.506 				"/>
			</g>
		</g>
	</g>
	<g>
		<path d="M52.07,44.453c0.35-0.535,0.536-0.715,0.755-0.715c0.12,0,0.206,0.075,0.206,0.185c0,0.105-0.07,0.18-0.17,0.18
			c-0.095,0-0.14-0.085-0.26-0.085c-0.09,0-0.27,0.22-0.49,0.605c0,0.035,0.01,0.105,0.04,0.225l0.16,0.671
			c0.035,0.14,0.08,0.205,0.15,0.205c0.065,0,0.12-0.05,0.235-0.2c0.045-0.06,0.065-0.09,0.105-0.14l0.075,0.045
			C52.585,45.879,52.455,46,52.265,46c-0.16,0-0.235-0.09-0.295-0.34l-0.146-0.596l-0.44,0.596c-0.22,0.295-0.32,0.34-0.475,0.34
			c-0.155,0-0.25-0.08-0.25-0.21c0-0.1,0.07-0.18,0.17-0.18c0.045,0,0.095,0.02,0.16,0.055c0.05,0.03,0.1,0.045,0.13,0.045
			c0.055,0,0.15-0.095,0.255-0.245l0.41-0.581l-0.14-0.621c-0.07-0.3-0.105-0.34-0.23-0.34c-0.04,0-0.1,0.01-0.195,0.035
			l-0.09,0.025l-0.015-0.08l0.055-0.02c0.305-0.11,0.47-0.145,0.585-0.145c0.125,0,0.185,0.09,0.255,0.43L52.07,44.453z"/>
	</g>
	<g>
		<path d="M8.887,3.102c0.425-0.706,0.611-1.066,0.611-1.286c0-0.07-0.035-0.1-0.13-0.16c-0.1-0.065-0.13-0.115-0.13-0.195
			c0-0.11,0.085-0.185,0.2-0.185c0.15,0,0.261,0.125,0.261,0.275c0,0.286-0.24,0.836-0.656,1.527
			C8.522,3.938,7.987,4.513,7.701,4.513c-0.15,0-0.255-0.085-0.255-0.215c0-0.11,0.085-0.2,0.195-0.2c0.175,0,0.175,0.14,0.305,0.14
			c0.065,0,0.125-0.04,0.24-0.166c0.09-0.095,0.315-0.39,0.355-0.455c0.03-0.06,0.05-0.12,0.05-0.175c0-0.2-0.275-1.321-0.41-1.662
			C8.087,1.536,7.996,1.46,7.796,1.46c-0.055,0-0.1,0.005-0.155,0.02V1.395c0.055-0.01,0.11-0.02,0.16-0.03
			c0.1-0.02,0.265-0.05,0.536-0.09h0.02c0.075,0,0.341,0.831,0.426,1.276L8.887,3.102z"/>
	</g>
	<g>
		<line fill="none" stroke="#262626" stroke-width="0.5" x1="11.675" y1="42.493" x2="11.675" y2="42.061"/>
		<line fill="none" stroke="#262626" stroke-width="0.5" x1="40.104" y1="42.493" x2="40.104" y2="42.061"/>
		<line fill="none" stroke="#262626" stroke-width="0.5" x1="11.675" y1="42.493" x2="12.107" y2="42.493"/>
		<line fill="none" stroke="#262626" stroke-width="0.5" x1="11.675" y1="14.064" x2="12.107" y2="14.064"/>
		
			<polyline opacity="0.5" fill="#DCDCDC" stroke="#FF0000" stroke-width="0.5" stroke-linecap="round" stroke-linejoin="round" points="
			11.675,42.493 40.104,42.493 40.104,14.064 11.675,14.064 11.675,42.493 		"/>
	</g>
	<g>
		<path d="M10.173,12.452c0.015,0,0.025,0.015,0.025,0.035c0,0.025-0.01,0.075-0.03,0.145l-0.716,2.598
			c-0.035,0.125-0.09,0.32-0.09,0.37c0,0.115,0.11,0.16,0.33,0.16h0.105v0.075H8.402V15.76c0.395-0.03,0.505-0.085,0.561-0.275
			l0.681-2.442c0.025-0.095,0.04-0.146,0.04-0.181c0-0.095-0.065-0.155-0.175-0.155H9.492c-0.09,0-0.2,0.005-0.295,0.01v-0.075
			l0.115-0.025c0.44-0.095,0.46-0.085,0.846-0.165H10.173z"/>
	</g>
	<g>
		<path d="M40.396,43.708c0.015,0,0.025,0.015,0.025,0.035c0,0.025-0.01,0.075-0.03,0.145l-0.716,2.598
			c-0.035,0.125-0.09,0.32-0.09,0.37c0,0.115,0.11,0.16,0.33,0.16h0.105v0.075h-1.396v-0.075c0.395-0.03,0.505-0.085,0.561-0.275
			l0.681-2.442c0.025-0.095,0.04-0.146,0.04-0.181c0-0.095-0.065-0.155-0.175-0.155h-0.015c-0.09,0-0.2,0.005-0.295,0.01v-0.075
			l0.115-0.025c0.44-0.095,0.46-0.085,0.846-0.165H40.396z"/>
	</g>
	<g>
		<path fill="#FF0000" d="M17.11,12.075c0.425-0.706,0.61-1.066,0.61-1.286c0-0.07-0.035-0.1-0.13-0.16
			c-0.1-0.065-0.13-0.115-0.13-0.195c0-0.11,0.085-0.185,0.2-0.185c0.15,0,0.26,0.125,0.26,0.275c0,0.286-0.24,0.836-0.655,1.527
			c-0.521,0.861-1.056,1.436-1.341,1.436c-0.15,0-0.255-0.085-0.255-0.215c0-0.11,0.085-0.2,0.195-0.2
			c0.175,0,0.175,0.14,0.305,0.14c0.065,0,0.125-0.04,0.24-0.166c0.09-0.095,0.315-0.39,0.355-0.455c0.03-0.06,0.05-0.12,0.05-0.175
			c0-0.2-0.275-1.321-0.41-1.662c-0.095-0.245-0.185-0.32-0.385-0.32c-0.055,0-0.101,0.005-0.155,0.02v-0.085
			c0.055-0.01,0.11-0.02,0.16-0.03c0.1-0.02,0.265-0.05,0.535-0.09h0.021c0.075,0,0.34,0.831,0.425,1.276L17.11,12.075z"/>
		<path fill="#FF0000" d="M18.439,10.854v-0.331h2.522v0.331H18.439z M18.439,11.854v-0.331h2.522v0.331H18.439z"/>
		<path fill="#FF0000" d="M23.405,9.072c0.015,0,0.025,0.015,0.025,0.035c0,0.025-0.01,0.075-0.03,0.145l-0.716,2.598
			c-0.035,0.125-0.09,0.32-0.09,0.37c0,0.115,0.11,0.16,0.331,0.16h0.105v0.075h-1.396V12.38c0.396-0.03,0.506-0.085,0.561-0.275
			l0.681-2.442c0.025-0.095,0.04-0.146,0.04-0.181c0-0.095-0.065-0.155-0.175-0.155h-0.015c-0.09,0-0.2,0.005-0.295,0.01V9.262
			l0.115-0.025c0.44-0.095,0.46-0.085,0.846-0.165H23.405z"/>
		<path d="M28.167,11.214c-0.48,0.205-0.861,0.576-1.191,0.956l-0.1-0.095c0.115-0.165,0.26-0.325,0.41-0.48
			c0.045-0.045,0.07-0.1,0.07-0.14c0-0.05-0.04-0.1-0.13-0.1h-2.993v-0.33h2.998c0.05,0,0.13-0.061,0.13-0.11
			c0-0.045-0.02-0.075-0.07-0.125c-0.145-0.14-0.3-0.315-0.41-0.48l0.1-0.095c0.325,0.375,0.706,0.75,1.186,0.951V11.214z"/>
		<path fill="#0000FF" d="M30.915,12.275C30.66,12.345,30.48,12.4,30.23,12.5l-0.025-0.015v-0.41h-0.01
			c-0.245,0.335-0.53,0.431-0.716,0.431c-0.385,0-0.61-0.255-0.61-0.641v-1.256c0-0.25-0.07-0.32-0.311-0.335v-0.07h0.731v1.617
			c0,0.23,0.16,0.396,0.355,0.396c0.146,0,0.295-0.045,0.421-0.155c0.08-0.07,0.115-0.115,0.115-0.29v-1.156
			c0-0.265-0.07-0.305-0.37-0.325v-0.085H30.6v1.717c0,0.23,0.055,0.285,0.285,0.285h0.03V12.275z"/>
		<path fill="#0000FF" d="M31.253,10.854v-0.331h2.948v0.331H31.253z M31.253,11.854v-0.331h2.948v0.331H31.253z"/>
		<path fill="#0000FF" d="M36.825,10.278c-0.15,0.015-0.19,0.055-0.325,0.391l-0.641,1.606c-0.075,0.185-0.11,0.25-0.14,0.25
			s-0.055-0.04-0.09-0.13c-0.015-0.025-0.021-0.06-0.04-0.105l-0.601-1.437c-0.215-0.516-0.266-0.565-0.456-0.576v-0.075h0.981
			v0.075c-0.17,0.015-0.23,0.05-0.23,0.135c0,0.05,0.015,0.115,0.045,0.19l0.511,1.281l0.496-1.296c0.02-0.05,0.03-0.1,0.03-0.15
			c0-0.095-0.075-0.145-0.235-0.16v-0.075h0.696V10.278z"/>
	</g>
	<g>
		<path fill="#FF0000" d="M31.121,30.246c0.35-0.535,0.535-0.715,0.756-0.715c0.12,0,0.205,0.075,0.205,0.185
			c0,0.105-0.07,0.18-0.17,0.18c-0.095,0-0.14-0.085-0.26-0.085c-0.09,0-0.27,0.22-0.49,0.605c0,0.035,0.01,0.105,0.04,0.225
			l0.16,0.671c0.035,0.14,0.08,0.205,0.15,0.205c0.065,0,0.12-0.05,0.235-0.2c0.045-0.06,0.065-0.09,0.105-0.14l0.075,0.045
			c-0.29,0.451-0.42,0.571-0.61,0.571c-0.16,0-0.235-0.09-0.295-0.34l-0.145-0.596l-0.44,0.596c-0.221,0.295-0.32,0.34-0.476,0.34
			s-0.25-0.08-0.25-0.21c0-0.1,0.07-0.18,0.17-0.18c0.045,0,0.095,0.02,0.16,0.055c0.05,0.03,0.1,0.045,0.13,0.045
			c0.055,0,0.15-0.095,0.255-0.245l0.411-0.581l-0.141-0.621c-0.07-0.3-0.105-0.34-0.23-0.34c-0.04,0-0.1,0.01-0.195,0.035
			l-0.09,0.025l-0.015-0.08l0.055-0.02c0.305-0.11,0.47-0.145,0.585-0.145c0.125,0,0.185,0.09,0.255,0.43L31.121,30.246z"/>
		<path fill="#FF0000" d="M32.495,30.136v-0.331h2.522v0.331H32.495z M32.495,31.137v-0.331h2.522v0.331H32.495z"/>
		<path fill="#FF0000" d="M37.462,28.354c0.015,0,0.025,0.015,0.025,0.035c0,0.025-0.01,0.075-0.03,0.145l-0.716,2.598
			c-0.035,0.125-0.09,0.32-0.09,0.37c0,0.115,0.11,0.16,0.331,0.16h0.105v0.075H35.69v-0.075c0.396-0.03,0.506-0.085,0.561-0.275
			l0.681-2.442c0.025-0.095,0.04-0.146,0.04-0.181c0-0.095-0.065-0.155-0.175-0.155h-0.015c-0.09,0-0.2,0.005-0.295,0.01v-0.075
			l0.115-0.025c0.44-0.095,0.46-0.085,0.846-0.165H37.462z"/>
		<path d="M42.224,30.496c-0.48,0.205-0.861,0.576-1.191,0.956l-0.1-0.095c0.115-0.165,0.26-0.325,0.41-0.48
			c0.045-0.045,0.07-0.1,0.07-0.14c0-0.05-0.04-0.1-0.13-0.1H38.29v-0.33h2.998c0.05,0,0.13-0.061,0.13-0.11
			c0-0.045-0.02-0.075-0.07-0.125c-0.145-0.14-0.3-0.315-0.41-0.48l0.1-0.095c0.325,0.375,0.706,0.75,1.186,0.951V30.496z"/>
		<path fill="#0000FF" d="M44.972,31.557c-0.255,0.07-0.436,0.125-0.686,0.225l-0.025-0.015v-0.41h-0.01
			c-0.245,0.335-0.53,0.431-0.716,0.431c-0.385,0-0.61-0.255-0.61-0.641v-1.256c0-0.25-0.07-0.32-0.311-0.335v-0.07h0.731v1.617
			c0,0.23,0.16,0.396,0.355,0.396c0.146,0,0.295-0.045,0.421-0.155c0.08-0.07,0.115-0.115,0.115-0.29v-1.156
			c0-0.265-0.07-0.305-0.37-0.325v-0.085h0.791v1.717c0,0.23,0.055,0.285,0.285,0.285h0.03V31.557z"/>
		<path fill="#0000FF" d="M45.31,30.136v-0.331h2.948v0.331H45.31z M45.31,31.137v-0.331h2.948v0.331H45.31z"/>
		<path fill="#0000FF" d="M49.085,31.737v-0.075c0.37-0.02,0.475-0.125,0.475-0.4v-2.247c0-0.17-0.045-0.245-0.15-0.245
			c-0.05,0-0.135,0.025-0.226,0.06l-0.135,0.05v-0.07l0.896-0.456l0.045,0.015v2.988c0,0.215,0.1,0.305,0.475,0.305v0.075H49.085z"
			/>
	</g>
	<g>
		<path fill="#FF0000" d="M13.423,41.213c0.425-0.706,0.61-1.066,0.61-1.286c0-0.07-0.035-0.1-0.13-0.16
			c-0.1-0.065-0.13-0.115-0.13-0.195c0-0.11,0.085-0.185,0.2-0.185c0.15,0,0.26,0.125,0.26,0.275c0,0.286-0.24,0.836-0.655,1.527
			c-0.521,0.861-1.056,1.436-1.341,1.436c-0.15,0-0.255-0.085-0.255-0.215c0-0.11,0.085-0.2,0.195-0.2
			c0.175,0,0.175,0.14,0.305,0.14c0.065,0,0.125-0.04,0.24-0.166c0.09-0.095,0.315-0.39,0.355-0.455c0.03-0.06,0.05-0.12,0.05-0.175
			c0-0.2-0.275-1.321-0.41-1.662c-0.095-0.245-0.185-0.32-0.385-0.32c-0.055,0-0.101,0.005-0.155,0.02v-0.085
			c0.055-0.01,0.11-0.02,0.16-0.03c0.1-0.02,0.265-0.05,0.535-0.09h0.021c0.075,0,0.34,0.831,0.425,1.276L13.423,41.213z"/>
		<path fill="#FF0000" d="M14.752,39.992v-0.331h2.522v0.331H14.752z M14.752,40.993v-0.331h2.522v0.331H14.752z"/>
		<path fill="#FF0000" d="M19.278,41.413c-0.205,0.145-0.42,0.215-0.63,0.215c-0.511,0-0.791-0.42-0.791-1.116
			c0-1.176,0.746-2.302,1.531-2.302c0.511,0,0.796,0.445,0.796,1.256C20.184,40.202,19.794,41.048,19.278,41.413z M19.368,38.35
			c-0.226,0-0.421,0.15-0.601,0.476c-0.261,0.47-0.516,1.451-0.516,1.987c0,0.425,0.165,0.676,0.405,0.676
			c0.23,0,0.46-0.17,0.646-0.5c0.291-0.511,0.485-1.336,0.485-1.987C19.788,38.601,19.668,38.35,19.368,38.35z"/>
		<path d="M24.481,40.352c-0.48,0.205-0.861,0.576-1.191,0.956l-0.101-0.095c0.115-0.165,0.261-0.325,0.411-0.48
			c0.045-0.045,0.07-0.1,0.07-0.14c0-0.05-0.04-0.1-0.13-0.1h-2.993v-0.33h2.998c0.05,0,0.13-0.061,0.13-0.11
			c0-0.045-0.02-0.075-0.07-0.125c-0.145-0.14-0.3-0.315-0.41-0.48l0.1-0.095c0.325,0.375,0.706,0.75,1.186,0.951V40.352z"/>
		<path fill="#0000FF" d="M27.229,41.413c-0.255,0.07-0.436,0.125-0.686,0.225l-0.025-0.015v-0.41h-0.01
			c-0.245,0.335-0.531,0.431-0.716,0.431c-0.385,0-0.61-0.255-0.61-0.641v-1.256c0-0.25-0.07-0.32-0.311-0.335v-0.07h0.731v1.617
			c0,0.23,0.16,0.396,0.355,0.396c0.145,0,0.295-0.045,0.42-0.155c0.08-0.07,0.115-0.115,0.115-0.29v-1.156
			c0-0.265-0.07-0.305-0.37-0.325v-0.085h0.791v1.717c0,0.23,0.055,0.285,0.286,0.285h0.03V41.413z"/>
		<path fill="#0000FF" d="M27.567,39.992v-0.331h2.948v0.331H27.567z M27.567,40.993v-0.331h2.948v0.331H27.567z"/>
		<path fill="#0000FF" d="M33.139,39.416c-0.15,0.015-0.19,0.055-0.325,0.391l-0.641,1.606c-0.075,0.185-0.11,0.25-0.14,0.25
			s-0.055-0.04-0.09-0.13c-0.015-0.025-0.02-0.06-0.04-0.105l-0.601-1.437c-0.215-0.516-0.265-0.565-0.455-0.576v-0.075h0.981v0.075
			c-0.17,0.015-0.23,0.05-0.23,0.135c0,0.05,0.015,0.115,0.045,0.19l0.51,1.281l0.496-1.296c0.02-0.05,0.03-0.1,0.03-0.15
			c0-0.095-0.075-0.145-0.235-0.16v-0.075h0.695V39.416z"/>
		<path fill="#0000FF" d="M33.492,39.992v-0.331h2.948v0.331H33.492z M33.492,40.993v-0.331h2.948v0.331H33.492z"/>
		<path fill="#0000FF" d="M37.928,41.663c-0.856,0-1.131-0.931-1.131-1.751c0-0.886,0.345-1.702,1.151-1.702
			c0.656,0,1.111,0.706,1.111,1.731C39.059,40.803,38.743,41.663,37.928,41.663z M37.918,38.34c-0.416,0-0.641,0.591-0.641,1.607
			s0.22,1.586,0.651,1.586c0.425,0,0.65-0.576,0.65-1.566C38.578,38.926,38.358,38.34,37.918,38.34z"/>
	</g>
	<g>
		<path fill="#FF0000" d="M2.592,24.172c0.35-0.535,0.535-0.715,0.756-0.715c0.12,0,0.205,0.075,0.205,0.185
			c0,0.105-0.07,0.18-0.17,0.18c-0.095,0-0.14-0.085-0.26-0.085c-0.09,0-0.27,0.22-0.49,0.605c0,0.035,0.01,0.105,0.04,0.225
			l0.16,0.671c0.035,0.14,0.08,0.205,0.15,0.205c0.065,0,0.12-0.05,0.235-0.2c0.045-0.06,0.065-0.09,0.105-0.14l0.075,0.045
			c-0.29,0.451-0.42,0.571-0.61,0.571c-0.16,0-0.235-0.09-0.295-0.34l-0.145-0.596l-0.44,0.596c-0.221,0.295-0.32,0.34-0.476,0.34
			s-0.25-0.08-0.25-0.21c0-0.1,0.07-0.18,0.17-0.18c0.045,0,0.095,0.02,0.16,0.055c0.05,0.03,0.1,0.045,0.13,0.045
			c0.055,0,0.15-0.095,0.255-0.245l0.411-0.581l-0.141-0.621c-0.07-0.3-0.105-0.34-0.23-0.34c-0.04,0-0.1,0.01-0.195,0.035
			l-0.09,0.025l-0.015-0.08l0.055-0.02c0.305-0.11,0.47-0.145,0.585-0.145c0.125,0,0.185,0.09,0.255,0.43L2.592,24.172z"/>
		<path fill="#FF0000" d="M3.966,24.062v-0.331h2.522v0.331H3.966z M3.966,25.063v-0.331h2.522v0.331H3.966z"/>
		<path fill="#FF0000" d="M8.492,25.483c-0.205,0.145-0.42,0.215-0.63,0.215c-0.511,0-0.791-0.42-0.791-1.116
			c0-1.176,0.746-2.302,1.531-2.302c0.511,0,0.796,0.445,0.796,1.256C9.398,24.272,9.008,25.118,8.492,25.483z M8.582,22.42
			c-0.226,0-0.421,0.15-0.601,0.476c-0.261,0.47-0.516,1.451-0.516,1.987c0,0.425,0.165,0.676,0.405,0.676
			c0.23,0,0.46-0.17,0.646-0.5c0.291-0.511,0.485-1.336,0.485-1.987C9.002,22.671,8.882,22.42,8.582,22.42z"/>
		<path d="M13.695,24.422c-0.48,0.205-0.861,0.576-1.191,0.956l-0.1-0.095c0.115-0.165,0.26-0.325,0.41-0.48
			c0.045-0.045,0.07-0.1,0.07-0.14c0-0.05-0.04-0.1-0.13-0.1H9.761v-0.33h2.998c0.05,0,0.13-0.061,0.13-0.11
			c0-0.045-0.02-0.075-0.07-0.125c-0.145-0.14-0.3-0.315-0.41-0.48l0.1-0.095c0.325,0.375,0.706,0.75,1.186,0.951V24.422z"/>
		<path fill="#0000FF" d="M16.427,23.486c-0.15,0.015-0.19,0.055-0.325,0.391l-0.641,1.606c-0.075,0.185-0.11,0.25-0.14,0.25
			s-0.055-0.04-0.09-0.13c-0.015-0.025-0.021-0.06-0.04-0.105l-0.601-1.437c-0.215-0.516-0.266-0.565-0.456-0.576v-0.075h0.981
			v0.075c-0.17,0.015-0.23,0.05-0.23,0.135c0,0.05,0.015,0.115,0.045,0.19l0.511,1.281l0.496-1.296c0.02-0.05,0.03-0.1,0.03-0.15
			c0-0.095-0.075-0.145-0.235-0.16v-0.075h0.696V23.486z"/>
		<path fill="#0000FF" d="M16.781,24.062v-0.331h2.948v0.331H16.781z M16.781,25.063v-0.331h2.948v0.331H16.781z"/>
		<path fill="#0000FF" d="M21.216,25.733c-0.855,0-1.131-0.931-1.131-1.751c0-0.886,0.345-1.702,1.151-1.702
			c0.655,0,1.111,0.706,1.111,1.731C22.347,24.873,22.032,25.733,21.216,25.733z M21.206,22.41c-0.416,0-0.641,0.591-0.641,1.607
			s0.22,1.586,0.65,1.586c0.426,0,0.651-0.576,0.651-1.566C21.867,22.996,21.647,22.41,21.206,22.41z"/>
	</g>
	<g>
	</g>
</g>
</svg>
