<?xml version="1.0" encoding="utf-8"?>
<!-- Generator: Adobe Illustrator 25.4.1, SVG Export Plug-In . SVG Version: 6.00 Build 0)  -->
<svg version="1.1" xmlns="http://www.w3.org/2000/svg" xmlns:xlink="http://www.w3.org/1999/xlink" x="0px" y="0px"
	 viewBox="0 0 140.798 121.252" enable-background="new 0 0 140.798 121.252" xml:space="preserve">
<g id="Layer_4" opacity="0.5">
	<g id="Clipped_grid_00000003068028900943026870000011536296927355263674_">
		<defs>
			<polygon id="SVGID_1_" points="86.014,130.559 -89.904,130.559 2.625,38.03 178.542,38.03 			"/>
		</defs>
		<clipPath id="SVGID_00000109739453046846590380000001674496505228005524_">
			<use xlink:href="#SVGID_1_"  overflow="visible"/>
		</clipPath>
		
			<g id="Grid_00000142891597197125820610000009767860333217090727_" opacity="0.25" clip-path="url(#SVGID_00000109739453046846590380000001674496505228005524_)">
			<g id="Horizontal_1_mm_00000151508609497893311650000018408800186222605470_">
				
					<line fill="none" stroke="#00ABEB" stroke-width="0.15" stroke-miterlimit="10" x1="-3.213" y1="46.489" x2="223.628" y2="46.489"/>
				
					<line fill="none" stroke="#00ABEB" stroke-width="0.15" stroke-miterlimit="10" x1="-1.225" y1="44.501" x2="225.616" y2="44.501"/>
				
					<line fill="none" stroke="#00ABEB" stroke-width="0.15" stroke-miterlimit="10" x1="-120.502" y1="163.777" x2="106.339" y2="163.777"/>
				
					<line fill="none" stroke="#00ABEB" stroke-width="0.15" stroke-miterlimit="10" x1="-118.514" y1="161.789" x2="108.327" y2="161.789"/>
				
					<line fill="none" stroke="#00ABEB" stroke-width="0.15" stroke-miterlimit="10" x1="-116.526" y1="159.801" x2="110.314" y2="159.801"/>
				
					<line fill="none" stroke="#00ABEB" stroke-width="0.15" stroke-miterlimit="10" x1="-114.538" y1="157.813" x2="112.303" y2="157.813"/>
				
					<line fill="none" stroke="#00ABEB" stroke-width="0.15" stroke-miterlimit="10" x1="-112.55" y1="155.825" x2="114.291" y2="155.825"/>
				
					<line fill="none" stroke="#00ABEB" stroke-width="0.15" stroke-miterlimit="10" x1="-110.563" y1="153.837" x2="116.278" y2="153.837"/>
				
					<line fill="none" stroke="#00ABEB" stroke-width="0.15" stroke-miterlimit="10" x1="-108.574" y1="151.849" x2="118.266" y2="151.849"/>
				
					<line fill="none" stroke="#00ABEB" stroke-width="0.15" stroke-miterlimit="10" x1="-106.587" y1="149.862" x2="120.254" y2="149.862"/>
				
					<line fill="none" stroke="#00ABEB" stroke-width="0.15" stroke-miterlimit="10" x1="-104.598" y1="147.873" x2="122.242" y2="147.873"/>
				
					<line fill="none" stroke="#00ABEB" stroke-width="0.15" stroke-miterlimit="10" x1="-102.61" y1="145.885" x2="124.231" y2="145.885"/>
				
					<line fill="none" stroke="#00ABEB" stroke-width="0.15" stroke-miterlimit="10" x1="-100.623" y1="143.898" x2="126.218" y2="143.898"/>
				
					<line fill="none" stroke="#00ABEB" stroke-width="0.15" stroke-miterlimit="10" x1="-98.635" y1="141.91" x2="128.206" y2="141.91"/>
				
					<line fill="none" stroke="#00ABEB" stroke-width="0.15" stroke-miterlimit="10" x1="-96.646" y1="139.921" x2="130.194" y2="139.921"/>
				
					<line fill="none" stroke="#00ABEB" stroke-width="0.15" stroke-miterlimit="10" x1="-94.659" y1="137.934" x2="132.182" y2="137.934"/>
				
					<line fill="none" stroke="#00ABEB" stroke-width="0.15" stroke-miterlimit="10" x1="-92.671" y1="135.946" x2="134.17" y2="135.946"/>
				
					<line fill="none" stroke="#00ABEB" stroke-width="0.15" stroke-miterlimit="10" x1="-90.683" y1="133.958" x2="136.158" y2="133.958"/>
				
					<line fill="none" stroke="#00ABEB" stroke-width="0.15" stroke-miterlimit="10" x1="-88.695" y1="131.97" x2="138.146" y2="131.97"/>
				
					<line fill="none" stroke="#00ABEB" stroke-width="0.15" stroke-miterlimit="10" x1="-86.707" y1="129.982" x2="140.134" y2="129.982"/>
				
					<line fill="none" stroke="#00ABEB" stroke-width="0.15" stroke-miterlimit="10" x1="-84.719" y1="127.994" x2="142.122" y2="127.994"/>
				
					<line fill="none" stroke="#00ABEB" stroke-width="0.15" stroke-miterlimit="10" x1="-82.731" y1="126.006" x2="144.109" y2="126.006"/>
				
					<line fill="none" stroke="#00ABEB" stroke-width="0.15" stroke-miterlimit="10" x1="-80.743" y1="124.018" x2="146.098" y2="124.018"/>
				
					<line fill="none" stroke="#00ABEB" stroke-width="0.15" stroke-miterlimit="10" x1="-78.755" y1="122.03" x2="148.086" y2="122.03"/>
				
					<line fill="none" stroke="#00ABEB" stroke-width="0.15" stroke-miterlimit="10" x1="-76.767" y1="120.042" x2="150.074" y2="120.042"/>
				
					<line fill="none" stroke="#00ABEB" stroke-width="0.15" stroke-miterlimit="10" x1="-74.779" y1="118.054" x2="152.062" y2="118.054"/>
				
					<line fill="none" stroke="#00ABEB" stroke-width="0.15" stroke-miterlimit="10" x1="-72.792" y1="116.067" x2="154.049" y2="116.067"/>
				
					<line fill="none" stroke="#00ABEB" stroke-width="0.15" stroke-miterlimit="10" x1="-70.803" y1="114.078" x2="156.037" y2="114.078"/>
				
					<line fill="none" stroke="#00ABEB" stroke-width="0.15" stroke-miterlimit="10" x1="-68.815" y1="112.09" x2="158.026" y2="112.09"/>
				
					<line fill="none" stroke="#00ABEB" stroke-width="0.15" stroke-miterlimit="10" x1="-66.828" y1="110.103" x2="160.013" y2="110.103"/>
				
					<line fill="none" stroke="#00ABEB" stroke-width="0.15" stroke-miterlimit="10" x1="-64.84" y1="108.115" x2="162.001" y2="108.115"/>
				
					<line fill="none" stroke="#00ABEB" stroke-width="0.15" stroke-miterlimit="10" x1="-62.851" y1="106.127" x2="163.989" y2="106.127"/>
				
					<line fill="none" stroke="#00ABEB" stroke-width="0.15" stroke-miterlimit="10" x1="-60.864" y1="104.139" x2="165.977" y2="104.139"/>
				
					<line fill="none" stroke="#00ABEB" stroke-width="0.15" stroke-miterlimit="10" x1="-58.876" y1="102.151" x2="167.965" y2="102.151"/>
				
					<line fill="none" stroke="#00ABEB" stroke-width="0.15" stroke-miterlimit="10" x1="-56.888" y1="100.163" x2="169.953" y2="100.163"/>
				
					<line fill="none" stroke="#00ABEB" stroke-width="0.15" stroke-miterlimit="10" x1="-54.9" y1="98.175" x2="171.941" y2="98.175"/>
				
					<line fill="none" stroke="#00ABEB" stroke-width="0.15" stroke-miterlimit="10" x1="-52.912" y1="96.187" x2="173.929" y2="96.187"/>
				
					<line fill="none" stroke="#00ABEB" stroke-width="0.15" stroke-miterlimit="10" x1="-50.924" y1="94.199" x2="175.917" y2="94.199"/>
				
					<line fill="none" stroke="#00ABEB" stroke-width="0.15" stroke-miterlimit="10" x1="-48.936" y1="92.211" x2="177.905" y2="92.211"/>
				
					<line fill="none" stroke="#00ABEB" stroke-width="0.15" stroke-miterlimit="10" x1="-46.948" y1="90.223" x2="179.893" y2="90.223"/>
				
					<line fill="none" stroke="#00ABEB" stroke-width="0.15" stroke-miterlimit="10" x1="-44.96" y1="88.235" x2="181.881" y2="88.235"/>
				
					<line fill="none" stroke="#00ABEB" stroke-width="0.15" stroke-miterlimit="10" x1="-42.973" y1="86.248" x2="183.868" y2="86.248"/>
				
					<line fill="none" stroke="#00ABEB" stroke-width="0.15" stroke-miterlimit="10" x1="-40.984" y1="84.259" x2="185.857" y2="84.259"/>
				
					<line fill="none" stroke="#00ABEB" stroke-width="0.15" stroke-miterlimit="10" x1="-38.997" y1="82.272" x2="187.844" y2="82.272"/>
				
					<line fill="none" stroke="#00ABEB" stroke-width="0.15" stroke-miterlimit="10" x1="-37.008" y1="80.284" x2="189.832" y2="80.284"/>
				
					<line fill="none" stroke="#00ABEB" stroke-width="0.15" stroke-miterlimit="10" x1="-35.02" y1="78.295" x2="191.821" y2="78.295"/>
				
					<line fill="none" stroke="#00ABEB" stroke-width="0.15" stroke-miterlimit="10" x1="-33.033" y1="76.308" x2="193.808" y2="76.308"/>
				
					<line fill="none" stroke="#00ABEB" stroke-width="0.15" stroke-miterlimit="10" x1="-31.045" y1="74.32" x2="195.796" y2="74.32"/>
				
					<line fill="none" stroke="#00ABEB" stroke-width="0.15" stroke-miterlimit="10" x1="-29.056" y1="72.332" x2="197.784" y2="72.332"/>
				
					<line fill="none" stroke="#00ABEB" stroke-width="0.15" stroke-miterlimit="10" x1="-27.069" y1="70.344" x2="199.772" y2="70.344"/>
				
					<line fill="none" stroke="#00ABEB" stroke-width="0.15" stroke-miterlimit="10" x1="-25.081" y1="68.356" x2="201.76" y2="68.356"/>
				
					<line fill="none" stroke="#00ABEB" stroke-width="0.15" stroke-miterlimit="10" x1="-23.093" y1="66.368" x2="203.748" y2="66.368"/>
				
					<line fill="none" stroke="#00ABEB" stroke-width="0.15" stroke-miterlimit="10" x1="-21.105" y1="64.38" x2="205.736" y2="64.38"/>
				
					<line fill="none" stroke="#00ABEB" stroke-width="0.15" stroke-miterlimit="10" x1="-19.117" y1="62.392" x2="207.724" y2="62.392"/>
				
					<line fill="none" stroke="#00ABEB" stroke-width="0.15" stroke-miterlimit="10" x1="-17.129" y1="60.404" x2="209.712" y2="60.404"/>
				
					<line fill="none" stroke="#00ABEB" stroke-width="0.15" stroke-miterlimit="10" x1="-15.141" y1="58.417" x2="211.7" y2="58.417"/>
				
					<line fill="none" stroke="#00ABEB" stroke-width="0.15" stroke-miterlimit="10" x1="-13.153" y1="56.428" x2="213.688" y2="56.428"/>
				
					<line fill="none" stroke="#00ABEB" stroke-width="0.15" stroke-miterlimit="10" x1="-11.165" y1="54.441" x2="215.676" y2="54.441"/>
				
					<line fill="none" stroke="#00ABEB" stroke-width="0.15" stroke-miterlimit="10" x1="-9.177" y1="52.452" x2="217.664" y2="52.452"/>
				
					<line fill="none" stroke="#00ABEB" stroke-width="0.15" stroke-miterlimit="10" x1="-7.189" y1="50.464" x2="219.652" y2="50.464"/>
				
					<line fill="none" stroke="#00ABEB" stroke-width="0.15" stroke-miterlimit="10" x1="-5.201" y1="48.477" x2="221.639" y2="48.477"/>
			</g>
			<g id="Vertical_1_mm_00000181073523592228201180000012361058669048395659_">
				<g>
					
						<line fill="none" stroke="#00ABEB" stroke-width="0.15" stroke-miterlimit="10" x1="-120.417" y1="163.767" x2="-1.097" y2="44.448"/>
				</g>
				
					<line fill="none" stroke="#00ABEB" stroke-width="0.15" stroke-miterlimit="10" x1="-117.583" y1="163.767" x2="1.737" y2="44.448"/>
				
					<line fill="none" stroke="#00ABEB" stroke-width="0.15" stroke-miterlimit="10" x1="-114.748" y1="163.767" x2="4.572" y2="44.448"/>
				
					<line fill="none" stroke="#00ABEB" stroke-width="0.15" stroke-miterlimit="10" x1="-111.913" y1="163.767" x2="7.407" y2="44.448"/>
				
					<line fill="none" stroke="#00ABEB" stroke-width="0.15" stroke-miterlimit="10" x1="-109.079" y1="163.767" x2="10.241" y2="44.448"/>
				
					<line fill="none" stroke="#00ABEB" stroke-width="0.15" stroke-miterlimit="10" x1="-106.244" y1="163.767" x2="13.076" y2="44.448"/>
				
					<line fill="none" stroke="#00ABEB" stroke-width="0.15" stroke-miterlimit="10" x1="-103.409" y1="163.767" x2="15.911" y2="44.448"/>
				
					<line fill="none" stroke="#00ABEB" stroke-width="0.15" stroke-miterlimit="10" x1="-100.575" y1="163.767" x2="18.745" y2="44.448"/>
				
					<line fill="none" stroke="#00ABEB" stroke-width="0.15" stroke-miterlimit="10" x1="-97.74" y1="163.767" x2="21.58" y2="44.448"/>
				
					<line fill="none" stroke="#00ABEB" stroke-width="0.15" stroke-miterlimit="10" x1="-94.906" y1="163.767" x2="24.414" y2="44.448"/>
				
					<line fill="none" stroke="#00ABEB" stroke-width="0.15" stroke-miterlimit="10" x1="-92.071" y1="163.767" x2="27.249" y2="44.448"/>
				
					<line fill="none" stroke="#00ABEB" stroke-width="0.15" stroke-miterlimit="10" x1="-89.236" y1="163.767" x2="30.084" y2="44.448"/>
				
					<line fill="none" stroke="#00ABEB" stroke-width="0.15" stroke-miterlimit="10" x1="-86.402" y1="163.767" x2="32.918" y2="44.448"/>
				
					<line fill="none" stroke="#00ABEB" stroke-width="0.15" stroke-miterlimit="10" x1="-83.567" y1="163.767" x2="35.753" y2="44.448"/>
				
					<line fill="none" stroke="#00ABEB" stroke-width="0.15" stroke-miterlimit="10" x1="-80.732" y1="163.767" x2="38.588" y2="44.448"/>
				
					<line fill="none" stroke="#00ABEB" stroke-width="0.15" stroke-miterlimit="10" x1="-77.898" y1="163.767" x2="41.422" y2="44.448"/>
				
					<line fill="none" stroke="#00ABEB" stroke-width="0.15" stroke-miterlimit="10" x1="-75.063" y1="163.767" x2="44.257" y2="44.448"/>
				
					<line fill="none" stroke="#00ABEB" stroke-width="0.15" stroke-miterlimit="10" x1="-72.228" y1="163.767" x2="47.092" y2="44.448"/>
				
					<line fill="none" stroke="#00ABEB" stroke-width="0.15" stroke-miterlimit="10" x1="-69.394" y1="163.767" x2="49.926" y2="44.448"/>
				
					<line fill="none" stroke="#00ABEB" stroke-width="0.15" stroke-miterlimit="10" x1="-66.559" y1="163.767" x2="52.761" y2="44.448"/>
				
					<line fill="none" stroke="#00ABEB" stroke-width="0.15" stroke-miterlimit="10" x1="-63.724" y1="163.767" x2="55.596" y2="44.448"/>
				
					<line fill="none" stroke="#00ABEB" stroke-width="0.15" stroke-miterlimit="10" x1="-60.89" y1="163.767" x2="58.43" y2="44.448"/>
				
					<line fill="none" stroke="#00ABEB" stroke-width="0.15" stroke-miterlimit="10" x1="-58.055" y1="163.767" x2="61.265" y2="44.448"/>
				
					<line fill="none" stroke="#00ABEB" stroke-width="0.15" stroke-miterlimit="10" x1="-55.22" y1="163.767" x2="64.1" y2="44.448"/>
				
					<line fill="none" stroke="#00ABEB" stroke-width="0.15" stroke-miterlimit="10" x1="-52.386" y1="163.767" x2="66.934" y2="44.448"/>
				
					<line fill="none" stroke="#00ABEB" stroke-width="0.15" stroke-miterlimit="10" x1="-49.551" y1="163.767" x2="69.769" y2="44.448"/>
				
					<line fill="none" stroke="#00ABEB" stroke-width="0.15" stroke-miterlimit="10" x1="-46.717" y1="163.767" x2="72.603" y2="44.448"/>
				
					<line fill="none" stroke="#00ABEB" stroke-width="0.15" stroke-miterlimit="10" x1="-43.882" y1="163.767" x2="75.438" y2="44.448"/>
				
					<line fill="none" stroke="#00ABEB" stroke-width="0.15" stroke-miterlimit="10" x1="-41.047" y1="163.767" x2="78.273" y2="44.448"/>
				
					<line fill="none" stroke="#00ABEB" stroke-width="0.15" stroke-miterlimit="10" x1="-38.213" y1="163.767" x2="81.107" y2="44.448"/>
				
					<line fill="none" stroke="#00ABEB" stroke-width="0.15" stroke-miterlimit="10" x1="-35.378" y1="163.767" x2="83.942" y2="44.448"/>
				
					<line fill="none" stroke="#00ABEB" stroke-width="0.15" stroke-miterlimit="10" x1="-32.543" y1="163.767" x2="86.777" y2="44.448"/>
				
					<line fill="none" stroke="#00ABEB" stroke-width="0.15" stroke-miterlimit="10" x1="-29.709" y1="163.767" x2="89.611" y2="44.448"/>
				
					<line fill="none" stroke="#00ABEB" stroke-width="0.15" stroke-miterlimit="10" x1="-26.874" y1="163.767" x2="92.446" y2="44.448"/>
				
					<line fill="none" stroke="#00ABEB" stroke-width="0.15" stroke-miterlimit="10" x1="-24.039" y1="163.767" x2="95.281" y2="44.448"/>
				
					<line fill="none" stroke="#00ABEB" stroke-width="0.15" stroke-miterlimit="10" x1="-21.205" y1="163.767" x2="98.115" y2="44.448"/>
				
					<line fill="none" stroke="#00ABEB" stroke-width="0.15" stroke-miterlimit="10" x1="-18.37" y1="163.767" x2="100.95" y2="44.448"/>
				
					<line fill="none" stroke="#00ABEB" stroke-width="0.15" stroke-miterlimit="10" x1="-15.535" y1="163.767" x2="103.785" y2="44.448"/>
				
					<line fill="none" stroke="#00ABEB" stroke-width="0.15" stroke-miterlimit="10" x1="-12.701" y1="163.767" x2="106.619" y2="44.448"/>
				
					<line fill="none" stroke="#00ABEB" stroke-width="0.15" stroke-miterlimit="10" x1="-9.866" y1="163.767" x2="109.454" y2="44.448"/>
				
					<line fill="none" stroke="#00ABEB" stroke-width="0.15" stroke-miterlimit="10" x1="-7.032" y1="163.767" x2="112.288" y2="44.448"/>
				
					<line fill="none" stroke="#00ABEB" stroke-width="0.15" stroke-miterlimit="10" x1="-4.197" y1="163.767" x2="115.123" y2="44.448"/>
				
					<line fill="none" stroke="#00ABEB" stroke-width="0.15" stroke-miterlimit="10" x1="-1.362" y1="163.767" x2="117.958" y2="44.448"/>
				
					<line fill="none" stroke="#00ABEB" stroke-width="0.15" stroke-miterlimit="10" x1="1.472" y1="163.767" x2="120.792" y2="44.448"/>
				
					<line fill="none" stroke="#00ABEB" stroke-width="0.15" stroke-miterlimit="10" x1="4.307" y1="163.767" x2="123.627" y2="44.448"/>
				
					<line fill="none" stroke="#00ABEB" stroke-width="0.15" stroke-miterlimit="10" x1="7.142" y1="163.767" x2="126.462" y2="44.448"/>
				
					<line fill="none" stroke="#00ABEB" stroke-width="0.15" stroke-miterlimit="10" x1="9.976" y1="163.767" x2="129.296" y2="44.448"/>
				
					<line fill="none" stroke="#00ABEB" stroke-width="0.15" stroke-miterlimit="10" x1="12.811" y1="163.767" x2="132.131" y2="44.448"/>
				
					<line fill="none" stroke="#00ABEB" stroke-width="0.15" stroke-miterlimit="10" x1="15.646" y1="163.767" x2="134.966" y2="44.448"/>
				
					<line fill="none" stroke="#00ABEB" stroke-width="0.15" stroke-miterlimit="10" x1="18.48" y1="163.767" x2="137.8" y2="44.448"/>
				
					<line fill="none" stroke="#00ABEB" stroke-width="0.15" stroke-miterlimit="10" x1="21.315" y1="163.767" x2="140.635" y2="44.448"/>
				
					<line fill="none" stroke="#00ABEB" stroke-width="0.15" stroke-miterlimit="10" x1="24.15" y1="163.767" x2="143.47" y2="44.448"/>
				
					<line fill="none" stroke="#00ABEB" stroke-width="0.15" stroke-miterlimit="10" x1="26.984" y1="163.767" x2="146.304" y2="44.448"/>
				
					<line fill="none" stroke="#00ABEB" stroke-width="0.15" stroke-miterlimit="10" x1="29.819" y1="163.767" x2="149.139" y2="44.448"/>
				
					<line fill="none" stroke="#00ABEB" stroke-width="0.15" stroke-miterlimit="10" x1="32.654" y1="163.767" x2="151.974" y2="44.448"/>
				
					<line fill="none" stroke="#00ABEB" stroke-width="0.15" stroke-miterlimit="10" x1="35.488" y1="163.767" x2="154.808" y2="44.448"/>
				
					<line fill="none" stroke="#00ABEB" stroke-width="0.15" stroke-miterlimit="10" x1="38.323" y1="163.767" x2="157.643" y2="44.448"/>
				
					<line fill="none" stroke="#00ABEB" stroke-width="0.15" stroke-miterlimit="10" x1="41.157" y1="163.767" x2="160.477" y2="44.448"/>
				
					<line fill="none" stroke="#00ABEB" stroke-width="0.15" stroke-miterlimit="10" x1="43.992" y1="163.767" x2="163.312" y2="44.448"/>
				
					<line fill="none" stroke="#00ABEB" stroke-width="0.15" stroke-miterlimit="10" x1="46.827" y1="163.767" x2="166.147" y2="44.448"/>
				
					<line fill="none" stroke="#00ABEB" stroke-width="0.15" stroke-miterlimit="10" x1="49.661" y1="163.767" x2="168.981" y2="44.448"/>
				
					<line fill="none" stroke="#00ABEB" stroke-width="0.15" stroke-miterlimit="10" x1="52.496" y1="163.767" x2="171.816" y2="44.448"/>
				
					<line fill="none" stroke="#00ABEB" stroke-width="0.15" stroke-miterlimit="10" x1="55.331" y1="163.767" x2="174.651" y2="44.448"/>
				
					<line fill="none" stroke="#00ABEB" stroke-width="0.15" stroke-miterlimit="10" x1="58.165" y1="163.767" x2="177.485" y2="44.448"/>
				<line fill="none" stroke="#00ABEB" stroke-width="0.15" stroke-miterlimit="10" x1="61" y1="163.767" x2="180.32" y2="44.448"/>
				
					<line fill="none" stroke="#00ABEB" stroke-width="0.15" stroke-miterlimit="10" x1="63.835" y1="163.767" x2="183.155" y2="44.448"/>
				
					<line fill="none" stroke="#00ABEB" stroke-width="0.15" stroke-miterlimit="10" x1="66.669" y1="163.767" x2="185.989" y2="44.448"/>
				
					<line fill="none" stroke="#00ABEB" stroke-width="0.15" stroke-miterlimit="10" x1="69.504" y1="163.767" x2="188.824" y2="44.448"/>
				
					<line fill="none" stroke="#00ABEB" stroke-width="0.15" stroke-miterlimit="10" x1="72.339" y1="163.767" x2="191.659" y2="44.448"/>
				
					<line fill="none" stroke="#00ABEB" stroke-width="0.15" stroke-miterlimit="10" x1="75.173" y1="163.767" x2="194.493" y2="44.448"/>
				
					<line fill="none" stroke="#00ABEB" stroke-width="0.15" stroke-miterlimit="10" x1="78.008" y1="163.767" x2="197.328" y2="44.448"/>
				
					<line fill="none" stroke="#00ABEB" stroke-width="0.15" stroke-miterlimit="10" x1="80.843" y1="163.767" x2="200.163" y2="44.448"/>
				
					<line fill="none" stroke="#00ABEB" stroke-width="0.15" stroke-miterlimit="10" x1="83.677" y1="163.767" x2="202.997" y2="44.448"/>
				
					<line fill="none" stroke="#00ABEB" stroke-width="0.15" stroke-miterlimit="10" x1="86.512" y1="163.767" x2="205.832" y2="44.448"/>
				
					<line fill="none" stroke="#00ABEB" stroke-width="0.15" stroke-miterlimit="10" x1="89.346" y1="163.767" x2="208.666" y2="44.448"/>
				
					<line fill="none" stroke="#00ABEB" stroke-width="0.15" stroke-miterlimit="10" x1="92.181" y1="163.767" x2="211.501" y2="44.448"/>
				
					<line fill="none" stroke="#00ABEB" stroke-width="0.15" stroke-miterlimit="10" x1="95.016" y1="163.767" x2="214.336" y2="44.448"/>
				
					<line fill="none" stroke="#00ABEB" stroke-width="0.15" stroke-miterlimit="10" x1="97.85" y1="163.767" x2="217.17" y2="44.448"/>
				
					<line fill="none" stroke="#00ABEB" stroke-width="0.15" stroke-miterlimit="10" x1="100.685" y1="163.767" x2="220.005" y2="44.448"/>
				
					<line fill="none" stroke="#00ABEB" stroke-width="0.15" stroke-miterlimit="10" x1="103.52" y1="163.767" x2="222.84" y2="44.448"/>
				
					<line fill="none" stroke="#00ABEB" stroke-width="0.15" stroke-miterlimit="10" x1="106.354" y1="163.767" x2="225.674" y2="44.448"/>
			</g>
			<g id="Horizontal_5_mm_00000011735556503592991880000008134099091165005186_">
				
					<line fill="none" stroke="#00ABEB" stroke-width="0.3" stroke-miterlimit="10" x1="-120.777" y1="163.777" x2="106.339" y2="163.777"/>
				
					<line fill="none" stroke="#00ABEB" stroke-width="0.3" stroke-miterlimit="10" x1="-110.837" y1="153.837" x2="116.278" y2="153.837"/>
				
					<line fill="none" stroke="#00ABEB" stroke-width="0.3" stroke-miterlimit="10" x1="-100.898" y1="143.898" x2="126.218" y2="143.898"/>
				
					<line fill="none" stroke="#00ABEB" stroke-width="0.3" stroke-miterlimit="10" x1="-90.958" y1="133.958" x2="136.158" y2="133.958"/>
				
					<line fill="none" stroke="#00ABEB" stroke-width="0.3" stroke-miterlimit="10" x1="-81.018" y1="124.018" x2="146.098" y2="124.018"/>
				
					<line fill="none" stroke="#00ABEB" stroke-width="0.3" stroke-miterlimit="10" x1="-71.078" y1="114.078" x2="156.037" y2="114.078"/>
				
					<line fill="none" stroke="#00ABEB" stroke-width="0.3" stroke-miterlimit="10" x1="-61.139" y1="104.139" x2="165.977" y2="104.139"/>
				
					<line fill="none" stroke="#00ABEB" stroke-width="0.3" stroke-miterlimit="10" x1="-51.199" y1="94.199" x2="175.917" y2="94.199"/>
				
					<line fill="none" stroke="#00ABEB" stroke-width="0.3" stroke-miterlimit="10" x1="-41.259" y1="84.259" x2="185.857" y2="84.259"/>
				
					<line fill="none" stroke="#00ABEB" stroke-width="0.3" stroke-miterlimit="10" x1="-31.319" y1="74.32" x2="195.796" y2="74.32"/>
				
					<line fill="none" stroke="#00ABEB" stroke-width="0.3" stroke-miterlimit="10" x1="-21.38" y1="64.38" x2="205.736" y2="64.38"/>
			</g>
			<g id="Vertical_5_mm_00000064346364918789686960000003233481195482251947_">
				
					<line fill="none" stroke="#00ABEB" stroke-width="0.3" stroke-miterlimit="10" x1="-120.417" y1="163.767" x2="-0.904" y2="44.255"/>
				
					<line fill="none" stroke="#00ABEB" stroke-width="0.3" stroke-miterlimit="10" x1="-106.244" y1="163.767" x2="13.268" y2="44.255"/>
				
					<line fill="none" stroke="#00ABEB" stroke-width="0.3" stroke-miterlimit="10" x1="-92.071" y1="163.767" x2="27.442" y2="44.255"/>
				
					<line fill="none" stroke="#00ABEB" stroke-width="0.3" stroke-miterlimit="10" x1="-77.898" y1="163.767" x2="41.615" y2="44.255"/>
				
					<line fill="none" stroke="#00ABEB" stroke-width="0.3" stroke-miterlimit="10" x1="-63.724" y1="163.767" x2="55.788" y2="44.255"/>
				
					<line fill="none" stroke="#00ABEB" stroke-width="0.3" stroke-miterlimit="10" x1="-49.551" y1="163.767" x2="69.962" y2="44.255"/>
				
					<line fill="none" stroke="#00ABEB" stroke-width="0.3" stroke-miterlimit="10" x1="-35.378" y1="163.767" x2="84.135" y2="44.255"/>
				
					<line fill="none" stroke="#00ABEB" stroke-width="0.3" stroke-miterlimit="10" x1="-21.205" y1="163.767" x2="98.308" y2="44.255"/>
				
					<line fill="none" stroke="#00ABEB" stroke-width="0.3" stroke-miterlimit="10" x1="-7.032" y1="163.767" x2="112.48" y2="44.255"/>
				
					<line fill="none" stroke="#00ABEB" stroke-width="0.3" stroke-miterlimit="10" x1="7.142" y1="163.767" x2="126.655" y2="44.255"/>
				
					<line fill="none" stroke="#00ABEB" stroke-width="0.3" stroke-miterlimit="10" x1="21.315" y1="163.767" x2="140.828" y2="44.255"/>
				<line fill="none" stroke="#00ABEB" stroke-width="0.3" stroke-miterlimit="10" x1="35.488" y1="163.767" x2="155" y2="44.255"/>
				
					<line fill="none" stroke="#00ABEB" stroke-width="0.3" stroke-miterlimit="10" x1="49.661" y1="163.767" x2="169.174" y2="44.255"/>
				
					<line fill="none" stroke="#00ABEB" stroke-width="0.3" stroke-miterlimit="10" x1="63.835" y1="163.767" x2="183.348" y2="44.255"/>
				
					<line fill="none" stroke="#00ABEB" stroke-width="0.3" stroke-miterlimit="10" x1="78.008" y1="163.767" x2="197.52" y2="44.255"/>
				
					<line fill="none" stroke="#00ABEB" stroke-width="0.3" stroke-miterlimit="10" x1="92.181" y1="163.767" x2="211.694" y2="44.255"/>
				
					<line fill="none" stroke="#00ABEB" stroke-width="0.3" stroke-miterlimit="10" x1="106.354" y1="163.767" x2="225.867" y2="44.255"/>
			</g>
			<g id="Horizontal_10_mm_00000163045836177147705350000008480455355013810362_">
				
					<line id="_x31_9_00000057116790517712807720000015084113881736219806_" fill="none" stroke="#00ABEB" stroke-width="0.7" stroke-miterlimit="10" x1="-120.777" y1="163.777" x2="106.339" y2="163.777"/>
				
					<line id="_x32_0_00000024685878617286333290000013167547815532084100_" fill="none" stroke="#00ABEB" stroke-width="0.7" stroke-miterlimit="10" x1="-100.898" y1="143.898" x2="126.218" y2="143.898"/>
				
					<line id="_x32_1_00000138564813020868535020000012777939180148238773_" fill="none" stroke="#00ABEB" stroke-width="0.7" stroke-miterlimit="10" x1="-81.018" y1="124.018" x2="146.098" y2="124.018"/>
				
					<line id="_x32_2_00000052807586205252870140000014502512662559454639_" fill="none" stroke="#00ABEB" stroke-width="0.7" stroke-miterlimit="10" x1="-61.139" y1="104.139" x2="165.977" y2="104.139"/>
				
					<line id="_x32_3_00000051376893246677475670000009295515732899575694_" fill="none" stroke="#00ABEB" stroke-width="0.7" stroke-miterlimit="10" x1="-41.259" y1="84.259" x2="185.857" y2="84.259"/>
				
					<line id="_x32_4_00000099657911357833521510000007853591198542098087_" fill="none" stroke="#00ABEB" stroke-width="0.7" stroke-miterlimit="10" x1="-21.38" y1="64.38" x2="205.736" y2="64.38"/>
				
					<line id="_x32_5_00000155127691660191171140000008292164438978366870_" fill="none" stroke="#00ABEB" stroke-width="0.7" stroke-miterlimit="10" x1="-1.5" y1="44.501" x2="225.616" y2="44.501"/>
			</g>
			<g id="Vertical_10_mm_00000134969164297783457920000010833503864539426239_">
				
					<line id="_x30__00000151539528360119995570000005083818057555393183_" fill="none" stroke="#00ABEB" stroke-width="0.7" stroke-miterlimit="10" x1="-120.417" y1="163.767" x2="-0.904" y2="44.255"/>
				
					<line id="_x31__00000021823889366233599640000011971139016478256513_" fill="none" stroke="#00ABEB" stroke-width="0.7" stroke-miterlimit="10" x1="-92.071" y1="163.767" x2="27.442" y2="44.255"/>
				
					<line id="_x32__00000071550223824624162640000006130814236846722696_" fill="none" stroke="#00ABEB" stroke-width="0.7" stroke-miterlimit="10" x1="-63.724" y1="163.767" x2="55.788" y2="44.255"/>
				
					<line id="_x33__00000042015976804734918030000005045165563697445304_" fill="none" stroke="#00ABEB" stroke-width="0.7" stroke-miterlimit="10" x1="-35.378" y1="163.767" x2="84.135" y2="44.255"/>
				
					<line id="_x34__00000081637789328126233800000002486991317463304126_" fill="none" stroke="#00ABEB" stroke-width="0.7" stroke-miterlimit="10" x1="-7.032" y1="163.767" x2="112.48" y2="44.255"/>
				
					<line id="_x35__00000051353690731882489090000004794744233340785543_" fill="none" stroke="#00ABEB" stroke-width="0.7" stroke-miterlimit="10" x1="21.315" y1="163.767" x2="140.828" y2="44.255"/>
				
					<line id="_x36__00000011745311307505536660000010485558803267122343_" fill="none" stroke="#00ABEB" stroke-width="0.7" stroke-miterlimit="10" x1="49.661" y1="163.767" x2="169.174" y2="44.255"/>
				
					<line id="_x37__00000045602144989735358580000003937589459941247142_" fill="none" stroke="#00ABEB" stroke-width="0.7" stroke-miterlimit="10" x1="78.008" y1="163.767" x2="197.52" y2="44.255"/>
				
					<line id="_x38__00000047029857857898873560000014194396358708286345_" fill="none" stroke="#00ABEB" stroke-width="0.7" stroke-miterlimit="10" x1="106.354" y1="163.767" x2="225.867" y2="44.255"/>
			</g>
		</g>
	</g>
</g>
<g id="one_solution">
	<g>
		<g>
			
				<line fill="none" stroke="#309424" stroke-width="0.25" stroke-linecap="round" stroke-linejoin="round" x1="54.083" y1="52.231" x2="54.083" y2="53.231"/>
			
				<line fill="none" stroke="#309424" stroke-width="0.25" stroke-linecap="round" stroke-linejoin="round" stroke-dasharray="1.9688,1.9688" x1="54.083" y1="55.2" x2="54.083" y2="105.405"/>
			
				<line fill="none" stroke="#309424" stroke-width="0.25" stroke-linecap="round" stroke-linejoin="round" x1="54.083" y1="106.389" x2="54.083" y2="107.389"/>
		</g>
	</g>
	<ellipse id="R_shaded" opacity="0.05" fill="#FF0000" cx="76.382" cy="107.389" rx="22.299" ry="7.867"/>
	<path id="volume_00000180344334175285854660000016296759274978050724_" opacity="0.1" fill="#309424" d="M54.083,52.583
		c10.065,47.478,16.554,21.432,21.713,21.141c4.253-0.24,13.539,26.018,22.924-21.485l-0.04-0.008v55.158v0
		c0,4.345-9.983,7.867-22.299,7.867s-22.299-3.522-22.299-7.867v0V52.231L54.083,52.583z"/>
	<g display="none">
		<g display="inline">
			<g>
				
					<line fill="none" stroke="#000000" stroke-width="0.25" stroke-linecap="round" stroke-linejoin="round" x1="56.393" y1="57.239" x2="56.393" y2="58.739"/>
				
					<line fill="none" stroke="#000000" stroke-width="0.25" stroke-linecap="round" stroke-linejoin="round" stroke-dasharray="2.6728,2.6728" x1="56.393" y1="61.412" x2="56.393" y2="81.458"/>
				
					<line fill="none" stroke="#000000" stroke-width="0.25" stroke-linecap="round" stroke-linejoin="round" x1="56.393" y1="82.794" x2="56.393" y2="84.294"/>
			</g>
		</g>
		<g display="inline">
			<g>
				
					<line fill="none" stroke="#000000" stroke-width="0.25" stroke-miterlimit="10" x1="56.393" y1="57.239" x2="54.893" y2="57.239"/>
				
					<line fill="none" stroke="#000000" stroke-width="0.25" stroke-miterlimit="10" stroke-dasharray="3.0246,3.0246" x1="51.868" y1="57.239" x2="47.331" y2="57.239"/>
				
					<line fill="none" stroke="#000000" stroke-width="0.25" stroke-miterlimit="10" x1="45.819" y1="57.239" x2="44.319" y2="57.239"/>
			</g>
		</g>
		<g display="inline">
			<path d="M40.341,58.483c0.85-1.409,1.219-2.129,1.219-2.568c0-0.14-0.07-0.2-0.26-0.32c-0.2-0.13-0.26-0.229-0.26-0.39
				c0-0.22,0.17-0.369,0.399-0.369c0.3,0,0.52,0.25,0.52,0.55c0,0.569-0.48,1.669-1.31,3.048c-1.039,1.719-2.109,2.868-2.678,2.868
				c-0.3,0-0.51-0.17-0.51-0.43c0-0.22,0.17-0.399,0.39-0.399c0.35,0,0.35,0.279,0.61,0.279c0.13,0,0.25-0.079,0.479-0.329
				c0.18-0.19,0.63-0.78,0.709-0.91c0.06-0.119,0.1-0.239,0.1-0.35c0-0.399-0.55-2.639-0.819-3.318c-0.19-0.489-0.37-0.64-0.77-0.64
				c-0.11,0-0.2,0.011-0.31,0.04v-0.17c0.11-0.02,0.22-0.04,0.32-0.06c0.2-0.04,0.53-0.1,1.069-0.18h0.04
				c0.15,0,0.68,1.659,0.85,2.548L40.341,58.483z"/>
		</g>
		<g display="inline">
			<path d="M56.287,89.082c0.699-1.069,1.069-1.429,1.509-1.429c0.24,0,0.41,0.149,0.41,0.369c0,0.21-0.14,0.36-0.34,0.36
				c-0.19,0-0.28-0.17-0.52-0.17c-0.18,0-0.54,0.439-0.979,1.209c0,0.07,0.02,0.21,0.08,0.45l0.32,1.339
				c0.07,0.28,0.16,0.41,0.3,0.41c0.13,0,0.24-0.101,0.47-0.4c0.09-0.12,0.13-0.18,0.21-0.279l0.15,0.09
				c-0.58,0.899-0.839,1.14-1.219,1.14c-0.32,0-0.47-0.181-0.59-0.68l-0.29-1.189l-0.88,1.189c-0.439,0.589-0.64,0.68-0.949,0.68
				c-0.31,0-0.5-0.16-0.5-0.42c0-0.2,0.14-0.36,0.34-0.36c0.09,0,0.19,0.04,0.32,0.11c0.1,0.06,0.2,0.09,0.26,0.09
				c0.11,0,0.3-0.189,0.51-0.49l0.82-1.159l-0.28-1.239c-0.14-0.6-0.21-0.68-0.46-0.68c-0.08,0-0.2,0.021-0.39,0.07l-0.18,0.05
				l-0.03-0.16l0.11-0.04c0.61-0.22,0.939-0.289,1.169-0.289c0.25,0,0.37,0.18,0.51,0.859L56.287,89.082z"/>
		</g>
	</g>
	<g id="Axis">
		<g>
			<g>
				
					<line fill="none" stroke="#000000" stroke-width="0.25" stroke-linecap="round" stroke-linejoin="round" x1="44.319" y1="84.294" x2="44.319" y2="2.259"/>
				<g>
					<polygon points="45.341,3.087 45.158,3.258 44.319,2.355 43.48,3.258 43.297,3.087 44.319,1.988 					"/>
				</g>
			</g>
		</g>
		<g>
			<g>
				
					<line fill="none" stroke="#000000" stroke-width="0.25" stroke-linecap="round" stroke-linejoin="round" x1="44.319" y1="84.294" x2="135.042" y2="84.294"/>
				<g>
					<polygon points="134.214,85.317 134.043,85.134 134.946,84.295 134.043,83.455 134.214,83.272 135.314,84.295 					"/>
				</g>
			</g>
		</g>
		<g>
			<path d="M129.633,90.547c0.85-1.409,1.219-2.129,1.219-2.568c0-0.14-0.07-0.2-0.26-0.32c-0.2-0.13-0.26-0.229-0.26-0.39
				c0-0.22,0.17-0.369,0.399-0.369c0.3,0,0.52,0.25,0.52,0.55c0,0.569-0.48,1.669-1.31,3.048c-1.039,1.719-2.109,2.868-2.678,2.868
				c-0.3,0-0.51-0.17-0.51-0.43c0-0.22,0.17-0.399,0.39-0.399c0.35,0,0.35,0.279,0.61,0.279c0.13,0,0.25-0.079,0.479-0.329
				c0.18-0.19,0.63-0.78,0.709-0.91c0.06-0.119,0.1-0.239,0.1-0.35c0-0.399-0.55-2.639-0.819-3.318c-0.19-0.489-0.37-0.64-0.77-0.64
				c-0.11,0-0.2,0.011-0.31,0.04v-0.17c0.11-0.02,0.22-0.04,0.32-0.06c0.2-0.04,0.53-0.1,1.069-0.18h0.04
				c0.15,0,0.68,1.659,0.85,2.548L129.633,90.547z"/>
		</g>
		<g>
			<path d="M38.671,8.139c0.58,0.13,0.799,0.24,1.199,0.829c0.26,0.38,0.45,0.5,0.7,0.5c0.16,0,0.27-0.06,0.27-0.149
				c0-0.04-0.02-0.091-0.05-0.15c-0.06-0.12-0.08-0.2-0.08-0.28c0.01-0.17,0.17-0.339,0.33-0.339c0.21,0,0.35,0.149,0.35,0.369
				c0,0.4-0.37,0.76-0.929,0.76c-0.29,0-0.63-0.13-1.129-0.439c-0.47-0.29-0.79-0.42-1.05-0.42c-0.16,0-0.29,0.05-0.45,0.18
				l-0.09-0.09l3.098-3.718H39.48c-0.52,0-0.71,0.09-0.91,0.6l-0.16-0.04l0.32-1.159h2.829V4.7L38.671,8.139z"/>
		</g>
		<g>
			<g>
				
					<line fill="none" stroke="#000000" stroke-width="0.25" stroke-linecap="round" stroke-linejoin="round" x1="44.319" y1="84.294" x2="9.725" y2="118.888"/>
				<g>
					<polygon points="9.588,117.579 9.838,117.588 9.793,118.82 11.025,118.775 11.034,119.025 9.534,119.08 					"/>
				</g>
			</g>
		</g>
		<g>
			<path d="M6.435,115.611c0.699-1.069,1.069-1.429,1.509-1.429c0.24,0,0.41,0.149,0.41,0.369c0,0.21-0.14,0.36-0.34,0.36
				c-0.19,0-0.28-0.17-0.52-0.17c-0.18,0-0.54,0.439-0.979,1.209c0,0.07,0.02,0.21,0.08,0.45l0.32,1.339
				c0.07,0.28,0.16,0.41,0.3,0.41c0.13,0,0.24-0.101,0.47-0.4c0.09-0.12,0.13-0.18,0.21-0.279l0.15,0.09
				c-0.58,0.899-0.839,1.14-1.219,1.14c-0.32,0-0.47-0.181-0.59-0.68l-0.29-1.189l-0.88,1.189c-0.439,0.589-0.64,0.68-0.949,0.68
				c-0.31,0-0.5-0.16-0.5-0.42c0-0.2,0.14-0.36,0.34-0.36c0.09,0,0.19,0.04,0.32,0.11c0.1,0.06,0.2,0.09,0.26,0.09
				c0.11,0,0.3-0.189,0.51-0.49l0.82-1.159l-0.28-1.239c-0.14-0.6-0.21-0.68-0.46-0.68c-0.08,0-0.2,0.021-0.39,0.07l-0.18,0.05
				l-0.03-0.16l0.11-0.04c0.61-0.22,0.939-0.289,1.169-0.289c0.25,0,0.37,0.18,0.51,0.859L6.435,115.611z"/>
		</g>
	</g>
	<g id="R">
		<g>
			<g>
				<path fill="none" stroke="#FF0000" stroke-width="0.5" stroke-linecap="round" stroke-linejoin="round" d="M54.083,107.389
					c0-0.331,0.058-0.658,0.171-0.978"/>
				
					<path fill="none" stroke="#FF0000" stroke-width="0.5" stroke-linecap="round" stroke-linejoin="round" stroke-dasharray="1.9246,1.9246" d="
					M55.305,104.815c3.023-3.08,11.318-5.292,21.077-5.292c10.523,0,19.344,2.572,21.688,6.031"/>
				<path fill="none" stroke="#FF0000" stroke-width="0.5" stroke-linecap="round" stroke-linejoin="round" d="M98.51,106.411
					c0.113,0.321,0.171,0.647,0.171,0.978"/>
			</g>
		</g>
		
			<path fill="none" stroke="#FF0000" stroke-width="0.5" stroke-linecap="round" stroke-linejoin="round" stroke-miterlimit="10" d="
			M98.681,107.389c0,4.345-9.983,7.867-22.299,7.867s-22.299-3.522-22.299-7.867"/>
	</g>
	<g>
		<path fill="#FF0000" d="M103.335,107.93c1.319,0,2.039,0.56,2.039,1.409c0,0.479-0.25,0.97-0.66,1.279
			c-0.31,0.24-0.64,0.359-1.31,0.51l0.89,2.349c0.22,0.59,0.42,0.819,0.87,0.819v0.16h-1.469l-1.229-3.238l-0.66-0.05l-0.55,2.028
			c-0.11,0.391-0.13,0.53-0.13,0.63c0,0.3,0.1,0.41,0.67,0.47v0.16h-2.429v-0.16c0.55-0.069,0.689-0.26,0.85-0.85l1.189-4.308
			c0.07-0.27,0.12-0.459,0.12-0.629c0-0.11-0.07-0.23-0.14-0.28c-0.11-0.07-0.15-0.08-0.57-0.14v-0.16H103.335z M101.926,110.798
			c0.25,0.04,0.33,0.05,0.51,0.05c1.189,0,1.889-0.569,1.889-1.499c0-0.689-0.419-1.119-1.199-1.119c-0.31,0-0.52,0.11-0.57,0.3
			L101.926,110.798z"/>
	</g>
	<g id="f_x28_R_x29_">
		<g>
			<g>
				<path fill="none" stroke="#0000FF" stroke-width="0.3" stroke-linecap="round" stroke-linejoin="round" d="M54.083,52.231
					c0-0.331,0.058-0.658,0.171-0.978"/>
				
					<path fill="none" stroke="#0000FF" stroke-width="0.3" stroke-linecap="round" stroke-linejoin="round" stroke-dasharray="1.9246,1.9246" d="
					M55.305,49.657c3.023-3.08,11.318-5.292,21.077-5.292c10.523,0,19.344,2.572,21.688,6.031"/>
				<path fill="none" stroke="#0000FF" stroke-width="0.3" stroke-linecap="round" stroke-linejoin="round" d="M98.51,51.253
					c0.113,0.321,0.171,0.647,0.171,0.978"/>
			</g>
		</g>
		
			<path fill="none" stroke="#0000FF" stroke-width="0.3" stroke-linecap="round" stroke-linejoin="round" stroke-miterlimit="10" d="
			M98.681,52.231c0,4.345-9.983,7.867-22.299,7.867s-22.299-3.522-22.299-7.867"/>
	</g>
	<g>
		<g>
			
				<line fill="none" stroke="#309424" stroke-width="0.25" stroke-linecap="round" stroke-linejoin="round" x1="98.681" y1="52.231" x2="98.681" y2="53.231"/>
			
				<line fill="none" stroke="#309424" stroke-width="0.25" stroke-linecap="round" stroke-linejoin="round" stroke-dasharray="1.9688,1.9688" x1="98.681" y1="55.2" x2="98.681" y2="105.405"/>
			
				<line fill="none" stroke="#309424" stroke-width="0.25" stroke-linecap="round" stroke-linejoin="round" x1="98.681" y1="106.389" x2="98.681" y2="107.389"/>
		</g>
	</g>
	<g>
		
			<path fill="none" stroke="#0000FF" stroke-width="0.75" stroke-linecap="round" stroke-linejoin="round" stroke-miterlimit="10" d="
			M46.564,7.098c14.537,106.269,22.89,66.983,29.232,66.626c5.222-0.294,18.032,39.358,29.296-66.626"/>
	</g>
	<g id="f_x28_R_x29__00000049910956025112469460000003815154765754196390_">
		<g>
			<g>
				<path fill="none" stroke="#0000FF" stroke-width="0.35" stroke-linecap="round" stroke-linejoin="round" d="M47.928,16.9
					c0-0.334,0.035-0.665,0.103-0.992"/>
				
					<path fill="none" stroke="#0000FF" stroke-width="0.35" stroke-linecap="round" stroke-linejoin="round" stroke-dasharray="2.018,2.018" d="
					M48.793,14.052C51.872,9.09,62.809,5.42,75.828,5.42c13.785,0,25.235,4.114,27.495,9.52"/>
				<path fill="none" stroke="#0000FF" stroke-width="0.35" stroke-linecap="round" stroke-linejoin="round" d="M103.626,15.908
					c0.068,0.327,0.103,0.658,0.103,0.992"/>
			</g>
		</g>
		
			<path fill="none" stroke="#0000FF" stroke-width="0.35" stroke-linecap="round" stroke-linejoin="round" stroke-miterlimit="10" d="
			M103.728,16.9c0,6.34-12.491,11.48-27.9,11.48s-27.9-5.14-27.9-11.48"/>
	</g>
	<g>
		<path fill="#0000FF" d="M106.287,21.004c0.58,0.13,0.799,0.24,1.199,0.829c0.26,0.38,0.45,0.5,0.7,0.5
			c0.16,0,0.27-0.06,0.27-0.149c0-0.04-0.02-0.091-0.05-0.15c-0.06-0.12-0.08-0.2-0.08-0.28c0.01-0.17,0.17-0.339,0.33-0.339
			c0.21,0,0.35,0.149,0.35,0.369c0,0.4-0.37,0.76-0.929,0.76c-0.29,0-0.63-0.13-1.129-0.439c-0.47-0.29-0.79-0.42-1.05-0.42
			c-0.16,0-0.29,0.05-0.45,0.18l-0.09-0.09l3.098-3.718h-1.359c-0.52,0-0.71,0.09-0.91,0.6l-0.16-0.04l0.32-1.159h2.829v0.109
			L106.287,21.004z"/>
		<path fill="#0000FF" d="M110.127,18.535v-0.659h5.038v0.659H110.127z M110.127,20.535v-0.66h5.038v0.66H110.127z"/>
		<path fill="#0000FF" d="M117.357,17.456c0.22-0.71,0.39-1.26,0.72-1.729c0.3-0.43,0.709-0.77,1.319-0.77
			c0.49,0,0.86,0.26,0.86,0.62c0,0.22-0.19,0.43-0.42,0.43c-0.18,0-0.37-0.15-0.37-0.39c0-0.17,0.1-0.221,0.1-0.311
			c0-0.08-0.08-0.13-0.22-0.13c-0.56,0-0.929,0.7-1.219,2.279h1.069l-0.06,0.319h-1.079l-0.72,3.198
			c-0.42,1.85-1.089,2.829-1.999,2.829c-0.45,0-0.79-0.261-0.79-0.61c0-0.229,0.17-0.42,0.38-0.42c0.23,0,0.38,0.16,0.38,0.37
			c0,0.13-0.09,0.18-0.09,0.29c0,0.09,0.08,0.16,0.2,0.16c0.42,0,0.74-0.54,0.969-1.619l0.88-4.198h-0.91l0.07-0.319H117.357z"/>
		<path fill="#0000FF" d="M121.946,15.198c-1.52,1.438-2.039,3.647-2.039,5.687c0,0.97,0.11,1.579,0.48,2.599l-0.18,0.06
			c-0.64-1.029-0.989-2.328-0.989-3.607c0-1.029,0.22-2.049,0.739-2.898c0.39-0.63,0.939-1.149,1.859-1.989L121.946,15.198z"/>
		<path fill="#0000FF" d="M124.676,18.755c0.699-1.069,1.069-1.429,1.509-1.429c0.24,0,0.41,0.149,0.41,0.369
			c0,0.21-0.14,0.36-0.34,0.36c-0.19,0-0.28-0.17-0.52-0.17c-0.18,0-0.54,0.439-0.979,1.209c0,0.07,0.02,0.21,0.08,0.45l0.32,1.339
			c0.07,0.28,0.16,0.41,0.3,0.41c0.13,0,0.24-0.101,0.47-0.4c0.09-0.12,0.13-0.18,0.21-0.279l0.15,0.09
			c-0.58,0.899-0.839,1.14-1.219,1.14c-0.32,0-0.47-0.181-0.59-0.68l-0.29-1.189l-0.88,1.189c-0.439,0.589-0.64,0.68-0.949,0.68
			c-0.31,0-0.5-0.16-0.5-0.42c0-0.2,0.14-0.36,0.34-0.36c0.09,0,0.19,0.04,0.32,0.11c0.1,0.06,0.2,0.09,0.26,0.09
			c0.11,0,0.3-0.189,0.51-0.49l0.82-1.159l-0.28-1.239c-0.14-0.6-0.21-0.68-0.46-0.68c-0.08,0-0.2,0.021-0.39,0.07l-0.18,0.05
			l-0.03-0.16l0.11-0.04c0.61-0.22,0.939-0.289,1.169-0.289c0.25,0,0.37,0.18,0.51,0.859L124.676,18.755z"/>
		<path fill="#0000FF" d="M126.517,22.843c0.53-0.34,0.759-0.63,0.759-0.899c0-0.1-0.04-0.17-0.2-0.29
			c-0.2-0.149-0.25-0.3-0.25-0.489c0-0.24,0.22-0.44,0.51-0.44c0.36,0,0.58,0.34,0.58,0.74c0,0.56-0.459,1.119-1.299,1.559
			L126.517,22.843z"/>
		<path fill="#0000FF" d="M131.706,20.974c0.85-1.409,1.219-2.129,1.219-2.568c0-0.14-0.07-0.2-0.26-0.32
			c-0.2-0.13-0.26-0.229-0.26-0.39c0-0.22,0.17-0.369,0.399-0.369c0.3,0,0.52,0.25,0.52,0.55c0,0.569-0.48,1.669-1.31,3.048
			c-1.039,1.719-2.109,2.868-2.678,2.868c-0.3,0-0.51-0.17-0.51-0.43c0-0.22,0.17-0.399,0.39-0.399c0.35,0,0.35,0.279,0.61,0.279
			c0.13,0,0.25-0.079,0.479-0.329c0.18-0.19,0.63-0.78,0.709-0.91c0.06-0.119,0.1-0.239,0.1-0.35c0-0.399-0.55-2.639-0.819-3.318
			c-0.19-0.489-0.37-0.64-0.77-0.64c-0.11,0-0.2,0.011-0.31,0.04v-0.17c0.11-0.02,0.22-0.04,0.32-0.06c0.2-0.04,0.53-0.1,1.069-0.18
			h0.04c0.15,0,0.68,1.659,0.85,2.548L131.706,20.974z"/>
		<path fill="#0000FF" d="M135.406,15.047c0.47,0.84,0.63,1.229,0.8,1.969c0.12,0.561,0.189,1.14,0.189,1.68
			c0,1.009-0.28,1.959-0.779,2.818c-0.39,0.67-0.91,1.229-1.819,2.019l-0.13-0.149c0.839-0.89,1.209-1.56,1.549-2.619
			c0.31-0.959,0.49-2.108,0.49-3.048c0-1-0.15-1.81-0.49-2.619L135.406,15.047z"/>
	</g>
	<g>
		<g>
			
				<line fill="none" stroke="#197B17" stroke-width="0.25" stroke-miterlimit="10" x1="96.437" y1="76.676" x2="107.612" y2="65.299"/>
			<g>
				<polygon fill="#197B17" points="97.589,76.824 96.653,76.456 96.268,75.527 95.391,77.741 				"/>
			</g>
		</g>
	</g>
	<g>
		<path fill="#197B17" d="M109.283,62.535c0.719-0.739,1.369-1.839,1.369-2.309c0-0.1-0.05-0.17-0.18-0.29
			c-0.18-0.16-0.25-0.29-0.25-0.449c0-0.21,0.17-0.34,0.379-0.34c0.33,0,0.56,0.319,0.56,0.589c0,0.431-0.28,1.01-0.63,1.55
			c-0.45,0.699-1.009,1.339-1.189,1.529c-0.549,0.589-0.819,0.919-0.989,0.919c-0.06,0-0.09-0.1-0.09-0.27v-0.24
			c0-0.689-0.11-2.019-0.24-2.778c-0.13-0.76-0.24-0.93-0.609-0.93c-0.1,0-0.2,0-0.31,0.011v-0.13c0.45-0.07,0.8-0.141,1.12-0.21
			c0.08-0.03,0.15-0.04,0.2-0.04c0.09,0,0.09,0.06,0.3,1.139c0.13,0.67,0.19,1.22,0.25,2.569L109.283,62.535z"/>
		<path fill="#197B17" d="M114.812,62.835c-0.58,0.58-1.22,0.83-1.879,0.83c-0.939,0-1.469-0.521-1.469-1.39
			c0-1.119,0.75-2.269,1.799-2.828c0.39-0.21,0.79-0.3,1.199-0.3c0.81,0,1.409,0.52,1.409,1.398
			C115.871,61.306,115.472,62.185,114.812,62.835z M114.323,59.357c-0.44,0-0.88,0.31-1.279,0.909
			c-0.46,0.699-0.74,1.489-0.74,2.278c0,0.6,0.31,0.91,0.78,0.91c0.439,0,0.819-0.29,1.209-0.83c0.46-0.63,0.74-1.569,0.74-2.328
			C115.032,59.686,114.752,59.357,114.323,59.357z"/>
		<path fill="#197B17" d="M117.453,62.625c-0.05,0.18-0.08,0.35-0.08,0.43c0,0.12,0.07,0.181,0.17,0.181c0.15,0,0.38-0.16,0.67-0.57
			l0.25-0.35l0.14,0.1c-0.6,0.95-0.969,1.25-1.509,1.25c-0.32,0-0.49-0.19-0.49-0.561c0-0.079,0.01-0.199,0.04-0.3l1.369-5.236
			c0.03-0.101,0.03-0.16,0.03-0.19c0-0.12-0.17-0.22-0.49-0.22h-0.18v-0.16c0.59-0.069,0.959-0.14,1.549-0.27l0.06,0.05
			L117.453,62.625z"/>
		<path fill="#197B17" d="M123.722,62.455c-0.65,0.989-0.91,1.189-1.379,1.189c-0.3,0-0.48-0.17-0.48-0.479
			c0-0.22,0.13-0.89,0.45-1.969c-1.18,1.938-1.679,2.469-2.389,2.469c-0.35,0-0.53-0.16-0.53-0.53c0-0.189,0.09-0.55,0.27-1.279
			l0.35-1.389c0.08-0.33,0.14-0.59,0.14-0.67c0-0.07-0.05-0.15-0.11-0.18c-0.09-0.051-0.12-0.061-0.5-0.061v-0.14
			c0.569-0.07,0.929-0.14,1.499-0.27l0.04,0.029l-0.89,3.549c-0.01,0.029-0.03,0.119-0.03,0.159c0,0.15,0.05,0.25,0.2,0.25
			c0.34,0,0.8-0.529,1.419-1.469c0.47-0.71,0.609-1.09,1.099-2.429h0.74l-0.79,2.988c-0.05,0.189-0.19,0.659-0.19,0.779
			c0,0.11,0.04,0.17,0.11,0.17c0.16,0,0.32-0.14,0.83-0.81L123.722,62.455z"/>
		<path fill="#197B17" d="M130.96,62.575c-0.53,0.739-0.97,1.069-1.439,1.069c-0.26,0-0.4-0.16-0.4-0.46c0-0.1,0.03-0.27,0.13-0.659
			l0.58-2.269c0.05-0.2,0.07-0.33,0.07-0.38c0-0.12-0.09-0.21-0.2-0.21c-0.3,0-0.81,0.47-1.31,1.169
			c-0.49,0.689-0.689,1.18-1.079,2.719h-0.75l0.27-0.93c0.44-1.519,0.68-2.578,0.68-2.708c0-0.16-0.09-0.25-0.22-0.25
			c-0.34,0-0.93,0.579-1.489,1.429c-0.34,0.521-0.48,0.88-0.959,2.459h-0.75l0.43-1.439c0.4-1.329,0.55-2.158,0.55-2.278
			c0-0.15-0.14-0.22-0.41-0.22h-0.25v-0.16l1.619-0.31l0.03,0.02l-0.58,2.089c0.89-1.449,1.589-2.108,2.199-2.108
			c0.4,0,0.6,0.239,0.6,0.6c0,0.189-0.13,0.749-0.4,1.519c0.7-1.109,1.109-1.608,1.599-1.919c0.24-0.149,0.43-0.199,0.63-0.199
			c0.37,0,0.58,0.27,0.58,0.629c0,0.07-0.02,0.23-0.03,0.28l-0.68,2.509c-0.06,0.229-0.1,0.409-0.1,0.449
			c0,0.11,0.04,0.16,0.12,0.16c0.17,0,0.35-0.16,0.649-0.529l0.21-0.26l0.15,0.119L130.96,62.575z"/>
		<path fill="#197B17" d="M134.891,62.585c-0.569,0.7-1.209,1.08-2.039,1.08c-0.81,0-1.349-0.54-1.349-1.37
			c0-1.549,1.489-3.147,2.988-3.147c0.53,0,0.819,0.26,0.819,0.68c0,0.859-1.049,1.639-2.838,1.868c-0.1,0.2-0.1,0.46-0.1,0.61
			c0,0.55,0.37,0.909,0.93,0.909c0.44,0,0.75-0.16,1.469-0.75L134.891,62.585z M132.543,61.475c0.86-0.21,1.239-0.39,1.609-0.739
			c0.31-0.3,0.5-0.66,0.5-0.97c0-0.239-0.07-0.39-0.35-0.39c-0.57,0-1.25,0.77-1.589,1.659L132.543,61.475z"/>
	</g>
</g>
<g id="Layer_2">
	<polygon id="bottom" fill="#FFD1FF" stroke="#FF00FF" stroke-width="0.25" stroke-miterlimit="10" points="79.196,108.383 
		81.184,106.395 77.54,106.395 77.54,106.395 75.552,108.383 	"/>
	
		<line display="none" fill="none" stroke="#FF00FF" stroke-width="0.1" stroke-miterlimit="10" x1="75.552" y1="108.383" x2="75.552" y2="75.092"/>
	<g id="vert_shaded">
		<rect x="75.552" y="75.092" opacity="0.3" fill="#FFD1FF" width="3.621" height="33.212"/>
		<polygon opacity="0.3" fill="#FFD1FF" points="81.184,106.316 79.173,108.383 79.173,75.171 81.184,73.104 		"/>
	</g>
	<g id="vert_lines">
		
			<line fill="none" stroke="#FF00FF" stroke-width="0.1" stroke-miterlimit="10" x1="79.173" y1="108.383" x2="79.173" y2="75.092"/>
		
			<line fill="none" stroke="#FF00FF" stroke-width="0.1" stroke-miterlimit="10" x1="81.184" y1="106.395" x2="81.184" y2="73.104"/>
		
			<line fill="none" stroke="#FF00FF" stroke-width="0.1" stroke-miterlimit="10" x1="75.552" y1="108.383" x2="75.552" y2="75.092"/>
		
			<line fill="none" stroke="#FF00FF" stroke-width="0.1" stroke-miterlimit="10" x1="79.173" y1="108.383" x2="79.173" y2="75.092"/>
		
			<line fill="none" stroke="#FF00FF" stroke-width="0.1" stroke-miterlimit="10" stroke-dasharray="1" x1="77.595" y1="106.395" x2="77.595" y2="73.104"/>
	</g>
	<g id="xi_x2C_yi">
		
			<line fill="none" stroke="#FF00FF" stroke-width="0.1" stroke-linecap="round" stroke-linejoin="round" stroke-miterlimit="10" stroke-dasharray="3" x1="22.163" y1="106.395" x2="77.485" y2="106.395"/>
		
			<line fill="none" stroke="#FF00FF" stroke-width="0.1" stroke-linecap="round" stroke-linejoin="round" stroke-miterlimit="10" stroke-dasharray="3" x1="77.595" y1="106.395" x2="99.768" y2="84.222"/>
	</g>
	<polygon id="top_00000169517951083679319210000003849426244188678021_" opacity="0.05" fill="#FF00FF" points="79.196,75.092 
		81.184,73.104 77.54,73.104 77.54,73.104 75.552,75.092 	"/>
	<polygon id="top" fill="none" stroke="#FF00FF" stroke-width="0.25" stroke-miterlimit="10" points="79.196,75.092 81.184,73.104 
		77.54,73.104 77.54,73.104 75.552,75.092 	"/>
	<g>
		<path fill="#FF00FF" d="M17.51,103.826c0.699-1.069,1.069-1.429,1.509-1.429c0.24,0,0.41,0.149,0.41,0.369
			c0,0.21-0.14,0.36-0.34,0.36c-0.19,0-0.28-0.17-0.52-0.17c-0.18,0-0.54,0.439-0.979,1.209c0,0.07,0.02,0.21,0.08,0.45l0.32,1.339
			c0.07,0.28,0.16,0.41,0.3,0.41c0.13,0,0.24-0.101,0.47-0.4c0.09-0.12,0.13-0.18,0.21-0.279l0.15,0.09
			c-0.58,0.899-0.839,1.14-1.219,1.14c-0.32,0-0.47-0.181-0.59-0.68l-0.29-1.189l-0.88,1.189c-0.439,0.589-0.64,0.68-0.949,0.68
			c-0.31,0-0.5-0.16-0.5-0.42c0-0.2,0.14-0.36,0.34-0.36c0.09,0,0.19,0.04,0.32,0.11c0.1,0.06,0.2,0.09,0.26,0.09
			c0.11,0,0.3-0.189,0.51-0.49l0.82-1.159l-0.28-1.239c-0.14-0.6-0.21-0.68-0.46-0.68c-0.08,0-0.2,0.021-0.39,0.07l-0.18,0.05
			l-0.03-0.16l0.11-0.04c0.61-0.22,0.939-0.289,1.169-0.289c0.25,0,0.37,0.18,0.51,0.859L17.51,103.826z"/>
		<path fill="#FF00FF" d="M20.577,106.288c-0.275,0.421-0.436,0.57-0.686,0.57c-0.166,0-0.246-0.09-0.246-0.274
			c0-0.101,0.035-0.275,0.11-0.556l0.24-0.886c0.025-0.091,0.045-0.181,0.045-0.221c0-0.1-0.05-0.115-0.32-0.12v-0.08
			c0.195-0.015,0.295-0.03,0.801-0.125l0.02,0.015l-0.471,1.717c-0.025,0.085-0.05,0.15-0.05,0.221c0,0.05,0.03,0.074,0.07,0.074
			c0.085,0,0.205-0.104,0.42-0.39L20.577,106.288z M20.477,104.061c-0.145,0-0.24-0.104-0.24-0.265c0-0.155,0.1-0.266,0.235-0.266
			c0.135,0,0.25,0.13,0.25,0.275C20.722,103.947,20.607,104.061,20.477,104.061z"/>
	</g>
	<g>
		<path fill="#FF00FF" d="M103.01,88.623c0.85-1.409,1.219-2.129,1.219-2.568c0-0.14-0.07-0.2-0.26-0.32
			c-0.2-0.13-0.26-0.229-0.26-0.39c0-0.22,0.17-0.369,0.399-0.369c0.3,0,0.52,0.25,0.52,0.55c0,0.569-0.48,1.669-1.31,3.048
			c-1.039,1.719-2.109,2.868-2.678,2.868c-0.3,0-0.51-0.17-0.51-0.43c0-0.22,0.17-0.399,0.39-0.399c0.35,0,0.35,0.279,0.61,0.279
			c0.13,0,0.25-0.079,0.479-0.329c0.18-0.19,0.63-0.78,0.709-0.91c0.06-0.119,0.1-0.239,0.1-0.35c0-0.399-0.55-2.639-0.819-3.318
			c-0.19-0.489-0.37-0.64-0.77-0.64c-0.11,0-0.2,0.011-0.31,0.04v-0.17c0.11-0.02,0.22-0.04,0.32-0.06c0.2-0.04,0.53-0.1,1.069-0.18
			h0.04c0.15,0,0.68,1.659,0.85,2.548L103.01,88.623z"/>
		<path fill="#FF00FF" d="M105.987,88.868c-0.275,0.421-0.436,0.57-0.686,0.57c-0.166,0-0.246-0.09-0.246-0.274
			c0-0.101,0.035-0.275,0.11-0.556l0.24-0.886c0.025-0.091,0.045-0.181,0.045-0.221c0-0.1-0.05-0.115-0.32-0.12v-0.08
			c0.195-0.015,0.295-0.03,0.801-0.125l0.02,0.015l-0.471,1.717c-0.025,0.085-0.05,0.15-0.05,0.221c0,0.05,0.03,0.074,0.07,0.074
			c0.085,0,0.205-0.104,0.42-0.39L105.987,88.868z M105.887,86.64c-0.145,0-0.24-0.104-0.24-0.265c0-0.155,0.1-0.266,0.235-0.266
			c0.135,0,0.25,0.13,0.25,0.275C106.132,86.526,106.017,86.64,105.887,86.64z"/>
	</g>
	<g>
		<path fill="#FF00FF" d="M81.584,109.504l3.998-6.677h0.26l1.319,6.677H81.584z M85.142,104.247l-2.549,4.317h3.418L85.142,104.247
			z"/>
		<path fill="#FF00FF" d="M91.203,109.504v-0.16c0.629-0.029,0.77-0.189,0.77-0.529c0-0.08-0.01-0.17-0.02-0.26l-0.2-1.31h-2.199
			l-0.589,1.109c-0.14,0.26-0.22,0.5-0.22,0.66c0,0.189,0.15,0.31,0.62,0.329v0.16h-1.859v-0.16c0.46-0.09,0.59-0.26,1.339-1.559
			l2.849-4.958h0.26l0.919,5.527c0.14,0.84,0.25,0.949,0.779,0.989v0.16H91.203z M91.252,104.257l-1.489,2.629h1.939L91.252,104.257
			z"/>
	</g>
	<g>
	</g>
	<g>
	</g>
</g>
</svg>
