<?xml version="1.0" encoding="utf-8"?>
<!-- Generator: Adobe Illustrator 25.4.1, SVG Export Plug-In . SVG Version: 6.00 Build 0)  -->
<svg version="1.1" xmlns="http://www.w3.org/2000/svg" xmlns:xlink="http://www.w3.org/1999/xlink" x="0px" y="0px"
	 viewBox="0 0 90.709 59.528" enable-background="new 0 0 90.709 59.528" xml:space="preserve">
<g id="Graph_paper" opacity="0.5">
	<g id="Clipped_grid">
		<defs>
			<rect id="SVGID_1_" y="-2.82" width="92.294" height="65.196"/>
		</defs>
		<clipPath id="SVGID_00000165920825534772393530000015369233315945622151_">
			<use xlink:href="#SVGID_1_"  overflow="visible"/>
		</clipPath>
		<g id="Grid" opacity="0.25" clip-path="url(#SVGID_00000165920825534772393530000015369233315945622151_)">
			<g id="Horizontal_1_mm">
				
					<line fill="none" stroke="#00ABEB" stroke-width="0.15" stroke-miterlimit="10" x1="-0.069" y1="-45.34" x2="226.772" y2="-45.34"/>
				
					<line fill="none" stroke="#00ABEB" stroke-width="0.15" stroke-miterlimit="10" x1="-0.069" y1="-48.175" x2="226.772" y2="-48.175"/>
				
					<line fill="none" stroke="#00ABEB" stroke-width="0.15" stroke-miterlimit="10" x1="-0.069" y1="121.904" x2="226.772" y2="121.904"/>
				
					<line fill="none" stroke="#00ABEB" stroke-width="0.15" stroke-miterlimit="10" x1="-0.069" y1="119.069" x2="226.772" y2="119.069"/>
				
					<line fill="none" stroke="#00ABEB" stroke-width="0.15" stroke-miterlimit="10" x1="-0.069" y1="116.235" x2="226.772" y2="116.235"/>
				
					<line fill="none" stroke="#00ABEB" stroke-width="0.15" stroke-miterlimit="10" x1="-0.069" y1="113.4" x2="226.772" y2="113.4"/>
				
					<line fill="none" stroke="#00ABEB" stroke-width="0.15" stroke-miterlimit="10" x1="-0.069" y1="110.565" x2="226.772" y2="110.565"/>
				
					<line fill="none" stroke="#00ABEB" stroke-width="0.15" stroke-miterlimit="10" x1="-0.069" y1="107.731" x2="226.772" y2="107.731"/>
				
					<line fill="none" stroke="#00ABEB" stroke-width="0.15" stroke-miterlimit="10" x1="-0.069" y1="104.896" x2="226.772" y2="104.896"/>
				
					<line fill="none" stroke="#00ABEB" stroke-width="0.15" stroke-miterlimit="10" x1="-0.069" y1="102.062" x2="226.772" y2="102.062"/>
				
					<line fill="none" stroke="#00ABEB" stroke-width="0.15" stroke-miterlimit="10" x1="-0.069" y1="99.226" x2="226.772" y2="99.226"/>
				
					<line fill="none" stroke="#00ABEB" stroke-width="0.15" stroke-miterlimit="10" x1="-0.069" y1="96.392" x2="226.772" y2="96.392"/>
				
					<line fill="none" stroke="#00ABEB" stroke-width="0.15" stroke-miterlimit="10" x1="-0.069" y1="93.558" x2="226.772" y2="93.558"/>
				
					<line fill="none" stroke="#00ABEB" stroke-width="0.15" stroke-miterlimit="10" x1="-0.069" y1="90.723" x2="226.772" y2="90.723"/>
				
					<line fill="none" stroke="#00ABEB" stroke-width="0.15" stroke-miterlimit="10" x1="-0.069" y1="87.888" x2="226.772" y2="87.888"/>
				
					<line fill="none" stroke="#00ABEB" stroke-width="0.15" stroke-miterlimit="10" x1="-0.069" y1="85.054" x2="226.772" y2="85.054"/>
				
					<line fill="none" stroke="#00ABEB" stroke-width="0.15" stroke-miterlimit="10" x1="-0.069" y1="82.219" x2="226.772" y2="82.219"/>
				
					<line fill="none" stroke="#00ABEB" stroke-width="0.15" stroke-miterlimit="10" x1="-0.069" y1="79.384" x2="226.772" y2="79.384"/>
				
					<line fill="none" stroke="#00ABEB" stroke-width="0.15" stroke-miterlimit="10" x1="-0.069" y1="76.55" x2="226.772" y2="76.55"/>
				
					<line fill="none" stroke="#00ABEB" stroke-width="0.15" stroke-miterlimit="10" x1="-0.069" y1="73.715" x2="226.772" y2="73.715"/>
				
					<line fill="none" stroke="#00ABEB" stroke-width="0.15" stroke-miterlimit="10" x1="-0.069" y1="70.88" x2="226.772" y2="70.88"/>
				
					<line fill="none" stroke="#00ABEB" stroke-width="0.15" stroke-miterlimit="10" x1="-0.069" y1="68.046" x2="226.772" y2="68.046"/>
				
					<line fill="none" stroke="#00ABEB" stroke-width="0.15" stroke-miterlimit="10" x1="-0.069" y1="65.211" x2="226.772" y2="65.211"/>
				
					<line fill="none" stroke="#00ABEB" stroke-width="0.15" stroke-miterlimit="10" x1="-0.069" y1="62.375" x2="226.772" y2="62.375"/>
				
					<line fill="none" stroke="#00ABEB" stroke-width="0.15" stroke-miterlimit="10" x1="-0.069" y1="59.541" x2="226.772" y2="59.541"/>
				
					<line fill="none" stroke="#00ABEB" stroke-width="0.15" stroke-miterlimit="10" x1="-0.069" y1="56.706" x2="226.772" y2="56.706"/>
				
					<line fill="none" stroke="#00ABEB" stroke-width="0.15" stroke-miterlimit="10" x1="-0.069" y1="53.872" x2="226.772" y2="53.872"/>
				
					<line fill="none" stroke="#00ABEB" stroke-width="0.15" stroke-miterlimit="10" x1="-0.069" y1="51.038" x2="226.772" y2="51.038"/>
				
					<line fill="none" stroke="#00ABEB" stroke-width="0.15" stroke-miterlimit="10" x1="-0.069" y1="48.203" x2="226.772" y2="48.203"/>
				
					<line fill="none" stroke="#00ABEB" stroke-width="0.15" stroke-miterlimit="10" x1="-0.069" y1="45.369" x2="226.772" y2="45.369"/>
				
					<line fill="none" stroke="#00ABEB" stroke-width="0.15" stroke-miterlimit="10" x1="-0.069" y1="42.534" x2="226.772" y2="42.534"/>
				
					<line fill="none" stroke="#00ABEB" stroke-width="0.15" stroke-miterlimit="10" x1="-0.069" y1="39.699" x2="226.772" y2="39.699"/>
				
					<line fill="none" stroke="#00ABEB" stroke-width="0.15" stroke-miterlimit="10" x1="-0.069" y1="36.865" x2="226.772" y2="36.865"/>
				
					<line fill="none" stroke="#00ABEB" stroke-width="0.15" stroke-miterlimit="10" x1="-0.069" y1="34.03" x2="226.772" y2="34.03"/>
				
					<line fill="none" stroke="#00ABEB" stroke-width="0.15" stroke-miterlimit="10" x1="-0.069" y1="31.195" x2="226.772" y2="31.195"/>
				
					<line fill="none" stroke="#00ABEB" stroke-width="0.15" stroke-miterlimit="10" x1="-0.069" y1="28.361" x2="226.772" y2="28.361"/>
				
					<line fill="none" stroke="#00ABEB" stroke-width="0.15" stroke-miterlimit="10" x1="-0.069" y1="25.526" x2="226.772" y2="25.526"/>
				
					<line fill="none" stroke="#00ABEB" stroke-width="0.15" stroke-miterlimit="10" x1="-0.069" y1="22.691" x2="226.772" y2="22.691"/>
				
					<line fill="none" stroke="#00ABEB" stroke-width="0.15" stroke-miterlimit="10" x1="-0.069" y1="19.857" x2="226.772" y2="19.857"/>
				
					<line fill="none" stroke="#00ABEB" stroke-width="0.15" stroke-miterlimit="10" x1="-0.069" y1="17.022" x2="226.772" y2="17.022"/>
				
					<line fill="none" stroke="#00ABEB" stroke-width="0.15" stroke-miterlimit="10" x1="-0.069" y1="14.187" x2="226.772" y2="14.187"/>
				
					<line fill="none" stroke="#00ABEB" stroke-width="0.15" stroke-miterlimit="10" x1="-0.069" y1="11.353" x2="226.772" y2="11.353"/>
				
					<line fill="none" stroke="#00ABEB" stroke-width="0.15" stroke-miterlimit="10" x1="-0.069" y1="8.517" x2="226.772" y2="8.517"/>
				
					<line fill="none" stroke="#00ABEB" stroke-width="0.15" stroke-miterlimit="10" x1="-0.069" y1="5.684" x2="226.772" y2="5.684"/>
				
					<line fill="none" stroke="#00ABEB" stroke-width="0.15" stroke-miterlimit="10" x1="-0.069" y1="2.849" x2="226.772" y2="2.849"/>
				
					<line fill="none" stroke="#00ABEB" stroke-width="0.15" stroke-miterlimit="10" x1="-0.069" y1="0.014" x2="226.772" y2="0.014"/>
				
					<line fill="none" stroke="#00ABEB" stroke-width="0.15" stroke-miterlimit="10" x1="-0.069" y1="-2.82" x2="226.772" y2="-2.82"/>
				
					<line fill="none" stroke="#00ABEB" stroke-width="0.15" stroke-miterlimit="10" x1="-0.069" y1="-5.655" x2="226.772" y2="-5.655"/>
				
					<line fill="none" stroke="#00ABEB" stroke-width="0.15" stroke-miterlimit="10" x1="-0.069" y1="-8.49" x2="226.772" y2="-8.49"/>
				
					<line fill="none" stroke="#00ABEB" stroke-width="0.15" stroke-miterlimit="10" x1="-0.069" y1="-11.324" x2="226.772" y2="-11.324"/>
				
					<line fill="none" stroke="#00ABEB" stroke-width="0.15" stroke-miterlimit="10" x1="-0.069" y1="-14.159" x2="226.772" y2="-14.159"/>
				
					<line fill="none" stroke="#00ABEB" stroke-width="0.15" stroke-miterlimit="10" x1="-0.069" y1="-16.994" x2="226.772" y2="-16.994"/>
				
					<line fill="none" stroke="#00ABEB" stroke-width="0.15" stroke-miterlimit="10" x1="-0.069" y1="-19.828" x2="226.772" y2="-19.828"/>
				
					<line fill="none" stroke="#00ABEB" stroke-width="0.15" stroke-miterlimit="10" x1="-0.069" y1="-22.663" x2="226.772" y2="-22.663"/>
				
					<line fill="none" stroke="#00ABEB" stroke-width="0.15" stroke-miterlimit="10" x1="-0.069" y1="-25.498" x2="226.772" y2="-25.498"/>
				
					<line fill="none" stroke="#00ABEB" stroke-width="0.15" stroke-miterlimit="10" x1="-0.069" y1="-28.332" x2="226.772" y2="-28.332"/>
				
					<line fill="none" stroke="#00ABEB" stroke-width="0.15" stroke-miterlimit="10" x1="-0.069" y1="-31.168" x2="226.772" y2="-31.168"/>
				
					<line fill="none" stroke="#00ABEB" stroke-width="0.15" stroke-miterlimit="10" x1="-0.069" y1="-34.002" x2="226.772" y2="-34.002"/>
				
					<line fill="none" stroke="#00ABEB" stroke-width="0.15" stroke-miterlimit="10" x1="-0.069" y1="-36.837" x2="226.772" y2="-36.837"/>
				
					<line fill="none" stroke="#00ABEB" stroke-width="0.15" stroke-miterlimit="10" x1="-0.069" y1="-39.671" x2="226.772" y2="-39.671"/>
				
					<line fill="none" stroke="#00ABEB" stroke-width="0.15" stroke-miterlimit="10" x1="-0.069" y1="-42.505" x2="226.772" y2="-42.505"/>
			</g>
			<g id="Vertical_1_mm">
				<g>
					
						<line fill="none" stroke="#00ABEB" stroke-width="0.15" stroke-miterlimit="10" x1="0.006" y1="121.89" x2="0.006" y2="-48.251"/>
				</g>
				<line fill="none" stroke="#00ABEB" stroke-width="0.15" stroke-miterlimit="10" x1="2.84" y1="121.89" x2="2.84" y2="-48.251"/>
				
					<line fill="none" stroke="#00ABEB" stroke-width="0.15" stroke-miterlimit="10" x1="5.675" y1="121.89" x2="5.675" y2="-48.251"/>
				<line fill="none" stroke="#00ABEB" stroke-width="0.15" stroke-miterlimit="10" x1="8.51" y1="121.89" x2="8.51" y2="-48.251"/>
				
					<line fill="none" stroke="#00ABEB" stroke-width="0.15" stroke-miterlimit="10" x1="11.344" y1="121.89" x2="11.344" y2="-48.251"/>
				
					<line fill="none" stroke="#00ABEB" stroke-width="0.15" stroke-miterlimit="10" x1="14.179" y1="121.89" x2="14.179" y2="-48.251"/>
				
					<line fill="none" stroke="#00ABEB" stroke-width="0.15" stroke-miterlimit="10" x1="17.014" y1="121.89" x2="17.014" y2="-48.251"/>
				
					<line fill="none" stroke="#00ABEB" stroke-width="0.15" stroke-miterlimit="10" x1="19.848" y1="121.89" x2="19.848" y2="-48.251"/>
				
					<line fill="none" stroke="#00ABEB" stroke-width="0.15" stroke-miterlimit="10" x1="22.684" y1="121.89" x2="22.684" y2="-48.251"/>
				
					<line fill="none" stroke="#00ABEB" stroke-width="0.15" stroke-miterlimit="10" x1="25.518" y1="121.89" x2="25.518" y2="-48.251"/>
				
					<line fill="none" stroke="#00ABEB" stroke-width="0.15" stroke-miterlimit="10" x1="28.353" y1="121.89" x2="28.353" y2="-48.251"/>
				
					<line fill="none" stroke="#00ABEB" stroke-width="0.15" stroke-miterlimit="10" x1="31.188" y1="121.89" x2="31.188" y2="-48.251"/>
				
					<line fill="none" stroke="#00ABEB" stroke-width="0.15" stroke-miterlimit="10" x1="34.021" y1="121.89" x2="34.021" y2="-48.251"/>
				
					<line fill="none" stroke="#00ABEB" stroke-width="0.15" stroke-miterlimit="10" x1="36.856" y1="121.89" x2="36.856" y2="-48.251"/>
				
					<line fill="none" stroke="#00ABEB" stroke-width="0.15" stroke-miterlimit="10" x1="39.691" y1="121.89" x2="39.691" y2="-48.251"/>
				
					<line fill="none" stroke="#00ABEB" stroke-width="0.15" stroke-miterlimit="10" x1="42.525" y1="121.89" x2="42.525" y2="-48.251"/>
				
					<line fill="none" stroke="#00ABEB" stroke-width="0.15" stroke-miterlimit="10" x1="45.36" y1="121.89" x2="45.36" y2="-48.251"/>
				
					<line fill="none" stroke="#00ABEB" stroke-width="0.15" stroke-miterlimit="10" x1="48.195" y1="121.89" x2="48.195" y2="-48.251"/>
				
					<line fill="none" stroke="#00ABEB" stroke-width="0.15" stroke-miterlimit="10" x1="51.029" y1="121.89" x2="51.029" y2="-48.251"/>
				
					<line fill="none" stroke="#00ABEB" stroke-width="0.15" stroke-miterlimit="10" x1="53.864" y1="121.89" x2="53.864" y2="-48.251"/>
				
					<line fill="none" stroke="#00ABEB" stroke-width="0.15" stroke-miterlimit="10" x1="56.699" y1="121.89" x2="56.699" y2="-48.251"/>
				
					<line fill="none" stroke="#00ABEB" stroke-width="0.15" stroke-miterlimit="10" x1="59.533" y1="121.89" x2="59.533" y2="-48.251"/>
				
					<line fill="none" stroke="#00ABEB" stroke-width="0.15" stroke-miterlimit="10" x1="62.368" y1="121.89" x2="62.368" y2="-48.251"/>
				
					<line fill="none" stroke="#00ABEB" stroke-width="0.15" stroke-miterlimit="10" x1="65.203" y1="121.89" x2="65.203" y2="-48.251"/>
				
					<line fill="none" stroke="#00ABEB" stroke-width="0.15" stroke-miterlimit="10" x1="68.038" y1="121.89" x2="68.038" y2="-48.251"/>
				
					<line fill="none" stroke="#00ABEB" stroke-width="0.15" stroke-miterlimit="10" x1="70.873" y1="121.89" x2="70.873" y2="-48.251"/>
				
					<line fill="none" stroke="#00ABEB" stroke-width="0.15" stroke-miterlimit="10" x1="73.706" y1="121.89" x2="73.706" y2="-48.251"/>
				
					<line fill="none" stroke="#00ABEB" stroke-width="0.15" stroke-miterlimit="10" x1="76.541" y1="121.89" x2="76.541" y2="-48.251"/>
				
					<line fill="none" stroke="#00ABEB" stroke-width="0.15" stroke-miterlimit="10" x1="79.377" y1="121.89" x2="79.377" y2="-48.251"/>
				
					<line fill="none" stroke="#00ABEB" stroke-width="0.15" stroke-miterlimit="10" x1="82.21" y1="121.89" x2="82.21" y2="-48.251"/>
				
					<line fill="none" stroke="#00ABEB" stroke-width="0.15" stroke-miterlimit="10" x1="85.045" y1="121.89" x2="85.045" y2="-48.251"/>
				
					<line fill="none" stroke="#00ABEB" stroke-width="0.15" stroke-miterlimit="10" x1="87.88" y1="121.89" x2="87.88" y2="-48.251"/>
				
					<line fill="none" stroke="#00ABEB" stroke-width="0.15" stroke-miterlimit="10" x1="90.714" y1="121.89" x2="90.714" y2="-48.251"/>
				
					<line fill="none" stroke="#00ABEB" stroke-width="0.15" stroke-miterlimit="10" x1="93.549" y1="121.89" x2="93.549" y2="-48.251"/>
				
					<line fill="none" stroke="#00ABEB" stroke-width="0.15" stroke-miterlimit="10" x1="96.384" y1="121.89" x2="96.384" y2="-48.251"/>
				
					<line fill="none" stroke="#00ABEB" stroke-width="0.15" stroke-miterlimit="10" x1="99.218" y1="121.89" x2="99.218" y2="-48.251"/>
				
					<line fill="none" stroke="#00ABEB" stroke-width="0.15" stroke-miterlimit="10" x1="102.053" y1="121.89" x2="102.053" y2="-48.251"/>
				
					<line fill="none" stroke="#00ABEB" stroke-width="0.15" stroke-miterlimit="10" x1="104.888" y1="121.89" x2="104.888" y2="-48.251"/>
				
					<line fill="none" stroke="#00ABEB" stroke-width="0.15" stroke-miterlimit="10" x1="107.722" y1="121.89" x2="107.722" y2="-48.251"/>
				
					<line fill="none" stroke="#00ABEB" stroke-width="0.15" stroke-miterlimit="10" x1="110.557" y1="121.89" x2="110.557" y2="-48.251"/>
				
					<line fill="none" stroke="#00ABEB" stroke-width="0.15" stroke-miterlimit="10" x1="113.391" y1="121.89" x2="113.391" y2="-48.251"/>
				
					<line fill="none" stroke="#00ABEB" stroke-width="0.15" stroke-miterlimit="10" x1="116.227" y1="121.89" x2="116.227" y2="-48.251"/>
				
					<line fill="none" stroke="#00ABEB" stroke-width="0.15" stroke-miterlimit="10" x1="119.062" y1="121.89" x2="119.062" y2="-48.251"/>
				
					<line fill="none" stroke="#00ABEB" stroke-width="0.15" stroke-miterlimit="10" x1="121.896" y1="121.89" x2="121.896" y2="-48.251"/>
				
					<line fill="none" stroke="#00ABEB" stroke-width="0.15" stroke-miterlimit="10" x1="124.73" y1="121.89" x2="124.73" y2="-48.251"/>
				
					<line fill="none" stroke="#00ABEB" stroke-width="0.15" stroke-miterlimit="10" x1="127.565" y1="121.89" x2="127.565" y2="-48.251"/>
				
					<line fill="none" stroke="#00ABEB" stroke-width="0.15" stroke-miterlimit="10" x1="130.399" y1="121.89" x2="130.399" y2="-48.251"/>
				
					<line fill="none" stroke="#00ABEB" stroke-width="0.15" stroke-miterlimit="10" x1="133.234" y1="121.89" x2="133.234" y2="-48.251"/>
				
					<line fill="none" stroke="#00ABEB" stroke-width="0.15" stroke-miterlimit="10" x1="136.069" y1="121.89" x2="136.069" y2="-48.251"/>
				
					<line fill="none" stroke="#00ABEB" stroke-width="0.15" stroke-miterlimit="10" x1="138.903" y1="121.89" x2="138.903" y2="-48.251"/>
				
					<line fill="none" stroke="#00ABEB" stroke-width="0.15" stroke-miterlimit="10" x1="141.738" y1="121.89" x2="141.738" y2="-48.251"/>
				
					<line fill="none" stroke="#00ABEB" stroke-width="0.15" stroke-miterlimit="10" x1="144.573" y1="121.89" x2="144.573" y2="-48.251"/>
				
					<line fill="none" stroke="#00ABEB" stroke-width="0.15" stroke-miterlimit="10" x1="147.407" y1="121.89" x2="147.407" y2="-48.251"/>
				
					<line fill="none" stroke="#00ABEB" stroke-width="0.15" stroke-miterlimit="10" x1="150.242" y1="121.89" x2="150.242" y2="-48.251"/>
				
					<line fill="none" stroke="#00ABEB" stroke-width="0.15" stroke-miterlimit="10" x1="153.077" y1="121.89" x2="153.077" y2="-48.251"/>
				
					<line fill="none" stroke="#00ABEB" stroke-width="0.15" stroke-miterlimit="10" x1="155.911" y1="121.89" x2="155.911" y2="-48.251"/>
				
					<line fill="none" stroke="#00ABEB" stroke-width="0.15" stroke-miterlimit="10" x1="158.747" y1="121.89" x2="158.747" y2="-48.251"/>
				
					<line fill="none" stroke="#00ABEB" stroke-width="0.15" stroke-miterlimit="10" x1="161.581" y1="121.89" x2="161.581" y2="-48.251"/>
				
					<line fill="none" stroke="#00ABEB" stroke-width="0.15" stroke-miterlimit="10" x1="164.415" y1="121.89" x2="164.415" y2="-48.251"/>
				
					<line fill="none" stroke="#00ABEB" stroke-width="0.15" stroke-miterlimit="10" x1="167.25" y1="121.89" x2="167.25" y2="-48.251"/>
				
					<line fill="none" stroke="#00ABEB" stroke-width="0.15" stroke-miterlimit="10" x1="170.085" y1="121.89" x2="170.085" y2="-48.251"/>
				
					<line fill="none" stroke="#00ABEB" stroke-width="0.15" stroke-miterlimit="10" x1="172.919" y1="121.89" x2="172.919" y2="-48.251"/>
				
					<line fill="none" stroke="#00ABEB" stroke-width="0.15" stroke-miterlimit="10" x1="175.754" y1="121.89" x2="175.754" y2="-48.251"/>
				
					<line fill="none" stroke="#00ABEB" stroke-width="0.15" stroke-miterlimit="10" x1="178.588" y1="121.89" x2="178.588" y2="-48.251"/>
				
					<line fill="none" stroke="#00ABEB" stroke-width="0.15" stroke-miterlimit="10" x1="181.423" y1="121.89" x2="181.423" y2="-48.251"/>
				
					<line fill="none" stroke="#00ABEB" stroke-width="0.15" stroke-miterlimit="10" x1="184.258" y1="121.89" x2="184.258" y2="-48.251"/>
				
					<line fill="none" stroke="#00ABEB" stroke-width="0.15" stroke-miterlimit="10" x1="187.092" y1="121.89" x2="187.092" y2="-48.251"/>
				
					<line fill="none" stroke="#00ABEB" stroke-width="0.15" stroke-miterlimit="10" x1="189.927" y1="121.89" x2="189.927" y2="-48.251"/>
				
					<line fill="none" stroke="#00ABEB" stroke-width="0.15" stroke-miterlimit="10" x1="192.762" y1="121.89" x2="192.762" y2="-48.251"/>
				
					<line fill="none" stroke="#00ABEB" stroke-width="0.15" stroke-miterlimit="10" x1="195.596" y1="121.89" x2="195.596" y2="-48.251"/>
				
					<line fill="none" stroke="#00ABEB" stroke-width="0.15" stroke-miterlimit="10" x1="198.431" y1="121.89" x2="198.431" y2="-48.251"/>
				
					<line fill="none" stroke="#00ABEB" stroke-width="0.15" stroke-miterlimit="10" x1="201.266" y1="121.89" x2="201.266" y2="-48.251"/>
				
					<line fill="none" stroke="#00ABEB" stroke-width="0.15" stroke-miterlimit="10" x1="204.101" y1="121.89" x2="204.101" y2="-48.251"/>
				
					<line fill="none" stroke="#00ABEB" stroke-width="0.15" stroke-miterlimit="10" x1="206.936" y1="121.89" x2="206.936" y2="-48.251"/>
				
					<line fill="none" stroke="#00ABEB" stroke-width="0.15" stroke-miterlimit="10" x1="209.77" y1="121.89" x2="209.77" y2="-48.251"/>
				
					<line fill="none" stroke="#00ABEB" stroke-width="0.15" stroke-miterlimit="10" x1="212.604" y1="121.89" x2="212.604" y2="-48.251"/>
				
					<line fill="none" stroke="#00ABEB" stroke-width="0.15" stroke-miterlimit="10" x1="215.439" y1="121.89" x2="215.439" y2="-48.251"/>
				
					<line fill="none" stroke="#00ABEB" stroke-width="0.15" stroke-miterlimit="10" x1="218.273" y1="121.89" x2="218.273" y2="-48.251"/>
				
					<line fill="none" stroke="#00ABEB" stroke-width="0.15" stroke-miterlimit="10" x1="221.108" y1="121.89" x2="221.108" y2="-48.251"/>
				
					<line fill="none" stroke="#00ABEB" stroke-width="0.15" stroke-miterlimit="10" x1="223.943" y1="121.89" x2="223.943" y2="-48.251"/>
				
					<line fill="none" stroke="#00ABEB" stroke-width="0.15" stroke-miterlimit="10" x1="226.777" y1="121.89" x2="226.777" y2="-48.251"/>
			</g>
			<g id="Horizontal_5_mm_1_">
				
					<line fill="none" stroke="#00ABEB" stroke-width="0.3" stroke-miterlimit="10" x1="-0.344" y1="121.904" x2="226.772" y2="121.904"/>
				
					<line fill="none" stroke="#00ABEB" stroke-width="0.3" stroke-miterlimit="10" x1="-0.344" y1="107.731" x2="226.772" y2="107.731"/>
				
					<line fill="none" stroke="#00ABEB" stroke-width="0.3" stroke-miterlimit="10" x1="-0.344" y1="93.558" x2="226.772" y2="93.558"/>
				
					<line fill="none" stroke="#00ABEB" stroke-width="0.3" stroke-miterlimit="10" x1="-0.344" y1="79.384" x2="226.772" y2="79.384"/>
				
					<line fill="none" stroke="#00ABEB" stroke-width="0.3" stroke-miterlimit="10" x1="-0.344" y1="65.211" x2="226.772" y2="65.211"/>
				
					<line fill="none" stroke="#00ABEB" stroke-width="0.3" stroke-miterlimit="10" x1="-0.344" y1="51.038" x2="226.772" y2="51.038"/>
				
					<line fill="none" stroke="#00ABEB" stroke-width="0.3" stroke-miterlimit="10" x1="-0.344" y1="36.865" x2="226.772" y2="36.865"/>
				
					<line fill="none" stroke="#00ABEB" stroke-width="0.3" stroke-miterlimit="10" x1="-0.344" y1="22.691" x2="226.772" y2="22.691"/>
				
					<line fill="none" stroke="#00ABEB" stroke-width="0.3" stroke-miterlimit="10" x1="-0.344" y1="8.517" x2="226.772" y2="8.517"/>
				
					<line fill="none" stroke="#00ABEB" stroke-width="0.3" stroke-miterlimit="10" x1="-0.344" y1="-5.655" x2="226.772" y2="-5.655"/>
				
					<line fill="none" stroke="#00ABEB" stroke-width="0.3" stroke-miterlimit="10" x1="-0.344" y1="-19.828" x2="226.772" y2="-19.828"/>
			</g>
			<g id="Vertical_5_mm">
				
					<line fill="none" stroke="#00ABEB" stroke-width="0.3" stroke-miterlimit="10" x1="0.006" y1="121.89" x2="0.006" y2="-48.525"/>
				
					<line fill="none" stroke="#00ABEB" stroke-width="0.3" stroke-miterlimit="10" x1="14.179" y1="121.89" x2="14.179" y2="-48.525"/>
				
					<line fill="none" stroke="#00ABEB" stroke-width="0.3" stroke-miterlimit="10" x1="28.353" y1="121.89" x2="28.353" y2="-48.525"/>
				
					<line fill="none" stroke="#00ABEB" stroke-width="0.3" stroke-miterlimit="10" x1="42.525" y1="121.89" x2="42.525" y2="-48.525"/>
				
					<line fill="none" stroke="#00ABEB" stroke-width="0.3" stroke-miterlimit="10" x1="56.699" y1="121.89" x2="56.699" y2="-48.525"/>
				
					<line fill="none" stroke="#00ABEB" stroke-width="0.3" stroke-miterlimit="10" x1="70.873" y1="121.89" x2="70.873" y2="-48.525"/>
				
					<line fill="none" stroke="#00ABEB" stroke-width="0.3" stroke-miterlimit="10" x1="85.045" y1="121.89" x2="85.045" y2="-48.525"/>
				
					<line fill="none" stroke="#00ABEB" stroke-width="0.3" stroke-miterlimit="10" x1="99.218" y1="121.89" x2="99.218" y2="-48.525"/>
				
					<line fill="none" stroke="#00ABEB" stroke-width="0.3" stroke-miterlimit="10" x1="113.391" y1="121.89" x2="113.391" y2="-48.525"/>
				
					<line fill="none" stroke="#00ABEB" stroke-width="0.3" stroke-miterlimit="10" x1="127.565" y1="121.89" x2="127.565" y2="-48.525"/>
				
					<line fill="none" stroke="#00ABEB" stroke-width="0.3" stroke-miterlimit="10" x1="141.738" y1="121.89" x2="141.738" y2="-48.525"/>
				
					<line fill="none" stroke="#00ABEB" stroke-width="0.3" stroke-miterlimit="10" x1="155.911" y1="121.89" x2="155.911" y2="-48.525"/>
				
					<line fill="none" stroke="#00ABEB" stroke-width="0.3" stroke-miterlimit="10" x1="170.085" y1="121.89" x2="170.085" y2="-48.525"/>
				
					<line fill="none" stroke="#00ABEB" stroke-width="0.3" stroke-miterlimit="10" x1="184.258" y1="121.89" x2="184.258" y2="-48.525"/>
				
					<line fill="none" stroke="#00ABEB" stroke-width="0.3" stroke-miterlimit="10" x1="198.431" y1="121.89" x2="198.431" y2="-48.525"/>
				
					<line fill="none" stroke="#00ABEB" stroke-width="0.3" stroke-miterlimit="10" x1="212.604" y1="121.89" x2="212.604" y2="-48.525"/>
				
					<line fill="none" stroke="#00ABEB" stroke-width="0.3" stroke-miterlimit="10" x1="226.777" y1="121.89" x2="226.777" y2="-48.525"/>
			</g>
			<g id="Horizontal_10_mm">
				
					<line id="_x31_9_1_" fill="none" stroke="#00ABEB" stroke-width="0.7" stroke-miterlimit="10" x1="-0.344" y1="121.904" x2="226.772" y2="121.904"/>
				
					<line id="_x32_0" fill="none" stroke="#00ABEB" stroke-width="0.7" stroke-miterlimit="10" x1="-0.344" y1="93.558" x2="226.772" y2="93.558"/>
				
					<line id="_x32_1" fill="none" stroke="#00ABEB" stroke-width="0.7" stroke-miterlimit="10" x1="-0.344" y1="65.211" x2="226.772" y2="65.211"/>
				
					<line id="_x32_2" fill="none" stroke="#00ABEB" stroke-width="0.7" stroke-miterlimit="10" x1="-0.344" y1="36.865" x2="226.772" y2="36.865"/>
				
					<line id="_x32_3" fill="none" stroke="#00ABEB" stroke-width="0.7" stroke-miterlimit="10" x1="-0.344" y1="8.517" x2="226.772" y2="8.517"/>
				
					<line id="_x32_4" fill="none" stroke="#00ABEB" stroke-width="0.7" stroke-miterlimit="10" x1="-0.344" y1="-19.828" x2="226.772" y2="-19.828"/>
				
					<line id="_x32_5" fill="none" stroke="#00ABEB" stroke-width="0.7" stroke-miterlimit="10" x1="-0.344" y1="-48.175" x2="226.772" y2="-48.175"/>
			</g>
			<g id="Vertical_10_mm">
				
					<line id="_x30_" fill="none" stroke="#00ABEB" stroke-width="0.7" stroke-miterlimit="10" x1="0.006" y1="121.89" x2="0.006" y2="-48.525"/>
				
					<line id="_x31_" fill="none" stroke="#00ABEB" stroke-width="0.7" stroke-miterlimit="10" x1="28.353" y1="121.89" x2="28.353" y2="-48.525"/>
				
					<line id="_x32_" fill="none" stroke="#00ABEB" stroke-width="0.7" stroke-miterlimit="10" x1="56.699" y1="121.89" x2="56.699" y2="-48.525"/>
				
					<line id="_x33_" fill="none" stroke="#00ABEB" stroke-width="0.7" stroke-miterlimit="10" x1="85.045" y1="121.89" x2="85.045" y2="-48.525"/>
				
					<line id="_x34_" fill="none" stroke="#00ABEB" stroke-width="0.7" stroke-miterlimit="10" x1="113.391" y1="121.89" x2="113.391" y2="-48.525"/>
				
					<line id="_x35_" fill="none" stroke="#00ABEB" stroke-width="0.7" stroke-miterlimit="10" x1="141.738" y1="121.89" x2="141.738" y2="-48.525"/>
				
					<line id="_x36_" fill="none" stroke="#00ABEB" stroke-width="0.7" stroke-miterlimit="10" x1="170.085" y1="121.89" x2="170.085" y2="-48.525"/>
				
					<line id="_x37_" fill="none" stroke="#00ABEB" stroke-width="0.7" stroke-miterlimit="10" x1="198.431" y1="121.89" x2="198.431" y2="-48.525"/>
				
					<line id="_x38_" fill="none" stroke="#00ABEB" stroke-width="0.7" stroke-miterlimit="10" x1="226.777" y1="121.89" x2="226.777" y2="-48.525"/>
			</g>
		</g>
	</g>
</g>
<g id="Layer_3">
	<path fill="#DCDCDC" stroke="#000000" stroke-width="0.2" stroke-miterlimit="10" d="M77.204,29.112
		c8.776,14.078-9.055,26.56-26.101,27.257c-39.016,1.596-36.188-9.627-33.2-21.153c3.076-11.866-14.116-23.384,23.153-22.748
		C55.224,12.71,69.337,16.491,77.204,29.112z"/>
	<g>
		<path d="M25.411,25.984c1.019-1.691,1.463-2.555,1.463-3.082c0-0.168-0.084-0.24-0.312-0.384c-0.24-0.156-0.312-0.276-0.312-0.468
			c0-0.264,0.204-0.444,0.479-0.444c0.36,0,0.624,0.3,0.624,0.66c0,0.684-0.576,2.003-1.571,3.658
			c-1.248,2.063-2.531,3.442-3.214,3.442c-0.36,0-0.611-0.204-0.611-0.516c0-0.264,0.204-0.48,0.467-0.48
			c0.42,0,0.42,0.336,0.732,0.336c0.156,0,0.3-0.096,0.576-0.396c0.216-0.228,0.755-0.935,0.852-1.091
			c0.072-0.144,0.12-0.288,0.12-0.42c0-0.479-0.66-3.166-0.983-3.981c-0.228-0.588-0.444-0.768-0.923-0.768
			c-0.132,0-0.24,0.012-0.372,0.048v-0.204c0.132-0.024,0.264-0.048,0.384-0.072c0.24-0.048,0.636-0.12,1.284-0.216h0.048
			c0.18,0,0.815,1.991,1.02,3.058L25.411,25.984z"/>
	</g>
</g>
<g id="Layer_2">
	<g>
		<path d="M38.506,42.627c1.583,0,2.447,0.671,2.447,1.691c0,0.576-0.3,1.164-0.792,1.535c-0.372,0.288-0.768,0.432-1.571,0.612
			l1.067,2.818c0.264,0.708,0.504,0.983,1.043,0.983v0.192h-1.763l-1.475-3.886l-0.792-0.06l-0.66,2.435
			c-0.132,0.468-0.156,0.636-0.156,0.756c0,0.359,0.12,0.492,0.803,0.563v0.192h-2.914v-0.192c0.66-0.084,0.827-0.312,1.02-1.02
			l1.427-5.169c0.084-0.324,0.144-0.552,0.144-0.756c0-0.132-0.084-0.276-0.168-0.335c-0.132-0.084-0.18-0.096-0.684-0.168v-0.192
			H38.506z M36.815,46.069c0.3,0.048,0.396,0.06,0.611,0.06c1.427,0,2.267-0.684,2.267-1.799c0-0.828-0.504-1.343-1.439-1.343
			c-0.372,0-0.624,0.132-0.684,0.359L36.815,46.069z"/>
	</g>
	<g>
		<g>
			<line fill="none" stroke="#000000" stroke-width="0.1" stroke-miterlimit="10" x1="59.682" y1="36.85" x2="59.708" y2="35.351"/>
			
				<line fill="none" stroke="#000000" stroke-width="0.1" stroke-miterlimit="10" stroke-dasharray="3.1899,3.1899" x1="59.764" y1="32.161" x2="59.848" y2="27.377"/>
			
				<line fill="none" stroke="#000000" stroke-width="0.1" stroke-miterlimit="10" x1="59.876" y1="25.782" x2="59.903" y2="24.283"/>
		</g>
	</g>
	<g>
		<g>
			<line fill="none" stroke="#000000" stroke-width="0.21" stroke-miterlimit="10" x1="28.43" y1="3.027" x2="28.43" y2="58.24"/>
			<g>
				<polygon points="27.653,3.617 28.43,3.286 29.208,3.617 28.43,1.773 				"/>
			</g>
		</g>
	</g>
	<g>
		<g>
			<line fill="none" stroke="#000000" stroke-width="0.21" stroke-miterlimit="10" x1="89.455" y1="36.85" x2="1.734" y2="36.85"/>
			<g>
				<polygon points="88.865,36.073 89.196,36.85 88.865,37.628 90.709,36.85 				"/>
			</g>
		</g>
	</g>
	<g>
		<path fill="#0000FF" d="M7.287,40.748c0.611,0,1.103,0.12,1.427,0.396c0.396,0.335,0.54,0.875,0.54,1.451
			c0,0.647-0.204,1.259-0.516,1.847c-0.636,1.188-1.559,1.703-2.327,1.703c-0.936,0-1.176-0.432-1.368-0.852
			c-0.467,0.564-0.911,0.852-1.763,0.852c-0.768,0-1.547-0.503-1.547-1.691c0-0.324,0.036-0.647,0.12-0.972
			c0.396-1.451,1.631-2.734,3.322-2.734h0.216v0.192c-0.612,0-1.151,0.216-1.607,0.78c-0.6,0.755-1.043,2.051-1.043,3.046
			c0,0.828,0.3,1.127,0.684,1.127c0.54,0,1.235-0.671,1.463-1.331c-0.024-0.18-0.036-0.444-0.036-0.612
			c0-0.3,0.048-0.671,0.144-1.031c0.168-0.624,0.528-1.199,0.972-1.199c0.288,0,0.419,0.228,0.419,0.552
			c0,0.54-0.24,1.295-0.503,1.751c-0.096,0.168-0.252,0.432-0.372,0.611c-0.024,0.084-0.024,0.168-0.024,0.252
			c0,0.516,0.276,1.007,0.78,1.007c0.671,0,1.139-0.563,1.403-1.055c0.372-0.696,0.576-1.751,0.576-2.519
			c0-0.216-0.012-0.552-0.06-0.732c-0.144-0.563-0.612-0.647-1.116-0.647v-0.192H7.287z"/>
	</g>
	<g>
		<g>
			<path fill="none" stroke="#0000FF" stroke-width="0.4" stroke-miterlimit="10" d="M6.611,36.743c0-5.611,1.376-10.16,3.074-10.16
				s3.074,4.549,3.074,10.16c0,2.329-0.237,4.474-0.636,6.188"/>
			<g>
				<polygon fill="#0000FF" points="10.721,41.33 11.057,41.113 12.124,42.772 13.701,41.587 13.941,41.907 12.02,43.35 				"/>
			</g>
		</g>
	</g>
	<g>
		<g>
			<path fill="none" stroke="#0000FF" stroke-width="0.4" stroke-miterlimit="10" d="M56.076,36.929
				c0-6.984,1.713-12.646,3.826-12.646c2.113,0,3.826,5.662,3.826,12.646c0,2.945-0.305,5.656-0.816,7.805"/>
			<g>
				<polygon fill="#0000FF" points="61.584,43.088 61.928,42.883 62.934,44.58 64.552,43.453 64.781,43.782 62.809,45.154 				"/>
			</g>
		</g>
	</g>
	<g>
		<path d="M65.623,24.406c0.228-0.504,0.636-1.14,1.127-1.655c0.312-0.324,0.671-0.54,0.947-0.54c0.336,0,0.564,0.252,0.564,0.612
			c0,0.359-0.204,0.647-0.564,0.647c-0.216,0-0.312-0.132-0.419-0.312c-0.072-0.12-0.108-0.167-0.192-0.167
			c-0.216,0-0.552,0.396-0.983,1.127c-0.516,0.888-0.732,1.367-1.332,3.382h-0.912l0.972-3.502c0.168-0.624,0.192-0.732,0.192-0.983
			c0-0.252-0.216-0.312-0.456-0.312c-0.096,0-0.192,0.012-0.372,0.036v-0.204l1.859-0.324l0.036,0.024l-0.66,2.591L65.623,24.406z"
			/>
	</g>
	<g>
		<path d="M87.367,39.776c0.84-1.283,1.284-1.715,1.811-1.715c0.288,0,0.492,0.18,0.492,0.444c0,0.252-0.167,0.432-0.408,0.432
			c-0.228,0-0.335-0.204-0.624-0.204c-0.216,0-0.647,0.528-1.175,1.451c0,0.084,0.024,0.252,0.096,0.54l0.384,1.607
			c0.084,0.336,0.192,0.492,0.36,0.492c0.156,0,0.288-0.12,0.564-0.479c0.108-0.144,0.156-0.216,0.252-0.336l0.18,0.108
			c-0.696,1.08-1.007,1.367-1.463,1.367c-0.384,0-0.563-0.216-0.708-0.815l-0.348-1.427l-1.056,1.427
			c-0.527,0.708-0.768,0.815-1.139,0.815c-0.372,0-0.6-0.192-0.6-0.503c0-0.24,0.168-0.432,0.408-0.432
			c0.108,0,0.228,0.048,0.384,0.132c0.12,0.072,0.24,0.108,0.312,0.108c0.132,0,0.359-0.228,0.611-0.588l0.983-1.391l-0.335-1.487
			c-0.168-0.72-0.252-0.815-0.552-0.815c-0.096,0-0.24,0.024-0.468,0.084l-0.216,0.06l-0.036-0.191l0.132-0.048
			c0.732-0.264,1.127-0.348,1.403-0.348c0.3,0,0.444,0.216,0.612,1.031L87.367,39.776z"/>
	</g>
	<g>
		<g>
			<line fill="none" stroke="#000000" stroke-width="0.1" stroke-miterlimit="10" x1="59.705" y1="24.28" x2="58.205" y2="24.28"/>
			
				<line fill="none" stroke="#000000" stroke-width="0.1" stroke-miterlimit="10" stroke-dasharray="3.151,3.151" x1="55.054" y1="24.28" x2="31.422" y2="24.285"/>
			
				<line fill="none" stroke="#000000" stroke-width="0.1" stroke-miterlimit="10" x1="29.847" y1="24.285" x2="28.347" y2="24.286"/>
		</g>
	</g>
	<g>
	</g>
	<g>
	</g>
</g>
</svg>
