<?xml version="1.0" encoding="utf-8"?>
<!-- Generator: Adobe Illustrator 25.4.1, SVG Export Plug-In . SVG Version: 6.00 Build 0)  -->
<svg version="1.1" xmlns="http://www.w3.org/2000/svg" xmlns:xlink="http://www.w3.org/1999/xlink" x="0px" y="0px"
	 viewBox="0 0 73.583 59.613" enable-background="new 0 0 73.583 59.613" xml:space="preserve">
<g id="Graph_paper" opacity="0.5">
	<g id="Clipped_grid_00000137129446308178077950000013005667437905853064_">
		<defs>
			<rect id="SVGID_1_" x="-1.62" y="-2.47" width="76.454" height="65.043"/>
		</defs>
		<clipPath id="SVGID_00000137115615790251388320000015355958436234721191_">
			<use xlink:href="#SVGID_1_"  overflow="visible"/>
		</clipPath>
		
			<g id="Grid_00000005956039729426101060000000318415640656907949_" opacity="0.25" clip-path="url(#SVGID_00000137115615790251388320000015355958436234721191_)">
			<g id="Horizontal_1_mm_00000044136886791694282240000017533152671076335276_">
				
					<line fill="none" stroke="#00ABEB" stroke-width="0.15" stroke-miterlimit="10" x1="-127.855" y1="-18.232" x2="98.986" y2="-18.232"/>
				
					<line fill="none" stroke="#00ABEB" stroke-width="0.15" stroke-miterlimit="10" x1="-127.855" y1="-21.067" x2="98.986" y2="-21.067"/>
				
					<line fill="none" stroke="#00ABEB" stroke-width="0.15" stroke-miterlimit="10" x1="-127.855" y1="149.012" x2="98.986" y2="149.012"/>
				
					<line fill="none" stroke="#00ABEB" stroke-width="0.15" stroke-miterlimit="10" x1="-127.855" y1="146.177" x2="98.986" y2="146.177"/>
				
					<line fill="none" stroke="#00ABEB" stroke-width="0.15" stroke-miterlimit="10" x1="-127.855" y1="143.343" x2="98.986" y2="143.343"/>
				
					<line fill="none" stroke="#00ABEB" stroke-width="0.15" stroke-miterlimit="10" x1="-127.855" y1="140.508" x2="98.986" y2="140.508"/>
				
					<line fill="none" stroke="#00ABEB" stroke-width="0.15" stroke-miterlimit="10" x1="-127.855" y1="137.673" x2="98.986" y2="137.673"/>
				
					<line fill="none" stroke="#00ABEB" stroke-width="0.15" stroke-miterlimit="10" x1="-127.855" y1="134.839" x2="98.986" y2="134.839"/>
				
					<line fill="none" stroke="#00ABEB" stroke-width="0.15" stroke-miterlimit="10" x1="-127.855" y1="132.004" x2="98.986" y2="132.004"/>
				
					<line fill="none" stroke="#00ABEB" stroke-width="0.15" stroke-miterlimit="10" x1="-127.855" y1="129.17" x2="98.986" y2="129.17"/>
				
					<line fill="none" stroke="#00ABEB" stroke-width="0.15" stroke-miterlimit="10" x1="-127.855" y1="126.335" x2="98.986" y2="126.335"/>
				
					<line fill="none" stroke="#00ABEB" stroke-width="0.15" stroke-miterlimit="10" x1="-127.855" y1="123.5" x2="98.986" y2="123.5"/>
				
					<line fill="none" stroke="#00ABEB" stroke-width="0.15" stroke-miterlimit="10" x1="-127.855" y1="120.666" x2="98.986" y2="120.666"/>
				
					<line fill="none" stroke="#00ABEB" stroke-width="0.15" stroke-miterlimit="10" x1="-127.855" y1="117.831" x2="98.986" y2="117.831"/>
				
					<line fill="none" stroke="#00ABEB" stroke-width="0.15" stroke-miterlimit="10" x1="-127.855" y1="114.996" x2="98.986" y2="114.996"/>
				
					<line fill="none" stroke="#00ABEB" stroke-width="0.15" stroke-miterlimit="10" x1="-127.855" y1="112.162" x2="98.986" y2="112.162"/>
				
					<line fill="none" stroke="#00ABEB" stroke-width="0.15" stroke-miterlimit="10" x1="-127.855" y1="109.327" x2="98.986" y2="109.327"/>
				
					<line fill="none" stroke="#00ABEB" stroke-width="0.15" stroke-miterlimit="10" x1="-127.855" y1="106.492" x2="98.986" y2="106.492"/>
				
					<line fill="none" stroke="#00ABEB" stroke-width="0.15" stroke-miterlimit="10" x1="-127.855" y1="103.658" x2="98.986" y2="103.658"/>
				
					<line fill="none" stroke="#00ABEB" stroke-width="0.15" stroke-miterlimit="10" x1="-127.855" y1="100.823" x2="98.986" y2="100.823"/>
				
					<line fill="none" stroke="#00ABEB" stroke-width="0.15" stroke-miterlimit="10" x1="-127.855" y1="97.988" x2="98.986" y2="97.988"/>
				
					<line fill="none" stroke="#00ABEB" stroke-width="0.15" stroke-miterlimit="10" x1="-127.855" y1="95.154" x2="98.986" y2="95.154"/>
				
					<line fill="none" stroke="#00ABEB" stroke-width="0.15" stroke-miterlimit="10" x1="-127.855" y1="92.319" x2="98.986" y2="92.319"/>
				
					<line fill="none" stroke="#00ABEB" stroke-width="0.15" stroke-miterlimit="10" x1="-127.855" y1="89.484" x2="98.986" y2="89.484"/>
				
					<line fill="none" stroke="#00ABEB" stroke-width="0.15" stroke-miterlimit="10" x1="-127.855" y1="86.65" x2="98.986" y2="86.65"/>
				
					<line fill="none" stroke="#00ABEB" stroke-width="0.15" stroke-miterlimit="10" x1="-127.855" y1="83.815" x2="98.986" y2="83.815"/>
				
					<line fill="none" stroke="#00ABEB" stroke-width="0.15" stroke-miterlimit="10" x1="-127.855" y1="80.981" x2="98.986" y2="80.981"/>
				
					<line fill="none" stroke="#00ABEB" stroke-width="0.15" stroke-miterlimit="10" x1="-127.855" y1="78.146" x2="98.986" y2="78.146"/>
				
					<line fill="none" stroke="#00ABEB" stroke-width="0.15" stroke-miterlimit="10" x1="-127.855" y1="75.311" x2="98.986" y2="75.311"/>
				
					<line fill="none" stroke="#00ABEB" stroke-width="0.15" stroke-miterlimit="10" x1="-127.855" y1="72.477" x2="98.986" y2="72.477"/>
				
					<line fill="none" stroke="#00ABEB" stroke-width="0.15" stroke-miterlimit="10" x1="-127.855" y1="69.642" x2="98.986" y2="69.642"/>
				
					<line fill="none" stroke="#00ABEB" stroke-width="0.15" stroke-miterlimit="10" x1="-127.855" y1="66.807" x2="98.986" y2="66.807"/>
				
					<line fill="none" stroke="#00ABEB" stroke-width="0.15" stroke-miterlimit="10" x1="-127.855" y1="63.973" x2="98.986" y2="63.973"/>
				
					<line fill="none" stroke="#00ABEB" stroke-width="0.15" stroke-miterlimit="10" x1="-127.855" y1="61.138" x2="98.986" y2="61.138"/>
				
					<line fill="none" stroke="#00ABEB" stroke-width="0.15" stroke-miterlimit="10" x1="-127.855" y1="58.303" x2="98.986" y2="58.303"/>
				
					<line fill="none" stroke="#00ABEB" stroke-width="0.15" stroke-miterlimit="10" x1="-127.855" y1="55.469" x2="98.986" y2="55.469"/>
				
					<line fill="none" stroke="#00ABEB" stroke-width="0.15" stroke-miterlimit="10" x1="-127.855" y1="52.634" x2="98.986" y2="52.634"/>
				
					<line fill="none" stroke="#00ABEB" stroke-width="0.15" stroke-miterlimit="10" x1="-127.855" y1="49.799" x2="98.986" y2="49.799"/>
				
					<line fill="none" stroke="#00ABEB" stroke-width="0.15" stroke-miterlimit="10" x1="-127.855" y1="46.965" x2="98.986" y2="46.965"/>
				
					<line fill="none" stroke="#00ABEB" stroke-width="0.15" stroke-miterlimit="10" x1="-127.855" y1="44.13" x2="98.986" y2="44.13"/>
				
					<line fill="none" stroke="#00ABEB" stroke-width="0.15" stroke-miterlimit="10" x1="-127.855" y1="41.295" x2="98.986" y2="41.295"/>
				
					<line fill="none" stroke="#00ABEB" stroke-width="0.15" stroke-miterlimit="10" x1="-127.855" y1="38.461" x2="98.986" y2="38.461"/>
				
					<line fill="none" stroke="#00ABEB" stroke-width="0.15" stroke-miterlimit="10" x1="-127.855" y1="35.626" x2="98.986" y2="35.626"/>
				
					<line fill="none" stroke="#00ABEB" stroke-width="0.15" stroke-miterlimit="10" x1="-127.855" y1="32.792" x2="98.986" y2="32.792"/>
				
					<line fill="none" stroke="#00ABEB" stroke-width="0.15" stroke-miterlimit="10" x1="-127.855" y1="29.957" x2="98.986" y2="29.957"/>
				
					<line fill="none" stroke="#00ABEB" stroke-width="0.15" stroke-miterlimit="10" x1="-127.855" y1="27.122" x2="98.986" y2="27.122"/>
				
					<line fill="none" stroke="#00ABEB" stroke-width="0.15" stroke-miterlimit="10" x1="-127.855" y1="24.288" x2="98.986" y2="24.288"/>
				
					<line fill="none" stroke="#00ABEB" stroke-width="0.15" stroke-miterlimit="10" x1="-127.855" y1="21.453" x2="98.986" y2="21.453"/>
				
					<line fill="none" stroke="#00ABEB" stroke-width="0.15" stroke-miterlimit="10" x1="-127.855" y1="18.618" x2="98.986" y2="18.618"/>
				
					<line fill="none" stroke="#00ABEB" stroke-width="0.15" stroke-miterlimit="10" x1="-127.855" y1="15.784" x2="98.986" y2="15.784"/>
				
					<line fill="none" stroke="#00ABEB" stroke-width="0.15" stroke-miterlimit="10" x1="-127.855" y1="12.949" x2="98.986" y2="12.949"/>
				
					<line fill="none" stroke="#00ABEB" stroke-width="0.15" stroke-miterlimit="10" x1="-127.855" y1="10.114" x2="98.986" y2="10.114"/>
				
					<line fill="none" stroke="#00ABEB" stroke-width="0.15" stroke-miterlimit="10" x1="-127.855" y1="7.28" x2="98.986" y2="7.28"/>
				
					<line fill="none" stroke="#00ABEB" stroke-width="0.15" stroke-miterlimit="10" x1="-127.855" y1="4.445" x2="98.986" y2="4.445"/>
				
					<line fill="none" stroke="#00ABEB" stroke-width="0.15" stroke-miterlimit="10" x1="-127.855" y1="1.61" x2="98.986" y2="1.61"/>
				
					<line fill="none" stroke="#00ABEB" stroke-width="0.15" stroke-miterlimit="10" x1="-127.855" y1="-1.224" x2="98.986" y2="-1.224"/>
				
					<line fill="none" stroke="#00ABEB" stroke-width="0.15" stroke-miterlimit="10" x1="-127.855" y1="-4.059" x2="98.986" y2="-4.059"/>
				
					<line fill="none" stroke="#00ABEB" stroke-width="0.15" stroke-miterlimit="10" x1="-127.855" y1="-6.893" x2="98.986" y2="-6.893"/>
				
					<line fill="none" stroke="#00ABEB" stroke-width="0.15" stroke-miterlimit="10" x1="-127.855" y1="-9.728" x2="98.986" y2="-9.728"/>
				
					<line fill="none" stroke="#00ABEB" stroke-width="0.15" stroke-miterlimit="10" x1="-127.855" y1="-12.563" x2="98.986" y2="-12.563"/>
				
					<line fill="none" stroke="#00ABEB" stroke-width="0.15" stroke-miterlimit="10" x1="-127.855" y1="-15.397" x2="98.986" y2="-15.397"/>
			</g>
			<g id="Vertical_1_mm_00000016046155830880385390000014987853359577666225_">
				<g>
					
						<line fill="none" stroke="#00ABEB" stroke-width="0.15" stroke-miterlimit="10" x1="-127.779" y1="148.998" x2="-127.779" y2="-21.142"/>
				</g>
				
					<line fill="none" stroke="#00ABEB" stroke-width="0.15" stroke-miterlimit="10" x1="-124.945" y1="148.998" x2="-124.945" y2="-21.142"/>
				
					<line fill="none" stroke="#00ABEB" stroke-width="0.15" stroke-miterlimit="10" x1="-122.11" y1="148.998" x2="-122.11" y2="-21.142"/>
				
					<line fill="none" stroke="#00ABEB" stroke-width="0.15" stroke-miterlimit="10" x1="-119.275" y1="148.998" x2="-119.275" y2="-21.142"/>
				
					<line fill="none" stroke="#00ABEB" stroke-width="0.15" stroke-miterlimit="10" x1="-116.442" y1="148.998" x2="-116.442" y2="-21.142"/>
				
					<line fill="none" stroke="#00ABEB" stroke-width="0.15" stroke-miterlimit="10" x1="-113.607" y1="148.998" x2="-113.607" y2="-21.142"/>
				
					<line fill="none" stroke="#00ABEB" stroke-width="0.15" stroke-miterlimit="10" x1="-110.772" y1="148.998" x2="-110.772" y2="-21.142"/>
				
					<line fill="none" stroke="#00ABEB" stroke-width="0.15" stroke-miterlimit="10" x1="-107.938" y1="148.998" x2="-107.938" y2="-21.142"/>
				
					<line fill="none" stroke="#00ABEB" stroke-width="0.15" stroke-miterlimit="10" x1="-105.102" y1="148.998" x2="-105.102" y2="-21.142"/>
				
					<line fill="none" stroke="#00ABEB" stroke-width="0.15" stroke-miterlimit="10" x1="-102.268" y1="148.998" x2="-102.268" y2="-21.142"/>
				
					<line fill="none" stroke="#00ABEB" stroke-width="0.15" stroke-miterlimit="10" x1="-99.433" y1="148.998" x2="-99.433" y2="-21.142"/>
				
					<line fill="none" stroke="#00ABEB" stroke-width="0.15" stroke-miterlimit="10" x1="-96.598" y1="148.998" x2="-96.598" y2="-21.142"/>
				
					<line fill="none" stroke="#00ABEB" stroke-width="0.15" stroke-miterlimit="10" x1="-93.764" y1="148.998" x2="-93.764" y2="-21.142"/>
				
					<line fill="none" stroke="#00ABEB" stroke-width="0.15" stroke-miterlimit="10" x1="-90.929" y1="148.998" x2="-90.929" y2="-21.142"/>
				
					<line fill="none" stroke="#00ABEB" stroke-width="0.15" stroke-miterlimit="10" x1="-88.094" y1="148.998" x2="-88.094" y2="-21.142"/>
				
					<line fill="none" stroke="#00ABEB" stroke-width="0.15" stroke-miterlimit="10" x1="-85.26" y1="148.998" x2="-85.26" y2="-21.142"/>
				
					<line fill="none" stroke="#00ABEB" stroke-width="0.15" stroke-miterlimit="10" x1="-82.425" y1="148.998" x2="-82.425" y2="-21.142"/>
				
					<line fill="none" stroke="#00ABEB" stroke-width="0.15" stroke-miterlimit="10" x1="-79.59" y1="148.998" x2="-79.59" y2="-21.142"/>
				
					<line fill="none" stroke="#00ABEB" stroke-width="0.15" stroke-miterlimit="10" x1="-76.756" y1="148.998" x2="-76.756" y2="-21.142"/>
				
					<line fill="none" stroke="#00ABEB" stroke-width="0.15" stroke-miterlimit="10" x1="-73.921" y1="148.998" x2="-73.921" y2="-21.142"/>
				
					<line fill="none" stroke="#00ABEB" stroke-width="0.15" stroke-miterlimit="10" x1="-71.087" y1="148.998" x2="-71.087" y2="-21.142"/>
				
					<line fill="none" stroke="#00ABEB" stroke-width="0.15" stroke-miterlimit="10" x1="-68.253" y1="148.998" x2="-68.253" y2="-21.142"/>
				
					<line fill="none" stroke="#00ABEB" stroke-width="0.15" stroke-miterlimit="10" x1="-65.418" y1="148.998" x2="-65.418" y2="-21.142"/>
				
					<line fill="none" stroke="#00ABEB" stroke-width="0.15" stroke-miterlimit="10" x1="-62.583" y1="148.998" x2="-62.583" y2="-21.142"/>
				
					<line fill="none" stroke="#00ABEB" stroke-width="0.15" stroke-miterlimit="10" x1="-59.748" y1="148.998" x2="-59.748" y2="-21.142"/>
				
					<line fill="none" stroke="#00ABEB" stroke-width="0.15" stroke-miterlimit="10" x1="-56.913" y1="148.998" x2="-56.913" y2="-21.142"/>
				
					<line fill="none" stroke="#00ABEB" stroke-width="0.15" stroke-miterlimit="10" x1="-54.079" y1="148.998" x2="-54.079" y2="-21.142"/>
				
					<line fill="none" stroke="#00ABEB" stroke-width="0.15" stroke-miterlimit="10" x1="-51.244" y1="148.998" x2="-51.244" y2="-21.142"/>
				
					<line fill="none" stroke="#00ABEB" stroke-width="0.15" stroke-miterlimit="10" x1="-48.409" y1="148.998" x2="-48.409" y2="-21.142"/>
				
					<line fill="none" stroke="#00ABEB" stroke-width="0.15" stroke-miterlimit="10" x1="-45.575" y1="148.998" x2="-45.575" y2="-21.142"/>
				
					<line fill="none" stroke="#00ABEB" stroke-width="0.15" stroke-miterlimit="10" x1="-42.74" y1="148.998" x2="-42.74" y2="-21.142"/>
				
					<line fill="none" stroke="#00ABEB" stroke-width="0.15" stroke-miterlimit="10" x1="-39.905" y1="148.998" x2="-39.905" y2="-21.142"/>
				
					<line fill="none" stroke="#00ABEB" stroke-width="0.15" stroke-miterlimit="10" x1="-37.071" y1="148.998" x2="-37.071" y2="-21.142"/>
				
					<line fill="none" stroke="#00ABEB" stroke-width="0.15" stroke-miterlimit="10" x1="-34.236" y1="148.998" x2="-34.236" y2="-21.142"/>
				
					<line fill="none" stroke="#00ABEB" stroke-width="0.15" stroke-miterlimit="10" x1="-31.401" y1="148.998" x2="-31.401" y2="-21.142"/>
				
					<line fill="none" stroke="#00ABEB" stroke-width="0.15" stroke-miterlimit="10" x1="-28.567" y1="148.998" x2="-28.567" y2="-21.142"/>
				
					<line fill="none" stroke="#00ABEB" stroke-width="0.15" stroke-miterlimit="10" x1="-25.733" y1="148.998" x2="-25.733" y2="-21.142"/>
				
					<line fill="none" stroke="#00ABEB" stroke-width="0.15" stroke-miterlimit="10" x1="-22.898" y1="148.998" x2="-22.898" y2="-21.142"/>
				
					<line fill="none" stroke="#00ABEB" stroke-width="0.15" stroke-miterlimit="10" x1="-20.064" y1="148.998" x2="-20.064" y2="-21.142"/>
				
					<line fill="none" stroke="#00ABEB" stroke-width="0.15" stroke-miterlimit="10" x1="-17.229" y1="148.998" x2="-17.229" y2="-21.142"/>
				
					<line fill="none" stroke="#00ABEB" stroke-width="0.15" stroke-miterlimit="10" x1="-14.395" y1="148.998" x2="-14.395" y2="-21.142"/>
				
					<line fill="none" stroke="#00ABEB" stroke-width="0.15" stroke-miterlimit="10" x1="-11.559" y1="148.998" x2="-11.559" y2="-21.142"/>
				
					<line fill="none" stroke="#00ABEB" stroke-width="0.15" stroke-miterlimit="10" x1="-8.724" y1="148.998" x2="-8.724" y2="-21.142"/>
				
					<line fill="none" stroke="#00ABEB" stroke-width="0.15" stroke-miterlimit="10" x1="-5.89" y1="148.998" x2="-5.89" y2="-21.142"/>
				
					<line fill="none" stroke="#00ABEB" stroke-width="0.15" stroke-miterlimit="10" x1="-3.055" y1="148.998" x2="-3.055" y2="-21.142"/>
				
					<line fill="none" stroke="#00ABEB" stroke-width="0.15" stroke-miterlimit="10" x1="-0.22" y1="148.998" x2="-0.22" y2="-21.142"/>
				
					<line fill="none" stroke="#00ABEB" stroke-width="0.15" stroke-miterlimit="10" x1="2.614" y1="148.998" x2="2.614" y2="-21.142"/>
				
					<line fill="none" stroke="#00ABEB" stroke-width="0.15" stroke-miterlimit="10" x1="5.449" y1="148.998" x2="5.449" y2="-21.142"/>
				
					<line fill="none" stroke="#00ABEB" stroke-width="0.15" stroke-miterlimit="10" x1="8.284" y1="148.998" x2="8.284" y2="-21.142"/>
				
					<line fill="none" stroke="#00ABEB" stroke-width="0.15" stroke-miterlimit="10" x1="11.118" y1="148.998" x2="11.118" y2="-21.142"/>
				
					<line fill="none" stroke="#00ABEB" stroke-width="0.15" stroke-miterlimit="10" x1="13.953" y1="148.998" x2="13.953" y2="-21.142"/>
				
					<line fill="none" stroke="#00ABEB" stroke-width="0.15" stroke-miterlimit="10" x1="16.787" y1="148.998" x2="16.787" y2="-21.142"/>
				
					<line fill="none" stroke="#00ABEB" stroke-width="0.15" stroke-miterlimit="10" x1="19.621" y1="148.998" x2="19.621" y2="-21.142"/>
				
					<line fill="none" stroke="#00ABEB" stroke-width="0.15" stroke-miterlimit="10" x1="22.456" y1="148.998" x2="22.456" y2="-21.142"/>
				
					<line fill="none" stroke="#00ABEB" stroke-width="0.15" stroke-miterlimit="10" x1="25.291" y1="148.998" x2="25.291" y2="-21.142"/>
				
					<line fill="none" stroke="#00ABEB" stroke-width="0.15" stroke-miterlimit="10" x1="28.125" y1="148.998" x2="28.125" y2="-21.142"/>
				
					<line fill="none" stroke="#00ABEB" stroke-width="0.15" stroke-miterlimit="10" x1="30.961" y1="148.998" x2="30.961" y2="-21.142"/>
				
					<line fill="none" stroke="#00ABEB" stroke-width="0.15" stroke-miterlimit="10" x1="33.795" y1="148.998" x2="33.795" y2="-21.142"/>
				
					<line fill="none" stroke="#00ABEB" stroke-width="0.15" stroke-miterlimit="10" x1="36.63" y1="148.998" x2="36.63" y2="-21.142"/>
				
					<line fill="none" stroke="#00ABEB" stroke-width="0.15" stroke-miterlimit="10" x1="39.465" y1="148.998" x2="39.465" y2="-21.142"/>
				
					<line fill="none" stroke="#00ABEB" stroke-width="0.15" stroke-miterlimit="10" x1="42.299" y1="148.998" x2="42.299" y2="-21.142"/>
				
					<line fill="none" stroke="#00ABEB" stroke-width="0.15" stroke-miterlimit="10" x1="45.134" y1="148.998" x2="45.134" y2="-21.142"/>
				
					<line fill="none" stroke="#00ABEB" stroke-width="0.15" stroke-miterlimit="10" x1="47.969" y1="148.998" x2="47.969" y2="-21.142"/>
				
					<line fill="none" stroke="#00ABEB" stroke-width="0.15" stroke-miterlimit="10" x1="50.803" y1="148.998" x2="50.803" y2="-21.142"/>
				
					<line fill="none" stroke="#00ABEB" stroke-width="0.15" stroke-miterlimit="10" x1="53.638" y1="148.998" x2="53.638" y2="-21.142"/>
				
					<line fill="none" stroke="#00ABEB" stroke-width="0.15" stroke-miterlimit="10" x1="56.473" y1="148.998" x2="56.473" y2="-21.142"/>
				
					<line fill="none" stroke="#00ABEB" stroke-width="0.15" stroke-miterlimit="10" x1="59.307" y1="148.998" x2="59.307" y2="-21.142"/>
				
					<line fill="none" stroke="#00ABEB" stroke-width="0.15" stroke-miterlimit="10" x1="62.141" y1="148.998" x2="62.141" y2="-21.142"/>
				
					<line fill="none" stroke="#00ABEB" stroke-width="0.15" stroke-miterlimit="10" x1="64.976" y1="148.998" x2="64.976" y2="-21.142"/>
				
					<line fill="none" stroke="#00ABEB" stroke-width="0.15" stroke-miterlimit="10" x1="67.81" y1="148.998" x2="67.81" y2="-21.142"/>
				
					<line fill="none" stroke="#00ABEB" stroke-width="0.15" stroke-miterlimit="10" x1="70.645" y1="148.998" x2="70.645" y2="-21.142"/>
				
					<line fill="none" stroke="#00ABEB" stroke-width="0.15" stroke-miterlimit="10" x1="73.48" y1="148.998" x2="73.48" y2="-21.142"/>
				
					<line fill="none" stroke="#00ABEB" stroke-width="0.15" stroke-miterlimit="10" x1="76.315" y1="148.998" x2="76.315" y2="-21.142"/>
				
					<line fill="none" stroke="#00ABEB" stroke-width="0.15" stroke-miterlimit="10" x1="79.15" y1="148.998" x2="79.15" y2="-21.142"/>
				
					<line fill="none" stroke="#00ABEB" stroke-width="0.15" stroke-miterlimit="10" x1="81.984" y1="148.998" x2="81.984" y2="-21.142"/>
				
					<line fill="none" stroke="#00ABEB" stroke-width="0.15" stroke-miterlimit="10" x1="84.819" y1="148.998" x2="84.819" y2="-21.142"/>
				
					<line fill="none" stroke="#00ABEB" stroke-width="0.15" stroke-miterlimit="10" x1="87.654" y1="148.998" x2="87.654" y2="-21.142"/>
				
					<line fill="none" stroke="#00ABEB" stroke-width="0.15" stroke-miterlimit="10" x1="90.488" y1="148.998" x2="90.488" y2="-21.142"/>
				
					<line fill="none" stroke="#00ABEB" stroke-width="0.15" stroke-miterlimit="10" x1="93.323" y1="148.998" x2="93.323" y2="-21.142"/>
				
					<line fill="none" stroke="#00ABEB" stroke-width="0.15" stroke-miterlimit="10" x1="96.158" y1="148.998" x2="96.158" y2="-21.142"/>
				
					<line fill="none" stroke="#00ABEB" stroke-width="0.15" stroke-miterlimit="10" x1="98.992" y1="148.998" x2="98.992" y2="-21.142"/>
			</g>
			<g id="Horizontal_5_mm_00000154426311712348742180000010506178608242540189_">
				
					<line fill="none" stroke="#00ABEB" stroke-width="0.3" stroke-miterlimit="10" x1="-128.129" y1="149.012" x2="98.986" y2="149.012"/>
				
					<line fill="none" stroke="#00ABEB" stroke-width="0.3" stroke-miterlimit="10" x1="-128.129" y1="134.839" x2="98.986" y2="134.839"/>
				
					<line fill="none" stroke="#00ABEB" stroke-width="0.3" stroke-miterlimit="10" x1="-128.129" y1="120.666" x2="98.986" y2="120.666"/>
				
					<line fill="none" stroke="#00ABEB" stroke-width="0.3" stroke-miterlimit="10" x1="-128.129" y1="106.492" x2="98.986" y2="106.492"/>
				
					<line fill="none" stroke="#00ABEB" stroke-width="0.3" stroke-miterlimit="10" x1="-128.129" y1="92.319" x2="98.986" y2="92.319"/>
				
					<line fill="none" stroke="#00ABEB" stroke-width="0.3" stroke-miterlimit="10" x1="-128.129" y1="78.146" x2="98.986" y2="78.146"/>
				
					<line fill="none" stroke="#00ABEB" stroke-width="0.3" stroke-miterlimit="10" x1="-128.129" y1="63.973" x2="98.986" y2="63.973"/>
				
					<line fill="none" stroke="#00ABEB" stroke-width="0.3" stroke-miterlimit="10" x1="-128.129" y1="49.799" x2="98.986" y2="49.799"/>
				
					<line fill="none" stroke="#00ABEB" stroke-width="0.3" stroke-miterlimit="10" x1="-128.129" y1="35.626" x2="98.986" y2="35.626"/>
				
					<line fill="none" stroke="#00ABEB" stroke-width="0.3" stroke-miterlimit="10" x1="-128.129" y1="21.453" x2="98.986" y2="21.453"/>
				<line fill="none" stroke="#00ABEB" stroke-width="0.3" stroke-miterlimit="10" x1="-128.129" y1="7.28" x2="98.986" y2="7.28"/>
			</g>
			<g id="Vertical_5_mm_00000170973566251656441140000007262765594017732280_">
				
					<line fill="none" stroke="#00ABEB" stroke-width="0.3" stroke-miterlimit="10" x1="-127.779" y1="148.998" x2="-127.779" y2="-21.417"/>
				
					<line fill="none" stroke="#00ABEB" stroke-width="0.3" stroke-miterlimit="10" x1="-113.607" y1="148.998" x2="-113.607" y2="-21.417"/>
				
					<line fill="none" stroke="#00ABEB" stroke-width="0.3" stroke-miterlimit="10" x1="-99.433" y1="148.998" x2="-99.433" y2="-21.417"/>
				
					<line fill="none" stroke="#00ABEB" stroke-width="0.3" stroke-miterlimit="10" x1="-85.26" y1="148.998" x2="-85.26" y2="-21.417"/>
				
					<line fill="none" stroke="#00ABEB" stroke-width="0.3" stroke-miterlimit="10" x1="-71.087" y1="148.998" x2="-71.087" y2="-21.417"/>
				
					<line fill="none" stroke="#00ABEB" stroke-width="0.3" stroke-miterlimit="10" x1="-56.913" y1="148.998" x2="-56.913" y2="-21.417"/>
				
					<line fill="none" stroke="#00ABEB" stroke-width="0.3" stroke-miterlimit="10" x1="-42.74" y1="148.998" x2="-42.74" y2="-21.417"/>
				
					<line fill="none" stroke="#00ABEB" stroke-width="0.3" stroke-miterlimit="10" x1="-28.567" y1="148.998" x2="-28.567" y2="-21.417"/>
				
					<line fill="none" stroke="#00ABEB" stroke-width="0.3" stroke-miterlimit="10" x1="-14.395" y1="148.998" x2="-14.395" y2="-21.417"/>
				
					<line fill="none" stroke="#00ABEB" stroke-width="0.3" stroke-miterlimit="10" x1="-0.22" y1="148.998" x2="-0.22" y2="-21.417"/>
				
					<line fill="none" stroke="#00ABEB" stroke-width="0.3" stroke-miterlimit="10" x1="13.953" y1="148.998" x2="13.953" y2="-21.417"/>
				
					<line fill="none" stroke="#00ABEB" stroke-width="0.3" stroke-miterlimit="10" x1="28.125" y1="148.998" x2="28.125" y2="-21.417"/>
				
					<line fill="none" stroke="#00ABEB" stroke-width="0.3" stroke-miterlimit="10" x1="42.299" y1="148.998" x2="42.299" y2="-21.417"/>
				
					<line fill="none" stroke="#00ABEB" stroke-width="0.3" stroke-miterlimit="10" x1="56.473" y1="148.998" x2="56.473" y2="-21.417"/>
				
					<line fill="none" stroke="#00ABEB" stroke-width="0.3" stroke-miterlimit="10" x1="70.645" y1="148.998" x2="70.645" y2="-21.417"/>
				
					<line fill="none" stroke="#00ABEB" stroke-width="0.3" stroke-miterlimit="10" x1="84.819" y1="148.998" x2="84.819" y2="-21.417"/>
				
					<line fill="none" stroke="#00ABEB" stroke-width="0.3" stroke-miterlimit="10" x1="98.992" y1="148.998" x2="98.992" y2="-21.417"/>
			</g>
			<g id="Horizontal_10_mm_00000094595273323708669860000010643007941384694198_">
				
					<line id="_x31_9_00000003790477251800842570000011745658169838803890_" fill="none" stroke="#00ABEB" stroke-width="0.7" stroke-miterlimit="10" x1="-128.129" y1="149.012" x2="98.986" y2="149.012"/>
				
					<line id="_x32_0_00000088122422810694144340000010470923134600732592_" fill="none" stroke="#00ABEB" stroke-width="0.7" stroke-miterlimit="10" x1="-128.129" y1="120.666" x2="98.986" y2="120.666"/>
				
					<line id="_x32_1_00000154403830626297250770000005428275677358953369_" fill="none" stroke="#00ABEB" stroke-width="0.7" stroke-miterlimit="10" x1="-128.129" y1="92.319" x2="98.986" y2="92.319"/>
				
					<line id="_x32_2_00000008848634857859620730000000593830812565524150_" fill="none" stroke="#00ABEB" stroke-width="0.7" stroke-miterlimit="10" x1="-128.129" y1="63.973" x2="98.986" y2="63.973"/>
				
					<line id="_x32_3_00000098191307111205213110000007297084638537350073_" fill="none" stroke="#00ABEB" stroke-width="0.7" stroke-miterlimit="10" x1="-128.129" y1="35.626" x2="98.986" y2="35.626"/>
				
					<line id="_x32_4_00000179639626062406001730000006094729316246840739_" fill="none" stroke="#00ABEB" stroke-width="0.7" stroke-miterlimit="10" x1="-128.129" y1="7.28" x2="98.986" y2="7.28"/>
				
					<line id="_x32_5_00000134937517992137776350000014589707839695480755_" fill="none" stroke="#00ABEB" stroke-width="0.7" stroke-miterlimit="10" x1="-128.129" y1="-21.067" x2="98.986" y2="-21.067"/>
			</g>
			<g id="Vertical_10_mm_00000051346450113319515620000016451555297870703540_">
				
					<line id="_x30__00000101070147306916411510000016769017129953685687_" fill="none" stroke="#00ABEB" stroke-width="0.7" stroke-miterlimit="10" x1="-127.779" y1="148.998" x2="-127.779" y2="-21.417"/>
				
					<line id="_x31__00000102508218024800849310000002743436313320791949_" fill="none" stroke="#00ABEB" stroke-width="0.7" stroke-miterlimit="10" x1="-99.433" y1="148.998" x2="-99.433" y2="-21.417"/>
				
					<line id="_x32__00000069385796188214243980000017957100060824408969_" fill="none" stroke="#00ABEB" stroke-width="0.7" stroke-miterlimit="10" x1="-71.087" y1="148.998" x2="-71.087" y2="-21.417"/>
				
					<line id="_x33__00000147198831960730885800000004402581641643020466_" fill="none" stroke="#00ABEB" stroke-width="0.7" stroke-miterlimit="10" x1="-42.74" y1="148.998" x2="-42.74" y2="-21.417"/>
				
					<line id="_x34__00000147915714370603737800000005187347742796262817_" fill="none" stroke="#00ABEB" stroke-width="0.7" stroke-miterlimit="10" x1="-14.395" y1="148.998" x2="-14.395" y2="-21.417"/>
				
					<line id="_x35__00000058557089507539020920000015059199104308319890_" fill="none" stroke="#00ABEB" stroke-width="0.7" stroke-miterlimit="10" x1="13.953" y1="148.998" x2="13.953" y2="-21.417"/>
				
					<line id="_x36__00000016778786381810378780000009071733393313506705_" fill="none" stroke="#00ABEB" stroke-width="0.7" stroke-miterlimit="10" x1="42.299" y1="148.998" x2="42.299" y2="-21.417"/>
				
					<line id="_x37__00000178188396445801986950000014217073854554142906_" fill="none" stroke="#00ABEB" stroke-width="0.7" stroke-miterlimit="10" x1="70.645" y1="148.998" x2="70.645" y2="-21.417"/>
				
					<line id="_x38__00000026871890071483757690000001166700500939757223_" fill="none" stroke="#00ABEB" stroke-width="0.7" stroke-miterlimit="10" x1="98.992" y1="148.998" x2="98.992" y2="-21.417"/>
			</g>
		</g>
	</g>
</g>
<g id="Layer_3">
	<g>
		<path d="M9.871,4.766c0.68-1.127,0.976-1.703,0.976-2.055c0-0.112-0.056-0.16-0.208-0.256c-0.16-0.104-0.208-0.184-0.208-0.312
			c0-0.176,0.136-0.296,0.32-0.296c0.24,0,0.416,0.2,0.416,0.439c0,0.456-0.384,1.335-1.047,2.439
			C9.288,6.101,8.432,7.021,7.976,7.021c-0.24,0-0.408-0.136-0.408-0.344c0-0.176,0.136-0.32,0.312-0.32
			c0.28,0,0.28,0.224,0.488,0.224c0.104,0,0.2-0.064,0.384-0.264c0.144-0.152,0.503-0.624,0.567-0.728
			c0.048-0.096,0.08-0.192,0.08-0.28c0-0.32-0.44-2.111-0.656-2.654C8.592,2.263,8.448,2.144,8.128,2.144
			c-0.088,0-0.16,0.008-0.248,0.032V2.04c0.088-0.016,0.176-0.032,0.256-0.048c0.16-0.032,0.423-0.08,0.855-0.144h0.032
			c0.12,0,0.544,1.327,0.68,2.039L9.871,4.766z"/>
	</g>
	<g>
		<path d="M70.653,38.728c0.56-0.855,0.855-1.143,1.207-1.143c0.192,0,0.328,0.12,0.328,0.296c0,0.167-0.112,0.288-0.272,0.288
			c-0.152,0-0.224-0.136-0.416-0.136c-0.144,0-0.432,0.352-0.783,0.967c0,0.056,0.016,0.168,0.064,0.36l0.256,1.071
			c0.056,0.224,0.128,0.328,0.24,0.328c0.104,0,0.192-0.08,0.376-0.319c0.072-0.096,0.104-0.144,0.167-0.224l0.12,0.072
			c-0.464,0.72-0.671,0.912-0.976,0.912c-0.256,0-0.375-0.144-0.472-0.543l-0.232-0.952l-0.704,0.952
			c-0.352,0.472-0.512,0.543-0.759,0.543c-0.248,0-0.4-0.128-0.4-0.336c0-0.16,0.112-0.288,0.272-0.288
			c0.072,0,0.152,0.032,0.256,0.088c0.08,0.048,0.16,0.072,0.208,0.072c0.088,0,0.24-0.152,0.408-0.392l0.656-0.927l-0.224-0.992
			c-0.112-0.48-0.168-0.543-0.368-0.543c-0.064,0-0.16,0.016-0.312,0.056l-0.144,0.04l-0.024-0.128l0.088-0.032
			c0.488-0.176,0.751-0.231,0.936-0.231c0.2,0,0.296,0.144,0.408,0.688L70.653,38.728z"/>
	</g>
	<circle opacity="0.5" fill="#DCDCDC" cx="36.584" cy="35.611" r="22.638"/>
	<circle fill="none" stroke="#000000" stroke-width="0.2" stroke-miterlimit="10" cx="36.584" cy="35.611" r="22.638"/>
	<g>
		<g>
			<path fill="none" stroke="#0000FF" stroke-width="0.5" stroke-miterlimit="10" d="M21.076,32.63
				c-1.646-3.938-6.173-5.796-10.112-4.15c-3.77,1.576-5.634,5.792-4.342,9.604"/>
			<g>
				<polygon fill="#0000FF" points="4.263,37.009 4.526,36.584 6.621,37.884 7.765,35.699 8.208,35.932 6.814,38.592 				"/>
			</g>
		</g>
	</g>
	<circle cx="13.944" cy="35.629" r="1.472"/>
	<g>
		<path fill="#FF0000" d="M35.79,9.773c0.152-0.336,0.424-0.759,0.751-1.104c0.208-0.216,0.448-0.359,0.632-0.359
			c0.224,0,0.376,0.168,0.376,0.408S37.413,9.15,37.174,9.15c-0.144,0-0.208-0.088-0.28-0.208c-0.048-0.08-0.072-0.112-0.128-0.112
			c-0.144,0-0.368,0.264-0.656,0.751c-0.344,0.592-0.488,0.912-0.888,2.255h-0.607l0.647-2.334c0.112-0.416,0.128-0.488,0.128-0.656
			s-0.144-0.208-0.304-0.208c-0.064,0-0.128,0.008-0.248,0.024V8.526l1.239-0.216l0.024,0.016l-0.44,1.727L35.79,9.773z"/>
		<path fill="#FF0000" d="M38.055,9.278V8.75h4.03v0.528H38.055z M38.055,10.877v-0.528h4.03v0.528H38.055z"/>
		<path fill="#FF0000" d="M43.407,7.727c0.192-0.472,0.376-0.744,0.656-0.959c0.312-0.24,0.655-0.335,1.023-0.335
			c0.768,0,1.295,0.591,1.295,1.351c0,0.536-0.248,0.903-1.191,1.871l-1.503,1.535v0.04h1.447c0.472,0,0.632-0.12,0.824-0.52
			l0.136,0.056l-0.4,1.071h-2.83v-0.136l1.679-1.791c0.528-0.56,0.888-1.063,1.08-1.496c0.048-0.104,0.072-0.256,0.072-0.432
			c0-0.552-0.32-0.967-0.951-0.967c-0.48,0-0.888,0.232-1.167,0.768L43.407,7.727z"/>
		<path fill="#FF0000" d="M50.573,11.037c-0.6,0.728-0.792,0.879-1.112,0.879c-0.224,0-0.32-0.096-0.32-0.328
			c0-0.2,0.016-0.264,0.184-0.919c-0.6,0.904-1.063,1.255-1.623,1.255c-0.448,0-0.8-0.32-0.8-0.927c0-1.239,1.224-2.687,2.287-2.687
			c0.344,0,0.576,0.168,0.64,0.463l0.088-0.384l0.024-0.024l0.488-0.056l0.056,0.024c-0.016,0.072-0.024,0.088-0.048,0.168
			c-0.375,1.367-0.711,2.742-0.711,2.902c0,0.056,0.048,0.104,0.112,0.104c0.072,0,0.176-0.064,0.416-0.328l0.216-0.232
			L50.573,11.037z M49.238,8.486c-0.36,0-0.711,0.248-1.047,0.735c-0.336,0.504-0.616,1.215-0.616,1.719
			c0,0.44,0.192,0.592,0.479,0.592c0.4,0,0.776-0.44,1.016-0.784c0.376-0.544,0.616-1.231,0.616-1.799
			C49.685,8.67,49.517,8.486,49.238,8.486z"/>
		<path fill="#FF0000" d="M51.414,11.924c-0.224,0-0.424-0.2-0.424-0.432c0-0.256,0.2-0.456,0.44-0.456
			c0.24,0,0.448,0.208,0.448,0.456C51.878,11.732,51.67,11.924,51.414,11.924z"/>
		<path fill="#FF0000" d="M55.701,11.061c-0.488,0.616-0.911,0.863-1.511,0.863c-0.744,0-1.175-0.416-1.175-1.231
			c0-0.744,0.416-1.439,0.983-1.895c0.392-0.312,0.848-0.487,1.335-0.487s0.839,0.271,0.839,0.647c0,0.216-0.176,0.384-0.384,0.384
			c-0.224,0-0.312-0.16-0.312-0.32c0-0.144,0.12-0.232,0.12-0.384c0-0.096-0.112-0.16-0.295-0.16c-0.32,0-0.64,0.144-0.872,0.384
			c-0.448,0.472-0.728,1.151-0.728,1.863c0,0.576,0.256,0.912,0.712,0.912c0.424,0,0.728-0.2,1.159-0.656L55.701,11.061z"/>
		<path fill="#FF0000" d="M59.221,11.261c-0.464,0.464-0.976,0.664-1.503,0.664c-0.751,0-1.175-0.416-1.175-1.111
			c0-0.896,0.6-1.815,1.439-2.263c0.312-0.168,0.631-0.24,0.959-0.24c0.647,0,1.127,0.416,1.127,1.119
			C60.068,10.038,59.749,10.741,59.221,11.261z M58.829,8.479c-0.352,0-0.704,0.248-1.023,0.728
			c-0.368,0.56-0.591,1.191-0.591,1.823c0,0.48,0.248,0.728,0.624,0.728c0.352,0,0.656-0.232,0.967-0.664
			c0.368-0.504,0.592-1.255,0.592-1.863C59.397,8.742,59.173,8.479,58.829,8.479z"/>
		<path fill="#FF0000" d="M63.093,9.422h-0.128c-0.08-0.664-0.32-0.928-0.712-0.928c-0.28,0-0.472,0.16-0.472,0.456
			c0,0.216,0.12,0.448,0.432,0.815c0.399,0.464,0.543,0.775,0.543,1.087c0,0.664-0.488,1.071-1.151,1.071
			c-0.136,0-0.256-0.008-0.44-0.08c-0.152-0.064-0.264-0.072-0.352-0.072s-0.176,0.04-0.232,0.168h-0.128l0.16-1.271h0.128
			c0.112,0.76,0.384,1.087,0.8,1.087c0.376,0,0.607-0.224,0.607-0.616c0-0.256-0.136-0.527-0.447-0.919
			c-0.344-0.432-0.504-0.792-0.504-1.047c0-0.528,0.376-0.863,0.967-0.863c0.136,0,0.248,0.024,0.448,0.08
			c0.152,0.048,0.224,0.056,0.288,0.056c0.12,0,0.176-0.032,0.24-0.144h0.112L63.093,9.422z"/>
		<path fill="#FF0000" d="M66.317,10.989c-0.52,0.688-1.08,0.936-1.639,0.936c-0.647,0-1.023-0.528-1.023-1.375
			c0-1.719,0.903-3.134,1.775-3.798c0.352-0.264,0.656-0.335,0.976-0.335c0.568,0,0.983,0.384,0.983,1.335
			C67.388,9.046,66.909,10.197,66.317,10.989z M64.558,9.318c-0.152,0.4-0.231,0.815-0.231,1.319c0,0.711,0.152,1.119,0.448,1.119
			c0.768,0,1.455-1.655,1.647-2.438H64.558z M66.476,9.062c0.136-0.464,0.24-1.04,0.24-1.639c0-0.512-0.144-0.839-0.424-0.839
			c-0.696,0-1.479,1.767-1.679,2.479H66.476z"/>
	</g>
	<g>
		<g>
			<path fill="none" stroke="#FF0000" stroke-width="0.3" stroke-miterlimit="10" d="M24.069,27.883
				c1.638,2.143,2.612,4.822,2.612,7.728"/>
			<g>
				<polygon fill="#FF0000" points="23.592,29.407 23.889,29.454 24.115,27.992 25.556,28.324 25.624,28.031 23.868,27.627 				"/>
			</g>
		</g>
	</g>
	<g>
		<path fill="#FF0000" d="M29.782,32.388c-0.52,0.688-1.08,0.936-1.639,0.936c-0.647,0-1.023-0.528-1.023-1.375
			c0-1.719,0.904-3.134,1.775-3.798c0.352-0.264,0.656-0.335,0.976-0.335c0.568,0,0.983,0.384,0.983,1.335
			C30.853,30.445,30.374,31.597,29.782,32.388z M28.023,30.717c-0.152,0.4-0.232,0.815-0.232,1.319c0,0.711,0.152,1.119,0.448,1.119
			c0.768,0,1.455-1.655,1.647-2.438H28.023z M29.942,30.461c0.136-0.464,0.24-1.04,0.24-1.639c0-0.512-0.144-0.839-0.424-0.839
			c-0.696,0-1.479,1.767-1.679,2.479H29.942z"/>
	</g>
	<g>
		<g>
			<g>
				
					<line fill="none" stroke="#FF0000" stroke-width="0.1" stroke-miterlimit="10" x1="13.946" y1="35.875" x2="14.331" y2="35.556"/>
				
					<line fill="none" stroke="#FF0000" stroke-width="0.1" stroke-miterlimit="10" stroke-dasharray="0.9788,0.9788" x1="15.086" y1="34.933" x2="40.375" y2="14.061"/>
				
					<line fill="none" stroke="#FF0000" stroke-width="0.1" stroke-miterlimit="10" x1="40.752" y1="13.749" x2="41.138" y2="13.431"/>
			</g>
		</g>
		<g>
			<g>
				
					<line fill="none" stroke="#FF0000" stroke-width="0.1" stroke-miterlimit="10" x1="41.138" y1="13.431" x2="41.454" y2="13.819"/>
				
					<line fill="none" stroke="#FF0000" stroke-width="0.1" stroke-miterlimit="10" stroke-dasharray="1.0229,1.0229" x1="42.1" y1="14.611" x2="58.583" y2="34.827"/>
				
					<line fill="none" stroke="#FF0000" stroke-width="0.1" stroke-miterlimit="10" x1="58.906" y1="35.223" x2="59.222" y2="35.611"/>
			</g>
		</g>
	</g>
	<g>
		<g>
			<g>
				
					<line fill="none" stroke="#FF0000" stroke-width="0.1" stroke-miterlimit="10" x1="43.216" y1="16.033" x2="42.83" y2="16.351"/>
				
					<line fill="none" stroke="#FF0000" stroke-width="0.1" stroke-miterlimit="10" stroke-dasharray="0.9209,0.9209" x1="42.12" y1="16.937" x2="41.055" y2="17.817"/>
				<line fill="none" stroke="#FF0000" stroke-width="0.1" stroke-miterlimit="10" x1="40.7" y1="18.11" x2="40.314" y2="18.428"/>
			</g>
		</g>
		<g>
			<g>
				
					<line fill="none" stroke="#FF0000" stroke-width="0.1" stroke-miterlimit="10" x1="40.314" y1="18.428" x2="39.998" y2="18.041"/>
				
					<line fill="none" stroke="#FF0000" stroke-width="0.1" stroke-miterlimit="10" stroke-dasharray="0.6847,0.6847" x1="39.565" y1="17.51" x2="38.916" y2="16.714"/>
				<line fill="none" stroke="#FF0000" stroke-width="0.1" stroke-miterlimit="10" x1="38.7" y1="16.449" x2="38.384" y2="16.061"/>
			</g>
		</g>
	</g>
	<g>
		<path fill="#FF0000" d="M55.007,37.632c0.192-0.472,0.376-0.744,0.656-0.959c0.312-0.24,0.655-0.335,1.023-0.335
			c0.768,0,1.295,0.591,1.295,1.351c0,0.536-0.248,0.903-1.191,1.871l-1.503,1.535v0.04h1.447c0.472,0,0.632-0.12,0.824-0.52
			l0.136,0.056l-0.4,1.071h-2.83v-0.136l1.679-1.791c0.528-0.56,0.888-1.063,1.08-1.496c0.048-0.104,0.072-0.256,0.072-0.432
			c0-0.552-0.32-0.967-0.951-0.967c-0.48,0-0.888,0.232-1.167,0.768L55.007,37.632z"/>
		<path fill="#FF0000" d="M62.173,40.942c-0.6,0.728-0.792,0.879-1.112,0.879c-0.224,0-0.32-0.096-0.32-0.328
			c0-0.2,0.016-0.264,0.184-0.919c-0.6,0.904-1.063,1.255-1.623,1.255c-0.448,0-0.8-0.32-0.8-0.927c0-1.239,1.224-2.687,2.287-2.687
			c0.344,0,0.576,0.168,0.64,0.463l0.088-0.384l0.024-0.024l0.488-0.056l0.056,0.024c-0.016,0.072-0.024,0.088-0.048,0.168
			c-0.375,1.367-0.711,2.742-0.711,2.902c0,0.056,0.048,0.104,0.112,0.104c0.072,0,0.176-0.064,0.416-0.328l0.216-0.232
			L62.173,40.942z M60.838,38.392c-0.36,0-0.711,0.248-1.047,0.735c-0.336,0.504-0.616,1.215-0.616,1.719
			c0,0.44,0.192,0.592,0.479,0.592c0.4,0,0.776-0.44,1.016-0.784c0.376-0.544,0.616-1.231,0.616-1.799
			C61.286,38.575,61.118,38.392,60.838,38.392z"/>
	</g>
</g>
<g id="Layer_2">
	<g>
		<path d="M32.425,42.957c1.055,0,1.631,0.448,1.631,1.127c0,0.384-0.2,0.775-0.528,1.023c-0.248,0.192-0.512,0.288-1.047,0.408
			l0.711,1.879c0.176,0.472,0.336,0.656,0.696,0.656v0.128h-1.176l-0.983-2.59l-0.527-0.04l-0.44,1.623
			c-0.088,0.312-0.104,0.424-0.104,0.503c0,0.24,0.08,0.328,0.536,0.376v0.128H29.25V48.05c0.44-0.056,0.552-0.208,0.68-0.68
			l0.952-3.446c0.056-0.216,0.096-0.368,0.096-0.504c0-0.088-0.056-0.184-0.112-0.224c-0.088-0.056-0.12-0.064-0.456-0.112v-0.128
			H32.425z M31.297,45.252c0.2,0.032,0.264,0.04,0.408,0.04c0.952,0,1.511-0.456,1.511-1.2c0-0.551-0.336-0.896-0.959-0.896
			c-0.248,0-0.416,0.088-0.456,0.24L31.297,45.252z"/>
	</g>
	<g>
		<path fill="none" d="M45.418,23.043"/>
	</g>
	<g>
		<path fill="none" d="M45.197,35.611"/>
	</g>
	<g>
		<g>
			
				<line fill="none" stroke="#000000" stroke-width="0.21" stroke-miterlimit="10" x1="13.946" y1="1.787" x2="13.946" y2="59.871"/>
			<g>
				<polygon points="13.168,2.377 13.946,2.047 14.723,2.377 13.946,0.534 				"/>
			</g>
		</g>
	</g>
	<g>
		<g>
			
				<line fill="none" stroke="#000000" stroke-width="0.21" stroke-miterlimit="10" x1="71.851" y1="35.611" x2="-14.553" y2="35.611"/>
			<g>
				<polygon points="71.261,34.833 71.591,35.611 71.261,36.388 73.104,35.611 				"/>
			</g>
		</g>
	</g>
	<g>
		<path fill="#0000FF" d="M4.684,26.245c0.408,0,0.735,0.08,0.951,0.264c0.264,0.224,0.36,0.583,0.36,0.967
			c0,0.432-0.136,0.84-0.344,1.231c-0.424,0.792-1.04,1.135-1.551,1.135c-0.624,0-0.783-0.288-0.911-0.568
			c-0.312,0.376-0.608,0.568-1.175,0.568c-0.512,0-1.032-0.336-1.032-1.127c0-0.216,0.024-0.432,0.08-0.647
			c0.264-0.968,1.087-1.823,2.215-1.823h0.144v0.128c-0.408,0-0.768,0.144-1.072,0.52c-0.4,0.503-0.695,1.367-0.695,2.031
			c0,0.552,0.2,0.751,0.456,0.751c0.36,0,0.824-0.448,0.976-0.887c-0.016-0.12-0.024-0.296-0.024-0.408
			c0-0.2,0.032-0.447,0.096-0.688c0.112-0.416,0.352-0.799,0.648-0.799c0.191,0,0.28,0.152,0.28,0.368
			c0,0.36-0.16,0.863-0.336,1.167c-0.064,0.112-0.168,0.288-0.248,0.408c-0.016,0.056-0.016,0.112-0.016,0.168
			c0,0.344,0.184,0.671,0.52,0.671c0.448,0,0.759-0.375,0.936-0.704c0.248-0.464,0.384-1.167,0.384-1.679
			c0-0.144-0.008-0.368-0.04-0.488c-0.096-0.376-0.408-0.432-0.744-0.432v-0.128H4.684z"/>
	</g>
	<g>
	</g>
	<g>
	</g>
</g>
</svg>
