<?xml version="1.0" encoding="utf-8"?>
<!-- Generator: Adobe Illustrator 26.0.0, SVG Export Plug-In . SVG Version: 6.00 Build 0)  -->
<svg version="1.1" xmlns="http://www.w3.org/2000/svg" xmlns:xlink="http://www.w3.org/1999/xlink" x="0px" y="0px"
	 viewBox="0 0 170.9448 113.7431" style="enable-background:new 0 0 170.9448 113.7431;" xml:space="preserve">
<style type="text/css">
	.st0{opacity:0.5;}
	.st1{opacity:0.25;clip-path:url(#SVGID_00000031918463458928612510000000501668982774437017_);}
	.st2{fill:none;stroke:#00ABEB;stroke-width:0.2111;stroke-miterlimit:10;}
	.st3{fill:none;stroke:#00ABEB;stroke-width:0.4221;stroke-miterlimit:10;}
	.st4{fill:none;stroke:#00ABEB;stroke-width:0.9849;stroke-miterlimit:10;}
	.st5{fill:#0000FF;}
	.st6{opacity:0.1;}
	.st7{fill:none;stroke:#0000FF;stroke-width:0.7988;stroke-miterlimit:11.3386;}
	.st8{fill:none;stroke:#0000FF;stroke-width:0.8;stroke-miterlimit:11.3386;}
	.st9{enable-background:new    ;}
	.st10{fill:#00B200;}
	.st11{fill:none;stroke:#C90D0C;stroke-width:0.6;stroke-linecap:round;stroke-linejoin:round;}
	.st12{fill:#C90D0C;}
	.st13{fill:none;stroke:#00B200;stroke-width:0.6;stroke-linecap:round;stroke-linejoin:round;}
	.st14{fill:none;stroke:#00B200;stroke-width:0.4;stroke-linecap:round;stroke-linejoin:round;stroke-miterlimit:11.3386;}
	.st15{fill:none;stroke:#C90D0C;stroke-width:0.4;stroke-linecap:round;stroke-miterlimit:11.3386;}
	.st16{fill:none;stroke:#C90D0C;stroke-width:0.7;stroke-linecap:round;stroke-miterlimit:11.3386;}
	.st17{fill:none;stroke:#00B200;stroke-width:0.4;stroke-linecap:round;stroke-linejoin:round;}
	.st18{fill:none;stroke:#C90D0C;stroke-width:1.6032;stroke-linecap:round;stroke-linejoin:round;stroke-miterlimit:11.3386;}
	.st19{opacity:0.05;fill:#0000FF;}
	.st20{fill:none;stroke:#0000FF;stroke-width:0.2948;stroke-linecap:round;stroke-linejoin:round;stroke-miterlimit:11.3386;}
	.st21{fill:none;stroke:#000000;stroke-width:2;stroke-linecap:round;stroke-linejoin:round;stroke-miterlimit:11.3386;}
</style>
<g id="Graph_paper" class="st0">
	<g id="Clipped_grid">
		<defs>
			<rect id="SVGID_1_" x="-225.6589" width="499.7099" height="213.594"/>
		</defs>
		<clipPath id="SVGID_00000081636946684817350640000016884137785960107157_">
			<use xlink:href="#SVGID_1_"  style="overflow:visible;"/>
		</clipPath>
		
			<g id="Grid_00000060005542146034257920000005065612243763103930_" style="opacity:0.25;clip-path:url(#SVGID_00000081636946684817350640000016884137785960107157_);">
			<g id="Horizontal_1_mm">
				<line class="st2" x1="-248.2449" y1="-84.6999" x2="553.7138" y2="-84.6999"/>
				<line class="st2" x1="-248.2449" y1="-94.7224" x2="553.7138" y2="-94.7224"/>
				<line class="st2" x1="-248.2449" y1="506.5645" x2="553.7138" y2="506.5645"/>
				<line class="st2" x1="-248.2449" y1="496.5419" x2="553.7138" y2="496.5419"/>
				<line class="st2" x1="-248.2449" y1="486.5227" x2="553.7138" y2="486.5227"/>
				<line class="st2" x1="-248.2449" y1="476.5004" x2="553.7138" y2="476.5004"/>
				<line class="st2" x1="-248.2449" y1="466.4777" x2="553.7138" y2="466.4777"/>
				<line class="st2" x1="-248.2449" y1="456.4586" x2="553.7138" y2="456.4586"/>
				<line class="st2" x1="-248.2449" y1="446.4362" x2="553.7138" y2="446.4362"/>
				<line class="st2" x1="-248.2449" y1="436.4171" x2="553.7138" y2="436.4171"/>
				<line class="st2" x1="-248.2449" y1="426.3926" x2="553.7138" y2="426.3926"/>
				<line class="st2" x1="-248.2449" y1="416.3703" x2="553.7138" y2="416.3703"/>
				<line class="st2" x1="-248.2449" y1="406.3512" x2="553.7138" y2="406.3512"/>
				<line class="st2" x1="-248.2449" y1="396.3285" x2="553.7138" y2="396.3285"/>
				<line class="st2" x1="-248.2449" y1="386.3062" x2="553.7138" y2="386.3062"/>
				<line class="st2" x1="-248.2449" y1="376.287" x2="553.7138" y2="376.287"/>
				<line class="st2" x1="-248.2449" y1="366.2643" x2="553.7138" y2="366.2643"/>
				<line class="st2" x1="-248.2449" y1="356.242" x2="553.7138" y2="356.242"/>
				<line class="st2" x1="-248.2449" y1="346.2229" x2="553.7138" y2="346.2229"/>
				<line class="st2" x1="-248.2449" y1="336.2002" x2="553.7138" y2="336.2002"/>
				<line class="st2" x1="-248.2449" y1="326.1775" x2="553.7138" y2="326.1775"/>
				<line class="st2" x1="-248.2449" y1="316.1587" x2="553.7138" y2="316.1587"/>
				<line class="st2" x1="-248.2449" y1="306.136" x2="553.7138" y2="306.136"/>
				<line class="st2" x1="-248.2449" y1="296.112" x2="553.7138" y2="296.112"/>
				<line class="st2" x1="-248.2449" y1="286.0928" x2="553.7138" y2="286.0928"/>
				<line class="st2" x1="-248.2449" y1="276.0701" x2="553.7138" y2="276.0701"/>
				<line class="st2" x1="-248.2449" y1="266.051" x2="553.7138" y2="266.051"/>
				<line class="st2" x1="-248.2449" y1="256.0287" x2="553.7138" y2="256.0287"/>
				<line class="st2" x1="-248.2449" y1="246.006" x2="553.7138" y2="246.006"/>
				<line class="st2" x1="-248.2449" y1="235.9868" x2="553.7138" y2="235.9868"/>
				<line class="st2" x1="-248.2449" y1="225.9645" x2="553.7138" y2="225.9645"/>
				<line class="st2" x1="-248.2449" y1="215.9418" x2="553.7138" y2="215.9418"/>
				<line class="st2" x1="-248.2449" y1="205.9227" x2="553.7138" y2="205.9227"/>
				<line class="st2" x1="-248.2449" y1="195.9004" x2="553.7138" y2="195.9004"/>
				<line class="st2" x1="-248.2449" y1="185.8777" x2="553.7138" y2="185.8777"/>
				<line class="st2" x1="-248.2449" y1="175.8585" x2="553.7138" y2="175.8585"/>
				<line class="st2" x1="-248.2449" y1="165.8359" x2="553.7138" y2="165.8359"/>
				<line class="st2" x1="-248.2449" y1="155.8135" x2="553.7138" y2="155.8135"/>
				<line class="st2" x1="-248.2449" y1="145.7944" x2="553.7138" y2="145.7944"/>
				<line class="st2" x1="-248.2449" y1="135.7717" x2="553.7138" y2="135.7717"/>
				<line class="st2" x1="-248.2449" y1="125.7494" x2="553.7138" y2="125.7494"/>
				<line class="st2" x1="-248.2449" y1="115.7302" x2="553.7138" y2="115.7302"/>
				<line class="st2" x1="-248.2449" y1="105.7058" x2="553.7138" y2="105.7058"/>
				<line class="st2" x1="-248.2449" y1="95.687" x2="553.7138" y2="95.687"/>
				<line class="st2" x1="-248.2449" y1="85.6643" x2="553.7138" y2="85.6643"/>
				<line class="st2" x1="-248.2449" y1="75.6416" x2="553.7138" y2="75.6416"/>
				<line class="st2" x1="-248.2449" y1="65.6229" x2="553.7138" y2="65.6229"/>
				<line class="st2" x1="-248.2449" y1="55.6002" x2="553.7138" y2="55.6002"/>
				<line class="st2" x1="-248.2449" y1="45.5775" x2="553.7138" y2="45.5775"/>
				<line class="st2" x1="-248.2449" y1="35.5584" x2="553.7138" y2="35.5584"/>
				<line class="st2" x1="-248.2449" y1="25.536" x2="553.7138" y2="25.536"/>
				<line class="st2" x1="-248.2449" y1="15.5133" x2="553.7138" y2="15.5133"/>
				<line class="st2" x1="-248.2449" y1="5.4942" x2="553.7138" y2="5.4942"/>
				<line class="st2" x1="-248.2449" y1="-4.5281" x2="553.7138" y2="-4.5281"/>
				<line class="st2" x1="-248.2449" y1="-14.5508" x2="553.7138" y2="-14.5508"/>
				<line class="st2" x1="-248.2449" y1="-24.5699" x2="553.7138" y2="-24.5699"/>
				<line class="st2" x1="-248.2449" y1="-34.594" x2="553.7138" y2="-34.594"/>
				<line class="st2" x1="-248.2449" y1="-44.6132" x2="553.7138" y2="-44.6132"/>
				<line class="st2" x1="-248.2449" y1="-54.6359" x2="553.7138" y2="-54.6359"/>
				<line class="st2" x1="-248.2449" y1="-64.6583" x2="553.7138" y2="-64.6583"/>
				<line class="st2" x1="-248.2449" y1="-74.6774" x2="553.7138" y2="-74.6774"/>
			</g>
			<g id="Vertical_1_mm">
				<g>
					<line class="st2" x1="-247.9791" y1="506.5157" x2="-247.9791" y2="-94.9883"/>
				</g>
				<line class="st2" x1="-237.96" y1="506.5157" x2="-237.96" y2="-94.9883"/>
				<line class="st2" x1="-227.9375" y1="506.5157" x2="-227.9375" y2="-94.9883"/>
				<line class="st2" x1="-217.9149" y1="506.5157" x2="-217.9149" y2="-94.9883"/>
				<line class="st2" x1="-207.896" y1="506.5157" x2="-207.896" y2="-94.9883"/>
				<line class="st2" x1="-197.8733" y1="506.5157" x2="-197.8733" y2="-94.9883"/>
				<line class="st2" x1="-187.8506" y1="506.5157" x2="-187.8506" y2="-94.9883"/>
				<line class="st2" x1="-177.8318" y1="506.5157" x2="-177.8318" y2="-94.9883"/>
				<line class="st2" x1="-167.8074" y1="506.5157" x2="-167.8074" y2="-94.9883"/>
				<line class="st2" x1="-157.7882" y1="506.5157" x2="-157.7882" y2="-94.9883"/>
				<line class="st2" x1="-147.7659" y1="506.5157" x2="-147.7659" y2="-94.9883"/>
				<line class="st2" x1="-137.7432" y1="506.5157" x2="-137.7432" y2="-94.9883"/>
				<line class="st2" x1="-127.7241" y1="506.5157" x2="-127.7241" y2="-94.9883"/>
				<line class="st2" x1="-117.7018" y1="506.5157" x2="-117.7018" y2="-94.9883"/>
				<line class="st2" x1="-107.6791" y1="506.5157" x2="-107.6791" y2="-94.9883"/>
				<line class="st2" x1="-97.6599" y1="506.5157" x2="-97.6599" y2="-94.9883"/>
				<line class="st2" x1="-87.6373" y1="506.5157" x2="-87.6373" y2="-94.9883"/>
				<line class="st2" x1="-77.6149" y1="506.5157" x2="-77.6149" y2="-94.9883"/>
				<line class="st2" x1="-67.5958" y1="506.5157" x2="-67.5958" y2="-94.9883"/>
				<line class="st2" x1="-57.5731" y1="506.5157" x2="-57.5731" y2="-94.9883"/>
				<line class="st2" x1="-47.5508" y1="506.5157" x2="-47.5508" y2="-94.9883"/>
				<line class="st2" x1="-37.5316" y1="506.5157" x2="-37.5316" y2="-94.9883"/>
				<line class="st2" x1="-27.509" y1="506.5157" x2="-27.509" y2="-94.9883"/>
				<line class="st2" x1="-17.4866" y1="506.5157" x2="-17.4866" y2="-94.9883"/>
				<line class="st2" x1="-7.4657" y1="506.5157" x2="-7.4657" y2="-94.9883"/>
				<line class="st2" x1="2.557" y1="506.5157" x2="2.557" y2="-94.9883"/>
				<line class="st2" x1="12.5757" y1="506.5157" x2="12.5757" y2="-94.9883"/>
				<line class="st2" x1="22.5984" y1="506.5157" x2="22.5984" y2="-94.9883"/>
				<line class="st2" x1="32.6211" y1="506.5157" x2="32.6211" y2="-94.9883"/>
				<line class="st2" x1="42.6399" y1="506.5157" x2="42.6399" y2="-94.9883"/>
				<line class="st2" x1="52.6626" y1="506.5157" x2="52.6626" y2="-94.9883"/>
				<line class="st2" x1="62.6853" y1="506.5157" x2="62.6853" y2="-94.9883"/>
				<line class="st2" x1="72.7044" y1="506.5157" x2="72.7044" y2="-94.9883"/>
				<line class="st2" x1="82.7267" y1="506.5157" x2="82.7267" y2="-94.9883"/>
				<line class="st2" x1="92.7494" y1="506.5157" x2="92.7494" y2="-94.9883"/>
				<line class="st2" x1="102.7685" y1="506.5157" x2="102.7685" y2="-94.9883"/>
				<line class="st2" x1="112.7909" y1="506.5157" x2="112.7909" y2="-94.9883"/>
				<line class="st2" x1="122.8135" y1="506.5157" x2="122.8135" y2="-94.9883"/>
				<line class="st2" x1="132.8327" y1="506.5157" x2="132.8327" y2="-94.9883"/>
				<line class="st2" x1="142.855" y1="506.5157" x2="142.855" y2="-94.9883"/>
				<line class="st2" x1="152.8742" y1="506.5157" x2="152.8742" y2="-94.9883"/>
				<line class="st2" x1="162.8986" y1="506.5157" x2="162.8986" y2="-94.9883"/>
				<line class="st2" x1="172.9209" y1="506.5157" x2="172.9209" y2="-94.9883"/>
				<line class="st2" x1="182.9401" y1="506.5157" x2="182.9401" y2="-94.9883"/>
				<line class="st2" x1="192.9628" y1="506.5157" x2="192.9628" y2="-94.9883"/>
				<line class="st2" x1="202.9851" y1="506.5157" x2="202.9851" y2="-94.9883"/>
				<line class="st2" x1="213.0042" y1="506.5157" x2="213.0042" y2="-94.9883"/>
				<line class="st2" x1="223.0269" y1="506.5157" x2="223.0269" y2="-94.9883"/>
				<line class="st2" x1="233.0492" y1="506.5157" x2="233.0492" y2="-94.9883"/>
				<line class="st2" x1="243.0684" y1="506.5157" x2="243.0684" y2="-94.9883"/>
				<line class="st2" x1="253.091" y1="506.5157" x2="253.091" y2="-94.9883"/>
				<line class="st2" x1="263.1134" y1="506.5157" x2="263.1134" y2="-94.9883"/>
				<line class="st2" x1="273.1325" y1="506.5157" x2="273.1325" y2="-94.9883"/>
				<line class="st2" x1="283.1552" y1="506.5157" x2="283.1552" y2="-94.9883"/>
				<line class="st2" x1="293.1775" y1="506.5157" x2="293.1775" y2="-94.9883"/>
				<line class="st2" x1="303.1967" y1="506.5157" x2="303.1967" y2="-94.9883"/>
				<line class="st2" x1="313.2211" y1="506.5157" x2="313.2211" y2="-94.9883"/>
				<line class="st2" x1="323.2403" y1="506.5157" x2="323.2403" y2="-94.9883"/>
				<line class="st2" x1="333.2626" y1="506.5157" x2="333.2626" y2="-94.9883"/>
				<line class="st2" x1="343.2853" y1="506.5157" x2="343.2853" y2="-94.9883"/>
				<line class="st2" x1="353.3044" y1="506.5157" x2="353.3044" y2="-94.9883"/>
				<line class="st2" x1="363.3267" y1="506.5157" x2="363.3267" y2="-94.9883"/>
				<line class="st2" x1="373.3494" y1="506.5157" x2="373.3494" y2="-94.9883"/>
				<line class="st2" x1="383.3686" y1="506.5157" x2="383.3686" y2="-94.9883"/>
				<line class="st2" x1="393.3909" y1="506.5157" x2="393.3909" y2="-94.9883"/>
				<line class="st2" x1="403.4136" y1="506.5157" x2="403.4136" y2="-94.9883"/>
				<line class="st2" x1="413.4327" y1="506.5157" x2="413.4327" y2="-94.9883"/>
				<line class="st2" x1="423.455" y1="506.5157" x2="423.455" y2="-94.9883"/>
				<line class="st2" x1="433.4777" y1="506.5157" x2="433.4777" y2="-94.9883"/>
				<line class="st2" x1="443.4969" y1="506.5157" x2="443.4969" y2="-94.9883"/>
				<line class="st2" x1="453.5195" y1="506.5157" x2="453.5195" y2="-94.9883"/>
				<line class="st2" x1="463.5419" y1="506.5157" x2="463.5419" y2="-94.9883"/>
				<line class="st2" x1="473.5628" y1="506.5157" x2="473.5628" y2="-94.9883"/>
				<line class="st2" x1="483.5851" y1="506.5157" x2="483.5851" y2="-94.9883"/>
				<line class="st2" x1="493.6042" y1="506.5157" x2="493.6042" y2="-94.9883"/>
				<line class="st2" x1="503.6269" y1="506.5157" x2="503.6269" y2="-94.9883"/>
				<line class="st2" x1="513.6496" y1="506.5157" x2="513.6496" y2="-94.9883"/>
				<line class="st2" x1="523.6684" y1="506.5157" x2="523.6684" y2="-94.9883"/>
				<line class="st2" x1="533.691" y1="506.5157" x2="533.691" y2="-94.9883"/>
				<line class="st2" x1="543.7137" y1="506.5157" x2="543.7137" y2="-94.9883"/>
				<line class="st2" x1="553.7325" y1="506.5157" x2="553.7325" y2="-94.9883"/>
			</g>
			<g id="Horizontal_5_mm_1_">
				<line class="st3" x1="-249.2168" y1="506.5645" x2="553.7138" y2="506.5645"/>
				<line class="st3" x1="-249.2168" y1="456.4586" x2="553.7138" y2="456.4586"/>
				<line class="st3" x1="-249.2168" y1="406.3512" x2="553.7138" y2="406.3512"/>
				<line class="st3" x1="-249.2168" y1="356.242" x2="553.7138" y2="356.242"/>
				<line class="st3" x1="-249.2168" y1="306.136" x2="553.7138" y2="306.136"/>
				<line class="st3" x1="-249.2168" y1="256.0287" x2="553.7138" y2="256.0287"/>
				<line class="st3" x1="-249.2168" y1="205.9227" x2="553.7138" y2="205.9227"/>
				<line class="st3" x1="-249.2168" y1="155.8135" x2="553.7138" y2="155.8135"/>
				<line class="st3" x1="-249.2168" y1="105.7058" x2="553.7138" y2="105.7058"/>
				<line class="st3" x1="-249.2168" y1="55.6002" x2="553.7138" y2="55.6002"/>
				<line class="st3" x1="-249.2168" y1="5.4942" x2="553.7138" y2="5.4942"/>
			</g>
			<g id="Vertical_5_mm">
				<line class="st3" x1="-247.9791" y1="506.5157" x2="-247.9791" y2="-95.9602"/>
				<line class="st3" x1="-197.8733" y1="506.5157" x2="-197.8733" y2="-95.9602"/>
				<line class="st3" x1="-147.7659" y1="506.5157" x2="-147.7659" y2="-95.9602"/>
				<line class="st3" x1="-97.6599" y1="506.5157" x2="-97.6599" y2="-95.9602"/>
				<line class="st3" x1="-47.5508" y1="506.5157" x2="-47.5508" y2="-95.9602"/>
				<line class="st3" x1="2.557" y1="506.5157" x2="2.557" y2="-95.9602"/>
				<line class="st3" x1="52.6626" y1="506.5157" x2="52.6626" y2="-95.9602"/>
				<line class="st3" x1="102.7685" y1="506.5157" x2="102.7685" y2="-95.9602"/>
				<line class="st3" x1="152.8742" y1="506.5157" x2="152.8742" y2="-95.9602"/>
				<line class="st3" x1="202.9851" y1="506.5157" x2="202.9851" y2="-95.9602"/>
				<line class="st3" x1="253.091" y1="506.5157" x2="253.091" y2="-95.9602"/>
				<line class="st3" x1="303.1967" y1="506.5157" x2="303.1967" y2="-95.9602"/>
				<line class="st3" x1="353.3044" y1="506.5157" x2="353.3044" y2="-95.9602"/>
				<line class="st3" x1="403.4136" y1="506.5157" x2="403.4136" y2="-95.9602"/>
				<line class="st3" x1="453.5195" y1="506.5157" x2="453.5195" y2="-95.9602"/>
				<line class="st3" x1="503.6269" y1="506.5157" x2="503.6269" y2="-95.9602"/>
				<line class="st3" x1="553.7325" y1="506.5157" x2="553.7325" y2="-95.9602"/>
			</g>
			<g id="Horizontal_10_mm">
				<line id="_x31_9_1_" class="st4" x1="-249.2168" y1="506.5645" x2="553.7138" y2="506.5645"/>
				<line id="_x32_0" class="st4" x1="-249.2168" y1="406.3512" x2="553.7138" y2="406.3512"/>
				<line id="_x32_1" class="st4" x1="-249.2168" y1="306.136" x2="553.7138" y2="306.136"/>
				<line id="_x32_2" class="st4" x1="-249.2168" y1="205.9227" x2="553.7138" y2="205.9227"/>
				<line id="_x32_3" class="st4" x1="-249.2168" y1="105.7058" x2="553.7138" y2="105.7058"/>
				<line id="_x32_4" class="st4" x1="-249.2168" y1="5.4942" x2="553.7138" y2="5.4942"/>
				<line id="_x32_5" class="st4" x1="-249.2168" y1="-94.7224" x2="553.7138" y2="-94.7224"/>
			</g>
			<g id="Vertical_10_mm">
				<line id="_x30_" class="st4" x1="-247.9791" y1="506.5157" x2="-247.9791" y2="-95.9602"/>
				<line id="_x31_" class="st4" x1="-147.7659" y1="506.5157" x2="-147.7659" y2="-95.9602"/>
				<line id="_x32_" class="st4" x1="-47.5508" y1="506.5157" x2="-47.5508" y2="-95.9602"/>
				<line id="_x33_" class="st4" x1="52.6626" y1="506.5157" x2="52.6626" y2="-95.9602"/>
				<line id="_x34_" class="st4" x1="152.8742" y1="506.5157" x2="152.8742" y2="-95.9602"/>
				<line id="_x35_" class="st4" x1="253.091" y1="506.5157" x2="253.091" y2="-95.9602"/>
				<line id="_x36_" class="st4" x1="353.3044" y1="506.5157" x2="353.3044" y2="-95.9602"/>
				<line id="_x37_" class="st4" x1="453.5195" y1="506.5157" x2="453.5195" y2="-95.9602"/>
				<line id="_x38_" class="st4" x1="553.7325" y1="506.5157" x2="553.7325" y2="-95.9602"/>
			</g>
		</g>
	</g>
</g>
<g id="Layer_4">
	<g>
		<path class="st5" d="M73.4118,99.0216v-0.1899c0.7803-0.0498,0.8799-0.21,0.8799-1.0493v-1.9092h-3.0283v2.019
			c0,0.7295,0.1299,0.8994,0.8691,0.9395l0.0107,0.1899h-2.7891v-0.1899c0.7793-0.0498,0.8896-0.1699,0.8896-1.0293v-4.2578
			c0-0.7793-0.1201-0.8896-0.8896-0.9492v-0.1899h2.7988v0.1899c-0.7295,0.0596-0.8896,0.1699-0.8896,0.9492v1.8892h3.0283v-1.8892
			c0-0.7896-0.1299-0.8896-0.8896-0.9492v-0.1899h2.7988v0.1899c-0.7402,0.0596-0.8896,0.1797-0.8896,0.9492v4.3677
			c0,0.7095,0.1396,0.8594,0.8896,0.9194v0.1899H73.4118z"/>
		<path class="st5" d="M78.8425,102.3517h-2.2793v-0.0698l1.0381-1.1016c0.5479-0.5771,0.7568-1.0205,0.7568-1.5156
			c0-0.5303-0.3145-0.8218-0.8096-0.8218c-0.4199,0-0.624,0.1865-0.8574,0.7573l-0.1221-0.0288
			c0.1221-0.6821,0.4951-1.1602,1.2129-1.1602c0.6582,0,1.0781,0.4487,1.0781,1.0259c0,0.4604-0.2275,0.8979-0.7461,1.4458
			l-0.9619,1.0259h1.3643c0.2441,0,0.3672-0.0645,0.5596-0.3906l0.0811,0.0352L78.8425,102.3517z"/>
		<path class="st5" d="M83.7468,94.3942c-0.1201-0.4399-0.2295-0.6997-0.4102-0.9395c-0.3496-0.4497-0.8486-0.7798-1.4492-0.7798
			c-0.6191,0-1.0088,0.3999-1.0088,0.9497c0,0.6797,0.7393,1.0991,1.7891,1.709c1.0596,0.6196,1.5488,1.1992,1.5488,1.959
			c0,1.1191-0.8799,1.8691-2.0391,1.8691c-0.4199,0-0.8096-0.0703-1.1787-0.23c-0.1904-0.0801-0.3604-0.1099-0.4697-0.1099
			c-0.1504,0-0.2803,0.1196-0.2803,0.3296H80.029l-0.29-2.1187h0.2197c0.46,1.209,1.1094,1.769,2.0596,1.769
			c0.6992,0,1.1885-0.46,1.1885-1.1196c0-0.3496-0.0996-0.5796-0.2891-0.7896c-0.3506-0.3799-1.04-0.8193-1.6797-1.1592
			c-0.8994-0.48-1.2188-1.0996-1.2188-1.7192c0-1.0894,0.749-1.749,1.7383-1.749c0.4102,0,0.6699,0.0601,1.0498,0.2197
			c0.1797,0.0801,0.3398,0.1201,0.4395,0.1201c0.1699,0,0.2803-0.1201,0.3203-0.3398h0.21l0.2197,2.1289H83.7468z"/>
		<path class="st5" d="M88.4782,99.1618c-1.9395,0-3.2686-1.3994-3.2686-3.4785c0-2.0288,1.3193-3.418,3.2686-3.418
			c1.959,0,3.2676,1.4692,3.2676,3.4482C91.7458,97.7721,90.3972,99.1618,88.4782,99.1618z M89.697,93.0949
			c-0.3594-0.2998-0.7598-0.4697-1.2295-0.4697c-0.5391,0-1.0391,0.2197-1.4287,0.6694c-0.4297,0.4897-0.6895,1.4595-0.6895,2.4087
			c0,1.1895,0.2891,2.0889,0.8994,2.6489c0.3398,0.3096,0.7793,0.4497,1.2393,0.4497c0.5,0,0.9395-0.1499,1.2891-0.48
			c0.5498-0.5298,0.8301-1.4692,0.8301-2.6685C90.6071,94.5143,90.2673,93.5749,89.697,93.0949z"/>
		<path class="st5" d="M94.2458,101.3781v0.9736h-0.4541v-0.9736h-1.6318v-0.373l1.8301-2.5938h0.2559v2.5938h0.6006v0.373H94.2458z
			 M93.7917,99.006l-1.3994,1.999h1.3994V99.006z"/>
	</g>
	<g>
		<path d="M101.7458,64.4587c-0.1201-0.4399-0.2295-0.6997-0.4102-0.9395c-0.3496-0.4497-0.8486-0.7798-1.4492-0.7798
			c-0.6191,0-1.0088,0.3999-1.0088,0.9497c0,0.6797,0.7393,1.0991,1.7891,1.709c1.0596,0.6196,1.5488,1.1992,1.5488,1.959
			c0,1.1191-0.8799,1.8691-2.0391,1.8691c-0.4199,0-0.8096-0.0703-1.1787-0.23c-0.1904-0.0801-0.3604-0.1099-0.4697-0.1099
			c-0.1504,0-0.2803,0.1196-0.2803,0.3296H98.028l-0.29-2.1187h0.2197c0.46,1.209,1.1094,1.769,2.0596,1.769
			c0.6992,0,1.1885-0.46,1.1885-1.1196c0-0.3496-0.0996-0.5796-0.2891-0.7896c-0.3506-0.3799-1.04-0.8193-1.6797-1.1592
			c-0.8994-0.48-1.2188-1.0996-1.2188-1.7192c0-1.0894,0.749-1.749,1.7383-1.749c0.4102,0,0.6699,0.0601,1.0498,0.2197
			c0.1797,0.0801,0.3398,0.1201,0.4395,0.1201c0.1699,0,0.2803-0.1201,0.3203-0.3398h0.21l0.2197,2.1289H101.7458z"/>
		<path d="M106.4763,69.2262c-1.9395,0-3.2686-1.3994-3.2686-3.4785c0-2.0288,1.3193-3.418,3.2686-3.418
			c1.959,0,3.2676,1.4692,3.2676,3.4482C109.7439,67.8366,108.3952,69.2262,106.4763,69.2262z M107.695,63.1593
			c-0.3594-0.2998-0.7598-0.4697-1.2295-0.4697c-0.5391,0-1.0391,0.2197-1.4287,0.6694c-0.4297,0.4897-0.6895,1.4595-0.6895,2.4087
			c0,1.1895,0.2891,2.0889,0.8994,2.6489c0.3398,0.3096,0.7793,0.4497,1.2393,0.4497c0.5,0,0.9395-0.1499,1.2891-0.48
			c0.5498-0.5298,0.8301-1.4692,0.8301-2.6685C108.6052,64.5788,108.2653,63.6393,107.695,63.1593z"/>
		<path d="M112.2448,71.4425v0.9736h-0.4541v-0.9736h-1.6318v-0.373l1.8301-2.5938h0.2559v2.5938h0.6006v0.373H112.2448z
			 M111.7907,69.0705l-1.3994,1.999h1.3994V69.0705z"/>
		<path d="M113.3767,64.4738V64.089h3.2471v0.3848H113.3767z"/>
		<path d="M117.3698,64.4738V64.089h3.2471v0.3848H117.3698z"/>
	</g>
	<g>
		<path d="M106.7263,81.0978c-0.5791,0.8296-1.5488,1.2695-2.7285,1.2695c-0.9092,0-1.7783-0.3198-2.3584-0.8896
			c-0.6094-0.5996-0.959-1.5093-0.959-2.4985c0-0.9995,0.3291-1.8291,0.8994-2.4688c0.6396-0.7095,1.499-1.0396,2.4287-1.0396
			c0.3896,0,0.7891,0.04,1.1885,0.1499c0.21,0.0601,0.5205,0.1802,0.6904,0.1802c0.1895,0,0.3594-0.1201,0.4199-0.3301h0.1992
			l0.0898,2.269h-0.2295c-0.1201-0.5498-0.2695-0.8398-0.5195-1.1099c-0.4404-0.4697-0.96-0.7593-1.6094-0.7593
			c-1.5088,0-2.3984,1.2192-2.3984,2.9482c0,1.0996,0.25,1.8789,0.7197,2.3887c0.4395,0.4697,1.0889,0.7197,1.7783,0.7197
			c0.8994,0,1.4492-0.2998,2.1992-1.0093L106.7263,81.0978z"/>
		<path d="M111.8669,81.8673c-0.5088,0.1401-0.8691,0.25-1.3691,0.4497l-0.0498-0.0298v-0.8198h-0.0195
			c-0.4902,0.6699-1.0596,0.8599-1.4297,0.8599c-0.7695,0-1.2188-0.5098-1.2188-1.2793v-2.5088
			c0-0.4995-0.1406-0.6396-0.6201-0.6694v-0.1401h1.459v3.228c0,0.46,0.3203,0.7896,0.71,0.7896c0.29,0,0.5898-0.0898,0.8398-0.3096
			c0.1592-0.1401,0.2295-0.23,0.2295-0.5796V78.549c0-0.5293-0.1396-0.6094-0.7393-0.6494v-0.1699h1.5791v3.4282
			c0,0.4595,0.1094,0.5698,0.5693,0.5698h0.0596V81.8673z"/>
		<path d="M114.2556,77.6149v1.521h-0.3848v-1.521h-1.5215v-0.3848h1.5215v-1.5215h0.3848v1.5215h1.5215v0.3848H114.2556z"/>
		<path d="M118.2487,77.6149v1.521h-0.3848v-1.521h-1.5205v-0.3848h1.5205v-1.5215h0.3848v1.5215h1.5215v0.3848H118.2487z"/>
	</g>
	<g>
		<path d="M51.655,84.215h-5.627v-0.1499l4.3682-6.0869h-2.1387c-0.71,0-1.0996,0.1104-1.3398,0.3501
			c-0.25,0.2598-0.3096,0.4297-0.4092,0.9795h-0.2598l0.209-1.709h5.2471v0.1499l-4.3174,6.0864h2.5186
			c0.5596,0,0.9199-0.1001,1.1699-0.2798c0.3291-0.23,0.4199-0.5098,0.5996-1.0996h0.2295L51.655,84.215z"/>
		<path d="M54.8171,84.215l0.0098-0.1499c0.5-0.04,0.6201-0.2397,0.6201-0.8994v-1.9893c0-0.7095-0.2402-1.0093-0.7295-1.0093
			c-0.3301,0-0.5703,0.1201-1.0303,0.5698v2.7583c0,0.3901,0.1406,0.5298,0.6504,0.5698v0.1499h-2.1094v-0.1499
			c0.5098-0.04,0.6201-0.1997,0.6201-0.7896v-2.4287c0-0.4897-0.0703-0.6494-0.3496-0.6494c-0.1104,0-0.2207,0.0098-0.29,0.0396
			v-0.1699c0.5498-0.1597,0.8789-0.2695,1.3691-0.4497l0.0801,0.0303v0.7793h0.0098c0.5195-0.5894,0.9795-0.8096,1.4395-0.8096
			c0.7598,0,1.1787,0.5498,1.1787,1.5396v2.2085c0,0.5396,0.1201,0.6499,0.6104,0.6997v0.1499H54.8171z"/>
		<path d="M59.2341,79.6027v1.521h-0.3848v-1.521h-1.5205v-0.3848h1.5205v-1.5215h0.3848v1.5215h1.5215v0.3848H59.2341z"/>
		<path d="M63.2273,79.6027v1.521h-0.3848v-1.521H61.321v-0.3848h1.5215v-1.5215h0.3848v1.5215h1.5215v0.3848H63.2273z"/>
	</g>
	<g>
		<path d="M49.4968,64.8449c-0.1201-0.4399-0.2295-0.6997-0.4102-0.9395c-0.3496-0.4497-0.8486-0.7798-1.4492-0.7798
			c-0.6191,0-1.0088,0.3999-1.0088,0.9497c0,0.6797,0.7393,1.0991,1.7891,1.709c1.0596,0.6196,1.5488,1.1992,1.5488,1.959
			c0,1.1191-0.8799,1.8691-2.0391,1.8691c-0.4199,0-0.8096-0.0703-1.1787-0.23c-0.1904-0.0801-0.3604-0.1099-0.4697-0.1099
			c-0.1504,0-0.2803,0.1196-0.2803,0.3296H45.779l-0.29-2.1187h0.2197c0.46,1.209,1.1094,1.769,2.0596,1.769
			c0.6992,0,1.1885-0.46,1.1885-1.1196c0-0.3496-0.0996-0.5796-0.2891-0.7896c-0.3506-0.3799-1.04-0.8193-1.6797-1.1592
			c-0.8994-0.48-1.2188-1.0996-1.2188-1.7192c0-1.0894,0.749-1.749,1.7383-1.749c0.4102,0,0.6699,0.0601,1.0498,0.2197
			c0.1797,0.0801,0.3398,0.1201,0.4395,0.1201c0.1699,0,0.2803-0.1201,0.3203-0.3398h0.21l0.2197,2.1289H49.4968z"/>
		<path d="M54.2273,69.6125c-1.9395,0-3.2686-1.3994-3.2686-3.4785c0-2.0288,1.3193-3.418,3.2686-3.418
			c1.959,0,3.2676,1.4692,3.2676,3.4482C57.4948,68.2228,56.1462,69.6125,54.2273,69.6125z M55.446,63.5456
			c-0.3594-0.2998-0.7598-0.4697-1.2295-0.4697c-0.5391,0-1.0391,0.2197-1.4287,0.6694c-0.4297,0.4897-0.6895,1.4595-0.6895,2.4087
			c0,1.1895,0.2891,2.0889,0.8994,2.6489c0.3398,0.3096,0.7793,0.4497,1.2393,0.4497c0.5,0,0.9395-0.1499,1.2891-0.48
			c0.5498-0.5298,0.8301-1.4692,0.8301-2.6685C56.3562,64.965,56.0163,64.0256,55.446,63.5456z"/>
		<path d="M59.9958,71.8288v0.9736h-0.4541v-0.9736h-1.6318v-0.373L59.74,68.862h0.2559v2.5938h0.6006v0.373H59.9958z
			 M59.5417,69.4567l-1.3994,1.999h1.3994V69.4567z"/>
		<path d="M61.1276,64.86v-0.3848h3.2471V64.86H61.1276z"/>
		<path d="M65.1208,64.86v-0.3848h3.2471V64.86H65.1208z"/>
	</g>
	<g class="st6">
		<g>
			<path class="st7" d="M96.2945,65.1542c-8.1099,1.72-13.6057-1.7654-21.4148-0.9661"/>
			<g>
				<polygon class="st5" points="76.5409,60.9402 75.8581,64.0806 77.6444,66.7521 70.204,65.1542 				"/>
			</g>
		</g>
	</g>
	<g class="st6">
		<g>
			<path class="st8" d="M107.7239,82.9885c-4.011,4.9168,3.6228,7.9397,9.823,5.6708"/>
			<g>
				<polygon class="st5" points="117.0191,92.1968 116.6003,89.0054 114.0126,87.0912 121.5672,86.0805 				"/>
			</g>
		</g>
	</g>
	<g class="st6">
		<g>
			<path class="st8" d="M42.9018,89.1173c3.0342,4.0318,7.0315,3.4015,10.2409,0.2524"/>
			<g>
				<polygon class="st5" points="53.9887,92.8835 52.4329,90.0657 49.3246,89.2294 55.9877,85.5284 				"/>
			</g>
		</g>
	</g>
</g>
<g id="Layer_6">
	<g class="st9">
		<path class="st10" d="M84.4314,71.5905c-0.5596,0.0703-0.6494,0.1602-0.8193,0.77l-1.1992,4.2876
			c-0.0898,0.3198-0.1504,0.5596-0.1504,0.7593c0,0.2798,0.1201,0.3198,0.6904,0.3896v0.1602h-2.4395V77.797
			c0.5498-0.0996,0.6904-0.1895,0.8398-0.7495l1.1992-4.4072c0.0703-0.25,0.1299-0.46,0.1299-0.6196
			c0-0.25-0.1602-0.3999-0.7197-0.4302v-0.1597h2.4688V71.5905z"/>
	</g>
	<g>
		<g>
			<line class="st11" x1="73.4263" y1="54.7738" x2="92.7494" y2="54.7738"/>
			<g>
				<path class="st12" d="M77.5268,57.6537c0.0891-0.1395,0.0478-0.3252-0.092-0.4142l-3.8716-2.4656l3.8716-2.4656
					c0.1397-0.0891,0.1811-0.2748,0.092-0.4142c-0.0891-0.1395-0.2757-0.1799-0.4142-0.092l-4.2689,2.7188
					c-0.0864,0.0551-0.1388,0.1506-0.1388,0.2531s0.0524,0.198,0.1388,0.2531l4.2689,2.7188
					c0.0498,0.0316,0.1057,0.0469,0.1608,0.0469C77.3725,57.7925,77.4694,57.7433,77.5268,57.6537z"/>
			</g>
		</g>
	</g>
	<g>
		<g>
			<line class="st13" x1="92.028" y1="79.1787" x2="72.7049" y2="79.1787"/>
			<g>
				<path class="st10" d="M87.9274,76.2988c-0.0891,0.1395-0.0477,0.3252,0.092,0.4142l3.8716,2.4656l-3.8716,2.4656
					c-0.1397,0.0891-0.1811,0.2748-0.092,0.4142c0.0891,0.1395,0.2757,0.1799,0.4143,0.092l4.2689-2.7188
					c0.0864-0.0551,0.1389-0.1506,0.1389-0.2531s-0.0525-0.1981-0.1389-0.2531l-4.2689-2.7188
					c-0.0498-0.0316-0.1058-0.0468-0.1609-0.0468C88.0818,76.16,87.9849,76.2091,87.9274,76.2988z"/>
			</g>
		</g>
	</g>
	<g class="st9">
		<path class="st12" d="M86.2126,47.6769l-0.2197-0.02c0.0195-0.1699,0.0303-0.3296,0.0303-0.4595c0-0.6001-0.3506-0.73-1.9189-0.73
			c-0.5703,0-0.6699,0.04-0.7295,0.2603l-0.6602,2.3286h0.7793c0.8994,0,1.0098-0.1201,1.3896-0.9697l0.1797,0.04l-0.6797,2.3188
			l-0.1992-0.0498c0.0498-0.2202,0.0693-0.3398,0.0693-0.52c0-0.1699-0.0195-0.2598-0.0693-0.3096
			c-0.1104-0.1001-0.3799-0.1499-0.7803-0.1499h-0.7793l-0.3203,1.1191c-0.249,0.8794-0.3594,1.3394-0.3594,1.4595
			c0,0.2397,0.2295,0.3398,0.79,0.3398c0.9785,0,1.5186-0.1201,2.0283-0.3901c0.3203-0.1699,0.5596-0.4497,0.9395-0.9795
			l0.1602,0.0801l-0.6201,1.6191h-5.0664v-0.1602c0.5596-0.0996,0.6494-0.1597,0.8096-0.7393l1.2285-4.4175
			c0.0605-0.2002,0.1104-0.52,0.1104-0.6396c0-0.27-0.1504-0.3501-0.7695-0.4102v-0.1597h4.9668L86.2126,47.6769z"/>
	</g>
	<line class="st14" x1="97.3081" y1="15.5514" x2="122.7423" y2="15.5514"/>
	<line class="st14" x1="42.9018" y1="15.5514" x2="68.5081" y2="15.5514"/>
	<line class="st15" x1="97.3081" y1="15.5514" x2="90.1081" y2="15.5514"/>
	<line class="st15" x1="68.5081" y1="15.5514" x2="75.7081" y2="15.5514"/>
	<line class="st16" x1="90.1081" y1="13.0314" x2="75.7081" y2="13.0314"/>
	<line class="st16" x1="75.7081" y1="18.0714" x2="90.1081" y2="18.0714"/>
	<line class="st16" x1="75.7081" y1="13.0314" x2="75.7081" y2="18.0714"/>
	<line class="st16" x1="90.1081" y1="13.0314" x2="90.1081" y2="18.0714"/>
	<g class="st9">
		<path class="st12" d="M83.3874,2.8503c1.3193,0,2.0391,0.5596,2.0391,1.4092c0,0.4795-0.25,0.9692-0.6592,1.2793
			c-0.3105,0.2397-0.6396,0.3599-1.3096,0.5098l0.8896,2.3486c0.2197,0.5898,0.4199,0.8193,0.8691,0.8193v0.1602h-1.4688
			l-1.2295-3.2383l-0.6602-0.0498l-0.5498,2.0288c-0.1094,0.3896-0.1299,0.5298-0.1299,0.6294c0,0.3003,0.1006,0.4102,0.6699,0.4697
			v0.1602h-2.4287V9.2165c0.5498-0.0698,0.6895-0.2598,0.8496-0.8491l1.1895-4.3076c0.0703-0.27,0.1201-0.46,0.1201-0.6299
			c0-0.1099-0.0703-0.23-0.1396-0.2798c-0.1104-0.0698-0.1504-0.0801-0.5703-0.1401V2.8503H83.3874z M81.9782,5.7184
			c0.25,0.04,0.3301,0.0503,0.5098,0.0503c1.1895,0,1.8887-0.5698,1.8887-1.4995c0-0.6895-0.4189-1.1191-1.1992-1.1191
			c-0.3096,0-0.5195,0.1099-0.5693,0.2998L81.9782,5.7184z"/>
	</g>
	<g class="st9">
		<path class="st10" d="M67.153,6.5158c-0.5596,0.0703-0.6494,0.1602-0.8193,0.77l-1.2002,4.2876
			c-0.0898,0.3198-0.1494,0.5596-0.1494,0.7593c0,0.2798,0.1201,0.3198,0.6895,0.3896v0.1602h-2.4385v-0.1602
			c0.5498-0.0996,0.6895-0.1895,0.8398-0.7495l1.1992-4.4072c0.0693-0.25,0.1299-0.46,0.1299-0.6196
			c0-0.25-0.1602-0.3999-0.7197-0.4302V6.3561h2.4688V6.5158z"/>
	</g>
	<g>
		<g>
			<line class="st17" x1="56.7414" y1="15.5514" x2="62.3807" y2="15.5515"/>
			<g>
				<path class="st10" d="M59.4752,17.4714c0.0594-0.093,0.0318-0.2168-0.0613-0.2762l-2.581-1.6438l2.581-1.6437
					c0.0932-0.0594,0.1207-0.1832,0.0613-0.2762c-0.0594-0.093-0.1838-0.1199-0.2762-0.0613l-2.8459,1.8125
					c-0.0576,0.0367-0.0926,0.1004-0.0926,0.1687s0.035,0.132,0.0926,0.1688l2.8459,1.8125
					c0.0332,0.0211,0.0705,0.0312,0.1072,0.0312C59.3722,17.5639,59.4369,17.5311,59.4752,17.4714z"/>
			</g>
		</g>
	</g>
</g>
<g id="Layer_5">
	<line class="st18" x1="42.6399" y1="15.5514" x2="42.6399" y2="95.687"/>
	<line class="st18" x1="122.7592" y1="15.5514" x2="122.7592" y2="95.687"/>
	<g>
		<path class="st12" d="M41.2849,11.9074h-5.627v-0.1499l4.3682-6.0869h-2.1387c-0.71,0-1.0996,0.1104-1.3398,0.3501
			c-0.25,0.2598-0.3096,0.4297-0.4092,0.9795h-0.2598l0.209-1.709h5.2471v0.1499l-4.3174,6.0864h2.5186
			c0.5596,0,0.9199-0.1001,1.1699-0.2798c0.3291-0.23,0.4199-0.5098,0.5996-1.0996h0.2295L41.2849,11.9074z"/>
		<path class="st12" d="M44.447,11.9074l0.0098-0.1499c0.5-0.04,0.6201-0.2397,0.6201-0.8994V8.8688
			c0-0.7095-0.2402-1.0093-0.7295-1.0093c-0.3301,0-0.5703,0.1201-1.0303,0.5698v2.7583c0,0.3901,0.1406,0.5298,0.6504,0.5698
			v0.1499h-2.1094v-0.1499c0.5098-0.04,0.6201-0.1997,0.6201-0.7896V8.5392c0-0.4897-0.0703-0.6494-0.3496-0.6494
			c-0.1104,0-0.2207,0.0098-0.29,0.0396V7.7594c0.5498-0.1597,0.8789-0.2695,1.3691-0.4497L43.2878,7.34v0.7793h0.0098
			c0.5195-0.5894,0.9795-0.8096,1.4395-0.8096c0.7598,0,1.1787,0.5498,1.1787,1.5396v2.2085c0,0.5396,0.1201,0.6499,0.6104,0.6997
			v0.1499H44.447z"/>
	</g>
	<g>
		<path class="st12" d="M121.8776,10.778c-0.5791,0.8296-1.5488,1.2695-2.7285,1.2695c-0.9092,0-1.7783-0.3198-2.3584-0.8896
			c-0.6094-0.5996-0.959-1.5093-0.959-2.4985c0-0.9995,0.3291-1.8291,0.8994-2.4688c0.6396-0.7095,1.499-1.0396,2.4287-1.0396
			c0.3896,0,0.7891,0.04,1.1885,0.1499c0.21,0.0601,0.5205,0.1802,0.6904,0.1802c0.1895,0,0.3594-0.1201,0.4199-0.3301h0.1992
			l0.0898,2.269h-0.2295c-0.1201-0.5498-0.2695-0.8398-0.5195-1.1099c-0.4404-0.4697-0.96-0.7593-1.6094-0.7593
			c-1.5088,0-2.3984,1.2192-2.3984,2.9482c0,1.0996,0.25,1.8789,0.7197,2.3887c0.4395,0.4697,1.0889,0.7197,1.7783,0.7197
			c0.8994,0,1.4492-0.2998,2.1992-1.0093L121.8776,10.778z"/>
		<path class="st12" d="M127.0183,11.5475c-0.5088,0.1401-0.8691,0.25-1.3691,0.4497l-0.0498-0.0298v-0.8198h-0.0195
			c-0.4902,0.6699-1.0596,0.8599-1.4297,0.8599c-0.7695,0-1.2188-0.5098-1.2188-1.2793V8.2194c0-0.4995-0.1406-0.6396-0.6201-0.6694
			V7.4098h1.459v3.228c0,0.46,0.3203,0.7896,0.71,0.7896c0.29,0,0.5898-0.0898,0.8398-0.3096
			c0.1592-0.1401,0.2295-0.23,0.2295-0.5796V8.2292c0-0.5293-0.1396-0.6094-0.7393-0.6494V7.4098h1.5791v3.4282
			c0,0.4595,0.1094,0.5698,0.5693,0.5698h0.0596V11.5475z"/>
	</g>
	<g>
		<path d="M32.6423,24.4132v-0.8794h6.1875v0.8794H32.6423z"/>
	</g>
	<g>
		<path d="M129.9704,24.4132v2.6587h-0.8789v-2.6587h-2.6592v-0.8794h2.6592v-2.6587h0.8789v2.6587h2.6592v0.8794H129.9704z"/>
	</g>
</g>
<g id="Layer_3">
	<path class="st19" d="M32.8752,40.7856l-0.1469,64.9202l99.9575-0.1875l0.1469-64.9202c-0.0031,1.3812-2.3428,2.5053-5.0937,2.5105
		c-2.7509,0.0052-4.9784-1.1104-4.9752-2.4916l-0.1324,0.0002c-0.0031,1.3812-2.2357,2.5051-4.9865,2.5103
		s-4.9784-1.1104-4.9752-2.4916c-0.0031,1.3812-2.2357,2.5051-4.9865,2.5103c-2.7509,0.0052-4.9784-1.1104-4.9752-2.4916
		c-0.0031,1.3812-2.2357,2.5051-4.9866,2.5103c-2.7509,0.0052-4.9784-1.1104-4.9752-2.4916
		c-0.0031,1.3812-2.2357,2.5051-4.9866,2.5103c-2.7509,0.0052-4.9784-1.1104-4.9752-2.4916l-0.0123,0
		c-0.0031,1.3812-2.2357,2.5051-4.9865,2.5103c-2.7509,0.0052-4.9784-1.1104-4.9752-2.4916
		c-0.0031,1.3812-2.2357,2.5051-4.9865,2.5103s-4.9784-1.1104-4.9752-2.4916c-0.0031,1.3812-2.2357,2.5051-4.9866,2.5103
		c-2.7509,0.0052-4.9784-1.1104-4.9752-2.4916c-0.0031,1.3812-2.2357,2.5051-4.9865,2.5103
		c-2.7509,0.0052-4.9784-1.1104-4.9752-2.4916L42.837,40.767c-0.0031,1.3812-2.2357,2.5051-4.9866,2.5103
		C35.0996,43.2824,32.8721,42.1669,32.8752,40.7856z"/>
	<path class="st20" d="M132.8327,40.5981c-0.0031,1.3812-2.3428,2.5053-5.0937,2.5105c-2.7509,0.0052-4.9784-1.1104-4.9752-2.4916
		l-0.1324,0.0002c-0.0031,1.3812-2.2357,2.5051-4.9865,2.5103s-4.9784-1.1104-4.9752-2.4916
		c-0.0031,1.3812-2.2357,2.5051-4.9865,2.5103c-2.7509,0.0052-4.9784-1.1104-4.9752-2.4916
		c-0.0031,1.3812-2.2357,2.5051-4.9866,2.5103c-2.7509,0.0052-4.9784-1.1104-4.9752-2.4916
		c-0.0031,1.3812-2.2357,2.5051-4.9866,2.5103c-2.7509,0.0052-4.9784-1.1104-4.9752-2.4916l-0.0123,0
		c-0.0031,1.3812-2.2357,2.5051-4.9865,2.5103c-2.7509,0.0052-4.9784-1.1104-4.9752-2.4916
		c-0.0031,1.3812-2.2357,2.5051-4.9865,2.5103s-4.9784-1.1104-4.9752-2.4916c-0.0031,1.3812-2.2357,2.5051-4.9866,2.5103
		c-2.7509,0.0052-4.9784-1.1104-4.9752-2.4916c-0.0031,1.3812-2.2357,2.5051-4.9865,2.5103
		c-2.7509,0.0052-4.9784-1.1104-4.9752-2.4916L42.837,40.767c-0.0031,1.3812-2.2357,2.5051-4.9866,2.5103
		c-2.7509,0.0052-4.9784-1.1104-4.9752-2.4916"/>
	<polyline class="st21" points="132.6945,35.5584 132.6945,105.7058 32.6211,105.7058 32.6211,35.5584 	"/>
	<g>
	</g>
	<g>
	</g>
</g>
</svg>
