<?xml version="1.0" encoding="utf-8"?>
<!-- Generator: Adobe Illustrator 26.0.1, SVG Export Plug-In . SVG Version: 6.00 Build 0)  -->
<svg version="1.1" xmlns="http://www.w3.org/2000/svg" xmlns:xlink="http://www.w3.org/1999/xlink" x="0px" y="0px"
	 viewBox="0 0 117.9634 68.319" style="enable-background:new 0 0 117.9634 68.319;" xml:space="preserve">
<style type="text/css">
	.st0{opacity:0.5;}
	.st1{opacity:0.25;clip-path:url(#SVGID_00000147211720970425825510000016094717385257564316_);}
	.st2{fill:none;stroke:#00ABEB;stroke-width:0.2111;stroke-miterlimit:10;}
	.st3{fill:none;stroke:#00ABEB;stroke-width:0.4221;stroke-miterlimit:10;}
	.st4{fill:none;stroke:#00ABEB;stroke-width:0.9849;stroke-miterlimit:10;}
	.st5{fill:none;stroke:#C90D0C;stroke-width:0.432;stroke-linecap:round;stroke-miterlimit:11.3386;}
	.st6{fill:none;stroke:#C90D0C;stroke-width:0.72;stroke-linecap:round;stroke-miterlimit:11.3386;}
	.st7{enable-background:new    ;}
	.st8{fill:#808080;}
	.st9{fill:none;stroke:#00B200;stroke-width:0.4;stroke-linecap:round;stroke-linejoin:round;stroke-miterlimit:11.3386;}
	.st10{fill:none;stroke:#C90D0C;stroke-width:0.4;stroke-linecap:round;stroke-miterlimit:11.3386;}
	.st11{fill:none;stroke:#C90D0C;stroke-width:0.7;stroke-linecap:round;stroke-miterlimit:11.3386;}
	.st12{fill:#C90D0C;}
	.st13{fill:#00B200;}
	.st14{fill:none;stroke:#00B200;stroke-width:0.4;stroke-miterlimit:11.3386;}
	.st15{fill:none;stroke:#000000;stroke-width:0.432;stroke-linecap:round;stroke-linejoin:round;}
	.st16{fill:none;stroke:#00B200;stroke-width:0.4;stroke-linecap:round;stroke-linejoin:round;}
	.st17{fill:none;stroke:#C90D0C;stroke-width:1.152;stroke-linecap:round;stroke-miterlimit:11.3386;}
</style>
<g id="Graph_paper" class="st0">
	<g id="Clipped_grid">
		<defs>
			<rect id="SVGID_1_" x="-249.855" y="-48.6449" width="499.7099" height="213.594"/>
		</defs>
		<clipPath id="SVGID_00000159428902839262400540000013429865982155025568_">
			<use xlink:href="#SVGID_1_"  style="overflow:visible;"/>
		</clipPath>
		
			<g id="Grid_00000060005542146034257920000005065612243763103930_" style="opacity:0.25;clip-path:url(#SVGID_00000159428902839262400540000013429865982155025568_);">
			<g id="Horizontal_1_mm">
				<line class="st2" x1="-272.441" y1="-133.3448" x2="529.5178" y2="-133.3448"/>
				<line class="st2" x1="-272.441" y1="-143.3674" x2="529.5178" y2="-143.3674"/>
				<line class="st2" x1="-272.441" y1="457.9196" x2="529.5178" y2="457.9196"/>
				<line class="st2" x1="-272.441" y1="447.8969" x2="529.5178" y2="447.8969"/>
				<line class="st2" x1="-272.441" y1="437.8778" x2="529.5178" y2="437.8778"/>
				<line class="st2" x1="-272.441" y1="427.8554" x2="529.5178" y2="427.8554"/>
				<line class="st2" x1="-272.441" y1="417.8328" x2="529.5178" y2="417.8328"/>
				<line class="st2" x1="-272.441" y1="407.8136" x2="529.5178" y2="407.8136"/>
				<line class="st2" x1="-272.441" y1="397.7913" x2="529.5178" y2="397.7913"/>
				<line class="st2" x1="-272.441" y1="387.7722" x2="529.5178" y2="387.7722"/>
				<line class="st2" x1="-272.441" y1="377.7477" x2="529.5178" y2="377.7477"/>
				<line class="st2" x1="-272.441" y1="367.7254" x2="529.5178" y2="367.7254"/>
				<line class="st2" x1="-272.441" y1="357.7062" x2="529.5178" y2="357.7062"/>
				<line class="st2" x1="-272.441" y1="347.6836" x2="529.5178" y2="347.6836"/>
				<line class="st2" x1="-272.441" y1="337.6612" x2="529.5178" y2="337.6612"/>
				<line class="st2" x1="-272.441" y1="327.6421" x2="529.5178" y2="327.6421"/>
				<line class="st2" x1="-272.441" y1="317.6194" x2="529.5178" y2="317.6194"/>
				<line class="st2" x1="-272.441" y1="307.5971" x2="529.5178" y2="307.5971"/>
				<line class="st2" x1="-272.441" y1="297.5779" x2="529.5178" y2="297.5779"/>
				<line class="st2" x1="-272.441" y1="287.5553" x2="529.5178" y2="287.5553"/>
				<line class="st2" x1="-272.441" y1="277.5326" x2="529.5178" y2="277.5326"/>
				<line class="st2" x1="-272.441" y1="267.5138" x2="529.5178" y2="267.5138"/>
				<line class="st2" x1="-272.441" y1="257.4911" x2="529.5178" y2="257.4911"/>
				<line class="st2" x1="-272.441" y1="247.467" x2="529.5178" y2="247.467"/>
				<line class="st2" x1="-272.441" y1="237.4479" x2="529.5178" y2="237.4479"/>
				<line class="st2" x1="-272.441" y1="227.4252" x2="529.5178" y2="227.4252"/>
				<line class="st2" x1="-272.441" y1="217.4061" x2="529.5178" y2="217.4061"/>
				<line class="st2" x1="-272.441" y1="207.3837" x2="529.5178" y2="207.3837"/>
				<line class="st2" x1="-272.441" y1="197.361" x2="529.5178" y2="197.361"/>
				<line class="st2" x1="-272.441" y1="187.3419" x2="529.5178" y2="187.3419"/>
				<line class="st2" x1="-272.441" y1="177.3196" x2="529.5178" y2="177.3196"/>
				<line class="st2" x1="-272.441" y1="167.2969" x2="529.5178" y2="167.2969"/>
				<line class="st2" x1="-272.441" y1="157.2777" x2="529.5178" y2="157.2777"/>
				<line class="st2" x1="-272.441" y1="147.2554" x2="529.5178" y2="147.2554"/>
				<line class="st2" x1="-272.441" y1="137.2327" x2="529.5178" y2="137.2327"/>
				<line class="st2" x1="-272.441" y1="127.2136" x2="529.5178" y2="127.2136"/>
				<line class="st2" x1="-272.441" y1="117.1909" x2="529.5178" y2="117.1909"/>
				<line class="st2" x1="-272.441" y1="107.1686" x2="529.5178" y2="107.1686"/>
				<line class="st2" x1="-272.441" y1="97.1495" x2="529.5178" y2="97.1495"/>
				<line class="st2" x1="-272.441" y1="87.1268" x2="529.5178" y2="87.1268"/>
				<line class="st2" x1="-272.441" y1="77.1044" x2="529.5178" y2="77.1044"/>
				<line class="st2" x1="-272.441" y1="67.0853" x2="529.5178" y2="67.0853"/>
				<line class="st2" x1="-272.441" y1="57.0609" x2="529.5178" y2="57.0609"/>
				<line class="st2" x1="-272.441" y1="47.0421" x2="529.5178" y2="47.0421"/>
				<line class="st2" x1="-272.441" y1="37.0194" x2="529.5178" y2="37.0194"/>
				<line class="st2" x1="-272.441" y1="26.9967" x2="529.5178" y2="26.9967"/>
				<line class="st2" x1="-272.441" y1="16.9779" x2="529.5178" y2="16.9779"/>
				<line class="st2" x1="-272.441" y1="6.9552" x2="529.5178" y2="6.9552"/>
				<line class="st2" x1="-272.441" y1="-3.0674" x2="529.5178" y2="-3.0674"/>
				<line class="st2" x1="-272.441" y1="-13.0866" x2="529.5178" y2="-13.0866"/>
				<line class="st2" x1="-272.441" y1="-23.1089" x2="529.5178" y2="-23.1089"/>
				<line class="st2" x1="-272.441" y1="-33.1316" x2="529.5178" y2="-33.1316"/>
				<line class="st2" x1="-272.441" y1="-43.1507" x2="529.5178" y2="-43.1507"/>
				<line class="st2" x1="-272.441" y1="-53.1731" x2="529.5178" y2="-53.1731"/>
				<line class="st2" x1="-272.441" y1="-63.1957" x2="529.5178" y2="-63.1957"/>
				<line class="st2" x1="-272.441" y1="-73.2149" x2="529.5178" y2="-73.2149"/>
				<line class="st2" x1="-272.441" y1="-83.239" x2="529.5178" y2="-83.239"/>
				<line class="st2" x1="-272.441" y1="-93.2581" x2="529.5178" y2="-93.2581"/>
				<line class="st2" x1="-272.441" y1="-103.2808" x2="529.5178" y2="-103.2808"/>
				<line class="st2" x1="-272.441" y1="-113.3032" x2="529.5178" y2="-113.3032"/>
				<line class="st2" x1="-272.441" y1="-123.3223" x2="529.5178" y2="-123.3223"/>
			</g>
			<g id="Vertical_1_mm">
				<g>
					<line class="st2" x1="-272.1752" y1="457.8708" x2="-272.1752" y2="-143.6332"/>
				</g>
				<line class="st2" x1="-262.1561" y1="457.8708" x2="-262.1561" y2="-143.6332"/>
				<line class="st2" x1="-252.1336" y1="457.8708" x2="-252.1336" y2="-143.6332"/>
				<line class="st2" x1="-242.111" y1="457.8708" x2="-242.111" y2="-143.6332"/>
				<line class="st2" x1="-232.0921" y1="457.8708" x2="-232.0921" y2="-143.6332"/>
				<line class="st2" x1="-222.0694" y1="457.8708" x2="-222.0694" y2="-143.6332"/>
				<line class="st2" x1="-212.0467" y1="457.8708" x2="-212.0467" y2="-143.6332"/>
				<line class="st2" x1="-202.0279" y1="457.8708" x2="-202.0279" y2="-143.6332"/>
				<line class="st2" x1="-192.0035" y1="457.8708" x2="-192.0035" y2="-143.6332"/>
				<line class="st2" x1="-181.9843" y1="457.8708" x2="-181.9843" y2="-143.6332"/>
				<line class="st2" x1="-171.962" y1="457.8708" x2="-171.962" y2="-143.6332"/>
				<line class="st2" x1="-161.9393" y1="457.8708" x2="-161.9393" y2="-143.6332"/>
				<line class="st2" x1="-151.9202" y1="457.8708" x2="-151.9202" y2="-143.6332"/>
				<line class="st2" x1="-141.8978" y1="457.8708" x2="-141.8978" y2="-143.6332"/>
				<line class="st2" x1="-131.8752" y1="457.8708" x2="-131.8752" y2="-143.6332"/>
				<line class="st2" x1="-121.856" y1="457.8708" x2="-121.856" y2="-143.6332"/>
				<line class="st2" x1="-111.8333" y1="457.8708" x2="-111.8333" y2="-143.6332"/>
				<line class="st2" x1="-101.811" y1="457.8708" x2="-101.811" y2="-143.6332"/>
				<line class="st2" x1="-91.7919" y1="457.8708" x2="-91.7919" y2="-143.6332"/>
				<line class="st2" x1="-81.7692" y1="457.8708" x2="-81.7692" y2="-143.6332"/>
				<line class="st2" x1="-71.7469" y1="457.8708" x2="-71.7469" y2="-143.6332"/>
				<line class="st2" x1="-61.7277" y1="457.8708" x2="-61.7277" y2="-143.6332"/>
				<line class="st2" x1="-51.705" y1="457.8708" x2="-51.705" y2="-143.6332"/>
				<line class="st2" x1="-41.6827" y1="457.8708" x2="-41.6827" y2="-143.6332"/>
				<line class="st2" x1="-31.6618" y1="457.8708" x2="-31.6618" y2="-143.6332"/>
				<line class="st2" x1="-21.6391" y1="457.8708" x2="-21.6391" y2="-143.6332"/>
				<line class="st2" x1="-11.6203" y1="457.8708" x2="-11.6203" y2="-143.6332"/>
				<line class="st2" x1="-1.5977" y1="457.8708" x2="-1.5977" y2="-143.6332"/>
				<line class="st2" x1="8.425" y1="457.8708" x2="8.425" y2="-143.6332"/>
				<line class="st2" x1="18.4438" y1="457.8708" x2="18.4438" y2="-143.6332"/>
				<line class="st2" x1="28.4665" y1="457.8708" x2="28.4665" y2="-143.6332"/>
				<line class="st2" x1="38.4892" y1="457.8708" x2="38.4892" y2="-143.6332"/>
				<line class="st2" x1="48.5083" y1="457.8708" x2="48.5083" y2="-143.6332"/>
				<line class="st2" x1="58.5306" y1="457.8708" x2="58.5306" y2="-143.6332"/>
				<line class="st2" x1="68.5533" y1="457.8708" x2="68.5533" y2="-143.6332"/>
				<line class="st2" x1="78.5725" y1="457.8708" x2="78.5725" y2="-143.6332"/>
				<line class="st2" x1="88.5948" y1="457.8708" x2="88.5948" y2="-143.6332"/>
				<line class="st2" x1="98.6175" y1="457.8708" x2="98.6175" y2="-143.6332"/>
				<line class="st2" x1="108.6366" y1="457.8708" x2="108.6366" y2="-143.6332"/>
				<line class="st2" x1="118.6589" y1="457.8708" x2="118.6589" y2="-143.6332"/>
				<line class="st2" x1="128.6781" y1="457.8708" x2="128.6781" y2="-143.6332"/>
				<line class="st2" x1="138.7025" y1="457.8708" x2="138.7025" y2="-143.6332"/>
				<line class="st2" x1="148.7249" y1="457.8708" x2="148.7249" y2="-143.6332"/>
				<line class="st2" x1="158.744" y1="457.8708" x2="158.744" y2="-143.6332"/>
				<line class="st2" x1="168.7667" y1="457.8708" x2="168.7667" y2="-143.6332"/>
				<line class="st2" x1="178.789" y1="457.8708" x2="178.789" y2="-143.6332"/>
				<line class="st2" x1="188.8081" y1="457.8708" x2="188.8081" y2="-143.6332"/>
				<line class="st2" x1="198.8308" y1="457.8708" x2="198.8308" y2="-143.6332"/>
				<line class="st2" x1="208.8531" y1="457.8708" x2="208.8531" y2="-143.6332"/>
				<line class="st2" x1="218.8723" y1="457.8708" x2="218.8723" y2="-143.6332"/>
				<line class="st2" x1="228.895" y1="457.8708" x2="228.895" y2="-143.6332"/>
				<line class="st2" x1="238.9173" y1="457.8708" x2="238.9173" y2="-143.6332"/>
				<line class="st2" x1="248.9364" y1="457.8708" x2="248.9364" y2="-143.6332"/>
				<line class="st2" x1="258.9591" y1="457.8708" x2="258.9591" y2="-143.6332"/>
				<line class="st2" x1="268.9814" y1="457.8708" x2="268.9814" y2="-143.6332"/>
				<line class="st2" x1="279.0006" y1="457.8708" x2="279.0006" y2="-143.6332"/>
				<line class="st2" x1="289.025" y1="457.8708" x2="289.025" y2="-143.6332"/>
				<line class="st2" x1="299.0442" y1="457.8708" x2="299.0442" y2="-143.6332"/>
				<line class="st2" x1="309.0665" y1="457.8708" x2="309.0665" y2="-143.6332"/>
				<line class="st2" x1="319.0892" y1="457.8708" x2="319.0892" y2="-143.6332"/>
				<line class="st2" x1="329.1083" y1="457.8708" x2="329.1083" y2="-143.6332"/>
				<line class="st2" x1="339.1306" y1="457.8708" x2="339.1306" y2="-143.6332"/>
				<line class="st2" x1="349.1533" y1="457.8708" x2="349.1533" y2="-143.6332"/>
				<line class="st2" x1="359.1725" y1="457.8708" x2="359.1725" y2="-143.6332"/>
				<line class="st2" x1="369.1948" y1="457.8708" x2="369.1948" y2="-143.6332"/>
				<line class="st2" x1="379.2175" y1="457.8708" x2="379.2175" y2="-143.6332"/>
				<line class="st2" x1="389.2366" y1="457.8708" x2="389.2366" y2="-143.6332"/>
				<line class="st2" x1="399.2589" y1="457.8708" x2="399.2589" y2="-143.6332"/>
				<line class="st2" x1="409.2816" y1="457.8708" x2="409.2816" y2="-143.6332"/>
				<line class="st2" x1="419.3008" y1="457.8708" x2="419.3008" y2="-143.6332"/>
				<line class="st2" x1="429.3235" y1="457.8708" x2="429.3235" y2="-143.6332"/>
				<line class="st2" x1="439.3458" y1="457.8708" x2="439.3458" y2="-143.6332"/>
				<line class="st2" x1="449.3667" y1="457.8708" x2="449.3667" y2="-143.6332"/>
				<line class="st2" x1="459.389" y1="457.8708" x2="459.389" y2="-143.6332"/>
				<line class="st2" x1="469.4082" y1="457.8708" x2="469.4082" y2="-143.6332"/>
				<line class="st2" x1="479.4308" y1="457.8708" x2="479.4308" y2="-143.6332"/>
				<line class="st2" x1="489.4535" y1="457.8708" x2="489.4535" y2="-143.6332"/>
				<line class="st2" x1="499.4723" y1="457.8708" x2="499.4723" y2="-143.6332"/>
				<line class="st2" x1="509.495" y1="457.8708" x2="509.495" y2="-143.6332"/>
				<line class="st2" x1="519.5176" y1="457.8708" x2="519.5176" y2="-143.6332"/>
				<line class="st2" x1="529.5364" y1="457.8708" x2="529.5364" y2="-143.6332"/>
			</g>
			<g id="Horizontal_5_mm_1_">
				<line class="st3" x1="-273.4129" y1="457.9196" x2="529.5178" y2="457.9196"/>
				<line class="st3" x1="-273.4129" y1="407.8136" x2="529.5178" y2="407.8136"/>
				<line class="st3" x1="-273.4129" y1="357.7062" x2="529.5178" y2="357.7062"/>
				<line class="st3" x1="-273.4129" y1="307.5971" x2="529.5178" y2="307.5971"/>
				<line class="st3" x1="-273.4129" y1="257.4911" x2="529.5178" y2="257.4911"/>
				<line class="st3" x1="-273.4129" y1="207.3837" x2="529.5178" y2="207.3837"/>
				<line class="st3" x1="-273.4129" y1="157.2777" x2="529.5178" y2="157.2777"/>
				<line class="st3" x1="-273.4129" y1="107.1686" x2="529.5178" y2="107.1686"/>
				<line class="st3" x1="-273.4129" y1="57.0609" x2="529.5178" y2="57.0609"/>
				<line class="st3" x1="-273.4129" y1="6.9552" x2="529.5178" y2="6.9552"/>
				<line class="st3" x1="-273.4129" y1="-43.1507" x2="529.5178" y2="-43.1507"/>
			</g>
			<g id="Vertical_5_mm">
				<line class="st3" x1="-272.1752" y1="457.8708" x2="-272.1752" y2="-144.6051"/>
				<line class="st3" x1="-222.0694" y1="457.8708" x2="-222.0694" y2="-144.6051"/>
				<line class="st3" x1="-171.962" y1="457.8708" x2="-171.962" y2="-144.6051"/>
				<line class="st3" x1="-121.856" y1="457.8708" x2="-121.856" y2="-144.6051"/>
				<line class="st3" x1="-71.7469" y1="457.8708" x2="-71.7469" y2="-144.6051"/>
				<line class="st3" x1="-21.6391" y1="457.8708" x2="-21.6391" y2="-144.6051"/>
				<line class="st3" x1="28.4665" y1="457.8708" x2="28.4665" y2="-144.6051"/>
				<line class="st3" x1="78.5725" y1="457.8708" x2="78.5725" y2="-144.6051"/>
				<line class="st3" x1="128.6781" y1="457.8708" x2="128.6781" y2="-144.6051"/>
				<line class="st3" x1="178.789" y1="457.8708" x2="178.789" y2="-144.6051"/>
				<line class="st3" x1="228.895" y1="457.8708" x2="228.895" y2="-144.6051"/>
				<line class="st3" x1="279.0006" y1="457.8708" x2="279.0006" y2="-144.6051"/>
				<line class="st3" x1="329.1083" y1="457.8708" x2="329.1083" y2="-144.6051"/>
				<line class="st3" x1="379.2175" y1="457.8708" x2="379.2175" y2="-144.6051"/>
				<line class="st3" x1="429.3235" y1="457.8708" x2="429.3235" y2="-144.6051"/>
				<line class="st3" x1="479.4308" y1="457.8708" x2="479.4308" y2="-144.6051"/>
				<line class="st3" x1="529.5364" y1="457.8708" x2="529.5364" y2="-144.6051"/>
			</g>
			<g id="Horizontal_10_mm">
				<line id="_x31_9_1_" class="st4" x1="-273.4129" y1="457.9196" x2="529.5178" y2="457.9196"/>
				<line id="_x32_0" class="st4" x1="-273.4129" y1="357.7062" x2="529.5178" y2="357.7062"/>
				<line id="_x32_1" class="st4" x1="-273.4129" y1="257.4911" x2="529.5178" y2="257.4911"/>
				<line id="_x32_2" class="st4" x1="-273.4129" y1="157.2777" x2="529.5178" y2="157.2777"/>
				<line id="_x32_3" class="st4" x1="-273.4129" y1="57.0609" x2="529.5178" y2="57.0609"/>
				<line id="_x32_4" class="st4" x1="-273.4129" y1="-43.1507" x2="529.5178" y2="-43.1507"/>
				<line id="_x32_5" class="st4" x1="-273.4129" y1="-143.3674" x2="529.5178" y2="-143.3674"/>
			</g>
			<g id="Vertical_10_mm">
				<line id="_x30_" class="st4" x1="-272.1752" y1="457.8708" x2="-272.1752" y2="-144.6051"/>
				<line id="_x31_" class="st4" x1="-171.962" y1="457.8708" x2="-171.962" y2="-144.6051"/>
				<line id="_x32_" class="st4" x1="-71.7469" y1="457.8708" x2="-71.7469" y2="-144.6051"/>
				<line id="_x33_" class="st4" x1="28.4665" y1="457.8708" x2="28.4665" y2="-144.6051"/>
				<line id="_x34_" class="st4" x1="128.6781" y1="457.8708" x2="128.6781" y2="-144.6051"/>
				<line id="_x35_" class="st4" x1="228.895" y1="457.8708" x2="228.895" y2="-144.6051"/>
				<line id="_x36_" class="st4" x1="329.1083" y1="457.8708" x2="329.1083" y2="-144.6051"/>
				<line id="_x37_" class="st4" x1="429.3235" y1="457.8708" x2="429.3235" y2="-144.6051"/>
				<line id="_x38_" class="st4" x1="529.5364" y1="457.8708" x2="529.5364" y2="-144.6051"/>
			</g>
		</g>
	</g>
</g>
<g id="Layer_4">
	<g>
		<line class="st5" x1="-66.7679" y1="-25.0076" x2="-59.5679" y2="-25.0076"/>
		<line class="st5" x1="-37.9679" y1="-25.0076" x2="-45.1679" y2="-25.0076"/>
		<line class="st6" x1="-59.5679" y1="-22.4876" x2="-45.1679" y2="-22.4876"/>
		<line class="st6" x1="-45.1679" y1="-27.5276" x2="-59.5679" y2="-27.5276"/>
		<line class="st6" x1="-45.1679" y1="-22.4876" x2="-45.1679" y2="-27.5276"/>
		<line class="st6" x1="-59.5679" y1="-22.4876" x2="-59.5679" y2="-27.5276"/>
		<g class="st7">
			<path class="st8" d="M-62.732-29.2546v-3.9688h1.7593c0.354,0,0.6226,0.0361,0.8066,0.1069
				c0.1841,0.0718,0.3311,0.1973,0.4414,0.3779c0.1099,0.1807,0.165,0.3799,0.165,0.5981c0,0.2817-0.0913,0.519-0.2734,0.7119
				c-0.1821,0.1934-0.4639,0.3159-0.8447,0.3682c0.1392,0.0669,0.2446,0.1328,0.3169,0.1978
				c0.1533,0.1406,0.2988,0.3169,0.436,0.5278l0.6899,1.0801h-0.6602l-0.5254-0.8257c-0.1533-0.2383-0.2798-0.4204-0.3789-0.5469
				c-0.0991-0.126-0.188-0.2148-0.2666-0.2651c-0.0786-0.0508-0.1582-0.0859-0.2397-0.1055c-0.0596-0.0127-0.1567-0.019-0.292-0.019
				h-0.6094v1.7622H-62.732z M-62.2071-31.4719h1.1289c0.2397,0,0.4277-0.0244,0.563-0.0742s0.2383-0.1289,0.3086-0.2383
				c0.0703-0.1089,0.1055-0.2275,0.1055-0.356c0-0.1875-0.0679-0.3418-0.2041-0.4629s-0.3516-0.1812-0.6455-0.1812h-1.2563V-31.4719
				z"/>
			<path class="st8" d="M-56.3731-29.7229v0.4683h-2.623c-0.0039-0.1172,0.0151-0.23,0.0566-0.3384
				c0.0669-0.1787,0.1738-0.3545,0.3208-0.5278s0.3599-0.3735,0.6377-0.6011c0.4312-0.3535,0.7227-0.6338,0.874-0.8403
				c0.1519-0.2065,0.2275-0.4023,0.2275-0.5864c0-0.1929-0.0688-0.356-0.207-0.4883c-0.1382-0.1328-0.3179-0.1992-0.54-0.1992
				c-0.2349,0-0.4224,0.0703-0.563,0.2114c-0.1406,0.1406-0.2119,0.3354-0.2139,0.5845l-0.501-0.0513
				c0.0342-0.3735,0.1636-0.6582,0.3872-0.854s0.5244-0.2939,0.9014-0.2939c0.3809,0,0.6821,0.1055,0.9043,0.3169
				c0.2217,0.2109,0.333,0.4727,0.333,0.7852c0,0.1587-0.0327,0.3149-0.0977,0.4683s-0.1729,0.3149-0.3232,0.4844
				c-0.1509,0.1699-0.4014,0.4023-0.7515,0.6982c-0.2925,0.2456-0.48,0.4121-0.563,0.4995
				c-0.083,0.0879-0.1514,0.1758-0.2056,0.2642H-56.3731z"/>
		</g>
	</g>
	<line class="st9" x1="84.3009" y1="51.665" x2="84.3009" y2="62.5607"/>
	<line class="st9" x1="84.3009" y1="11.4687" x2="84.3008" y2="22.865"/>
	<line class="st10" x1="84.3008" y1="51.665" x2="84.3008" y2="44.465"/>
	<line class="st10" x1="84.3008" y1="22.865" x2="84.3008" y2="30.065"/>
	<line class="st11" x1="86.8208" y1="44.465" x2="86.8208" y2="30.065"/>
	<line class="st11" x1="81.7808" y1="30.065" x2="81.7808" y2="44.465"/>
	<line class="st11" x1="86.8208" y1="30.065" x2="81.7808" y2="30.065"/>
	<line class="st11" x1="86.8208" y1="44.465" x2="81.7808" y2="44.465"/>
	<g class="st7">
		<path class="st12" d="M93.3691,33.1697c1.3193,0,2.0391,0.5596,2.0391,1.4092c0,0.4795-0.25,0.9692-0.6592,1.2793
			c-0.3105,0.2397-0.6396,0.3599-1.3096,0.5098l0.8896,2.3486c0.2197,0.5898,0.4199,0.8193,0.8691,0.8193v0.1602h-1.4688
			l-1.2295-3.2383l-0.6602-0.0498L91.29,38.4368c-0.1094,0.3896-0.1299,0.5298-0.1299,0.6294c0,0.3003,0.1006,0.4102,0.6699,0.4697
			v0.1602h-2.4287v-0.1602c0.5498-0.0698,0.6895-0.2598,0.8496-0.8491l1.1895-4.3076c0.0703-0.27,0.1201-0.46,0.1201-0.6299
			c0-0.1099-0.0703-0.23-0.1396-0.2798c-0.1104-0.0698-0.1504-0.0801-0.5703-0.1401v-0.1597H93.3691z M91.9599,36.0378
			c0.25,0.04,0.3301,0.0503,0.5098,0.0503c1.1895,0,1.8887-0.5698,1.8887-1.4995c0-0.6895-0.4189-1.1191-1.1992-1.1191
			c-0.3096,0-0.5195,0.1099-0.5693,0.2998L91.9599,36.0378z"/>
	</g>
	<g class="st7">
		<path class="st13" d="M64.2157,2.4329c-0.5596,0.0703-0.6494,0.1602-0.8193,0.77l-1.1992,4.2876
			c-0.0898,0.3198-0.1504,0.5596-0.1504,0.7593c0,0.2798,0.1201,0.3198,0.6904,0.3896v0.1602h-2.4395V8.6394
			c0.5498-0.0996,0.6904-0.1895,0.8398-0.7495l1.1992-4.4072c0.0703-0.25,0.1299-0.46,0.1299-0.6196
			c0-0.25-0.1602-0.3999-0.7197-0.4302V2.2732h2.4687V2.4329z"/>
	</g>
	<line class="st9" x1="84.3008" y1="11.4687" x2="28.4665" y2="11.4687"/>
	<line class="st14" x1="83.9512" y1="62.5607" x2="28.4665" y2="62.5607"/>
	<g>
		<g>
			<line class="st15" x1="17.4665" y1="28.7903" x2="17.4665" y2="44.4383"/>
			<g>
				<polygon points="15.6997,43.0069 16.0161,42.7122 17.4661,44.2725 18.9165,42.7122 19.2329,43.0069 17.4661,44.9068 				"/>
			</g>
		</g>
	</g>
	<g class="st7">
		<path d="M14.8573,35.3064l-0.2207-0.02c0.0205-0.1699,0.0303-0.3296,0.0303-0.4595c0-0.6001-0.3496-0.73-1.9189-0.73
			c-0.5693,0-0.6699,0.04-0.7295,0.2603l-0.6592,2.3286h0.7793c0.8994,0,1.0088-0.1201,1.3887-0.9697l0.1807,0.04l-0.6797,2.3188
			l-0.2002-0.0498c0.0498-0.2202,0.0703-0.3398,0.0703-0.52c0-0.1699-0.0205-0.2598-0.0703-0.3096
			c-0.1104-0.1001-0.3799-0.1499-0.7793-0.1499h-0.7803l-0.3193,1.1191c-0.25,0.8794-0.3604,1.3394-0.3604,1.4595
			c0,0.2397,0.2305,0.3398,0.79,0.3398c0.9795,0,1.5195-0.1201,2.0293-0.3901c0.3193-0.1699,0.5596-0.4497,0.9395-0.9795
			l0.1592,0.0801l-0.6191,1.6191H8.8202v-0.1602c0.5596-0.0996,0.6494-0.1597,0.8096-0.7393l1.2295-4.4175
			c0.0596-0.2002,0.1094-0.52,0.1094-0.6396c0-0.27-0.1494-0.3501-0.7695-0.4102v-0.1597h4.9678L14.8573,35.3064z"/>
	</g>
	<g>
		<g>
			<line class="st16" x1="58.9629" y1="11.4687" x2="53.3235" y2="11.4687"/>
			<g>
				<path class="st13" d="M56.2291,9.5488c-0.0594,0.093-0.0318,0.2168,0.0613,0.2762l2.581,1.6437l-2.581,1.6438
					c-0.0932,0.0594-0.1207,0.1832-0.0613,0.2762c0.0594,0.093,0.1838,0.1199,0.2762,0.0613l2.8459-1.8125
					c0.0576-0.0367,0.0926-0.1004,0.0926-0.1688s-0.035-0.132-0.0926-0.1687l-2.8459-1.8125
					c-0.0332-0.0211-0.0705-0.0312-0.1072-0.0312C56.3321,9.4562,56.2674,9.489,56.2291,9.5488z"/>
			</g>
		</g>
	</g>
	<g>
		<line class="st5" x1="28.5094" y1="22.865" x2="28.5094" y2="30.065"/>
		<g class="st7">
			<path class="st8" d="M26.9511,27.866h-0.9336v0.9258h-0.3896V27.866h-0.9258v-0.3945h0.9258v-0.9258h0.3896v0.9258h0.9336V27.866
				z"/>
		</g>
		<line class="st5" x1="28.5094" y1="51.665" x2="28.5094" y2="44.465"/>
		<g class="st7">
			<path class="st8" d="M27.2128,46.0515h-2.2461v-0.3896h2.2461V46.0515z"/>
		</g>
		<line class="st17" x1="26.7094" y1="39.065" x2="28.5094" y2="39.065"/>
		<line class="st5" x1="28.5094" y1="44.465" x2="28.5094" y2="39.065"/>
		<line class="st17" x1="28.5094" y1="39.065" x2="30.3094" y2="39.065"/>
		<line class="st17" x1="21.3094" y1="35.465" x2="28.5094" y2="35.465"/>
		<line class="st5" x1="28.5094" y1="35.465" x2="28.5094" y2="30.065"/>
		<line class="st17" x1="28.5094" y1="35.465" x2="35.7094" y2="35.465"/>
	</g>
	<line class="st9" x1="28.4665" y1="51.665" x2="28.4665" y2="62.5607"/>
	<line class="st9" x1="28.4665" y1="11.6896" x2="28.4665" y2="22.5853"/>
	<g>
		<g>
			<line class="st16" x1="39.6542" y1="29.6036" x2="39.6542" y2="44.9068"/>
			<g>
				<path class="st13" d="M37.7343,32.3373c0.093,0.0594,0.2168,0.0318,0.2762-0.0613l1.6437-2.5811l1.6438,2.5811
					c0.0594,0.0931,0.1832,0.1207,0.2762,0.0613c0.093-0.0594,0.1199-0.1838,0.0613-0.2762l-1.8125-2.8459
					c-0.0367-0.0576-0.1004-0.0926-0.1688-0.0926s-0.132,0.0349-0.1687,0.0926l-1.8125,2.8459
					c-0.0211,0.0332-0.0312,0.0705-0.0312,0.1072C37.6417,32.2344,37.6745,32.299,37.7343,32.3373z"/>
			</g>
		</g>
	</g>
	<g class="st7">
		<path class="st13" d="M46.5068,34.8518c-0.5596,0.0703-0.6494,0.1602-0.8193,0.77l-1.2002,4.2876
			c-0.0898,0.3198-0.1494,0.5596-0.1494,0.7593c0,0.2798,0.1201,0.3198,0.6895,0.3896v0.1602h-2.4385v-0.1602
			c0.5498-0.0996,0.6895-0.1895,0.8398-0.7495l1.1992-4.4072c0.0693-0.25,0.1299-0.46,0.1299-0.6196
			c0-0.25-0.1602-0.3999-0.7197-0.4302v-0.1597h2.4688V34.8518z"/>
	</g>
	<g>
	</g>
	<g>
	</g>
</g>
</svg>
