<?xml version="1.0" encoding="utf-8"?>
<!-- Generator: Adobe Illustrator 26.0.0, SVG Export Plug-In . SVG Version: 6.00 Build 0)  -->
<svg version="1.1" xmlns="http://www.w3.org/2000/svg" xmlns:xlink="http://www.w3.org/1999/xlink" x="0px" y="0px"
	 viewBox="0 0 117.9634 74.3374" style="enable-background:new 0 0 117.9634 74.3374;" xml:space="preserve">
<style type="text/css">
	.st0{opacity:0.5;}
	.st1{opacity:0.25;clip-path:url(#SVGID_00000006698935952370260500000006539664578663471274_);}
	.st2{fill:none;stroke:#00ABEB;stroke-width:0.2111;stroke-miterlimit:10;}
	.st3{fill:none;stroke:#00ABEB;stroke-width:0.4221;stroke-miterlimit:10;}
	.st4{fill:none;stroke:#00ABEB;stroke-width:0.9849;stroke-miterlimit:10;}
	.st5{fill:none;stroke:#C90D0C;stroke-width:0.432;stroke-linecap:round;stroke-miterlimit:11.3386;}
	.st6{fill:none;stroke:#C90D0C;stroke-width:0.72;stroke-linecap:round;stroke-miterlimit:11.3386;}
	.st7{enable-background:new    ;}
	.st8{fill:#808080;}
	.st9{fill:none;stroke:#00B200;stroke-width:0.4;stroke-linecap:round;stroke-linejoin:round;stroke-miterlimit:11.3386;}
	.st10{fill:none;stroke:#C90D0C;stroke-width:0.4;stroke-linecap:round;stroke-miterlimit:11.3386;}
	.st11{fill:none;stroke:#C90D0C;stroke-width:0.7;stroke-linecap:round;stroke-miterlimit:11.3386;}
	.st12{fill:#C90D0C;}
	.st13{fill:#00B200;}
	.st14{fill:none;stroke:#00B200;stroke-width:0.4;stroke-miterlimit:11.3386;}
	.st15{fill:none;stroke:#000000;stroke-width:0.432;stroke-linecap:round;stroke-linejoin:round;}
	.st16{fill:none;stroke:#00B200;stroke-width:0.4;stroke-linecap:round;stroke-linejoin:round;}
</style>
<g id="Graph_paper" class="st0">
	<g id="Clipped_grid">
		<defs>
			<rect id="SVGID_1_" x="-249.855" y="-47.5406" width="499.7099" height="213.594"/>
		</defs>
		<clipPath id="SVGID_00000054972033384836280140000001225164915185370282_">
			<use xlink:href="#SVGID_1_"  style="overflow:visible;"/>
		</clipPath>
		
			<g id="Grid_00000060005542146034257920000005065612243763103930_" style="opacity:0.25;clip-path:url(#SVGID_00000054972033384836280140000001225164915185370282_);">
			<g id="Horizontal_1_mm">
				<line class="st2" x1="-272.441" y1="-132.2406" x2="529.5178" y2="-132.2406"/>
				<line class="st2" x1="-272.441" y1="-142.2631" x2="529.5178" y2="-142.2631"/>
				<line class="st2" x1="-272.441" y1="459.0239" x2="529.5178" y2="459.0239"/>
				<line class="st2" x1="-272.441" y1="449.0012" x2="529.5178" y2="449.0012"/>
				<line class="st2" x1="-272.441" y1="438.9821" x2="529.5178" y2="438.9821"/>
				<line class="st2" x1="-272.441" y1="428.9597" x2="529.5178" y2="428.9597"/>
				<line class="st2" x1="-272.441" y1="418.9371" x2="529.5178" y2="418.9371"/>
				<line class="st2" x1="-272.441" y1="408.9179" x2="529.5178" y2="408.9179"/>
				<line class="st2" x1="-272.441" y1="398.8956" x2="529.5178" y2="398.8956"/>
				<line class="st2" x1="-272.441" y1="388.8764" x2="529.5178" y2="388.8764"/>
				<line class="st2" x1="-272.441" y1="378.852" x2="529.5178" y2="378.852"/>
				<line class="st2" x1="-272.441" y1="368.8297" x2="529.5178" y2="368.8297"/>
				<line class="st2" x1="-272.441" y1="358.8105" x2="529.5178" y2="358.8105"/>
				<line class="st2" x1="-272.441" y1="348.7878" x2="529.5178" y2="348.7878"/>
				<line class="st2" x1="-272.441" y1="338.7655" x2="529.5178" y2="338.7655"/>
				<line class="st2" x1="-272.441" y1="328.7464" x2="529.5178" y2="328.7464"/>
				<line class="st2" x1="-272.441" y1="318.7237" x2="529.5178" y2="318.7237"/>
				<line class="st2" x1="-272.441" y1="308.7014" x2="529.5178" y2="308.7014"/>
				<line class="st2" x1="-272.441" y1="298.6822" x2="529.5178" y2="298.6822"/>
				<line class="st2" x1="-272.441" y1="288.6595" x2="529.5178" y2="288.6595"/>
				<line class="st2" x1="-272.441" y1="278.6369" x2="529.5178" y2="278.6369"/>
				<line class="st2" x1="-272.441" y1="268.6181" x2="529.5178" y2="268.6181"/>
				<line class="st2" x1="-272.441" y1="258.5954" x2="529.5178" y2="258.5954"/>
				<line class="st2" x1="-272.441" y1="248.5713" x2="529.5178" y2="248.5713"/>
				<line class="st2" x1="-272.441" y1="238.5522" x2="529.5178" y2="238.5522"/>
				<line class="st2" x1="-272.441" y1="228.5295" x2="529.5178" y2="228.5295"/>
				<line class="st2" x1="-272.441" y1="218.5103" x2="529.5178" y2="218.5103"/>
				<line class="st2" x1="-272.441" y1="208.488" x2="529.5178" y2="208.488"/>
				<line class="st2" x1="-272.441" y1="198.4653" x2="529.5178" y2="198.4653"/>
				<line class="st2" x1="-272.441" y1="188.4462" x2="529.5178" y2="188.4462"/>
				<line class="st2" x1="-272.441" y1="178.4239" x2="529.5178" y2="178.4239"/>
				<line class="st2" x1="-272.441" y1="168.4012" x2="529.5178" y2="168.4012"/>
				<line class="st2" x1="-272.441" y1="158.382" x2="529.5178" y2="158.382"/>
				<line class="st2" x1="-272.441" y1="148.3597" x2="529.5178" y2="148.3597"/>
				<line class="st2" x1="-272.441" y1="138.337" x2="529.5178" y2="138.337"/>
				<line class="st2" x1="-272.441" y1="128.3179" x2="529.5178" y2="128.3179"/>
				<line class="st2" x1="-272.441" y1="118.2952" x2="529.5178" y2="118.2952"/>
				<line class="st2" x1="-272.441" y1="108.2729" x2="529.5178" y2="108.2729"/>
				<line class="st2" x1="-272.441" y1="98.2537" x2="529.5178" y2="98.2537"/>
				<line class="st2" x1="-272.441" y1="88.2311" x2="529.5178" y2="88.2311"/>
				<line class="st2" x1="-272.441" y1="78.2087" x2="529.5178" y2="78.2087"/>
				<line class="st2" x1="-272.441" y1="68.1896" x2="529.5178" y2="68.1896"/>
				<line class="st2" x1="-272.441" y1="58.1651" x2="529.5178" y2="58.1651"/>
				<line class="st2" x1="-272.441" y1="48.1464" x2="529.5178" y2="48.1464"/>
				<line class="st2" x1="-272.441" y1="38.1237" x2="529.5178" y2="38.1237"/>
				<line class="st2" x1="-272.441" y1="28.101" x2="529.5178" y2="28.101"/>
				<line class="st2" x1="-272.441" y1="18.0822" x2="529.5178" y2="18.0822"/>
				<line class="st2" x1="-272.441" y1="8.0595" x2="529.5178" y2="8.0595"/>
				<line class="st2" x1="-272.441" y1="-1.9632" x2="529.5178" y2="-1.9632"/>
				<line class="st2" x1="-272.441" y1="-11.9823" x2="529.5178" y2="-11.9823"/>
				<line class="st2" x1="-272.441" y1="-22.0046" x2="529.5178" y2="-22.0046"/>
				<line class="st2" x1="-272.441" y1="-32.0273" x2="529.5178" y2="-32.0273"/>
				<line class="st2" x1="-272.441" y1="-42.0464" x2="529.5178" y2="-42.0464"/>
				<line class="st2" x1="-272.441" y1="-52.0688" x2="529.5178" y2="-52.0688"/>
				<line class="st2" x1="-272.441" y1="-62.0914" x2="529.5178" y2="-62.0914"/>
				<line class="st2" x1="-272.441" y1="-72.1106" x2="529.5178" y2="-72.1106"/>
				<line class="st2" x1="-272.441" y1="-82.1347" x2="529.5178" y2="-82.1347"/>
				<line class="st2" x1="-272.441" y1="-92.1538" x2="529.5178" y2="-92.1538"/>
				<line class="st2" x1="-272.441" y1="-102.1765" x2="529.5178" y2="-102.1765"/>
				<line class="st2" x1="-272.441" y1="-112.1989" x2="529.5178" y2="-112.1989"/>
				<line class="st2" x1="-272.441" y1="-122.218" x2="529.5178" y2="-122.218"/>
			</g>
			<g id="Vertical_1_mm">
				<g>
					<line class="st2" x1="-272.1752" y1="458.9751" x2="-272.1752" y2="-142.5289"/>
				</g>
				<line class="st2" x1="-262.1561" y1="458.9751" x2="-262.1561" y2="-142.5289"/>
				<line class="st2" x1="-252.1336" y1="458.9751" x2="-252.1336" y2="-142.5289"/>
				<line class="st2" x1="-242.111" y1="458.9751" x2="-242.111" y2="-142.5289"/>
				<line class="st2" x1="-232.0921" y1="458.9751" x2="-232.0921" y2="-142.5289"/>
				<line class="st2" x1="-222.0694" y1="458.9751" x2="-222.0694" y2="-142.5289"/>
				<line class="st2" x1="-212.0467" y1="458.9751" x2="-212.0467" y2="-142.5289"/>
				<line class="st2" x1="-202.0279" y1="458.9751" x2="-202.0279" y2="-142.5289"/>
				<line class="st2" x1="-192.0035" y1="458.9751" x2="-192.0035" y2="-142.5289"/>
				<line class="st2" x1="-181.9843" y1="458.9751" x2="-181.9843" y2="-142.5289"/>
				<line class="st2" x1="-171.962" y1="458.9751" x2="-171.962" y2="-142.5289"/>
				<line class="st2" x1="-161.9393" y1="458.9751" x2="-161.9393" y2="-142.5289"/>
				<line class="st2" x1="-151.9202" y1="458.9751" x2="-151.9202" y2="-142.5289"/>
				<line class="st2" x1="-141.8978" y1="458.9751" x2="-141.8978" y2="-142.5289"/>
				<line class="st2" x1="-131.8752" y1="458.9751" x2="-131.8752" y2="-142.5289"/>
				<line class="st2" x1="-121.856" y1="458.9751" x2="-121.856" y2="-142.5289"/>
				<line class="st2" x1="-111.8333" y1="458.9751" x2="-111.8333" y2="-142.5289"/>
				<line class="st2" x1="-101.811" y1="458.9751" x2="-101.811" y2="-142.5289"/>
				<line class="st2" x1="-91.7919" y1="458.9751" x2="-91.7919" y2="-142.5289"/>
				<line class="st2" x1="-81.7692" y1="458.9751" x2="-81.7692" y2="-142.5289"/>
				<line class="st2" x1="-71.7469" y1="458.9751" x2="-71.7469" y2="-142.5289"/>
				<line class="st2" x1="-61.7277" y1="458.9751" x2="-61.7277" y2="-142.5289"/>
				<line class="st2" x1="-51.705" y1="458.9751" x2="-51.705" y2="-142.5289"/>
				<line class="st2" x1="-41.6827" y1="458.9751" x2="-41.6827" y2="-142.5289"/>
				<line class="st2" x1="-31.6618" y1="458.9751" x2="-31.6618" y2="-142.5289"/>
				<line class="st2" x1="-21.6391" y1="458.9751" x2="-21.6391" y2="-142.5289"/>
				<line class="st2" x1="-11.6203" y1="458.9751" x2="-11.6203" y2="-142.5289"/>
				<line class="st2" x1="-1.5977" y1="458.9751" x2="-1.5977" y2="-142.5289"/>
				<line class="st2" x1="8.425" y1="458.9751" x2="8.425" y2="-142.5289"/>
				<line class="st2" x1="18.4438" y1="458.9751" x2="18.4438" y2="-142.5289"/>
				<line class="st2" x1="28.4665" y1="458.9751" x2="28.4665" y2="-142.5289"/>
				<line class="st2" x1="38.4892" y1="458.9751" x2="38.4892" y2="-142.5289"/>
				<line class="st2" x1="48.5083" y1="458.9751" x2="48.5083" y2="-142.5289"/>
				<line class="st2" x1="58.5306" y1="458.9751" x2="58.5306" y2="-142.5289"/>
				<line class="st2" x1="68.5533" y1="458.9751" x2="68.5533" y2="-142.5289"/>
				<line class="st2" x1="78.5725" y1="458.9751" x2="78.5725" y2="-142.5289"/>
				<line class="st2" x1="88.5948" y1="458.9751" x2="88.5948" y2="-142.5289"/>
				<line class="st2" x1="98.6175" y1="458.9751" x2="98.6175" y2="-142.5289"/>
				<line class="st2" x1="108.6366" y1="458.9751" x2="108.6366" y2="-142.5289"/>
				<line class="st2" x1="118.6589" y1="458.9751" x2="118.6589" y2="-142.5289"/>
				<line class="st2" x1="128.6781" y1="458.9751" x2="128.6781" y2="-142.5289"/>
				<line class="st2" x1="138.7025" y1="458.9751" x2="138.7025" y2="-142.5289"/>
				<line class="st2" x1="148.7249" y1="458.9751" x2="148.7249" y2="-142.5289"/>
				<line class="st2" x1="158.744" y1="458.9751" x2="158.744" y2="-142.5289"/>
				<line class="st2" x1="168.7667" y1="458.9751" x2="168.7667" y2="-142.5289"/>
				<line class="st2" x1="178.789" y1="458.9751" x2="178.789" y2="-142.5289"/>
				<line class="st2" x1="188.8081" y1="458.9751" x2="188.8081" y2="-142.5289"/>
				<line class="st2" x1="198.8308" y1="458.9751" x2="198.8308" y2="-142.5289"/>
				<line class="st2" x1="208.8531" y1="458.9751" x2="208.8531" y2="-142.5289"/>
				<line class="st2" x1="218.8723" y1="458.9751" x2="218.8723" y2="-142.5289"/>
				<line class="st2" x1="228.895" y1="458.9751" x2="228.895" y2="-142.5289"/>
				<line class="st2" x1="238.9173" y1="458.9751" x2="238.9173" y2="-142.5289"/>
				<line class="st2" x1="248.9364" y1="458.9751" x2="248.9364" y2="-142.5289"/>
				<line class="st2" x1="258.9591" y1="458.9751" x2="258.9591" y2="-142.5289"/>
				<line class="st2" x1="268.9814" y1="458.9751" x2="268.9814" y2="-142.5289"/>
				<line class="st2" x1="279.0006" y1="458.9751" x2="279.0006" y2="-142.5289"/>
				<line class="st2" x1="289.025" y1="458.9751" x2="289.025" y2="-142.5289"/>
				<line class="st2" x1="299.0442" y1="458.9751" x2="299.0442" y2="-142.5289"/>
				<line class="st2" x1="309.0665" y1="458.9751" x2="309.0665" y2="-142.5289"/>
				<line class="st2" x1="319.0892" y1="458.9751" x2="319.0892" y2="-142.5289"/>
				<line class="st2" x1="329.1083" y1="458.9751" x2="329.1083" y2="-142.5289"/>
				<line class="st2" x1="339.1306" y1="458.9751" x2="339.1306" y2="-142.5289"/>
				<line class="st2" x1="349.1533" y1="458.9751" x2="349.1533" y2="-142.5289"/>
				<line class="st2" x1="359.1725" y1="458.9751" x2="359.1725" y2="-142.5289"/>
				<line class="st2" x1="369.1948" y1="458.9751" x2="369.1948" y2="-142.5289"/>
				<line class="st2" x1="379.2175" y1="458.9751" x2="379.2175" y2="-142.5289"/>
				<line class="st2" x1="389.2366" y1="458.9751" x2="389.2366" y2="-142.5289"/>
				<line class="st2" x1="399.2589" y1="458.9751" x2="399.2589" y2="-142.5289"/>
				<line class="st2" x1="409.2816" y1="458.9751" x2="409.2816" y2="-142.5289"/>
				<line class="st2" x1="419.3008" y1="458.9751" x2="419.3008" y2="-142.5289"/>
				<line class="st2" x1="429.3235" y1="458.9751" x2="429.3235" y2="-142.5289"/>
				<line class="st2" x1="439.3458" y1="458.9751" x2="439.3458" y2="-142.5289"/>
				<line class="st2" x1="449.3667" y1="458.9751" x2="449.3667" y2="-142.5289"/>
				<line class="st2" x1="459.389" y1="458.9751" x2="459.389" y2="-142.5289"/>
				<line class="st2" x1="469.4082" y1="458.9751" x2="469.4082" y2="-142.5289"/>
				<line class="st2" x1="479.4308" y1="458.9751" x2="479.4308" y2="-142.5289"/>
				<line class="st2" x1="489.4535" y1="458.9751" x2="489.4535" y2="-142.5289"/>
				<line class="st2" x1="499.4723" y1="458.9751" x2="499.4723" y2="-142.5289"/>
				<line class="st2" x1="509.495" y1="458.9751" x2="509.495" y2="-142.5289"/>
				<line class="st2" x1="519.5176" y1="458.9751" x2="519.5176" y2="-142.5289"/>
				<line class="st2" x1="529.5364" y1="458.9751" x2="529.5364" y2="-142.5289"/>
			</g>
			<g id="Horizontal_5_mm_1_">
				<line class="st3" x1="-273.4129" y1="459.0239" x2="529.5178" y2="459.0239"/>
				<line class="st3" x1="-273.4129" y1="408.9179" x2="529.5178" y2="408.9179"/>
				<line class="st3" x1="-273.4129" y1="358.8105" x2="529.5178" y2="358.8105"/>
				<line class="st3" x1="-273.4129" y1="308.7014" x2="529.5178" y2="308.7014"/>
				<line class="st3" x1="-273.4129" y1="258.5954" x2="529.5178" y2="258.5954"/>
				<line class="st3" x1="-273.4129" y1="208.488" x2="529.5178" y2="208.488"/>
				<line class="st3" x1="-273.4129" y1="158.382" x2="529.5178" y2="158.382"/>
				<line class="st3" x1="-273.4129" y1="108.2729" x2="529.5178" y2="108.2729"/>
				<line class="st3" x1="-273.4129" y1="58.1651" x2="529.5178" y2="58.1651"/>
				<line class="st3" x1="-273.4129" y1="8.0595" x2="529.5178" y2="8.0595"/>
				<line class="st3" x1="-273.4129" y1="-42.0464" x2="529.5178" y2="-42.0464"/>
			</g>
			<g id="Vertical_5_mm">
				<line class="st3" x1="-272.1752" y1="458.9751" x2="-272.1752" y2="-143.5008"/>
				<line class="st3" x1="-222.0694" y1="458.9751" x2="-222.0694" y2="-143.5008"/>
				<line class="st3" x1="-171.962" y1="458.9751" x2="-171.962" y2="-143.5008"/>
				<line class="st3" x1="-121.856" y1="458.9751" x2="-121.856" y2="-143.5008"/>
				<line class="st3" x1="-71.7469" y1="458.9751" x2="-71.7469" y2="-143.5008"/>
				<line class="st3" x1="-21.6391" y1="458.9751" x2="-21.6391" y2="-143.5008"/>
				<line class="st3" x1="28.4665" y1="458.9751" x2="28.4665" y2="-143.5008"/>
				<line class="st3" x1="78.5725" y1="458.9751" x2="78.5725" y2="-143.5008"/>
				<line class="st3" x1="128.6781" y1="458.9751" x2="128.6781" y2="-143.5008"/>
				<line class="st3" x1="178.789" y1="458.9751" x2="178.789" y2="-143.5008"/>
				<line class="st3" x1="228.895" y1="458.9751" x2="228.895" y2="-143.5008"/>
				<line class="st3" x1="279.0006" y1="458.9751" x2="279.0006" y2="-143.5008"/>
				<line class="st3" x1="329.1083" y1="458.9751" x2="329.1083" y2="-143.5008"/>
				<line class="st3" x1="379.2175" y1="458.9751" x2="379.2175" y2="-143.5008"/>
				<line class="st3" x1="429.3235" y1="458.9751" x2="429.3235" y2="-143.5008"/>
				<line class="st3" x1="479.4308" y1="458.9751" x2="479.4308" y2="-143.5008"/>
				<line class="st3" x1="529.5364" y1="458.9751" x2="529.5364" y2="-143.5008"/>
			</g>
			<g id="Horizontal_10_mm">
				<line id="_x31_9_1_" class="st4" x1="-273.4129" y1="459.0239" x2="529.5178" y2="459.0239"/>
				<line id="_x32_0" class="st4" x1="-273.4129" y1="358.8105" x2="529.5178" y2="358.8105"/>
				<line id="_x32_1" class="st4" x1="-273.4129" y1="258.5954" x2="529.5178" y2="258.5954"/>
				<line id="_x32_2" class="st4" x1="-273.4129" y1="158.382" x2="529.5178" y2="158.382"/>
				<line id="_x32_3" class="st4" x1="-273.4129" y1="58.1651" x2="529.5178" y2="58.1651"/>
				<line id="_x32_4" class="st4" x1="-273.4129" y1="-42.0464" x2="529.5178" y2="-42.0464"/>
				<line id="_x32_5" class="st4" x1="-273.4129" y1="-142.2631" x2="529.5178" y2="-142.2631"/>
			</g>
			<g id="Vertical_10_mm">
				<line id="_x30_" class="st4" x1="-272.1752" y1="458.9751" x2="-272.1752" y2="-143.5008"/>
				<line id="_x31_" class="st4" x1="-171.962" y1="458.9751" x2="-171.962" y2="-143.5008"/>
				<line id="_x32_" class="st4" x1="-71.7469" y1="458.9751" x2="-71.7469" y2="-143.5008"/>
				<line id="_x33_" class="st4" x1="28.4665" y1="458.9751" x2="28.4665" y2="-143.5008"/>
				<line id="_x34_" class="st4" x1="128.6781" y1="458.9751" x2="128.6781" y2="-143.5008"/>
				<line id="_x35_" class="st4" x1="228.895" y1="458.9751" x2="228.895" y2="-143.5008"/>
				<line id="_x36_" class="st4" x1="329.1083" y1="458.9751" x2="329.1083" y2="-143.5008"/>
				<line id="_x37_" class="st4" x1="429.3235" y1="458.9751" x2="429.3235" y2="-143.5008"/>
				<line id="_x38_" class="st4" x1="529.5364" y1="458.9751" x2="529.5364" y2="-143.5008"/>
			</g>
		</g>
	</g>
</g>
<g id="Layer_4">
	<g>
		<line class="st5" x1="-66.7679" y1="-23.9033" x2="-59.5679" y2="-23.9033"/>
		<line class="st5" x1="-37.9679" y1="-23.9033" x2="-45.1679" y2="-23.9033"/>
		<line class="st6" x1="-59.5679" y1="-21.3833" x2="-45.1679" y2="-21.3833"/>
		<line class="st6" x1="-45.1679" y1="-26.4233" x2="-59.5679" y2="-26.4233"/>
		<line class="st6" x1="-45.1679" y1="-21.3833" x2="-45.1679" y2="-26.4233"/>
		<line class="st6" x1="-59.5679" y1="-21.3833" x2="-59.5679" y2="-26.4233"/>
		<g class="st7">
			<path class="st8" d="M-62.732-28.1504v-3.9688h1.7593c0.354,0,0.6226,0.0361,0.8066,0.1069
				c0.1841,0.0718,0.3311,0.1973,0.4414,0.3779c0.1099,0.1807,0.165,0.3799,0.165,0.5981c0,0.2817-0.0913,0.519-0.2734,0.7119
				c-0.1821,0.1934-0.4639,0.3159-0.8447,0.3682c0.1392,0.0669,0.2446,0.1328,0.3169,0.1978
				c0.1533,0.1406,0.2988,0.3169,0.436,0.5278l0.6899,1.0801h-0.6602l-0.5254-0.8257c-0.1533-0.2383-0.2798-0.4204-0.3789-0.5469
				c-0.0991-0.126-0.188-0.2148-0.2666-0.2651c-0.0786-0.0508-0.1582-0.0859-0.2397-0.1055c-0.0596-0.0127-0.1567-0.019-0.292-0.019
				h-0.6094v1.7622H-62.732z M-62.2071-30.3676h1.1289c0.2397,0,0.4277-0.0244,0.563-0.0742s0.2383-0.1289,0.3086-0.2383
				c0.0703-0.1089,0.1055-0.2275,0.1055-0.356c0-0.1875-0.0679-0.3418-0.2041-0.4629s-0.3516-0.1812-0.6455-0.1812h-1.2563V-30.3676
				z"/>
			<path class="st8" d="M-56.3731-28.6186v0.4683h-2.623c-0.0039-0.1172,0.0151-0.23,0.0566-0.3384
				c0.0669-0.1787,0.1738-0.3545,0.3208-0.5278s0.3599-0.3735,0.6377-0.6011c0.4312-0.3535,0.7227-0.6338,0.874-0.8403
				c0.1519-0.2065,0.2275-0.4023,0.2275-0.5864c0-0.1929-0.0688-0.356-0.207-0.4883c-0.1382-0.1328-0.3179-0.1992-0.54-0.1992
				c-0.2349,0-0.4224,0.0703-0.563,0.2114c-0.1406,0.1406-0.2119,0.3354-0.2139,0.5845l-0.501-0.0513
				c0.0342-0.3735,0.1636-0.6582,0.3872-0.854s0.5244-0.2939,0.9014-0.2939c0.3809,0,0.6821,0.1055,0.9043,0.3169
				c0.2217,0.2109,0.333,0.4727,0.333,0.7852c0,0.1587-0.0327,0.3149-0.0977,0.4683s-0.1729,0.3149-0.3232,0.4844
				c-0.1509,0.1699-0.4014,0.4023-0.7515,0.6982c-0.2925,0.2456-0.48,0.4121-0.563,0.4995
				c-0.083,0.0879-0.1514,0.1758-0.2056,0.2642H-56.3731z"/>
		</g>
	</g>
	<line class="st9" x1="58.6812" y1="52.7693" x2="58.6812" y2="63.665"/>
	<line class="st9" x1="58.6812" y1="12.573" x2="58.6812" y2="23.9693"/>
	<line class="st9" x1="84.3009" y1="52.7693" x2="84.3009" y2="63.665"/>
	<line class="st9" x1="84.3009" y1="12.573" x2="84.3008" y2="23.9693"/>
	<line class="st10" x1="58.6812" y1="52.7693" x2="58.6812" y2="45.5693"/>
	<line class="st10" x1="58.6812" y1="23.9693" x2="58.6812" y2="31.1693"/>
	<line class="st11" x1="61.2012" y1="45.5693" x2="61.2012" y2="31.1693"/>
	<line class="st11" x1="56.1612" y1="31.1693" x2="56.1612" y2="45.5693"/>
	<line class="st11" x1="61.2012" y1="31.1693" x2="56.1612" y2="31.1693"/>
	<line class="st11" x1="61.2012" y1="45.5693" x2="56.1612" y2="45.5693"/>
	<g class="st7">
		<path class="st12" d="M67.7499,34.274c1.3193,0,2.0391,0.5596,2.0391,1.4092c0,0.4795-0.25,0.9692-0.6602,1.2793
			c-0.3096,0.2397-0.6396,0.3599-1.3096,0.5098l0.8896,2.3486c0.2197,0.5898,0.4199,0.8193,0.8701,0.8193v0.1602h-1.4697
			l-1.2295-3.2383l-0.6592-0.0498l-0.5498,2.0288c-0.1104,0.3896-0.1299,0.5298-0.1299,0.6294c0,0.3003,0.0996,0.4102,0.6699,0.4697
			v0.1602h-2.4287v-0.1602c0.5498-0.0698,0.6894-0.2598,0.8496-0.8491l1.1895-4.3076c0.0693-0.27,0.1191-0.46,0.1191-0.6299
			c0-0.1099-0.0693-0.23-0.1396-0.2798c-0.1104-0.0698-0.1494-0.0801-0.5693-0.1401V34.274H67.7499z M66.3407,37.1421
			c0.25,0.04,0.3291,0.0503,0.5098,0.0503c1.1895,0,1.8887-0.5698,1.8887-1.4995c0-0.6895-0.4199-1.1191-1.1992-1.1191
			c-0.3096,0-0.5195,0.1099-0.5703,0.2998L66.3407,37.1421z"/>
		<path class="st12" d="M72.3769,40.19c0.0176,0,0.0283,0.0176,0.0283,0.041c0,0.0293-0.0107,0.0874-0.0342,0.1689l-0.834,3.0254
			c-0.041,0.1455-0.1045,0.373-0.1045,0.4312c0,0.1343,0.1279,0.1865,0.3848,0.1865h0.1221v0.0874h-1.626V44.043
			c0.46-0.0352,0.5889-0.0991,0.6523-0.3208l0.793-2.8442c0.0293-0.1108,0.0469-0.1689,0.0469-0.21
			c0-0.1108-0.0762-0.1807-0.2041-0.1807h-0.0176c-0.1055,0-0.2334,0.0059-0.3438,0.0117v-0.0874l0.1338-0.0293
			c0.5127-0.1108,0.5361-0.0991,0.9854-0.1924H72.3769z"/>
	</g>
	<line class="st10" x1="84.3008" y1="52.7693" x2="84.3008" y2="45.5693"/>
	<line class="st10" x1="84.3008" y1="23.9693" x2="84.3008" y2="31.1693"/>
	<line class="st11" x1="86.8208" y1="45.5693" x2="86.8208" y2="31.1693"/>
	<line class="st11" x1="81.7808" y1="31.1693" x2="81.7808" y2="45.5693"/>
	<line class="st11" x1="86.8208" y1="31.1693" x2="81.7808" y2="31.1693"/>
	<line class="st11" x1="86.8208" y1="45.5693" x2="81.7808" y2="45.5693"/>
	<g class="st7">
		<path class="st12" d="M93.3691,34.274c1.3193,0,2.0391,0.5596,2.0391,1.4092c0,0.4795-0.25,0.9692-0.6592,1.2793
			c-0.3105,0.2397-0.6396,0.3599-1.3096,0.5098l0.8896,2.3486c0.2197,0.5898,0.4199,0.8193,0.8691,0.8193v0.1602h-1.4688
			l-1.2295-3.2383l-0.6602-0.0498L91.29,39.5411c-0.1094,0.3896-0.1299,0.5298-0.1299,0.6294c0,0.3003,0.1006,0.4102,0.6699,0.4697
			v0.1602h-2.4287v-0.1602c0.5498-0.0698,0.6895-0.2598,0.8496-0.8491l1.1895-4.3076c0.0703-0.27,0.1201-0.46,0.1201-0.6299
			c0-0.1099-0.0703-0.23-0.1396-0.2798c-0.1104-0.0698-0.1504-0.0801-0.5703-0.1401V34.274H93.3691z M91.9599,37.1421
			c0.25,0.04,0.3301,0.0503,0.5098,0.0503c1.1895,0,1.8887-0.5698,1.8887-1.4995c0-0.6895-0.4189-1.1191-1.1992-1.1191
			c-0.3096,0-0.5195,0.1099-0.5693,0.2998L91.9599,37.1421z"/>
		<path class="st12" d="M96.1073,41.1343c0.1396-0.3438,0.2744-0.542,0.4785-0.6992c0.2266-0.1748,0.4775-0.2451,0.7461-0.2451
			c0.5596,0,0.9443,0.4316,0.9443,0.9854c0,0.3906-0.1807,0.6587-0.8691,1.3638l-1.0957,1.1191v0.0293h1.0547
			c0.3447,0,0.4609-0.0874,0.6006-0.3789l0.0996,0.0405l-0.292,0.7812h-2.0635v-0.0991l1.2246-1.3057
			c0.3848-0.4082,0.6465-0.7754,0.7871-1.0898c0.0342-0.0757,0.0518-0.1865,0.0518-0.3149c0-0.4023-0.2324-0.7051-0.6934-0.7051
			c-0.3496,0-0.6475,0.1689-0.8506,0.5596L96.1073,41.1343z"/>
	</g>
	<g class="st7">
		<path class="st13" d="M93.3691,16.7154c-0.5596,0.0703-0.6494,0.1602-0.8193,0.77l-1.1992,4.2876
			c-0.0898,0.3198-0.1504,0.5596-0.1504,0.7593c0,0.2798,0.1201,0.3198,0.6904,0.3896v0.1602h-2.4395v-0.1602
			c0.5498-0.0996,0.6904-0.1895,0.8398-0.7495l1.1992-4.4072c0.0703-0.25,0.1299-0.46,0.1299-0.6196
			c0-0.25-0.1602-0.3999-0.7197-0.4302v-0.1597h2.4688V16.7154z"/>
		<path class="st13" d="M93.328,23.4161c0.1396-0.3438,0.2734-0.542,0.4775-0.6992c0.2275-0.1748,0.4785-0.2451,0.7461-0.2451
			c0.5596,0,0.9443,0.4316,0.9443,0.9854c0,0.3906-0.1807,0.6587-0.8682,1.3638L93.5322,25.94v0.0293h1.0547
			c0.3438,0,0.4609-0.0874,0.6006-0.3789l0.0986,0.0405l-0.291,0.7812h-2.0635V26.313l1.2236-1.3057
			c0.3848-0.4082,0.6475-0.7754,0.7871-1.0898c0.0352-0.0757,0.0527-0.1865,0.0527-0.3149c0-0.4023-0.2334-0.7051-0.6934-0.7051
			c-0.3506,0-0.6475,0.1689-0.8516,0.5596L93.328,23.4161z"/>
	</g>
	<line class="st9" x1="84.3008" y1="12.573" x2="28.4665" y2="12.573"/>
	<line class="st14" x1="83.9512" y1="63.665" x2="28.4665" y2="63.665"/>
	<g>
		<g>
			<line class="st15" x1="28.4665" y1="18.0209" x2="28.4665" y2="58.1143"/>
			<g>
				<polygon points="26.6997,56.6829 27.0161,56.3882 28.4661,57.9485 29.9165,56.3882 30.2329,56.6829 28.4661,58.5828 				"/>
			</g>
		</g>
	</g>
	<g class="st7">
		<path d="M37.8798,34.9639c-0.2295,0.0103-0.3896,0.1304-0.5596,0.3999l-3.7285,6.1465h-0.1895l-0.8193-5.0269
			c-0.2305-1.3994-0.2598-1.4492-0.8193-1.5195v-0.1597h2.3984v0.1597c-0.6299,0.0703-0.7598,0.1699-0.7598,0.5098
			c0,0.0503,0,0.1001,0.0098,0.1499l0.6494,4.4277l2.0996-3.5981c0.3096-0.5298,0.4893-0.9595,0.4893-1.1494
			s-0.1699-0.2896-0.6191-0.3398v-0.1597h1.8486V34.9639z"/>
	</g>
	<g>
		<g>
			<line class="st16" x1="58.6815" y1="20.85" x2="58.6815" y2="15.2106"/>
			<g>
				<path class="st13" d="M60.6014,18.1162c-0.093-0.0594-0.2168-0.0319-0.2762,0.0613l-1.6437,2.5811l-1.6437-2.5811
					c-0.0594-0.0932-0.1832-0.1207-0.2762-0.0613c-0.093,0.0594-0.1199,0.1838-0.0613,0.2762l1.8125,2.8459
					c0.0367,0.0576,0.1004,0.0926,0.1688,0.0926s0.132-0.035,0.1687-0.0926l1.8125-2.8459
					c0.0211-0.0332,0.0312-0.0705,0.0312-0.1072C60.694,18.2192,60.6612,18.1545,60.6014,18.1162z"/>
			</g>
		</g>
	</g>
	<g>
		<g>
			<line class="st16" x1="84.3009" y1="20.85" x2="84.3009" y2="15.2106"/>
			<g>
				<path class="st13" d="M86.2208,18.1162c-0.093-0.0594-0.2168-0.0319-0.2762,0.0613l-1.6437,2.5811l-1.6438-2.5811
					c-0.0594-0.0932-0.1832-0.1207-0.2762-0.0613c-0.093,0.0594-0.1199,0.1838-0.0613,0.2762l1.8125,2.8459
					c0.0367,0.0576,0.1004,0.0926,0.1688,0.0926s0.132-0.035,0.1687-0.0926l1.8125-2.8459
					c0.0211-0.0332,0.0312-0.0705,0.0312-0.1072C86.3133,18.2192,86.2805,18.1545,86.2208,18.1162z"/>
			</g>
		</g>
	</g>
	<g class="st7">
		<path class="st13" d="M67.7499,17.0596c-0.5596,0.0703-0.6494,0.1602-0.8193,0.77l-1.2002,4.2876
			c-0.0898,0.3198-0.1494,0.5596-0.1494,0.7593c0,0.2798,0.1201,0.3198,0.6895,0.3896v0.1602H63.832v-0.1602
			c0.5498-0.0996,0.6894-0.1895,0.8398-0.7495l1.1992-4.4072c0.0693-0.25,0.1299-0.46,0.1299-0.6196
			c0-0.25-0.1602-0.3999-0.7197-0.4302v-0.1597h2.4688V17.0596z"/>
		<path class="st13" d="M69.5966,22.816c0.0176,0,0.0293,0.0176,0.0293,0.041c0,0.0293-0.0117,0.0874-0.0352,0.1689l-0.833,3.0254
			c-0.041,0.1455-0.1055,0.373-0.1055,0.4312c0,0.1343,0.1289,0.1865,0.3848,0.1865h0.1221v0.0874h-1.626V26.669
			c0.4609-0.0352,0.5889-0.0991,0.6533-0.3208l0.792-2.8442c0.0293-0.1108,0.0469-0.1689,0.0469-0.21
			c0-0.1108-0.0752-0.1807-0.2041-0.1807h-0.0176c-0.1045,0-0.2324,0.0059-0.3438,0.0117v-0.0874l0.1348-0.0293
			c0.5127-0.1108,0.5361-0.0991,0.9844-0.1924H69.5966z"/>
	</g>
	<g>
	</g>
	<g>
	</g>
</g>
</svg>
