<?xml version="1.0" encoding="utf-8"?>
<!-- Generator: Adobe Illustrator 26.0.0, SVG Export Plug-In . SVG Version: 6.00 Build 0)  -->
<svg version="1.1" xmlns="http://www.w3.org/2000/svg" xmlns:xlink="http://www.w3.org/1999/xlink" x="0px" y="0px"
	 viewBox="0 0 97.4724 66.1841" style="enable-background:new 0 0 97.4724 66.1841;" xml:space="preserve">
<style type="text/css">
	.st0{opacity:0.5;}
	.st1{opacity:0.25;clip-path:url(#SVGID_00000108298668092440218910000013968924863277229727_);}
	.st2{fill:none;stroke:#00ABEB;stroke-width:0.2111;stroke-miterlimit:10;}
	.st3{fill:none;stroke:#00ABEB;stroke-width:0.4221;stroke-miterlimit:10;}
	.st4{fill:none;stroke:#00ABEB;stroke-width:0.9849;stroke-miterlimit:10;}
	.st5{fill:none;stroke:#C90D0C;stroke-width:0.432;stroke-linecap:round;stroke-miterlimit:11.3386;}
	.st6{fill:none;stroke:#C90D0C;stroke-width:0.72;stroke-linecap:round;stroke-miterlimit:11.3386;}
	.st7{enable-background:new    ;}
	.st8{fill:#808080;}
	.st9{fill:none;stroke:#00B200;stroke-width:0.4;stroke-linecap:round;stroke-linejoin:round;stroke-miterlimit:11.3386;}
	.st10{fill:none;stroke:#C90D0C;stroke-width:0.4;stroke-linecap:round;stroke-miterlimit:11.3386;}
	.st11{fill:none;stroke:#C90D0C;stroke-width:0.7;stroke-linecap:round;stroke-miterlimit:11.3386;}
	.st12{fill:#C90D0C;}
	.st13{fill:#00B200;}
	.st14{fill:none;stroke:#00B200;stroke-width:0.4;stroke-miterlimit:11.3386;}
	.st15{fill:none;stroke:#000000;stroke-width:0.432;stroke-linecap:round;stroke-linejoin:round;}
	.st16{fill:none;stroke:#00B200;stroke-width:0.4;stroke-linecap:round;stroke-linejoin:round;}
</style>
<g id="Graph_paper" class="st0">
	<g id="Clipped_grid">
		<defs>
			<rect id="SVGID_1_" x="-279.8368" y="-48.6449" width="499.7099" height="213.594"/>
		</defs>
		<clipPath id="SVGID_00000152966563169298889420000014472191034914392970_">
			<use xlink:href="#SVGID_1_"  style="overflow:visible;"/>
		</clipPath>
		
			<g id="Grid_00000060005542146034257920000005065612243763103930_" style="opacity:0.25;clip-path:url(#SVGID_00000152966563169298889420000014472191034914392970_);">
			<g id="Horizontal_1_mm">
				<line class="st2" x1="-302.4229" y1="-133.3448" x2="499.5359" y2="-133.3448"/>
				<line class="st2" x1="-302.4229" y1="-143.3674" x2="499.5359" y2="-143.3674"/>
				<line class="st2" x1="-302.4229" y1="457.9196" x2="499.5359" y2="457.9196"/>
				<line class="st2" x1="-302.4229" y1="447.8969" x2="499.5359" y2="447.8969"/>
				<line class="st2" x1="-302.4229" y1="437.8778" x2="499.5359" y2="437.8778"/>
				<line class="st2" x1="-302.4229" y1="427.8554" x2="499.5359" y2="427.8554"/>
				<line class="st2" x1="-302.4229" y1="417.8328" x2="499.5359" y2="417.8328"/>
				<line class="st2" x1="-302.4229" y1="407.8136" x2="499.5359" y2="407.8136"/>
				<line class="st2" x1="-302.4229" y1="397.7913" x2="499.5359" y2="397.7913"/>
				<line class="st2" x1="-302.4229" y1="387.7722" x2="499.5359" y2="387.7722"/>
				<line class="st2" x1="-302.4229" y1="377.7477" x2="499.5359" y2="377.7477"/>
				<line class="st2" x1="-302.4229" y1="367.7254" x2="499.5359" y2="367.7254"/>
				<line class="st2" x1="-302.4229" y1="357.7062" x2="499.5359" y2="357.7062"/>
				<line class="st2" x1="-302.4229" y1="347.6836" x2="499.5359" y2="347.6836"/>
				<line class="st2" x1="-302.4229" y1="337.6612" x2="499.5359" y2="337.6612"/>
				<line class="st2" x1="-302.4229" y1="327.6421" x2="499.5359" y2="327.6421"/>
				<line class="st2" x1="-302.4229" y1="317.6194" x2="499.5359" y2="317.6194"/>
				<line class="st2" x1="-302.4229" y1="307.5971" x2="499.5359" y2="307.5971"/>
				<line class="st2" x1="-302.4229" y1="297.5779" x2="499.5359" y2="297.5779"/>
				<line class="st2" x1="-302.4229" y1="287.5553" x2="499.5359" y2="287.5553"/>
				<line class="st2" x1="-302.4229" y1="277.5326" x2="499.5359" y2="277.5326"/>
				<line class="st2" x1="-302.4229" y1="267.5138" x2="499.5359" y2="267.5138"/>
				<line class="st2" x1="-302.4229" y1="257.4911" x2="499.5359" y2="257.4911"/>
				<line class="st2" x1="-302.4229" y1="247.467" x2="499.5359" y2="247.467"/>
				<line class="st2" x1="-302.4229" y1="237.4479" x2="499.5359" y2="237.4479"/>
				<line class="st2" x1="-302.4229" y1="227.4252" x2="499.5359" y2="227.4252"/>
				<line class="st2" x1="-302.4229" y1="217.4061" x2="499.5359" y2="217.4061"/>
				<line class="st2" x1="-302.4229" y1="207.3837" x2="499.5359" y2="207.3837"/>
				<line class="st2" x1="-302.4229" y1="197.361" x2="499.5359" y2="197.361"/>
				<line class="st2" x1="-302.4229" y1="187.3419" x2="499.5359" y2="187.3419"/>
				<line class="st2" x1="-302.4229" y1="177.3196" x2="499.5359" y2="177.3196"/>
				<line class="st2" x1="-302.4229" y1="167.2969" x2="499.5359" y2="167.2969"/>
				<line class="st2" x1="-302.4229" y1="157.2777" x2="499.5359" y2="157.2777"/>
				<line class="st2" x1="-302.4229" y1="147.2554" x2="499.5359" y2="147.2554"/>
				<line class="st2" x1="-302.4229" y1="137.2327" x2="499.5359" y2="137.2327"/>
				<line class="st2" x1="-302.4229" y1="127.2136" x2="499.5359" y2="127.2136"/>
				<line class="st2" x1="-302.4229" y1="117.1909" x2="499.5359" y2="117.1909"/>
				<line class="st2" x1="-302.4229" y1="107.1686" x2="499.5359" y2="107.1686"/>
				<line class="st2" x1="-302.4229" y1="97.1495" x2="499.5359" y2="97.1495"/>
				<line class="st2" x1="-302.4229" y1="87.1268" x2="499.5359" y2="87.1268"/>
				<line class="st2" x1="-302.4229" y1="77.1044" x2="499.5359" y2="77.1044"/>
				<line class="st2" x1="-302.4229" y1="67.0853" x2="499.5359" y2="67.0853"/>
				<line class="st2" x1="-302.4229" y1="57.0609" x2="499.5359" y2="57.0609"/>
				<line class="st2" x1="-302.4229" y1="47.0421" x2="499.5359" y2="47.0421"/>
				<line class="st2" x1="-302.4229" y1="37.0194" x2="499.5359" y2="37.0194"/>
				<line class="st2" x1="-302.4229" y1="26.9967" x2="499.5359" y2="26.9967"/>
				<line class="st2" x1="-302.4229" y1="16.9779" x2="499.5359" y2="16.9779"/>
				<line class="st2" x1="-302.4229" y1="6.9552" x2="499.5359" y2="6.9552"/>
				<line class="st2" x1="-302.4229" y1="-3.0674" x2="499.5359" y2="-3.0674"/>
				<line class="st2" x1="-302.4229" y1="-13.0866" x2="499.5359" y2="-13.0866"/>
				<line class="st2" x1="-302.4229" y1="-23.1089" x2="499.5359" y2="-23.1089"/>
				<line class="st2" x1="-302.4229" y1="-33.1316" x2="499.5359" y2="-33.1316"/>
				<line class="st2" x1="-302.4229" y1="-43.1507" x2="499.5359" y2="-43.1507"/>
				<line class="st2" x1="-302.4229" y1="-53.1731" x2="499.5359" y2="-53.1731"/>
				<line class="st2" x1="-302.4229" y1="-63.1957" x2="499.5359" y2="-63.1957"/>
				<line class="st2" x1="-302.4229" y1="-73.2149" x2="499.5359" y2="-73.2149"/>
				<line class="st2" x1="-302.4229" y1="-83.239" x2="499.5359" y2="-83.239"/>
				<line class="st2" x1="-302.4229" y1="-93.2581" x2="499.5359" y2="-93.2581"/>
				<line class="st2" x1="-302.4229" y1="-103.2808" x2="499.5359" y2="-103.2808"/>
				<line class="st2" x1="-302.4229" y1="-113.3032" x2="499.5359" y2="-113.3032"/>
				<line class="st2" x1="-302.4229" y1="-123.3223" x2="499.5359" y2="-123.3223"/>
			</g>
			<g id="Vertical_1_mm">
				<g>
					<line class="st2" x1="-302.157" y1="457.8708" x2="-302.157" y2="-143.6332"/>
				</g>
				<line class="st2" x1="-292.1379" y1="457.8708" x2="-292.1379" y2="-143.6332"/>
				<line class="st2" x1="-282.1154" y1="457.8708" x2="-282.1154" y2="-143.6332"/>
				<line class="st2" x1="-272.0929" y1="457.8708" x2="-272.0929" y2="-143.6332"/>
				<line class="st2" x1="-262.0739" y1="457.8708" x2="-262.0739" y2="-143.6332"/>
				<line class="st2" x1="-252.0512" y1="457.8708" x2="-252.0512" y2="-143.6332"/>
				<line class="st2" x1="-242.0285" y1="457.8708" x2="-242.0285" y2="-143.6332"/>
				<line class="st2" x1="-232.0097" y1="457.8708" x2="-232.0097" y2="-143.6332"/>
				<line class="st2" x1="-221.9853" y1="457.8708" x2="-221.9853" y2="-143.6332"/>
				<line class="st2" x1="-211.9662" y1="457.8708" x2="-211.9662" y2="-143.6332"/>
				<line class="st2" x1="-201.9438" y1="457.8708" x2="-201.9438" y2="-143.6332"/>
				<line class="st2" x1="-191.9211" y1="457.8708" x2="-191.9211" y2="-143.6332"/>
				<line class="st2" x1="-181.902" y1="457.8708" x2="-181.902" y2="-143.6332"/>
				<line class="st2" x1="-171.8797" y1="457.8708" x2="-171.8797" y2="-143.6332"/>
				<line class="st2" x1="-161.857" y1="457.8708" x2="-161.857" y2="-143.6332"/>
				<line class="st2" x1="-151.8378" y1="457.8708" x2="-151.8378" y2="-143.6332"/>
				<line class="st2" x1="-141.8152" y1="457.8708" x2="-141.8152" y2="-143.6332"/>
				<line class="st2" x1="-131.7928" y1="457.8708" x2="-131.7928" y2="-143.6332"/>
				<line class="st2" x1="-121.7737" y1="457.8708" x2="-121.7737" y2="-143.6332"/>
				<line class="st2" x1="-111.751" y1="457.8708" x2="-111.751" y2="-143.6332"/>
				<line class="st2" x1="-101.7287" y1="457.8708" x2="-101.7287" y2="-143.6332"/>
				<line class="st2" x1="-91.7096" y1="457.8708" x2="-91.7096" y2="-143.6332"/>
				<line class="st2" x1="-81.6869" y1="457.8708" x2="-81.6869" y2="-143.6332"/>
				<line class="st2" x1="-71.6646" y1="457.8708" x2="-71.6646" y2="-143.6332"/>
				<line class="st2" x1="-61.6436" y1="457.8708" x2="-61.6436" y2="-143.6332"/>
				<line class="st2" x1="-51.621" y1="457.8708" x2="-51.621" y2="-143.6332"/>
				<line class="st2" x1="-41.6022" y1="457.8708" x2="-41.6022" y2="-143.6332"/>
				<line class="st2" x1="-31.5795" y1="457.8708" x2="-31.5795" y2="-143.6332"/>
				<line class="st2" x1="-21.5568" y1="457.8708" x2="-21.5568" y2="-143.6332"/>
				<line class="st2" x1="-11.538" y1="457.8708" x2="-11.538" y2="-143.6332"/>
				<line class="st2" x1="-1.5153" y1="457.8708" x2="-1.5153" y2="-143.6332"/>
				<line class="st2" x1="8.5073" y1="457.8708" x2="8.5073" y2="-143.6332"/>
				<line class="st2" x1="18.5265" y1="457.8708" x2="18.5265" y2="-143.6332"/>
				<line class="st2" x1="28.5488" y1="457.8708" x2="28.5488" y2="-143.6332"/>
				<line class="st2" x1="38.5715" y1="457.8708" x2="38.5715" y2="-143.6332"/>
				<line class="st2" x1="48.5906" y1="457.8708" x2="48.5906" y2="-143.6332"/>
				<line class="st2" x1="58.613" y1="457.8708" x2="58.613" y2="-143.6332"/>
				<line class="st2" x1="68.6356" y1="457.8708" x2="68.6356" y2="-143.6332"/>
				<line class="st2" x1="78.6548" y1="457.8708" x2="78.6548" y2="-143.6332"/>
				<line class="st2" x1="88.6771" y1="457.8708" x2="88.6771" y2="-143.6332"/>
				<line class="st2" x1="98.6962" y1="457.8708" x2="98.6962" y2="-143.6332"/>
				<line class="st2" x1="108.7207" y1="457.8708" x2="108.7207" y2="-143.6332"/>
				<line class="st2" x1="118.743" y1="457.8708" x2="118.743" y2="-143.6332"/>
				<line class="st2" x1="128.7622" y1="457.8708" x2="128.7622" y2="-143.6332"/>
				<line class="st2" x1="138.7848" y1="457.8708" x2="138.7848" y2="-143.6332"/>
				<line class="st2" x1="148.8072" y1="457.8708" x2="148.8072" y2="-143.6332"/>
				<line class="st2" x1="158.8263" y1="457.8708" x2="158.8263" y2="-143.6332"/>
				<line class="st2" x1="168.849" y1="457.8708" x2="168.849" y2="-143.6332"/>
				<line class="st2" x1="178.8713" y1="457.8708" x2="178.8713" y2="-143.6332"/>
				<line class="st2" x1="188.8905" y1="457.8708" x2="188.8905" y2="-143.6332"/>
				<line class="st2" x1="198.9131" y1="457.8708" x2="198.9131" y2="-143.6332"/>
				<line class="st2" x1="208.9355" y1="457.8708" x2="208.9355" y2="-143.6332"/>
				<line class="st2" x1="218.9546" y1="457.8708" x2="218.9546" y2="-143.6332"/>
				<line class="st2" x1="228.9773" y1="457.8708" x2="228.9773" y2="-143.6332"/>
				<line class="st2" x1="238.9996" y1="457.8708" x2="238.9996" y2="-143.6332"/>
				<line class="st2" x1="249.0188" y1="457.8708" x2="249.0188" y2="-143.6332"/>
				<line class="st2" x1="259.0432" y1="457.8708" x2="259.0432" y2="-143.6332"/>
				<line class="st2" x1="269.0623" y1="457.8708" x2="269.0623" y2="-143.6332"/>
				<line class="st2" x1="279.0847" y1="457.8708" x2="279.0847" y2="-143.6332"/>
				<line class="st2" x1="289.1074" y1="457.8708" x2="289.1074" y2="-143.6332"/>
				<line class="st2" x1="299.1265" y1="457.8708" x2="299.1265" y2="-143.6332"/>
				<line class="st2" x1="309.1488" y1="457.8708" x2="309.1488" y2="-143.6332"/>
				<line class="st2" x1="319.1715" y1="457.8708" x2="319.1715" y2="-143.6332"/>
				<line class="st2" x1="329.1906" y1="457.8708" x2="329.1906" y2="-143.6332"/>
				<line class="st2" x1="339.213" y1="457.8708" x2="339.213" y2="-143.6332"/>
				<line class="st2" x1="349.2357" y1="457.8708" x2="349.2357" y2="-143.6332"/>
				<line class="st2" x1="359.2548" y1="457.8708" x2="359.2548" y2="-143.6332"/>
				<line class="st2" x1="369.2771" y1="457.8708" x2="369.2771" y2="-143.6332"/>
				<line class="st2" x1="379.2998" y1="457.8708" x2="379.2998" y2="-143.6332"/>
				<line class="st2" x1="389.3189" y1="457.8708" x2="389.3189" y2="-143.6332"/>
				<line class="st2" x1="399.3416" y1="457.8708" x2="399.3416" y2="-143.6332"/>
				<line class="st2" x1="409.364" y1="457.8708" x2="409.364" y2="-143.6332"/>
				<line class="st2" x1="419.3849" y1="457.8708" x2="419.3849" y2="-143.6332"/>
				<line class="st2" x1="429.4072" y1="457.8708" x2="429.4072" y2="-143.6332"/>
				<line class="st2" x1="439.4263" y1="457.8708" x2="439.4263" y2="-143.6332"/>
				<line class="st2" x1="449.449" y1="457.8708" x2="449.449" y2="-143.6332"/>
				<line class="st2" x1="459.4717" y1="457.8708" x2="459.4717" y2="-143.6332"/>
				<line class="st2" x1="469.4905" y1="457.8708" x2="469.4905" y2="-143.6332"/>
				<line class="st2" x1="479.5132" y1="457.8708" x2="479.5132" y2="-143.6332"/>
				<line class="st2" x1="489.5358" y1="457.8708" x2="489.5358" y2="-143.6332"/>
				<line class="st2" x1="499.5546" y1="457.8708" x2="499.5546" y2="-143.6332"/>
			</g>
			<g id="Horizontal_5_mm_1_">
				<line class="st3" x1="-303.3947" y1="457.9196" x2="499.5359" y2="457.9196"/>
				<line class="st3" x1="-303.3947" y1="407.8136" x2="499.5359" y2="407.8136"/>
				<line class="st3" x1="-303.3947" y1="357.7062" x2="499.5359" y2="357.7062"/>
				<line class="st3" x1="-303.3947" y1="307.5971" x2="499.5359" y2="307.5971"/>
				<line class="st3" x1="-303.3947" y1="257.4911" x2="499.5359" y2="257.4911"/>
				<line class="st3" x1="-303.3947" y1="207.3837" x2="499.5359" y2="207.3837"/>
				<line class="st3" x1="-303.3947" y1="157.2777" x2="499.5359" y2="157.2777"/>
				<line class="st3" x1="-303.3947" y1="107.1686" x2="499.5359" y2="107.1686"/>
				<line class="st3" x1="-303.3947" y1="57.0609" x2="499.5359" y2="57.0609"/>
				<line class="st3" x1="-303.3947" y1="6.9552" x2="499.5359" y2="6.9552"/>
				<line class="st3" x1="-303.3947" y1="-43.1507" x2="499.5359" y2="-43.1507"/>
			</g>
			<g id="Vertical_5_mm">
				<line class="st3" x1="-302.157" y1="457.8708" x2="-302.157" y2="-144.6051"/>
				<line class="st3" x1="-252.0512" y1="457.8708" x2="-252.0512" y2="-144.6051"/>
				<line class="st3" x1="-201.9438" y1="457.8708" x2="-201.9438" y2="-144.6051"/>
				<line class="st3" x1="-151.8378" y1="457.8708" x2="-151.8378" y2="-144.6051"/>
				<line class="st3" x1="-101.7287" y1="457.8708" x2="-101.7287" y2="-144.6051"/>
				<line class="st3" x1="-51.621" y1="457.8708" x2="-51.621" y2="-144.6051"/>
				<line class="st3" x1="-1.5153" y1="457.8708" x2="-1.5153" y2="-144.6051"/>
				<line class="st3" x1="48.5906" y1="457.8708" x2="48.5906" y2="-144.6051"/>
				<line class="st3" x1="98.6962" y1="457.8708" x2="98.6962" y2="-144.6051"/>
				<line class="st3" x1="148.8072" y1="457.8708" x2="148.8072" y2="-144.6051"/>
				<line class="st3" x1="198.9131" y1="457.8708" x2="198.9131" y2="-144.6051"/>
				<line class="st3" x1="249.0188" y1="457.8708" x2="249.0188" y2="-144.6051"/>
				<line class="st3" x1="299.1265" y1="457.8708" x2="299.1265" y2="-144.6051"/>
				<line class="st3" x1="349.2357" y1="457.8708" x2="349.2357" y2="-144.6051"/>
				<line class="st3" x1="399.3416" y1="457.8708" x2="399.3416" y2="-144.6051"/>
				<line class="st3" x1="449.449" y1="457.8708" x2="449.449" y2="-144.6051"/>
				<line class="st3" x1="499.5546" y1="457.8708" x2="499.5546" y2="-144.6051"/>
			</g>
			<g id="Horizontal_10_mm">
				<line id="_x31_9_1_" class="st4" x1="-303.3947" y1="457.9196" x2="499.5359" y2="457.9196"/>
				<line id="_x32_0" class="st4" x1="-303.3947" y1="357.7062" x2="499.5359" y2="357.7062"/>
				<line id="_x32_1" class="st4" x1="-303.3947" y1="257.4911" x2="499.5359" y2="257.4911"/>
				<line id="_x32_2" class="st4" x1="-303.3947" y1="157.2777" x2="499.5359" y2="157.2777"/>
				<line id="_x32_3" class="st4" x1="-303.3947" y1="57.0609" x2="499.5359" y2="57.0609"/>
				<line id="_x32_4" class="st4" x1="-303.3947" y1="-43.1507" x2="499.5359" y2="-43.1507"/>
				<line id="_x32_5" class="st4" x1="-303.3947" y1="-143.3674" x2="499.5359" y2="-143.3674"/>
			</g>
			<g id="Vertical_10_mm">
				<line id="_x30_" class="st4" x1="-302.157" y1="457.8708" x2="-302.157" y2="-144.6051"/>
				<line id="_x31_" class="st4" x1="-201.9438" y1="457.8708" x2="-201.9438" y2="-144.6051"/>
				<line id="_x32_" class="st4" x1="-101.7287" y1="457.8708" x2="-101.7287" y2="-144.6051"/>
				<line id="_x33_" class="st4" x1="-1.5153" y1="457.8708" x2="-1.5153" y2="-144.6051"/>
				<line id="_x34_" class="st4" x1="98.6962" y1="457.8708" x2="98.6962" y2="-144.6051"/>
				<line id="_x35_" class="st4" x1="198.9131" y1="457.8708" x2="198.9131" y2="-144.6051"/>
				<line id="_x36_" class="st4" x1="299.1265" y1="457.8708" x2="299.1265" y2="-144.6051"/>
				<line id="_x37_" class="st4" x1="399.3416" y1="457.8708" x2="399.3416" y2="-144.6051"/>
				<line id="_x38_" class="st4" x1="499.5546" y1="457.8708" x2="499.5546" y2="-144.6051"/>
			</g>
		</g>
	</g>
</g>
<g id="Layer_4">
	<g>
		<line class="st5" x1="-96.7497" y1="-25.0076" x2="-89.5497" y2="-25.0076"/>
		<line class="st5" x1="-67.9497" y1="-25.0076" x2="-75.1497" y2="-25.0076"/>
		<line class="st6" x1="-89.5497" y1="-22.4876" x2="-75.1497" y2="-22.4876"/>
		<line class="st6" x1="-75.1497" y1="-27.5276" x2="-89.5497" y2="-27.5276"/>
		<line class="st6" x1="-75.1497" y1="-22.4876" x2="-75.1497" y2="-27.5276"/>
		<line class="st6" x1="-89.5497" y1="-22.4876" x2="-89.5497" y2="-27.5276"/>
		<g class="st7">
			<path class="st8" d="M-92.7138-29.2546v-3.9688h1.7593c0.354,0,0.6226,0.0361,0.8066,0.1069
				c0.1841,0.0718,0.3311,0.1973,0.4414,0.3779c0.1099,0.1807,0.165,0.3799,0.165,0.5981c0,0.2817-0.0913,0.519-0.2734,0.7119
				c-0.1821,0.1934-0.4639,0.3159-0.8447,0.3682c0.1392,0.0669,0.2446,0.1328,0.3169,0.1978
				c0.1533,0.1406,0.2988,0.3169,0.436,0.5278l0.6899,1.0801h-0.6602l-0.5254-0.8257c-0.1533-0.2383-0.2798-0.4204-0.3789-0.5469
				c-0.0991-0.126-0.188-0.2148-0.2666-0.2651c-0.0786-0.0508-0.1582-0.0859-0.2397-0.1055c-0.0596-0.0127-0.1567-0.019-0.292-0.019
				h-0.6094v1.7622H-92.7138z M-92.1889-31.4719h1.1289c0.2397,0,0.4277-0.0244,0.563-0.0742s0.2383-0.1289,0.3086-0.2383
				c0.0703-0.1089,0.1055-0.2275,0.1055-0.356c0-0.1875-0.0679-0.3418-0.2041-0.4629s-0.3516-0.1812-0.6455-0.1812h-1.2563V-31.4719
				z"/>
			<path class="st8" d="M-86.3549-29.7229v0.4683h-2.623c-0.0039-0.1172,0.0151-0.23,0.0566-0.3384
				c0.0669-0.1787,0.1738-0.3545,0.3208-0.5278s0.3599-0.3735,0.6377-0.6011c0.4312-0.3535,0.7227-0.6338,0.874-0.8403
				c0.1519-0.2065,0.2275-0.4023,0.2275-0.5864c0-0.1929-0.0688-0.356-0.207-0.4883c-0.1382-0.1328-0.3179-0.1992-0.54-0.1992
				c-0.2349,0-0.4224,0.0703-0.563,0.2114c-0.1406,0.1406-0.2119,0.3354-0.2139,0.5845l-0.501-0.0513
				c0.0342-0.3735,0.1636-0.6582,0.3872-0.854s0.5244-0.2939,0.9014-0.2939c0.3809,0,0.6821,0.1055,0.9043,0.3169
				c0.2217,0.2109,0.333,0.4727,0.333,0.7852c0,0.1587-0.0327,0.3149-0.0977,0.4683s-0.1729,0.3149-0.3232,0.4844
				c-0.1509,0.1699-0.4014,0.4023-0.7515,0.6982c-0.2925,0.2456-0.48,0.4121-0.563,0.4995
				c-0.083,0.0879-0.1514,0.1758-0.2056,0.2642H-86.3549z"/>
		</g>
	</g>
	<line class="st9" x1="54.319" y1="51.665" x2="54.319" y2="62.5607"/>
	<line class="st9" x1="54.319" y1="11.4687" x2="54.319" y2="22.865"/>
	<line class="st10" x1="54.319" y1="51.665" x2="54.319" y2="44.465"/>
	<line class="st10" x1="54.319" y1="22.865" x2="54.319" y2="30.065"/>
	<line class="st11" x1="56.839" y1="44.465" x2="56.839" y2="30.065"/>
	<line class="st11" x1="51.799" y1="30.065" x2="51.799" y2="44.465"/>
	<line class="st11" x1="56.839" y1="30.065" x2="51.799" y2="30.065"/>
	<line class="st11" x1="56.839" y1="44.465" x2="51.799" y2="44.465"/>
	<g class="st7">
		<path class="st12" d="M63.3872,33.1697c1.3193,0,2.0391,0.5596,2.0391,1.4092c0,0.4795-0.25,0.9692-0.6592,1.2793
			c-0.3105,0.2397-0.6396,0.3599-1.3096,0.5098l0.8897,2.3486c0.2197,0.5898,0.4199,0.8193,0.8691,0.8193v0.1602h-1.4688
			l-1.2295-3.2383l-0.6602-0.0498l-0.5498,2.0288c-0.1094,0.3896-0.1299,0.5298-0.1299,0.6294c0,0.3003,0.1006,0.4102,0.6699,0.4697
			v0.1602h-2.4287v-0.1602c0.5498-0.0698,0.6895-0.2598,0.8496-0.8491l1.1895-4.3076c0.0703-0.27,0.1201-0.46,0.1201-0.6299
			c0-0.1099-0.0703-0.23-0.1396-0.2798c-0.1104-0.0698-0.1504-0.0801-0.5703-0.1401v-0.1597H63.3872z M61.9781,36.0378
			c0.25,0.04,0.3301,0.0503,0.5098,0.0503c1.1895,0,1.8887-0.5698,1.8887-1.4995c0-0.6895-0.4189-1.1191-1.1992-1.1191
			c-0.3096,0-0.5195,0.1099-0.5693,0.2998L61.9781,36.0378z"/>
		<path class="st12" d="M66.5191,36.4978v-0.6597h5.0371v0.6597H66.5191z M66.5191,38.4968v-0.6597h5.0371v0.6597H66.5191z"/>
		<path class="st12" d="M73.5884,39.696v-0.1499c0.7402-0.04,0.9502-0.25,0.9502-0.7998V34.259
			c0-0.3398-0.0898-0.4897-0.2998-0.4897c-0.1006,0-0.2705,0.0498-0.4502,0.1201l-0.2695,0.0996v-0.1396l1.7891-0.9097L75.398,32.97
			v5.9663c0,0.4302,0.2002,0.6099,0.9492,0.6099v0.1499H73.5884z"/>
		<path class="st12" d="M79.9077,39.8362c-1.709,0-2.2588-1.8594-2.2588-3.4985c0-1.7686,0.6904-3.3979,2.2988-3.3979
			c1.3096,0,2.2188,1.4092,2.2188,3.458C82.1665,38.1169,81.5376,39.8362,79.9077,39.8362z M79.8882,33.1995
			c-0.8301,0-1.2793,1.1797-1.2793,3.2085s0.4395,3.168,1.2988,3.168c0.8496,0,1.2998-1.1494,1.2998-3.1279
			C81.2076,34.3689,80.7671,33.1995,79.8882,33.1995z"/>
		<path class="st12" d="M84.9077,39.8362c-1.709,0-2.2588-1.8594-2.2588-3.4985c0-1.7686,0.6904-3.3979,2.2988-3.3979
			c1.3096,0,2.2188,1.4092,2.2188,3.458C87.1665,38.1169,86.5376,39.8362,84.9077,39.8362z M84.8882,33.1995
			c-0.8301,0-1.2793,1.1797-1.2793,3.2085s0.4395,3.168,1.2988,3.168c0.8496,0,1.2998-1.1494,1.2998-3.1279
			C86.2076,34.3689,85.7671,33.1995,84.8882,33.1995z"/>
		<path class="st12" d="M91.6968,39.696l0.0703-1.6089c0.8496-0.21,1.4092-1.3096,1.4092-2.3789
			c0-1.4194-0.7393-2.4087-2.0488-2.4087c-1.3594,0-2.0488,1.2095-2.0488,2.4087c0,0.9795,0.5195,2.1289,1.3994,2.3789
			l0.0898,1.6089h-2.8682v-1.709h0.249c0.0107,0.6094,0.1807,0.7593,0.6201,0.7593h1.5088l-0.0195-0.3696
			c-1.3896-0.3896-2.1191-1.1992-2.1191-2.6484c0-1.3594,1.1699-2.7886,3.1885-2.7886c1.9785,0,3.1885,1.2993,3.1885,2.7886
			c0,1.459-0.7998,2.2686-2.1494,2.6484l-0.0195,0.3696h1.5391c0.4102,0,0.5996-0.2397,0.6191-0.7393h0.25v1.689H91.6968z"/>
	</g>
	<g class="st7">
		<path class="st13" d="M48.5161,2.4329c-0.5596,0.0703-0.6494,0.1602-0.8193,0.77l-1.1992,4.2876
			c-0.0898,0.3198-0.1504,0.5596-0.1504,0.7593c0,0.2798,0.1201,0.3198,0.6904,0.3896v0.1602h-2.4395V8.6394
			c0.5498-0.0996,0.6904-0.1895,0.8398-0.7495l1.1992-4.4072c0.0703-0.25,0.1299-0.46,0.1299-0.6196
			c0-0.25-0.1602-0.3999-0.7197-0.4302V2.2732h2.4688V2.4329z"/>
		<path class="st13" d="M48.8677,5.6013V4.9416h5.0381v0.6597H48.8677z M48.8677,7.6003V6.9407h5.0381v0.6597H48.8677z"/>
		<path class="st13" d="M58.7954,2.0432c0.0303,0,0.0508,0.0303,0.0508,0.0698c0,0.0503-0.0205,0.1499-0.0605,0.29l-1.4287,5.187
			c-0.0703,0.25-0.1807,0.6396-0.1807,0.7397c0,0.23,0.2207,0.3198,0.6602,0.3198h0.21v0.1499h-2.7891V8.6497
			c0.79-0.0601,1.0098-0.1699,1.1201-0.5498l1.3594-4.8774c0.0498-0.1895,0.0791-0.2896,0.0791-0.3594
			c0-0.1899-0.1299-0.3101-0.3496-0.3101H57.437c-0.1807,0-0.4004,0.0103-0.5898,0.02V2.4231l0.2295-0.0498
			c0.8799-0.1899,0.9199-0.1699,1.6895-0.3301H58.7954z"/>
		<path class="st13" d="M62.9468,8.7996V8.6394c0.6289-0.0298,0.7695-0.1895,0.7695-0.5293c0-0.0801-0.0107-0.1699-0.0205-0.2603
			l-0.2002-1.3091h-2.1982l-0.5898,1.1094c-0.1396,0.2598-0.2197,0.5-0.2197,0.6597c0,0.1899,0.1494,0.3101,0.6191,0.3296v0.1602
			h-1.8584V8.6394c0.46-0.0898,0.5898-0.2598,1.3389-1.5591l2.8486-4.957h0.2598l0.9199,5.5269
			c0.1396,0.8394,0.25,0.9497,0.7793,0.9893v0.1602H62.9468z M62.9966,3.5525l-1.4893,2.6284h1.9385L62.9966,3.5525z"/>
	</g>
	<line class="st9" x1="54.319" y1="11.4688" x2="29.3006" y2="11.4688"/>
	<line class="st14" x1="54.1623" y1="62.5608" x2="29.3006" y2="62.5608"/>
	<g>
		<g>
			<line class="st15" x1="29.3006" y1="15.1656" x2="29.3006" y2="59.9732"/>
			<g>
				<polygon points="27.5338,58.5418 27.8502,58.2471 29.3002,59.8074 30.7506,58.2471 31.067,58.5418 29.3002,60.4417 				"/>
			</g>
		</g>
	</g>
	<g class="st7">
		<path d="M27.5406,32.9612c-0.2295,0.0103-0.3896,0.1304-0.5596,0.3999l-3.7285,6.1465H23.063l-0.8193-5.0269
			c-0.2305-1.3994-0.2598-1.4492-0.8193-1.5195v-0.1597h2.3984v0.1597c-0.6299,0.0703-0.7598,0.1699-0.7598,0.5098
			c0,0.0503,0,0.1001,0.0098,0.1499l0.6494,4.4277l2.0996-3.5981c0.3096-0.5298,0.4893-0.9595,0.4893-1.1494
			s-0.1699-0.2896-0.6191-0.3398v-0.1597h1.8486V32.9612z"/>
	</g>
	<g>
		<g>
			<line class="st16" x1="43.2632" y1="11.4687" x2="37.6239" y2="11.4687"/>
			<g>
				<path class="st13" d="M40.5295,9.5488c-0.0594,0.093-0.0319,0.2168,0.0613,0.2762l2.5811,1.6438l-2.5811,1.6437
					c-0.0932,0.0594-0.1207,0.1832-0.0613,0.2762c0.0594,0.093,0.1838,0.1199,0.2762,0.0613l2.8459-1.8125
					c0.0576-0.0367,0.0926-0.1004,0.0926-0.1688s-0.0349-0.132-0.0926-0.1687l-2.8459-1.8125
					c-0.0332-0.0211-0.0705-0.0312-0.1072-0.0312C40.6324,9.4562,40.5678,9.489,40.5295,9.5488z"/>
			</g>
		</g>
	</g>
	<g>
	</g>
	<g>
	</g>
</g>
</svg>
