<?xml version="1.0" encoding="utf-8"?>
<!-- Generator: Adobe Illustrator 26.0.0, SVG Export Plug-In . SVG Version: 6.00 Build 0)  -->
<svg version="1.1" xmlns="http://www.w3.org/2000/svg" xmlns:xlink="http://www.w3.org/1999/xlink" x="0px" y="0px"
	 viewBox="0 0 109.9877 113.5767" style="enable-background:new 0 0 109.9877 113.5767;" xml:space="preserve">
<style type="text/css">
	.st0{opacity:0.5;}
	.st1{opacity:0.25;clip-path:url(#SVGID_00000035528644235035708870000010932229527523369139_);}
	.st2{fill:none;stroke:#00ABEB;stroke-width:0.2111;stroke-miterlimit:10;}
	.st3{fill:none;stroke:#00ABEB;stroke-width:0.4221;stroke-miterlimit:10;}
	.st4{fill:none;stroke:#00ABEB;stroke-width:0.9849;stroke-miterlimit:10;}
	.st5{fill:none;stroke:#00B200;stroke-width:0.4;stroke-linecap:round;stroke-linejoin:round;}
	.st6{fill:#00B200;}
	.st7{enable-background:new    ;}
	.st8{fill:none;stroke:#C90D0C;stroke-width:0.432;stroke-linecap:round;stroke-miterlimit:11.3386;}
	.st9{fill:none;stroke:#C90D0C;stroke-width:0.72;stroke-linecap:round;stroke-miterlimit:11.3386;}
	.st10{fill:#808080;}
	.st11{fill:none;stroke:#00B200;stroke-width:0.4;stroke-linecap:round;stroke-linejoin:round;stroke-miterlimit:11.3386;}
	.st12{fill:none;stroke:#C90D0C;stroke-width:0.4;stroke-linecap:round;stroke-miterlimit:11.3386;}
	.st13{fill:none;stroke:#C90D0C;stroke-width:0.7;stroke-linecap:round;stroke-miterlimit:11.3386;}
	.st14{fill:#C90D0C;}
	.st15{fill:none;stroke:#00B200;stroke-width:0.4;stroke-miterlimit:11.3386;}
	.st16{fill:none;stroke:#000000;stroke-width:0.432;stroke-linecap:round;stroke-linejoin:round;}
</style>
<g id="Graph_paper" class="st0">
	<g id="Clipped_grid">
		<defs>
			<rect id="SVGID_1_" x="-251.2724" y="-47.5406" width="499.7099" height="213.594"/>
		</defs>
		<clipPath id="SVGID_00000060001425594741367910000004701708688066770566_">
			<use xlink:href="#SVGID_1_"  style="overflow:visible;"/>
		</clipPath>
		
			<g id="Grid_00000060005542146034257920000005065612243763103930_" style="opacity:0.25;clip-path:url(#SVGID_00000060001425594741367910000004701708688066770566_);">
			<g id="Horizontal_1_mm">
				<line class="st2" x1="-273.8584" y1="-132.2406" x2="528.1003" y2="-132.2406"/>
				<line class="st2" x1="-273.8584" y1="-142.2631" x2="528.1003" y2="-142.2631"/>
				<line class="st2" x1="-273.8584" y1="459.0239" x2="528.1003" y2="459.0239"/>
				<line class="st2" x1="-273.8584" y1="449.0012" x2="528.1003" y2="449.0012"/>
				<line class="st2" x1="-273.8584" y1="438.9821" x2="528.1003" y2="438.9821"/>
				<line class="st2" x1="-273.8584" y1="428.9597" x2="528.1003" y2="428.9597"/>
				<line class="st2" x1="-273.8584" y1="418.9371" x2="528.1003" y2="418.9371"/>
				<line class="st2" x1="-273.8584" y1="408.9179" x2="528.1003" y2="408.9179"/>
				<line class="st2" x1="-273.8584" y1="398.8956" x2="528.1003" y2="398.8956"/>
				<line class="st2" x1="-273.8584" y1="388.8764" x2="528.1003" y2="388.8764"/>
				<line class="st2" x1="-273.8584" y1="378.852" x2="528.1003" y2="378.852"/>
				<line class="st2" x1="-273.8584" y1="368.8297" x2="528.1003" y2="368.8297"/>
				<line class="st2" x1="-273.8584" y1="358.8105" x2="528.1003" y2="358.8105"/>
				<line class="st2" x1="-273.8584" y1="348.7878" x2="528.1003" y2="348.7878"/>
				<line class="st2" x1="-273.8584" y1="338.7655" x2="528.1003" y2="338.7655"/>
				<line class="st2" x1="-273.8584" y1="328.7464" x2="528.1003" y2="328.7464"/>
				<line class="st2" x1="-273.8584" y1="318.7237" x2="528.1003" y2="318.7237"/>
				<line class="st2" x1="-273.8584" y1="308.7014" x2="528.1003" y2="308.7014"/>
				<line class="st2" x1="-273.8584" y1="298.6822" x2="528.1003" y2="298.6822"/>
				<line class="st2" x1="-273.8584" y1="288.6595" x2="528.1003" y2="288.6595"/>
				<line class="st2" x1="-273.8584" y1="278.6369" x2="528.1003" y2="278.6369"/>
				<line class="st2" x1="-273.8584" y1="268.6181" x2="528.1003" y2="268.6181"/>
				<line class="st2" x1="-273.8584" y1="258.5954" x2="528.1003" y2="258.5954"/>
				<line class="st2" x1="-273.8584" y1="248.5713" x2="528.1003" y2="248.5713"/>
				<line class="st2" x1="-273.8584" y1="238.5522" x2="528.1003" y2="238.5522"/>
				<line class="st2" x1="-273.8584" y1="228.5295" x2="528.1003" y2="228.5295"/>
				<line class="st2" x1="-273.8584" y1="218.5103" x2="528.1003" y2="218.5103"/>
				<line class="st2" x1="-273.8584" y1="208.488" x2="528.1003" y2="208.488"/>
				<line class="st2" x1="-273.8584" y1="198.4653" x2="528.1003" y2="198.4653"/>
				<line class="st2" x1="-273.8584" y1="188.4462" x2="528.1003" y2="188.4462"/>
				<line class="st2" x1="-273.8584" y1="178.4239" x2="528.1003" y2="178.4239"/>
				<line class="st2" x1="-273.8584" y1="168.4012" x2="528.1003" y2="168.4012"/>
				<line class="st2" x1="-273.8584" y1="158.382" x2="528.1003" y2="158.382"/>
				<line class="st2" x1="-273.8584" y1="148.3597" x2="528.1003" y2="148.3597"/>
				<line class="st2" x1="-273.8584" y1="138.337" x2="528.1003" y2="138.337"/>
				<line class="st2" x1="-273.8584" y1="128.3179" x2="528.1003" y2="128.3179"/>
				<line class="st2" x1="-273.8584" y1="118.2952" x2="528.1003" y2="118.2952"/>
				<line class="st2" x1="-273.8584" y1="108.2729" x2="528.1003" y2="108.2729"/>
				<line class="st2" x1="-273.8584" y1="98.2537" x2="528.1003" y2="98.2537"/>
				<line class="st2" x1="-273.8584" y1="88.2311" x2="528.1003" y2="88.2311"/>
				<line class="st2" x1="-273.8584" y1="78.2087" x2="528.1003" y2="78.2087"/>
				<line class="st2" x1="-273.8584" y1="68.1896" x2="528.1003" y2="68.1896"/>
				<line class="st2" x1="-273.8584" y1="58.1651" x2="528.1003" y2="58.1651"/>
				<line class="st2" x1="-273.8584" y1="48.1464" x2="528.1003" y2="48.1464"/>
				<line class="st2" x1="-273.8584" y1="38.1237" x2="528.1003" y2="38.1237"/>
				<line class="st2" x1="-273.8584" y1="28.101" x2="528.1003" y2="28.101"/>
				<line class="st2" x1="-273.8584" y1="18.0822" x2="528.1003" y2="18.0822"/>
				<line class="st2" x1="-273.8584" y1="8.0595" x2="528.1003" y2="8.0595"/>
				<line class="st2" x1="-273.8584" y1="-1.9632" x2="528.1003" y2="-1.9632"/>
				<line class="st2" x1="-273.8584" y1="-11.9823" x2="528.1003" y2="-11.9823"/>
				<line class="st2" x1="-273.8584" y1="-22.0046" x2="528.1003" y2="-22.0046"/>
				<line class="st2" x1="-273.8584" y1="-32.0273" x2="528.1003" y2="-32.0273"/>
				<line class="st2" x1="-273.8584" y1="-42.0464" x2="528.1003" y2="-42.0464"/>
				<line class="st2" x1="-273.8584" y1="-52.0688" x2="528.1003" y2="-52.0688"/>
				<line class="st2" x1="-273.8584" y1="-62.0914" x2="528.1003" y2="-62.0914"/>
				<line class="st2" x1="-273.8584" y1="-72.1106" x2="528.1003" y2="-72.1106"/>
				<line class="st2" x1="-273.8584" y1="-82.1347" x2="528.1003" y2="-82.1347"/>
				<line class="st2" x1="-273.8584" y1="-92.1538" x2="528.1003" y2="-92.1538"/>
				<line class="st2" x1="-273.8584" y1="-102.1765" x2="528.1003" y2="-102.1765"/>
				<line class="st2" x1="-273.8584" y1="-112.1989" x2="528.1003" y2="-112.1989"/>
				<line class="st2" x1="-273.8584" y1="-122.218" x2="528.1003" y2="-122.218"/>
			</g>
			<g id="Vertical_1_mm">
				<g>
					<line class="st2" x1="-273.5926" y1="458.9751" x2="-273.5926" y2="-142.5289"/>
				</g>
				<line class="st2" x1="-263.5735" y1="458.9751" x2="-263.5735" y2="-142.5289"/>
				<line class="st2" x1="-253.551" y1="458.9751" x2="-253.551" y2="-142.5289"/>
				<line class="st2" x1="-243.5284" y1="458.9751" x2="-243.5284" y2="-142.5289"/>
				<line class="st2" x1="-233.5095" y1="458.9751" x2="-233.5095" y2="-142.5289"/>
				<line class="st2" x1="-223.4868" y1="458.9751" x2="-223.4868" y2="-142.5289"/>
				<line class="st2" x1="-213.4641" y1="458.9751" x2="-213.4641" y2="-142.5289"/>
				<line class="st2" x1="-203.4453" y1="458.9751" x2="-203.4453" y2="-142.5289"/>
				<line class="st2" x1="-193.4209" y1="458.9751" x2="-193.4209" y2="-142.5289"/>
				<line class="st2" x1="-183.4017" y1="458.9751" x2="-183.4017" y2="-142.5289"/>
				<line class="st2" x1="-173.3794" y1="458.9751" x2="-173.3794" y2="-142.5289"/>
				<line class="st2" x1="-163.3567" y1="458.9751" x2="-163.3567" y2="-142.5289"/>
				<line class="st2" x1="-153.3376" y1="458.9751" x2="-153.3376" y2="-142.5289"/>
				<line class="st2" x1="-143.3153" y1="458.9751" x2="-143.3153" y2="-142.5289"/>
				<line class="st2" x1="-133.2926" y1="458.9751" x2="-133.2926" y2="-142.5289"/>
				<line class="st2" x1="-123.2734" y1="458.9751" x2="-123.2734" y2="-142.5289"/>
				<line class="st2" x1="-113.2508" y1="458.9751" x2="-113.2508" y2="-142.5289"/>
				<line class="st2" x1="-103.2284" y1="458.9751" x2="-103.2284" y2="-142.5289"/>
				<line class="st2" x1="-93.2093" y1="458.9751" x2="-93.2093" y2="-142.5289"/>
				<line class="st2" x1="-83.1866" y1="458.9751" x2="-83.1866" y2="-142.5289"/>
				<line class="st2" x1="-73.1643" y1="458.9751" x2="-73.1643" y2="-142.5289"/>
				<line class="st2" x1="-63.1451" y1="458.9751" x2="-63.1451" y2="-142.5289"/>
				<line class="st2" x1="-53.1225" y1="458.9751" x2="-53.1225" y2="-142.5289"/>
				<line class="st2" x1="-43.1001" y1="458.9751" x2="-43.1001" y2="-142.5289"/>
				<line class="st2" x1="-33.0792" y1="458.9751" x2="-33.0792" y2="-142.5289"/>
				<line class="st2" x1="-23.0565" y1="458.9751" x2="-23.0565" y2="-142.5289"/>
				<line class="st2" x1="-13.0377" y1="458.9751" x2="-13.0377" y2="-142.5289"/>
				<line class="st2" x1="-3.0151" y1="458.9751" x2="-3.0151" y2="-142.5289"/>
				<line class="st2" x1="7.0076" y1="458.9751" x2="7.0076" y2="-142.5289"/>
				<line class="st2" x1="17.0264" y1="458.9751" x2="17.0264" y2="-142.5289"/>
				<line class="st2" x1="27.0491" y1="458.9751" x2="27.0491" y2="-142.5289"/>
				<line class="st2" x1="37.0718" y1="458.9751" x2="37.0718" y2="-142.5289"/>
				<line class="st2" x1="47.0909" y1="458.9751" x2="47.0909" y2="-142.5289"/>
				<line class="st2" x1="57.1132" y1="458.9751" x2="57.1132" y2="-142.5289"/>
				<line class="st2" x1="67.1359" y1="458.9751" x2="67.1359" y2="-142.5289"/>
				<line class="st2" x1="77.1551" y1="458.9751" x2="77.1551" y2="-142.5289"/>
				<line class="st2" x1="87.1774" y1="458.9751" x2="87.1774" y2="-142.5289"/>
				<line class="st2" x1="97.2001" y1="458.9751" x2="97.2001" y2="-142.5289"/>
				<line class="st2" x1="107.2192" y1="458.9751" x2="107.2192" y2="-142.5289"/>
				<line class="st2" x1="117.2415" y1="458.9751" x2="117.2415" y2="-142.5289"/>
				<line class="st2" x1="127.2607" y1="458.9751" x2="127.2607" y2="-142.5289"/>
				<line class="st2" x1="137.2851" y1="458.9751" x2="137.2851" y2="-142.5289"/>
				<line class="st2" x1="147.3074" y1="458.9751" x2="147.3074" y2="-142.5289"/>
				<line class="st2" x1="157.3266" y1="458.9751" x2="157.3266" y2="-142.5289"/>
				<line class="st2" x1="167.3493" y1="458.9751" x2="167.3493" y2="-142.5289"/>
				<line class="st2" x1="177.3716" y1="458.9751" x2="177.3716" y2="-142.5289"/>
				<line class="st2" x1="187.3907" y1="458.9751" x2="187.3907" y2="-142.5289"/>
				<line class="st2" x1="197.4134" y1="458.9751" x2="197.4134" y2="-142.5289"/>
				<line class="st2" x1="207.4357" y1="458.9751" x2="207.4357" y2="-142.5289"/>
				<line class="st2" x1="217.4549" y1="458.9751" x2="217.4549" y2="-142.5289"/>
				<line class="st2" x1="227.4776" y1="458.9751" x2="227.4776" y2="-142.5289"/>
				<line class="st2" x1="237.4999" y1="458.9751" x2="237.4999" y2="-142.5289"/>
				<line class="st2" x1="247.519" y1="458.9751" x2="247.519" y2="-142.5289"/>
				<line class="st2" x1="257.5417" y1="458.9751" x2="257.5417" y2="-142.5289"/>
				<line class="st2" x1="267.564" y1="458.9751" x2="267.564" y2="-142.5289"/>
				<line class="st2" x1="277.5832" y1="458.9751" x2="277.5832" y2="-142.5289"/>
				<line class="st2" x1="287.6076" y1="458.9751" x2="287.6076" y2="-142.5289"/>
				<line class="st2" x1="297.6268" y1="458.9751" x2="297.6268" y2="-142.5289"/>
				<line class="st2" x1="307.6491" y1="458.9751" x2="307.6491" y2="-142.5289"/>
				<line class="st2" x1="317.6718" y1="458.9751" x2="317.6718" y2="-142.5289"/>
				<line class="st2" x1="327.6909" y1="458.9751" x2="327.6909" y2="-142.5289"/>
				<line class="st2" x1="337.7132" y1="458.9751" x2="337.7132" y2="-142.5289"/>
				<line class="st2" x1="347.7359" y1="458.9751" x2="347.7359" y2="-142.5289"/>
				<line class="st2" x1="357.7551" y1="458.9751" x2="357.7551" y2="-142.5289"/>
				<line class="st2" x1="367.7774" y1="458.9751" x2="367.7774" y2="-142.5289"/>
				<line class="st2" x1="377.8001" y1="458.9751" x2="377.8001" y2="-142.5289"/>
				<line class="st2" x1="387.8192" y1="458.9751" x2="387.8192" y2="-142.5289"/>
				<line class="st2" x1="397.8415" y1="458.9751" x2="397.8415" y2="-142.5289"/>
				<line class="st2" x1="407.8642" y1="458.9751" x2="407.8642" y2="-142.5289"/>
				<line class="st2" x1="417.8834" y1="458.9751" x2="417.8834" y2="-142.5289"/>
				<line class="st2" x1="427.906" y1="458.9751" x2="427.906" y2="-142.5289"/>
				<line class="st2" x1="437.9284" y1="458.9751" x2="437.9284" y2="-142.5289"/>
				<line class="st2" x1="447.9493" y1="458.9751" x2="447.9493" y2="-142.5289"/>
				<line class="st2" x1="457.9716" y1="458.9751" x2="457.9716" y2="-142.5289"/>
				<line class="st2" x1="467.9908" y1="458.9751" x2="467.9908" y2="-142.5289"/>
				<line class="st2" x1="478.0134" y1="458.9751" x2="478.0134" y2="-142.5289"/>
				<line class="st2" x1="488.0361" y1="458.9751" x2="488.0361" y2="-142.5289"/>
				<line class="st2" x1="498.0549" y1="458.9751" x2="498.0549" y2="-142.5289"/>
				<line class="st2" x1="508.0776" y1="458.9751" x2="508.0776" y2="-142.5289"/>
				<line class="st2" x1="518.1002" y1="458.9751" x2="518.1002" y2="-142.5289"/>
				<line class="st2" x1="528.119" y1="458.9751" x2="528.119" y2="-142.5289"/>
			</g>
			<g id="Horizontal_5_mm_1_">
				<line class="st3" x1="-274.8303" y1="459.0239" x2="528.1003" y2="459.0239"/>
				<line class="st3" x1="-274.8303" y1="408.9179" x2="528.1003" y2="408.9179"/>
				<line class="st3" x1="-274.8303" y1="358.8105" x2="528.1003" y2="358.8105"/>
				<line class="st3" x1="-274.8303" y1="308.7014" x2="528.1003" y2="308.7014"/>
				<line class="st3" x1="-274.8303" y1="258.5954" x2="528.1003" y2="258.5954"/>
				<line class="st3" x1="-274.8303" y1="208.488" x2="528.1003" y2="208.488"/>
				<line class="st3" x1="-274.8303" y1="158.382" x2="528.1003" y2="158.382"/>
				<line class="st3" x1="-274.8303" y1="108.2729" x2="528.1003" y2="108.2729"/>
				<line class="st3" x1="-274.8303" y1="58.1651" x2="528.1003" y2="58.1651"/>
				<line class="st3" x1="-274.8303" y1="8.0595" x2="528.1003" y2="8.0595"/>
				<line class="st3" x1="-274.8303" y1="-42.0464" x2="528.1003" y2="-42.0464"/>
			</g>
			<g id="Vertical_5_mm">
				<line class="st3" x1="-273.5926" y1="458.9751" x2="-273.5926" y2="-143.5008"/>
				<line class="st3" x1="-223.4868" y1="458.9751" x2="-223.4868" y2="-143.5008"/>
				<line class="st3" x1="-173.3794" y1="458.9751" x2="-173.3794" y2="-143.5008"/>
				<line class="st3" x1="-123.2734" y1="458.9751" x2="-123.2734" y2="-143.5008"/>
				<line class="st3" x1="-73.1643" y1="458.9751" x2="-73.1643" y2="-143.5008"/>
				<line class="st3" x1="-23.0565" y1="458.9751" x2="-23.0565" y2="-143.5008"/>
				<line class="st3" x1="27.0491" y1="458.9751" x2="27.0491" y2="-143.5008"/>
				<line class="st3" x1="77.1551" y1="458.9751" x2="77.1551" y2="-143.5008"/>
				<line class="st3" x1="127.2607" y1="458.9751" x2="127.2607" y2="-143.5008"/>
				<line class="st3" x1="177.3716" y1="458.9751" x2="177.3716" y2="-143.5008"/>
				<line class="st3" x1="227.4776" y1="458.9751" x2="227.4776" y2="-143.5008"/>
				<line class="st3" x1="277.5832" y1="458.9751" x2="277.5832" y2="-143.5008"/>
				<line class="st3" x1="327.6909" y1="458.9751" x2="327.6909" y2="-143.5008"/>
				<line class="st3" x1="377.8001" y1="458.9751" x2="377.8001" y2="-143.5008"/>
				<line class="st3" x1="427.906" y1="458.9751" x2="427.906" y2="-143.5008"/>
				<line class="st3" x1="478.0134" y1="458.9751" x2="478.0134" y2="-143.5008"/>
				<line class="st3" x1="528.119" y1="458.9751" x2="528.119" y2="-143.5008"/>
			</g>
			<g id="Horizontal_10_mm">
				<line id="_x31_9_1_" class="st4" x1="-274.8303" y1="459.0239" x2="528.1003" y2="459.0239"/>
				<line id="_x32_0" class="st4" x1="-274.8303" y1="358.8105" x2="528.1003" y2="358.8105"/>
				<line id="_x32_1" class="st4" x1="-274.8303" y1="258.5954" x2="528.1003" y2="258.5954"/>
				<line id="_x32_2" class="st4" x1="-274.8303" y1="158.382" x2="528.1003" y2="158.382"/>
				<line id="_x32_3" class="st4" x1="-274.8303" y1="58.1651" x2="528.1003" y2="58.1651"/>
				<line id="_x32_4" class="st4" x1="-274.8303" y1="-42.0464" x2="528.1003" y2="-42.0464"/>
				<line id="_x32_5" class="st4" x1="-274.8303" y1="-142.2631" x2="528.1003" y2="-142.2631"/>
			</g>
			<g id="Vertical_10_mm">
				<line id="_x30_" class="st4" x1="-273.5926" y1="458.9751" x2="-273.5926" y2="-143.5008"/>
				<line id="_x31_" class="st4" x1="-173.3794" y1="458.9751" x2="-173.3794" y2="-143.5008"/>
				<line id="_x32_" class="st4" x1="-73.1643" y1="458.9751" x2="-73.1643" y2="-143.5008"/>
				<line id="_x33_" class="st4" x1="27.0491" y1="458.9751" x2="27.0491" y2="-143.5008"/>
				<line id="_x34_" class="st4" x1="127.2607" y1="458.9751" x2="127.2607" y2="-143.5008"/>
				<line id="_x35_" class="st4" x1="227.4776" y1="458.9751" x2="227.4776" y2="-143.5008"/>
				<line id="_x36_" class="st4" x1="327.6909" y1="458.9751" x2="327.6909" y2="-143.5008"/>
				<line id="_x37_" class="st4" x1="427.906" y1="458.9751" x2="427.906" y2="-143.5008"/>
				<line id="_x38_" class="st4" x1="528.119" y1="458.9751" x2="528.119" y2="-143.5008"/>
			</g>
		</g>
	</g>
	<g>
		<g>
			<line class="st5" x1="48.2234" y1="12.573" x2="42.584" y2="12.573"/>
			<g>
				<path class="st6" d="M45.4896,10.6531c-0.0594,0.093-0.0318,0.2168,0.0613,0.2762l2.581,1.6438l-2.5811,1.6437
					c-0.0931,0.0594-0.1207,0.1832-0.0613,0.2762c0.0594,0.093,0.1838,0.1199,0.2762,0.0613l2.8459-1.8125
					c0.0576-0.0367,0.0926-0.1004,0.0926-0.1688s-0.035-0.132-0.0926-0.1687l-2.8459-1.8125
					c-0.0332-0.0211-0.0705-0.0312-0.1072-0.0312C45.5926,10.5605,45.5279,10.5933,45.4896,10.6531z"/>
			</g>
		</g>
	</g>
	<g class="st7">
		<path class="st6" d="M54.7856,3.3697c-0.5596,0.0703-0.6494,0.1602-0.8193,0.77l-1.1992,4.2876
			c-0.0898,0.3198-0.1504,0.5596-0.1504,0.7593c0,0.2798,0.1201,0.3198,0.6904,0.3896v0.1602h-2.4395V9.5762
			c0.5498-0.0996,0.6904-0.1895,0.8398-0.7495l1.1992-4.4072c0.0703-0.25,0.1299-0.46,0.1299-0.6196
			c0-0.25-0.1602-0.3999-0.7197-0.4302V3.21h2.4688V3.3697z"/>
	</g>
</g>
<g id="Layer_4">
	<g>
		<line class="st8" x1="-68.1853" y1="-23.9033" x2="-60.9853" y2="-23.9033"/>
		<line class="st8" x1="-39.3853" y1="-23.9033" x2="-46.5853" y2="-23.9033"/>
		<line class="st9" x1="-60.9853" y1="-21.3833" x2="-46.5853" y2="-21.3833"/>
		<line class="st9" x1="-46.5853" y1="-26.4233" x2="-60.9853" y2="-26.4233"/>
		<line class="st9" x1="-46.5853" y1="-21.3833" x2="-46.5853" y2="-26.4233"/>
		<line class="st9" x1="-60.9853" y1="-21.3833" x2="-60.9853" y2="-26.4233"/>
		<g class="st7">
			<path class="st10" d="M-64.1494-28.1504v-3.9688h1.7593c0.354,0,0.6226,0.0361,0.8066,0.1069
				c0.1841,0.0718,0.3311,0.1973,0.4414,0.3779c0.1099,0.1807,0.165,0.3799,0.165,0.5981c0,0.2817-0.0913,0.519-0.2734,0.7119
				c-0.1821,0.1934-0.4639,0.3159-0.8447,0.3682c0.1392,0.0669,0.2446,0.1328,0.3169,0.1978
				c0.1533,0.1406,0.2988,0.3169,0.436,0.5278l0.6899,1.0801h-0.6602l-0.5254-0.8257c-0.1533-0.2383-0.2798-0.4204-0.3789-0.5469
				c-0.0991-0.126-0.188-0.2148-0.2666-0.2651c-0.0786-0.0508-0.1582-0.0859-0.2397-0.1055c-0.0596-0.0127-0.1567-0.019-0.292-0.019
				h-0.6094v1.7622H-64.1494z M-63.6245-30.3676h1.1289c0.2397,0,0.4277-0.0244,0.563-0.0742s0.2383-0.1289,0.3086-0.2383
				c0.0703-0.1089,0.1055-0.2275,0.1055-0.356c0-0.1875-0.0679-0.3418-0.2041-0.4629s-0.3516-0.1812-0.6455-0.1812h-1.2563V-30.3676
				z"/>
			<path class="st10" d="M-57.7905-28.6186v0.4683h-2.623c-0.0039-0.1172,0.0151-0.23,0.0566-0.3384
				c0.0669-0.1787,0.1738-0.3545,0.3208-0.5278s0.3599-0.3735,0.6377-0.6011c0.4312-0.3535,0.7227-0.6338,0.874-0.8403
				c0.1519-0.2065,0.2275-0.4023,0.2275-0.5864c0-0.1929-0.0688-0.356-0.207-0.4883c-0.1382-0.1328-0.3179-0.1992-0.54-0.1992
				c-0.2349,0-0.4224,0.0703-0.563,0.2114c-0.1406,0.1406-0.2119,0.3354-0.2139,0.5845l-0.501-0.0513
				c0.0342-0.3735,0.1636-0.6582,0.3872-0.854s0.5244-0.2939,0.9014-0.2939c0.3809,0,0.6821,0.1055,0.9043,0.3169
				c0.2217,0.2109,0.333,0.4727,0.333,0.7852c0,0.1587-0.0327,0.3149-0.0977,0.4683s-0.1729,0.3149-0.3232,0.4844
				c-0.1509,0.1699-0.4014,0.4023-0.7515,0.6982c-0.2925,0.2456-0.48,0.4121-0.563,0.4995
				c-0.083,0.0879-0.1514,0.1758-0.2056,0.2642H-57.7905z"/>
		</g>
	</g>
	<g>
		<line class="st11" x1="77.1411" y1="52.7693" x2="77.1411" y2="63.665"/>
		<line class="st11" x1="77.1411" y1="12.573" x2="77.1411" y2="23.9693"/>
		<line class="st11" x1="77.1411" y1="92.465" x2="77.1411" y2="103.3608"/>
	</g>
	<line class="st12" x1="77.1411" y1="52.7693" x2="77.1411" y2="45.5693"/>
	<line class="st12" x1="77.1411" y1="23.9693" x2="77.1411" y2="31.1693"/>
	<line class="st13" x1="79.6611" y1="45.5693" x2="79.6611" y2="31.1693"/>
	<line class="st13" x1="74.6211" y1="31.1693" x2="74.6211" y2="45.5693"/>
	<line class="st13" x1="79.6611" y1="31.1693" x2="74.6211" y2="31.1693"/>
	<line class="st13" x1="79.6611" y1="45.5693" x2="74.6211" y2="45.5693"/>
	<g class="st7">
		<path d="M59.8491,34.4336c-0.2295,0.0103-0.3896,0.1304-0.5596,0.3999L55.561,40.98h-0.1895l-0.8193-5.0269
			c-0.2305-1.3994-0.2598-1.4492-0.8193-1.5195V34.274h2.3984v0.1597c-0.6299,0.0703-0.7598,0.1699-0.7598,0.5098
			c0,0.0503,0,0.1001,0.0098,0.1499l0.6494,4.4277l2.0996-3.5981c0.3096-0.5298,0.4893-0.9595,0.4893-1.1494
			s-0.1699-0.2896-0.6191-0.3398V34.274h1.8486V34.4336z"/>
		<path d="M61.438,40.19c0.0176,0,0.0283,0.0176,0.0283,0.041c0,0.0293-0.0107,0.0874-0.0342,0.1689l-0.834,3.0254
			c-0.041,0.1455-0.1045,0.373-0.1045,0.4312c0,0.1343,0.1279,0.1865,0.3848,0.1865h0.1221v0.0874h-1.626V44.043
			c0.46-0.0352,0.5889-0.0991,0.6523-0.3208l0.793-2.8442c0.0293-0.1108,0.0469-0.1689,0.0469-0.21
			c0-0.1108-0.0762-0.1807-0.2041-0.1807H60.645c-0.1055,0-0.2334,0.0059-0.3438,0.0117v-0.0874l0.1338-0.0293
			c0.5127-0.1108,0.5361-0.0991,0.9854-0.1924H61.438z"/>
	</g>
	<g>
		<line class="st12" x1="77.1411" y1="92.465" x2="77.1411" y2="85.265"/>
		<line class="st12" x1="77.1411" y1="63.665" x2="77.1411" y2="70.865"/>
		<line class="st13" x1="79.6611" y1="85.265" x2="79.6611" y2="70.865"/>
		<line class="st13" x1="74.6211" y1="70.865" x2="74.6211" y2="85.265"/>
		<line class="st13" x1="79.6611" y1="70.865" x2="74.6211" y2="70.865"/>
		<line class="st13" x1="79.6611" y1="85.265" x2="74.6211" y2="85.265"/>
	</g>
	<g class="st7">
		<path class="st14" d="M86.2095,73.9703c1.3193,0,2.0391,0.5596,2.0391,1.4092c0,0.4795-0.25,0.9688-0.6602,1.2793
			c-0.3096,0.2393-0.6387,0.3594-1.3086,0.5098l0.8887,2.3486c0.2207,0.5898,0.4199,0.8193,0.8701,0.8193v0.1602h-1.4697
			l-1.2285-3.2383l-0.6602-0.0498l-0.5498,2.0283c-0.1104,0.3896-0.1299,0.5303-0.1299,0.6299c0,0.2998,0.0996,0.4102,0.6699,0.4697
			v0.1602h-2.4287v-0.1602c0.5498-0.0703,0.6895-0.2598,0.8496-0.8496l1.1895-4.3076c0.0693-0.2695,0.1201-0.46,0.1201-0.6299
			c0-0.1094-0.0703-0.2295-0.1406-0.2793c-0.1094-0.0703-0.1494-0.0801-0.5693-0.1406v-0.1592H86.2095z M84.8003,76.8384
			c0.25,0.04,0.3291,0.0498,0.5098,0.0498c1.1895,0,1.8887-0.5693,1.8887-1.499c0-0.6895-0.4189-1.1191-1.1992-1.1191
			c-0.3096,0-0.5195,0.1094-0.5693,0.2998L84.8003,76.8384z"/>
		<path class="st14" d="M88.9477,80.8306c0.1396-0.3438,0.2734-0.542,0.4785-0.6992c0.2266-0.1748,0.4775-0.2451,0.7461-0.2451
			c0.5586,0,0.9434,0.4316,0.9434,0.9854c0,0.3906-0.1797,0.6582-0.8682,1.3633l-1.0957,1.1191v0.0293h1.0547
			c0.3447,0,0.4609-0.0869,0.6006-0.3789l0.0996,0.041l-0.292,0.7812h-2.0635v-0.0996l1.2246-1.3057
			c0.3848-0.4082,0.6465-0.7754,0.7871-1.0898c0.0342-0.0752,0.0518-0.1865,0.0518-0.3145c0-0.4023-0.2334-0.7051-0.6934-0.7051
			c-0.3506,0-0.6475,0.1689-0.8506,0.5596L88.9477,80.8306z"/>
	</g>
	<g class="st7">
		<path class="st14" d="M86.2095,34.274c1.3193,0,2.0391,0.5596,2.0391,1.4092c0,0.4795-0.25,0.9692-0.6602,1.2793
			c-0.3096,0.2397-0.6387,0.3599-1.3086,0.5098l0.8887,2.3486c0.2207,0.5898,0.4199,0.8193,0.8701,0.8193v0.1602h-1.4697
			l-1.2285-3.2383l-0.6602-0.0498l-0.5498,2.0288c-0.1104,0.3896-0.1299,0.5298-0.1299,0.6294c0,0.3003,0.0996,0.4102,0.6699,0.4697
			v0.1602h-2.4287v-0.1602c0.5498-0.0698,0.6895-0.2598,0.8496-0.8491l1.1895-4.3076c0.0693-0.27,0.1201-0.46,0.1201-0.6299
			c0-0.1099-0.0703-0.23-0.1406-0.2798c-0.1094-0.0698-0.1494-0.0801-0.5693-0.1401V34.274H86.2095z M84.8003,37.1421
			c0.25,0.04,0.3291,0.0503,0.5098,0.0503c1.1895,0,1.8887-0.5698,1.8887-1.4995c0-0.6895-0.4189-1.1191-1.1992-1.1191
			c-0.3096,0-0.5195,0.1099-0.5693,0.2998L84.8003,37.1421z"/>
		<path class="st14" d="M90.8364,40.19c0.0176,0,0.0293,0.0176,0.0293,0.041c0,0.0293-0.0117,0.0874-0.0352,0.1689l-0.834,3.0254
			c-0.041,0.1455-0.1045,0.373-0.1045,0.4312c0,0.1343,0.1279,0.1865,0.3848,0.1865h0.1221v0.0874h-1.626V44.043
			c0.46-0.0352,0.5889-0.0991,0.6533-0.3208l0.792-2.8442c0.0293-0.1108,0.0469-0.1689,0.0469-0.21
			c0-0.1108-0.0752-0.1807-0.2041-0.1807h-0.0176c-0.1055,0-0.2324,0.0059-0.3438,0.0117v-0.0874l0.1338-0.0293
			c0.5127-0.1108,0.5361-0.0991,0.9854-0.1924H90.8364z"/>
	</g>
	<line class="st11" x1="77.1411" y1="12.573" x2="27.0491" y2="12.573"/>
	<line class="st15" x1="77.1411" y1="103.3608" x2="27.0491" y2="103.3608"/>
	<g>
		<g>
			<line class="st16" x1="27.0491" y1="18.0209" x2="27.0491" y2="97.7852"/>
			<g>
				<polygon points="25.2823,96.3538 25.5987,96.0591 27.0487,97.6194 28.4991,96.0591 28.8155,96.3538 27.0487,98.2537 				"/>
			</g>
		</g>
	</g>
	<g>
		<g>
			<line class="st16" x1="65.3006" y1="23.9693" x2="65.3006" y2="52.3008"/>
			<g>
				<polygon points="63.5338,50.8694 63.8502,50.5747 65.3002,52.135 66.7506,50.5747 67.067,50.8694 65.3002,52.7693 				"/>
			</g>
		</g>
	</g>
	<g>
		<g>
			<line class="st16" x1="65.3006" y1="63.665" x2="65.3006" y2="91.9965"/>
			<g>
				<polygon points="63.5338,90.5651 63.8502,90.2704 65.3002,91.8307 66.7506,90.2704 67.067,90.5651 65.3002,92.465 				"/>
			</g>
		</g>
	</g>
	<g class="st7">
		<path d="M60.0142,74.1294c-0.2295,0.0107-0.3896,0.1309-0.5596,0.4004l-3.7275,6.1465h-0.1904l-0.8193-5.0273
			c-0.2295-1.3994-0.2598-1.4492-0.8193-1.5195v-0.1592h2.3984v0.1592c-0.6289,0.0703-0.7598,0.1699-0.7598,0.5098
			c0,0.0508,0,0.1006,0.0107,0.1504l0.6494,4.4277l2.0986-3.5986c0.3096-0.5293,0.4902-0.959,0.4902-1.1494
			c0-0.1895-0.1699-0.2891-0.6201-0.3398v-0.1592h1.8486V74.1294z"/>
		<path d="M59.7143,80.8306c0.1396-0.3438,0.2744-0.542,0.4785-0.6992c0.2266-0.1748,0.4775-0.2451,0.7461-0.2451
			c0.5596,0,0.9443,0.4316,0.9443,0.9854c0,0.3906-0.1807,0.6582-0.8691,1.3633l-1.0957,1.1191v0.0293h1.0547
			c0.3447,0,0.4609-0.0869,0.6006-0.3789l0.0996,0.041l-0.292,0.7812h-2.0635v-0.0996l1.2246-1.3057
			c0.3848-0.4082,0.6465-0.7754,0.7871-1.0898c0.0342-0.0752,0.0518-0.1865,0.0518-0.3145c0-0.4023-0.2324-0.7051-0.6934-0.7051
			c-0.3496,0-0.6475,0.1689-0.8506,0.5596L59.7143,80.8306z"/>
	</g>
	<g class="st7">
		<path d="M36.4624,56.0191c-0.2295,0.0103-0.3896,0.1299-0.5596,0.3994l-3.7285,6.1465h-0.1895l-0.8193-5.0264
			c-0.2305-1.3994-0.2598-1.4492-0.8193-1.5195v-0.1597h2.3984v0.1597c-0.6299,0.0703-0.7598,0.1699-0.7598,0.5098
			c0,0.0498,0,0.1006,0.0098,0.1494l0.6494,4.4277l2.0996-3.5977c0.3096-0.5293,0.4893-0.959,0.4893-1.1494
			s-0.1699-0.29-0.6191-0.3398v-0.1597h1.8486V56.0191z"/>
	</g>
	<g>
	</g>
	<g>
	</g>
</g>
</svg>
