<?xml version="1.0" encoding="UTF-8"?> <!-- Generator: Adobe Illustrator 26.0.1, SVG Export Plug-In . SVG Version: 6.00 Build 0) --> <svg xmlns="http://www.w3.org/2000/svg" xmlns:xlink="http://www.w3.org/1999/xlink" version="1.1" x="0px" y="0px" viewBox="0 0 285.865 95.779" style="enable-background:new 0 0 285.865 95.779;" xml:space="preserve"> <style type="text/css"> .st0{opacity:0.5;} .st1{opacity:0.25;clip-path:url(#SVGID_00000061463392831755775000000013186268916010722699_);} .st2{fill:none;stroke:#00ABEB;stroke-width:0.15;stroke-miterlimit:10;} .st3{fill:none;stroke:#00ABEB;stroke-width:0.3;stroke-miterlimit:10;} .st4{fill:none;stroke:#00ABEB;stroke-width:0.7;stroke-miterlimit:10;} .st5{opacity:0.05;} .st6{fill:none;stroke:#000000;stroke-miterlimit:10;} .st7{fill:none;stroke:#FF0000;stroke-width:0.7;stroke-linecap:round;stroke-linejoin:round;} .st8{fill:#FF0000;} .st9{fill:none;stroke:#000000;stroke-width:0.3;stroke-miterlimit:10;} .st10{fill:none;stroke:#00B200;stroke-width:1.7954;stroke-miterlimit:10;} .st11{fill:#0000FF;} .st12{fill:none;stroke:#000000;stroke-width:0.7;stroke-miterlimit:10;} </style> <g id="Graph_paper" class="st0"> <g id="Clipped_grid"> <defs> <rect id="SVGID_1_" x="-4.674" y="-4.822" width="293.301" height="107.448"></rect> </defs> <clipPath id="SVGID_00000072997858045908201880000000114053611864805765_"> <use xlink:href="#SVGID_1_" style="overflow:visible;"></use> </clipPath> <g id="Grid_00000060005542146034257920000005065612243763103930_" style="opacity:0.25;clip-path:url(#SVGID_00000072997858045908201880000000114053611864805765_);"> <g id="Horizontal_1_mm"> <line class="st2" x1="-42.923" y1="-88.467" x2="527.038" y2="-88.467"></line> <line class="st2" x1="-42.923" y1="-95.59" x2="527.038" y2="-95.59"></line> <line class="st2" x1="-42.923" y1="331.751" x2="527.038" y2="331.751"></line> <line class="st2" x1="-42.923" y1="324.628" x2="527.038" y2="324.628"></line> <line class="st2" x1="-42.923" y1="317.507" x2="527.038" y2="317.507"></line> <line class="st2" x1="-42.923" y1="310.384" x2="527.038" y2="310.384"></line> <line class="st2" x1="-42.923" y1="303.261" x2="527.038" y2="303.261"></line> <line class="st2" x1="-42.923" y1="296.14" x2="527.038" y2="296.14"></line> <line class="st2" x1="-42.923" y1="289.017" x2="527.038" y2="289.017"></line> <line class="st2" x1="-42.923" y1="281.897" x2="527.038" y2="281.897"></line> <line class="st2" x1="-42.923" y1="274.772" x2="527.038" y2="274.772"></line> <line class="st2" x1="-42.923" y1="267.649" x2="527.038" y2="267.649"></line> <line class="st2" x1="-42.923" y1="260.528" x2="527.038" y2="260.528"></line> <line class="st2" x1="-42.923" y1="253.405" x2="527.038" y2="253.405"></line> <line class="st2" x1="-42.923" y1="246.282" x2="527.038" y2="246.282"></line> <line class="st2" x1="-42.923" y1="239.161" x2="527.038" y2="239.161"></line> <line class="st2" x1="-42.923" y1="232.038" x2="527.038" y2="232.038"></line> <line class="st2" x1="-42.923" y1="224.915" x2="527.038" y2="224.915"></line> <line class="st2" x1="-42.923" y1="217.795" x2="527.038" y2="217.795"></line> <line class="st2" x1="-42.923" y1="210.671" x2="527.038" y2="210.671"></line> <line class="st2" x1="-42.923" y1="203.548" x2="527.038" y2="203.548"></line> <line class="st2" x1="-42.923" y1="196.428" x2="527.038" y2="196.428"></line> <line class="st2" x1="-42.923" y1="189.304" x2="527.038" y2="189.304"></line> <line class="st2" x1="-42.923" y1="182.18" x2="527.038" y2="182.18"></line> <line class="st2" x1="-42.923" y1="175.059" x2="527.038" y2="175.059"></line> <line class="st2" x1="-42.923" y1="167.936" x2="527.038" y2="167.936"></line> <line class="st2" x1="-42.923" y1="160.816" x2="527.038" y2="160.816"></line> <line class="st2" x1="-42.923" y1="153.693" x2="527.038" y2="153.693"></line> <line class="st2" x1="-42.923" y1="146.569" x2="527.038" y2="146.569"></line> <line class="st2" x1="-42.923" y1="139.449" x2="527.038" y2="139.449"></line> <line class="st2" x1="-42.923" y1="132.326" x2="527.038" y2="132.326"></line> <line class="st2" x1="-42.923" y1="125.202" x2="527.038" y2="125.202"></line> <line class="st2" x1="-42.923" y1="118.082" x2="527.038" y2="118.082"></line> <line class="st2" x1="-42.923" y1="110.959" x2="527.038" y2="110.959"></line> <line class="st2" x1="-42.923" y1="103.835" x2="527.038" y2="103.835"></line> <line class="st2" x1="-42.923" y1="96.715" x2="527.038" y2="96.715"></line> <line class="st2" x1="-42.923" y1="89.591" x2="527.038" y2="89.591"></line> <line class="st2" x1="-42.923" y1="82.468" x2="527.038" y2="82.468"></line> <line class="st2" x1="-42.923" y1="75.348" x2="527.038" y2="75.348"></line> <line class="st2" x1="-42.923" y1="68.225" x2="527.038" y2="68.225"></line> <line class="st2" x1="-42.923" y1="61.102" x2="527.038" y2="61.102"></line> <line class="st2" x1="-42.923" y1="53.981" x2="527.038" y2="53.981"></line> <line class="st2" x1="-42.923" y1="46.856" x2="527.038" y2="46.856"></line> <line class="st2" x1="-42.923" y1="39.736" x2="527.038" y2="39.736"></line> <line class="st2" x1="-42.923" y1="32.613" x2="527.038" y2="32.613"></line> <line class="st2" x1="-42.923" y1="25.489" x2="527.038" y2="25.489"></line> <line class="st2" x1="-42.923" y1="18.369" x2="527.038" y2="18.369"></line> <line class="st2" x1="-42.923" y1="11.246" x2="527.038" y2="11.246"></line> <line class="st2" x1="-42.923" y1="4.123" x2="527.038" y2="4.123"></line> <line class="st2" x1="-42.923" y1="-2.998" x2="527.038" y2="-2.998"></line> <line class="st2" x1="-42.923" y1="-10.121" x2="527.038" y2="-10.121"></line> <line class="st2" x1="-42.923" y1="-17.244" x2="527.038" y2="-17.244"></line> <line class="st2" x1="-42.923" y1="-24.365" x2="527.038" y2="-24.365"></line> <line class="st2" x1="-42.923" y1="-31.488" x2="527.038" y2="-31.488"></line> <line class="st2" x1="-42.923" y1="-38.611" x2="527.038" y2="-38.611"></line> <line class="st2" x1="-42.923" y1="-45.732" x2="527.038" y2="-45.732"></line> <line class="st2" x1="-42.923" y1="-52.856" x2="527.038" y2="-52.856"></line> <line class="st2" x1="-42.923" y1="-59.977" x2="527.038" y2="-59.977"></line> <line class="st2" x1="-42.923" y1="-67.1" x2="527.038" y2="-67.1"></line> <line class="st2" x1="-42.923" y1="-74.223" x2="527.038" y2="-74.223"></line> <line class="st2" x1="-42.923" y1="-81.344" x2="527.038" y2="-81.344"></line> </g> <g id="Vertical_1_mm"> <g> <line class="st2" x1="-42.734" y1="331.717" x2="-42.734" y2="-95.779"></line> </g> <line class="st2" x1="-35.613" y1="331.717" x2="-35.613" y2="-95.779"></line> <line class="st2" x1="-28.49" y1="331.717" x2="-28.49" y2="-95.779"></line> <line class="st2" x1="-21.367" y1="331.717" x2="-21.367" y2="-95.779"></line> <line class="st2" x1="-14.246" y1="331.717" x2="-14.246" y2="-95.779"></line> <line class="st2" x1="-7.123" y1="331.717" x2="-7.123" y2="-95.779"></line> <line class="st2" x1="0" y1="331.717" x2="0" y2="-95.779"></line> <line class="st2" x1="7.12" y1="331.717" x2="7.12" y2="-95.779"></line> <line class="st2" x1="14.245" y1="331.717" x2="14.245" y2="-95.779"></line> <line class="st2" x1="21.366" y1="331.717" x2="21.366" y2="-95.779"></line> <line class="st2" x1="28.489" y1="331.717" x2="28.489" y2="-95.779"></line> <line class="st2" x1="35.612" y1="331.717" x2="35.612" y2="-95.779"></line> <line class="st2" x1="42.733" y1="331.717" x2="42.733" y2="-95.779"></line> <line class="st2" x1="49.856" y1="331.717" x2="49.856" y2="-95.779"></line> <line class="st2" x1="56.979" y1="331.717" x2="56.979" y2="-95.779"></line> <line class="st2" x1="64.1" y1="331.717" x2="64.1" y2="-95.779"></line> <line class="st2" x1="71.223" y1="331.717" x2="71.223" y2="-95.779"></line> <line class="st2" x1="78.346" y1="331.717" x2="78.346" y2="-95.779"></line> <line class="st2" x1="85.466" y1="331.717" x2="85.466" y2="-95.779"></line> <line class="st2" x1="92.59" y1="331.717" x2="92.59" y2="-95.779"></line> <line class="st2" x1="99.713" y1="331.717" x2="99.713" y2="-95.779"></line> <line class="st2" x1="106.833" y1="331.717" x2="106.833" y2="-95.779"></line> <line class="st2" x1="113.957" y1="331.717" x2="113.957" y2="-95.779"></line> <line class="st2" x1="121.08" y1="331.717" x2="121.08" y2="-95.779"></line> <line class="st2" x1="128.202" y1="331.717" x2="128.202" y2="-95.779"></line> <line class="st2" x1="135.325" y1="331.717" x2="135.325" y2="-95.779"></line> <line class="st2" x1="142.445" y1="331.717" x2="142.445" y2="-95.779"></line> <line class="st2" x1="149.569" y1="331.717" x2="149.569" y2="-95.779"></line> <line class="st2" x1="156.692" y1="331.717" x2="156.692" y2="-95.779"></line> <line class="st2" x1="163.812" y1="331.717" x2="163.812" y2="-95.779"></line> <line class="st2" x1="170.935" y1="331.717" x2="170.935" y2="-95.779"></line> <line class="st2" x1="178.059" y1="331.717" x2="178.059" y2="-95.779"></line> <line class="st2" x1="185.179" y1="331.717" x2="185.179" y2="-95.779"></line> <line class="st2" x1="192.302" y1="331.717" x2="192.302" y2="-95.779"></line> <line class="st2" x1="199.426" y1="331.717" x2="199.426" y2="-95.779"></line> <line class="st2" x1="206.546" y1="331.717" x2="206.546" y2="-95.779"></line> <line class="st2" x1="213.669" y1="331.717" x2="213.669" y2="-95.779"></line> <line class="st2" x1="220.793" y1="331.717" x2="220.793" y2="-95.779"></line> <line class="st2" x1="227.913" y1="331.717" x2="227.913" y2="-95.779"></line> <line class="st2" x1="235.036" y1="331.717" x2="235.036" y2="-95.779"></line> <line class="st2" x1="242.157" y1="331.717" x2="242.157" y2="-95.779"></line> <line class="st2" x1="249.281" y1="331.717" x2="249.281" y2="-95.779"></line> <line class="st2" x1="256.404" y1="331.717" x2="256.404" y2="-95.779"></line> <line class="st2" x1="263.525" y1="331.717" x2="263.525" y2="-95.779"></line> <line class="st2" x1="270.648" y1="331.717" x2="270.648" y2="-95.779"></line> <line class="st2" x1="277.771" y1="331.717" x2="277.771" y2="-95.779"></line> <line class="st2" x1="284.892" y1="331.717" x2="284.892" y2="-95.779"></line> <line class="st2" x1="292.015" y1="331.717" x2="292.015" y2="-95.779"></line> <line class="st2" x1="299.138" y1="331.717" x2="299.138" y2="-95.779"></line> <line class="st2" x1="306.259" y1="331.717" x2="306.259" y2="-95.779"></line> <line class="st2" x1="313.382" y1="331.717" x2="313.382" y2="-95.779"></line> <line class="st2" x1="320.505" y1="331.717" x2="320.505" y2="-95.779"></line> <line class="st2" x1="327.626" y1="331.717" x2="327.626" y2="-95.779"></line> <line class="st2" x1="334.749" y1="331.717" x2="334.749" y2="-95.779"></line> <line class="st2" x1="341.872" y1="331.717" x2="341.872" y2="-95.779"></line> <line class="st2" x1="348.993" y1="331.717" x2="348.993" y2="-95.779"></line> <line class="st2" x1="356.117" y1="331.717" x2="356.117" y2="-95.779"></line> <line class="st2" x1="363.238" y1="331.717" x2="363.238" y2="-95.779"></line> <line class="st2" x1="370.361" y1="331.717" x2="370.361" y2="-95.779"></line> <line class="st2" x1="377.484" y1="331.717" x2="377.484" y2="-95.779"></line> <line class="st2" x1="384.605" y1="331.717" x2="384.605" y2="-95.779"></line> <line class="st2" x1="391.728" y1="331.717" x2="391.728" y2="-95.779"></line> <line class="st2" x1="398.851" y1="331.717" x2="398.851" y2="-95.779"></line> <line class="st2" x1="405.972" y1="331.717" x2="405.972" y2="-95.779"></line> <line class="st2" x1="413.095" y1="331.717" x2="413.095" y2="-95.779"></line> <line class="st2" x1="420.218" y1="331.717" x2="420.218" y2="-95.779"></line> <line class="st2" x1="427.339" y1="331.717" x2="427.339" y2="-95.779"></line> <line class="st2" x1="434.462" y1="331.717" x2="434.462" y2="-95.779"></line> <line class="st2" x1="441.585" y1="331.717" x2="441.585" y2="-95.779"></line> <line class="st2" x1="448.706" y1="331.717" x2="448.706" y2="-95.779"></line> <line class="st2" x1="455.829" y1="331.717" x2="455.829" y2="-95.779"></line> <line class="st2" x1="462.952" y1="331.717" x2="462.952" y2="-95.779"></line> <line class="st2" x1="470.074" y1="331.717" x2="470.074" y2="-95.779"></line> <line class="st2" x1="477.197" y1="331.717" x2="477.197" y2="-95.779"></line> <line class="st2" x1="484.318" y1="331.717" x2="484.318" y2="-95.779"></line> <line class="st2" x1="491.441" y1="331.717" x2="491.441" y2="-95.779"></line> <line class="st2" x1="498.564" y1="331.717" x2="498.564" y2="-95.779"></line> <line class="st2" x1="505.685" y1="331.717" x2="505.685" y2="-95.779"></line> <line class="st2" x1="512.808" y1="331.717" x2="512.808" y2="-95.779"></line> <line class="st2" x1="519.931" y1="331.717" x2="519.931" y2="-95.779"></line> <line class="st2" x1="527.052" y1="331.717" x2="527.052" y2="-95.779"></line> </g> <g id="Horizontal_5_mm_1_"> <line class="st3" x1="-43.614" y1="331.751" x2="527.038" y2="331.751"></line> <line class="st3" x1="-43.614" y1="296.14" x2="527.038" y2="296.14"></line> <line class="st3" x1="-43.614" y1="260.528" x2="527.038" y2="260.528"></line> <line class="st3" x1="-43.614" y1="224.915" x2="527.038" y2="224.915"></line> <line class="st3" x1="-43.614" y1="189.304" x2="527.038" y2="189.304"></line> <line class="st3" x1="-43.614" y1="153.693" x2="527.038" y2="153.693"></line> <line class="st3" x1="-43.614" y1="118.082" x2="527.038" y2="118.082"></line> <line class="st3" x1="-43.614" y1="82.468" x2="527.038" y2="82.468"></line> <line class="st3" x1="-43.614" y1="46.856" x2="527.038" y2="46.856"></line> <line class="st3" x1="-43.614" y1="11.246" x2="527.038" y2="11.246"></line> <line class="st3" x1="-43.614" y1="-24.365" x2="527.038" y2="-24.365"></line> </g> <g id="Vertical_5_mm"> <line class="st3" x1="-42.734" y1="331.717" x2="-42.734" y2="-96.47"></line> <line class="st3" x1="-7.123" y1="331.717" x2="-7.123" y2="-96.47"></line> <line class="st3" x1="28.489" y1="331.717" x2="28.489" y2="-96.47"></line> <line class="st3" x1="64.1" y1="331.717" x2="64.1" y2="-96.47"></line> <line class="st3" x1="99.713" y1="331.717" x2="99.713" y2="-96.47"></line> <line class="st3" x1="135.325" y1="331.717" x2="135.325" y2="-96.47"></line> <line class="st3" x1="170.935" y1="331.717" x2="170.935" y2="-96.47"></line> <line class="st3" x1="206.546" y1="331.717" x2="206.546" y2="-96.47"></line> <line class="st3" x1="242.157" y1="331.717" x2="242.157" y2="-96.47"></line> <line class="st3" x1="277.771" y1="331.717" x2="277.771" y2="-96.47"></line> <line class="st3" x1="313.382" y1="331.717" x2="313.382" y2="-96.47"></line> <line class="st3" x1="348.993" y1="331.717" x2="348.993" y2="-96.47"></line> <line class="st3" x1="384.605" y1="331.717" x2="384.605" y2="-96.47"></line> <line class="st3" x1="420.218" y1="331.717" x2="420.218" y2="-96.47"></line> <line class="st3" x1="455.829" y1="331.717" x2="455.829" y2="-96.47"></line> <line class="st3" x1="491.441" y1="331.717" x2="491.441" y2="-96.47"></line> <line class="st3" x1="527.052" y1="331.717" x2="527.052" y2="-96.47"></line> </g> <g id="Horizontal_10_mm"> <line id="_x31_9_1_" class="st4" x1="-43.614" y1="331.751" x2="527.038" y2="331.751"></line> <line id="_x32_0" class="st4" x1="-43.614" y1="260.528" x2="527.038" y2="260.528"></line> <line id="_x32_1" class="st4" x1="-43.614" y1="189.304" x2="527.038" y2="189.304"></line> <line id="_x32_2" class="st4" x1="-43.614" y1="118.082" x2="527.038" y2="118.082"></line> <line id="_x32_3" class="st4" x1="-43.614" y1="46.856" x2="527.038" y2="46.856"></line> <line id="_x32_4" class="st4" x1="-43.614" y1="-24.365" x2="527.038" y2="-24.365"></line> <line id="_x32_5" class="st4" x1="-43.614" y1="-95.59" x2="527.038" y2="-95.59"></line> </g> <g id="Vertical_10_mm"> <line id="_x30_" class="st4" x1="-42.734" y1="331.717" x2="-42.734" y2="-96.47"></line> <line id="_x31_" class="st4" x1="28.489" y1="331.717" x2="28.489" y2="-96.47"></line> <line id="_x32_" class="st4" x1="99.713" y1="331.717" x2="99.713" y2="-96.47"></line> <line id="_x33_" class="st4" x1="170.935" y1="331.717" x2="170.935" y2="-96.47"></line> <line id="_x34_" class="st4" x1="242.157" y1="331.717" x2="242.157" y2="-96.47"></line> <line id="_x35_" class="st4" x1="313.382" y1="331.717" x2="313.382" y2="-96.47"></line> <line id="_x36_" class="st4" x1="384.605" y1="331.717" x2="384.605" y2="-96.47"></line> <line id="_x37_" class="st4" x1="455.829" y1="331.717" x2="455.829" y2="-96.47"></line> <line id="_x38_" class="st4" x1="527.052" y1="331.717" x2="527.052" y2="-96.47"></line> </g> </g> </g> </g> <g id="Leyden_jar_2"> <rect x="66.461" y="25.791" class="st5" width="118.719" height="42.626"></rect> <line class="st6" x1="66.461" y1="25.791" x2="185.179" y2="25.791"></line> <line class="st6" x1="66.461" y1="68.417" x2="185.179" y2="68.417"></line> <g id="E_vectors_00000159445760926545561910000011963396351350366393_"> <g> <g> <line class="st7" x1="94.049" y1="27.24" x2="94.049" y2="66.787"></line> <g> <polygon class="st8" points="91.187,64.468 91.699,63.99 94.049,66.519 96.399,63.99 96.912,64.468 94.049,67.546 "></polygon> </g> </g> </g> </g> <g> <g> <line class="st9" x1="60.387" y1="25.752" x2="60.387" y2="68.556"></line> <g> <rect x="59.412" y="25.602" width="1.95" height="0.3"></rect> </g> <g> <rect x="59.412" y="68.406" width="1.95" height="0.3"></rect> </g> </g> </g> <g> <path class="st8" d="M103.83,45.658l-0.242-0.022c0.022-0.187,0.033-0.363,0.033-0.506c0-0.66-0.385-0.803-2.112-0.803 c-0.627,0-0.737,0.044-0.803,0.286l-0.727,2.563h0.858c0.99,0,1.111-0.132,1.529-1.067l0.198,0.044l-0.748,2.552l-0.221-0.055 c0.056-0.242,0.077-0.374,0.077-0.572c0-0.187-0.021-0.286-0.077-0.341c-0.121-0.11-0.418-0.165-0.857-0.165h-0.858l-0.353,1.232 c-0.274,0.968-0.396,1.474-0.396,1.606c0,0.264,0.253,0.374,0.869,0.374c1.078,0,1.672-0.132,2.233-0.429 c0.352-0.187,0.616-0.495,1.034-1.078l0.176,0.088l-0.683,1.782h-5.577v-0.176c0.616-0.11,0.715-0.176,0.891-0.814l1.354-4.863 c0.066-0.22,0.121-0.572,0.121-0.704c0-0.297-0.165-0.385-0.848-0.451v-0.176h5.468L103.83,45.658z"></path> <path class="st8" d="M106.621,52.465c0.058,0.116,0.058,0.218,0.058,0.327c0,0.539-0.589,1.051-1.186,1.051 c-0.07,0-0.141-0.007-0.198-0.02c-0.02-0.006-0.032-0.006-0.045-0.006c-0.109,0-0.23,0.128-0.23,0.263 c0,0.115,0.173,0.198,0.455,0.269c0.615,0.147,0.91,0.43,0.91,0.814c0,0.558-0.494,0.968-1.347,0.968 c-0.653,0-1.069-0.231-1.069-0.692c0-0.327,0.121-0.5,0.749-0.878c-0.115-0.07-0.173-0.167-0.173-0.25 c0-0.186,0.147-0.378,0.493-0.538c-0.358-0.129-0.506-0.359-0.506-0.692c0-0.654,0.641-1.096,1.288-1.096 c0.243,0,0.455,0.058,0.628,0.179c0.052,0.039,0.083,0.051,0.103,0.051h0.385v0.25H106.621z M105.083,54.702 c-0.083-0.025-0.147-0.045-0.218-0.07c-0.058,0-0.326,0.218-0.416,0.333c-0.097,0.122-0.129,0.225-0.129,0.372 c0,0.448,0.302,0.653,0.814,0.653c0.519,0,0.865-0.275,0.865-0.603C106,55.092,105.77,54.914,105.083,54.702z M105.814,52.126 c-0.397,0-0.782,0.468-0.782,1.103c0,0.301,0.141,0.48,0.385,0.48c0.218,0,0.391-0.115,0.544-0.378 c0.129-0.218,0.212-0.481,0.212-0.75C106.173,52.241,106.051,52.126,105.814,52.126z"></path> </g> <g> <path d="M19.978,42.851l-0.429,1.672l-0.66,2.409c-0.342,1.254-0.716,2.531-0.716,2.707c0,0.132,0.056,0.22,0.198,0.22 c0.188,0,0.309-0.099,0.902-0.781l0.132,0.11c-0.539,0.803-1.067,1.254-1.617,1.254c-0.286,0-0.451-0.198-0.451-0.495 c0-0.253,0.022-0.429,0.144-0.979c-0.649,1.089-1.211,1.452-1.959,1.452c-0.715,0-1.177-0.451-1.177-1.287 c0-1.782,1.782-3.686,3.213-3.686c0.462,0,0.648,0.209,0.715,0.638h0.011l0.495-1.793c0.165-0.583,0.154-0.627,0.154-0.781 c0-0.231-0.1-0.264-0.704-0.286v-0.187c0.704-0.066,1.1-0.132,1.683-0.253L19.978,42.851z M17.58,45.701 c-0.308,0-0.693,0.187-1.001,0.506c-0.727,0.771-1.276,1.969-1.276,2.883c0,0.506,0.253,0.803,0.639,0.803 c1.012,0,2.156-1.892,2.156-3.564C18.097,45.932,17.833,45.701,17.58,45.701z"></path> <path d="M22.384,51.617c0.058,0.116,0.058,0.218,0.058,0.327c0,0.538-0.589,1.051-1.186,1.051c-0.07,0-0.141-0.006-0.198-0.019 c-0.02-0.006-0.032-0.006-0.045-0.006c-0.109,0-0.23,0.128-0.23,0.263c0,0.115,0.173,0.198,0.455,0.269 c0.615,0.147,0.91,0.43,0.91,0.814c0,0.558-0.494,0.968-1.347,0.968c-0.653,0-1.069-0.231-1.069-0.692 c0-0.327,0.121-0.5,0.749-0.878c-0.115-0.07-0.173-0.167-0.173-0.25c0-0.186,0.147-0.378,0.493-0.538 c-0.358-0.128-0.506-0.359-0.506-0.692c0-0.654,0.641-1.096,1.288-1.096c0.243,0,0.455,0.058,0.628,0.179 c0.052,0.039,0.083,0.051,0.103,0.051h0.385v0.25H22.384z M20.846,53.853c-0.083-0.025-0.147-0.045-0.218-0.07 c-0.058,0-0.326,0.218-0.416,0.333c-0.097,0.122-0.129,0.225-0.129,0.372c0,0.448,0.302,0.653,0.814,0.653 c0.519,0,0.865-0.275,0.865-0.603C21.763,54.244,21.533,54.065,20.846,53.853z M21.578,51.277c-0.397,0-0.782,0.468-0.782,1.102 c0,0.301,0.141,0.481,0.385,0.481c0.218,0,0.391-0.116,0.544-0.378c0.129-0.218,0.212-0.48,0.212-0.75 C21.936,51.393,21.814,51.277,21.578,51.277z"></path> <path d="M23.415,46.779v-0.726h6.479v0.726H23.415z M23.415,48.979v-0.726h6.479v0.726H23.415z"></path> <path d="M30.917,44.645c0.319-1.045,1.012-1.782,2.156-1.782c1.023,0,1.716,0.605,1.716,1.507c0,0.528-0.285,1.078-1.022,1.518 c0.483,0.209,0.682,0.341,0.913,0.583c0.308,0.341,0.483,0.847,0.483,1.419c0,0.583-0.187,1.122-0.506,1.54 c-0.527,0.704-1.573,1.023-2.552,1.023c-0.804,0-1.232-0.231-1.232-0.627c0-0.231,0.198-0.396,0.451-0.396 c0.187,0,0.363,0.066,0.671,0.286c0.407,0.286,0.638,0.341,0.946,0.341c0.813,0,1.43-0.748,1.43-1.683 c0-0.836-0.385-1.375-1.144-1.595c-0.242-0.077-0.495-0.11-1.122-0.11v-0.154c0.418-0.143,0.704-0.264,0.924-0.396 c0.539-0.308,0.891-0.803,0.891-1.474c0-0.748-0.462-1.122-1.188-1.122c-0.683,0-1.188,0.352-1.64,1.166L30.917,44.645z"></path> <path d="M44.799,50.299v-0.165c0.616-0.066,0.715-0.187,0.715-0.825v-2.266c0-0.869-0.22-1.232-0.847-1.232 c-0.518,0-0.848,0.198-1.178,0.671v2.772c0,0.715,0.165,0.869,0.792,0.88v0.165h-2.464v-0.165c0.627-0.044,0.748-0.11,0.748-0.781 v-2.321c0-0.759-0.242-1.221-0.715-1.221c-0.407,0-0.946,0.209-1.166,0.473c-0.077,0.088-0.144,0.165-0.144,0.187v3.059 c0,0.473,0.165,0.583,0.748,0.605v0.165h-2.442v-0.165c0.616-0.011,0.771-0.165,0.771-0.803v-2.729c0-0.539-0.1-0.726-0.385-0.726 c-0.121,0-0.21,0.011-0.353,0.044v-0.187c0.605-0.165,0.968-0.286,1.529-0.495l0.088,0.033v0.814h0.022 c0.726-0.749,1.188-0.847,1.683-0.847c0.595,0,0.969,0.297,1.166,0.924c0.595-0.638,1.155-0.924,1.794-0.924 c0.891,0,1.276,0.682,1.276,1.98v2.233c0,0.495,0.143,0.638,0.473,0.66l0.286,0.022v0.165H44.799z"></path> <path d="M53.357,50.299v-0.165c0.616-0.066,0.715-0.187,0.715-0.825v-2.266c0-0.869-0.22-1.232-0.847-1.232 c-0.518,0-0.848,0.198-1.178,0.671v2.772c0,0.715,0.165,0.869,0.792,0.88v0.165h-2.464v-0.165c0.627-0.044,0.748-0.11,0.748-0.781 v-2.321c0-0.759-0.242-1.221-0.715-1.221c-0.407,0-0.946,0.209-1.166,0.473c-0.077,0.088-0.144,0.165-0.144,0.187v3.059 c0,0.473,0.165,0.583,0.748,0.605v0.165h-2.442v-0.165c0.616-0.011,0.771-0.165,0.771-0.803v-2.729c0-0.539-0.1-0.726-0.385-0.726 c-0.121,0-0.209,0.011-0.353,0.044v-0.187c0.605-0.165,0.968-0.286,1.529-0.495l0.088,0.033v0.814h0.022 c0.726-0.749,1.188-0.847,1.683-0.847c0.595,0,0.969,0.297,1.166,0.924c0.595-0.638,1.155-0.924,1.794-0.924 c0.891,0,1.276,0.682,1.276,1.98v2.233c0,0.495,0.143,0.638,0.473,0.66l0.286,0.022v0.165H53.357z"></path> </g> <line class="st10" x1="66.461" y1="11.246" x2="185.179" y2="11.246"></line> <line class="st10" x1="66.461" y1="82.468" x2="185.179" y2="82.468"></line> <g> <path class="st8" d="M111.13,15.179l-0.242-0.022c0.022-0.187,0.033-0.363,0.033-0.506c0-0.66-0.385-0.803-2.112-0.803 c-0.627,0-0.737,0.044-0.803,0.286l-0.727,2.563h0.858c0.99,0,1.111-0.132,1.529-1.067l0.198,0.044l-0.748,2.552l-0.221-0.055 c0.056-0.242,0.077-0.374,0.077-0.572c0-0.187-0.021-0.286-0.077-0.341c-0.121-0.11-0.418-0.165-0.857-0.165h-0.858l-0.353,1.232 c-0.274,0.968-0.396,1.474-0.396,1.606c0,0.264,0.253,0.374,0.869,0.374c1.078,0,1.672-0.132,2.233-0.429 c0.352-0.187,0.616-0.495,1.034-1.078l0.176,0.088l-0.683,1.782h-5.577v-0.176c0.616-0.11,0.715-0.176,0.891-0.814l1.354-4.863 c0.066-0.22,0.121-0.572,0.121-0.704c0-0.297-0.165-0.385-0.848-0.451v-0.176h5.468L111.13,15.179z"></path> <path class="st8" d="M114.268,23.691c-0.48,0.583-0.635,0.705-0.891,0.705c-0.18,0-0.257-0.077-0.257-0.263 c0-0.16,0.013-0.211,0.147-0.737c-0.48,0.724-0.853,1.006-1.301,1.006c-0.359,0-0.641-0.256-0.641-0.743 c0-0.994,0.98-2.153,1.832-2.153c0.276,0,0.462,0.134,0.513,0.372l0.071-0.308l0.019-0.019l0.392-0.045l0.045,0.019 c-0.014,0.058-0.02,0.071-0.039,0.135c-0.301,1.096-0.57,2.198-0.57,2.326c0,0.045,0.038,0.083,0.09,0.083 c0.058,0,0.141-0.051,0.333-0.263l0.173-0.186L114.268,23.691z M113.197,21.647c-0.288,0-0.57,0.198-0.84,0.589 c-0.269,0.404-0.493,0.974-0.493,1.378c0,0.353,0.153,0.474,0.385,0.474c0.32,0,0.621-0.353,0.813-0.628 c0.301-0.436,0.493-0.987,0.493-1.442C113.556,21.794,113.421,21.647,113.197,21.647z"></path> </g> <g id="E_vectors_00000104707113371059416050000013394661439766258072_"> <g> <g> <line class="st7" x1="101.945" y1="12.983" x2="101.945" y2="24.149"></line> <g> <polygon class="st8" points="99.082,21.829 99.595,21.352 101.944,23.88 104.295,21.352 104.807,21.829 101.944,24.908 "></polygon> </g> </g> </g> </g> <g> <path class="st8" d="M111.13,71.676l-0.242-0.021c0.022-0.188,0.033-0.363,0.033-0.507c0-0.659-0.385-0.803-2.112-0.803 c-0.627,0-0.737,0.044-0.803,0.286l-0.727,2.563h0.858c0.99,0,1.111-0.132,1.529-1.067l0.198,0.044l-0.748,2.553l-0.221-0.056 c0.056-0.241,0.077-0.374,0.077-0.571c0-0.188-0.021-0.286-0.077-0.342c-0.121-0.109-0.418-0.165-0.857-0.165h-0.858l-0.353,1.232 c-0.274,0.969-0.396,1.475-0.396,1.606c0,0.264,0.253,0.374,0.869,0.374c1.078,0,1.672-0.132,2.233-0.429 c0.352-0.188,0.616-0.495,1.034-1.078l0.176,0.088l-0.683,1.782h-5.577V76.99c0.616-0.109,0.715-0.176,0.891-0.813l1.354-4.863 c0.066-0.22,0.121-0.571,0.121-0.704c0-0.297-0.165-0.385-0.848-0.45v-0.177h5.468L111.13,71.676z"></path> <path class="st8" d="M114.268,80.188c-0.48,0.584-0.635,0.705-0.891,0.705c-0.18,0-0.257-0.076-0.257-0.263 c0-0.16,0.013-0.211,0.147-0.736c-0.48,0.724-0.853,1.006-1.301,1.006c-0.359,0-0.641-0.257-0.641-0.743 c0-0.994,0.98-2.153,1.832-2.153c0.276,0,0.462,0.134,0.513,0.371l0.071-0.308l0.019-0.019l0.392-0.045l0.045,0.019 c-0.014,0.058-0.02,0.071-0.039,0.135c-0.301,1.096-0.57,2.198-0.57,2.326c0,0.045,0.038,0.084,0.09,0.084 c0.058,0,0.141-0.052,0.333-0.263l0.173-0.187L114.268,80.188z M113.197,78.144c-0.288,0-0.57,0.198-0.84,0.59 c-0.269,0.403-0.493,0.974-0.493,1.378c0,0.353,0.153,0.474,0.385,0.474c0.32,0,0.621-0.353,0.813-0.628 c0.301-0.436,0.493-0.986,0.493-1.441C113.556,78.292,113.421,78.144,113.197,78.144z"></path> </g> <g id="E_vectors_00000169521978251314910900000015523149997379094204_"> <g> <g> <line class="st7" x1="101.945" y1="69.48" x2="101.945" y2="80.646"></line> <g> <polygon class="st8" points="99.082,78.327 99.595,77.849 101.944,80.378 104.295,77.849 104.807,78.327 101.944,81.405 "></polygon> </g> </g> </g> </g> <g> <g> <line class="st9" x1="56.964" y1="12.101" x2="56.964" y2="25.452"></line> <g> <rect x="55.989" y="11.951" width="1.95" height="0.3"></rect> </g> <g> <rect x="55.989" y="25.302" width="1.95" height="0.3"></rect> </g> </g> </g> <g> <g> <line class="st9" x1="56.964" y1="68.443" x2="56.964" y2="81.794"></line> <g> <rect x="55.989" y="68.293" width="1.95" height="0.3"></rect> </g> <g> <rect x="55.989" y="81.644" width="1.95" height="0.3"></rect> </g> </g> </g> <g> <path d="M19.813,13.845l-0.429,1.672l-0.66,2.409c-0.342,1.254-0.716,2.531-0.716,2.707c0,0.132,0.056,0.22,0.198,0.22 c0.188,0,0.309-0.099,0.902-0.781l0.132,0.11c-0.539,0.803-1.067,1.254-1.617,1.254c-0.286,0-0.451-0.198-0.451-0.495 c0-0.253,0.022-0.429,0.144-0.979c-0.649,1.089-1.211,1.452-1.959,1.452c-0.715,0-1.177-0.451-1.177-1.287 c0-1.782,1.782-3.686,3.213-3.686c0.462,0,0.648,0.209,0.715,0.638h0.011l0.495-1.793c0.165-0.583,0.154-0.627,0.154-0.781 c0-0.231-0.1-0.264-0.704-0.286v-0.187c0.704-0.066,1.1-0.132,1.683-0.253L19.813,13.845z M17.415,16.694 c-0.308,0-0.693,0.187-1.001,0.506c-0.727,0.771-1.276,1.969-1.276,2.883c0,0.506,0.253,0.803,0.639,0.803 c1.012,0,2.156-1.892,2.156-3.564C17.932,16.925,17.668,16.694,17.415,16.694z"></path> <path d="M22.566,24.315c-0.48,0.583-0.635,0.705-0.891,0.705c-0.18,0-0.257-0.077-0.257-0.263c0-0.16,0.013-0.211,0.147-0.737 c-0.48,0.724-0.853,1.006-1.301,1.006c-0.359,0-0.641-0.256-0.641-0.743c0-0.994,0.98-2.153,1.832-2.153 c0.276,0,0.462,0.134,0.513,0.372l0.071-0.308l0.019-0.019l0.392-0.045l0.045,0.019c-0.014,0.058-0.02,0.071-0.039,0.135 c-0.301,1.096-0.57,2.198-0.57,2.326c0,0.045,0.038,0.083,0.09,0.083c0.058,0,0.141-0.051,0.333-0.263l0.173-0.186L22.566,24.315z M21.496,22.271c-0.288,0-0.57,0.198-0.84,0.589c-0.269,0.404-0.493,0.974-0.493,1.378c0,0.353,0.153,0.474,0.385,0.474 c0.32,0,0.621-0.353,0.813-0.628c0.301-0.436,0.493-0.987,0.493-1.442C21.854,22.418,21.719,22.271,21.496,22.271z"></path> <path d="M23.256,17.772v-0.726h6.479v0.726H23.256z M23.256,19.973v-0.726h6.479v0.726H23.256z"></path> <path d="M31.561,21.293v-0.165c0.814-0.044,1.046-0.275,1.046-0.88v-4.94c0-0.374-0.1-0.539-0.33-0.539 c-0.11,0-0.298,0.055-0.495,0.132l-0.298,0.11v-0.154l1.97-1.001l0.099,0.033v6.568c0,0.473,0.221,0.671,1.046,0.671v0.165H31.561 z"></path> <path d="M44.641,21.293v-0.165c0.616-0.066,0.715-0.187,0.715-0.825v-2.266c0-0.869-0.22-1.232-0.847-1.232 c-0.518,0-0.848,0.198-1.178,0.671v2.772c0,0.715,0.165,0.869,0.792,0.88v0.165H41.66v-0.165c0.627-0.044,0.748-0.11,0.748-0.781 v-2.321c0-0.759-0.242-1.221-0.715-1.221c-0.407,0-0.946,0.209-1.166,0.473c-0.077,0.088-0.144,0.165-0.144,0.187v3.059 c0,0.473,0.165,0.583,0.748,0.605v0.165h-2.442v-0.165c0.616-0.011,0.771-0.165,0.771-0.803v-2.729c0-0.539-0.1-0.726-0.385-0.726 c-0.121,0-0.209,0.011-0.353,0.044v-0.187c0.605-0.165,0.968-0.286,1.529-0.495l0.088,0.033v0.814h0.022 c0.726-0.749,1.188-0.847,1.683-0.847c0.595,0,0.969,0.297,1.166,0.924c0.595-0.638,1.155-0.924,1.794-0.924 c0.891,0,1.276,0.682,1.276,1.98v2.233c0,0.495,0.143,0.638,0.473,0.66l0.286,0.022v0.165H44.641z"></path> <path d="M53.199,21.293v-0.165c0.616-0.066,0.715-0.187,0.715-0.825v-2.266c0-0.869-0.22-1.232-0.847-1.232 c-0.518,0-0.848,0.198-1.178,0.671v2.772c0,0.715,0.165,0.869,0.792,0.88v0.165h-2.464v-0.165c0.627-0.044,0.748-0.11,0.748-0.781 v-2.321c0-0.759-0.242-1.221-0.715-1.221c-0.407,0-0.946,0.209-1.166,0.473c-0.077,0.088-0.144,0.165-0.144,0.187v3.059 c0,0.473,0.165,0.583,0.748,0.605v0.165h-2.442v-0.165c0.616-0.011,0.771-0.165,0.771-0.803v-2.729c0-0.539-0.1-0.726-0.385-0.726 c-0.121,0-0.21,0.011-0.353,0.044v-0.187c0.605-0.165,0.968-0.286,1.529-0.495l0.088,0.033v0.814h0.022 c0.726-0.749,1.188-0.847,1.683-0.847c0.595,0,0.969,0.297,1.166,0.924c0.595-0.638,1.155-0.924,1.794-0.924 c0.891,0,1.276,0.682,1.276,1.98v2.233c0,0.495,0.143,0.638,0.473,0.66l0.286,0.022v0.165H53.199z"></path> </g> <g> <path d="M19.813,70.827l-0.429,1.672l-0.66,2.409c-0.342,1.255-0.716,2.531-0.716,2.707c0,0.132,0.056,0.22,0.198,0.22 c0.188,0,0.309-0.099,0.902-0.781l0.132,0.11c-0.539,0.803-1.067,1.254-1.617,1.254c-0.286,0-0.451-0.198-0.451-0.495 c0-0.253,0.022-0.429,0.144-0.979c-0.649,1.089-1.211,1.452-1.959,1.452c-0.715,0-1.177-0.451-1.177-1.287 c0-1.782,1.782-3.686,3.213-3.686c0.462,0,0.648,0.209,0.715,0.638h0.011l0.495-1.793c0.165-0.583,0.154-0.627,0.154-0.781 c0-0.231-0.1-0.265-0.704-0.286v-0.188c0.704-0.065,1.1-0.132,1.683-0.253L19.813,70.827z M17.415,73.676 c-0.308,0-0.693,0.187-1.001,0.506c-0.727,0.771-1.276,1.969-1.276,2.883c0,0.506,0.253,0.803,0.639,0.803 c1.012,0,2.156-1.893,2.156-3.564C17.932,73.907,17.668,73.676,17.415,73.676z"></path> <path d="M22.566,81.296c-0.48,0.584-0.635,0.705-0.891,0.705c-0.18,0-0.257-0.076-0.257-0.263c0-0.16,0.013-0.211,0.147-0.736 c-0.48,0.724-0.853,1.006-1.301,1.006c-0.359,0-0.641-0.257-0.641-0.743c0-0.994,0.98-2.153,1.832-2.153 c0.276,0,0.462,0.134,0.513,0.371l0.071-0.308l0.019-0.019l0.392-0.045l0.045,0.019c-0.014,0.058-0.02,0.071-0.039,0.135 c-0.301,1.096-0.57,2.198-0.57,2.326c0,0.045,0.038,0.084,0.09,0.084c0.058,0,0.141-0.052,0.333-0.263l0.173-0.187L22.566,81.296z M21.496,79.252c-0.288,0-0.57,0.198-0.84,0.59c-0.269,0.403-0.493,0.974-0.493,1.378c0,0.353,0.153,0.474,0.385,0.474 c0.32,0,0.621-0.353,0.813-0.628c0.301-0.436,0.493-0.986,0.493-1.441C21.854,79.4,21.719,79.252,21.496,79.252z"></path> <path d="M23.256,74.754v-0.727h6.479v0.727H23.256z M23.256,76.955v-0.727h6.479v0.727H23.256z"></path> <path d="M31.561,78.275V78.11c0.814-0.044,1.046-0.275,1.046-0.88v-4.94c0-0.374-0.1-0.539-0.33-0.539 c-0.11,0-0.298,0.056-0.495,0.132l-0.298,0.11v-0.154l1.97-1.001l0.099,0.033v6.568c0,0.473,0.221,0.671,1.046,0.671v0.165H31.561 z"></path> <path d="M44.641,78.275V78.11c0.616-0.066,0.715-0.188,0.715-0.825v-2.267c0-0.869-0.22-1.232-0.847-1.232 c-0.518,0-0.848,0.198-1.178,0.672v2.772c0,0.715,0.165,0.868,0.792,0.88v0.165H41.66V78.11c0.627-0.044,0.748-0.11,0.748-0.781 v-2.321c0-0.759-0.242-1.222-0.715-1.222c-0.407,0-0.946,0.209-1.166,0.474c-0.077,0.088-0.144,0.165-0.144,0.187v3.059 c0,0.474,0.165,0.583,0.748,0.605v0.165h-2.442V78.11c0.616-0.012,0.771-0.165,0.771-0.804v-2.729c0-0.539-0.1-0.726-0.385-0.726 c-0.121,0-0.209,0.011-0.353,0.044V73.71c0.605-0.165,0.968-0.286,1.529-0.495l0.088,0.032v0.814h0.022 c0.726-0.748,1.188-0.847,1.683-0.847c0.595,0,0.969,0.297,1.166,0.924c0.595-0.639,1.155-0.924,1.794-0.924 c0.891,0,1.276,0.682,1.276,1.979v2.233c0,0.495,0.143,0.639,0.473,0.66l0.286,0.022v0.165H44.641z"></path> <path d="M53.199,78.275V78.11c0.616-0.066,0.715-0.188,0.715-0.825v-2.267c0-0.869-0.22-1.232-0.847-1.232 c-0.518,0-0.848,0.198-1.178,0.672v2.772c0,0.715,0.165,0.868,0.792,0.88v0.165h-2.464V78.11c0.627-0.044,0.748-0.11,0.748-0.781 v-2.321c0-0.759-0.242-1.222-0.715-1.222c-0.407,0-0.946,0.209-1.166,0.474c-0.077,0.088-0.144,0.165-0.144,0.187v3.059 c0,0.474,0.165,0.583,0.748,0.605v0.165h-2.442V78.11c0.616-0.012,0.771-0.165,0.771-0.804v-2.729c0-0.539-0.1-0.726-0.385-0.726 c-0.121,0-0.21,0.011-0.353,0.044V73.71c0.605-0.165,0.968-0.286,1.529-0.495l0.088,0.032v0.814h0.022 c0.726-0.748,1.188-0.847,1.683-0.847c0.595,0,0.969,0.297,1.166,0.924c0.595-0.639,1.155-0.924,1.794-0.924 c0.891,0,1.276,0.682,1.276,1.979v2.233c0,0.495,0.143,0.639,0.473,0.66l0.286,0.022v0.165H53.199z"></path> </g> <g> <path class="st11" d="M72.407,19.569c-0.824,1.001-1.089,1.21-1.528,1.21c-0.309,0-0.44-0.132-0.44-0.451 c0-0.275,0.021-0.363,0.253-1.266c-0.825,1.243-1.463,1.728-2.233,1.728c-0.616,0-1.1-0.44-1.1-1.276 c0-1.705,1.683-3.696,3.146-3.696c0.474,0,0.793,0.231,0.881,0.638l0.121-0.528l0.032-0.033l0.672-0.077l0.077,0.033 c-0.022,0.099-0.033,0.121-0.066,0.231c-0.518,1.881-0.979,3.774-0.979,3.994c0,0.077,0.066,0.143,0.154,0.143 c0.099,0,0.242-0.088,0.572-0.451l0.297-0.319L72.407,19.569z M70.57,16.059c-0.495,0-0.979,0.341-1.441,1.012 c-0.462,0.693-0.847,1.672-0.847,2.366c0,0.605,0.264,0.814,0.66,0.814c0.55,0,1.067-0.605,1.397-1.078 c0.517-0.748,0.847-1.694,0.847-2.476C71.187,16.313,70.955,16.059,70.57,16.059z"></path> <path class="st11" d="M75.267,19.536c-0.604,0.924-0.957,1.254-1.507,1.254c-0.363,0-0.539-0.198-0.539-0.605 c0-0.22,0.077-0.605,0.242-1.221l0.528-1.947c0.055-0.198,0.099-0.396,0.099-0.484c0-0.22-0.11-0.253-0.704-0.264v-0.176 c0.429-0.033,0.649-0.066,1.761-0.275l0.044,0.033l-1.034,3.774c-0.056,0.187-0.11,0.33-0.11,0.484 c0,0.11,0.066,0.165,0.154,0.165c0.187,0,0.451-0.231,0.924-0.858L75.267,19.536z M75.047,14.64c-0.319,0-0.528-0.231-0.528-0.583 c0-0.341,0.221-0.583,0.518-0.583s0.55,0.286,0.55,0.605C75.586,14.387,75.333,14.64,75.047,14.64z"></path> <path class="st11" d="M77.852,17.831c0.209-0.462,0.583-1.045,1.034-1.518c0.286-0.297,0.616-0.495,0.869-0.495 c0.308,0,0.517,0.231,0.517,0.561s-0.187,0.594-0.517,0.594c-0.198,0-0.286-0.121-0.385-0.286c-0.066-0.11-0.1-0.154-0.177-0.154 c-0.197,0-0.506,0.363-0.901,1.034c-0.474,0.814-0.672,1.254-1.222,3.103h-0.836l0.891-3.212c0.154-0.572,0.177-0.671,0.177-0.902 s-0.198-0.286-0.418-0.286c-0.089,0-0.177,0.011-0.342,0.033v-0.187l1.706-0.297l0.032,0.022l-0.604,2.376L77.852,17.831z"></path> </g> <g> <path class="st11" d="M72.407,76.22c-0.824,1.001-1.089,1.21-1.528,1.21c-0.309,0-0.44-0.132-0.44-0.451 c0-0.275,0.021-0.363,0.253-1.266c-0.825,1.243-1.463,1.728-2.233,1.728c-0.616,0-1.1-0.439-1.1-1.276 c0-1.705,1.683-3.696,3.146-3.696c0.474,0,0.793,0.231,0.881,0.639l0.121-0.528l0.032-0.033l0.672-0.077l0.077,0.033 c-0.022,0.099-0.033,0.121-0.066,0.23c-0.518,1.882-0.979,3.774-0.979,3.994c0,0.077,0.066,0.143,0.154,0.143 c0.099,0,0.242-0.088,0.572-0.451l0.297-0.318L72.407,76.22z M70.57,72.71c-0.495,0-0.979,0.341-1.441,1.012 c-0.462,0.693-0.847,1.673-0.847,2.366c0,0.604,0.264,0.813,0.66,0.813c0.55,0,1.067-0.604,1.397-1.078 c0.517-0.748,0.847-1.694,0.847-2.476C71.187,72.963,70.955,72.71,70.57,72.71z"></path> <path class="st11" d="M75.267,76.187c-0.604,0.924-0.957,1.254-1.507,1.254c-0.363,0-0.539-0.198-0.539-0.604 c0-0.221,0.077-0.605,0.242-1.222l0.528-1.947c0.055-0.198,0.099-0.396,0.099-0.484c0-0.22-0.11-0.253-0.704-0.264v-0.176 c0.429-0.033,0.649-0.066,1.761-0.275l0.044,0.033l-1.034,3.773c-0.056,0.188-0.11,0.33-0.11,0.484 c0,0.109,0.066,0.165,0.154,0.165c0.187,0,0.451-0.231,0.924-0.858L75.267,76.187z M75.047,71.292 c-0.319,0-0.528-0.231-0.528-0.583c0-0.342,0.221-0.583,0.518-0.583s0.55,0.285,0.55,0.604 C75.586,71.039,75.333,71.292,75.047,71.292z"></path> <path class="st11" d="M77.852,74.482c0.209-0.462,0.583-1.046,1.034-1.519c0.286-0.297,0.616-0.495,0.869-0.495 c0.308,0,0.517,0.231,0.517,0.562s-0.187,0.594-0.517,0.594c-0.198,0-0.286-0.121-0.385-0.286c-0.066-0.11-0.1-0.154-0.177-0.154 c-0.197,0-0.506,0.363-0.901,1.034c-0.474,0.814-0.672,1.255-1.222,3.103h-0.836l0.891-3.212c0.154-0.572,0.177-0.672,0.177-0.902 c0-0.231-0.198-0.286-0.418-0.286c-0.089,0-0.177,0.011-0.342,0.033v-0.188l1.706-0.297l0.032,0.022l-0.604,2.376L77.852,74.482z"></path> </g> <g> <path class="st11" d="M71.814,44.876c0.099,0.198,0.099,0.374,0.099,0.561c0,0.924-1.012,1.804-2.035,1.804 c-0.121,0-0.242-0.011-0.341-0.033c-0.033-0.011-0.055-0.011-0.077-0.011c-0.187,0-0.396,0.22-0.396,0.451 c0,0.198,0.297,0.341,0.781,0.462c1.056,0.253,1.562,0.737,1.562,1.397c0,0.957-0.847,1.661-2.311,1.661 c-1.122,0-1.837-0.396-1.837-1.188c0-0.561,0.209-0.858,1.287-1.507c-0.198-0.121-0.297-0.286-0.297-0.429 c0-0.319,0.253-0.649,0.847-0.924c-0.615-0.22-0.869-0.616-0.869-1.188c0-1.123,1.101-1.881,2.212-1.881 c0.418,0,0.781,0.099,1.078,0.308c0.088,0.066,0.143,0.088,0.176,0.088h0.66v0.429H71.814z M69.173,48.715 c-0.143-0.044-0.253-0.077-0.374-0.121c-0.099,0-0.561,0.374-0.715,0.572c-0.165,0.209-0.22,0.385-0.22,0.638 c0,0.77,0.517,1.122,1.396,1.122c0.892,0,1.485-0.473,1.485-1.034C70.746,49.386,70.351,49.078,69.173,48.715z M70.428,44.292 c-0.683,0-1.343,0.803-1.343,1.893c0,0.517,0.242,0.825,0.66,0.825c0.374,0,0.671-0.198,0.936-0.649 c0.22-0.374,0.362-0.825,0.362-1.287C71.043,44.49,70.834,44.292,70.428,44.292z"></path> <path class="st11" d="M73.683,47.879c-0.055,0.198-0.088,0.385-0.088,0.473c0,0.132,0.077,0.198,0.188,0.198 c0.165,0,0.418-0.176,0.737-0.627l0.274-0.385l0.154,0.11c-0.66,1.045-1.067,1.375-1.661,1.375c-0.353,0-0.539-0.209-0.539-0.616 c0-0.088,0.011-0.22,0.044-0.33l1.507-5.765c0.033-0.11,0.033-0.176,0.033-0.209c0-0.132-0.187-0.242-0.539-0.242h-0.198v-0.176 c0.649-0.077,1.057-0.154,1.706-0.297l0.065,0.055L73.683,47.879z"></path> <path class="st11" d="M80.591,47.802c-0.824,1.001-1.089,1.21-1.528,1.21c-0.309,0-0.44-0.132-0.44-0.451 c0-0.275,0.021-0.363,0.253-1.266c-0.825,1.243-1.463,1.728-2.233,1.728c-0.616,0-1.1-0.44-1.1-1.276 c0-1.705,1.683-3.696,3.146-3.696c0.474,0,0.793,0.231,0.881,0.638l0.121-0.528l0.032-0.033l0.672-0.077l0.077,0.033 c-0.022,0.099-0.033,0.121-0.066,0.231c-0.518,1.881-0.979,3.774-0.979,3.994c0,0.077,0.066,0.143,0.154,0.143 c0.099,0,0.242-0.088,0.572-0.451l0.297-0.319L80.591,47.802z M78.754,44.292c-0.495,0-0.979,0.341-1.441,1.012 c-0.462,0.693-0.847,1.672-0.847,2.366c0,0.605,0.264,0.814,0.66,0.814c0.55,0,1.067-0.605,1.397-1.078 c0.517-0.748,0.847-1.694,0.847-2.476C79.37,44.545,79.139,44.292,78.754,44.292z"></path> <path class="st11" d="M84.672,45.58h-0.176c-0.11-0.914-0.44-1.276-0.979-1.276c-0.385,0-0.649,0.22-0.649,0.627 c0,0.297,0.165,0.616,0.595,1.122c0.55,0.638,0.748,1.067,0.748,1.497c0,0.913-0.671,1.474-1.585,1.474 c-0.187,0-0.352-0.011-0.604-0.11c-0.209-0.088-0.363-0.099-0.484-0.099s-0.242,0.055-0.319,0.231h-0.176l0.221-1.75h0.176 c0.154,1.045,0.528,1.497,1.1,1.497c0.518,0,0.837-0.308,0.837-0.847c0-0.352-0.188-0.726-0.616-1.265 c-0.474-0.594-0.693-1.089-0.693-1.441c0-0.726,0.517-1.188,1.331-1.188c0.188,0,0.341,0.033,0.616,0.11 c0.209,0.066,0.308,0.077,0.396,0.077c0.165,0,0.241-0.044,0.33-0.198h0.153L84.672,45.58z"></path> <path class="st11" d="M88.951,45.58h-0.176c-0.11-0.914-0.44-1.276-0.979-1.276c-0.385,0-0.649,0.22-0.649,0.627 c0,0.297,0.165,0.616,0.595,1.122c0.55,0.638,0.748,1.067,0.748,1.497c0,0.913-0.671,1.474-1.585,1.474 c-0.187,0-0.352-0.011-0.604-0.11c-0.209-0.088-0.363-0.099-0.484-0.099s-0.242,0.055-0.319,0.231H85.32l0.221-1.75h0.176 c0.154,1.045,0.528,1.497,1.1,1.497c0.518,0,0.837-0.308,0.837-0.847c0-0.352-0.188-0.726-0.616-1.265 c-0.474-0.594-0.693-1.089-0.693-1.441c0-0.726,0.517-1.188,1.331-1.188c0.188,0,0.341,0.033,0.616,0.11 c0.209,0.066,0.308,0.077,0.396,0.077c0.165,0,0.241-0.044,0.33-0.198h0.153L88.951,45.58z"></path> </g> <g> <g> <line class="st12" x1="201.939" y1="11.246" x2="201.939" y2="81.574"></line> <g> <polygon points="199.076,79.255 199.589,78.777 201.938,81.305 204.289,78.777 204.801,79.255 201.938,82.333 "></polygon> </g> </g> </g> <g> <path d="M200.072,66.788l-7.349-4.401V62.1l7.349-1.452V66.788z M194.286,62.871l4.752,2.806v-3.763L194.286,62.871z"></path> <path d="M193.064,52.145c0.011,0.253,0.144,0.43,0.44,0.616l6.766,4.104v0.209l-5.534,0.902c-1.54,0.253-1.595,0.286-1.672,0.902 h-0.176v-2.641h0.176c0.077,0.693,0.188,0.836,0.562,0.836c0.055,0,0.109,0,0.165-0.011l4.873-0.715l-3.96-2.311 c-0.583-0.341-1.057-0.539-1.266-0.539s-0.319,0.187-0.374,0.682h-0.176v-2.035H193.064z"></path> <path d="M196.552,52.047h-0.726v-5.545h0.726V52.047z M198.752,52.047h-0.726v-5.545h0.726V52.047z"></path> <path d="M193.779,43.787c-0.792-0.363-1.144-1.067-1.144-1.881c0-0.858,0.55-1.453,1.342-1.453c0.814,0,1.243,0.451,1.684,1.706 h0.033c0.285-0.748,0.78-1.046,1.584-1.046c0.869,0,1.639,0.396,2.189,1.023c0.473,0.539,0.682,1.243,0.682,2.035 s-0.264,1.222-0.627,1.222c-0.275,0-0.473-0.188-0.473-0.474c0-0.209,0.065-0.407,0.33-0.704c0.253-0.286,0.352-0.571,0.352-0.781 c0-0.362-0.198-0.748-0.506-1.022c-0.341-0.286-0.869-0.418-1.387-0.418c-1.188,0-1.738,0.704-1.738,1.76v0.265h-0.176 c-0.176-0.99-0.33-1.453-0.66-1.926c-0.319-0.462-0.704-0.682-1.166-0.682c-0.605,0-1.001,0.385-1.001,0.968 c0,0.473,0.22,0.836,0.737,1.232L193.779,43.787z"></path> <path d="M199.677,36.592c0.318,0.451,0.473,0.924,0.473,1.387c0,1.122-0.924,1.738-2.453,1.738c-2.586,0-5.061-1.64-5.061-3.367 c0-1.122,0.979-1.749,2.761-1.749C197.014,34.601,198.873,35.46,199.677,36.592z M192.943,36.394c0,0.495,0.33,0.925,1.045,1.32 c1.034,0.572,3.19,1.134,4.368,1.134c0.935,0,1.485-0.363,1.485-0.892c0-0.506-0.374-1.012-1.101-1.419 c-1.122-0.639-2.938-1.067-4.367-1.067C193.493,35.47,192.943,35.734,192.943,36.394z"></path> <path d="M195.54,26.748c0.033,0.517,0.253,0.857,1.694,2.475l0.968-0.407c1.013-0.429,1.419-0.682,1.419-0.891 c0-0.165-0.121-0.297-0.462-0.495c-0.088-0.055-0.187-0.11-0.286-0.165l0.121-0.165c0.925,0.506,1.199,0.781,1.199,1.222 c0,0.318-0.209,0.539-0.902,0.891c-0.385,0.198-1.066,0.484-1.551,0.66l0.352,0.44l1.98,0.527v0.825l-5.809-1.551 c-0.528-0.144-0.781-0.176-0.968-0.198c-0.198,0.022-0.265,0.188-0.265,0.562v0.197h-0.176c-0.077-0.648-0.154-1.078-0.297-1.727 l0.065-0.066l5.018,1.32l-0.363-0.473c-0.792-1.034-1.32-1.573-1.54-1.573c-0.121,0-0.198,0.132-0.198,0.406v0.154h-0.176v-1.969 H195.54z"></path> <path d="M193.064,19.365c0.011,0.253,0.144,0.43,0.44,0.616l6.766,4.104v0.209l-5.534,0.902c-1.54,0.253-1.595,0.286-1.672,0.902 h-0.176v-2.641h0.176c0.077,0.693,0.188,0.836,0.562,0.836c0.055,0,0.109,0,0.165-0.011l4.873-0.715l-3.96-2.311 c-0.583-0.341-1.057-0.539-1.266-0.539s-0.319,0.187-0.374,0.682h-0.176v-2.035H193.064z"></path> </g> <g> </g> <g> </g> </g> </svg> 