<?xml version="1.0" encoding="utf-8"?>
<!-- Generator: Adobe Illustrator 26.0.0, SVG Export Plug-In . SVG Version: 6.00 Build 0)  -->
<svg version="1.1" xmlns="http://www.w3.org/2000/svg" xmlns:xlink="http://www.w3.org/1999/xlink" x="0px" y="0px"
	 viewBox="0 0 62.2822 37.8405" style="enable-background:new 0 0 62.2822 37.8405;" xml:space="preserve">
<style type="text/css">
	.st0{opacity:0.5;}
	.st1{opacity:0.25;clip-path:url(#SVGID_00000019668878177797579820000000854303367307846822_);}
	.st2{fill:none;stroke:#00ABEB;stroke-width:0.2111;stroke-miterlimit:10;}
	.st3{fill:none;stroke:#00ABEB;stroke-width:0.4221;stroke-miterlimit:10;}
	.st4{fill:none;stroke:#00ABEB;stroke-width:0.9849;stroke-miterlimit:10;}
	.st5{fill:none;stroke:#C90D0C;stroke-width:0.432;stroke-linecap:round;stroke-miterlimit:11.3386;}
	.st6{fill:none;stroke:#C90D0C;stroke-width:0.72;stroke-linecap:round;stroke-miterlimit:11.3386;}
	.st7{enable-background:new    ;}
	.st8{fill:#808080;}
	.st9{fill:none;stroke:#000000;stroke-width:0.432;stroke-linecap:round;stroke-linejoin:round;}
	.st10{fill:none;stroke:#C90D0C;stroke-width:1.152;stroke-linecap:round;stroke-miterlimit:11.3386;}
</style>
<g id="Graph_paper" class="st0">
	<g id="Clipped_grid">
		<defs>
			<rect id="SVGID_1_" x="-248.6957" y="-66.6081" width="499.7099" height="213.594"/>
		</defs>
		<clipPath id="SVGID_00000072982118282964147620000000445838924199520920_">
			<use xlink:href="#SVGID_1_"  style="overflow:visible;"/>
		</clipPath>
		
			<g id="Grid_00000060005542146034257920000005065612243763103930_" style="opacity:0.25;clip-path:url(#SVGID_00000072982118282964147620000000445838924199520920_);">
			<g id="Horizontal_1_mm">
				<line class="st2" x1="-271.2817" y1="-151.308" x2="530.677" y2="-151.308"/>
				<line class="st2" x1="-271.2817" y1="-161.3306" x2="530.677" y2="-161.3306"/>
				<line class="st2" x1="-271.2817" y1="439.9564" x2="530.677" y2="439.9564"/>
				<line class="st2" x1="-271.2817" y1="429.9337" x2="530.677" y2="429.9337"/>
				<line class="st2" x1="-271.2817" y1="419.9146" x2="530.677" y2="419.9146"/>
				<line class="st2" x1="-271.2817" y1="409.8922" x2="530.677" y2="409.8922"/>
				<line class="st2" x1="-271.2817" y1="399.8696" x2="530.677" y2="399.8696"/>
				<line class="st2" x1="-271.2817" y1="389.8504" x2="530.677" y2="389.8504"/>
				<line class="st2" x1="-271.2817" y1="379.8281" x2="530.677" y2="379.8281"/>
				<line class="st2" x1="-271.2817" y1="369.809" x2="530.677" y2="369.809"/>
				<line class="st2" x1="-271.2817" y1="359.7845" x2="530.677" y2="359.7845"/>
				<line class="st2" x1="-271.2817" y1="349.7622" x2="530.677" y2="349.7622"/>
				<line class="st2" x1="-271.2817" y1="339.743" x2="530.677" y2="339.743"/>
				<line class="st2" x1="-271.2817" y1="329.7204" x2="530.677" y2="329.7204"/>
				<line class="st2" x1="-271.2817" y1="319.698" x2="530.677" y2="319.698"/>
				<line class="st2" x1="-271.2817" y1="309.6789" x2="530.677" y2="309.6789"/>
				<line class="st2" x1="-271.2817" y1="299.6562" x2="530.677" y2="299.6562"/>
				<line class="st2" x1="-271.2817" y1="289.6339" x2="530.677" y2="289.6339"/>
				<line class="st2" x1="-271.2817" y1="279.6147" x2="530.677" y2="279.6147"/>
				<line class="st2" x1="-271.2817" y1="269.5921" x2="530.677" y2="269.5921"/>
				<line class="st2" x1="-271.2817" y1="259.5694" x2="530.677" y2="259.5694"/>
				<line class="st2" x1="-271.2817" y1="249.5506" x2="530.677" y2="249.5506"/>
				<line class="st2" x1="-271.2817" y1="239.5279" x2="530.677" y2="239.5279"/>
				<line class="st2" x1="-271.2817" y1="229.5038" x2="530.677" y2="229.5038"/>
				<line class="st2" x1="-271.2817" y1="219.4847" x2="530.677" y2="219.4847"/>
				<line class="st2" x1="-271.2817" y1="209.462" x2="530.677" y2="209.462"/>
				<line class="st2" x1="-271.2817" y1="199.4429" x2="530.677" y2="199.4429"/>
				<line class="st2" x1="-271.2817" y1="189.4205" x2="530.677" y2="189.4205"/>
				<line class="st2" x1="-271.2817" y1="179.3979" x2="530.677" y2="179.3979"/>
				<line class="st2" x1="-271.2817" y1="169.3787" x2="530.677" y2="169.3787"/>
				<line class="st2" x1="-271.2817" y1="159.3564" x2="530.677" y2="159.3564"/>
				<line class="st2" x1="-271.2817" y1="149.3337" x2="530.677" y2="149.3337"/>
				<line class="st2" x1="-271.2817" y1="139.3146" x2="530.677" y2="139.3146"/>
				<line class="st2" x1="-271.2817" y1="129.2922" x2="530.677" y2="129.2922"/>
				<line class="st2" x1="-271.2817" y1="119.2696" x2="530.677" y2="119.2696"/>
				<line class="st2" x1="-271.2817" y1="109.2504" x2="530.677" y2="109.2504"/>
				<line class="st2" x1="-271.2817" y1="99.2277" x2="530.677" y2="99.2277"/>
				<line class="st2" x1="-271.2817" y1="89.2054" x2="530.677" y2="89.2054"/>
				<line class="st2" x1="-271.2817" y1="79.1863" x2="530.677" y2="79.1863"/>
				<line class="st2" x1="-271.2817" y1="69.1636" x2="530.677" y2="69.1636"/>
				<line class="st2" x1="-271.2817" y1="59.1413" x2="530.677" y2="59.1413"/>
				<line class="st2" x1="-271.2817" y1="49.1221" x2="530.677" y2="49.1221"/>
				<line class="st2" x1="-271.2817" y1="39.0977" x2="530.677" y2="39.0977"/>
				<line class="st2" x1="-271.2817" y1="29.0789" x2="530.677" y2="29.0789"/>
				<line class="st2" x1="-271.2817" y1="19.0562" x2="530.677" y2="19.0562"/>
				<line class="st2" x1="-271.2817" y1="9.0335" x2="530.677" y2="9.0335"/>
				<line class="st2" x1="-271.2817" y1="-0.9853" x2="530.677" y2="-0.9853"/>
				<line class="st2" x1="-271.2817" y1="-11.008" x2="530.677" y2="-11.008"/>
				<line class="st2" x1="-271.2817" y1="-21.0306" x2="530.677" y2="-21.0306"/>
				<line class="st2" x1="-271.2817" y1="-31.0498" x2="530.677" y2="-31.0498"/>
				<line class="st2" x1="-271.2817" y1="-41.0721" x2="530.677" y2="-41.0721"/>
				<line class="st2" x1="-271.2817" y1="-51.0948" x2="530.677" y2="-51.0948"/>
				<line class="st2" x1="-271.2817" y1="-61.1139" x2="530.677" y2="-61.1139"/>
				<line class="st2" x1="-271.2817" y1="-71.1363" x2="530.677" y2="-71.1363"/>
				<line class="st2" x1="-271.2817" y1="-81.1589" x2="530.677" y2="-81.1589"/>
				<line class="st2" x1="-271.2817" y1="-91.1781" x2="530.677" y2="-91.1781"/>
				<line class="st2" x1="-271.2817" y1="-101.2022" x2="530.677" y2="-101.2022"/>
				<line class="st2" x1="-271.2817" y1="-111.2213" x2="530.677" y2="-111.2213"/>
				<line class="st2" x1="-271.2817" y1="-121.244" x2="530.677" y2="-121.244"/>
				<line class="st2" x1="-271.2817" y1="-131.2664" x2="530.677" y2="-131.2664"/>
				<line class="st2" x1="-271.2817" y1="-141.2855" x2="530.677" y2="-141.2855"/>
			</g>
			<g id="Vertical_1_mm">
				<g>
					<line class="st2" x1="-271.0159" y1="439.9076" x2="-271.0159" y2="-161.5964"/>
				</g>
				<line class="st2" x1="-260.9968" y1="439.9076" x2="-260.9968" y2="-161.5964"/>
				<line class="st2" x1="-250.9743" y1="439.9076" x2="-250.9743" y2="-161.5964"/>
				<line class="st2" x1="-240.9518" y1="439.9076" x2="-240.9518" y2="-161.5964"/>
				<line class="st2" x1="-230.9328" y1="439.9076" x2="-230.9328" y2="-161.5964"/>
				<line class="st2" x1="-220.9101" y1="439.9076" x2="-220.9101" y2="-161.5964"/>
				<line class="st2" x1="-210.8874" y1="439.9076" x2="-210.8874" y2="-161.5964"/>
				<line class="st2" x1="-200.8686" y1="439.9076" x2="-200.8686" y2="-161.5964"/>
				<line class="st2" x1="-190.8442" y1="439.9076" x2="-190.8442" y2="-161.5964"/>
				<line class="st2" x1="-180.825" y1="439.9076" x2="-180.825" y2="-161.5964"/>
				<line class="st2" x1="-170.8027" y1="439.9076" x2="-170.8027" y2="-161.5964"/>
				<line class="st2" x1="-160.78" y1="439.9076" x2="-160.78" y2="-161.5964"/>
				<line class="st2" x1="-150.7609" y1="439.9076" x2="-150.7609" y2="-161.5964"/>
				<line class="st2" x1="-140.7386" y1="439.9076" x2="-140.7386" y2="-161.5964"/>
				<line class="st2" x1="-130.7159" y1="439.9076" x2="-130.7159" y2="-161.5964"/>
				<line class="st2" x1="-120.6967" y1="439.9076" x2="-120.6967" y2="-161.5964"/>
				<line class="st2" x1="-110.6741" y1="439.9076" x2="-110.6741" y2="-161.5964"/>
				<line class="st2" x1="-100.6517" y1="439.9076" x2="-100.6517" y2="-161.5964"/>
				<line class="st2" x1="-90.6326" y1="439.9076" x2="-90.6326" y2="-161.5964"/>
				<line class="st2" x1="-80.6099" y1="439.9076" x2="-80.6099" y2="-161.5964"/>
				<line class="st2" x1="-70.5876" y1="439.9076" x2="-70.5876" y2="-161.5964"/>
				<line class="st2" x1="-60.5684" y1="439.9076" x2="-60.5684" y2="-161.5964"/>
				<line class="st2" x1="-50.5458" y1="439.9076" x2="-50.5458" y2="-161.5964"/>
				<line class="st2" x1="-40.5234" y1="439.9076" x2="-40.5234" y2="-161.5964"/>
				<line class="st2" x1="-30.5025" y1="439.9076" x2="-30.5025" y2="-161.5964"/>
				<line class="st2" x1="-20.4799" y1="439.9076" x2="-20.4799" y2="-161.5964"/>
				<line class="st2" x1="-10.4611" y1="439.9076" x2="-10.4611" y2="-161.5964"/>
				<line class="st2" x1="-0.4384" y1="439.9076" x2="-0.4384" y2="-161.5964"/>
				<line class="st2" x1="9.5843" y1="439.9076" x2="9.5843" y2="-161.5964"/>
				<line class="st2" x1="19.6031" y1="439.9076" x2="19.6031" y2="-161.5964"/>
				<line class="st2" x1="29.6258" y1="439.9076" x2="29.6258" y2="-161.5964"/>
				<line class="st2" x1="39.6484" y1="439.9076" x2="39.6484" y2="-161.5964"/>
				<line class="st2" x1="49.6676" y1="439.9076" x2="49.6676" y2="-161.5964"/>
				<line class="st2" x1="59.6899" y1="439.9076" x2="59.6899" y2="-161.5964"/>
				<line class="st2" x1="69.7126" y1="439.9076" x2="69.7126" y2="-161.5964"/>
				<line class="st2" x1="79.7317" y1="439.9076" x2="79.7317" y2="-161.5964"/>
				<line class="st2" x1="89.7541" y1="439.9076" x2="89.7541" y2="-161.5964"/>
				<line class="st2" x1="99.7767" y1="439.9076" x2="99.7767" y2="-161.5964"/>
				<line class="st2" x1="109.7959" y1="439.9076" x2="109.7959" y2="-161.5964"/>
				<line class="st2" x1="119.8182" y1="439.9076" x2="119.8182" y2="-161.5964"/>
				<line class="st2" x1="129.8373" y1="439.9076" x2="129.8373" y2="-161.5964"/>
				<line class="st2" x1="139.8618" y1="439.9076" x2="139.8618" y2="-161.5964"/>
				<line class="st2" x1="149.8841" y1="439.9076" x2="149.8841" y2="-161.5964"/>
				<line class="st2" x1="159.9033" y1="439.9076" x2="159.9033" y2="-161.5964"/>
				<line class="st2" x1="169.9259" y1="439.9076" x2="169.9259" y2="-161.5964"/>
				<line class="st2" x1="179.9483" y1="439.9076" x2="179.9483" y2="-161.5964"/>
				<line class="st2" x1="189.9674" y1="439.9076" x2="189.9674" y2="-161.5964"/>
				<line class="st2" x1="199.9901" y1="439.9076" x2="199.9901" y2="-161.5964"/>
				<line class="st2" x1="210.0124" y1="439.9076" x2="210.0124" y2="-161.5964"/>
				<line class="st2" x1="220.0316" y1="439.9076" x2="220.0316" y2="-161.5964"/>
				<line class="st2" x1="230.0542" y1="439.9076" x2="230.0542" y2="-161.5964"/>
				<line class="st2" x1="240.0766" y1="439.9076" x2="240.0766" y2="-161.5964"/>
				<line class="st2" x1="250.0957" y1="439.9076" x2="250.0957" y2="-161.5964"/>
				<line class="st2" x1="260.1184" y1="439.9076" x2="260.1184" y2="-161.5964"/>
				<line class="st2" x1="270.1407" y1="439.9076" x2="270.1407" y2="-161.5964"/>
				<line class="st2" x1="280.1599" y1="439.9076" x2="280.1599" y2="-161.5964"/>
				<line class="st2" x1="290.1843" y1="439.9076" x2="290.1843" y2="-161.5964"/>
				<line class="st2" x1="300.2035" y1="439.9076" x2="300.2035" y2="-161.5964"/>
				<line class="st2" x1="310.2258" y1="439.9076" x2="310.2258" y2="-161.5964"/>
				<line class="st2" x1="320.2484" y1="439.9076" x2="320.2484" y2="-161.5964"/>
				<line class="st2" x1="330.2676" y1="439.9076" x2="330.2676" y2="-161.5964"/>
				<line class="st2" x1="340.2899" y1="439.9076" x2="340.2899" y2="-161.5964"/>
				<line class="st2" x1="350.3126" y1="439.9076" x2="350.3126" y2="-161.5964"/>
				<line class="st2" x1="360.3318" y1="439.9076" x2="360.3318" y2="-161.5964"/>
				<line class="st2" x1="370.3541" y1="439.9076" x2="370.3541" y2="-161.5964"/>
				<line class="st2" x1="380.3767" y1="439.9076" x2="380.3767" y2="-161.5964"/>
				<line class="st2" x1="390.3959" y1="439.9076" x2="390.3959" y2="-161.5964"/>
				<line class="st2" x1="400.4182" y1="439.9076" x2="400.4182" y2="-161.5964"/>
				<line class="st2" x1="410.4409" y1="439.9076" x2="410.4409" y2="-161.5964"/>
				<line class="st2" x1="420.4601" y1="439.9076" x2="420.4601" y2="-161.5964"/>
				<line class="st2" x1="430.4827" y1="439.9076" x2="430.4827" y2="-161.5964"/>
				<line class="st2" x1="440.505" y1="439.9076" x2="440.505" y2="-161.5964"/>
				<line class="st2" x1="450.526" y1="439.9076" x2="450.526" y2="-161.5964"/>
				<line class="st2" x1="460.5483" y1="439.9076" x2="460.5483" y2="-161.5964"/>
				<line class="st2" x1="470.5674" y1="439.9076" x2="470.5674" y2="-161.5964"/>
				<line class="st2" x1="480.5901" y1="439.9076" x2="480.5901" y2="-161.5964"/>
				<line class="st2" x1="490.6128" y1="439.9076" x2="490.6128" y2="-161.5964"/>
				<line class="st2" x1="500.6316" y1="439.9076" x2="500.6316" y2="-161.5964"/>
				<line class="st2" x1="510.6543" y1="439.9076" x2="510.6543" y2="-161.5964"/>
				<line class="st2" x1="520.6769" y1="439.9076" x2="520.6769" y2="-161.5964"/>
				<line class="st2" x1="530.6957" y1="439.9076" x2="530.6957" y2="-161.5964"/>
			</g>
			<g id="Horizontal_5_mm_1_">
				<line class="st3" x1="-272.2536" y1="439.9564" x2="530.677" y2="439.9564"/>
				<line class="st3" x1="-272.2536" y1="389.8504" x2="530.677" y2="389.8504"/>
				<line class="st3" x1="-272.2536" y1="339.743" x2="530.677" y2="339.743"/>
				<line class="st3" x1="-272.2536" y1="289.6339" x2="530.677" y2="289.6339"/>
				<line class="st3" x1="-272.2536" y1="239.5279" x2="530.677" y2="239.5279"/>
				<line class="st3" x1="-272.2536" y1="189.4205" x2="530.677" y2="189.4205"/>
				<line class="st3" x1="-272.2536" y1="139.3146" x2="530.677" y2="139.3146"/>
				<line class="st3" x1="-272.2536" y1="89.2054" x2="530.677" y2="89.2054"/>
				<line class="st3" x1="-272.2536" y1="39.0977" x2="530.677" y2="39.0977"/>
				<line class="st3" x1="-272.2536" y1="-11.008" x2="530.677" y2="-11.008"/>
				<line class="st3" x1="-272.2536" y1="-61.1139" x2="530.677" y2="-61.1139"/>
			</g>
			<g id="Vertical_5_mm">
				<line class="st3" x1="-271.0159" y1="439.9076" x2="-271.0159" y2="-162.5683"/>
				<line class="st3" x1="-220.9101" y1="439.9076" x2="-220.9101" y2="-162.5683"/>
				<line class="st3" x1="-170.8027" y1="439.9076" x2="-170.8027" y2="-162.5683"/>
				<line class="st3" x1="-120.6967" y1="439.9076" x2="-120.6967" y2="-162.5683"/>
				<line class="st3" x1="-70.5876" y1="439.9076" x2="-70.5876" y2="-162.5683"/>
				<line class="st3" x1="-20.4799" y1="439.9076" x2="-20.4799" y2="-162.5683"/>
				<line class="st3" x1="29.6258" y1="439.9076" x2="29.6258" y2="-162.5683"/>
				<line class="st3" x1="79.7317" y1="439.9076" x2="79.7317" y2="-162.5683"/>
				<line class="st3" x1="129.8373" y1="439.9076" x2="129.8373" y2="-162.5683"/>
				<line class="st3" x1="179.9483" y1="439.9076" x2="179.9483" y2="-162.5683"/>
				<line class="st3" x1="230.0542" y1="439.9076" x2="230.0542" y2="-162.5683"/>
				<line class="st3" x1="280.1599" y1="439.9076" x2="280.1599" y2="-162.5683"/>
				<line class="st3" x1="330.2676" y1="439.9076" x2="330.2676" y2="-162.5683"/>
				<line class="st3" x1="380.3767" y1="439.9076" x2="380.3767" y2="-162.5683"/>
				<line class="st3" x1="430.4827" y1="439.9076" x2="430.4827" y2="-162.5683"/>
				<line class="st3" x1="480.5901" y1="439.9076" x2="480.5901" y2="-162.5683"/>
				<line class="st3" x1="530.6957" y1="439.9076" x2="530.6957" y2="-162.5683"/>
			</g>
			<g id="Horizontal_10_mm">
				<line id="_x31_9_1_" class="st4" x1="-272.2536" y1="439.9564" x2="530.677" y2="439.9564"/>
				<line id="_x32_0" class="st4" x1="-272.2536" y1="339.743" x2="530.677" y2="339.743"/>
				<line id="_x32_1" class="st4" x1="-272.2536" y1="239.5279" x2="530.677" y2="239.5279"/>
				<line id="_x32_2" class="st4" x1="-272.2536" y1="139.3146" x2="530.677" y2="139.3146"/>
				<line id="_x32_3" class="st4" x1="-272.2536" y1="39.0977" x2="530.677" y2="39.0977"/>
				<line id="_x32_4" class="st4" x1="-272.2536" y1="-61.1139" x2="530.677" y2="-61.1139"/>
				<line id="_x32_5" class="st4" x1="-272.2536" y1="-161.3306" x2="530.677" y2="-161.3306"/>
			</g>
			<g id="Vertical_10_mm">
				<line id="_x30_" class="st4" x1="-271.0159" y1="439.9076" x2="-271.0159" y2="-162.5683"/>
				<line id="_x31_" class="st4" x1="-170.8027" y1="439.9076" x2="-170.8027" y2="-162.5683"/>
				<line id="_x32_" class="st4" x1="-70.5876" y1="439.9076" x2="-70.5876" y2="-162.5683"/>
				<line id="_x33_" class="st4" x1="29.6258" y1="439.9076" x2="29.6258" y2="-162.5683"/>
				<line id="_x34_" class="st4" x1="129.8373" y1="439.9076" x2="129.8373" y2="-162.5683"/>
				<line id="_x35_" class="st4" x1="230.0542" y1="439.9076" x2="230.0542" y2="-162.5683"/>
				<line id="_x36_" class="st4" x1="330.2676" y1="439.9076" x2="330.2676" y2="-162.5683"/>
				<line id="_x37_" class="st4" x1="430.4827" y1="439.9076" x2="430.4827" y2="-162.5683"/>
				<line id="_x38_" class="st4" x1="530.6957" y1="439.9076" x2="530.6957" y2="-162.5683"/>
			</g>
		</g>
	</g>
</g>
<g id="Layer_4">
	<g>
		<line class="st5" x1="-65.6086" y1="-42.9708" x2="-58.4086" y2="-42.9708"/>
		<line class="st5" x1="-36.8086" y1="-42.9708" x2="-44.0086" y2="-42.9708"/>
		<line class="st6" x1="-58.4086" y1="-40.4508" x2="-44.0086" y2="-40.4508"/>
		<line class="st6" x1="-44.0086" y1="-45.4908" x2="-58.4086" y2="-45.4908"/>
		<line class="st6" x1="-44.0086" y1="-40.4508" x2="-44.0086" y2="-45.4908"/>
		<line class="st6" x1="-58.4086" y1="-40.4508" x2="-58.4086" y2="-45.4908"/>
		<g class="st7">
			<path class="st8" d="M-61.5727-47.2178v-3.9688h1.7593c0.354,0,0.6226,0.0361,0.8066,0.1069
				c0.1841,0.0718,0.3311,0.1973,0.4414,0.3779c0.1099,0.1807,0.165,0.3799,0.165,0.5981c0,0.2817-0.0913,0.519-0.2734,0.7119
				c-0.1821,0.1934-0.4639,0.3159-0.8447,0.3682c0.1392,0.0669,0.2446,0.1328,0.3169,0.1978
				c0.1533,0.1406,0.2988,0.3169,0.436,0.5278l0.6899,1.0801h-0.6602l-0.5254-0.8257c-0.1533-0.2383-0.2798-0.4204-0.3789-0.5469
				c-0.0991-0.126-0.188-0.2148-0.2666-0.2651c-0.0786-0.0508-0.1582-0.0859-0.2397-0.1055c-0.0596-0.0127-0.1567-0.019-0.292-0.019
				h-0.6094v1.7622H-61.5727z M-61.0478-49.4351h1.1289c0.2397,0,0.4277-0.0244,0.563-0.0742s0.2383-0.1289,0.3086-0.2383
				c0.0703-0.1089,0.1055-0.2275,0.1055-0.356c0-0.1875-0.0679-0.3418-0.2041-0.4629s-0.3516-0.1812-0.6455-0.1812h-1.2563V-49.4351
				z"/>
			<path class="st8" d="M-55.2138-47.6861v0.4683h-2.623c-0.0039-0.1172,0.0151-0.23,0.0566-0.3384
				c0.0669-0.1787,0.1738-0.3545,0.3208-0.5278s0.3599-0.3735,0.6377-0.6011c0.4312-0.3535,0.7227-0.6338,0.874-0.8403
				c0.1519-0.2065,0.2275-0.4023,0.2275-0.5864c0-0.1929-0.0688-0.356-0.207-0.4883c-0.1382-0.1328-0.3179-0.1992-0.54-0.1992
				c-0.2349,0-0.4224,0.0703-0.563,0.2114c-0.1406,0.1406-0.2119,0.3354-0.2139,0.5845l-0.501-0.0513
				c0.0342-0.3735,0.1636-0.6582,0.3872-0.854s0.5244-0.2939,0.9014-0.2939c0.3809,0,0.6821,0.1055,0.9043,0.3169
				c0.2217,0.2109,0.333,0.4727,0.333,0.7852c0,0.1587-0.0327,0.3149-0.0977,0.4683s-0.1729,0.3149-0.3232,0.4844
				c-0.1509,0.1699-0.4014,0.4023-0.7515,0.6982c-0.2925,0.2456-0.48,0.4121-0.563,0.4995
				c-0.083,0.0879-0.1514,0.1758-0.2056,0.2642H-55.2138z"/>
		</g>
	</g>
	<g>
		<g>
			<line class="st9" x1="43.4356" y1="10.8271" x2="43.4356" y2="26.4751"/>
			<g>
				<polygon points="41.6688,25.0437 41.9852,24.749 43.4352,26.3093 44.8856,24.749 45.202,25.0437 43.4352,26.9436 				"/>
			</g>
		</g>
	</g>
	<g class="st7">
		<path d="M52.9385,15.9638c-0.2295,0.0103-0.3896,0.1304-0.5596,0.3999l-3.7275,6.1465H48.461l-0.8193-5.0269
			c-0.2295-1.3994-0.2598-1.4492-0.8193-1.5195v-0.1597h2.3984v0.1597c-0.6289,0.0703-0.7598,0.1699-0.7598,0.5098
			c0,0.0503,0,0.1001,0.0107,0.1499l0.6494,4.4277l2.0986-3.5981c0.3096-0.5298,0.4902-0.9595,0.4902-1.1494
			s-0.1699-0.2896-0.6201-0.3398v-0.1597h1.8486V15.9638z"/>
	</g>
	<g>
		<line class="st5" x1="29.6687" y1="4.9018" x2="29.6687" y2="12.1018"/>
		<g class="st7">
			<path class="st8" d="M28.1104,9.9028h-0.9336v0.9258h-0.3896V9.9028h-0.9258V9.5082h0.9258V8.5825h0.3896v0.9258h0.9336V9.9028z"
				/>
		</g>
		<line class="st5" x1="29.6687" y1="33.7018" x2="29.6687" y2="26.5018"/>
		<g class="st7">
			<path class="st8" d="M26.75,28.5502v-0.4199h1.2832v0.4199H26.75z"/>
		</g>
		<line class="st10" x1="27.8687" y1="21.1018" x2="29.6687" y2="21.1018"/>
		<line class="st5" x1="29.6687" y1="26.5018" x2="29.6687" y2="21.1018"/>
		<line class="st10" x1="29.6687" y1="21.1018" x2="31.4687" y2="21.1018"/>
		<line class="st10" x1="22.4687" y1="17.5018" x2="29.6687" y2="17.5018"/>
		<line class="st5" x1="29.6687" y1="17.5018" x2="29.6687" y2="12.1018"/>
		<line class="st10" x1="29.6687" y1="17.5018" x2="36.8687" y2="17.5018"/>
	</g>
	<g>
	</g>
</g>
</svg>
