<?xml version="1.0" encoding="utf-8"?>
<!-- Generator: Adobe Illustrator 26.0.0, SVG Export Plug-In . SVG Version: 6.00 Build 0)  -->
<svg version="1.1" xmlns="http://www.w3.org/2000/svg" xmlns:xlink="http://www.w3.org/1999/xlink" x="0px" y="0px"
	 viewBox="0 0 273.2761 79.8037" style="enable-background:new 0 0 273.2761 79.8037;" xml:space="preserve">
<style type="text/css">
	.st0{opacity:0.5;}
	.st1{opacity:0.25;clip-path:url(#SVGID_00000017482607800079106980000001725843709618665384_);}
	.st2{fill:none;stroke:#00ABEB;stroke-width:0.2111;stroke-miterlimit:10;}
	.st3{fill:none;stroke:#00ABEB;stroke-width:0.4221;stroke-miterlimit:10;}
	.st4{fill:none;stroke:#00ABEB;stroke-width:0.9849;stroke-miterlimit:10;}
	.st5{display:none;}
	.st6{display:inline;}
	.st7{fill:none;stroke:#000000;stroke-width:0.432;stroke-linecap:round;stroke-linejoin:round;}
	.st8{display:inline;enable-background:new    ;}
	.st9{fill:none;stroke:#00B200;stroke-width:0.4;stroke-linecap:round;stroke-linejoin:round;}
	.st10{fill:#00B200;}
	.st11{enable-background:new    ;}
	.st12{fill:none;stroke:#000000;stroke-width:0.4201;stroke-miterlimit:11.3386;}
	.st13{fill:none;stroke:#000000;stroke-width:0.4201;stroke-miterlimit:11.3386;stroke-dasharray:11.6083,11.6083;}
</style>
<g id="Graph_paper" class="st0">
	<g id="Clipped_grid">
		<defs>
			<rect id="SVGID_1_" x="-133.9288" y="-41.5591" width="499.7099" height="213.594"/>
		</defs>
		<clipPath id="SVGID_00000086657548478862670820000000674165806224263316_">
			<use xlink:href="#SVGID_1_"  style="overflow:visible;"/>
		</clipPath>
		
			<g id="Grid_00000060005542146034257920000005065612243763103930_" style="opacity:0.25;clip-path:url(#SVGID_00000086657548478862670820000000674165806224263316_);">
			<g id="Horizontal_1_mm">
				<line class="st2" x1="-156.5149" y1="-126.259" x2="645.4439" y2="-126.259"/>
				<line class="st2" x1="-156.5149" y1="-136.2815" x2="645.4439" y2="-136.2815"/>
				<line class="st2" x1="-156.5149" y1="465.0055" x2="645.4439" y2="465.0055"/>
				<line class="st2" x1="-156.5149" y1="454.9828" x2="645.4439" y2="454.9828"/>
				<line class="st2" x1="-156.5149" y1="444.9637" x2="645.4439" y2="444.9637"/>
				<line class="st2" x1="-156.5149" y1="434.9413" x2="645.4439" y2="434.9413"/>
				<line class="st2" x1="-156.5149" y1="424.9187" x2="645.4439" y2="424.9187"/>
				<line class="st2" x1="-156.5149" y1="414.8995" x2="645.4439" y2="414.8995"/>
				<line class="st2" x1="-156.5149" y1="404.8772" x2="645.4439" y2="404.8772"/>
				<line class="st2" x1="-156.5149" y1="394.858" x2="645.4439" y2="394.858"/>
				<line class="st2" x1="-156.5149" y1="384.8336" x2="645.4439" y2="384.8336"/>
				<line class="st2" x1="-156.5149" y1="374.8113" x2="645.4439" y2="374.8113"/>
				<line class="st2" x1="-156.5149" y1="364.7921" x2="645.4439" y2="364.7921"/>
				<line class="st2" x1="-156.5149" y1="354.7694" x2="645.4439" y2="354.7694"/>
				<line class="st2" x1="-156.5149" y1="344.7471" x2="645.4439" y2="344.7471"/>
				<line class="st2" x1="-156.5149" y1="334.728" x2="645.4439" y2="334.728"/>
				<line class="st2" x1="-156.5149" y1="324.7053" x2="645.4439" y2="324.7053"/>
				<line class="st2" x1="-156.5149" y1="314.683" x2="645.4439" y2="314.683"/>
				<line class="st2" x1="-156.5149" y1="304.6638" x2="645.4439" y2="304.6638"/>
				<line class="st2" x1="-156.5149" y1="294.6411" x2="645.4439" y2="294.6411"/>
				<line class="st2" x1="-156.5149" y1="284.6185" x2="645.4439" y2="284.6185"/>
				<line class="st2" x1="-156.5149" y1="274.5997" x2="645.4439" y2="274.5997"/>
				<line class="st2" x1="-156.5149" y1="264.577" x2="645.4439" y2="264.577"/>
				<line class="st2" x1="-156.5149" y1="254.5529" x2="645.4439" y2="254.5529"/>
				<line class="st2" x1="-156.5149" y1="244.5338" x2="645.4439" y2="244.5338"/>
				<line class="st2" x1="-156.5149" y1="234.5111" x2="645.4439" y2="234.5111"/>
				<line class="st2" x1="-156.5149" y1="224.4919" x2="645.4439" y2="224.4919"/>
				<line class="st2" x1="-156.5149" y1="214.4696" x2="645.4439" y2="214.4696"/>
				<line class="st2" x1="-156.5149" y1="204.4469" x2="645.4439" y2="204.4469"/>
				<line class="st2" x1="-156.5149" y1="194.4278" x2="645.4439" y2="194.4278"/>
				<line class="st2" x1="-156.5149" y1="184.4055" x2="645.4439" y2="184.4055"/>
				<line class="st2" x1="-156.5149" y1="174.3828" x2="645.4439" y2="174.3828"/>
				<line class="st2" x1="-156.5149" y1="164.3636" x2="645.4439" y2="164.3636"/>
				<line class="st2" x1="-156.5149" y1="154.3413" x2="645.4439" y2="154.3413"/>
				<line class="st2" x1="-156.5149" y1="144.3186" x2="645.4439" y2="144.3186"/>
				<line class="st2" x1="-156.5149" y1="134.2995" x2="645.4439" y2="134.2995"/>
				<line class="st2" x1="-156.5149" y1="124.2768" x2="645.4439" y2="124.2768"/>
				<line class="st2" x1="-156.5149" y1="114.2545" x2="645.4439" y2="114.2545"/>
				<line class="st2" x1="-156.5149" y1="104.2353" x2="645.4439" y2="104.2353"/>
				<line class="st2" x1="-156.5149" y1="94.2127" x2="645.4439" y2="94.2127"/>
				<line class="st2" x1="-156.5149" y1="84.1903" x2="645.4439" y2="84.1903"/>
				<line class="st2" x1="-156.5149" y1="74.1712" x2="645.4439" y2="74.1712"/>
				<line class="st2" x1="-156.5149" y1="64.1467" x2="645.4439" y2="64.1467"/>
				<line class="st2" x1="-156.5149" y1="54.128" x2="645.4439" y2="54.128"/>
				<line class="st2" x1="-156.5149" y1="44.1053" x2="645.4439" y2="44.1053"/>
				<line class="st2" x1="-156.5149" y1="34.0826" x2="645.4439" y2="34.0826"/>
				<line class="st2" x1="-156.5149" y1="24.0638" x2="645.4439" y2="24.0638"/>
				<line class="st2" x1="-156.5149" y1="14.0411" x2="645.4439" y2="14.0411"/>
				<line class="st2" x1="-156.5149" y1="4.0184" x2="645.4439" y2="4.0184"/>
				<line class="st2" x1="-156.5149" y1="-6.0007" x2="645.4439" y2="-6.0007"/>
				<line class="st2" x1="-156.5149" y1="-16.023" x2="645.4439" y2="-16.023"/>
				<line class="st2" x1="-156.5149" y1="-26.0457" x2="645.4439" y2="-26.0457"/>
				<line class="st2" x1="-156.5149" y1="-36.0648" x2="645.4439" y2="-36.0648"/>
				<line class="st2" x1="-156.5149" y1="-46.0872" x2="645.4439" y2="-46.0872"/>
				<line class="st2" x1="-156.5149" y1="-56.1099" x2="645.4439" y2="-56.1099"/>
				<line class="st2" x1="-156.5149" y1="-66.129" x2="645.4439" y2="-66.129"/>
				<line class="st2" x1="-156.5149" y1="-76.1531" x2="645.4439" y2="-76.1531"/>
				<line class="st2" x1="-156.5149" y1="-86.1722" x2="645.4439" y2="-86.1722"/>
				<line class="st2" x1="-156.5149" y1="-96.1949" x2="645.4439" y2="-96.1949"/>
				<line class="st2" x1="-156.5149" y1="-106.2173" x2="645.4439" y2="-106.2173"/>
				<line class="st2" x1="-156.5149" y1="-116.2364" x2="645.4439" y2="-116.2364"/>
			</g>
			<g id="Vertical_1_mm">
				<g>
					<line class="st2" x1="-156.249" y1="464.9567" x2="-156.249" y2="-136.5473"/>
				</g>
				<line class="st2" x1="-146.23" y1="464.9567" x2="-146.23" y2="-136.5473"/>
				<line class="st2" x1="-136.2074" y1="464.9567" x2="-136.2074" y2="-136.5473"/>
				<line class="st2" x1="-126.1849" y1="464.9567" x2="-126.1849" y2="-136.5473"/>
				<line class="st2" x1="-116.1659" y1="464.9567" x2="-116.1659" y2="-136.5473"/>
				<line class="st2" x1="-106.1432" y1="464.9567" x2="-106.1432" y2="-136.5473"/>
				<line class="st2" x1="-96.1206" y1="464.9567" x2="-96.1206" y2="-136.5473"/>
				<line class="st2" x1="-86.1018" y1="464.9567" x2="-86.1018" y2="-136.5473"/>
				<line class="st2" x1="-76.0773" y1="464.9567" x2="-76.0773" y2="-136.5473"/>
				<line class="st2" x1="-66.0582" y1="464.9567" x2="-66.0582" y2="-136.5473"/>
				<line class="st2" x1="-56.0359" y1="464.9567" x2="-56.0359" y2="-136.5473"/>
				<line class="st2" x1="-46.0132" y1="464.9567" x2="-46.0132" y2="-136.5473"/>
				<line class="st2" x1="-35.994" y1="464.9567" x2="-35.994" y2="-136.5473"/>
				<line class="st2" x1="-25.9717" y1="464.9567" x2="-25.9717" y2="-136.5473"/>
				<line class="st2" x1="-15.949" y1="464.9567" x2="-15.949" y2="-136.5473"/>
				<line class="st2" x1="-5.9299" y1="464.9567" x2="-5.9299" y2="-136.5473"/>
				<line class="st2" x1="4.0928" y1="464.9567" x2="4.0928" y2="-136.5473"/>
				<line class="st2" x1="14.1151" y1="464.9567" x2="14.1151" y2="-136.5473"/>
				<line class="st2" x1="24.1343" y1="464.9567" x2="24.1343" y2="-136.5473"/>
				<line class="st2" x1="34.157" y1="464.9567" x2="34.157" y2="-136.5473"/>
				<line class="st2" x1="44.1793" y1="464.9567" x2="44.1793" y2="-136.5473"/>
				<line class="st2" x1="54.1984" y1="464.9567" x2="54.1984" y2="-136.5473"/>
				<line class="st2" x1="64.2211" y1="464.9567" x2="64.2211" y2="-136.5473"/>
				<line class="st2" x1="74.2434" y1="464.9567" x2="74.2434" y2="-136.5473"/>
				<line class="st2" x1="84.2643" y1="464.9567" x2="84.2643" y2="-136.5473"/>
				<line class="st2" x1="94.287" y1="464.9567" x2="94.287" y2="-136.5473"/>
				<line class="st2" x1="104.3058" y1="464.9567" x2="104.3058" y2="-136.5473"/>
				<line class="st2" x1="114.3285" y1="464.9567" x2="114.3285" y2="-136.5473"/>
				<line class="st2" x1="124.3512" y1="464.9567" x2="124.3512" y2="-136.5473"/>
				<line class="st2" x1="134.37" y1="464.9567" x2="134.37" y2="-136.5473"/>
				<line class="st2" x1="144.3926" y1="464.9567" x2="144.3926" y2="-136.5473"/>
				<line class="st2" x1="154.4153" y1="464.9567" x2="154.4153" y2="-136.5473"/>
				<line class="st2" x1="164.4345" y1="464.9567" x2="164.4345" y2="-136.5473"/>
				<line class="st2" x1="174.4568" y1="464.9567" x2="174.4568" y2="-136.5473"/>
				<line class="st2" x1="184.4795" y1="464.9567" x2="184.4795" y2="-136.5473"/>
				<line class="st2" x1="194.4986" y1="464.9567" x2="194.4986" y2="-136.5473"/>
				<line class="st2" x1="204.5209" y1="464.9567" x2="204.5209" y2="-136.5473"/>
				<line class="st2" x1="214.5436" y1="464.9567" x2="214.5436" y2="-136.5473"/>
				<line class="st2" x1="224.5627" y1="464.9567" x2="224.5627" y2="-136.5473"/>
				<line class="st2" x1="234.5851" y1="464.9567" x2="234.5851" y2="-136.5473"/>
				<line class="st2" x1="244.6042" y1="464.9567" x2="244.6042" y2="-136.5473"/>
				<line class="st2" x1="254.6287" y1="464.9567" x2="254.6287" y2="-136.5473"/>
				<line class="st2" x1="264.651" y1="464.9567" x2="264.651" y2="-136.5473"/>
				<line class="st2" x1="274.6701" y1="464.9567" x2="274.6701" y2="-136.5473"/>
				<line class="st2" x1="284.6928" y1="464.9567" x2="284.6928" y2="-136.5473"/>
				<line class="st2" x1="294.7151" y1="464.9567" x2="294.7151" y2="-136.5473"/>
				<line class="st2" x1="304.7343" y1="464.9567" x2="304.7343" y2="-136.5473"/>
				<line class="st2" x1="314.757" y1="464.9567" x2="314.757" y2="-136.5473"/>
				<line class="st2" x1="324.7793" y1="464.9567" x2="324.7793" y2="-136.5473"/>
				<line class="st2" x1="334.7984" y1="464.9567" x2="334.7984" y2="-136.5473"/>
				<line class="st2" x1="344.8211" y1="464.9567" x2="344.8211" y2="-136.5473"/>
				<line class="st2" x1="354.8434" y1="464.9567" x2="354.8434" y2="-136.5473"/>
				<line class="st2" x1="364.8626" y1="464.9567" x2="364.8626" y2="-136.5473"/>
				<line class="st2" x1="374.8853" y1="464.9567" x2="374.8853" y2="-136.5473"/>
				<line class="st2" x1="384.9076" y1="464.9567" x2="384.9076" y2="-136.5473"/>
				<line class="st2" x1="394.9267" y1="464.9567" x2="394.9267" y2="-136.5473"/>
				<line class="st2" x1="404.9512" y1="464.9567" x2="404.9512" y2="-136.5473"/>
				<line class="st2" x1="414.9703" y1="464.9567" x2="414.9703" y2="-136.5473"/>
				<line class="st2" x1="424.9926" y1="464.9567" x2="424.9926" y2="-136.5473"/>
				<line class="st2" x1="435.0153" y1="464.9567" x2="435.0153" y2="-136.5473"/>
				<line class="st2" x1="445.0345" y1="464.9567" x2="445.0345" y2="-136.5473"/>
				<line class="st2" x1="455.0568" y1="464.9567" x2="455.0568" y2="-136.5473"/>
				<line class="st2" x1="465.0795" y1="464.9567" x2="465.0795" y2="-136.5473"/>
				<line class="st2" x1="475.0986" y1="464.9567" x2="475.0986" y2="-136.5473"/>
				<line class="st2" x1="485.1209" y1="464.9567" x2="485.1209" y2="-136.5473"/>
				<line class="st2" x1="495.1436" y1="464.9567" x2="495.1436" y2="-136.5473"/>
				<line class="st2" x1="505.1628" y1="464.9567" x2="505.1628" y2="-136.5473"/>
				<line class="st2" x1="515.1851" y1="464.9567" x2="515.1851" y2="-136.5473"/>
				<line class="st2" x1="525.2078" y1="464.9567" x2="525.2078" y2="-136.5473"/>
				<line class="st2" x1="535.2269" y1="464.9567" x2="535.2269" y2="-136.5473"/>
				<line class="st2" x1="545.2496" y1="464.9567" x2="545.2496" y2="-136.5473"/>
				<line class="st2" x1="555.2719" y1="464.9567" x2="555.2719" y2="-136.5473"/>
				<line class="st2" x1="565.2928" y1="464.9567" x2="565.2928" y2="-136.5473"/>
				<line class="st2" x1="575.3152" y1="464.9567" x2="575.3152" y2="-136.5473"/>
				<line class="st2" x1="585.3343" y1="464.9567" x2="585.3343" y2="-136.5473"/>
				<line class="st2" x1="595.357" y1="464.9567" x2="595.357" y2="-136.5473"/>
				<line class="st2" x1="605.3796" y1="464.9567" x2="605.3796" y2="-136.5473"/>
				<line class="st2" x1="615.3984" y1="464.9567" x2="615.3984" y2="-136.5473"/>
				<line class="st2" x1="625.4211" y1="464.9567" x2="625.4211" y2="-136.5473"/>
				<line class="st2" x1="635.4438" y1="464.9567" x2="635.4438" y2="-136.5473"/>
				<line class="st2" x1="645.4626" y1="464.9567" x2="645.4626" y2="-136.5473"/>
			</g>
			<g id="Horizontal_5_mm_1_">
				<line class="st3" x1="-157.4868" y1="465.0055" x2="645.4439" y2="465.0055"/>
				<line class="st3" x1="-157.4868" y1="414.8995" x2="645.4439" y2="414.8995"/>
				<line class="st3" x1="-157.4868" y1="364.7921" x2="645.4439" y2="364.7921"/>
				<line class="st3" x1="-157.4868" y1="314.683" x2="645.4439" y2="314.683"/>
				<line class="st3" x1="-157.4868" y1="264.577" x2="645.4439" y2="264.577"/>
				<line class="st3" x1="-157.4868" y1="214.4696" x2="645.4439" y2="214.4696"/>
				<line class="st3" x1="-157.4868" y1="164.3636" x2="645.4439" y2="164.3636"/>
				<line class="st3" x1="-157.4868" y1="114.2545" x2="645.4439" y2="114.2545"/>
				<line class="st3" x1="-157.4868" y1="64.1467" x2="645.4439" y2="64.1467"/>
				<line class="st3" x1="-157.4868" y1="14.0411" x2="645.4439" y2="14.0411"/>
				<line class="st3" x1="-157.4868" y1="-36.0648" x2="645.4439" y2="-36.0648"/>
			</g>
			<g id="Vertical_5_mm">
				<line class="st3" x1="-156.249" y1="464.9567" x2="-156.249" y2="-137.5192"/>
				<line class="st3" x1="-106.1432" y1="464.9567" x2="-106.1432" y2="-137.5192"/>
				<line class="st3" x1="-56.0359" y1="464.9567" x2="-56.0359" y2="-137.5192"/>
				<line class="st3" x1="-5.9299" y1="464.9567" x2="-5.9299" y2="-137.5192"/>
				<line class="st3" x1="44.1793" y1="464.9567" x2="44.1793" y2="-137.5192"/>
				<line class="st3" x1="94.287" y1="464.9567" x2="94.287" y2="-137.5192"/>
				<line class="st3" x1="144.3926" y1="464.9567" x2="144.3926" y2="-137.5192"/>
				<line class="st3" x1="194.4986" y1="464.9567" x2="194.4986" y2="-137.5192"/>
				<line class="st3" x1="244.6042" y1="464.9567" x2="244.6042" y2="-137.5192"/>
				<line class="st3" x1="294.7151" y1="464.9567" x2="294.7151" y2="-137.5192"/>
				<line class="st3" x1="344.8211" y1="464.9567" x2="344.8211" y2="-137.5192"/>
				<line class="st3" x1="394.9267" y1="464.9567" x2="394.9267" y2="-137.5192"/>
				<line class="st3" x1="445.0345" y1="464.9567" x2="445.0345" y2="-137.5192"/>
				<line class="st3" x1="495.1436" y1="464.9567" x2="495.1436" y2="-137.5192"/>
				<line class="st3" x1="545.2496" y1="464.9567" x2="545.2496" y2="-137.5192"/>
				<line class="st3" x1="595.357" y1="464.9567" x2="595.357" y2="-137.5192"/>
				<line class="st3" x1="645.4626" y1="464.9567" x2="645.4626" y2="-137.5192"/>
			</g>
			<g id="Horizontal_10_mm">
				<line id="_x31_9_1_" class="st4" x1="-157.4868" y1="465.0055" x2="645.4439" y2="465.0055"/>
				<line id="_x32_0" class="st4" x1="-157.4868" y1="364.7921" x2="645.4439" y2="364.7921"/>
				<line id="_x32_1" class="st4" x1="-157.4868" y1="264.577" x2="645.4439" y2="264.577"/>
				<line id="_x32_2" class="st4" x1="-157.4868" y1="164.3636" x2="645.4439" y2="164.3636"/>
				<line id="_x32_3" class="st4" x1="-157.4868" y1="64.1467" x2="645.4439" y2="64.1467"/>
				<line id="_x32_4" class="st4" x1="-157.4868" y1="-36.0648" x2="645.4439" y2="-36.0648"/>
				<line id="_x32_5" class="st4" x1="-157.4868" y1="-136.2815" x2="645.4439" y2="-136.2815"/>
			</g>
			<g id="Vertical_10_mm">
				<line id="_x30_" class="st4" x1="-156.249" y1="464.9567" x2="-156.249" y2="-137.5192"/>
				<line id="_x31_" class="st4" x1="-56.0359" y1="464.9567" x2="-56.0359" y2="-137.5192"/>
				<line id="_x32_" class="st4" x1="44.1793" y1="464.9567" x2="44.1793" y2="-137.5192"/>
				<line id="_x33_" class="st4" x1="144.3926" y1="464.9567" x2="144.3926" y2="-137.5192"/>
				<line id="_x34_" class="st4" x1="244.6042" y1="464.9567" x2="244.6042" y2="-137.5192"/>
				<line id="_x35_" class="st4" x1="344.8211" y1="464.9567" x2="344.8211" y2="-137.5192"/>
				<line id="_x36_" class="st4" x1="445.0345" y1="464.9567" x2="445.0345" y2="-137.5192"/>
				<line id="_x37_" class="st4" x1="545.2496" y1="464.9567" x2="545.2496" y2="-137.5192"/>
				<line id="_x38_" class="st4" x1="645.4626" y1="464.9567" x2="645.4626" y2="-137.5192"/>
			</g>
		</g>
	</g>
</g>
<g id="Layer_3" class="st5">
	<g class="st6">
		<g>
			<line class="st7" x1="133.3927" y1="35.8762" x2="133.3927" y2="51.5242"/>
			<g>
				<polygon points="131.6258,50.0927 131.9422,49.7981 133.3922,51.3584 134.8426,49.7981 135.159,50.0927 133.3922,51.9927 				
					"/>
			</g>
		</g>
	</g>
	<g class="st8">
		<path d="M130.7835,42.3923l-0.2207-0.02c0.0205-0.1699,0.0303-0.3296,0.0303-0.4595c0-0.6001-0.3496-0.73-1.9189-0.73
			c-0.5693,0-0.6699,0.04-0.7295,0.2603l-0.6592,2.3286h0.7793c0.8994,0,1.0088-0.1201,1.3887-0.9697l0.1807,0.04l-0.6797,2.3188
			l-0.2002-0.0498c0.0498-0.2202,0.0703-0.3398,0.0703-0.52c0-0.1699-0.0205-0.2598-0.0703-0.3096
			c-0.1104-0.1001-0.3799-0.1499-0.7793-0.1499h-0.7803l-0.3193,1.1191c-0.25,0.8794-0.3604,1.3394-0.3604,1.4595
			c0,0.2397,0.2305,0.3398,0.79,0.3398c0.9795,0,1.5195-0.1201,2.0293-0.3901c0.3193-0.1699,0.5596-0.4497,0.9395-0.9795
			l0.1592,0.0801l-0.6191,1.6191h-5.0674v-0.1602c0.5596-0.0996,0.6494-0.1597,0.8096-0.7393l1.2295-4.4175
			c0.0596-0.2002,0.1094-0.52,0.1094-0.6396c0-0.27-0.1494-0.3501-0.7695-0.4102v-0.1597h4.9678L130.7835,42.3923z"/>
	</g>
	<g class="st6">
		<g>
			<line class="st9" x1="155.5804" y1="36.6895" x2="155.5804" y2="51.9927"/>
			<g>
				<path class="st10" d="M153.6604,39.4232c0.093,0.0594,0.2168,0.0318,0.2762-0.0613l1.6437-2.5811l1.6438,2.5811
					c0.0594,0.0931,0.1832,0.1207,0.2762,0.0613c0.093-0.0594,0.1199-0.1838,0.0613-0.2762l-1.8125-2.8459
					c-0.0367-0.0576-0.1004-0.0926-0.1688-0.0926s-0.132,0.0349-0.1687,0.0926l-1.8125,2.8459
					c-0.0211,0.0332-0.0312,0.0705-0.0312,0.1072C153.5679,39.3203,153.6007,39.3849,153.6604,39.4232z"/>
			</g>
		</g>
	</g>
	<g class="st8">
		<path class="st10" d="M162.4329,41.9377c-0.5596,0.0703-0.6494,0.1602-0.8193,0.77l-1.2002,4.2876
			c-0.0898,0.3198-0.1494,0.5596-0.1494,0.7593c0,0.2798,0.1201,0.3198,0.6895,0.3896v0.1602h-2.4385v-0.1602
			c0.5498-0.0996,0.6895-0.1895,0.8398-0.7495l1.1992-4.4072c0.0693-0.25,0.1299-0.46,0.1299-0.6196
			c0-0.25-0.1602-0.3999-0.7197-0.4302V41.778h2.4688V41.9377z"/>
	</g>
</g>
<g id="Layer_4">
	<g class="st11">
		<path class="st10" d="M31.8577,37.1682c-0.46,0.02-0.7803,0.2598-1.1201,0.8003l-7.4619,12.3022h-0.3799l-1.6401-10.062
			c-0.46-2.8003-0.52-2.9004-1.6401-3.0405v-0.3203h4.8008v0.3203c-1.2598,0.1401-1.5205,0.3398-1.5205,1.02
			c0,0.1001,0,0.2002,0.0205,0.3003l1.2998,8.8618l4.2012-7.2017c0.6201-1.0601,0.9805-1.9204,0.9805-2.3003
			c0-0.3804-0.3408-0.5801-1.2402-0.6802v-0.3203h3.7002V37.1682z"/>
		<path class="st10" d="M34.0335,56.571v-0.1865c0.7344-0.0352,0.8975-0.2217,0.8975-0.6177c0-0.0933-0.0117-0.1982-0.0234-0.3032
			l-0.2324-1.5273h-2.5654l-0.6875,1.2939c-0.1631,0.3032-0.2568,0.583-0.2568,0.7695c0,0.2217,0.1748,0.3613,0.7236,0.3848v0.1865
			H29.72v-0.1865c0.5361-0.105,0.6885-0.3032,1.5625-1.8188l3.3223-5.7822h0.3027l1.0732,6.4468
			c0.1631,0.9795,0.291,1.1079,0.9092,1.1543v0.1865H34.0335z M34.0921,50.4509l-1.7373,3.0659h2.2617L34.0921,50.4509z"/>
	</g>
	<g>
		<g>
			<path class="st12" d="M44.908,63.6606c1.3417-1.2164,2.9363-2.4323,4.762-3.6377"/>
			<path class="st13" d="M59.8558,54.4792c38.2788-17.6067,122.8377-28.9954,174.3345,2.4333"/>
			<path class="st12" d="M239.0595,60.0829c1.6461,1.143,3.2523,2.3351,4.816,3.5777"/>
		</g>
	</g>
	<circle class="st10" cx="244.668" cy="63.6606" r="3.1556"/>
	<circle class="st10" cx="44.0749" cy="63.6606" r="3.1556"/>
	<g class="st11">
		<path class="st10" d="M253.6087,37.1682c-0.46,0.02-0.7803,0.2598-1.1201,0.8003l-7.4619,12.3022h-0.3799l-1.6396-10.062
			c-0.46-2.8003-0.5205-2.9004-1.6406-3.0405v-0.3203h4.8008v0.3203c-1.2598,0.1401-1.5205,0.3398-1.5205,1.02
			c0,0.1001,0,0.2002,0.0205,0.3003l1.2998,8.8618l4.2012-7.2017c0.6201-1.0601,0.9805-1.9204,0.9805-2.3003
			c0-0.3804-0.3408-0.5801-1.2402-0.6802v-0.3203h3.7002V37.1682z"/>
		<path class="st10" d="M256.4954,48.9587c1.6211,0,2.4248,0.5942,2.4248,1.7485c0,0.6294-0.3262,1.0376-0.7461,1.3174
			c-0.3613,0.2446-0.792,0.3496-1.2939,0.4546v0.0117c1.0029,0.3032,1.4688,0.9209,1.4688,1.7485
			c0,1.562-1.3174,2.3315-3.2051,2.3315h-3.1719v-0.1865c0.6416-0.0933,0.7695-0.21,0.9678-0.9326l1.4111-5.0825
			c0.0811-0.2915,0.1279-0.5713,0.1279-0.7461c0-0.3384-0.1631-0.4199-0.8975-0.478v-0.1865H256.4954z M254.4671,54.0998
			c-0.2334,0.8857-0.4082,1.4805-0.4082,1.6318c0,0.3262,0.292,0.4897,0.7812,0.4897c1.3408,0,2.25-0.688,2.25-1.9819
			c0-0.7227-0.3379-1.2358-0.7812-1.3872c-0.2334-0.0815-0.7344-0.1401-1.4687-0.1401L254.4671,54.0998z M255.3997,52.3391
			c1.5273,0,2.3437-0.6177,2.3437-1.772c0-0.8623-0.4199-1.2588-1.3643-1.2588c-0.4551,0-0.5713,0-0.6875,0.4194l-0.7354,2.6113
			H255.3997z"/>
	</g>
	<g class="st11">
		<path d="M117.2835,12.7443l-0.7803,3.0405l-1.1997,4.3813c-0.6201,2.2803-1.2998,4.6006-1.2998,4.9209
			c0,0.2397,0.0996,0.3999,0.3604,0.3999c0.3398,0,0.5596-0.1797,1.6392-1.4204l0.2402,0.2002
			c-0.98,1.4604-1.9399,2.2808-2.9399,2.2808c-0.5205,0-0.8203-0.3604-0.8203-0.9004c0-0.46,0.04-0.7803,0.2598-1.7803
			c-1.1797,1.9805-2.2002,2.6406-3.5605,2.6406c-1.3003,0-2.1401-0.8203-2.1401-2.3408c0-3.2407,3.2407-6.7012,5.8413-6.7012
			c0.8398,0,1.1797,0.3799,1.2998,1.1602h0.0205l0.8994-3.2607c0.3008-1.0601,0.2803-1.1401,0.2803-1.4204
			c0-0.4199-0.1797-0.48-1.2803-0.52v-0.3398c1.2803-0.1201,2.0005-0.2402,3.0601-0.4604L117.2835,12.7443z M112.9236,17.9255
			c-0.5605,0-1.2607,0.3403-1.8203,0.9204c-1.3208,1.3999-2.3208,3.5806-2.3208,5.2407c0,0.9204,0.46,1.4604,1.1602,1.4604
			c1.8403,0,3.9204-3.4404,3.9204-6.4814C113.8631,18.3454,113.3836,17.9255,112.9236,17.9255z"/>
		<path d="M123.1233,29.3078c-0.0205,0.0801-0.04,0.1602-0.04,0.2202c0,0.3799,0.3994,0.6201,1.1396,0.6201h0.2998v0.3198h-4.7402
			v-0.3198c1.2598-0.0801,1.5996-0.3799,1.8203-1.1201l1.7998-5.8013c-1.5996,2.5405-2.6201,3.2808-4.1602,3.2808
			c-1.2607,0-2.001-0.9004-2.001-2.3208c0-3.1606,3.1211-6.7212,5.8613-6.7212c0.8203,0,1.3398,0.3398,1.54,1.2402l0.3203-0.9805
			h1.46L123.1233,29.3078z M123.1624,17.9055c-0.5801,0-1.2197,0.3804-1.8604,0.9805c-1.3604,1.3003-2.3398,3.3604-2.3398,5.021
			c0,0.9399,0.3203,1.54,1.0596,1.54c0.501,0,1.1211-0.2598,1.6406-0.7202c1.3604-1.1802,2.6807-3.9604,2.6807-5.6211
			C124.3431,18.4455,123.8226,17.9055,123.1624,17.9055z"/>
	</g>
	<g>
	</g>
	<g>
	</g>
</g>
</svg>
