<?xml version="1.0" encoding="utf-8"?>
<!-- Generator: Adobe Illustrator 26.0.1, SVG Export Plug-In . SVG Version: 6.00 Build 0)  -->
<svg version="1.1" xmlns="http://www.w3.org/2000/svg" xmlns:xlink="http://www.w3.org/1999/xlink" x="0px" y="0px"
	 viewBox="0 0 231.6074 125.411" style="enable-background:new 0 0 231.6074 125.411;" xml:space="preserve">
<style type="text/css">
	.st0{opacity:0.5;}
	.st1{opacity:0.25;clip-path:url(#SVGID_00000089533019931569935330000000053082373776769712_);}
	.st2{fill:none;stroke:#00ABEB;stroke-width:0.2111;stroke-miterlimit:10;}
	.st3{fill:none;stroke:#00ABEB;stroke-width:0.4221;stroke-miterlimit:10;}
	.st4{fill:none;stroke:#00ABEB;stroke-width:0.9849;stroke-miterlimit:10;}
	.st5{display:none;}
	.st6{display:inline;}
	.st7{fill:none;stroke:#0DAB76;stroke-width:0.7488;stroke-linecap:round;stroke-miterlimit:11.3386;}
	.st8{fill:none;stroke:#C90D0C;stroke-width:0.7488;stroke-linecap:round;stroke-miterlimit:11.3386;}
	.st9{fill:none;stroke:#C90D0C;stroke-width:1.9968;stroke-linecap:round;stroke-miterlimit:11.3386;}
	.st10{enable-background:new    ;}
	.st11{fill:#808080;}
	.st12{fill:none;stroke:#C90D0C;stroke-width:1.248;stroke-linecap:round;stroke-miterlimit:11.3386;}
	.st13{fill:none;stroke:#C90D0C;stroke-width:0.6102;stroke-linecap:round;stroke-linejoin:round;}
	.st14{fill:#C90D0C;}
	.st15{display:inline;fill:#0DAB76;}
	.st16{display:inline;opacity:0.05;fill:#C90D0C;}
	.st17{fill:none;stroke:#0DAB76;stroke-width:0.6102;stroke-linecap:round;stroke-linejoin:round;}
	.st18{fill:#0DAB76;}
	.st19{fill:none;stroke:#000000;stroke-width:0.4576;stroke-miterlimit:10;}
	.st20{display:inline;enable-background:new    ;}
	.st21{fill:#00B200;}
</style>
<g id="Graph_paper" class="st0">
	<g id="Clipped_grid">
		<defs>
			<rect id="SVGID_1_" x="-18.4049" y="-15.1656" width="282.5522" height="159.9018"/>
		</defs>
		<clipPath id="SVGID_00000026145457491494212990000000884920609018864776_">
			<use xlink:href="#SVGID_1_"  style="overflow:visible;"/>
		</clipPath>
		
			<g id="Grid_00000060005542146034257920000005065612243763103930_" style="opacity:0.25;clip-path:url(#SVGID_00000026145457491494212990000000884920609018864776_);">
			<g id="Horizontal_1_mm">
				<line class="st2" x1="-266.6498" y1="-74.578" x2="535.3089" y2="-74.578"/>
				<line class="st2" x1="-266.6498" y1="-84.6005" x2="535.3089" y2="-84.6005"/>
				<line class="st2" x1="-266.6498" y1="516.6865" x2="535.3089" y2="516.6865"/>
				<line class="st2" x1="-266.6498" y1="506.6638" x2="535.3089" y2="506.6638"/>
				<line class="st2" x1="-266.6498" y1="496.6447" x2="535.3089" y2="496.6447"/>
				<line class="st2" x1="-266.6498" y1="486.6223" x2="535.3089" y2="486.6223"/>
				<line class="st2" x1="-266.6498" y1="476.5996" x2="535.3089" y2="476.5996"/>
				<line class="st2" x1="-266.6498" y1="466.5805" x2="535.3089" y2="466.5805"/>
				<line class="st2" x1="-266.6498" y1="456.5582" x2="535.3089" y2="456.5582"/>
				<line class="st2" x1="-266.6498" y1="446.539" x2="535.3089" y2="446.539"/>
				<line class="st2" x1="-266.6498" y1="436.5146" x2="535.3089" y2="436.5146"/>
				<line class="st2" x1="-266.6498" y1="426.4922" x2="535.3089" y2="426.4922"/>
				<line class="st2" x1="-266.6498" y1="416.4731" x2="535.3089" y2="416.4731"/>
				<line class="st2" x1="-266.6498" y1="406.4504" x2="535.3089" y2="406.4504"/>
				<line class="st2" x1="-266.6498" y1="396.4281" x2="535.3089" y2="396.4281"/>
				<line class="st2" x1="-266.6498" y1="386.409" x2="535.3089" y2="386.409"/>
				<line class="st2" x1="-266.6498" y1="376.3863" x2="535.3089" y2="376.3863"/>
				<line class="st2" x1="-266.6498" y1="366.364" x2="535.3089" y2="366.364"/>
				<line class="st2" x1="-266.6498" y1="356.3448" x2="535.3089" y2="356.3448"/>
				<line class="st2" x1="-266.6498" y1="346.3221" x2="535.3089" y2="346.3221"/>
				<line class="st2" x1="-266.6498" y1="336.2994" x2="535.3089" y2="336.2994"/>
				<line class="st2" x1="-266.6498" y1="326.2807" x2="535.3089" y2="326.2807"/>
				<line class="st2" x1="-266.6498" y1="316.258" x2="535.3089" y2="316.258"/>
				<line class="st2" x1="-266.6498" y1="306.2339" x2="535.3089" y2="306.2339"/>
				<line class="st2" x1="-266.6498" y1="296.2148" x2="535.3089" y2="296.2148"/>
				<line class="st2" x1="-266.6498" y1="286.192" x2="535.3089" y2="286.192"/>
				<line class="st2" x1="-266.6498" y1="276.1729" x2="535.3089" y2="276.1729"/>
				<line class="st2" x1="-266.6498" y1="266.1506" x2="535.3089" y2="266.1506"/>
				<line class="st2" x1="-266.6498" y1="256.1279" x2="535.3089" y2="256.1279"/>
				<line class="st2" x1="-266.6498" y1="246.1088" x2="535.3089" y2="246.1088"/>
				<line class="st2" x1="-266.6498" y1="236.0864" x2="535.3089" y2="236.0864"/>
				<line class="st2" x1="-266.6498" y1="226.0638" x2="535.3089" y2="226.0638"/>
				<line class="st2" x1="-266.6498" y1="216.0446" x2="535.3089" y2="216.0446"/>
				<line class="st2" x1="-266.6498" y1="206.0223" x2="535.3089" y2="206.0223"/>
				<line class="st2" x1="-266.6498" y1="195.9996" x2="535.3089" y2="195.9996"/>
				<line class="st2" x1="-266.6498" y1="185.9805" x2="535.3089" y2="185.9805"/>
				<line class="st2" x1="-266.6498" y1="175.9578" x2="535.3089" y2="175.9578"/>
				<line class="st2" x1="-266.6498" y1="165.9355" x2="535.3089" y2="165.9355"/>
				<line class="st2" x1="-266.6498" y1="155.9163" x2="535.3089" y2="155.9163"/>
				<line class="st2" x1="-266.6498" y1="145.8936" x2="535.3089" y2="145.8936"/>
				<line class="st2" x1="-266.6498" y1="135.8713" x2="535.3089" y2="135.8713"/>
				<line class="st2" x1="-266.6498" y1="125.8522" x2="535.3089" y2="125.8522"/>
				<line class="st2" x1="-266.6498" y1="115.8277" x2="535.3089" y2="115.8277"/>
				<line class="st2" x1="-266.6498" y1="105.8089" x2="535.3089" y2="105.8089"/>
				<line class="st2" x1="-266.6498" y1="95.7863" x2="535.3089" y2="95.7863"/>
				<line class="st2" x1="-266.6498" y1="85.7636" x2="535.3089" y2="85.7636"/>
				<line class="st2" x1="-266.6498" y1="75.7448" x2="535.3089" y2="75.7448"/>
				<line class="st2" x1="-266.6498" y1="65.7221" x2="535.3089" y2="65.7221"/>
				<line class="st2" x1="-266.6498" y1="55.6994" x2="535.3089" y2="55.6994"/>
				<line class="st2" x1="-266.6498" y1="45.6803" x2="535.3089" y2="45.6803"/>
				<line class="st2" x1="-266.6498" y1="35.658" x2="535.3089" y2="35.658"/>
				<line class="st2" x1="-266.6498" y1="25.6353" x2="535.3089" y2="25.6353"/>
				<line class="st2" x1="-266.6498" y1="15.6161" x2="535.3089" y2="15.6161"/>
				<line class="st2" x1="-266.6498" y1="5.5938" x2="535.3089" y2="5.5938"/>
				<line class="st2" x1="-266.6498" y1="-4.4289" x2="535.3089" y2="-4.4289"/>
				<line class="st2" x1="-266.6498" y1="-14.448" x2="535.3089" y2="-14.448"/>
				<line class="st2" x1="-266.6498" y1="-24.4721" x2="535.3089" y2="-24.4721"/>
				<line class="st2" x1="-266.6498" y1="-34.4913" x2="535.3089" y2="-34.4913"/>
				<line class="st2" x1="-266.6498" y1="-44.5139" x2="535.3089" y2="-44.5139"/>
				<line class="st2" x1="-266.6498" y1="-54.5363" x2="535.3089" y2="-54.5363"/>
				<line class="st2" x1="-266.6498" y1="-64.5554" x2="535.3089" y2="-64.5554"/>
			</g>
			<g id="Vertical_1_mm">
				<g>
					<line class="st2" x1="-266.384" y1="516.6377" x2="-266.384" y2="-84.8663"/>
				</g>
				<line class="st2" x1="-256.3649" y1="516.6377" x2="-256.3649" y2="-84.8663"/>
				<line class="st2" x1="-246.3424" y1="516.6377" x2="-246.3424" y2="-84.8663"/>
				<line class="st2" x1="-236.3199" y1="516.6377" x2="-236.3199" y2="-84.8663"/>
				<line class="st2" x1="-226.3009" y1="516.6377" x2="-226.3009" y2="-84.8663"/>
				<line class="st2" x1="-216.2782" y1="516.6377" x2="-216.2782" y2="-84.8663"/>
				<line class="st2" x1="-206.2555" y1="516.6377" x2="-206.2555" y2="-84.8663"/>
				<line class="st2" x1="-196.2367" y1="516.6377" x2="-196.2367" y2="-84.8663"/>
				<line class="st2" x1="-186.2123" y1="516.6377" x2="-186.2123" y2="-84.8663"/>
				<line class="st2" x1="-176.1931" y1="516.6377" x2="-176.1931" y2="-84.8663"/>
				<line class="st2" x1="-166.1708" y1="516.6377" x2="-166.1708" y2="-84.8663"/>
				<line class="st2" x1="-156.1481" y1="516.6377" x2="-156.1481" y2="-84.8663"/>
				<line class="st2" x1="-146.129" y1="516.6377" x2="-146.129" y2="-84.8663"/>
				<line class="st2" x1="-136.1067" y1="516.6377" x2="-136.1067" y2="-84.8663"/>
				<line class="st2" x1="-126.084" y1="516.6377" x2="-126.084" y2="-84.8663"/>
				<line class="st2" x1="-116.0648" y1="516.6377" x2="-116.0648" y2="-84.8663"/>
				<line class="st2" x1="-106.0422" y1="516.6377" x2="-106.0422" y2="-84.8663"/>
				<line class="st2" x1="-96.0198" y1="516.6377" x2="-96.0198" y2="-84.8663"/>
				<line class="st2" x1="-86.0007" y1="516.6377" x2="-86.0007" y2="-84.8663"/>
				<line class="st2" x1="-75.978" y1="516.6377" x2="-75.978" y2="-84.8663"/>
				<line class="st2" x1="-65.9557" y1="516.6377" x2="-65.9557" y2="-84.8663"/>
				<line class="st2" x1="-55.9365" y1="516.6377" x2="-55.9365" y2="-84.8663"/>
				<line class="st2" x1="-45.9139" y1="516.6377" x2="-45.9139" y2="-84.8663"/>
				<line class="st2" x1="-35.8915" y1="516.6377" x2="-35.8915" y2="-84.8663"/>
				<line class="st2" x1="-25.8706" y1="516.6377" x2="-25.8706" y2="-84.8663"/>
				<line class="st2" x1="-15.848" y1="516.6377" x2="-15.848" y2="-84.8663"/>
				<line class="st2" x1="-5.8292" y1="516.6377" x2="-5.8292" y2="-84.8663"/>
				<line class="st2" x1="4.1935" y1="516.6377" x2="4.1935" y2="-84.8663"/>
				<line class="st2" x1="14.2162" y1="516.6377" x2="14.2162" y2="-84.8663"/>
				<line class="st2" x1="24.235" y1="516.6377" x2="24.235" y2="-84.8663"/>
				<line class="st2" x1="34.2577" y1="516.6377" x2="34.2577" y2="-84.8663"/>
				<line class="st2" x1="44.2803" y1="516.6377" x2="44.2803" y2="-84.8663"/>
				<line class="st2" x1="54.2995" y1="516.6377" x2="54.2995" y2="-84.8663"/>
				<line class="st2" x1="64.3218" y1="516.6377" x2="64.3218" y2="-84.8663"/>
				<line class="st2" x1="74.3445" y1="516.6377" x2="74.3445" y2="-84.8663"/>
				<line class="st2" x1="84.3636" y1="516.6377" x2="84.3636" y2="-84.8663"/>
				<line class="st2" x1="94.386" y1="516.6377" x2="94.386" y2="-84.8663"/>
				<line class="st2" x1="104.4086" y1="516.6377" x2="104.4086" y2="-84.8663"/>
				<line class="st2" x1="114.4278" y1="516.6377" x2="114.4278" y2="-84.8663"/>
				<line class="st2" x1="124.4501" y1="516.6377" x2="124.4501" y2="-84.8663"/>
				<line class="st2" x1="134.4693" y1="516.6377" x2="134.4693" y2="-84.8663"/>
				<line class="st2" x1="144.4937" y1="516.6377" x2="144.4937" y2="-84.8663"/>
				<line class="st2" x1="154.516" y1="516.6377" x2="154.516" y2="-84.8663"/>
				<line class="st2" x1="164.5352" y1="516.6377" x2="164.5352" y2="-84.8663"/>
				<line class="st2" x1="174.5578" y1="516.6377" x2="174.5578" y2="-84.8663"/>
				<line class="st2" x1="184.5802" y1="516.6377" x2="184.5802" y2="-84.8663"/>
				<line class="st2" x1="194.5993" y1="516.6377" x2="194.5993" y2="-84.8663"/>
				<line class="st2" x1="204.622" y1="516.6377" x2="204.622" y2="-84.8663"/>
				<line class="st2" x1="214.6443" y1="516.6377" x2="214.6443" y2="-84.8663"/>
				<line class="st2" x1="224.6635" y1="516.6377" x2="224.6635" y2="-84.8663"/>
				<line class="st2" x1="234.6861" y1="516.6377" x2="234.6861" y2="-84.8663"/>
				<line class="st2" x1="244.7085" y1="516.6377" x2="244.7085" y2="-84.8663"/>
				<line class="st2" x1="254.7276" y1="516.6377" x2="254.7276" y2="-84.8663"/>
				<line class="st2" x1="264.7503" y1="516.6377" x2="264.7503" y2="-84.8663"/>
				<line class="st2" x1="274.7726" y1="516.6377" x2="274.7726" y2="-84.8663"/>
				<line class="st2" x1="284.7917" y1="516.6377" x2="284.7917" y2="-84.8663"/>
				<line class="st2" x1="294.8162" y1="516.6377" x2="294.8162" y2="-84.8663"/>
				<line class="st2" x1="304.8354" y1="516.6377" x2="304.8354" y2="-84.8663"/>
				<line class="st2" x1="314.8577" y1="516.6377" x2="314.8577" y2="-84.8663"/>
				<line class="st2" x1="324.8804" y1="516.6377" x2="324.8804" y2="-84.8663"/>
				<line class="st2" x1="334.8995" y1="516.6377" x2="334.8995" y2="-84.8663"/>
				<line class="st2" x1="344.9218" y1="516.6377" x2="344.9218" y2="-84.8663"/>
				<line class="st2" x1="354.9445" y1="516.6377" x2="354.9445" y2="-84.8663"/>
				<line class="st2" x1="364.9637" y1="516.6377" x2="364.9637" y2="-84.8663"/>
				<line class="st2" x1="374.986" y1="516.6377" x2="374.986" y2="-84.8663"/>
				<line class="st2" x1="385.0087" y1="516.6377" x2="385.0087" y2="-84.8663"/>
				<line class="st2" x1="395.0278" y1="516.6377" x2="395.0278" y2="-84.8663"/>
				<line class="st2" x1="405.0501" y1="516.6377" x2="405.0501" y2="-84.8663"/>
				<line class="st2" x1="415.0728" y1="516.6377" x2="415.0728" y2="-84.8663"/>
				<line class="st2" x1="425.0919" y1="516.6377" x2="425.0919" y2="-84.8663"/>
				<line class="st2" x1="435.1146" y1="516.6377" x2="435.1146" y2="-84.8663"/>
				<line class="st2" x1="445.137" y1="516.6377" x2="445.137" y2="-84.8663"/>
				<line class="st2" x1="455.1579" y1="516.6377" x2="455.1579" y2="-84.8663"/>
				<line class="st2" x1="465.1802" y1="516.6377" x2="465.1802" y2="-84.8663"/>
				<line class="st2" x1="475.1993" y1="516.6377" x2="475.1993" y2="-84.8663"/>
				<line class="st2" x1="485.222" y1="516.6377" x2="485.222" y2="-84.8663"/>
				<line class="st2" x1="495.2447" y1="516.6377" x2="495.2447" y2="-84.8663"/>
				<line class="st2" x1="505.2635" y1="516.6377" x2="505.2635" y2="-84.8663"/>
				<line class="st2" x1="515.2861" y1="516.6377" x2="515.2861" y2="-84.8663"/>
				<line class="st2" x1="525.3088" y1="516.6377" x2="525.3088" y2="-84.8663"/>
				<line class="st2" x1="535.3276" y1="516.6377" x2="535.3276" y2="-84.8663"/>
			</g>
			<g id="Horizontal_5_mm_1_">
				<line class="st3" x1="-267.6217" y1="516.6865" x2="535.3089" y2="516.6865"/>
				<line class="st3" x1="-267.6217" y1="466.5805" x2="535.3089" y2="466.5805"/>
				<line class="st3" x1="-267.6217" y1="416.4731" x2="535.3089" y2="416.4731"/>
				<line class="st3" x1="-267.6217" y1="366.364" x2="535.3089" y2="366.364"/>
				<line class="st3" x1="-267.6217" y1="316.258" x2="535.3089" y2="316.258"/>
				<line class="st3" x1="-267.6217" y1="266.1506" x2="535.3089" y2="266.1506"/>
				<line class="st3" x1="-267.6217" y1="216.0446" x2="535.3089" y2="216.0446"/>
				<line class="st3" x1="-267.6217" y1="165.9355" x2="535.3089" y2="165.9355"/>
				<line class="st3" x1="-267.6217" y1="115.8277" x2="535.3089" y2="115.8277"/>
				<line class="st3" x1="-267.6217" y1="65.7221" x2="535.3089" y2="65.7221"/>
				<line class="st3" x1="-267.6217" y1="15.6161" x2="535.3089" y2="15.6161"/>
			</g>
			<g id="Vertical_5_mm">
				<line class="st3" x1="-266.384" y1="516.6377" x2="-266.384" y2="-85.8382"/>
				<line class="st3" x1="-216.2782" y1="516.6377" x2="-216.2782" y2="-85.8382"/>
				<line class="st3" x1="-166.1708" y1="516.6377" x2="-166.1708" y2="-85.8382"/>
				<line class="st3" x1="-116.0648" y1="516.6377" x2="-116.0648" y2="-85.8382"/>
				<line class="st3" x1="-65.9557" y1="516.6377" x2="-65.9557" y2="-85.8382"/>
				<line class="st3" x1="-15.848" y1="516.6377" x2="-15.848" y2="-85.8382"/>
				<line class="st3" x1="34.2577" y1="516.6377" x2="34.2577" y2="-85.8382"/>
				<line class="st3" x1="84.3636" y1="516.6377" x2="84.3636" y2="-85.8382"/>
				<line class="st3" x1="134.4693" y1="516.6377" x2="134.4693" y2="-85.8382"/>
				<line class="st3" x1="184.5802" y1="516.6377" x2="184.5802" y2="-85.8382"/>
				<line class="st3" x1="234.6861" y1="516.6377" x2="234.6861" y2="-85.8382"/>
				<line class="st3" x1="284.7917" y1="516.6377" x2="284.7917" y2="-85.8382"/>
				<line class="st3" x1="334.8995" y1="516.6377" x2="334.8995" y2="-85.8382"/>
				<line class="st3" x1="385.0087" y1="516.6377" x2="385.0087" y2="-85.8382"/>
				<line class="st3" x1="435.1146" y1="516.6377" x2="435.1146" y2="-85.8382"/>
				<line class="st3" x1="485.222" y1="516.6377" x2="485.222" y2="-85.8382"/>
				<line class="st3" x1="535.3276" y1="516.6377" x2="535.3276" y2="-85.8382"/>
			</g>
			<g id="Horizontal_10_mm">
				<line id="_x31_9_1_" class="st4" x1="-267.6217" y1="516.6865" x2="535.3089" y2="516.6865"/>
				<line id="_x32_0" class="st4" x1="-267.6217" y1="416.4731" x2="535.3089" y2="416.4731"/>
				<line id="_x32_1" class="st4" x1="-267.6217" y1="316.258" x2="535.3089" y2="316.258"/>
				<line id="_x32_2" class="st4" x1="-267.6217" y1="216.0446" x2="535.3089" y2="216.0446"/>
				<line id="_x32_3" class="st4" x1="-267.6217" y1="115.8277" x2="535.3089" y2="115.8277"/>
				<line id="_x32_4" class="st4" x1="-267.6217" y1="15.6161" x2="535.3089" y2="15.6161"/>
				<line id="_x32_5" class="st4" x1="-267.6217" y1="-84.6005" x2="535.3089" y2="-84.6005"/>
			</g>
			<g id="Vertical_10_mm">
				<line id="_x30_" class="st4" x1="-266.384" y1="516.6377" x2="-266.384" y2="-85.8382"/>
				<line id="_x31_" class="st4" x1="-166.1708" y1="516.6377" x2="-166.1708" y2="-85.8382"/>
				<line id="_x32_" class="st4" x1="-65.9557" y1="516.6377" x2="-65.9557" y2="-85.8382"/>
				<line id="_x33_" class="st4" x1="34.2577" y1="516.6377" x2="34.2577" y2="-85.8382"/>
				<line id="_x34_" class="st4" x1="134.4693" y1="516.6377" x2="134.4693" y2="-85.8382"/>
				<line id="_x35_" class="st4" x1="234.6861" y1="516.6377" x2="234.6861" y2="-85.8382"/>
				<line id="_x36_" class="st4" x1="334.8995" y1="516.6377" x2="334.8995" y2="-85.8382"/>
				<line id="_x37_" class="st4" x1="435.1146" y1="516.6377" x2="435.1146" y2="-85.8382"/>
				<line id="_x38_" class="st4" x1="535.3276" y1="516.6377" x2="535.3276" y2="-85.8382"/>
			</g>
		</g>
	</g>
</g>
<g id="schematic_1" class="st5">
	<g class="st6">
		<line class="st7" x1="125.3745" y1="65.6246" x2="162.8143" y2="65.6246"/>
		<line class="st7" x1="162.8143" y1="65.6246" x2="200.254" y2="65.6246"/>
	</g>
	<g class="st6">
		<line class="st7" x1="200.254" y1="15.705" x2="162.8143" y2="15.705"/>
		<line class="st7" x1="162.8143" y1="15.705" x2="125.3745" y2="15.705"/>
		<line class="st7" x1="125.3745" y1="15.705" x2="38.0151" y2="15.705"/>
	</g>
	<g class="st6">
		<line class="st7" x1="38.0151" y1="115.5443" x2="200.254" y2="115.5443"/>
	</g>
	<g class="st6">
		<line class="st8" x1="38.0151" y1="65.6246" x2="38.0151" y2="78.1045"/>
		<line class="st8" x1="38.0151" y1="115.5443" x2="38.0151" y2="103.0644"/>
		<line class="st9" x1="34.8952" y1="93.7044" x2="38.0151" y2="93.7044"/>
		<line class="st8" x1="38.0151" y1="103.0644" x2="38.0151" y2="93.7044"/>
		<line class="st9" x1="38.0151" y1="93.7044" x2="41.1351" y2="93.7044"/>
		<line class="st9" x1="25.5352" y1="87.4645" x2="38.0151" y2="87.4645"/>
		<line class="st8" x1="38.0151" y1="87.4645" x2="38.0151" y2="78.1045"/>
		<line class="st9" x1="38.0151" y1="87.4645" x2="50.4951" y2="87.4645"/>
		<g class="st10">
			<path class="st11" d="M32.9122,76.2886h-1.4229v1.4121h-0.5947v-1.4121h-1.4121V75.687h1.4121v-1.4131h0.5947v1.4131h1.4229
				V76.2886z"/>
		</g>
		<g class="st10">
			<path class="st11" d="M33.629,104.0269h-3.4268v-0.5947h3.4268V104.0269z"/>
		</g>
	</g>
	<g class="st6">
		<line class="st8" x1="38.0151" y1="65.6246" x2="38.0151" y2="53.1447"/>
		<line class="st8" x1="38.0151" y1="15.705" x2="38.0151" y2="28.1849"/>
		<line class="st12" x1="42.3831" y1="53.1447" x2="42.3831" y2="28.1849"/>
		<line class="st12" x1="33.6472" y1="28.1849" x2="33.6472" y2="53.1447"/>
		<line class="st12" x1="42.3831" y1="28.1849" x2="33.6472" y2="28.1849"/>
		<line class="st12" x1="42.3831" y1="53.1447" x2="33.6472" y2="53.1447"/>
		<g class="st10">
			<path class="st11" d="M18.9884,35.084c1.3193,0,2.0391,0.5596,2.0391,1.4092c0,0.4795-0.25,0.9692-0.6602,1.2793
				c-0.3096,0.2397-0.6396,0.3599-1.3086,0.5098l0.8887,2.3486c0.2207,0.5898,0.4199,0.8193,0.8701,0.8193v0.1602h-1.4697
				l-1.2285-3.2383l-0.6602-0.0498l-0.5498,2.0288c-0.1094,0.3896-0.1299,0.5298-0.1299,0.6294
				c0,0.3003,0.1006,0.4102,0.6699,0.4697v0.1602h-2.4287v-0.1602c0.5498-0.0698,0.6895-0.2598,0.8496-0.8491l1.1895-4.3076
				c0.0693-0.27,0.1201-0.46,0.1201-0.6299c0-0.1099-0.0703-0.23-0.1406-0.2798c-0.1094-0.0698-0.1494-0.0801-0.5693-0.1401V35.084
				H18.9884z M17.5792,37.9522c0.25,0.04,0.3301,0.0503,0.5098,0.0503c1.1895,0,1.8887-0.5698,1.8887-1.4995
				c0-0.6895-0.4199-1.1191-1.1992-1.1191c-0.3096,0-0.5195,0.1099-0.5693,0.2998L17.5792,37.9522z"/>
			<path class="st11" d="M22.6309,44.3399c-0.3213,0.4897-0.5078,0.6646-0.7988,0.6646c-0.1924,0-0.2861-0.105-0.2861-0.3203
				c0-0.1167,0.041-0.3208,0.1289-0.647l0.2793-1.0317c0.0293-0.105,0.0527-0.21,0.0527-0.2563c0-0.1167-0.0586-0.1343-0.373-0.1401
				v-0.0933c0.2275-0.0176,0.3438-0.0352,0.9326-0.1455l0.0234,0.0171l-0.5479,1.9995c-0.0293,0.0991-0.0586,0.1748-0.0586,0.2563
				c0,0.0586,0.0352,0.0874,0.082,0.0874c0.0986,0,0.2383-0.1221,0.4893-0.4546L22.6309,44.3399z M22.5138,41.7461
				c-0.1689,0-0.2793-0.1221-0.2793-0.3086c0-0.1807,0.1162-0.3091,0.2734-0.3091s0.292,0.1514,0.292,0.3203
				C22.7999,41.6123,22.6651,41.7461,22.5138,41.7461z"/>
		</g>
	</g>
	<g class="st6">
		<line class="st8" x1="200.254" y1="115.5443" x2="200.254" y2="103.0644"/>
		<line class="st8" x1="200.254" y1="65.6246" x2="200.254" y2="78.1045"/>
		<line class="st12" x1="204.622" y1="103.0644" x2="204.622" y2="78.1045"/>
		<line class="st12" x1="195.8861" y1="78.1045" x2="195.8861" y2="103.0644"/>
		<line class="st12" x1="204.622" y1="78.1045" x2="195.8861" y2="78.1045"/>
		<line class="st12" x1="204.622" y1="103.0644" x2="195.8861" y2="103.0644"/>
	</g>
	<g class="st6">
		<line class="st8" x1="125.3745" y1="65.6246" x2="125.3745" y2="53.1447"/>
		<line class="st8" x1="125.3745" y1="15.705" x2="125.3745" y2="28.1849"/>
		<line class="st12" x1="129.7425" y1="53.1447" x2="129.7425" y2="28.1849"/>
		<line class="st12" x1="121.0066" y1="28.1849" x2="121.0066" y2="53.1447"/>
		<line class="st12" x1="129.7425" y1="28.1849" x2="121.0066" y2="28.1849"/>
		<line class="st12" x1="129.7425" y1="53.1447" x2="121.0066" y2="53.1447"/>
		<g class="st10">
			<path class="st11" d="M177.962,35.3277c1.3193,0,2.0391,0.5596,2.0391,1.4092c0,0.4795-0.25,0.9692-0.6602,1.2793
				c-0.3096,0.2397-0.6396,0.3599-1.3086,0.5098l0.8896,2.3486c0.2197,0.5898,0.4189,0.8193,0.8691,0.8193v0.1602h-1.4697
				l-1.2285-3.2383l-0.6602-0.0498l-0.5498,2.0288c-0.1094,0.3896-0.1299,0.5298-0.1299,0.6294
				c0,0.3003,0.1006,0.4102,0.6699,0.4697v0.1602h-2.4287v-0.1602c0.5498-0.0698,0.6895-0.2598,0.8496-0.8491l1.1895-4.3076
				c0.0693-0.27,0.1201-0.46,0.1201-0.6299c0-0.1099-0.0703-0.23-0.1406-0.2798c-0.1094-0.0698-0.1494-0.0801-0.5693-0.1401v-0.1597
				H177.962z M176.5528,38.1958c0.25,0.04,0.3301,0.0503,0.5098,0.0503c1.1895,0,1.8887-0.5698,1.8887-1.4995
				c0-0.6895-0.4199-1.1191-1.1992-1.1191c-0.3096,0-0.5195,0.1099-0.5693,0.2998L176.5528,38.1958z"/>
			<path class="st11" d="M180.7012,42.188c0.1396-0.3438,0.2734-0.542,0.4775-0.6992c0.2275-0.1748,0.4775-0.2451,0.7461-0.2451
				c0.5596,0,0.9443,0.4316,0.9443,0.9854c0,0.3906-0.1807,0.6587-0.8682,1.3638l-1.0967,1.1191v0.0293h1.0557
				c0.3438,0,0.46-0.0874,0.6006-0.3789l0.0986,0.0405l-0.291,0.7812h-2.0635V45.085l1.2236-1.3057
				c0.3848-0.4082,0.6475-0.7754,0.7871-1.0898c0.0352-0.0757,0.0527-0.1865,0.0527-0.3149c0-0.4023-0.2334-0.7051-0.6943-0.7051
				c-0.3496,0-0.6465,0.1689-0.8506,0.5596L180.7012,42.188z"/>
		</g>
		<g class="st10">
			<path class="st11" d="M139.0118,35.3277c1.3193,0,2.0391,0.5596,2.0391,1.4092c0,0.4795-0.25,0.9692-0.6602,1.2793
				c-0.3096,0.2397-0.6396,0.3599-1.3086,0.5098l0.8896,2.3486c0.2197,0.5898,0.4189,0.8193,0.8691,0.8193v0.1602h-1.4697
				l-1.2285-3.2383l-0.6602-0.0498l-0.5498,2.0288c-0.1094,0.3896-0.1299,0.5298-0.1299,0.6294
				c0,0.3003,0.1006,0.4102,0.6699,0.4697v0.1602h-2.4287v-0.1602c0.5498-0.0698,0.6895-0.2598,0.8496-0.8491l1.1895-4.3076
				c0.0693-0.27,0.1201-0.46,0.1201-0.6299c0-0.1099-0.0703-0.23-0.1406-0.2798c-0.1094-0.0698-0.1494-0.0801-0.5693-0.1401v-0.1597
				H139.0118z M137.6026,38.1958c0.25,0.04,0.3301,0.0503,0.5098,0.0503c1.1895,0,1.8887-0.5698,1.8887-1.4995
				c0-0.6895-0.4199-1.1191-1.1992-1.1191c-0.3096,0-0.5195,0.1099-0.5693,0.2998L137.6026,38.1958z"/>
			<path class="st11" d="M143.6387,41.2437c0.0176,0,0.0293,0.0176,0.0293,0.041c0,0.0293-0.0117,0.0874-0.0352,0.1689
				l-0.833,3.0254c-0.041,0.1455-0.1055,0.373-0.1055,0.4312c0,0.1343,0.1289,0.1865,0.3848,0.1865h0.123v0.0874h-1.627v-0.0874
				c0.4609-0.0352,0.5889-0.0991,0.6533-0.3208l0.793-2.8442c0.0293-0.1108,0.0459-0.1689,0.0459-0.21
				c0-0.1108-0.0752-0.1807-0.2031-0.1807h-0.0176c-0.1055,0-0.2334,0.0059-0.3447,0.0117v-0.0874l0.1348-0.0293
				c0.5127-0.1108,0.5361-0.0991,0.9844-0.1924H143.6387z"/>
		</g>
		<g class="st10">
			<path class="st11" d="M214.0157,35.3277c1.3193,0,2.0391,0.5596,2.0391,1.4092c0,0.4795-0.25,0.9692-0.6602,1.2793
				c-0.3096,0.2397-0.6396,0.3599-1.3086,0.5098l0.8896,2.3486c0.2197,0.5898,0.4189,0.8193,0.8691,0.8193v0.1602h-1.4697
				l-1.2285-3.2383l-0.6602-0.0498l-0.5498,2.0288c-0.1094,0.3896-0.1299,0.5298-0.1299,0.6294
				c0,0.3003,0.1006,0.4102,0.6699,0.4697v0.1602h-2.4287v-0.1602c0.5498-0.0698,0.6895-0.2598,0.8496-0.8491l1.1895-4.3076
				c0.0693-0.27,0.1201-0.46,0.1201-0.6299c0-0.1099-0.0703-0.23-0.1406-0.2798c-0.1094-0.0698-0.1494-0.0801-0.5693-0.1401v-0.1597
				H214.0157z M212.6065,38.1958c0.25,0.04,0.3301,0.0503,0.5098,0.0503c1.1895,0,1.8887-0.5698,1.8887-1.4995
				c0-0.6895-0.4199-1.1191-1.1992-1.1191c-0.3096,0-0.5195,0.1099-0.5693,0.2998L212.6065,38.1958z"/>
			<path class="st11" d="M217.2325,41.8501c0.1924-0.4199,0.5654-0.6064,0.9971-0.6064c0.4541,0,0.7686,0.2915,0.7686,0.7114
				c0,0.4312-0.2383,0.6587-0.9033,0.8916v0.0176c0.3965,0.1514,0.5537,0.4136,0.5537,0.8394c0,0.4604-0.21,0.8687-0.542,1.1597
				c-0.2852,0.251-0.6582,0.3618-1.0781,0.3618s-0.6465-0.1401-0.6465-0.3325c0-0.1455,0.0986-0.2505,0.25-0.2505
				c0.1113,0,0.2158,0.0347,0.373,0.1748c0.1514,0.1338,0.3037,0.1865,0.4141,0.1865c0.1924,0,0.3965-0.105,0.542-0.2681
				c0.1514-0.1807,0.2217-0.4604,0.2217-0.7344c0-0.6299-0.373-0.9209-0.9326-0.9209h-0.1396v-0.0933
				c0.5244-0.0933,0.7686-0.1753,1.0195-0.3501c0.2451-0.1689,0.3613-0.373,0.3613-0.6177c0-0.3208-0.2041-0.5303-0.5127-0.5303
				c-0.251,0-0.4434,0.1162-0.6533,0.3901L217.2325,41.8501z"/>
		</g>
		<g class="st10">
			<path class="st11" d="M213.8868,88.1709c1.3193,0,2.0391,0.5596,2.0391,1.4092c0,0.4795-0.25,0.9692-0.6602,1.2793
				c-0.3096,0.2397-0.6396,0.3599-1.3086,0.5098l0.8896,2.3486c0.2197,0.5898,0.4189,0.8193,0.8691,0.8193v0.1602h-1.4697
				l-1.2285-3.2383l-0.6602-0.0498l-0.5498,2.0288c-0.1094,0.3896-0.1299,0.5298-0.1299,0.6294
				c0,0.3003,0.1006,0.4102,0.6699,0.4697v0.1602h-2.4287v-0.1602c0.5498-0.0698,0.6895-0.2598,0.8496-0.8491l1.1895-4.3076
				c0.0693-0.27,0.1201-0.46,0.1201-0.6299c0-0.1099-0.0703-0.23-0.1406-0.2798c-0.1094-0.0698-0.1494-0.0801-0.5693-0.1401v-0.1597
				H213.8868z M212.4776,91.0391c0.25,0.04,0.3301,0.0503,0.5098,0.0503c1.1895,0,1.8887-0.5698,1.8887-1.4995
				c0-0.6895-0.4199-1.1191-1.1992-1.1191c-0.3096,0-0.5195,0.1099-0.5693,0.2998L212.4776,91.0391z"/>
			<path class="st11" d="M218.2462,96.6226h0.5596l-0.082,0.3672h-0.5889l-0.2676,1.0376h-0.4609l0.2861-1.0376h-1.5273
				l0.1162-0.3906l2.4307-2.5122h0.2393L218.2462,96.6226z M218.3096,94.7456l-1.7715,1.8535v0.0234h1.2354l0.5596-1.877H218.3096z"
				/>
		</g>
		<g class="st10">
			<path class="st11" d="M134.2901,53.1446v-0.1499c0.7393-0.04,0.9492-0.25,0.9492-0.7998v-4.4873
				c0-0.3398-0.0898-0.4897-0.2998-0.4897c-0.0996,0-0.2695,0.0498-0.4502,0.1201l-0.2695,0.0996v-0.1396l1.7891-0.9097
				l0.0898,0.0303v5.9663c0,0.4302,0.2002,0.6099,0.9492,0.6099v0.1499H134.2901z"/>
			<path class="st11" d="M142.3985,53.1446l0.0693-1.6089c0.8496-0.21,1.4092-1.3096,1.4092-2.3789
				c0-1.4194-0.7393-2.4087-2.0488-2.4087c-1.3594,0-2.0488,1.2095-2.0488,2.4087c0,0.9795,0.5195,2.1289,1.3994,2.3789
				l0.0898,1.6089h-2.8682v-1.709h0.25c0.0098,0.6094,0.1797,0.7593,0.6191,0.7593h1.5098l-0.0205-0.3696
				c-1.3887-0.3896-2.1191-1.1992-2.1191-2.6484c0-1.3594,1.1699-2.7886,3.1885-2.7886c1.9795,0,3.1885,1.2993,3.1885,2.7886
				c0,1.459-0.7998,2.2686-2.1484,2.6484l-0.0205,0.3696h1.5391c0.4102,0,0.5996-0.2397,0.6201-0.7393h0.25v1.689H142.3985z"/>
		</g>
		<g class="st10">
			<path class="st11" d="M174.2647,53.1446h-3.9072v-0.1201l1.7793-1.8887c0.9395-0.9897,1.2988-1.749,1.2988-2.5986
				c0-0.9097-0.54-1.4092-1.3896-1.4092c-0.7188,0-1.0693,0.3198-1.4688,1.2993l-0.21-0.0503
				c0.21-1.1689,0.8496-1.9888,2.0791-1.9888c1.1289,0,1.8486,0.7695,1.8486,1.7593c0,0.7896-0.3896,1.5391-1.2793,2.4785
				l-1.6494,1.7588h2.3389c0.4199,0,0.6299-0.1099,0.96-0.6694l0.1396,0.0601L174.2647,53.1446z"/>
			<path class="st11" d="M179.3555,53.1446l0.0693-1.6089c0.8496-0.21,1.4092-1.3096,1.4092-2.3789
				c0-1.4194-0.7393-2.4087-2.0488-2.4087c-1.3594,0-2.0488,1.2095-2.0488,2.4087c0,0.9795,0.5195,2.1289,1.3994,2.3789
				l0.0898,1.6089h-2.8682v-1.709h0.25c0.0098,0.6094,0.1797,0.7593,0.6191,0.7593h1.5098l-0.0205-0.3696
				c-1.3887-0.3896-2.1191-1.1992-2.1191-2.6484c0-1.3594,1.1699-2.7886,3.1885-2.7886c1.9795,0,3.1885,1.2993,3.1885,2.7886
				c0,1.459-0.7998,2.2686-2.1484,2.6484l-0.0205,0.3696h1.5391c0.4102,0,0.5996-0.2397,0.6201-0.7393h0.25v1.689H179.3555z"/>
		</g>
		<g class="st10">
			<path class="st11" d="M207.6622,48.0073c0.2891-0.9492,0.9189-1.6191,1.958-1.6191c0.9297,0,1.5596,0.5498,1.5596,1.3691
				c0,0.48-0.2598,0.9795-0.9297,1.3794c0.4404,0.1899,0.6201,0.3101,0.8301,0.5298c0.2793,0.3096,0.4395,0.7695,0.4395,1.2891
				c0,0.5298-0.1699,1.0195-0.46,1.3994c-0.4795,0.6396-1.4287,0.9297-2.3184,0.9297c-0.7295,0-1.1191-0.21-1.1191-0.5698
				c0-0.21,0.1797-0.3599,0.4092-0.3599c0.1699,0,0.3301,0.0601,0.6104,0.2598c0.3691,0.2598,0.5791,0.3101,0.8594,0.3101
				c0.7393,0,1.2988-0.6797,1.2988-1.5293c0-0.7598-0.3496-1.2495-1.0391-1.4492c-0.2197-0.0698-0.4502-0.1001-1.0195-0.1001
				v-0.1396c0.3799-0.1299,0.6396-0.2397,0.8398-0.3599c0.4893-0.2798,0.8096-0.7295,0.8096-1.3394
				c0-0.6797-0.4199-1.0195-1.0801-1.0195c-0.6191,0-1.0791,0.3198-1.4893,1.0596L207.6622,48.0073z"/>
			<path class="st11" d="M216.5001,53.1446l0.0693-1.6089c0.8496-0.21,1.4092-1.3096,1.4092-2.3789
				c0-1.4194-0.7393-2.4087-2.0488-2.4087c-1.3594,0-2.0488,1.2095-2.0488,2.4087c0,0.9795,0.5195,2.1289,1.3994,2.3789
				l0.0898,1.6089h-2.8682v-1.709h0.25c0.0098,0.6094,0.1797,0.7593,0.6191,0.7593h1.5098l-0.0205-0.3696
				c-1.3887-0.3896-2.1191-1.1992-2.1191-2.6484c0-1.3594,1.1699-2.7886,3.1885-2.7886c1.9795,0,3.1885,1.2993,3.1885,2.7886
				c0,1.459-0.7998,2.2686-2.1484,2.6484l-0.0205,0.3696h1.5391c0.4102,0,0.5996-0.2397,0.6201-0.7393h0.25v1.689H216.5001z"/>
		</g>
		<g class="st10">
			<path class="st11" d="M210.9102,105.0166v1.6689H210.13v-1.6689h-2.7979v-0.6396l3.1377-4.4478h0.4404v4.4478h1.0293v0.6396
				H210.9102z M210.13,100.9487l-2.3984,3.4282h2.3984V100.9487z"/>
			<path class="st11" d="M216.5001,106.6856l0.0693-1.6089c0.8496-0.21,1.4092-1.3096,1.4092-2.3789
				c0-1.4194-0.7393-2.4087-2.0488-2.4087c-1.3594,0-2.0488,1.2095-2.0488,2.4087c0,0.9795,0.5195,2.1289,1.3994,2.3789
				l0.0898,1.6089h-2.8682v-1.709h0.25c0.0098,0.6094,0.1797,0.7593,0.6191,0.7593h1.5098l-0.0205-0.3696
				c-1.3887-0.3896-2.1191-1.1992-2.1191-2.6484c0-1.3594,1.1699-2.7886,3.1885-2.7886c1.9795,0,3.1885,1.2993,3.1885,2.7886
				c0,1.459-0.7998,2.2686-2.1484,2.6484l-0.0205,0.3696h1.5391c0.4102,0,0.5996-0.2397,0.6201-0.7393h0.25v1.689H216.5001z"/>
		</g>
		<g class="st10">
			<path class="st11" d="M10.8985,53.2847c-1.709,0-2.2588-1.8594-2.2588-3.4985c0-1.7686,0.6895-3.3979,2.2988-3.3979
				c1.3086,0,2.2188,1.4092,2.2188,3.458C13.1573,51.5654,12.5274,53.2847,10.8985,53.2847z M10.878,46.648
				c-0.8291,0-1.2793,1.1797-1.2793,3.2085s0.4395,3.168,1.2998,3.168c0.8496,0,1.2988-1.1494,1.2988-3.1279
				C12.1973,47.8174,11.7579,46.648,10.878,46.648z"/>
			<path class="st11" d="M14.6485,53.2544c-0.3096,0-0.5498-0.2397-0.5498-0.5498c0-0.3096,0.25-0.5596,0.5605-0.5596
				c0.2891,0,0.5488,0.27,0.5488,0.5698C15.2081,53.0044,14.9483,53.2544,14.6485,53.2544z"/>
			<path class="st11" d="M17.0792,53.1446v-0.1499c0.7393-0.04,0.9492-0.25,0.9492-0.7998v-4.4873
				c0-0.3398-0.0898-0.4897-0.2998-0.4897c-0.0996,0-0.2695,0.0498-0.4502,0.1201l-0.2695,0.0996v-0.1396l1.7891-0.9097
				l0.0898,0.0303v5.9663c0,0.4302,0.2002,0.6099,0.9492,0.6099v0.1499H17.0792z"/>
			<path class="st11" d="M25.1876,53.1446l0.0693-1.6089c0.8496-0.21,1.4092-1.3096,1.4092-2.3789
				c0-1.4194-0.7393-2.4087-2.0488-2.4087c-1.3594,0-2.0488,1.2095-2.0488,2.4087c0,0.9795,0.5195,2.1289,1.3994,2.3789
				l0.0898,1.6089h-2.8682v-1.709h0.25c0.0098,0.6094,0.1797,0.7593,0.6191,0.7593h1.5098l-0.0205-0.3696
				c-1.3887-0.3896-2.1191-1.1992-2.1191-2.6484c0-1.3594,1.1699-2.7886,3.1885-2.7886c1.9795,0,3.1885,1.2993,3.1885,2.7886
				c0,1.459-0.7998,2.2686-2.1484,2.6484l-0.0205,0.3696h1.5391c0.4102,0,0.5996-0.2397,0.6201-0.7393h0.25v1.689H25.1876z"/>
		</g>
		<g class="st10">
			<path class="st11" d="M12.2989,113.6509v-0.1499c0.7393-0.04,0.9492-0.25,0.9492-0.7998v-4.4873
				c0-0.3398-0.0898-0.4897-0.2998-0.4897c-0.0996,0-0.2695,0.0498-0.4502,0.1201l-0.2695,0.0996v-0.1396l1.7891-0.9097
				l0.0898,0.0303v5.9663c0,0.4302,0.2002,0.6099,0.9492,0.6099v0.1499H12.2989z"/>
			<path class="st11" d="M18.6182,113.791c-1.709,0-2.2588-1.8594-2.2588-3.4985c0-1.7686,0.6895-3.3979,2.2988-3.3979
				c1.3086,0,2.2188,1.4092,2.2188,3.458C20.877,112.0718,20.2472,113.791,18.6182,113.791z M18.5977,107.1543
				c-0.8291,0-1.2793,1.1797-1.2793,3.2085s0.4395,3.168,1.2998,3.168c0.8496,0,1.2988-1.1494,1.2988-3.1279
				C19.9171,108.3237,19.4776,107.1543,18.5977,107.1543z"/>
			<path class="st11" d="M28.085,107.2246c-0.3994,0.0098-0.6289,0.1699-0.9189,0.9092l-2.2188,5.627H24.797l-2.4385-5.437
				c-0.4297-0.9692-0.5801-1.0894-1.0791-1.0991v-0.1899h2.6484v0.1899l-0.2803,0.02c-0.3193,0.0195-0.4492,0.1099-0.4492,0.3096
				c0,0.1602,0.0898,0.3999,0.3896,1.0693l1.5195,3.4185l1.4688-3.688c0.1201-0.2998,0.1895-0.5498,0.1895-0.7197
				c0-0.3896-0.3193-0.3701-0.7188-0.4097v-0.1899h2.0381V107.2246z"/>
		</g>
	</g>
	<g class="st6">
		<line class="st8" x1="162.8143" y1="65.6246" x2="162.8143" y2="53.1447"/>
		<line class="st8" x1="162.8143" y1="15.705" x2="162.8143" y2="28.1849"/>
		<line class="st12" x1="167.1823" y1="53.1447" x2="167.1823" y2="28.1849"/>
		<line class="st12" x1="158.4463" y1="28.1849" x2="158.4463" y2="53.1447"/>
		<line class="st12" x1="167.1823" y1="28.1849" x2="158.4463" y2="28.1849"/>
		<line class="st12" x1="167.1823" y1="53.1447" x2="158.4463" y2="53.1447"/>
	</g>
	<g class="st6">
		<line class="st8" x1="200.254" y1="65.6246" x2="200.254" y2="53.1447"/>
		<line class="st8" x1="200.254" y1="15.705" x2="200.254" y2="28.1849"/>
		<line class="st12" x1="204.622" y1="53.1447" x2="204.622" y2="28.1849"/>
		<line class="st12" x1="195.8861" y1="28.1849" x2="195.8861" y2="53.1447"/>
		<line class="st12" x1="204.622" y1="28.1849" x2="195.8861" y2="28.1849"/>
		<line class="st12" x1="204.622" y1="53.1447" x2="195.8861" y2="53.1447"/>
	</g>
	<g class="st6">
		<path id="g0-69_00000160869045501405070970000005138309857641785504_" class="st11" d="M20.7205,98.1287
			c-2.3786,1.2845-2.5094,2.8187-2.5094,3.1041c0,0.9039,0.8801,1.4747,2.0099,1.4747c1.9861,0,3.5798-1.8791,3.5798-2.1289
			c0-0.0714-0.0595-0.0833-0.1189-0.0833c-0.1427,0-0.5947,0.1546-0.8682,0.5233c-0.2498,0.3449-0.7493,1.0347-1.8077,1.0347
			c-0.8444,0-1.784-0.44-1.784-1.332c0-0.5828,0.666-2.3429,2.5451-2.4143c0.559-0.0238,0.9752-0.44,0.9752-0.5709
			c0-0.0714-0.0595-0.0832-0.1189-0.0832c-1.6769-0.0714-2.0099-0.892-2.0099-1.3677c0-0.2735,0.1784-1.5699,1.8434-1.5699
			c0.226,0,1.1298,0.0357,1.1298,0.6541c0,0.1903-0.0951,0.3568-0.1427,0.4282c-0.0238,0.0357-0.0595,0.0951-0.0595,0.1308
			c0,0.0833,0.0833,0.0833,0.1189,0.0833c0.3568,0,1.0942-0.4638,1.0942-1.1417c0-0.7017-0.8206-0.8087-1.3558-0.8087
			c-1.6175,0-3.6393,1.2844-3.6393,2.7354C19.6026,97.4984,20.1378,97.9265,20.7205,98.1287z"/>
	</g>
	<g class="st6">
		<g>
			<line class="st13" x1="125.3745" y1="24.7225" x2="125.3746" y2="16.1202"/>
			<g>
				<path class="st14" d="M128.3032,20.5524c-0.1418-0.0906-0.3307-0.0486-0.4213,0.0935l-2.5074,3.9371l-2.5074-3.9371
					c-0.0905-0.1421-0.2794-0.1841-0.4213-0.0935c-0.1418,0.0905-0.1829,0.2803-0.0936,0.4213l2.7648,4.3412
					c0.056,0.0879,0.1531,0.1412,0.2574,0.1412s0.2014-0.0533,0.2574-0.1412l2.7648-4.3412
					c0.0322-0.0506,0.0477-0.1075,0.0477-0.1635C128.4444,20.7095,128.3944,20.6108,128.3032,20.5524z"/>
			</g>
		</g>
	</g>
	<g class="st6">
		<g>
			<line class="st13" x1="162.8143" y1="24.7225" x2="162.8143" y2="16.1202"/>
			<g>
				<path class="st14" d="M165.7429,20.5524c-0.1418-0.0906-0.3307-0.0486-0.4213,0.0935l-2.5074,3.9371l-2.5074-3.9371
					c-0.0906-0.1421-0.2794-0.1841-0.4213-0.0935c-0.1418,0.0905-0.183,0.2803-0.0936,0.4213l2.7648,4.3412
					c0.056,0.0879,0.1531,0.1412,0.2574,0.1412c0.1043,0,0.2014-0.0533,0.2574-0.1412l2.7648-4.3412
					c0.0322-0.0506,0.0477-0.1075,0.0477-0.1635C165.8842,20.7095,165.8341,20.6108,165.7429,20.5524z"/>
			</g>
		</g>
	</g>
	<g class="st6">
		<g>
			<line class="st13" x1="200.254" y1="24.7225" x2="200.254" y2="16.1202"/>
			<g>
				<path class="st14" d="M203.1827,20.5524c-0.1418-0.0906-0.3307-0.0486-0.4213,0.0935l-2.5074,3.9371l-2.5073-3.9371
					c-0.0906-0.1421-0.2795-0.1841-0.4213-0.0935c-0.1418,0.0905-0.1829,0.2803-0.0935,0.4213l2.7648,4.3412
					c0.056,0.0879,0.1531,0.1412,0.2574,0.1412c0.1043,0,0.2014-0.0533,0.2574-0.1412l2.7648-4.3412
					c0.0322-0.0506,0.0477-0.1075,0.0477-0.1635C203.3239,20.7095,203.2738,20.6108,203.1827,20.5524z"/>
			</g>
		</g>
	</g>
	<circle class="st15" cx="38.0151" cy="15.705" r="2.496"/>
	<circle class="st15" cx="37.7207" cy="115.6179" r="2.496"/>
	<path class="st16" d="M209.8154,59.3847h-90.4039c-6.7217,0-12.2214-5.4996-12.2214-12.2214V35.1907
		c0-6.7218,5.4996-12.2214,12.2214-12.2214h90.4039c6.7218,0,12.2214,5.4996,12.2214,12.2214v11.9726
		C222.0368,53.885,216.5372,59.3847,209.8154,59.3847z"/>
</g>
<g id="schematic_2">
	<g>
		<line class="st7" x1="200.254" y1="15.705" x2="162.8143" y2="15.705"/>
		<line class="st7" x1="162.8143" y1="15.705" x2="125.3745" y2="15.705"/>
		<line class="st7" x1="125.3745" y1="15.705" x2="38.0151" y2="15.705"/>
	</g>
	<g>
		<line class="st7" x1="38.0151" y1="115.5443" x2="200.254" y2="115.5443"/>
	</g>
	<g>
		<line class="st8" x1="38.0151" y1="65.6246" x2="38.0151" y2="78.1045"/>
		<line class="st8" x1="38.0151" y1="115.5443" x2="38.0151" y2="103.0644"/>
		<line class="st9" x1="34.8952" y1="93.7044" x2="38.0151" y2="93.7044"/>
		<line class="st8" x1="38.0151" y1="103.0644" x2="38.0151" y2="93.7044"/>
		<line class="st9" x1="38.0151" y1="93.7044" x2="41.1351" y2="93.7044"/>
		<line class="st9" x1="25.5352" y1="87.4645" x2="38.0151" y2="87.4645"/>
		<line class="st8" x1="38.0151" y1="87.4645" x2="38.0151" y2="78.1045"/>
		<line class="st9" x1="38.0151" y1="87.4645" x2="50.4951" y2="87.4645"/>
		<g class="st10">
			<path class="st11" d="M32.9122,76.2886h-1.4229v1.4121h-0.5947v-1.4121h-1.4121V75.687h1.4121v-1.4131h0.5947v1.4131h1.4229
				V76.2886z"/>
		</g>
		<g class="st10">
			<path class="st11" d="M33.629,104.0269h-3.4268v-0.5947h3.4268V104.0269z"/>
		</g>
	</g>
	<g>
		<line class="st8" x1="38.0151" y1="65.6246" x2="38.0151" y2="53.1447"/>
		<line class="st8" x1="38.0151" y1="15.705" x2="38.0151" y2="28.1849"/>
		<line class="st12" x1="42.3831" y1="53.1447" x2="42.3831" y2="28.1849"/>
		<line class="st12" x1="33.6472" y1="28.1849" x2="33.6472" y2="53.1447"/>
		<line class="st12" x1="42.3831" y1="28.1849" x2="33.6472" y2="28.1849"/>
		<line class="st12" x1="42.3831" y1="53.1447" x2="33.6472" y2="53.1447"/>
		<g class="st10">
			<path class="st11" d="M18.9884,35.084c1.3193,0,2.0391,0.5596,2.0391,1.4092c0,0.4795-0.25,0.9692-0.6602,1.2793
				c-0.3096,0.2397-0.6396,0.3599-1.3086,0.5098l0.8887,2.3486c0.2207,0.5898,0.4199,0.8193,0.8701,0.8193v0.1602h-1.4697
				l-1.2285-3.2383l-0.6602-0.0498l-0.5498,2.0288c-0.1094,0.3896-0.1299,0.5298-0.1299,0.6294
				c0,0.3003,0.1006,0.4102,0.6699,0.4697v0.1602h-2.4287v-0.1602c0.5498-0.0698,0.6895-0.2598,0.8496-0.8491l1.1895-4.3076
				c0.0693-0.27,0.1201-0.46,0.1201-0.6299c0-0.1099-0.0703-0.23-0.1406-0.2798c-0.1094-0.0698-0.1494-0.0801-0.5693-0.1401V35.084
				H18.9884z M17.5792,37.9522c0.25,0.04,0.3301,0.0503,0.5098,0.0503c1.1895,0,1.8887-0.5698,1.8887-1.4995
				c0-0.6895-0.4199-1.1191-1.1992-1.1191c-0.3096,0-0.5195,0.1099-0.5693,0.2998L17.5792,37.9522z"/>
			<path class="st11" d="M22.6309,44.3399c-0.3213,0.4897-0.5078,0.6646-0.7988,0.6646c-0.1924,0-0.2861-0.105-0.2861-0.3203
				c0-0.1167,0.041-0.3208,0.1289-0.647l0.2793-1.0317c0.0293-0.105,0.0527-0.21,0.0527-0.2563c0-0.1167-0.0586-0.1343-0.373-0.1401
				v-0.0933c0.2275-0.0176,0.3438-0.0352,0.9326-0.1455l0.0234,0.0171l-0.5479,1.9995c-0.0293,0.0991-0.0586,0.1748-0.0586,0.2563
				c0,0.0586,0.0352,0.0874,0.082,0.0874c0.0986,0,0.2383-0.1221,0.4893-0.4546L22.6309,44.3399z M22.5138,41.7461
				c-0.1689,0-0.2793-0.1221-0.2793-0.3086c0-0.1807,0.1162-0.3091,0.2734-0.3091s0.292,0.1514,0.292,0.3203
				C22.7999,41.6123,22.6651,41.7461,22.5138,41.7461z"/>
		</g>
	</g>
	<g>
		<line class="st8" x1="200.254" y1="115.5443" x2="200.254" y2="103.0644"/>
		<line class="st8" x1="200.254" y1="65.6246" x2="200.254" y2="78.1045"/>
		<line class="st12" x1="204.622" y1="103.0644" x2="204.622" y2="78.1045"/>
		<line class="st12" x1="195.8861" y1="78.1045" x2="195.8861" y2="103.0644"/>
		<line class="st12" x1="204.622" y1="78.1045" x2="195.8861" y2="78.1045"/>
		<line class="st12" x1="204.622" y1="103.0644" x2="195.8861" y2="103.0644"/>
	</g>
	<g>
		<g class="st10">
			<path class="st11" d="M214.0157,35.3277c1.3193,0,2.0391,0.5596,2.0391,1.4092c0,0.4795-0.25,0.9692-0.6602,1.2793
				c-0.3096,0.2397-0.6396,0.3599-1.3086,0.5098l0.8896,2.3486c0.2197,0.5898,0.4189,0.8193,0.8691,0.8193v0.1602h-1.4697
				l-1.2285-3.2383l-0.6602-0.0498l-0.5498,2.0288c-0.1094,0.3896-0.1299,0.5298-0.1299,0.6294
				c0,0.3003,0.1006,0.4102,0.6699,0.4697v0.1602h-2.4287v-0.1602c0.5498-0.0698,0.6895-0.2598,0.8496-0.8491l1.1895-4.3076
				c0.0693-0.27,0.1201-0.46,0.1201-0.6299c0-0.1099-0.0703-0.23-0.1406-0.2798c-0.1094-0.0698-0.1494-0.0801-0.5693-0.1401v-0.1597
				H214.0157z M212.6065,38.1958c0.25,0.04,0.3301,0.0503,0.5098,0.0503c1.1895,0,1.8887-0.5698,1.8887-1.4995
				c0-0.6895-0.4199-1.1191-1.1992-1.1191c-0.3096,0-0.5195,0.1099-0.5693,0.2998L212.6065,38.1958z"/>
			<path class="st11" d="M217.3721,43.272c0.3145-0.4717,0.6475-0.6582,0.9971-0.6582c0.4316,0,0.6699,0.2739,0.6699,0.7285
				c0,0.9614-0.8799,1.9058-1.7305,1.9058c-0.1348,0-0.2568-0.0229-0.4023-0.0991c-0.0996,0.4082-0.2334,0.8862-0.2334,0.9678
				c0,0.1284,0.0869,0.1689,0.3613,0.1689v0.0933h-1.1836v-0.0933c0.251-0.0059,0.3271-0.0933,0.3965-0.3672l0.6709-2.5181
				c0.0635-0.2329,0.0928-0.3848,0.0928-0.4136c0-0.1401-0.1631-0.1577-0.2559-0.1577h-0.1289l-0.0117-0.0874l0.9092-0.1279
				c0.0176,0,0.0293,0.0112,0.0293,0.0229c0,0-0.0059,0.0293-0.0117,0.0527L217.3721,43.272z M218.1534,42.8643
				c-0.3086,0-0.6523,0.3149-0.7871,0.6646c-0.1689,0.437-0.3789,1.189-0.3789,1.3872c0,0.1284,0.1172,0.2212,0.2803,0.2212
				c0.3086,0,0.5889-0.1919,0.8447-0.5537c0.2803-0.3901,0.4023-0.8159,0.4023-1.2236
				C218.5147,43.0274,218.4161,42.8643,218.1534,42.8643z"/>
		</g>
		<g class="st10">
			<path class="st11" d="M213.8868,88.1709c1.3193,0,2.0391,0.5596,2.0391,1.4092c0,0.4795-0.25,0.9692-0.6602,1.2793
				c-0.3096,0.2397-0.6396,0.3599-1.3086,0.5098l0.8896,2.3486c0.2197,0.5898,0.4189,0.8193,0.8691,0.8193v0.1602h-1.4697
				l-1.2285-3.2383l-0.6602-0.0498l-0.5498,2.0288c-0.1094,0.3896-0.1299,0.5298-0.1299,0.6294
				c0,0.3003,0.1006,0.4102,0.6699,0.4697v0.1602h-2.4287v-0.1602c0.5498-0.0698,0.6895-0.2598,0.8496-0.8491l1.1895-4.3076
				c0.0693-0.27,0.1201-0.46,0.1201-0.6299c0-0.1099-0.0703-0.23-0.1406-0.2798c-0.1094-0.0698-0.1494-0.0801-0.5693-0.1401v-0.1597
				H213.8868z M212.4776,91.0391c0.25,0.04,0.3301,0.0503,0.5098,0.0503c1.1895,0,1.8887-0.5698,1.8887-1.4995
				c0-0.6895-0.4199-1.1191-1.1992-1.1191c-0.3096,0-0.5195,0.1099-0.5693,0.2998L212.4776,91.0391z"/>
			<path class="st11" d="M218.2462,96.6226h0.5596l-0.082,0.3672h-0.5889l-0.2676,1.0376h-0.4609l0.2861-1.0376h-1.5273
				l0.1162-0.3906l2.4307-2.5122h0.2393L218.2462,96.6226z M218.3096,94.7456l-1.7715,1.8535v0.0234h1.2354l0.5596-1.877H218.3096z"
				/>
		</g>
		<g class="st10">
			<path class="st11" d="M210.9102,105.0166v1.6689H210.13v-1.6689h-2.7979v-0.6396l3.1377-4.4478h0.4404v4.4478h1.0293v0.6396
				H210.9102z M210.13,100.9487l-2.3984,3.4282h2.3984V100.9487z"/>
			<path class="st11" d="M216.5001,106.6856l0.0693-1.6089c0.8496-0.21,1.4092-1.3096,1.4092-2.3789
				c0-1.4194-0.7393-2.4087-2.0488-2.4087c-1.3594,0-2.0488,1.2095-2.0488,2.4087c0,0.9795,0.5195,2.1289,1.3994,2.3789
				l0.0898,1.6089h-2.8682v-1.709h0.25c0.0098,0.6094,0.1797,0.7593,0.6191,0.7593h1.5098l-0.0205-0.3696
				c-1.3887-0.3896-2.1191-1.1992-2.1191-2.6484c0-1.3594,1.1699-2.7886,3.1885-2.7886c1.9795,0,3.1885,1.2993,3.1885,2.7886
				c0,1.459-0.7998,2.2686-2.1484,2.6484l-0.0205,0.3696h1.5391c0.4102,0,0.5996-0.2397,0.6201-0.7393h0.25v1.689H216.5001z"/>
		</g>
		<g class="st10">
			<path class="st11" d="M10.8985,53.2847c-1.709,0-2.2588-1.8594-2.2588-3.4985c0-1.7686,0.6895-3.3979,2.2988-3.3979
				c1.3086,0,2.2188,1.4092,2.2188,3.458C13.1573,51.5654,12.5274,53.2847,10.8985,53.2847z M10.878,46.648
				c-0.8291,0-1.2793,1.1797-1.2793,3.2085s0.4395,3.168,1.2998,3.168c0.8496,0,1.2988-1.1494,1.2988-3.1279
				C12.1973,47.8174,11.7579,46.648,10.878,46.648z"/>
			<path class="st11" d="M14.6485,53.2544c-0.3096,0-0.5498-0.2397-0.5498-0.5498c0-0.3096,0.25-0.5596,0.5605-0.5596
				c0.2891,0,0.5488,0.27,0.5488,0.5698C15.2081,53.0044,14.9483,53.2544,14.6485,53.2544z"/>
			<path class="st11" d="M17.0792,53.1446v-0.1499c0.7393-0.04,0.9492-0.25,0.9492-0.7998v-4.4873
				c0-0.3398-0.0898-0.4897-0.2998-0.4897c-0.0996,0-0.2695,0.0498-0.4502,0.1201l-0.2695,0.0996v-0.1396l1.7891-0.9097
				l0.0898,0.0303v5.9663c0,0.4302,0.2002,0.6099,0.9492,0.6099v0.1499H17.0792z"/>
			<path class="st11" d="M25.1876,53.1446l0.0693-1.6089c0.8496-0.21,1.4092-1.3096,1.4092-2.3789
				c0-1.4194-0.7393-2.4087-2.0488-2.4087c-1.3594,0-2.0488,1.2095-2.0488,2.4087c0,0.9795,0.5195,2.1289,1.3994,2.3789
				l0.0898,1.6089h-2.8682v-1.709h0.25c0.0098,0.6094,0.1797,0.7593,0.6191,0.7593h1.5098l-0.0205-0.3696
				c-1.3887-0.3896-2.1191-1.1992-2.1191-2.6484c0-1.3594,1.1699-2.7886,3.1885-2.7886c1.9795,0,3.1885,1.2993,3.1885,2.7886
				c0,1.459-0.7998,2.2686-2.1484,2.6484l-0.0205,0.3696h1.5391c0.4102,0,0.5996-0.2397,0.6201-0.7393h0.25v1.689H25.1876z"/>
		</g>
		<g class="st10">
			<path class="st11" d="M12.2989,113.6509v-0.1499c0.7393-0.04,0.9492-0.25,0.9492-0.7998v-4.4873
				c0-0.3398-0.0898-0.4897-0.2998-0.4897c-0.0996,0-0.2695,0.0498-0.4502,0.1201l-0.2695,0.0996v-0.1396l1.7891-0.9097
				l0.0898,0.0303v5.9663c0,0.4302,0.2002,0.6099,0.9492,0.6099v0.1499H12.2989z"/>
			<path class="st11" d="M18.6182,113.791c-1.709,0-2.2588-1.8594-2.2588-3.4985c0-1.7686,0.6895-3.3979,2.2988-3.3979
				c1.3086,0,2.2188,1.4092,2.2188,3.458C20.877,112.0718,20.2472,113.791,18.6182,113.791z M18.5977,107.1543
				c-0.8291,0-1.2793,1.1797-1.2793,3.2085s0.4395,3.168,1.2998,3.168c0.8496,0,1.2988-1.1494,1.2988-3.1279
				C19.9171,108.3237,19.4776,107.1543,18.5977,107.1543z"/>
			<path class="st11" d="M28.085,107.2246c-0.3994,0.0098-0.6289,0.1699-0.9189,0.9092l-2.2188,5.627H24.797l-2.4385-5.437
				c-0.4297-0.9692-0.5801-1.0894-1.0791-1.0991v-0.1899h2.6484v0.1899l-0.2803,0.02c-0.3193,0.0195-0.4492,0.1099-0.4492,0.3096
				c0,0.1602,0.0898,0.3999,0.3896,1.0693l1.5195,3.4185l1.4688-3.688c0.1201-0.2998,0.1895-0.5498,0.1895-0.7197
				c0-0.3896-0.3193-0.3701-0.7188-0.4097v-0.1899h2.0381V107.2246z"/>
		</g>
	</g>
	<g>
		<line class="st8" x1="200.254" y1="65.6246" x2="200.254" y2="53.1447"/>
		<line class="st8" x1="200.254" y1="15.705" x2="200.254" y2="28.1849"/>
		<line class="st12" x1="204.622" y1="53.1447" x2="204.622" y2="28.1849"/>
		<line class="st12" x1="195.8861" y1="28.1849" x2="195.8861" y2="53.1447"/>
		<line class="st12" x1="204.622" y1="28.1849" x2="195.8861" y2="28.1849"/>
		<line class="st12" x1="204.622" y1="53.1447" x2="195.8861" y2="53.1447"/>
	</g>
	<g>
		<path id="g0-69_00000120537182276782635170000007149391071149908119_" class="st11" d="M20.7205,98.1287
			c-2.3786,1.2845-2.5094,2.8187-2.5094,3.1041c0,0.9039,0.8801,1.4747,2.0099,1.4747c1.9861,0,3.5798-1.8791,3.5798-2.1289
			c0-0.0714-0.0595-0.0833-0.1189-0.0833c-0.1427,0-0.5947,0.1546-0.8682,0.5233c-0.2498,0.3449-0.7493,1.0347-1.8077,1.0347
			c-0.8444,0-1.784-0.44-1.784-1.332c0-0.5828,0.666-2.3429,2.5451-2.4143c0.559-0.0238,0.9752-0.44,0.9752-0.5709
			c0-0.0714-0.0595-0.0832-0.1189-0.0832c-1.6769-0.0714-2.0099-0.892-2.0099-1.3677c0-0.2735,0.1784-1.5699,1.8434-1.5699
			c0.226,0,1.1298,0.0357,1.1298,0.6541c0,0.1903-0.0951,0.3568-0.1427,0.4282c-0.0238,0.0357-0.0595,0.0951-0.0595,0.1308
			c0,0.0833,0.0833,0.0833,0.1189,0.0833c0.3568,0,1.0942-0.4638,1.0942-1.1417c0-0.7017-0.8206-0.8087-1.3558-0.8087
			c-1.6175,0-3.6393,1.2844-3.6393,2.7354C19.6026,97.4984,20.1378,97.9265,20.7205,98.1287z"/>
	</g>
	<g>
		<g>
			<line class="st17" x1="122.1376" y1="15.705" x2="113.5353" y2="15.705"/>
			<g>
				<path class="st18" d="M117.9675,12.7763c-0.0906,0.1418-0.0486,0.3307,0.0936,0.4213l3.9371,2.5074l-3.9371,2.5074
					c-0.1421,0.0906-0.1841,0.2794-0.0935,0.4213s0.2803,0.183,0.4213,0.0936l4.3412-2.7648
					c0.0879-0.056,0.1412-0.1531,0.1412-0.2574s-0.0533-0.2014-0.1412-0.2574l-4.3412-2.7648
					c-0.0507-0.0322-0.1076-0.0477-0.1636-0.0477C118.1245,12.6351,118.0259,12.6851,117.9675,12.7763z"/>
			</g>
		</g>
	</g>
	<circle class="st18" cx="38.0151" cy="15.705" r="2.496"/>
	<circle class="st18" cx="37.7207" cy="115.6179" r="2.496"/>
	<g class="st10">
		<path class="st18" d="M125.7286,4.8247c-0.5596,0.0703-0.6494,0.1602-0.8193,0.7695l-1.2002,4.2881
			c-0.0898,0.3198-0.1494,0.5596-0.1494,0.7593c0,0.2798,0.1201,0.3198,0.6895,0.3901v0.1597h-2.4385v-0.1597
			c0.5498-0.1001,0.6895-0.1899,0.8398-0.75l1.1992-4.4072c0.0693-0.25,0.1299-0.46,0.1299-0.6196
			c0-0.25-0.1602-0.3999-0.7197-0.4302V4.6651h2.4688V4.8247z"/>
	</g>
	<g>
		<g>
			<line class="st19" x1="58.9081" y1="69.5096" x2="58.9081" y2="107.8816"/>
			<g>
				<polygon points="56.6262,107.214 58.9081,111.1656 61.19,107.214 				"/>
			</g>
		</g>
	</g>
	<g class="st10">
		<path d="M65.5245,40.2783c-0.5596,0.0703-0.6494,0.1602-0.8193,0.77l-1.1992,4.2871c-0.0898,0.3203-0.1504,0.5596-0.1504,0.7598
			c0,0.2803,0.1201,0.3203,0.6904,0.3896v0.1602h-2.4395v-0.1602c0.5498-0.0996,0.6904-0.1895,0.8398-0.749l1.1992-4.4077
			c0.0703-0.25,0.1299-0.46,0.1299-0.6196c0-0.25-0.1602-0.3999-0.7197-0.4302v-0.1597h2.4688V40.2783z"/>
		<path d="M68.8546,40.1187c1.3193,0,2.0391,0.5596,2.0391,1.4092c0,0.4795-0.25,0.9697-0.6592,1.2793
			c-0.3105,0.2402-0.6396,0.3594-1.3096,0.5098l0.8896,2.3486c0.2197,0.5898,0.4199,0.8193,0.8691,0.8193v0.1602h-1.4688
			l-1.2295-3.2383l-0.6602-0.0498l-0.5498,2.0283c-0.1094,0.3906-0.1299,0.5303-0.1299,0.6299c0,0.2998,0.1006,0.4102,0.6699,0.4697
			v0.1602h-2.4287v-0.1602c0.5498-0.0693,0.6895-0.2598,0.8496-0.8496l1.1895-4.3071c0.0703-0.27,0.1201-0.46,0.1201-0.6299
			c0-0.1099-0.0703-0.23-0.1396-0.2798c-0.1104-0.0698-0.1504-0.0801-0.5703-0.1401v-0.1597H68.8546z M67.4454,42.9868
			c0.25,0.04,0.3301,0.0498,0.5098,0.0498c1.1895,0,1.8887-0.5693,1.8887-1.499c0-0.6895-0.4189-1.1191-1.1992-1.1191
			c-0.3096,0-0.5195,0.1099-0.5693,0.2998L67.4454,42.9868z"/>
		<path d="M72.4962,49.3745c-0.3203,0.4902-0.5068,0.665-0.7979,0.665c-0.1924,0-0.2861-0.1055-0.2861-0.3213
			c0-0.1162,0.041-0.3203,0.1289-0.6465l0.2793-1.0322c0.0293-0.1045,0.0527-0.21,0.0527-0.2559
			c0-0.1172-0.0586-0.1348-0.373-0.1396v-0.0938c0.2275-0.0176,0.3438-0.0352,0.9326-0.1455l0.0234,0.0176l-0.5479,1.999
			c-0.0293,0.0986-0.0586,0.1748-0.0586,0.2568c0,0.0576,0.0352,0.0869,0.0811,0.0869c0.0996,0,0.2393-0.1221,0.4902-0.4541
			L72.4962,49.3745z M72.38,46.7808c-0.1689,0-0.2793-0.1221-0.2793-0.3086c0-0.1807,0.1162-0.3096,0.2734-0.3096
			s0.291,0.1523,0.291,0.3213C72.6651,46.647,72.5313,46.7808,72.38,46.7808z"/>
	</g>
	<g>
		<g>
			<line class="st19" x1="184.1963" y1="72.8834" x2="184.1963" y2="107.8816"/>
			<g>
				<polygon points="181.9144,107.214 184.1963,111.1656 186.4782,107.214 				"/>
			</g>
		</g>
	</g>
	<g>
		<path id="g0-69_00000055690329615863864880000009256154181208955532_" d="M64.9562,87.9119
			c-2.3786,1.2844-2.5094,2.8186-2.5094,3.1041c0,0.9039,0.8801,1.4747,2.0099,1.4747c1.9861,0,3.5798-1.8791,3.5798-2.1289
			c0-0.0714-0.0595-0.0833-0.1189-0.0833c-0.1427,0-0.5947,0.1546-0.8682,0.5233c-0.2497,0.3449-0.7493,1.0347-1.8077,1.0347
			c-0.8444,0-1.784-0.44-1.784-1.332c0-0.5828,0.666-2.3429,2.5451-2.4143c0.559-0.0238,0.9752-0.44,0.9752-0.5709
			c0-0.0714-0.0595-0.0833-0.1189-0.0833c-1.6769-0.0714-2.0099-0.892-2.0099-1.3677c0-0.2735,0.1784-1.5699,1.8434-1.5699
			c0.226,0,1.1298,0.0357,1.1298,0.6541c0,0.1903-0.0951,0.3568-0.1427,0.4282c-0.0238,0.0357-0.0595,0.0951-0.0595,0.1308
			c0,0.0833,0.0833,0.0833,0.1189,0.0833c0.3568,0,1.0942-0.4638,1.0942-1.1417c0-0.7017-0.8206-0.8087-1.3558-0.8087
			c-1.6175,0-3.6393,1.2845-3.6393,2.7354C63.8382,87.2815,64.3734,87.7097,64.9562,87.9119z"/>
	</g>
	<g>
		<g>
			<line class="st19" x1="58.9081" y1="59.3847" x2="58.9081" y2="25.2289"/>
			<g>
				<polygon points="61.19,25.8966 58.9081,21.9449 56.6262,25.8966 				"/>
			</g>
		</g>
	</g>
	<g>
		<g>
			<line class="st19" x1="184.1963" y1="21.9449" x2="184.1963" y2="56.1007"/>
			<g>
				<polygon points="181.9144,55.433 184.1963,59.3847 186.4782,55.433 				"/>
			</g>
		</g>
	</g>
	<g class="st10">
		<path d="M157.252,40.2783c-0.2295,0.0103-0.3896,0.1304-0.5596,0.3999l-3.7275,6.1465h-0.1904l-0.8193-5.0269
			c-0.2295-1.3994-0.2598-1.4492-0.8193-1.5195v-0.1597h2.3984v0.1597c-0.6289,0.0703-0.7598,0.1699-0.7598,0.5098
			c0,0.0503,0,0.1001,0.0107,0.1499l0.6494,4.4277l2.0986-3.5981c0.3096-0.5298,0.4902-0.9595,0.4902-1.1494
			s-0.1699-0.2896-0.6201-0.3398v-0.1597h1.8486V40.2783z"/>
		<path d="M157.5704,48.063c0.3145-0.4717,0.6465-0.6582,0.9971-0.6582c0.4307,0,0.6699,0.2734,0.6699,0.7285
			c0,0.9619-0.8799,1.9062-1.7314,1.9062c-0.1338,0-0.2559-0.0234-0.4023-0.0996c-0.0986,0.4082-0.2324,0.8857-0.2324,0.9678
			c0,0.1279,0.0869,0.1689,0.3613,0.1689v0.0938h-1.1836v-0.0938c0.251-0.0059,0.3262-0.0928,0.3965-0.3672l0.6699-2.5176
			c0.0645-0.2334,0.0938-0.3848,0.0938-0.4141c0-0.1396-0.1631-0.1572-0.2568-0.1572h-0.1279l-0.0117-0.0879l0.9092-0.1279
			c0.0176,0,0.0293,0.0117,0.0293,0.0234c0,0-0.0059,0.0283-0.0117,0.0518L157.5704,48.063z M158.3516,47.6548
			c-0.3096,0-0.6533,0.3154-0.7871,0.665c-0.1689,0.4375-0.3789,1.1895-0.3789,1.3867c0,0.1289,0.1162,0.2217,0.2793,0.2217
			c0.3096,0,0.5889-0.1924,0.8457-0.5537c0.2793-0.3906,0.4023-0.8154,0.4023-1.2236
			C158.713,47.8189,158.6134,47.6548,158.3516,47.6548z"/>
		<path d="M160.2843,43.4468v-0.6592h5.0371v0.6592H160.2843z M160.2843,45.4458v-0.6602h5.0371v0.6602H160.2843z"/>
		<path d="M170.0118,40.2783c-0.5596,0.0703-0.6494,0.1602-0.8193,0.77l-1.1992,4.2871c-0.0898,0.3203-0.1504,0.5596-0.1504,0.7598
			c0,0.2803,0.1201,0.3203,0.6904,0.3896v0.1602h-2.4395v-0.1602c0.5498-0.0996,0.6904-0.1895,0.8398-0.749l1.1992-4.4077
			c0.0703-0.25,0.1299-0.46,0.1299-0.6196c0-0.25-0.1602-0.3999-0.7197-0.4302v-0.1597h2.4688V40.2783z"/>
		<path d="M173.3419,40.1187c1.3193,0,2.0391,0.5596,2.0391,1.4092c0,0.4795-0.25,0.9697-0.6592,1.2793
			c-0.3105,0.2402-0.6396,0.3594-1.3096,0.5098l0.8896,2.3486c0.2197,0.5898,0.4199,0.8193,0.8691,0.8193v0.1602h-1.4688
			l-1.2295-3.2383l-0.6602-0.0498l-0.5498,2.0283c-0.1094,0.3906-0.1299,0.5303-0.1299,0.6299c0,0.2998,0.1006,0.4102,0.6699,0.4697
			v0.1602h-2.4287v-0.1602c0.5498-0.0693,0.6895-0.2598,0.8496-0.8496l1.1895-4.3071c0.0703-0.27,0.1201-0.46,0.1201-0.6299
			c0-0.1099-0.0703-0.23-0.1396-0.2798c-0.1104-0.0698-0.1504-0.0801-0.5703-0.1401v-0.1597H173.3419z M171.9327,42.9868
			c0.25,0.04,0.3301,0.0498,0.5098,0.0498c1.1895,0,1.8887-0.5693,1.8887-1.499c0-0.6895-0.4189-1.1191-1.1992-1.1191
			c-0.3096,0-0.5195,0.1099-0.5693,0.2998L171.9327,42.9868z"/>
		<path d="M176.6983,48.063c0.3145-0.4717,0.6465-0.6582,0.9971-0.6582c0.4307,0,0.6699,0.2734,0.6699,0.7285
			c0,0.9619-0.8799,1.9062-1.7314,1.9062c-0.1338,0-0.2559-0.0234-0.4023-0.0996c-0.0986,0.4082-0.2324,0.8857-0.2324,0.9678
			c0,0.1279,0.0869,0.1689,0.3613,0.1689v0.0938h-1.1836v-0.0938c0.251-0.0059,0.3262-0.0928,0.3965-0.3672l0.6699-2.5176
			c0.0645-0.2334,0.0938-0.3848,0.0938-0.4141c0-0.1396-0.1631-0.1572-0.2568-0.1572h-0.1279l-0.0117-0.0879l0.9092-0.1279
			c0.0176,0,0.0293,0.0117,0.0293,0.0234c0,0-0.0059,0.0283-0.0117,0.0518L176.6983,48.063z M177.4796,47.6548
			c-0.3096,0-0.6533,0.3154-0.7871,0.665c-0.1689,0.4375-0.3789,1.1895-0.3789,1.3867c0,0.1289,0.1162,0.2217,0.2793,0.2217
			c0.3096,0,0.5889-0.1924,0.8457-0.5537c0.2793-0.3906,0.4023-0.8154,0.4023-1.2236
			C177.8409,47.8189,177.7413,47.6548,177.4796,47.6548z"/>
	</g>
	<g class="st10">
		<path d="M168.6612,89.0435c-0.5596,0.0703-0.6494,0.1602-0.8193,0.77l-1.1992,4.2871c-0.0898,0.3203-0.1504,0.5596-0.1504,0.7598
			c0,0.2803,0.1201,0.3203,0.6904,0.3896v0.1602h-2.4395V95.25c0.5498-0.0996,0.6904-0.1895,0.8398-0.749l1.1992-4.4077
			c0.0703-0.25,0.1299-0.46,0.1299-0.6196c0-0.25-0.1602-0.3999-0.7197-0.4302v-0.1597h2.4688V89.0435z"/>
		<path d="M171.9913,88.8838c1.3193,0,2.0391,0.5596,2.0391,1.4092c0,0.4795-0.25,0.9697-0.6592,1.2793
			c-0.3105,0.2402-0.6396,0.3594-1.3096,0.5098l0.8896,2.3486c0.2197,0.5898,0.4199,0.8193,0.8691,0.8193v0.1602h-1.4688
			l-1.2295-3.2383l-0.6602-0.0498l-0.5498,2.0283c-0.1094,0.3906-0.1299,0.5303-0.1299,0.6299c0,0.2998,0.1006,0.4102,0.6699,0.4697
			v0.1602h-2.4287V95.25c0.5498-0.0693,0.6895-0.2598,0.8496-0.8496l1.1895-4.3071c0.0703-0.27,0.1201-0.46,0.1201-0.6299
			c0-0.1099-0.0703-0.23-0.1396-0.2798c-0.1104-0.0698-0.1504-0.0801-0.5703-0.1401v-0.1597H171.9913z M170.5821,91.752
			c0.25,0.04,0.3301,0.0498,0.5098,0.0498c1.1895,0,1.8887-0.5693,1.8887-1.499c0-0.6895-0.4189-1.1191-1.1992-1.1191
			c-0.3096,0-0.5195,0.1099-0.5693,0.2998L170.5821,91.752z"/>
		<path d="M176.3507,97.336h0.5596l-0.082,0.3672h-0.5889l-0.2676,1.0371h-0.4609l0.2861-1.0371h-1.5273l0.1162-0.3906
			l2.4307-2.5127h0.2393L176.3507,97.336z M176.4141,95.459l-1.7715,1.8535v0.0234h1.2354l0.5596-1.877H176.4141z"/>
	</g>
</g>
<g id="schematic_3" class="st5">
	<g class="st6">
		<line class="st7" x1="125.3745" y1="65.6246" x2="162.8143" y2="65.6246"/>
		<line class="st7" x1="162.8143" y1="65.6246" x2="200.254" y2="65.6246"/>
	</g>
	<g class="st6">
		<line class="st7" x1="200.254" y1="15.705" x2="162.8143" y2="15.705"/>
		<line class="st7" x1="162.8143" y1="15.705" x2="125.3745" y2="15.705"/>
		<line class="st7" x1="125.3745" y1="15.705" x2="38.0151" y2="15.705"/>
	</g>
	<g class="st6">
		<line class="st7" x1="38.0151" y1="115.5443" x2="200.254" y2="115.5443"/>
	</g>
	<g class="st6">
		<line class="st8" x1="38.0151" y1="65.6246" x2="38.0151" y2="78.1045"/>
		<line class="st8" x1="38.0151" y1="115.5443" x2="38.0151" y2="103.0644"/>
		<line class="st9" x1="34.8952" y1="93.7044" x2="38.0151" y2="93.7044"/>
		<line class="st8" x1="38.0151" y1="103.0644" x2="38.0151" y2="93.7044"/>
		<line class="st9" x1="38.0151" y1="93.7044" x2="41.1351" y2="93.7044"/>
		<line class="st9" x1="25.5352" y1="87.4645" x2="38.0151" y2="87.4645"/>
		<line class="st8" x1="38.0151" y1="87.4645" x2="38.0151" y2="78.1045"/>
		<line class="st9" x1="38.0151" y1="87.4645" x2="50.4951" y2="87.4645"/>
		<g class="st10">
			<path class="st11" d="M32.9122,76.2886h-1.4229v1.4121h-0.5947v-1.4121h-1.4121V75.687h1.4121v-1.4131h0.5947v1.4131h1.4229
				V76.2886z"/>
		</g>
		<g class="st10">
			<path class="st11" d="M33.629,104.0269h-3.4268v-0.5947h3.4268V104.0269z"/>
		</g>
	</g>
	<g class="st6">
		<line class="st8" x1="38.0151" y1="65.6246" x2="38.0151" y2="53.1447"/>
		<line class="st8" x1="38.0151" y1="15.705" x2="38.0151" y2="28.1849"/>
		<line class="st12" x1="42.3831" y1="53.1447" x2="42.3831" y2="28.1849"/>
		<line class="st12" x1="33.6472" y1="28.1849" x2="33.6472" y2="53.1447"/>
		<line class="st12" x1="42.3831" y1="28.1849" x2="33.6472" y2="28.1849"/>
		<line class="st12" x1="42.3831" y1="53.1447" x2="33.6472" y2="53.1447"/>
		<g class="st10">
			<path class="st11" d="M18.9884,35.084c1.3193,0,2.0391,0.5596,2.0391,1.4092c0,0.4795-0.25,0.9692-0.6602,1.2793
				c-0.3096,0.2397-0.6396,0.3599-1.3086,0.5098l0.8887,2.3486c0.2207,0.5898,0.4199,0.8193,0.8701,0.8193v0.1602h-1.4697
				l-1.2285-3.2383l-0.6602-0.0498l-0.5498,2.0288c-0.1094,0.3896-0.1299,0.5298-0.1299,0.6294
				c0,0.3003,0.1006,0.4102,0.6699,0.4697v0.1602h-2.4287v-0.1602c0.5498-0.0698,0.6895-0.2598,0.8496-0.8491l1.1895-4.3076
				c0.0693-0.27,0.1201-0.46,0.1201-0.6299c0-0.1099-0.0703-0.23-0.1406-0.2798c-0.1094-0.0698-0.1494-0.0801-0.5693-0.1401V35.084
				H18.9884z M17.5792,37.9522c0.25,0.04,0.3301,0.0503,0.5098,0.0503c1.1895,0,1.8887-0.5698,1.8887-1.4995
				c0-0.6895-0.4199-1.1191-1.1992-1.1191c-0.3096,0-0.5195,0.1099-0.5693,0.2998L17.5792,37.9522z"/>
			<path class="st11" d="M22.6309,44.3399c-0.3213,0.4897-0.5078,0.6646-0.7988,0.6646c-0.1924,0-0.2861-0.105-0.2861-0.3203
				c0-0.1167,0.041-0.3208,0.1289-0.647l0.2793-1.0317c0.0293-0.105,0.0527-0.21,0.0527-0.2563c0-0.1167-0.0586-0.1343-0.373-0.1401
				v-0.0933c0.2275-0.0176,0.3438-0.0352,0.9326-0.1455l0.0234,0.0171l-0.5479,1.9995c-0.0293,0.0991-0.0586,0.1748-0.0586,0.2563
				c0,0.0586,0.0352,0.0874,0.082,0.0874c0.0986,0,0.2383-0.1221,0.4893-0.4546L22.6309,44.3399z M22.5138,41.7461
				c-0.1689,0-0.2793-0.1221-0.2793-0.3086c0-0.1807,0.1162-0.3091,0.2734-0.3091s0.292,0.1514,0.292,0.3203
				C22.7999,41.6123,22.6651,41.7461,22.5138,41.7461z"/>
		</g>
	</g>
	<g class="st6">
		<line class="st8" x1="200.254" y1="115.5443" x2="200.254" y2="103.0644"/>
		<line class="st8" x1="200.254" y1="65.6246" x2="200.254" y2="78.1045"/>
		<line class="st12" x1="204.622" y1="103.0644" x2="204.622" y2="78.1045"/>
		<line class="st12" x1="195.8861" y1="78.1045" x2="195.8861" y2="103.0644"/>
		<line class="st12" x1="204.622" y1="78.1045" x2="195.8861" y2="78.1045"/>
		<line class="st12" x1="204.622" y1="103.0644" x2="195.8861" y2="103.0644"/>
	</g>
	<g class="st6">
		<line class="st8" x1="125.3745" y1="65.6246" x2="125.3745" y2="53.1447"/>
		<line class="st8" x1="125.3745" y1="15.705" x2="125.3745" y2="28.1849"/>
		<line class="st12" x1="129.7425" y1="53.1447" x2="129.7425" y2="28.1849"/>
		<line class="st12" x1="121.0066" y1="28.1849" x2="121.0066" y2="53.1447"/>
		<line class="st12" x1="129.7425" y1="28.1849" x2="121.0066" y2="28.1849"/>
		<line class="st12" x1="129.7425" y1="53.1447" x2="121.0066" y2="53.1447"/>
		<g class="st10">
			<path class="st11" d="M177.962,35.3277c1.3193,0,2.0391,0.5596,2.0391,1.4092c0,0.4795-0.25,0.9692-0.6602,1.2793
				c-0.3096,0.2397-0.6396,0.3599-1.3086,0.5098l0.8896,2.3486c0.2197,0.5898,0.4189,0.8193,0.8691,0.8193v0.1602h-1.4697
				l-1.2285-3.2383l-0.6602-0.0498l-0.5498,2.0288c-0.1094,0.3896-0.1299,0.5298-0.1299,0.6294
				c0,0.3003,0.1006,0.4102,0.6699,0.4697v0.1602h-2.4287v-0.1602c0.5498-0.0698,0.6895-0.2598,0.8496-0.8491l1.1895-4.3076
				c0.0693-0.27,0.1201-0.46,0.1201-0.6299c0-0.1099-0.0703-0.23-0.1406-0.2798c-0.1094-0.0698-0.1494-0.0801-0.5693-0.1401v-0.1597
				H177.962z M176.5528,38.1958c0.25,0.04,0.3301,0.0503,0.5098,0.0503c1.1895,0,1.8887-0.5698,1.8887-1.4995
				c0-0.6895-0.4199-1.1191-1.1992-1.1191c-0.3096,0-0.5195,0.1099-0.5693,0.2998L176.5528,38.1958z"/>
			<path class="st11" d="M180.7012,42.188c0.1396-0.3438,0.2734-0.542,0.4775-0.6992c0.2275-0.1748,0.4775-0.2451,0.7461-0.2451
				c0.5596,0,0.9443,0.4316,0.9443,0.9854c0,0.3906-0.1807,0.6587-0.8682,1.3638l-1.0967,1.1191v0.0293h1.0557
				c0.3438,0,0.46-0.0874,0.6006-0.3789l0.0986,0.0405l-0.291,0.7812h-2.0635V45.085l1.2236-1.3057
				c0.3848-0.4082,0.6475-0.7754,0.7871-1.0898c0.0352-0.0757,0.0527-0.1865,0.0527-0.3149c0-0.4023-0.2334-0.7051-0.6943-0.7051
				c-0.3496,0-0.6465,0.1689-0.8506,0.5596L180.7012,42.188z"/>
		</g>
		<g class="st10">
			<path class="st11" d="M139.0118,35.3277c1.3193,0,2.0391,0.5596,2.0391,1.4092c0,0.4795-0.25,0.9692-0.6602,1.2793
				c-0.3096,0.2397-0.6396,0.3599-1.3086,0.5098l0.8896,2.3486c0.2197,0.5898,0.4189,0.8193,0.8691,0.8193v0.1602h-1.4697
				l-1.2285-3.2383l-0.6602-0.0498l-0.5498,2.0288c-0.1094,0.3896-0.1299,0.5298-0.1299,0.6294
				c0,0.3003,0.1006,0.4102,0.6699,0.4697v0.1602h-2.4287v-0.1602c0.5498-0.0698,0.6895-0.2598,0.8496-0.8491l1.1895-4.3076
				c0.0693-0.27,0.1201-0.46,0.1201-0.6299c0-0.1099-0.0703-0.23-0.1406-0.2798c-0.1094-0.0698-0.1494-0.0801-0.5693-0.1401v-0.1597
				H139.0118z M137.6026,38.1958c0.25,0.04,0.3301,0.0503,0.5098,0.0503c1.1895,0,1.8887-0.5698,1.8887-1.4995
				c0-0.6895-0.4199-1.1191-1.1992-1.1191c-0.3096,0-0.5195,0.1099-0.5693,0.2998L137.6026,38.1958z"/>
			<path class="st11" d="M143.6387,41.2437c0.0176,0,0.0293,0.0176,0.0293,0.041c0,0.0293-0.0117,0.0874-0.0352,0.1689
				l-0.833,3.0254c-0.041,0.1455-0.1055,0.373-0.1055,0.4312c0,0.1343,0.1289,0.1865,0.3848,0.1865h0.123v0.0874h-1.627v-0.0874
				c0.4609-0.0352,0.5889-0.0991,0.6533-0.3208l0.793-2.8442c0.0293-0.1108,0.0459-0.1689,0.0459-0.21
				c0-0.1108-0.0752-0.1807-0.2031-0.1807h-0.0176c-0.1055,0-0.2334,0.0059-0.3447,0.0117v-0.0874l0.1348-0.0293
				c0.5127-0.1108,0.5361-0.0991,0.9844-0.1924H143.6387z"/>
		</g>
		<g class="st10">
			<path class="st11" d="M214.0157,35.3277c1.3193,0,2.0391,0.5596,2.0391,1.4092c0,0.4795-0.25,0.9692-0.6602,1.2793
				c-0.3096,0.2397-0.6396,0.3599-1.3086,0.5098l0.8896,2.3486c0.2197,0.5898,0.4189,0.8193,0.8691,0.8193v0.1602h-1.4697
				l-1.2285-3.2383l-0.6602-0.0498l-0.5498,2.0288c-0.1094,0.3896-0.1299,0.5298-0.1299,0.6294
				c0,0.3003,0.1006,0.4102,0.6699,0.4697v0.1602h-2.4287v-0.1602c0.5498-0.0698,0.6895-0.2598,0.8496-0.8491l1.1895-4.3076
				c0.0693-0.27,0.1201-0.46,0.1201-0.6299c0-0.1099-0.0703-0.23-0.1406-0.2798c-0.1094-0.0698-0.1494-0.0801-0.5693-0.1401v-0.1597
				H214.0157z M212.6065,38.1958c0.25,0.04,0.3301,0.0503,0.5098,0.0503c1.1895,0,1.8887-0.5698,1.8887-1.4995
				c0-0.6895-0.4199-1.1191-1.1992-1.1191c-0.3096,0-0.5195,0.1099-0.5693,0.2998L212.6065,38.1958z"/>
			<path class="st11" d="M217.2325,41.8501c0.1924-0.4199,0.5654-0.6064,0.9971-0.6064c0.4541,0,0.7686,0.2915,0.7686,0.7114
				c0,0.4312-0.2383,0.6587-0.9033,0.8916v0.0176c0.3965,0.1514,0.5537,0.4136,0.5537,0.8394c0,0.4604-0.21,0.8687-0.542,1.1597
				c-0.2852,0.251-0.6582,0.3618-1.0781,0.3618s-0.6465-0.1401-0.6465-0.3325c0-0.1455,0.0986-0.2505,0.25-0.2505
				c0.1113,0,0.2158,0.0347,0.373,0.1748c0.1514,0.1338,0.3037,0.1865,0.4141,0.1865c0.1924,0,0.3965-0.105,0.542-0.2681
				c0.1514-0.1807,0.2217-0.4604,0.2217-0.7344c0-0.6299-0.373-0.9209-0.9326-0.9209h-0.1396v-0.0933
				c0.5244-0.0933,0.7686-0.1753,1.0195-0.3501c0.2451-0.1689,0.3613-0.373,0.3613-0.6177c0-0.3208-0.2041-0.5303-0.5127-0.5303
				c-0.251,0-0.4434,0.1162-0.6533,0.3901L217.2325,41.8501z"/>
		</g>
		<g class="st10">
			<path class="st11" d="M213.8868,88.1709c1.3193,0,2.0391,0.5596,2.0391,1.4092c0,0.4795-0.25,0.9692-0.6602,1.2793
				c-0.3096,0.2397-0.6396,0.3599-1.3086,0.5098l0.8896,2.3486c0.2197,0.5898,0.4189,0.8193,0.8691,0.8193v0.1602h-1.4697
				l-1.2285-3.2383l-0.6602-0.0498l-0.5498,2.0288c-0.1094,0.3896-0.1299,0.5298-0.1299,0.6294
				c0,0.3003,0.1006,0.4102,0.6699,0.4697v0.1602h-2.4287v-0.1602c0.5498-0.0698,0.6895-0.2598,0.8496-0.8491l1.1895-4.3076
				c0.0693-0.27,0.1201-0.46,0.1201-0.6299c0-0.1099-0.0703-0.23-0.1406-0.2798c-0.1094-0.0698-0.1494-0.0801-0.5693-0.1401v-0.1597
				H213.8868z M212.4776,91.0391c0.25,0.04,0.3301,0.0503,0.5098,0.0503c1.1895,0,1.8887-0.5698,1.8887-1.4995
				c0-0.6895-0.4199-1.1191-1.1992-1.1191c-0.3096,0-0.5195,0.1099-0.5693,0.2998L212.4776,91.0391z"/>
			<path class="st11" d="M218.2462,96.6226h0.5596l-0.082,0.3672h-0.5889l-0.2676,1.0376h-0.4609l0.2861-1.0376h-1.5273
				l0.1162-0.3906l2.4307-2.5122h0.2393L218.2462,96.6226z M218.3096,94.7456l-1.7715,1.8535v0.0234h1.2354l0.5596-1.877H218.3096z"
				/>
		</g>
		<g class="st10">
			<path class="st11" d="M134.2901,53.1446v-0.1499c0.7393-0.04,0.9492-0.25,0.9492-0.7998v-4.4873
				c0-0.3398-0.0898-0.4897-0.2998-0.4897c-0.0996,0-0.2695,0.0498-0.4502,0.1201l-0.2695,0.0996v-0.1396l1.7891-0.9097
				l0.0898,0.0303v5.9663c0,0.4302,0.2002,0.6099,0.9492,0.6099v0.1499H134.2901z"/>
			<path class="st11" d="M142.3985,53.1446l0.0693-1.6089c0.8496-0.21,1.4092-1.3096,1.4092-2.3789
				c0-1.4194-0.7393-2.4087-2.0488-2.4087c-1.3594,0-2.0488,1.2095-2.0488,2.4087c0,0.9795,0.5195,2.1289,1.3994,2.3789
				l0.0898,1.6089h-2.8682v-1.709h0.25c0.0098,0.6094,0.1797,0.7593,0.6191,0.7593h1.5098l-0.0205-0.3696
				c-1.3887-0.3896-2.1191-1.1992-2.1191-2.6484c0-1.3594,1.1699-2.7886,3.1885-2.7886c1.9795,0,3.1885,1.2993,3.1885,2.7886
				c0,1.459-0.7998,2.2686-2.1484,2.6484l-0.0205,0.3696h1.5391c0.4102,0,0.5996-0.2397,0.6201-0.7393h0.25v1.689H142.3985z"/>
		</g>
		<g class="st10">
			<path class="st11" d="M174.2647,53.1446h-3.9072v-0.1201l1.7793-1.8887c0.9395-0.9897,1.2988-1.749,1.2988-2.5986
				c0-0.9097-0.54-1.4092-1.3896-1.4092c-0.7188,0-1.0693,0.3198-1.4688,1.2993l-0.21-0.0503
				c0.21-1.1689,0.8496-1.9888,2.0791-1.9888c1.1289,0,1.8486,0.7695,1.8486,1.7593c0,0.7896-0.3896,1.5391-1.2793,2.4785
				l-1.6494,1.7588h2.3389c0.4199,0,0.6299-0.1099,0.96-0.6694l0.1396,0.0601L174.2647,53.1446z"/>
			<path class="st11" d="M179.3555,53.1446l0.0693-1.6089c0.8496-0.21,1.4092-1.3096,1.4092-2.3789
				c0-1.4194-0.7393-2.4087-2.0488-2.4087c-1.3594,0-2.0488,1.2095-2.0488,2.4087c0,0.9795,0.5195,2.1289,1.3994,2.3789
				l0.0898,1.6089h-2.8682v-1.709h0.25c0.0098,0.6094,0.1797,0.7593,0.6191,0.7593h1.5098l-0.0205-0.3696
				c-1.3887-0.3896-2.1191-1.1992-2.1191-2.6484c0-1.3594,1.1699-2.7886,3.1885-2.7886c1.9795,0,3.1885,1.2993,3.1885,2.7886
				c0,1.459-0.7998,2.2686-2.1484,2.6484l-0.0205,0.3696h1.5391c0.4102,0,0.5996-0.2397,0.6201-0.7393h0.25v1.689H179.3555z"/>
		</g>
		<g class="st10">
			<path class="st11" d="M207.6622,48.0073c0.2891-0.9492,0.9189-1.6191,1.958-1.6191c0.9297,0,1.5596,0.5498,1.5596,1.3691
				c0,0.48-0.2598,0.9795-0.9297,1.3794c0.4404,0.1899,0.6201,0.3101,0.8301,0.5298c0.2793,0.3096,0.4395,0.7695,0.4395,1.2891
				c0,0.5298-0.1699,1.0195-0.46,1.3994c-0.4795,0.6396-1.4287,0.9297-2.3184,0.9297c-0.7295,0-1.1191-0.21-1.1191-0.5698
				c0-0.21,0.1797-0.3599,0.4092-0.3599c0.1699,0,0.3301,0.0601,0.6104,0.2598c0.3691,0.2598,0.5791,0.3101,0.8594,0.3101
				c0.7393,0,1.2988-0.6797,1.2988-1.5293c0-0.7598-0.3496-1.2495-1.0391-1.4492c-0.2197-0.0698-0.4502-0.1001-1.0195-0.1001
				v-0.1396c0.3799-0.1299,0.6396-0.2397,0.8398-0.3599c0.4893-0.2798,0.8096-0.7295,0.8096-1.3394
				c0-0.6797-0.4199-1.0195-1.0801-1.0195c-0.6191,0-1.0791,0.3198-1.4893,1.0596L207.6622,48.0073z"/>
			<path class="st11" d="M216.5001,53.1446l0.0693-1.6089c0.8496-0.21,1.4092-1.3096,1.4092-2.3789
				c0-1.4194-0.7393-2.4087-2.0488-2.4087c-1.3594,0-2.0488,1.2095-2.0488,2.4087c0,0.9795,0.5195,2.1289,1.3994,2.3789
				l0.0898,1.6089h-2.8682v-1.709h0.25c0.0098,0.6094,0.1797,0.7593,0.6191,0.7593h1.5098l-0.0205-0.3696
				c-1.3887-0.3896-2.1191-1.1992-2.1191-2.6484c0-1.3594,1.1699-2.7886,3.1885-2.7886c1.9795,0,3.1885,1.2993,3.1885,2.7886
				c0,1.459-0.7998,2.2686-2.1484,2.6484l-0.0205,0.3696h1.5391c0.4102,0,0.5996-0.2397,0.6201-0.7393h0.25v1.689H216.5001z"/>
		</g>
		<g class="st10">
			<path class="st11" d="M210.9102,105.0166v1.6689H210.13v-1.6689h-2.7979v-0.6396l3.1377-4.4478h0.4404v4.4478h1.0293v0.6396
				H210.9102z M210.13,100.9487l-2.3984,3.4282h2.3984V100.9487z"/>
			<path class="st11" d="M216.5001,106.6856l0.0693-1.6089c0.8496-0.21,1.4092-1.3096,1.4092-2.3789
				c0-1.4194-0.7393-2.4087-2.0488-2.4087c-1.3594,0-2.0488,1.2095-2.0488,2.4087c0,0.9795,0.5195,2.1289,1.3994,2.3789
				l0.0898,1.6089h-2.8682v-1.709h0.25c0.0098,0.6094,0.1797,0.7593,0.6191,0.7593h1.5098l-0.0205-0.3696
				c-1.3887-0.3896-2.1191-1.1992-2.1191-2.6484c0-1.3594,1.1699-2.7886,3.1885-2.7886c1.9795,0,3.1885,1.2993,3.1885,2.7886
				c0,1.459-0.7998,2.2686-2.1484,2.6484l-0.0205,0.3696h1.5391c0.4102,0,0.5996-0.2397,0.6201-0.7393h0.25v1.689H216.5001z"/>
		</g>
		<g class="st10">
			<path class="st11" d="M10.8985,53.2847c-1.709,0-2.2588-1.8594-2.2588-3.4985c0-1.7686,0.6895-3.3979,2.2988-3.3979
				c1.3086,0,2.2188,1.4092,2.2188,3.458C13.1573,51.5654,12.5274,53.2847,10.8985,53.2847z M10.878,46.648
				c-0.8291,0-1.2793,1.1797-1.2793,3.2085s0.4395,3.168,1.2998,3.168c0.8496,0,1.2988-1.1494,1.2988-3.1279
				C12.1973,47.8174,11.7579,46.648,10.878,46.648z"/>
			<path class="st11" d="M14.6485,53.2544c-0.3096,0-0.5498-0.2397-0.5498-0.5498c0-0.3096,0.25-0.5596,0.5605-0.5596
				c0.2891,0,0.5488,0.27,0.5488,0.5698C15.2081,53.0044,14.9483,53.2544,14.6485,53.2544z"/>
			<path class="st11" d="M17.0792,53.1446v-0.1499c0.7393-0.04,0.9492-0.25,0.9492-0.7998v-4.4873
				c0-0.3398-0.0898-0.4897-0.2998-0.4897c-0.0996,0-0.2695,0.0498-0.4502,0.1201l-0.2695,0.0996v-0.1396l1.7891-0.9097
				l0.0898,0.0303v5.9663c0,0.4302,0.2002,0.6099,0.9492,0.6099v0.1499H17.0792z"/>
			<path class="st11" d="M25.1876,53.1446l0.0693-1.6089c0.8496-0.21,1.4092-1.3096,1.4092-2.3789
				c0-1.4194-0.7393-2.4087-2.0488-2.4087c-1.3594,0-2.0488,1.2095-2.0488,2.4087c0,0.9795,0.5195,2.1289,1.3994,2.3789
				l0.0898,1.6089h-2.8682v-1.709h0.25c0.0098,0.6094,0.1797,0.7593,0.6191,0.7593h1.5098l-0.0205-0.3696
				c-1.3887-0.3896-2.1191-1.1992-2.1191-2.6484c0-1.3594,1.1699-2.7886,3.1885-2.7886c1.9795,0,3.1885,1.2993,3.1885,2.7886
				c0,1.459-0.7998,2.2686-2.1484,2.6484l-0.0205,0.3696h1.5391c0.4102,0,0.5996-0.2397,0.6201-0.7393h0.25v1.689H25.1876z"/>
		</g>
		<g class="st10">
			<path class="st11" d="M12.2989,113.6509v-0.1499c0.7393-0.04,0.9492-0.25,0.9492-0.7998v-4.4873
				c0-0.3398-0.0898-0.4897-0.2998-0.4897c-0.0996,0-0.2695,0.0498-0.4502,0.1201l-0.2695,0.0996v-0.1396l1.7891-0.9097
				l0.0898,0.0303v5.9663c0,0.4302,0.2002,0.6099,0.9492,0.6099v0.1499H12.2989z"/>
			<path class="st11" d="M18.6182,113.791c-1.709,0-2.2588-1.8594-2.2588-3.4985c0-1.7686,0.6895-3.3979,2.2988-3.3979
				c1.3086,0,2.2188,1.4092,2.2188,3.458C20.877,112.0718,20.2472,113.791,18.6182,113.791z M18.5977,107.1543
				c-0.8291,0-1.2793,1.1797-1.2793,3.2085s0.4395,3.168,1.2998,3.168c0.8496,0,1.2988-1.1494,1.2988-3.1279
				C19.9171,108.3237,19.4776,107.1543,18.5977,107.1543z"/>
			<path class="st11" d="M28.085,107.2246c-0.3994,0.0098-0.6289,0.1699-0.9189,0.9092l-2.2188,5.627H24.797l-2.4385-5.437
				c-0.4297-0.9692-0.5801-1.0894-1.0791-1.0991v-0.1899h2.6484v0.1899l-0.2803,0.02c-0.3193,0.0195-0.4492,0.1099-0.4492,0.3096
				c0,0.1602,0.0898,0.3999,0.3896,1.0693l1.5195,3.4185l1.4688-3.688c0.1201-0.2998,0.1895-0.5498,0.1895-0.7197
				c0-0.3896-0.3193-0.3701-0.7188-0.4097v-0.1899h2.0381V107.2246z"/>
		</g>
	</g>
	<g class="st6">
		<line class="st8" x1="162.8143" y1="65.6246" x2="162.8143" y2="53.1447"/>
		<line class="st8" x1="162.8143" y1="15.705" x2="162.8143" y2="28.1849"/>
		<line class="st12" x1="167.1823" y1="53.1447" x2="167.1823" y2="28.1849"/>
		<line class="st12" x1="158.4463" y1="28.1849" x2="158.4463" y2="53.1447"/>
		<line class="st12" x1="167.1823" y1="28.1849" x2="158.4463" y2="28.1849"/>
		<line class="st12" x1="167.1823" y1="53.1447" x2="158.4463" y2="53.1447"/>
	</g>
	<g class="st6">
		<line class="st8" x1="200.254" y1="65.6246" x2="200.254" y2="53.1447"/>
		<line class="st8" x1="200.254" y1="15.705" x2="200.254" y2="28.1849"/>
		<line class="st12" x1="204.622" y1="53.1447" x2="204.622" y2="28.1849"/>
		<line class="st12" x1="195.8861" y1="28.1849" x2="195.8861" y2="53.1447"/>
		<line class="st12" x1="204.622" y1="28.1849" x2="195.8861" y2="28.1849"/>
		<line class="st12" x1="204.622" y1="53.1447" x2="195.8861" y2="53.1447"/>
	</g>
	<g class="st6">
		<path id="g0-69_00000148660400633637231480000008080177762834380420_" class="st11" d="M20.7205,98.1287
			c-2.3786,1.2845-2.5094,2.8187-2.5094,3.1041c0,0.9039,0.8801,1.4747,2.0099,1.4747c1.9861,0,3.5798-1.8791,3.5798-2.1289
			c0-0.0714-0.0595-0.0833-0.1189-0.0833c-0.1427,0-0.5947,0.1546-0.8682,0.5233c-0.2498,0.3449-0.7493,1.0347-1.8077,1.0347
			c-0.8444,0-1.784-0.44-1.784-1.332c0-0.5828,0.666-2.3429,2.5451-2.4143c0.559-0.0238,0.9752-0.44,0.9752-0.5709
			c0-0.0714-0.0595-0.0832-0.1189-0.0832c-1.6769-0.0714-2.0099-0.892-2.0099-1.3677c0-0.2735,0.1784-1.5699,1.8434-1.5699
			c0.226,0,1.1298,0.0357,1.1298,0.6541c0,0.1903-0.0951,0.3568-0.1427,0.4282c-0.0238,0.0357-0.0595,0.0951-0.0595,0.1308
			c0,0.0833,0.0833,0.0833,0.1189,0.0833c0.3568,0,1.0942-0.4638,1.0942-1.1417c0-0.7017-0.8206-0.8087-1.3558-0.8087
			c-1.6175,0-3.6393,1.2844-3.6393,2.7354C19.6026,97.4984,20.1378,97.9265,20.7205,98.1287z"/>
	</g>
	<g class="st6">
		<g>
			<line class="st17" x1="81.9711" y1="15.705" x2="73.3689" y2="15.705"/>
			<g>
				<path class="st18" d="M77.8011,12.7763c-0.0906,0.1418-0.0486,0.3307,0.0935,0.4213l3.9371,2.5074l-3.9371,2.5074
					c-0.1421,0.0906-0.1841,0.2794-0.0936,0.4213c0.0906,0.1418,0.2804,0.183,0.4213,0.0936l4.3412-2.7648
					c0.0879-0.056,0.1412-0.1531,0.1412-0.2574s-0.0533-0.2014-0.1412-0.2574l-4.3412-2.7648
					c-0.0507-0.0322-0.1075-0.0477-0.1636-0.0477C77.9581,12.6351,77.8595,12.6851,77.8011,12.7763z"/>
			</g>
		</g>
	</g>
	<g class="st6">
		<g>
			<line class="st13" x1="125.3745" y1="24.7225" x2="125.3746" y2="16.1202"/>
			<g>
				<path class="st14" d="M128.3032,20.5524c-0.1418-0.0906-0.3307-0.0486-0.4213,0.0935l-2.5074,3.9371l-2.5074-3.9371
					c-0.0905-0.1421-0.2794-0.1841-0.4213-0.0935c-0.1418,0.0905-0.1829,0.2803-0.0936,0.4213l2.7648,4.3412
					c0.056,0.0879,0.1531,0.1412,0.2574,0.1412s0.2014-0.0533,0.2574-0.1412l2.7648-4.3412
					c0.0322-0.0506,0.0477-0.1075,0.0477-0.1635C128.4444,20.7095,128.3944,20.6108,128.3032,20.5524z"/>
			</g>
		</g>
	</g>
	<g class="st6">
		<g>
			<line class="st13" x1="162.8143" y1="24.7225" x2="162.8143" y2="16.1202"/>
			<g>
				<path class="st14" d="M165.7429,20.5524c-0.1418-0.0906-0.3307-0.0486-0.4213,0.0935l-2.5074,3.9371l-2.5074-3.9371
					c-0.0906-0.1421-0.2794-0.1841-0.4213-0.0935c-0.1418,0.0905-0.183,0.2803-0.0936,0.4213l2.7648,4.3412
					c0.056,0.0879,0.1531,0.1412,0.2574,0.1412c0.1043,0,0.2014-0.0533,0.2574-0.1412l2.7648-4.3412
					c0.0322-0.0506,0.0477-0.1075,0.0477-0.1635C165.8842,20.7095,165.8341,20.6108,165.7429,20.5524z"/>
			</g>
		</g>
	</g>
	<g class="st6">
		<g>
			<line class="st13" x1="200.254" y1="24.7225" x2="200.254" y2="16.1202"/>
			<g>
				<path class="st14" d="M203.1827,20.5524c-0.1418-0.0906-0.3307-0.0486-0.4213,0.0935l-2.5074,3.9371l-2.5073-3.9371
					c-0.0906-0.1421-0.2795-0.1841-0.4213-0.0935c-0.1418,0.0905-0.1829,0.2803-0.0935,0.4213l2.7648,4.3412
					c0.056,0.0879,0.1531,0.1412,0.2574,0.1412c0.1043,0,0.2014-0.0533,0.2574-0.1412l2.7648-4.3412
					c0.0322-0.0506,0.0477-0.1075,0.0477-0.1635C203.3239,20.7095,203.2738,20.6108,203.1827,20.5524z"/>
			</g>
		</g>
	</g>
	<circle class="st15" cx="38.0151" cy="15.705" r="2.496"/>
	<circle class="st15" cx="37.7207" cy="115.6179" r="2.496"/>
	<g class="st6">
		<g>
			<line class="st19" x1="112.1963" y1="21.9449" x2="112.1963" y2="56.1007"/>
			<g>
				<polygon points="109.9145,55.433 112.1963,59.3847 114.4782,55.433 				"/>
			</g>
		</g>
	</g>
	<g class="st20">
		<path d="M85.252,40.2783c-0.2295,0.0103-0.3896,0.1304-0.5596,0.3999l-3.7275,6.1465h-0.1904l-0.8193-5.0269
			c-0.2295-1.3994-0.2598-1.4492-0.8193-1.5195v-0.1597h2.3984v0.1597c-0.6289,0.0703-0.7598,0.1699-0.7598,0.5098
			c0,0.0503,0,0.1001,0.0107,0.1499l0.6494,4.4277l2.0986-3.5981c0.3096-0.5298,0.4902-0.9595,0.4902-1.1494
			s-0.1699-0.2896-0.6201-0.3398v-0.1597h1.8486V40.2783z"/>
		<path d="M85.5704,48.063c0.3145-0.4717,0.6465-0.6582,0.9971-0.6582c0.4307,0,0.6699,0.2734,0.6699,0.7285
			c0,0.9619-0.8799,1.9062-1.7314,1.9062c-0.1338,0-0.2559-0.0234-0.4023-0.0996c-0.0986,0.4082-0.2324,0.8857-0.2324,0.9678
			c0,0.1279,0.0869,0.1689,0.3613,0.1689v0.0938h-1.1836v-0.0938c0.251-0.0059,0.3262-0.0928,0.3965-0.3672l0.6699-2.5176
			c0.0645-0.2334,0.0938-0.3848,0.0938-0.4141c0-0.1396-0.1631-0.1572-0.2568-0.1572h-0.1279l-0.0117-0.0879l0.9092-0.1279
			c0.0176,0,0.0293,0.0117,0.0293,0.0234c0,0-0.0059,0.0283-0.0117,0.0518L85.5704,48.063z M86.3516,47.6548
			c-0.3096,0-0.6533,0.3154-0.7871,0.665c-0.1689,0.4375-0.3789,1.1895-0.3789,1.3867c0,0.1289,0.1162,0.2217,0.2793,0.2217
			c0.3096,0,0.5889-0.1924,0.8457-0.5537c0.2793-0.3906,0.4023-0.8154,0.4023-1.2236
			C86.713,47.8189,86.6134,47.6548,86.3516,47.6548z"/>
		<path d="M88.2843,43.4468v-0.6592h5.0371v0.6592H88.2843z M88.2843,45.4458v-0.6602h5.0371v0.6602H88.2843z"/>
		<path d="M98.0118,40.2783c-0.5596,0.0703-0.6494,0.1602-0.8193,0.77l-1.1992,4.2871c-0.0898,0.3203-0.1504,0.5596-0.1504,0.7598
			c0,0.2803,0.1201,0.3203,0.6904,0.3896v0.1602h-2.4395v-0.1602c0.5498-0.0996,0.6904-0.1895,0.8398-0.749l1.1992-4.4077
			c0.0703-0.25,0.1299-0.46,0.1299-0.6196c0-0.25-0.1602-0.3999-0.7197-0.4302v-0.1597h2.4688V40.2783z"/>
		<path d="M101.3419,40.1187c1.3193,0,2.0391,0.5596,2.0391,1.4092c0,0.4795-0.25,0.9697-0.6592,1.2793
			c-0.3105,0.2402-0.6396,0.3594-1.3096,0.5098l0.8896,2.3486c0.2197,0.5898,0.4199,0.8193,0.8691,0.8193v0.1602h-1.4688
			l-1.2295-3.2383l-0.6602-0.0498l-0.5498,2.0283c-0.1094,0.3906-0.1299,0.5303-0.1299,0.6299c0,0.2998,0.1006,0.4102,0.6699,0.4697
			v0.1602h-2.4287v-0.1602c0.5498-0.0693,0.6895-0.2598,0.8496-0.8496l1.1895-4.3071c0.0703-0.27,0.1201-0.46,0.1201-0.6299
			c0-0.1099-0.0703-0.23-0.1396-0.2798c-0.1104-0.0698-0.1504-0.0801-0.5703-0.1401v-0.1597H101.3419z M99.9327,42.9868
			c0.25,0.04,0.3301,0.0498,0.5098,0.0498c1.1895,0,1.8887-0.5693,1.8887-1.499c0-0.6895-0.4189-1.1191-1.1992-1.1191
			c-0.3096,0-0.5195,0.1099-0.5693,0.2998L99.9327,42.9868z"/>
		<path d="M104.6983,48.063c0.3145-0.4717,0.6465-0.6582,0.9971-0.6582c0.4307,0,0.6699,0.2734,0.6699,0.7285
			c0,0.9619-0.8799,1.9062-1.7314,1.9062c-0.1338,0-0.2559-0.0234-0.4023-0.0996c-0.0986,0.4082-0.2324,0.8857-0.2324,0.9678
			c0,0.1279,0.0869,0.1689,0.3613,0.1689v0.0938h-1.1836v-0.0938c0.251-0.0059,0.3262-0.0928,0.3965-0.3672l0.6699-2.5176
			c0.0645-0.2334,0.0938-0.3848,0.0938-0.4141c0-0.1396-0.1631-0.1572-0.2568-0.1572h-0.1279l-0.0117-0.0879l0.9092-0.1279
			c0.0176,0,0.0293,0.0117,0.0293,0.0234c0,0-0.0059,0.0283-0.0117,0.0518L104.6983,48.063z M105.4796,47.6548
			c-0.3096,0-0.6533,0.3154-0.7871,0.665c-0.1689,0.4375-0.3789,1.1895-0.3789,1.3867c0,0.1289,0.1162,0.2217,0.2793,0.2217
			c0.3096,0,0.5889-0.1924,0.8457-0.5537c0.2793-0.3906,0.4023-0.8154,0.4023-1.2236
			C105.8409,47.8189,105.7413,47.6548,105.4796,47.6548z"/>
	</g>
	<g class="st20">
		<path class="st21" d="M134.7891,18.2236c-0.5596,0.0703-0.6494,0.1602-0.8193,0.7695l-1.1992,4.2881
			c-0.0898,0.3198-0.1504,0.5596-0.1504,0.7593c0,0.2798,0.1201,0.3198,0.6904,0.3901v0.1597h-2.4395v-0.1597
			c0.5498-0.1001,0.6904-0.1899,0.8398-0.75l1.1992-4.4072c0.0703-0.25,0.1299-0.46,0.1299-0.6196
			c0-0.25-0.1602-0.3999-0.7197-0.4302V18.064h2.4688V18.2236z"/>
		<path class="st21" d="M136.6368,23.98c0.0176,0,0.0283,0.0176,0.0283,0.041c0,0.0288-0.0107,0.0874-0.0342,0.1689l-0.834,3.0254
			c-0.041,0.1455-0.1045,0.373-0.1045,0.4312c0,0.1338,0.1279,0.1865,0.3848,0.1865h0.1221v0.0874h-1.626V27.833
			c0.46-0.0352,0.5889-0.0991,0.6523-0.3208l0.793-2.8442c0.0293-0.1108,0.0469-0.1689,0.0469-0.21
			c0-0.1108-0.0762-0.1807-0.2041-0.1807h-0.0176c-0.1055,0-0.2334,0.0059-0.3438,0.0117v-0.0874l0.1338-0.0293
			c0.5127-0.1108,0.5361-0.0991,0.9854-0.1924H136.6368z"/>
	</g>
	<g class="st20">
		<path class="st21" d="M172.3819,18.2236c-0.5596,0.0703-0.6494,0.1602-0.8193,0.7695l-1.1992,4.2881
			c-0.0898,0.3198-0.1504,0.5596-0.1504,0.7593c0,0.2798,0.1201,0.3198,0.6904,0.3901v0.1597h-2.4395v-0.1597
			c0.5498-0.1001,0.6904-0.1899,0.8398-0.75l1.1992-4.4072c0.0703-0.25,0.1299-0.46,0.1299-0.6196
			c0-0.25-0.1602-0.3999-0.7197-0.4302V18.064h2.4688V18.2236z"/>
		<path class="st21" d="M172.3409,24.9243c0.1396-0.3438,0.2734-0.542,0.4775-0.6992c0.2275-0.1753,0.4785-0.2451,0.7461-0.2451
			c0.5596,0,0.9443,0.4316,0.9443,0.9854c0,0.3901-0.1807,0.6587-0.8682,1.3638l-1.0957,1.1191v0.0293h1.0547
			c0.3438,0,0.4609-0.0874,0.6006-0.3789l0.0986,0.0405l-0.291,0.7812h-2.0635v-0.0991l1.2236-1.3057
			c0.3848-0.4082,0.6475-0.7754,0.7871-1.0898c0.0352-0.0757,0.0527-0.1865,0.0527-0.3149c0-0.4023-0.2334-0.7051-0.6934-0.7051
			c-0.3506,0-0.6475,0.1689-0.8516,0.5596L172.3409,24.9243z"/>
	</g>
	<g class="st20">
		<path class="st21" d="M209.8223,18.2236c-0.5596,0.0703-0.6494,0.1602-0.8193,0.7695l-1.2002,4.2881
			c-0.0898,0.3198-0.1494,0.5596-0.1494,0.7593c0,0.2798,0.1201,0.3198,0.6895,0.3901v0.1597h-2.4385v-0.1597
			c0.5498-0.1001,0.6895-0.1899,0.8398-0.75l1.1992-4.4072c0.0693-0.25,0.1299-0.46,0.1299-0.6196
			c0-0.25-0.1602-0.3999-0.7197-0.4302V18.064h2.4688V18.2236z"/>
		<path class="st21" d="M212.003,22.6714h-2.1992l0.1406-0.6299h2.1885L212.003,22.6714z"/>
		<path class="st21" d="M216.4815,18.2236c-0.5596,0.0703-0.6494,0.1602-0.8193,0.7695l-1.1992,4.2881
			c-0.0898,0.3198-0.1504,0.5596-0.1504,0.7593c0,0.2798,0.1201,0.3198,0.6904,0.3901v0.1597h-2.4395v-0.1597
			c0.5498-0.1001,0.6904-0.1899,0.8398-0.75l1.1992-4.4072c0.0703-0.25,0.1299-0.46,0.1299-0.6196
			c0-0.25-0.1602-0.3999-0.7197-0.4302V18.064h2.4688V18.2236z"/>
		<path class="st21" d="M218.3292,23.98c0.0176,0,0.0283,0.0176,0.0283,0.041c0,0.0288-0.0107,0.0874-0.0342,0.1689l-0.834,3.0254
			c-0.041,0.1455-0.1045,0.373-0.1045,0.4312c0,0.1338,0.1279,0.1865,0.3848,0.1865h0.1221v0.0874h-1.626V27.833
			c0.46-0.0352,0.5889-0.0991,0.6523-0.3208l0.793-2.8442c0.0293-0.1108,0.0469-0.1689,0.0469-0.21
			c0-0.1108-0.0762-0.1807-0.2041-0.1807h-0.0176c-0.1055,0-0.2334,0.0059-0.3438,0.0117v-0.0874l0.1338-0.0293
			c0.5127-0.1108,0.5361-0.0991,0.9854-0.1924H218.3292z"/>
		<path class="st21" d="M221.5772,22.6714h-2.1982l0.1396-0.6299h2.1885L221.5772,22.6714z"/>
		<path class="st21" d="M226.0567,18.2236c-0.5596,0.0703-0.6494,0.1602-0.8193,0.7695l-1.1992,4.2881
			c-0.0898,0.3198-0.1504,0.5596-0.1504,0.7593c0,0.2798,0.1201,0.3198,0.6904,0.3901v0.1597h-2.4395v-0.1597
			c0.5498-0.1001,0.6904-0.1899,0.8398-0.75l1.1992-4.4072c0.0703-0.25,0.1299-0.46,0.1299-0.6196
			c0-0.25-0.1602-0.3999-0.7197-0.4302V18.064h2.4688V18.2236z"/>
		<path class="st21" d="M226.0147,24.9243c0.1406-0.3438,0.2744-0.542,0.4785-0.6992c0.2266-0.1753,0.4775-0.2451,0.7461-0.2451
			c0.5596,0,0.9443,0.4316,0.9443,0.9854c0,0.3901-0.1807,0.6587-0.8691,1.3638l-1.0957,1.1191v0.0293h1.0557
			c0.3438,0,0.46-0.0874,0.5996-0.3789l0.0996,0.0405l-0.292,0.7812h-2.0635v-0.0991l1.2246-1.3057
			c0.3848-0.4082,0.6465-0.7754,0.7871-1.0898c0.0342-0.0757,0.0518-0.1865,0.0518-0.3149c0-0.4023-0.2324-0.7051-0.6934-0.7051
			c-0.3496,0-0.6465,0.1689-0.8506,0.5596L226.0147,24.9243z"/>
	</g>
	<g class="st20">
		<path class="st18" d="M88.0352,4.8247c-0.5596,0.0703-0.6494,0.1602-0.8193,0.7695l-1.2002,4.2881
			c-0.0898,0.3198-0.1494,0.5596-0.1494,0.7593c0,0.2798,0.1201,0.3198,0.6895,0.3901v0.1597h-2.4385v-0.1597
			c0.5498-0.1001,0.6895-0.1899,0.8398-0.75l1.1992-4.4072c0.0693-0.25,0.1299-0.46,0.1299-0.6196
			c0-0.25-0.1602-0.3999-0.7197-0.4302V4.6651h2.4688V4.8247z"/>
	</g>
</g>
</svg>
