<?xml version="1.0" encoding="utf-8"?>
<!-- Generator: Adobe Illustrator 26.0.1, SVG Export Plug-In . SVG Version: 6.00 Build 0)  -->
<svg version="1.1" xmlns="http://www.w3.org/2000/svg" xmlns:xlink="http://www.w3.org/1999/xlink" x="0px" y="0px"
	 viewBox="0 0 433.9877 215.9346" style="enable-background:new 0 0 433.9877 215.9346;" xml:space="preserve">
<style type="text/css">
	.st0{opacity:0.5;}
	.st1{opacity:0.25;clip-path:url(#SVGID_00000157998916931980090500000007569914476444584380_);}
	.st2{fill:none;stroke:#00ABEB;stroke-width:0.2111;stroke-miterlimit:10;}
	.st3{fill:none;stroke:#00ABEB;stroke-width:0.4221;stroke-miterlimit:10;}
	.st4{fill:none;stroke:#00ABEB;stroke-width:0.9849;stroke-miterlimit:10;}
	.st5{display:none;}
	.st6{display:inline;opacity:0.1;}
	.st7{fill:none;stroke:#0000FF;stroke-width:3.6831;stroke-linecap:round;stroke-linejoin:round;}
	.st8{fill:#0000FF;}
	.st9{display:inline;}
	.st10{fill:none;stroke:#000000;stroke-miterlimit:10;}
	.st11{opacity:0.1;}
	.st12{enable-background:new    ;}
	.st13{fill:#00B200;}
	.st14{fill:none;stroke:#00B200;stroke-linecap:round;stroke-linejoin:round;}
	.st15{fill:none;stroke:#00B200;stroke-linecap:round;stroke-linejoin:round;stroke-miterlimit:11.3386;}
	.st16{fill:none;stroke:#C90D0C;stroke-linecap:round;stroke-miterlimit:11.3386;}
	.st17{fill:none;stroke:#C90D0C;stroke-width:2;stroke-linecap:round;stroke-miterlimit:11.3386;}
	.st18{fill:#808080;}
	.st19{fill:none;stroke:#C90D0C;stroke-width:1.2005;stroke-linecap:round;stroke-miterlimit:11.3386;}
	.st20{fill:none;stroke:#C90D0C;stroke-width:3.4574;stroke-linecap:round;stroke-miterlimit:11.3386;}
	.st21{fill:none;stroke:#00B200;stroke-width:1.2005;stroke-linecap:round;stroke-linejoin:round;stroke-miterlimit:11.3386;}
	.st22{fill:none;stroke:#C90D0C;stroke-width:2.1008;stroke-linecap:round;stroke-miterlimit:11.3386;}
	.st23{fill:#C90D0C;}
	.st24{fill:none;stroke:#00B200;stroke-width:1.2005;stroke-miterlimit:11.3386;}
</style>
<g id="Graph_paper" class="st0">
	<g id="Clipped_grid">
		<defs>
			<rect id="SVGID_1_" x="-31.1411" y="-13.317" width="467.5583" height="271.8773"/>
		</defs>
		<clipPath id="SVGID_00000120552208884383472010000017499242176069199792_">
			<use xlink:href="#SVGID_1_"  style="overflow:visible;"/>
		</clipPath>
		
			<g id="Grid_00000060005542146034257920000005065612243763103930_" style="opacity:0.25;clip-path:url(#SVGID_00000120552208884383472010000017499242176069199792_);">
			<g id="Horizontal_1_mm">
				<line class="st2" x1="-254.6499" y1="-70.7416" x2="547.3089" y2="-70.7416"/>
				<line class="st2" x1="-254.6499" y1="-80.7641" x2="547.3089" y2="-80.7641"/>
				<line class="st2" x1="-254.6499" y1="520.5229" x2="547.3089" y2="520.5229"/>
				<line class="st2" x1="-254.6499" y1="510.5002" x2="547.3089" y2="510.5002"/>
				<line class="st2" x1="-254.6499" y1="500.481" x2="547.3089" y2="500.481"/>
				<line class="st2" x1="-254.6499" y1="490.4587" x2="547.3089" y2="490.4587"/>
				<line class="st2" x1="-254.6499" y1="480.4361" x2="547.3089" y2="480.4361"/>
				<line class="st2" x1="-254.6499" y1="470.4169" x2="547.3089" y2="470.4169"/>
				<line class="st2" x1="-254.6499" y1="460.3946" x2="547.3089" y2="460.3946"/>
				<line class="st2" x1="-254.6499" y1="450.3754" x2="547.3089" y2="450.3754"/>
				<line class="st2" x1="-254.6499" y1="440.351" x2="547.3089" y2="440.351"/>
				<line class="st2" x1="-254.6499" y1="430.3287" x2="547.3089" y2="430.3287"/>
				<line class="st2" x1="-254.6499" y1="420.3095" x2="547.3089" y2="420.3095"/>
				<line class="st2" x1="-254.6499" y1="410.2868" x2="547.3089" y2="410.2868"/>
				<line class="st2" x1="-254.6499" y1="400.2645" x2="547.3089" y2="400.2645"/>
				<line class="st2" x1="-254.6499" y1="390.2454" x2="547.3089" y2="390.2454"/>
				<line class="st2" x1="-254.6499" y1="380.2227" x2="547.3089" y2="380.2227"/>
				<line class="st2" x1="-254.6499" y1="370.2004" x2="547.3089" y2="370.2004"/>
				<line class="st2" x1="-254.6499" y1="360.1812" x2="547.3089" y2="360.1812"/>
				<line class="st2" x1="-254.6499" y1="350.1585" x2="547.3089" y2="350.1585"/>
				<line class="st2" x1="-254.6499" y1="340.1359" x2="547.3089" y2="340.1359"/>
				<line class="st2" x1="-254.6499" y1="330.1171" x2="547.3089" y2="330.1171"/>
				<line class="st2" x1="-254.6499" y1="320.0944" x2="547.3089" y2="320.0944"/>
				<line class="st2" x1="-254.6499" y1="310.0703" x2="547.3089" y2="310.0703"/>
				<line class="st2" x1="-254.6499" y1="300.0511" x2="547.3089" y2="300.0511"/>
				<line class="st2" x1="-254.6499" y1="290.0285" x2="547.3089" y2="290.0285"/>
				<line class="st2" x1="-254.6499" y1="280.0093" x2="547.3089" y2="280.0093"/>
				<line class="st2" x1="-254.6499" y1="269.987" x2="547.3089" y2="269.987"/>
				<line class="st2" x1="-254.6499" y1="259.9643" x2="547.3089" y2="259.9643"/>
				<line class="st2" x1="-254.6499" y1="249.9452" x2="547.3089" y2="249.9452"/>
				<line class="st2" x1="-254.6499" y1="239.9229" x2="547.3089" y2="239.9229"/>
				<line class="st2" x1="-254.6499" y1="229.9002" x2="547.3089" y2="229.9002"/>
				<line class="st2" x1="-254.6499" y1="219.881" x2="547.3089" y2="219.881"/>
				<line class="st2" x1="-254.6499" y1="209.8587" x2="547.3089" y2="209.8587"/>
				<line class="st2" x1="-254.6499" y1="199.836" x2="547.3089" y2="199.836"/>
				<line class="st2" x1="-254.6499" y1="189.8169" x2="547.3089" y2="189.8169"/>
				<line class="st2" x1="-254.6499" y1="179.7942" x2="547.3089" y2="179.7942"/>
				<line class="st2" x1="-254.6499" y1="169.7719" x2="547.3089" y2="169.7719"/>
				<line class="st2" x1="-254.6499" y1="159.7527" x2="547.3089" y2="159.7527"/>
				<line class="st2" x1="-254.6499" y1="149.7301" x2="547.3089" y2="149.7301"/>
				<line class="st2" x1="-254.6499" y1="139.7077" x2="547.3089" y2="139.7077"/>
				<line class="st2" x1="-254.6499" y1="129.6886" x2="547.3089" y2="129.6886"/>
				<line class="st2" x1="-254.6499" y1="119.6641" x2="547.3089" y2="119.6641"/>
				<line class="st2" x1="-254.6499" y1="109.6453" x2="547.3089" y2="109.6453"/>
				<line class="st2" x1="-254.6499" y1="99.6227" x2="547.3089" y2="99.6227"/>
				<line class="st2" x1="-254.6499" y1="89.6" x2="547.3089" y2="89.6"/>
				<line class="st2" x1="-254.6499" y1="79.5812" x2="547.3089" y2="79.5812"/>
				<line class="st2" x1="-254.6499" y1="69.5585" x2="547.3089" y2="69.5585"/>
				<line class="st2" x1="-254.6499" y1="59.5358" x2="547.3089" y2="59.5358"/>
				<line class="st2" x1="-254.6499" y1="49.5167" x2="547.3089" y2="49.5167"/>
				<line class="st2" x1="-254.6499" y1="39.4944" x2="547.3089" y2="39.4944"/>
				<line class="st2" x1="-254.6499" y1="29.4717" x2="547.3089" y2="29.4717"/>
				<line class="st2" x1="-254.6499" y1="19.4525" x2="547.3089" y2="19.4525"/>
				<line class="st2" x1="-254.6499" y1="9.4302" x2="547.3089" y2="9.4302"/>
				<line class="st2" x1="-254.6499" y1="-0.5925" x2="547.3089" y2="-0.5925"/>
				<line class="st2" x1="-254.6499" y1="-10.6116" x2="547.3089" y2="-10.6116"/>
				<line class="st2" x1="-254.6499" y1="-20.6357" x2="547.3089" y2="-20.6357"/>
				<line class="st2" x1="-254.6499" y1="-30.6548" x2="547.3089" y2="-30.6548"/>
				<line class="st2" x1="-254.6499" y1="-40.6775" x2="547.3089" y2="-40.6775"/>
				<line class="st2" x1="-254.6499" y1="-50.6999" x2="547.3089" y2="-50.6999"/>
				<line class="st2" x1="-254.6499" y1="-60.719" x2="547.3089" y2="-60.719"/>
			</g>
			<g id="Vertical_1_mm">
				<g>
					<line class="st2" x1="-254.384" y1="520.4741" x2="-254.384" y2="-81.0299"/>
				</g>
				<line class="st2" x1="-244.3649" y1="520.4741" x2="-244.3649" y2="-81.0299"/>
				<line class="st2" x1="-234.3424" y1="520.4741" x2="-234.3424" y2="-81.0299"/>
				<line class="st2" x1="-224.3199" y1="520.4741" x2="-224.3199" y2="-81.0299"/>
				<line class="st2" x1="-214.3009" y1="520.4741" x2="-214.3009" y2="-81.0299"/>
				<line class="st2" x1="-204.2782" y1="520.4741" x2="-204.2782" y2="-81.0299"/>
				<line class="st2" x1="-194.2555" y1="520.4741" x2="-194.2555" y2="-81.0299"/>
				<line class="st2" x1="-184.2367" y1="520.4741" x2="-184.2367" y2="-81.0299"/>
				<line class="st2" x1="-174.2123" y1="520.4741" x2="-174.2123" y2="-81.0299"/>
				<line class="st2" x1="-164.1931" y1="520.4741" x2="-164.1931" y2="-81.0299"/>
				<line class="st2" x1="-154.1708" y1="520.4741" x2="-154.1708" y2="-81.0299"/>
				<line class="st2" x1="-144.1481" y1="520.4741" x2="-144.1481" y2="-81.0299"/>
				<line class="st2" x1="-134.129" y1="520.4741" x2="-134.129" y2="-81.0299"/>
				<line class="st2" x1="-124.1067" y1="520.4741" x2="-124.1067" y2="-81.0299"/>
				<line class="st2" x1="-114.084" y1="520.4741" x2="-114.084" y2="-81.0299"/>
				<line class="st2" x1="-104.0648" y1="520.4741" x2="-104.0648" y2="-81.0299"/>
				<line class="st2" x1="-94.0422" y1="520.4741" x2="-94.0422" y2="-81.0299"/>
				<line class="st2" x1="-84.0198" y1="520.4741" x2="-84.0198" y2="-81.0299"/>
				<line class="st2" x1="-74.0007" y1="520.4741" x2="-74.0007" y2="-81.0299"/>
				<line class="st2" x1="-63.978" y1="520.4741" x2="-63.978" y2="-81.0299"/>
				<line class="st2" x1="-53.9557" y1="520.4741" x2="-53.9557" y2="-81.0299"/>
				<line class="st2" x1="-43.9365" y1="520.4741" x2="-43.9365" y2="-81.0299"/>
				<line class="st2" x1="-33.9139" y1="520.4741" x2="-33.9139" y2="-81.0299"/>
				<line class="st2" x1="-23.8915" y1="520.4741" x2="-23.8915" y2="-81.0299"/>
				<line class="st2" x1="-13.8706" y1="520.4741" x2="-13.8706" y2="-81.0299"/>
				<line class="st2" x1="-3.848" y1="520.4741" x2="-3.848" y2="-81.0299"/>
				<line class="st2" x1="6.1708" y1="520.4741" x2="6.1708" y2="-81.0299"/>
				<line class="st2" x1="16.1935" y1="520.4741" x2="16.1935" y2="-81.0299"/>
				<line class="st2" x1="26.2162" y1="520.4741" x2="26.2162" y2="-81.0299"/>
				<line class="st2" x1="36.235" y1="520.4741" x2="36.235" y2="-81.0299"/>
				<line class="st2" x1="46.2577" y1="520.4741" x2="46.2577" y2="-81.0299"/>
				<line class="st2" x1="56.2803" y1="520.4741" x2="56.2803" y2="-81.0299"/>
				<line class="st2" x1="66.2995" y1="520.4741" x2="66.2995" y2="-81.0299"/>
				<line class="st2" x1="76.3218" y1="520.4741" x2="76.3218" y2="-81.0299"/>
				<line class="st2" x1="86.3445" y1="520.4741" x2="86.3445" y2="-81.0299"/>
				<line class="st2" x1="96.3636" y1="520.4741" x2="96.3636" y2="-81.0299"/>
				<line class="st2" x1="106.386" y1="520.4741" x2="106.386" y2="-81.0299"/>
				<line class="st2" x1="116.4086" y1="520.4741" x2="116.4086" y2="-81.0299"/>
				<line class="st2" x1="126.4278" y1="520.4741" x2="126.4278" y2="-81.0299"/>
				<line class="st2" x1="136.4501" y1="520.4741" x2="136.4501" y2="-81.0299"/>
				<line class="st2" x1="146.4693" y1="520.4741" x2="146.4693" y2="-81.0299"/>
				<line class="st2" x1="156.4937" y1="520.4741" x2="156.4937" y2="-81.0299"/>
				<line class="st2" x1="166.516" y1="520.4741" x2="166.516" y2="-81.0299"/>
				<line class="st2" x1="176.5352" y1="520.4741" x2="176.5352" y2="-81.0299"/>
				<line class="st2" x1="186.5578" y1="520.4741" x2="186.5578" y2="-81.0299"/>
				<line class="st2" x1="196.5802" y1="520.4741" x2="196.5802" y2="-81.0299"/>
				<line class="st2" x1="206.5993" y1="520.4741" x2="206.5993" y2="-81.0299"/>
				<line class="st2" x1="216.622" y1="520.4741" x2="216.622" y2="-81.0299"/>
				<line class="st2" x1="226.6443" y1="520.4741" x2="226.6443" y2="-81.0299"/>
				<line class="st2" x1="236.6635" y1="520.4741" x2="236.6635" y2="-81.0299"/>
				<line class="st2" x1="246.6861" y1="520.4741" x2="246.6861" y2="-81.0299"/>
				<line class="st2" x1="256.7085" y1="520.4741" x2="256.7085" y2="-81.0299"/>
				<line class="st2" x1="266.7276" y1="520.4741" x2="266.7276" y2="-81.0299"/>
				<line class="st2" x1="276.7503" y1="520.4741" x2="276.7503" y2="-81.0299"/>
				<line class="st2" x1="286.7726" y1="520.4741" x2="286.7726" y2="-81.0299"/>
				<line class="st2" x1="296.7917" y1="520.4741" x2="296.7917" y2="-81.0299"/>
				<line class="st2" x1="306.8162" y1="520.4741" x2="306.8162" y2="-81.0299"/>
				<line class="st2" x1="316.8354" y1="520.4741" x2="316.8354" y2="-81.0299"/>
				<line class="st2" x1="326.8577" y1="520.4741" x2="326.8577" y2="-81.0299"/>
				<line class="st2" x1="336.8804" y1="520.4741" x2="336.8804" y2="-81.0299"/>
				<line class="st2" x1="346.8995" y1="520.4741" x2="346.8995" y2="-81.0299"/>
				<line class="st2" x1="356.9218" y1="520.4741" x2="356.9218" y2="-81.0299"/>
				<line class="st2" x1="366.9445" y1="520.4741" x2="366.9445" y2="-81.0299"/>
				<line class="st2" x1="376.9637" y1="520.4741" x2="376.9637" y2="-81.0299"/>
				<line class="st2" x1="386.986" y1="520.4741" x2="386.986" y2="-81.0299"/>
				<line class="st2" x1="397.0087" y1="520.4741" x2="397.0087" y2="-81.0299"/>
				<line class="st2" x1="407.0278" y1="520.4741" x2="407.0278" y2="-81.0299"/>
				<line class="st2" x1="417.0501" y1="520.4741" x2="417.0501" y2="-81.0299"/>
				<line class="st2" x1="427.0728" y1="520.4741" x2="427.0728" y2="-81.0299"/>
				<line class="st2" x1="437.0919" y1="520.4741" x2="437.0919" y2="-81.0299"/>
				<line class="st2" x1="447.1146" y1="520.4741" x2="447.1146" y2="-81.0299"/>
				<line class="st2" x1="457.137" y1="520.4741" x2="457.137" y2="-81.0299"/>
				<line class="st2" x1="467.1579" y1="520.4741" x2="467.1579" y2="-81.0299"/>
				<line class="st2" x1="477.1802" y1="520.4741" x2="477.1802" y2="-81.0299"/>
				<line class="st2" x1="487.1993" y1="520.4741" x2="487.1993" y2="-81.0299"/>
				<line class="st2" x1="497.222" y1="520.4741" x2="497.222" y2="-81.0299"/>
				<line class="st2" x1="507.2447" y1="520.4741" x2="507.2447" y2="-81.0299"/>
				<line class="st2" x1="517.2635" y1="520.4741" x2="517.2635" y2="-81.0299"/>
				<line class="st2" x1="527.2861" y1="520.4741" x2="527.2861" y2="-81.0299"/>
				<line class="st2" x1="537.3088" y1="520.4741" x2="537.3088" y2="-81.0299"/>
				<line class="st2" x1="547.3276" y1="520.4741" x2="547.3276" y2="-81.0299"/>
			</g>
			<g id="Horizontal_5_mm_1_">
				<line class="st3" x1="-255.6217" y1="520.5229" x2="547.3089" y2="520.5229"/>
				<line class="st3" x1="-255.6217" y1="470.4169" x2="547.3089" y2="470.4169"/>
				<line class="st3" x1="-255.6217" y1="420.3095" x2="547.3089" y2="420.3095"/>
				<line class="st3" x1="-255.6217" y1="370.2004" x2="547.3089" y2="370.2004"/>
				<line class="st3" x1="-255.6217" y1="320.0944" x2="547.3089" y2="320.0944"/>
				<line class="st3" x1="-255.6217" y1="269.987" x2="547.3089" y2="269.987"/>
				<line class="st3" x1="-255.6217" y1="219.881" x2="547.3089" y2="219.881"/>
				<line class="st3" x1="-255.6217" y1="169.7719" x2="547.3089" y2="169.7719"/>
				<line class="st3" x1="-255.6217" y1="119.6641" x2="547.3089" y2="119.6641"/>
				<line class="st3" x1="-255.6217" y1="69.5585" x2="547.3089" y2="69.5585"/>
				<line class="st3" x1="-255.6217" y1="19.4525" x2="547.3089" y2="19.4525"/>
			</g>
			<g id="Vertical_5_mm">
				<line class="st3" x1="-254.384" y1="520.4741" x2="-254.384" y2="-82.0018"/>
				<line class="st3" x1="-204.2782" y1="520.4741" x2="-204.2782" y2="-82.0018"/>
				<line class="st3" x1="-154.1708" y1="520.4741" x2="-154.1708" y2="-82.0018"/>
				<line class="st3" x1="-104.0648" y1="520.4741" x2="-104.0648" y2="-82.0018"/>
				<line class="st3" x1="-53.9557" y1="520.4741" x2="-53.9557" y2="-82.0018"/>
				<line class="st3" x1="-3.848" y1="520.4741" x2="-3.848" y2="-82.0018"/>
				<line class="st3" x1="46.2577" y1="520.4741" x2="46.2577" y2="-82.0018"/>
				<line class="st3" x1="96.3636" y1="520.4741" x2="96.3636" y2="-82.0018"/>
				<line class="st3" x1="146.4693" y1="520.4741" x2="146.4693" y2="-82.0018"/>
				<line class="st3" x1="196.5802" y1="520.4741" x2="196.5802" y2="-82.0018"/>
				<line class="st3" x1="246.6861" y1="520.4741" x2="246.6861" y2="-82.0018"/>
				<line class="st3" x1="296.7917" y1="520.4741" x2="296.7917" y2="-82.0018"/>
				<line class="st3" x1="346.8995" y1="520.4741" x2="346.8995" y2="-82.0018"/>
				<line class="st3" x1="397.0087" y1="520.4741" x2="397.0087" y2="-82.0018"/>
				<line class="st3" x1="447.1146" y1="520.4741" x2="447.1146" y2="-82.0018"/>
				<line class="st3" x1="497.222" y1="520.4741" x2="497.222" y2="-82.0018"/>
				<line class="st3" x1="547.3276" y1="520.4741" x2="547.3276" y2="-82.0018"/>
			</g>
			<g id="Horizontal_10_mm">
				<line id="_x31_9_1_" class="st4" x1="-255.6217" y1="520.5229" x2="547.3089" y2="520.5229"/>
				<line id="_x32_0" class="st4" x1="-255.6217" y1="420.3095" x2="547.3089" y2="420.3095"/>
				<line id="_x32_1" class="st4" x1="-255.6217" y1="320.0944" x2="547.3089" y2="320.0944"/>
				<line id="_x32_2" class="st4" x1="-255.6217" y1="219.881" x2="547.3089" y2="219.881"/>
				<line id="_x32_3" class="st4" x1="-255.6217" y1="119.6641" x2="547.3089" y2="119.6641"/>
				<line id="_x32_4" class="st4" x1="-255.6217" y1="19.4525" x2="547.3089" y2="19.4525"/>
				<line id="_x32_5" class="st4" x1="-255.6217" y1="-80.7641" x2="547.3089" y2="-80.7641"/>
			</g>
			<g id="Vertical_10_mm">
				<line id="_x30_" class="st4" x1="-254.384" y1="520.4741" x2="-254.384" y2="-82.0018"/>
				<line id="_x31_" class="st4" x1="-154.1708" y1="520.4741" x2="-154.1708" y2="-82.0018"/>
				<line id="_x32_" class="st4" x1="-53.9557" y1="520.4741" x2="-53.9557" y2="-82.0018"/>
				<line id="_x33_" class="st4" x1="46.2577" y1="520.4741" x2="46.2577" y2="-82.0018"/>
				<line id="_x34_" class="st4" x1="146.4693" y1="520.4741" x2="146.4693" y2="-82.0018"/>
				<line id="_x35_" class="st4" x1="246.6861" y1="520.4741" x2="246.6861" y2="-82.0018"/>
				<line id="_x36_" class="st4" x1="346.8995" y1="520.4741" x2="346.8995" y2="-82.0018"/>
				<line id="_x37_" class="st4" x1="447.1146" y1="520.4741" x2="447.1146" y2="-82.0018"/>
				<line id="_x38_" class="st4" x1="547.3276" y1="520.4741" x2="547.3276" y2="-82.0018"/>
			</g>
		</g>
	</g>
</g>
<g id="kirchhoff_x23_2b" class="st5">
	<g class="st6">
		<g>
			<path class="st7" d="M239.705,124.1295c0,32.406,27.5599,58.6763,61.5568,58.6763s61.5568-26.2703,61.5568-58.6763
				s-27.5599-58.6762-61.5568-58.6762c-32.5888,0-59.2628,24.1392-61.4165,54.6827"/>
			<g>
				<polygon class="st8" points="226.7025,106.2349 229.6831,104.0658 240.3528,118.7606 254.2307,107.0443 256.606,109.8633 
					239.7014,124.1291 				"/>
			</g>
		</g>
	</g>
	<g class="st9">
		<g>
			<line class="st10" x1="344.5813" y1="69.4187" x2="251.4044" y2="69.4187"/>
			<g>
				<polygon points="252.8634,64.4324 244.2282,69.4187 252.8634,74.405 				"/>
			</g>
		</g>
	</g>
	<g class="st9">
		<g>
			<line class="st10" x1="239.705" y1="76.1826" x2="239.705" y2="162.5957"/>
			<g>
				<polygon points="234.7186,161.1367 239.705,169.7719 244.6913,161.1367 				"/>
			</g>
		</g>
	</g>
</g>
<g id="kirchhoff_x23_2a">
	<g>
		<g>
			<line class="st10" x1="77.9126" y1="69.4187" x2="171.0895" y2="69.4187"/>
			<g>
				<polygon points="169.6305,74.405 178.2658,69.4187 169.6305,64.4324 				"/>
			</g>
		</g>
	</g>
	<g>
		<g>
			<line class="st10" x1="186.5578" y1="76.1826" x2="186.5578" y2="162.5957"/>
			<g>
				<polygon points="181.5715,161.1367 186.5578,169.7719 191.5441,161.1367 				"/>
			</g>
		</g>
	</g>
	<g>
		<g>
			<line class="st10" x1="72.6536" y1="74.637" x2="72.6536" y2="162.5957"/>
			<g>
				<polygon points="67.6673,161.1367 72.6536,169.7719 77.6399,161.1367 				"/>
			</g>
		</g>
	</g>
	<g>
		<g>
			<line class="st10" x1="353.1534" y1="169.7719" x2="353.1534" y2="83.3589"/>
			<g>
				<polygon points="358.1397,84.8178 353.1534,76.1826 348.167,84.8178 				"/>
			</g>
		</g>
	</g>
	<g class="st11">
		<g>
			<path class="st7" d="M189.0428,124.1295c0,32.406-27.5599,58.6763-61.5568,58.6763s-61.5568-26.2703-61.5568-58.6763
				s27.5599-58.6762,61.5568-58.6762c32.5888,0,59.2628,24.1392,61.4164,54.6827"/>
			<g>
				<polygon class="st8" points="172.1382,109.8637 174.5135,107.0447 188.3879,118.7615 199.0612,104.0662 202.0417,106.2353 
					189.0393,124.1299 				"/>
			</g>
		</g>
	</g>
	<g class="st12">
		<path d="M135.2501,75.5493c-0.5527,0.0234-0.9365,0.3115-1.3447,0.96L124.9532,91.27h-0.4561l-1.9688-12.0723
			c-0.5518-3.3604-0.624-3.4805-1.9678-3.6484v-0.3848h5.7607v0.3848c-1.5127,0.168-1.8242,0.4082-1.8242,1.2236
			c0,0.1201,0,0.2402,0.0234,0.3604l1.5605,10.6328l5.04-8.6406c0.7441-1.2725,1.1768-2.3047,1.1768-2.7607
			s-0.4082-0.6953-1.4883-0.8154v-0.3848h4.4404V75.5493z"/>
		<path d="M139.0538,89.3716c0.042,0,0.0693,0.042,0.0693,0.0977c0,0.0703-0.0273,0.21-0.084,0.4062l-2.001,7.2617
			c-0.0977,0.3496-0.252,0.8955-0.252,1.0361c0,0.3213,0.3086,0.4473,0.9238,0.4473h0.2939v0.21h-3.9043v-0.21
			c1.1055-0.084,1.4141-0.2373,1.5674-0.7695l1.9033-6.8281c0.0693-0.2656,0.1113-0.4062,0.1113-0.5039
			c0-0.2656-0.1816-0.4336-0.4893-0.4336h-0.042c-0.252,0-0.5596,0.0137-0.8252,0.0283v-0.21l0.3213-0.0703
			c1.2314-0.2656,1.2871-0.2383,2.3652-0.4619H139.0538z"/>
	</g>
	<g class="st12">
		<path d="M178.6817,107.6885c-0.5527,0.0234-0.9365,0.3115-1.3447,0.96l-8.9521,14.7603h-0.4561l-1.9688-12.0718
			c-0.5518-3.3604-0.624-3.4805-1.9678-3.6484v-0.3848h5.7607v0.3848c-1.5127,0.168-1.8242,0.4082-1.8242,1.2236
			c0,0.1201,0,0.2402,0.0234,0.3604l1.5605,10.6323l5.04-8.6401c0.7441-1.2725,1.1768-2.3047,1.1768-2.7607
			s-0.4082-0.6953-1.4883-0.8154v-0.3848h4.4404V107.6885z"/>
		<path d="M179.0987,122.9653c0.4619-1.0068,1.3574-1.4551,2.3926-1.4551c1.0918,0,1.8477,0.7002,1.8477,1.707
			c0,1.0352-0.5742,1.5811-2.1689,2.1406v0.042c0.9512,0.3643,1.3291,0.9941,1.3291,2.0156c0,1.1055-0.5039,2.085-1.3018,2.7842
			c-0.6855,0.6016-1.5811,0.8672-2.5879,0.8672c-1.0078,0-1.5537-0.3359-1.5537-0.7969c0-0.3506,0.2383-0.6025,0.6016-0.6025
			c0.2666,0,0.5186,0.084,0.8955,0.4199c0.3643,0.3223,0.7275,0.4482,0.9941,0.4482c0.4609,0,0.9512-0.252,1.3008-0.6436
			c0.3643-0.4336,0.5322-1.1055,0.5322-1.7637c0-1.5107-0.8955-2.21-2.2393-2.21h-0.3359v-0.2246
			c1.2598-0.2236,1.8477-0.4199,2.4492-0.8389c0.5869-0.4062,0.8672-0.8955,0.8672-1.4834c0-0.7695-0.4893-1.2734-1.2314-1.2734
			c-0.6016,0-1.0635,0.2803-1.5674,0.9375L179.0987,122.9653z"/>
	</g>
</g>
<g id="kirchhoff_x23_1">
	<g class="st12">
		<path class="st13" d="M189.7178,15.9453c-1.3438,0.1685-1.5605,0.3843-1.9678,1.8486l-2.8809,10.2969
			c-0.2158,0.7681-0.3594,1.3438-0.3594,1.8237c0,0.6724,0.2871,0.7681,1.6553,0.936v0.3843h-5.8564v-0.3843
			c1.3203-0.2397,1.6562-0.4556,2.0166-1.7998l2.8799-10.585c0.168-0.6001,0.3125-1.104,0.3125-1.4883
			c0-0.6001-0.3838-0.96-1.7285-1.0322v-0.3838h5.9287V15.9453z"/>
		<path class="st13" d="M194.1466,29.7681c0.042,0,0.0693,0.042,0.0693,0.0981c0,0.0698-0.0273,0.21-0.084,0.4058l-2.001,7.2622
			c-0.0977,0.3496-0.252,0.8955-0.252,1.0352c0,0.3218,0.3086,0.4478,0.9238,0.4478h0.2939v0.21h-3.9043v-0.21
			c1.1055-0.084,1.4141-0.2378,1.5674-0.7695l1.9033-6.8281c0.0693-0.2661,0.1113-0.4058,0.1113-0.5039
			c0-0.2656-0.1816-0.4336-0.4893-0.4336h-0.042c-0.252,0-0.5596,0.0142-0.8252,0.0278v-0.21l0.3213-0.0698
			c1.2314-0.2656,1.2871-0.2378,2.3652-0.4619H194.1466z"/>
	</g>
	<g>
		<g>
			<line class="st14" x1="192.4757" y1="49.6278" x2="175.3098" y2="49.6278"/>
			<g>
				<path class="st13" d="M185.6414,44.828c-0.1484,0.2324-0.0796,0.542,0.1533,0.6904l6.4526,4.1094l-6.4526,4.1094
					c-0.2329,0.1484-0.3018,0.458-0.1533,0.6904c0.1484,0.2325,0.4595,0.2998,0.6904,0.1534l7.1148-4.5312
					c0.144-0.0918,0.2314-0.251,0.2314-0.4219s-0.0874-0.3301-0.2314-0.4219l-7.1148-4.5313
					c-0.083-0.0527-0.1763-0.0781-0.2681-0.0781C185.8987,44.5965,185.7371,44.6786,185.6414,44.828z"/>
			</g>
		</g>
	</g>
	<g>
		<g>
			<line class="st14" x1="234.2835" y1="49.7723" x2="251.4494" y2="49.7723"/>
			<g>
				<path class="st13" d="M241.1178,54.5721c0.1484-0.2324,0.0796-0.542-0.1533-0.6904l-6.4526-4.1094l6.4526-4.1094
					c0.2329-0.1484,0.3018-0.458,0.1533-0.6904s-0.4595-0.2998-0.6904-0.1533l-7.1148,4.5312
					c-0.144,0.0918-0.2314,0.251-0.2314,0.4219s0.0874,0.3301,0.2314,0.4219l7.1148,4.5312
					c0.083,0.0527,0.1763,0.0781,0.2681,0.0781C240.8605,54.8035,241.0221,54.7215,241.1178,54.5721z"/>
			</g>
		</g>
	</g>
	<g>
		<g>
			<line class="st14" x1="214.0122" y1="73.435" x2="214.0123" y2="56.2692"/>
			<g>
				<path class="st13" d="M218.8121,66.6007c-0.2324-0.1484-0.542-0.0796-0.6904,0.1533l-4.1094,6.4526l-4.1093-6.4526
					c-0.1484-0.2329-0.458-0.3018-0.6904-0.1534c-0.2324,0.1485-0.2998,0.4595-0.1533,0.6904l4.5312,7.1148
					c0.0918,0.144,0.251,0.2314,0.4219,0.2314s0.3301-0.0874,0.4219-0.2314l4.5313-7.1148c0.0527-0.083,0.0781-0.1763,0.0781-0.2681
					C219.0435,66.858,218.9615,66.6964,218.8121,66.6007z"/>
			</g>
		</g>
	</g>
	<g class="st12">
		<path class="st13" d="M238.0714,15.9453c-1.3438,0.1685-1.5605,0.3843-1.9678,1.8486l-2.8809,10.2969
			c-0.2158,0.7681-0.3594,1.3438-0.3594,1.8237c0,0.6724,0.2871,0.7681,1.6553,0.936v0.3843h-5.8564v-0.3843
			c1.3203-0.2397,1.6562-0.4556,2.0166-1.7998l2.8799-10.585c0.168-0.6001,0.3125-1.104,0.3125-1.4883
			c0-0.6001-0.3838-0.96-1.7285-1.0322v-0.3838h5.9287V15.9453z"/>
		<path class="st13" d="M237.9659,32.0352c0.3359-0.8257,0.6582-1.3013,1.1475-1.6792c0.5459-0.4199,1.1475-0.5879,1.791-0.5879
			c1.3438,0,2.2666,1.0356,2.2666,2.3647c0,0.9375-0.4336,1.5811-2.085,3.2744l-2.6299,2.6865v0.0698h2.5322
			c0.8252,0,1.1055-0.21,1.4414-0.9097l0.2373,0.0981l-0.6992,1.875h-4.9531v-0.2378l2.9385-3.1343
			c0.9229-0.9795,1.5527-1.8608,1.8887-2.6167c0.084-0.1816,0.126-0.4478,0.126-0.7554c0-0.9658-0.5596-1.6934-1.665-1.6934
			c-0.8398,0-1.5527,0.4058-2.043,1.3433L237.9659,32.0352z"/>
	</g>
	<g class="st12">
		<path class="st13" d="M230.7921,64.5342c-1.3438,0.1685-1.5605,0.3843-1.9678,1.8486l-2.8809,10.2969
			c-0.2158,0.7681-0.3594,1.3438-0.3594,1.8237c0,0.6724,0.2871,0.7681,1.6553,0.936v0.3843h-5.8564v-0.3843
			c1.3203-0.2397,1.6562-0.4556,2.0166-1.7998l2.8799-10.585c0.168-0.6001,0.3125-1.104,0.3125-1.4883
			c0-0.6001-0.3838-0.96-1.7285-1.0322v-0.3838h5.9287V64.5342z"/>
		<path class="st13" d="M235.2208,78.3569c0.042,0,0.0693,0.042,0.0693,0.0981c0,0.0698-0.0273,0.21-0.084,0.4058l-2.001,7.2622
			c-0.0977,0.3496-0.252,0.8955-0.252,1.0352c0,0.3218,0.3086,0.4478,0.9238,0.4478h0.2939v0.21h-3.9043v-0.21
			c1.1055-0.084,1.4141-0.2378,1.5674-0.7695l1.9033-6.8281c0.0693-0.2661,0.1113-0.4058,0.1113-0.5039
			c0-0.2656-0.1816-0.4336-0.4893-0.4336h-0.042c-0.252,0-0.5596,0.0142-0.8252,0.0278v-0.21l0.3213-0.0698
			c1.2314-0.2656,1.2871-0.2378,2.3652-0.4619H235.2208z"/>
		<path class="st13" d="M241.755,84.7378v3.0781h-0.9238v-3.0781h-3.0645V83.814h3.0645v-3.0781h0.9238v3.0781h3.0645v0.9238
			H241.755z"/>
		<path class="st13" d="M255.2247,64.5342c-1.3438,0.1685-1.5605,0.3843-1.9678,1.8486l-2.8809,10.2969
			c-0.2158,0.7681-0.3594,1.3438-0.3594,1.8237c0,0.6724,0.2871,0.7681,1.6553,0.936v0.3843h-5.8564v-0.3843
			c1.3203-0.2397,1.6562-0.4556,2.0166-1.7998l2.8799-10.585c0.168-0.6001,0.3125-1.104,0.3125-1.4883
			c0-0.6001-0.3838-0.96-1.7285-1.0322v-0.3838h5.9287V64.5342z"/>
		<path class="st13" d="M255.1182,80.624c0.3359-0.8257,0.6582-1.3013,1.1475-1.6792c0.5459-0.4199,1.1475-0.5879,1.791-0.5879
			c1.3438,0,2.2666,1.0356,2.2666,2.3647c0,0.9375-0.4336,1.5811-2.085,3.2744l-2.6299,2.6865v0.0698h2.5322
			c0.8252,0,1.1055-0.21,1.4414-0.9097l0.2373,0.0981l-0.6992,1.875h-4.9531v-0.2378l2.9385-3.1343
			c0.9229-0.9795,1.5527-1.8608,1.8887-2.6167c0.084-0.1816,0.126-0.4478,0.126-0.7554c0-0.9658-0.5596-1.6934-1.665-1.6934
			c-0.8398,0-1.5527,0.4058-2.043,1.3433L255.1182,80.624z"/>
	</g>
</g>
<g id="schematic">
	<line class="st15" x1="45.9477" y1="49.6278" x2="45.9476" y2="76.1827"/>
	<g>
		<line class="st16" x1="172.972" y1="49.628" x2="151.3633" y2="49.628"/>
		<line class="st16" x1="86.5371" y1="49.6281" x2="108.1459" y2="49.6281"/>
		<line class="st17" x1="151.3633" y1="42.065" x2="108.1459" y2="42.065"/>
		<line class="st17" x1="108.1459" y1="57.1911" x2="151.3633" y2="57.1911"/>
		<line class="st17" x1="108.1459" y1="42.065" x2="108.1459" y2="57.1911"/>
		<line class="st17" x1="151.3633" y1="42.065" x2="151.3633" y2="57.1911"/>
	</g>
	<line class="st15" x1="45.9477" y1="49.6278" x2="86.5371" y2="49.6279"/>
	<g>
		<line class="st16" x1="341.4874" y1="49.628" x2="319.8787" y2="49.628"/>
		<line class="st16" x1="255.0525" y1="49.6281" x2="276.6612" y2="49.6281"/>
		<line class="st17" x1="319.8787" y1="42.065" x2="276.6612" y2="42.065"/>
		<line class="st17" x1="276.6612" y1="57.1911" x2="319.8787" y2="57.1911"/>
		<line class="st17" x1="276.6612" y1="42.065" x2="276.6612" y2="57.1911"/>
		<line class="st17" x1="319.8787" y1="42.065" x2="319.8787" y2="57.1911"/>
	</g>
	<line class="st15" x1="341.8986" y1="49.6278" x2="382.4881" y2="49.6279"/>
	<g>
		<line class="st15" x1="382.6883" y1="190.0698" x2="382.7112" y2="163.515"/>
		<g>
			<g class="st12">
				<path class="st18" d="M387.4981,148.2739l2.7998,0.002l0.0029-2.7783l1.1699,0.001l-0.0029,2.7783l2.7783,0.0029v1.1836
					l-2.7793-0.0029l-0.002,2.7793l-1.1699-0.001l0.002-2.7793l-2.7998-0.002L387.4981,148.2739z"/>
			</g>
			<line class="st19" x1="382.7855" y1="76.7798" x2="382.767" y2="98.3885"/>
			<g class="st12">
				<path class="st18" d="M386.1358,93.6948l6.7412,0.0059l-0.002,1.1699l-6.7412-0.0059L386.1358,93.6948z"/>
			</g>
			<line class="st20" x1="388.1553" y1="114.5997" x2="382.7531" y2="114.595"/>
			<line class="st19" x1="382.767" y1="98.3885" x2="382.7531" y2="114.595"/>
			<line class="st20" x1="382.7531" y1="114.595" x2="377.3509" y2="114.5904"/>
			<line class="st20" x1="404.3525" y1="125.4179" x2="382.7438" y2="125.3994"/>
			<line class="st19" x1="382.7438" y1="125.3994" x2="382.7111" y2="163.515"/>
			<line class="st20" x1="382.7438" y1="125.3994" x2="361.1351" y2="125.3808"/>
		</g>
		<line class="st21" x1="382.7859" y1="76.3276" x2="382.8087" y2="49.7727"/>
	</g>
	<line class="st15" x1="173.3833" y1="49.6278" x2="213.9727" y2="49.6279"/>
	<line class="st15" x1="214.0123" y1="49.6278" x2="214.0122" y2="76.1827"/>
	<line class="st15" x1="214.463" y1="49.6278" x2="255.0525" y2="49.6279"/>
	<circle class="st13" cx="214.0127" cy="49.7723" r="2"/>
	<g>
		<line class="st19" x1="214.0123" y1="162.918" x2="214.0123" y2="141.3092"/>
		<line class="st19" x1="214.0123" y1="76.483" x2="214.0123" y2="98.0917"/>
		<line class="st22" x1="221.5753" y1="141.3092" x2="221.5753" y2="98.0917"/>
		<line class="st22" x1="206.4492" y1="98.0917" x2="206.4492" y2="141.3092"/>
		<line class="st22" x1="221.5753" y1="98.0917" x2="206.4492" y2="98.0917"/>
		<line class="st22" x1="221.5753" y1="141.3092" x2="206.4492" y2="141.3092"/>
	</g>
	<g class="st12">
		<path class="st23" d="M128.2647,11.6919c3.168,0,4.8965,1.3447,4.8965,3.3848c0,1.1523-0.6006,2.3281-1.584,3.0723
			c-0.7441,0.5762-1.5361,0.8643-3.1445,1.2236l2.1367,5.6406c0.5273,1.416,1.0078,1.9688,2.0879,1.9688v0.3838h-3.5283
			l-2.9521-7.7764l-1.584-0.1201l-1.3203,4.8721c-0.2646,0.9365-0.3125,1.2725-0.3125,1.5127c0,0.7197,0.2402,0.9834,1.6084,1.1279
			v0.3838h-5.833v-0.3838c1.3203-0.168,1.6562-0.624,2.041-2.04l2.8555-10.3457c0.168-0.6475,0.2881-1.1035,0.2881-1.5117
			c0-0.2637-0.168-0.5518-0.3359-0.6719c-0.2637-0.168-0.3594-0.1924-1.3682-0.3359v-0.3848H128.2647z M124.88,18.5806
			c0.6006,0.0967,0.793,0.1201,1.2246,0.1201c2.8564,0,4.5361-1.3682,4.5361-3.5996c0-1.6562-1.0078-2.6885-2.8799-2.6885
			c-0.7441,0-1.248,0.2637-1.3682,0.7197L124.88,18.5806z"/>
		<path class="st23" d="M139.3653,25.8989c0.042,0,0.0693,0.042,0.0693,0.0977c0,0.0703-0.0273,0.21-0.084,0.4062l-2.001,7.2617
			c-0.0977,0.3496-0.252,0.8955-0.252,1.0361c0,0.3213,0.3086,0.4473,0.9238,0.4473h0.2939v0.21h-3.9043v-0.21
			c1.1055-0.084,1.4141-0.2373,1.5674-0.7695l1.9033-6.8281c0.0693-0.2656,0.1113-0.4062,0.1113-0.5039
			c0-0.2656-0.1816-0.4336-0.4893-0.4336h-0.042c-0.252,0-0.5596,0.0137-0.8252,0.0283v-0.21l0.3213-0.0703
			c1.2314-0.2656,1.2871-0.2383,2.3652-0.4619H139.3653z"/>
	</g>
	<line class="st24" x1="213.54" y1="189.9253" x2="45.9692" y2="189.9253"/>
	<g>
		<g class="st12">
			<path class="st18" d="M41.2677,91.4927h-2.7998v2.7783h-1.1699v-2.7783h-2.7783v-1.1836h2.7783v-2.7793h1.1699v2.7793h2.7998
				V91.4927z"/>
		</g>
		<line class="st19" x1="45.9477" y1="162.918" x2="45.9477" y2="141.3092"/>
		<g class="st12">
			<path class="st18" d="M42.6778,146.0708h-6.7412v-1.1699h6.7412V146.0708z"/>
		</g>
		<line class="st20" x1="40.5455" y1="125.1027" x2="45.9477" y2="125.1027"/>
		<line class="st19" x1="45.9477" y1="141.3092" x2="45.9477" y2="125.1027"/>
		<line class="st20" x1="45.9477" y1="125.1027" x2="51.3499" y2="125.1027"/>
		<line class="st20" x1="24.339" y1="114.2983" x2="45.9477" y2="114.2983"/>
		<line class="st19" x1="45.9477" y1="114.2983" x2="45.9477" y2="76.1827"/>
		<line class="st20" x1="45.9477" y1="114.2983" x2="67.5564" y2="114.2983"/>
	</g>
	<line class="st21" x1="45.9477" y1="163.3702" x2="45.9476" y2="189.925"/>
	<line class="st21" x1="214.0124" y1="163.3702" x2="214.0123" y2="189.925"/>
	<line class="st24" x1="382.7484" y1="190.0698" x2="214.2483" y2="189.9252"/>
	<g class="st12">
		<path class="st23" d="M237.8311,111.312c3.168,0,4.8965,1.3447,4.8965,3.3848c0,1.1523-0.6006,2.3281-1.584,3.0723
			c-0.7441,0.5762-1.5361,0.8643-3.1445,1.2236l2.1367,5.6406c0.5273,1.416,1.0078,1.9688,2.0879,1.9688v0.3838h-3.5283
			l-2.9521-7.7764l-1.584-0.1201l-1.3203,4.8721c-0.2646,0.9365-0.3125,1.2725-0.3125,1.5127c0,0.7197,0.2402,0.9834,1.6084,1.1279
			v0.3838h-5.833v-0.3838c1.3203-0.168,1.6562-0.624,2.041-2.04l2.8555-10.3457c0.168-0.6475,0.2881-1.1035,0.2881-1.5117
			c0-0.2637-0.168-0.5518-0.3359-0.6719c-0.2637-0.168-0.3594-0.1924-1.3682-0.3359v-0.3848H237.8311z M234.4464,118.2007
			c0.6006,0.0967,0.793,0.1201,1.2246,0.1201c2.8564,0,4.5361-1.3682,4.5361-3.5996c0-1.6562-1.0078-2.6885-2.8799-2.6885
			c-0.7441,0-1.248,0.2637-1.3682,0.7197L234.4464,118.2007z"/>
		<path class="st23" d="M245.545,126.9741c0.4619-1.0068,1.3574-1.4551,2.3926-1.4551c1.0918,0,1.8477,0.7002,1.8477,1.707
			c0,1.0352-0.5742,1.5811-2.1689,2.1406v0.042c0.9512,0.3643,1.3291,0.9941,1.3291,2.0156c0,1.1055-0.5039,2.085-1.3018,2.7842
			c-0.6855,0.6016-1.5811,0.8672-2.5879,0.8672c-1.0078,0-1.5537-0.3359-1.5537-0.7969c0-0.3506,0.2383-0.6025,0.6016-0.6025
			c0.2666,0,0.5186,0.084,0.8955,0.4199c0.3643,0.3223,0.7275,0.4482,0.9941,0.4482c0.4609,0,0.9512-0.252,1.3008-0.6436
			c0.3643-0.4336,0.5322-1.1055,0.5322-1.7637c0-1.5107-0.8955-2.21-2.2393-2.21h-0.3359v-0.2246
			c1.2598-0.2236,1.8477-0.4199,2.4492-0.8389c0.5869-0.4062,0.8672-0.8955,0.8672-1.4834c0-0.7695-0.4893-1.2734-1.2314-1.2734
			c-0.6016,0-1.0635,0.2803-1.5674,0.9375L245.545,126.9741z"/>
	</g>
	<g class="st12">
		<path d="M95.7393,113.6714c-0.5527,0.0234-0.9365,0.3115-1.3447,0.96l-8.9521,14.7607h-0.4561l-1.9688-12.0723
			c-0.5518-3.3604-0.624-3.4805-1.9678-3.6484v-0.3848h5.7607v0.3848c-1.5127,0.168-1.8242,0.4082-1.8242,1.2236
			c0,0.1201,0,0.2402,0.0234,0.3604l1.5605,10.6328l5.04-8.6406c0.7441-1.2725,1.1768-2.3047,1.1768-2.7607
			s-0.4082-0.6953-1.4883-0.8154v-0.3848h4.4404V113.6714z"/>
		<path d="M96.1847,132.895c0.9512-1.5811,1.7207-2.1133,2.7002-2.1133c0.9375,0,1.623,0.6016,1.623,1.6797
			c0,2.2109-2.3086,4.6455-4.4775,4.6455c-0.7969,0-1.8184-0.3223-1.8184-0.7422v-0.084l1.9863-7.3174
			c0.084-0.3359,0.126-0.5322,0.126-0.6582c0-0.3076-0.0703-0.3213-0.8955-0.3496v-0.2383
			c0.9375-0.1113,1.4414-0.1953,2.1406-0.3213l0.0703,0.0703l-0.2939,1.1465L96.17,132.895H96.1847z M98.339,131.4673
			c-0.6709,0-1.3145,0.5879-1.917,1.6094c-0.6152,1.0352-1.0068,2.3926-1.0068,3.2324c0,0.3213,0.21,0.4756,0.6436,0.4756
			c0.6016,0,1.2031-0.2939,1.7207-0.8252c0.8398-0.8682,1.5391-2.2529,1.5391-3.2881
			C99.3184,131.8179,98.9552,131.4673,98.339,131.4673z"/>
		<path d="M106.5391,127.4937c0.042,0,0.0693,0.042,0.0693,0.0977c0,0.0703-0.0273,0.21-0.084,0.4062l-2.001,7.2617
			c-0.0977,0.3496-0.252,0.8955-0.252,1.0361c0,0.3213,0.3086,0.4473,0.9238,0.4473h0.2939v0.21h-3.9043v-0.21
			c1.1055-0.084,1.4141-0.2373,1.5674-0.7695l1.9033-6.8281c0.0693-0.2656,0.1113-0.4062,0.1113-0.5039
			c0-0.2656-0.1816-0.4336-0.4893-0.4336h-0.042c-0.252,0-0.5596,0.0137-0.8252,0.0283v-0.21l0.3213-0.0703
			c1.2314-0.2656,1.2871-0.2383,2.3652-0.4619H106.5391z"/>
	</g>
	<g class="st12">
		<path d="M338.463,113.6714c-0.5527,0.0234-0.9365,0.3115-1.3447,0.96l-8.9521,14.7607h-0.4561l-1.9688-12.0723
			c-0.5518-3.3604-0.624-3.4805-1.9678-3.6484v-0.3848h5.7607v0.3848c-1.5127,0.168-1.8242,0.4082-1.8242,1.2236
			c0,0.1201,0,0.2402,0.0234,0.3604l1.5605,10.6328l5.04-8.6406c0.7441-1.2725,1.1768-2.3047,1.1768-2.7607
			s-0.4082-0.6953-1.4883-0.8154v-0.3848h4.4404V113.6714z"/>
		<path d="M338.9083,132.895c0.9512-1.5811,1.7207-2.1133,2.7002-2.1133c0.9375,0,1.623,0.6016,1.623,1.6797
			c0,2.2109-2.3086,4.6455-4.4775,4.6455c-0.7969,0-1.8184-0.3223-1.8184-0.7422v-0.084l1.9863-7.3174
			c0.084-0.3359,0.126-0.5322,0.126-0.6582c0-0.3076-0.0703-0.3213-0.8955-0.3496v-0.2383
			c0.9375-0.1113,1.4414-0.1953,2.1406-0.3213l0.0703,0.0703l-0.2939,1.1465l-1.1758,4.2822H338.9083z M341.0626,131.4673
			c-0.6709,0-1.3145,0.5879-1.917,1.6094c-0.6152,1.0352-1.0068,2.3926-1.0068,3.2324c0,0.3213,0.21,0.4756,0.6436,0.4756
			c0.6016,0,1.2031-0.2939,1.7207-0.8252c0.8398-0.8682,1.5391-2.2529,1.5391-3.2881
			C342.0421,131.8179,341.6788,131.4673,341.0626,131.4673z"/>
		<path d="M344.7286,129.7603c0.3359-0.8252,0.6582-1.3008,1.1475-1.6787c0.5459-0.4199,1.1475-0.5879,1.791-0.5879
			c1.3438,0,2.2666,1.0352,2.2666,2.3652c0,0.9375-0.4336,1.5811-2.085,3.2734l-2.6299,2.6865v0.0703h2.5322
			c0.8252,0,1.1055-0.21,1.4414-0.9092l0.2373,0.0977l-0.6992,1.875h-4.9531v-0.2383l2.9385-3.1338
			c0.9229-0.9795,1.5527-1.8613,1.8887-2.6162c0.084-0.1826,0.126-0.4482,0.126-0.7559c0-0.9658-0.5596-1.6934-1.665-1.6934
			c-0.8398,0-1.5527,0.4062-2.043,1.3438L344.7286,129.7603z"/>
	</g>
	<g class="st12">
		<path class="st23" d="M297.8839,11.6919c3.168,0,4.8965,1.3447,4.8965,3.3848c0,1.1523-0.6006,2.3281-1.584,3.0723
			c-0.7441,0.5762-1.5361,0.8643-3.1445,1.2236l2.1367,5.6406c0.5273,1.416,1.0078,1.9688,2.0879,1.9688v0.3838h-3.5283
			l-2.9521-7.7764l-1.584-0.1201l-1.3203,4.8721c-0.2646,0.9365-0.3125,1.2725-0.3125,1.5127c0,0.7197,0.2402,0.9834,1.6084,1.1279
			v0.3838h-5.833v-0.3838c1.3203-0.168,1.6562-0.624,2.041-2.04l2.8555-10.3457c0.168-0.6475,0.2881-1.1035,0.2881-1.5117
			c0-0.2637-0.168-0.5518-0.3359-0.6719c-0.2637-0.168-0.3594-0.1924-1.3682-0.3359v-0.3848H297.8839z M294.4991,18.5806
			c0.6006,0.0967,0.793,0.1201,1.2246,0.1201c2.8564,0,4.5361-1.3682,4.5361-3.5996c0-1.6562-1.0078-2.6885-2.8799-2.6885
			c-0.7441,0-1.248,0.2637-1.3682,0.7197L294.4991,18.5806z"/>
		<path class="st23" d="M304.4503,28.1655c0.3359-0.8252,0.6582-1.3008,1.1475-1.6787c0.5459-0.4199,1.1475-0.5879,1.791-0.5879
			c1.3438,0,2.2666,1.0352,2.2666,2.3652c0,0.9375-0.4336,1.5811-2.085,3.2734l-2.6299,2.6865v0.0703h2.5322
			c0.8252,0,1.1055-0.21,1.4414-0.9092l0.2373,0.0977l-0.6992,1.875h-4.9531v-0.2383l2.9385-3.1338
			c0.9229-0.9795,1.5527-1.8613,1.8887-2.6162c0.084-0.1826,0.126-0.4482,0.126-0.7559c0-0.9658-0.5596-1.6934-1.665-1.6934
			c-0.8398,0-1.5527,0.4062-2.043,1.3438L304.4503,28.1655z"/>
	</g>
	<g>
	</g>
	<g>
	</g>
	<g>
	</g>
</g>
</svg>
