<?xml version="1.0" encoding="utf-8"?>
<!-- Generator: Adobe Illustrator 15.0.0, SVG Export Plug-In . SVG Version: 6.00 Build 0)  -->
<!DOCTYPE svg PUBLIC "-//W3C//DTD SVG 1.0//EN" "http://www.w3.org/TR/2001/REC-SVG-20010904/DTD/svg10.dtd">
<svg version="1.0" id="Layer_1" xmlns="http://www.w3.org/2000/svg" xmlns:xlink="http://www.w3.org/1999/xlink" x="0px" y="0px"
	 width="168px" height="78.5px" viewBox="0 0 168 78.5" enable-background="new 0 0 168 78.5" xml:space="preserve">
<g>
	<defs>
		<rect id="SVGID_1_" x="-143.75" y="-126.75" width="612" height="792"/>
	</defs>
	<clipPath id="SVGID_2_">
		<use xlink:href="#SVGID_1_"  overflow="visible"/>
	</clipPath>
	<g clip-path="url(#SVGID_2_)">
		<path fill="#7C287D" d="M134.789,2.894c0.239-0.588,0.469-0.927,0.817-1.196c0.389-0.299,0.817-0.418,1.275-0.418
			c0.956,0,1.614,0.737,1.614,1.684c0,0.667-0.309,1.126-1.484,2.332l-1.874,1.913v0.05h1.804c0.588,0,0.787-0.149,1.026-0.647
			l0.169,0.07l-0.498,1.335h-3.527V7.846l2.093-2.232c0.657-0.697,1.106-1.325,1.346-1.863c0.06-0.129,0.089-0.319,0.089-0.538
			c0-0.688-0.398-1.206-1.186-1.206c-0.598,0-1.105,0.289-1.454,0.957L134.789,2.894z"/>
	</g>
	<g clip-path="url(#SVGID_2_)">
		<path d="M139.88,7.288c0.578,0.13,0.798,0.239,1.196,0.827c0.259,0.378,0.448,0.498,0.697,0.498c0.159,0,0.27-0.06,0.27-0.149
			c0-0.04-0.021-0.089-0.05-0.149c-0.061-0.12-0.08-0.199-0.08-0.279c0.01-0.169,0.169-0.339,0.329-0.339
			c0.209,0,0.349,0.149,0.349,0.369c0,0.398-0.369,0.757-0.927,0.757c-0.289,0-0.628-0.129-1.126-0.438
			c-0.469-0.289-0.787-0.418-1.046-0.418c-0.16,0-0.289,0.05-0.449,0.179l-0.089-0.089l3.089-3.707h-1.355
			c-0.519,0-0.707,0.089-0.907,0.598l-0.159-0.04l0.319-1.156h2.819v0.11L139.88,7.288z"/>
	</g>
	<g clip-path="url(#SVGID_2_)">
		<path fill="#7C287D" d="M149.955,5.823v2.192h-0.657V5.823h-2.183V5.166h2.183V2.973h0.657v2.192h2.183v0.658H149.955z"/>
		<path fill="#7C287D" d="M159.221,1.279c0.03,0,0.05,0.03,0.05,0.07c0,0.05-0.02,0.149-0.06,0.289l-1.425,5.171
			c-0.07,0.249-0.18,0.638-0.18,0.737c0,0.229,0.22,0.319,0.658,0.319h0.209v0.149h-2.78V7.866c0.787-0.06,1.007-0.169,1.116-0.548
			l1.355-4.863c0.05-0.189,0.079-0.289,0.079-0.358c0-0.189-0.129-0.309-0.349-0.309h-0.03c-0.179,0-0.398,0.01-0.588,0.02V1.658
			l0.229-0.05c0.877-0.189,0.917-0.169,1.684-0.329H159.221z"/>
		<path fill="#7C287D" d="M163.325,7.656c-0.408,0.289-0.837,0.429-1.255,0.429c-1.017,0-1.574-0.837-1.574-2.222
			c0-2.341,1.484-4.583,3.049-4.583c1.016,0,1.584,0.887,1.584,2.501C165.129,5.245,164.352,6.929,163.325,7.656z M163.505,1.559
			c-0.448,0-0.837,0.299-1.196,0.946c-0.518,0.937-1.025,2.89-1.025,3.956c0,0.847,0.328,1.345,0.807,1.345
			c0.458,0,0.917-0.338,1.285-0.996c0.578-1.017,0.967-2.661,0.967-3.956C164.342,2.057,164.103,1.559,163.505,1.559z"/>
	</g>
	
		<line clip-path="url(#SVGID_2_)" fill="none" stroke="#000000" stroke-width="0.398" stroke-miterlimit="10" x1="58.456" y1="11.8" x2="166.184" y2="11.8"/>
	<g clip-path="url(#SVGID_2_)">
		<path fill="#7F1416" d="M3.987,16.322c0.03,0,0.05,0.03,0.05,0.07c0,0.05-0.02,0.149-0.06,0.289l-1.425,5.171
			c-0.07,0.249-0.18,0.638-0.18,0.737c0,0.229,0.22,0.319,0.658,0.319H3.24v0.149H0.46v-0.149c0.787-0.06,1.007-0.169,1.116-0.548
			l1.355-4.863c0.05-0.189,0.079-0.289,0.079-0.358c0-0.189-0.129-0.309-0.349-0.309h-0.03c-0.179,0-0.398,0.01-0.588,0.02v-0.149
			l0.229-0.05c0.877-0.189,0.917-0.169,1.684-0.329H3.987z"/>
		<path d="M5.85,22.331c0.578,0.13,0.798,0.239,1.196,0.827c0.259,0.378,0.448,0.498,0.697,0.498c0.159,0,0.27-0.06,0.27-0.149
			c0-0.04-0.021-0.089-0.05-0.149c-0.061-0.12-0.08-0.199-0.08-0.279c0.01-0.169,0.169-0.339,0.329-0.339
			c0.209,0,0.349,0.149,0.349,0.369c0,0.398-0.369,0.757-0.927,0.757c-0.289,0-0.628-0.129-1.126-0.438
			c-0.469-0.289-0.787-0.418-1.046-0.418c-0.16,0-0.289,0.05-0.449,0.179l-0.089-0.089l3.089-3.707H6.657
			c-0.519,0-0.707,0.089-0.907,0.598l-0.159-0.04l0.319-1.156h2.819v0.11L5.85,22.331z"/>
	</g>
	<g clip-path="url(#SVGID_2_)">
		<path d="M10.592,15.858c0.168-0.411,0.328-0.648,0.572-0.836c0.271-0.209,0.571-0.293,0.893-0.293c0.669,0,1.13,0.516,1.13,1.178
			c0,0.467-0.217,0.788-1.039,1.632l-1.312,1.339v0.035h1.263c0.411,0,0.551-0.105,0.718-0.454l0.119,0.049l-0.35,0.935h-2.468
			v-0.119l1.464-1.562c0.461-0.488,0.774-0.927,0.941-1.304c0.042-0.091,0.063-0.223,0.063-0.377c0-0.481-0.278-0.844-0.829-0.844
			c-0.419,0-0.774,0.203-1.019,0.669L10.592,15.858z"/>
	</g>
	<g clip-path="url(#SVGID_2_)">
		<path fill="#7F1416" d="M17.573,20.866v-0.658h5.022v0.658H17.573z"/>
	</g>
	<g clip-path="url(#SVGID_2_)">
		<path fill="#7F1416" d="M27.476,17.937c0.239-0.588,0.469-0.927,0.817-1.196c0.389-0.299,0.817-0.418,1.275-0.418
			c0.956,0,1.614,0.737,1.614,1.684c0,0.667-0.309,1.126-1.484,2.332l-1.874,1.913v0.05h1.804c0.588,0,0.787-0.149,1.026-0.647
			l0.17,0.07l-0.499,1.335h-3.527v-0.169l2.093-2.232c0.658-0.697,1.106-1.325,1.346-1.863c0.06-0.129,0.089-0.319,0.089-0.538
			c0-0.688-0.398-1.206-1.186-1.206c-0.598,0-1.105,0.289-1.454,0.957L27.476,17.937z"/>
	</g>
	<g clip-path="url(#SVGID_2_)">
		<path d="M32.567,22.331c0.578,0.13,0.798,0.239,1.196,0.827c0.259,0.378,0.448,0.498,0.697,0.498c0.159,0,0.27-0.06,0.27-0.149
			c0-0.04-0.021-0.089-0.05-0.149c-0.061-0.12-0.08-0.199-0.08-0.279c0.01-0.169,0.169-0.339,0.329-0.339
			c0.209,0,0.349,0.149,0.349,0.369c0,0.398-0.369,0.757-0.927,0.757c-0.289,0-0.628-0.129-1.126-0.438
			c-0.469-0.289-0.787-0.418-1.046-0.418c-0.16,0-0.289,0.05-0.449,0.179l-0.089-0.089l3.089-3.707h-1.355
			c-0.519,0-0.707,0.089-0.907,0.598l-0.159-0.04l0.319-1.156h2.819v0.11L32.567,22.331z"/>
	</g>
	<g clip-path="url(#SVGID_2_)">
		<path fill="#7F1416" d="M42.643,20.866v2.192h-0.657v-2.192h-2.183v-0.658h2.183v-2.192h0.657v2.192h2.183v0.658H42.643z"/>
		<path fill="#7F1416" d="M51.908,16.322c0.03,0,0.05,0.03,0.05,0.07c0,0.05-0.02,0.149-0.06,0.289l-1.425,5.171
			c-0.07,0.249-0.18,0.638-0.18,0.737c0,0.229,0.22,0.319,0.658,0.319h0.209v0.149h-2.78v-0.149c0.787-0.06,1.007-0.169,1.116-0.548
			l1.355-4.863c0.05-0.189,0.079-0.289,0.079-0.358c0-0.189-0.129-0.309-0.349-0.309h-0.03c-0.179,0-0.398,0.01-0.588,0.02v-0.149
			l0.229-0.05c0.877-0.189,0.917-0.169,1.684-0.329H51.908z"/>
	</g>
	<g clip-path="url(#SVGID_2_)">
		<path fill="#808080" d="M71.43,17.937c0.239-0.588,0.469-0.927,0.817-1.196c0.389-0.299,0.817-0.418,1.275-0.418
			c0.956,0,1.614,0.737,1.614,1.684c0,0.667-0.309,1.126-1.484,2.332l-1.874,1.913v0.05h1.804c0.588,0,0.787-0.149,1.026-0.647
			l0.169,0.07l-0.498,1.335h-3.527v-0.169l2.093-2.232c0.657-0.697,1.106-1.325,1.346-1.863c0.06-0.129,0.089-0.319,0.089-0.538
			c0-0.688-0.398-1.206-1.186-1.206c-0.598,0-1.105,0.289-1.454,0.957L71.43,17.937z"/>
	</g>
	<g clip-path="url(#SVGID_2_)">
		<path d="M76.521,22.331c0.578,0.13,0.798,0.239,1.196,0.827c0.259,0.378,0.448,0.498,0.697,0.498c0.159,0,0.27-0.06,0.27-0.149
			c0-0.04-0.021-0.089-0.05-0.149c-0.061-0.12-0.08-0.199-0.08-0.279c0.01-0.169,0.169-0.339,0.329-0.339
			c0.209,0,0.349,0.149,0.349,0.369c0,0.398-0.369,0.757-0.927,0.757c-0.289,0-0.628-0.129-1.126-0.438
			c-0.469-0.289-0.787-0.418-1.046-0.418c-0.16,0-0.289,0.05-0.449,0.179l-0.089-0.089l3.089-3.707h-1.355
			c-0.519,0-0.707,0.089-0.907,0.598l-0.159-0.04l0.319-1.156H79.4v0.11L76.521,22.331z"/>
	</g>
	<g clip-path="url(#SVGID_2_)">
		<path d="M81.814,15.454c0.229-0.502,0.676-0.725,1.192-0.725c0.544,0,0.92,0.349,0.92,0.851c0,0.516-0.285,0.788-1.08,1.067v0.021
			c0.474,0.181,0.662,0.495,0.662,1.004c0,0.551-0.251,1.039-0.648,1.388c-0.342,0.3-0.788,0.432-1.29,0.432
			s-0.774-0.167-0.774-0.397c0-0.174,0.119-0.3,0.3-0.3c0.133,0,0.258,0.042,0.446,0.209c0.182,0.161,0.363,0.223,0.495,0.223
			c0.23,0,0.475-0.125,0.648-0.321c0.182-0.216,0.266-0.551,0.266-0.878c0-0.753-0.446-1.102-1.116-1.102h-0.167v-0.111
			c0.627-0.112,0.92-0.209,1.22-0.418c0.293-0.202,0.433-0.446,0.433-0.739c0-0.383-0.244-0.634-0.613-0.634
			c-0.3,0-0.53,0.139-0.781,0.467L81.814,15.454z"/>
	</g>
	<g clip-path="url(#SVGID_2_)">
		<path fill="#808080" d="M96.046,20.866v2.192h-0.657v-2.192h-2.183v-0.658h2.183v-2.192h0.657v2.192h2.183v0.658H96.046z"/>
		<path fill="#808080" d="M106.478,16.382c-1.196,0.159-2.511,1.146-3.209,2.411l0.04,0.02c0.26-0.16,0.638-0.209,0.917-0.209
			c0.917,0,1.664,0.737,1.664,1.754c0,1.504-1.136,2.77-2.531,2.77c-1.195,0-1.773-0.837-1.773-2.143
			c0-1.345,0.678-2.68,1.833-3.587c0.938-0.737,1.645-1.006,3.06-1.176V16.382z M103.837,18.963c-0.389,0-0.737,0.189-0.977,0.558
			c-0.299,0.458-0.518,1.315-0.518,2.042c0,0.817,0.418,1.305,0.976,1.305c0.459,0,0.787-0.219,1.106-0.688
			c0.349-0.518,0.578-1.345,0.578-2.002C105.003,19.461,104.534,18.963,103.837,18.963z"/>
	</g>
	<g clip-path="url(#SVGID_2_)">
		<path d="M108.2,22.331c0.578,0.13,0.798,0.239,1.196,0.827c0.259,0.378,0.448,0.498,0.697,0.498c0.159,0,0.27-0.06,0.27-0.149
			c0-0.04-0.021-0.089-0.05-0.149c-0.061-0.12-0.08-0.199-0.08-0.279c0.01-0.169,0.169-0.339,0.329-0.339
			c0.209,0,0.349,0.149,0.349,0.369c0,0.398-0.369,0.757-0.927,0.757c-0.289,0-0.628-0.129-1.126-0.438
			c-0.469-0.289-0.787-0.418-1.046-0.418c-0.16,0-0.289,0.05-0.449,0.179l-0.089-0.089l3.089-3.707h-1.355
			c-0.519,0-0.707,0.089-0.907,0.598l-0.159-0.04l0.319-1.156h2.819v0.11L108.2,22.331z"/>
	</g>
	<g clip-path="url(#SVGID_2_)">
		<path d="M112.923,15.858c0.168-0.411,0.328-0.648,0.572-0.836c0.271-0.209,0.571-0.293,0.893-0.293c0.669,0,1.13,0.516,1.13,1.178
			c0,0.467-0.217,0.788-1.039,1.632l-1.312,1.339v0.035h1.263c0.411,0,0.551-0.105,0.718-0.454l0.118,0.049l-0.349,0.935h-2.468
			v-0.119l1.464-1.562c0.46-0.488,0.774-0.927,0.941-1.304c0.042-0.091,0.063-0.223,0.063-0.377c0-0.481-0.278-0.844-0.829-0.844
			c-0.419,0-0.774,0.203-1.019,0.669L112.923,15.858z"/>
	</g>
	<g clip-path="url(#SVGID_2_)">
		<path fill="#808080" d="M127.727,20.866v2.192h-0.657v-2.192h-2.183v-0.658h2.183v-2.192h0.657v2.192h2.183v0.658H127.727z"/>
		<path fill="#808080" d="M138.158,16.382c-1.196,0.159-2.511,1.146-3.209,2.411l0.04,0.02c0.26-0.16,0.638-0.209,0.917-0.209
			c0.917,0,1.664,0.737,1.664,1.754c0,1.504-1.136,2.77-2.531,2.77c-1.195,0-1.773-0.837-1.773-2.143
			c0-1.345,0.678-2.68,1.833-3.587c0.938-0.737,1.645-1.006,3.06-1.176V16.382z M135.518,18.963c-0.389,0-0.737,0.189-0.977,0.558
			c-0.299,0.458-0.518,1.315-0.518,2.042c0,0.817,0.418,1.305,0.976,1.305c0.459,0,0.787-0.219,1.106-0.688
			c0.349-0.518,0.578-1.345,0.578-2.002C136.684,19.461,136.215,18.963,135.518,18.963z"/>
	</g>
	<g clip-path="url(#SVGID_2_)">
		<path d="M139.88,22.331c0.578,0.13,0.798,0.239,1.196,0.827c0.259,0.378,0.448,0.498,0.697,0.498c0.159,0,0.27-0.06,0.27-0.149
			c0-0.04-0.021-0.089-0.05-0.149c-0.061-0.12-0.08-0.199-0.08-0.279c0.01-0.169,0.169-0.339,0.329-0.339
			c0.209,0,0.349,0.149,0.349,0.369c0,0.398-0.369,0.757-0.927,0.757c-0.289,0-0.628-0.129-1.126-0.438
			c-0.469-0.289-0.787-0.418-1.046-0.418c-0.16,0-0.289,0.05-0.449,0.179l-0.089-0.089l3.089-3.707h-1.355
			c-0.519,0-0.707,0.089-0.907,0.598l-0.159-0.04l0.319-1.156h2.819v0.11L139.88,22.331z"/>
	</g>
	<g clip-path="url(#SVGID_2_)">
		<path fill="#808080" d="M154.937,20.866v2.192h-0.657v-2.192h-2.183v-0.658h2.183v-2.192h0.657v2.192h2.183v0.658H154.937z"/>
		<path fill="#808080" d="M160.974,17.937c0.239-0.588,0.469-0.927,0.817-1.196c0.389-0.299,0.817-0.418,1.275-0.418
			c0.956,0,1.614,0.737,1.614,1.684c0,0.667-0.309,1.126-1.484,2.332l-1.874,1.913v0.05h1.804c0.588,0,0.787-0.149,1.026-0.647
			l0.17,0.07l-0.499,1.335h-3.527v-0.169l2.093-2.232c0.658-0.697,1.106-1.325,1.346-1.863c0.06-0.129,0.089-0.319,0.089-0.538
			c0-0.688-0.398-1.206-1.186-1.206c-0.598,0-1.105,0.289-1.454,0.957L160.974,17.937z"/>
	</g>
	<g clip-path="url(#SVGID_2_)">
		<path d="M61.526,32.821v-0.658h5.022v0.658H61.526z"/>
	</g>
	<g clip-path="url(#SVGID_2_)">
		<path d="M71.43,29.892c0.239-0.588,0.469-0.927,0.817-1.196c0.389-0.299,0.817-0.418,1.275-0.418c0.956,0,1.614,0.737,1.614,1.684
			c0,0.667-0.309,1.126-1.484,2.332l-1.874,1.913v0.05h1.804c0.588,0,0.787-0.149,1.026-0.647l0.169,0.07l-0.498,1.335h-3.527
			v-0.169l2.093-2.232c0.657-0.697,1.106-1.325,1.346-1.863c0.06-0.129,0.089-0.319,0.089-0.538c0-0.688-0.398-1.206-1.186-1.206
			c-0.598,0-1.105,0.289-1.454,0.957L71.43,29.892z"/>
	</g>
	<g clip-path="url(#SVGID_2_)">
		<path d="M76.521,34.286c0.578,0.13,0.798,0.239,1.196,0.827c0.259,0.378,0.448,0.498,0.697,0.498c0.159,0,0.27-0.06,0.27-0.149
			c0-0.04-0.021-0.089-0.05-0.149c-0.061-0.12-0.08-0.199-0.08-0.279c0.01-0.169,0.169-0.339,0.329-0.339
			c0.209,0,0.349,0.149,0.349,0.369c0,0.398-0.369,0.757-0.927,0.757c-0.289,0-0.628-0.129-1.126-0.438
			c-0.469-0.289-0.787-0.418-1.046-0.418c-0.16,0-0.289,0.05-0.449,0.179l-0.089-0.089l3.089-3.707h-1.355
			c-0.519,0-0.707,0.089-0.907,0.598l-0.159-0.04l0.319-1.156H79.4v0.11L76.521,34.286z"/>
	</g>
	<g clip-path="url(#SVGID_2_)">
		<path d="M81.814,27.409c0.229-0.502,0.676-0.725,1.192-0.725c0.544,0,0.92,0.349,0.92,0.851c0,0.516-0.285,0.788-1.08,1.067v0.021
			c0.474,0.181,0.662,0.495,0.662,1.004c0,0.551-0.251,1.039-0.648,1.388c-0.342,0.3-0.788,0.432-1.29,0.432
			s-0.774-0.167-0.774-0.397c0-0.174,0.119-0.3,0.3-0.3c0.133,0,0.258,0.042,0.446,0.209c0.182,0.161,0.363,0.223,0.495,0.223
			c0.23,0,0.475-0.125,0.648-0.321c0.182-0.216,0.266-0.551,0.266-0.878c0-0.753-0.446-1.102-1.116-1.102h-0.167v-0.111
			c0.627-0.112,0.92-0.209,1.22-0.418c0.293-0.202,0.433-0.446,0.433-0.739c0-0.383-0.244-0.634-0.613-0.634
			c-0.3,0-0.53,0.139-0.781,0.467L81.814,27.409z"/>
	</g>
	<g clip-path="url(#SVGID_2_)">
		<path d="M96.046,32.821v2.192h-0.657v-2.192h-2.183v-0.658h2.183v-2.192h0.657v2.192h2.183v0.658H96.046z"/>
		<path d="M104.854,32.612h0.956l-0.14,0.628h-1.006l-0.458,1.773h-0.788l0.488-1.773h-2.61l0.199-0.668l4.155-4.294h0.408
			L104.854,32.612z M104.963,29.403l-3.029,3.168v0.04h2.112l0.957-3.208H104.963z"/>
	</g>
	<g clip-path="url(#SVGID_2_)">
		<path d="M108.2,34.286c0.578,0.13,0.798,0.239,1.196,0.827c0.259,0.378,0.448,0.498,0.697,0.498c0.159,0,0.27-0.06,0.27-0.149
			c0-0.04-0.021-0.089-0.05-0.149c-0.061-0.12-0.08-0.199-0.08-0.279c0.01-0.169,0.169-0.339,0.329-0.339
			c0.209,0,0.349,0.149,0.349,0.369c0,0.398-0.369,0.757-0.927,0.757c-0.289,0-0.628-0.129-1.126-0.438
			c-0.469-0.289-0.787-0.418-1.046-0.418c-0.16,0-0.289,0.05-0.449,0.179l-0.089-0.089l3.089-3.707h-1.355
			c-0.519,0-0.707,0.089-0.907,0.598l-0.159-0.04l0.319-1.156h2.819v0.11L108.2,34.286z"/>
	</g>
	<g clip-path="url(#SVGID_2_)">
		<path d="M112.923,27.813c0.168-0.411,0.328-0.648,0.572-0.836c0.271-0.209,0.571-0.293,0.893-0.293c0.669,0,1.13,0.516,1.13,1.178
			c0,0.467-0.217,0.788-1.039,1.632l-1.312,1.339v0.035h1.263c0.411,0,0.551-0.105,0.718-0.454l0.118,0.049l-0.349,0.935h-2.468
			v-0.119l1.464-1.562c0.46-0.488,0.774-0.927,0.941-1.304c0.042-0.091,0.063-0.223,0.063-0.377c0-0.481-0.278-0.844-0.829-0.844
			c-0.419,0-0.774,0.203-1.019,0.669L112.923,27.813z"/>
	</g>
	<g clip-path="url(#SVGID_2_)">
		<path d="M124.887,32.821v-0.658h5.022v0.658H124.887z"/>
	</g>
	<g clip-path="url(#SVGID_2_)">
		<path d="M134.789,29.892c0.239-0.588,0.469-0.927,0.817-1.196c0.389-0.299,0.817-0.418,1.275-0.418
			c0.956,0,1.614,0.737,1.614,1.684c0,0.667-0.309,1.126-1.484,2.332l-1.874,1.913v0.05h1.804c0.588,0,0.787-0.149,1.026-0.647
			l0.169,0.07l-0.498,1.335h-3.527v-0.169l2.093-2.232c0.657-0.697,1.106-1.325,1.346-1.863c0.06-0.129,0.089-0.319,0.089-0.538
			c0-0.688-0.398-1.206-1.186-1.206c-0.598,0-1.105,0.289-1.454,0.957L134.789,29.892z"/>
	</g>
	<g clip-path="url(#SVGID_2_)">
		<path d="M139.88,34.286c0.578,0.13,0.798,0.239,1.196,0.827c0.259,0.378,0.448,0.498,0.697,0.498c0.159,0,0.27-0.06,0.27-0.149
			c0-0.04-0.021-0.089-0.05-0.149c-0.061-0.12-0.08-0.199-0.08-0.279c0.01-0.169,0.169-0.339,0.329-0.339
			c0.209,0,0.349,0.149,0.349,0.369c0,0.398-0.369,0.757-0.927,0.757c-0.289,0-0.628-0.129-1.126-0.438
			c-0.469-0.289-0.787-0.418-1.046-0.418c-0.16,0-0.289,0.05-0.449,0.179l-0.089-0.089l3.089-3.707h-1.355
			c-0.519,0-0.707,0.089-0.907,0.598l-0.159-0.04l0.319-1.156h2.819v0.11L139.88,34.286z"/>
	</g>
	
		<line clip-path="url(#SVGID_2_)" fill="none" stroke="#000000" stroke-width="0.398" stroke-miterlimit="10" x1="58.456" y1="38.799" x2="144.045" y2="38.799"/>
	<g clip-path="url(#SVGID_2_)">
		<path d="M101.356,43.221c0.03,0,0.05,0.031,0.05,0.07c0,0.05-0.02,0.149-0.06,0.289l-1.425,5.172
			c-0.07,0.248-0.18,0.637-0.18,0.736c0,0.229,0.22,0.319,0.658,0.319h0.209v0.149h-2.78v-0.149c0.787-0.06,1.007-0.169,1.116-0.548
			l1.355-4.863c0.05-0.188,0.079-0.288,0.079-0.357c0-0.189-0.129-0.31-0.349-0.31h-0.03c-0.179,0-0.398,0.01-0.588,0.021V43.6
			l0.229-0.049c0.877-0.189,0.917-0.17,1.684-0.33H101.356z"/>
		<path d="M105.461,49.598c-0.408,0.289-0.837,0.43-1.255,0.43c-1.017,0-1.575-0.838-1.575-2.223c0-2.342,1.485-4.584,3.05-4.584
			c1.016,0,1.584,0.888,1.584,2.502C107.265,47.188,106.487,48.871,105.461,49.598z M105.641,43.5c-0.448,0-0.837,0.299-1.196,0.947
			c-0.518,0.937-1.025,2.889-1.025,3.955c0,0.848,0.328,1.346,0.807,1.346c0.458,0,0.917-0.339,1.285-0.996
			c0.578-1.018,0.967-2.661,0.967-3.956C106.478,43.998,106.238,43.5,105.641,43.5z"/>
	</g>
	<g clip-path="url(#SVGID_2_)">
		<path d="M108.2,49.229c0.578,0.13,0.798,0.239,1.196,0.827c0.259,0.379,0.448,0.498,0.697,0.498c0.159,0,0.27-0.06,0.27-0.149
			c0-0.04-0.021-0.089-0.05-0.149c-0.061-0.119-0.08-0.199-0.08-0.279c0.01-0.169,0.169-0.338,0.329-0.338
			c0.209,0,0.349,0.148,0.349,0.368c0,0.398-0.369,0.757-0.927,0.757c-0.289,0-0.628-0.129-1.126-0.438
			c-0.469-0.289-0.787-0.419-1.046-0.419c-0.16,0-0.289,0.05-0.449,0.179l-0.089-0.089l3.089-3.707h-1.355
			c-0.519,0-0.707,0.09-0.907,0.599l-0.159-0.041l0.319-1.155h2.819v0.11L108.2,49.229z"/>
	</g>
	<g clip-path="url(#SVGID_2_)">
		<path d="M112.923,42.758c0.168-0.412,0.328-0.648,0.572-0.837c0.271-0.21,0.571-0.293,0.893-0.293c0.669,0,1.13,0.517,1.13,1.179
			c0,0.467-0.217,0.787-1.039,1.631l-1.312,1.34v0.035h1.263c0.411,0,0.551-0.105,0.718-0.454l0.118,0.049l-0.349,0.935h-2.468
			v-0.119l1.464-1.562c0.46-0.487,0.774-0.927,0.941-1.304c0.042-0.091,0.063-0.223,0.063-0.377c0-0.48-0.278-0.844-0.829-0.844
			c-0.419,0-0.774,0.203-1.019,0.67L112.923,42.758z"/>
	</g>
	<g clip-path="url(#SVGID_2_)">
		<path d="M127.727,47.766v2.191h-0.657v-2.191h-2.183v-0.658h2.183v-2.192h0.657v2.192h2.183v0.658H127.727z"/>
		<path d="M136.534,47.556h0.956l-0.14,0.628h-1.006l-0.458,1.773h-0.788l0.488-1.773h-2.61l0.199-0.668l4.155-4.295h0.408
			L136.534,47.556z M136.644,44.348l-3.029,3.168v0.04h2.112l0.957-3.208H136.644z"/>
	</g>
	<g clip-path="url(#SVGID_2_)">
		<path d="M139.88,49.229c0.578,0.13,0.798,0.239,1.196,0.827c0.259,0.379,0.448,0.498,0.697,0.498c0.159,0,0.27-0.06,0.27-0.149
			c0-0.04-0.021-0.089-0.05-0.149c-0.061-0.119-0.08-0.199-0.08-0.279c0.01-0.169,0.169-0.338,0.329-0.338
			c0.209,0,0.349,0.148,0.349,0.368c0,0.398-0.369,0.757-0.927,0.757c-0.289,0-0.628-0.129-1.126-0.438
			c-0.469-0.289-0.787-0.419-1.046-0.419c-0.16,0-0.289,0.05-0.449,0.179l-0.089-0.089l3.089-3.707h-1.355
			c-0.519,0-0.707,0.09-0.907,0.599l-0.159-0.041l0.319-1.155h2.819v0.11L139.88,49.229z"/>
	</g>
	<g clip-path="url(#SVGID_2_)">
		<path d="M154.937,47.766v2.191h-0.657v-2.191h-2.183v-0.658h2.183v-2.192h0.657v2.192h2.183v0.658H154.937z"/>
		<path d="M160.974,44.836c0.239-0.588,0.469-0.928,0.817-1.196c0.389-0.299,0.817-0.419,1.275-0.419
			c0.956,0,1.614,0.738,1.614,1.685c0,0.667-0.309,1.126-1.484,2.331l-1.874,1.914v0.049h1.804c0.588,0,0.787-0.148,1.026-0.646
			l0.17,0.069l-0.499,1.335h-3.527v-0.17l2.093-2.231c0.658-0.697,1.106-1.325,1.346-1.863c0.06-0.13,0.089-0.319,0.089-0.538
			c0-0.688-0.398-1.205-1.186-1.205c-0.598,0-1.105,0.289-1.454,0.956L160.974,44.836z"/>
	</g>
	<g clip-path="url(#SVGID_2_)">
		<path d="M88.225,59.721v-0.657h5.022v0.657H88.225z"/>
	</g>
	<g clip-path="url(#SVGID_2_)">
		<path d="M101.356,55.178c0.03,0,0.05,0.029,0.05,0.069c0,0.05-0.02,0.149-0.06,0.289l-1.425,5.171
			c-0.07,0.25-0.18,0.639-0.18,0.738c0,0.229,0.22,0.318,0.658,0.318h0.209v0.149h-2.78v-0.149c0.787-0.061,1.007-0.17,1.116-0.548
			l1.355-4.862c0.05-0.189,0.079-0.289,0.079-0.359c0-0.189-0.129-0.309-0.349-0.309h-0.03c-0.179,0-0.398,0.01-0.588,0.02v-0.148
			l0.229-0.051c0.877-0.189,0.917-0.169,1.684-0.328H101.356z"/>
		<path d="M105.461,61.555c-0.408,0.289-0.837,0.428-1.255,0.428c-1.017,0-1.575-0.836-1.575-2.222c0-2.341,1.485-4.583,3.05-4.583
			c1.016,0,1.584,0.887,1.584,2.5C107.265,59.143,106.487,60.827,105.461,61.555z M105.641,55.457c-0.448,0-0.837,0.299-1.196,0.945
			c-0.518,0.938-1.025,2.891-1.025,3.957c0,0.846,0.328,1.344,0.807,1.344c0.458,0,0.917-0.338,1.285-0.996
			c0.578-1.016,0.967-2.66,0.967-3.955C106.478,55.955,106.238,55.457,105.641,55.457z"/>
	</g>
	<g clip-path="url(#SVGID_2_)">
		<path d="M108.2,61.186c0.578,0.13,0.798,0.239,1.196,0.827c0.259,0.379,0.448,0.498,0.697,0.498c0.159,0,0.27-0.06,0.27-0.149
			c0-0.039-0.021-0.09-0.05-0.149c-0.061-0.12-0.08-0.199-0.08-0.278c0.01-0.17,0.169-0.34,0.329-0.34
			c0.209,0,0.349,0.15,0.349,0.369c0,0.398-0.369,0.758-0.927,0.758c-0.289,0-0.628-0.13-1.126-0.439
			c-0.469-0.289-0.787-0.418-1.046-0.418c-0.16,0-0.289,0.05-0.449,0.18l-0.089-0.09l3.089-3.707h-1.355
			c-0.519,0-0.707,0.09-0.907,0.598l-0.159-0.039l0.319-1.156h2.819v0.109L108.2,61.186z"/>
	</g>
	<g clip-path="url(#SVGID_2_)">
		<path d="M112.923,54.713c0.168-0.412,0.328-0.648,0.572-0.837c0.271-0.21,0.571-0.293,0.893-0.293c0.669,0,1.13,0.517,1.13,1.179
			c0,0.467-0.217,0.787-1.039,1.631l-1.312,1.34v0.035h1.263c0.411,0,0.551-0.105,0.718-0.454l0.118,0.049l-0.349,0.935h-2.468
			v-0.119l1.464-1.562c0.46-0.487,0.774-0.927,0.941-1.304c0.042-0.091,0.063-0.223,0.063-0.377c0-0.48-0.278-0.844-0.829-0.844
			c-0.419,0-0.774,0.203-1.019,0.67L112.923,54.713z"/>
	</g>
	<g clip-path="url(#SVGID_2_)">
		<path d="M122.744,59.721v2.192h-0.657v-2.192h-2.183v-0.657h2.183v-2.192h0.657v2.192h2.183v0.657H122.744z"/>
		<path d="M128.781,56.791c0.239-0.588,0.469-0.926,0.817-1.195c0.389-0.299,0.817-0.418,1.275-0.418
			c0.956,0,1.614,0.736,1.614,1.684c0,0.668-0.309,1.126-1.484,2.332l-1.874,1.912v0.051h1.804c0.588,0,0.787-0.15,1.026-0.648
			l0.169,0.07l-0.498,1.335h-3.527v-0.169l2.093-2.232c0.657-0.697,1.106-1.325,1.346-1.863c0.06-0.129,0.089-0.318,0.089-0.538
			c0-0.688-0.398-1.206-1.186-1.206c-0.598,0-1.105,0.289-1.454,0.957L128.781,56.791z"/>
		<path d="M136.114,61.555c-0.408,0.289-0.837,0.428-1.255,0.428c-1.017,0-1.574-0.836-1.574-2.222c0-2.341,1.484-4.583,3.049-4.583
			c1.016,0,1.584,0.887,1.584,2.5C137.918,59.143,137.141,60.827,136.114,61.555z M136.294,55.457c-0.448,0-0.837,0.299-1.196,0.945
			c-0.518,0.938-1.025,2.891-1.025,3.957c0,0.846,0.328,1.344,0.807,1.344c0.458,0,0.917-0.338,1.285-0.996
			c0.578-1.016,0.967-2.66,0.967-3.955C137.131,55.955,136.892,55.457,136.294,55.457z"/>
	</g>
	<g clip-path="url(#SVGID_2_)">
		<path d="M139.88,61.186c0.578,0.13,0.798,0.239,1.196,0.827c0.259,0.379,0.448,0.498,0.697,0.498c0.159,0,0.27-0.06,0.27-0.149
			c0-0.039-0.021-0.09-0.05-0.149c-0.061-0.12-0.08-0.199-0.08-0.278c0.01-0.17,0.169-0.34,0.329-0.34
			c0.209,0,0.349,0.15,0.349,0.369c0,0.398-0.369,0.758-0.927,0.758c-0.289,0-0.628-0.13-1.126-0.439
			c-0.469-0.289-0.787-0.418-1.046-0.418c-0.16,0-0.289,0.05-0.449,0.18l-0.089-0.09l3.089-3.707h-1.355
			c-0.519,0-0.707,0.09-0.907,0.598l-0.159-0.039l0.319-1.156h2.819v0.109L139.88,61.186z"/>
	</g>
	<g clip-path="url(#SVGID_2_)">
		<path d="M147.115,59.721v-0.657h5.022v0.657H147.115z"/>
	</g>
	<g clip-path="url(#SVGID_2_)">
		<path d="M160.246,55.178c0.03,0,0.05,0.029,0.05,0.069c0,0.05-0.02,0.149-0.06,0.289l-1.425,5.171
			c-0.07,0.25-0.18,0.639-0.18,0.738c0,0.229,0.22,0.318,0.658,0.318h0.209v0.149h-2.78v-0.149c0.787-0.061,1.007-0.17,1.116-0.548
			l1.355-4.862c0.05-0.189,0.079-0.289,0.079-0.359c0-0.189-0.129-0.309-0.349-0.309h-0.03c-0.179,0-0.398,0.01-0.588,0.02v-0.148
			l0.229-0.051c0.877-0.189,0.917-0.169,1.684-0.328H160.246z"/>
		<path d="M164.351,61.555c-0.408,0.289-0.837,0.428-1.255,0.428c-1.017,0-1.574-0.836-1.574-2.222c0-2.341,1.484-4.583,3.049-4.583
			c1.016,0,1.584,0.887,1.584,2.5C166.154,59.143,165.377,60.827,164.351,61.555z M164.53,55.457c-0.448,0-0.837,0.299-1.196,0.945
			c-0.518,0.938-1.025,2.891-1.025,3.957c0,0.846,0.328,1.344,0.807,1.344c0.458,0,0.917-0.338,1.285-0.996
			c0.578-1.016,0.967-2.66,0.967-3.955C165.367,55.955,165.128,55.457,164.53,55.457z"/>
	</g>
	
		<line clip-path="url(#SVGID_2_)" fill="none" stroke="#000000" stroke-width="0.398" stroke-miterlimit="10" x1="85.155" y1="65.698" x2="166.184" y2="65.698"/>
	<g clip-path="url(#SVGID_2_)">
		<path fill="#0D8140" d="M129.808,71.735c0.239-0.588,0.469-0.927,0.817-1.196c0.389-0.299,0.817-0.418,1.275-0.418
			c0.956,0,1.614,0.737,1.614,1.684c0,0.668-0.309,1.127-1.484,2.332l-1.874,1.913v0.05h1.804c0.588,0,0.787-0.149,1.026-0.647
			l0.17,0.069l-0.499,1.336h-3.527v-0.17l2.093-2.232c0.658-0.697,1.106-1.324,1.346-1.863c0.06-0.129,0.089-0.318,0.089-0.537
			c0-0.688-0.398-1.206-1.186-1.206c-0.598,0-1.105,0.289-1.454,0.956L129.808,71.735z"/>
		<path fill="#0D8140" d="M137.56,74.455h0.956l-0.14,0.629h-1.006l-0.458,1.773h-0.788l0.488-1.773h-2.61l0.199-0.668l4.155-4.295
			h0.408L137.56,74.455z M137.669,71.247l-3.029,3.169v0.039h2.112l0.957-3.208H137.669z"/>
	</g>
	<g clip-path="url(#SVGID_2_)">
		<path d="M139.88,76.129c0.578,0.131,0.798,0.24,1.196,0.828c0.259,0.378,0.448,0.498,0.697,0.498c0.159,0,0.27-0.061,0.27-0.15
			c0-0.039-0.021-0.089-0.05-0.148c-0.061-0.12-0.08-0.199-0.08-0.279c0.01-0.17,0.169-0.339,0.329-0.339
			c0.209,0,0.349,0.149,0.349,0.368c0,0.398-0.369,0.758-0.927,0.758c-0.289,0-0.628-0.129-1.126-0.438
			c-0.469-0.289-0.787-0.419-1.046-0.419c-0.16,0-0.289,0.051-0.449,0.18l-0.089-0.09l3.089-3.706h-1.355
			c-0.519,0-0.707,0.089-0.907,0.598l-0.159-0.04l0.319-1.156h2.819v0.11L139.88,76.129z"/>
	</g>
	<g clip-path="url(#SVGID_2_)">
		<path fill="#0D8140" d="M152.097,74.665v-0.657h5.022v0.657H152.097z"/>
	</g>
	<g clip-path="url(#SVGID_2_)">
		<path fill="#0D8140" d="M163.445,73.26c-0.658-0.727-0.867-1.086-0.867-1.624c0-0.956,0.747-1.515,1.813-1.515
			s1.724,0.549,1.724,1.355c0,0.777-0.438,1.215-1.634,1.574v0.01c0.856,0.787,1.146,1.266,1.146,1.992
			c0,1.107-0.906,1.874-2.142,1.874c-1.017,0-1.983-0.488-1.983-1.674c0-0.937,0.747-1.634,1.943-1.983V73.26z M163.664,73.43
			c-0.896,0.338-1.484,1.076-1.484,1.942c0,0.817,0.707,1.335,1.385,1.335c0.787,0,1.315-0.707,1.315-1.395
			C164.88,74.744,164.761,74.565,163.664,73.43z M164.372,70.351c-0.638,0-1.017,0.429-1.017,1.076c0,0.419,0.169,0.728,0.946,1.454
			c0.867-0.408,1.136-0.757,1.136-1.305C165.438,70.869,165.01,70.351,164.372,70.351z"/>
	</g>
	<g clip-path="url(#SVGID_2_)">
		<path d="M58.539,12.135c2.143,1.289,3.418,3.628,3.418,6.009c0,2.591-1.233,4.581-3.46,5.939l-0.126-0.224
			c1.989-1.639,2.381-2.956,2.381-5.673c0-2.619-0.35-4.23-2.381-5.827L58.539,12.135z"/>
	</g>
</g>
</svg>
