<?xml version="1.0" encoding="utf-8"?>
<!-- Generator: Adobe Illustrator 15.0.0, SVG Export Plug-In . SVG Version: 6.00 Build 0)  -->
<!DOCTYPE svg PUBLIC "-//W3C//DTD SVG 1.0//EN" "http://www.w3.org/TR/2001/REC-SVG-20010904/DTD/svg10.dtd">
<svg version="1.0" id="Layer_1" xmlns="http://www.w3.org/2000/svg" xmlns:xlink="http://www.w3.org/1999/xlink" x="0px" y="0px"
	 width="169.75px" height="79.5px" viewBox="0 0 169.75 79.5" enable-background="new 0 0 169.75 79.5" xml:space="preserve">
<g>
	<defs>
		<rect id="SVGID_1_" x="-142.5" y="-125.75" width="612" height="792"/>
	</defs>
	<clipPath id="SVGID_2_">
		<use xlink:href="#SVGID_1_"  overflow="visible"/>
	</clipPath>
	<g clip-path="url(#SVGID_2_)">
		<path fill="#7C287D" d="M136.496,3.894c0.239-0.588,0.469-0.927,0.817-1.196c0.389-0.299,0.817-0.418,1.275-0.418
			c0.956,0,1.614,0.737,1.614,1.684c0,0.667-0.309,1.126-1.484,2.332l-1.874,1.913v0.05h1.804c0.588,0,0.787-0.149,1.026-0.647
			l0.169,0.07l-0.498,1.335h-3.527V8.846l2.093-2.232c0.657-0.697,1.106-1.325,1.346-1.863c0.06-0.129,0.089-0.319,0.089-0.538
			c0-0.688-0.398-1.206-1.186-1.206c-0.598,0-1.105,0.289-1.454,0.957L136.496,3.894z"/>
	</g>
	<g clip-path="url(#SVGID_2_)">
		<path d="M145.931,2.27l-0.389,1.515l-0.598,2.182c-0.309,1.136-0.647,2.292-0.647,2.451c0,0.12,0.05,0.199,0.179,0.199
			c0.17,0,0.279-0.09,0.817-0.708l0.119,0.1c-0.487,0.728-0.966,1.136-1.464,1.136c-0.26,0-0.409-0.179-0.409-0.448
			c0-0.229,0.021-0.389,0.13-0.887c-0.588,0.986-1.096,1.315-1.773,1.315c-0.647,0-1.066-0.408-1.066-1.166
			c0-1.614,1.614-3.338,2.909-3.338c0.419,0,0.588,0.189,0.648,0.578h0.01l0.448-1.624c0.149-0.528,0.14-0.568,0.14-0.708
			c0-0.209-0.09-0.239-0.638-0.259V2.439c0.638-0.06,0.996-0.12,1.524-0.229L145.931,2.27z M143.759,4.85
			c-0.279,0-0.628,0.169-0.907,0.458c-0.657,0.697-1.155,1.784-1.155,2.61c0,0.458,0.229,0.728,0.577,0.728
			c0.917,0,1.953-1.714,1.953-3.229C144.227,5.06,143.987,4.85,143.759,4.85z"/>
	</g>
	<g clip-path="url(#SVGID_2_)">
		<path fill="#7C287D" d="M151.775,6.823v2.192h-0.657V6.823h-2.183V6.166h2.183V3.973h0.657v2.192h2.183v0.658H151.775z"/>
		<path fill="#7C287D" d="M161.041,2.279c0.03,0,0.05,0.03,0.05,0.07c0,0.05-0.02,0.149-0.06,0.289l-1.425,5.171
			c-0.07,0.249-0.18,0.638-0.18,0.737c0,0.229,0.22,0.319,0.658,0.319h0.209v0.149h-2.78V8.866c0.787-0.06,1.007-0.169,1.116-0.548
			l1.355-4.863c0.05-0.189,0.079-0.289,0.079-0.358c0-0.189-0.129-0.309-0.349-0.309h-0.03c-0.179,0-0.398,0.01-0.588,0.02V2.658
			l0.229-0.05c0.877-0.189,0.917-0.169,1.684-0.329H161.041z"/>
		<path fill="#7C287D" d="M165.146,8.656c-0.408,0.289-0.837,0.429-1.255,0.429c-1.017,0-1.574-0.837-1.574-2.222
			c0-2.341,1.484-4.583,3.049-4.583c1.016,0,1.584,0.887,1.584,2.501C166.949,6.245,166.172,7.929,165.146,8.656z M165.325,2.559
			c-0.448,0-0.837,0.299-1.196,0.946c-0.518,0.937-1.025,2.89-1.025,3.956c0,0.847,0.328,1.345,0.807,1.345
			c0.458,0,0.917-0.338,1.285-0.996c0.578-1.017,0.967-2.661,0.967-3.956C166.162,3.057,165.923,2.559,165.325,2.559z"/>
	</g>
	
		<line clip-path="url(#SVGID_2_)" fill="none" stroke="#000000" stroke-width="0.398" stroke-miterlimit="10" x1="59.934" y1="12.8" x2="168.004" y2="12.8"/>
	<g clip-path="url(#SVGID_2_)">
		<path fill="#A62A2A" d="M4.237,17.322c0.03,0,0.05,0.03,0.05,0.07c0,0.05-0.02,0.149-0.06,0.289l-1.425,5.171
			c-0.07,0.249-0.18,0.638-0.18,0.737c0,0.229,0.22,0.319,0.658,0.319H3.49v0.149H0.71v-0.149c0.787-0.06,1.007-0.169,1.116-0.548
			l1.355-4.863c0.05-0.189,0.079-0.289,0.079-0.358c0-0.189-0.129-0.309-0.349-0.309h-0.03c-0.179,0-0.398,0.01-0.588,0.02v-0.149
			l0.229-0.05c0.877-0.189,0.917-0.169,1.684-0.329H4.237z"/>
		<path d="M10.444,17.313l-0.389,1.515l-0.598,2.182c-0.309,1.136-0.647,2.292-0.647,2.451c0,0.12,0.05,0.199,0.179,0.199
			c0.17,0,0.279-0.09,0.817-0.708l0.119,0.1c-0.487,0.728-0.966,1.136-1.464,1.136c-0.26,0-0.409-0.179-0.409-0.448
			c0-0.229,0.021-0.389,0.13-0.887c-0.588,0.986-1.096,1.315-1.773,1.315c-0.647,0-1.066-0.408-1.066-1.166
			c0-1.614,1.614-3.338,2.909-3.338c0.419,0,0.588,0.189,0.648,0.578h0.01l0.448-1.624c0.149-0.528,0.14-0.568,0.14-0.708
			c0-0.209-0.09-0.239-0.638-0.259v-0.169c0.638-0.06,0.996-0.12,1.524-0.229L10.444,17.313z M8.272,19.893
			c-0.279,0-0.628,0.169-0.907,0.458c-0.657,0.697-1.155,1.784-1.155,2.61c0,0.458,0.229,0.728,0.577,0.728
			c0.917,0,1.953-1.714,1.953-3.229C8.74,20.103,8.501,19.893,8.272,19.893z"/>
	</g>
	<g clip-path="url(#SVGID_2_)">
		<path d="M11.956,16.858c0.168-0.411,0.328-0.648,0.572-0.836c0.271-0.209,0.571-0.293,0.893-0.293c0.669,0,1.13,0.516,1.13,1.178
			c0,0.467-0.217,0.788-1.039,1.632L12.2,19.878v0.035h1.263c0.411,0,0.551-0.105,0.718-0.454l0.118,0.049l-0.349,0.935h-2.468
			v-0.119l1.464-1.562c0.46-0.488,0.774-0.927,0.941-1.304c0.042-0.091,0.063-0.223,0.063-0.377c0-0.481-0.278-0.844-0.829-0.844
			c-0.419,0-0.774,0.203-1.019,0.669L11.956,16.858z"/>
	</g>
	<g clip-path="url(#SVGID_2_)">
		<path fill="#A62A2A" d="M18.938,21.866v-0.658h5.022v0.658H18.938z"/>
	</g>
	<g clip-path="url(#SVGID_2_)">
		<path fill="#A62A2A" d="M28.841,18.937c0.239-0.588,0.469-0.927,0.817-1.196c0.389-0.299,0.817-0.418,1.275-0.418
			c0.956,0,1.614,0.737,1.614,1.684c0,0.667-0.309,1.126-1.484,2.332l-1.874,1.913v0.05h1.804c0.588,0,0.787-0.149,1.026-0.647
			l0.17,0.07l-0.499,1.335h-3.527v-0.169l2.093-2.232c0.658-0.697,1.106-1.325,1.346-1.863c0.06-0.129,0.089-0.319,0.089-0.538
			c0-0.688-0.398-1.206-1.186-1.206c-0.598,0-1.105,0.289-1.454,0.957L28.841,18.937z"/>
	</g>
	<g clip-path="url(#SVGID_2_)">
		<path d="M38.276,17.313l-0.389,1.515l-0.598,2.182c-0.309,1.136-0.647,2.292-0.647,2.451c0,0.12,0.05,0.199,0.179,0.199
			c0.17,0,0.279-0.09,0.817-0.708l0.119,0.1c-0.487,0.728-0.966,1.136-1.464,1.136c-0.26,0-0.409-0.179-0.409-0.448
			c0-0.229,0.021-0.389,0.13-0.887c-0.588,0.986-1.096,1.315-1.773,1.315c-0.647,0-1.066-0.408-1.066-1.166
			c0-1.614,1.614-3.338,2.909-3.338c0.419,0,0.588,0.189,0.648,0.578h0.01l0.448-1.624c0.149-0.528,0.14-0.568,0.14-0.708
			c0-0.209-0.09-0.239-0.638-0.259v-0.169c0.638-0.06,0.996-0.12,1.524-0.229L38.276,17.313z M36.104,19.893
			c-0.279,0-0.628,0.169-0.907,0.458c-0.657,0.697-1.155,1.784-1.155,2.61c0,0.458,0.229,0.728,0.577,0.728
			c0.917,0,1.953-1.714,1.953-3.229C36.572,20.103,36.333,19.893,36.104,19.893z"/>
	</g>
	<g clip-path="url(#SVGID_2_)">
		<path fill="#A62A2A" d="M44.12,21.866v2.192h-0.657v-2.192H41.28v-0.658h2.183v-2.192h0.657v2.192h2.183v0.658H44.12z"/>
		<path fill="#A62A2A" d="M53.386,17.322c0.03,0,0.05,0.03,0.05,0.07c0,0.05-0.02,0.149-0.06,0.289l-1.425,5.171
			c-0.07,0.249-0.18,0.638-0.18,0.737c0,0.229,0.22,0.319,0.658,0.319h0.209v0.149h-2.78v-0.149c0.787-0.06,1.007-0.169,1.116-0.548
			l1.355-4.863c0.05-0.189,0.079-0.289,0.079-0.358c0-0.189-0.129-0.309-0.349-0.309h-0.03c-0.179,0-0.398,0.01-0.588,0.02v-0.149
			l0.229-0.05c0.877-0.189,0.917-0.169,1.684-0.329H53.386z"/>
	</g>
	<g clip-path="url(#SVGID_2_)">
		<path fill="#808080" d="M72.908,18.937c0.239-0.588,0.469-0.927,0.817-1.196c0.389-0.299,0.817-0.418,1.275-0.418
			c0.956,0,1.614,0.737,1.614,1.684c0,0.667-0.309,1.126-1.484,2.332l-1.874,1.913v0.05h1.804c0.588,0,0.787-0.149,1.026-0.647
			l0.169,0.07l-0.498,1.335H72.23v-0.169l2.093-2.232c0.657-0.697,1.106-1.325,1.346-1.863c0.06-0.129,0.089-0.319,0.089-0.538
			c0-0.688-0.398-1.206-1.186-1.206c-0.598,0-1.105,0.289-1.454,0.957L72.908,18.937z"/>
	</g>
	<g clip-path="url(#SVGID_2_)">
		<path d="M82.343,17.313l-0.389,1.515l-0.598,2.182c-0.309,1.136-0.647,2.292-0.647,2.451c0,0.12,0.05,0.199,0.179,0.199
			c0.17,0,0.279-0.09,0.817-0.708l0.119,0.1c-0.487,0.728-0.966,1.136-1.464,1.136c-0.26,0-0.409-0.179-0.409-0.448
			c0-0.229,0.021-0.389,0.13-0.887c-0.588,0.986-1.096,1.315-1.773,1.315c-0.647,0-1.066-0.408-1.066-1.166
			c0-1.614,1.614-3.338,2.909-3.338c0.419,0,0.588,0.189,0.648,0.578h0.01l0.448-1.624c0.149-0.528,0.14-0.568,0.14-0.708
			c0-0.209-0.09-0.239-0.638-0.259v-0.169c0.638-0.06,0.996-0.12,1.524-0.229L82.343,17.313z M80.171,19.893
			c-0.279,0-0.628,0.169-0.907,0.458c-0.657,0.697-1.155,1.784-1.155,2.61c0,0.458,0.229,0.728,0.577,0.728
			c0.917,0,1.953-1.714,1.953-3.229C80.639,20.103,80.399,19.893,80.171,19.893z"/>
	</g>
	<g clip-path="url(#SVGID_2_)">
		<path d="M83.408,16.454c0.229-0.502,0.676-0.725,1.192-0.725c0.544,0,0.92,0.349,0.92,0.851c0,0.516-0.285,0.788-1.08,1.067v0.021
			c0.474,0.181,0.662,0.495,0.662,1.004c0,0.551-0.251,1.039-0.648,1.388c-0.342,0.3-0.788,0.432-1.29,0.432
			s-0.774-0.167-0.774-0.397c0-0.174,0.119-0.3,0.3-0.3c0.133,0,0.258,0.042,0.446,0.209c0.182,0.161,0.363,0.223,0.495,0.223
			c0.23,0,0.475-0.125,0.648-0.321c0.182-0.216,0.266-0.551,0.266-0.878c0-0.753-0.446-1.102-1.116-1.102h-0.167v-0.111
			c0.627-0.112,0.92-0.209,1.22-0.418c0.293-0.202,0.433-0.446,0.433-0.739c0-0.383-0.244-0.634-0.613-0.634
			c-0.3,0-0.53,0.139-0.781,0.467L83.408,16.454z"/>
	</g>
	<g clip-path="url(#SVGID_2_)">
		<path d="M97.639,21.866v2.192h-0.657v-2.192h-2.183v-0.658h2.183v-2.192h0.657v2.192h2.183v0.658H97.639z"/>
		<path fill="#808080" d="M108.07,17.382c-1.196,0.159-2.511,1.146-3.209,2.411l0.04,0.02c0.26-0.16,0.638-0.209,0.917-0.209
			c0.917,0,1.664,0.737,1.664,1.754c0,1.504-1.136,2.77-2.531,2.77c-1.195,0-1.773-0.837-1.773-2.143
			c0-1.345,0.678-2.68,1.833-3.587c0.938-0.737,1.645-1.006,3.06-1.176V17.382z M105.43,19.963c-0.389,0-0.737,0.189-0.977,0.558
			c-0.299,0.458-0.518,1.315-0.518,2.042c0,0.817,0.418,1.305,0.976,1.305c0.459,0,0.787-0.219,1.106-0.688
			c0.349-0.518,0.578-1.345,0.578-2.002C106.596,20.461,106.127,19.963,105.43,19.963z"/>
	</g>
	<g clip-path="url(#SVGID_2_)">
		<path d="M114.137,17.313l-0.389,1.515l-0.598,2.182c-0.309,1.136-0.647,2.292-0.647,2.451c0,0.12,0.05,0.199,0.179,0.199
			c0.17,0,0.279-0.09,0.817-0.708l0.119,0.1c-0.487,0.728-0.966,1.136-1.464,1.136c-0.26,0-0.409-0.179-0.409-0.448
			c0-0.229,0.021-0.389,0.13-0.887c-0.588,0.986-1.096,1.315-1.773,1.315c-0.647,0-1.066-0.408-1.066-1.166
			c0-1.614,1.614-3.338,2.909-3.338c0.419,0,0.588,0.189,0.648,0.578h0.01l0.448-1.624c0.149-0.528,0.14-0.568,0.14-0.708
			c0-0.209-0.09-0.239-0.638-0.259v-0.169c0.638-0.06,0.996-0.12,1.524-0.229L114.137,17.313z M111.965,19.893
			c-0.279,0-0.628,0.169-0.907,0.458c-0.657,0.697-1.155,1.784-1.155,2.61c0,0.458,0.229,0.728,0.578,0.728
			c0.916,0,1.952-1.714,1.952-3.229C112.433,20.103,112.193,19.893,111.965,19.893z"/>
	</g>
	<g clip-path="url(#SVGID_2_)">
		<path d="M114.63,16.858c0.168-0.411,0.328-0.648,0.572-0.836c0.271-0.209,0.571-0.293,0.893-0.293c0.669,0,1.13,0.516,1.13,1.178
			c0,0.467-0.217,0.788-1.039,1.632l-1.312,1.339v0.035h1.263c0.411,0,0.551-0.105,0.718-0.454l0.118,0.049l-0.349,0.935h-2.468
			v-0.119l1.464-1.562c0.46-0.488,0.774-0.927,0.941-1.304c0.042-0.091,0.063-0.223,0.063-0.377c0-0.481-0.278-0.844-0.829-0.844
			c-0.419,0-0.774,0.203-1.019,0.669L114.63,16.858z"/>
	</g>
	<g clip-path="url(#SVGID_2_)">
		<path d="M129.433,21.866v2.192h-0.657v-2.192h-2.183v-0.658h2.183v-2.192h0.657v2.192h2.183v0.658H129.433z"/>
		<path fill="#808080" d="M139.864,17.382c-1.196,0.159-2.511,1.146-3.209,2.411l0.04,0.02c0.26-0.16,0.638-0.209,0.917-0.209
			c0.917,0,1.664,0.737,1.664,1.754c0,1.504-1.136,2.77-2.531,2.77c-1.195,0-1.773-0.837-1.773-2.143
			c0-1.345,0.678-2.68,1.833-3.587c0.938-0.737,1.645-1.006,3.06-1.176V17.382z M137.224,19.963c-0.389,0-0.737,0.189-0.977,0.558
			c-0.299,0.458-0.518,1.315-0.518,2.042c0,0.817,0.418,1.305,0.976,1.305c0.459,0,0.787-0.219,1.106-0.688
			c0.349-0.518,0.578-1.345,0.578-2.002C138.39,20.461,137.921,19.963,137.224,19.963z"/>
	</g>
	<g clip-path="url(#SVGID_2_)">
		<path d="M145.931,17.313l-0.389,1.515l-0.598,2.182c-0.309,1.136-0.647,2.292-0.647,2.451c0,0.12,0.05,0.199,0.179,0.199
			c0.17,0,0.279-0.09,0.817-0.708l0.119,0.1c-0.487,0.728-0.966,1.136-1.464,1.136c-0.26,0-0.409-0.179-0.409-0.448
			c0-0.229,0.021-0.389,0.13-0.887c-0.588,0.986-1.096,1.315-1.773,1.315c-0.647,0-1.066-0.408-1.066-1.166
			c0-1.614,1.614-3.338,2.909-3.338c0.419,0,0.588,0.189,0.648,0.578h0.01l0.448-1.624c0.149-0.528,0.14-0.568,0.14-0.708
			c0-0.209-0.09-0.239-0.638-0.259v-0.169c0.638-0.06,0.996-0.12,1.524-0.229L145.931,17.313z M143.759,19.893
			c-0.279,0-0.628,0.169-0.907,0.458c-0.657,0.697-1.155,1.784-1.155,2.61c0,0.458,0.229,0.728,0.577,0.728
			c0.917,0,1.953-1.714,1.953-3.229C144.227,20.103,143.987,19.893,143.759,19.893z"/>
	</g>
	<g clip-path="url(#SVGID_2_)">
		<path d="M156.757,21.866v2.192H156.1v-2.192h-2.183v-0.658h2.183v-2.192h0.657v2.192h2.183v0.658H156.757z"/>
		<path fill="#808080" d="M162.794,18.937c0.239-0.588,0.469-0.927,0.817-1.196c0.389-0.299,0.817-0.418,1.275-0.418
			c0.956,0,1.614,0.737,1.614,1.684c0,0.667-0.309,1.126-1.484,2.332l-1.874,1.913v0.05h1.804c0.588,0,0.787-0.149,1.026-0.647
			l0.17,0.07l-0.499,1.335h-3.527v-0.169l2.093-2.232c0.658-0.697,1.106-1.325,1.346-1.863c0.06-0.129,0.089-0.319,0.089-0.538
			c0-0.688-0.398-1.206-1.186-1.206c-0.598,0-1.105,0.289-1.454,0.957L162.794,18.937z"/>
	</g>
	<g clip-path="url(#SVGID_2_)">
		<path d="M63.005,33.821v-0.658h5.022v0.658H63.005z"/>
	</g>
	<g clip-path="url(#SVGID_2_)">
		<path d="M72.908,30.892c0.239-0.588,0.469-0.927,0.817-1.196c0.389-0.299,0.817-0.418,1.275-0.418
			c0.956,0,1.614,0.737,1.614,1.684c0,0.667-0.309,1.126-1.484,2.332l-1.874,1.913v0.05h1.804c0.588,0,0.787-0.149,1.026-0.647
			l0.169,0.07l-0.498,1.335H72.23v-0.169l2.093-2.232c0.657-0.697,1.106-1.325,1.346-1.863c0.06-0.129,0.089-0.319,0.089-0.538
			c0-0.688-0.398-1.206-1.186-1.206c-0.598,0-1.105,0.289-1.454,0.957L72.908,30.892z"/>
	</g>
	<g clip-path="url(#SVGID_2_)">
		<path d="M82.343,29.268l-0.389,1.515l-0.598,2.182c-0.309,1.136-0.647,2.292-0.647,2.451c0,0.12,0.05,0.199,0.179,0.199
			c0.17,0,0.279-0.09,0.817-0.708l0.119,0.1c-0.487,0.728-0.966,1.136-1.464,1.136c-0.26,0-0.409-0.179-0.409-0.448
			c0-0.229,0.021-0.389,0.13-0.887c-0.588,0.986-1.096,1.315-1.773,1.315c-0.647,0-1.066-0.408-1.066-1.166
			c0-1.614,1.614-3.338,2.909-3.338c0.419,0,0.588,0.189,0.648,0.578h0.01l0.448-1.624c0.149-0.528,0.14-0.568,0.14-0.708
			c0-0.209-0.09-0.239-0.638-0.259v-0.169c0.638-0.06,0.996-0.12,1.524-0.229L82.343,29.268z M80.171,31.848
			c-0.279,0-0.628,0.169-0.907,0.458c-0.657,0.697-1.155,1.784-1.155,2.61c0,0.458,0.229,0.728,0.577,0.728
			c0.917,0,1.953-1.714,1.953-3.229C80.639,32.058,80.399,31.848,80.171,31.848z"/>
	</g>
	<g clip-path="url(#SVGID_2_)">
		<path d="M83.408,28.409c0.229-0.502,0.676-0.725,1.192-0.725c0.544,0,0.92,0.349,0.92,0.851c0,0.516-0.285,0.788-1.08,1.067v0.021
			c0.474,0.181,0.662,0.495,0.662,1.004c0,0.551-0.251,1.039-0.648,1.388c-0.342,0.3-0.788,0.432-1.29,0.432
			s-0.774-0.167-0.774-0.397c0-0.174,0.119-0.3,0.3-0.3c0.133,0,0.258,0.042,0.446,0.209c0.182,0.161,0.363,0.223,0.495,0.223
			c0.23,0,0.475-0.125,0.648-0.321c0.182-0.216,0.266-0.551,0.266-0.878c0-0.753-0.446-1.102-1.116-1.102h-0.167v-0.111
			c0.627-0.112,0.92-0.209,1.22-0.418c0.293-0.202,0.433-0.446,0.433-0.739c0-0.383-0.244-0.634-0.613-0.634
			c-0.3,0-0.53,0.139-0.781,0.467L83.408,28.409z"/>
	</g>
	<g clip-path="url(#SVGID_2_)">
		<path d="M97.639,33.821v2.192h-0.657v-2.192h-2.183v-0.658h2.183v-2.192h0.657v2.192h2.183v0.658H97.639z"/>
		<path d="M106.446,33.612h0.956l-0.14,0.628h-1.006l-0.458,1.773h-0.788l0.488-1.773h-2.61l0.199-0.668l4.155-4.294h0.408
			L106.446,33.612z M106.556,30.403l-3.029,3.168v0.04h2.112l0.957-3.208H106.556z"/>
	</g>
	<g clip-path="url(#SVGID_2_)">
		<path d="M114.137,29.268l-0.389,1.515l-0.598,2.182c-0.309,1.136-0.647,2.292-0.647,2.451c0,0.12,0.05,0.199,0.179,0.199
			c0.17,0,0.279-0.09,0.817-0.708l0.119,0.1c-0.487,0.728-0.966,1.136-1.464,1.136c-0.26,0-0.409-0.179-0.409-0.448
			c0-0.229,0.021-0.389,0.13-0.887c-0.588,0.986-1.096,1.315-1.773,1.315c-0.647,0-1.066-0.408-1.066-1.166
			c0-1.614,1.614-3.338,2.909-3.338c0.419,0,0.588,0.189,0.648,0.578h0.01l0.448-1.624c0.149-0.528,0.14-0.568,0.14-0.708
			c0-0.209-0.09-0.239-0.638-0.259v-0.169c0.638-0.06,0.996-0.12,1.524-0.229L114.137,29.268z M111.965,31.848
			c-0.279,0-0.628,0.169-0.907,0.458c-0.657,0.697-1.155,1.784-1.155,2.61c0,0.458,0.229,0.728,0.578,0.728
			c0.916,0,1.952-1.714,1.952-3.229C112.433,32.058,112.193,31.848,111.965,31.848z"/>
	</g>
	<g clip-path="url(#SVGID_2_)">
		<path d="M114.63,28.813c0.168-0.411,0.328-0.648,0.572-0.836c0.271-0.209,0.571-0.293,0.893-0.293c0.669,0,1.13,0.516,1.13,1.178
			c0,0.467-0.217,0.788-1.039,1.632l-1.312,1.339v0.035h1.263c0.411,0,0.551-0.105,0.718-0.454l0.118,0.049l-0.349,0.935h-2.468
			v-0.119l1.464-1.562c0.46-0.488,0.774-0.927,0.941-1.304c0.042-0.091,0.063-0.223,0.063-0.377c0-0.481-0.278-0.844-0.829-0.844
			c-0.419,0-0.774,0.203-1.019,0.669L114.63,28.813z"/>
	</g>
	<g clip-path="url(#SVGID_2_)">
		<path d="M126.593,33.821v-0.658h5.022v0.658H126.593z"/>
	</g>
	<g clip-path="url(#SVGID_2_)">
		<path d="M136.496,30.892c0.239-0.588,0.469-0.927,0.817-1.196c0.389-0.299,0.817-0.418,1.275-0.418
			c0.956,0,1.614,0.737,1.614,1.684c0,0.667-0.309,1.126-1.484,2.332l-1.874,1.913v0.05h1.804c0.588,0,0.787-0.149,1.026-0.647
			l0.169,0.07l-0.498,1.335h-3.527v-0.169l2.093-2.232c0.657-0.697,1.106-1.325,1.346-1.863c0.06-0.129,0.089-0.319,0.089-0.538
			c0-0.688-0.398-1.206-1.186-1.206c-0.598,0-1.105,0.289-1.454,0.957L136.496,30.892z"/>
	</g>
	<g clip-path="url(#SVGID_2_)">
		<path d="M145.931,29.268l-0.389,1.515l-0.598,2.182c-0.309,1.136-0.647,2.292-0.647,2.451c0,0.12,0.05,0.199,0.179,0.199
			c0.17,0,0.279-0.09,0.817-0.708l0.119,0.1c-0.487,0.728-0.966,1.136-1.464,1.136c-0.26,0-0.409-0.179-0.409-0.448
			c0-0.229,0.021-0.389,0.13-0.887c-0.588,0.986-1.096,1.315-1.773,1.315c-0.647,0-1.066-0.408-1.066-1.166
			c0-1.614,1.614-3.338,2.909-3.338c0.419,0,0.588,0.189,0.648,0.578h0.01l0.448-1.624c0.149-0.528,0.14-0.568,0.14-0.708
			c0-0.209-0.09-0.239-0.638-0.259v-0.169c0.638-0.06,0.996-0.12,1.524-0.229L145.931,29.268z M143.759,31.848
			c-0.279,0-0.628,0.169-0.907,0.458c-0.657,0.697-1.155,1.784-1.155,2.61c0,0.458,0.229,0.728,0.577,0.728
			c0.917,0,1.953-1.714,1.953-3.229C144.227,32.058,143.987,31.848,143.759,31.848z"/>
	</g>
	
		<line clip-path="url(#SVGID_2_)" fill="none" stroke="#000000" stroke-width="0.398" stroke-miterlimit="10" x1="59.934" y1="39.799" x2="145.865" y2="39.799"/>
	<g clip-path="url(#SVGID_2_)">
		<path d="M102.948,44.221c0.03,0,0.05,0.031,0.05,0.07c0,0.05-0.02,0.149-0.06,0.289l-1.425,5.172
			c-0.07,0.248-0.18,0.637-0.18,0.736c0,0.229,0.22,0.319,0.658,0.319h0.209v0.149h-2.78v-0.149c0.787-0.06,1.007-0.169,1.116-0.548
			l1.355-4.863c0.05-0.188,0.079-0.288,0.079-0.357c0-0.189-0.129-0.31-0.349-0.31h-0.03c-0.179,0-0.398,0.01-0.588,0.021V44.6
			l0.229-0.049c0.877-0.189,0.917-0.17,1.684-0.33H102.948z"/>
		<path d="M107.053,50.598c-0.408,0.289-0.837,0.43-1.255,0.43c-1.017,0-1.575-0.838-1.575-2.223c0-2.342,1.485-4.584,3.05-4.584
			c1.016,0,1.584,0.888,1.584,2.502C108.856,48.188,108.079,49.871,107.053,50.598z M107.232,44.5c-0.448,0-0.837,0.299-1.196,0.947
			c-0.518,0.937-1.025,2.889-1.025,3.955c0,0.848,0.328,1.346,0.807,1.346c0.458,0,0.917-0.339,1.285-0.996
			c0.578-1.018,0.967-2.661,0.967-3.956C108.069,44.998,107.83,44.5,107.232,44.5z"/>
	</g>
	<g clip-path="url(#SVGID_2_)">
		<path d="M114.137,44.211l-0.389,1.516l-0.598,2.182c-0.309,1.136-0.647,2.291-0.647,2.451c0,0.119,0.05,0.199,0.179,0.199
			c0.17,0,0.279-0.09,0.817-0.707l0.119,0.1c-0.487,0.727-0.966,1.135-1.464,1.135c-0.26,0-0.409-0.179-0.409-0.447
			c0-0.229,0.021-0.389,0.13-0.887c-0.588,0.986-1.096,1.314-1.773,1.314c-0.647,0-1.066-0.408-1.066-1.166
			c0-1.613,1.614-3.338,2.909-3.338c0.419,0,0.588,0.189,0.648,0.578h0.01l0.448-1.624c0.149-0.528,0.14-0.567,0.14-0.708
			c0-0.209-0.09-0.238-0.638-0.258v-0.17c0.638-0.061,0.996-0.119,1.524-0.229L114.137,44.211z M111.965,46.792
			c-0.279,0-0.628,0.169-0.907,0.458c-0.657,0.697-1.155,1.784-1.155,2.611c0,0.458,0.229,0.727,0.578,0.727
			c0.916,0,1.952-1.713,1.952-3.229C112.433,47.002,112.193,46.792,111.965,46.792z"/>
	</g>
	<g clip-path="url(#SVGID_2_)">
		<path d="M114.63,43.758c0.168-0.412,0.328-0.648,0.572-0.837c0.271-0.21,0.571-0.293,0.893-0.293c0.669,0,1.13,0.517,1.13,1.179
			c0,0.467-0.217,0.787-1.039,1.631l-1.312,1.34v0.035h1.263c0.411,0,0.551-0.105,0.718-0.454l0.118,0.049l-0.349,0.935h-2.468
			v-0.119l1.464-1.562c0.46-0.487,0.774-0.927,0.941-1.304c0.042-0.091,0.063-0.223,0.063-0.377c0-0.48-0.278-0.844-0.829-0.844
			c-0.419,0-0.774,0.203-1.019,0.67L114.63,43.758z"/>
	</g>
	<g clip-path="url(#SVGID_2_)">
		<path d="M129.433,48.766v2.191h-0.657v-2.191h-2.183v-0.658h2.183v-2.192h0.657v2.192h2.183v0.658H129.433z"/>
		<path d="M138.24,48.556h0.956l-0.14,0.628h-1.006l-0.458,1.773h-0.788l0.488-1.773h-2.61l0.199-0.668l4.155-4.295h0.408
			L138.24,48.556z M138.35,45.348l-3.029,3.168v0.04h2.112l0.957-3.208H138.35z"/>
	</g>
	<g clip-path="url(#SVGID_2_)">
		<path d="M145.931,44.211l-0.389,1.516l-0.598,2.182c-0.309,1.136-0.647,2.291-0.647,2.451c0,0.119,0.05,0.199,0.179,0.199
			c0.17,0,0.279-0.09,0.817-0.707l0.119,0.1c-0.487,0.727-0.966,1.135-1.464,1.135c-0.26,0-0.409-0.179-0.409-0.447
			c0-0.229,0.021-0.389,0.13-0.887c-0.588,0.986-1.096,1.314-1.773,1.314c-0.647,0-1.066-0.408-1.066-1.166
			c0-1.613,1.614-3.338,2.909-3.338c0.419,0,0.588,0.189,0.648,0.578h0.01l0.448-1.624c0.149-0.528,0.14-0.567,0.14-0.708
			c0-0.209-0.09-0.238-0.638-0.258v-0.17c0.638-0.061,0.996-0.119,1.524-0.229L145.931,44.211z M143.759,46.792
			c-0.279,0-0.628,0.169-0.907,0.458c-0.657,0.697-1.155,1.784-1.155,2.611c0,0.458,0.229,0.727,0.577,0.727
			c0.917,0,1.953-1.713,1.953-3.229C144.227,47.002,143.987,46.792,143.759,46.792z"/>
	</g>
	<g clip-path="url(#SVGID_2_)">
		<path d="M156.757,48.766v2.191H156.1v-2.191h-2.183v-0.658h2.183v-2.192h0.657v2.192h2.183v0.658H156.757z"/>
		<path d="M162.794,45.836c0.239-0.588,0.469-0.928,0.817-1.196c0.389-0.299,0.817-0.419,1.275-0.419
			c0.956,0,1.614,0.738,1.614,1.685c0,0.667-0.309,1.126-1.484,2.331l-1.874,1.914v0.049h1.804c0.588,0,0.787-0.148,1.026-0.646
			l0.17,0.069l-0.499,1.335h-3.527v-0.17l2.093-2.231c0.658-0.697,1.106-1.325,1.346-1.863c0.06-0.13,0.089-0.319,0.089-0.538
			c0-0.688-0.398-1.205-1.186-1.205c-0.598,0-1.105,0.289-1.454,0.956L162.794,45.836z"/>
	</g>
	<g clip-path="url(#SVGID_2_)">
		<path d="M89.817,60.721v-0.657h5.022v0.657H89.817z"/>
	</g>
	<g clip-path="url(#SVGID_2_)">
		<path d="M102.948,56.178c0.03,0,0.05,0.029,0.05,0.069c0,0.05-0.02,0.149-0.06,0.289l-1.425,5.171
			c-0.07,0.25-0.18,0.639-0.18,0.738c0,0.229,0.22,0.318,0.658,0.318h0.209v0.149h-2.78v-0.149c0.787-0.061,1.007-0.17,1.116-0.548
			l1.355-4.862c0.05-0.189,0.079-0.289,0.079-0.359c0-0.189-0.129-0.309-0.349-0.309h-0.03c-0.179,0-0.398,0.01-0.588,0.02v-0.148
			l0.229-0.051c0.877-0.189,0.917-0.169,1.684-0.328H102.948z"/>
		<path d="M107.053,62.555c-0.408,0.289-0.837,0.428-1.255,0.428c-1.017,0-1.575-0.836-1.575-2.222c0-2.341,1.485-4.583,3.05-4.583
			c1.016,0,1.584,0.887,1.584,2.5C108.856,60.143,108.079,61.827,107.053,62.555z M107.232,56.457c-0.448,0-0.837,0.299-1.196,0.945
			c-0.518,0.938-1.025,2.891-1.025,3.957c0,0.846,0.328,1.344,0.807,1.344c0.458,0,0.917-0.338,1.285-0.996
			c0.578-1.016,0.967-2.66,0.967-3.955C108.069,56.955,107.83,56.457,107.232,56.457z"/>
	</g>
	<g clip-path="url(#SVGID_2_)">
		<path d="M114.137,56.168l-0.389,1.514l-0.598,2.183c-0.309,1.136-0.647,2.292-0.647,2.451c0,0.119,0.05,0.199,0.179,0.199
			c0.17,0,0.279-0.09,0.817-0.708l0.119,0.1c-0.487,0.729-0.966,1.137-1.464,1.137c-0.26,0-0.409-0.18-0.409-0.449
			c0-0.229,0.021-0.389,0.13-0.887c-0.588,0.986-1.096,1.315-1.773,1.315c-0.647,0-1.066-0.408-1.066-1.165
			c0-1.615,1.614-3.338,2.909-3.338c0.419,0,0.588,0.189,0.648,0.577h0.01l0.448-1.624c0.149-0.527,0.14-0.568,0.14-0.707
			c0-0.209-0.09-0.239-0.638-0.26v-0.169c0.638-0.06,0.996-0.12,1.524-0.229L114.137,56.168z M111.965,58.748
			c-0.279,0-0.628,0.17-0.907,0.459c-0.657,0.697-1.155,1.783-1.155,2.609c0,0.459,0.229,0.729,0.578,0.729
			c0.916,0,1.952-1.715,1.952-3.229C112.433,58.957,112.193,58.748,111.965,58.748z"/>
	</g>
	<g clip-path="url(#SVGID_2_)">
		<path d="M114.63,55.713c0.168-0.412,0.328-0.648,0.572-0.837c0.271-0.21,0.571-0.293,0.893-0.293c0.669,0,1.13,0.517,1.13,1.179
			c0,0.467-0.217,0.787-1.039,1.631l-1.312,1.34v0.035h1.263c0.411,0,0.551-0.105,0.718-0.454l0.118,0.049l-0.349,0.935h-2.468
			v-0.119l1.464-1.562c0.46-0.487,0.774-0.927,0.941-1.304c0.042-0.091,0.063-0.223,0.063-0.377c0-0.48-0.278-0.844-0.829-0.844
			c-0.419,0-0.774,0.203-1.019,0.67L114.63,55.713z"/>
	</g>
	<g clip-path="url(#SVGID_2_)">
		<path d="M124.451,60.721v2.192h-0.657v-2.192h-2.183v-0.657h2.183v-2.192h0.657v2.192h2.183v0.657H124.451z"/>
		<path d="M130.488,57.791c0.239-0.588,0.469-0.926,0.817-1.195c0.389-0.299,0.817-0.418,1.275-0.418
			c0.956,0,1.614,0.736,1.614,1.684c0,0.668-0.309,1.126-1.484,2.332l-1.874,1.912v0.051h1.804c0.588,0,0.787-0.15,1.026-0.648
			l0.169,0.07l-0.498,1.335h-3.527v-0.169l2.093-2.232c0.657-0.697,1.106-1.325,1.346-1.863c0.06-0.129,0.089-0.318,0.089-0.538
			c0-0.688-0.398-1.206-1.186-1.206c-0.598,0-1.105,0.289-1.454,0.957L130.488,57.791z"/>
		<path d="M137.821,62.555c-0.408,0.289-0.837,0.428-1.255,0.428c-1.017,0-1.574-0.836-1.574-2.222c0-2.341,1.484-4.583,3.049-4.583
			c1.016,0,1.584,0.887,1.584,2.5C139.625,60.143,138.848,61.827,137.821,62.555z M138.001,56.457c-0.448,0-0.837,0.299-1.196,0.945
			c-0.518,0.938-1.025,2.891-1.025,3.957c0,0.846,0.328,1.344,0.807,1.344c0.458,0,0.917-0.338,1.285-0.996
			c0.578-1.016,0.967-2.66,0.967-3.955C138.838,56.955,138.599,56.457,138.001,56.457z"/>
	</g>
	<g clip-path="url(#SVGID_2_)">
		<path d="M145.931,56.168l-0.389,1.514l-0.598,2.183c-0.309,1.136-0.647,2.292-0.647,2.451c0,0.119,0.05,0.199,0.179,0.199
			c0.17,0,0.279-0.09,0.817-0.708l0.119,0.1c-0.487,0.729-0.966,1.137-1.464,1.137c-0.26,0-0.409-0.18-0.409-0.449
			c0-0.229,0.021-0.389,0.13-0.887c-0.588,0.986-1.096,1.315-1.773,1.315c-0.647,0-1.066-0.408-1.066-1.165
			c0-1.615,1.614-3.338,2.909-3.338c0.419,0,0.588,0.189,0.648,0.577h0.01l0.448-1.624c0.149-0.527,0.14-0.568,0.14-0.707
			c0-0.209-0.09-0.239-0.638-0.26v-0.169c0.638-0.06,0.996-0.12,1.524-0.229L145.931,56.168z M143.759,58.748
			c-0.279,0-0.628,0.17-0.907,0.459c-0.657,0.697-1.155,1.783-1.155,2.609c0,0.459,0.229,0.729,0.577,0.729
			c0.917,0,1.953-1.715,1.953-3.229C144.227,58.957,143.987,58.748,143.759,58.748z"/>
	</g>
	<g clip-path="url(#SVGID_2_)">
		<path d="M148.936,60.721v-0.657h5.022v0.657H148.936z"/>
	</g>
	<g clip-path="url(#SVGID_2_)">
		<path d="M162.067,56.178c0.03,0,0.05,0.029,0.05,0.069c0,0.05-0.02,0.149-0.06,0.289l-1.425,5.171
			c-0.07,0.25-0.18,0.639-0.18,0.738c0,0.229,0.22,0.318,0.658,0.318h0.209v0.149h-2.78v-0.149c0.787-0.061,1.007-0.17,1.116-0.548
			l1.355-4.862c0.05-0.189,0.079-0.289,0.079-0.359c0-0.189-0.129-0.309-0.349-0.309h-0.03c-0.179,0-0.398,0.01-0.588,0.02v-0.148
			l0.229-0.051c0.877-0.189,0.917-0.169,1.684-0.328H162.067z"/>
		<path d="M166.172,62.555c-0.408,0.289-0.837,0.428-1.255,0.428c-1.017,0-1.575-0.836-1.575-2.222c0-2.341,1.485-4.583,3.05-4.583
			c1.016,0,1.584,0.887,1.584,2.5C167.976,60.143,167.198,61.827,166.172,62.555z M166.352,56.457c-0.448,0-0.837,0.299-1.196,0.945
			c-0.518,0.938-1.025,2.891-1.025,3.957c0,0.846,0.328,1.344,0.807,1.344c0.458,0,0.917-0.338,1.285-0.996
			c0.578-1.016,0.967-2.66,0.967-3.955C167.188,56.955,166.949,56.457,166.352,56.457z"/>
	</g>
	
		<line clip-path="url(#SVGID_2_)" fill="none" stroke="#000000" stroke-width="0.398" stroke-miterlimit="10" x1="86.747" y1="66.698" x2="168.005" y2="66.698"/>
	<g clip-path="url(#SVGID_2_)">
		<path fill="#0D8140" d="M131.514,72.735c0.239-0.588,0.469-0.927,0.817-1.196c0.389-0.299,0.817-0.418,1.275-0.418
			c0.956,0,1.614,0.737,1.614,1.684c0,0.668-0.309,1.127-1.484,2.332l-1.874,1.913v0.05h1.804c0.588,0,0.787-0.149,1.026-0.647
			l0.169,0.069l-0.498,1.336h-3.527v-0.17l2.093-2.232c0.657-0.697,1.106-1.324,1.346-1.863c0.06-0.129,0.089-0.318,0.089-0.537
			c0-0.688-0.398-1.206-1.186-1.206c-0.598,0-1.105,0.289-1.454,0.956L131.514,72.735z"/>
		<path fill="#0D8140" d="M139.266,75.455h0.956l-0.14,0.629h-1.006l-0.458,1.773h-0.788l0.488-1.773h-2.61l0.199-0.668l4.155-4.295
			h0.408L139.266,75.455z M139.375,72.247l-3.029,3.169v0.039h2.112l0.957-3.208H139.375z"/>
	</g>
	<g clip-path="url(#SVGID_2_)">
		<path d="M145.931,71.111l-0.389,1.515l-0.598,2.183c-0.309,1.135-0.647,2.291-0.647,2.451c0,0.119,0.05,0.199,0.179,0.199
			c0.17,0,0.279-0.09,0.817-0.708l0.119,0.1c-0.487,0.728-0.966,1.136-1.464,1.136c-0.26,0-0.409-0.18-0.409-0.448
			c0-0.229,0.021-0.389,0.13-0.887c-0.588,0.986-1.096,1.315-1.773,1.315c-0.647,0-1.066-0.408-1.066-1.166
			c0-1.614,1.614-3.338,2.909-3.338c0.419,0,0.588,0.189,0.648,0.578h0.01l0.448-1.625c0.149-0.527,0.14-0.567,0.14-0.707
			c0-0.209-0.09-0.238-0.638-0.259v-0.169c0.638-0.061,0.996-0.12,1.524-0.229L145.931,71.111z M143.759,73.691
			c-0.279,0-0.628,0.17-0.907,0.459c-0.657,0.697-1.155,1.783-1.155,2.61c0,0.458,0.229,0.728,0.577,0.728
			c0.917,0,1.953-1.714,1.953-3.229C144.227,73.901,143.987,73.691,143.759,73.691z"/>
	</g>
	<g clip-path="url(#SVGID_2_)">
		<path fill="#0D8140" d="M153.917,75.665v-0.657h5.022v0.657H153.917z"/>
	</g>
	<g clip-path="url(#SVGID_2_)">
		<path fill="#0D8140" d="M165.266,74.26c-0.658-0.727-0.867-1.086-0.867-1.624c0-0.956,0.747-1.515,1.813-1.515
			s1.724,0.549,1.724,1.355c0,0.777-0.438,1.215-1.634,1.574v0.01c0.856,0.787,1.146,1.266,1.146,1.992
			c0,1.107-0.906,1.874-2.142,1.874c-1.017,0-1.983-0.488-1.983-1.674c0-0.937,0.747-1.634,1.943-1.983V74.26z M165.484,74.43
			c-0.896,0.338-1.484,1.076-1.484,1.942c0,0.817,0.707,1.335,1.385,1.335c0.787,0,1.315-0.707,1.315-1.395
			C166.7,75.744,166.581,75.565,165.484,74.43z M166.192,71.351c-0.638,0-1.017,0.429-1.017,1.076c0,0.419,0.169,0.728,0.946,1.454
			c0.867-0.408,1.136-0.757,1.136-1.305C167.258,71.869,166.83,71.351,166.192,71.351z"/>
	</g>
	<g clip-path="url(#SVGID_2_)">
		<path d="M60.289,12.885c2.143,1.289,3.418,3.628,3.418,6.009c0,2.591-1.233,4.581-3.46,5.939l-0.126-0.224
			c1.989-1.639,2.381-2.956,2.381-5.673c0-2.619-0.35-4.23-2.381-5.827L60.289,12.885z"/>
	</g>
</g>
</svg>
