<?xml version="1.0" encoding="utf-8"?>
<!-- Generator: Adobe Illustrator 15.0.0, SVG Export Plug-In . SVG Version: 6.00 Build 0)  -->
<!DOCTYPE svg PUBLIC "-//W3C//DTD SVG 1.0//EN" "http://www.w3.org/TR/2001/REC-SVG-20010904/DTD/svg10.dtd">
<svg version="1.0" id="Layer_1" xmlns="http://www.w3.org/2000/svg" xmlns:xlink="http://www.w3.org/1999/xlink" x="0px" y="0px"
	 width="345.827px" height="283.465px" viewBox="0 0 345.827 283.465" enable-background="new 0 0 345.827 283.465"
	 xml:space="preserve">
<g>
	<path fill="#231F20" d="M308.452,29.036l2.31,6.293c0.265,0.704,0.529,1.54,0.705,2.178h0.043c0.199-0.638,0.418-1.452,0.683-2.222
		l2.112-6.249h2.047l-2.904,7.591c-1.387,3.653-2.333,5.501-3.653,6.667c-0.968,0.814-1.892,1.145-2.376,1.232l-0.484-1.606
		c0.484-0.154,1.122-0.462,1.694-0.946c0.528-0.418,1.166-1.166,1.628-2.156c0.088-0.198,0.154-0.352,0.154-0.462
		s-0.044-0.264-0.154-0.506l-3.916-9.813H308.452z"/>
	<path fill="#231F20" d="M318.285,42.149V24.591h4.027v1.21h-2.509v15.138h2.509v1.21H318.285z"/>
	<path fill="#231F20" d="M324.357,31.918c0-1.122-0.021-2.002-0.088-2.882h1.717l0.109,1.76h0.045c0.527-0.99,1.76-1.98,3.52-1.98
		c1.475,0,3.763,0.88,3.763,4.533v6.337h-1.937v-6.139c0-1.716-0.638-3.146-2.464-3.146c-1.255,0-2.245,0.902-2.597,1.98
		c-0.088,0.242-0.132,0.572-0.132,0.902v6.403h-1.937V31.918z"/>
	<path fill="#231F20" d="M339.428,24.591v17.559h-4.026v-1.21h2.509V25.801h-2.509v-1.21H339.428z"/>
</g>
<g>
	<path fill="#231F20" d="M7.302,29.036l1.518,2.288c0.418,0.594,0.749,1.122,1.101,1.716h0.044c0.352-0.616,0.704-1.166,1.078-1.738
		l1.474-2.266h2.112l-3.63,5.148l3.718,5.501h-2.178l-1.584-2.398c-0.418-0.616-0.77-1.21-1.144-1.848H9.766
		c-0.352,0.638-0.704,1.21-1.122,1.848l-1.54,2.398H4.97l3.784-5.435l-3.608-5.215H7.302z"/>
	<path fill="#231F20" d="M16.762,42.149V24.591h4.026v1.21H18.28v15.138h2.508v1.21H16.762z"/>
	<path fill="#231F20" d="M22.834,31.918c0-1.122-0.022-2.002-0.088-2.882h1.716l0.11,1.76h0.044c0.528-0.99,1.76-1.98,3.521-1.98
		c1.474,0,3.762,0.88,3.762,4.533v6.337h-1.936v-6.139c0-1.716-0.638-3.146-2.464-3.146c-1.254,0-2.245,0.902-2.597,1.98
		c-0.088,0.242-0.132,0.572-0.132,0.902v6.403h-1.936V31.918z"/>
	<path fill="#231F20" d="M37.904,24.591v17.559h-4.027v-1.21h2.508V25.801h-2.508v-1.21H37.904z"/>
</g>
<g>
	
		<rect x="73.704" y="192.756" fill="#EAEAFF" stroke="#231F20" stroke-width="2" stroke-miterlimit="10" width="45.352" height="45.352"/>
	<g>
		<path fill="#231F20" d="M87.93,220.184l3.925-5.131c0.396-0.486,0.756-0.9,1.152-1.368v-0.036H88.29v-1.261h6.626v0.991
			l-3.889,5.059c-0.378,0.486-0.72,0.937-1.116,1.369v0.036h5.078v1.26H87.93V220.184z"/>
		<path fill="#231F20" d="M98.632,208.515v0.768H95.67v-0.768H98.632z"/>
		<path fill="#231F20" d="M101.824,205.324H101.8l-1.355,0.732l-0.204-0.804l1.703-0.912h0.9v7.796h-1.02V205.324z"/>
	</g>
	<g id="Timer_1_" opacity="0.5">
		<path fill-rule="evenodd" clip-rule="evenodd" d="M77.911,206.758c-0.116,0.587-0.114,1.224-0.639,1.276
			c-0.813,0.081-0.6-0.874-0.446-1.595c0.161-0.755,0.231-1.539,0.637-1.787c0.74,0.194,3.462-0.011,3,1.34
			c-0.363,0.432-1.047,0.083-1.595,0c0.806,1.189,2.111,2.235,3.892,2.425c3.412,0.363,6.126-1.976,6.446-4.978
			c0.41-3.853-2.558-6.815-6.382-6.445c-1.452,0.141-2.334,0.82-3.382,1.595c-0.401,0.45-0.929,1.698-1.723,0.958
			c-0.096-0.717,0.513-1.351,0.957-1.787c0.998-0.979,2.646-1.793,4.212-1.915c4.119-0.321,7.192,2.758,7.466,6.318
			c0.185,2.401-0.806,4.06-2.042,5.488c-1.148,0.932-2.413,1.778-4.275,1.915C81.25,209.769,79.114,208.298,77.911,206.758z"/>
		<path fill-rule="evenodd" clip-rule="evenodd" d="M83.767,199.611c0.274,0.683,0.06,1.855,0.127,2.744
			c0.394,0.603,0.97,1.033,1.468,1.532c0.459,0.459,1.151,0.909,1.212,1.723c-0.591,0.91-1.656-0.508-2.233-1.084
			c-0.654-0.654-1.188-1.187-1.531-1.659c0.108-1.041-0.229-2.526,0.191-3.255C83.123,199.394,83.625,199.475,83.767,199.611z"/>
	</g>
	<g display="none">
		<path display="inline" fill-rule="evenodd" clip-rule="evenodd" fill="#231F20" d="M78.484,195.528
			c2.802,0.067,5.933-0.09,8.848,0c0.315,0.009,0.829-0.13,0.928,0.309c0.012,0.549-0.744,0.329-1.238,0.371
			c-0.067,2.234-2.703,3.505-1.918,5.754c0.469,1.344,1.839,2.288,1.856,4.146c0.487,0.049,1.247-0.174,1.299,0.31
			c-0.291,0.635-1.495,0.371-2.352,0.371c-2.179,0-4.443,0.047-6.683,0c-0.346-0.006-0.875,0.14-0.99-0.309
			c-0.012-0.549,0.743-0.329,1.238-0.371c0.105-1.648,1.424-2.84,1.918-4.084c0.124-0.31,0.196-0.931,0.062-1.485
			c-0.377-1.558-1.778-2.4-1.918-4.331c-0.411-0.043-1.018,0.109-1.237-0.124C78.179,195.855,78.287,195.613,78.484,195.528z
			 M80.278,196.208c0.236,2.107,2.008,3.007,1.98,5.074c-0.027,2-1.94,2.692-1.98,4.826c1.98,0,3.959,0,5.94,0
			c-0.048-1.867-1.471-2.643-1.856-4.084c-0.652-2.437,1.639-3.528,1.856-5.816C84.238,196.208,82.258,196.208,80.278,196.208z"/>
	</g>
</g>
<g>
	
		<rect x="73.704" y="62.365" fill="#EAEAFF" stroke="#231F20" stroke-width="2" stroke-miterlimit="10" width="45.352" height="45.352"/>
	<g>
		<path fill="#231F20" d="M87.93,89.792l3.925-5.131c0.396-0.486,0.756-0.9,1.152-1.368v-0.036H88.29v-1.261h6.626v0.991
			l-3.889,5.059c-0.378,0.486-0.72,0.937-1.116,1.369v0.036h5.078v1.26H87.93V89.792z"/>
		<path fill="#231F20" d="M98.632,78.123v0.768H95.67v-0.768H98.632z"/>
		<path fill="#231F20" d="M101.825,74.933h-0.024l-1.355,0.732l-0.204-0.804l1.703-0.912h0.9v7.796h-1.02V74.933z"/>
	</g>
	<g id="Timer_2_" opacity="0.5">
		<path fill-rule="evenodd" clip-rule="evenodd" d="M77.911,76.367c-0.116,0.587-0.114,1.224-0.639,1.276
			c-0.813,0.081-0.6-0.874-0.446-1.595c0.161-0.755,0.231-1.539,0.637-1.787c0.74,0.194,3.462-0.011,3,1.34
			c-0.363,0.432-1.047,0.083-1.595,0c0.806,1.189,2.111,2.235,3.892,2.425c3.412,0.363,6.126-1.976,6.446-4.978
			c0.41-3.853-2.558-6.815-6.382-6.445c-1.452,0.141-2.334,0.82-3.382,1.595c-0.401,0.45-0.929,1.698-1.723,0.958
			c-0.096-0.717,0.513-1.351,0.957-1.787c0.998-0.979,2.646-1.793,4.212-1.915c4.119-0.321,7.192,2.758,7.466,6.318
			c0.185,2.401-0.806,4.06-2.042,5.488c-1.148,0.932-2.413,1.778-4.275,1.915C81.25,79.377,79.114,77.906,77.911,76.367z"/>
		<path fill-rule="evenodd" clip-rule="evenodd" d="M83.767,69.219c0.274,0.683,0.06,1.855,0.127,2.744
			c0.394,0.603,0.97,1.033,1.468,1.532c0.459,0.459,1.151,0.909,1.212,1.723c-0.591,0.91-1.656-0.508-2.233-1.084
			c-0.654-0.654-1.188-1.187-1.531-1.659c0.108-1.041-0.229-2.526,0.191-3.255C83.123,69.002,83.625,69.083,83.767,69.219z"/>
	</g>
	<g display="none">
		<path display="inline" fill-rule="evenodd" clip-rule="evenodd" fill="#231F20" d="M78.484,65.136c2.802,0.067,5.933-0.09,8.848,0
			c0.315,0.009,0.829-0.13,0.928,0.309c0.012,0.549-0.744,0.329-1.238,0.371c-0.067,2.234-2.703,3.505-1.918,5.754
			c0.469,1.344,1.839,2.288,1.856,4.146c0.487,0.049,1.247-0.174,1.299,0.31c-0.291,0.635-1.495,0.371-2.352,0.371
			c-2.179,0-4.443,0.047-6.683,0c-0.346-0.006-0.875,0.14-0.99-0.309c-0.012-0.549,0.743-0.329,1.238-0.371
			c0.105-1.648,1.424-2.84,1.918-4.084c0.124-0.31,0.196-0.931,0.062-1.485c-0.377-1.558-1.778-2.4-1.918-4.331
			c-0.411-0.043-1.018,0.109-1.237-0.124C78.179,65.464,78.287,65.221,78.484,65.136z M80.278,65.816
			c0.236,2.107,2.008,3.007,1.98,5.074c-0.027,2-1.94,2.692-1.98,4.826c1.98,0,3.959,0,5.94,0c-0.048-1.867-1.471-2.643-1.856-4.084
			c-0.652-2.437,1.639-3.528,1.856-5.816C84.238,65.816,82.258,65.816,80.278,65.816z"/>
	</g>
</g>
<g>
	<circle fill="none" stroke="#231F20" stroke-width="2.2229" stroke-miterlimit="10" cx="221.103" cy="34.016" r="11.339"/>
	
		<line fill="none" stroke="#231F20" stroke-width="1.9883" stroke-miterlimit="10" x1="221.102" y1="28.347" x2="221.102" y2="39.686"/>
	
		<line fill="none" stroke="#231F20" stroke-width="1.9883" stroke-miterlimit="10" x1="215.434" y1="34.016" x2="226.771" y2="34.016"/>
</g>
<line fill="none" stroke="#231F20" stroke-width="1.118" stroke-miterlimit="10" x1="96.378" y1="238.111" x2="96.378" y2="266.457"/>
<line fill="none" stroke="#231F20" stroke-width="1.118" stroke-miterlimit="10" x1="96.378" y1="107.717" x2="96.378" y2="136.063"/>
<g>
	<g>
		<line fill="none" stroke="#231F20" stroke-miterlimit="10" x1="96.378" y1="136.063" x2="96.378" y2="138.563"/>
		
			<line fill="none" stroke="#231F20" stroke-miterlimit="10" stroke-dasharray="4.6008,4.6008" x1="96.378" y1="143.164" x2="96.378" y2="186.872"/>
		<line fill="none" stroke="#231F20" stroke-miterlimit="10" x1="96.378" y1="189.172" x2="96.378" y2="191.672"/>
		<g>
			<polygon fill="#231F20" points="92.288,188.358 93.021,187.676 96.377,191.288 99.734,187.676 100.467,188.358 96.377,192.756 
							"/>
		</g>
	</g>
</g>
<g>
	<g>
		<line fill="none" stroke="#231F20" stroke-miterlimit="10" x1="221.103" y1="255.119" x2="221.103" y2="251.673"/>
		
			<line fill="none" stroke="#231F20" stroke-miterlimit="10" stroke-dasharray="6.6493,6.6493" x1="221.103" y1="245.024" x2="221.103" y2="155.257"/>
		<line fill="none" stroke="#231F20" stroke-miterlimit="10" x1="221.103" y1="151.933" x2="221.103" y2="148.487"/>
		<g>
			<polygon fill="#231F20" points="225.193,151.8 224.46,152.482 221.104,148.871 217.747,152.482 217.014,151.8 221.104,147.402 
							"/>
		</g>
	</g>
</g>
<g>
	<g>
		<line fill="none" stroke="#231F20" stroke-miterlimit="10" x1="221.103" y1="124.725" x2="221.103" y2="46.439"/>
		<g>
			<polygon fill="#231F20" points="225.193,49.752 224.46,50.435 221.104,46.823 217.747,50.435 217.014,49.752 221.104,45.354 			
				"/>
		</g>
	</g>
</g>
<g>
	<g>
		<line fill="none" stroke="#231F20" stroke-miterlimit="10" x1="158.74" y1="153.071" x2="158.74" y2="153.571"/>
		
			<line fill="none" stroke="#231F20" stroke-miterlimit="10" stroke-dasharray="1.0239,7.1677" x1="158.74" y1="160.739" x2="158.74" y2="222.688"/>
		<line fill="none" stroke="#231F20" stroke-miterlimit="10" x1="158.74" y1="226.272" x2="158.74" y2="226.772"/>
	</g>
</g>
<g>
	<g>
		<line fill="none" stroke="#231F20" stroke-miterlimit="10" x1="232.443" y1="34.015" x2="299.389" y2="34.015"/>
		<g>
			<polygon fill="#231F20" points="296.074,38.105 295.393,37.373 299.004,34.016 295.393,30.659 296.074,29.926 300.473,34.016 			
				"/>
		</g>
	</g>
</g>
<g>
	<g>
		<line fill="none" stroke="#231F20" stroke-miterlimit="10" x1="170.079" y1="34.016" x2="208.679" y2="34.016"/>
		<g>
			<polygon fill="#231F20" points="205.366,38.105 204.684,37.373 208.295,34.017 204.684,30.659 205.366,29.927 209.764,34.017 			
				"/>
		</g>
	</g>
</g>
<g>
	<g>
		<line fill="none" stroke="#231F20" stroke-miterlimit="10" x1="96.378" y1="34.016" x2="96.378" y2="61.278"/>
		<g>
			<polygon fill="#231F20" points="92.288,57.964 93.021,57.282 96.377,60.894 99.734,57.282 100.467,57.964 96.377,62.362 			"/>
		</g>
	</g>
</g>
<g>
	<g>
		<line fill="none" stroke="#231F20" stroke-miterlimit="10" x1="45.354" y1="34.016" x2="146.317" y2="34.016"/>
		<g>
			<polygon fill="#231F20" points="143.003,38.105 142.321,37.373 145.933,34.017 142.321,30.659 143.003,29.927 147.401,34.017 			
				"/>
		</g>
	</g>
</g>
<polygon fill="#EAEAFF" stroke="#231F20" stroke-width="2" stroke-miterlimit="10" points="147.401,22.677 147.401,45.354 
	170.078,34.016 "/>
<g>
	<g>
		<line fill="none" stroke="#231F20" stroke-miterlimit="10" x1="96.378" y1="136.063" x2="146.317" y2="136.063"/>
		<g>
			<polygon fill="#231F20" points="143.003,140.153 142.321,139.421 145.933,136.064 142.321,132.707 143.003,131.975 
				147.401,136.064 			"/>
		</g>
	</g>
</g>
<g>
	<circle fill="none" stroke="#231F20" stroke-width="2.2229" stroke-miterlimit="10" cx="221.103" cy="136.063" r="11.339"/>
	
		<line fill="none" stroke="#231F20" stroke-width="1.9883" stroke-miterlimit="10" x1="221.102" y1="130.394" x2="221.102" y2="141.733"/>
	
		<line fill="none" stroke="#231F20" stroke-width="1.9883" stroke-miterlimit="10" x1="215.434" y1="136.063" x2="226.771" y2="136.063"/>
</g>
<g>
	<g>
		<line fill="none" stroke="#231F20" stroke-miterlimit="10" x1="170.079" y1="136.063" x2="208.679" y2="136.063"/>
		<g>
			<polygon fill="#231F20" points="205.366,140.153 204.684,139.42 208.295,136.064 204.684,132.707 205.366,131.974 
				209.764,136.064 			"/>
		</g>
	</g>
</g>
<polygon fill="#EAEAFF" stroke="#231F20" stroke-width="2" stroke-miterlimit="10" points="147.401,124.725 147.401,147.402 
	170.078,136.063 "/>
<g>
	<path fill="#231F20" d="M151.856,106.272h1.566v5.474h0.036c0.558-0.972,1.566-1.584,2.971-1.584c2.179,0,3.691,1.8,3.691,4.429
		c0,3.115-1.98,4.664-3.925,4.664c-1.261,0-2.269-0.486-2.935-1.621h-0.036l-0.09,1.422h-1.351c0.036-0.594,0.072-1.477,0.072-2.25
		V106.272z M153.422,115.563c0,0.198,0.018,0.396,0.072,0.576c0.288,1.099,1.225,1.854,2.377,1.854c1.674,0,2.647-1.35,2.647-3.349
		c0-1.747-0.9-3.241-2.611-3.241c-1.063,0-2.071,0.756-2.395,1.945c-0.054,0.198-0.09,0.414-0.09,0.666V115.563z"/>
	<path fill="#231F20" d="M163.614,116.243h-0.024l-1.355,0.732l-0.204-0.804l1.703-0.912h0.9v7.796h-1.02V116.243z"/>
</g>
<g>
	<g>
		<line fill="none" stroke="#231F20" stroke-miterlimit="10" x1="96.378" y1="266.457" x2="146.317" y2="266.457"/>
		<g>
			<polygon fill="#231F20" points="143.003,270.547 142.321,269.814 145.933,266.458 142.321,263.101 143.003,262.368 
				147.401,266.458 			"/>
		</g>
	</g>
</g>
<g>
	<path fill="#929497" d="M58.622,129.284l0.967,1.457c0.266,0.378,0.476,0.714,0.7,1.092h0.028c0.224-0.392,0.448-0.742,0.686-1.106
		l0.938-1.443h1.345l-2.311,3.278l2.367,3.502h-1.387l-1.008-1.527c-0.267-0.392-0.491-0.771-0.729-1.177H60.19
		c-0.224,0.406-0.448,0.771-0.714,1.177l-0.98,1.527h-1.359l2.41-3.46l-2.297-3.32H58.622z"/>
	<path fill="#929497" d="M64.642,137.632v-11.178h2.563v0.771h-1.597v9.637h1.597v0.771H64.642z"/>
	<path fill="#929497" d="M68.505,131.119c0-0.714-0.014-1.274-0.056-1.835h1.093l0.07,1.121h0.028
		c0.336-0.63,1.121-1.261,2.241-1.261c0.938,0,2.395,0.561,2.395,2.886v4.034h-1.232v-3.908c0-1.092-0.406-2.003-1.569-2.003
		c-0.798,0-1.429,0.574-1.653,1.261c-0.056,0.154-0.084,0.364-0.084,0.574v4.076h-1.233V131.119z"/>
	<path fill="#929497" d="M79.133,131.833v0.896h-3.459v-0.896H79.133z"/>
	<path fill="#929497" d="M82.856,128.107h-0.028l-1.583,0.854l-0.238-0.938l1.989-1.064h1.051v9.105h-1.191V128.107z"/>
	<path fill="#929497" d="M89.576,126.454v11.178h-2.563v-0.771h1.597v-9.637h-1.597v-0.771H89.576z"/>
</g>
<g>
	<path fill="#929497" d="M54.548,265.347l0.967,1.457c0.266,0.378,0.476,0.714,0.7,1.092h0.028c0.224-0.392,0.448-0.742,0.686-1.106
		l0.938-1.443h1.345l-2.311,3.278l2.367,3.502h-1.387l-1.009-1.527c-0.266-0.392-0.49-0.771-0.728-1.177h-0.028
		c-0.224,0.406-0.448,0.771-0.714,1.177l-0.98,1.527h-1.358l2.409-3.46l-2.297-3.32H54.548z"/>
	<path fill="#929497" d="M60.568,273.695v-11.178h2.563v0.771h-1.597v9.637h1.597v0.771H60.568z"/>
	<path fill="#929497" d="M64.432,267.182c0-0.714-0.014-1.274-0.056-1.835h1.093l0.07,1.121h0.028
		c0.336-0.63,1.121-1.261,2.241-1.261c0.938,0,2.395,0.561,2.395,2.886v4.034H68.97v-3.908c0-1.092-0.406-2.003-1.569-2.003
		c-0.798,0-1.429,0.574-1.653,1.261c-0.056,0.154-0.084,0.364-0.084,0.574v4.076h-1.233V267.182z"/>
	<path fill="#929497" d="M75.059,267.896v0.896H71.6v-0.896H75.059z"/>
	<path fill="#929497" d="M84.498,267.98c-0.07-1.316-0.154-2.913-0.154-4.076h-0.028c-0.336,1.093-0.714,2.283-1.191,3.586
		l-1.667,4.581h-0.925l-1.541-4.496c-0.448-1.345-0.813-2.55-1.079-3.67h-0.028c-0.028,1.177-0.098,2.746-0.182,4.174l-0.252,4.048
		H76.29l0.658-9.441h1.555l1.611,4.566c0.392,1.163,0.7,2.199,0.952,3.18h0.028c0.252-0.953,0.588-1.989,1.008-3.18l1.681-4.566
		h1.555l0.588,9.441h-1.205L84.498,267.98z"/>
	<path fill="#929497" d="M89.576,262.517v11.178h-2.563v-0.771h1.597v-9.637h-1.597v-0.771H89.576z"/>
</g>
<g>
	<circle fill="none" stroke="#231F20" stroke-width="2.2229" stroke-miterlimit="10" cx="221.103" cy="266.457" r="11.339"/>
	
		<line fill="none" stroke="#231F20" stroke-width="1.9883" stroke-miterlimit="10" x1="221.102" y1="260.788" x2="221.102" y2="272.126"/>
	
		<line fill="none" stroke="#231F20" stroke-width="1.9883" stroke-miterlimit="10" x1="215.434" y1="266.457" x2="226.771" y2="266.457"/>
</g>
<g>
	<g>
		<line fill="none" stroke="#231F20" stroke-miterlimit="10" x1="170.079" y1="266.457" x2="208.679" y2="266.457"/>
		<g>
			<polygon fill="#231F20" points="205.366,270.546 204.684,269.814 208.295,266.458 204.684,263.1 205.366,262.368 
				209.764,266.458 			"/>
		</g>
	</g>
</g>
<polygon fill="#EAEAFF" stroke="#231F20" stroke-width="2" stroke-miterlimit="10" points="147.401,255.118 147.401,277.795 
	170.078,266.457 "/>
<g>
	<path fill="#231F20" d="M150.11,236.666h1.566v5.474h0.036c0.558-0.972,1.566-1.584,2.971-1.584c2.179,0,3.691,1.8,3.691,4.429
		c0,3.115-1.98,4.664-3.925,4.664c-1.261,0-2.269-0.486-2.935-1.621h-0.036l-0.09,1.422h-1.351c0.036-0.594,0.072-1.477,0.072-2.25
		V236.666z M151.676,245.956c0,0.198,0.018,0.396,0.072,0.576c0.288,1.099,1.225,1.854,2.377,1.854c1.674,0,2.647-1.35,2.647-3.349
		c0-1.747-0.9-3.241-2.611-3.241c-1.063,0-2.071,0.756-2.395,1.945c-0.054,0.198-0.09,0.414-0.09,0.666V245.956z"/>
	<path fill="#231F20" d="M166.761,249.899c-0.06-1.127-0.132-2.495-0.132-3.49h-0.024c-0.288,0.936-0.612,1.955-1.02,3.07
		l-1.427,3.922h-0.792l-1.319-3.85c-0.384-1.151-0.695-2.183-0.923-3.142H161.1c-0.024,1.007-0.084,2.351-0.156,3.574l-0.216,3.466
		h-0.995l0.563-8.083h1.332l1.379,3.91c0.336,0.996,0.6,1.883,0.815,2.723h0.024c0.216-0.815,0.503-1.703,0.863-2.723l1.439-3.91
		h1.331l0.504,8.083h-1.032L166.761,249.899z"/>
</g>
<g>
	<path fill="#231F20" d="M151.856,4.224h1.566v5.474h0.036c0.558-0.972,1.566-1.584,2.971-1.584c2.179,0,3.691,1.8,3.691,4.429
		c0,3.115-1.98,4.664-3.925,4.664c-1.261,0-2.269-0.486-2.935-1.621h-0.036l-0.09,1.422h-1.351c0.036-0.594,0.072-1.477,0.072-2.25
		V4.224z M153.422,13.515c0,0.198,0.018,0.396,0.072,0.576c0.288,1.099,1.225,1.854,2.377,1.854c1.674,0,2.647-1.35,2.647-3.349
		c0-1.747-0.9-3.241-2.611-3.241c-1.063,0-2.071,0.756-2.395,1.945c-0.054,0.198-0.09,0.414-0.09,0.666V13.515z"/>
	<path fill="#231F20" d="M166.516,17.026c0,2.651-0.996,4.114-2.71,4.114c-1.523,0-2.567-1.427-2.591-4.006
		c0-2.626,1.14-4.054,2.723-4.054C165.568,13.08,166.516,14.543,166.516,17.026z M162.282,17.146c0,2.027,0.624,3.178,1.583,3.178
		c1.067,0,1.583-1.259,1.583-3.25c0-1.919-0.48-3.179-1.583-3.179C162.954,13.896,162.282,15.023,162.282,17.146z"/>
</g>
</svg>
