<?xml version="1.0" encoding="utf-8"?>
<!-- Generator: Adobe Illustrator 15.0.0, SVG Export Plug-In . SVG Version: 6.00 Build 0)  -->
<!DOCTYPE svg PUBLIC "-//W3C//DTD SVG 1.0//EN" "http://www.w3.org/TR/2001/REC-SVG-20010904/DTD/svg10.dtd">
<svg version="1.0" id="Layer_1" xmlns="http://www.w3.org/2000/svg" xmlns:xlink="http://www.w3.org/1999/xlink" x="0px" y="0px"
	 width="408.19px" height="328.819px" viewBox="0 0 408.19 328.819" enable-background="new 0 0 408.19 328.819"
	 xml:space="preserve">
<g>
	<path fill="#231F20" d="M370.815,29.036l2.31,6.293c0.265,0.704,0.529,1.54,0.705,2.178h0.043c0.199-0.638,0.418-1.452,0.683-2.222
		l2.112-6.249h2.047l-2.904,7.591c-1.387,3.653-2.333,5.501-3.653,6.667c-0.968,0.814-1.892,1.145-2.376,1.232l-0.484-1.606
		c0.484-0.154,1.122-0.462,1.694-0.946c0.528-0.418,1.166-1.166,1.628-2.156c0.088-0.198,0.154-0.352,0.154-0.462
		s-0.044-0.264-0.154-0.506l-3.916-9.813H370.815z"/>
	<path fill="#231F20" d="M380.648,42.149V24.591h4.027v1.21h-2.509v15.138h2.509v1.21H380.648z"/>
	<path fill="#231F20" d="M386.721,31.918c0-1.122-0.021-2.002-0.088-2.882h1.717l0.109,1.76h0.045c0.527-0.99,1.76-1.98,3.52-1.98
		c1.475,0,3.763,0.88,3.763,4.533v6.337h-1.937v-6.139c0-1.716-0.638-3.146-2.464-3.146c-1.255,0-2.245,0.902-2.597,1.98
		c-0.088,0.242-0.132,0.572-0.132,0.902v6.403h-1.937V31.918z"/>
	<path fill="#231F20" d="M401.791,24.591v17.559h-4.026v-1.21h2.509V25.801h-2.509v-1.21H401.791z"/>
</g>
<g>
	<path fill="#231F20" d="M7.302,29.036l1.518,2.288c0.418,0.594,0.749,1.122,1.101,1.716h0.044c0.352-0.616,0.704-1.166,1.078-1.738
		l1.474-2.266h2.112l-3.63,5.148l3.718,5.501h-2.178l-1.584-2.398c-0.418-0.616-0.77-1.21-1.144-1.848H9.766
		c-0.352,0.638-0.704,1.21-1.122,1.848l-1.54,2.398H4.97l3.784-5.435l-3.608-5.215H7.302z"/>
	<path fill="#231F20" d="M16.762,42.149V24.591h4.026v1.21H18.28v15.138h2.508v1.21H16.762z"/>
	<path fill="#231F20" d="M22.834,31.918c0-1.122-0.022-2.002-0.088-2.882h1.716l0.11,1.76h0.044c0.528-0.99,1.76-1.98,3.521-1.98
		c1.474,0,3.762,0.88,3.762,4.533v6.337h-1.936v-6.139c0-1.716-0.638-3.146-2.464-3.146c-1.254,0-2.245,0.902-2.597,1.98
		c-0.088,0.242-0.132,0.572-0.132,0.902v6.403h-1.936V31.918z"/>
	<path fill="#231F20" d="M37.904,24.591v17.559h-4.027v-1.21h2.508V25.801h-2.508v-1.21H37.904z"/>
</g>
<g>
	<circle fill="none" stroke="#231F20" stroke-width="2.2229" stroke-miterlimit="10" cx="328.819" cy="34.016" r="11.339"/>
	
		<line fill="none" stroke="#231F20" stroke-width="1.9883" stroke-miterlimit="10" x1="328.818" y1="28.347" x2="328.818" y2="39.686"/>
	
		<line fill="none" stroke="#231F20" stroke-width="1.9883" stroke-miterlimit="10" x1="323.15" y1="34.016" x2="334.488" y2="34.016"/>
</g>
<g>
	<g>
		<line fill="none" stroke="#231F20" stroke-miterlimit="10" x1="328.82" y1="300.474" x2="328.82" y2="296.442"/>
		
			<line fill="none" stroke="#231F20" stroke-miterlimit="10" stroke-dasharray="8.1326,8.1326" x1="328.82" y1="288.31" x2="328.82" y2="162.254"/>
		<line fill="none" stroke="#231F20" stroke-miterlimit="10" x1="328.82" y1="158.188" x2="328.82" y2="154.156"/>
		<g>
			<polygon fill="#231F20" points="332.91,157.47 332.178,158.152 328.821,154.54 325.464,158.152 324.731,157.47 328.821,153.072 
							"/>
		</g>
	</g>
</g>
<g>
	<g>
		<line fill="none" stroke="#231F20" stroke-miterlimit="10" x1="328.82" y1="130.394" x2="328.82" y2="46.438"/>
		<g>
			<polygon fill="#231F20" points="332.91,49.752 332.178,50.434 328.821,46.822 325.464,50.434 324.731,49.752 328.821,45.354 			
				"/>
		</g>
	</g>
</g>
<g>
	<g>
		<line fill="none" stroke="#231F20" stroke-miterlimit="10" x1="266.457" y1="158.741" x2="266.457" y2="159.241"/>
		
			<line fill="none" stroke="#231F20" stroke-miterlimit="10" stroke-dasharray="1.0239,7.1677" x1="266.457" y1="166.408" x2="266.457" y2="228.357"/>
		<line fill="none" stroke="#231F20" stroke-miterlimit="10" x1="266.457" y1="231.941" x2="266.457" y2="232.441"/>
	</g>
</g>
<g>
	<g>
		<line fill="none" stroke="#231F20" stroke-miterlimit="10" x1="141.73" y1="153.072" x2="141.73" y2="153.676"/>
		
			<line fill="none" stroke="#231F20" stroke-miterlimit="10" stroke-dasharray="1.2242,8.5696" x1="141.73" y1="162.246" x2="141.73" y2="255.899"/>
		<line fill="none" stroke="#231F20" stroke-miterlimit="10" x1="141.73" y1="260.184" x2="141.73" y2="260.789"/>
	</g>
</g>
<g>
	<g>
		<line fill="none" stroke="#231F20" stroke-miterlimit="10" x1="204.095" y1="141.732" x2="254.033" y2="141.732"/>
		<g>
			<polygon fill="#231F20" points="250.721,145.822 250.038,145.09 253.65,141.733 250.038,138.376 250.721,137.644 
				255.118,141.733 			"/>
		</g>
	</g>
</g>
<g>
	<g>
		<line fill="none" stroke="#231F20" stroke-miterlimit="10" x1="204.095" y1="136.063" x2="154.156" y2="136.063"/>
		<g>
			<polygon fill="#231F20" points="157.47,131.973 158.152,132.705 154.541,136.062 158.152,139.419 157.47,140.151 
				153.072,136.062 			"/>
		</g>
	</g>
</g>
<g>
	<g>
		<line fill="none" stroke="#231F20" stroke-miterlimit="10" x1="45.355" y1="34.016" x2="66.947" y2="34.016"/>
		<g>
			<polygon fill="#231F20" points="63.634,38.105 62.952,37.373 66.563,34.017 62.952,30.659 63.634,29.927 68.032,34.017 			"/>
		</g>
	</g>
</g>
<g>
	<g>
		<line fill="none" stroke="#231F20" stroke-miterlimit="10" x1="340.158" y1="34.016" x2="361.75" y2="34.016"/>
		<g>
			<polygon fill="#231F20" points="358.437,38.105 357.754,37.373 361.366,34.017 357.754,30.659 358.437,29.927 362.834,34.017 			
				"/>
		</g>
	</g>
</g>
<g>
	<circle fill="none" stroke="#231F20" stroke-width="2.2229" stroke-miterlimit="10" cx="328.819" cy="141.731" r="11.339"/>
	
		<line fill="none" stroke="#231F20" stroke-width="1.9883" stroke-miterlimit="10" x1="328.818" y1="136.063" x2="328.818" y2="147.401"/>
	
		<line fill="none" stroke="#231F20" stroke-width="1.9883" stroke-miterlimit="10" x1="323.15" y1="141.732" x2="334.488" y2="141.732"/>
</g>
<g>
	<g>
		<line fill="none" stroke="#231F20" stroke-miterlimit="10" x1="277.796" y1="141.731" x2="316.396" y2="141.731"/>
		<g>
			<polygon fill="#231F20" points="313.082,145.821 312.4,145.089 316.012,141.732 312.4,138.375 313.082,137.643 317.48,141.732 
							"/>
		</g>
	</g>
</g>
<g>
	<g>
		<line fill="none" stroke="#231F20" stroke-miterlimit="10" x1="277.796" y1="34.016" x2="316.396" y2="34.016"/>
		<g>
			<polygon fill="#231F20" points="313.082,38.105 312.4,37.373 316.012,34.017 312.4,30.659 313.082,29.927 317.48,34.017 			"/>
		</g>
	</g>
</g>
<polygon fill="#EAEAFF" stroke="#231F20" stroke-width="2" stroke-miterlimit="10" points="255.118,130.393 255.118,153.07 
	277.795,141.732 "/>
<g>
	
		<rect x="181.417" y="62.365" fill="#EAEAFF" stroke="#231F20" stroke-width="2" stroke-miterlimit="10" width="45.352" height="45.352"/>
	<g>
		<path fill="#231F20" d="M195.644,89.792l3.925-5.131c0.396-0.486,0.756-0.9,1.152-1.368v-0.036h-4.718v-1.261h6.626v0.991
			l-3.889,5.059c-0.378,0.486-0.72,0.937-1.116,1.369v0.036h5.078v1.26h-7.058V89.792z"/>
		<path fill="#231F20" d="M206.346,78.123v0.768h-2.962v-0.768H206.346z"/>
		<path fill="#231F20" d="M209.539,74.933h-0.024l-1.355,0.732l-0.204-0.804l1.703-0.912h0.9v7.796h-1.02V74.933z"/>
	</g>
	<g id="Timer_3_" opacity="0.5">
		<path fill-rule="evenodd" clip-rule="evenodd" d="M185.626,76.367c-0.117,0.587-0.115,1.224-0.641,1.276
			c-0.813,0.081-0.6-0.874-0.445-1.595c0.16-0.755,0.232-1.539,0.637-1.787c0.74,0.194,3.463-0.011,3,1.34
			c-0.361,0.432-1.047,0.083-1.594,0c0.805,1.189,2.111,2.235,3.891,2.425c3.412,0.363,6.127-1.976,6.447-4.978
			c0.41-3.853-2.559-6.815-6.383-6.445c-1.451,0.141-2.334,0.82-3.381,1.595c-0.402,0.45-0.93,1.698-1.725,0.958
			c-0.096-0.717,0.514-1.351,0.957-1.787c0.998-0.979,2.646-1.793,4.213-1.915c4.119-0.321,7.191,2.758,7.467,6.318
			c0.184,2.401-0.807,4.06-2.043,5.488c-1.148,0.932-2.412,1.778-4.275,1.915C188.964,79.377,186.83,77.906,185.626,76.367z"/>
		<path fill-rule="evenodd" clip-rule="evenodd" d="M191.482,69.219c0.273,0.683,0.059,1.855,0.127,2.744
			c0.393,0.603,0.969,1.033,1.467,1.532c0.461,0.459,1.152,0.909,1.213,1.723c-0.592,0.91-1.656-0.508-2.232-1.084
			c-0.654-0.654-1.188-1.187-1.531-1.659c0.107-1.041-0.229-2.526,0.191-3.255C190.837,69.002,191.339,69.083,191.482,69.219z"/>
	</g>
	<g display="none">
		<path display="inline" fill-rule="evenodd" clip-rule="evenodd" fill="#231F20" d="M186.199,65.136
			c2.801,0.067,5.932-0.09,8.848,0c0.314,0.009,0.828-0.13,0.928,0.309c0.012,0.549-0.742,0.329-1.236,0.371
			c-0.068,2.234-2.703,3.505-1.918,5.754c0.469,1.344,1.838,2.288,1.855,4.146c0.486,0.049,1.246-0.174,1.299,0.31
			c-0.289,0.635-1.494,0.371-2.352,0.371c-2.178,0-4.443,0.047-6.682,0c-0.346-0.006-0.875,0.14-0.99-0.309
			c-0.012-0.549,0.744-0.329,1.238-0.371c0.105-1.648,1.424-2.84,1.918-4.084c0.123-0.31,0.195-0.931,0.063-1.485
			c-0.377-1.558-1.779-2.4-1.918-4.331c-0.412-0.043-1.018,0.109-1.238-0.124C185.894,65.464,186.001,65.221,186.199,65.136z
			 M187.994,65.816c0.234,2.107,2.008,3.007,1.979,5.074c-0.025,2-1.939,2.692-1.979,4.826c1.979,0,3.959,0,5.939,0
			c-0.049-1.867-1.471-2.643-1.857-4.084c-0.652-2.437,1.639-3.528,1.857-5.816C191.953,65.816,189.972,65.816,187.994,65.816z"/>
	</g>
</g>
<g>
	<g>
		<line fill="none" stroke="#231F20" stroke-miterlimit="10" x1="204.093" y1="107.717" x2="204.093" y2="163.325"/>
		<g>
			<polygon fill="#231F20" points="200.003,160.012 200.736,159.33 204.091,162.941 207.449,159.33 208.181,160.012 204.091,164.41 
							"/>
		</g>
	</g>
</g>
<g>
	<g>
		<line fill="none" stroke="#231F20" stroke-miterlimit="10" x1="204.093" y1="34.016" x2="204.093" y2="61.278"/>
		<g>
			<polygon fill="#231F20" points="200.003,57.964 200.736,57.282 204.091,60.894 207.449,57.282 208.181,57.964 204.091,62.362 			
				"/>
		</g>
	</g>
</g>
<g>
	<g>
		
			<line fill="none" stroke="#231F20" stroke-width="0.9672" stroke-miterlimit="10" x1="90.708" y1="34.016" x2="254.07" y2="34.016"/>
		<g>
			<polygon fill="#231F20" points="250.865,37.971 250.205,37.263 253.699,34.017 250.205,30.769 250.865,30.061 255.119,34.017 			
				"/>
		</g>
	</g>
</g>
<polygon fill="#EAEAFF" stroke="#231F20" stroke-width="2" stroke-miterlimit="10" points="255.118,22.677 255.118,45.354 
	277.795,34.016 "/>
<g>
	<path fill="#231F20" d="M259.573,111.94h1.566v5.474h0.036c0.558-0.972,1.566-1.584,2.971-1.584c2.178,0,3.69,1.8,3.69,4.429
		c0,3.115-1.98,4.664-3.925,4.664c-1.261,0-2.269-0.486-2.935-1.621h-0.036l-0.09,1.422H259.5c0.036-0.594,0.072-1.477,0.072-2.25
		V111.94z M261.139,121.231c0,0.198,0.018,0.396,0.072,0.576c0.288,1.099,1.225,1.854,2.377,1.854c1.674,0,2.646-1.35,2.646-3.349
		c0-1.747-0.9-3.241-2.61-3.241c-1.063,0-2.071,0.756-2.395,1.945c-0.054,0.198-0.09,0.414-0.09,0.666V121.231z"/>
	<path fill="#231F20" d="M271.33,121.912h-0.023l-1.355,0.732l-0.204-0.804l1.703-0.912h0.899v7.796h-1.02V121.912z"/>
</g>
<g>
	<g>
		<line fill="none" stroke="#231F20" stroke-miterlimit="10" x1="130.396" y1="300.471" x2="91.793" y2="300.473"/>
		<g>
			<polygon fill="#231F20" points="95.107,296.383 95.789,297.116 92.176,300.472 95.789,303.83 95.107,304.562 90.708,300.472 			
				"/>
		</g>
	</g>
</g>
<g>
	<g>
		<line fill="none" stroke="#231F20" stroke-miterlimit="10" x1="130.394" y1="136.062" x2="91.791" y2="136.063"/>
		<g>
			<polygon fill="#231F20" points="95.104,131.974 95.787,132.706 92.174,136.063 95.787,139.419 95.104,140.152 90.706,136.063 			
				"/>
		</g>
	</g>
</g>
<polygon fill="#EAEAFF" stroke="#231F20" stroke-width="2" stroke-miterlimit="10" points="153.072,147.402 153.072,124.725 
	130.394,136.063 "/>
<polygon fill="#EAEAFF" stroke="#231F20" stroke-width="2" stroke-miterlimit="10" points="153.072,311.812 153.072,289.135 
	130.394,300.473 "/>
<g>
	<g>
		<line fill="none" stroke="#231F20" stroke-miterlimit="10" x1="226.772" y1="306.143" x2="229.008" y2="306.143"/>
		
			<line fill="none" stroke="#231F20" stroke-miterlimit="10" stroke-dasharray="4.5578,4.5578" x1="233.566" y1="306.143" x2="249.519" y2="306.143"/>
		<line fill="none" stroke="#231F20" stroke-miterlimit="10" x1="251.798" y1="306.143" x2="254.034" y2="306.143"/>
		<g>
			<polygon fill="#231F20" points="250.72,310.232 250.038,309.5 253.65,306.144 250.038,302.786 250.72,302.054 255.118,306.144 
							"/>
		</g>
	</g>
</g>
<g>
	<path fill="#EC1C24" d="M211.263,117.945l1.331,3.796c0.224,0.63,0.406,1.19,0.546,1.751h0.042c0.154-0.561,0.35-1.121,0.574-1.751
		l1.317-3.796h1.289l-2.662,6.78h-1.177l-2.577-6.78H211.263z"/>
	<path fill="#EC1C24" d="M217.633,126.293v-11.178h2.563v0.771h-1.597v9.637h1.597v0.771H217.633z"/>
	<path fill="#EC1C24" d="M221.497,119.78c0-0.714-0.014-1.274-0.056-1.835h1.093l0.07,1.121h0.028
		c0.336-0.63,1.121-1.261,2.241-1.261c0.938,0,2.395,0.561,2.395,2.886v4.034h-1.232v-3.908c0-1.092-0.406-2.003-1.569-2.003
		c-0.798,0-1.429,0.574-1.653,1.261c-0.056,0.154-0.084,0.364-0.084,0.574v4.076h-1.233V119.78z"/>
	<path fill="#EC1C24" d="M232.124,120.494v0.896h-3.459v-0.896H232.124z"/>
	<path fill="#EC1C24" d="M235.848,116.769h-0.028l-1.583,0.854l-0.238-0.938l1.989-1.064h1.051v9.105h-1.191V116.769z"/>
	<path fill="#EC1C24" d="M242.567,115.115v11.178h-2.563v-0.771h1.597v-9.637h-1.597v-0.771H242.567z"/>
</g>
<g>
	<path fill="#EC1C24" d="M194.366,21.566l1.331,3.796c0.224,0.63,0.406,1.19,0.546,1.751h0.042c0.154-0.561,0.35-1.121,0.574-1.751
		l1.317-3.796h1.289l-2.662,6.78h-1.177l-2.577-6.78H194.366z"/>
	<path fill="#EC1C24" d="M200.735,29.915V18.737h2.563v0.771h-1.597v9.637h1.597v0.771H200.735z"/>
	<path fill="#EC1C24" d="M204.599,23.401c0-0.714-0.014-1.274-0.056-1.835h1.093l0.07,1.121h0.028
		c0.336-0.63,1.121-1.261,2.241-1.261c0.938,0,2.395,0.561,2.395,2.886v4.034h-1.232v-3.908c0-1.092-0.406-2.003-1.569-2.003
		c-0.798,0-1.429,0.574-1.653,1.261c-0.056,0.154-0.084,0.364-0.084,0.574v4.076h-1.233V23.401z"/>
	<path fill="#EC1C24" d="M214.19,18.737v11.178h-2.563v-0.771h1.597v-9.637h-1.597v-0.771H214.19z"/>
</g>
<g>
	<path fill="#EC1C24" d="M212.938,293.694l1.331,3.796c0.224,0.63,0.406,1.19,0.546,1.751h0.042c0.154-0.561,0.35-1.121,0.574-1.751
		l1.317-3.796h1.289l-2.662,6.78h-1.177l-2.577-6.78H212.938z"/>
	<path fill="#EC1C24" d="M219.308,302.042v-11.178h2.563v0.771h-1.597v9.637h1.597v0.771H219.308z"/>
	<path fill="#EC1C24" d="M223.172,295.529c0-0.714-0.014-1.274-0.056-1.835h1.093l0.07,1.121h0.028
		c0.336-0.63,1.121-1.261,2.241-1.261c0.938,0,2.395,0.561,2.395,2.886v4.034h-1.232v-3.908c0-1.092-0.406-2.003-1.569-2.003
		c-0.798,0-1.429,0.574-1.653,1.261c-0.056,0.154-0.084,0.364-0.084,0.574v4.076h-1.233V295.529z"/>
	<path fill="#EC1C24" d="M233.799,296.243v0.896h-3.459v-0.896H233.799z"/>
	<path fill="#EC1C24" d="M243.238,296.327c-0.07-1.316-0.154-2.913-0.154-4.076h-0.028c-0.336,1.093-0.714,2.283-1.191,3.586
		l-1.667,4.581h-0.925l-1.541-4.496c-0.448-1.345-0.813-2.55-1.079-3.67h-0.028c-0.028,1.177-0.098,2.746-0.182,4.174l-0.252,4.048
		h-1.163l0.658-9.441h1.555l1.611,4.566c0.392,1.163,0.7,2.199,0.952,3.18h0.028c0.252-0.953,0.588-1.989,1.008-3.18l1.681-4.566
		h1.555l0.588,9.441h-1.205L243.238,296.327z"/>
	<path fill="#EC1C24" d="M248.316,290.864v11.178h-2.563v-0.771h1.597v-9.637h-1.597v-0.771H248.316z"/>
</g>
<g>
	<path fill="#EC1C24" d="M165.909,288.024l1.331,3.796c0.224,0.63,0.406,1.19,0.546,1.751h0.042c0.154-0.561,0.35-1.121,0.574-1.751
		l1.317-3.796h1.289l-2.662,6.78h-1.177l-2.577-6.78H165.909z"/>
	<path fill="#EC1C24" d="M172.278,296.373v-11.178h2.563v0.771h-1.597v9.637h1.597v0.771H172.278z"/>
	<path fill="#EC1C24" d="M176.142,289.859c0-0.714-0.014-1.274-0.056-1.835h1.093l0.07,1.121h0.028
		c0.336-0.63,1.121-1.261,2.241-1.261c0.938,0,2.395,0.561,2.395,2.886v4.034h-1.232v-3.908c0-1.092-0.406-2.003-1.569-2.003
		c-0.798,0-1.429,0.574-1.653,1.261c-0.056,0.154-0.084,0.364-0.084,0.574v4.076h-1.233V289.859z"/>
	<path fill="#EC1C24" d="M186.769,290.574v0.896h-3.459v-0.896H186.769z"/>
	<path fill="#EC1C24" d="M188.251,294.804v-9.441h1.345l3.012,4.776c0.687,1.106,1.247,2.101,1.681,3.068l0.042-0.014
		c-0.112-1.261-0.14-2.409-0.14-3.88v-3.95h1.148v9.441h-1.232l-2.998-4.791c-0.659-1.051-1.289-2.129-1.751-3.152l-0.042,0.014
		c0.07,1.19,0.084,2.325,0.084,3.894v4.034H188.251z"/>
	<path fill="#EC1C24" d="M199.243,285.195v11.178h-2.563v-0.771h1.597v-9.637h-1.597v-0.771H199.243z"/>
</g>
<g>
	
		<rect x="181.421" y="164.41" fill="#EAEAFF" stroke="#231F20" stroke-width="2" stroke-miterlimit="10" width="45.352" height="45.352"/>
	<g>
		<path fill="#231F20" d="M195.646,191.837l3.925-5.131c0.396-0.486,0.756-0.9,1.152-1.368v-0.036h-4.718v-1.261h6.626v0.991
			l-3.889,5.059c-0.378,0.486-0.72,0.937-1.116,1.369v0.036h5.078v1.26h-7.058V191.837z"/>
		<path fill="#231F20" d="M206.349,180.168v0.768h-2.962v-0.768H206.349z"/>
		<path fill="#231F20" d="M209.541,176.978h-0.024l-1.355,0.732l-0.204-0.804l1.703-0.912h0.9v7.796h-1.02V176.978z"/>
	</g>
	<g id="Timer_5_" opacity="0.5">
		<path fill-rule="evenodd" clip-rule="evenodd" d="M185.628,178.412c-0.115,0.587-0.113,1.224-0.639,1.276
			c-0.814,0.081-0.6-0.874-0.447-1.595c0.162-0.755,0.232-1.539,0.639-1.787c0.738,0.194,3.461-0.011,3,1.34
			c-0.363,0.432-1.047,0.083-1.596,0c0.807,1.189,2.111,2.235,3.893,2.425c3.41,0.363,6.125-1.976,6.445-4.978
			c0.41-3.853-2.559-6.815-6.381-6.445c-1.453,0.141-2.336,0.82-3.383,1.595c-0.4,0.45-0.93,1.698-1.723,0.958
			c-0.096-0.717,0.512-1.351,0.957-1.787c0.998-0.979,2.645-1.793,4.211-1.915c4.119-0.321,7.193,2.758,7.467,6.318
			c0.186,2.401-0.805,4.06-2.043,5.488c-1.148,0.932-2.412,1.778-4.275,1.915C188.968,181.422,186.832,179.951,185.628,178.412z"/>
		<path fill-rule="evenodd" clip-rule="evenodd" d="M191.484,171.264c0.273,0.683,0.059,1.855,0.127,2.744
			c0.395,0.603,0.971,1.033,1.469,1.532c0.459,0.459,1.15,0.909,1.211,1.723c-0.59,0.91-1.656-0.508-2.232-1.084
			c-0.654-0.654-1.188-1.187-1.531-1.659c0.107-1.041-0.229-2.526,0.191-3.255C190.839,171.047,191.343,171.128,191.484,171.264z"/>
	</g>
	<g display="none">
		<path display="inline" fill-rule="evenodd" clip-rule="evenodd" fill="#231F20" d="M186.201,167.181
			c2.803,0.067,5.934-0.09,8.848,0c0.316,0.009,0.83-0.13,0.93,0.309c0.012,0.549-0.744,0.329-1.238,0.371
			c-0.066,2.234-2.703,3.505-1.918,5.754c0.469,1.344,1.84,2.288,1.855,4.146c0.488,0.049,1.248-0.174,1.301,0.31
			c-0.291,0.635-1.496,0.371-2.352,0.371c-2.18,0-4.443,0.047-6.684,0c-0.346-0.006-0.875,0.14-0.99-0.309
			c-0.012-0.549,0.744-0.329,1.238-0.371c0.105-1.648,1.424-2.84,1.918-4.084c0.123-0.31,0.197-0.931,0.063-1.485
			c-0.377-1.558-1.777-2.4-1.918-4.331c-0.41-0.043-1.018,0.109-1.238-0.124C185.896,167.509,186.003,167.266,186.201,167.181z
			 M187.996,167.861c0.236,2.107,2.008,3.007,1.98,5.074c-0.027,2-1.941,2.692-1.98,4.826c1.98,0,3.959,0,5.939,0
			c-0.047-1.867-1.471-2.643-1.855-4.084c-0.652-2.437,1.639-3.528,1.855-5.816C191.955,167.861,189.976,167.861,187.996,167.861z"
			/>
	</g>
</g>
<g>
	<g>
		<line fill="none" stroke="#231F20" stroke-miterlimit="10" x1="204.095" y1="209.765" x2="204.095" y2="212.089"/>
		
			<line fill="none" stroke="#231F20" stroke-miterlimit="10" stroke-dasharray="4.216,4.216" x1="204.095" y1="216.305" x2="204.095" y2="256.357"/>
		<line fill="none" stroke="#231F20" stroke-miterlimit="10" x1="204.095" y1="258.465" x2="204.095" y2="260.789"/>
	</g>
</g>
<g>
	<g>
		<line fill="none" stroke="#231F20" stroke-miterlimit="10" x1="181.418" y1="300.473" x2="179.182" y2="300.473"/>
		
			<line fill="none" stroke="#231F20" stroke-miterlimit="10" stroke-dasharray="4.5579,4.5579" x1="174.624" y1="300.473" x2="158.671" y2="300.473"/>
		<line fill="none" stroke="#231F20" stroke-miterlimit="10" x1="156.392" y1="300.473" x2="154.156" y2="300.473"/>
		<g>
			<polygon fill="#231F20" points="157.47,296.383 158.152,297.116 154.54,300.472 158.152,303.83 157.47,304.562 153.072,300.472 
							"/>
		</g>
	</g>
</g>
<g>
	<circle fill="none" stroke="#231F20" stroke-width="2.2229" stroke-miterlimit="10" cx="328.819" cy="311.811" r="11.339"/>
	
		<line fill="none" stroke="#231F20" stroke-width="1.9883" stroke-miterlimit="10" x1="328.818" y1="306.142" x2="328.818" y2="317.481"/>
	
		<line fill="none" stroke="#231F20" stroke-width="1.9883" stroke-miterlimit="10" x1="323.15" y1="311.812" x2="334.488" y2="311.812"/>
</g>
<g>
	<circle fill="none" stroke="#231F20" stroke-width="2.2229" stroke-miterlimit="10" cx="79.371" cy="34.016" r="11.339"/>
	<line fill="none" stroke="#231F20" stroke-width="1.9883" stroke-miterlimit="10" x1="79.37" y1="28.347" x2="79.37" y2="39.686"/>
	
		<line fill="none" stroke="#231F20" stroke-width="1.9883" stroke-miterlimit="10" x1="73.702" y1="34.016" x2="85.04" y2="34.016"/>
</g>
<g>
	<g>
		<line fill="none" stroke="#231F20" stroke-miterlimit="10" x1="79.371" y1="289.136" x2="79.371" y2="285.183"/>
		
			<line fill="none" stroke="#231F20" stroke-miterlimit="10" stroke-dasharray="7.8084,7.8084" x1="79.371" y1="277.375" x2="79.371" y2="156.345"/>
		<line fill="none" stroke="#231F20" stroke-miterlimit="10" x1="79.371" y1="152.44" x2="79.371" y2="148.488"/>
		<g>
			<polygon fill="#231F20" points="83.46,151.801 82.728,152.483 79.372,148.872 76.014,152.483 75.282,151.801 79.372,147.403 			
				"/>
		</g>
	</g>
</g>
<g>
	<g>
		<line fill="none" stroke="#231F20" stroke-miterlimit="10" x1="79.371" y1="124.725" x2="79.371" y2="46.439"/>
		<g>
			<polygon fill="#231F20" points="83.46,49.752 82.728,50.435 79.372,46.823 76.014,50.435 75.282,49.752 79.372,45.354 			"/>
		</g>
	</g>
</g>
<g>
	<circle fill="none" stroke="#231F20" stroke-width="2.2229" stroke-miterlimit="10" cx="79.371" cy="136.063" r="11.339"/>
	
		<line fill="none" stroke="#231F20" stroke-width="1.9883" stroke-miterlimit="10" x1="79.37" y1="130.394" x2="79.37" y2="141.732"/>
	
		<line fill="none" stroke="#231F20" stroke-width="1.9883" stroke-miterlimit="10" x1="73.702" y1="136.063" x2="85.04" y2="136.063"/>
</g>
<g>
	<circle fill="none" stroke="#231F20" stroke-width="2.2229" stroke-miterlimit="10" cx="79.371" cy="300.473" r="11.339"/>
	
		<line fill="none" stroke="#231F20" stroke-width="1.9883" stroke-miterlimit="10" x1="79.37" y1="294.804" x2="79.37" y2="306.143"/>
	
		<line fill="none" stroke="#231F20" stroke-width="1.9883" stroke-miterlimit="10" x1="73.702" y1="300.474" x2="85.04" y2="300.474"/>
</g>
<g>
	<g>
		<line fill="none" stroke="#231F20" stroke-miterlimit="10" x1="277.796" y1="311.811" x2="316.396" y2="311.811"/>
		<g>
			<polygon fill="#231F20" points="313.082,315.901 312.4,315.168 316.012,311.812 312.4,308.455 313.082,307.722 317.48,311.812 
							"/>
		</g>
	</g>
</g>
<polygon fill="#EAEAFF" stroke="#231F20" stroke-width="2" stroke-miterlimit="10" points="255.118,300.473 255.118,323.15 
	277.795,311.812 "/>
<g>
	<path fill="#231F20" d="M257.827,282.02h1.566v5.474h0.036c0.558-0.972,1.566-1.584,2.971-1.584c2.178,0,3.691,1.8,3.691,4.429
		c0,3.115-1.98,4.664-3.925,4.664c-1.261,0-2.269-0.486-2.935-1.621h-0.036l-0.09,1.422h-1.351c0.036-0.594,0.072-1.477,0.072-2.25
		V282.02z M259.393,291.311c0,0.198,0.018,0.396,0.072,0.576c0.288,1.099,1.225,1.854,2.377,1.854c1.674,0,2.646-1.35,2.646-3.349
		c0-1.747-0.9-3.241-2.61-3.241c-1.063,0-2.071,0.756-2.395,1.945c-0.054,0.198-0.09,0.414-0.09,0.666V291.311z"/>
	<path fill="#231F20" d="M274.478,295.254c-0.06-1.127-0.132-2.495-0.132-3.49h-0.023c-0.289,0.936-0.612,1.955-1.02,3.07
		l-1.428,3.922h-0.791l-1.32-3.85c-0.383-1.151-0.695-2.183-0.923-3.142h-0.024c-0.023,1.007-0.084,2.351-0.156,3.574l-0.215,3.466
		h-0.996l0.564-8.083h1.331l1.379,3.91c0.336,0.996,0.6,1.883,0.815,2.723h0.024c0.216-0.815,0.503-1.703,0.863-2.723l1.439-3.91
		h1.331l0.504,8.083h-1.031L274.478,295.254z"/>
</g>
<g>
	<path fill="#231F20" d="M259.573,4.224h1.566v5.474h0.036c0.558-0.972,1.566-1.584,2.971-1.584c2.178,0,3.69,1.8,3.69,4.429
		c0,3.115-1.98,4.664-3.925,4.664c-1.261,0-2.269-0.486-2.935-1.621h-0.036l-0.09,1.422H259.5c0.036-0.594,0.072-1.477,0.072-2.25
		V4.224z M261.139,13.515c0,0.198,0.018,0.396,0.072,0.576c0.288,1.099,1.225,1.854,2.377,1.854c1.674,0,2.646-1.35,2.646-3.349
		c0-1.747-0.9-3.241-2.61-3.241c-1.063,0-2.071,0.756-2.395,1.945c-0.054,0.198-0.09,0.414-0.09,0.666V13.515z"/>
	<path fill="#231F20" d="M274.232,17.026c0,2.651-0.995,4.114-2.71,4.114c-1.523,0-2.567-1.427-2.591-4.006
		c0-2.626,1.14-4.054,2.723-4.054C273.285,13.08,274.232,14.543,274.232,17.026z M269.999,17.146c0,2.027,0.624,3.178,1.583,3.178
		c1.068,0,1.584-1.259,1.584-3.25c0-1.919-0.48-3.179-1.584-3.179C270.671,13.896,269.999,15.023,269.999,17.146z"/>
</g>
<g>
	<path fill="#231F20" d="M130.872,113.618v1.152h-4.447v-1.152H130.872z"/>
	<path fill="#231F20" d="M138.846,116.966c0,0.756,0.036,1.495,0.126,2.089h-1.422l-0.126-1.098h-0.054
		c-0.486,0.684-1.422,1.296-2.665,1.296c-1.765,0-2.665-1.243-2.665-2.503c0-2.106,1.873-3.259,5.239-3.241v-0.18
		c0-0.702-0.198-2.017-1.98-1.999c-0.828,0-1.674,0.234-2.287,0.648l-0.36-1.063c0.72-0.45,1.783-0.756,2.881-0.756
		c2.665,0,3.313,1.818,3.313,3.547V116.966z M137.316,114.608c-1.729-0.036-3.691,0.27-3.691,1.962c0,1.044,0.684,1.513,1.476,1.513
		c1.152,0,1.891-0.72,2.143-1.458c0.054-0.18,0.072-0.36,0.072-0.504V114.608z"/>
	<path fill="#231F20" d="M142.917,116.243h-0.024l-1.355,0.732l-0.204-0.804l1.703-0.912h0.9v7.796h-1.02V116.243z"/>
</g>
<g>
	<path fill="#231F20" d="M130.001,278.028v1.152h-4.447v-1.152H130.001z"/>
	<path fill="#231F20" d="M137.976,281.377c0,0.756,0.036,1.495,0.126,2.089h-1.422l-0.126-1.098H136.5
		c-0.486,0.684-1.422,1.296-2.665,1.296c-1.765,0-2.665-1.243-2.665-2.503c0-2.106,1.873-3.259,5.239-3.241v-0.18
		c0-0.702-0.198-2.017-1.98-1.999c-0.828,0-1.674,0.234-2.287,0.648l-0.36-1.063c0.72-0.45,1.783-0.756,2.881-0.756
		c2.665,0,3.313,1.818,3.313,3.547V281.377z M136.446,279.019c-1.729-0.036-3.691,0.27-3.691,1.962c0,1.044,0.684,1.513,1.476,1.513
		c1.152,0,1.891-0.72,2.143-1.458c0.054-0.18,0.072-0.36,0.072-0.504V279.019z"/>
	<path fill="#231F20" d="M140.127,287.466v-8.083h1.151l2.579,4.09c0.587,0.947,1.067,1.799,1.439,2.626l0.036-0.012
		c-0.096-1.079-0.12-2.063-0.12-3.322v-3.382h0.983v8.083h-1.055l-2.567-4.102c-0.563-0.9-1.103-1.823-1.499-2.699l-0.036,0.012
		c0.06,1.019,0.072,1.991,0.072,3.334v3.454H140.127z"/>
</g>
</svg>
