<?xml version="1.0" encoding="utf-8"?>
<!-- Generator: Adobe Illustrator 15.0.0, SVG Export Plug-In . SVG Version: 6.00 Build 0)  -->
<!DOCTYPE svg PUBLIC "-//W3C//DTD SVG 1.0//EN" "http://www.w3.org/TR/2001/REC-SVG-20010904/DTD/svg10.dtd">
<svg version="1.0" id="Layer_1" xmlns="http://www.w3.org/2000/svg" xmlns:xlink="http://www.w3.org/1999/xlink" x="0px" y="0px"
	 width="487.559px" height="317.48px" viewBox="0 0 487.559 317.48" enable-background="new 0 0 487.559 317.48"
	 xml:space="preserve">
<rect x="249.449" fill="#EAEAFF" width="182.185" height="317.48"/>
<rect x="55.926" fill="#EAEAFF" width="182.185" height="289.134"/>
<text transform="matrix(1 0 0 1 447.874 39.6851)" fill="#231F20" font-family="'MyriadPro-Regular'" font-size="22">y[n]</text>
<text transform="matrix(1 0 0 1 4.7935 39.6851)" fill="#231F20" font-family="'MyriadPro-Regular'" font-size="22">x[n]</text>
<rect x="73.704" y="192.756" fill="#FFFFFF" stroke="#231F20" stroke-width="2" stroke-miterlimit="10" width="45.352" height="45.352"/>
<text transform="matrix(1 0 0 1 87.606 221.1025)"><tspan x="0" y="0" fill="#231F20" font-family="'MyriadPro-Regular'" font-size="18">z</tspan><tspan x="7.704" y="-8.966" fill="#231F20" font-family="'MyriadPro-Regular'" font-size="12">-1</tspan></text>
<g id="Timer_1_" opacity="0.5">
	<path fill-rule="evenodd" clip-rule="evenodd" d="M77.911,206.758c-0.116,0.587-0.114,1.224-0.639,1.276
		c-0.813,0.081-0.6-0.874-0.446-1.595c0.161-0.755,0.231-1.539,0.637-1.787c0.74,0.194,3.462-0.011,3,1.34
		c-0.363,0.432-1.047,0.083-1.595,0c0.806,1.189,2.111,2.235,3.892,2.425c3.412,0.363,6.126-1.976,6.446-4.978
		c0.41-3.853-2.558-6.815-6.382-6.445c-1.452,0.141-2.334,0.82-3.382,1.595c-0.401,0.45-0.929,1.698-1.723,0.958
		c-0.096-0.717,0.513-1.351,0.957-1.787c0.998-0.979,2.646-1.793,4.212-1.915c4.119-0.321,7.192,2.758,7.466,6.318
		c0.185,2.401-0.806,4.06-2.042,5.488c-1.148,0.932-2.413,1.778-4.275,1.915C81.25,209.769,79.114,208.298,77.911,206.758z"/>
	<path fill-rule="evenodd" clip-rule="evenodd" d="M83.767,199.611c0.274,0.683,0.06,1.855,0.127,2.744
		c0.394,0.603,0.97,1.033,1.468,1.532c0.459,0.459,1.151,0.909,1.212,1.723c-0.591,0.91-1.656-0.508-2.233-1.084
		c-0.654-0.654-1.188-1.187-1.531-1.659c0.108-1.041-0.229-2.526,0.191-3.255C83.123,199.394,83.625,199.475,83.767,199.611z"/>
</g>
<g display="none">
	<path display="inline" fill-rule="evenodd" clip-rule="evenodd" fill="#231F20" d="M78.484,195.528c2.802,0.067,5.933-0.09,8.848,0
		c0.315,0.009,0.829-0.13,0.928,0.309c0.012,0.549-0.744,0.329-1.238,0.371c-0.067,2.234-2.703,3.505-1.918,5.754
		c0.469,1.344,1.839,2.288,1.856,4.146c0.487,0.049,1.247-0.174,1.299,0.31c-0.291,0.635-1.495,0.371-2.352,0.371
		c-2.179,0-4.443,0.047-6.683,0c-0.346-0.006-0.875,0.14-0.99-0.309c-0.012-0.549,0.743-0.329,1.238-0.371
		c0.105-1.648,1.424-2.84,1.918-4.084c0.124-0.31,0.196-0.931,0.062-1.485c-0.377-1.558-1.778-2.4-1.918-4.331
		c-0.411-0.043-1.018,0.109-1.237-0.124C78.179,195.855,78.287,195.613,78.484,195.528z M80.278,196.208
		c0.236,2.107,2.008,3.007,1.98,5.074c-0.027,2-1.94,2.692-1.98,4.826c1.98,0,3.959,0,5.94,0c-0.048-1.867-1.471-2.643-1.856-4.084
		c-0.652-2.437,1.639-3.528,1.856-5.816C84.238,196.208,82.258,196.208,80.278,196.208z"/>
</g>
<rect x="73.704" y="62.365" fill="#FFFFFF" stroke="#231F20" stroke-width="2" stroke-miterlimit="10" width="45.352" height="45.352"/>
<text transform="matrix(1 0 0 1 87.606 90.7109)"><tspan x="0" y="0" fill="#231F20" font-family="'MyriadPro-Regular'" font-size="18">z</tspan><tspan x="7.704" y="-8.966" fill="#231F20" font-family="'MyriadPro-Regular'" font-size="12">-1</tspan></text>
<g id="Timer_2_" opacity="0.5">
	<path fill-rule="evenodd" clip-rule="evenodd" d="M77.911,76.367c-0.116,0.587-0.114,1.224-0.639,1.276
		c-0.813,0.081-0.6-0.874-0.446-1.595c0.161-0.755,0.231-1.539,0.637-1.787c0.74,0.194,3.462-0.011,3,1.34
		c-0.363,0.432-1.047,0.083-1.595,0c0.806,1.189,2.111,2.235,3.892,2.425c3.412,0.363,6.126-1.976,6.446-4.978
		c0.41-3.853-2.558-6.815-6.382-6.445c-1.452,0.141-2.334,0.82-3.382,1.595c-0.401,0.45-0.929,1.698-1.723,0.958
		c-0.096-0.717,0.513-1.351,0.957-1.787c0.998-0.979,2.646-1.793,4.212-1.915c4.119-0.321,7.192,2.758,7.466,6.318
		c0.185,2.401-0.806,4.06-2.042,5.488c-1.148,0.932-2.413,1.778-4.275,1.915C81.25,79.377,79.114,77.906,77.911,76.367z"/>
	<path fill-rule="evenodd" clip-rule="evenodd" d="M83.767,69.219c0.274,0.683,0.06,1.855,0.127,2.744
		c0.394,0.603,0.97,1.033,1.468,1.532c0.459,0.459,1.151,0.909,1.212,1.723c-0.591,0.91-1.656-0.508-2.233-1.084
		c-0.654-0.654-1.188-1.187-1.531-1.659c0.108-1.041-0.229-2.526,0.191-3.255C83.123,69.002,83.625,69.083,83.767,69.219z"/>
</g>
<g display="none">
	<path display="inline" fill-rule="evenodd" clip-rule="evenodd" fill="#231F20" d="M78.484,65.136c2.802,0.067,5.933-0.09,8.848,0
		c0.315,0.009,0.829-0.13,0.928,0.309c0.012,0.549-0.744,0.329-1.238,0.371c-0.067,2.234-2.703,3.505-1.918,5.754
		c0.469,1.344,1.839,2.288,1.856,4.146c0.487,0.049,1.247-0.174,1.299,0.31c-0.291,0.635-1.495,0.371-2.352,0.371
		c-2.179,0-4.443,0.047-6.683,0c-0.346-0.006-0.875,0.14-0.99-0.309c-0.012-0.549,0.743-0.329,1.238-0.371
		c0.105-1.648,1.424-2.84,1.918-4.084c0.124-0.31,0.196-0.931,0.062-1.485c-0.377-1.558-1.778-2.4-1.918-4.331
		c-0.411-0.043-1.018,0.109-1.237-0.124C78.179,65.464,78.287,65.221,78.484,65.136z M80.278,65.816
		c0.236,2.107,2.008,3.007,1.98,5.074c-0.027,2-1.94,2.692-1.98,4.826c1.98,0,3.959,0,5.94,0c-0.048-1.867-1.471-2.643-1.856-4.084
		c-0.652-2.437,1.639-3.528,1.856-5.816C84.238,65.816,82.258,65.816,80.278,65.816z"/>
</g>
<circle fill="#FFFFFF" stroke="#231F20" stroke-width="2.2229" stroke-miterlimit="10" cx="221.103" cy="34.016" r="11.339"/>
<line fill="none" stroke="#231F20" stroke-width="1.9883" stroke-miterlimit="10" x1="221.102" y1="28.347" x2="221.102" y2="39.686"/>
<line fill="none" stroke="#231F20" stroke-width="1.9883" stroke-miterlimit="10" x1="215.434" y1="34.016" x2="226.771" y2="34.016"/>
<line fill="none" stroke="#231F20" stroke-width="1.118" stroke-miterlimit="10" x1="96.378" y1="238.111" x2="96.378" y2="266.457"/>
<line fill="none" stroke="#231F20" stroke-width="1.118" stroke-miterlimit="10" x1="96.378" y1="107.717" x2="96.378" y2="136.063"/>
<g>
	<g>
		<line fill="none" stroke="#231F20" stroke-miterlimit="10" x1="96.378" y1="136.063" x2="96.378" y2="138.563"/>
		
			<line fill="none" stroke="#231F20" stroke-miterlimit="10" stroke-dasharray="4.6008,4.6008" x1="96.378" y1="143.164" x2="96.378" y2="186.872"/>
		<line fill="none" stroke="#231F20" stroke-miterlimit="10" x1="96.378" y1="189.172" x2="96.378" y2="191.672"/>
		<g>
			<polygon fill="#231F20" points="92.288,188.358 93.021,187.676 96.377,191.288 99.734,187.676 100.467,188.358 96.377,192.756 
							"/>
		</g>
	</g>
</g>
<g>
	<g>
		<line fill="none" stroke="#231F20" stroke-miterlimit="10" x1="221.103" y1="255.119" x2="221.103" y2="251.673"/>
		
			<line fill="none" stroke="#231F20" stroke-miterlimit="10" stroke-dasharray="6.6493,6.6493" x1="221.103" y1="245.024" x2="221.103" y2="155.257"/>
		<line fill="none" stroke="#231F20" stroke-miterlimit="10" x1="221.103" y1="151.933" x2="221.103" y2="148.487"/>
		<g>
			<polygon fill="#231F20" points="225.193,151.8 224.46,152.482 221.104,148.871 217.747,152.482 217.014,151.8 221.104,147.402 
							"/>
		</g>
	</g>
</g>
<g>
	<g>
		<line fill="none" stroke="#231F20" stroke-miterlimit="10" x1="221.103" y1="124.725" x2="221.103" y2="46.439"/>
		<g>
			<polygon fill="#231F20" points="225.193,49.752 224.46,50.435 221.104,46.823 217.747,50.435 217.014,49.752 221.104,45.354 			
				"/>
		</g>
	</g>
</g>
<g>
	<g>
		<line fill="none" stroke="#231F20" stroke-miterlimit="10" x1="158.74" y1="153.071" x2="158.74" y2="153.571"/>
		
			<line fill="none" stroke="#231F20" stroke-miterlimit="10" stroke-dasharray="1.0239,7.1677" x1="158.74" y1="160.739" x2="158.74" y2="222.688"/>
		<line fill="none" stroke="#231F20" stroke-miterlimit="10" x1="158.74" y1="226.272" x2="158.74" y2="226.772"/>
	</g>
</g>
<g>
	<g>
		<line fill="none" stroke="#231F20" stroke-miterlimit="10" x1="328.816" y1="153.071" x2="328.816" y2="153.676"/>
		
			<line fill="none" stroke="#231F20" stroke-miterlimit="10" stroke-dasharray="1.2242,8.5696" x1="328.816" y1="162.246" x2="328.816" y2="255.899"/>
		<line fill="none" stroke="#231F20" stroke-miterlimit="10" x1="328.816" y1="260.184" x2="328.816" y2="260.788"/>
	</g>
</g>
<g>
	<g>
		<line fill="none" stroke="#231F20" stroke-miterlimit="10" x1="96.378" y1="136.063" x2="146.317" y2="136.063"/>
		<g>
			<polygon fill="#231F20" points="143.003,140.153 142.321,139.42 145.933,136.064 142.321,132.707 143.003,131.974 
				147.401,136.064 			"/>
		</g>
	</g>
</g>
<g>
	<g>
		<line fill="none" stroke="#231F20" stroke-miterlimit="10" x1="391.182" y1="136.063" x2="341.242" y2="136.063"/>
		<g>
			<polygon fill="#231F20" points="344.557,131.973 345.238,132.705 341.627,136.062 345.238,139.419 344.557,140.151 
				340.158,136.062 			"/>
		</g>
	</g>
</g>
<g>
	<g>
		<line fill="none" stroke="#231F20" stroke-miterlimit="10" x1="232.442" y1="34.016" x2="254.034" y2="34.016"/>
		<g>
			<polygon fill="#231F20" points="250.72,38.105 250.038,37.373 253.65,34.017 250.038,30.659 250.72,29.927 255.118,34.017 			"/>
		</g>
	</g>
</g>
<circle fill="#FFFFFF" stroke="#231F20" stroke-width="2.2229" stroke-miterlimit="10" cx="221.103" cy="136.063" r="11.339"/>
<line fill="none" stroke="#231F20" stroke-width="1.9883" stroke-miterlimit="10" x1="221.102" y1="130.394" x2="221.102" y2="141.732"/>
<line fill="none" stroke="#231F20" stroke-width="1.9883" stroke-miterlimit="10" x1="215.434" y1="136.063" x2="226.771" y2="136.063"/>
<g>
	<g>
		<line fill="none" stroke="#231F20" stroke-miterlimit="10" x1="170.079" y1="136.063" x2="208.679" y2="136.063"/>
		<g>
			<polygon fill="#231F20" points="205.366,140.152 204.684,139.42 208.295,136.063 204.684,132.706 205.366,131.974 
				209.764,136.063 			"/>
		</g>
	</g>
</g>
<g>
	<g>
		<line fill="none" stroke="#231F20" stroke-miterlimit="10" x1="170.079" y1="34.016" x2="208.679" y2="34.016"/>
		<g>
			<polygon fill="#231F20" points="205.366,38.105 204.684,37.373 208.295,34.017 204.684,30.659 205.366,29.927 209.764,34.017 			
				"/>
		</g>
	</g>
</g>
<polygon fill="#FFFFFF" stroke="#231F20" stroke-width="2" stroke-miterlimit="10" points="147.401,124.724 147.401,147.401 
	170.078,136.063 "/>
<g>
	<g>
		<line fill="none" stroke="#231F20" stroke-miterlimit="10" x1="96.378" y1="34.016" x2="96.378" y2="61.278"/>
		<g>
			<polygon fill="#231F20" points="92.288,57.964 93.021,57.282 96.377,60.894 99.734,57.282 100.467,57.964 96.377,62.362 			"/>
		</g>
	</g>
</g>
<rect x="368.504" y="62.365" fill="#FFFFFF" stroke="#231F20" stroke-width="2" stroke-miterlimit="10" width="45.352" height="45.352"/>
<text transform="matrix(1 0 0 1 382.4063 90.7109)"><tspan x="0" y="0" fill="#231F20" font-family="'MyriadPro-Regular'" font-size="18">z</tspan><tspan x="7.704" y="-8.966" fill="#231F20" font-family="'MyriadPro-Regular'" font-size="12">-1</tspan></text>
<g id="Timer_3_" opacity="0.5">
	<path fill-rule="evenodd" clip-rule="evenodd" d="M372.713,76.367c-0.117,0.587-0.115,1.224-0.641,1.276
		c-0.813,0.081-0.6-0.874-0.445-1.595c0.16-0.755,0.232-1.539,0.637-1.787c0.74,0.194,3.463-0.011,3,1.34
		c-0.361,0.432-1.047,0.083-1.594,0c0.805,1.189,2.111,2.235,3.891,2.425c3.412,0.363,6.127-1.976,6.447-4.978
		c0.41-3.853-2.559-6.815-6.383-6.445c-1.451,0.141-2.334,0.82-3.381,1.595c-0.402,0.45-0.93,1.698-1.725,0.958
		c-0.096-0.717,0.514-1.351,0.957-1.787c0.998-0.979,2.646-1.793,4.213-1.915c4.119-0.321,7.191,2.758,7.467,6.318
		c0.184,2.401-0.807,4.06-2.043,5.488c-1.148,0.932-2.412,1.778-4.275,1.915C376.051,79.377,373.916,77.906,372.713,76.367z"/>
	<path fill-rule="evenodd" clip-rule="evenodd" d="M378.568,69.219c0.273,0.683,0.059,1.855,0.127,2.744
		c0.393,0.603,0.969,1.033,1.467,1.532c0.461,0.459,1.152,0.909,1.213,1.723c-0.592,0.91-1.656-0.508-2.232-1.084
		c-0.654-0.654-1.188-1.187-1.531-1.659c0.107-1.041-0.229-2.526,0.191-3.255C377.924,69.002,378.426,69.083,378.568,69.219z"/>
</g>
<g display="none">
	<path display="inline" fill-rule="evenodd" clip-rule="evenodd" fill="#231F20" d="M373.285,65.136c2.801,0.067,5.932-0.09,8.848,0
		c0.314,0.009,0.828-0.13,0.928,0.309c0.012,0.549-0.742,0.329-1.236,0.371c-0.068,2.234-2.703,3.505-1.918,5.754
		c0.469,1.344,1.838,2.288,1.855,4.146c0.486,0.049,1.246-0.174,1.299,0.31c-0.289,0.635-1.494,0.371-2.352,0.371
		c-2.178,0-4.443,0.047-6.682,0c-0.346-0.006-0.875,0.14-0.99-0.309c-0.012-0.549,0.744-0.329,1.238-0.371
		c0.105-1.648,1.424-2.84,1.918-4.084c0.123-0.31,0.195-0.931,0.063-1.485c-0.377-1.558-1.779-2.4-1.918-4.331
		c-0.412-0.043-1.018,0.109-1.238-0.124C372.98,65.464,373.088,65.221,373.285,65.136z M375.08,65.816
		c0.234,2.107,2.008,3.007,1.979,5.074c-0.025,2-1.939,2.692-1.979,4.826c1.979,0,3.959,0,5.939,0
		c-0.049-1.867-1.471-2.643-1.857-4.084c-0.652-2.437,1.639-3.528,1.857-5.816C379.039,65.816,377.059,65.816,375.08,65.816z"/>
</g>
<g>
	<g>
		<line fill="none" stroke="#231F20" stroke-miterlimit="10" x1="391.18" y1="34.016" x2="391.18" y2="61.278"/>
		<g>
			<polygon fill="#231F20" points="387.09,57.964 387.822,57.282 391.178,60.894 394.535,57.282 395.268,57.964 391.178,62.362 			
				"/>
		</g>
	</g>
</g>
<g>
	<g>
		<line fill="none" stroke="#231F20" stroke-miterlimit="10" x1="45.354" y1="34.016" x2="146.317" y2="34.016"/>
		<g>
			<polygon fill="#231F20" points="143.003,38.105 142.321,37.373 145.933,34.017 142.321,30.659 143.003,29.927 147.401,34.017 			
				"/>
		</g>
	</g>
</g>
<g>
	<g>
		
			<line fill="none" stroke="#231F20" stroke-width="0.9672" stroke-miterlimit="10" x1="277.795" y1="34.016" x2="441.156" y2="34.016"/>
		<g>
			<polygon fill="#231F20" points="437.951,37.971 437.291,37.263 440.785,34.017 437.291,30.769 437.951,30.061 442.205,34.017 			
				"/>
		</g>
	</g>
</g>
<polygon fill="#FFFFFF" stroke="#231F20" stroke-width="2" stroke-miterlimit="10" points="147.401,22.677 147.401,45.354 
	170.078,34.016 "/>
<text transform="matrix(1 0 0 1 150.5415 119.0552)"><tspan x="0" y="0" fill="#231F20" font-family="'MyriadPro-Regular'" font-size="18">b</tspan><tspan x="10.242" y="4" fill="#231F20" font-family="'MyriadPro-Regular'" font-size="12">1</tspan></text>
<g>
	<g>
		<line fill="none" stroke="#231F20" stroke-miterlimit="10" x1="317.482" y1="300.471" x2="278.88" y2="300.473"/>
		<g>
			<polygon fill="#231F20" points="282.193,296.383 282.875,297.115 279.263,300.472 282.875,303.829 282.193,304.562 
				277.795,300.472 			"/>
		</g>
	</g>
</g>
<g>
	<g>
		<line fill="none" stroke="#231F20" stroke-miterlimit="10" x1="317.48" y1="136.062" x2="278.877" y2="136.063"/>
		<g>
			<polygon fill="#231F20" points="282.19,131.974 282.873,132.706 279.261,136.063 282.873,139.419 282.19,140.152 
				277.792,136.063 			"/>
		</g>
	</g>
</g>
<polygon fill="#FFFFFF" stroke="#231F20" stroke-width="2" stroke-miterlimit="10" points="340.158,147.402 340.158,124.725 
	317.48,136.063 "/>
<polygon fill="#FFFFFF" stroke="#231F20" stroke-width="2" stroke-miterlimit="10" points="340.158,311.812 340.158,289.134 
	317.48,300.473 "/>
<g>
	<g>
		<line fill="none" stroke="#231F20" stroke-miterlimit="10" x1="96.378" y1="266.457" x2="146.317" y2="266.457"/>
		<g>
			<polygon fill="#231F20" points="143.003,270.547 142.321,269.814 145.933,266.458 142.321,263.101 143.003,262.368 
				147.401,266.458 			"/>
		</g>
	</g>
</g>
<text transform="matrix(1 0 0 1 57.0249 141.7324)" fill="#929497" font-family="'MyriadPro-Regular'" font-size="14">x[n-1]</text>
<text transform="matrix(1 0 0 1 52.9512 272.1265)" fill="#929497" font-family="'MyriadPro-Regular'" font-size="14">x[n-M]</text>
<text transform="matrix(1 0 0 1 396.8496 306.1426)" fill="#929497" font-family="'MyriadPro-Regular'" font-size="14">y[n-N]</text>
<text transform="matrix(1 0 0 1 396.8496 141.7324)" fill="#929497" font-family="'MyriadPro-Regular'" font-size="14">y[n-1]</text>
<rect x="368.508" y="226.772" fill="#FFFFFF" stroke="#231F20" stroke-width="2" stroke-miterlimit="10" width="45.352" height="45.352"/>
<text transform="matrix(1 0 0 1 382.4082 255.1187)"><tspan x="0" y="0" fill="#231F20" font-family="'MyriadPro-Regular'" font-size="18">z</tspan><tspan x="7.705" y="-8.966" fill="#231F20" font-family="'MyriadPro-Regular'" font-size="12">-1</tspan></text>
<g id="Timer_4_" opacity="0.5">
	<path fill-rule="evenodd" clip-rule="evenodd" d="M372.715,240.774c-0.115,0.587-0.113,1.224-0.639,1.276
		c-0.814,0.081-0.6-0.874-0.447-1.595c0.162-0.755,0.232-1.539,0.639-1.787c0.738,0.194,3.461-0.011,3,1.34
		c-0.363,0.432-1.047,0.083-1.596,0c0.807,1.189,2.111,2.235,3.893,2.425c3.41,0.363,6.125-1.976,6.445-4.978
		c0.41-3.853-2.559-6.815-6.381-6.445c-1.453,0.141-2.336,0.82-3.383,1.595c-0.4,0.45-0.93,1.698-1.723,0.958
		c-0.096-0.717,0.512-1.351,0.957-1.787c0.998-0.979,2.645-1.793,4.211-1.915c4.119-0.321,7.193,2.758,7.467,6.318
		c0.186,2.401-0.805,4.06-2.043,5.488c-1.148,0.932-2.412,1.778-4.275,1.915C376.055,243.785,373.918,242.314,372.715,240.774z"/>
	<path fill-rule="evenodd" clip-rule="evenodd" d="M378.57,233.627c0.273,0.683,0.059,1.855,0.127,2.744
		c0.395,0.603,0.971,1.033,1.469,1.532c0.459,0.459,1.15,0.909,1.211,1.723c-0.59,0.91-1.656-0.508-2.232-1.084
		c-0.654-0.654-1.188-1.187-1.531-1.659c0.107-1.041-0.229-2.526,0.191-3.255C377.926,233.41,378.43,233.491,378.57,233.627z"/>
</g>
<g display="none">
	<path display="inline" fill-rule="evenodd" clip-rule="evenodd" fill="#231F20" d="M373.287,229.544
		c2.803,0.067,5.934-0.09,8.848,0c0.316,0.009,0.83-0.13,0.93,0.309c0.012,0.549-0.744,0.329-1.238,0.371
		c-0.066,2.234-2.703,3.505-1.918,5.754c0.469,1.344,1.84,2.288,1.855,4.146c0.488,0.049,1.248-0.174,1.301,0.31
		c-0.291,0.635-1.496,0.371-2.352,0.371c-2.18,0-4.443,0.047-6.684,0c-0.346-0.006-0.875,0.14-0.99-0.309
		c-0.012-0.549,0.744-0.329,1.238-0.371c0.105-1.648,1.424-2.84,1.918-4.084c0.123-0.31,0.197-0.931,0.063-1.485
		c-0.377-1.558-1.777-2.4-1.918-4.331c-0.41-0.043-1.018,0.109-1.238-0.124C372.982,229.872,373.09,229.629,373.287,229.544z
		 M375.082,230.224c0.236,2.107,2.008,3.007,1.98,5.074c-0.027,2-1.941,2.692-1.98,4.826c1.98,0,3.959,0,5.939,0
		c-0.047-1.867-1.471-2.643-1.855-4.084c-0.652-2.437,1.639-3.528,1.855-5.816C379.041,230.224,377.063,230.224,375.082,230.224z"/>
</g>
<line fill="none" stroke="#231F20" stroke-width="1.118" stroke-miterlimit="10" x1="391.182" y1="272.127" x2="391.182" y2="300.473"/>
<line fill="none" stroke="#231F20" stroke-width="1.118" stroke-miterlimit="10" x1="391.182" y1="107.717" x2="391.182" y2="136.063"/>
<g>
	<g>
		<line fill="none" stroke="#231F20" stroke-miterlimit="10" x1="391.182" y1="136.063" x2="391.182" y2="139.226"/>
		
			<line fill="none" stroke="#231F20" stroke-miterlimit="10" stroke-dasharray="6.4076,6.4076" x1="391.182" y1="145.633" x2="391.182" y2="219.321"/>
		<line fill="none" stroke="#231F20" stroke-miterlimit="10" x1="391.182" y1="222.525" x2="391.182" y2="225.688"/>
		<g>
			<polygon fill="#231F20" points="387.092,222.374 387.824,221.692 391.181,225.304 394.538,221.692 395.271,222.374 
				391.181,226.772 			"/>
		</g>
	</g>
</g>
<g>
	<g>
		<line fill="none" stroke="#231F20" stroke-miterlimit="10" x1="391.182" y1="300.473" x2="341.242" y2="300.473"/>
		<g>
			<polygon fill="#231F20" points="344.557,296.383 345.238,297.115 341.627,300.472 345.238,303.829 344.557,304.562 
				340.158,300.472 			"/>
		</g>
	</g>
</g>
<circle fill="#FFFFFF" stroke="#231F20" stroke-width="2.2229" stroke-miterlimit="10" cx="221.103" cy="266.457" r="11.339"/>
<line fill="none" stroke="#231F20" stroke-width="1.9883" stroke-miterlimit="10" x1="221.102" y1="260.788" x2="221.102" y2="272.126"/>
<line fill="none" stroke="#231F20" stroke-width="1.9883" stroke-miterlimit="10" x1="215.434" y1="266.457" x2="226.771" y2="266.457"/>
<circle fill="#FFFFFF" stroke="#231F20" stroke-width="2.2229" stroke-miterlimit="10" cx="266.457" cy="34.016" r="11.339"/>
<line fill="none" stroke="#231F20" stroke-width="1.9883" stroke-miterlimit="10" x1="266.456" y1="28.347" x2="266.456" y2="39.686"/>
<line fill="none" stroke="#231F20" stroke-width="1.9883" stroke-miterlimit="10" x1="260.788" y1="34.016" x2="272.126" y2="34.016"/>
<g>
	<g>
		<line fill="none" stroke="#231F20" stroke-miterlimit="10" x1="266.457" y1="289.135" x2="266.457" y2="285.183"/>
		
			<line fill="none" stroke="#231F20" stroke-miterlimit="10" stroke-dasharray="7.8084,7.8084" x1="266.457" y1="277.374" x2="266.457" y2="156.344"/>
		<line fill="none" stroke="#231F20" stroke-miterlimit="10" x1="266.457" y1="152.44" x2="266.457" y2="148.487"/>
		<g>
			<polygon fill="#231F20" points="270.547,151.801 269.814,152.483 266.458,148.871 263.101,152.483 262.368,151.801 
				266.458,147.403 			"/>
		</g>
	</g>
</g>
<g>
	<g>
		<line fill="none" stroke="#231F20" stroke-miterlimit="10" x1="266.457" y1="124.725" x2="266.457" y2="46.439"/>
		<g>
			<polygon fill="#231F20" points="270.547,49.752 269.814,50.435 266.458,46.823 263.101,50.435 262.368,49.752 266.458,45.354 			
				"/>
		</g>
	</g>
</g>
<circle fill="#FFFFFF" stroke="#231F20" stroke-width="2.2229" stroke-miterlimit="10" cx="266.457" cy="136.063" r="11.339"/>
<line fill="none" stroke="#231F20" stroke-width="1.9883" stroke-miterlimit="10" x1="266.456" y1="130.394" x2="266.456" y2="141.732"/>
<line fill="none" stroke="#231F20" stroke-width="1.9883" stroke-miterlimit="10" x1="260.788" y1="136.063" x2="272.126" y2="136.063"/>
<circle fill="#FFFFFF" stroke="#231F20" stroke-width="2.2229" stroke-miterlimit="10" cx="266.457" cy="300.473" r="11.339"/>
<line fill="none" stroke="#231F20" stroke-width="1.9883" stroke-miterlimit="10" x1="266.456" y1="294.804" x2="266.456" y2="306.143"/>
<line fill="none" stroke="#231F20" stroke-width="1.9883" stroke-miterlimit="10" x1="260.788" y1="300.473" x2="272.126" y2="300.473"/>
<g>
	<g>
		<line fill="none" stroke="#231F20" stroke-miterlimit="10" x1="170.079" y1="266.457" x2="208.679" y2="266.457"/>
		<g>
			<polygon fill="#231F20" points="205.366,270.546 204.684,269.814 208.295,266.458 204.684,263.1 205.366,262.368 
				209.764,266.458 			"/>
		</g>
	</g>
</g>
<polygon fill="#FFFFFF" stroke="#231F20" stroke-width="2" stroke-miterlimit="10" points="147.401,255.118 147.401,277.795 
	170.078,266.457 "/>
<text transform="matrix(1 0 0 1 148.7954 249.4492)"><tspan x="0" y="0" fill="#231F20" font-family="'MyriadPro-Regular'" font-size="18">b</tspan><tspan x="10.242" y="4" fill="#231F20" font-family="'MyriadPro-Regular'" font-size="12">M</tspan></text>
<text transform="matrix(1 0 0 1 150.5415 17.0078)"><tspan x="0" y="0" fill="#231F20" font-family="'MyriadPro-Regular'" font-size="18">b</tspan><tspan x="10.242" y="4" fill="#231F20" font-family="'MyriadPro-Regular'" font-size="12">0</tspan></text>
<text transform="matrix(1 0 0 1 312.9707 119.0552)"><tspan x="0" y="0" fill="#231F20" font-family="'MyriadPro-Regular'" font-size="18">-a</tspan><tspan x="14.201" y="4" fill="#231F20" font-family="'MyriadPro-Regular'" font-size="12">1</tspan></text>
<text transform="matrix(1 0 0 1 312.1006 283.4653)"><tspan x="0" y="0" fill="#231F20" font-family="'MyriadPro-Regular'" font-size="18">-a</tspan><tspan x="14.202" y="4" fill="#231F20" font-family="'MyriadPro-Regular'" font-size="12">N</tspan></text>
</svg>
