<?xml version="1.0" encoding="utf-8"?>
<!-- Generator: Adobe Illustrator 25.4.1, SVG Export Plug-In . SVG Version: 6.00 Build 0)  -->
<svg version="1.1" xmlns="http://www.w3.org/2000/svg" xmlns:xlink="http://www.w3.org/1999/xlink" x="0px" y="0px"
	 viewBox="0 0 195.313 84.344" enable-background="new 0 0 195.313 84.344" xml:space="preserve">
<g id="Layer_4">
	<g id="Clipped_grid" opacity="0.5">
		<defs>
			<rect id="SVGID_1_" x="-7.067" y="-3.27" opacity="0.5" width="204.368" height="91.4"/>
		</defs>
		<clipPath id="SVGID_00000157999672016971060390000007501139034547209098_">
			<use xlink:href="#SVGID_1_"  overflow="visible"/>
		</clipPath>
		<g id="Grid" opacity="0.25" clip-path="url(#SVGID_00000157999672016971060390000007501139034547209098_)">
			<g id="Horizontal_1_mm">
				
					<line fill="none" stroke="#00ABEB" stroke-width="0.15" stroke-miterlimit="10" x1="-152.583" y1="-57.278" x2="282.945" y2="-57.278"/>
				
					<line fill="none" stroke="#00ABEB" stroke-width="0.15" stroke-miterlimit="10" x1="-152.583" y1="-61.433" x2="282.945" y2="-61.433"/>
				
					<line fill="none" stroke="#00ABEB" stroke-width="0.15" stroke-miterlimit="10" x1="-152.583" y1="187.838" x2="282.945" y2="187.838"/>
				
					<line fill="none" stroke="#00ABEB" stroke-width="0.15" stroke-miterlimit="10" x1="-152.583" y1="183.683" x2="282.945" y2="183.683"/>
				
					<line fill="none" stroke="#00ABEB" stroke-width="0.15" stroke-miterlimit="10" x1="-152.583" y1="179.53" x2="282.945" y2="179.53"/>
				
					<line fill="none" stroke="#00ABEB" stroke-width="0.15" stroke-miterlimit="10" x1="-152.583" y1="175.375" x2="282.945" y2="175.375"/>
				
					<line fill="none" stroke="#00ABEB" stroke-width="0.15" stroke-miterlimit="10" x1="-152.583" y1="171.22" x2="282.945" y2="171.22"/>
				
					<line fill="none" stroke="#00ABEB" stroke-width="0.15" stroke-miterlimit="10" x1="-152.583" y1="167.066" x2="282.945" y2="167.066"/>
				
					<line fill="none" stroke="#00ABEB" stroke-width="0.15" stroke-miterlimit="10" x1="-152.583" y1="162.911" x2="282.945" y2="162.911"/>
				
					<line fill="none" stroke="#00ABEB" stroke-width="0.15" stroke-miterlimit="10" x1="-152.583" y1="158.758" x2="282.945" y2="158.758"/>
				
					<line fill="none" stroke="#00ABEB" stroke-width="0.15" stroke-miterlimit="10" x1="-152.583" y1="154.602" x2="282.945" y2="154.602"/>
				
					<line fill="none" stroke="#00ABEB" stroke-width="0.15" stroke-miterlimit="10" x1="-152.583" y1="150.447" x2="282.945" y2="150.447"/>
				
					<line fill="none" stroke="#00ABEB" stroke-width="0.15" stroke-miterlimit="10" x1="-152.583" y1="146.294" x2="282.945" y2="146.294"/>
				
					<line fill="none" stroke="#00ABEB" stroke-width="0.15" stroke-miterlimit="10" x1="-152.583" y1="142.139" x2="282.945" y2="142.139"/>
				
					<line fill="none" stroke="#00ABEB" stroke-width="0.15" stroke-miterlimit="10" x1="-152.583" y1="137.984" x2="282.945" y2="137.984"/>
				
					<line fill="none" stroke="#00ABEB" stroke-width="0.15" stroke-miterlimit="10" x1="-152.583" y1="133.83" x2="282.945" y2="133.83"/>
				
					<line fill="none" stroke="#00ABEB" stroke-width="0.15" stroke-miterlimit="10" x1="-152.583" y1="129.675" x2="282.945" y2="129.675"/>
				
					<line fill="none" stroke="#00ABEB" stroke-width="0.15" stroke-miterlimit="10" x1="-152.583" y1="125.52" x2="282.945" y2="125.52"/>
				
					<line fill="none" stroke="#00ABEB" stroke-width="0.15" stroke-miterlimit="10" x1="-152.583" y1="121.367" x2="282.945" y2="121.367"/>
				
					<line fill="none" stroke="#00ABEB" stroke-width="0.15" stroke-miterlimit="10" x1="-152.583" y1="117.212" x2="282.945" y2="117.212"/>
				
					<line fill="none" stroke="#00ABEB" stroke-width="0.15" stroke-miterlimit="10" x1="-152.583" y1="113.057" x2="282.945" y2="113.057"/>
				
					<line fill="none" stroke="#00ABEB" stroke-width="0.15" stroke-miterlimit="10" x1="-152.583" y1="108.903" x2="282.945" y2="108.903"/>
				
					<line fill="none" stroke="#00ABEB" stroke-width="0.15" stroke-miterlimit="10" x1="-152.583" y1="104.748" x2="282.945" y2="104.748"/>
				
					<line fill="none" stroke="#00ABEB" stroke-width="0.15" stroke-miterlimit="10" x1="-152.583" y1="100.593" x2="282.945" y2="100.593"/>
				
					<line fill="none" stroke="#00ABEB" stroke-width="0.15" stroke-miterlimit="10" x1="-152.583" y1="96.439" x2="282.945" y2="96.439"/>
				
					<line fill="none" stroke="#00ABEB" stroke-width="0.15" stroke-miterlimit="10" x1="-152.583" y1="92.284" x2="282.945" y2="92.284"/>
				
					<line fill="none" stroke="#00ABEB" stroke-width="0.15" stroke-miterlimit="10" x1="-152.583" y1="88.13" x2="282.945" y2="88.13"/>
				
					<line fill="none" stroke="#00ABEB" stroke-width="0.15" stroke-miterlimit="10" x1="-152.583" y1="83.975" x2="282.945" y2="83.975"/>
				
					<line fill="none" stroke="#00ABEB" stroke-width="0.15" stroke-miterlimit="10" x1="-152.583" y1="79.82" x2="282.945" y2="79.82"/>
				
					<line fill="none" stroke="#00ABEB" stroke-width="0.15" stroke-miterlimit="10" x1="-152.583" y1="75.667" x2="282.945" y2="75.667"/>
				
					<line fill="none" stroke="#00ABEB" stroke-width="0.15" stroke-miterlimit="10" x1="-152.583" y1="71.512" x2="282.945" y2="71.512"/>
				
					<line fill="none" stroke="#00ABEB" stroke-width="0.15" stroke-miterlimit="10" x1="-152.583" y1="67.357" x2="282.945" y2="67.357"/>
				
					<line fill="none" stroke="#00ABEB" stroke-width="0.15" stroke-miterlimit="10" x1="-152.583" y1="63.203" x2="282.945" y2="63.203"/>
				
					<line fill="none" stroke="#00ABEB" stroke-width="0.15" stroke-miterlimit="10" x1="-152.583" y1="59.048" x2="282.945" y2="59.048"/>
				
					<line fill="none" stroke="#00ABEB" stroke-width="0.15" stroke-miterlimit="10" x1="-152.583" y1="54.893" x2="282.945" y2="54.893"/>
				
					<line fill="none" stroke="#00ABEB" stroke-width="0.15" stroke-miterlimit="10" x1="-152.583" y1="50.74" x2="282.945" y2="50.74"/>
				
					<line fill="none" stroke="#00ABEB" stroke-width="0.15" stroke-miterlimit="10" x1="-152.583" y1="46.585" x2="282.945" y2="46.585"/>
				
					<line fill="none" stroke="#00ABEB" stroke-width="0.15" stroke-miterlimit="10" x1="-152.583" y1="42.43" x2="282.945" y2="42.43"/>
				
					<line fill="none" stroke="#00ABEB" stroke-width="0.15" stroke-miterlimit="10" x1="-152.583" y1="38.276" x2="282.945" y2="38.276"/>
				
					<line fill="none" stroke="#00ABEB" stroke-width="0.15" stroke-miterlimit="10" x1="-152.583" y1="34.121" x2="282.945" y2="34.121"/>
				
					<line fill="none" stroke="#00ABEB" stroke-width="0.15" stroke-miterlimit="10" x1="-152.583" y1="29.966" x2="282.945" y2="29.966"/>
				
					<line fill="none" stroke="#00ABEB" stroke-width="0.15" stroke-miterlimit="10" x1="-152.583" y1="25.813" x2="282.945" y2="25.813"/>
				
					<line fill="none" stroke="#00ABEB" stroke-width="0.15" stroke-miterlimit="10" x1="-152.583" y1="21.657" x2="282.945" y2="21.657"/>
				
					<line fill="none" stroke="#00ABEB" stroke-width="0.15" stroke-miterlimit="10" x1="-152.583" y1="17.504" x2="282.945" y2="17.504"/>
				
					<line fill="none" stroke="#00ABEB" stroke-width="0.15" stroke-miterlimit="10" x1="-152.583" y1="13.349" x2="282.945" y2="13.349"/>
				
					<line fill="none" stroke="#00ABEB" stroke-width="0.15" stroke-miterlimit="10" x1="-152.583" y1="9.194" x2="282.945" y2="9.194"/>
				
					<line fill="none" stroke="#00ABEB" stroke-width="0.15" stroke-miterlimit="10" x1="-152.583" y1="5.04" x2="282.945" y2="5.04"/>
				
					<line fill="none" stroke="#00ABEB" stroke-width="0.15" stroke-miterlimit="10" x1="-152.583" y1="0.885" x2="282.945" y2="0.885"/>
				
					<line fill="none" stroke="#00ABEB" stroke-width="0.15" stroke-miterlimit="10" x1="-152.583" y1="-3.27" x2="282.945" y2="-3.27"/>
				
					<line fill="none" stroke="#00ABEB" stroke-width="0.15" stroke-miterlimit="10" x1="-152.583" y1="-7.423" x2="282.945" y2="-7.423"/>
				
					<line fill="none" stroke="#00ABEB" stroke-width="0.15" stroke-miterlimit="10" x1="-152.583" y1="-11.578" x2="282.945" y2="-11.578"/>
				
					<line fill="none" stroke="#00ABEB" stroke-width="0.15" stroke-miterlimit="10" x1="-152.583" y1="-15.733" x2="282.945" y2="-15.733"/>
				
					<line fill="none" stroke="#00ABEB" stroke-width="0.15" stroke-miterlimit="10" x1="-152.583" y1="-19.887" x2="282.945" y2="-19.887"/>
				
					<line fill="none" stroke="#00ABEB" stroke-width="0.15" stroke-miterlimit="10" x1="-152.583" y1="-24.042" x2="282.945" y2="-24.042"/>
				
					<line fill="none" stroke="#00ABEB" stroke-width="0.15" stroke-miterlimit="10" x1="-152.583" y1="-28.197" x2="282.945" y2="-28.197"/>
				
					<line fill="none" stroke="#00ABEB" stroke-width="0.15" stroke-miterlimit="10" x1="-152.583" y1="-32.35" x2="282.945" y2="-32.35"/>
				
					<line fill="none" stroke="#00ABEB" stroke-width="0.15" stroke-miterlimit="10" x1="-152.583" y1="-36.506" x2="282.945" y2="-36.506"/>
				
					<line fill="none" stroke="#00ABEB" stroke-width="0.15" stroke-miterlimit="10" x1="-152.583" y1="-40.66" x2="282.945" y2="-40.66"/>
				
					<line fill="none" stroke="#00ABEB" stroke-width="0.15" stroke-miterlimit="10" x1="-152.583" y1="-44.815" x2="282.945" y2="-44.815"/>
				
					<line fill="none" stroke="#00ABEB" stroke-width="0.15" stroke-miterlimit="10" x1="-152.583" y1="-48.97" x2="282.945" y2="-48.97"/>
				
					<line fill="none" stroke="#00ABEB" stroke-width="0.15" stroke-miterlimit="10" x1="-152.583" y1="-53.123" x2="282.945" y2="-53.123"/>
			</g>
			<g id="Vertical_1_mm">
				<g>
					
						<line fill="none" stroke="#00ABEB" stroke-width="0.15" stroke-miterlimit="10" x1="-152.438" y1="187.818" x2="-152.438" y2="-61.543"/>
				</g>
				
					<line fill="none" stroke="#00ABEB" stroke-width="0.15" stroke-miterlimit="10" x1="-146.997" y1="187.818" x2="-146.997" y2="-61.543"/>
				
					<line fill="none" stroke="#00ABEB" stroke-width="0.15" stroke-miterlimit="10" x1="-141.554" y1="187.818" x2="-141.554" y2="-61.543"/>
				
					<line fill="none" stroke="#00ABEB" stroke-width="0.15" stroke-miterlimit="10" x1="-136.111" y1="187.818" x2="-136.111" y2="-61.543"/>
				
					<line fill="none" stroke="#00ABEB" stroke-width="0.15" stroke-miterlimit="10" x1="-130.67" y1="187.818" x2="-130.67" y2="-61.543"/>
				
					<line fill="none" stroke="#00ABEB" stroke-width="0.15" stroke-miterlimit="10" x1="-125.227" y1="187.818" x2="-125.227" y2="-61.543"/>
				
					<line fill="none" stroke="#00ABEB" stroke-width="0.15" stroke-miterlimit="10" x1="-119.784" y1="187.818" x2="-119.784" y2="-61.543"/>
				
					<line fill="none" stroke="#00ABEB" stroke-width="0.15" stroke-miterlimit="10" x1="-114.343" y1="187.818" x2="-114.343" y2="-61.543"/>
				
					<line fill="none" stroke="#00ABEB" stroke-width="0.15" stroke-miterlimit="10" x1="-108.899" y1="187.818" x2="-108.899" y2="-61.543"/>
				
					<line fill="none" stroke="#00ABEB" stroke-width="0.15" stroke-miterlimit="10" x1="-103.457" y1="187.818" x2="-103.457" y2="-61.543"/>
				
					<line fill="none" stroke="#00ABEB" stroke-width="0.15" stroke-miterlimit="10" x1="-98.014" y1="187.818" x2="-98.014" y2="-61.543"/>
				
					<line fill="none" stroke="#00ABEB" stroke-width="0.15" stroke-miterlimit="10" x1="-92.571" y1="187.818" x2="-92.571" y2="-61.543"/>
				
					<line fill="none" stroke="#00ABEB" stroke-width="0.15" stroke-miterlimit="10" x1="-87.13" y1="187.818" x2="-87.13" y2="-61.543"/>
				
					<line fill="none" stroke="#00ABEB" stroke-width="0.15" stroke-miterlimit="10" x1="-81.687" y1="187.818" x2="-81.687" y2="-61.543"/>
				
					<line fill="none" stroke="#00ABEB" stroke-width="0.15" stroke-miterlimit="10" x1="-76.244" y1="187.818" x2="-76.244" y2="-61.543"/>
				
					<line fill="none" stroke="#00ABEB" stroke-width="0.15" stroke-miterlimit="10" x1="-70.803" y1="187.818" x2="-70.803" y2="-61.543"/>
				
					<line fill="none" stroke="#00ABEB" stroke-width="0.15" stroke-miterlimit="10" x1="-65.36" y1="187.818" x2="-65.36" y2="-61.543"/>
				
					<line fill="none" stroke="#00ABEB" stroke-width="0.15" stroke-miterlimit="10" x1="-59.917" y1="187.818" x2="-59.917" y2="-61.543"/>
				
					<line fill="none" stroke="#00ABEB" stroke-width="0.15" stroke-miterlimit="10" x1="-54.476" y1="187.818" x2="-54.476" y2="-61.543"/>
				
					<line fill="none" stroke="#00ABEB" stroke-width="0.15" stroke-miterlimit="10" x1="-49.033" y1="187.818" x2="-49.033" y2="-61.543"/>
				
					<line fill="none" stroke="#00ABEB" stroke-width="0.15" stroke-miterlimit="10" x1="-43.59" y1="187.818" x2="-43.59" y2="-61.543"/>
				
					<line fill="none" stroke="#00ABEB" stroke-width="0.15" stroke-miterlimit="10" x1="-38.148" y1="187.818" x2="-38.148" y2="-61.543"/>
				
					<line fill="none" stroke="#00ABEB" stroke-width="0.15" stroke-miterlimit="10" x1="-32.705" y1="187.818" x2="-32.705" y2="-61.543"/>
				
					<line fill="none" stroke="#00ABEB" stroke-width="0.15" stroke-miterlimit="10" x1="-27.262" y1="187.818" x2="-27.262" y2="-61.543"/>
				
					<line fill="none" stroke="#00ABEB" stroke-width="0.15" stroke-miterlimit="10" x1="-21.82" y1="187.818" x2="-21.82" y2="-61.543"/>
				
					<line fill="none" stroke="#00ABEB" stroke-width="0.15" stroke-miterlimit="10" x1="-16.377" y1="187.818" x2="-16.377" y2="-61.543"/>
				
					<line fill="none" stroke="#00ABEB" stroke-width="0.15" stroke-miterlimit="10" x1="-10.936" y1="187.818" x2="-10.936" y2="-61.543"/>
				
					<line fill="none" stroke="#00ABEB" stroke-width="0.15" stroke-miterlimit="10" x1="-5.493" y1="187.818" x2="-5.493" y2="-61.543"/>
				
					<line fill="none" stroke="#00ABEB" stroke-width="0.15" stroke-miterlimit="10" x1="-0.05" y1="187.818" x2="-0.05" y2="-61.543"/>
				
					<line fill="none" stroke="#00ABEB" stroke-width="0.15" stroke-miterlimit="10" x1="5.391" y1="187.818" x2="5.391" y2="-61.543"/>
				
					<line fill="none" stroke="#00ABEB" stroke-width="0.15" stroke-miterlimit="10" x1="10.834" y1="187.818" x2="10.834" y2="-61.543"/>
				
					<line fill="none" stroke="#00ABEB" stroke-width="0.15" stroke-miterlimit="10" x1="16.277" y1="187.818" x2="16.277" y2="-61.543"/>
				
					<line fill="none" stroke="#00ABEB" stroke-width="0.15" stroke-miterlimit="10" x1="21.719" y1="187.818" x2="21.719" y2="-61.543"/>
				
					<line fill="none" stroke="#00ABEB" stroke-width="0.15" stroke-miterlimit="10" x1="27.161" y1="187.818" x2="27.161" y2="-61.543"/>
				
					<line fill="none" stroke="#00ABEB" stroke-width="0.15" stroke-miterlimit="10" x1="32.605" y1="187.818" x2="32.605" y2="-61.543"/>
				
					<line fill="none" stroke="#00ABEB" stroke-width="0.15" stroke-miterlimit="10" x1="38.046" y1="187.818" x2="38.046" y2="-61.543"/>
				
					<line fill="none" stroke="#00ABEB" stroke-width="0.15" stroke-miterlimit="10" x1="43.489" y1="187.818" x2="43.489" y2="-61.543"/>
				
					<line fill="none" stroke="#00ABEB" stroke-width="0.15" stroke-miterlimit="10" x1="48.932" y1="187.818" x2="48.932" y2="-61.543"/>
				
					<line fill="none" stroke="#00ABEB" stroke-width="0.15" stroke-miterlimit="10" x1="54.373" y1="187.818" x2="54.373" y2="-61.543"/>
				
					<line fill="none" stroke="#00ABEB" stroke-width="0.15" stroke-miterlimit="10" x1="59.816" y1="187.818" x2="59.816" y2="-61.543"/>
				
					<line fill="none" stroke="#00ABEB" stroke-width="0.15" stroke-miterlimit="10" x1="65.257" y1="187.818" x2="65.257" y2="-61.543"/>
				
					<line fill="none" stroke="#00ABEB" stroke-width="0.15" stroke-miterlimit="10" x1="70.701" y1="187.818" x2="70.701" y2="-61.543"/>
				
					<line fill="none" stroke="#00ABEB" stroke-width="0.15" stroke-miterlimit="10" x1="76.144" y1="187.818" x2="76.144" y2="-61.543"/>
				
					<line fill="none" stroke="#00ABEB" stroke-width="0.15" stroke-miterlimit="10" x1="81.585" y1="187.818" x2="81.585" y2="-61.543"/>
				
					<line fill="none" stroke="#00ABEB" stroke-width="0.15" stroke-miterlimit="10" x1="87.028" y1="187.818" x2="87.028" y2="-61.543"/>
				
					<line fill="none" stroke="#00ABEB" stroke-width="0.15" stroke-miterlimit="10" x1="92.471" y1="187.818" x2="92.471" y2="-61.543"/>
				
					<line fill="none" stroke="#00ABEB" stroke-width="0.15" stroke-miterlimit="10" x1="97.913" y1="187.818" x2="97.913" y2="-61.543"/>
				
					<line fill="none" stroke="#00ABEB" stroke-width="0.15" stroke-miterlimit="10" x1="103.356" y1="187.818" x2="103.356" y2="-61.543"/>
				
					<line fill="none" stroke="#00ABEB" stroke-width="0.15" stroke-miterlimit="10" x1="108.799" y1="187.818" x2="108.799" y2="-61.543"/>
				
					<line fill="none" stroke="#00ABEB" stroke-width="0.15" stroke-miterlimit="10" x1="114.24" y1="187.818" x2="114.24" y2="-61.543"/>
				
					<line fill="none" stroke="#00ABEB" stroke-width="0.15" stroke-miterlimit="10" x1="119.683" y1="187.818" x2="119.683" y2="-61.543"/>
				
					<line fill="none" stroke="#00ABEB" stroke-width="0.15" stroke-miterlimit="10" x1="125.126" y1="187.818" x2="125.126" y2="-61.543"/>
				
					<line fill="none" stroke="#00ABEB" stroke-width="0.15" stroke-miterlimit="10" x1="130.567" y1="187.818" x2="130.567" y2="-61.543"/>
				
					<line fill="none" stroke="#00ABEB" stroke-width="0.15" stroke-miterlimit="10" x1="136.01" y1="187.818" x2="136.01" y2="-61.543"/>
				
					<line fill="none" stroke="#00ABEB" stroke-width="0.15" stroke-miterlimit="10" x1="141.453" y1="187.818" x2="141.453" y2="-61.543"/>
				
					<line fill="none" stroke="#00ABEB" stroke-width="0.15" stroke-miterlimit="10" x1="146.894" y1="187.818" x2="146.894" y2="-61.543"/>
				
					<line fill="none" stroke="#00ABEB" stroke-width="0.15" stroke-miterlimit="10" x1="152.338" y1="187.818" x2="152.338" y2="-61.543"/>
				
					<line fill="none" stroke="#00ABEB" stroke-width="0.15" stroke-miterlimit="10" x1="157.779" y1="187.818" x2="157.779" y2="-61.543"/>
				
					<line fill="none" stroke="#00ABEB" stroke-width="0.15" stroke-miterlimit="10" x1="163.222" y1="187.818" x2="163.222" y2="-61.543"/>
				
					<line fill="none" stroke="#00ABEB" stroke-width="0.15" stroke-miterlimit="10" x1="168.665" y1="187.818" x2="168.665" y2="-61.543"/>
				
					<line fill="none" stroke="#00ABEB" stroke-width="0.15" stroke-miterlimit="10" x1="174.107" y1="187.818" x2="174.107" y2="-61.543"/>
				
					<line fill="none" stroke="#00ABEB" stroke-width="0.15" stroke-miterlimit="10" x1="179.55" y1="187.818" x2="179.55" y2="-61.543"/>
				
					<line fill="none" stroke="#00ABEB" stroke-width="0.15" stroke-miterlimit="10" x1="184.993" y1="187.818" x2="184.993" y2="-61.543"/>
				
					<line fill="none" stroke="#00ABEB" stroke-width="0.15" stroke-miterlimit="10" x1="190.434" y1="187.818" x2="190.434" y2="-61.543"/>
				
					<line fill="none" stroke="#00ABEB" stroke-width="0.15" stroke-miterlimit="10" x1="195.877" y1="187.818" x2="195.877" y2="-61.543"/>
				
					<line fill="none" stroke="#00ABEB" stroke-width="0.15" stroke-miterlimit="10" x1="201.32" y1="187.818" x2="201.32" y2="-61.543"/>
				
					<line fill="none" stroke="#00ABEB" stroke-width="0.15" stroke-miterlimit="10" x1="206.761" y1="187.818" x2="206.761" y2="-61.543"/>
				
					<line fill="none" stroke="#00ABEB" stroke-width="0.15" stroke-miterlimit="10" x1="212.204" y1="187.818" x2="212.204" y2="-61.543"/>
				
					<line fill="none" stroke="#00ABEB" stroke-width="0.15" stroke-miterlimit="10" x1="217.647" y1="187.818" x2="217.647" y2="-61.543"/>
				
					<line fill="none" stroke="#00ABEB" stroke-width="0.15" stroke-miterlimit="10" x1="223.088" y1="187.818" x2="223.088" y2="-61.543"/>
				
					<line fill="none" stroke="#00ABEB" stroke-width="0.15" stroke-miterlimit="10" x1="228.531" y1="187.818" x2="228.531" y2="-61.543"/>
				
					<line fill="none" stroke="#00ABEB" stroke-width="0.15" stroke-miterlimit="10" x1="233.974" y1="187.818" x2="233.974" y2="-61.543"/>
				
					<line fill="none" stroke="#00ABEB" stroke-width="0.15" stroke-miterlimit="10" x1="239.417" y1="187.818" x2="239.417" y2="-61.543"/>
				
					<line fill="none" stroke="#00ABEB" stroke-width="0.15" stroke-miterlimit="10" x1="244.859" y1="187.818" x2="244.859" y2="-61.543"/>
				
					<line fill="none" stroke="#00ABEB" stroke-width="0.15" stroke-miterlimit="10" x1="250.301" y1="187.818" x2="250.301" y2="-61.543"/>
				
					<line fill="none" stroke="#00ABEB" stroke-width="0.15" stroke-miterlimit="10" x1="255.744" y1="187.818" x2="255.744" y2="-61.543"/>
				
					<line fill="none" stroke="#00ABEB" stroke-width="0.15" stroke-miterlimit="10" x1="261.187" y1="187.818" x2="261.187" y2="-61.543"/>
				
					<line fill="none" stroke="#00ABEB" stroke-width="0.15" stroke-miterlimit="10" x1="266.628" y1="187.818" x2="266.628" y2="-61.543"/>
				
					<line fill="none" stroke="#00ABEB" stroke-width="0.15" stroke-miterlimit="10" x1="272.071" y1="187.818" x2="272.071" y2="-61.543"/>
				
					<line fill="none" stroke="#00ABEB" stroke-width="0.15" stroke-miterlimit="10" x1="277.514" y1="187.818" x2="277.514" y2="-61.543"/>
				
					<line fill="none" stroke="#00ABEB" stroke-width="0.15" stroke-miterlimit="10" x1="282.955" y1="187.818" x2="282.955" y2="-61.543"/>
			</g>
			<g id="Horizontal_5_mm_1_">
				
					<line fill="none" stroke="#00ABEB" stroke-width="0.3" stroke-miterlimit="10" x1="-153.11" y1="187.838" x2="282.945" y2="187.838"/>
				
					<line fill="none" stroke="#00ABEB" stroke-width="0.3" stroke-miterlimit="10" x1="-153.11" y1="167.066" x2="282.945" y2="167.066"/>
				
					<line fill="none" stroke="#00ABEB" stroke-width="0.3" stroke-miterlimit="10" x1="-153.11" y1="146.294" x2="282.945" y2="146.294"/>
				
					<line fill="none" stroke="#00ABEB" stroke-width="0.3" stroke-miterlimit="10" x1="-153.11" y1="125.52" x2="282.945" y2="125.52"/>
				
					<line fill="none" stroke="#00ABEB" stroke-width="0.3" stroke-miterlimit="10" x1="-153.11" y1="104.748" x2="282.945" y2="104.748"/>
				
					<line fill="none" stroke="#00ABEB" stroke-width="0.3" stroke-miterlimit="10" x1="-153.11" y1="83.975" x2="282.945" y2="83.975"/>
				
					<line fill="none" stroke="#00ABEB" stroke-width="0.3" stroke-miterlimit="10" x1="-153.11" y1="63.203" x2="282.945" y2="63.203"/>
				
					<line fill="none" stroke="#00ABEB" stroke-width="0.3" stroke-miterlimit="10" x1="-153.11" y1="42.43" x2="282.945" y2="42.43"/>
				
					<line fill="none" stroke="#00ABEB" stroke-width="0.3" stroke-miterlimit="10" x1="-153.11" y1="21.657" x2="282.945" y2="21.657"/>
				
					<line fill="none" stroke="#00ABEB" stroke-width="0.3" stroke-miterlimit="10" x1="-153.11" y1="0.885" x2="282.945" y2="0.885"/>
				
					<line fill="none" stroke="#00ABEB" stroke-width="0.3" stroke-miterlimit="10" x1="-153.11" y1="-19.887" x2="282.945" y2="-19.887"/>
			</g>
			<g id="Vertical_5_mm">
				
					<line fill="none" stroke="#00ABEB" stroke-width="0.3" stroke-miterlimit="10" x1="-152.438" y1="187.818" x2="-152.438" y2="-61.946"/>
				
					<line fill="none" stroke="#00ABEB" stroke-width="0.3" stroke-miterlimit="10" x1="-125.227" y1="187.818" x2="-125.227" y2="-61.946"/>
				
					<line fill="none" stroke="#00ABEB" stroke-width="0.3" stroke-miterlimit="10" x1="-98.014" y1="187.818" x2="-98.014" y2="-61.946"/>
				
					<line fill="none" stroke="#00ABEB" stroke-width="0.3" stroke-miterlimit="10" x1="-70.803" y1="187.818" x2="-70.803" y2="-61.946"/>
				
					<line fill="none" stroke="#00ABEB" stroke-width="0.3" stroke-miterlimit="10" x1="-43.59" y1="187.818" x2="-43.59" y2="-61.946"/>
				
					<line fill="none" stroke="#00ABEB" stroke-width="0.3" stroke-miterlimit="10" x1="-16.377" y1="187.818" x2="-16.377" y2="-61.946"/>
				
					<line fill="none" stroke="#00ABEB" stroke-width="0.3" stroke-miterlimit="10" x1="10.834" y1="187.818" x2="10.834" y2="-61.946"/>
				
					<line fill="none" stroke="#00ABEB" stroke-width="0.3" stroke-miterlimit="10" x1="38.046" y1="187.818" x2="38.046" y2="-61.946"/>
				
					<line fill="none" stroke="#00ABEB" stroke-width="0.3" stroke-miterlimit="10" x1="65.257" y1="187.818" x2="65.257" y2="-61.946"/>
				
					<line fill="none" stroke="#00ABEB" stroke-width="0.3" stroke-miterlimit="10" x1="92.471" y1="187.818" x2="92.471" y2="-61.946"/>
				
					<line fill="none" stroke="#00ABEB" stroke-width="0.3" stroke-miterlimit="10" x1="119.683" y1="187.818" x2="119.683" y2="-61.946"/>
				
					<line fill="none" stroke="#00ABEB" stroke-width="0.3" stroke-miterlimit="10" x1="146.894" y1="187.818" x2="146.894" y2="-61.946"/>
				
					<line fill="none" stroke="#00ABEB" stroke-width="0.3" stroke-miterlimit="10" x1="174.107" y1="187.818" x2="174.107" y2="-61.946"/>
				
					<line fill="none" stroke="#00ABEB" stroke-width="0.3" stroke-miterlimit="10" x1="201.32" y1="187.818" x2="201.32" y2="-61.946"/>
				
					<line fill="none" stroke="#00ABEB" stroke-width="0.3" stroke-miterlimit="10" x1="228.531" y1="187.818" x2="228.531" y2="-61.946"/>
				
					<line fill="none" stroke="#00ABEB" stroke-width="0.3" stroke-miterlimit="10" x1="255.744" y1="187.818" x2="255.744" y2="-61.946"/>
				
					<line fill="none" stroke="#00ABEB" stroke-width="0.3" stroke-miterlimit="10" x1="282.955" y1="187.818" x2="282.955" y2="-61.946"/>
			</g>
			<g id="Horizontal_10_mm">
				
					<line id="_x31_9_1_" fill="none" stroke="#00ABEB" stroke-width="0.7" stroke-miterlimit="10" x1="-153.11" y1="187.838" x2="282.945" y2="187.838"/>
				
					<line id="_x32_0" fill="none" stroke="#00ABEB" stroke-width="0.7" stroke-miterlimit="10" x1="-153.11" y1="146.294" x2="282.945" y2="146.294"/>
				
					<line id="_x32_1" fill="none" stroke="#00ABEB" stroke-width="0.7" stroke-miterlimit="10" x1="-153.11" y1="104.748" x2="282.945" y2="104.748"/>
				
					<line id="_x32_2" fill="none" stroke="#00ABEB" stroke-width="0.7" stroke-miterlimit="10" x1="-153.11" y1="63.203" x2="282.945" y2="63.203"/>
				
					<line id="_x32_3" fill="none" stroke="#00ABEB" stroke-width="0.7" stroke-miterlimit="10" x1="-153.11" y1="21.657" x2="282.945" y2="21.657"/>
				
					<line id="_x32_4" fill="none" stroke="#00ABEB" stroke-width="0.7" stroke-miterlimit="10" x1="-153.11" y1="-19.887" x2="282.945" y2="-19.887"/>
				
					<line id="_x32_5" fill="none" stroke="#00ABEB" stroke-width="0.7" stroke-miterlimit="10" x1="-153.11" y1="-61.433" x2="282.945" y2="-61.433"/>
			</g>
			<g id="Vertical_10_mm">
				
					<line id="_x30_" fill="none" stroke="#00ABEB" stroke-width="0.7" stroke-miterlimit="10" x1="-152.438" y1="187.818" x2="-152.438" y2="-61.946"/>
				
					<line id="_x31_" fill="none" stroke="#00ABEB" stroke-width="0.7" stroke-miterlimit="10" x1="-98.014" y1="187.818" x2="-98.014" y2="-61.946"/>
				
					<line id="_x32_" fill="none" stroke="#00ABEB" stroke-width="0.7" stroke-miterlimit="10" x1="-43.59" y1="187.818" x2="-43.59" y2="-61.946"/>
				
					<line id="_x33_" fill="none" stroke="#00ABEB" stroke-width="0.7" stroke-miterlimit="10" x1="10.834" y1="187.818" x2="10.834" y2="-61.946"/>
				
					<line id="_x34_" fill="none" stroke="#00ABEB" stroke-width="0.7" stroke-miterlimit="10" x1="65.257" y1="187.818" x2="65.257" y2="-61.946"/>
				
					<line id="_x35_" fill="none" stroke="#00ABEB" stroke-width="0.7" stroke-miterlimit="10" x1="119.683" y1="187.818" x2="119.683" y2="-61.946"/>
				
					<line id="_x36_" fill="none" stroke="#00ABEB" stroke-width="0.7" stroke-miterlimit="10" x1="174.107" y1="187.818" x2="174.107" y2="-61.946"/>
				
					<line id="_x37_" fill="none" stroke="#00ABEB" stroke-width="0.7" stroke-miterlimit="10" x1="228.531" y1="187.818" x2="228.531" y2="-61.946"/>
				
					<line id="_x38_" fill="none" stroke="#00ABEB" stroke-width="0.7" stroke-miterlimit="10" x1="282.955" y1="187.818" x2="282.955" y2="-61.946"/>
			</g>
		</g>
	</g>
</g>
<g id="one_solution">
	<g>
		<g>
			<path fill="none" stroke="#FF0000" stroke-width="2" stroke-linecap="round" stroke-linejoin="round" d="M2.473,67.007
				C82.627,1.57,120.727,92.777,187.471,12.789"/>
			<g>
				<polygon fill="#FF0000" points="189.316,23.118 187.316,23.196 186.938,13.343 177.136,14.439 176.916,12.45 188.853,11.116 
									"/>
			</g>
		</g>
	</g>
	<g>
		<path fill="#FF0000" d="M188.868,37.578l-0.36-0.06c-0.24-2.141-1.22-3.261-2.98-3.261c-1.48,0-2.881,0.76-3.981,1.94
			c-1.44,1.54-2.161,3.82-2.161,6.021c0,2.8,1.28,4.101,3.501,4.101c1.64,0,2.841-0.58,4.581-2.381l0.36,0.301
			c-1.8,2.12-3.4,2.98-5.461,2.98c-3.061,0-5.221-1.921-5.221-5.222c0-2.82,1.541-5.44,3.741-7.001
			c1.28-0.921,2.801-1.461,4.381-1.461c0.66,0,1.5,0.04,2.341,0.341c0.4,0.14,0.64,0.14,0.82,0.14c0.4,0,0.6-0.12,0.76-0.44h0.419
			L188.868,37.578z"/>
	</g>
	<g>
		<g>
			<g>
				
					<line fill="none" stroke="#00B200" stroke-linecap="round" stroke-linejoin="round" x1="27.632" y1="50.595" x2="36.883" y2="69.244"/>
				<g>
					<polygon fill="#00B200" points="31.747,68.093 32.1,67.157 36.712,68.901 38.114,64.173 39.073,64.459 37.364,70.216 					"/>
				</g>
			</g>
		</g>
		
			<polyline fill="none" stroke="#000000" stroke-width="0.3" stroke-linecap="round" stroke-linejoin="round" stroke-miterlimit="10" points="
			31.311,48.9 32.908,52.393 29.409,54.178 		"/>
	</g>
	<g>
		<g>
			<g>
				
					<line fill="none" stroke="#00B200" stroke-linecap="round" stroke-linejoin="round" x1="100.904" y1="45.374" x2="97.647" y2="65.935"/>
				<g>
					<polygon fill="#00B200" points="94.126,62.023 94.956,61.464 97.706,65.556 101.588,62.514 102.204,63.303 97.477,67.006 					
						"/>
				</g>
			</g>
		</g>
		
			<polyline fill="none" stroke="#000000" stroke-width="0.3" stroke-linecap="round" stroke-linejoin="round" stroke-miterlimit="10" points="
			104.886,46.123 104.165,49.895 100.279,49.325 		"/>
	</g>
	<g>
		<g>
			<g>
				
					<line fill="none" stroke="#0000FF" stroke-linecap="round" stroke-linejoin="round" x1="27.661" y1="50.708" x2="46.859" y2="27.747"/>
				<g>
					<polygon fill="#0000FF" points="47.872,32.912 46.872,32.966 46.614,28.042 41.721,28.659 41.597,27.666 47.556,26.915 					
						"/>
				</g>
			</g>
		</g>
		<g>
			<g>
				<g>
					
						<line fill="none" stroke="#0000FF" stroke-linecap="round" stroke-linejoin="round" x1="100.877" y1="45.437" x2="120.076" y2="22.476"/>
					<g>
						<polygon fill="#0000FF" points="121.088,27.642 120.088,27.695 119.83,22.771 114.938,23.389 114.813,22.395 120.772,21.645 
													"/>
					</g>
				</g>
			</g>
		</g>
		<g>
			<g>
				<g>
					
						<line fill="none" stroke="#0000FF" stroke-linecap="round" stroke-linejoin="round" x1="165.359" y1="33.984" x2="173.127" y2="5.08"/>
					<g>
						<polygon fill="#0000FF" points="176.217,9.341 175.332,9.81 173.028,5.45 168.848,8.067 168.318,7.218 173.409,4.032 						
							"/>
					</g>
				</g>
			</g>
		</g>
	</g>
	<g>
		<path fill="#0000FF" d="M52.893,15.675l-0.336-0.032c0.048-0.352,0.048-0.432,0.048-0.528c0-1.168-0.368-1.376-3.186-1.376
			c-0.736,0-0.976,0.096-1.088,0.512l-1.024,3.634c2.689-0.032,2.737-0.064,3.458-1.505l0.288,0.08l-1.216,3.762l-0.272-0.08
			c0.096-0.496,0.128-0.721,0.128-0.977c0-0.64-0.448-0.704-1.201-0.704c-0.352,0-0.736-0.016-1.329-0.048l-0.944,3.409
			c-0.112,0.4-0.224,0.721-0.224,0.961c0,0.384,0.288,0.56,1.232,0.624v0.256h-4.018v-0.256c0.929-0.064,1.088-0.416,1.329-1.249
			l1.969-7.074c0.112-0.4,0.16-0.721,0.16-0.977c0-0.448-0.16-0.544-1.216-0.641V13.21h7.955L52.893,15.675z"/>
	</g>
	<g>
		<g>
			<line fill="none" stroke="#0000FF" stroke-width="0.5" stroke-miterlimit="10" x1="45.865" y1="10.798" x2="52.317" y2="10.73"/>
			<g>
				<polygon fill="#0000FF" points="50.682,12.792 50.337,12.429 52.125,10.732 50.301,9.073 50.639,8.703 52.859,10.724 				"/>
			</g>
		</g>
	</g>
	<g>
		<g>
			<path fill="#00B200" d="M31.355,79.733c-1.088,1.489-1.488,1.81-2.241,1.81c-0.4,0-0.752-0.257-0.752-0.865
				c0-0.159,0.032-0.368,0.256-1.2l0.704-2.593c0.128-0.496,0.224-1.072,0.224-1.265c0-0.288-0.144-0.464-0.384-0.464
				c-0.64,0-1.36,0.784-2.369,2.272c-0.721,1.072-0.849,1.44-1.601,3.97h-1.201l1.537-5.603c0.016-0.08,0.032-0.176,0.032-0.271
				c0-0.32-0.224-0.417-1.041-0.433v-0.256c1.296-0.256,1.745-0.32,2.593-0.496l0.064,0.032l-1.072,3.489
				c1.601-2.562,2.673-3.521,3.698-3.521c0.688,0,1.04,0.399,1.04,0.977c0,0.288-0.064,0.624-0.16,0.96l-0.896,3.249
				c-0.16,0.576-0.224,0.849-0.224,0.977c0,0.145,0.064,0.288,0.256,0.288c0.224,0,0.512-0.256,0.977-0.849
				c0.112-0.128,0.224-0.271,0.336-0.416L31.355,79.733z"/>
		</g>
		<g>
			<path fill="#00B200" d="M30.279,73.138l-2.289-4.625h-0.016l-2.273,4.625h-1.088l2.897-5.842h0.96l2.897,5.842H30.279z"/>
		</g>
	</g>
	<g>
		<g>
			<path fill="#00B200" d="M91.351,72.677c-1.088,1.489-1.488,1.81-2.241,1.81c-0.4,0-0.752-0.257-0.752-0.865
				c0-0.159,0.032-0.368,0.256-1.2l0.704-2.593c0.128-0.496,0.224-1.072,0.224-1.265c0-0.288-0.144-0.464-0.384-0.464
				c-0.64,0-1.36,0.784-2.369,2.272c-0.721,1.072-0.849,1.44-1.601,3.97h-1.201l1.537-5.603c0.016-0.08,0.032-0.176,0.032-0.271
				c0-0.32-0.224-0.417-1.041-0.433V67.78c1.296-0.256,1.745-0.32,2.593-0.496l0.064,0.032l-1.072,3.489
				c1.601-2.562,2.673-3.521,3.698-3.521c0.688,0,1.04,0.399,1.04,0.977c0,0.288-0.064,0.624-0.16,0.96l-0.896,3.249
				c-0.16,0.576-0.224,0.849-0.224,0.977c0,0.145,0.064,0.288,0.256,0.288c0.224,0,0.512-0.256,0.977-0.849
				c0.112-0.128,0.224-0.271,0.336-0.416L91.351,72.677z"/>
		</g>
		<g>
			<path fill="#00B200" d="M90.275,66.081l-2.289-4.625H87.97l-2.273,4.625h-1.088l2.897-5.842h0.96l2.897,5.842H90.275z"/>
		</g>
	</g>
	<g>
	</g>
</g>
</svg>
