<?xml version="1.0" encoding="utf-8"?>
<!-- Generator: Adobe Illustrator 25.4.1, SVG Export Plug-In . SVG Version: 6.00 Build 0)  -->
<svg version="1.1" xmlns="http://www.w3.org/2000/svg" xmlns:xlink="http://www.w3.org/1999/xlink" x="0px" y="0px"
	 viewBox="0 0 55.995 39.791" enable-background="new 0 0 55.995 39.791" xml:space="preserve">
<g id="Graph_paper_slanted" opacity="0.5">
	<g id="Clipped_grid_00000003068028900943026870000011536296927355263674_">
		<defs>
			<polygon id="SVGID_1_" points="38.363,41.976 -14.158,41.976 13.467,14.27 65.988,14.27 			"/>
		</defs>
		<clipPath id="SVGID_00000093866675627709688260000002063129078069273766_">
			<use xlink:href="#SVGID_1_"  overflow="visible"/>
		</clipPath>
		
			<g id="Grid_00000142891597197125820610000009767860333217090727_" opacity="0.25" clip-path="url(#SVGID_00000093866675627709688260000002063129078069273766_)">
			<g id="Horizontal_1_mm_00000151508609497893311650000018408800186222605470_">
				
					<line fill="none" stroke="#00ABEB" stroke-width="0.15" stroke-miterlimit="10" x1="-44.875" y1="-28.711" x2="181.966" y2="-28.711"/>
				
					<line fill="none" stroke="#00ABEB" stroke-width="0.15" stroke-miterlimit="10" x1="-42.887" y1="-30.699" x2="183.954" y2="-30.699"/>
				
					<line fill="none" stroke="#00ABEB" stroke-width="0.15" stroke-miterlimit="10" x1="-162.164" y1="88.578" x2="64.677" y2="88.578"/>
				
					<line fill="none" stroke="#00ABEB" stroke-width="0.15" stroke-miterlimit="10" x1="-160.176" y1="86.589" x2="66.665" y2="86.589"/>
				
					<line fill="none" stroke="#00ABEB" stroke-width="0.15" stroke-miterlimit="10" x1="-158.188" y1="84.602" x2="68.653" y2="84.602"/>
				
					<line fill="none" stroke="#00ABEB" stroke-width="0.15" stroke-miterlimit="10" x1="-156.2" y1="82.614" x2="70.641" y2="82.614"/>
				
					<line fill="none" stroke="#00ABEB" stroke-width="0.15" stroke-miterlimit="10" x1="-154.212" y1="80.626" x2="72.629" y2="80.626"/>
				
					<line fill="none" stroke="#00ABEB" stroke-width="0.15" stroke-miterlimit="10" x1="-152.224" y1="78.638" x2="74.616" y2="78.638"/>
				
					<line fill="none" stroke="#00ABEB" stroke-width="0.15" stroke-miterlimit="10" x1="-150.236" y1="76.65" x2="76.605" y2="76.65"/>
				
					<line fill="none" stroke="#00ABEB" stroke-width="0.15" stroke-miterlimit="10" x1="-148.249" y1="74.663" x2="78.592" y2="74.663"/>
				
					<line fill="none" stroke="#00ABEB" stroke-width="0.15" stroke-miterlimit="10" x1="-146.26" y1="72.674" x2="80.581" y2="72.674"/>
				
					<line fill="none" stroke="#00ABEB" stroke-width="0.15" stroke-miterlimit="10" x1="-144.272" y1="70.686" x2="82.569" y2="70.686"/>
				
					<line fill="none" stroke="#00ABEB" stroke-width="0.15" stroke-miterlimit="10" x1="-142.285" y1="68.698" x2="84.556" y2="68.698"/>
				
					<line fill="none" stroke="#00ABEB" stroke-width="0.15" stroke-miterlimit="10" x1="-140.296" y1="66.71" x2="86.544" y2="66.71"/>
				
					<line fill="none" stroke="#00ABEB" stroke-width="0.15" stroke-miterlimit="10" x1="-138.308" y1="64.722" x2="88.533" y2="64.722"/>
				
					<line fill="none" stroke="#00ABEB" stroke-width="0.15" stroke-miterlimit="10" x1="-136.321" y1="62.735" x2="90.52" y2="62.735"/>
				
					<line fill="none" stroke="#00ABEB" stroke-width="0.15" stroke-miterlimit="10" x1="-134.333" y1="60.746" x2="92.508" y2="60.746"/>
				
					<line fill="none" stroke="#00ABEB" stroke-width="0.15" stroke-miterlimit="10" x1="-132.345" y1="58.758" x2="94.496" y2="58.758"/>
				
					<line fill="none" stroke="#00ABEB" stroke-width="0.15" stroke-miterlimit="10" x1="-130.357" y1="56.771" x2="96.484" y2="56.771"/>
				
					<line fill="none" stroke="#00ABEB" stroke-width="0.15" stroke-miterlimit="10" x1="-128.369" y1="54.783" x2="98.472" y2="54.783"/>
				
					<line fill="none" stroke="#00ABEB" stroke-width="0.15" stroke-miterlimit="10" x1="-126.381" y1="52.795" x2="100.46" y2="52.795"/>
				
					<line fill="none" stroke="#00ABEB" stroke-width="0.15" stroke-miterlimit="10" x1="-124.393" y1="50.807" x2="102.448" y2="50.807"/>
				
					<line fill="none" stroke="#00ABEB" stroke-width="0.15" stroke-miterlimit="10" x1="-122.405" y1="48.819" x2="104.436" y2="48.819"/>
				
					<line fill="none" stroke="#00ABEB" stroke-width="0.15" stroke-miterlimit="10" x1="-120.417" y1="46.83" x2="106.424" y2="46.83"/>
				
					<line fill="none" stroke="#00ABEB" stroke-width="0.15" stroke-miterlimit="10" x1="-118.429" y1="44.843" x2="108.412" y2="44.843"/>
				
					<line fill="none" stroke="#00ABEB" stroke-width="0.15" stroke-miterlimit="10" x1="-116.441" y1="42.855" x2="110.4" y2="42.855"/>
				
					<line fill="none" stroke="#00ABEB" stroke-width="0.15" stroke-miterlimit="10" x1="-114.453" y1="40.867" x2="112.387" y2="40.867"/>
				
					<line fill="none" stroke="#00ABEB" stroke-width="0.15" stroke-miterlimit="10" x1="-112.465" y1="38.879" x2="114.376" y2="38.879"/>
				
					<line fill="none" stroke="#00ABEB" stroke-width="0.15" stroke-miterlimit="10" x1="-110.477" y1="36.891" x2="116.364" y2="36.891"/>
				
					<line fill="none" stroke="#00ABEB" stroke-width="0.15" stroke-miterlimit="10" x1="-108.49" y1="34.904" x2="118.351" y2="34.904"/>
				
					<line fill="none" stroke="#00ABEB" stroke-width="0.15" stroke-miterlimit="10" x1="-106.501" y1="32.915" x2="120.339" y2="32.915"/>
				
					<line fill="none" stroke="#00ABEB" stroke-width="0.15" stroke-miterlimit="10" x1="-104.513" y1="30.927" x2="122.328" y2="30.927"/>
				
					<line fill="none" stroke="#00ABEB" stroke-width="0.15" stroke-miterlimit="10" x1="-102.526" y1="28.94" x2="124.315" y2="28.94"/>
				
					<line fill="none" stroke="#00ABEB" stroke-width="0.15" stroke-miterlimit="10" x1="-100.538" y1="26.952" x2="126.303" y2="26.952"/>
				
					<line fill="none" stroke="#00ABEB" stroke-width="0.15" stroke-miterlimit="10" x1="-98.549" y1="24.964" x2="128.291" y2="24.964"/>
				
					<line fill="none" stroke="#00ABEB" stroke-width="0.15" stroke-miterlimit="10" x1="-96.562" y1="22.976" x2="130.279" y2="22.976"/>
				
					<line fill="none" stroke="#00ABEB" stroke-width="0.15" stroke-miterlimit="10" x1="-94.574" y1="20.988" x2="132.267" y2="20.988"/>
				<line fill="none" stroke="#00ABEB" stroke-width="0.15" stroke-miterlimit="10" x1="-92.586" y1="19" x2="134.255" y2="19"/>
				
					<line fill="none" stroke="#00ABEB" stroke-width="0.15" stroke-miterlimit="10" x1="-90.598" y1="17.012" x2="136.243" y2="17.012"/>
				
					<line fill="none" stroke="#00ABEB" stroke-width="0.15" stroke-miterlimit="10" x1="-88.61" y1="15.024" x2="138.231" y2="15.024"/>
				
					<line fill="none" stroke="#00ABEB" stroke-width="0.15" stroke-miterlimit="10" x1="-86.622" y1="13.036" x2="140.219" y2="13.036"/>
				
					<line fill="none" stroke="#00ABEB" stroke-width="0.15" stroke-miterlimit="10" x1="-84.634" y1="11.048" x2="142.207" y2="11.048"/>
				
					<line fill="none" stroke="#00ABEB" stroke-width="0.15" stroke-miterlimit="10" x1="-82.646" y1="9.06" x2="144.195" y2="9.06"/>
				
					<line fill="none" stroke="#00ABEB" stroke-width="0.15" stroke-miterlimit="10" x1="-80.658" y1="7.073" x2="146.182" y2="7.073"/>
				
					<line fill="none" stroke="#00ABEB" stroke-width="0.15" stroke-miterlimit="10" x1="-78.67" y1="5.084" x2="148.171" y2="5.084"/>
				
					<line fill="none" stroke="#00ABEB" stroke-width="0.15" stroke-miterlimit="10" x1="-76.682" y1="3.096" x2="150.159" y2="3.096"/>
				
					<line fill="none" stroke="#00ABEB" stroke-width="0.15" stroke-miterlimit="10" x1="-74.695" y1="1.109" x2="152.146" y2="1.109"/>
				
					<line fill="none" stroke="#00ABEB" stroke-width="0.15" stroke-miterlimit="10" x1="-72.706" y1="-0.879" x2="154.134" y2="-0.879"/>
				
					<line fill="none" stroke="#00ABEB" stroke-width="0.15" stroke-miterlimit="10" x1="-70.718" y1="-2.868" x2="156.123" y2="-2.868"/>
				
					<line fill="none" stroke="#00ABEB" stroke-width="0.15" stroke-miterlimit="10" x1="-68.731" y1="-4.855" x2="158.11" y2="-4.855"/>
				
					<line fill="none" stroke="#00ABEB" stroke-width="0.15" stroke-miterlimit="10" x1="-66.743" y1="-6.843" x2="160.098" y2="-6.843"/>
				
					<line fill="none" stroke="#00ABEB" stroke-width="0.15" stroke-miterlimit="10" x1="-64.754" y1="-8.831" x2="162.086" y2="-8.831"/>
				
					<line fill="none" stroke="#00ABEB" stroke-width="0.15" stroke-miterlimit="10" x1="-62.767" y1="-10.819" x2="164.074" y2="-10.819"/>
				
					<line fill="none" stroke="#00ABEB" stroke-width="0.15" stroke-miterlimit="10" x1="-60.779" y1="-12.807" x2="166.062" y2="-12.807"/>
				
					<line fill="none" stroke="#00ABEB" stroke-width="0.15" stroke-miterlimit="10" x1="-58.791" y1="-14.795" x2="168.05" y2="-14.795"/>
				
					<line fill="none" stroke="#00ABEB" stroke-width="0.15" stroke-miterlimit="10" x1="-56.803" y1="-16.783" x2="170.038" y2="-16.783"/>
				
					<line fill="none" stroke="#00ABEB" stroke-width="0.15" stroke-miterlimit="10" x1="-54.815" y1="-18.771" x2="172.026" y2="-18.771"/>
				
					<line fill="none" stroke="#00ABEB" stroke-width="0.15" stroke-miterlimit="10" x1="-52.827" y1="-20.759" x2="174.014" y2="-20.759"/>
				
					<line fill="none" stroke="#00ABEB" stroke-width="0.15" stroke-miterlimit="10" x1="-50.839" y1="-22.747" x2="176.002" y2="-22.747"/>
				
					<line fill="none" stroke="#00ABEB" stroke-width="0.15" stroke-miterlimit="10" x1="-48.851" y1="-24.735" x2="177.99" y2="-24.735"/>
				
					<line fill="none" stroke="#00ABEB" stroke-width="0.15" stroke-miterlimit="10" x1="-46.863" y1="-26.722" x2="179.978" y2="-26.722"/>
			</g>
			<g id="Vertical_1_mm_00000181073523592228201180000012361058669048395659_">
				<g>
					
						<line fill="none" stroke="#00ABEB" stroke-width="0.15" stroke-miterlimit="10" x1="-162.079" y1="88.568" x2="-42.759" y2="-30.751"/>
				</g>
				
					<line fill="none" stroke="#00ABEB" stroke-width="0.15" stroke-miterlimit="10" x1="-159.245" y1="88.568" x2="-39.925" y2="-30.751"/>
				
					<line fill="none" stroke="#00ABEB" stroke-width="0.15" stroke-miterlimit="10" x1="-156.41" y1="88.568" x2="-37.09" y2="-30.751"/>
				
					<line fill="none" stroke="#00ABEB" stroke-width="0.15" stroke-miterlimit="10" x1="-153.575" y1="88.568" x2="-34.255" y2="-30.751"/>
				
					<line fill="none" stroke="#00ABEB" stroke-width="0.15" stroke-miterlimit="10" x1="-150.741" y1="88.568" x2="-31.421" y2="-30.751"/>
				
					<line fill="none" stroke="#00ABEB" stroke-width="0.15" stroke-miterlimit="10" x1="-147.906" y1="88.568" x2="-28.586" y2="-30.751"/>
				
					<line fill="none" stroke="#00ABEB" stroke-width="0.15" stroke-miterlimit="10" x1="-145.071" y1="88.568" x2="-25.751" y2="-30.751"/>
				
					<line fill="none" stroke="#00ABEB" stroke-width="0.15" stroke-miterlimit="10" x1="-142.237" y1="88.568" x2="-22.917" y2="-30.751"/>
				
					<line fill="none" stroke="#00ABEB" stroke-width="0.15" stroke-miterlimit="10" x1="-139.402" y1="88.568" x2="-20.082" y2="-30.751"/>
				
					<line fill="none" stroke="#00ABEB" stroke-width="0.15" stroke-miterlimit="10" x1="-136.568" y1="88.568" x2="-17.248" y2="-30.751"/>
				
					<line fill="none" stroke="#00ABEB" stroke-width="0.15" stroke-miterlimit="10" x1="-133.733" y1="88.568" x2="-14.413" y2="-30.751"/>
				
					<line fill="none" stroke="#00ABEB" stroke-width="0.15" stroke-miterlimit="10" x1="-130.898" y1="88.568" x2="-11.578" y2="-30.751"/>
				
					<line fill="none" stroke="#00ABEB" stroke-width="0.15" stroke-miterlimit="10" x1="-128.064" y1="88.568" x2="-8.744" y2="-30.751"/>
				
					<line fill="none" stroke="#00ABEB" stroke-width="0.15" stroke-miterlimit="10" x1="-125.229" y1="88.568" x2="-5.909" y2="-30.751"/>
				
					<line fill="none" stroke="#00ABEB" stroke-width="0.15" stroke-miterlimit="10" x1="-122.394" y1="88.568" x2="-3.074" y2="-30.751"/>
				
					<line fill="none" stroke="#00ABEB" stroke-width="0.15" stroke-miterlimit="10" x1="-119.56" y1="88.568" x2="-0.24" y2="-30.751"/>
				
					<line fill="none" stroke="#00ABEB" stroke-width="0.15" stroke-miterlimit="10" x1="-116.725" y1="88.568" x2="2.595" y2="-30.751"/>
				
					<line fill="none" stroke="#00ABEB" stroke-width="0.15" stroke-miterlimit="10" x1="-113.89" y1="88.568" x2="5.43" y2="-30.751"/>
				
					<line fill="none" stroke="#00ABEB" stroke-width="0.15" stroke-miterlimit="10" x1="-111.056" y1="88.568" x2="8.264" y2="-30.751"/>
				
					<line fill="none" stroke="#00ABEB" stroke-width="0.15" stroke-miterlimit="10" x1="-108.221" y1="88.568" x2="11.099" y2="-30.751"/>
				
					<line fill="none" stroke="#00ABEB" stroke-width="0.15" stroke-miterlimit="10" x1="-105.386" y1="88.568" x2="13.934" y2="-30.751"/>
				
					<line fill="none" stroke="#00ABEB" stroke-width="0.15" stroke-miterlimit="10" x1="-102.552" y1="88.568" x2="16.768" y2="-30.751"/>
				
					<line fill="none" stroke="#00ABEB" stroke-width="0.15" stroke-miterlimit="10" x1="-99.717" y1="88.568" x2="19.603" y2="-30.751"/>
				
					<line fill="none" stroke="#00ABEB" stroke-width="0.15" stroke-miterlimit="10" x1="-96.882" y1="88.568" x2="22.438" y2="-30.751"/>
				
					<line fill="none" stroke="#00ABEB" stroke-width="0.15" stroke-miterlimit="10" x1="-94.048" y1="88.568" x2="25.272" y2="-30.751"/>
				
					<line fill="none" stroke="#00ABEB" stroke-width="0.15" stroke-miterlimit="10" x1="-91.213" y1="88.568" x2="28.107" y2="-30.751"/>
				
					<line fill="none" stroke="#00ABEB" stroke-width="0.15" stroke-miterlimit="10" x1="-88.379" y1="88.568" x2="30.941" y2="-30.751"/>
				
					<line fill="none" stroke="#00ABEB" stroke-width="0.15" stroke-miterlimit="10" x1="-85.544" y1="88.568" x2="33.776" y2="-30.751"/>
				
					<line fill="none" stroke="#00ABEB" stroke-width="0.15" stroke-miterlimit="10" x1="-82.709" y1="88.568" x2="36.611" y2="-30.751"/>
				
					<line fill="none" stroke="#00ABEB" stroke-width="0.15" stroke-miterlimit="10" x1="-79.875" y1="88.568" x2="39.445" y2="-30.751"/>
				
					<line fill="none" stroke="#00ABEB" stroke-width="0.15" stroke-miterlimit="10" x1="-77.04" y1="88.568" x2="42.28" y2="-30.751"/>
				
					<line fill="none" stroke="#00ABEB" stroke-width="0.15" stroke-miterlimit="10" x1="-74.205" y1="88.568" x2="45.115" y2="-30.751"/>
				
					<line fill="none" stroke="#00ABEB" stroke-width="0.15" stroke-miterlimit="10" x1="-71.371" y1="88.568" x2="47.949" y2="-30.751"/>
				
					<line fill="none" stroke="#00ABEB" stroke-width="0.15" stroke-miterlimit="10" x1="-68.536" y1="88.568" x2="50.784" y2="-30.751"/>
				
					<line fill="none" stroke="#00ABEB" stroke-width="0.15" stroke-miterlimit="10" x1="-65.701" y1="88.568" x2="53.619" y2="-30.751"/>
				
					<line fill="none" stroke="#00ABEB" stroke-width="0.15" stroke-miterlimit="10" x1="-62.867" y1="88.568" x2="56.453" y2="-30.751"/>
				
					<line fill="none" stroke="#00ABEB" stroke-width="0.15" stroke-miterlimit="10" x1="-60.032" y1="88.568" x2="59.288" y2="-30.751"/>
				
					<line fill="none" stroke="#00ABEB" stroke-width="0.15" stroke-miterlimit="10" x1="-57.197" y1="88.568" x2="62.123" y2="-30.751"/>
				
					<line fill="none" stroke="#00ABEB" stroke-width="0.15" stroke-miterlimit="10" x1="-54.363" y1="88.568" x2="64.957" y2="-30.751"/>
				
					<line fill="none" stroke="#00ABEB" stroke-width="0.15" stroke-miterlimit="10" x1="-51.528" y1="88.568" x2="67.792" y2="-30.751"/>
				
					<line fill="none" stroke="#00ABEB" stroke-width="0.15" stroke-miterlimit="10" x1="-48.694" y1="88.568" x2="70.626" y2="-30.751"/>
				
					<line fill="none" stroke="#00ABEB" stroke-width="0.15" stroke-miterlimit="10" x1="-45.859" y1="88.568" x2="73.461" y2="-30.751"/>
				
					<line fill="none" stroke="#00ABEB" stroke-width="0.15" stroke-miterlimit="10" x1="-43.024" y1="88.568" x2="76.296" y2="-30.751"/>
				
					<line fill="none" stroke="#00ABEB" stroke-width="0.15" stroke-miterlimit="10" x1="-40.19" y1="88.568" x2="79.13" y2="-30.751"/>
				
					<line fill="none" stroke="#00ABEB" stroke-width="0.15" stroke-miterlimit="10" x1="-37.355" y1="88.568" x2="81.965" y2="-30.751"/>
				
					<line fill="none" stroke="#00ABEB" stroke-width="0.15" stroke-miterlimit="10" x1="-34.52" y1="88.568" x2="84.8" y2="-30.751"/>
				
					<line fill="none" stroke="#00ABEB" stroke-width="0.15" stroke-miterlimit="10" x1="-31.686" y1="88.568" x2="87.634" y2="-30.751"/>
				
					<line fill="none" stroke="#00ABEB" stroke-width="0.15" stroke-miterlimit="10" x1="-28.851" y1="88.568" x2="90.469" y2="-30.751"/>
				
					<line fill="none" stroke="#00ABEB" stroke-width="0.15" stroke-miterlimit="10" x1="-26.016" y1="88.568" x2="93.304" y2="-30.751"/>
				
					<line fill="none" stroke="#00ABEB" stroke-width="0.15" stroke-miterlimit="10" x1="-23.182" y1="88.568" x2="96.138" y2="-30.751"/>
				
					<line fill="none" stroke="#00ABEB" stroke-width="0.15" stroke-miterlimit="10" x1="-20.347" y1="88.568" x2="98.973" y2="-30.751"/>
				
					<line fill="none" stroke="#00ABEB" stroke-width="0.15" stroke-miterlimit="10" x1="-17.512" y1="88.568" x2="101.808" y2="-30.751"/>
				
					<line fill="none" stroke="#00ABEB" stroke-width="0.15" stroke-miterlimit="10" x1="-14.678" y1="88.568" x2="104.642" y2="-30.751"/>
				
					<line fill="none" stroke="#00ABEB" stroke-width="0.15" stroke-miterlimit="10" x1="-11.843" y1="88.568" x2="107.477" y2="-30.751"/>
				
					<line fill="none" stroke="#00ABEB" stroke-width="0.15" stroke-miterlimit="10" x1="-9.008" y1="88.568" x2="110.312" y2="-30.751"/>
				
					<line fill="none" stroke="#00ABEB" stroke-width="0.15" stroke-miterlimit="10" x1="-6.174" y1="88.568" x2="113.146" y2="-30.751"/>
				
					<line fill="none" stroke="#00ABEB" stroke-width="0.15" stroke-miterlimit="10" x1="-3.339" y1="88.568" x2="115.981" y2="-30.751"/>
				
					<line fill="none" stroke="#00ABEB" stroke-width="0.15" stroke-miterlimit="10" x1="-0.505" y1="88.568" x2="118.815" y2="-30.751"/>
				
					<line fill="none" stroke="#00ABEB" stroke-width="0.15" stroke-miterlimit="10" x1="2.33" y1="88.568" x2="121.65" y2="-30.751"/>
				
					<line fill="none" stroke="#00ABEB" stroke-width="0.15" stroke-miterlimit="10" x1="5.165" y1="88.568" x2="124.485" y2="-30.751"/>
				
					<line fill="none" stroke="#00ABEB" stroke-width="0.15" stroke-miterlimit="10" x1="7.999" y1="88.568" x2="127.319" y2="-30.751"/>
				
					<line fill="none" stroke="#00ABEB" stroke-width="0.15" stroke-miterlimit="10" x1="10.834" y1="88.568" x2="130.154" y2="-30.751"/>
				
					<line fill="none" stroke="#00ABEB" stroke-width="0.15" stroke-miterlimit="10" x1="13.669" y1="88.568" x2="132.989" y2="-30.751"/>
				
					<line fill="none" stroke="#00ABEB" stroke-width="0.15" stroke-miterlimit="10" x1="16.503" y1="88.568" x2="135.823" y2="-30.751"/>
				
					<line fill="none" stroke="#00ABEB" stroke-width="0.15" stroke-miterlimit="10" x1="19.338" y1="88.568" x2="138.658" y2="-30.751"/>
				
					<line fill="none" stroke="#00ABEB" stroke-width="0.15" stroke-miterlimit="10" x1="22.173" y1="88.568" x2="141.493" y2="-30.751"/>
				
					<line fill="none" stroke="#00ABEB" stroke-width="0.15" stroke-miterlimit="10" x1="25.007" y1="88.568" x2="144.327" y2="-30.751"/>
				
					<line fill="none" stroke="#00ABEB" stroke-width="0.15" stroke-miterlimit="10" x1="27.842" y1="88.568" x2="147.162" y2="-30.751"/>
				
					<line fill="none" stroke="#00ABEB" stroke-width="0.15" stroke-miterlimit="10" x1="30.677" y1="88.568" x2="149.997" y2="-30.751"/>
				
					<line fill="none" stroke="#00ABEB" stroke-width="0.15" stroke-miterlimit="10" x1="33.511" y1="88.568" x2="152.831" y2="-30.751"/>
				
					<line fill="none" stroke="#00ABEB" stroke-width="0.15" stroke-miterlimit="10" x1="36.346" y1="88.568" x2="155.666" y2="-30.751"/>
				
					<line fill="none" stroke="#00ABEB" stroke-width="0.15" stroke-miterlimit="10" x1="39.181" y1="88.568" x2="158.501" y2="-30.751"/>
				
					<line fill="none" stroke="#00ABEB" stroke-width="0.15" stroke-miterlimit="10" x1="42.015" y1="88.568" x2="161.335" y2="-30.751"/>
				
					<line fill="none" stroke="#00ABEB" stroke-width="0.15" stroke-miterlimit="10" x1="44.85" y1="88.568" x2="164.17" y2="-30.751"/>
				
					<line fill="none" stroke="#00ABEB" stroke-width="0.15" stroke-miterlimit="10" x1="47.684" y1="88.568" x2="167.004" y2="-30.751"/>
				
					<line fill="none" stroke="#00ABEB" stroke-width="0.15" stroke-miterlimit="10" x1="50.519" y1="88.568" x2="169.839" y2="-30.751"/>
				
					<line fill="none" stroke="#00ABEB" stroke-width="0.15" stroke-miterlimit="10" x1="53.354" y1="88.568" x2="172.674" y2="-30.751"/>
				
					<line fill="none" stroke="#00ABEB" stroke-width="0.15" stroke-miterlimit="10" x1="56.188" y1="88.568" x2="175.508" y2="-30.751"/>
				
					<line fill="none" stroke="#00ABEB" stroke-width="0.15" stroke-miterlimit="10" x1="59.023" y1="88.568" x2="178.343" y2="-30.751"/>
				
					<line fill="none" stroke="#00ABEB" stroke-width="0.15" stroke-miterlimit="10" x1="61.858" y1="88.568" x2="181.178" y2="-30.751"/>
				
					<line fill="none" stroke="#00ABEB" stroke-width="0.15" stroke-miterlimit="10" x1="64.692" y1="88.568" x2="184.012" y2="-30.751"/>
			</g>
			<g id="Horizontal_5_mm_00000011735556503592991880000008134099091165005186_">
				
					<line fill="none" stroke="#00ABEB" stroke-width="0.3" stroke-miterlimit="10" x1="-162.439" y1="88.578" x2="64.677" y2="88.578"/>
				
					<line fill="none" stroke="#00ABEB" stroke-width="0.3" stroke-miterlimit="10" x1="-152.499" y1="78.638" x2="74.616" y2="78.638"/>
				
					<line fill="none" stroke="#00ABEB" stroke-width="0.3" stroke-miterlimit="10" x1="-142.56" y1="68.698" x2="84.556" y2="68.698"/>
				
					<line fill="none" stroke="#00ABEB" stroke-width="0.3" stroke-miterlimit="10" x1="-132.619" y1="58.758" x2="94.496" y2="58.758"/>
				
					<line fill="none" stroke="#00ABEB" stroke-width="0.3" stroke-miterlimit="10" x1="-122.68" y1="48.819" x2="104.436" y2="48.819"/>
				
					<line fill="none" stroke="#00ABEB" stroke-width="0.3" stroke-miterlimit="10" x1="-112.74" y1="38.879" x2="114.376" y2="38.879"/>
				
					<line fill="none" stroke="#00ABEB" stroke-width="0.3" stroke-miterlimit="10" x1="-102.801" y1="28.94" x2="124.315" y2="28.94"/>
				<line fill="none" stroke="#00ABEB" stroke-width="0.3" stroke-miterlimit="10" x1="-92.861" y1="19" x2="134.255" y2="19"/>
				<line fill="none" stroke="#00ABEB" stroke-width="0.3" stroke-miterlimit="10" x1="-82.921" y1="9.06" x2="144.195" y2="9.06"/>
				
					<line fill="none" stroke="#00ABEB" stroke-width="0.3" stroke-miterlimit="10" x1="-72.981" y1="-0.879" x2="154.134" y2="-0.879"/>
				
					<line fill="none" stroke="#00ABEB" stroke-width="0.3" stroke-miterlimit="10" x1="-63.042" y1="-10.819" x2="164.074" y2="-10.819"/>
			</g>
			<g id="Vertical_5_mm_00000064346364918789686960000003233481195482251947_">
				
					<line fill="none" stroke="#00ABEB" stroke-width="0.3" stroke-miterlimit="10" x1="-162.079" y1="88.568" x2="-42.566" y2="-30.944"/>
				
					<line fill="none" stroke="#00ABEB" stroke-width="0.3" stroke-miterlimit="10" x1="-147.906" y1="88.568" x2="-28.393" y2="-30.944"/>
				
					<line fill="none" stroke="#00ABEB" stroke-width="0.3" stroke-miterlimit="10" x1="-133.733" y1="88.568" x2="-14.22" y2="-30.944"/>
				
					<line fill="none" stroke="#00ABEB" stroke-width="0.3" stroke-miterlimit="10" x1="-119.56" y1="88.568" x2="-0.047" y2="-30.944"/>
				
					<line fill="none" stroke="#00ABEB" stroke-width="0.3" stroke-miterlimit="10" x1="-105.386" y1="88.568" x2="14.127" y2="-30.944"/>
				
					<line fill="none" stroke="#00ABEB" stroke-width="0.3" stroke-miterlimit="10" x1="-91.213" y1="88.568" x2="28.3" y2="-30.944"/>
				
					<line fill="none" stroke="#00ABEB" stroke-width="0.3" stroke-miterlimit="10" x1="-77.04" y1="88.568" x2="42.473" y2="-30.944"/>
				
					<line fill="none" stroke="#00ABEB" stroke-width="0.3" stroke-miterlimit="10" x1="-62.867" y1="88.568" x2="56.646" y2="-30.944"/>
				
					<line fill="none" stroke="#00ABEB" stroke-width="0.3" stroke-miterlimit="10" x1="-48.694" y1="88.568" x2="70.819" y2="-30.944"/>
				
					<line fill="none" stroke="#00ABEB" stroke-width="0.3" stroke-miterlimit="10" x1="-34.52" y1="88.568" x2="84.993" y2="-30.944"/>
				
					<line fill="none" stroke="#00ABEB" stroke-width="0.3" stroke-miterlimit="10" x1="-20.347" y1="88.568" x2="99.166" y2="-30.944"/>
				
					<line fill="none" stroke="#00ABEB" stroke-width="0.3" stroke-miterlimit="10" x1="-6.174" y1="88.568" x2="113.339" y2="-30.944"/>
				
					<line fill="none" stroke="#00ABEB" stroke-width="0.3" stroke-miterlimit="10" x1="7.999" y1="88.568" x2="127.512" y2="-30.944"/>
				
					<line fill="none" stroke="#00ABEB" stroke-width="0.3" stroke-miterlimit="10" x1="22.173" y1="88.568" x2="141.686" y2="-30.944"/>
				
					<line fill="none" stroke="#00ABEB" stroke-width="0.3" stroke-miterlimit="10" x1="36.346" y1="88.568" x2="155.859" y2="-30.944"/>
				
					<line fill="none" stroke="#00ABEB" stroke-width="0.3" stroke-miterlimit="10" x1="50.519" y1="88.568" x2="170.032" y2="-30.944"/>
				
					<line fill="none" stroke="#00ABEB" stroke-width="0.3" stroke-miterlimit="10" x1="64.692" y1="88.568" x2="184.205" y2="-30.944"/>
			</g>
			<g id="Horizontal_10_mm_00000163045836177147705350000008480455355013810362_">
				
					<line id="_x31_9_00000057116790517712807720000015084113881736219806_" fill="none" stroke="#00ABEB" stroke-width="0.7" stroke-miterlimit="10" x1="-162.439" y1="88.578" x2="64.677" y2="88.578"/>
				
					<line id="_x32_0_00000024685878617286333290000013167547815532084100_" fill="none" stroke="#00ABEB" stroke-width="0.7" stroke-miterlimit="10" x1="-142.56" y1="68.698" x2="84.556" y2="68.698"/>
				
					<line id="_x32_1_00000138564813020868535020000012777939180148238773_" fill="none" stroke="#00ABEB" stroke-width="0.7" stroke-miterlimit="10" x1="-122.68" y1="48.819" x2="104.436" y2="48.819"/>
				
					<line id="_x32_2_00000052807586205252870140000014502512662559454639_" fill="none" stroke="#00ABEB" stroke-width="0.7" stroke-miterlimit="10" x1="-102.801" y1="28.94" x2="124.315" y2="28.94"/>
				
					<line id="_x32_3_00000051376893246677475670000009295515732899575694_" fill="none" stroke="#00ABEB" stroke-width="0.7" stroke-miterlimit="10" x1="-82.921" y1="9.06" x2="144.195" y2="9.06"/>
				
					<line id="_x32_4_00000099657911357833521510000007853591198542098087_" fill="none" stroke="#00ABEB" stroke-width="0.7" stroke-miterlimit="10" x1="-63.042" y1="-10.819" x2="164.074" y2="-10.819"/>
				
					<line id="_x32_5_00000155127691660191171140000008292164438978366870_" fill="none" stroke="#00ABEB" stroke-width="0.7" stroke-miterlimit="10" x1="-43.162" y1="-30.699" x2="183.954" y2="-30.699"/>
			</g>
			<g id="Vertical_10_mm_00000134969164297783457920000010833503864539426239_">
				
					<line id="_x30__00000151539528360119995570000005083818057555393183_" fill="none" stroke="#00ABEB" stroke-width="0.7" stroke-miterlimit="10" x1="-162.079" y1="88.568" x2="-42.566" y2="-30.944"/>
				
					<line id="_x31__00000021823889366233599640000011971139016478256513_" fill="none" stroke="#00ABEB" stroke-width="0.7" stroke-miterlimit="10" x1="-133.733" y1="88.568" x2="-14.22" y2="-30.944"/>
				
					<line id="_x32__00000071550223824624162640000006130814236846722696_" fill="none" stroke="#00ABEB" stroke-width="0.7" stroke-miterlimit="10" x1="-105.386" y1="88.568" x2="14.127" y2="-30.944"/>
				
					<line id="_x33__00000042015976804734918030000005045165563697445304_" fill="none" stroke="#00ABEB" stroke-width="0.7" stroke-miterlimit="10" x1="-77.04" y1="88.568" x2="42.473" y2="-30.944"/>
				
					<line id="_x34__00000081637789328126233800000002486991317463304126_" fill="none" stroke="#00ABEB" stroke-width="0.7" stroke-miterlimit="10" x1="-48.694" y1="88.568" x2="70.819" y2="-30.944"/>
				
					<line id="_x35__00000051353690731882489090000004794744233340785543_" fill="none" stroke="#00ABEB" stroke-width="0.7" stroke-miterlimit="10" x1="-20.347" y1="88.568" x2="99.166" y2="-30.944"/>
				
					<line id="_x36__00000011745311307505536660000010485558803267122343_" fill="none" stroke="#00ABEB" stroke-width="0.7" stroke-miterlimit="10" x1="7.999" y1="88.568" x2="127.512" y2="-30.944"/>
				
					<line id="_x37__00000045602144989735358580000003937589459941247142_" fill="none" stroke="#00ABEB" stroke-width="0.7" stroke-miterlimit="10" x1="36.346" y1="88.568" x2="155.859" y2="-30.944"/>
				
					<line id="_x38__00000047029857857898873560000014194396358708286345_" fill="none" stroke="#00ABEB" stroke-width="0.7" stroke-miterlimit="10" x1="64.692" y1="88.568" x2="184.205" y2="-30.944"/>
			</g>
		</g>
	</g>
</g>
<g id="Axis">
	<g id="lines">
		<g>
			<g>
				<line fill="none" stroke="#000000" stroke-width="0.2" stroke-miterlimit="10" x1="11.072" y1="28.93" x2="54.016" y2="28.93"/>
				<g>
					<polygon points="53.454,29.67 53.769,28.93 53.454,28.189 55.21,28.93 					"/>
				</g>
			</g>
		</g>
		<g>
			<g>
				<line fill="none" stroke="#000000" stroke-width="0.2" stroke-miterlimit="10" x1="11.072" y1="28.93" x2="3.014" y2="36.988"/>
				<g>
					<polygon points="2.888,36.067 3.189,36.813 3.935,37.114 2.17,37.832 					"/>
				</g>
			</g>
		</g>
		<g>
			<g>
				<line fill="none" stroke="#000000" stroke-width="0.2" stroke-miterlimit="10" x1="11.072" y1="28.93" x2="11.072" y2="2.303"/>
				<g>
					<polygon points="11.813,2.864 11.072,2.55 10.332,2.864 11.072,1.109 					"/>
				</g>
			</g>
		</g>
		<path fill="none" stroke="#000000" stroke-width="0.2" stroke-miterlimit="10" d="M11.072,13.006"/>
		<path fill="none" stroke="#000000" stroke-width="0.2" stroke-miterlimit="10" d="M11.072,28.93"/>
	</g>
	<g id="names">
		<g>
			<path d="M53.976,32.027c0.339-0.564,0.487-0.852,0.487-1.027c0-0.056-0.028-0.08-0.104-0.128
				c-0.08-0.052-0.104-0.092-0.104-0.156c0-0.088,0.068-0.148,0.16-0.148c0.12,0,0.208,0.1,0.208,0.22
				c0,0.228-0.192,0.667-0.524,1.219c-0.416,0.688-0.843,1.147-1.071,1.147c-0.12,0-0.204-0.068-0.204-0.172
				c0-0.088,0.068-0.16,0.156-0.16c0.14,0,0.14,0.112,0.244,0.112c0.052,0,0.1-0.032,0.192-0.132
				c0.072-0.076,0.252-0.312,0.284-0.364c0.024-0.048,0.04-0.096,0.04-0.14c0-0.16-0.22-1.055-0.328-1.327
				c-0.076-0.196-0.148-0.256-0.308-0.256c-0.044,0-0.08,0.004-0.124,0.016v-0.068c0.044-0.008,0.088-0.016,0.128-0.024
				c0.08-0.016,0.212-0.04,0.428-0.072h0.016c0.06,0,0.271,0.664,0.34,1.02L53.976,32.027z"/>
		</g>
		<g>
			<path d="M8.583,3.129c0.232,0.052,0.32,0.096,0.48,0.332c0.104,0.152,0.18,0.2,0.28,0.2c0.064,0,0.108-0.024,0.108-0.06
				c0-0.016-0.008-0.036-0.02-0.06c-0.024-0.048-0.032-0.08-0.032-0.112c0.004-0.068,0.068-0.136,0.132-0.136
				c0.083,0,0.14,0.06,0.14,0.148c0,0.16-0.148,0.304-0.372,0.304c-0.116,0-0.252-0.052-0.452-0.176
				C8.659,3.453,8.531,3.401,8.427,3.401c-0.064,0-0.116,0.02-0.18,0.072L8.211,3.437l1.239-1.487H8.907
				c-0.208,0-0.284,0.036-0.364,0.24L8.479,2.174L8.607,1.71h1.131v0.044L8.583,3.129z"/>
		</g>
		<g>
			<path d="M6.007,36.748c0.28-0.428,0.428-0.572,0.604-0.572c0.096,0,0.164,0.06,0.164,0.148c0,0.084-0.056,0.144-0.136,0.144
				c-0.076,0-0.112-0.068-0.208-0.068c-0.072,0-0.216,0.176-0.392,0.483c0,0.028,0.008,0.084,0.032,0.18l0.128,0.536
				c0.028,0.112,0.064,0.164,0.12,0.164c0.052,0,0.096-0.04,0.188-0.16c0.036-0.048,0.052-0.072,0.084-0.112l0.06,0.036
				c-0.232,0.36-0.336,0.456-0.488,0.456c-0.128,0-0.188-0.072-0.236-0.272l-0.116-0.476l-0.352,0.476
				c-0.176,0.236-0.256,0.272-0.38,0.272s-0.2-0.064-0.2-0.168c0-0.08,0.056-0.144,0.136-0.144c0.036,0,0.076,0.016,0.128,0.044
				c0.04,0.024,0.08,0.036,0.104,0.036c0.044,0,0.12-0.076,0.204-0.196l0.328-0.464l-0.112-0.496
				c-0.056-0.24-0.084-0.272-0.184-0.272c-0.032,0-0.08,0.008-0.156,0.028l-0.072,0.02l-0.012-0.063l0.044-0.016
				c0.244-0.088,0.376-0.116,0.468-0.116c0.1,0,0.148,0.072,0.204,0.344L6.007,36.748z"/>
		</g>
	</g>
</g>
<g id="Layer_6">
	<path opacity="0.05" fill="#FF0000" d="M41.871,22.302V10.327l-0.021,0.352c0.561-5.237-9.731-2.027-14.23-2.062
		c-2.274-0.017-8.174-2.389-9.571,1.951c-0.055,0.171-0.084,0.331-0.089,0.481l-0.001,0v11.993
		c-0.008,2.609,7.389,2.063,11.538,2.053c4.751-0.012,11.087,1.88,12.11-1.362C41.778,23.192,41.863,22.717,41.871,22.302z"/>
	<path fill="none" stroke="#FF0000" stroke-width="0.2" stroke-miterlimit="10" d="M41.607,11.783
		c-1.024,3.242-7.36,1.35-12.11,1.362c-4.407,0.011-12.479,0.626-11.448-2.577c1.397-4.34,7.297-1.968,9.571-1.951
		C32.405,8.654,43.742,5.021,41.607,11.783z"/>
	<g>
		<path fill="none" stroke="#FF0000" stroke-width="0.2" stroke-miterlimit="10" stroke-dasharray="2.0679,2.0679" d="
			M41.607,23.733c-1.024,3.242-7.36,1.35-12.11,1.362c-4.407,0.011-12.479,0.626-11.448-2.577c1.397-4.34,7.297-1.968,9.571-1.951
			C32.405,20.604,43.742,16.971,41.607,23.733z"/>
	</g>
	<path fill="none" stroke="#FF0000" stroke-width="0.2" stroke-miterlimit="10" d="M41.871,22.302
		c-0.009,0.415-0.093,0.889-0.264,1.43c-1.024,3.242-7.36,1.35-12.11,1.362c-3.997,0.01-11.011,0.517-11.51-1.78
		c-0.019-0.087-0.028-0.178-0.028-0.273"/>
	<path opacity="0.05" d="M40.946,35.779c-2.02,2.462-7.462,0.598-12.217,0.606c-4.411,0.007-12.747,0.411-10.343-1.693
		c3.258-2.851,8.141-1.293,10.407-1.281C33.563,33.435,45.204,30.589,40.946,35.779z"/>
	<path fill="none" stroke="#000000" stroke-width="0.1" stroke-miterlimit="10" d="M40.946,35.779
		c-2.02,2.462-7.462,0.598-12.217,0.606c-4.411,0.007-12.747,0.411-10.343-1.693c3.258-2.851,8.141-1.293,10.407-1.281
		C33.563,33.435,45.204,30.589,40.946,35.779z"/>
	<path fill="none" stroke="#000000" stroke-width="0.1" stroke-miterlimit="10" d="M17.959,38.986"/>
	<path fill="none" stroke="#FF0000" stroke-width="0.1" stroke-miterlimit="10" d="M41.872,38.51"/>
	<line fill="none" stroke="#FF0000" stroke-width="0.1" stroke-miterlimit="10" x1="41.872" y1="10.679" x2="41.872" y2="22.629"/>
	<line fill="none" stroke="#FF0000" stroke-width="0.1" stroke-miterlimit="10" x1="17.959" y1="11.156" x2="17.959" y2="22.976"/>
</g>
<g id="Layer_7">
	
		<line opacity="0.3" fill="none" stroke="#000000" stroke-width="0.1" stroke-miterlimit="10" stroke-dasharray="1" x1="41.872" y1="22.629" x2="41.872" y2="33.971"/>
	
		<line opacity="0.3" fill="none" stroke="#000000" stroke-width="0.1" stroke-miterlimit="10" stroke-dasharray="1" x1="17.959" y1="22.976" x2="17.959" y2="35.337"/>
	<g>
		<path fill="#FF0000" d="M0.879,22.96c0.232,0.052,0.32,0.096,0.48,0.332c0.104,0.152,0.18,0.2,0.28,0.2
			c0.064,0,0.108-0.024,0.108-0.06c0-0.016-0.008-0.036-0.02-0.06c-0.024-0.048-0.032-0.08-0.032-0.112
			c0.004-0.068,0.068-0.136,0.132-0.136c0.083,0,0.14,0.06,0.14,0.148c0,0.16-0.148,0.304-0.372,0.304
			c-0.116,0-0.252-0.052-0.452-0.176c-0.188-0.116-0.315-0.168-0.419-0.168c-0.064,0-0.116,0.02-0.18,0.072l-0.036-0.036
			l1.239-1.487H1.203c-0.208,0-0.284,0.036-0.364,0.24l-0.064-0.016l0.128-0.464h1.131v0.044L0.879,22.96z"/>
		<path fill="#FF0000" d="M2.415,21.973v-0.264H4.43v0.264H2.415z M2.415,22.773v-0.264H4.43v0.264H2.415z"/>
		<path fill="#FF0000" d="M5.135,22.96c0.232,0.052,0.32,0.096,0.48,0.332c0.104,0.152,0.18,0.2,0.28,0.2
			c0.064,0,0.108-0.024,0.108-0.06c0-0.016-0.008-0.036-0.02-0.06c-0.024-0.048-0.032-0.08-0.032-0.112
			c0.004-0.068,0.068-0.136,0.132-0.136c0.083,0,0.14,0.06,0.14,0.148c0,0.16-0.148,0.304-0.372,0.304
			c-0.116,0-0.252-0.052-0.452-0.176c-0.188-0.116-0.315-0.168-0.419-0.168c-0.064,0-0.116,0.02-0.18,0.072l-0.036-0.036
			l1.239-1.487H5.459c-0.208,0-0.284,0.036-0.364,0.24l-0.064-0.016l0.128-0.464H6.29v0.044L5.135,22.96z"/>
		<path fill="#FF0000" d="M7.135,21.901c0.006,0,0.01,0.006,0.01,0.014c0,0.01-0.004,0.03-0.012,0.058L6.847,23.01
			c-0.014,0.05-0.036,0.128-0.036,0.148c0,0.046,0.044,0.064,0.132,0.064h0.042v0.03H6.427v-0.03
			c0.158-0.012,0.202-0.034,0.224-0.11l0.272-0.975c0.01-0.038,0.016-0.058,0.016-0.072c0-0.038-0.026-0.062-0.07-0.062H6.863
			c-0.036,0-0.08,0.002-0.118,0.004v-0.03l0.046-0.01c0.176-0.038,0.184-0.034,0.338-0.066H7.135z"/>
		<path fill="#FF0000" d="M8.586,20.637c-0.607,0.576-0.815,1.459-0.815,2.275c0,0.388,0.044,0.632,0.192,1.04l-0.072,0.024
			c-0.256-0.412-0.396-0.932-0.396-1.443c0-0.412,0.088-0.819,0.296-1.159c0.156-0.252,0.375-0.46,0.744-0.795L8.586,20.637z"/>
		<path fill="#FF0000" d="M9.679,22.061c0.28-0.428,0.428-0.572,0.604-0.572c0.096,0,0.164,0.06,0.164,0.148
			c0,0.084-0.056,0.144-0.136,0.144c-0.076,0-0.112-0.068-0.208-0.068c-0.072,0-0.216,0.176-0.392,0.483
			c0,0.028,0.008,0.084,0.032,0.18l0.128,0.536c0.028,0.112,0.064,0.164,0.12,0.164c0.052,0,0.096-0.04,0.188-0.16
			c0.036-0.048,0.052-0.072,0.084-0.112l0.06,0.036c-0.232,0.36-0.336,0.456-0.488,0.456c-0.128,0-0.188-0.072-0.236-0.272
			l-0.116-0.476l-0.352,0.476c-0.176,0.236-0.256,0.272-0.38,0.272c-0.124,0-0.2-0.064-0.2-0.168c0-0.08,0.056-0.144,0.136-0.144
			c0.036,0,0.076,0.016,0.128,0.044c0.04,0.024,0.08,0.036,0.104,0.036c0.044,0,0.12-0.076,0.204-0.196l0.328-0.464l-0.112-0.496
			c-0.056-0.24-0.084-0.272-0.184-0.272c-0.032,0-0.08,0.008-0.156,0.028l-0.072,0.02l-0.012-0.063l0.044-0.016
			c0.244-0.088,0.376-0.116,0.468-0.116c0.1,0,0.148,0.072,0.204,0.344L9.679,22.061z"/>
		<path fill="#FF0000" d="M10.415,23.696c0.212-0.136,0.304-0.252,0.304-0.36c0-0.04-0.016-0.068-0.08-0.116
			c-0.08-0.06-0.1-0.12-0.1-0.196c0-0.096,0.088-0.176,0.204-0.176c0.144,0,0.232,0.136,0.232,0.296c0,0.224-0.184,0.448-0.52,0.624
			L10.415,23.696z"/>
		<path fill="#FF0000" d="M12.491,22.948c0.339-0.564,0.487-0.852,0.487-1.027c0-0.056-0.028-0.08-0.104-0.128
			c-0.08-0.052-0.104-0.092-0.104-0.156c0-0.088,0.068-0.148,0.16-0.148c0.12,0,0.208,0.1,0.208,0.22
			c0,0.228-0.192,0.667-0.524,1.219c-0.416,0.688-0.843,1.147-1.071,1.147c-0.12,0-0.204-0.068-0.204-0.172
			c0-0.088,0.068-0.16,0.156-0.16c0.14,0,0.14,0.112,0.244,0.112c0.052,0,0.1-0.032,0.192-0.132
			c0.072-0.076,0.252-0.312,0.284-0.364c0.024-0.048,0.04-0.096,0.04-0.14c0-0.16-0.22-1.055-0.328-1.327
			c-0.076-0.196-0.148-0.256-0.308-0.256c-0.044,0-0.08,0.004-0.124,0.016v-0.068c0.044-0.008,0.088-0.016,0.128-0.024
			c0.08-0.016,0.212-0.04,0.428-0.072h0.016c0.06,0,0.271,0.664,0.34,1.02L12.491,22.948z"/>
		<path fill="#FF0000" d="M13.971,20.578c0.188,0.335,0.251,0.492,0.32,0.788c0.048,0.224,0.076,0.456,0.076,0.671
			c0,0.404-0.112,0.784-0.312,1.127c-0.156,0.268-0.364,0.492-0.728,0.808l-0.052-0.06c0.336-0.356,0.484-0.624,0.62-1.047
			c0.124-0.384,0.196-0.844,0.196-1.219c0-0.4-0.06-0.724-0.196-1.047L13.971,20.578z"/>
	</g>
	<g>
		<path fill="#FF0000" d="M0.879,11.642c0.232,0.052,0.32,0.096,0.48,0.332c0.104,0.152,0.18,0.2,0.28,0.2
			c0.064,0,0.108-0.024,0.108-0.06c0-0.016-0.008-0.036-0.02-0.06c-0.024-0.048-0.032-0.08-0.032-0.112
			c0.004-0.068,0.068-0.136,0.132-0.136c0.083,0,0.14,0.06,0.14,0.148c0,0.16-0.148,0.304-0.372,0.304
			c-0.116,0-0.252-0.052-0.452-0.176c-0.188-0.116-0.315-0.168-0.419-0.168c-0.064,0-0.116,0.02-0.18,0.072L0.507,11.95l1.239-1.487
			H1.203c-0.208,0-0.284,0.036-0.364,0.24l-0.064-0.016l0.128-0.464h1.131v0.044L0.879,11.642z"/>
		<path fill="#FF0000" d="M2.415,10.655v-0.264H4.43v0.264H2.415z M2.415,11.455v-0.264H4.43v0.264H2.415z"/>
		<path fill="#FF0000" d="M5.135,11.642c0.232,0.052,0.32,0.096,0.48,0.332c0.104,0.152,0.18,0.2,0.28,0.2
			c0.064,0,0.108-0.024,0.108-0.06c0-0.016-0.008-0.036-0.02-0.06c-0.024-0.048-0.032-0.08-0.032-0.112
			c0.004-0.068,0.068-0.136,0.132-0.136c0.083,0,0.14,0.06,0.14,0.148c0,0.16-0.148,0.304-0.372,0.304
			c-0.116,0-0.252-0.052-0.452-0.176c-0.188-0.116-0.315-0.168-0.419-0.168c-0.064,0-0.116,0.02-0.18,0.072L4.763,11.95l1.239-1.487
			H5.459c-0.208,0-0.284,0.036-0.364,0.24l-0.064-0.016l0.128-0.464H6.29v0.044L5.135,11.642z"/>
		<path fill="#FF0000" d="M6.487,10.907c0.048-0.118,0.094-0.186,0.164-0.24c0.078-0.06,0.164-0.084,0.256-0.084
			c0.192,0,0.324,0.148,0.324,0.337c0,0.134-0.062,0.226-0.298,0.468l-0.375,0.384v0.01h0.362c0.118,0,0.158-0.03,0.206-0.13
			l0.034,0.014l-0.1,0.268H6.351V11.9l0.42-0.448c0.132-0.14,0.222-0.266,0.27-0.374c0.012-0.026,0.018-0.064,0.018-0.108
			c0-0.138-0.08-0.242-0.238-0.242c-0.12,0-0.222,0.058-0.292,0.192L6.487,10.907z"/>
		<path fill="#FF0000" d="M8.586,9.32c-0.607,0.576-0.815,1.459-0.815,2.275c0,0.388,0.044,0.632,0.192,1.04l-0.072,0.024
			c-0.256-0.412-0.396-0.932-0.396-1.443c0-0.412,0.088-0.819,0.296-1.159c0.156-0.252,0.375-0.46,0.744-0.795L8.586,9.32z"/>
		<path fill="#FF0000" d="M9.679,10.743c0.28-0.428,0.428-0.572,0.604-0.572c0.096,0,0.164,0.06,0.164,0.148
			c0,0.084-0.056,0.144-0.136,0.144c-0.076,0-0.112-0.068-0.208-0.068c-0.072,0-0.216,0.176-0.392,0.483
			c0,0.028,0.008,0.084,0.032,0.18l0.128,0.536c0.028,0.112,0.064,0.164,0.12,0.164c0.052,0,0.096-0.04,0.188-0.16
			c0.036-0.048,0.052-0.072,0.084-0.112l0.06,0.036c-0.232,0.36-0.336,0.456-0.488,0.456c-0.128,0-0.188-0.072-0.236-0.272
			l-0.116-0.476l-0.352,0.476c-0.176,0.236-0.256,0.272-0.38,0.272c-0.124,0-0.2-0.064-0.2-0.168c0-0.08,0.056-0.144,0.136-0.144
			c0.036,0,0.076,0.016,0.128,0.044c0.04,0.024,0.08,0.036,0.104,0.036c0.044,0,0.12-0.076,0.204-0.196l0.328-0.464l-0.112-0.496
			c-0.056-0.24-0.084-0.272-0.184-0.272c-0.032,0-0.08,0.008-0.156,0.028l-0.072,0.02l-0.012-0.063l0.044-0.016
			c0.244-0.088,0.376-0.116,0.468-0.116c0.1,0,0.148,0.072,0.204,0.344L9.679,10.743z"/>
		<path fill="#FF0000" d="M10.415,12.378c0.212-0.136,0.304-0.252,0.304-0.36c0-0.04-0.016-0.068-0.08-0.116
			c-0.08-0.06-0.1-0.12-0.1-0.196c0-0.096,0.088-0.176,0.204-0.176c0.144,0,0.232,0.136,0.232,0.296c0,0.224-0.184,0.448-0.52,0.624
			L10.415,12.378z"/>
		<path fill="#FF0000" d="M12.491,11.631c0.339-0.564,0.487-0.852,0.487-1.027c0-0.056-0.028-0.08-0.104-0.128
			c-0.08-0.052-0.104-0.092-0.104-0.156c0-0.088,0.068-0.148,0.16-0.148c0.12,0,0.208,0.1,0.208,0.22
			c0,0.228-0.192,0.667-0.524,1.219c-0.416,0.688-0.843,1.147-1.071,1.147c-0.12,0-0.204-0.068-0.204-0.172
			c0-0.088,0.068-0.16,0.156-0.16c0.14,0,0.14,0.112,0.244,0.112c0.052,0,0.1-0.032,0.192-0.132
			c0.072-0.076,0.252-0.312,0.284-0.364c0.024-0.048,0.04-0.096,0.04-0.14c0-0.16-0.22-1.055-0.328-1.327
			c-0.076-0.196-0.148-0.256-0.308-0.256c-0.044,0-0.08,0.004-0.124,0.016v-0.068c0.044-0.008,0.088-0.016,0.128-0.024
			c0.08-0.016,0.212-0.04,0.428-0.072h0.016c0.06,0,0.271,0.664,0.34,1.02L12.491,11.631z"/>
		<path fill="#FF0000" d="M13.971,9.26c0.188,0.335,0.251,0.492,0.32,0.788c0.048,0.224,0.076,0.456,0.076,0.671
			c0,0.404-0.112,0.784-0.312,1.127c-0.156,0.268-0.364,0.492-0.728,0.808l-0.052-0.06c0.336-0.356,0.484-0.624,0.62-1.047
			c0.124-0.384,0.196-0.844,0.196-1.219c0-0.4-0.06-0.724-0.196-1.047L13.971,9.26z"/>
	</g>
	<g>
		<g>
			<path fill="none" stroke="#FF0000" stroke-width="0.1" stroke-miterlimit="10" d="M14.804,11.048
				c0.539,0.08,1.528-0.367,2.233-0.596"/>
			<g>
				<polygon fill="#FF0000" points="16.852,10.888 16.919,10.491 16.681,10.167 17.62,10.325 				"/>
			</g>
		</g>
	</g>
	<g>
		<g>
			<path fill="none" stroke="#FF0000" stroke-width="0.1" stroke-miterlimit="10" d="M14.804,22.619
				c0.539,0.08,1.528-0.367,2.233-0.596"/>
			<g>
				<polygon fill="#FF0000" points="16.852,22.458 16.919,22.062 16.681,21.738 17.62,21.896 				"/>
			</g>
		</g>
	</g>
	<g>
		<path d="M37.151,33.629c-0.248,0.056-0.264,0.076-0.416,0.595l-0.332,1.14c-0.088,0.3-0.216,0.532-0.388,0.676
			c-0.172,0.148-0.372,0.208-0.631,0.208c-0.524,0-0.884-0.276-0.884-0.655c0-0.216,0.072-0.484,0.176-0.864l0.208-0.755
			c0.02-0.072,0.036-0.132,0.036-0.18c0-0.104-0.072-0.156-0.32-0.164v-0.064h1.087v0.064c-0.272,0.028-0.34,0.088-0.416,0.364
			l-0.251,0.903c-0.108,0.38-0.16,0.627-0.16,0.716c0,0.284,0.24,0.472,0.552,0.472c0.452,0,0.7-0.272,0.879-0.928l0.256-0.932
			c0.064-0.236,0.092-0.375,0.092-0.412c0-0.12-0.068-0.164-0.28-0.184v-0.064h0.792V33.629z"/>
	</g>
	<g>
		<path fill="#FF0000" d="M36.631,5.431l-0.072-0.012c0-0.408-0.088-0.652-0.476-0.652c-0.276,0-0.448,0.148-0.448,0.4
			c0,0.196,0.032,0.26,0.396,0.624c0.364,0.368,0.452,0.54,0.452,0.8c0,0.456-0.348,0.779-0.808,0.779
			c-0.124,0-0.232-0.028-0.416-0.092c-0.108-0.04-0.144-0.048-0.188-0.048c-0.08,0-0.144,0.036-0.172,0.128h-0.072l0.136-0.896
			l0.08,0.008c-0.008,0.036-0.008,0.064-0.008,0.092c0,0.392,0.24,0.667,0.576,0.667c0.308,0,0.523-0.208,0.523-0.512
			c0-0.172-0.056-0.292-0.24-0.492l-0.156-0.168c-0.056-0.06-0.104-0.116-0.156-0.168c-0.24-0.256-0.3-0.384-0.3-0.6
			c0-0.42,0.328-0.656,0.711-0.656c0.124,0,0.256,0.02,0.34,0.056c0.084,0.032,0.132,0.044,0.184,0.044
			c0.088,0,0.124-0.02,0.18-0.104h0.092L36.631,5.431z"/>
	</g>
	<g>
		<path fill="#FF0000" d="M29.714,15.829c0.7,0,1.167,0.375,1.167,1.075c0,0.496-0.248,0.899-0.64,1.203
			c-0.292,0.228-0.695,0.332-1.163,0.332h-1.028v-0.064c0.224-0.04,0.264-0.068,0.328-0.304l0.488-1.779
			c0.028-0.1,0.044-0.176,0.044-0.236c0-0.108-0.06-0.156-0.304-0.164v-0.064H29.714z M28.851,17.792
			c-0.068,0.248-0.088,0.328-0.088,0.379c0,0.104,0.088,0.148,0.272,0.148c0.404,0,0.715-0.12,0.963-0.359
			c0.284-0.276,0.439-0.748,0.439-1.151c0-0.32-0.116-0.572-0.312-0.72c-0.124-0.092-0.292-0.14-0.524-0.14
			c-0.152,0-0.24,0.016-0.28,0.156L28.851,17.792z"/>
	</g>
	<g>
		<path fill="#FF0000" d="M44.989,11.671c-0.132,0.208-0.284,0.304-0.483,0.304c-0.232,0-0.352-0.172-0.352-0.508v-1.203h-0.212
			c-0.012-0.008-0.016-0.016-0.016-0.028c0-0.024,0.024-0.048,0.068-0.076c0.104-0.06,0.236-0.208,0.388-0.428
			c0.024-0.036,0.056-0.072,0.08-0.112c0.02,0,0.028,0.012,0.028,0.052v0.464h0.404v0.128H44.49v1.143c0,0.256,0.06,0.36,0.208,0.36
			c0.088,0,0.152-0.036,0.24-0.14L44.989,11.671z"/>
		<path fill="#FF0000" d="M45.958,11.974c-0.484,0-0.864-0.396-0.864-0.952s0.36-0.927,0.9-0.927c0.488,0,0.863,0.364,0.863,0.916
			C46.857,11.567,46.497,11.974,45.958,11.974z M46.297,10.407c-0.096-0.12-0.208-0.2-0.38-0.2c-0.276,0-0.464,0.236-0.464,0.636
			c0,0.316,0.064,0.604,0.212,0.819c0.088,0.128,0.216,0.2,0.36,0.2c0.296,0,0.472-0.28,0.472-0.744
			C46.497,10.847,46.425,10.571,46.297,10.407z"/>
		<path fill="#FF0000" d="M47.614,10.411c0.176-0.22,0.352-0.316,0.576-0.316c0.388,0,0.667,0.355,0.667,0.852
			c0,0.58-0.364,1.027-0.839,1.027c-0.168,0-0.26-0.04-0.404-0.172v0.627c0,0.252,0.052,0.296,0.352,0.3v0.072h-0.967v-0.068
			c0.236-0.024,0.28-0.068,0.28-0.276v-1.871c0-0.188-0.028-0.228-0.164-0.228c-0.036,0-0.064,0-0.1,0.004v-0.064
			c0.22-0.068,0.364-0.12,0.576-0.204l0.024,0.008V10.411z M47.614,11.583c0,0.12,0.228,0.264,0.416,0.264
			c0.288,0,0.484-0.3,0.484-0.74c0-0.468-0.196-0.771-0.492-0.771c-0.184,0-0.408,0.144-0.408,0.264V11.583z"/>
	</g>
	<g>
		<path fill="#FF0000" d="M44.538,21.749c0.084-0.204,0.296-0.336,0.54-0.336c0.428,0,0.72,0.384,0.72,0.879
			c0,0.592-0.408,1-0.936,1c-0.324,0-0.66-0.128-0.66-0.264v-2.039c0-0.2-0.032-0.232-0.196-0.232c-0.028,0-0.048,0.004-0.068,0.008
			v-0.068l0.12-0.036c0.188-0.056,0.292-0.08,0.46-0.14l0.02,0.008V21.749z M44.538,22.956c0,0.128,0.18,0.208,0.388,0.208
			c0.156,0,0.284-0.06,0.372-0.172c0.096-0.12,0.148-0.296,0.148-0.528c0-0.24-0.056-0.472-0.156-0.612
			c-0.084-0.12-0.212-0.188-0.356-0.188c-0.212,0-0.396,0.147-0.396,0.315V22.956z"/>
		<path fill="#FF0000" d="M46.905,23.292c-0.484,0-0.864-0.396-0.864-0.952s0.36-0.927,0.9-0.927c0.487,0,0.863,0.364,0.863,0.916
			C47.805,22.884,47.445,23.292,46.905,23.292z M47.245,21.725c-0.096-0.12-0.208-0.2-0.38-0.2c-0.276,0-0.464,0.236-0.464,0.636
			c0,0.316,0.064,0.604,0.212,0.819c0.088,0.128,0.216,0.2,0.36,0.2c0.296,0,0.472-0.28,0.472-0.744
			C47.445,22.165,47.373,21.889,47.245,21.725z"/>
		<path fill="#FF0000" d="M49.009,22.988c-0.132,0.208-0.284,0.304-0.483,0.304c-0.232,0-0.352-0.172-0.352-0.508v-1.203h-0.212
			c-0.012-0.008-0.016-0.016-0.016-0.028c0-0.024,0.024-0.048,0.068-0.076c0.104-0.06,0.236-0.208,0.388-0.428
			c0.024-0.036,0.056-0.072,0.08-0.112c0.02,0,0.028,0.012,0.028,0.052v0.464h0.404v0.128h-0.404v1.143
			c0,0.256,0.06,0.36,0.208,0.36c0.088,0,0.152-0.036,0.24-0.14L49.009,22.988z"/>
		<path fill="#FF0000" d="M50.121,22.988c-0.132,0.208-0.284,0.304-0.483,0.304c-0.232,0-0.352-0.172-0.352-0.508v-1.203h-0.212
			c-0.012-0.008-0.016-0.016-0.016-0.028c0-0.024,0.024-0.048,0.068-0.076c0.104-0.06,0.236-0.208,0.388-0.428
			c0.024-0.036,0.056-0.072,0.08-0.112c0.02,0,0.028,0.012,0.028,0.052v0.464h0.404v0.128h-0.404v1.143
			c0,0.256,0.06,0.36,0.208,0.36c0.088,0,0.152-0.036,0.24-0.14L50.121,22.988z"/>
		<path fill="#FF0000" d="M51.089,23.292c-0.484,0-0.864-0.396-0.864-0.952s0.36-0.927,0.9-0.927c0.488,0,0.863,0.364,0.863,0.916
			C51.989,22.884,51.629,23.292,51.089,23.292z M51.429,21.725c-0.096-0.12-0.208-0.2-0.38-0.2c-0.276,0-0.464,0.236-0.464,0.636
			c0,0.316,0.064,0.604,0.212,0.819c0.088,0.128,0.216,0.2,0.36,0.2c0.296,0,0.472-0.28,0.472-0.744
			C51.629,22.165,51.557,21.889,51.429,21.725z"/>
		<path fill="#FF0000" d="M54.336,23.252v-0.06c0.224-0.024,0.26-0.068,0.26-0.3v-0.824c0-0.315-0.08-0.447-0.308-0.447
			c-0.188,0-0.308,0.072-0.428,0.244v1.007c0,0.26,0.06,0.316,0.288,0.32v0.06h-0.896v-0.06c0.228-0.016,0.271-0.04,0.271-0.284
			v-0.844c0-0.276-0.088-0.443-0.26-0.443c-0.148,0-0.344,0.076-0.424,0.172c-0.028,0.032-0.052,0.06-0.052,0.068v1.111
			c0,0.172,0.06,0.212,0.272,0.22v0.06h-0.888v-0.06c0.224-0.004,0.28-0.06,0.28-0.292v-0.992c0-0.196-0.036-0.264-0.14-0.264
			c-0.044,0-0.076,0.004-0.128,0.016v-0.068c0.22-0.06,0.352-0.104,0.556-0.18l0.032,0.012v0.296h0.008
			c0.264-0.272,0.432-0.308,0.612-0.308c0.216,0,0.352,0.108,0.424,0.336c0.216-0.232,0.42-0.336,0.652-0.336
			c0.324,0,0.463,0.248,0.463,0.72v0.812c0,0.18,0.052,0.231,0.172,0.24l0.104,0.008v0.06H54.336z"/>
	</g>
</g>
<g id="Layer_5">
	<g>
		<g>
			<g>
				<g>
					
						<line fill="none" stroke="#00A300" stroke-width="0.3" stroke-miterlimit="10" x1="27.619" y1="10.829" x2="27.619" y2="4.691"/>
					<g>
						<polygon fill="#00A300" points="28.846,5.685 28.627,5.89 27.62,4.806 26.613,5.89 26.393,5.685 27.62,4.366 						"/>
					</g>
				</g>
			</g>
			
				<polyline fill="none" stroke="#00A300" stroke-width="0.1" stroke-linecap="round" stroke-linejoin="round" stroke-miterlimit="10" points="
				27.615,9.819 28.451,9.823 28.451,9.823 28.433,10.753 			"/>
		</g>
		<g>
			<g>
				<g>
					
						<line fill="none" stroke="#00A300" stroke-width="0.3" stroke-miterlimit="10" x1="27.619" y1="10.829" x2="27.619" y2="4.691"/>
					<g>
						<polygon fill="#00A300" points="28.846,5.685 28.627,5.89 27.62,4.806 26.613,5.89 26.393,5.685 27.62,4.366 						"/>
					</g>
				</g>
			</g>
		</g>
		<g>
			<g>
				<g>
					<g>
						
							<line fill="none" stroke="#00A300" stroke-width="0.3" stroke-miterlimit="10" x1="41.866" y1="16.652" x2="48.004" y2="16.652"/>
						<g>
							<polygon fill="#00A300" points="47.01,17.879 46.805,17.659 47.889,16.652 46.805,15.645 47.01,15.425 48.329,16.652 							
								"/>
						</g>
					</g>
				</g>
				
					<polyline fill="none" stroke="#00A300" stroke-width="0.1" stroke-linecap="round" stroke-linejoin="round" stroke-miterlimit="10" points="
					42.876,16.648 42.872,17.484 42.872,17.484 41.942,17.466 				"/>
			</g>
			<g>
				<g>
					
						<line fill="none" stroke="#00A300" stroke-width="0.3" stroke-miterlimit="10" x1="41.866" y1="16.652" x2="48.004" y2="16.652"/>
					<g>
						<polygon fill="#00A300" points="47.01,17.879 46.805,17.659 47.889,16.652 46.805,15.645 47.01,15.425 48.329,16.652 						
							"/>
					</g>
				</g>
			</g>
		</g>
		<g>
			<g>
				<g>
					<g>
						
							<line fill="none" stroke="#00A300" stroke-width="0.3" stroke-miterlimit="10" x1="18.036" y1="16.652" x2="11.898" y2="16.652"/>
						<g>
							<polygon fill="#00A300" points="12.892,15.425 13.097,15.645 12.013,16.652 13.097,17.659 12.892,17.879 11.573,16.652 
															"/>
						</g>
					</g>
				</g>
				
					<polyline fill="none" stroke="#00A300" stroke-width="0.1" stroke-linecap="round" stroke-linejoin="round" stroke-miterlimit="10" points="
					17.026,16.648 17.03,17.484 17.03,17.484 17.96,17.466 				"/>
			</g>
			<g>
				<g>
					
						<line fill="none" stroke="#00A300" stroke-width="0.3" stroke-miterlimit="10" x1="18.036" y1="16.652" x2="11.898" y2="16.652"/>
					<g>
						<polygon fill="#00A300" points="12.892,15.425 13.097,15.645 12.013,16.652 13.097,17.659 12.892,17.879 11.573,16.652 						
							"/>
					</g>
				</g>
			</g>
		</g>
		<g>
			<g>
				<g>
					
						<line fill="none" stroke="#00A300" stroke-width="0.3" stroke-miterlimit="10" stroke-dasharray="1,2" x1="27.619" y1="22.976" x2="27.619" y2="29.114"/>
					<g>
						<polygon fill="#00A300" points="26.392,28.12 26.612,27.916 27.619,28.999 28.626,27.916 28.846,28.12 27.619,29.44 						"/>
					</g>
				</g>
			</g>
			
				<polyline fill="none" stroke="#00A300" stroke-width="0.1" stroke-linecap="round" stroke-linejoin="round" stroke-miterlimit="10" points="
				27.615,23.986 28.451,23.982 28.451,23.982 28.433,23.052 			"/>
			<g>
				<g>
					
						<line fill="none" stroke="#00A300" stroke-width="0.3" stroke-miterlimit="10" x1="27.619" y1="25.12" x2="27.619" y2="29.114"/>
					<g>
						<polygon fill="#00A300" points="26.392,28.12 26.612,27.916 27.619,28.999 28.626,27.916 28.846,28.12 27.619,29.44 						"/>
					</g>
				</g>
			</g>
		</g>
	</g>
	<g>
		<g>
			<path fill="#00B200" d="M25.791,5.407c-0.272,0.372-0.372,0.452-0.56,0.452c-0.1,0-0.188-0.064-0.188-0.216
				c0-0.04,0.008-0.092,0.064-0.3l0.176-0.647c0.032-0.124,0.056-0.268,0.056-0.316c0-0.072-0.036-0.116-0.096-0.116
				c-0.16,0-0.34,0.196-0.592,0.567c-0.18,0.268-0.211,0.36-0.399,0.992h-0.3l0.384-1.399c0.004-0.02,0.008-0.044,0.008-0.068
				c0-0.08-0.056-0.104-0.26-0.108V4.183c0.324-0.064,0.436-0.08,0.647-0.124l0.016,0.008L24.48,4.939
				c0.4-0.64,0.668-0.88,0.924-0.88c0.172,0,0.26,0.1,0.26,0.244c0,0.072-0.016,0.156-0.04,0.24l-0.224,0.812
				c-0.04,0.144-0.056,0.212-0.056,0.244c0,0.036,0.016,0.072,0.064,0.072c0.056,0,0.128-0.064,0.244-0.212
				c0.028-0.032,0.056-0.068,0.084-0.104L25.791,5.407z"/>
		</g>
		<g>
			<path fill="#00B200" d="M25.548,3.621l-0.571-1.156h-0.004l-0.567,1.156h-0.272l0.724-1.459h0.24l0.724,1.459H25.548z"/>
		</g>
	</g>
	<g>
	</g>
	<g>
	</g>
</g>
</svg>
