<?xml version="1.0" encoding="utf-8"?>
<!-- Generator: Adobe Illustrator 25.4.1, SVG Export Plug-In . SVG Version: 6.00 Build 0)  -->
<svg version="1.1" xmlns="http://www.w3.org/2000/svg" xmlns:xlink="http://www.w3.org/1999/xlink" x="0px" y="0px"
	 viewBox="0 0 68.466 60.303" enable-background="new 0 0 68.466 60.303" xml:space="preserve">
<g id="Graph_paper_slanted" opacity="0.5">
	<g id="Clipped_grid_00000003068028900943026870000011536296927355263674_">
		<defs>
			<polygon id="SVGID_1_" points="52.124,76.206 -58.774,76.206 -0.444,17.876 110.455,17.876 			"/>
		</defs>
		<clipPath id="SVGID_00000074441112333949303610000007075058225681911737_">
			<use xlink:href="#SVGID_1_"  overflow="visible"/>
		</clipPath>
		
			<g id="Grid_00000142891597197125820610000009767860333217090727_" opacity="0.25" clip-path="url(#SVGID_00000074441112333949303610000007075058225681911737_)">
			<g id="Horizontal_1_mm_00000151508609497893311650000018408800186222605470_">
				
					<line fill="none" stroke="#00ABEB" stroke-width="0.15" stroke-miterlimit="10" x1="-29.974" y1="-11.263" x2="196.867" y2="-11.263"/>
				
					<line fill="none" stroke="#00ABEB" stroke-width="0.15" stroke-miterlimit="10" x1="-27.986" y1="-13.251" x2="198.855" y2="-13.251"/>
				
					<line fill="none" stroke="#00ABEB" stroke-width="0.15" stroke-miterlimit="10" x1="-147.263" y1="106.025" x2="79.578" y2="106.025"/>
				
					<line fill="none" stroke="#00ABEB" stroke-width="0.15" stroke-miterlimit="10" x1="-145.275" y1="104.037" x2="81.566" y2="104.037"/>
				
					<line fill="none" stroke="#00ABEB" stroke-width="0.15" stroke-miterlimit="10" x1="-143.287" y1="102.05" x2="83.554" y2="102.05"/>
				
					<line fill="none" stroke="#00ABEB" stroke-width="0.15" stroke-miterlimit="10" x1="-141.299" y1="100.062" x2="85.542" y2="100.062"/>
				
					<line fill="none" stroke="#00ABEB" stroke-width="0.15" stroke-miterlimit="10" x1="-139.311" y1="98.074" x2="87.53" y2="98.074"/>
				
					<line fill="none" stroke="#00ABEB" stroke-width="0.15" stroke-miterlimit="10" x1="-137.323" y1="96.086" x2="89.518" y2="96.086"/>
				
					<line fill="none" stroke="#00ABEB" stroke-width="0.15" stroke-miterlimit="10" x1="-135.335" y1="94.098" x2="91.506" y2="94.098"/>
				
					<line fill="none" stroke="#00ABEB" stroke-width="0.15" stroke-miterlimit="10" x1="-133.348" y1="92.11" x2="93.493" y2="92.11"/>
				
					<line fill="none" stroke="#00ABEB" stroke-width="0.15" stroke-miterlimit="10" x1="-131.359" y1="90.122" x2="95.482" y2="90.122"/>
				
					<line fill="none" stroke="#00ABEB" stroke-width="0.15" stroke-miterlimit="10" x1="-129.371" y1="88.134" x2="97.47" y2="88.134"/>
				
					<line fill="none" stroke="#00ABEB" stroke-width="0.15" stroke-miterlimit="10" x1="-127.384" y1="86.146" x2="99.457" y2="86.146"/>
				
					<line fill="none" stroke="#00ABEB" stroke-width="0.15" stroke-miterlimit="10" x1="-125.395" y1="84.158" x2="101.445" y2="84.158"/>
				
					<line fill="none" stroke="#00ABEB" stroke-width="0.15" stroke-miterlimit="10" x1="-123.407" y1="82.17" x2="103.434" y2="82.17"/>
				
					<line fill="none" stroke="#00ABEB" stroke-width="0.15" stroke-miterlimit="10" x1="-121.42" y1="80.183" x2="105.421" y2="80.183"/>
				
					<line fill="none" stroke="#00ABEB" stroke-width="0.15" stroke-miterlimit="10" x1="-119.432" y1="78.194" x2="107.409" y2="78.194"/>
				
					<line fill="none" stroke="#00ABEB" stroke-width="0.15" stroke-miterlimit="10" x1="-117.443" y1="76.206" x2="109.397" y2="76.206"/>
				
					<line fill="none" stroke="#00ABEB" stroke-width="0.15" stroke-miterlimit="10" x1="-115.456" y1="74.219" x2="111.385" y2="74.219"/>
				
					<line fill="none" stroke="#00ABEB" stroke-width="0.15" stroke-miterlimit="10" x1="-113.468" y1="72.231" x2="113.373" y2="72.231"/>
				
					<line fill="none" stroke="#00ABEB" stroke-width="0.15" stroke-miterlimit="10" x1="-111.48" y1="70.242" x2="115.361" y2="70.242"/>
				
					<line fill="none" stroke="#00ABEB" stroke-width="0.15" stroke-miterlimit="10" x1="-109.492" y1="68.255" x2="117.349" y2="68.255"/>
				
					<line fill="none" stroke="#00ABEB" stroke-width="0.15" stroke-miterlimit="10" x1="-107.504" y1="66.267" x2="119.337" y2="66.267"/>
				
					<line fill="none" stroke="#00ABEB" stroke-width="0.15" stroke-miterlimit="10" x1="-105.515" y1="64.278" x2="121.325" y2="64.278"/>
				
					<line fill="none" stroke="#00ABEB" stroke-width="0.15" stroke-miterlimit="10" x1="-103.528" y1="62.291" x2="123.313" y2="62.291"/>
				
					<line fill="none" stroke="#00ABEB" stroke-width="0.15" stroke-miterlimit="10" x1="-101.54" y1="60.303" x2="125.301" y2="60.303"/>
				
					<line fill="none" stroke="#00ABEB" stroke-width="0.15" stroke-miterlimit="10" x1="-99.552" y1="58.315" x2="127.289" y2="58.315"/>
				
					<line fill="none" stroke="#00ABEB" stroke-width="0.15" stroke-miterlimit="10" x1="-97.564" y1="56.327" x2="129.277" y2="56.327"/>
				
					<line fill="none" stroke="#00ABEB" stroke-width="0.15" stroke-miterlimit="10" x1="-95.576" y1="54.339" x2="131.265" y2="54.339"/>
				
					<line fill="none" stroke="#00ABEB" stroke-width="0.15" stroke-miterlimit="10" x1="-93.588" y1="52.351" x2="133.252" y2="52.351"/>
				
					<line fill="none" stroke="#00ABEB" stroke-width="0.15" stroke-miterlimit="10" x1="-91.6" y1="50.363" x2="135.24" y2="50.363"/>
				
					<line fill="none" stroke="#00ABEB" stroke-width="0.15" stroke-miterlimit="10" x1="-89.612" y1="48.375" x2="137.229" y2="48.375"/>
				
					<line fill="none" stroke="#00ABEB" stroke-width="0.15" stroke-miterlimit="10" x1="-87.625" y1="46.388" x2="139.216" y2="46.388"/>
				
					<line fill="none" stroke="#00ABEB" stroke-width="0.15" stroke-miterlimit="10" x1="-85.637" y1="44.4" x2="141.204" y2="44.4"/>
				
					<line fill="none" stroke="#00ABEB" stroke-width="0.15" stroke-miterlimit="10" x1="-83.648" y1="42.411" x2="143.192" y2="42.411"/>
				
					<line fill="none" stroke="#00ABEB" stroke-width="0.15" stroke-miterlimit="10" x1="-81.661" y1="40.424" x2="145.18" y2="40.424"/>
				
					<line fill="none" stroke="#00ABEB" stroke-width="0.15" stroke-miterlimit="10" x1="-79.673" y1="38.436" x2="147.168" y2="38.436"/>
				
					<line fill="none" stroke="#00ABEB" stroke-width="0.15" stroke-miterlimit="10" x1="-77.685" y1="36.448" x2="149.156" y2="36.448"/>
				
					<line fill="none" stroke="#00ABEB" stroke-width="0.15" stroke-miterlimit="10" x1="-75.697" y1="34.46" x2="151.144" y2="34.46"/>
				
					<line fill="none" stroke="#00ABEB" stroke-width="0.15" stroke-miterlimit="10" x1="-73.709" y1="32.472" x2="153.132" y2="32.472"/>
				
					<line fill="none" stroke="#00ABEB" stroke-width="0.15" stroke-miterlimit="10" x1="-71.721" y1="30.484" x2="155.12" y2="30.484"/>
				
					<line fill="none" stroke="#00ABEB" stroke-width="0.15" stroke-miterlimit="10" x1="-69.733" y1="28.496" x2="157.108" y2="28.496"/>
				
					<line fill="none" stroke="#00ABEB" stroke-width="0.15" stroke-miterlimit="10" x1="-67.745" y1="26.508" x2="159.096" y2="26.508"/>
				
					<line fill="none" stroke="#00ABEB" stroke-width="0.15" stroke-miterlimit="10" x1="-65.757" y1="24.52" x2="161.084" y2="24.52"/>
				
					<line fill="none" stroke="#00ABEB" stroke-width="0.15" stroke-miterlimit="10" x1="-63.769" y1="22.532" x2="163.072" y2="22.532"/>
				
					<line fill="none" stroke="#00ABEB" stroke-width="0.15" stroke-miterlimit="10" x1="-61.781" y1="20.544" x2="165.06" y2="20.544"/>
				
					<line fill="none" stroke="#00ABEB" stroke-width="0.15" stroke-miterlimit="10" x1="-59.793" y1="18.557" x2="167.047" y2="18.557"/>
				
					<line fill="none" stroke="#00ABEB" stroke-width="0.15" stroke-miterlimit="10" x1="-57.805" y1="16.568" x2="169.036" y2="16.568"/>
				
					<line fill="none" stroke="#00ABEB" stroke-width="0.15" stroke-miterlimit="10" x1="-55.817" y1="14.58" x2="171.024" y2="14.58"/>
				
					<line fill="none" stroke="#00ABEB" stroke-width="0.15" stroke-miterlimit="10" x1="-53.83" y1="12.593" x2="173.011" y2="12.593"/>
				
					<line fill="none" stroke="#00ABEB" stroke-width="0.15" stroke-miterlimit="10" x1="-51.841" y1="10.605" x2="174.999" y2="10.605"/>
				
					<line fill="none" stroke="#00ABEB" stroke-width="0.15" stroke-miterlimit="10" x1="-49.853" y1="8.616" x2="176.988" y2="8.616"/>
				
					<line fill="none" stroke="#00ABEB" stroke-width="0.15" stroke-miterlimit="10" x1="-47.866" y1="6.629" x2="178.975" y2="6.629"/>
				
					<line fill="none" stroke="#00ABEB" stroke-width="0.15" stroke-miterlimit="10" x1="-45.878" y1="4.641" x2="180.963" y2="4.641"/>
				
					<line fill="none" stroke="#00ABEB" stroke-width="0.15" stroke-miterlimit="10" x1="-43.889" y1="2.653" x2="182.951" y2="2.653"/>
				
					<line fill="none" stroke="#00ABEB" stroke-width="0.15" stroke-miterlimit="10" x1="-41.902" y1="0.665" x2="184.939" y2="0.665"/>
				
					<line fill="none" stroke="#00ABEB" stroke-width="0.15" stroke-miterlimit="10" x1="-39.914" y1="-1.323" x2="186.927" y2="-1.323"/>
				
					<line fill="none" stroke="#00ABEB" stroke-width="0.15" stroke-miterlimit="10" x1="-37.926" y1="-3.311" x2="188.915" y2="-3.311"/>
				
					<line fill="none" stroke="#00ABEB" stroke-width="0.15" stroke-miterlimit="10" x1="-35.938" y1="-5.299" x2="190.903" y2="-5.299"/>
				
					<line fill="none" stroke="#00ABEB" stroke-width="0.15" stroke-miterlimit="10" x1="-33.95" y1="-7.287" x2="192.891" y2="-7.287"/>
				
					<line fill="none" stroke="#00ABEB" stroke-width="0.15" stroke-miterlimit="10" x1="-31.962" y1="-9.274" x2="194.879" y2="-9.274"/>
			</g>
			<g id="Vertical_1_mm_00000181073523592228201180000012361058669048395659_">
				<g>
					
						<line fill="none" stroke="#00ABEB" stroke-width="0.15" stroke-miterlimit="10" x1="-147.178" y1="106.016" x2="-27.858" y2="-13.304"/>
				</g>
				
					<line fill="none" stroke="#00ABEB" stroke-width="0.15" stroke-miterlimit="10" x1="-144.344" y1="106.016" x2="-25.024" y2="-13.304"/>
				
					<line fill="none" stroke="#00ABEB" stroke-width="0.15" stroke-miterlimit="10" x1="-141.509" y1="106.016" x2="-22.189" y2="-13.304"/>
				
					<line fill="none" stroke="#00ABEB" stroke-width="0.15" stroke-miterlimit="10" x1="-138.674" y1="106.016" x2="-19.354" y2="-13.304"/>
				
					<line fill="none" stroke="#00ABEB" stroke-width="0.15" stroke-miterlimit="10" x1="-135.84" y1="106.016" x2="-16.52" y2="-13.304"/>
				
					<line fill="none" stroke="#00ABEB" stroke-width="0.15" stroke-miterlimit="10" x1="-133.005" y1="106.016" x2="-13.685" y2="-13.304"/>
				
					<line fill="none" stroke="#00ABEB" stroke-width="0.15" stroke-miterlimit="10" x1="-130.17" y1="106.016" x2="-10.85" y2="-13.304"/>
				
					<line fill="none" stroke="#00ABEB" stroke-width="0.15" stroke-miterlimit="10" x1="-127.336" y1="106.016" x2="-8.016" y2="-13.304"/>
				
					<line fill="none" stroke="#00ABEB" stroke-width="0.15" stroke-miterlimit="10" x1="-124.501" y1="106.016" x2="-5.181" y2="-13.304"/>
				
					<line fill="none" stroke="#00ABEB" stroke-width="0.15" stroke-miterlimit="10" x1="-121.667" y1="106.016" x2="-2.347" y2="-13.304"/>
				
					<line fill="none" stroke="#00ABEB" stroke-width="0.15" stroke-miterlimit="10" x1="-118.832" y1="106.016" x2="0.488" y2="-13.304"/>
				
					<line fill="none" stroke="#00ABEB" stroke-width="0.15" stroke-miterlimit="10" x1="-115.997" y1="106.016" x2="3.323" y2="-13.304"/>
				
					<line fill="none" stroke="#00ABEB" stroke-width="0.15" stroke-miterlimit="10" x1="-113.163" y1="106.016" x2="6.157" y2="-13.304"/>
				
					<line fill="none" stroke="#00ABEB" stroke-width="0.15" stroke-miterlimit="10" x1="-110.328" y1="106.016" x2="8.992" y2="-13.304"/>
				
					<line fill="none" stroke="#00ABEB" stroke-width="0.15" stroke-miterlimit="10" x1="-107.493" y1="106.016" x2="11.827" y2="-13.304"/>
				
					<line fill="none" stroke="#00ABEB" stroke-width="0.15" stroke-miterlimit="10" x1="-104.659" y1="106.016" x2="14.661" y2="-13.304"/>
				
					<line fill="none" stroke="#00ABEB" stroke-width="0.15" stroke-miterlimit="10" x1="-101.824" y1="106.016" x2="17.496" y2="-13.304"/>
				
					<line fill="none" stroke="#00ABEB" stroke-width="0.15" stroke-miterlimit="10" x1="-98.989" y1="106.016" x2="20.331" y2="-13.304"/>
				
					<line fill="none" stroke="#00ABEB" stroke-width="0.15" stroke-miterlimit="10" x1="-96.155" y1="106.016" x2="23.165" y2="-13.304"/>
				
					<line fill="none" stroke="#00ABEB" stroke-width="0.15" stroke-miterlimit="10" x1="-93.32" y1="106.016" x2="26" y2="-13.304"/>
				
					<line fill="none" stroke="#00ABEB" stroke-width="0.15" stroke-miterlimit="10" x1="-90.485" y1="106.016" x2="28.835" y2="-13.304"/>
				
					<line fill="none" stroke="#00ABEB" stroke-width="0.15" stroke-miterlimit="10" x1="-87.651" y1="106.016" x2="31.669" y2="-13.304"/>
				
					<line fill="none" stroke="#00ABEB" stroke-width="0.15" stroke-miterlimit="10" x1="-84.816" y1="106.016" x2="34.504" y2="-13.304"/>
				
					<line fill="none" stroke="#00ABEB" stroke-width="0.15" stroke-miterlimit="10" x1="-81.981" y1="106.016" x2="37.339" y2="-13.304"/>
				
					<line fill="none" stroke="#00ABEB" stroke-width="0.15" stroke-miterlimit="10" x1="-79.147" y1="106.016" x2="40.173" y2="-13.304"/>
				
					<line fill="none" stroke="#00ABEB" stroke-width="0.15" stroke-miterlimit="10" x1="-76.312" y1="106.016" x2="43.008" y2="-13.304"/>
				
					<line fill="none" stroke="#00ABEB" stroke-width="0.15" stroke-miterlimit="10" x1="-73.478" y1="106.016" x2="45.842" y2="-13.304"/>
				
					<line fill="none" stroke="#00ABEB" stroke-width="0.15" stroke-miterlimit="10" x1="-70.643" y1="106.016" x2="48.677" y2="-13.304"/>
				
					<line fill="none" stroke="#00ABEB" stroke-width="0.15" stroke-miterlimit="10" x1="-67.808" y1="106.016" x2="51.512" y2="-13.304"/>
				
					<line fill="none" stroke="#00ABEB" stroke-width="0.15" stroke-miterlimit="10" x1="-64.974" y1="106.016" x2="54.346" y2="-13.304"/>
				
					<line fill="none" stroke="#00ABEB" stroke-width="0.15" stroke-miterlimit="10" x1="-62.139" y1="106.016" x2="57.181" y2="-13.304"/>
				
					<line fill="none" stroke="#00ABEB" stroke-width="0.15" stroke-miterlimit="10" x1="-59.304" y1="106.016" x2="60.016" y2="-13.304"/>
				
					<line fill="none" stroke="#00ABEB" stroke-width="0.15" stroke-miterlimit="10" x1="-56.47" y1="106.016" x2="62.85" y2="-13.304"/>
				
					<line fill="none" stroke="#00ABEB" stroke-width="0.15" stroke-miterlimit="10" x1="-53.635" y1="106.016" x2="65.685" y2="-13.304"/>
				
					<line fill="none" stroke="#00ABEB" stroke-width="0.15" stroke-miterlimit="10" x1="-50.8" y1="106.016" x2="68.52" y2="-13.304"/>
				
					<line fill="none" stroke="#00ABEB" stroke-width="0.15" stroke-miterlimit="10" x1="-47.966" y1="106.016" x2="71.354" y2="-13.304"/>
				
					<line fill="none" stroke="#00ABEB" stroke-width="0.15" stroke-miterlimit="10" x1="-45.131" y1="106.016" x2="74.189" y2="-13.304"/>
				
					<line fill="none" stroke="#00ABEB" stroke-width="0.15" stroke-miterlimit="10" x1="-42.296" y1="106.016" x2="77.024" y2="-13.304"/>
				
					<line fill="none" stroke="#00ABEB" stroke-width="0.15" stroke-miterlimit="10" x1="-39.462" y1="106.016" x2="79.858" y2="-13.304"/>
				
					<line fill="none" stroke="#00ABEB" stroke-width="0.15" stroke-miterlimit="10" x1="-36.627" y1="106.016" x2="82.693" y2="-13.304"/>
				
					<line fill="none" stroke="#00ABEB" stroke-width="0.15" stroke-miterlimit="10" x1="-33.793" y1="106.016" x2="85.527" y2="-13.304"/>
				
					<line fill="none" stroke="#00ABEB" stroke-width="0.15" stroke-miterlimit="10" x1="-30.958" y1="106.016" x2="88.362" y2="-13.304"/>
				
					<line fill="none" stroke="#00ABEB" stroke-width="0.15" stroke-miterlimit="10" x1="-28.123" y1="106.016" x2="91.197" y2="-13.304"/>
				
					<line fill="none" stroke="#00ABEB" stroke-width="0.15" stroke-miterlimit="10" x1="-25.289" y1="106.016" x2="94.031" y2="-13.304"/>
				
					<line fill="none" stroke="#00ABEB" stroke-width="0.15" stroke-miterlimit="10" x1="-22.454" y1="106.016" x2="96.866" y2="-13.304"/>
				
					<line fill="none" stroke="#00ABEB" stroke-width="0.15" stroke-miterlimit="10" x1="-19.619" y1="106.016" x2="99.701" y2="-13.304"/>
				
					<line fill="none" stroke="#00ABEB" stroke-width="0.15" stroke-miterlimit="10" x1="-16.785" y1="106.016" x2="102.535" y2="-13.304"/>
				
					<line fill="none" stroke="#00ABEB" stroke-width="0.15" stroke-miterlimit="10" x1="-13.95" y1="106.016" x2="105.37" y2="-13.304"/>
				
					<line fill="none" stroke="#00ABEB" stroke-width="0.15" stroke-miterlimit="10" x1="-11.115" y1="106.016" x2="108.205" y2="-13.304"/>
				
					<line fill="none" stroke="#00ABEB" stroke-width="0.15" stroke-miterlimit="10" x1="-8.281" y1="106.016" x2="111.039" y2="-13.304"/>
				
					<line fill="none" stroke="#00ABEB" stroke-width="0.15" stroke-miterlimit="10" x1="-5.446" y1="106.016" x2="113.874" y2="-13.304"/>
				
					<line fill="none" stroke="#00ABEB" stroke-width="0.15" stroke-miterlimit="10" x1="-2.611" y1="106.016" x2="116.709" y2="-13.304"/>
				
					<line fill="none" stroke="#00ABEB" stroke-width="0.15" stroke-miterlimit="10" x1="0.223" y1="106.016" x2="119.543" y2="-13.304"/>
				
					<line fill="none" stroke="#00ABEB" stroke-width="0.15" stroke-miterlimit="10" x1="3.058" y1="106.016" x2="122.378" y2="-13.304"/>
				
					<line fill="none" stroke="#00ABEB" stroke-width="0.15" stroke-miterlimit="10" x1="5.893" y1="106.016" x2="125.213" y2="-13.304"/>
				
					<line fill="none" stroke="#00ABEB" stroke-width="0.15" stroke-miterlimit="10" x1="8.727" y1="106.016" x2="128.047" y2="-13.304"/>
				
					<line fill="none" stroke="#00ABEB" stroke-width="0.15" stroke-miterlimit="10" x1="11.562" y1="106.016" x2="130.882" y2="-13.304"/>
				
					<line fill="none" stroke="#00ABEB" stroke-width="0.15" stroke-miterlimit="10" x1="14.396" y1="106.016" x2="133.716" y2="-13.304"/>
				
					<line fill="none" stroke="#00ABEB" stroke-width="0.15" stroke-miterlimit="10" x1="17.231" y1="106.016" x2="136.551" y2="-13.304"/>
				
					<line fill="none" stroke="#00ABEB" stroke-width="0.15" stroke-miterlimit="10" x1="20.066" y1="106.016" x2="139.386" y2="-13.304"/>
				
					<line fill="none" stroke="#00ABEB" stroke-width="0.15" stroke-miterlimit="10" x1="22.9" y1="106.016" x2="142.22" y2="-13.304"/>
				
					<line fill="none" stroke="#00ABEB" stroke-width="0.15" stroke-miterlimit="10" x1="25.735" y1="106.016" x2="145.055" y2="-13.304"/>
				
					<line fill="none" stroke="#00ABEB" stroke-width="0.15" stroke-miterlimit="10" x1="28.57" y1="106.016" x2="147.89" y2="-13.304"/>
				
					<line fill="none" stroke="#00ABEB" stroke-width="0.15" stroke-miterlimit="10" x1="31.404" y1="106.016" x2="150.724" y2="-13.304"/>
				
					<line fill="none" stroke="#00ABEB" stroke-width="0.15" stroke-miterlimit="10" x1="34.239" y1="106.016" x2="153.559" y2="-13.304"/>
				
					<line fill="none" stroke="#00ABEB" stroke-width="0.15" stroke-miterlimit="10" x1="37.074" y1="106.016" x2="156.394" y2="-13.304"/>
				
					<line fill="none" stroke="#00ABEB" stroke-width="0.15" stroke-miterlimit="10" x1="39.908" y1="106.016" x2="159.228" y2="-13.304"/>
				
					<line fill="none" stroke="#00ABEB" stroke-width="0.15" stroke-miterlimit="10" x1="42.743" y1="106.016" x2="162.063" y2="-13.304"/>
				
					<line fill="none" stroke="#00ABEB" stroke-width="0.15" stroke-miterlimit="10" x1="45.578" y1="106.016" x2="164.898" y2="-13.304"/>
				
					<line fill="none" stroke="#00ABEB" stroke-width="0.15" stroke-miterlimit="10" x1="48.412" y1="106.016" x2="167.732" y2="-13.304"/>
				
					<line fill="none" stroke="#00ABEB" stroke-width="0.15" stroke-miterlimit="10" x1="51.247" y1="106.016" x2="170.567" y2="-13.304"/>
				
					<line fill="none" stroke="#00ABEB" stroke-width="0.15" stroke-miterlimit="10" x1="54.082" y1="106.016" x2="173.402" y2="-13.304"/>
				
					<line fill="none" stroke="#00ABEB" stroke-width="0.15" stroke-miterlimit="10" x1="56.916" y1="106.016" x2="176.236" y2="-13.304"/>
				
					<line fill="none" stroke="#00ABEB" stroke-width="0.15" stroke-miterlimit="10" x1="59.751" y1="106.016" x2="179.071" y2="-13.304"/>
				
					<line fill="none" stroke="#00ABEB" stroke-width="0.15" stroke-miterlimit="10" x1="62.585" y1="106.016" x2="181.905" y2="-13.304"/>
				
					<line fill="none" stroke="#00ABEB" stroke-width="0.15" stroke-miterlimit="10" x1="65.42" y1="106.016" x2="184.74" y2="-13.304"/>
				
					<line fill="none" stroke="#00ABEB" stroke-width="0.15" stroke-miterlimit="10" x1="68.255" y1="106.016" x2="187.575" y2="-13.304"/>
				
					<line fill="none" stroke="#00ABEB" stroke-width="0.15" stroke-miterlimit="10" x1="71.089" y1="106.016" x2="190.409" y2="-13.304"/>
				
					<line fill="none" stroke="#00ABEB" stroke-width="0.15" stroke-miterlimit="10" x1="73.924" y1="106.016" x2="193.244" y2="-13.304"/>
				
					<line fill="none" stroke="#00ABEB" stroke-width="0.15" stroke-miterlimit="10" x1="76.759" y1="106.016" x2="196.079" y2="-13.304"/>
				
					<line fill="none" stroke="#00ABEB" stroke-width="0.15" stroke-miterlimit="10" x1="79.593" y1="106.016" x2="198.913" y2="-13.304"/>
			</g>
			<g id="Horizontal_5_mm_00000011735556503592991880000008134099091165005186_">
				
					<line fill="none" stroke="#00ABEB" stroke-width="0.3" stroke-miterlimit="10" x1="-147.538" y1="106.025" x2="79.578" y2="106.025"/>
				
					<line fill="none" stroke="#00ABEB" stroke-width="0.3" stroke-miterlimit="10" x1="-137.598" y1="96.086" x2="89.518" y2="96.086"/>
				
					<line fill="none" stroke="#00ABEB" stroke-width="0.3" stroke-miterlimit="10" x1="-127.658" y1="86.146" x2="99.457" y2="86.146"/>
				
					<line fill="none" stroke="#00ABEB" stroke-width="0.3" stroke-miterlimit="10" x1="-117.718" y1="76.206" x2="109.397" y2="76.206"/>
				
					<line fill="none" stroke="#00ABEB" stroke-width="0.3" stroke-miterlimit="10" x1="-107.779" y1="66.267" x2="119.337" y2="66.267"/>
				
					<line fill="none" stroke="#00ABEB" stroke-width="0.3" stroke-miterlimit="10" x1="-97.839" y1="56.327" x2="129.277" y2="56.327"/>
				
					<line fill="none" stroke="#00ABEB" stroke-width="0.3" stroke-miterlimit="10" x1="-87.9" y1="46.388" x2="139.216" y2="46.388"/>
				
					<line fill="none" stroke="#00ABEB" stroke-width="0.3" stroke-miterlimit="10" x1="-77.959" y1="36.448" x2="149.156" y2="36.448"/>
				
					<line fill="none" stroke="#00ABEB" stroke-width="0.3" stroke-miterlimit="10" x1="-68.02" y1="26.508" x2="159.096" y2="26.508"/>
				
					<line fill="none" stroke="#00ABEB" stroke-width="0.3" stroke-miterlimit="10" x1="-58.08" y1="16.568" x2="169.036" y2="16.568"/>
				
					<line fill="none" stroke="#00ABEB" stroke-width="0.3" stroke-miterlimit="10" x1="-48.141" y1="6.629" x2="178.975" y2="6.629"/>
			</g>
			<g id="Vertical_5_mm_00000064346364918789686960000003233481195482251947_">
				
					<line fill="none" stroke="#00ABEB" stroke-width="0.3" stroke-miterlimit="10" x1="-147.178" y1="106.016" x2="-27.665" y2="-13.496"/>
				
					<line fill="none" stroke="#00ABEB" stroke-width="0.3" stroke-miterlimit="10" x1="-133.005" y1="106.016" x2="-13.492" y2="-13.496"/>
				
					<line fill="none" stroke="#00ABEB" stroke-width="0.3" stroke-miterlimit="10" x1="-118.832" y1="106.016" x2="0.681" y2="-13.496"/>
				
					<line fill="none" stroke="#00ABEB" stroke-width="0.3" stroke-miterlimit="10" x1="-104.659" y1="106.016" x2="14.854" y2="-13.496"/>
				
					<line fill="none" stroke="#00ABEB" stroke-width="0.3" stroke-miterlimit="10" x1="-90.485" y1="106.016" x2="29.028" y2="-13.496"/>
				
					<line fill="none" stroke="#00ABEB" stroke-width="0.3" stroke-miterlimit="10" x1="-76.312" y1="106.016" x2="43.201" y2="-13.496"/>
				
					<line fill="none" stroke="#00ABEB" stroke-width="0.3" stroke-miterlimit="10" x1="-62.139" y1="106.016" x2="57.374" y2="-13.496"/>
				
					<line fill="none" stroke="#00ABEB" stroke-width="0.3" stroke-miterlimit="10" x1="-47.966" y1="106.016" x2="71.547" y2="-13.496"/>
				
					<line fill="none" stroke="#00ABEB" stroke-width="0.3" stroke-miterlimit="10" x1="-33.793" y1="106.016" x2="85.72" y2="-13.496"/>
				
					<line fill="none" stroke="#00ABEB" stroke-width="0.3" stroke-miterlimit="10" x1="-19.619" y1="106.016" x2="99.894" y2="-13.496"/>
				
					<line fill="none" stroke="#00ABEB" stroke-width="0.3" stroke-miterlimit="10" x1="-5.446" y1="106.016" x2="114.067" y2="-13.496"/>
				
					<line fill="none" stroke="#00ABEB" stroke-width="0.3" stroke-miterlimit="10" x1="8.727" y1="106.016" x2="128.24" y2="-13.496"/>
				
					<line fill="none" stroke="#00ABEB" stroke-width="0.3" stroke-miterlimit="10" x1="22.9" y1="106.016" x2="142.413" y2="-13.496"/>
				
					<line fill="none" stroke="#00ABEB" stroke-width="0.3" stroke-miterlimit="10" x1="37.074" y1="106.016" x2="156.587" y2="-13.496"/>
				
					<line fill="none" stroke="#00ABEB" stroke-width="0.3" stroke-miterlimit="10" x1="51.247" y1="106.016" x2="170.76" y2="-13.496"/>
				
					<line fill="none" stroke="#00ABEB" stroke-width="0.3" stroke-miterlimit="10" x1="65.42" y1="106.016" x2="184.933" y2="-13.496"/>
				
					<line fill="none" stroke="#00ABEB" stroke-width="0.3" stroke-miterlimit="10" x1="79.593" y1="106.016" x2="199.106" y2="-13.496"/>
			</g>
			<g id="Horizontal_10_mm_00000163045836177147705350000008480455355013810362_">
				
					<line id="_x31_9_00000057116790517712807720000015084113881736219806_" fill="none" stroke="#00ABEB" stroke-width="0.7" stroke-miterlimit="10" x1="-147.538" y1="106.025" x2="79.578" y2="106.025"/>
				
					<line id="_x32_0_00000024685878617286333290000013167547815532084100_" fill="none" stroke="#00ABEB" stroke-width="0.7" stroke-miterlimit="10" x1="-127.658" y1="86.146" x2="99.457" y2="86.146"/>
				
					<line id="_x32_1_00000138564813020868535020000012777939180148238773_" fill="none" stroke="#00ABEB" stroke-width="0.7" stroke-miterlimit="10" x1="-107.779" y1="66.267" x2="119.337" y2="66.267"/>
				
					<line id="_x32_2_00000052807586205252870140000014502512662559454639_" fill="none" stroke="#00ABEB" stroke-width="0.7" stroke-miterlimit="10" x1="-87.9" y1="46.388" x2="139.216" y2="46.388"/>
				
					<line id="_x32_3_00000051376893246677475670000009295515732899575694_" fill="none" stroke="#00ABEB" stroke-width="0.7" stroke-miterlimit="10" x1="-68.02" y1="26.508" x2="159.096" y2="26.508"/>
				
					<line id="_x32_4_00000099657911357833521510000007853591198542098087_" fill="none" stroke="#00ABEB" stroke-width="0.7" stroke-miterlimit="10" x1="-48.141" y1="6.629" x2="178.975" y2="6.629"/>
				
					<line id="_x32_5_00000155127691660191171140000008292164438978366870_" fill="none" stroke="#00ABEB" stroke-width="0.7" stroke-miterlimit="10" x1="-28.261" y1="-13.251" x2="198.855" y2="-13.251"/>
			</g>
			<g id="Vertical_10_mm_00000134969164297783457920000010833503864539426239_">
				
					<line id="_x30__00000151539528360119995570000005083818057555393183_" fill="none" stroke="#00ABEB" stroke-width="0.7" stroke-miterlimit="10" x1="-147.178" y1="106.016" x2="-27.665" y2="-13.496"/>
				
					<line id="_x31__00000021823889366233599640000011971139016478256513_" fill="none" stroke="#00ABEB" stroke-width="0.7" stroke-miterlimit="10" x1="-118.832" y1="106.016" x2="0.681" y2="-13.496"/>
				
					<line id="_x32__00000071550223824624162640000006130814236846722696_" fill="none" stroke="#00ABEB" stroke-width="0.7" stroke-miterlimit="10" x1="-90.485" y1="106.016" x2="29.028" y2="-13.496"/>
				
					<line id="_x33__00000042015976804734918030000005045165563697445304_" fill="none" stroke="#00ABEB" stroke-width="0.7" stroke-miterlimit="10" x1="-62.139" y1="106.016" x2="57.374" y2="-13.496"/>
				
					<line id="_x34__00000081637789328126233800000002486991317463304126_" fill="none" stroke="#00ABEB" stroke-width="0.7" stroke-miterlimit="10" x1="-33.793" y1="106.016" x2="85.72" y2="-13.496"/>
				
					<line id="_x35__00000051353690731882489090000004794744233340785543_" fill="none" stroke="#00ABEB" stroke-width="0.7" stroke-miterlimit="10" x1="-5.446" y1="106.016" x2="114.067" y2="-13.496"/>
				
					<line id="_x36__00000011745311307505536660000010485558803267122343_" fill="none" stroke="#00ABEB" stroke-width="0.7" stroke-miterlimit="10" x1="22.9" y1="106.016" x2="142.413" y2="-13.496"/>
				
					<line id="_x37__00000045602144989735358580000003937589459941247142_" fill="none" stroke="#00ABEB" stroke-width="0.7" stroke-miterlimit="10" x1="51.247" y1="106.016" x2="170.76" y2="-13.496"/>
				
					<line id="_x38__00000047029857857898873560000014194396358708286345_" fill="none" stroke="#00ABEB" stroke-width="0.7" stroke-miterlimit="10" x1="79.593" y1="106.016" x2="199.106" y2="-13.496"/>
			</g>
		</g>
	</g>
</g>
<g id="Axis">
	<g id="lines">
		<g>
			<g>
				<line fill="none" stroke="#000000" stroke-width="0.2" stroke-miterlimit="10" x1="25.84" y1="9.018" x2="25.84" y2="2.372"/>
				<g>
					<polygon points="26.581,2.934 25.84,2.619 25.099,2.934 25.84,1.178 					"/>
				</g>
			</g>
		</g>
		<g>
			<g>
				<line fill="none" stroke="#000000" stroke-width="0.2" stroke-miterlimit="10" x1="25.84" y1="46.378" x2="25.84" y2="45.378"/>
				
					<line fill="none" stroke="#000000" stroke-width="0.2" stroke-miterlimit="10" stroke-dasharray="2.0571,2.0571" x1="25.84" y1="43.321" x2="25.84" y2="3.206"/>
				<line fill="none" stroke="#000000" stroke-width="0.2" stroke-miterlimit="10" x1="25.84" y1="2.178" x2="25.84" y2="1.178"/>
			</g>
		</g>
		<g>
			<g>
				<line fill="none" stroke="#000000" stroke-width="0.2" stroke-miterlimit="10" x1="25.84" y1="46.378" x2="26.84" y2="46.378"/>
				
					<line fill="none" stroke="#000000" stroke-width="0.2" stroke-miterlimit="10" stroke-dasharray="2.0627,2.0627" x1="28.903" y1="46.378" x2="64.999" y2="46.378"/>
				
					<line fill="none" stroke="#000000" stroke-width="0.2" stroke-miterlimit="10" x1="66.031" y1="46.378" x2="67.031" y2="46.378"/>
			</g>
		</g>
		<g>
			<g>
				
					<line fill="none" stroke="#000000" stroke-width="0.2" stroke-miterlimit="10" x1="46.063" y1="46.378" x2="65.837" y2="46.378"/>
				<g>
					<polygon points="65.275,47.118 65.59,46.378 65.275,45.637 67.031,46.378 					"/>
				</g>
			</g>
		</g>
		<g>
			<g>
				
					<line fill="none" stroke="#000000" stroke-width="0.2" stroke-miterlimit="10" x1="25.84" y1="46.378" x2="25.133" y2="47.085"/>
				
					<line fill="none" stroke="#000000" stroke-width="0.2" stroke-miterlimit="10" stroke-dasharray="1.8439,1.8439" x1="23.829" y1="48.389" x2="14.051" y2="58.167"/>
				
					<line fill="none" stroke="#000000" stroke-width="0.2" stroke-miterlimit="10" x1="13.399" y1="58.819" x2="12.692" y2="59.526"/>
			</g>
		</g>
		<g>
			<g>
				
					<line fill="none" stroke="#000000" stroke-width="0.2" stroke-miterlimit="10" x1="21.22" y1="50.998" x2="13.536" y2="58.682"/>
				<g>
					<polygon points="13.409,57.761 13.711,58.507 14.457,58.809 12.692,59.526 					"/>
				</g>
			</g>
		</g>
	</g>
	<g id="names">
		<g>
			<path d="M64.826,51.78c0.51-0.846,0.732-1.277,0.732-1.542c0-0.084-0.042-0.12-0.156-0.192c-0.12-0.078-0.156-0.138-0.156-0.234
				c0-0.132,0.102-0.222,0.24-0.222c0.18,0,0.312,0.15,0.312,0.33c0,0.342-0.288,1.001-0.786,1.829
				c-0.624,1.032-1.265,1.721-1.607,1.721c-0.18,0-0.306-0.102-0.306-0.258c0-0.132,0.102-0.24,0.234-0.24
				c0.21,0,0.21,0.167,0.366,0.167c0.078,0,0.15-0.048,0.288-0.198c0.108-0.114,0.378-0.468,0.426-0.545
				c0.036-0.072,0.06-0.144,0.06-0.21c0-0.24-0.33-1.583-0.492-1.991c-0.114-0.293-0.222-0.384-0.462-0.384
				c-0.066,0-0.12,0.006-0.186,0.024v-0.102c0.066-0.012,0.132-0.024,0.192-0.036c0.12-0.024,0.318-0.06,0.642-0.108h0.024
				c0.09,0,0.408,0.996,0.51,1.529L64.826,51.78z"/>
		</g>
		<g>
			<path d="M22.925,3.088c0.348,0.078,0.479,0.144,0.719,0.498c0.156,0.228,0.27,0.3,0.42,0.3c0.096,0,0.162-0.036,0.162-0.09
				c0-0.024-0.012-0.054-0.03-0.09c-0.036-0.072-0.048-0.12-0.048-0.167c0.006-0.102,0.102-0.204,0.198-0.204
				c0.126,0,0.21,0.09,0.21,0.222c0,0.24-0.222,0.456-0.558,0.456c-0.174,0-0.378-0.078-0.678-0.264
				c-0.282-0.174-0.474-0.251-0.629-0.251c-0.096,0-0.174,0.03-0.27,0.108L22.367,3.55l1.859-2.231H23.41
				c-0.312,0-0.426,0.054-0.545,0.36l-0.096-0.024l0.192-0.695h1.697v0.066L22.925,3.088z"/>
		</g>
		<g>
			<path d="M10.38,57.036c0.419-0.642,0.642-0.857,0.905-0.857c0.144,0,0.246,0.09,0.246,0.222c0,0.126-0.084,0.216-0.204,0.216
				c-0.114,0-0.168-0.102-0.312-0.102c-0.108,0-0.324,0.264-0.588,0.726c0,0.042,0.012,0.126,0.048,0.27l0.192,0.804
				c0.042,0.168,0.096,0.246,0.18,0.246c0.078,0,0.144-0.06,0.282-0.24c0.054-0.072,0.078-0.108,0.126-0.168l0.09,0.054
				c-0.348,0.54-0.504,0.684-0.731,0.684c-0.192,0-0.282-0.108-0.354-0.408l-0.174-0.714l-0.528,0.714
				c-0.264,0.354-0.384,0.408-0.57,0.408c-0.186,0-0.3-0.096-0.3-0.252c0-0.12,0.084-0.216,0.204-0.216
				c0.054,0,0.114,0.024,0.192,0.066c0.06,0.036,0.12,0.054,0.156,0.054c0.066,0,0.18-0.114,0.306-0.294l0.492-0.696l-0.168-0.743
				c-0.084-0.36-0.126-0.408-0.276-0.408c-0.048,0-0.12,0.012-0.234,0.042l-0.108,0.03l-0.018-0.096l0.066-0.024
				c0.366-0.132,0.564-0.174,0.702-0.174c0.15,0,0.222,0.108,0.306,0.516L10.38,57.036z"/>
		</g>
	</g>
</g>
<g id="cylinder">
	<path opacity="0.05" fill="#FF0000" d="M46.063,46.654c0,2.464-9.054,4.462-20.223,4.462S5.618,49.118,5.618,46.654h0V8.869h0
		c0-2.464,9.054-4.462,20.223-4.462s20.223,1.998,20.223,4.462h0L46.063,46.654L46.063,46.654z"/>
	<ellipse fill="none" stroke="#FF0000" stroke-width="0.4" stroke-miterlimit="10" cx="25.84" cy="8.869" rx="20.223" ry="4.462"/>
	<g>
		
			<ellipse fill="none" stroke="#FF0000" stroke-width="0.4" stroke-miterlimit="10" stroke-dasharray="2.0392,2.0392" cx="25.84" cy="46.654" rx="20.223" ry="4.462"/>
	</g>
	<path fill="none" stroke="#FF0000" stroke-width="0.4" stroke-miterlimit="10" d="M46.063,46.654c0,2.464-9.054,4.462-20.223,4.462
		S5.618,49.118,5.618,46.654"/>
	<line fill="none" stroke="#FF0000" stroke-width="0.4" stroke-miterlimit="10" x1="5.618" y1="8.569" x2="5.618" y2="46.654"/>
	<line fill="none" stroke="#FF0000" stroke-width="0.4" stroke-miterlimit="10" x1="46.063" y1="8.569" x2="46.063" y2="46.654"/>
	<g>
		<path fill="#FF0000" d="M38.416,17.876l2.002-3.343h0.13l0.66,3.343H38.416z M40.197,15.243l-1.276,2.162h1.712L40.197,15.243z"/>
		<path fill="#FF0000" d="M43.973,15.539l-0.09-0.015c0-0.51-0.11-0.815-0.595-0.815c-0.345,0-0.561,0.185-0.561,0.5
			c0,0.245,0.04,0.325,0.496,0.781c0.455,0.46,0.565,0.676,0.565,1.001c0,0.57-0.436,0.976-1.011,0.976
			c-0.155,0-0.29-0.035-0.521-0.115c-0.135-0.05-0.18-0.06-0.235-0.06c-0.101,0-0.181,0.045-0.215,0.16h-0.09l0.17-1.121l0.1,0.01
			c-0.01,0.045-0.01,0.08-0.01,0.115c0,0.49,0.3,0.836,0.721,0.836c0.385,0,0.656-0.26,0.656-0.641c0-0.215-0.07-0.365-0.3-0.616
			l-0.195-0.21c-0.07-0.075-0.13-0.145-0.195-0.21c-0.301-0.32-0.375-0.48-0.375-0.751c0-0.525,0.41-0.82,0.891-0.82
			c0.155,0,0.32,0.025,0.425,0.07c0.105,0.04,0.166,0.055,0.23,0.055c0.11,0,0.155-0.025,0.225-0.13h0.115L43.973,15.539z"/>
	</g>
	<path fill="none" stroke="#FF00FF" stroke-width="0.1" stroke-miterlimit="10" d="M34.682,21.256
		c0.859,0.28,1.452,0.604,1.698,0.952c0.084,0.119,0.127,0.24,0.127,0.364c0,0.123-0.043,0.243-0.125,0.361
		c-0.257,0.368-0.899,0.708-1.834,0.998"/>
	<g>
		<g>
			<path fill="none" stroke="#FF00FF" stroke-width="0.1" stroke-miterlimit="10" d="M35.938,23.333
				c-0.333,0.216-0.804,0.417-1.39,0.6"/>
			<g>
				<polygon fill="#FF00FF" points="35.47,23.213 35.829,23.396 35.945,23.781 36.381,22.934 				"/>
			</g>
		</g>
	</g>
	<g>
		<g>
			<path fill="none" stroke="#FF00FF" stroke-width="0.1" stroke-miterlimit="10" d="M34.682,21.256
				c0.522,0.17,0.946,0.357,1.253,0.555"/>
			<g>
				<polygon fill="#FF00FF" points="35.468,21.929 35.827,21.746 35.944,21.361 36.379,22.209 				"/>
			</g>
		</g>
	</g>
</g>
<g id="dS_00000018915836635026675570000007291620295118791867_">
	<path opacity="0.1" fill="#FF0000" d="M41.539,23.673V20.27l0,0c1.017-0.276,1.888-0.579,2.585-0.904l0,0l-0.031,3.433
		c-0.692,0.319-1.55,0.617-2.55,0.889"/>
	<path fill="none" stroke="#FF0000" stroke-width="0.2" stroke-linecap="round" stroke-linejoin="round" stroke-miterlimit="10" d="
		M41.539,23.673V20.27l0,0c1.017-0.276,1.888-0.579,2.585-0.904l0,0l-0.031,3.433c-0.692,0.319-1.55,0.617-2.55,0.889"/>
	<g>
		<path fill="#FF0000" d="M3.348,8.489l-0.09-0.015c0-0.51-0.11-0.815-0.596-0.815c-0.346,0-0.561,0.185-0.561,0.5
			c0,0.245,0.04,0.325,0.495,0.781C3.052,9.4,3.163,9.615,3.163,9.94c0,0.57-0.436,0.976-1.011,0.976
			c-0.155,0-0.29-0.035-0.521-0.115c-0.135-0.05-0.18-0.06-0.235-0.06c-0.1,0-0.18,0.045-0.215,0.16H1.09l0.17-1.121l0.1,0.01
			c-0.01,0.045-0.01,0.08-0.01,0.115c0,0.49,0.3,0.836,0.721,0.836c0.386,0,0.656-0.26,0.656-0.641c0-0.215-0.07-0.365-0.3-0.616
			l-0.195-0.21c-0.07-0.075-0.13-0.145-0.195-0.21c-0.3-0.32-0.375-0.48-0.375-0.751c0-0.525,0.41-0.82,0.891-0.82
			c0.155,0,0.32,0.025,0.426,0.07c0.105,0.04,0.165,0.055,0.23,0.055c0.11,0,0.155-0.025,0.225-0.13h0.115L3.348,8.489z"/>
	</g>
	<g>
		<g>
			<path fill="none" stroke="#000000" stroke-width="0.2" stroke-miterlimit="10" d="M46.052,20.388
				c4.4-2.087,4.396-5.954,7.009-6.671"/>
			<g>
				<polygon points="46.85,20.832 46.27,20.274 46.269,19.469 44.945,20.839 				"/>
			</g>
		</g>
	</g>
	<g>
		<g>
			<path fill="none" stroke="#000000" stroke-width="0.2" stroke-miterlimit="10" d="M43.276,25.446
				c0.97,4.256,6.107,3.784,8.957,3.682"/>
			<g>
				<polygon points="42.663,26.107 43.346,25.681 44.127,25.877 43.123,24.258 				"/>
			</g>
		</g>
	</g>
	<g>
		<path d="M54.008,15.285l2.002-3.343h0.13l0.66,3.343H54.008z M55.79,12.652l-1.276,2.162h1.712L55.79,12.652z"/>
		<path d="M57.679,14.92c0.29,0.065,0.4,0.12,0.601,0.415c0.13,0.19,0.225,0.25,0.35,0.25c0.08,0,0.135-0.03,0.135-0.075
			c0-0.02-0.01-0.045-0.025-0.075c-0.03-0.061-0.04-0.101-0.04-0.141c0.005-0.085,0.085-0.17,0.165-0.17
			c0.105,0,0.175,0.075,0.175,0.185c0,0.2-0.185,0.38-0.465,0.38c-0.146,0-0.315-0.065-0.566-0.22
			c-0.235-0.145-0.395-0.21-0.525-0.21c-0.08,0-0.145,0.025-0.225,0.09l-0.045-0.045l1.551-1.862h-0.681
			c-0.26,0-0.355,0.045-0.456,0.3l-0.08-0.02l0.16-0.581h1.417v0.055L57.679,14.92z"/>
	</g>
	<g>
		<path d="M56.135,30.33c-0.375,0.456-0.496,0.55-0.696,0.55c-0.14,0-0.2-0.06-0.2-0.205c0-0.125,0.01-0.165,0.115-0.575
			c-0.375,0.565-0.666,0.786-1.016,0.786c-0.28,0-0.5-0.2-0.5-0.581c0-0.776,0.766-1.682,1.432-1.682c0.215,0,0.36,0.105,0.4,0.29
			l0.055-0.24l0.015-0.015l0.306-0.035l0.035,0.015c-0.01,0.045-0.015,0.055-0.03,0.105c-0.235,0.855-0.445,1.717-0.445,1.816
			c0,0.035,0.03,0.065,0.07,0.065c0.045,0,0.11-0.04,0.26-0.205l0.135-0.146L56.135,30.33z M55.299,28.733
			c-0.225,0-0.445,0.155-0.655,0.46c-0.21,0.315-0.386,0.761-0.386,1.076c0,0.275,0.12,0.37,0.3,0.37c0.25,0,0.486-0.275,0.636-0.49
			c0.235-0.34,0.385-0.771,0.385-1.126C55.58,28.848,55.475,28.733,55.299,28.733z"/>
		<path d="M56.658,30.886c-0.14,0-0.265-0.125-0.265-0.271c0-0.16,0.125-0.285,0.275-0.285c0.15,0,0.28,0.13,0.28,0.285
			C56.949,30.765,56.818,30.886,56.658,30.886z"/>
		<path d="M57.348,30.83l2.002-3.343h0.13l0.66,3.343H57.348z M59.129,28.198l-1.276,2.162h1.712L59.129,28.198z"/>
		<path d="M62.365,30.3c-0.325,0.43-0.676,0.585-1.026,0.585c-0.406,0-0.641-0.331-0.641-0.861c0-1.076,0.565-1.962,1.111-2.377
			c0.22-0.165,0.411-0.21,0.611-0.21c0.355,0,0.616,0.24,0.616,0.836C63.036,29.084,62.735,29.804,62.365,30.3z M61.264,29.254
			c-0.095,0.25-0.145,0.511-0.145,0.826c0,0.446,0.095,0.701,0.28,0.701c0.48,0,0.911-1.036,1.031-1.527H61.264z M62.465,29.094
			c0.085-0.29,0.15-0.65,0.15-1.026c0-0.32-0.09-0.525-0.265-0.525c-0.435,0-0.926,1.106-1.051,1.551H62.465z"/>
	</g>
	<path display="none" opacity="0.05" fill="#FF0000" d="M46.67,46.235c0,2.464-9.054,4.462-20.223,4.462S6.225,48.699,6.225,46.235
		h0V8.449h0c0-2.464,9.054-4.462,20.223-4.462S46.67,5.985,46.67,8.449h0L46.67,46.235L46.67,46.235z"/>
	<g>
		<path fill="#FF00FF" d="M30.75,27.611l2.002-3.343h0.13l0.66,3.343H30.75z M32.531,24.978l-1.276,2.162h1.712L32.531,24.978z"/>
		<path fill="#FF00FF" d="M35.767,27.081c-0.325,0.43-0.676,0.585-1.026,0.585c-0.406,0-0.641-0.331-0.641-0.861
			c0-1.076,0.565-1.962,1.111-2.377c0.22-0.165,0.411-0.21,0.611-0.21c0.355,0,0.616,0.24,0.616,0.836
			C36.438,25.865,36.137,26.585,35.767,27.081z M34.666,26.034c-0.095,0.25-0.145,0.511-0.145,0.826c0,0.446,0.095,0.701,0.28,0.701
			c0.48,0,0.911-1.036,1.031-1.527H34.666z M35.867,25.874c0.085-0.29,0.15-0.65,0.15-1.026c0-0.32-0.09-0.525-0.265-0.525
			c-0.435,0-0.926,1.106-1.051,1.551H35.867z"/>
	</g>
	<line fill="none" stroke="#0000FF" stroke-width="0.1" stroke-miterlimit="10" x1="25.839" y1="46.378" x2="42.169" y2="49.009"/>
	<g>
		<path fill="#0000FF" d="M32.42,49.455c-0.375,0.456-0.496,0.55-0.696,0.55c-0.14,0-0.2-0.06-0.2-0.205
			c0-0.125,0.01-0.165,0.115-0.575c-0.375,0.565-0.666,0.786-1.016,0.786c-0.28,0-0.5-0.2-0.5-0.581
			c0-0.776,0.766-1.682,1.432-1.682c0.215,0,0.36,0.105,0.4,0.29l0.055-0.24l0.015-0.015l0.306-0.035l0.035,0.015
			c-0.01,0.045-0.015,0.055-0.03,0.105c-0.235,0.855-0.445,1.717-0.445,1.816c0,0.035,0.03,0.065,0.07,0.065
			c0.045,0,0.11-0.04,0.26-0.205l0.135-0.146L32.42,49.455z M31.584,47.858c-0.225,0-0.445,0.155-0.655,0.46
			c-0.21,0.315-0.386,0.761-0.386,1.076c0,0.275,0.12,0.37,0.3,0.37c0.25,0,0.486-0.275,0.636-0.49
			c0.235-0.34,0.385-0.771,0.385-1.126C31.864,47.973,31.759,47.858,31.584,47.858z"/>
	</g>
</g>
<g id="n">
	<g>
		<path fill="#00B200" d="M56.834,24.416c-0.34,0.465-0.465,0.565-0.7,0.565c-0.125,0-0.235-0.08-0.235-0.27
			c0-0.05,0.01-0.115,0.08-0.375l0.22-0.811c0.04-0.155,0.07-0.335,0.07-0.395c0-0.09-0.045-0.145-0.12-0.145
			c-0.2,0-0.425,0.245-0.741,0.71c-0.225,0.335-0.265,0.451-0.5,1.241h-0.375l0.48-1.751c0.005-0.025,0.01-0.055,0.01-0.085
			c0-0.1-0.07-0.13-0.325-0.135v-0.08c0.405-0.08,0.545-0.1,0.811-0.155l0.02,0.01l-0.335,1.091
			c0.501-0.801,0.836-1.101,1.156-1.101c0.215,0,0.325,0.125,0.325,0.305c0,0.09-0.02,0.195-0.05,0.3l-0.28,1.016
			c-0.05,0.18-0.07,0.265-0.07,0.305c0,0.045,0.021,0.09,0.08,0.09c0.07,0,0.16-0.08,0.306-0.266c0.035-0.04,0.07-0.085,0.105-0.13
			L56.834,24.416z"/>
	</g>
	<g>
		<path fill="#00B200" d="M56.471,22.073l-0.715-1.446H55.75l-0.71,1.446h-0.34l0.906-1.827h0.3l0.906,1.827H56.471z"/>
	</g>
	<g>
		<g>
			<g>
				
					<line fill="none" stroke="#00A300" stroke-width="0.3" stroke-miterlimit="10" x1="43.044" y1="21.545" x2="53.349" y2="22.628"/>
				<g>
					<polygon fill="#00A300" points="52.232,23.744 52.051,23.504 53.234,22.616 52.262,21.501 52.488,21.304 53.672,22.662 					
						"/>
				</g>
			</g>
		</g>
		
			<polyline fill="none" stroke="#00A300" stroke-width="0.1" stroke-linecap="round" stroke-linejoin="round" stroke-miterlimit="10" points="
			44.049,21.65 43.955,22.481 43.955,22.481 43.032,22.362 		"/>
		<g>
			<g>
				
					<line fill="none" stroke="#00A300" stroke-width="0.3" stroke-miterlimit="10" stroke-dasharray="2,2" x1="42.619" y1="21.507" x2="32.315" y2="20.424"/>
				<g>
					<polygon fill="#00A300" points="33.432,19.308 33.613,19.548 32.43,20.436 33.402,21.551 33.176,21.748 31.992,20.39 					"/>
				</g>
			</g>
		</g>
		
			<line fill="none" stroke="#00A300" stroke-width="0.1" stroke-miterlimit="10" stroke-dasharray="2,2" x1="42.62" y1="21.507" x2="25.84" y2="19.744"/>
		
			<line fill="none" stroke="#FF00FF" stroke-width="0.1" stroke-miterlimit="10" stroke-dasharray="1" x1="44.124" y1="19.366" x2="25.84" y2="18.176"/>
		
			<line fill="none" stroke="#FF00FF" stroke-width="0.1" stroke-miterlimit="10" stroke-dasharray="1" x1="41.539" y1="20.27" x2="25.84" y2="18.176"/>
		
			<line fill="none" stroke="#FF00FF" stroke-width="0.1" stroke-miterlimit="10" stroke-dasharray="1" x1="44.124" y1="22.715" x2="25.84" y2="21.526"/>
		
			<line fill="none" stroke="#FF00FF" stroke-width="0.1" stroke-miterlimit="10" stroke-dasharray="1" x1="41.539" y1="23.62" x2="25.84" y2="21.526"/>
	</g>
	<g>
	</g>
	<g>
	</g>
</g>
</svg>
