<?xml version="1.0" encoding="utf-8"?>
<!-- Generator: Adobe Illustrator 25.4.1, SVG Export Plug-In . SVG Version: 6.00 Build 0)  -->
<svg version="1.1" xmlns="http://www.w3.org/2000/svg" xmlns:xlink="http://www.w3.org/1999/xlink" x="0px" y="0px"
	 viewBox="0 0 38.415 26.245" enable-background="new 0 0 38.415 26.245" xml:space="preserve">
<g id="Graph_paper_slanted" opacity="0.5">
	<g id="Clipped_grid_00000003068028900943026870000011536296927355263674_">
		<defs>
			<polygon id="SVGID_1_" points="32.423,68.832 -78.476,68.832 -20.146,10.502 90.753,10.502 			"/>
		</defs>
		<clipPath id="SVGID_00000005262733791578955610000002901878271643203248_">
			<use xlink:href="#SVGID_1_"  overflow="visible"/>
		</clipPath>
		
			<g id="Grid_00000142891597197125820610000009767860333217090727_" opacity="0.25" clip-path="url(#SVGID_00000005262733791578955610000002901878271643203248_)">
			<g id="Horizontal_1_mm_00000151508609497893311650000018408800186222605470_">
				
					<line fill="none" stroke="#00ABEB" stroke-width="0.15" stroke-miterlimit="10" x1="-49.676" y1="-18.637" x2="177.165" y2="-18.637"/>
				
					<line fill="none" stroke="#00ABEB" stroke-width="0.15" stroke-miterlimit="10" x1="-47.688" y1="-20.625" x2="179.153" y2="-20.625"/>
				
					<line fill="none" stroke="#00ABEB" stroke-width="0.15" stroke-miterlimit="10" x1="-166.964" y1="98.651" x2="59.876" y2="98.651"/>
				
					<line fill="none" stroke="#00ABEB" stroke-width="0.15" stroke-miterlimit="10" x1="-164.976" y1="96.663" x2="61.865" y2="96.663"/>
				
					<line fill="none" stroke="#00ABEB" stroke-width="0.15" stroke-miterlimit="10" x1="-162.989" y1="94.676" x2="63.852" y2="94.676"/>
				
					<line fill="none" stroke="#00ABEB" stroke-width="0.15" stroke-miterlimit="10" x1="-161.001" y1="92.687" x2="65.84" y2="92.687"/>
				
					<line fill="none" stroke="#00ABEB" stroke-width="0.15" stroke-miterlimit="10" x1="-159.012" y1="90.699" x2="67.828" y2="90.699"/>
				
					<line fill="none" stroke="#00ABEB" stroke-width="0.15" stroke-miterlimit="10" x1="-157.025" y1="88.712" x2="69.816" y2="88.712"/>
				
					<line fill="none" stroke="#00ABEB" stroke-width="0.15" stroke-miterlimit="10" x1="-155.037" y1="86.724" x2="71.804" y2="86.724"/>
				
					<line fill="none" stroke="#00ABEB" stroke-width="0.15" stroke-miterlimit="10" x1="-153.049" y1="84.736" x2="73.791" y2="84.736"/>
				
					<line fill="none" stroke="#00ABEB" stroke-width="0.15" stroke-miterlimit="10" x1="-151.061" y1="82.748" x2="75.78" y2="82.748"/>
				
					<line fill="none" stroke="#00ABEB" stroke-width="0.15" stroke-miterlimit="10" x1="-149.073" y1="80.76" x2="77.768" y2="80.76"/>
				
					<line fill="none" stroke="#00ABEB" stroke-width="0.15" stroke-miterlimit="10" x1="-147.085" y1="78.772" x2="79.756" y2="78.772"/>
				
					<line fill="none" stroke="#00ABEB" stroke-width="0.15" stroke-miterlimit="10" x1="-145.097" y1="76.784" x2="81.744" y2="76.784"/>
				
					<line fill="none" stroke="#00ABEB" stroke-width="0.15" stroke-miterlimit="10" x1="-143.109" y1="74.796" x2="83.732" y2="74.796"/>
				
					<line fill="none" stroke="#00ABEB" stroke-width="0.15" stroke-miterlimit="10" x1="-141.121" y1="72.808" x2="85.719" y2="72.808"/>
				
					<line fill="none" stroke="#00ABEB" stroke-width="0.15" stroke-miterlimit="10" x1="-139.133" y1="70.82" x2="87.708" y2="70.82"/>
				
					<line fill="none" stroke="#00ABEB" stroke-width="0.15" stroke-miterlimit="10" x1="-137.145" y1="68.832" x2="89.696" y2="68.832"/>
				
					<line fill="none" stroke="#00ABEB" stroke-width="0.15" stroke-miterlimit="10" x1="-135.158" y1="66.845" x2="91.683" y2="66.845"/>
				
					<line fill="none" stroke="#00ABEB" stroke-width="0.15" stroke-miterlimit="10" x1="-133.169" y1="64.856" x2="93.671" y2="64.856"/>
				
					<line fill="none" stroke="#00ABEB" stroke-width="0.15" stroke-miterlimit="10" x1="-131.181" y1="62.868" x2="95.66" y2="62.868"/>
				
					<line fill="none" stroke="#00ABEB" stroke-width="0.15" stroke-miterlimit="10" x1="-129.194" y1="60.881" x2="97.647" y2="60.881"/>
				
					<line fill="none" stroke="#00ABEB" stroke-width="0.15" stroke-miterlimit="10" x1="-127.206" y1="58.893" x2="99.635" y2="58.893"/>
				
					<line fill="none" stroke="#00ABEB" stroke-width="0.15" stroke-miterlimit="10" x1="-125.217" y1="56.904" x2="101.624" y2="56.904"/>
				
					<line fill="none" stroke="#00ABEB" stroke-width="0.15" stroke-miterlimit="10" x1="-123.23" y1="54.917" x2="103.611" y2="54.917"/>
				
					<line fill="none" stroke="#00ABEB" stroke-width="0.15" stroke-miterlimit="10" x1="-121.241" y1="52.928" x2="105.599" y2="52.928"/>
				
					<line fill="none" stroke="#00ABEB" stroke-width="0.15" stroke-miterlimit="10" x1="-119.254" y1="50.941" x2="107.587" y2="50.941"/>
				
					<line fill="none" stroke="#00ABEB" stroke-width="0.15" stroke-miterlimit="10" x1="-117.266" y1="48.953" x2="109.575" y2="48.953"/>
				
					<line fill="none" stroke="#00ABEB" stroke-width="0.15" stroke-miterlimit="10" x1="-115.278" y1="46.965" x2="111.563" y2="46.965"/>
				
					<line fill="none" stroke="#00ABEB" stroke-width="0.15" stroke-miterlimit="10" x1="-113.29" y1="44.977" x2="113.551" y2="44.977"/>
				
					<line fill="none" stroke="#00ABEB" stroke-width="0.15" stroke-miterlimit="10" x1="-111.302" y1="42.989" x2="115.539" y2="42.989"/>
				
					<line fill="none" stroke="#00ABEB" stroke-width="0.15" stroke-miterlimit="10" x1="-109.314" y1="41.001" x2="117.527" y2="41.001"/>
				
					<line fill="none" stroke="#00ABEB" stroke-width="0.15" stroke-miterlimit="10" x1="-107.326" y1="39.013" x2="119.515" y2="39.013"/>
				
					<line fill="none" stroke="#00ABEB" stroke-width="0.15" stroke-miterlimit="10" x1="-105.338" y1="37.025" x2="121.503" y2="37.025"/>
				
					<line fill="none" stroke="#00ABEB" stroke-width="0.15" stroke-miterlimit="10" x1="-103.35" y1="35.037" x2="123.491" y2="35.037"/>
				
					<line fill="none" stroke="#00ABEB" stroke-width="0.15" stroke-miterlimit="10" x1="-101.363" y1="33.05" x2="125.478" y2="33.05"/>
				
					<line fill="none" stroke="#00ABEB" stroke-width="0.15" stroke-miterlimit="10" x1="-99.374" y1="31.061" x2="127.467" y2="31.061"/>
				
					<line fill="none" stroke="#00ABEB" stroke-width="0.15" stroke-miterlimit="10" x1="-97.386" y1="29.073" x2="129.455" y2="29.073"/>
				
					<line fill="none" stroke="#00ABEB" stroke-width="0.15" stroke-miterlimit="10" x1="-95.399" y1="27.086" x2="131.442" y2="27.086"/>
				
					<line fill="none" stroke="#00ABEB" stroke-width="0.15" stroke-miterlimit="10" x1="-93.411" y1="25.098" x2="133.43" y2="25.098"/>
				
					<line fill="none" stroke="#00ABEB" stroke-width="0.15" stroke-miterlimit="10" x1="-91.422" y1="23.11" x2="135.418" y2="23.11"/>
				
					<line fill="none" stroke="#00ABEB" stroke-width="0.15" stroke-miterlimit="10" x1="-89.435" y1="21.122" x2="137.406" y2="21.122"/>
				
					<line fill="none" stroke="#00ABEB" stroke-width="0.15" stroke-miterlimit="10" x1="-87.446" y1="19.134" x2="139.395" y2="19.134"/>
				
					<line fill="none" stroke="#00ABEB" stroke-width="0.15" stroke-miterlimit="10" x1="-85.459" y1="17.146" x2="141.382" y2="17.146"/>
				
					<line fill="none" stroke="#00ABEB" stroke-width="0.15" stroke-miterlimit="10" x1="-83.471" y1="15.158" x2="143.37" y2="15.158"/>
				
					<line fill="none" stroke="#00ABEB" stroke-width="0.15" stroke-miterlimit="10" x1="-81.483" y1="13.17" x2="145.358" y2="13.17"/>
				
					<line fill="none" stroke="#00ABEB" stroke-width="0.15" stroke-miterlimit="10" x1="-79.495" y1="11.182" x2="147.346" y2="11.182"/>
				
					<line fill="none" stroke="#00ABEB" stroke-width="0.15" stroke-miterlimit="10" x1="-77.507" y1="9.194" x2="149.334" y2="9.194"/>
				
					<line fill="none" stroke="#00ABEB" stroke-width="0.15" stroke-miterlimit="10" x1="-75.519" y1="7.206" x2="151.322" y2="7.206"/>
				
					<line fill="none" stroke="#00ABEB" stroke-width="0.15" stroke-miterlimit="10" x1="-73.531" y1="5.219" x2="153.31" y2="5.219"/>
				
					<line fill="none" stroke="#00ABEB" stroke-width="0.15" stroke-miterlimit="10" x1="-71.543" y1="3.23" x2="155.298" y2="3.23"/>
				
					<line fill="none" stroke="#00ABEB" stroke-width="0.15" stroke-miterlimit="10" x1="-69.555" y1="1.242" x2="157.286" y2="1.242"/>
				
					<line fill="none" stroke="#00ABEB" stroke-width="0.15" stroke-miterlimit="10" x1="-67.567" y1="-0.745" x2="159.273" y2="-0.745"/>
				
					<line fill="none" stroke="#00ABEB" stroke-width="0.15" stroke-miterlimit="10" x1="-65.579" y1="-2.733" x2="161.262" y2="-2.733"/>
				
					<line fill="none" stroke="#00ABEB" stroke-width="0.15" stroke-miterlimit="10" x1="-63.591" y1="-4.722" x2="163.25" y2="-4.722"/>
				
					<line fill="none" stroke="#00ABEB" stroke-width="0.15" stroke-miterlimit="10" x1="-61.604" y1="-6.709" x2="165.237" y2="-6.709"/>
				
					<line fill="none" stroke="#00ABEB" stroke-width="0.15" stroke-miterlimit="10" x1="-59.615" y1="-8.697" x2="167.226" y2="-8.697"/>
				
					<line fill="none" stroke="#00ABEB" stroke-width="0.15" stroke-miterlimit="10" x1="-57.628" y1="-10.685" x2="169.213" y2="-10.685"/>
				
					<line fill="none" stroke="#00ABEB" stroke-width="0.15" stroke-miterlimit="10" x1="-55.639" y1="-12.673" x2="171.201" y2="-12.673"/>
				
					<line fill="none" stroke="#00ABEB" stroke-width="0.15" stroke-miterlimit="10" x1="-53.651" y1="-14.661" x2="173.19" y2="-14.661"/>
				
					<line fill="none" stroke="#00ABEB" stroke-width="0.15" stroke-miterlimit="10" x1="-51.664" y1="-16.649" x2="175.177" y2="-16.649"/>
			</g>
			<g id="Vertical_1_mm_00000181073523592228201180000012361058669048395659_">
				<g>
					
						<line fill="none" stroke="#00ABEB" stroke-width="0.15" stroke-miterlimit="10" x1="-166.88" y1="98.642" x2="-47.56" y2="-20.678"/>
				</g>
				
					<line fill="none" stroke="#00ABEB" stroke-width="0.15" stroke-miterlimit="10" x1="-164.046" y1="98.642" x2="-44.726" y2="-20.678"/>
				
					<line fill="none" stroke="#00ABEB" stroke-width="0.15" stroke-miterlimit="10" x1="-161.211" y1="98.642" x2="-41.891" y2="-20.678"/>
				
					<line fill="none" stroke="#00ABEB" stroke-width="0.15" stroke-miterlimit="10" x1="-158.376" y1="98.642" x2="-39.056" y2="-20.678"/>
				
					<line fill="none" stroke="#00ABEB" stroke-width="0.15" stroke-miterlimit="10" x1="-155.542" y1="98.642" x2="-36.222" y2="-20.678"/>
				
					<line fill="none" stroke="#00ABEB" stroke-width="0.15" stroke-miterlimit="10" x1="-152.707" y1="98.642" x2="-33.387" y2="-20.678"/>
				
					<line fill="none" stroke="#00ABEB" stroke-width="0.15" stroke-miterlimit="10" x1="-149.872" y1="98.642" x2="-30.552" y2="-20.678"/>
				
					<line fill="none" stroke="#00ABEB" stroke-width="0.15" stroke-miterlimit="10" x1="-147.038" y1="98.642" x2="-27.718" y2="-20.678"/>
				
					<line fill="none" stroke="#00ABEB" stroke-width="0.15" stroke-miterlimit="10" x1="-144.202" y1="98.642" x2="-24.882" y2="-20.678"/>
				
					<line fill="none" stroke="#00ABEB" stroke-width="0.15" stroke-miterlimit="10" x1="-141.368" y1="98.642" x2="-22.048" y2="-20.678"/>
				
					<line fill="none" stroke="#00ABEB" stroke-width="0.15" stroke-miterlimit="10" x1="-138.533" y1="98.642" x2="-19.213" y2="-20.678"/>
				
					<line fill="none" stroke="#00ABEB" stroke-width="0.15" stroke-miterlimit="10" x1="-135.698" y1="98.642" x2="-16.378" y2="-20.678"/>
				
					<line fill="none" stroke="#00ABEB" stroke-width="0.15" stroke-miterlimit="10" x1="-132.864" y1="98.642" x2="-13.544" y2="-20.678"/>
				
					<line fill="none" stroke="#00ABEB" stroke-width="0.15" stroke-miterlimit="10" x1="-130.03" y1="98.642" x2="-10.71" y2="-20.678"/>
				
					<line fill="none" stroke="#00ABEB" stroke-width="0.15" stroke-miterlimit="10" x1="-127.195" y1="98.642" x2="-7.875" y2="-20.678"/>
				
					<line fill="none" stroke="#00ABEB" stroke-width="0.15" stroke-miterlimit="10" x1="-124.361" y1="98.642" x2="-5.041" y2="-20.678"/>
				
					<line fill="none" stroke="#00ABEB" stroke-width="0.15" stroke-miterlimit="10" x1="-121.526" y1="98.642" x2="-2.206" y2="-20.678"/>
				
					<line fill="none" stroke="#00ABEB" stroke-width="0.15" stroke-miterlimit="10" x1="-118.691" y1="98.642" x2="0.629" y2="-20.678"/>
				
					<line fill="none" stroke="#00ABEB" stroke-width="0.15" stroke-miterlimit="10" x1="-115.857" y1="98.642" x2="3.463" y2="-20.678"/>
				
					<line fill="none" stroke="#00ABEB" stroke-width="0.15" stroke-miterlimit="10" x1="-113.022" y1="98.642" x2="6.298" y2="-20.678"/>
				
					<line fill="none" stroke="#00ABEB" stroke-width="0.15" stroke-miterlimit="10" x1="-110.187" y1="98.642" x2="9.133" y2="-20.678"/>
				
					<line fill="none" stroke="#00ABEB" stroke-width="0.15" stroke-miterlimit="10" x1="-107.353" y1="98.642" x2="11.967" y2="-20.678"/>
				
					<line fill="none" stroke="#00ABEB" stroke-width="0.15" stroke-miterlimit="10" x1="-104.518" y1="98.642" x2="14.802" y2="-20.678"/>
				
					<line fill="none" stroke="#00ABEB" stroke-width="0.15" stroke-miterlimit="10" x1="-101.683" y1="98.642" x2="17.637" y2="-20.678"/>
				
					<line fill="none" stroke="#00ABEB" stroke-width="0.15" stroke-miterlimit="10" x1="-98.848" y1="98.642" x2="20.472" y2="-20.678"/>
				
					<line fill="none" stroke="#00ABEB" stroke-width="0.15" stroke-miterlimit="10" x1="-96.013" y1="98.642" x2="23.307" y2="-20.678"/>
				
					<line fill="none" stroke="#00ABEB" stroke-width="0.15" stroke-miterlimit="10" x1="-93.179" y1="98.642" x2="26.141" y2="-20.678"/>
				
					<line fill="none" stroke="#00ABEB" stroke-width="0.15" stroke-miterlimit="10" x1="-90.344" y1="98.642" x2="28.976" y2="-20.678"/>
				
					<line fill="none" stroke="#00ABEB" stroke-width="0.15" stroke-miterlimit="10" x1="-87.509" y1="98.642" x2="31.811" y2="-20.678"/>
				
					<line fill="none" stroke="#00ABEB" stroke-width="0.15" stroke-miterlimit="10" x1="-84.676" y1="98.642" x2="34.644" y2="-20.678"/>
				
					<line fill="none" stroke="#00ABEB" stroke-width="0.15" stroke-miterlimit="10" x1="-81.841" y1="98.642" x2="37.479" y2="-20.678"/>
				
					<line fill="none" stroke="#00ABEB" stroke-width="0.15" stroke-miterlimit="10" x1="-79.006" y1="98.642" x2="40.314" y2="-20.678"/>
				
					<line fill="none" stroke="#00ABEB" stroke-width="0.15" stroke-miterlimit="10" x1="-76.172" y1="98.642" x2="43.148" y2="-20.678"/>
				
					<line fill="none" stroke="#00ABEB" stroke-width="0.15" stroke-miterlimit="10" x1="-73.337" y1="98.642" x2="45.983" y2="-20.678"/>
				
					<line fill="none" stroke="#00ABEB" stroke-width="0.15" stroke-miterlimit="10" x1="-70.502" y1="98.642" x2="48.818" y2="-20.678"/>
				
					<line fill="none" stroke="#00ABEB" stroke-width="0.15" stroke-miterlimit="10" x1="-67.668" y1="98.642" x2="51.652" y2="-20.678"/>
				
					<line fill="none" stroke="#00ABEB" stroke-width="0.15" stroke-miterlimit="10" x1="-64.833" y1="98.642" x2="54.487" y2="-20.678"/>
				
					<line fill="none" stroke="#00ABEB" stroke-width="0.15" stroke-miterlimit="10" x1="-61.998" y1="98.642" x2="57.322" y2="-20.678"/>
				
					<line fill="none" stroke="#00ABEB" stroke-width="0.15" stroke-miterlimit="10" x1="-59.164" y1="98.642" x2="60.156" y2="-20.678"/>
				
					<line fill="none" stroke="#00ABEB" stroke-width="0.15" stroke-miterlimit="10" x1="-56.329" y1="98.642" x2="62.991" y2="-20.678"/>
				
					<line fill="none" stroke="#00ABEB" stroke-width="0.15" stroke-miterlimit="10" x1="-53.495" y1="98.642" x2="65.825" y2="-20.678"/>
				
					<line fill="none" stroke="#00ABEB" stroke-width="0.15" stroke-miterlimit="10" x1="-50.659" y1="98.642" x2="68.661" y2="-20.678"/>
				
					<line fill="none" stroke="#00ABEB" stroke-width="0.15" stroke-miterlimit="10" x1="-47.824" y1="98.642" x2="71.496" y2="-20.678"/>
				
					<line fill="none" stroke="#00ABEB" stroke-width="0.15" stroke-miterlimit="10" x1="-44.99" y1="98.642" x2="74.33" y2="-20.678"/>
				
					<line fill="none" stroke="#00ABEB" stroke-width="0.15" stroke-miterlimit="10" x1="-42.155" y1="98.642" x2="77.165" y2="-20.678"/>
				
					<line fill="none" stroke="#00ABEB" stroke-width="0.15" stroke-miterlimit="10" x1="-39.321" y1="98.642" x2="79.999" y2="-20.678"/>
				
					<line fill="none" stroke="#00ABEB" stroke-width="0.15" stroke-miterlimit="10" x1="-36.487" y1="98.642" x2="82.833" y2="-20.678"/>
				
					<line fill="none" stroke="#00ABEB" stroke-width="0.15" stroke-miterlimit="10" x1="-33.652" y1="98.642" x2="85.668" y2="-20.678"/>
				
					<line fill="none" stroke="#00ABEB" stroke-width="0.15" stroke-miterlimit="10" x1="-30.817" y1="98.642" x2="88.503" y2="-20.678"/>
				
					<line fill="none" stroke="#00ABEB" stroke-width="0.15" stroke-miterlimit="10" x1="-27.983" y1="98.642" x2="91.337" y2="-20.678"/>
				
					<line fill="none" stroke="#00ABEB" stroke-width="0.15" stroke-miterlimit="10" x1="-25.148" y1="98.642" x2="94.172" y2="-20.678"/>
				
					<line fill="none" stroke="#00ABEB" stroke-width="0.15" stroke-miterlimit="10" x1="-22.313" y1="98.642" x2="97.007" y2="-20.678"/>
				
					<line fill="none" stroke="#00ABEB" stroke-width="0.15" stroke-miterlimit="10" x1="-19.479" y1="98.642" x2="99.841" y2="-20.678"/>
				
					<line fill="none" stroke="#00ABEB" stroke-width="0.15" stroke-miterlimit="10" x1="-16.644" y1="98.642" x2="102.676" y2="-20.678"/>
				
					<line fill="none" stroke="#00ABEB" stroke-width="0.15" stroke-miterlimit="10" x1="-13.809" y1="98.642" x2="105.511" y2="-20.678"/>
				
					<line fill="none" stroke="#00ABEB" stroke-width="0.15" stroke-miterlimit="10" x1="-10.975" y1="98.642" x2="108.345" y2="-20.678"/>
				
					<line fill="none" stroke="#00ABEB" stroke-width="0.15" stroke-miterlimit="10" x1="-8.139" y1="98.642" x2="111.181" y2="-20.678"/>
				
					<line fill="none" stroke="#00ABEB" stroke-width="0.15" stroke-miterlimit="10" x1="-5.305" y1="98.642" x2="114.015" y2="-20.678"/>
				
					<line fill="none" stroke="#00ABEB" stroke-width="0.15" stroke-miterlimit="10" x1="-2.47" y1="98.642" x2="116.85" y2="-20.678"/>
				
					<line fill="none" stroke="#00ABEB" stroke-width="0.15" stroke-miterlimit="10" x1="0.365" y1="98.642" x2="119.685" y2="-20.678"/>
				
					<line fill="none" stroke="#00ABEB" stroke-width="0.15" stroke-miterlimit="10" x1="3.199" y1="98.642" x2="122.519" y2="-20.678"/>
				
					<line fill="none" stroke="#00ABEB" stroke-width="0.15" stroke-miterlimit="10" x1="6.033" y1="98.642" x2="125.353" y2="-20.678"/>
				
					<line fill="none" stroke="#00ABEB" stroke-width="0.15" stroke-miterlimit="10" x1="8.868" y1="98.642" x2="128.188" y2="-20.678"/>
				
					<line fill="none" stroke="#00ABEB" stroke-width="0.15" stroke-miterlimit="10" x1="11.702" y1="98.642" x2="131.022" y2="-20.678"/>
				
					<line fill="none" stroke="#00ABEB" stroke-width="0.15" stroke-miterlimit="10" x1="14.537" y1="98.642" x2="133.857" y2="-20.678"/>
				
					<line fill="none" stroke="#00ABEB" stroke-width="0.15" stroke-miterlimit="10" x1="17.372" y1="98.642" x2="136.692" y2="-20.678"/>
				
					<line fill="none" stroke="#00ABEB" stroke-width="0.15" stroke-miterlimit="10" x1="20.206" y1="98.642" x2="139.526" y2="-20.678"/>
				
					<line fill="none" stroke="#00ABEB" stroke-width="0.15" stroke-miterlimit="10" x1="23.041" y1="98.642" x2="142.361" y2="-20.678"/>
				
					<line fill="none" stroke="#00ABEB" stroke-width="0.15" stroke-miterlimit="10" x1="25.876" y1="98.642" x2="145.196" y2="-20.678"/>
				
					<line fill="none" stroke="#00ABEB" stroke-width="0.15" stroke-miterlimit="10" x1="28.71" y1="98.642" x2="148.03" y2="-20.678"/>
				
					<line fill="none" stroke="#00ABEB" stroke-width="0.15" stroke-miterlimit="10" x1="31.545" y1="98.642" x2="150.865" y2="-20.678"/>
				
					<line fill="none" stroke="#00ABEB" stroke-width="0.15" stroke-miterlimit="10" x1="34.38" y1="98.642" x2="153.7" y2="-20.678"/>
				
					<line fill="none" stroke="#00ABEB" stroke-width="0.15" stroke-miterlimit="10" x1="37.215" y1="98.642" x2="156.535" y2="-20.678"/>
				
					<line fill="none" stroke="#00ABEB" stroke-width="0.15" stroke-miterlimit="10" x1="40.05" y1="98.642" x2="159.37" y2="-20.678"/>
				
					<line fill="none" stroke="#00ABEB" stroke-width="0.15" stroke-miterlimit="10" x1="42.884" y1="98.642" x2="162.204" y2="-20.678"/>
				
					<line fill="none" stroke="#00ABEB" stroke-width="0.15" stroke-miterlimit="10" x1="45.719" y1="98.642" x2="165.039" y2="-20.678"/>
				
					<line fill="none" stroke="#00ABEB" stroke-width="0.15" stroke-miterlimit="10" x1="48.554" y1="98.642" x2="167.874" y2="-20.678"/>
				
					<line fill="none" stroke="#00ABEB" stroke-width="0.15" stroke-miterlimit="10" x1="51.387" y1="98.642" x2="170.707" y2="-20.678"/>
				
					<line fill="none" stroke="#00ABEB" stroke-width="0.15" stroke-miterlimit="10" x1="54.222" y1="98.642" x2="173.542" y2="-20.678"/>
				
					<line fill="none" stroke="#00ABEB" stroke-width="0.15" stroke-miterlimit="10" x1="57.057" y1="98.642" x2="176.377" y2="-20.678"/>
				
					<line fill="none" stroke="#00ABEB" stroke-width="0.15" stroke-miterlimit="10" x1="59.891" y1="98.642" x2="179.211" y2="-20.678"/>
			</g>
			<g id="Horizontal_5_mm_00000011735556503592991880000008134099091165005186_">
				
					<line fill="none" stroke="#00ABEB" stroke-width="0.3" stroke-miterlimit="10" x1="-167.239" y1="98.651" x2="59.876" y2="98.651"/>
				
					<line fill="none" stroke="#00ABEB" stroke-width="0.3" stroke-miterlimit="10" x1="-157.3" y1="88.712" x2="69.816" y2="88.712"/>
				
					<line fill="none" stroke="#00ABEB" stroke-width="0.3" stroke-miterlimit="10" x1="-147.36" y1="78.772" x2="79.756" y2="78.772"/>
				
					<line fill="none" stroke="#00ABEB" stroke-width="0.3" stroke-miterlimit="10" x1="-137.42" y1="68.832" x2="89.696" y2="68.832"/>
				
					<line fill="none" stroke="#00ABEB" stroke-width="0.3" stroke-miterlimit="10" x1="-127.48" y1="58.893" x2="99.635" y2="58.893"/>
				
					<line fill="none" stroke="#00ABEB" stroke-width="0.3" stroke-miterlimit="10" x1="-117.541" y1="48.953" x2="109.575" y2="48.953"/>
				
					<line fill="none" stroke="#00ABEB" stroke-width="0.3" stroke-miterlimit="10" x1="-107.601" y1="39.013" x2="119.515" y2="39.013"/>
				
					<line fill="none" stroke="#00ABEB" stroke-width="0.3" stroke-miterlimit="10" x1="-97.661" y1="29.073" x2="129.455" y2="29.073"/>
				
					<line fill="none" stroke="#00ABEB" stroke-width="0.3" stroke-miterlimit="10" x1="-87.721" y1="19.134" x2="139.395" y2="19.134"/>
				
					<line fill="none" stroke="#00ABEB" stroke-width="0.3" stroke-miterlimit="10" x1="-77.782" y1="9.194" x2="149.334" y2="9.194"/>
				
					<line fill="none" stroke="#00ABEB" stroke-width="0.3" stroke-miterlimit="10" x1="-67.842" y1="-0.745" x2="159.273" y2="-0.745"/>
			</g>
			<g id="Vertical_5_mm_00000064346364918789686960000003233481195482251947_">
				
					<line fill="none" stroke="#00ABEB" stroke-width="0.3" stroke-miterlimit="10" x1="-166.88" y1="98.642" x2="-47.367" y2="-20.871"/>
				
					<line fill="none" stroke="#00ABEB" stroke-width="0.3" stroke-miterlimit="10" x1="-152.707" y1="98.642" x2="-33.194" y2="-20.871"/>
				
					<line fill="none" stroke="#00ABEB" stroke-width="0.3" stroke-miterlimit="10" x1="-138.533" y1="98.642" x2="-19.021" y2="-20.871"/>
				
					<line fill="none" stroke="#00ABEB" stroke-width="0.3" stroke-miterlimit="10" x1="-124.361" y1="98.642" x2="-4.848" y2="-20.871"/>
				
					<line fill="none" stroke="#00ABEB" stroke-width="0.3" stroke-miterlimit="10" x1="-110.187" y1="98.642" x2="9.326" y2="-20.871"/>
				
					<line fill="none" stroke="#00ABEB" stroke-width="0.3" stroke-miterlimit="10" x1="-96.013" y1="98.642" x2="23.499" y2="-20.871"/>
				
					<line fill="none" stroke="#00ABEB" stroke-width="0.3" stroke-miterlimit="10" x1="-81.841" y1="98.642" x2="37.672" y2="-20.871"/>
				
					<line fill="none" stroke="#00ABEB" stroke-width="0.3" stroke-miterlimit="10" x1="-67.668" y1="98.642" x2="51.845" y2="-20.871"/>
				
					<line fill="none" stroke="#00ABEB" stroke-width="0.3" stroke-miterlimit="10" x1="-53.495" y1="98.642" x2="66.018" y2="-20.871"/>
				
					<line fill="none" stroke="#00ABEB" stroke-width="0.3" stroke-miterlimit="10" x1="-39.321" y1="98.642" x2="80.192" y2="-20.871"/>
				
					<line fill="none" stroke="#00ABEB" stroke-width="0.3" stroke-miterlimit="10" x1="-25.148" y1="98.642" x2="94.365" y2="-20.871"/>
				
					<line fill="none" stroke="#00ABEB" stroke-width="0.3" stroke-miterlimit="10" x1="-10.975" y1="98.642" x2="108.538" y2="-20.871"/>
				
					<line fill="none" stroke="#00ABEB" stroke-width="0.3" stroke-miterlimit="10" x1="3.199" y1="98.642" x2="122.711" y2="-20.871"/>
				
					<line fill="none" stroke="#00ABEB" stroke-width="0.3" stroke-miterlimit="10" x1="17.372" y1="98.642" x2="136.885" y2="-20.871"/>
				
					<line fill="none" stroke="#00ABEB" stroke-width="0.3" stroke-miterlimit="10" x1="31.545" y1="98.642" x2="151.058" y2="-20.871"/>
				
					<line fill="none" stroke="#00ABEB" stroke-width="0.3" stroke-miterlimit="10" x1="45.719" y1="98.642" x2="165.231" y2="-20.871"/>
				
					<line fill="none" stroke="#00ABEB" stroke-width="0.3" stroke-miterlimit="10" x1="59.891" y1="98.642" x2="179.404" y2="-20.871"/>
			</g>
			<g id="Horizontal_10_mm_00000163045836177147705350000008480455355013810362_">
				
					<line id="_x31_9_00000057116790517712807720000015084113881736219806_" fill="none" stroke="#00ABEB" stroke-width="0.7" stroke-miterlimit="10" x1="-167.239" y1="98.651" x2="59.876" y2="98.651"/>
				
					<line id="_x32_0_00000024685878617286333290000013167547815532084100_" fill="none" stroke="#00ABEB" stroke-width="0.7" stroke-miterlimit="10" x1="-147.36" y1="78.772" x2="79.756" y2="78.772"/>
				
					<line id="_x32_1_00000138564813020868535020000012777939180148238773_" fill="none" stroke="#00ABEB" stroke-width="0.7" stroke-miterlimit="10" x1="-127.48" y1="58.893" x2="99.635" y2="58.893"/>
				
					<line id="_x32_2_00000052807586205252870140000014502512662559454639_" fill="none" stroke="#00ABEB" stroke-width="0.7" stroke-miterlimit="10" x1="-107.601" y1="39.013" x2="119.515" y2="39.013"/>
				
					<line id="_x32_3_00000051376893246677475670000009295515732899575694_" fill="none" stroke="#00ABEB" stroke-width="0.7" stroke-miterlimit="10" x1="-87.721" y1="19.134" x2="139.395" y2="19.134"/>
				
					<line id="_x32_4_00000099657911357833521510000007853591198542098087_" fill="none" stroke="#00ABEB" stroke-width="0.7" stroke-miterlimit="10" x1="-67.842" y1="-0.745" x2="159.273" y2="-0.745"/>
				
					<line id="_x32_5_00000155127691660191171140000008292164438978366870_" fill="none" stroke="#00ABEB" stroke-width="0.7" stroke-miterlimit="10" x1="-47.962" y1="-20.625" x2="179.153" y2="-20.625"/>
			</g>
			<g id="Vertical_10_mm_00000134969164297783457920000010833503864539426239_">
				
					<line id="_x30__00000151539528360119995570000005083818057555393183_" fill="none" stroke="#00ABEB" stroke-width="0.7" stroke-miterlimit="10" x1="-166.88" y1="98.642" x2="-47.367" y2="-20.871"/>
				
					<line id="_x31__00000021823889366233599640000011971139016478256513_" fill="none" stroke="#00ABEB" stroke-width="0.7" stroke-miterlimit="10" x1="-138.533" y1="98.642" x2="-19.021" y2="-20.871"/>
				
					<line id="_x32__00000071550223824624162640000006130814236846722696_" fill="none" stroke="#00ABEB" stroke-width="0.7" stroke-miterlimit="10" x1="-110.187" y1="98.642" x2="9.326" y2="-20.871"/>
				
					<line id="_x33__00000042015976804734918030000005045165563697445304_" fill="none" stroke="#00ABEB" stroke-width="0.7" stroke-miterlimit="10" x1="-81.841" y1="98.642" x2="37.672" y2="-20.871"/>
				
					<line id="_x34__00000081637789328126233800000002486991317463304126_" fill="none" stroke="#00ABEB" stroke-width="0.7" stroke-miterlimit="10" x1="-53.495" y1="98.642" x2="66.018" y2="-20.871"/>
				
					<line id="_x35__00000051353690731882489090000004794744233340785543_" fill="none" stroke="#00ABEB" stroke-width="0.7" stroke-miterlimit="10" x1="-25.148" y1="98.642" x2="94.365" y2="-20.871"/>
				
					<line id="_x36__00000011745311307505536660000010485558803267122343_" fill="none" stroke="#00ABEB" stroke-width="0.7" stroke-miterlimit="10" x1="3.199" y1="98.642" x2="122.711" y2="-20.871"/>
				
					<line id="_x37__00000045602144989735358580000003937589459941247142_" fill="none" stroke="#00ABEB" stroke-width="0.7" stroke-miterlimit="10" x1="31.545" y1="98.642" x2="151.058" y2="-20.871"/>
				
					<line id="_x38__00000047029857857898873560000014194396358708286345_" fill="none" stroke="#00ABEB" stroke-width="0.7" stroke-miterlimit="10" x1="59.891" y1="98.642" x2="179.404" y2="-20.871"/>
			</g>
		</g>
	</g>
</g>
<g id="Axis">
	<g id="lines">
		<g>
			<g>
				
					<line fill="none" stroke="#000000" stroke-width="0.1" stroke-miterlimit="10" x1="4.615" y1="39.003" x2="45.209" y2="39.003"/>
				<g>
					<polygon points="44.928,39.374 45.085,39.003 44.928,38.633 45.806,39.003 					"/>
				</g>
			</g>
		</g>
		<g>
			<g>
				
					<line fill="none" stroke="#000000" stroke-width="0.1" stroke-miterlimit="10" x1="4.615" y1="39.003" x2="-10.242" y2="53.861"/>
				<g>
					<polygon points="-10.306,53.401 -10.155,53.774 -9.782,53.924 -10.665,54.283 					"/>
				</g>
			</g>
		</g>
		<g>
			<g>
				<line fill="none" stroke="#000000" stroke-width="0.1" stroke-miterlimit="10" x1="4.615" y1="17.374" x2="4.615" y2="2.086"/>
				<g>
					<polygon points="4.985,2.367 4.615,2.21 4.245,2.367 4.615,1.489 					"/>
				</g>
			</g>
		</g>
		<line fill="none" stroke="#000000" stroke-width="0.1" stroke-miterlimit="10" x1="4.615" y1="39.004" x2="4.615" y2="23.08"/>
		<g>
			<g>
				<line fill="none" stroke="#000000" stroke-width="0.1" stroke-miterlimit="10" x1="4.615" y1="23.08" x2="4.615" y2="22.08"/>
				
					<line fill="none" stroke="#000000" stroke-width="0.1" stroke-miterlimit="10" stroke-dasharray="1.0749,1.0749" x1="4.615" y1="21.005" x2="4.615" y2="19.393"/>
				<line fill="none" stroke="#000000" stroke-width="0.1" stroke-miterlimit="10" x1="4.615" y1="18.855" x2="4.615" y2="17.855"/>
			</g>
		</g>
	</g>
	<g id="names">
		<g>
			<path d="M46.861,42.1c0.339-0.564,0.487-0.852,0.487-1.027c0-0.056-0.028-0.08-0.104-0.128c-0.08-0.052-0.104-0.092-0.104-0.156
				c0-0.088,0.068-0.148,0.16-0.148c0.12,0,0.208,0.1,0.208,0.22c0,0.228-0.192,0.667-0.524,1.219
				c-0.416,0.688-0.843,1.147-1.071,1.147c-0.12,0-0.204-0.068-0.204-0.172c0-0.088,0.068-0.16,0.156-0.16
				c0.14,0,0.14,0.112,0.244,0.112c0.052,0,0.1-0.032,0.192-0.132c0.072-0.076,0.252-0.312,0.284-0.364
				c0.024-0.048,0.04-0.096,0.04-0.14c0-0.16-0.22-1.055-0.328-1.327c-0.076-0.196-0.148-0.256-0.308-0.256
				c-0.044,0-0.08,0.004-0.124,0.016v-0.068c0.044-0.008,0.088-0.016,0.128-0.024c0.08-0.016,0.212-0.04,0.428-0.072h0.016
				c0.06,0,0.271,0.664,0.34,1.02L46.861,42.1z"/>
		</g>
		<g>
			<path d="M1.468,3.24c0.232,0.052,0.32,0.096,0.48,0.332c0.104,0.152,0.18,0.2,0.28,0.2c0.064,0,0.108-0.024,0.108-0.06
				c0-0.016-0.008-0.036-0.02-0.06C2.292,3.604,2.284,3.572,2.284,3.54c0.004-0.068,0.068-0.136,0.132-0.136
				c0.083,0,0.14,0.06,0.14,0.148c0,0.16-0.148,0.304-0.372,0.304c-0.116,0-0.252-0.052-0.452-0.176
				C1.545,3.565,1.417,3.512,1.313,3.512c-0.064,0-0.116,0.02-0.18,0.072L1.097,3.548l1.239-1.487H1.792
				c-0.208,0-0.284,0.036-0.364,0.24L1.364,2.285l0.128-0.464h1.131v0.044L1.468,3.24z"/>
		</g>
		<g>
			<path d="M-13.43,53.176c0.28-0.428,0.428-0.572,0.604-0.572c0.096,0,0.164,0.06,0.164,0.148c0,0.084-0.056,0.144-0.136,0.144
				c-0.076,0-0.112-0.068-0.208-0.068c-0.072,0-0.216,0.176-0.392,0.483c0,0.028,0.008,0.084,0.032,0.18l0.128,0.536
				c0.028,0.112,0.064,0.164,0.12,0.164c0.052,0,0.096-0.04,0.188-0.16c0.036-0.048,0.052-0.072,0.084-0.112l0.06,0.036
				c-0.232,0.36-0.336,0.456-0.488,0.456c-0.128,0-0.188-0.072-0.236-0.272l-0.116-0.476l-0.352,0.476
				c-0.176,0.236-0.256,0.272-0.38,0.272s-0.2-0.064-0.2-0.168c0-0.08,0.056-0.144,0.136-0.144c0.036,0,0.076,0.016,0.128,0.044
				c0.04,0.024,0.08,0.036,0.104,0.036c0.044,0,0.12-0.076,0.204-0.196l0.328-0.464l-0.112-0.496
				c-0.056-0.24-0.084-0.272-0.184-0.272c-0.032,0-0.08,0.008-0.156,0.028l-0.072,0.02l-0.012-0.063l0.044-0.016
				c0.244-0.088,0.376-0.116,0.468-0.116c0.1,0,0.148,0.072,0.204,0.344L-13.43,53.176z"/>
		</g>
	</g>
</g>
<g id="Layer_6">
	<path opacity="0.05" fill="#FF0000" d="M36.191,24.959l8.545-12.851c-18.428,12.965-20.649-8.344-40.715,0.35l-8.545,12.851
		C15.541,16.615,17.763,37.924,36.191,24.959z"/>
	<path fill="none" stroke="#FF0000" stroke-width="0.2" stroke-linecap="round" stroke-linejoin="round" stroke-miterlimit="10" d="
		M35.897,24.959l8.545-12.851c-18.428,12.965-20.649-8.344-40.715,0.35l-8.545,12.851C15.248,16.615,17.47,37.924,35.897,24.959z"/>
	<g>
		<path fill="#FF0000" d="M8.85,17.855l0.982-1.672h0.064l0.324,1.672H8.85z M9.724,16.539L9.098,17.62h0.84L9.724,16.539z"/>
		<path fill="#FF0000" d="M11.576,16.687l-0.044-0.008c0-0.255-0.054-0.408-0.292-0.408c-0.169,0-0.275,0.093-0.275,0.25
			c0,0.123,0.02,0.163,0.243,0.391c0.224,0.23,0.277,0.338,0.277,0.5c0,0.285-0.213,0.488-0.496,0.488
			c-0.076,0-0.143-0.018-0.255-0.058c-0.066-0.025-0.088-0.03-0.116-0.03c-0.049,0-0.088,0.022-0.105,0.08h-0.044l0.083-0.561
			l0.049,0.005c-0.005,0.022-0.005,0.04-0.005,0.058c0,0.245,0.147,0.418,0.354,0.418c0.189,0,0.322-0.13,0.322-0.32
			c0-0.108-0.035-0.183-0.147-0.308l-0.096-0.105c-0.035-0.038-0.064-0.072-0.096-0.105c-0.147-0.16-0.184-0.24-0.184-0.375
			c0-0.263,0.202-0.41,0.438-0.41c0.076,0,0.157,0.012,0.208,0.035c0.052,0.021,0.081,0.028,0.113,0.028
			c0.054,0,0.076-0.013,0.11-0.065h0.057L11.576,16.687z"/>
	</g>
	<g>
		<path d="M19.461,46.093c0.518,0,0.8,0.224,0.8,0.563c0,0.192-0.098,0.388-0.259,0.512c-0.122,0.096-0.251,0.144-0.514,0.204
			l0.349,0.939c0.086,0.236,0.165,0.328,0.341,0.328v0.064h-0.577l-0.482-1.295l-0.259-0.02L18.645,48.2
			c-0.043,0.156-0.051,0.212-0.051,0.252c0,0.12,0.039,0.164,0.263,0.188v0.064h-0.953V48.64c0.215-0.028,0.271-0.104,0.333-0.34
			l0.467-1.723c0.027-0.108,0.047-0.184,0.047-0.252c0-0.044-0.027-0.092-0.055-0.112c-0.043-0.028-0.059-0.032-0.224-0.056v-0.064
			H19.461z M18.908,47.24c0.098,0.016,0.129,0.02,0.2,0.02c0.467,0,0.741-0.228,0.741-0.6c0-0.276-0.165-0.448-0.471-0.448
			c-0.122,0-0.204,0.044-0.223,0.12L18.908,47.24z"/>
	</g>
</g>
<g id="Layer_4" display="none">
	
		<path display="inline" fill="none" stroke="#000000" stroke-width="0.1" stroke-linecap="round" stroke-linejoin="round" stroke-miterlimit="10" d="
		M36.041,54.981"/>
	
		<path display="inline" fill="none" stroke="#000000" stroke-width="0.1" stroke-linecap="round" stroke-linejoin="round" stroke-miterlimit="10" d="
		M36.041,24.65"/>
	
		<path display="inline" opacity="0.05" stroke="#FF0000" stroke-width="0.5" stroke-linecap="round" stroke-linejoin="round" stroke-miterlimit="10" d="
		M36.041,51.813l8.4-9.597c-17.835,9.351-21.793-5.272-40.784,0.581l-8.475,8.522C14.173,45.465,17.326,58.078,36.041,51.813z"/>
	
		<path display="inline" opacity="0.5" fill="none" stroke="#000000" stroke-width="0.2" stroke-linecap="round" stroke-linejoin="round" stroke-miterlimit="10" d="
		M36.041,51.813l8.4-9.597c-17.835,9.351-21.793-5.272-40.784,0.581l-8.475,8.522C14.173,45.465,17.326,58.078,36.041,51.813z"/>
	<g display="inline" opacity="0.5">
		<g opacity="0.5">
			<g>
				
					<line fill="none" stroke="#000000" stroke-width="0.1" stroke-linecap="round" stroke-linejoin="round" x1="3.656" y1="12.466" x2="3.656" y2="13.466"/>
				
					<line fill="none" stroke="#000000" stroke-width="0.1" stroke-linecap="round" stroke-linejoin="round" stroke-dasharray="1.8887,1.8887" x1="3.656" y1="15.354" x2="3.656" y2="40.852"/>
				
					<line fill="none" stroke="#000000" stroke-width="0.1" stroke-linecap="round" stroke-linejoin="round" x1="3.656" y1="41.797" x2="3.656" y2="42.797"/>
			</g>
		</g>
		<g opacity="0.5">
			<g>
				
					<line fill="none" stroke="#000000" stroke-width="0.1" stroke-linecap="round" stroke-linejoin="round" x1="-4.818" y1="25.276" x2="-4.818" y2="26.276"/>
				
					<line fill="none" stroke="#000000" stroke-width="0.1" stroke-linecap="round" stroke-linejoin="round" stroke-dasharray="1.8494,1.8494" x1="-4.818" y1="28.126" x2="-4.818" y2="49.394"/>
				
					<line fill="none" stroke="#000000" stroke-width="0.1" stroke-linecap="round" stroke-linejoin="round" x1="-4.818" y1="50.319" x2="-4.818" y2="51.319"/>
			</g>
		</g>
		<g opacity="0.5">
			<g>
				
					<line fill="none" stroke="#000000" stroke-width="0.1" stroke-linecap="round" stroke-linejoin="round" x1="44.44" y1="12.073" x2="44.44" y2="13.073"/>
				
					<line fill="none" stroke="#000000" stroke-width="0.1" stroke-linecap="round" stroke-linejoin="round" stroke-dasharray="1.8887,1.8887" x1="44.44" y1="14.962" x2="44.44" y2="40.46"/>
				
					<line fill="none" stroke="#000000" stroke-width="0.1" stroke-linecap="round" stroke-linejoin="round" x1="44.44" y1="41.404" x2="44.44" y2="42.404"/>
			</g>
		</g>
		<g opacity="0.5">
			<g>
				
					<line fill="none" stroke="#000000" stroke-width="0.1" stroke-linecap="round" stroke-linejoin="round" x1="36.041" y1="24.963" x2="36.041" y2="25.963"/>
				
					<line fill="none" stroke="#000000" stroke-width="0.1" stroke-linecap="round" stroke-linejoin="round" stroke-dasharray="1.9115,1.9115" x1="36.041" y1="27.875" x2="36.041" y2="49.857"/>
				
					<line fill="none" stroke="#000000" stroke-width="0.1" stroke-linecap="round" stroke-linejoin="round" x1="36.041" y1="50.813" x2="36.041" y2="51.813"/>
			</g>
		</g>
	</g>
</g>
<g id="Layer_5" display="none">
	<g display="inline">
		<g>
			<g>
				
					<line fill="none" stroke="#00B200" stroke-width="0.3" stroke-linecap="round" stroke-linejoin="round" x1="17.545" y1="16.717" x2="20.727" y2="9.626"/>
				<g>
					<polygon fill="#00B200" points="21.439,11.036 21.155,11.132 20.68,9.731 19.317,10.308 19.2,10.031 20.86,9.33 					"/>
				</g>
			</g>
		</g>
		
			<polyline fill="none" stroke="#00A300" stroke-width="0.3" stroke-linecap="round" stroke-linejoin="round" stroke-miterlimit="10" points="
			16.65,16.267 17.07,15.402 17.955,15.803 		"/>
	</g>
	<g display="inline">
		<path fill="#00B200" d="M22.181,7.542C21.78,8.1,21.633,8.22,21.356,8.22c-0.147,0-0.277-0.096-0.277-0.324
			c0-0.06,0.012-0.138,0.094-0.45l0.259-0.971c0.047-0.186,0.083-0.402,0.083-0.474c0-0.108-0.053-0.174-0.142-0.174
			c-0.235,0-0.5,0.294-0.872,0.852c-0.265,0.402-0.312,0.54-0.589,1.487h-0.442l0.565-2.099c0.006-0.03,0.012-0.066,0.012-0.102
			c0-0.12-0.083-0.156-0.383-0.162V5.707c0.477-0.096,0.642-0.12,0.954-0.186l0.023,0.012L20.249,6.84
			c0.589-0.959,0.984-1.319,1.361-1.319c0.253,0,0.383,0.15,0.383,0.366c0,0.108-0.024,0.234-0.059,0.36l-0.33,1.217
			c-0.059,0.216-0.082,0.318-0.082,0.366c0,0.054,0.023,0.108,0.094,0.108c0.083,0,0.188-0.096,0.359-0.318
			c0.042-0.048,0.083-0.102,0.124-0.156L22.181,7.542z"/>
	</g>
	<g display="inline">
		<path fill="#00B200" d="M21.631,5.442l-0.842-1.733h-0.006l-0.836,1.733h-0.4l1.066-2.188h0.354l1.066,2.188H21.631z"/>
	</g>
	
		<path display="inline" fill="none" stroke="#FF0000" stroke-width="0.2" stroke-linecap="round" stroke-linejoin="round" stroke-miterlimit="10" d="
		M19.39,15.967c-0.827-0.378-1.675-0.735-2.559-1.046l0,0l-1.571,2.363l0,0c0.882,0.314,1.729,0.674,2.554,1.053l0,0L19.39,15.967
		L19.39,15.967z"/>
	<g display="inline">
		<path fill="#FF0000" d="M22.306,15.361l-0.229,0.911l-0.354,1.313c-0.183,0.684-0.383,1.379-0.383,1.475
			c0,0.072,0.029,0.12,0.106,0.12c0.1,0,0.165-0.054,0.483-0.426L22,18.816c-0.289,0.438-0.571,0.684-0.866,0.684
			c-0.153,0-0.242-0.108-0.242-0.27c0-0.138,0.012-0.234,0.077-0.534c-0.348,0.594-0.648,0.792-1.048,0.792
			c-0.383,0-0.63-0.246-0.63-0.702c0-0.971,0.954-2.009,1.72-2.009c0.248,0,0.348,0.114,0.383,0.348h0.006l0.265-0.978
			c0.088-0.317,0.083-0.342,0.083-0.426c0-0.125-0.053-0.144-0.377-0.156v-0.102c0.377-0.036,0.589-0.072,0.901-0.138L22.306,15.361
			z M21.022,16.914c-0.165,0-0.371,0.102-0.536,0.276c-0.389,0.42-0.684,1.074-0.684,1.571c0,0.276,0.136,0.438,0.342,0.438
			c0.542,0,1.154-1.032,1.154-1.943C21.299,17.04,21.158,16.914,21.022,16.914z"/>
		<path fill="#FF0000" d="M24.9,16.621l-0.106-0.018c0-0.612-0.129-0.978-0.701-0.978c-0.407,0-0.66,0.222-0.66,0.6
			c0,0.294,0.047,0.39,0.583,0.936c0.536,0.552,0.666,0.81,0.666,1.199c0,0.684-0.512,1.169-1.19,1.169
			c-0.183,0-0.341-0.042-0.612-0.138c-0.159-0.06-0.212-0.072-0.277-0.072c-0.118,0-0.212,0.054-0.253,0.192h-0.106l0.2-1.343
			l0.118,0.012c-0.012,0.054-0.012,0.096-0.012,0.138c0,0.588,0.354,1.001,0.848,1.001c0.454,0,0.772-0.312,0.772-0.768
			c0-0.258-0.083-0.438-0.354-0.737l-0.23-0.252c-0.083-0.09-0.153-0.174-0.229-0.252c-0.354-0.384-0.442-0.576-0.442-0.899
			c0-0.63,0.483-0.983,1.048-0.983c0.183,0,0.377,0.03,0.501,0.084c0.124,0.048,0.194,0.066,0.271,0.066
			c0.129,0,0.182-0.03,0.265-0.156h0.136L24.9,16.621z"/>
	</g>
	<path display="inline" opacity="0.1" fill="#FF0000" d="M19.389,15.967c-0.827-0.378-1.675-0.735-2.559-1.046l0,0l-1.571,2.363l0,0
		c0.882,0.314,1.729,0.674,2.554,1.053l0,0L19.389,15.967L19.389,15.967z"/>
</g>
<g id="Layer_7">
	
		<polygon opacity="0.1" fill="#0000FF" stroke="#0000FF" stroke-width="0.1" stroke-linecap="round" stroke-linejoin="round" stroke-miterlimit="10" points="
		11.303,46.19 6.591,46.19 9.162,43.619 13.8,43.589 	"/>
	
		<polygon fill="none" stroke="#0000FF" stroke-width="0.2" stroke-linecap="round" stroke-linejoin="round" stroke-miterlimit="10" points="
		11.303,46.19 6.591,46.19 9.162,43.619 13.8,43.589 	"/>
	
		<line fill="none" stroke="#0000FF" stroke-width="0.1" stroke-miterlimit="10" stroke-dasharray="2" x1="13.778" y1="39.003" x2="9.162" y2="43.619"/>
	
		<line fill="none" stroke="#0000FF" stroke-width="0.1" stroke-miterlimit="10" stroke-dasharray="2" x1="18.383" y1="39.003" x2="13.8" y2="43.589"/>
	
		<line fill="none" stroke="#0000FF" stroke-width="0.1" stroke-miterlimit="10" stroke-dasharray="2" x1="0" y1="43.619" x2="9.162" y2="43.619"/>
	
		<line fill="none" stroke="#0000FF" stroke-width="0.1" stroke-miterlimit="10" stroke-dasharray="2" x1="-2.571" y1="46.19" x2="6.591" y2="46.19"/>
	<g>
		<path fill="#0000FF" d="M-1.849,42.834c0.274-0.428,0.419-0.572,0.592-0.572c0.094,0,0.161,0.06,0.161,0.148
			c0,0.084-0.055,0.144-0.133,0.144c-0.075,0-0.11-0.068-0.204-0.068c-0.07,0-0.211,0.176-0.384,0.483
			c0,0.028,0.008,0.084,0.031,0.18l0.125,0.536c0.028,0.112,0.063,0.164,0.118,0.164c0.051,0,0.094-0.04,0.185-0.16
			c0.035-0.048,0.051-0.072,0.083-0.112l0.059,0.036c-0.228,0.36-0.33,0.456-0.479,0.456c-0.125,0-0.184-0.072-0.231-0.272
			l-0.114-0.476l-0.345,0.476c-0.173,0.236-0.251,0.272-0.373,0.272s-0.196-0.064-0.196-0.168c0-0.08,0.055-0.144,0.133-0.144
			c0.036,0,0.075,0.016,0.125,0.044c0.04,0.024,0.079,0.036,0.102,0.036c0.043,0,0.118-0.076,0.2-0.196l0.321-0.464l-0.11-0.496
			c-0.055-0.24-0.082-0.272-0.18-0.272c-0.031,0-0.079,0.008-0.153,0.028l-0.071,0.02l-0.012-0.063l0.043-0.016
			c0.239-0.088,0.369-0.116,0.459-0.116c0.098,0,0.145,0.072,0.2,0.344L-1.849,42.834z"/>
	</g>
	<g>
		<g>
			<line fill="none" stroke="#0000FF" stroke-width="0.1" stroke-miterlimit="10" x1="3.897" y1="44.041" x2="2.17" y2="45.768"/>
			<g>
				<polygon fill="#0000FF" points="3.437,43.978 3.81,44.128 3.96,44.502 4.319,43.619 				"/>
			</g>
			<g>
				<polygon fill="#0000FF" points="2.107,45.307 2.258,45.68 2.631,45.831 1.748,46.19 				"/>
			</g>
		</g>
	</g>
	<g>
		<path fill="#0000FF" d="M-0.736,49.057l1.568-2.67h0.102l0.518,2.67H-0.736z M0.66,46.954l-1,1.727h1.341L0.66,46.954z"/>
		<path fill="#0000FF" d="M2.786,47.866c0.274-0.428,0.419-0.572,0.592-0.572c0.094,0,0.161,0.06,0.161,0.148
			c0,0.084-0.055,0.144-0.133,0.144c-0.075,0-0.11-0.068-0.204-0.068c-0.07,0-0.211,0.176-0.384,0.483
			c0,0.028,0.008,0.084,0.031,0.18l0.125,0.536c0.028,0.112,0.063,0.164,0.118,0.164c0.051,0,0.094-0.04,0.185-0.16
			c0.035-0.048,0.051-0.072,0.083-0.112l0.059,0.036c-0.228,0.36-0.33,0.456-0.479,0.456c-0.125,0-0.184-0.072-0.231-0.272
			l-0.114-0.476l-0.345,0.476c-0.173,0.236-0.251,0.272-0.373,0.272S1.68,49.037,1.68,48.933c0-0.08,0.055-0.144,0.133-0.144
			c0.036,0,0.075,0.016,0.125,0.044c0.04,0.024,0.079,0.036,0.102,0.036c0.043,0,0.118-0.076,0.2-0.196l0.321-0.464l-0.11-0.496
			c-0.055-0.24-0.082-0.272-0.18-0.272c-0.031,0-0.079,0.008-0.153,0.028l-0.071,0.02l-0.012-0.063L2.08,47.41
			c0.239-0.088,0.369-0.116,0.459-0.116c0.098,0,0.145,0.072,0.2,0.344L2.786,47.866z"/>
	</g>
	<g>
		<path fill="#0000FF" d="M14.233,37.418c0.333-0.564,0.479-0.852,0.479-1.027c0-0.056-0.027-0.08-0.102-0.128
			c-0.078-0.052-0.102-0.092-0.102-0.156c0-0.088,0.067-0.148,0.157-0.148c0.118,0,0.204,0.1,0.204,0.22
			c0,0.228-0.188,0.667-0.514,1.219c-0.408,0.688-0.827,1.147-1.051,1.147c-0.118,0-0.2-0.068-0.2-0.172
			c0-0.088,0.067-0.16,0.153-0.16c0.138,0,0.138,0.112,0.239,0.112c0.051,0,0.098-0.032,0.188-0.132
			c0.07-0.076,0.247-0.312,0.278-0.364c0.023-0.048,0.039-0.096,0.039-0.14c0-0.16-0.215-1.055-0.321-1.327
			c-0.075-0.196-0.145-0.256-0.302-0.256c-0.043,0-0.078,0.004-0.122,0.016v-0.068c0.043-0.008,0.086-0.016,0.125-0.024
			c0.079-0.016,0.208-0.04,0.42-0.072h0.016c0.059,0,0.267,0.664,0.333,1.02L14.233,37.418z"/>
	</g>
	<g>
		<g>
			<line fill="none" stroke="#0000FF" stroke-width="0.1" stroke-miterlimit="10" x1="13.032" y1="40.343" x2="16.473" y2="40.32"/>
			<g>
				<polygon fill="#0000FF" points="13.315,40.711 13.155,40.342 13.31,39.97 12.435,40.346 				"/>
			</g>
			<g>
				<polygon fill="#0000FF" points="16.195,40.692 16.35,40.321 16.19,39.952 17.07,40.317 				"/>
			</g>
		</g>
	</g>
	<g>
		<path fill="#0000FF" d="M17.766,41.624l1.568-2.67h0.102l0.518,2.67H17.766z M19.162,39.521l-1,1.727h1.341L19.162,39.521z"/>
		<path fill="#0000FF" d="M21.323,41.32c0.333-0.564,0.479-0.852,0.479-1.027c0-0.056-0.027-0.08-0.102-0.128
			c-0.078-0.052-0.102-0.092-0.102-0.156c0-0.088,0.067-0.148,0.157-0.148c0.118,0,0.204,0.1,0.204,0.22
			c0,0.228-0.188,0.667-0.514,1.219c-0.408,0.688-0.827,1.147-1.051,1.147c-0.118,0-0.2-0.068-0.2-0.172
			c0-0.088,0.067-0.16,0.153-0.16c0.138,0,0.138,0.112,0.239,0.112c0.051,0,0.098-0.032,0.188-0.132
			c0.07-0.076,0.247-0.312,0.278-0.364c0.023-0.048,0.039-0.096,0.039-0.14c0-0.16-0.215-1.055-0.321-1.327
			c-0.075-0.196-0.145-0.256-0.302-0.256c-0.043,0-0.078,0.004-0.122,0.016v-0.068c0.043-0.008,0.086-0.016,0.125-0.024
			c0.079-0.016,0.208-0.04,0.42-0.072h0.016c0.059,0,0.267,0.664,0.333,1.02L21.323,41.32z"/>
	</g>
	<g>
		<path fill="#00A300" d="M11.464,14.308c0.177-0.185,0.337-0.46,0.337-0.578c0-0.025-0.012-0.042-0.044-0.072
			c-0.044-0.04-0.062-0.073-0.062-0.113c0-0.053,0.042-0.085,0.094-0.085c0.081,0,0.137,0.08,0.137,0.147
			c0,0.108-0.069,0.253-0.155,0.388c-0.11,0.175-0.248,0.335-0.292,0.383c-0.135,0.147-0.202,0.23-0.243,0.23
			c-0.015,0-0.022-0.025-0.022-0.067v-0.06c0-0.173-0.027-0.505-0.059-0.696c-0.032-0.19-0.059-0.232-0.149-0.232
			c-0.025,0-0.049,0-0.076,0.002v-0.033c0.11-0.018,0.196-0.035,0.275-0.053c0.02-0.007,0.037-0.01,0.049-0.01
			c0.022,0,0.022,0.015,0.074,0.285c0.032,0.168,0.046,0.305,0.061,0.643L11.464,14.308z"/>
	</g>
	<g>
		<path fill="#00A300" d="M7.037,16.837c-0.16,0.248-0.224,0.298-0.339,0.298c-0.074,0-0.118-0.042-0.118-0.12
			c0-0.055,0.032-0.223,0.11-0.493C6.4,17.007,6.277,17.14,6.103,17.14c-0.086,0-0.13-0.04-0.13-0.132
			c0-0.048,0.022-0.138,0.066-0.32l0.086-0.348c0.02-0.083,0.035-0.147,0.035-0.167c0-0.018-0.012-0.038-0.027-0.045
			c-0.022-0.013-0.029-0.015-0.123-0.015v-0.035c0.14-0.018,0.229-0.035,0.368-0.067l0.01,0.007L6.17,16.905
			c-0.002,0.007-0.007,0.03-0.007,0.04c0,0.038,0.012,0.062,0.049,0.062c0.083,0,0.197-0.133,0.349-0.368
			c0.115-0.177,0.15-0.272,0.27-0.608h0.182l-0.194,0.748c-0.012,0.048-0.047,0.166-0.047,0.195c0,0.027,0.01,0.042,0.027,0.042
			c0.039,0,0.079-0.035,0.204-0.203L7.037,16.837z"/>
	</g>
	<g>
		<g>
			<line fill="none" stroke="#00A300" stroke-width="0.1" stroke-miterlimit="10" x1="10.701" y1="12.92" x2="12.13" y2="12.92"/>
			<g>
				<polygon fill="#00A300" points="11.799,13.329 11.731,13.256 12.092,12.92 11.731,12.585 11.799,12.511 12.239,12.92 				"/>
			</g>
		</g>
	</g>
	<g>
		<g>
			<line fill="none" stroke="#00A300" stroke-width="0.1" stroke-miterlimit="10" x1="5.795" y1="15.581" x2="7.224" y2="15.581"/>
			<g>
				<polygon fill="#00A300" points="6.893,15.99 6.825,15.917 7.186,15.581 6.825,15.245 6.893,15.172 7.333,15.581 				"/>
			</g>
		</g>
	</g>
</g>
<g id="dR_to_dS_00000137830837028238473540000002133150069138650525_" display="none" opacity="0.25">
	
		<line display="inline" fill="none" stroke="#0000FF" stroke-width="0.1" stroke-miterlimit="10" stroke-dasharray="2" x1="11.266" y1="46.19" x2="11.266" y2="19.134"/>
	
		<line display="inline" fill="none" stroke="#0000FF" stroke-width="0.1" stroke-miterlimit="10" stroke-dasharray="2" x1="13.8" y1="43.64" x2="13.8" y2="15.337"/>
	
		<line display="inline" fill="none" stroke="#0000FF" stroke-width="0.1" stroke-miterlimit="10" stroke-dasharray="2" x1="6.591" y1="46.19" x2="6.591" y2="19.134"/>
	
		<line display="inline" fill="none" stroke="#0000FF" stroke-width="0.1" stroke-miterlimit="10" stroke-dasharray="2" x1="9.162" y1="43.64" x2="9.162" y2="15.337"/>
</g>
<g id="dS">
	<polygon opacity="0.1" fill="#FF0000" points="13.8,15.337 11.266,19.134 6.591,19.134 9.162,15.337 	"/>
	<polygon fill="none" stroke="#FF0000" stroke-width="0.1" stroke-miterlimit="10" points="13.8,15.337 11.266,19.134 6.591,19.134 
		9.162,15.337 	"/>
	<line fill="none" stroke="#FF0000" stroke-width="0.1" stroke-miterlimit="10" x1="6.591" y1="19.134" x2="11.266" y2="19.134"/>
	<g id="u">
		<g>
			<line fill="none" stroke="#00A300" stroke-width="0.2" stroke-miterlimit="10" x1="9.162" y1="15.337" x2="6.713" y2="18.954"/>
			<g>
				<polygon fill="#00A300" points="6.407,17.947 6.605,17.916 6.756,18.89 7.717,18.669 7.762,18.864 6.591,19.133 				"/>
			</g>
		</g>
	</g>
	<g id="v">
		<g>
			<line fill="none" stroke="#00A300" stroke-width="0.2" stroke-miterlimit="10" x1="13.583" y1="15.337" x2="9.162" y2="15.337"/>
			<g>
				<polygon fill="#00A300" points="12.92,14.519 12.784,14.666 13.506,15.337 12.784,16.009 12.92,16.155 13.8,15.337 				"/>
			</g>
		</g>
	</g>
	<line fill="none" stroke="#FF0000" stroke-width="0.1" stroke-miterlimit="10" x1="13.8" y1="15.337" x2="11.266" y2="19.134"/>
</g>
<g id="Layer_9">
	<g>
		<path d="M19.981,7.992c-0.374,0.36-0.501,0.914-0.501,1.424c0,0.243,0.027,0.396,0.118,0.651l-0.044,0.015
			c-0.157-0.258-0.243-0.583-0.243-0.903c0-0.258,0.054-0.513,0.182-0.726c0.096-0.158,0.231-0.288,0.457-0.498L19.981,7.992z"/>
		<path d="M20.65,8.883c0.172-0.268,0.263-0.358,0.371-0.358c0.059,0,0.101,0.038,0.101,0.093c0,0.052-0.034,0.09-0.083,0.09
			c-0.047,0-0.069-0.042-0.128-0.042c-0.044,0-0.132,0.11-0.241,0.303c0,0.018,0.005,0.053,0.02,0.113l0.079,0.335
			c0.018,0.07,0.04,0.103,0.074,0.103c0.032,0,0.059-0.025,0.116-0.1c0.022-0.03,0.032-0.045,0.052-0.07l0.037,0.022
			c-0.143,0.225-0.207,0.285-0.3,0.285c-0.079,0-0.115-0.045-0.145-0.17l-0.071-0.298l-0.216,0.298
			c-0.108,0.147-0.157,0.17-0.233,0.17s-0.123-0.04-0.123-0.105c0-0.05,0.035-0.09,0.083-0.09c0.022,0,0.047,0.01,0.079,0.027
			c0.025,0.015,0.049,0.022,0.064,0.022c0.027,0,0.074-0.047,0.125-0.123l0.201-0.29l-0.069-0.311
			c-0.034-0.15-0.051-0.17-0.113-0.17c-0.02,0-0.049,0.005-0.096,0.017l-0.044,0.013l-0.007-0.04l0.027-0.01
			c0.15-0.055,0.231-0.072,0.288-0.072c0.062,0,0.091,0.045,0.125,0.215L20.65,8.883z"/>
		<path d="M21.099,9.907c0.13-0.085,0.187-0.158,0.187-0.225c0-0.025-0.01-0.043-0.049-0.073c-0.049-0.038-0.062-0.075-0.062-0.123
			c0-0.06,0.054-0.11,0.125-0.11c0.089,0,0.143,0.085,0.143,0.186c0,0.14-0.113,0.28-0.319,0.39L21.099,9.907z"/>
		<path d="M22.373,9.439c0.209-0.353,0.3-0.533,0.3-0.643c0-0.035-0.017-0.05-0.064-0.08c-0.049-0.032-0.064-0.057-0.064-0.097
			c0-0.055,0.042-0.093,0.099-0.093c0.074,0,0.127,0.062,0.127,0.138c0,0.143-0.118,0.418-0.322,0.763
			c-0.255,0.43-0.518,0.718-0.658,0.718c-0.074,0-0.125-0.042-0.125-0.108c0-0.055,0.042-0.1,0.096-0.1
			c0.086,0,0.086,0.07,0.15,0.07c0.032,0,0.062-0.02,0.118-0.083c0.044-0.048,0.155-0.195,0.174-0.228
			c0.015-0.03,0.024-0.06,0.024-0.087c0-0.1-0.135-0.661-0.201-0.831c-0.047-0.123-0.091-0.16-0.189-0.16
			c-0.027,0-0.049,0.002-0.076,0.01V8.586c0.027-0.005,0.054-0.01,0.079-0.015c0.049-0.01,0.13-0.025,0.263-0.045h0.01
			c0.037,0,0.167,0.416,0.209,0.638L22.373,9.439z"/>
		<path d="M23.724,9.078v0.551h-0.162V9.078h-0.538V8.913h0.538v-0.55h0.162v0.55h0.538v0.165H23.724z"/>
		<path d="M24.388,9.629l0.983-1.672h0.063l0.324,1.672H24.388z M25.263,8.313l-0.626,1.081h0.84L25.263,8.313z"/>
		<path d="M26.613,9.439c0.209-0.353,0.3-0.533,0.3-0.643c0-0.035-0.017-0.05-0.064-0.08c-0.049-0.032-0.064-0.057-0.064-0.097
			c0-0.055,0.042-0.093,0.099-0.093c0.074,0,0.127,0.062,0.127,0.138c0,0.143-0.118,0.418-0.322,0.763
			c-0.255,0.43-0.518,0.718-0.658,0.718c-0.074,0-0.125-0.042-0.125-0.108c0-0.055,0.042-0.1,0.096-0.1
			c0.086,0,0.086,0.07,0.15,0.07c0.032,0,0.062-0.02,0.118-0.083c0.044-0.048,0.155-0.195,0.174-0.228
			c0.015-0.03,0.024-0.06,0.024-0.087c0-0.1-0.135-0.661-0.201-0.831c-0.047-0.123-0.091-0.16-0.189-0.16
			c-0.027,0-0.049,0.002-0.076,0.01V8.586c0.027-0.005,0.054-0.01,0.079-0.015c0.049-0.01,0.13-0.025,0.263-0.045h0.01
			c0.037,0,0.167,0.416,0.209,0.638L26.613,9.439z"/>
		<path d="M27.012,9.907c0.13-0.085,0.187-0.158,0.187-0.225c0-0.025-0.01-0.043-0.049-0.073c-0.049-0.038-0.062-0.075-0.062-0.123
			c0-0.06,0.054-0.11,0.125-0.11c0.089,0,0.143,0.085,0.143,0.186c0,0.14-0.113,0.28-0.319,0.39L27.012,9.907z"/>
		<path d="M27.966,8.558c0.054-0.177,0.096-0.315,0.177-0.433c0.074-0.107,0.175-0.193,0.325-0.193c0.12,0,0.211,0.065,0.211,0.155
			c0,0.055-0.046,0.107-0.103,0.107c-0.044,0-0.091-0.038-0.091-0.097c0-0.043,0.024-0.055,0.024-0.078
			c0-0.02-0.02-0.033-0.054-0.033c-0.137,0-0.228,0.175-0.299,0.57h0.263l-0.015,0.08h-0.266l-0.177,0.801
			c-0.103,0.463-0.268,0.708-0.491,0.708c-0.111,0-0.194-0.065-0.194-0.153c0-0.058,0.042-0.105,0.094-0.105
			c0.056,0,0.093,0.04,0.093,0.093c0,0.032-0.022,0.045-0.022,0.072c0,0.022,0.02,0.04,0.049,0.04c0.103,0,0.182-0.135,0.238-0.405
			l0.216-1.051H27.72l0.017-0.08H27.966z"/>
		<path d="M29.092,7.992c-0.374,0.36-0.501,0.914-0.501,1.424c0,0.243,0.027,0.396,0.118,0.651l-0.044,0.015
			c-0.157-0.258-0.243-0.583-0.243-0.903c0-0.258,0.054-0.513,0.182-0.726c0.096-0.158,0.231-0.288,0.457-0.498L29.092,7.992z"/>
		<path d="M29.761,8.883c0.172-0.268,0.263-0.358,0.371-0.358c0.059,0,0.101,0.038,0.101,0.093c0,0.052-0.034,0.09-0.083,0.09
			c-0.047,0-0.069-0.042-0.128-0.042c-0.044,0-0.132,0.11-0.241,0.303c0,0.018,0.005,0.053,0.02,0.113l0.079,0.335
			c0.018,0.07,0.04,0.103,0.074,0.103c0.032,0,0.059-0.025,0.116-0.1c0.022-0.03,0.032-0.045,0.052-0.07l0.037,0.022
			c-0.143,0.225-0.207,0.285-0.3,0.285c-0.079,0-0.115-0.045-0.145-0.17L29.64,9.189l-0.216,0.298
			c-0.108,0.147-0.157,0.17-0.233,0.17s-0.123-0.04-0.123-0.105c0-0.05,0.035-0.09,0.083-0.09c0.022,0,0.047,0.01,0.079,0.027
			c0.025,0.015,0.049,0.022,0.064,0.022c0.027,0,0.074-0.047,0.125-0.123l0.201-0.29l-0.069-0.311
			c-0.034-0.15-0.051-0.17-0.113-0.17c-0.02,0-0.049,0.005-0.096,0.017l-0.044,0.013l-0.007-0.04l0.027-0.01
			c0.15-0.055,0.231-0.072,0.288-0.072c0.062,0,0.091,0.045,0.125,0.215L29.761,8.883z"/>
		<path d="M30.211,9.907c0.13-0.085,0.187-0.158,0.187-0.225c0-0.025-0.01-0.043-0.049-0.073c-0.049-0.038-0.062-0.075-0.062-0.123
			c0-0.06,0.054-0.11,0.125-0.11c0.089,0,0.143,0.085,0.143,0.186c0,0.14-0.113,0.28-0.319,0.39L30.211,9.907z"/>
		<path d="M31.484,9.439c0.209-0.353,0.3-0.533,0.3-0.643c0-0.035-0.017-0.05-0.064-0.08c-0.049-0.032-0.064-0.057-0.064-0.097
			c0-0.055,0.042-0.093,0.099-0.093c0.074,0,0.127,0.062,0.127,0.138c0,0.143-0.118,0.418-0.322,0.763
			c-0.255,0.43-0.518,0.718-0.658,0.718c-0.074,0-0.125-0.042-0.125-0.108c0-0.055,0.042-0.1,0.096-0.1
			c0.086,0,0.086,0.07,0.15,0.07c0.032,0,0.062-0.02,0.118-0.083c0.044-0.048,0.155-0.195,0.174-0.228
			c0.015-0.03,0.024-0.06,0.024-0.087c0-0.1-0.135-0.661-0.201-0.831c-0.047-0.123-0.091-0.16-0.189-0.16
			c-0.027,0-0.049,0.002-0.076,0.01V8.586c0.027-0.005,0.054-0.01,0.079-0.015c0.049-0.01,0.13-0.025,0.263-0.045h0.01
			c0.037,0,0.167,0.416,0.209,0.638L31.484,9.439z"/>
		<path d="M32.836,9.078v0.551h-0.162V9.078h-0.538V8.913h0.538v-0.55h0.162v0.55h0.538v0.165H32.836z"/>
		<path d="M33.5,9.629l0.982-1.672h0.064l0.324,1.672H33.5z M34.375,8.313l-0.626,1.081h0.84L34.375,8.313z"/>
		<path d="M35.725,9.439c0.209-0.353,0.3-0.533,0.3-0.643c0-0.035-0.017-0.05-0.064-0.08c-0.049-0.032-0.064-0.057-0.064-0.097
			c0-0.055,0.042-0.093,0.099-0.093c0.074,0,0.127,0.062,0.127,0.138c0,0.143-0.118,0.418-0.322,0.763
			c-0.255,0.43-0.518,0.718-0.658,0.718c-0.074,0-0.125-0.042-0.125-0.108c0-0.055,0.042-0.1,0.096-0.1
			c0.086,0,0.086,0.07,0.15,0.07c0.032,0,0.062-0.02,0.118-0.083c0.044-0.048,0.155-0.195,0.174-0.228
			c0.015-0.03,0.024-0.06,0.024-0.087c0-0.1-0.135-0.661-0.201-0.831c-0.047-0.123-0.091-0.16-0.189-0.16
			c-0.027,0-0.049,0.002-0.076,0.01V8.586c0.027-0.005,0.054-0.01,0.079-0.015c0.049-0.01,0.13-0.025,0.263-0.045h0.01
			c0.037,0,0.167,0.416,0.209,0.638L35.725,9.439z"/>
		<path d="M36.631,7.955c0.115,0.21,0.155,0.308,0.196,0.493c0.03,0.14,0.047,0.285,0.047,0.42c0,0.253-0.069,0.49-0.191,0.706
			c-0.096,0.168-0.224,0.308-0.447,0.505l-0.032-0.037c0.206-0.223,0.297-0.391,0.38-0.656c0.076-0.24,0.121-0.528,0.121-0.763
			c0-0.25-0.037-0.453-0.121-0.656L36.631,7.955z"/>
		<path d="M37.448,7.955c0.115,0.21,0.155,0.308,0.196,0.493c0.03,0.14,0.047,0.285,0.047,0.42c0,0.253-0.069,0.49-0.191,0.706
			c-0.096,0.168-0.224,0.308-0.447,0.505l-0.032-0.037c0.206-0.223,0.297-0.391,0.38-0.656c0.076-0.24,0.121-0.528,0.121-0.763
			c0-0.25-0.037-0.453-0.121-0.656L37.448,7.955z"/>
	</g>
	<g>
		<g>
			<path fill="none" stroke="#000000" stroke-width="0.1" stroke-linecap="round" stroke-linejoin="round" d="M8.752,3.937
				C2.837,4.982,7.02,12.19,8.44,14.501"/>
			<g>
				<polygon points="7.988,14.437 8.387,14.385 8.627,14.062 8.752,15.006 				"/>
			</g>
		</g>
	</g>
	<g>
		<path d="M10.232,3.058c-0.374,0.36-0.501,0.914-0.501,1.424c0,0.243,0.027,0.396,0.118,0.651L9.804,5.148
			C9.647,4.89,9.561,4.565,9.561,4.245c0-0.258,0.054-0.513,0.182-0.726C9.839,3.361,9.974,3.231,10.2,3.021L10.232,3.058z"/>
		<path d="M10.901,3.949c0.172-0.268,0.263-0.358,0.371-0.358c0.059,0,0.101,0.038,0.101,0.093c0,0.052-0.034,0.09-0.083,0.09
			c-0.047,0-0.069-0.042-0.128-0.042c-0.044,0-0.132,0.11-0.241,0.303c0,0.018,0.005,0.053,0.02,0.113l0.079,0.335
			c0.018,0.07,0.04,0.103,0.074,0.103c0.032,0,0.059-0.025,0.116-0.1c0.022-0.03,0.032-0.045,0.052-0.07l0.037,0.022
			c-0.143,0.225-0.207,0.285-0.3,0.285c-0.079,0-0.115-0.045-0.145-0.17L10.78,4.254l-0.216,0.298
			c-0.108,0.147-0.157,0.17-0.233,0.17s-0.123-0.04-0.123-0.105c0-0.05,0.035-0.09,0.083-0.09c0.022,0,0.047,0.01,0.079,0.027
			c0.025,0.015,0.049,0.022,0.064,0.022c0.027,0,0.074-0.047,0.125-0.123l0.201-0.29l-0.069-0.311
			c-0.034-0.15-0.051-0.17-0.113-0.17c-0.02,0-0.049,0.005-0.096,0.017l-0.044,0.013l-0.007-0.04l0.027-0.01
			c0.15-0.055,0.231-0.072,0.288-0.072c0.062,0,0.091,0.045,0.125,0.215L10.901,3.949z"/>
		<path d="M11.351,4.973c0.13-0.085,0.187-0.158,0.187-0.225c0-0.025-0.01-0.043-0.049-0.073c-0.049-0.038-0.062-0.075-0.062-0.123
			c0-0.06,0.054-0.11,0.125-0.11c0.089,0,0.143,0.085,0.143,0.186c0,0.14-0.113,0.28-0.319,0.39L11.351,4.973z"/>
		<path d="M12.624,4.504c0.209-0.353,0.3-0.533,0.3-0.643c0-0.035-0.017-0.05-0.064-0.08c-0.049-0.032-0.064-0.057-0.064-0.097
			c0-0.055,0.042-0.093,0.099-0.093c0.074,0,0.127,0.062,0.127,0.138c0,0.143-0.118,0.418-0.322,0.763
			c-0.255,0.43-0.518,0.718-0.658,0.718c-0.074,0-0.125-0.042-0.125-0.108c0-0.055,0.042-0.1,0.096-0.1
			c0.086,0,0.086,0.07,0.15,0.07c0.032,0,0.062-0.02,0.118-0.083c0.044-0.048,0.155-0.195,0.174-0.228
			c0.015-0.03,0.024-0.06,0.024-0.087c0-0.1-0.135-0.661-0.201-0.831c-0.047-0.123-0.091-0.16-0.189-0.16
			c-0.027,0-0.049,0.002-0.076,0.01V3.651c0.027-0.005,0.054-0.01,0.079-0.015c0.049-0.01,0.13-0.025,0.263-0.045h0.01
			c0.037,0,0.167,0.416,0.209,0.638L12.624,4.504z"/>
		<path d="M13.023,4.973c0.13-0.085,0.187-0.158,0.187-0.225c0-0.025-0.01-0.043-0.049-0.073c-0.049-0.038-0.062-0.075-0.062-0.123
			c0-0.06,0.054-0.11,0.125-0.11c0.089,0,0.143,0.085,0.143,0.186c0,0.14-0.113,0.28-0.319,0.39L13.023,4.973z"/>
		<path d="M13.977,3.624c0.054-0.177,0.096-0.315,0.177-0.433c0.074-0.107,0.175-0.193,0.325-0.193c0.12,0,0.211,0.065,0.211,0.155
			c0,0.055-0.046,0.107-0.103,0.107c-0.044,0-0.091-0.038-0.091-0.097c0-0.043,0.024-0.055,0.024-0.078
			c0-0.02-0.02-0.033-0.054-0.033c-0.137,0-0.229,0.175-0.299,0.57h0.263l-0.015,0.08h-0.266l-0.177,0.801
			c-0.103,0.463-0.268,0.708-0.491,0.708c-0.111,0-0.194-0.065-0.194-0.153c0-0.058,0.042-0.105,0.094-0.105
			c0.056,0,0.093,0.04,0.093,0.093c0,0.032-0.022,0.045-0.022,0.072c0,0.022,0.02,0.04,0.049,0.04c0.103,0,0.182-0.135,0.238-0.405
			l0.216-1.051h-0.224l0.017-0.08H13.977z"/>
		<path d="M15.103,3.058c-0.374,0.36-0.501,0.914-0.501,1.424c0,0.243,0.027,0.396,0.118,0.651l-0.044,0.015
			c-0.157-0.258-0.243-0.583-0.243-0.903c0-0.258,0.054-0.513,0.182-0.726c0.096-0.158,0.231-0.288,0.457-0.498L15.103,3.058z"/>
		<path d="M15.772,3.949c0.172-0.268,0.263-0.358,0.371-0.358c0.059,0,0.101,0.038,0.101,0.093c0,0.052-0.034,0.09-0.083,0.09
			c-0.047,0-0.069-0.042-0.128-0.042c-0.044,0-0.132,0.11-0.241,0.303c0,0.018,0.005,0.053,0.02,0.113l0.079,0.335
			c0.018,0.07,0.04,0.103,0.074,0.103c0.032,0,0.059-0.025,0.116-0.1c0.022-0.03,0.032-0.045,0.052-0.07l0.037,0.022
			c-0.143,0.225-0.207,0.285-0.3,0.285c-0.079,0-0.115-0.045-0.145-0.17l-0.071-0.298l-0.216,0.298
			c-0.108,0.147-0.157,0.17-0.233,0.17s-0.123-0.04-0.123-0.105c0-0.05,0.035-0.09,0.083-0.09c0.022,0,0.047,0.01,0.079,0.027
			c0.025,0.015,0.049,0.022,0.064,0.022c0.027,0,0.074-0.047,0.125-0.123l0.201-0.29l-0.069-0.311
			c-0.034-0.15-0.051-0.17-0.113-0.17c-0.02,0-0.049,0.005-0.096,0.017L15.31,3.714l-0.007-0.04l0.027-0.01
			c0.15-0.055,0.231-0.072,0.288-0.072c0.062,0,0.091,0.045,0.125,0.215L15.772,3.949z"/>
		<path d="M16.221,4.973c0.13-0.085,0.187-0.158,0.187-0.225c0-0.025-0.01-0.043-0.049-0.073C16.31,4.637,16.297,4.6,16.297,4.552
			c0-0.06,0.054-0.11,0.125-0.11c0.089,0,0.143,0.085,0.143,0.186c0,0.14-0.113,0.28-0.319,0.39L16.221,4.973z"/>
		<path d="M17.495,4.504c0.209-0.353,0.3-0.533,0.3-0.643c0-0.035-0.017-0.05-0.064-0.08c-0.049-0.032-0.064-0.057-0.064-0.097
			c0-0.055,0.042-0.093,0.099-0.093c0.074,0,0.127,0.062,0.127,0.138c0,0.143-0.118,0.418-0.322,0.763
			c-0.255,0.43-0.518,0.718-0.658,0.718c-0.074,0-0.125-0.042-0.125-0.108c0-0.055,0.042-0.1,0.096-0.1
			c0.086,0,0.086,0.07,0.15,0.07c0.032,0,0.062-0.02,0.118-0.083c0.044-0.048,0.155-0.195,0.174-0.228
			c0.015-0.03,0.024-0.06,0.024-0.087c0-0.1-0.135-0.661-0.201-0.831c-0.047-0.123-0.091-0.16-0.189-0.16
			c-0.027,0-0.049,0.002-0.076,0.01V3.651c0.027-0.005,0.054-0.01,0.079-0.015c0.049-0.01,0.13-0.025,0.263-0.045h0.01
			c0.037,0,0.167,0.416,0.209,0.638L17.495,4.504z"/>
		<path d="M18.401,3.021c0.115,0.21,0.155,0.308,0.196,0.493c0.03,0.14,0.047,0.285,0.047,0.42c0,0.253-0.069,0.49-0.191,0.706
			c-0.096,0.168-0.224,0.308-0.447,0.505l-0.032-0.037c0.206-0.223,0.297-0.391,0.38-0.656c0.076-0.24,0.121-0.528,0.121-0.763
			c0-0.25-0.037-0.453-0.121-0.656L18.401,3.021z"/>
		<path d="M19.218,3.021c0.115,0.21,0.155,0.308,0.196,0.493c0.03,0.14,0.047,0.285,0.047,0.42c0,0.253-0.069,0.49-0.191,0.706
			c-0.096,0.168-0.224,0.308-0.447,0.505l-0.032-0.037c0.206-0.223,0.297-0.391,0.38-0.656c0.076-0.24,0.121-0.528,0.121-0.763
			c0-0.25-0.037-0.453-0.121-0.656L19.218,3.021z"/>
	</g>
	<g>
		<g>
			<path fill="none" stroke="#000000" stroke-width="0.1" stroke-linecap="round" stroke-linejoin="round" d="M18.654,8.901
				c-2.351,0-2.34,3.593-3.715,5.388"/>
			<g>
				<polygon points="14.837,13.823 15.01,14.187 15.391,14.315 14.531,14.726 				"/>
			</g>
		</g>
	</g>
	<g>
		<g>
			<path fill="none" stroke="#000000" stroke-width="0.1" stroke-linecap="round" stroke-linejoin="round" d="M18.654,18.74
				c-2.925,0.379-8.066,5.378-11.296,1.523"/>
			<g>
				<polygon points="7.84,20.234 7.453,20.345 7.265,20.7 6.999,19.785 				"/>
			</g>
		</g>
	</g>
	<g>
		<path d="M20.145,18.146c-0.374,0.36-0.501,0.914-0.501,1.424c0,0.243,0.027,0.396,0.118,0.651l-0.044,0.015
			c-0.157-0.258-0.243-0.583-0.243-0.903c0-0.258,0.054-0.513,0.182-0.726c0.096-0.158,0.231-0.288,0.457-0.498L20.145,18.146z"/>
		<path d="M20.814,19.037c0.172-0.268,0.263-0.358,0.371-0.358c0.059,0,0.101,0.038,0.101,0.093c0,0.052-0.034,0.09-0.083,0.09
			c-0.047,0-0.069-0.042-0.128-0.042c-0.044,0-0.132,0.11-0.241,0.303c0,0.018,0.005,0.053,0.02,0.113l0.079,0.335
			c0.018,0.07,0.04,0.103,0.074,0.103c0.032,0,0.059-0.025,0.116-0.1c0.022-0.03,0.032-0.045,0.052-0.07l0.037,0.022
			c-0.143,0.225-0.207,0.285-0.3,0.285c-0.079,0-0.115-0.045-0.145-0.17l-0.071-0.298l-0.216,0.298
			c-0.108,0.147-0.157,0.17-0.233,0.17s-0.123-0.04-0.123-0.105c0-0.05,0.035-0.09,0.083-0.09c0.022,0,0.047,0.01,0.079,0.027
			c0.025,0.015,0.049,0.022,0.064,0.022c0.027,0,0.074-0.047,0.125-0.123l0.201-0.29l-0.069-0.311
			c-0.034-0.15-0.051-0.17-0.113-0.17c-0.02,0-0.049,0.005-0.096,0.017l-0.044,0.013l-0.007-0.04l0.027-0.01
			c0.15-0.055,0.231-0.072,0.288-0.072c0.062,0,0.091,0.045,0.125,0.215L20.814,19.037z"/>
		<path d="M22.188,19.232v0.551h-0.162v-0.551h-0.538v-0.165h0.538v-0.55h0.162v0.55h0.538v0.165H22.188z"/>
		<path d="M22.852,19.783l0.983-1.672h0.063l0.324,1.672H22.852z M23.726,18.466L23.1,19.547h0.84L23.726,18.466z"/>
		<path d="M25.055,19.037c0.172-0.268,0.263-0.358,0.371-0.358c0.059,0,0.101,0.038,0.101,0.093c0,0.052-0.034,0.09-0.083,0.09
			c-0.047,0-0.069-0.042-0.128-0.042c-0.044,0-0.132,0.11-0.241,0.303c0,0.018,0.005,0.053,0.02,0.113l0.079,0.335
			c0.018,0.07,0.04,0.103,0.074,0.103c0.032,0,0.059-0.025,0.116-0.1c0.022-0.03,0.032-0.045,0.052-0.07l0.037,0.022
			c-0.143,0.225-0.207,0.285-0.3,0.285c-0.079,0-0.115-0.045-0.145-0.17l-0.071-0.298l-0.216,0.298
			c-0.108,0.147-0.157,0.17-0.233,0.17s-0.123-0.04-0.123-0.105c0-0.05,0.035-0.09,0.083-0.09c0.022,0,0.047,0.01,0.079,0.027
			c0.025,0.015,0.049,0.022,0.064,0.022c0.027,0,0.074-0.047,0.125-0.123l0.201-0.29l-0.069-0.311
			c-0.034-0.15-0.051-0.17-0.113-0.17c-0.02,0-0.049,0.005-0.096,0.017l-0.044,0.013l-0.007-0.04l0.027-0.01
			c0.15-0.055,0.231-0.072,0.288-0.072c0.062,0,0.091,0.045,0.125,0.215L25.055,19.037z"/>
		<path d="M25.504,20.061c0.13-0.085,0.187-0.158,0.187-0.225c0-0.025-0.01-0.043-0.049-0.073c-0.049-0.038-0.062-0.075-0.062-0.123
			c0-0.06,0.054-0.11,0.125-0.11c0.089,0,0.143,0.085,0.143,0.186c0,0.14-0.113,0.28-0.319,0.39L25.504,20.061z"/>
		<path d="M26.778,19.592c0.209-0.353,0.3-0.533,0.3-0.643c0-0.035-0.017-0.05-0.064-0.08c-0.049-0.032-0.064-0.057-0.064-0.097
			c0-0.055,0.042-0.093,0.099-0.093c0.074,0,0.127,0.062,0.127,0.138c0,0.143-0.118,0.418-0.322,0.763
			c-0.255,0.43-0.518,0.718-0.658,0.718c-0.074,0-0.125-0.042-0.125-0.108c0-0.055,0.042-0.1,0.096-0.1
			c0.086,0,0.086,0.07,0.15,0.07c0.032,0,0.062-0.02,0.118-0.083c0.044-0.048,0.155-0.195,0.174-0.228
			c0.015-0.03,0.024-0.06,0.024-0.087c0-0.1-0.135-0.661-0.201-0.831c-0.047-0.123-0.091-0.16-0.189-0.16
			c-0.027,0-0.049,0.002-0.076,0.01v-0.042c0.027-0.005,0.054-0.01,0.079-0.015c0.049-0.01,0.13-0.025,0.263-0.045h0.01
			c0.037,0,0.167,0.416,0.209,0.638L26.778,19.592z"/>
		<path d="M27.176,20.061c0.13-0.085,0.187-0.158,0.187-0.225c0-0.025-0.01-0.043-0.049-0.073c-0.049-0.038-0.062-0.075-0.062-0.123
			c0-0.06,0.054-0.11,0.125-0.11c0.089,0,0.143,0.085,0.143,0.186c0,0.14-0.113,0.28-0.319,0.39L27.176,20.061z"/>
		<path d="M28.13,18.712c0.054-0.177,0.096-0.315,0.177-0.433c0.074-0.107,0.175-0.193,0.325-0.193c0.12,0,0.211,0.065,0.211,0.155
			c0,0.055-0.046,0.107-0.103,0.107c-0.044,0-0.091-0.038-0.091-0.097c0-0.043,0.024-0.055,0.024-0.078
			c0-0.02-0.02-0.033-0.054-0.033c-0.137,0-0.228,0.175-0.299,0.57h0.263l-0.015,0.08h-0.266l-0.177,0.801
			c-0.103,0.463-0.268,0.708-0.491,0.708c-0.111,0-0.194-0.065-0.194-0.153c0-0.058,0.042-0.105,0.094-0.105
			c0.056,0,0.093,0.04,0.093,0.093c0,0.032-0.022,0.045-0.022,0.072c0,0.022,0.02,0.04,0.049,0.04c0.103,0,0.182-0.135,0.238-0.405
			l0.216-1.051h-0.224l0.017-0.08H28.13z"/>
		<path d="M29.256,18.146c-0.374,0.36-0.501,0.914-0.501,1.424c0,0.243,0.027,0.396,0.118,0.651l-0.044,0.015
			c-0.157-0.258-0.243-0.583-0.243-0.903c0-0.258,0.054-0.513,0.182-0.726c0.096-0.158,0.231-0.288,0.457-0.498L29.256,18.146z"/>
		<path d="M29.925,19.037c0.172-0.268,0.263-0.358,0.371-0.358c0.059,0,0.101,0.038,0.101,0.093c0,0.052-0.034,0.09-0.083,0.09
			c-0.047,0-0.069-0.042-0.128-0.042c-0.044,0-0.132,0.11-0.241,0.303c0,0.018,0.005,0.053,0.02,0.113l0.079,0.335
			c0.018,0.07,0.04,0.103,0.074,0.103c0.032,0,0.059-0.025,0.116-0.1c0.022-0.03,0.032-0.045,0.052-0.07l0.037,0.022
			c-0.143,0.225-0.207,0.285-0.3,0.285c-0.079,0-0.115-0.045-0.145-0.17l-0.071-0.298l-0.216,0.298
			c-0.108,0.147-0.157,0.17-0.233,0.17s-0.123-0.04-0.123-0.105c0-0.05,0.035-0.09,0.083-0.09c0.022,0,0.047,0.01,0.079,0.027
			c0.025,0.015,0.049,0.022,0.064,0.022c0.027,0,0.074-0.047,0.125-0.123l0.201-0.29l-0.069-0.311
			c-0.034-0.15-0.051-0.17-0.113-0.17c-0.02,0-0.049,0.005-0.096,0.017l-0.044,0.013l-0.007-0.04l0.027-0.01
			c0.15-0.055,0.231-0.072,0.288-0.072c0.062,0,0.091,0.045,0.125,0.215L29.925,19.037z"/>
		<path d="M31.299,19.232v0.551h-0.162v-0.551h-0.538v-0.165h0.538v-0.55h0.162v0.55h0.538v0.165H31.299z"/>
		<path d="M31.963,19.783l0.982-1.672h0.064l0.324,1.672H31.963z M32.838,18.466l-0.626,1.081h0.84L32.838,18.466z"/>
		<path d="M34.166,19.037c0.172-0.268,0.263-0.358,0.371-0.358c0.059,0,0.101,0.038,0.101,0.093c0,0.052-0.034,0.09-0.083,0.09
			c-0.047,0-0.069-0.042-0.128-0.042c-0.044,0-0.132,0.11-0.241,0.303c0,0.018,0.005,0.053,0.02,0.113l0.079,0.335
			c0.018,0.07,0.04,0.103,0.074,0.103c0.032,0,0.059-0.025,0.116-0.1c0.022-0.03,0.032-0.045,0.052-0.07l0.037,0.022
			c-0.143,0.225-0.207,0.285-0.3,0.285c-0.079,0-0.115-0.045-0.145-0.17l-0.071-0.298L33.83,19.64
			c-0.108,0.147-0.157,0.17-0.233,0.17s-0.123-0.04-0.123-0.105c0-0.05,0.035-0.09,0.083-0.09c0.022,0,0.047,0.01,0.079,0.027
			c0.025,0.015,0.049,0.022,0.064,0.022c0.027,0,0.074-0.047,0.125-0.123l0.201-0.29l-0.069-0.311
			c-0.034-0.15-0.051-0.17-0.113-0.17c-0.02,0-0.049,0.005-0.096,0.017l-0.044,0.013l-0.007-0.04l0.027-0.01
			c0.15-0.055,0.231-0.072,0.288-0.072c0.062,0,0.091,0.045,0.125,0.215L34.166,19.037z"/>
		<path d="M34.616,20.061c0.13-0.085,0.187-0.158,0.187-0.225c0-0.025-0.01-0.043-0.049-0.073c-0.049-0.038-0.062-0.075-0.062-0.123
			c0-0.06,0.054-0.11,0.125-0.11c0.089,0,0.143,0.085,0.143,0.186c0,0.14-0.113,0.28-0.319,0.39L34.616,20.061z"/>
		<path d="M35.889,19.592c0.209-0.353,0.3-0.533,0.3-0.643c0-0.035-0.017-0.05-0.064-0.08c-0.049-0.032-0.064-0.057-0.064-0.097
			c0-0.055,0.042-0.093,0.099-0.093c0.074,0,0.127,0.062,0.127,0.138c0,0.143-0.118,0.418-0.322,0.763
			c-0.255,0.43-0.518,0.718-0.658,0.718c-0.074,0-0.125-0.042-0.125-0.108c0-0.055,0.042-0.1,0.096-0.1
			c0.086,0,0.086,0.07,0.15,0.07c0.032,0,0.062-0.02,0.118-0.083c0.044-0.048,0.155-0.195,0.174-0.228
			c0.015-0.03,0.024-0.06,0.024-0.087c0-0.1-0.135-0.661-0.201-0.831c-0.047-0.123-0.091-0.16-0.189-0.16
			c-0.027,0-0.049,0.002-0.076,0.01v-0.042c0.027-0.005,0.054-0.01,0.079-0.015c0.049-0.01,0.13-0.025,0.263-0.045h0.01
			c0.037,0,0.167,0.416,0.209,0.638L35.889,19.592z"/>
		<path d="M36.796,18.108c0.115,0.21,0.155,0.308,0.196,0.493c0.03,0.14,0.047,0.285,0.047,0.42c0,0.253-0.069,0.49-0.191,0.706
			c-0.096,0.168-0.224,0.308-0.447,0.505l-0.032-0.037c0.206-0.223,0.297-0.391,0.38-0.656c0.076-0.24,0.121-0.528,0.121-0.763
			c0-0.25-0.037-0.453-0.121-0.656L36.796,18.108z"/>
		<path d="M37.612,18.108c0.115,0.21,0.155,0.308,0.196,0.493c0.03,0.14,0.047,0.285,0.047,0.42c0,0.253-0.069,0.49-0.191,0.706
			c-0.096,0.168-0.224,0.308-0.447,0.505l-0.032-0.037c0.206-0.223,0.297-0.391,0.38-0.656c0.076-0.24,0.121-0.528,0.121-0.763
			c0-0.25-0.037-0.453-0.121-0.656L37.612,18.108z"/>
	</g>
	<g>
	</g>
	<g>
	</g>
</g>
</svg>
