<?xml version="1.0" encoding="utf-8"?>
<!-- Generator: Adobe Illustrator 25.4.1, SVG Export Plug-In . SVG Version: 6.00 Build 0)  -->
<svg version="1.1" xmlns="http://www.w3.org/2000/svg" xmlns:xlink="http://www.w3.org/1999/xlink" x="0px" y="0px"
	 viewBox="0 0 78.883 58.043" enable-background="new 0 0 78.883 58.043" xml:space="preserve">
<g id="Graph_paper_slanted" opacity="0.5">
	<g id="Clipped_grid_00000003068028900943026870000011536296927355263674_">
		<defs>
			<polygon id="SVGID_1_" points="62.21,70.979 -48.689,70.979 9.642,12.649 120.541,12.649 			"/>
		</defs>
		<clipPath id="SVGID_00000162335442527344241400000006504104435177697207_">
			<use xlink:href="#SVGID_1_"  overflow="visible"/>
		</clipPath>
		
			<g id="Grid_00000142891597197125820610000009767860333217090727_" opacity="0.25" clip-path="url(#SVGID_00000162335442527344241400000006504104435177697207_)">
			<g id="Horizontal_1_mm_00000151508609497893311650000018408800186222605470_">
				
					<line fill="none" stroke="#00ABEB" stroke-width="0.15" stroke-miterlimit="10" x1="-19.888" y1="-16.49" x2="206.953" y2="-16.49"/>
				
					<line fill="none" stroke="#00ABEB" stroke-width="0.15" stroke-miterlimit="10" x1="-17.9" y1="-18.478" x2="208.941" y2="-18.478"/>
				
					<line fill="none" stroke="#00ABEB" stroke-width="0.15" stroke-miterlimit="10" x1="-137.177" y1="100.798" x2="89.664" y2="100.798"/>
				
					<line fill="none" stroke="#00ABEB" stroke-width="0.15" stroke-miterlimit="10" x1="-135.189" y1="98.81" x2="91.652" y2="98.81"/>
				
					<line fill="none" stroke="#00ABEB" stroke-width="0.15" stroke-miterlimit="10" x1="-133.201" y1="96.823" x2="93.64" y2="96.823"/>
				
					<line fill="none" stroke="#00ABEB" stroke-width="0.15" stroke-miterlimit="10" x1="-131.213" y1="94.835" x2="95.628" y2="94.835"/>
				
					<line fill="none" stroke="#00ABEB" stroke-width="0.15" stroke-miterlimit="10" x1="-129.225" y1="92.847" x2="97.616" y2="92.847"/>
				
					<line fill="none" stroke="#00ABEB" stroke-width="0.15" stroke-miterlimit="10" x1="-127.237" y1="90.859" x2="99.603" y2="90.859"/>
				
					<line fill="none" stroke="#00ABEB" stroke-width="0.15" stroke-miterlimit="10" x1="-125.249" y1="88.871" x2="101.592" y2="88.871"/>
				
					<line fill="none" stroke="#00ABEB" stroke-width="0.15" stroke-miterlimit="10" x1="-123.262" y1="86.883" x2="103.579" y2="86.883"/>
				
					<line fill="none" stroke="#00ABEB" stroke-width="0.15" stroke-miterlimit="10" x1="-121.273" y1="84.895" x2="105.568" y2="84.895"/>
				
					<line fill="none" stroke="#00ABEB" stroke-width="0.15" stroke-miterlimit="10" x1="-119.285" y1="82.907" x2="107.556" y2="82.907"/>
				
					<line fill="none" stroke="#00ABEB" stroke-width="0.15" stroke-miterlimit="10" x1="-117.298" y1="80.919" x2="109.543" y2="80.919"/>
				
					<line fill="none" stroke="#00ABEB" stroke-width="0.15" stroke-miterlimit="10" x1="-115.309" y1="78.931" x2="111.531" y2="78.931"/>
				
					<line fill="none" stroke="#00ABEB" stroke-width="0.15" stroke-miterlimit="10" x1="-113.321" y1="76.943" x2="113.52" y2="76.943"/>
				
					<line fill="none" stroke="#00ABEB" stroke-width="0.15" stroke-miterlimit="10" x1="-111.334" y1="74.956" x2="115.507" y2="74.956"/>
				
					<line fill="none" stroke="#00ABEB" stroke-width="0.15" stroke-miterlimit="10" x1="-109.346" y1="72.967" x2="117.495" y2="72.967"/>
				
					<line fill="none" stroke="#00ABEB" stroke-width="0.15" stroke-miterlimit="10" x1="-107.358" y1="70.979" x2="119.483" y2="70.979"/>
				
					<line fill="none" stroke="#00ABEB" stroke-width="0.15" stroke-miterlimit="10" x1="-105.37" y1="68.992" x2="121.471" y2="68.992"/>
				
					<line fill="none" stroke="#00ABEB" stroke-width="0.15" stroke-miterlimit="10" x1="-103.382" y1="67.004" x2="123.459" y2="67.004"/>
				
					<line fill="none" stroke="#00ABEB" stroke-width="0.15" stroke-miterlimit="10" x1="-101.394" y1="65.015" x2="125.447" y2="65.015"/>
				
					<line fill="none" stroke="#00ABEB" stroke-width="0.15" stroke-miterlimit="10" x1="-99.406" y1="63.028" x2="127.435" y2="63.028"/>
				
					<line fill="none" stroke="#00ABEB" stroke-width="0.15" stroke-miterlimit="10" x1="-97.418" y1="61.04" x2="129.423" y2="61.04"/>
				
					<line fill="none" stroke="#00ABEB" stroke-width="0.15" stroke-miterlimit="10" x1="-95.43" y1="59.051" x2="131.411" y2="59.051"/>
				
					<line fill="none" stroke="#00ABEB" stroke-width="0.15" stroke-miterlimit="10" x1="-93.442" y1="57.064" x2="133.399" y2="57.064"/>
				
					<line fill="none" stroke="#00ABEB" stroke-width="0.15" stroke-miterlimit="10" x1="-91.454" y1="55.076" x2="135.387" y2="55.076"/>
				
					<line fill="none" stroke="#00ABEB" stroke-width="0.15" stroke-miterlimit="10" x1="-89.466" y1="53.088" x2="137.374" y2="53.088"/>
				
					<line fill="none" stroke="#00ABEB" stroke-width="0.15" stroke-miterlimit="10" x1="-87.478" y1="51.1" x2="139.363" y2="51.1"/>
				
					<line fill="none" stroke="#00ABEB" stroke-width="0.15" stroke-miterlimit="10" x1="-85.49" y1="49.112" x2="141.351" y2="49.112"/>
				
					<line fill="none" stroke="#00ABEB" stroke-width="0.15" stroke-miterlimit="10" x1="-83.503" y1="47.124" x2="143.338" y2="47.124"/>
				
					<line fill="none" stroke="#00ABEB" stroke-width="0.15" stroke-miterlimit="10" x1="-81.514" y1="45.136" x2="145.326" y2="45.136"/>
				
					<line fill="none" stroke="#00ABEB" stroke-width="0.15" stroke-miterlimit="10" x1="-79.526" y1="43.148" x2="147.315" y2="43.148"/>
				
					<line fill="none" stroke="#00ABEB" stroke-width="0.15" stroke-miterlimit="10" x1="-77.539" y1="41.161" x2="149.302" y2="41.161"/>
				
					<line fill="none" stroke="#00ABEB" stroke-width="0.15" stroke-miterlimit="10" x1="-75.551" y1="39.173" x2="151.29" y2="39.173"/>
				
					<line fill="none" stroke="#00ABEB" stroke-width="0.15" stroke-miterlimit="10" x1="-73.562" y1="37.184" x2="153.278" y2="37.184"/>
				
					<line fill="none" stroke="#00ABEB" stroke-width="0.15" stroke-miterlimit="10" x1="-71.575" y1="35.197" x2="155.266" y2="35.197"/>
				
					<line fill="none" stroke="#00ABEB" stroke-width="0.15" stroke-miterlimit="10" x1="-69.587" y1="33.209" x2="157.254" y2="33.209"/>
				
					<line fill="none" stroke="#00ABEB" stroke-width="0.15" stroke-miterlimit="10" x1="-67.599" y1="31.221" x2="159.242" y2="31.221"/>
				
					<line fill="none" stroke="#00ABEB" stroke-width="0.15" stroke-miterlimit="10" x1="-65.611" y1="29.233" x2="161.23" y2="29.233"/>
				
					<line fill="none" stroke="#00ABEB" stroke-width="0.15" stroke-miterlimit="10" x1="-63.623" y1="27.245" x2="163.218" y2="27.245"/>
				
					<line fill="none" stroke="#00ABEB" stroke-width="0.15" stroke-miterlimit="10" x1="-61.635" y1="25.257" x2="165.206" y2="25.257"/>
				
					<line fill="none" stroke="#00ABEB" stroke-width="0.15" stroke-miterlimit="10" x1="-59.647" y1="23.269" x2="167.193" y2="23.269"/>
				
					<line fill="none" stroke="#00ABEB" stroke-width="0.15" stroke-miterlimit="10" x1="-57.659" y1="21.281" x2="169.182" y2="21.281"/>
				
					<line fill="none" stroke="#00ABEB" stroke-width="0.15" stroke-miterlimit="10" x1="-55.671" y1="19.293" x2="171.169" y2="19.293"/>
				
					<line fill="none" stroke="#00ABEB" stroke-width="0.15" stroke-miterlimit="10" x1="-53.683" y1="17.305" x2="173.158" y2="17.305"/>
				
					<line fill="none" stroke="#00ABEB" stroke-width="0.15" stroke-miterlimit="10" x1="-51.695" y1="15.317" x2="175.146" y2="15.317"/>
				
					<line fill="none" stroke="#00ABEB" stroke-width="0.15" stroke-miterlimit="10" x1="-49.708" y1="13.33" x2="177.133" y2="13.33"/>
				
					<line fill="none" stroke="#00ABEB" stroke-width="0.15" stroke-miterlimit="10" x1="-47.719" y1="11.341" x2="179.121" y2="11.341"/>
				
					<line fill="none" stroke="#00ABEB" stroke-width="0.15" stroke-miterlimit="10" x1="-45.731" y1="9.353" x2="181.11" y2="9.353"/>
				
					<line fill="none" stroke="#00ABEB" stroke-width="0.15" stroke-miterlimit="10" x1="-43.744" y1="7.366" x2="183.097" y2="7.366"/>
				
					<line fill="none" stroke="#00ABEB" stroke-width="0.15" stroke-miterlimit="10" x1="-41.756" y1="5.378" x2="185.085" y2="5.378"/>
				
					<line fill="none" stroke="#00ABEB" stroke-width="0.15" stroke-miterlimit="10" x1="-39.767" y1="3.389" x2="187.073" y2="3.389"/>
				
					<line fill="none" stroke="#00ABEB" stroke-width="0.15" stroke-miterlimit="10" x1="-37.78" y1="1.402" x2="189.061" y2="1.402"/>
				
					<line fill="none" stroke="#00ABEB" stroke-width="0.15" stroke-miterlimit="10" x1="-35.792" y1="-0.586" x2="191.049" y2="-0.586"/>
				
					<line fill="none" stroke="#00ABEB" stroke-width="0.15" stroke-miterlimit="10" x1="-33.804" y1="-2.574" x2="193.037" y2="-2.574"/>
				
					<line fill="none" stroke="#00ABEB" stroke-width="0.15" stroke-miterlimit="10" x1="-31.816" y1="-4.562" x2="195.025" y2="-4.562"/>
				
					<line fill="none" stroke="#00ABEB" stroke-width="0.15" stroke-miterlimit="10" x1="-29.828" y1="-6.55" x2="197.013" y2="-6.55"/>
				
					<line fill="none" stroke="#00ABEB" stroke-width="0.15" stroke-miterlimit="10" x1="-27.84" y1="-8.538" x2="199.001" y2="-8.538"/>
				
					<line fill="none" stroke="#00ABEB" stroke-width="0.15" stroke-miterlimit="10" x1="-25.852" y1="-10.526" x2="200.989" y2="-10.526"/>
				
					<line fill="none" stroke="#00ABEB" stroke-width="0.15" stroke-miterlimit="10" x1="-23.864" y1="-12.514" x2="202.977" y2="-12.514"/>
				
					<line fill="none" stroke="#00ABEB" stroke-width="0.15" stroke-miterlimit="10" x1="-21.876" y1="-14.501" x2="204.965" y2="-14.501"/>
			</g>
			<g id="Vertical_1_mm_00000181073523592228201180000012361058669048395659_">
				<g>
					
						<line fill="none" stroke="#00ABEB" stroke-width="0.15" stroke-miterlimit="10" x1="-137.092" y1="100.789" x2="-17.772" y2="-18.531"/>
				</g>
				
					<line fill="none" stroke="#00ABEB" stroke-width="0.15" stroke-miterlimit="10" x1="-134.258" y1="100.789" x2="-14.938" y2="-18.531"/>
				
					<line fill="none" stroke="#00ABEB" stroke-width="0.15" stroke-miterlimit="10" x1="-131.423" y1="100.789" x2="-12.103" y2="-18.531"/>
				
					<line fill="none" stroke="#00ABEB" stroke-width="0.15" stroke-miterlimit="10" x1="-128.588" y1="100.789" x2="-9.268" y2="-18.531"/>
				
					<line fill="none" stroke="#00ABEB" stroke-width="0.15" stroke-miterlimit="10" x1="-125.754" y1="100.789" x2="-6.434" y2="-18.531"/>
				
					<line fill="none" stroke="#00ABEB" stroke-width="0.15" stroke-miterlimit="10" x1="-122.919" y1="100.789" x2="-3.599" y2="-18.531"/>
				
					<line fill="none" stroke="#00ABEB" stroke-width="0.15" stroke-miterlimit="10" x1="-120.084" y1="100.789" x2="-0.764" y2="-18.531"/>
				
					<line fill="none" stroke="#00ABEB" stroke-width="0.15" stroke-miterlimit="10" x1="-117.25" y1="100.789" x2="2.07" y2="-18.531"/>
				
					<line fill="none" stroke="#00ABEB" stroke-width="0.15" stroke-miterlimit="10" x1="-114.415" y1="100.789" x2="4.905" y2="-18.531"/>
				
					<line fill="none" stroke="#00ABEB" stroke-width="0.15" stroke-miterlimit="10" x1="-111.581" y1="100.789" x2="7.739" y2="-18.531"/>
				
					<line fill="none" stroke="#00ABEB" stroke-width="0.15" stroke-miterlimit="10" x1="-108.746" y1="100.789" x2="10.574" y2="-18.531"/>
				
					<line fill="none" stroke="#00ABEB" stroke-width="0.15" stroke-miterlimit="10" x1="-105.911" y1="100.789" x2="13.409" y2="-18.531"/>
				
					<line fill="none" stroke="#00ABEB" stroke-width="0.15" stroke-miterlimit="10" x1="-103.077" y1="100.789" x2="16.243" y2="-18.531"/>
				
					<line fill="none" stroke="#00ABEB" stroke-width="0.15" stroke-miterlimit="10" x1="-100.242" y1="100.789" x2="19.078" y2="-18.531"/>
				
					<line fill="none" stroke="#00ABEB" stroke-width="0.15" stroke-miterlimit="10" x1="-97.407" y1="100.789" x2="21.913" y2="-18.531"/>
				
					<line fill="none" stroke="#00ABEB" stroke-width="0.15" stroke-miterlimit="10" x1="-94.573" y1="100.789" x2="24.747" y2="-18.531"/>
				
					<line fill="none" stroke="#00ABEB" stroke-width="0.15" stroke-miterlimit="10" x1="-91.738" y1="100.789" x2="27.582" y2="-18.531"/>
				
					<line fill="none" stroke="#00ABEB" stroke-width="0.15" stroke-miterlimit="10" x1="-88.903" y1="100.789" x2="30.417" y2="-18.531"/>
				
					<line fill="none" stroke="#00ABEB" stroke-width="0.15" stroke-miterlimit="10" x1="-86.069" y1="100.789" x2="33.251" y2="-18.531"/>
				
					<line fill="none" stroke="#00ABEB" stroke-width="0.15" stroke-miterlimit="10" x1="-83.234" y1="100.789" x2="36.086" y2="-18.531"/>
				
					<line fill="none" stroke="#00ABEB" stroke-width="0.15" stroke-miterlimit="10" x1="-80.399" y1="100.789" x2="38.921" y2="-18.531"/>
				
					<line fill="none" stroke="#00ABEB" stroke-width="0.15" stroke-miterlimit="10" x1="-77.565" y1="100.789" x2="41.755" y2="-18.531"/>
				
					<line fill="none" stroke="#00ABEB" stroke-width="0.15" stroke-miterlimit="10" x1="-74.73" y1="100.789" x2="44.59" y2="-18.531"/>
				
					<line fill="none" stroke="#00ABEB" stroke-width="0.15" stroke-miterlimit="10" x1="-71.895" y1="100.789" x2="47.425" y2="-18.531"/>
				
					<line fill="none" stroke="#00ABEB" stroke-width="0.15" stroke-miterlimit="10" x1="-69.061" y1="100.789" x2="50.259" y2="-18.531"/>
				
					<line fill="none" stroke="#00ABEB" stroke-width="0.15" stroke-miterlimit="10" x1="-66.226" y1="100.789" x2="53.094" y2="-18.531"/>
				
					<line fill="none" stroke="#00ABEB" stroke-width="0.15" stroke-miterlimit="10" x1="-63.392" y1="100.789" x2="55.928" y2="-18.531"/>
				
					<line fill="none" stroke="#00ABEB" stroke-width="0.15" stroke-miterlimit="10" x1="-60.557" y1="100.789" x2="58.763" y2="-18.531"/>
				
					<line fill="none" stroke="#00ABEB" stroke-width="0.15" stroke-miterlimit="10" x1="-57.722" y1="100.789" x2="61.598" y2="-18.531"/>
				
					<line fill="none" stroke="#00ABEB" stroke-width="0.15" stroke-miterlimit="10" x1="-54.888" y1="100.789" x2="64.432" y2="-18.531"/>
				
					<line fill="none" stroke="#00ABEB" stroke-width="0.15" stroke-miterlimit="10" x1="-52.053" y1="100.789" x2="67.267" y2="-18.531"/>
				
					<line fill="none" stroke="#00ABEB" stroke-width="0.15" stroke-miterlimit="10" x1="-49.218" y1="100.789" x2="70.102" y2="-18.531"/>
				
					<line fill="none" stroke="#00ABEB" stroke-width="0.15" stroke-miterlimit="10" x1="-46.384" y1="100.789" x2="72.936" y2="-18.531"/>
				
					<line fill="none" stroke="#00ABEB" stroke-width="0.15" stroke-miterlimit="10" x1="-43.549" y1="100.789" x2="75.771" y2="-18.531"/>
				
					<line fill="none" stroke="#00ABEB" stroke-width="0.15" stroke-miterlimit="10" x1="-40.714" y1="100.789" x2="78.606" y2="-18.531"/>
				
					<line fill="none" stroke="#00ABEB" stroke-width="0.15" stroke-miterlimit="10" x1="-37.88" y1="100.789" x2="81.44" y2="-18.531"/>
				
					<line fill="none" stroke="#00ABEB" stroke-width="0.15" stroke-miterlimit="10" x1="-35.045" y1="100.789" x2="84.275" y2="-18.531"/>
				
					<line fill="none" stroke="#00ABEB" stroke-width="0.15" stroke-miterlimit="10" x1="-32.21" y1="100.789" x2="87.11" y2="-18.531"/>
				
					<line fill="none" stroke="#00ABEB" stroke-width="0.15" stroke-miterlimit="10" x1="-29.376" y1="100.789" x2="89.944" y2="-18.531"/>
				
					<line fill="none" stroke="#00ABEB" stroke-width="0.15" stroke-miterlimit="10" x1="-26.541" y1="100.789" x2="92.779" y2="-18.531"/>
				
					<line fill="none" stroke="#00ABEB" stroke-width="0.15" stroke-miterlimit="10" x1="-23.707" y1="100.789" x2="95.613" y2="-18.531"/>
				
					<line fill="none" stroke="#00ABEB" stroke-width="0.15" stroke-miterlimit="10" x1="-20.872" y1="100.789" x2="98.448" y2="-18.531"/>
				
					<line fill="none" stroke="#00ABEB" stroke-width="0.15" stroke-miterlimit="10" x1="-18.037" y1="100.789" x2="101.283" y2="-18.531"/>
				
					<line fill="none" stroke="#00ABEB" stroke-width="0.15" stroke-miterlimit="10" x1="-15.203" y1="100.789" x2="104.117" y2="-18.531"/>
				
					<line fill="none" stroke="#00ABEB" stroke-width="0.15" stroke-miterlimit="10" x1="-12.368" y1="100.789" x2="106.952" y2="-18.531"/>
				
					<line fill="none" stroke="#00ABEB" stroke-width="0.15" stroke-miterlimit="10" x1="-9.533" y1="100.789" x2="109.787" y2="-18.531"/>
				
					<line fill="none" stroke="#00ABEB" stroke-width="0.15" stroke-miterlimit="10" x1="-6.699" y1="100.789" x2="112.621" y2="-18.531"/>
				
					<line fill="none" stroke="#00ABEB" stroke-width="0.15" stroke-miterlimit="10" x1="-3.864" y1="100.789" x2="115.456" y2="-18.531"/>
				
					<line fill="none" stroke="#00ABEB" stroke-width="0.15" stroke-miterlimit="10" x1="-1.029" y1="100.789" x2="118.291" y2="-18.531"/>
				
					<line fill="none" stroke="#00ABEB" stroke-width="0.15" stroke-miterlimit="10" x1="1.805" y1="100.789" x2="121.125" y2="-18.531"/>
				
					<line fill="none" stroke="#00ABEB" stroke-width="0.15" stroke-miterlimit="10" x1="4.64" y1="100.789" x2="123.96" y2="-18.531"/>
				
					<line fill="none" stroke="#00ABEB" stroke-width="0.15" stroke-miterlimit="10" x1="7.475" y1="100.789" x2="126.795" y2="-18.531"/>
				
					<line fill="none" stroke="#00ABEB" stroke-width="0.15" stroke-miterlimit="10" x1="10.309" y1="100.789" x2="129.629" y2="-18.531"/>
				
					<line fill="none" stroke="#00ABEB" stroke-width="0.15" stroke-miterlimit="10" x1="13.144" y1="100.789" x2="132.464" y2="-18.531"/>
				
					<line fill="none" stroke="#00ABEB" stroke-width="0.15" stroke-miterlimit="10" x1="15.979" y1="100.789" x2="135.299" y2="-18.531"/>
				
					<line fill="none" stroke="#00ABEB" stroke-width="0.15" stroke-miterlimit="10" x1="18.813" y1="100.789" x2="138.133" y2="-18.531"/>
				
					<line fill="none" stroke="#00ABEB" stroke-width="0.15" stroke-miterlimit="10" x1="21.648" y1="100.789" x2="140.968" y2="-18.531"/>
				
					<line fill="none" stroke="#00ABEB" stroke-width="0.15" stroke-miterlimit="10" x1="24.482" y1="100.789" x2="143.802" y2="-18.531"/>
				
					<line fill="none" stroke="#00ABEB" stroke-width="0.15" stroke-miterlimit="10" x1="27.317" y1="100.789" x2="146.637" y2="-18.531"/>
				
					<line fill="none" stroke="#00ABEB" stroke-width="0.15" stroke-miterlimit="10" x1="30.152" y1="100.789" x2="149.472" y2="-18.531"/>
				
					<line fill="none" stroke="#00ABEB" stroke-width="0.15" stroke-miterlimit="10" x1="32.986" y1="100.789" x2="152.306" y2="-18.531"/>
				
					<line fill="none" stroke="#00ABEB" stroke-width="0.15" stroke-miterlimit="10" x1="35.821" y1="100.789" x2="155.141" y2="-18.531"/>
				
					<line fill="none" stroke="#00ABEB" stroke-width="0.15" stroke-miterlimit="10" x1="38.656" y1="100.789" x2="157.976" y2="-18.531"/>
				
					<line fill="none" stroke="#00ABEB" stroke-width="0.15" stroke-miterlimit="10" x1="41.49" y1="100.789" x2="160.81" y2="-18.531"/>
				
					<line fill="none" stroke="#00ABEB" stroke-width="0.15" stroke-miterlimit="10" x1="44.325" y1="100.789" x2="163.645" y2="-18.531"/>
				
					<line fill="none" stroke="#00ABEB" stroke-width="0.15" stroke-miterlimit="10" x1="47.16" y1="100.789" x2="166.48" y2="-18.531"/>
				
					<line fill="none" stroke="#00ABEB" stroke-width="0.15" stroke-miterlimit="10" x1="49.994" y1="100.789" x2="169.314" y2="-18.531"/>
				
					<line fill="none" stroke="#00ABEB" stroke-width="0.15" stroke-miterlimit="10" x1="52.829" y1="100.789" x2="172.149" y2="-18.531"/>
				
					<line fill="none" stroke="#00ABEB" stroke-width="0.15" stroke-miterlimit="10" x1="55.664" y1="100.789" x2="174.984" y2="-18.531"/>
				
					<line fill="none" stroke="#00ABEB" stroke-width="0.15" stroke-miterlimit="10" x1="58.498" y1="100.789" x2="177.818" y2="-18.531"/>
				
					<line fill="none" stroke="#00ABEB" stroke-width="0.15" stroke-miterlimit="10" x1="61.333" y1="100.789" x2="180.653" y2="-18.531"/>
				
					<line fill="none" stroke="#00ABEB" stroke-width="0.15" stroke-miterlimit="10" x1="64.168" y1="100.789" x2="183.488" y2="-18.531"/>
				
					<line fill="none" stroke="#00ABEB" stroke-width="0.15" stroke-miterlimit="10" x1="67.002" y1="100.789" x2="186.322" y2="-18.531"/>
				
					<line fill="none" stroke="#00ABEB" stroke-width="0.15" stroke-miterlimit="10" x1="69.837" y1="100.789" x2="189.157" y2="-18.531"/>
				
					<line fill="none" stroke="#00ABEB" stroke-width="0.15" stroke-miterlimit="10" x1="72.671" y1="100.789" x2="191.991" y2="-18.531"/>
				
					<line fill="none" stroke="#00ABEB" stroke-width="0.15" stroke-miterlimit="10" x1="75.506" y1="100.789" x2="194.826" y2="-18.531"/>
				
					<line fill="none" stroke="#00ABEB" stroke-width="0.15" stroke-miterlimit="10" x1="78.341" y1="100.789" x2="197.661" y2="-18.531"/>
				
					<line fill="none" stroke="#00ABEB" stroke-width="0.15" stroke-miterlimit="10" x1="81.175" y1="100.789" x2="200.495" y2="-18.531"/>
				
					<line fill="none" stroke="#00ABEB" stroke-width="0.15" stroke-miterlimit="10" x1="84.01" y1="100.789" x2="203.33" y2="-18.531"/>
				
					<line fill="none" stroke="#00ABEB" stroke-width="0.15" stroke-miterlimit="10" x1="86.845" y1="100.789" x2="206.165" y2="-18.531"/>
				
					<line fill="none" stroke="#00ABEB" stroke-width="0.15" stroke-miterlimit="10" x1="89.679" y1="100.789" x2="208.999" y2="-18.531"/>
			</g>
			<g id="Horizontal_5_mm_00000011735556503592991880000008134099091165005186_">
				
					<line fill="none" stroke="#00ABEB" stroke-width="0.3" stroke-miterlimit="10" x1="-137.452" y1="100.798" x2="89.664" y2="100.798"/>
				
					<line fill="none" stroke="#00ABEB" stroke-width="0.3" stroke-miterlimit="10" x1="-127.512" y1="90.859" x2="99.603" y2="90.859"/>
				
					<line fill="none" stroke="#00ABEB" stroke-width="0.3" stroke-miterlimit="10" x1="-117.573" y1="80.919" x2="109.543" y2="80.919"/>
				
					<line fill="none" stroke="#00ABEB" stroke-width="0.3" stroke-miterlimit="10" x1="-107.632" y1="70.979" x2="119.483" y2="70.979"/>
				
					<line fill="none" stroke="#00ABEB" stroke-width="0.3" stroke-miterlimit="10" x1="-97.693" y1="61.04" x2="129.423" y2="61.04"/>
				<line fill="none" stroke="#00ABEB" stroke-width="0.3" stroke-miterlimit="10" x1="-87.753" y1="51.1" x2="139.363" y2="51.1"/>
				
					<line fill="none" stroke="#00ABEB" stroke-width="0.3" stroke-miterlimit="10" x1="-77.814" y1="41.161" x2="149.302" y2="41.161"/>
				
					<line fill="none" stroke="#00ABEB" stroke-width="0.3" stroke-miterlimit="10" x1="-67.874" y1="31.221" x2="159.242" y2="31.221"/>
				
					<line fill="none" stroke="#00ABEB" stroke-width="0.3" stroke-miterlimit="10" x1="-57.934" y1="21.281" x2="169.182" y2="21.281"/>
				
					<line fill="none" stroke="#00ABEB" stroke-width="0.3" stroke-miterlimit="10" x1="-47.994" y1="11.341" x2="179.121" y2="11.341"/>
				
					<line fill="none" stroke="#00ABEB" stroke-width="0.3" stroke-miterlimit="10" x1="-38.055" y1="1.402" x2="189.061" y2="1.402"/>
			</g>
			<g id="Vertical_5_mm_00000064346364918789686960000003233481195482251947_">
				
					<line fill="none" stroke="#00ABEB" stroke-width="0.3" stroke-miterlimit="10" x1="-137.092" y1="100.789" x2="-17.579" y2="-18.723"/>
				
					<line fill="none" stroke="#00ABEB" stroke-width="0.3" stroke-miterlimit="10" x1="-122.919" y1="100.789" x2="-3.406" y2="-18.723"/>
				
					<line fill="none" stroke="#00ABEB" stroke-width="0.3" stroke-miterlimit="10" x1="-108.746" y1="100.789" x2="10.767" y2="-18.723"/>
				
					<line fill="none" stroke="#00ABEB" stroke-width="0.3" stroke-miterlimit="10" x1="-94.573" y1="100.789" x2="24.94" y2="-18.723"/>
				
					<line fill="none" stroke="#00ABEB" stroke-width="0.3" stroke-miterlimit="10" x1="-80.399" y1="100.789" x2="39.114" y2="-18.723"/>
				
					<line fill="none" stroke="#00ABEB" stroke-width="0.3" stroke-miterlimit="10" x1="-66.226" y1="100.789" x2="53.287" y2="-18.723"/>
				
					<line fill="none" stroke="#00ABEB" stroke-width="0.3" stroke-miterlimit="10" x1="-52.053" y1="100.789" x2="67.46" y2="-18.723"/>
				
					<line fill="none" stroke="#00ABEB" stroke-width="0.3" stroke-miterlimit="10" x1="-37.88" y1="100.789" x2="81.633" y2="-18.723"/>
				
					<line fill="none" stroke="#00ABEB" stroke-width="0.3" stroke-miterlimit="10" x1="-23.707" y1="100.789" x2="95.805" y2="-18.723"/>
				
					<line fill="none" stroke="#00ABEB" stroke-width="0.3" stroke-miterlimit="10" x1="-9.533" y1="100.789" x2="109.98" y2="-18.723"/>
				
					<line fill="none" stroke="#00ABEB" stroke-width="0.3" stroke-miterlimit="10" x1="4.64" y1="100.789" x2="124.153" y2="-18.723"/>
				
					<line fill="none" stroke="#00ABEB" stroke-width="0.3" stroke-miterlimit="10" x1="18.813" y1="100.789" x2="138.325" y2="-18.723"/>
				
					<line fill="none" stroke="#00ABEB" stroke-width="0.3" stroke-miterlimit="10" x1="32.986" y1="100.789" x2="152.499" y2="-18.723"/>
				
					<line fill="none" stroke="#00ABEB" stroke-width="0.3" stroke-miterlimit="10" x1="47.16" y1="100.789" x2="166.673" y2="-18.723"/>
				
					<line fill="none" stroke="#00ABEB" stroke-width="0.3" stroke-miterlimit="10" x1="61.333" y1="100.789" x2="180.846" y2="-18.723"/>
				
					<line fill="none" stroke="#00ABEB" stroke-width="0.3" stroke-miterlimit="10" x1="75.506" y1="100.789" x2="195.019" y2="-18.723"/>
				
					<line fill="none" stroke="#00ABEB" stroke-width="0.3" stroke-miterlimit="10" x1="89.679" y1="100.789" x2="209.192" y2="-18.723"/>
			</g>
			<g id="Horizontal_10_mm_00000163045836177147705350000008480455355013810362_">
				
					<line id="_x31_9_00000057116790517712807720000015084113881736219806_" fill="none" stroke="#00ABEB" stroke-width="0.7" stroke-miterlimit="10" x1="-137.452" y1="100.798" x2="89.664" y2="100.798"/>
				
					<line id="_x32_0_00000024685878617286333290000013167547815532084100_" fill="none" stroke="#00ABEB" stroke-width="0.7" stroke-miterlimit="10" x1="-117.573" y1="80.919" x2="109.543" y2="80.919"/>
				
					<line id="_x32_1_00000138564813020868535020000012777939180148238773_" fill="none" stroke="#00ABEB" stroke-width="0.7" stroke-miterlimit="10" x1="-97.693" y1="61.04" x2="129.423" y2="61.04"/>
				
					<line id="_x32_2_00000052807586205252870140000014502512662559454639_" fill="none" stroke="#00ABEB" stroke-width="0.7" stroke-miterlimit="10" x1="-77.814" y1="41.161" x2="149.302" y2="41.161"/>
				
					<line id="_x32_3_00000051376893246677475670000009295515732899575694_" fill="none" stroke="#00ABEB" stroke-width="0.7" stroke-miterlimit="10" x1="-57.934" y1="21.281" x2="169.182" y2="21.281"/>
				
					<line id="_x32_4_00000099657911357833521510000007853591198542098087_" fill="none" stroke="#00ABEB" stroke-width="0.7" stroke-miterlimit="10" x1="-38.055" y1="1.402" x2="189.061" y2="1.402"/>
				
					<line id="_x32_5_00000155127691660191171140000008292164438978366870_" fill="none" stroke="#00ABEB" stroke-width="0.7" stroke-miterlimit="10" x1="-18.175" y1="-18.478" x2="208.941" y2="-18.478"/>
			</g>
			<g id="Vertical_10_mm_00000134969164297783457920000010833503864539426239_">
				
					<line id="_x30__00000151539528360119995570000005083818057555393183_" fill="none" stroke="#00ABEB" stroke-width="0.7" stroke-miterlimit="10" x1="-137.092" y1="100.789" x2="-17.579" y2="-18.723"/>
				
					<line id="_x31__00000021823889366233599640000011971139016478256513_" fill="none" stroke="#00ABEB" stroke-width="0.7" stroke-miterlimit="10" x1="-108.746" y1="100.789" x2="10.767" y2="-18.723"/>
				
					<line id="_x32__00000071550223824624162640000006130814236846722696_" fill="none" stroke="#00ABEB" stroke-width="0.7" stroke-miterlimit="10" x1="-80.399" y1="100.789" x2="39.114" y2="-18.723"/>
				
					<line id="_x33__00000042015976804734918030000005045165563697445304_" fill="none" stroke="#00ABEB" stroke-width="0.7" stroke-miterlimit="10" x1="-52.053" y1="100.789" x2="67.46" y2="-18.723"/>
				
					<line id="_x34__00000081637789328126233800000002486991317463304126_" fill="none" stroke="#00ABEB" stroke-width="0.7" stroke-miterlimit="10" x1="-23.707" y1="100.789" x2="95.805" y2="-18.723"/>
				
					<line id="_x35__00000051353690731882489090000004794744233340785543_" fill="none" stroke="#00ABEB" stroke-width="0.7" stroke-miterlimit="10" x1="4.64" y1="100.789" x2="124.153" y2="-18.723"/>
				
					<line id="_x36__00000011745311307505536660000010485558803267122343_" fill="none" stroke="#00ABEB" stroke-width="0.7" stroke-miterlimit="10" x1="32.986" y1="100.789" x2="152.499" y2="-18.723"/>
				
					<line id="_x37__00000045602144989735358580000003937589459941247142_" fill="none" stroke="#00ABEB" stroke-width="0.7" stroke-miterlimit="10" x1="61.333" y1="100.789" x2="180.846" y2="-18.723"/>
				
					<line id="_x38__00000047029857857898873560000014194396358708286345_" fill="none" stroke="#00ABEB" stroke-width="0.7" stroke-miterlimit="10" x1="89.679" y1="100.789" x2="209.192" y2="-18.723"/>
			</g>
		</g>
	</g>
</g>
<g id="Axis">
	<g id="lines">
		<g>
			<g>
				<line fill="none" stroke="#000000" stroke-width="0.2" stroke-miterlimit="10" x1="35.925" y1="24.63" x2="35.925" y2="2.151"/>
				<g>
					<polygon points="36.666,2.713 35.925,2.398 35.184,2.713 35.925,0.957 					"/>
				</g>
			</g>
		</g>
		<line fill="none" stroke="#000000" stroke-width="0.2" stroke-miterlimit="10" x1="35.925" y1="41.151" x2="35.925" y2="35.49"/>
		<g>
			<g>
				
					<line fill="none" stroke="#000000" stroke-width="0.2" stroke-miterlimit="10" x1="35.925" y1="41.151" x2="35.925" y2="40.151"/>
				
					<line fill="none" stroke="#000000" stroke-width="0.2" stroke-miterlimit="10" stroke-dasharray="1.9474,1.9474" x1="35.925" y1="38.203" x2="35.925" y2="4.125"/>
				<line fill="none" stroke="#000000" stroke-width="0.2" stroke-miterlimit="10" x1="35.925" y1="3.151" x2="35.925" y2="2.151"/>
				<g>
					<polygon points="36.666,2.713 35.925,2.398 35.184,2.713 35.925,0.957 					"/>
				</g>
			</g>
		</g>
		<g>
			<g>
				
					<line fill="none" stroke="#000000" stroke-width="0.2" stroke-miterlimit="10" x1="35.925" y1="41.151" x2="75.922" y2="41.151"/>
				<g>
					<polygon points="75.36,41.891 75.675,41.151 75.36,40.41 77.116,41.151 					"/>
				</g>
			</g>
		</g>
		<g>
			<g>
				
					<line fill="none" stroke="#000000" stroke-width="0.2" stroke-miterlimit="10" x1="35.925" y1="41.151" x2="21.49" y2="55.586"/>
				<g>
					<polygon points="21.363,54.665 21.664,55.412 22.41,55.713 20.645,56.431 					"/>
				</g>
			</g>
		</g>
	</g>
	<g id="names">
		<g>
			<path d="M74.912,46.553c0.51-0.846,0.732-1.277,0.732-1.542c0-0.084-0.042-0.12-0.156-0.192c-0.12-0.078-0.156-0.138-0.156-0.234
				c0-0.132,0.102-0.222,0.24-0.222c0.18,0,0.312,0.15,0.312,0.33c0,0.342-0.288,1.001-0.786,1.829
				c-0.624,1.032-1.265,1.721-1.607,1.721c-0.18,0-0.306-0.102-0.306-0.258c0-0.132,0.102-0.24,0.234-0.24
				c0.21,0,0.21,0.167,0.366,0.167c0.078,0,0.15-0.048,0.288-0.198c0.108-0.114,0.378-0.468,0.426-0.545
				c0.036-0.072,0.06-0.144,0.06-0.21c0-0.24-0.33-1.583-0.492-1.991c-0.114-0.293-0.222-0.384-0.462-0.384
				c-0.066,0-0.12,0.006-0.186,0.024v-0.102c0.066-0.012,0.132-0.024,0.192-0.036c0.12-0.024,0.318-0.06,0.642-0.108h0.024
				c0.09,0,0.408,0.996,0.51,1.529L74.912,46.553z"/>
		</g>
		<g>
			<path d="M31.06,3.199c0.348,0.078,0.479,0.144,0.719,0.498c0.156,0.228,0.27,0.3,0.42,0.3c0.096,0,0.162-0.036,0.162-0.09
				c0-0.024-0.012-0.054-0.03-0.09c-0.036-0.072-0.048-0.12-0.048-0.167c0.006-0.102,0.102-0.204,0.198-0.204
				c0.126,0,0.21,0.09,0.21,0.222c0,0.24-0.222,0.456-0.558,0.456c-0.174,0-0.378-0.078-0.678-0.264
				c-0.282-0.174-0.474-0.251-0.629-0.251c-0.096,0-0.174,0.03-0.27,0.108l-0.054-0.054l1.859-2.231h-0.816
				c-0.312,0-0.426,0.054-0.545,0.36l-0.096-0.024l0.192-0.695h1.697v0.066L31.06,3.199z"/>
		</g>
		<g>
			<path d="M17.689,53.648c0.419-0.642,0.642-0.857,0.905-0.857c0.144,0,0.246,0.09,0.246,0.222c0,0.126-0.084,0.216-0.204,0.216
				c-0.114,0-0.168-0.102-0.312-0.102c-0.108,0-0.324,0.264-0.588,0.726c0,0.042,0.012,0.126,0.048,0.27l0.192,0.804
				c0.042,0.168,0.096,0.246,0.18,0.246c0.078,0,0.144-0.06,0.282-0.24c0.054-0.072,0.078-0.108,0.126-0.168l0.09,0.054
				c-0.348,0.54-0.504,0.684-0.731,0.684c-0.192,0-0.282-0.108-0.354-0.408l-0.174-0.714l-0.528,0.714
				c-0.264,0.354-0.384,0.408-0.57,0.408c-0.186,0-0.3-0.096-0.3-0.252c0-0.12,0.084-0.216,0.204-0.216
				c0.054,0,0.114,0.024,0.192,0.066c0.06,0.036,0.12,0.054,0.156,0.054c0.066,0,0.18-0.114,0.306-0.294l0.492-0.696l-0.168-0.743
				c-0.084-0.36-0.126-0.408-0.276-0.408c-0.048,0-0.12,0.012-0.234,0.042l-0.108,0.03l-0.018-0.096l0.066-0.024
				c0.366-0.132,0.564-0.174,0.702-0.174c0.15,0,0.222,0.108,0.306,0.516L17.689,53.648z"/>
		</g>
	</g>
</g>
<g id="plane_horz">
	<polygon opacity="0.05" fill="#FF0000" points="48.404,35.49 1.969,35.49 23.447,13.771 69.883,13.771 	"/>
	<g>
		<g>
			<polyline fill="none" stroke="#FF0000" stroke-width="0.4" stroke-miterlimit="10" points="49.108,34.779 48.404,35.49 
				47.404,35.49 			"/>
			
				<line fill="none" stroke="#FF0000" stroke-width="0.4" stroke-miterlimit="10" stroke-dasharray="1.932,1.932" x1="45.472" y1="35.49" x2="3.935" y2="35.49"/>
			<polyline fill="none" stroke="#FF0000" stroke-width="0.4" stroke-miterlimit="10" points="2.969,35.49 1.969,35.49 
				2.672,34.779 			"/>
			
				<line fill="none" stroke="#FF0000" stroke-width="0.4" stroke-miterlimit="10" stroke-dasharray="1.9031,1.9031" x1="4.01" y1="33.425" x2="22.075" y2="15.158"/>
			<polyline fill="none" stroke="#FF0000" stroke-width="0.4" stroke-miterlimit="10" points="22.744,14.482 23.447,13.771 
				24.447,13.771 			"/>
			
				<line fill="none" stroke="#FF0000" stroke-width="0.4" stroke-miterlimit="10" stroke-dasharray="1.932,1.932" x1="26.379" y1="13.771" x2="67.917" y2="13.771"/>
			<polyline fill="none" stroke="#FF0000" stroke-width="0.4" stroke-miterlimit="10" points="68.883,13.771 69.883,13.771 
				69.18,14.482 			"/>
			
				<line fill="none" stroke="#FF0000" stroke-width="0.4" stroke-miterlimit="10" stroke-dasharray="1.9031,1.9031" x1="67.842" y1="15.835" x2="49.777" y2="34.102"/>
		</g>
	</g>
	<polyline fill="none" stroke="#FF0000" stroke-width="0.4" stroke-miterlimit="10" points="69.883,13.771 48.404,35.49 
		1.969,35.49 23.447,13.771 	"/>
</g>
<g id="n">
	<g>
		<g>
			<g>
				
					<line fill="none" stroke="#00A300" stroke-width="0.3" stroke-miterlimit="10" x1="49.782" y1="25.65" x2="50.008" y2="15.292"/>
				<g>
					<polygon fill="#00A300" points="51.213,16.312 50.989,16.512 50.006,15.407 48.975,16.468 48.76,16.259 50.015,14.966 					"/>
				</g>
			</g>
		</g>
		
			<polyline fill="none" stroke="#00A300" stroke-width="0.1" stroke-linecap="round" stroke-linejoin="round" stroke-miterlimit="10" points="
			49.803,24.64 50.639,24.666 50.639,24.666 50.597,25.595 		"/>
		<g>
			<g>
				
					<line fill="none" stroke="#00A300" stroke-width="0.3" stroke-miterlimit="10" stroke-dasharray="2,2" x1="49.779" y1="26.077" x2="49.553" y2="36.435"/>
				<g>
					<polygon fill="#00A300" points="48.348,35.415 48.573,35.215 49.556,36.32 50.586,35.259 50.801,35.468 49.546,36.761 					"/>
				</g>
			</g>
		</g>
	</g>
	<g>
		<path fill="#00B200" d="M51.317,8.747l-0.851-1.72H50.46l-0.845,1.72H49.21l1.077-2.172h0.357l1.077,2.172H51.317z"/>
	</g>
	<g>
		<path fill="#00B200" d="M51.555,11.246c-0.405,0.553-0.554,0.672-0.833,0.672c-0.149,0-0.28-0.095-0.28-0.321
			c0-0.06,0.012-0.137,0.095-0.447l0.262-0.964c0.048-0.185,0.083-0.398,0.083-0.47c0-0.107-0.054-0.172-0.143-0.172
			c-0.238,0-0.506,0.292-0.881,0.845c-0.268,0.399-0.315,0.536-0.595,1.476h-0.446l0.571-2.083c0.006-0.03,0.012-0.065,0.012-0.101
			c0-0.119-0.083-0.155-0.387-0.161V9.425c0.482-0.095,0.648-0.119,0.964-0.185l0.024,0.012l-0.399,1.297
			c0.595-0.952,0.994-1.31,1.375-1.31c0.256,0,0.387,0.149,0.387,0.363c0,0.107-0.024,0.232-0.06,0.357l-0.333,1.208
			c-0.059,0.214-0.083,0.315-0.083,0.363c0,0.054,0.024,0.107,0.095,0.107c0.083,0,0.19-0.095,0.363-0.315
			c0.042-0.048,0.083-0.101,0.125-0.155L51.555,11.246z"/>
	</g>
</g>
<g id="dS_00000110451656131335502790000008191707360157794199_">
	<polygon opacity="0.1" fill="#FF0000" points="50.537,27.097 52.976,24.63 52.976,24.63 49.113,24.63 46.673,27.097 46.673,27.097 
		50.537,27.097 	"/>
	<polygon fill="none" stroke="#FF0000" stroke-width="0.1" stroke-miterlimit="10" points="50.537,27.097 52.976,24.63 
		52.976,24.63 49.113,24.63 46.673,27.097 46.673,27.097 50.537,27.097 	"/>
	<g>
		<path fill="#FF0000" d="M42.323,23.662l2.398-4.006h0.156l0.792,4.006H42.323z M44.458,20.508l-1.529,2.591h2.051L44.458,20.508z"
			/>
		<path fill="#FF0000" d="M48.987,20.862l-0.108-0.018c0-0.612-0.132-0.978-0.714-0.978c-0.414,0-0.671,0.222-0.671,0.6
			c0,0.294,0.048,0.39,0.593,0.936c0.546,0.552,0.678,0.81,0.678,1.199c0,0.684-0.521,1.169-1.211,1.169
			c-0.186,0-0.348-0.042-0.624-0.138c-0.162-0.06-0.216-0.072-0.282-0.072c-0.12,0-0.216,0.054-0.258,0.192h-0.108l0.204-1.343
			l0.12,0.012c-0.012,0.054-0.012,0.096-0.012,0.138c0,0.588,0.36,1.001,0.864,1.001c0.462,0,0.786-0.312,0.786-0.768
			c0-0.258-0.084-0.438-0.36-0.737l-0.234-0.252c-0.084-0.09-0.156-0.174-0.234-0.252c-0.36-0.384-0.45-0.576-0.45-0.899
			c0-0.63,0.492-0.983,1.067-0.983c0.186,0,0.384,0.03,0.51,0.084c0.126,0.048,0.198,0.066,0.276,0.066
			c0.132,0,0.186-0.03,0.27-0.156h0.138L48.987,20.862z"/>
	</g>
	<g>
		<path fill="#FF0000" d="M16.935,16.855l-0.108-0.018c0-0.612-0.132-0.978-0.714-0.978c-0.414,0-0.671,0.222-0.671,0.6
			c0,0.294,0.048,0.39,0.593,0.936c0.546,0.552,0.678,0.81,0.678,1.199c0,0.684-0.521,1.169-1.211,1.169
			c-0.186,0-0.348-0.042-0.624-0.138c-0.162-0.06-0.216-0.072-0.282-0.072c-0.12,0-0.216,0.054-0.258,0.192H14.23l0.204-1.343
			l0.12,0.012c-0.012,0.054-0.012,0.096-0.012,0.138c0,0.588,0.36,1.001,0.864,1.001c0.462,0,0.786-0.312,0.786-0.768
			c0-0.258-0.084-0.438-0.36-0.737l-0.234-0.252c-0.084-0.09-0.156-0.174-0.234-0.252c-0.36-0.384-0.45-0.576-0.45-0.899
			c0-0.63,0.492-0.983,1.067-0.983c0.186,0,0.384,0.03,0.51,0.084c0.126,0.048,0.198,0.066,0.276,0.066
			c0.132,0,0.186-0.03,0.27-0.156h0.138L16.935,16.855z"/>
	</g>
	<g>
		<g>
			<path fill="none" stroke="#000000" stroke-width="0.2" stroke-miterlimit="10" d="M54.129,25.568
				c2.714-0.917,6.714-3.408,11.502-3.408"/>
			<g>
				<polygon points="54.865,26.112 54.365,25.482 54.472,24.684 52.975,25.864 				"/>
			</g>
		</g>
	</g>
	<g>
		<g>
			<path fill="none" stroke="#000000" stroke-width="0.2" stroke-miterlimit="10" d="M48.5,29.151
				c0.196,3.825,7.091,0.462,12.162,0.462"/>
			<g>
				<polygon points="47.781,29.672 48.537,29.396 49.26,29.749 48.612,27.957 				"/>
			</g>
		</g>
	</g>
	<g>
		<path d="M66.334,24.012l2.398-4.006h0.156l0.792,4.006H66.334z M68.469,20.857l-1.529,2.591h2.051L68.469,20.857z"/>
		<path d="M71.721,22.224c0.419-0.642,0.642-0.857,0.905-0.857c0.144,0,0.246,0.09,0.246,0.222c0,0.126-0.084,0.216-0.204,0.216
			c-0.114,0-0.168-0.102-0.312-0.102c-0.108,0-0.324,0.264-0.588,0.726c0,0.042,0.012,0.126,0.048,0.27l0.192,0.804
			c0.042,0.168,0.096,0.246,0.18,0.246c0.078,0,0.144-0.06,0.282-0.24c0.054-0.072,0.078-0.108,0.126-0.168l0.09,0.054
			c-0.348,0.54-0.504,0.684-0.731,0.684c-0.192,0-0.282-0.108-0.354-0.408l-0.174-0.714l-0.528,0.714
			c-0.264,0.354-0.384,0.408-0.57,0.408c-0.186,0-0.3-0.096-0.3-0.252c0-0.12,0.084-0.216,0.204-0.216
			c0.054,0,0.114,0.024,0.192,0.066c0.06,0.036,0.12,0.054,0.156,0.054c0.066,0,0.18-0.114,0.306-0.294l0.492-0.696l-0.168-0.743
			c-0.084-0.36-0.126-0.408-0.276-0.408c-0.048,0-0.12,0.012-0.234,0.042l-0.108,0.03l-0.018-0.096l0.066-0.024
			c0.366-0.132,0.564-0.174,0.702-0.174c0.15,0,0.222,0.108,0.306,0.516L71.721,22.224z"/>
	</g>
	<g>
		<path d="M61.477,31.463l2.398-4.006h0.156l0.792,4.006H61.477z M63.612,28.308l-1.529,2.591h2.051L63.612,28.308z"/>
		<path d="M66.918,31.007c0.51-0.846,0.732-1.277,0.732-1.542c0-0.084-0.042-0.12-0.156-0.192c-0.12-0.078-0.156-0.138-0.156-0.234
			c0-0.132,0.102-0.222,0.24-0.222c0.18,0,0.312,0.15,0.312,0.33c0,0.342-0.288,1.001-0.786,1.829
			c-0.624,1.032-1.265,1.721-1.607,1.721c-0.18,0-0.306-0.102-0.306-0.258c0-0.132,0.102-0.24,0.234-0.24
			c0.21,0,0.21,0.167,0.366,0.167c0.078,0,0.15-0.048,0.288-0.198c0.108-0.114,0.378-0.468,0.426-0.545
			c0.036-0.072,0.06-0.144,0.06-0.21c0-0.24-0.33-1.583-0.492-1.991c-0.114-0.293-0.222-0.384-0.462-0.384
			c-0.066,0-0.12,0.006-0.186,0.024v-0.102c0.066-0.012,0.132-0.024,0.192-0.036c0.12-0.024,0.318-0.06,0.642-0.108h0.024
			c0.09,0,0.408,0.996,0.51,1.529L66.918,31.007z"/>
	</g>
	<line fill="none" stroke="#0000FF" stroke-width="0.1" stroke-miterlimit="10" x1="35.184" y1="24.64" x2="36.73" y2="24.63"/>
	<g>
		<path fill="#0000FF" d="M34.703,25.618c-0.45,0.545-0.594,0.66-0.833,0.66c-0.168,0-0.24-0.072-0.24-0.246
			c0-0.15,0.012-0.198,0.138-0.689c-0.45,0.678-0.797,0.941-1.217,0.941c-0.336,0-0.6-0.24-0.6-0.696
			c0-0.929,0.917-2.015,1.715-2.015c0.258,0,0.432,0.126,0.48,0.348l0.066-0.288l0.018-0.018l0.366-0.042l0.042,0.018
			c-0.012,0.054-0.018,0.066-0.036,0.126c-0.282,1.025-0.534,2.057-0.534,2.177c0,0.042,0.036,0.078,0.084,0.078
			c0.054,0,0.132-0.048,0.312-0.246l0.162-0.174L34.703,25.618z M33.702,23.704c-0.27,0-0.534,0.186-0.786,0.552
			c-0.252,0.378-0.462,0.912-0.462,1.289c0,0.33,0.144,0.444,0.36,0.444c0.3,0,0.582-0.33,0.762-0.587
			c0.282-0.408,0.462-0.924,0.462-1.35C34.038,23.843,33.912,23.704,33.702,23.704z"/>
	</g>
	<g>
	</g>
	<g>
	</g>
</g>
</svg>
