<?xml version="1.0" encoding="utf-8"?>
<!-- Generator: Adobe Illustrator 25.4.1, SVG Export Plug-In . SVG Version: 6.00 Build 0)  -->
<svg version="1.1" xmlns="http://www.w3.org/2000/svg" xmlns:xlink="http://www.w3.org/1999/xlink" x="0px" y="0px"
	 viewBox="0 0 209.374 163.873" enable-background="new 0 0 209.374 163.873" xml:space="preserve">
<g id="Layer_2">
	<g id="Clipped_grid">
		<defs>
			<rect id="SVGID_1_" x="-3.865" y="-6.957" width="219.313" height="174.81"/>
		</defs>
		<clipPath id="SVGID_00000017502623486073214420000004023251785213948078_">
			<use xlink:href="#SVGID_1_"  overflow="visible"/>
		</clipPath>
		<g id="Grid" opacity="0.25" clip-path="url(#SVGID_00000017502623486073214420000004023251785213948078_)">
			<g id="Horizontal_1_mm">
				
					<line fill="none" stroke="#00ABEB" stroke-width="0.15" stroke-miterlimit="10" x1="-371.116" y1="-62.392" x2="482.907" y2="-62.392"/>
				
					<line fill="none" stroke="#00ABEB" stroke-width="0.15" stroke-miterlimit="10" x1="-371.116" y1="-73.07" x2="482.907" y2="-73.07"/>
				
					<line fill="none" stroke="#00ABEB" stroke-width="0.15" stroke-miterlimit="10" x1="-371.116" y1="567.569" x2="482.907" y2="567.569"/>
				
					<line fill="none" stroke="#00ABEB" stroke-width="0.15" stroke-miterlimit="10" x1="-371.116" y1="556.89" x2="482.907" y2="556.89"/>
				
					<line fill="none" stroke="#00ABEB" stroke-width="0.15" stroke-miterlimit="10" x1="-371.116" y1="546.215" x2="482.907" y2="546.215"/>
				
					<line fill="none" stroke="#00ABEB" stroke-width="0.15" stroke-miterlimit="10" x1="-371.116" y1="535.537" x2="482.907" y2="535.537"/>
				
					<line fill="none" stroke="#00ABEB" stroke-width="0.15" stroke-miterlimit="10" x1="-371.116" y1="524.858" x2="482.907" y2="524.858"/>
				
					<line fill="none" stroke="#00ABEB" stroke-width="0.15" stroke-miterlimit="10" x1="-371.116" y1="514.183" x2="482.907" y2="514.183"/>
				
					<line fill="none" stroke="#00ABEB" stroke-width="0.15" stroke-miterlimit="10" x1="-371.116" y1="503.505" x2="482.907" y2="503.505"/>
				
					<line fill="none" stroke="#00ABEB" stroke-width="0.15" stroke-miterlimit="10" x1="-371.116" y1="492.83" x2="482.907" y2="492.83"/>
				
					<line fill="none" stroke="#00ABEB" stroke-width="0.15" stroke-miterlimit="10" x1="-371.116" y1="482.15" x2="482.907" y2="482.15"/>
				
					<line fill="none" stroke="#00ABEB" stroke-width="0.15" stroke-miterlimit="10" x1="-371.116" y1="471.472" x2="482.907" y2="471.472"/>
				
					<line fill="none" stroke="#00ABEB" stroke-width="0.15" stroke-miterlimit="10" x1="-371.116" y1="460.797" x2="482.907" y2="460.797"/>
				
					<line fill="none" stroke="#00ABEB" stroke-width="0.15" stroke-miterlimit="10" x1="-371.116" y1="450.118" x2="482.907" y2="450.118"/>
				
					<line fill="none" stroke="#00ABEB" stroke-width="0.15" stroke-miterlimit="10" x1="-371.116" y1="439.44" x2="482.907" y2="439.44"/>
				
					<line fill="none" stroke="#00ABEB" stroke-width="0.15" stroke-miterlimit="10" x1="-371.116" y1="428.765" x2="482.907" y2="428.765"/>
				
					<line fill="none" stroke="#00ABEB" stroke-width="0.15" stroke-miterlimit="10" x1="-371.116" y1="418.086" x2="482.907" y2="418.086"/>
				
					<line fill="none" stroke="#00ABEB" stroke-width="0.15" stroke-miterlimit="10" x1="-371.116" y1="407.408" x2="482.907" y2="407.408"/>
				
					<line fill="none" stroke="#00ABEB" stroke-width="0.15" stroke-miterlimit="10" x1="-371.116" y1="396.733" x2="482.907" y2="396.733"/>
				
					<line fill="none" stroke="#00ABEB" stroke-width="0.15" stroke-miterlimit="10" x1="-371.116" y1="386.055" x2="482.907" y2="386.055"/>
				
					<line fill="none" stroke="#00ABEB" stroke-width="0.15" stroke-miterlimit="10" x1="-371.116" y1="375.376" x2="482.907" y2="375.376"/>
				
					<line fill="none" stroke="#00ABEB" stroke-width="0.15" stroke-miterlimit="10" x1="-371.116" y1="364.701" x2="482.907" y2="364.701"/>
				
					<line fill="none" stroke="#00ABEB" stroke-width="0.15" stroke-miterlimit="10" x1="-371.116" y1="354.023" x2="482.907" y2="354.023"/>
				
					<line fill="none" stroke="#00ABEB" stroke-width="0.15" stroke-miterlimit="10" x1="-371.116" y1="343.343" x2="482.907" y2="343.343"/>
				
					<line fill="none" stroke="#00ABEB" stroke-width="0.15" stroke-miterlimit="10" x1="-371.116" y1="332.668" x2="482.907" y2="332.668"/>
				
					<line fill="none" stroke="#00ABEB" stroke-width="0.15" stroke-miterlimit="10" x1="-371.116" y1="321.989" x2="482.907" y2="321.989"/>
				
					<line fill="none" stroke="#00ABEB" stroke-width="0.15" stroke-miterlimit="10" x1="-371.116" y1="311.314" x2="482.907" y2="311.314"/>
				
					<line fill="none" stroke="#00ABEB" stroke-width="0.15" stroke-miterlimit="10" x1="-371.116" y1="300.636" x2="482.907" y2="300.636"/>
				
					<line fill="none" stroke="#00ABEB" stroke-width="0.15" stroke-miterlimit="10" x1="-371.116" y1="289.957" x2="482.907" y2="289.957"/>
				
					<line fill="none" stroke="#00ABEB" stroke-width="0.15" stroke-miterlimit="10" x1="-371.116" y1="279.283" x2="482.907" y2="279.283"/>
				
					<line fill="none" stroke="#00ABEB" stroke-width="0.15" stroke-miterlimit="10" x1="-371.116" y1="268.604" x2="482.907" y2="268.604"/>
				
					<line fill="none" stroke="#00ABEB" stroke-width="0.15" stroke-miterlimit="10" x1="-371.116" y1="257.926" x2="482.907" y2="257.926"/>
				
					<line fill="none" stroke="#00ABEB" stroke-width="0.15" stroke-miterlimit="10" x1="-371.116" y1="247.251" x2="482.907" y2="247.251"/>
				
					<line fill="none" stroke="#00ABEB" stroke-width="0.15" stroke-miterlimit="10" x1="-371.116" y1="236.573" x2="482.907" y2="236.573"/>
				
					<line fill="none" stroke="#00ABEB" stroke-width="0.15" stroke-miterlimit="10" x1="-371.116" y1="225.894" x2="482.907" y2="225.894"/>
				
					<line fill="none" stroke="#00ABEB" stroke-width="0.15" stroke-miterlimit="10" x1="-371.116" y1="215.219" x2="482.907" y2="215.219"/>
				
					<line fill="none" stroke="#00ABEB" stroke-width="0.15" stroke-miterlimit="10" x1="-371.116" y1="204.541" x2="482.907" y2="204.541"/>
				
					<line fill="none" stroke="#00ABEB" stroke-width="0.15" stroke-miterlimit="10" x1="-371.116" y1="193.862" x2="482.907" y2="193.862"/>
				
					<line fill="none" stroke="#00ABEB" stroke-width="0.15" stroke-miterlimit="10" x1="-371.116" y1="183.187" x2="482.907" y2="183.187"/>
				
					<line fill="none" stroke="#00ABEB" stroke-width="0.15" stroke-miterlimit="10" x1="-371.116" y1="172.509" x2="482.907" y2="172.509"/>
				
					<line fill="none" stroke="#00ABEB" stroke-width="0.15" stroke-miterlimit="10" x1="-371.116" y1="161.831" x2="482.907" y2="161.831"/>
				
					<line fill="none" stroke="#00ABEB" stroke-width="0.15" stroke-miterlimit="10" x1="-371.116" y1="151.156" x2="482.907" y2="151.156"/>
				
					<line fill="none" stroke="#00ABEB" stroke-width="0.15" stroke-miterlimit="10" x1="-371.116" y1="140.475" x2="482.907" y2="140.475"/>
				
					<line fill="none" stroke="#00ABEB" stroke-width="0.15" stroke-miterlimit="10" x1="-371.116" y1="129.801" x2="482.907" y2="129.801"/>
				
					<line fill="none" stroke="#00ABEB" stroke-width="0.15" stroke-miterlimit="10" x1="-371.116" y1="119.122" x2="482.907" y2="119.122"/>
				
					<line fill="none" stroke="#00ABEB" stroke-width="0.15" stroke-miterlimit="10" x1="-371.116" y1="108.443" x2="482.907" y2="108.443"/>
				
					<line fill="none" stroke="#00ABEB" stroke-width="0.15" stroke-miterlimit="10" x1="-371.116" y1="97.769" x2="482.907" y2="97.769"/>
				
					<line fill="none" stroke="#00ABEB" stroke-width="0.15" stroke-miterlimit="10" x1="-371.116" y1="87.09" x2="482.907" y2="87.09"/>
				
					<line fill="none" stroke="#00ABEB" stroke-width="0.15" stroke-miterlimit="10" x1="-371.116" y1="76.412" x2="482.907" y2="76.412"/>
				
					<line fill="none" stroke="#00ABEB" stroke-width="0.15" stroke-miterlimit="10" x1="-371.116" y1="65.737" x2="482.907" y2="65.737"/>
				
					<line fill="none" stroke="#00ABEB" stroke-width="0.15" stroke-miterlimit="10" x1="-371.116" y1="55.059" x2="482.907" y2="55.059"/>
				
					<line fill="none" stroke="#00ABEB" stroke-width="0.15" stroke-miterlimit="10" x1="-371.116" y1="44.38" x2="482.907" y2="44.38"/>
				
					<line fill="none" stroke="#00ABEB" stroke-width="0.15" stroke-miterlimit="10" x1="-371.116" y1="33.705" x2="482.907" y2="33.705"/>
				
					<line fill="none" stroke="#00ABEB" stroke-width="0.15" stroke-miterlimit="10" x1="-371.116" y1="23.027" x2="482.907" y2="23.027"/>
				
					<line fill="none" stroke="#00ABEB" stroke-width="0.15" stroke-miterlimit="10" x1="-371.116" y1="12.348" x2="482.907" y2="12.348"/>
				
					<line fill="none" stroke="#00ABEB" stroke-width="0.15" stroke-miterlimit="10" x1="-371.116" y1="1.673" x2="482.907" y2="1.673"/>
				
					<line fill="none" stroke="#00ABEB" stroke-width="0.15" stroke-miterlimit="10" x1="-371.116" y1="-9.007" x2="482.907" y2="-9.007"/>
				
					<line fill="none" stroke="#00ABEB" stroke-width="0.15" stroke-miterlimit="10" x1="-371.116" y1="-19.682" x2="482.907" y2="-19.682"/>
				
					<line fill="none" stroke="#00ABEB" stroke-width="0.15" stroke-miterlimit="10" x1="-371.116" y1="-30.36" x2="482.907" y2="-30.36"/>
				
					<line fill="none" stroke="#00ABEB" stroke-width="0.15" stroke-miterlimit="10" x1="-371.116" y1="-41.039" x2="482.907" y2="-41.039"/>
				
					<line fill="none" stroke="#00ABEB" stroke-width="0.15" stroke-miterlimit="10" x1="-371.116" y1="-51.713" x2="482.907" y2="-51.713"/>
			</g>
			<g id="Vertical_1_mm">
				<g>
					
						<line fill="none" stroke="#00ABEB" stroke-width="0.15" stroke-miterlimit="10" x1="-370.833" y1="567.517" x2="-370.833" y2="-73.354"/>
				</g>
				
					<line fill="none" stroke="#00ABEB" stroke-width="0.15" stroke-miterlimit="10" x1="-360.164" y1="567.517" x2="-360.164" y2="-73.354"/>
				
					<line fill="none" stroke="#00ABEB" stroke-width="0.15" stroke-miterlimit="10" x1="-349.491" y1="567.517" x2="-349.491" y2="-73.354"/>
				
					<line fill="none" stroke="#00ABEB" stroke-width="0.15" stroke-miterlimit="10" x1="-338.817" y1="567.517" x2="-338.817" y2="-73.354"/>
				
					<line fill="none" stroke="#00ABEB" stroke-width="0.15" stroke-miterlimit="10" x1="-328.148" y1="567.517" x2="-328.148" y2="-73.354"/>
				
					<line fill="none" stroke="#00ABEB" stroke-width="0.15" stroke-miterlimit="10" x1="-317.474" y1="567.517" x2="-317.474" y2="-73.354"/>
				
					<line fill="none" stroke="#00ABEB" stroke-width="0.15" stroke-miterlimit="10" x1="-306.801" y1="567.517" x2="-306.801" y2="-73.354"/>
				
					<line fill="none" stroke="#00ABEB" stroke-width="0.15" stroke-miterlimit="10" x1="-296.132" y1="567.517" x2="-296.132" y2="-73.354"/>
				
					<line fill="none" stroke="#00ABEB" stroke-width="0.15" stroke-miterlimit="10" x1="-285.457" y1="567.517" x2="-285.457" y2="-73.354"/>
				
					<line fill="none" stroke="#00ABEB" stroke-width="0.15" stroke-miterlimit="10" x1="-274.787" y1="567.517" x2="-274.787" y2="-73.354"/>
				
					<line fill="none" stroke="#00ABEB" stroke-width="0.15" stroke-miterlimit="10" x1="-264.114" y1="567.517" x2="-264.114" y2="-73.354"/>
				
					<line fill="none" stroke="#00ABEB" stroke-width="0.15" stroke-miterlimit="10" x1="-253.441" y1="567.517" x2="-253.441" y2="-73.354"/>
				
					<line fill="none" stroke="#00ABEB" stroke-width="0.15" stroke-miterlimit="10" x1="-242.771" y1="567.517" x2="-242.771" y2="-73.354"/>
				
					<line fill="none" stroke="#00ABEB" stroke-width="0.15" stroke-miterlimit="10" x1="-232.098" y1="567.517" x2="-232.098" y2="-73.354"/>
				
					<line fill="none" stroke="#00ABEB" stroke-width="0.15" stroke-miterlimit="10" x1="-221.425" y1="567.517" x2="-221.425" y2="-73.354"/>
				
					<line fill="none" stroke="#00ABEB" stroke-width="0.15" stroke-miterlimit="10" x1="-210.755" y1="567.517" x2="-210.755" y2="-73.354"/>
				
					<line fill="none" stroke="#00ABEB" stroke-width="0.15" stroke-miterlimit="10" x1="-200.082" y1="567.517" x2="-200.082" y2="-73.354"/>
				
					<line fill="none" stroke="#00ABEB" stroke-width="0.15" stroke-miterlimit="10" x1="-189.409" y1="567.517" x2="-189.409" y2="-73.354"/>
				
					<line fill="none" stroke="#00ABEB" stroke-width="0.15" stroke-miterlimit="10" x1="-178.739" y1="567.517" x2="-178.739" y2="-73.354"/>
				
					<line fill="none" stroke="#00ABEB" stroke-width="0.15" stroke-miterlimit="10" x1="-168.066" y1="567.517" x2="-168.066" y2="-73.354"/>
				
					<line fill="none" stroke="#00ABEB" stroke-width="0.15" stroke-miterlimit="10" x1="-157.393" y1="567.517" x2="-157.393" y2="-73.354"/>
				
					<line fill="none" stroke="#00ABEB" stroke-width="0.15" stroke-miterlimit="10" x1="-146.723" y1="567.517" x2="-146.723" y2="-73.354"/>
				
					<line fill="none" stroke="#00ABEB" stroke-width="0.15" stroke-miterlimit="10" x1="-136.05" y1="567.517" x2="-136.05" y2="-73.354"/>
				
					<line fill="none" stroke="#00ABEB" stroke-width="0.15" stroke-miterlimit="10" x1="-125.377" y1="567.517" x2="-125.377" y2="-73.354"/>
				
					<line fill="none" stroke="#00ABEB" stroke-width="0.15" stroke-miterlimit="10" x1="-114.705" y1="567.517" x2="-114.705" y2="-73.354"/>
				
					<line fill="none" stroke="#00ABEB" stroke-width="0.15" stroke-miterlimit="10" x1="-104.032" y1="567.517" x2="-104.032" y2="-73.354"/>
				
					<line fill="none" stroke="#00ABEB" stroke-width="0.15" stroke-miterlimit="10" x1="-93.363" y1="567.517" x2="-93.363" y2="-73.354"/>
				
					<line fill="none" stroke="#00ABEB" stroke-width="0.15" stroke-miterlimit="10" x1="-82.689" y1="567.517" x2="-82.689" y2="-73.354"/>
				
					<line fill="none" stroke="#00ABEB" stroke-width="0.15" stroke-miterlimit="10" x1="-72.016" y1="567.517" x2="-72.016" y2="-73.354"/>
				
					<line fill="none" stroke="#00ABEB" stroke-width="0.15" stroke-miterlimit="10" x1="-61.347" y1="567.517" x2="-61.347" y2="-73.354"/>
				
					<line fill="none" stroke="#00ABEB" stroke-width="0.15" stroke-miterlimit="10" x1="-50.673" y1="567.517" x2="-50.673" y2="-73.354"/>
				<line fill="none" stroke="#00ABEB" stroke-width="0.15" stroke-miterlimit="10" x1="-40" y1="567.517" x2="-40" y2="-73.354"/>
				
					<line fill="none" stroke="#00ABEB" stroke-width="0.15" stroke-miterlimit="10" x1="-29.33" y1="567.517" x2="-29.33" y2="-73.354"/>
				
					<line fill="none" stroke="#00ABEB" stroke-width="0.15" stroke-miterlimit="10" x1="-18.657" y1="567.517" x2="-18.657" y2="-73.354"/>
				
					<line fill="none" stroke="#00ABEB" stroke-width="0.15" stroke-miterlimit="10" x1="-7.984" y1="567.517" x2="-7.984" y2="-73.354"/>
				
					<line fill="none" stroke="#00ABEB" stroke-width="0.15" stroke-miterlimit="10" x1="2.686" y1="567.517" x2="2.686" y2="-73.354"/>
				
					<line fill="none" stroke="#00ABEB" stroke-width="0.15" stroke-miterlimit="10" x1="13.359" y1="567.517" x2="13.359" y2="-73.354"/>
				
					<line fill="none" stroke="#00ABEB" stroke-width="0.15" stroke-miterlimit="10" x1="24.032" y1="567.517" x2="24.032" y2="-73.354"/>
				
					<line fill="none" stroke="#00ABEB" stroke-width="0.15" stroke-miterlimit="10" x1="34.701" y1="567.517" x2="34.701" y2="-73.354"/>
				
					<line fill="none" stroke="#00ABEB" stroke-width="0.15" stroke-miterlimit="10" x1="45.374" y1="567.517" x2="45.374" y2="-73.354"/>
				
					<line fill="none" stroke="#00ABEB" stroke-width="0.15" stroke-miterlimit="10" x1="56.044" y1="567.517" x2="56.044" y2="-73.354"/>
				
					<line fill="none" stroke="#00ABEB" stroke-width="0.15" stroke-miterlimit="10" x1="66.719" y1="567.517" x2="66.719" y2="-73.354"/>
				
					<line fill="none" stroke="#00ABEB" stroke-width="0.15" stroke-miterlimit="10" x1="77.392" y1="567.517" x2="77.392" y2="-73.354"/>
				
					<line fill="none" stroke="#00ABEB" stroke-width="0.15" stroke-miterlimit="10" x1="88.062" y1="567.517" x2="88.062" y2="-73.354"/>
				
					<line fill="none" stroke="#00ABEB" stroke-width="0.15" stroke-miterlimit="10" x1="98.735" y1="567.517" x2="98.735" y2="-73.354"/>
				
					<line fill="none" stroke="#00ABEB" stroke-width="0.15" stroke-miterlimit="10" x1="109.408" y1="567.517" x2="109.408" y2="-73.354"/>
				
					<line fill="none" stroke="#00ABEB" stroke-width="0.15" stroke-miterlimit="10" x1="120.078" y1="567.517" x2="120.078" y2="-73.354"/>
				
					<line fill="none" stroke="#00ABEB" stroke-width="0.15" stroke-miterlimit="10" x1="130.751" y1="567.517" x2="130.751" y2="-73.354"/>
				
					<line fill="none" stroke="#00ABEB" stroke-width="0.15" stroke-miterlimit="10" x1="141.424" y1="567.517" x2="141.424" y2="-73.354"/>
				
					<line fill="none" stroke="#00ABEB" stroke-width="0.15" stroke-miterlimit="10" x1="152.094" y1="567.517" x2="152.094" y2="-73.354"/>
				
					<line fill="none" stroke="#00ABEB" stroke-width="0.15" stroke-miterlimit="10" x1="162.767" y1="567.517" x2="162.767" y2="-73.354"/>
				
					<line fill="none" stroke="#00ABEB" stroke-width="0.15" stroke-miterlimit="10" x1="173.44" y1="567.517" x2="173.44" y2="-73.354"/>
				
					<line fill="none" stroke="#00ABEB" stroke-width="0.15" stroke-miterlimit="10" x1="184.11" y1="567.517" x2="184.11" y2="-73.354"/>
				
					<line fill="none" stroke="#00ABEB" stroke-width="0.15" stroke-miterlimit="10" x1="194.783" y1="567.517" x2="194.783" y2="-73.354"/>
				
					<line fill="none" stroke="#00ABEB" stroke-width="0.15" stroke-miterlimit="10" x1="205.456" y1="567.517" x2="205.456" y2="-73.354"/>
				
					<line fill="none" stroke="#00ABEB" stroke-width="0.15" stroke-miterlimit="10" x1="216.126" y1="567.517" x2="216.126" y2="-73.354"/>
				
					<line fill="none" stroke="#00ABEB" stroke-width="0.15" stroke-miterlimit="10" x1="226.801" y1="567.517" x2="226.801" y2="-73.354"/>
				
					<line fill="none" stroke="#00ABEB" stroke-width="0.15" stroke-miterlimit="10" x1="237.471" y1="567.517" x2="237.471" y2="-73.354"/>
				
					<line fill="none" stroke="#00ABEB" stroke-width="0.15" stroke-miterlimit="10" x1="248.144" y1="567.517" x2="248.144" y2="-73.354"/>
				
					<line fill="none" stroke="#00ABEB" stroke-width="0.15" stroke-miterlimit="10" x1="258.817" y1="567.517" x2="258.817" y2="-73.354"/>
				
					<line fill="none" stroke="#00ABEB" stroke-width="0.15" stroke-miterlimit="10" x1="269.487" y1="567.517" x2="269.487" y2="-73.354"/>
				
					<line fill="none" stroke="#00ABEB" stroke-width="0.15" stroke-miterlimit="10" x1="280.16" y1="567.517" x2="280.16" y2="-73.354"/>
				
					<line fill="none" stroke="#00ABEB" stroke-width="0.15" stroke-miterlimit="10" x1="290.833" y1="567.517" x2="290.833" y2="-73.354"/>
				
					<line fill="none" stroke="#00ABEB" stroke-width="0.15" stroke-miterlimit="10" x1="301.503" y1="567.517" x2="301.503" y2="-73.354"/>
				
					<line fill="none" stroke="#00ABEB" stroke-width="0.15" stroke-miterlimit="10" x1="312.176" y1="567.517" x2="312.176" y2="-73.354"/>
				
					<line fill="none" stroke="#00ABEB" stroke-width="0.15" stroke-miterlimit="10" x1="322.849" y1="567.517" x2="322.849" y2="-73.354"/>
				
					<line fill="none" stroke="#00ABEB" stroke-width="0.15" stroke-miterlimit="10" x1="333.519" y1="567.517" x2="333.519" y2="-73.354"/>
				
					<line fill="none" stroke="#00ABEB" stroke-width="0.15" stroke-miterlimit="10" x1="344.192" y1="567.517" x2="344.192" y2="-73.354"/>
				
					<line fill="none" stroke="#00ABEB" stroke-width="0.15" stroke-miterlimit="10" x1="354.865" y1="567.517" x2="354.865" y2="-73.354"/>
				
					<line fill="none" stroke="#00ABEB" stroke-width="0.15" stroke-miterlimit="10" x1="365.534" y1="567.517" x2="365.534" y2="-73.354"/>
				
					<line fill="none" stroke="#00ABEB" stroke-width="0.15" stroke-miterlimit="10" x1="376.208" y1="567.517" x2="376.208" y2="-73.354"/>
				
					<line fill="none" stroke="#00ABEB" stroke-width="0.15" stroke-miterlimit="10" x1="386.881" y1="567.517" x2="386.881" y2="-73.354"/>
				
					<line fill="none" stroke="#00ABEB" stroke-width="0.15" stroke-miterlimit="10" x1="397.552" y1="567.517" x2="397.552" y2="-73.354"/>
				
					<line fill="none" stroke="#00ABEB" stroke-width="0.15" stroke-miterlimit="10" x1="408.225" y1="567.517" x2="408.225" y2="-73.354"/>
				
					<line fill="none" stroke="#00ABEB" stroke-width="0.15" stroke-miterlimit="10" x1="418.895" y1="567.517" x2="418.895" y2="-73.354"/>
				
					<line fill="none" stroke="#00ABEB" stroke-width="0.15" stroke-miterlimit="10" x1="429.568" y1="567.517" x2="429.568" y2="-73.354"/>
				
					<line fill="none" stroke="#00ABEB" stroke-width="0.15" stroke-miterlimit="10" x1="440.242" y1="567.517" x2="440.242" y2="-73.354"/>
				
					<line fill="none" stroke="#00ABEB" stroke-width="0.15" stroke-miterlimit="10" x1="450.911" y1="567.517" x2="450.911" y2="-73.354"/>
				
					<line fill="none" stroke="#00ABEB" stroke-width="0.15" stroke-miterlimit="10" x1="461.584" y1="567.517" x2="461.584" y2="-73.354"/>
				
					<line fill="none" stroke="#00ABEB" stroke-width="0.15" stroke-miterlimit="10" x1="472.258" y1="567.517" x2="472.258" y2="-73.354"/>
				
					<line fill="none" stroke="#00ABEB" stroke-width="0.15" stroke-miterlimit="10" x1="482.927" y1="567.517" x2="482.927" y2="-73.354"/>
			</g>
			<g id="Horizontal_5_mm_1_">
				
					<line fill="none" stroke="#00ABEB" stroke-width="0.3" stroke-miterlimit="10" x1="-372.151" y1="567.569" x2="482.907" y2="567.569"/>
				
					<line fill="none" stroke="#00ABEB" stroke-width="0.3" stroke-miterlimit="10" x1="-372.151" y1="514.183" x2="482.907" y2="514.183"/>
				
					<line fill="none" stroke="#00ABEB" stroke-width="0.3" stroke-miterlimit="10" x1="-372.151" y1="460.797" x2="482.907" y2="460.797"/>
				
					<line fill="none" stroke="#00ABEB" stroke-width="0.3" stroke-miterlimit="10" x1="-372.151" y1="407.408" x2="482.907" y2="407.408"/>
				
					<line fill="none" stroke="#00ABEB" stroke-width="0.3" stroke-miterlimit="10" x1="-372.151" y1="354.023" x2="482.907" y2="354.023"/>
				
					<line fill="none" stroke="#00ABEB" stroke-width="0.3" stroke-miterlimit="10" x1="-372.151" y1="300.636" x2="482.907" y2="300.636"/>
				
					<line fill="none" stroke="#00ABEB" stroke-width="0.3" stroke-miterlimit="10" x1="-372.151" y1="247.251" x2="482.907" y2="247.251"/>
				
					<line fill="none" stroke="#00ABEB" stroke-width="0.3" stroke-miterlimit="10" x1="-372.151" y1="193.862" x2="482.907" y2="193.862"/>
				
					<line fill="none" stroke="#00ABEB" stroke-width="0.3" stroke-miterlimit="10" x1="-372.151" y1="140.475" x2="482.907" y2="140.475"/>
				
					<line fill="none" stroke="#00ABEB" stroke-width="0.3" stroke-miterlimit="10" x1="-372.151" y1="87.09" x2="482.907" y2="87.09"/>
				
					<line fill="none" stroke="#00ABEB" stroke-width="0.3" stroke-miterlimit="10" x1="-372.151" y1="33.705" x2="482.907" y2="33.705"/>
			</g>
			<g id="Vertical_5_mm">
				
					<line fill="none" stroke="#00ABEB" stroke-width="0.3" stroke-miterlimit="10" x1="-370.833" y1="567.517" x2="-370.833" y2="-74.389"/>
				
					<line fill="none" stroke="#00ABEB" stroke-width="0.3" stroke-miterlimit="10" x1="-317.474" y1="567.517" x2="-317.474" y2="-74.389"/>
				
					<line fill="none" stroke="#00ABEB" stroke-width="0.3" stroke-miterlimit="10" x1="-264.114" y1="567.517" x2="-264.114" y2="-74.389"/>
				
					<line fill="none" stroke="#00ABEB" stroke-width="0.3" stroke-miterlimit="10" x1="-210.755" y1="567.517" x2="-210.755" y2="-74.389"/>
				
					<line fill="none" stroke="#00ABEB" stroke-width="0.3" stroke-miterlimit="10" x1="-157.393" y1="567.517" x2="-157.393" y2="-74.389"/>
				
					<line fill="none" stroke="#00ABEB" stroke-width="0.3" stroke-miterlimit="10" x1="-104.032" y1="567.517" x2="-104.032" y2="-74.389"/>
				
					<line fill="none" stroke="#00ABEB" stroke-width="0.3" stroke-miterlimit="10" x1="-50.673" y1="567.517" x2="-50.673" y2="-74.389"/>
				
					<line fill="none" stroke="#00ABEB" stroke-width="0.3" stroke-miterlimit="10" x1="2.686" y1="567.517" x2="2.686" y2="-74.389"/>
				
					<line fill="none" stroke="#00ABEB" stroke-width="0.3" stroke-miterlimit="10" x1="56.044" y1="567.517" x2="56.044" y2="-74.389"/>
				
					<line fill="none" stroke="#00ABEB" stroke-width="0.3" stroke-miterlimit="10" x1="109.408" y1="567.517" x2="109.408" y2="-74.389"/>
				
					<line fill="none" stroke="#00ABEB" stroke-width="0.3" stroke-miterlimit="10" x1="162.767" y1="567.517" x2="162.767" y2="-74.389"/>
				
					<line fill="none" stroke="#00ABEB" stroke-width="0.3" stroke-miterlimit="10" x1="216.126" y1="567.517" x2="216.126" y2="-74.389"/>
				
					<line fill="none" stroke="#00ABEB" stroke-width="0.3" stroke-miterlimit="10" x1="269.487" y1="567.517" x2="269.487" y2="-74.389"/>
				
					<line fill="none" stroke="#00ABEB" stroke-width="0.3" stroke-miterlimit="10" x1="322.849" y1="567.517" x2="322.849" y2="-74.389"/>
				
					<line fill="none" stroke="#00ABEB" stroke-width="0.3" stroke-miterlimit="10" x1="376.208" y1="567.517" x2="376.208" y2="-74.389"/>
				
					<line fill="none" stroke="#00ABEB" stroke-width="0.3" stroke-miterlimit="10" x1="429.568" y1="567.517" x2="429.568" y2="-74.389"/>
				
					<line fill="none" stroke="#00ABEB" stroke-width="0.3" stroke-miterlimit="10" x1="482.927" y1="567.517" x2="482.927" y2="-74.389"/>
			</g>
			<g id="Horizontal_10_mm">
				
					<line id="_x31_9_1_" fill="none" stroke="#00ABEB" stroke-width="0.7" stroke-miterlimit="10" x1="-372.151" y1="567.569" x2="482.907" y2="567.569"/>
				
					<line id="_x32_0" fill="none" stroke="#00ABEB" stroke-width="0.7" stroke-miterlimit="10" x1="-372.151" y1="460.797" x2="482.907" y2="460.797"/>
				
					<line id="_x32_1" fill="none" stroke="#00ABEB" stroke-width="0.7" stroke-miterlimit="10" x1="-372.151" y1="354.023" x2="482.907" y2="354.023"/>
				
					<line id="_x32_2" fill="none" stroke="#00ABEB" stroke-width="0.7" stroke-miterlimit="10" x1="-372.151" y1="247.251" x2="482.907" y2="247.251"/>
				
					<line id="_x32_3" fill="none" stroke="#00ABEB" stroke-width="0.7" stroke-miterlimit="10" x1="-372.151" y1="140.475" x2="482.907" y2="140.475"/>
				
					<line id="_x32_4" fill="none" stroke="#00ABEB" stroke-width="0.7" stroke-miterlimit="10" x1="-372.151" y1="33.705" x2="482.907" y2="33.705"/>
				
					<line id="_x32_5" fill="none" stroke="#00ABEB" stroke-width="0.7" stroke-miterlimit="10" x1="-372.151" y1="-73.07" x2="482.907" y2="-73.07"/>
			</g>
			<g id="Vertical_10_mm">
				
					<line id="_x30_" fill="none" stroke="#00ABEB" stroke-width="0.7" stroke-miterlimit="10" x1="-370.833" y1="567.517" x2="-370.833" y2="-74.389"/>
				
					<line id="_x31_" fill="none" stroke="#00ABEB" stroke-width="0.7" stroke-miterlimit="10" x1="-264.114" y1="567.517" x2="-264.114" y2="-74.389"/>
				
					<line id="_x32_" fill="none" stroke="#00ABEB" stroke-width="0.7" stroke-miterlimit="10" x1="-157.393" y1="567.517" x2="-157.393" y2="-74.389"/>
				
					<line id="_x33_" fill="none" stroke="#00ABEB" stroke-width="0.7" stroke-miterlimit="10" x1="-50.673" y1="567.517" x2="-50.673" y2="-74.389"/>
				
					<line id="_x34_" fill="none" stroke="#00ABEB" stroke-width="0.7" stroke-miterlimit="10" x1="56.044" y1="567.517" x2="56.044" y2="-74.389"/>
				
					<line id="_x35_" fill="none" stroke="#00ABEB" stroke-width="0.7" stroke-miterlimit="10" x1="162.767" y1="567.517" x2="162.767" y2="-74.389"/>
				
					<line id="_x36_" fill="none" stroke="#00ABEB" stroke-width="0.7" stroke-miterlimit="10" x1="269.487" y1="567.517" x2="269.487" y2="-74.389"/>
				
					<line id="_x37_" fill="none" stroke="#00ABEB" stroke-width="0.7" stroke-miterlimit="10" x1="376.208" y1="567.517" x2="376.208" y2="-74.389"/>
				
					<line id="_x38_" fill="none" stroke="#00ABEB" stroke-width="0.7" stroke-miterlimit="10" x1="482.927" y1="567.517" x2="482.927" y2="-74.389"/>
			</g>
		</g>
	</g>
</g>
<g id="Layer_1">
	<circle opacity="0.05" fill="#FF0000" stroke="#FF0000" stroke-miterlimit="10" cx="55.892" cy="140.822" r="120.515"/>
	<circle fill="none" stroke="#FF0000" stroke-miterlimit="10" cx="55.892" cy="140.822" r="120.515"/>
	<desc>Creator: GL2PS 1.4.2, (C) 1999-2020 C. Geuzaine
For: Octave
CreationDate: Sun Sep 19 12:52:46 2021</desc>
	<g>
		<g>
			<g>
				<defs>
					<rect id="SVGID_00000124859801338742212240000008175626314831843748_" x="-160.798" y="-10.951" width="418" height="314"/>
				</defs>
				<clipPath id="SVGID_00000027592172536989407320000017698283146552913343_">
					<use xlink:href="#SVGID_00000124859801338742212240000008175626314831843748_"  overflow="visible"/>
				</clipPath>
			</g>
		</g>
	</g>
	<g enable-background="new    ">
		<path fill="#FF0000" d="M176.638,79.425l-0.359-0.061c0-2.04-0.44-3.261-2.381-3.261c-1.38,0-2.24,0.74-2.24,2.001
			c0,0.98,0.16,1.3,1.98,3.12c1.82,1.841,2.261,2.701,2.261,4.001c0,2.28-1.741,3.901-4.041,3.901c-0.62,0-1.16-0.141-2.081-0.46
			c-0.54-0.2-0.72-0.24-0.939-0.24c-0.4,0-0.721,0.18-0.86,0.64h-0.36l0.68-4.48l0.4,0.04c-0.04,0.18-0.04,0.319-0.04,0.46
			c0,1.96,1.2,3.341,2.881,3.341c1.54,0,2.62-1.04,2.62-2.561c0-0.86-0.279-1.461-1.2-2.461l-0.78-0.84
			c-0.279-0.3-0.52-0.58-0.779-0.84c-1.201-1.281-1.501-1.921-1.501-3.001c0-2.101,1.641-3.281,3.561-3.281
			c0.62,0,1.28,0.101,1.701,0.28c0.42,0.16,0.66,0.221,0.92,0.221c0.44,0,0.62-0.101,0.9-0.521h0.46L176.638,79.425z"/>
	</g>
	<g>
		<g>
			<line fill="none" stroke="#262626" stroke-width="0.5" x1="-72.08" y1="140.575" x2="197.776" y2="140.575"/>
			<g>
				<polygon fill="#262626" points="196.372,142.427 197.158,140.575 196.372,138.724 200.761,140.575 				"/>
			</g>
		</g>
	</g>
	<g>
		<g>
			<line fill="none" stroke="#262626" stroke-width="0.5" x1="55.892" y1="268.548" x2="55.892" y2="9.795"/>
			<g>
				<polygon fill="#262626" points="57.744,11.199 55.892,10.412 54.041,11.199 55.892,6.81 				"/>
			</g>
		</g>
	</g>
	<circle cx="127.73" cy="44.123" r="2.503"/>
	
		<line fill="none" stroke="#0000FF" stroke-width="0.5" stroke-linecap="round" stroke-linejoin="round" stroke-miterlimit="10" stroke-dasharray="4" x1="55.986" y1="140.575" x2="127.73" y2="44.123"/>
	
		<line fill="none" stroke="#0000FF" stroke-width="0.5" stroke-linecap="round" stroke-linejoin="round" stroke-miterlimit="10" stroke-dasharray="4" x1="55.892" y1="44.38" x2="127.73" y2="44.38"/>
	<g>
		<g>
			<path fill="none" stroke="#00B200" stroke-width="0.5" stroke-miterlimit="10" d="M55.892,90.331
				c10.2,0,19.693,3.024,27.632,8.225"/>
			<g>
				<polygon fill="#00B200" points="81.303,99.314 82.997,98.23 83.394,96.257 85.97,100.264 				"/>
			</g>
		</g>
	</g>
	<g enable-background="new    ">
		<g>
			<path fill="#00B200" d="M74.597,78.412c0.644,0,1.022,0.014,1.415,0.168c0.687,0.266,1.121,0.771,1.121,1.765
				c0,1.625-1.527,4.384-4.286,4.398l-0.756,2.717h-1.093l0.756-2.717c-0.602,0-1.148-0.042-1.499-0.154
				c-0.729-0.238-1.079-0.896-1.079-1.793c0-1.415,1.569-4.384,4.132-4.384h0.21l0.938-3.39h1.079L74.597,78.412z M73.434,78.706
				c-1.625,0-3.082,2.494-3.082,4.469c0,0.588,0.238,0.994,0.672,1.163c0.224,0.084,0.49,0.112,0.812,0.112L73.434,78.706z
				 M72.93,84.449c0.35,0,0.574-0.028,0.966-0.224c1.149-0.574,2.059-3.054,2.059-4.216c0-0.63-0.266-0.98-0.63-1.205
				c-0.14-0.084-0.518-0.098-0.812-0.098L72.93,84.449z"/>
		</g>
	</g>
	<g>
		<path d="M196.79,151.89c1.36-2.258,1.953-3.41,1.953-4.114c0-0.224-0.112-0.32-0.416-0.512c-0.32-0.208-0.417-0.368-0.417-0.625
			c0-0.352,0.272-0.592,0.641-0.592c0.48,0,0.832,0.4,0.832,0.88c0,0.913-0.768,2.674-2.097,4.883
			c-1.664,2.753-3.377,4.593-4.289,4.593c-0.48,0-0.816-0.271-0.816-0.688c0-0.353,0.272-0.641,0.624-0.641
			c0.561,0,0.561,0.448,0.977,0.448c0.208,0,0.399-0.128,0.768-0.528c0.288-0.304,1.009-1.248,1.137-1.456
			c0.097-0.192,0.16-0.385,0.16-0.561c0-0.641-0.88-4.226-1.312-5.314c-0.304-0.784-0.592-1.024-1.232-1.024
			c-0.176,0-0.32,0.017-0.496,0.064v-0.272c0.176-0.031,0.352-0.063,0.512-0.096c0.32-0.064,0.849-0.16,1.713-0.288h0.064
			c0.24,0,1.088,2.657,1.36,4.082L196.79,151.89z"/>
	</g>
	<g>
		<path d="M45.883,10.507c0.928,0.208,1.28,0.384,1.92,1.329c0.417,0.608,0.721,0.8,1.121,0.8c0.256,0,0.432-0.096,0.432-0.239
			c0-0.064-0.031-0.145-0.08-0.24c-0.096-0.192-0.128-0.32-0.128-0.448c0.017-0.272,0.272-0.544,0.528-0.544
			c0.336,0,0.561,0.24,0.561,0.592c0,0.641-0.593,1.217-1.489,1.217c-0.464,0-1.008-0.208-1.809-0.705
			c-0.752-0.464-1.265-0.672-1.681-0.672c-0.256,0-0.464,0.08-0.72,0.288l-0.145-0.144l4.962-5.955h-2.177
			c-0.832,0-1.137,0.145-1.456,0.96l-0.257-0.064l0.513-1.856h4.529v0.176L45.883,10.507z"/>
	</g>
	<g enable-background="new    ">
		<g>
			<path d="M135.872,29.947c-2.129,2.017-2.857,5.113-2.857,7.971c0,1.358,0.154,2.213,0.672,3.642l-0.252,0.084
				c-0.896-1.442-1.387-3.264-1.387-5.057c0-1.443,0.309-2.872,1.037-4.062c0.546-0.882,1.316-1.611,2.605-2.788L135.872,29.947z"/>
			<path d="M139.693,34.934c0.98-1.499,1.499-2.003,2.115-2.003c0.337,0,0.574,0.21,0.574,0.518c0,0.294-0.195,0.504-0.476,0.504
				c-0.267,0-0.393-0.238-0.729-0.238c-0.252,0-0.757,0.617-1.373,1.695c0,0.098,0.028,0.294,0.112,0.63l0.448,1.877
				c0.098,0.392,0.224,0.574,0.42,0.574c0.183,0,0.336-0.14,0.658-0.561c0.126-0.168,0.183-0.252,0.295-0.392l0.21,0.126
				c-0.812,1.261-1.177,1.597-1.709,1.597c-0.448,0-0.658-0.252-0.826-0.953l-0.406-1.667l-1.233,1.667
				c-0.616,0.826-0.896,0.953-1.33,0.953c-0.435,0-0.701-0.224-0.701-0.588c0-0.28,0.196-0.504,0.477-0.504
				c0.126,0,0.267,0.056,0.448,0.154c0.141,0.084,0.28,0.126,0.364,0.126c0.154,0,0.42-0.266,0.715-0.687l1.148-1.625l-0.393-1.737
				c-0.196-0.84-0.294-0.953-0.645-0.953c-0.111,0-0.279,0.028-0.546,0.098l-0.252,0.07l-0.042-0.224l0.154-0.056
				c0.854-0.308,1.316-0.406,1.639-0.406c0.35,0,0.518,0.252,0.714,1.205L139.693,34.934z"/>
			<path d="M142.267,40.663c0.742-0.476,1.064-0.882,1.064-1.261c0-0.14-0.056-0.238-0.28-0.406c-0.28-0.21-0.35-0.42-0.35-0.686
				c0-0.336,0.308-0.616,0.714-0.616c0.505,0,0.812,0.476,0.812,1.036c0,0.785-0.645,1.569-1.821,2.186L142.267,40.663z"/>
			<path d="M149.536,38.044c1.19-1.975,1.708-2.984,1.708-3.6c0-0.196-0.098-0.28-0.363-0.448c-0.28-0.182-0.364-0.322-0.364-0.546
				c0-0.308,0.237-0.518,0.56-0.518c0.421,0,0.729,0.35,0.729,0.771c0,0.798-0.672,2.339-1.835,4.272
				c-1.457,2.41-2.955,4.021-3.754,4.021c-0.42,0-0.714-0.238-0.714-0.603c0-0.308,0.237-0.56,0.546-0.56
				c0.49,0,0.49,0.392,0.854,0.392c0.182,0,0.35-0.112,0.672-0.462c0.253-0.266,0.883-1.092,0.995-1.274
				c0.084-0.168,0.14-0.336,0.14-0.491c0-0.56-0.771-3.698-1.148-4.65c-0.266-0.686-0.519-0.896-1.078-0.896
				c-0.154,0-0.28,0.014-0.435,0.056v-0.238c0.154-0.028,0.308-0.056,0.448-0.084c0.28-0.056,0.742-0.14,1.499-0.252h0.056
				c0.21,0,0.952,2.325,1.19,3.572L149.536,38.044z"/>
			<path d="M151.815,40.663c0.742-0.476,1.064-0.882,1.064-1.261c0-0.14-0.056-0.238-0.28-0.406c-0.28-0.21-0.35-0.42-0.35-0.686
				c0-0.336,0.308-0.616,0.714-0.616c0.505,0,0.812,0.476,0.812,1.036c0,0.785-0.645,1.569-1.821,2.186L151.815,40.663z"/>
			<path d="M156.66,38.086c0.812,0.182,1.121,0.336,1.681,1.163c0.364,0.532,0.631,0.7,0.98,0.7c0.225,0,0.379-0.084,0.379-0.21
				c0-0.056-0.028-0.126-0.07-0.21c-0.084-0.168-0.112-0.28-0.112-0.393c0.015-0.238,0.238-0.476,0.463-0.476
				c0.294,0,0.49,0.21,0.49,0.518c0,0.561-0.519,1.065-1.303,1.065c-0.406,0-0.883-0.182-1.583-0.617
				c-0.658-0.406-1.106-0.588-1.471-0.588c-0.225,0-0.406,0.07-0.631,0.252l-0.126-0.126l4.343-5.211h-1.905
				c-0.729,0-0.995,0.126-1.274,0.84l-0.225-0.056l0.448-1.625h3.964v0.154L156.66,38.086z"/>
			<path d="M163.493,29.737c0.658,1.177,0.882,1.723,1.12,2.76c0.168,0.784,0.267,1.597,0.267,2.353c0,1.415-0.393,2.746-1.093,3.95
				c-0.547,0.938-1.274,1.723-2.55,2.83l-0.182-0.21c1.177-1.247,1.694-2.185,2.171-3.67c0.435-1.345,0.687-2.956,0.687-4.272
				c0-1.401-0.21-2.536-0.687-3.67L163.493,29.737z"/>
		</g>
	</g>
	<g enable-background="new    ">
		<g>
			<path fill="#0000FF" d="M4.24,45.882c0.812,0.182,1.121,0.336,1.681,1.163c0.364,0.532,0.63,0.7,0.98,0.7
				c0.224,0,0.378-0.084,0.378-0.21c0-0.056-0.028-0.126-0.07-0.21c-0.084-0.168-0.112-0.28-0.112-0.393
				c0.014-0.238,0.238-0.476,0.462-0.476c0.294,0,0.491,0.21,0.491,0.518c0,0.561-0.519,1.065-1.303,1.065
				c-0.406,0-0.883-0.182-1.583-0.617c-0.658-0.406-1.106-0.588-1.471-0.588c-0.224,0-0.406,0.07-0.63,0.252l-0.126-0.126
				l4.342-5.211H5.374c-0.728,0-0.995,0.126-1.274,0.84l-0.224-0.056l0.448-1.625h3.964v0.154L4.24,45.882z"/>
			<path fill="#0000FF" d="M9.615,42.423v-0.924h7.06v0.924H9.615z M9.615,45.224v-0.925h7.06v0.925H9.615z"/>
			<path fill="#0000FF" d="M24.528,45.504c-1.05,1.275-1.387,1.541-1.947,1.541c-0.393,0-0.561-0.168-0.561-0.574
				c0-0.35,0.028-0.462,0.322-1.611c-1.051,1.583-1.863,2.199-2.844,2.199c-0.784,0-1.4-0.561-1.4-1.625
				c0-2.171,2.143-4.707,4.006-4.707c0.603,0,1.009,0.294,1.121,0.812l0.154-0.672l0.042-0.042l0.854-0.098l0.098,0.042
				c-0.028,0.126-0.042,0.154-0.084,0.294c-0.659,2.396-1.247,4.805-1.247,5.085c0,0.098,0.084,0.182,0.196,0.182
				c0.126,0,0.308-0.112,0.729-0.574l0.378-0.406L24.528,45.504z M22.189,41.036c-0.63,0-1.247,0.434-1.835,1.289
				c-0.588,0.882-1.079,2.129-1.079,3.012c0,0.771,0.336,1.037,0.841,1.037c0.7,0,1.358-0.771,1.779-1.373
				c0.658-0.952,1.079-2.157,1.079-3.151C22.973,41.358,22.679,41.036,22.189,41.036z"/>
			<path fill="#0000FF" d="M30.646,44.846c-0.448,0.869-0.728,1.275-1.148,1.611c-0.476,0.392-1.009,0.588-1.611,0.588
				c-1.555,0-2.662-1.303-2.662-3.11c0-1.163,0.42-2.129,1.177-2.759c0.56-0.462,1.232-0.714,1.891-0.714
				c1.177,0,2.157,0.658,2.157,1.443c0,0.322-0.294,0.588-0.659,0.588c-0.308,0-0.56-0.238-0.672-0.644l-0.084-0.308
				c-0.14-0.519-0.322-0.672-0.826-0.672c-1.135,0-1.905,0.98-1.905,2.437c0,1.611,0.882,2.731,2.171,2.731
				c0.798,0,1.303-0.336,1.975-1.316L30.646,44.846z"/>
			<path fill="#0000FF" d="M34.522,47.045c-1.695,0-3.025-1.387-3.025-3.334c0-1.947,1.261-3.25,3.152-3.25
				c1.708,0,3.025,1.274,3.025,3.208C37.674,45.616,36.413,47.045,34.522,47.045z M35.713,41.554c-0.336-0.42-0.729-0.7-1.331-0.7
				c-0.967,0-1.625,0.827-1.625,2.227c0,1.107,0.224,2.115,0.742,2.872c0.308,0.448,0.756,0.701,1.261,0.701
				c1.037,0,1.653-0.98,1.653-2.605C36.413,43.095,36.161,42.129,35.713,41.554z"/>
			<path fill="#0000FF" d="M41.733,43.571c0.896,0.546,1.232,0.925,1.232,1.723c0,0.938-0.896,1.751-1.961,1.751
				c-0.294,0-0.7-0.014-1.022-0.126c-0.336-0.112-0.49-0.126-0.645-0.126c-0.168,0-0.252,0.028-0.336,0.168h-0.182v-2.199h0.224
				c0.294,1.359,0.812,1.975,1.779,1.975c0.714,0,1.163-0.462,1.163-1.037c0-0.434-0.28-0.798-0.742-1.051l-0.756-0.42
				c-1.163-0.645-1.681-1.317-1.681-2.031c0-1.106,0.785-1.723,1.933-1.723c0.336,0,0.645,0.014,0.938,0.154
				c0.154,0.07,0.294,0.112,0.392,0.112c0.056,0,0.112-0.014,0.224-0.14h0.154l0.07,1.905h-0.21
				c-0.322-1.261-0.743-1.723-1.583-1.723c-0.602,0-1.05,0.294-1.05,0.952c0,0.308,0.21,0.714,0.602,0.953L41.733,43.571z"/>
			<path fill="#0000FF" d="M49.336,40.728c0.644,0,1.022,0.014,1.415,0.168c0.687,0.266,1.121,0.771,1.121,1.765
				c0,1.625-1.527,4.384-4.286,4.398l-0.756,2.717h-1.093l0.756-2.717c-0.603,0-1.148-0.042-1.499-0.154
				c-0.728-0.238-1.078-0.896-1.078-1.793c0-1.415,1.569-4.384,4.132-4.384h0.21l0.938-3.39h1.079L49.336,40.728z M48.173,41.022
				c-1.625,0-3.082,2.494-3.082,4.469c0,0.588,0.238,0.994,0.672,1.163c0.224,0.084,0.49,0.112,0.812,0.112L48.173,41.022z
				 M47.669,46.765c0.35,0,0.574-0.028,0.966-0.224c1.149-0.574,2.059-3.054,2.059-4.216c0-0.63-0.266-0.98-0.63-1.205
				c-0.14-0.084-0.518-0.098-0.812-0.098L47.669,46.765z"/>
		</g>
		<g enable-background="new    ">
			<g>
				<path fill="#0000FF" d="M109.224,86.058c-1.05,1.275-1.387,1.541-1.947,1.541c-0.393,0-0.561-0.168-0.561-0.574
					c0-0.35,0.028-0.462,0.322-1.611c-1.051,1.583-1.863,2.199-2.844,2.199c-0.784,0-1.4-0.561-1.4-1.625
					c0-2.171,2.143-4.707,4.006-4.707c0.603,0,1.009,0.294,1.121,0.812l0.154-0.672l0.042-0.042l0.854-0.098l0.098,0.042
					c-0.028,0.126-0.042,0.154-0.084,0.294c-0.659,2.396-1.247,4.805-1.247,5.085c0,0.098,0.084,0.182,0.196,0.182
					c0.126,0,0.308-0.112,0.729-0.574l0.378-0.406L109.224,86.058z M106.884,81.59c-0.63,0-1.247,0.434-1.835,1.289
					c-0.588,0.882-1.079,2.129-1.079,3.012c0,0.771,0.336,1.037,0.841,1.037c0.7,0,1.358-0.771,1.779-1.373
					c0.658-0.952,1.079-2.157,1.079-3.151C107.669,81.912,107.375,81.59,106.884,81.59z"/>
			</g>
		</g>
	</g>
	<g>
	</g>
</g>
</svg>
