<?xml version="1.0" encoding="utf-8"?>
<!-- Generator: Adobe Illustrator 25.4.1, SVG Export Plug-In . SVG Version: 6.00 Build 0)  -->
<svg version="1.1" xmlns="http://www.w3.org/2000/svg" xmlns:xlink="http://www.w3.org/1999/xlink" x="0px" y="0px"
	 viewBox="0 0 67.528 52.035" enable-background="new 0 0 67.528 52.035" xml:space="preserve">
<g id="Graph_paper_slanted" opacity="0.5">
	<g id="Clipped_grid_00000003068028900943026870000011536296927355263674_">
		<defs>
			<polygon id="SVGID_1_" points="54.116,49.233 -39.093,49.233 9.933,0.208 103.141,0.208 			"/>
		</defs>
		<clipPath id="SVGID_00000075847386798238319120000006873038094254945460_">
			<use xlink:href="#SVGID_1_"  overflow="visible"/>
		</clipPath>
		
			<g id="Grid_00000142891597197125820610000009767860333217090727_" opacity="0.25" clip-path="url(#SVGID_00000075847386798238319120000006873038094254945460_)">
			<g id="Horizontal_1_mm_00000151508609497893311650000018408800186222605470_">
				
					<line fill="none" stroke="#00ABEB" stroke-width="0.15" stroke-miterlimit="10" x1="-23.79" y1="-33.583" x2="203.051" y2="-33.583"/>
				
					<line fill="none" stroke="#00ABEB" stroke-width="0.15" stroke-miterlimit="10" x1="-21.802" y1="-35.572" x2="205.039" y2="-35.572"/>
				
					<line fill="none" stroke="#00ABEB" stroke-width="0.15" stroke-miterlimit="10" x1="-141.079" y1="83.705" x2="85.762" y2="83.705"/>
				
					<line fill="none" stroke="#00ABEB" stroke-width="0.15" stroke-miterlimit="10" x1="-139.091" y1="81.716" x2="87.75" y2="81.716"/>
				
					<line fill="none" stroke="#00ABEB" stroke-width="0.15" stroke-miterlimit="10" x1="-137.103" y1="79.729" x2="89.738" y2="79.729"/>
				
					<line fill="none" stroke="#00ABEB" stroke-width="0.15" stroke-miterlimit="10" x1="-135.115" y1="77.741" x2="91.726" y2="77.741"/>
				
					<line fill="none" stroke="#00ABEB" stroke-width="0.15" stroke-miterlimit="10" x1="-133.127" y1="75.753" x2="93.714" y2="75.753"/>
				
					<line fill="none" stroke="#00ABEB" stroke-width="0.15" stroke-miterlimit="10" x1="-131.139" y1="73.765" x2="95.702" y2="73.765"/>
				
					<line fill="none" stroke="#00ABEB" stroke-width="0.15" stroke-miterlimit="10" x1="-129.151" y1="71.777" x2="97.69" y2="71.777"/>
				
					<line fill="none" stroke="#00ABEB" stroke-width="0.15" stroke-miterlimit="10" x1="-127.164" y1="69.79" x2="99.677" y2="69.79"/>
				
					<line fill="none" stroke="#00ABEB" stroke-width="0.15" stroke-miterlimit="10" x1="-125.175" y1="67.801" x2="101.666" y2="67.801"/>
				
					<line fill="none" stroke="#00ABEB" stroke-width="0.15" stroke-miterlimit="10" x1="-123.187" y1="65.813" x2="103.654" y2="65.813"/>
				
					<line fill="none" stroke="#00ABEB" stroke-width="0.15" stroke-miterlimit="10" x1="-121.2" y1="63.825" x2="105.641" y2="63.825"/>
				
					<line fill="none" stroke="#00ABEB" stroke-width="0.15" stroke-miterlimit="10" x1="-119.211" y1="61.837" x2="107.63" y2="61.837"/>
				
					<line fill="none" stroke="#00ABEB" stroke-width="0.15" stroke-miterlimit="10" x1="-117.223" y1="59.849" x2="109.618" y2="59.849"/>
				
					<line fill="none" stroke="#00ABEB" stroke-width="0.15" stroke-miterlimit="10" x1="-115.236" y1="57.862" x2="111.605" y2="57.862"/>
				
					<line fill="none" stroke="#00ABEB" stroke-width="0.15" stroke-miterlimit="10" x1="-113.247" y1="55.874" x2="113.593" y2="55.874"/>
				
					<line fill="none" stroke="#00ABEB" stroke-width="0.15" stroke-miterlimit="10" x1="-111.259" y1="53.885" x2="115.581" y2="53.885"/>
				
					<line fill="none" stroke="#00ABEB" stroke-width="0.15" stroke-miterlimit="10" x1="-109.272" y1="51.898" x2="117.569" y2="51.898"/>
				
					<line fill="none" stroke="#00ABEB" stroke-width="0.15" stroke-miterlimit="10" x1="-107.284" y1="49.91" x2="119.557" y2="49.91"/>
				
					<line fill="none" stroke="#00ABEB" stroke-width="0.15" stroke-miterlimit="10" x1="-105.296" y1="47.922" x2="121.545" y2="47.922"/>
				
					<line fill="none" stroke="#00ABEB" stroke-width="0.15" stroke-miterlimit="10" x1="-103.308" y1="45.934" x2="123.533" y2="45.934"/>
				
					<line fill="none" stroke="#00ABEB" stroke-width="0.15" stroke-miterlimit="10" x1="-101.32" y1="43.946" x2="125.521" y2="43.946"/>
				
					<line fill="none" stroke="#00ABEB" stroke-width="0.15" stroke-miterlimit="10" x1="-99.331" y1="41.958" x2="127.509" y2="41.958"/>
				
					<line fill="none" stroke="#00ABEB" stroke-width="0.15" stroke-miterlimit="10" x1="-97.344" y1="39.97" x2="129.497" y2="39.97"/>
				
					<line fill="none" stroke="#00ABEB" stroke-width="0.15" stroke-miterlimit="10" x1="-95.356" y1="37.982" x2="131.485" y2="37.982"/>
				
					<line fill="none" stroke="#00ABEB" stroke-width="0.15" stroke-miterlimit="10" x1="-93.368" y1="35.994" x2="133.473" y2="35.994"/>
				
					<line fill="none" stroke="#00ABEB" stroke-width="0.15" stroke-miterlimit="10" x1="-91.38" y1="34.006" x2="135.461" y2="34.006"/>
				
					<line fill="none" stroke="#00ABEB" stroke-width="0.15" stroke-miterlimit="10" x1="-89.392" y1="32.018" x2="137.449" y2="32.018"/>
				
					<line fill="none" stroke="#00ABEB" stroke-width="0.15" stroke-miterlimit="10" x1="-87.404" y1="30.031" x2="139.436" y2="30.031"/>
				
					<line fill="none" stroke="#00ABEB" stroke-width="0.15" stroke-miterlimit="10" x1="-85.416" y1="28.043" x2="141.425" y2="28.043"/>
				
					<line fill="none" stroke="#00ABEB" stroke-width="0.15" stroke-miterlimit="10" x1="-83.428" y1="26.054" x2="143.413" y2="26.054"/>
				
					<line fill="none" stroke="#00ABEB" stroke-width="0.15" stroke-miterlimit="10" x1="-81.441" y1="24.067" x2="145.4" y2="24.067"/>
				
					<line fill="none" stroke="#00ABEB" stroke-width="0.15" stroke-miterlimit="10" x1="-79.452" y1="22.079" x2="147.388" y2="22.079"/>
				
					<line fill="none" stroke="#00ABEB" stroke-width="0.15" stroke-miterlimit="10" x1="-77.464" y1="20.091" x2="149.377" y2="20.091"/>
				
					<line fill="none" stroke="#00ABEB" stroke-width="0.15" stroke-miterlimit="10" x1="-75.477" y1="18.103" x2="151.364" y2="18.103"/>
				
					<line fill="none" stroke="#00ABEB" stroke-width="0.15" stroke-miterlimit="10" x1="-73.489" y1="16.115" x2="153.352" y2="16.115"/>
				
					<line fill="none" stroke="#00ABEB" stroke-width="0.15" stroke-miterlimit="10" x1="-71.5" y1="14.127" x2="155.34" y2="14.127"/>
				
					<line fill="none" stroke="#00ABEB" stroke-width="0.15" stroke-miterlimit="10" x1="-69.513" y1="12.139" x2="157.328" y2="12.139"/>
				
					<line fill="none" stroke="#00ABEB" stroke-width="0.15" stroke-miterlimit="10" x1="-67.525" y1="10.151" x2="159.316" y2="10.151"/>
				
					<line fill="none" stroke="#00ABEB" stroke-width="0.15" stroke-miterlimit="10" x1="-65.537" y1="8.163" x2="161.304" y2="8.163"/>
				
					<line fill="none" stroke="#00ABEB" stroke-width="0.15" stroke-miterlimit="10" x1="-63.549" y1="6.176" x2="163.292" y2="6.176"/>
				
					<line fill="none" stroke="#00ABEB" stroke-width="0.15" stroke-miterlimit="10" x1="-61.561" y1="4.187" x2="165.28" y2="4.187"/>
				<line fill="none" stroke="#00ABEB" stroke-width="0.15" stroke-miterlimit="10" x1="-59.573" y1="2.2" x2="167.268" y2="2.2"/>
				
					<line fill="none" stroke="#00ABEB" stroke-width="0.15" stroke-miterlimit="10" x1="-57.585" y1="0.211" x2="169.256" y2="0.211"/>
				
					<line fill="none" stroke="#00ABEB" stroke-width="0.15" stroke-miterlimit="10" x1="-55.597" y1="-1.777" x2="171.244" y2="-1.777"/>
				
					<line fill="none" stroke="#00ABEB" stroke-width="0.15" stroke-miterlimit="10" x1="-53.609" y1="-3.764" x2="173.231" y2="-3.764"/>
				
					<line fill="none" stroke="#00ABEB" stroke-width="0.15" stroke-miterlimit="10" x1="-51.621" y1="-5.752" x2="175.22" y2="-5.752"/>
				
					<line fill="none" stroke="#00ABEB" stroke-width="0.15" stroke-miterlimit="10" x1="-49.633" y1="-7.741" x2="177.208" y2="-7.741"/>
				
					<line fill="none" stroke="#00ABEB" stroke-width="0.15" stroke-miterlimit="10" x1="-47.646" y1="-9.728" x2="179.195" y2="-9.728"/>
				
					<line fill="none" stroke="#00ABEB" stroke-width="0.15" stroke-miterlimit="10" x1="-45.657" y1="-11.716" x2="181.183" y2="-11.716"/>
				
					<line fill="none" stroke="#00ABEB" stroke-width="0.15" stroke-miterlimit="10" x1="-43.669" y1="-13.704" x2="183.172" y2="-13.704"/>
				
					<line fill="none" stroke="#00ABEB" stroke-width="0.15" stroke-miterlimit="10" x1="-41.682" y1="-15.692" x2="185.159" y2="-15.692"/>
				
					<line fill="none" stroke="#00ABEB" stroke-width="0.15" stroke-miterlimit="10" x1="-39.694" y1="-17.68" x2="187.147" y2="-17.68"/>
				
					<line fill="none" stroke="#00ABEB" stroke-width="0.15" stroke-miterlimit="10" x1="-37.705" y1="-19.668" x2="189.135" y2="-19.668"/>
				
					<line fill="none" stroke="#00ABEB" stroke-width="0.15" stroke-miterlimit="10" x1="-35.718" y1="-21.656" x2="191.123" y2="-21.656"/>
				
					<line fill="none" stroke="#00ABEB" stroke-width="0.15" stroke-miterlimit="10" x1="-33.729" y1="-23.644" x2="193.111" y2="-23.644"/>
				
					<line fill="none" stroke="#00ABEB" stroke-width="0.15" stroke-miterlimit="10" x1="-31.742" y1="-25.632" x2="195.099" y2="-25.632"/>
				
					<line fill="none" stroke="#00ABEB" stroke-width="0.15" stroke-miterlimit="10" x1="-29.754" y1="-27.62" x2="197.087" y2="-27.62"/>
				
					<line fill="none" stroke="#00ABEB" stroke-width="0.15" stroke-miterlimit="10" x1="-27.766" y1="-29.608" x2="199.075" y2="-29.608"/>
				
					<line fill="none" stroke="#00ABEB" stroke-width="0.15" stroke-miterlimit="10" x1="-25.778" y1="-31.595" x2="201.063" y2="-31.595"/>
			</g>
			<g id="Vertical_1_mm_00000181073523592228201180000012361058669048395659_">
				<g>
					
						<line fill="none" stroke="#00ABEB" stroke-width="0.15" stroke-miterlimit="10" x1="-140.994" y1="83.695" x2="-21.674" y2="-35.624"/>
				</g>
				
					<line fill="none" stroke="#00ABEB" stroke-width="0.15" stroke-miterlimit="10" x1="-138.16" y1="83.695" x2="-18.84" y2="-35.624"/>
				
					<line fill="none" stroke="#00ABEB" stroke-width="0.15" stroke-miterlimit="10" x1="-135.325" y1="83.695" x2="-16.005" y2="-35.624"/>
				
					<line fill="none" stroke="#00ABEB" stroke-width="0.15" stroke-miterlimit="10" x1="-132.49" y1="83.695" x2="-13.17" y2="-35.624"/>
				
					<line fill="none" stroke="#00ABEB" stroke-width="0.15" stroke-miterlimit="10" x1="-129.656" y1="83.695" x2="-10.336" y2="-35.624"/>
				
					<line fill="none" stroke="#00ABEB" stroke-width="0.15" stroke-miterlimit="10" x1="-126.821" y1="83.695" x2="-7.501" y2="-35.624"/>
				
					<line fill="none" stroke="#00ABEB" stroke-width="0.15" stroke-miterlimit="10" x1="-123.986" y1="83.695" x2="-4.666" y2="-35.624"/>
				
					<line fill="none" stroke="#00ABEB" stroke-width="0.15" stroke-miterlimit="10" x1="-121.152" y1="83.695" x2="-1.832" y2="-35.624"/>
				
					<line fill="none" stroke="#00ABEB" stroke-width="0.15" stroke-miterlimit="10" x1="-118.317" y1="83.695" x2="1.003" y2="-35.624"/>
				
					<line fill="none" stroke="#00ABEB" stroke-width="0.15" stroke-miterlimit="10" x1="-115.483" y1="83.695" x2="3.837" y2="-35.624"/>
				
					<line fill="none" stroke="#00ABEB" stroke-width="0.15" stroke-miterlimit="10" x1="-112.648" y1="83.695" x2="6.672" y2="-35.624"/>
				
					<line fill="none" stroke="#00ABEB" stroke-width="0.15" stroke-miterlimit="10" x1="-109.813" y1="83.695" x2="9.507" y2="-35.624"/>
				
					<line fill="none" stroke="#00ABEB" stroke-width="0.15" stroke-miterlimit="10" x1="-106.979" y1="83.695" x2="12.341" y2="-35.624"/>
				
					<line fill="none" stroke="#00ABEB" stroke-width="0.15" stroke-miterlimit="10" x1="-104.144" y1="83.695" x2="15.176" y2="-35.624"/>
				
					<line fill="none" stroke="#00ABEB" stroke-width="0.15" stroke-miterlimit="10" x1="-101.309" y1="83.695" x2="18.011" y2="-35.624"/>
				
					<line fill="none" stroke="#00ABEB" stroke-width="0.15" stroke-miterlimit="10" x1="-98.475" y1="83.695" x2="20.845" y2="-35.624"/>
				
					<line fill="none" stroke="#00ABEB" stroke-width="0.15" stroke-miterlimit="10" x1="-95.64" y1="83.695" x2="23.68" y2="-35.624"/>
				
					<line fill="none" stroke="#00ABEB" stroke-width="0.15" stroke-miterlimit="10" x1="-92.805" y1="83.695" x2="26.515" y2="-35.624"/>
				
					<line fill="none" stroke="#00ABEB" stroke-width="0.15" stroke-miterlimit="10" x1="-89.971" y1="83.695" x2="29.349" y2="-35.624"/>
				
					<line fill="none" stroke="#00ABEB" stroke-width="0.15" stroke-miterlimit="10" x1="-87.136" y1="83.695" x2="32.184" y2="-35.624"/>
				
					<line fill="none" stroke="#00ABEB" stroke-width="0.15" stroke-miterlimit="10" x1="-84.301" y1="83.695" x2="35.019" y2="-35.624"/>
				
					<line fill="none" stroke="#00ABEB" stroke-width="0.15" stroke-miterlimit="10" x1="-81.467" y1="83.695" x2="37.853" y2="-35.624"/>
				
					<line fill="none" stroke="#00ABEB" stroke-width="0.15" stroke-miterlimit="10" x1="-78.632" y1="83.695" x2="40.688" y2="-35.624"/>
				
					<line fill="none" stroke="#00ABEB" stroke-width="0.15" stroke-miterlimit="10" x1="-75.797" y1="83.695" x2="43.523" y2="-35.624"/>
				
					<line fill="none" stroke="#00ABEB" stroke-width="0.15" stroke-miterlimit="10" x1="-72.963" y1="83.695" x2="46.357" y2="-35.624"/>
				
					<line fill="none" stroke="#00ABEB" stroke-width="0.15" stroke-miterlimit="10" x1="-70.128" y1="83.695" x2="49.192" y2="-35.624"/>
				
					<line fill="none" stroke="#00ABEB" stroke-width="0.15" stroke-miterlimit="10" x1="-67.294" y1="83.695" x2="52.026" y2="-35.624"/>
				
					<line fill="none" stroke="#00ABEB" stroke-width="0.15" stroke-miterlimit="10" x1="-64.459" y1="83.695" x2="54.861" y2="-35.624"/>
				
					<line fill="none" stroke="#00ABEB" stroke-width="0.15" stroke-miterlimit="10" x1="-61.624" y1="83.695" x2="57.696" y2="-35.624"/>
				
					<line fill="none" stroke="#00ABEB" stroke-width="0.15" stroke-miterlimit="10" x1="-58.79" y1="83.695" x2="60.53" y2="-35.624"/>
				
					<line fill="none" stroke="#00ABEB" stroke-width="0.15" stroke-miterlimit="10" x1="-55.955" y1="83.695" x2="63.365" y2="-35.624"/>
				
					<line fill="none" stroke="#00ABEB" stroke-width="0.15" stroke-miterlimit="10" x1="-53.12" y1="83.695" x2="66.2" y2="-35.624"/>
				
					<line fill="none" stroke="#00ABEB" stroke-width="0.15" stroke-miterlimit="10" x1="-50.286" y1="83.695" x2="69.034" y2="-35.624"/>
				
					<line fill="none" stroke="#00ABEB" stroke-width="0.15" stroke-miterlimit="10" x1="-47.451" y1="83.695" x2="71.869" y2="-35.624"/>
				
					<line fill="none" stroke="#00ABEB" stroke-width="0.15" stroke-miterlimit="10" x1="-44.616" y1="83.695" x2="74.704" y2="-35.624"/>
				
					<line fill="none" stroke="#00ABEB" stroke-width="0.15" stroke-miterlimit="10" x1="-41.782" y1="83.695" x2="77.538" y2="-35.624"/>
				
					<line fill="none" stroke="#00ABEB" stroke-width="0.15" stroke-miterlimit="10" x1="-38.947" y1="83.695" x2="80.373" y2="-35.624"/>
				
					<line fill="none" stroke="#00ABEB" stroke-width="0.15" stroke-miterlimit="10" x1="-36.112" y1="83.695" x2="83.208" y2="-35.624"/>
				
					<line fill="none" stroke="#00ABEB" stroke-width="0.15" stroke-miterlimit="10" x1="-33.278" y1="83.695" x2="86.042" y2="-35.624"/>
				
					<line fill="none" stroke="#00ABEB" stroke-width="0.15" stroke-miterlimit="10" x1="-30.443" y1="83.695" x2="88.877" y2="-35.624"/>
				
					<line fill="none" stroke="#00ABEB" stroke-width="0.15" stroke-miterlimit="10" x1="-27.609" y1="83.695" x2="91.711" y2="-35.624"/>
				
					<line fill="none" stroke="#00ABEB" stroke-width="0.15" stroke-miterlimit="10" x1="-24.774" y1="83.695" x2="94.546" y2="-35.624"/>
				
					<line fill="none" stroke="#00ABEB" stroke-width="0.15" stroke-miterlimit="10" x1="-21.939" y1="83.695" x2="97.381" y2="-35.624"/>
				
					<line fill="none" stroke="#00ABEB" stroke-width="0.15" stroke-miterlimit="10" x1="-19.105" y1="83.695" x2="100.215" y2="-35.624"/>
				
					<line fill="none" stroke="#00ABEB" stroke-width="0.15" stroke-miterlimit="10" x1="-16.27" y1="83.695" x2="103.05" y2="-35.624"/>
				
					<line fill="none" stroke="#00ABEB" stroke-width="0.15" stroke-miterlimit="10" x1="-13.435" y1="83.695" x2="105.885" y2="-35.624"/>
				
					<line fill="none" stroke="#00ABEB" stroke-width="0.15" stroke-miterlimit="10" x1="-10.601" y1="83.695" x2="108.719" y2="-35.624"/>
				
					<line fill="none" stroke="#00ABEB" stroke-width="0.15" stroke-miterlimit="10" x1="-7.766" y1="83.695" x2="111.554" y2="-35.624"/>
				
					<line fill="none" stroke="#00ABEB" stroke-width="0.15" stroke-miterlimit="10" x1="-4.931" y1="83.695" x2="114.389" y2="-35.624"/>
				
					<line fill="none" stroke="#00ABEB" stroke-width="0.15" stroke-miterlimit="10" x1="-2.097" y1="83.695" x2="117.223" y2="-35.624"/>
				
					<line fill="none" stroke="#00ABEB" stroke-width="0.15" stroke-miterlimit="10" x1="0.738" y1="83.695" x2="120.058" y2="-35.624"/>
				
					<line fill="none" stroke="#00ABEB" stroke-width="0.15" stroke-miterlimit="10" x1="3.573" y1="83.695" x2="122.893" y2="-35.624"/>
				
					<line fill="none" stroke="#00ABEB" stroke-width="0.15" stroke-miterlimit="10" x1="6.407" y1="83.695" x2="125.727" y2="-35.624"/>
				
					<line fill="none" stroke="#00ABEB" stroke-width="0.15" stroke-miterlimit="10" x1="9.242" y1="83.695" x2="128.562" y2="-35.624"/>
				
					<line fill="none" stroke="#00ABEB" stroke-width="0.15" stroke-miterlimit="10" x1="12.077" y1="83.695" x2="131.397" y2="-35.624"/>
				
					<line fill="none" stroke="#00ABEB" stroke-width="0.15" stroke-miterlimit="10" x1="14.911" y1="83.695" x2="134.231" y2="-35.624"/>
				
					<line fill="none" stroke="#00ABEB" stroke-width="0.15" stroke-miterlimit="10" x1="17.746" y1="83.695" x2="137.066" y2="-35.624"/>
				
					<line fill="none" stroke="#00ABEB" stroke-width="0.15" stroke-miterlimit="10" x1="20.58" y1="83.695" x2="139.9" y2="-35.624"/>
				
					<line fill="none" stroke="#00ABEB" stroke-width="0.15" stroke-miterlimit="10" x1="23.415" y1="83.695" x2="142.735" y2="-35.624"/>
				
					<line fill="none" stroke="#00ABEB" stroke-width="0.15" stroke-miterlimit="10" x1="26.25" y1="83.695" x2="145.57" y2="-35.624"/>
				
					<line fill="none" stroke="#00ABEB" stroke-width="0.15" stroke-miterlimit="10" x1="29.084" y1="83.695" x2="148.404" y2="-35.624"/>
				
					<line fill="none" stroke="#00ABEB" stroke-width="0.15" stroke-miterlimit="10" x1="31.919" y1="83.695" x2="151.239" y2="-35.624"/>
				
					<line fill="none" stroke="#00ABEB" stroke-width="0.15" stroke-miterlimit="10" x1="34.754" y1="83.695" x2="154.074" y2="-35.624"/>
				
					<line fill="none" stroke="#00ABEB" stroke-width="0.15" stroke-miterlimit="10" x1="37.588" y1="83.695" x2="156.908" y2="-35.624"/>
				
					<line fill="none" stroke="#00ABEB" stroke-width="0.15" stroke-miterlimit="10" x1="40.423" y1="83.695" x2="159.743" y2="-35.624"/>
				
					<line fill="none" stroke="#00ABEB" stroke-width="0.15" stroke-miterlimit="10" x1="43.258" y1="83.695" x2="162.578" y2="-35.624"/>
				
					<line fill="none" stroke="#00ABEB" stroke-width="0.15" stroke-miterlimit="10" x1="46.092" y1="83.695" x2="165.412" y2="-35.624"/>
				
					<line fill="none" stroke="#00ABEB" stroke-width="0.15" stroke-miterlimit="10" x1="48.927" y1="83.695" x2="168.247" y2="-35.624"/>
				
					<line fill="none" stroke="#00ABEB" stroke-width="0.15" stroke-miterlimit="10" x1="51.762" y1="83.695" x2="171.082" y2="-35.624"/>
				
					<line fill="none" stroke="#00ABEB" stroke-width="0.15" stroke-miterlimit="10" x1="54.596" y1="83.695" x2="173.916" y2="-35.624"/>
				
					<line fill="none" stroke="#00ABEB" stroke-width="0.15" stroke-miterlimit="10" x1="57.431" y1="83.695" x2="176.751" y2="-35.624"/>
				
					<line fill="none" stroke="#00ABEB" stroke-width="0.15" stroke-miterlimit="10" x1="60.266" y1="83.695" x2="179.586" y2="-35.624"/>
				
					<line fill="none" stroke="#00ABEB" stroke-width="0.15" stroke-miterlimit="10" x1="63.1" y1="83.695" x2="182.42" y2="-35.624"/>
				
					<line fill="none" stroke="#00ABEB" stroke-width="0.15" stroke-miterlimit="10" x1="65.935" y1="83.695" x2="185.255" y2="-35.624"/>
				
					<line fill="none" stroke="#00ABEB" stroke-width="0.15" stroke-miterlimit="10" x1="68.769" y1="83.695" x2="188.089" y2="-35.624"/>
				
					<line fill="none" stroke="#00ABEB" stroke-width="0.15" stroke-miterlimit="10" x1="71.604" y1="83.695" x2="190.924" y2="-35.624"/>
				
					<line fill="none" stroke="#00ABEB" stroke-width="0.15" stroke-miterlimit="10" x1="74.439" y1="83.695" x2="193.759" y2="-35.624"/>
				
					<line fill="none" stroke="#00ABEB" stroke-width="0.15" stroke-miterlimit="10" x1="77.273" y1="83.695" x2="196.593" y2="-35.624"/>
				
					<line fill="none" stroke="#00ABEB" stroke-width="0.15" stroke-miterlimit="10" x1="80.108" y1="83.695" x2="199.428" y2="-35.624"/>
				
					<line fill="none" stroke="#00ABEB" stroke-width="0.15" stroke-miterlimit="10" x1="82.943" y1="83.695" x2="202.263" y2="-35.624"/>
				
					<line fill="none" stroke="#00ABEB" stroke-width="0.15" stroke-miterlimit="10" x1="85.777" y1="83.695" x2="205.097" y2="-35.624"/>
			</g>
			<g id="Horizontal_5_mm_00000011735556503592991880000008134099091165005186_">
				
					<line fill="none" stroke="#00ABEB" stroke-width="0.3" stroke-miterlimit="10" x1="-141.354" y1="83.705" x2="85.762" y2="83.705"/>
				
					<line fill="none" stroke="#00ABEB" stroke-width="0.3" stroke-miterlimit="10" x1="-131.414" y1="73.765" x2="95.702" y2="73.765"/>
				
					<line fill="none" stroke="#00ABEB" stroke-width="0.3" stroke-miterlimit="10" x1="-121.474" y1="63.825" x2="105.641" y2="63.825"/>
				
					<line fill="none" stroke="#00ABEB" stroke-width="0.3" stroke-miterlimit="10" x1="-111.534" y1="53.885" x2="115.581" y2="53.885"/>
				
					<line fill="none" stroke="#00ABEB" stroke-width="0.3" stroke-miterlimit="10" x1="-101.595" y1="43.946" x2="125.521" y2="43.946"/>
				
					<line fill="none" stroke="#00ABEB" stroke-width="0.3" stroke-miterlimit="10" x1="-91.655" y1="34.006" x2="135.461" y2="34.006"/>
				
					<line fill="none" stroke="#00ABEB" stroke-width="0.3" stroke-miterlimit="10" x1="-81.716" y1="24.067" x2="145.4" y2="24.067"/>
				
					<line fill="none" stroke="#00ABEB" stroke-width="0.3" stroke-miterlimit="10" x1="-71.775" y1="14.127" x2="155.34" y2="14.127"/>
				
					<line fill="none" stroke="#00ABEB" stroke-width="0.3" stroke-miterlimit="10" x1="-61.836" y1="4.187" x2="165.28" y2="4.187"/>
				
					<line fill="none" stroke="#00ABEB" stroke-width="0.3" stroke-miterlimit="10" x1="-51.896" y1="-5.752" x2="175.22" y2="-5.752"/>
				
					<line fill="none" stroke="#00ABEB" stroke-width="0.3" stroke-miterlimit="10" x1="-41.957" y1="-15.692" x2="185.159" y2="-15.692"/>
			</g>
			<g id="Vertical_5_mm_00000064346364918789686960000003233481195482251947_">
				
					<line fill="none" stroke="#00ABEB" stroke-width="0.3" stroke-miterlimit="10" x1="-140.994" y1="83.695" x2="-21.481" y2="-35.817"/>
				
					<line fill="none" stroke="#00ABEB" stroke-width="0.3" stroke-miterlimit="10" x1="-126.821" y1="83.695" x2="-7.308" y2="-35.817"/>
				
					<line fill="none" stroke="#00ABEB" stroke-width="0.3" stroke-miterlimit="10" x1="-112.648" y1="83.695" x2="6.865" y2="-35.817"/>
				
					<line fill="none" stroke="#00ABEB" stroke-width="0.3" stroke-miterlimit="10" x1="-98.475" y1="83.695" x2="21.038" y2="-35.817"/>
				
					<line fill="none" stroke="#00ABEB" stroke-width="0.3" stroke-miterlimit="10" x1="-84.301" y1="83.695" x2="35.212" y2="-35.817"/>
				
					<line fill="none" stroke="#00ABEB" stroke-width="0.3" stroke-miterlimit="10" x1="-70.128" y1="83.695" x2="49.385" y2="-35.817"/>
				
					<line fill="none" stroke="#00ABEB" stroke-width="0.3" stroke-miterlimit="10" x1="-55.955" y1="83.695" x2="63.558" y2="-35.817"/>
				
					<line fill="none" stroke="#00ABEB" stroke-width="0.3" stroke-miterlimit="10" x1="-41.782" y1="83.695" x2="77.731" y2="-35.817"/>
				
					<line fill="none" stroke="#00ABEB" stroke-width="0.3" stroke-miterlimit="10" x1="-27.609" y1="83.695" x2="91.904" y2="-35.817"/>
				
					<line fill="none" stroke="#00ABEB" stroke-width="0.3" stroke-miterlimit="10" x1="-13.435" y1="83.695" x2="106.078" y2="-35.817"/>
				
					<line fill="none" stroke="#00ABEB" stroke-width="0.3" stroke-miterlimit="10" x1="0.738" y1="83.695" x2="120.251" y2="-35.817"/>
				
					<line fill="none" stroke="#00ABEB" stroke-width="0.3" stroke-miterlimit="10" x1="14.911" y1="83.695" x2="134.424" y2="-35.817"/>
				
					<line fill="none" stroke="#00ABEB" stroke-width="0.3" stroke-miterlimit="10" x1="29.084" y1="83.695" x2="148.597" y2="-35.817"/>
				
					<line fill="none" stroke="#00ABEB" stroke-width="0.3" stroke-miterlimit="10" x1="43.258" y1="83.695" x2="162.771" y2="-35.817"/>
				
					<line fill="none" stroke="#00ABEB" stroke-width="0.3" stroke-miterlimit="10" x1="57.431" y1="83.695" x2="176.944" y2="-35.817"/>
				
					<line fill="none" stroke="#00ABEB" stroke-width="0.3" stroke-miterlimit="10" x1="71.604" y1="83.695" x2="191.117" y2="-35.817"/>
				
					<line fill="none" stroke="#00ABEB" stroke-width="0.3" stroke-miterlimit="10" x1="85.777" y1="83.695" x2="205.29" y2="-35.817"/>
			</g>
			<g id="Horizontal_10_mm_00000163045836177147705350000008480455355013810362_">
				
					<line id="_x31_9_00000057116790517712807720000015084113881736219806_" fill="none" stroke="#00ABEB" stroke-width="0.7" stroke-miterlimit="10" x1="-141.354" y1="83.705" x2="85.762" y2="83.705"/>
				
					<line id="_x32_0_00000024685878617286333290000013167547815532084100_" fill="none" stroke="#00ABEB" stroke-width="0.7" stroke-miterlimit="10" x1="-121.474" y1="63.825" x2="105.641" y2="63.825"/>
				
					<line id="_x32_1_00000138564813020868535020000012777939180148238773_" fill="none" stroke="#00ABEB" stroke-width="0.7" stroke-miterlimit="10" x1="-101.595" y1="43.946" x2="125.521" y2="43.946"/>
				
					<line id="_x32_2_00000052807586205252870140000014502512662559454639_" fill="none" stroke="#00ABEB" stroke-width="0.7" stroke-miterlimit="10" x1="-81.716" y1="24.067" x2="145.4" y2="24.067"/>
				
					<line id="_x32_3_00000051376893246677475670000009295515732899575694_" fill="none" stroke="#00ABEB" stroke-width="0.7" stroke-miterlimit="10" x1="-61.836" y1="4.187" x2="165.28" y2="4.187"/>
				
					<line id="_x32_4_00000099657911357833521510000007853591198542098087_" fill="none" stroke="#00ABEB" stroke-width="0.7" stroke-miterlimit="10" x1="-41.957" y1="-15.692" x2="185.159" y2="-15.692"/>
				
					<line id="_x32_5_00000155127691660191171140000008292164438978366870_" fill="none" stroke="#00ABEB" stroke-width="0.7" stroke-miterlimit="10" x1="-22.077" y1="-35.572" x2="205.039" y2="-35.572"/>
			</g>
			<g id="Vertical_10_mm_00000134969164297783457920000010833503864539426239_">
				
					<line id="_x30__00000151539528360119995570000005083818057555393183_" fill="none" stroke="#00ABEB" stroke-width="0.7" stroke-miterlimit="10" x1="-140.994" y1="83.695" x2="-21.481" y2="-35.817"/>
				
					<line id="_x31__00000021823889366233599640000011971139016478256513_" fill="none" stroke="#00ABEB" stroke-width="0.7" stroke-miterlimit="10" x1="-112.648" y1="83.695" x2="6.865" y2="-35.817"/>
				
					<line id="_x32__00000071550223824624162640000006130814236846722696_" fill="none" stroke="#00ABEB" stroke-width="0.7" stroke-miterlimit="10" x1="-84.301" y1="83.695" x2="35.212" y2="-35.817"/>
				
					<line id="_x33__00000042015976804734918030000005045165563697445304_" fill="none" stroke="#00ABEB" stroke-width="0.7" stroke-miterlimit="10" x1="-55.955" y1="83.695" x2="63.558" y2="-35.817"/>
				
					<line id="_x34__00000081637789328126233800000002486991317463304126_" fill="none" stroke="#00ABEB" stroke-width="0.7" stroke-miterlimit="10" x1="-27.609" y1="83.695" x2="91.904" y2="-35.817"/>
				
					<line id="_x35__00000051353690731882489090000004794744233340785543_" fill="none" stroke="#00ABEB" stroke-width="0.7" stroke-miterlimit="10" x1="0.738" y1="83.695" x2="120.251" y2="-35.817"/>
				
					<line id="_x36__00000011745311307505536660000010485558803267122343_" fill="none" stroke="#00ABEB" stroke-width="0.7" stroke-miterlimit="10" x1="29.084" y1="83.695" x2="148.597" y2="-35.817"/>
				
					<line id="_x37__00000045602144989735358580000003937589459941247142_" fill="none" stroke="#00ABEB" stroke-width="0.7" stroke-miterlimit="10" x1="57.431" y1="83.695" x2="176.944" y2="-35.817"/>
				
					<line id="_x38__00000047029857857898873560000014194396358708286345_" fill="none" stroke="#00ABEB" stroke-width="0.7" stroke-miterlimit="10" x1="85.777" y1="83.695" x2="205.29" y2="-35.817"/>
			</g>
		</g>
	</g>
</g>
<g id="Axis">
	<g id="lines">
		<g>
			<g>
				
					<line fill="none" stroke="#000000" stroke-width="0.2" stroke-miterlimit="10" x1="32.024" y1="24.057" x2="32.024" y2="2.321"/>
				<g>
					<polygon points="32.765,2.883 32.024,2.568 31.283,2.883 32.024,1.127 					"/>
				</g>
			</g>
		</g>
		<g>
			<g>
				
					<line fill="none" stroke="#000000" stroke-width="0.2" stroke-miterlimit="10" x1="32.024" y1="24.057" x2="65.064" y2="24.057"/>
				<g>
					<polygon points="64.502,24.798 64.817,24.057 64.502,23.316 66.258,24.057 					"/>
				</g>
			</g>
		</g>
		<g>
			<g>
				<line fill="none" stroke="#000000" stroke-width="0.2" stroke-miterlimit="10" x1="32.024" y1="24.057" x2="6.051" y2="50.03"/>
				<g>
					<polygon points="5.925,49.109 6.226,49.855 6.972,50.156 5.207,50.874 					"/>
				</g>
			</g>
		</g>
	</g>
	<g id="names">
		<g>
			<path d="M63.896,27.233c0.34-0.564,0.487-0.852,0.487-1.027c0-0.056-0.027-0.08-0.104-0.128c-0.08-0.052-0.104-0.092-0.104-0.156
				c0-0.088,0.067-0.148,0.159-0.148c0.12,0,0.208,0.1,0.208,0.22c0,0.228-0.191,0.667-0.523,1.219
				c-0.416,0.688-0.844,1.147-1.071,1.147c-0.12,0-0.204-0.068-0.204-0.172c0-0.088,0.068-0.16,0.156-0.16
				c0.14,0,0.14,0.112,0.243,0.112c0.053,0,0.101-0.032,0.192-0.132c0.072-0.076,0.252-0.312,0.284-0.364
				c0.023-0.048,0.039-0.096,0.039-0.14c0-0.16-0.22-1.055-0.327-1.327c-0.076-0.196-0.148-0.256-0.308-0.256
				c-0.044,0-0.08,0.004-0.124,0.016v-0.068c0.044-0.008,0.088-0.016,0.128-0.024c0.08-0.016,0.212-0.04,0.428-0.072h0.016
				c0.06,0,0.271,0.664,0.34,1.02L63.896,27.233z"/>
		</g>
		<g>
			<path d="M28.688,2.815c0.232,0.052,0.32,0.096,0.48,0.332c0.104,0.152,0.18,0.2,0.28,0.2c0.064,0,0.108-0.024,0.108-0.06
				c0-0.016-0.008-0.036-0.02-0.06c-0.024-0.048-0.032-0.08-0.032-0.112c0.004-0.068,0.068-0.136,0.132-0.136
				c0.083,0,0.14,0.06,0.14,0.148c0,0.16-0.148,0.304-0.372,0.304c-0.116,0-0.252-0.052-0.452-0.176
				c-0.188-0.116-0.315-0.168-0.419-0.168c-0.064,0-0.116,0.02-0.18,0.072l-0.036-0.036l1.239-1.487h-0.544
				c-0.208,0-0.284,0.036-0.364,0.24L28.584,1.86l0.128-0.464h1.131V1.44L28.688,2.815z"/>
		</g>
		<g>
			<path d="M9.576,49.764c0.28-0.428,0.428-0.572,0.604-0.572c0.096,0,0.164,0.06,0.164,0.148c0,0.084-0.056,0.144-0.136,0.144
				c-0.076,0-0.112-0.068-0.208-0.068c-0.072,0-0.216,0.176-0.392,0.483c0,0.028,0.008,0.084,0.032,0.18l0.128,0.536
				c0.028,0.112,0.064,0.164,0.12,0.164c0.052,0,0.096-0.04,0.188-0.16c0.036-0.048,0.052-0.072,0.084-0.112l0.06,0.036
				C9.987,50.904,9.883,51,9.731,51c-0.128,0-0.188-0.072-0.236-0.272L9.38,50.252l-0.352,0.476C8.852,50.964,8.772,51,8.648,51
				s-0.2-0.064-0.2-0.168c0-0.08,0.056-0.144,0.136-0.144c0.036,0,0.076,0.016,0.128,0.044c0.04,0.024,0.08,0.036,0.104,0.036
				c0.044,0,0.12-0.076,0.204-0.196l0.328-0.464l-0.112-0.496c-0.056-0.24-0.084-0.272-0.184-0.272c-0.032,0-0.08,0.008-0.156,0.028
				l-0.072,0.02l-0.012-0.063l0.044-0.016c0.244-0.088,0.376-0.116,0.468-0.116c0.1,0,0.148,0.072,0.204,0.344L9.576,49.764z"/>
		</g>
	</g>
</g>
<g id="Layer_9">
	<g>
		<g>
			<polyline fill="none" stroke="#FF0000" stroke-width="0.5" stroke-linecap="round" stroke-linejoin="round" points="
				40.49,15.881 40.49,43.694 40.49,43.946 12.135,43.946 32.024,24.057 			"/>
			<g>
				<polygon fill="#FF0000" points="38.445,17.538 38.812,17.879 40.49,16.073 42.168,17.879 42.535,17.538 40.49,15.339 				"/>
			</g>
		</g>
	</g>
	<g>
		<path d="M20.807,21.442c-0.607,0.576-0.815,1.459-0.815,2.275c0,0.388,0.044,0.632,0.192,1.04l-0.072,0.024
			c-0.256-0.412-0.396-0.932-0.396-1.443c0-0.412,0.088-0.819,0.296-1.159c0.156-0.252,0.375-0.46,0.744-0.795L20.807,21.442z"/>
		<path d="M22.143,23.913c-0.164,0.116-0.335,0.172-0.503,0.172c-0.408,0-0.632-0.335-0.632-0.891c0-0.94,0.596-1.839,1.223-1.839
			c0.408,0,0.636,0.356,0.636,1.003C22.866,22.946,22.555,23.621,22.143,23.913z M22.215,21.466c-0.18,0-0.336,0.12-0.48,0.38
			c-0.208,0.376-0.412,1.16-0.412,1.587c0,0.34,0.132,0.54,0.324,0.54c0.184,0,0.368-0.136,0.516-0.4
			c0.232-0.408,0.388-1.067,0.388-1.587C22.55,21.666,22.455,21.466,22.215,21.466z"/>
		<path d="M22.859,24.501c0.212-0.136,0.304-0.252,0.304-0.36c0-0.04-0.016-0.068-0.08-0.116c-0.08-0.06-0.1-0.12-0.1-0.196
			c0-0.096,0.088-0.176,0.204-0.176c0.144,0,0.232,0.136,0.232,0.296c0,0.224-0.184,0.448-0.52,0.624L22.859,24.501z"/>
		<path d="M25.143,23.913c-0.164,0.116-0.335,0.172-0.503,0.172c-0.408,0-0.632-0.335-0.632-0.891c0-0.94,0.596-1.839,1.223-1.839
			c0.408,0,0.636,0.356,0.636,1.003C25.866,22.946,25.555,23.621,25.143,23.913z M25.215,21.466c-0.18,0-0.336,0.12-0.48,0.38
			c-0.208,0.376-0.412,1.16-0.412,1.587c0,0.34,0.132,0.54,0.324,0.54c0.184,0,0.368-0.136,0.516-0.4
			c0.232-0.408,0.388-1.067,0.388-1.587C25.55,21.666,25.455,21.466,25.215,21.466z"/>
		<path d="M25.859,24.501c0.212-0.136,0.304-0.252,0.304-0.36c0-0.04-0.016-0.068-0.08-0.116c-0.08-0.06-0.1-0.12-0.1-0.196
			c0-0.096,0.088-0.176,0.204-0.176c0.144,0,0.232,0.136,0.232,0.296c0,0.224-0.184,0.448-0.52,0.624L25.859,24.501z"/>
		<path d="M28.143,23.913c-0.164,0.116-0.335,0.172-0.503,0.172c-0.408,0-0.632-0.335-0.632-0.891c0-0.94,0.596-1.839,1.223-1.839
			c0.408,0,0.636,0.356,0.636,1.003C28.866,22.946,28.555,23.621,28.143,23.913z M28.215,21.466c-0.18,0-0.336,0.12-0.48,0.38
			c-0.208,0.376-0.412,1.16-0.412,1.587c0,0.34,0.132,0.54,0.324,0.54c0.184,0,0.368-0.136,0.516-0.4
			c0.232-0.408,0.388-1.067,0.388-1.587C28.55,21.666,28.455,21.466,28.215,21.466z"/>
		<path d="M29.639,21.383c0.188,0.335,0.251,0.492,0.32,0.788c0.048,0.224,0.076,0.456,0.076,0.671c0,0.404-0.112,0.784-0.312,1.127
			c-0.156,0.268-0.364,0.492-0.728,0.808l-0.052-0.06c0.336-0.356,0.484-0.624,0.62-1.047c0.124-0.384,0.196-0.844,0.196-1.219
			c0-0.4-0.06-0.724-0.196-1.047L29.639,21.383z"/>
	</g>
	<g>
		<path d="M1.494,40.632c-0.607,0.576-0.815,1.459-0.815,2.275c0,0.388,0.044,0.632,0.192,1.04l-0.072,0.024
			c-0.256-0.412-0.396-0.932-0.396-1.443c0-0.412,0.088-0.819,0.296-1.159c0.156-0.252,0.375-0.46,0.744-0.795L1.494,40.632z"/>
		<path d="M2.586,42.055c0.28-0.428,0.428-0.572,0.604-0.572c0.096,0,0.164,0.06,0.164,0.148c0,0.084-0.056,0.144-0.136,0.144
			c-0.076,0-0.112-0.068-0.208-0.068c-0.072,0-0.216,0.176-0.392,0.483c0,0.028,0.008,0.084,0.032,0.18l0.128,0.536
			c0.028,0.112,0.064,0.164,0.12,0.164c0.052,0,0.096-0.04,0.188-0.16c0.036-0.048,0.052-0.072,0.084-0.112l0.06,0.036
			c-0.232,0.36-0.336,0.456-0.488,0.456c-0.128,0-0.188-0.072-0.236-0.272L2.39,42.543l-0.352,0.476
			c-0.176,0.236-0.256,0.272-0.38,0.272s-0.2-0.064-0.2-0.168c0-0.08,0.056-0.144,0.136-0.144c0.036,0,0.076,0.016,0.128,0.044
			c0.04,0.024,0.08,0.036,0.104,0.036c0.044,0,0.12-0.076,0.204-0.196l0.328-0.464l-0.112-0.496
			c-0.056-0.24-0.084-0.272-0.184-0.272c-0.032,0-0.08,0.008-0.156,0.028l-0.072,0.02l-0.012-0.063L1.866,41.6
			c0.244-0.088,0.376-0.116,0.468-0.116c0.1,0,0.148,0.072,0.204,0.344L2.586,42.055z"/>
		<path d="M4.15,41.896c0.006,0,0.01,0.006,0.01,0.014c0,0.01-0.004,0.03-0.012,0.058l-0.286,1.038
			c-0.014,0.05-0.036,0.128-0.036,0.148c0,0.046,0.044,0.064,0.132,0.064H4v0.03H3.442v-0.03c0.158-0.012,0.202-0.034,0.224-0.11
			l0.272-0.975c0.01-0.038,0.016-0.058,0.016-0.072c0-0.038-0.026-0.062-0.07-0.062H3.878c-0.036,0-0.08,0.002-0.118,0.004v-0.03
			l0.046-0.01c0.176-0.038,0.184-0.034,0.338-0.066H4.15z"/>
		<path d="M4.322,43.691c0.212-0.136,0.304-0.252,0.304-0.36c0-0.04-0.016-0.068-0.08-0.116c-0.08-0.06-0.1-0.12-0.1-0.196
			c0-0.096,0.088-0.176,0.204-0.176c0.144,0,0.232,0.136,0.232,0.296c0,0.224-0.184,0.448-0.52,0.624L4.322,43.691z"/>
		<path d="M6.606,43.103c-0.164,0.116-0.336,0.172-0.503,0.172c-0.408,0-0.632-0.335-0.632-0.891c0-0.94,0.596-1.839,1.223-1.839
			c0.408,0,0.636,0.356,0.636,1.003C7.329,42.136,7.018,42.811,6.606,43.103z M6.678,40.656c-0.18,0-0.336,0.12-0.48,0.38
			c-0.208,0.376-0.412,1.16-0.412,1.587c0,0.34,0.132,0.54,0.324,0.54c0.184,0,0.368-0.136,0.516-0.4
			c0.232-0.408,0.388-1.067,0.388-1.587C7.013,40.856,6.918,40.656,6.678,40.656z"/>
		<path d="M7.322,43.691c0.212-0.136,0.304-0.252,0.304-0.36c0-0.04-0.016-0.068-0.08-0.116c-0.08-0.06-0.1-0.12-0.1-0.196
			c0-0.096,0.088-0.176,0.204-0.176c0.144,0,0.232,0.136,0.232,0.296c0,0.224-0.184,0.448-0.52,0.624L7.322,43.691z"/>
		<path d="M9.606,43.103c-0.164,0.116-0.336,0.172-0.503,0.172c-0.408,0-0.632-0.335-0.632-0.891c0-0.94,0.596-1.839,1.223-1.839
			c0.408,0,0.636,0.356,0.636,1.003C10.329,42.136,10.018,42.811,9.606,43.103z M9.678,40.656c-0.18,0-0.336,0.12-0.48,0.38
			c-0.208,0.376-0.412,1.16-0.412,1.587c0,0.34,0.132,0.54,0.324,0.54c0.184,0,0.368-0.136,0.516-0.4
			c0.232-0.408,0.388-1.067,0.388-1.587C10.013,40.856,9.918,40.656,9.678,40.656z"/>
		<path d="M11.102,40.573c0.188,0.335,0.251,0.492,0.32,0.788c0.048,0.224,0.076,0.456,0.076,0.671c0,0.404-0.112,0.784-0.312,1.127
			c-0.156,0.268-0.364,0.492-0.728,0.808l-0.052-0.06c0.336-0.356,0.484-0.624,0.62-1.047c0.124-0.384,0.196-0.844,0.196-1.219
			c0-0.4-0.06-0.724-0.196-1.047L11.102,40.573z"/>
	</g>
	<g>
		<path d="M37.867,45.672c-0.607,0.576-0.815,1.459-0.815,2.275c0,0.388,0.044,0.632,0.192,1.04l-0.072,0.024
			c-0.256-0.412-0.396-0.932-0.396-1.443c0-0.412,0.088-0.819,0.296-1.159c0.156-0.252,0.375-0.46,0.744-0.795L37.867,45.672z"/>
		<path d="M38.959,47.096c0.28-0.428,0.428-0.572,0.604-0.572c0.096,0,0.164,0.06,0.164,0.148c0,0.084-0.056,0.144-0.136,0.144
			c-0.076,0-0.112-0.068-0.208-0.068c-0.072,0-0.216,0.176-0.392,0.483c0,0.028,0.008,0.084,0.032,0.18l0.128,0.536
			c0.028,0.112,0.064,0.164,0.12,0.164c0.052,0,0.096-0.04,0.188-0.16c0.036-0.048,0.052-0.072,0.084-0.112l0.06,0.036
			c-0.232,0.36-0.336,0.456-0.488,0.456c-0.128,0-0.188-0.072-0.236-0.272l-0.116-0.476l-0.352,0.476
			c-0.176,0.236-0.256,0.272-0.38,0.272s-0.2-0.064-0.2-0.168c0-0.08,0.056-0.144,0.136-0.144c0.036,0,0.076,0.016,0.128,0.044
			c0.04,0.024,0.08,0.036,0.104,0.036c0.044,0,0.12-0.076,0.204-0.196l0.328-0.464l-0.112-0.496
			c-0.056-0.24-0.084-0.272-0.184-0.272c-0.032,0-0.08,0.008-0.156,0.028l-0.072,0.02l-0.012-0.063l0.044-0.016
			c0.244-0.088,0.376-0.116,0.468-0.116c0.1,0,0.148,0.072,0.204,0.344L38.959,47.096z"/>
		<path d="M40.523,46.936c0.006,0,0.01,0.006,0.01,0.014c0,0.01-0.004,0.03-0.012,0.058l-0.286,1.038
			c-0.014,0.05-0.036,0.128-0.036,0.148c0,0.046,0.044,0.064,0.132,0.064h0.042v0.03h-0.558v-0.03
			c0.158-0.012,0.202-0.034,0.224-0.11l0.272-0.975c0.01-0.038,0.016-0.058,0.016-0.072c0-0.038-0.026-0.062-0.07-0.062h-0.006
			c-0.036,0-0.08,0.002-0.118,0.004v-0.03l0.046-0.01c0.176-0.038,0.184-0.034,0.338-0.066H40.523z"/>
		<path d="M40.695,48.731c0.212-0.136,0.304-0.252,0.304-0.36c0-0.04-0.016-0.068-0.08-0.116c-0.08-0.06-0.1-0.12-0.1-0.196
			c0-0.096,0.088-0.176,0.204-0.176c0.144,0,0.232,0.136,0.232,0.296c0,0.224-0.184,0.448-0.52,0.624L40.695,48.731z"/>
		<path d="M42.771,47.983c0.34-0.564,0.488-0.852,0.488-1.027c0-0.056-0.028-0.08-0.104-0.128c-0.08-0.052-0.104-0.092-0.104-0.156
			c0-0.088,0.068-0.148,0.16-0.148c0.12,0,0.208,0.1,0.208,0.22c0,0.228-0.192,0.667-0.524,1.219
			c-0.416,0.688-0.843,1.147-1.071,1.147c-0.12,0-0.204-0.068-0.204-0.172c0-0.088,0.068-0.16,0.156-0.16
			c0.14,0,0.14,0.112,0.244,0.112c0.052,0,0.1-0.032,0.192-0.132c0.072-0.076,0.252-0.312,0.284-0.364
			c0.024-0.048,0.04-0.096,0.04-0.14c0-0.16-0.22-1.055-0.328-1.327c-0.076-0.196-0.148-0.256-0.308-0.256
			c-0.044,0-0.08,0.004-0.124,0.016V46.62c0.044-0.008,0.088-0.016,0.128-0.024c0.08-0.016,0.212-0.04,0.428-0.072h0.016
			c0.06,0,0.271,0.664,0.34,1.02L42.771,47.983z"/>
		<path d="M44.299,46.936c0.006,0,0.01,0.006,0.01,0.014c0,0.01-0.004,0.03-0.012,0.058l-0.286,1.038
			c-0.014,0.05-0.036,0.128-0.036,0.148c0,0.046,0.044,0.064,0.132,0.064h0.042v0.03h-0.558v-0.03
			c0.158-0.012,0.202-0.034,0.224-0.11l0.272-0.975c0.01-0.038,0.016-0.058,0.016-0.072c0-0.038-0.026-0.062-0.07-0.062h-0.006
			c-0.036,0-0.08,0.002-0.118,0.004v-0.03l0.046-0.01c0.176-0.038,0.184-0.034,0.338-0.066H44.299z"/>
		<path d="M44.471,48.731c0.212-0.136,0.304-0.252,0.304-0.36c0-0.04-0.016-0.068-0.08-0.116c-0.08-0.06-0.1-0.12-0.1-0.196
			c0-0.096,0.088-0.176,0.204-0.176c0.144,0,0.232,0.136,0.232,0.296c0,0.224-0.184,0.448-0.52,0.624L44.471,48.731z"/>
		<path d="M46.754,48.143c-0.164,0.116-0.335,0.172-0.503,0.172c-0.408,0-0.632-0.335-0.632-0.891c0-0.94,0.596-1.839,1.223-1.839
			c0.408,0,0.636,0.356,0.636,1.003C47.478,47.176,47.167,47.851,46.754,48.143z M46.827,45.696c-0.18,0-0.336,0.12-0.48,0.38
			c-0.208,0.376-0.412,1.16-0.412,1.587c0,0.34,0.132,0.54,0.324,0.54c0.184,0,0.368-0.136,0.516-0.4
			c0.232-0.408,0.388-1.067,0.388-1.587C47.162,45.896,47.066,45.696,46.827,45.696z"/>
		<path d="M48.251,45.613c0.188,0.335,0.251,0.492,0.32,0.788c0.048,0.224,0.076,0.456,0.076,0.671c0,0.404-0.112,0.784-0.312,1.127
			c-0.156,0.268-0.364,0.492-0.728,0.808l-0.052-0.06c0.336-0.356,0.484-0.624,0.62-1.047c0.124-0.384,0.196-0.844,0.196-1.219
			c0-0.4-0.06-0.724-0.196-1.047L48.251,45.613z"/>
	</g>
	<g>
		<path d="M43.028,12.724c-0.607,0.576-0.815,1.459-0.815,2.275c0,0.388,0.044,0.632,0.192,1.04l-0.072,0.024
			c-0.256-0.412-0.396-0.932-0.396-1.443c0-0.412,0.088-0.819,0.296-1.159c0.156-0.252,0.375-0.46,0.744-0.795L43.028,12.724z"/>
		<path d="M44.12,14.147c0.28-0.428,0.428-0.572,0.604-0.572c0.096,0,0.164,0.06,0.164,0.148c0,0.084-0.056,0.144-0.136,0.144
			c-0.076,0-0.112-0.068-0.208-0.068c-0.072,0-0.216,0.176-0.392,0.483c0,0.028,0.008,0.084,0.032,0.18l0.128,0.536
			c0.028,0.112,0.064,0.164,0.12,0.164c0.052,0,0.096-0.04,0.188-0.16c0.036-0.048,0.052-0.072,0.084-0.112l0.06,0.036
			c-0.232,0.36-0.336,0.456-0.488,0.456c-0.128,0-0.188-0.072-0.236-0.272l-0.116-0.476l-0.352,0.476
			c-0.176,0.236-0.256,0.272-0.38,0.272s-0.2-0.064-0.2-0.168c0-0.08,0.056-0.144,0.136-0.144c0.036,0,0.076,0.016,0.128,0.044
			c0.04,0.024,0.08,0.036,0.104,0.036c0.044,0,0.12-0.076,0.204-0.196l0.328-0.464l-0.112-0.496
			c-0.056-0.24-0.084-0.272-0.184-0.272c-0.032,0-0.08,0.008-0.156,0.028l-0.072,0.02l-0.012-0.063l0.044-0.016
			c0.244-0.088,0.376-0.116,0.468-0.116c0.1,0,0.148,0.072,0.204,0.344L44.12,14.147z"/>
		<path d="M45.684,13.988c0.006,0,0.01,0.006,0.01,0.014c0,0.01-0.004,0.03-0.012,0.058l-0.286,1.038
			c-0.014,0.05-0.036,0.128-0.036,0.148c0,0.046,0.044,0.064,0.132,0.064h0.042v0.03h-0.558v-0.03
			c0.158-0.012,0.202-0.034,0.224-0.11l0.272-0.975c0.01-0.038,0.016-0.058,0.016-0.072c0-0.038-0.026-0.062-0.07-0.062h-0.006
			c-0.036,0-0.08,0.002-0.118,0.004v-0.03l0.046-0.01c0.176-0.038,0.184-0.034,0.338-0.066H45.684z"/>
		<path d="M45.856,15.783c0.212-0.136,0.304-0.252,0.304-0.36c0-0.04-0.016-0.068-0.08-0.116c-0.08-0.06-0.1-0.12-0.1-0.196
			c0-0.096,0.088-0.176,0.204-0.176c0.144,0,0.232,0.136,0.232,0.296c0,0.224-0.184,0.448-0.52,0.624L45.856,15.783z"/>
		<path d="M47.932,15.035c0.34-0.564,0.488-0.852,0.488-1.027c0-0.056-0.028-0.08-0.104-0.128c-0.08-0.052-0.104-0.092-0.104-0.156
			c0-0.088,0.068-0.148,0.16-0.148c0.12,0,0.208,0.1,0.208,0.22c0,0.228-0.192,0.667-0.524,1.219
			c-0.416,0.688-0.843,1.147-1.071,1.147c-0.12,0-0.204-0.068-0.204-0.172c0-0.088,0.068-0.16,0.156-0.16
			c0.14,0,0.14,0.112,0.244,0.112c0.052,0,0.1-0.032,0.192-0.132c0.072-0.076,0.252-0.312,0.284-0.364
			c0.024-0.048,0.04-0.096,0.04-0.14c0-0.16-0.22-1.055-0.328-1.327c-0.076-0.196-0.148-0.256-0.308-0.256
			c-0.044,0-0.08,0.004-0.124,0.016v-0.068c0.044-0.008,0.088-0.016,0.128-0.024c0.08-0.016,0.212-0.04,0.428-0.072h0.016
			c0.06,0,0.271,0.664,0.34,1.02L47.932,15.035z"/>
		<path d="M49.46,13.988c0.006,0,0.01,0.006,0.01,0.014c0,0.01-0.004,0.03-0.012,0.058l-0.286,1.038
			c-0.014,0.05-0.036,0.128-0.036,0.148c0,0.046,0.044,0.064,0.132,0.064h0.042v0.03h-0.558v-0.03
			c0.158-0.012,0.202-0.034,0.224-0.11l0.272-0.975c0.01-0.038,0.016-0.058,0.016-0.072c0-0.038-0.026-0.062-0.07-0.062h-0.006
			c-0.036,0-0.08,0.002-0.118,0.004v-0.03l0.046-0.01c0.176-0.038,0.184-0.034,0.338-0.066H49.46z"/>
		<path d="M49.632,15.783c0.212-0.136,0.304-0.252,0.304-0.36c0-0.04-0.016-0.068-0.08-0.116c-0.08-0.06-0.1-0.12-0.1-0.196
			c0-0.096,0.088-0.176,0.204-0.176c0.144,0,0.232,0.136,0.232,0.296c0,0.224-0.184,0.448-0.52,0.624L49.632,15.783z"/>
		<path d="M51.016,15.047c0.232,0.052,0.32,0.096,0.48,0.332c0.104,0.152,0.18,0.2,0.28,0.2c0.064,0,0.108-0.024,0.108-0.06
			c0-0.016-0.008-0.036-0.02-0.06c-0.024-0.048-0.032-0.08-0.032-0.112c0.004-0.068,0.068-0.136,0.132-0.136
			c0.083,0,0.14,0.06,0.14,0.148c0,0.16-0.148,0.304-0.372,0.304c-0.116,0-0.252-0.052-0.452-0.176
			c-0.188-0.116-0.315-0.168-0.419-0.168c-0.064,0-0.116,0.02-0.18,0.072l-0.036-0.036l1.239-1.487H51.34
			c-0.208,0-0.284,0.036-0.364,0.24l-0.064-0.016l0.128-0.464h1.131v0.044L51.016,15.047z"/>
		<path d="M53.016,13.988c0.006,0,0.01,0.006,0.01,0.014c0,0.01-0.004,0.03-0.012,0.058l-0.286,1.038
			c-0.014,0.05-0.036,0.128-0.036,0.148c0,0.046,0.044,0.064,0.132,0.064h0.042v0.03h-0.558v-0.03
			c0.158-0.012,0.202-0.034,0.224-0.11l0.272-0.975c0.01-0.038,0.016-0.058,0.016-0.072c0-0.038-0.026-0.062-0.07-0.062h-0.006
			c-0.036,0-0.08,0.002-0.118,0.004v-0.03l0.046-0.01c0.176-0.038,0.184-0.034,0.338-0.066H53.016z"/>
		<path d="M53.968,12.664c0.188,0.335,0.251,0.492,0.32,0.788c0.048,0.224,0.076,0.456,0.076,0.671c0,0.404-0.112,0.784-0.312,1.127
			c-0.156,0.268-0.364,0.492-0.728,0.808l-0.052-0.06c0.336-0.356,0.484-0.624,0.62-1.047c0.124-0.384,0.196-0.844,0.196-1.219
			c0-0.4-0.06-0.724-0.196-1.047L53.968,12.664z"/>
	</g>
</g>
<g id="sphere" display="none">
	<circle display="inline" opacity="0.05" fill="#FF0000" cx="32.024" cy="24.057" r="28.347"/>
	
		<circle display="inline" fill="none" stroke="#FF0000" stroke-width="0.4" stroke-miterlimit="10" cx="32.024" cy="24.057" r="28.347"/>
	<g display="inline">
		
			<ellipse fill="none" stroke="#FF0000" stroke-width="0.1" stroke-miterlimit="10" stroke-dasharray="3,3" cx="32.024" cy="24.057" rx="28.347" ry="5.372"/>
		<path fill="none" stroke="#FF0000" stroke-width="0.1" stroke-miterlimit="10" d="M60.371,24.057
			c0,2.967-12.691,5.372-28.347,5.372S3.678,27.024,3.678,24.057"/>
	</g>
</g>
<g id="dS_00000173845004210439059270000015314120835834993593_" display="none">
	<path display="inline" fill="none" stroke="#0000FF" stroke-width="0.1" stroke-miterlimit="10" d="M32.024,3.018"/>
	<path id="dS" display="inline" opacity="0.1" fill="#FF0000" d="M47.655,1.792c-0.502,0.152-1.174,0.295-1.988,0.426l0,0
		c-0.604-0.642-1.234-1.244-1.89-1.802l0,0C44.45,0.3,44.992,0.173,45.38,0.039l0,0C46.168,0.579,46.927,1.165,47.655,1.792
		L47.655,1.792z"/>
	
		<path id="dS_00000080909473959629088630000017174551033345834151_" display="inline" fill="none" stroke="#FF0000" stroke-width="0.2" stroke-linecap="round" stroke-linejoin="round" stroke-miterlimit="10" d="
		M47.654,1.792c-0.502,0.152-1.174,0.295-1.988,0.426l0,0c-0.604-0.642-1.234-1.244-1.89-1.802l0,0
		c0.673-0.116,1.215-0.243,1.603-0.377l0,0C46.167,0.579,46.927,1.165,47.654,1.792L47.654,1.792z"/>
	<g display="inline">
		<path fill="#FF0000" d="M35.177-8.291l2.398-4.006h0.156l0.792,4.006H35.177z M37.312-11.445l-1.529,2.591h2.051L37.312-11.445z"
			/>
		<path fill="#FF0000" d="M41.842-11.091l-0.108-0.018c0-0.612-0.132-0.978-0.714-0.978c-0.414,0-0.671,0.222-0.671,0.6
			c0,0.294,0.048,0.39,0.593,0.936C41.488-10,41.62-9.742,41.62-9.352c0,0.684-0.521,1.169-1.211,1.169
			c-0.186,0-0.348-0.042-0.624-0.138c-0.162-0.06-0.216-0.072-0.282-0.072c-0.12,0-0.216,0.054-0.258,0.192h-0.108l0.204-1.343
			l0.12,0.012c-0.012,0.054-0.012,0.096-0.012,0.138c0,0.588,0.36,1.001,0.864,1.001c0.462,0,0.786-0.312,0.786-0.768
			c0-0.258-0.084-0.438-0.36-0.737l-0.234-0.252c-0.084-0.09-0.156-0.174-0.234-0.252c-0.36-0.384-0.45-0.576-0.45-0.899
			c0-0.63,0.492-0.983,1.067-0.983c0.186,0,0.384,0.03,0.51,0.084c0.126,0.048,0.198,0.066,0.276,0.066
			c0.132,0,0.186-0.03,0.27-0.156h0.138L41.842-11.091z"/>
	</g>
	<g display="inline">
		<path fill="#FF0000" d="M51.744,48.643l-0.108-0.018c0-0.612-0.132-0.978-0.714-0.978c-0.414,0-0.671,0.222-0.671,0.6
			c0,0.294,0.048,0.39,0.593,0.936c0.546,0.552,0.678,0.81,0.678,1.199c0,0.684-0.521,1.169-1.211,1.169
			c-0.186,0-0.348-0.042-0.624-0.138c-0.162-0.06-0.216-0.072-0.282-0.072c-0.12,0-0.216,0.054-0.258,0.192H49.04l0.204-1.343
			l0.12,0.012c-0.012,0.054-0.012,0.096-0.012,0.138c0,0.588,0.36,1.001,0.864,1.001c0.462,0,0.786-0.312,0.786-0.768
			c0-0.258-0.084-0.438-0.36-0.737l-0.234-0.252c-0.084-0.09-0.156-0.174-0.234-0.252c-0.36-0.384-0.45-0.576-0.45-0.899
			c0-0.63,0.492-0.983,1.067-0.983c0.186,0,0.384,0.03,0.51,0.084c0.126,0.048,0.198,0.066,0.276,0.066
			c0.132,0,0.186-0.03,0.27-0.156h0.138L51.744,48.643z"/>
	</g>
	
		<line display="inline" fill="none" stroke="#0000FF" stroke-width="0.1" stroke-miterlimit="10" x1="52.773" y1="27.716" x2="32.025" y2="24.057"/>
	<g display="inline">
		<path fill="#FF00FF" d="M32.834,3.691l2.399-4.006h0.156l0.792,4.006H32.834z M34.969,0.536l-1.529,2.591h2.051L34.969,0.536z"/>
		<path fill="#FF00FF" d="M38.851,3.055c-0.39,0.516-0.81,0.702-1.229,0.702c-0.486,0-0.768-0.396-0.768-1.031
			c0-1.29,0.677-2.351,1.331-2.849c0.264-0.198,0.492-0.252,0.731-0.252c0.426,0,0.738,0.288,0.738,1.001
			C39.654,1.598,39.294,2.461,38.851,3.055z M37.531,1.802c-0.114,0.3-0.174,0.612-0.174,0.99c0,0.534,0.114,0.839,0.336,0.839
			c0.576,0,1.091-1.241,1.235-1.829H37.531z M38.971,1.61c0.102-0.348,0.18-0.779,0.18-1.229c0-0.384-0.108-0.63-0.318-0.63
			c-0.521,0-1.109,1.325-1.259,1.859H38.971z"/>
	</g>
	<g display="inline">
		<path fill="#00B200" d="M39.079,15.059l2.399-4.006h0.156l0.792,4.006H39.079z M41.214,11.905l-1.529,2.591h2.051L41.214,11.905z"
			/>
		<path fill="#00B200" d="M45.419,12.415c0.276,0,0.438,0.006,0.606,0.072c0.294,0.114,0.479,0.33,0.479,0.756
			c0,0.695-0.653,1.877-1.835,1.883l-0.324,1.164h-0.468l0.324-1.164c-0.258,0-0.492-0.018-0.642-0.066
			c-0.312-0.102-0.461-0.384-0.461-0.768c0-0.605,0.671-1.877,1.769-1.877h0.09l0.402-1.451h0.461L45.419,12.415z M44.922,12.541
			c-0.696,0-1.319,1.067-1.319,1.913c0,0.251,0.102,0.426,0.288,0.498c0.096,0.036,0.21,0.048,0.348,0.048L44.922,12.541z
			 M44.706,14.999c0.15,0,0.246-0.012,0.414-0.096c0.492-0.246,0.882-1.308,0.882-1.805c0-0.27-0.114-0.42-0.27-0.516
			c-0.06-0.036-0.222-0.042-0.348-0.042L44.706,14.999z"/>
	</g>
</g>
<g id="Layer_6" display="none">
</g>
<g id="n" display="none">
	<g display="inline">
		<g>
			
				<line fill="none" stroke="#00A300" stroke-width="0.3" stroke-miterlimit="10" stroke-dasharray="2,2" x1="45.716" y1="1.128" x2="40.361" y2="9.998"/>
			<g>
				<polygon fill="#00A300" points="39.824,8.512 40.118,8.451 40.42,9.899 41.842,9.492 41.925,9.781 40.192,10.276 				"/>
			</g>
		</g>
	</g>
	<g display="inline">
		
			<line fill="none" stroke="#00A300" stroke-width="0.1" stroke-miterlimit="10" stroke-dasharray="2,2" x1="32.024" y1="24.057" x2="51.239" y2="-8.02"/>
		<g>
			<g>
				
					<line fill="none" stroke="#00A300" stroke-width="0.3" stroke-miterlimit="10" x1="45.716" y1="1.128" x2="51.071" y2="-7.742"/>
				<g>
					<polygon fill="#00A300" points="51.608,-6.257 51.314,-6.195 51.012,-7.643 49.59,-7.236 49.507,-7.525 51.24,-8.02 					"/>
				</g>
			</g>
		</g>
		
			<polyline fill="none" stroke="#00A300" stroke-width="0.1" stroke-linecap="round" stroke-linejoin="round" stroke-miterlimit="10" points="
			46.238,0.263 46.95,0.701 46.95,0.701 46.45,1.486 		"/>
	</g>
	<g display="inline">
		<path fill="#00B200" d="M54.926-8.705c-0.405,0.553-0.554,0.672-0.833,0.672c-0.149,0-0.28-0.095-0.28-0.321
			c0-0.06,0.012-0.137,0.095-0.447l0.262-0.964c0.048-0.185,0.083-0.398,0.083-0.47c0-0.107-0.054-0.172-0.143-0.172
			c-0.238,0-0.506,0.292-0.881,0.845c-0.268,0.399-0.315,0.536-0.595,1.476h-0.446l0.571-2.083c0.006-0.03,0.012-0.065,0.012-0.101
			c0-0.119-0.083-0.155-0.387-0.161v-0.095c0.482-0.095,0.648-0.119,0.964-0.185l0.024,0.012l-0.399,1.297
			c0.595-0.952,0.994-1.31,1.375-1.31c0.256,0,0.387,0.149,0.387,0.363c0,0.107-0.024,0.232-0.06,0.357l-0.333,1.208
			C54.284-8.568,54.26-8.467,54.26-8.42c0,0.054,0.024,0.107,0.095,0.107c0.083,0,0.19-0.095,0.363-0.315
			c0.042-0.048,0.083-0.101,0.125-0.155L54.926-8.705z"/>
	</g>
	<g display="inline">
		<path fill="#00B200" d="M54.449-11.234l-0.851-1.72h-0.006l-0.845,1.72h-0.405l1.077-2.172h0.357l1.077,2.172H54.449z"/>
	</g>
</g>
<g id="Layer_7" display="none">
	<g display="inline">
		<path d="M59.572,4.418c0.176-0.22,0.352-0.316,0.576-0.316c0.388,0,0.667,0.355,0.667,0.852c0,0.58-0.364,1.027-0.839,1.027
			c-0.168,0-0.26-0.04-0.404-0.172v0.627c0,0.252,0.052,0.296,0.352,0.3v0.072h-0.967V6.741c0.236-0.024,0.28-0.068,0.28-0.276
			V4.594c0-0.188-0.028-0.228-0.164-0.228c-0.036,0-0.064,0-0.1,0.004V4.305c0.22-0.068,0.364-0.12,0.576-0.204l0.024,0.008V4.418z
			 M59.572,5.589c0,0.12,0.228,0.264,0.416,0.264c0.288,0,0.484-0.3,0.484-0.74c0-0.468-0.196-0.771-0.492-0.771
			c-0.184,0-0.408,0.144-0.408,0.264V5.589z"/>
		<path d="M61.001,5.941v-0.06c0.276-0.016,0.316-0.052,0.316-0.356V4.617c0-0.188-0.032-0.252-0.132-0.252
			c-0.036,0-0.096,0-0.168,0.02V4.322l0.62-0.22l0.016,0.016v1.403c0,0.296,0.032,0.34,0.295,0.36v0.06H61.001z M61.448,3.618
			c-0.112,0-0.2-0.088-0.2-0.204c0-0.112,0.092-0.204,0.204-0.204c0.116,0,0.204,0.092,0.204,0.204
			C61.656,3.53,61.568,3.618,61.448,3.618z"/>
		<path d="M63.743,5.313c-0.156,0.436-0.436,0.667-0.835,0.667c-0.472,0-0.759-0.356-0.759-0.908c0-0.563,0.324-0.971,0.827-0.971
			c0.248,0,0.428,0.096,0.556,0.276c0.08,0.112,0.12,0.24,0.136,0.456h-1.231c0.02,0.304,0.04,0.46,0.184,0.652
			c0.112,0.148,0.26,0.22,0.444,0.22c0.268,0,0.419-0.124,0.616-0.42L63.743,5.313z M63.26,4.705
			c-0.044-0.324-0.128-0.46-0.392-0.46c-0.224,0-0.379,0.16-0.423,0.46H63.26z"/>
		<path d="M65.471,5.353c-0.128,0.248-0.208,0.364-0.328,0.46c-0.136,0.112-0.288,0.168-0.46,0.168
			c-0.443,0-0.759-0.372-0.759-0.888c0-0.332,0.12-0.607,0.335-0.788c0.16-0.132,0.352-0.204,0.54-0.204
			c0.336,0,0.616,0.188,0.616,0.412c0,0.092-0.084,0.168-0.188,0.168c-0.088,0-0.16-0.068-0.192-0.184l-0.024-0.088
			c-0.04-0.148-0.092-0.192-0.236-0.192c-0.324,0-0.544,0.28-0.544,0.696c0,0.459,0.252,0.779,0.62,0.779
			c0.228,0,0.372-0.096,0.564-0.375L65.471,5.353z"/>
		<path d="M67.295,5.313c-0.156,0.436-0.436,0.667-0.835,0.667c-0.472,0-0.759-0.356-0.759-0.908c0-0.563,0.324-0.971,0.827-0.971
			c0.248,0,0.428,0.096,0.556,0.276c0.08,0.112,0.12,0.24,0.136,0.456h-1.231c0.02,0.304,0.04,0.46,0.184,0.652
			c0.112,0.148,0.26,0.22,0.444,0.22c0.268,0,0.419-0.124,0.616-0.42L67.295,5.313z M66.812,4.705
			c-0.044-0.324-0.128-0.46-0.392-0.46c-0.224,0-0.379,0.16-0.423,0.46H66.812z"/>
		<path d="M69.356,5.981c-0.484,0-0.864-0.396-0.864-0.952s0.36-0.927,0.9-0.927c0.487,0,0.863,0.364,0.863,0.916
			C70.255,5.573,69.895,5.981,69.356,5.981z M69.695,4.413c-0.096-0.12-0.208-0.2-0.38-0.2c-0.276,0-0.464,0.236-0.464,0.636
			c0,0.316,0.064,0.604,0.212,0.819c0.088,0.128,0.216,0.2,0.36,0.2c0.296,0,0.472-0.28,0.472-0.744
			C69.895,4.853,69.823,4.577,69.695,4.413z"/>
		<path d="M70.788,4.142c0.004-0.32,0.036-0.464,0.14-0.644c0.104-0.18,0.312-0.288,0.563-0.288c0.24,0,0.416,0.104,0.416,0.248
			c0,0.092-0.072,0.164-0.168,0.164c-0.068,0-0.116-0.036-0.18-0.144c-0.072-0.116-0.124-0.156-0.212-0.156
			c-0.152,0-0.224,0.12-0.224,0.356v0.464h0.488V4.27h-0.488v1.255c0,0.3,0.044,0.344,0.372,0.356v0.06h-1.039v-0.06
			c0.288-0.016,0.332-0.064,0.332-0.356V4.27H70.46V4.142H70.788z"/>
		<path d="M74.355,5.353c-0.128,0.248-0.208,0.364-0.328,0.46c-0.136,0.112-0.288,0.168-0.46,0.168
			c-0.443,0-0.759-0.372-0.759-0.888c0-0.332,0.12-0.607,0.335-0.788c0.16-0.132,0.352-0.204,0.54-0.204
			c0.336,0,0.616,0.188,0.616,0.412c0,0.092-0.084,0.168-0.188,0.168c-0.088,0-0.16-0.068-0.192-0.184l-0.024-0.088
			c-0.04-0.148-0.092-0.192-0.236-0.192c-0.324,0-0.544,0.28-0.544,0.696c0,0.459,0.252,0.779,0.62,0.779
			c0.228,0,0.372-0.096,0.564-0.375L74.355,5.353z"/>
		<path d="M74.548,5.941v-0.06c0.276-0.016,0.316-0.052,0.316-0.356V4.617c0-0.188-0.032-0.252-0.132-0.252
			c-0.036,0-0.096,0-0.168,0.02V4.322l0.62-0.22L75.2,4.117v1.403c0,0.296,0.032,0.34,0.295,0.36v0.06H74.548z M74.996,3.618
			c-0.112,0-0.2-0.088-0.2-0.204c0-0.112,0.092-0.204,0.204-0.204c0.116,0,0.204,0.092,0.204,0.204
			C75.204,3.53,75.116,3.618,74.996,3.618z"/>
		<path d="M76.235,4.477c0.2-0.288,0.312-0.375,0.479-0.375c0.136,0,0.22,0.08,0.22,0.212c0,0.112-0.06,0.18-0.156,0.18
			c-0.052,0-0.096-0.02-0.16-0.08c-0.044-0.04-0.08-0.06-0.104-0.06c-0.112,0-0.28,0.2-0.28,0.328v0.899
			c0,0.228,0.068,0.288,0.34,0.3v0.06h-0.959v-0.06c0.256-0.048,0.284-0.076,0.284-0.276v-1c0-0.176-0.036-0.24-0.136-0.24
			c-0.048,0-0.084,0.004-0.14,0.016V4.318c0.236-0.076,0.38-0.132,0.592-0.216l0.02,0.008V4.477z"/>
		<path d="M78.567,5.353c-0.128,0.248-0.208,0.364-0.328,0.46c-0.136,0.112-0.288,0.168-0.46,0.168
			c-0.443,0-0.759-0.372-0.759-0.888c0-0.332,0.12-0.607,0.335-0.788c0.16-0.132,0.352-0.204,0.54-0.204
			c0.336,0,0.616,0.188,0.616,0.412c0,0.092-0.084,0.168-0.188,0.168c-0.088,0-0.16-0.068-0.192-0.184l-0.024-0.088
			c-0.04-0.148-0.092-0.192-0.236-0.192c-0.324,0-0.544,0.28-0.544,0.696c0,0.459,0.252,0.779,0.62,0.779
			c0.228,0,0.372-0.096,0.564-0.375L78.567,5.353z"/>
		<path d="M78.78,5.941v-0.06c0.252-0.02,0.308-0.088,0.308-0.308V3.698c0-0.192-0.04-0.256-0.167-0.256
			c-0.032,0-0.084,0-0.148,0.008V3.386c0.276-0.068,0.423-0.108,0.631-0.176l0.02,0.016v2.367c0,0.22,0.044,0.271,0.3,0.288v0.06
			H78.78z"/>
		<path d="M81.503,5.313c-0.156,0.436-0.436,0.667-0.836,0.667c-0.472,0-0.759-0.356-0.759-0.908c0-0.563,0.324-0.971,0.828-0.971
			c0.248,0,0.428,0.096,0.556,0.276c0.08,0.112,0.12,0.24,0.136,0.456h-1.231c0.02,0.304,0.04,0.46,0.184,0.652
			c0.112,0.148,0.26,0.22,0.444,0.22c0.268,0,0.419-0.124,0.615-0.42L81.503,5.313z M81.019,4.705
			c-0.044-0.324-0.128-0.46-0.392-0.46c-0.224,0-0.379,0.16-0.423,0.46H81.019z"/>
		<path d="M59.916,8.81c-0.484,0-0.864-0.396-0.864-0.952s0.36-0.927,0.9-0.927c0.487,0,0.863,0.364,0.863,0.916
			C60.815,8.403,60.456,8.81,59.916,8.81z M60.256,7.243c-0.096-0.12-0.208-0.2-0.38-0.2c-0.276,0-0.464,0.236-0.464,0.636
			c0,0.316,0.064,0.604,0.212,0.819c0.088,0.128,0.216,0.2,0.36,0.2c0.296,0,0.472-0.28,0.472-0.744
			C60.456,7.683,60.384,7.407,60.256,7.243z"/>
		<path d="M61.348,6.971c0.004-0.32,0.036-0.464,0.14-0.644c0.104-0.18,0.312-0.288,0.563-0.288c0.24,0,0.416,0.104,0.416,0.248
			c0,0.092-0.072,0.164-0.168,0.164c-0.068,0-0.116-0.036-0.18-0.144c-0.072-0.116-0.124-0.156-0.212-0.156
			c-0.152,0-0.224,0.12-0.224,0.356v0.464h0.488v0.128h-0.488v1.255c0,0.3,0.044,0.344,0.372,0.355v0.06h-1.039V8.71
			c0.288-0.016,0.332-0.064,0.332-0.355V7.099h-0.328V6.971H61.348z"/>
		<path d="M63.908,7.307c0.2-0.288,0.312-0.375,0.479-0.375c0.136,0,0.22,0.08,0.22,0.212c0,0.112-0.06,0.18-0.156,0.18
			c-0.052,0-0.096-0.02-0.16-0.08c-0.044-0.04-0.08-0.06-0.104-0.06c-0.112,0-0.28,0.2-0.28,0.328V8.41
			c0,0.228,0.068,0.288,0.34,0.3v0.06h-0.959V8.71c0.256-0.048,0.284-0.076,0.284-0.276v-1c0-0.176-0.036-0.24-0.136-0.24
			c-0.048,0-0.084,0.004-0.14,0.016V7.147c0.236-0.076,0.38-0.132,0.592-0.216l0.02,0.008V7.307z"/>
		<path d="M66.36,8.618C66.24,8.77,66.136,8.81,66,8.81c-0.148,0-0.236-0.08-0.256-0.292H65.74c-0.212,0.24-0.408,0.292-0.58,0.292
			c-0.248,0-0.42-0.152-0.42-0.416c0-0.208,0.124-0.364,0.28-0.468c0.12-0.08,0.268-0.156,0.72-0.324V7.387
			c0-0.248-0.132-0.36-0.312-0.36c-0.16,0-0.28,0.088-0.28,0.196c0,0.072,0.024,0.084,0.024,0.168c0,0.076-0.08,0.164-0.184,0.164
			c-0.084,0-0.172-0.076-0.172-0.184c0-0.104,0.064-0.232,0.204-0.32c0.112-0.072,0.28-0.12,0.46-0.12
			c0.224,0,0.375,0.064,0.472,0.18c0.096,0.116,0.112,0.2,0.112,0.444v0.764c0,0.184,0.052,0.264,0.124,0.264
			c0.064,0,0.104-0.02,0.172-0.076V8.618z M65.74,7.699c-0.248,0.088-0.412,0.172-0.512,0.264c-0.096,0.088-0.136,0.184-0.136,0.308
			c0,0.212,0.12,0.308,0.276,0.308c0.08,0,0.164-0.02,0.232-0.064c0.116-0.08,0.14-0.136,0.14-0.252V7.699z"/>
		<path d="M67.744,8.81l-0.016-0.012V8.542C67.592,8.73,67.44,8.81,67.216,8.81c-0.444,0-0.74-0.348-0.74-0.859
			c0-0.568,0.372-1.02,0.832-1.02c0.16,0,0.268,0.044,0.42,0.172V6.48c0-0.164-0.036-0.204-0.184-0.204
			c-0.032,0-0.056,0-0.088,0.004V6.216c0.256-0.068,0.396-0.108,0.588-0.176l0.02,0.008v2.267c0,0.184,0.032,0.228,0.176,0.228
			c0.02,0,0.024,0,0.092-0.004v0.064L67.744,8.81z M67.728,7.443c0-0.212-0.192-0.4-0.408-0.4c-0.304,0-0.5,0.296-0.5,0.748
			c0,0.492,0.216,0.812,0.552,0.812c0.124,0,0.224-0.044,0.296-0.128c0.036-0.04,0.06-0.084,0.06-0.112V7.443z"/>
		<path d="M68.433,8.77V8.71c0.276-0.016,0.316-0.052,0.316-0.355V7.447c0-0.188-0.032-0.252-0.132-0.252
			c-0.036,0-0.096,0-0.168,0.02V7.151l0.62-0.22l0.016,0.016V8.35c0,0.296,0.032,0.34,0.295,0.36v0.06H68.433z M68.88,6.448
			c-0.112,0-0.2-0.088-0.2-0.204c0-0.112,0.092-0.204,0.204-0.204c0.116,0,0.204,0.092,0.204,0.204
			C69.088,6.36,69.001,6.448,68.88,6.448z"/>
		<path d="M71.399,8.626c-0.204,0.056-0.348,0.1-0.548,0.18l-0.02-0.012V8.467h-0.008C70.628,8.734,70.4,8.81,70.252,8.81
			c-0.308,0-0.488-0.204-0.488-0.512V7.295c0-0.2-0.056-0.256-0.248-0.268V6.971H70.1v1.291c0,0.184,0.128,0.316,0.284,0.316
			c0.116,0,0.236-0.036,0.336-0.124c0.064-0.056,0.092-0.092,0.092-0.232V7.299c0-0.212-0.056-0.244-0.295-0.26V6.971h0.631v1.371
			c0,0.184,0.044,0.228,0.228,0.228h0.024V8.626z"/>
		<path d="M72.52,7.819c0.256,0.156,0.352,0.264,0.352,0.492c0,0.268-0.256,0.5-0.56,0.5c-0.084,0-0.2-0.004-0.292-0.036
			c-0.096-0.032-0.14-0.036-0.184-0.036c-0.048,0-0.072,0.008-0.096,0.048h-0.052V8.158h0.064c0.084,0.388,0.232,0.564,0.508,0.564
			c0.204,0,0.332-0.132,0.332-0.296c0-0.124-0.08-0.228-0.212-0.3l-0.216-0.12c-0.332-0.184-0.479-0.375-0.479-0.58
			c0-0.316,0.224-0.492,0.551-0.492c0.096,0,0.184,0.004,0.268,0.044c0.044,0.02,0.084,0.032,0.112,0.032
			c0.016,0,0.032-0.004,0.064-0.04h0.044l0.02,0.543h-0.06c-0.092-0.36-0.212-0.492-0.452-0.492c-0.172,0-0.3,0.084-0.3,0.272
			c0,0.088,0.06,0.204,0.172,0.272L72.52,7.819z"/>
		<path d="M74.804,7.739c0.076-0.168,0.212-0.38,0.376-0.552c0.104-0.108,0.224-0.18,0.315-0.18c0.112,0,0.188,0.084,0.188,0.204
			s-0.068,0.216-0.188,0.216c-0.072,0-0.104-0.044-0.14-0.104c-0.024-0.04-0.036-0.056-0.064-0.056
			c-0.072,0-0.184,0.132-0.328,0.376C74.792,7.939,74.72,8.099,74.52,8.77h-0.304l0.324-1.167c0.056-0.208,0.064-0.244,0.064-0.328
			s-0.072-0.104-0.152-0.104c-0.032,0-0.064,0.004-0.124,0.012V7.115l0.62-0.108l0.012,0.008l-0.22,0.863L74.804,7.739z"/>
		<path d="M75.936,7.491V7.227h2.015v0.264H75.936z M75.936,8.29V8.027h2.015V8.29H75.936z"/>
		<path d="M80.195,8.37c-0.3,0.364-0.396,0.44-0.556,0.44c-0.112,0-0.16-0.048-0.16-0.164c0-0.1,0.008-0.132,0.092-0.459
			c-0.3,0.452-0.532,0.627-0.812,0.627c-0.224,0-0.4-0.16-0.4-0.464c0-0.62,0.612-1.343,1.144-1.343c0.172,0,0.288,0.084,0.32,0.232
			l0.044-0.192l0.012-0.012l0.244-0.028l0.028,0.012c-0.008,0.036-0.012,0.044-0.024,0.084c-0.188,0.684-0.356,1.371-0.356,1.451
			c0,0.028,0.024,0.052,0.056,0.052c0.036,0,0.088-0.032,0.208-0.164l0.108-0.116L80.195,8.37z M79.527,7.095
			c-0.18,0-0.356,0.124-0.524,0.368c-0.167,0.252-0.308,0.607-0.308,0.859c0,0.22,0.096,0.296,0.24,0.296
			c0.2,0,0.388-0.22,0.508-0.392c0.188-0.272,0.308-0.616,0.308-0.9C79.751,7.187,79.667,7.095,79.527,7.095z"/>
		<path d="M80.616,8.814c-0.112,0-0.212-0.1-0.212-0.216c0-0.128,0.1-0.228,0.22-0.228c0.12,0,0.224,0.104,0.224,0.228
			C80.848,8.719,80.744,8.814,80.616,8.814z"/>
		<path d="M82.679,7.563h-0.064c-0.04-0.332-0.16-0.463-0.356-0.463c-0.14,0-0.236,0.08-0.236,0.228c0,0.108,0.06,0.224,0.216,0.408
			c0.2,0.232,0.272,0.388,0.272,0.544c0,0.332-0.244,0.536-0.576,0.536c-0.068,0-0.128-0.004-0.22-0.04
			c-0.076-0.032-0.132-0.036-0.176-0.036c-0.044,0-0.088,0.02-0.116,0.083H81.36l0.08-0.635h0.064
			c0.056,0.379,0.192,0.543,0.399,0.543c0.188,0,0.304-0.112,0.304-0.308c0-0.128-0.068-0.264-0.224-0.46
			c-0.172-0.216-0.252-0.396-0.252-0.523c0-0.264,0.188-0.432,0.484-0.432c0.068,0,0.124,0.012,0.224,0.04
			c0.076,0.024,0.112,0.028,0.144,0.028c0.06,0,0.088-0.016,0.12-0.072h0.056L82.679,7.563z"/>
		<path d="M83.792,8.359c-0.22,0.335-0.348,0.456-0.548,0.456c-0.132,0-0.196-0.072-0.196-0.22c0-0.08,0.028-0.22,0.088-0.444
			l0.192-0.708c0.02-0.072,0.036-0.144,0.036-0.176c0-0.08-0.04-0.092-0.256-0.096V7.107c0.156-0.012,0.236-0.024,0.64-0.1
			l0.016,0.012L83.388,8.39c-0.02,0.068-0.04,0.12-0.04,0.176c0,0.04,0.024,0.06,0.056,0.06c0.068,0,0.164-0.084,0.336-0.312
			L83.792,8.359z M83.711,6.579c-0.116,0-0.192-0.084-0.192-0.212c0-0.124,0.08-0.212,0.188-0.212s0.2,0.104,0.2,0.22
			C83.907,6.488,83.815,6.579,83.711,6.579z"/>
		<path d="M85.859,8.355c-0.272,0.372-0.372,0.452-0.56,0.452c-0.1,0-0.188-0.064-0.188-0.216c0-0.04,0.008-0.092,0.064-0.3
			l0.176-0.647c0.032-0.124,0.056-0.268,0.056-0.316c0-0.072-0.036-0.116-0.096-0.116c-0.16,0-0.34,0.196-0.592,0.567
			c-0.18,0.268-0.211,0.36-0.399,0.992h-0.3l0.384-1.399c0.004-0.02,0.008-0.044,0.008-0.068c0-0.08-0.056-0.104-0.26-0.108V7.131
			c0.324-0.064,0.436-0.08,0.647-0.124l0.016,0.008l-0.268,0.872c0.4-0.64,0.668-0.88,0.924-0.88c0.172,0,0.26,0.1,0.26,0.244
			c0,0.072-0.016,0.156-0.04,0.24l-0.224,0.812c-0.04,0.144-0.056,0.212-0.056,0.244c0,0.036,0.016,0.072,0.064,0.072
			c0.056,0,0.128-0.064,0.244-0.212c0.028-0.032,0.056-0.068,0.084-0.104L85.859,8.355z"/>
		<path d="M87.619,7.007c0.184,0,0.292,0.004,0.404,0.048c0.196,0.076,0.32,0.22,0.32,0.503c0,0.464-0.436,1.251-1.224,1.255
			L86.903,9.59h-0.312l0.216-0.775c-0.172,0-0.328-0.012-0.428-0.044c-0.208-0.068-0.308-0.256-0.308-0.512
			c0-0.404,0.448-1.251,1.179-1.251h0.06l0.268-0.967h0.308L87.619,7.007z M87.287,7.091c-0.464,0-0.879,0.712-0.879,1.275
			c0,0.168,0.068,0.284,0.192,0.332c0.064,0.024,0.14,0.032,0.232,0.032L87.287,7.091z M87.143,8.73c0.1,0,0.164-0.008,0.276-0.064
			c0.328-0.164,0.588-0.872,0.588-1.203c0-0.18-0.076-0.28-0.18-0.344c-0.04-0.024-0.148-0.028-0.232-0.028L87.143,8.73z"/>
	</g>
	<g display="inline">
		<path d="M59.035,12.991v-0.06c0.252-0.02,0.308-0.088,0.308-0.308v-1.875c0-0.192-0.04-0.256-0.168-0.256
			c-0.032,0-0.083,0-0.147,0.008v-0.064c0.275-0.068,0.423-0.108,0.631-0.176l0.02,0.016v2.367c0,0.22,0.044,0.271,0.3,0.288v0.06
			H59.035z"/>
		<path d="M61.758,12.363c-0.156,0.436-0.436,0.667-0.835,0.667c-0.472,0-0.759-0.356-0.759-0.908c0-0.563,0.324-0.971,0.827-0.971
			c0.248,0,0.428,0.096,0.556,0.276c0.08,0.112,0.12,0.24,0.136,0.456h-1.231c0.02,0.304,0.04,0.46,0.184,0.652
			c0.112,0.148,0.26,0.22,0.444,0.22c0.268,0,0.419-0.124,0.616-0.42L61.758,12.363z M61.274,11.755
			c-0.044-0.324-0.128-0.46-0.392-0.46c-0.224,0-0.379,0.16-0.423,0.46H61.274z"/>
		<path d="M62.946,12.991l0.004-0.06c0.2-0.016,0.248-0.096,0.248-0.36v-0.795c0-0.284-0.096-0.404-0.292-0.404
			c-0.132,0-0.228,0.048-0.412,0.228v1.103c0,0.156,0.056,0.212,0.26,0.228v0.06h-0.844v-0.06c0.204-0.016,0.248-0.08,0.248-0.316
			v-0.971c0-0.196-0.028-0.26-0.14-0.26c-0.044,0-0.088,0.004-0.116,0.016v-0.068c0.22-0.064,0.352-0.108,0.548-0.18l0.032,0.012
			v0.312h0.004c0.208-0.236,0.392-0.324,0.576-0.324c0.304,0,0.472,0.22,0.472,0.616v0.883c0,0.216,0.048,0.26,0.244,0.28v0.06
			H62.946z"/>
		<path d="M65.386,11.439c0.056,0.128,0.076,0.22,0.076,0.336c0,0.208-0.064,0.356-0.208,0.464
			c-0.128,0.096-0.276,0.156-0.416,0.156c-0.024,0-0.08-0.004-0.152-0.012l-0.076-0.008c-0.108,0.032-0.24,0.172-0.24,0.252
			c0,0.064,0.096,0.096,0.312,0.108l0.516,0.024c0.296,0.012,0.483,0.18,0.483,0.428c0,0.16-0.076,0.292-0.24,0.42
			c-0.208,0.16-0.512,0.256-0.799,0.256c-0.384,0-0.692-0.176-0.692-0.388c0-0.148,0.104-0.28,0.392-0.488
			c-0.168-0.08-0.212-0.124-0.212-0.212c0-0.08,0.052-0.16,0.184-0.276c0.06-0.052,0.116-0.104,0.172-0.16
			c-0.268-0.132-0.372-0.284-0.372-0.536c0-0.364,0.296-0.651,0.667-0.651c0.104,0,0.212,0.02,0.32,0.06l0.088,0.032
			c0.08,0.028,0.14,0.04,0.22,0.04h0.308v0.156H65.386z M65.074,13.051c-0.196,0-0.512-0.024-0.647-0.052
			c-0.16,0.192-0.196,0.252-0.196,0.344c0,0.176,0.228,0.292,0.58,0.292c0.456,0,0.759-0.156,0.759-0.388
			C65.57,13.098,65.438,13.051,65.074,13.051z M64.446,11.651c0,0.384,0.164,0.644,0.412,0.644c0.18,0,0.296-0.14,0.296-0.36
			c0-0.164-0.044-0.344-0.12-0.483c-0.064-0.12-0.168-0.188-0.292-0.188c-0.184,0-0.296,0.14-0.296,0.376V11.651z"/>
		<path d="M66.954,12.727c-0.132,0.208-0.284,0.304-0.483,0.304c-0.232,0-0.352-0.172-0.352-0.508V11.32h-0.212
			c-0.012-0.008-0.016-0.016-0.016-0.028c0-0.024,0.024-0.048,0.068-0.076c0.104-0.06,0.236-0.208,0.388-0.428
			c0.024-0.036,0.056-0.072,0.08-0.112c0.02,0,0.028,0.012,0.028,0.052v0.464h0.404v0.128h-0.404v1.143
			c0,0.256,0.06,0.36,0.208,0.36c0.088,0,0.152-0.036,0.24-0.14L66.954,12.727z"/>
		<path d="M68.082,12.991v-0.06c0.231-0.024,0.271-0.072,0.271-0.348v-0.792c0-0.28-0.1-0.424-0.296-0.424
			c-0.16,0-0.28,0.068-0.448,0.252v0.963c0,0.276,0.04,0.324,0.272,0.348v0.06h-0.863v-0.06c0.232-0.032,0.256-0.068,0.256-0.348
			V10.7c0-0.172-0.032-0.204-0.204-0.204c-0.016,0-0.036,0-0.048,0.004v-0.064l0.108-0.032c0.228-0.068,0.32-0.096,0.459-0.144
			l0.02,0.012v1.216c0.184-0.24,0.352-0.336,0.588-0.336c0.328,0,0.492,0.216,0.492,0.636v0.795c0,0.276,0.024,0.308,0.24,0.348
			v0.06H68.082z"/>
		<path d="M69.174,11.711v-0.264h2.354v0.264H69.174z M69.174,12.511v-0.264h2.354v0.264H69.174z"/>
		<path d="M73.626,12.591c-0.3,0.364-0.396,0.44-0.556,0.44c-0.112,0-0.16-0.048-0.16-0.164c0-0.1,0.008-0.132,0.092-0.459
			c-0.3,0.452-0.532,0.627-0.812,0.627c-0.224,0-0.4-0.16-0.4-0.464c0-0.62,0.612-1.343,1.144-1.343c0.172,0,0.288,0.084,0.32,0.232
			l0.044-0.192l0.012-0.012l0.244-0.028l0.028,0.012c-0.008,0.036-0.012,0.044-0.024,0.084c-0.188,0.684-0.356,1.371-0.356,1.451
			c0,0.028,0.024,0.052,0.056,0.052c0.036,0,0.088-0.032,0.208-0.164l0.108-0.116L73.626,12.591z M72.959,11.315
			c-0.18,0-0.356,0.124-0.524,0.368c-0.168,0.251-0.308,0.607-0.308,0.859c0,0.22,0.096,0.296,0.24,0.296
			c0.2,0,0.388-0.22,0.508-0.392c0.188-0.271,0.308-0.615,0.308-0.899C73.182,11.408,73.099,11.315,72.959,11.315z"/>
		<path d="M74.047,13.034c-0.112,0-0.212-0.1-0.212-0.216c0-0.128,0.1-0.228,0.22-0.228c0.12,0,0.224,0.104,0.224,0.228
			C74.279,12.939,74.175,13.034,74.047,13.034z"/>
		<path d="M76.11,11.783h-0.064c-0.04-0.332-0.16-0.463-0.356-0.463c-0.14,0-0.236,0.08-0.236,0.228c0,0.108,0.06,0.224,0.216,0.408
			c0.2,0.232,0.272,0.388,0.272,0.544c0,0.332-0.244,0.536-0.576,0.536c-0.068,0-0.128-0.004-0.22-0.04
			c-0.076-0.032-0.132-0.036-0.176-0.036s-0.088,0.02-0.116,0.084h-0.064l0.08-0.635h0.064c0.056,0.379,0.192,0.543,0.4,0.543
			c0.188,0,0.304-0.112,0.304-0.308c0-0.128-0.068-0.264-0.224-0.46c-0.172-0.216-0.252-0.396-0.252-0.523
			c0-0.264,0.188-0.432,0.484-0.432c0.068,0,0.124,0.012,0.224,0.04c0.076,0.024,0.112,0.028,0.144,0.028
			c0.06,0,0.088-0.016,0.12-0.072h0.056L76.11,11.783z"/>
		<path d="M77.223,12.579c-0.22,0.335-0.348,0.456-0.548,0.456c-0.132,0-0.196-0.072-0.196-0.22c0-0.08,0.028-0.22,0.088-0.444
			l0.192-0.708c0.02-0.072,0.036-0.144,0.036-0.176c0-0.08-0.04-0.092-0.256-0.096v-0.064c0.156-0.012,0.236-0.024,0.64-0.1
			l0.016,0.012l-0.376,1.371c-0.02,0.068-0.04,0.12-0.04,0.176c0,0.04,0.024,0.06,0.056,0.06c0.068,0,0.164-0.084,0.336-0.312
			L77.223,12.579z M77.143,10.8c-0.116,0-0.192-0.084-0.192-0.212c0-0.124,0.08-0.212,0.188-0.212s0.2,0.104,0.2,0.22
			C77.339,10.708,77.247,10.8,77.143,10.8z"/>
		<path d="M79.29,12.575c-0.272,0.372-0.372,0.452-0.56,0.452c-0.1,0-0.188-0.064-0.188-0.216c0-0.04,0.008-0.092,0.064-0.3
			l0.176-0.648c0.032-0.124,0.056-0.268,0.056-0.316c0-0.072-0.036-0.116-0.096-0.116c-0.16,0-0.34,0.196-0.592,0.568
			c-0.18,0.268-0.212,0.359-0.399,0.991h-0.3l0.384-1.399c0.004-0.02,0.008-0.044,0.008-0.068c0-0.08-0.056-0.104-0.26-0.108v-0.064
			c0.324-0.064,0.436-0.08,0.647-0.124l0.016,0.008l-0.268,0.872c0.4-0.64,0.668-0.88,0.924-0.88c0.172,0,0.26,0.1,0.26,0.244
			c0,0.072-0.016,0.156-0.04,0.24l-0.224,0.812c-0.04,0.144-0.056,0.212-0.056,0.244c0,0.036,0.016,0.072,0.064,0.072
			c0.056,0,0.128-0.064,0.244-0.212c0.028-0.032,0.056-0.068,0.084-0.104L79.29,12.575z"/>
		<path d="M81.05,11.227c0.184,0,0.292,0.004,0.404,0.048c0.196,0.076,0.32,0.22,0.32,0.503c0,0.464-0.436,1.251-1.224,1.255
			l-0.216,0.775h-0.312l0.216-0.775c-0.172,0-0.328-0.012-0.428-0.044c-0.208-0.068-0.308-0.256-0.308-0.512
			c0-0.404,0.448-1.251,1.179-1.251h0.06l0.268-0.967h0.308L81.05,11.227z M80.718,11.311c-0.464,0-0.879,0.712-0.879,1.275
			c0,0.168,0.068,0.284,0.192,0.332c0.064,0.024,0.14,0.032,0.232,0.032L80.718,11.311z M80.574,12.95
			c0.1,0,0.164-0.008,0.276-0.064c0.328-0.164,0.588-0.872,0.588-1.203c0-0.18-0.076-0.28-0.18-0.344
			c-0.04-0.024-0.148-0.028-0.231-0.028L80.574,12.95z"/>
		<path d="M82.223,13.034c-0.112,0-0.212-0.1-0.212-0.216c0-0.128,0.1-0.228,0.22-0.228c0.12,0,0.224,0.104,0.224,0.228
			C82.455,12.939,82.351,13.034,82.223,13.034z"/>
		<path d="M82.775,12.991l1.599-2.67h0.104l0.528,2.67H82.775z M84.198,10.887l-1.02,1.727h1.367L84.198,10.887z"/>
		<path d="M86.786,12.567c-0.26,0.344-0.54,0.468-0.82,0.468c-0.324,0-0.512-0.264-0.512-0.688c0-0.859,0.452-1.567,0.888-1.899
			c0.176-0.132,0.328-0.168,0.488-0.168c0.284,0,0.492,0.192,0.492,0.667C87.322,11.596,87.082,12.171,86.786,12.567z
			 M85.906,11.731c-0.076,0.2-0.116,0.408-0.116,0.66c0,0.356,0.076,0.56,0.224,0.56c0.384,0,0.728-0.828,0.824-1.219H85.906z
			 M86.866,11.603c0.068-0.232,0.12-0.52,0.12-0.82c0-0.256-0.072-0.419-0.212-0.419c-0.348,0-0.74,0.883-0.839,1.239H86.866z"/>
	</g>
	<g display="inline">
		<path d="M59.488-10.032c0.176-0.22,0.352-0.316,0.576-0.316c0.388,0,0.667,0.355,0.667,0.852c0,0.58-0.364,1.027-0.839,1.027
			c-0.168,0-0.26-0.04-0.404-0.172v0.627c0,0.252,0.052,0.296,0.352,0.3v0.072h-0.967V-7.71c0.236-0.024,0.28-0.068,0.28-0.276
			v-1.871c0-0.188-0.028-0.228-0.164-0.228c-0.036,0-0.064,0-0.1,0.004v-0.064c0.22-0.068,0.364-0.12,0.576-0.204l0.024,0.008
			V-10.032z M59.488-8.861c0,0.12,0.228,0.264,0.416,0.264c0.288,0,0.484-0.3,0.484-0.74c0-0.468-0.196-0.771-0.492-0.771
			c-0.184,0-0.408,0.144-0.408,0.264V-8.861z"/>
		<path d="M60.916-8.509v-0.06c0.276-0.016,0.316-0.052,0.316-0.356v-0.907c0-0.188-0.032-0.252-0.132-0.252
			c-0.036,0-0.096,0-0.168,0.02v-0.064l0.62-0.22l0.016,0.016v1.403c0,0.296,0.032,0.34,0.295,0.36v0.06H60.916z M61.364-10.832
			c-0.112,0-0.2-0.088-0.2-0.204c0-0.112,0.092-0.204,0.204-0.204c0.116,0,0.204,0.092,0.204,0.204
			C61.572-10.92,61.484-10.832,61.364-10.832z"/>
		<path d="M63.659-9.137c-0.156,0.436-0.436,0.667-0.835,0.667c-0.472,0-0.759-0.356-0.759-0.908c0-0.563,0.324-0.971,0.827-0.971
			c0.248,0,0.428,0.096,0.556,0.276c0.08,0.112,0.12,0.24,0.136,0.456h-1.231c0.02,0.304,0.04,0.46,0.184,0.652
			c0.112,0.148,0.26,0.22,0.444,0.22c0.268,0,0.419-0.124,0.616-0.42L63.659-9.137z M63.175-9.745
			c-0.044-0.324-0.128-0.46-0.392-0.46c-0.224,0-0.379,0.16-0.423,0.46H63.175z"/>
		<path d="M65.387-9.097c-0.128,0.248-0.208,0.364-0.328,0.46c-0.136,0.112-0.288,0.168-0.46,0.168
			c-0.443,0-0.759-0.372-0.759-0.888c0-0.332,0.12-0.607,0.335-0.788c0.16-0.132,0.352-0.204,0.54-0.204
			c0.336,0,0.616,0.188,0.616,0.412c0,0.092-0.084,0.168-0.188,0.168c-0.088,0-0.16-0.068-0.192-0.184l-0.024-0.088
			c-0.04-0.148-0.092-0.192-0.236-0.192c-0.324,0-0.544,0.28-0.544,0.696c0,0.459,0.252,0.779,0.62,0.779
			c0.228,0,0.372-0.096,0.564-0.375L65.387-9.097z"/>
		<path d="M67.21-9.137c-0.156,0.436-0.436,0.667-0.835,0.667c-0.472,0-0.759-0.356-0.759-0.908c0-0.563,0.324-0.971,0.827-0.971
			c0.248,0,0.428,0.096,0.556,0.276c0.08,0.112,0.12,0.24,0.136,0.456h-1.231c0.02,0.304,0.04,0.46,0.184,0.652
			c0.112,0.148,0.26,0.22,0.444,0.22c0.268,0,0.419-0.124,0.616-0.42L67.21-9.137z M66.727-9.745
			c-0.044-0.324-0.128-0.46-0.392-0.46c-0.224,0-0.379,0.16-0.423,0.46H66.727z"/>
		<path d="M69.271-8.469c-0.484,0-0.864-0.396-0.864-0.952s0.36-0.927,0.9-0.927c0.487,0,0.863,0.364,0.863,0.916
			C70.17-8.877,69.811-8.469,69.271-8.469z M69.611-10.037c-0.096-0.12-0.208-0.2-0.38-0.2c-0.276,0-0.464,0.236-0.464,0.636
			c0,0.316,0.064,0.604,0.212,0.819c0.088,0.128,0.216,0.2,0.36,0.2c0.296,0,0.472-0.28,0.472-0.744
			C69.811-9.597,69.739-9.873,69.611-10.037z"/>
		<path d="M70.703-10.308c0.004-0.32,0.036-0.464,0.14-0.644c0.104-0.18,0.312-0.288,0.563-0.288c0.24,0,0.416,0.104,0.416,0.248
			c0,0.092-0.072,0.164-0.168,0.164c-0.068,0-0.116-0.036-0.18-0.144c-0.072-0.116-0.124-0.156-0.212-0.156
			c-0.152,0-0.224,0.12-0.224,0.356v0.464h0.488v0.128h-0.488v1.255c0,0.3,0.044,0.344,0.372,0.356v0.06h-1.039v-0.06
			c0.288-0.016,0.332-0.064,0.332-0.356v-1.255h-0.328v-0.128H70.703z"/>
		<path d="M74.271-9.097c-0.128,0.248-0.208,0.364-0.328,0.46c-0.136,0.112-0.288,0.168-0.46,0.168
			c-0.443,0-0.759-0.372-0.759-0.888c0-0.332,0.12-0.607,0.335-0.788c0.16-0.132,0.352-0.204,0.54-0.204
			c0.336,0,0.616,0.188,0.616,0.412c0,0.092-0.084,0.168-0.188,0.168c-0.088,0-0.16-0.068-0.192-0.184l-0.024-0.088
			c-0.04-0.148-0.092-0.192-0.236-0.192c-0.324,0-0.544,0.28-0.544,0.696c0,0.459,0.252,0.779,0.62,0.779
			c0.228,0,0.372-0.096,0.564-0.375L74.271-9.097z"/>
		<path d="M74.463-8.509v-0.06c0.276-0.016,0.316-0.052,0.316-0.356v-0.907c0-0.188-0.032-0.252-0.132-0.252
			c-0.036,0-0.096,0-0.168,0.02v-0.064l0.62-0.22l0.016,0.016v1.403c0,0.296,0.032,0.34,0.295,0.36v0.06H74.463z M74.911-10.832
			c-0.112,0-0.2-0.088-0.2-0.204c0-0.112,0.092-0.204,0.204-0.204c0.116,0,0.204,0.092,0.204,0.204
			C75.119-10.92,75.031-10.832,74.911-10.832z"/>
		<path d="M76.151-9.973c0.2-0.288,0.312-0.375,0.479-0.375c0.136,0,0.22,0.08,0.22,0.212c0,0.112-0.06,0.18-0.156,0.18
			c-0.052,0-0.096-0.02-0.16-0.08c-0.044-0.04-0.08-0.06-0.104-0.06c-0.112,0-0.28,0.2-0.28,0.328v0.899
			c0,0.228,0.068,0.288,0.34,0.3v0.06h-0.959v-0.06c0.256-0.048,0.284-0.076,0.284-0.276v-1c0-0.176-0.036-0.24-0.136-0.24
			c-0.048,0-0.084,0.004-0.14,0.016v-0.064c0.236-0.076,0.38-0.132,0.592-0.216l0.02,0.008V-9.973z"/>
		<path d="M78.482-9.097c-0.128,0.248-0.208,0.364-0.328,0.46c-0.136,0.112-0.288,0.168-0.46,0.168
			c-0.443,0-0.759-0.372-0.759-0.888c0-0.332,0.12-0.607,0.335-0.788c0.16-0.132,0.352-0.204,0.54-0.204
			c0.336,0,0.616,0.188,0.616,0.412c0,0.092-0.084,0.168-0.188,0.168c-0.088,0-0.16-0.068-0.192-0.184l-0.024-0.088
			c-0.04-0.148-0.092-0.192-0.236-0.192c-0.324,0-0.544,0.28-0.544,0.696c0,0.459,0.252,0.779,0.62,0.779
			c0.228,0,0.372-0.096,0.564-0.375L78.482-9.097z"/>
		<path d="M78.695-8.509v-0.06c0.252-0.02,0.308-0.088,0.308-0.308v-1.875c0-0.192-0.04-0.256-0.167-0.256
			c-0.032,0-0.084,0-0.148,0.008v-0.064c0.276-0.068,0.423-0.108,0.631-0.176l0.02,0.016v2.367c0,0.22,0.044,0.271,0.3,0.288v0.06
			H78.695z"/>
		<path d="M81.419-9.137c-0.156,0.436-0.436,0.667-0.836,0.667c-0.472,0-0.759-0.356-0.759-0.908c0-0.563,0.324-0.971,0.828-0.971
			c0.248,0,0.428,0.096,0.556,0.276c0.08,0.112,0.12,0.24,0.136,0.456h-1.231c0.02,0.304,0.04,0.46,0.184,0.652
			c0.112,0.148,0.26,0.22,0.444,0.22c0.268,0,0.419-0.124,0.615-0.42L81.419-9.137z M80.935-9.745
			c-0.044-0.324-0.128-0.46-0.392-0.46c-0.224,0-0.379,0.16-0.423,0.46H80.935z"/>
		<path d="M59.832-5.64c-0.484,0-0.864-0.396-0.864-0.952s0.36-0.927,0.9-0.927c0.487,0,0.863,0.364,0.863,0.916
			C60.731-6.048,60.371-5.64,59.832-5.64z M60.171-7.207c-0.096-0.12-0.208-0.2-0.38-0.2c-0.276,0-0.464,0.236-0.464,0.636
			c0,0.316,0.064,0.604,0.212,0.819c0.088,0.128,0.216,0.2,0.36,0.2c0.296,0,0.472-0.28,0.472-0.744
			C60.371-6.767,60.299-7.043,60.171-7.207z"/>
		<path d="M61.264-7.479c0.004-0.32,0.036-0.464,0.14-0.644c0.104-0.18,0.312-0.288,0.563-0.288c0.24,0,0.416,0.104,0.416,0.248
			c0,0.092-0.072,0.164-0.168,0.164c-0.068,0-0.116-0.036-0.18-0.144c-0.072-0.116-0.124-0.156-0.212-0.156
			c-0.152,0-0.224,0.12-0.224,0.356v0.464h0.488v0.128H61.6v1.255c0,0.3,0.044,0.344,0.372,0.355v0.06h-1.039v-0.06
			c0.288-0.016,0.332-0.064,0.332-0.355v-1.255h-0.328v-0.128H61.264z"/>
		<path d="M63.824-7.143c0.2-0.288,0.312-0.375,0.479-0.375c0.136,0,0.22,0.08,0.22,0.212c0,0.112-0.06,0.18-0.156,0.18
			c-0.052,0-0.096-0.02-0.16-0.08c-0.044-0.04-0.08-0.06-0.104-0.06c-0.112,0-0.28,0.2-0.28,0.328v0.899
			c0,0.228,0.068,0.288,0.34,0.3v0.06h-0.959v-0.06c0.256-0.048,0.284-0.076,0.284-0.276v-1c0-0.176-0.036-0.24-0.136-0.24
			c-0.048,0-0.084,0.004-0.14,0.016v-0.064c0.236-0.076,0.38-0.132,0.592-0.216l0.02,0.008V-7.143z"/>
		<path d="M66.275-5.832c-0.12,0.152-0.224,0.192-0.36,0.192c-0.148,0-0.236-0.08-0.256-0.292h-0.004
			c-0.212,0.24-0.408,0.292-0.58,0.292c-0.248,0-0.42-0.152-0.42-0.416c0-0.208,0.124-0.364,0.28-0.468
			c0.12-0.08,0.268-0.156,0.72-0.324v-0.216c0-0.248-0.132-0.36-0.312-0.36c-0.16,0-0.28,0.088-0.28,0.196
			c0,0.072,0.024,0.084,0.024,0.168c0,0.076-0.08,0.164-0.184,0.164c-0.084,0-0.172-0.076-0.172-0.184
			c0-0.104,0.064-0.232,0.204-0.32c0.112-0.072,0.28-0.12,0.46-0.12c0.224,0,0.375,0.064,0.472,0.18
			c0.096,0.116,0.112,0.2,0.112,0.444v0.764c0,0.184,0.052,0.264,0.124,0.264c0.064,0,0.104-0.02,0.172-0.076V-5.832z M65.656-6.751
			c-0.248,0.088-0.412,0.172-0.512,0.264c-0.096,0.088-0.136,0.184-0.136,0.308c0,0.212,0.12,0.308,0.276,0.308
			c0.08,0,0.164-0.02,0.232-0.064c0.116-0.08,0.14-0.136,0.14-0.252V-6.751z"/>
		<path d="M67.66-5.64l-0.016-0.012v-0.256C67.507-5.72,67.356-5.64,67.132-5.64c-0.444,0-0.74-0.348-0.74-0.859
			c0-0.568,0.372-1.02,0.832-1.02c0.16,0,0.268,0.044,0.42,0.172V-7.97c0-0.164-0.036-0.204-0.184-0.204
			c-0.032,0-0.056,0-0.088,0.004v-0.064c0.256-0.068,0.396-0.108,0.588-0.176l0.02,0.008v2.267c0,0.184,0.032,0.228,0.176,0.228
			c0.02,0,0.024,0,0.092-0.004v0.064L67.66-5.64z M67.644-7.007c0-0.212-0.192-0.4-0.408-0.4c-0.304,0-0.5,0.296-0.5,0.748
			c0,0.492,0.216,0.812,0.552,0.812c0.124,0,0.224-0.044,0.296-0.128c0.036-0.04,0.06-0.084,0.06-0.112V-7.007z"/>
		<path d="M68.348-5.68v-0.06c0.276-0.016,0.316-0.052,0.316-0.355v-0.908c0-0.188-0.032-0.252-0.132-0.252
			c-0.036,0-0.096,0-0.168,0.02v-0.064l0.62-0.22L69-7.503V-6.1c0,0.296,0.032,0.34,0.295,0.36v0.06H68.348z M68.796-8.003
			c-0.112,0-0.2-0.088-0.2-0.204c0-0.112,0.092-0.204,0.204-0.204c0.116,0,0.204,0.092,0.204,0.204
			C69.004-8.091,68.916-8.003,68.796-8.003z"/>
		<path d="M71.315-5.824c-0.204,0.056-0.348,0.1-0.548,0.18l-0.02-0.012v-0.328h-0.008c-0.196,0.268-0.424,0.344-0.572,0.344
			c-0.308,0-0.488-0.204-0.488-0.512v-1.003c0-0.2-0.056-0.256-0.248-0.268v-0.056h0.583v1.291c0,0.184,0.128,0.316,0.284,0.316
			c0.116,0,0.236-0.036,0.336-0.124c0.064-0.056,0.092-0.092,0.092-0.232v-0.923c0-0.212-0.056-0.244-0.295-0.26v-0.068h0.631v1.371
			c0,0.184,0.044,0.228,0.228,0.228h0.024V-5.824z"/>
		<path d="M72.436-6.632c0.256,0.156,0.352,0.264,0.352,0.492c0,0.268-0.256,0.5-0.56,0.5c-0.084,0-0.2-0.004-0.292-0.036
			c-0.096-0.032-0.14-0.036-0.184-0.036c-0.048,0-0.072,0.008-0.096,0.048h-0.052v-0.628h0.064c0.084,0.388,0.232,0.564,0.508,0.564
			c0.204,0,0.332-0.132,0.332-0.296c0-0.124-0.08-0.228-0.212-0.3l-0.216-0.12C71.748-6.627,71.6-6.819,71.6-7.023
			c0-0.316,0.224-0.492,0.551-0.492c0.096,0,0.184,0.004,0.268,0.044c0.044,0.02,0.084,0.032,0.112,0.032
			c0.016,0,0.032-0.004,0.064-0.04h0.044l0.02,0.543h-0.06c-0.092-0.36-0.212-0.492-0.452-0.492c-0.172,0-0.3,0.084-0.3,0.272
			c0,0.088,0.06,0.204,0.172,0.272L72.436-6.632z"/>
		<path d="M75.855-6.08c-0.3,0.364-0.396,0.44-0.556,0.44c-0.112,0-0.16-0.048-0.16-0.164c0-0.1,0.008-0.132,0.092-0.459
			c-0.3,0.452-0.532,0.627-0.812,0.627c-0.224,0-0.4-0.16-0.4-0.464c0-0.62,0.612-1.343,1.144-1.343c0.172,0,0.288,0.084,0.32,0.232
			l0.044-0.192l0.012-0.012l0.244-0.028l0.028,0.012c-0.008,0.036-0.012,0.044-0.024,0.084c-0.188,0.684-0.356,1.371-0.356,1.451
			c0,0.028,0.024,0.052,0.056,0.052c0.036,0,0.088-0.032,0.208-0.164l0.108-0.116L75.855-6.08z M75.187-7.355
			c-0.18,0-0.356,0.124-0.524,0.368c-0.167,0.252-0.308,0.607-0.308,0.859c0,0.22,0.096,0.296,0.24,0.296
			c0.2,0,0.388-0.22,0.508-0.392c0.188-0.272,0.308-0.616,0.308-0.9C75.411-7.263,75.327-7.355,75.187-7.355z"/>
	</g>
	<g display="inline">
		<path d="M58.86-1.463v-0.06c0.252-0.02,0.308-0.088,0.308-0.308v-1.875c0-0.192-0.04-0.256-0.168-0.256
			c-0.032,0-0.083,0-0.147,0.008v-0.064c0.275-0.068,0.423-0.108,0.631-0.176l0.02,0.016v2.367c0,0.22,0.044,0.271,0.3,0.288v0.06
			H58.86z"/>
		<path d="M61.583-2.09c-0.156,0.436-0.436,0.667-0.835,0.667c-0.472,0-0.759-0.356-0.759-0.908c0-0.563,0.324-0.971,0.827-0.971
			c0.248,0,0.428,0.096,0.556,0.276c0.08,0.112,0.12,0.24,0.136,0.456h-1.231c0.02,0.304,0.04,0.46,0.184,0.652
			c0.112,0.148,0.26,0.22,0.444,0.22c0.268,0,0.419-0.124,0.616-0.42L61.583-2.09z M61.099-2.698
			c-0.044-0.324-0.128-0.46-0.392-0.46c-0.224,0-0.379,0.16-0.423,0.46H61.099z"/>
		<path d="M62.771-1.463l0.004-0.06c0.2-0.016,0.248-0.096,0.248-0.36v-0.795c0-0.284-0.096-0.404-0.292-0.404
			c-0.132,0-0.228,0.048-0.412,0.228v1.103c0,0.156,0.056,0.212,0.26,0.228v0.06h-0.844v-0.06c0.204-0.016,0.248-0.08,0.248-0.316
			V-2.81c0-0.196-0.028-0.26-0.14-0.26c-0.044,0-0.088,0.004-0.116,0.016v-0.068c0.22-0.064,0.352-0.108,0.548-0.18l0.032,0.012
			v0.312h0.004c0.208-0.236,0.392-0.324,0.576-0.324c0.304,0,0.472,0.22,0.472,0.616v0.883c0,0.216,0.048,0.26,0.244,0.28v0.06
			H62.771z"/>
		<path d="M65.211-3.014c0.056,0.128,0.076,0.22,0.076,0.336c0,0.208-0.064,0.356-0.208,0.464c-0.128,0.096-0.276,0.156-0.416,0.156
			c-0.024,0-0.08-0.004-0.152-0.012l-0.076-0.008c-0.108,0.032-0.24,0.172-0.24,0.252c0,0.064,0.096,0.096,0.312,0.108l0.516,0.024
			c0.296,0.012,0.483,0.18,0.483,0.428c0,0.16-0.076,0.292-0.24,0.42c-0.208,0.16-0.512,0.256-0.799,0.256
			c-0.384,0-0.692-0.176-0.692-0.388c0-0.148,0.104-0.28,0.392-0.488C64-1.547,63.956-1.591,63.956-1.678
			c0-0.08,0.052-0.16,0.184-0.276c0.06-0.052,0.116-0.104,0.172-0.16c-0.268-0.132-0.372-0.284-0.372-0.536
			c0-0.364,0.296-0.651,0.667-0.651c0.104,0,0.212,0.02,0.32,0.06l0.088,0.032c0.08,0.028,0.14,0.04,0.22,0.04h0.308v0.156H65.211z
			 M64.899-1.403c-0.196,0-0.512-0.024-0.647-0.052c-0.16,0.192-0.196,0.252-0.196,0.344c0,0.176,0.228,0.292,0.58,0.292
			c0.456,0,0.759-0.156,0.759-0.388C65.395-1.355,65.263-1.403,64.899-1.403z M64.271-2.802c0,0.384,0.164,0.644,0.412,0.644
			c0.18,0,0.296-0.14,0.296-0.36c0-0.164-0.044-0.344-0.12-0.483c-0.064-0.12-0.168-0.188-0.292-0.188
			c-0.184,0-0.296,0.14-0.296,0.376V-2.802z"/>
		<path d="M66.779-1.726c-0.132,0.208-0.284,0.304-0.483,0.304c-0.232,0-0.352-0.172-0.352-0.508v-1.203h-0.212
			c-0.012-0.008-0.016-0.016-0.016-0.028c0-0.024,0.024-0.048,0.068-0.076c0.104-0.06,0.236-0.208,0.388-0.428
			c0.024-0.036,0.056-0.072,0.08-0.112c0.02,0,0.028,0.012,0.028,0.052v0.464h0.404v0.128h-0.404v1.143
			c0,0.256,0.06,0.36,0.208,0.36c0.088,0,0.152-0.036,0.24-0.14L66.779-1.726z"/>
		<path d="M67.907-1.463v-0.06c0.231-0.024,0.271-0.072,0.271-0.348v-0.792c0-0.28-0.1-0.424-0.296-0.424
			c-0.16,0-0.28,0.068-0.448,0.252v0.963c0,0.276,0.04,0.324,0.272,0.348v0.06h-0.863v-0.06c0.232-0.032,0.256-0.068,0.256-0.348
			v-1.883c0-0.172-0.032-0.204-0.204-0.204c-0.016,0-0.036,0-0.048,0.004v-0.064l0.108-0.032c0.228-0.068,0.32-0.096,0.459-0.144
			l0.02,0.012v1.216c0.184-0.24,0.352-0.336,0.588-0.336c0.328,0,0.492,0.216,0.492,0.636v0.795c0,0.276,0.024,0.308,0.24,0.348
			v0.06H67.907z"/>
		<path d="M68.999-2.742v-0.264h2.354v0.264H68.999z M68.999-1.942v-0.264h2.354v0.264H68.999z"/>
		<path d="M73.451-1.863c-0.3,0.364-0.396,0.44-0.556,0.44c-0.112,0-0.16-0.048-0.16-0.164c0-0.1,0.008-0.132,0.092-0.459
			c-0.3,0.452-0.532,0.627-0.812,0.627c-0.224,0-0.4-0.16-0.4-0.464c0-0.62,0.612-1.343,1.144-1.343c0.172,0,0.288,0.084,0.32,0.232
			l0.044-0.192l0.012-0.012l0.244-0.028l0.028,0.012c-0.008,0.036-0.012,0.044-0.024,0.084c-0.188,0.684-0.356,1.371-0.356,1.451
			c0,0.028,0.024,0.052,0.056,0.052c0.036,0,0.088-0.032,0.208-0.164l0.108-0.116L73.451-1.863z M72.783-3.138
			c-0.18,0-0.356,0.124-0.524,0.368c-0.168,0.251-0.308,0.607-0.308,0.859c0,0.22,0.096,0.296,0.24,0.296
			c0.2,0,0.388-0.22,0.508-0.392c0.188-0.271,0.308-0.615,0.308-0.899C73.007-3.046,72.923-3.138,72.783-3.138z"/>
		<path d="M73.872-1.419c-0.112,0-0.212-0.1-0.212-0.216c0-0.128,0.1-0.228,0.22-0.228c0.12,0,0.224,0.104,0.224,0.228
			C74.104-1.514,74-1.419,73.872-1.419z"/>
		<path d="M74.424-1.463l1.599-2.67h0.104l0.528,2.67H74.424z M75.847-3.566l-1.02,1.727h1.367L75.847-3.566z"/>
		<path d="M78.651-3.226c0.184,0,0.292,0.004,0.404,0.048c0.196,0.076,0.32,0.22,0.32,0.503c0,0.464-0.436,1.251-1.224,1.255
			l-0.216,0.775h-0.312l0.216-0.775c-0.172,0-0.328-0.012-0.428-0.044c-0.208-0.068-0.308-0.256-0.308-0.512
			c0-0.404,0.448-1.251,1.179-1.251h0.06l0.268-0.967h0.308L78.651-3.226z M78.319-3.142c-0.464,0-0.879,0.712-0.879,1.275
			c0,0.168,0.068,0.284,0.192,0.332c0.064,0.024,0.14,0.032,0.232,0.032L78.319-3.142z M78.175-1.503c0.1,0,0.164-0.008,0.276-0.064
			c0.328-0.164,0.588-0.872,0.588-1.203c0-0.18-0.076-0.28-0.18-0.344c-0.04-0.024-0.148-0.028-0.232-0.028L78.175-1.503z"/>
	</g>
	<g display="inline">
		<g>
			<path fill="none" stroke="#000000" stroke-width="0.2" stroke-miterlimit="10" d="M48.528-0.218
				c2.309-1.61,4.818-6.57,9.582-6.57"/>
			<g>
				<polygon points="49.337,0.145 48.726,-0.379 48.678,-1.182 47.435,0.263 				"/>
			</g>
		</g>
	</g>
	<g display="inline">
		<g>
			<path fill="none" stroke="#000000" stroke-width="0.2" stroke-miterlimit="10" d="M47.544,3.554
				c2.719,4.313,5.42,2.622,10.566,2.622"/>
			<g>
				<polygon points="47.246,4.398 47.709,3.74 48.505,3.617 46.95,2.515 				"/>
			</g>
		</g>
	</g>
	<g display="inline">
		<g>
			<path fill="none" stroke="#FF0000" stroke-width="0.2" stroke-miterlimit="10" d="M45.624-2.647
				c0.279-3.587-1.315-6.116-3.385-7.389"/>
			<g>
				<polygon fill="#FF0000" points="46.407,-3.122 45.635,-2.894 44.935,-3.292 45.469,-1.463 				"/>
			</g>
		</g>
	</g>
</g>
<g id="Layer_8" display="none">
	
		<line display="inline" fill="none" stroke="#00A300" stroke-width="0.1" stroke-miterlimit="10" x1="32.024" y1="24.057" x2="43.777" y2="0.416"/>
	
		<line display="inline" fill="none" stroke="#00A300" stroke-width="0.1" stroke-miterlimit="10" x1="32.172" y1="23.821" x2="45.666" y2="2.218"/>
	<polygon display="inline" opacity="0.03" fill="#00A300" points="45.667,2.218 32.025,24.057 43.777,0.416 	"/>
	
		<line display="inline" fill="none" stroke="#FF00FF" stroke-width="0.1" stroke-miterlimit="10" x1="43.777" y1="0.416" x2="32.024" y2="-2.692"/>
	
		<line display="inline" fill="none" stroke="#FF00FF" stroke-width="0.1" stroke-miterlimit="10" x1="45.38" y1="0.038" x2="32.145" y2="-2.66"/>
	<polyline display="inline" opacity="0.03" fill="#FF00FF" points="43.777,0.416 45.38,0.038 32.126,-2.797 	"/>
	<path display="inline" opacity="0.03" fill="#FF00FF" d="M34.163-12.434"/>
	<polyline opacity="0.03" fill="#FF00FF" points="32.125,1.941 41.048,6.377 46.594,5.861 32.024,1.778 	"/>
	<polygon opacity="0.1" fill="#FF00FF" points="46.594,5.861 32.148,1.813 32.144,-3.262 45.416,0.394 	"/>
</g>
</svg>
