<?xml version="1.0" encoding="utf-8"?>
<!-- Generator: Adobe Illustrator 25.4.1, SVG Export Plug-In . SVG Version: 6.00 Build 0)  -->
<svg version="1.1" xmlns="http://www.w3.org/2000/svg" xmlns:xlink="http://www.w3.org/1999/xlink" x="0px" y="0px"
	 viewBox="0 0 56.061 43.546" enable-background="new 0 0 56.061 43.546" xml:space="preserve">
<g id="Graph_paper_slanted" opacity="0.5">
	<g id="Clipped_grid_00000003068028900943026870000011536296927355263674_">
		<defs>
			<polygon id="SVGID_1_" points="31.25,55.803 -44.663,55.803 -4.735,15.875 71.178,15.875 			"/>
		</defs>
		<clipPath id="SVGID_00000132064815632892266830000010077877277907179439_">
			<use xlink:href="#SVGID_1_"  overflow="visible"/>
		</clipPath>
		
			<g id="Grid_00000142891597197125820610000009767860333217090727_" opacity="0.25" clip-path="url(#SVGID_00000132064815632892266830000010077877277907179439_)">
			<g id="Horizontal_1_mm_00000151508609497893311650000018408800186222605470_">
				
					<line fill="none" stroke="#00ABEB" stroke-width="0.15" stroke-miterlimit="10" x1="-42.557" y1="-22.465" x2="184.284" y2="-22.465"/>
				
					<line fill="none" stroke="#00ABEB" stroke-width="0.15" stroke-miterlimit="10" x1="-40.569" y1="-24.453" x2="186.272" y2="-24.453"/>
				
					<line fill="none" stroke="#00ABEB" stroke-width="0.15" stroke-miterlimit="10" x1="-159.846" y1="94.823" x2="66.995" y2="94.823"/>
				
					<line fill="none" stroke="#00ABEB" stroke-width="0.15" stroke-miterlimit="10" x1="-157.857" y1="92.835" x2="68.983" y2="92.835"/>
				
					<line fill="none" stroke="#00ABEB" stroke-width="0.15" stroke-miterlimit="10" x1="-155.87" y1="90.847" x2="70.971" y2="90.847"/>
				
					<line fill="none" stroke="#00ABEB" stroke-width="0.15" stroke-miterlimit="10" x1="-153.882" y1="88.859" x2="72.959" y2="88.859"/>
				
					<line fill="none" stroke="#00ABEB" stroke-width="0.15" stroke-miterlimit="10" x1="-151.894" y1="86.871" x2="74.947" y2="86.871"/>
				
					<line fill="none" stroke="#00ABEB" stroke-width="0.15" stroke-miterlimit="10" x1="-149.906" y1="84.884" x2="76.935" y2="84.884"/>
				
					<line fill="none" stroke="#00ABEB" stroke-width="0.15" stroke-miterlimit="10" x1="-147.918" y1="82.895" x2="78.923" y2="82.895"/>
				
					<line fill="none" stroke="#00ABEB" stroke-width="0.15" stroke-miterlimit="10" x1="-145.931" y1="80.908" x2="80.91" y2="80.908"/>
				
					<line fill="none" stroke="#00ABEB" stroke-width="0.15" stroke-miterlimit="10" x1="-143.942" y1="78.919" x2="82.899" y2="78.919"/>
				
					<line fill="none" stroke="#00ABEB" stroke-width="0.15" stroke-miterlimit="10" x1="-141.954" y1="76.931" x2="84.887" y2="76.931"/>
				
					<line fill="none" stroke="#00ABEB" stroke-width="0.15" stroke-miterlimit="10" x1="-139.966" y1="74.944" x2="86.874" y2="74.944"/>
				
					<line fill="none" stroke="#00ABEB" stroke-width="0.15" stroke-miterlimit="10" x1="-137.978" y1="72.956" x2="88.863" y2="72.956"/>
				
					<line fill="none" stroke="#00ABEB" stroke-width="0.15" stroke-miterlimit="10" x1="-135.99" y1="70.968" x2="90.851" y2="70.968"/>
				
					<line fill="none" stroke="#00ABEB" stroke-width="0.15" stroke-miterlimit="10" x1="-134.003" y1="68.98" x2="92.838" y2="68.98"/>
				
					<line fill="none" stroke="#00ABEB" stroke-width="0.15" stroke-miterlimit="10" x1="-132.014" y1="66.992" x2="94.826" y2="66.992"/>
				
					<line fill="none" stroke="#00ABEB" stroke-width="0.15" stroke-miterlimit="10" x1="-130.026" y1="65.004" x2="96.815" y2="65.004"/>
				
					<line fill="none" stroke="#00ABEB" stroke-width="0.15" stroke-miterlimit="10" x1="-128.039" y1="63.016" x2="98.802" y2="63.016"/>
				
					<line fill="none" stroke="#00ABEB" stroke-width="0.15" stroke-miterlimit="10" x1="-126.051" y1="61.028" x2="100.79" y2="61.028"/>
				
					<line fill="none" stroke="#00ABEB" stroke-width="0.15" stroke-miterlimit="10" x1="-124.062" y1="59.04" x2="102.778" y2="59.04"/>
				
					<line fill="none" stroke="#00ABEB" stroke-width="0.15" stroke-miterlimit="10" x1="-122.075" y1="57.053" x2="104.766" y2="57.053"/>
				
					<line fill="none" stroke="#00ABEB" stroke-width="0.15" stroke-miterlimit="10" x1="-120.087" y1="55.064" x2="106.754" y2="55.064"/>
				
					<line fill="none" stroke="#00ABEB" stroke-width="0.15" stroke-miterlimit="10" x1="-118.098" y1="53.076" x2="108.743" y2="53.076"/>
				
					<line fill="none" stroke="#00ABEB" stroke-width="0.15" stroke-miterlimit="10" x1="-116.111" y1="51.088" x2="110.73" y2="51.088"/>
				
					<line fill="none" stroke="#00ABEB" stroke-width="0.15" stroke-miterlimit="10" x1="-114.123" y1="49.1" x2="112.718" y2="49.1"/>
				
					<line fill="none" stroke="#00ABEB" stroke-width="0.15" stroke-miterlimit="10" x1="-112.135" y1="47.113" x2="114.706" y2="47.113"/>
				
					<line fill="none" stroke="#00ABEB" stroke-width="0.15" stroke-miterlimit="10" x1="-110.147" y1="45.125" x2="116.694" y2="45.125"/>
				
					<line fill="none" stroke="#00ABEB" stroke-width="0.15" stroke-miterlimit="10" x1="-108.159" y1="43.136" x2="118.682" y2="43.136"/>
				
					<line fill="none" stroke="#00ABEB" stroke-width="0.15" stroke-miterlimit="10" x1="-106.171" y1="41.149" x2="120.67" y2="41.149"/>
				
					<line fill="none" stroke="#00ABEB" stroke-width="0.15" stroke-miterlimit="10" x1="-104.183" y1="39.161" x2="122.658" y2="39.161"/>
				
					<line fill="none" stroke="#00ABEB" stroke-width="0.15" stroke-miterlimit="10" x1="-102.195" y1="37.173" x2="124.646" y2="37.173"/>
				
					<line fill="none" stroke="#00ABEB" stroke-width="0.15" stroke-miterlimit="10" x1="-100.207" y1="35.185" x2="126.633" y2="35.185"/>
				
					<line fill="none" stroke="#00ABEB" stroke-width="0.15" stroke-miterlimit="10" x1="-98.219" y1="33.197" x2="128.621" y2="33.197"/>
				
					<line fill="none" stroke="#00ABEB" stroke-width="0.15" stroke-miterlimit="10" x1="-96.231" y1="31.209" x2="130.61" y2="31.209"/>
				
					<line fill="none" stroke="#00ABEB" stroke-width="0.15" stroke-miterlimit="10" x1="-94.244" y1="29.221" x2="132.597" y2="29.221"/>
				
					<line fill="none" stroke="#00ABEB" stroke-width="0.15" stroke-miterlimit="10" x1="-92.255" y1="27.233" x2="134.585" y2="27.233"/>
				
					<line fill="none" stroke="#00ABEB" stroke-width="0.15" stroke-miterlimit="10" x1="-90.267" y1="25.245" x2="136.573" y2="25.245"/>
				
					<line fill="none" stroke="#00ABEB" stroke-width="0.15" stroke-miterlimit="10" x1="-88.28" y1="23.258" x2="138.561" y2="23.258"/>
				
					<line fill="none" stroke="#00ABEB" stroke-width="0.15" stroke-miterlimit="10" x1="-86.292" y1="21.269" x2="140.549" y2="21.269"/>
				
					<line fill="none" stroke="#00ABEB" stroke-width="0.15" stroke-miterlimit="10" x1="-84.304" y1="19.281" x2="142.537" y2="19.281"/>
				
					<line fill="none" stroke="#00ABEB" stroke-width="0.15" stroke-miterlimit="10" x1="-82.316" y1="17.294" x2="144.525" y2="17.294"/>
				
					<line fill="none" stroke="#00ABEB" stroke-width="0.15" stroke-miterlimit="10" x1="-80.328" y1="15.305" x2="146.513" y2="15.305"/>
				
					<line fill="none" stroke="#00ABEB" stroke-width="0.15" stroke-miterlimit="10" x1="-78.34" y1="13.318" x2="148.501" y2="13.318"/>
				
					<line fill="none" stroke="#00ABEB" stroke-width="0.15" stroke-miterlimit="10" x1="-76.352" y1="11.33" x2="150.489" y2="11.33"/>
				
					<line fill="none" stroke="#00ABEB" stroke-width="0.15" stroke-miterlimit="10" x1="-74.364" y1="9.342" x2="152.477" y2="9.342"/>
				
					<line fill="none" stroke="#00ABEB" stroke-width="0.15" stroke-miterlimit="10" x1="-72.376" y1="7.354" x2="154.465" y2="7.354"/>
				
					<line fill="none" stroke="#00ABEB" stroke-width="0.15" stroke-miterlimit="10" x1="-70.388" y1="5.366" x2="156.453" y2="5.366"/>
				
					<line fill="none" stroke="#00ABEB" stroke-width="0.15" stroke-miterlimit="10" x1="-68.4" y1="3.378" x2="158.441" y2="3.378"/>
				
					<line fill="none" stroke="#00ABEB" stroke-width="0.15" stroke-miterlimit="10" x1="-66.412" y1="1.39" x2="160.428" y2="1.39"/>
				
					<line fill="none" stroke="#00ABEB" stroke-width="0.15" stroke-miterlimit="10" x1="-64.424" y1="-0.598" x2="162.417" y2="-0.598"/>
				
					<line fill="none" stroke="#00ABEB" stroke-width="0.15" stroke-miterlimit="10" x1="-62.436" y1="-2.586" x2="164.405" y2="-2.586"/>
				
					<line fill="none" stroke="#00ABEB" stroke-width="0.15" stroke-miterlimit="10" x1="-60.449" y1="-4.573" x2="166.392" y2="-4.573"/>
				
					<line fill="none" stroke="#00ABEB" stroke-width="0.15" stroke-miterlimit="10" x1="-58.46" y1="-6.562" x2="168.38" y2="-6.562"/>
				
					<line fill="none" stroke="#00ABEB" stroke-width="0.15" stroke-miterlimit="10" x1="-56.472" y1="-8.55" x2="170.369" y2="-8.55"/>
				
					<line fill="none" stroke="#00ABEB" stroke-width="0.15" stroke-miterlimit="10" x1="-54.485" y1="-10.537" x2="172.356" y2="-10.537"/>
				
					<line fill="none" stroke="#00ABEB" stroke-width="0.15" stroke-miterlimit="10" x1="-52.496" y1="-12.526" x2="174.345" y2="-12.526"/>
				
					<line fill="none" stroke="#00ABEB" stroke-width="0.15" stroke-miterlimit="10" x1="-50.509" y1="-14.513" x2="176.332" y2="-14.513"/>
				
					<line fill="none" stroke="#00ABEB" stroke-width="0.15" stroke-miterlimit="10" x1="-48.521" y1="-16.501" x2="178.32" y2="-16.501"/>
				
					<line fill="none" stroke="#00ABEB" stroke-width="0.15" stroke-miterlimit="10" x1="-46.533" y1="-18.489" x2="180.308" y2="-18.489"/>
				
					<line fill="none" stroke="#00ABEB" stroke-width="0.15" stroke-miterlimit="10" x1="-44.545" y1="-20.477" x2="182.296" y2="-20.477"/>
			</g>
			<g id="Vertical_1_mm_00000181073523592228201180000012361058669048395659_">
				<g>
					
						<line fill="none" stroke="#00ABEB" stroke-width="0.15" stroke-miterlimit="10" x1="-159.761" y1="94.813" x2="-40.441" y2="-24.506"/>
				</g>
				
					<line fill="none" stroke="#00ABEB" stroke-width="0.15" stroke-miterlimit="10" x1="-156.927" y1="94.813" x2="-37.607" y2="-24.506"/>
				
					<line fill="none" stroke="#00ABEB" stroke-width="0.15" stroke-miterlimit="10" x1="-154.092" y1="94.813" x2="-34.772" y2="-24.506"/>
				
					<line fill="none" stroke="#00ABEB" stroke-width="0.15" stroke-miterlimit="10" x1="-151.257" y1="94.813" x2="-31.937" y2="-24.506"/>
				
					<line fill="none" stroke="#00ABEB" stroke-width="0.15" stroke-miterlimit="10" x1="-148.423" y1="94.813" x2="-29.103" y2="-24.506"/>
				
					<line fill="none" stroke="#00ABEB" stroke-width="0.15" stroke-miterlimit="10" x1="-145.588" y1="94.813" x2="-26.268" y2="-24.506"/>
				
					<line fill="none" stroke="#00ABEB" stroke-width="0.15" stroke-miterlimit="10" x1="-142.753" y1="94.813" x2="-23.433" y2="-24.506"/>
				
					<line fill="none" stroke="#00ABEB" stroke-width="0.15" stroke-miterlimit="10" x1="-139.919" y1="94.813" x2="-20.599" y2="-24.506"/>
				
					<line fill="none" stroke="#00ABEB" stroke-width="0.15" stroke-miterlimit="10" x1="-137.084" y1="94.813" x2="-17.764" y2="-24.506"/>
				
					<line fill="none" stroke="#00ABEB" stroke-width="0.15" stroke-miterlimit="10" x1="-134.25" y1="94.813" x2="-14.93" y2="-24.506"/>
				
					<line fill="none" stroke="#00ABEB" stroke-width="0.15" stroke-miterlimit="10" x1="-131.415" y1="94.813" x2="-12.095" y2="-24.506"/>
				
					<line fill="none" stroke="#00ABEB" stroke-width="0.15" stroke-miterlimit="10" x1="-128.58" y1="94.813" x2="-9.26" y2="-24.506"/>
				
					<line fill="none" stroke="#00ABEB" stroke-width="0.15" stroke-miterlimit="10" x1="-125.746" y1="94.813" x2="-6.426" y2="-24.506"/>
				
					<line fill="none" stroke="#00ABEB" stroke-width="0.15" stroke-miterlimit="10" x1="-122.911" y1="94.813" x2="-3.591" y2="-24.506"/>
				
					<line fill="none" stroke="#00ABEB" stroke-width="0.15" stroke-miterlimit="10" x1="-120.076" y1="94.813" x2="-0.756" y2="-24.506"/>
				
					<line fill="none" stroke="#00ABEB" stroke-width="0.15" stroke-miterlimit="10" x1="-117.242" y1="94.813" x2="2.078" y2="-24.506"/>
				
					<line fill="none" stroke="#00ABEB" stroke-width="0.15" stroke-miterlimit="10" x1="-114.407" y1="94.813" x2="4.913" y2="-24.506"/>
				
					<line fill="none" stroke="#00ABEB" stroke-width="0.15" stroke-miterlimit="10" x1="-111.572" y1="94.813" x2="7.748" y2="-24.506"/>
				
					<line fill="none" stroke="#00ABEB" stroke-width="0.15" stroke-miterlimit="10" x1="-108.738" y1="94.813" x2="10.582" y2="-24.506"/>
				
					<line fill="none" stroke="#00ABEB" stroke-width="0.15" stroke-miterlimit="10" x1="-105.903" y1="94.813" x2="13.417" y2="-24.506"/>
				
					<line fill="none" stroke="#00ABEB" stroke-width="0.15" stroke-miterlimit="10" x1="-103.068" y1="94.813" x2="16.252" y2="-24.506"/>
				
					<line fill="none" stroke="#00ABEB" stroke-width="0.15" stroke-miterlimit="10" x1="-100.234" y1="94.813" x2="19.086" y2="-24.506"/>
				
					<line fill="none" stroke="#00ABEB" stroke-width="0.15" stroke-miterlimit="10" x1="-97.399" y1="94.813" x2="21.921" y2="-24.506"/>
				
					<line fill="none" stroke="#00ABEB" stroke-width="0.15" stroke-miterlimit="10" x1="-94.564" y1="94.813" x2="24.756" y2="-24.506"/>
				
					<line fill="none" stroke="#00ABEB" stroke-width="0.15" stroke-miterlimit="10" x1="-91.73" y1="94.813" x2="27.59" y2="-24.506"/>
				
					<line fill="none" stroke="#00ABEB" stroke-width="0.15" stroke-miterlimit="10" x1="-88.895" y1="94.813" x2="30.425" y2="-24.506"/>
				
					<line fill="none" stroke="#00ABEB" stroke-width="0.15" stroke-miterlimit="10" x1="-86.061" y1="94.813" x2="33.259" y2="-24.506"/>
				
					<line fill="none" stroke="#00ABEB" stroke-width="0.15" stroke-miterlimit="10" x1="-83.226" y1="94.813" x2="36.094" y2="-24.506"/>
				
					<line fill="none" stroke="#00ABEB" stroke-width="0.15" stroke-miterlimit="10" x1="-80.391" y1="94.813" x2="38.929" y2="-24.506"/>
				
					<line fill="none" stroke="#00ABEB" stroke-width="0.15" stroke-miterlimit="10" x1="-77.557" y1="94.813" x2="41.763" y2="-24.506"/>
				
					<line fill="none" stroke="#00ABEB" stroke-width="0.15" stroke-miterlimit="10" x1="-74.722" y1="94.813" x2="44.598" y2="-24.506"/>
				
					<line fill="none" stroke="#00ABEB" stroke-width="0.15" stroke-miterlimit="10" x1="-71.887" y1="94.813" x2="47.433" y2="-24.506"/>
				
					<line fill="none" stroke="#00ABEB" stroke-width="0.15" stroke-miterlimit="10" x1="-69.053" y1="94.813" x2="50.267" y2="-24.506"/>
				
					<line fill="none" stroke="#00ABEB" stroke-width="0.15" stroke-miterlimit="10" x1="-66.218" y1="94.813" x2="53.102" y2="-24.506"/>
				
					<line fill="none" stroke="#00ABEB" stroke-width="0.15" stroke-miterlimit="10" x1="-63.383" y1="94.813" x2="55.937" y2="-24.506"/>
				
					<line fill="none" stroke="#00ABEB" stroke-width="0.15" stroke-miterlimit="10" x1="-60.549" y1="94.813" x2="58.771" y2="-24.506"/>
				
					<line fill="none" stroke="#00ABEB" stroke-width="0.15" stroke-miterlimit="10" x1="-57.714" y1="94.813" x2="61.606" y2="-24.506"/>
				
					<line fill="none" stroke="#00ABEB" stroke-width="0.15" stroke-miterlimit="10" x1="-54.879" y1="94.813" x2="64.441" y2="-24.506"/>
				
					<line fill="none" stroke="#00ABEB" stroke-width="0.15" stroke-miterlimit="10" x1="-52.045" y1="94.813" x2="67.275" y2="-24.506"/>
				
					<line fill="none" stroke="#00ABEB" stroke-width="0.15" stroke-miterlimit="10" x1="-49.21" y1="94.813" x2="70.11" y2="-24.506"/>
				
					<line fill="none" stroke="#00ABEB" stroke-width="0.15" stroke-miterlimit="10" x1="-46.376" y1="94.813" x2="72.944" y2="-24.506"/>
				
					<line fill="none" stroke="#00ABEB" stroke-width="0.15" stroke-miterlimit="10" x1="-43.541" y1="94.813" x2="75.779" y2="-24.506"/>
				
					<line fill="none" stroke="#00ABEB" stroke-width="0.15" stroke-miterlimit="10" x1="-40.706" y1="94.813" x2="78.614" y2="-24.506"/>
				
					<line fill="none" stroke="#00ABEB" stroke-width="0.15" stroke-miterlimit="10" x1="-37.872" y1="94.813" x2="81.448" y2="-24.506"/>
				
					<line fill="none" stroke="#00ABEB" stroke-width="0.15" stroke-miterlimit="10" x1="-35.037" y1="94.813" x2="84.283" y2="-24.506"/>
				
					<line fill="none" stroke="#00ABEB" stroke-width="0.15" stroke-miterlimit="10" x1="-32.202" y1="94.813" x2="87.118" y2="-24.506"/>
				
					<line fill="none" stroke="#00ABEB" stroke-width="0.15" stroke-miterlimit="10" x1="-29.368" y1="94.813" x2="89.952" y2="-24.506"/>
				
					<line fill="none" stroke="#00ABEB" stroke-width="0.15" stroke-miterlimit="10" x1="-26.533" y1="94.813" x2="92.787" y2="-24.506"/>
				
					<line fill="none" stroke="#00ABEB" stroke-width="0.15" stroke-miterlimit="10" x1="-23.698" y1="94.813" x2="95.622" y2="-24.506"/>
				
					<line fill="none" stroke="#00ABEB" stroke-width="0.15" stroke-miterlimit="10" x1="-20.864" y1="94.813" x2="98.456" y2="-24.506"/>
				
					<line fill="none" stroke="#00ABEB" stroke-width="0.15" stroke-miterlimit="10" x1="-18.029" y1="94.813" x2="101.291" y2="-24.506"/>
				
					<line fill="none" stroke="#00ABEB" stroke-width="0.15" stroke-miterlimit="10" x1="-15.194" y1="94.813" x2="104.126" y2="-24.506"/>
				
					<line fill="none" stroke="#00ABEB" stroke-width="0.15" stroke-miterlimit="10" x1="-12.36" y1="94.813" x2="106.96" y2="-24.506"/>
				
					<line fill="none" stroke="#00ABEB" stroke-width="0.15" stroke-miterlimit="10" x1="-9.525" y1="94.813" x2="109.795" y2="-24.506"/>
				
					<line fill="none" stroke="#00ABEB" stroke-width="0.15" stroke-miterlimit="10" x1="-6.69" y1="94.813" x2="112.63" y2="-24.506"/>
				
					<line fill="none" stroke="#00ABEB" stroke-width="0.15" stroke-miterlimit="10" x1="-3.856" y1="94.813" x2="115.464" y2="-24.506"/>
				
					<line fill="none" stroke="#00ABEB" stroke-width="0.15" stroke-miterlimit="10" x1="-1.021" y1="94.813" x2="118.299" y2="-24.506"/>
				
					<line fill="none" stroke="#00ABEB" stroke-width="0.15" stroke-miterlimit="10" x1="1.813" y1="94.813" x2="121.133" y2="-24.506"/>
				
					<line fill="none" stroke="#00ABEB" stroke-width="0.15" stroke-miterlimit="10" x1="4.648" y1="94.813" x2="123.968" y2="-24.506"/>
				
					<line fill="none" stroke="#00ABEB" stroke-width="0.15" stroke-miterlimit="10" x1="7.483" y1="94.813" x2="126.803" y2="-24.506"/>
				
					<line fill="none" stroke="#00ABEB" stroke-width="0.15" stroke-miterlimit="10" x1="10.317" y1="94.813" x2="129.637" y2="-24.506"/>
				
					<line fill="none" stroke="#00ABEB" stroke-width="0.15" stroke-miterlimit="10" x1="13.152" y1="94.813" x2="132.472" y2="-24.506"/>
				
					<line fill="none" stroke="#00ABEB" stroke-width="0.15" stroke-miterlimit="10" x1="15.987" y1="94.813" x2="135.307" y2="-24.506"/>
				
					<line fill="none" stroke="#00ABEB" stroke-width="0.15" stroke-miterlimit="10" x1="18.821" y1="94.813" x2="138.141" y2="-24.506"/>
				
					<line fill="none" stroke="#00ABEB" stroke-width="0.15" stroke-miterlimit="10" x1="21.656" y1="94.813" x2="140.976" y2="-24.506"/>
				
					<line fill="none" stroke="#00ABEB" stroke-width="0.15" stroke-miterlimit="10" x1="24.491" y1="94.813" x2="143.811" y2="-24.506"/>
				
					<line fill="none" stroke="#00ABEB" stroke-width="0.15" stroke-miterlimit="10" x1="27.325" y1="94.813" x2="146.645" y2="-24.506"/>
				
					<line fill="none" stroke="#00ABEB" stroke-width="0.15" stroke-miterlimit="10" x1="30.16" y1="94.813" x2="149.48" y2="-24.506"/>
				
					<line fill="none" stroke="#00ABEB" stroke-width="0.15" stroke-miterlimit="10" x1="32.995" y1="94.813" x2="152.315" y2="-24.506"/>
				
					<line fill="none" stroke="#00ABEB" stroke-width="0.15" stroke-miterlimit="10" x1="35.829" y1="94.813" x2="155.149" y2="-24.506"/>
				
					<line fill="none" stroke="#00ABEB" stroke-width="0.15" stroke-miterlimit="10" x1="38.664" y1="94.813" x2="157.984" y2="-24.506"/>
				
					<line fill="none" stroke="#00ABEB" stroke-width="0.15" stroke-miterlimit="10" x1="41.499" y1="94.813" x2="160.819" y2="-24.506"/>
				
					<line fill="none" stroke="#00ABEB" stroke-width="0.15" stroke-miterlimit="10" x1="44.333" y1="94.813" x2="163.653" y2="-24.506"/>
				
					<line fill="none" stroke="#00ABEB" stroke-width="0.15" stroke-miterlimit="10" x1="47.168" y1="94.813" x2="166.488" y2="-24.506"/>
				
					<line fill="none" stroke="#00ABEB" stroke-width="0.15" stroke-miterlimit="10" x1="50.002" y1="94.813" x2="169.322" y2="-24.506"/>
				
					<line fill="none" stroke="#00ABEB" stroke-width="0.15" stroke-miterlimit="10" x1="52.837" y1="94.813" x2="172.157" y2="-24.506"/>
				
					<line fill="none" stroke="#00ABEB" stroke-width="0.15" stroke-miterlimit="10" x1="55.672" y1="94.813" x2="174.992" y2="-24.506"/>
				
					<line fill="none" stroke="#00ABEB" stroke-width="0.15" stroke-miterlimit="10" x1="58.506" y1="94.813" x2="177.826" y2="-24.506"/>
				
					<line fill="none" stroke="#00ABEB" stroke-width="0.15" stroke-miterlimit="10" x1="61.341" y1="94.813" x2="180.661" y2="-24.506"/>
				
					<line fill="none" stroke="#00ABEB" stroke-width="0.15" stroke-miterlimit="10" x1="64.176" y1="94.813" x2="183.496" y2="-24.506"/>
				
					<line fill="none" stroke="#00ABEB" stroke-width="0.15" stroke-miterlimit="10" x1="67.01" y1="94.813" x2="186.33" y2="-24.506"/>
			</g>
			<g id="Horizontal_5_mm_00000011735556503592991880000008134099091165005186_">
				
					<line fill="none" stroke="#00ABEB" stroke-width="0.3" stroke-miterlimit="10" x1="-160.121" y1="94.823" x2="66.995" y2="94.823"/>
				
					<line fill="none" stroke="#00ABEB" stroke-width="0.3" stroke-miterlimit="10" x1="-150.181" y1="84.884" x2="76.935" y2="84.884"/>
				
					<line fill="none" stroke="#00ABEB" stroke-width="0.3" stroke-miterlimit="10" x1="-140.241" y1="74.944" x2="86.874" y2="74.944"/>
				
					<line fill="none" stroke="#00ABEB" stroke-width="0.3" stroke-miterlimit="10" x1="-130.301" y1="65.004" x2="96.815" y2="65.004"/>
				
					<line fill="none" stroke="#00ABEB" stroke-width="0.3" stroke-miterlimit="10" x1="-120.362" y1="55.064" x2="106.754" y2="55.064"/>
				
					<line fill="none" stroke="#00ABEB" stroke-width="0.3" stroke-miterlimit="10" x1="-110.422" y1="45.125" x2="116.694" y2="45.125"/>
				
					<line fill="none" stroke="#00ABEB" stroke-width="0.3" stroke-miterlimit="10" x1="-100.482" y1="35.185" x2="126.633" y2="35.185"/>
				
					<line fill="none" stroke="#00ABEB" stroke-width="0.3" stroke-miterlimit="10" x1="-90.542" y1="25.245" x2="136.573" y2="25.245"/>
				
					<line fill="none" stroke="#00ABEB" stroke-width="0.3" stroke-miterlimit="10" x1="-80.602" y1="15.305" x2="146.513" y2="15.305"/>
				
					<line fill="none" stroke="#00ABEB" stroke-width="0.3" stroke-miterlimit="10" x1="-70.663" y1="5.366" x2="156.453" y2="5.366"/>
				
					<line fill="none" stroke="#00ABEB" stroke-width="0.3" stroke-miterlimit="10" x1="-60.724" y1="-4.573" x2="166.392" y2="-4.573"/>
			</g>
			<g id="Vertical_5_mm_00000064346364918789686960000003233481195482251947_">
				
					<line fill="none" stroke="#00ABEB" stroke-width="0.3" stroke-miterlimit="10" x1="-159.761" y1="94.813" x2="-40.248" y2="-24.699"/>
				
					<line fill="none" stroke="#00ABEB" stroke-width="0.3" stroke-miterlimit="10" x1="-145.588" y1="94.813" x2="-26.075" y2="-24.699"/>
				
					<line fill="none" stroke="#00ABEB" stroke-width="0.3" stroke-miterlimit="10" x1="-131.415" y1="94.813" x2="-11.902" y2="-24.699"/>
				
					<line fill="none" stroke="#00ABEB" stroke-width="0.3" stroke-miterlimit="10" x1="-117.242" y1="94.813" x2="2.271" y2="-24.699"/>
				
					<line fill="none" stroke="#00ABEB" stroke-width="0.3" stroke-miterlimit="10" x1="-103.068" y1="94.813" x2="16.445" y2="-24.699"/>
				
					<line fill="none" stroke="#00ABEB" stroke-width="0.3" stroke-miterlimit="10" x1="-88.895" y1="94.813" x2="30.618" y2="-24.699"/>
				
					<line fill="none" stroke="#00ABEB" stroke-width="0.3" stroke-miterlimit="10" x1="-74.722" y1="94.813" x2="44.791" y2="-24.699"/>
				
					<line fill="none" stroke="#00ABEB" stroke-width="0.3" stroke-miterlimit="10" x1="-60.549" y1="94.813" x2="58.964" y2="-24.699"/>
				
					<line fill="none" stroke="#00ABEB" stroke-width="0.3" stroke-miterlimit="10" x1="-46.376" y1="94.813" x2="73.137" y2="-24.699"/>
				
					<line fill="none" stroke="#00ABEB" stroke-width="0.3" stroke-miterlimit="10" x1="-32.202" y1="94.813" x2="87.311" y2="-24.699"/>
				
					<line fill="none" stroke="#00ABEB" stroke-width="0.3" stroke-miterlimit="10" x1="-18.029" y1="94.813" x2="101.484" y2="-24.699"/>
				
					<line fill="none" stroke="#00ABEB" stroke-width="0.3" stroke-miterlimit="10" x1="-3.856" y1="94.813" x2="115.657" y2="-24.699"/>
				
					<line fill="none" stroke="#00ABEB" stroke-width="0.3" stroke-miterlimit="10" x1="10.317" y1="94.813" x2="129.83" y2="-24.699"/>
				
					<line fill="none" stroke="#00ABEB" stroke-width="0.3" stroke-miterlimit="10" x1="24.491" y1="94.813" x2="144.004" y2="-24.699"/>
				
					<line fill="none" stroke="#00ABEB" stroke-width="0.3" stroke-miterlimit="10" x1="38.664" y1="94.813" x2="158.177" y2="-24.699"/>
				
					<line fill="none" stroke="#00ABEB" stroke-width="0.3" stroke-miterlimit="10" x1="52.837" y1="94.813" x2="172.35" y2="-24.699"/>
				
					<line fill="none" stroke="#00ABEB" stroke-width="0.3" stroke-miterlimit="10" x1="67.01" y1="94.813" x2="186.523" y2="-24.699"/>
			</g>
			<g id="Horizontal_10_mm_00000163045836177147705350000008480455355013810362_">
				
					<line id="_x31_9_00000057116790517712807720000015084113881736219806_" fill="none" stroke="#00ABEB" stroke-width="0.7" stroke-miterlimit="10" x1="-160.121" y1="94.823" x2="66.995" y2="94.823"/>
				
					<line id="_x32_0_00000024685878617286333290000013167547815532084100_" fill="none" stroke="#00ABEB" stroke-width="0.7" stroke-miterlimit="10" x1="-140.241" y1="74.944" x2="86.874" y2="74.944"/>
				
					<line id="_x32_1_00000138564813020868535020000012777939180148238773_" fill="none" stroke="#00ABEB" stroke-width="0.7" stroke-miterlimit="10" x1="-120.362" y1="55.064" x2="106.754" y2="55.064"/>
				
					<line id="_x32_2_00000052807586205252870140000014502512662559454639_" fill="none" stroke="#00ABEB" stroke-width="0.7" stroke-miterlimit="10" x1="-100.482" y1="35.185" x2="126.633" y2="35.185"/>
				
					<line id="_x32_3_00000051376893246677475670000009295515732899575694_" fill="none" stroke="#00ABEB" stroke-width="0.7" stroke-miterlimit="10" x1="-80.602" y1="15.305" x2="146.513" y2="15.305"/>
				
					<line id="_x32_4_00000099657911357833521510000007853591198542098087_" fill="none" stroke="#00ABEB" stroke-width="0.7" stroke-miterlimit="10" x1="-60.724" y1="-4.573" x2="166.392" y2="-4.573"/>
				
					<line id="_x32_5_00000155127691660191171140000008292164438978366870_" fill="none" stroke="#00ABEB" stroke-width="0.7" stroke-miterlimit="10" x1="-40.844" y1="-24.453" x2="186.272" y2="-24.453"/>
			</g>
			<g id="Vertical_10_mm_00000134969164297783457920000010833503864539426239_">
				
					<line id="_x30__00000151539528360119995570000005083818057555393183_" fill="none" stroke="#00ABEB" stroke-width="0.7" stroke-miterlimit="10" x1="-159.761" y1="94.813" x2="-40.248" y2="-24.699"/>
				
					<line id="_x31__00000021823889366233599640000011971139016478256513_" fill="none" stroke="#00ABEB" stroke-width="0.7" stroke-miterlimit="10" x1="-131.415" y1="94.813" x2="-11.902" y2="-24.699"/>
				
					<line id="_x32__00000071550223824624162640000006130814236846722696_" fill="none" stroke="#00ABEB" stroke-width="0.7" stroke-miterlimit="10" x1="-103.068" y1="94.813" x2="16.445" y2="-24.699"/>
				
					<line id="_x33__00000042015976804734918030000005045165563697445304_" fill="none" stroke="#00ABEB" stroke-width="0.7" stroke-miterlimit="10" x1="-74.722" y1="94.813" x2="44.791" y2="-24.699"/>
				
					<line id="_x34__00000081637789328126233800000002486991317463304126_" fill="none" stroke="#00ABEB" stroke-width="0.7" stroke-miterlimit="10" x1="-46.376" y1="94.813" x2="73.137" y2="-24.699"/>
				
					<line id="_x35__00000051353690731882489090000004794744233340785543_" fill="none" stroke="#00ABEB" stroke-width="0.7" stroke-miterlimit="10" x1="-18.029" y1="94.813" x2="101.484" y2="-24.699"/>
				
					<line id="_x36__00000011745311307505536660000010485558803267122343_" fill="none" stroke="#00ABEB" stroke-width="0.7" stroke-miterlimit="10" x1="10.317" y1="94.813" x2="129.83" y2="-24.699"/>
				
					<line id="_x37__00000045602144989735358580000003937589459941247142_" fill="none" stroke="#00ABEB" stroke-width="0.7" stroke-miterlimit="10" x1="38.664" y1="94.813" x2="158.177" y2="-24.699"/>
				
					<line id="_x38__00000047029857857898873560000014194396358708286345_" fill="none" stroke="#00ABEB" stroke-width="0.7" stroke-miterlimit="10" x1="67.01" y1="94.813" x2="186.523" y2="-24.699"/>
			</g>
		</g>
	</g>
</g>
<g id="Axis">
	<g id="lines">
		<g>
			<g>
				
					<line fill="none" stroke="#000000" stroke-width="0.2" stroke-miterlimit="10" x1="11.734" y1="35.175" x2="11.734" y2="2.445"/>
				<g>
					<polygon points="12.475,3.007 11.734,2.693 10.994,3.007 11.734,1.252 					"/>
				</g>
			</g>
		</g>
		<g>
			<g>
				
					<line fill="none" stroke="#000000" stroke-width="0.2" stroke-miterlimit="10" x1="11.734" y1="35.175" x2="51.731" y2="35.175"/>
				<g>
					<polygon points="51.169,35.916 51.484,35.175 51.169,34.435 52.925,35.175 					"/>
				</g>
			</g>
		</g>
		<g>
			<g>
				
					<line fill="none" stroke="#000000" stroke-width="0.2" stroke-miterlimit="10" x1="11.734" y1="35.175" x2="5.213" y2="41.696"/>
				<g>
					<polygon points="5.087,40.776 5.388,41.522 6.134,41.823 4.369,42.541 					"/>
				</g>
			</g>
		</g>
		<path opacity="0.05" fill="#FF0000" d="M45.02,22.239c-5.973,5.587-19.42,5.245-26.947,2.408
			c-4.601-1.734-3.841-11.598-1.663-14.98c2.047-3.179,8.399-3.7,13.872-2.322c5.587,1.407,10.717,0.371,12.908,3.43
			C45.532,14.045,47.957,19.491,45.02,22.239z"/>
		<path fill="none" stroke="#FF0000" stroke-width="0.2" stroke-miterlimit="10" d="M45.02,22.239
			c-5.973,5.587-19.42,5.245-26.947,2.408c-4.601-1.734-3.841-11.598-1.663-14.98c2.047-3.179,8.399-3.7,13.872-2.322
			c5.587,1.407,10.717,0.371,12.908,3.43C45.532,14.045,47.957,19.491,45.02,22.239z"/>
		<g>
			
				<ellipse fill="none" stroke="#FF0000" stroke-width="0.2" stroke-miterlimit="10" stroke-dasharray="2.9077,2.9077" cx="30.446" cy="17.609" rx="15.719" ry="1.672"/>
		</g>
		<path fill="none" stroke="#FF0000" stroke-width="0.2" stroke-miterlimit="10" d="M46.165,17.609
			c0,0.924-7.037,1.672-15.719,1.672s-15.719-0.749-15.719-1.672"/>
		<g>
			
				<ellipse fill="none" stroke="#FF0000" stroke-width="0.2" stroke-miterlimit="10" stroke-dasharray="2.8408,2.8408" cx="29.36" cy="16.915" rx="1.172" ry="9.735"/>
		</g>
		<path fill="none" stroke="#FF0000" stroke-width="0.2" stroke-miterlimit="10" d="M29.36,26.65c0.647,0,1.172-4.359,1.172-9.735
			S30.007,7.18,29.36,7.18"/>
	</g>
	<g id="names">
		<g>
			<path d="M53.98,38.272c0.339-0.564,0.487-0.852,0.487-1.027c0-0.056-0.028-0.08-0.104-0.128c-0.08-0.052-0.104-0.092-0.104-0.156
				c0-0.088,0.068-0.148,0.16-0.148c0.12,0,0.208,0.1,0.208,0.22c0,0.228-0.192,0.667-0.524,1.219
				c-0.416,0.688-0.843,1.147-1.071,1.147c-0.12,0-0.204-0.068-0.204-0.172c0-0.088,0.068-0.16,0.156-0.16
				c0.14,0,0.14,0.112,0.244,0.112c0.052,0,0.1-0.032,0.192-0.132c0.072-0.076,0.252-0.312,0.284-0.364
				c0.024-0.048,0.04-0.096,0.04-0.14c0-0.16-0.22-1.055-0.328-1.327c-0.076-0.196-0.148-0.256-0.308-0.256
				c-0.044,0-0.08,0.004-0.124,0.016v-0.068c0.044-0.008,0.088-0.016,0.128-0.024c0.08-0.016,0.212-0.04,0.428-0.072h0.016
				c0.06,0,0.271,0.664,0.34,1.02L53.98,38.272z"/>
		</g>
		<g>
			<path d="M8.845,3.13c0.232,0.052,0.32,0.096,0.48,0.332c0.104,0.152,0.18,0.2,0.28,0.2c0.064,0,0.108-0.024,0.108-0.06
				c0-0.016-0.008-0.036-0.02-0.06C9.668,3.494,9.66,3.462,9.66,3.43c0.004-0.068,0.068-0.136,0.132-0.136
				c0.083,0,0.14,0.06,0.14,0.148c0,0.16-0.148,0.304-0.372,0.304c-0.116,0-0.252-0.052-0.452-0.176
				C8.921,3.454,8.793,3.402,8.689,3.402c-0.064,0-0.116,0.02-0.18,0.072L8.473,3.438l1.239-1.487H9.168
				c-0.208,0-0.284,0.036-0.364,0.24L8.74,2.175l0.128-0.464H10v0.044L8.845,3.13z"/>
		</g>
		<g>
			<path d="M2.54,40.97c0.279-0.428,0.428-0.572,0.604-0.572c0.096,0,0.164,0.06,0.164,0.148c0,0.084-0.057,0.144-0.137,0.144
				c-0.075,0-0.111-0.068-0.207-0.068c-0.072,0-0.216,0.176-0.393,0.483c0,0.028,0.009,0.084,0.032,0.18l0.128,0.536
				c0.028,0.112,0.064,0.164,0.12,0.164c0.052,0,0.096-0.04,0.188-0.16c0.036-0.048,0.053-0.072,0.084-0.112l0.061,0.036
				c-0.232,0.36-0.336,0.456-0.488,0.456c-0.128,0-0.188-0.072-0.235-0.272l-0.116-0.476l-0.352,0.476
				c-0.176,0.236-0.256,0.272-0.38,0.272s-0.2-0.064-0.2-0.168c0-0.08,0.057-0.144,0.136-0.144c0.036,0,0.076,0.016,0.128,0.044
				c0.04,0.024,0.08,0.036,0.104,0.036c0.044,0,0.12-0.076,0.204-0.196l0.327-0.464L2.2,40.818c-0.057-0.24-0.084-0.272-0.185-0.272
				c-0.031,0-0.079,0.008-0.155,0.028l-0.072,0.02L1.777,40.53l0.044-0.016c0.244-0.088,0.376-0.116,0.468-0.116
				c0.1,0,0.147,0.072,0.204,0.344L2.54,40.97z"/>
		</g>
	</g>
</g>
<g id="Layer_6">
	<g>
		<path fill="#FF0000" d="M48.723,21.084l-0.071-0.012c0-0.408-0.086-0.652-0.467-0.652c-0.271,0-0.439,0.148-0.439,0.4
			c0,0.196,0.031,0.26,0.388,0.624c0.357,0.368,0.443,0.54,0.443,0.8c0,0.456-0.341,0.779-0.792,0.779
			c-0.122,0-0.228-0.028-0.408-0.092c-0.106-0.04-0.141-0.048-0.185-0.048c-0.078,0-0.141,0.036-0.168,0.128h-0.07l0.133-0.896
			l0.078,0.008c-0.008,0.036-0.008,0.064-0.008,0.092c0,0.392,0.235,0.667,0.565,0.667c0.302,0,0.514-0.208,0.514-0.512
			c0-0.172-0.055-0.292-0.235-0.492l-0.153-0.168c-0.055-0.06-0.102-0.116-0.153-0.168c-0.235-0.256-0.294-0.384-0.294-0.6
			c0-0.42,0.322-0.656,0.698-0.656c0.122,0,0.251,0.02,0.333,0.056c0.083,0.032,0.129,0.044,0.181,0.044
			c0.086,0,0.122-0.02,0.176-0.104h0.09L48.723,21.084z"/>
	</g>
	<g>
		<path d="M25.344,20.094c0.686,0,1.145,0.375,1.145,1.075c0,0.496-0.243,0.899-0.627,1.203c-0.286,0.228-0.683,0.332-1.141,0.332
			h-1.008v-0.064c0.219-0.04,0.259-0.068,0.321-0.304l0.479-1.779c0.027-0.1,0.043-0.176,0.043-0.236
			c0-0.108-0.059-0.156-0.298-0.164v-0.064H25.344z M24.496,22.057c-0.067,0.248-0.086,0.328-0.086,0.379
			c0,0.104,0.086,0.148,0.267,0.148c0.396,0,0.702-0.12,0.945-0.359c0.278-0.276,0.431-0.748,0.431-1.151
			c0-0.32-0.114-0.572-0.306-0.72c-0.122-0.092-0.286-0.14-0.514-0.14c-0.149,0-0.235,0.016-0.274,0.156L24.496,22.057z"/>
	</g>
	<g>
	</g>
</g>
</svg>
