<?xml version="1.0" encoding="utf-8"?>
<!-- Generator: Adobe Illustrator 25.4.1, SVG Export Plug-In . SVG Version: 6.00 Build 0)  -->
<svg version="1.1" xmlns="http://www.w3.org/2000/svg" xmlns:xlink="http://www.w3.org/1999/xlink" x="0px" y="0px"
	 viewBox="0 0 54.522 39.791" enable-background="new 0 0 54.522 39.791" xml:space="preserve">
<g id="Graph_paper_slanted" opacity="0.5">
	<g id="Clipped_grid_00000003068028900943026870000011536296927355263674_">
		<defs>
			<polygon id="SVGID_1_" points="45.718,50.16 -37.834,50.16 6.113,6.085 89.664,6.085 			"/>
		</defs>
		<clipPath id="SVGID_00000027570485943226931740000007420654546109255583_">
			<use xlink:href="#SVGID_1_"  overflow="visible"/>
		</clipPath>
		
			<g id="Grid_00000142891597197125820610000009767860333217090727_" opacity="0.25" clip-path="url(#SVGID_00000027570485943226931740000007420654546109255583_)">
			<g id="Horizontal_1_mm_00000151508609497893311650000018408800186222605470_">
				
					<line fill="none" stroke="#00ABEB" stroke-width="0.15" stroke-miterlimit="10" x1="-44.875" y1="-28.711" x2="181.966" y2="-28.711"/>
				
					<line fill="none" stroke="#00ABEB" stroke-width="0.15" stroke-miterlimit="10" x1="-42.887" y1="-30.699" x2="183.954" y2="-30.699"/>
				
					<line fill="none" stroke="#00ABEB" stroke-width="0.15" stroke-miterlimit="10" x1="-162.164" y1="88.578" x2="64.677" y2="88.578"/>
				
					<line fill="none" stroke="#00ABEB" stroke-width="0.15" stroke-miterlimit="10" x1="-160.176" y1="86.589" x2="66.665" y2="86.589"/>
				
					<line fill="none" stroke="#00ABEB" stroke-width="0.15" stroke-miterlimit="10" x1="-158.188" y1="84.602" x2="68.653" y2="84.602"/>
				
					<line fill="none" stroke="#00ABEB" stroke-width="0.15" stroke-miterlimit="10" x1="-156.2" y1="82.614" x2="70.641" y2="82.614"/>
				
					<line fill="none" stroke="#00ABEB" stroke-width="0.15" stroke-miterlimit="10" x1="-154.212" y1="80.626" x2="72.629" y2="80.626"/>
				
					<line fill="none" stroke="#00ABEB" stroke-width="0.15" stroke-miterlimit="10" x1="-152.224" y1="78.638" x2="74.616" y2="78.638"/>
				
					<line fill="none" stroke="#00ABEB" stroke-width="0.15" stroke-miterlimit="10" x1="-150.236" y1="76.65" x2="76.605" y2="76.65"/>
				
					<line fill="none" stroke="#00ABEB" stroke-width="0.15" stroke-miterlimit="10" x1="-148.249" y1="74.663" x2="78.592" y2="74.663"/>
				
					<line fill="none" stroke="#00ABEB" stroke-width="0.15" stroke-miterlimit="10" x1="-146.26" y1="72.674" x2="80.581" y2="72.674"/>
				
					<line fill="none" stroke="#00ABEB" stroke-width="0.15" stroke-miterlimit="10" x1="-144.272" y1="70.686" x2="82.569" y2="70.686"/>
				
					<line fill="none" stroke="#00ABEB" stroke-width="0.15" stroke-miterlimit="10" x1="-142.285" y1="68.698" x2="84.556" y2="68.698"/>
				
					<line fill="none" stroke="#00ABEB" stroke-width="0.15" stroke-miterlimit="10" x1="-140.296" y1="66.71" x2="86.544" y2="66.71"/>
				
					<line fill="none" stroke="#00ABEB" stroke-width="0.15" stroke-miterlimit="10" x1="-138.308" y1="64.722" x2="88.533" y2="64.722"/>
				
					<line fill="none" stroke="#00ABEB" stroke-width="0.15" stroke-miterlimit="10" x1="-136.321" y1="62.735" x2="90.52" y2="62.735"/>
				
					<line fill="none" stroke="#00ABEB" stroke-width="0.15" stroke-miterlimit="10" x1="-134.333" y1="60.746" x2="92.508" y2="60.746"/>
				
					<line fill="none" stroke="#00ABEB" stroke-width="0.15" stroke-miterlimit="10" x1="-132.345" y1="58.758" x2="94.496" y2="58.758"/>
				
					<line fill="none" stroke="#00ABEB" stroke-width="0.15" stroke-miterlimit="10" x1="-130.357" y1="56.771" x2="96.484" y2="56.771"/>
				
					<line fill="none" stroke="#00ABEB" stroke-width="0.15" stroke-miterlimit="10" x1="-128.369" y1="54.783" x2="98.472" y2="54.783"/>
				
					<line fill="none" stroke="#00ABEB" stroke-width="0.15" stroke-miterlimit="10" x1="-126.381" y1="52.795" x2="100.46" y2="52.795"/>
				
					<line fill="none" stroke="#00ABEB" stroke-width="0.15" stroke-miterlimit="10" x1="-124.393" y1="50.807" x2="102.448" y2="50.807"/>
				
					<line fill="none" stroke="#00ABEB" stroke-width="0.15" stroke-miterlimit="10" x1="-122.405" y1="48.819" x2="104.436" y2="48.819"/>
				
					<line fill="none" stroke="#00ABEB" stroke-width="0.15" stroke-miterlimit="10" x1="-120.417" y1="46.83" x2="106.424" y2="46.83"/>
				
					<line fill="none" stroke="#00ABEB" stroke-width="0.15" stroke-miterlimit="10" x1="-118.429" y1="44.843" x2="108.412" y2="44.843"/>
				
					<line fill="none" stroke="#00ABEB" stroke-width="0.15" stroke-miterlimit="10" x1="-116.441" y1="42.855" x2="110.4" y2="42.855"/>
				
					<line fill="none" stroke="#00ABEB" stroke-width="0.15" stroke-miterlimit="10" x1="-114.453" y1="40.867" x2="112.387" y2="40.867"/>
				
					<line fill="none" stroke="#00ABEB" stroke-width="0.15" stroke-miterlimit="10" x1="-112.465" y1="38.879" x2="114.376" y2="38.879"/>
				
					<line fill="none" stroke="#00ABEB" stroke-width="0.15" stroke-miterlimit="10" x1="-110.477" y1="36.891" x2="116.364" y2="36.891"/>
				
					<line fill="none" stroke="#00ABEB" stroke-width="0.15" stroke-miterlimit="10" x1="-108.49" y1="34.904" x2="118.351" y2="34.904"/>
				
					<line fill="none" stroke="#00ABEB" stroke-width="0.15" stroke-miterlimit="10" x1="-106.501" y1="32.915" x2="120.339" y2="32.915"/>
				
					<line fill="none" stroke="#00ABEB" stroke-width="0.15" stroke-miterlimit="10" x1="-104.513" y1="30.927" x2="122.328" y2="30.927"/>
				
					<line fill="none" stroke="#00ABEB" stroke-width="0.15" stroke-miterlimit="10" x1="-102.526" y1="28.94" x2="124.315" y2="28.94"/>
				
					<line fill="none" stroke="#00ABEB" stroke-width="0.15" stroke-miterlimit="10" x1="-100.538" y1="26.952" x2="126.303" y2="26.952"/>
				
					<line fill="none" stroke="#00ABEB" stroke-width="0.15" stroke-miterlimit="10" x1="-98.549" y1="24.964" x2="128.291" y2="24.964"/>
				
					<line fill="none" stroke="#00ABEB" stroke-width="0.15" stroke-miterlimit="10" x1="-96.562" y1="22.976" x2="130.279" y2="22.976"/>
				
					<line fill="none" stroke="#00ABEB" stroke-width="0.15" stroke-miterlimit="10" x1="-94.574" y1="20.988" x2="132.267" y2="20.988"/>
				<line fill="none" stroke="#00ABEB" stroke-width="0.15" stroke-miterlimit="10" x1="-92.586" y1="19" x2="134.255" y2="19"/>
				
					<line fill="none" stroke="#00ABEB" stroke-width="0.15" stroke-miterlimit="10" x1="-90.598" y1="17.012" x2="136.243" y2="17.012"/>
				
					<line fill="none" stroke="#00ABEB" stroke-width="0.15" stroke-miterlimit="10" x1="-88.61" y1="15.024" x2="138.231" y2="15.024"/>
				
					<line fill="none" stroke="#00ABEB" stroke-width="0.15" stroke-miterlimit="10" x1="-86.622" y1="13.036" x2="140.219" y2="13.036"/>
				
					<line fill="none" stroke="#00ABEB" stroke-width="0.15" stroke-miterlimit="10" x1="-84.634" y1="11.048" x2="142.207" y2="11.048"/>
				
					<line fill="none" stroke="#00ABEB" stroke-width="0.15" stroke-miterlimit="10" x1="-82.646" y1="9.06" x2="144.195" y2="9.06"/>
				
					<line fill="none" stroke="#00ABEB" stroke-width="0.15" stroke-miterlimit="10" x1="-80.658" y1="7.073" x2="146.182" y2="7.073"/>
				
					<line fill="none" stroke="#00ABEB" stroke-width="0.15" stroke-miterlimit="10" x1="-78.67" y1="5.084" x2="148.171" y2="5.084"/>
				
					<line fill="none" stroke="#00ABEB" stroke-width="0.15" stroke-miterlimit="10" x1="-76.682" y1="3.096" x2="150.159" y2="3.096"/>
				
					<line fill="none" stroke="#00ABEB" stroke-width="0.15" stroke-miterlimit="10" x1="-74.695" y1="1.109" x2="152.146" y2="1.109"/>
				
					<line fill="none" stroke="#00ABEB" stroke-width="0.15" stroke-miterlimit="10" x1="-72.706" y1="-0.879" x2="154.134" y2="-0.879"/>
				
					<line fill="none" stroke="#00ABEB" stroke-width="0.15" stroke-miterlimit="10" x1="-70.718" y1="-2.868" x2="156.123" y2="-2.868"/>
				
					<line fill="none" stroke="#00ABEB" stroke-width="0.15" stroke-miterlimit="10" x1="-68.731" y1="-4.855" x2="158.11" y2="-4.855"/>
				
					<line fill="none" stroke="#00ABEB" stroke-width="0.15" stroke-miterlimit="10" x1="-66.743" y1="-6.843" x2="160.098" y2="-6.843"/>
				
					<line fill="none" stroke="#00ABEB" stroke-width="0.15" stroke-miterlimit="10" x1="-64.754" y1="-8.831" x2="162.086" y2="-8.831"/>
				
					<line fill="none" stroke="#00ABEB" stroke-width="0.15" stroke-miterlimit="10" x1="-62.767" y1="-10.819" x2="164.074" y2="-10.819"/>
				
					<line fill="none" stroke="#00ABEB" stroke-width="0.15" stroke-miterlimit="10" x1="-60.779" y1="-12.807" x2="166.062" y2="-12.807"/>
				
					<line fill="none" stroke="#00ABEB" stroke-width="0.15" stroke-miterlimit="10" x1="-58.791" y1="-14.795" x2="168.05" y2="-14.795"/>
				
					<line fill="none" stroke="#00ABEB" stroke-width="0.15" stroke-miterlimit="10" x1="-56.803" y1="-16.783" x2="170.038" y2="-16.783"/>
				
					<line fill="none" stroke="#00ABEB" stroke-width="0.15" stroke-miterlimit="10" x1="-54.815" y1="-18.771" x2="172.026" y2="-18.771"/>
				
					<line fill="none" stroke="#00ABEB" stroke-width="0.15" stroke-miterlimit="10" x1="-52.827" y1="-20.759" x2="174.014" y2="-20.759"/>
				
					<line fill="none" stroke="#00ABEB" stroke-width="0.15" stroke-miterlimit="10" x1="-50.839" y1="-22.747" x2="176.002" y2="-22.747"/>
				
					<line fill="none" stroke="#00ABEB" stroke-width="0.15" stroke-miterlimit="10" x1="-48.851" y1="-24.735" x2="177.99" y2="-24.735"/>
				
					<line fill="none" stroke="#00ABEB" stroke-width="0.15" stroke-miterlimit="10" x1="-46.863" y1="-26.722" x2="179.978" y2="-26.722"/>
			</g>
			<g id="Vertical_1_mm_00000181073523592228201180000012361058669048395659_">
				<g>
					
						<line fill="none" stroke="#00ABEB" stroke-width="0.15" stroke-miterlimit="10" x1="-162.079" y1="88.568" x2="-42.759" y2="-30.751"/>
				</g>
				
					<line fill="none" stroke="#00ABEB" stroke-width="0.15" stroke-miterlimit="10" x1="-159.245" y1="88.568" x2="-39.925" y2="-30.751"/>
				
					<line fill="none" stroke="#00ABEB" stroke-width="0.15" stroke-miterlimit="10" x1="-156.41" y1="88.568" x2="-37.09" y2="-30.751"/>
				
					<line fill="none" stroke="#00ABEB" stroke-width="0.15" stroke-miterlimit="10" x1="-153.575" y1="88.568" x2="-34.255" y2="-30.751"/>
				
					<line fill="none" stroke="#00ABEB" stroke-width="0.15" stroke-miterlimit="10" x1="-150.741" y1="88.568" x2="-31.421" y2="-30.751"/>
				
					<line fill="none" stroke="#00ABEB" stroke-width="0.15" stroke-miterlimit="10" x1="-147.906" y1="88.568" x2="-28.586" y2="-30.751"/>
				
					<line fill="none" stroke="#00ABEB" stroke-width="0.15" stroke-miterlimit="10" x1="-145.071" y1="88.568" x2="-25.751" y2="-30.751"/>
				
					<line fill="none" stroke="#00ABEB" stroke-width="0.15" stroke-miterlimit="10" x1="-142.237" y1="88.568" x2="-22.917" y2="-30.751"/>
				
					<line fill="none" stroke="#00ABEB" stroke-width="0.15" stroke-miterlimit="10" x1="-139.402" y1="88.568" x2="-20.082" y2="-30.751"/>
				
					<line fill="none" stroke="#00ABEB" stroke-width="0.15" stroke-miterlimit="10" x1="-136.568" y1="88.568" x2="-17.248" y2="-30.751"/>
				
					<line fill="none" stroke="#00ABEB" stroke-width="0.15" stroke-miterlimit="10" x1="-133.733" y1="88.568" x2="-14.413" y2="-30.751"/>
				
					<line fill="none" stroke="#00ABEB" stroke-width="0.15" stroke-miterlimit="10" x1="-130.898" y1="88.568" x2="-11.578" y2="-30.751"/>
				
					<line fill="none" stroke="#00ABEB" stroke-width="0.15" stroke-miterlimit="10" x1="-128.064" y1="88.568" x2="-8.744" y2="-30.751"/>
				
					<line fill="none" stroke="#00ABEB" stroke-width="0.15" stroke-miterlimit="10" x1="-125.229" y1="88.568" x2="-5.909" y2="-30.751"/>
				
					<line fill="none" stroke="#00ABEB" stroke-width="0.15" stroke-miterlimit="10" x1="-122.394" y1="88.568" x2="-3.074" y2="-30.751"/>
				
					<line fill="none" stroke="#00ABEB" stroke-width="0.15" stroke-miterlimit="10" x1="-119.56" y1="88.568" x2="-0.24" y2="-30.751"/>
				
					<line fill="none" stroke="#00ABEB" stroke-width="0.15" stroke-miterlimit="10" x1="-116.725" y1="88.568" x2="2.595" y2="-30.751"/>
				
					<line fill="none" stroke="#00ABEB" stroke-width="0.15" stroke-miterlimit="10" x1="-113.89" y1="88.568" x2="5.43" y2="-30.751"/>
				
					<line fill="none" stroke="#00ABEB" stroke-width="0.15" stroke-miterlimit="10" x1="-111.056" y1="88.568" x2="8.264" y2="-30.751"/>
				
					<line fill="none" stroke="#00ABEB" stroke-width="0.15" stroke-miterlimit="10" x1="-108.221" y1="88.568" x2="11.099" y2="-30.751"/>
				
					<line fill="none" stroke="#00ABEB" stroke-width="0.15" stroke-miterlimit="10" x1="-105.386" y1="88.568" x2="13.934" y2="-30.751"/>
				
					<line fill="none" stroke="#00ABEB" stroke-width="0.15" stroke-miterlimit="10" x1="-102.552" y1="88.568" x2="16.768" y2="-30.751"/>
				
					<line fill="none" stroke="#00ABEB" stroke-width="0.15" stroke-miterlimit="10" x1="-99.717" y1="88.568" x2="19.603" y2="-30.751"/>
				
					<line fill="none" stroke="#00ABEB" stroke-width="0.15" stroke-miterlimit="10" x1="-96.882" y1="88.568" x2="22.438" y2="-30.751"/>
				
					<line fill="none" stroke="#00ABEB" stroke-width="0.15" stroke-miterlimit="10" x1="-94.048" y1="88.568" x2="25.272" y2="-30.751"/>
				
					<line fill="none" stroke="#00ABEB" stroke-width="0.15" stroke-miterlimit="10" x1="-91.213" y1="88.568" x2="28.107" y2="-30.751"/>
				
					<line fill="none" stroke="#00ABEB" stroke-width="0.15" stroke-miterlimit="10" x1="-88.379" y1="88.568" x2="30.941" y2="-30.751"/>
				
					<line fill="none" stroke="#00ABEB" stroke-width="0.15" stroke-miterlimit="10" x1="-85.544" y1="88.568" x2="33.776" y2="-30.751"/>
				
					<line fill="none" stroke="#00ABEB" stroke-width="0.15" stroke-miterlimit="10" x1="-82.709" y1="88.568" x2="36.611" y2="-30.751"/>
				
					<line fill="none" stroke="#00ABEB" stroke-width="0.15" stroke-miterlimit="10" x1="-79.875" y1="88.568" x2="39.445" y2="-30.751"/>
				
					<line fill="none" stroke="#00ABEB" stroke-width="0.15" stroke-miterlimit="10" x1="-77.04" y1="88.568" x2="42.28" y2="-30.751"/>
				
					<line fill="none" stroke="#00ABEB" stroke-width="0.15" stroke-miterlimit="10" x1="-74.205" y1="88.568" x2="45.115" y2="-30.751"/>
				
					<line fill="none" stroke="#00ABEB" stroke-width="0.15" stroke-miterlimit="10" x1="-71.371" y1="88.568" x2="47.949" y2="-30.751"/>
				
					<line fill="none" stroke="#00ABEB" stroke-width="0.15" stroke-miterlimit="10" x1="-68.536" y1="88.568" x2="50.784" y2="-30.751"/>
				
					<line fill="none" stroke="#00ABEB" stroke-width="0.15" stroke-miterlimit="10" x1="-65.701" y1="88.568" x2="53.619" y2="-30.751"/>
				
					<line fill="none" stroke="#00ABEB" stroke-width="0.15" stroke-miterlimit="10" x1="-62.867" y1="88.568" x2="56.453" y2="-30.751"/>
				
					<line fill="none" stroke="#00ABEB" stroke-width="0.15" stroke-miterlimit="10" x1="-60.032" y1="88.568" x2="59.288" y2="-30.751"/>
				
					<line fill="none" stroke="#00ABEB" stroke-width="0.15" stroke-miterlimit="10" x1="-57.197" y1="88.568" x2="62.123" y2="-30.751"/>
				
					<line fill="none" stroke="#00ABEB" stroke-width="0.15" stroke-miterlimit="10" x1="-54.363" y1="88.568" x2="64.957" y2="-30.751"/>
				
					<line fill="none" stroke="#00ABEB" stroke-width="0.15" stroke-miterlimit="10" x1="-51.528" y1="88.568" x2="67.792" y2="-30.751"/>
				
					<line fill="none" stroke="#00ABEB" stroke-width="0.15" stroke-miterlimit="10" x1="-48.694" y1="88.568" x2="70.626" y2="-30.751"/>
				
					<line fill="none" stroke="#00ABEB" stroke-width="0.15" stroke-miterlimit="10" x1="-45.859" y1="88.568" x2="73.461" y2="-30.751"/>
				
					<line fill="none" stroke="#00ABEB" stroke-width="0.15" stroke-miterlimit="10" x1="-43.024" y1="88.568" x2="76.296" y2="-30.751"/>
				
					<line fill="none" stroke="#00ABEB" stroke-width="0.15" stroke-miterlimit="10" x1="-40.19" y1="88.568" x2="79.13" y2="-30.751"/>
				
					<line fill="none" stroke="#00ABEB" stroke-width="0.15" stroke-miterlimit="10" x1="-37.355" y1="88.568" x2="81.965" y2="-30.751"/>
				
					<line fill="none" stroke="#00ABEB" stroke-width="0.15" stroke-miterlimit="10" x1="-34.52" y1="88.568" x2="84.8" y2="-30.751"/>
				
					<line fill="none" stroke="#00ABEB" stroke-width="0.15" stroke-miterlimit="10" x1="-31.686" y1="88.568" x2="87.634" y2="-30.751"/>
				
					<line fill="none" stroke="#00ABEB" stroke-width="0.15" stroke-miterlimit="10" x1="-28.851" y1="88.568" x2="90.469" y2="-30.751"/>
				
					<line fill="none" stroke="#00ABEB" stroke-width="0.15" stroke-miterlimit="10" x1="-26.016" y1="88.568" x2="93.304" y2="-30.751"/>
				
					<line fill="none" stroke="#00ABEB" stroke-width="0.15" stroke-miterlimit="10" x1="-23.182" y1="88.568" x2="96.138" y2="-30.751"/>
				
					<line fill="none" stroke="#00ABEB" stroke-width="0.15" stroke-miterlimit="10" x1="-20.347" y1="88.568" x2="98.973" y2="-30.751"/>
				
					<line fill="none" stroke="#00ABEB" stroke-width="0.15" stroke-miterlimit="10" x1="-17.512" y1="88.568" x2="101.808" y2="-30.751"/>
				
					<line fill="none" stroke="#00ABEB" stroke-width="0.15" stroke-miterlimit="10" x1="-14.678" y1="88.568" x2="104.642" y2="-30.751"/>
				
					<line fill="none" stroke="#00ABEB" stroke-width="0.15" stroke-miterlimit="10" x1="-11.843" y1="88.568" x2="107.477" y2="-30.751"/>
				
					<line fill="none" stroke="#00ABEB" stroke-width="0.15" stroke-miterlimit="10" x1="-9.008" y1="88.568" x2="110.312" y2="-30.751"/>
				
					<line fill="none" stroke="#00ABEB" stroke-width="0.15" stroke-miterlimit="10" x1="-6.174" y1="88.568" x2="113.146" y2="-30.751"/>
				
					<line fill="none" stroke="#00ABEB" stroke-width="0.15" stroke-miterlimit="10" x1="-3.339" y1="88.568" x2="115.981" y2="-30.751"/>
				
					<line fill="none" stroke="#00ABEB" stroke-width="0.15" stroke-miterlimit="10" x1="-0.505" y1="88.568" x2="118.815" y2="-30.751"/>
				
					<line fill="none" stroke="#00ABEB" stroke-width="0.15" stroke-miterlimit="10" x1="2.33" y1="88.568" x2="121.65" y2="-30.751"/>
				
					<line fill="none" stroke="#00ABEB" stroke-width="0.15" stroke-miterlimit="10" x1="5.165" y1="88.568" x2="124.485" y2="-30.751"/>
				
					<line fill="none" stroke="#00ABEB" stroke-width="0.15" stroke-miterlimit="10" x1="7.999" y1="88.568" x2="127.319" y2="-30.751"/>
				
					<line fill="none" stroke="#00ABEB" stroke-width="0.15" stroke-miterlimit="10" x1="10.834" y1="88.568" x2="130.154" y2="-30.751"/>
				
					<line fill="none" stroke="#00ABEB" stroke-width="0.15" stroke-miterlimit="10" x1="13.669" y1="88.568" x2="132.989" y2="-30.751"/>
				
					<line fill="none" stroke="#00ABEB" stroke-width="0.15" stroke-miterlimit="10" x1="16.503" y1="88.568" x2="135.823" y2="-30.751"/>
				
					<line fill="none" stroke="#00ABEB" stroke-width="0.15" stroke-miterlimit="10" x1="19.338" y1="88.568" x2="138.658" y2="-30.751"/>
				
					<line fill="none" stroke="#00ABEB" stroke-width="0.15" stroke-miterlimit="10" x1="22.173" y1="88.568" x2="141.493" y2="-30.751"/>
				
					<line fill="none" stroke="#00ABEB" stroke-width="0.15" stroke-miterlimit="10" x1="25.007" y1="88.568" x2="144.327" y2="-30.751"/>
				
					<line fill="none" stroke="#00ABEB" stroke-width="0.15" stroke-miterlimit="10" x1="27.842" y1="88.568" x2="147.162" y2="-30.751"/>
				
					<line fill="none" stroke="#00ABEB" stroke-width="0.15" stroke-miterlimit="10" x1="30.677" y1="88.568" x2="149.997" y2="-30.751"/>
				
					<line fill="none" stroke="#00ABEB" stroke-width="0.15" stroke-miterlimit="10" x1="33.511" y1="88.568" x2="152.831" y2="-30.751"/>
				
					<line fill="none" stroke="#00ABEB" stroke-width="0.15" stroke-miterlimit="10" x1="36.346" y1="88.568" x2="155.666" y2="-30.751"/>
				
					<line fill="none" stroke="#00ABEB" stroke-width="0.15" stroke-miterlimit="10" x1="39.181" y1="88.568" x2="158.501" y2="-30.751"/>
				
					<line fill="none" stroke="#00ABEB" stroke-width="0.15" stroke-miterlimit="10" x1="42.015" y1="88.568" x2="161.335" y2="-30.751"/>
				
					<line fill="none" stroke="#00ABEB" stroke-width="0.15" stroke-miterlimit="10" x1="44.85" y1="88.568" x2="164.17" y2="-30.751"/>
				
					<line fill="none" stroke="#00ABEB" stroke-width="0.15" stroke-miterlimit="10" x1="47.684" y1="88.568" x2="167.004" y2="-30.751"/>
				
					<line fill="none" stroke="#00ABEB" stroke-width="0.15" stroke-miterlimit="10" x1="50.519" y1="88.568" x2="169.839" y2="-30.751"/>
				
					<line fill="none" stroke="#00ABEB" stroke-width="0.15" stroke-miterlimit="10" x1="53.354" y1="88.568" x2="172.674" y2="-30.751"/>
				
					<line fill="none" stroke="#00ABEB" stroke-width="0.15" stroke-miterlimit="10" x1="56.188" y1="88.568" x2="175.508" y2="-30.751"/>
				
					<line fill="none" stroke="#00ABEB" stroke-width="0.15" stroke-miterlimit="10" x1="59.023" y1="88.568" x2="178.343" y2="-30.751"/>
				
					<line fill="none" stroke="#00ABEB" stroke-width="0.15" stroke-miterlimit="10" x1="61.858" y1="88.568" x2="181.178" y2="-30.751"/>
				
					<line fill="none" stroke="#00ABEB" stroke-width="0.15" stroke-miterlimit="10" x1="64.692" y1="88.568" x2="184.012" y2="-30.751"/>
			</g>
			<g id="Horizontal_5_mm_00000011735556503592991880000008134099091165005186_">
				
					<line fill="none" stroke="#00ABEB" stroke-width="0.3" stroke-miterlimit="10" x1="-162.439" y1="88.578" x2="64.677" y2="88.578"/>
				
					<line fill="none" stroke="#00ABEB" stroke-width="0.3" stroke-miterlimit="10" x1="-152.499" y1="78.638" x2="74.616" y2="78.638"/>
				
					<line fill="none" stroke="#00ABEB" stroke-width="0.3" stroke-miterlimit="10" x1="-142.56" y1="68.698" x2="84.556" y2="68.698"/>
				
					<line fill="none" stroke="#00ABEB" stroke-width="0.3" stroke-miterlimit="10" x1="-132.619" y1="58.758" x2="94.496" y2="58.758"/>
				
					<line fill="none" stroke="#00ABEB" stroke-width="0.3" stroke-miterlimit="10" x1="-122.68" y1="48.819" x2="104.436" y2="48.819"/>
				
					<line fill="none" stroke="#00ABEB" stroke-width="0.3" stroke-miterlimit="10" x1="-112.74" y1="38.879" x2="114.376" y2="38.879"/>
				
					<line fill="none" stroke="#00ABEB" stroke-width="0.3" stroke-miterlimit="10" x1="-102.801" y1="28.94" x2="124.315" y2="28.94"/>
				<line fill="none" stroke="#00ABEB" stroke-width="0.3" stroke-miterlimit="10" x1="-92.861" y1="19" x2="134.255" y2="19"/>
				<line fill="none" stroke="#00ABEB" stroke-width="0.3" stroke-miterlimit="10" x1="-82.921" y1="9.06" x2="144.195" y2="9.06"/>
				
					<line fill="none" stroke="#00ABEB" stroke-width="0.3" stroke-miterlimit="10" x1="-72.981" y1="-0.879" x2="154.134" y2="-0.879"/>
				
					<line fill="none" stroke="#00ABEB" stroke-width="0.3" stroke-miterlimit="10" x1="-63.042" y1="-10.819" x2="164.074" y2="-10.819"/>
			</g>
			<g id="Vertical_5_mm_00000064346364918789686960000003233481195482251947_">
				
					<line fill="none" stroke="#00ABEB" stroke-width="0.3" stroke-miterlimit="10" x1="-162.079" y1="88.568" x2="-42.566" y2="-30.944"/>
				
					<line fill="none" stroke="#00ABEB" stroke-width="0.3" stroke-miterlimit="10" x1="-147.906" y1="88.568" x2="-28.393" y2="-30.944"/>
				
					<line fill="none" stroke="#00ABEB" stroke-width="0.3" stroke-miterlimit="10" x1="-133.733" y1="88.568" x2="-14.22" y2="-30.944"/>
				
					<line fill="none" stroke="#00ABEB" stroke-width="0.3" stroke-miterlimit="10" x1="-119.56" y1="88.568" x2="-0.047" y2="-30.944"/>
				
					<line fill="none" stroke="#00ABEB" stroke-width="0.3" stroke-miterlimit="10" x1="-105.386" y1="88.568" x2="14.127" y2="-30.944"/>
				
					<line fill="none" stroke="#00ABEB" stroke-width="0.3" stroke-miterlimit="10" x1="-91.213" y1="88.568" x2="28.3" y2="-30.944"/>
				
					<line fill="none" stroke="#00ABEB" stroke-width="0.3" stroke-miterlimit="10" x1="-77.04" y1="88.568" x2="42.473" y2="-30.944"/>
				
					<line fill="none" stroke="#00ABEB" stroke-width="0.3" stroke-miterlimit="10" x1="-62.867" y1="88.568" x2="56.646" y2="-30.944"/>
				
					<line fill="none" stroke="#00ABEB" stroke-width="0.3" stroke-miterlimit="10" x1="-48.694" y1="88.568" x2="70.819" y2="-30.944"/>
				
					<line fill="none" stroke="#00ABEB" stroke-width="0.3" stroke-miterlimit="10" x1="-34.52" y1="88.568" x2="84.993" y2="-30.944"/>
				
					<line fill="none" stroke="#00ABEB" stroke-width="0.3" stroke-miterlimit="10" x1="-20.347" y1="88.568" x2="99.166" y2="-30.944"/>
				
					<line fill="none" stroke="#00ABEB" stroke-width="0.3" stroke-miterlimit="10" x1="-6.174" y1="88.568" x2="113.339" y2="-30.944"/>
				
					<line fill="none" stroke="#00ABEB" stroke-width="0.3" stroke-miterlimit="10" x1="7.999" y1="88.568" x2="127.512" y2="-30.944"/>
				
					<line fill="none" stroke="#00ABEB" stroke-width="0.3" stroke-miterlimit="10" x1="22.173" y1="88.568" x2="141.686" y2="-30.944"/>
				
					<line fill="none" stroke="#00ABEB" stroke-width="0.3" stroke-miterlimit="10" x1="36.346" y1="88.568" x2="155.859" y2="-30.944"/>
				
					<line fill="none" stroke="#00ABEB" stroke-width="0.3" stroke-miterlimit="10" x1="50.519" y1="88.568" x2="170.032" y2="-30.944"/>
				
					<line fill="none" stroke="#00ABEB" stroke-width="0.3" stroke-miterlimit="10" x1="64.692" y1="88.568" x2="184.205" y2="-30.944"/>
			</g>
			<g id="Horizontal_10_mm_00000163045836177147705350000008480455355013810362_">
				
					<line id="_x31_9_00000057116790517712807720000015084113881736219806_" fill="none" stroke="#00ABEB" stroke-width="0.7" stroke-miterlimit="10" x1="-162.439" y1="88.578" x2="64.677" y2="88.578"/>
				
					<line id="_x32_0_00000024685878617286333290000013167547815532084100_" fill="none" stroke="#00ABEB" stroke-width="0.7" stroke-miterlimit="10" x1="-142.56" y1="68.698" x2="84.556" y2="68.698"/>
				
					<line id="_x32_1_00000138564813020868535020000012777939180148238773_" fill="none" stroke="#00ABEB" stroke-width="0.7" stroke-miterlimit="10" x1="-122.68" y1="48.819" x2="104.436" y2="48.819"/>
				
					<line id="_x32_2_00000052807586205252870140000014502512662559454639_" fill="none" stroke="#00ABEB" stroke-width="0.7" stroke-miterlimit="10" x1="-102.801" y1="28.94" x2="124.315" y2="28.94"/>
				
					<line id="_x32_3_00000051376893246677475670000009295515732899575694_" fill="none" stroke="#00ABEB" stroke-width="0.7" stroke-miterlimit="10" x1="-82.921" y1="9.06" x2="144.195" y2="9.06"/>
				
					<line id="_x32_4_00000099657911357833521510000007853591198542098087_" fill="none" stroke="#00ABEB" stroke-width="0.7" stroke-miterlimit="10" x1="-63.042" y1="-10.819" x2="164.074" y2="-10.819"/>
				
					<line id="_x32_5_00000155127691660191171140000008292164438978366870_" fill="none" stroke="#00ABEB" stroke-width="0.7" stroke-miterlimit="10" x1="-43.162" y1="-30.699" x2="183.954" y2="-30.699"/>
			</g>
			<g id="Vertical_10_mm_00000134969164297783457920000010833503864539426239_">
				
					<line id="_x30__00000151539528360119995570000005083818057555393183_" fill="none" stroke="#00ABEB" stroke-width="0.7" stroke-miterlimit="10" x1="-162.079" y1="88.568" x2="-42.566" y2="-30.944"/>
				
					<line id="_x31__00000021823889366233599640000011971139016478256513_" fill="none" stroke="#00ABEB" stroke-width="0.7" stroke-miterlimit="10" x1="-133.733" y1="88.568" x2="-14.22" y2="-30.944"/>
				
					<line id="_x32__00000071550223824624162640000006130814236846722696_" fill="none" stroke="#00ABEB" stroke-width="0.7" stroke-miterlimit="10" x1="-105.386" y1="88.568" x2="14.127" y2="-30.944"/>
				
					<line id="_x33__00000042015976804734918030000005045165563697445304_" fill="none" stroke="#00ABEB" stroke-width="0.7" stroke-miterlimit="10" x1="-77.04" y1="88.568" x2="42.473" y2="-30.944"/>
				
					<line id="_x34__00000081637789328126233800000002486991317463304126_" fill="none" stroke="#00ABEB" stroke-width="0.7" stroke-miterlimit="10" x1="-48.694" y1="88.568" x2="70.819" y2="-30.944"/>
				
					<line id="_x35__00000051353690731882489090000004794744233340785543_" fill="none" stroke="#00ABEB" stroke-width="0.7" stroke-miterlimit="10" x1="-20.347" y1="88.568" x2="99.166" y2="-30.944"/>
				
					<line id="_x36__00000011745311307505536660000010485558803267122343_" fill="none" stroke="#00ABEB" stroke-width="0.7" stroke-miterlimit="10" x1="7.999" y1="88.568" x2="127.512" y2="-30.944"/>
				
					<line id="_x37__00000045602144989735358580000003937589459941247142_" fill="none" stroke="#00ABEB" stroke-width="0.7" stroke-miterlimit="10" x1="36.346" y1="88.568" x2="155.859" y2="-30.944"/>
				
					<line id="_x38__00000047029857857898873560000014194396358708286345_" fill="none" stroke="#00ABEB" stroke-width="0.7" stroke-miterlimit="10" x1="64.692" y1="88.568" x2="184.205" y2="-30.944"/>
			</g>
		</g>
	</g>
</g>
<g id="Axis">
	<g id="lines">
		<g>
			<g>
				<line fill="none" stroke="#000000" stroke-width="0.2" stroke-miterlimit="10" x1="11.072" y1="28.93" x2="51.069" y2="28.93"/>
				<g>
					<polygon points="50.507,29.67 50.822,28.93 50.507,28.189 52.263,28.93 					"/>
				</g>
			</g>
		</g>
		<g>
			<g>
				<line fill="none" stroke="#000000" stroke-width="0.2" stroke-miterlimit="10" x1="11.072" y1="28.93" x2="3.014" y2="36.988"/>
				<g>
					<polygon points="2.888,36.067 3.189,36.813 3.935,37.114 2.17,37.832 					"/>
				</g>
			</g>
		</g>
		<g>
			<g>
				<line fill="none" stroke="#000000" stroke-width="0.2" stroke-miterlimit="10" x1="11.072" y1="28.93" x2="11.072" y2="2.303"/>
				<g>
					<polygon points="11.813,2.864 11.072,2.55 10.332,2.864 11.072,1.109 					"/>
				</g>
			</g>
		</g>
		<path fill="none" stroke="#000000" stroke-width="0.2" stroke-miterlimit="10" d="M11.072,13.006"/>
		<path fill="none" stroke="#000000" stroke-width="0.2" stroke-miterlimit="10" d="M11.072,28.93"/>
	</g>
	<g id="names">
		<g>
			<path d="M53.976,32.027c0.339-0.564,0.487-0.852,0.487-1.027c0-0.056-0.028-0.08-0.104-0.128
				c-0.08-0.052-0.104-0.092-0.104-0.156c0-0.088,0.068-0.148,0.16-0.148c0.12,0,0.208,0.1,0.208,0.22
				c0,0.228-0.192,0.667-0.524,1.219c-0.416,0.688-0.843,1.147-1.071,1.147c-0.12,0-0.204-0.068-0.204-0.172
				c0-0.088,0.068-0.16,0.156-0.16c0.14,0,0.14,0.112,0.244,0.112c0.052,0,0.1-0.032,0.192-0.132
				c0.072-0.076,0.252-0.312,0.284-0.364c0.024-0.048,0.04-0.096,0.04-0.14c0-0.16-0.22-1.055-0.328-1.327
				c-0.076-0.196-0.148-0.256-0.308-0.256c-0.044,0-0.08,0.004-0.124,0.016v-0.068c0.044-0.008,0.088-0.016,0.128-0.024
				c0.08-0.016,0.212-0.04,0.428-0.072h0.016c0.06,0,0.271,0.664,0.34,1.02L53.976,32.027z"/>
		</g>
		<g>
			<path d="M8.583,3.129c0.232,0.052,0.32,0.096,0.48,0.332c0.104,0.152,0.18,0.2,0.28,0.2c0.064,0,0.108-0.024,0.108-0.06
				c0-0.016-0.008-0.036-0.02-0.06c-0.024-0.048-0.032-0.08-0.032-0.112c0.004-0.068,0.068-0.136,0.132-0.136
				c0.083,0,0.14,0.06,0.14,0.148c0,0.16-0.148,0.304-0.372,0.304c-0.116,0-0.252-0.052-0.452-0.176
				C8.659,3.453,8.531,3.401,8.427,3.401c-0.064,0-0.116,0.02-0.18,0.072L8.211,3.437l1.239-1.487H8.907
				c-0.208,0-0.284,0.036-0.364,0.24L8.479,2.174L8.607,1.71h1.131v0.044L8.583,3.129z"/>
		</g>
		<g>
			<path d="M6.007,36.748c0.28-0.428,0.428-0.572,0.604-0.572c0.096,0,0.164,0.06,0.164,0.148c0,0.084-0.056,0.144-0.136,0.144
				c-0.076,0-0.112-0.068-0.208-0.068c-0.072,0-0.216,0.176-0.392,0.483c0,0.028,0.008,0.084,0.032,0.18l0.128,0.536
				c0.028,0.112,0.064,0.164,0.12,0.164c0.052,0,0.096-0.04,0.188-0.16c0.036-0.048,0.052-0.072,0.084-0.112l0.06,0.036
				c-0.232,0.36-0.336,0.456-0.488,0.456c-0.128,0-0.188-0.072-0.236-0.272l-0.116-0.476l-0.352,0.476
				c-0.176,0.236-0.256,0.272-0.38,0.272s-0.2-0.064-0.2-0.168c0-0.08,0.056-0.144,0.136-0.144c0.036,0,0.076,0.016,0.128,0.044
				c0.04,0.024,0.08,0.036,0.104,0.036c0.044,0,0.12-0.076,0.204-0.196l0.328-0.464l-0.112-0.496
				c-0.056-0.24-0.084-0.272-0.184-0.272c-0.032,0-0.08,0.008-0.156,0.028l-0.072,0.02l-0.012-0.063l0.044-0.016
				c0.244-0.088,0.376-0.116,0.468-0.116c0.1,0,0.148,0.072,0.204,0.344L6.007,36.748z"/>
		</g>
	</g>
	<g>
		<g>
			<line fill="none" stroke="#FF00FF" stroke-width="0.1" stroke-miterlimit="10" x1="30.717" y1="17.394" x2="30.717" y2="7.181"/>
			<g>
				<polygon fill="#FF00FF" points="31.126,7.512 31.053,7.581 30.717,7.219 30.382,7.581 30.309,7.512 30.717,7.073 				"/>
			</g>
		</g>
	</g>
</g>
<g id="Layer_10">
	<polygon opacity="0.05" fill="#0000FF" points="47.682,25.239 26.958,25.239 13.752,33.541 34.476,33.541 	"/>
	
		<polyline fill="none" stroke="#0000FF" stroke-width="0.2" stroke-linecap="round" stroke-linejoin="round" stroke-miterlimit="10" points="
		25.741,26.004 13.752,33.541 34.476,33.541 47.682,25.239 	"/>
	<g>
		<g>
			
				<line fill="none" stroke="#0000FF" stroke-width="0.2" stroke-linecap="round" stroke-linejoin="round" x1="47.682" y1="25.239" x2="46.682" y2="25.239"/>
			
				<line fill="none" stroke="#0000FF" stroke-width="0.2" stroke-linecap="round" stroke-linejoin="round" stroke-dasharray="2.0804,2.0804" x1="44.601" y1="25.239" x2="28.998" y2="25.239"/>
			
				<line fill="none" stroke="#0000FF" stroke-width="0.2" stroke-linecap="round" stroke-linejoin="round" x1="27.958" y1="25.239" x2="26.958" y2="25.239"/>
		</g>
	</g>
	<polygon opacity="0.05" fill="#FF0000" points="47.682,25.239 26.958,7.358 13.752,15.66 34.476,33.541 	"/>
	
		<polygon fill="none" stroke="#FF0000" stroke-width="0.2" stroke-linecap="round" stroke-linejoin="round" stroke-miterlimit="10" points="
		47.682,25.239 26.958,7.358 13.752,15.66 29.143,28.94 34.476,33.541 	"/>
	
		<line opacity="0.3" fill="none" stroke="#0000FF" stroke-width="0.1" stroke-linecap="round" stroke-linejoin="round" stroke-miterlimit="10" stroke-dasharray="2" x1="26.958" y1="7.358" x2="26.958" y2="25.239"/>
	<g>
		<path fill="#FF0000" d="M43.914,18.151l-0.071-0.012c0-0.408-0.086-0.652-0.467-0.652c-0.271,0-0.439,0.148-0.439,0.4
			c0,0.196,0.031,0.26,0.388,0.624c0.357,0.368,0.443,0.54,0.443,0.8c0,0.456-0.341,0.779-0.792,0.779
			c-0.122,0-0.228-0.028-0.408-0.092c-0.106-0.04-0.141-0.048-0.185-0.048c-0.078,0-0.141,0.036-0.168,0.128h-0.07l0.133-0.896
			l0.078,0.008c-0.008,0.036-0.008,0.064-0.008,0.092c0,0.392,0.235,0.667,0.565,0.667c0.302,0,0.514-0.208,0.514-0.512
			c0-0.172-0.055-0.292-0.235-0.492l-0.153-0.168c-0.055-0.06-0.102-0.116-0.153-0.168c-0.235-0.256-0.294-0.384-0.294-0.6
			c0-0.42,0.322-0.656,0.698-0.656c0.122,0,0.251,0.02,0.333,0.056c0.083,0.032,0.129,0.044,0.181,0.044
			c0.086,0,0.122-0.02,0.176-0.104h0.09L43.914,18.151z"/>
	</g>
	<g>
		<g>
			<g>
				
					<line fill="none" stroke="#00A300" stroke-width="0.3" stroke-miterlimit="10" x1="30.717" y1="17.394" x2="38.201" y2="10.229"/>
				<g>
					<polygon fill="#00A300" points="38.332,11.803 38.032,11.786 38.118,10.309 36.639,10.331 36.635,10.031 38.437,10.005 					
						"/>
				</g>
			</g>
		</g>
		
			<polyline fill="none" stroke="#00A300" stroke-width="0.1" stroke-linecap="round" stroke-linejoin="round" stroke-miterlimit="10" points="
			31.447,16.695 32.02,17.304 32.02,17.304 31.333,17.932 		"/>
	</g>
	<g>
		<path fill="#00B200" d="M42.055,8.29c-0.252,0.056-0.26,0.064-0.408,0.58l-0.583,2.027h-0.072l-0.919-2.199l-0.456,1.687
			c-0.024,0.084-0.036,0.164-0.036,0.216c0,0.112,0.072,0.156,0.28,0.172v0.064h-0.792v-0.064c0.224-0.032,0.28-0.096,0.424-0.607
			l0.468-1.659c-0.06-0.14-0.156-0.216-0.344-0.216V8.226h0.64l0.828,1.995l0.424-1.551c0.024-0.084,0.032-0.128,0.032-0.176
			c0-0.144-0.048-0.184-0.276-0.204V8.226h0.792V8.29z"/>
	</g>
	<g>
		<g>
			<line fill="none" stroke="#00A300" stroke-width="0.15" stroke-miterlimit="10" x1="39.468" y1="7.141" x2="41.834" y2="7.141"/>
			<g>
				<polygon fill="#00A300" points="41.337,7.755 41.234,7.645 41.776,7.141 41.234,6.638 41.337,6.528 41.996,7.141 				"/>
			</g>
		</g>
	</g>
	<g>
		<g>
			<path fill="none" stroke="#FF00FF" stroke-width="0.1" stroke-miterlimit="10" d="M27.712,33.541c0-1.672,0.55-3.211,1.471-4.429
				"/>
			<g>
				<polygon fill="#FF00FF" points="29.348,29.621 29.249,29.638 29.166,29.152 28.687,29.27 28.663,29.173 29.247,29.029 				"/>
			</g>
		</g>
	</g>
	<g>
		<path fill="#FF00FF" d="M29.927,32.093v0.072c0,0.192,0.047,0.396,0.133,0.396c0.055,0,0.118-0.076,0.2-0.296l0.063,0.028
			c-0.086,0.296-0.208,0.504-0.396,0.504c-0.149,0-0.196-0.176-0.204-0.42c-0.196,0.244-0.467,0.428-0.761,0.428
			c-0.38,0-0.525-0.272-0.525-0.607c0-0.324,0.137-0.664,0.357-0.892c0.172-0.18,0.435-0.308,0.678-0.308
			c0.333,0,0.494,0.24,0.494,0.476l0.18-0.424h0.337L29.927,32.093z M29.437,31.082c-0.247,0-0.679,0.544-0.679,1.18
			c0,0.228,0.071,0.459,0.271,0.459c0.274,0,0.541-0.54,0.647-0.764c0.016-0.076,0.062-0.176,0.062-0.284
			C29.738,31.402,29.688,31.082,29.437,31.082z"/>
	</g>
	<g>
		<path fill="#FF0000" d="M21.858,15.019l1.568-2.67h0.102l0.518,2.67H21.858z M23.254,12.916l-1,1.727h1.341L23.254,12.916z"/>
		<path fill="#FF0000" d="M26.215,13.152l-0.071-0.012c0-0.408-0.086-0.652-0.467-0.652c-0.271,0-0.439,0.148-0.439,0.4
			c0,0.196,0.031,0.26,0.388,0.624c0.357,0.368,0.443,0.54,0.443,0.8c0,0.456-0.341,0.779-0.792,0.779
			c-0.122,0-0.228-0.028-0.408-0.092c-0.106-0.04-0.141-0.048-0.185-0.048c-0.078,0-0.141,0.036-0.168,0.128h-0.07l0.133-0.896
			l0.078,0.008c-0.008,0.036-0.008,0.064-0.008,0.092c0,0.392,0.235,0.667,0.565,0.667c0.302,0,0.514-0.208,0.514-0.512
			c0-0.172-0.055-0.292-0.235-0.492l-0.153-0.168c-0.055-0.06-0.102-0.116-0.153-0.168c-0.235-0.256-0.294-0.384-0.294-0.6
			c0-0.42,0.322-0.656,0.698-0.656c0.122,0,0.251,0.02,0.333,0.056c0.083,0.032,0.129,0.044,0.181,0.044
			c0.086,0,0.122-0.02,0.176-0.104h0.09L26.215,13.152z"/>
	</g>
	<g>
		<path fill="#0000FF" d="M22.25,30.902l1.568-2.67h0.102l0.518,2.67H22.25z M23.646,28.799l-1,1.727h1.341L23.646,28.799z"/>
		<path fill="#0000FF" d="M26.023,30.902v-0.064c0.247-0.012,0.302-0.076,0.302-0.212c0-0.032-0.004-0.068-0.008-0.104l-0.078-0.523
			h-0.863l-0.231,0.443c-0.055,0.104-0.086,0.2-0.086,0.264c0,0.076,0.059,0.124,0.243,0.132v0.064h-0.729v-0.064
			c0.181-0.036,0.231-0.104,0.526-0.624l1.117-1.983h0.102l0.361,2.21c0.055,0.336,0.098,0.38,0.306,0.396v0.064H26.023z
			 M26.043,28.803l-0.584,1.051h0.761L26.043,28.803z"/>
	</g>
	<g>
		<path fill="#FF00FF" d="M31.69,4.949c-0.188,0.012-0.312,0.092-0.899,0.616l0.148,0.352c0.156,0.368,0.248,0.516,0.324,0.516
			c0.06,0,0.108-0.044,0.18-0.168c0.02-0.032,0.04-0.068,0.06-0.104l0.06,0.044C31.379,6.54,31.279,6.64,31.119,6.64
			c-0.116,0-0.196-0.076-0.324-0.328c-0.072-0.14-0.176-0.388-0.24-0.564l-0.16,0.128l-0.192,0.72h-0.3l0.563-2.111
			c0.052-0.192,0.064-0.284,0.072-0.352c-0.008-0.072-0.068-0.096-0.204-0.096h-0.072V3.973c0.236-0.028,0.392-0.056,0.627-0.108
			l0.024,0.024l-0.479,1.823l0.172-0.132c0.375-0.288,0.571-0.479,0.571-0.56c0-0.044-0.048-0.072-0.147-0.072h-0.056V4.885h0.715
			V4.949z"/>
	</g>
	<g>
		<path fill="#FF00FF" d="M31.263,3.994l-0.571-1.156h-0.004L30.12,3.994h-0.272l0.724-1.459h0.24l0.724,1.459H31.263z"/>
	</g>
	<g>
		<path fill="#FF00FF" d="M34.327,10.78v0.072c0,0.192,0.047,0.396,0.133,0.396c0.055,0,0.118-0.076,0.2-0.296l0.063,0.028
			c-0.086,0.296-0.208,0.504-0.396,0.504c-0.149,0-0.196-0.176-0.204-0.42c-0.196,0.244-0.467,0.428-0.761,0.428
			c-0.38,0-0.525-0.272-0.525-0.607c0-0.324,0.137-0.664,0.357-0.892c0.172-0.18,0.435-0.308,0.678-0.308
			c0.333,0,0.494,0.24,0.494,0.476l0.18-0.424h0.337L34.327,10.78z M33.837,9.768c-0.247,0-0.679,0.544-0.679,1.18
			c0,0.228,0.071,0.459,0.271,0.459c0.274,0,0.541-0.54,0.647-0.764c0.016-0.076,0.062-0.176,0.062-0.284
			C34.139,10.088,34.088,9.768,33.837,9.768z"/>
	</g>
</g>
<g id="Layer_12">
	<path fill="none" stroke="#000000" stroke-width="0.1" stroke-linecap="round" stroke-linejoin="round" stroke-miterlimit="10" d="
		M26.198,32.761"/>
	<path fill="none" stroke="#000000" stroke-width="0.1" stroke-linecap="round" stroke-linejoin="round" stroke-miterlimit="10" d="
		M26.198,5.759"/>
	
		<line opacity="0.3" fill="none" stroke="#0000FF" stroke-width="0.1" stroke-linecap="round" stroke-linejoin="round" stroke-miterlimit="10" stroke-dasharray="2" x1="13.752" y1="15.566" x2="13.752" y2="33.448"/>
	<path fill="none" stroke="#000000" stroke-width="0.1" stroke-linecap="round" stroke-linejoin="round" stroke-miterlimit="10" d="
		M12.993,40.969"/>
	<path fill="none" stroke="#000000" stroke-width="0.1" stroke-linecap="round" stroke-linejoin="round" stroke-miterlimit="10" d="
		M12.993,13.968"/>
</g>
<g id="Layer_13">
	
		<polygon fill="none" stroke="#0000FF" stroke-width="0.2" stroke-linecap="round" stroke-linejoin="round" stroke-miterlimit="10" points="
		23.033,31.475 20.616,31.422 19.076,32.391 21.493,32.443 21.493,32.443 	"/>
	<polygon opacity="0.1" fill="#0000FF" points="23.033,31.475 20.616,31.422 19.076,32.391 21.493,32.443 21.493,32.443 	"/>
	<polygon opacity="0.1" fill="#FF0000" points="23.033,17.253 20.616,15.168 19.076,16.136 20.871,17.685 21.493,18.221 	"/>
	
		<polygon fill="none" stroke="#FF0000" stroke-width="0.2" stroke-linecap="round" stroke-linejoin="round" stroke-miterlimit="10" points="
		23.033,17.253 20.616,15.168 19.076,16.136 20.871,17.685 21.493,18.221 	"/>
	
		<line opacity="0.3" fill="none" stroke="#0000FF" stroke-width="0.1" stroke-linecap="round" stroke-linejoin="round" stroke-miterlimit="10" stroke-dasharray="1" x1="19.076" y1="16.039" x2="19.076" y2="32.137"/>
	
		<line opacity="0.3" fill="none" stroke="#0000FF" stroke-width="0.1" stroke-linecap="round" stroke-linejoin="round" stroke-miterlimit="10" stroke-dasharray="1" x1="20.62" y1="15.168" x2="20.616" y2="31.422"/>
	
		<line opacity="0.3" fill="none" stroke="#0000FF" stroke-width="0.1" stroke-linecap="round" stroke-linejoin="round" stroke-miterlimit="10" stroke-dasharray="1" x1="21.464" y1="18.221" x2="21.464" y2="32.443"/>
	
		<line opacity="0.3" fill="none" stroke="#0000FF" stroke-width="0.1" stroke-linecap="round" stroke-linejoin="round" stroke-miterlimit="10" stroke-dasharray="1" x1="23.033" y1="17.396" x2="23.033" y2="31.618"/>
	<g>
		<g>
			<path fill="none" stroke="#FF00FF" stroke-width="0.1" stroke-miterlimit="10" d="M30.717,11.448
				c1.669,0.099,3.172,0.739,4.334,1.731"/>
			<g>
				<polygon fill="#FF00FF" points="34.533,13.313 34.522,13.213 35.013,13.16 34.923,12.675 35.021,12.656 35.13,13.247 				"/>
			</g>
		</g>
	</g>
	<g>
	</g>
	<g>
	</g>
</g>
</svg>
