<?xml version="1.0" encoding="utf-8"?>
<!-- Generator: Adobe Illustrator 25.4.1, SVG Export Plug-In . SVG Version: 6.00 Build 0)  -->
<svg version="1.1" xmlns="http://www.w3.org/2000/svg" xmlns:xlink="http://www.w3.org/1999/xlink" x="0px" y="0px"
	 viewBox="0 0 71.117 51.1" enable-background="new 0 0 71.117 51.1" xml:space="preserve">
<g id="Graph_paper_slanted" opacity="0.5">
	<g id="Clipped_grid_00000003068028900943026870000011536296927355263674_">
		<defs>
			<polygon id="SVGID_1_" points="40.118,70.979 -70.781,70.979 -12.45,12.649 98.449,12.649 			"/>
		</defs>
		<clipPath id="SVGID_00000049916966526835823710000000448759078276051349_">
			<use xlink:href="#SVGID_1_"  overflow="visible"/>
		</clipPath>
		
			<g id="Grid_00000142891597197125820610000009767860333217090727_" opacity="0.25" clip-path="url(#SVGID_00000049916966526835823710000000448759078276051349_)">
			<g id="Horizontal_1_mm_00000151508609497893311650000018408800186222605470_">
				
					<line fill="none" stroke="#00ABEB" stroke-width="0.15" stroke-miterlimit="10" x1="-41.98" y1="-16.49" x2="184.861" y2="-16.49"/>
				
					<line fill="none" stroke="#00ABEB" stroke-width="0.15" stroke-miterlimit="10" x1="-39.992" y1="-18.478" x2="186.849" y2="-18.478"/>
				
					<line fill="none" stroke="#00ABEB" stroke-width="0.15" stroke-miterlimit="10" x1="-159.269" y1="100.798" x2="67.572" y2="100.798"/>
				
					<line fill="none" stroke="#00ABEB" stroke-width="0.15" stroke-miterlimit="10" x1="-157.281" y1="98.81" x2="69.56" y2="98.81"/>
				
					<line fill="none" stroke="#00ABEB" stroke-width="0.15" stroke-miterlimit="10" x1="-155.293" y1="96.823" x2="71.548" y2="96.823"/>
				
					<line fill="none" stroke="#00ABEB" stroke-width="0.15" stroke-miterlimit="10" x1="-153.305" y1="94.835" x2="73.536" y2="94.835"/>
				
					<line fill="none" stroke="#00ABEB" stroke-width="0.15" stroke-miterlimit="10" x1="-151.317" y1="92.847" x2="75.524" y2="92.847"/>
				
					<line fill="none" stroke="#00ABEB" stroke-width="0.15" stroke-miterlimit="10" x1="-149.329" y1="90.859" x2="77.511" y2="90.859"/>
				
					<line fill="none" stroke="#00ABEB" stroke-width="0.15" stroke-miterlimit="10" x1="-147.341" y1="88.871" x2="79.5" y2="88.871"/>
				
					<line fill="none" stroke="#00ABEB" stroke-width="0.15" stroke-miterlimit="10" x1="-145.354" y1="86.883" x2="81.487" y2="86.883"/>
				
					<line fill="none" stroke="#00ABEB" stroke-width="0.15" stroke-miterlimit="10" x1="-143.365" y1="84.895" x2="83.476" y2="84.895"/>
				
					<line fill="none" stroke="#00ABEB" stroke-width="0.15" stroke-miterlimit="10" x1="-141.377" y1="82.907" x2="85.464" y2="82.907"/>
				
					<line fill="none" stroke="#00ABEB" stroke-width="0.15" stroke-miterlimit="10" x1="-139.39" y1="80.919" x2="87.451" y2="80.919"/>
				
					<line fill="none" stroke="#00ABEB" stroke-width="0.15" stroke-miterlimit="10" x1="-137.401" y1="78.931" x2="89.439" y2="78.931"/>
				
					<line fill="none" stroke="#00ABEB" stroke-width="0.15" stroke-miterlimit="10" x1="-135.413" y1="76.943" x2="91.427" y2="76.943"/>
				
					<line fill="none" stroke="#00ABEB" stroke-width="0.15" stroke-miterlimit="10" x1="-133.426" y1="74.956" x2="93.415" y2="74.956"/>
				
					<line fill="none" stroke="#00ABEB" stroke-width="0.15" stroke-miterlimit="10" x1="-131.438" y1="72.967" x2="95.403" y2="72.967"/>
				
					<line fill="none" stroke="#00ABEB" stroke-width="0.15" stroke-miterlimit="10" x1="-129.45" y1="70.979" x2="97.391" y2="70.979"/>
				
					<line fill="none" stroke="#00ABEB" stroke-width="0.15" stroke-miterlimit="10" x1="-127.462" y1="68.992" x2="99.379" y2="68.992"/>
				
					<line fill="none" stroke="#00ABEB" stroke-width="0.15" stroke-miterlimit="10" x1="-125.474" y1="67.004" x2="101.367" y2="67.004"/>
				
					<line fill="none" stroke="#00ABEB" stroke-width="0.15" stroke-miterlimit="10" x1="-123.486" y1="65.015" x2="103.355" y2="65.015"/>
				
					<line fill="none" stroke="#00ABEB" stroke-width="0.15" stroke-miterlimit="10" x1="-121.498" y1="63.028" x2="105.343" y2="63.028"/>
				
					<line fill="none" stroke="#00ABEB" stroke-width="0.15" stroke-miterlimit="10" x1="-119.51" y1="61.04" x2="107.331" y2="61.04"/>
				
					<line fill="none" stroke="#00ABEB" stroke-width="0.15" stroke-miterlimit="10" x1="-117.522" y1="59.051" x2="109.319" y2="59.051"/>
				
					<line fill="none" stroke="#00ABEB" stroke-width="0.15" stroke-miterlimit="10" x1="-115.534" y1="57.064" x2="111.307" y2="57.064"/>
				
					<line fill="none" stroke="#00ABEB" stroke-width="0.15" stroke-miterlimit="10" x1="-113.546" y1="55.076" x2="113.295" y2="55.076"/>
				
					<line fill="none" stroke="#00ABEB" stroke-width="0.15" stroke-miterlimit="10" x1="-111.558" y1="53.088" x2="115.282" y2="53.088"/>
				
					<line fill="none" stroke="#00ABEB" stroke-width="0.15" stroke-miterlimit="10" x1="-109.57" y1="51.1" x2="117.271" y2="51.1"/>
				
					<line fill="none" stroke="#00ABEB" stroke-width="0.15" stroke-miterlimit="10" x1="-107.582" y1="49.112" x2="119.259" y2="49.112"/>
				
					<line fill="none" stroke="#00ABEB" stroke-width="0.15" stroke-miterlimit="10" x1="-105.595" y1="47.124" x2="121.246" y2="47.124"/>
				
					<line fill="none" stroke="#00ABEB" stroke-width="0.15" stroke-miterlimit="10" x1="-103.606" y1="45.136" x2="123.234" y2="45.136"/>
				
					<line fill="none" stroke="#00ABEB" stroke-width="0.15" stroke-miterlimit="10" x1="-101.618" y1="43.148" x2="125.223" y2="43.148"/>
				
					<line fill="none" stroke="#00ABEB" stroke-width="0.15" stroke-miterlimit="10" x1="-99.631" y1="41.161" x2="127.21" y2="41.161"/>
				
					<line fill="none" stroke="#00ABEB" stroke-width="0.15" stroke-miterlimit="10" x1="-97.643" y1="39.173" x2="129.198" y2="39.173"/>
				
					<line fill="none" stroke="#00ABEB" stroke-width="0.15" stroke-miterlimit="10" x1="-95.654" y1="37.184" x2="131.186" y2="37.184"/>
				
					<line fill="none" stroke="#00ABEB" stroke-width="0.15" stroke-miterlimit="10" x1="-93.667" y1="35.197" x2="133.174" y2="35.197"/>
				
					<line fill="none" stroke="#00ABEB" stroke-width="0.15" stroke-miterlimit="10" x1="-91.679" y1="33.209" x2="135.162" y2="33.209"/>
				
					<line fill="none" stroke="#00ABEB" stroke-width="0.15" stroke-miterlimit="10" x1="-89.691" y1="31.221" x2="137.15" y2="31.221"/>
				
					<line fill="none" stroke="#00ABEB" stroke-width="0.15" stroke-miterlimit="10" x1="-87.703" y1="29.233" x2="139.138" y2="29.233"/>
				
					<line fill="none" stroke="#00ABEB" stroke-width="0.15" stroke-miterlimit="10" x1="-85.715" y1="27.245" x2="141.126" y2="27.245"/>
				
					<line fill="none" stroke="#00ABEB" stroke-width="0.15" stroke-miterlimit="10" x1="-83.727" y1="25.257" x2="143.114" y2="25.257"/>
				
					<line fill="none" stroke="#00ABEB" stroke-width="0.15" stroke-miterlimit="10" x1="-81.739" y1="23.269" x2="145.101" y2="23.269"/>
				
					<line fill="none" stroke="#00ABEB" stroke-width="0.15" stroke-miterlimit="10" x1="-79.751" y1="21.281" x2="147.09" y2="21.281"/>
				
					<line fill="none" stroke="#00ABEB" stroke-width="0.15" stroke-miterlimit="10" x1="-77.763" y1="19.293" x2="149.077" y2="19.293"/>
				
					<line fill="none" stroke="#00ABEB" stroke-width="0.15" stroke-miterlimit="10" x1="-75.775" y1="17.305" x2="151.066" y2="17.305"/>
				
					<line fill="none" stroke="#00ABEB" stroke-width="0.15" stroke-miterlimit="10" x1="-73.787" y1="15.317" x2="153.054" y2="15.317"/>
				
					<line fill="none" stroke="#00ABEB" stroke-width="0.15" stroke-miterlimit="10" x1="-71.8" y1="13.33" x2="155.041" y2="13.33"/>
				
					<line fill="none" stroke="#00ABEB" stroke-width="0.15" stroke-miterlimit="10" x1="-69.811" y1="11.341" x2="157.029" y2="11.341"/>
				
					<line fill="none" stroke="#00ABEB" stroke-width="0.15" stroke-miterlimit="10" x1="-67.823" y1="9.353" x2="159.018" y2="9.353"/>
				
					<line fill="none" stroke="#00ABEB" stroke-width="0.15" stroke-miterlimit="10" x1="-65.836" y1="7.366" x2="161.005" y2="7.366"/>
				
					<line fill="none" stroke="#00ABEB" stroke-width="0.15" stroke-miterlimit="10" x1="-63.848" y1="5.378" x2="162.993" y2="5.378"/>
				
					<line fill="none" stroke="#00ABEB" stroke-width="0.15" stroke-miterlimit="10" x1="-61.859" y1="3.389" x2="164.981" y2="3.389"/>
				
					<line fill="none" stroke="#00ABEB" stroke-width="0.15" stroke-miterlimit="10" x1="-59.872" y1="1.402" x2="166.969" y2="1.402"/>
				
					<line fill="none" stroke="#00ABEB" stroke-width="0.15" stroke-miterlimit="10" x1="-57.884" y1="-0.586" x2="168.957" y2="-0.586"/>
				
					<line fill="none" stroke="#00ABEB" stroke-width="0.15" stroke-miterlimit="10" x1="-55.896" y1="-2.574" x2="170.945" y2="-2.574"/>
				
					<line fill="none" stroke="#00ABEB" stroke-width="0.15" stroke-miterlimit="10" x1="-53.908" y1="-4.562" x2="172.933" y2="-4.562"/>
				
					<line fill="none" stroke="#00ABEB" stroke-width="0.15" stroke-miterlimit="10" x1="-51.92" y1="-6.55" x2="174.921" y2="-6.55"/>
				
					<line fill="none" stroke="#00ABEB" stroke-width="0.15" stroke-miterlimit="10" x1="-49.932" y1="-8.538" x2="176.909" y2="-8.538"/>
				
					<line fill="none" stroke="#00ABEB" stroke-width="0.15" stroke-miterlimit="10" x1="-47.944" y1="-10.526" x2="178.897" y2="-10.526"/>
				
					<line fill="none" stroke="#00ABEB" stroke-width="0.15" stroke-miterlimit="10" x1="-45.956" y1="-12.514" x2="180.885" y2="-12.514"/>
				
					<line fill="none" stroke="#00ABEB" stroke-width="0.15" stroke-miterlimit="10" x1="-43.968" y1="-14.501" x2="182.873" y2="-14.501"/>
			</g>
			<g id="Vertical_1_mm_00000181073523592228201180000012361058669048395659_">
				<g>
					
						<line fill="none" stroke="#00ABEB" stroke-width="0.15" stroke-miterlimit="10" x1="-159.184" y1="100.789" x2="-39.864" y2="-18.531"/>
				</g>
				
					<line fill="none" stroke="#00ABEB" stroke-width="0.15" stroke-miterlimit="10" x1="-156.35" y1="100.789" x2="-37.03" y2="-18.531"/>
				
					<line fill="none" stroke="#00ABEB" stroke-width="0.15" stroke-miterlimit="10" x1="-153.515" y1="100.789" x2="-34.195" y2="-18.531"/>
				
					<line fill="none" stroke="#00ABEB" stroke-width="0.15" stroke-miterlimit="10" x1="-150.68" y1="100.789" x2="-31.36" y2="-18.531"/>
				
					<line fill="none" stroke="#00ABEB" stroke-width="0.15" stroke-miterlimit="10" x1="-147.846" y1="100.789" x2="-28.526" y2="-18.531"/>
				
					<line fill="none" stroke="#00ABEB" stroke-width="0.15" stroke-miterlimit="10" x1="-145.011" y1="100.789" x2="-25.691" y2="-18.531"/>
				
					<line fill="none" stroke="#00ABEB" stroke-width="0.15" stroke-miterlimit="10" x1="-142.176" y1="100.789" x2="-22.856" y2="-18.531"/>
				
					<line fill="none" stroke="#00ABEB" stroke-width="0.15" stroke-miterlimit="10" x1="-139.342" y1="100.789" x2="-20.022" y2="-18.531"/>
				
					<line fill="none" stroke="#00ABEB" stroke-width="0.15" stroke-miterlimit="10" x1="-136.507" y1="100.789" x2="-17.187" y2="-18.531"/>
				
					<line fill="none" stroke="#00ABEB" stroke-width="0.15" stroke-miterlimit="10" x1="-133.673" y1="100.789" x2="-14.353" y2="-18.531"/>
				
					<line fill="none" stroke="#00ABEB" stroke-width="0.15" stroke-miterlimit="10" x1="-130.838" y1="100.789" x2="-11.518" y2="-18.531"/>
				
					<line fill="none" stroke="#00ABEB" stroke-width="0.15" stroke-miterlimit="10" x1="-128.003" y1="100.789" x2="-8.683" y2="-18.531"/>
				
					<line fill="none" stroke="#00ABEB" stroke-width="0.15" stroke-miterlimit="10" x1="-125.169" y1="100.789" x2="-5.849" y2="-18.531"/>
				
					<line fill="none" stroke="#00ABEB" stroke-width="0.15" stroke-miterlimit="10" x1="-122.334" y1="100.789" x2="-3.014" y2="-18.531"/>
				
					<line fill="none" stroke="#00ABEB" stroke-width="0.15" stroke-miterlimit="10" x1="-119.499" y1="100.789" x2="-0.179" y2="-18.531"/>
				
					<line fill="none" stroke="#00ABEB" stroke-width="0.15" stroke-miterlimit="10" x1="-116.665" y1="100.789" x2="2.655" y2="-18.531"/>
				
					<line fill="none" stroke="#00ABEB" stroke-width="0.15" stroke-miterlimit="10" x1="-113.83" y1="100.789" x2="5.49" y2="-18.531"/>
				
					<line fill="none" stroke="#00ABEB" stroke-width="0.15" stroke-miterlimit="10" x1="-110.995" y1="100.789" x2="8.325" y2="-18.531"/>
				
					<line fill="none" stroke="#00ABEB" stroke-width="0.15" stroke-miterlimit="10" x1="-108.161" y1="100.789" x2="11.159" y2="-18.531"/>
				
					<line fill="none" stroke="#00ABEB" stroke-width="0.15" stroke-miterlimit="10" x1="-105.326" y1="100.789" x2="13.994" y2="-18.531"/>
				
					<line fill="none" stroke="#00ABEB" stroke-width="0.15" stroke-miterlimit="10" x1="-102.491" y1="100.789" x2="16.829" y2="-18.531"/>
				
					<line fill="none" stroke="#00ABEB" stroke-width="0.15" stroke-miterlimit="10" x1="-99.657" y1="100.789" x2="19.663" y2="-18.531"/>
				
					<line fill="none" stroke="#00ABEB" stroke-width="0.15" stroke-miterlimit="10" x1="-96.822" y1="100.789" x2="22.498" y2="-18.531"/>
				
					<line fill="none" stroke="#00ABEB" stroke-width="0.15" stroke-miterlimit="10" x1="-93.987" y1="100.789" x2="25.333" y2="-18.531"/>
				
					<line fill="none" stroke="#00ABEB" stroke-width="0.15" stroke-miterlimit="10" x1="-91.153" y1="100.789" x2="28.167" y2="-18.531"/>
				
					<line fill="none" stroke="#00ABEB" stroke-width="0.15" stroke-miterlimit="10" x1="-88.318" y1="100.789" x2="31.002" y2="-18.531"/>
				
					<line fill="none" stroke="#00ABEB" stroke-width="0.15" stroke-miterlimit="10" x1="-85.484" y1="100.789" x2="33.836" y2="-18.531"/>
				
					<line fill="none" stroke="#00ABEB" stroke-width="0.15" stroke-miterlimit="10" x1="-82.649" y1="100.789" x2="36.671" y2="-18.531"/>
				
					<line fill="none" stroke="#00ABEB" stroke-width="0.15" stroke-miterlimit="10" x1="-79.814" y1="100.789" x2="39.506" y2="-18.531"/>
				
					<line fill="none" stroke="#00ABEB" stroke-width="0.15" stroke-miterlimit="10" x1="-76.98" y1="100.789" x2="42.34" y2="-18.531"/>
				
					<line fill="none" stroke="#00ABEB" stroke-width="0.15" stroke-miterlimit="10" x1="-74.145" y1="100.789" x2="45.175" y2="-18.531"/>
				
					<line fill="none" stroke="#00ABEB" stroke-width="0.15" stroke-miterlimit="10" x1="-71.31" y1="100.789" x2="48.01" y2="-18.531"/>
				
					<line fill="none" stroke="#00ABEB" stroke-width="0.15" stroke-miterlimit="10" x1="-68.476" y1="100.789" x2="50.844" y2="-18.531"/>
				
					<line fill="none" stroke="#00ABEB" stroke-width="0.15" stroke-miterlimit="10" x1="-65.641" y1="100.789" x2="53.679" y2="-18.531"/>
				
					<line fill="none" stroke="#00ABEB" stroke-width="0.15" stroke-miterlimit="10" x1="-62.806" y1="100.789" x2="56.514" y2="-18.531"/>
				
					<line fill="none" stroke="#00ABEB" stroke-width="0.15" stroke-miterlimit="10" x1="-59.972" y1="100.789" x2="59.348" y2="-18.531"/>
				
					<line fill="none" stroke="#00ABEB" stroke-width="0.15" stroke-miterlimit="10" x1="-57.137" y1="100.789" x2="62.183" y2="-18.531"/>
				
					<line fill="none" stroke="#00ABEB" stroke-width="0.15" stroke-miterlimit="10" x1="-54.302" y1="100.789" x2="65.018" y2="-18.531"/>
				
					<line fill="none" stroke="#00ABEB" stroke-width="0.15" stroke-miterlimit="10" x1="-51.468" y1="100.789" x2="67.852" y2="-18.531"/>
				
					<line fill="none" stroke="#00ABEB" stroke-width="0.15" stroke-miterlimit="10" x1="-48.633" y1="100.789" x2="70.687" y2="-18.531"/>
				
					<line fill="none" stroke="#00ABEB" stroke-width="0.15" stroke-miterlimit="10" x1="-45.799" y1="100.789" x2="73.521" y2="-18.531"/>
				
					<line fill="none" stroke="#00ABEB" stroke-width="0.15" stroke-miterlimit="10" x1="-42.964" y1="100.789" x2="76.356" y2="-18.531"/>
				
					<line fill="none" stroke="#00ABEB" stroke-width="0.15" stroke-miterlimit="10" x1="-40.129" y1="100.789" x2="79.191" y2="-18.531"/>
				
					<line fill="none" stroke="#00ABEB" stroke-width="0.15" stroke-miterlimit="10" x1="-37.295" y1="100.789" x2="82.025" y2="-18.531"/>
				
					<line fill="none" stroke="#00ABEB" stroke-width="0.15" stroke-miterlimit="10" x1="-34.46" y1="100.789" x2="84.86" y2="-18.531"/>
				
					<line fill="none" stroke="#00ABEB" stroke-width="0.15" stroke-miterlimit="10" x1="-31.625" y1="100.789" x2="87.695" y2="-18.531"/>
				
					<line fill="none" stroke="#00ABEB" stroke-width="0.15" stroke-miterlimit="10" x1="-28.791" y1="100.789" x2="90.529" y2="-18.531"/>
				
					<line fill="none" stroke="#00ABEB" stroke-width="0.15" stroke-miterlimit="10" x1="-25.956" y1="100.789" x2="93.364" y2="-18.531"/>
				
					<line fill="none" stroke="#00ABEB" stroke-width="0.15" stroke-miterlimit="10" x1="-23.121" y1="100.789" x2="96.199" y2="-18.531"/>
				
					<line fill="none" stroke="#00ABEB" stroke-width="0.15" stroke-miterlimit="10" x1="-20.287" y1="100.789" x2="99.033" y2="-18.531"/>
				
					<line fill="none" stroke="#00ABEB" stroke-width="0.15" stroke-miterlimit="10" x1="-17.452" y1="100.789" x2="101.868" y2="-18.531"/>
				
					<line fill="none" stroke="#00ABEB" stroke-width="0.15" stroke-miterlimit="10" x1="-14.617" y1="100.789" x2="104.703" y2="-18.531"/>
				
					<line fill="none" stroke="#00ABEB" stroke-width="0.15" stroke-miterlimit="10" x1="-11.783" y1="100.789" x2="107.537" y2="-18.531"/>
				
					<line fill="none" stroke="#00ABEB" stroke-width="0.15" stroke-miterlimit="10" x1="-8.948" y1="100.789" x2="110.372" y2="-18.531"/>
				
					<line fill="none" stroke="#00ABEB" stroke-width="0.15" stroke-miterlimit="10" x1="-6.113" y1="100.789" x2="113.207" y2="-18.531"/>
				
					<line fill="none" stroke="#00ABEB" stroke-width="0.15" stroke-miterlimit="10" x1="-3.279" y1="100.789" x2="116.041" y2="-18.531"/>
				
					<line fill="none" stroke="#00ABEB" stroke-width="0.15" stroke-miterlimit="10" x1="-0.444" y1="100.789" x2="118.876" y2="-18.531"/>
				
					<line fill="none" stroke="#00ABEB" stroke-width="0.15" stroke-miterlimit="10" x1="2.39" y1="100.789" x2="121.71" y2="-18.531"/>
				
					<line fill="none" stroke="#00ABEB" stroke-width="0.15" stroke-miterlimit="10" x1="5.225" y1="100.789" x2="124.545" y2="-18.531"/>
				
					<line fill="none" stroke="#00ABEB" stroke-width="0.15" stroke-miterlimit="10" x1="8.06" y1="100.789" x2="127.38" y2="-18.531"/>
				
					<line fill="none" stroke="#00ABEB" stroke-width="0.15" stroke-miterlimit="10" x1="10.894" y1="100.789" x2="130.214" y2="-18.531"/>
				
					<line fill="none" stroke="#00ABEB" stroke-width="0.15" stroke-miterlimit="10" x1="13.729" y1="100.789" x2="133.049" y2="-18.531"/>
				
					<line fill="none" stroke="#00ABEB" stroke-width="0.15" stroke-miterlimit="10" x1="16.564" y1="100.789" x2="135.884" y2="-18.531"/>
				
					<line fill="none" stroke="#00ABEB" stroke-width="0.15" stroke-miterlimit="10" x1="19.398" y1="100.789" x2="138.718" y2="-18.531"/>
				
					<line fill="none" stroke="#00ABEB" stroke-width="0.15" stroke-miterlimit="10" x1="22.233" y1="100.789" x2="141.553" y2="-18.531"/>
				
					<line fill="none" stroke="#00ABEB" stroke-width="0.15" stroke-miterlimit="10" x1="25.068" y1="100.789" x2="144.388" y2="-18.531"/>
				
					<line fill="none" stroke="#00ABEB" stroke-width="0.15" stroke-miterlimit="10" x1="27.902" y1="100.789" x2="147.222" y2="-18.531"/>
				
					<line fill="none" stroke="#00ABEB" stroke-width="0.15" stroke-miterlimit="10" x1="30.737" y1="100.789" x2="150.057" y2="-18.531"/>
				
					<line fill="none" stroke="#00ABEB" stroke-width="0.15" stroke-miterlimit="10" x1="33.572" y1="100.789" x2="152.892" y2="-18.531"/>
				
					<line fill="none" stroke="#00ABEB" stroke-width="0.15" stroke-miterlimit="10" x1="36.406" y1="100.789" x2="155.726" y2="-18.531"/>
				
					<line fill="none" stroke="#00ABEB" stroke-width="0.15" stroke-miterlimit="10" x1="39.241" y1="100.789" x2="158.561" y2="-18.531"/>
				
					<line fill="none" stroke="#00ABEB" stroke-width="0.15" stroke-miterlimit="10" x1="42.076" y1="100.789" x2="161.396" y2="-18.531"/>
				
					<line fill="none" stroke="#00ABEB" stroke-width="0.15" stroke-miterlimit="10" x1="44.91" y1="100.789" x2="164.23" y2="-18.531"/>
				
					<line fill="none" stroke="#00ABEB" stroke-width="0.15" stroke-miterlimit="10" x1="47.745" y1="100.789" x2="167.065" y2="-18.531"/>
				
					<line fill="none" stroke="#00ABEB" stroke-width="0.15" stroke-miterlimit="10" x1="50.579" y1="100.789" x2="169.899" y2="-18.531"/>
				
					<line fill="none" stroke="#00ABEB" stroke-width="0.15" stroke-miterlimit="10" x1="53.414" y1="100.789" x2="172.734" y2="-18.531"/>
				
					<line fill="none" stroke="#00ABEB" stroke-width="0.15" stroke-miterlimit="10" x1="56.249" y1="100.789" x2="175.569" y2="-18.531"/>
				
					<line fill="none" stroke="#00ABEB" stroke-width="0.15" stroke-miterlimit="10" x1="59.083" y1="100.789" x2="178.403" y2="-18.531"/>
				
					<line fill="none" stroke="#00ABEB" stroke-width="0.15" stroke-miterlimit="10" x1="61.918" y1="100.789" x2="181.238" y2="-18.531"/>
				
					<line fill="none" stroke="#00ABEB" stroke-width="0.15" stroke-miterlimit="10" x1="64.753" y1="100.789" x2="184.073" y2="-18.531"/>
				
					<line fill="none" stroke="#00ABEB" stroke-width="0.15" stroke-miterlimit="10" x1="67.587" y1="100.789" x2="186.907" y2="-18.531"/>
			</g>
			<g id="Horizontal_5_mm_00000011735556503592991880000008134099091165005186_">
				
					<line fill="none" stroke="#00ABEB" stroke-width="0.3" stroke-miterlimit="10" x1="-159.544" y1="100.798" x2="67.572" y2="100.798"/>
				
					<line fill="none" stroke="#00ABEB" stroke-width="0.3" stroke-miterlimit="10" x1="-149.604" y1="90.859" x2="77.511" y2="90.859"/>
				
					<line fill="none" stroke="#00ABEB" stroke-width="0.3" stroke-miterlimit="10" x1="-139.665" y1="80.919" x2="87.451" y2="80.919"/>
				
					<line fill="none" stroke="#00ABEB" stroke-width="0.3" stroke-miterlimit="10" x1="-129.724" y1="70.979" x2="97.391" y2="70.979"/>
				
					<line fill="none" stroke="#00ABEB" stroke-width="0.3" stroke-miterlimit="10" x1="-119.785" y1="61.04" x2="107.331" y2="61.04"/>
				
					<line fill="none" stroke="#00ABEB" stroke-width="0.3" stroke-miterlimit="10" x1="-109.845" y1="51.1" x2="117.271" y2="51.1"/>
				
					<line fill="none" stroke="#00ABEB" stroke-width="0.3" stroke-miterlimit="10" x1="-99.906" y1="41.161" x2="127.21" y2="41.161"/>
				
					<line fill="none" stroke="#00ABEB" stroke-width="0.3" stroke-miterlimit="10" x1="-89.966" y1="31.221" x2="137.15" y2="31.221"/>
				
					<line fill="none" stroke="#00ABEB" stroke-width="0.3" stroke-miterlimit="10" x1="-80.026" y1="21.281" x2="147.09" y2="21.281"/>
				
					<line fill="none" stroke="#00ABEB" stroke-width="0.3" stroke-miterlimit="10" x1="-70.086" y1="11.341" x2="157.029" y2="11.341"/>
				
					<line fill="none" stroke="#00ABEB" stroke-width="0.3" stroke-miterlimit="10" x1="-60.147" y1="1.402" x2="166.969" y2="1.402"/>
			</g>
			<g id="Vertical_5_mm_00000064346364918789686960000003233481195482251947_">
				
					<line fill="none" stroke="#00ABEB" stroke-width="0.3" stroke-miterlimit="10" x1="-159.184" y1="100.789" x2="-39.671" y2="-18.723"/>
				
					<line fill="none" stroke="#00ABEB" stroke-width="0.3" stroke-miterlimit="10" x1="-145.011" y1="100.789" x2="-25.498" y2="-18.723"/>
				
					<line fill="none" stroke="#00ABEB" stroke-width="0.3" stroke-miterlimit="10" x1="-130.838" y1="100.789" x2="-11.325" y2="-18.723"/>
				
					<line fill="none" stroke="#00ABEB" stroke-width="0.3" stroke-miterlimit="10" x1="-116.665" y1="100.789" x2="2.848" y2="-18.723"/>
				
					<line fill="none" stroke="#00ABEB" stroke-width="0.3" stroke-miterlimit="10" x1="-102.491" y1="100.789" x2="17.022" y2="-18.723"/>
				
					<line fill="none" stroke="#00ABEB" stroke-width="0.3" stroke-miterlimit="10" x1="-88.318" y1="100.789" x2="31.195" y2="-18.723"/>
				
					<line fill="none" stroke="#00ABEB" stroke-width="0.3" stroke-miterlimit="10" x1="-74.145" y1="100.789" x2="45.368" y2="-18.723"/>
				
					<line fill="none" stroke="#00ABEB" stroke-width="0.3" stroke-miterlimit="10" x1="-59.972" y1="100.789" x2="59.541" y2="-18.723"/>
				
					<line fill="none" stroke="#00ABEB" stroke-width="0.3" stroke-miterlimit="10" x1="-45.799" y1="100.789" x2="73.713" y2="-18.723"/>
				
					<line fill="none" stroke="#00ABEB" stroke-width="0.3" stroke-miterlimit="10" x1="-31.625" y1="100.789" x2="87.888" y2="-18.723"/>
				
					<line fill="none" stroke="#00ABEB" stroke-width="0.3" stroke-miterlimit="10" x1="-17.452" y1="100.789" x2="102.061" y2="-18.723"/>
				
					<line fill="none" stroke="#00ABEB" stroke-width="0.3" stroke-miterlimit="10" x1="-3.279" y1="100.789" x2="116.233" y2="-18.723"/>
				
					<line fill="none" stroke="#00ABEB" stroke-width="0.3" stroke-miterlimit="10" x1="10.894" y1="100.789" x2="130.407" y2="-18.723"/>
				
					<line fill="none" stroke="#00ABEB" stroke-width="0.3" stroke-miterlimit="10" x1="25.068" y1="100.789" x2="144.581" y2="-18.723"/>
				
					<line fill="none" stroke="#00ABEB" stroke-width="0.3" stroke-miterlimit="10" x1="39.241" y1="100.789" x2="158.754" y2="-18.723"/>
				
					<line fill="none" stroke="#00ABEB" stroke-width="0.3" stroke-miterlimit="10" x1="53.414" y1="100.789" x2="172.927" y2="-18.723"/>
				
					<line fill="none" stroke="#00ABEB" stroke-width="0.3" stroke-miterlimit="10" x1="67.587" y1="100.789" x2="187.1" y2="-18.723"/>
			</g>
			<g id="Horizontal_10_mm_00000163045836177147705350000008480455355013810362_">
				
					<line id="_x31_9_00000057116790517712807720000015084113881736219806_" fill="none" stroke="#00ABEB" stroke-width="0.7" stroke-miterlimit="10" x1="-159.544" y1="100.798" x2="67.572" y2="100.798"/>
				
					<line id="_x32_0_00000024685878617286333290000013167547815532084100_" fill="none" stroke="#00ABEB" stroke-width="0.7" stroke-miterlimit="10" x1="-139.665" y1="80.919" x2="87.451" y2="80.919"/>
				
					<line id="_x32_1_00000138564813020868535020000012777939180148238773_" fill="none" stroke="#00ABEB" stroke-width="0.7" stroke-miterlimit="10" x1="-119.785" y1="61.04" x2="107.331" y2="61.04"/>
				
					<line id="_x32_2_00000052807586205252870140000014502512662559454639_" fill="none" stroke="#00ABEB" stroke-width="0.7" stroke-miterlimit="10" x1="-99.906" y1="41.161" x2="127.21" y2="41.161"/>
				
					<line id="_x32_3_00000051376893246677475670000009295515732899575694_" fill="none" stroke="#00ABEB" stroke-width="0.7" stroke-miterlimit="10" x1="-80.026" y1="21.281" x2="147.09" y2="21.281"/>
				
					<line id="_x32_4_00000099657911357833521510000007853591198542098087_" fill="none" stroke="#00ABEB" stroke-width="0.7" stroke-miterlimit="10" x1="-60.147" y1="1.402" x2="166.969" y2="1.402"/>
				
					<line id="_x32_5_00000155127691660191171140000008292164438978366870_" fill="none" stroke="#00ABEB" stroke-width="0.7" stroke-miterlimit="10" x1="-40.267" y1="-18.478" x2="186.849" y2="-18.478"/>
			</g>
			<g id="Vertical_10_mm_00000134969164297783457920000010833503864539426239_">
				
					<line id="_x30__00000151539528360119995570000005083818057555393183_" fill="none" stroke="#00ABEB" stroke-width="0.7" stroke-miterlimit="10" x1="-159.184" y1="100.789" x2="-39.671" y2="-18.723"/>
				
					<line id="_x31__00000021823889366233599640000011971139016478256513_" fill="none" stroke="#00ABEB" stroke-width="0.7" stroke-miterlimit="10" x1="-130.838" y1="100.789" x2="-11.325" y2="-18.723"/>
				
					<line id="_x32__00000071550223824624162640000006130814236846722696_" fill="none" stroke="#00ABEB" stroke-width="0.7" stroke-miterlimit="10" x1="-102.491" y1="100.789" x2="17.022" y2="-18.723"/>
				
					<line id="_x33__00000042015976804734918030000005045165563697445304_" fill="none" stroke="#00ABEB" stroke-width="0.7" stroke-miterlimit="10" x1="-74.145" y1="100.789" x2="45.368" y2="-18.723"/>
				
					<line id="_x34__00000081637789328126233800000002486991317463304126_" fill="none" stroke="#00ABEB" stroke-width="0.7" stroke-miterlimit="10" x1="-45.799" y1="100.789" x2="73.713" y2="-18.723"/>
				
					<line id="_x35__00000051353690731882489090000004794744233340785543_" fill="none" stroke="#00ABEB" stroke-width="0.7" stroke-miterlimit="10" x1="-17.452" y1="100.789" x2="102.061" y2="-18.723"/>
				
					<line id="_x36__00000011745311307505536660000010485558803267122343_" fill="none" stroke="#00ABEB" stroke-width="0.7" stroke-miterlimit="10" x1="10.894" y1="100.789" x2="130.407" y2="-18.723"/>
				
					<line id="_x37__00000045602144989735358580000003937589459941247142_" fill="none" stroke="#00ABEB" stroke-width="0.7" stroke-miterlimit="10" x1="39.241" y1="100.789" x2="158.754" y2="-18.723"/>
				
					<line id="_x38__00000047029857857898873560000014194396358708286345_" fill="none" stroke="#00ABEB" stroke-width="0.7" stroke-miterlimit="10" x1="67.587" y1="100.789" x2="187.1" y2="-18.723"/>
			</g>
		</g>
	</g>
</g>
<g id="Axis">
	<g id="lines">
		<g>
			<g>
				
					<line fill="none" stroke="#000000" stroke-width="0.2" stroke-miterlimit="10" x1="13.834" y1="41.151" x2="13.834" y2="2.151"/>
				<g>
					<polygon points="14.574,2.713 13.834,2.398 13.093,2.713 13.834,0.957 					"/>
				</g>
			</g>
		</g>
		<g>
			<g>
				
					<line fill="none" stroke="#000000" stroke-width="0.2" stroke-miterlimit="10" x1="13.834" y1="41.151" x2="53.831" y2="41.151"/>
				<g>
					<polygon points="53.269,41.891 53.584,41.151 53.269,40.41 55.025,41.151 					"/>
				</g>
			</g>
		</g>
		<g>
			<g>
				
					<line fill="none" stroke="#000000" stroke-width="0.2" stroke-miterlimit="10" x1="13.834" y1="41.151" x2="-12.139" y2="67.124"/>
				<g>
					<polygon points="-12.265,66.203 -11.964,66.949 -11.218,67.25 -12.983,67.968 					"/>
				</g>
			</g>
		</g>
	</g>
	<g id="names">
		<g>
			<path d="M52.82,46.553c0.51-0.846,0.732-1.277,0.732-1.542c0-0.084-0.042-0.12-0.156-0.192c-0.12-0.078-0.156-0.138-0.156-0.234
				c0-0.132,0.102-0.222,0.24-0.222c0.18,0,0.312,0.15,0.312,0.33c0,0.342-0.288,1.001-0.786,1.829
				c-0.624,1.032-1.265,1.721-1.607,1.721c-0.18,0-0.306-0.102-0.306-0.258c0-0.132,0.102-0.24,0.234-0.24
				c0.21,0,0.21,0.167,0.366,0.167c0.078,0,0.15-0.048,0.288-0.198c0.108-0.114,0.378-0.468,0.426-0.545
				c0.036-0.072,0.06-0.144,0.06-0.21c0-0.24-0.33-1.583-0.492-1.991c-0.114-0.293-0.222-0.384-0.462-0.384
				c-0.066,0-0.12,0.006-0.186,0.024v-0.102c0.066-0.012,0.132-0.024,0.192-0.036c0.12-0.024,0.318-0.06,0.642-0.108h0.024
				c0.09,0,0.408,0.996,0.51,1.529L52.82,46.553z"/>
		</g>
		<g>
			<path d="M8.968,3.199c0.348,0.078,0.479,0.144,0.719,0.498c0.156,0.228,0.27,0.3,0.42,0.3c0.096,0,0.162-0.036,0.162-0.09
				c0-0.024-0.012-0.054-0.03-0.09c-0.036-0.072-0.048-0.12-0.048-0.167c0.006-0.102,0.102-0.204,0.198-0.204
				c0.126,0,0.21,0.09,0.21,0.222c0,0.24-0.222,0.456-0.558,0.456c-0.174,0-0.378-0.078-0.678-0.264
				C9.081,3.684,8.889,3.607,8.734,3.607c-0.096,0-0.174,0.03-0.27,0.108L8.409,3.661l1.859-2.231H9.453
				c-0.312,0-0.426,0.054-0.545,0.36L8.811,1.765L9.003,1.07H10.7v0.066L8.968,3.199z"/>
		</g>
		<g>
			<path d="M3.549,48.318c0.419-0.642,0.642-0.857,0.905-0.857c0.144,0,0.246,0.09,0.246,0.222c0,0.126-0.084,0.216-0.204,0.216
				c-0.114,0-0.168-0.102-0.312-0.102c-0.108,0-0.324,0.264-0.588,0.726c0,0.042,0.012,0.126,0.048,0.27l0.192,0.804
				c0.042,0.168,0.096,0.246,0.18,0.246c0.078,0,0.144-0.06,0.282-0.24c0.054-0.072,0.078-0.108,0.126-0.168l0.09,0.054
				c-0.348,0.54-0.504,0.684-0.731,0.684c-0.192,0-0.282-0.108-0.354-0.408l-0.174-0.714l-0.528,0.714
				c-0.264,0.354-0.384,0.408-0.57,0.408c-0.186,0-0.3-0.096-0.3-0.252c0-0.12,0.084-0.216,0.204-0.216
				c0.054,0,0.114,0.024,0.192,0.066c0.06,0.036,0.12,0.054,0.156,0.054c0.066,0,0.18-0.114,0.306-0.294l0.492-0.696L3.039,48.09
				c-0.084-0.36-0.126-0.408-0.276-0.408c-0.048,0-0.12,0.012-0.234,0.042l-0.108,0.03l-0.018-0.096l0.066-0.024
				c0.366-0.132,0.564-0.174,0.702-0.174c0.15,0,0.222,0.108,0.306,0.516L3.549,48.318z"/>
		</g>
		<g>
			<path fill="#0000FF" d="M20.794,44.868c-0.45,0.545-0.594,0.66-0.833,0.66c-0.168,0-0.24-0.072-0.24-0.246
				c0-0.15,0.012-0.198,0.138-0.689c-0.45,0.678-0.797,0.941-1.217,0.941c-0.336,0-0.6-0.24-0.6-0.696
				c0-0.929,0.917-2.015,1.715-2.015c0.258,0,0.432,0.126,0.48,0.348l0.066-0.288l0.018-0.018l0.366-0.042l0.042,0.018
				c-0.012,0.054-0.018,0.066-0.036,0.126c-0.282,1.025-0.534,2.057-0.534,2.177c0,0.042,0.036,0.078,0.084,0.078
				c0.054,0,0.132-0.048,0.312-0.246l0.162-0.174L20.794,44.868z M19.792,42.954c-0.27,0-0.534,0.186-0.786,0.552
				c-0.252,0.378-0.462,0.912-0.462,1.289c0,0.33,0.144,0.444,0.36,0.444c0.3,0,0.582-0.33,0.762-0.587
				c0.282-0.408,0.462-0.924,0.462-1.35C20.128,43.093,20.002,42.954,19.792,42.954z"/>
		</g>
	</g>
</g>
<g id="sphere">
	<circle opacity="0.05" fill="#FF0000" cx="13.834" cy="41.151" r="28.347"/>
	<circle fill="none" stroke="#FF0000" stroke-width="0.4" stroke-miterlimit="10" cx="13.834" cy="41.151" r="28.347"/>
	<g>
		
			<ellipse fill="none" stroke="#FF0000" stroke-width="0.1" stroke-miterlimit="10" stroke-dasharray="3,3" cx="13.834" cy="41.151" rx="28.347" ry="5.372"/>
		<path fill="none" stroke="#FF0000" stroke-width="0.1" stroke-miterlimit="10" d="M42.181,41.151
			c0,2.967-12.691,5.372-28.347,5.372s-28.347-2.405-28.347-5.372"/>
	</g>
</g>
<g id="dS_00000173845004210439059270000015314120835834993593_">
	<path fill="none" stroke="#0000FF" stroke-width="0.1" stroke-miterlimit="10" d="M13.834,20.112"/>
	<path id="dS" opacity="0.1" fill="#FF0000" d="M29.464,18.886c-0.502,0.152-1.174,0.295-1.988,0.426l0,0
		c-0.604-0.642-1.234-1.244-1.89-1.802l0,0c0.673-0.116,1.215-0.243,1.603-0.377l0,0C27.978,17.673,28.737,18.258,29.464,18.886
		L29.464,18.886z"/>
	
		<path id="dS_00000080909473959629088630000017174551033345834151_" fill="none" stroke="#FF0000" stroke-width="0.2" stroke-linecap="round" stroke-linejoin="round" stroke-miterlimit="10" d="
		M29.464,18.886c-0.502,0.152-1.174,0.295-1.988,0.426l0,0c-0.604-0.642-1.234-1.244-1.89-1.802l0,0
		c0.673-0.116,1.215-0.243,1.603-0.377l0,0C27.977,17.673,28.736,18.258,29.464,18.886L29.464,18.886z"/>
	<g>
		<path fill="#FF0000" d="M16.987,8.803l2.398-4.006h0.156l0.792,4.006H16.987z M19.122,5.649L17.593,8.24h2.051L19.122,5.649z"/>
		<path fill="#FF0000" d="M23.652,6.003l-0.108-0.018c0-0.612-0.132-0.978-0.714-0.978c-0.414,0-0.671,0.222-0.671,0.6
			c0,0.294,0.048,0.39,0.593,0.936c0.546,0.552,0.678,0.81,0.678,1.199c0,0.684-0.521,1.169-1.211,1.169
			c-0.186,0-0.348-0.042-0.624-0.138c-0.162-0.06-0.216-0.072-0.282-0.072c-0.12,0-0.216,0.054-0.258,0.192h-0.108l0.204-1.343
			l0.12,0.012c-0.012,0.054-0.012,0.096-0.012,0.138c0,0.588,0.36,1.001,0.864,1.001c0.462,0,0.786-0.312,0.786-0.768
			c0-0.258-0.084-0.438-0.36-0.737l-0.234-0.252c-0.084-0.09-0.156-0.174-0.234-0.252c-0.36-0.384-0.45-0.576-0.45-0.899
			c0-0.63,0.492-0.983,1.067-0.983c0.186,0,0.384,0.03,0.51,0.084c0.126,0.048,0.198,0.066,0.276,0.066
			c0.132,0,0.186-0.03,0.27-0.156h0.138L23.652,6.003z"/>
	</g>
	<g>
		<path fill="#FF0000" d="M33.554,65.737l-0.108-0.018c0-0.612-0.132-0.978-0.714-0.978c-0.414,0-0.671,0.222-0.671,0.6
			c0,0.294,0.048,0.39,0.593,0.936c0.546,0.552,0.678,0.81,0.678,1.199c0,0.684-0.521,1.169-1.211,1.169
			c-0.186,0-0.348-0.042-0.624-0.138c-0.162-0.06-0.216-0.072-0.282-0.072c-0.12,0-0.216,0.054-0.258,0.192h-0.108l0.204-1.343
			l0.12,0.012c-0.012,0.054-0.012,0.096-0.012,0.138c0,0.588,0.36,1.001,0.864,1.001c0.462,0,0.786-0.312,0.786-0.768
			c0-0.258-0.084-0.438-0.36-0.737l-0.234-0.252c-0.084-0.09-0.156-0.174-0.234-0.252c-0.36-0.384-0.45-0.576-0.45-0.899
			c0-0.63,0.492-0.983,1.067-0.983c0.186,0,0.384,0.03,0.51,0.084c0.126,0.048,0.198,0.066,0.276,0.066
			c0.132,0,0.186-0.03,0.27-0.156h0.138L33.554,65.737z"/>
	</g>
	<line fill="none" stroke="#0000FF" stroke-width="0.1" stroke-miterlimit="10" x1="34.583" y1="44.81" x2="13.834" y2="41.151"/>
	<g>
		<path fill="#FF00FF" d="M14.644,20.785l2.399-4.006h0.156l0.792,4.006H14.644z M16.779,17.63l-1.529,2.591h2.051L16.779,17.63z"/>
		<path fill="#FF00FF" d="M20.66,20.149c-0.39,0.516-0.81,0.702-1.229,0.702c-0.486,0-0.768-0.396-0.768-1.031
			c0-1.29,0.677-2.351,1.331-2.849c0.264-0.198,0.492-0.252,0.731-0.252c0.426,0,0.738,0.288,0.738,1.001
			C21.464,18.692,21.104,19.555,20.66,20.149z M19.341,18.895c-0.114,0.3-0.174,0.612-0.174,0.99c0,0.534,0.114,0.839,0.336,0.839
			c0.576,0,1.091-1.241,1.235-1.829H19.341z M20.781,18.703c0.102-0.348,0.18-0.779,0.18-1.229c0-0.384-0.108-0.63-0.318-0.63
			c-0.521,0-1.109,1.325-1.259,1.859H20.781z"/>
	</g>
	<g>
		<path fill="#00B200" d="M20.889,32.153l2.399-4.006h0.156l0.792,4.006H20.889z M23.024,28.999l-1.529,2.591h2.051L23.024,28.999z"
			/>
		<path fill="#00B200" d="M27.229,29.509c0.276,0,0.438,0.006,0.606,0.072c0.294,0.114,0.479,0.33,0.479,0.756
			c0,0.695-0.653,1.877-1.835,1.883l-0.324,1.164h-0.468l0.324-1.164c-0.258,0-0.492-0.018-0.642-0.066
			c-0.312-0.102-0.461-0.384-0.461-0.768c0-0.605,0.671-1.877,1.769-1.877h0.09l0.402-1.451h0.461L27.229,29.509z M26.732,29.635
			c-0.696,0-1.319,1.067-1.319,1.913c0,0.251,0.102,0.426,0.288,0.498c0.096,0.036,0.21,0.048,0.348,0.048L26.732,29.635z
			 M26.516,32.093c0.15,0,0.246-0.012,0.414-0.096c0.492-0.246,0.882-1.308,0.882-1.805c0-0.27-0.114-0.42-0.27-0.516
			c-0.06-0.036-0.222-0.042-0.348-0.042L26.516,32.093z"/>
	</g>
</g>
<g id="Layer_6">
</g>
<g id="n">
	<g>
		<g>
			
				<line fill="none" stroke="#00A300" stroke-width="0.3" stroke-miterlimit="10" stroke-dasharray="2,2" x1="27.526" y1="18.222" x2="22.17" y2="27.091"/>
			<g>
				<polygon fill="#00A300" points="21.634,25.606 21.928,25.545 22.23,26.993 23.652,26.586 23.734,26.874 22.002,27.37 				"/>
			</g>
		</g>
	</g>
	<g>
		
			<line fill="none" stroke="#00A300" stroke-width="0.1" stroke-miterlimit="10" stroke-dasharray="2,2" x1="13.834" y1="41.151" x2="33.049" y2="9.074"/>
		<g>
			<g>
				
					<line fill="none" stroke="#00A300" stroke-width="0.3" stroke-miterlimit="10" x1="27.526" y1="18.222" x2="32.881" y2="9.352"/>
				<g>
					<polygon fill="#00A300" points="33.417,10.837 33.124,10.899 32.822,9.451 31.399,9.858 31.317,9.569 33.049,9.074 					"/>
				</g>
			</g>
		</g>
		
			<polyline fill="none" stroke="#00A300" stroke-width="0.1" stroke-linecap="round" stroke-linejoin="round" stroke-miterlimit="10" points="
			28.048,17.357 28.76,17.795 28.76,17.795 28.26,18.58 		"/>
	</g>
	<g>
		<path fill="#00B200" d="M36.736,8.389c-0.405,0.553-0.554,0.672-0.833,0.672c-0.149,0-0.28-0.095-0.28-0.321
			c0-0.06,0.012-0.137,0.095-0.447l0.262-0.964c0.048-0.185,0.083-0.398,0.083-0.47c0-0.107-0.054-0.172-0.143-0.172
			c-0.238,0-0.506,0.292-0.881,0.845c-0.268,0.399-0.315,0.536-0.595,1.476h-0.446l0.571-2.083c0.006-0.03,0.012-0.065,0.012-0.101
			c0-0.119-0.083-0.155-0.387-0.161V6.568c0.482-0.095,0.648-0.119,0.964-0.185l0.024,0.012l-0.399,1.297
			c0.595-0.952,0.994-1.31,1.375-1.31c0.256,0,0.387,0.149,0.387,0.363c0,0.107-0.024,0.232-0.06,0.357l-0.333,1.208
			c-0.059,0.214-0.083,0.315-0.083,0.363c0,0.054,0.024,0.107,0.095,0.107c0.083,0,0.19-0.095,0.363-0.315
			c0.042-0.048,0.083-0.101,0.125-0.155L36.736,8.389z"/>
	</g>
	<g>
		<path fill="#00B200" d="M36.259,5.86l-0.851-1.72h-0.006l-0.845,1.72h-0.405l1.077-2.172h0.357l1.077,2.172H36.259z"/>
	</g>
</g>
<g id="Layer_7">
	<g>
		<path d="M41.382,21.512c0.176-0.22,0.352-0.316,0.576-0.316c0.388,0,0.667,0.355,0.667,0.852c0,0.58-0.364,1.027-0.839,1.027
			c-0.168,0-0.26-0.04-0.404-0.172v0.627c0,0.252,0.052,0.296,0.352,0.3v0.072h-0.967v-0.068c0.236-0.024,0.28-0.068,0.28-0.276
			v-1.871c0-0.188-0.028-0.228-0.164-0.228c-0.036,0-0.064,0-0.1,0.004v-0.064c0.22-0.068,0.364-0.12,0.576-0.204l0.024,0.008
			V21.512z M41.382,22.683c0,0.12,0.228,0.264,0.416,0.264c0.288,0,0.484-0.3,0.484-0.74c0-0.468-0.196-0.771-0.492-0.771
			c-0.184,0-0.408,0.144-0.408,0.264V22.683z"/>
		<path d="M42.81,23.035v-0.06c0.276-0.016,0.316-0.052,0.316-0.356v-0.907c0-0.188-0.032-0.252-0.132-0.252
			c-0.036,0-0.096,0-0.168,0.02v-0.064l0.62-0.22l0.016,0.016v1.403c0,0.296,0.032,0.34,0.295,0.36v0.06H42.81z M43.258,20.712
			c-0.112,0-0.2-0.088-0.2-0.204c0-0.112,0.092-0.204,0.204-0.204c0.116,0,0.204,0.092,0.204,0.204
			C43.466,20.624,43.378,20.712,43.258,20.712z"/>
		<path d="M45.553,22.407c-0.156,0.436-0.436,0.667-0.835,0.667c-0.472,0-0.759-0.356-0.759-0.908c0-0.563,0.324-0.971,0.827-0.971
			c0.248,0,0.428,0.096,0.556,0.276c0.08,0.112,0.12,0.24,0.136,0.456h-1.231c0.02,0.304,0.04,0.46,0.184,0.652
			c0.112,0.148,0.26,0.22,0.444,0.22c0.268,0,0.419-0.124,0.616-0.42L45.553,22.407z M45.07,21.799
			c-0.044-0.324-0.128-0.46-0.392-0.46c-0.224,0-0.379,0.16-0.423,0.46H45.07z"/>
		<path d="M47.281,22.447c-0.128,0.248-0.208,0.364-0.328,0.46c-0.136,0.112-0.288,0.168-0.46,0.168
			c-0.443,0-0.759-0.372-0.759-0.888c0-0.332,0.12-0.607,0.335-0.788c0.16-0.132,0.352-0.204,0.54-0.204
			c0.336,0,0.616,0.188,0.616,0.412c0,0.092-0.084,0.168-0.188,0.168c-0.088,0-0.16-0.068-0.192-0.184l-0.024-0.088
			c-0.04-0.148-0.092-0.192-0.236-0.192c-0.324,0-0.544,0.28-0.544,0.696c0,0.459,0.252,0.779,0.62,0.779
			c0.228,0,0.372-0.096,0.564-0.375L47.281,22.447z"/>
		<path d="M49.105,22.407c-0.156,0.436-0.436,0.667-0.835,0.667c-0.472,0-0.759-0.356-0.759-0.908c0-0.563,0.324-0.971,0.827-0.971
			c0.248,0,0.428,0.096,0.556,0.276c0.08,0.112,0.12,0.24,0.136,0.456h-1.231c0.02,0.304,0.04,0.46,0.184,0.652
			c0.112,0.148,0.26,0.22,0.444,0.22c0.268,0,0.419-0.124,0.616-0.42L49.105,22.407z M48.621,21.799
			c-0.044-0.324-0.128-0.46-0.392-0.46c-0.224,0-0.379,0.16-0.423,0.46H48.621z"/>
		<path d="M51.165,23.075c-0.484,0-0.864-0.396-0.864-0.952s0.36-0.927,0.9-0.927c0.487,0,0.863,0.364,0.863,0.916
			C52.065,22.667,51.705,23.075,51.165,23.075z M51.505,21.507c-0.096-0.12-0.208-0.2-0.38-0.2c-0.276,0-0.464,0.236-0.464,0.636
			c0,0.316,0.064,0.604,0.212,0.819c0.088,0.128,0.216,0.2,0.36,0.2c0.296,0,0.472-0.28,0.472-0.744
			C51.705,21.947,51.633,21.671,51.505,21.507z"/>
		<path d="M52.597,21.236c0.004-0.32,0.036-0.464,0.14-0.644c0.104-0.18,0.312-0.288,0.563-0.288c0.24,0,0.416,0.104,0.416,0.248
			c0,0.092-0.072,0.164-0.168,0.164c-0.068,0-0.116-0.036-0.18-0.144c-0.072-0.116-0.124-0.156-0.212-0.156
			c-0.152,0-0.224,0.12-0.224,0.356v0.464h0.488v0.128h-0.488v1.255c0,0.3,0.044,0.344,0.372,0.356v0.06h-1.039v-0.06
			c0.288-0.016,0.332-0.064,0.332-0.356v-1.255H52.27v-0.128H52.597z"/>
		<path d="M56.165,22.447c-0.128,0.248-0.208,0.364-0.328,0.46c-0.136,0.112-0.288,0.168-0.46,0.168
			c-0.443,0-0.759-0.372-0.759-0.888c0-0.332,0.12-0.607,0.335-0.788c0.16-0.132,0.352-0.204,0.54-0.204
			c0.336,0,0.616,0.188,0.616,0.412c0,0.092-0.084,0.168-0.188,0.168c-0.088,0-0.16-0.068-0.192-0.184l-0.024-0.088
			c-0.04-0.148-0.092-0.192-0.236-0.192c-0.324,0-0.544,0.28-0.544,0.696c0,0.459,0.252,0.779,0.62,0.779
			c0.228,0,0.372-0.096,0.564-0.375L56.165,22.447z"/>
		<path d="M56.358,23.035v-0.06c0.276-0.016,0.316-0.052,0.316-0.356v-0.907c0-0.188-0.032-0.252-0.132-0.252
			c-0.036,0-0.096,0-0.168,0.02v-0.064l0.62-0.22l0.016,0.016v1.403c0,0.296,0.032,0.34,0.295,0.36v0.06H56.358z M56.805,20.712
			c-0.112,0-0.2-0.088-0.2-0.204c0-0.112,0.092-0.204,0.204-0.204c0.116,0,0.204,0.092,0.204,0.204
			C57.013,20.624,56.926,20.712,56.805,20.712z"/>
		<path d="M58.045,21.571c0.2-0.288,0.312-0.375,0.479-0.375c0.136,0,0.22,0.08,0.22,0.212c0,0.112-0.06,0.18-0.156,0.18
			c-0.052,0-0.096-0.02-0.16-0.08c-0.044-0.04-0.08-0.06-0.104-0.06c-0.112,0-0.28,0.2-0.28,0.328v0.899
			c0,0.228,0.068,0.288,0.34,0.3v0.06h-0.959v-0.06c0.256-0.048,0.284-0.076,0.284-0.276v-1c0-0.176-0.036-0.24-0.136-0.24
			c-0.048,0-0.084,0.004-0.14,0.016v-0.064c0.236-0.076,0.38-0.132,0.592-0.216l0.02,0.008V21.571z"/>
		<path d="M60.377,22.447c-0.128,0.248-0.208,0.364-0.328,0.46c-0.136,0.112-0.288,0.168-0.46,0.168
			c-0.443,0-0.759-0.372-0.759-0.888c0-0.332,0.12-0.607,0.335-0.788c0.16-0.132,0.352-0.204,0.54-0.204
			c0.336,0,0.616,0.188,0.616,0.412c0,0.092-0.084,0.168-0.188,0.168c-0.088,0-0.16-0.068-0.192-0.184l-0.024-0.088
			c-0.04-0.148-0.092-0.192-0.236-0.192c-0.324,0-0.544,0.28-0.544,0.696c0,0.459,0.252,0.779,0.62,0.779
			c0.228,0,0.372-0.096,0.564-0.375L60.377,22.447z"/>
		<path d="M60.59,23.035v-0.06c0.252-0.02,0.308-0.088,0.308-0.308v-1.875c0-0.192-0.04-0.256-0.167-0.256
			c-0.032,0-0.084,0-0.148,0.008V20.48c0.276-0.068,0.423-0.108,0.631-0.176l0.02,0.016v2.367c0,0.22,0.044,0.271,0.3,0.288v0.06
			H60.59z"/>
		<path d="M63.313,22.407c-0.156,0.436-0.436,0.667-0.836,0.667c-0.472,0-0.759-0.356-0.759-0.908c0-0.563,0.324-0.971,0.828-0.971
			c0.248,0,0.428,0.096,0.556,0.276c0.08,0.112,0.12,0.24,0.136,0.456h-1.231c0.02,0.304,0.04,0.46,0.184,0.652
			c0.112,0.148,0.26,0.22,0.444,0.22c0.268,0,0.419-0.124,0.615-0.42L63.313,22.407z M62.829,21.799
			c-0.044-0.324-0.128-0.46-0.392-0.46c-0.224,0-0.379,0.16-0.423,0.46H62.829z"/>
		<path d="M41.726,25.904c-0.484,0-0.864-0.396-0.864-0.952s0.36-0.927,0.9-0.927c0.487,0,0.863,0.364,0.863,0.916
			C42.625,25.496,42.265,25.904,41.726,25.904z M42.066,24.337c-0.096-0.12-0.208-0.2-0.38-0.2c-0.276,0-0.464,0.236-0.464,0.636
			c0,0.316,0.064,0.604,0.212,0.819c0.088,0.128,0.216,0.2,0.36,0.2c0.296,0,0.472-0.28,0.472-0.744
			C42.265,24.777,42.194,24.501,42.066,24.337z"/>
		<path d="M43.158,24.065c0.004-0.32,0.036-0.464,0.14-0.644c0.104-0.18,0.312-0.288,0.563-0.288c0.24,0,0.416,0.104,0.416,0.248
			c0,0.092-0.072,0.164-0.168,0.164c-0.068,0-0.116-0.036-0.18-0.144c-0.072-0.116-0.124-0.156-0.212-0.156
			c-0.152,0-0.224,0.12-0.224,0.356v0.464h0.488v0.128h-0.488v1.255c0,0.3,0.044,0.344,0.372,0.355v0.06h-1.039v-0.06
			c0.288-0.016,0.332-0.064,0.332-0.355v-1.255H42.83v-0.128H43.158z"/>
		<path d="M45.718,24.401c0.2-0.288,0.312-0.375,0.479-0.375c0.136,0,0.22,0.08,0.22,0.212c0,0.112-0.06,0.18-0.156,0.18
			c-0.052,0-0.096-0.02-0.16-0.08c-0.044-0.04-0.08-0.06-0.104-0.06c-0.112,0-0.28,0.2-0.28,0.328v0.899
			c0,0.228,0.068,0.288,0.34,0.3v0.06h-0.959v-0.06c0.256-0.048,0.284-0.076,0.284-0.276v-1c0-0.176-0.036-0.24-0.136-0.24
			c-0.048,0-0.084,0.004-0.14,0.016v-0.064c0.236-0.076,0.38-0.132,0.592-0.216l0.02,0.008V24.401z"/>
		<path d="M48.17,25.712c-0.12,0.152-0.224,0.192-0.36,0.192c-0.148,0-0.236-0.08-0.256-0.292H47.55
			c-0.212,0.24-0.408,0.292-0.58,0.292c-0.248,0-0.42-0.152-0.42-0.416c0-0.208,0.124-0.364,0.28-0.468
			c0.12-0.08,0.268-0.156,0.72-0.324v-0.216c0-0.248-0.132-0.36-0.312-0.36c-0.16,0-0.28,0.088-0.28,0.196
			c0,0.072,0.024,0.084,0.024,0.168c0,0.076-0.08,0.164-0.184,0.164c-0.084,0-0.172-0.076-0.172-0.184
			c0-0.104,0.064-0.232,0.204-0.32c0.112-0.072,0.28-0.12,0.46-0.12c0.224,0,0.375,0.064,0.472,0.18
			c0.096,0.116,0.112,0.2,0.112,0.444v0.764c0,0.184,0.052,0.264,0.124,0.264c0.064,0,0.104-0.02,0.172-0.076V25.712z M47.55,24.793
			c-0.248,0.088-0.412,0.172-0.512,0.264c-0.096,0.088-0.136,0.184-0.136,0.308c0,0.212,0.12,0.308,0.276,0.308
			c0.08,0,0.164-0.02,0.232-0.064c0.116-0.08,0.14-0.136,0.14-0.252V24.793z"/>
		<path d="M49.554,25.904l-0.016-0.012v-0.256c-0.136,0.188-0.288,0.268-0.512,0.268c-0.444,0-0.74-0.348-0.74-0.859
			c0-0.568,0.372-1.02,0.832-1.02c0.16,0,0.268,0.044,0.42,0.172v-0.624c0-0.164-0.036-0.204-0.184-0.204
			c-0.032,0-0.056,0-0.088,0.004v-0.064c0.256-0.068,0.396-0.108,0.588-0.176l0.02,0.008v2.267c0,0.184,0.032,0.228,0.176,0.228
			c0.02,0,0.024,0,0.092-0.004v0.064L49.554,25.904z M49.538,24.537c0-0.212-0.192-0.4-0.408-0.4c-0.304,0-0.5,0.296-0.5,0.748
			c0,0.492,0.216,0.812,0.552,0.812c0.124,0,0.224-0.044,0.296-0.128c0.036-0.04,0.06-0.084,0.06-0.112V24.537z"/>
		<path d="M50.242,25.864v-0.06c0.276-0.016,0.316-0.052,0.316-0.355v-0.908c0-0.188-0.032-0.252-0.132-0.252
			c-0.036,0-0.096,0-0.168,0.02v-0.064l0.62-0.22l0.016,0.016v1.403c0,0.296,0.032,0.34,0.295,0.36v0.06H50.242z M50.69,23.541
			c-0.112,0-0.2-0.088-0.2-0.204c0-0.112,0.092-0.204,0.204-0.204c0.116,0,0.204,0.092,0.204,0.204
			C50.898,23.453,50.81,23.541,50.69,23.541z"/>
		<path d="M53.209,25.72c-0.204,0.056-0.348,0.1-0.548,0.18l-0.02-0.012V25.56h-0.008c-0.196,0.268-0.424,0.344-0.572,0.344
			c-0.308,0-0.488-0.204-0.488-0.512v-1.003c0-0.2-0.056-0.256-0.248-0.268v-0.056h0.583v1.291c0,0.184,0.128,0.316,0.284,0.316
			c0.116,0,0.236-0.036,0.336-0.124c0.064-0.056,0.092-0.092,0.092-0.232v-0.923c0-0.212-0.056-0.244-0.295-0.26v-0.068h0.631v1.371
			c0,0.184,0.044,0.228,0.228,0.228h0.024V25.72z"/>
		<path d="M54.33,24.912c0.256,0.156,0.352,0.264,0.352,0.492c0,0.268-0.256,0.5-0.56,0.5c-0.084,0-0.2-0.004-0.292-0.036
			c-0.096-0.032-0.14-0.036-0.184-0.036c-0.048,0-0.072,0.008-0.096,0.048h-0.052v-0.628h0.064c0.084,0.388,0.232,0.564,0.508,0.564
			c0.204,0,0.332-0.132,0.332-0.296c0-0.124-0.08-0.228-0.212-0.3l-0.216-0.12c-0.332-0.184-0.479-0.375-0.479-0.58
			c0-0.316,0.224-0.492,0.551-0.492c0.096,0,0.184,0.004,0.268,0.044c0.044,0.02,0.084,0.032,0.112,0.032
			c0.016,0,0.032-0.004,0.064-0.04h0.044l0.02,0.543h-0.06c-0.092-0.36-0.212-0.492-0.452-0.492c-0.172,0-0.3,0.084-0.3,0.272
			c0,0.088,0.06,0.204,0.172,0.272L54.33,24.912z"/>
		<path d="M56.614,24.833c0.076-0.168,0.212-0.38,0.376-0.552c0.104-0.108,0.224-0.18,0.315-0.18c0.112,0,0.188,0.084,0.188,0.204
			s-0.068,0.216-0.188,0.216c-0.072,0-0.104-0.044-0.14-0.104c-0.024-0.04-0.036-0.056-0.064-0.056
			c-0.072,0-0.184,0.132-0.328,0.376c-0.172,0.296-0.244,0.456-0.444,1.127h-0.304l0.324-1.167c0.056-0.208,0.064-0.244,0.064-0.328
			s-0.072-0.104-0.152-0.104c-0.032,0-0.064,0.004-0.124,0.012v-0.068l0.62-0.108l0.012,0.008l-0.22,0.863L56.614,24.833z"/>
		<path d="M57.746,24.585v-0.264h2.015v0.264H57.746z M57.746,25.384V25.12h2.015v0.264H57.746z"/>
		<path d="M62.005,25.464c-0.3,0.364-0.396,0.44-0.556,0.44c-0.112,0-0.16-0.048-0.16-0.164c0-0.1,0.008-0.132,0.092-0.459
			c-0.3,0.452-0.532,0.627-0.812,0.627c-0.224,0-0.4-0.16-0.4-0.464c0-0.62,0.612-1.343,1.144-1.343c0.172,0,0.288,0.084,0.32,0.232
			l0.044-0.192l0.012-0.012l0.244-0.028l0.028,0.012c-0.008,0.036-0.012,0.044-0.024,0.084c-0.188,0.684-0.356,1.371-0.356,1.451
			c0,0.028,0.024,0.052,0.056,0.052c0.036,0,0.088-0.032,0.208-0.164l0.108-0.116L62.005,25.464z M61.337,24.189
			c-0.18,0-0.356,0.124-0.524,0.368c-0.167,0.252-0.308,0.607-0.308,0.859c0,0.22,0.096,0.296,0.24,0.296
			c0.2,0,0.388-0.22,0.508-0.392c0.188-0.272,0.308-0.616,0.308-0.9C61.561,24.281,61.477,24.189,61.337,24.189z"/>
		<path d="M62.426,25.908c-0.112,0-0.212-0.1-0.212-0.216c0-0.128,0.1-0.228,0.22-0.228c0.12,0,0.224,0.104,0.224,0.228
			C62.658,25.812,62.554,25.908,62.426,25.908z"/>
		<path d="M64.489,24.657h-0.064c-0.04-0.332-0.16-0.463-0.356-0.463c-0.14,0-0.236,0.08-0.236,0.228
			c0,0.108,0.06,0.224,0.216,0.408c0.2,0.232,0.272,0.388,0.272,0.544c0,0.332-0.244,0.536-0.576,0.536
			c-0.068,0-0.128-0.004-0.22-0.04c-0.076-0.032-0.132-0.036-0.176-0.036c-0.044,0-0.088,0.02-0.116,0.083H63.17l0.08-0.635h0.064
			c0.056,0.379,0.192,0.543,0.399,0.543c0.188,0,0.304-0.112,0.304-0.308c0-0.128-0.068-0.264-0.224-0.46
			c-0.172-0.216-0.252-0.396-0.252-0.523c0-0.264,0.188-0.432,0.484-0.432c0.068,0,0.124,0.012,0.224,0.04
			c0.076,0.024,0.112,0.028,0.144,0.028c0.06,0,0.088-0.016,0.12-0.072h0.056L64.489,24.657z"/>
		<path d="M65.601,25.453c-0.22,0.335-0.348,0.456-0.548,0.456c-0.132,0-0.196-0.072-0.196-0.22c0-0.08,0.028-0.22,0.088-0.444
			l0.192-0.708c0.02-0.072,0.036-0.144,0.036-0.176c0-0.08-0.04-0.092-0.256-0.096v-0.064c0.156-0.012,0.236-0.024,0.64-0.1
			l0.016,0.012l-0.376,1.371c-0.02,0.068-0.04,0.12-0.04,0.176c0,0.04,0.024,0.06,0.056,0.06c0.068,0,0.164-0.084,0.336-0.312
			L65.601,25.453z M65.521,23.673c-0.116,0-0.192-0.084-0.192-0.212c0-0.124,0.08-0.212,0.188-0.212s0.2,0.104,0.2,0.22
			C65.717,23.581,65.625,23.673,65.521,23.673z"/>
		<path d="M67.669,25.449c-0.272,0.372-0.372,0.452-0.56,0.452c-0.1,0-0.188-0.064-0.188-0.216c0-0.04,0.008-0.092,0.064-0.3
			l0.176-0.647c0.032-0.124,0.056-0.268,0.056-0.316c0-0.072-0.036-0.116-0.096-0.116c-0.16,0-0.34,0.196-0.592,0.567
			c-0.18,0.268-0.211,0.36-0.399,0.992h-0.3l0.384-1.399c0.004-0.02,0.008-0.044,0.008-0.068c0-0.08-0.056-0.104-0.26-0.108v-0.064
			c0.324-0.064,0.436-0.08,0.647-0.124l0.016,0.008l-0.268,0.872c0.4-0.64,0.668-0.88,0.924-0.88c0.172,0,0.26,0.1,0.26,0.244
			c0,0.072-0.016,0.156-0.04,0.24l-0.224,0.812c-0.04,0.144-0.056,0.212-0.056,0.244c0,0.036,0.016,0.072,0.064,0.072
			c0.056,0,0.128-0.064,0.244-0.212c0.028-0.032,0.056-0.068,0.084-0.104L67.669,25.449z"/>
		<path d="M69.429,24.101c0.184,0,0.292,0.004,0.404,0.048c0.196,0.076,0.32,0.22,0.32,0.503c0,0.464-0.436,1.251-1.224,1.255
			l-0.216,0.775h-0.312l0.216-0.775c-0.172,0-0.328-0.012-0.428-0.044c-0.208-0.068-0.308-0.256-0.308-0.512
			c0-0.404,0.448-1.251,1.179-1.251h0.06l0.268-0.967h0.308L69.429,24.101z M69.097,24.185c-0.464,0-0.879,0.712-0.879,1.275
			c0,0.168,0.068,0.284,0.192,0.332c0.064,0.024,0.14,0.032,0.232,0.032L69.097,24.185z M68.953,25.824
			c0.1,0,0.164-0.008,0.276-0.064c0.328-0.164,0.588-0.872,0.588-1.203c0-0.18-0.076-0.28-0.18-0.344
			c-0.04-0.024-0.148-0.028-0.232-0.028L68.953,25.824z"/>
	</g>
	<g>
		<path d="M40.845,30.084v-0.06c0.252-0.02,0.308-0.088,0.308-0.308v-1.875c0-0.192-0.04-0.256-0.168-0.256
			c-0.032,0-0.083,0-0.147,0.008V27.53c0.275-0.068,0.423-0.108,0.631-0.176l0.02,0.016v2.367c0,0.22,0.044,0.271,0.3,0.288v0.06
			H40.845z"/>
		<path d="M43.568,29.457c-0.156,0.436-0.436,0.667-0.835,0.667c-0.472,0-0.759-0.356-0.759-0.908c0-0.563,0.324-0.971,0.827-0.971
			c0.248,0,0.428,0.096,0.556,0.276c0.08,0.112,0.12,0.24,0.136,0.456h-1.231c0.02,0.304,0.04,0.46,0.184,0.652
			c0.112,0.148,0.26,0.22,0.444,0.22c0.268,0,0.419-0.124,0.616-0.42L43.568,29.457z M43.084,28.849
			c-0.044-0.324-0.128-0.46-0.392-0.46c-0.224,0-0.379,0.16-0.423,0.46H43.084z"/>
		<path d="M44.756,30.084l0.004-0.06c0.2-0.016,0.248-0.096,0.248-0.36v-0.795c0-0.284-0.096-0.404-0.292-0.404
			c-0.132,0-0.228,0.048-0.412,0.228v1.103c0,0.156,0.056,0.212,0.26,0.228v0.06h-0.844v-0.06c0.204-0.016,0.248-0.08,0.248-0.316
			v-0.971c0-0.196-0.028-0.26-0.14-0.26c-0.044,0-0.088,0.004-0.116,0.016v-0.068c0.22-0.064,0.352-0.108,0.548-0.18l0.032,0.012
			v0.312h0.004c0.208-0.236,0.392-0.324,0.576-0.324c0.304,0,0.472,0.22,0.472,0.616v0.883c0,0.216,0.048,0.26,0.244,0.28v0.06
			H44.756z"/>
		<path d="M47.196,28.533c0.056,0.128,0.076,0.22,0.076,0.336c0,0.208-0.064,0.356-0.208,0.464
			c-0.128,0.096-0.276,0.156-0.416,0.156c-0.024,0-0.08-0.004-0.152-0.012l-0.076-0.008c-0.108,0.032-0.24,0.172-0.24,0.252
			c0,0.064,0.096,0.096,0.312,0.108l0.516,0.024c0.296,0.012,0.483,0.18,0.483,0.428c0,0.16-0.076,0.292-0.24,0.42
			c-0.208,0.16-0.512,0.256-0.799,0.256c-0.384,0-0.692-0.176-0.692-0.388c0-0.148,0.104-0.28,0.392-0.488
			c-0.168-0.08-0.212-0.124-0.212-0.212c0-0.08,0.052-0.16,0.184-0.276c0.06-0.052,0.116-0.104,0.172-0.16
			c-0.268-0.132-0.372-0.284-0.372-0.536c0-0.364,0.296-0.651,0.667-0.651c0.104,0,0.212,0.02,0.32,0.06L47,28.337
			c0.08,0.028,0.14,0.04,0.22,0.04h0.308v0.156H47.196z M46.884,30.144c-0.196,0-0.512-0.024-0.647-0.052
			c-0.16,0.192-0.196,0.252-0.196,0.344c0,0.176,0.228,0.292,0.58,0.292c0.456,0,0.759-0.156,0.759-0.388
			C47.38,30.192,47.248,30.144,46.884,30.144z M46.256,28.745c0,0.384,0.164,0.644,0.412,0.644c0.18,0,0.296-0.14,0.296-0.36
			c0-0.164-0.044-0.344-0.12-0.483c-0.064-0.12-0.168-0.188-0.292-0.188c-0.184,0-0.296,0.14-0.296,0.376V28.745z"/>
		<path d="M48.764,29.821c-0.132,0.208-0.284,0.304-0.483,0.304c-0.232,0-0.352-0.172-0.352-0.508v-1.203h-0.212
			c-0.012-0.008-0.016-0.016-0.016-0.028c0-0.024,0.024-0.048,0.068-0.076c0.104-0.06,0.236-0.208,0.388-0.428
			c0.024-0.036,0.056-0.072,0.08-0.112c0.02,0,0.028,0.012,0.028,0.052v0.464h0.404v0.128h-0.404v1.143
			c0,0.256,0.06,0.36,0.208,0.36c0.088,0,0.152-0.036,0.24-0.14L48.764,29.821z"/>
		<path d="M49.892,30.084v-0.06c0.231-0.024,0.271-0.072,0.271-0.348v-0.792c0-0.28-0.1-0.424-0.296-0.424
			c-0.16,0-0.28,0.068-0.448,0.252v0.963c0,0.276,0.04,0.324,0.272,0.348v0.06h-0.863v-0.06c0.232-0.032,0.256-0.068,0.256-0.348
			v-1.883c0-0.172-0.032-0.204-0.204-0.204c-0.016,0-0.036,0-0.048,0.004V27.53l0.108-0.032c0.228-0.068,0.32-0.096,0.459-0.144
			l0.02,0.012v1.216c0.184-0.24,0.352-0.336,0.588-0.336c0.328,0,0.492,0.216,0.492,0.636v0.795c0,0.276,0.024,0.308,0.24,0.348
			v0.06H49.892z"/>
		<path d="M50.984,28.805v-0.264h2.354v0.264H50.984z M50.984,29.605v-0.264h2.354v0.264H50.984z"/>
		<path d="M55.436,29.684c-0.3,0.364-0.396,0.44-0.556,0.44c-0.112,0-0.16-0.048-0.16-0.164c0-0.1,0.008-0.132,0.092-0.459
			c-0.3,0.452-0.532,0.627-0.812,0.627c-0.224,0-0.4-0.16-0.4-0.464c0-0.62,0.612-1.343,1.144-1.343c0.172,0,0.288,0.084,0.32,0.232
			l0.044-0.192l0.012-0.012l0.244-0.028l0.028,0.012c-0.008,0.036-0.012,0.044-0.024,0.084c-0.188,0.684-0.356,1.371-0.356,1.451
			c0,0.028,0.024,0.052,0.056,0.052c0.036,0,0.088-0.032,0.208-0.164l0.108-0.116L55.436,29.684z M54.768,28.409
			c-0.18,0-0.356,0.124-0.524,0.368c-0.168,0.251-0.308,0.607-0.308,0.859c0,0.22,0.096,0.296,0.24,0.296
			c0.2,0,0.388-0.22,0.508-0.392c0.188-0.271,0.308-0.615,0.308-0.899C54.992,28.501,54.908,28.409,54.768,28.409z"/>
		<path d="M55.857,30.128c-0.112,0-0.212-0.1-0.212-0.216c0-0.128,0.1-0.228,0.22-0.228c0.12,0,0.224,0.104,0.224,0.228
			C56.089,30.033,55.985,30.128,55.857,30.128z"/>
		<path d="M57.92,28.877h-0.064c-0.04-0.332-0.16-0.463-0.356-0.463c-0.14,0-0.236,0.08-0.236,0.228c0,0.108,0.06,0.224,0.216,0.408
			c0.2,0.232,0.272,0.388,0.272,0.544c0,0.332-0.244,0.536-0.576,0.536c-0.068,0-0.128-0.004-0.22-0.04
			c-0.076-0.032-0.132-0.036-0.176-0.036s-0.088,0.02-0.116,0.084h-0.064l0.08-0.635h0.064c0.056,0.379,0.192,0.543,0.4,0.543
			c0.188,0,0.304-0.112,0.304-0.308c0-0.128-0.068-0.264-0.224-0.46c-0.172-0.216-0.252-0.396-0.252-0.523
			c0-0.264,0.188-0.432,0.484-0.432c0.068,0,0.124,0.012,0.224,0.04c0.076,0.024,0.112,0.028,0.144,0.028
			c0.06,0,0.088-0.016,0.12-0.072H58L57.92,28.877z"/>
		<path d="M59.033,29.673c-0.22,0.335-0.348,0.456-0.548,0.456c-0.132,0-0.196-0.072-0.196-0.22c0-0.08,0.028-0.22,0.088-0.444
			l0.192-0.708c0.02-0.072,0.036-0.144,0.036-0.176c0-0.08-0.04-0.092-0.256-0.096v-0.064c0.156-0.012,0.236-0.024,0.64-0.1
			l0.016,0.012l-0.376,1.371c-0.02,0.068-0.04,0.12-0.04,0.176c0,0.04,0.024,0.06,0.056,0.06c0.068,0,0.164-0.084,0.336-0.312
			L59.033,29.673z M58.952,27.893c-0.116,0-0.192-0.084-0.192-0.212c0-0.124,0.08-0.212,0.188-0.212s0.2,0.104,0.2,0.22
			C59.149,27.802,59.056,27.893,58.952,27.893z"/>
		<path d="M61.1,29.668c-0.272,0.372-0.372,0.452-0.56,0.452c-0.1,0-0.188-0.064-0.188-0.216c0-0.04,0.008-0.092,0.064-0.3
			l0.176-0.648c0.032-0.124,0.056-0.268,0.056-0.316c0-0.072-0.036-0.116-0.096-0.116c-0.16,0-0.34,0.196-0.592,0.568
			c-0.18,0.268-0.212,0.359-0.399,0.991h-0.3l0.384-1.399c0.004-0.02,0.008-0.044,0.008-0.068c0-0.08-0.056-0.104-0.26-0.108v-0.064
			c0.324-0.064,0.436-0.08,0.647-0.124l0.016,0.008l-0.268,0.872c0.4-0.64,0.668-0.88,0.924-0.88c0.172,0,0.26,0.1,0.26,0.244
			c0,0.072-0.016,0.156-0.04,0.24l-0.224,0.812c-0.04,0.144-0.056,0.212-0.056,0.244c0,0.036,0.016,0.072,0.064,0.072
			c0.056,0,0.128-0.064,0.244-0.212c0.028-0.032,0.056-0.068,0.084-0.104L61.1,29.668z"/>
		<path d="M62.86,28.321c0.184,0,0.292,0.004,0.404,0.048c0.196,0.076,0.32,0.22,0.32,0.503c0,0.464-0.436,1.251-1.224,1.255
			l-0.216,0.775h-0.312l0.216-0.775c-0.172,0-0.328-0.012-0.428-0.044c-0.208-0.068-0.308-0.256-0.308-0.512
			c0-0.404,0.448-1.251,1.179-1.251h0.06l0.268-0.967h0.308L62.86,28.321z M62.528,28.405c-0.464,0-0.879,0.712-0.879,1.275
			c0,0.168,0.068,0.284,0.192,0.332c0.064,0.024,0.14,0.032,0.232,0.032L62.528,28.405z M62.384,30.044
			c0.1,0,0.164-0.008,0.276-0.064c0.328-0.164,0.588-0.872,0.588-1.203c0-0.18-0.076-0.28-0.18-0.344
			c-0.04-0.024-0.148-0.028-0.231-0.028L62.384,30.044z"/>
		<path d="M64.033,30.128c-0.112,0-0.212-0.1-0.212-0.216c0-0.128,0.1-0.228,0.22-0.228c0.12,0,0.224,0.104,0.224,0.228
			C64.264,30.033,64.16,30.128,64.033,30.128z"/>
		<path d="M64.585,30.084l1.599-2.67h0.104l0.528,2.67H64.585z M66.008,27.981l-1.02,1.727h1.367L66.008,27.981z"/>
		<path d="M68.596,29.661c-0.26,0.344-0.54,0.468-0.82,0.468c-0.324,0-0.512-0.264-0.512-0.688c0-0.859,0.452-1.567,0.888-1.899
			c0.176-0.132,0.328-0.168,0.488-0.168c0.284,0,0.492,0.192,0.492,0.667C69.132,28.689,68.891,29.265,68.596,29.661z
			 M67.716,28.825c-0.076,0.2-0.116,0.408-0.116,0.66c0,0.356,0.076,0.56,0.224,0.56c0.384,0,0.728-0.828,0.824-1.219H67.716z
			 M68.676,28.697c0.068-0.232,0.12-0.52,0.12-0.82c0-0.256-0.072-0.419-0.212-0.419c-0.348,0-0.74,0.883-0.839,1.239H68.676z"/>
	</g>
	<g>
		<path d="M41.298,7.061c0.176-0.22,0.352-0.316,0.576-0.316c0.388,0,0.667,0.355,0.667,0.852c0,0.58-0.364,1.027-0.839,1.027
			c-0.168,0-0.26-0.04-0.404-0.172V9.08c0,0.252,0.052,0.296,0.352,0.3v0.072h-0.967V9.384c0.236-0.024,0.28-0.068,0.28-0.276V7.237
			c0-0.188-0.028-0.228-0.164-0.228c-0.036,0-0.064,0-0.1,0.004V6.949c0.22-0.068,0.364-0.12,0.576-0.204l0.024,0.008V7.061z
			 M41.298,8.233c0,0.12,0.228,0.264,0.416,0.264c0.288,0,0.484-0.3,0.484-0.74c0-0.468-0.196-0.771-0.492-0.771
			c-0.184,0-0.408,0.144-0.408,0.264V8.233z"/>
		<path d="M42.726,8.584v-0.06c0.276-0.016,0.316-0.052,0.316-0.356V7.261c0-0.188-0.032-0.252-0.132-0.252
			c-0.036,0-0.096,0-0.168,0.02V6.965l0.62-0.22l0.016,0.016v1.403c0,0.296,0.032,0.34,0.295,0.36v0.06H42.726z M43.174,6.262
			c-0.112,0-0.2-0.088-0.2-0.204c0-0.112,0.092-0.204,0.204-0.204c0.116,0,0.204,0.092,0.204,0.204
			C43.382,6.174,43.294,6.262,43.174,6.262z"/>
		<path d="M45.469,7.957c-0.156,0.436-0.436,0.667-0.835,0.667c-0.472,0-0.759-0.356-0.759-0.908c0-0.563,0.324-0.971,0.827-0.971
			c0.248,0,0.428,0.096,0.556,0.276c0.08,0.112,0.12,0.24,0.136,0.456h-1.231c0.02,0.304,0.04,0.46,0.184,0.652
			c0.112,0.148,0.26,0.22,0.444,0.22c0.268,0,0.419-0.124,0.616-0.42L45.469,7.957z M44.985,7.349
			c-0.044-0.324-0.128-0.46-0.392-0.46c-0.224,0-0.379,0.16-0.423,0.46H44.985z"/>
		<path d="M47.197,7.996c-0.128,0.248-0.208,0.364-0.328,0.46c-0.136,0.112-0.288,0.168-0.46,0.168
			c-0.443,0-0.759-0.372-0.759-0.888c0-0.332,0.12-0.607,0.335-0.788c0.16-0.132,0.352-0.204,0.54-0.204
			c0.336,0,0.616,0.188,0.616,0.412c0,0.092-0.084,0.168-0.188,0.168c-0.088,0-0.16-0.068-0.192-0.184l-0.024-0.088
			c-0.04-0.148-0.092-0.192-0.236-0.192c-0.324,0-0.544,0.28-0.544,0.696c0,0.459,0.252,0.779,0.62,0.779
			c0.228,0,0.372-0.096,0.564-0.375L47.197,7.996z"/>
		<path d="M49.02,7.957c-0.156,0.436-0.436,0.667-0.835,0.667c-0.472,0-0.759-0.356-0.759-0.908c0-0.563,0.324-0.971,0.827-0.971
			c0.248,0,0.428,0.096,0.556,0.276c0.08,0.112,0.12,0.24,0.136,0.456h-1.231c0.02,0.304,0.04,0.46,0.184,0.652
			c0.112,0.148,0.26,0.22,0.444,0.22c0.268,0,0.419-0.124,0.616-0.42L49.02,7.957z M48.537,7.349
			c-0.044-0.324-0.128-0.46-0.392-0.46c-0.224,0-0.379,0.16-0.423,0.46H48.537z"/>
		<path d="M51.081,8.624c-0.484,0-0.864-0.396-0.864-0.952s0.36-0.927,0.9-0.927c0.487,0,0.863,0.364,0.863,0.916
			C51.98,8.217,51.62,8.624,51.081,8.624z M51.421,7.057c-0.096-0.12-0.208-0.2-0.38-0.2c-0.276,0-0.464,0.236-0.464,0.636
			c0,0.316,0.064,0.604,0.212,0.819c0.088,0.128,0.216,0.2,0.36,0.2c0.296,0,0.472-0.28,0.472-0.744
			C51.62,7.497,51.549,7.221,51.421,7.057z"/>
		<path d="M52.513,6.786c0.004-0.32,0.036-0.464,0.14-0.644c0.104-0.18,0.312-0.288,0.563-0.288c0.24,0,0.416,0.104,0.416,0.248
			c0,0.092-0.072,0.164-0.168,0.164c-0.068,0-0.116-0.036-0.18-0.144c-0.072-0.116-0.124-0.156-0.212-0.156
			c-0.152,0-0.224,0.12-0.224,0.356v0.464h0.488v0.128h-0.488v1.255c0,0.3,0.044,0.344,0.372,0.356v0.06h-1.039v-0.06
			c0.288-0.016,0.332-0.064,0.332-0.356V6.913h-0.328V6.786H52.513z"/>
		<path d="M56.08,7.996c-0.128,0.248-0.208,0.364-0.328,0.46c-0.136,0.112-0.288,0.168-0.46,0.168c-0.443,0-0.759-0.372-0.759-0.888
			c0-0.332,0.12-0.607,0.335-0.788c0.16-0.132,0.352-0.204,0.54-0.204c0.336,0,0.616,0.188,0.616,0.412
			c0,0.092-0.084,0.168-0.188,0.168c-0.088,0-0.16-0.068-0.192-0.184l-0.024-0.088c-0.04-0.148-0.092-0.192-0.236-0.192
			c-0.324,0-0.544,0.28-0.544,0.696c0,0.459,0.252,0.779,0.62,0.779c0.228,0,0.372-0.096,0.564-0.375L56.08,7.996z"/>
		<path d="M56.273,8.584v-0.06c0.276-0.016,0.316-0.052,0.316-0.356V7.261c0-0.188-0.032-0.252-0.132-0.252
			c-0.036,0-0.096,0-0.168,0.02V6.965l0.62-0.22l0.016,0.016v1.403c0,0.296,0.032,0.34,0.295,0.36v0.06H56.273z M56.721,6.262
			c-0.112,0-0.2-0.088-0.2-0.204c0-0.112,0.092-0.204,0.204-0.204c0.116,0,0.204,0.092,0.204,0.204
			C56.929,6.174,56.841,6.262,56.721,6.262z"/>
		<path d="M57.961,7.121c0.2-0.288,0.312-0.375,0.479-0.375c0.136,0,0.22,0.08,0.22,0.212c0,0.112-0.06,0.18-0.156,0.18
			c-0.052,0-0.096-0.02-0.16-0.08c-0.044-0.04-0.08-0.06-0.104-0.06c-0.112,0-0.28,0.2-0.28,0.328v0.899
			c0,0.228,0.068,0.288,0.34,0.3v0.06h-0.959v-0.06c0.256-0.048,0.284-0.076,0.284-0.276v-1c0-0.176-0.036-0.24-0.136-0.24
			c-0.048,0-0.084,0.004-0.14,0.016V6.961c0.236-0.076,0.38-0.132,0.592-0.216l0.02,0.008V7.121z"/>
		<path d="M60.292,7.996c-0.128,0.248-0.208,0.364-0.328,0.46c-0.136,0.112-0.288,0.168-0.46,0.168
			c-0.443,0-0.759-0.372-0.759-0.888c0-0.332,0.12-0.607,0.335-0.788c0.16-0.132,0.352-0.204,0.54-0.204
			c0.336,0,0.616,0.188,0.616,0.412c0,0.092-0.084,0.168-0.188,0.168c-0.088,0-0.16-0.068-0.192-0.184l-0.024-0.088
			c-0.04-0.148-0.092-0.192-0.236-0.192c-0.324,0-0.544,0.28-0.544,0.696c0,0.459,0.252,0.779,0.62,0.779
			c0.228,0,0.372-0.096,0.564-0.375L60.292,7.996z"/>
		<path d="M60.505,8.584v-0.06c0.252-0.02,0.308-0.088,0.308-0.308V6.342c0-0.192-0.04-0.256-0.167-0.256
			c-0.032,0-0.084,0-0.148,0.008V6.03c0.276-0.068,0.423-0.108,0.631-0.176l0.02,0.016v2.367c0,0.22,0.044,0.271,0.3,0.288v0.06
			H60.505z"/>
		<path d="M63.228,7.957c-0.156,0.436-0.436,0.667-0.836,0.667c-0.472,0-0.759-0.356-0.759-0.908c0-0.563,0.324-0.971,0.828-0.971
			c0.248,0,0.428,0.096,0.556,0.276c0.08,0.112,0.12,0.24,0.136,0.456h-1.231c0.02,0.304,0.04,0.46,0.184,0.652
			c0.112,0.148,0.26,0.22,0.444,0.22c0.268,0,0.419-0.124,0.615-0.42L63.228,7.957z M62.744,7.349
			c-0.044-0.324-0.128-0.46-0.392-0.46c-0.224,0-0.379,0.16-0.423,0.46H62.744z"/>
		<path d="M41.641,11.454c-0.484,0-0.864-0.396-0.864-0.952s0.36-0.927,0.9-0.927c0.487,0,0.863,0.364,0.863,0.916
			C42.541,11.046,42.181,11.454,41.641,11.454z M41.981,9.887c-0.096-0.12-0.208-0.2-0.38-0.2c-0.276,0-0.464,0.236-0.464,0.636
			c0,0.316,0.064,0.604,0.212,0.819c0.088,0.128,0.216,0.2,0.36,0.2c0.296,0,0.472-0.28,0.472-0.744
			C42.181,10.327,42.109,10.051,41.981,9.887z"/>
		<path d="M43.074,9.615c0.004-0.32,0.036-0.464,0.14-0.644c0.104-0.18,0.312-0.288,0.563-0.288c0.24,0,0.416,0.104,0.416,0.248
			c0,0.092-0.072,0.164-0.168,0.164c-0.068,0-0.116-0.036-0.18-0.144c-0.072-0.116-0.124-0.156-0.212-0.156
			c-0.152,0-0.224,0.12-0.224,0.356v0.464h0.488v0.128h-0.488v1.255c0,0.3,0.044,0.344,0.372,0.355v0.06h-1.039v-0.06
			c0.288-0.016,0.332-0.064,0.332-0.355V9.743h-0.328V9.615H43.074z"/>
		<path d="M45.634,9.951c0.2-0.288,0.312-0.375,0.479-0.375c0.136,0,0.22,0.08,0.22,0.212c0,0.112-0.06,0.18-0.156,0.18
			c-0.052,0-0.096-0.02-0.16-0.08c-0.044-0.04-0.08-0.06-0.104-0.06c-0.112,0-0.28,0.2-0.28,0.328v0.899
			c0,0.228,0.068,0.288,0.34,0.3v0.06h-0.959v-0.06c0.256-0.048,0.284-0.076,0.284-0.276v-1c0-0.176-0.036-0.24-0.136-0.24
			c-0.048,0-0.084,0.004-0.14,0.016V9.791c0.236-0.076,0.38-0.132,0.592-0.216l0.02,0.008V9.951z"/>
		<path d="M48.085,11.262c-0.12,0.152-0.224,0.192-0.36,0.192c-0.148,0-0.236-0.08-0.256-0.292h-0.004
			c-0.212,0.24-0.408,0.292-0.58,0.292c-0.248,0-0.42-0.152-0.42-0.416c0-0.208,0.124-0.364,0.28-0.468
			c0.12-0.08,0.268-0.156,0.72-0.324v-0.216c0-0.248-0.132-0.36-0.312-0.36c-0.16,0-0.28,0.088-0.28,0.196
			c0,0.072,0.024,0.084,0.024,0.168c0,0.076-0.08,0.164-0.184,0.164c-0.084,0-0.172-0.076-0.172-0.184
			c0-0.104,0.064-0.232,0.204-0.32c0.112-0.072,0.28-0.12,0.46-0.12c0.224,0,0.375,0.064,0.472,0.18
			c0.096,0.116,0.112,0.2,0.112,0.444v0.764c0,0.184,0.052,0.264,0.124,0.264c0.064,0,0.104-0.02,0.172-0.076V11.262z
			 M47.466,10.343c-0.248,0.088-0.412,0.172-0.512,0.264c-0.096,0.088-0.136,0.184-0.136,0.308c0,0.212,0.12,0.308,0.276,0.308
			c0.08,0,0.164-0.02,0.232-0.064c0.116-0.08,0.14-0.136,0.14-0.252V10.343z"/>
		<path d="M49.47,11.454l-0.016-0.012v-0.256c-0.136,0.188-0.288,0.268-0.512,0.268c-0.444,0-0.74-0.348-0.74-0.859
			c0-0.568,0.372-1.02,0.832-1.02c0.16,0,0.268,0.044,0.42,0.172V9.123c0-0.164-0.036-0.204-0.184-0.204
			c-0.032,0-0.056,0-0.088,0.004V8.859c0.256-0.068,0.396-0.108,0.588-0.176l0.02,0.008v2.267c0,0.184,0.032,0.228,0.176,0.228
			c0.02,0,0.024,0,0.092-0.004v0.064L49.47,11.454z M49.453,10.087c0-0.212-0.192-0.4-0.408-0.4c-0.304,0-0.5,0.296-0.5,0.748
			c0,0.492,0.216,0.812,0.552,0.812c0.124,0,0.224-0.044,0.296-0.128c0.036-0.04,0.06-0.084,0.06-0.112V10.087z"/>
		<path d="M50.158,11.414v-0.06c0.276-0.016,0.316-0.052,0.316-0.355v-0.908c0-0.188-0.032-0.252-0.132-0.252
			c-0.036,0-0.096,0-0.168,0.02V9.795l0.62-0.22l0.016,0.016v1.403c0,0.296,0.032,0.34,0.295,0.36v0.06H50.158z M50.606,9.091
			c-0.112,0-0.2-0.088-0.2-0.204c0-0.112,0.092-0.204,0.204-0.204c0.116,0,0.204,0.092,0.204,0.204
			C50.814,9.003,50.726,9.091,50.606,9.091z"/>
		<path d="M53.125,11.27c-0.204,0.056-0.348,0.1-0.548,0.18l-0.02-0.012V11.11h-0.008c-0.196,0.268-0.424,0.344-0.572,0.344
			c-0.308,0-0.488-0.204-0.488-0.512V9.939c0-0.2-0.056-0.256-0.248-0.268V9.615h0.583v1.291c0,0.184,0.128,0.316,0.284,0.316
			c0.116,0,0.236-0.036,0.336-0.124c0.064-0.056,0.092-0.092,0.092-0.232V9.943c0-0.212-0.056-0.244-0.295-0.26V9.615h0.631v1.371
			c0,0.184,0.044,0.228,0.228,0.228h0.024V11.27z"/>
		<path d="M54.245,10.462c0.256,0.156,0.352,0.264,0.352,0.492c0,0.268-0.256,0.5-0.56,0.5c-0.084,0-0.2-0.004-0.292-0.036
			c-0.096-0.032-0.14-0.036-0.184-0.036c-0.048,0-0.072,0.008-0.096,0.048h-0.052v-0.628h0.064c0.084,0.388,0.232,0.564,0.508,0.564
			c0.204,0,0.332-0.132,0.332-0.296c0-0.124-0.08-0.228-0.212-0.3l-0.216-0.12c-0.332-0.184-0.479-0.375-0.479-0.58
			c0-0.316,0.224-0.492,0.551-0.492c0.096,0,0.184,0.004,0.268,0.044c0.044,0.02,0.084,0.032,0.112,0.032
			c0.016,0,0.032-0.004,0.064-0.04h0.044l0.02,0.543h-0.06c-0.092-0.36-0.212-0.492-0.452-0.492c-0.172,0-0.3,0.084-0.3,0.272
			c0,0.088,0.06,0.204,0.172,0.272L54.245,10.462z"/>
		<path d="M57.664,11.014c-0.3,0.364-0.396,0.44-0.556,0.44c-0.112,0-0.16-0.048-0.16-0.164c0-0.1,0.008-0.132,0.092-0.459
			c-0.3,0.452-0.532,0.627-0.812,0.627c-0.224,0-0.4-0.16-0.4-0.464c0-0.62,0.612-1.343,1.144-1.343c0.172,0,0.288,0.084,0.32,0.232
			l0.044-0.192l0.012-0.012l0.244-0.028l0.028,0.012c-0.008,0.036-0.012,0.044-0.024,0.084c-0.188,0.684-0.356,1.371-0.356,1.451
			c0,0.028,0.024,0.052,0.056,0.052c0.036,0,0.088-0.032,0.208-0.164l0.108-0.116L57.664,11.014z M56.997,9.739
			c-0.18,0-0.356,0.124-0.524,0.368c-0.167,0.252-0.308,0.607-0.308,0.859c0,0.22,0.096,0.296,0.24,0.296
			c0.2,0,0.388-0.22,0.508-0.392c0.188-0.272,0.308-0.616,0.308-0.9C57.221,9.831,57.137,9.739,56.997,9.739z"/>
	</g>
	<g>
		<path d="M40.67,15.631v-0.06c0.252-0.02,0.308-0.088,0.308-0.308v-1.875c0-0.192-0.04-0.256-0.168-0.256
			c-0.032,0-0.083,0-0.147,0.008v-0.064c0.275-0.068,0.423-0.108,0.631-0.176l0.02,0.016v2.367c0,0.22,0.044,0.271,0.3,0.288v0.06
			H40.67z"/>
		<path d="M43.392,15.004c-0.156,0.436-0.436,0.667-0.835,0.667c-0.472,0-0.759-0.356-0.759-0.908c0-0.563,0.324-0.971,0.827-0.971
			c0.248,0,0.428,0.096,0.556,0.276c0.08,0.112,0.12,0.24,0.136,0.456h-1.231c0.02,0.304,0.04,0.46,0.184,0.652
			c0.112,0.148,0.26,0.22,0.444,0.22c0.268,0,0.419-0.124,0.616-0.42L43.392,15.004z M42.909,14.396
			c-0.044-0.324-0.128-0.46-0.392-0.46c-0.224,0-0.379,0.16-0.423,0.46H42.909z"/>
		<path d="M44.581,15.631l0.004-0.06c0.2-0.016,0.248-0.096,0.248-0.36v-0.795c0-0.284-0.096-0.404-0.292-0.404
			c-0.132,0-0.228,0.048-0.412,0.228v1.103c0,0.156,0.056,0.212,0.26,0.228v0.06h-0.844v-0.06c0.204-0.016,0.248-0.08,0.248-0.316
			v-0.971c0-0.196-0.028-0.26-0.14-0.26c-0.044,0-0.088,0.004-0.116,0.016v-0.068c0.22-0.064,0.352-0.108,0.548-0.18l0.032,0.012
			v0.312h0.004c0.208-0.236,0.392-0.324,0.576-0.324c0.304,0,0.472,0.22,0.472,0.616v0.883c0,0.216,0.048,0.26,0.244,0.28v0.06
			H44.581z"/>
		<path d="M47.021,14.08c0.056,0.128,0.076,0.22,0.076,0.336c0,0.208-0.064,0.356-0.208,0.464c-0.128,0.096-0.276,0.156-0.416,0.156
			c-0.024,0-0.08-0.004-0.152-0.012l-0.076-0.008c-0.108,0.032-0.24,0.172-0.24,0.252c0,0.064,0.096,0.096,0.312,0.108l0.516,0.024
			c0.296,0.012,0.483,0.18,0.483,0.428c0,0.16-0.076,0.292-0.24,0.42c-0.208,0.16-0.512,0.256-0.799,0.256
			c-0.384,0-0.692-0.176-0.692-0.388c0-0.148,0.104-0.28,0.392-0.488c-0.168-0.08-0.212-0.124-0.212-0.212
			c0-0.08,0.052-0.16,0.184-0.276c0.06-0.052,0.116-0.104,0.172-0.16c-0.268-0.132-0.372-0.284-0.372-0.536
			c0-0.364,0.296-0.651,0.667-0.651c0.104,0,0.212,0.02,0.32,0.06l0.088,0.032c0.08,0.028,0.14,0.04,0.22,0.04h0.308v0.156H47.021z
			 M46.709,15.691c-0.196,0-0.512-0.024-0.647-0.052c-0.16,0.192-0.196,0.252-0.196,0.344c0,0.176,0.228,0.292,0.58,0.292
			c0.456,0,0.759-0.156,0.759-0.388C47.204,15.739,47.073,15.691,46.709,15.691z M46.081,14.292c0,0.384,0.164,0.644,0.412,0.644
			c0.18,0,0.296-0.14,0.296-0.36c0-0.164-0.044-0.344-0.12-0.483c-0.064-0.12-0.168-0.188-0.292-0.188
			c-0.184,0-0.296,0.14-0.296,0.376V14.292z"/>
		<path d="M48.589,15.368c-0.132,0.208-0.284,0.304-0.483,0.304c-0.232,0-0.352-0.172-0.352-0.508V13.96h-0.212
			c-0.012-0.008-0.016-0.016-0.016-0.028c0-0.024,0.024-0.048,0.068-0.076c0.104-0.06,0.236-0.208,0.388-0.428
			c0.024-0.036,0.056-0.072,0.08-0.112c0.02,0,0.028,0.012,0.028,0.052v0.464h0.404v0.128h-0.404v1.143
			c0,0.256,0.06,0.36,0.208,0.36c0.088,0,0.152-0.036,0.24-0.14L48.589,15.368z"/>
		<path d="M49.717,15.631v-0.06c0.231-0.024,0.271-0.072,0.271-0.348v-0.792c0-0.28-0.1-0.424-0.296-0.424
			c-0.16,0-0.28,0.068-0.448,0.252v0.963c0,0.276,0.04,0.324,0.272,0.348v0.06h-0.863v-0.06c0.232-0.032,0.256-0.068,0.256-0.348
			v-1.883c0-0.172-0.032-0.204-0.204-0.204c-0.016,0-0.036,0-0.048,0.004v-0.064l0.108-0.032c0.228-0.068,0.32-0.096,0.459-0.144
			l0.02,0.012v1.216c0.184-0.24,0.352-0.336,0.588-0.336c0.328,0,0.492,0.216,0.492,0.636v0.795c0,0.276,0.024,0.308,0.24,0.348
			v0.06H49.717z"/>
		<path d="M50.809,14.352v-0.264h2.354v0.264H50.809z M50.809,15.152v-0.264h2.354v0.264H50.809z"/>
		<path d="M55.261,15.231c-0.3,0.364-0.396,0.44-0.556,0.44c-0.112,0-0.16-0.048-0.16-0.164c0-0.1,0.008-0.132,0.092-0.459
			c-0.3,0.452-0.532,0.627-0.812,0.627c-0.224,0-0.4-0.16-0.4-0.464c0-0.62,0.612-1.343,1.144-1.343c0.172,0,0.288,0.084,0.32,0.232
			l0.044-0.192l0.012-0.012l0.244-0.028l0.028,0.012c-0.008,0.036-0.012,0.044-0.024,0.084c-0.188,0.684-0.356,1.371-0.356,1.451
			c0,0.028,0.024,0.052,0.056,0.052c0.036,0,0.088-0.032,0.208-0.164l0.108-0.116L55.261,15.231z M54.593,13.956
			c-0.18,0-0.356,0.124-0.524,0.368c-0.168,0.251-0.308,0.607-0.308,0.859c0,0.22,0.096,0.296,0.24,0.296
			c0.2,0,0.388-0.22,0.508-0.392c0.188-0.271,0.308-0.615,0.308-0.899C54.817,14.048,54.733,13.956,54.593,13.956z"/>
		<path d="M55.681,15.675c-0.112,0-0.212-0.1-0.212-0.216c0-0.128,0.1-0.228,0.22-0.228c0.12,0,0.224,0.104,0.224,0.228
			C55.913,15.579,55.809,15.675,55.681,15.675z"/>
		<path d="M56.234,15.631l1.599-2.67h0.104l0.528,2.67H56.234z M57.657,13.528l-1.02,1.727h1.367L57.657,13.528z"/>
		<path d="M60.461,13.868c0.184,0,0.292,0.004,0.404,0.048c0.196,0.076,0.32,0.22,0.32,0.503c0,0.464-0.436,1.251-1.224,1.255
			l-0.216,0.775h-0.312l0.216-0.775c-0.172,0-0.328-0.012-0.428-0.044c-0.208-0.068-0.308-0.256-0.308-0.512
			c0-0.404,0.448-1.251,1.179-1.251h0.06l0.268-0.967h0.308L60.461,13.868z M60.129,13.952c-0.464,0-0.879,0.712-0.879,1.275
			c0,0.168,0.068,0.284,0.192,0.332c0.064,0.024,0.14,0.032,0.232,0.032L60.129,13.952z M59.985,15.591
			c0.1,0,0.164-0.008,0.276-0.064c0.328-0.164,0.588-0.872,0.588-1.203c0-0.18-0.076-0.28-0.18-0.344
			c-0.04-0.024-0.148-0.028-0.232-0.028L59.985,15.591z"/>
	</g>
	<g>
		<g>
			<path fill="none" stroke="#000000" stroke-width="0.2" stroke-miterlimit="10" d="M30.338,16.876
				c2.309-1.61,4.818-6.57,9.582-6.57"/>
			<g>
				<polygon points="31.147,17.238 30.536,16.715 30.488,15.912 29.245,17.357 				"/>
			</g>
		</g>
	</g>
	<g>
		<g>
			<path fill="none" stroke="#000000" stroke-width="0.2" stroke-miterlimit="10" d="M29.354,20.647
				c2.719,4.313,5.42,2.622,10.566,2.622"/>
			<g>
				<polygon points="29.056,21.492 29.519,20.834 30.315,20.711 28.76,19.609 				"/>
			</g>
		</g>
	</g>
	<g>
		<g>
			<path fill="none" stroke="#FF0000" stroke-width="0.2" stroke-miterlimit="10" d="M27.434,14.447
				c0.279-3.587-1.315-6.116-3.385-7.389"/>
			<g>
				<polygon fill="#FF0000" points="28.216,13.972 27.445,14.2 26.745,13.802 27.279,15.631 				"/>
			</g>
		</g>
	</g>
</g>
<g id="Layer_8">
	<line fill="none" stroke="#00A300" stroke-width="0.1" stroke-miterlimit="10" x1="13.834" y1="41.151" x2="25.587" y2="17.51"/>
	<line fill="none" stroke="#00A300" stroke-width="0.1" stroke-miterlimit="10" x1="13.982" y1="40.914" x2="27.476" y2="19.312"/>
	<polygon opacity="0.03" fill="#00A300" points="27.476,19.311 13.834,41.151 25.587,17.51 	"/>
	<line fill="none" stroke="#FF00FF" stroke-width="0.1" stroke-miterlimit="10" x1="25.587" y1="17.51" x2="13.834" y2="14.402"/>
	<line fill="none" stroke="#FF00FF" stroke-width="0.1" stroke-miterlimit="10" x1="27.19" y1="17.132" x2="13.954" y2="14.434"/>
	<polyline opacity="0.03" fill="#FF00FF" points="25.587,17.51 27.19,17.132 13.936,14.297 	"/>
	<path opacity="0.03" fill="#FF00FF" d="M15.973,4.66"/>
	<polyline display="none" opacity="0.03" fill="#FF00FF" points="13.935,19.035 22.858,23.471 28.404,22.955 13.834,18.872 	"/>
	<polygon display="none" opacity="0.1" fill="#FF00FF" points="28.404,22.955 13.958,18.907 13.954,13.832 27.226,17.488 	"/>
	<g>
	</g>
	<g>
	</g>
</g>
</svg>
