<?xml version="1.0" encoding="utf-8"?>
<!-- Generator: Adobe Illustrator 15.0.0, SVG Export Plug-In . SVG Version: 6.00 Build 0)  -->
<!DOCTYPE svg PUBLIC "-//W3C//DTD SVG 1.1//EN" "http://www.w3.org/Graphics/SVG/1.1/DTD/svg11.dtd">
<svg version="1.1" id="Layer_1" xmlns="http://www.w3.org/2000/svg" xmlns:xlink="http://www.w3.org/1999/xlink" x="0px" y="0px"
	 width="353px" height="247px" viewBox="127 121 353 247" enable-background="new 127 121 353 247" xml:space="preserve">
<title>glps_renderer figure</title>
<desc>Creator: GL2PS 1.3.8, (C) 1999-2012 C. Geuzaine
For: Octave
CreationDate: Sun Dec 20 09:35:04 2015</desc>
<line fill="none" stroke="#000000" stroke-width="2" stroke-dasharray="16,0" x1="159.176" y1="342.711" x2="159.176" y2="127.475"/>
<line fill="none" stroke="#000000" stroke-dasharray="16,0" x1="159.176" y1="342.711" x2="159.176" y2="339.585"/>
<line fill="none" stroke="#000000" stroke-dasharray="16,0" x1="159.176" y1="342.711" x2="162.304" y2="342.711"/>
<line fill="none" stroke="#000000" stroke-dasharray="16,0" x1="471.656" y1="342.711" x2="468.528" y2="342.711"/>
<polyline fill="none" stroke="#FF0000" stroke-width="3" points="159.176,219.482 160.746,219.482 162.316,219.482 163.886,219.482 
	165.457,219.482 167.027,219.482 168.597,219.482 170.168,219.482 171.738,219.482 173.308,219.482 174.878,219.482 
	176.449,219.482 178.019,219.482 179.589,219.482 181.16,219.482 182.729,219.482 184.3,219.482 185.871,219.482 187.44,219.482 
	189.011,219.482 190.581,219.482 192.152,219.482 193.722,219.482 195.292,219.482 196.862,219.482 198.432,219.482 
	200.003,219.482 201.573,219.482 203.143,219.482 204.713,219.482 206.283,219.482 207.854,219.482 209.424,219.482 
	210.994,219.482 212.564,219.482 214.135,219.482 215.705,219.482 217.275,219.482 218.845,219.482 220.416,219.482 
	221.986,219.482 223.557,219.482 225.126,219.482 226.696,219.482 228.268,219.482 229.837,219.482 231.408,219.482 
	232.978,219.482 234.547,219.482 236.119,219.482 237.688,219.482 239.259,219.482 240.829,219.482 242.399,219.482 243.97,219.482 
	245.54,219.482 247.11,219.482 248.68,219.482 250.251,219.482 251.821,219.482 253.392,219.482 254.961,219.482 256.531,219.482 
	258.103,219.482 259.673,219.482 261.242,219.482 262.813,219.482 264.383,219.482 265.953,219.482 267.523,219.482 
	269.094,219.482 270.664,219.482 272.234,219.482 273.805,219.482 275.374,219.482 276.944,219.482 278.515,219.482 
	280.085,219.482 281.656,219.482 283.226,219.482 284.796,219.482 286.366,219.482 287.937,219.482 289.507,219.482 
	291.077,219.482 292.646,219.482 294.218,219.482 295.788,219.482 297.358,219.482 298.928,219.482 300.499,219.482 
	302.068,219.482 303.639,219.482 305.209,219.482 306.779,219.482 308.351,219.482 309.92,219.482 311.49,219.482 313.061,219.482 
	314.631,219.482 316.201,219.482 317.771,219.482 319.341,219.482 320.912,219.482 322.481,219.482 324.053,219.482 
	325.623,219.482 327.193,219.482 328.763,219.482 330.333,219.482 331.903,219.482 333.474,219.482 335.044,219.482 
	336.614,219.482 338.186,219.482 339.755,219.482 341.325,219.482 342.896,219.482 344.465,219.482 346.036,219.482 
	347.606,219.482 349.176,219.482 350.746,219.482 352.317,219.482 353.888,219.482 355.457,219.482 357.027,219.482 
	358.598,219.482 360.168,219.482 361.738,219.482 363.309,219.482 364.879,219.482 366.449,219.482 368.02,219.482 369.59,219.482 
	371.159,219.482 372.729,219.482 374.301,219.482 375.87,219.482 377.441,219.482 379.011,219.482 380.581,219.482 382.151,219.482 
	383.722,219.482 385.292,219.482 386.862,219.482 388.433,219.482 390.003,219.482 391.573,219.482 393.144,219.482 
	394.714,219.482 396.284,219.482 397.854,219.482 399.424,219.482 400.994,219.482 402.564,219.482 404.136,219.482 
	405.705,219.482 407.275,219.482 408.846,219.482 410.416,219.482 411.986,219.482 413.557,219.482 415.126,219.482 
	416.696,219.482 418.268,219.482 419.838,219.482 421.408,219.482 422.979,219.482 424.549,219.482 426.118,219.482 
	427.688,219.482 429.259,219.482 430.829,219.482 432.4,219.482 433.971,219.482 435.54,219.482 437.11,219.482 438.681,219.482 
	440.251,219.482 441.821,219.482 443.392,219.482 444.961,219.482 446.532,219.482 448.103,219.482 449.673,219.482 
	451.242,219.482 452.813,219.482 454.384,219.482 455.953,219.482 457.523,219.482 459.094,219.482 460.664,219.482 
	462.234,219.482 463.805,219.482 465.375,219.482 466.944,219.482 468.516,219.482 470.086,219.482 471.656,219.482 "/>
<line fill="none" stroke="#000000" stroke-width="2" stroke-dasharray="16,0" x1="159.176" y1="342.711" x2="471.656" y2="342.711"/>
<text transform="matrix(1 0 0 1 295.4863 363.0254)" font-family="'ArialMT'" font-size="14">ω</text>
<g>
	<g>
		<line fill="none" stroke="#000000" x1="313.835" y1="360.162" x2="335.476" y2="360.162"/>
		<g>
			<polygon points="333.156,363.025 332.679,362.513 335.207,360.163 332.679,357.813 333.156,357.3 336.234,360.163 			"/>
		</g>
	</g>
</g>
<text transform="matrix(6.123234e-017 -1 1 6.123234e-017 143.1353 257.9902)" font-family="'ArialMT'" font-size="14">| Z</text>
<text transform="matrix(6.123234e-017 -1 1 6.123234e-017 147.1353 239.9121)" font-family="'ArialMT'" font-size="14">r</text>
<text transform="matrix(6.123234e-017 -1 1 6.123234e-017 143.1353 231.9121)" font-family="'ArialMT'" font-size="14">(ω) |</text>
<g>
	<g>
		<line fill="none" stroke="#000000" x1="140.272" y1="195.104" x2="140.272" y2="173.463"/>
		<g>
			<polygon points="143.135,175.783 142.623,176.26 140.273,173.731 137.924,176.26 137.41,175.783 140.273,172.704 			"/>
		</g>
	</g>
</g>
</svg>
