<?xml version="1.0" encoding="utf-8"?>
<!-- Generator: Adobe Illustrator 15.0.0, SVG Export Plug-In . SVG Version: 6.00 Build 0)  -->
<!DOCTYPE svg PUBLIC "-//W3C//DTD SVG 1.1//EN" "http://www.w3.org/Graphics/SVG/1.1/DTD/svg11.dtd">
<svg version="1.1" id="Layer_1" xmlns="http://www.w3.org/2000/svg" xmlns:xlink="http://www.w3.org/1999/xlink" x="0px" y="0px"
	 width="351px" height="233.5px" viewBox="104.5 137 351 233.5" enable-background="new 104.5 137 351 233.5" xml:space="preserve">
<title>glps_renderer figure</title>
<desc>Creator: GL2PS 1.3.8, (C) 1999-2012 C. Geuzaine
For: Octave
CreationDate: Sun Dec 20 09:35:04 2015</desc>
<line fill="none" stroke="#000000" stroke-width="2" stroke-dasharray="16,0" x1="137.176" y1="345.411" x2="137.176" y2="142.775"/>
<line fill="none" stroke="#000000" stroke-dasharray="16,0" x1="137.176" y1="345.411" x2="137.176" y2="342.285"/>
<line fill="none" stroke="#000000" stroke-dasharray="16,0" x1="137.176" y1="345.411" x2="140.304" y2="345.411"/>
<line fill="none" stroke="#000000" stroke-dasharray="16,0" x1="449.656" y1="345.411" x2="446.528" y2="345.411"/>
<polyline fill="none" stroke="#007F00" stroke-width="3" points="137.176,345.411 138.746,344.545 140.316,343.677 141.886,342.811 
	143.457,341.943 145.027,341.077 146.597,340.209 148.168,339.343 149.738,338.476 151.308,337.608 152.878,336.741 
	154.449,335.875 156.019,335.008 157.589,334.141 159.16,333.273 160.729,332.407 162.3,331.54 163.871,330.673 165.44,329.807 
	167.011,328.939 168.581,328.072 170.151,327.205 171.722,326.339 173.292,325.472 174.862,324.604 176.432,323.737 
	178.003,322.871 179.573,322.004 181.143,321.137 182.713,320.271 184.283,319.403 185.854,318.536 187.424,317.669 
	188.994,316.803 190.564,315.936 192.135,315.068 193.705,314.201 195.275,313.335 196.845,312.468 198.416,311.601 
	199.986,310.734 201.556,309.867 203.126,309 204.696,308.133 206.267,307.267 207.837,306.399 209.407,305.532 210.978,304.665 
	212.547,303.798 214.118,302.932 215.688,302.064 217.259,301.198 218.829,300.33 220.399,299.464 221.97,298.598 223.54,297.73 
	225.11,296.863 226.68,295.996 228.251,295.13 229.821,294.262 231.391,293.396 232.961,292.528 234.531,291.662 236.102,290.794 
	237.672,289.928 239.242,289.06 240.813,288.194 242.382,287.326 243.953,286.46 245.523,285.593 247.094,284.726 248.664,283.858 
	250.234,282.992 251.805,282.126 253.374,281.258 254.944,280.392 256.515,279.523 258.085,278.658 259.655,277.79 261.226,276.924 
	262.796,276.057 264.366,275.189 265.937,274.322 267.506,273.456 269.077,272.589 270.646,271.722 272.218,270.854 
	273.788,269.987 275.358,269.121 276.928,268.254 278.498,267.388 280.068,266.521 "/>
<polyline fill="none" stroke="#007F00" stroke-width="3" points="281.639,265.653 283.209,264.786 284.779,263.92 286.351,263.053 
	287.92,262.186 289.49,261.318 291.061,260.451 292.631,259.585 294.201,258.718 295.771,257.852 297.341,256.984 298.912,256.117 
	300.481,255.251 302.053,254.383 303.623,253.517 305.192,252.649 306.763,251.782 308.333,250.915 309.903,250.049 
	311.474,249.182 313.044,248.315 314.614,247.448 316.185,246.581 317.755,245.715 319.325,244.847 320.895,243.98 322.465,243.113 
	324.036,242.246 325.606,241.379 327.176,240.513 328.746,239.646 330.317,238.779 331.887,237.911 333.457,237.045 
	335.027,236.177 336.597,235.311 338.168,234.444 339.738,233.577 341.309,232.71 342.879,231.843 344.449,230.977 346.02,230.109 
	347.589,229.243 349.159,228.375 350.729,227.509 352.301,226.641 353.87,225.774 355.441,224.907 357.011,224.041 358.581,223.174 
	360.151,222.307 361.722,221.439 363.292,220.573 364.862,219.707 366.433,218.839 368.003,217.973 369.573,217.104 
	371.144,216.239 372.714,215.371 374.283,214.505 375.854,213.638 377.424,212.771 378.994,211.903 380.564,211.037 
	382.136,210.169 383.705,209.303 385.275,208.436 386.846,207.568 388.416,206.702 389.986,205.835 391.557,204.969 
	393.126,204.102 394.696,203.234 396.268,202.367 397.838,201.501 399.408,200.634 400.978,199.767 402.549,198.899 
	404.118,198.032 405.688,197.166 407.259,196.299 408.829,195.433 410.4,194.565 411.97,193.698 413.54,192.831 415.11,191.964 
	416.68,191.098 418.251,190.23 419.821,189.363 421.392,188.497 422.961,187.63 424.532,186.763 426.103,185.896 427.672,185.029 
	429.242,184.162 430.813,183.295 432.384,182.428 433.953,181.562 435.523,180.694 437.094,179.827 438.664,178.96 440.234,178.094 
	441.805,177.227 443.374,176.359 444.944,175.492 446.516,174.626 448.086,173.758 449.656,172.892 "/>
<line fill="none" stroke="#000000" stroke-width="2" stroke-dasharray="16,0" x1="137.176" y1="345.411" x2="449.656" y2="345.411"/>
<line fill="none" stroke="#007F00" stroke-width="3" x1="280.068" y1="266.521" x2="281.639" y2="265.653"/>
<text transform="matrix(1 0 0 1 278.6514 365.6484)" font-family="'ArialMT'" font-size="14">ω</text>
<g>
	<g>
		<line fill="none" stroke="#000000" x1="293.835" y1="361.862" x2="315.476" y2="361.862"/>
		<g>
			<polygon points="313.156,364.725 312.679,364.212 315.207,361.863 312.679,359.514 313.156,359 316.234,361.863 			"/>
		</g>
	</g>
</g>
<text transform="matrix(6.123234e-017 -1 1 6.123234e-017 120.373 270.0986)" font-family="'ArialMT'" font-size="14">| Z</text>
<text transform="matrix(6.123234e-017 -1 1 6.123234e-017 123.1729 252.8447)" font-family="'ArialMT'" font-size="14">l</text>
<text transform="matrix(6.123234e-017 -1 1 6.123234e-017 120.373 248.2881)" font-family="'ArialMT'" font-size="14">(ω) |</text>
<g>
	<g>
		<line fill="none" stroke="#000000" x1="118.272" y1="213.883" x2="118.272" y2="192.242"/>
		<g>
			<polygon points="121.135,194.563 120.622,195.039 118.272,192.512 115.924,195.039 115.41,194.563 118.272,191.483 			"/>
		</g>
	</g>
</g>
</svg>
