<?xml version="1.0" encoding="utf-8"?>
<!-- Generator: Adobe Illustrator 15.0.0, SVG Export Plug-In . SVG Version: 6.00 Build 0)  -->
<!DOCTYPE svg PUBLIC "-//W3C//DTD SVG 1.1//EN" "http://www.w3.org/Graphics/SVG/1.1/DTD/svg11.dtd">
<svg version="1.1" id="Layer_1" xmlns="http://www.w3.org/2000/svg" xmlns:xlink="http://www.w3.org/1999/xlink" x="0px" y="0px"
	 width="357px" height="286px" viewBox="104 78 357 286" enable-background="new 104 78 357 286" xml:space="preserve">
<title>glps_renderer figure</title>
<desc>Creator: GL2PS 1.3.8, (C) 1999-2012 C. Geuzaine
For: Octave
CreationDate: Sun Dec 20 09:35:04 2015</desc>
<line fill="none" stroke="#000000" stroke-width="2" stroke-dasharray="16,0" x1="137.176" y1="335.968" x2="137.176" y2="89.512"/>
<line fill="none" stroke="#000000" stroke-dasharray="16,0" x1="137.176" y1="335.968" x2="137.176" y2="332.842"/>
<line fill="none" stroke="#000000" stroke-dasharray="16,0" x1="137.176" y1="89.512" x2="137.176" y2="92.638"/>
<line fill="none" stroke="#000000" stroke-dasharray="16,0" x1="137.176" y1="335.968" x2="140.304" y2="335.968"/>
<line fill="none" stroke="#000000" stroke-dasharray="16,0" x1="449.656" y1="335.968" x2="446.528" y2="335.968"/>
<polyline fill="none" stroke="#0000FF" stroke-width="3" points="178.813,89.266 179.573,93.771 181.143,102.421 182.713,110.475 
	184.283,117.991 185.854,125.023 187.424,131.615 188.994,137.807 190.564,143.636 192.135,149.131 193.705,154.321 195.275,159.23 
	196.845,163.881 198.416,168.293 199.986,172.486 201.556,176.473 203.126,180.271 204.696,183.892 206.267,187.348 207.837,190.65 
	209.407,193.809 210.978,196.833 212.547,199.732 214.118,202.513 215.688,205.182 217.259,207.746 218.829,210.212 
	220.399,212.585 221.97,214.869 223.54,217.071 225.11,219.194 226.68,221.243 228.251,223.222 229.821,225.132 231.391,226.979 
	232.961,228.767 234.531,230.495 236.102,232.17 237.672,233.791 239.242,235.363 240.813,236.888 242.382,238.366 243.953,239.802 
	245.523,241.195 247.094,242.55 248.663,243.865 250.234,245.145 251.805,246.388 253.374,247.6 254.944,248.777 256.515,249.924 
	258.085,251.042 259.656,252.131 261.226,253.191 262.796,254.227 264.366,255.235 265.937,256.22 267.506,257.182 269.077,258.119 
	270.646,259.035 272.218,259.93 273.788,260.803 275.358,261.658 276.928,262.493 278.498,263.309 280.068,264.107 281.639,264.888 
	283.209,265.653 284.779,266.401 286.351,267.133 287.92,267.851 289.49,268.552 291.061,269.24 292.631,269.915 294.201,270.574 
	295.771,271.223 297.341,271.856 298.912,272.479 300.481,273.09 302.053,273.688 303.623,274.276 305.192,274.853 306.763,275.418 
	308.333,275.975 309.903,276.52 311.474,277.055 313.044,277.582 314.614,278.098 316.185,278.605 317.755,279.104 319.325,279.595 
	320.895,280.076 322.465,280.551 324.036,281.016 325.606,281.474 327.176,281.925 328.746,282.367 330.317,282.803 
	331.887,283.231 333.457,283.653 335.027,284.068 336.597,284.478 338.168,284.88 339.738,285.275 341.309,285.666 342.879,286.05 
	344.449,286.428 346.02,286.8 347.589,287.167 349.159,287.528 350.729,287.885 352.301,288.235 353.87,288.581 355.441,288.922 
	357.011,289.258 358.581,289.59 360.151,289.917 361.722,290.238 363.292,290.556 364.862,290.869 366.433,291.179 368.003,291.482 
	369.573,291.783 371.144,292.08 372.714,292.373 374.283,292.661 375.854,292.945 377.424,293.228 378.994,293.506 380.564,293.779 
	382.136,294.049 383.705,294.316 385.275,294.579 386.846,294.84 388.416,295.097 389.986,295.352 391.557,295.602 393.126,295.85 
	394.696,296.094 396.268,296.336 397.838,296.575 399.408,296.811 400.978,297.044 402.549,297.274 404.118,297.502 
	405.688,297.726 407.259,297.949 408.829,298.168 410.4,298.386 411.97,298.601 413.54,298.813 415.11,299.022 416.68,299.23 
	418.251,299.436 419.821,299.639 421.392,299.84 422.961,300.038 424.532,300.234 426.103,300.428 427.672,300.62 429.242,300.811 
	430.813,300.999 432.384,301.185 433.953,301.368 435.523,301.551 437.094,301.731 438.664,301.909 440.234,302.086 441.805,302.26 
	443.374,302.434 444.944,302.604 446.516,302.772 448.086,302.941 449.656,303.107 "/>
<line fill="none" stroke="#000000" stroke-width="2" stroke-dasharray="16,0" x1="137.176" y1="335.968" x2="449.656" y2="335.968"/>
<text transform="matrix(1 0 0 1 278.6504 356.2061)" font-family="'ArialMT'" font-size="14">ω</text>
<g>
	<g>
		<line fill="none" stroke="#000000" x1="292.835" y1="352.419" x2="314.476" y2="352.419"/>
		<g>
			<polygon points="312.156,355.282 311.679,354.77 314.207,352.42 311.679,350.07 312.156,349.557 315.234,352.42 			"/>
		</g>
	</g>
</g>
<text transform="matrix(6.123234e-017 -1 1 6.123234e-017 120.373 250.0762)" font-family="'ArialMT'" font-size="14">| Z</text>
<text transform="matrix(6.123234e-017 -1 1 6.123234e-017 123.1733 233.8213)" font-family="'ArialMT'" font-size="14">c</text>
<text transform="matrix(6.123234e-017 -1 1 6.123234e-017 120.373 225.3213)" font-family="'ArialMT'" font-size="14">(ω) |</text>
<g>
	<g>
		<line fill="none" stroke="#000000" x1="118.272" y1="193.216" x2="118.272" y2="171.576"/>
		<g>
			<polygon points="121.135,173.896 120.622,174.373 118.273,171.845 115.924,174.373 115.41,173.896 118.273,170.817 			"/>
		</g>
	</g>
</g>
</svg>
