<?xml version="1.0" encoding="utf-8"?>
<!-- Generator: Adobe Illustrator 15.0.0, SVG Export Plug-In . SVG Version: 6.00 Build 0)  -->
<!DOCTYPE svg PUBLIC "-//W3C//DTD SVG 1.1//EN" "http://www.w3.org/Graphics/SVG/1.1/DTD/svg11.dtd">
<svg version="1.1" id="Layer_1" xmlns="http://www.w3.org/2000/svg" xmlns:xlink="http://www.w3.org/1999/xlink" x="0px" y="0px"
	 width="346.5px" height="243.333px" viewBox="109 122.333 346.5 243.333" enable-background="new 109 122.333 346.5 243.333"
	 xml:space="preserve">
<title>glps_renderer figure</title>
<desc>Creator: GL2PS 1.3.8, (C) 1999-2012 C. Geuzaine
For: Octave
CreationDate: Sun Dec 20 09:43:37 2015</desc>
<line fill="none" stroke="#000000" stroke-width="2" stroke-dasharray="16,0" x1="136.643" y1="343.085" x2="449.123" y2="343.085"/>
<line fill="none" stroke="#000000" stroke-width="2" stroke-dasharray="16,0" x1="136.643" y1="343.085" x2="136.643" y2="126.729"/>
<line opacity="0.8" fill="none" stroke="#3DB863" stroke-dasharray="4,2" enable-background="new    " x1="247.426" y1="243.769" x2="363.361" y2="160.639"/>
<line fill="none" stroke="#000000" stroke-dasharray="16,0" x1="136.643" y1="343.085" x2="136.643" y2="339.959"/>
<line fill="none" stroke="#000000" stroke-dasharray="16,0" x1="136.643" y1="126.729" x2="136.643" y2="129.472"/>
<line fill="none" stroke="#000000" stroke-dasharray="16,0" x1="136.643" y1="343.085" x2="139.771" y2="343.085"/>
<line fill="none" stroke="#000000" stroke-dasharray="16,0" x1="449.123" y1="343.085" x2="445.995" y2="343.085"/>
<text transform="matrix(1 0 0 1 327.4111 200.5439)" font-family="'STIXMath-Regular'" font-size="14">di(t)</text>
<text transform="matrix(1 0 0 1 305.3936 219.3867)" font-family="'STIXMath-Regular'" font-size="14">dt</text>
<polyline fill="none" stroke="#0000FF" points="445.31,266.318 443.047,261.614 440.785,257.068 438.523,252.679 436.262,248.444 
	434,244.361 431.737,240.431 429.476,236.648 427.214,233.014 424.952,229.523 422.689,226.177 420.428,222.972 418.167,219.906 
	415.905,216.978 413.643,214.186 411.381,211.527 409.119,209.001 406.857,206.604 404.595,204.337 402.333,202.195 
	400.071,200.178 397.809,198.284 395.548,196.51 393.286,194.854 391.024,193.316 388.763,191.894 386.499,190.583 384.237,189.384 
	381.976,188.295 379.713,187.313 377.452,186.438 375.19,185.664 372.929,184.994 370.666,184.423 368.404,183.95 366.143,183.574 
	363.881,183.292 361.618,183.103 359.356,183.004 357.095,182.993 354.833,183.069 352.572,183.23 350.31,183.475 348.048,183.8 
	345.786,184.205 343.523,184.687 341.262,185.244 339,185.875 336.738,186.577 334.476,187.35 332.214,188.189 329.953,189.097 
	327.691,190.067 325.429,191.1 323.167,192.193 320.905,193.345 318.643,194.554 316.381,195.816 314.119,197.133 311.857,198.499 
	309.596,199.916 307.334,201.379 305.072,202.887 302.811,204.438 300.549,206.032 298.286,207.666 296.024,209.336 
	293.763,211.043 291.502,212.784 289.238,214.556 286.977,216.36 284.716,218.191 282.452,220.05 280.191,221.932 277.93,223.838 
	275.668,225.763 273.404,227.708 271.143,229.67 268.882,231.647 266.619,233.638 264.357,235.639 262.096,237.651 259.834,239.67 
	257.572,241.694 255.31,243.723 253.048,245.753 250.787,247.784 248.524,249.813 246.263,251.838 244.001,253.857 241.739,255.869 
	239.477,257.872 237.215,259.863 234.953,261.842 232.691,263.806 230.429,265.751 228.167,267.68 225.905,269.586 223.645,271.471 
	221.381,273.331 219.119,275.165 216.858,276.971 214.595,278.746 212.334,280.49 210.072,282.199 207.811,283.873 205.55,285.51 
	203.287,287.106 201.024,288.662 198.764,290.175 196.5,291.643 194.24,293.062 191.978,294.433 189.716,295.753 187.454,297.021 
	185.192,298.235 182.93,299.391 180.668,300.489 178.406,301.527 176.145,302.503 173.882,303.415 171.621,304.262 169.359,305.04 
	167.097,305.748 164.835,306.386 162.573,306.949 160.31,307.438 158.048,307.849 155.787,308.181 153.525,308.433 151.262,308.601 
	149.001,308.685 146.739,308.682 144.478,308.589 142.215,308.408 139.953,308.134 137.692,307.766 "/>
<text transform="matrix(1 0 0 1 279.1855 360.9238)" font-family="'STIXMath-Regular'" font-size="14">t</text>
<g>
	<g>
		<line fill="none" stroke="#000000" x1="289.911" y1="358.137" x2="311.552" y2="358.137"/>
		<g>
			<polygon points="309.231,361 308.755,360.487 311.282,358.138 308.755,355.788 309.231,355.274 312.311,358.138 			"/>
		</g>
	</g>
</g>
<text transform="matrix(6.123234e-017 -1 1 6.123234e-017 123.5269 242.3018)" font-family="'STIXMath-Regular'" font-size="14">i(t)</text>
<g>
	<g>
		<line fill="none" stroke="#000000" x1="119.426" y1="219.387" x2="119.426" y2="197.745"/>
		<g>
			<polygon points="122.289,200.065 121.776,200.543 119.427,198.014 117.078,200.543 116.564,200.065 119.427,196.986 			"/>
		</g>
	</g>
</g>
<line opacity="0.2" fill="none" stroke="#000000" stroke-dasharray="16,0" enable-background="new    " x1="298.334" y1="343.085" x2="298.334" y2="207.666"/>
<line opacity="0.35" fill="none" stroke="#3DB863" enable-background="new    " x1="322.667" y1="207.666" x2="322.667" y2="190.601"/>
<line opacity="0.35" fill="none" stroke="#3DB863" enable-background="new    " x1="322.667" y1="207.666" x2="298.334" y2="207.666"/>
</svg>
