<?xml version="1.0" encoding="utf-8"?>
<!-- Generator: Adobe Illustrator 25.4.1, SVG Export Plug-In . SVG Version: 6.00 Build 0)  -->
<svg version="1.1" xmlns="http://www.w3.org/2000/svg" xmlns:xlink="http://www.w3.org/1999/xlink" x="0px" y="0px"
	 viewBox="0 0 254.429 88.785" enable-background="new 0 0 254.429 88.785" xml:space="preserve">
<g id="Layer_2" opacity="0.5">
	<g id="Clipped_grid">
		<defs>
			<rect id="SVGID_1_" x="-10.092" y="-11.025" width="295.362" height="270.92"/>
		</defs>
		<clipPath id="SVGID_00000011725693305425724680000006934571321966327732_">
			<use xlink:href="#SVGID_1_"  overflow="visible"/>
		</clipPath>
		<g id="Grid" opacity="0.25" clip-path="url(#SVGID_00000011725693305425724680000006934571321966327732_)">
			<g id="Horizontal_1_mm">
				
					<line fill="none" stroke="#00ABEB" stroke-width="0.15" stroke-miterlimit="10" x1="-341.194" y1="-52.784" x2="428.159" y2="-52.784"/>
				
					<line fill="none" stroke="#00ABEB" stroke-width="0.15" stroke-miterlimit="10" x1="-341.194" y1="-62.404" x2="428.159" y2="-62.404"/>
				
					<line fill="none" stroke="#00ABEB" stroke-width="0.15" stroke-miterlimit="10" x1="-341.194" y1="514.72" x2="428.159" y2="514.72"/>
				
					<line fill="none" stroke="#00ABEB" stroke-width="0.15" stroke-miterlimit="10" x1="-341.194" y1="505.1" x2="428.159" y2="505.1"/>
				
					<line fill="none" stroke="#00ABEB" stroke-width="0.15" stroke-miterlimit="10" x1="-341.194" y1="495.484" x2="428.159" y2="495.484"/>
				
					<line fill="none" stroke="#00ABEB" stroke-width="0.15" stroke-miterlimit="10" x1="-341.194" y1="485.864" x2="428.159" y2="485.864"/>
				
					<line fill="none" stroke="#00ABEB" stroke-width="0.15" stroke-miterlimit="10" x1="-341.194" y1="476.244" x2="428.159" y2="476.244"/>
				
					<line fill="none" stroke="#00ABEB" stroke-width="0.15" stroke-miterlimit="10" x1="-341.194" y1="466.628" x2="428.159" y2="466.628"/>
				
					<line fill="none" stroke="#00ABEB" stroke-width="0.15" stroke-miterlimit="10" x1="-341.194" y1="457.008" x2="428.159" y2="457.008"/>
				
					<line fill="none" stroke="#00ABEB" stroke-width="0.15" stroke-miterlimit="10" x1="-341.194" y1="447.391" x2="428.159" y2="447.391"/>
				
					<line fill="none" stroke="#00ABEB" stroke-width="0.15" stroke-miterlimit="10" x1="-341.194" y1="437.77" x2="428.159" y2="437.77"/>
				
					<line fill="none" stroke="#00ABEB" stroke-width="0.15" stroke-miterlimit="10" x1="-341.194" y1="428.15" x2="428.159" y2="428.15"/>
				
					<line fill="none" stroke="#00ABEB" stroke-width="0.15" stroke-miterlimit="10" x1="-341.194" y1="418.534" x2="428.159" y2="418.534"/>
				
					<line fill="none" stroke="#00ABEB" stroke-width="0.15" stroke-miterlimit="10" x1="-341.194" y1="408.914" x2="428.159" y2="408.914"/>
				
					<line fill="none" stroke="#00ABEB" stroke-width="0.15" stroke-miterlimit="10" x1="-341.194" y1="399.294" x2="428.159" y2="399.294"/>
				
					<line fill="none" stroke="#00ABEB" stroke-width="0.15" stroke-miterlimit="10" x1="-341.194" y1="389.678" x2="428.159" y2="389.678"/>
				
					<line fill="none" stroke="#00ABEB" stroke-width="0.15" stroke-miterlimit="10" x1="-341.194" y1="380.058" x2="428.159" y2="380.058"/>
				
					<line fill="none" stroke="#00ABEB" stroke-width="0.15" stroke-miterlimit="10" x1="-341.194" y1="370.438" x2="428.159" y2="370.438"/>
				
					<line fill="none" stroke="#00ABEB" stroke-width="0.15" stroke-miterlimit="10" x1="-341.194" y1="360.822" x2="428.159" y2="360.822"/>
				
					<line fill="none" stroke="#00ABEB" stroke-width="0.15" stroke-miterlimit="10" x1="-341.194" y1="351.202" x2="428.159" y2="351.202"/>
				
					<line fill="none" stroke="#00ABEB" stroke-width="0.15" stroke-miterlimit="10" x1="-341.194" y1="341.582" x2="428.159" y2="341.582"/>
				
					<line fill="none" stroke="#00ABEB" stroke-width="0.15" stroke-miterlimit="10" x1="-341.194" y1="331.966" x2="428.159" y2="331.966"/>
				
					<line fill="none" stroke="#00ABEB" stroke-width="0.15" stroke-miterlimit="10" x1="-341.194" y1="322.346" x2="428.159" y2="322.346"/>
				
					<line fill="none" stroke="#00ABEB" stroke-width="0.15" stroke-miterlimit="10" x1="-341.194" y1="312.725" x2="428.159" y2="312.725"/>
				
					<line fill="none" stroke="#00ABEB" stroke-width="0.15" stroke-miterlimit="10" x1="-341.194" y1="303.108" x2="428.159" y2="303.108"/>
				
					<line fill="none" stroke="#00ABEB" stroke-width="0.15" stroke-miterlimit="10" x1="-341.194" y1="293.488" x2="428.159" y2="293.488"/>
				
					<line fill="none" stroke="#00ABEB" stroke-width="0.15" stroke-miterlimit="10" x1="-341.194" y1="283.872" x2="428.159" y2="283.872"/>
				
					<line fill="none" stroke="#00ABEB" stroke-width="0.15" stroke-miterlimit="10" x1="-341.194" y1="274.252" x2="428.159" y2="274.252"/>
				
					<line fill="none" stroke="#00ABEB" stroke-width="0.15" stroke-miterlimit="10" x1="-341.194" y1="264.632" x2="428.159" y2="264.632"/>
				
					<line fill="none" stroke="#00ABEB" stroke-width="0.15" stroke-miterlimit="10" x1="-341.194" y1="255.016" x2="428.159" y2="255.016"/>
				
					<line fill="none" stroke="#00ABEB" stroke-width="0.15" stroke-miterlimit="10" x1="-341.194" y1="245.396" x2="428.159" y2="245.396"/>
				
					<line fill="none" stroke="#00ABEB" stroke-width="0.15" stroke-miterlimit="10" x1="-341.194" y1="235.776" x2="428.159" y2="235.776"/>
				
					<line fill="none" stroke="#00ABEB" stroke-width="0.15" stroke-miterlimit="10" x1="-341.194" y1="226.16" x2="428.159" y2="226.16"/>
				
					<line fill="none" stroke="#00ABEB" stroke-width="0.15" stroke-miterlimit="10" x1="-341.194" y1="216.54" x2="428.159" y2="216.54"/>
				
					<line fill="none" stroke="#00ABEB" stroke-width="0.15" stroke-miterlimit="10" x1="-341.194" y1="206.92" x2="428.159" y2="206.92"/>
				
					<line fill="none" stroke="#00ABEB" stroke-width="0.15" stroke-miterlimit="10" x1="-341.194" y1="197.304" x2="428.159" y2="197.304"/>
				
					<line fill="none" stroke="#00ABEB" stroke-width="0.15" stroke-miterlimit="10" x1="-341.194" y1="187.684" x2="428.159" y2="187.684"/>
				
					<line fill="none" stroke="#00ABEB" stroke-width="0.15" stroke-miterlimit="10" x1="-341.194" y1="178.064" x2="428.159" y2="178.064"/>
				
					<line fill="none" stroke="#00ABEB" stroke-width="0.15" stroke-miterlimit="10" x1="-341.194" y1="168.448" x2="428.159" y2="168.448"/>
				
					<line fill="none" stroke="#00ABEB" stroke-width="0.15" stroke-miterlimit="10" x1="-341.194" y1="158.828" x2="428.159" y2="158.828"/>
				
					<line fill="none" stroke="#00ABEB" stroke-width="0.15" stroke-miterlimit="10" x1="-341.194" y1="149.208" x2="428.159" y2="149.208"/>
				
					<line fill="none" stroke="#00ABEB" stroke-width="0.15" stroke-miterlimit="10" x1="-341.194" y1="139.592" x2="428.159" y2="139.592"/>
				
					<line fill="none" stroke="#00ABEB" stroke-width="0.15" stroke-miterlimit="10" x1="-341.194" y1="129.97" x2="428.159" y2="129.97"/>
				
					<line fill="none" stroke="#00ABEB" stroke-width="0.15" stroke-miterlimit="10" x1="-341.194" y1="120.354" x2="428.159" y2="120.354"/>
				
					<line fill="none" stroke="#00ABEB" stroke-width="0.15" stroke-miterlimit="10" x1="-341.194" y1="110.734" x2="428.159" y2="110.734"/>
				
					<line fill="none" stroke="#00ABEB" stroke-width="0.15" stroke-miterlimit="10" x1="-341.194" y1="101.114" x2="428.159" y2="101.114"/>
				
					<line fill="none" stroke="#00ABEB" stroke-width="0.15" stroke-miterlimit="10" x1="-341.194" y1="91.498" x2="428.159" y2="91.498"/>
				
					<line fill="none" stroke="#00ABEB" stroke-width="0.15" stroke-miterlimit="10" x1="-341.194" y1="81.878" x2="428.159" y2="81.878"/>
				
					<line fill="none" stroke="#00ABEB" stroke-width="0.15" stroke-miterlimit="10" x1="-341.194" y1="72.258" x2="428.159" y2="72.258"/>
				
					<line fill="none" stroke="#00ABEB" stroke-width="0.15" stroke-miterlimit="10" x1="-341.194" y1="62.641" x2="428.159" y2="62.641"/>
				
					<line fill="none" stroke="#00ABEB" stroke-width="0.15" stroke-miterlimit="10" x1="-341.194" y1="53.022" x2="428.159" y2="53.022"/>
				
					<line fill="none" stroke="#00ABEB" stroke-width="0.15" stroke-miterlimit="10" x1="-341.194" y1="43.402" x2="428.159" y2="43.402"/>
				
					<line fill="none" stroke="#00ABEB" stroke-width="0.15" stroke-miterlimit="10" x1="-341.194" y1="33.785" x2="428.159" y2="33.785"/>
				
					<line fill="none" stroke="#00ABEB" stroke-width="0.15" stroke-miterlimit="10" x1="-341.194" y1="24.166" x2="428.159" y2="24.166"/>
				
					<line fill="none" stroke="#00ABEB" stroke-width="0.15" stroke-miterlimit="10" x1="-341.194" y1="14.546" x2="428.159" y2="14.546"/>
				
					<line fill="none" stroke="#00ABEB" stroke-width="0.15" stroke-miterlimit="10" x1="-341.194" y1="4.929" x2="428.159" y2="4.929"/>
				
					<line fill="none" stroke="#00ABEB" stroke-width="0.15" stroke-miterlimit="10" x1="-341.194" y1="-4.692" x2="428.159" y2="-4.692"/>
				
					<line fill="none" stroke="#00ABEB" stroke-width="0.15" stroke-miterlimit="10" x1="-341.194" y1="-14.308" x2="428.159" y2="-14.308"/>
				
					<line fill="none" stroke="#00ABEB" stroke-width="0.15" stroke-miterlimit="10" x1="-341.194" y1="-23.928" x2="428.159" y2="-23.928"/>
				
					<line fill="none" stroke="#00ABEB" stroke-width="0.15" stroke-miterlimit="10" x1="-341.194" y1="-33.548" x2="428.159" y2="-33.548"/>
				
					<line fill="none" stroke="#00ABEB" stroke-width="0.15" stroke-miterlimit="10" x1="-341.194" y1="-43.165" x2="428.159" y2="-43.165"/>
			</g>
			<g id="Vertical_1_mm">
				<g>
					
						<line fill="none" stroke="#00ABEB" stroke-width="0.15" stroke-miterlimit="10" x1="-340.939" y1="514.673" x2="-340.939" y2="-62.659"/>
				</g>
				
					<line fill="none" stroke="#00ABEB" stroke-width="0.15" stroke-miterlimit="10" x1="-331.328" y1="514.673" x2="-331.328" y2="-62.659"/>
				
					<line fill="none" stroke="#00ABEB" stroke-width="0.15" stroke-miterlimit="10" x1="-321.713" y1="514.673" x2="-321.713" y2="-62.659"/>
				
					<line fill="none" stroke="#00ABEB" stroke-width="0.15" stroke-miterlimit="10" x1="-312.097" y1="514.673" x2="-312.097" y2="-62.659"/>
				
					<line fill="none" stroke="#00ABEB" stroke-width="0.15" stroke-miterlimit="10" x1="-302.486" y1="514.673" x2="-302.486" y2="-62.659"/>
				
					<line fill="none" stroke="#00ABEB" stroke-width="0.15" stroke-miterlimit="10" x1="-292.871" y1="514.673" x2="-292.871" y2="-62.659"/>
				
					<line fill="none" stroke="#00ABEB" stroke-width="0.15" stroke-miterlimit="10" x1="-283.255" y1="514.673" x2="-283.255" y2="-62.659"/>
				
					<line fill="none" stroke="#00ABEB" stroke-width="0.15" stroke-miterlimit="10" x1="-273.644" y1="514.673" x2="-273.644" y2="-62.659"/>
				
					<line fill="none" stroke="#00ABEB" stroke-width="0.15" stroke-miterlimit="10" x1="-264.027" y1="514.673" x2="-264.027" y2="-62.659"/>
				
					<line fill="none" stroke="#00ABEB" stroke-width="0.15" stroke-miterlimit="10" x1="-254.415" y1="514.673" x2="-254.415" y2="-62.659"/>
				
					<line fill="none" stroke="#00ABEB" stroke-width="0.15" stroke-miterlimit="10" x1="-244.801" y1="514.673" x2="-244.801" y2="-62.659"/>
				
					<line fill="none" stroke="#00ABEB" stroke-width="0.15" stroke-miterlimit="10" x1="-235.185" y1="514.673" x2="-235.185" y2="-62.659"/>
				
					<line fill="none" stroke="#00ABEB" stroke-width="0.15" stroke-miterlimit="10" x1="-225.574" y1="514.673" x2="-225.574" y2="-62.659"/>
				
					<line fill="none" stroke="#00ABEB" stroke-width="0.15" stroke-miterlimit="10" x1="-215.959" y1="514.673" x2="-215.959" y2="-62.659"/>
				
					<line fill="none" stroke="#00ABEB" stroke-width="0.15" stroke-miterlimit="10" x1="-206.344" y1="514.673" x2="-206.344" y2="-62.659"/>
				
					<line fill="none" stroke="#00ABEB" stroke-width="0.15" stroke-miterlimit="10" x1="-196.732" y1="514.673" x2="-196.732" y2="-62.659"/>
				
					<line fill="none" stroke="#00ABEB" stroke-width="0.15" stroke-miterlimit="10" x1="-187.117" y1="514.673" x2="-187.117" y2="-62.659"/>
				
					<line fill="none" stroke="#00ABEB" stroke-width="0.15" stroke-miterlimit="10" x1="-177.502" y1="514.673" x2="-177.502" y2="-62.659"/>
				
					<line fill="none" stroke="#00ABEB" stroke-width="0.15" stroke-miterlimit="10" x1="-167.89" y1="514.673" x2="-167.89" y2="-62.659"/>
				
					<line fill="none" stroke="#00ABEB" stroke-width="0.15" stroke-miterlimit="10" x1="-158.275" y1="514.673" x2="-158.275" y2="-62.659"/>
				
					<line fill="none" stroke="#00ABEB" stroke-width="0.15" stroke-miterlimit="10" x1="-148.66" y1="514.673" x2="-148.66" y2="-62.659"/>
				
					<line fill="none" stroke="#00ABEB" stroke-width="0.15" stroke-miterlimit="10" x1="-139.048" y1="514.673" x2="-139.048" y2="-62.659"/>
				
					<line fill="none" stroke="#00ABEB" stroke-width="0.15" stroke-miterlimit="10" x1="-129.433" y1="514.673" x2="-129.433" y2="-62.659"/>
				
					<line fill="none" stroke="#00ABEB" stroke-width="0.15" stroke-miterlimit="10" x1="-119.818" y1="514.673" x2="-119.818" y2="-62.659"/>
				
					<line fill="none" stroke="#00ABEB" stroke-width="0.15" stroke-miterlimit="10" x1="-110.205" y1="514.673" x2="-110.205" y2="-62.659"/>
				
					<line fill="none" stroke="#00ABEB" stroke-width="0.15" stroke-miterlimit="10" x1="-100.589" y1="514.673" x2="-100.589" y2="-62.659"/>
				
					<line fill="none" stroke="#00ABEB" stroke-width="0.15" stroke-miterlimit="10" x1="-90.978" y1="514.673" x2="-90.978" y2="-62.659"/>
				
					<line fill="none" stroke="#00ABEB" stroke-width="0.15" stroke-miterlimit="10" x1="-81.363" y1="514.673" x2="-81.363" y2="-62.659"/>
				
					<line fill="none" stroke="#00ABEB" stroke-width="0.15" stroke-miterlimit="10" x1="-71.748" y1="514.673" x2="-71.748" y2="-62.659"/>
				
					<line fill="none" stroke="#00ABEB" stroke-width="0.15" stroke-miterlimit="10" x1="-62.136" y1="514.673" x2="-62.136" y2="-62.659"/>
				
					<line fill="none" stroke="#00ABEB" stroke-width="0.15" stroke-miterlimit="10" x1="-52.521" y1="514.673" x2="-52.521" y2="-62.659"/>
				
					<line fill="none" stroke="#00ABEB" stroke-width="0.15" stroke-miterlimit="10" x1="-42.906" y1="514.673" x2="-42.906" y2="-62.659"/>
				
					<line fill="none" stroke="#00ABEB" stroke-width="0.15" stroke-miterlimit="10" x1="-33.294" y1="514.673" x2="-33.294" y2="-62.659"/>
				
					<line fill="none" stroke="#00ABEB" stroke-width="0.15" stroke-miterlimit="10" x1="-23.679" y1="514.673" x2="-23.679" y2="-62.659"/>
				
					<line fill="none" stroke="#00ABEB" stroke-width="0.15" stroke-miterlimit="10" x1="-14.064" y1="514.673" x2="-14.064" y2="-62.659"/>
				
					<line fill="none" stroke="#00ABEB" stroke-width="0.15" stroke-miterlimit="10" x1="-4.452" y1="514.673" x2="-4.452" y2="-62.659"/>
				
					<line fill="none" stroke="#00ABEB" stroke-width="0.15" stroke-miterlimit="10" x1="5.163" y1="514.673" x2="5.163" y2="-62.659"/>
				
					<line fill="none" stroke="#00ABEB" stroke-width="0.15" stroke-miterlimit="10" x1="14.778" y1="514.673" x2="14.778" y2="-62.659"/>
				
					<line fill="none" stroke="#00ABEB" stroke-width="0.15" stroke-miterlimit="10" x1="24.39" y1="514.673" x2="24.39" y2="-62.659"/>
				
					<line fill="none" stroke="#00ABEB" stroke-width="0.15" stroke-miterlimit="10" x1="34.004" y1="514.673" x2="34.004" y2="-62.659"/>
				
					<line fill="none" stroke="#00ABEB" stroke-width="0.15" stroke-miterlimit="10" x1="43.616" y1="514.673" x2="43.616" y2="-62.659"/>
				
					<line fill="none" stroke="#00ABEB" stroke-width="0.15" stroke-miterlimit="10" x1="53.233" y1="514.673" x2="53.233" y2="-62.659"/>
				
					<line fill="none" stroke="#00ABEB" stroke-width="0.15" stroke-miterlimit="10" x1="62.848" y1="514.673" x2="62.848" y2="-62.659"/>
				
					<line fill="none" stroke="#00ABEB" stroke-width="0.15" stroke-miterlimit="10" x1="72.46" y1="514.673" x2="72.46" y2="-62.659"/>
				
					<line fill="none" stroke="#00ABEB" stroke-width="0.15" stroke-miterlimit="10" x1="82.075" y1="514.673" x2="82.075" y2="-62.659"/>
				
					<line fill="none" stroke="#00ABEB" stroke-width="0.15" stroke-miterlimit="10" x1="91.69" y1="514.673" x2="91.69" y2="-62.659"/>
				
					<line fill="none" stroke="#00ABEB" stroke-width="0.15" stroke-miterlimit="10" x1="101.301" y1="514.673" x2="101.301" y2="-62.659"/>
				
					<line fill="none" stroke="#00ABEB" stroke-width="0.15" stroke-miterlimit="10" x1="110.917" y1="514.673" x2="110.917" y2="-62.659"/>
				
					<line fill="none" stroke="#00ABEB" stroke-width="0.15" stroke-miterlimit="10" x1="120.532" y1="514.673" x2="120.532" y2="-62.659"/>
				
					<line fill="none" stroke="#00ABEB" stroke-width="0.15" stroke-miterlimit="10" x1="130.143" y1="514.673" x2="130.143" y2="-62.659"/>
				
					<line fill="none" stroke="#00ABEB" stroke-width="0.15" stroke-miterlimit="10" x1="139.758" y1="514.673" x2="139.758" y2="-62.659"/>
				
					<line fill="none" stroke="#00ABEB" stroke-width="0.15" stroke-miterlimit="10" x1="149.373" y1="514.673" x2="149.373" y2="-62.659"/>
				
					<line fill="none" stroke="#00ABEB" stroke-width="0.15" stroke-miterlimit="10" x1="158.985" y1="514.673" x2="158.985" y2="-62.659"/>
				
					<line fill="none" stroke="#00ABEB" stroke-width="0.15" stroke-miterlimit="10" x1="168.6" y1="514.673" x2="168.6" y2="-62.659"/>
				
					<line fill="none" stroke="#00ABEB" stroke-width="0.15" stroke-miterlimit="10" x1="178.215" y1="514.673" x2="178.215" y2="-62.659"/>
				
					<line fill="none" stroke="#00ABEB" stroke-width="0.15" stroke-miterlimit="10" x1="187.827" y1="514.673" x2="187.827" y2="-62.659"/>
				
					<line fill="none" stroke="#00ABEB" stroke-width="0.15" stroke-miterlimit="10" x1="197.444" y1="514.673" x2="197.444" y2="-62.659"/>
				
					<line fill="none" stroke="#00ABEB" stroke-width="0.15" stroke-miterlimit="10" x1="207.056" y1="514.673" x2="207.056" y2="-62.659"/>
				
					<line fill="none" stroke="#00ABEB" stroke-width="0.15" stroke-miterlimit="10" x1="216.67" y1="514.673" x2="216.67" y2="-62.659"/>
				
					<line fill="none" stroke="#00ABEB" stroke-width="0.15" stroke-miterlimit="10" x1="226.286" y1="514.673" x2="226.286" y2="-62.659"/>
				
					<line fill="none" stroke="#00ABEB" stroke-width="0.15" stroke-miterlimit="10" x1="235.897" y1="514.673" x2="235.897" y2="-62.659"/>
				
					<line fill="none" stroke="#00ABEB" stroke-width="0.15" stroke-miterlimit="10" x1="245.512" y1="514.673" x2="245.512" y2="-62.659"/>
				
					<line fill="none" stroke="#00ABEB" stroke-width="0.15" stroke-miterlimit="10" x1="255.127" y1="514.673" x2="255.127" y2="-62.659"/>
				
					<line fill="none" stroke="#00ABEB" stroke-width="0.15" stroke-miterlimit="10" x1="264.739" y1="514.673" x2="264.739" y2="-62.659"/>
				
					<line fill="none" stroke="#00ABEB" stroke-width="0.15" stroke-miterlimit="10" x1="274.354" y1="514.673" x2="274.354" y2="-62.659"/>
				
					<line fill="none" stroke="#00ABEB" stroke-width="0.15" stroke-miterlimit="10" x1="283.969" y1="514.673" x2="283.969" y2="-62.659"/>
				
					<line fill="none" stroke="#00ABEB" stroke-width="0.15" stroke-miterlimit="10" x1="293.581" y1="514.673" x2="293.581" y2="-62.659"/>
				
					<line fill="none" stroke="#00ABEB" stroke-width="0.15" stroke-miterlimit="10" x1="303.196" y1="514.673" x2="303.196" y2="-62.659"/>
				
					<line fill="none" stroke="#00ABEB" stroke-width="0.15" stroke-miterlimit="10" x1="312.811" y1="514.673" x2="312.811" y2="-62.659"/>
				
					<line fill="none" stroke="#00ABEB" stroke-width="0.15" stroke-miterlimit="10" x1="322.423" y1="514.673" x2="322.423" y2="-62.659"/>
				
					<line fill="none" stroke="#00ABEB" stroke-width="0.15" stroke-miterlimit="10" x1="332.038" y1="514.673" x2="332.038" y2="-62.659"/>
				
					<line fill="none" stroke="#00ABEB" stroke-width="0.15" stroke-miterlimit="10" x1="341.653" y1="514.673" x2="341.653" y2="-62.659"/>
				
					<line fill="none" stroke="#00ABEB" stroke-width="0.15" stroke-miterlimit="10" x1="351.266" y1="514.673" x2="351.266" y2="-62.659"/>
				
					<line fill="none" stroke="#00ABEB" stroke-width="0.15" stroke-miterlimit="10" x1="360.881" y1="514.673" x2="360.881" y2="-62.659"/>
				
					<line fill="none" stroke="#00ABEB" stroke-width="0.15" stroke-miterlimit="10" x1="370.493" y1="514.673" x2="370.493" y2="-62.659"/>
				
					<line fill="none" stroke="#00ABEB" stroke-width="0.15" stroke-miterlimit="10" x1="380.108" y1="514.673" x2="380.108" y2="-62.659"/>
				
					<line fill="none" stroke="#00ABEB" stroke-width="0.15" stroke-miterlimit="10" x1="389.723" y1="514.673" x2="389.723" y2="-62.659"/>
				
					<line fill="none" stroke="#00ABEB" stroke-width="0.15" stroke-miterlimit="10" x1="399.335" y1="514.673" x2="399.335" y2="-62.659"/>
				
					<line fill="none" stroke="#00ABEB" stroke-width="0.15" stroke-miterlimit="10" x1="408.95" y1="514.673" x2="408.95" y2="-62.659"/>
				
					<line fill="none" stroke="#00ABEB" stroke-width="0.15" stroke-miterlimit="10" x1="418.565" y1="514.673" x2="418.565" y2="-62.659"/>
				
					<line fill="none" stroke="#00ABEB" stroke-width="0.15" stroke-miterlimit="10" x1="428.177" y1="514.673" x2="428.177" y2="-62.659"/>
			</g>
			<g id="Horizontal_5_mm_1_">
				
					<line fill="none" stroke="#00ABEB" stroke-width="0.3" stroke-miterlimit="10" x1="-342.127" y1="514.72" x2="428.159" y2="514.72"/>
				
					<line fill="none" stroke="#00ABEB" stroke-width="0.3" stroke-miterlimit="10" x1="-342.127" y1="466.628" x2="428.159" y2="466.628"/>
				
					<line fill="none" stroke="#00ABEB" stroke-width="0.3" stroke-miterlimit="10" x1="-342.127" y1="418.534" x2="428.159" y2="418.534"/>
				
					<line fill="none" stroke="#00ABEB" stroke-width="0.3" stroke-miterlimit="10" x1="-342.127" y1="370.438" x2="428.159" y2="370.438"/>
				
					<line fill="none" stroke="#00ABEB" stroke-width="0.3" stroke-miterlimit="10" x1="-342.127" y1="322.346" x2="428.159" y2="322.346"/>
				
					<line fill="none" stroke="#00ABEB" stroke-width="0.3" stroke-miterlimit="10" x1="-342.127" y1="274.252" x2="428.159" y2="274.252"/>
				
					<line fill="none" stroke="#00ABEB" stroke-width="0.3" stroke-miterlimit="10" x1="-342.127" y1="226.16" x2="428.159" y2="226.16"/>
				
					<line fill="none" stroke="#00ABEB" stroke-width="0.3" stroke-miterlimit="10" x1="-342.127" y1="178.064" x2="428.159" y2="178.064"/>
				
					<line fill="none" stroke="#00ABEB" stroke-width="0.3" stroke-miterlimit="10" x1="-342.127" y1="129.97" x2="428.159" y2="129.97"/>
				
					<line fill="none" stroke="#00ABEB" stroke-width="0.3" stroke-miterlimit="10" x1="-342.127" y1="81.878" x2="428.159" y2="81.878"/>
				
					<line fill="none" stroke="#00ABEB" stroke-width="0.3" stroke-miterlimit="10" x1="-342.127" y1="33.785" x2="428.159" y2="33.785"/>
			</g>
			<g id="Vertical_5_mm">
				
					<line fill="none" stroke="#00ABEB" stroke-width="0.3" stroke-miterlimit="10" x1="-340.939" y1="514.673" x2="-340.939" y2="-63.592"/>
				
					<line fill="none" stroke="#00ABEB" stroke-width="0.3" stroke-miterlimit="10" x1="-292.871" y1="514.673" x2="-292.871" y2="-63.592"/>
				
					<line fill="none" stroke="#00ABEB" stroke-width="0.3" stroke-miterlimit="10" x1="-244.801" y1="514.673" x2="-244.801" y2="-63.592"/>
				
					<line fill="none" stroke="#00ABEB" stroke-width="0.3" stroke-miterlimit="10" x1="-196.732" y1="514.673" x2="-196.732" y2="-63.592"/>
				
					<line fill="none" stroke="#00ABEB" stroke-width="0.3" stroke-miterlimit="10" x1="-148.66" y1="514.673" x2="-148.66" y2="-63.592"/>
				
					<line fill="none" stroke="#00ABEB" stroke-width="0.3" stroke-miterlimit="10" x1="-100.589" y1="514.673" x2="-100.589" y2="-63.592"/>
				
					<line fill="none" stroke="#00ABEB" stroke-width="0.3" stroke-miterlimit="10" x1="-52.521" y1="514.673" x2="-52.521" y2="-63.592"/>
				
					<line fill="none" stroke="#00ABEB" stroke-width="0.3" stroke-miterlimit="10" x1="-4.452" y1="514.673" x2="-4.452" y2="-63.592"/>
				
					<line fill="none" stroke="#00ABEB" stroke-width="0.3" stroke-miterlimit="10" x1="43.616" y1="514.673" x2="43.616" y2="-63.592"/>
				
					<line fill="none" stroke="#00ABEB" stroke-width="0.3" stroke-miterlimit="10" x1="91.69" y1="514.673" x2="91.69" y2="-63.592"/>
				
					<line fill="none" stroke="#00ABEB" stroke-width="0.3" stroke-miterlimit="10" x1="139.758" y1="514.673" x2="139.758" y2="-63.592"/>
				
					<line fill="none" stroke="#00ABEB" stroke-width="0.3" stroke-miterlimit="10" x1="187.827" y1="514.673" x2="187.827" y2="-63.592"/>
				
					<line fill="none" stroke="#00ABEB" stroke-width="0.3" stroke-miterlimit="10" x1="235.897" y1="514.673" x2="235.897" y2="-63.592"/>
				
					<line fill="none" stroke="#00ABEB" stroke-width="0.3" stroke-miterlimit="10" x1="283.969" y1="514.673" x2="283.969" y2="-63.592"/>
				
					<line fill="none" stroke="#00ABEB" stroke-width="0.3" stroke-miterlimit="10" x1="332.038" y1="514.673" x2="332.038" y2="-63.592"/>
				
					<line fill="none" stroke="#00ABEB" stroke-width="0.3" stroke-miterlimit="10" x1="380.108" y1="514.673" x2="380.108" y2="-63.592"/>
				
					<line fill="none" stroke="#00ABEB" stroke-width="0.3" stroke-miterlimit="10" x1="428.177" y1="514.673" x2="428.177" y2="-63.592"/>
			</g>
			<g id="Horizontal_10_mm">
				
					<line id="_x31_9_1_" fill="none" stroke="#00ABEB" stroke-width="0.7" stroke-miterlimit="10" x1="-342.127" y1="514.72" x2="428.159" y2="514.72"/>
				
					<line id="_x32_0" fill="none" stroke="#00ABEB" stroke-width="0.7" stroke-miterlimit="10" x1="-342.127" y1="418.534" x2="428.159" y2="418.534"/>
				
					<line id="_x32_1" fill="none" stroke="#00ABEB" stroke-width="0.7" stroke-miterlimit="10" x1="-342.127" y1="322.346" x2="428.159" y2="322.346"/>
				
					<line id="_x32_2" fill="none" stroke="#00ABEB" stroke-width="0.7" stroke-miterlimit="10" x1="-342.127" y1="226.16" x2="428.159" y2="226.16"/>
				
					<line id="_x32_3" fill="none" stroke="#00ABEB" stroke-width="0.7" stroke-miterlimit="10" x1="-342.127" y1="129.97" x2="428.159" y2="129.97"/>
				
					<line id="_x32_4" fill="none" stroke="#00ABEB" stroke-width="0.7" stroke-miterlimit="10" x1="-342.127" y1="33.785" x2="428.159" y2="33.785"/>
				
					<line id="_x32_5" fill="none" stroke="#00ABEB" stroke-width="0.7" stroke-miterlimit="10" x1="-342.127" y1="-62.404" x2="428.159" y2="-62.404"/>
			</g>
			<g id="Vertical_10_mm">
				
					<line id="_x30_" fill="none" stroke="#00ABEB" stroke-width="0.7" stroke-miterlimit="10" x1="-340.939" y1="514.673" x2="-340.939" y2="-63.592"/>
				
					<line id="_x31_" fill="none" stroke="#00ABEB" stroke-width="0.7" stroke-miterlimit="10" x1="-244.801" y1="514.673" x2="-244.801" y2="-63.592"/>
				
					<line id="_x32_" fill="none" stroke="#00ABEB" stroke-width="0.7" stroke-miterlimit="10" x1="-148.66" y1="514.673" x2="-148.66" y2="-63.592"/>
				
					<line id="_x33_" fill="none" stroke="#00ABEB" stroke-width="0.7" stroke-miterlimit="10" x1="-52.521" y1="514.673" x2="-52.521" y2="-63.592"/>
				
					<line id="_x34_" fill="none" stroke="#00ABEB" stroke-width="0.7" stroke-miterlimit="10" x1="43.616" y1="514.673" x2="43.616" y2="-63.592"/>
				
					<line id="_x35_" fill="none" stroke="#00ABEB" stroke-width="0.7" stroke-miterlimit="10" x1="139.758" y1="514.673" x2="139.758" y2="-63.592"/>
				
					<line id="_x36_" fill="none" stroke="#00ABEB" stroke-width="0.7" stroke-miterlimit="10" x1="235.897" y1="514.673" x2="235.897" y2="-63.592"/>
				
					<line id="_x37_" fill="none" stroke="#00ABEB" stroke-width="0.7" stroke-miterlimit="10" x1="332.038" y1="514.673" x2="332.038" y2="-63.592"/>
				
					<line id="_x38_" fill="none" stroke="#00ABEB" stroke-width="0.7" stroke-miterlimit="10" x1="428.177" y1="514.673" x2="428.177" y2="-63.592"/>
			</g>
		</g>
	</g>
</g>
<g id="one_solution">
	<g>
		<path d="M14.307,63.353c3.822,0,5.668,1.352,5.668,3.848c0,1.404-0.702,2.835-1.768,3.719c-1.196,0.987-3.016,1.481-5.33,1.481
			c-1.092,0-1.664-0.052-2.34-0.208l-1.378,5.019c-0.182,0.702-0.364,1.248-0.364,1.638c0,0.599,0.39,0.91,1.794,1.066v0.416H4.244
			v-0.416c1.482-0.208,1.716-0.442,2.184-2.132l3.016-10.765c0.338-1.222,0.442-1.769,0.442-2.158c0-0.702-0.364-0.91-1.846-1.092
			v-0.416H14.307z M10.77,71.309c0.754,0.13,0.884,0.13,1.352,0.13c1.612,0,2.522-0.155,3.328-0.624
			c1.144-0.649,1.846-1.794,1.846-3.484c0-2.313-1.248-3.197-3.38-3.197c-0.728,0-1.196,0.208-1.352,0.806L10.77,71.309z"/>
		<path d="M24.238,79.864c-0.533,0.377-1.092,0.559-1.638,0.559c-1.326,0-2.054-1.092-2.054-2.898c0-3.056,1.937-5.98,3.978-5.98
			c1.326,0,2.067,1.157,2.067,3.263C26.591,76.717,25.577,78.914,24.238,79.864z M24.472,71.907c-0.585,0-1.092,0.391-1.56,1.235
			c-0.676,1.223-1.339,3.771-1.339,5.161c0,1.105,0.429,1.755,1.053,1.755c0.598,0,1.196-0.441,1.677-1.3
			c0.754-1.326,1.261-3.471,1.261-5.161C25.564,72.557,25.252,71.907,24.472,71.907z"/>
	</g>
	<path fill="none" stroke="#FF0000" stroke-width="3" stroke-linecap="round" stroke-linejoin="round" stroke-miterlimit="10" d="
		M31.994,71.113c103.401,12.744,86.101-86.169,187.494-52.027"/>
	<g>
		<path fill="#FF0000" d="M112.6,29.642l-0.468-0.078c-0.312-2.782-1.586-4.238-3.874-4.238c-1.924,0-3.744,0.988-5.174,2.522
			c-1.872,2.002-2.809,4.966-2.809,7.826c0,3.641,1.664,5.33,4.55,5.33c2.132,0,3.692-0.754,5.955-3.094l0.468,0.39
			c-2.34,2.756-4.42,3.874-7.098,3.874c-3.978,0-6.787-2.496-6.787-6.786c0-3.666,2.002-7.072,4.862-9.101
			c1.664-1.195,3.64-1.897,5.694-1.897c0.858,0,1.95,0.052,3.042,0.441c0.52,0.183,0.832,0.183,1.066,0.183
			c0.52,0,0.78-0.156,0.988-0.572h0.546L112.6,29.642z"/>
	</g>
	<g>
		<path d="M235.775,9.263c3.822,0,5.668,1.352,5.668,3.848c0,1.404-0.702,2.835-1.768,3.719c-1.196,0.987-3.017,1.481-5.33,1.481
			c-1.093,0-1.664-0.052-2.341-0.208l-1.378,5.019c-0.182,0.702-0.363,1.248-0.363,1.638c0,0.599,0.39,0.91,1.794,1.066v0.416
			h-6.345v-0.416c1.482-0.208,1.716-0.442,2.185-2.132l3.016-10.765c0.338-1.222,0.442-1.769,0.442-2.158
			c0-0.702-0.364-0.91-1.847-1.092V9.263H235.775z M232.239,17.219c0.754,0.13,0.884,0.13,1.353,0.13
			c1.611,0,2.521-0.155,3.328-0.624c1.144-0.649,1.846-1.794,1.846-3.484c0-2.313-1.248-3.197-3.38-3.197
			c-0.729,0-1.196,0.208-1.353,0.806L232.239,17.219z"/>
		<path d="M246.85,17.453c0.039,0,0.065,0.039,0.065,0.091c0,0.065-0.026,0.195-0.078,0.377l-1.859,6.747
			c-0.091,0.325-0.233,0.832-0.233,0.962c0,0.3,0.286,0.416,0.857,0.416h0.273v0.195h-3.627v-0.195
			c1.027-0.078,1.312-0.221,1.456-0.715l1.768-6.344c0.065-0.247,0.104-0.377,0.104-0.469c0-0.247-0.169-0.402-0.455-0.402h-0.039
			c-0.234,0-0.521,0.013-0.767,0.025v-0.194l0.299-0.065c1.144-0.247,1.195-0.221,2.197-0.429H246.85z"/>
	</g>
</g>
</svg>
