<?xml version="1.0" encoding="utf-8"?>
<!-- Generator: Adobe Illustrator 26.0.1, SVG Export Plug-In . SVG Version: 6.00 Build 0)  -->
<svg version="1.1" xmlns="http://www.w3.org/2000/svg" xmlns:xlink="http://www.w3.org/1999/xlink" x="0px" y="0px"
	 viewBox="0 0 366.0368 203.2203" style="enable-background:new 0 0 366.0368 203.2203;" xml:space="preserve">
<style type="text/css">
	.st0{opacity:0.5;}
	.st1{opacity:0.25;clip-path:url(#SVGID_00000008129227376564064980000007534565827716655510_);}
	.st2{fill:none;stroke:#00ABEB;stroke-width:0.2111;stroke-miterlimit:10;}
	.st3{fill:none;stroke:#00ABEB;stroke-width:0.4221;stroke-miterlimit:10;}
	.st4{fill:none;stroke:#00ABEB;stroke-width:0.9849;stroke-miterlimit:10;}
	.st5{fill:none;stroke:#000000;stroke-width:2;stroke-miterlimit:10;}
	.st6{fill:none;stroke:#00B200;stroke-width:0.5;stroke-miterlimit:10;stroke-dasharray:12;}
	.st7{fill:none;stroke:#00B200;stroke-width:2;stroke-miterlimit:10;}
	.st8{fill:#00B200;}
	.st9{fill:#FF0000;}
	.st10{fill:none;stroke:#FF0000;stroke-width:1.3251;stroke-miterlimit:10;stroke-dasharray:39.7544,39.7544;}
	.st11{fill:#0000FF;}
	.st12{fill:none;stroke:#0000FF;stroke-width:1.3251;stroke-miterlimit:10;stroke-dasharray:39.7544,39.7544;}
	.st13{fill:none;stroke:#0000FF;stroke-width:2;stroke-miterlimit:10;}
	.st14{opacity:0.33;fill:#FFFFFF;stroke:#FF0000;stroke-miterlimit:10;}
	.st15{fill:none;stroke:#FF0000;stroke-width:1.1325;}
	.st16{stroke:#FF0000;stroke-width:1.1325;}
</style>
<g id="Graph_paper" class="st0">
	<g id="Clipped_grid">
		<defs>
			<rect id="SVGID_1_" x="-19.7301" y="-12.683" width="400.8589" height="230.4926"/>
		</defs>
		<clipPath id="SVGID_00000157277167198333168620000001060942381658401209_">
			<use xlink:href="#SVGID_1_"  style="overflow:visible;"/>
		</clipPath>
		
			<g id="Grid_00000060005542146034257920000005065612243763103930_" style="opacity:0.25;clip-path:url(#SVGID_00000157277167198333168620000001060942381658401209_);">
			<g id="Horizontal_1_mm">
				<line class="st2" x1="-267.975" y1="-233.1547" x2="533.9838" y2="-233.1547"/>
				<line class="st2" x1="-267.975" y1="-243.1772" x2="533.9838" y2="-243.1772"/>
				<line class="st2" x1="-267.975" y1="358.1098" x2="533.9838" y2="358.1098"/>
				<line class="st2" x1="-267.975" y1="348.0871" x2="533.9838" y2="348.0871"/>
				<line class="st2" x1="-267.975" y1="338.068" x2="533.9838" y2="338.068"/>
				<line class="st2" x1="-267.975" y1="328.0456" x2="533.9838" y2="328.0456"/>
				<line class="st2" x1="-267.975" y1="318.0229" x2="533.9838" y2="318.0229"/>
				<line class="st2" x1="-267.975" y1="308.0038" x2="533.9838" y2="308.0038"/>
				<line class="st2" x1="-267.975" y1="297.9815" x2="533.9838" y2="297.9815"/>
				<line class="st2" x1="-267.975" y1="287.9623" x2="533.9838" y2="287.9623"/>
				<line class="st2" x1="-267.975" y1="277.9379" x2="533.9838" y2="277.9379"/>
				<line class="st2" x1="-267.975" y1="267.9156" x2="533.9838" y2="267.9156"/>
				<line class="st2" x1="-267.975" y1="257.8964" x2="533.9838" y2="257.8964"/>
				<line class="st2" x1="-267.975" y1="247.8737" x2="533.9838" y2="247.8737"/>
				<line class="st2" x1="-267.975" y1="237.8514" x2="533.9838" y2="237.8514"/>
				<line class="st2" x1="-267.975" y1="227.8323" x2="533.9838" y2="227.8323"/>
				<line class="st2" x1="-267.975" y1="217.8096" x2="533.9838" y2="217.8096"/>
				<line class="st2" x1="-267.975" y1="207.7873" x2="533.9838" y2="207.7873"/>
				<line class="st2" x1="-267.975" y1="197.7681" x2="533.9838" y2="197.7681"/>
				<line class="st2" x1="-267.975" y1="187.7454" x2="533.9838" y2="187.7454"/>
				<line class="st2" x1="-267.975" y1="177.7228" x2="533.9838" y2="177.7228"/>
				<line class="st2" x1="-267.975" y1="167.704" x2="533.9838" y2="167.704"/>
				<line class="st2" x1="-267.975" y1="157.6813" x2="533.9838" y2="157.6813"/>
				<line class="st2" x1="-267.975" y1="147.6572" x2="533.9838" y2="147.6572"/>
				<line class="st2" x1="-267.975" y1="137.6381" x2="533.9838" y2="137.6381"/>
				<line class="st2" x1="-267.975" y1="127.6154" x2="533.9838" y2="127.6154"/>
				<line class="st2" x1="-267.975" y1="117.5962" x2="533.9838" y2="117.5962"/>
				<line class="st2" x1="-267.975" y1="107.5739" x2="533.9838" y2="107.5739"/>
				<line class="st2" x1="-267.975" y1="97.5512" x2="533.9838" y2="97.5512"/>
				<line class="st2" x1="-267.975" y1="87.5321" x2="533.9838" y2="87.5321"/>
				<line class="st2" x1="-267.975" y1="77.5098" x2="533.9838" y2="77.5098"/>
				<line class="st2" x1="-267.975" y1="67.4871" x2="533.9838" y2="67.4871"/>
				<line class="st2" x1="-267.975" y1="57.4679" x2="533.9838" y2="57.4679"/>
				<line class="st2" x1="-267.975" y1="47.4456" x2="533.9838" y2="47.4456"/>
				<line class="st2" x1="-267.975" y1="37.4229" x2="533.9838" y2="37.4229"/>
				<line class="st2" x1="-267.975" y1="27.4038" x2="533.9838" y2="27.4038"/>
				<line class="st2" x1="-267.975" y1="17.3811" x2="533.9838" y2="17.3811"/>
				<line class="st2" x1="-267.975" y1="7.3588" x2="533.9838" y2="7.3588"/>
				<line class="st2" x1="-267.975" y1="-2.6604" x2="533.9838" y2="-2.6604"/>
				<line class="st2" x1="-267.975" y1="-12.683" x2="533.9838" y2="-12.683"/>
				<line class="st2" x1="-267.975" y1="-22.7054" x2="533.9838" y2="-22.7054"/>
				<line class="st2" x1="-267.975" y1="-32.7245" x2="533.9838" y2="-32.7245"/>
				<line class="st2" x1="-267.975" y1="-42.749" x2="533.9838" y2="-42.749"/>
				<line class="st2" x1="-267.975" y1="-52.7678" x2="533.9838" y2="-52.7678"/>
				<line class="st2" x1="-267.975" y1="-62.7904" x2="533.9838" y2="-62.7904"/>
				<line class="st2" x1="-267.975" y1="-72.8131" x2="533.9838" y2="-72.8131"/>
				<line class="st2" x1="-267.975" y1="-82.8319" x2="533.9838" y2="-82.8319"/>
				<line class="st2" x1="-267.975" y1="-92.8546" x2="533.9838" y2="-92.8546"/>
				<line class="st2" x1="-267.975" y1="-102.8773" x2="533.9838" y2="-102.8773"/>
				<line class="st2" x1="-267.975" y1="-112.8964" x2="533.9838" y2="-112.8964"/>
				<line class="st2" x1="-267.975" y1="-122.9187" x2="533.9838" y2="-122.9187"/>
				<line class="st2" x1="-267.975" y1="-132.9414" x2="533.9838" y2="-132.9414"/>
				<line class="st2" x1="-267.975" y1="-142.9606" x2="533.9838" y2="-142.9606"/>
				<line class="st2" x1="-267.975" y1="-152.9829" x2="533.9838" y2="-152.9829"/>
				<line class="st2" x1="-267.975" y1="-163.0056" x2="533.9838" y2="-163.0056"/>
				<line class="st2" x1="-267.975" y1="-173.0247" x2="533.9838" y2="-173.0247"/>
				<line class="st2" x1="-267.975" y1="-183.0488" x2="533.9838" y2="-183.0488"/>
				<line class="st2" x1="-267.975" y1="-193.0679" x2="533.9838" y2="-193.0679"/>
				<line class="st2" x1="-267.975" y1="-203.0906" x2="533.9838" y2="-203.0906"/>
				<line class="st2" x1="-267.975" y1="-213.113" x2="533.9838" y2="-213.113"/>
				<line class="st2" x1="-267.975" y1="-223.1321" x2="533.9838" y2="-223.1321"/>
			</g>
			<g id="Vertical_1_mm">
				<g>
					<line class="st2" x1="-267.7092" y1="358.061" x2="-267.7092" y2="-243.443"/>
				</g>
				<line class="st2" x1="-257.6901" y1="358.061" x2="-257.6901" y2="-243.443"/>
				<line class="st2" x1="-247.6675" y1="358.061" x2="-247.6675" y2="-243.443"/>
				<line class="st2" x1="-237.645" y1="358.061" x2="-237.645" y2="-243.443"/>
				<line class="st2" x1="-227.626" y1="358.061" x2="-227.626" y2="-243.443"/>
				<line class="st2" x1="-217.6034" y1="358.061" x2="-217.6034" y2="-243.443"/>
				<line class="st2" x1="-207.5807" y1="358.061" x2="-207.5807" y2="-243.443"/>
				<line class="st2" x1="-197.5619" y1="358.061" x2="-197.5619" y2="-243.443"/>
				<line class="st2" x1="-187.5374" y1="358.061" x2="-187.5374" y2="-243.443"/>
				<line class="st2" x1="-177.5183" y1="358.061" x2="-177.5183" y2="-243.443"/>
				<line class="st2" x1="-167.496" y1="358.061" x2="-167.496" y2="-243.443"/>
				<line class="st2" x1="-157.4733" y1="358.061" x2="-157.4733" y2="-243.443"/>
				<line class="st2" x1="-147.4541" y1="358.061" x2="-147.4541" y2="-243.443"/>
				<line class="st2" x1="-137.4318" y1="358.061" x2="-137.4318" y2="-243.443"/>
				<line class="st2" x1="-127.4091" y1="358.061" x2="-127.4091" y2="-243.443"/>
				<line class="st2" x1="-117.39" y1="358.061" x2="-117.39" y2="-243.443"/>
				<line class="st2" x1="-107.3673" y1="358.061" x2="-107.3673" y2="-243.443"/>
				<line class="st2" x1="-97.345" y1="358.061" x2="-97.345" y2="-243.443"/>
				<line class="st2" x1="-87.3259" y1="358.061" x2="-87.3259" y2="-243.443"/>
				<line class="st2" x1="-77.3032" y1="358.061" x2="-77.3032" y2="-243.443"/>
				<line class="st2" x1="-67.2808" y1="358.061" x2="-67.2808" y2="-243.443"/>
				<line class="st2" x1="-57.2617" y1="358.061" x2="-57.2617" y2="-243.443"/>
				<line class="st2" x1="-47.239" y1="358.061" x2="-47.239" y2="-243.443"/>
				<line class="st2" x1="-37.2167" y1="358.061" x2="-37.2167" y2="-243.443"/>
				<line class="st2" x1="-27.1958" y1="358.061" x2="-27.1958" y2="-243.443"/>
				<line class="st2" x1="-17.1731" y1="358.061" x2="-17.1731" y2="-243.443"/>
				<line class="st2" x1="-7.1543" y1="358.061" x2="-7.1543" y2="-243.443"/>
				<line class="st2" x1="2.8684" y1="358.061" x2="2.8684" y2="-243.443"/>
				<line class="st2" x1="12.891" y1="358.061" x2="12.891" y2="-243.443"/>
				<line class="st2" x1="22.9098" y1="358.061" x2="22.9098" y2="-243.443"/>
				<line class="st2" x1="32.9325" y1="358.061" x2="32.9325" y2="-243.443"/>
				<line class="st2" x1="42.9552" y1="358.061" x2="42.9552" y2="-243.443"/>
				<line class="st2" x1="52.9743" y1="358.061" x2="52.9743" y2="-243.443"/>
				<line class="st2" x1="62.9967" y1="358.061" x2="62.9967" y2="-243.443"/>
				<line class="st2" x1="73.0193" y1="358.061" x2="73.0193" y2="-243.443"/>
				<line class="st2" x1="83.0385" y1="358.061" x2="83.0385" y2="-243.443"/>
				<line class="st2" x1="93.0608" y1="358.061" x2="93.0608" y2="-243.443"/>
				<line class="st2" x1="103.0835" y1="358.061" x2="103.0835" y2="-243.443"/>
				<line class="st2" x1="113.1026" y1="358.061" x2="113.1026" y2="-243.443"/>
				<line class="st2" x1="123.125" y1="358.061" x2="123.125" y2="-243.443"/>
				<line class="st2" x1="133.1441" y1="358.061" x2="133.1441" y2="-243.443"/>
				<line class="st2" x1="143.1685" y1="358.061" x2="143.1685" y2="-243.443"/>
				<line class="st2" x1="153.1909" y1="358.061" x2="153.1909" y2="-243.443"/>
				<line class="st2" x1="163.21" y1="358.061" x2="163.21" y2="-243.443"/>
				<line class="st2" x1="173.2327" y1="358.061" x2="173.2327" y2="-243.443"/>
				<line class="st2" x1="183.255" y1="358.061" x2="183.255" y2="-243.443"/>
				<line class="st2" x1="193.2742" y1="358.061" x2="193.2742" y2="-243.443"/>
				<line class="st2" x1="203.2968" y1="358.061" x2="203.2968" y2="-243.443"/>
				<line class="st2" x1="213.3192" y1="358.061" x2="213.3192" y2="-243.443"/>
				<line class="st2" x1="223.3383" y1="358.061" x2="223.3383" y2="-243.443"/>
				<line class="st2" x1="233.361" y1="358.061" x2="233.361" y2="-243.443"/>
				<line class="st2" x1="243.3833" y1="358.061" x2="243.3833" y2="-243.443"/>
				<line class="st2" x1="253.4025" y1="358.061" x2="253.4025" y2="-243.443"/>
				<line class="st2" x1="263.4251" y1="358.061" x2="263.4251" y2="-243.443"/>
				<line class="st2" x1="273.4474" y1="358.061" x2="273.4474" y2="-243.443"/>
				<line class="st2" x1="283.4666" y1="358.061" x2="283.4666" y2="-243.443"/>
				<line class="st2" x1="293.4911" y1="358.061" x2="293.4911" y2="-243.443"/>
				<line class="st2" x1="303.5102" y1="358.061" x2="303.5102" y2="-243.443"/>
				<line class="st2" x1="313.5325" y1="358.061" x2="313.5325" y2="-243.443"/>
				<line class="st2" x1="323.5552" y1="358.061" x2="323.5552" y2="-243.443"/>
				<line class="st2" x1="333.5743" y1="358.061" x2="333.5743" y2="-243.443"/>
				<line class="st2" x1="343.5967" y1="358.061" x2="343.5967" y2="-243.443"/>
				<line class="st2" x1="353.6194" y1="358.061" x2="353.6194" y2="-243.443"/>
				<line class="st2" x1="363.6385" y1="358.061" x2="363.6385" y2="-243.443"/>
				<line class="st2" x1="373.6608" y1="358.061" x2="373.6608" y2="-243.443"/>
				<line class="st2" x1="383.6835" y1="358.061" x2="383.6835" y2="-243.443"/>
				<line class="st2" x1="393.7026" y1="358.061" x2="393.7026" y2="-243.443"/>
				<line class="st2" x1="403.725" y1="358.061" x2="403.725" y2="-243.443"/>
				<line class="st2" x1="413.7477" y1="358.061" x2="413.7477" y2="-243.443"/>
				<line class="st2" x1="423.7668" y1="358.061" x2="423.7668" y2="-243.443"/>
				<line class="st2" x1="433.7895" y1="358.061" x2="433.7895" y2="-243.443"/>
				<line class="st2" x1="443.8118" y1="358.061" x2="443.8118" y2="-243.443"/>
				<line class="st2" x1="453.8327" y1="358.061" x2="453.8327" y2="-243.443"/>
				<line class="st2" x1="463.855" y1="358.061" x2="463.855" y2="-243.443"/>
				<line class="st2" x1="473.8742" y1="358.061" x2="473.8742" y2="-243.443"/>
				<line class="st2" x1="483.8969" y1="358.061" x2="483.8969" y2="-243.443"/>
				<line class="st2" x1="493.9195" y1="358.061" x2="493.9195" y2="-243.443"/>
				<line class="st2" x1="503.9383" y1="358.061" x2="503.9383" y2="-243.443"/>
				<line class="st2" x1="513.961" y1="358.061" x2="513.961" y2="-243.443"/>
				<line class="st2" x1="523.9837" y1="358.061" x2="523.9837" y2="-243.443"/>
				<line class="st2" x1="534.0025" y1="358.061" x2="534.0025" y2="-243.443"/>
			</g>
			<g id="Horizontal_5_mm_1_">
				<line class="st3" x1="-268.9469" y1="358.1098" x2="533.9838" y2="358.1098"/>
				<line class="st3" x1="-268.9469" y1="308.0038" x2="533.9838" y2="308.0038"/>
				<line class="st3" x1="-268.9469" y1="257.8964" x2="533.9838" y2="257.8964"/>
				<line class="st3" x1="-268.9469" y1="207.7873" x2="533.9838" y2="207.7873"/>
				<line class="st3" x1="-268.9469" y1="157.6813" x2="533.9838" y2="157.6813"/>
				<line class="st3" x1="-268.9469" y1="107.5739" x2="533.9838" y2="107.5739"/>
				<line class="st3" x1="-268.9469" y1="57.4679" x2="533.9838" y2="57.4679"/>
				<line class="st3" x1="-268.9469" y1="7.3588" x2="533.9838" y2="7.3588"/>
				<line class="st3" x1="-268.9469" y1="-42.749" x2="533.9838" y2="-42.749"/>
				<line class="st3" x1="-268.9469" y1="-92.8546" x2="533.9838" y2="-92.8546"/>
				<line class="st3" x1="-268.9469" y1="-142.9606" x2="533.9838" y2="-142.9606"/>
			</g>
			<g id="Vertical_5_mm">
				<line class="st3" x1="-267.7092" y1="358.061" x2="-267.7092" y2="-244.4149"/>
				<line class="st3" x1="-217.6034" y1="358.061" x2="-217.6034" y2="-244.4149"/>
				<line class="st3" x1="-167.496" y1="358.061" x2="-167.496" y2="-244.4149"/>
				<line class="st3" x1="-117.39" y1="358.061" x2="-117.39" y2="-244.4149"/>
				<line class="st3" x1="-67.2808" y1="358.061" x2="-67.2808" y2="-244.4149"/>
				<line class="st3" x1="-17.1731" y1="358.061" x2="-17.1731" y2="-244.4149"/>
				<line class="st3" x1="32.9325" y1="358.061" x2="32.9325" y2="-244.4149"/>
				<line class="st3" x1="83.0385" y1="358.061" x2="83.0385" y2="-244.4149"/>
				<line class="st3" x1="133.1441" y1="358.061" x2="133.1441" y2="-244.4149"/>
				<line class="st3" x1="183.255" y1="358.061" x2="183.255" y2="-244.4149"/>
				<line class="st3" x1="233.361" y1="358.061" x2="233.361" y2="-244.4149"/>
				<line class="st3" x1="283.4666" y1="358.061" x2="283.4666" y2="-244.4149"/>
				<line class="st3" x1="333.5743" y1="358.061" x2="333.5743" y2="-244.4149"/>
				<line class="st3" x1="383.6835" y1="358.061" x2="383.6835" y2="-244.4149"/>
				<line class="st3" x1="433.7895" y1="358.061" x2="433.7895" y2="-244.4149"/>
				<line class="st3" x1="483.8969" y1="358.061" x2="483.8969" y2="-244.4149"/>
				<line class="st3" x1="534.0025" y1="358.061" x2="534.0025" y2="-244.4149"/>
			</g>
			<g id="Horizontal_10_mm">
				<line id="_x31_9_1_" class="st4" x1="-268.9469" y1="358.1098" x2="533.9838" y2="358.1098"/>
				<line id="_x32_0" class="st4" x1="-268.9469" y1="257.8964" x2="533.9838" y2="257.8964"/>
				<line id="_x32_1" class="st4" x1="-268.9469" y1="157.6813" x2="533.9838" y2="157.6813"/>
				<line id="_x32_2" class="st4" x1="-268.9469" y1="57.4679" x2="533.9838" y2="57.4679"/>
				<line id="_x32_3" class="st4" x1="-268.9469" y1="-42.749" x2="533.9838" y2="-42.749"/>
				<line id="_x32_4" class="st4" x1="-268.9469" y1="-142.9606" x2="533.9838" y2="-142.9606"/>
				<line id="_x32_5" class="st4" x1="-268.9469" y1="-243.1772" x2="533.9838" y2="-243.1772"/>
			</g>
			<g id="Vertical_10_mm">
				<line id="_x30_" class="st4" x1="-267.7092" y1="358.061" x2="-267.7092" y2="-244.4149"/>
				<line id="_x31_" class="st4" x1="-167.496" y1="358.061" x2="-167.496" y2="-244.4149"/>
				<line id="_x32_" class="st4" x1="-67.2808" y1="358.061" x2="-67.2808" y2="-244.4149"/>
				<line id="_x33_" class="st4" x1="32.9325" y1="358.061" x2="32.9325" y2="-244.4149"/>
				<line id="_x34_" class="st4" x1="133.1441" y1="358.061" x2="133.1441" y2="-244.4149"/>
				<line id="_x35_" class="st4" x1="233.361" y1="358.061" x2="233.361" y2="-244.4149"/>
				<line id="_x36_" class="st4" x1="333.5743" y1="358.061" x2="333.5743" y2="-244.4149"/>
				<line id="_x37_" class="st4" x1="433.7895" y1="358.061" x2="433.7895" y2="-244.4149"/>
				<line id="_x38_" class="st4" x1="534.0025" y1="358.061" x2="534.0025" y2="-244.4149"/>
			</g>
		</g>
	</g>
</g>
<g id="Layer_2">
	<g>
		<g>
			<line class="st5" x1="33.3592" y1="157.9958" x2="331.4053" y2="157.6505"/>
			<g>
				<polygon points="324.7878,165.8378 323.4219,164.3745 330.6378,157.6533 323.4063,150.9468 324.7689,149.4804 
					333.5743,157.6499 				"/>
			</g>
		</g>
	</g>
	<g>
		<path d="M322.2247,127.0171c-1.6699,0.208-1.9385,0.4766-2.4453,2.2949l-3.5771,12.791
			c-0.2686,0.9541-0.4473,1.6699-0.4473,2.2666c0,0.835,0.3574,0.9541,2.0566,1.1631v0.4766h-7.2744v-0.4766
			c1.6396-0.2988,2.0566-0.5674,2.5039-2.2363l3.5781-13.1494c0.209-0.7451,0.3877-1.3711,0.3877-1.8486
			c0-0.7451-0.4766-1.1924-2.1465-1.2812v-0.4775h7.3643V127.0171z"/>
	</g>
	<line class="st6" x1="33.4628" y1="157.9958" x2="233.361" y2="57.4679"/>
	<g>
		<g>
			<line class="st7" x1="34.1762" y1="157.9958" x2="114.6232" y2="117.1891"/>
			<g>
				<polygon class="st8" points="112.4134,127.4818 110.5341,126.7926 113.9395,117.538 104.4597,114.8174 105.0137,112.8938 
					116.5585,116.2096 				"/>
			</g>
		</g>
	</g>
	<g>
		<path class="st8" d="M67.5363,119.3188c0.5664-1.252,1.5801-2.833,2.8027-4.1143c0.7754-0.8057,1.6699-1.3418,2.3555-1.3418
			c0.835,0,1.4014,0.626,1.4014,1.5205s-0.5068,1.6104-1.4014,1.6104c-0.5371,0-0.7754-0.3281-1.0439-0.7754
			c-0.1787-0.2988-0.2676-0.418-0.4766-0.418c-0.5371,0-1.3721,0.9844-2.4453,2.8027c-1.2822,2.207-1.8184,3.3994-3.3096,8.4082
			h-2.2656l2.415-8.7061c0.417-1.5508,0.4766-1.8193,0.4766-2.4453s-0.5361-0.7744-1.1328-0.7744
			c-0.2383,0-0.4766,0.0293-0.9238,0.0889v-0.5068l4.6211-0.8047l0.0898,0.0596l-1.6396,6.4404L67.5363,119.3188z"/>
	</g>
	<g>
		<path class="st8" d="M72.3663,109.6235l-4.2637-8.6162h-0.0293l-4.2344,8.6162h-2.0273l5.3965-10.8828h1.7891l5.3965,10.8828
			H72.3663z"/>
	</g>
	<g>
		<path class="st9" d="M257.8771,17.3725l-1.1631,4.5322l-1.7891,6.5293c-0.9238,3.3994-1.9375,6.8584-1.9375,7.335
			c0,0.3574,0.1494,0.5967,0.5361,0.5967c0.5068,0,0.835-0.2686,2.4453-2.1172l0.3574,0.2979
			c-1.4609,2.1768-2.8916,3.3994-4.3828,3.3994c-0.7754,0-1.2227-0.5371-1.2227-1.3418c0-0.6855,0.0605-1.1631,0.3877-2.6533
			c-1.7588,2.9512-3.2793,3.9355-5.3066,3.9355c-1.9385,0-3.1904-1.2227-3.1904-3.4883c0-4.8301,4.8301-9.9883,8.7061-9.9883
			c1.252,0,1.7588,0.5664,1.9385,1.7295h0.0293l1.3418-4.8604c0.4473-1.5801,0.418-1.6992,0.418-2.1172
			c0-0.626-0.2686-0.7158-1.9082-0.7754v-0.5068c1.9082-0.1787,2.9814-0.3574,4.5615-0.6855L257.8771,17.3725z M251.3771,25.0952
			c-0.835,0-1.8779,0.5068-2.7129,1.3711c-1.9678,2.0879-3.459,5.3369-3.459,7.8125c0,1.3711,0.6855,2.1758,1.7295,2.1758
			c2.7432,0,5.8438-5.1279,5.8438-9.6602C252.7784,25.7212,252.0626,25.0952,251.3771,25.0952z"/>
		<path class="st9" d="M268.4025,18.0884c4.1445,0,6.2012,1.5205,6.2012,4.4727c0,1.6094-0.834,2.6533-1.9082,3.3691
			c-0.9238,0.626-2.0273,0.8945-3.3096,1.1631v0.0293c2.5645,0.7754,3.7568,2.3555,3.7568,4.4727
			c0,3.9951-3.3691,5.9629-8.1992,5.9629h-8.1094v-0.4766c1.6396-0.2393,1.9678-0.5371,2.4746-2.3857l3.6074-13
			c0.209-0.7451,0.3281-1.4609,0.3281-1.9082c0-0.8643-0.417-1.0732-2.2959-1.2217v-0.4775H268.4025z M263.214,31.2368
			c-0.5957,2.2666-1.043,3.7871-1.043,4.1748c0,0.835,0.7451,1.252,1.9971,1.252c3.4297,0,5.7549-1.7588,5.7549-5.0684
			c0-1.8486-0.8643-3.1611-1.998-3.5479c-0.5957-0.209-1.8779-0.3584-3.7568-0.3584L263.214,31.2368z M265.5997,26.7349
			c3.9062,0,5.9932-1.5801,5.9932-4.5322c0-2.2061-1.0732-3.2197-3.4883-3.2197c-1.1631,0-1.4609,0-1.7598,1.0732l-1.8779,6.6787
			H265.5997z"/>
	</g>
	<g>
		<g>
			<line class="st10" x1="261.3033" y1="11.5674" x2="273.1663" y2="11.5674"/>
			<g>
				<polygon class="st9" points="268.7755,16.9871 267.8715,16.0165 272.6577,11.5687 267.8715,7.1197 268.7755,6.1491 
					274.6034,11.5687 				"/>
			</g>
		</g>
	</g>
	<g>
		<path class="st11" d="M53.5558,177.8716l-1.1631,4.5322l-1.7891,6.5293c-0.9238,3.3994-1.9375,6.8584-1.9375,7.335
			c0,0.3574,0.1494,0.5967,0.5361,0.5967c0.5068,0,0.835-0.2686,2.4453-2.1172l0.3574,0.2979
			c-1.4609,2.1768-2.8916,3.3994-4.3828,3.3994c-0.7754,0-1.2227-0.5371-1.2227-1.3418c0-0.6855,0.0605-1.1631,0.3877-2.6533
			c-1.7588,2.9512-3.2793,3.9355-5.3066,3.9355c-1.9385,0-3.1904-1.2227-3.1904-3.4883c0-4.8301,4.8301-9.9883,8.7061-9.9883
			c1.252,0,1.7588,0.5664,1.9385,1.7295h0.0293l1.3418-4.8604c0.4473-1.5801,0.418-1.6992,0.418-2.1172
			c0-0.626-0.2686-0.7158-1.9082-0.7754v-0.5068c1.9082-0.1787,2.9814-0.3574,4.5615-0.6855L53.5558,177.8716z M47.0558,185.5942
			c-0.835,0-1.8779,0.5068-2.7129,1.3711c-1.9678,2.0879-3.459,5.3369-3.459,7.8125c0,1.3711,0.6855,2.1758,1.7295,2.1758
			c2.7432,0,5.8438-5.1279,5.8438-9.6602C48.4572,186.2202,47.7413,185.5942,47.0558,185.5942z"/>
		<path class="st11" d="M56.5079,195.2847c-0.1494,0.5361-0.2383,1.043-0.2383,1.2812c0,0.3584,0.208,0.5371,0.5068,0.5371
			c0.4473,0,1.1328-0.4775,1.9971-1.6992l0.7461-1.0439l0.417,0.2979c-1.7891,2.833-2.8926,3.7275-4.502,3.7275
			c-0.9541,0-1.4609-0.5664-1.4609-1.6699c0-0.2383,0.0293-0.5967,0.1191-0.8945l4.085-15.623
			c0.0889-0.2988,0.0889-0.4775,0.0889-0.5664c0-0.3584-0.5068-0.6562-1.4609-0.6562h-0.5361v-0.4766
			c1.7588-0.209,2.8623-0.418,4.6211-0.8057l0.1787,0.1494L56.5079,195.2847z"/>
	</g>
	<g>
		<g>
			<line class="st12" x1="52.5646" y1="169.6345" x2="64.4276" y2="169.6345"/>
			<g>
				<polygon class="st11" points="60.0368,175.0541 59.1328,174.0836 63.919,169.6358 59.1328,165.1867 60.0368,164.2161 
					65.8647,169.6358 				"/>
			</g>
		</g>
	</g>
	<g>
		<g>
			<line class="st13" x1="34.1762" y1="157.9958" x2="80.8695" y2="157.9408"/>
			<g>
				<polygon class="st11" points="74.2521,166.1283 72.8862,164.6651 80.1019,157.9437 72.8703,151.2373 74.2329,149.7709 
					83.0385,157.9402 				"/>
			</g>
		</g>
	</g>
	<g>
		<path class="st8" d="M151.4288,79.8345c0.5664-1.252,1.5801-2.833,2.8027-4.1143c0.7754-0.8057,1.6699-1.3418,2.3555-1.3418
			c0.835,0,1.4014,0.626,1.4014,1.5205s-0.5068,1.6104-1.4014,1.6104c-0.5371,0-0.7754-0.3281-1.0439-0.7754
			c-0.1787-0.2988-0.2676-0.418-0.4766-0.418c-0.5371,0-1.3721,0.9844-2.4453,2.8027c-1.2822,2.207-1.8184,3.3994-3.3096,8.4082
			h-2.2656l2.415-8.7061c0.417-1.5508,0.4766-1.8193,0.4766-2.4453s-0.5361-0.7744-1.1328-0.7744
			c-0.2383,0-0.4766,0.0293-0.9238,0.0889v-0.5068l4.6211-0.8047l0.0898,0.0596l-1.6396,6.4404L151.4288,79.8345z"/>
	</g>
	<g id="outof">
		<circle class="st14" cx="234.2303" cy="57.0308" r="11.3252"/>
		<circle class="st15" cx="234.2303" cy="57.0308" r="11.3252"/>
		<circle class="st16" cx="234.2303" cy="57.0308" r="1.1325"/>
	</g>
	<g>
		<path d="M257.0948,66.4321c4.3828,0,6.499,1.5508,6.499,4.4131c0,1.6094-0.8047,3.25-2.0273,4.2637
			c-1.3711,1.1328-3.458,1.6992-6.1123,1.6992c-1.252,0-1.9082-0.0596-2.6826-0.2383l-1.5811,5.7539
			c-0.208,0.8057-0.417,1.4316-0.417,1.8789c0,0.6855,0.4473,1.043,2.0576,1.2227v0.4766h-7.2754v-0.4766
			c1.6992-0.2393,1.9678-0.5078,2.5049-2.4453l3.458-12.3438c0.3877-1.4014,0.5068-2.0273,0.5068-2.4746
			c0-0.8047-0.417-1.0439-2.1162-1.252v-0.4775H257.0948z M253.0392,75.5561c0.8652,0.1484,1.0137,0.1484,1.5508,0.1484
			c1.8486,0,2.8916-0.1787,3.8164-0.7148c1.3115-0.7461,2.1172-2.0576,2.1172-3.9961c0-2.6533-1.4316-3.667-3.876-3.667
			c-0.835,0-1.3721,0.2383-1.5508,0.9248L253.0392,75.5561z"/>
	</g>
	<g>
	</g>
</g>
</svg>
