<?xml version="1.0" encoding="utf-8"?>
<!-- Generator: Adobe Illustrator 26.0.1, SVG Export Plug-In . SVG Version: 6.00 Build 0)  -->
<svg version="1.1" xmlns="http://www.w3.org/2000/svg" xmlns:xlink="http://www.w3.org/1999/xlink" x="0px" y="0px"
	 viewBox="0 0 48.54 29.853" enable-background="new 0 0 48.54 29.853" xml:space="preserve">
<g id="Graph_paper_slanted" opacity="0.2">
	<g id="Clipped_grid_00000003068028900943026870000011536296927355263674_">
		<defs>
			<polygon id="SVGID_1_" points="55.244,71.357 -106.038,71.357 -4.859,-30.418 156.422,-30.418 			"/>
		</defs>
		<clipPath id="SVGID_00000156586143735545193800000014898362063540169868_">
			<use xlink:href="#SVGID_1_"  overflow="visible"/>
		</clipPath>
		
			<g id="Grid_00000142891597197125820610000009767860333217090727_" opacity="0.25" clip-path="url(#SVGID_00000156586143735545193800000014898362063540169868_)">
			<g id="Horizontal_1_mm_00000151508609497893311650000018408800186222605470_">
				
					<line fill="none" stroke="#00ABEB" stroke-width="0.15" stroke-miterlimit="10" x1="-27.589" y1="-48.31" x2="199.252" y2="-48.31"/>
				
					<line fill="none" stroke="#00ABEB" stroke-width="0.15" stroke-miterlimit="10" x1="-25.601" y1="-50.298" x2="201.24" y2="-50.298"/>
				
					<line fill="none" stroke="#00ABEB" stroke-width="0.15" stroke-miterlimit="10" x1="-144.878" y1="68.978" x2="81.963" y2="68.978"/>
				
					<line fill="none" stroke="#00ABEB" stroke-width="0.15" stroke-miterlimit="10" x1="-142.89" y1="66.99" x2="83.951" y2="66.99"/>
				
					<line fill="none" stroke="#00ABEB" stroke-width="0.15" stroke-miterlimit="10" x1="-140.902" y1="65.003" x2="85.939" y2="65.003"/>
				
					<line fill="none" stroke="#00ABEB" stroke-width="0.15" stroke-miterlimit="10" x1="-138.914" y1="63.014" x2="87.927" y2="63.014"/>
				
					<line fill="none" stroke="#00ABEB" stroke-width="0.15" stroke-miterlimit="10" x1="-136.926" y1="61.026" x2="89.915" y2="61.026"/>
				
					<line fill="none" stroke="#00ABEB" stroke-width="0.15" stroke-miterlimit="10" x1="-134.938" y1="59.039" x2="91.903" y2="59.039"/>
				
					<line fill="none" stroke="#00ABEB" stroke-width="0.15" stroke-miterlimit="10" x1="-132.95" y1="57.051" x2="93.891" y2="57.051"/>
				
					<line fill="none" stroke="#00ABEB" stroke-width="0.15" stroke-miterlimit="10" x1="-130.963" y1="55.063" x2="95.878" y2="55.063"/>
				
					<line fill="none" stroke="#00ABEB" stroke-width="0.15" stroke-miterlimit="10" x1="-128.974" y1="53.075" x2="97.867" y2="53.075"/>
				
					<line fill="none" stroke="#00ABEB" stroke-width="0.15" stroke-miterlimit="10" x1="-126.986" y1="51.087" x2="99.855" y2="51.087"/>
				
					<line fill="none" stroke="#00ABEB" stroke-width="0.15" stroke-miterlimit="10" x1="-124.998" y1="49.099" x2="101.842" y2="49.099"/>
				
					<line fill="none" stroke="#00ABEB" stroke-width="0.15" stroke-miterlimit="10" x1="-123.01" y1="47.111" x2="103.831" y2="47.111"/>
				
					<line fill="none" stroke="#00ABEB" stroke-width="0.15" stroke-miterlimit="10" x1="-121.022" y1="45.123" x2="105.819" y2="45.123"/>
				
					<line fill="none" stroke="#00ABEB" stroke-width="0.15" stroke-miterlimit="10" x1="-119.035" y1="43.135" x2="107.806" y2="43.135"/>
				
					<line fill="none" stroke="#00ABEB" stroke-width="0.15" stroke-miterlimit="10" x1="-117.046" y1="41.147" x2="109.794" y2="41.147"/>
				
					<line fill="none" stroke="#00ABEB" stroke-width="0.15" stroke-miterlimit="10" x1="-115.058" y1="39.159" x2="111.783" y2="39.159"/>
				
					<line fill="none" stroke="#00ABEB" stroke-width="0.15" stroke-miterlimit="10" x1="-113.071" y1="37.171" x2="113.77" y2="37.171"/>
				
					<line fill="none" stroke="#00ABEB" stroke-width="0.15" stroke-miterlimit="10" x1="-111.083" y1="35.183" x2="115.758" y2="35.183"/>
				
					<line fill="none" stroke="#00ABEB" stroke-width="0.15" stroke-miterlimit="10" x1="-109.094" y1="33.195" x2="117.746" y2="33.195"/>
				
					<line fill="none" stroke="#00ABEB" stroke-width="0.15" stroke-miterlimit="10" x1="-107.107" y1="31.208" x2="119.734" y2="31.208"/>
				
					<line fill="none" stroke="#00ABEB" stroke-width="0.15" stroke-miterlimit="10" x1="-105.119" y1="29.22" x2="121.722" y2="29.22"/>
				
					<line fill="none" stroke="#00ABEB" stroke-width="0.15" stroke-miterlimit="10" x1="-103.13" y1="27.231" x2="123.71" y2="27.231"/>
				
					<line fill="none" stroke="#00ABEB" stroke-width="0.15" stroke-miterlimit="10" x1="-101.143" y1="25.244" x2="125.698" y2="25.244"/>
				
					<line fill="none" stroke="#00ABEB" stroke-width="0.15" stroke-miterlimit="10" x1="-99.155" y1="23.255" x2="127.686" y2="23.255"/>
				
					<line fill="none" stroke="#00ABEB" stroke-width="0.15" stroke-miterlimit="10" x1="-97.167" y1="21.268" x2="129.674" y2="21.268"/>
				
					<line fill="none" stroke="#00ABEB" stroke-width="0.15" stroke-miterlimit="10" x1="-95.179" y1="19.28" x2="131.662" y2="19.28"/>
				
					<line fill="none" stroke="#00ABEB" stroke-width="0.15" stroke-miterlimit="10" x1="-93.191" y1="17.292" x2="133.65" y2="17.292"/>
				
					<line fill="none" stroke="#00ABEB" stroke-width="0.15" stroke-miterlimit="10" x1="-91.203" y1="15.304" x2="135.637" y2="15.304"/>
				
					<line fill="none" stroke="#00ABEB" stroke-width="0.15" stroke-miterlimit="10" x1="-89.215" y1="13.316" x2="137.626" y2="13.316"/>
				
					<line fill="none" stroke="#00ABEB" stroke-width="0.15" stroke-miterlimit="10" x1="-87.227" y1="11.328" x2="139.614" y2="11.328"/>
				<line fill="none" stroke="#00ABEB" stroke-width="0.15" stroke-miterlimit="10" x1="-85.24" y1="9.34" x2="141.601" y2="9.34"/>
				
					<line fill="none" stroke="#00ABEB" stroke-width="0.15" stroke-miterlimit="10" x1="-83.251" y1="7.352" x2="143.589" y2="7.352"/>
				
					<line fill="none" stroke="#00ABEB" stroke-width="0.15" stroke-miterlimit="10" x1="-81.263" y1="5.364" x2="145.578" y2="5.364"/>
				
					<line fill="none" stroke="#00ABEB" stroke-width="0.15" stroke-miterlimit="10" x1="-79.276" y1="3.377" x2="147.565" y2="3.377"/>
				
					<line fill="none" stroke="#00ABEB" stroke-width="0.15" stroke-miterlimit="10" x1="-77.288" y1="1.388" x2="149.553" y2="1.388"/>
				
					<line fill="none" stroke="#00ABEB" stroke-width="0.15" stroke-miterlimit="10" x1="-75.299" y1="-0.6" x2="151.541" y2="-0.6"/>
				
					<line fill="none" stroke="#00ABEB" stroke-width="0.15" stroke-miterlimit="10" x1="-73.312" y1="-2.587" x2="153.529" y2="-2.587"/>
				
					<line fill="none" stroke="#00ABEB" stroke-width="0.15" stroke-miterlimit="10" x1="-71.324" y1="-4.575" x2="155.517" y2="-4.575"/>
				
					<line fill="none" stroke="#00ABEB" stroke-width="0.15" stroke-miterlimit="10" x1="-69.336" y1="-6.563" x2="157.505" y2="-6.563"/>
				
					<line fill="none" stroke="#00ABEB" stroke-width="0.15" stroke-miterlimit="10" x1="-67.348" y1="-8.551" x2="159.493" y2="-8.551"/>
				
					<line fill="none" stroke="#00ABEB" stroke-width="0.15" stroke-miterlimit="10" x1="-65.36" y1="-10.539" x2="161.481" y2="-10.539"/>
				
					<line fill="none" stroke="#00ABEB" stroke-width="0.15" stroke-miterlimit="10" x1="-63.372" y1="-12.527" x2="163.469" y2="-12.527"/>
				
					<line fill="none" stroke="#00ABEB" stroke-width="0.15" stroke-miterlimit="10" x1="-61.384" y1="-14.515" x2="165.457" y2="-14.515"/>
				
					<line fill="none" stroke="#00ABEB" stroke-width="0.15" stroke-miterlimit="10" x1="-59.396" y1="-16.503" x2="167.445" y2="-16.503"/>
				
					<line fill="none" stroke="#00ABEB" stroke-width="0.15" stroke-miterlimit="10" x1="-57.408" y1="-18.491" x2="169.432" y2="-18.491"/>
				
					<line fill="none" stroke="#00ABEB" stroke-width="0.15" stroke-miterlimit="10" x1="-55.42" y1="-20.479" x2="171.421" y2="-20.479"/>
				
					<line fill="none" stroke="#00ABEB" stroke-width="0.15" stroke-miterlimit="10" x1="-53.432" y1="-22.467" x2="173.409" y2="-22.467"/>
				
					<line fill="none" stroke="#00ABEB" stroke-width="0.15" stroke-miterlimit="10" x1="-51.445" y1="-24.455" x2="175.396" y2="-24.455"/>
				
					<line fill="none" stroke="#00ABEB" stroke-width="0.15" stroke-miterlimit="10" x1="-49.456" y1="-26.443" x2="177.384" y2="-26.443"/>
				
					<line fill="none" stroke="#00ABEB" stroke-width="0.15" stroke-miterlimit="10" x1="-47.468" y1="-28.431" x2="179.373" y2="-28.431"/>
				
					<line fill="none" stroke="#00ABEB" stroke-width="0.15" stroke-miterlimit="10" x1="-45.481" y1="-30.418" x2="181.36" y2="-30.418"/>
				
					<line fill="none" stroke="#00ABEB" stroke-width="0.15" stroke-miterlimit="10" x1="-43.493" y1="-32.406" x2="183.348" y2="-32.406"/>
				
					<line fill="none" stroke="#00ABEB" stroke-width="0.15" stroke-miterlimit="10" x1="-41.504" y1="-34.395" x2="185.336" y2="-34.395"/>
				
					<line fill="none" stroke="#00ABEB" stroke-width="0.15" stroke-miterlimit="10" x1="-39.517" y1="-36.382" x2="187.324" y2="-36.382"/>
				
					<line fill="none" stroke="#00ABEB" stroke-width="0.15" stroke-miterlimit="10" x1="-37.528" y1="-38.371" x2="189.312" y2="-38.371"/>
				
					<line fill="none" stroke="#00ABEB" stroke-width="0.15" stroke-miterlimit="10" x1="-35.541" y1="-40.358" x2="191.3" y2="-40.358"/>
				
					<line fill="none" stroke="#00ABEB" stroke-width="0.15" stroke-miterlimit="10" x1="-33.553" y1="-42.346" x2="193.288" y2="-42.346"/>
				
					<line fill="none" stroke="#00ABEB" stroke-width="0.15" stroke-miterlimit="10" x1="-31.565" y1="-44.334" x2="195.276" y2="-44.334"/>
				
					<line fill="none" stroke="#00ABEB" stroke-width="0.15" stroke-miterlimit="10" x1="-29.577" y1="-46.322" x2="197.264" y2="-46.322"/>
			</g>
			<g id="Vertical_1_mm_00000181073523592228201180000012361058669048395659_">
				<g>
					
						<line fill="none" stroke="#00ABEB" stroke-width="0.15" stroke-miterlimit="10" x1="-144.793" y1="68.968" x2="-25.473" y2="-50.351"/>
				</g>
				
					<line fill="none" stroke="#00ABEB" stroke-width="0.15" stroke-miterlimit="10" x1="-141.959" y1="68.968" x2="-22.639" y2="-50.351"/>
				
					<line fill="none" stroke="#00ABEB" stroke-width="0.15" stroke-miterlimit="10" x1="-139.124" y1="68.968" x2="-19.804" y2="-50.351"/>
				
					<line fill="none" stroke="#00ABEB" stroke-width="0.15" stroke-miterlimit="10" x1="-136.289" y1="68.968" x2="-16.969" y2="-50.351"/>
				
					<line fill="none" stroke="#00ABEB" stroke-width="0.15" stroke-miterlimit="10" x1="-133.455" y1="68.968" x2="-14.135" y2="-50.351"/>
				
					<line fill="none" stroke="#00ABEB" stroke-width="0.15" stroke-miterlimit="10" x1="-130.62" y1="68.968" x2="-11.3" y2="-50.351"/>
				
					<line fill="none" stroke="#00ABEB" stroke-width="0.15" stroke-miterlimit="10" x1="-127.785" y1="68.968" x2="-8.465" y2="-50.351"/>
				
					<line fill="none" stroke="#00ABEB" stroke-width="0.15" stroke-miterlimit="10" x1="-124.951" y1="68.968" x2="-5.631" y2="-50.351"/>
				
					<line fill="none" stroke="#00ABEB" stroke-width="0.15" stroke-miterlimit="10" x1="-122.116" y1="68.968" x2="-2.796" y2="-50.351"/>
				
					<line fill="none" stroke="#00ABEB" stroke-width="0.15" stroke-miterlimit="10" x1="-119.282" y1="68.968" x2="0.038" y2="-50.351"/>
				
					<line fill="none" stroke="#00ABEB" stroke-width="0.15" stroke-miterlimit="10" x1="-116.447" y1="68.968" x2="2.873" y2="-50.351"/>
				
					<line fill="none" stroke="#00ABEB" stroke-width="0.15" stroke-miterlimit="10" x1="-113.612" y1="68.968" x2="5.708" y2="-50.351"/>
				
					<line fill="none" stroke="#00ABEB" stroke-width="0.15" stroke-miterlimit="10" x1="-110.778" y1="68.968" x2="8.542" y2="-50.351"/>
				
					<line fill="none" stroke="#00ABEB" stroke-width="0.15" stroke-miterlimit="10" x1="-107.943" y1="68.968" x2="11.377" y2="-50.351"/>
				
					<line fill="none" stroke="#00ABEB" stroke-width="0.15" stroke-miterlimit="10" x1="-105.108" y1="68.968" x2="14.212" y2="-50.351"/>
				
					<line fill="none" stroke="#00ABEB" stroke-width="0.15" stroke-miterlimit="10" x1="-102.274" y1="68.968" x2="17.046" y2="-50.351"/>
				
					<line fill="none" stroke="#00ABEB" stroke-width="0.15" stroke-miterlimit="10" x1="-99.439" y1="68.968" x2="19.881" y2="-50.351"/>
				
					<line fill="none" stroke="#00ABEB" stroke-width="0.15" stroke-miterlimit="10" x1="-96.604" y1="68.968" x2="22.716" y2="-50.351"/>
				
					<line fill="none" stroke="#00ABEB" stroke-width="0.15" stroke-miterlimit="10" x1="-93.77" y1="68.968" x2="25.55" y2="-50.351"/>
				
					<line fill="none" stroke="#00ABEB" stroke-width="0.15" stroke-miterlimit="10" x1="-90.935" y1="68.968" x2="28.385" y2="-50.351"/>
				
					<line fill="none" stroke="#00ABEB" stroke-width="0.15" stroke-miterlimit="10" x1="-88.1" y1="68.968" x2="31.22" y2="-50.351"/>
				
					<line fill="none" stroke="#00ABEB" stroke-width="0.15" stroke-miterlimit="10" x1="-85.266" y1="68.968" x2="34.054" y2="-50.351"/>
				
					<line fill="none" stroke="#00ABEB" stroke-width="0.15" stroke-miterlimit="10" x1="-82.431" y1="68.968" x2="36.889" y2="-50.351"/>
				
					<line fill="none" stroke="#00ABEB" stroke-width="0.15" stroke-miterlimit="10" x1="-79.596" y1="68.968" x2="39.724" y2="-50.351"/>
				
					<line fill="none" stroke="#00ABEB" stroke-width="0.15" stroke-miterlimit="10" x1="-76.762" y1="68.968" x2="42.558" y2="-50.351"/>
				
					<line fill="none" stroke="#00ABEB" stroke-width="0.15" stroke-miterlimit="10" x1="-73.927" y1="68.968" x2="45.393" y2="-50.351"/>
				
					<line fill="none" stroke="#00ABEB" stroke-width="0.15" stroke-miterlimit="10" x1="-71.093" y1="68.968" x2="48.227" y2="-50.351"/>
				
					<line fill="none" stroke="#00ABEB" stroke-width="0.15" stroke-miterlimit="10" x1="-68.258" y1="68.968" x2="51.062" y2="-50.351"/>
				
					<line fill="none" stroke="#00ABEB" stroke-width="0.15" stroke-miterlimit="10" x1="-65.423" y1="68.968" x2="53.897" y2="-50.351"/>
				
					<line fill="none" stroke="#00ABEB" stroke-width="0.15" stroke-miterlimit="10" x1="-62.589" y1="68.968" x2="56.731" y2="-50.351"/>
				
					<line fill="none" stroke="#00ABEB" stroke-width="0.15" stroke-miterlimit="10" x1="-59.754" y1="68.968" x2="59.566" y2="-50.351"/>
				
					<line fill="none" stroke="#00ABEB" stroke-width="0.15" stroke-miterlimit="10" x1="-56.919" y1="68.968" x2="62.401" y2="-50.351"/>
				
					<line fill="none" stroke="#00ABEB" stroke-width="0.15" stroke-miterlimit="10" x1="-54.085" y1="68.968" x2="65.235" y2="-50.351"/>
				
					<line fill="none" stroke="#00ABEB" stroke-width="0.15" stroke-miterlimit="10" x1="-51.25" y1="68.968" x2="68.07" y2="-50.351"/>
				
					<line fill="none" stroke="#00ABEB" stroke-width="0.15" stroke-miterlimit="10" x1="-48.415" y1="68.968" x2="70.905" y2="-50.351"/>
				
					<line fill="none" stroke="#00ABEB" stroke-width="0.15" stroke-miterlimit="10" x1="-45.581" y1="68.968" x2="73.739" y2="-50.351"/>
				
					<line fill="none" stroke="#00ABEB" stroke-width="0.15" stroke-miterlimit="10" x1="-42.746" y1="68.968" x2="76.574" y2="-50.351"/>
				
					<line fill="none" stroke="#00ABEB" stroke-width="0.15" stroke-miterlimit="10" x1="-39.911" y1="68.968" x2="79.409" y2="-50.351"/>
				
					<line fill="none" stroke="#00ABEB" stroke-width="0.15" stroke-miterlimit="10" x1="-37.077" y1="68.968" x2="82.243" y2="-50.351"/>
				
					<line fill="none" stroke="#00ABEB" stroke-width="0.15" stroke-miterlimit="10" x1="-34.242" y1="68.968" x2="85.078" y2="-50.351"/>
				
					<line fill="none" stroke="#00ABEB" stroke-width="0.15" stroke-miterlimit="10" x1="-31.408" y1="68.968" x2="87.912" y2="-50.351"/>
				
					<line fill="none" stroke="#00ABEB" stroke-width="0.15" stroke-miterlimit="10" x1="-28.573" y1="68.968" x2="90.747" y2="-50.351"/>
				
					<line fill="none" stroke="#00ABEB" stroke-width="0.15" stroke-miterlimit="10" x1="-25.738" y1="68.968" x2="93.582" y2="-50.351"/>
				
					<line fill="none" stroke="#00ABEB" stroke-width="0.15" stroke-miterlimit="10" x1="-22.904" y1="68.968" x2="96.416" y2="-50.351"/>
				
					<line fill="none" stroke="#00ABEB" stroke-width="0.15" stroke-miterlimit="10" x1="-20.069" y1="68.968" x2="99.251" y2="-50.351"/>
				
					<line fill="none" stroke="#00ABEB" stroke-width="0.15" stroke-miterlimit="10" x1="-17.234" y1="68.968" x2="102.086" y2="-50.351"/>
				
					<line fill="none" stroke="#00ABEB" stroke-width="0.15" stroke-miterlimit="10" x1="-14.4" y1="68.968" x2="104.92" y2="-50.351"/>
				
					<line fill="none" stroke="#00ABEB" stroke-width="0.15" stroke-miterlimit="10" x1="-11.565" y1="68.968" x2="107.755" y2="-50.351"/>
				
					<line fill="none" stroke="#00ABEB" stroke-width="0.15" stroke-miterlimit="10" x1="-8.73" y1="68.968" x2="110.59" y2="-50.351"/>
				
					<line fill="none" stroke="#00ABEB" stroke-width="0.15" stroke-miterlimit="10" x1="-5.896" y1="68.968" x2="113.424" y2="-50.351"/>
				
					<line fill="none" stroke="#00ABEB" stroke-width="0.15" stroke-miterlimit="10" x1="-3.061" y1="68.968" x2="116.259" y2="-50.351"/>
				
					<line fill="none" stroke="#00ABEB" stroke-width="0.15" stroke-miterlimit="10" x1="-0.226" y1="68.968" x2="119.094" y2="-50.351"/>
				
					<line fill="none" stroke="#00ABEB" stroke-width="0.15" stroke-miterlimit="10" x1="2.608" y1="68.968" x2="121.928" y2="-50.351"/>
				
					<line fill="none" stroke="#00ABEB" stroke-width="0.15" stroke-miterlimit="10" x1="5.443" y1="68.968" x2="124.763" y2="-50.351"/>
				
					<line fill="none" stroke="#00ABEB" stroke-width="0.15" stroke-miterlimit="10" x1="8.278" y1="68.968" x2="127.598" y2="-50.351"/>
				
					<line fill="none" stroke="#00ABEB" stroke-width="0.15" stroke-miterlimit="10" x1="11.112" y1="68.968" x2="130.432" y2="-50.351"/>
				
					<line fill="none" stroke="#00ABEB" stroke-width="0.15" stroke-miterlimit="10" x1="13.947" y1="68.968" x2="133.267" y2="-50.351"/>
				
					<line fill="none" stroke="#00ABEB" stroke-width="0.15" stroke-miterlimit="10" x1="16.781" y1="68.968" x2="136.101" y2="-50.351"/>
				
					<line fill="none" stroke="#00ABEB" stroke-width="0.15" stroke-miterlimit="10" x1="19.616" y1="68.968" x2="138.936" y2="-50.351"/>
				
					<line fill="none" stroke="#00ABEB" stroke-width="0.15" stroke-miterlimit="10" x1="22.451" y1="68.968" x2="141.771" y2="-50.351"/>
				
					<line fill="none" stroke="#00ABEB" stroke-width="0.15" stroke-miterlimit="10" x1="25.285" y1="68.968" x2="144.605" y2="-50.351"/>
				
					<line fill="none" stroke="#00ABEB" stroke-width="0.15" stroke-miterlimit="10" x1="28.12" y1="68.968" x2="147.44" y2="-50.351"/>
				
					<line fill="none" stroke="#00ABEB" stroke-width="0.15" stroke-miterlimit="10" x1="30.955" y1="68.968" x2="150.275" y2="-50.351"/>
				
					<line fill="none" stroke="#00ABEB" stroke-width="0.15" stroke-miterlimit="10" x1="33.789" y1="68.968" x2="153.109" y2="-50.351"/>
				
					<line fill="none" stroke="#00ABEB" stroke-width="0.15" stroke-miterlimit="10" x1="36.624" y1="68.968" x2="155.944" y2="-50.351"/>
				
					<line fill="none" stroke="#00ABEB" stroke-width="0.15" stroke-miterlimit="10" x1="39.459" y1="68.968" x2="158.779" y2="-50.351"/>
				
					<line fill="none" stroke="#00ABEB" stroke-width="0.15" stroke-miterlimit="10" x1="42.293" y1="68.968" x2="161.613" y2="-50.351"/>
				
					<line fill="none" stroke="#00ABEB" stroke-width="0.15" stroke-miterlimit="10" x1="45.128" y1="68.968" x2="164.448" y2="-50.351"/>
				
					<line fill="none" stroke="#00ABEB" stroke-width="0.15" stroke-miterlimit="10" x1="47.963" y1="68.968" x2="167.283" y2="-50.351"/>
				
					<line fill="none" stroke="#00ABEB" stroke-width="0.15" stroke-miterlimit="10" x1="50.797" y1="68.968" x2="170.117" y2="-50.351"/>
				
					<line fill="none" stroke="#00ABEB" stroke-width="0.15" stroke-miterlimit="10" x1="53.632" y1="68.968" x2="172.952" y2="-50.351"/>
				
					<line fill="none" stroke="#00ABEB" stroke-width="0.15" stroke-miterlimit="10" x1="56.467" y1="68.968" x2="175.787" y2="-50.351"/>
				
					<line fill="none" stroke="#00ABEB" stroke-width="0.15" stroke-miterlimit="10" x1="59.301" y1="68.968" x2="178.621" y2="-50.351"/>
				
					<line fill="none" stroke="#00ABEB" stroke-width="0.15" stroke-miterlimit="10" x1="62.136" y1="68.968" x2="181.456" y2="-50.351"/>
				
					<line fill="none" stroke="#00ABEB" stroke-width="0.15" stroke-miterlimit="10" x1="64.97" y1="68.968" x2="184.29" y2="-50.351"/>
				
					<line fill="none" stroke="#00ABEB" stroke-width="0.15" stroke-miterlimit="10" x1="67.805" y1="68.968" x2="187.125" y2="-50.351"/>
				
					<line fill="none" stroke="#00ABEB" stroke-width="0.15" stroke-miterlimit="10" x1="70.64" y1="68.968" x2="189.96" y2="-50.351"/>
				
					<line fill="none" stroke="#00ABEB" stroke-width="0.15" stroke-miterlimit="10" x1="73.474" y1="68.968" x2="192.794" y2="-50.351"/>
				
					<line fill="none" stroke="#00ABEB" stroke-width="0.15" stroke-miterlimit="10" x1="76.309" y1="68.968" x2="195.629" y2="-50.351"/>
				
					<line fill="none" stroke="#00ABEB" stroke-width="0.15" stroke-miterlimit="10" x1="79.144" y1="68.968" x2="198.464" y2="-50.351"/>
				
					<line fill="none" stroke="#00ABEB" stroke-width="0.15" stroke-miterlimit="10" x1="81.978" y1="68.968" x2="201.298" y2="-50.351"/>
			</g>
			<g id="Horizontal_5_mm_00000011735556503592991880000008134099091165005186_">
				
					<line fill="none" stroke="#00ABEB" stroke-width="0.3" stroke-miterlimit="10" x1="-145.153" y1="68.978" x2="81.963" y2="68.978"/>
				
					<line fill="none" stroke="#00ABEB" stroke-width="0.3" stroke-miterlimit="10" x1="-135.213" y1="59.039" x2="91.903" y2="59.039"/>
				
					<line fill="none" stroke="#00ABEB" stroke-width="0.3" stroke-miterlimit="10" x1="-125.273" y1="49.099" x2="101.842" y2="49.099"/>
				
					<line fill="none" stroke="#00ABEB" stroke-width="0.3" stroke-miterlimit="10" x1="-115.333" y1="39.159" x2="111.783" y2="39.159"/>
				
					<line fill="none" stroke="#00ABEB" stroke-width="0.3" stroke-miterlimit="10" x1="-105.394" y1="29.22" x2="121.722" y2="29.22"/>
				
					<line fill="none" stroke="#00ABEB" stroke-width="0.3" stroke-miterlimit="10" x1="-95.454" y1="19.28" x2="131.662" y2="19.28"/>
				<line fill="none" stroke="#00ABEB" stroke-width="0.3" stroke-miterlimit="10" x1="-85.514" y1="9.34" x2="141.601" y2="9.34"/>
				<line fill="none" stroke="#00ABEB" stroke-width="0.3" stroke-miterlimit="10" x1="-75.574" y1="-0.6" x2="151.541" y2="-0.6"/>
				
					<line fill="none" stroke="#00ABEB" stroke-width="0.3" stroke-miterlimit="10" x1="-65.635" y1="-10.539" x2="161.481" y2="-10.539"/>
				
					<line fill="none" stroke="#00ABEB" stroke-width="0.3" stroke-miterlimit="10" x1="-55.695" y1="-20.479" x2="171.421" y2="-20.479"/>
				
					<line fill="none" stroke="#00ABEB" stroke-width="0.3" stroke-miterlimit="10" x1="-45.756" y1="-30.418" x2="181.36" y2="-30.418"/>
			</g>
			<g id="Vertical_5_mm_00000064346364918789686960000003233481195482251947_">
				
					<line fill="none" stroke="#00ABEB" stroke-width="0.3" stroke-miterlimit="10" x1="-144.793" y1="68.968" x2="-25.28" y2="-50.544"/>
				
					<line fill="none" stroke="#00ABEB" stroke-width="0.3" stroke-miterlimit="10" x1="-130.62" y1="68.968" x2="-11.107" y2="-50.544"/>
				
					<line fill="none" stroke="#00ABEB" stroke-width="0.3" stroke-miterlimit="10" x1="-116.447" y1="68.968" x2="3.066" y2="-50.544"/>
				
					<line fill="none" stroke="#00ABEB" stroke-width="0.3" stroke-miterlimit="10" x1="-102.274" y1="68.968" x2="17.239" y2="-50.544"/>
				
					<line fill="none" stroke="#00ABEB" stroke-width="0.3" stroke-miterlimit="10" x1="-88.1" y1="68.968" x2="31.413" y2="-50.544"/>
				
					<line fill="none" stroke="#00ABEB" stroke-width="0.3" stroke-miterlimit="10" x1="-73.927" y1="68.968" x2="45.586" y2="-50.544"/>
				
					<line fill="none" stroke="#00ABEB" stroke-width="0.3" stroke-miterlimit="10" x1="-59.754" y1="68.968" x2="59.759" y2="-50.544"/>
				
					<line fill="none" stroke="#00ABEB" stroke-width="0.3" stroke-miterlimit="10" x1="-45.581" y1="68.968" x2="73.932" y2="-50.544"/>
				
					<line fill="none" stroke="#00ABEB" stroke-width="0.3" stroke-miterlimit="10" x1="-31.408" y1="68.968" x2="88.105" y2="-50.544"/>
				
					<line fill="none" stroke="#00ABEB" stroke-width="0.3" stroke-miterlimit="10" x1="-17.234" y1="68.968" x2="102.279" y2="-50.544"/>
				
					<line fill="none" stroke="#00ABEB" stroke-width="0.3" stroke-miterlimit="10" x1="-3.061" y1="68.968" x2="116.452" y2="-50.544"/>
				
					<line fill="none" stroke="#00ABEB" stroke-width="0.3" stroke-miterlimit="10" x1="11.112" y1="68.968" x2="130.625" y2="-50.544"/>
				
					<line fill="none" stroke="#00ABEB" stroke-width="0.3" stroke-miterlimit="10" x1="25.285" y1="68.968" x2="144.798" y2="-50.544"/>
				
					<line fill="none" stroke="#00ABEB" stroke-width="0.3" stroke-miterlimit="10" x1="39.459" y1="68.968" x2="158.972" y2="-50.544"/>
				
					<line fill="none" stroke="#00ABEB" stroke-width="0.3" stroke-miterlimit="10" x1="53.632" y1="68.968" x2="173.145" y2="-50.544"/>
				
					<line fill="none" stroke="#00ABEB" stroke-width="0.3" stroke-miterlimit="10" x1="67.805" y1="68.968" x2="187.318" y2="-50.544"/>
				
					<line fill="none" stroke="#00ABEB" stroke-width="0.3" stroke-miterlimit="10" x1="81.978" y1="68.968" x2="201.491" y2="-50.544"/>
			</g>
			<g id="Horizontal_10_mm_00000163045836177147705350000008480455355013810362_">
				
					<line id="_x31_9_00000057116790517712807720000015084113881736219806_" fill="none" stroke="#00ABEB" stroke-width="0.7" stroke-miterlimit="10" x1="-145.153" y1="68.978" x2="81.963" y2="68.978"/>
				
					<line id="_x32_0_00000024685878617286333290000013167547815532084100_" fill="none" stroke="#00ABEB" stroke-width="0.7" stroke-miterlimit="10" x1="-125.273" y1="49.099" x2="101.842" y2="49.099"/>
				
					<line id="_x32_1_00000138564813020868535020000012777939180148238773_" fill="none" stroke="#00ABEB" stroke-width="0.7" stroke-miterlimit="10" x1="-105.394" y1="29.22" x2="121.722" y2="29.22"/>
				
					<line id="_x32_2_00000052807586205252870140000014502512662559454639_" fill="none" stroke="#00ABEB" stroke-width="0.7" stroke-miterlimit="10" x1="-85.514" y1="9.34" x2="141.601" y2="9.34"/>
				
					<line id="_x32_3_00000051376893246677475670000009295515732899575694_" fill="none" stroke="#00ABEB" stroke-width="0.7" stroke-miterlimit="10" x1="-65.635" y1="-10.539" x2="161.481" y2="-10.539"/>
				
					<line id="_x32_4_00000099657911357833521510000007853591198542098087_" fill="none" stroke="#00ABEB" stroke-width="0.7" stroke-miterlimit="10" x1="-45.756" y1="-30.418" x2="181.36" y2="-30.418"/>
				
					<line id="_x32_5_00000155127691660191171140000008292164438978366870_" fill="none" stroke="#00ABEB" stroke-width="0.7" stroke-miterlimit="10" x1="-25.876" y1="-50.298" x2="201.24" y2="-50.298"/>
			</g>
			<g id="Vertical_10_mm_00000134969164297783457920000010833503864539426239_">
				
					<line id="_x30__00000151539528360119995570000005083818057555393183_" fill="none" stroke="#00ABEB" stroke-width="0.7" stroke-miterlimit="10" x1="-144.793" y1="68.968" x2="-25.28" y2="-50.544"/>
				
					<line id="_x31__00000021823889366233599640000011971139016478256513_" fill="none" stroke="#00ABEB" stroke-width="0.7" stroke-miterlimit="10" x1="-116.447" y1="68.968" x2="3.066" y2="-50.544"/>
				
					<line id="_x32__00000071550223824624162640000006130814236846722696_" fill="none" stroke="#00ABEB" stroke-width="0.7" stroke-miterlimit="10" x1="-88.1" y1="68.968" x2="31.413" y2="-50.544"/>
				
					<line id="_x33__00000042015976804734918030000005045165563697445304_" fill="none" stroke="#00ABEB" stroke-width="0.7" stroke-miterlimit="10" x1="-59.754" y1="68.968" x2="59.759" y2="-50.544"/>
				
					<line id="_x34__00000081637789328126233800000002486991317463304126_" fill="none" stroke="#00ABEB" stroke-width="0.7" stroke-miterlimit="10" x1="-31.408" y1="68.968" x2="88.105" y2="-50.544"/>
				
					<line id="_x35__00000051353690731882489090000004794744233340785543_" fill="none" stroke="#00ABEB" stroke-width="0.7" stroke-miterlimit="10" x1="-3.061" y1="68.968" x2="116.452" y2="-50.544"/>
				
					<line id="_x36__00000011745311307505536660000010485558803267122343_" fill="none" stroke="#00ABEB" stroke-width="0.7" stroke-miterlimit="10" x1="25.285" y1="68.968" x2="144.798" y2="-50.544"/>
				
					<line id="_x37__00000045602144989735358580000003937589459941247142_" fill="none" stroke="#00ABEB" stroke-width="0.7" stroke-miterlimit="10" x1="53.632" y1="68.968" x2="173.145" y2="-50.544"/>
				
					<line id="_x38__00000047029857857898873560000014194396358708286345_" fill="none" stroke="#00ABEB" stroke-width="0.7" stroke-miterlimit="10" x1="81.978" y1="68.968" x2="201.491" y2="-50.544"/>
			</g>
		</g>
	</g>
</g>
<g id="base_00000000906162646766924830000016627802069044216996_">
	<path fill="none" stroke="#0000FF" stroke-width="0.1019" stroke-linejoin="round" stroke-miterlimit="10" d="M14.53,8.508
		l0.097,0.184l0.095,0.184l0.093,0.184l0.091,0.184l0.09,0.184l0.088,0.184l0.086,0.184l0.084,0.184l0.082,0.184l0.08,0.184
		l0.078,0.184l0.076,0.184l0.075,0.184l0.073,0.184l0.071,0.184l0.069,0.184l0.067,0.184l0.065,0.184l0.063,0.184l0.061,0.184
		l0.06,0.184l0.058,0.184l0.056,0.184l0.054,0.184l0.053,0.184l0.051,0.184l0.049,0.184l0.047,0.184l0.045,0.184l0.043,0.184
		l0.042,0.184l0.04,0.184l0.038,0.184l0.037,0.184l0.035,0.184l0.033,0.184l0.031,0.184l0.03,0.184l0.028,0.184l0.026,0.184
		l0.024,0.184l0.023,0.184l0.021,0.184l0.019,0.184l0.018,0.184l0.016,0.184l0.014,0.184l0.012,0.184l0.01,0.184l0.009,0.184
		l0.007,0.184l0.005,0.184l0.003,0.184l0.002,0.184v0.184l-0.002,0.184l-0.003,0.184l-0.005,0.184l-0.007,0.184l-0.009,0.184
		l-0.011,0.184l-0.012,0.184l-0.014,0.184l-0.016,0.184l-0.018,0.184l-0.019,0.184l-0.021,0.184l-0.023,0.184l-0.024,0.184
		l-0.026,0.184l-0.028,0.184l-0.03,0.184l-0.032,0.184l-0.034,0.184l-0.035,0.184l-0.037,0.184l-0.039,0.184l-0.04,0.184
		l-0.042,0.184l-0.044,0.184l-0.045,0.184l-0.047,0.184l-0.049,0.184l-0.051,0.184l-0.053,0.184l-0.055,0.184l-0.057,0.184
		l-0.059,0.184l-0.06,0.184l-0.062,0.184l-0.064,0.184l-0.066,0.184l-0.068,0.184l-0.07,0.184l-0.072,0.184l-0.074,0.184
		l-0.076,0.184l-0.077,0.184l-0.079,0.184l-0.081,0.184l-0.083,0.184l-0.085,0.184l-0.087,0.184l-0.089,0.184l-0.091,0.184
		l-0.093,0.184l-0.095,0.184l-0.097,0.184l-0.099,0.184l-0.101,0.184l-0.103,0.184l-0.105,0.184l-0.107,0.184l-0.109,0.184
		l-0.112,0.184l-0.114,0.184l-0.116,0.184l-0.118,0.184l-0.12,0.184L13.27,30.58l-0.124,0.184l-0.126,0.184l-0.128,0.184
		l-0.131,0.184l-0.133,0.184l-0.136,0.184l-0.138,0.184l-0.14,0.184l-0.143,0.184l-0.145,0.184"/>
	<path fill="none" stroke="#0000FF" stroke-width="0.065" stroke-linejoin="round" stroke-miterlimit="10" d="M4.077,15.1
		l0.117-0.006l0.117-0.003l0.117,0l0.117,0.003l0.117,0.007l0.117,0.01l0.117,0.013l0.117,0.017l0.117,0.02l0.117,0.024l0.117,0.027
		l0.117,0.031l0.117,0.034l0.117,0.038l0.117,0.042l0.117,0.045l0.117,0.05l0.117,0.054l0.117,0.059l0.117,0.064l0.117,0.069
		l0.117,0.075l0.117,0.082l0.117,0.089L7.01,16.04l0.117,0.103l0.117,0.11l0.116,0.117l0.108,0.117l0.098,0.117l0.089,0.117
		l0.081,0.117l0.074,0.117l0.068,0.117l0.062,0.117l0.056,0.117l0.051,0.117l0.047,0.117l0.043,0.117l0.038,0.117l0.033,0.117
		l0.028,0.117L8.26,18.13l0.019,0.117l0.015,0.117l0.011,0.117l0.007,0.117l0.003,0.117l-0.001,0.117l-0.004,0.117l-0.008,0.117
		l-0.012,0.117l-0.016,0.117L8.253,19.42l-0.025,0.117l-0.03,0.117l-0.035,0.117l-0.04,0.117l-0.045,0.117l-0.05,0.117l-0.055,0.117
		l-0.06,0.117l-0.066,0.117l-0.073,0.117l-0.08,0.117l-0.088,0.117l-0.097,0.117l-0.108,0.117l-0.117,0.115l-0.117,0.107l-0.117,0.1
		l-0.117,0.093l-0.117,0.085l-0.117,0.078L6.58,21.714L6.463,21.78l-0.117,0.06l-0.117,0.055l-0.117,0.05L5.993,21.99l-0.117,0.041
		l-0.117,0.037l-0.117,0.033l-0.117,0.029l-0.117,0.025l-0.117,0.022l-0.117,0.018L5.055,22.21l-0.117,0.01L4.82,22.227L4.703,22.23
		l-0.117-0.001l-0.117-0.004l-0.117-0.007l-0.117-0.011l-0.117-0.015l-0.117-0.018l-0.117-0.022l-0.117-0.026"/>
	<path fill="none" stroke="#0000FF" stroke-width="0.1" stroke-linejoin="round" stroke-miterlimit="10" d="M-54.755,99.334
		l4.18,0.507l-2.414,3.45"/>
	<path fill="none" stroke="#0000FF" stroke-width="0.1" stroke-linejoin="round" stroke-miterlimit="10" d="M-7.198,67.004
		l4.025-1.237L-3.976,69.9"/>
	<path fill="none" stroke="#0000FF" stroke-width="0.1" stroke-linejoin="round" stroke-miterlimit="10" d="M-33.165,41.995
		l2.943,3.012l-4.042,1.179"/>
	<path fill="none" stroke="#0000FF" stroke-width="0.1" stroke-linejoin="round" stroke-miterlimit="10" d="M79.578,100.697
		l-1.536-3.921l4.182,0.49"/>
	<path fill="none" stroke="#0000FF" stroke-width="0.1" stroke-linejoin="round" stroke-miterlimit="10" d="M13.796,12.527
		l0.706-4.151l3.331,2.576"/>
	<path fill="none" stroke="#0000FF" stroke-width="0.065" stroke-linejoin="round" stroke-miterlimit="10" d="M6.129,16.782
		L4,15.062l2.519-1.069"/>
	<path fill="none" stroke="#0000FF" stroke-width="0.1" stroke-linejoin="round" stroke-miterlimit="10" d="M34.713,12.527
		l-0.706-4.151l-3.331,2.576"/>
	<path fill="none" stroke="#0000FF" stroke-width="0.1" stroke-linejoin="round" stroke-miterlimit="10" d="M26.596,8.751
		l-2.275-3.543l-2.056,3.675"/>
	<path fill="none" stroke="#0000FF" stroke-width="0.065" stroke-linejoin="round" stroke-miterlimit="10" d="M42.38,16.782
		l2.129-1.72l-2.519-1.069"/>
	<path fill="none" stroke="#0000FF" stroke-width="0.1" stroke-linejoin="round" stroke-miterlimit="10" d="M114.093,91.761
		l-1.105-0.912l1.105-0.455"/>
	<path fill="none" stroke="#0000FF" stroke-width="0.1019" stroke-linejoin="round" stroke-miterlimit="10" d="M33.979,8.508
		l-0.097,0.184l-0.095,0.184L33.695,9.06l-0.091,0.184l-0.09,0.184l-0.088,0.184l-0.086,0.184l-0.084,0.184l-0.082,0.184
		l-0.08,0.184l-0.078,0.184l-0.076,0.184l-0.075,0.184l-0.073,0.184l-0.071,0.184l-0.069,0.184l-0.067,0.184l-0.065,0.184
		l-0.063,0.184l-0.061,0.184l-0.06,0.184l-0.058,0.184l-0.056,0.184l-0.054,0.184l-0.053,0.184l-0.051,0.184l-0.049,0.184
		l-0.047,0.184l-0.045,0.184l-0.043,0.184l-0.042,0.184l-0.04,0.184l-0.038,0.184l-0.037,0.184l-0.035,0.184l-0.033,0.184
		l-0.031,0.184l-0.03,0.184l-0.028,0.184l-0.026,0.184l-0.024,0.184l-0.023,0.184l-0.021,0.184l-0.019,0.184l-0.018,0.184
		l-0.016,0.184l-0.014,0.184l-0.012,0.184l-0.01,0.184l-0.009,0.184l-0.007,0.184l-0.005,0.184l-0.003,0.184l-0.002,0.184v0.184
		l0.002,0.184l0.003,0.184l0.005,0.184l0.007,0.184l0.009,0.184l0.011,0.184l0.012,0.184l0.014,0.184l0.016,0.184l0.018,0.184
		l0.019,0.184l0.021,0.184l0.023,0.184l0.024,0.184l0.026,0.184l0.028,0.184l0.03,0.184l0.032,0.184l0.034,0.184l0.035,0.184
		l0.037,0.184l0.039,0.184l0.04,0.184l0.042,0.184l0.044,0.184l0.045,0.184l0.047,0.184l0.049,0.184l0.051,0.184l0.053,0.184
		l0.055,0.184l0.057,0.184l0.059,0.184l0.06,0.184l0.062,0.184l0.064,0.184l0.066,0.184l0.068,0.184l0.07,0.184l0.072,0.184
		l0.074,0.184l0.076,0.184l0.077,0.184l0.079,0.184l0.081,0.184l0.083,0.184l0.085,0.184l0.087,0.184l0.089,0.184l0.091,0.184
		l0.093,0.184l0.095,0.184l0.097,0.184l0.099,0.184l0.101,0.184l0.103,0.184l0.105,0.184l0.107,0.184l0.109,0.184l0.112,0.184
		l0.114,0.184l0.116,0.184l0.118,0.184l0.12,0.184l0.122,0.184l0.124,0.184l0.126,0.184l0.128,0.184l0.131,0.184l0.133,0.184
		l0.136,0.184l0.138,0.184l0.14,0.184l0.143,0.184l0.145,0.184"/>
	<path fill="none" stroke="#0000FF" stroke-width="0.065" stroke-linejoin="round" stroke-miterlimit="10" d="M44.432,15.1
		l-0.117-0.006l-0.117-0.003l-0.117,0l-0.117,0.003l-0.117,0.007l-0.117,0.01l-0.117,0.013l-0.117,0.017l-0.117,0.02l-0.117,0.024
		l-0.117,0.027l-0.117,0.031l-0.117,0.034l-0.117,0.038l-0.117,0.042l-0.117,0.045l-0.117,0.05l-0.117,0.054l-0.117,0.059
		l-0.117,0.064l-0.117,0.069l-0.117,0.075l-0.117,0.082l-0.117,0.089l-0.117,0.096l-0.117,0.103l-0.117,0.11l-0.116,0.117
		l-0.108,0.117l-0.098,0.117l-0.089,0.117l-0.081,0.117l-0.074,0.117l-0.068,0.117l-0.062,0.117l-0.056,0.117l-0.051,0.117
		l-0.047,0.117l-0.043,0.117l-0.038,0.117l-0.033,0.117l-0.028,0.117L40.25,18.13l-0.019,0.117l-0.015,0.117l-0.011,0.117
		l-0.007,0.117l-0.003,0.117l0.001,0.117l0.004,0.117l0.008,0.117l0.012,0.117l0.016,0.117l0.021,0.117l0.025,0.117l0.03,0.117
		l0.035,0.117l0.04,0.117l0.045,0.117l0.05,0.117l0.055,0.117l0.06,0.117l0.066,0.117l0.073,0.117l0.08,0.117l0.088,0.117L41,20.946
		l0.108,0.117l0.117,0.115l0.117,0.107l0.117,0.1l0.117,0.093l0.117,0.085l0.117,0.078l0.117,0.072l0.117,0.066l0.117,0.06
		l0.117,0.055l0.117,0.05l0.117,0.046l0.117,0.041l0.117,0.037l0.117,0.033l0.117,0.029l0.117,0.025l0.117,0.022l0.117,0.018
		l0.117,0.014l0.117,0.01l0.117,0.007l0.117,0.003l0.117-0.001l0.117-0.004l0.117-0.007l0.117-0.011l0.117-0.015l0.117-0.018
		l0.117-0.022l0.117-0.026"/>
	
		<line fill="none" stroke="#0000FF" stroke-width="0.1" stroke-linejoin="round" stroke-miterlimit="10" x1="24.295" y1="78.272" x2="24.295" y2="5.207"/>
	<g>
		<g>
			<polygon points="28.218,22.636 27.942,22.346 29.37,20.986 27.909,19.661 28.178,19.364 29.957,20.979 			"/>
		</g>
	</g>
	<g id="loop_00000180362507552928770390000014094919536805488529_">
		
			<path fill="none" stroke="#000000" stroke-width="0.4" stroke-linecap="round" stroke-miterlimit="10" stroke-dasharray="4.2239" d="
			M43.512,18.724c0-1.117-8.981-2.3-18.328-2.303C15.461,16.418,4.89,17.572,4.89,18.723"/>
		<path fill="none" stroke="#000000" stroke-width="0.4" stroke-linecap="round" stroke-miterlimit="10" d="M4.89,18.723
			c0,1.191,10.272,2.363,20.238,2.363c9.344,0,18.385-1.246,18.385-2.362"/>
	</g>
	<g>
		<path d="M30.963,23.126c-0.353,0.042-0.41,0.096-0.517,0.462L29.69,26.16c-0.057,0.192-0.095,0.336-0.095,0.456
			c0,0.167,0.076,0.192,0.435,0.233v0.096h-1.538V26.85c0.347-0.06,0.435-0.114,0.529-0.45l0.756-2.645
			c0.044-0.15,0.082-0.276,0.082-0.372c0-0.15-0.101-0.24-0.454-0.258V23.03h1.557V23.126z"/>
	</g>
	<g>
		<path fill="#0000FF" d="M29.139,4.238c-0.391,0.576-0.58,0.713-0.863,0.713c-0.177,0-0.309-0.102-0.309-0.27
			c0-0.102,0.044-0.312,0.095-0.456l0.208-0.624h-0.006c-0.555,0.936-0.901,1.337-1.279,1.337c-0.12,0-0.195-0.06-0.227-0.168
			c-0.246,0.899-0.284,1.187-0.422,1.343h-0.447c0.088-0.12,0.176-0.294,0.277-0.672L26.99,2.32h0.473L26.99,4.106
			c-0.013,0.054-0.025,0.108-0.025,0.162c0,0.162,0.076,0.288,0.252,0.288c0.372,0,1.059-1.122,1.166-1.505L28.59,2.32h0.485
			l-0.498,1.799c-0.025,0.096-0.12,0.402-0.12,0.462c0,0.048,0.025,0.09,0.069,0.09c0.101,0,0.195-0.078,0.523-0.486L29.139,4.238z"
			/>
	</g>
	<g id="shaded" opacity="0.05">
		<path fill="#00A300" d="M43.512,18.724c0-1.117-8.981-2.3-18.328-2.303C15.461,16.418,4.89,17.572,4.89,18.723"/>
		<path fill="#00A300" d="M4.89,18.723c0,1.191,10.272,2.363,20.238,2.363c9.344,0,18.385-1.246,18.385-2.362"/>
	</g>
	<g>
		<path fill="#00A300" d="M20.919,19.904v-0.096c0.397-0.018,0.485-0.114,0.485-0.317c0-0.048-0.006-0.102-0.013-0.156l-0.126-0.786
			H19.88l-0.372,0.666c-0.088,0.156-0.139,0.3-0.139,0.396c0,0.114,0.095,0.186,0.391,0.198v0.096h-1.172v-0.096
			c0.29-0.054,0.372-0.156,0.844-0.935l1.796-2.975h0.164l0.58,3.316c0.088,0.503,0.158,0.569,0.492,0.593v0.096H20.919z
			 M20.951,16.756l-0.939,1.577h1.222L20.951,16.756z"/>
	</g>
	<g>
	</g>
</g>
</svg>
