<?xml version="1.0" encoding="utf-8"?>
<!-- Generator: Adobe Illustrator 26.0.1, SVG Export Plug-In . SVG Version: 6.00 Build 0)  -->
<svg version="1.1" xmlns="http://www.w3.org/2000/svg" xmlns:xlink="http://www.w3.org/1999/xlink" x="0px" y="0px"
	 viewBox="0 0 334.16 205.252" enable-background="new 0 0 334.16 205.252" xml:space="preserve">
<g id="grid" opacity="0.5">
	<g id="Clipped_grid">
		<defs>
			<rect id="SVGID_1_" x="-11.264" y="-7.215" width="359.84" height="216.447"/>
		</defs>
		<clipPath id="SVGID_00000050663722309308716050000004103183007429859974_">
			<use xlink:href="#SVGID_1_"  overflow="visible"/>
		</clipPath>
		
			<g id="Grid_00000060005542146034257920000005065612243763103930_" opacity="0.25" clip-path="url(#SVGID_00000050663722309308716050000004103183007429859974_)">
			<g id="Horizontal_1_mm">
				
					<line fill="none" stroke="#00ABEB" stroke-width="0.2111" stroke-miterlimit="10" x1="-65.975" y1="-201.645" x2="735.984" y2="-201.645"/>
				
					<line fill="none" stroke="#00ABEB" stroke-width="0.2111" stroke-miterlimit="10" x1="-65.975" y1="-211.668" x2="735.984" y2="-211.668"/>
				
					<line fill="none" stroke="#00ABEB" stroke-width="0.2111" stroke-miterlimit="10" x1="-65.975" y1="389.619" x2="735.984" y2="389.619"/>
				
					<line fill="none" stroke="#00ABEB" stroke-width="0.2111" stroke-miterlimit="10" x1="-65.975" y1="379.596" x2="735.984" y2="379.596"/>
				
					<line fill="none" stroke="#00ABEB" stroke-width="0.2111" stroke-miterlimit="10" x1="-65.975" y1="369.577" x2="735.984" y2="369.577"/>
				
					<line fill="none" stroke="#00ABEB" stroke-width="0.2111" stroke-miterlimit="10" x1="-65.975" y1="359.555" x2="735.984" y2="359.555"/>
				
					<line fill="none" stroke="#00ABEB" stroke-width="0.2111" stroke-miterlimit="10" x1="-65.975" y1="349.532" x2="735.984" y2="349.532"/>
				
					<line fill="none" stroke="#00ABEB" stroke-width="0.2111" stroke-miterlimit="10" x1="-65.975" y1="339.513" x2="735.984" y2="339.513"/>
				
					<line fill="none" stroke="#00ABEB" stroke-width="0.2111" stroke-miterlimit="10" x1="-65.975" y1="329.491" x2="735.984" y2="329.491"/>
				
					<line fill="none" stroke="#00ABEB" stroke-width="0.2111" stroke-miterlimit="10" x1="-65.975" y1="319.472" x2="735.984" y2="319.472"/>
				
					<line fill="none" stroke="#00ABEB" stroke-width="0.2111" stroke-miterlimit="10" x1="-65.975" y1="309.447" x2="735.984" y2="309.447"/>
				
					<line fill="none" stroke="#00ABEB" stroke-width="0.2111" stroke-miterlimit="10" x1="-65.975" y1="299.425" x2="735.984" y2="299.425"/>
				
					<line fill="none" stroke="#00ABEB" stroke-width="0.2111" stroke-miterlimit="10" x1="-65.975" y1="289.406" x2="735.984" y2="289.406"/>
				
					<line fill="none" stroke="#00ABEB" stroke-width="0.2111" stroke-miterlimit="10" x1="-65.975" y1="279.383" x2="735.984" y2="279.383"/>
				
					<line fill="none" stroke="#00ABEB" stroke-width="0.2111" stroke-miterlimit="10" x1="-65.975" y1="269.361" x2="735.984" y2="269.361"/>
				
					<line fill="none" stroke="#00ABEB" stroke-width="0.2111" stroke-miterlimit="10" x1="-65.975" y1="259.341" x2="735.984" y2="259.341"/>
				
					<line fill="none" stroke="#00ABEB" stroke-width="0.2111" stroke-miterlimit="10" x1="-65.975" y1="249.319" x2="735.984" y2="249.319"/>
				
					<line fill="none" stroke="#00ABEB" stroke-width="0.2111" stroke-miterlimit="10" x1="-65.975" y1="239.296" x2="735.984" y2="239.296"/>
				
					<line fill="none" stroke="#00ABEB" stroke-width="0.2111" stroke-miterlimit="10" x1="-65.975" y1="229.277" x2="735.984" y2="229.277"/>
				
					<line fill="none" stroke="#00ABEB" stroke-width="0.2111" stroke-miterlimit="10" x1="-65.975" y1="219.255" x2="735.984" y2="219.255"/>
				
					<line fill="none" stroke="#00ABEB" stroke-width="0.2111" stroke-miterlimit="10" x1="-65.975" y1="209.232" x2="735.984" y2="209.232"/>
				
					<line fill="none" stroke="#00ABEB" stroke-width="0.2111" stroke-miterlimit="10" x1="-65.975" y1="199.213" x2="735.984" y2="199.213"/>
				
					<line fill="none" stroke="#00ABEB" stroke-width="0.2111" stroke-miterlimit="10" x1="-65.975" y1="189.19" x2="735.984" y2="189.19"/>
				
					<line fill="none" stroke="#00ABEB" stroke-width="0.2111" stroke-miterlimit="10" x1="-65.975" y1="179.166" x2="735.984" y2="179.166"/>
				
					<line fill="none" stroke="#00ABEB" stroke-width="0.2111" stroke-miterlimit="10" x1="-65.975" y1="169.147" x2="735.984" y2="169.147"/>
				
					<line fill="none" stroke="#00ABEB" stroke-width="0.2111" stroke-miterlimit="10" x1="-65.975" y1="159.125" x2="735.984" y2="159.125"/>
				
					<line fill="none" stroke="#00ABEB" stroke-width="0.2111" stroke-miterlimit="10" x1="-65.975" y1="149.105" x2="735.984" y2="149.105"/>
				
					<line fill="none" stroke="#00ABEB" stroke-width="0.2111" stroke-miterlimit="10" x1="-65.975" y1="139.083" x2="735.984" y2="139.083"/>
				
					<line fill="none" stroke="#00ABEB" stroke-width="0.2111" stroke-miterlimit="10" x1="-65.975" y1="129.06" x2="735.984" y2="129.06"/>
				
					<line fill="none" stroke="#00ABEB" stroke-width="0.2111" stroke-miterlimit="10" x1="-65.975" y1="119.041" x2="735.984" y2="119.041"/>
				
					<line fill="none" stroke="#00ABEB" stroke-width="0.2111" stroke-miterlimit="10" x1="-65.975" y1="109.019" x2="735.984" y2="109.019"/>
				
					<line fill="none" stroke="#00ABEB" stroke-width="0.2111" stroke-miterlimit="10" x1="-65.975" y1="98.996" x2="735.984" y2="98.996"/>
				
					<line fill="none" stroke="#00ABEB" stroke-width="0.2111" stroke-miterlimit="10" x1="-65.975" y1="88.977" x2="735.984" y2="88.977"/>
				
					<line fill="none" stroke="#00ABEB" stroke-width="0.2111" stroke-miterlimit="10" x1="-65.975" y1="78.955" x2="735.984" y2="78.955"/>
				
					<line fill="none" stroke="#00ABEB" stroke-width="0.2111" stroke-miterlimit="10" x1="-65.975" y1="68.932" x2="735.984" y2="68.932"/>
				
					<line fill="none" stroke="#00ABEB" stroke-width="0.2111" stroke-miterlimit="10" x1="-65.975" y1="58.913" x2="735.984" y2="58.913"/>
				
					<line fill="none" stroke="#00ABEB" stroke-width="0.2111" stroke-miterlimit="10" x1="-65.975" y1="48.89" x2="735.984" y2="48.89"/>
				
					<line fill="none" stroke="#00ABEB" stroke-width="0.2111" stroke-miterlimit="10" x1="-65.975" y1="38.868" x2="735.984" y2="38.868"/>
				
					<line fill="none" stroke="#00ABEB" stroke-width="0.2111" stroke-miterlimit="10" x1="-65.975" y1="28.849" x2="735.984" y2="28.849"/>
				
					<line fill="none" stroke="#00ABEB" stroke-width="0.2111" stroke-miterlimit="10" x1="-65.975" y1="18.826" x2="735.984" y2="18.826"/>
				
					<line fill="none" stroke="#00ABEB" stroke-width="0.2111" stroke-miterlimit="10" x1="-65.975" y1="8.804" x2="735.984" y2="8.804"/>
				
					<line fill="none" stroke="#00ABEB" stroke-width="0.2111" stroke-miterlimit="10" x1="-65.975" y1="-1.215" x2="735.984" y2="-1.215"/>
				
					<line fill="none" stroke="#00ABEB" stroke-width="0.2111" stroke-miterlimit="10" x1="-65.975" y1="-11.24" x2="735.984" y2="-11.24"/>
				
					<line fill="none" stroke="#00ABEB" stroke-width="0.2111" stroke-miterlimit="10" x1="-65.975" y1="-21.259" x2="735.984" y2="-21.259"/>
				
					<line fill="none" stroke="#00ABEB" stroke-width="0.2111" stroke-miterlimit="10" x1="-65.975" y1="-31.281" x2="735.984" y2="-31.281"/>
				
					<line fill="none" stroke="#00ABEB" stroke-width="0.2111" stroke-miterlimit="10" x1="-65.975" y1="-41.304" x2="735.984" y2="-41.304"/>
				
					<line fill="none" stroke="#00ABEB" stroke-width="0.2111" stroke-miterlimit="10" x1="-65.975" y1="-51.323" x2="735.984" y2="-51.323"/>
				
					<line fill="none" stroke="#00ABEB" stroke-width="0.2111" stroke-miterlimit="10" x1="-65.975" y1="-61.345" x2="735.984" y2="-61.345"/>
				
					<line fill="none" stroke="#00ABEB" stroke-width="0.2111" stroke-miterlimit="10" x1="-65.975" y1="-71.368" x2="735.984" y2="-71.368"/>
				
					<line fill="none" stroke="#00ABEB" stroke-width="0.2111" stroke-miterlimit="10" x1="-65.975" y1="-81.387" x2="735.984" y2="-81.387"/>
				
					<line fill="none" stroke="#00ABEB" stroke-width="0.2111" stroke-miterlimit="10" x1="-65.975" y1="-91.41" x2="735.984" y2="-91.41"/>
				
					<line fill="none" stroke="#00ABEB" stroke-width="0.2111" stroke-miterlimit="10" x1="-65.975" y1="-101.432" x2="735.984" y2="-101.432"/>
				
					<line fill="none" stroke="#00ABEB" stroke-width="0.2111" stroke-miterlimit="10" x1="-65.975" y1="-111.451" x2="735.984" y2="-111.451"/>
				
					<line fill="none" stroke="#00ABEB" stroke-width="0.2111" stroke-miterlimit="10" x1="-65.975" y1="-121.474" x2="735.984" y2="-121.474"/>
				
					<line fill="none" stroke="#00ABEB" stroke-width="0.2111" stroke-miterlimit="10" x1="-65.975" y1="-131.496" x2="735.984" y2="-131.496"/>
				
					<line fill="none" stroke="#00ABEB" stroke-width="0.2111" stroke-miterlimit="10" x1="-65.975" y1="-141.516" x2="735.984" y2="-141.516"/>
				
					<line fill="none" stroke="#00ABEB" stroke-width="0.2111" stroke-miterlimit="10" x1="-65.975" y1="-151.54" x2="735.984" y2="-151.54"/>
				
					<line fill="none" stroke="#00ABEB" stroke-width="0.2111" stroke-miterlimit="10" x1="-65.975" y1="-161.559" x2="735.984" y2="-161.559"/>
				
					<line fill="none" stroke="#00ABEB" stroke-width="0.2111" stroke-miterlimit="10" x1="-65.975" y1="-171.581" x2="735.984" y2="-171.581"/>
				
					<line fill="none" stroke="#00ABEB" stroke-width="0.2111" stroke-miterlimit="10" x1="-65.975" y1="-181.604" x2="735.984" y2="-181.604"/>
				
					<line fill="none" stroke="#00ABEB" stroke-width="0.2111" stroke-miterlimit="10" x1="-65.975" y1="-191.623" x2="735.984" y2="-191.623"/>
			</g>
			<g id="Vertical_1_mm">
				<g>
					
						<line fill="none" stroke="#00ABEB" stroke-width="0.2111" stroke-miterlimit="10" x1="-65.709" y1="389.57" x2="-65.709" y2="-211.934"/>
				</g>
				
					<line fill="none" stroke="#00ABEB" stroke-width="0.2111" stroke-miterlimit="10" x1="-55.69" y1="389.57" x2="-55.69" y2="-211.934"/>
				
					<line fill="none" stroke="#00ABEB" stroke-width="0.2111" stroke-miterlimit="10" x1="-45.668" y1="389.57" x2="-45.668" y2="-211.934"/>
				
					<line fill="none" stroke="#00ABEB" stroke-width="0.2111" stroke-miterlimit="10" x1="-35.645" y1="389.57" x2="-35.645" y2="-211.934"/>
				
					<line fill="none" stroke="#00ABEB" stroke-width="0.2111" stroke-miterlimit="10" x1="-25.626" y1="389.57" x2="-25.626" y2="-211.934"/>
				
					<line fill="none" stroke="#00ABEB" stroke-width="0.2111" stroke-miterlimit="10" x1="-15.603" y1="389.57" x2="-15.603" y2="-211.934"/>
				
					<line fill="none" stroke="#00ABEB" stroke-width="0.2111" stroke-miterlimit="10" x1="-5.581" y1="389.57" x2="-5.581" y2="-211.934"/>
				
					<line fill="none" stroke="#00ABEB" stroke-width="0.2111" stroke-miterlimit="10" x1="4.438" y1="389.57" x2="4.438" y2="-211.934"/>
				
					<line fill="none" stroke="#00ABEB" stroke-width="0.2111" stroke-miterlimit="10" x1="14.463" y1="389.57" x2="14.463" y2="-211.934"/>
				
					<line fill="none" stroke="#00ABEB" stroke-width="0.2111" stroke-miterlimit="10" x1="24.482" y1="389.57" x2="24.482" y2="-211.934"/>
				
					<line fill="none" stroke="#00ABEB" stroke-width="0.2111" stroke-miterlimit="10" x1="34.504" y1="389.57" x2="34.504" y2="-211.934"/>
				
					<line fill="none" stroke="#00ABEB" stroke-width="0.2111" stroke-miterlimit="10" x1="44.527" y1="389.57" x2="44.527" y2="-211.934"/>
				
					<line fill="none" stroke="#00ABEB" stroke-width="0.2111" stroke-miterlimit="10" x1="54.546" y1="389.57" x2="54.546" y2="-211.934"/>
				
					<line fill="none" stroke="#00ABEB" stroke-width="0.2111" stroke-miterlimit="10" x1="64.568" y1="389.57" x2="64.568" y2="-211.934"/>
				
					<line fill="none" stroke="#00ABEB" stroke-width="0.2111" stroke-miterlimit="10" x1="74.591" y1="389.57" x2="74.591" y2="-211.934"/>
				
					<line fill="none" stroke="#00ABEB" stroke-width="0.2111" stroke-miterlimit="10" x1="84.61" y1="389.57" x2="84.61" y2="-211.934"/>
				
					<line fill="none" stroke="#00ABEB" stroke-width="0.2111" stroke-miterlimit="10" x1="94.633" y1="389.57" x2="94.633" y2="-211.934"/>
				
					<line fill="none" stroke="#00ABEB" stroke-width="0.2111" stroke-miterlimit="10" x1="104.655" y1="389.57" x2="104.655" y2="-211.934"/>
				
					<line fill="none" stroke="#00ABEB" stroke-width="0.2111" stroke-miterlimit="10" x1="114.674" y1="389.57" x2="114.674" y2="-211.934"/>
				
					<line fill="none" stroke="#00ABEB" stroke-width="0.2111" stroke-miterlimit="10" x1="124.697" y1="389.57" x2="124.697" y2="-211.934"/>
				
					<line fill="none" stroke="#00ABEB" stroke-width="0.2111" stroke-miterlimit="10" x1="134.719" y1="389.57" x2="134.719" y2="-211.934"/>
				
					<line fill="none" stroke="#00ABEB" stroke-width="0.2111" stroke-miterlimit="10" x1="144.738" y1="389.57" x2="144.738" y2="-211.934"/>
				
					<line fill="none" stroke="#00ABEB" stroke-width="0.2111" stroke-miterlimit="10" x1="154.761" y1="389.57" x2="154.761" y2="-211.934"/>
				
					<line fill="none" stroke="#00ABEB" stroke-width="0.2111" stroke-miterlimit="10" x1="164.783" y1="389.57" x2="164.783" y2="-211.934"/>
				
					<line fill="none" stroke="#00ABEB" stroke-width="0.2111" stroke-miterlimit="10" x1="174.804" y1="389.57" x2="174.804" y2="-211.934"/>
				
					<line fill="none" stroke="#00ABEB" stroke-width="0.2111" stroke-miterlimit="10" x1="184.827" y1="389.57" x2="184.827" y2="-211.934"/>
				
					<line fill="none" stroke="#00ABEB" stroke-width="0.2111" stroke-miterlimit="10" x1="194.846" y1="389.57" x2="194.846" y2="-211.934"/>
				
					<line fill="none" stroke="#00ABEB" stroke-width="0.2111" stroke-miterlimit="10" x1="204.868" y1="389.57" x2="204.868" y2="-211.934"/>
				
					<line fill="none" stroke="#00ABEB" stroke-width="0.2111" stroke-miterlimit="10" x1="214.891" y1="389.57" x2="214.891" y2="-211.934"/>
				
					<line fill="none" stroke="#00ABEB" stroke-width="0.2111" stroke-miterlimit="10" x1="224.91" y1="389.57" x2="224.91" y2="-211.934"/>
				
					<line fill="none" stroke="#00ABEB" stroke-width="0.2111" stroke-miterlimit="10" x1="234.933" y1="389.57" x2="234.933" y2="-211.934"/>
				
					<line fill="none" stroke="#00ABEB" stroke-width="0.2111" stroke-miterlimit="10" x1="244.955" y1="389.57" x2="244.955" y2="-211.934"/>
				
					<line fill="none" stroke="#00ABEB" stroke-width="0.2111" stroke-miterlimit="10" x1="254.974" y1="389.57" x2="254.974" y2="-211.934"/>
				
					<line fill="none" stroke="#00ABEB" stroke-width="0.2111" stroke-miterlimit="10" x1="264.997" y1="389.57" x2="264.997" y2="-211.934"/>
				
					<line fill="none" stroke="#00ABEB" stroke-width="0.2111" stroke-miterlimit="10" x1="275.019" y1="389.57" x2="275.019" y2="-211.934"/>
				
					<line fill="none" stroke="#00ABEB" stroke-width="0.2111" stroke-miterlimit="10" x1="285.038" y1="389.57" x2="285.038" y2="-211.934"/>
				
					<line fill="none" stroke="#00ABEB" stroke-width="0.2111" stroke-miterlimit="10" x1="295.061" y1="389.57" x2="295.061" y2="-211.934"/>
				
					<line fill="none" stroke="#00ABEB" stroke-width="0.2111" stroke-miterlimit="10" x1="305.083" y1="389.57" x2="305.083" y2="-211.934"/>
				
					<line fill="none" stroke="#00ABEB" stroke-width="0.2111" stroke-miterlimit="10" x1="315.103" y1="389.57" x2="315.103" y2="-211.934"/>
				
					<line fill="none" stroke="#00ABEB" stroke-width="0.2111" stroke-miterlimit="10" x1="325.125" y1="389.57" x2="325.125" y2="-211.934"/>
				
					<line fill="none" stroke="#00ABEB" stroke-width="0.2111" stroke-miterlimit="10" x1="335.144" y1="389.57" x2="335.144" y2="-211.934"/>
				
					<line fill="none" stroke="#00ABEB" stroke-width="0.2111" stroke-miterlimit="10" x1="345.169" y1="389.57" x2="345.169" y2="-211.934"/>
				
					<line fill="none" stroke="#00ABEB" stroke-width="0.2111" stroke-miterlimit="10" x1="355.191" y1="389.57" x2="355.191" y2="-211.934"/>
				
					<line fill="none" stroke="#00ABEB" stroke-width="0.2111" stroke-miterlimit="10" x1="365.21" y1="389.57" x2="365.21" y2="-211.934"/>
				
					<line fill="none" stroke="#00ABEB" stroke-width="0.2111" stroke-miterlimit="10" x1="375.233" y1="389.57" x2="375.233" y2="-211.934"/>
				
					<line fill="none" stroke="#00ABEB" stroke-width="0.2111" stroke-miterlimit="10" x1="385.255" y1="389.57" x2="385.255" y2="-211.934"/>
				
					<line fill="none" stroke="#00ABEB" stroke-width="0.2111" stroke-miterlimit="10" x1="395.274" y1="389.57" x2="395.274" y2="-211.934"/>
				
					<line fill="none" stroke="#00ABEB" stroke-width="0.2111" stroke-miterlimit="10" x1="405.297" y1="389.57" x2="405.297" y2="-211.934"/>
				
					<line fill="none" stroke="#00ABEB" stroke-width="0.2111" stroke-miterlimit="10" x1="415.319" y1="389.57" x2="415.319" y2="-211.934"/>
				
					<line fill="none" stroke="#00ABEB" stroke-width="0.2111" stroke-miterlimit="10" x1="425.338" y1="389.57" x2="425.338" y2="-211.934"/>
				
					<line fill="none" stroke="#00ABEB" stroke-width="0.2111" stroke-miterlimit="10" x1="435.361" y1="389.57" x2="435.361" y2="-211.934"/>
				
					<line fill="none" stroke="#00ABEB" stroke-width="0.2111" stroke-miterlimit="10" x1="445.383" y1="389.57" x2="445.383" y2="-211.934"/>
				
					<line fill="none" stroke="#00ABEB" stroke-width="0.2111" stroke-miterlimit="10" x1="455.402" y1="389.57" x2="455.402" y2="-211.934"/>
				
					<line fill="none" stroke="#00ABEB" stroke-width="0.2111" stroke-miterlimit="10" x1="465.425" y1="389.57" x2="465.425" y2="-211.934"/>
				
					<line fill="none" stroke="#00ABEB" stroke-width="0.2111" stroke-miterlimit="10" x1="475.447" y1="389.57" x2="475.447" y2="-211.934"/>
				
					<line fill="none" stroke="#00ABEB" stroke-width="0.2111" stroke-miterlimit="10" x1="485.467" y1="389.57" x2="485.467" y2="-211.934"/>
				
					<line fill="none" stroke="#00ABEB" stroke-width="0.2111" stroke-miterlimit="10" x1="495.491" y1="389.57" x2="495.491" y2="-211.934"/>
				
					<line fill="none" stroke="#00ABEB" stroke-width="0.2111" stroke-miterlimit="10" x1="505.51" y1="389.57" x2="505.51" y2="-211.934"/>
				
					<line fill="none" stroke="#00ABEB" stroke-width="0.2111" stroke-miterlimit="10" x1="515.533" y1="389.57" x2="515.533" y2="-211.934"/>
				
					<line fill="none" stroke="#00ABEB" stroke-width="0.2111" stroke-miterlimit="10" x1="525.555" y1="389.57" x2="525.555" y2="-211.934"/>
				
					<line fill="none" stroke="#00ABEB" stroke-width="0.2111" stroke-miterlimit="10" x1="535.574" y1="389.57" x2="535.574" y2="-211.934"/>
				
					<line fill="none" stroke="#00ABEB" stroke-width="0.2111" stroke-miterlimit="10" x1="545.597" y1="389.57" x2="545.597" y2="-211.934"/>
				
					<line fill="none" stroke="#00ABEB" stroke-width="0.2111" stroke-miterlimit="10" x1="555.619" y1="389.57" x2="555.619" y2="-211.934"/>
				
					<line fill="none" stroke="#00ABEB" stroke-width="0.2111" stroke-miterlimit="10" x1="565.638" y1="389.57" x2="565.638" y2="-211.934"/>
				
					<line fill="none" stroke="#00ABEB" stroke-width="0.2111" stroke-miterlimit="10" x1="575.661" y1="389.57" x2="575.661" y2="-211.934"/>
				
					<line fill="none" stroke="#00ABEB" stroke-width="0.2111" stroke-miterlimit="10" x1="585.683" y1="389.57" x2="585.683" y2="-211.934"/>
				
					<line fill="none" stroke="#00ABEB" stroke-width="0.2111" stroke-miterlimit="10" x1="595.703" y1="389.57" x2="595.703" y2="-211.934"/>
				
					<line fill="none" stroke="#00ABEB" stroke-width="0.2111" stroke-miterlimit="10" x1="605.725" y1="389.57" x2="605.725" y2="-211.934"/>
				
					<line fill="none" stroke="#00ABEB" stroke-width="0.2111" stroke-miterlimit="10" x1="615.748" y1="389.57" x2="615.748" y2="-211.934"/>
				
					<line fill="none" stroke="#00ABEB" stroke-width="0.2111" stroke-miterlimit="10" x1="625.767" y1="389.57" x2="625.767" y2="-211.934"/>
				
					<line fill="none" stroke="#00ABEB" stroke-width="0.2111" stroke-miterlimit="10" x1="635.789" y1="389.57" x2="635.789" y2="-211.934"/>
				
					<line fill="none" stroke="#00ABEB" stroke-width="0.2111" stroke-miterlimit="10" x1="645.812" y1="389.57" x2="645.812" y2="-211.934"/>
				
					<line fill="none" stroke="#00ABEB" stroke-width="0.2111" stroke-miterlimit="10" x1="655.833" y1="389.57" x2="655.833" y2="-211.934"/>
				
					<line fill="none" stroke="#00ABEB" stroke-width="0.2111" stroke-miterlimit="10" x1="665.855" y1="389.57" x2="665.855" y2="-211.934"/>
				
					<line fill="none" stroke="#00ABEB" stroke-width="0.2111" stroke-miterlimit="10" x1="675.874" y1="389.57" x2="675.874" y2="-211.934"/>
				
					<line fill="none" stroke="#00ABEB" stroke-width="0.2111" stroke-miterlimit="10" x1="685.897" y1="389.57" x2="685.897" y2="-211.934"/>
				
					<line fill="none" stroke="#00ABEB" stroke-width="0.2111" stroke-miterlimit="10" x1="695.92" y1="389.57" x2="695.92" y2="-211.934"/>
				
					<line fill="none" stroke="#00ABEB" stroke-width="0.2111" stroke-miterlimit="10" x1="705.938" y1="389.57" x2="705.938" y2="-211.934"/>
				
					<line fill="none" stroke="#00ABEB" stroke-width="0.2111" stroke-miterlimit="10" x1="715.961" y1="389.57" x2="715.961" y2="-211.934"/>
				
					<line fill="none" stroke="#00ABEB" stroke-width="0.2111" stroke-miterlimit="10" x1="725.984" y1="389.57" x2="725.984" y2="-211.934"/>
				
					<line fill="none" stroke="#00ABEB" stroke-width="0.2111" stroke-miterlimit="10" x1="736.003" y1="389.57" x2="736.003" y2="-211.934"/>
			</g>
			<g id="Horizontal_5_mm_1_">
				
					<line fill="none" stroke="#00ABEB" stroke-width="0.4221" stroke-miterlimit="10" x1="-66.947" y1="389.619" x2="735.984" y2="389.619"/>
				
					<line fill="none" stroke="#00ABEB" stroke-width="0.4221" stroke-miterlimit="10" x1="-66.947" y1="339.513" x2="735.984" y2="339.513"/>
				
					<line fill="none" stroke="#00ABEB" stroke-width="0.4221" stroke-miterlimit="10" x1="-66.947" y1="289.406" x2="735.984" y2="289.406"/>
				
					<line fill="none" stroke="#00ABEB" stroke-width="0.4221" stroke-miterlimit="10" x1="-66.947" y1="239.296" x2="735.984" y2="239.296"/>
				
					<line fill="none" stroke="#00ABEB" stroke-width="0.4221" stroke-miterlimit="10" x1="-66.947" y1="189.19" x2="735.984" y2="189.19"/>
				
					<line fill="none" stroke="#00ABEB" stroke-width="0.4221" stroke-miterlimit="10" x1="-66.947" y1="139.083" x2="735.984" y2="139.083"/>
				
					<line fill="none" stroke="#00ABEB" stroke-width="0.4221" stroke-miterlimit="10" x1="-66.947" y1="88.977" x2="735.984" y2="88.977"/>
				
					<line fill="none" stroke="#00ABEB" stroke-width="0.4221" stroke-miterlimit="10" x1="-66.947" y1="38.868" x2="735.984" y2="38.868"/>
				
					<line fill="none" stroke="#00ABEB" stroke-width="0.4221" stroke-miterlimit="10" x1="-66.947" y1="-11.24" x2="735.984" y2="-11.24"/>
				
					<line fill="none" stroke="#00ABEB" stroke-width="0.4221" stroke-miterlimit="10" x1="-66.947" y1="-61.345" x2="735.984" y2="-61.345"/>
				
					<line fill="none" stroke="#00ABEB" stroke-width="0.4221" stroke-miterlimit="10" x1="-66.947" y1="-111.451" x2="735.984" y2="-111.451"/>
			</g>
			<g id="Vertical_5_mm">
				
					<line fill="none" stroke="#00ABEB" stroke-width="0.4221" stroke-miterlimit="10" x1="-65.709" y1="389.57" x2="-65.709" y2="-212.906"/>
				
					<line fill="none" stroke="#00ABEB" stroke-width="0.4221" stroke-miterlimit="10" x1="-15.603" y1="389.57" x2="-15.603" y2="-212.906"/>
				
					<line fill="none" stroke="#00ABEB" stroke-width="0.4221" stroke-miterlimit="10" x1="34.504" y1="389.57" x2="34.504" y2="-212.906"/>
				
					<line fill="none" stroke="#00ABEB" stroke-width="0.4221" stroke-miterlimit="10" x1="84.61" y1="389.57" x2="84.61" y2="-212.906"/>
				
					<line fill="none" stroke="#00ABEB" stroke-width="0.4221" stroke-miterlimit="10" x1="134.719" y1="389.57" x2="134.719" y2="-212.906"/>
				
					<line fill="none" stroke="#00ABEB" stroke-width="0.4221" stroke-miterlimit="10" x1="184.827" y1="389.57" x2="184.827" y2="-212.906"/>
				
					<line fill="none" stroke="#00ABEB" stroke-width="0.4221" stroke-miterlimit="10" x1="234.933" y1="389.57" x2="234.933" y2="-212.906"/>
				
					<line fill="none" stroke="#00ABEB" stroke-width="0.4221" stroke-miterlimit="10" x1="285.038" y1="389.57" x2="285.038" y2="-212.906"/>
				
					<line fill="none" stroke="#00ABEB" stroke-width="0.4221" stroke-miterlimit="10" x1="335.144" y1="389.57" x2="335.144" y2="-212.906"/>
				
					<line fill="none" stroke="#00ABEB" stroke-width="0.4221" stroke-miterlimit="10" x1="385.255" y1="389.57" x2="385.255" y2="-212.906"/>
				
					<line fill="none" stroke="#00ABEB" stroke-width="0.4221" stroke-miterlimit="10" x1="435.361" y1="389.57" x2="435.361" y2="-212.906"/>
				
					<line fill="none" stroke="#00ABEB" stroke-width="0.4221" stroke-miterlimit="10" x1="485.467" y1="389.57" x2="485.467" y2="-212.906"/>
				
					<line fill="none" stroke="#00ABEB" stroke-width="0.4221" stroke-miterlimit="10" x1="535.574" y1="389.57" x2="535.574" y2="-212.906"/>
				
					<line fill="none" stroke="#00ABEB" stroke-width="0.4221" stroke-miterlimit="10" x1="585.683" y1="389.57" x2="585.683" y2="-212.906"/>
				
					<line fill="none" stroke="#00ABEB" stroke-width="0.4221" stroke-miterlimit="10" x1="635.789" y1="389.57" x2="635.789" y2="-212.906"/>
				
					<line fill="none" stroke="#00ABEB" stroke-width="0.4221" stroke-miterlimit="10" x1="685.897" y1="389.57" x2="685.897" y2="-212.906"/>
				
					<line fill="none" stroke="#00ABEB" stroke-width="0.4221" stroke-miterlimit="10" x1="736.003" y1="389.57" x2="736.003" y2="-212.906"/>
			</g>
			<g id="Horizontal_10_mm">
				
					<line id="_x31_9_1_" fill="none" stroke="#00ABEB" stroke-width="0.9849" stroke-miterlimit="10" x1="-66.947" y1="389.619" x2="735.984" y2="389.619"/>
				
					<line id="_x32_0" fill="none" stroke="#00ABEB" stroke-width="0.9849" stroke-miterlimit="10" x1="-66.947" y1="289.406" x2="735.984" y2="289.406"/>
				
					<line id="_x32_1" fill="none" stroke="#00ABEB" stroke-width="0.9849" stroke-miterlimit="10" x1="-66.947" y1="189.19" x2="735.984" y2="189.19"/>
				
					<line id="_x32_2" fill="none" stroke="#00ABEB" stroke-width="0.9849" stroke-miterlimit="10" x1="-66.947" y1="88.977" x2="735.984" y2="88.977"/>
				
					<line id="_x32_3" fill="none" stroke="#00ABEB" stroke-width="0.9849" stroke-miterlimit="10" x1="-66.947" y1="-11.24" x2="735.984" y2="-11.24"/>
				
					<line id="_x32_4" fill="none" stroke="#00ABEB" stroke-width="0.9849" stroke-miterlimit="10" x1="-66.947" y1="-111.451" x2="735.984" y2="-111.451"/>
				
					<line id="_x32_5" fill="none" stroke="#00ABEB" stroke-width="0.9849" stroke-miterlimit="10" x1="-66.947" y1="-211.668" x2="735.984" y2="-211.668"/>
			</g>
			<g id="Vertical_10_mm">
				
					<line id="_x30_" fill="none" stroke="#00ABEB" stroke-width="0.9849" stroke-miterlimit="10" x1="-65.709" y1="389.57" x2="-65.709" y2="-212.906"/>
				
					<line id="_x31_" fill="none" stroke="#00ABEB" stroke-width="0.9849" stroke-miterlimit="10" x1="34.504" y1="389.57" x2="34.504" y2="-212.906"/>
				
					<line id="_x32_" fill="none" stroke="#00ABEB" stroke-width="0.9849" stroke-miterlimit="10" x1="134.719" y1="389.57" x2="134.719" y2="-212.906"/>
				
					<line id="_x33_" fill="none" stroke="#00ABEB" stroke-width="0.9849" stroke-miterlimit="10" x1="234.933" y1="389.57" x2="234.933" y2="-212.906"/>
				
					<line id="_x34_" fill="none" stroke="#00ABEB" stroke-width="0.9849" stroke-miterlimit="10" x1="335.144" y1="389.57" x2="335.144" y2="-212.906"/>
				
					<line id="_x35_" fill="none" stroke="#00ABEB" stroke-width="0.9849" stroke-miterlimit="10" x1="435.361" y1="389.57" x2="435.361" y2="-212.906"/>
				
					<line id="_x36_" fill="none" stroke="#00ABEB" stroke-width="0.9849" stroke-miterlimit="10" x1="535.574" y1="389.57" x2="535.574" y2="-212.906"/>
				
					<line id="_x37_" fill="none" stroke="#00ABEB" stroke-width="0.9849" stroke-miterlimit="10" x1="635.789" y1="389.57" x2="635.789" y2="-212.906"/>
				
					<line id="_x38_" fill="none" stroke="#00ABEB" stroke-width="0.9849" stroke-miterlimit="10" x1="736.003" y1="389.57" x2="736.003" y2="-212.906"/>
			</g>
		</g>
	</g>
</g>
<g id="base">
	
		<line fill="none" stroke="#00B200" stroke-linecap="round" stroke-linejoin="round" stroke-miterlimit="11.3386" x1="245.602" y1="157.426" x2="245.602" y2="189.56"/>
	
		<line fill="none" stroke="#00B200" stroke-linecap="round" stroke-linejoin="round" stroke-miterlimit="11.3386" x1="245.602" y1="38.875" x2="245.602" y2="72.486"/>
	
		<line fill="none" stroke="#C90D0C" stroke-linecap="round" stroke-miterlimit="11.3386" x1="245.602" y1="157.426" x2="245.602" y2="136.191"/>
	
		<line fill="none" stroke="#C90D0C" stroke-linecap="round" stroke-miterlimit="11.3386" x1="245.602" y1="72.486" x2="245.602" y2="93.721"/>
	
		<line fill="none" stroke="#C90D0C" stroke-width="2" stroke-linecap="round" stroke-miterlimit="11.3386" x1="252.316" y1="136.191" x2="252.316" y2="93.721"/>
	
		<line fill="none" stroke="#C90D0C" stroke-width="2" stroke-linecap="round" stroke-miterlimit="11.3386" x1="238.888" y1="93.721" x2="238.888" y2="136.191"/>
	
		<line fill="none" stroke="#C90D0C" stroke-width="2" stroke-linecap="round" stroke-miterlimit="11.3386" x1="252.316" y1="93.721" x2="238.888" y2="93.721"/>
	
		<line fill="none" stroke="#C90D0C" stroke-width="2" stroke-linecap="round" stroke-miterlimit="11.3386" x1="252.316" y1="136.191" x2="238.888" y2="136.191"/>
	<g enable-background="new    ">
		<path fill="#C90D0C" d="M265.501,106.129c2.862,0,4.423,1.344,4.423,3.384c0,1.152-0.542,2.328-1.431,3.072
			c-0.672,0.576-1.388,0.864-2.84,1.224l1.93,5.641c0.477,1.416,0.911,1.968,1.886,1.968v0.384h-3.187l-2.667-7.777l-1.431-0.12
			l-1.192,4.872c-0.239,0.936-0.282,1.272-0.282,1.512c0,0.72,0.217,0.984,1.453,1.128v0.384h-5.269v-0.384
			c1.192-0.168,1.496-0.624,1.843-2.04l2.581-10.345c0.151-0.648,0.26-1.104,0.26-1.512c0-0.264-0.151-0.552-0.303-0.672
			c-0.239-0.168-0.325-0.192-1.236-0.336v-0.384H265.501z M262.443,113.018c0.542,0.096,0.715,0.12,1.105,0.12
			c2.581,0,4.098-1.368,4.098-3.601c0-1.656-0.911-2.688-2.602-2.688c-0.672,0-1.127,0.264-1.236,0.72L262.443,113.018z"/>
	</g>
	<g display="none" enable-background="new    ">
		<path display="inline" fill="#808080" d="M295.541,136.223c2.245-0.441,3.899-2.159,4.49-4.842
			c-0.635,0.687-1.344,0.933-2.215,0.933c-1.596,0-2.659-1.325-2.659-3.321c0-2.208,1.315-3.86,3.072-3.86
			c0.945,0,1.743,0.458,2.319,1.243c0.591,0.818,0.945,1.996,0.945,3.37c0,1.881-0.591,3.664-1.772,4.858
			c-1.256,1.259-2.216,1.652-4.136,1.946L295.541,136.223z M300.061,129.746c0-2.748-0.665-4.155-1.95-4.155
			c-0.443,0-0.827,0.196-1.078,0.556c-0.295,0.441-0.517,1.407-0.517,2.29c0,1.946,0.709,3.173,1.816,3.173
			c0.65,0,1.729-0.36,1.729-1.227V129.746z"/>
		<path display="inline" fill="#808080" d="M305.793,136.42c-2.526,0-3.338-3.042-3.338-5.725c0-2.895,1.019-5.562,3.397-5.562
			c1.935,0,3.279,2.306,3.279,5.66C309.13,133.606,308.2,136.42,305.793,136.42z M305.763,125.558c-1.226,0-1.891,1.93-1.891,5.251
			c0,3.32,0.65,5.185,1.92,5.185c1.255,0,1.92-1.881,1.92-5.12C307.713,127.472,307.063,125.558,305.763,125.558z"/>
		<path display="inline" fill="#808080" d="M313.178,136.42c-2.526,0-3.338-3.042-3.338-5.725c0-2.895,1.019-5.562,3.397-5.562
			c1.935,0,3.279,2.306,3.279,5.66C316.516,133.606,315.586,136.42,313.178,136.42z M313.149,125.558
			c-1.226,0-1.891,1.93-1.891,5.251c0,3.32,0.65,5.185,1.92,5.185c1.255,0,1.92-1.881,1.92-5.12
			C315.098,127.472,314.448,125.558,313.149,125.558z"/>
		<path display="inline" fill="#808080" d="M326.901,136.191l0.104-2.633c1.255-0.344,2.083-2.143,2.083-3.894
			c0-2.322-1.093-3.942-3.028-3.942c-2.009,0-3.028,1.979-3.028,3.942c0,1.604,0.768,3.484,2.068,3.894l0.133,2.633h-4.239v-2.797
			h0.37c0.015,0.998,0.266,1.243,0.916,1.243h2.23l-0.03-0.605c-2.053-0.638-3.131-1.963-3.131-4.334
			c0-2.225,1.728-4.564,4.712-4.564c2.924,0,4.712,2.126,4.712,4.564c0,2.388-1.182,3.713-3.176,4.334l-0.03,0.605h2.275
			c0.605,0,0.886-0.393,0.916-1.21h0.37v2.764H326.901z"/>
	</g>
	<g enable-background="new    ">
		<path fill="#C90D0C" d="M158.066,22.341h-11.037v-0.384c1.214-0.144,1.388-0.36,1.778-1.872l2.646-10.513
			c0.173-0.648,0.238-1.128,0.238-1.488c0-0.696-0.325-0.936-1.669-1.032V6.668h5.919v0.384c-1.301,0.096-1.843,0.48-2.19,1.849
			l-2.602,10.297c-0.13,0.552-0.217,0.96-0.217,1.296c0,0.744,0.499,0.984,2.277,0.984c2.168,0,2.84-0.12,3.903-0.912
			c0.694-0.504,1.171-1.296,1.778-2.688l0.434,0.144L158.066,22.341z"/>
	</g>
	<g enable-background="new    ">
		<path fill="#00B200" d="M228.921,28.531c-1.192,2.016-1.886,2.736-2.97,2.736c-0.716,0-1.062-0.432-1.062-1.32
			c0-0.48,0.152-1.32,0.477-2.664l1.041-4.249c0.108-0.432,0.195-0.864,0.195-1.056c0-0.48-0.217-0.552-1.388-0.576v-0.384
			c0.846-0.072,1.279-0.144,3.469-0.6l0.087,0.072l-2.039,8.232c-0.108,0.408-0.217,0.72-0.217,1.056c0,0.24,0.13,0.36,0.304,0.36
			c0.369,0,0.889-0.504,1.821-1.872L228.921,28.531z M228.487,17.85c-0.628,0-1.041-0.504-1.041-1.272
			c0-0.744,0.434-1.272,1.019-1.272s1.084,0.624,1.084,1.32C229.55,17.298,229.051,17.85,228.487,17.85z"/>
		<path fill="#00B200" d="M236.683,15.306c-3.296,3.456-4.423,8.761-4.423,13.657c0,2.328,0.239,3.792,1.041,6.24l-0.391,0.144
			c-1.388-2.472-2.146-5.592-2.146-8.665c0-2.472,0.477-4.92,1.604-6.96c0.846-1.512,2.038-2.76,4.033-4.777L236.683,15.306z"/>
		<path fill="#00B200" d="M243.382,21.499h-1.821l-1.886,7.873c-0.022,0.096-0.043,0.264-0.043,0.336
			c0,0.312,0.13,0.384,0.325,0.384c0.347,0,0.694-0.384,1.756-1.896l0.282,0.168c-1.301,2.208-1.973,2.904-3.101,2.904
			c-0.585,0-0.998-0.288-0.998-0.888c0-0.264,0.174-1.008,0.347-1.776l1.691-7.104h-1.626c-0.021-0.072-0.021-0.144-0.021-0.144
			c0-0.264,0.195-0.48,0.715-0.6c0.694-0.168,2.104-1.344,2.884-2.64c0.087-0.144,0.217-0.216,0.304-0.216
			c0.13,0,0.195,0.072,0.195,0.192c0,0,0,0.12-0.022,0.168l-0.607,2.472h1.734L243.382,21.499z"/>
		<path fill="#00B200" d="M247.22,14.946c1.019,2.017,1.366,2.953,1.735,4.729c0.26,1.344,0.412,2.736,0.412,4.033
			c0,2.424-0.607,4.704-1.691,6.769c-0.846,1.608-1.973,2.952-3.946,4.848l-0.282-0.36c1.822-2.136,2.624-3.745,3.361-6.289
			c0.672-2.304,1.062-5.064,1.062-7.321c0-2.4-0.325-4.344-1.062-6.289L247.22,14.946z"/>
	</g>
	
		<line fill="none" stroke="#00B200" stroke-linecap="round" stroke-linejoin="round" stroke-miterlimit="11.3386" x1="285.038" y1="38.875" x2="196.964" y2="38.872"/>
	<line fill="none" stroke="#00B200" stroke-miterlimit="11.3386" x1="285.038" y1="189.56" x2="34.686" y2="189.56"/>
	<g>
		<g>
			
				<line fill="none" stroke="#00B200" stroke-width="1.1213" stroke-linecap="round" stroke-linejoin="round" x1="222.029" y1="38.844" x2="210.721" y2="38.844"/>
			<g>
				<path fill="#00B200" d="M214.366,33.462c-0.166,0.261-0.089,0.608,0.172,0.774l7.235,4.608l-7.235,4.608
					c-0.261,0.166-0.338,0.514-0.172,0.774c0.166,0.261,0.515,0.336,0.774,0.172l7.978-5.081c0.161-0.103,0.259-0.281,0.259-0.473
					s-0.098-0.37-0.259-0.473l-7.978-5.081c-0.093-0.059-0.198-0.088-0.301-0.088C214.655,33.203,214.473,33.295,214.366,33.462z"/>
			</g>
		</g>
	</g>
	
		<line fill="none" stroke="#00B200" stroke-linecap="round" stroke-linejoin="round" stroke-miterlimit="11.3386" x1="245.602" y1="38.875" x2="245.602" y2="72.486"/>
	<g opacity="0.1">
		<path fill="none" d="M174.318,47.656"/>
	</g>
	<g opacity="0.1">
		<path fill="none" d="M143.026,47.656"/>
	</g>
	<g display="none" enable-background="new    ">
		<path display="inline" fill="#808080" d="M259.673,30.093v-0.246c1.093-0.065,1.403-0.409,1.403-1.309v-7.344
			c0-0.556-0.133-0.801-0.443-0.801c-0.148,0-0.399,0.082-0.665,0.196l-0.399,0.163v-0.229l2.644-1.489l0.133,0.049v9.765
			c0,0.704,0.295,0.998,1.403,0.998v0.246H259.673z"/>
		<path display="inline" fill="#808080" d="M277.236,30.093v-0.246c0.827-0.098,0.96-0.278,0.96-1.227v-3.37
			c0-1.292-0.296-1.832-1.138-1.832c-0.694,0-1.137,0.294-1.58,0.998v4.122c0,1.063,0.221,1.292,1.063,1.309v0.246h-3.309v-0.246
			c0.842-0.065,1.004-0.163,1.004-1.161v-3.451c0-1.129-0.325-1.816-0.96-1.816c-0.546,0-1.27,0.311-1.565,0.704
			c-0.104,0.131-0.192,0.245-0.192,0.278v4.547c0,0.703,0.222,0.867,1.005,0.899v0.246h-3.279v-0.246
			c0.827-0.016,1.034-0.245,1.034-1.194v-4.057c0-0.801-0.133-1.08-0.517-1.08c-0.163,0-0.281,0.017-0.473,0.065v-0.278
			c0.812-0.245,1.3-0.425,2.053-0.736l0.118,0.049v1.21h0.029c0.975-1.112,1.595-1.259,2.26-1.259c0.798,0,1.3,0.442,1.566,1.374
			c0.797-0.949,1.551-1.374,2.408-1.374c1.196,0,1.713,1.014,1.713,2.944v3.321c0,0.736,0.192,0.948,0.635,0.981l0.384,0.032v0.246
			H277.236z"/>
		<path display="inline" fill="#808080" d="M287.178,30.093v-0.311c0.532,0,0.635-0.032,0.812-0.147
			c0.118-0.065,0.207-0.246,0.207-0.393c0-0.246-0.104-0.687-0.28-1.145l-0.606-1.538h-3.87l-0.68,1.865
			c-0.074,0.213-0.133,0.491-0.133,0.687c0,0.507,0.325,0.67,1.034,0.67v0.311h-2.939v-0.311c0.856-0.098,0.989-0.441,1.861-2.731
			l3.043-7.982h0.295l3.633,9.209c0.414,1.063,0.621,1.407,1.389,1.505v0.311H287.178z M285.391,21.391l-1.699,4.499h3.412
			L285.391,21.391z"/>
	</g>
	
		<line fill="none" stroke="#00B200" stroke-linecap="round" stroke-linejoin="round" stroke-miterlimit="11.3386" x1="35.22" y1="38.875" x2="35.219" y2="100.783"/>
	
		<line fill="none" stroke="#00B200" stroke-linecap="round" stroke-linejoin="round" stroke-miterlimit="11.3386" x1="35.22" y1="38.868" x2="112.024" y2="38.868"/>
	<g>
		<g>
			
				<line fill="none" stroke="#C90D0C" stroke-width="0.8494" stroke-linecap="round" stroke-miterlimit="11.3386" x1="112.024" y1="38.868" x2="126.18" y2="38.868"/>
			
				<line fill="none" stroke="#C90D0C" stroke-width="0.8494" stroke-linecap="round" stroke-miterlimit="11.3386" x1="196.964" y1="38.868" x2="182.807" y2="38.868"/>
			<path fill="none" stroke="#C90D0C" stroke-width="1.4157" stroke-linecap="round" stroke-miterlimit="11.3386" d="M133.259,31.79
				c-3.909,0-7.078,3.169-7.078,7.078"/>
			<path fill="none" stroke="#C90D0C" stroke-width="1.4157" stroke-linecap="round" stroke-miterlimit="11.3386" d="
				M140.337,38.868c0-3.909-3.169-7.078-7.078-7.078"/>
			<path fill="none" stroke="#C90D0C" stroke-width="1.4157" stroke-linecap="round" stroke-miterlimit="11.3386" d="M147.415,31.79
				c-3.909,0-7.078,3.169-7.078,7.078"/>
			<path fill="none" stroke="#C90D0C" stroke-width="1.4157" stroke-linecap="round" stroke-miterlimit="11.3386" d="
				M154.494,38.868c0-3.909-3.169-7.078-7.078-7.078"/>
			<path fill="none" stroke="#C90D0C" stroke-width="1.4157" stroke-linecap="round" stroke-miterlimit="11.3386" d="M161.572,31.79
				c-3.909,0-7.078,3.169-7.078,7.078"/>
			<path fill="none" stroke="#C90D0C" stroke-width="1.4157" stroke-linecap="round" stroke-miterlimit="11.3386" d="M168.65,38.868
				c0-3.909-3.169-7.078-7.078-7.078"/>
			<path fill="none" stroke="#C90D0C" stroke-width="1.4157" stroke-linecap="round" stroke-miterlimit="11.3386" d="M175.729,31.79
				c-3.909,0-7.078,3.169-7.078,7.078"/>
			<path fill="none" stroke="#C90D0C" stroke-width="1.4157" stroke-linecap="round" stroke-miterlimit="11.3386" d="
				M182.807,38.868c0-3.909-3.169-7.078-7.078-7.078"/>
		</g>
		<g display="none" enable-background="new    ">
			<path display="inline" fill="#808080" d="M155.633,51.771v-7.803h1.033v6.882h3.843v0.921H155.633z"/>
		</g>
	</g>
	<g display="none">
		
			<circle display="inline" fill="none" stroke="#C90D0C" stroke-width="1.0449" stroke-linecap="round" stroke-linejoin="round" stroke-miterlimit="11.3386" cx="104.964" cy="38.875" r="2.126"/>
		
			<circle display="inline" fill="none" stroke="#C90D0C" stroke-width="1.0449" stroke-linecap="round" stroke-linejoin="round" stroke-miterlimit="11.3386" cx="54.548" cy="38.875" r="2.126"/>
		
			<circle display="inline" fill="none" stroke="#C90D0C" stroke-width="1.0449" stroke-linecap="round" stroke-linejoin="round" stroke-miterlimit="11.3386" cx="56.674" cy="24.772" r="2.126"/>
	</g>
	<circle fill="#FFFFFF" stroke="#C90D0C" stroke-width="2" stroke-miterlimit="10" cx="35.219" cy="114.956" r="14.173"/>
	
		<line fill="none" stroke="#00B200" stroke-linecap="round" stroke-linejoin="round" stroke-miterlimit="11.3386" x1="35.22" y1="129.129" x2="35.219" y2="189.56"/>
	
		<line fill="none" stroke="#C90D0C" stroke-linecap="round" stroke-miterlimit="11.3386" x1="35.22" y1="72.486" x2="35.22" y2="157.426"/>
</g>
<g id="Layer_6">
	<g enable-background="new    ">
		<path d="M79.746,119.693c-1.409,2.376-1.973,2.856-2.992,2.856c-0.65,0-1.041-0.408-1.041-1.152c0-0.528,0.282-2.136,0.976-4.729
			c-2.559,4.656-3.643,5.929-5.182,5.929c-0.759,0-1.149-0.384-1.149-1.272c0-0.456,0.195-1.32,0.585-3.072l0.759-3.336
			c0.174-0.792,0.304-1.416,0.304-1.608c0-0.168-0.108-0.36-0.239-0.432c-0.195-0.12-0.26-0.144-1.084-0.144v-0.336
			c1.236-0.168,2.017-0.336,3.252-0.648l0.087,0.072l-1.93,8.521c-0.022,0.072-0.065,0.288-0.065,0.384c0,0.36,0.108,0.6,0.434,0.6
			c0.737,0,1.735-1.272,3.079-3.528c1.019-1.704,1.323-2.616,2.385-5.832h1.604l-1.713,7.176c-0.108,0.456-0.412,1.584-0.412,1.872
			c0,0.264,0.087,0.408,0.239,0.408c0.347,0,0.694-0.336,1.799-1.944L79.746,119.693z"/>
		<path d="M87.117,106.636c-3.296,3.456-4.423,8.761-4.423,13.657c0,2.328,0.239,3.792,1.041,6.24l-0.391,0.144
			c-1.388-2.472-2.146-5.592-2.146-8.665c0-2.472,0.477-4.92,1.604-6.96c0.846-1.512,2.038-2.76,4.033-4.777L87.117,106.636z"/>
		<path d="M93.817,112.828h-1.821l-1.886,7.873c-0.022,0.096-0.043,0.264-0.043,0.336c0,0.312,0.13,0.384,0.325,0.384
			c0.347,0,0.694-0.384,1.756-1.896l0.282,0.168c-1.301,2.208-1.973,2.904-3.101,2.904c-0.585,0-0.998-0.288-0.998-0.888
			c0-0.264,0.174-1.008,0.347-1.776l1.691-7.104h-1.626c-0.021-0.072-0.021-0.144-0.021-0.144c0-0.264,0.195-0.48,0.715-0.6
			c0.694-0.168,2.104-1.344,2.884-2.64c0.087-0.144,0.217-0.216,0.304-0.216c0.13,0,0.195,0.072,0.195,0.192c0,0,0,0.12-0.022,0.168
			l-0.607,2.472h1.734L93.817,112.828z"/>
		<path d="M97.654,106.275c1.019,2.017,1.366,2.953,1.735,4.729c0.26,1.344,0.412,2.736,0.412,4.033
			c0,2.424-0.607,4.704-1.691,6.769c-0.846,1.608-1.973,2.952-3.946,4.848l-0.282-0.36c1.822-2.136,2.624-3.745,3.361-6.289
			c0.672-2.304,1.062-5.064,1.062-7.321c0-2.4-0.325-4.344-1.062-6.289L97.654,106.275z"/>
	</g>
	<g enable-background="new    ">
		<path d="M297.568,120.509c1.843-3.384,2.646-5.112,2.646-6.168c0-0.336-0.152-0.48-0.564-0.768
			c-0.434-0.312-0.563-0.552-0.563-0.936c0-0.528,0.369-0.888,0.867-0.888c0.65,0,1.127,0.6,1.127,1.32
			c0,1.368-1.041,4.008-2.84,7.32c-2.255,4.128-4.575,6.889-5.811,6.889c-0.65,0-1.106-0.408-1.106-1.032
			c0-0.528,0.369-0.96,0.846-0.96c0.759,0,0.759,0.672,1.323,0.672c0.282,0,0.542-0.192,1.041-0.792
			c0.391-0.456,1.366-1.872,1.54-2.184c0.13-0.288,0.217-0.576,0.217-0.84c0-0.96-1.192-6.337-1.778-7.969
			c-0.412-1.176-0.802-1.536-1.669-1.536c-0.239,0-0.434,0.024-0.672,0.096v-0.408c0.239-0.048,0.477-0.096,0.694-0.144
			c0.434-0.096,1.149-0.24,2.32-0.432h0.086c0.325,0,1.475,3.984,1.843,6.121L297.568,120.509z"/>
		<path d="M308.3,106.636c-3.296,3.456-4.423,8.761-4.423,13.657c0,2.328,0.239,3.792,1.041,6.24l-0.391,0.144
			c-1.388-2.472-2.146-5.592-2.146-8.665c0-2.472,0.477-4.92,1.604-6.96c0.846-1.512,2.038-2.76,4.033-4.777L308.3,106.636z"/>
		<path d="M314.999,112.828h-1.821l-1.886,7.873c-0.022,0.096-0.043,0.264-0.043,0.336c0,0.312,0.13,0.384,0.325,0.384
			c0.347,0,0.694-0.384,1.756-1.896l0.282,0.168c-1.301,2.208-1.973,2.904-3.101,2.904c-0.585,0-0.998-0.288-0.998-0.888
			c0-0.264,0.174-1.008,0.347-1.776l1.691-7.104h-1.626c-0.021-0.072-0.021-0.144-0.021-0.144c0-0.264,0.195-0.48,0.715-0.6
			c0.694-0.168,2.104-1.344,2.884-2.64c0.087-0.144,0.217-0.216,0.304-0.216c0.13,0,0.195,0.072,0.195,0.192c0,0,0,0.12-0.022,0.168
			l-0.607,2.472h1.734L314.999,112.828z"/>
		<path d="M318.837,106.275c1.019,2.017,1.366,2.953,1.735,4.729c0.26,1.344,0.412,2.736,0.412,4.033
			c0,2.424-0.607,4.704-1.691,6.769c-0.846,1.608-1.973,2.952-3.946,4.848l-0.282-0.36c1.821-2.136,2.624-3.745,3.36-6.289
			c0.672-2.304,1.062-5.064,1.062-7.321c0-2.4-0.325-4.344-1.062-6.289L318.837,106.275z"/>
	</g>
	<g>
		<g>
			
				<line fill="none" stroke="#000000" stroke-width="1.1615" stroke-linecap="round" stroke-linejoin="round" x1="64.52" y1="59.853" x2="64.229" y2="168.799"/>
			<g>
				<polygon points="59.489,164.938 60.342,164.148 64.229,168.353 68.14,164.169 68.988,164.963 64.224,170.059 				"/>
			</g>
		</g>
	</g>
	<g>
		<g>
			
				<line fill="none" stroke="#000000" stroke-width="1.1714" stroke-linecap="round" stroke-linejoin="round" x1="285.038" y1="58.913" x2="285.038" y2="169.728"/>
			<g>
				<polygon points="280.248,165.847 281.106,165.048 285.037,169.279 288.97,165.048 289.828,165.847 285.037,170.999 				"/>
			</g>
		</g>
	</g>
	<g>
	</g>
	<g>
	</g>
</g>
</svg>
