<?xml version="1.0" encoding="utf-8"?>
<!-- Generator: Adobe Illustrator 26.0.1, SVG Export Plug-In . SVG Version: 6.00 Build 0)  -->
<svg version="1.1" xmlns="http://www.w3.org/2000/svg" xmlns:xlink="http://www.w3.org/1999/xlink" x="0px" y="0px"
	 viewBox="0 0 459.399 215.853" enable-background="new 0 0 459.399 215.853" xml:space="preserve">
<g id="Layer_8" opacity="0.5">
	<g id="Clipped_grid">
		<defs>
			<rect id="SVGID_1_" x="-6.479" y="-20.024" width="471.755" height="261.644"/>
		</defs>
		<clipPath id="SVGID_00000000936737323774269810000016986716323419822737_">
			<use xlink:href="#SVGID_1_"  overflow="visible"/>
		</clipPath>
		
			<g id="Grid_00000060005542146034257920000005065612243763103930_" opacity="0.25" clip-path="url(#SVGID_00000000936737323774269810000016986716323419822737_)">
			<g id="Horizontal_1_mm">
				
					<line fill="none" stroke="#00ABEB" stroke-width="0.2111" stroke-miterlimit="10" x1="-44.386" y1="-202.971" x2="757.573" y2="-202.971"/>
				
					<line fill="none" stroke="#00ABEB" stroke-width="0.2111" stroke-miterlimit="10" x1="-44.386" y1="-212.993" x2="757.573" y2="-212.993"/>
				
					<line fill="none" stroke="#00ABEB" stroke-width="0.2111" stroke-miterlimit="10" x1="-44.386" y1="388.294" x2="757.573" y2="388.294"/>
				
					<line fill="none" stroke="#00ABEB" stroke-width="0.2111" stroke-miterlimit="10" x1="-44.386" y1="378.271" x2="757.573" y2="378.271"/>
				
					<line fill="none" stroke="#00ABEB" stroke-width="0.2111" stroke-miterlimit="10" x1="-44.386" y1="368.252" x2="757.573" y2="368.252"/>
				
					<line fill="none" stroke="#00ABEB" stroke-width="0.2111" stroke-miterlimit="10" x1="-44.386" y1="358.23" x2="757.573" y2="358.23"/>
				
					<line fill="none" stroke="#00ABEB" stroke-width="0.2111" stroke-miterlimit="10" x1="-44.386" y1="348.207" x2="757.573" y2="348.207"/>
				
					<line fill="none" stroke="#00ABEB" stroke-width="0.2111" stroke-miterlimit="10" x1="-44.386" y1="338.188" x2="757.573" y2="338.188"/>
				
					<line fill="none" stroke="#00ABEB" stroke-width="0.2111" stroke-miterlimit="10" x1="-44.386" y1="328.166" x2="757.573" y2="328.166"/>
				
					<line fill="none" stroke="#00ABEB" stroke-width="0.2111" stroke-miterlimit="10" x1="-44.386" y1="318.146" x2="757.573" y2="318.146"/>
				
					<line fill="none" stroke="#00ABEB" stroke-width="0.2111" stroke-miterlimit="10" x1="-44.386" y1="308.122" x2="757.573" y2="308.122"/>
				
					<line fill="none" stroke="#00ABEB" stroke-width="0.2111" stroke-miterlimit="10" x1="-44.386" y1="298.1" x2="757.573" y2="298.1"/>
				
					<line fill="none" stroke="#00ABEB" stroke-width="0.2111" stroke-miterlimit="10" x1="-44.386" y1="288.08" x2="757.573" y2="288.08"/>
				
					<line fill="none" stroke="#00ABEB" stroke-width="0.2111" stroke-miterlimit="10" x1="-44.386" y1="278.058" x2="757.573" y2="278.058"/>
				
					<line fill="none" stroke="#00ABEB" stroke-width="0.2111" stroke-miterlimit="10" x1="-44.386" y1="268.035" x2="757.573" y2="268.035"/>
				
					<line fill="none" stroke="#00ABEB" stroke-width="0.2111" stroke-miterlimit="10" x1="-44.386" y1="258.016" x2="757.573" y2="258.016"/>
				
					<line fill="none" stroke="#00ABEB" stroke-width="0.2111" stroke-miterlimit="10" x1="-44.386" y1="247.994" x2="757.573" y2="247.994"/>
				
					<line fill="none" stroke="#00ABEB" stroke-width="0.2111" stroke-miterlimit="10" x1="-44.386" y1="237.971" x2="757.573" y2="237.971"/>
				
					<line fill="none" stroke="#00ABEB" stroke-width="0.2111" stroke-miterlimit="10" x1="-44.386" y1="227.952" x2="757.573" y2="227.952"/>
				
					<line fill="none" stroke="#00ABEB" stroke-width="0.2111" stroke-miterlimit="10" x1="-44.386" y1="217.929" x2="757.573" y2="217.929"/>
				
					<line fill="none" stroke="#00ABEB" stroke-width="0.2111" stroke-miterlimit="10" x1="-44.386" y1="207.907" x2="757.573" y2="207.907"/>
				
					<line fill="none" stroke="#00ABEB" stroke-width="0.2111" stroke-miterlimit="10" x1="-44.386" y1="197.888" x2="757.573" y2="197.888"/>
				
					<line fill="none" stroke="#00ABEB" stroke-width="0.2111" stroke-miterlimit="10" x1="-44.386" y1="187.865" x2="757.573" y2="187.865"/>
				
					<line fill="none" stroke="#00ABEB" stroke-width="0.2111" stroke-miterlimit="10" x1="-44.386" y1="177.841" x2="757.573" y2="177.841"/>
				
					<line fill="none" stroke="#00ABEB" stroke-width="0.2111" stroke-miterlimit="10" x1="-44.386" y1="167.822" x2="757.573" y2="167.822"/>
				
					<line fill="none" stroke="#00ABEB" stroke-width="0.2111" stroke-miterlimit="10" x1="-44.386" y1="157.799" x2="757.573" y2="157.799"/>
				
					<line fill="none" stroke="#00ABEB" stroke-width="0.2111" stroke-miterlimit="10" x1="-44.386" y1="147.78" x2="757.573" y2="147.78"/>
				
					<line fill="none" stroke="#00ABEB" stroke-width="0.2111" stroke-miterlimit="10" x1="-44.386" y1="137.758" x2="757.573" y2="137.758"/>
				
					<line fill="none" stroke="#00ABEB" stroke-width="0.2111" stroke-miterlimit="10" x1="-44.386" y1="127.735" x2="757.573" y2="127.735"/>
				
					<line fill="none" stroke="#00ABEB" stroke-width="0.2111" stroke-miterlimit="10" x1="-44.386" y1="117.716" x2="757.573" y2="117.716"/>
				
					<line fill="none" stroke="#00ABEB" stroke-width="0.2111" stroke-miterlimit="10" x1="-44.386" y1="107.694" x2="757.573" y2="107.694"/>
				
					<line fill="none" stroke="#00ABEB" stroke-width="0.2111" stroke-miterlimit="10" x1="-44.386" y1="97.671" x2="757.573" y2="97.671"/>
				
					<line fill="none" stroke="#00ABEB" stroke-width="0.2111" stroke-miterlimit="10" x1="-44.386" y1="87.652" x2="757.573" y2="87.652"/>
				
					<line fill="none" stroke="#00ABEB" stroke-width="0.2111" stroke-miterlimit="10" x1="-44.386" y1="77.63" x2="757.573" y2="77.63"/>
				
					<line fill="none" stroke="#00ABEB" stroke-width="0.2111" stroke-miterlimit="10" x1="-44.386" y1="67.607" x2="757.573" y2="67.607"/>
				
					<line fill="none" stroke="#00ABEB" stroke-width="0.2111" stroke-miterlimit="10" x1="-44.386" y1="57.588" x2="757.573" y2="57.588"/>
				
					<line fill="none" stroke="#00ABEB" stroke-width="0.2111" stroke-miterlimit="10" x1="-44.386" y1="47.565" x2="757.573" y2="47.565"/>
				
					<line fill="none" stroke="#00ABEB" stroke-width="0.2111" stroke-miterlimit="10" x1="-44.386" y1="37.543" x2="757.573" y2="37.543"/>
				
					<line fill="none" stroke="#00ABEB" stroke-width="0.2111" stroke-miterlimit="10" x1="-44.386" y1="27.524" x2="757.573" y2="27.524"/>
				
					<line fill="none" stroke="#00ABEB" stroke-width="0.2111" stroke-miterlimit="10" x1="-44.386" y1="17.501" x2="757.573" y2="17.501"/>
				
					<line fill="none" stroke="#00ABEB" stroke-width="0.2111" stroke-miterlimit="10" x1="-44.386" y1="7.479" x2="757.573" y2="7.479"/>
				
					<line fill="none" stroke="#00ABEB" stroke-width="0.2111" stroke-miterlimit="10" x1="-44.386" y1="-2.54" x2="757.573" y2="-2.54"/>
				
					<line fill="none" stroke="#00ABEB" stroke-width="0.2111" stroke-miterlimit="10" x1="-44.386" y1="-12.565" x2="757.573" y2="-12.565"/>
				
					<line fill="none" stroke="#00ABEB" stroke-width="0.2111" stroke-miterlimit="10" x1="-44.386" y1="-22.584" x2="757.573" y2="-22.584"/>
				
					<line fill="none" stroke="#00ABEB" stroke-width="0.2111" stroke-miterlimit="10" x1="-44.386" y1="-32.606" x2="757.573" y2="-32.606"/>
				
					<line fill="none" stroke="#00ABEB" stroke-width="0.2111" stroke-miterlimit="10" x1="-44.386" y1="-42.629" x2="757.573" y2="-42.629"/>
				
					<line fill="none" stroke="#00ABEB" stroke-width="0.2111" stroke-miterlimit="10" x1="-44.386" y1="-52.648" x2="757.573" y2="-52.648"/>
				
					<line fill="none" stroke="#00ABEB" stroke-width="0.2111" stroke-miterlimit="10" x1="-44.386" y1="-62.671" x2="757.573" y2="-62.671"/>
				
					<line fill="none" stroke="#00ABEB" stroke-width="0.2111" stroke-miterlimit="10" x1="-44.386" y1="-72.693" x2="757.573" y2="-72.693"/>
				
					<line fill="none" stroke="#00ABEB" stroke-width="0.2111" stroke-miterlimit="10" x1="-44.386" y1="-82.712" x2="757.573" y2="-82.712"/>
				
					<line fill="none" stroke="#00ABEB" stroke-width="0.2111" stroke-miterlimit="10" x1="-44.386" y1="-92.735" x2="757.573" y2="-92.735"/>
				
					<line fill="none" stroke="#00ABEB" stroke-width="0.2111" stroke-miterlimit="10" x1="-44.386" y1="-102.757" x2="757.573" y2="-102.757"/>
				
					<line fill="none" stroke="#00ABEB" stroke-width="0.2111" stroke-miterlimit="10" x1="-44.386" y1="-112.777" x2="757.573" y2="-112.777"/>
				
					<line fill="none" stroke="#00ABEB" stroke-width="0.2111" stroke-miterlimit="10" x1="-44.386" y1="-122.799" x2="757.573" y2="-122.799"/>
				
					<line fill="none" stroke="#00ABEB" stroke-width="0.2111" stroke-miterlimit="10" x1="-44.386" y1="-132.822" x2="757.573" y2="-132.822"/>
				
					<line fill="none" stroke="#00ABEB" stroke-width="0.2111" stroke-miterlimit="10" x1="-44.386" y1="-142.841" x2="757.573" y2="-142.841"/>
				
					<line fill="none" stroke="#00ABEB" stroke-width="0.2111" stroke-miterlimit="10" x1="-44.386" y1="-152.865" x2="757.573" y2="-152.865"/>
				
					<line fill="none" stroke="#00ABEB" stroke-width="0.2111" stroke-miterlimit="10" x1="-44.386" y1="-162.884" x2="757.573" y2="-162.884"/>
				
					<line fill="none" stroke="#00ABEB" stroke-width="0.2111" stroke-miterlimit="10" x1="-44.386" y1="-172.907" x2="757.573" y2="-172.907"/>
				
					<line fill="none" stroke="#00ABEB" stroke-width="0.2111" stroke-miterlimit="10" x1="-44.386" y1="-182.929" x2="757.573" y2="-182.929"/>
				
					<line fill="none" stroke="#00ABEB" stroke-width="0.2111" stroke-miterlimit="10" x1="-44.386" y1="-192.948" x2="757.573" y2="-192.948"/>
			</g>
			<g id="Vertical_1_mm">
				<g>
					
						<line fill="none" stroke="#00ABEB" stroke-width="0.2111" stroke-miterlimit="10" x1="-44.12" y1="388.245" x2="-44.12" y2="-213.259"/>
				</g>
				
					<line fill="none" stroke="#00ABEB" stroke-width="0.2111" stroke-miterlimit="10" x1="-34.101" y1="388.245" x2="-34.101" y2="-213.259"/>
				
					<line fill="none" stroke="#00ABEB" stroke-width="0.2111" stroke-miterlimit="10" x1="-24.079" y1="388.245" x2="-24.079" y2="-213.259"/>
				
					<line fill="none" stroke="#00ABEB" stroke-width="0.2111" stroke-miterlimit="10" x1="-14.056" y1="388.245" x2="-14.056" y2="-213.259"/>
				
					<line fill="none" stroke="#00ABEB" stroke-width="0.2111" stroke-miterlimit="10" x1="-4.037" y1="388.245" x2="-4.037" y2="-213.259"/>
				
					<line fill="none" stroke="#00ABEB" stroke-width="0.2111" stroke-miterlimit="10" x1="5.986" y1="388.245" x2="5.986" y2="-213.259"/>
				
					<line fill="none" stroke="#00ABEB" stroke-width="0.2111" stroke-miterlimit="10" x1="16.008" y1="388.245" x2="16.008" y2="-213.259"/>
				
					<line fill="none" stroke="#00ABEB" stroke-width="0.2111" stroke-miterlimit="10" x1="26.027" y1="388.245" x2="26.027" y2="-213.259"/>
				
					<line fill="none" stroke="#00ABEB" stroke-width="0.2111" stroke-miterlimit="10" x1="36.052" y1="388.245" x2="36.052" y2="-213.259"/>
				
					<line fill="none" stroke="#00ABEB" stroke-width="0.2111" stroke-miterlimit="10" x1="46.071" y1="388.245" x2="46.071" y2="-213.259"/>
				
					<line fill="none" stroke="#00ABEB" stroke-width="0.2111" stroke-miterlimit="10" x1="56.093" y1="388.245" x2="56.093" y2="-213.259"/>
				
					<line fill="none" stroke="#00ABEB" stroke-width="0.2111" stroke-miterlimit="10" x1="66.116" y1="388.245" x2="66.116" y2="-213.259"/>
				
					<line fill="none" stroke="#00ABEB" stroke-width="0.2111" stroke-miterlimit="10" x1="76.135" y1="388.245" x2="76.135" y2="-213.259"/>
				
					<line fill="none" stroke="#00ABEB" stroke-width="0.2111" stroke-miterlimit="10" x1="86.157" y1="388.245" x2="86.157" y2="-213.259"/>
				
					<line fill="none" stroke="#00ABEB" stroke-width="0.2111" stroke-miterlimit="10" x1="96.18" y1="388.245" x2="96.18" y2="-213.259"/>
				
					<line fill="none" stroke="#00ABEB" stroke-width="0.2111" stroke-miterlimit="10" x1="106.199" y1="388.245" x2="106.199" y2="-213.259"/>
				
					<line fill="none" stroke="#00ABEB" stroke-width="0.2111" stroke-miterlimit="10" x1="116.222" y1="388.245" x2="116.222" y2="-213.259"/>
				
					<line fill="none" stroke="#00ABEB" stroke-width="0.2111" stroke-miterlimit="10" x1="126.244" y1="388.245" x2="126.244" y2="-213.259"/>
				
					<line fill="none" stroke="#00ABEB" stroke-width="0.2111" stroke-miterlimit="10" x1="136.263" y1="388.245" x2="136.263" y2="-213.259"/>
				
					<line fill="none" stroke="#00ABEB" stroke-width="0.2111" stroke-miterlimit="10" x1="146.286" y1="388.245" x2="146.286" y2="-213.259"/>
				
					<line fill="none" stroke="#00ABEB" stroke-width="0.2111" stroke-miterlimit="10" x1="156.308" y1="388.245" x2="156.308" y2="-213.259"/>
				
					<line fill="none" stroke="#00ABEB" stroke-width="0.2111" stroke-miterlimit="10" x1="166.327" y1="388.245" x2="166.327" y2="-213.259"/>
				
					<line fill="none" stroke="#00ABEB" stroke-width="0.2111" stroke-miterlimit="10" x1="176.35" y1="388.245" x2="176.35" y2="-213.259"/>
				
					<line fill="none" stroke="#00ABEB" stroke-width="0.2111" stroke-miterlimit="10" x1="186.372" y1="388.245" x2="186.372" y2="-213.259"/>
				
					<line fill="none" stroke="#00ABEB" stroke-width="0.2111" stroke-miterlimit="10" x1="196.393" y1="388.245" x2="196.393" y2="-213.259"/>
				
					<line fill="none" stroke="#00ABEB" stroke-width="0.2111" stroke-miterlimit="10" x1="206.416" y1="388.245" x2="206.416" y2="-213.259"/>
				
					<line fill="none" stroke="#00ABEB" stroke-width="0.2111" stroke-miterlimit="10" x1="216.435" y1="388.245" x2="216.435" y2="-213.259"/>
				
					<line fill="none" stroke="#00ABEB" stroke-width="0.2111" stroke-miterlimit="10" x1="226.457" y1="388.245" x2="226.457" y2="-213.259"/>
				
					<line fill="none" stroke="#00ABEB" stroke-width="0.2111" stroke-miterlimit="10" x1="236.48" y1="388.245" x2="236.48" y2="-213.259"/>
				
					<line fill="none" stroke="#00ABEB" stroke-width="0.2111" stroke-miterlimit="10" x1="246.499" y1="388.245" x2="246.499" y2="-213.259"/>
				
					<line fill="none" stroke="#00ABEB" stroke-width="0.2111" stroke-miterlimit="10" x1="256.521" y1="388.245" x2="256.521" y2="-213.259"/>
				
					<line fill="none" stroke="#00ABEB" stroke-width="0.2111" stroke-miterlimit="10" x1="266.544" y1="388.245" x2="266.544" y2="-213.259"/>
				
					<line fill="none" stroke="#00ABEB" stroke-width="0.2111" stroke-miterlimit="10" x1="276.563" y1="388.245" x2="276.563" y2="-213.259"/>
				
					<line fill="none" stroke="#00ABEB" stroke-width="0.2111" stroke-miterlimit="10" x1="286.586" y1="388.245" x2="286.586" y2="-213.259"/>
				
					<line fill="none" stroke="#00ABEB" stroke-width="0.2111" stroke-miterlimit="10" x1="296.608" y1="388.245" x2="296.608" y2="-213.259"/>
				
					<line fill="none" stroke="#00ABEB" stroke-width="0.2111" stroke-miterlimit="10" x1="306.627" y1="388.245" x2="306.627" y2="-213.259"/>
				
					<line fill="none" stroke="#00ABEB" stroke-width="0.2111" stroke-miterlimit="10" x1="316.65" y1="388.245" x2="316.65" y2="-213.259"/>
				
					<line fill="none" stroke="#00ABEB" stroke-width="0.2111" stroke-miterlimit="10" x1="326.672" y1="388.245" x2="326.672" y2="-213.259"/>
				
					<line fill="none" stroke="#00ABEB" stroke-width="0.2111" stroke-miterlimit="10" x1="336.692" y1="388.245" x2="336.692" y2="-213.259"/>
				
					<line fill="none" stroke="#00ABEB" stroke-width="0.2111" stroke-miterlimit="10" x1="346.714" y1="388.245" x2="346.714" y2="-213.259"/>
				
					<line fill="none" stroke="#00ABEB" stroke-width="0.2111" stroke-miterlimit="10" x1="356.733" y1="388.245" x2="356.733" y2="-213.259"/>
				
					<line fill="none" stroke="#00ABEB" stroke-width="0.2111" stroke-miterlimit="10" x1="366.758" y1="388.245" x2="366.758" y2="-213.259"/>
				
					<line fill="none" stroke="#00ABEB" stroke-width="0.2111" stroke-miterlimit="10" x1="376.78" y1="388.245" x2="376.78" y2="-213.259"/>
				
					<line fill="none" stroke="#00ABEB" stroke-width="0.2111" stroke-miterlimit="10" x1="386.799" y1="388.245" x2="386.799" y2="-213.259"/>
				
					<line fill="none" stroke="#00ABEB" stroke-width="0.2111" stroke-miterlimit="10" x1="396.822" y1="388.245" x2="396.822" y2="-213.259"/>
				
					<line fill="none" stroke="#00ABEB" stroke-width="0.2111" stroke-miterlimit="10" x1="406.844" y1="388.245" x2="406.844" y2="-213.259"/>
				
					<line fill="none" stroke="#00ABEB" stroke-width="0.2111" stroke-miterlimit="10" x1="416.863" y1="388.245" x2="416.863" y2="-213.259"/>
				
					<line fill="none" stroke="#00ABEB" stroke-width="0.2111" stroke-miterlimit="10" x1="426.886" y1="388.245" x2="426.886" y2="-213.259"/>
				
					<line fill="none" stroke="#00ABEB" stroke-width="0.2111" stroke-miterlimit="10" x1="436.908" y1="388.245" x2="436.908" y2="-213.259"/>
				
					<line fill="none" stroke="#00ABEB" stroke-width="0.2111" stroke-miterlimit="10" x1="446.927" y1="388.245" x2="446.927" y2="-213.259"/>
				
					<line fill="none" stroke="#00ABEB" stroke-width="0.2111" stroke-miterlimit="10" x1="456.95" y1="388.245" x2="456.95" y2="-213.259"/>
				
					<line fill="none" stroke="#00ABEB" stroke-width="0.2111" stroke-miterlimit="10" x1="466.972" y1="388.245" x2="466.972" y2="-213.259"/>
				
					<line fill="none" stroke="#00ABEB" stroke-width="0.2111" stroke-miterlimit="10" x1="476.991" y1="388.245" x2="476.991" y2="-213.259"/>
				
					<line fill="none" stroke="#00ABEB" stroke-width="0.2111" stroke-miterlimit="10" x1="487.014" y1="388.245" x2="487.014" y2="-213.259"/>
				
					<line fill="none" stroke="#00ABEB" stroke-width="0.2111" stroke-miterlimit="10" x1="497.036" y1="388.245" x2="497.036" y2="-213.259"/>
				
					<line fill="none" stroke="#00ABEB" stroke-width="0.2111" stroke-miterlimit="10" x1="507.056" y1="388.245" x2="507.056" y2="-213.259"/>
				
					<line fill="none" stroke="#00ABEB" stroke-width="0.2111" stroke-miterlimit="10" x1="517.08" y1="388.245" x2="517.08" y2="-213.259"/>
				
					<line fill="none" stroke="#00ABEB" stroke-width="0.2111" stroke-miterlimit="10" x1="527.099" y1="388.245" x2="527.099" y2="-213.259"/>
				
					<line fill="none" stroke="#00ABEB" stroke-width="0.2111" stroke-miterlimit="10" x1="537.121" y1="388.245" x2="537.121" y2="-213.259"/>
				
					<line fill="none" stroke="#00ABEB" stroke-width="0.2111" stroke-miterlimit="10" x1="547.144" y1="388.245" x2="547.144" y2="-213.259"/>
				
					<line fill="none" stroke="#00ABEB" stroke-width="0.2111" stroke-miterlimit="10" x1="557.163" y1="388.245" x2="557.163" y2="-213.259"/>
				
					<line fill="none" stroke="#00ABEB" stroke-width="0.2111" stroke-miterlimit="10" x1="567.186" y1="388.245" x2="567.186" y2="-213.259"/>
				
					<line fill="none" stroke="#00ABEB" stroke-width="0.2111" stroke-miterlimit="10" x1="577.208" y1="388.245" x2="577.208" y2="-213.259"/>
				
					<line fill="none" stroke="#00ABEB" stroke-width="0.2111" stroke-miterlimit="10" x1="587.227" y1="388.245" x2="587.227" y2="-213.259"/>
				
					<line fill="none" stroke="#00ABEB" stroke-width="0.2111" stroke-miterlimit="10" x1="597.25" y1="388.245" x2="597.25" y2="-213.259"/>
				
					<line fill="none" stroke="#00ABEB" stroke-width="0.2111" stroke-miterlimit="10" x1="607.272" y1="388.245" x2="607.272" y2="-213.259"/>
				
					<line fill="none" stroke="#00ABEB" stroke-width="0.2111" stroke-miterlimit="10" x1="617.292" y1="388.245" x2="617.292" y2="-213.259"/>
				
					<line fill="none" stroke="#00ABEB" stroke-width="0.2111" stroke-miterlimit="10" x1="627.314" y1="388.245" x2="627.314" y2="-213.259"/>
				
					<line fill="none" stroke="#00ABEB" stroke-width="0.2111" stroke-miterlimit="10" x1="637.337" y1="388.245" x2="637.337" y2="-213.259"/>
				
					<line fill="none" stroke="#00ABEB" stroke-width="0.2111" stroke-miterlimit="10" x1="647.356" y1="388.245" x2="647.356" y2="-213.259"/>
				
					<line fill="none" stroke="#00ABEB" stroke-width="0.2111" stroke-miterlimit="10" x1="657.378" y1="388.245" x2="657.378" y2="-213.259"/>
				
					<line fill="none" stroke="#00ABEB" stroke-width="0.2111" stroke-miterlimit="10" x1="667.401" y1="388.245" x2="667.401" y2="-213.259"/>
				
					<line fill="none" stroke="#00ABEB" stroke-width="0.2111" stroke-miterlimit="10" x1="677.422" y1="388.245" x2="677.422" y2="-213.259"/>
				
					<line fill="none" stroke="#00ABEB" stroke-width="0.2111" stroke-miterlimit="10" x1="687.444" y1="388.245" x2="687.444" y2="-213.259"/>
				
					<line fill="none" stroke="#00ABEB" stroke-width="0.2111" stroke-miterlimit="10" x1="697.463" y1="388.245" x2="697.463" y2="-213.259"/>
				
					<line fill="none" stroke="#00ABEB" stroke-width="0.2111" stroke-miterlimit="10" x1="707.486" y1="388.245" x2="707.486" y2="-213.259"/>
				
					<line fill="none" stroke="#00ABEB" stroke-width="0.2111" stroke-miterlimit="10" x1="717.508" y1="388.245" x2="717.508" y2="-213.259"/>
				
					<line fill="none" stroke="#00ABEB" stroke-width="0.2111" stroke-miterlimit="10" x1="727.527" y1="388.245" x2="727.527" y2="-213.259"/>
				
					<line fill="none" stroke="#00ABEB" stroke-width="0.2111" stroke-miterlimit="10" x1="737.55" y1="388.245" x2="737.55" y2="-213.259"/>
				
					<line fill="none" stroke="#00ABEB" stroke-width="0.2111" stroke-miterlimit="10" x1="747.573" y1="388.245" x2="747.573" y2="-213.259"/>
				
					<line fill="none" stroke="#00ABEB" stroke-width="0.2111" stroke-miterlimit="10" x1="757.591" y1="388.245" x2="757.591" y2="-213.259"/>
			</g>
			<g id="Horizontal_5_mm_1_">
				
					<line fill="none" stroke="#00ABEB" stroke-width="0.4221" stroke-miterlimit="10" x1="-45.358" y1="388.294" x2="757.573" y2="388.294"/>
				
					<line fill="none" stroke="#00ABEB" stroke-width="0.4221" stroke-miterlimit="10" x1="-45.358" y1="338.188" x2="757.573" y2="338.188"/>
				
					<line fill="none" stroke="#00ABEB" stroke-width="0.4221" stroke-miterlimit="10" x1="-45.358" y1="288.08" x2="757.573" y2="288.08"/>
				
					<line fill="none" stroke="#00ABEB" stroke-width="0.4221" stroke-miterlimit="10" x1="-45.358" y1="237.971" x2="757.573" y2="237.971"/>
				
					<line fill="none" stroke="#00ABEB" stroke-width="0.4221" stroke-miterlimit="10" x1="-45.358" y1="187.865" x2="757.573" y2="187.865"/>
				
					<line fill="none" stroke="#00ABEB" stroke-width="0.4221" stroke-miterlimit="10" x1="-45.358" y1="137.758" x2="757.573" y2="137.758"/>
				
					<line fill="none" stroke="#00ABEB" stroke-width="0.4221" stroke-miterlimit="10" x1="-45.358" y1="87.652" x2="757.573" y2="87.652"/>
				
					<line fill="none" stroke="#00ABEB" stroke-width="0.4221" stroke-miterlimit="10" x1="-45.358" y1="37.543" x2="757.573" y2="37.543"/>
				
					<line fill="none" stroke="#00ABEB" stroke-width="0.4221" stroke-miterlimit="10" x1="-45.358" y1="-12.565" x2="757.573" y2="-12.565"/>
				
					<line fill="none" stroke="#00ABEB" stroke-width="0.4221" stroke-miterlimit="10" x1="-45.358" y1="-62.671" x2="757.573" y2="-62.671"/>
				
					<line fill="none" stroke="#00ABEB" stroke-width="0.4221" stroke-miterlimit="10" x1="-45.358" y1="-112.777" x2="757.573" y2="-112.777"/>
			</g>
			<g id="Vertical_5_mm">
				
					<line fill="none" stroke="#00ABEB" stroke-width="0.4221" stroke-miterlimit="10" x1="-44.12" y1="388.245" x2="-44.12" y2="-214.231"/>
				
					<line fill="none" stroke="#00ABEB" stroke-width="0.4221" stroke-miterlimit="10" x1="5.986" y1="388.245" x2="5.986" y2="-214.231"/>
				
					<line fill="none" stroke="#00ABEB" stroke-width="0.4221" stroke-miterlimit="10" x1="56.093" y1="388.245" x2="56.093" y2="-214.231"/>
				
					<line fill="none" stroke="#00ABEB" stroke-width="0.4221" stroke-miterlimit="10" x1="106.199" y1="388.245" x2="106.199" y2="-214.231"/>
				
					<line fill="none" stroke="#00ABEB" stroke-width="0.4221" stroke-miterlimit="10" x1="156.308" y1="388.245" x2="156.308" y2="-214.231"/>
				
					<line fill="none" stroke="#00ABEB" stroke-width="0.4221" stroke-miterlimit="10" x1="206.416" y1="388.245" x2="206.416" y2="-214.231"/>
				
					<line fill="none" stroke="#00ABEB" stroke-width="0.4221" stroke-miterlimit="10" x1="256.521" y1="388.245" x2="256.521" y2="-214.231"/>
				
					<line fill="none" stroke="#00ABEB" stroke-width="0.4221" stroke-miterlimit="10" x1="306.627" y1="388.245" x2="306.627" y2="-214.231"/>
				
					<line fill="none" stroke="#00ABEB" stroke-width="0.4221" stroke-miterlimit="10" x1="356.733" y1="388.245" x2="356.733" y2="-214.231"/>
				
					<line fill="none" stroke="#00ABEB" stroke-width="0.4221" stroke-miterlimit="10" x1="406.844" y1="388.245" x2="406.844" y2="-214.231"/>
				
					<line fill="none" stroke="#00ABEB" stroke-width="0.4221" stroke-miterlimit="10" x1="456.95" y1="388.245" x2="456.95" y2="-214.231"/>
				
					<line fill="none" stroke="#00ABEB" stroke-width="0.4221" stroke-miterlimit="10" x1="507.056" y1="388.245" x2="507.056" y2="-214.231"/>
				
					<line fill="none" stroke="#00ABEB" stroke-width="0.4221" stroke-miterlimit="10" x1="557.163" y1="388.245" x2="557.163" y2="-214.231"/>
				
					<line fill="none" stroke="#00ABEB" stroke-width="0.4221" stroke-miterlimit="10" x1="607.272" y1="388.245" x2="607.272" y2="-214.231"/>
				
					<line fill="none" stroke="#00ABEB" stroke-width="0.4221" stroke-miterlimit="10" x1="657.378" y1="388.245" x2="657.378" y2="-214.231"/>
				
					<line fill="none" stroke="#00ABEB" stroke-width="0.4221" stroke-miterlimit="10" x1="707.486" y1="388.245" x2="707.486" y2="-214.231"/>
				
					<line fill="none" stroke="#00ABEB" stroke-width="0.4221" stroke-miterlimit="10" x1="757.591" y1="388.245" x2="757.591" y2="-214.231"/>
			</g>
			<g id="Horizontal_10_mm">
				
					<line id="_x31_9_1_" fill="none" stroke="#00ABEB" stroke-width="0.9849" stroke-miterlimit="10" x1="-45.358" y1="388.294" x2="757.573" y2="388.294"/>
				
					<line id="_x32_0" fill="none" stroke="#00ABEB" stroke-width="0.9849" stroke-miterlimit="10" x1="-45.358" y1="288.08" x2="757.573" y2="288.08"/>
				
					<line id="_x32_1" fill="none" stroke="#00ABEB" stroke-width="0.9849" stroke-miterlimit="10" x1="-45.358" y1="187.865" x2="757.573" y2="187.865"/>
				
					<line id="_x32_2" fill="none" stroke="#00ABEB" stroke-width="0.9849" stroke-miterlimit="10" x1="-45.358" y1="87.652" x2="757.573" y2="87.652"/>
				
					<line id="_x32_3" fill="none" stroke="#00ABEB" stroke-width="0.9849" stroke-miterlimit="10" x1="-45.358" y1="-12.565" x2="757.573" y2="-12.565"/>
				
					<line id="_x32_4" fill="none" stroke="#00ABEB" stroke-width="0.9849" stroke-miterlimit="10" x1="-45.358" y1="-112.777" x2="757.573" y2="-112.777"/>
				
					<line id="_x32_5" fill="none" stroke="#00ABEB" stroke-width="0.9849" stroke-miterlimit="10" x1="-45.358" y1="-212.993" x2="757.573" y2="-212.993"/>
			</g>
			<g id="Vertical_10_mm">
				
					<line id="_x30_" fill="none" stroke="#00ABEB" stroke-width="0.9849" stroke-miterlimit="10" x1="-44.12" y1="388.245" x2="-44.12" y2="-214.231"/>
				
					<line id="_x31_" fill="none" stroke="#00ABEB" stroke-width="0.9849" stroke-miterlimit="10" x1="56.093" y1="388.245" x2="56.093" y2="-214.231"/>
				
					<line id="_x32_" fill="none" stroke="#00ABEB" stroke-width="0.9849" stroke-miterlimit="10" x1="156.308" y1="388.245" x2="156.308" y2="-214.231"/>
				
					<line id="_x33_" fill="none" stroke="#00ABEB" stroke-width="0.9849" stroke-miterlimit="10" x1="256.521" y1="388.245" x2="256.521" y2="-214.231"/>
				
					<line id="_x34_" fill="none" stroke="#00ABEB" stroke-width="0.9849" stroke-miterlimit="10" x1="356.733" y1="388.245" x2="356.733" y2="-214.231"/>
				
					<line id="_x35_" fill="none" stroke="#00ABEB" stroke-width="0.9849" stroke-miterlimit="10" x1="456.95" y1="388.245" x2="456.95" y2="-214.231"/>
				
					<line id="_x36_" fill="none" stroke="#00ABEB" stroke-width="0.9849" stroke-miterlimit="10" x1="557.163" y1="388.245" x2="557.163" y2="-214.231"/>
				
					<line id="_x37_" fill="none" stroke="#00ABEB" stroke-width="0.9849" stroke-miterlimit="10" x1="657.378" y1="388.245" x2="657.378" y2="-214.231"/>
				
					<line id="_x38_" fill="none" stroke="#00ABEB" stroke-width="0.9849" stroke-miterlimit="10" x1="757.591" y1="388.245" x2="757.591" y2="-214.231"/>
			</g>
		</g>
	</g>
</g>
<g id="Kirchhoff" display="none">
	<g display="inline" opacity="0.1">
		<g>
			<path fill="none" stroke="#0000FF" stroke-width="3.1941" stroke-linecap="round" stroke-linejoin="round" d="M245.714,46.331
				c21.862,0,39.716,27.899,40.824,62.99"/>
			<g>
				<polygon fill="#0000FF" points="272.748,99.507 274.959,97.198 286.322,108.103 296.369,95.973 298.829,98.014 286.59,112.785 
									"/>
			</g>
		</g>
	</g>
	<g display="inline" opacity="0.1">
		<g>
			<path fill="none" stroke="#0000FF" stroke-width="3.1941" stroke-linecap="round" stroke-linejoin="round" d="M214.421,46.331
				c-21.862,0-39.716,27.899-40.824,62.99"/>
			<g>
				<polygon fill="#0000FF" points="161.303,98.014 163.763,95.973 173.807,108.103 185.173,97.198 187.384,99.507 173.539,112.785 
									"/>
			</g>
		</g>
	</g>
	<g display="inline" opacity="0.1">
		<g>
			<path fill="none" stroke="#0000FF" stroke-width="3.1941" stroke-linecap="round" stroke-linejoin="round" d="M286.593,112.785
				c0,34.81-16.464,63.369-37.424,66.22"/>
			<g>
				<polygon fill="#0000FF" points="256.465,163.352 259.114,165.142 250.283,178.182 263.935,186.038 262.338,188.807 
					245.713,179.236 				"/>
			</g>
		</g>
	</g>
	<g display="inline" opacity="0.1">
		<g>
			<path fill="none" stroke="#0000FF" stroke-width="3.1941" stroke-linecap="round" stroke-linejoin="round" d="M173.542,112.785
				c0,34.81,16.464,63.369,37.424,66.22"/>
			<g>
				<polygon fill="#0000FF" points="197.796,188.81 196.199,186.041 209.851,178.188 201.02,165.145 203.669,163.355 
					214.421,179.242 				"/>
			</g>
		</g>
	</g>
</g>
<g id="Layer_4">
	
		<line fill="none" stroke="#00B200" stroke-linecap="round" stroke-linejoin="round" stroke-miterlimit="11.3386" x1="304.29" y1="156.1" x2="304.29" y2="188.235"/>
	
		<line fill="none" stroke="#00B200" stroke-linecap="round" stroke-linejoin="round" stroke-miterlimit="11.3386" x1="304.29" y1="37.55" x2="304.29" y2="71.161"/>
	<g>
		
			<line fill="none" stroke="#C90D0C" stroke-linecap="round" stroke-miterlimit="11.3386" x1="304.29" y1="156.1" x2="304.29" y2="134.866"/>
		
			<line fill="none" stroke="#C90D0C" stroke-linecap="round" stroke-miterlimit="11.3386" x1="304.29" y1="71.161" x2="304.29" y2="92.396"/>
		
			<line fill="none" stroke="#C90D0C" stroke-width="2" stroke-linecap="round" stroke-miterlimit="11.3386" x1="311.004" y1="134.866" x2="311.004" y2="92.396"/>
		
			<line fill="none" stroke="#C90D0C" stroke-width="2" stroke-linecap="round" stroke-miterlimit="11.3386" x1="297.576" y1="92.396" x2="297.576" y2="134.866"/>
		
			<line fill="none" stroke="#C90D0C" stroke-width="2" stroke-linecap="round" stroke-miterlimit="11.3386" x1="311.004" y1="92.396" x2="297.576" y2="92.396"/>
		
			<line fill="none" stroke="#C90D0C" stroke-width="2" stroke-linecap="round" stroke-miterlimit="11.3386" x1="311.004" y1="134.866" x2="297.576" y2="134.866"/>
		<g enable-background="new    ">
			<path fill="#C90D0C" d="M326.976,91.537c3.517,0,5.435,1.651,5.435,4.159c0,1.416-0.666,2.861-1.758,3.775
				c-0.826,0.708-1.705,1.062-3.49,1.504l2.371,6.931c0.586,1.74,1.119,2.418,2.318,2.418v0.472h-3.917l-3.277-9.557l-1.758-0.147
				l-1.465,5.988c-0.293,1.15-0.346,1.563-0.346,1.858c0,0.885,0.266,1.209,1.785,1.386v0.472H316.4v-0.472
				c1.465-0.206,1.838-0.767,2.264-2.507l3.17-12.712c0.187-0.796,0.32-1.357,0.32-1.858c0-0.324-0.187-0.678-0.373-0.826
				c-0.293-0.207-0.399-0.236-1.519-0.413v-0.472H326.976z M323.22,100.002c0.666,0.118,0.879,0.147,1.358,0.147
				c3.17,0,5.036-1.681,5.036-4.424c0-2.035-1.119-3.303-3.197-3.303c-0.826,0-1.385,0.324-1.519,0.885L323.22,100.002z"/>
			<path fill="#C90D0C" d="M334.267,111.78c0.373-1.015,0.73-1.6,1.274-2.064c0.605-0.516,1.273-0.722,1.988-0.722
				c1.491,0,2.516,1.272,2.516,2.906c0,1.152-0.481,1.943-2.314,4.024l-2.92,3.302v0.086h2.812c0.916,0,1.227-0.258,1.6-1.118
				l0.264,0.121l-0.777,2.304h-5.499v-0.292l3.262-3.852c1.025-1.204,1.725-2.287,2.097-3.216c0.093-0.223,0.14-0.55,0.14-0.928
				c0-1.187-0.621-2.081-1.848-2.081c-0.932,0-1.724,0.499-2.268,1.651L334.267,111.78z"/>
		</g>
		<g enable-background="new    ">
			<path fill="#808080" d="M317.13,134.898c2.245-0.441,3.899-2.159,4.49-4.842c-0.635,0.687-1.344,0.933-2.215,0.933
				c-1.596,0-2.659-1.325-2.659-3.321c0-2.208,1.315-3.86,3.072-3.86c0.945,0,1.743,0.458,2.319,1.243
				c0.591,0.818,0.945,1.996,0.945,3.37c0,1.881-0.591,3.664-1.772,4.858c-1.256,1.259-2.216,1.652-4.136,1.946L317.13,134.898z
				 M321.65,128.421c0-2.748-0.665-4.155-1.95-4.155c-0.443,0-0.827,0.196-1.078,0.556c-0.295,0.441-0.517,1.407-0.517,2.29
				c0,1.946,0.709,3.173,1.816,3.173c0.65,0,1.729-0.36,1.729-1.227V128.421z"/>
			<path fill="#808080" d="M327.382,135.094c-2.526,0-3.338-3.042-3.338-5.725c0-2.895,1.019-5.562,3.397-5.562
				c1.935,0,3.279,2.306,3.279,5.66C330.719,132.281,329.789,135.094,327.382,135.094z M327.352,124.233
				c-1.226,0-1.891,1.93-1.891,5.251c0,3.32,0.65,5.185,1.92,5.185c1.255,0,1.92-1.881,1.92-5.12
				C329.301,126.147,328.652,124.233,327.352,124.233z"/>
			<path fill="#808080" d="M334.767,135.094c-2.526,0-3.338-3.042-3.338-5.725c0-2.895,1.019-5.562,3.397-5.562
				c1.935,0,3.279,2.306,3.279,5.66C338.105,132.281,337.175,135.094,334.767,135.094z M334.738,124.233
				c-1.226,0-1.891,1.93-1.891,5.251c0,3.32,0.65,5.185,1.92,5.185c1.255,0,1.92-1.881,1.92-5.12
				C336.687,126.147,336.037,124.233,334.738,124.233z"/>
			<path fill="#808080" d="M348.489,134.865l0.104-2.633c1.255-0.344,2.083-2.143,2.083-3.894c0-2.322-1.093-3.942-3.028-3.942
				c-2.009,0-3.028,1.979-3.028,3.942c0,1.604,0.768,3.484,2.068,3.894l0.133,2.633h-4.239v-2.797h0.37
				c0.015,0.998,0.266,1.243,0.916,1.243h2.23l-0.03-0.605c-2.053-0.638-3.131-1.963-3.131-4.334c0-2.225,1.728-4.564,4.712-4.564
				c2.924,0,4.712,2.126,4.712,4.564c0,2.388-1.182,3.713-3.176,4.334l-0.03,0.605h2.275c0.605,0,0.886-0.393,0.916-1.21h0.37v2.764
				H348.489z"/>
		</g>
	</g>
	<g enable-background="new    ">
		<path fill="#00B200" d="M272.278,10.89c-1.492,0.207-1.732,0.472-2.185,2.271l-3.197,12.653c-0.24,0.944-0.399,1.652-0.399,2.242
			c0,0.826,0.32,0.944,1.838,1.15v0.472h-6.5v-0.472c1.465-0.295,1.838-0.56,2.238-2.212l3.197-13.007
			c0.187-0.737,0.347-1.357,0.347-1.829c0-0.737-0.426-1.18-1.918-1.269v-0.472h6.581V10.89z"/>
	</g>
	
		<line fill="none" stroke="#00B200" stroke-linecap="round" stroke-linejoin="round" stroke-miterlimit="11.3386" x1="396.669" y1="37.55" x2="155.527" y2="37.55"/>
	<line fill="none" stroke="#00B200" stroke-miterlimit="11.3386" x1="396.669" y1="188.235" x2="155.527" y2="188.235"/>
	<g>
		<g>
			
				<line fill="none" stroke="#00B200" stroke-width="1.1213" stroke-linecap="round" stroke-linejoin="round" x1="262.039" y1="37.55" x2="247.081" y2="37.55"/>
			<g>
				<path fill="#00B200" d="M254.376,32.168c-0.166,0.261-0.089,0.608,0.172,0.774l7.235,4.608l-7.235,4.608
					c-0.261,0.166-0.338,0.514-0.172,0.774c0.166,0.261,0.515,0.336,0.774,0.172l7.978-5.081c0.161-0.103,0.259-0.281,0.259-0.473
					c0-0.192-0.098-0.37-0.259-0.473l-7.978-5.081c-0.093-0.059-0.198-0.088-0.301-0.088C254.664,31.908,254.483,32,254.376,32.168z
					"/>
			</g>
		</g>
	</g>
	<g>
		
			<line fill="none" stroke="#C90D0C" stroke-linecap="round" stroke-miterlimit="11.3386" x1="155.721" y1="156.98" x2="155.721" y2="135.745"/>
		
			<line fill="none" stroke="#C90D0C" stroke-linecap="round" stroke-miterlimit="11.3386" x1="155.527" y1="70.281" x2="155.721" y2="93.275"/>
		
			<line fill="none" stroke="#C90D0C" stroke-width="2" stroke-linecap="round" stroke-miterlimit="11.3386" x1="162.435" y1="135.745" x2="162.435" y2="93.275"/>
		
			<line fill="none" stroke="#C90D0C" stroke-width="2" stroke-linecap="round" stroke-miterlimit="11.3386" x1="149.007" y1="93.275" x2="149.007" y2="135.745"/>
		
			<line fill="none" stroke="#C90D0C" stroke-width="2" stroke-linecap="round" stroke-miterlimit="11.3386" x1="162.435" y1="93.275" x2="149.007" y2="93.275"/>
		
			<line fill="none" stroke="#C90D0C" stroke-width="2" stroke-linecap="round" stroke-miterlimit="11.3386" x1="162.435" y1="135.745" x2="149.007" y2="135.745"/>
	</g>
	<g enable-background="new    ">
		<path fill="#C90D0C" d="M125.917,91.839c3.517,0,5.435,1.651,5.435,4.159c0,1.416-0.666,2.861-1.758,3.775
			c-0.826,0.708-1.705,1.062-3.49,1.504l2.371,6.931c0.586,1.74,1.119,2.419,2.318,2.419v0.472h-3.917l-3.277-9.557l-1.758-0.147
			l-1.465,5.988c-0.293,1.15-0.346,1.563-0.346,1.858c0,0.885,0.266,1.209,1.785,1.387v0.472h-6.474v-0.472
			c1.465-0.207,1.838-0.767,2.264-2.507l3.17-12.712c0.187-0.796,0.32-1.357,0.32-1.858c0-0.324-0.187-0.678-0.373-0.826
			c-0.293-0.207-0.399-0.236-1.519-0.413v-0.472H125.917z M122.16,100.304c0.666,0.118,0.879,0.147,1.358,0.147
			c3.17,0,5.036-1.681,5.036-4.424c0-2.035-1.119-3.303-3.197-3.303c-0.826,0-1.385,0.324-1.519,0.885L122.16,100.304z"/>
		<path fill="#C90D0C" d="M138.24,109.296c0.047,0,0.078,0.052,0.078,0.121c0,0.086-0.031,0.258-0.093,0.499l-2.221,8.925
			c-0.108,0.43-0.279,1.101-0.279,1.272c0,0.396,0.342,0.55,1.025,0.55h0.326v0.258h-4.333v-0.258
			c1.227-0.104,1.569-0.292,1.74-0.946l2.112-8.392c0.078-0.327,0.125-0.499,0.125-0.619c0-0.327-0.202-0.533-0.544-0.533h-0.046
			c-0.28,0-0.622,0.018-0.917,0.035v-0.258l0.357-0.086c1.367-0.327,1.429-0.292,2.625-0.567H138.24z"/>
	</g>
	<ellipse fill="#00B200" cx="230.006" cy="37.55" rx="2.664" ry="2.949"/>
	<ellipse fill="#00B200" cx="230.006" cy="187.909" rx="2.664" ry="2.949"/>
	<g enable-background="new    ">
		<path fill="#808080" d="M107.715,135.745v-0.246c1.093-0.065,1.403-0.409,1.403-1.309v-7.344c0-0.556-0.133-0.801-0.443-0.801
			c-0.148,0-0.399,0.082-0.665,0.196l-0.399,0.163v-0.229l2.644-1.489l0.133,0.049v9.765c0,0.704,0.295,0.998,1.403,0.998v0.246
			H107.715z"/>
		<path fill="#808080" d="M117.051,135.974c-2.526,0-3.338-3.042-3.338-5.725c0-2.895,1.019-5.562,3.397-5.562
			c1.935,0,3.279,2.306,3.279,5.66C120.388,133.16,119.458,135.974,117.051,135.974z M117.021,125.112
			c-1.226,0-1.891,1.93-1.891,5.251c0,3.32,0.65,5.185,1.92,5.185c1.255,0,1.92-1.881,1.92-5.12
			C118.97,127.026,118.321,125.112,117.021,125.112z"/>
		<path fill="#808080" d="M124.436,135.974c-2.526,0-3.338-3.042-3.338-5.725c0-2.895,1.019-5.562,3.397-5.562
			c1.935,0,3.279,2.306,3.279,5.66C127.774,133.16,126.843,135.974,124.436,135.974z M124.406,125.112
			c-1.226,0-1.891,1.93-1.891,5.251c0,3.32,0.65,5.185,1.92,5.185c1.255,0,1.92-1.881,1.92-5.12
			C126.356,127.026,125.706,125.112,124.406,125.112z"/>
		<path fill="#808080" d="M138.158,135.745l0.104-2.633c1.255-0.344,2.083-2.143,2.083-3.894c0-2.322-1.093-3.942-3.028-3.942
			c-2.009,0-3.028,1.979-3.028,3.942c0,1.604,0.768,3.484,2.068,3.894l0.133,2.633h-4.239v-2.797h0.37
			c0.015,0.998,0.266,1.243,0.916,1.243h2.23l-0.03-0.605c-2.053-0.638-3.131-1.963-3.131-4.334c0-2.225,1.728-4.564,4.712-4.564
			c2.924,0,4.712,2.126,4.712,4.564c0,2.388-1.182,3.713-3.176,4.334l-0.03,0.605h2.275c0.605,0,0.886-0.393,0.916-1.21h0.37v2.764
			H138.158z"/>
	</g>
	<g enable-background="new    ">
		<path d="M232.505,45.78c4.663,0,7.78,2.772,7.78,7.934c0,3.657-1.652,6.636-4.263,8.878c-1.945,1.681-4.636,2.448-7.753,2.448
			h-6.847v-0.472c1.492-0.295,1.759-0.501,2.185-2.241l3.25-13.125c0.187-0.737,0.293-1.298,0.293-1.74
			c0-0.796-0.399-1.15-2.024-1.209V45.78H232.505z M226.75,60.262c-0.453,1.829-0.586,2.418-0.586,2.802
			c0,0.767,0.586,1.091,1.812,1.091c2.691,0,4.769-0.885,6.42-2.655c1.892-2.035,2.931-5.516,2.931-8.495
			c0-2.359-0.772-4.218-2.078-5.309c-0.826-0.678-1.945-1.032-3.49-1.032c-1.013,0-1.599,0.118-1.865,1.15L226.75,60.262z"/>
	</g>
	<g enable-background="new    ">
		<path d="M231.612,179.537v-0.472c1.679-0.088,2.052-0.56,2.052-1.563c0-0.236-0.027-0.501-0.053-0.767l-0.533-3.864h-5.861
			l-1.572,3.274c-0.373,0.767-0.586,1.475-0.586,1.947c0,0.561,0.399,0.915,1.652,0.973v0.472h-4.956v-0.472
			c1.226-0.265,1.572-0.767,3.57-4.601l7.593-14.629h0.693l2.451,16.311c0.373,2.478,0.666,2.802,2.078,2.92v0.472H231.612z
			 M231.745,164.052l-3.97,7.757h5.169L231.745,164.052z"/>
	</g>
	<circle fill="none" stroke="#C90D0C" stroke-width="2" stroke-miterlimit="11.3386" cx="396.669" cy="113.631" r="17.008"/>
	
		<line fill="none" stroke="#C90D0C" stroke-linecap="round" stroke-miterlimit="11.3386" x1="396.669" y1="156.1" x2="396.669" y2="130.638"/>
	
		<line fill="none" stroke="#C90D0C" stroke-linecap="round" stroke-miterlimit="11.3386" x1="396.669" y1="71.161" x2="396.669" y2="96.623"/>
	
		<line fill="none" stroke="#00B200" stroke-linecap="round" stroke-linejoin="round" stroke-miterlimit="11.3386" x1="304.29" y1="37.55" x2="304.29" y2="71.161"/>
	
		<line fill="none" stroke="#00B200" stroke-linecap="round" stroke-linejoin="round" stroke-miterlimit="11.3386" x1="396.669" y1="156.1" x2="396.669" y2="188.235"/>
	
		<line fill="none" stroke="#00B200" stroke-linecap="round" stroke-linejoin="round" stroke-miterlimit="11.3386" x1="396.669" y1="37.55" x2="396.669" y2="71.161"/>
	<g opacity="0.1">
		<path fill="none" d="M245.714,46.331"/>
	</g>
	<g opacity="0.1">
		<path fill="none" d="M214.421,46.331"/>
	</g>
	<g enable-background="new    ">
		<path fill="#C90D0C" d="M399.116,105.476c-0.746,0.021-1.175,0.351-1.717,1.88l-4.143,11.632h-0.28l-4.554-11.239
			c-0.802-2.004-1.083-2.252-2.016-2.272v-0.393h4.945v0.393l-0.522,0.042c-0.597,0.041-0.84,0.227-0.84,0.64
			c0,0.331,0.168,0.827,0.728,2.211l2.836,7.066l2.743-7.624c0.224-0.62,0.355-1.136,0.355-1.487c0-0.806-0.597-0.765-1.344-0.847
			v-0.393h3.807V105.476z"/>
		<path fill="#C90D0C" d="M404.151,125.638h-4.254v-0.145l1.937-2.275c1.023-1.192,1.415-2.107,1.415-3.13
			c0-1.095-0.587-1.697-1.512-1.697c-0.784,0-1.164,0.385-1.6,1.565l-0.229-0.06c0.229-1.409,0.925-2.396,2.263-2.396
			c1.229,0,2.013,0.927,2.013,2.119c0,0.951-0.424,1.854-1.393,2.986l-1.795,2.119h2.545c0.457,0,0.686-0.132,1.044-0.807
			l0.152,0.072L404.151,125.638z"/>
	</g>
	
		<line fill="none" stroke="#00B200" stroke-linecap="round" stroke-linejoin="round" stroke-miterlimit="11.3386" x1="155.527" y1="156.1" x2="155.527" y2="188.235"/>
	
		<line fill="none" stroke="#00B200" stroke-linecap="round" stroke-linejoin="round" stroke-miterlimit="11.3386" x1="155.527" y1="37.55" x2="155.527" y2="71.161"/>
	
		<line fill="none" stroke="#00B200" stroke-linecap="round" stroke-linejoin="round" stroke-miterlimit="11.3386" x1="155.527" y1="37.55" x2="155.527" y2="71.161"/>
	<g enable-background="new    ">
		<path fill="#808080" d="M420.689,131.267v4.269h-0.975v-4.269h-3.855v-1.08h3.855v-4.27h0.975v4.27h3.855v1.08H420.689z"/>
		<path fill="#808080" d="M428.961,135.094c-2.526,0-3.338-3.042-3.338-5.725c0-2.895,1.019-5.562,3.397-5.562
			c1.935,0,3.279,2.306,3.279,5.66C432.299,132.281,431.368,135.094,428.961,135.094z M428.931,124.233
			c-1.226,0-1.891,1.93-1.891,5.251c0,3.32,0.65,5.185,1.92,5.185c1.255,0,1.92-1.881,1.92-5.12
			C430.881,126.147,430.231,124.233,428.931,124.233z"/>
		<path fill="#808080" d="M434.5,135.046c-0.458,0-0.812-0.393-0.812-0.9s0.37-0.916,0.827-0.916c0.429,0,0.812,0.442,0.812,0.932
			C435.327,134.636,434.944,135.046,434.5,135.046z"/>
		<path fill="#808080" d="M437.174,134.898c2.245-0.441,3.899-2.159,4.49-4.842c-0.635,0.687-1.344,0.933-2.216,0.933
			c-1.595,0-2.658-1.325-2.658-3.321c0-2.208,1.314-3.86,3.072-3.86c0.945,0,1.743,0.458,2.319,1.243
			c0.591,0.818,0.945,1.996,0.945,3.37c0,1.881-0.591,3.664-1.772,4.858c-1.255,1.259-2.216,1.652-4.136,1.946L437.174,134.898z
			 M441.694,128.421c0-2.748-0.665-4.155-1.949-4.155c-0.443,0-0.827,0.196-1.079,0.556c-0.295,0.441-0.517,1.407-0.517,2.29
			c0,1.946,0.709,3.173,1.817,3.173c0.65,0,1.728-0.36,1.728-1.227V128.421z"/>
		<path fill="#808080" d="M457.72,124.347c-0.591,0.017-0.931,0.278-1.359,1.489l-3.279,9.209h-0.222l-3.604-8.898
			c-0.635-1.587-0.857-1.783-1.595-1.8v-0.311h3.914v0.311l-0.414,0.033c-0.473,0.032-0.665,0.18-0.665,0.507
			c0,0.262,0.133,0.654,0.576,1.75l2.245,5.595l2.171-6.036c0.178-0.491,0.28-0.899,0.28-1.178c0-0.638-0.473-0.605-1.063-0.671
			v-0.311h3.014V124.347z"/>
	</g>
	<g enable-background="new    ">
		<path fill="#808080" d="M7.902,131.267v-1.08h8.227v1.08H7.902z"/>
		<path fill="#808080" d="M20.767,135.094c-2.526,0-3.338-3.042-3.338-5.725c0-2.895,1.019-5.562,3.397-5.562
			c1.935,0,3.279,2.306,3.279,5.66C24.105,132.281,23.175,135.094,20.767,135.094z M20.738,124.233c-1.226,0-1.891,1.93-1.891,5.251
			c0,3.32,0.65,5.185,1.92,5.185c1.255,0,1.92-1.881,1.92-5.12C22.687,126.147,22.037,124.233,20.738,124.233z"/>
		<path fill="#808080" d="M26.306,135.046c-0.458,0-0.812-0.393-0.812-0.9s0.37-0.916,0.827-0.916c0.429,0,0.812,0.442,0.812,0.932
			C27.134,134.636,26.75,135.046,26.306,135.046z"/>
		<path fill="#808080" d="M29.896,134.865v-0.246c1.093-0.065,1.403-0.409,1.403-1.309v-7.344c0-0.556-0.133-0.801-0.443-0.801
			c-0.148,0-0.399,0.082-0.665,0.196l-0.398,0.163v-0.229l2.644-1.489l0.133,0.049v9.765c0,0.704,0.295,0.998,1.403,0.998v0.246
			H29.896z"/>
		<path fill="#808080" d="M49.526,124.347c-0.591,0.017-0.931,0.278-1.359,1.489l-3.279,9.209h-0.222l-3.604-8.898
			c-0.635-1.587-0.857-1.783-1.595-1.8v-0.311h3.914v0.311l-0.414,0.033c-0.473,0.032-0.665,0.18-0.665,0.507
			c0,0.262,0.133,0.654,0.576,1.75l2.245,5.595l2.171-6.036c0.178-0.491,0.281-0.899,0.281-1.178c0-0.638-0.473-0.605-1.063-0.671
			v-0.311h3.013V124.347z"/>
	</g>
	<g enable-background="new    ">
		<path fill="#808080" d="M281.262,28.768v-0.246c1.093-0.065,1.403-0.409,1.403-1.309V19.87c0-0.556-0.133-0.801-0.443-0.801
			c-0.148,0-0.399,0.082-0.665,0.196l-0.399,0.163v-0.229l2.644-1.489l0.133,0.049v9.765c0,0.704,0.295,0.998,1.403,0.998v0.246
			H281.262z"/>
		<path fill="#808080" d="M298.825,28.768v-0.246c0.827-0.098,0.96-0.278,0.96-1.227v-3.37c0-1.292-0.296-1.832-1.138-1.832
			c-0.694,0-1.137,0.294-1.58,0.998v4.122c0,1.063,0.221,1.292,1.063,1.309v0.246h-3.309v-0.246
			c0.842-0.065,1.004-0.163,1.004-1.161V23.91c0-1.129-0.325-1.816-0.96-1.816c-0.546,0-1.27,0.311-1.565,0.704
			c-0.104,0.131-0.192,0.245-0.192,0.278v4.547c0,0.703,0.222,0.867,1.005,0.899v0.246h-3.279v-0.246
			c0.827-0.016,1.034-0.245,1.034-1.194v-4.057c0-0.801-0.133-1.08-0.517-1.08c-0.163,0-0.281,0.017-0.473,0.065V21.98
			c0.812-0.245,1.3-0.425,2.053-0.736l0.118,0.049v1.21h0.029c0.975-1.112,1.595-1.259,2.26-1.259c0.798,0,1.3,0.442,1.566,1.374
			c0.797-0.949,1.551-1.374,2.408-1.374c1.196,0,1.713,1.014,1.713,2.944v3.321c0,0.736,0.192,0.948,0.635,0.981l0.384,0.032v0.246
			H298.825z"/>
		<path fill="#808080" d="M308.766,28.768v-0.311c0.532,0,0.635-0.032,0.812-0.147c0.118-0.065,0.207-0.246,0.207-0.393
			c0-0.246-0.103-0.687-0.281-1.145l-0.605-1.538h-3.87l-0.68,1.865c-0.074,0.213-0.133,0.491-0.133,0.687
			c0,0.507,0.325,0.67,1.034,0.67v0.311h-2.939v-0.311c0.856-0.098,0.99-0.441,1.861-2.731l3.043-7.982h0.295l3.633,9.209
			c0.414,1.063,0.621,1.407,1.389,1.505v0.311H308.766z M306.979,20.066l-1.699,4.499h3.412L306.979,20.066z"/>
	</g>
</g>
<g id="V1">
	
		<line fill="none" stroke="#00B200" stroke-linecap="round" stroke-linejoin="round" stroke-miterlimit="11.3386" x1="67.147" y1="37.55" x2="155.721" y2="37.55"/>
	<line fill="none" stroke="#00B200" stroke-miterlimit="11.3386" x1="67.147" y1="188.235" x2="155.721" y2="188.235"/>
	<circle fill="none" stroke="#C90D0C" stroke-width="2" stroke-miterlimit="11.3386" cx="67.147" cy="113.631" r="17.008"/>
	
		<line fill="none" stroke="#C90D0C" stroke-linecap="round" stroke-miterlimit="11.3386" x1="67.147" y1="156.1" x2="67.147" y2="130.638"/>
	
		<line fill="none" stroke="#C90D0C" stroke-linecap="round" stroke-miterlimit="11.3386" x1="67.147" y1="71.161" x2="67.147" y2="96.623"/>
	
		<line fill="none" stroke="#00B200" stroke-linecap="round" stroke-linejoin="round" stroke-miterlimit="11.3386" x1="67.147" y1="156.1" x2="67.147" y2="188.235"/>
	
		<line fill="none" stroke="#00B200" stroke-linecap="round" stroke-linejoin="round" stroke-miterlimit="11.3386" x1="67.147" y1="37.55" x2="67.147" y2="71.161"/>
	<g enable-background="new    ">
		<path fill="#C90D0C" d="M69.949,105.476c-0.746,0.021-1.175,0.351-1.717,1.88l-4.143,11.632h-0.28l-4.554-11.239
			c-0.802-2.004-1.083-2.252-2.016-2.272v-0.393h4.945v0.393l-0.522,0.042c-0.597,0.041-0.84,0.227-0.84,0.64
			c0,0.331,0.168,0.827,0.728,2.211l2.836,7.066l2.743-7.624c0.224-0.62,0.355-1.136,0.355-1.487c0-0.806-0.597-0.765-1.344-0.847
			v-0.393h3.807V105.476z"/>
		<path fill="#C90D0C" d="M71.698,125.638v-0.181c0.805-0.048,1.034-0.301,1.034-0.963v-5.406c0-0.409-0.098-0.59-0.327-0.59
			c-0.108,0-0.293,0.06-0.489,0.145l-0.294,0.12v-0.168l1.948-1.096l0.098,0.036v7.188c0,0.518,0.218,0.734,1.034,0.734v0.181
			H71.698z"/>
	</g>
</g>
<g id="solenoid">
	
		<circle fill="none" stroke="#0000FF" stroke-linecap="round" stroke-linejoin="round" stroke-miterlimit="11.3386" cx="230.164" cy="114.687" r="30.796"/>
	<circle opacity="0.05" fill="#0000FF" cx="230.164" cy="114.687" r="30.796"/>
	<g>
		<path fill="#FF0000" d="M212.063,108.568c3.792,0,5.675,1.326,5.675,3.9c0,1.404-0.764,2.314-1.746,2.938
			c-0.846,0.546-1.855,0.78-3.029,1.014v0.026c2.347,0.676,3.438,2.054,3.438,3.9c0,3.484-3.083,5.2-7.503,5.2h-7.421v-0.416
			c1.5-0.208,1.801-0.468,2.265-2.08l3.301-11.336c0.191-0.65,0.3-1.274,0.3-1.664c0-0.754-0.382-0.936-2.101-1.066v-0.416H212.063z
			 M207.315,120.034c-0.545,1.976-0.955,3.302-0.955,3.64c0,0.728,0.682,1.092,1.828,1.092c3.138,0,5.266-1.534,5.266-4.42
			c0-1.612-0.791-2.756-1.828-3.094c-0.546-0.182-1.719-0.312-3.438-0.312L207.315,120.034z M209.498,116.108
			c3.574,0,5.484-1.378,5.484-3.952c0-1.924-0.982-2.808-3.192-2.808c-1.064,0-1.337,0-1.61,0.936l-1.719,5.824H209.498z"/>
	</g>
	<g>
		<path fill="#FF0000" d="M191.099,140.154v-0.27c1.303-0.072,1.492-0.234,1.492-1.603v-4.087c0-0.846-0.151-1.134-0.623-1.134
			c-0.17,0-0.454,0-0.793,0.09v-0.288l2.928-0.99l0.076,0.072v6.32c0,1.333,0.151,1.53,1.398,1.621v0.27H191.099z M193.215,129.693
			c-0.529,0-0.944-0.396-0.944-0.918c0-0.504,0.434-0.918,0.963-0.918c0.548,0,0.963,0.414,0.963,0.918
			C194.197,129.297,193.781,129.693,193.215,129.693z"/>
		<path fill="#FF0000" d="M201.28,140.154l0.019-0.27c0.945-0.072,1.171-0.432,1.171-1.621v-3.583c0-1.278-0.454-1.818-1.379-1.818
			c-0.624,0-1.077,0.216-1.946,1.026v4.969c0,0.702,0.264,0.954,1.228,1.026v0.27h-3.986v-0.27c0.963-0.072,1.171-0.36,1.171-1.422
			v-4.375c0-0.882-0.132-1.17-0.661-1.17c-0.208,0-0.416,0.018-0.548,0.072v-0.306c1.039-0.288,1.663-0.486,2.588-0.81l0.151,0.054
			v1.404h0.019c0.982-1.062,1.852-1.458,2.72-1.458c1.436,0,2.229,0.99,2.229,2.772v3.979c0,0.972,0.227,1.17,1.152,1.26v0.27
			H201.28z"/>
		<path fill="#FF0000" d="M213.276,137.507c-0.604,1.117-0.982,1.639-1.549,2.071c-0.643,0.504-1.36,0.756-2.172,0.756
			c-2.097,0-3.589-1.675-3.589-3.998c0-1.494,0.567-2.736,1.587-3.547c0.755-0.594,1.662-0.918,2.55-0.918
			c1.586,0,2.909,0.846,2.909,1.854c0,0.414-0.397,0.756-0.888,0.756c-0.416,0-0.755-0.306-0.907-0.828l-0.113-0.396
			c-0.189-0.667-0.435-0.864-1.114-0.864c-1.53,0-2.569,1.26-2.569,3.133c0,2.071,1.19,3.511,2.928,3.511
			c1.077,0,1.757-0.432,2.664-1.692L213.276,137.507z"/>
		<path fill="#FF0000" d="M216.902,133.565c0.944-1.296,1.474-1.692,2.267-1.692c0.642,0,1.039,0.36,1.039,0.954
			c0,0.504-0.283,0.81-0.737,0.81c-0.245,0-0.453-0.09-0.755-0.36c-0.208-0.18-0.378-0.27-0.491-0.27
			c-0.529,0-1.322,0.9-1.322,1.476v4.051c0,1.026,0.321,1.296,1.605,1.351v0.27h-4.534v-0.27c1.209-0.216,1.341-0.342,1.341-1.243
			v-4.501c0-0.792-0.17-1.081-0.642-1.081c-0.227,0-0.397,0.018-0.661,0.072v-0.288c1.114-0.342,1.794-0.594,2.796-0.972
			l0.094,0.036V133.565z"/>
		<path fill="#FF0000" d="M228.142,137.328c-0.737,1.962-2.059,3.007-3.948,3.007c-2.229,0-3.589-1.603-3.589-4.087
			c0-2.539,1.53-4.375,3.911-4.375c1.171,0,2.021,0.432,2.625,1.242c0.378,0.504,0.567,1.08,0.642,2.053h-5.818
			c0.094,1.368,0.189,2.07,0.869,2.935c0.529,0.667,1.228,0.99,2.097,0.99c1.266,0,1.983-0.558,2.909-1.891L228.142,137.328z
			 M225.856,134.591c-0.208-1.458-0.604-2.071-1.851-2.071c-1.058,0-1.794,0.72-2.002,2.071H225.856z"/>
		<path fill="#FF0000" d="M236.868,139.47c-0.567,0.684-1.058,0.864-1.7,0.864c-0.699,0-1.115-0.36-1.209-1.314h-0.019
			c-1.001,1.08-1.927,1.314-2.739,1.314c-1.171,0-1.984-0.684-1.984-1.873c0-0.937,0.586-1.639,1.323-2.107
			c0.566-0.36,1.266-0.702,3.4-1.458v-0.972c0-1.116-0.623-1.621-1.473-1.621c-0.756,0-1.322,0.396-1.322,0.882
			c0,0.324,0.113,0.378,0.113,0.756c0,0.342-0.378,0.738-0.869,0.738c-0.396,0-0.812-0.342-0.812-0.828
			c0-0.468,0.303-1.044,0.964-1.44c0.529-0.324,1.322-0.54,2.172-0.54c1.058,0,1.775,0.288,2.229,0.81
			c0.453,0.522,0.529,0.9,0.529,1.999v3.439c0,0.828,0.246,1.188,0.585,1.188c0.302,0,0.491-0.09,0.812-0.342V139.47z
			 M233.94,135.329c-1.171,0.396-1.946,0.774-2.418,1.188c-0.453,0.396-0.642,0.829-0.642,1.387c0,0.954,0.567,1.386,1.303,1.386
			c0.378,0,0.775-0.09,1.096-0.288c0.548-0.36,0.661-0.612,0.661-1.134V135.329z"/>
		<path fill="#FF0000" d="M241.817,135.869c1.209,0.702,1.662,1.188,1.662,2.214c0,1.207-1.209,2.251-2.645,2.251
			c-0.396,0-0.944-0.018-1.379-0.162c-0.454-0.144-0.661-0.162-0.869-0.162c-0.227,0-0.34,0.036-0.453,0.216h-0.246V137.4h0.302
			c0.396,1.747,1.096,2.539,2.399,2.539c0.963,0,1.568-0.594,1.568-1.333c0-0.558-0.378-1.026-1.001-1.351l-1.02-0.54
			c-1.568-0.828-2.267-1.692-2.267-2.611c0-1.422,1.058-2.215,2.607-2.215c0.453,0,0.869,0.018,1.266,0.198
			c0.208,0.09,0.396,0.144,0.529,0.144c0.076,0,0.151-0.018,0.302-0.18h0.208l0.094,2.449h-0.283
			c-0.435-1.621-1.001-2.214-2.135-2.214c-0.812,0-1.417,0.378-1.417,1.224c0,0.396,0.283,0.918,0.812,1.225L241.817,135.869z"/>
		<path fill="#FF0000" d="M244.555,140.154v-0.27c1.303-0.072,1.492-0.234,1.492-1.603v-4.087c0-0.846-0.151-1.134-0.623-1.134
			c-0.17,0-0.454,0-0.793,0.09v-0.288l2.928-0.99l0.076,0.072v6.32c0,1.333,0.151,1.53,1.398,1.621v0.27H244.555z M246.671,129.693
			c-0.529,0-0.944-0.396-0.944-0.918c0-0.504,0.434-0.918,0.963-0.918c0.548,0,0.963,0.414,0.963,0.918
			C247.654,129.297,247.238,129.693,246.671,129.693z"/>
		<path fill="#FF0000" d="M254.737,140.154l0.019-0.27c0.944-0.072,1.171-0.432,1.171-1.621v-3.583c0-1.278-0.454-1.818-1.379-1.818
			c-0.624,0-1.077,0.216-1.946,1.026v4.969c0,0.702,0.264,0.954,1.228,1.026v0.27h-3.986v-0.27c0.963-0.072,1.171-0.36,1.171-1.422
			v-4.375c0-0.882-0.132-1.17-0.661-1.17c-0.208,0-0.416,0.018-0.548,0.072v-0.306c1.039-0.288,1.662-0.486,2.588-0.81l0.151,0.054
			v1.404h0.019c0.982-1.062,1.852-1.458,2.72-1.458c1.436,0,2.229,0.99,2.229,2.772v3.979c0,0.972,0.227,1.17,1.152,1.26v0.27
			H254.737z"/>
		<path fill="#FF0000" d="M266.26,133.168c0.265,0.576,0.359,0.991,0.359,1.513c0,0.937-0.302,1.603-0.982,2.089
			c-0.604,0.432-1.303,0.702-1.964,0.702c-0.113,0-0.378-0.018-0.718-0.054l-0.359-0.036c-0.51,0.144-1.134,0.774-1.134,1.134
			c0,0.288,0.454,0.432,1.474,0.486l2.437,0.108c1.398,0.054,2.286,0.811,2.286,1.927c0,0.72-0.359,1.314-1.133,1.891
			c-0.982,0.72-2.418,1.152-3.778,1.152c-1.813,0-3.268-0.792-3.268-1.747c0-0.666,0.491-1.26,1.852-2.197
			c-0.793-0.36-1.001-0.558-1.001-0.954c0-0.36,0.246-0.72,0.869-1.243c0.283-0.234,0.548-0.468,0.812-0.72
			c-1.266-0.594-1.757-1.278-1.757-2.413c0-1.639,1.398-2.935,3.155-2.935c0.491,0,1.001,0.09,1.511,0.27l0.416,0.144
			c0.378,0.126,0.661,0.18,1.039,0.18h1.455v0.702H266.26z M264.786,140.424c-0.925,0-2.418-0.108-3.06-0.234
			c-0.755,0.864-0.926,1.134-0.926,1.548c0,0.792,1.077,1.314,2.739,1.314c2.153,0,3.589-0.702,3.589-1.747
			C267.129,140.641,266.506,140.424,264.786,140.424z M261.821,134.123c0,1.729,0.775,2.899,1.946,2.899
			c0.85,0,1.398-0.63,1.398-1.621c0-0.738-0.208-1.548-0.566-2.179c-0.302-0.54-0.793-0.846-1.379-0.846
			c-0.869,0-1.398,0.63-1.398,1.692V134.123z"/>
	</g>
	<g>
		<g>
			<line fill="none" stroke="#FF0000" stroke-width="0.9" x1="207.085" y1="103.473" x2="216.132" y2="103.473"/>
			<g>
				<polygon fill="#FF0000" points="213.15,107.154 212.536,106.495 215.786,103.474 212.536,100.452 213.15,99.793 
					217.108,103.474 				"/>
			</g>
		</g>
	</g>
	<circle opacity="0.33" fill="#FFFFFF" cx="230.164" cy="114.687" r="7.391"/>
	<circle fill="none" stroke="#FF0000" stroke-width="1.5" cx="230.164" cy="114.687" r="7.391"/>
	<circle fill="#FF0000" stroke="#FF0000" stroke-width="0.7391" cx="230.164" cy="114.687" r="0.739"/>
	<g>
	</g>
	<g>
	</g>
</g>
</svg>
