<?xml version="1.0" encoding="utf-8"?>
<!-- Generator: Adobe Illustrator 26.0.1, SVG Export Plug-In . SVG Version: 6.00 Build 0)  -->
<svg version="1.1" xmlns="http://www.w3.org/2000/svg" xmlns:xlink="http://www.w3.org/1999/xlink" x="0px" y="0px"
	 viewBox="0 0 382.233 205.252" enable-background="new 0 0 382.233 205.252" xml:space="preserve">
<g id="grid" opacity="0.5">
	<g id="Clipped_grid">
		<defs>
			<rect id="SVGID_1_" x="-40.46" y="-7.215" width="431.38" height="216.447"/>
		</defs>
		<clipPath id="SVGID_00000142175138608431541810000000370873157356675972_">
			<use xlink:href="#SVGID_1_"  overflow="visible"/>
		</clipPath>
		
			<g id="Grid_00000060005542146034257920000005065612243763103930_" opacity="0.25" clip-path="url(#SVGID_00000142175138608431541810000000370873157356675972_)">
			<g id="Horizontal_1_mm">
				
					<line fill="none" stroke="#00ABEB" stroke-width="0.2111" stroke-miterlimit="10" x1="-23.631" y1="-201.645" x2="778.327" y2="-201.645"/>
				
					<line fill="none" stroke="#00ABEB" stroke-width="0.2111" stroke-miterlimit="10" x1="-23.631" y1="-211.668" x2="778.327" y2="-211.668"/>
				
					<line fill="none" stroke="#00ABEB" stroke-width="0.2111" stroke-miterlimit="10" x1="-23.631" y1="389.619" x2="778.327" y2="389.619"/>
				
					<line fill="none" stroke="#00ABEB" stroke-width="0.2111" stroke-miterlimit="10" x1="-23.631" y1="379.596" x2="778.327" y2="379.596"/>
				
					<line fill="none" stroke="#00ABEB" stroke-width="0.2111" stroke-miterlimit="10" x1="-23.631" y1="369.577" x2="778.327" y2="369.577"/>
				
					<line fill="none" stroke="#00ABEB" stroke-width="0.2111" stroke-miterlimit="10" x1="-23.631" y1="359.555" x2="778.327" y2="359.555"/>
				
					<line fill="none" stroke="#00ABEB" stroke-width="0.2111" stroke-miterlimit="10" x1="-23.631" y1="349.532" x2="778.327" y2="349.532"/>
				
					<line fill="none" stroke="#00ABEB" stroke-width="0.2111" stroke-miterlimit="10" x1="-23.631" y1="339.513" x2="778.327" y2="339.513"/>
				
					<line fill="none" stroke="#00ABEB" stroke-width="0.2111" stroke-miterlimit="10" x1="-23.631" y1="329.491" x2="778.327" y2="329.491"/>
				
					<line fill="none" stroke="#00ABEB" stroke-width="0.2111" stroke-miterlimit="10" x1="-23.631" y1="319.472" x2="778.327" y2="319.472"/>
				
					<line fill="none" stroke="#00ABEB" stroke-width="0.2111" stroke-miterlimit="10" x1="-23.631" y1="309.447" x2="778.327" y2="309.447"/>
				
					<line fill="none" stroke="#00ABEB" stroke-width="0.2111" stroke-miterlimit="10" x1="-23.631" y1="299.425" x2="778.327" y2="299.425"/>
				
					<line fill="none" stroke="#00ABEB" stroke-width="0.2111" stroke-miterlimit="10" x1="-23.631" y1="289.406" x2="778.327" y2="289.406"/>
				
					<line fill="none" stroke="#00ABEB" stroke-width="0.2111" stroke-miterlimit="10" x1="-23.631" y1="279.383" x2="778.327" y2="279.383"/>
				
					<line fill="none" stroke="#00ABEB" stroke-width="0.2111" stroke-miterlimit="10" x1="-23.631" y1="269.361" x2="778.327" y2="269.361"/>
				
					<line fill="none" stroke="#00ABEB" stroke-width="0.2111" stroke-miterlimit="10" x1="-23.631" y1="259.341" x2="778.327" y2="259.341"/>
				
					<line fill="none" stroke="#00ABEB" stroke-width="0.2111" stroke-miterlimit="10" x1="-23.631" y1="249.319" x2="778.327" y2="249.319"/>
				
					<line fill="none" stroke="#00ABEB" stroke-width="0.2111" stroke-miterlimit="10" x1="-23.631" y1="239.296" x2="778.327" y2="239.296"/>
				
					<line fill="none" stroke="#00ABEB" stroke-width="0.2111" stroke-miterlimit="10" x1="-23.631" y1="229.277" x2="778.327" y2="229.277"/>
				
					<line fill="none" stroke="#00ABEB" stroke-width="0.2111" stroke-miterlimit="10" x1="-23.631" y1="219.255" x2="778.327" y2="219.255"/>
				
					<line fill="none" stroke="#00ABEB" stroke-width="0.2111" stroke-miterlimit="10" x1="-23.631" y1="209.232" x2="778.327" y2="209.232"/>
				
					<line fill="none" stroke="#00ABEB" stroke-width="0.2111" stroke-miterlimit="10" x1="-23.631" y1="199.213" x2="778.327" y2="199.213"/>
				
					<line fill="none" stroke="#00ABEB" stroke-width="0.2111" stroke-miterlimit="10" x1="-23.631" y1="189.19" x2="778.327" y2="189.19"/>
				
					<line fill="none" stroke="#00ABEB" stroke-width="0.2111" stroke-miterlimit="10" x1="-23.631" y1="179.166" x2="778.327" y2="179.166"/>
				
					<line fill="none" stroke="#00ABEB" stroke-width="0.2111" stroke-miterlimit="10" x1="-23.631" y1="169.147" x2="778.327" y2="169.147"/>
				
					<line fill="none" stroke="#00ABEB" stroke-width="0.2111" stroke-miterlimit="10" x1="-23.631" y1="159.125" x2="778.327" y2="159.125"/>
				
					<line fill="none" stroke="#00ABEB" stroke-width="0.2111" stroke-miterlimit="10" x1="-23.631" y1="149.105" x2="778.327" y2="149.105"/>
				
					<line fill="none" stroke="#00ABEB" stroke-width="0.2111" stroke-miterlimit="10" x1="-23.631" y1="139.083" x2="778.327" y2="139.083"/>
				
					<line fill="none" stroke="#00ABEB" stroke-width="0.2111" stroke-miterlimit="10" x1="-23.631" y1="129.06" x2="778.327" y2="129.06"/>
				
					<line fill="none" stroke="#00ABEB" stroke-width="0.2111" stroke-miterlimit="10" x1="-23.631" y1="119.041" x2="778.327" y2="119.041"/>
				
					<line fill="none" stroke="#00ABEB" stroke-width="0.2111" stroke-miterlimit="10" x1="-23.631" y1="109.019" x2="778.327" y2="109.019"/>
				
					<line fill="none" stroke="#00ABEB" stroke-width="0.2111" stroke-miterlimit="10" x1="-23.631" y1="98.996" x2="778.327" y2="98.996"/>
				
					<line fill="none" stroke="#00ABEB" stroke-width="0.2111" stroke-miterlimit="10" x1="-23.631" y1="88.977" x2="778.327" y2="88.977"/>
				
					<line fill="none" stroke="#00ABEB" stroke-width="0.2111" stroke-miterlimit="10" x1="-23.631" y1="78.955" x2="778.327" y2="78.955"/>
				
					<line fill="none" stroke="#00ABEB" stroke-width="0.2111" stroke-miterlimit="10" x1="-23.631" y1="68.932" x2="778.327" y2="68.932"/>
				
					<line fill="none" stroke="#00ABEB" stroke-width="0.2111" stroke-miterlimit="10" x1="-23.631" y1="58.913" x2="778.327" y2="58.913"/>
				
					<line fill="none" stroke="#00ABEB" stroke-width="0.2111" stroke-miterlimit="10" x1="-23.631" y1="48.89" x2="778.327" y2="48.89"/>
				
					<line fill="none" stroke="#00ABEB" stroke-width="0.2111" stroke-miterlimit="10" x1="-23.631" y1="38.868" x2="778.327" y2="38.868"/>
				
					<line fill="none" stroke="#00ABEB" stroke-width="0.2111" stroke-miterlimit="10" x1="-23.631" y1="28.849" x2="778.327" y2="28.849"/>
				
					<line fill="none" stroke="#00ABEB" stroke-width="0.2111" stroke-miterlimit="10" x1="-23.631" y1="18.826" x2="778.327" y2="18.826"/>
				
					<line fill="none" stroke="#00ABEB" stroke-width="0.2111" stroke-miterlimit="10" x1="-23.631" y1="8.804" x2="778.327" y2="8.804"/>
				
					<line fill="none" stroke="#00ABEB" stroke-width="0.2111" stroke-miterlimit="10" x1="-23.631" y1="-1.215" x2="778.327" y2="-1.215"/>
				
					<line fill="none" stroke="#00ABEB" stroke-width="0.2111" stroke-miterlimit="10" x1="-23.631" y1="-11.24" x2="778.327" y2="-11.24"/>
				
					<line fill="none" stroke="#00ABEB" stroke-width="0.2111" stroke-miterlimit="10" x1="-23.631" y1="-21.259" x2="778.327" y2="-21.259"/>
				
					<line fill="none" stroke="#00ABEB" stroke-width="0.2111" stroke-miterlimit="10" x1="-23.631" y1="-31.281" x2="778.327" y2="-31.281"/>
				
					<line fill="none" stroke="#00ABEB" stroke-width="0.2111" stroke-miterlimit="10" x1="-23.631" y1="-41.304" x2="778.327" y2="-41.304"/>
				
					<line fill="none" stroke="#00ABEB" stroke-width="0.2111" stroke-miterlimit="10" x1="-23.631" y1="-51.323" x2="778.327" y2="-51.323"/>
				
					<line fill="none" stroke="#00ABEB" stroke-width="0.2111" stroke-miterlimit="10" x1="-23.631" y1="-61.345" x2="778.327" y2="-61.345"/>
				
					<line fill="none" stroke="#00ABEB" stroke-width="0.2111" stroke-miterlimit="10" x1="-23.631" y1="-71.368" x2="778.327" y2="-71.368"/>
				
					<line fill="none" stroke="#00ABEB" stroke-width="0.2111" stroke-miterlimit="10" x1="-23.631" y1="-81.387" x2="778.327" y2="-81.387"/>
				
					<line fill="none" stroke="#00ABEB" stroke-width="0.2111" stroke-miterlimit="10" x1="-23.631" y1="-91.41" x2="778.327" y2="-91.41"/>
				
					<line fill="none" stroke="#00ABEB" stroke-width="0.2111" stroke-miterlimit="10" x1="-23.631" y1="-101.432" x2="778.327" y2="-101.432"/>
				
					<line fill="none" stroke="#00ABEB" stroke-width="0.2111" stroke-miterlimit="10" x1="-23.631" y1="-111.451" x2="778.327" y2="-111.451"/>
				
					<line fill="none" stroke="#00ABEB" stroke-width="0.2111" stroke-miterlimit="10" x1="-23.631" y1="-121.474" x2="778.327" y2="-121.474"/>
				
					<line fill="none" stroke="#00ABEB" stroke-width="0.2111" stroke-miterlimit="10" x1="-23.631" y1="-131.496" x2="778.327" y2="-131.496"/>
				
					<line fill="none" stroke="#00ABEB" stroke-width="0.2111" stroke-miterlimit="10" x1="-23.631" y1="-141.516" x2="778.327" y2="-141.516"/>
				
					<line fill="none" stroke="#00ABEB" stroke-width="0.2111" stroke-miterlimit="10" x1="-23.631" y1="-151.54" x2="778.327" y2="-151.54"/>
				
					<line fill="none" stroke="#00ABEB" stroke-width="0.2111" stroke-miterlimit="10" x1="-23.631" y1="-161.559" x2="778.327" y2="-161.559"/>
				
					<line fill="none" stroke="#00ABEB" stroke-width="0.2111" stroke-miterlimit="10" x1="-23.631" y1="-171.581" x2="778.327" y2="-171.581"/>
				
					<line fill="none" stroke="#00ABEB" stroke-width="0.2111" stroke-miterlimit="10" x1="-23.631" y1="-181.604" x2="778.327" y2="-181.604"/>
				
					<line fill="none" stroke="#00ABEB" stroke-width="0.2111" stroke-miterlimit="10" x1="-23.631" y1="-191.623" x2="778.327" y2="-191.623"/>
			</g>
			<g id="Vertical_1_mm">
				<g>
					
						<line fill="none" stroke="#00ABEB" stroke-width="0.2111" stroke-miterlimit="10" x1="-23.366" y1="389.57" x2="-23.366" y2="-211.934"/>
				</g>
				
					<line fill="none" stroke="#00ABEB" stroke-width="0.2111" stroke-miterlimit="10" x1="-13.347" y1="389.57" x2="-13.347" y2="-211.934"/>
				
					<line fill="none" stroke="#00ABEB" stroke-width="0.2111" stroke-miterlimit="10" x1="-3.324" y1="389.57" x2="-3.324" y2="-211.934"/>
				
					<line fill="none" stroke="#00ABEB" stroke-width="0.2111" stroke-miterlimit="10" x1="6.699" y1="389.57" x2="6.699" y2="-211.934"/>
				
					<line fill="none" stroke="#00ABEB" stroke-width="0.2111" stroke-miterlimit="10" x1="16.718" y1="389.57" x2="16.718" y2="-211.934"/>
				
					<line fill="none" stroke="#00ABEB" stroke-width="0.2111" stroke-miterlimit="10" x1="26.74" y1="389.57" x2="26.74" y2="-211.934"/>
				
					<line fill="none" stroke="#00ABEB" stroke-width="0.2111" stroke-miterlimit="10" x1="36.763" y1="389.57" x2="36.763" y2="-211.934"/>
				
					<line fill="none" stroke="#00ABEB" stroke-width="0.2111" stroke-miterlimit="10" x1="46.782" y1="389.57" x2="46.782" y2="-211.934"/>
				
					<line fill="none" stroke="#00ABEB" stroke-width="0.2111" stroke-miterlimit="10" x1="56.806" y1="389.57" x2="56.806" y2="-211.934"/>
				
					<line fill="none" stroke="#00ABEB" stroke-width="0.2111" stroke-miterlimit="10" x1="66.825" y1="389.57" x2="66.825" y2="-211.934"/>
				
					<line fill="none" stroke="#00ABEB" stroke-width="0.2111" stroke-miterlimit="10" x1="76.848" y1="389.57" x2="76.848" y2="-211.934"/>
				
					<line fill="none" stroke="#00ABEB" stroke-width="0.2111" stroke-miterlimit="10" x1="86.87" y1="389.57" x2="86.87" y2="-211.934"/>
				
					<line fill="none" stroke="#00ABEB" stroke-width="0.2111" stroke-miterlimit="10" x1="96.889" y1="389.57" x2="96.889" y2="-211.934"/>
				
					<line fill="none" stroke="#00ABEB" stroke-width="0.2111" stroke-miterlimit="10" x1="106.912" y1="389.57" x2="106.912" y2="-211.934"/>
				
					<line fill="none" stroke="#00ABEB" stroke-width="0.2111" stroke-miterlimit="10" x1="116.934" y1="389.57" x2="116.934" y2="-211.934"/>
				
					<line fill="none" stroke="#00ABEB" stroke-width="0.2111" stroke-miterlimit="10" x1="126.954" y1="389.57" x2="126.954" y2="-211.934"/>
				
					<line fill="none" stroke="#00ABEB" stroke-width="0.2111" stroke-miterlimit="10" x1="136.976" y1="389.57" x2="136.976" y2="-211.934"/>
				
					<line fill="none" stroke="#00ABEB" stroke-width="0.2111" stroke-miterlimit="10" x1="146.999" y1="389.57" x2="146.999" y2="-211.934"/>
				
					<line fill="none" stroke="#00ABEB" stroke-width="0.2111" stroke-miterlimit="10" x1="157.018" y1="389.57" x2="157.018" y2="-211.934"/>
				
					<line fill="none" stroke="#00ABEB" stroke-width="0.2111" stroke-miterlimit="10" x1="167.04" y1="389.57" x2="167.04" y2="-211.934"/>
				
					<line fill="none" stroke="#00ABEB" stroke-width="0.2111" stroke-miterlimit="10" x1="177.063" y1="389.57" x2="177.063" y2="-211.934"/>
				
					<line fill="none" stroke="#00ABEB" stroke-width="0.2111" stroke-miterlimit="10" x1="187.082" y1="389.57" x2="187.082" y2="-211.934"/>
				
					<line fill="none" stroke="#00ABEB" stroke-width="0.2111" stroke-miterlimit="10" x1="197.105" y1="389.57" x2="197.105" y2="-211.934"/>
				
					<line fill="none" stroke="#00ABEB" stroke-width="0.2111" stroke-miterlimit="10" x1="207.127" y1="389.57" x2="207.127" y2="-211.934"/>
				
					<line fill="none" stroke="#00ABEB" stroke-width="0.2111" stroke-miterlimit="10" x1="217.148" y1="389.57" x2="217.148" y2="-211.934"/>
				
					<line fill="none" stroke="#00ABEB" stroke-width="0.2111" stroke-miterlimit="10" x1="227.17" y1="389.57" x2="227.17" y2="-211.934"/>
				
					<line fill="none" stroke="#00ABEB" stroke-width="0.2111" stroke-miterlimit="10" x1="237.189" y1="389.57" x2="237.189" y2="-211.934"/>
				
					<line fill="none" stroke="#00ABEB" stroke-width="0.2111" stroke-miterlimit="10" x1="247.212" y1="389.57" x2="247.212" y2="-211.934"/>
				
					<line fill="none" stroke="#00ABEB" stroke-width="0.2111" stroke-miterlimit="10" x1="257.235" y1="389.57" x2="257.235" y2="-211.934"/>
				
					<line fill="none" stroke="#00ABEB" stroke-width="0.2111" stroke-miterlimit="10" x1="267.253" y1="389.57" x2="267.253" y2="-211.934"/>
				
					<line fill="none" stroke="#00ABEB" stroke-width="0.2111" stroke-miterlimit="10" x1="277.276" y1="389.57" x2="277.276" y2="-211.934"/>
				
					<line fill="none" stroke="#00ABEB" stroke-width="0.2111" stroke-miterlimit="10" x1="287.299" y1="389.57" x2="287.299" y2="-211.934"/>
				
					<line fill="none" stroke="#00ABEB" stroke-width="0.2111" stroke-miterlimit="10" x1="297.318" y1="389.57" x2="297.318" y2="-211.934"/>
				
					<line fill="none" stroke="#00ABEB" stroke-width="0.2111" stroke-miterlimit="10" x1="307.34" y1="389.57" x2="307.34" y2="-211.934"/>
				
					<line fill="none" stroke="#00ABEB" stroke-width="0.2111" stroke-miterlimit="10" x1="317.363" y1="389.57" x2="317.363" y2="-211.934"/>
				
					<line fill="none" stroke="#00ABEB" stroke-width="0.2111" stroke-miterlimit="10" x1="327.382" y1="389.57" x2="327.382" y2="-211.934"/>
				
					<line fill="none" stroke="#00ABEB" stroke-width="0.2111" stroke-miterlimit="10" x1="337.404" y1="389.57" x2="337.404" y2="-211.934"/>
				
					<line fill="none" stroke="#00ABEB" stroke-width="0.2111" stroke-miterlimit="10" x1="347.427" y1="389.57" x2="347.427" y2="-211.934"/>
				
					<line fill="none" stroke="#00ABEB" stroke-width="0.2111" stroke-miterlimit="10" x1="357.446" y1="389.57" x2="357.446" y2="-211.934"/>
				
					<line fill="none" stroke="#00ABEB" stroke-width="0.2111" stroke-miterlimit="10" x1="367.469" y1="389.57" x2="367.469" y2="-211.934"/>
				
					<line fill="none" stroke="#00ABEB" stroke-width="0.2111" stroke-miterlimit="10" x1="377.488" y1="389.57" x2="377.488" y2="-211.934"/>
				
					<line fill="none" stroke="#00ABEB" stroke-width="0.2111" stroke-miterlimit="10" x1="387.512" y1="389.57" x2="387.512" y2="-211.934"/>
				
					<line fill="none" stroke="#00ABEB" stroke-width="0.2111" stroke-miterlimit="10" x1="397.534" y1="389.57" x2="397.534" y2="-211.934"/>
				
					<line fill="none" stroke="#00ABEB" stroke-width="0.2111" stroke-miterlimit="10" x1="407.554" y1="389.57" x2="407.554" y2="-211.934"/>
				
					<line fill="none" stroke="#00ABEB" stroke-width="0.2111" stroke-miterlimit="10" x1="417.576" y1="389.57" x2="417.576" y2="-211.934"/>
				
					<line fill="none" stroke="#00ABEB" stroke-width="0.2111" stroke-miterlimit="10" x1="427.599" y1="389.57" x2="427.599" y2="-211.934"/>
				
					<line fill="none" stroke="#00ABEB" stroke-width="0.2111" stroke-miterlimit="10" x1="437.618" y1="389.57" x2="437.618" y2="-211.934"/>
				
					<line fill="none" stroke="#00ABEB" stroke-width="0.2111" stroke-miterlimit="10" x1="447.64" y1="389.57" x2="447.64" y2="-211.934"/>
				
					<line fill="none" stroke="#00ABEB" stroke-width="0.2111" stroke-miterlimit="10" x1="457.663" y1="389.57" x2="457.663" y2="-211.934"/>
				
					<line fill="none" stroke="#00ABEB" stroke-width="0.2111" stroke-miterlimit="10" x1="467.682" y1="389.57" x2="467.682" y2="-211.934"/>
				
					<line fill="none" stroke="#00ABEB" stroke-width="0.2111" stroke-miterlimit="10" x1="477.705" y1="389.57" x2="477.705" y2="-211.934"/>
				
					<line fill="none" stroke="#00ABEB" stroke-width="0.2111" stroke-miterlimit="10" x1="487.727" y1="389.57" x2="487.727" y2="-211.934"/>
				
					<line fill="none" stroke="#00ABEB" stroke-width="0.2111" stroke-miterlimit="10" x1="497.746" y1="389.57" x2="497.746" y2="-211.934"/>
				
					<line fill="none" stroke="#00ABEB" stroke-width="0.2111" stroke-miterlimit="10" x1="507.769" y1="389.57" x2="507.769" y2="-211.934"/>
				
					<line fill="none" stroke="#00ABEB" stroke-width="0.2111" stroke-miterlimit="10" x1="517.791" y1="389.57" x2="517.791" y2="-211.934"/>
				
					<line fill="none" stroke="#00ABEB" stroke-width="0.2111" stroke-miterlimit="10" x1="527.81" y1="389.57" x2="527.81" y2="-211.934"/>
				
					<line fill="none" stroke="#00ABEB" stroke-width="0.2111" stroke-miterlimit="10" x1="537.835" y1="389.57" x2="537.835" y2="-211.934"/>
				
					<line fill="none" stroke="#00ABEB" stroke-width="0.2111" stroke-miterlimit="10" x1="547.854" y1="389.57" x2="547.854" y2="-211.934"/>
				
					<line fill="none" stroke="#00ABEB" stroke-width="0.2111" stroke-miterlimit="10" x1="557.876" y1="389.57" x2="557.876" y2="-211.934"/>
				
					<line fill="none" stroke="#00ABEB" stroke-width="0.2111" stroke-miterlimit="10" x1="567.899" y1="389.57" x2="567.899" y2="-211.934"/>
				
					<line fill="none" stroke="#00ABEB" stroke-width="0.2111" stroke-miterlimit="10" x1="577.918" y1="389.57" x2="577.918" y2="-211.934"/>
				
					<line fill="none" stroke="#00ABEB" stroke-width="0.2111" stroke-miterlimit="10" x1="587.94" y1="389.57" x2="587.94" y2="-211.934"/>
				
					<line fill="none" stroke="#00ABEB" stroke-width="0.2111" stroke-miterlimit="10" x1="597.963" y1="389.57" x2="597.963" y2="-211.934"/>
				
					<line fill="none" stroke="#00ABEB" stroke-width="0.2111" stroke-miterlimit="10" x1="607.982" y1="389.57" x2="607.982" y2="-211.934"/>
				
					<line fill="none" stroke="#00ABEB" stroke-width="0.2111" stroke-miterlimit="10" x1="618.004" y1="389.57" x2="618.004" y2="-211.934"/>
				
					<line fill="none" stroke="#00ABEB" stroke-width="0.2111" stroke-miterlimit="10" x1="628.027" y1="389.57" x2="628.027" y2="-211.934"/>
				
					<line fill="none" stroke="#00ABEB" stroke-width="0.2111" stroke-miterlimit="10" x1="638.046" y1="389.57" x2="638.046" y2="-211.934"/>
				
					<line fill="none" stroke="#00ABEB" stroke-width="0.2111" stroke-miterlimit="10" x1="648.069" y1="389.57" x2="648.069" y2="-211.934"/>
				
					<line fill="none" stroke="#00ABEB" stroke-width="0.2111" stroke-miterlimit="10" x1="658.091" y1="389.57" x2="658.091" y2="-211.934"/>
				
					<line fill="none" stroke="#00ABEB" stroke-width="0.2111" stroke-miterlimit="10" x1="668.11" y1="389.57" x2="668.11" y2="-211.934"/>
				
					<line fill="none" stroke="#00ABEB" stroke-width="0.2111" stroke-miterlimit="10" x1="678.133" y1="389.57" x2="678.133" y2="-211.934"/>
				
					<line fill="none" stroke="#00ABEB" stroke-width="0.2111" stroke-miterlimit="10" x1="688.155" y1="389.57" x2="688.155" y2="-211.934"/>
				
					<line fill="none" stroke="#00ABEB" stroke-width="0.2111" stroke-miterlimit="10" x1="698.176" y1="389.57" x2="698.176" y2="-211.934"/>
				
					<line fill="none" stroke="#00ABEB" stroke-width="0.2111" stroke-miterlimit="10" x1="708.199" y1="389.57" x2="708.199" y2="-211.934"/>
				
					<line fill="none" stroke="#00ABEB" stroke-width="0.2111" stroke-miterlimit="10" x1="718.218" y1="389.57" x2="718.218" y2="-211.934"/>
				
					<line fill="none" stroke="#00ABEB" stroke-width="0.2111" stroke-miterlimit="10" x1="728.24" y1="389.57" x2="728.24" y2="-211.934"/>
				
					<line fill="none" stroke="#00ABEB" stroke-width="0.2111" stroke-miterlimit="10" x1="738.263" y1="389.57" x2="738.263" y2="-211.934"/>
				
					<line fill="none" stroke="#00ABEB" stroke-width="0.2111" stroke-miterlimit="10" x1="748.282" y1="389.57" x2="748.282" y2="-211.934"/>
				
					<line fill="none" stroke="#00ABEB" stroke-width="0.2111" stroke-miterlimit="10" x1="758.305" y1="389.57" x2="758.305" y2="-211.934"/>
				
					<line fill="none" stroke="#00ABEB" stroke-width="0.2111" stroke-miterlimit="10" x1="768.327" y1="389.57" x2="768.327" y2="-211.934"/>
				
					<line fill="none" stroke="#00ABEB" stroke-width="0.2111" stroke-miterlimit="10" x1="778.346" y1="389.57" x2="778.346" y2="-211.934"/>
			</g>
			<g id="Horizontal_5_mm_1_">
				
					<line fill="none" stroke="#00ABEB" stroke-width="0.4221" stroke-miterlimit="10" x1="-24.603" y1="389.619" x2="778.327" y2="389.619"/>
				
					<line fill="none" stroke="#00ABEB" stroke-width="0.4221" stroke-miterlimit="10" x1="-24.603" y1="339.513" x2="778.327" y2="339.513"/>
				
					<line fill="none" stroke="#00ABEB" stroke-width="0.4221" stroke-miterlimit="10" x1="-24.603" y1="289.406" x2="778.327" y2="289.406"/>
				
					<line fill="none" stroke="#00ABEB" stroke-width="0.4221" stroke-miterlimit="10" x1="-24.603" y1="239.296" x2="778.327" y2="239.296"/>
				
					<line fill="none" stroke="#00ABEB" stroke-width="0.4221" stroke-miterlimit="10" x1="-24.603" y1="189.19" x2="778.327" y2="189.19"/>
				
					<line fill="none" stroke="#00ABEB" stroke-width="0.4221" stroke-miterlimit="10" x1="-24.603" y1="139.083" x2="778.327" y2="139.083"/>
				
					<line fill="none" stroke="#00ABEB" stroke-width="0.4221" stroke-miterlimit="10" x1="-24.603" y1="88.977" x2="778.327" y2="88.977"/>
				
					<line fill="none" stroke="#00ABEB" stroke-width="0.4221" stroke-miterlimit="10" x1="-24.603" y1="38.868" x2="778.327" y2="38.868"/>
				
					<line fill="none" stroke="#00ABEB" stroke-width="0.4221" stroke-miterlimit="10" x1="-24.603" y1="-11.24" x2="778.327" y2="-11.24"/>
				
					<line fill="none" stroke="#00ABEB" stroke-width="0.4221" stroke-miterlimit="10" x1="-24.603" y1="-61.345" x2="778.327" y2="-61.345"/>
				
					<line fill="none" stroke="#00ABEB" stroke-width="0.4221" stroke-miterlimit="10" x1="-24.603" y1="-111.451" x2="778.327" y2="-111.451"/>
			</g>
			<g id="Vertical_5_mm">
				
					<line fill="none" stroke="#00ABEB" stroke-width="0.4221" stroke-miterlimit="10" x1="-23.366" y1="389.57" x2="-23.366" y2="-212.906"/>
				
					<line fill="none" stroke="#00ABEB" stroke-width="0.4221" stroke-miterlimit="10" x1="26.74" y1="389.57" x2="26.74" y2="-212.906"/>
				
					<line fill="none" stroke="#00ABEB" stroke-width="0.4221" stroke-miterlimit="10" x1="76.848" y1="389.57" x2="76.848" y2="-212.906"/>
				
					<line fill="none" stroke="#00ABEB" stroke-width="0.4221" stroke-miterlimit="10" x1="126.954" y1="389.57" x2="126.954" y2="-212.906"/>
				
					<line fill="none" stroke="#00ABEB" stroke-width="0.4221" stroke-miterlimit="10" x1="177.063" y1="389.57" x2="177.063" y2="-212.906"/>
				
					<line fill="none" stroke="#00ABEB" stroke-width="0.4221" stroke-miterlimit="10" x1="227.17" y1="389.57" x2="227.17" y2="-212.906"/>
				
					<line fill="none" stroke="#00ABEB" stroke-width="0.4221" stroke-miterlimit="10" x1="277.276" y1="389.57" x2="277.276" y2="-212.906"/>
				
					<line fill="none" stroke="#00ABEB" stroke-width="0.4221" stroke-miterlimit="10" x1="327.382" y1="389.57" x2="327.382" y2="-212.906"/>
				
					<line fill="none" stroke="#00ABEB" stroke-width="0.4221" stroke-miterlimit="10" x1="377.488" y1="389.57" x2="377.488" y2="-212.906"/>
				
					<line fill="none" stroke="#00ABEB" stroke-width="0.4221" stroke-miterlimit="10" x1="427.599" y1="389.57" x2="427.599" y2="-212.906"/>
				
					<line fill="none" stroke="#00ABEB" stroke-width="0.4221" stroke-miterlimit="10" x1="477.705" y1="389.57" x2="477.705" y2="-212.906"/>
				
					<line fill="none" stroke="#00ABEB" stroke-width="0.4221" stroke-miterlimit="10" x1="527.81" y1="389.57" x2="527.81" y2="-212.906"/>
				
					<line fill="none" stroke="#00ABEB" stroke-width="0.4221" stroke-miterlimit="10" x1="577.918" y1="389.57" x2="577.918" y2="-212.906"/>
				
					<line fill="none" stroke="#00ABEB" stroke-width="0.4221" stroke-miterlimit="10" x1="628.027" y1="389.57" x2="628.027" y2="-212.906"/>
				
					<line fill="none" stroke="#00ABEB" stroke-width="0.4221" stroke-miterlimit="10" x1="678.133" y1="389.57" x2="678.133" y2="-212.906"/>
				
					<line fill="none" stroke="#00ABEB" stroke-width="0.4221" stroke-miterlimit="10" x1="728.24" y1="389.57" x2="728.24" y2="-212.906"/>
				
					<line fill="none" stroke="#00ABEB" stroke-width="0.4221" stroke-miterlimit="10" x1="778.346" y1="389.57" x2="778.346" y2="-212.906"/>
			</g>
			<g id="Horizontal_10_mm">
				
					<line id="_x31_9_1_" fill="none" stroke="#00ABEB" stroke-width="0.9849" stroke-miterlimit="10" x1="-24.603" y1="389.619" x2="778.327" y2="389.619"/>
				
					<line id="_x32_0" fill="none" stroke="#00ABEB" stroke-width="0.9849" stroke-miterlimit="10" x1="-24.603" y1="289.406" x2="778.327" y2="289.406"/>
				
					<line id="_x32_1" fill="none" stroke="#00ABEB" stroke-width="0.9849" stroke-miterlimit="10" x1="-24.603" y1="189.19" x2="778.327" y2="189.19"/>
				
					<line id="_x32_2" fill="none" stroke="#00ABEB" stroke-width="0.9849" stroke-miterlimit="10" x1="-24.603" y1="88.977" x2="778.327" y2="88.977"/>
				
					<line id="_x32_3" fill="none" stroke="#00ABEB" stroke-width="0.9849" stroke-miterlimit="10" x1="-24.603" y1="-11.24" x2="778.327" y2="-11.24"/>
				
					<line id="_x32_4" fill="none" stroke="#00ABEB" stroke-width="0.9849" stroke-miterlimit="10" x1="-24.603" y1="-111.451" x2="778.327" y2="-111.451"/>
				
					<line id="_x32_5" fill="none" stroke="#00ABEB" stroke-width="0.9849" stroke-miterlimit="10" x1="-24.603" y1="-211.668" x2="778.327" y2="-211.668"/>
			</g>
			<g id="Vertical_10_mm">
				
					<line id="_x30_" fill="none" stroke="#00ABEB" stroke-width="0.9849" stroke-miterlimit="10" x1="-23.366" y1="389.57" x2="-23.366" y2="-212.906"/>
				
					<line id="_x31_" fill="none" stroke="#00ABEB" stroke-width="0.9849" stroke-miterlimit="10" x1="76.848" y1="389.57" x2="76.848" y2="-212.906"/>
				
					<line id="_x32_" fill="none" stroke="#00ABEB" stroke-width="0.9849" stroke-miterlimit="10" x1="177.063" y1="389.57" x2="177.063" y2="-212.906"/>
				
					<line id="_x33_" fill="none" stroke="#00ABEB" stroke-width="0.9849" stroke-miterlimit="10" x1="277.276" y1="389.57" x2="277.276" y2="-212.906"/>
				
					<line id="_x34_" fill="none" stroke="#00ABEB" stroke-width="0.9849" stroke-miterlimit="10" x1="377.488" y1="389.57" x2="377.488" y2="-212.906"/>
				
					<line id="_x35_" fill="none" stroke="#00ABEB" stroke-width="0.9849" stroke-miterlimit="10" x1="477.705" y1="389.57" x2="477.705" y2="-212.906"/>
				
					<line id="_x36_" fill="none" stroke="#00ABEB" stroke-width="0.9849" stroke-miterlimit="10" x1="577.918" y1="389.57" x2="577.918" y2="-212.906"/>
				
					<line id="_x37_" fill="none" stroke="#00ABEB" stroke-width="0.9849" stroke-miterlimit="10" x1="678.133" y1="389.57" x2="678.133" y2="-212.906"/>
				
					<line id="_x38_" fill="none" stroke="#00ABEB" stroke-width="0.9849" stroke-miterlimit="10" x1="778.346" y1="389.57" x2="778.346" y2="-212.906"/>
			</g>
		</g>
	</g>
</g>
<g id="base">
	
		<line fill="none" stroke="#00B200" stroke-linecap="round" stroke-linejoin="round" stroke-miterlimit="11.3386" x1="27.354" y1="19.616" x2="106.912" y2="19.616"/>
	
		<line fill="none" stroke="#00B200" stroke-linecap="round" stroke-linejoin="round" stroke-miterlimit="11.3386" x1="337.753" y1="157.426" x2="337.753" y2="189.56"/>
	
		<line fill="none" stroke="#00B200" stroke-linecap="round" stroke-linejoin="round" stroke-miterlimit="11.3386" x1="337.753" y1="38.875" x2="337.752" y2="72.486"/>
	
		<line fill="none" stroke="#C90D0C" stroke-linecap="round" stroke-miterlimit="11.3386" x1="337.752" y1="157.426" x2="337.752" y2="136.191"/>
	
		<line fill="none" stroke="#C90D0C" stroke-linecap="round" stroke-miterlimit="11.3386" x1="337.752" y1="72.486" x2="337.752" y2="93.721"/>
	
		<line fill="none" stroke="#C90D0C" stroke-width="2" stroke-linecap="round" stroke-miterlimit="11.3386" x1="344.467" y1="136.191" x2="344.467" y2="93.721"/>
	
		<line fill="none" stroke="#C90D0C" stroke-width="2" stroke-linecap="round" stroke-miterlimit="11.3386" x1="331.038" y1="93.721" x2="331.038" y2="136.191"/>
	
		<line fill="none" stroke="#C90D0C" stroke-width="2" stroke-linecap="round" stroke-miterlimit="11.3386" x1="344.467" y1="93.721" x2="331.038" y2="93.721"/>
	
		<line fill="none" stroke="#C90D0C" stroke-width="2" stroke-linecap="round" stroke-miterlimit="11.3386" x1="344.467" y1="136.191" x2="331.038" y2="136.191"/>
	<g enable-background="new    ">
		<path fill="#C90D0C" d="M357.651,106.129c2.862,0,4.423,1.344,4.423,3.384c0,1.152-0.542,2.328-1.431,3.072
			c-0.672,0.576-1.388,0.864-2.84,1.224l1.93,5.641c0.477,1.416,0.911,1.968,1.886,1.968v0.384h-3.187l-2.667-7.777l-1.431-0.12
			l-1.192,4.872c-0.239,0.936-0.282,1.272-0.282,1.512c0,0.72,0.217,0.984,1.453,1.128v0.384h-5.269v-0.384
			c1.192-0.168,1.496-0.624,1.843-2.04l2.581-10.345c0.151-0.648,0.26-1.104,0.26-1.512c0-0.264-0.151-0.552-0.303-0.672
			c-0.239-0.168-0.325-0.192-1.236-0.336v-0.384H357.651z M354.594,113.018c0.542,0.096,0.715,0.12,1.105,0.12
			c2.581,0,4.098-1.368,4.098-3.601c0-1.656-0.911-2.688-2.602-2.688c-0.672,0-1.127,0.264-1.236,0.72L354.594,113.018z"/>
	</g>
	<g display="none" enable-background="new    ">
		<path display="inline" fill="#808080" d="M337.885,136.223c2.245-0.441,3.899-2.159,4.49-4.842
			c-0.635,0.687-1.344,0.933-2.215,0.933c-1.596,0-2.659-1.325-2.659-3.321c0-2.208,1.315-3.86,3.072-3.86
			c0.945,0,1.743,0.458,2.319,1.243c0.591,0.818,0.945,1.996,0.945,3.37c0,1.881-0.591,3.664-1.772,4.858
			c-1.256,1.259-2.216,1.652-4.136,1.946L337.885,136.223z M342.405,129.746c0-2.748-0.665-4.155-1.95-4.155
			c-0.443,0-0.827,0.196-1.078,0.556c-0.295,0.441-0.517,1.407-0.517,2.29c0,1.946,0.709,3.173,1.816,3.173
			c0.65,0,1.729-0.36,1.729-1.227V129.746z"/>
		<path display="inline" fill="#808080" d="M348.136,136.42c-2.526,0-3.338-3.042-3.338-5.725c0-2.895,1.019-5.562,3.397-5.562
			c1.935,0,3.279,2.306,3.279,5.66C351.474,133.606,350.543,136.42,348.136,136.42z M348.106,125.558
			c-1.226,0-1.891,1.93-1.891,5.251c0,3.32,0.65,5.185,1.92,5.185c1.255,0,1.92-1.881,1.92-5.12
			C350.056,127.472,349.406,125.558,348.106,125.558z"/>
		<path display="inline" fill="#808080" d="M355.522,136.42c-2.526,0-3.338-3.042-3.338-5.725c0-2.895,1.019-5.562,3.397-5.562
			c1.935,0,3.279,2.306,3.279,5.66C358.86,133.606,357.929,136.42,355.522,136.42z M355.492,125.558
			c-1.226,0-1.891,1.93-1.891,5.251c0,3.32,0.65,5.185,1.92,5.185c1.255,0,1.92-1.881,1.92-5.12
			C357.442,127.472,356.792,125.558,355.492,125.558z"/>
		<path display="inline" fill="#808080" d="M369.244,136.191l0.104-2.633c1.255-0.344,2.083-2.143,2.083-3.894
			c0-2.322-1.093-3.942-3.028-3.942c-2.009,0-3.028,1.979-3.028,3.942c0,1.604,0.768,3.484,2.068,3.894l0.133,2.633h-4.239v-2.797
			h0.37c0.015,0.998,0.266,1.243,0.916,1.243h2.23l-0.03-0.605c-2.053-0.638-3.131-1.963-3.131-4.334
			c0-2.225,1.728-4.564,4.712-4.564c2.924,0,4.712,2.126,4.712,4.564c0,2.388-1.182,3.713-3.176,4.334l-0.03,0.605h2.275
			c0.605,0,0.886-0.393,0.916-1.21h0.37v2.764H369.244z"/>
	</g>
	<g enable-background="new    ">
		<path fill="#C90D0C" d="M250.216,22.341h-11.037v-0.384c1.214-0.144,1.388-0.36,1.778-1.872l2.646-10.513
			c0.173-0.648,0.238-1.128,0.238-1.488c0-0.696-0.325-0.936-1.669-1.032V6.668h5.919v0.384c-1.301,0.096-1.843,0.48-2.19,1.849
			l-2.602,10.297c-0.13,0.552-0.217,0.96-0.217,1.296c0,0.744,0.499,0.984,2.277,0.984c2.168,0,2.84-0.12,3.903-0.912
			c0.694-0.504,1.171-1.296,1.778-2.688l0.434,0.144L250.216,22.341z"/>
	</g>
	<g enable-background="new    ">
		<path fill="#00B200" d="M321.071,28.531c-1.192,2.016-1.886,2.736-2.97,2.736c-0.716,0-1.062-0.432-1.062-1.32
			c0-0.48,0.152-1.32,0.477-2.664l1.041-4.249c0.108-0.432,0.195-0.864,0.195-1.056c0-0.48-0.217-0.552-1.388-0.576v-0.384
			c0.846-0.072,1.279-0.144,3.469-0.6l0.087,0.072l-2.039,8.232c-0.108,0.408-0.217,0.72-0.217,1.056c0,0.24,0.13,0.36,0.304,0.36
			c0.369,0,0.889-0.504,1.821-1.872L321.071,28.531z M320.638,17.85c-0.628,0-1.041-0.504-1.041-1.272
			c0-0.744,0.434-1.272,1.019-1.272s1.084,0.624,1.084,1.32C321.7,17.298,321.202,17.85,320.638,17.85z"/>
	</g>
	
		<line fill="none" stroke="#00B200" stroke-linecap="round" stroke-linejoin="round" stroke-miterlimit="11.3386" x1="337.753" y1="38.875" x2="289.114" y2="38.872"/>
	<line fill="none" stroke="#00B200" stroke-miterlimit="11.3386" x1="337.753" y1="189.56" x2="27.354" y2="189.56"/>
	<g>
		<g>
			
				<line fill="none" stroke="#00B200" stroke-width="1.1213" stroke-linecap="round" stroke-linejoin="round" x1="314.18" y1="38.844" x2="302.871" y2="38.844"/>
			<g>
				<path fill="#00B200" d="M306.516,33.462c-0.166,0.261-0.089,0.608,0.172,0.774l7.235,4.608l-7.235,4.608
					c-0.261,0.166-0.338,0.514-0.172,0.774c0.166,0.261,0.515,0.336,0.774,0.172l7.978-5.081c0.161-0.103,0.259-0.281,0.259-0.473
					c0-0.192-0.098-0.37-0.259-0.473l-7.978-5.081c-0.093-0.059-0.198-0.088-0.301-0.088
					C306.805,33.203,306.624,33.295,306.516,33.462z"/>
			</g>
		</g>
	</g>
	
		<line fill="none" stroke="#00B200" stroke-linecap="round" stroke-linejoin="round" stroke-miterlimit="11.3386" x1="337.753" y1="38.875" x2="337.752" y2="72.486"/>
	<g opacity="0.1">
		<path fill="none" d="M266.469,47.656"/>
	</g>
	<g opacity="0.1">
		<path fill="none" d="M235.176,47.656"/>
	</g>
	<g display="none" enable-background="new    ">
		<path display="inline" fill="#808080" d="M302.017,30.093v-0.246c1.093-0.065,1.403-0.409,1.403-1.309v-7.344
			c0-0.556-0.133-0.801-0.443-0.801c-0.148,0-0.399,0.082-0.665,0.196l-0.399,0.163v-0.229l2.644-1.489l0.133,0.049v9.765
			c0,0.704,0.295,0.998,1.403,0.998v0.246H302.017z"/>
		<path display="inline" fill="#808080" d="M319.58,30.093v-0.246c0.827-0.098,0.96-0.278,0.96-1.227v-3.37
			c0-1.292-0.296-1.832-1.138-1.832c-0.694,0-1.137,0.294-1.58,0.998v4.122c0,1.063,0.221,1.292,1.063,1.309v0.246h-3.309v-0.246
			c0.842-0.065,1.004-0.163,1.004-1.161v-3.451c0-1.129-0.325-1.816-0.96-1.816c-0.546,0-1.27,0.311-1.565,0.704
			c-0.104,0.131-0.192,0.245-0.192,0.278v4.547c0,0.703,0.222,0.867,1.005,0.899v0.246h-3.279v-0.246
			c0.827-0.016,1.034-0.245,1.034-1.194v-4.057c0-0.801-0.133-1.08-0.517-1.08c-0.163,0-0.281,0.017-0.473,0.065v-0.278
			c0.812-0.245,1.3-0.425,2.053-0.736l0.118,0.049v1.21h0.029c0.975-1.112,1.595-1.259,2.26-1.259c0.798,0,1.3,0.442,1.566,1.374
			c0.797-0.949,1.551-1.374,2.408-1.374c1.196,0,1.713,1.014,1.713,2.944v3.321c0,0.736,0.192,0.948,0.635,0.981l0.384,0.032v0.246
			H319.58z"/>
		<path display="inline" fill="#808080" d="M329.521,30.093v-0.311c0.532,0,0.635-0.032,0.812-0.147
			c0.118-0.065,0.207-0.246,0.207-0.393c0-0.246-0.104-0.687-0.28-1.145l-0.606-1.538h-3.87l-0.68,1.865
			c-0.074,0.213-0.133,0.491-0.133,0.687c0,0.507,0.325,0.67,1.034,0.67v0.311h-2.939v-0.311c0.856-0.098,0.989-0.441,1.861-2.731
			l3.043-7.982h0.295l3.633,9.209c0.414,1.063,0.621,1.407,1.389,1.505v0.311H329.521z M327.734,21.391l-1.699,4.499h3.412
			L327.734,21.391z"/>
	</g>
	
		<line fill="none" stroke="#00B200" stroke-linecap="round" stroke-linejoin="round" stroke-miterlimit="11.3386" x1="76.85" y1="155.801" x2="76.85" y2="189.56"/>
	
		<line fill="none" stroke="#00B200" stroke-linecap="round" stroke-linejoin="round" stroke-miterlimit="11.3386" x1="76.85" y1="38.875" x2="76.85" y2="88.543"/>
	<g enable-background="new    ">
		<path fill="#C90D0C" d="M100.455,85.719c-1.344,0.336-1.431,0.456-2.255,3.577l-1.8,6.84c-0.477,1.8-1.171,3.192-2.104,4.057
			c-0.932,0.888-2.016,1.248-3.426,1.248c-2.84,0-4.792-1.656-4.792-3.937c0-1.296,0.391-2.904,0.954-5.185l1.127-4.536
			c0.108-0.432,0.195-0.792,0.195-1.08c0-0.624-0.39-0.936-1.734-0.984v-0.384h5.897v0.384c-1.475,0.168-1.843,0.528-2.255,2.185
			l-1.366,5.424c-0.585,2.28-0.867,3.769-0.867,4.296c0,1.704,1.301,2.832,2.992,2.832c2.45,0,3.794-1.632,4.77-5.568l1.388-5.592
			c0.347-1.416,0.499-2.256,0.499-2.472c0-0.72-0.369-0.984-1.518-1.104v-0.384h4.293V85.719z"/>
	</g>
	
		<line fill="none" stroke="#00B200" stroke-linecap="round" stroke-linejoin="round" stroke-miterlimit="11.3386" x1="76.848" y1="38.875" x2="106.912" y2="38.875"/>
	
		<line fill="none" stroke="#00B200" stroke-linecap="round" stroke-linejoin="round" stroke-miterlimit="11.3386" x1="147.387" y1="38.868" x2="204.174" y2="38.868"/>
	<g id="battery">
		<g enable-background="new    ">
			<path fill="#808080" d="M67.637,136.962v1.055h-7.424v-1.055H67.637z"/>
		</g>
		<g enable-background="new    ">
			<path fill="#808080" d="M67.637,94.811v1.055h-3.19v3.19h-1.056v-3.19h-3.19v-1.055h3.19v-3.19h1.056v3.19H67.637z"/>
		</g>
		
			<line fill="none" stroke="#C90D0C" stroke-width="2" stroke-linecap="round" stroke-miterlimit="11.3386" x1="82.932" y1="121.038" x2="76.85" y2="121.038"/>
		
			<line fill="none" stroke="#C90D0C" stroke-width="2" stroke-linecap="round" stroke-miterlimit="11.3386" x1="76.85" y1="121.038" x2="70.768" y2="121.038"/>
		
			<line fill="none" stroke="#C90D0C" stroke-width="2" stroke-linecap="round" stroke-miterlimit="11.3386" x1="101.179" y1="108.874" x2="76.85" y2="108.874"/>
		
			<line fill="none" stroke="#C90D0C" stroke-width="2" stroke-linecap="round" stroke-miterlimit="11.3386" x1="76.85" y1="108.874" x2="52.522" y2="108.874"/>
		
			<line fill="none" stroke="#C90D0C" stroke-linecap="round" stroke-miterlimit="11.3386" x1="76.85" y1="74.11" x2="76.85" y2="108.874"/>
		
			<line fill="none" stroke="#C90D0C" stroke-linecap="round" stroke-miterlimit="11.3386" x1="76.85" y1="121.038" x2="76.85" y2="155.801"/>
	</g>
	<g>
		<g>
			
				<line fill="none" stroke="#C90D0C" stroke-width="0.8494" stroke-linecap="round" stroke-miterlimit="11.3386" x1="204.174" y1="38.868" x2="218.331" y2="38.868"/>
			
				<line fill="none" stroke="#C90D0C" stroke-width="0.8494" stroke-linecap="round" stroke-miterlimit="11.3386" x1="289.114" y1="38.868" x2="274.957" y2="38.868"/>
			<path fill="none" stroke="#C90D0C" stroke-width="1.4157" stroke-linecap="round" stroke-miterlimit="11.3386" d="M225.409,31.79
				c-3.909,0-7.078,3.169-7.078,7.078"/>
			<path fill="none" stroke="#C90D0C" stroke-width="1.4157" stroke-linecap="round" stroke-miterlimit="11.3386" d="
				M232.487,38.868c0-3.909-3.169-7.078-7.078-7.078"/>
			<path fill="none" stroke="#C90D0C" stroke-width="1.4157" stroke-linecap="round" stroke-miterlimit="11.3386" d="M239.565,31.79
				c-3.909,0-7.078,3.169-7.078,7.078"/>
			<path fill="none" stroke="#C90D0C" stroke-width="1.4157" stroke-linecap="round" stroke-miterlimit="11.3386" d="
				M246.644,38.868c0-3.909-3.169-7.078-7.078-7.078"/>
			<path fill="none" stroke="#C90D0C" stroke-width="1.4157" stroke-linecap="round" stroke-miterlimit="11.3386" d="M253.722,31.79
				c-3.909,0-7.078,3.169-7.078,7.078"/>
			<path fill="none" stroke="#C90D0C" stroke-width="1.4157" stroke-linecap="round" stroke-miterlimit="11.3386" d="M260.8,38.868
				c0-3.909-3.169-7.078-7.078-7.078"/>
			<path fill="none" stroke="#C90D0C" stroke-width="1.4157" stroke-linecap="round" stroke-miterlimit="11.3386" d="M267.879,31.79
				c-3.909,0-7.078,3.169-7.078,7.078"/>
			<path fill="none" stroke="#C90D0C" stroke-width="1.4157" stroke-linecap="round" stroke-miterlimit="11.3386" d="
				M274.957,38.868c0-3.909-3.169-7.078-7.078-7.078"/>
		</g>
		<g display="none" enable-background="new    ">
			<path display="inline" fill="#808080" d="M247.784,51.771v-7.803h1.033v6.882h3.843v0.921H247.784z"/>
		</g>
	</g>
	<g display="none">
		
			<circle display="inline" fill="none" stroke="#C90D0C" stroke-width="1.0449" stroke-linecap="round" stroke-linejoin="round" stroke-miterlimit="11.3386" cx="147.308" cy="38.875" r="2.126"/>
		
			<circle display="inline" fill="none" stroke="#C90D0C" stroke-width="1.0449" stroke-linecap="round" stroke-linejoin="round" stroke-miterlimit="11.3386" cx="96.892" cy="38.875" r="2.126"/>
		
			<circle display="inline" fill="none" stroke="#C90D0C" stroke-width="1.0449" stroke-linecap="round" stroke-linejoin="round" stroke-miterlimit="11.3386" cx="99.018" cy="24.772" r="2.126"/>
	</g>
	
		<line fill="none" stroke="#00B200" stroke-linecap="round" stroke-linejoin="round" stroke-miterlimit="11.3386" x1="27.354" y1="19.616" x2="27.354" y2="189.56"/>
	
		<line fill="none" stroke="#00B200" stroke-linecap="round" stroke-linejoin="round" stroke-miterlimit="11.3386" x1="106.912" y1="19.534" x2="106.912" y2="30.184"/>
	
		<line fill="none" stroke="#C90D0C" stroke-width="2" stroke-linecap="round" stroke-miterlimit="11.3386" x1="147.387" y1="38.868" x2="101.754" y2="38.844"/>
	<g>
		<g>
			<path fill="none" stroke="#000000" stroke-width="0.5" stroke-linecap="round" stroke-miterlimit="11.3386" d="M117.884,48.33
				c-3.184-9.964-1.07-20.351,4.772-28.119"/>
			<g>
				<polygon points="123.236,22.488 122.294,20.711 120.361,20.155 124.564,17.914 				"/>
			</g>
		</g>
	</g>
</g>
<g id="Layer_6">
	<g opacity="0.1">
		<g>
			<path fill="none" stroke="#0000FF" stroke-width="2.2802" stroke-linecap="round" stroke-linejoin="round" d="M272.292,165.644
				h-73.551c-12.931,0-23.511-10.58-23.511-23.511V92.443c0-12.931,10.58-23.511,23.511-23.511h73.551
				c12.931,0,23.511,10.58,23.511,23.511v49.689c0,12.097-9.259,22.137-21.04,23.381"/>
			<g>
				<polygon fill="#0000FF" points="280.464,154.656 282.297,156.016 275.584,165.035 285.071,171.071 283.844,172.995 
					272.292,165.642 				"/>
			</g>
		</g>
	</g>
	<g enable-background="new    ">
		<path d="M180.848,110.356l-0.477-0.048c0.043-0.408,0.065-0.792,0.065-1.104c0-1.44-0.759-1.752-4.163-1.752
			c-1.236,0-1.453,0.096-1.583,0.624l-1.431,5.593h1.691c1.952,0,2.19-0.288,3.014-2.329l0.39,0.096l-1.474,5.568l-0.434-0.12
			c0.109-0.528,0.152-0.816,0.152-1.249c0-0.408-0.043-0.624-0.152-0.744c-0.238-0.24-0.824-0.36-1.691-0.36h-1.691l-0.694,2.688
			c-0.542,2.112-0.78,3.216-0.78,3.504c0,0.576,0.499,0.816,1.713,0.816c2.125,0,3.295-0.288,4.401-0.936
			c0.694-0.408,1.214-1.08,2.038-2.353l0.347,0.192l-1.344,3.888h-10.993v-0.384c1.214-0.24,1.409-0.384,1.756-1.776l2.667-10.609
			c0.13-0.48,0.239-1.248,0.239-1.536c0-0.648-0.325-0.84-1.669-0.984v-0.384h10.776L180.848,110.356z"/>
		<path d="M182.885,114.652v-1.584h10.928v1.584H182.885z M182.885,119.453v-1.584h10.928v1.584H182.885z"/>
		<path d="M202.506,121.469c-0.889,0.696-1.821,1.032-2.732,1.032c-2.211,0-3.426-2.016-3.426-5.353
			c0-5.64,3.231-11.041,6.635-11.041c2.212,0,3.448,2.136,3.448,6.025C206.431,115.661,204.74,119.717,202.506,121.469z
			 M202.897,106.78c-0.976,0-1.821,0.72-2.602,2.28c-1.127,2.256-2.233,6.96-2.233,9.529c0,2.04,0.715,3.24,1.756,3.24
			c0.998,0,1.995-0.816,2.797-2.4c1.258-2.448,2.104-6.409,2.104-9.529C204.718,107.98,204.198,106.78,202.897,106.78z"/>
	</g>
	<g enable-background="new    ">
		<path d="M234.945,68.098l-0.477-0.048c0.043-0.408,0.065-0.792,0.065-1.104c0-1.44-0.759-1.752-4.163-1.752
			c-1.236,0-1.453,0.096-1.583,0.624l-1.431,5.593h1.691c1.952,0,2.19-0.288,3.014-2.329l0.39,0.096l-1.474,5.568l-0.434-0.12
			c0.109-0.528,0.152-0.816,0.152-1.249c0-0.408-0.043-0.624-0.152-0.744c-0.238-0.24-0.824-0.36-1.691-0.36h-1.691l-0.694,2.688
			c-0.542,2.112-0.78,3.216-0.78,3.504c0,0.576,0.499,0.816,1.713,0.816c2.125,0,3.295-0.288,4.401-0.936
			c0.694-0.408,1.214-1.08,2.038-2.353l0.347,0.192l-1.344,3.888h-10.993v-0.384c1.214-0.24,1.409-0.384,1.756-1.776l2.667-10.609
			c0.13-0.48,0.239-1.248,0.239-1.536c0-0.648-0.325-0.84-1.669-0.984v-0.384h10.776L234.945,68.098z"/>
		<path d="M241.447,88.067h-6.431v-0.224c0.708-0.083,0.809-0.209,1.036-1.091l1.542-6.128c0.101-0.378,0.139-0.658,0.139-0.868
			c0-0.406-0.189-0.545-0.973-0.602V78.93h3.449v0.224c-0.758,0.056-1.074,0.28-1.276,1.078l-1.516,6.002
			c-0.076,0.322-0.126,0.56-0.126,0.755c0,0.434,0.291,0.574,1.327,0.574c1.264,0,1.655-0.07,2.274-0.532
			c0.404-0.293,0.682-0.755,1.036-1.567l0.252,0.084L241.447,88.067z"/>
		<path d="M244.01,72.395v-1.584h10.928v1.584H244.01z M244.01,77.195v-1.584h10.928v1.584H244.01z"/>
		<path d="M263.631,79.211c-0.889,0.696-1.821,1.032-2.732,1.032c-2.211,0-3.426-2.016-3.426-5.353
			c0-5.64,3.231-11.041,6.635-11.041c2.212,0,3.448,2.136,3.448,6.025C267.556,73.403,265.865,77.459,263.631,79.211z
			 M264.022,64.522c-0.976,0-1.821,0.72-2.602,2.28c-1.127,2.256-2.233,6.96-2.233,9.529c0,2.04,0.716,3.24,1.756,3.24
			c0.998,0,1.995-0.816,2.797-2.4c1.258-2.448,2.104-6.409,2.104-9.529C265.843,65.722,265.323,64.522,264.022,64.522z"/>
	</g>
	<g enable-background="new    ">
		<path d="M264.546,113.153l-0.477-0.048c0.043-0.408,0.064-0.792,0.064-1.104c0-1.44-0.759-1.752-4.163-1.752
			c-1.235,0-1.452,0.096-1.582,0.624l-1.432,5.593h1.691c1.951,0,2.19-0.288,3.014-2.329l0.391,0.096l-1.475,5.568l-0.434-0.12
			c0.108-0.528,0.151-0.816,0.151-1.249c0-0.408-0.043-0.624-0.151-0.744c-0.238-0.24-0.824-0.36-1.691-0.36h-1.691l-0.693,2.688
			c-0.542,2.112-0.78,3.216-0.78,3.504c0,0.576,0.498,0.816,1.713,0.816c2.124,0,3.295-0.288,4.401-0.936
			c0.693-0.408,1.214-1.08,2.038-2.353l0.347,0.192l-1.344,3.888h-10.993v-0.384c1.214-0.24,1.409-0.384,1.756-1.776l2.667-10.609
			c0.13-0.48,0.238-1.248,0.238-1.536c0-0.648-0.325-0.84-1.669-0.984v-0.384h10.776L264.546,113.153z"/>
		<path d="M269.571,123.985c1.668,0,2.577,0.784,2.577,1.973c0,0.671-0.315,1.357-0.834,1.791c-0.392,0.336-0.809,0.504-1.655,0.713
			l1.125,3.289c0.277,0.825,0.53,1.147,1.099,1.147v0.224h-1.856l-1.555-4.534l-0.834-0.07l-0.694,2.84
			c-0.14,0.546-0.164,0.742-0.164,0.882c0,0.419,0.126,0.574,0.846,0.657v0.224h-3.069v-0.224c0.694-0.098,0.871-0.364,1.073-1.189
			l1.504-6.031c0.088-0.378,0.151-0.644,0.151-0.881c0-0.154-0.088-0.322-0.177-0.392c-0.139-0.098-0.189-0.112-0.72-0.196v-0.224
			H269.571z M267.789,128.002c0.315,0.056,0.417,0.07,0.644,0.07c1.504,0,2.389-0.797,2.389-2.099c0-0.966-0.531-1.567-1.517-1.567
			c-0.392,0-0.657,0.154-0.72,0.42L267.789,128.002z"/>
		<path d="M274.307,117.45v-1.584h10.928v1.584H274.307z M274.307,122.25v-1.584h10.928v1.584H274.307z"/>
		<path d="M292.172,122.658c-1.192,2.016-1.887,2.736-2.971,2.736c-0.716,0-1.062-0.432-1.062-1.32c0-0.48,0.152-1.32,0.478-2.664
			l1.04-4.249c0.108-0.432,0.195-0.864,0.195-1.056c0-0.48-0.217-0.552-1.388-0.576v-0.384c0.846-0.072,1.279-0.144,3.47-0.6
			l0.087,0.072l-2.039,8.232c-0.108,0.408-0.217,0.72-0.217,1.056c0,0.24,0.131,0.36,0.304,0.36c0.369,0,0.89-0.504,1.821-1.872
			L292.172,122.658z M291.739,111.977c-0.629,0-1.041-0.504-1.041-1.272c0-0.744,0.434-1.272,1.02-1.272
			c0.585,0,1.084,0.624,1.084,1.32C292.801,111.425,292.302,111.977,291.739,111.977z"/>
		<path d="M301.43,109.457c2.862,0,4.424,1.344,4.424,3.384c0,1.152-0.542,2.328-1.432,3.072c-0.672,0.576-1.388,0.864-2.84,1.224
			l1.93,5.641c0.477,1.416,0.91,1.968,1.886,1.968v0.384h-3.187l-2.667-7.777l-1.432-0.12l-1.192,4.872
			c-0.238,0.936-0.282,1.272-0.282,1.512c0,0.72,0.217,0.984,1.453,1.128v0.384h-5.269v-0.384c1.192-0.168,1.496-0.624,1.843-2.04
			l2.58-10.345c0.151-0.648,0.26-1.104,0.26-1.512c0-0.264-0.151-0.552-0.303-0.672c-0.239-0.168-0.325-0.192-1.236-0.336v-0.384
			H301.43z M298.373,116.346c0.542,0.096,0.715,0.12,1.105,0.12c2.58,0,4.098-1.368,4.098-3.601c0-1.656-0.91-2.688-2.602-2.688
			c-0.672,0-1.128,0.264-1.236,0.72L298.373,116.346z"/>
	</g>
	<g>
		<g>
			
				<line fill="none" stroke="#000000" stroke-width="1.1615" stroke-linecap="round" stroke-linejoin="round" x1="162.847" y1="59.853" x2="162.556" y2="168.799"/>
			<g>
				<polygon points="157.815,164.938 158.668,164.148 162.556,168.353 166.466,164.169 167.315,164.963 162.551,170.059 				"/>
			</g>
		</g>
	</g>
	<g>
		<g>
			
				<line fill="none" stroke="#000000" stroke-linecap="round" stroke-linejoin="round" x1="204.174" y1="58.914" x2="286.215" y2="58.912"/>
			<g>
				<polygon points="282.901,63.001 282.219,62.269 285.831,58.913 282.219,55.555 282.901,54.823 287.299,58.912 				"/>
			</g>
		</g>
	</g>
	<g>
		<g>
			
				<line fill="none" stroke="#000000" stroke-width="1.1714" stroke-linecap="round" stroke-linejoin="round" x1="307.73" y1="58.913" x2="307.73" y2="169.728"/>
			<g>
				<polygon points="302.939,165.847 303.797,165.048 307.729,169.279 311.662,165.048 312.52,165.847 307.729,170.999 				"/>
			</g>
		</g>
	</g>
	<g enable-background="new    ">
		<path fill="#C90D0C" d="M96.108,15.474c-1.084,1.457-1.431,1.761-2.009,1.761c-0.405,0-0.578-0.192-0.578-0.656
			c0-0.4,0.029-0.528,0.333-1.841c-1.084,1.809-1.922,2.513-2.934,2.513c-0.809,0-1.445-0.641-1.445-1.857
			c0-2.481,2.211-5.378,4.133-5.378c0.621,0,1.041,0.336,1.156,0.929l0.159-0.769l0.043-0.048l0.881-0.112l0.101,0.048
			c-0.029,0.144-0.043,0.176-0.086,0.336c-0.679,2.737-1.286,5.49-1.286,5.811c0,0.112,0.086,0.208,0.202,0.208
			c0.13,0,0.318-0.128,0.751-0.656l0.39-0.464L96.108,15.474z M93.694,10.368c-0.65,0-1.286,0.496-1.893,1.473
			c-0.607,1.008-1.113,2.433-1.113,3.441c0,0.88,0.347,1.184,0.867,1.184c0.722,0,1.401-0.88,1.835-1.568
			c0.679-1.088,1.113-2.465,1.113-3.602C94.504,10.736,94.2,10.368,93.694,10.368z"/>
	</g>
	<g enable-background="new    ">
		<path fill="#C90D0C" d="M91.169,32.3c0.983-1.809,1.777-2.417,2.789-2.417c0.968,0,1.676,0.688,1.676,1.921
			c0,2.529-2.384,5.314-4.624,5.314c-0.824,0-1.878-0.368-1.878-0.849v-0.096l2.052-8.372c0.087-0.384,0.13-0.608,0.13-0.752
			c0-0.352-0.072-0.368-0.925-0.4v-0.272c0.968-0.128,1.488-0.224,2.211-0.368l0.072,0.08l-0.303,1.312L91.155,32.3H91.169z
			 M93.395,30.668c-0.694,0-1.358,0.672-1.98,1.841c-0.636,1.184-1.04,2.737-1.04,3.697c0,0.368,0.217,0.544,0.665,0.544
			c0.622,0,1.243-0.336,1.777-0.944c0.867-0.993,1.589-2.577,1.589-3.762C94.406,31.067,94.031,30.668,93.395,30.668z"/>
	</g>
	<g enable-background="new    ">
		<path d="M133.875,8.969h-1.214l-1.257,5.25c-0.014,0.064-0.029,0.176-0.029,0.224c0,0.208,0.087,0.256,0.217,0.256
			c0.231,0,0.462-0.256,1.17-1.264l0.188,0.112c-0.867,1.473-1.315,1.937-2.066,1.937c-0.39,0-0.665-0.192-0.665-0.592
			c0-0.176,0.115-0.672,0.231-1.185l1.127-4.738h-1.083c-0.015-0.048-0.015-0.096-0.015-0.096c0-0.176,0.13-0.32,0.477-0.4
			c0.462-0.112,1.401-0.896,1.922-1.761c0.058-0.096,0.145-0.144,0.202-0.144c0.087,0,0.13,0.048,0.13,0.128c0,0,0,0.08-0.014,0.112
			l-0.405,1.649h1.156L133.875,8.969z"/>
		<path d="M134.931,10.186V9.129h7.283v1.057H134.931z M134.931,13.387v-1.056h7.283v1.056H134.931z"/>
		<path d="M148.012,14.732c-0.593,0.464-1.214,0.688-1.821,0.688c-1.474,0-2.283-1.344-2.283-3.569c0-3.761,2.153-7.363,4.422-7.363
			c1.474,0,2.297,1.424,2.297,4.018C150.627,10.858,149.5,13.563,148.012,14.732z M148.271,4.936c-0.65,0-1.214,0.48-1.734,1.521
			c-0.751,1.504-1.488,4.642-1.488,6.354c0,1.361,0.477,2.161,1.17,2.161c0.665,0,1.33-0.544,1.864-1.601
			c0.838-1.632,1.401-4.273,1.401-6.354C149.485,5.736,149.139,4.936,148.271,4.936z"/>
	</g>
	<g>
	</g>
	<g>
	</g>
	<g>
	</g>
</g>
</svg>
