<?xml version="1.0" encoding="utf-8"?>
<!-- Generator: Adobe Illustrator 26.0.1, SVG Export Plug-In . SVG Version: 6.00 Build 0)  -->
<svg version="1.1" xmlns="http://www.w3.org/2000/svg" xmlns:xlink="http://www.w3.org/1999/xlink" x="0px" y="0px"
	 viewBox="0 0 204.8 101.9" style="enable-background:new 0 0 204.8 101.9;" xml:space="preserve">
<style type="text/css">
	.st0{opacity:0.5;}
	.st1{opacity:0.25;clip-path:url(#SVGID_00000103970392903598655570000014728666983003872427_);}
	.st2{fill:none;stroke:#00ABEB;stroke-width:0.2111;stroke-miterlimit:10;}
	.st3{fill:none;stroke:#00ABEB;stroke-width:0.4221;stroke-miterlimit:10;}
	.st4{fill:none;stroke:#00ABEB;stroke-width:0.9849;stroke-miterlimit:10;}
	.st5{display:none;enable-background:new    ;}
	.st6{display:inline;fill:#808080;}
	.st7{enable-background:new    ;}
	.st8{fill:#C90D0C;}
	.st9{display:none;}
	
		.st10{display:inline;fill:none;stroke:#C90D0C;stroke-width:1.0449;stroke-linecap:round;stroke-linejoin:round;stroke-miterlimit:11.3386;}
	.st11{display:none;fill:none;stroke:#000000;stroke-width:1.7046;stroke-linejoin:round;stroke-miterlimit:10;}
	.st12{fill:none;stroke:#00B200;stroke-linecap:round;stroke-linejoin:round;}
	.st13{fill:#00B200;}
	.st14{fill:none;stroke:#000000;stroke-width:0.7;stroke-linecap:round;stroke-linejoin:round;}
</style>
<g id="Clipped_grid" class="st0">
	<g>
		<defs>
			<rect id="SVGID_1_" x="-21" y="-29.7" width="248.2" height="165.2"/>
		</defs>
		<clipPath id="SVGID_00000053519087418638454610000004798327946572900761_">
			<use xlink:href="#SVGID_1_"  style="overflow:visible;"/>
		</clipPath>
		
			<g id="Grid_00000060005542146034257920000005065612243763103930_" style="opacity:0.25;clip-path:url(#SVGID_00000053519087418638454610000004798327946572900761_);">
			<g id="Horizontal_1_mm">
				<line class="st2" x1="-100.5" y1="-224.2" x2="701.5" y2="-224.2"/>
				<line class="st2" x1="-100.5" y1="-234.2" x2="701.5" y2="-234.2"/>
				<line class="st2" x1="-100.5" y1="367.1" x2="701.5" y2="367.1"/>
				<line class="st2" x1="-100.5" y1="357.1" x2="701.5" y2="357.1"/>
				<line class="st2" x1="-100.5" y1="347" x2="701.5" y2="347"/>
				<line class="st2" x1="-100.5" y1="337" x2="701.5" y2="337"/>
				<line class="st2" x1="-100.5" y1="327" x2="701.5" y2="327"/>
				<line class="st2" x1="-100.5" y1="317" x2="701.5" y2="317"/>
				<line class="st2" x1="-100.5" y1="307" x2="701.5" y2="307"/>
				<line class="st2" x1="-100.5" y1="296.9" x2="701.5" y2="296.9"/>
				<line class="st2" x1="-100.5" y1="286.9" x2="701.5" y2="286.9"/>
				<line class="st2" x1="-100.5" y1="276.9" x2="701.5" y2="276.9"/>
				<line class="st2" x1="-100.5" y1="266.9" x2="701.5" y2="266.9"/>
				<line class="st2" x1="-100.5" y1="256.9" x2="701.5" y2="256.9"/>
				<line class="st2" x1="-100.5" y1="246.8" x2="701.5" y2="246.8"/>
				<line class="st2" x1="-100.5" y1="236.8" x2="701.5" y2="236.8"/>
				<line class="st2" x1="-100.5" y1="226.8" x2="701.5" y2="226.8"/>
				<line class="st2" x1="-100.5" y1="216.8" x2="701.5" y2="216.8"/>
				<line class="st2" x1="-100.5" y1="206.7" x2="701.5" y2="206.7"/>
				<line class="st2" x1="-100.5" y1="196.7" x2="701.5" y2="196.7"/>
				<line class="st2" x1="-100.5" y1="186.7" x2="701.5" y2="186.7"/>
				<line class="st2" x1="-100.5" y1="176.7" x2="701.5" y2="176.7"/>
				<line class="st2" x1="-100.5" y1="166.7" x2="701.5" y2="166.7"/>
				<line class="st2" x1="-100.5" y1="156.6" x2="701.5" y2="156.6"/>
				<line class="st2" x1="-100.5" y1="146.6" x2="701.5" y2="146.6"/>
				<line class="st2" x1="-100.5" y1="136.6" x2="701.5" y2="136.6"/>
				<line class="st2" x1="-100.5" y1="126.6" x2="701.5" y2="126.6"/>
				<line class="st2" x1="-100.5" y1="116.6" x2="701.5" y2="116.6"/>
				<line class="st2" x1="-100.5" y1="106.5" x2="701.5" y2="106.5"/>
				<line class="st2" x1="-100.5" y1="96.5" x2="701.5" y2="96.5"/>
				<line class="st2" x1="-100.5" y1="86.5" x2="701.5" y2="86.5"/>
				<line class="st2" x1="-100.5" y1="76.5" x2="701.5" y2="76.5"/>
				<line class="st2" x1="-100.5" y1="66.4" x2="701.5" y2="66.4"/>
				<line class="st2" x1="-100.5" y1="56.4" x2="701.5" y2="56.4"/>
				<line class="st2" x1="-100.5" y1="46.4" x2="701.5" y2="46.4"/>
				<line class="st2" x1="-100.5" y1="36.4" x2="701.5" y2="36.4"/>
				<line class="st2" x1="-100.5" y1="26.4" x2="701.5" y2="26.4"/>
				<line class="st2" x1="-100.5" y1="16.3" x2="701.5" y2="16.3"/>
				<line class="st2" x1="-100.5" y1="6.3" x2="701.5" y2="6.3"/>
				<line class="st2" x1="-100.5" y1="-3.7" x2="701.5" y2="-3.7"/>
				<line class="st2" x1="-100.5" y1="-13.7" x2="701.5" y2="-13.7"/>
				<line class="st2" x1="-100.5" y1="-23.7" x2="701.5" y2="-23.7"/>
				<line class="st2" x1="-100.5" y1="-33.8" x2="701.5" y2="-33.8"/>
				<line class="st2" x1="-100.5" y1="-43.8" x2="701.5" y2="-43.8"/>
				<line class="st2" x1="-100.5" y1="-53.8" x2="701.5" y2="-53.8"/>
				<line class="st2" x1="-100.5" y1="-63.8" x2="701.5" y2="-63.8"/>
				<line class="st2" x1="-100.5" y1="-73.9" x2="701.5" y2="-73.9"/>
				<line class="st2" x1="-100.5" y1="-83.9" x2="701.5" y2="-83.9"/>
				<line class="st2" x1="-100.5" y1="-93.9" x2="701.5" y2="-93.9"/>
				<line class="st2" x1="-100.5" y1="-103.9" x2="701.5" y2="-103.9"/>
				<line class="st2" x1="-100.5" y1="-113.9" x2="701.5" y2="-113.9"/>
				<line class="st2" x1="-100.5" y1="-124" x2="701.5" y2="-124"/>
				<line class="st2" x1="-100.5" y1="-134" x2="701.5" y2="-134"/>
				<line class="st2" x1="-100.5" y1="-144" x2="701.5" y2="-144"/>
				<line class="st2" x1="-100.5" y1="-154" x2="701.5" y2="-154"/>
				<line class="st2" x1="-100.5" y1="-164" x2="701.5" y2="-164"/>
				<line class="st2" x1="-100.5" y1="-174.1" x2="701.5" y2="-174.1"/>
				<line class="st2" x1="-100.5" y1="-184.1" x2="701.5" y2="-184.1"/>
				<line class="st2" x1="-100.5" y1="-194.1" x2="701.5" y2="-194.1"/>
				<line class="st2" x1="-100.5" y1="-204.1" x2="701.5" y2="-204.1"/>
				<line class="st2" x1="-100.5" y1="-214.2" x2="701.5" y2="-214.2"/>
			</g>
			<g id="Vertical_1_mm">
				<g>
					<line class="st2" x1="-100.2" y1="367" x2="-100.2" y2="-234.5"/>
				</g>
				<line class="st2" x1="-90.2" y1="367" x2="-90.2" y2="-234.5"/>
				<line class="st2" x1="-80.2" y1="367" x2="-80.2" y2="-234.5"/>
				<line class="st2" x1="-70.1" y1="367" x2="-70.1" y2="-234.5"/>
				<line class="st2" x1="-60.1" y1="367" x2="-60.1" y2="-234.5"/>
				<line class="st2" x1="-50.1" y1="367" x2="-50.1" y2="-234.5"/>
				<line class="st2" x1="-40.1" y1="367" x2="-40.1" y2="-234.5"/>
				<line class="st2" x1="-30.1" y1="367" x2="-30.1" y2="-234.5"/>
				<line class="st2" x1="-20" y1="367" x2="-20" y2="-234.5"/>
				<line class="st2" x1="-10" y1="367" x2="-10" y2="-234.5"/>
				<line class="st2" x1="0" y1="367" x2="0" y2="-234.5"/>
				<line class="st2" x1="10" y1="367" x2="10" y2="-234.5"/>
				<line class="st2" x1="20" y1="367" x2="20" y2="-234.5"/>
				<line class="st2" x1="30.1" y1="367" x2="30.1" y2="-234.5"/>
				<line class="st2" x1="40.1" y1="367" x2="40.1" y2="-234.5"/>
				<line class="st2" x1="50.1" y1="367" x2="50.1" y2="-234.5"/>
				<line class="st2" x1="60.1" y1="367" x2="60.1" y2="-234.5"/>
				<line class="st2" x1="70.2" y1="367" x2="70.2" y2="-234.5"/>
				<line class="st2" x1="80.2" y1="367" x2="80.2" y2="-234.5"/>
				<line class="st2" x1="90.2" y1="367" x2="90.2" y2="-234.5"/>
				<line class="st2" x1="100.2" y1="367" x2="100.2" y2="-234.5"/>
				<line class="st2" x1="110.2" y1="367" x2="110.2" y2="-234.5"/>
				<line class="st2" x1="120.3" y1="367" x2="120.3" y2="-234.5"/>
				<line class="st2" x1="130.3" y1="367" x2="130.3" y2="-234.5"/>
				<line class="st2" x1="140.3" y1="367" x2="140.3" y2="-234.5"/>
				<line class="st2" x1="150.3" y1="367" x2="150.3" y2="-234.5"/>
				<line class="st2" x1="160.3" y1="367" x2="160.3" y2="-234.5"/>
				<line class="st2" x1="170.4" y1="367" x2="170.4" y2="-234.5"/>
				<line class="st2" x1="180.4" y1="367" x2="180.4" y2="-234.5"/>
				<line class="st2" x1="190.4" y1="367" x2="190.4" y2="-234.5"/>
				<line class="st2" x1="200.4" y1="367" x2="200.4" y2="-234.5"/>
				<line class="st2" x1="210.5" y1="367" x2="210.5" y2="-234.5"/>
				<line class="st2" x1="220.5" y1="367" x2="220.5" y2="-234.5"/>
				<line class="st2" x1="230.5" y1="367" x2="230.5" y2="-234.5"/>
				<line class="st2" x1="240.5" y1="367" x2="240.5" y2="-234.5"/>
				<line class="st2" x1="250.5" y1="367" x2="250.5" y2="-234.5"/>
				<line class="st2" x1="260.6" y1="367" x2="260.6" y2="-234.5"/>
				<line class="st2" x1="270.6" y1="367" x2="270.6" y2="-234.5"/>
				<line class="st2" x1="280.6" y1="367" x2="280.6" y2="-234.5"/>
				<line class="st2" x1="290.6" y1="367" x2="290.6" y2="-234.5"/>
				<line class="st2" x1="300.6" y1="367" x2="300.6" y2="-234.5"/>
				<line class="st2" x1="310.7" y1="367" x2="310.7" y2="-234.5"/>
				<line class="st2" x1="320.7" y1="367" x2="320.7" y2="-234.5"/>
				<line class="st2" x1="330.7" y1="367" x2="330.7" y2="-234.5"/>
				<line class="st2" x1="340.7" y1="367" x2="340.7" y2="-234.5"/>
				<line class="st2" x1="350.8" y1="367" x2="350.8" y2="-234.5"/>
				<line class="st2" x1="360.8" y1="367" x2="360.8" y2="-234.5"/>
				<line class="st2" x1="370.8" y1="367" x2="370.8" y2="-234.5"/>
				<line class="st2" x1="380.8" y1="367" x2="380.8" y2="-234.5"/>
				<line class="st2" x1="390.8" y1="367" x2="390.8" y2="-234.5"/>
				<line class="st2" x1="400.9" y1="367" x2="400.9" y2="-234.5"/>
				<line class="st2" x1="410.9" y1="367" x2="410.9" y2="-234.5"/>
				<line class="st2" x1="420.9" y1="367" x2="420.9" y2="-234.5"/>
				<line class="st2" x1="430.9" y1="367" x2="430.9" y2="-234.5"/>
				<line class="st2" x1="440.9" y1="367" x2="440.9" y2="-234.5"/>
				<line class="st2" x1="451" y1="367" x2="451" y2="-234.5"/>
				<line class="st2" x1="461" y1="367" x2="461" y2="-234.5"/>
				<line class="st2" x1="471" y1="367" x2="471" y2="-234.5"/>
				<line class="st2" x1="481" y1="367" x2="481" y2="-234.5"/>
				<line class="st2" x1="491.1" y1="367" x2="491.1" y2="-234.5"/>
				<line class="st2" x1="501.1" y1="367" x2="501.1" y2="-234.5"/>
				<line class="st2" x1="511.1" y1="367" x2="511.1" y2="-234.5"/>
				<line class="st2" x1="521.1" y1="367" x2="521.1" y2="-234.5"/>
				<line class="st2" x1="531.1" y1="367" x2="531.1" y2="-234.5"/>
				<line class="st2" x1="541.2" y1="367" x2="541.2" y2="-234.5"/>
				<line class="st2" x1="551.2" y1="367" x2="551.2" y2="-234.5"/>
				<line class="st2" x1="561.2" y1="367" x2="561.2" y2="-234.5"/>
				<line class="st2" x1="571.2" y1="367" x2="571.2" y2="-234.5"/>
				<line class="st2" x1="581.2" y1="367" x2="581.2" y2="-234.5"/>
				<line class="st2" x1="591.3" y1="367" x2="591.3" y2="-234.5"/>
				<line class="st2" x1="601.3" y1="367" x2="601.3" y2="-234.5"/>
				<line class="st2" x1="611.3" y1="367" x2="611.3" y2="-234.5"/>
				<line class="st2" x1="621.3" y1="367" x2="621.3" y2="-234.5"/>
				<line class="st2" x1="631.4" y1="367" x2="631.4" y2="-234.5"/>
				<line class="st2" x1="641.4" y1="367" x2="641.4" y2="-234.5"/>
				<line class="st2" x1="651.4" y1="367" x2="651.4" y2="-234.5"/>
				<line class="st2" x1="661.4" y1="367" x2="661.4" y2="-234.5"/>
				<line class="st2" x1="671.4" y1="367" x2="671.4" y2="-234.5"/>
				<line class="st2" x1="681.5" y1="367" x2="681.5" y2="-234.5"/>
				<line class="st2" x1="691.5" y1="367" x2="691.5" y2="-234.5"/>
				<line class="st2" x1="701.5" y1="367" x2="701.5" y2="-234.5"/>
			</g>
			<g id="Horizontal_5_mm_1_">
				<line class="st3" x1="-101.5" y1="367.1" x2="701.5" y2="367.1"/>
				<line class="st3" x1="-101.5" y1="317" x2="701.5" y2="317"/>
				<line class="st3" x1="-101.5" y1="266.9" x2="701.5" y2="266.9"/>
				<line class="st3" x1="-101.5" y1="216.8" x2="701.5" y2="216.8"/>
				<line class="st3" x1="-101.5" y1="166.7" x2="701.5" y2="166.7"/>
				<line class="st3" x1="-101.5" y1="116.6" x2="701.5" y2="116.6"/>
				<line class="st3" x1="-101.5" y1="66.4" x2="701.5" y2="66.4"/>
				<line class="st3" x1="-101.5" y1="16.3" x2="701.5" y2="16.3"/>
				<line class="st3" x1="-101.5" y1="-33.8" x2="701.5" y2="-33.8"/>
				<line class="st3" x1="-101.5" y1="-83.9" x2="701.5" y2="-83.9"/>
				<line class="st3" x1="-101.5" y1="-134" x2="701.5" y2="-134"/>
			</g>
			<g id="Vertical_5_mm">
				<line class="st3" x1="-100.2" y1="367" x2="-100.2" y2="-235.4"/>
				<line class="st3" x1="-50.1" y1="367" x2="-50.1" y2="-235.4"/>
				<line class="st3" x1="0" y1="367" x2="0" y2="-235.4"/>
				<line class="st3" x1="50.1" y1="367" x2="50.1" y2="-235.4"/>
				<line class="st3" x1="100.2" y1="367" x2="100.2" y2="-235.4"/>
				<line class="st3" x1="150.3" y1="367" x2="150.3" y2="-235.4"/>
				<line class="st3" x1="200.4" y1="367" x2="200.4" y2="-235.4"/>
				<line class="st3" x1="250.5" y1="367" x2="250.5" y2="-235.4"/>
				<line class="st3" x1="300.6" y1="367" x2="300.6" y2="-235.4"/>
				<line class="st3" x1="350.8" y1="367" x2="350.8" y2="-235.4"/>
				<line class="st3" x1="400.9" y1="367" x2="400.9" y2="-235.4"/>
				<line class="st3" x1="451" y1="367" x2="451" y2="-235.4"/>
				<line class="st3" x1="501.1" y1="367" x2="501.1" y2="-235.4"/>
				<line class="st3" x1="551.2" y1="367" x2="551.2" y2="-235.4"/>
				<line class="st3" x1="601.3" y1="367" x2="601.3" y2="-235.4"/>
				<line class="st3" x1="651.4" y1="367" x2="651.4" y2="-235.4"/>
				<line class="st3" x1="701.5" y1="367" x2="701.5" y2="-235.4"/>
			</g>
			<g id="Horizontal_10_mm">
				<line id="_x31_9_1_" class="st4" x1="-101.5" y1="367.1" x2="701.5" y2="367.1"/>
				<line id="_x32_0" class="st4" x1="-101.5" y1="266.9" x2="701.5" y2="266.9"/>
				<line id="_x32_1" class="st4" x1="-101.5" y1="166.7" x2="701.5" y2="166.7"/>
				<line id="_x32_2" class="st4" x1="-101.5" y1="66.4" x2="701.5" y2="66.4"/>
				<line id="_x32_3" class="st4" x1="-101.5" y1="-33.8" x2="701.5" y2="-33.8"/>
				<line id="_x32_4" class="st4" x1="-101.5" y1="-134" x2="701.5" y2="-134"/>
				<line id="_x32_5" class="st4" x1="-101.5" y1="-234.2" x2="701.5" y2="-234.2"/>
			</g>
			<g id="Vertical_10_mm">
				<line id="_x30_" class="st4" x1="-100.2" y1="367" x2="-100.2" y2="-235.4"/>
				<line id="_x31_" class="st4" x1="0" y1="367" x2="0" y2="-235.4"/>
				<line id="_x32_" class="st4" x1="100.2" y1="367" x2="100.2" y2="-235.4"/>
				<line id="_x33_" class="st4" x1="200.4" y1="367" x2="200.4" y2="-235.4"/>
				<line id="_x34_" class="st4" x1="300.6" y1="367" x2="300.6" y2="-235.4"/>
				<line id="_x35_" class="st4" x1="400.9" y1="367" x2="400.9" y2="-235.4"/>
				<line id="_x36_" class="st4" x1="501.1" y1="367" x2="501.1" y2="-235.4"/>
				<line id="_x37_" class="st4" x1="601.3" y1="367" x2="601.3" y2="-235.4"/>
				<line id="_x38_" class="st4" x1="701.5" y1="367" x2="701.5" y2="-235.4"/>
			</g>
		</g>
	</g>
</g>
<g id="base_00000088093329564282275610000014112663571807533752_">
	<g id="base">
		<g class="st5">
			<path class="st6" d="M261,113.7c2.2-0.4,3.9-2.2,4.5-4.8c-0.6,0.7-1.3,0.9-2.2,0.9c-1.6,0-2.7-1.3-2.7-3.3c0-2.2,1.3-3.9,3.1-3.9
				c0.9,0,1.7,0.5,2.3,1.2c0.6,0.8,0.9,2,0.9,3.4c0,1.9-0.6,3.7-1.8,4.9c-1.3,1.3-2.2,1.7-4.1,1.9L261,113.7z M265.6,107.2
				c0-2.7-0.7-4.2-2-4.2c-0.4,0-0.8,0.2-1.1,0.6c-0.3,0.4-0.5,1.4-0.5,2.3c0,1.9,0.7,3.2,1.8,3.2c0.6,0,1.7-0.4,1.7-1.2V107.2z"/>
			<path class="st6" d="M271.3,113.9c-2.5,0-3.3-3-3.3-5.7c0-2.9,1-5.6,3.4-5.6c1.9,0,3.3,2.3,3.3,5.7
				C274.6,111.1,273.7,113.9,271.3,113.9z M271.3,103c-1.2,0-1.9,1.9-1.9,5.3c0,3.3,0.6,5.2,1.9,5.2c1.3,0,1.9-1.9,1.9-5.1
				C273.2,104.9,272.6,103,271.3,103z"/>
			<path class="st6" d="M278.7,113.9c-2.5,0-3.3-3-3.3-5.7c0-2.9,1-5.6,3.4-5.6c1.9,0,3.3,2.3,3.3,5.7
				C282,111.1,281.1,113.9,278.7,113.9z M278.6,103c-1.2,0-1.9,1.9-1.9,5.3c0,3.3,0.6,5.2,1.9,5.2c1.3,0,1.9-1.9,1.9-5.1
				C280.6,104.9,279.9,103,278.6,103z"/>
			<path class="st6" d="M292.4,113.7l0.1-2.6c1.3-0.3,2.1-2.1,2.1-3.9c0-2.3-1.1-3.9-3-3.9c-2,0-3,2-3,3.9c0,1.6,0.8,3.5,2.1,3.9
				l0.1,2.6h-4.2v-2.8h0.4c0,1,0.3,1.2,0.9,1.2h2.2l0-0.6c-2.1-0.6-3.1-2-3.1-4.3c0-2.2,1.7-4.6,4.7-4.6c2.9,0,4.7,2.1,4.7,4.6
				c0,2.4-1.2,3.7-3.2,4.3l0,0.6h2.3c0.6,0,0.9-0.4,0.9-1.2h0.4v2.8L292.4,113.7L292.4,113.7z"/>
		</g>
		<g class="st7">
			<path class="st8" d="M107.2-102.3h-11v-0.4c1.2-0.1,1.4-0.4,1.8-1.9l2.6-10.5c0.2-0.6,0.2-1.1,0.2-1.5c0-0.7-0.3-0.9-1.7-1v-0.4
				h5.9v0.4c-1.3,0.1-1.8,0.5-2.2,1.8l-2.6,10.3c-0.1,0.6-0.2,1-0.2,1.3c0,0.7,0.5,1,2.3,1c2.2,0,2.8-0.1,3.9-0.9
				c0.7-0.5,1.2-1.3,1.8-2.7l0.4,0.1L107.2-102.3z"/>
		</g>
		<g class="st5">
			<path class="st6" d="M225.2,7.6V7.3c1.1-0.1,1.4-0.4,1.4-1.3v-7.3c0-0.6-0.1-0.8-0.4-0.8c-0.1,0-0.4,0.1-0.7,0.2l-0.4,0.2V-2
				l2.6-1.5l0.1,0v9.8c0,0.7,0.3,1,1.4,1v0.2L225.2,7.6L225.2,7.6z"/>
			<path class="st6" d="M242.7,7.6V7.3c0.8-0.1,1-0.3,1-1.2V2.7c0-1.3-0.3-1.8-1.1-1.8c-0.7,0-1.1,0.3-1.6,1V6
				c0,1.1,0.2,1.3,1.1,1.3v0.2h-3.3V7.3c0.8-0.1,1-0.2,1-1.2V2.7c0-1.1-0.3-1.8-1-1.8c-0.5,0-1.3,0.3-1.6,0.7
				c-0.1,0.1-0.2,0.2-0.2,0.3v4.5c0,0.7,0.2,0.9,1,0.9v0.2h-3.3V7.3c0.8,0,1-0.2,1-1.2V2.1c0-0.8-0.1-1.1-0.5-1.1
				c-0.2,0-0.3,0-0.5,0.1V0.8c0.8-0.2,1.3-0.4,2.1-0.7l0.1,0v1.2h0c1-1.1,1.6-1.3,2.3-1.3c0.8,0,1.3,0.4,1.6,1.4
				c0.8-0.9,1.6-1.4,2.4-1.4c1.2,0,1.7,1,1.7,2.9v3.3c0,0.7,0.2,0.9,0.6,1l0.4,0v0.2L242.7,7.6L242.7,7.6z"/>
			<path class="st6" d="M252.7,7.6V7.3c0.5,0,0.6,0,0.8-0.1c0.1-0.1,0.2-0.2,0.2-0.4c0-0.2-0.1-0.7-0.3-1.1L252.8,4h-3.9l-0.7,1.9
				c-0.1,0.2-0.1,0.5-0.1,0.7c0,0.5,0.3,0.7,1,0.7v0.3h-2.9V7.3c0.9-0.1,1-0.4,1.9-2.7l3-8h0.3l3.6,9.2c0.4,1.1,0.6,1.4,1.4,1.5v0.3
				C256.4,7.6,252.7,7.6,252.7,7.6z M250.9-1.1l-1.7,4.5h3.4L250.9-1.1z"/>
		</g>
		<g class="st9">
			<circle class="st10" cx="70.5" cy="16.3" r="2.1"/>
			<circle class="st10" cx="20" cy="16.3" r="2.1"/>
			<circle class="st10" cx="22.2" cy="2.2" r="2.1"/>
		</g>
	</g>
	<rect x="94.3" y="39.4" class="st11" width="17" height="49.7"/>
	<g>
		<g>
			<line class="st12" x1="44.4" y1="52.3" x2="68.6" y2="28"/>
			<g>
				<polygon class="st13" points="69.2,33.2 68.2,33.2 68.4,28.3 63.4,28.5 63.4,27.5 69.4,27.2 				"/>
			</g>
		</g>
	</g>
	<line class="st14" x1="17" y1="14.7" x2="206.2" y2="50.9"/>
	<line class="st14" x1="0.2" y1="36.3" x2="176.1" y2="114.7"/>
	<line class="st14" x1="-18.8" y1="133" x2="88.1" y2="-27.3"/>
	<line class="st14" x1="114.7" y1="173.7" x2="101.3" y2="-18.5"/>
	<line class="st14" x1="30.9" y1="124.4" x2="202.2" y2="36.3"/>
	<line class="st14" x1="69.3" y1="-46.1" x2="234.6" y2="52.9"/>
	<g>
		<g>
			<line class="st12" x1="59.6" y1="58.7" x2="87.4" y2="30.9"/>
			<g>
				<polygon class="st13" points="87.9,36.2 86.9,36.1 87.1,31.2 82.2,31.4 82.1,30.4 88.1,30.2 				"/>
			</g>
		</g>
	</g>
	<g>
		<g>
			<line class="st12" x1="74.8" y1="66.5" x2="102.8" y2="38.6"/>
			<g>
				<polygon class="st13" points="103.3,43.8 102.3,43.8 102.5,38.8 97.6,39 97.5,38 103.5,37.8 				"/>
			</g>
		</g>
	</g>
	<g>
		<g>
			<line class="st12" x1="90.5" y1="73.5" x2="104.6" y2="59.4"/>
			<g>
				<polygon class="st13" points="105.1,64.6 104.1,64.6 104.3,59.6 99.4,59.8 99.3,58.8 105.3,58.6 				"/>
			</g>
		</g>
	</g>
	<g>
		<g>
			<line class="st12" x1="123.9" y1="74.6" x2="109.3" y2="52.1"/>
			<g>
				<polygon class="st13" points="114.5,52.6 114.3,53.6 109.5,52.4 108.7,57.3 107.7,57.1 108.7,51.2 				"/>
			</g>
		</g>
	</g>
	<g>
		<g>
			<line class="st12" x1="136.9" y1="67.8" x2="117.2" y2="37.3"/>
			<g>
				<polygon class="st13" points="122.4,37.9 122.1,38.9 117.4,37.7 116.5,42.5 115.5,42.4 116.6,36.4 				"/>
			</g>
		</g>
	</g>
	<g>
		<g>
			<line class="st12" x1="150.3" y1="60.6" x2="137.4" y2="40.7"/>
			<g>
				<polygon class="st13" points="142.6,41.2 142.4,42.2 137.6,41 136.8,45.8 135.8,45.7 136.8,39.8 				"/>
			</g>
		</g>
	</g>
	<g>
		<g>
			<line class="st12" x1="161.7" y1="54.2" x2="154.8" y2="43.6"/>
			<g>
				<polygon class="st13" points="160.1,44.1 159.8,45.1 155,43.9 154.2,48.8 153.2,48.6 154.2,42.7 				"/>
			</g>
		</g>
	</g>
</g>
</svg>
