<?xml version="1.0" encoding="utf-8"?>
<!-- Generator: Adobe Illustrator 26.0.1, SVG Export Plug-In . SVG Version: 6.00 Build 0)  -->
<svg version="1.1" xmlns="http://www.w3.org/2000/svg" xmlns:xlink="http://www.w3.org/1999/xlink" x="0px" y="0px"
	 viewBox="0 0 404.3648 186.8516" style="enable-background:new 0 0 404.3648 186.8516;" xml:space="preserve">
<style type="text/css">
	.st0{opacity:0.5;}
	.st1{opacity:0.25;clip-path:url(#SVGID_00000170273773653545735200000011490401277616327085_);}
	.st2{fill:none;stroke:#00ABEB;stroke-width:0.2111;stroke-miterlimit:10;}
	.st3{fill:none;stroke:#00ABEB;stroke-width:0.4221;stroke-miterlimit:10;}
	.st4{fill:none;stroke:#00ABEB;stroke-width:0.9849;stroke-miterlimit:10;}
	.st5{fill:none;stroke:#000000;stroke-width:2;stroke-miterlimit:10;}
	.st6{fill:none;stroke:#00B200;stroke-width:0.5;stroke-miterlimit:10;stroke-dasharray:12;}
	.st7{fill:none;stroke:#00B200;stroke-width:2;stroke-miterlimit:10;}
	.st8{fill:#00B200;}
	.st9{fill:#FF0000;}
	.st10{fill:none;stroke:#FF0000;stroke-width:1.3251;stroke-miterlimit:10;stroke-dasharray:39.7544,39.7544;}
	.st11{fill:none;stroke:#FF0000;stroke-width:1.1043;}
	.st12{fill:#FFFFFF;stroke:#FF0000;stroke-width:1.1043;}
	.st13{fill:#0000FF;}
	.st14{fill:none;stroke:#0000FF;stroke-width:1.3251;stroke-miterlimit:10;stroke-dasharray:39.7544,39.7544;}
	.st15{fill:none;stroke:#0000FF;stroke-width:2;stroke-miterlimit:10;}
</style>
<g id="Graph_paper" class="st0">
	<g id="Clipped_grid">
		<defs>
			<rect id="SVGID_1_" x="-258.4049" y="-240.1472" width="815.4111" height="609.5706"/>
		</defs>
		<clipPath id="SVGID_00000021811441261493905620000014178263223185378950_">
			<use xlink:href="#SVGID_1_"  style="overflow:visible;"/>
		</clipPath>
		
			<g id="Grid_00000060005542146034257920000005065612243763103930_" style="opacity:0.25;clip-path:url(#SVGID_00000021811441261493905620000014178263223185378950_);">
			<g id="Horizontal_1_mm">
				<line class="st2" x1="-254.429" y1="-224.0258" x2="547.5298" y2="-224.0258"/>
				<line class="st2" x1="-254.429" y1="-234.0484" x2="547.5298" y2="-234.0484"/>
				<line class="st2" x1="-254.429" y1="367.2386" x2="547.5298" y2="367.2386"/>
				<line class="st2" x1="-254.429" y1="357.2159" x2="547.5298" y2="357.2159"/>
				<line class="st2" x1="-254.429" y1="347.1968" x2="547.5298" y2="347.1968"/>
				<line class="st2" x1="-254.429" y1="337.1745" x2="547.5298" y2="337.1745"/>
				<line class="st2" x1="-254.429" y1="327.1518" x2="547.5298" y2="327.1518"/>
				<line class="st2" x1="-254.429" y1="317.1326" x2="547.5298" y2="317.1326"/>
				<line class="st2" x1="-254.429" y1="307.1103" x2="547.5298" y2="307.1103"/>
				<line class="st2" x1="-254.429" y1="297.0912" x2="547.5298" y2="297.0912"/>
				<line class="st2" x1="-254.429" y1="287.0667" x2="547.5298" y2="287.0667"/>
				<line class="st2" x1="-254.429" y1="277.0444" x2="547.5298" y2="277.0444"/>
				<line class="st2" x1="-254.429" y1="267.0253" x2="547.5298" y2="267.0253"/>
				<line class="st2" x1="-254.429" y1="257.0026" x2="547.5298" y2="257.0026"/>
				<line class="st2" x1="-254.429" y1="246.9803" x2="547.5298" y2="246.9803"/>
				<line class="st2" x1="-254.429" y1="236.9611" x2="547.5298" y2="236.9611"/>
				<line class="st2" x1="-254.429" y1="226.9384" x2="547.5298" y2="226.9384"/>
				<line class="st2" x1="-254.429" y1="216.9161" x2="547.5298" y2="216.9161"/>
				<line class="st2" x1="-254.429" y1="206.897" x2="547.5298" y2="206.897"/>
				<line class="st2" x1="-254.429" y1="196.8743" x2="547.5298" y2="196.8743"/>
				<line class="st2" x1="-254.429" y1="186.8516" x2="547.5298" y2="186.8516"/>
				<line class="st2" x1="-254.429" y1="176.8328" x2="547.5298" y2="176.8328"/>
				<line class="st2" x1="-254.429" y1="166.8101" x2="547.5298" y2="166.8101"/>
				<line class="st2" x1="-254.429" y1="156.786" x2="547.5298" y2="156.786"/>
				<line class="st2" x1="-254.429" y1="146.7669" x2="547.5298" y2="146.7669"/>
				<line class="st2" x1="-254.429" y1="136.7442" x2="547.5298" y2="136.7442"/>
				<line class="st2" x1="-254.429" y1="126.7251" x2="547.5298" y2="126.7251"/>
				<line class="st2" x1="-254.429" y1="116.7027" x2="547.5298" y2="116.7027"/>
				<line class="st2" x1="-254.429" y1="106.6801" x2="547.5298" y2="106.6801"/>
				<line class="st2" x1="-254.429" y1="96.6609" x2="547.5298" y2="96.6609"/>
				<line class="st2" x1="-254.429" y1="86.6386" x2="547.5298" y2="86.6386"/>
				<line class="st2" x1="-254.429" y1="76.6159" x2="547.5298" y2="76.6159"/>
				<line class="st2" x1="-254.429" y1="66.5968" x2="547.5298" y2="66.5968"/>
				<line class="st2" x1="-254.429" y1="56.5744" x2="547.5298" y2="56.5744"/>
				<line class="st2" x1="-254.429" y1="46.5518" x2="547.5298" y2="46.5518"/>
				<line class="st2" x1="-254.429" y1="36.5326" x2="547.5298" y2="36.5326"/>
				<line class="st2" x1="-254.429" y1="26.5099" x2="547.5298" y2="26.5099"/>
				<line class="st2" x1="-254.429" y1="16.4876" x2="547.5298" y2="16.4876"/>
				<line class="st2" x1="-254.429" y1="6.4685" x2="547.5298" y2="6.4685"/>
				<line class="st2" x1="-254.429" y1="-3.5542" x2="547.5298" y2="-3.5542"/>
				<line class="st2" x1="-254.429" y1="-13.5765" x2="547.5298" y2="-13.5765"/>
				<line class="st2" x1="-254.429" y1="-23.5957" x2="547.5298" y2="-23.5957"/>
				<line class="st2" x1="-254.429" y1="-33.6201" x2="547.5298" y2="-33.6201"/>
				<line class="st2" x1="-254.429" y1="-43.6389" x2="547.5298" y2="-43.6389"/>
				<line class="st2" x1="-254.429" y1="-53.6616" x2="547.5298" y2="-53.6616"/>
				<line class="st2" x1="-254.429" y1="-63.6843" x2="547.5298" y2="-63.6843"/>
				<line class="st2" x1="-254.429" y1="-73.7031" x2="547.5298" y2="-73.7031"/>
				<line class="st2" x1="-254.429" y1="-83.7257" x2="547.5298" y2="-83.7257"/>
				<line class="st2" x1="-254.429" y1="-93.7484" x2="547.5298" y2="-93.7484"/>
				<line class="st2" x1="-254.429" y1="-103.7676" x2="547.5298" y2="-103.7676"/>
				<line class="st2" x1="-254.429" y1="-113.7899" x2="547.5298" y2="-113.7899"/>
				<line class="st2" x1="-254.429" y1="-123.8126" x2="547.5298" y2="-123.8126"/>
				<line class="st2" x1="-254.429" y1="-133.8317" x2="547.5298" y2="-133.8317"/>
				<line class="st2" x1="-254.429" y1="-143.854" x2="547.5298" y2="-143.854"/>
				<line class="st2" x1="-254.429" y1="-153.8767" x2="547.5298" y2="-153.8767"/>
				<line class="st2" x1="-254.429" y1="-163.8959" x2="547.5298" y2="-163.8959"/>
				<line class="st2" x1="-254.429" y1="-173.92" x2="547.5298" y2="-173.92"/>
				<line class="st2" x1="-254.429" y1="-183.9391" x2="547.5298" y2="-183.9391"/>
				<line class="st2" x1="-254.429" y1="-193.9618" x2="547.5298" y2="-193.9618"/>
				<line class="st2" x1="-254.429" y1="-203.9842" x2="547.5298" y2="-203.9842"/>
				<line class="st2" x1="-254.429" y1="-214.0033" x2="547.5298" y2="-214.0033"/>
			</g>
			<g id="Vertical_1_mm">
				<g>
					<line class="st2" x1="-254.1631" y1="367.1898" x2="-254.1631" y2="-234.3142"/>
				</g>
				<line class="st2" x1="-244.1441" y1="367.1898" x2="-244.1441" y2="-234.3142"/>
				<line class="st2" x1="-234.1215" y1="367.1898" x2="-234.1215" y2="-234.3142"/>
				<line class="st2" x1="-224.099" y1="367.1898" x2="-224.099" y2="-234.3142"/>
				<line class="st2" x1="-214.08" y1="367.1898" x2="-214.08" y2="-234.3142"/>
				<line class="st2" x1="-204.0573" y1="367.1898" x2="-204.0573" y2="-234.3142"/>
				<line class="st2" x1="-194.0347" y1="367.1898" x2="-194.0347" y2="-234.3142"/>
				<line class="st2" x1="-184.0159" y1="367.1898" x2="-184.0159" y2="-234.3142"/>
				<line class="st2" x1="-173.9914" y1="367.1898" x2="-173.9914" y2="-234.3142"/>
				<line class="st2" x1="-163.9723" y1="367.1898" x2="-163.9723" y2="-234.3142"/>
				<line class="st2" x1="-153.95" y1="367.1898" x2="-153.95" y2="-234.3142"/>
				<line class="st2" x1="-143.9273" y1="367.1898" x2="-143.9273" y2="-234.3142"/>
				<line class="st2" x1="-133.9081" y1="367.1898" x2="-133.9081" y2="-234.3142"/>
				<line class="st2" x1="-123.8858" y1="367.1898" x2="-123.8858" y2="-234.3142"/>
				<line class="st2" x1="-113.8631" y1="367.1898" x2="-113.8631" y2="-234.3142"/>
				<line class="st2" x1="-103.844" y1="367.1898" x2="-103.844" y2="-234.3142"/>
				<line class="st2" x1="-93.8213" y1="367.1898" x2="-93.8213" y2="-234.3142"/>
				<line class="st2" x1="-83.799" y1="367.1898" x2="-83.799" y2="-234.3142"/>
				<line class="st2" x1="-73.7798" y1="367.1898" x2="-73.7798" y2="-234.3142"/>
				<line class="st2" x1="-63.7572" y1="367.1898" x2="-63.7572" y2="-234.3142"/>
				<line class="st2" x1="-53.7348" y1="367.1898" x2="-53.7348" y2="-234.3142"/>
				<line class="st2" x1="-43.7157" y1="367.1898" x2="-43.7157" y2="-234.3142"/>
				<line class="st2" x1="-33.693" y1="367.1898" x2="-33.693" y2="-234.3142"/>
				<line class="st2" x1="-23.6707" y1="367.1898" x2="-23.6707" y2="-234.3142"/>
				<line class="st2" x1="-13.6498" y1="367.1898" x2="-13.6498" y2="-234.3142"/>
				<line class="st2" x1="-3.6271" y1="367.1898" x2="-3.6271" y2="-234.3142"/>
				<line class="st2" x1="6.3917" y1="367.1898" x2="6.3917" y2="-234.3142"/>
				<line class="st2" x1="16.4144" y1="367.1898" x2="16.4144" y2="-234.3142"/>
				<line class="st2" x1="26.4371" y1="367.1898" x2="26.4371" y2="-234.3142"/>
				<line class="st2" x1="36.4558" y1="367.1898" x2="36.4558" y2="-234.3142"/>
				<line class="st2" x1="46.4785" y1="367.1898" x2="46.4785" y2="-234.3142"/>
				<line class="st2" x1="56.5012" y1="367.1898" x2="56.5012" y2="-234.3142"/>
				<line class="st2" x1="66.5203" y1="367.1898" x2="66.5203" y2="-234.3142"/>
				<line class="st2" x1="76.5427" y1="367.1898" x2="76.5427" y2="-234.3142"/>
				<line class="st2" x1="86.5654" y1="367.1898" x2="86.5654" y2="-234.3142"/>
				<line class="st2" x1="96.5845" y1="367.1898" x2="96.5845" y2="-234.3142"/>
				<line class="st2" x1="106.6068" y1="367.1898" x2="106.6068" y2="-234.3142"/>
				<line class="st2" x1="116.6295" y1="367.1898" x2="116.6295" y2="-234.3142"/>
				<line class="st2" x1="126.6486" y1="367.1898" x2="126.6486" y2="-234.3142"/>
				<line class="st2" x1="136.671" y1="367.1898" x2="136.671" y2="-234.3142"/>
				<line class="st2" x1="146.6901" y1="367.1898" x2="146.6901" y2="-234.3142"/>
				<line class="st2" x1="156.7146" y1="367.1898" x2="156.7146" y2="-234.3142"/>
				<line class="st2" x1="166.7369" y1="367.1898" x2="166.7369" y2="-234.3142"/>
				<line class="st2" x1="176.756" y1="367.1898" x2="176.756" y2="-234.3142"/>
				<line class="st2" x1="186.7787" y1="367.1898" x2="186.7787" y2="-234.3142"/>
				<line class="st2" x1="196.801" y1="367.1898" x2="196.801" y2="-234.3142"/>
				<line class="st2" x1="206.8202" y1="367.1898" x2="206.8202" y2="-234.3142"/>
				<line class="st2" x1="216.8428" y1="367.1898" x2="216.8428" y2="-234.3142"/>
				<line class="st2" x1="226.8652" y1="367.1898" x2="226.8652" y2="-234.3142"/>
				<line class="st2" x1="236.8843" y1="367.1898" x2="236.8843" y2="-234.3142"/>
				<line class="st2" x1="246.907" y1="367.1898" x2="246.907" y2="-234.3142"/>
				<line class="st2" x1="256.9293" y1="367.1898" x2="256.9293" y2="-234.3142"/>
				<line class="st2" x1="266.9485" y1="367.1898" x2="266.9485" y2="-234.3142"/>
				<line class="st2" x1="276.9712" y1="367.1898" x2="276.9712" y2="-234.3142"/>
				<line class="st2" x1="286.9935" y1="367.1898" x2="286.9935" y2="-234.3142"/>
				<line class="st2" x1="297.0126" y1="367.1898" x2="297.0126" y2="-234.3142"/>
				<line class="st2" x1="307.0371" y1="367.1898" x2="307.0371" y2="-234.3142"/>
				<line class="st2" x1="317.0562" y1="367.1898" x2="317.0562" y2="-234.3142"/>
				<line class="st2" x1="327.0785" y1="367.1898" x2="327.0785" y2="-234.3142"/>
				<line class="st2" x1="337.1012" y1="367.1898" x2="337.1012" y2="-234.3142"/>
				<line class="st2" x1="347.1204" y1="367.1898" x2="347.1204" y2="-234.3142"/>
				<line class="st2" x1="357.1427" y1="367.1898" x2="357.1427" y2="-234.3142"/>
				<line class="st2" x1="367.1654" y1="367.1898" x2="367.1654" y2="-234.3142"/>
				<line class="st2" x1="377.1845" y1="367.1898" x2="377.1845" y2="-234.3142"/>
				<line class="st2" x1="387.2068" y1="367.1898" x2="387.2068" y2="-234.3142"/>
				<line class="st2" x1="397.2295" y1="367.1898" x2="397.2295" y2="-234.3142"/>
				<line class="st2" x1="407.2487" y1="367.1898" x2="407.2487" y2="-234.3142"/>
				<line class="st2" x1="417.271" y1="367.1898" x2="417.271" y2="-234.3142"/>
				<line class="st2" x1="427.2937" y1="367.1898" x2="427.2937" y2="-234.3142"/>
				<line class="st2" x1="437.3128" y1="367.1898" x2="437.3128" y2="-234.3142"/>
				<line class="st2" x1="447.3355" y1="367.1898" x2="447.3355" y2="-234.3142"/>
				<line class="st2" x1="457.3578" y1="367.1898" x2="457.3578" y2="-234.3142"/>
				<line class="st2" x1="467.3787" y1="367.1898" x2="467.3787" y2="-234.3142"/>
				<line class="st2" x1="477.401" y1="367.1898" x2="477.401" y2="-234.3142"/>
				<line class="st2" x1="487.4202" y1="367.1898" x2="487.4202" y2="-234.3142"/>
				<line class="st2" x1="497.4429" y1="367.1898" x2="497.4429" y2="-234.3142"/>
				<line class="st2" x1="507.4655" y1="367.1898" x2="507.4655" y2="-234.3142"/>
				<line class="st2" x1="517.4843" y1="367.1898" x2="517.4843" y2="-234.3142"/>
				<line class="st2" x1="527.507" y1="367.1898" x2="527.507" y2="-234.3142"/>
				<line class="st2" x1="537.5297" y1="367.1898" x2="537.5297" y2="-234.3142"/>
				<line class="st2" x1="547.5485" y1="367.1898" x2="547.5485" y2="-234.3142"/>
			</g>
			<g id="Horizontal_5_mm_1_">
				<line class="st3" x1="-255.4009" y1="367.2386" x2="547.5298" y2="367.2386"/>
				<line class="st3" x1="-255.4009" y1="317.1326" x2="547.5298" y2="317.1326"/>
				<line class="st3" x1="-255.4009" y1="267.0253" x2="547.5298" y2="267.0253"/>
				<line class="st3" x1="-255.4009" y1="216.9161" x2="547.5298" y2="216.9161"/>
				<line class="st3" x1="-255.4009" y1="166.8101" x2="547.5298" y2="166.8101"/>
				<line class="st3" x1="-255.4009" y1="116.7027" x2="547.5298" y2="116.7027"/>
				<line class="st3" x1="-255.4009" y1="66.5968" x2="547.5298" y2="66.5968"/>
				<line class="st3" x1="-255.4009" y1="16.4876" x2="547.5298" y2="16.4876"/>
				<line class="st3" x1="-255.4009" y1="-33.6201" x2="547.5298" y2="-33.6201"/>
				<line class="st3" x1="-255.4009" y1="-83.7257" x2="547.5298" y2="-83.7257"/>
				<line class="st3" x1="-255.4009" y1="-133.8317" x2="547.5298" y2="-133.8317"/>
			</g>
			<g id="Vertical_5_mm">
				<line class="st3" x1="-254.1631" y1="367.1898" x2="-254.1631" y2="-235.2861"/>
				<line class="st3" x1="-204.0573" y1="367.1898" x2="-204.0573" y2="-235.2861"/>
				<line class="st3" x1="-153.95" y1="367.1898" x2="-153.95" y2="-235.2861"/>
				<line class="st3" x1="-103.844" y1="367.1898" x2="-103.844" y2="-235.2861"/>
				<line class="st3" x1="-53.7348" y1="367.1898" x2="-53.7348" y2="-235.2861"/>
				<line class="st3" x1="-3.6271" y1="367.1898" x2="-3.6271" y2="-235.2861"/>
				<line class="st3" x1="46.4785" y1="367.1898" x2="46.4785" y2="-235.2861"/>
				<line class="st3" x1="96.5845" y1="367.1898" x2="96.5845" y2="-235.2861"/>
				<line class="st3" x1="146.6901" y1="367.1898" x2="146.6901" y2="-235.2861"/>
				<line class="st3" x1="196.801" y1="367.1898" x2="196.801" y2="-235.2861"/>
				<line class="st3" x1="246.907" y1="367.1898" x2="246.907" y2="-235.2861"/>
				<line class="st3" x1="297.0126" y1="367.1898" x2="297.0126" y2="-235.2861"/>
				<line class="st3" x1="347.1204" y1="367.1898" x2="347.1204" y2="-235.2861"/>
				<line class="st3" x1="397.2295" y1="367.1898" x2="397.2295" y2="-235.2861"/>
				<line class="st3" x1="447.3355" y1="367.1898" x2="447.3355" y2="-235.2861"/>
				<line class="st3" x1="497.4429" y1="367.1898" x2="497.4429" y2="-235.2861"/>
				<line class="st3" x1="547.5485" y1="367.1898" x2="547.5485" y2="-235.2861"/>
			</g>
			<g id="Horizontal_10_mm">
				<line id="_x31_9_1_" class="st4" x1="-255.4009" y1="367.2386" x2="547.5298" y2="367.2386"/>
				<line id="_x32_0" class="st4" x1="-255.4009" y1="267.0253" x2="547.5298" y2="267.0253"/>
				<line id="_x32_1" class="st4" x1="-255.4009" y1="166.8101" x2="547.5298" y2="166.8101"/>
				<line id="_x32_2" class="st4" x1="-255.4009" y1="66.5968" x2="547.5298" y2="66.5968"/>
				<line id="_x32_3" class="st4" x1="-255.4009" y1="-33.6201" x2="547.5298" y2="-33.6201"/>
				<line id="_x32_4" class="st4" x1="-255.4009" y1="-133.8317" x2="547.5298" y2="-133.8317"/>
				<line id="_x32_5" class="st4" x1="-255.4009" y1="-234.0484" x2="547.5298" y2="-234.0484"/>
			</g>
			<g id="Vertical_10_mm">
				<line id="_x30_" class="st4" x1="-254.1631" y1="367.1898" x2="-254.1631" y2="-235.2861"/>
				<line id="_x31_" class="st4" x1="-153.95" y1="367.1898" x2="-153.95" y2="-235.2861"/>
				<line id="_x32_" class="st4" x1="-53.7348" y1="367.1898" x2="-53.7348" y2="-235.2861"/>
				<line id="_x33_" class="st4" x1="46.4785" y1="367.1898" x2="46.4785" y2="-235.2861"/>
				<line id="_x34_" class="st4" x1="146.6901" y1="367.1898" x2="146.6901" y2="-235.2861"/>
				<line id="_x35_" class="st4" x1="246.907" y1="367.1898" x2="246.907" y2="-235.2861"/>
				<line id="_x36_" class="st4" x1="347.1204" y1="367.1898" x2="347.1204" y2="-235.2861"/>
				<line id="_x37_" class="st4" x1="447.3355" y1="367.1898" x2="447.3355" y2="-235.2861"/>
				<line id="_x38_" class="st4" x1="547.5485" y1="367.1898" x2="547.5485" y2="-235.2861"/>
			</g>
		</g>
	</g>
</g>
<g id="Layer_2">
	<g>
		<g>
			<line class="st5" x1="46.4785" y1="166.8101" x2="140.3789" y2="10.3102"/>
			<g>
				<polygon points="143.9834,20.2012 142.0254,20.6174 139.9857,10.9694 130.5112,13.7088 129.957,11.7853 141.4966,8.4513 				"/>
			</g>
		</g>
	</g>
	<g>
		<path d="M160.7493,5.8569c-1.6699,0.208-1.9385,0.4766-2.4453,2.2949l-3.5771,12.791c-0.2686,0.9541-0.4473,1.6699-0.4473,2.2666
			c0,0.835,0.3574,0.9541,2.0566,1.1631v0.4766h-7.2744v-0.4766c1.6396-0.2988,2.0566-0.5674,2.5039-2.2363l3.5781-13.1494
			c0.209-0.7451,0.3877-1.3711,0.3877-1.8486c0-0.7451-0.4766-1.1924-2.1465-1.2812V5.3793h7.3643V5.8569z"/>
	</g>
	<line class="st6" x1="47.2268" y1="165.5631" x2="347.1204" y2="66.5968"/>
	<g>
		<g>
			<line class="st7" x1="47.2268" y1="165.563" x2="141.0337" y2="134.6063"/>
			<g>
				<polygon class="st8" points="137.3039,144.4507 135.5493,143.4872 140.3054,134.8487 131.3413,130.7359 132.1778,128.9173 
					143.0941,133.9285 				"/>
			</g>
		</g>
	</g>
	<g>
		<path class="st8" d="M136.0491,109.0111c0.5664-1.252,1.5801-2.833,2.8027-4.1143c0.7754-0.8057,1.6699-1.3418,2.3555-1.3418
			c0.835,0,1.4014,0.626,1.4014,1.5205s-0.5068,1.6104-1.4014,1.6104c-0.5371,0-0.7754-0.3281-1.0439-0.7754
			c-0.1787-0.2988-0.2676-0.418-0.4766-0.418c-0.5371,0-1.3721,0.9844-2.4453,2.8027c-1.2822,2.207-1.8184,3.3994-3.3096,8.4082
			h-2.2656l2.415-8.7061c0.417-1.5508,0.4766-1.8193,0.4766-2.4453s-0.5361-0.7744-1.1328-0.7744
			c-0.2383,0-0.4766,0.0293-0.9238,0.0889v-0.5068l4.6211-0.8047l0.0898,0.0596l-1.6396,6.4404L136.0491,109.0111z"/>
	</g>
	<g>
		<path class="st8" d="M140.8792,99.3158l-4.2637-8.6162h-0.0293l-4.2344,8.6162h-2.0273l5.3965-10.8828h1.7891l5.3965,10.8828
			H140.8792z"/>
	</g>
	<g>
		<path class="st9" d="M361.7278,25.0278l-1.1631,4.5322l-1.7891,6.5293c-0.9238,3.3994-1.9375,6.8584-1.9375,7.335
			c0,0.3574,0.1494,0.5967,0.5361,0.5967c0.5068,0,0.835-0.2686,2.4453-2.1172l0.3574,0.2979
			c-1.4609,2.1768-2.8916,3.3994-4.3828,3.3994c-0.7754,0-1.2227-0.5371-1.2227-1.3418c0-0.6855,0.0605-1.1631,0.3877-2.6533
			c-1.7588,2.9512-3.2793,3.9355-5.3066,3.9355c-1.9385,0-3.1904-1.2227-3.1904-3.4883c0-4.8301,4.8301-9.9883,8.7061-9.9883
			c1.252,0,1.7588,0.5664,1.9385,1.7295h0.0293l1.3418-4.8604c0.4473-1.5801,0.418-1.6992,0.418-2.1172
			c0-0.626-0.2686-0.7158-1.9082-0.7754v-0.5068c1.9082-0.1787,2.9814-0.3574,4.5615-0.6855L361.7278,25.0278z M355.2278,32.7504
			c-0.835,0-1.8779,0.5068-2.7129,1.3711c-1.9678,2.0879-3.459,5.3369-3.459,7.8125c0,1.3711,0.6855,2.1758,1.7295,2.1758
			c2.7432,0,5.8438-5.1279,5.8438-9.6602C356.6292,33.3764,355.9133,32.7504,355.2278,32.7504z"/>
		<path class="st9" d="M372.2532,25.7436c4.1445,0,6.2012,1.5205,6.2012,4.4727c0,1.6094-0.834,2.6533-1.9082,3.3691
			c-0.9238,0.626-2.0273,0.8945-3.3096,1.1631v0.0293c2.5645,0.7754,3.7568,2.3555,3.7568,4.4727
			c0,3.9951-3.3691,5.9629-8.1992,5.9629h-8.1094v-0.4766c1.6396-0.2393,1.9678-0.5371,2.4746-2.3857l3.6074-13
			c0.209-0.7451,0.3281-1.4609,0.3281-1.9082c0-0.8643-0.417-1.0732-2.2959-1.2217v-0.4775H372.2532z M367.0647,38.892
			c-0.5957,2.2666-1.043,3.7871-1.043,4.1748c0,0.835,0.7451,1.252,1.9971,1.252c3.4297,0,5.7549-1.7588,5.7549-5.0684
			c0-1.8486-0.8643-3.1611-1.998-3.5479c-0.5957-0.209-1.8779-0.3584-3.7568-0.3584L367.0647,38.892z M369.4504,34.3901
			c3.9062,0,5.9932-1.5801,5.9932-4.5322c0-2.2061-1.0732-3.2197-3.4883-3.2197c-1.1631,0-1.4609,0-1.7598,1.0732l-1.8779,6.6787
			H369.4504z"/>
	</g>
	<g>
		<g>
			<line class="st10" x1="365.1537" y1="19.2229" x2="377.0168" y2="19.2229"/>
			<g>
				<polygon class="st9" points="372.6259,24.6425 371.722,23.6719 376.5082,19.2242 371.722,14.7751 372.6259,13.8045 
					378.4539,19.2242 				"/>
			</g>
		</g>
	</g>
	<g id="into">
		<circle class="st11" cx="346.0146" cy="67.2883" r="11.0429"/>
		<path class="st12" d="M338.206,58.9277l15.6171,15.6171 M338.206,75.3256l15.6171-15.6171"/>
	</g>
	<g>
		<path class="st13" d="M60.5227,82.4594l-1.1631,4.5322l-1.7891,6.5293c-0.9238,3.3994-1.9375,6.8584-1.9375,7.335
			c0,0.3574,0.1494,0.5967,0.5361,0.5967c0.5068,0,0.835-0.2686,2.4453-2.1172l0.3574,0.2979
			c-1.4609,2.1768-2.8916,3.3994-4.3828,3.3994c-0.7754,0-1.2227-0.5371-1.2227-1.3418c0-0.6855,0.0605-1.1631,0.3877-2.6533
			c-1.7588,2.9512-3.2793,3.9355-5.3066,3.9355c-1.9385,0-3.1904-1.2227-3.1904-3.4883c0-4.8301,4.8301-9.9883,8.7061-9.9883
			c1.252,0,1.7588,0.5664,1.9385,1.7295h0.0293l1.3418-4.8604c0.4473-1.5801,0.418-1.6992,0.418-2.1172
			c0-0.626-0.2686-0.7158-1.9082-0.7754v-0.5068c1.9082-0.1787,2.9814-0.3574,4.5615-0.6855L60.5227,82.4594z M54.0227,90.182
			c-0.835,0-1.8779,0.5068-2.7129,1.3711c-1.9678,2.0879-3.459,5.3369-3.459,7.8125c0,1.3711,0.6855,2.1758,1.7295,2.1758
			c2.7432,0,5.8438-5.1279,5.8438-9.6602C55.4241,90.808,54.7082,90.182,54.0227,90.182z"/>
		<path class="st13" d="M63.4748,99.8725c-0.1494,0.5361-0.2383,1.043-0.2383,1.2812c0,0.3584,0.208,0.5371,0.5068,0.5371
			c0.4473,0,1.1328-0.4775,1.9971-1.6992l0.7461-1.0439l0.417,0.2979c-1.7891,2.833-2.8926,3.7275-4.5019,3.7275
			c-0.9541,0-1.4609-0.5664-1.4609-1.6699c0-0.2383,0.0293-0.5967,0.1191-0.8945l4.085-15.623
			c0.0889-0.2988,0.0889-0.4775,0.0889-0.5664c0-0.3584-0.5068-0.6562-1.4609-0.6562h-0.5361v-0.4766
			c1.7588-0.209,2.8623-0.418,4.6211-0.8057l0.1787,0.1494L63.4748,99.8725z"/>
	</g>
	<g>
		<g>
			<line class="st14" x1="59.5316" y1="74.2224" x2="71.3946" y2="74.2224"/>
			<g>
				<polygon class="st13" points="67.0038,79.6421 66.0999,78.6715 70.8861,74.2237 66.0999,69.7746 67.0038,68.8041 
					72.8318,74.2237 				"/>
			</g>
		</g>
	</g>
	<g>
		<g>
			<line class="st15" x1="46.4785" y1="166.8101" x2="105.4909" y2="68.4567"/>
			<g>
				<polygon class="st13" points="109.0953,78.3477 107.1373,78.7638 105.0976,69.1159 95.6231,71.8553 95.069,69.9318 
					106.6085,66.5978 				"/>
			</g>
		</g>
	</g>
	<g>
		<path class="st8" d="M236.7747,118.932c0.5664-1.252,1.5801-2.833,2.8027-4.1143c0.7754-0.8057,1.6699-1.3418,2.3555-1.3418
			c0.835,0,1.4014,0.626,1.4014,1.5205s-0.5068,1.6104-1.4014,1.6104c-0.5371,0-0.7754-0.3281-1.0439-0.7754
			c-0.1787-0.2988-0.2676-0.418-0.4766-0.418c-0.5371,0-1.3721,0.9844-2.4453,2.8027c-1.2822,2.207-1.8184,3.3994-3.3096,8.4082
			h-2.2656l2.415-8.7061c0.417-1.5508,0.4766-1.8193,0.4766-2.4453s-0.5361-0.7744-1.1328-0.7744
			c-0.2383,0-0.4766,0.0293-0.9238,0.0889v-0.5068l4.6211-0.8047l0.0898,0.0596l-1.6396,6.4404L236.7747,118.932z"/>
	</g>
	<g>
	</g>
</g>
</svg>
