<?xml version="1.0" encoding="utf-8"?>
<!-- Generator: Adobe Illustrator 26.0.1, SVG Export Plug-In . SVG Version: 6.00 Build 0)  -->
<svg version="1.1" xmlns="http://www.w3.org/2000/svg" xmlns:xlink="http://www.w3.org/1999/xlink" x="0px" y="0px"
	 viewBox="0 0 187.577 142.926" enable-background="new 0 0 187.577 142.926" xml:space="preserve">
<g id="Layer_8" opacity="0.5">
	<g id="Clipped_grid">
		<defs>
			<rect id="SVGID_1_" x="-6.11" y="-5.741" width="199.215" height="153.416"/>
		</defs>
		<clipPath id="SVGID_00000078046828778844366170000004620103868402754712_">
			<use xlink:href="#SVGID_1_"  overflow="visible"/>
		</clipPath>
		
			<g id="Grid_00000060005542146034257920000005065612243763103930_" opacity="0.25" clip-path="url(#SVGID_00000078046828778844366170000004620103868402754712_)">
			<g id="Horizontal_1_mm">
				
					<line fill="none" stroke="#00ABEB" stroke-width="0.2111" stroke-miterlimit="10" x1="-169.987" y1="-176.106" x2="631.971" y2="-176.106"/>
				
					<line fill="none" stroke="#00ABEB" stroke-width="0.2111" stroke-miterlimit="10" x1="-169.987" y1="-186.128" x2="631.971" y2="-186.128"/>
				
					<line fill="none" stroke="#00ABEB" stroke-width="0.2111" stroke-miterlimit="10" x1="-169.987" y1="415.159" x2="631.971" y2="415.159"/>
				
					<line fill="none" stroke="#00ABEB" stroke-width="0.2111" stroke-miterlimit="10" x1="-169.987" y1="405.136" x2="631.971" y2="405.136"/>
				
					<line fill="none" stroke="#00ABEB" stroke-width="0.2111" stroke-miterlimit="10" x1="-169.987" y1="395.117" x2="631.971" y2="395.117"/>
				
					<line fill="none" stroke="#00ABEB" stroke-width="0.2111" stroke-miterlimit="10" x1="-169.987" y1="385.095" x2="631.971" y2="385.095"/>
				
					<line fill="none" stroke="#00ABEB" stroke-width="0.2111" stroke-miterlimit="10" x1="-169.987" y1="375.072" x2="631.971" y2="375.072"/>
				
					<line fill="none" stroke="#00ABEB" stroke-width="0.2111" stroke-miterlimit="10" x1="-169.987" y1="365.053" x2="631.971" y2="365.053"/>
				
					<line fill="none" stroke="#00ABEB" stroke-width="0.2111" stroke-miterlimit="10" x1="-169.987" y1="355.031" x2="631.971" y2="355.031"/>
				
					<line fill="none" stroke="#00ABEB" stroke-width="0.2111" stroke-miterlimit="10" x1="-169.987" y1="345.011" x2="631.971" y2="345.011"/>
				
					<line fill="none" stroke="#00ABEB" stroke-width="0.2111" stroke-miterlimit="10" x1="-169.987" y1="334.987" x2="631.971" y2="334.987"/>
				
					<line fill="none" stroke="#00ABEB" stroke-width="0.2111" stroke-miterlimit="10" x1="-169.987" y1="324.965" x2="631.971" y2="324.965"/>
				
					<line fill="none" stroke="#00ABEB" stroke-width="0.2111" stroke-miterlimit="10" x1="-169.987" y1="314.945" x2="631.971" y2="314.945"/>
				
					<line fill="none" stroke="#00ABEB" stroke-width="0.2111" stroke-miterlimit="10" x1="-169.987" y1="304.923" x2="631.971" y2="304.923"/>
				
					<line fill="none" stroke="#00ABEB" stroke-width="0.2111" stroke-miterlimit="10" x1="-169.987" y1="294.9" x2="631.971" y2="294.9"/>
				
					<line fill="none" stroke="#00ABEB" stroke-width="0.2111" stroke-miterlimit="10" x1="-169.987" y1="284.881" x2="631.971" y2="284.881"/>
				
					<line fill="none" stroke="#00ABEB" stroke-width="0.2111" stroke-miterlimit="10" x1="-169.987" y1="274.859" x2="631.971" y2="274.859"/>
				
					<line fill="none" stroke="#00ABEB" stroke-width="0.2111" stroke-miterlimit="10" x1="-169.987" y1="264.836" x2="631.971" y2="264.836"/>
				
					<line fill="none" stroke="#00ABEB" stroke-width="0.2111" stroke-miterlimit="10" x1="-169.987" y1="254.817" x2="631.971" y2="254.817"/>
				
					<line fill="none" stroke="#00ABEB" stroke-width="0.2111" stroke-miterlimit="10" x1="-169.987" y1="244.795" x2="631.971" y2="244.795"/>
				
					<line fill="none" stroke="#00ABEB" stroke-width="0.2111" stroke-miterlimit="10" x1="-169.987" y1="234.772" x2="631.971" y2="234.772"/>
				
					<line fill="none" stroke="#00ABEB" stroke-width="0.2111" stroke-miterlimit="10" x1="-169.987" y1="224.753" x2="631.971" y2="224.753"/>
				
					<line fill="none" stroke="#00ABEB" stroke-width="0.2111" stroke-miterlimit="10" x1="-169.987" y1="214.73" x2="631.971" y2="214.73"/>
				
					<line fill="none" stroke="#00ABEB" stroke-width="0.2111" stroke-miterlimit="10" x1="-169.987" y1="204.706" x2="631.971" y2="204.706"/>
				
					<line fill="none" stroke="#00ABEB" stroke-width="0.2111" stroke-miterlimit="10" x1="-169.987" y1="194.687" x2="631.971" y2="194.687"/>
				
					<line fill="none" stroke="#00ABEB" stroke-width="0.2111" stroke-miterlimit="10" x1="-169.987" y1="184.664" x2="631.971" y2="184.664"/>
				
					<line fill="none" stroke="#00ABEB" stroke-width="0.2111" stroke-miterlimit="10" x1="-169.987" y1="174.645" x2="631.971" y2="174.645"/>
				
					<line fill="none" stroke="#00ABEB" stroke-width="0.2111" stroke-miterlimit="10" x1="-169.987" y1="164.623" x2="631.971" y2="164.623"/>
				
					<line fill="none" stroke="#00ABEB" stroke-width="0.2111" stroke-miterlimit="10" x1="-169.987" y1="154.6" x2="631.971" y2="154.6"/>
				
					<line fill="none" stroke="#00ABEB" stroke-width="0.2111" stroke-miterlimit="10" x1="-169.987" y1="144.581" x2="631.971" y2="144.581"/>
				
					<line fill="none" stroke="#00ABEB" stroke-width="0.2111" stroke-miterlimit="10" x1="-169.987" y1="134.559" x2="631.971" y2="134.559"/>
				
					<line fill="none" stroke="#00ABEB" stroke-width="0.2111" stroke-miterlimit="10" x1="-169.987" y1="124.536" x2="631.971" y2="124.536"/>
				
					<line fill="none" stroke="#00ABEB" stroke-width="0.2111" stroke-miterlimit="10" x1="-169.987" y1="114.517" x2="631.971" y2="114.517"/>
				
					<line fill="none" stroke="#00ABEB" stroke-width="0.2111" stroke-miterlimit="10" x1="-169.987" y1="104.495" x2="631.971" y2="104.495"/>
				
					<line fill="none" stroke="#00ABEB" stroke-width="0.2111" stroke-miterlimit="10" x1="-169.987" y1="94.472" x2="631.971" y2="94.472"/>
				
					<line fill="none" stroke="#00ABEB" stroke-width="0.2111" stroke-miterlimit="10" x1="-169.987" y1="84.453" x2="631.971" y2="84.453"/>
				
					<line fill="none" stroke="#00ABEB" stroke-width="0.2111" stroke-miterlimit="10" x1="-169.987" y1="74.43" x2="631.971" y2="74.43"/>
				
					<line fill="none" stroke="#00ABEB" stroke-width="0.2111" stroke-miterlimit="10" x1="-169.987" y1="64.408" x2="631.971" y2="64.408"/>
				
					<line fill="none" stroke="#00ABEB" stroke-width="0.2111" stroke-miterlimit="10" x1="-169.987" y1="54.389" x2="631.971" y2="54.389"/>
				
					<line fill="none" stroke="#00ABEB" stroke-width="0.2111" stroke-miterlimit="10" x1="-169.987" y1="44.366" x2="631.971" y2="44.366"/>
				
					<line fill="none" stroke="#00ABEB" stroke-width="0.2111" stroke-miterlimit="10" x1="-169.987" y1="34.344" x2="631.971" y2="34.344"/>
				
					<line fill="none" stroke="#00ABEB" stroke-width="0.2111" stroke-miterlimit="10" x1="-169.987" y1="24.325" x2="631.971" y2="24.325"/>
				
					<line fill="none" stroke="#00ABEB" stroke-width="0.2111" stroke-miterlimit="10" x1="-169.987" y1="14.3" x2="631.971" y2="14.3"/>
				
					<line fill="none" stroke="#00ABEB" stroke-width="0.2111" stroke-miterlimit="10" x1="-169.987" y1="4.281" x2="631.971" y2="4.281"/>
				
					<line fill="none" stroke="#00ABEB" stroke-width="0.2111" stroke-miterlimit="10" x1="-169.987" y1="-5.741" x2="631.971" y2="-5.741"/>
				
					<line fill="none" stroke="#00ABEB" stroke-width="0.2111" stroke-miterlimit="10" x1="-169.987" y1="-15.764" x2="631.971" y2="-15.764"/>
				
					<line fill="none" stroke="#00ABEB" stroke-width="0.2111" stroke-miterlimit="10" x1="-169.987" y1="-25.783" x2="631.971" y2="-25.783"/>
				
					<line fill="none" stroke="#00ABEB" stroke-width="0.2111" stroke-miterlimit="10" x1="-169.987" y1="-35.806" x2="631.971" y2="-35.806"/>
				
					<line fill="none" stroke="#00ABEB" stroke-width="0.2111" stroke-miterlimit="10" x1="-169.987" y1="-45.828" x2="631.971" y2="-45.828"/>
				
					<line fill="none" stroke="#00ABEB" stroke-width="0.2111" stroke-miterlimit="10" x1="-169.987" y1="-55.847" x2="631.971" y2="-55.847"/>
				
					<line fill="none" stroke="#00ABEB" stroke-width="0.2111" stroke-miterlimit="10" x1="-169.987" y1="-65.87" x2="631.971" y2="-65.87"/>
				
					<line fill="none" stroke="#00ABEB" stroke-width="0.2111" stroke-miterlimit="10" x1="-169.987" y1="-75.892" x2="631.971" y2="-75.892"/>
				
					<line fill="none" stroke="#00ABEB" stroke-width="0.2111" stroke-miterlimit="10" x1="-169.987" y1="-85.911" x2="631.971" y2="-85.911"/>
				
					<line fill="none" stroke="#00ABEB" stroke-width="0.2111" stroke-miterlimit="10" x1="-169.987" y1="-95.934" x2="631.971" y2="-95.934"/>
				
					<line fill="none" stroke="#00ABEB" stroke-width="0.2111" stroke-miterlimit="10" x1="-169.987" y1="-105.956" x2="631.971" y2="-105.956"/>
				
					<line fill="none" stroke="#00ABEB" stroke-width="0.2111" stroke-miterlimit="10" x1="-169.987" y1="-115.976" x2="631.971" y2="-115.976"/>
				
					<line fill="none" stroke="#00ABEB" stroke-width="0.2111" stroke-miterlimit="10" x1="-169.987" y1="-126" x2="631.971" y2="-126"/>
				
					<line fill="none" stroke="#00ABEB" stroke-width="0.2111" stroke-miterlimit="10" x1="-169.987" y1="-136.019" x2="631.971" y2="-136.019"/>
				
					<line fill="none" stroke="#00ABEB" stroke-width="0.2111" stroke-miterlimit="10" x1="-169.987" y1="-146.042" x2="631.971" y2="-146.042"/>
				
					<line fill="none" stroke="#00ABEB" stroke-width="0.2111" stroke-miterlimit="10" x1="-169.987" y1="-156.064" x2="631.971" y2="-156.064"/>
				
					<line fill="none" stroke="#00ABEB" stroke-width="0.2111" stroke-miterlimit="10" x1="-169.987" y1="-166.083" x2="631.971" y2="-166.083"/>
			</g>
			<g id="Vertical_1_mm">
				<g>
					
						<line fill="none" stroke="#00ABEB" stroke-width="0.2111" stroke-miterlimit="10" x1="-169.721" y1="415.11" x2="-169.721" y2="-186.394"/>
				</g>
				
					<line fill="none" stroke="#00ABEB" stroke-width="0.2111" stroke-miterlimit="10" x1="-159.702" y1="415.11" x2="-159.702" y2="-186.394"/>
				
					<line fill="none" stroke="#00ABEB" stroke-width="0.2111" stroke-miterlimit="10" x1="-149.68" y1="415.11" x2="-149.68" y2="-186.394"/>
				
					<line fill="none" stroke="#00ABEB" stroke-width="0.2111" stroke-miterlimit="10" x1="-139.657" y1="415.11" x2="-139.657" y2="-186.394"/>
				
					<line fill="none" stroke="#00ABEB" stroke-width="0.2111" stroke-miterlimit="10" x1="-129.638" y1="415.11" x2="-129.638" y2="-186.394"/>
				
					<line fill="none" stroke="#00ABEB" stroke-width="0.2111" stroke-miterlimit="10" x1="-119.616" y1="415.11" x2="-119.616" y2="-186.394"/>
				
					<line fill="none" stroke="#00ABEB" stroke-width="0.2111" stroke-miterlimit="10" x1="-109.593" y1="415.11" x2="-109.593" y2="-186.394"/>
				
					<line fill="none" stroke="#00ABEB" stroke-width="0.2111" stroke-miterlimit="10" x1="-99.574" y1="415.11" x2="-99.574" y2="-186.394"/>
				
					<line fill="none" stroke="#00ABEB" stroke-width="0.2111" stroke-miterlimit="10" x1="-89.55" y1="415.11" x2="-89.55" y2="-186.394"/>
				
					<line fill="none" stroke="#00ABEB" stroke-width="0.2111" stroke-miterlimit="10" x1="-79.531" y1="415.11" x2="-79.531" y2="-186.394"/>
				
					<line fill="none" stroke="#00ABEB" stroke-width="0.2111" stroke-miterlimit="10" x1="-69.508" y1="415.11" x2="-69.508" y2="-186.394"/>
				
					<line fill="none" stroke="#00ABEB" stroke-width="0.2111" stroke-miterlimit="10" x1="-59.486" y1="415.11" x2="-59.486" y2="-186.394"/>
				
					<line fill="none" stroke="#00ABEB" stroke-width="0.2111" stroke-miterlimit="10" x1="-49.466" y1="415.11" x2="-49.466" y2="-186.394"/>
				
					<line fill="none" stroke="#00ABEB" stroke-width="0.2111" stroke-miterlimit="10" x1="-39.444" y1="415.11" x2="-39.444" y2="-186.394"/>
				
					<line fill="none" stroke="#00ABEB" stroke-width="0.2111" stroke-miterlimit="10" x1="-29.421" y1="415.11" x2="-29.421" y2="-186.394"/>
				
					<line fill="none" stroke="#00ABEB" stroke-width="0.2111" stroke-miterlimit="10" x1="-19.402" y1="415.11" x2="-19.402" y2="-186.394"/>
				
					<line fill="none" stroke="#00ABEB" stroke-width="0.2111" stroke-miterlimit="10" x1="-9.38" y1="415.11" x2="-9.38" y2="-186.394"/>
				
					<line fill="none" stroke="#00ABEB" stroke-width="0.2111" stroke-miterlimit="10" x1="0.643" y1="415.11" x2="0.643" y2="-186.394"/>
				
					<line fill="none" stroke="#00ABEB" stroke-width="0.2111" stroke-miterlimit="10" x1="10.662" y1="415.11" x2="10.662" y2="-186.394"/>
				
					<line fill="none" stroke="#00ABEB" stroke-width="0.2111" stroke-miterlimit="10" x1="20.685" y1="415.11" x2="20.685" y2="-186.394"/>
				
					<line fill="none" stroke="#00ABEB" stroke-width="0.2111" stroke-miterlimit="10" x1="30.707" y1="415.11" x2="30.707" y2="-186.394"/>
				
					<line fill="none" stroke="#00ABEB" stroke-width="0.2111" stroke-miterlimit="10" x1="40.726" y1="415.11" x2="40.726" y2="-186.394"/>
				
					<line fill="none" stroke="#00ABEB" stroke-width="0.2111" stroke-miterlimit="10" x1="50.749" y1="415.11" x2="50.749" y2="-186.394"/>
				
					<line fill="none" stroke="#00ABEB" stroke-width="0.2111" stroke-miterlimit="10" x1="60.771" y1="415.11" x2="60.771" y2="-186.394"/>
				
					<line fill="none" stroke="#00ABEB" stroke-width="0.2111" stroke-miterlimit="10" x1="70.792" y1="415.11" x2="70.792" y2="-186.394"/>
				
					<line fill="none" stroke="#00ABEB" stroke-width="0.2111" stroke-miterlimit="10" x1="80.815" y1="415.11" x2="80.815" y2="-186.394"/>
				
					<line fill="none" stroke="#00ABEB" stroke-width="0.2111" stroke-miterlimit="10" x1="90.833" y1="415.11" x2="90.833" y2="-186.394"/>
				
					<line fill="none" stroke="#00ABEB" stroke-width="0.2111" stroke-miterlimit="10" x1="100.856" y1="415.11" x2="100.856" y2="-186.394"/>
				
					<line fill="none" stroke="#00ABEB" stroke-width="0.2111" stroke-miterlimit="10" x1="110.879" y1="415.11" x2="110.879" y2="-186.394"/>
				
					<line fill="none" stroke="#00ABEB" stroke-width="0.2111" stroke-miterlimit="10" x1="120.898" y1="415.11" x2="120.898" y2="-186.394"/>
				
					<line fill="none" stroke="#00ABEB" stroke-width="0.2111" stroke-miterlimit="10" x1="130.92" y1="415.11" x2="130.92" y2="-186.394"/>
				
					<line fill="none" stroke="#00ABEB" stroke-width="0.2111" stroke-miterlimit="10" x1="140.943" y1="415.11" x2="140.943" y2="-186.394"/>
				
					<line fill="none" stroke="#00ABEB" stroke-width="0.2111" stroke-miterlimit="10" x1="150.962" y1="415.11" x2="150.962" y2="-186.394"/>
				
					<line fill="none" stroke="#00ABEB" stroke-width="0.2111" stroke-miterlimit="10" x1="160.984" y1="415.11" x2="160.984" y2="-186.394"/>
				
					<line fill="none" stroke="#00ABEB" stroke-width="0.2111" stroke-miterlimit="10" x1="171.007" y1="415.11" x2="171.007" y2="-186.394"/>
				
					<line fill="none" stroke="#00ABEB" stroke-width="0.2111" stroke-miterlimit="10" x1="181.026" y1="415.11" x2="181.026" y2="-186.394"/>
				
					<line fill="none" stroke="#00ABEB" stroke-width="0.2111" stroke-miterlimit="10" x1="191.049" y1="415.11" x2="191.049" y2="-186.394"/>
				
					<line fill="none" stroke="#00ABEB" stroke-width="0.2111" stroke-miterlimit="10" x1="201.071" y1="415.11" x2="201.071" y2="-186.394"/>
				
					<line fill="none" stroke="#00ABEB" stroke-width="0.2111" stroke-miterlimit="10" x1="211.09" y1="415.11" x2="211.09" y2="-186.394"/>
				
					<line fill="none" stroke="#00ABEB" stroke-width="0.2111" stroke-miterlimit="10" x1="221.113" y1="415.11" x2="221.113" y2="-186.394"/>
				
					<line fill="none" stroke="#00ABEB" stroke-width="0.2111" stroke-miterlimit="10" x1="231.132" y1="415.11" x2="231.132" y2="-186.394"/>
				
					<line fill="none" stroke="#00ABEB" stroke-width="0.2111" stroke-miterlimit="10" x1="241.156" y1="415.11" x2="241.156" y2="-186.394"/>
				
					<line fill="none" stroke="#00ABEB" stroke-width="0.2111" stroke-miterlimit="10" x1="251.179" y1="415.11" x2="251.179" y2="-186.394"/>
				
					<line fill="none" stroke="#00ABEB" stroke-width="0.2111" stroke-miterlimit="10" x1="261.198" y1="415.11" x2="261.198" y2="-186.394"/>
				
					<line fill="none" stroke="#00ABEB" stroke-width="0.2111" stroke-miterlimit="10" x1="271.22" y1="415.11" x2="271.22" y2="-186.394"/>
				
					<line fill="none" stroke="#00ABEB" stroke-width="0.2111" stroke-miterlimit="10" x1="281.243" y1="415.11" x2="281.243" y2="-186.394"/>
				
					<line fill="none" stroke="#00ABEB" stroke-width="0.2111" stroke-miterlimit="10" x1="291.262" y1="415.11" x2="291.262" y2="-186.394"/>
				
					<line fill="none" stroke="#00ABEB" stroke-width="0.2111" stroke-miterlimit="10" x1="301.285" y1="415.11" x2="301.285" y2="-186.394"/>
				
					<line fill="none" stroke="#00ABEB" stroke-width="0.2111" stroke-miterlimit="10" x1="311.307" y1="415.11" x2="311.307" y2="-186.394"/>
				
					<line fill="none" stroke="#00ABEB" stroke-width="0.2111" stroke-miterlimit="10" x1="321.326" y1="415.11" x2="321.326" y2="-186.394"/>
				
					<line fill="none" stroke="#00ABEB" stroke-width="0.2111" stroke-miterlimit="10" x1="331.349" y1="415.11" x2="331.349" y2="-186.394"/>
				
					<line fill="none" stroke="#00ABEB" stroke-width="0.2111" stroke-miterlimit="10" x1="341.371" y1="415.11" x2="341.371" y2="-186.394"/>
				
					<line fill="none" stroke="#00ABEB" stroke-width="0.2111" stroke-miterlimit="10" x1="351.39" y1="415.11" x2="351.39" y2="-186.394"/>
				
					<line fill="none" stroke="#00ABEB" stroke-width="0.2111" stroke-miterlimit="10" x1="361.413" y1="415.11" x2="361.413" y2="-186.394"/>
				
					<line fill="none" stroke="#00ABEB" stroke-width="0.2111" stroke-miterlimit="10" x1="371.435" y1="415.11" x2="371.435" y2="-186.394"/>
				
					<line fill="none" stroke="#00ABEB" stroke-width="0.2111" stroke-miterlimit="10" x1="381.454" y1="415.11" x2="381.454" y2="-186.394"/>
				
					<line fill="none" stroke="#00ABEB" stroke-width="0.2111" stroke-miterlimit="10" x1="391.479" y1="415.11" x2="391.479" y2="-186.394"/>
				
					<line fill="none" stroke="#00ABEB" stroke-width="0.2111" stroke-miterlimit="10" x1="401.498" y1="415.11" x2="401.498" y2="-186.394"/>
				
					<line fill="none" stroke="#00ABEB" stroke-width="0.2111" stroke-miterlimit="10" x1="411.52" y1="415.11" x2="411.52" y2="-186.394"/>
				
					<line fill="none" stroke="#00ABEB" stroke-width="0.2111" stroke-miterlimit="10" x1="421.543" y1="415.11" x2="421.543" y2="-186.394"/>
				
					<line fill="none" stroke="#00ABEB" stroke-width="0.2111" stroke-miterlimit="10" x1="431.562" y1="415.11" x2="431.562" y2="-186.394"/>
				
					<line fill="none" stroke="#00ABEB" stroke-width="0.2111" stroke-miterlimit="10" x1="441.584" y1="415.11" x2="441.584" y2="-186.394"/>
				
					<line fill="none" stroke="#00ABEB" stroke-width="0.2111" stroke-miterlimit="10" x1="451.607" y1="415.11" x2="451.607" y2="-186.394"/>
				
					<line fill="none" stroke="#00ABEB" stroke-width="0.2111" stroke-miterlimit="10" x1="461.626" y1="415.11" x2="461.626" y2="-186.394"/>
				
					<line fill="none" stroke="#00ABEB" stroke-width="0.2111" stroke-miterlimit="10" x1="471.649" y1="415.11" x2="471.649" y2="-186.394"/>
				
					<line fill="none" stroke="#00ABEB" stroke-width="0.2111" stroke-miterlimit="10" x1="481.671" y1="415.11" x2="481.671" y2="-186.394"/>
				
					<line fill="none" stroke="#00ABEB" stroke-width="0.2111" stroke-miterlimit="10" x1="491.69" y1="415.11" x2="491.69" y2="-186.394"/>
				
					<line fill="none" stroke="#00ABEB" stroke-width="0.2111" stroke-miterlimit="10" x1="501.713" y1="415.11" x2="501.713" y2="-186.394"/>
				
					<line fill="none" stroke="#00ABEB" stroke-width="0.2111" stroke-miterlimit="10" x1="511.735" y1="415.11" x2="511.735" y2="-186.394"/>
				
					<line fill="none" stroke="#00ABEB" stroke-width="0.2111" stroke-miterlimit="10" x1="521.755" y1="415.11" x2="521.755" y2="-186.394"/>
				
					<line fill="none" stroke="#00ABEB" stroke-width="0.2111" stroke-miterlimit="10" x1="531.777" y1="415.11" x2="531.777" y2="-186.394"/>
				
					<line fill="none" stroke="#00ABEB" stroke-width="0.2111" stroke-miterlimit="10" x1="541.799" y1="415.11" x2="541.799" y2="-186.394"/>
				
					<line fill="none" stroke="#00ABEB" stroke-width="0.2111" stroke-miterlimit="10" x1="551.82" y1="415.11" x2="551.82" y2="-186.394"/>
				
					<line fill="none" stroke="#00ABEB" stroke-width="0.2111" stroke-miterlimit="10" x1="561.843" y1="415.11" x2="561.843" y2="-186.394"/>
				
					<line fill="none" stroke="#00ABEB" stroke-width="0.2111" stroke-miterlimit="10" x1="571.862" y1="415.11" x2="571.862" y2="-186.394"/>
				
					<line fill="none" stroke="#00ABEB" stroke-width="0.2111" stroke-miterlimit="10" x1="581.885" y1="415.11" x2="581.885" y2="-186.394"/>
				
					<line fill="none" stroke="#00ABEB" stroke-width="0.2111" stroke-miterlimit="10" x1="591.907" y1="415.11" x2="591.907" y2="-186.394"/>
				
					<line fill="none" stroke="#00ABEB" stroke-width="0.2111" stroke-miterlimit="10" x1="601.926" y1="415.11" x2="601.926" y2="-186.394"/>
				
					<line fill="none" stroke="#00ABEB" stroke-width="0.2111" stroke-miterlimit="10" x1="611.949" y1="415.11" x2="611.949" y2="-186.394"/>
				
					<line fill="none" stroke="#00ABEB" stroke-width="0.2111" stroke-miterlimit="10" x1="621.971" y1="415.11" x2="621.971" y2="-186.394"/>
				
					<line fill="none" stroke="#00ABEB" stroke-width="0.2111" stroke-miterlimit="10" x1="631.99" y1="415.11" x2="631.99" y2="-186.394"/>
			</g>
			<g id="Horizontal_5_mm_1_">
				
					<line fill="none" stroke="#00ABEB" stroke-width="0.4221" stroke-miterlimit="10" x1="-170.959" y1="415.159" x2="631.971" y2="415.159"/>
				
					<line fill="none" stroke="#00ABEB" stroke-width="0.4221" stroke-miterlimit="10" x1="-170.959" y1="365.053" x2="631.971" y2="365.053"/>
				
					<line fill="none" stroke="#00ABEB" stroke-width="0.4221" stroke-miterlimit="10" x1="-170.959" y1="314.945" x2="631.971" y2="314.945"/>
				
					<line fill="none" stroke="#00ABEB" stroke-width="0.4221" stroke-miterlimit="10" x1="-170.959" y1="264.836" x2="631.971" y2="264.836"/>
				
					<line fill="none" stroke="#00ABEB" stroke-width="0.4221" stroke-miterlimit="10" x1="-170.959" y1="214.73" x2="631.971" y2="214.73"/>
				
					<line fill="none" stroke="#00ABEB" stroke-width="0.4221" stroke-miterlimit="10" x1="-170.959" y1="164.623" x2="631.971" y2="164.623"/>
				
					<line fill="none" stroke="#00ABEB" stroke-width="0.4221" stroke-miterlimit="10" x1="-170.959" y1="114.517" x2="631.971" y2="114.517"/>
				
					<line fill="none" stroke="#00ABEB" stroke-width="0.4221" stroke-miterlimit="10" x1="-170.959" y1="64.408" x2="631.971" y2="64.408"/>
				
					<line fill="none" stroke="#00ABEB" stroke-width="0.4221" stroke-miterlimit="10" x1="-170.959" y1="14.3" x2="631.971" y2="14.3"/>
				
					<line fill="none" stroke="#00ABEB" stroke-width="0.4221" stroke-miterlimit="10" x1="-170.959" y1="-35.806" x2="631.971" y2="-35.806"/>
				
					<line fill="none" stroke="#00ABEB" stroke-width="0.4221" stroke-miterlimit="10" x1="-170.959" y1="-85.911" x2="631.971" y2="-85.911"/>
			</g>
			<g id="Vertical_5_mm">
				
					<line fill="none" stroke="#00ABEB" stroke-width="0.4221" stroke-miterlimit="10" x1="-169.721" y1="415.11" x2="-169.721" y2="-187.366"/>
				
					<line fill="none" stroke="#00ABEB" stroke-width="0.4221" stroke-miterlimit="10" x1="-119.616" y1="415.11" x2="-119.616" y2="-187.366"/>
				
					<line fill="none" stroke="#00ABEB" stroke-width="0.4221" stroke-miterlimit="10" x1="-69.508" y1="415.11" x2="-69.508" y2="-187.366"/>
				
					<line fill="none" stroke="#00ABEB" stroke-width="0.4221" stroke-miterlimit="10" x1="-19.402" y1="415.11" x2="-19.402" y2="-187.366"/>
				
					<line fill="none" stroke="#00ABEB" stroke-width="0.4221" stroke-miterlimit="10" x1="30.707" y1="415.11" x2="30.707" y2="-187.366"/>
				
					<line fill="none" stroke="#00ABEB" stroke-width="0.4221" stroke-miterlimit="10" x1="80.815" y1="415.11" x2="80.815" y2="-187.366"/>
				
					<line fill="none" stroke="#00ABEB" stroke-width="0.4221" stroke-miterlimit="10" x1="130.92" y1="415.11" x2="130.92" y2="-187.366"/>
				
					<line fill="none" stroke="#00ABEB" stroke-width="0.4221" stroke-miterlimit="10" x1="181.026" y1="415.11" x2="181.026" y2="-187.366"/>
				
					<line fill="none" stroke="#00ABEB" stroke-width="0.4221" stroke-miterlimit="10" x1="231.132" y1="415.11" x2="231.132" y2="-187.366"/>
				
					<line fill="none" stroke="#00ABEB" stroke-width="0.4221" stroke-miterlimit="10" x1="281.243" y1="415.11" x2="281.243" y2="-187.366"/>
				
					<line fill="none" stroke="#00ABEB" stroke-width="0.4221" stroke-miterlimit="10" x1="331.349" y1="415.11" x2="331.349" y2="-187.366"/>
				
					<line fill="none" stroke="#00ABEB" stroke-width="0.4221" stroke-miterlimit="10" x1="381.454" y1="415.11" x2="381.454" y2="-187.366"/>
				
					<line fill="none" stroke="#00ABEB" stroke-width="0.4221" stroke-miterlimit="10" x1="431.562" y1="415.11" x2="431.562" y2="-187.366"/>
				
					<line fill="none" stroke="#00ABEB" stroke-width="0.4221" stroke-miterlimit="10" x1="481.671" y1="415.11" x2="481.671" y2="-187.366"/>
				
					<line fill="none" stroke="#00ABEB" stroke-width="0.4221" stroke-miterlimit="10" x1="531.777" y1="415.11" x2="531.777" y2="-187.366"/>
				
					<line fill="none" stroke="#00ABEB" stroke-width="0.4221" stroke-miterlimit="10" x1="581.885" y1="415.11" x2="581.885" y2="-187.366"/>
				
					<line fill="none" stroke="#00ABEB" stroke-width="0.4221" stroke-miterlimit="10" x1="631.99" y1="415.11" x2="631.99" y2="-187.366"/>
			</g>
			<g id="Horizontal_10_mm">
				
					<line id="_x31_9_1_" fill="none" stroke="#00ABEB" stroke-width="0.9849" stroke-miterlimit="10" x1="-170.959" y1="415.159" x2="631.971" y2="415.159"/>
				
					<line id="_x32_0" fill="none" stroke="#00ABEB" stroke-width="0.9849" stroke-miterlimit="10" x1="-170.959" y1="314.945" x2="631.971" y2="314.945"/>
				
					<line id="_x32_1" fill="none" stroke="#00ABEB" stroke-width="0.9849" stroke-miterlimit="10" x1="-170.959" y1="214.73" x2="631.971" y2="214.73"/>
				
					<line id="_x32_2" fill="none" stroke="#00ABEB" stroke-width="0.9849" stroke-miterlimit="10" x1="-170.959" y1="114.517" x2="631.971" y2="114.517"/>
				
					<line id="_x32_3" fill="none" stroke="#00ABEB" stroke-width="0.9849" stroke-miterlimit="10" x1="-170.959" y1="14.3" x2="631.971" y2="14.3"/>
				
					<line id="_x32_4" fill="none" stroke="#00ABEB" stroke-width="0.9849" stroke-miterlimit="10" x1="-170.959" y1="-85.911" x2="631.971" y2="-85.911"/>
				
					<line id="_x32_5" fill="none" stroke="#00ABEB" stroke-width="0.9849" stroke-miterlimit="10" x1="-170.959" y1="-186.128" x2="631.971" y2="-186.128"/>
			</g>
			<g id="Vertical_10_mm">
				
					<line id="_x30_" fill="none" stroke="#00ABEB" stroke-width="0.9849" stroke-miterlimit="10" x1="-169.721" y1="415.11" x2="-169.721" y2="-187.366"/>
				
					<line id="_x31_" fill="none" stroke="#00ABEB" stroke-width="0.9849" stroke-miterlimit="10" x1="-69.508" y1="415.11" x2="-69.508" y2="-187.366"/>
				
					<line id="_x32_" fill="none" stroke="#00ABEB" stroke-width="0.9849" stroke-miterlimit="10" x1="30.707" y1="415.11" x2="30.707" y2="-187.366"/>
				
					<line id="_x33_" fill="none" stroke="#00ABEB" stroke-width="0.9849" stroke-miterlimit="10" x1="130.92" y1="415.11" x2="130.92" y2="-187.366"/>
				
					<line id="_x34_" fill="none" stroke="#00ABEB" stroke-width="0.9849" stroke-miterlimit="10" x1="231.132" y1="415.11" x2="231.132" y2="-187.366"/>
				
					<line id="_x35_" fill="none" stroke="#00ABEB" stroke-width="0.9849" stroke-miterlimit="10" x1="331.349" y1="415.11" x2="331.349" y2="-187.366"/>
				
					<line id="_x36_" fill="none" stroke="#00ABEB" stroke-width="0.9849" stroke-miterlimit="10" x1="431.562" y1="415.11" x2="431.562" y2="-187.366"/>
				
					<line id="_x37_" fill="none" stroke="#00ABEB" stroke-width="0.9849" stroke-miterlimit="10" x1="531.777" y1="415.11" x2="531.777" y2="-187.366"/>
				
					<line id="_x38_" fill="none" stroke="#00ABEB" stroke-width="0.9849" stroke-miterlimit="10" x1="631.99" y1="415.11" x2="631.99" y2="-187.366"/>
			</g>
		</g>
	</g>
</g>
<g id="base">
	<g>
		<path fill="#FF0000" d="M173.753,79.138v-0.226c1.171-0.061,1.503-0.377,1.503-1.206v-6.769c0-0.513-0.143-0.739-0.475-0.739
			c-0.158,0-0.427,0.076-0.712,0.181l-0.427,0.15v-0.211l2.833-1.372l0.142,0.045v9c0,0.648,0.317,0.919,1.503,0.919v0.226H173.753z
			"/>
	</g>
	<circle fill="none" stroke="#FF0000" stroke-width="1.5077" stroke-miterlimit="10" cx="175.994" cy="74.157" r="8.108"/>
	<g>
		<g>
			<path fill="#0000FF" d="M81.955,15.548h-6.187v-0.181l2.816-2.85c1.487-1.492,2.057-2.638,2.057-3.919
				c0-1.372-0.854-2.126-2.2-2.126c-1.139,0-1.693,0.482-2.326,1.96l-0.333-0.075c0.333-1.764,1.345-3,3.292-3
				c1.788,0,2.927,1.161,2.927,2.653c0,1.191-0.617,2.322-2.025,3.739l-2.611,2.653h3.703c0.665,0,0.997-0.166,1.519-1.01
				l0.222,0.09L81.955,15.548z"/>
		</g>
		<circle fill="none" stroke="#0000FF" stroke-width="1.5077" stroke-miterlimit="10" cx="79.417" cy="10.567" r="8.108"/>
	</g>
	<g id="back_00000053507417112770269870000007330197037955620771_">
		<path fill="none" stroke="#00004C" stroke-width="1.6132" stroke-linecap="round" stroke-miterlimit="10" d="M72.618,43.462
			c0,0.562,47.761,0.562,47.761,1.123"/>
		<path fill="none" stroke="#00004C" stroke-width="1.6132" stroke-linecap="round" stroke-miterlimit="10" d="M72.618,41.218
			c0,0.561,47.761,0.561,47.761,1.122"/>
		<path fill="none" stroke="#00004C" stroke-width="1.6132" stroke-linecap="round" stroke-miterlimit="10" d="M72.618,38.976
			c0,0.561,47.761,0.561,47.761,1.122"/>
		<path fill="none" stroke="#00004C" stroke-width="1.6132" stroke-linecap="round" stroke-miterlimit="10" d="M72.618,36.732
			c0,0.561,47.761,0.561,47.761,1.121"/>
		<path fill="none" stroke="#00004C" stroke-width="1.6132" stroke-linecap="round" stroke-miterlimit="10" d="M72.618,34.489
			c0,0.561,47.761,0.561,47.761,1.121"/>
		<path fill="none" stroke="#00004C" stroke-width="1.6132" stroke-linecap="round" stroke-miterlimit="10" d="M72.618,32.247
			c0,0.56,47.761,0.56,47.761,1.12"/>
		<path fill="none" stroke="#00004C" stroke-width="1.6132" stroke-linecap="round" stroke-miterlimit="10" d="M72.618,30.005
			c0,0.56,47.761,0.56,47.761,1.12"/>
		<path fill="none" stroke="#00004C" stroke-width="1.6132" stroke-linecap="round" stroke-miterlimit="10" d="M72.618,27.765
			c0,0.56,47.761,0.56,47.761,1.121"/>
		<path fill="none" stroke="#00004C" stroke-width="1.6132" stroke-linecap="round" stroke-miterlimit="10" d="M72.618,25.526
			c0,0.559,47.761,0.559,47.761,1.119"/>
		<path fill="none" stroke="#00004C" stroke-width="1.6132" stroke-linecap="round" stroke-miterlimit="10" d="M72.618,23.288
			c0,0.56,47.761,0.56,47.761,1.119"/>
		<path fill="none" stroke="#00004C" stroke-width="1.6132" stroke-linecap="round" stroke-miterlimit="10" d="M72.618,45.709
			c0,0.281,13.901,0.422,25.835,0.562"/>
		
			<line fill="none" stroke="#00004C" stroke-width="1.6132" stroke-linecap="round" stroke-miterlimit="10" x1="98.453" y1="46.271" x2="98.436" y2="3.759"/>
	</g>
	<g id="front_00000107579625299631593880000017583368993193081529_">
		<path fill="none" stroke="#0000B2" stroke-width="1.6132" stroke-linecap="round" stroke-miterlimit="10" d="M120.379,44.585
			c0,0.562-47.761,0.562-47.761,1.123"/>
		<path fill="none" stroke="#0000B2" stroke-width="1.6132" stroke-linecap="round" stroke-miterlimit="10" d="M120.379,42.339
			c0,0.561-47.761,0.561-47.761,1.123"/>
		<path fill="none" stroke="#0000B2" stroke-width="1.6132" stroke-linecap="round" stroke-miterlimit="10" d="M120.379,40.098
			c0,0.56-47.761,0.56-47.761,1.12"/>
		<path fill="none" stroke="#0000B2" stroke-width="1.6132" stroke-linecap="round" stroke-miterlimit="10" d="M120.379,37.854
			c0,0.561-47.761,0.561-47.761,1.122"/>
		<path fill="none" stroke="#0000B2" stroke-width="1.6132" stroke-linecap="round" stroke-miterlimit="10" d="M120.379,35.61
			c0,0.561-47.761,0.561-47.761,1.122"/>
		<path fill="none" stroke="#0000B2" stroke-width="1.6132" stroke-linecap="round" stroke-miterlimit="10" d="M120.379,33.368
			c0,0.561-47.761,0.561-47.761,1.122"/>
		<path fill="none" stroke="#0000B2" stroke-width="1.6132" stroke-linecap="round" stroke-miterlimit="10" d="M120.379,31.126
			c0,0.561-47.761,0.561-47.761,1.122"/>
		<path fill="none" stroke="#0000B2" stroke-width="1.6132" stroke-linecap="round" stroke-miterlimit="10" d="M120.379,28.886
			c0,0.56-47.761,0.56-47.761,1.12"/>
		<path fill="none" stroke="#0000B2" stroke-width="1.6132" stroke-linecap="round" stroke-miterlimit="10" d="M120.379,26.645
			c0,0.56-47.761,0.56-47.761,1.121"/>
		<path fill="none" stroke="#0000B2" stroke-width="1.6132" stroke-linecap="round" stroke-miterlimit="10" d="M120.379,24.407
			c0,0.559-47.761,0.559-47.761,1.118"/>
		<path fill="none" stroke="#0000B2" stroke-width="1.6132" stroke-linecap="round" stroke-miterlimit="10" d="M94.543,22.751
			c-11.254,0.133-21.926,0.273-21.926,0.537"/>
		
			<line fill="none" stroke="#0000B2" stroke-width="1.6132" stroke-linecap="round" stroke-miterlimit="10" x1="94.543" y1="22.728" x2="94.526" y2="3.759"/>
	</g>
	<g id="back_00000122680052811471511900000015564908790400425123_">
		<path fill="none" stroke="#4C0000" stroke-width="1.6132" stroke-linecap="round" stroke-miterlimit="10" d="M141.198,65.897
			c-0.562,0-0.562,47.761-1.123,47.761"/>
		<path fill="none" stroke="#4C0000" stroke-width="1.6132" stroke-linecap="round" stroke-miterlimit="10" d="M143.442,65.897
			c-0.561,0-0.561,47.761-1.122,47.761"/>
		<path fill="none" stroke="#4C0000" stroke-width="1.6132" stroke-linecap="round" stroke-miterlimit="10" d="M145.684,65.897
			c-0.561,0-0.561,47.761-1.122,47.761"/>
		<path fill="none" stroke="#4C0000" stroke-width="1.6132" stroke-linecap="round" stroke-miterlimit="10" d="M147.927,65.897
			c-0.561,0-0.561,47.761-1.121,47.761"/>
		<path fill="none" stroke="#4C0000" stroke-width="1.6132" stroke-linecap="round" stroke-miterlimit="10" d="M150.171,65.897
			c-0.561,0-0.561,47.761-1.121,47.761"/>
		<path fill="none" stroke="#4C0000" stroke-width="1.6132" stroke-linecap="round" stroke-miterlimit="10" d="M152.413,65.897
			c-0.56,0-0.56,47.761-1.12,47.761"/>
		<path fill="none" stroke="#4C0000" stroke-width="1.6132" stroke-linecap="round" stroke-miterlimit="10" d="M154.654,65.897
			c-0.56,0-0.56,47.761-1.12,47.761"/>
		<path fill="none" stroke="#4C0000" stroke-width="1.6132" stroke-linecap="round" stroke-miterlimit="10" d="M156.894,65.897
			c-0.56,0-0.56,47.761-1.121,47.761"/>
		<path fill="none" stroke="#4C0000" stroke-width="1.6132" stroke-linecap="round" stroke-miterlimit="10" d="M159.134,65.897
			c-0.559,0-0.559,47.761-1.119,47.761"/>
		<path fill="none" stroke="#4C0000" stroke-width="1.6132" stroke-linecap="round" stroke-miterlimit="10" d="M161.372,65.897
			c-0.56,0-0.56,47.761-1.119,47.761"/>
		<path fill="none" stroke="#4C0000" stroke-width="1.6132" stroke-linecap="round" stroke-miterlimit="10" d="M138.951,65.897
			c-0.281,0-0.422,13.901-0.562,25.835"/>
		
			<line fill="none" stroke="#4C0000" stroke-width="1.6132" stroke-linecap="round" stroke-miterlimit="10" x1="138.389" y1="91.733" x2="180.9" y2="91.716"/>
	</g>
	<g id="front_00000021835981457808784140000000559883809827313083_">
		<path fill="none" stroke="#C90D0C" stroke-width="1.6132" stroke-linecap="round" stroke-miterlimit="10" d="M140.075,113.658
			c-0.562,0-0.562-47.761-1.123-47.761"/>
		<path fill="none" stroke="#C90D0C" stroke-width="1.6132" stroke-linecap="round" stroke-miterlimit="10" d="M142.32,113.658
			c-0.561,0-0.561-47.761-1.123-47.761"/>
		<path fill="none" stroke="#C90D0C" stroke-width="1.6132" stroke-linecap="round" stroke-miterlimit="10" d="M144.562,113.658
			c-0.56,0-0.56-47.761-1.12-47.761"/>
		<path fill="none" stroke="#C90D0C" stroke-width="1.6132" stroke-linecap="round" stroke-miterlimit="10" d="M146.806,113.658
			c-0.561,0-0.561-47.761-1.122-47.761"/>
		<path fill="none" stroke="#C90D0C" stroke-width="1.6132" stroke-linecap="round" stroke-miterlimit="10" d="M149.05,113.658
			c-0.561,0-0.561-47.761-1.122-47.761"/>
		<path fill="none" stroke="#C90D0C" stroke-width="1.6132" stroke-linecap="round" stroke-miterlimit="10" d="M151.292,113.658
			c-0.561,0-0.561-47.761-1.122-47.761"/>
		<path fill="none" stroke="#C90D0C" stroke-width="1.6132" stroke-linecap="round" stroke-miterlimit="10" d="M153.534,113.658
			c-0.561,0-0.561-47.761-1.122-47.761"/>
		<path fill="none" stroke="#C90D0C" stroke-width="1.6132" stroke-linecap="round" stroke-miterlimit="10" d="M155.774,113.658
			c-0.56,0-0.56-47.761-1.12-47.761"/>
		<path fill="none" stroke="#C90D0C" stroke-width="1.6132" stroke-linecap="round" stroke-miterlimit="10" d="M158.015,113.658
			c-0.56,0-0.56-47.761-1.121-47.761"/>
		<path fill="none" stroke="#C90D0C" stroke-width="1.6132" stroke-linecap="round" stroke-miterlimit="10" d="M160.253,113.658
			c-0.559,0-0.559-47.761-1.118-47.761"/>
		<path fill="none" stroke="#C90D0C" stroke-width="1.6132" stroke-linecap="round" stroke-miterlimit="10" d="M161.909,87.823
			c-0.133-11.254-0.273-21.926-0.537-21.926"/>
		
			<line fill="none" stroke="#C90D0C" stroke-width="1.6132" stroke-linecap="round" stroke-miterlimit="10" x1="161.932" y1="87.823" x2="180.9" y2="87.806"/>
	</g>
</g>
<g id="one">
	<g>
		<path d="M67.825,75.627c2.737-0.486,4.753-2.377,5.474-5.33c-0.774,0.756-1.639,1.026-2.701,1.026
			c-1.945,0-3.241-1.458-3.241-3.655c0-2.431,1.603-4.249,3.745-4.249c1.152,0,2.125,0.504,2.827,1.368
			c0.72,0.9,1.152,2.197,1.152,3.709c0,2.071-0.72,4.033-2.161,5.348c-1.531,1.387-2.701,1.818-5.042,2.143L67.825,75.627z
			 M73.335,68.497c0-3.025-0.811-4.573-2.377-4.573c-0.54,0-1.008,0.216-1.314,0.612c-0.36,0.486-0.63,1.548-0.63,2.521
			c0,2.143,0.864,3.493,2.214,3.493c0.792,0,2.107-0.396,2.107-1.351V68.497z"/>
		<path d="M80.318,75.843c-3.079,0-4.069-3.349-4.069-6.302c0-3.187,1.242-6.122,4.141-6.122c2.359,0,3.998,2.539,3.998,6.229
			C84.387,72.747,83.253,75.843,80.318,75.843z M80.282,63.888c-1.495,0-2.305,2.125-2.305,5.78c0,3.655,0.792,5.708,2.341,5.708
			c1.53,0,2.341-2.07,2.341-5.635C82.659,65.995,81.866,63.888,80.282,63.888z"/>
		<path d="M88.418,68.569c-1.458,0-2.575-1.134-2.575-2.593c0-1.44,1.134-2.557,2.611-2.557c1.404,0,2.539,1.152,2.539,2.575
			C90.992,67.435,89.858,68.569,88.418,68.569z M88.381,64.032c-0.99,0-1.836,0.9-1.836,1.963c0,1.08,0.846,1.962,1.873,1.962
			s1.873-0.9,1.873-1.98C90.29,64.914,89.426,64.032,88.381,64.032z"/>
	</g>
	
		<line fill="none" stroke="#000000" stroke-width="0.5" stroke-linecap="round" stroke-miterlimit="10" stroke-dasharray="6,6" x1="96.257" y1="89.778" x2="96.257" y2="48.944"/>
	<g>
		<g>
			<path fill="none" stroke="#000000" stroke-width="0.4" stroke-miterlimit="10" d="M98.925,64.309
				c12.6,1.237,22.456,12.167,22.456,25.469"/>
			<g>
				<polygon points="99.956,65.881 99.416,64.365 100.133,62.924 96.539,64.192 				"/>
			</g>
		</g>
	</g>
	<g>
		<g>
			
				<line fill="none" stroke="#C90D0C" stroke-width="1.6" stroke-linecap="round" stroke-miterlimit="10" x1="174.634" y1="87.814" x2="169.936" y2="87.814"/>
			<g>
				<polygon fill="#C90D0C" points="175.237,81.27 176.329,82.442 170.55,87.813 176.329,93.185 175.237,94.356 168.2,87.813 				
					"/>
			</g>
		</g>
	</g>
	<g>
		<g>
			
				<line fill="none" stroke="#0000B2" stroke-width="1.613" stroke-linecap="round" stroke-miterlimit="10" x1="94.536" y1="14.286" x2="94.531" y2="8.858"/>
			<g>
				<polygon fill="#0000B2" points="101.128,8.936 99.945,7.836 94.537,13.667 89.116,7.846 87.935,8.948 94.539,16.036 				"/>
			</g>
		</g>
	</g>
	
		<line fill="none" stroke="#000000" stroke-width="0.5" stroke-linecap="round" stroke-miterlimit="10" stroke-dasharray="6,6" x1="96.257" y1="90.221" x2="137.091" y2="90.221"/>
</g>
<g id="two" display="none">
	<g display="inline">
		<g>
			
				<line fill="none" stroke="#C90D0C" stroke-width="1.892" stroke-linecap="round" stroke-miterlimit="10" x1="114.504" y1="89.771" x2="84.489" y2="89.783"/>
			<g>
				<polygon fill="#C90D0C" points="90.755,82.043 92.047,83.428 85.216,89.781 92.052,96.131 90.762,97.517 82.438,89.782 				"/>
			</g>
		</g>
	</g>
	<g display="inline">
		<path d="M72.354,77.243c2.741,0,4.101,0.958,4.101,2.817c0,1.015-0.552,1.672-1.262,2.123c-0.611,0.395-1.34,0.563-2.188,0.732
			v0.019c1.695,0.488,2.484,1.484,2.484,2.817c0,2.517-2.228,3.757-5.421,3.757h-5.362v-0.301c1.084-0.15,1.301-0.338,1.636-1.502
			l2.386-8.189c0.138-0.47,0.217-0.92,0.217-1.202c0-0.545-0.276-0.676-1.518-0.771v-0.3H72.354z M68.924,85.527
			c-0.394,1.427-0.69,2.385-0.69,2.629c0,0.526,0.493,0.789,1.321,0.789c2.267,0,3.805-1.108,3.805-3.193
			c0-1.165-0.572-1.991-1.321-2.235c-0.394-0.131-1.242-0.225-2.484-0.225L68.924,85.527z M70.501,82.69
			c2.583,0,3.963-0.996,3.963-2.855c0-1.39-0.71-2.029-2.307-2.029c-0.769,0-0.966,0-1.163,0.676l-1.242,4.208H70.501z"/>
	</g>
	<g display="inline">
		<g>
			
				<line fill="none" stroke="#000000" stroke-width="0.5636" stroke-miterlimit="10" x1="67.376" y1="74.157" x2="76.931" y2="74.157"/>
			<g>
				<polygon points="75.063,76.462 74.679,76.05 76.715,74.158 74.679,72.266 75.063,71.853 77.542,74.158 				"/>
			</g>
		</g>
	</g>
</g>
<g id="three" display="none">
	<g display="inline">
		<g>
			
				<line fill="none" stroke="#0000B2" stroke-width="1.892" stroke-linecap="round" stroke-miterlimit="10" x1="98.464" y1="73.745" x2="98.476" y2="103.759"/>
			<g>
				<polygon fill="#0000B2" points="90.736,97.493 92.121,96.202 98.474,103.033 104.824,96.197 106.21,97.487 98.475,105.811 				
					"/>
			</g>
		</g>
	</g>
	<g display="inline">
		<path d="M72.354,77.243c2.741,0,4.101,0.958,4.101,2.817c0,1.015-0.552,1.672-1.262,2.123c-0.611,0.395-1.34,0.563-2.188,0.732
			v0.019c1.695,0.488,2.484,1.484,2.484,2.817c0,2.517-2.228,3.757-5.421,3.757h-5.362v-0.301c1.084-0.15,1.301-0.338,1.636-1.502
			l2.386-8.189c0.138-0.47,0.217-0.92,0.217-1.202c0-0.545-0.276-0.676-1.518-0.771v-0.3H72.354z M68.924,85.527
			c-0.394,1.427-0.69,2.385-0.69,2.629c0,0.526,0.493,0.789,1.321,0.789c2.267,0,3.805-1.108,3.805-3.193
			c0-1.165-0.572-1.991-1.321-2.235c-0.394-0.131-1.242-0.225-2.484-0.225L68.924,85.527z M70.501,82.69
			c2.583,0,3.963-0.996,3.963-2.855c0-1.39-0.71-2.029-2.307-2.029c-0.769,0-0.966,0-1.163,0.676l-1.242,4.208H70.501z"/>
	</g>
	<g display="inline">
		<g>
			
				<line fill="none" stroke="#000000" stroke-width="0.5636" stroke-miterlimit="10" x1="67.376" y1="74.157" x2="76.931" y2="74.157"/>
			<g>
				<polygon points="75.063,76.462 74.679,76.05 76.715,74.158 74.679,72.266 75.063,71.853 77.542,74.158 				"/>
			</g>
		</g>
	</g>
</g>
<g id="four" display="none">
	<g display="inline">
		<g>
			
				<line fill="none" stroke="#C90D0C" stroke-width="1.892" stroke-linecap="round" stroke-miterlimit="10" x1="82.438" y1="89.784" x2="112.452" y2="89.772"/>
			<g>
				<polygon fill="#C90D0C" points="106.186,97.513 104.895,96.127 111.726,89.774 104.89,83.425 106.18,82.039 114.504,89.773 				
					"/>
			</g>
		</g>
	</g>
	<g display="inline">
		<path d="M72.354,77.243c2.741,0,4.101,0.958,4.101,2.817c0,1.015-0.552,1.672-1.262,2.123c-0.611,0.395-1.34,0.563-2.188,0.732
			v0.019c1.695,0.488,2.484,1.484,2.484,2.817c0,2.517-2.228,3.757-5.421,3.757h-5.362v-0.301c1.084-0.15,1.301-0.338,1.636-1.502
			l2.386-8.189c0.138-0.47,0.217-0.92,0.217-1.202c0-0.545-0.276-0.676-1.518-0.771v-0.3H72.354z M68.924,85.527
			c-0.394,1.427-0.69,2.385-0.69,2.629c0,0.526,0.493,0.789,1.321,0.789c2.267,0,3.805-1.108,3.805-3.193
			c0-1.165-0.572-1.991-1.321-2.235c-0.394-0.131-1.242-0.225-2.484-0.225L68.924,85.527z M70.501,82.69
			c2.583,0,3.963-0.996,3.963-2.855c0-1.39-0.71-2.029-2.307-2.029c-0.769,0-0.966,0-1.163,0.676l-1.242,4.208H70.501z"/>
	</g>
	<g display="inline">
		<g>
			
				<line fill="none" stroke="#000000" stroke-width="0.5636" stroke-miterlimit="10" x1="67.376" y1="74.157" x2="76.931" y2="74.157"/>
			<g>
				<polygon points="75.063,76.462 74.679,76.05 76.715,74.158 74.679,72.266 75.063,71.853 77.542,74.158 				"/>
			</g>
		</g>
	</g>
</g>
<g id="five" display="none">
	<g display="inline">
		<g>
			
				<line fill="none" stroke="#0000B2" stroke-width="1.892" stroke-linecap="round" stroke-miterlimit="10" x1="98.477" y1="105.811" x2="98.465" y2="75.797"/>
			<g>
				<polygon fill="#0000B2" points="106.205,82.063 104.82,83.354 98.467,76.523 92.118,83.359 90.731,82.069 98.466,73.745 				"/>
			</g>
		</g>
	</g>
	<g display="inline">
		<path d="M72.354,77.243c2.741,0,4.101,0.958,4.101,2.817c0,1.015-0.552,1.672-1.262,2.123c-0.611,0.395-1.34,0.563-2.188,0.732
			v0.019c1.695,0.488,2.484,1.484,2.484,2.817c0,2.517-2.228,3.757-5.421,3.757h-5.362v-0.301c1.084-0.15,1.301-0.338,1.636-1.502
			l2.386-8.189c0.138-0.47,0.217-0.92,0.217-1.202c0-0.545-0.276-0.676-1.518-0.771v-0.3H72.354z M68.924,85.527
			c-0.394,1.427-0.69,2.385-0.69,2.629c0,0.526,0.493,0.789,1.321,0.789c2.267,0,3.805-1.108,3.805-3.193
			c0-1.165-0.572-1.991-1.321-2.235c-0.394-0.131-1.242-0.225-2.484-0.225L68.924,85.527z M70.501,82.69
			c2.583,0,3.963-0.996,3.963-2.855c0-1.39-0.71-2.029-2.307-2.029c-0.769,0-0.966,0-1.163,0.676l-1.242,4.208H70.501z"/>
	</g>
	<g display="inline">
		<g>
			
				<line fill="none" stroke="#000000" stroke-width="0.5636" stroke-miterlimit="10" x1="67.376" y1="74.157" x2="76.931" y2="74.157"/>
			<g>
				<polygon points="75.063,76.462 74.679,76.05 76.715,74.158 74.679,72.266 75.063,71.853 77.542,74.158 				"/>
			</g>
		</g>
	</g>
</g>
</svg>
