<?xml version="1.0" encoding="utf-8"?>
<!-- Generator: Adobe Illustrator 26.0.1, SVG Export Plug-In . SVG Version: 6.00 Build 0)  -->
<svg version="1.1" xmlns="http://www.w3.org/2000/svg" xmlns:xlink="http://www.w3.org/1999/xlink" x="0px" y="0px"
	 viewBox="0 0 135.534 75.037" enable-background="new 0 0 135.534 75.037" xml:space="preserve">
<g id="Graph_paper_slanted" opacity="0.5">
	<g id="Clipped_grid_00000003068028900943026870000011536296927355263674_">
		<defs>
			<polygon id="SVGID_1_" points="79.386,94.822 -52.196,94.822 30.351,12.957 161.933,12.957 			"/>
		</defs>
		<clipPath id="SVGID_00000165194461093023351610000007167992541310192063_">
			<use xlink:href="#SVGID_1_"  overflow="visible"/>
		</clipPath>
		
			<g id="Grid_00000142891597197125820610000009767860333217090727_" opacity="0.25" clip-path="url(#SVGID_00000165194461093023351610000007167992541310192063_)">
			<g id="Horizontal_1_mm_00000151508609497893311650000018408800186222605470_">
				
					<line fill="none" stroke="#00ABEB" stroke-width="0.15" stroke-miterlimit="10" x1="2.087" y1="-15.606" x2="228.928" y2="-15.606"/>
				
					<line fill="none" stroke="#00ABEB" stroke-width="0.15" stroke-miterlimit="10" x1="4.075" y1="-17.594" x2="230.916" y2="-17.594"/>
				
					<line fill="none" stroke="#00ABEB" stroke-width="0.15" stroke-miterlimit="10" x1="-115.201" y1="101.682" x2="111.639" y2="101.682"/>
				
					<line fill="none" stroke="#00ABEB" stroke-width="0.15" stroke-miterlimit="10" x1="-113.213" y1="99.694" x2="113.628" y2="99.694"/>
				
					<line fill="none" stroke="#00ABEB" stroke-width="0.15" stroke-miterlimit="10" x1="-111.226" y1="97.706" x2="115.615" y2="97.706"/>
				
					<line fill="none" stroke="#00ABEB" stroke-width="0.15" stroke-miterlimit="10" x1="-109.238" y1="95.718" x2="117.603" y2="95.718"/>
				
					<line fill="none" stroke="#00ABEB" stroke-width="0.15" stroke-miterlimit="10" x1="-107.249" y1="93.73" x2="119.591" y2="93.73"/>
				
					<line fill="none" stroke="#00ABEB" stroke-width="0.15" stroke-miterlimit="10" x1="-105.262" y1="91.742" x2="121.579" y2="91.742"/>
				
					<line fill="none" stroke="#00ABEB" stroke-width="0.15" stroke-miterlimit="10" x1="-103.274" y1="89.754" x2="123.567" y2="89.754"/>
				
					<line fill="none" stroke="#00ABEB" stroke-width="0.15" stroke-miterlimit="10" x1="-101.286" y1="87.767" x2="125.554" y2="87.767"/>
				
					<line fill="none" stroke="#00ABEB" stroke-width="0.15" stroke-miterlimit="10" x1="-99.298" y1="85.778" x2="127.543" y2="85.778"/>
				
					<line fill="none" stroke="#00ABEB" stroke-width="0.15" stroke-miterlimit="10" x1="-97.31" y1="83.79" x2="129.531" y2="83.79"/>
				
					<line fill="none" stroke="#00ABEB" stroke-width="0.15" stroke-miterlimit="10" x1="-95.322" y1="81.803" x2="131.519" y2="81.803"/>
				
					<line fill="none" stroke="#00ABEB" stroke-width="0.15" stroke-miterlimit="10" x1="-93.334" y1="79.815" x2="133.507" y2="79.815"/>
				
					<line fill="none" stroke="#00ABEB" stroke-width="0.15" stroke-miterlimit="10" x1="-91.346" y1="77.826" x2="135.495" y2="77.826"/>
				
					<line fill="none" stroke="#00ABEB" stroke-width="0.15" stroke-miterlimit="10" x1="-89.358" y1="75.839" x2="137.482" y2="75.839"/>
				
					<line fill="none" stroke="#00ABEB" stroke-width="0.15" stroke-miterlimit="10" x1="-87.37" y1="73.851" x2="139.471" y2="73.851"/>
				
					<line fill="none" stroke="#00ABEB" stroke-width="0.15" stroke-miterlimit="10" x1="-85.382" y1="71.863" x2="141.459" y2="71.863"/>
				
					<line fill="none" stroke="#00ABEB" stroke-width="0.15" stroke-miterlimit="10" x1="-83.395" y1="69.875" x2="143.446" y2="69.875"/>
				
					<line fill="none" stroke="#00ABEB" stroke-width="0.15" stroke-miterlimit="10" x1="-81.406" y1="67.887" x2="145.434" y2="67.887"/>
				
					<line fill="none" stroke="#00ABEB" stroke-width="0.15" stroke-miterlimit="10" x1="-79.418" y1="65.899" x2="147.423" y2="65.899"/>
				
					<line fill="none" stroke="#00ABEB" stroke-width="0.15" stroke-miterlimit="10" x1="-77.431" y1="63.911" x2="149.41" y2="63.911"/>
				
					<line fill="none" stroke="#00ABEB" stroke-width="0.15" stroke-miterlimit="10" x1="-75.443" y1="61.923" x2="151.398" y2="61.923"/>
				
					<line fill="none" stroke="#00ABEB" stroke-width="0.15" stroke-miterlimit="10" x1="-73.454" y1="59.935" x2="153.387" y2="59.935"/>
				
					<line fill="none" stroke="#00ABEB" stroke-width="0.15" stroke-miterlimit="10" x1="-71.467" y1="57.947" x2="155.374" y2="57.947"/>
				
					<line fill="none" stroke="#00ABEB" stroke-width="0.15" stroke-miterlimit="10" x1="-69.478" y1="55.959" x2="157.362" y2="55.959"/>
				
					<line fill="none" stroke="#00ABEB" stroke-width="0.15" stroke-miterlimit="10" x1="-67.491" y1="53.972" x2="159.35" y2="53.972"/>
				
					<line fill="none" stroke="#00ABEB" stroke-width="0.15" stroke-miterlimit="10" x1="-65.503" y1="51.984" x2="161.338" y2="51.984"/>
				
					<line fill="none" stroke="#00ABEB" stroke-width="0.15" stroke-miterlimit="10" x1="-63.515" y1="49.995" x2="163.326" y2="49.995"/>
				
					<line fill="none" stroke="#00ABEB" stroke-width="0.15" stroke-miterlimit="10" x1="-61.527" y1="48.008" x2="165.314" y2="48.008"/>
				
					<line fill="none" stroke="#00ABEB" stroke-width="0.15" stroke-miterlimit="10" x1="-59.539" y1="46.02" x2="167.302" y2="46.02"/>
				
					<line fill="none" stroke="#00ABEB" stroke-width="0.15" stroke-miterlimit="10" x1="-57.551" y1="44.032" x2="169.29" y2="44.032"/>
				
					<line fill="none" stroke="#00ABEB" stroke-width="0.15" stroke-miterlimit="10" x1="-55.563" y1="42.044" x2="171.278" y2="42.044"/>
				
					<line fill="none" stroke="#00ABEB" stroke-width="0.15" stroke-miterlimit="10" x1="-53.575" y1="40.056" x2="173.266" y2="40.056"/>
				
					<line fill="none" stroke="#00ABEB" stroke-width="0.15" stroke-miterlimit="10" x1="-51.587" y1="38.068" x2="175.254" y2="38.068"/>
				
					<line fill="none" stroke="#00ABEB" stroke-width="0.15" stroke-miterlimit="10" x1="-49.6" y1="36.08" x2="177.241" y2="36.08"/>
				
					<line fill="none" stroke="#00ABEB" stroke-width="0.15" stroke-miterlimit="10" x1="-47.611" y1="34.092" x2="179.23" y2="34.092"/>
				
					<line fill="none" stroke="#00ABEB" stroke-width="0.15" stroke-miterlimit="10" x1="-45.623" y1="32.104" x2="181.218" y2="32.104"/>
				
					<line fill="none" stroke="#00ABEB" stroke-width="0.15" stroke-miterlimit="10" x1="-43.636" y1="30.117" x2="183.205" y2="30.117"/>
				
					<line fill="none" stroke="#00ABEB" stroke-width="0.15" stroke-miterlimit="10" x1="-41.648" y1="28.128" x2="185.193" y2="28.128"/>
				
					<line fill="none" stroke="#00ABEB" stroke-width="0.15" stroke-miterlimit="10" x1="-39.659" y1="26.14" x2="187.181" y2="26.14"/>
				
					<line fill="none" stroke="#00ABEB" stroke-width="0.15" stroke-miterlimit="10" x1="-37.672" y1="24.153" x2="189.169" y2="24.153"/>
				
					<line fill="none" stroke="#00ABEB" stroke-width="0.15" stroke-miterlimit="10" x1="-35.683" y1="22.164" x2="191.157" y2="22.164"/>
				
					<line fill="none" stroke="#00ABEB" stroke-width="0.15" stroke-miterlimit="10" x1="-33.696" y1="20.177" x2="193.145" y2="20.177"/>
				
					<line fill="none" stroke="#00ABEB" stroke-width="0.15" stroke-miterlimit="10" x1="-31.708" y1="18.189" x2="195.133" y2="18.189"/>
				<line fill="none" stroke="#00ABEB" stroke-width="0.15" stroke-miterlimit="10" x1="-29.72" y1="16.2" x2="197.121" y2="16.2"/>
				
					<line fill="none" stroke="#00ABEB" stroke-width="0.15" stroke-miterlimit="10" x1="-27.732" y1="14.213" x2="199.109" y2="14.213"/>
				
					<line fill="none" stroke="#00ABEB" stroke-width="0.15" stroke-miterlimit="10" x1="-25.744" y1="12.225" x2="201.097" y2="12.225"/>
				
					<line fill="none" stroke="#00ABEB" stroke-width="0.15" stroke-miterlimit="10" x1="-23.756" y1="10.237" x2="203.085" y2="10.237"/>
				
					<line fill="none" stroke="#00ABEB" stroke-width="0.15" stroke-miterlimit="10" x1="-21.768" y1="8.249" x2="205.073" y2="8.249"/>
				
					<line fill="none" stroke="#00ABEB" stroke-width="0.15" stroke-miterlimit="10" x1="-19.78" y1="6.261" x2="207.061" y2="6.261"/>
				
					<line fill="none" stroke="#00ABEB" stroke-width="0.15" stroke-miterlimit="10" x1="-17.792" y1="4.273" x2="209.049" y2="4.273"/>
				
					<line fill="none" stroke="#00ABEB" stroke-width="0.15" stroke-miterlimit="10" x1="-15.804" y1="2.285" x2="211.036" y2="2.285"/>
				
					<line fill="none" stroke="#00ABEB" stroke-width="0.15" stroke-miterlimit="10" x1="-13.816" y1="0.297" x2="213.025" y2="0.297"/>
				
					<line fill="none" stroke="#00ABEB" stroke-width="0.15" stroke-miterlimit="10" x1="-11.828" y1="-1.691" x2="215.013" y2="-1.691"/>
				<line fill="none" stroke="#00ABEB" stroke-width="0.15" stroke-miterlimit="10" x1="-9.841" y1="-3.678" x2="217" y2="-3.678"/>
				
					<line fill="none" stroke="#00ABEB" stroke-width="0.15" stroke-miterlimit="10" x1="-7.852" y1="-5.667" x2="218.989" y2="-5.667"/>
				
					<line fill="none" stroke="#00ABEB" stroke-width="0.15" stroke-miterlimit="10" x1="-5.865" y1="-7.654" x2="220.976" y2="-7.654"/>
				
					<line fill="none" stroke="#00ABEB" stroke-width="0.15" stroke-miterlimit="10" x1="-3.876" y1="-9.642" x2="222.964" y2="-9.642"/>
				
					<line fill="none" stroke="#00ABEB" stroke-width="0.15" stroke-miterlimit="10" x1="-1.888" y1="-11.631" x2="224.952" y2="-11.631"/>
				
					<line fill="none" stroke="#00ABEB" stroke-width="0.15" stroke-miterlimit="10" x1="0.099" y1="-13.618" x2="226.94" y2="-13.618"/>
			</g>
			<g id="Vertical_1_mm_00000181073523592228201180000012361058669048395659_">
				<g>
					
						<line fill="none" stroke="#00ABEB" stroke-width="0.15" stroke-miterlimit="10" x1="-115.117" y1="101.672" x2="4.203" y2="-17.647"/>
				</g>
				
					<line fill="none" stroke="#00ABEB" stroke-width="0.15" stroke-miterlimit="10" x1="-112.283" y1="101.672" x2="7.037" y2="-17.647"/>
				
					<line fill="none" stroke="#00ABEB" stroke-width="0.15" stroke-miterlimit="10" x1="-109.448" y1="101.672" x2="9.872" y2="-17.647"/>
				
					<line fill="none" stroke="#00ABEB" stroke-width="0.15" stroke-miterlimit="10" x1="-106.613" y1="101.672" x2="12.707" y2="-17.647"/>
				
					<line fill="none" stroke="#00ABEB" stroke-width="0.15" stroke-miterlimit="10" x1="-103.779" y1="101.672" x2="15.541" y2="-17.647"/>
				
					<line fill="none" stroke="#00ABEB" stroke-width="0.15" stroke-miterlimit="10" x1="-100.944" y1="101.672" x2="18.376" y2="-17.647"/>
				
					<line fill="none" stroke="#00ABEB" stroke-width="0.15" stroke-miterlimit="10" x1="-98.109" y1="101.672" x2="21.211" y2="-17.647"/>
				
					<line fill="none" stroke="#00ABEB" stroke-width="0.15" stroke-miterlimit="10" x1="-95.275" y1="101.672" x2="24.045" y2="-17.647"/>
				
					<line fill="none" stroke="#00ABEB" stroke-width="0.15" stroke-miterlimit="10" x1="-92.439" y1="101.672" x2="26.881" y2="-17.647"/>
				
					<line fill="none" stroke="#00ABEB" stroke-width="0.15" stroke-miterlimit="10" x1="-89.605" y1="101.672" x2="29.715" y2="-17.647"/>
				
					<line fill="none" stroke="#00ABEB" stroke-width="0.15" stroke-miterlimit="10" x1="-86.77" y1="101.672" x2="32.55" y2="-17.647"/>
				
					<line fill="none" stroke="#00ABEB" stroke-width="0.15" stroke-miterlimit="10" x1="-83.935" y1="101.672" x2="35.385" y2="-17.647"/>
				
					<line fill="none" stroke="#00ABEB" stroke-width="0.15" stroke-miterlimit="10" x1="-81.101" y1="101.672" x2="38.219" y2="-17.647"/>
				
					<line fill="none" stroke="#00ABEB" stroke-width="0.15" stroke-miterlimit="10" x1="-78.267" y1="101.672" x2="41.053" y2="-17.647"/>
				
					<line fill="none" stroke="#00ABEB" stroke-width="0.15" stroke-miterlimit="10" x1="-75.432" y1="101.672" x2="43.888" y2="-17.647"/>
				
					<line fill="none" stroke="#00ABEB" stroke-width="0.15" stroke-miterlimit="10" x1="-72.598" y1="101.672" x2="46.722" y2="-17.647"/>
				
					<line fill="none" stroke="#00ABEB" stroke-width="0.15" stroke-miterlimit="10" x1="-69.763" y1="101.672" x2="49.557" y2="-17.647"/>
				
					<line fill="none" stroke="#00ABEB" stroke-width="0.15" stroke-miterlimit="10" x1="-66.928" y1="101.672" x2="52.392" y2="-17.647"/>
				
					<line fill="none" stroke="#00ABEB" stroke-width="0.15" stroke-miterlimit="10" x1="-64.094" y1="101.672" x2="55.226" y2="-17.647"/>
				
					<line fill="none" stroke="#00ABEB" stroke-width="0.15" stroke-miterlimit="10" x1="-61.259" y1="101.672" x2="58.061" y2="-17.647"/>
				
					<line fill="none" stroke="#00ABEB" stroke-width="0.15" stroke-miterlimit="10" x1="-58.424" y1="101.672" x2="60.896" y2="-17.647"/>
				
					<line fill="none" stroke="#00ABEB" stroke-width="0.15" stroke-miterlimit="10" x1="-55.59" y1="101.672" x2="63.73" y2="-17.647"/>
				
					<line fill="none" stroke="#00ABEB" stroke-width="0.15" stroke-miterlimit="10" x1="-52.755" y1="101.672" x2="66.565" y2="-17.647"/>
				
					<line fill="none" stroke="#00ABEB" stroke-width="0.15" stroke-miterlimit="10" x1="-49.92" y1="101.672" x2="69.4" y2="-17.647"/>
				
					<line fill="none" stroke="#00ABEB" stroke-width="0.15" stroke-miterlimit="10" x1="-47.085" y1="101.672" x2="72.235" y2="-17.647"/>
				
					<line fill="none" stroke="#00ABEB" stroke-width="0.15" stroke-miterlimit="10" x1="-44.25" y1="101.672" x2="75.07" y2="-17.647"/>
				
					<line fill="none" stroke="#00ABEB" stroke-width="0.15" stroke-miterlimit="10" x1="-41.416" y1="101.672" x2="77.904" y2="-17.647"/>
				
					<line fill="none" stroke="#00ABEB" stroke-width="0.15" stroke-miterlimit="10" x1="-38.581" y1="101.672" x2="80.739" y2="-17.647"/>
				
					<line fill="none" stroke="#00ABEB" stroke-width="0.15" stroke-miterlimit="10" x1="-35.746" y1="101.672" x2="83.574" y2="-17.647"/>
				
					<line fill="none" stroke="#00ABEB" stroke-width="0.15" stroke-miterlimit="10" x1="-32.913" y1="101.672" x2="86.407" y2="-17.647"/>
				
					<line fill="none" stroke="#00ABEB" stroke-width="0.15" stroke-miterlimit="10" x1="-30.078" y1="101.672" x2="89.242" y2="-17.647"/>
				
					<line fill="none" stroke="#00ABEB" stroke-width="0.15" stroke-miterlimit="10" x1="-27.243" y1="101.672" x2="92.077" y2="-17.647"/>
				
					<line fill="none" stroke="#00ABEB" stroke-width="0.15" stroke-miterlimit="10" x1="-24.409" y1="101.672" x2="94.911" y2="-17.647"/>
				
					<line fill="none" stroke="#00ABEB" stroke-width="0.15" stroke-miterlimit="10" x1="-21.574" y1="101.672" x2="97.746" y2="-17.647"/>
				
					<line fill="none" stroke="#00ABEB" stroke-width="0.15" stroke-miterlimit="10" x1="-18.739" y1="101.672" x2="100.581" y2="-17.647"/>
				
					<line fill="none" stroke="#00ABEB" stroke-width="0.15" stroke-miterlimit="10" x1="-15.905" y1="101.672" x2="103.415" y2="-17.647"/>
				
					<line fill="none" stroke="#00ABEB" stroke-width="0.15" stroke-miterlimit="10" x1="-13.07" y1="101.672" x2="106.25" y2="-17.647"/>
				
					<line fill="none" stroke="#00ABEB" stroke-width="0.15" stroke-miterlimit="10" x1="-10.235" y1="101.672" x2="109.085" y2="-17.647"/>
				
					<line fill="none" stroke="#00ABEB" stroke-width="0.15" stroke-miterlimit="10" x1="-7.401" y1="101.672" x2="111.919" y2="-17.647"/>
				
					<line fill="none" stroke="#00ABEB" stroke-width="0.15" stroke-miterlimit="10" x1="-4.566" y1="101.672" x2="114.754" y2="-17.647"/>
				
					<line fill="none" stroke="#00ABEB" stroke-width="0.15" stroke-miterlimit="10" x1="-1.732" y1="101.672" x2="117.588" y2="-17.647"/>
				
					<line fill="none" stroke="#00ABEB" stroke-width="0.15" stroke-miterlimit="10" x1="1.104" y1="101.672" x2="120.424" y2="-17.647"/>
				
					<line fill="none" stroke="#00ABEB" stroke-width="0.15" stroke-miterlimit="10" x1="3.939" y1="101.672" x2="123.259" y2="-17.647"/>
				
					<line fill="none" stroke="#00ABEB" stroke-width="0.15" stroke-miterlimit="10" x1="6.773" y1="101.672" x2="126.093" y2="-17.647"/>
				
					<line fill="none" stroke="#00ABEB" stroke-width="0.15" stroke-miterlimit="10" x1="9.608" y1="101.672" x2="128.928" y2="-17.647"/>
				
					<line fill="none" stroke="#00ABEB" stroke-width="0.15" stroke-miterlimit="10" x1="12.442" y1="101.672" x2="131.762" y2="-17.647"/>
				
					<line fill="none" stroke="#00ABEB" stroke-width="0.15" stroke-miterlimit="10" x1="15.276" y1="101.672" x2="134.596" y2="-17.647"/>
				
					<line fill="none" stroke="#00ABEB" stroke-width="0.15" stroke-miterlimit="10" x1="18.111" y1="101.672" x2="137.431" y2="-17.647"/>
				
					<line fill="none" stroke="#00ABEB" stroke-width="0.15" stroke-miterlimit="10" x1="20.946" y1="101.672" x2="140.266" y2="-17.647"/>
				
					<line fill="none" stroke="#00ABEB" stroke-width="0.15" stroke-miterlimit="10" x1="23.78" y1="101.672" x2="143.1" y2="-17.647"/>
				
					<line fill="none" stroke="#00ABEB" stroke-width="0.15" stroke-miterlimit="10" x1="26.615" y1="101.672" x2="145.935" y2="-17.647"/>
				
					<line fill="none" stroke="#00ABEB" stroke-width="0.15" stroke-miterlimit="10" x1="29.45" y1="101.672" x2="148.77" y2="-17.647"/>
				
					<line fill="none" stroke="#00ABEB" stroke-width="0.15" stroke-miterlimit="10" x1="32.284" y1="101.672" x2="151.604" y2="-17.647"/>
				
					<line fill="none" stroke="#00ABEB" stroke-width="0.15" stroke-miterlimit="10" x1="35.119" y1="101.672" x2="154.439" y2="-17.647"/>
				
					<line fill="none" stroke="#00ABEB" stroke-width="0.15" stroke-miterlimit="10" x1="37.954" y1="101.672" x2="157.274" y2="-17.647"/>
				
					<line fill="none" stroke="#00ABEB" stroke-width="0.15" stroke-miterlimit="10" x1="40.788" y1="101.672" x2="160.108" y2="-17.647"/>
				
					<line fill="none" stroke="#00ABEB" stroke-width="0.15" stroke-miterlimit="10" x1="43.624" y1="101.672" x2="162.944" y2="-17.647"/>
				
					<line fill="none" stroke="#00ABEB" stroke-width="0.15" stroke-miterlimit="10" x1="46.458" y1="101.672" x2="165.778" y2="-17.647"/>
				
					<line fill="none" stroke="#00ABEB" stroke-width="0.15" stroke-miterlimit="10" x1="49.293" y1="101.672" x2="168.613" y2="-17.647"/>
				
					<line fill="none" stroke="#00ABEB" stroke-width="0.15" stroke-miterlimit="10" x1="52.128" y1="101.672" x2="171.448" y2="-17.647"/>
				
					<line fill="none" stroke="#00ABEB" stroke-width="0.15" stroke-miterlimit="10" x1="54.962" y1="101.672" x2="174.282" y2="-17.647"/>
				
					<line fill="none" stroke="#00ABEB" stroke-width="0.15" stroke-miterlimit="10" x1="57.796" y1="101.672" x2="177.116" y2="-17.647"/>
				
					<line fill="none" stroke="#00ABEB" stroke-width="0.15" stroke-miterlimit="10" x1="60.631" y1="101.672" x2="179.951" y2="-17.647"/>
				
					<line fill="none" stroke="#00ABEB" stroke-width="0.15" stroke-miterlimit="10" x1="63.465" y1="101.672" x2="182.785" y2="-17.647"/>
				
					<line fill="none" stroke="#00ABEB" stroke-width="0.15" stroke-miterlimit="10" x1="66.3" y1="101.672" x2="185.62" y2="-17.647"/>
				
					<line fill="none" stroke="#00ABEB" stroke-width="0.15" stroke-miterlimit="10" x1="69.135" y1="101.672" x2="188.455" y2="-17.647"/>
				
					<line fill="none" stroke="#00ABEB" stroke-width="0.15" stroke-miterlimit="10" x1="71.969" y1="101.672" x2="191.289" y2="-17.647"/>
				
					<line fill="none" stroke="#00ABEB" stroke-width="0.15" stroke-miterlimit="10" x1="74.804" y1="101.672" x2="194.124" y2="-17.647"/>
				
					<line fill="none" stroke="#00ABEB" stroke-width="0.15" stroke-miterlimit="10" x1="77.639" y1="101.672" x2="196.959" y2="-17.647"/>
				
					<line fill="none" stroke="#00ABEB" stroke-width="0.15" stroke-miterlimit="10" x1="80.473" y1="101.672" x2="199.793" y2="-17.647"/>
				
					<line fill="none" stroke="#00ABEB" stroke-width="0.15" stroke-miterlimit="10" x1="83.308" y1="101.672" x2="202.628" y2="-17.647"/>
				
					<line fill="none" stroke="#00ABEB" stroke-width="0.15" stroke-miterlimit="10" x1="86.143" y1="101.672" x2="205.463" y2="-17.647"/>
				
					<line fill="none" stroke="#00ABEB" stroke-width="0.15" stroke-miterlimit="10" x1="88.978" y1="101.672" x2="208.298" y2="-17.647"/>
				
					<line fill="none" stroke="#00ABEB" stroke-width="0.15" stroke-miterlimit="10" x1="91.813" y1="101.672" x2="211.133" y2="-17.647"/>
				
					<line fill="none" stroke="#00ABEB" stroke-width="0.15" stroke-miterlimit="10" x1="94.647" y1="101.672" x2="213.967" y2="-17.647"/>
				
					<line fill="none" stroke="#00ABEB" stroke-width="0.15" stroke-miterlimit="10" x1="97.482" y1="101.672" x2="216.802" y2="-17.647"/>
				
					<line fill="none" stroke="#00ABEB" stroke-width="0.15" stroke-miterlimit="10" x1="100.317" y1="101.672" x2="219.637" y2="-17.647"/>
				
					<line fill="none" stroke="#00ABEB" stroke-width="0.15" stroke-miterlimit="10" x1="103.15" y1="101.672" x2="222.47" y2="-17.647"/>
				
					<line fill="none" stroke="#00ABEB" stroke-width="0.15" stroke-miterlimit="10" x1="105.985" y1="101.672" x2="225.305" y2="-17.647"/>
				
					<line fill="none" stroke="#00ABEB" stroke-width="0.15" stroke-miterlimit="10" x1="108.82" y1="101.672" x2="228.14" y2="-17.647"/>
				
					<line fill="none" stroke="#00ABEB" stroke-width="0.15" stroke-miterlimit="10" x1="111.654" y1="101.672" x2="230.974" y2="-17.647"/>
			</g>
			<g id="Horizontal_5_mm_00000011735556503592991880000008134099091165005186_">
				
					<line fill="none" stroke="#00ABEB" stroke-width="0.3" stroke-miterlimit="10" x1="-115.476" y1="101.682" x2="111.639" y2="101.682"/>
				
					<line fill="none" stroke="#00ABEB" stroke-width="0.3" stroke-miterlimit="10" x1="-105.537" y1="91.742" x2="121.579" y2="91.742"/>
				
					<line fill="none" stroke="#00ABEB" stroke-width="0.3" stroke-miterlimit="10" x1="-95.597" y1="81.803" x2="131.519" y2="81.803"/>
				
					<line fill="none" stroke="#00ABEB" stroke-width="0.3" stroke-miterlimit="10" x1="-85.657" y1="71.863" x2="141.459" y2="71.863"/>
				
					<line fill="none" stroke="#00ABEB" stroke-width="0.3" stroke-miterlimit="10" x1="-75.717" y1="61.923" x2="151.398" y2="61.923"/>
				
					<line fill="none" stroke="#00ABEB" stroke-width="0.3" stroke-miterlimit="10" x1="-65.778" y1="51.984" x2="161.338" y2="51.984"/>
				
					<line fill="none" stroke="#00ABEB" stroke-width="0.3" stroke-miterlimit="10" x1="-55.838" y1="42.044" x2="171.278" y2="42.044"/>
				
					<line fill="none" stroke="#00ABEB" stroke-width="0.3" stroke-miterlimit="10" x1="-45.898" y1="32.104" x2="181.218" y2="32.104"/>
				
					<line fill="none" stroke="#00ABEB" stroke-width="0.3" stroke-miterlimit="10" x1="-35.958" y1="22.164" x2="191.157" y2="22.164"/>
				
					<line fill="none" stroke="#00ABEB" stroke-width="0.3" stroke-miterlimit="10" x1="-26.019" y1="12.225" x2="201.097" y2="12.225"/>
				
					<line fill="none" stroke="#00ABEB" stroke-width="0.3" stroke-miterlimit="10" x1="-16.079" y1="2.285" x2="211.036" y2="2.285"/>
			</g>
			<g id="Vertical_5_mm_00000064346364918789686960000003233481195482251947_">
				
					<line fill="none" stroke="#00ABEB" stroke-width="0.3" stroke-miterlimit="10" x1="-115.117" y1="101.672" x2="4.396" y2="-17.84"/>
				
					<line fill="none" stroke="#00ABEB" stroke-width="0.3" stroke-miterlimit="10" x1="-100.944" y1="101.672" x2="18.569" y2="-17.84"/>
				
					<line fill="none" stroke="#00ABEB" stroke-width="0.3" stroke-miterlimit="10" x1="-86.77" y1="101.672" x2="32.742" y2="-17.84"/>
				
					<line fill="none" stroke="#00ABEB" stroke-width="0.3" stroke-miterlimit="10" x1="-72.598" y1="101.672" x2="46.915" y2="-17.84"/>
				
					<line fill="none" stroke="#00ABEB" stroke-width="0.3" stroke-miterlimit="10" x1="-58.424" y1="101.672" x2="61.089" y2="-17.84"/>
				
					<line fill="none" stroke="#00ABEB" stroke-width="0.3" stroke-miterlimit="10" x1="-44.25" y1="101.672" x2="75.262" y2="-17.84"/>
				
					<line fill="none" stroke="#00ABEB" stroke-width="0.3" stroke-miterlimit="10" x1="-30.078" y1="101.672" x2="89.435" y2="-17.84"/>
				
					<line fill="none" stroke="#00ABEB" stroke-width="0.3" stroke-miterlimit="10" x1="-15.905" y1="101.672" x2="103.608" y2="-17.84"/>
				
					<line fill="none" stroke="#00ABEB" stroke-width="0.3" stroke-miterlimit="10" x1="-1.732" y1="101.672" x2="117.781" y2="-17.84"/>
				
					<line fill="none" stroke="#00ABEB" stroke-width="0.3" stroke-miterlimit="10" x1="12.442" y1="101.672" x2="131.955" y2="-17.84"/>
				
					<line fill="none" stroke="#00ABEB" stroke-width="0.3" stroke-miterlimit="10" x1="26.615" y1="101.672" x2="146.128" y2="-17.84"/>
				
					<line fill="none" stroke="#00ABEB" stroke-width="0.3" stroke-miterlimit="10" x1="40.788" y1="101.672" x2="160.301" y2="-17.84"/>
				
					<line fill="none" stroke="#00ABEB" stroke-width="0.3" stroke-miterlimit="10" x1="54.962" y1="101.672" x2="174.474" y2="-17.84"/>
				
					<line fill="none" stroke="#00ABEB" stroke-width="0.3" stroke-miterlimit="10" x1="69.135" y1="101.672" x2="188.648" y2="-17.84"/>
				
					<line fill="none" stroke="#00ABEB" stroke-width="0.3" stroke-miterlimit="10" x1="83.308" y1="101.672" x2="202.821" y2="-17.84"/>
				
					<line fill="none" stroke="#00ABEB" stroke-width="0.3" stroke-miterlimit="10" x1="97.482" y1="101.672" x2="216.994" y2="-17.84"/>
				
					<line fill="none" stroke="#00ABEB" stroke-width="0.3" stroke-miterlimit="10" x1="111.654" y1="101.672" x2="231.167" y2="-17.84"/>
			</g>
			<g id="Horizontal_10_mm_00000163045836177147705350000008480455355013810362_">
				
					<line id="_x31_9_00000057116790517712807720000015084113881736219806_" fill="none" stroke="#00ABEB" stroke-width="0.7" stroke-miterlimit="10" x1="-115.476" y1="101.682" x2="111.639" y2="101.682"/>
				
					<line id="_x32_0_00000024685878617286333290000013167547815532084100_" fill="none" stroke="#00ABEB" stroke-width="0.7" stroke-miterlimit="10" x1="-95.597" y1="81.803" x2="131.519" y2="81.803"/>
				
					<line id="_x32_1_00000138564813020868535020000012777939180148238773_" fill="none" stroke="#00ABEB" stroke-width="0.7" stroke-miterlimit="10" x1="-75.717" y1="61.923" x2="151.398" y2="61.923"/>
				
					<line id="_x32_2_00000052807586205252870140000014502512662559454639_" fill="none" stroke="#00ABEB" stroke-width="0.7" stroke-miterlimit="10" x1="-55.838" y1="42.044" x2="171.278" y2="42.044"/>
				
					<line id="_x32_3_00000051376893246677475670000009295515732899575694_" fill="none" stroke="#00ABEB" stroke-width="0.7" stroke-miterlimit="10" x1="-35.958" y1="22.164" x2="191.157" y2="22.164"/>
				
					<line id="_x32_4_00000099657911357833521510000007853591198542098087_" fill="none" stroke="#00ABEB" stroke-width="0.7" stroke-miterlimit="10" x1="-16.079" y1="2.285" x2="211.036" y2="2.285"/>
				
					<line id="_x32_5_00000155127691660191171140000008292164438978366870_" fill="none" stroke="#00ABEB" stroke-width="0.7" stroke-miterlimit="10" x1="3.801" y1="-17.594" x2="230.916" y2="-17.594"/>
			</g>
			<g id="Vertical_10_mm_00000134969164297783457920000010833503864539426239_">
				
					<line id="_x30__00000151539528360119995570000005083818057555393183_" fill="none" stroke="#00ABEB" stroke-width="0.7" stroke-miterlimit="10" x1="-115.117" y1="101.672" x2="4.396" y2="-17.84"/>
				
					<line id="_x31__00000021823889366233599640000011971139016478256513_" fill="none" stroke="#00ABEB" stroke-width="0.7" stroke-miterlimit="10" x1="-86.77" y1="101.672" x2="32.742" y2="-17.84"/>
				
					<line id="_x32__00000071550223824624162640000006130814236846722696_" fill="none" stroke="#00ABEB" stroke-width="0.7" stroke-miterlimit="10" x1="-58.424" y1="101.672" x2="61.089" y2="-17.84"/>
				
					<line id="_x33__00000042015976804734918030000005045165563697445304_" fill="none" stroke="#00ABEB" stroke-width="0.7" stroke-miterlimit="10" x1="-30.078" y1="101.672" x2="89.435" y2="-17.84"/>
				
					<line id="_x34__00000081637789328126233800000002486991317463304126_" fill="none" stroke="#00ABEB" stroke-width="0.7" stroke-miterlimit="10" x1="-1.732" y1="101.672" x2="117.781" y2="-17.84"/>
				
					<line id="_x35__00000051353690731882489090000004794744233340785543_" fill="none" stroke="#00ABEB" stroke-width="0.7" stroke-miterlimit="10" x1="26.615" y1="101.672" x2="146.128" y2="-17.84"/>
				
					<line id="_x36__00000011745311307505536660000010485558803267122343_" fill="none" stroke="#00ABEB" stroke-width="0.7" stroke-miterlimit="10" x1="54.962" y1="101.672" x2="174.474" y2="-17.84"/>
				
					<line id="_x37__00000045602144989735358580000003937589459941247142_" fill="none" stroke="#00ABEB" stroke-width="0.7" stroke-miterlimit="10" x1="83.308" y1="101.672" x2="202.821" y2="-17.84"/>
				
					<line id="_x38__00000047029857857898873560000014194396358708286345_" fill="none" stroke="#00ABEB" stroke-width="0.7" stroke-miterlimit="10" x1="111.654" y1="101.672" x2="231.167" y2="-17.84"/>
			</g>
		</g>
	</g>
</g>
<g id="Axis" display="none">
	<g id="lines" display="inline">
		<g>
			<g>
				
					<line fill="none" stroke="#000000" stroke-width="0.5" stroke-miterlimit="10" x1="57.901" y1="42.034" x2="57.901" y2="4.825"/>
				<g>
					<polygon points="59.753,6.23 57.901,5.443 56.05,6.23 57.901,1.84 					"/>
				</g>
			</g>
		</g>
		<g>
			<g>
				
					<line fill="none" stroke="#000000" stroke-width="0.5" stroke-miterlimit="10" x1="57.901" y1="42.034" x2="96.107" y2="42.034"/>
				<g>
					<polygon points="94.703,43.886 95.489,42.034 94.703,40.183 99.092,42.034 					"/>
				</g>
			</g>
		</g>
		<g>
			<g>
				
					<line fill="none" stroke="#000000" stroke-width="0.5" stroke-miterlimit="10" x1="57.901" y1="42.034" x2="33.195" y2="66.741"/>
				<g>
					<polygon points="32.879,64.438 33.632,66.304 35.497,67.057 31.084,68.851 					"/>
				</g>
			</g>
		</g>
	</g>
	<g id="names" display="inline">
		<g>
			<path d="M96.888,47.437c0.51-0.846,0.732-1.277,0.732-1.542c0-0.084-0.042-0.12-0.156-0.192c-0.12-0.078-0.156-0.138-0.156-0.234
				c0-0.132,0.102-0.222,0.24-0.222c0.18,0,0.312,0.15,0.312,0.33c0,0.342-0.288,1.001-0.786,1.829
				c-0.624,1.032-1.265,1.721-1.607,1.721c-0.18,0-0.306-0.102-0.306-0.258c0-0.132,0.102-0.24,0.234-0.24
				c0.21,0,0.21,0.167,0.366,0.167c0.078,0,0.15-0.048,0.288-0.198c0.108-0.114,0.378-0.468,0.426-0.545
				c0.036-0.072,0.06-0.144,0.06-0.21c0-0.24-0.33-1.583-0.492-1.991c-0.114-0.293-0.222-0.384-0.462-0.384
				c-0.066,0-0.12,0.006-0.186,0.024v-0.102c0.066-0.012,0.132-0.024,0.192-0.036c0.12-0.024,0.318-0.06,0.642-0.108h0.024
				c0.09,0,0.408,0.996,0.51,1.529L96.888,47.437z"/>
		</g>
		<g>
			<path d="M53.035,4.082c0.348,0.078,0.479,0.144,0.719,0.498c0.156,0.228,0.27,0.3,0.42,0.3c0.096,0,0.162-0.036,0.162-0.09
				c0-0.024-0.012-0.054-0.03-0.09c-0.036-0.072-0.048-0.12-0.048-0.167c0.006-0.102,0.102-0.204,0.198-0.204
				c0.126,0,0.21,0.09,0.21,0.222c0,0.24-0.222,0.456-0.558,0.456c-0.174,0-0.378-0.078-0.678-0.264
				c-0.282-0.174-0.474-0.251-0.629-0.251c-0.096,0-0.174,0.03-0.27,0.108l-0.054-0.054l1.859-2.231H53.52
				c-0.312,0-0.426,0.054-0.545,0.36l-0.096-0.024l0.192-0.695h1.697V2.02L53.035,4.082z"/>
		</g>
		<g>
			<path d="M29.595,64.859c0.419-0.642,0.642-0.857,0.905-0.857c0.144,0,0.246,0.09,0.246,0.222c0,0.126-0.084,0.216-0.204,0.216
				c-0.114,0-0.168-0.102-0.312-0.102c-0.108,0-0.324,0.264-0.588,0.726c0,0.042,0.012,0.126,0.048,0.27l0.192,0.804
				c0.042,0.168,0.096,0.246,0.18,0.246c0.078,0,0.144-0.06,0.282-0.24c0.054-0.072,0.078-0.108,0.126-0.168l0.09,0.054
				c-0.348,0.54-0.504,0.684-0.731,0.684c-0.192,0-0.282-0.108-0.354-0.408l-0.174-0.714l-0.528,0.714
				c-0.264,0.354-0.384,0.408-0.57,0.408c-0.186,0-0.3-0.096-0.3-0.252c0-0.12,0.084-0.216,0.204-0.216
				c0.054,0,0.114,0.024,0.192,0.066c0.06,0.036,0.12,0.054,0.156,0.054c0.066,0,0.18-0.114,0.306-0.294l0.492-0.696l-0.168-0.743
				c-0.084-0.36-0.126-0.408-0.276-0.408c-0.048,0-0.12,0.012-0.234,0.042l-0.108,0.03l-0.018-0.096l0.066-0.024
				c0.366-0.132,0.564-0.174,0.702-0.174c0.15,0,0.222,0.108,0.306,0.516L29.595,64.859z"/>
		</g>
	</g>
</g>
<g id="Layer_3">
	<polyline fill="none" stroke="#000000" stroke-linecap="round" stroke-linejoin="round" stroke-miterlimit="10" points="
		98.172,10.237 86.244,22.164 106.28,22.164 106.516,22.164 66.757,61.923 66.365,61.923 9.672,61.923 49.431,22.164 69.466,22.164 
		81.394,10.237 	"/>
	<g>
		<g>
			
				<line fill="none" stroke="#000000" stroke-width="0.7" stroke-linecap="round" stroke-linejoin="round" x1="78.334" y1="13.31" x2="74.041" y2="17.603"/>
			<g>
				<polygon points="73.657,13.939 74.357,13.963 74.231,17.413 77.68,17.287 77.705,17.987 73.504,18.139 				"/>
			</g>
		</g>
	</g>
	<g>
		<g>
			
				<line fill="none" stroke="#000000" stroke-width="0.7" stroke-linecap="round" stroke-linejoin="round" x1="94.624" y1="13.847" x2="90.331" y2="18.14"/>
			<g>
				<polygon points="90.959,13.462 90.984,14.163 94.433,14.036 94.307,17.486 95.008,17.511 95.16,13.309 				"/>
			</g>
		</g>
	</g>
	<g>
		<g>
			
				<line fill="none" stroke="#000000" stroke-width="0.7" stroke-linecap="round" stroke-linejoin="round" x1="40.304" y1="31.297" x2="36.011" y2="35.59"/>
			<g>
				<polygon points="35.627,31.926 36.327,31.951 36.2,35.4 39.65,35.274 39.675,35.974 35.473,36.127 				"/>
			</g>
		</g>
	</g>
	<g>
		<g>
			
				<line fill="none" stroke="#000000" stroke-width="0.7" stroke-linecap="round" stroke-linejoin="round" x1="84.574" y1="44.263" x2="80.281" y2="48.556"/>
			<g>
				<polygon points="80.91,43.879 80.935,44.579 84.384,44.452 84.258,47.902 84.958,47.927 85.111,43.726 				"/>
			</g>
		</g>
	</g>
	<g>
		<g>
			
				<line fill="none" stroke="#000000" stroke-width="0.7" stroke-linecap="round" stroke-linejoin="round" x1="37.194" y1="61.923" x2="43.266" y2="61.923"/>
			<g>
				<polygon points="40.946,64.786 40.469,64.273 42.997,61.924 40.469,59.574 40.946,59.061 44.025,61.924 				"/>
			</g>
		</g>
	</g>
	<g>
		<g>
			
				<line fill="none" stroke="#000000" stroke-width="0.7" stroke-linecap="round" stroke-linejoin="round" x1="62.798" y1="22.067" x2="56.726" y2="22.067"/>
			<g>
				<polygon points="59.046,19.205 59.523,19.717 56.995,22.067 59.523,24.417 59.046,24.93 55.967,22.067 				"/>
			</g>
		</g>
	</g>
	<g>
		<g>
			
				<line fill="none" stroke="#000000" stroke-width="0.7" stroke-linecap="round" stroke-linejoin="round" x1="100.859" y1="22.067" x2="94.787" y2="22.067"/>
			<g>
				<polygon points="97.107,19.205 97.584,19.717 95.056,22.067 97.584,24.417 97.107,24.93 94.028,22.067 				"/>
			</g>
		</g>
	</g>
	<g>
		<g>
			
				<line fill="none" stroke="#0000FF" stroke-width="0.5" stroke-linecap="round" stroke-linejoin="round" x1="114.244" y1="22.059" x2="133.413" y2="22.059"/>
			<g>
				<polygon fill="#0000FF" points="115.901,24.104 116.242,23.738 114.436,22.06 116.242,20.381 115.901,20.015 113.702,22.06 				
					"/>
			</g>
		</g>
	</g>
	<g>
		<g>
			
				<line fill="none" stroke="#0000FF" stroke-width="0.5" stroke-linecap="round" stroke-linejoin="round" x1="94.248" y1="42.055" x2="113.417" y2="42.055"/>
			<g>
				<polygon fill="#0000FF" points="95.905,44.1 96.246,43.734 94.44,42.056 96.246,40.377 95.905,40.011 93.706,42.056 				"/>
			</g>
		</g>
	</g>
	<g>
		<g>
			
				<line fill="none" stroke="#0000FF" stroke-width="0.5" stroke-linecap="round" stroke-linejoin="round" x1="74.371" y1="61.933" x2="93.54" y2="61.933"/>
			<g>
				<polygon fill="#0000FF" points="76.027,63.977 76.369,63.611 74.563,61.933 76.369,60.254 76.027,59.888 73.828,61.933 				"/>
			</g>
		</g>
	</g>
	<g>
		<g>
			
				<line fill="none" stroke="#0000FF" stroke-width="0.5" stroke-linecap="round" stroke-linejoin="round" x1="84.475" y1="51.828" x2="103.644" y2="51.828"/>
			<g>
				<polygon fill="#0000FF" points="86.132,53.873 86.473,53.507 84.667,51.829 86.473,50.15 86.132,49.784 83.933,51.829 				"/>
			</g>
		</g>
	</g>
	<g>
		<g>
			
				<line fill="none" stroke="#0000FF" stroke-width="0.5" stroke-linecap="round" stroke-linejoin="round" x1="104.216" y1="32.088" x2="123.385" y2="32.088"/>
			<g>
				<polygon fill="#0000FF" points="105.872,34.132 106.214,33.766 104.408,32.088 106.214,30.409 105.872,30.043 103.673,32.088 
									"/>
			</g>
		</g>
	</g>
	<g>
		<path fill="#0000FF" d="M120.73,39.615c1.389,0,2.079,0.51,2.079,1.499c0,0.54-0.28,0.89-0.64,1.129
			c-0.31,0.21-0.68,0.3-1.109,0.39v0.01c0.859,0.26,1.259,0.79,1.259,1.499c0,1.339-1.129,1.999-2.749,1.999h-2.719v-0.16
			c0.55-0.08,0.66-0.18,0.83-0.799l1.209-4.357c0.07-0.25,0.11-0.49,0.11-0.64c0-0.29-0.14-0.36-0.77-0.41v-0.16H120.73z
			 M118.992,44.022c-0.2,0.759-0.35,1.269-0.35,1.399c0,0.28,0.25,0.42,0.67,0.42c1.149,0,1.929-0.59,1.929-1.699
			c0-0.62-0.29-1.059-0.669-1.189c-0.2-0.07-0.63-0.12-1.259-0.12L118.992,44.022z M119.791,42.513c1.309,0,2.009-0.53,2.009-1.519
			c0-0.74-0.36-1.08-1.169-1.08c-0.39,0-0.49,0-0.589,0.36l-0.63,2.239H119.791z"/>
	</g>
	<g>
		<g>
			
				<line fill="none" stroke="#0000FF" stroke-width="0.4" stroke-linecap="round" stroke-linejoin="round" x1="117.944" y1="37.417" x2="122.646" y2="37.417"/>
			<g>
				<polygon fill="#0000FF" points="121.321,39.053 121.048,38.76 122.492,37.418 121.048,36.075 121.321,35.782 123.08,37.418 				
					"/>
			</g>
		</g>
	</g>
	<g>
		<path d="M77.161,5.375c-0.56,0.07-0.649,0.16-0.819,0.77l-1.2,4.288c-0.09,0.32-0.15,0.56-0.15,0.759c0,0.28,0.12,0.32,0.69,0.39
			v0.16h-2.439v-0.16c0.55-0.1,0.69-0.189,0.84-0.75l1.199-4.407c0.07-0.25,0.13-0.46,0.13-0.62c0-0.25-0.16-0.4-0.72-0.43v-0.16
			h2.469V5.375z"/>
	</g>
	<g>
		<path fill="#00A300" d="M24.228,42.835c-0.75,0.91-0.989,1.1-1.389,1.1c-0.28,0-0.4-0.12-0.4-0.41c0-0.25,0.02-0.33,0.23-1.149
			c-0.75,1.129-1.329,1.569-2.029,1.569c-0.56,0-1-0.4-1-1.159c0-1.549,1.529-3.358,2.858-3.358c0.43,0,0.72,0.21,0.8,0.58
			l0.11-0.479l0.03-0.03l0.61-0.07l0.07,0.03c-0.02,0.09-0.03,0.11-0.06,0.21c-0.47,1.709-0.89,3.428-0.89,3.628
			c0,0.07,0.06,0.13,0.14,0.13c0.09,0,0.22-0.08,0.52-0.41l0.27-0.29L24.228,42.835z M22.559,39.647c-0.45,0-0.89,0.31-1.31,0.919
			c-0.419,0.629-0.77,1.519-0.77,2.149c0,0.549,0.24,0.739,0.6,0.739c0.5,0,0.97-0.55,1.27-0.979c0.47-0.68,0.77-1.539,0.77-2.249
			C23.119,39.877,22.909,39.647,22.559,39.647z"/>
	</g>
	<g>
		<g>
			<line fill="none" stroke="#00A300" stroke-width="0.1" stroke-miterlimit="10" x1="30.19" y1="41.95" x2="31.69" y2="41.95"/>
			
				<line fill="none" stroke="#00A300" stroke-width="0.1" stroke-miterlimit="10" stroke-dasharray="3.1312,3.1312" x1="34.822" y1="41.95" x2="83.355" y2="41.95"/>
			<line fill="none" stroke="#00A300" stroke-width="0.1" stroke-miterlimit="10" x1="84.92" y1="41.95" x2="86.42" y2="41.95"/>
		</g>
	</g>
	<g>
		<path fill="#00A300" d="M47.967,37.781c0.68-1.129,1.229-1.509,1.929-1.509c0.67,0,1.16,0.43,1.16,1.2
			c0,1.579-1.649,3.318-3.198,3.318c-0.57,0-1.299-0.23-1.299-0.53V40.2l1.419-5.228c0.06-0.24,0.09-0.379,0.09-0.47
			c0-0.22-0.05-0.229-0.64-0.25v-0.17c0.669-0.08,1.029-0.14,1.529-0.23l0.05,0.05l-0.21,0.82l-0.84,3.058H47.967z M49.506,36.762
			c-0.479,0-0.939,0.42-1.369,1.149c-0.44,0.74-0.72,1.709-0.72,2.309c0,0.23,0.15,0.34,0.46,0.34c0.43,0,0.859-0.209,1.229-0.589
			c0.6-0.62,1.1-1.609,1.1-2.349C50.206,37.012,49.946,36.762,49.506,36.762z"/>
	</g>
	<g>
		<g>
			
				<line fill="none" stroke="#FF0000" stroke-width="0.5" stroke-linecap="round" stroke-linejoin="round" x1="86.244" y1="42.044" x2="86.244" y2="25.923"/>
			<g>
				<polygon fill="#FF0000" points="88.289,27.579 87.923,27.92 86.244,26.115 84.566,27.92 84.199,27.579 86.244,25.38 				"/>
			</g>
		</g>
	</g>
	<g>
		<path fill="#FF0000" d="M81.958,30.607l-0.21-0.02c0.03-0.22,0.03-0.27,0.03-0.33c0-0.73-0.23-0.86-1.989-0.86
			c-0.46,0-0.61,0.06-0.68,0.32l-0.64,2.269c1.679-0.02,1.709-0.04,2.159-0.939l0.18,0.05l-0.759,2.349l-0.17-0.05
			c0.06-0.31,0.08-0.45,0.08-0.61c0-0.399-0.28-0.439-0.75-0.439c-0.22,0-0.459-0.01-0.829-0.03l-0.59,2.129
			c-0.07,0.25-0.14,0.45-0.14,0.6c0,0.24,0.18,0.35,0.77,0.39v0.16h-2.508v-0.16c0.58-0.04,0.68-0.26,0.83-0.779l1.229-4.417
			c0.07-0.25,0.1-0.45,0.1-0.61c0-0.28-0.1-0.34-0.76-0.4v-0.16h4.967L81.958,30.607z"/>
	</g>
	<g>
		<g>
			
				<line fill="none" stroke="#FF0000" stroke-width="0.4" stroke-linecap="round" stroke-linejoin="round" x1="77.56" y1="26.871" x2="82.262" y2="26.871"/>
			<g>
				<polygon fill="#FF0000" points="80.937,28.507 80.664,28.214 82.109,26.872 80.664,25.529 80.937,25.236 82.696,26.872 				"/>
			</g>
		</g>
	</g>
	<g>
		<g>
			
				<line fill="none" stroke="#FF0000" stroke-width="0.5" stroke-linecap="round" stroke-linejoin="round" x1="29.656" y1="41.579" x2="29.656" y2="57.7"/>
			<g>
				<polygon fill="#FF0000" points="27.612,56.043 27.978,55.702 29.656,57.508 31.335,55.702 31.701,56.043 29.656,58.242 				"/>
			</g>
		</g>
	</g>
	<g>
		<path fill="#FF0000" d="M39.871,49.285l-0.21-0.02c0.03-0.22,0.03-0.27,0.03-0.33c0-0.73-0.23-0.86-1.989-0.86
			c-0.46,0-0.61,0.06-0.68,0.32l-0.64,2.269c1.679-0.02,1.709-0.04,2.159-0.939l0.18,0.05l-0.759,2.349l-0.17-0.05
			c0.06-0.31,0.08-0.45,0.08-0.61c0-0.399-0.28-0.439-0.75-0.439c-0.22,0-0.459-0.01-0.829-0.03l-0.59,2.129
			c-0.07,0.25-0.14,0.45-0.14,0.6c0,0.24,0.18,0.35,0.77,0.39v0.16h-2.508v-0.16c0.58-0.04,0.68-0.26,0.83-0.779l1.229-4.417
			c0.07-0.25,0.1-0.45,0.1-0.61c0-0.28-0.1-0.34-0.76-0.4v-0.16h4.967L39.871,49.285z"/>
	</g>
	<g>
		<g>
			
				<line fill="none" stroke="#FF0000" stroke-width="0.4" stroke-linecap="round" stroke-linejoin="round" x1="35.474" y1="45.549" x2="40.176" y2="45.549"/>
			<g>
				<polygon fill="#FF0000" points="38.85,47.185 38.577,46.892 40.022,45.549 38.577,44.206 38.85,43.913 40.61,45.549 				"/>
			</g>
		</g>
	</g>
	<g>
		<path fill="#808080" d="M35.692,68.515c0.006-0.479,0.054-0.695,0.21-0.965c0.156-0.27,0.468-0.432,0.845-0.432
			c0.36,0,0.624,0.156,0.624,0.372c0,0.138-0.108,0.246-0.252,0.246c-0.102,0-0.174-0.054-0.27-0.216
			c-0.108-0.174-0.186-0.234-0.318-0.234c-0.228,0-0.335,0.18-0.335,0.534v0.695h0.731v0.192h-0.731v1.883
			c0,0.45,0.066,0.516,0.558,0.534v0.09h-1.559v-0.09c0.432-0.024,0.498-0.096,0.498-0.534v-1.883h-0.492v-0.192H35.692z"/>
		<path fill="#808080" d="M38.032,69.019c0.3-0.432,0.468-0.563,0.72-0.563c0.204,0,0.33,0.12,0.33,0.318
			c0,0.167-0.09,0.27-0.234,0.27c-0.078,0-0.144-0.03-0.24-0.12c-0.066-0.06-0.12-0.09-0.156-0.09c-0.168,0-0.42,0.3-0.42,0.492
			v1.35c0,0.342,0.102,0.432,0.51,0.45v0.09h-1.439v-0.09c0.384-0.072,0.426-0.114,0.426-0.414V69.21c0-0.264-0.054-0.36-0.204-0.36
			c-0.072,0-0.126,0.006-0.21,0.024v-0.096c0.354-0.114,0.57-0.198,0.888-0.324l0.03,0.012V69.019z"/>
		<path fill="#808080" d="M40.504,71.273c-0.726,0-1.295-0.594-1.295-1.427s0.54-1.391,1.349-1.391c0.732,0,1.295,0.545,1.295,1.373
			C41.853,70.662,41.313,71.273,40.504,71.273z M41.014,68.923c-0.144-0.18-0.312-0.3-0.57-0.3c-0.414,0-0.696,0.354-0.696,0.954
			c0,0.474,0.096,0.906,0.318,1.229c0.132,0.192,0.324,0.3,0.54,0.3c0.444,0,0.708-0.42,0.708-1.115
			C41.313,69.583,41.205,69.168,41.014,68.923z"/>
		<path fill="#808080" d="M43.696,71.213l0.006-0.09c0.3-0.024,0.372-0.144,0.372-0.54V69.39c0-0.425-0.144-0.605-0.438-0.605
			c-0.198,0-0.342,0.072-0.618,0.342v1.655c0,0.234,0.084,0.318,0.39,0.342v0.09h-1.265v-0.09c0.306-0.024,0.372-0.12,0.372-0.474
			v-1.458c0-0.294-0.042-0.39-0.21-0.39c-0.066,0-0.132,0.006-0.174,0.024v-0.102c0.33-0.096,0.527-0.162,0.821-0.27L43,68.473
			v0.468h0.006c0.312-0.354,0.587-0.485,0.863-0.485c0.456,0,0.708,0.33,0.708,0.923v1.325c0,0.324,0.072,0.39,0.366,0.42v0.09
			H43.696z"/>
		<path fill="#808080" d="M46.707,70.817c-0.198,0.312-0.425,0.456-0.726,0.456c-0.348,0-0.527-0.258-0.527-0.762v-1.805h-0.318
			c-0.018-0.012-0.024-0.024-0.024-0.042c0-0.036,0.036-0.072,0.102-0.114c0.156-0.09,0.354-0.312,0.582-0.642
			c0.036-0.054,0.084-0.108,0.12-0.168c0.03,0,0.042,0.018,0.042,0.078v0.695h0.606v0.192h-0.606v1.715
			c0,0.384,0.09,0.54,0.312,0.54c0.132,0,0.228-0.054,0.36-0.21L46.707,70.817z"/>
	</g>
	<g>
		<path fill="#808080" d="M87.322,5.025c0.3-0.432,0.468-0.563,0.72-0.563c0.204,0,0.33,0.12,0.33,0.318
			c0,0.167-0.09,0.27-0.234,0.27c-0.078,0-0.144-0.03-0.24-0.12c-0.066-0.06-0.12-0.09-0.156-0.09c-0.168,0-0.42,0.3-0.42,0.492
			v1.35c0,0.342,0.102,0.432,0.51,0.45v0.09h-1.439V7.13c0.384-0.072,0.426-0.114,0.426-0.414V5.217c0-0.264-0.054-0.36-0.204-0.36
			c-0.072,0-0.126,0.006-0.21,0.024V4.785c0.354-0.114,0.57-0.198,0.888-0.324l0.03,0.012V5.025z"/>
		<path fill="#808080" d="M90.891,6.278c-0.234,0.653-0.653,1.001-1.253,1.001c-0.708,0-1.139-0.534-1.139-1.361
			c0-0.846,0.486-1.457,1.241-1.457c0.372,0,0.642,0.144,0.833,0.414c0.12,0.168,0.18,0.36,0.204,0.684H88.93
			c0.03,0.456,0.06,0.689,0.276,0.978c0.168,0.222,0.39,0.33,0.666,0.33c0.402,0,0.63-0.186,0.924-0.629L90.891,6.278z
			 M90.165,5.367c-0.066-0.486-0.192-0.689-0.587-0.689c-0.336,0-0.57,0.24-0.636,0.689H90.165z"/>
		<path fill="#808080" d="M93.663,6.992c-0.18,0.228-0.335,0.288-0.54,0.288c-0.222,0-0.354-0.12-0.384-0.438h-0.006
			c-0.318,0.36-0.612,0.438-0.87,0.438c-0.372,0-0.63-0.228-0.63-0.624c0-0.312,0.186-0.546,0.42-0.702
			c0.18-0.12,0.402-0.234,1.08-0.486V5.145c0-0.372-0.198-0.54-0.468-0.54c-0.24,0-0.42,0.132-0.42,0.294
			c0,0.108,0.036,0.126,0.036,0.252c0,0.114-0.12,0.246-0.276,0.246c-0.126,0-0.258-0.114-0.258-0.275
			c0-0.156,0.096-0.348,0.306-0.48c0.168-0.108,0.42-0.18,0.689-0.18c0.336,0,0.564,0.096,0.708,0.27
			c0.144,0.174,0.168,0.3,0.168,0.666v1.146c0,0.276,0.078,0.396,0.186,0.396c0.096,0,0.156-0.03,0.258-0.114V6.992z M92.734,5.613
			c-0.372,0.132-0.618,0.258-0.768,0.396c-0.144,0.132-0.204,0.276-0.204,0.462c0,0.318,0.18,0.461,0.414,0.461
			c0.12,0,0.246-0.03,0.348-0.096c0.174-0.12,0.21-0.204,0.21-0.378V5.613z"/>
		<path fill="#808080" d="M94.636,5.025c0.3-0.432,0.468-0.563,0.72-0.563c0.204,0,0.33,0.12,0.33,0.318
			c0,0.167-0.09,0.27-0.234,0.27c-0.078,0-0.144-0.03-0.24-0.12c-0.066-0.06-0.12-0.09-0.156-0.09c-0.168,0-0.42,0.3-0.42,0.492
			v1.35c0,0.342,0.102,0.432,0.51,0.45v0.09h-1.439V7.13c0.384-0.072,0.426-0.114,0.426-0.414V5.217c0-0.264-0.054-0.36-0.204-0.36
			c-0.072,0-0.126,0.006-0.21,0.024V4.785c0.354-0.114,0.57-0.198,0.888-0.324l0.03,0.012V5.025z"/>
	</g>
	<g>
		<g>
			<line fill="none" stroke="#00A300" stroke-width="0.2" stroke-miterlimit="10" x1="90.98" y1="8.962" x2="89.92" y2="10.022"/>
			
				<line fill="none" stroke="#00A300" stroke-width="0.2" stroke-miterlimit="10" stroke-dasharray="2.9324,2.9324" x1="87.846" y1="12.096" x2="30.824" y2="69.118"/>
			
				<line fill="none" stroke="#00A300" stroke-width="0.2" stroke-miterlimit="10" x1="29.787" y1="70.155" x2="28.726" y2="71.216"/>
		</g>
	</g>
	<g>
		<path fill="#FF00FF" d="M83.189,8.282v-0.19c0.36,0,0.43-0.02,0.55-0.09c0.08-0.04,0.14-0.15,0.14-0.24c0-0.15-0.07-0.42-0.19-0.7
			l-0.41-0.939H80.66l-0.459,1.139c-0.05,0.13-0.09,0.3-0.09,0.42c0,0.31,0.22,0.41,0.7,0.41v0.19h-1.989v-0.19
			c0.58-0.06,0.669-0.27,1.259-1.669l2.059-4.877h0.2l2.458,5.627c0.28,0.649,0.42,0.859,0.939,0.919v0.19H83.189z M81.979,2.965
			L80.83,5.714h2.309L81.979,2.965z"/>
	</g>
	<g>
		<path fill="#FF00FF" d="M100.771,4.804c0.66,0.11,0.929,0.29,1.219,0.55c0.32,0.29,0.49,0.709,0.49,1.149
			c0,1.109-0.939,1.779-2.389,1.779h-3.368v-0.19c0.79-0.02,0.959-0.18,0.959-0.939V2.785c0-0.79-0.15-0.879-0.959-0.929v-0.19
			h2.798c1.729,0,2.619,0.609,2.619,1.669c0,0.41-0.16,0.819-0.41,1.04c-0.24,0.21-0.44,0.29-0.959,0.419V4.804z M99.622,4.624
			c1.009,0,1.499-0.41,1.499-1.239c0-0.839-0.58-1.349-1.769-1.349h-0.41c-0.17,0-0.24,0.09-0.24,0.32v2.269H99.622z M98.703,7.463
			c0,0.34,0.16,0.45,0.62,0.45c0.839,0,1.189-0.04,1.629-0.43c0.25-0.22,0.38-0.56,0.38-0.989c0-0.479-0.14-0.85-0.47-1.069
			c-0.6-0.4-0.979-0.36-2.159-0.4V7.463z"/>
	</g>
</g>
<g id="Layer_4" display="none">
	
		<line display="inline" fill="none" stroke="#000000" stroke-linecap="round" stroke-linejoin="round" stroke-miterlimit="10" x1="77.882" y1="-6.287" x2="38.018" y2="33.577"/>
	
		<line display="inline" fill="none" stroke="#000000" stroke-linecap="round" stroke-linejoin="round" stroke-miterlimit="10" x1="38.018" y1="33.577" x2="38.018" y2="90.27"/>
	
		<line display="inline" fill="none" stroke="#000000" stroke-linecap="round" stroke-linejoin="round" stroke-miterlimit="10" x1="77.902" y1="-6.277" x2="77.902" y2="13.582"/>
	
		<line display="inline" fill="none" stroke="#000000" stroke-linecap="round" stroke-linejoin="round" stroke-miterlimit="10" x1="77.902" y1="13.582" x2="89.654" y2="1.752"/>
	
		<line display="inline" fill="none" stroke="#000000" stroke-linecap="round" stroke-linejoin="round" stroke-miterlimit="10" x1="77.882" y1="50.406" x2="38.018" y2="90.27"/>
	
		<line display="inline" fill="none" stroke="#000000" stroke-linecap="round" stroke-linejoin="round" stroke-miterlimit="10" x1="77.902" y1="30.496" x2="77.902" y2="50.355"/>
	
		<line display="inline" fill="none" stroke="#000000" stroke-linecap="round" stroke-linejoin="round" stroke-miterlimit="10" x1="77.902" y1="30.496" x2="89.654" y2="18.665"/>
	<g display="inline">
		<g>
			
				<line fill="none" stroke="#0000FF" stroke-width="0.5" stroke-linecap="round" stroke-linejoin="round" x1="114.244" y1="22.059" x2="133.413" y2="22.059"/>
			<g>
				<polygon fill="#0000FF" points="115.901,24.104 116.242,23.738 114.436,22.06 116.242,20.381 115.901,20.015 113.702,22.06 				
					"/>
			</g>
		</g>
	</g>
	<g display="inline">
		<g>
			
				<line fill="none" stroke="#0000FF" stroke-width="0.5" stroke-linecap="round" stroke-linejoin="round" x1="94.248" y1="42.055" x2="113.417" y2="42.055"/>
			<g>
				<polygon fill="#0000FF" points="95.905,44.1 96.246,43.734 94.44,42.056 96.246,40.377 95.905,40.011 93.706,42.056 				"/>
			</g>
		</g>
	</g>
	<g display="inline">
		<g>
			
				<line fill="none" stroke="#0000FF" stroke-width="0.5" stroke-linecap="round" stroke-linejoin="round" x1="74.371" y1="61.933" x2="93.54" y2="61.933"/>
			<g>
				<polygon fill="#0000FF" points="76.027,63.977 76.369,63.611 74.563,61.933 76.369,60.254 76.027,59.888 73.828,61.933 				"/>
			</g>
		</g>
	</g>
	<g display="inline">
		<g>
			
				<line fill="none" stroke="#0000FF" stroke-width="0.5" stroke-linecap="round" stroke-linejoin="round" x1="84.475" y1="51.828" x2="103.644" y2="51.828"/>
			<g>
				<polygon fill="#0000FF" points="86.132,53.873 86.473,53.507 84.667,51.829 86.473,50.15 86.132,49.784 83.933,51.829 				"/>
			</g>
		</g>
	</g>
	<g display="inline">
		<g>
			
				<line fill="none" stroke="#0000FF" stroke-width="0.5" stroke-linecap="round" stroke-linejoin="round" x1="104.216" y1="32.088" x2="123.385" y2="32.088"/>
			<g>
				<polygon fill="#0000FF" points="105.872,34.132 106.214,33.766 104.408,32.088 106.214,30.409 105.872,30.043 103.673,32.088 
									"/>
			</g>
		</g>
	</g>
	<g display="inline">
		<path fill="#0000FF" d="M120.73,39.615c1.389,0,2.079,0.51,2.079,1.499c0,0.54-0.28,0.89-0.64,1.129
			c-0.31,0.21-0.68,0.3-1.109,0.39v0.01c0.859,0.26,1.259,0.79,1.259,1.499c0,1.339-1.129,1.999-2.749,1.999h-2.719v-0.16
			c0.55-0.08,0.66-0.18,0.83-0.799l1.209-4.357c0.07-0.25,0.11-0.49,0.11-0.64c0-0.29-0.14-0.36-0.77-0.41v-0.16H120.73z
			 M118.992,44.022c-0.2,0.759-0.35,1.269-0.35,1.399c0,0.28,0.25,0.42,0.67,0.42c1.149,0,1.929-0.59,1.929-1.699
			c0-0.62-0.29-1.059-0.669-1.189c-0.2-0.07-0.63-0.12-1.259-0.12L118.992,44.022z M119.791,42.513c1.309,0,2.009-0.53,2.009-1.519
			c0-0.74-0.36-1.08-1.169-1.08c-0.39,0-0.49,0-0.589,0.36l-0.63,2.239H119.791z"/>
	</g>
	<g display="inline">
		<g>
			
				<line fill="none" stroke="#0000FF" stroke-width="0.4" stroke-linecap="round" stroke-linejoin="round" x1="117.944" y1="37.417" x2="122.646" y2="37.417"/>
			<g>
				<polygon fill="#0000FF" points="121.321,39.053 121.048,38.76 122.492,37.418 121.048,36.075 121.321,35.782 123.08,37.418 				
					"/>
			</g>
		</g>
	</g>
	<g display="inline">
		<g>
			
				<line fill="none" stroke="#000000" stroke-width="0.7" stroke-linecap="round" stroke-linejoin="round" x1="86.529" y1="4.914" x2="82.236" y2="9.207"/>
			<g>
				<polygon points="81.851,5.543 82.551,5.568 82.425,9.017 85.875,8.891 85.9,9.591 81.698,9.744 				"/>
			</g>
		</g>
	</g>
	<g display="inline">
		<g>
			
				<line fill="none" stroke="#000000" stroke-width="0.7" stroke-linecap="round" stroke-linejoin="round" x1="55.476" y1="16.119" x2="51.183" y2="20.412"/>
			<g>
				<polygon points="50.798,16.748 51.499,16.773 51.372,20.222 54.822,20.096 54.847,20.796 50.645,20.949 				"/>
			</g>
		</g>
	</g>
	<g display="inline">
		<g>
			
				<line fill="none" stroke="#000000" stroke-width="0.7" stroke-linecap="round" stroke-linejoin="round" x1="50.646" y1="77.642" x2="54.939" y2="73.349"/>
			<g>
				<polygon points="55.323,77.013 54.623,76.988 54.75,73.539 51.3,73.665 51.275,72.965 55.476,72.812 				"/>
			</g>
		</g>
	</g>
	<g display="inline">
		<g>
			
				<line fill="none" stroke="#000000" stroke-width="0.7" stroke-linecap="round" stroke-linejoin="round" x1="38.018" y1="58.517" x2="38.018" y2="64.589"/>
			<g>
				<polygon points="35.155,62.269 35.668,61.792 38.017,64.32 40.368,61.792 40.88,62.269 38.017,65.348 				"/>
			</g>
		</g>
	</g>
	<g display="inline">
		<g>
			
				<line fill="none" stroke="#000000" stroke-width="0.7" stroke-linecap="round" stroke-linejoin="round" x1="77.902" y1="43.336" x2="77.902" y2="37.264"/>
			<g>
				<polygon points="80.765,39.583 80.252,40.061 77.903,37.533 75.553,40.061 75.04,39.583 77.903,36.505 				"/>
			</g>
		</g>
	</g>
	<g display="inline">
		<g>
			
				<line fill="none" stroke="#000000" stroke-width="0.7" stroke-linecap="round" stroke-linejoin="round" x1="77.902" y1="6.599" x2="77.902" y2="0.528"/>
			<g>
				<polygon points="80.765,2.847 80.252,3.325 77.903,0.797 75.553,3.325 75.04,2.847 77.903,-0.231 				"/>
			</g>
		</g>
	</g>
	<g display="inline">
		<g>
			
				<line fill="none" stroke="#000000" stroke-width="0.7" stroke-linecap="round" stroke-linejoin="round" x1="81.699" y1="26.658" x2="85.992" y2="22.365"/>
			<g>
				<polygon points="86.376,26.029 85.676,26.004 85.803,22.555 82.353,22.681 82.328,21.981 86.529,21.828 				"/>
			</g>
		</g>
	</g>
	<g display="inline">
		<path fill="#808080" d="M18.883,72.979c0.006-0.479,0.054-0.695,0.21-0.965c0.156-0.27,0.468-0.432,0.845-0.432
			c0.36,0,0.624,0.156,0.624,0.372c0,0.138-0.108,0.246-0.252,0.246c-0.102,0-0.174-0.054-0.27-0.216
			c-0.108-0.174-0.186-0.234-0.318-0.234c-0.228,0-0.335,0.18-0.335,0.534v0.695h0.731v0.192h-0.731v1.883
			c0,0.45,0.066,0.516,0.558,0.534v0.09h-1.559v-0.09c0.432-0.024,0.498-0.096,0.498-0.534V73.17h-0.492v-0.192H18.883z"/>
		<path fill="#808080" d="M21.223,73.482c0.3-0.432,0.468-0.563,0.72-0.563c0.204,0,0.33,0.12,0.33,0.318
			c0,0.167-0.09,0.27-0.234,0.27c-0.078,0-0.144-0.03-0.24-0.12c-0.066-0.06-0.12-0.09-0.156-0.09c-0.168,0-0.42,0.3-0.42,0.492
			v1.35c0,0.342,0.102,0.432,0.51,0.45v0.09h-1.439v-0.09c0.384-0.072,0.426-0.114,0.426-0.414v-1.499
			c0-0.264-0.054-0.36-0.204-0.36c-0.072,0-0.126,0.006-0.21,0.024v-0.096c0.354-0.114,0.57-0.198,0.888-0.324l0.03,0.012V73.482z"
			/>
		<path fill="#808080" d="M23.694,75.737c-0.726,0-1.295-0.594-1.295-1.427s0.54-1.391,1.349-1.391c0.732,0,1.295,0.545,1.295,1.373
			C25.043,75.125,24.504,75.737,23.694,75.737z M24.204,73.387c-0.144-0.18-0.312-0.3-0.57-0.3c-0.414,0-0.696,0.354-0.696,0.954
			c0,0.474,0.096,0.906,0.318,1.229c0.132,0.192,0.324,0.3,0.54,0.3c0.444,0,0.708-0.42,0.708-1.115
			C24.504,74.046,24.396,73.632,24.204,73.387z"/>
		<path fill="#808080" d="M26.886,75.677l0.006-0.09c0.3-0.024,0.372-0.144,0.372-0.54v-1.193c0-0.425-0.144-0.605-0.438-0.605
			c-0.198,0-0.342,0.072-0.618,0.342v1.655c0,0.234,0.084,0.318,0.39,0.342v0.09h-1.265v-0.09c0.306-0.024,0.372-0.12,0.372-0.474
			v-1.458c0-0.294-0.042-0.39-0.21-0.39c-0.066,0-0.132,0.006-0.174,0.024v-0.102c0.33-0.096,0.527-0.162,0.821-0.27l0.048,0.018
			v0.468h0.006c0.312-0.354,0.587-0.485,0.863-0.485c0.456,0,0.708,0.33,0.708,0.923v1.325c0,0.324,0.072,0.39,0.366,0.42v0.09
			H26.886z"/>
		<path fill="#808080" d="M29.898,75.281c-0.198,0.312-0.425,0.456-0.726,0.456c-0.348,0-0.527-0.258-0.527-0.762V73.17h-0.318
			c-0.018-0.012-0.024-0.024-0.024-0.042c0-0.036,0.036-0.072,0.102-0.114c0.156-0.09,0.354-0.312,0.582-0.642
			c0.036-0.054,0.084-0.108,0.12-0.168c0.03,0,0.042,0.018,0.042,0.078v0.695h0.606v0.192h-0.606v1.715
			c0,0.384,0.09,0.54,0.312,0.54c0.132,0,0.228-0.054,0.36-0.21L29.898,75.281z"/>
	</g>
	<g display="inline">
		<path fill="#808080" d="M93.95,5.134c0.3-0.432,0.468-0.563,0.72-0.563c0.204,0,0.33,0.12,0.33,0.318
			c0,0.167-0.09,0.27-0.234,0.27c-0.078,0-0.144-0.03-0.24-0.12c-0.066-0.06-0.12-0.09-0.156-0.09c-0.168,0-0.42,0.3-0.42,0.492
			v1.35c0,0.342,0.102,0.432,0.51,0.45v0.09H93.02v-0.09c0.384-0.072,0.426-0.114,0.426-0.414V5.326c0-0.264-0.054-0.36-0.204-0.36
			c-0.072,0-0.126,0.006-0.21,0.024V4.895c0.354-0.114,0.57-0.198,0.888-0.324l0.03,0.012V5.134z"/>
		<path fill="#808080" d="M97.519,6.388c-0.234,0.653-0.653,1.001-1.253,1.001c-0.708,0-1.139-0.534-1.139-1.361
			c0-0.846,0.486-1.457,1.241-1.457c0.372,0,0.642,0.144,0.833,0.414c0.12,0.168,0.18,0.36,0.204,0.684h-1.847
			c0.03,0.456,0.06,0.689,0.276,0.978c0.168,0.222,0.39,0.33,0.666,0.33c0.402,0,0.63-0.186,0.924-0.629L97.519,6.388z
			 M96.793,5.476c-0.066-0.486-0.192-0.689-0.587-0.689c-0.336,0-0.57,0.24-0.636,0.689H96.793z"/>
		<path fill="#808080" d="M100.291,7.101c-0.18,0.228-0.335,0.288-0.54,0.288c-0.222,0-0.354-0.12-0.384-0.438h-0.006
			c-0.318,0.36-0.612,0.438-0.87,0.438c-0.372,0-0.63-0.228-0.63-0.624c0-0.312,0.186-0.546,0.42-0.702
			c0.18-0.12,0.402-0.234,1.08-0.486V5.254c0-0.372-0.198-0.54-0.468-0.54c-0.24,0-0.42,0.132-0.42,0.294
			c0,0.108,0.036,0.126,0.036,0.252c0,0.114-0.12,0.246-0.276,0.246c-0.126,0-0.258-0.114-0.258-0.275
			c0-0.156,0.096-0.348,0.306-0.48c0.168-0.108,0.42-0.18,0.689-0.18c0.336,0,0.564,0.096,0.708,0.27
			c0.144,0.174,0.168,0.3,0.168,0.666v1.146c0,0.276,0.078,0.396,0.186,0.396c0.096,0,0.156-0.03,0.258-0.114V7.101z M99.362,5.722
			c-0.372,0.132-0.618,0.258-0.768,0.396C98.45,6.25,98.39,6.394,98.39,6.58c0,0.318,0.18,0.461,0.414,0.461
			c0.12,0,0.246-0.03,0.348-0.096c0.174-0.12,0.21-0.204,0.21-0.378V5.722z"/>
		<path fill="#808080" d="M101.264,5.134c0.3-0.432,0.468-0.563,0.72-0.563c0.204,0,0.33,0.12,0.33,0.318
			c0,0.167-0.09,0.27-0.234,0.27c-0.078,0-0.144-0.03-0.24-0.12c-0.066-0.06-0.12-0.09-0.156-0.09c-0.168,0-0.42,0.3-0.42,0.492
			v1.35c0,0.342,0.102,0.432,0.51,0.45v0.09h-1.439v-0.09c0.384-0.072,0.426-0.114,0.426-0.414V5.326c0-0.264-0.054-0.36-0.204-0.36
			c-0.072,0-0.126,0.006-0.21,0.024V4.895c0.354-0.114,0.57-0.198,0.888-0.324l0.03,0.012V5.134z"/>
	</g>
	<g display="inline">
		<path d="M49.9,13.748c-0.56,0.07-0.649,0.16-0.819,0.77l-1.2,4.288c-0.09,0.32-0.15,0.56-0.15,0.759c0,0.28,0.12,0.32,0.69,0.39
			v0.16h-2.439v-0.16c0.55-0.1,0.69-0.189,0.84-0.75l1.199-4.407c0.07-0.25,0.13-0.46,0.13-0.62c0-0.25-0.16-0.4-0.72-0.43v-0.16
			H49.9V13.748z"/>
	</g>
	<g display="inline">
		<g>
			
				<line fill="none" stroke="#FF0000" stroke-width="0.5" stroke-linecap="round" stroke-linejoin="round" x1="61.399" y1="67.345" x2="61.399" y2="83.467"/>
			<g>
				<polygon fill="#FF0000" points="59.354,81.81 59.72,81.469 61.398,83.275 63.077,81.469 63.443,81.81 61.398,84.009 				"/>
			</g>
		</g>
	</g>
	<g display="inline">
		<path fill="#FF0000" d="M51.732,1.321l-0.21-0.02c0.03-0.22,0.03-0.27,0.03-0.33c0-0.73-0.23-0.86-1.989-0.86
			c-0.46,0-0.61,0.06-0.68,0.32L48.244,2.7c1.679-0.02,1.709-0.04,2.159-0.939l0.18,0.05l-0.759,2.349l-0.17-0.05
			c0.06-0.31,0.08-0.45,0.08-0.61c0-0.399-0.28-0.439-0.75-0.439c-0.22,0-0.459-0.01-0.829-0.03l-0.59,2.129
			c-0.07,0.25-0.14,0.45-0.14,0.6c0,0.24,0.18,0.35,0.77,0.39v0.16h-2.508v-0.16c0.58-0.04,0.68-0.26,0.83-0.779l1.229-4.417
			c0.07-0.25,0.1-0.45,0.1-0.61c0-0.28-0.1-0.34-0.76-0.4v-0.16h4.967L51.732,1.321z"/>
	</g>
	<g display="inline">
		<g>
			
				<line fill="none" stroke="#FF0000" stroke-width="0.4" stroke-linecap="round" stroke-linejoin="round" x1="47.334" y1="-2.416" x2="52.036" y2="-2.416"/>
			<g>
				<polygon fill="#FF0000" points="50.711,-0.78 50.438,-1.073 51.883,-2.415 50.438,-3.758 50.711,-4.051 52.47,-2.415 				"/>
			</g>
		</g>
	</g>
	<g display="inline">
		<g>
			
				<line fill="none" stroke="#FF0000" stroke-width="0.5" stroke-linecap="round" stroke-linejoin="round" x1="57.043" y1="14.64" x2="57.043" y2="-1.482"/>
			<g>
				<polygon fill="#FF0000" points="59.088,0.175 58.722,0.516 57.044,-1.29 55.365,0.516 54.999,0.175 57.044,-2.024 				"/>
			</g>
		</g>
	</g>
	<g display="inline">
		<g>
			
				<line fill="none" stroke="#FF0000" stroke-width="0.5" stroke-linecap="round" stroke-linejoin="round" x1="38.018" y1="57.604" x2="26.619" y2="69.003"/>
			<g>
				<polygon fill="#FF0000" points="26.344,66.386 26.844,66.403 26.754,68.867 29.218,68.777 29.236,69.277 26.235,69.386 				"/>
			</g>
		</g>
	</g>
	<g display="inline">
		<g>
			
				<line fill="none" stroke="#FF0000" stroke-width="0.5" stroke-linecap="round" stroke-linejoin="round" x1="78.041" y1="40.749" x2="89.441" y2="29.349"/>
			<g>
				<polygon fill="#FF0000" points="89.715,31.967 89.215,31.949 89.306,29.485 86.842,29.575 86.824,29.075 89.825,28.966 				"/>
			</g>
		</g>
	</g>
	<g display="inline">
		<g>
			
				<line fill="none" stroke="#FF0000" stroke-width="0.5" stroke-linecap="round" stroke-linejoin="round" x1="78.041" y1="4.287" x2="89.441" y2="-7.113"/>
			<g>
				<polygon fill="#FF0000" points="89.715,-4.495 89.215,-4.513 89.306,-6.977 86.842,-6.887 86.824,-7.387 89.825,-7.496 				"/>
			</g>
		</g>
	</g>
	<g display="inline">
		<g>
			<line fill="none" stroke="#00A300" stroke-width="0.2" stroke-miterlimit="10" x1="90.98" y1="8.962" x2="89.92" y2="10.022"/>
			
				<line fill="none" stroke="#00A300" stroke-width="0.2" stroke-miterlimit="10" stroke-dasharray="2.9324,2.9324" x1="87.846" y1="12.096" x2="30.824" y2="69.118"/>
			
				<line fill="none" stroke="#00A300" stroke-width="0.2" stroke-miterlimit="10" x1="29.787" y1="70.155" x2="28.726" y2="71.216"/>
		</g>
	</g>
</g>
</svg>
