<?xml version="1.0" encoding="utf-8"?>
<!-- Generator: Adobe Illustrator 26.0.1, SVG Export Plug-In . SVG Version: 6.00 Build 0)  -->
<svg version="1.1" xmlns="http://www.w3.org/2000/svg" xmlns:xlink="http://www.w3.org/1999/xlink" x="0px" y="0px"
	 viewBox="0 0 121.147 77.227" enable-background="new 0 0 121.147 77.227" xml:space="preserve">
<g id="Graph_paper_slanted" opacity="0.5">
	<g id="Clipped_grid_00000003068028900943026870000011536296927355263674_">
		<defs>
			<polygon id="SVGID_1_" points="82.227,97.104 -49.356,97.104 33.191,15.239 164.773,15.239 			"/>
		</defs>
		<clipPath id="SVGID_00000143614902676653276510000003830419074350331581_">
			<use xlink:href="#SVGID_1_"  overflow="visible"/>
		</clipPath>
		
			<g id="Grid_00000142891597197125820610000009767860333217090727_" opacity="0.25" clip-path="url(#SVGID_00000143614902676653276510000003830419074350331581_)">
			<g id="Horizontal_1_mm_00000151508609497893311650000018408800186222605470_">
				
					<line fill="none" stroke="#00ABEB" stroke-width="0.15" stroke-miterlimit="10" x1="4.928" y1="-13.324" x2="231.769" y2="-13.324"/>
				
					<line fill="none" stroke="#00ABEB" stroke-width="0.15" stroke-miterlimit="10" x1="6.916" y1="-15.312" x2="233.757" y2="-15.312"/>
				
					<line fill="none" stroke="#00ABEB" stroke-width="0.15" stroke-miterlimit="10" x1="-112.361" y1="103.964" x2="114.48" y2="103.964"/>
				
					<line fill="none" stroke="#00ABEB" stroke-width="0.15" stroke-miterlimit="10" x1="-110.373" y1="101.976" x2="116.468" y2="101.976"/>
				
					<line fill="none" stroke="#00ABEB" stroke-width="0.15" stroke-miterlimit="10" x1="-108.385" y1="99.988" x2="118.456" y2="99.988"/>
				<line fill="none" stroke="#00ABEB" stroke-width="0.15" stroke-miterlimit="10" x1="-106.397" y1="98" x2="120.444" y2="98"/>
				
					<line fill="none" stroke="#00ABEB" stroke-width="0.15" stroke-miterlimit="10" x1="-104.409" y1="96.012" x2="122.432" y2="96.012"/>
				
					<line fill="none" stroke="#00ABEB" stroke-width="0.15" stroke-miterlimit="10" x1="-102.421" y1="94.025" x2="124.419" y2="94.025"/>
				
					<line fill="none" stroke="#00ABEB" stroke-width="0.15" stroke-miterlimit="10" x1="-100.433" y1="92.037" x2="126.407" y2="92.037"/>
				
					<line fill="none" stroke="#00ABEB" stroke-width="0.15" stroke-miterlimit="10" x1="-98.446" y1="90.049" x2="128.395" y2="90.049"/>
				
					<line fill="none" stroke="#00ABEB" stroke-width="0.15" stroke-miterlimit="10" x1="-96.457" y1="88.061" x2="130.384" y2="88.061"/>
				
					<line fill="none" stroke="#00ABEB" stroke-width="0.15" stroke-miterlimit="10" x1="-94.469" y1="86.072" x2="132.372" y2="86.072"/>
				
					<line fill="none" stroke="#00ABEB" stroke-width="0.15" stroke-miterlimit="10" x1="-92.482" y1="84.085" x2="134.359" y2="84.085"/>
				
					<line fill="none" stroke="#00ABEB" stroke-width="0.15" stroke-miterlimit="10" x1="-90.494" y1="82.097" x2="136.347" y2="82.097"/>
				
					<line fill="none" stroke="#00ABEB" stroke-width="0.15" stroke-miterlimit="10" x1="-88.505" y1="80.109" x2="138.335" y2="80.109"/>
				
					<line fill="none" stroke="#00ABEB" stroke-width="0.15" stroke-miterlimit="10" x1="-86.518" y1="78.121" x2="140.323" y2="78.121"/>
				
					<line fill="none" stroke="#00ABEB" stroke-width="0.15" stroke-miterlimit="10" x1="-84.53" y1="76.133" x2="142.311" y2="76.133"/>
				
					<line fill="none" stroke="#00ABEB" stroke-width="0.15" stroke-miterlimit="10" x1="-82.542" y1="74.145" x2="144.299" y2="74.145"/>
				
					<line fill="none" stroke="#00ABEB" stroke-width="0.15" stroke-miterlimit="10" x1="-80.554" y1="72.157" x2="146.287" y2="72.157"/>
				
					<line fill="none" stroke="#00ABEB" stroke-width="0.15" stroke-miterlimit="10" x1="-78.566" y1="70.169" x2="148.275" y2="70.169"/>
				
					<line fill="none" stroke="#00ABEB" stroke-width="0.15" stroke-miterlimit="10" x1="-76.578" y1="68.181" x2="150.263" y2="68.181"/>
				
					<line fill="none" stroke="#00ABEB" stroke-width="0.15" stroke-miterlimit="10" x1="-74.59" y1="66.194" x2="152.251" y2="66.194"/>
				
					<line fill="none" stroke="#00ABEB" stroke-width="0.15" stroke-miterlimit="10" x1="-72.602" y1="64.205" x2="154.239" y2="64.205"/>
				
					<line fill="none" stroke="#00ABEB" stroke-width="0.15" stroke-miterlimit="10" x1="-70.614" y1="62.217" x2="156.227" y2="62.217"/>
				
					<line fill="none" stroke="#00ABEB" stroke-width="0.15" stroke-miterlimit="10" x1="-68.626" y1="60.23" x2="158.215" y2="60.23"/>
				
					<line fill="none" stroke="#00ABEB" stroke-width="0.15" stroke-miterlimit="10" x1="-66.638" y1="58.241" x2="160.203" y2="58.241"/>
				
					<line fill="none" stroke="#00ABEB" stroke-width="0.15" stroke-miterlimit="10" x1="-64.65" y1="56.254" x2="162.19" y2="56.254"/>
				
					<line fill="none" stroke="#00ABEB" stroke-width="0.15" stroke-miterlimit="10" x1="-62.662" y1="54.266" x2="164.179" y2="54.266"/>
				
					<line fill="none" stroke="#00ABEB" stroke-width="0.15" stroke-miterlimit="10" x1="-60.674" y1="52.278" x2="166.167" y2="52.278"/>
				
					<line fill="none" stroke="#00ABEB" stroke-width="0.15" stroke-miterlimit="10" x1="-58.687" y1="50.29" x2="168.154" y2="50.29"/>
				
					<line fill="none" stroke="#00ABEB" stroke-width="0.15" stroke-miterlimit="10" x1="-56.699" y1="48.302" x2="170.142" y2="48.302"/>
				
					<line fill="none" stroke="#00ABEB" stroke-width="0.15" stroke-miterlimit="10" x1="-54.71" y1="46.314" x2="172.131" y2="46.314"/>
				
					<line fill="none" stroke="#00ABEB" stroke-width="0.15" stroke-miterlimit="10" x1="-52.723" y1="44.326" x2="174.118" y2="44.326"/>
				
					<line fill="none" stroke="#00ABEB" stroke-width="0.15" stroke-miterlimit="10" x1="-50.735" y1="42.338" x2="176.106" y2="42.338"/>
				
					<line fill="none" stroke="#00ABEB" stroke-width="0.15" stroke-miterlimit="10" x1="-48.747" y1="40.35" x2="178.094" y2="40.35"/>
				
					<line fill="none" stroke="#00ABEB" stroke-width="0.15" stroke-miterlimit="10" x1="-46.759" y1="38.363" x2="180.082" y2="38.363"/>
				
					<line fill="none" stroke="#00ABEB" stroke-width="0.15" stroke-miterlimit="10" x1="-44.771" y1="36.374" x2="182.07" y2="36.374"/>
				
					<line fill="none" stroke="#00ABEB" stroke-width="0.15" stroke-miterlimit="10" x1="-42.783" y1="34.386" x2="184.058" y2="34.386"/>
				
					<line fill="none" stroke="#00ABEB" stroke-width="0.15" stroke-miterlimit="10" x1="-40.795" y1="32.399" x2="186.046" y2="32.399"/>
				
					<line fill="none" stroke="#00ABEB" stroke-width="0.15" stroke-miterlimit="10" x1="-38.807" y1="30.411" x2="188.034" y2="30.411"/>
				
					<line fill="none" stroke="#00ABEB" stroke-width="0.15" stroke-miterlimit="10" x1="-36.819" y1="28.422" x2="190.022" y2="28.422"/>
				
					<line fill="none" stroke="#00ABEB" stroke-width="0.15" stroke-miterlimit="10" x1="-34.831" y1="26.435" x2="192.009" y2="26.435"/>
				
					<line fill="none" stroke="#00ABEB" stroke-width="0.15" stroke-miterlimit="10" x1="-32.843" y1="24.446" x2="193.998" y2="24.446"/>
				
					<line fill="none" stroke="#00ABEB" stroke-width="0.15" stroke-miterlimit="10" x1="-30.855" y1="22.459" x2="195.985" y2="22.459"/>
				
					<line fill="none" stroke="#00ABEB" stroke-width="0.15" stroke-miterlimit="10" x1="-28.867" y1="20.471" x2="197.974" y2="20.471"/>
				
					<line fill="none" stroke="#00ABEB" stroke-width="0.15" stroke-miterlimit="10" x1="-26.879" y1="18.483" x2="199.962" y2="18.483"/>
				
					<line fill="none" stroke="#00ABEB" stroke-width="0.15" stroke-miterlimit="10" x1="-24.892" y1="16.495" x2="201.949" y2="16.495"/>
				
					<line fill="none" stroke="#00ABEB" stroke-width="0.15" stroke-miterlimit="10" x1="-22.903" y1="14.507" x2="203.937" y2="14.507"/>
				
					<line fill="none" stroke="#00ABEB" stroke-width="0.15" stroke-miterlimit="10" x1="-20.915" y1="12.519" x2="205.926" y2="12.519"/>
				
					<line fill="none" stroke="#00ABEB" stroke-width="0.15" stroke-miterlimit="10" x1="-18.928" y1="10.531" x2="207.913" y2="10.531"/>
				
					<line fill="none" stroke="#00ABEB" stroke-width="0.15" stroke-miterlimit="10" x1="-16.94" y1="8.543" x2="209.901" y2="8.543"/>
				
					<line fill="none" stroke="#00ABEB" stroke-width="0.15" stroke-miterlimit="10" x1="-14.951" y1="6.555" x2="211.889" y2="6.555"/>
				
					<line fill="none" stroke="#00ABEB" stroke-width="0.15" stroke-miterlimit="10" x1="-12.964" y1="4.568" x2="213.877" y2="4.568"/>
				
					<line fill="none" stroke="#00ABEB" stroke-width="0.15" stroke-miterlimit="10" x1="-10.976" y1="2.58" x2="215.865" y2="2.58"/>
				
					<line fill="none" stroke="#00ABEB" stroke-width="0.15" stroke-miterlimit="10" x1="-8.988" y1="0.591" x2="217.853" y2="0.591"/>
				<line fill="none" stroke="#00ABEB" stroke-width="0.15" stroke-miterlimit="10" x1="-7" y1="-1.396" x2="219.841" y2="-1.396"/>
				
					<line fill="none" stroke="#00ABEB" stroke-width="0.15" stroke-miterlimit="10" x1="-5.012" y1="-3.385" x2="221.829" y2="-3.385"/>
				
					<line fill="none" stroke="#00ABEB" stroke-width="0.15" stroke-miterlimit="10" x1="-3.024" y1="-5.372" x2="223.817" y2="-5.372"/>
				
					<line fill="none" stroke="#00ABEB" stroke-width="0.15" stroke-miterlimit="10" x1="-1.036" y1="-7.36" x2="225.805" y2="-7.36"/>
				
					<line fill="none" stroke="#00ABEB" stroke-width="0.15" stroke-miterlimit="10" x1="0.952" y1="-9.348" x2="227.793" y2="-9.348"/>
				
					<line fill="none" stroke="#00ABEB" stroke-width="0.15" stroke-miterlimit="10" x1="2.94" y1="-11.336" x2="229.78" y2="-11.336"/>
			</g>
			<g id="Vertical_1_mm_00000181073523592228201180000012361058669048395659_">
				<g>
					
						<line fill="none" stroke="#00ABEB" stroke-width="0.15" stroke-miterlimit="10" x1="-112.276" y1="103.954" x2="7.044" y2="-15.365"/>
				</g>
				
					<line fill="none" stroke="#00ABEB" stroke-width="0.15" stroke-miterlimit="10" x1="-109.442" y1="103.954" x2="9.878" y2="-15.365"/>
				
					<line fill="none" stroke="#00ABEB" stroke-width="0.15" stroke-miterlimit="10" x1="-106.607" y1="103.954" x2="12.713" y2="-15.365"/>
				
					<line fill="none" stroke="#00ABEB" stroke-width="0.15" stroke-miterlimit="10" x1="-103.772" y1="103.954" x2="15.548" y2="-15.365"/>
				
					<line fill="none" stroke="#00ABEB" stroke-width="0.15" stroke-miterlimit="10" x1="-100.938" y1="103.954" x2="18.382" y2="-15.365"/>
				
					<line fill="none" stroke="#00ABEB" stroke-width="0.15" stroke-miterlimit="10" x1="-98.103" y1="103.954" x2="21.217" y2="-15.365"/>
				
					<line fill="none" stroke="#00ABEB" stroke-width="0.15" stroke-miterlimit="10" x1="-95.268" y1="103.954" x2="24.052" y2="-15.365"/>
				
					<line fill="none" stroke="#00ABEB" stroke-width="0.15" stroke-miterlimit="10" x1="-92.434" y1="103.954" x2="26.886" y2="-15.365"/>
				
					<line fill="none" stroke="#00ABEB" stroke-width="0.15" stroke-miterlimit="10" x1="-89.599" y1="103.954" x2="29.721" y2="-15.365"/>
				
					<line fill="none" stroke="#00ABEB" stroke-width="0.15" stroke-miterlimit="10" x1="-86.765" y1="103.954" x2="32.555" y2="-15.365"/>
				
					<line fill="none" stroke="#00ABEB" stroke-width="0.15" stroke-miterlimit="10" x1="-83.93" y1="103.954" x2="35.39" y2="-15.365"/>
				
					<line fill="none" stroke="#00ABEB" stroke-width="0.15" stroke-miterlimit="10" x1="-81.095" y1="103.954" x2="38.225" y2="-15.365"/>
				
					<line fill="none" stroke="#00ABEB" stroke-width="0.15" stroke-miterlimit="10" x1="-78.261" y1="103.954" x2="41.059" y2="-15.365"/>
				
					<line fill="none" stroke="#00ABEB" stroke-width="0.15" stroke-miterlimit="10" x1="-75.426" y1="103.954" x2="43.894" y2="-15.365"/>
				
					<line fill="none" stroke="#00ABEB" stroke-width="0.15" stroke-miterlimit="10" x1="-72.591" y1="103.954" x2="46.729" y2="-15.365"/>
				
					<line fill="none" stroke="#00ABEB" stroke-width="0.15" stroke-miterlimit="10" x1="-69.757" y1="103.954" x2="49.563" y2="-15.365"/>
				
					<line fill="none" stroke="#00ABEB" stroke-width="0.15" stroke-miterlimit="10" x1="-66.922" y1="103.954" x2="52.398" y2="-15.365"/>
				
					<line fill="none" stroke="#00ABEB" stroke-width="0.15" stroke-miterlimit="10" x1="-64.087" y1="103.954" x2="55.233" y2="-15.365"/>
				
					<line fill="none" stroke="#00ABEB" stroke-width="0.15" stroke-miterlimit="10" x1="-61.253" y1="103.954" x2="58.067" y2="-15.365"/>
				
					<line fill="none" stroke="#00ABEB" stroke-width="0.15" stroke-miterlimit="10" x1="-58.418" y1="103.954" x2="60.902" y2="-15.365"/>
				
					<line fill="none" stroke="#00ABEB" stroke-width="0.15" stroke-miterlimit="10" x1="-55.583" y1="103.954" x2="63.737" y2="-15.365"/>
				
					<line fill="none" stroke="#00ABEB" stroke-width="0.15" stroke-miterlimit="10" x1="-52.749" y1="103.954" x2="66.571" y2="-15.365"/>
				
					<line fill="none" stroke="#00ABEB" stroke-width="0.15" stroke-miterlimit="10" x1="-49.914" y1="103.954" x2="69.406" y2="-15.365"/>
				
					<line fill="none" stroke="#00ABEB" stroke-width="0.15" stroke-miterlimit="10" x1="-47.079" y1="103.954" x2="72.241" y2="-15.365"/>
				
					<line fill="none" stroke="#00ABEB" stroke-width="0.15" stroke-miterlimit="10" x1="-44.245" y1="103.954" x2="75.075" y2="-15.365"/>
				
					<line fill="none" stroke="#00ABEB" stroke-width="0.15" stroke-miterlimit="10" x1="-41.41" y1="103.954" x2="77.91" y2="-15.365"/>
				
					<line fill="none" stroke="#00ABEB" stroke-width="0.15" stroke-miterlimit="10" x1="-38.576" y1="103.954" x2="80.744" y2="-15.365"/>
				
					<line fill="none" stroke="#00ABEB" stroke-width="0.15" stroke-miterlimit="10" x1="-35.741" y1="103.954" x2="83.579" y2="-15.365"/>
				
					<line fill="none" stroke="#00ABEB" stroke-width="0.15" stroke-miterlimit="10" x1="-32.906" y1="103.954" x2="86.414" y2="-15.365"/>
				
					<line fill="none" stroke="#00ABEB" stroke-width="0.15" stroke-miterlimit="10" x1="-30.072" y1="103.954" x2="89.248" y2="-15.365"/>
				
					<line fill="none" stroke="#00ABEB" stroke-width="0.15" stroke-miterlimit="10" x1="-27.237" y1="103.954" x2="92.083" y2="-15.365"/>
				
					<line fill="none" stroke="#00ABEB" stroke-width="0.15" stroke-miterlimit="10" x1="-24.402" y1="103.954" x2="94.918" y2="-15.365"/>
				
					<line fill="none" stroke="#00ABEB" stroke-width="0.15" stroke-miterlimit="10" x1="-21.568" y1="103.954" x2="97.752" y2="-15.365"/>
				
					<line fill="none" stroke="#00ABEB" stroke-width="0.15" stroke-miterlimit="10" x1="-18.733" y1="103.954" x2="100.587" y2="-15.365"/>
				
					<line fill="none" stroke="#00ABEB" stroke-width="0.15" stroke-miterlimit="10" x1="-15.898" y1="103.954" x2="103.422" y2="-15.365"/>
				
					<line fill="none" stroke="#00ABEB" stroke-width="0.15" stroke-miterlimit="10" x1="-13.064" y1="103.954" x2="106.256" y2="-15.365"/>
				
					<line fill="none" stroke="#00ABEB" stroke-width="0.15" stroke-miterlimit="10" x1="-10.229" y1="103.954" x2="109.091" y2="-15.365"/>
				
					<line fill="none" stroke="#00ABEB" stroke-width="0.15" stroke-miterlimit="10" x1="-7.394" y1="103.954" x2="111.926" y2="-15.365"/>
				
					<line fill="none" stroke="#00ABEB" stroke-width="0.15" stroke-miterlimit="10" x1="-4.56" y1="103.954" x2="114.76" y2="-15.365"/>
				
					<line fill="none" stroke="#00ABEB" stroke-width="0.15" stroke-miterlimit="10" x1="-1.725" y1="103.954" x2="117.595" y2="-15.365"/>
				
					<line fill="none" stroke="#00ABEB" stroke-width="0.15" stroke-miterlimit="10" x1="1.109" y1="103.954" x2="120.429" y2="-15.365"/>
				
					<line fill="none" stroke="#00ABEB" stroke-width="0.15" stroke-miterlimit="10" x1="3.944" y1="103.954" x2="123.264" y2="-15.365"/>
				
					<line fill="none" stroke="#00ABEB" stroke-width="0.15" stroke-miterlimit="10" x1="6.779" y1="103.954" x2="126.099" y2="-15.365"/>
				
					<line fill="none" stroke="#00ABEB" stroke-width="0.15" stroke-miterlimit="10" x1="9.613" y1="103.954" x2="128.933" y2="-15.365"/>
				
					<line fill="none" stroke="#00ABEB" stroke-width="0.15" stroke-miterlimit="10" x1="12.448" y1="103.954" x2="131.768" y2="-15.365"/>
				
					<line fill="none" stroke="#00ABEB" stroke-width="0.15" stroke-miterlimit="10" x1="15.283" y1="103.954" x2="134.603" y2="-15.365"/>
				
					<line fill="none" stroke="#00ABEB" stroke-width="0.15" stroke-miterlimit="10" x1="18.117" y1="103.954" x2="137.437" y2="-15.365"/>
				
					<line fill="none" stroke="#00ABEB" stroke-width="0.15" stroke-miterlimit="10" x1="20.952" y1="103.954" x2="140.272" y2="-15.365"/>
				
					<line fill="none" stroke="#00ABEB" stroke-width="0.15" stroke-miterlimit="10" x1="23.787" y1="103.954" x2="143.107" y2="-15.365"/>
				
					<line fill="none" stroke="#00ABEB" stroke-width="0.15" stroke-miterlimit="10" x1="26.621" y1="103.954" x2="145.941" y2="-15.365"/>
				
					<line fill="none" stroke="#00ABEB" stroke-width="0.15" stroke-miterlimit="10" x1="29.456" y1="103.954" x2="148.776" y2="-15.365"/>
				
					<line fill="none" stroke="#00ABEB" stroke-width="0.15" stroke-miterlimit="10" x1="32.291" y1="103.954" x2="151.611" y2="-15.365"/>
				
					<line fill="none" stroke="#00ABEB" stroke-width="0.15" stroke-miterlimit="10" x1="35.125" y1="103.954" x2="154.445" y2="-15.365"/>
				
					<line fill="none" stroke="#00ABEB" stroke-width="0.15" stroke-miterlimit="10" x1="37.96" y1="103.954" x2="157.28" y2="-15.365"/>
				
					<line fill="none" stroke="#00ABEB" stroke-width="0.15" stroke-miterlimit="10" x1="40.795" y1="103.954" x2="160.115" y2="-15.365"/>
				
					<line fill="none" stroke="#00ABEB" stroke-width="0.15" stroke-miterlimit="10" x1="43.629" y1="103.954" x2="162.949" y2="-15.365"/>
				
					<line fill="none" stroke="#00ABEB" stroke-width="0.15" stroke-miterlimit="10" x1="46.464" y1="103.954" x2="165.784" y2="-15.365"/>
				
					<line fill="none" stroke="#00ABEB" stroke-width="0.15" stroke-miterlimit="10" x1="49.298" y1="103.954" x2="168.618" y2="-15.365"/>
				
					<line fill="none" stroke="#00ABEB" stroke-width="0.15" stroke-miterlimit="10" x1="52.133" y1="103.954" x2="171.453" y2="-15.365"/>
				
					<line fill="none" stroke="#00ABEB" stroke-width="0.15" stroke-miterlimit="10" x1="54.968" y1="103.954" x2="174.288" y2="-15.365"/>
				
					<line fill="none" stroke="#00ABEB" stroke-width="0.15" stroke-miterlimit="10" x1="57.802" y1="103.954" x2="177.122" y2="-15.365"/>
				
					<line fill="none" stroke="#00ABEB" stroke-width="0.15" stroke-miterlimit="10" x1="60.637" y1="103.954" x2="179.957" y2="-15.365"/>
				
					<line fill="none" stroke="#00ABEB" stroke-width="0.15" stroke-miterlimit="10" x1="63.472" y1="103.954" x2="182.792" y2="-15.365"/>
				
					<line fill="none" stroke="#00ABEB" stroke-width="0.15" stroke-miterlimit="10" x1="66.306" y1="103.954" x2="185.626" y2="-15.365"/>
				
					<line fill="none" stroke="#00ABEB" stroke-width="0.15" stroke-miterlimit="10" x1="69.141" y1="103.954" x2="188.461" y2="-15.365"/>
				
					<line fill="none" stroke="#00ABEB" stroke-width="0.15" stroke-miterlimit="10" x1="71.976" y1="103.954" x2="191.296" y2="-15.365"/>
				
					<line fill="none" stroke="#00ABEB" stroke-width="0.15" stroke-miterlimit="10" x1="74.81" y1="103.954" x2="194.13" y2="-15.365"/>
				
					<line fill="none" stroke="#00ABEB" stroke-width="0.15" stroke-miterlimit="10" x1="77.645" y1="103.954" x2="196.965" y2="-15.365"/>
				
					<line fill="none" stroke="#00ABEB" stroke-width="0.15" stroke-miterlimit="10" x1="80.48" y1="103.954" x2="199.8" y2="-15.365"/>
				
					<line fill="none" stroke="#00ABEB" stroke-width="0.15" stroke-miterlimit="10" x1="83.314" y1="103.954" x2="202.634" y2="-15.365"/>
				
					<line fill="none" stroke="#00ABEB" stroke-width="0.15" stroke-miterlimit="10" x1="86.149" y1="103.954" x2="205.469" y2="-15.365"/>
				
					<line fill="none" stroke="#00ABEB" stroke-width="0.15" stroke-miterlimit="10" x1="88.984" y1="103.954" x2="208.304" y2="-15.365"/>
				
					<line fill="none" stroke="#00ABEB" stroke-width="0.15" stroke-miterlimit="10" x1="91.818" y1="103.954" x2="211.138" y2="-15.365"/>
				
					<line fill="none" stroke="#00ABEB" stroke-width="0.15" stroke-miterlimit="10" x1="94.653" y1="103.954" x2="213.973" y2="-15.365"/>
				
					<line fill="none" stroke="#00ABEB" stroke-width="0.15" stroke-miterlimit="10" x1="97.487" y1="103.954" x2="216.807" y2="-15.365"/>
				
					<line fill="none" stroke="#00ABEB" stroke-width="0.15" stroke-miterlimit="10" x1="100.322" y1="103.954" x2="219.642" y2="-15.365"/>
				
					<line fill="none" stroke="#00ABEB" stroke-width="0.15" stroke-miterlimit="10" x1="103.157" y1="103.954" x2="222.477" y2="-15.365"/>
				
					<line fill="none" stroke="#00ABEB" stroke-width="0.15" stroke-miterlimit="10" x1="105.991" y1="103.954" x2="225.311" y2="-15.365"/>
				
					<line fill="none" stroke="#00ABEB" stroke-width="0.15" stroke-miterlimit="10" x1="108.826" y1="103.954" x2="228.146" y2="-15.365"/>
				
					<line fill="none" stroke="#00ABEB" stroke-width="0.15" stroke-miterlimit="10" x1="111.661" y1="103.954" x2="230.981" y2="-15.365"/>
				
					<line fill="none" stroke="#00ABEB" stroke-width="0.15" stroke-miterlimit="10" x1="114.495" y1="103.954" x2="233.815" y2="-15.365"/>
			</g>
			<g id="Horizontal_5_mm_00000011735556503592991880000008134099091165005186_">
				
					<line fill="none" stroke="#00ABEB" stroke-width="0.3" stroke-miterlimit="10" x1="-112.636" y1="103.964" x2="114.48" y2="103.964"/>
				
					<line fill="none" stroke="#00ABEB" stroke-width="0.3" stroke-miterlimit="10" x1="-102.696" y1="94.025" x2="124.419" y2="94.025"/>
				
					<line fill="none" stroke="#00ABEB" stroke-width="0.3" stroke-miterlimit="10" x1="-92.757" y1="84.085" x2="134.359" y2="84.085"/>
				
					<line fill="none" stroke="#00ABEB" stroke-width="0.3" stroke-miterlimit="10" x1="-82.816" y1="74.145" x2="144.299" y2="74.145"/>
				
					<line fill="none" stroke="#00ABEB" stroke-width="0.3" stroke-miterlimit="10" x1="-72.877" y1="64.205" x2="154.239" y2="64.205"/>
				
					<line fill="none" stroke="#00ABEB" stroke-width="0.3" stroke-miterlimit="10" x1="-62.937" y1="54.266" x2="164.179" y2="54.266"/>
				
					<line fill="none" stroke="#00ABEB" stroke-width="0.3" stroke-miterlimit="10" x1="-52.998" y1="44.326" x2="174.118" y2="44.326"/>
				
					<line fill="none" stroke="#00ABEB" stroke-width="0.3" stroke-miterlimit="10" x1="-43.058" y1="34.386" x2="184.058" y2="34.386"/>
				
					<line fill="none" stroke="#00ABEB" stroke-width="0.3" stroke-miterlimit="10" x1="-33.118" y1="24.446" x2="193.998" y2="24.446"/>
				
					<line fill="none" stroke="#00ABEB" stroke-width="0.3" stroke-miterlimit="10" x1="-23.178" y1="14.507" x2="203.937" y2="14.507"/>
				
					<line fill="none" stroke="#00ABEB" stroke-width="0.3" stroke-miterlimit="10" x1="-13.239" y1="4.568" x2="213.877" y2="4.568"/>
			</g>
			<g id="Vertical_5_mm_00000064346364918789686960000003233481195482251947_">
				
					<line fill="none" stroke="#00ABEB" stroke-width="0.3" stroke-miterlimit="10" x1="-112.276" y1="103.954" x2="7.237" y2="-15.558"/>
				
					<line fill="none" stroke="#00ABEB" stroke-width="0.3" stroke-miterlimit="10" x1="-98.103" y1="103.954" x2="21.41" y2="-15.558"/>
				
					<line fill="none" stroke="#00ABEB" stroke-width="0.3" stroke-miterlimit="10" x1="-83.93" y1="103.954" x2="35.583" y2="-15.558"/>
				
					<line fill="none" stroke="#00ABEB" stroke-width="0.3" stroke-miterlimit="10" x1="-69.757" y1="103.954" x2="49.756" y2="-15.558"/>
				
					<line fill="none" stroke="#00ABEB" stroke-width="0.3" stroke-miterlimit="10" x1="-55.583" y1="103.954" x2="63.93" y2="-15.558"/>
				
					<line fill="none" stroke="#00ABEB" stroke-width="0.3" stroke-miterlimit="10" x1="-41.41" y1="103.954" x2="78.103" y2="-15.558"/>
				
					<line fill="none" stroke="#00ABEB" stroke-width="0.3" stroke-miterlimit="10" x1="-27.237" y1="103.954" x2="92.276" y2="-15.558"/>
				
					<line fill="none" stroke="#00ABEB" stroke-width="0.3" stroke-miterlimit="10" x1="-13.064" y1="103.954" x2="106.449" y2="-15.558"/>
				
					<line fill="none" stroke="#00ABEB" stroke-width="0.3" stroke-miterlimit="10" x1="1.109" y1="103.954" x2="120.621" y2="-15.558"/>
				
					<line fill="none" stroke="#00ABEB" stroke-width="0.3" stroke-miterlimit="10" x1="15.283" y1="103.954" x2="134.796" y2="-15.558"/>
				
					<line fill="none" stroke="#00ABEB" stroke-width="0.3" stroke-miterlimit="10" x1="29.456" y1="103.954" x2="148.969" y2="-15.558"/>
				
					<line fill="none" stroke="#00ABEB" stroke-width="0.3" stroke-miterlimit="10" x1="43.629" y1="103.954" x2="163.141" y2="-15.558"/>
				
					<line fill="none" stroke="#00ABEB" stroke-width="0.3" stroke-miterlimit="10" x1="57.802" y1="103.954" x2="177.315" y2="-15.558"/>
				
					<line fill="none" stroke="#00ABEB" stroke-width="0.3" stroke-miterlimit="10" x1="71.976" y1="103.954" x2="191.489" y2="-15.558"/>
				
					<line fill="none" stroke="#00ABEB" stroke-width="0.3" stroke-miterlimit="10" x1="86.149" y1="103.954" x2="205.662" y2="-15.558"/>
				
					<line fill="none" stroke="#00ABEB" stroke-width="0.3" stroke-miterlimit="10" x1="100.322" y1="103.954" x2="219.835" y2="-15.558"/>
				
					<line fill="none" stroke="#00ABEB" stroke-width="0.3" stroke-miterlimit="10" x1="114.495" y1="103.954" x2="234.008" y2="-15.558"/>
			</g>
			<g id="Horizontal_10_mm_00000163045836177147705350000008480455355013810362_">
				
					<line id="_x31_9_00000057116790517712807720000015084113881736219806_" fill="none" stroke="#00ABEB" stroke-width="0.7" stroke-miterlimit="10" x1="-112.636" y1="103.964" x2="114.48" y2="103.964"/>
				
					<line id="_x32_0_00000024685878617286333290000013167547815532084100_" fill="none" stroke="#00ABEB" stroke-width="0.7" stroke-miterlimit="10" x1="-92.757" y1="84.085" x2="134.359" y2="84.085"/>
				
					<line id="_x32_1_00000138564813020868535020000012777939180148238773_" fill="none" stroke="#00ABEB" stroke-width="0.7" stroke-miterlimit="10" x1="-72.877" y1="64.205" x2="154.239" y2="64.205"/>
				
					<line id="_x32_2_00000052807586205252870140000014502512662559454639_" fill="none" stroke="#00ABEB" stroke-width="0.7" stroke-miterlimit="10" x1="-52.998" y1="44.326" x2="174.118" y2="44.326"/>
				
					<line id="_x32_3_00000051376893246677475670000009295515732899575694_" fill="none" stroke="#00ABEB" stroke-width="0.7" stroke-miterlimit="10" x1="-33.118" y1="24.446" x2="193.998" y2="24.446"/>
				
					<line id="_x32_4_00000099657911357833521510000007853591198542098087_" fill="none" stroke="#00ABEB" stroke-width="0.7" stroke-miterlimit="10" x1="-13.239" y1="4.568" x2="213.877" y2="4.568"/>
				
					<line id="_x32_5_00000155127691660191171140000008292164438978366870_" fill="none" stroke="#00ABEB" stroke-width="0.7" stroke-miterlimit="10" x1="6.641" y1="-15.312" x2="233.757" y2="-15.312"/>
			</g>
			<g id="Vertical_10_mm_00000134969164297783457920000010833503864539426239_">
				
					<line id="_x30__00000151539528360119995570000005083818057555393183_" fill="none" stroke="#00ABEB" stroke-width="0.7" stroke-miterlimit="10" x1="-112.276" y1="103.954" x2="7.237" y2="-15.558"/>
				
					<line id="_x31__00000021823889366233599640000011971139016478256513_" fill="none" stroke="#00ABEB" stroke-width="0.7" stroke-miterlimit="10" x1="-83.93" y1="103.954" x2="35.583" y2="-15.558"/>
				
					<line id="_x32__00000071550223824624162640000006130814236846722696_" fill="none" stroke="#00ABEB" stroke-width="0.7" stroke-miterlimit="10" x1="-55.583" y1="103.954" x2="63.93" y2="-15.558"/>
				
					<line id="_x33__00000042015976804734918030000005045165563697445304_" fill="none" stroke="#00ABEB" stroke-width="0.7" stroke-miterlimit="10" x1="-27.237" y1="103.954" x2="92.276" y2="-15.558"/>
				
					<line id="_x34__00000081637789328126233800000002486991317463304126_" fill="none" stroke="#00ABEB" stroke-width="0.7" stroke-miterlimit="10" x1="1.109" y1="103.954" x2="120.621" y2="-15.558"/>
				
					<line id="_x35__00000051353690731882489090000004794744233340785543_" fill="none" stroke="#00ABEB" stroke-width="0.7" stroke-miterlimit="10" x1="29.456" y1="103.954" x2="148.969" y2="-15.558"/>
				
					<line id="_x36__00000011745311307505536660000010485558803267122343_" fill="none" stroke="#00ABEB" stroke-width="0.7" stroke-miterlimit="10" x1="57.802" y1="103.954" x2="177.315" y2="-15.558"/>
				
					<line id="_x37__00000045602144989735358580000003937589459941247142_" fill="none" stroke="#00ABEB" stroke-width="0.7" stroke-miterlimit="10" x1="86.149" y1="103.954" x2="205.662" y2="-15.558"/>
				
					<line id="_x38__00000047029857857898873560000014194396358708286345_" fill="none" stroke="#00ABEB" stroke-width="0.7" stroke-miterlimit="10" x1="114.495" y1="103.954" x2="234.008" y2="-15.558"/>
			</g>
		</g>
	</g>
</g>
<g id="base">
	<polygon opacity="0.05" fill="#00A300" points="72.307,24.446 89.085,24.446 109.12,24.446 109.357,24.446 69.597,64.205 
		69.205,64.205 12.512,64.205 52.271,24.446 	"/>
	
		<linearGradient id="SVGID_00000098210828727063637380000012423958810517153184_" gradientUnits="userSpaceOnUse" x1="11.7625" y1="44.326" x2="53.0217" y2="44.326">
		<stop  offset="0" style="stop-color:#B2B2FF"/>
		<stop  offset="1" style="stop-color:#4C4CFF"/>
	</linearGradient>
	
		<line fill="none" stroke="url(#SVGID_00000098210828727063637380000012423958810517153184_)" stroke-width="1.5" stroke-linecap="round" stroke-linejoin="round" stroke-miterlimit="10" x1="12.512" y1="64.205" x2="52.272" y2="24.446"/>
	
		<line fill="none" stroke="#4C4CFF" stroke-width="1.5494" stroke-linecap="round" stroke-linejoin="round" stroke-miterlimit="10" x1="52.559" y1="24.446" x2="113.466" y2="24.446"/>
	
		<linearGradient id="SVGID_00000027571354021066043130000016764062958405414808_" gradientUnits="userSpaceOnUse" x1="59.7781" y1="42.2646" x2="102.5374" y2="42.2646">
		<stop  offset="0" style="stop-color:#B2B2FF"/>
		<stop  offset="1" style="stop-color:#4C4CFF"/>
	</linearGradient>
	
		<line fill="none" stroke="url(#SVGID_00000027571354021066043130000016764062958405414808_)" stroke-width="3" stroke-linecap="round" stroke-linejoin="round" stroke-miterlimit="10" x1="101.037" y1="22.385" x2="61.278" y2="62.144"/>
	
		<line fill="none" stroke="#B2B2FF" stroke-width="1.6437" stroke-linecap="round" stroke-linejoin="round" stroke-miterlimit="10" x1="77.128" y1="64.205" x2="12.512" y2="64.205"/>
	
		<line display="none" fill="none" stroke="#000000" stroke-linecap="round" stroke-linejoin="round" stroke-miterlimit="10" x1="72.307" y1="24.446" x2="84.234" y2="12.519"/>
	
		<polygon display="none" fill="none" stroke="#000000" stroke-linecap="round" stroke-linejoin="round" stroke-miterlimit="10" points="
		72.307,24.446 89.085,24.446 109.12,24.446 109.357,24.446 69.597,64.205 69.205,64.205 12.512,64.205 52.271,24.446 	"/>
	
		<line display="none" fill="none" stroke="#000000" stroke-linecap="round" stroke-linejoin="round" stroke-miterlimit="10" x1="101.012" y1="12.519" x2="89.085" y2="24.446"/>
	<g display="none">
		<g display="inline">
			
				<line fill="none" stroke="#000000" stroke-width="0.7" stroke-linecap="round" stroke-linejoin="round" x1="81.175" y1="15.592" x2="76.882" y2="19.885"/>
			<g>
				<polygon points="76.497,16.221 77.197,16.246 77.071,19.695 80.521,19.569 80.546,20.269 76.344,20.422 				"/>
			</g>
		</g>
	</g>
	<g display="none">
		<g display="inline">
			
				<line fill="none" stroke="#000000" stroke-width="0.7" stroke-linecap="round" stroke-linejoin="round" x1="97.464" y1="16.129" x2="93.171" y2="20.422"/>
			<g>
				<polygon points="93.8,15.745 93.825,16.445 97.274,16.318 97.148,19.768 97.848,19.793 98.001,15.592 				"/>
			</g>
		</g>
	</g>
	<g display="none">
		<g display="inline">
			
				<line fill="none" stroke="#0000FF" stroke-width="0.5" stroke-linecap="round" stroke-linejoin="round" x1="117.085" y1="24.341" x2="136.254" y2="24.341"/>
			<g>
				<polygon fill="#0000FF" points="118.741,26.386 119.082,26.02 117.276,24.342 119.082,22.663 118.741,22.297 116.542,24.342 
									"/>
			</g>
		</g>
	</g>
	<g display="none">
		<g display="inline">
			
				<line fill="none" stroke="#0000FF" stroke-width="0.5" stroke-linecap="round" stroke-linejoin="round" x1="97.089" y1="44.337" x2="116.258" y2="44.337"/>
			<g>
				<polygon fill="#0000FF" points="98.745,46.382 99.086,46.016 97.28,44.338 99.086,42.659 98.745,42.293 96.546,44.338 				"/>
			</g>
		</g>
	</g>
	<g display="none">
		<g display="inline">
			
				<line fill="none" stroke="#0000FF" stroke-width="0.5" stroke-linecap="round" stroke-linejoin="round" x1="77.211" y1="64.215" x2="96.381" y2="64.215"/>
			<g>
				<polygon fill="#0000FF" points="78.868,66.26 79.209,65.893 77.403,64.215 79.209,62.536 78.868,62.17 76.669,64.215 				"/>
			</g>
		</g>
	</g>
	<g display="none">
		<g display="inline">
			
				<line fill="none" stroke="#0000FF" stroke-width="0.5" stroke-linecap="round" stroke-linejoin="round" x1="87.316" y1="54.11" x2="106.485" y2="54.11"/>
			<g>
				<polygon fill="#0000FF" points="88.972,56.155 89.313,55.789 87.507,54.111 89.313,52.432 88.972,52.066 86.773,54.111 				"/>
			</g>
		</g>
	</g>
	<g display="none">
		<g display="inline">
			
				<line fill="none" stroke="#0000FF" stroke-width="0.5" stroke-linecap="round" stroke-linejoin="round" x1="107.056" y1="34.37" x2="126.226" y2="34.37"/>
			<g>
				<polygon fill="#0000FF" points="108.713,36.415 109.054,36.048 107.248,34.37 109.054,32.691 108.713,32.325 106.514,34.37 				
					"/>
			</g>
		</g>
	</g>
	<g>
		<path fill="#FF0000" d="M79.915,11.418c1.389,0,2.079,0.51,2.079,1.499c0,0.54-0.28,0.89-0.64,1.129
			c-0.31,0.21-0.68,0.3-1.109,0.39v0.01c0.859,0.26,1.259,0.79,1.259,1.499c0,1.339-1.129,1.999-2.749,1.999h-2.719v-0.16
			c0.55-0.08,0.66-0.18,0.83-0.799l1.209-4.357c0.07-0.25,0.11-0.49,0.11-0.64c0-0.29-0.14-0.36-0.77-0.41v-0.16H79.915z
			 M78.176,15.826c-0.2,0.759-0.35,1.269-0.35,1.399c0,0.28,0.25,0.42,0.67,0.42c1.149,0,1.929-0.59,1.929-1.699
			c0-0.62-0.29-1.059-0.669-1.189c-0.2-0.07-0.63-0.12-1.259-0.12L78.176,15.826z M78.975,14.317c1.309,0,2.009-0.53,2.009-1.519
			c0-0.74-0.36-1.08-1.169-1.08c-0.39,0-0.49,0-0.589,0.36l-0.63,2.239H78.975z"/>
	</g>
	<g>
		<g>
			
				<line fill="none" stroke="#FF0000" stroke-width="0.4" stroke-linecap="round" stroke-linejoin="round" x1="77.128" y1="9.221" x2="81.83" y2="9.221"/>
			<g>
				<polygon fill="#FF0000" points="80.505,10.857 80.232,10.564 81.676,9.221 80.232,7.878 80.505,7.585 82.264,9.221 				"/>
			</g>
		</g>
	</g>
	<g display="none">
		<g display="inline">
			
				<line fill="none" stroke="#00A300" stroke-width="0.1" stroke-miterlimit="10" x1="33.031" y1="44.232" x2="34.531" y2="44.232"/>
			
				<line fill="none" stroke="#00A300" stroke-width="0.1" stroke-miterlimit="10" stroke-dasharray="3.1312,3.1312" x1="37.662" y1="44.232" x2="86.195" y2="44.232"/>
			
				<line fill="none" stroke="#00A300" stroke-width="0.1" stroke-miterlimit="10" x1="87.761" y1="44.232" x2="89.261" y2="44.232"/>
		</g>
	</g>
	<g display="none">
		<g display="inline">
			
				<line fill="none" stroke="#FF0000" stroke-width="0.5" stroke-linecap="round" stroke-linejoin="round" x1="89.084" y1="44.326" x2="89.084" y2="28.205"/>
			<g>
				<polygon fill="#FF0000" points="91.129,29.862 90.763,30.203 89.085,28.397 87.406,30.203 87.04,29.862 89.085,27.663 				"/>
			</g>
		</g>
	</g>
	<g display="none">
		<path display="inline" fill="#FF0000" d="M84.798,32.89l-0.21-0.02c0.03-0.22,0.03-0.27,0.03-0.33c0-0.73-0.23-0.86-1.989-0.86
			c-0.46,0-0.61,0.06-0.68,0.32l-0.64,2.269c1.679-0.02,1.709-0.04,2.159-0.939l0.18,0.05l-0.759,2.349l-0.17-0.05
			c0.06-0.31,0.08-0.45,0.08-0.61c0-0.399-0.28-0.439-0.75-0.439c-0.22,0-0.459-0.01-0.829-0.03l-0.59,2.129
			c-0.07,0.25-0.14,0.45-0.14,0.6c0,0.24,0.18,0.35,0.77,0.39v0.16h-2.508v-0.16c0.58-0.04,0.68-0.26,0.83-0.779l1.229-4.417
			c0.07-0.25,0.1-0.45,0.1-0.61c0-0.28-0.1-0.34-0.76-0.4v-0.16h4.967L84.798,32.89z"/>
	</g>
	<g display="none">
		<g display="inline">
			
				<line fill="none" stroke="#FF0000" stroke-width="0.4" stroke-linecap="round" stroke-linejoin="round" x1="80.401" y1="29.153" x2="85.103" y2="29.153"/>
			<g>
				<polygon fill="#FF0000" points="83.778,30.789 83.505,30.496 84.949,29.154 83.505,27.811 83.778,27.518 85.537,29.154 				"/>
			</g>
		</g>
	</g>
	<g>
		<g>
			
				<line fill="none" stroke="#00A300" stroke-width="0.5" stroke-linecap="round" stroke-linejoin="round" x1="55.184" y1="35.473" x2="55.184" y2="5.622"/>
			<g>
				<polygon fill="#00A300" points="57.229,7.279 56.863,7.62 55.185,5.814 53.506,7.62 53.14,7.279 55.185,5.08 				"/>
			</g>
		</g>
	</g>
	<g display="none">
		<path display="inline" fill="#FF0000" d="M42.711,51.567l-0.21-0.02c0.03-0.22,0.03-0.27,0.03-0.33c0-0.73-0.23-0.86-1.989-0.86
			c-0.46,0-0.61,0.06-0.68,0.32l-0.64,2.269c1.679-0.02,1.709-0.04,2.159-0.939l0.18,0.05l-0.759,2.349l-0.17-0.05
			c0.06-0.31,0.08-0.45,0.08-0.61c0-0.399-0.28-0.439-0.75-0.439c-0.22,0-0.459-0.01-0.829-0.03l-0.59,2.129
			c-0.07,0.25-0.14,0.45-0.14,0.6c0,0.24,0.18,0.35,0.77,0.39v0.16h-2.508v-0.16c0.58-0.04,0.68-0.26,0.83-0.779l1.229-4.417
			c0.07-0.25,0.1-0.45,0.1-0.61c0-0.28-0.1-0.34-0.76-0.4v-0.16h4.967L42.711,51.567z"/>
	</g>
	<g display="none">
		<g display="inline">
			
				<line fill="none" stroke="#FF0000" stroke-width="0.4" stroke-linecap="round" stroke-linejoin="round" x1="38.314" y1="47.831" x2="43.016" y2="47.831"/>
			<g>
				<polygon fill="#FF0000" points="41.691,49.467 41.418,49.174 42.863,47.831 41.418,46.488 41.691,46.195 43.45,47.831 				"/>
			</g>
		</g>
	</g>
	<g display="none">
		<path display="inline" fill="#FF00FF" d="M86.029,10.564v-0.19c0.36,0,0.43-0.02,0.55-0.09c0.08-0.04,0.14-0.15,0.14-0.24
			c0-0.15-0.07-0.42-0.19-0.7l-0.41-0.939h-2.619l-0.459,1.139c-0.05,0.13-0.09,0.3-0.09,0.42c0,0.31,0.22,0.41,0.7,0.41v0.19
			h-1.989v-0.19c0.58-0.06,0.669-0.27,1.259-1.669l2.059-4.877h0.2l2.458,5.627c0.28,0.649,0.42,0.859,0.939,0.919v0.19H86.029z
			 M84.82,5.248L83.67,7.996h2.309L84.82,5.248z"/>
	</g>
	<g display="none">
		<path display="inline" fill="#FF00FF" d="M103.612,7.086c0.66,0.11,0.929,0.29,1.219,0.55c0.32,0.29,0.49,0.709,0.49,1.149
			c0,1.109-0.939,1.779-2.389,1.779h-3.368v-0.19c0.79-0.02,0.959-0.18,0.959-0.939V5.067c0-0.79-0.15-0.879-0.959-0.929v-0.19
			h2.798c1.729,0,2.619,0.609,2.619,1.669c0,0.41-0.16,0.819-0.41,1.04c-0.24,0.21-0.44,0.29-0.959,0.419V7.086z M102.462,6.906
			c1.009,0,1.499-0.41,1.499-1.239c0-0.839-0.58-1.349-1.769-1.349h-0.41c-0.17,0-0.24,0.09-0.24,0.32v2.269H102.462z
			 M101.543,9.745c0,0.34,0.16,0.45,0.62,0.45c0.839,0,1.189-0.04,1.629-0.43c0.25-0.22,0.38-0.56,0.38-0.989
			c0-0.479-0.14-0.85-0.47-1.069c-0.6-0.4-0.979-0.36-2.159-0.4V9.745z"/>
	</g>
	<g>
		<g>
			
				<line fill="none" stroke="#FF0000" stroke-width="0.5" stroke-linecap="round" stroke-linejoin="round" x1="72.223" y1="41.051" x2="72.059" y2="17.038"/>
			<g>
				<polygon fill="#FF0000" points="74.116,18.68 73.752,19.024 72.061,17.229 70.395,19.047 70.026,18.708 72.056,16.495 				"/>
			</g>
		</g>
	</g>
	<g>
		<path fill="#00A300" d="M45.696,4.299l-0.39,1.519l-0.6,2.189c-0.31,1.139-0.65,2.298-0.65,2.458c0,0.12,0.05,0.2,0.18,0.2
			c0.17,0,0.28-0.09,0.819-0.709l0.12,0.1c-0.49,0.729-0.97,1.139-1.469,1.139c-0.26,0-0.41-0.18-0.41-0.45
			c0-0.23,0.02-0.39,0.13-0.89c-0.59,0.99-1.1,1.319-1.779,1.319c-0.649,0-1.069-0.41-1.069-1.169c0-1.619,1.619-3.348,2.918-3.348
			c0.42,0,0.59,0.19,0.649,0.58h0.01l0.45-1.629c0.15-0.53,0.14-0.57,0.14-0.709c0-0.21-0.09-0.24-0.64-0.26v-0.17
			c0.64-0.06,0.999-0.12,1.529-0.23L45.696,4.299z M43.517,6.887c-0.28,0-0.63,0.17-0.91,0.46c-0.66,0.699-1.159,1.789-1.159,2.618
			c0,0.46,0.23,0.73,0.58,0.73c0.919,0,1.959-1.719,1.959-3.238C43.987,7.097,43.747,6.887,43.517,6.887z"/>
		<path fill="#00A300" d="M48.617,11.065v-0.16c0.629-0.03,0.77-0.189,0.77-0.529c0-0.08-0.01-0.17-0.02-0.26l-0.2-1.309h-2.199
			l-0.589,1.109c-0.14,0.26-0.22,0.5-0.22,0.66c0,0.19,0.15,0.31,0.62,0.33v0.16h-1.859v-0.16c0.46-0.09,0.59-0.26,1.339-1.559
			l2.849-4.957h0.26l0.919,5.527c0.14,0.839,0.25,0.95,0.779,0.989v0.16H48.617z M48.667,5.818l-1.489,2.628h1.939L48.667,5.818z"/>
	</g>
	<g>
		<g>
			
				<line fill="none" stroke="#00A300" stroke-width="0.4" stroke-linecap="round" stroke-linejoin="round" x1="46.455" y1="2.341" x2="51.157" y2="2.341"/>
			<g>
				<polygon fill="#00A300" points="49.832,3.977 49.559,3.684 51.004,2.342 49.559,0.999 49.832,0.706 51.591,2.342 				"/>
			</g>
		</g>
	</g>
	<g display="none">
		<g display="inline">
			<line fill="none" stroke="#00A300" stroke-width="0.2" stroke-miterlimit="10" x1="93.821" y1="11.244" x2="92.76" y2="12.305"/>
			
				<line fill="none" stroke="#00A300" stroke-width="0.2" stroke-miterlimit="10" stroke-dasharray="2.9324,2.9324" x1="90.687" y1="14.378" x2="33.664" y2="71.401"/>
			
				<line fill="none" stroke="#00A300" stroke-width="0.2" stroke-miterlimit="10" x1="32.627" y1="72.437" x2="31.567" y2="73.498"/>
		</g>
	</g>
	<polygon opacity="0.1" fill="#00A300" points="56.288,33.542 57.918,33.542 59.864,33.542 59.887,33.542 56.025,37.405 
		55.987,37.405 50.479,37.405 54.342,33.542 	"/>
	<circle fill="#DEDEFF" cx="61.278" cy="62.144" r="1.5"/>
	<g>
		<g>
			
				<line fill="none" stroke="#000000" stroke-width="0.5" stroke-linecap="round" stroke-linejoin="round" x1="82.664" y1="41.083" x2="101.006" y2="41.154"/>
			<g>
				<polygon points="99.341,43.192 99.001,42.825 100.814,41.154 99.014,39.468 99.357,39.103 101.548,41.157 				"/>
			</g>
		</g>
	</g>
	<g>
		<path d="M105.16,41.012c0.719-0.739,1.369-1.839,1.369-2.309c0-0.1-0.05-0.17-0.18-0.29c-0.18-0.16-0.25-0.29-0.25-0.45
			c0-0.21,0.17-0.34,0.379-0.34c0.33,0,0.56,0.32,0.56,0.59c0,0.43-0.28,1.009-0.63,1.549c-0.45,0.699-1.009,1.339-1.189,1.529
			c-0.549,0.59-0.819,0.919-0.989,0.919c-0.06,0-0.09-0.1-0.09-0.27v-0.24c0-0.69-0.11-2.019-0.24-2.779
			c-0.13-0.759-0.24-0.929-0.609-0.929c-0.1,0-0.2,0-0.31,0.01v-0.13c0.45-0.07,0.8-0.14,1.12-0.21c0.08-0.03,0.15-0.04,0.2-0.04
			c0.09,0,0.09,0.06,0.3,1.14c0.13,0.669,0.19,1.219,0.25,2.568L105.16,41.012z"/>
	</g>
	<g>
		<g>
			
				<line fill="none" stroke="#000000" stroke-width="0.4" stroke-linecap="round" stroke-linejoin="round" x1="102.981" y1="35.473" x2="107.683" y2="35.473"/>
			<g>
				<polygon points="106.358,37.109 106.085,36.816 107.529,35.474 106.085,34.131 106.358,33.838 108.117,35.474 				"/>
			</g>
		</g>
	</g>
	<g>
		<g>
			
				<line fill="none" stroke="#000000" stroke-width="0.2" stroke-linecap="round" stroke-linejoin="round" x1="2.777" y1="64.135" x2="42.395" y2="24.517"/>
			<g>
				<rect x="2.677" y="63.485" transform="matrix(0.7071 -0.7071 0.7071 0.7071 -44.5367 20.7483)" width="0.2" height="1.3"/>
			</g>
			<g>
				<rect x="42.295" y="23.867" transform="matrix(0.7071 -0.7071 0.7071 0.7071 -4.9192 37.1583)" width="0.2" height="1.3"/>
			</g>
		</g>
	</g>
	<g>
		<path d="M23.005,40.36c0.85-1.409,1.219-2.128,1.219-2.568c0-0.14-0.07-0.2-0.26-0.32c-0.2-0.13-0.26-0.23-0.26-0.39
			c0-0.22,0.17-0.37,0.399-0.37c0.3,0,0.52,0.25,0.52,0.55c0,0.57-0.48,1.669-1.31,3.048c-1.039,1.719-2.109,2.869-2.678,2.869
			c-0.3,0-0.51-0.17-0.51-0.43c0-0.22,0.17-0.399,0.39-0.399c0.35,0,0.35,0.28,0.61,0.28c0.13,0,0.25-0.08,0.479-0.33
			c0.18-0.19,0.63-0.779,0.709-0.909c0.06-0.12,0.1-0.24,0.1-0.35c0-0.399-0.55-2.639-0.819-3.318c-0.19-0.49-0.37-0.64-0.77-0.64
			c-0.11,0-0.2,0.01-0.31,0.04v-0.169c0.11-0.02,0.22-0.04,0.32-0.06c0.2-0.04,0.53-0.1,1.069-0.18h0.04
			c0.15,0,0.68,1.659,0.85,2.549L23.005,40.36z"/>
	</g>
	<g>
		<g>
			
				<line fill="none" stroke="#000000" stroke-width="0.2" stroke-linecap="round" stroke-linejoin="round" x1="11.932" y1="74.725" x2="61.178" y2="74.725"/>
			<g>
				<rect x="11.832" y="74.075" width="0.2" height="1.3"/>
			</g>
			<g>
				<rect x="61.078" y="74.075" width="0.2" height="1.3"/>
			</g>
		</g>
	</g>
	<g>
		<path d="M38.295,72.432c-0.05,0.18-0.08,0.35-0.08,0.43c0,0.12,0.07,0.18,0.17,0.18c0.15,0,0.38-0.16,0.67-0.57l0.25-0.35
			l0.14,0.1c-0.6,0.949-0.97,1.249-1.509,1.249c-0.32,0-0.49-0.19-0.49-0.56c0-0.08,0.01-0.2,0.04-0.3l1.369-5.237
			c0.03-0.1,0.03-0.16,0.03-0.19c0-0.12-0.17-0.22-0.49-0.22h-0.18v-0.16c0.59-0.07,0.959-0.14,1.549-0.27l0.06,0.05L38.295,72.432z
			"/>
	</g>
</g>
<g id="two" display="none">
	<g display="inline">
		<g>
			
				<line fill="none" stroke="#B2B2FF" stroke-linecap="round" stroke-linejoin="round" x1="46.865" y1="64.205" x2="41.119" y2="64.205"/>
			<g>
				<polygon fill="#B2B2FF" points="44.432,60.116 45.114,60.848 41.502,64.204 45.114,67.562 44.432,68.294 40.034,64.204 				"/>
			</g>
		</g>
	</g>
	<g display="inline">
		<g>
			
				<line fill="none" stroke="#4C4CFF" stroke-linecap="round" stroke-linejoin="round" x1="81.739" y1="24.446" x2="86.702" y2="24.446"/>
			<g>
				<polygon fill="#4C4CFF" points="83.388,28.536 82.706,27.804 86.318,24.447 82.706,21.09 83.388,20.358 87.786,24.447 				"/>
			</g>
		</g>
	</g>
	<g display="inline">
		<g>
			
				<line fill="none" stroke="#FF8000" stroke-width="0.5" stroke-linecap="round" stroke-linejoin="round" x1="52.877" y1="53.926" x2="52.877" y2="78.395"/>
			<g>
				<polygon fill="#FF8000" points="50.832,76.738 51.198,76.397 52.876,78.203 54.555,76.397 54.921,76.738 52.876,78.937 				"/>
			</g>
		</g>
	</g>
	<g display="inline">
		<path fill="#4C4CFF" d="M93.002,15.093c-0.56,0.07-0.649,0.16-0.819,0.77l-1.2,4.288c-0.09,0.32-0.15,0.56-0.15,0.759
			c0,0.28,0.12,0.32,0.69,0.39v0.16h-2.439V21.3c0.55-0.1,0.69-0.189,0.84-0.75l1.199-4.407c0.07-0.25,0.13-0.46,0.13-0.62
			c0-0.25-0.16-0.4-0.72-0.43v-0.16h2.469V15.093z"/>
	</g>
	<g display="inline">
		<path fill="#FF8000" d="M60.249,69.005c1.389,0,2.079,0.51,2.079,1.499c0,0.54-0.28,0.89-0.64,1.129
			c-0.31,0.21-0.68,0.3-1.109,0.39v0.01c0.859,0.26,1.259,0.79,1.259,1.499c0,1.339-1.129,1.999-2.749,1.999h-2.719v-0.16
			c0.55-0.08,0.66-0.18,0.83-0.799l1.209-4.357c0.07-0.25,0.11-0.49,0.11-0.64c0-0.29-0.14-0.36-0.77-0.41v-0.16H60.249z
			 M58.51,73.413c-0.2,0.759-0.35,1.269-0.35,1.399c0,0.28,0.25,0.42,0.67,0.42c1.149,0,1.929-0.59,1.929-1.699
			c0-0.62-0.29-1.059-0.669-1.189c-0.2-0.07-0.63-0.12-1.259-0.12L58.51,73.413z M59.309,71.903c1.309,0,2.009-0.53,2.009-1.519
			c0-0.74-0.36-1.08-1.169-1.08c-0.39,0-0.49,0-0.589,0.36l-0.63,2.239H59.309z"/>
		<path fill="#FF8000" d="M63.93,78.261c-0.32,0.49-0.507,0.665-0.798,0.665c-0.192,0-0.286-0.105-0.286-0.32
			c0-0.117,0.041-0.321,0.128-0.647l0.28-1.032c0.029-0.105,0.052-0.21,0.052-0.256c0-0.117-0.058-0.134-0.373-0.14v-0.093
			c0.228-0.018,0.344-0.035,0.933-0.146l0.023,0.017l-0.548,2c-0.029,0.099-0.059,0.175-0.059,0.256
			c0,0.059,0.035,0.087,0.082,0.087c0.099,0,0.239-0.122,0.49-0.455L63.93,78.261z M63.814,75.667c-0.169,0-0.28-0.122-0.28-0.309
			c0-0.181,0.116-0.309,0.274-0.309c0.157,0,0.291,0.151,0.291,0.32C64.099,75.533,63.965,75.667,63.814,75.667z"/>
		<path fill="#FF8000" d="M66.944,78.255c-0.396,0.542-0.542,0.659-0.816,0.659c-0.146,0-0.274-0.093-0.274-0.314
			c0-0.059,0.012-0.134,0.093-0.437l0.256-0.944c0.047-0.181,0.082-0.391,0.082-0.46c0-0.105-0.052-0.169-0.14-0.169
			c-0.233,0-0.496,0.286-0.863,0.828c-0.262,0.39-0.309,0.524-0.583,1.445h-0.437l0.56-2.04c0.006-0.029,0.012-0.064,0.012-0.099
			c0-0.117-0.082-0.151-0.379-0.157v-0.093c0.472-0.093,0.635-0.117,0.944-0.181l0.023,0.011l-0.391,1.271
			c0.583-0.933,0.973-1.282,1.346-1.282c0.251,0,0.379,0.146,0.379,0.355c0,0.105-0.023,0.227-0.058,0.35l-0.327,1.183
			c-0.058,0.21-0.082,0.309-0.082,0.356c0,0.052,0.023,0.104,0.093,0.104c0.082,0,0.187-0.093,0.356-0.309
			c0.041-0.047,0.082-0.099,0.122-0.152L66.944,78.255z"/>
		<path fill="#FF8000" d="M70.168,74.915l-0.227,0.886l-0.35,1.276c-0.181,0.665-0.379,1.341-0.379,1.434
			c0,0.07,0.029,0.116,0.105,0.116c0.099,0,0.163-0.052,0.478-0.414l0.07,0.058c-0.286,0.426-0.565,0.665-0.856,0.665
			c-0.152,0-0.239-0.105-0.239-0.262c0-0.134,0.012-0.228,0.076-0.519c-0.344,0.577-0.641,0.769-1.038,0.769
			c-0.379,0-0.624-0.239-0.624-0.682c0-0.944,0.944-1.953,1.702-1.953c0.245,0,0.344,0.11,0.379,0.338h0.006l0.262-0.95
			c0.087-0.309,0.082-0.332,0.082-0.414c0-0.123-0.052-0.14-0.373-0.152v-0.099c0.373-0.035,0.583-0.07,0.892-0.134L70.168,74.915z
			 M68.898,76.425c-0.164,0-0.367,0.099-0.531,0.268c-0.385,0.408-0.676,1.043-0.676,1.527c0,0.268,0.134,0.425,0.338,0.425
			c0.536,0,1.143-1.002,1.143-1.888C69.171,76.547,69.031,76.425,68.898,76.425z"/>
	</g>
	<g display="inline">
		<g>
			
				<line fill="none" stroke="#FF8000" stroke-width="0.4" stroke-linecap="round" stroke-linejoin="round" x1="57.642" y1="67.189" x2="62.344" y2="67.189"/>
			<g>
				<polygon fill="#FF8000" points="61.019,68.825 60.746,68.532 62.191,67.19 60.746,65.847 61.019,65.554 62.778,67.19 				"/>
			</g>
		</g>
	</g>
</g>
</svg>
