<?xml version="1.0" encoding="utf-8"?>
<!-- Generator: Adobe Illustrator 26.0.1, SVG Export Plug-In . SVG Version: 6.00 Build 0)  -->
<svg version="1.1" xmlns="http://www.w3.org/2000/svg" xmlns:xlink="http://www.w3.org/1999/xlink" x="0px" y="0px"
	 viewBox="0 0 121.92 80.908" enable-background="new 0 0 121.92 80.908" xml:space="preserve">
<g id="Graph_paper_slanted" opacity="0.5">
	<g id="Clipped_grid_00000003068028900943026870000011536296927355263674_">
		<defs>
			<polygon id="SVGID_1_" points="83,97.104 -48.583,97.104 33.964,15.239 165.546,15.239 			"/>
		</defs>
		<clipPath id="SVGID_00000144317460325285176460000015874453925847090102_">
			<use xlink:href="#SVGID_1_"  overflow="visible"/>
		</clipPath>
		
			<g id="Grid_00000142891597197125820610000009767860333217090727_" opacity="0.25" clip-path="url(#SVGID_00000144317460325285176460000015874453925847090102_)">
			<g id="Horizontal_1_mm_00000151508609497893311650000018408800186222605470_">
				
					<line fill="none" stroke="#00ABEB" stroke-width="0.15" stroke-miterlimit="10" x1="5.701" y1="-13.324" x2="232.542" y2="-13.324"/>
				
					<line fill="none" stroke="#00ABEB" stroke-width="0.15" stroke-miterlimit="10" x1="7.689" y1="-15.312" x2="234.53" y2="-15.312"/>
				
					<line fill="none" stroke="#00ABEB" stroke-width="0.15" stroke-miterlimit="10" x1="-111.588" y1="103.964" x2="115.253" y2="103.964"/>
				
					<line fill="none" stroke="#00ABEB" stroke-width="0.15" stroke-miterlimit="10" x1="-109.6" y1="101.976" x2="117.241" y2="101.976"/>
				
					<line fill="none" stroke="#00ABEB" stroke-width="0.15" stroke-miterlimit="10" x1="-107.612" y1="99.988" x2="119.229" y2="99.988"/>
				<line fill="none" stroke="#00ABEB" stroke-width="0.15" stroke-miterlimit="10" x1="-105.624" y1="98" x2="121.217" y2="98"/>
				
					<line fill="none" stroke="#00ABEB" stroke-width="0.15" stroke-miterlimit="10" x1="-103.636" y1="96.012" x2="123.205" y2="96.012"/>
				
					<line fill="none" stroke="#00ABEB" stroke-width="0.15" stroke-miterlimit="10" x1="-101.648" y1="94.025" x2="125.192" y2="94.025"/>
				
					<line fill="none" stroke="#00ABEB" stroke-width="0.15" stroke-miterlimit="10" x1="-99.66" y1="92.037" x2="127.18" y2="92.037"/>
				
					<line fill="none" stroke="#00ABEB" stroke-width="0.15" stroke-miterlimit="10" x1="-97.673" y1="90.049" x2="129.168" y2="90.049"/>
				
					<line fill="none" stroke="#00ABEB" stroke-width="0.15" stroke-miterlimit="10" x1="-95.684" y1="88.061" x2="131.157" y2="88.061"/>
				
					<line fill="none" stroke="#00ABEB" stroke-width="0.15" stroke-miterlimit="10" x1="-93.696" y1="86.072" x2="133.145" y2="86.072"/>
				
					<line fill="none" stroke="#00ABEB" stroke-width="0.15" stroke-miterlimit="10" x1="-91.709" y1="84.085" x2="135.132" y2="84.085"/>
				
					<line fill="none" stroke="#00ABEB" stroke-width="0.15" stroke-miterlimit="10" x1="-89.721" y1="82.097" x2="137.12" y2="82.097"/>
				
					<line fill="none" stroke="#00ABEB" stroke-width="0.15" stroke-miterlimit="10" x1="-87.732" y1="80.109" x2="139.108" y2="80.109"/>
				
					<line fill="none" stroke="#00ABEB" stroke-width="0.15" stroke-miterlimit="10" x1="-85.745" y1="78.121" x2="141.096" y2="78.121"/>
				
					<line fill="none" stroke="#00ABEB" stroke-width="0.15" stroke-miterlimit="10" x1="-83.757" y1="76.133" x2="143.084" y2="76.133"/>
				
					<line fill="none" stroke="#00ABEB" stroke-width="0.15" stroke-miterlimit="10" x1="-81.769" y1="74.145" x2="145.072" y2="74.145"/>
				
					<line fill="none" stroke="#00ABEB" stroke-width="0.15" stroke-miterlimit="10" x1="-79.781" y1="72.157" x2="147.06" y2="72.157"/>
				
					<line fill="none" stroke="#00ABEB" stroke-width="0.15" stroke-miterlimit="10" x1="-77.793" y1="70.169" x2="149.048" y2="70.169"/>
				
					<line fill="none" stroke="#00ABEB" stroke-width="0.15" stroke-miterlimit="10" x1="-75.805" y1="68.181" x2="151.036" y2="68.181"/>
				
					<line fill="none" stroke="#00ABEB" stroke-width="0.15" stroke-miterlimit="10" x1="-73.817" y1="66.194" x2="153.024" y2="66.194"/>
				
					<line fill="none" stroke="#00ABEB" stroke-width="0.15" stroke-miterlimit="10" x1="-71.829" y1="64.205" x2="155.012" y2="64.205"/>
				
					<line fill="none" stroke="#00ABEB" stroke-width="0.15" stroke-miterlimit="10" x1="-69.841" y1="62.217" x2="157" y2="62.217"/>
				
					<line fill="none" stroke="#00ABEB" stroke-width="0.15" stroke-miterlimit="10" x1="-67.853" y1="60.23" x2="158.988" y2="60.23"/>
				
					<line fill="none" stroke="#00ABEB" stroke-width="0.15" stroke-miterlimit="10" x1="-65.865" y1="58.241" x2="160.976" y2="58.241"/>
				
					<line fill="none" stroke="#00ABEB" stroke-width="0.15" stroke-miterlimit="10" x1="-63.877" y1="56.254" x2="162.963" y2="56.254"/>
				
					<line fill="none" stroke="#00ABEB" stroke-width="0.15" stroke-miterlimit="10" x1="-61.889" y1="54.266" x2="164.952" y2="54.266"/>
				
					<line fill="none" stroke="#00ABEB" stroke-width="0.15" stroke-miterlimit="10" x1="-59.901" y1="52.278" x2="166.94" y2="52.278"/>
				
					<line fill="none" stroke="#00ABEB" stroke-width="0.15" stroke-miterlimit="10" x1="-57.914" y1="50.29" x2="168.927" y2="50.29"/>
				
					<line fill="none" stroke="#00ABEB" stroke-width="0.15" stroke-miterlimit="10" x1="-55.926" y1="48.302" x2="170.915" y2="48.302"/>
				
					<line fill="none" stroke="#00ABEB" stroke-width="0.15" stroke-miterlimit="10" x1="-53.937" y1="46.314" x2="172.904" y2="46.314"/>
				
					<line fill="none" stroke="#00ABEB" stroke-width="0.15" stroke-miterlimit="10" x1="-51.95" y1="44.326" x2="174.891" y2="44.326"/>
				
					<line fill="none" stroke="#00ABEB" stroke-width="0.15" stroke-miterlimit="10" x1="-49.962" y1="42.338" x2="176.879" y2="42.338"/>
				
					<line fill="none" stroke="#00ABEB" stroke-width="0.15" stroke-miterlimit="10" x1="-47.974" y1="40.35" x2="178.867" y2="40.35"/>
				
					<line fill="none" stroke="#00ABEB" stroke-width="0.15" stroke-miterlimit="10" x1="-45.986" y1="38.363" x2="180.855" y2="38.363"/>
				
					<line fill="none" stroke="#00ABEB" stroke-width="0.15" stroke-miterlimit="10" x1="-43.998" y1="36.374" x2="182.843" y2="36.374"/>
				
					<line fill="none" stroke="#00ABEB" stroke-width="0.15" stroke-miterlimit="10" x1="-42.01" y1="34.386" x2="184.831" y2="34.386"/>
				
					<line fill="none" stroke="#00ABEB" stroke-width="0.15" stroke-miterlimit="10" x1="-40.022" y1="32.399" x2="186.819" y2="32.399"/>
				
					<line fill="none" stroke="#00ABEB" stroke-width="0.15" stroke-miterlimit="10" x1="-38.034" y1="30.411" x2="188.807" y2="30.411"/>
				
					<line fill="none" stroke="#00ABEB" stroke-width="0.15" stroke-miterlimit="10" x1="-36.046" y1="28.422" x2="190.795" y2="28.422"/>
				
					<line fill="none" stroke="#00ABEB" stroke-width="0.15" stroke-miterlimit="10" x1="-34.058" y1="26.435" x2="192.782" y2="26.435"/>
				
					<line fill="none" stroke="#00ABEB" stroke-width="0.15" stroke-miterlimit="10" x1="-32.07" y1="24.446" x2="194.771" y2="24.446"/>
				
					<line fill="none" stroke="#00ABEB" stroke-width="0.15" stroke-miterlimit="10" x1="-30.082" y1="22.459" x2="196.758" y2="22.459"/>
				
					<line fill="none" stroke="#00ABEB" stroke-width="0.15" stroke-miterlimit="10" x1="-28.094" y1="20.471" x2="198.747" y2="20.471"/>
				
					<line fill="none" stroke="#00ABEB" stroke-width="0.15" stroke-miterlimit="10" x1="-26.106" y1="18.483" x2="200.735" y2="18.483"/>
				
					<line fill="none" stroke="#00ABEB" stroke-width="0.15" stroke-miterlimit="10" x1="-24.119" y1="16.495" x2="202.722" y2="16.495"/>
				
					<line fill="none" stroke="#00ABEB" stroke-width="0.15" stroke-miterlimit="10" x1="-22.13" y1="14.507" x2="204.71" y2="14.507"/>
				
					<line fill="none" stroke="#00ABEB" stroke-width="0.15" stroke-miterlimit="10" x1="-20.142" y1="12.519" x2="206.699" y2="12.519"/>
				
					<line fill="none" stroke="#00ABEB" stroke-width="0.15" stroke-miterlimit="10" x1="-18.155" y1="10.531" x2="208.686" y2="10.531"/>
				
					<line fill="none" stroke="#00ABEB" stroke-width="0.15" stroke-miterlimit="10" x1="-16.167" y1="8.543" x2="210.674" y2="8.543"/>
				
					<line fill="none" stroke="#00ABEB" stroke-width="0.15" stroke-miterlimit="10" x1="-14.178" y1="6.555" x2="212.662" y2="6.555"/>
				
					<line fill="none" stroke="#00ABEB" stroke-width="0.15" stroke-miterlimit="10" x1="-12.191" y1="4.568" x2="214.65" y2="4.568"/>
				
					<line fill="none" stroke="#00ABEB" stroke-width="0.15" stroke-miterlimit="10" x1="-10.203" y1="2.58" x2="216.638" y2="2.58"/>
				
					<line fill="none" stroke="#00ABEB" stroke-width="0.15" stroke-miterlimit="10" x1="-8.215" y1="0.591" x2="218.626" y2="0.591"/>
				
					<line fill="none" stroke="#00ABEB" stroke-width="0.15" stroke-miterlimit="10" x1="-6.227" y1="-1.396" x2="220.614" y2="-1.396"/>
				
					<line fill="none" stroke="#00ABEB" stroke-width="0.15" stroke-miterlimit="10" x1="-4.239" y1="-3.385" x2="222.602" y2="-3.385"/>
				
					<line fill="none" stroke="#00ABEB" stroke-width="0.15" stroke-miterlimit="10" x1="-2.251" y1="-5.372" x2="224.59" y2="-5.372"/>
				
					<line fill="none" stroke="#00ABEB" stroke-width="0.15" stroke-miterlimit="10" x1="-0.263" y1="-7.36" x2="226.578" y2="-7.36"/>
				
					<line fill="none" stroke="#00ABEB" stroke-width="0.15" stroke-miterlimit="10" x1="1.725" y1="-9.348" x2="228.566" y2="-9.348"/>
				
					<line fill="none" stroke="#00ABEB" stroke-width="0.15" stroke-miterlimit="10" x1="3.713" y1="-11.336" x2="230.553" y2="-11.336"/>
			</g>
			<g id="Vertical_1_mm_00000181073523592228201180000012361058669048395659_">
				<g>
					
						<line fill="none" stroke="#00ABEB" stroke-width="0.15" stroke-miterlimit="10" x1="-111.503" y1="103.954" x2="7.817" y2="-15.365"/>
				</g>
				
					<line fill="none" stroke="#00ABEB" stroke-width="0.15" stroke-miterlimit="10" x1="-108.669" y1="103.954" x2="10.651" y2="-15.365"/>
				
					<line fill="none" stroke="#00ABEB" stroke-width="0.15" stroke-miterlimit="10" x1="-105.834" y1="103.954" x2="13.486" y2="-15.365"/>
				
					<line fill="none" stroke="#00ABEB" stroke-width="0.15" stroke-miterlimit="10" x1="-102.999" y1="103.954" x2="16.321" y2="-15.365"/>
				
					<line fill="none" stroke="#00ABEB" stroke-width="0.15" stroke-miterlimit="10" x1="-100.165" y1="103.954" x2="19.155" y2="-15.365"/>
				
					<line fill="none" stroke="#00ABEB" stroke-width="0.15" stroke-miterlimit="10" x1="-97.33" y1="103.954" x2="21.99" y2="-15.365"/>
				
					<line fill="none" stroke="#00ABEB" stroke-width="0.15" stroke-miterlimit="10" x1="-94.495" y1="103.954" x2="24.825" y2="-15.365"/>
				
					<line fill="none" stroke="#00ABEB" stroke-width="0.15" stroke-miterlimit="10" x1="-91.661" y1="103.954" x2="27.659" y2="-15.365"/>
				
					<line fill="none" stroke="#00ABEB" stroke-width="0.15" stroke-miterlimit="10" x1="-88.826" y1="103.954" x2="30.494" y2="-15.365"/>
				
					<line fill="none" stroke="#00ABEB" stroke-width="0.15" stroke-miterlimit="10" x1="-85.992" y1="103.954" x2="33.328" y2="-15.365"/>
				
					<line fill="none" stroke="#00ABEB" stroke-width="0.15" stroke-miterlimit="10" x1="-83.157" y1="103.954" x2="36.163" y2="-15.365"/>
				
					<line fill="none" stroke="#00ABEB" stroke-width="0.15" stroke-miterlimit="10" x1="-80.322" y1="103.954" x2="38.998" y2="-15.365"/>
				
					<line fill="none" stroke="#00ABEB" stroke-width="0.15" stroke-miterlimit="10" x1="-77.488" y1="103.954" x2="41.832" y2="-15.365"/>
				
					<line fill="none" stroke="#00ABEB" stroke-width="0.15" stroke-miterlimit="10" x1="-74.653" y1="103.954" x2="44.667" y2="-15.365"/>
				
					<line fill="none" stroke="#00ABEB" stroke-width="0.15" stroke-miterlimit="10" x1="-71.818" y1="103.954" x2="47.502" y2="-15.365"/>
				
					<line fill="none" stroke="#00ABEB" stroke-width="0.15" stroke-miterlimit="10" x1="-68.984" y1="103.954" x2="50.336" y2="-15.365"/>
				
					<line fill="none" stroke="#00ABEB" stroke-width="0.15" stroke-miterlimit="10" x1="-66.149" y1="103.954" x2="53.171" y2="-15.365"/>
				
					<line fill="none" stroke="#00ABEB" stroke-width="0.15" stroke-miterlimit="10" x1="-63.314" y1="103.954" x2="56.006" y2="-15.365"/>
				
					<line fill="none" stroke="#00ABEB" stroke-width="0.15" stroke-miterlimit="10" x1="-60.48" y1="103.954" x2="58.84" y2="-15.365"/>
				
					<line fill="none" stroke="#00ABEB" stroke-width="0.15" stroke-miterlimit="10" x1="-57.645" y1="103.954" x2="61.675" y2="-15.365"/>
				
					<line fill="none" stroke="#00ABEB" stroke-width="0.15" stroke-miterlimit="10" x1="-54.81" y1="103.954" x2="64.51" y2="-15.365"/>
				
					<line fill="none" stroke="#00ABEB" stroke-width="0.15" stroke-miterlimit="10" x1="-51.976" y1="103.954" x2="67.344" y2="-15.365"/>
				
					<line fill="none" stroke="#00ABEB" stroke-width="0.15" stroke-miterlimit="10" x1="-49.141" y1="103.954" x2="70.179" y2="-15.365"/>
				
					<line fill="none" stroke="#00ABEB" stroke-width="0.15" stroke-miterlimit="10" x1="-46.306" y1="103.954" x2="73.014" y2="-15.365"/>
				
					<line fill="none" stroke="#00ABEB" stroke-width="0.15" stroke-miterlimit="10" x1="-43.472" y1="103.954" x2="75.848" y2="-15.365"/>
				
					<line fill="none" stroke="#00ABEB" stroke-width="0.15" stroke-miterlimit="10" x1="-40.637" y1="103.954" x2="78.683" y2="-15.365"/>
				
					<line fill="none" stroke="#00ABEB" stroke-width="0.15" stroke-miterlimit="10" x1="-37.803" y1="103.954" x2="81.517" y2="-15.365"/>
				
					<line fill="none" stroke="#00ABEB" stroke-width="0.15" stroke-miterlimit="10" x1="-34.968" y1="103.954" x2="84.352" y2="-15.365"/>
				
					<line fill="none" stroke="#00ABEB" stroke-width="0.15" stroke-miterlimit="10" x1="-32.133" y1="103.954" x2="87.187" y2="-15.365"/>
				
					<line fill="none" stroke="#00ABEB" stroke-width="0.15" stroke-miterlimit="10" x1="-29.299" y1="103.954" x2="90.021" y2="-15.365"/>
				
					<line fill="none" stroke="#00ABEB" stroke-width="0.15" stroke-miterlimit="10" x1="-26.464" y1="103.954" x2="92.856" y2="-15.365"/>
				
					<line fill="none" stroke="#00ABEB" stroke-width="0.15" stroke-miterlimit="10" x1="-23.629" y1="103.954" x2="95.691" y2="-15.365"/>
				
					<line fill="none" stroke="#00ABEB" stroke-width="0.15" stroke-miterlimit="10" x1="-20.795" y1="103.954" x2="98.525" y2="-15.365"/>
				
					<line fill="none" stroke="#00ABEB" stroke-width="0.15" stroke-miterlimit="10" x1="-17.96" y1="103.954" x2="101.36" y2="-15.365"/>
				
					<line fill="none" stroke="#00ABEB" stroke-width="0.15" stroke-miterlimit="10" x1="-15.125" y1="103.954" x2="104.195" y2="-15.365"/>
				
					<line fill="none" stroke="#00ABEB" stroke-width="0.15" stroke-miterlimit="10" x1="-12.291" y1="103.954" x2="107.029" y2="-15.365"/>
				
					<line fill="none" stroke="#00ABEB" stroke-width="0.15" stroke-miterlimit="10" x1="-9.456" y1="103.954" x2="109.864" y2="-15.365"/>
				
					<line fill="none" stroke="#00ABEB" stroke-width="0.15" stroke-miterlimit="10" x1="-6.621" y1="103.954" x2="112.699" y2="-15.365"/>
				
					<line fill="none" stroke="#00ABEB" stroke-width="0.15" stroke-miterlimit="10" x1="-3.787" y1="103.954" x2="115.533" y2="-15.365"/>
				
					<line fill="none" stroke="#00ABEB" stroke-width="0.15" stroke-miterlimit="10" x1="-0.952" y1="103.954" x2="118.368" y2="-15.365"/>
				
					<line fill="none" stroke="#00ABEB" stroke-width="0.15" stroke-miterlimit="10" x1="1.882" y1="103.954" x2="121.202" y2="-15.365"/>
				
					<line fill="none" stroke="#00ABEB" stroke-width="0.15" stroke-miterlimit="10" x1="4.717" y1="103.954" x2="124.037" y2="-15.365"/>
				
					<line fill="none" stroke="#00ABEB" stroke-width="0.15" stroke-miterlimit="10" x1="7.552" y1="103.954" x2="126.872" y2="-15.365"/>
				
					<line fill="none" stroke="#00ABEB" stroke-width="0.15" stroke-miterlimit="10" x1="10.386" y1="103.954" x2="129.706" y2="-15.365"/>
				
					<line fill="none" stroke="#00ABEB" stroke-width="0.15" stroke-miterlimit="10" x1="13.221" y1="103.954" x2="132.541" y2="-15.365"/>
				
					<line fill="none" stroke="#00ABEB" stroke-width="0.15" stroke-miterlimit="10" x1="16.056" y1="103.954" x2="135.376" y2="-15.365"/>
				
					<line fill="none" stroke="#00ABEB" stroke-width="0.15" stroke-miterlimit="10" x1="18.89" y1="103.954" x2="138.21" y2="-15.365"/>
				
					<line fill="none" stroke="#00ABEB" stroke-width="0.15" stroke-miterlimit="10" x1="21.725" y1="103.954" x2="141.045" y2="-15.365"/>
				
					<line fill="none" stroke="#00ABEB" stroke-width="0.15" stroke-miterlimit="10" x1="24.56" y1="103.954" x2="143.88" y2="-15.365"/>
				
					<line fill="none" stroke="#00ABEB" stroke-width="0.15" stroke-miterlimit="10" x1="27.394" y1="103.954" x2="146.714" y2="-15.365"/>
				
					<line fill="none" stroke="#00ABEB" stroke-width="0.15" stroke-miterlimit="10" x1="30.229" y1="103.954" x2="149.549" y2="-15.365"/>
				
					<line fill="none" stroke="#00ABEB" stroke-width="0.15" stroke-miterlimit="10" x1="33.064" y1="103.954" x2="152.384" y2="-15.365"/>
				
					<line fill="none" stroke="#00ABEB" stroke-width="0.15" stroke-miterlimit="10" x1="35.898" y1="103.954" x2="155.218" y2="-15.365"/>
				
					<line fill="none" stroke="#00ABEB" stroke-width="0.15" stroke-miterlimit="10" x1="38.733" y1="103.954" x2="158.053" y2="-15.365"/>
				
					<line fill="none" stroke="#00ABEB" stroke-width="0.15" stroke-miterlimit="10" x1="41.568" y1="103.954" x2="160.888" y2="-15.365"/>
				
					<line fill="none" stroke="#00ABEB" stroke-width="0.15" stroke-miterlimit="10" x1="44.402" y1="103.954" x2="163.722" y2="-15.365"/>
				
					<line fill="none" stroke="#00ABEB" stroke-width="0.15" stroke-miterlimit="10" x1="47.237" y1="103.954" x2="166.557" y2="-15.365"/>
				
					<line fill="none" stroke="#00ABEB" stroke-width="0.15" stroke-miterlimit="10" x1="50.071" y1="103.954" x2="169.391" y2="-15.365"/>
				
					<line fill="none" stroke="#00ABEB" stroke-width="0.15" stroke-miterlimit="10" x1="52.906" y1="103.954" x2="172.226" y2="-15.365"/>
				
					<line fill="none" stroke="#00ABEB" stroke-width="0.15" stroke-miterlimit="10" x1="55.741" y1="103.954" x2="175.061" y2="-15.365"/>
				
					<line fill="none" stroke="#00ABEB" stroke-width="0.15" stroke-miterlimit="10" x1="58.575" y1="103.954" x2="177.895" y2="-15.365"/>
				
					<line fill="none" stroke="#00ABEB" stroke-width="0.15" stroke-miterlimit="10" x1="61.41" y1="103.954" x2="180.73" y2="-15.365"/>
				
					<line fill="none" stroke="#00ABEB" stroke-width="0.15" stroke-miterlimit="10" x1="64.245" y1="103.954" x2="183.565" y2="-15.365"/>
				
					<line fill="none" stroke="#00ABEB" stroke-width="0.15" stroke-miterlimit="10" x1="67.079" y1="103.954" x2="186.399" y2="-15.365"/>
				
					<line fill="none" stroke="#00ABEB" stroke-width="0.15" stroke-miterlimit="10" x1="69.914" y1="103.954" x2="189.234" y2="-15.365"/>
				
					<line fill="none" stroke="#00ABEB" stroke-width="0.15" stroke-miterlimit="10" x1="72.749" y1="103.954" x2="192.069" y2="-15.365"/>
				
					<line fill="none" stroke="#00ABEB" stroke-width="0.15" stroke-miterlimit="10" x1="75.583" y1="103.954" x2="194.903" y2="-15.365"/>
				
					<line fill="none" stroke="#00ABEB" stroke-width="0.15" stroke-miterlimit="10" x1="78.418" y1="103.954" x2="197.738" y2="-15.365"/>
				
					<line fill="none" stroke="#00ABEB" stroke-width="0.15" stroke-miterlimit="10" x1="81.253" y1="103.954" x2="200.573" y2="-15.365"/>
				
					<line fill="none" stroke="#00ABEB" stroke-width="0.15" stroke-miterlimit="10" x1="84.087" y1="103.954" x2="203.407" y2="-15.365"/>
				
					<line fill="none" stroke="#00ABEB" stroke-width="0.15" stroke-miterlimit="10" x1="86.922" y1="103.954" x2="206.242" y2="-15.365"/>
				
					<line fill="none" stroke="#00ABEB" stroke-width="0.15" stroke-miterlimit="10" x1="89.757" y1="103.954" x2="209.077" y2="-15.365"/>
				
					<line fill="none" stroke="#00ABEB" stroke-width="0.15" stroke-miterlimit="10" x1="92.591" y1="103.954" x2="211.911" y2="-15.365"/>
				
					<line fill="none" stroke="#00ABEB" stroke-width="0.15" stroke-miterlimit="10" x1="95.426" y1="103.954" x2="214.746" y2="-15.365"/>
				
					<line fill="none" stroke="#00ABEB" stroke-width="0.15" stroke-miterlimit="10" x1="98.26" y1="103.954" x2="217.58" y2="-15.365"/>
				
					<line fill="none" stroke="#00ABEB" stroke-width="0.15" stroke-miterlimit="10" x1="101.095" y1="103.954" x2="220.415" y2="-15.365"/>
				
					<line fill="none" stroke="#00ABEB" stroke-width="0.15" stroke-miterlimit="10" x1="103.93" y1="103.954" x2="223.25" y2="-15.365"/>
				
					<line fill="none" stroke="#00ABEB" stroke-width="0.15" stroke-miterlimit="10" x1="106.764" y1="103.954" x2="226.084" y2="-15.365"/>
				
					<line fill="none" stroke="#00ABEB" stroke-width="0.15" stroke-miterlimit="10" x1="109.599" y1="103.954" x2="228.919" y2="-15.365"/>
				
					<line fill="none" stroke="#00ABEB" stroke-width="0.15" stroke-miterlimit="10" x1="112.434" y1="103.954" x2="231.754" y2="-15.365"/>
				
					<line fill="none" stroke="#00ABEB" stroke-width="0.15" stroke-miterlimit="10" x1="115.268" y1="103.954" x2="234.588" y2="-15.365"/>
			</g>
			<g id="Horizontal_5_mm_00000011735556503592991880000008134099091165005186_">
				
					<line fill="none" stroke="#00ABEB" stroke-width="0.3" stroke-miterlimit="10" x1="-111.863" y1="103.964" x2="115.253" y2="103.964"/>
				
					<line fill="none" stroke="#00ABEB" stroke-width="0.3" stroke-miterlimit="10" x1="-101.923" y1="94.025" x2="125.192" y2="94.025"/>
				
					<line fill="none" stroke="#00ABEB" stroke-width="0.3" stroke-miterlimit="10" x1="-91.984" y1="84.085" x2="135.132" y2="84.085"/>
				
					<line fill="none" stroke="#00ABEB" stroke-width="0.3" stroke-miterlimit="10" x1="-82.043" y1="74.145" x2="145.072" y2="74.145"/>
				
					<line fill="none" stroke="#00ABEB" stroke-width="0.3" stroke-miterlimit="10" x1="-72.104" y1="64.205" x2="155.012" y2="64.205"/>
				
					<line fill="none" stroke="#00ABEB" stroke-width="0.3" stroke-miterlimit="10" x1="-62.164" y1="54.266" x2="164.952" y2="54.266"/>
				
					<line fill="none" stroke="#00ABEB" stroke-width="0.3" stroke-miterlimit="10" x1="-52.225" y1="44.326" x2="174.891" y2="44.326"/>
				
					<line fill="none" stroke="#00ABEB" stroke-width="0.3" stroke-miterlimit="10" x1="-42.285" y1="34.386" x2="184.831" y2="34.386"/>
				
					<line fill="none" stroke="#00ABEB" stroke-width="0.3" stroke-miterlimit="10" x1="-32.345" y1="24.446" x2="194.771" y2="24.446"/>
				
					<line fill="none" stroke="#00ABEB" stroke-width="0.3" stroke-miterlimit="10" x1="-22.405" y1="14.507" x2="204.71" y2="14.507"/>
				
					<line fill="none" stroke="#00ABEB" stroke-width="0.3" stroke-miterlimit="10" x1="-12.466" y1="4.568" x2="214.65" y2="4.568"/>
			</g>
			<g id="Vertical_5_mm_00000064346364918789686960000003233481195482251947_">
				
					<line fill="none" stroke="#00ABEB" stroke-width="0.3" stroke-miterlimit="10" x1="-111.503" y1="103.954" x2="8.01" y2="-15.558"/>
				
					<line fill="none" stroke="#00ABEB" stroke-width="0.3" stroke-miterlimit="10" x1="-97.33" y1="103.954" x2="22.183" y2="-15.558"/>
				
					<line fill="none" stroke="#00ABEB" stroke-width="0.3" stroke-miterlimit="10" x1="-83.157" y1="103.954" x2="36.356" y2="-15.558"/>
				
					<line fill="none" stroke="#00ABEB" stroke-width="0.3" stroke-miterlimit="10" x1="-68.984" y1="103.954" x2="50.529" y2="-15.558"/>
				
					<line fill="none" stroke="#00ABEB" stroke-width="0.3" stroke-miterlimit="10" x1="-54.81" y1="103.954" x2="64.703" y2="-15.558"/>
				
					<line fill="none" stroke="#00ABEB" stroke-width="0.3" stroke-miterlimit="10" x1="-40.637" y1="103.954" x2="78.876" y2="-15.558"/>
				
					<line fill="none" stroke="#00ABEB" stroke-width="0.3" stroke-miterlimit="10" x1="-26.464" y1="103.954" x2="93.049" y2="-15.558"/>
				
					<line fill="none" stroke="#00ABEB" stroke-width="0.3" stroke-miterlimit="10" x1="-12.291" y1="103.954" x2="107.222" y2="-15.558"/>
				
					<line fill="none" stroke="#00ABEB" stroke-width="0.3" stroke-miterlimit="10" x1="1.882" y1="103.954" x2="121.394" y2="-15.558"/>
				
					<line fill="none" stroke="#00ABEB" stroke-width="0.3" stroke-miterlimit="10" x1="16.056" y1="103.954" x2="135.569" y2="-15.558"/>
				
					<line fill="none" stroke="#00ABEB" stroke-width="0.3" stroke-miterlimit="10" x1="30.229" y1="103.954" x2="149.742" y2="-15.558"/>
				
					<line fill="none" stroke="#00ABEB" stroke-width="0.3" stroke-miterlimit="10" x1="44.402" y1="103.954" x2="163.914" y2="-15.558"/>
				
					<line fill="none" stroke="#00ABEB" stroke-width="0.3" stroke-miterlimit="10" x1="58.575" y1="103.954" x2="178.088" y2="-15.558"/>
				
					<line fill="none" stroke="#00ABEB" stroke-width="0.3" stroke-miterlimit="10" x1="72.749" y1="103.954" x2="192.262" y2="-15.558"/>
				
					<line fill="none" stroke="#00ABEB" stroke-width="0.3" stroke-miterlimit="10" x1="86.922" y1="103.954" x2="206.435" y2="-15.558"/>
				
					<line fill="none" stroke="#00ABEB" stroke-width="0.3" stroke-miterlimit="10" x1="101.095" y1="103.954" x2="220.608" y2="-15.558"/>
				
					<line fill="none" stroke="#00ABEB" stroke-width="0.3" stroke-miterlimit="10" x1="115.268" y1="103.954" x2="234.781" y2="-15.558"/>
			</g>
			<g id="Horizontal_10_mm_00000163045836177147705350000008480455355013810362_">
				
					<line id="_x31_9_00000057116790517712807720000015084113881736219806_" fill="none" stroke="#00ABEB" stroke-width="0.7" stroke-miterlimit="10" x1="-111.863" y1="103.964" x2="115.253" y2="103.964"/>
				
					<line id="_x32_0_00000024685878617286333290000013167547815532084100_" fill="none" stroke="#00ABEB" stroke-width="0.7" stroke-miterlimit="10" x1="-91.984" y1="84.085" x2="135.132" y2="84.085"/>
				
					<line id="_x32_1_00000138564813020868535020000012777939180148238773_" fill="none" stroke="#00ABEB" stroke-width="0.7" stroke-miterlimit="10" x1="-72.104" y1="64.205" x2="155.012" y2="64.205"/>
				
					<line id="_x32_2_00000052807586205252870140000014502512662559454639_" fill="none" stroke="#00ABEB" stroke-width="0.7" stroke-miterlimit="10" x1="-52.225" y1="44.326" x2="174.891" y2="44.326"/>
				
					<line id="_x32_3_00000051376893246677475670000009295515732899575694_" fill="none" stroke="#00ABEB" stroke-width="0.7" stroke-miterlimit="10" x1="-32.345" y1="24.446" x2="194.771" y2="24.446"/>
				
					<line id="_x32_4_00000099657911357833521510000007853591198542098087_" fill="none" stroke="#00ABEB" stroke-width="0.7" stroke-miterlimit="10" x1="-12.466" y1="4.568" x2="214.65" y2="4.568"/>
				
					<line id="_x32_5_00000155127691660191171140000008292164438978366870_" fill="none" stroke="#00ABEB" stroke-width="0.7" stroke-miterlimit="10" x1="7.414" y1="-15.312" x2="234.53" y2="-15.312"/>
			</g>
			<g id="Vertical_10_mm_00000134969164297783457920000010833503864539426239_">
				
					<line id="_x30__00000151539528360119995570000005083818057555393183_" fill="none" stroke="#00ABEB" stroke-width="0.7" stroke-miterlimit="10" x1="-111.503" y1="103.954" x2="8.01" y2="-15.558"/>
				
					<line id="_x31__00000021823889366233599640000011971139016478256513_" fill="none" stroke="#00ABEB" stroke-width="0.7" stroke-miterlimit="10" x1="-83.157" y1="103.954" x2="36.356" y2="-15.558"/>
				
					<line id="_x32__00000071550223824624162640000006130814236846722696_" fill="none" stroke="#00ABEB" stroke-width="0.7" stroke-miterlimit="10" x1="-54.81" y1="103.954" x2="64.703" y2="-15.558"/>
				
					<line id="_x33__00000042015976804734918030000005045165563697445304_" fill="none" stroke="#00ABEB" stroke-width="0.7" stroke-miterlimit="10" x1="-26.464" y1="103.954" x2="93.049" y2="-15.558"/>
				
					<line id="_x34__00000081637789328126233800000002486991317463304126_" fill="none" stroke="#00ABEB" stroke-width="0.7" stroke-miterlimit="10" x1="1.882" y1="103.954" x2="121.394" y2="-15.558"/>
				
					<line id="_x35__00000051353690731882489090000004794744233340785543_" fill="none" stroke="#00ABEB" stroke-width="0.7" stroke-miterlimit="10" x1="30.229" y1="103.954" x2="149.742" y2="-15.558"/>
				
					<line id="_x36__00000011745311307505536660000010485558803267122343_" fill="none" stroke="#00ABEB" stroke-width="0.7" stroke-miterlimit="10" x1="58.575" y1="103.954" x2="178.088" y2="-15.558"/>
				
					<line id="_x37__00000045602144989735358580000003937589459941247142_" fill="none" stroke="#00ABEB" stroke-width="0.7" stroke-miterlimit="10" x1="86.922" y1="103.954" x2="206.435" y2="-15.558"/>
				
					<line id="_x38__00000047029857857898873560000014194396358708286345_" fill="none" stroke="#00ABEB" stroke-width="0.7" stroke-miterlimit="10" x1="115.268" y1="103.954" x2="234.781" y2="-15.558"/>
			</g>
		</g>
	</g>
</g>
<g id="base">
	<polygon opacity="0.05" fill="#00A300" points="73.08,24.446 89.858,24.446 109.893,24.446 110.13,24.446 70.37,64.205 
		69.978,64.205 13.285,64.205 53.044,24.446 	"/>
	
		<linearGradient id="SVGID_00000103225215673452679770000004713176630657376917_" gradientUnits="userSpaceOnUse" x1="12.5355" y1="44.326" x2="53.7947" y2="44.326">
		<stop  offset="0" style="stop-color:#B2B2FF"/>
		<stop  offset="1" style="stop-color:#4C4CFF"/>
	</linearGradient>
	
		<line fill="none" stroke="url(#SVGID_00000103225215673452679770000004713176630657376917_)" stroke-width="1.5" stroke-linecap="round" stroke-linejoin="round" stroke-miterlimit="10" x1="13.285" y1="64.205" x2="53.045" y2="24.446"/>
	
		<line fill="none" stroke="#4C4CFF" stroke-width="1.5494" stroke-linecap="round" stroke-linejoin="round" stroke-miterlimit="10" x1="53.332" y1="24.446" x2="114.239" y2="24.446"/>
	
		<linearGradient id="SVGID_00000018929361613639567980000017685001503033696676_" gradientUnits="userSpaceOnUse" x1="60.5512" y1="42.2646" x2="103.3104" y2="42.2646">
		<stop  offset="0" style="stop-color:#B2B2FF"/>
		<stop  offset="1" style="stop-color:#4C4CFF"/>
	</linearGradient>
	
		<line fill="none" stroke="url(#SVGID_00000018929361613639567980000017685001503033696676_)" stroke-width="3" stroke-linecap="round" stroke-linejoin="round" stroke-miterlimit="10" x1="101.81" y1="22.385" x2="62.051" y2="62.144"/>
	
		<line fill="none" stroke="#B2B2FF" stroke-width="1.6437" stroke-linecap="round" stroke-linejoin="round" stroke-miterlimit="10" x1="77.901" y1="64.205" x2="13.285" y2="64.205"/>
	
		<line display="none" fill="none" stroke="#000000" stroke-linecap="round" stroke-linejoin="round" stroke-miterlimit="10" x1="73.08" y1="24.446" x2="85.007" y2="12.519"/>
	
		<polygon display="none" fill="none" stroke="#000000" stroke-linecap="round" stroke-linejoin="round" stroke-miterlimit="10" points="
		73.08,24.446 89.858,24.446 109.893,24.446 110.13,24.446 70.37,64.205 69.978,64.205 13.285,64.205 53.044,24.446 	"/>
	
		<line display="none" fill="none" stroke="#000000" stroke-linecap="round" stroke-linejoin="round" stroke-miterlimit="10" x1="101.785" y1="12.519" x2="89.858" y2="24.446"/>
	<g display="none">
		<g display="inline">
			
				<line fill="none" stroke="#000000" stroke-width="0.7" stroke-linecap="round" stroke-linejoin="round" x1="81.948" y1="15.592" x2="77.655" y2="19.885"/>
			<g>
				<polygon points="77.27,16.221 77.971,16.246 77.844,19.695 81.294,19.569 81.319,20.269 77.117,20.422 				"/>
			</g>
		</g>
	</g>
	<g display="none">
		<g display="inline">
			
				<line fill="none" stroke="#000000" stroke-width="0.7" stroke-linecap="round" stroke-linejoin="round" x1="98.237" y1="16.129" x2="93.944" y2="20.422"/>
			<g>
				<polygon points="94.573,15.745 94.598,16.445 98.047,16.318 97.921,19.768 98.621,19.793 98.774,15.592 				"/>
			</g>
		</g>
	</g>
	<g display="none">
		<g display="inline">
			
				<line fill="none" stroke="#0000FF" stroke-width="0.5" stroke-linecap="round" stroke-linejoin="round" x1="117.858" y1="24.341" x2="137.027" y2="24.341"/>
			<g>
				<polygon fill="#0000FF" points="119.514,26.386 119.855,26.02 118.049,24.342 119.855,22.663 119.514,22.297 117.315,24.342 
									"/>
			</g>
		</g>
	</g>
	<g display="none">
		<g display="inline">
			
				<line fill="none" stroke="#0000FF" stroke-width="0.5" stroke-linecap="round" stroke-linejoin="round" x1="97.862" y1="44.337" x2="117.031" y2="44.337"/>
			<g>
				<polygon fill="#0000FF" points="99.518,46.382 99.859,46.016 98.053,44.338 99.859,42.659 99.518,42.293 97.319,44.338 				"/>
			</g>
		</g>
	</g>
	<g display="none">
		<g display="inline">
			
				<line fill="none" stroke="#0000FF" stroke-width="0.5" stroke-linecap="round" stroke-linejoin="round" x1="77.984" y1="64.215" x2="97.154" y2="64.215"/>
			<g>
				<polygon fill="#0000FF" points="79.641,66.26 79.982,65.893 78.176,64.215 79.982,62.536 79.641,62.17 77.442,64.215 				"/>
			</g>
		</g>
	</g>
	<g display="none">
		<g display="inline">
			
				<line fill="none" stroke="#0000FF" stroke-width="0.5" stroke-linecap="round" stroke-linejoin="round" x1="88.089" y1="54.11" x2="107.258" y2="54.11"/>
			<g>
				<polygon fill="#0000FF" points="89.745,56.155 90.086,55.789 88.28,54.111 90.086,52.432 89.745,52.066 87.546,54.111 				"/>
			</g>
		</g>
	</g>
	<g display="none">
		<g display="inline">
			
				<line fill="none" stroke="#0000FF" stroke-width="0.5" stroke-linecap="round" stroke-linejoin="round" x1="107.829" y1="34.37" x2="126.999" y2="34.37"/>
			<g>
				<polygon fill="#0000FF" points="109.486,36.415 109.827,36.048 108.021,34.37 109.827,32.691 109.486,32.325 107.287,34.37 				
					"/>
			</g>
		</g>
	</g>
	<g>
		<path fill="#FF0000" d="M80.688,11.418c1.389,0,2.079,0.51,2.079,1.499c0,0.54-0.28,0.89-0.64,1.129
			c-0.31,0.21-0.68,0.3-1.109,0.39v0.01c0.859,0.26,1.259,0.79,1.259,1.499c0,1.339-1.129,1.999-2.749,1.999H76.81v-0.16
			c0.55-0.08,0.66-0.18,0.83-0.799l1.209-4.357c0.07-0.25,0.11-0.49,0.11-0.64c0-0.29-0.14-0.36-0.77-0.41v-0.16H80.688z
			 M78.949,15.826c-0.2,0.759-0.35,1.269-0.35,1.399c0,0.28,0.25,0.42,0.67,0.42c1.149,0,1.929-0.59,1.929-1.699
			c0-0.62-0.29-1.059-0.669-1.189c-0.2-0.07-0.63-0.12-1.259-0.12L78.949,15.826z M79.748,14.317c1.309,0,2.009-0.53,2.009-1.519
			c0-0.74-0.36-1.08-1.169-1.08c-0.39,0-0.49,0-0.589,0.36l-0.63,2.239H79.748z"/>
	</g>
	<g>
		<g>
			
				<line fill="none" stroke="#FF0000" stroke-width="0.4" stroke-linecap="round" stroke-linejoin="round" x1="77.901" y1="9.221" x2="82.603" y2="9.221"/>
			<g>
				<polygon fill="#FF0000" points="81.278,10.857 81.005,10.564 82.449,9.221 81.005,7.878 81.278,7.585 83.037,9.221 				"/>
			</g>
		</g>
	</g>
	<g display="none">
		<g display="inline">
			
				<line fill="none" stroke="#00A300" stroke-width="0.1" stroke-miterlimit="10" x1="33.804" y1="44.232" x2="35.304" y2="44.232"/>
			
				<line fill="none" stroke="#00A300" stroke-width="0.1" stroke-miterlimit="10" stroke-dasharray="3.1312,3.1312" x1="38.435" y1="44.232" x2="86.968" y2="44.232"/>
			
				<line fill="none" stroke="#00A300" stroke-width="0.1" stroke-miterlimit="10" x1="88.534" y1="44.232" x2="90.034" y2="44.232"/>
		</g>
	</g>
	<g display="none">
		<g display="inline">
			
				<line fill="none" stroke="#FF0000" stroke-width="0.5" stroke-linecap="round" stroke-linejoin="round" x1="89.857" y1="44.326" x2="89.857" y2="28.205"/>
			<g>
				<polygon fill="#FF0000" points="91.902,29.862 91.536,30.203 89.858,28.397 88.179,30.203 87.813,29.862 89.858,27.663 				"/>
			</g>
		</g>
	</g>
	<g display="none">
		<path display="inline" fill="#FF0000" d="M85.571,32.89l-0.21-0.02c0.03-0.22,0.03-0.27,0.03-0.33c0-0.73-0.23-0.86-1.989-0.86
			c-0.46,0-0.61,0.06-0.68,0.32l-0.64,2.269c1.679-0.02,1.709-0.04,2.159-0.939l0.18,0.05l-0.759,2.349l-0.17-0.05
			c0.06-0.31,0.08-0.45,0.08-0.61c0-0.399-0.28-0.439-0.75-0.439c-0.22,0-0.459-0.01-0.829-0.03l-0.59,2.129
			c-0.07,0.25-0.14,0.45-0.14,0.6c0,0.24,0.18,0.35,0.77,0.39v0.16h-2.508v-0.16c0.58-0.04,0.68-0.26,0.83-0.779l1.229-4.417
			c0.07-0.25,0.1-0.45,0.1-0.61c0-0.28-0.1-0.34-0.76-0.4v-0.16h4.967L85.571,32.89z"/>
	</g>
	<g display="none">
		<g display="inline">
			
				<line fill="none" stroke="#FF0000" stroke-width="0.4" stroke-linecap="round" stroke-linejoin="round" x1="81.174" y1="29.153" x2="85.876" y2="29.153"/>
			<g>
				<polygon fill="#FF0000" points="84.551,30.789 84.278,30.496 85.722,29.154 84.278,27.811 84.551,27.518 86.31,29.154 				"/>
			</g>
		</g>
	</g>
	<g>
		<g>
			
				<line fill="none" stroke="#00A300" stroke-width="0.5" stroke-linecap="round" stroke-linejoin="round" x1="55.957" y1="35.473" x2="55.957" y2="5.622"/>
			<g>
				<polygon fill="#00A300" points="58.002,7.279 57.636,7.62 55.958,5.814 54.279,7.62 53.913,7.279 55.958,5.08 				"/>
			</g>
		</g>
	</g>
	<g display="none">
		<path display="inline" fill="#FF0000" d="M43.484,51.567l-0.21-0.02c0.03-0.22,0.03-0.27,0.03-0.33c0-0.73-0.23-0.86-1.989-0.86
			c-0.46,0-0.61,0.06-0.68,0.32l-0.64,2.269c1.679-0.02,1.709-0.04,2.159-0.939l0.18,0.05l-0.759,2.349l-0.17-0.05
			c0.06-0.31,0.08-0.45,0.08-0.61c0-0.399-0.28-0.439-0.75-0.439c-0.22,0-0.459-0.01-0.829-0.03l-0.59,2.129
			c-0.07,0.25-0.14,0.45-0.14,0.6c0,0.24,0.18,0.35,0.77,0.39v0.16h-2.508v-0.16c0.58-0.04,0.68-0.26,0.83-0.779l1.229-4.417
			c0.07-0.25,0.1-0.45,0.1-0.61c0-0.28-0.1-0.34-0.76-0.4v-0.16h4.967L43.484,51.567z"/>
	</g>
	<g display="none">
		<g display="inline">
			
				<line fill="none" stroke="#FF0000" stroke-width="0.4" stroke-linecap="round" stroke-linejoin="round" x1="39.087" y1="47.831" x2="43.789" y2="47.831"/>
			<g>
				<polygon fill="#FF0000" points="42.464,49.467 42.191,49.174 43.636,47.831 42.191,46.488 42.464,46.195 44.223,47.831 				"/>
			</g>
		</g>
	</g>
	<g display="none">
		<path display="inline" fill="#FF00FF" d="M86.802,10.564v-0.19c0.36,0,0.43-0.02,0.55-0.09c0.08-0.04,0.14-0.15,0.14-0.24
			c0-0.15-0.07-0.42-0.19-0.7l-0.41-0.939h-2.619l-0.459,1.139c-0.05,0.13-0.09,0.3-0.09,0.42c0,0.31,0.22,0.41,0.7,0.41v0.19
			h-1.989v-0.19c0.58-0.06,0.669-0.27,1.259-1.669l2.059-4.877h0.2l2.458,5.627c0.28,0.649,0.42,0.859,0.939,0.919v0.19H86.802z
			 M85.593,5.248l-1.149,2.749h2.309L85.593,5.248z"/>
	</g>
	<g display="none">
		<path display="inline" fill="#FF00FF" d="M104.385,7.086c0.66,0.11,0.929,0.29,1.219,0.55c0.32,0.29,0.49,0.709,0.49,1.149
			c0,1.109-0.939,1.779-2.389,1.779h-3.368v-0.19c0.79-0.02,0.959-0.18,0.959-0.939V5.067c0-0.79-0.15-0.879-0.959-0.929v-0.19
			h2.798c1.729,0,2.619,0.609,2.619,1.669c0,0.41-0.16,0.819-0.41,1.04c-0.24,0.21-0.44,0.29-0.959,0.419V7.086z M103.235,6.906
			c1.009,0,1.499-0.41,1.499-1.239c0-0.839-0.58-1.349-1.769-1.349h-0.41c-0.17,0-0.24,0.09-0.24,0.32v2.269H103.235z
			 M102.316,9.745c0,0.34,0.16,0.45,0.62,0.45c0.839,0,1.189-0.04,1.629-0.43c0.25-0.22,0.38-0.56,0.38-0.989
			c0-0.479-0.14-0.85-0.47-1.069c-0.6-0.4-0.979-0.36-2.159-0.4V9.745z"/>
	</g>
	<g>
		<g>
			
				<line fill="none" stroke="#FF0000" stroke-width="0.5" stroke-linecap="round" stroke-linejoin="round" x1="72.996" y1="41.051" x2="72.832" y2="17.038"/>
			<g>
				<polygon fill="#FF0000" points="74.889,18.68 74.525,19.024 72.834,17.229 71.168,19.047 70.799,18.708 72.829,16.495 				"/>
			</g>
		</g>
	</g>
	<g>
		<path fill="#00A300" d="M46.469,4.299l-0.39,1.519l-0.6,2.189c-0.31,1.139-0.65,2.298-0.65,2.458c0,0.12,0.05,0.2,0.18,0.2
			c0.17,0,0.28-0.09,0.819-0.709l0.12,0.1c-0.49,0.729-0.97,1.139-1.469,1.139c-0.26,0-0.41-0.18-0.41-0.45
			c0-0.23,0.02-0.39,0.13-0.89c-0.59,0.99-1.1,1.319-1.779,1.319c-0.649,0-1.069-0.41-1.069-1.169c0-1.619,1.619-3.348,2.918-3.348
			c0.42,0,0.59,0.19,0.649,0.58h0.01l0.45-1.629c0.15-0.53,0.14-0.57,0.14-0.709c0-0.21-0.09-0.24-0.64-0.26v-0.17
			c0.64-0.06,0.999-0.12,1.529-0.23L46.469,4.299z M44.29,6.887c-0.28,0-0.63,0.17-0.91,0.46c-0.66,0.699-1.159,1.789-1.159,2.618
			c0,0.46,0.23,0.73,0.58,0.73c0.919,0,1.959-1.719,1.959-3.238C44.76,7.097,44.52,6.887,44.29,6.887z"/>
		<path fill="#00A300" d="M49.39,11.065v-0.16c0.629-0.03,0.77-0.189,0.77-0.529c0-0.08-0.01-0.17-0.02-0.26l-0.2-1.309h-2.199
			l-0.589,1.109c-0.14,0.26-0.22,0.5-0.22,0.66c0,0.19,0.15,0.31,0.62,0.33v0.16h-1.859v-0.16c0.46-0.09,0.59-0.26,1.339-1.559
			l2.849-4.957h0.26l0.919,5.527c0.14,0.839,0.25,0.95,0.779,0.989v0.16H49.39z M49.44,5.818l-1.489,2.628h1.939L49.44,5.818z"/>
	</g>
	<g>
		<g>
			
				<line fill="none" stroke="#00A300" stroke-width="0.4" stroke-linecap="round" stroke-linejoin="round" x1="47.228" y1="2.341" x2="51.93" y2="2.341"/>
			<g>
				<polygon fill="#00A300" points="50.605,3.977 50.332,3.684 51.777,2.342 50.332,0.999 50.605,0.706 52.364,2.342 				"/>
			</g>
		</g>
	</g>
	<g display="none">
		<g display="inline">
			
				<line fill="none" stroke="#00A300" stroke-width="0.2" stroke-miterlimit="10" x1="94.594" y1="11.244" x2="93.533" y2="12.305"/>
			
				<line fill="none" stroke="#00A300" stroke-width="0.2" stroke-miterlimit="10" stroke-dasharray="2.9324,2.9324" x1="91.46" y1="14.378" x2="34.437" y2="71.401"/>
			<line fill="none" stroke="#00A300" stroke-width="0.2" stroke-miterlimit="10" x1="33.4" y1="72.437" x2="32.34" y2="73.498"/>
		</g>
	</g>
	<polygon opacity="0.1" fill="#00A300" points="57.061,33.542 58.691,33.542 60.637,33.542 60.66,33.542 56.798,37.405 
		56.76,37.405 51.252,37.405 55.115,33.542 	"/>
	<circle fill="#DEDEFF" cx="62.051" cy="62.144" r="1.5"/>
	<g>
		<g>
			
				<line fill="none" stroke="#000000" stroke-width="0.5" stroke-linecap="round" stroke-linejoin="round" x1="83.437" y1="41.083" x2="101.779" y2="41.154"/>
			<g>
				<polygon points="100.114,43.192 99.774,42.825 101.587,41.154 99.787,39.468 100.13,39.103 102.321,41.157 				"/>
			</g>
		</g>
	</g>
	<g>
		<path d="M105.933,41.012c0.719-0.739,1.369-1.839,1.369-2.309c0-0.1-0.05-0.17-0.18-0.29c-0.18-0.16-0.25-0.29-0.25-0.45
			c0-0.21,0.17-0.34,0.379-0.34c0.33,0,0.56,0.32,0.56,0.59c0,0.43-0.28,1.009-0.63,1.549c-0.45,0.699-1.009,1.339-1.189,1.529
			c-0.549,0.59-0.819,0.919-0.989,0.919c-0.06,0-0.09-0.1-0.09-0.27v-0.24c0-0.69-0.11-2.019-0.24-2.779
			c-0.13-0.759-0.24-0.929-0.609-0.929c-0.1,0-0.2,0-0.31,0.01v-0.13c0.45-0.07,0.8-0.14,1.12-0.21c0.08-0.03,0.15-0.04,0.2-0.04
			c0.09,0,0.09,0.06,0.3,1.14c0.13,0.669,0.19,1.219,0.25,2.568L105.933,41.012z"/>
	</g>
	<g>
		<g>
			
				<line fill="none" stroke="#000000" stroke-width="0.4" stroke-linecap="round" stroke-linejoin="round" x1="103.754" y1="35.473" x2="108.456" y2="35.473"/>
			<g>
				<polygon points="107.131,37.109 106.858,36.816 108.302,35.474 106.858,34.131 107.131,33.838 108.89,35.474 				"/>
			</g>
		</g>
	</g>
</g>
<g id="two">
	<g>
		<g>
			
				<line fill="none" stroke="#B2B2FF" stroke-linecap="round" stroke-linejoin="round" x1="47.638" y1="64.205" x2="41.892" y2="64.205"/>
			<g>
				<polygon fill="#B2B2FF" points="45.205,60.116 45.887,60.848 42.275,64.204 45.887,67.562 45.205,68.294 40.807,64.204 				"/>
			</g>
		</g>
	</g>
	<g>
		<g>
			
				<line fill="none" stroke="#4C4CFF" stroke-linecap="round" stroke-linejoin="round" x1="82.512" y1="24.446" x2="87.475" y2="24.446"/>
			<g>
				<polygon fill="#4C4CFF" points="84.161,28.536 83.479,27.804 87.091,24.447 83.479,21.09 84.161,20.358 88.559,24.447 				"/>
			</g>
		</g>
	</g>
	<g>
		<g>
			
				<line fill="none" stroke="#FF8000" stroke-width="0.5" stroke-linecap="round" stroke-linejoin="round" x1="53.65" y1="53.926" x2="53.65" y2="78.395"/>
			<g>
				<polygon fill="#FF8000" points="51.605,76.738 51.971,76.397 53.649,78.203 55.328,76.397 55.694,76.738 53.649,78.937 				"/>
			</g>
		</g>
	</g>
	<g>
		<path fill="#4C4CFF" d="M93.775,15.093c-0.56,0.07-0.649,0.16-0.819,0.77l-1.2,4.288c-0.09,0.32-0.15,0.56-0.15,0.759
			c0,0.28,0.12,0.32,0.69,0.39v0.16h-2.439V21.3c0.55-0.1,0.69-0.189,0.84-0.75l1.199-4.407c0.07-0.25,0.13-0.46,0.13-0.62
			c0-0.25-0.16-0.4-0.72-0.43v-0.16h2.469V15.093z"/>
	</g>
	<g>
		<path fill="#FF8000" d="M61.022,69.005c1.389,0,2.079,0.51,2.079,1.499c0,0.54-0.28,0.89-0.64,1.129
			c-0.31,0.21-0.68,0.3-1.109,0.39v0.01c0.859,0.26,1.259,0.79,1.259,1.499c0,1.339-1.129,1.999-2.749,1.999h-2.719v-0.16
			c0.55-0.08,0.66-0.18,0.83-0.799l1.209-4.357c0.07-0.25,0.11-0.49,0.11-0.64c0-0.29-0.14-0.36-0.77-0.41v-0.16H61.022z
			 M59.283,73.413c-0.2,0.759-0.35,1.269-0.35,1.399c0,0.28,0.25,0.42,0.67,0.42c1.149,0,1.929-0.59,1.929-1.699
			c0-0.62-0.29-1.059-0.669-1.189c-0.2-0.07-0.63-0.12-1.259-0.12L59.283,73.413z M60.082,71.903c1.309,0,2.009-0.53,2.009-1.519
			c0-0.74-0.36-1.08-1.169-1.08c-0.39,0-0.49,0-0.589,0.36l-0.63,2.239H60.082z"/>
		<path fill="#FF8000" d="M64.703,78.261c-0.32,0.49-0.507,0.665-0.798,0.665c-0.192,0-0.286-0.105-0.286-0.32
			c0-0.117,0.041-0.321,0.128-0.647l0.28-1.032c0.029-0.105,0.052-0.21,0.052-0.256c0-0.117-0.058-0.134-0.373-0.14v-0.093
			c0.228-0.018,0.344-0.035,0.933-0.146l0.023,0.017l-0.548,2c-0.029,0.099-0.059,0.175-0.059,0.256
			c0,0.059,0.035,0.087,0.082,0.087c0.099,0,0.239-0.122,0.49-0.455L64.703,78.261z M64.587,75.667c-0.169,0-0.28-0.122-0.28-0.309
			c0-0.181,0.116-0.309,0.274-0.309c0.157,0,0.291,0.151,0.291,0.32C64.872,75.533,64.738,75.667,64.587,75.667z"/>
		<path fill="#FF8000" d="M67.717,78.255c-0.396,0.542-0.542,0.659-0.816,0.659c-0.146,0-0.274-0.093-0.274-0.314
			c0-0.059,0.012-0.134,0.093-0.437l0.256-0.944c0.047-0.181,0.082-0.391,0.082-0.46c0-0.105-0.052-0.169-0.14-0.169
			c-0.233,0-0.496,0.286-0.863,0.828c-0.262,0.39-0.309,0.524-0.583,1.445h-0.437l0.56-2.04c0.006-0.029,0.012-0.064,0.012-0.099
			c0-0.117-0.082-0.151-0.379-0.157v-0.093c0.472-0.093,0.635-0.117,0.944-0.181l0.023,0.011l-0.391,1.271
			c0.583-0.933,0.973-1.282,1.346-1.282c0.251,0,0.379,0.146,0.379,0.355c0,0.105-0.023,0.227-0.058,0.35l-0.327,1.183
			c-0.058,0.21-0.082,0.309-0.082,0.356c0,0.052,0.023,0.104,0.093,0.104c0.082,0,0.187-0.093,0.356-0.309
			c0.041-0.047,0.082-0.099,0.122-0.152L67.717,78.255z"/>
		<path fill="#FF8000" d="M70.941,74.915l-0.227,0.886l-0.35,1.276c-0.181,0.665-0.379,1.341-0.379,1.434
			c0,0.07,0.029,0.116,0.105,0.116c0.099,0,0.163-0.052,0.478-0.414l0.07,0.058c-0.286,0.426-0.565,0.665-0.856,0.665
			c-0.152,0-0.239-0.105-0.239-0.262c0-0.134,0.012-0.228,0.076-0.519c-0.344,0.577-0.641,0.769-1.038,0.769
			c-0.379,0-0.624-0.239-0.624-0.682c0-0.944,0.944-1.953,1.702-1.953c0.245,0,0.344,0.11,0.379,0.338h0.006l0.262-0.95
			c0.087-0.309,0.082-0.332,0.082-0.414c0-0.123-0.052-0.14-0.373-0.152v-0.099c0.373-0.035,0.583-0.07,0.892-0.134L70.941,74.915z
			 M69.671,76.425c-0.164,0-0.367,0.099-0.531,0.268c-0.385,0.408-0.676,1.043-0.676,1.527c0,0.268,0.134,0.425,0.338,0.425
			c0.536,0,1.143-1.002,1.143-1.888C69.944,76.547,69.804,76.425,69.671,76.425z"/>
	</g>
	<g>
		<g>
			
				<line fill="none" stroke="#FF8000" stroke-width="0.4" stroke-linecap="round" stroke-linejoin="round" x1="58.415" y1="67.189" x2="63.117" y2="67.189"/>
			<g>
				<polygon fill="#FF8000" points="61.792,68.825 61.519,68.532 62.964,67.19 61.519,65.847 61.792,65.554 63.551,67.19 				"/>
			</g>
		</g>
	</g>
	<g>
		<g>
			<line fill="none" stroke="#000000" stroke-width="0.2" stroke-miterlimit="10" x1="1.726" y1="75.868" x2="27.86" y2="75.868"/>
			<g>
				<polygon points="27.298,76.608 27.613,75.868 27.298,75.127 29.054,75.868 				"/>
			</g>
		</g>
	</g>
	<g>
		<path d="M24.204,71.535c0.699-1.069,1.069-1.429,1.509-1.429c0.24,0,0.41,0.15,0.41,0.37c0,0.209-0.14,0.36-0.34,0.36
			c-0.19,0-0.28-0.17-0.52-0.17c-0.18,0-0.54,0.439-0.979,1.209c0,0.07,0.02,0.21,0.08,0.45l0.32,1.339
			c0.07,0.28,0.16,0.41,0.3,0.41c0.13,0,0.24-0.1,0.47-0.399c0.09-0.12,0.13-0.18,0.21-0.28l0.15,0.09
			c-0.58,0.899-0.839,1.139-1.219,1.139c-0.32,0-0.47-0.18-0.59-0.68l-0.29-1.189l-0.88,1.189c-0.439,0.59-0.64,0.68-0.949,0.68
			c-0.31,0-0.5-0.16-0.5-0.42c0-0.2,0.14-0.359,0.34-0.359c0.09,0,0.19,0.04,0.32,0.11c0.1,0.06,0.2,0.09,0.26,0.09
			c0.11,0,0.3-0.19,0.51-0.49l0.82-1.159l-0.28-1.24c-0.14-0.6-0.21-0.679-0.46-0.679c-0.08,0-0.2,0.02-0.39,0.07l-0.18,0.05
			l-0.03-0.16l0.11-0.04c0.61-0.22,0.939-0.29,1.169-0.29c0.25,0,0.37,0.18,0.51,0.86L24.204,71.535z"/>
	</g>
	<g>
	</g>
	<g>
	</g>
</g>
</svg>
