<?xml version="1.0" encoding="utf-8"?>
<!-- Generator: Adobe Illustrator 26.0.1, SVG Export Plug-In . SVG Version: 6.00 Build 0)  -->
<svg version="1.1" xmlns="http://www.w3.org/2000/svg" xmlns:xlink="http://www.w3.org/1999/xlink" x="0px" y="0px"
	 viewBox="0 0 384.909 316.506" enable-background="new 0 0 384.909 316.506" xml:space="preserve">
<g id="Grid" opacity="0.5">
	<g id="Clipped_grid">
		<defs>
			<rect id="SVGID_1_" x="-15.948" y="-20.041" width="420.902" height="350.751"/>
		</defs>
		<clipPath id="SVGID_00000098218766149434156470000018407964498431453080_">
			<use xlink:href="#SVGID_1_"  overflow="visible"/>
		</clipPath>
		
			<g id="Grid_00000060005542146034257920000005065612243763103930_" opacity="0.25" clip-path="url(#SVGID_00000098218766149434156470000018407964498431453080_)">
			<g id="Horizontal_1_mm">
				
					<line fill="none" stroke="#00ABEB" stroke-width="0.2111" stroke-miterlimit="10" x1="-106.404" y1="-100.213" x2="695.554" y2="-100.213"/>
				
					<line fill="none" stroke="#00ABEB" stroke-width="0.2111" stroke-miterlimit="10" x1="-106.404" y1="-110.236" x2="695.554" y2="-110.236"/>
				
					<line fill="none" stroke="#00ABEB" stroke-width="0.2111" stroke-miterlimit="10" x1="-106.404" y1="491.051" x2="695.554" y2="491.051"/>
				
					<line fill="none" stroke="#00ABEB" stroke-width="0.2111" stroke-miterlimit="10" x1="-106.404" y1="481.029" x2="695.554" y2="481.029"/>
				
					<line fill="none" stroke="#00ABEB" stroke-width="0.2111" stroke-miterlimit="10" x1="-106.404" y1="471.009" x2="695.554" y2="471.009"/>
				
					<line fill="none" stroke="#00ABEB" stroke-width="0.2111" stroke-miterlimit="10" x1="-106.404" y1="460.987" x2="695.554" y2="460.987"/>
				
					<line fill="none" stroke="#00ABEB" stroke-width="0.2111" stroke-miterlimit="10" x1="-106.404" y1="450.964" x2="695.554" y2="450.964"/>
				
					<line fill="none" stroke="#00ABEB" stroke-width="0.2111" stroke-miterlimit="10" x1="-106.404" y1="440.945" x2="695.554" y2="440.945"/>
				
					<line fill="none" stroke="#00ABEB" stroke-width="0.2111" stroke-miterlimit="10" x1="-106.404" y1="430.923" x2="695.554" y2="430.923"/>
				
					<line fill="none" stroke="#00ABEB" stroke-width="0.2111" stroke-miterlimit="10" x1="-106.404" y1="420.904" x2="695.554" y2="420.904"/>
				
					<line fill="none" stroke="#00ABEB" stroke-width="0.2111" stroke-miterlimit="10" x1="-106.404" y1="410.879" x2="695.554" y2="410.879"/>
				
					<line fill="none" stroke="#00ABEB" stroke-width="0.2111" stroke-miterlimit="10" x1="-106.404" y1="400.857" x2="695.554" y2="400.857"/>
				
					<line fill="none" stroke="#00ABEB" stroke-width="0.2111" stroke-miterlimit="10" x1="-106.404" y1="390.838" x2="695.554" y2="390.838"/>
				
					<line fill="none" stroke="#00ABEB" stroke-width="0.2111" stroke-miterlimit="10" x1="-106.404" y1="380.815" x2="695.554" y2="380.815"/>
				
					<line fill="none" stroke="#00ABEB" stroke-width="0.2111" stroke-miterlimit="10" x1="-106.404" y1="370.793" x2="695.554" y2="370.793"/>
				
					<line fill="none" stroke="#00ABEB" stroke-width="0.2111" stroke-miterlimit="10" x1="-106.404" y1="360.774" x2="695.554" y2="360.774"/>
				
					<line fill="none" stroke="#00ABEB" stroke-width="0.2111" stroke-miterlimit="10" x1="-106.404" y1="350.751" x2="695.554" y2="350.751"/>
				
					<line fill="none" stroke="#00ABEB" stroke-width="0.2111" stroke-miterlimit="10" x1="-106.404" y1="340.729" x2="695.554" y2="340.729"/>
				
					<line fill="none" stroke="#00ABEB" stroke-width="0.2111" stroke-miterlimit="10" x1="-106.404" y1="330.71" x2="695.554" y2="330.71"/>
				
					<line fill="none" stroke="#00ABEB" stroke-width="0.2111" stroke-miterlimit="10" x1="-106.404" y1="320.687" x2="695.554" y2="320.687"/>
				
					<line fill="none" stroke="#00ABEB" stroke-width="0.2111" stroke-miterlimit="10" x1="-106.404" y1="310.664" x2="695.554" y2="310.664"/>
				
					<line fill="none" stroke="#00ABEB" stroke-width="0.2111" stroke-miterlimit="10" x1="-106.404" y1="300.645" x2="695.554" y2="300.645"/>
				
					<line fill="none" stroke="#00ABEB" stroke-width="0.2111" stroke-miterlimit="10" x1="-106.404" y1="290.623" x2="695.554" y2="290.623"/>
				
					<line fill="none" stroke="#00ABEB" stroke-width="0.2111" stroke-miterlimit="10" x1="-106.404" y1="280.599" x2="695.554" y2="280.599"/>
				
					<line fill="none" stroke="#00ABEB" stroke-width="0.2111" stroke-miterlimit="10" x1="-106.404" y1="270.579" x2="695.554" y2="270.579"/>
				
					<line fill="none" stroke="#00ABEB" stroke-width="0.2111" stroke-miterlimit="10" x1="-106.404" y1="260.557" x2="695.554" y2="260.557"/>
				
					<line fill="none" stroke="#00ABEB" stroke-width="0.2111" stroke-miterlimit="10" x1="-106.404" y1="250.538" x2="695.554" y2="250.538"/>
				
					<line fill="none" stroke="#00ABEB" stroke-width="0.2111" stroke-miterlimit="10" x1="-106.404" y1="240.515" x2="695.554" y2="240.515"/>
				
					<line fill="none" stroke="#00ABEB" stroke-width="0.2111" stroke-miterlimit="10" x1="-106.404" y1="230.493" x2="695.554" y2="230.493"/>
				
					<line fill="none" stroke="#00ABEB" stroke-width="0.2111" stroke-miterlimit="10" x1="-106.404" y1="220.473" x2="695.554" y2="220.473"/>
				
					<line fill="none" stroke="#00ABEB" stroke-width="0.2111" stroke-miterlimit="10" x1="-106.404" y1="210.451" x2="695.554" y2="210.451"/>
				
					<line fill="none" stroke="#00ABEB" stroke-width="0.2111" stroke-miterlimit="10" x1="-106.404" y1="200.428" x2="695.554" y2="200.428"/>
				
					<line fill="none" stroke="#00ABEB" stroke-width="0.2111" stroke-miterlimit="10" x1="-106.404" y1="190.409" x2="695.554" y2="190.409"/>
				
					<line fill="none" stroke="#00ABEB" stroke-width="0.2111" stroke-miterlimit="10" x1="-106.404" y1="180.387" x2="695.554" y2="180.387"/>
				
					<line fill="none" stroke="#00ABEB" stroke-width="0.2111" stroke-miterlimit="10" x1="-106.404" y1="170.364" x2="695.554" y2="170.364"/>
				
					<line fill="none" stroke="#00ABEB" stroke-width="0.2111" stroke-miterlimit="10" x1="-106.404" y1="160.345" x2="695.554" y2="160.345"/>
				
					<line fill="none" stroke="#00ABEB" stroke-width="0.2111" stroke-miterlimit="10" x1="-106.404" y1="150.323" x2="695.554" y2="150.323"/>
				
					<line fill="none" stroke="#00ABEB" stroke-width="0.2111" stroke-miterlimit="10" x1="-106.404" y1="140.3" x2="695.554" y2="140.3"/>
				
					<line fill="none" stroke="#00ABEB" stroke-width="0.2111" stroke-miterlimit="10" x1="-106.404" y1="130.281" x2="695.554" y2="130.281"/>
				
					<line fill="none" stroke="#00ABEB" stroke-width="0.2111" stroke-miterlimit="10" x1="-106.404" y1="120.258" x2="695.554" y2="120.258"/>
				
					<line fill="none" stroke="#00ABEB" stroke-width="0.2111" stroke-miterlimit="10" x1="-106.404" y1="110.236" x2="695.554" y2="110.236"/>
				
					<line fill="none" stroke="#00ABEB" stroke-width="0.2111" stroke-miterlimit="10" x1="-106.404" y1="100.217" x2="695.554" y2="100.217"/>
				
					<line fill="none" stroke="#00ABEB" stroke-width="0.2111" stroke-miterlimit="10" x1="-106.404" y1="90.192" x2="695.554" y2="90.192"/>
				
					<line fill="none" stroke="#00ABEB" stroke-width="0.2111" stroke-miterlimit="10" x1="-106.404" y1="80.174" x2="695.554" y2="80.174"/>
				
					<line fill="none" stroke="#00ABEB" stroke-width="0.2111" stroke-miterlimit="10" x1="-106.404" y1="70.151" x2="695.554" y2="70.151"/>
				
					<line fill="none" stroke="#00ABEB" stroke-width="0.2111" stroke-miterlimit="10" x1="-106.404" y1="60.128" x2="695.554" y2="60.128"/>
				
					<line fill="none" stroke="#00ABEB" stroke-width="0.2111" stroke-miterlimit="10" x1="-106.404" y1="50.11" x2="695.554" y2="50.11"/>
				
					<line fill="none" stroke="#00ABEB" stroke-width="0.2111" stroke-miterlimit="10" x1="-106.404" y1="40.087" x2="695.554" y2="40.087"/>
				
					<line fill="none" stroke="#00ABEB" stroke-width="0.2111" stroke-miterlimit="10" x1="-106.404" y1="30.064" x2="695.554" y2="30.064"/>
				
					<line fill="none" stroke="#00ABEB" stroke-width="0.2111" stroke-miterlimit="10" x1="-106.404" y1="20.045" x2="695.554" y2="20.045"/>
				
					<line fill="none" stroke="#00ABEB" stroke-width="0.2111" stroke-miterlimit="10" x1="-106.404" y1="10.023" x2="695.554" y2="10.023"/>
				<line fill="none" stroke="#00ABEB" stroke-width="0.2111" stroke-miterlimit="10" x1="-106.404" y1="0" x2="695.554" y2="0"/>
				
					<line fill="none" stroke="#00ABEB" stroke-width="0.2111" stroke-miterlimit="10" x1="-106.404" y1="-10.019" x2="695.554" y2="-10.019"/>
				
					<line fill="none" stroke="#00ABEB" stroke-width="0.2111" stroke-miterlimit="10" x1="-106.404" y1="-20.041" x2="695.554" y2="-20.041"/>
				
					<line fill="none" stroke="#00ABEB" stroke-width="0.2111" stroke-miterlimit="10" x1="-106.404" y1="-30.064" x2="695.554" y2="-30.064"/>
				
					<line fill="none" stroke="#00ABEB" stroke-width="0.2111" stroke-miterlimit="10" x1="-106.404" y1="-40.083" x2="695.554" y2="-40.083"/>
				
					<line fill="none" stroke="#00ABEB" stroke-width="0.2111" stroke-miterlimit="10" x1="-106.404" y1="-50.107" x2="695.554" y2="-50.107"/>
				
					<line fill="none" stroke="#00ABEB" stroke-width="0.2111" stroke-miterlimit="10" x1="-106.404" y1="-60.127" x2="695.554" y2="-60.127"/>
				
					<line fill="none" stroke="#00ABEB" stroke-width="0.2111" stroke-miterlimit="10" x1="-106.404" y1="-70.149" x2="695.554" y2="-70.149"/>
				
					<line fill="none" stroke="#00ABEB" stroke-width="0.2111" stroke-miterlimit="10" x1="-106.404" y1="-80.172" x2="695.554" y2="-80.172"/>
				
					<line fill="none" stroke="#00ABEB" stroke-width="0.2111" stroke-miterlimit="10" x1="-106.404" y1="-90.191" x2="695.554" y2="-90.191"/>
			</g>
			<g id="Vertical_1_mm">
				<g>
					
						<line fill="none" stroke="#00ABEB" stroke-width="0.2111" stroke-miterlimit="10" x1="-106.139" y1="491.002" x2="-106.139" y2="-110.502"/>
				</g>
				
					<line fill="none" stroke="#00ABEB" stroke-width="0.2111" stroke-miterlimit="10" x1="-96.12" y1="491.002" x2="-96.12" y2="-110.502"/>
				
					<line fill="none" stroke="#00ABEB" stroke-width="0.2111" stroke-miterlimit="10" x1="-86.097" y1="491.002" x2="-86.097" y2="-110.502"/>
				
					<line fill="none" stroke="#00ABEB" stroke-width="0.2111" stroke-miterlimit="10" x1="-76.074" y1="491.002" x2="-76.074" y2="-110.502"/>
				
					<line fill="none" stroke="#00ABEB" stroke-width="0.2111" stroke-miterlimit="10" x1="-66.055" y1="491.002" x2="-66.055" y2="-110.502"/>
				
					<line fill="none" stroke="#00ABEB" stroke-width="0.2111" stroke-miterlimit="10" x1="-56.033" y1="491.002" x2="-56.033" y2="-110.502"/>
				
					<line fill="none" stroke="#00ABEB" stroke-width="0.2111" stroke-miterlimit="10" x1="-46.01" y1="491.002" x2="-46.01" y2="-110.502"/>
				
					<line fill="none" stroke="#00ABEB" stroke-width="0.2111" stroke-miterlimit="10" x1="-35.991" y1="491.002" x2="-35.991" y2="-110.502"/>
				
					<line fill="none" stroke="#00ABEB" stroke-width="0.2111" stroke-miterlimit="10" x1="-25.967" y1="491.002" x2="-25.967" y2="-110.502"/>
				
					<line fill="none" stroke="#00ABEB" stroke-width="0.2111" stroke-miterlimit="10" x1="-15.948" y1="491.002" x2="-15.948" y2="-110.502"/>
				
					<line fill="none" stroke="#00ABEB" stroke-width="0.2111" stroke-miterlimit="10" x1="-5.925" y1="491.002" x2="-5.925" y2="-110.502"/>
				
					<line fill="none" stroke="#00ABEB" stroke-width="0.2111" stroke-miterlimit="10" x1="4.097" y1="491.002" x2="4.097" y2="-110.502"/>
				
					<line fill="none" stroke="#00ABEB" stroke-width="0.2111" stroke-miterlimit="10" x1="14.116" y1="491.002" x2="14.116" y2="-110.502"/>
				
					<line fill="none" stroke="#00ABEB" stroke-width="0.2111" stroke-miterlimit="10" x1="24.139" y1="491.002" x2="24.139" y2="-110.502"/>
				
					<line fill="none" stroke="#00ABEB" stroke-width="0.2111" stroke-miterlimit="10" x1="34.161" y1="491.002" x2="34.161" y2="-110.502"/>
				
					<line fill="none" stroke="#00ABEB" stroke-width="0.2111" stroke-miterlimit="10" x1="44.181" y1="491.002" x2="44.181" y2="-110.502"/>
				
					<line fill="none" stroke="#00ABEB" stroke-width="0.2111" stroke-miterlimit="10" x1="54.203" y1="491.002" x2="54.203" y2="-110.502"/>
				
					<line fill="none" stroke="#00ABEB" stroke-width="0.2111" stroke-miterlimit="10" x1="64.226" y1="491.002" x2="64.226" y2="-110.502"/>
				
					<line fill="none" stroke="#00ABEB" stroke-width="0.2111" stroke-miterlimit="10" x1="74.245" y1="491.002" x2="74.245" y2="-110.502"/>
				
					<line fill="none" stroke="#00ABEB" stroke-width="0.2111" stroke-miterlimit="10" x1="84.267" y1="491.002" x2="84.267" y2="-110.502"/>
				
					<line fill="none" stroke="#00ABEB" stroke-width="0.2111" stroke-miterlimit="10" x1="94.29" y1="491.002" x2="94.29" y2="-110.502"/>
				
					<line fill="none" stroke="#00ABEB" stroke-width="0.2111" stroke-miterlimit="10" x1="104.309" y1="491.002" x2="104.309" y2="-110.502"/>
				
					<line fill="none" stroke="#00ABEB" stroke-width="0.2111" stroke-miterlimit="10" x1="114.332" y1="491.002" x2="114.332" y2="-110.502"/>
				
					<line fill="none" stroke="#00ABEB" stroke-width="0.2111" stroke-miterlimit="10" x1="124.354" y1="491.002" x2="124.354" y2="-110.502"/>
				
					<line fill="none" stroke="#00ABEB" stroke-width="0.2111" stroke-miterlimit="10" x1="134.375" y1="491.002" x2="134.375" y2="-110.502"/>
				
					<line fill="none" stroke="#00ABEB" stroke-width="0.2111" stroke-miterlimit="10" x1="144.397" y1="491.002" x2="144.397" y2="-110.502"/>
				
					<line fill="none" stroke="#00ABEB" stroke-width="0.2111" stroke-miterlimit="10" x1="154.416" y1="491.002" x2="154.416" y2="-110.502"/>
				
					<line fill="none" stroke="#00ABEB" stroke-width="0.2111" stroke-miterlimit="10" x1="164.439" y1="491.002" x2="164.439" y2="-110.502"/>
				
					<line fill="none" stroke="#00ABEB" stroke-width="0.2111" stroke-miterlimit="10" x1="174.462" y1="491.002" x2="174.462" y2="-110.502"/>
				
					<line fill="none" stroke="#00ABEB" stroke-width="0.2111" stroke-miterlimit="10" x1="184.48" y1="491.002" x2="184.48" y2="-110.502"/>
				
					<line fill="none" stroke="#00ABEB" stroke-width="0.2111" stroke-miterlimit="10" x1="194.503" y1="491.002" x2="194.503" y2="-110.502"/>
				
					<line fill="none" stroke="#00ABEB" stroke-width="0.2111" stroke-miterlimit="10" x1="204.526" y1="491.002" x2="204.526" y2="-110.502"/>
				
					<line fill="none" stroke="#00ABEB" stroke-width="0.2111" stroke-miterlimit="10" x1="214.545" y1="491.002" x2="214.545" y2="-110.502"/>
				
					<line fill="none" stroke="#00ABEB" stroke-width="0.2111" stroke-miterlimit="10" x1="224.567" y1="491.002" x2="224.567" y2="-110.502"/>
				
					<line fill="none" stroke="#00ABEB" stroke-width="0.2111" stroke-miterlimit="10" x1="234.59" y1="491.002" x2="234.59" y2="-110.502"/>
				
					<line fill="none" stroke="#00ABEB" stroke-width="0.2111" stroke-miterlimit="10" x1="244.609" y1="491.002" x2="244.609" y2="-110.502"/>
				
					<line fill="none" stroke="#00ABEB" stroke-width="0.2111" stroke-miterlimit="10" x1="254.631" y1="491.002" x2="254.631" y2="-110.502"/>
				
					<line fill="none" stroke="#00ABEB" stroke-width="0.2111" stroke-miterlimit="10" x1="264.654" y1="491.002" x2="264.654" y2="-110.502"/>
				
					<line fill="none" stroke="#00ABEB" stroke-width="0.2111" stroke-miterlimit="10" x1="274.673" y1="491.002" x2="274.673" y2="-110.502"/>
				
					<line fill="none" stroke="#00ABEB" stroke-width="0.2111" stroke-miterlimit="10" x1="284.695" y1="491.002" x2="284.695" y2="-110.502"/>
				
					<line fill="none" stroke="#00ABEB" stroke-width="0.2111" stroke-miterlimit="10" x1="294.715" y1="491.002" x2="294.715" y2="-110.502"/>
				
					<line fill="none" stroke="#00ABEB" stroke-width="0.2111" stroke-miterlimit="10" x1="304.739" y1="491.002" x2="304.739" y2="-110.502"/>
				
					<line fill="none" stroke="#00ABEB" stroke-width="0.2111" stroke-miterlimit="10" x1="314.761" y1="491.002" x2="314.761" y2="-110.502"/>
				
					<line fill="none" stroke="#00ABEB" stroke-width="0.2111" stroke-miterlimit="10" x1="324.781" y1="491.002" x2="324.781" y2="-110.502"/>
				
					<line fill="none" stroke="#00ABEB" stroke-width="0.2111" stroke-miterlimit="10" x1="334.803" y1="491.002" x2="334.803" y2="-110.502"/>
				
					<line fill="none" stroke="#00ABEB" stroke-width="0.2111" stroke-miterlimit="10" x1="344.826" y1="491.002" x2="344.826" y2="-110.502"/>
				
					<line fill="none" stroke="#00ABEB" stroke-width="0.2111" stroke-miterlimit="10" x1="354.845" y1="491.002" x2="354.845" y2="-110.502"/>
				
					<line fill="none" stroke="#00ABEB" stroke-width="0.2111" stroke-miterlimit="10" x1="364.867" y1="491.002" x2="364.867" y2="-110.502"/>
				
					<line fill="none" stroke="#00ABEB" stroke-width="0.2111" stroke-miterlimit="10" x1="374.89" y1="491.002" x2="374.89" y2="-110.502"/>
				
					<line fill="none" stroke="#00ABEB" stroke-width="0.2111" stroke-miterlimit="10" x1="384.909" y1="491.002" x2="384.909" y2="-110.502"/>
				
					<line fill="none" stroke="#00ABEB" stroke-width="0.2111" stroke-miterlimit="10" x1="394.932" y1="491.002" x2="394.932" y2="-110.502"/>
				
					<line fill="none" stroke="#00ABEB" stroke-width="0.2111" stroke-miterlimit="10" x1="404.954" y1="491.002" x2="404.954" y2="-110.502"/>
				
					<line fill="none" stroke="#00ABEB" stroke-width="0.2111" stroke-miterlimit="10" x1="414.973" y1="491.002" x2="414.973" y2="-110.502"/>
				
					<line fill="none" stroke="#00ABEB" stroke-width="0.2111" stroke-miterlimit="10" x1="424.996" y1="491.002" x2="424.996" y2="-110.502"/>
				
					<line fill="none" stroke="#00ABEB" stroke-width="0.2111" stroke-miterlimit="10" x1="435.018" y1="491.002" x2="435.018" y2="-110.502"/>
				
					<line fill="none" stroke="#00ABEB" stroke-width="0.2111" stroke-miterlimit="10" x1="445.037" y1="491.002" x2="445.037" y2="-110.502"/>
				
					<line fill="none" stroke="#00ABEB" stroke-width="0.2111" stroke-miterlimit="10" x1="455.062" y1="491.002" x2="455.062" y2="-110.502"/>
				
					<line fill="none" stroke="#00ABEB" stroke-width="0.2111" stroke-miterlimit="10" x1="465.081" y1="491.002" x2="465.081" y2="-110.502"/>
				
					<line fill="none" stroke="#00ABEB" stroke-width="0.2111" stroke-miterlimit="10" x1="475.103" y1="491.002" x2="475.103" y2="-110.502"/>
				
					<line fill="none" stroke="#00ABEB" stroke-width="0.2111" stroke-miterlimit="10" x1="485.126" y1="491.002" x2="485.126" y2="-110.502"/>
				
					<line fill="none" stroke="#00ABEB" stroke-width="0.2111" stroke-miterlimit="10" x1="495.145" y1="491.002" x2="495.145" y2="-110.502"/>
				
					<line fill="none" stroke="#00ABEB" stroke-width="0.2111" stroke-miterlimit="10" x1="505.167" y1="491.002" x2="505.167" y2="-110.502"/>
				
					<line fill="none" stroke="#00ABEB" stroke-width="0.2111" stroke-miterlimit="10" x1="515.19" y1="491.002" x2="515.19" y2="-110.502"/>
				
					<line fill="none" stroke="#00ABEB" stroke-width="0.2111" stroke-miterlimit="10" x1="525.209" y1="491.002" x2="525.209" y2="-110.502"/>
				
					<line fill="none" stroke="#00ABEB" stroke-width="0.2111" stroke-miterlimit="10" x1="535.231" y1="491.002" x2="535.231" y2="-110.502"/>
				
					<line fill="none" stroke="#00ABEB" stroke-width="0.2111" stroke-miterlimit="10" x1="545.254" y1="491.002" x2="545.254" y2="-110.502"/>
				
					<line fill="none" stroke="#00ABEB" stroke-width="0.2111" stroke-miterlimit="10" x1="555.273" y1="491.002" x2="555.273" y2="-110.502"/>
				
					<line fill="none" stroke="#00ABEB" stroke-width="0.2111" stroke-miterlimit="10" x1="565.296" y1="491.002" x2="565.296" y2="-110.502"/>
				
					<line fill="none" stroke="#00ABEB" stroke-width="0.2111" stroke-miterlimit="10" x1="575.318" y1="491.002" x2="575.318" y2="-110.502"/>
				
					<line fill="none" stroke="#00ABEB" stroke-width="0.2111" stroke-miterlimit="10" x1="585.337" y1="491.002" x2="585.337" y2="-110.502"/>
				
					<line fill="none" stroke="#00ABEB" stroke-width="0.2111" stroke-miterlimit="10" x1="595.36" y1="491.002" x2="595.36" y2="-110.502"/>
				
					<line fill="none" stroke="#00ABEB" stroke-width="0.2111" stroke-miterlimit="10" x1="605.382" y1="491.002" x2="605.382" y2="-110.502"/>
				
					<line fill="none" stroke="#00ABEB" stroke-width="0.2111" stroke-miterlimit="10" x1="615.403" y1="491.002" x2="615.403" y2="-110.502"/>
				
					<line fill="none" stroke="#00ABEB" stroke-width="0.2111" stroke-miterlimit="10" x1="625.426" y1="491.002" x2="625.426" y2="-110.502"/>
				
					<line fill="none" stroke="#00ABEB" stroke-width="0.2111" stroke-miterlimit="10" x1="635.445" y1="491.002" x2="635.445" y2="-110.502"/>
				
					<line fill="none" stroke="#00ABEB" stroke-width="0.2111" stroke-miterlimit="10" x1="645.467" y1="491.002" x2="645.467" y2="-110.502"/>
				
					<line fill="none" stroke="#00ABEB" stroke-width="0.2111" stroke-miterlimit="10" x1="655.49" y1="491.002" x2="655.49" y2="-110.502"/>
				
					<line fill="none" stroke="#00ABEB" stroke-width="0.2111" stroke-miterlimit="10" x1="665.509" y1="491.002" x2="665.509" y2="-110.502"/>
				
					<line fill="none" stroke="#00ABEB" stroke-width="0.2111" stroke-miterlimit="10" x1="675.532" y1="491.002" x2="675.532" y2="-110.502"/>
				
					<line fill="none" stroke="#00ABEB" stroke-width="0.2111" stroke-miterlimit="10" x1="685.554" y1="491.002" x2="685.554" y2="-110.502"/>
				
					<line fill="none" stroke="#00ABEB" stroke-width="0.2111" stroke-miterlimit="10" x1="695.573" y1="491.002" x2="695.573" y2="-110.502"/>
			</g>
			<g id="Horizontal_5_mm_1_">
				
					<line fill="none" stroke="#00ABEB" stroke-width="0.4221" stroke-miterlimit="10" x1="-107.376" y1="491.051" x2="695.554" y2="491.051"/>
				
					<line fill="none" stroke="#00ABEB" stroke-width="0.4221" stroke-miterlimit="10" x1="-107.376" y1="440.945" x2="695.554" y2="440.945"/>
				
					<line fill="none" stroke="#00ABEB" stroke-width="0.4221" stroke-miterlimit="10" x1="-107.376" y1="390.838" x2="695.554" y2="390.838"/>
				
					<line fill="none" stroke="#00ABEB" stroke-width="0.4221" stroke-miterlimit="10" x1="-107.376" y1="340.729" x2="695.554" y2="340.729"/>
				
					<line fill="none" stroke="#00ABEB" stroke-width="0.4221" stroke-miterlimit="10" x1="-107.376" y1="290.623" x2="695.554" y2="290.623"/>
				
					<line fill="none" stroke="#00ABEB" stroke-width="0.4221" stroke-miterlimit="10" x1="-107.376" y1="240.515" x2="695.554" y2="240.515"/>
				
					<line fill="none" stroke="#00ABEB" stroke-width="0.4221" stroke-miterlimit="10" x1="-107.376" y1="190.409" x2="695.554" y2="190.409"/>
				
					<line fill="none" stroke="#00ABEB" stroke-width="0.4221" stroke-miterlimit="10" x1="-107.376" y1="140.3" x2="695.554" y2="140.3"/>
				
					<line fill="none" stroke="#00ABEB" stroke-width="0.4221" stroke-miterlimit="10" x1="-107.376" y1="90.192" x2="695.554" y2="90.192"/>
				
					<line fill="none" stroke="#00ABEB" stroke-width="0.4221" stroke-miterlimit="10" x1="-107.376" y1="40.087" x2="695.554" y2="40.087"/>
				
					<line fill="none" stroke="#00ABEB" stroke-width="0.4221" stroke-miterlimit="10" x1="-107.376" y1="-10.019" x2="695.554" y2="-10.019"/>
			</g>
			<g id="Vertical_5_mm">
				
					<line fill="none" stroke="#00ABEB" stroke-width="0.4221" stroke-miterlimit="10" x1="-106.139" y1="491.002" x2="-106.139" y2="-111.473"/>
				
					<line fill="none" stroke="#00ABEB" stroke-width="0.4221" stroke-miterlimit="10" x1="-56.033" y1="491.002" x2="-56.033" y2="-111.473"/>
				
					<line fill="none" stroke="#00ABEB" stroke-width="0.4221" stroke-miterlimit="10" x1="-5.925" y1="491.002" x2="-5.925" y2="-111.473"/>
				
					<line fill="none" stroke="#00ABEB" stroke-width="0.4221" stroke-miterlimit="10" x1="44.181" y1="491.002" x2="44.181" y2="-111.473"/>
				
					<line fill="none" stroke="#00ABEB" stroke-width="0.4221" stroke-miterlimit="10" x1="94.29" y1="491.002" x2="94.29" y2="-111.473"/>
				
					<line fill="none" stroke="#00ABEB" stroke-width="0.4221" stroke-miterlimit="10" x1="144.397" y1="491.002" x2="144.397" y2="-111.473"/>
				
					<line fill="none" stroke="#00ABEB" stroke-width="0.4221" stroke-miterlimit="10" x1="194.503" y1="491.002" x2="194.503" y2="-111.473"/>
				
					<line fill="none" stroke="#00ABEB" stroke-width="0.4221" stroke-miterlimit="10" x1="244.609" y1="491.002" x2="244.609" y2="-111.473"/>
				
					<line fill="none" stroke="#00ABEB" stroke-width="0.4221" stroke-miterlimit="10" x1="294.715" y1="491.002" x2="294.715" y2="-111.473"/>
				
					<line fill="none" stroke="#00ABEB" stroke-width="0.4221" stroke-miterlimit="10" x1="344.826" y1="491.002" x2="344.826" y2="-111.473"/>
				
					<line fill="none" stroke="#00ABEB" stroke-width="0.4221" stroke-miterlimit="10" x1="394.932" y1="491.002" x2="394.932" y2="-111.473"/>
				
					<line fill="none" stroke="#00ABEB" stroke-width="0.4221" stroke-miterlimit="10" x1="445.037" y1="491.002" x2="445.037" y2="-111.473"/>
				
					<line fill="none" stroke="#00ABEB" stroke-width="0.4221" stroke-miterlimit="10" x1="495.145" y1="491.002" x2="495.145" y2="-111.473"/>
				
					<line fill="none" stroke="#00ABEB" stroke-width="0.4221" stroke-miterlimit="10" x1="545.254" y1="491.002" x2="545.254" y2="-111.473"/>
				
					<line fill="none" stroke="#00ABEB" stroke-width="0.4221" stroke-miterlimit="10" x1="595.36" y1="491.002" x2="595.36" y2="-111.473"/>
				
					<line fill="none" stroke="#00ABEB" stroke-width="0.4221" stroke-miterlimit="10" x1="645.467" y1="491.002" x2="645.467" y2="-111.473"/>
				
					<line fill="none" stroke="#00ABEB" stroke-width="0.4221" stroke-miterlimit="10" x1="695.573" y1="491.002" x2="695.573" y2="-111.473"/>
			</g>
			<g id="Horizontal_10_mm">
				
					<line id="_x31_9_1_" fill="none" stroke="#00ABEB" stroke-width="0.9849" stroke-miterlimit="10" x1="-107.376" y1="491.051" x2="695.554" y2="491.051"/>
				
					<line id="_x32_0" fill="none" stroke="#00ABEB" stroke-width="0.9849" stroke-miterlimit="10" x1="-107.376" y1="390.838" x2="695.554" y2="390.838"/>
				
					<line id="_x32_1" fill="none" stroke="#00ABEB" stroke-width="0.9849" stroke-miterlimit="10" x1="-107.376" y1="290.623" x2="695.554" y2="290.623"/>
				
					<line id="_x32_2" fill="none" stroke="#00ABEB" stroke-width="0.9849" stroke-miterlimit="10" x1="-107.376" y1="190.409" x2="695.554" y2="190.409"/>
				
					<line id="_x32_3" fill="none" stroke="#00ABEB" stroke-width="0.9849" stroke-miterlimit="10" x1="-107.376" y1="90.192" x2="695.554" y2="90.192"/>
				
					<line id="_x32_4" fill="none" stroke="#00ABEB" stroke-width="0.9849" stroke-miterlimit="10" x1="-107.376" y1="-10.019" x2="695.554" y2="-10.019"/>
				
					<line id="_x32_5" fill="none" stroke="#00ABEB" stroke-width="0.9849" stroke-miterlimit="10" x1="-107.376" y1="-110.236" x2="695.554" y2="-110.236"/>
			</g>
			<g id="Vertical_10_mm">
				
					<line id="_x30_" fill="none" stroke="#00ABEB" stroke-width="0.9849" stroke-miterlimit="10" x1="-106.139" y1="491.002" x2="-106.139" y2="-111.473"/>
				
					<line id="_x31_" fill="none" stroke="#00ABEB" stroke-width="0.9849" stroke-miterlimit="10" x1="-5.925" y1="491.002" x2="-5.925" y2="-111.473"/>
				
					<line id="_x32_" fill="none" stroke="#00ABEB" stroke-width="0.9849" stroke-miterlimit="10" x1="94.29" y1="491.002" x2="94.29" y2="-111.473"/>
				
					<line id="_x33_" fill="none" stroke="#00ABEB" stroke-width="0.9849" stroke-miterlimit="10" x1="194.503" y1="491.002" x2="194.503" y2="-111.473"/>
				
					<line id="_x34_" fill="none" stroke="#00ABEB" stroke-width="0.9849" stroke-miterlimit="10" x1="294.715" y1="491.002" x2="294.715" y2="-111.473"/>
				
					<line id="_x35_" fill="none" stroke="#00ABEB" stroke-width="0.9849" stroke-miterlimit="10" x1="394.932" y1="491.002" x2="394.932" y2="-111.473"/>
				
					<line id="_x36_" fill="none" stroke="#00ABEB" stroke-width="0.9849" stroke-miterlimit="10" x1="495.145" y1="491.002" x2="495.145" y2="-111.473"/>
				
					<line id="_x37_" fill="none" stroke="#00ABEB" stroke-width="0.9849" stroke-miterlimit="10" x1="595.36" y1="491.002" x2="595.36" y2="-111.473"/>
				
					<line id="_x38_" fill="none" stroke="#00ABEB" stroke-width="0.9849" stroke-miterlimit="10" x1="695.573" y1="491.002" x2="695.573" y2="-111.473"/>
			</g>
		</g>
	</g>
</g>
<g id="Heart_walls">
	<path opacity="0.1" fill="#CC7878" d="M314.088,244.788c3.135-29.321,4.702-43.981,4.302-53.576
		c-0.815-19.518-1.222-29.277-6.484-37.611c-3.759-5.953-9.209-11.154-13.048-22.357c-2.088-6.092-2.688-11.01-3.046-14.085
		c-1.845-15.853,2.258-22.719,2.62-36.449c0.087-3.319,0.434-16.502-4.538-27.832c-8.898-20.277-35.438-36.001-59.195-32.776
		c-23.91,3.246-41.755,24.629-45.369,32.869c-0.323,0.736-5.657,2.071-7.836,2.368c-2.918,0.397-6.576-1.373-8.818-4.354
		c-4.785-6.361-11.071-8.599-22.097-12.523c-14.808-5.271-27.43-4.25-33.781-3.668c-7.907,0.724-18.635,1.707-30.313,8.474
		c-3.322,1.925-20.606,12.363-27.685,33.858c-3.827,11.621-3.022,21.464-2.539,26.704c0.507,5.511,1.612,16.269,8.287,27.425
		c5.982,9.999,14.718,17.446,17.303,19.619c4.478,3.765,6.331,4.529,9.225,8.103c5.088,6.284,6.382,12.594,7.811,18.373
		c0,0,2.456,9.934,9.504,29.317c2.123,5.839,6.658,18.079,15.331,30.581c9.423,13.583,19.608,21.53,27.389,27.502
		c14.563,11.178,27.071,16.673,44.362,24.269c10.397,4.568,22.58,9.857,39.612,14.289c32.406,8.432,45.329,4.121,50.416,1.989
		c8.405-3.522,12.82-8.388,13.879-9.599c4.663-5.329,6.538-10.953,8.657-19.275C312.636,258.363,314.088,244.788,314.088,244.788z
		 M218.211,266.851c-1.663,1.23-4.066,0.485-7.173-0.478c-2.754-0.854-2.532-1.264-4.723-1.833
		c-3.458-0.898-4.083,0.106-7.013-0.803c-2.423-0.752-2.141-1.483-5.175-2.65c-2.929-1.126-3.349-0.504-5.95-1.561
		c-2.969-1.205-2.666-2.114-5.559-3.362c-3.238-1.397-3.931-0.394-6.894-1.765c-1.699-0.786-1.411-1.088-5.41-4.049
		c-3.191-2.362-4.823-3.553-6.582-4.033c-2.849-0.778-3.475,0.258-5.223-0.774c-1.798-1.062-1.45-2.346-4.046-5.37
		c-1.391-1.621-2.162-2.519-3.53-3.192c-2.612-1.284-3.945-0.05-6.454-1.31c-1.212-0.609-1.163-1.029-3.493-3.363
		c-1.331-1.334-2.778-2.527-5.672-4.914c-5.304-4.376-4.962-3.66-6.205-4.94c-1.193-1.228-2.222-2.622-5.555-10.01
		c-1.292-2.864-2.486-5.522-4.23-9.902c-1.514-3.802-2.668-7.045-4.914-13.375c-3.238-9.124-3.645-10.649-3.941-12.894
		c-0.505-3.835-0.885-7.042,0.757-10.527c1.825-3.874,5.089-5.844,6.585-6.747c0.665-0.402,3.929-2.314,8.586-2.719
		c2.208-0.192,1.455,0.24,9.423,0.876c5.169,0.413,5.445,0.71,6.909,0.87c1.667,0.182,5.002,0.494,5.021,0.46
		c0,0,0.462-0.98,0.081-1.824c-0.607-1.344-2.694-2.556-3.552-2.882c-6.229-2.368-9.343-3.551-9.98-3.693
		c-3.597-0.798-6.22-1.142-11.561-1.79c-12.409-1.505-11.851-1.298-13.388-1.647c-2.71-0.615-8.432-1.966-14.524-5.936
		c-5.161-3.364-8.19-7.044-10.516-9.918c-2.58-3.188-7.234-9.058-9.814-18.121c-2.274-7.988-1.813-14.506-1.511-18.296
		c0.284-3.555,0.794-9.327,3.776-16.161c1.318-3.022,3.707-7.597,7.862-12.22c1.75-1.947,5.059-5.567,10.49-8.595
		c0,0,3.956-2.206,8.858-3.559c27.576-7.609,51.826,5.854,51.827,5.854c4.794,2.662,11.91,6.711,18.046,14.966
		c8.456,11.377,9.478,23.246,9.826,28.006c0.447,6.117,0.91,12.465-2.331,19.439c-3.882,8.354-11.264,13.704-13.579,15.382
		c-6.435,4.663-9.969,5.088-13.014,10.293c-1.593,2.723-2.993,6.134-2.993,6.134c0,0-1.193,3.974-0.535,4.331
		c0.763,0.415,2.402-1.586,4.553-3.594c1.312-1.225,3.025-2.446,6.451-4.889c3.26-2.325,4.931-3.504,6.959-4.33
		c1.644-0.67,3.544-1.444,6.154-1.45c1.035-0.002,4.539,0.11,7.745,2.399c1.997,1.426,3.025,3.086,4.736,6.328
		c3.521,6.671,5.5,10.419,7.609,17.104c1.052,3.332,1.602,5.702,2.544,9.806c1.609,7.007,2.145,10.794,3.63,19.295
		c3.59,20.55,3.795,17.512,4.161,22.645c0.302,4.237,0.433,10.098,2.517,15.729c0.707,1.91,2.092,5.021,2.853,6.728
		c1.886,4.234,2.332,4.842,2.789,5.367c1.477,1.699,2.569,1.965,3.792,4.057c0.587,1.004,1.134,1.941,1.102,3.204
		c-0.046,1.795-1.213,2.264-0.972,3.652c0.248,1.426,1.576,1.49,1.881,2.924C219.989,264.504,219.275,266.065,218.211,266.851z
		 M290.293,226.968c-2.573,11.528-2.59,12.013-3.522,15.407c0,0-2.769,10.075-8.866,18.92c-0.926,1.344-2.475,3.426-4.848,3.71
		c-2.26,0.27-4.306-1.206-4.473-1.33c-1.525-1.129-1.093-1.854-2.538-2.797c-1.065-0.695-1.484-0.421-4.73-1.386
		c-1.547-0.46-2.327-0.696-2.653-1.025c-1.411-1.424-0.237-3.426-1.613-4.573c-0.742-0.618-1.243-0.169-2.824-1.062
		c-0.345-0.195-1.142-0.645-1.769-1.372c-1.209-1.403-0.727-2.611-1.393-4.345c-0.76-1.978-1.899-1.74-3.706-4.038
		c-1.173-1.491-0.835-1.772-2.744-5.986c-1.86-4.105-2.21-3.903-3.166-6.527c-1.115-3.059-0.651-3.364-1.744-6.039
		c-0.981-2.4-1.634-2.835-3.18-5.631c-1.733-3.133-2.637-5.7-3.353-7.735c-0.372-1.058-1.52-4.419-2.447-9.425
		c-0.963-5.2-0.526-5.908-1.318-12.145c-0.807-6.357-1.961-11.145-2.408-12.921c-0.74-2.942-1.783-7.023-3.851-12.066
		c-1.619-3.948-1.914-3.727-4.409-9.492c-1.974-4.56-2.961-6.84-3.869-9.913c-1.449-4.905-0.985-5.665-2.51-8.72
		c-1.197-2.398-2.143-3.252-1.919-4.819c0.395-2.766,3.949-4.336,4.795-4.71c2.642-1.167,4.976-0.979,8.329-0.708
		c3.998,0.322,7.258,1.28,8.446,1.653c2.27,0.712,4.684,1.06,6.82,2.109c0.627,0.308,2.155,1.1,3.727,0.629
		c0.284-0.085,1.009-0.302,1.167-0.825c0.227-0.75-0.837-1.723-2.109-2.704c-3.678-2.836-6.839-4.089-6.839-4.089
		c-0.894-0.354-3.169-1.219-7.696-2.209c-3.349-0.732-4.402-0.762-9.446-1.6c-5.613-0.933-8.419-1.399-9.819-1.951
		c-1.737-0.685-6.183-2.438-9.291-6.867c-2.365-3.371-2.825-6.682-3.436-11.077c-0.482-3.468-0.38-6.055-0.239-9.665
		c0.134-3.408,0.274-6.991,1.256-11.587c0.324-1.515,1.499-6.699,4.516-12.946c1.287-2.666,3.299-6.763,7.124-11.302
		c3.503-4.157,6.824-6.664,7.801-7.382c4.599-3.383,8.708-5.005,9.801-5.42c8.309-3.16,15.607-2.521,19.598-2.127
		c5.304,0.523,12.103,1.194,19.001,6.009c1.248,0.871,6.721,4.825,10.547,12.261c3.672,7.137,3.779,13.502,3.891,20.16
		c0.066,3.917,0.12,10.507-2.555,18.402c-1.337,3.947-2.797,8.115-6.501,12.156c-3.112,3.396-6.953,5.768-8.461,6.699
		c-3.836,2.369-4.812,2.197-7.824,4.591c-0.558,0.443-3.16,2.834-5.451,6.903c-0.555,0.985-1.19,3.83-0.909,3.981
		c0.587,0.314,2.226-0.255,2.706-0.671c1.991-1.724,2.073-2.052,3.108-3.144c1.51-1.594,3.283-2.306,6.829-3.729
		c2.795-1.122,5.103-2.049,8.265-2.07c1.504-0.01,4.522-0.03,7.036,1.527c3.18,1.969,3.38,5.115,5.533,11.353
		c2.78,8.056,3.889,6.991,7.762,17.227c2.022,5.343,3.184,9.502,3.869,11.98c2.699,9.753,4.953,17.898,4.827,28.269
		c-0.073,6.076-0.936,10.635-2.607,19.469C293.306,213.967,293.138,214.219,290.293,226.968z"/>
	<path fill="none" stroke="#000000" stroke-width="0.3" stroke-miterlimit="10" d="M314.088,244.788
		c3.135-29.321,4.702-43.981,4.302-53.576c-0.815-19.518-1.222-29.277-6.484-37.611c-3.759-5.953-9.209-11.154-13.048-22.357
		c-2.088-6.092-2.688-11.01-3.046-14.085c-1.845-15.853,2.258-22.719,2.62-36.449c0.087-3.319,0.434-16.502-4.538-27.832
		c-8.898-20.277-35.438-36.001-59.195-32.776c-23.91,3.246-41.755,24.629-45.369,32.869c-0.323,0.736-5.657,2.071-7.836,2.368
		c-2.918,0.397-6.576-1.373-8.818-4.354c-4.785-6.361-11.071-8.599-22.097-12.523c-14.808-5.271-27.43-4.25-33.781-3.668
		c-7.907,0.724-18.635,1.707-30.313,8.474c-3.322,1.925-20.606,12.363-27.685,33.858c-3.827,11.621-3.022,21.464-2.539,26.704
		c0.507,5.511,1.612,16.269,8.287,27.425c5.982,9.999,14.718,17.446,17.303,19.619c4.478,3.765,6.331,4.529,9.225,8.103
		c5.088,6.284,6.382,12.594,7.811,18.373c0,0,2.456,9.934,9.504,29.317c2.123,5.839,6.658,18.079,15.331,30.581
		c9.423,13.583,19.608,21.53,27.389,27.502c14.563,11.178,27.071,16.673,44.362,24.269c10.397,4.568,22.58,9.857,39.612,14.289
		c32.406,8.432,45.329,4.121,50.416,1.989c8.405-3.522,12.82-8.388,13.879-9.599c4.663-5.329,6.538-10.953,8.657-19.275
		C312.636,258.363,314.088,244.788,314.088,244.788z M218.211,266.851c-1.663,1.23-4.066,0.485-7.173-0.478
		c-2.754-0.854-2.532-1.264-4.723-1.833c-3.458-0.898-4.083,0.106-7.013-0.803c-2.423-0.752-2.141-1.483-5.175-2.65
		c-2.929-1.126-3.349-0.504-5.95-1.561c-2.969-1.205-2.666-2.114-5.559-3.362c-3.238-1.397-3.931-0.394-6.894-1.765
		c-1.699-0.786-1.411-1.088-5.41-4.049c-3.191-2.362-4.823-3.553-6.582-4.033c-2.849-0.778-3.475,0.258-5.223-0.774
		c-1.798-1.062-1.45-2.346-4.046-5.37c-1.391-1.621-2.162-2.519-3.53-3.192c-2.612-1.284-3.945-0.05-6.454-1.31
		c-1.212-0.609-1.163-1.029-3.493-3.363c-1.331-1.334-2.778-2.527-5.672-4.914c-5.304-4.376-4.962-3.66-6.205-4.94
		c-1.193-1.228-2.222-2.622-5.555-10.01c-1.292-2.864-2.486-5.522-4.23-9.902c-1.514-3.802-2.668-7.045-4.914-13.375
		c-3.238-9.124-3.645-10.649-3.941-12.894c-0.505-3.835-0.885-7.042,0.757-10.527c1.825-3.874,5.089-5.844,6.585-6.747
		c0.665-0.402,3.929-2.314,8.586-2.719c2.208-0.192,1.455,0.24,9.423,0.876c5.169,0.413,5.445,0.71,6.909,0.87
		c1.667,0.182,5.002,0.494,5.021,0.46c0,0,0.462-0.98,0.081-1.824c-0.607-1.344-2.694-2.556-3.552-2.882
		c-6.229-2.368-9.343-3.551-9.98-3.693c-3.597-0.798-6.22-1.142-11.561-1.79c-12.409-1.505-11.851-1.298-13.388-1.647
		c-2.71-0.615-8.432-1.966-14.524-5.936c-5.161-3.364-8.19-7.044-10.516-9.918c-2.58-3.188-7.234-9.058-9.814-18.121
		c-2.274-7.988-1.813-14.506-1.511-18.296c0.284-3.555,0.794-9.327,3.776-16.161c1.318-3.022,3.707-7.597,7.862-12.22
		c1.75-1.947,5.059-5.567,10.49-8.595c0,0,3.956-2.206,8.858-3.559c27.576-7.609,51.826,5.854,51.827,5.854
		c4.794,2.662,11.91,6.711,18.046,14.966c8.456,11.377,9.478,23.246,9.826,28.006c0.447,6.117,0.91,12.465-2.331,19.439
		c-3.882,8.354-11.264,13.704-13.579,15.382c-6.435,4.663-9.969,5.088-13.014,10.293c-1.593,2.723-2.993,6.134-2.993,6.134
		c0,0-1.193,3.974-0.535,4.331c0.763,0.415,2.402-1.586,4.553-3.594c1.312-1.225,3.025-2.446,6.451-4.889
		c3.26-2.325,4.931-3.504,6.959-4.33c1.644-0.67,3.544-1.444,6.154-1.45c1.035-0.002,4.539,0.11,7.745,2.399
		c1.997,1.426,3.025,3.086,4.736,6.328c3.521,6.671,5.5,10.419,7.609,17.104c1.052,3.332,1.602,5.702,2.544,9.806
		c1.609,7.007,2.145,10.794,3.63,19.295c3.59,20.55,3.795,17.512,4.161,22.645c0.302,4.237,0.433,10.098,2.517,15.729
		c0.707,1.91,2.092,5.021,2.853,6.728c1.886,4.234,2.332,4.842,2.789,5.367c1.477,1.699,2.569,1.965,3.792,4.057
		c0.587,1.004,1.134,1.941,1.102,3.204c-0.046,1.795-1.213,2.264-0.972,3.652c0.248,1.426,1.576,1.49,1.881,2.924
		C219.989,264.504,219.275,266.065,218.211,266.851z M290.293,226.968c-2.573,11.528-2.59,12.013-3.523,15.407
		c0,0-2.769,10.075-8.866,18.92c-0.926,1.344-2.475,3.426-4.848,3.71c-2.26,0.27-4.306-1.206-4.473-1.33
		c-1.525-1.129-1.093-1.854-2.538-2.797c-1.065-0.695-1.484-0.421-4.73-1.386c-1.547-0.46-2.327-0.696-2.653-1.025
		c-1.411-1.424-0.237-3.426-1.613-4.573c-0.742-0.618-1.243-0.169-2.824-1.062c-0.345-0.195-1.142-0.645-1.769-1.372
		c-1.209-1.403-0.727-2.611-1.393-4.345c-0.76-1.978-1.899-1.74-3.706-4.038c-1.173-1.491-0.835-1.772-2.744-5.986
		c-1.86-4.105-2.21-3.903-3.166-6.527c-1.115-3.059-0.651-3.364-1.744-6.039c-0.981-2.4-1.634-2.835-3.18-5.631
		c-1.733-3.133-2.637-5.7-3.353-7.735c-0.372-1.058-1.52-4.419-2.447-9.425c-0.963-5.2-0.526-5.908-1.318-12.145
		c-0.807-6.357-1.961-11.145-2.408-12.921c-0.74-2.942-1.783-7.023-3.851-12.066c-1.619-3.948-1.914-3.727-4.409-9.492
		c-1.974-4.56-2.961-6.84-3.869-9.913c-1.449-4.905-0.985-5.665-2.51-8.72c-1.197-2.398-2.143-3.252-1.919-4.819
		c0.395-2.766,3.949-4.336,4.795-4.71c2.642-1.167,4.976-0.979,8.329-0.708c3.998,0.322,7.258,1.28,8.446,1.653
		c2.27,0.712,4.684,1.06,6.82,2.109c0.627,0.308,2.155,1.1,3.727,0.629c0.284-0.085,1.009-0.302,1.167-0.825
		c0.227-0.75-0.837-1.723-2.109-2.704c-3.678-2.836-6.839-4.089-6.839-4.089c-0.894-0.354-3.169-1.219-7.696-2.209
		c-3.349-0.732-4.402-0.762-9.446-1.6c-5.613-0.933-8.419-1.399-9.819-1.951c-1.737-0.685-6.183-2.438-9.291-6.867
		c-2.365-3.371-2.825-6.682-3.436-11.077c-0.482-3.468-0.381-6.055-0.239-9.665c0.134-3.408,0.274-6.991,1.256-11.587
		c0.324-1.515,1.499-6.699,4.516-12.946c1.287-2.666,3.299-6.763,7.124-11.302c3.503-4.157,6.824-6.664,7.801-7.382
		c4.599-3.383,8.708-5.005,9.801-5.42c8.309-3.16,15.607-2.521,19.598-2.127c5.304,0.523,12.103,1.194,19.001,6.009
		c1.248,0.871,6.721,4.825,10.547,12.261c3.672,7.137,3.779,13.502,3.891,20.16c0.066,3.917,0.12,10.507-2.555,18.402
		c-1.337,3.947-2.797,8.115-6.501,12.156c-3.112,3.396-6.953,5.768-8.461,6.699c-3.836,2.369-4.812,2.197-7.824,4.591
		c-0.558,0.443-3.16,2.834-5.451,6.903c-0.555,0.985-1.19,3.83-0.909,3.981c0.587,0.314,2.226-0.255,2.706-0.671
		c1.991-1.724,2.073-2.052,3.108-3.144c1.51-1.594,3.283-2.306,6.829-3.729c2.795-1.122,5.103-2.049,8.265-2.07
		c1.504-0.01,4.522-0.03,7.036,1.527c3.18,1.969,3.38,5.115,5.533,11.353c2.78,8.056,3.889,6.991,7.762,17.227
		c2.022,5.343,3.184,9.502,3.869,11.98c2.699,9.753,4.953,17.898,4.827,28.269c-0.073,6.076-0.936,10.635-2.607,19.469
		C293.306,213.967,293.138,214.219,290.293,226.968z"/>
	
		<linearGradient id="AV_node_00000032611002923288434010000001975670512914358462_" gradientUnits="userSpaceOnUse" x1="81.5046" y1="309.9301" x2="147.1079" y2="309.9301" gradientTransform="matrix(0.9773 0.212 -0.212 0.9773 149.7229 -183.3785)">
		<stop  offset="0.3883" style="stop-color:#F1F3A2"/>
		<stop  offset="1" style="stop-color:#F1F3A2;stop-opacity:0"/>
	</linearGradient>
	<path id="AV_node" fill="url(#AV_node_00000032611002923288434010000001975670512914358462_)" d="M168.148,117.784
		c-1.949,4.393-1.537,8.213-1.17,11.605c0.287,2.655,0.465,4.107,1.625,4.934c1.707,1.218,3.735-0.209,7.598-0.238
		c1.595-0.012,2.403,0.222,7.207,1.564c12.134,3.388,13.408,3.687,15.568,5.264c1.9,1.387,4.138,3.068,4.915,5.918
		c0.43,1.576,0.028,2.1-0.109,6.714c-0.076,2.548,0.061,1.909,0.092,7.028c0.036,5.822-0.137,7.3,0.955,8.023
		c0.983,0.652,2.62,0.446,3.312-0.359c0.557-0.649,0.392-1.56,0.234-2.734c-0.276-2.056-0.29-4.139-0.45-6.207
		c-0.193-2.492,0.05-2.179-0.081-6.666c-0.111-3.791-0.304-4.7-0.043-4.771c0.735-0.2,3.268,6.737,5.261,12.192
		c0.583,1.596,1.27,3.481,2.106,6.027c1.521,4.628,2.281,6.942,2.39,7.616c0.315,1.946,0.258,3.059,1.113,3.566
		c1.109,0.658,3.168-0.05,3.584-1.199c0.304-0.838-0.326-1.747-0.669-2.301c-1.526-2.467-0.988-3.751-2.051-8.351
		c-0.664-2.871-1.656-5.292-3.641-10.134c-2.201-5.368-3.301-8.052-5.294-11.211c-0.632-1.002-3.043-4.741-7.158-8.83
		c-2.897-2.88-5.303-5.271-9.198-7.296c-5.931-3.084-7.723-3.742-7.723-3.742c-2.143-0.786-3.811-1.199-4.451-2.673
		c-0.578-1.33,0.347-1.993,0.103-4.2c-0.061-0.548-0.351-3.177-2.52-4.949c-0.135-0.111-2.5-1.984-5.35-1.43
		C170.888,111.608,169.261,115.276,168.148,117.784z"/>
	<path id="SA_node" fill="#F1F3A2" stroke="#000000" stroke-width="0.3" stroke-miterlimit="10" d="M82.378,55.63
		c1.188-1.225,4.742-4.889,9.093-4.226c0.552,0.084,2.966,0.452,4.164,2.341c1.226,1.934,0.451,4.317-0.478,7.173
		c-1.066,3.279-2.697,5.414-3.198,6.044c-1.533,1.929-3.35,4.215-6.47,4.975c-0.887,0.216-3.749,0.913-5.689-0.695
		c-2.076-1.721-1.751-4.967-1.558-6.897C78.712,59.629,81.51,56.524,82.378,55.63z"/>
	<path fill="none" stroke="#000000" stroke-width="0.3" stroke-miterlimit="10" d="M177.457,132.331
		c2.917-1.872,4.494-10.227,4.494-10.227c0.147-1.471,0.099-2.606,0.222-4.781c0.031-0.55-0.351-3.177-2.52-4.949
		c-0.135-0.111-2.5-1.984-5.35-1.43c-3.416,0.664-5.043,4.332-6.156,6.84c-1.949,4.393-1.537,8.213-1.17,11.605
		c0.287,2.655,0.465,4.107,1.625,4.934C170.309,135.542,174.205,134.418,177.457,132.331z"/>
</g>
<g id="labels">
	<g>
		<path d="M231.924,87.958h-12.831v-0.453c1.765-0.095,2.075-0.477,2.075-2.29V74.936c0-1.836-0.215-2.17-2.075-2.313v-0.453h6.75
			v0.453c-1.956,0.12-2.242,0.43-2.242,2.266v11.066c0,0.906,0.405,1.073,2.146,1.073h1.669c1.932,0,3.22-0.429,4.03-1.455
			c0.31-0.406,0.62-0.93,1.002-1.765h0.62L231.924,87.958z"/>
		<path d="M244.137,87.958v-0.453c0.859,0,1.026-0.048,1.312-0.215c0.191-0.095,0.334-0.357,0.334-0.572
			c0-0.358-0.167-1.001-0.453-1.669l-0.978-2.242h-6.249l-1.097,2.719c-0.119,0.31-0.215,0.715-0.215,1.001
			c0,0.74,0.525,0.978,1.67,0.978v0.453h-4.746v-0.453c1.383-0.143,1.598-0.644,3.005-3.983l4.913-11.639h0.477l5.867,13.427
			c0.668,1.55,1.002,2.051,2.242,2.194v0.453H244.137z M241.251,75.27l-2.743,6.559h5.509L241.251,75.27z"/>
	</g>
	<g>
		<path d="M118.652,108.503l-5.676-7.346l-1.335,0.048v4.627c0,1.812,0.286,2.099,2.123,2.218v0.453h-6.583v-0.453
			c1.789-0.143,2.027-0.405,2.027-2.504V95.362c0-1.765-0.191-2.051-2.027-2.194v-0.453h6.487c2.266,0,3.959,0.573,4.984,1.407
			c0.787,0.644,1.169,1.812,1.169,2.862c0,2.075-1.336,3.458-4.317,3.912l4.77,6.034c0.691,0.883,1.192,1.026,2.242,1.121v0.453
			H118.652z M111.64,100.323c2.29-0.048,3.125-0.215,4.221-0.811c0.859-0.477,1.36-1.526,1.36-2.719
			c0-2.146-1.407-3.196-4.365-3.196c-0.811,0-1.216,0.167-1.216,1.001V100.323z"/>
		<path d="M133.464,108.503v-0.453c0.859,0,1.026-0.048,1.312-0.215c0.191-0.095,0.334-0.357,0.334-0.572
			c0-0.358-0.167-1.001-0.453-1.669l-0.978-2.242h-6.249l-1.097,2.719c-0.119,0.31-0.214,0.715-0.214,1.001
			c0,0.74,0.524,0.978,1.669,0.978v0.453h-4.746v-0.453c1.383-0.143,1.598-0.644,3.005-3.983l4.913-11.639h0.477l5.867,13.427
			c0.668,1.55,1.002,2.051,2.242,2.194v0.453H133.464z M130.578,95.815l-2.743,6.559h5.509L130.578,95.815z"/>
	</g>
	<g>
		<path d="M160.796,211.052l-5.676-7.346l-1.335,0.048v4.627c0,1.812,0.286,2.099,2.123,2.218v0.453h-6.583v-0.453
			c1.789-0.143,2.027-0.405,2.027-2.504v-10.184c0-1.765-0.191-2.051-2.027-2.194v-0.453h6.487c2.266,0,3.959,0.573,4.984,1.407
			c0.787,0.644,1.169,1.812,1.169,2.862c0,2.075-1.336,3.458-4.317,3.912l4.77,6.034c0.691,0.883,1.192,1.026,2.242,1.121v0.453
			H160.796z M153.784,202.872c2.29-0.048,3.125-0.215,4.221-0.811c0.859-0.477,1.36-1.526,1.36-2.719
			c0-2.146-1.407-3.196-4.365-3.196c-0.811,0-1.216,0.167-1.216,1.001V202.872z"/>
		<path d="M179.901,195.717c-0.954,0.024-1.502,0.406-2.194,2.17l-5.294,13.427h-0.357l-5.819-12.974
			c-1.026-2.313-1.383-2.6-2.576-2.624v-0.453h6.32v0.453l-0.668,0.048c-0.763,0.048-1.073,0.262-1.073,0.739
			c0,0.382,0.215,0.954,0.93,2.552l3.625,8.156l3.506-8.8c0.286-0.715,0.453-1.312,0.453-1.717c0-0.93-0.763-0.882-1.717-0.978
			v-0.453h4.865V195.717z"/>
	</g>
	<g>
		<path d="M264.761,194.195H251.93v-0.453c1.765-0.095,2.075-0.477,2.075-2.29v-10.279c0-1.836-0.215-2.17-2.075-2.313v-0.453h6.75
			v0.453c-1.956,0.12-2.242,0.43-2.242,2.266v11.066c0,0.906,0.405,1.073,2.146,1.073h1.669c1.932,0,3.22-0.429,4.03-1.455
			c0.31-0.406,0.62-0.93,1.002-1.765h0.62L264.761,194.195z"/>
		<path d="M281.076,178.86c-0.954,0.024-1.502,0.406-2.194,2.17l-5.294,13.427h-0.357l-5.819-12.974
			c-1.026-2.313-1.383-2.6-2.576-2.624v-0.453h6.32v0.453l-0.668,0.048c-0.763,0.048-1.073,0.262-1.073,0.739
			c0,0.382,0.215,0.954,0.93,2.552l3.625,8.156l3.506-8.8c0.286-0.715,0.453-1.312,0.453-1.717c0-0.93-0.763-0.882-1.717-0.978
			v-0.453h4.865V178.86z"/>
	</g>
	<g>
		<path fill="#0000FF" d="M62.401,8.139c2.385,0,4.102,0.597,5.175,1.503c0.787,0.667,1.192,1.646,1.192,2.838
			c0,1.264-0.477,2.337-1.359,3.125c-1.383,1.24-2.552,1.455-5.104,1.455c-0.62,0-1.002-0.024-1.646-0.072v4.27
			c0,1.812,0.31,2.123,2.242,2.218v0.453h-6.678v-0.453c1.86-0.143,2.003-0.405,2.003-2.457V10.786c0-1.765-0.238-2.051-2.003-2.194
			V8.139H62.401z M60.659,16.033c0.549,0.047,0.978,0.071,1.455,0.071c2.624,0,4.054-1.359,4.054-3.506
			c0-2.624-1.431-3.577-4.674-3.577c-0.692,0-0.835,0.214-0.835,0.858V16.033z"/>
		<path fill="#0000FF" d="M79.431,23.021c-0.715,0.906-1.335,1.145-2.146,1.145c-0.882,0-1.407-0.477-1.526-1.741h-0.024
			c-1.264,1.431-2.433,1.741-3.458,1.741c-1.479,0-2.504-0.906-2.504-2.48c0-1.24,0.739-2.17,1.669-2.791
			c0.716-0.477,1.598-0.93,4.293-1.932v-1.288c0-1.479-0.787-2.146-1.86-2.146c-0.954,0-1.669,0.525-1.669,1.168
			c0,0.43,0.143,0.501,0.143,1.002c0,0.453-0.477,0.978-1.097,0.978c-0.501,0-1.026-0.454-1.026-1.097
			c0-0.62,0.382-1.383,1.216-1.908c0.668-0.429,1.669-0.715,2.743-0.715c1.336,0,2.242,0.381,2.814,1.073
			c0.572,0.691,0.667,1.192,0.667,2.647v4.555c0,1.097,0.31,1.574,0.74,1.574c0.381,0,0.62-0.119,1.025-0.453V23.021z
			 M75.734,17.536c-1.479,0.524-2.457,1.025-3.053,1.574c-0.572,0.524-0.811,1.097-0.811,1.836c0,1.264,0.716,1.836,1.646,1.836
			c0.477,0,0.978-0.12,1.383-0.382c0.691-0.477,0.834-0.811,0.834-1.502V17.536z"/>
		<path fill="#0000FF" d="M89.305,20.422c-0.763,1.479-1.24,2.17-1.956,2.743c-0.811,0.668-1.717,1.001-2.743,1.001
			c-2.647,0-4.531-2.218-4.531-5.294c0-1.979,0.715-3.625,2.003-4.698c0.954-0.787,2.099-1.216,3.22-1.216
			c2.003,0,3.673,1.121,3.673,2.457c0,0.548-0.501,1.001-1.121,1.001c-0.524,0-0.954-0.405-1.145-1.097l-0.143-0.524
			c-0.239-0.882-0.549-1.145-1.407-1.145c-1.932,0-3.244,1.669-3.244,4.15c0,2.743,1.502,4.651,3.697,4.651
			c1.359,0,2.218-0.573,3.363-2.242L89.305,20.422z"/>
		<path fill="#0000FF" d="M100.181,20.183c-0.93,2.6-2.6,3.982-4.985,3.982c-2.814,0-4.531-2.123-4.531-5.414
			c0-3.363,1.932-5.795,4.937-5.795c1.479,0,2.552,0.572,3.315,1.646c0.477,0.668,0.715,1.431,0.811,2.719h-7.346
			c0.119,1.812,0.238,2.743,1.097,3.888c0.667,0.882,1.55,1.312,2.647,1.312c1.598,0,2.504-0.739,3.673-2.504L100.181,20.183z
			 M97.296,16.558c-0.263-1.932-0.763-2.743-2.337-2.743c-1.335,0-2.266,0.954-2.528,2.743H97.296z"/>
		<path fill="#0000FF" d="M113.943,23.927V23.57c1.335-0.143,1.55-0.405,1.55-1.789v-4.913c0-1.884-0.477-2.671-1.836-2.671
			c-1.121,0-1.836,0.429-2.552,1.455v6.01c0,1.55,0.357,1.884,1.717,1.908v0.358h-5.342V23.57c1.359-0.095,1.622-0.238,1.622-1.693
			v-5.032c0-1.646-0.525-2.647-1.55-2.647c-0.882,0-2.051,0.453-2.528,1.025c-0.167,0.191-0.31,0.358-0.31,0.405v6.63
			c0,1.025,0.358,1.264,1.622,1.312v0.358h-5.294V23.57c1.335-0.024,1.669-0.357,1.669-1.741v-5.915
			c0-1.168-0.215-1.574-0.835-1.574c-0.262,0-0.453,0.024-0.763,0.095V14.03c1.312-0.358,2.099-0.62,3.315-1.073l0.191,0.071v1.765
			h0.048c1.574-1.622,2.576-1.836,3.649-1.836c1.288,0,2.099,0.644,2.528,2.003c1.288-1.383,2.504-2.003,3.888-2.003
			c1.932,0,2.767,1.479,2.767,4.293v4.841c0,1.073,0.31,1.383,1.025,1.431l0.62,0.047v0.358H113.943z"/>
		<path fill="#0000FF" d="M129.758,23.021c-0.715,0.906-1.335,1.145-2.146,1.145c-0.882,0-1.407-0.477-1.526-1.741h-0.024
			c-1.264,1.431-2.433,1.741-3.458,1.741c-1.479,0-2.504-0.906-2.504-2.48c0-1.24,0.739-2.17,1.669-2.791
			c0.716-0.477,1.598-0.93,4.293-1.932v-1.288c0-1.479-0.787-2.146-1.86-2.146c-0.954,0-1.669,0.525-1.669,1.168
			c0,0.43,0.143,0.501,0.143,1.002c0,0.453-0.477,0.978-1.097,0.978c-0.501,0-1.026-0.454-1.026-1.097
			c0-0.62,0.382-1.383,1.216-1.908c0.668-0.429,1.669-0.715,2.743-0.715c1.336,0,2.242,0.381,2.814,1.073
			c0.572,0.691,0.668,1.192,0.668,2.647v4.555c0,1.097,0.31,1.574,0.739,1.574c0.381,0,0.62-0.119,1.025-0.453V23.021z
			 M126.061,17.536c-1.479,0.524-2.457,1.025-3.053,1.574c-0.572,0.524-0.811,1.097-0.811,1.836c0,1.264,0.716,1.836,1.646,1.836
			c0.477,0,0.978-0.12,1.383-0.382c0.691-0.477,0.834-0.811,0.834-1.502V17.536z"/>
		<path fill="#0000FF" d="M136.651,23.927V23.57h0.453c0.286,0,0.501-0.143,0.501-0.357c0-0.12-0.072-0.31-0.262-0.549l-3.578-4.722
			v4.388c0,0.835,0.358,1.169,1.312,1.216l0.477,0.024v0.358h-5.581V23.57c1.717-0.286,1.789-0.357,1.789-1.598V10.476
			c0-1.145-0.214-1.455-1.025-1.455c-0.239,0-0.453,0.024-0.763,0.047V8.688l0.715-0.191c1.431-0.381,2.051-0.572,2.981-0.858
			l0.095,0.047v10.017l3.268-2.91c0.333-0.31,0.548-0.62,0.548-0.835c0-0.31-0.262-0.405-1.192-0.429v-0.334h4.865v0.358
			c-1.526,0-2.218,0.286-5.151,3.005l-0.692,0.644l3.649,4.627c0.978,1.24,1.741,1.669,2.791,1.741v0.358H136.651z"/>
		<path fill="#0000FF" d="M151.534,20.183c-0.93,2.6-2.6,3.982-4.985,3.982c-2.814,0-4.531-2.123-4.531-5.414
			c0-3.363,1.932-5.795,4.937-5.795c1.479,0,2.552,0.572,3.315,1.646c0.477,0.668,0.715,1.431,0.811,2.719h-7.346
			c0.119,1.812,0.238,2.743,1.097,3.888c0.667,0.882,1.55,1.312,2.647,1.312c1.598,0,2.504-0.739,3.673-2.504L151.534,20.183z
			 M148.649,16.558c-0.263-1.932-0.763-2.743-2.337-2.743c-1.335,0-2.266,0.954-2.528,2.743H148.649z"/>
		<path fill="#0000FF" d="M155.828,15.198c1.192-1.717,1.86-2.242,2.862-2.242c0.811,0,1.312,0.477,1.312,1.264
			c0,0.667-0.358,1.073-0.93,1.073c-0.31,0-0.573-0.12-0.954-0.477c-0.262-0.239-0.477-0.358-0.62-0.358
			c-0.668,0-1.669,1.192-1.669,1.956v5.366c0,1.359,0.405,1.717,2.027,1.789v0.358h-5.724V23.57
			c1.526-0.286,1.693-0.453,1.693-1.646v-5.962c0-1.049-0.214-1.431-0.811-1.431c-0.286,0-0.5,0.023-0.834,0.095v-0.382
			c1.407-0.453,2.266-0.787,3.53-1.288l0.119,0.048V15.198z"/>
	</g>
	<g>
		<g>
			<path fill="none" stroke="#0000FF" stroke-width="0.3975" stroke-miterlimit="10" d="M53.517,19.345
				c-22.242,0-11.641,33.181,29.641,42.866"/>
			<g>
				<polygon fill="#0000FF" points="81.744,63.373 82.685,62.079 82.406,60.504 85.475,62.723 				"/>
			</g>
		</g>
	</g>
	<g>
		<g>
			<path fill="none" stroke="#0000FF" stroke-width="0.3975" stroke-miterlimit="10" d="M35.658,261.976
				c-53.824,1.038,79.506-133.141,134.473-140.035"/>
			<g>
				<polygon fill="#0000FF" points="169.165,123.532 169.641,122.005 168.872,120.603 172.491,121.721 				"/>
			</g>
		</g>
	</g>
	<g>
		<path fill="#0000FF" d="M47.559,267.495v-0.453c0.859,0,1.026-0.048,1.312-0.215c0.191-0.095,0.334-0.357,0.334-0.572
			c0-0.358-0.167-1.001-0.453-1.669l-0.978-2.242h-6.249l-1.097,2.719c-0.119,0.31-0.215,0.715-0.215,1.001
			c0,0.74,0.525,0.978,1.67,0.978v0.453h-4.746v-0.453c1.383-0.143,1.598-0.644,3.005-3.983l4.913-11.639h0.477l5.867,13.427
			c0.668,1.55,1.002,2.051,2.242,2.194v0.453H47.559z M44.674,254.807l-2.743,6.559h5.509L44.674,254.807z"/>
		<path fill="#0000FF" d="M68.644,252.159c-0.954,0.024-1.502,0.406-2.194,2.17l-5.294,13.427h-0.357l-5.819-12.974
			c-1.026-2.313-1.383-2.6-2.576-2.624v-0.453h6.32v0.453l-0.668,0.048c-0.763,0.048-1.073,0.262-1.073,0.739
			c0,0.382,0.215,0.954,0.93,2.552l3.625,8.156l3.506-8.8c0.286-0.715,0.453-1.312,0.453-1.717c0-0.93-0.763-0.882-1.717-0.978
			v-0.453h4.865V252.159z"/>
		<path fill="#0000FF" d="M81.811,267.495l0.024-0.358c1.192-0.095,1.479-0.572,1.479-2.146v-4.746c0-1.693-0.572-2.409-1.741-2.409
			c-0.787,0-1.359,0.286-2.457,1.359v6.583c0,0.93,0.334,1.264,1.55,1.359v0.358h-5.032v-0.358c1.216-0.095,1.479-0.477,1.479-1.884
			v-5.795c0-1.169-0.167-1.55-0.834-1.55c-0.262,0-0.525,0.024-0.692,0.095v-0.405c1.312-0.382,2.099-0.644,3.268-1.073l0.191,0.071
			v1.86h0.024c1.24-1.407,2.337-1.932,3.434-1.932c1.812,0,2.814,1.312,2.814,3.673v5.271c0,1.288,0.286,1.55,1.455,1.669v0.358
			H81.811z"/>
		<path fill="#0000FF" d="M92.974,267.733c-2.886,0-5.152-2.361-5.152-5.676c0-3.315,2.146-5.533,5.366-5.533
			c2.91,0,5.152,2.17,5.152,5.461C98.34,265.301,96.194,267.733,92.974,267.733z M95.001,258.385
			c-0.572-0.716-1.24-1.192-2.266-1.192c-1.646,0-2.767,1.407-2.767,3.792c0,1.884,0.382,3.601,1.264,4.889
			c0.525,0.763,1.288,1.192,2.146,1.192c1.765,0,2.814-1.669,2.814-4.436C96.194,261.008,95.764,259.362,95.001,258.385z"/>
		<path fill="#0000FF" d="M107.261,267.733l-0.095-0.071v-1.526c-0.811,1.121-1.717,1.598-3.053,1.598
			c-2.647,0-4.412-2.075-4.412-5.127c0-3.387,2.218-6.082,4.96-6.082c0.954,0,1.598,0.262,2.504,1.025v-3.72
			c0-0.978-0.215-1.216-1.097-1.216c-0.191,0-0.334,0-0.525,0.023v-0.381c1.526-0.406,2.361-0.644,3.506-1.049l0.119,0.047v13.523
			c0,1.097,0.191,1.359,1.049,1.359c0.119,0,0.143,0,0.548-0.024v0.382L107.261,267.733z M107.166,259.577
			c0-1.264-1.145-2.385-2.433-2.385c-1.812,0-2.981,1.765-2.981,4.459c0,2.934,1.288,4.842,3.292,4.842
			c0.739,0,1.335-0.263,1.765-0.763c0.215-0.239,0.358-0.501,0.358-0.668V259.577z"/>
		<path fill="#0000FF" d="M121.096,263.751c-0.93,2.6-2.6,3.982-4.985,3.982c-2.814,0-4.531-2.123-4.531-5.414
			c0-3.363,1.932-5.795,4.937-5.795c1.479,0,2.552,0.572,3.315,1.646c0.477,0.668,0.715,1.431,0.811,2.719h-7.346
			c0.119,1.812,0.238,2.743,1.097,3.888c0.667,0.882,1.55,1.312,2.647,1.312c1.598,0,2.504-0.739,3.673-2.504L121.096,263.751z
			 M118.21,260.125c-0.263-1.932-0.763-2.743-2.337-2.743c-1.335,0-2.266,0.954-2.528,2.743H118.21z"/>
	</g>
	<g>
	</g>
</g>
</svg>
