<?xml version="1.0" encoding="utf-8"?>
<!-- Generator: Adobe Illustrator 26.0.1, SVG Export Plug-In . SVG Version: 6.00 Build 0)  -->
<svg version="1.1" xmlns="http://www.w3.org/2000/svg" xmlns:xlink="http://www.w3.org/1999/xlink" x="0px" y="0px"
	 viewBox="0 0 253.252 186.704" enable-background="new 0 0 253.252 186.704" xml:space="preserve">
<g id="Layer_8" opacity="0.5">
	<g id="Clipped_grid">
		<defs>
			<rect id="SVGID_1_" x="-10.307" y="-8.834" width="272.393" height="202.601"/>
		</defs>
		<clipPath id="SVGID_00000183938223295889203120000005159744466721354132_">
			<use xlink:href="#SVGID_1_"  overflow="visible"/>
		</clipPath>
		
			<g id="Grid_00000060005542146034257920000005065612243763103930_" opacity="0.25" clip-path="url(#SVGID_00000183938223295889203120000005159744466721354132_)">
			<g id="Horizontal_1_mm">
				
					<line fill="none" stroke="#00ABEB" stroke-width="0.2111" stroke-miterlimit="10" x1="-147.46" y1="-224.173" x2="654.499" y2="-224.173"/>
				
					<line fill="none" stroke="#00ABEB" stroke-width="0.2111" stroke-miterlimit="10" x1="-147.46" y1="-234.196" x2="654.499" y2="-234.196"/>
				
					<line fill="none" stroke="#00ABEB" stroke-width="0.2111" stroke-miterlimit="10" x1="-147.46" y1="367.091" x2="654.499" y2="367.091"/>
				
					<line fill="none" stroke="#00ABEB" stroke-width="0.2111" stroke-miterlimit="10" x1="-147.46" y1="357.069" x2="654.499" y2="357.069"/>
				
					<line fill="none" stroke="#00ABEB" stroke-width="0.2111" stroke-miterlimit="10" x1="-147.46" y1="347.05" x2="654.499" y2="347.05"/>
				
					<line fill="none" stroke="#00ABEB" stroke-width="0.2111" stroke-miterlimit="10" x1="-147.46" y1="337.027" x2="654.499" y2="337.027"/>
				
					<line fill="none" stroke="#00ABEB" stroke-width="0.2111" stroke-miterlimit="10" x1="-147.46" y1="327.005" x2="654.499" y2="327.005"/>
				
					<line fill="none" stroke="#00ABEB" stroke-width="0.2111" stroke-miterlimit="10" x1="-147.46" y1="316.985" x2="654.499" y2="316.985"/>
				
					<line fill="none" stroke="#00ABEB" stroke-width="0.2111" stroke-miterlimit="10" x1="-147.46" y1="306.963" x2="654.499" y2="306.963"/>
				
					<line fill="none" stroke="#00ABEB" stroke-width="0.2111" stroke-miterlimit="10" x1="-147.46" y1="296.944" x2="654.499" y2="296.944"/>
				
					<line fill="none" stroke="#00ABEB" stroke-width="0.2111" stroke-miterlimit="10" x1="-147.46" y1="286.919" x2="654.499" y2="286.919"/>
				
					<line fill="none" stroke="#00ABEB" stroke-width="0.2111" stroke-miterlimit="10" x1="-147.46" y1="276.897" x2="654.499" y2="276.897"/>
				
					<line fill="none" stroke="#00ABEB" stroke-width="0.2111" stroke-miterlimit="10" x1="-147.46" y1="266.878" x2="654.499" y2="266.878"/>
				
					<line fill="none" stroke="#00ABEB" stroke-width="0.2111" stroke-miterlimit="10" x1="-147.46" y1="256.855" x2="654.499" y2="256.855"/>
				
					<line fill="none" stroke="#00ABEB" stroke-width="0.2111" stroke-miterlimit="10" x1="-147.46" y1="246.833" x2="654.499" y2="246.833"/>
				
					<line fill="none" stroke="#00ABEB" stroke-width="0.2111" stroke-miterlimit="10" x1="-147.46" y1="236.814" x2="654.499" y2="236.814"/>
				
					<line fill="none" stroke="#00ABEB" stroke-width="0.2111" stroke-miterlimit="10" x1="-147.46" y1="226.791" x2="654.499" y2="226.791"/>
				
					<line fill="none" stroke="#00ABEB" stroke-width="0.2111" stroke-miterlimit="10" x1="-147.46" y1="216.769" x2="654.499" y2="216.769"/>
				
					<line fill="none" stroke="#00ABEB" stroke-width="0.2111" stroke-miterlimit="10" x1="-147.46" y1="206.75" x2="654.499" y2="206.75"/>
				
					<line fill="none" stroke="#00ABEB" stroke-width="0.2111" stroke-miterlimit="10" x1="-147.46" y1="196.727" x2="654.499" y2="196.727"/>
				
					<line fill="none" stroke="#00ABEB" stroke-width="0.2111" stroke-miterlimit="10" x1="-147.46" y1="186.704" x2="654.499" y2="186.704"/>
				
					<line fill="none" stroke="#00ABEB" stroke-width="0.2111" stroke-miterlimit="10" x1="-147.46" y1="176.686" x2="654.499" y2="176.686"/>
				
					<line fill="none" stroke="#00ABEB" stroke-width="0.2111" stroke-miterlimit="10" x1="-147.46" y1="166.663" x2="654.499" y2="166.663"/>
				
					<line fill="none" stroke="#00ABEB" stroke-width="0.2111" stroke-miterlimit="10" x1="-147.46" y1="156.639" x2="654.499" y2="156.639"/>
				
					<line fill="none" stroke="#00ABEB" stroke-width="0.2111" stroke-miterlimit="10" x1="-147.46" y1="146.62" x2="654.499" y2="146.62"/>
				
					<line fill="none" stroke="#00ABEB" stroke-width="0.2111" stroke-miterlimit="10" x1="-147.46" y1="136.597" x2="654.499" y2="136.597"/>
				
					<line fill="none" stroke="#00ABEB" stroke-width="0.2111" stroke-miterlimit="10" x1="-147.46" y1="126.578" x2="654.499" y2="126.578"/>
				
					<line fill="none" stroke="#00ABEB" stroke-width="0.2111" stroke-miterlimit="10" x1="-147.46" y1="116.555" x2="654.499" y2="116.555"/>
				
					<line fill="none" stroke="#00ABEB" stroke-width="0.2111" stroke-miterlimit="10" x1="-147.46" y1="106.533" x2="654.499" y2="106.533"/>
				
					<line fill="none" stroke="#00ABEB" stroke-width="0.2111" stroke-miterlimit="10" x1="-147.46" y1="96.514" x2="654.499" y2="96.514"/>
				
					<line fill="none" stroke="#00ABEB" stroke-width="0.2111" stroke-miterlimit="10" x1="-147.46" y1="86.491" x2="654.499" y2="86.491"/>
				
					<line fill="none" stroke="#00ABEB" stroke-width="0.2111" stroke-miterlimit="10" x1="-147.46" y1="76.469" x2="654.499" y2="76.469"/>
				
					<line fill="none" stroke="#00ABEB" stroke-width="0.2111" stroke-miterlimit="10" x1="-147.46" y1="66.45" x2="654.499" y2="66.45"/>
				
					<line fill="none" stroke="#00ABEB" stroke-width="0.2111" stroke-miterlimit="10" x1="-147.46" y1="56.427" x2="654.499" y2="56.427"/>
				
					<line fill="none" stroke="#00ABEB" stroke-width="0.2111" stroke-miterlimit="10" x1="-147.46" y1="46.405" x2="654.499" y2="46.405"/>
				
					<line fill="none" stroke="#00ABEB" stroke-width="0.2111" stroke-miterlimit="10" x1="-147.46" y1="36.385" x2="654.499" y2="36.385"/>
				
					<line fill="none" stroke="#00ABEB" stroke-width="0.2111" stroke-miterlimit="10" x1="-147.46" y1="26.363" x2="654.499" y2="26.363"/>
				
					<line fill="none" stroke="#00ABEB" stroke-width="0.2111" stroke-miterlimit="10" x1="-147.46" y1="16.34" x2="654.499" y2="16.34"/>
				
					<line fill="none" stroke="#00ABEB" stroke-width="0.2111" stroke-miterlimit="10" x1="-147.46" y1="6.321" x2="654.499" y2="6.321"/>
				
					<line fill="none" stroke="#00ABEB" stroke-width="0.2111" stroke-miterlimit="10" x1="-147.46" y1="-3.701" x2="654.499" y2="-3.701"/>
				
					<line fill="none" stroke="#00ABEB" stroke-width="0.2111" stroke-miterlimit="10" x1="-147.46" y1="-13.724" x2="654.499" y2="-13.724"/>
				
					<line fill="none" stroke="#00ABEB" stroke-width="0.2111" stroke-miterlimit="10" x1="-147.46" y1="-23.743" x2="654.499" y2="-23.743"/>
				
					<line fill="none" stroke="#00ABEB" stroke-width="0.2111" stroke-miterlimit="10" x1="-147.46" y1="-33.767" x2="654.499" y2="-33.767"/>
				
					<line fill="none" stroke="#00ABEB" stroke-width="0.2111" stroke-miterlimit="10" x1="-147.46" y1="-43.786" x2="654.499" y2="-43.786"/>
				
					<line fill="none" stroke="#00ABEB" stroke-width="0.2111" stroke-miterlimit="10" x1="-147.46" y1="-53.809" x2="654.499" y2="-53.809"/>
				
					<line fill="none" stroke="#00ABEB" stroke-width="0.2111" stroke-miterlimit="10" x1="-147.46" y1="-63.832" x2="654.499" y2="-63.832"/>
				
					<line fill="none" stroke="#00ABEB" stroke-width="0.2111" stroke-miterlimit="10" x1="-147.46" y1="-73.85" x2="654.499" y2="-73.85"/>
				
					<line fill="none" stroke="#00ABEB" stroke-width="0.2111" stroke-miterlimit="10" x1="-147.46" y1="-83.873" x2="654.499" y2="-83.873"/>
				
					<line fill="none" stroke="#00ABEB" stroke-width="0.2111" stroke-miterlimit="10" x1="-147.46" y1="-93.896" x2="654.499" y2="-93.896"/>
				
					<line fill="none" stroke="#00ABEB" stroke-width="0.2111" stroke-miterlimit="10" x1="-147.46" y1="-103.915" x2="654.499" y2="-103.915"/>
				
					<line fill="none" stroke="#00ABEB" stroke-width="0.2111" stroke-miterlimit="10" x1="-147.46" y1="-113.937" x2="654.499" y2="-113.937"/>
				
					<line fill="none" stroke="#00ABEB" stroke-width="0.2111" stroke-miterlimit="10" x1="-147.46" y1="-123.96" x2="654.499" y2="-123.96"/>
				
					<line fill="none" stroke="#00ABEB" stroke-width="0.2111" stroke-miterlimit="10" x1="-147.46" y1="-133.979" x2="654.499" y2="-133.979"/>
				
					<line fill="none" stroke="#00ABEB" stroke-width="0.2111" stroke-miterlimit="10" x1="-147.46" y1="-144.001" x2="654.499" y2="-144.001"/>
				
					<line fill="none" stroke="#00ABEB" stroke-width="0.2111" stroke-miterlimit="10" x1="-147.46" y1="-154.024" x2="654.499" y2="-154.024"/>
				
					<line fill="none" stroke="#00ABEB" stroke-width="0.2111" stroke-miterlimit="10" x1="-147.46" y1="-164.043" x2="654.499" y2="-164.043"/>
				
					<line fill="none" stroke="#00ABEB" stroke-width="0.2111" stroke-miterlimit="10" x1="-147.46" y1="-174.067" x2="654.499" y2="-174.067"/>
				
					<line fill="none" stroke="#00ABEB" stroke-width="0.2111" stroke-miterlimit="10" x1="-147.46" y1="-184.086" x2="654.499" y2="-184.086"/>
				
					<line fill="none" stroke="#00ABEB" stroke-width="0.2111" stroke-miterlimit="10" x1="-147.46" y1="-194.109" x2="654.499" y2="-194.109"/>
				
					<line fill="none" stroke="#00ABEB" stroke-width="0.2111" stroke-miterlimit="10" x1="-147.46" y1="-204.131" x2="654.499" y2="-204.131"/>
				
					<line fill="none" stroke="#00ABEB" stroke-width="0.2111" stroke-miterlimit="10" x1="-147.46" y1="-214.151" x2="654.499" y2="-214.151"/>
			</g>
			<g id="Vertical_1_mm">
				<g>
					
						<line fill="none" stroke="#00ABEB" stroke-width="0.2111" stroke-miterlimit="10" x1="-147.194" y1="367.043" x2="-147.194" y2="-234.461"/>
				</g>
				
					<line fill="none" stroke="#00ABEB" stroke-width="0.2111" stroke-miterlimit="10" x1="-137.175" y1="367.043" x2="-137.175" y2="-234.461"/>
				
					<line fill="none" stroke="#00ABEB" stroke-width="0.2111" stroke-miterlimit="10" x1="-127.152" y1="367.043" x2="-127.152" y2="-234.461"/>
				
					<line fill="none" stroke="#00ABEB" stroke-width="0.2111" stroke-miterlimit="10" x1="-117.13" y1="367.043" x2="-117.13" y2="-234.461"/>
				
					<line fill="none" stroke="#00ABEB" stroke-width="0.2111" stroke-miterlimit="10" x1="-107.111" y1="367.043" x2="-107.111" y2="-234.461"/>
				
					<line fill="none" stroke="#00ABEB" stroke-width="0.2111" stroke-miterlimit="10" x1="-97.088" y1="367.043" x2="-97.088" y2="-234.461"/>
				
					<line fill="none" stroke="#00ABEB" stroke-width="0.2111" stroke-miterlimit="10" x1="-87.065" y1="367.043" x2="-87.065" y2="-234.461"/>
				
					<line fill="none" stroke="#00ABEB" stroke-width="0.2111" stroke-miterlimit="10" x1="-77.047" y1="367.043" x2="-77.047" y2="-234.461"/>
				
					<line fill="none" stroke="#00ABEB" stroke-width="0.2111" stroke-miterlimit="10" x1="-67.022" y1="367.043" x2="-67.022" y2="-234.461"/>
				
					<line fill="none" stroke="#00ABEB" stroke-width="0.2111" stroke-miterlimit="10" x1="-57.003" y1="367.043" x2="-57.003" y2="-234.461"/>
				
					<line fill="none" stroke="#00ABEB" stroke-width="0.2111" stroke-miterlimit="10" x1="-46.981" y1="367.043" x2="-46.981" y2="-234.461"/>
				
					<line fill="none" stroke="#00ABEB" stroke-width="0.2111" stroke-miterlimit="10" x1="-36.958" y1="367.043" x2="-36.958" y2="-234.461"/>
				
					<line fill="none" stroke="#00ABEB" stroke-width="0.2111" stroke-miterlimit="10" x1="-26.939" y1="367.043" x2="-26.939" y2="-234.461"/>
				
					<line fill="none" stroke="#00ABEB" stroke-width="0.2111" stroke-miterlimit="10" x1="-16.916" y1="367.043" x2="-16.916" y2="-234.461"/>
				
					<line fill="none" stroke="#00ABEB" stroke-width="0.2111" stroke-miterlimit="10" x1="-6.894" y1="367.043" x2="-6.894" y2="-234.461"/>
				
					<line fill="none" stroke="#00ABEB" stroke-width="0.2111" stroke-miterlimit="10" x1="3.125" y1="367.043" x2="3.125" y2="-234.461"/>
				
					<line fill="none" stroke="#00ABEB" stroke-width="0.2111" stroke-miterlimit="10" x1="13.148" y1="367.043" x2="13.148" y2="-234.461"/>
				
					<line fill="none" stroke="#00ABEB" stroke-width="0.2111" stroke-miterlimit="10" x1="23.17" y1="367.043" x2="23.17" y2="-234.461"/>
				
					<line fill="none" stroke="#00ABEB" stroke-width="0.2111" stroke-miterlimit="10" x1="33.189" y1="367.043" x2="33.189" y2="-234.461"/>
				
					<line fill="none" stroke="#00ABEB" stroke-width="0.2111" stroke-miterlimit="10" x1="43.212" y1="367.043" x2="43.212" y2="-234.461"/>
				
					<line fill="none" stroke="#00ABEB" stroke-width="0.2111" stroke-miterlimit="10" x1="53.234" y1="367.043" x2="53.234" y2="-234.461"/>
				
					<line fill="none" stroke="#00ABEB" stroke-width="0.2111" stroke-miterlimit="10" x1="63.254" y1="367.043" x2="63.254" y2="-234.461"/>
				
					<line fill="none" stroke="#00ABEB" stroke-width="0.2111" stroke-miterlimit="10" x1="73.276" y1="367.043" x2="73.276" y2="-234.461"/>
				
					<line fill="none" stroke="#00ABEB" stroke-width="0.2111" stroke-miterlimit="10" x1="83.299" y1="367.043" x2="83.299" y2="-234.461"/>
				
					<line fill="none" stroke="#00ABEB" stroke-width="0.2111" stroke-miterlimit="10" x1="93.32" y1="367.043" x2="93.32" y2="-234.461"/>
				
					<line fill="none" stroke="#00ABEB" stroke-width="0.2111" stroke-miterlimit="10" x1="103.342" y1="367.043" x2="103.342" y2="-234.461"/>
				
					<line fill="none" stroke="#00ABEB" stroke-width="0.2111" stroke-miterlimit="10" x1="113.361" y1="367.043" x2="113.361" y2="-234.461"/>
				
					<line fill="none" stroke="#00ABEB" stroke-width="0.2111" stroke-miterlimit="10" x1="123.384" y1="367.043" x2="123.384" y2="-234.461"/>
				
					<line fill="none" stroke="#00ABEB" stroke-width="0.2111" stroke-miterlimit="10" x1="133.406" y1="367.043" x2="133.406" y2="-234.461"/>
				
					<line fill="none" stroke="#00ABEB" stroke-width="0.2111" stroke-miterlimit="10" x1="143.425" y1="367.043" x2="143.425" y2="-234.461"/>
				
					<line fill="none" stroke="#00ABEB" stroke-width="0.2111" stroke-miterlimit="10" x1="153.448" y1="367.043" x2="153.448" y2="-234.461"/>
				
					<line fill="none" stroke="#00ABEB" stroke-width="0.2111" stroke-miterlimit="10" x1="163.471" y1="367.043" x2="163.471" y2="-234.461"/>
				
					<line fill="none" stroke="#00ABEB" stroke-width="0.2111" stroke-miterlimit="10" x1="173.49" y1="367.043" x2="173.49" y2="-234.461"/>
				
					<line fill="none" stroke="#00ABEB" stroke-width="0.2111" stroke-miterlimit="10" x1="183.512" y1="367.043" x2="183.512" y2="-234.461"/>
				
					<line fill="none" stroke="#00ABEB" stroke-width="0.2111" stroke-miterlimit="10" x1="193.535" y1="367.043" x2="193.535" y2="-234.461"/>
				
					<line fill="none" stroke="#00ABEB" stroke-width="0.2111" stroke-miterlimit="10" x1="203.554" y1="367.043" x2="203.554" y2="-234.461"/>
				
					<line fill="none" stroke="#00ABEB" stroke-width="0.2111" stroke-miterlimit="10" x1="213.576" y1="367.043" x2="213.576" y2="-234.461"/>
				
					<line fill="none" stroke="#00ABEB" stroke-width="0.2111" stroke-miterlimit="10" x1="223.599" y1="367.043" x2="223.599" y2="-234.461"/>
				
					<line fill="none" stroke="#00ABEB" stroke-width="0.2111" stroke-miterlimit="10" x1="233.618" y1="367.043" x2="233.618" y2="-234.461"/>
				
					<line fill="none" stroke="#00ABEB" stroke-width="0.2111" stroke-miterlimit="10" x1="243.64" y1="367.043" x2="243.64" y2="-234.461"/>
				
					<line fill="none" stroke="#00ABEB" stroke-width="0.2111" stroke-miterlimit="10" x1="253.659" y1="367.043" x2="253.659" y2="-234.461"/>
				
					<line fill="none" stroke="#00ABEB" stroke-width="0.2111" stroke-miterlimit="10" x1="263.684" y1="367.043" x2="263.684" y2="-234.461"/>
				
					<line fill="none" stroke="#00ABEB" stroke-width="0.2111" stroke-miterlimit="10" x1="273.706" y1="367.043" x2="273.706" y2="-234.461"/>
				
					<line fill="none" stroke="#00ABEB" stroke-width="0.2111" stroke-miterlimit="10" x1="283.725" y1="367.043" x2="283.725" y2="-234.461"/>
				
					<line fill="none" stroke="#00ABEB" stroke-width="0.2111" stroke-miterlimit="10" x1="293.748" y1="367.043" x2="293.748" y2="-234.461"/>
				
					<line fill="none" stroke="#00ABEB" stroke-width="0.2111" stroke-miterlimit="10" x1="303.77" y1="367.043" x2="303.77" y2="-234.461"/>
				
					<line fill="none" stroke="#00ABEB" stroke-width="0.2111" stroke-miterlimit="10" x1="313.789" y1="367.043" x2="313.789" y2="-234.461"/>
				
					<line fill="none" stroke="#00ABEB" stroke-width="0.2111" stroke-miterlimit="10" x1="323.812" y1="367.043" x2="323.812" y2="-234.461"/>
				
					<line fill="none" stroke="#00ABEB" stroke-width="0.2111" stroke-miterlimit="10" x1="333.835" y1="367.043" x2="333.835" y2="-234.461"/>
				
					<line fill="none" stroke="#00ABEB" stroke-width="0.2111" stroke-miterlimit="10" x1="343.854" y1="367.043" x2="343.854" y2="-234.461"/>
				
					<line fill="none" stroke="#00ABEB" stroke-width="0.2111" stroke-miterlimit="10" x1="353.876" y1="367.043" x2="353.876" y2="-234.461"/>
				
					<line fill="none" stroke="#00ABEB" stroke-width="0.2111" stroke-miterlimit="10" x1="363.899" y1="367.043" x2="363.899" y2="-234.461"/>
				
					<line fill="none" stroke="#00ABEB" stroke-width="0.2111" stroke-miterlimit="10" x1="373.918" y1="367.043" x2="373.918" y2="-234.461"/>
				
					<line fill="none" stroke="#00ABEB" stroke-width="0.2111" stroke-miterlimit="10" x1="383.94" y1="367.043" x2="383.94" y2="-234.461"/>
				
					<line fill="none" stroke="#00ABEB" stroke-width="0.2111" stroke-miterlimit="10" x1="393.963" y1="367.043" x2="393.963" y2="-234.461"/>
				
					<line fill="none" stroke="#00ABEB" stroke-width="0.2111" stroke-miterlimit="10" x1="403.982" y1="367.043" x2="403.982" y2="-234.461"/>
				
					<line fill="none" stroke="#00ABEB" stroke-width="0.2111" stroke-miterlimit="10" x1="414.006" y1="367.043" x2="414.006" y2="-234.461"/>
				
					<line fill="none" stroke="#00ABEB" stroke-width="0.2111" stroke-miterlimit="10" x1="424.026" y1="367.043" x2="424.026" y2="-234.461"/>
				
					<line fill="none" stroke="#00ABEB" stroke-width="0.2111" stroke-miterlimit="10" x1="434.048" y1="367.043" x2="434.048" y2="-234.461"/>
				
					<line fill="none" stroke="#00ABEB" stroke-width="0.2111" stroke-miterlimit="10" x1="444.071" y1="367.043" x2="444.071" y2="-234.461"/>
				
					<line fill="none" stroke="#00ABEB" stroke-width="0.2111" stroke-miterlimit="10" x1="454.09" y1="367.043" x2="454.09" y2="-234.461"/>
				
					<line fill="none" stroke="#00ABEB" stroke-width="0.2111" stroke-miterlimit="10" x1="464.112" y1="367.043" x2="464.112" y2="-234.461"/>
				
					<line fill="none" stroke="#00ABEB" stroke-width="0.2111" stroke-miterlimit="10" x1="474.135" y1="367.043" x2="474.135" y2="-234.461"/>
				
					<line fill="none" stroke="#00ABEB" stroke-width="0.2111" stroke-miterlimit="10" x1="484.154" y1="367.043" x2="484.154" y2="-234.461"/>
				
					<line fill="none" stroke="#00ABEB" stroke-width="0.2111" stroke-miterlimit="10" x1="494.176" y1="367.043" x2="494.176" y2="-234.461"/>
				
					<line fill="none" stroke="#00ABEB" stroke-width="0.2111" stroke-miterlimit="10" x1="504.199" y1="367.043" x2="504.199" y2="-234.461"/>
				
					<line fill="none" stroke="#00ABEB" stroke-width="0.2111" stroke-miterlimit="10" x1="514.218" y1="367.043" x2="514.218" y2="-234.461"/>
				
					<line fill="none" stroke="#00ABEB" stroke-width="0.2111" stroke-miterlimit="10" x1="524.24" y1="367.043" x2="524.24" y2="-234.461"/>
				
					<line fill="none" stroke="#00ABEB" stroke-width="0.2111" stroke-miterlimit="10" x1="534.263" y1="367.043" x2="534.263" y2="-234.461"/>
				
					<line fill="none" stroke="#00ABEB" stroke-width="0.2111" stroke-miterlimit="10" x1="544.282" y1="367.043" x2="544.282" y2="-234.461"/>
				
					<line fill="none" stroke="#00ABEB" stroke-width="0.2111" stroke-miterlimit="10" x1="554.305" y1="367.043" x2="554.305" y2="-234.461"/>
				
					<line fill="none" stroke="#00ABEB" stroke-width="0.2111" stroke-miterlimit="10" x1="564.327" y1="367.043" x2="564.327" y2="-234.461"/>
				
					<line fill="none" stroke="#00ABEB" stroke-width="0.2111" stroke-miterlimit="10" x1="574.348" y1="367.043" x2="574.348" y2="-234.461"/>
				
					<line fill="none" stroke="#00ABEB" stroke-width="0.2111" stroke-miterlimit="10" x1="584.37" y1="367.043" x2="584.37" y2="-234.461"/>
				
					<line fill="none" stroke="#00ABEB" stroke-width="0.2111" stroke-miterlimit="10" x1="594.39" y1="367.043" x2="594.39" y2="-234.461"/>
				
					<line fill="none" stroke="#00ABEB" stroke-width="0.2111" stroke-miterlimit="10" x1="604.412" y1="367.043" x2="604.412" y2="-234.461"/>
				
					<line fill="none" stroke="#00ABEB" stroke-width="0.2111" stroke-miterlimit="10" x1="614.435" y1="367.043" x2="614.435" y2="-234.461"/>
				
					<line fill="none" stroke="#00ABEB" stroke-width="0.2111" stroke-miterlimit="10" x1="624.454" y1="367.043" x2="624.454" y2="-234.461"/>
				
					<line fill="none" stroke="#00ABEB" stroke-width="0.2111" stroke-miterlimit="10" x1="634.476" y1="367.043" x2="634.476" y2="-234.461"/>
				
					<line fill="none" stroke="#00ABEB" stroke-width="0.2111" stroke-miterlimit="10" x1="644.499" y1="367.043" x2="644.499" y2="-234.461"/>
				
					<line fill="none" stroke="#00ABEB" stroke-width="0.2111" stroke-miterlimit="10" x1="654.518" y1="367.043" x2="654.518" y2="-234.461"/>
			</g>
			<g id="Horizontal_5_mm_1_">
				
					<line fill="none" stroke="#00ABEB" stroke-width="0.4221" stroke-miterlimit="10" x1="-148.432" y1="367.091" x2="654.499" y2="367.091"/>
				
					<line fill="none" stroke="#00ABEB" stroke-width="0.4221" stroke-miterlimit="10" x1="-148.432" y1="316.985" x2="654.499" y2="316.985"/>
				
					<line fill="none" stroke="#00ABEB" stroke-width="0.4221" stroke-miterlimit="10" x1="-148.432" y1="266.878" x2="654.499" y2="266.878"/>
				
					<line fill="none" stroke="#00ABEB" stroke-width="0.4221" stroke-miterlimit="10" x1="-148.432" y1="216.769" x2="654.499" y2="216.769"/>
				
					<line fill="none" stroke="#00ABEB" stroke-width="0.4221" stroke-miterlimit="10" x1="-148.432" y1="166.663" x2="654.499" y2="166.663"/>
				
					<line fill="none" stroke="#00ABEB" stroke-width="0.4221" stroke-miterlimit="10" x1="-148.432" y1="116.555" x2="654.499" y2="116.555"/>
				
					<line fill="none" stroke="#00ABEB" stroke-width="0.4221" stroke-miterlimit="10" x1="-148.432" y1="66.45" x2="654.499" y2="66.45"/>
				
					<line fill="none" stroke="#00ABEB" stroke-width="0.4221" stroke-miterlimit="10" x1="-148.432" y1="16.34" x2="654.499" y2="16.34"/>
				
					<line fill="none" stroke="#00ABEB" stroke-width="0.4221" stroke-miterlimit="10" x1="-148.432" y1="-33.767" x2="654.499" y2="-33.767"/>
				
					<line fill="none" stroke="#00ABEB" stroke-width="0.4221" stroke-miterlimit="10" x1="-148.432" y1="-83.873" x2="654.499" y2="-83.873"/>
				
					<line fill="none" stroke="#00ABEB" stroke-width="0.4221" stroke-miterlimit="10" x1="-148.432" y1="-133.979" x2="654.499" y2="-133.979"/>
			</g>
			<g id="Vertical_5_mm">
				
					<line fill="none" stroke="#00ABEB" stroke-width="0.4221" stroke-miterlimit="10" x1="-147.194" y1="367.043" x2="-147.194" y2="-235.433"/>
				
					<line fill="none" stroke="#00ABEB" stroke-width="0.4221" stroke-miterlimit="10" x1="-97.088" y1="367.043" x2="-97.088" y2="-235.433"/>
				
					<line fill="none" stroke="#00ABEB" stroke-width="0.4221" stroke-miterlimit="10" x1="-46.981" y1="367.043" x2="-46.981" y2="-235.433"/>
				
					<line fill="none" stroke="#00ABEB" stroke-width="0.4221" stroke-miterlimit="10" x1="3.125" y1="367.043" x2="3.125" y2="-235.433"/>
				
					<line fill="none" stroke="#00ABEB" stroke-width="0.4221" stroke-miterlimit="10" x1="53.234" y1="367.043" x2="53.234" y2="-235.433"/>
				
					<line fill="none" stroke="#00ABEB" stroke-width="0.4221" stroke-miterlimit="10" x1="103.342" y1="367.043" x2="103.342" y2="-235.433"/>
				
					<line fill="none" stroke="#00ABEB" stroke-width="0.4221" stroke-miterlimit="10" x1="153.448" y1="367.043" x2="153.448" y2="-235.433"/>
				
					<line fill="none" stroke="#00ABEB" stroke-width="0.4221" stroke-miterlimit="10" x1="203.554" y1="367.043" x2="203.554" y2="-235.433"/>
				
					<line fill="none" stroke="#00ABEB" stroke-width="0.4221" stroke-miterlimit="10" x1="253.659" y1="367.043" x2="253.659" y2="-235.433"/>
				
					<line fill="none" stroke="#00ABEB" stroke-width="0.4221" stroke-miterlimit="10" x1="303.77" y1="367.043" x2="303.77" y2="-235.433"/>
				
					<line fill="none" stroke="#00ABEB" stroke-width="0.4221" stroke-miterlimit="10" x1="353.876" y1="367.043" x2="353.876" y2="-235.433"/>
				
					<line fill="none" stroke="#00ABEB" stroke-width="0.4221" stroke-miterlimit="10" x1="403.982" y1="367.043" x2="403.982" y2="-235.433"/>
				
					<line fill="none" stroke="#00ABEB" stroke-width="0.4221" stroke-miterlimit="10" x1="454.09" y1="367.043" x2="454.09" y2="-235.433"/>
				
					<line fill="none" stroke="#00ABEB" stroke-width="0.4221" stroke-miterlimit="10" x1="504.199" y1="367.043" x2="504.199" y2="-235.433"/>
				
					<line fill="none" stroke="#00ABEB" stroke-width="0.4221" stroke-miterlimit="10" x1="554.305" y1="367.043" x2="554.305" y2="-235.433"/>
				
					<line fill="none" stroke="#00ABEB" stroke-width="0.4221" stroke-miterlimit="10" x1="604.412" y1="367.043" x2="604.412" y2="-235.433"/>
				
					<line fill="none" stroke="#00ABEB" stroke-width="0.4221" stroke-miterlimit="10" x1="654.518" y1="367.043" x2="654.518" y2="-235.433"/>
			</g>
			<g id="Horizontal_10_mm">
				
					<line id="_x31_9_1_" fill="none" stroke="#00ABEB" stroke-width="0.9849" stroke-miterlimit="10" x1="-148.432" y1="367.091" x2="654.499" y2="367.091"/>
				
					<line id="_x32_0" fill="none" stroke="#00ABEB" stroke-width="0.9849" stroke-miterlimit="10" x1="-148.432" y1="266.878" x2="654.499" y2="266.878"/>
				
					<line id="_x32_1" fill="none" stroke="#00ABEB" stroke-width="0.9849" stroke-miterlimit="10" x1="-148.432" y1="166.663" x2="654.499" y2="166.663"/>
				
					<line id="_x32_2" fill="none" stroke="#00ABEB" stroke-width="0.9849" stroke-miterlimit="10" x1="-148.432" y1="66.45" x2="654.499" y2="66.45"/>
				
					<line id="_x32_3" fill="none" stroke="#00ABEB" stroke-width="0.9849" stroke-miterlimit="10" x1="-148.432" y1="-33.767" x2="654.499" y2="-33.767"/>
				
					<line id="_x32_4" fill="none" stroke="#00ABEB" stroke-width="0.9849" stroke-miterlimit="10" x1="-148.432" y1="-133.979" x2="654.499" y2="-133.979"/>
				
					<line id="_x32_5" fill="none" stroke="#00ABEB" stroke-width="0.9849" stroke-miterlimit="10" x1="-148.432" y1="-234.196" x2="654.499" y2="-234.196"/>
			</g>
			<g id="Vertical_10_mm">
				
					<line id="_x30_" fill="none" stroke="#00ABEB" stroke-width="0.9849" stroke-miterlimit="10" x1="-147.194" y1="367.043" x2="-147.194" y2="-235.433"/>
				
					<line id="_x31_" fill="none" stroke="#00ABEB" stroke-width="0.9849" stroke-miterlimit="10" x1="-46.981" y1="367.043" x2="-46.981" y2="-235.433"/>
				
					<line id="_x32_" fill="none" stroke="#00ABEB" stroke-width="0.9849" stroke-miterlimit="10" x1="53.234" y1="367.043" x2="53.234" y2="-235.433"/>
				
					<line id="_x33_" fill="none" stroke="#00ABEB" stroke-width="0.9849" stroke-miterlimit="10" x1="153.448" y1="367.043" x2="153.448" y2="-235.433"/>
				
					<line id="_x34_" fill="none" stroke="#00ABEB" stroke-width="0.9849" stroke-miterlimit="10" x1="253.659" y1="367.043" x2="253.659" y2="-235.433"/>
				
					<line id="_x35_" fill="none" stroke="#00ABEB" stroke-width="0.9849" stroke-miterlimit="10" x1="353.876" y1="367.043" x2="353.876" y2="-235.433"/>
				
					<line id="_x36_" fill="none" stroke="#00ABEB" stroke-width="0.9849" stroke-miterlimit="10" x1="454.09" y1="367.043" x2="454.09" y2="-235.433"/>
				
					<line id="_x37_" fill="none" stroke="#00ABEB" stroke-width="0.9849" stroke-miterlimit="10" x1="554.305" y1="367.043" x2="554.305" y2="-235.433"/>
				
					<line id="_x38_" fill="none" stroke="#00ABEB" stroke-width="0.9849" stroke-miterlimit="10" x1="654.518" y1="367.043" x2="654.518" y2="-235.433"/>
			</g>
		</g>
	</g>
</g>
<g id="Kirchhoff" display="none">
	<g display="inline" opacity="0.1">
		<g>
			<path fill="none" stroke="#0000FF" stroke-width="3.1941" stroke-linecap="round" stroke-linejoin="round" d="M142.64,25.129
				c21.862,0,39.716,27.899,40.824,62.99"/>
			<g>
				<polygon fill="#0000FF" points="169.675,78.304 171.886,75.995 183.248,86.901 193.296,74.77 195.756,76.812 183.516,91.583 
									"/>
			</g>
		</g>
	</g>
	<g display="inline" opacity="0.1">
		<g>
			<path fill="none" stroke="#0000FF" stroke-width="3.1941" stroke-linecap="round" stroke-linejoin="round" d="M111.348,25.129
				c-21.862,0-39.716,27.899-40.824,62.99"/>
			<g>
				<polygon fill="#0000FF" points="58.229,76.812 60.689,74.77 70.733,86.9 82.099,75.995 84.31,78.304 70.465,91.583 				"/>
			</g>
		</g>
	</g>
	<g display="inline" opacity="0.1">
		<g>
			<path fill="none" stroke="#0000FF" stroke-width="3.1941" stroke-linecap="round" stroke-linejoin="round" d="M183.519,91.583
				c0,34.81-16.464,63.369-37.424,66.22"/>
			<g>
				<polygon fill="#0000FF" points="153.391,142.15 156.04,143.939 147.21,156.979 160.862,164.835 159.265,167.605 142.64,158.034 
									"/>
			</g>
		</g>
	</g>
	<g display="inline" opacity="0.1">
		<g>
			<path fill="none" stroke="#0000FF" stroke-width="3.1941" stroke-linecap="round" stroke-linejoin="round" d="M70.469,91.583
				c0,34.81,16.464,63.369,37.424,66.22"/>
			<g>
				<polygon fill="#0000FF" points="94.723,167.608 93.125,164.838 106.777,156.986 97.947,143.942 100.596,142.153 111.347,158.04 
									"/>
			</g>
		</g>
	</g>
</g>
<g id="Layer_4">
	<g>
		<g>
			<path fill="none" stroke="#00B200" stroke-linecap="round" stroke-linejoin="round" d="M145.86,166.647
				c59.199-1.791,58.838-150.299-1.084-150.299"/>
			<g>
				<polygon fill="#00B200" points="149.405,170.49 150.043,169.719 146.242,166.579 149.653,163.017 148.929,162.325 
					144.777,166.664 				"/>
			</g>
		</g>
	</g>
	<g>
		<g>
			<path fill="none" stroke="#00B200" stroke-linecap="round" stroke-linejoin="round" d="M107.939,166.647
				c-59.199-1.791-58.838-150.299,1.084-150.299"/>
			<g>
				<polygon fill="#00B200" points="104.87,162.324 104.146,163.016 107.557,166.577 103.756,169.718 104.395,170.489 
					109.023,166.662 				"/>
			</g>
		</g>
	</g>
	<ellipse fill="#00B200" cx="126.932" cy="16.347" rx="2.664" ry="2.949"/>
	<ellipse fill="#00B200" cx="126.932" cy="166.707" rx="2.664" ry="2.949"/>
	<g enable-background="new    ">
		<path d="M129.431,24.577c4.663,0,7.78,2.772,7.78,7.934c0,3.657-1.652,6.636-4.263,8.878c-1.945,1.681-4.636,2.448-7.753,2.448
			h-6.847v-0.472c1.492-0.295,1.759-0.501,2.185-2.241l3.25-13.125c0.187-0.737,0.293-1.298,0.293-1.74
			c0-0.796-0.399-1.15-2.024-1.209v-0.472H129.431z M123.677,39.059c-0.453,1.829-0.586,2.418-0.586,2.802
			c0,0.767,0.586,1.091,1.812,1.091c2.691,0,4.769-0.885,6.42-2.655c1.892-2.035,2.931-5.516,2.931-8.495
			c0-2.359-0.772-4.218-2.078-5.309c-0.826-0.678-1.945-1.032-3.49-1.032c-1.013,0-1.599,0.118-1.865,1.15L123.677,39.059z"/>
	</g>
	<g enable-background="new    ">
		<path d="M128.538,158.335v-0.472c1.679-0.088,2.052-0.56,2.052-1.563c0-0.236-0.027-0.501-0.053-0.767l-0.533-3.864h-5.861
			l-1.572,3.274c-0.373,0.767-0.586,1.475-0.586,1.947c0,0.561,0.399,0.915,1.652,0.973v0.472h-4.956v-0.472
			c1.226-0.265,1.572-0.767,3.57-4.601l7.593-14.629h0.693l2.451,16.311c0.373,2.478,0.666,2.802,2.078,2.92v0.472H128.538z
			 M128.672,142.85l-3.97,7.757h5.169L128.672,142.85z"/>
	</g>
	<g opacity="0.1">
		<path fill="none" d="M142.64,25.129"/>
	</g>
	<g opacity="0.1">
		<path fill="none" d="M111.348,25.129"/>
	</g>
	<g enable-background="new    ">
		<path fill="#808080" d="M203.364,93.868v4.269h-0.975v-4.269h-3.855v-1.08h3.855v-4.27h0.975v4.27h3.855v1.08H203.364z"/>
		<path fill="#808080" d="M211.636,97.696c-2.526,0-3.338-3.042-3.338-5.725c0-2.895,1.019-5.562,3.397-5.562
			c1.935,0,3.279,2.306,3.279,5.66C214.974,94.882,214.043,97.696,211.636,97.696z M211.606,86.834c-1.226,0-1.891,1.93-1.891,5.251
			c0,3.32,0.65,5.185,1.92,5.185c1.255,0,1.92-1.881,1.92-5.12C213.556,88.748,212.906,86.834,211.606,86.834z"/>
		<path fill="#808080" d="M217.175,97.647c-0.458,0-0.812-0.393-0.812-0.9s0.37-0.916,0.827-0.916c0.429,0,0.812,0.442,0.812,0.932
			C218.002,97.238,217.618,97.647,217.175,97.647z"/>
		<path fill="#808080" d="M219.849,97.499c2.245-0.441,3.899-2.159,4.49-4.842c-0.635,0.687-1.344,0.933-2.216,0.933
			c-1.595,0-2.658-1.325-2.658-3.321c0-2.208,1.314-3.86,3.072-3.86c0.945,0,1.743,0.458,2.319,1.243
			c0.591,0.818,0.945,1.996,0.945,3.37c0,1.881-0.591,3.664-1.772,4.858c-1.255,1.259-2.216,1.652-4.136,1.946L219.849,97.499z
			 M224.368,91.022c0-2.748-0.665-4.155-1.949-4.155c-0.443,0-0.827,0.196-1.079,0.556c-0.295,0.441-0.517,1.407-0.517,2.29
			c0,1.946,0.709,3.173,1.817,3.173c0.65,0,1.728-0.36,1.728-1.227V91.022z"/>
		<path fill="#808080" d="M240.395,86.949c-0.591,0.017-0.931,0.278-1.359,1.489l-3.279,9.209h-0.222l-3.604-8.898
			c-0.635-1.587-0.857-1.783-1.595-1.8v-0.311h3.914v0.311l-0.414,0.033c-0.473,0.032-0.665,0.18-0.665,0.507
			c0,0.262,0.133,0.654,0.576,1.75l2.245,5.595l2.171-6.036c0.178-0.491,0.281-0.899,0.281-1.178c0-0.638-0.473-0.605-1.063-0.671
			v-0.311h3.013V86.949z"/>
	</g>
	<g enable-background="new    ">
		<path fill="#808080" d="M16.441,91.806v-1.08h8.227v1.08H16.441z"/>
		<path fill="#808080" d="M29.307,95.634c-2.526,0-3.338-3.042-3.338-5.725c0-2.895,1.019-5.562,3.397-5.562
			c1.935,0,3.279,2.306,3.279,5.66C32.645,92.821,31.714,95.634,29.307,95.634z M29.277,84.773c-1.226,0-1.891,1.93-1.891,5.251
			c0,3.32,0.65,5.185,1.92,5.185c1.255,0,1.92-1.881,1.92-5.12C31.227,86.687,30.577,84.773,29.277,84.773z"/>
		<path fill="#808080" d="M34.846,95.585c-0.458,0-0.812-0.393-0.812-0.9s0.37-0.916,0.827-0.916c0.429,0,0.812,0.442,0.812,0.932
			C35.673,95.176,35.289,95.585,34.846,95.585z"/>
		<path fill="#808080" d="M38.436,95.405v-0.246c1.093-0.065,1.403-0.409,1.403-1.309v-7.344c0-0.556-0.133-0.801-0.443-0.801
			c-0.148,0-0.399,0.082-0.665,0.196l-0.398,0.163v-0.229l2.644-1.489l0.133,0.049v9.765c0,0.704,0.295,0.998,1.403,0.998v0.246
			H38.436z"/>
		<path fill="#808080" d="M58.066,84.887c-0.591,0.017-0.931,0.278-1.359,1.489l-3.279,9.209h-0.222l-3.604-8.898
			c-0.635-1.587-0.857-1.783-1.595-1.8v-0.311h3.914v0.311l-0.414,0.033c-0.473,0.032-0.665,0.18-0.665,0.507
			c0,0.262,0.133,0.654,0.576,1.75l2.245,5.595l2.171-6.036c0.178-0.491,0.281-0.899,0.281-1.178c0-0.638-0.473-0.605-1.063-0.671
			v-0.311h3.013V84.887z"/>
	</g>
</g>
<g id="V1">
</g>
<g id="solenoid">
	<circle display="none" opacity="0.05" fill="#0000FF" cx="127.09" cy="93.485" r="30.796"/>
	<g>
		<path fill="#FF0000" d="M108.989,87.366c3.792,0,5.675,1.326,5.675,3.9c0,1.404-0.764,2.314-1.746,2.938
			c-0.846,0.546-1.855,0.78-3.029,1.014v0.026c2.347,0.676,3.438,2.054,3.438,3.9c0,3.484-3.083,5.2-7.503,5.2h-7.421v-0.416
			c1.5-0.208,1.801-0.468,2.265-2.08l3.301-11.336c0.191-0.65,0.3-1.274,0.3-1.664c0-0.754-0.382-0.936-2.101-1.066v-0.416H108.989z
			 M104.242,98.832c-0.545,1.976-0.955,3.302-0.955,3.64c0,0.728,0.682,1.092,1.828,1.092c3.138,0,5.266-1.534,5.266-4.42
			c0-1.612-0.791-2.756-1.828-3.094c-0.546-0.182-1.719-0.312-3.438-0.312L104.242,98.832z M106.424,94.906
			c3.574,0,5.484-1.378,5.484-3.952c0-1.924-0.982-2.808-3.192-2.808c-1.064,0-1.337,0-1.61,0.936l-1.719,5.824H106.424z"/>
	</g>
	<g>
		<path fill="#FF0000" d="M88.025,118.952v-0.27c1.303-0.072,1.492-0.234,1.492-1.603v-4.087c0-0.846-0.151-1.134-0.623-1.134
			c-0.17,0-0.454,0-0.793,0.09v-0.288l2.928-0.99l0.076,0.072v6.32c0,1.333,0.151,1.53,1.398,1.621v0.27H88.025z M90.141,108.491
			c-0.529,0-0.944-0.396-0.944-0.918c0-0.504,0.434-0.918,0.963-0.918c0.548,0,0.963,0.414,0.963,0.918
			C91.123,108.095,90.708,108.491,90.141,108.491z"/>
		<path fill="#FF0000" d="M98.207,118.952l0.019-0.27c0.945-0.072,1.171-0.432,1.171-1.621v-3.583c0-1.278-0.454-1.818-1.379-1.818
			c-0.624,0-1.077,0.216-1.946,1.026v4.969c0,0.702,0.264,0.954,1.228,1.026v0.27h-3.986v-0.27c0.963-0.072,1.171-0.36,1.171-1.422
			v-4.375c0-0.882-0.132-1.17-0.661-1.17c-0.208,0-0.416,0.018-0.548,0.072v-0.306c1.039-0.288,1.663-0.486,2.588-0.81l0.151,0.054
			v1.404h0.019c0.982-1.062,1.852-1.458,2.72-1.458c1.436,0,2.229,0.99,2.229,2.772v3.979c0,0.972,0.227,1.17,1.152,1.26v0.27
			H98.207z"/>
		<path fill="#FF0000" d="M110.202,116.305c-0.604,1.117-0.982,1.639-1.549,2.071c-0.643,0.504-1.36,0.756-2.172,0.756
			c-2.097,0-3.589-1.675-3.589-3.998c0-1.494,0.567-2.736,1.587-3.547c0.755-0.594,1.662-0.918,2.55-0.918
			c1.586,0,2.909,0.846,2.909,1.854c0,0.414-0.397,0.756-0.888,0.756c-0.416,0-0.755-0.306-0.907-0.828l-0.113-0.396
			c-0.189-0.667-0.435-0.864-1.114-0.864c-1.53,0-2.569,1.26-2.569,3.133c0,2.071,1.19,3.511,2.928,3.511
			c1.077,0,1.757-0.432,2.664-1.692L110.202,116.305z"/>
		<path fill="#FF0000" d="M113.828,112.362c0.944-1.296,1.474-1.692,2.267-1.692c0.643,0,1.039,0.36,1.039,0.954
			c0,0.504-0.283,0.81-0.736,0.81c-0.246,0-0.454-0.09-0.756-0.36c-0.208-0.18-0.378-0.27-0.491-0.27
			c-0.529,0-1.322,0.9-1.322,1.476v4.051c0,1.026,0.321,1.296,1.605,1.351v0.27H110.9v-0.27c1.209-0.216,1.341-0.342,1.341-1.243
			v-4.501c0-0.792-0.17-1.081-0.642-1.081c-0.227,0-0.397,0.018-0.661,0.072v-0.288c1.114-0.342,1.794-0.594,2.796-0.972
			l0.094,0.036V112.362z"/>
		<path fill="#FF0000" d="M125.067,116.125c-0.736,1.962-2.059,3.007-3.948,3.007c-2.229,0-3.589-1.603-3.589-4.087
			c0-2.539,1.53-4.375,3.91-4.375c1.171,0,2.021,0.432,2.626,1.242c0.378,0.504,0.567,1.08,0.642,2.053h-5.818
			c0.094,1.368,0.189,2.07,0.869,2.935c0.529,0.667,1.228,0.99,2.097,0.99c1.266,0,1.983-0.558,2.909-1.891L125.067,116.125z
			 M122.782,113.388c-0.208-1.458-0.604-2.071-1.851-2.071c-1.058,0-1.794,0.72-2.002,2.071H122.782z"/>
		<path fill="#FF0000" d="M133.794,118.268c-0.567,0.684-1.058,0.864-1.7,0.864c-0.699,0-1.115-0.36-1.209-1.314h-0.019
			c-1.001,1.08-1.927,1.314-2.739,1.314c-1.171,0-1.984-0.684-1.984-1.873c0-0.937,0.586-1.639,1.323-2.107
			c0.566-0.36,1.266-0.702,3.4-1.458v-0.972c0-1.116-0.623-1.621-1.473-1.621c-0.756,0-1.322,0.396-1.322,0.882
			c0,0.324,0.113,0.378,0.113,0.756c0,0.342-0.378,0.738-0.869,0.738c-0.396,0-0.812-0.342-0.812-0.828
			c0-0.468,0.302-1.044,0.963-1.44c0.529-0.324,1.322-0.54,2.172-0.54c1.058,0,1.775,0.288,2.229,0.81
			c0.453,0.522,0.529,0.9,0.529,1.999v3.439c0,0.828,0.246,1.188,0.585,1.188c0.302,0,0.491-0.09,0.812-0.342V118.268z
			 M130.866,114.127c-1.171,0.396-1.945,0.774-2.418,1.188c-0.453,0.396-0.642,0.829-0.642,1.387c0,0.954,0.567,1.386,1.303,1.386
			c0.378,0,0.775-0.09,1.096-0.288c0.548-0.36,0.661-0.612,0.661-1.134V114.127z"/>
		<path fill="#FF0000" d="M138.743,114.667c1.209,0.702,1.662,1.188,1.662,2.214c0,1.207-1.209,2.251-2.645,2.251
			c-0.396,0-0.944-0.018-1.379-0.162c-0.454-0.144-0.661-0.162-0.869-0.162c-0.227,0-0.34,0.036-0.453,0.216h-0.246v-2.827h0.302
			c0.396,1.747,1.096,2.539,2.399,2.539c0.963,0,1.568-0.594,1.568-1.333c0-0.558-0.378-1.026-1.001-1.351l-1.02-0.54
			c-1.568-0.828-2.267-1.692-2.267-2.611c0-1.422,1.058-2.215,2.607-2.215c0.453,0,0.869,0.018,1.266,0.198
			c0.208,0.09,0.396,0.144,0.529,0.144c0.076,0,0.151-0.018,0.302-0.18h0.208l0.094,2.449h-0.283
			c-0.435-1.621-1.001-2.214-2.135-2.214c-0.812,0-1.417,0.378-1.417,1.224c0,0.396,0.283,0.918,0.812,1.225L138.743,114.667z"/>
		<path fill="#FF0000" d="M141.481,118.952v-0.27c1.303-0.072,1.492-0.234,1.492-1.603v-4.087c0-0.846-0.151-1.134-0.623-1.134
			c-0.17,0-0.454,0-0.793,0.09v-0.288l2.928-0.99l0.076,0.072v6.32c0,1.333,0.151,1.53,1.398,1.621v0.27H141.481z M143.597,108.491
			c-0.529,0-0.944-0.396-0.944-0.918c0-0.504,0.434-0.918,0.963-0.918c0.548,0,0.963,0.414,0.963,0.918
			C144.579,108.095,144.164,108.491,143.597,108.491z"/>
		<path fill="#FF0000" d="M151.663,118.952l0.019-0.27c0.945-0.072,1.171-0.432,1.171-1.621v-3.583c0-1.278-0.454-1.818-1.379-1.818
			c-0.624,0-1.077,0.216-1.946,1.026v4.969c0,0.702,0.264,0.954,1.228,1.026v0.27h-3.986v-0.27c0.963-0.072,1.171-0.36,1.171-1.422
			v-4.375c0-0.882-0.132-1.17-0.661-1.17c-0.208,0-0.416,0.018-0.548,0.072v-0.306c1.039-0.288,1.663-0.486,2.588-0.81l0.151,0.054
			v1.404h0.019c0.982-1.062,1.852-1.458,2.72-1.458c1.436,0,2.229,0.99,2.229,2.772v3.979c0,0.972,0.227,1.17,1.152,1.26v0.27
			H151.663z"/>
		<path fill="#FF0000" d="M163.186,111.966c0.265,0.576,0.359,0.991,0.359,1.513c0,0.937-0.302,1.603-0.982,2.089
			c-0.604,0.432-1.303,0.702-1.964,0.702c-0.113,0-0.378-0.018-0.718-0.054l-0.359-0.036c-0.51,0.144-1.134,0.774-1.134,1.134
			c0,0.288,0.454,0.432,1.474,0.486l2.437,0.108c1.398,0.054,2.286,0.811,2.286,1.927c0,0.72-0.359,1.314-1.133,1.891
			c-0.982,0.72-2.418,1.152-3.778,1.152c-1.813,0-3.268-0.792-3.268-1.747c0-0.666,0.491-1.26,1.852-2.197
			c-0.793-0.36-1.001-0.558-1.001-0.954c0-0.36,0.246-0.72,0.869-1.243c0.283-0.234,0.548-0.468,0.812-0.72
			c-1.266-0.594-1.757-1.278-1.757-2.413c0-1.639,1.398-2.935,3.155-2.935c0.491,0,1.001,0.09,1.511,0.27l0.416,0.144
			c0.378,0.126,0.661,0.18,1.039,0.18h1.455v0.702H163.186z M161.712,119.222c-0.925,0-2.418-0.108-3.06-0.234
			c-0.755,0.864-0.926,1.134-0.926,1.548c0,0.792,1.077,1.314,2.739,1.314c2.153,0,3.589-0.702,3.589-1.747
			C164.055,119.438,163.431,119.222,161.712,119.222z M158.747,112.92c0,1.729,0.774,2.899,1.945,2.899
			c0.85,0,1.398-0.63,1.398-1.621c0-0.738-0.208-1.548-0.566-2.179c-0.302-0.54-0.793-0.846-1.379-0.846
			c-0.869,0-1.397,0.63-1.397,1.692V112.92z"/>
	</g>
	<g>
		<g>
			<line fill="none" stroke="#FF0000" stroke-width="0.9" x1="104.012" y1="82.271" x2="113.058" y2="82.271"/>
			<g>
				<polygon fill="#FF0000" points="110.076,85.952 109.462,85.292 112.713,82.272 109.462,79.25 110.076,78.591 114.034,82.272 
									"/>
			</g>
		</g>
	</g>
	<circle opacity="0.33" fill="#FFFFFF" cx="127.09" cy="93.485" r="7.391"/>
	<circle fill="none" stroke="#FF0000" stroke-width="1.5" cx="127.09" cy="93.485" r="7.391"/>
	<circle fill="#FF0000" stroke="#FF0000" stroke-width="0.7391" cx="127.09" cy="93.485" r="0.739"/>
	<g>
	</g>
</g>
</svg>
