<?xml version="1.0" encoding="utf-8"?>
<!-- Generator: Adobe Illustrator 26.0.1, SVG Export Plug-In . SVG Version: 6.00 Build 0)  -->
<svg version="1.1" xmlns="http://www.w3.org/2000/svg" xmlns:xlink="http://www.w3.org/1999/xlink" x="0px" y="0px"
	 viewBox="0 0 108.957 77.798" enable-background="new 0 0 108.957 77.798" xml:space="preserve">
<g id="Graph_paper_slanted" opacity="0.5">
	<g id="Clipped_grid_00000003068028900943026870000011536296927355263674_">
		<defs>
			<polygon id="SVGID_1_" points="68.858,112.674 -92.423,112.674 8.755,10.899 170.037,10.899 			"/>
		</defs>
		<clipPath id="SVGID_00000115507541723244962280000001843331181957759622_">
			<use xlink:href="#SVGID_1_"  overflow="visible"/>
		</clipPath>
		
			<g id="Grid_00000142891597197125820610000009767860333217090727_" opacity="0.25" clip-path="url(#SVGID_00000115507541723244962280000001843331181957759622_)">
			<g id="Horizontal_1_mm_00000151508609497893311650000018408800186222605470_">
				
					<line fill="none" stroke="#00ABEB" stroke-width="0.15" stroke-miterlimit="10" x1="-13.974" y1="-6.993" x2="212.867" y2="-6.993"/>
				
					<line fill="none" stroke="#00ABEB" stroke-width="0.15" stroke-miterlimit="10" x1="-11.986" y1="-8.981" x2="214.855" y2="-8.981"/>
				
					<line fill="none" stroke="#00ABEB" stroke-width="0.15" stroke-miterlimit="10" x1="-131.263" y1="110.295" x2="95.578" y2="110.295"/>
				
					<line fill="none" stroke="#00ABEB" stroke-width="0.15" stroke-miterlimit="10" x1="-129.275" y1="108.307" x2="97.566" y2="108.307"/>
				
					<line fill="none" stroke="#00ABEB" stroke-width="0.15" stroke-miterlimit="10" x1="-127.287" y1="106.32" x2="99.554" y2="106.32"/>
				
					<line fill="none" stroke="#00ABEB" stroke-width="0.15" stroke-miterlimit="10" x1="-125.299" y1="104.332" x2="101.542" y2="104.332"/>
				
					<line fill="none" stroke="#00ABEB" stroke-width="0.15" stroke-miterlimit="10" x1="-123.311" y1="102.343" x2="103.53" y2="102.343"/>
				
					<line fill="none" stroke="#00ABEB" stroke-width="0.15" stroke-miterlimit="10" x1="-121.323" y1="100.356" x2="105.518" y2="100.356"/>
				
					<line fill="none" stroke="#00ABEB" stroke-width="0.15" stroke-miterlimit="10" x1="-119.335" y1="98.368" x2="107.506" y2="98.368"/>
				
					<line fill="none" stroke="#00ABEB" stroke-width="0.15" stroke-miterlimit="10" x1="-117.348" y1="96.38" x2="109.493" y2="96.38"/>
				
					<line fill="none" stroke="#00ABEB" stroke-width="0.15" stroke-miterlimit="10" x1="-115.359" y1="94.392" x2="111.482" y2="94.392"/>
				
					<line fill="none" stroke="#00ABEB" stroke-width="0.15" stroke-miterlimit="10" x1="-113.371" y1="92.404" x2="113.47" y2="92.404"/>
				
					<line fill="none" stroke="#00ABEB" stroke-width="0.15" stroke-miterlimit="10" x1="-111.384" y1="90.416" x2="115.457" y2="90.416"/>
				
					<line fill="none" stroke="#00ABEB" stroke-width="0.15" stroke-miterlimit="10" x1="-109.395" y1="88.428" x2="117.445" y2="88.428"/>
				
					<line fill="none" stroke="#00ABEB" stroke-width="0.15" stroke-miterlimit="10" x1="-107.407" y1="86.44" x2="119.434" y2="86.44"/>
				
					<line fill="none" stroke="#00ABEB" stroke-width="0.15" stroke-miterlimit="10" x1="-105.42" y1="84.452" x2="121.421" y2="84.452"/>
				
					<line fill="none" stroke="#00ABEB" stroke-width="0.15" stroke-miterlimit="10" x1="-103.432" y1="82.464" x2="123.409" y2="82.464"/>
				
					<line fill="none" stroke="#00ABEB" stroke-width="0.15" stroke-miterlimit="10" x1="-101.443" y1="80.476" x2="125.397" y2="80.476"/>
				
					<line fill="none" stroke="#00ABEB" stroke-width="0.15" stroke-miterlimit="10" x1="-99.456" y1="78.489" x2="127.385" y2="78.489"/>
				
					<line fill="none" stroke="#00ABEB" stroke-width="0.15" stroke-miterlimit="10" x1="-97.468" y1="76.501" x2="129.373" y2="76.501"/>
				
					<line fill="none" stroke="#00ABEB" stroke-width="0.15" stroke-miterlimit="10" x1="-95.48" y1="74.512" x2="131.361" y2="74.512"/>
				
					<line fill="none" stroke="#00ABEB" stroke-width="0.15" stroke-miterlimit="10" x1="-93.492" y1="72.525" x2="133.349" y2="72.525"/>
				
					<line fill="none" stroke="#00ABEB" stroke-width="0.15" stroke-miterlimit="10" x1="-91.504" y1="70.537" x2="135.337" y2="70.537"/>
				
					<line fill="none" stroke="#00ABEB" stroke-width="0.15" stroke-miterlimit="10" x1="-89.515" y1="68.548" x2="137.325" y2="68.548"/>
				
					<line fill="none" stroke="#00ABEB" stroke-width="0.15" stroke-miterlimit="10" x1="-87.528" y1="66.561" x2="139.313" y2="66.561"/>
				
					<line fill="none" stroke="#00ABEB" stroke-width="0.15" stroke-miterlimit="10" x1="-85.54" y1="64.573" x2="141.301" y2="64.573"/>
				
					<line fill="none" stroke="#00ABEB" stroke-width="0.15" stroke-miterlimit="10" x1="-83.552" y1="62.585" x2="143.289" y2="62.585"/>
				
					<line fill="none" stroke="#00ABEB" stroke-width="0.15" stroke-miterlimit="10" x1="-81.564" y1="60.597" x2="145.277" y2="60.597"/>
				
					<line fill="none" stroke="#00ABEB" stroke-width="0.15" stroke-miterlimit="10" x1="-79.576" y1="58.609" x2="147.265" y2="58.609"/>
				
					<line fill="none" stroke="#00ABEB" stroke-width="0.15" stroke-miterlimit="10" x1="-77.588" y1="56.621" x2="149.252" y2="56.621"/>
				
					<line fill="none" stroke="#00ABEB" stroke-width="0.15" stroke-miterlimit="10" x1="-75.6" y1="54.633" x2="151.24" y2="54.633"/>
				
					<line fill="none" stroke="#00ABEB" stroke-width="0.15" stroke-miterlimit="10" x1="-73.612" y1="52.645" x2="153.229" y2="52.645"/>
				
					<line fill="none" stroke="#00ABEB" stroke-width="0.15" stroke-miterlimit="10" x1="-71.625" y1="50.658" x2="155.216" y2="50.658"/>
				
					<line fill="none" stroke="#00ABEB" stroke-width="0.15" stroke-miterlimit="10" x1="-69.637" y1="48.669" x2="157.204" y2="48.669"/>
				
					<line fill="none" stroke="#00ABEB" stroke-width="0.15" stroke-miterlimit="10" x1="-67.648" y1="46.681" x2="159.192" y2="46.681"/>
				
					<line fill="none" stroke="#00ABEB" stroke-width="0.15" stroke-miterlimit="10" x1="-65.661" y1="44.694" x2="161.18" y2="44.694"/>
				
					<line fill="none" stroke="#00ABEB" stroke-width="0.15" stroke-miterlimit="10" x1="-63.673" y1="42.706" x2="163.168" y2="42.706"/>
				
					<line fill="none" stroke="#00ABEB" stroke-width="0.15" stroke-miterlimit="10" x1="-61.685" y1="40.718" x2="165.156" y2="40.718"/>
				
					<line fill="none" stroke="#00ABEB" stroke-width="0.15" stroke-miterlimit="10" x1="-59.697" y1="38.73" x2="167.144" y2="38.73"/>
				
					<line fill="none" stroke="#00ABEB" stroke-width="0.15" stroke-miterlimit="10" x1="-57.709" y1="36.742" x2="169.132" y2="36.742"/>
				
					<line fill="none" stroke="#00ABEB" stroke-width="0.15" stroke-miterlimit="10" x1="-55.721" y1="34.754" x2="171.12" y2="34.754"/>
				
					<line fill="none" stroke="#00ABEB" stroke-width="0.15" stroke-miterlimit="10" x1="-53.733" y1="32.766" x2="173.108" y2="32.766"/>
				
					<line fill="none" stroke="#00ABEB" stroke-width="0.15" stroke-miterlimit="10" x1="-51.745" y1="30.778" x2="175.096" y2="30.778"/>
				
					<line fill="none" stroke="#00ABEB" stroke-width="0.15" stroke-miterlimit="10" x1="-49.757" y1="28.79" x2="177.084" y2="28.79"/>
				
					<line fill="none" stroke="#00ABEB" stroke-width="0.15" stroke-miterlimit="10" x1="-47.769" y1="26.802" x2="179.072" y2="26.802"/>
				
					<line fill="none" stroke="#00ABEB" stroke-width="0.15" stroke-miterlimit="10" x1="-45.781" y1="24.814" x2="181.06" y2="24.814"/>
				
					<line fill="none" stroke="#00ABEB" stroke-width="0.15" stroke-miterlimit="10" x1="-43.793" y1="22.827" x2="183.047" y2="22.827"/>
				
					<line fill="none" stroke="#00ABEB" stroke-width="0.15" stroke-miterlimit="10" x1="-41.805" y1="20.838" x2="185.036" y2="20.838"/>
				
					<line fill="none" stroke="#00ABEB" stroke-width="0.15" stroke-miterlimit="10" x1="-39.817" y1="18.85" x2="187.024" y2="18.85"/>
				
					<line fill="none" stroke="#00ABEB" stroke-width="0.15" stroke-miterlimit="10" x1="-37.83" y1="16.863" x2="189.011" y2="16.863"/>
				
					<line fill="none" stroke="#00ABEB" stroke-width="0.15" stroke-miterlimit="10" x1="-35.841" y1="14.875" x2="190.999" y2="14.875"/>
				
					<line fill="none" stroke="#00ABEB" stroke-width="0.15" stroke-miterlimit="10" x1="-33.853" y1="12.886" x2="192.988" y2="12.886"/>
				
					<line fill="none" stroke="#00ABEB" stroke-width="0.15" stroke-miterlimit="10" x1="-31.866" y1="10.899" x2="194.975" y2="10.899"/>
				
					<line fill="none" stroke="#00ABEB" stroke-width="0.15" stroke-miterlimit="10" x1="-29.878" y1="8.911" x2="196.963" y2="8.911"/>
				
					<line fill="none" stroke="#00ABEB" stroke-width="0.15" stroke-miterlimit="10" x1="-27.889" y1="6.923" x2="198.951" y2="6.923"/>
				
					<line fill="none" stroke="#00ABEB" stroke-width="0.15" stroke-miterlimit="10" x1="-25.902" y1="4.935" x2="200.939" y2="4.935"/>
				
					<line fill="none" stroke="#00ABEB" stroke-width="0.15" stroke-miterlimit="10" x1="-23.914" y1="2.947" x2="202.927" y2="2.947"/>
				
					<line fill="none" stroke="#00ABEB" stroke-width="0.15" stroke-miterlimit="10" x1="-21.926" y1="0.959" x2="204.915" y2="0.959"/>
				
					<line fill="none" stroke="#00ABEB" stroke-width="0.15" stroke-miterlimit="10" x1="-19.938" y1="-1.029" x2="206.903" y2="-1.029"/>
				
					<line fill="none" stroke="#00ABEB" stroke-width="0.15" stroke-miterlimit="10" x1="-17.95" y1="-3.017" x2="208.891" y2="-3.017"/>
				
					<line fill="none" stroke="#00ABEB" stroke-width="0.15" stroke-miterlimit="10" x1="-15.962" y1="-5.005" x2="210.879" y2="-5.005"/>
			</g>
			<g id="Vertical_1_mm_00000181073523592228201180000012361058669048395659_">
				<g>
					
						<line fill="none" stroke="#00ABEB" stroke-width="0.15" stroke-miterlimit="10" x1="-131.178" y1="110.286" x2="-11.858" y2="-9.034"/>
				</g>
				
					<line fill="none" stroke="#00ABEB" stroke-width="0.15" stroke-miterlimit="10" x1="-128.344" y1="110.286" x2="-9.024" y2="-9.034"/>
				
					<line fill="none" stroke="#00ABEB" stroke-width="0.15" stroke-miterlimit="10" x1="-125.509" y1="110.286" x2="-6.189" y2="-9.034"/>
				
					<line fill="none" stroke="#00ABEB" stroke-width="0.15" stroke-miterlimit="10" x1="-122.674" y1="110.286" x2="-3.354" y2="-9.034"/>
				
					<line fill="none" stroke="#00ABEB" stroke-width="0.15" stroke-miterlimit="10" x1="-119.84" y1="110.286" x2="-0.52" y2="-9.034"/>
				
					<line fill="none" stroke="#00ABEB" stroke-width="0.15" stroke-miterlimit="10" x1="-117.005" y1="110.286" x2="2.315" y2="-9.034"/>
				
					<line fill="none" stroke="#00ABEB" stroke-width="0.15" stroke-miterlimit="10" x1="-114.17" y1="110.286" x2="5.15" y2="-9.034"/>
				
					<line fill="none" stroke="#00ABEB" stroke-width="0.15" stroke-miterlimit="10" x1="-111.336" y1="110.286" x2="7.984" y2="-9.034"/>
				
					<line fill="none" stroke="#00ABEB" stroke-width="0.15" stroke-miterlimit="10" x1="-108.501" y1="110.286" x2="10.819" y2="-9.034"/>
				
					<line fill="none" stroke="#00ABEB" stroke-width="0.15" stroke-miterlimit="10" x1="-105.667" y1="110.286" x2="13.653" y2="-9.034"/>
				
					<line fill="none" stroke="#00ABEB" stroke-width="0.15" stroke-miterlimit="10" x1="-102.832" y1="110.286" x2="16.488" y2="-9.034"/>
				
					<line fill="none" stroke="#00ABEB" stroke-width="0.15" stroke-miterlimit="10" x1="-99.997" y1="110.286" x2="19.323" y2="-9.034"/>
				
					<line fill="none" stroke="#00ABEB" stroke-width="0.15" stroke-miterlimit="10" x1="-97.163" y1="110.286" x2="22.157" y2="-9.034"/>
				
					<line fill="none" stroke="#00ABEB" stroke-width="0.15" stroke-miterlimit="10" x1="-94.328" y1="110.286" x2="24.992" y2="-9.034"/>
				
					<line fill="none" stroke="#00ABEB" stroke-width="0.15" stroke-miterlimit="10" x1="-91.493" y1="110.286" x2="27.827" y2="-9.034"/>
				
					<line fill="none" stroke="#00ABEB" stroke-width="0.15" stroke-miterlimit="10" x1="-88.659" y1="110.286" x2="30.661" y2="-9.034"/>
				
					<line fill="none" stroke="#00ABEB" stroke-width="0.15" stroke-miterlimit="10" x1="-85.824" y1="110.286" x2="33.496" y2="-9.034"/>
				
					<line fill="none" stroke="#00ABEB" stroke-width="0.15" stroke-miterlimit="10" x1="-82.989" y1="110.286" x2="36.331" y2="-9.034"/>
				
					<line fill="none" stroke="#00ABEB" stroke-width="0.15" stroke-miterlimit="10" x1="-80.155" y1="110.286" x2="39.165" y2="-9.034"/>
				<line fill="none" stroke="#00ABEB" stroke-width="0.15" stroke-miterlimit="10" x1="-77.32" y1="110.286" x2="42" y2="-9.034"/>
				
					<line fill="none" stroke="#00ABEB" stroke-width="0.15" stroke-miterlimit="10" x1="-74.485" y1="110.286" x2="44.835" y2="-9.034"/>
				
					<line fill="none" stroke="#00ABEB" stroke-width="0.15" stroke-miterlimit="10" x1="-71.651" y1="110.286" x2="47.669" y2="-9.034"/>
				
					<line fill="none" stroke="#00ABEB" stroke-width="0.15" stroke-miterlimit="10" x1="-68.816" y1="110.286" x2="50.504" y2="-9.034"/>
				
					<line fill="none" stroke="#00ABEB" stroke-width="0.15" stroke-miterlimit="10" x1="-65.981" y1="110.286" x2="53.339" y2="-9.034"/>
				
					<line fill="none" stroke="#00ABEB" stroke-width="0.15" stroke-miterlimit="10" x1="-63.147" y1="110.286" x2="56.173" y2="-9.034"/>
				
					<line fill="none" stroke="#00ABEB" stroke-width="0.15" stroke-miterlimit="10" x1="-60.312" y1="110.286" x2="59.008" y2="-9.034"/>
				
					<line fill="none" stroke="#00ABEB" stroke-width="0.15" stroke-miterlimit="10" x1="-57.478" y1="110.286" x2="61.842" y2="-9.034"/>
				
					<line fill="none" stroke="#00ABEB" stroke-width="0.15" stroke-miterlimit="10" x1="-54.643" y1="110.286" x2="64.677" y2="-9.034"/>
				
					<line fill="none" stroke="#00ABEB" stroke-width="0.15" stroke-miterlimit="10" x1="-51.808" y1="110.286" x2="67.512" y2="-9.034"/>
				
					<line fill="none" stroke="#00ABEB" stroke-width="0.15" stroke-miterlimit="10" x1="-48.974" y1="110.286" x2="70.346" y2="-9.034"/>
				
					<line fill="none" stroke="#00ABEB" stroke-width="0.15" stroke-miterlimit="10" x1="-46.139" y1="110.286" x2="73.181" y2="-9.034"/>
				
					<line fill="none" stroke="#00ABEB" stroke-width="0.15" stroke-miterlimit="10" x1="-43.304" y1="110.286" x2="76.016" y2="-9.034"/>
				
					<line fill="none" stroke="#00ABEB" stroke-width="0.15" stroke-miterlimit="10" x1="-40.47" y1="110.286" x2="78.85" y2="-9.034"/>
				
					<line fill="none" stroke="#00ABEB" stroke-width="0.15" stroke-miterlimit="10" x1="-37.635" y1="110.286" x2="81.685" y2="-9.034"/>
				
					<line fill="none" stroke="#00ABEB" stroke-width="0.15" stroke-miterlimit="10" x1="-34.8" y1="110.286" x2="84.52" y2="-9.034"/>
				
					<line fill="none" stroke="#00ABEB" stroke-width="0.15" stroke-miterlimit="10" x1="-31.966" y1="110.286" x2="87.354" y2="-9.034"/>
				
					<line fill="none" stroke="#00ABEB" stroke-width="0.15" stroke-miterlimit="10" x1="-29.131" y1="110.286" x2="90.189" y2="-9.034"/>
				
					<line fill="none" stroke="#00ABEB" stroke-width="0.15" stroke-miterlimit="10" x1="-26.296" y1="110.286" x2="93.024" y2="-9.034"/>
				
					<line fill="none" stroke="#00ABEB" stroke-width="0.15" stroke-miterlimit="10" x1="-23.462" y1="110.286" x2="95.858" y2="-9.034"/>
				
					<line fill="none" stroke="#00ABEB" stroke-width="0.15" stroke-miterlimit="10" x1="-20.627" y1="110.286" x2="98.693" y2="-9.034"/>
				
					<line fill="none" stroke="#00ABEB" stroke-width="0.15" stroke-miterlimit="10" x1="-17.793" y1="110.286" x2="101.527" y2="-9.034"/>
				
					<line fill="none" stroke="#00ABEB" stroke-width="0.15" stroke-miterlimit="10" x1="-14.958" y1="110.286" x2="104.362" y2="-9.034"/>
				
					<line fill="none" stroke="#00ABEB" stroke-width="0.15" stroke-miterlimit="10" x1="-12.123" y1="110.286" x2="107.197" y2="-9.034"/>
				
					<line fill="none" stroke="#00ABEB" stroke-width="0.15" stroke-miterlimit="10" x1="-9.289" y1="110.286" x2="110.031" y2="-9.034"/>
				
					<line fill="none" stroke="#00ABEB" stroke-width="0.15" stroke-miterlimit="10" x1="-6.454" y1="110.286" x2="112.866" y2="-9.034"/>
				
					<line fill="none" stroke="#00ABEB" stroke-width="0.15" stroke-miterlimit="10" x1="-3.619" y1="110.286" x2="115.701" y2="-9.034"/>
				
					<line fill="none" stroke="#00ABEB" stroke-width="0.15" stroke-miterlimit="10" x1="-0.785" y1="110.286" x2="118.535" y2="-9.034"/>
				
					<line fill="none" stroke="#00ABEB" stroke-width="0.15" stroke-miterlimit="10" x1="2.05" y1="110.286" x2="121.37" y2="-9.034"/>
				
					<line fill="none" stroke="#00ABEB" stroke-width="0.15" stroke-miterlimit="10" x1="4.885" y1="110.286" x2="124.205" y2="-9.034"/>
				
					<line fill="none" stroke="#00ABEB" stroke-width="0.15" stroke-miterlimit="10" x1="7.719" y1="110.286" x2="127.039" y2="-9.034"/>
				
					<line fill="none" stroke="#00ABEB" stroke-width="0.15" stroke-miterlimit="10" x1="10.554" y1="110.286" x2="129.874" y2="-9.034"/>
				
					<line fill="none" stroke="#00ABEB" stroke-width="0.15" stroke-miterlimit="10" x1="13.389" y1="110.286" x2="132.709" y2="-9.034"/>
				
					<line fill="none" stroke="#00ABEB" stroke-width="0.15" stroke-miterlimit="10" x1="16.223" y1="110.286" x2="135.543" y2="-9.034"/>
				
					<line fill="none" stroke="#00ABEB" stroke-width="0.15" stroke-miterlimit="10" x1="19.058" y1="110.286" x2="138.378" y2="-9.034"/>
				
					<line fill="none" stroke="#00ABEB" stroke-width="0.15" stroke-miterlimit="10" x1="21.893" y1="110.286" x2="141.213" y2="-9.034"/>
				
					<line fill="none" stroke="#00ABEB" stroke-width="0.15" stroke-miterlimit="10" x1="24.727" y1="110.286" x2="144.047" y2="-9.034"/>
				
					<line fill="none" stroke="#00ABEB" stroke-width="0.15" stroke-miterlimit="10" x1="27.562" y1="110.286" x2="146.882" y2="-9.034"/>
				
					<line fill="none" stroke="#00ABEB" stroke-width="0.15" stroke-miterlimit="10" x1="30.396" y1="110.286" x2="149.716" y2="-9.034"/>
				
					<line fill="none" stroke="#00ABEB" stroke-width="0.15" stroke-miterlimit="10" x1="33.231" y1="110.286" x2="152.551" y2="-9.034"/>
				
					<line fill="none" stroke="#00ABEB" stroke-width="0.15" stroke-miterlimit="10" x1="36.066" y1="110.286" x2="155.386" y2="-9.034"/>
				
					<line fill="none" stroke="#00ABEB" stroke-width="0.15" stroke-miterlimit="10" x1="38.9" y1="110.286" x2="158.22" y2="-9.034"/>
				
					<line fill="none" stroke="#00ABEB" stroke-width="0.15" stroke-miterlimit="10" x1="41.735" y1="110.286" x2="161.055" y2="-9.034"/>
				
					<line fill="none" stroke="#00ABEB" stroke-width="0.15" stroke-miterlimit="10" x1="44.57" y1="110.286" x2="163.89" y2="-9.034"/>
				
					<line fill="none" stroke="#00ABEB" stroke-width="0.15" stroke-miterlimit="10" x1="47.404" y1="110.286" x2="166.724" y2="-9.034"/>
				
					<line fill="none" stroke="#00ABEB" stroke-width="0.15" stroke-miterlimit="10" x1="50.239" y1="110.286" x2="169.559" y2="-9.034"/>
				
					<line fill="none" stroke="#00ABEB" stroke-width="0.15" stroke-miterlimit="10" x1="53.074" y1="110.286" x2="172.394" y2="-9.034"/>
				
					<line fill="none" stroke="#00ABEB" stroke-width="0.15" stroke-miterlimit="10" x1="55.908" y1="110.286" x2="175.228" y2="-9.034"/>
				
					<line fill="none" stroke="#00ABEB" stroke-width="0.15" stroke-miterlimit="10" x1="58.743" y1="110.286" x2="178.063" y2="-9.034"/>
				
					<line fill="none" stroke="#00ABEB" stroke-width="0.15" stroke-miterlimit="10" x1="61.578" y1="110.286" x2="180.898" y2="-9.034"/>
				
					<line fill="none" stroke="#00ABEB" stroke-width="0.15" stroke-miterlimit="10" x1="64.412" y1="110.286" x2="183.732" y2="-9.034"/>
				
					<line fill="none" stroke="#00ABEB" stroke-width="0.15" stroke-miterlimit="10" x1="67.247" y1="110.286" x2="186.567" y2="-9.034"/>
				
					<line fill="none" stroke="#00ABEB" stroke-width="0.15" stroke-miterlimit="10" x1="70.082" y1="110.286" x2="189.402" y2="-9.034"/>
				
					<line fill="none" stroke="#00ABEB" stroke-width="0.15" stroke-miterlimit="10" x1="72.916" y1="110.286" x2="192.236" y2="-9.034"/>
				
					<line fill="none" stroke="#00ABEB" stroke-width="0.15" stroke-miterlimit="10" x1="75.751" y1="110.286" x2="195.071" y2="-9.034"/>
				
					<line fill="none" stroke="#00ABEB" stroke-width="0.15" stroke-miterlimit="10" x1="78.585" y1="110.286" x2="197.905" y2="-9.034"/>
				
					<line fill="none" stroke="#00ABEB" stroke-width="0.15" stroke-miterlimit="10" x1="81.42" y1="110.286" x2="200.74" y2="-9.034"/>
				
					<line fill="none" stroke="#00ABEB" stroke-width="0.15" stroke-miterlimit="10" x1="84.255" y1="110.286" x2="203.575" y2="-9.034"/>
				
					<line fill="none" stroke="#00ABEB" stroke-width="0.15" stroke-miterlimit="10" x1="87.089" y1="110.286" x2="206.409" y2="-9.034"/>
				
					<line fill="none" stroke="#00ABEB" stroke-width="0.15" stroke-miterlimit="10" x1="89.924" y1="110.286" x2="209.244" y2="-9.034"/>
				
					<line fill="none" stroke="#00ABEB" stroke-width="0.15" stroke-miterlimit="10" x1="92.759" y1="110.286" x2="212.079" y2="-9.034"/>
				
					<line fill="none" stroke="#00ABEB" stroke-width="0.15" stroke-miterlimit="10" x1="95.593" y1="110.286" x2="214.913" y2="-9.034"/>
			</g>
			<g id="Horizontal_5_mm_00000011735556503592991880000008134099091165005186_">
				
					<line fill="none" stroke="#00ABEB" stroke-width="0.3" stroke-miterlimit="10" x1="-131.538" y1="110.295" x2="95.578" y2="110.295"/>
				
					<line fill="none" stroke="#00ABEB" stroke-width="0.3" stroke-miterlimit="10" x1="-121.598" y1="100.356" x2="105.518" y2="100.356"/>
				
					<line fill="none" stroke="#00ABEB" stroke-width="0.3" stroke-miterlimit="10" x1="-111.658" y1="90.416" x2="115.457" y2="90.416"/>
				
					<line fill="none" stroke="#00ABEB" stroke-width="0.3" stroke-miterlimit="10" x1="-101.718" y1="80.476" x2="125.397" y2="80.476"/>
				
					<line fill="none" stroke="#00ABEB" stroke-width="0.3" stroke-miterlimit="10" x1="-91.779" y1="70.537" x2="135.337" y2="70.537"/>
				
					<line fill="none" stroke="#00ABEB" stroke-width="0.3" stroke-miterlimit="10" x1="-81.839" y1="60.597" x2="145.277" y2="60.597"/>
				
					<line fill="none" stroke="#00ABEB" stroke-width="0.3" stroke-miterlimit="10" x1="-71.9" y1="50.658" x2="155.216" y2="50.658"/>
				
					<line fill="none" stroke="#00ABEB" stroke-width="0.3" stroke-miterlimit="10" x1="-61.959" y1="40.718" x2="165.156" y2="40.718"/>
				
					<line fill="none" stroke="#00ABEB" stroke-width="0.3" stroke-miterlimit="10" x1="-52.02" y1="30.778" x2="175.096" y2="30.778"/>
				
					<line fill="none" stroke="#00ABEB" stroke-width="0.3" stroke-miterlimit="10" x1="-42.08" y1="20.838" x2="185.036" y2="20.838"/>
				
					<line fill="none" stroke="#00ABEB" stroke-width="0.3" stroke-miterlimit="10" x1="-32.141" y1="10.899" x2="194.975" y2="10.899"/>
			</g>
			<g id="Vertical_5_mm_00000064346364918789686960000003233481195482251947_">
				
					<line fill="none" stroke="#00ABEB" stroke-width="0.3" stroke-miterlimit="10" x1="-131.178" y1="110.286" x2="-11.665" y2="-9.226"/>
				
					<line fill="none" stroke="#00ABEB" stroke-width="0.3" stroke-miterlimit="10" x1="-117.005" y1="110.286" x2="2.508" y2="-9.226"/>
				
					<line fill="none" stroke="#00ABEB" stroke-width="0.3" stroke-miterlimit="10" x1="-102.832" y1="110.286" x2="16.681" y2="-9.226"/>
				
					<line fill="none" stroke="#00ABEB" stroke-width="0.3" stroke-miterlimit="10" x1="-88.659" y1="110.286" x2="30.854" y2="-9.226"/>
				
					<line fill="none" stroke="#00ABEB" stroke-width="0.3" stroke-miterlimit="10" x1="-74.485" y1="110.286" x2="45.028" y2="-9.226"/>
				
					<line fill="none" stroke="#00ABEB" stroke-width="0.3" stroke-miterlimit="10" x1="-60.312" y1="110.286" x2="59.201" y2="-9.226"/>
				
					<line fill="none" stroke="#00ABEB" stroke-width="0.3" stroke-miterlimit="10" x1="-46.139" y1="110.286" x2="73.374" y2="-9.226"/>
				
					<line fill="none" stroke="#00ABEB" stroke-width="0.3" stroke-miterlimit="10" x1="-31.966" y1="110.286" x2="87.547" y2="-9.226"/>
				
					<line fill="none" stroke="#00ABEB" stroke-width="0.3" stroke-miterlimit="10" x1="-17.793" y1="110.286" x2="101.72" y2="-9.226"/>
				
					<line fill="none" stroke="#00ABEB" stroke-width="0.3" stroke-miterlimit="10" x1="-3.619" y1="110.286" x2="115.894" y2="-9.226"/>
				
					<line fill="none" stroke="#00ABEB" stroke-width="0.3" stroke-miterlimit="10" x1="10.554" y1="110.286" x2="130.067" y2="-9.226"/>
				
					<line fill="none" stroke="#00ABEB" stroke-width="0.3" stroke-miterlimit="10" x1="24.727" y1="110.286" x2="144.24" y2="-9.226"/>
				
					<line fill="none" stroke="#00ABEB" stroke-width="0.3" stroke-miterlimit="10" x1="38.9" y1="110.286" x2="158.413" y2="-9.226"/>
				
					<line fill="none" stroke="#00ABEB" stroke-width="0.3" stroke-miterlimit="10" x1="53.074" y1="110.286" x2="172.587" y2="-9.226"/>
				
					<line fill="none" stroke="#00ABEB" stroke-width="0.3" stroke-miterlimit="10" x1="67.247" y1="110.286" x2="186.76" y2="-9.226"/>
				
					<line fill="none" stroke="#00ABEB" stroke-width="0.3" stroke-miterlimit="10" x1="81.42" y1="110.286" x2="200.933" y2="-9.226"/>
				
					<line fill="none" stroke="#00ABEB" stroke-width="0.3" stroke-miterlimit="10" x1="95.593" y1="110.286" x2="215.106" y2="-9.226"/>
			</g>
			<g id="Horizontal_10_mm_00000163045836177147705350000008480455355013810362_">
				
					<line id="_x31_9_00000057116790517712807720000015084113881736219806_" fill="none" stroke="#00ABEB" stroke-width="0.7" stroke-miterlimit="10" x1="-131.538" y1="110.295" x2="95.578" y2="110.295"/>
				
					<line id="_x32_0_00000024685878617286333290000013167547815532084100_" fill="none" stroke="#00ABEB" stroke-width="0.7" stroke-miterlimit="10" x1="-111.658" y1="90.416" x2="115.457" y2="90.416"/>
				
					<line id="_x32_1_00000138564813020868535020000012777939180148238773_" fill="none" stroke="#00ABEB" stroke-width="0.7" stroke-miterlimit="10" x1="-91.779" y1="70.537" x2="135.337" y2="70.537"/>
				
					<line id="_x32_2_00000052807586205252870140000014502512662559454639_" fill="none" stroke="#00ABEB" stroke-width="0.7" stroke-miterlimit="10" x1="-71.9" y1="50.658" x2="155.216" y2="50.658"/>
				
					<line id="_x32_3_00000051376893246677475670000009295515732899575694_" fill="none" stroke="#00ABEB" stroke-width="0.7" stroke-miterlimit="10" x1="-52.02" y1="30.778" x2="175.096" y2="30.778"/>
				
					<line id="_x32_4_00000099657911357833521510000007853591198542098087_" fill="none" stroke="#00ABEB" stroke-width="0.7" stroke-miterlimit="10" x1="-32.141" y1="10.899" x2="194.975" y2="10.899"/>
				
					<line id="_x32_5_00000155127691660191171140000008292164438978366870_" fill="none" stroke="#00ABEB" stroke-width="0.7" stroke-miterlimit="10" x1="-12.261" y1="-8.981" x2="214.855" y2="-8.981"/>
			</g>
			<g id="Vertical_10_mm_00000134969164297783457920000010833503864539426239_">
				
					<line id="_x30__00000151539528360119995570000005083818057555393183_" fill="none" stroke="#00ABEB" stroke-width="0.7" stroke-miterlimit="10" x1="-131.178" y1="110.286" x2="-11.665" y2="-9.226"/>
				
					<line id="_x31__00000021823889366233599640000011971139016478256513_" fill="none" stroke="#00ABEB" stroke-width="0.7" stroke-miterlimit="10" x1="-102.832" y1="110.286" x2="16.681" y2="-9.226"/>
				
					<line id="_x32__00000071550223824624162640000006130814236846722696_" fill="none" stroke="#00ABEB" stroke-width="0.7" stroke-miterlimit="10" x1="-74.485" y1="110.286" x2="45.028" y2="-9.226"/>
				
					<line id="_x33__00000042015976804734918030000005045165563697445304_" fill="none" stroke="#00ABEB" stroke-width="0.7" stroke-miterlimit="10" x1="-46.139" y1="110.286" x2="73.374" y2="-9.226"/>
				
					<line id="_x34__00000081637789328126233800000002486991317463304126_" fill="none" stroke="#00ABEB" stroke-width="0.7" stroke-miterlimit="10" x1="-17.793" y1="110.286" x2="101.72" y2="-9.226"/>
				
					<line id="_x35__00000051353690731882489090000004794744233340785543_" fill="none" stroke="#00ABEB" stroke-width="0.7" stroke-miterlimit="10" x1="10.554" y1="110.286" x2="130.067" y2="-9.226"/>
				
					<line id="_x36__00000011745311307505536660000010485558803267122343_" fill="none" stroke="#00ABEB" stroke-width="0.7" stroke-miterlimit="10" x1="38.9" y1="110.286" x2="158.413" y2="-9.226"/>
				
					<line id="_x37__00000045602144989735358580000003937589459941247142_" fill="none" stroke="#00ABEB" stroke-width="0.7" stroke-miterlimit="10" x1="67.247" y1="110.286" x2="186.76" y2="-9.226"/>
				
					<line id="_x38__00000047029857857898873560000014194396358708286345_" fill="none" stroke="#00ABEB" stroke-width="0.7" stroke-miterlimit="10" x1="95.593" y1="110.286" x2="215.106" y2="-9.226"/>
			</g>
		</g>
	</g>
</g>
<g id="Axis" display="none">
	<g id="lines" display="inline">
		<g>
			<g>
				<line fill="none" stroke="#000000" stroke-width="0.5" stroke-miterlimit="10" x1="41.84" y1="50.648" x2="41.84" y2="13.439"/>
				<g>
					<polygon points="43.692,14.843 41.84,14.057 39.988,14.843 41.84,10.454 					"/>
				</g>
			</g>
		</g>
		<g>
			<g>
				
					<line fill="none" stroke="#000000" stroke-width="0.5" stroke-miterlimit="10" x1="41.84" y1="50.648" x2="80.046" y2="50.648"/>
				<g>
					<polygon points="78.642,52.499 79.428,50.648 78.642,48.796 83.031,50.648 					"/>
				</g>
			</g>
		</g>
		<g>
			<g>
				
					<line fill="none" stroke="#000000" stroke-width="0.5" stroke-miterlimit="10" x1="41.84" y1="50.648" x2="17.134" y2="75.354"/>
				<g>
					<polygon points="16.817,73.052 17.57,74.917 19.436,75.67 15.023,77.465 					"/>
				</g>
			</g>
		</g>
	</g>
	<g id="names" display="inline">
		<g>
			<path d="M80.826,56.05c0.51-0.846,0.732-1.277,0.732-1.542c0-0.084-0.042-0.12-0.156-0.192c-0.12-0.078-0.156-0.138-0.156-0.234
				c0-0.132,0.102-0.222,0.24-0.222c0.18,0,0.312,0.15,0.312,0.33c0,0.342-0.288,1.001-0.786,1.829
				c-0.624,1.032-1.265,1.721-1.607,1.721c-0.18,0-0.306-0.102-0.306-0.258c0-0.132,0.102-0.24,0.234-0.24
				c0.21,0,0.21,0.167,0.366,0.167c0.078,0,0.15-0.048,0.288-0.198c0.108-0.114,0.378-0.468,0.426-0.545
				c0.036-0.072,0.06-0.144,0.06-0.21c0-0.24-0.33-1.583-0.492-1.991c-0.114-0.293-0.222-0.384-0.462-0.384
				c-0.066,0-0.12,0.006-0.186,0.024v-0.102c0.066-0.012,0.132-0.024,0.192-0.036c0.12-0.024,0.318-0.06,0.642-0.108h0.024
				c0.09,0,0.408,0.996,0.51,1.529L80.826,56.05z"/>
		</g>
		<g>
			<path d="M36.974,12.696c0.348,0.078,0.479,0.144,0.719,0.498c0.156,0.228,0.27,0.3,0.42,0.3c0.096,0,0.162-0.036,0.162-0.09
				c0-0.024-0.012-0.054-0.03-0.09c-0.036-0.072-0.048-0.12-0.048-0.167c0.006-0.102,0.102-0.204,0.198-0.204
				c0.126,0,0.21,0.09,0.21,0.222c0,0.24-0.222,0.456-0.558,0.456c-0.174,0-0.378-0.078-0.678-0.264
				c-0.282-0.174-0.474-0.251-0.629-0.251c-0.096,0-0.174,0.03-0.27,0.108l-0.054-0.054l1.859-2.231h-0.816
				c-0.312,0-0.426,0.054-0.545,0.36l-0.096-0.024l0.192-0.695h1.697v0.066L36.974,12.696z"/>
		</g>
		<g>
			<path d="M13.534,73.472c0.419-0.642,0.642-0.857,0.905-0.857c0.144,0,0.246,0.09,0.246,0.222c0,0.126-0.084,0.216-0.204,0.216
				c-0.114,0-0.168-0.102-0.312-0.102c-0.108,0-0.324,0.264-0.588,0.726c0,0.042,0.012,0.126,0.048,0.27l0.192,0.804
				c0.042,0.168,0.096,0.246,0.18,0.246c0.078,0,0.144-0.06,0.282-0.24c0.054-0.072,0.078-0.108,0.126-0.168l0.09,0.054
				c-0.348,0.54-0.504,0.684-0.731,0.684c-0.192,0-0.282-0.108-0.354-0.408l-0.174-0.714l-0.528,0.714
				c-0.264,0.354-0.384,0.408-0.57,0.408c-0.186,0-0.3-0.096-0.3-0.252c0-0.12,0.084-0.216,0.204-0.216
				c0.054,0,0.114,0.024,0.192,0.066c0.06,0.036,0.12,0.054,0.156,0.054c0.066,0,0.18-0.114,0.306-0.294l0.492-0.696l-0.168-0.743
				c-0.084-0.36-0.126-0.408-0.276-0.408c-0.048,0-0.12,0.012-0.234,0.042l-0.108,0.03l-0.018-0.096l0.066-0.024
				c0.366-0.132,0.564-0.174,0.702-0.174c0.15,0,0.222,0.108,0.306,0.516L13.534,73.472z"/>
		</g>
	</g>
</g>
<g id="Layer_5">
	<path opacity="0.1" d="M118.284,2.02L55.686,64.617l-0.038-0.038c-7.733,7.733-20.27,7.733-28.002,0s-7.733-20.27,0-28.002
		l57.076-57.076"/>
	
		<circle fill="none" stroke="#000000" stroke-width="0.7" stroke-linecap="round" stroke-linejoin="round" stroke-miterlimit="10" cx="41.647" cy="50.578" r="19.8"/>
	
		<line fill="none" stroke="#000000" stroke-width="0.7" stroke-linecap="round" stroke-linejoin="round" stroke-miterlimit="10" x1="84.722" y1="-20.499" x2="27.646" y2="36.577"/>
	
		<line fill="none" stroke="#000000" stroke-width="0.7" stroke-linecap="round" stroke-linejoin="round" stroke-miterlimit="10" x1="118.284" y1="2.02" x2="55.686" y2="64.617"/>
	<g>
		<g>
			
				<line fill="none" stroke="#000000" stroke-width="0.796" stroke-linecap="round" stroke-linejoin="round" x1="89.132" y1="1.727" x2="78.569" y2="12.291"/>
			<g>
				<polygon points="78.132,8.124 78.928,8.152 78.784,12.074 82.707,11.931 82.735,12.727 77.958,12.901 				"/>
			</g>
		</g>
	</g>
	<g>
		<path d="M92.122,6.35c-0.448,0.056-0.52,0.128-0.656,0.616l-0.959,3.43c-0.072,0.256-0.12,0.448-0.12,0.607
			c0,0.224,0.096,0.256,0.551,0.312v0.128h-1.951v-0.128c0.44-0.08,0.552-0.152,0.671-0.6l0.96-3.526
			c0.056-0.2,0.104-0.368,0.104-0.496c0-0.2-0.128-0.32-0.576-0.344V6.222h1.975V6.35z"/>
	</g>
	<g>
		<g>
			
				<line fill="none" stroke="#00A300" stroke-width="0.2" stroke-miterlimit="10" x1="41.915" y1="50.578" x2="40.707" y2="51.468"/>
			
				<line fill="none" stroke="#00A300" stroke-width="0.2" stroke-miterlimit="10" stroke-dasharray="3.3389,3.3389" x1="38.02" y1="53.449" x2="28.613" y2="60.383"/>
			
				<line fill="none" stroke="#00A300" stroke-width="0.2" stroke-miterlimit="10" x1="27.269" y1="61.374" x2="26.062" y2="62.264"/>
		</g>
	</g>
	<g>
		<path fill="#00A300" d="M31.68,50.022c1.056,0,1.631,0.448,1.631,1.127c0,0.384-0.2,0.775-0.527,1.023
			c-0.248,0.192-0.512,0.288-1.047,0.408l0.711,1.879c0.176,0.472,0.336,0.656,0.696,0.656v0.128h-1.175l-0.984-2.591l-0.527-0.04
			l-0.44,1.623c-0.088,0.312-0.104,0.424-0.104,0.503c0,0.24,0.08,0.328,0.536,0.376v0.128h-1.943v-0.128
			c0.44-0.056,0.552-0.208,0.68-0.68l0.952-3.446c0.056-0.216,0.096-0.368,0.096-0.503c0-0.088-0.056-0.184-0.112-0.224
			c-0.088-0.056-0.12-0.064-0.456-0.112v-0.128H31.68z M30.553,52.317c0.2,0.032,0.264,0.04,0.408,0.04
			c0.952,0,1.511-0.456,1.511-1.2c0-0.552-0.336-0.896-0.959-0.896c-0.248,0-0.416,0.088-0.456,0.24L30.553,52.317z"/>
	</g>
	<g>
	</g>
	<g>
	</g>
</g>
</svg>
