<?xml version="1.0" encoding="utf-8"?>
<!-- Generator: Adobe Illustrator 26.0.1, SVG Export Plug-In . SVG Version: 6.00 Build 0)  -->
<svg version="1.1" xmlns="http://www.w3.org/2000/svg" xmlns:xlink="http://www.w3.org/1999/xlink" x="0px" y="0px"
	 viewBox="0 0 135.534 101.669" enable-background="new 0 0 135.534 101.669" xml:space="preserve">
<g id="Graph_paper_slanted" opacity="0.5">
	<g id="Clipped_grid_00000003068028900943026870000011536296927355263674_">
		<defs>
			<polygon id="SVGID_1_" points="79.386,103.436 -52.196,103.436 30.351,21.571 161.933,21.571 			"/>
		</defs>
		<clipPath id="SVGID_00000173866872724641412260000001565136812776500667_">
			<use xlink:href="#SVGID_1_"  overflow="visible"/>
		</clipPath>
		
			<g id="Grid_00000142891597197125820610000009767860333217090727_" opacity="0.25" clip-path="url(#SVGID_00000173866872724641412260000001565136812776500667_)">
			<g id="Horizontal_1_mm_00000151508609497893311650000018408800186222605470_">
				
					<line fill="none" stroke="#00ABEB" stroke-width="0.15" stroke-miterlimit="10" x1="2.087" y1="-6.993" x2="228.928" y2="-6.993"/>
				
					<line fill="none" stroke="#00ABEB" stroke-width="0.15" stroke-miterlimit="10" x1="4.075" y1="-8.981" x2="230.916" y2="-8.981"/>
				
					<line fill="none" stroke="#00ABEB" stroke-width="0.15" stroke-miterlimit="10" x1="-115.201" y1="110.295" x2="111.639" y2="110.295"/>
				
					<line fill="none" stroke="#00ABEB" stroke-width="0.15" stroke-miterlimit="10" x1="-113.213" y1="108.307" x2="113.628" y2="108.307"/>
				
					<line fill="none" stroke="#00ABEB" stroke-width="0.15" stroke-miterlimit="10" x1="-111.226" y1="106.32" x2="115.615" y2="106.32"/>
				
					<line fill="none" stroke="#00ABEB" stroke-width="0.15" stroke-miterlimit="10" x1="-109.238" y1="104.332" x2="117.603" y2="104.332"/>
				
					<line fill="none" stroke="#00ABEB" stroke-width="0.15" stroke-miterlimit="10" x1="-107.249" y1="102.343" x2="119.591" y2="102.343"/>
				
					<line fill="none" stroke="#00ABEB" stroke-width="0.15" stroke-miterlimit="10" x1="-105.262" y1="100.356" x2="121.579" y2="100.356"/>
				
					<line fill="none" stroke="#00ABEB" stroke-width="0.15" stroke-miterlimit="10" x1="-103.274" y1="98.368" x2="123.567" y2="98.368"/>
				
					<line fill="none" stroke="#00ABEB" stroke-width="0.15" stroke-miterlimit="10" x1="-101.286" y1="96.38" x2="125.554" y2="96.38"/>
				
					<line fill="none" stroke="#00ABEB" stroke-width="0.15" stroke-miterlimit="10" x1="-99.298" y1="94.392" x2="127.543" y2="94.392"/>
				
					<line fill="none" stroke="#00ABEB" stroke-width="0.15" stroke-miterlimit="10" x1="-97.31" y1="92.404" x2="129.531" y2="92.404"/>
				
					<line fill="none" stroke="#00ABEB" stroke-width="0.15" stroke-miterlimit="10" x1="-95.322" y1="90.416" x2="131.519" y2="90.416"/>
				
					<line fill="none" stroke="#00ABEB" stroke-width="0.15" stroke-miterlimit="10" x1="-93.334" y1="88.428" x2="133.507" y2="88.428"/>
				
					<line fill="none" stroke="#00ABEB" stroke-width="0.15" stroke-miterlimit="10" x1="-91.346" y1="86.44" x2="135.495" y2="86.44"/>
				
					<line fill="none" stroke="#00ABEB" stroke-width="0.15" stroke-miterlimit="10" x1="-89.358" y1="84.452" x2="137.482" y2="84.452"/>
				
					<line fill="none" stroke="#00ABEB" stroke-width="0.15" stroke-miterlimit="10" x1="-87.37" y1="82.464" x2="139.471" y2="82.464"/>
				
					<line fill="none" stroke="#00ABEB" stroke-width="0.15" stroke-miterlimit="10" x1="-85.382" y1="80.476" x2="141.459" y2="80.476"/>
				
					<line fill="none" stroke="#00ABEB" stroke-width="0.15" stroke-miterlimit="10" x1="-83.395" y1="78.489" x2="143.446" y2="78.489"/>
				
					<line fill="none" stroke="#00ABEB" stroke-width="0.15" stroke-miterlimit="10" x1="-81.406" y1="76.501" x2="145.434" y2="76.501"/>
				
					<line fill="none" stroke="#00ABEB" stroke-width="0.15" stroke-miterlimit="10" x1="-79.418" y1="74.512" x2="147.423" y2="74.512"/>
				
					<line fill="none" stroke="#00ABEB" stroke-width="0.15" stroke-miterlimit="10" x1="-77.431" y1="72.525" x2="149.41" y2="72.525"/>
				
					<line fill="none" stroke="#00ABEB" stroke-width="0.15" stroke-miterlimit="10" x1="-75.443" y1="70.537" x2="151.398" y2="70.537"/>
				
					<line fill="none" stroke="#00ABEB" stroke-width="0.15" stroke-miterlimit="10" x1="-73.454" y1="68.548" x2="153.387" y2="68.548"/>
				
					<line fill="none" stroke="#00ABEB" stroke-width="0.15" stroke-miterlimit="10" x1="-71.467" y1="66.561" x2="155.374" y2="66.561"/>
				
					<line fill="none" stroke="#00ABEB" stroke-width="0.15" stroke-miterlimit="10" x1="-69.478" y1="64.573" x2="157.362" y2="64.573"/>
				
					<line fill="none" stroke="#00ABEB" stroke-width="0.15" stroke-miterlimit="10" x1="-67.491" y1="62.585" x2="159.35" y2="62.585"/>
				
					<line fill="none" stroke="#00ABEB" stroke-width="0.15" stroke-miterlimit="10" x1="-65.503" y1="60.597" x2="161.338" y2="60.597"/>
				
					<line fill="none" stroke="#00ABEB" stroke-width="0.15" stroke-miterlimit="10" x1="-63.515" y1="58.609" x2="163.326" y2="58.609"/>
				
					<line fill="none" stroke="#00ABEB" stroke-width="0.15" stroke-miterlimit="10" x1="-61.527" y1="56.621" x2="165.314" y2="56.621"/>
				
					<line fill="none" stroke="#00ABEB" stroke-width="0.15" stroke-miterlimit="10" x1="-59.539" y1="54.633" x2="167.302" y2="54.633"/>
				
					<line fill="none" stroke="#00ABEB" stroke-width="0.15" stroke-miterlimit="10" x1="-57.551" y1="52.645" x2="169.29" y2="52.645"/>
				
					<line fill="none" stroke="#00ABEB" stroke-width="0.15" stroke-miterlimit="10" x1="-55.563" y1="50.658" x2="171.278" y2="50.658"/>
				
					<line fill="none" stroke="#00ABEB" stroke-width="0.15" stroke-miterlimit="10" x1="-53.575" y1="48.669" x2="173.266" y2="48.669"/>
				
					<line fill="none" stroke="#00ABEB" stroke-width="0.15" stroke-miterlimit="10" x1="-51.587" y1="46.681" x2="175.254" y2="46.681"/>
				
					<line fill="none" stroke="#00ABEB" stroke-width="0.15" stroke-miterlimit="10" x1="-49.6" y1="44.694" x2="177.241" y2="44.694"/>
				
					<line fill="none" stroke="#00ABEB" stroke-width="0.15" stroke-miterlimit="10" x1="-47.611" y1="42.706" x2="179.23" y2="42.706"/>
				
					<line fill="none" stroke="#00ABEB" stroke-width="0.15" stroke-miterlimit="10" x1="-45.623" y1="40.718" x2="181.218" y2="40.718"/>
				
					<line fill="none" stroke="#00ABEB" stroke-width="0.15" stroke-miterlimit="10" x1="-43.636" y1="38.73" x2="183.205" y2="38.73"/>
				
					<line fill="none" stroke="#00ABEB" stroke-width="0.15" stroke-miterlimit="10" x1="-41.648" y1="36.742" x2="185.193" y2="36.742"/>
				
					<line fill="none" stroke="#00ABEB" stroke-width="0.15" stroke-miterlimit="10" x1="-39.659" y1="34.754" x2="187.181" y2="34.754"/>
				
					<line fill="none" stroke="#00ABEB" stroke-width="0.15" stroke-miterlimit="10" x1="-37.672" y1="32.766" x2="189.169" y2="32.766"/>
				
					<line fill="none" stroke="#00ABEB" stroke-width="0.15" stroke-miterlimit="10" x1="-35.683" y1="30.778" x2="191.157" y2="30.778"/>
				
					<line fill="none" stroke="#00ABEB" stroke-width="0.15" stroke-miterlimit="10" x1="-33.696" y1="28.79" x2="193.145" y2="28.79"/>
				
					<line fill="none" stroke="#00ABEB" stroke-width="0.15" stroke-miterlimit="10" x1="-31.708" y1="26.802" x2="195.133" y2="26.802"/>
				
					<line fill="none" stroke="#00ABEB" stroke-width="0.15" stroke-miterlimit="10" x1="-29.72" y1="24.814" x2="197.121" y2="24.814"/>
				
					<line fill="none" stroke="#00ABEB" stroke-width="0.15" stroke-miterlimit="10" x1="-27.732" y1="22.827" x2="199.109" y2="22.827"/>
				
					<line fill="none" stroke="#00ABEB" stroke-width="0.15" stroke-miterlimit="10" x1="-25.744" y1="20.838" x2="201.097" y2="20.838"/>
				
					<line fill="none" stroke="#00ABEB" stroke-width="0.15" stroke-miterlimit="10" x1="-23.756" y1="18.85" x2="203.085" y2="18.85"/>
				
					<line fill="none" stroke="#00ABEB" stroke-width="0.15" stroke-miterlimit="10" x1="-21.768" y1="16.863" x2="205.073" y2="16.863"/>
				
					<line fill="none" stroke="#00ABEB" stroke-width="0.15" stroke-miterlimit="10" x1="-19.78" y1="14.875" x2="207.061" y2="14.875"/>
				
					<line fill="none" stroke="#00ABEB" stroke-width="0.15" stroke-miterlimit="10" x1="-17.792" y1="12.886" x2="209.049" y2="12.886"/>
				
					<line fill="none" stroke="#00ABEB" stroke-width="0.15" stroke-miterlimit="10" x1="-15.804" y1="10.899" x2="211.036" y2="10.899"/>
				
					<line fill="none" stroke="#00ABEB" stroke-width="0.15" stroke-miterlimit="10" x1="-13.816" y1="8.911" x2="213.025" y2="8.911"/>
				
					<line fill="none" stroke="#00ABEB" stroke-width="0.15" stroke-miterlimit="10" x1="-11.828" y1="6.923" x2="215.013" y2="6.923"/>
				<line fill="none" stroke="#00ABEB" stroke-width="0.15" stroke-miterlimit="10" x1="-9.841" y1="4.935" x2="217" y2="4.935"/>
				
					<line fill="none" stroke="#00ABEB" stroke-width="0.15" stroke-miterlimit="10" x1="-7.852" y1="2.947" x2="218.989" y2="2.947"/>
				
					<line fill="none" stroke="#00ABEB" stroke-width="0.15" stroke-miterlimit="10" x1="-5.865" y1="0.959" x2="220.976" y2="0.959"/>
				
					<line fill="none" stroke="#00ABEB" stroke-width="0.15" stroke-miterlimit="10" x1="-3.876" y1="-1.029" x2="222.964" y2="-1.029"/>
				
					<line fill="none" stroke="#00ABEB" stroke-width="0.15" stroke-miterlimit="10" x1="-1.888" y1="-3.017" x2="224.952" y2="-3.017"/>
				
					<line fill="none" stroke="#00ABEB" stroke-width="0.15" stroke-miterlimit="10" x1="0.099" y1="-5.005" x2="226.94" y2="-5.005"/>
			</g>
			<g id="Vertical_1_mm_00000181073523592228201180000012361058669048395659_">
				<g>
					
						<line fill="none" stroke="#00ABEB" stroke-width="0.15" stroke-miterlimit="10" x1="-115.117" y1="110.286" x2="4.203" y2="-9.034"/>
				</g>
				
					<line fill="none" stroke="#00ABEB" stroke-width="0.15" stroke-miterlimit="10" x1="-112.283" y1="110.286" x2="7.037" y2="-9.034"/>
				
					<line fill="none" stroke="#00ABEB" stroke-width="0.15" stroke-miterlimit="10" x1="-109.448" y1="110.286" x2="9.872" y2="-9.034"/>
				
					<line fill="none" stroke="#00ABEB" stroke-width="0.15" stroke-miterlimit="10" x1="-106.613" y1="110.286" x2="12.707" y2="-9.034"/>
				
					<line fill="none" stroke="#00ABEB" stroke-width="0.15" stroke-miterlimit="10" x1="-103.779" y1="110.286" x2="15.541" y2="-9.034"/>
				
					<line fill="none" stroke="#00ABEB" stroke-width="0.15" stroke-miterlimit="10" x1="-100.944" y1="110.286" x2="18.376" y2="-9.034"/>
				
					<line fill="none" stroke="#00ABEB" stroke-width="0.15" stroke-miterlimit="10" x1="-98.109" y1="110.286" x2="21.211" y2="-9.034"/>
				
					<line fill="none" stroke="#00ABEB" stroke-width="0.15" stroke-miterlimit="10" x1="-95.275" y1="110.286" x2="24.045" y2="-9.034"/>
				
					<line fill="none" stroke="#00ABEB" stroke-width="0.15" stroke-miterlimit="10" x1="-92.439" y1="110.286" x2="26.881" y2="-9.034"/>
				
					<line fill="none" stroke="#00ABEB" stroke-width="0.15" stroke-miterlimit="10" x1="-89.605" y1="110.286" x2="29.715" y2="-9.034"/>
				
					<line fill="none" stroke="#00ABEB" stroke-width="0.15" stroke-miterlimit="10" x1="-86.77" y1="110.286" x2="32.55" y2="-9.034"/>
				
					<line fill="none" stroke="#00ABEB" stroke-width="0.15" stroke-miterlimit="10" x1="-83.935" y1="110.286" x2="35.385" y2="-9.034"/>
				
					<line fill="none" stroke="#00ABEB" stroke-width="0.15" stroke-miterlimit="10" x1="-81.101" y1="110.286" x2="38.219" y2="-9.034"/>
				
					<line fill="none" stroke="#00ABEB" stroke-width="0.15" stroke-miterlimit="10" x1="-78.267" y1="110.286" x2="41.053" y2="-9.034"/>
				
					<line fill="none" stroke="#00ABEB" stroke-width="0.15" stroke-miterlimit="10" x1="-75.432" y1="110.286" x2="43.888" y2="-9.034"/>
				
					<line fill="none" stroke="#00ABEB" stroke-width="0.15" stroke-miterlimit="10" x1="-72.598" y1="110.286" x2="46.722" y2="-9.034"/>
				
					<line fill="none" stroke="#00ABEB" stroke-width="0.15" stroke-miterlimit="10" x1="-69.763" y1="110.286" x2="49.557" y2="-9.034"/>
				
					<line fill="none" stroke="#00ABEB" stroke-width="0.15" stroke-miterlimit="10" x1="-66.928" y1="110.286" x2="52.392" y2="-9.034"/>
				
					<line fill="none" stroke="#00ABEB" stroke-width="0.15" stroke-miterlimit="10" x1="-64.094" y1="110.286" x2="55.226" y2="-9.034"/>
				
					<line fill="none" stroke="#00ABEB" stroke-width="0.15" stroke-miterlimit="10" x1="-61.259" y1="110.286" x2="58.061" y2="-9.034"/>
				
					<line fill="none" stroke="#00ABEB" stroke-width="0.15" stroke-miterlimit="10" x1="-58.424" y1="110.286" x2="60.896" y2="-9.034"/>
				
					<line fill="none" stroke="#00ABEB" stroke-width="0.15" stroke-miterlimit="10" x1="-55.59" y1="110.286" x2="63.73" y2="-9.034"/>
				
					<line fill="none" stroke="#00ABEB" stroke-width="0.15" stroke-miterlimit="10" x1="-52.755" y1="110.286" x2="66.565" y2="-9.034"/>
				
					<line fill="none" stroke="#00ABEB" stroke-width="0.15" stroke-miterlimit="10" x1="-49.92" y1="110.286" x2="69.4" y2="-9.034"/>
				
					<line fill="none" stroke="#00ABEB" stroke-width="0.15" stroke-miterlimit="10" x1="-47.085" y1="110.286" x2="72.235" y2="-9.034"/>
				
					<line fill="none" stroke="#00ABEB" stroke-width="0.15" stroke-miterlimit="10" x1="-44.25" y1="110.286" x2="75.07" y2="-9.034"/>
				
					<line fill="none" stroke="#00ABEB" stroke-width="0.15" stroke-miterlimit="10" x1="-41.416" y1="110.286" x2="77.904" y2="-9.034"/>
				
					<line fill="none" stroke="#00ABEB" stroke-width="0.15" stroke-miterlimit="10" x1="-38.581" y1="110.286" x2="80.739" y2="-9.034"/>
				
					<line fill="none" stroke="#00ABEB" stroke-width="0.15" stroke-miterlimit="10" x1="-35.746" y1="110.286" x2="83.574" y2="-9.034"/>
				
					<line fill="none" stroke="#00ABEB" stroke-width="0.15" stroke-miterlimit="10" x1="-32.913" y1="110.286" x2="86.407" y2="-9.034"/>
				
					<line fill="none" stroke="#00ABEB" stroke-width="0.15" stroke-miterlimit="10" x1="-30.078" y1="110.286" x2="89.242" y2="-9.034"/>
				
					<line fill="none" stroke="#00ABEB" stroke-width="0.15" stroke-miterlimit="10" x1="-27.243" y1="110.286" x2="92.077" y2="-9.034"/>
				
					<line fill="none" stroke="#00ABEB" stroke-width="0.15" stroke-miterlimit="10" x1="-24.409" y1="110.286" x2="94.911" y2="-9.034"/>
				
					<line fill="none" stroke="#00ABEB" stroke-width="0.15" stroke-miterlimit="10" x1="-21.574" y1="110.286" x2="97.746" y2="-9.034"/>
				
					<line fill="none" stroke="#00ABEB" stroke-width="0.15" stroke-miterlimit="10" x1="-18.739" y1="110.286" x2="100.581" y2="-9.034"/>
				
					<line fill="none" stroke="#00ABEB" stroke-width="0.15" stroke-miterlimit="10" x1="-15.905" y1="110.286" x2="103.415" y2="-9.034"/>
				
					<line fill="none" stroke="#00ABEB" stroke-width="0.15" stroke-miterlimit="10" x1="-13.07" y1="110.286" x2="106.25" y2="-9.034"/>
				
					<line fill="none" stroke="#00ABEB" stroke-width="0.15" stroke-miterlimit="10" x1="-10.235" y1="110.286" x2="109.085" y2="-9.034"/>
				
					<line fill="none" stroke="#00ABEB" stroke-width="0.15" stroke-miterlimit="10" x1="-7.401" y1="110.286" x2="111.919" y2="-9.034"/>
				
					<line fill="none" stroke="#00ABEB" stroke-width="0.15" stroke-miterlimit="10" x1="-4.566" y1="110.286" x2="114.754" y2="-9.034"/>
				
					<line fill="none" stroke="#00ABEB" stroke-width="0.15" stroke-miterlimit="10" x1="-1.732" y1="110.286" x2="117.588" y2="-9.034"/>
				
					<line fill="none" stroke="#00ABEB" stroke-width="0.15" stroke-miterlimit="10" x1="1.104" y1="110.286" x2="120.424" y2="-9.034"/>
				
					<line fill="none" stroke="#00ABEB" stroke-width="0.15" stroke-miterlimit="10" x1="3.939" y1="110.286" x2="123.259" y2="-9.034"/>
				
					<line fill="none" stroke="#00ABEB" stroke-width="0.15" stroke-miterlimit="10" x1="6.773" y1="110.286" x2="126.093" y2="-9.034"/>
				
					<line fill="none" stroke="#00ABEB" stroke-width="0.15" stroke-miterlimit="10" x1="9.608" y1="110.286" x2="128.928" y2="-9.034"/>
				
					<line fill="none" stroke="#00ABEB" stroke-width="0.15" stroke-miterlimit="10" x1="12.442" y1="110.286" x2="131.762" y2="-9.034"/>
				
					<line fill="none" stroke="#00ABEB" stroke-width="0.15" stroke-miterlimit="10" x1="15.276" y1="110.286" x2="134.596" y2="-9.034"/>
				
					<line fill="none" stroke="#00ABEB" stroke-width="0.15" stroke-miterlimit="10" x1="18.111" y1="110.286" x2="137.431" y2="-9.034"/>
				
					<line fill="none" stroke="#00ABEB" stroke-width="0.15" stroke-miterlimit="10" x1="20.946" y1="110.286" x2="140.266" y2="-9.034"/>
				
					<line fill="none" stroke="#00ABEB" stroke-width="0.15" stroke-miterlimit="10" x1="23.78" y1="110.286" x2="143.1" y2="-9.034"/>
				
					<line fill="none" stroke="#00ABEB" stroke-width="0.15" stroke-miterlimit="10" x1="26.615" y1="110.286" x2="145.935" y2="-9.034"/>
				
					<line fill="none" stroke="#00ABEB" stroke-width="0.15" stroke-miterlimit="10" x1="29.45" y1="110.286" x2="148.77" y2="-9.034"/>
				
					<line fill="none" stroke="#00ABEB" stroke-width="0.15" stroke-miterlimit="10" x1="32.284" y1="110.286" x2="151.604" y2="-9.034"/>
				
					<line fill="none" stroke="#00ABEB" stroke-width="0.15" stroke-miterlimit="10" x1="35.119" y1="110.286" x2="154.439" y2="-9.034"/>
				
					<line fill="none" stroke="#00ABEB" stroke-width="0.15" stroke-miterlimit="10" x1="37.954" y1="110.286" x2="157.274" y2="-9.034"/>
				
					<line fill="none" stroke="#00ABEB" stroke-width="0.15" stroke-miterlimit="10" x1="40.788" y1="110.286" x2="160.108" y2="-9.034"/>
				
					<line fill="none" stroke="#00ABEB" stroke-width="0.15" stroke-miterlimit="10" x1="43.624" y1="110.286" x2="162.944" y2="-9.034"/>
				
					<line fill="none" stroke="#00ABEB" stroke-width="0.15" stroke-miterlimit="10" x1="46.458" y1="110.286" x2="165.778" y2="-9.034"/>
				
					<line fill="none" stroke="#00ABEB" stroke-width="0.15" stroke-miterlimit="10" x1="49.293" y1="110.286" x2="168.613" y2="-9.034"/>
				
					<line fill="none" stroke="#00ABEB" stroke-width="0.15" stroke-miterlimit="10" x1="52.128" y1="110.286" x2="171.448" y2="-9.034"/>
				
					<line fill="none" stroke="#00ABEB" stroke-width="0.15" stroke-miterlimit="10" x1="54.962" y1="110.286" x2="174.282" y2="-9.034"/>
				
					<line fill="none" stroke="#00ABEB" stroke-width="0.15" stroke-miterlimit="10" x1="57.796" y1="110.286" x2="177.116" y2="-9.034"/>
				
					<line fill="none" stroke="#00ABEB" stroke-width="0.15" stroke-miterlimit="10" x1="60.631" y1="110.286" x2="179.951" y2="-9.034"/>
				
					<line fill="none" stroke="#00ABEB" stroke-width="0.15" stroke-miterlimit="10" x1="63.465" y1="110.286" x2="182.785" y2="-9.034"/>
				
					<line fill="none" stroke="#00ABEB" stroke-width="0.15" stroke-miterlimit="10" x1="66.3" y1="110.286" x2="185.62" y2="-9.034"/>
				
					<line fill="none" stroke="#00ABEB" stroke-width="0.15" stroke-miterlimit="10" x1="69.135" y1="110.286" x2="188.455" y2="-9.034"/>
				
					<line fill="none" stroke="#00ABEB" stroke-width="0.15" stroke-miterlimit="10" x1="71.969" y1="110.286" x2="191.289" y2="-9.034"/>
				
					<line fill="none" stroke="#00ABEB" stroke-width="0.15" stroke-miterlimit="10" x1="74.804" y1="110.286" x2="194.124" y2="-9.034"/>
				
					<line fill="none" stroke="#00ABEB" stroke-width="0.15" stroke-miterlimit="10" x1="77.639" y1="110.286" x2="196.959" y2="-9.034"/>
				
					<line fill="none" stroke="#00ABEB" stroke-width="0.15" stroke-miterlimit="10" x1="80.473" y1="110.286" x2="199.793" y2="-9.034"/>
				
					<line fill="none" stroke="#00ABEB" stroke-width="0.15" stroke-miterlimit="10" x1="83.308" y1="110.286" x2="202.628" y2="-9.034"/>
				
					<line fill="none" stroke="#00ABEB" stroke-width="0.15" stroke-miterlimit="10" x1="86.143" y1="110.286" x2="205.463" y2="-9.034"/>
				
					<line fill="none" stroke="#00ABEB" stroke-width="0.15" stroke-miterlimit="10" x1="88.978" y1="110.286" x2="208.298" y2="-9.034"/>
				
					<line fill="none" stroke="#00ABEB" stroke-width="0.15" stroke-miterlimit="10" x1="91.813" y1="110.286" x2="211.133" y2="-9.034"/>
				
					<line fill="none" stroke="#00ABEB" stroke-width="0.15" stroke-miterlimit="10" x1="94.647" y1="110.286" x2="213.967" y2="-9.034"/>
				
					<line fill="none" stroke="#00ABEB" stroke-width="0.15" stroke-miterlimit="10" x1="97.482" y1="110.286" x2="216.802" y2="-9.034"/>
				
					<line fill="none" stroke="#00ABEB" stroke-width="0.15" stroke-miterlimit="10" x1="100.317" y1="110.286" x2="219.637" y2="-9.034"/>
				
					<line fill="none" stroke="#00ABEB" stroke-width="0.15" stroke-miterlimit="10" x1="103.15" y1="110.286" x2="222.47" y2="-9.034"/>
				
					<line fill="none" stroke="#00ABEB" stroke-width="0.15" stroke-miterlimit="10" x1="105.985" y1="110.286" x2="225.305" y2="-9.034"/>
				
					<line fill="none" stroke="#00ABEB" stroke-width="0.15" stroke-miterlimit="10" x1="108.82" y1="110.286" x2="228.14" y2="-9.034"/>
				
					<line fill="none" stroke="#00ABEB" stroke-width="0.15" stroke-miterlimit="10" x1="111.654" y1="110.286" x2="230.974" y2="-9.034"/>
			</g>
			<g id="Horizontal_5_mm_00000011735556503592991880000008134099091165005186_">
				
					<line fill="none" stroke="#00ABEB" stroke-width="0.3" stroke-miterlimit="10" x1="-115.476" y1="110.295" x2="111.639" y2="110.295"/>
				
					<line fill="none" stroke="#00ABEB" stroke-width="0.3" stroke-miterlimit="10" x1="-105.537" y1="100.356" x2="121.579" y2="100.356"/>
				
					<line fill="none" stroke="#00ABEB" stroke-width="0.3" stroke-miterlimit="10" x1="-95.597" y1="90.416" x2="131.519" y2="90.416"/>
				
					<line fill="none" stroke="#00ABEB" stroke-width="0.3" stroke-miterlimit="10" x1="-85.657" y1="80.476" x2="141.459" y2="80.476"/>
				
					<line fill="none" stroke="#00ABEB" stroke-width="0.3" stroke-miterlimit="10" x1="-75.717" y1="70.537" x2="151.398" y2="70.537"/>
				
					<line fill="none" stroke="#00ABEB" stroke-width="0.3" stroke-miterlimit="10" x1="-65.778" y1="60.597" x2="161.338" y2="60.597"/>
				
					<line fill="none" stroke="#00ABEB" stroke-width="0.3" stroke-miterlimit="10" x1="-55.838" y1="50.658" x2="171.278" y2="50.658"/>
				
					<line fill="none" stroke="#00ABEB" stroke-width="0.3" stroke-miterlimit="10" x1="-45.898" y1="40.718" x2="181.218" y2="40.718"/>
				
					<line fill="none" stroke="#00ABEB" stroke-width="0.3" stroke-miterlimit="10" x1="-35.958" y1="30.778" x2="191.157" y2="30.778"/>
				
					<line fill="none" stroke="#00ABEB" stroke-width="0.3" stroke-miterlimit="10" x1="-26.019" y1="20.838" x2="201.097" y2="20.838"/>
				
					<line fill="none" stroke="#00ABEB" stroke-width="0.3" stroke-miterlimit="10" x1="-16.079" y1="10.899" x2="211.036" y2="10.899"/>
			</g>
			<g id="Vertical_5_mm_00000064346364918789686960000003233481195482251947_">
				
					<line fill="none" stroke="#00ABEB" stroke-width="0.3" stroke-miterlimit="10" x1="-115.117" y1="110.286" x2="4.396" y2="-9.226"/>
				
					<line fill="none" stroke="#00ABEB" stroke-width="0.3" stroke-miterlimit="10" x1="-100.944" y1="110.286" x2="18.569" y2="-9.226"/>
				
					<line fill="none" stroke="#00ABEB" stroke-width="0.3" stroke-miterlimit="10" x1="-86.77" y1="110.286" x2="32.742" y2="-9.226"/>
				
					<line fill="none" stroke="#00ABEB" stroke-width="0.3" stroke-miterlimit="10" x1="-72.598" y1="110.286" x2="46.915" y2="-9.226"/>
				
					<line fill="none" stroke="#00ABEB" stroke-width="0.3" stroke-miterlimit="10" x1="-58.424" y1="110.286" x2="61.089" y2="-9.226"/>
				
					<line fill="none" stroke="#00ABEB" stroke-width="0.3" stroke-miterlimit="10" x1="-44.25" y1="110.286" x2="75.262" y2="-9.226"/>
				
					<line fill="none" stroke="#00ABEB" stroke-width="0.3" stroke-miterlimit="10" x1="-30.078" y1="110.286" x2="89.435" y2="-9.226"/>
				
					<line fill="none" stroke="#00ABEB" stroke-width="0.3" stroke-miterlimit="10" x1="-15.905" y1="110.286" x2="103.608" y2="-9.226"/>
				
					<line fill="none" stroke="#00ABEB" stroke-width="0.3" stroke-miterlimit="10" x1="-1.732" y1="110.286" x2="117.781" y2="-9.226"/>
				
					<line fill="none" stroke="#00ABEB" stroke-width="0.3" stroke-miterlimit="10" x1="12.442" y1="110.286" x2="131.955" y2="-9.226"/>
				
					<line fill="none" stroke="#00ABEB" stroke-width="0.3" stroke-miterlimit="10" x1="26.615" y1="110.286" x2="146.128" y2="-9.226"/>
				
					<line fill="none" stroke="#00ABEB" stroke-width="0.3" stroke-miterlimit="10" x1="40.788" y1="110.286" x2="160.301" y2="-9.226"/>
				
					<line fill="none" stroke="#00ABEB" stroke-width="0.3" stroke-miterlimit="10" x1="54.962" y1="110.286" x2="174.474" y2="-9.226"/>
				
					<line fill="none" stroke="#00ABEB" stroke-width="0.3" stroke-miterlimit="10" x1="69.135" y1="110.286" x2="188.648" y2="-9.226"/>
				
					<line fill="none" stroke="#00ABEB" stroke-width="0.3" stroke-miterlimit="10" x1="83.308" y1="110.286" x2="202.821" y2="-9.226"/>
				
					<line fill="none" stroke="#00ABEB" stroke-width="0.3" stroke-miterlimit="10" x1="97.482" y1="110.286" x2="216.994" y2="-9.226"/>
				
					<line fill="none" stroke="#00ABEB" stroke-width="0.3" stroke-miterlimit="10" x1="111.654" y1="110.286" x2="231.167" y2="-9.226"/>
			</g>
			<g id="Horizontal_10_mm_00000163045836177147705350000008480455355013810362_">
				
					<line id="_x31_9_00000057116790517712807720000015084113881736219806_" fill="none" stroke="#00ABEB" stroke-width="0.7" stroke-miterlimit="10" x1="-115.476" y1="110.295" x2="111.639" y2="110.295"/>
				
					<line id="_x32_0_00000024685878617286333290000013167547815532084100_" fill="none" stroke="#00ABEB" stroke-width="0.7" stroke-miterlimit="10" x1="-95.597" y1="90.416" x2="131.519" y2="90.416"/>
				
					<line id="_x32_1_00000138564813020868535020000012777939180148238773_" fill="none" stroke="#00ABEB" stroke-width="0.7" stroke-miterlimit="10" x1="-75.717" y1="70.537" x2="151.398" y2="70.537"/>
				
					<line id="_x32_2_00000052807586205252870140000014502512662559454639_" fill="none" stroke="#00ABEB" stroke-width="0.7" stroke-miterlimit="10" x1="-55.838" y1="50.658" x2="171.278" y2="50.658"/>
				
					<line id="_x32_3_00000051376893246677475670000009295515732899575694_" fill="none" stroke="#00ABEB" stroke-width="0.7" stroke-miterlimit="10" x1="-35.958" y1="30.778" x2="191.157" y2="30.778"/>
				
					<line id="_x32_4_00000099657911357833521510000007853591198542098087_" fill="none" stroke="#00ABEB" stroke-width="0.7" stroke-miterlimit="10" x1="-16.079" y1="10.899" x2="211.036" y2="10.899"/>
				
					<line id="_x32_5_00000155127691660191171140000008292164438978366870_" fill="none" stroke="#00ABEB" stroke-width="0.7" stroke-miterlimit="10" x1="3.801" y1="-8.981" x2="230.916" y2="-8.981"/>
			</g>
			<g id="Vertical_10_mm_00000134969164297783457920000010833503864539426239_">
				
					<line id="_x30__00000151539528360119995570000005083818057555393183_" fill="none" stroke="#00ABEB" stroke-width="0.7" stroke-miterlimit="10" x1="-115.117" y1="110.286" x2="4.396" y2="-9.226"/>
				
					<line id="_x31__00000021823889366233599640000011971139016478256513_" fill="none" stroke="#00ABEB" stroke-width="0.7" stroke-miterlimit="10" x1="-86.77" y1="110.286" x2="32.742" y2="-9.226"/>
				
					<line id="_x32__00000071550223824624162640000006130814236846722696_" fill="none" stroke="#00ABEB" stroke-width="0.7" stroke-miterlimit="10" x1="-58.424" y1="110.286" x2="61.089" y2="-9.226"/>
				
					<line id="_x33__00000042015976804734918030000005045165563697445304_" fill="none" stroke="#00ABEB" stroke-width="0.7" stroke-miterlimit="10" x1="-30.078" y1="110.286" x2="89.435" y2="-9.226"/>
				
					<line id="_x34__00000081637789328126233800000002486991317463304126_" fill="none" stroke="#00ABEB" stroke-width="0.7" stroke-miterlimit="10" x1="-1.732" y1="110.286" x2="117.781" y2="-9.226"/>
				
					<line id="_x35__00000051353690731882489090000004794744233340785543_" fill="none" stroke="#00ABEB" stroke-width="0.7" stroke-miterlimit="10" x1="26.615" y1="110.286" x2="146.128" y2="-9.226"/>
				
					<line id="_x36__00000011745311307505536660000010485558803267122343_" fill="none" stroke="#00ABEB" stroke-width="0.7" stroke-miterlimit="10" x1="54.962" y1="110.286" x2="174.474" y2="-9.226"/>
				
					<line id="_x37__00000045602144989735358580000003937589459941247142_" fill="none" stroke="#00ABEB" stroke-width="0.7" stroke-miterlimit="10" x1="83.308" y1="110.286" x2="202.821" y2="-9.226"/>
				
					<line id="_x38__00000047029857857898873560000014194396358708286345_" fill="none" stroke="#00ABEB" stroke-width="0.7" stroke-miterlimit="10" x1="111.654" y1="110.286" x2="231.167" y2="-9.226"/>
			</g>
		</g>
	</g>
</g>
<g id="Axis" display="none">
	<g id="lines" display="inline">
		<g>
			<g>
				
					<line fill="none" stroke="#000000" stroke-width="0.5" stroke-miterlimit="10" x1="57.901" y1="50.648" x2="57.901" y2="13.439"/>
				<g>
					<polygon points="59.753,14.843 57.901,14.057 56.05,14.843 57.901,10.454 					"/>
				</g>
			</g>
		</g>
		<g>
			<g>
				
					<line fill="none" stroke="#000000" stroke-width="0.5" stroke-miterlimit="10" x1="57.901" y1="50.648" x2="96.107" y2="50.648"/>
				<g>
					<polygon points="94.703,52.499 95.489,50.648 94.703,48.796 99.092,50.648 					"/>
				</g>
			</g>
		</g>
		<g>
			<g>
				
					<line fill="none" stroke="#000000" stroke-width="0.5" stroke-miterlimit="10" x1="57.901" y1="50.648" x2="33.195" y2="75.354"/>
				<g>
					<polygon points="32.879,73.052 33.632,74.917 35.497,75.67 31.084,77.465 					"/>
				</g>
			</g>
		</g>
	</g>
	<g id="names" display="inline">
		<g>
			<path d="M96.888,56.05c0.51-0.846,0.732-1.277,0.732-1.542c0-0.084-0.042-0.12-0.156-0.192c-0.12-0.078-0.156-0.138-0.156-0.234
				c0-0.132,0.102-0.222,0.24-0.222c0.18,0,0.312,0.15,0.312,0.33c0,0.342-0.288,1.001-0.786,1.829
				c-0.624,1.032-1.265,1.721-1.607,1.721c-0.18,0-0.306-0.102-0.306-0.258c0-0.132,0.102-0.24,0.234-0.24
				c0.21,0,0.21,0.167,0.366,0.167c0.078,0,0.15-0.048,0.288-0.198c0.108-0.114,0.378-0.468,0.426-0.545
				c0.036-0.072,0.06-0.144,0.06-0.21c0-0.24-0.33-1.583-0.492-1.991c-0.114-0.293-0.222-0.384-0.462-0.384
				c-0.066,0-0.12,0.006-0.186,0.024v-0.102c0.066-0.012,0.132-0.024,0.192-0.036c0.12-0.024,0.318-0.06,0.642-0.108h0.024
				c0.09,0,0.408,0.996,0.51,1.529L96.888,56.05z"/>
		</g>
		<g>
			<path d="M53.035,12.696c0.348,0.078,0.479,0.144,0.719,0.498c0.156,0.228,0.27,0.3,0.42,0.3c0.096,0,0.162-0.036,0.162-0.09
				c0-0.024-0.012-0.054-0.03-0.09c-0.036-0.072-0.048-0.12-0.048-0.167c0.006-0.102,0.102-0.204,0.198-0.204
				c0.126,0,0.21,0.09,0.21,0.222c0,0.24-0.222,0.456-0.558,0.456c-0.174,0-0.378-0.078-0.678-0.264
				c-0.282-0.174-0.474-0.251-0.629-0.251c-0.096,0-0.174,0.03-0.27,0.108l-0.054-0.054l1.859-2.231H53.52
				c-0.312,0-0.426,0.054-0.545,0.36l-0.096-0.024l0.192-0.695h1.697v0.066L53.035,12.696z"/>
		</g>
		<g>
			<path d="M29.595,73.472c0.419-0.642,0.642-0.857,0.905-0.857c0.144,0,0.246,0.09,0.246,0.222c0,0.126-0.084,0.216-0.204,0.216
				c-0.114,0-0.168-0.102-0.312-0.102c-0.108,0-0.324,0.264-0.588,0.726c0,0.042,0.012,0.126,0.048,0.27l0.192,0.804
				c0.042,0.168,0.096,0.246,0.18,0.246c0.078,0,0.144-0.06,0.282-0.24c0.054-0.072,0.078-0.108,0.126-0.168l0.09,0.054
				c-0.348,0.54-0.504,0.684-0.731,0.684c-0.192,0-0.282-0.108-0.354-0.408l-0.174-0.714l-0.528,0.714
				c-0.264,0.354-0.384,0.408-0.57,0.408c-0.186,0-0.3-0.096-0.3-0.252c0-0.12,0.084-0.216,0.204-0.216
				c0.054,0,0.114,0.024,0.192,0.066c0.06,0.036,0.12,0.054,0.156,0.054c0.066,0,0.18-0.114,0.306-0.294l0.492-0.696l-0.168-0.743
				c-0.084-0.36-0.126-0.408-0.276-0.408c-0.048,0-0.12,0.012-0.234,0.042l-0.108,0.03l-0.018-0.096l0.066-0.024
				c0.366-0.132,0.564-0.174,0.702-0.174c0.15,0,0.222,0.108,0.306,0.516L29.595,73.472z"/>
		</g>
	</g>
</g>
<g id="Layer_3" display="none">
	
		<polyline display="inline" fill="none" stroke="#000000" stroke-linecap="round" stroke-linejoin="round" stroke-miterlimit="10" points="
		98.172,18.85 86.244,30.778 106.28,30.778 106.516,30.778 66.757,70.537 66.365,70.537 9.672,70.537 49.431,30.778 69.466,30.778 
		81.394,18.85 	"/>
	<g display="inline">
		<g>
			
				<line fill="none" stroke="#000000" stroke-width="0.7" stroke-linecap="round" stroke-linejoin="round" x1="78.334" y1="21.923" x2="74.041" y2="26.217"/>
			<g>
				<polygon points="73.657,22.552 74.357,22.577 74.231,26.026 77.68,25.9 77.705,26.6 73.504,26.753 				"/>
			</g>
		</g>
	</g>
	<g display="inline">
		<g>
			
				<line fill="none" stroke="#000000" stroke-width="0.7" stroke-linecap="round" stroke-linejoin="round" x1="94.624" y1="22.46" x2="90.331" y2="26.753"/>
			<g>
				<polygon points="90.959,22.076 90.984,22.776 94.433,22.65 94.307,26.099 95.008,26.124 95.16,21.923 				"/>
			</g>
		</g>
	</g>
	<g display="inline">
		<g>
			
				<line fill="none" stroke="#000000" stroke-width="0.7" stroke-linecap="round" stroke-linejoin="round" x1="40.304" y1="39.911" x2="36.011" y2="44.204"/>
			<g>
				<polygon points="35.627,40.539 36.327,40.564 36.2,44.013 39.65,43.888 39.675,44.588 35.473,44.74 				"/>
			</g>
		</g>
	</g>
	<g display="inline">
		<g>
			
				<line fill="none" stroke="#000000" stroke-width="0.7" stroke-linecap="round" stroke-linejoin="round" x1="84.574" y1="52.876" x2="80.281" y2="57.17"/>
			<g>
				<polygon points="80.91,52.492 80.935,53.192 84.384,53.066 84.258,56.515 84.958,56.54 85.111,52.339 				"/>
			</g>
		</g>
	</g>
	<g display="inline">
		<g>
			
				<line fill="none" stroke="#000000" stroke-width="0.7" stroke-linecap="round" stroke-linejoin="round" x1="37.194" y1="70.537" x2="43.266" y2="70.537"/>
			<g>
				<polygon points="40.946,73.4 40.469,72.887 42.997,70.537 40.469,68.187 40.946,67.675 44.025,70.537 				"/>
			</g>
		</g>
	</g>
	<g display="inline">
		<g>
			
				<line fill="none" stroke="#000000" stroke-width="0.7" stroke-linecap="round" stroke-linejoin="round" x1="62.798" y1="30.681" x2="56.726" y2="30.681"/>
			<g>
				<polygon points="59.046,27.818 59.523,28.331 56.995,30.68 59.523,33.03 59.046,33.543 55.967,30.68 				"/>
			</g>
		</g>
	</g>
	<g display="inline">
		<g>
			
				<line fill="none" stroke="#000000" stroke-width="0.7" stroke-linecap="round" stroke-linejoin="round" x1="100.859" y1="30.681" x2="94.787" y2="30.681"/>
			<g>
				<polygon points="97.107,27.818 97.584,28.331 95.056,30.68 97.584,33.03 97.107,33.543 94.028,30.68 				"/>
			</g>
		</g>
	</g>
	<g display="inline">
		<g>
			
				<line fill="none" stroke="#0000FF" stroke-width="0.5" stroke-linecap="round" stroke-linejoin="round" x1="114.244" y1="30.673" x2="133.413" y2="30.673"/>
			<g>
				<polygon fill="#0000FF" points="115.901,32.718 116.242,32.351 114.436,30.673 116.242,28.994 115.901,28.628 113.702,30.673 
									"/>
			</g>
		</g>
	</g>
	<g display="inline">
		<g>
			
				<line fill="none" stroke="#0000FF" stroke-width="0.5" stroke-linecap="round" stroke-linejoin="round" x1="94.248" y1="50.669" x2="113.417" y2="50.669"/>
			<g>
				<polygon fill="#0000FF" points="95.905,52.714 96.246,52.347 94.44,50.669 96.246,48.99 95.905,48.624 93.706,50.669 				"/>
			</g>
		</g>
	</g>
	<g display="inline">
		<g>
			
				<line fill="none" stroke="#0000FF" stroke-width="0.5" stroke-linecap="round" stroke-linejoin="round" x1="74.371" y1="70.546" x2="93.54" y2="70.546"/>
			<g>
				<polygon fill="#0000FF" points="76.027,72.591 76.369,72.225 74.563,70.547 76.369,68.868 76.027,68.502 73.828,70.547 				"/>
			</g>
		</g>
	</g>
	<g display="inline">
		<g>
			
				<line fill="none" stroke="#0000FF" stroke-width="0.5" stroke-linecap="round" stroke-linejoin="round" x1="84.475" y1="60.442" x2="103.644" y2="60.442"/>
			<g>
				<polygon fill="#0000FF" points="86.132,62.487 86.473,62.12 84.667,60.442 86.473,58.763 86.132,58.397 83.933,60.442 				"/>
			</g>
		</g>
	</g>
	<g display="inline">
		<g>
			
				<line fill="none" stroke="#0000FF" stroke-width="0.5" stroke-linecap="round" stroke-linejoin="round" x1="104.216" y1="40.701" x2="123.385" y2="40.701"/>
			<g>
				<polygon fill="#0000FF" points="105.872,42.746 106.214,42.38 104.408,40.701 106.214,39.023 105.872,38.657 103.673,40.701 
									"/>
			</g>
		</g>
	</g>
	<g display="inline">
		<path fill="#0000FF" d="M120.73,48.228c1.389,0,2.079,0.51,2.079,1.499c0,0.54-0.28,0.89-0.64,1.129
			c-0.31,0.21-0.68,0.3-1.109,0.39v0.01c0.859,0.26,1.259,0.79,1.259,1.499c0,1.339-1.129,1.999-2.749,1.999h-2.719v-0.16
			c0.55-0.08,0.66-0.18,0.83-0.799l1.209-4.357c0.07-0.25,0.11-0.49,0.11-0.64c0-0.29-0.14-0.36-0.77-0.41v-0.16H120.73z
			 M118.992,52.636c-0.2,0.759-0.35,1.269-0.35,1.399c0,0.28,0.25,0.42,0.67,0.42c1.149,0,1.929-0.59,1.929-1.699
			c0-0.62-0.29-1.059-0.669-1.189c-0.2-0.07-0.63-0.12-1.259-0.12L118.992,52.636z M119.791,51.127c1.309,0,2.009-0.53,2.009-1.519
			c0-0.74-0.36-1.08-1.169-1.08c-0.39,0-0.49,0-0.589,0.36l-0.63,2.239H119.791z"/>
	</g>
	<g display="inline">
		<g>
			
				<line fill="none" stroke="#0000FF" stroke-width="0.4" stroke-linecap="round" stroke-linejoin="round" x1="117.944" y1="46.031" x2="122.646" y2="46.031"/>
			<g>
				<polygon fill="#0000FF" points="121.321,47.667 121.048,47.374 122.492,46.031 121.048,44.688 121.321,44.395 123.08,46.031 
									"/>
			</g>
		</g>
	</g>
	<g display="inline">
		<path d="M77.161,13.989c-0.56,0.07-0.649,0.16-0.819,0.77l-1.2,4.288c-0.09,0.32-0.15,0.56-0.15,0.759c0,0.28,0.12,0.32,0.69,0.39
			v0.16h-2.439v-0.16c0.55-0.1,0.69-0.189,0.84-0.75l1.199-4.407c0.07-0.25,0.13-0.46,0.13-0.62c0-0.25-0.16-0.4-0.72-0.43v-0.16
			h2.469V13.989z"/>
	</g>
	<g display="inline">
		<path fill="#00A300" d="M24.228,51.449c-0.75,0.91-0.989,1.1-1.389,1.1c-0.28,0-0.4-0.12-0.4-0.41c0-0.25,0.02-0.33,0.23-1.149
			c-0.75,1.129-1.329,1.569-2.029,1.569c-0.56,0-1-0.4-1-1.159c0-1.549,1.529-3.358,2.858-3.358c0.43,0,0.72,0.21,0.8,0.58
			l0.11-0.479l0.03-0.03l0.61-0.07l0.07,0.03c-0.02,0.09-0.03,0.11-0.06,0.21c-0.47,1.709-0.89,3.428-0.89,3.628
			c0,0.07,0.06,0.13,0.14,0.13c0.09,0,0.22-0.08,0.52-0.41l0.27-0.29L24.228,51.449z M22.559,48.261c-0.45,0-0.89,0.31-1.31,0.919
			c-0.419,0.629-0.77,1.519-0.77,2.149c0,0.549,0.24,0.739,0.6,0.739c0.5,0,0.97-0.55,1.27-0.979c0.47-0.68,0.77-1.539,0.77-2.249
			C23.119,48.49,22.909,48.261,22.559,48.261z"/>
	</g>
	<g display="inline">
		<g>
			<line fill="none" stroke="#00A300" stroke-width="0.1" stroke-miterlimit="10" x1="30.19" y1="50.564" x2="31.69" y2="50.564"/>
			
				<line fill="none" stroke="#00A300" stroke-width="0.1" stroke-miterlimit="10" stroke-dasharray="3.1312,3.1312" x1="34.822" y1="50.564" x2="83.355" y2="50.564"/>
			<line fill="none" stroke="#00A300" stroke-width="0.1" stroke-miterlimit="10" x1="84.92" y1="50.564" x2="86.42" y2="50.564"/>
		</g>
	</g>
	<g display="inline">
		<path fill="#00A300" d="M47.967,46.395c0.68-1.129,1.229-1.509,1.929-1.509c0.67,0,1.16,0.43,1.16,1.2
			c0,1.579-1.649,3.318-3.198,3.318c-0.57,0-1.299-0.23-1.299-0.53v-0.06l1.419-5.228c0.06-0.24,0.09-0.379,0.09-0.47
			c0-0.22-0.05-0.229-0.64-0.25v-0.17c0.669-0.08,1.029-0.14,1.529-0.23l0.05,0.05l-0.21,0.82l-0.84,3.058H47.967z M49.506,45.375
			c-0.479,0-0.939,0.42-1.369,1.149c-0.44,0.74-0.72,1.709-0.72,2.309c0,0.23,0.15,0.34,0.46,0.34c0.43,0,0.859-0.209,1.229-0.589
			c0.6-0.62,1.1-1.609,1.1-2.349C50.206,45.625,49.946,45.375,49.506,45.375z"/>
	</g>
	<g display="inline">
		<g>
			
				<line fill="none" stroke="#FF0000" stroke-width="0.5" stroke-linecap="round" stroke-linejoin="round" x1="86.244" y1="50.658" x2="86.244" y2="34.536"/>
			<g>
				<polygon fill="#FF0000" points="88.289,36.193 87.923,36.534 86.244,34.728 84.566,36.534 84.199,36.193 86.244,33.994 				"/>
			</g>
		</g>
	</g>
	<g display="inline">
		<path fill="#FF0000" d="M81.958,39.221l-0.21-0.02c0.03-0.22,0.03-0.27,0.03-0.33c0-0.73-0.23-0.86-1.989-0.86
			c-0.46,0-0.61,0.06-0.68,0.32L78.47,40.6c1.679-0.02,1.709-0.04,2.159-0.939l0.18,0.05l-0.759,2.349l-0.17-0.05
			c0.06-0.31,0.08-0.45,0.08-0.61c0-0.399-0.28-0.439-0.75-0.439c-0.22,0-0.459-0.01-0.829-0.03l-0.59,2.129
			c-0.07,0.25-0.14,0.45-0.14,0.6c0,0.24,0.18,0.35,0.77,0.39v0.16h-2.508v-0.16c0.58-0.04,0.68-0.26,0.83-0.779l1.229-4.417
			c0.07-0.25,0.1-0.45,0.1-0.61c0-0.28-0.1-0.34-0.76-0.4v-0.16h4.967L81.958,39.221z"/>
	</g>
	<g display="inline">
		<g>
			
				<line fill="none" stroke="#FF0000" stroke-width="0.4" stroke-linecap="round" stroke-linejoin="round" x1="77.56" y1="35.485" x2="82.262" y2="35.485"/>
			<g>
				<polygon fill="#FF0000" points="80.937,37.121 80.664,36.828 82.109,35.485 80.664,34.142 80.937,33.849 82.696,35.485 				"/>
			</g>
		</g>
	</g>
	<g display="inline">
		<g>
			
				<line fill="none" stroke="#FF0000" stroke-width="0.5" stroke-linecap="round" stroke-linejoin="round" x1="29.656" y1="50.192" x2="29.656" y2="66.313"/>
			<g>
				<polygon fill="#FF0000" points="27.612,64.657 27.978,64.316 29.656,66.122 31.335,64.316 31.701,64.657 29.656,66.856 				"/>
			</g>
		</g>
	</g>
	<g display="inline">
		<path fill="#FF0000" d="M39.871,57.899l-0.21-0.02c0.03-0.22,0.03-0.27,0.03-0.33c0-0.73-0.23-0.86-1.989-0.86
			c-0.46,0-0.61,0.06-0.68,0.32l-0.64,2.269c1.679-0.02,1.709-0.04,2.159-0.939l0.18,0.05l-0.759,2.349l-0.17-0.05
			c0.06-0.31,0.08-0.45,0.08-0.61c0-0.399-0.28-0.439-0.75-0.439c-0.22,0-0.459-0.01-0.829-0.03l-0.59,2.129
			c-0.07,0.25-0.14,0.45-0.14,0.6c0,0.24,0.18,0.35,0.77,0.39v0.16h-2.508v-0.16c0.58-0.04,0.68-0.26,0.83-0.779l1.229-4.417
			c0.07-0.25,0.1-0.45,0.1-0.61c0-0.28-0.1-0.34-0.76-0.4v-0.16h4.967L39.871,57.899z"/>
	</g>
	<g display="inline">
		<g>
			
				<line fill="none" stroke="#FF0000" stroke-width="0.4" stroke-linecap="round" stroke-linejoin="round" x1="35.474" y1="54.162" x2="40.176" y2="54.162"/>
			<g>
				<polygon fill="#FF0000" points="38.85,55.798 38.577,55.505 40.022,54.162 38.577,52.819 38.85,52.527 40.61,54.162 				"/>
			</g>
		</g>
	</g>
	<g display="inline">
		<path fill="#808080" d="M35.692,77.128c0.006-0.479,0.054-0.695,0.21-0.965c0.156-0.27,0.468-0.432,0.845-0.432
			c0.36,0,0.624,0.156,0.624,0.372c0,0.138-0.108,0.246-0.252,0.246c-0.102,0-0.174-0.054-0.27-0.216
			c-0.108-0.174-0.186-0.234-0.318-0.234c-0.228,0-0.335,0.18-0.335,0.534v0.695h0.731v0.192h-0.731v1.883
			c0,0.45,0.066,0.516,0.558,0.534v0.09h-1.559v-0.09c0.432-0.024,0.498-0.096,0.498-0.534V77.32h-0.492v-0.192H35.692z"/>
		<path fill="#808080" d="M38.032,77.632c0.3-0.432,0.468-0.563,0.72-0.563c0.204,0,0.33,0.12,0.33,0.318
			c0,0.167-0.09,0.27-0.234,0.27c-0.078,0-0.144-0.03-0.24-0.12c-0.066-0.06-0.12-0.09-0.156-0.09c-0.168,0-0.42,0.3-0.42,0.492
			v1.35c0,0.342,0.102,0.432,0.51,0.45v0.09h-1.439v-0.09c0.384-0.072,0.426-0.114,0.426-0.414v-1.499
			c0-0.264-0.054-0.36-0.204-0.36c-0.072,0-0.126,0.006-0.21,0.024v-0.096c0.354-0.114,0.57-0.198,0.888-0.324l0.03,0.012V77.632z"
			/>
		<path fill="#808080" d="M40.504,79.887c-0.726,0-1.295-0.594-1.295-1.427s0.54-1.391,1.349-1.391c0.732,0,1.295,0.545,1.295,1.373
			C41.853,79.275,41.313,79.887,40.504,79.887z M41.014,77.536c-0.144-0.18-0.312-0.3-0.57-0.3c-0.414,0-0.696,0.354-0.696,0.954
			c0,0.474,0.096,0.906,0.318,1.229c0.132,0.192,0.324,0.3,0.54,0.3c0.444,0,0.708-0.42,0.708-1.115
			C41.313,78.196,41.205,77.782,41.014,77.536z"/>
		<path fill="#808080" d="M43.696,79.827l0.006-0.09c0.3-0.024,0.372-0.144,0.372-0.54v-1.193c0-0.425-0.144-0.605-0.438-0.605
			c-0.198,0-0.342,0.072-0.618,0.342v1.655c0,0.234,0.084,0.318,0.39,0.342v0.09h-1.265v-0.09c0.306-0.024,0.372-0.12,0.372-0.474
			v-1.458c0-0.294-0.042-0.39-0.21-0.39c-0.066,0-0.132,0.006-0.174,0.024v-0.102c0.33-0.096,0.527-0.162,0.821-0.27L43,77.086
			v0.468h0.006c0.312-0.354,0.587-0.485,0.863-0.485c0.456,0,0.708,0.33,0.708,0.923v1.325c0,0.324,0.072,0.39,0.366,0.42v0.09
			H43.696z"/>
		<path fill="#808080" d="M46.707,79.431c-0.198,0.312-0.425,0.456-0.726,0.456c-0.348,0-0.527-0.258-0.527-0.762V77.32h-0.318
			c-0.018-0.012-0.024-0.024-0.024-0.042c0-0.036,0.036-0.072,0.102-0.114c0.156-0.09,0.354-0.312,0.582-0.642
			c0.036-0.054,0.084-0.108,0.12-0.168c0.03,0,0.042,0.018,0.042,0.078v0.695h0.606v0.192h-0.606v1.715
			c0,0.384,0.09,0.54,0.312,0.54c0.132,0,0.228-0.054,0.36-0.21L46.707,79.431z"/>
	</g>
	<g display="inline">
		<path fill="#808080" d="M88.763,13.638c0.3-0.432,0.468-0.563,0.72-0.563c0.204,0,0.33,0.12,0.33,0.318
			c0,0.167-0.09,0.27-0.234,0.27c-0.078,0-0.144-0.03-0.24-0.12c-0.066-0.06-0.12-0.09-0.156-0.09c-0.168,0-0.42,0.3-0.42,0.492
			v1.35c0,0.342,0.102,0.432,0.51,0.45v0.09h-1.439v-0.09c0.384-0.072,0.426-0.114,0.426-0.414V13.83c0-0.264-0.054-0.36-0.204-0.36
			c-0.072,0-0.126,0.006-0.21,0.024v-0.096c0.354-0.114,0.57-0.198,0.888-0.324l0.03,0.012V13.638z"/>
		<path fill="#808080" d="M92.331,14.892c-0.234,0.653-0.653,1.001-1.253,1.001c-0.708,0-1.139-0.534-1.139-1.361
			c0-0.846,0.486-1.457,1.241-1.457c0.372,0,0.642,0.144,0.833,0.414c0.12,0.168,0.18,0.36,0.204,0.684h-1.847
			c0.03,0.456,0.06,0.689,0.276,0.978c0.168,0.222,0.39,0.33,0.666,0.33c0.402,0,0.63-0.186,0.924-0.629L92.331,14.892z
			 M91.606,13.98c-0.066-0.486-0.192-0.689-0.587-0.689c-0.336,0-0.57,0.24-0.636,0.689H91.606z"/>
		<path fill="#808080" d="M95.103,15.605c-0.18,0.228-0.335,0.288-0.54,0.288c-0.222,0-0.354-0.12-0.384-0.438h-0.006
			c-0.318,0.36-0.612,0.438-0.87,0.438c-0.372,0-0.63-0.228-0.63-0.624c0-0.312,0.186-0.546,0.42-0.702
			c0.18-0.12,0.402-0.234,1.08-0.486v-0.324c0-0.372-0.198-0.54-0.468-0.54c-0.24,0-0.42,0.132-0.42,0.294
			c0,0.108,0.036,0.126,0.036,0.252c0,0.114-0.12,0.246-0.276,0.246c-0.126,0-0.258-0.114-0.258-0.275
			c0-0.156,0.096-0.348,0.306-0.48c0.168-0.108,0.42-0.18,0.689-0.18c0.336,0,0.564,0.096,0.708,0.27
			c0.144,0.174,0.168,0.3,0.168,0.666v1.146c0,0.276,0.078,0.396,0.186,0.396c0.096,0,0.156-0.03,0.258-0.114V15.605z
			 M94.174,14.226c-0.372,0.132-0.618,0.258-0.768,0.396c-0.144,0.132-0.204,0.276-0.204,0.462c0,0.318,0.18,0.461,0.414,0.461
			c0.12,0,0.246-0.03,0.348-0.096c0.174-0.12,0.21-0.204,0.21-0.378V14.226z"/>
		<path fill="#808080" d="M96.077,13.638c0.3-0.432,0.468-0.563,0.72-0.563c0.204,0,0.33,0.12,0.33,0.318
			c0,0.167-0.09,0.27-0.234,0.27c-0.078,0-0.144-0.03-0.24-0.12c-0.066-0.06-0.12-0.09-0.156-0.09c-0.168,0-0.42,0.3-0.42,0.492
			v1.35c0,0.342,0.102,0.432,0.51,0.45v0.09h-1.439v-0.09c0.384-0.072,0.426-0.114,0.426-0.414V13.83c0-0.264-0.054-0.36-0.204-0.36
			c-0.072,0-0.126,0.006-0.21,0.024v-0.096c0.354-0.114,0.57-0.198,0.888-0.324l0.03,0.012V13.638z"/>
	</g>
	<g display="inline">
		<g>
			<line fill="none" stroke="#00A300" stroke-width="0.2" stroke-miterlimit="10" x1="90.98" y1="17.575" x2="89.92" y2="18.636"/>
			
				<line fill="none" stroke="#00A300" stroke-width="0.2" stroke-miterlimit="10" stroke-dasharray="2.9324,2.9324" x1="87.846" y1="20.71" x2="30.824" y2="77.732"/>
			
				<line fill="none" stroke="#00A300" stroke-width="0.2" stroke-miterlimit="10" x1="29.787" y1="78.769" x2="28.726" y2="79.829"/>
		</g>
	</g>
</g>
<g id="Layer_4">
	
		<line fill="none" stroke="#000000" stroke-linecap="round" stroke-linejoin="round" stroke-miterlimit="10" x1="77.882" y1="2.326" x2="38.018" y2="42.19"/>
	
		<line fill="none" stroke="#000000" stroke-linecap="round" stroke-linejoin="round" stroke-miterlimit="10" x1="38.018" y1="42.19" x2="38.018" y2="98.883"/>
	
		<line fill="none" stroke="#000000" stroke-linecap="round" stroke-linejoin="round" stroke-miterlimit="10" x1="77.902" y1="2.337" x2="77.902" y2="22.196"/>
	
		<line fill="none" stroke="#000000" stroke-linecap="round" stroke-linejoin="round" stroke-miterlimit="10" x1="77.902" y1="22.196" x2="89.654" y2="10.365"/>
	
		<line fill="none" stroke="#000000" stroke-linecap="round" stroke-linejoin="round" stroke-miterlimit="10" x1="77.882" y1="59.019" x2="38.018" y2="98.883"/>
	
		<line fill="none" stroke="#000000" stroke-linecap="round" stroke-linejoin="round" stroke-miterlimit="10" x1="77.902" y1="39.11" x2="77.902" y2="58.969"/>
	
		<line fill="none" stroke="#000000" stroke-linecap="round" stroke-linejoin="round" stroke-miterlimit="10" x1="77.902" y1="39.11" x2="89.654" y2="27.279"/>
	<g>
		<g>
			
				<line fill="none" stroke="#0000FF" stroke-width="0.5" stroke-linecap="round" stroke-linejoin="round" x1="114.244" y1="30.673" x2="133.413" y2="30.673"/>
			<g>
				<polygon fill="#0000FF" points="115.901,32.718 116.242,32.351 114.436,30.673 116.242,28.994 115.901,28.628 113.702,30.673 
									"/>
			</g>
		</g>
	</g>
	<g>
		<g>
			
				<line fill="none" stroke="#0000FF" stroke-width="0.5" stroke-linecap="round" stroke-linejoin="round" x1="94.248" y1="50.669" x2="113.417" y2="50.669"/>
			<g>
				<polygon fill="#0000FF" points="95.905,52.714 96.246,52.347 94.44,50.669 96.246,48.99 95.905,48.624 93.706,50.669 				"/>
			</g>
		</g>
	</g>
	<g>
		<g>
			
				<line fill="none" stroke="#0000FF" stroke-width="0.5" stroke-linecap="round" stroke-linejoin="round" x1="74.371" y1="70.546" x2="93.54" y2="70.546"/>
			<g>
				<polygon fill="#0000FF" points="76.027,72.591 76.369,72.225 74.563,70.547 76.369,68.868 76.027,68.502 73.828,70.547 				"/>
			</g>
		</g>
	</g>
	<g>
		<g>
			
				<line fill="none" stroke="#0000FF" stroke-width="0.5" stroke-linecap="round" stroke-linejoin="round" x1="84.475" y1="60.442" x2="103.644" y2="60.442"/>
			<g>
				<polygon fill="#0000FF" points="86.132,62.487 86.473,62.12 84.667,60.442 86.473,58.763 86.132,58.397 83.933,60.442 				"/>
			</g>
		</g>
	</g>
	<g>
		<g>
			
				<line fill="none" stroke="#0000FF" stroke-width="0.5" stroke-linecap="round" stroke-linejoin="round" x1="104.216" y1="40.701" x2="123.385" y2="40.701"/>
			<g>
				<polygon fill="#0000FF" points="105.872,42.746 106.214,42.38 104.408,40.701 106.214,39.023 105.872,38.657 103.673,40.701 
									"/>
			</g>
		</g>
	</g>
	<g>
		<path fill="#0000FF" d="M120.73,48.228c1.389,0,2.079,0.51,2.079,1.499c0,0.54-0.28,0.89-0.64,1.129
			c-0.31,0.21-0.68,0.3-1.109,0.39v0.01c0.859,0.26,1.259,0.79,1.259,1.499c0,1.339-1.129,1.999-2.749,1.999h-2.719v-0.16
			c0.55-0.08,0.66-0.18,0.83-0.799l1.209-4.357c0.07-0.25,0.11-0.49,0.11-0.64c0-0.29-0.14-0.36-0.77-0.41v-0.16H120.73z
			 M118.992,52.636c-0.2,0.759-0.35,1.269-0.35,1.399c0,0.28,0.25,0.42,0.67,0.42c1.149,0,1.929-0.59,1.929-1.699
			c0-0.62-0.29-1.059-0.669-1.189c-0.2-0.07-0.63-0.12-1.259-0.12L118.992,52.636z M119.791,51.127c1.309,0,2.009-0.53,2.009-1.519
			c0-0.74-0.36-1.08-1.169-1.08c-0.39,0-0.49,0-0.589,0.36l-0.63,2.239H119.791z"/>
	</g>
	<g>
		<g>
			
				<line fill="none" stroke="#0000FF" stroke-width="0.4" stroke-linecap="round" stroke-linejoin="round" x1="117.944" y1="46.031" x2="122.646" y2="46.031"/>
			<g>
				<polygon fill="#0000FF" points="121.321,47.667 121.048,47.374 122.492,46.031 121.048,44.688 121.321,44.395 123.08,46.031 
									"/>
			</g>
		</g>
	</g>
	<g>
		<g>
			
				<line fill="none" stroke="#000000" stroke-width="0.7" stroke-linecap="round" stroke-linejoin="round" x1="86.529" y1="13.528" x2="82.236" y2="17.821"/>
			<g>
				<polygon points="81.851,14.156 82.551,14.181 82.425,17.63 85.875,17.505 85.9,18.205 81.698,18.357 				"/>
			</g>
		</g>
	</g>
	<g>
		<g>
			
				<line fill="none" stroke="#000000" stroke-width="0.7" stroke-linecap="round" stroke-linejoin="round" x1="55.476" y1="24.733" x2="51.183" y2="29.026"/>
			<g>
				<polygon points="50.798,25.361 51.499,25.386 51.372,28.835 54.822,28.709 54.847,29.41 50.645,29.562 				"/>
			</g>
		</g>
	</g>
	<g>
		<g>
			
				<line fill="none" stroke="#000000" stroke-width="0.7" stroke-linecap="round" stroke-linejoin="round" x1="50.646" y1="86.255" x2="54.939" y2="81.962"/>
			<g>
				<polygon points="55.323,85.627 54.623,85.602 54.75,82.153 51.3,82.279 51.275,81.578 55.476,81.426 				"/>
			</g>
		</g>
	</g>
	<g>
		<g>
			
				<line fill="none" stroke="#000000" stroke-width="0.7" stroke-linecap="round" stroke-linejoin="round" x1="38.018" y1="67.131" x2="38.018" y2="73.202"/>
			<g>
				<polygon points="35.155,70.883 35.668,70.405 38.017,72.934 40.368,70.405 40.88,70.883 38.017,73.961 				"/>
			</g>
		</g>
	</g>
	<g>
		<g>
			
				<line fill="none" stroke="#000000" stroke-width="0.7" stroke-linecap="round" stroke-linejoin="round" x1="77.902" y1="51.949" x2="77.902" y2="45.878"/>
			<g>
				<polygon points="80.765,48.197 80.252,48.674 77.903,46.146 75.553,48.674 75.04,48.197 77.903,45.118 				"/>
			</g>
		</g>
	</g>
	<g>
		<g>
			
				<line fill="none" stroke="#000000" stroke-width="0.7" stroke-linecap="round" stroke-linejoin="round" x1="77.902" y1="15.213" x2="77.902" y2="9.141"/>
			<g>
				<polygon points="80.765,11.461 80.252,11.938 77.903,9.41 75.553,11.938 75.04,11.461 77.903,8.382 				"/>
			</g>
		</g>
	</g>
	<g>
		<g>
			
				<line fill="none" stroke="#000000" stroke-width="0.7" stroke-linecap="round" stroke-linejoin="round" x1="81.699" y1="35.271" x2="85.992" y2="30.978"/>
			<g>
				<polygon points="86.376,34.643 85.676,34.618 85.803,31.169 82.353,31.294 82.328,30.594 86.529,30.442 				"/>
			</g>
		</g>
	</g>
	<g>
		<path fill="#808080" d="M18.883,81.592c0.006-0.479,0.054-0.695,0.21-0.965c0.156-0.27,0.468-0.432,0.845-0.432
			c0.36,0,0.624,0.156,0.624,0.372c0,0.138-0.108,0.246-0.252,0.246c-0.102,0-0.174-0.054-0.27-0.216
			c-0.108-0.174-0.186-0.234-0.318-0.234c-0.228,0-0.335,0.18-0.335,0.534v0.695h0.731v0.192h-0.731v1.883
			c0,0.45,0.066,0.516,0.558,0.534v0.09h-1.559v-0.09c0.432-0.024,0.498-0.096,0.498-0.534v-1.883h-0.492v-0.192H18.883z"/>
		<path fill="#808080" d="M21.223,82.096c0.3-0.432,0.468-0.563,0.72-0.563c0.204,0,0.33,0.12,0.33,0.318
			c0,0.167-0.09,0.27-0.234,0.27c-0.078,0-0.144-0.03-0.24-0.12c-0.066-0.06-0.12-0.09-0.156-0.09c-0.168,0-0.42,0.3-0.42,0.492
			v1.35c0,0.342,0.102,0.432,0.51,0.45v0.09h-1.439v-0.09c0.384-0.072,0.426-0.114,0.426-0.414v-1.499
			c0-0.264-0.054-0.36-0.204-0.36c-0.072,0-0.126,0.006-0.21,0.024v-0.096c0.354-0.114,0.57-0.198,0.888-0.324l0.03,0.012V82.096z"
			/>
		<path fill="#808080" d="M23.694,84.351c-0.726,0-1.295-0.594-1.295-1.427s0.54-1.391,1.349-1.391c0.732,0,1.295,0.545,1.295,1.373
			C25.043,83.739,24.504,84.351,23.694,84.351z M24.204,82c-0.144-0.18-0.312-0.3-0.57-0.3c-0.414,0-0.696,0.354-0.696,0.954
			c0,0.474,0.096,0.906,0.318,1.229c0.132,0.192,0.324,0.3,0.54,0.3c0.444,0,0.708-0.42,0.708-1.115
			C24.504,82.66,24.396,82.246,24.204,82z"/>
		<path fill="#808080" d="M26.886,84.291l0.006-0.09c0.3-0.024,0.372-0.144,0.372-0.54v-1.193c0-0.425-0.144-0.605-0.438-0.605
			c-0.198,0-0.342,0.072-0.618,0.342v1.655c0,0.234,0.084,0.318,0.39,0.342v0.09h-1.265v-0.09c0.306-0.024,0.372-0.12,0.372-0.474
			V82.27c0-0.294-0.042-0.39-0.21-0.39c-0.066,0-0.132,0.006-0.174,0.024v-0.102c0.33-0.096,0.527-0.162,0.821-0.27l0.048,0.018
			v0.468h0.006c0.312-0.354,0.587-0.485,0.863-0.485c0.456,0,0.708,0.33,0.708,0.923v1.325c0,0.324,0.072,0.39,0.366,0.42v0.09
			H26.886z"/>
		<path fill="#808080" d="M29.898,83.895c-0.198,0.312-0.425,0.456-0.726,0.456c-0.348,0-0.527-0.258-0.527-0.762v-1.805h-0.318
			c-0.018-0.012-0.024-0.024-0.024-0.042c0-0.036,0.036-0.072,0.102-0.114c0.156-0.09,0.354-0.312,0.582-0.642
			c0.036-0.054,0.084-0.108,0.12-0.168c0.03,0,0.042,0.018,0.042,0.078v0.695h0.606v0.192h-0.606v1.715
			c0,0.384,0.09,0.54,0.312,0.54c0.132,0,0.228-0.054,0.36-0.21L29.898,83.895z"/>
	</g>
	<g>
		<path fill="#808080" d="M93.95,13.748c0.3-0.432,0.468-0.563,0.72-0.563c0.204,0,0.33,0.12,0.33,0.318
			c0,0.167-0.09,0.27-0.234,0.27c-0.078,0-0.144-0.03-0.24-0.12c-0.066-0.06-0.12-0.09-0.156-0.09c-0.168,0-0.42,0.3-0.42,0.492
			v1.35c0,0.342,0.102,0.432,0.51,0.45v0.09H93.02v-0.09c0.384-0.072,0.426-0.114,0.426-0.414V13.94c0-0.264-0.054-0.36-0.204-0.36
			c-0.072,0-0.126,0.006-0.21,0.024v-0.096c0.354-0.114,0.57-0.198,0.888-0.324l0.03,0.012V13.748z"/>
		<path fill="#808080" d="M97.519,15.001c-0.234,0.653-0.653,1.001-1.253,1.001c-0.708,0-1.139-0.534-1.139-1.361
			c0-0.846,0.486-1.457,1.241-1.457c0.372,0,0.642,0.144,0.833,0.414c0.12,0.168,0.18,0.36,0.204,0.684h-1.847
			c0.03,0.456,0.06,0.689,0.276,0.978c0.168,0.222,0.39,0.33,0.666,0.33c0.402,0,0.63-0.186,0.924-0.629L97.519,15.001z
			 M96.793,14.09c-0.066-0.486-0.192-0.689-0.587-0.689c-0.336,0-0.57,0.24-0.636,0.689H96.793z"/>
		<path fill="#808080" d="M100.291,15.715c-0.18,0.228-0.335,0.288-0.54,0.288c-0.222,0-0.354-0.12-0.384-0.438h-0.006
			c-0.318,0.36-0.612,0.438-0.87,0.438c-0.372,0-0.63-0.228-0.63-0.624c0-0.312,0.186-0.546,0.42-0.702
			c0.18-0.12,0.402-0.234,1.08-0.486v-0.324c0-0.372-0.198-0.54-0.468-0.54c-0.24,0-0.42,0.132-0.42,0.294
			c0,0.108,0.036,0.126,0.036,0.252c0,0.114-0.12,0.246-0.276,0.246c-0.126,0-0.258-0.114-0.258-0.275
			c0-0.156,0.096-0.348,0.306-0.48c0.168-0.108,0.42-0.18,0.689-0.18c0.336,0,0.564,0.096,0.708,0.27
			c0.144,0.174,0.168,0.3,0.168,0.666v1.146c0,0.276,0.078,0.396,0.186,0.396c0.096,0,0.156-0.03,0.258-0.114V15.715z
			 M99.362,14.336c-0.372,0.132-0.618,0.258-0.768,0.396c-0.144,0.132-0.204,0.276-0.204,0.462c0,0.318,0.18,0.461,0.414,0.461
			c0.12,0,0.246-0.03,0.348-0.096c0.174-0.12,0.21-0.204,0.21-0.378V14.336z"/>
		<path fill="#808080" d="M101.264,13.748c0.3-0.432,0.468-0.563,0.72-0.563c0.204,0,0.33,0.12,0.33,0.318
			c0,0.167-0.09,0.27-0.234,0.27c-0.078,0-0.144-0.03-0.24-0.12c-0.066-0.06-0.12-0.09-0.156-0.09c-0.168,0-0.42,0.3-0.42,0.492
			v1.35c0,0.342,0.102,0.432,0.51,0.45v0.09h-1.439v-0.09c0.384-0.072,0.426-0.114,0.426-0.414V13.94c0-0.264-0.054-0.36-0.204-0.36
			c-0.072,0-0.126,0.006-0.21,0.024v-0.096c0.354-0.114,0.57-0.198,0.888-0.324l0.03,0.012V13.748z"/>
	</g>
	<g>
		<path d="M49.9,22.361c-0.56,0.07-0.649,0.16-0.819,0.77l-1.2,4.288c-0.09,0.32-0.15,0.56-0.15,0.759c0,0.28,0.12,0.32,0.69,0.39
			v0.16h-2.439v-0.16c0.55-0.1,0.69-0.189,0.84-0.75l1.199-4.407c0.07-0.25,0.13-0.46,0.13-0.62c0-0.25-0.16-0.4-0.72-0.43v-0.16
			H49.9V22.361z"/>
	</g>
	<g>
		<g>
			
				<line fill="none" stroke="#FF0000" stroke-width="0.5" stroke-linecap="round" stroke-linejoin="round" x1="61.399" y1="75.959" x2="61.399" y2="92.08"/>
			<g>
				<polygon fill="#FF0000" points="59.354,90.424 59.72,90.083 61.398,91.888 63.077,90.083 63.443,90.424 61.398,92.623 				"/>
			</g>
		</g>
	</g>
	<g>
		<path fill="#FF0000" d="M51.732,9.934l-0.21-0.02c0.03-0.22,0.03-0.27,0.03-0.33c0-0.73-0.23-0.86-1.989-0.86
			c-0.46,0-0.61,0.06-0.68,0.32l-0.64,2.269c1.679-0.02,1.709-0.04,2.159-0.939l0.18,0.05l-0.759,2.349l-0.17-0.05
			c0.06-0.31,0.08-0.45,0.08-0.61c0-0.399-0.28-0.439-0.75-0.439c-0.22,0-0.459-0.01-0.829-0.03l-0.59,2.129
			c-0.07,0.25-0.14,0.45-0.14,0.6c0,0.24,0.18,0.35,0.77,0.39v0.16h-2.508v-0.16c0.58-0.04,0.68-0.26,0.83-0.779l1.229-4.417
			c0.07-0.25,0.1-0.45,0.1-0.61c0-0.28-0.1-0.34-0.76-0.4v-0.16h4.967L51.732,9.934z"/>
	</g>
	<g>
		<g>
			
				<line fill="none" stroke="#FF0000" stroke-width="0.4" stroke-linecap="round" stroke-linejoin="round" x1="47.334" y1="6.198" x2="52.036" y2="6.198"/>
			<g>
				<polygon fill="#FF0000" points="50.711,7.834 50.438,7.541 51.883,6.198 50.438,4.855 50.711,4.562 52.47,6.198 				"/>
			</g>
		</g>
	</g>
	<g>
		<g>
			
				<line fill="none" stroke="#FF0000" stroke-width="0.5" stroke-linecap="round" stroke-linejoin="round" x1="57.043" y1="23.253" x2="57.043" y2="7.132"/>
			<g>
				<polygon fill="#FF0000" points="59.088,8.788 58.722,9.129 57.044,7.324 55.365,9.129 54.999,8.788 57.044,6.589 				"/>
			</g>
		</g>
	</g>
	<g>
		<g>
			
				<line fill="none" stroke="#FF0000" stroke-width="0.5" stroke-linecap="round" stroke-linejoin="round" x1="38.018" y1="66.217" x2="26.619" y2="77.617"/>
			<g>
				<polygon fill="#FF0000" points="26.344,74.999 26.844,75.017 26.754,77.481 29.218,77.391 29.236,77.891 26.235,78 				"/>
			</g>
		</g>
	</g>
	<g>
		<g>
			
				<line fill="none" stroke="#FF0000" stroke-width="0.5" stroke-linecap="round" stroke-linejoin="round" x1="78.041" y1="49.362" x2="89.441" y2="37.963"/>
			<g>
				<polygon fill="#FF0000" points="89.715,40.58 89.215,40.562 89.306,38.099 86.842,38.189 86.824,37.688 89.825,37.579 				"/>
			</g>
		</g>
	</g>
	<g>
		<g>
			
				<line fill="none" stroke="#FF0000" stroke-width="0.5" stroke-linecap="round" stroke-linejoin="round" x1="78.041" y1="12.9" x2="89.441" y2="1.501"/>
			<g>
				<polygon fill="#FF0000" points="89.715,4.118 89.215,4.1 89.306,1.637 86.842,1.727 86.824,1.226 89.825,1.117 				"/>
			</g>
		</g>
	</g>
	<g>
		<g>
			<line fill="none" stroke="#00A300" stroke-width="0.2" stroke-miterlimit="10" x1="90.98" y1="17.575" x2="89.92" y2="18.636"/>
			
				<line fill="none" stroke="#00A300" stroke-width="0.2" stroke-miterlimit="10" stroke-dasharray="2.9324,2.9324" x1="87.846" y1="20.71" x2="30.824" y2="77.732"/>
			
				<line fill="none" stroke="#00A300" stroke-width="0.2" stroke-miterlimit="10" x1="29.787" y1="78.769" x2="28.726" y2="79.829"/>
		</g>
	</g>
	<g>
		<path fill="#FF00FF" d="M95.778,27.939v-0.19c0.36,0,0.43-0.02,0.55-0.09c0.08-0.04,0.14-0.15,0.14-0.24
			c0-0.15-0.07-0.42-0.19-0.7l-0.41-0.939h-2.619l-0.459,1.139c-0.05,0.13-0.09,0.3-0.09,0.42c0,0.31,0.22,0.41,0.7,0.41v0.19
			h-1.989v-0.19c0.58-0.06,0.669-0.27,1.259-1.669l2.059-4.877h0.2l2.458,5.627c0.28,0.649,0.42,0.859,0.939,0.919v0.19H95.778z
			 M94.569,22.622l-1.149,2.749h2.309L94.569,22.622z"/>
	</g>
	<g>
		<path fill="#FF00FF" d="M95.177,7.602c0.66,0.11,0.929,0.29,1.219,0.55c0.32,0.29,0.49,0.709,0.49,1.149
			c0,1.109-0.939,1.779-2.389,1.779h-3.368v-0.19c0.79-0.02,0.959-0.18,0.959-0.939V5.583c0-0.79-0.15-0.879-0.959-0.929v-0.19
			h2.798c1.729,0,2.619,0.609,2.619,1.669c0,0.41-0.16,0.819-0.41,1.04c-0.24,0.21-0.44,0.29-0.959,0.419V7.602z M94.027,7.422
			c1.009,0,1.499-0.41,1.499-1.239c0-0.839-0.58-1.349-1.769-1.349h-0.41c-0.17,0-0.24,0.09-0.24,0.32v2.269H94.027z M93.108,10.26
			c0,0.34,0.16,0.45,0.62,0.45c0.839,0,1.189-0.04,1.629-0.43c0.25-0.22,0.38-0.56,0.38-0.989c0-0.479-0.14-0.85-0.47-1.069
			c-0.6-0.4-0.979-0.36-2.159-0.4V10.26z"/>
	</g>
	<g>
	</g>
	<g>
	</g>
</g>
</svg>
