<?xml version="1.0" encoding="utf-8"?>
<!-- Generator: Adobe Illustrator 26.0.1, SVG Export Plug-In . SVG Version: 6.00 Build 0)  -->
<svg version="1.1" xmlns="http://www.w3.org/2000/svg" xmlns:xlink="http://www.w3.org/1999/xlink" x="0px" y="0px"
	 viewBox="0 0 118.957 79.988" enable-background="new 0 0 118.957 79.988" xml:space="preserve">
<g id="Graph_paper_slanted" opacity="0.5">
	<g id="Clipped_grid_00000003068028900943026870000011536296927355263674_">
		<defs>
			<polygon id="SVGID_1_" points="84.92,114.865 -76.362,114.865 24.817,13.089 186.098,13.089 			"/>
		</defs>
		<clipPath id="SVGID_00000073717203167654963570000002150314582573235118_">
			<use xlink:href="#SVGID_1_"  overflow="visible"/>
		</clipPath>
		
			<g id="Grid_00000142891597197125820610000009767860333217090727_" opacity="0.25" clip-path="url(#SVGID_00000073717203167654963570000002150314582573235118_)">
			<g id="Horizontal_1_mm_00000151508609497893311650000018408800186222605470_">
				
					<line fill="none" stroke="#00ABEB" stroke-width="0.15" stroke-miterlimit="10" x1="2.087" y1="-4.803" x2="228.928" y2="-4.803"/>
				
					<line fill="none" stroke="#00ABEB" stroke-width="0.15" stroke-miterlimit="10" x1="4.075" y1="-6.791" x2="230.916" y2="-6.791"/>
				
					<line fill="none" stroke="#00ABEB" stroke-width="0.15" stroke-miterlimit="10" x1="-115.201" y1="112.486" x2="111.639" y2="112.486"/>
				
					<line fill="none" stroke="#00ABEB" stroke-width="0.15" stroke-miterlimit="10" x1="-113.213" y1="110.497" x2="113.628" y2="110.497"/>
				
					<line fill="none" stroke="#00ABEB" stroke-width="0.15" stroke-miterlimit="10" x1="-111.226" y1="108.51" x2="115.615" y2="108.51"/>
				
					<line fill="none" stroke="#00ABEB" stroke-width="0.15" stroke-miterlimit="10" x1="-109.238" y1="106.522" x2="117.603" y2="106.522"/>
				
					<line fill="none" stroke="#00ABEB" stroke-width="0.15" stroke-miterlimit="10" x1="-107.249" y1="104.534" x2="119.591" y2="104.534"/>
				
					<line fill="none" stroke="#00ABEB" stroke-width="0.15" stroke-miterlimit="10" x1="-105.262" y1="102.546" x2="121.579" y2="102.546"/>
				
					<line fill="none" stroke="#00ABEB" stroke-width="0.15" stroke-miterlimit="10" x1="-103.274" y1="100.558" x2="123.567" y2="100.558"/>
				
					<line fill="none" stroke="#00ABEB" stroke-width="0.15" stroke-miterlimit="10" x1="-101.286" y1="98.571" x2="125.554" y2="98.571"/>
				
					<line fill="none" stroke="#00ABEB" stroke-width="0.15" stroke-miterlimit="10" x1="-99.298" y1="96.582" x2="127.543" y2="96.582"/>
				
					<line fill="none" stroke="#00ABEB" stroke-width="0.15" stroke-miterlimit="10" x1="-97.31" y1="94.594" x2="129.531" y2="94.594"/>
				
					<line fill="none" stroke="#00ABEB" stroke-width="0.15" stroke-miterlimit="10" x1="-95.322" y1="92.606" x2="131.519" y2="92.606"/>
				
					<line fill="none" stroke="#00ABEB" stroke-width="0.15" stroke-miterlimit="10" x1="-93.334" y1="90.618" x2="133.507" y2="90.618"/>
				
					<line fill="none" stroke="#00ABEB" stroke-width="0.15" stroke-miterlimit="10" x1="-91.346" y1="88.63" x2="135.495" y2="88.63"/>
				
					<line fill="none" stroke="#00ABEB" stroke-width="0.15" stroke-miterlimit="10" x1="-89.358" y1="86.643" x2="137.482" y2="86.643"/>
				
					<line fill="none" stroke="#00ABEB" stroke-width="0.15" stroke-miterlimit="10" x1="-87.37" y1="84.654" x2="139.471" y2="84.654"/>
				
					<line fill="none" stroke="#00ABEB" stroke-width="0.15" stroke-miterlimit="10" x1="-85.382" y1="82.666" x2="141.459" y2="82.666"/>
				
					<line fill="none" stroke="#00ABEB" stroke-width="0.15" stroke-miterlimit="10" x1="-83.395" y1="80.679" x2="143.446" y2="80.679"/>
				
					<line fill="none" stroke="#00ABEB" stroke-width="0.15" stroke-miterlimit="10" x1="-81.406" y1="78.691" x2="145.434" y2="78.691"/>
				
					<line fill="none" stroke="#00ABEB" stroke-width="0.15" stroke-miterlimit="10" x1="-79.418" y1="76.703" x2="147.423" y2="76.703"/>
				
					<line fill="none" stroke="#00ABEB" stroke-width="0.15" stroke-miterlimit="10" x1="-77.431" y1="74.715" x2="149.41" y2="74.715"/>
				
					<line fill="none" stroke="#00ABEB" stroke-width="0.15" stroke-miterlimit="10" x1="-75.443" y1="72.727" x2="151.398" y2="72.727"/>
				
					<line fill="none" stroke="#00ABEB" stroke-width="0.15" stroke-miterlimit="10" x1="-73.454" y1="70.738" x2="153.387" y2="70.738"/>
				
					<line fill="none" stroke="#00ABEB" stroke-width="0.15" stroke-miterlimit="10" x1="-71.467" y1="68.751" x2="155.374" y2="68.751"/>
				
					<line fill="none" stroke="#00ABEB" stroke-width="0.15" stroke-miterlimit="10" x1="-69.478" y1="66.763" x2="157.362" y2="66.763"/>
				
					<line fill="none" stroke="#00ABEB" stroke-width="0.15" stroke-miterlimit="10" x1="-67.491" y1="64.775" x2="159.35" y2="64.775"/>
				
					<line fill="none" stroke="#00ABEB" stroke-width="0.15" stroke-miterlimit="10" x1="-65.503" y1="62.787" x2="161.338" y2="62.787"/>
				
					<line fill="none" stroke="#00ABEB" stroke-width="0.15" stroke-miterlimit="10" x1="-63.515" y1="60.799" x2="163.326" y2="60.799"/>
				
					<line fill="none" stroke="#00ABEB" stroke-width="0.15" stroke-miterlimit="10" x1="-61.527" y1="58.812" x2="165.314" y2="58.812"/>
				
					<line fill="none" stroke="#00ABEB" stroke-width="0.15" stroke-miterlimit="10" x1="-59.539" y1="56.823" x2="167.302" y2="56.823"/>
				
					<line fill="none" stroke="#00ABEB" stroke-width="0.15" stroke-miterlimit="10" x1="-57.551" y1="54.835" x2="169.29" y2="54.835"/>
				
					<line fill="none" stroke="#00ABEB" stroke-width="0.15" stroke-miterlimit="10" x1="-55.563" y1="52.848" x2="171.278" y2="52.848"/>
				
					<line fill="none" stroke="#00ABEB" stroke-width="0.15" stroke-miterlimit="10" x1="-53.575" y1="50.86" x2="173.266" y2="50.86"/>
				
					<line fill="none" stroke="#00ABEB" stroke-width="0.15" stroke-miterlimit="10" x1="-51.587" y1="48.871" x2="175.254" y2="48.871"/>
				
					<line fill="none" stroke="#00ABEB" stroke-width="0.15" stroke-miterlimit="10" x1="-49.6" y1="46.884" x2="177.241" y2="46.884"/>
				
					<line fill="none" stroke="#00ABEB" stroke-width="0.15" stroke-miterlimit="10" x1="-47.611" y1="44.896" x2="179.23" y2="44.896"/>
				
					<line fill="none" stroke="#00ABEB" stroke-width="0.15" stroke-miterlimit="10" x1="-45.623" y1="42.908" x2="181.218" y2="42.908"/>
				
					<line fill="none" stroke="#00ABEB" stroke-width="0.15" stroke-miterlimit="10" x1="-43.636" y1="40.92" x2="183.205" y2="40.92"/>
				
					<line fill="none" stroke="#00ABEB" stroke-width="0.15" stroke-miterlimit="10" x1="-41.648" y1="38.932" x2="185.193" y2="38.932"/>
				
					<line fill="none" stroke="#00ABEB" stroke-width="0.15" stroke-miterlimit="10" x1="-39.659" y1="36.944" x2="187.181" y2="36.944"/>
				
					<line fill="none" stroke="#00ABEB" stroke-width="0.15" stroke-miterlimit="10" x1="-37.672" y1="34.956" x2="189.169" y2="34.956"/>
				
					<line fill="none" stroke="#00ABEB" stroke-width="0.15" stroke-miterlimit="10" x1="-35.683" y1="32.968" x2="191.157" y2="32.968"/>
				
					<line fill="none" stroke="#00ABEB" stroke-width="0.15" stroke-miterlimit="10" x1="-33.696" y1="30.981" x2="193.145" y2="30.981"/>
				
					<line fill="none" stroke="#00ABEB" stroke-width="0.15" stroke-miterlimit="10" x1="-31.708" y1="28.992" x2="195.133" y2="28.992"/>
				
					<line fill="none" stroke="#00ABEB" stroke-width="0.15" stroke-miterlimit="10" x1="-29.72" y1="27.004" x2="197.121" y2="27.004"/>
				
					<line fill="none" stroke="#00ABEB" stroke-width="0.15" stroke-miterlimit="10" x1="-27.732" y1="25.017" x2="199.109" y2="25.017"/>
				
					<line fill="none" stroke="#00ABEB" stroke-width="0.15" stroke-miterlimit="10" x1="-25.744" y1="23.029" x2="201.097" y2="23.029"/>
				
					<line fill="none" stroke="#00ABEB" stroke-width="0.15" stroke-miterlimit="10" x1="-23.756" y1="21.04" x2="203.085" y2="21.04"/>
				
					<line fill="none" stroke="#00ABEB" stroke-width="0.15" stroke-miterlimit="10" x1="-21.768" y1="19.053" x2="205.073" y2="19.053"/>
				
					<line fill="none" stroke="#00ABEB" stroke-width="0.15" stroke-miterlimit="10" x1="-19.78" y1="17.065" x2="207.061" y2="17.065"/>
				
					<line fill="none" stroke="#00ABEB" stroke-width="0.15" stroke-miterlimit="10" x1="-17.792" y1="15.077" x2="209.049" y2="15.077"/>
				
					<line fill="none" stroke="#00ABEB" stroke-width="0.15" stroke-miterlimit="10" x1="-15.804" y1="13.089" x2="211.036" y2="13.089"/>
				
					<line fill="none" stroke="#00ABEB" stroke-width="0.15" stroke-miterlimit="10" x1="-13.816" y1="11.101" x2="213.025" y2="11.101"/>
				
					<line fill="none" stroke="#00ABEB" stroke-width="0.15" stroke-miterlimit="10" x1="-11.828" y1="9.113" x2="215.013" y2="9.113"/>
				<line fill="none" stroke="#00ABEB" stroke-width="0.15" stroke-miterlimit="10" x1="-9.841" y1="7.125" x2="217" y2="7.125"/>
				
					<line fill="none" stroke="#00ABEB" stroke-width="0.15" stroke-miterlimit="10" x1="-7.852" y1="5.137" x2="218.989" y2="5.137"/>
				
					<line fill="none" stroke="#00ABEB" stroke-width="0.15" stroke-miterlimit="10" x1="-5.865" y1="3.149" x2="220.976" y2="3.149"/>
				
					<line fill="none" stroke="#00ABEB" stroke-width="0.15" stroke-miterlimit="10" x1="-3.876" y1="1.161" x2="222.964" y2="1.161"/>
				
					<line fill="none" stroke="#00ABEB" stroke-width="0.15" stroke-miterlimit="10" x1="-1.888" y1="-0.827" x2="224.952" y2="-0.827"/>
				
					<line fill="none" stroke="#00ABEB" stroke-width="0.15" stroke-miterlimit="10" x1="0.099" y1="-2.814" x2="226.94" y2="-2.814"/>
			</g>
			<g id="Vertical_1_mm_00000181073523592228201180000012361058669048395659_">
				<g>
					
						<line fill="none" stroke="#00ABEB" stroke-width="0.15" stroke-miterlimit="10" x1="-115.117" y1="112.476" x2="4.203" y2="-6.843"/>
				</g>
				
					<line fill="none" stroke="#00ABEB" stroke-width="0.15" stroke-miterlimit="10" x1="-112.283" y1="112.476" x2="7.037" y2="-6.843"/>
				
					<line fill="none" stroke="#00ABEB" stroke-width="0.15" stroke-miterlimit="10" x1="-109.448" y1="112.476" x2="9.872" y2="-6.843"/>
				
					<line fill="none" stroke="#00ABEB" stroke-width="0.15" stroke-miterlimit="10" x1="-106.613" y1="112.476" x2="12.707" y2="-6.843"/>
				
					<line fill="none" stroke="#00ABEB" stroke-width="0.15" stroke-miterlimit="10" x1="-103.779" y1="112.476" x2="15.541" y2="-6.843"/>
				
					<line fill="none" stroke="#00ABEB" stroke-width="0.15" stroke-miterlimit="10" x1="-100.944" y1="112.476" x2="18.376" y2="-6.843"/>
				
					<line fill="none" stroke="#00ABEB" stroke-width="0.15" stroke-miterlimit="10" x1="-98.109" y1="112.476" x2="21.211" y2="-6.843"/>
				
					<line fill="none" stroke="#00ABEB" stroke-width="0.15" stroke-miterlimit="10" x1="-95.275" y1="112.476" x2="24.045" y2="-6.843"/>
				
					<line fill="none" stroke="#00ABEB" stroke-width="0.15" stroke-miterlimit="10" x1="-92.439" y1="112.476" x2="26.881" y2="-6.843"/>
				
					<line fill="none" stroke="#00ABEB" stroke-width="0.15" stroke-miterlimit="10" x1="-89.605" y1="112.476" x2="29.715" y2="-6.843"/>
				
					<line fill="none" stroke="#00ABEB" stroke-width="0.15" stroke-miterlimit="10" x1="-86.77" y1="112.476" x2="32.55" y2="-6.843"/>
				
					<line fill="none" stroke="#00ABEB" stroke-width="0.15" stroke-miterlimit="10" x1="-83.935" y1="112.476" x2="35.385" y2="-6.843"/>
				
					<line fill="none" stroke="#00ABEB" stroke-width="0.15" stroke-miterlimit="10" x1="-81.101" y1="112.476" x2="38.219" y2="-6.843"/>
				
					<line fill="none" stroke="#00ABEB" stroke-width="0.15" stroke-miterlimit="10" x1="-78.267" y1="112.476" x2="41.053" y2="-6.843"/>
				
					<line fill="none" stroke="#00ABEB" stroke-width="0.15" stroke-miterlimit="10" x1="-75.432" y1="112.476" x2="43.888" y2="-6.843"/>
				
					<line fill="none" stroke="#00ABEB" stroke-width="0.15" stroke-miterlimit="10" x1="-72.598" y1="112.476" x2="46.722" y2="-6.843"/>
				
					<line fill="none" stroke="#00ABEB" stroke-width="0.15" stroke-miterlimit="10" x1="-69.763" y1="112.476" x2="49.557" y2="-6.843"/>
				
					<line fill="none" stroke="#00ABEB" stroke-width="0.15" stroke-miterlimit="10" x1="-66.928" y1="112.476" x2="52.392" y2="-6.843"/>
				
					<line fill="none" stroke="#00ABEB" stroke-width="0.15" stroke-miterlimit="10" x1="-64.094" y1="112.476" x2="55.226" y2="-6.843"/>
				
					<line fill="none" stroke="#00ABEB" stroke-width="0.15" stroke-miterlimit="10" x1="-61.259" y1="112.476" x2="58.061" y2="-6.843"/>
				
					<line fill="none" stroke="#00ABEB" stroke-width="0.15" stroke-miterlimit="10" x1="-58.424" y1="112.476" x2="60.896" y2="-6.843"/>
				
					<line fill="none" stroke="#00ABEB" stroke-width="0.15" stroke-miterlimit="10" x1="-55.59" y1="112.476" x2="63.73" y2="-6.843"/>
				
					<line fill="none" stroke="#00ABEB" stroke-width="0.15" stroke-miterlimit="10" x1="-52.755" y1="112.476" x2="66.565" y2="-6.843"/>
				
					<line fill="none" stroke="#00ABEB" stroke-width="0.15" stroke-miterlimit="10" x1="-49.92" y1="112.476" x2="69.4" y2="-6.843"/>
				
					<line fill="none" stroke="#00ABEB" stroke-width="0.15" stroke-miterlimit="10" x1="-47.085" y1="112.476" x2="72.235" y2="-6.843"/>
				
					<line fill="none" stroke="#00ABEB" stroke-width="0.15" stroke-miterlimit="10" x1="-44.25" y1="112.476" x2="75.07" y2="-6.843"/>
				
					<line fill="none" stroke="#00ABEB" stroke-width="0.15" stroke-miterlimit="10" x1="-41.416" y1="112.476" x2="77.904" y2="-6.843"/>
				
					<line fill="none" stroke="#00ABEB" stroke-width="0.15" stroke-miterlimit="10" x1="-38.581" y1="112.476" x2="80.739" y2="-6.843"/>
				
					<line fill="none" stroke="#00ABEB" stroke-width="0.15" stroke-miterlimit="10" x1="-35.746" y1="112.476" x2="83.574" y2="-6.843"/>
				
					<line fill="none" stroke="#00ABEB" stroke-width="0.15" stroke-miterlimit="10" x1="-32.913" y1="112.476" x2="86.407" y2="-6.843"/>
				
					<line fill="none" stroke="#00ABEB" stroke-width="0.15" stroke-miterlimit="10" x1="-30.078" y1="112.476" x2="89.242" y2="-6.843"/>
				
					<line fill="none" stroke="#00ABEB" stroke-width="0.15" stroke-miterlimit="10" x1="-27.243" y1="112.476" x2="92.077" y2="-6.843"/>
				
					<line fill="none" stroke="#00ABEB" stroke-width="0.15" stroke-miterlimit="10" x1="-24.409" y1="112.476" x2="94.911" y2="-6.843"/>
				
					<line fill="none" stroke="#00ABEB" stroke-width="0.15" stroke-miterlimit="10" x1="-21.574" y1="112.476" x2="97.746" y2="-6.843"/>
				
					<line fill="none" stroke="#00ABEB" stroke-width="0.15" stroke-miterlimit="10" x1="-18.739" y1="112.476" x2="100.581" y2="-6.843"/>
				
					<line fill="none" stroke="#00ABEB" stroke-width="0.15" stroke-miterlimit="10" x1="-15.905" y1="112.476" x2="103.415" y2="-6.843"/>
				
					<line fill="none" stroke="#00ABEB" stroke-width="0.15" stroke-miterlimit="10" x1="-13.07" y1="112.476" x2="106.25" y2="-6.843"/>
				
					<line fill="none" stroke="#00ABEB" stroke-width="0.15" stroke-miterlimit="10" x1="-10.235" y1="112.476" x2="109.085" y2="-6.843"/>
				
					<line fill="none" stroke="#00ABEB" stroke-width="0.15" stroke-miterlimit="10" x1="-7.401" y1="112.476" x2="111.919" y2="-6.843"/>
				
					<line fill="none" stroke="#00ABEB" stroke-width="0.15" stroke-miterlimit="10" x1="-4.566" y1="112.476" x2="114.754" y2="-6.843"/>
				
					<line fill="none" stroke="#00ABEB" stroke-width="0.15" stroke-miterlimit="10" x1="-1.732" y1="112.476" x2="117.588" y2="-6.843"/>
				
					<line fill="none" stroke="#00ABEB" stroke-width="0.15" stroke-miterlimit="10" x1="1.104" y1="112.476" x2="120.424" y2="-6.843"/>
				
					<line fill="none" stroke="#00ABEB" stroke-width="0.15" stroke-miterlimit="10" x1="3.939" y1="112.476" x2="123.259" y2="-6.843"/>
				
					<line fill="none" stroke="#00ABEB" stroke-width="0.15" stroke-miterlimit="10" x1="6.773" y1="112.476" x2="126.093" y2="-6.843"/>
				
					<line fill="none" stroke="#00ABEB" stroke-width="0.15" stroke-miterlimit="10" x1="9.608" y1="112.476" x2="128.928" y2="-6.843"/>
				
					<line fill="none" stroke="#00ABEB" stroke-width="0.15" stroke-miterlimit="10" x1="12.442" y1="112.476" x2="131.762" y2="-6.843"/>
				
					<line fill="none" stroke="#00ABEB" stroke-width="0.15" stroke-miterlimit="10" x1="15.276" y1="112.476" x2="134.596" y2="-6.843"/>
				
					<line fill="none" stroke="#00ABEB" stroke-width="0.15" stroke-miterlimit="10" x1="18.111" y1="112.476" x2="137.431" y2="-6.843"/>
				
					<line fill="none" stroke="#00ABEB" stroke-width="0.15" stroke-miterlimit="10" x1="20.946" y1="112.476" x2="140.266" y2="-6.843"/>
				
					<line fill="none" stroke="#00ABEB" stroke-width="0.15" stroke-miterlimit="10" x1="23.78" y1="112.476" x2="143.1" y2="-6.843"/>
				
					<line fill="none" stroke="#00ABEB" stroke-width="0.15" stroke-miterlimit="10" x1="26.615" y1="112.476" x2="145.935" y2="-6.843"/>
				
					<line fill="none" stroke="#00ABEB" stroke-width="0.15" stroke-miterlimit="10" x1="29.45" y1="112.476" x2="148.77" y2="-6.843"/>
				
					<line fill="none" stroke="#00ABEB" stroke-width="0.15" stroke-miterlimit="10" x1="32.284" y1="112.476" x2="151.604" y2="-6.843"/>
				
					<line fill="none" stroke="#00ABEB" stroke-width="0.15" stroke-miterlimit="10" x1="35.119" y1="112.476" x2="154.439" y2="-6.843"/>
				
					<line fill="none" stroke="#00ABEB" stroke-width="0.15" stroke-miterlimit="10" x1="37.954" y1="112.476" x2="157.274" y2="-6.843"/>
				
					<line fill="none" stroke="#00ABEB" stroke-width="0.15" stroke-miterlimit="10" x1="40.788" y1="112.476" x2="160.108" y2="-6.843"/>
				
					<line fill="none" stroke="#00ABEB" stroke-width="0.15" stroke-miterlimit="10" x1="43.624" y1="112.476" x2="162.944" y2="-6.843"/>
				
					<line fill="none" stroke="#00ABEB" stroke-width="0.15" stroke-miterlimit="10" x1="46.458" y1="112.476" x2="165.778" y2="-6.843"/>
				
					<line fill="none" stroke="#00ABEB" stroke-width="0.15" stroke-miterlimit="10" x1="49.293" y1="112.476" x2="168.613" y2="-6.843"/>
				
					<line fill="none" stroke="#00ABEB" stroke-width="0.15" stroke-miterlimit="10" x1="52.128" y1="112.476" x2="171.448" y2="-6.843"/>
				
					<line fill="none" stroke="#00ABEB" stroke-width="0.15" stroke-miterlimit="10" x1="54.962" y1="112.476" x2="174.282" y2="-6.843"/>
				
					<line fill="none" stroke="#00ABEB" stroke-width="0.15" stroke-miterlimit="10" x1="57.796" y1="112.476" x2="177.116" y2="-6.843"/>
				
					<line fill="none" stroke="#00ABEB" stroke-width="0.15" stroke-miterlimit="10" x1="60.631" y1="112.476" x2="179.951" y2="-6.843"/>
				
					<line fill="none" stroke="#00ABEB" stroke-width="0.15" stroke-miterlimit="10" x1="63.465" y1="112.476" x2="182.785" y2="-6.843"/>
				
					<line fill="none" stroke="#00ABEB" stroke-width="0.15" stroke-miterlimit="10" x1="66.3" y1="112.476" x2="185.62" y2="-6.843"/>
				
					<line fill="none" stroke="#00ABEB" stroke-width="0.15" stroke-miterlimit="10" x1="69.135" y1="112.476" x2="188.455" y2="-6.843"/>
				
					<line fill="none" stroke="#00ABEB" stroke-width="0.15" stroke-miterlimit="10" x1="71.969" y1="112.476" x2="191.289" y2="-6.843"/>
				
					<line fill="none" stroke="#00ABEB" stroke-width="0.15" stroke-miterlimit="10" x1="74.804" y1="112.476" x2="194.124" y2="-6.843"/>
				
					<line fill="none" stroke="#00ABEB" stroke-width="0.15" stroke-miterlimit="10" x1="77.639" y1="112.476" x2="196.959" y2="-6.843"/>
				
					<line fill="none" stroke="#00ABEB" stroke-width="0.15" stroke-miterlimit="10" x1="80.473" y1="112.476" x2="199.793" y2="-6.843"/>
				
					<line fill="none" stroke="#00ABEB" stroke-width="0.15" stroke-miterlimit="10" x1="83.308" y1="112.476" x2="202.628" y2="-6.843"/>
				
					<line fill="none" stroke="#00ABEB" stroke-width="0.15" stroke-miterlimit="10" x1="86.143" y1="112.476" x2="205.463" y2="-6.843"/>
				
					<line fill="none" stroke="#00ABEB" stroke-width="0.15" stroke-miterlimit="10" x1="88.978" y1="112.476" x2="208.298" y2="-6.843"/>
				
					<line fill="none" stroke="#00ABEB" stroke-width="0.15" stroke-miterlimit="10" x1="91.813" y1="112.476" x2="211.133" y2="-6.843"/>
				
					<line fill="none" stroke="#00ABEB" stroke-width="0.15" stroke-miterlimit="10" x1="94.647" y1="112.476" x2="213.967" y2="-6.843"/>
				
					<line fill="none" stroke="#00ABEB" stroke-width="0.15" stroke-miterlimit="10" x1="97.482" y1="112.476" x2="216.802" y2="-6.843"/>
				
					<line fill="none" stroke="#00ABEB" stroke-width="0.15" stroke-miterlimit="10" x1="100.317" y1="112.476" x2="219.637" y2="-6.843"/>
				
					<line fill="none" stroke="#00ABEB" stroke-width="0.15" stroke-miterlimit="10" x1="103.15" y1="112.476" x2="222.47" y2="-6.843"/>
				
					<line fill="none" stroke="#00ABEB" stroke-width="0.15" stroke-miterlimit="10" x1="105.985" y1="112.476" x2="225.305" y2="-6.843"/>
				
					<line fill="none" stroke="#00ABEB" stroke-width="0.15" stroke-miterlimit="10" x1="108.82" y1="112.476" x2="228.14" y2="-6.843"/>
				
					<line fill="none" stroke="#00ABEB" stroke-width="0.15" stroke-miterlimit="10" x1="111.654" y1="112.476" x2="230.974" y2="-6.843"/>
			</g>
			<g id="Horizontal_5_mm_00000011735556503592991880000008134099091165005186_">
				
					<line fill="none" stroke="#00ABEB" stroke-width="0.3" stroke-miterlimit="10" x1="-115.476" y1="112.486" x2="111.639" y2="112.486"/>
				
					<line fill="none" stroke="#00ABEB" stroke-width="0.3" stroke-miterlimit="10" x1="-105.537" y1="102.546" x2="121.579" y2="102.546"/>
				
					<line fill="none" stroke="#00ABEB" stroke-width="0.3" stroke-miterlimit="10" x1="-95.597" y1="92.606" x2="131.519" y2="92.606"/>
				
					<line fill="none" stroke="#00ABEB" stroke-width="0.3" stroke-miterlimit="10" x1="-85.657" y1="82.666" x2="141.459" y2="82.666"/>
				
					<line fill="none" stroke="#00ABEB" stroke-width="0.3" stroke-miterlimit="10" x1="-75.717" y1="72.727" x2="151.398" y2="72.727"/>
				
					<line fill="none" stroke="#00ABEB" stroke-width="0.3" stroke-miterlimit="10" x1="-65.778" y1="62.787" x2="161.338" y2="62.787"/>
				
					<line fill="none" stroke="#00ABEB" stroke-width="0.3" stroke-miterlimit="10" x1="-55.838" y1="52.848" x2="171.278" y2="52.848"/>
				
					<line fill="none" stroke="#00ABEB" stroke-width="0.3" stroke-miterlimit="10" x1="-45.898" y1="42.908" x2="181.218" y2="42.908"/>
				
					<line fill="none" stroke="#00ABEB" stroke-width="0.3" stroke-miterlimit="10" x1="-35.958" y1="32.968" x2="191.157" y2="32.968"/>
				
					<line fill="none" stroke="#00ABEB" stroke-width="0.3" stroke-miterlimit="10" x1="-26.019" y1="23.029" x2="201.097" y2="23.029"/>
				
					<line fill="none" stroke="#00ABEB" stroke-width="0.3" stroke-miterlimit="10" x1="-16.079" y1="13.089" x2="211.036" y2="13.089"/>
			</g>
			<g id="Vertical_5_mm_00000064346364918789686960000003233481195482251947_">
				
					<line fill="none" stroke="#00ABEB" stroke-width="0.3" stroke-miterlimit="10" x1="-115.117" y1="112.476" x2="4.396" y2="-7.036"/>
				
					<line fill="none" stroke="#00ABEB" stroke-width="0.3" stroke-miterlimit="10" x1="-100.944" y1="112.476" x2="18.569" y2="-7.036"/>
				
					<line fill="none" stroke="#00ABEB" stroke-width="0.3" stroke-miterlimit="10" x1="-86.77" y1="112.476" x2="32.742" y2="-7.036"/>
				
					<line fill="none" stroke="#00ABEB" stroke-width="0.3" stroke-miterlimit="10" x1="-72.598" y1="112.476" x2="46.915" y2="-7.036"/>
				
					<line fill="none" stroke="#00ABEB" stroke-width="0.3" stroke-miterlimit="10" x1="-58.424" y1="112.476" x2="61.089" y2="-7.036"/>
				
					<line fill="none" stroke="#00ABEB" stroke-width="0.3" stroke-miterlimit="10" x1="-44.25" y1="112.476" x2="75.262" y2="-7.036"/>
				
					<line fill="none" stroke="#00ABEB" stroke-width="0.3" stroke-miterlimit="10" x1="-30.078" y1="112.476" x2="89.435" y2="-7.036"/>
				
					<line fill="none" stroke="#00ABEB" stroke-width="0.3" stroke-miterlimit="10" x1="-15.905" y1="112.476" x2="103.608" y2="-7.036"/>
				
					<line fill="none" stroke="#00ABEB" stroke-width="0.3" stroke-miterlimit="10" x1="-1.732" y1="112.476" x2="117.781" y2="-7.036"/>
				
					<line fill="none" stroke="#00ABEB" stroke-width="0.3" stroke-miterlimit="10" x1="12.442" y1="112.476" x2="131.955" y2="-7.036"/>
				
					<line fill="none" stroke="#00ABEB" stroke-width="0.3" stroke-miterlimit="10" x1="26.615" y1="112.476" x2="146.128" y2="-7.036"/>
				
					<line fill="none" stroke="#00ABEB" stroke-width="0.3" stroke-miterlimit="10" x1="40.788" y1="112.476" x2="160.301" y2="-7.036"/>
				
					<line fill="none" stroke="#00ABEB" stroke-width="0.3" stroke-miterlimit="10" x1="54.962" y1="112.476" x2="174.474" y2="-7.036"/>
				
					<line fill="none" stroke="#00ABEB" stroke-width="0.3" stroke-miterlimit="10" x1="69.135" y1="112.476" x2="188.648" y2="-7.036"/>
				
					<line fill="none" stroke="#00ABEB" stroke-width="0.3" stroke-miterlimit="10" x1="83.308" y1="112.476" x2="202.821" y2="-7.036"/>
				
					<line fill="none" stroke="#00ABEB" stroke-width="0.3" stroke-miterlimit="10" x1="97.482" y1="112.476" x2="216.994" y2="-7.036"/>
				
					<line fill="none" stroke="#00ABEB" stroke-width="0.3" stroke-miterlimit="10" x1="111.654" y1="112.476" x2="231.167" y2="-7.036"/>
			</g>
			<g id="Horizontal_10_mm_00000163045836177147705350000008480455355013810362_">
				
					<line id="_x31_9_00000057116790517712807720000015084113881736219806_" fill="none" stroke="#00ABEB" stroke-width="0.7" stroke-miterlimit="10" x1="-115.476" y1="112.486" x2="111.639" y2="112.486"/>
				
					<line id="_x32_0_00000024685878617286333290000013167547815532084100_" fill="none" stroke="#00ABEB" stroke-width="0.7" stroke-miterlimit="10" x1="-95.597" y1="92.606" x2="131.519" y2="92.606"/>
				
					<line id="_x32_1_00000138564813020868535020000012777939180148238773_" fill="none" stroke="#00ABEB" stroke-width="0.7" stroke-miterlimit="10" x1="-75.717" y1="72.727" x2="151.398" y2="72.727"/>
				
					<line id="_x32_2_00000052807586205252870140000014502512662559454639_" fill="none" stroke="#00ABEB" stroke-width="0.7" stroke-miterlimit="10" x1="-55.838" y1="52.848" x2="171.278" y2="52.848"/>
				
					<line id="_x32_3_00000051376893246677475670000009295515732899575694_" fill="none" stroke="#00ABEB" stroke-width="0.7" stroke-miterlimit="10" x1="-35.958" y1="32.968" x2="191.157" y2="32.968"/>
				
					<line id="_x32_4_00000099657911357833521510000007853591198542098087_" fill="none" stroke="#00ABEB" stroke-width="0.7" stroke-miterlimit="10" x1="-16.079" y1="13.089" x2="211.036" y2="13.089"/>
				
					<line id="_x32_5_00000155127691660191171140000008292164438978366870_" fill="none" stroke="#00ABEB" stroke-width="0.7" stroke-miterlimit="10" x1="3.801" y1="-6.791" x2="230.916" y2="-6.791"/>
			</g>
			<g id="Vertical_10_mm_00000134969164297783457920000010833503864539426239_">
				
					<line id="_x30__00000151539528360119995570000005083818057555393183_" fill="none" stroke="#00ABEB" stroke-width="0.7" stroke-miterlimit="10" x1="-115.117" y1="112.476" x2="4.396" y2="-7.036"/>
				
					<line id="_x31__00000021823889366233599640000011971139016478256513_" fill="none" stroke="#00ABEB" stroke-width="0.7" stroke-miterlimit="10" x1="-86.77" y1="112.476" x2="32.742" y2="-7.036"/>
				
					<line id="_x32__00000071550223824624162640000006130814236846722696_" fill="none" stroke="#00ABEB" stroke-width="0.7" stroke-miterlimit="10" x1="-58.424" y1="112.476" x2="61.089" y2="-7.036"/>
				
					<line id="_x33__00000042015976804734918030000005045165563697445304_" fill="none" stroke="#00ABEB" stroke-width="0.7" stroke-miterlimit="10" x1="-30.078" y1="112.476" x2="89.435" y2="-7.036"/>
				
					<line id="_x34__00000081637789328126233800000002486991317463304126_" fill="none" stroke="#00ABEB" stroke-width="0.7" stroke-miterlimit="10" x1="-1.732" y1="112.476" x2="117.781" y2="-7.036"/>
				
					<line id="_x35__00000051353690731882489090000004794744233340785543_" fill="none" stroke="#00ABEB" stroke-width="0.7" stroke-miterlimit="10" x1="26.615" y1="112.476" x2="146.128" y2="-7.036"/>
				
					<line id="_x36__00000011745311307505536660000010485558803267122343_" fill="none" stroke="#00ABEB" stroke-width="0.7" stroke-miterlimit="10" x1="54.962" y1="112.476" x2="174.474" y2="-7.036"/>
				
					<line id="_x37__00000045602144989735358580000003937589459941247142_" fill="none" stroke="#00ABEB" stroke-width="0.7" stroke-miterlimit="10" x1="83.308" y1="112.476" x2="202.821" y2="-7.036"/>
				
					<line id="_x38__00000047029857857898873560000014194396358708286345_" fill="none" stroke="#00ABEB" stroke-width="0.7" stroke-miterlimit="10" x1="111.654" y1="112.476" x2="231.167" y2="-7.036"/>
			</g>
		</g>
	</g>
</g>
<g id="Axis" display="none">
	<g id="lines" display="inline">
		<g>
			<g>
				
					<line fill="none" stroke="#000000" stroke-width="0.5" stroke-miterlimit="10" x1="57.901" y1="52.838" x2="57.901" y2="15.629"/>
				<g>
					<polygon points="59.753,17.033 57.901,16.247 56.05,17.033 57.901,12.644 					"/>
				</g>
			</g>
		</g>
		<g>
			<g>
				
					<line fill="none" stroke="#000000" stroke-width="0.5" stroke-miterlimit="10" x1="57.901" y1="52.838" x2="96.107" y2="52.838"/>
				<g>
					<polygon points="94.703,54.689 95.489,52.838 94.703,50.986 99.092,52.838 					"/>
				</g>
			</g>
		</g>
		<g>
			<g>
				
					<line fill="none" stroke="#000000" stroke-width="0.5" stroke-miterlimit="10" x1="57.901" y1="52.838" x2="33.195" y2="77.544"/>
				<g>
					<polygon points="32.879,75.242 33.632,77.108 35.497,77.861 31.084,79.655 					"/>
				</g>
			</g>
		</g>
	</g>
	<g id="names" display="inline">
		<g>
			<path d="M96.888,58.24c0.51-0.846,0.732-1.277,0.732-1.542c0-0.084-0.042-0.12-0.156-0.192c-0.12-0.078-0.156-0.138-0.156-0.234
				c0-0.132,0.102-0.222,0.24-0.222c0.18,0,0.312,0.15,0.312,0.33c0,0.342-0.288,1.001-0.786,1.829
				c-0.624,1.032-1.265,1.721-1.607,1.721c-0.18,0-0.306-0.102-0.306-0.258c0-0.132,0.102-0.24,0.234-0.24
				c0.21,0,0.21,0.167,0.366,0.167c0.078,0,0.15-0.048,0.288-0.198c0.108-0.114,0.378-0.468,0.426-0.545
				c0.036-0.072,0.06-0.144,0.06-0.21c0-0.24-0.33-1.583-0.492-1.991c-0.114-0.293-0.222-0.384-0.462-0.384
				c-0.066,0-0.12,0.006-0.186,0.024v-0.102c0.066-0.012,0.132-0.024,0.192-0.036c0.12-0.024,0.318-0.06,0.642-0.108h0.024
				c0.09,0,0.408,0.996,0.51,1.529L96.888,58.24z"/>
		</g>
		<g>
			<path d="M53.035,14.886c0.348,0.078,0.479,0.144,0.719,0.498c0.156,0.228,0.27,0.3,0.42,0.3c0.096,0,0.162-0.036,0.162-0.09
				c0-0.024-0.012-0.054-0.03-0.09c-0.036-0.072-0.048-0.12-0.048-0.167c0.006-0.102,0.102-0.204,0.198-0.204
				c0.126,0,0.21,0.09,0.21,0.222c0,0.24-0.222,0.456-0.558,0.456c-0.174,0-0.378-0.078-0.678-0.264
				c-0.282-0.174-0.474-0.251-0.629-0.251c-0.096,0-0.174,0.03-0.27,0.108l-0.054-0.054l1.859-2.231H53.52
				c-0.312,0-0.426,0.054-0.545,0.36l-0.096-0.024l0.192-0.695h1.697v0.066L53.035,14.886z"/>
		</g>
		<g>
			<path d="M29.595,75.663c0.419-0.642,0.642-0.857,0.905-0.857c0.144,0,0.246,0.09,0.246,0.222c0,0.126-0.084,0.216-0.204,0.216
				c-0.114,0-0.168-0.102-0.312-0.102c-0.108,0-0.324,0.264-0.588,0.726c0,0.042,0.012,0.126,0.048,0.27l0.192,0.804
				c0.042,0.168,0.096,0.246,0.18,0.246c0.078,0,0.144-0.06,0.282-0.24c0.054-0.072,0.078-0.108,0.126-0.168l0.09,0.054
				c-0.348,0.54-0.504,0.684-0.731,0.684c-0.192,0-0.282-0.108-0.354-0.408l-0.174-0.714l-0.528,0.714
				c-0.264,0.354-0.384,0.408-0.57,0.408c-0.186,0-0.3-0.096-0.3-0.252c0-0.12,0.084-0.216,0.204-0.216
				c0.054,0,0.114,0.024,0.192,0.066c0.06,0.036,0.12,0.054,0.156,0.054c0.066,0,0.18-0.114,0.306-0.294l0.492-0.696l-0.168-0.743
				c-0.084-0.36-0.126-0.408-0.276-0.408c-0.048,0-0.12,0.012-0.234,0.042l-0.108,0.03l-0.018-0.096l0.066-0.024
				c0.366-0.132,0.564-0.174,0.702-0.174c0.15,0,0.222,0.108,0.306,0.516L29.595,75.663z"/>
		</g>
	</g>
</g>
<g id="Layer_5">
	<g>
		<g>
			<line fill="none" stroke="#0000FF" stroke-width="0.15" stroke-miterlimit="10" x1="58.076" y1="53.18" x2="58.076" y2="52.18"/>
			
				<line fill="none" stroke="#0000FF" stroke-width="0.15" stroke-miterlimit="10" stroke-dasharray="1.9496,1.9496" x1="58.076" y1="50.231" x2="58.076" y2="20.012"/>
			
				<line fill="none" stroke="#0000FF" stroke-width="0.15" stroke-miterlimit="10" x1="58.076" y1="19.037" x2="58.076" y2="18.037"/>
		</g>
	</g>
	<g>
		<path fill="#00A300" d="M46.819,51.422c0.924,0,1.429,0.392,1.429,0.987c0,0.336-0.175,0.679-0.462,0.896
			c-0.217,0.168-0.448,0.252-0.917,0.357l0.624,1.646c0.154,0.414,0.294,0.574,0.609,0.574v0.112h-1.03l-0.861-2.269l-0.462-0.035
			l-0.385,1.422c-0.077,0.273-0.091,0.371-0.091,0.441c0,0.21,0.07,0.287,0.469,0.329v0.112h-1.702v-0.112
			c0.385-0.049,0.483-0.182,0.595-0.595l0.833-3.019c0.049-0.189,0.084-0.322,0.084-0.441c0-0.077-0.049-0.161-0.098-0.196
			c-0.077-0.049-0.105-0.056-0.399-0.098v-0.112H46.819z M45.832,53.432c0.175,0.028,0.231,0.035,0.357,0.035
			c0.833,0,1.324-0.399,1.324-1.051c0-0.483-0.294-0.784-0.84-0.784c-0.217,0-0.364,0.077-0.399,0.21L45.832,53.432z"/>
	</g>
	
		<ellipse fill="none" stroke="#000000" stroke-width="0.8" stroke-linecap="round" stroke-linejoin="round" stroke-miterlimit="10" stroke-dasharray="4" cx="58.074" cy="52.963" rx="48.572" ry="16.153"/>
	<path fill="none" stroke="#000000" stroke-width="0.8" stroke-linecap="round" stroke-linejoin="round" stroke-miterlimit="10" d="
		M106.646,52.963c0,8.921-21.747,16.153-48.572,16.153S9.501,61.885,9.501,52.963"/>
	<g>
		<g>
			<path fill="none" stroke="#000000" stroke-width="0.8" stroke-linecap="round" stroke-linejoin="round" d="M82.488,66.931
				c-3.709,0.719-7.73,1.278-11.979,1.652"/>
			<g>
				<polygon points="79.315,64.133 78.876,64.803 82.178,66.961 79.784,70.096 80.421,70.582 83.335,66.762 				"/>
			</g>
		</g>
	</g>
	<g>
		<path d="M77.307,61.076c-0.392,0.049-0.455,0.112-0.574,0.54l-0.84,3.004c-0.063,0.224-0.105,0.392-0.105,0.532
			c0,0.196,0.084,0.224,0.483,0.273v0.112h-1.709v-0.112c0.385-0.07,0.483-0.133,0.588-0.525l0.84-3.089
			c0.049-0.175,0.091-0.322,0.091-0.434c0-0.175-0.112-0.28-0.504-0.301v-0.112h1.73V61.076z"/>
	</g>
	<g>
		<path fill="#FF0000" d="M37.816,7.03c0.973,0,1.457,0.357,1.457,1.05c0,0.378-0.196,0.624-0.448,0.792
			c-0.217,0.147-0.476,0.21-0.777,0.273v0.007c0.603,0.182,0.882,0.553,0.882,1.05c0,0.938-0.792,1.401-1.926,1.401h-1.905v-0.112
			c0.385-0.056,0.462-0.126,0.582-0.56l0.847-3.054c0.049-0.175,0.077-0.343,0.077-0.448c0-0.203-0.098-0.252-0.539-0.287V7.03
			H37.816z M36.598,10.118c-0.14,0.532-0.245,0.89-0.245,0.98c0,0.196,0.175,0.294,0.469,0.294c0.805,0,1.352-0.414,1.352-1.191
			c0-0.434-0.203-0.742-0.469-0.833c-0.14-0.049-0.441-0.084-0.882-0.084L36.598,10.118z M37.158,9.061
			c0.917,0,1.408-0.371,1.408-1.064c0-0.518-0.252-0.756-0.819-0.756c-0.273,0-0.343,0-0.413,0.252l-0.441,1.569H37.158z"/>
	</g>
	<g>
		<g>
			
				<line fill="none" stroke="#FF0000" stroke-width="0.4" stroke-miterlimit="10" stroke-dasharray="12,12" x1="35.959" y1="4.914" x2="39.54" y2="4.914"/>
			<g>
				<polygon fill="#FF0000" points="38.214,6.55 37.942,6.257 39.386,4.914 37.942,3.571 38.214,3.278 39.974,4.914 				"/>
			</g>
		</g>
	</g>
	<g>
		<g>
			<path fill="none" stroke="#0000FF" stroke-width="0.4" stroke-linecap="round" stroke-linejoin="round" d="M31.652,66.52
				c-1.339-0.289-2.633-0.6-3.877-0.93"/>
			<g>
				
					<rect x="30.353" y="66.315" transform="matrix(0.2334 -0.9724 0.9724 0.2334 -40.4141 81.7655)" fill="#0000FF" width="2.6" height="0.4"/>
			</g>
			<g>
				
					<rect x="26.476" y="65.385" transform="matrix(0.2334 -0.9724 0.9724 0.2334 -42.4805 77.2831)" fill="#0000FF" width="2.6" height="0.4"/>
			</g>
		</g>
	</g>
	<g>
		<g>
			<path fill="#00B200" d="M28.493,55.342c0.133-0.294,0.371-0.665,0.658-0.966c0.182-0.189,0.393-0.315,0.553-0.315
				c0.196,0,0.33,0.147,0.33,0.357s-0.119,0.378-0.33,0.378c-0.126,0-0.182-0.077-0.245-0.182c-0.042-0.07-0.063-0.098-0.112-0.098
				c-0.126,0-0.322,0.231-0.574,0.658c-0.301,0.519-0.427,0.798-0.777,1.975h-0.533l0.567-2.045
				c0.098-0.364,0.112-0.427,0.112-0.575c0-0.147-0.126-0.182-0.266-0.182c-0.056,0-0.112,0.007-0.217,0.021V54.25l1.085-0.189
				l0.021,0.014l-0.385,1.513L28.493,55.342z"/>
		</g>
		<g>
			<path fill="#00B200" d="M30.032,52.734l-1.001-2.024h-0.007l-0.995,2.024h-0.476l1.268-2.557h0.42l1.268,2.557H30.032z"/>
		</g>
	</g>
	<g>
		<g>
			<line fill="none" stroke="#FF0000" stroke-width="0.8" stroke-miterlimit="10" x1="58.074" y1="18.037" x2="43.564" y2="8.963"/>
			<g>
				<polygon fill="#FF0000" points="47.546,7.594 47.698,8.381 43.825,9.125 44.85,12.935 44.077,13.142 42.829,8.502 				"/>
			</g>
		</g>
	</g>
	<g>
		<path fill="#0000FF" d="M26.359,71.719l-0.286,1.065l-0.44,1.534c-0.228,0.798-0.477,1.611-0.477,1.723
			c0,0.084,0.037,0.14,0.132,0.14c0.125,0,0.206-0.063,0.602-0.497l0.088,0.07c-0.36,0.511-0.712,0.798-1.079,0.798
			c-0.191,0-0.301-0.126-0.301-0.315c0-0.161,0.015-0.273,0.095-0.624c-0.433,0.693-0.807,0.925-1.306,0.925
			c-0.477,0-0.786-0.287-0.786-0.819c0-1.135,1.189-2.347,2.144-2.347c0.308,0,0.433,0.133,0.477,0.406h0.007l0.33-1.142
			c0.11-0.371,0.103-0.399,0.103-0.497c0-0.147-0.066-0.168-0.47-0.182v-0.119c0.47-0.042,0.734-0.084,1.123-0.161L26.359,71.719z
			 M24.76,73.533c-0.206,0-0.462,0.119-0.668,0.322c-0.484,0.49-0.852,1.254-0.852,1.835c0,0.322,0.169,0.511,0.426,0.511
			c0.675,0,1.438-1.205,1.438-2.269C25.104,73.681,24.928,73.533,24.76,73.533z"/>
		<path fill="#0000FF" d="M27.089,75.81c-0.037,0.126-0.059,0.245-0.059,0.301c0,0.084,0.051,0.126,0.125,0.126
			c0.11,0,0.279-0.112,0.492-0.399l0.184-0.245l0.103,0.07c-0.44,0.665-0.712,0.875-1.108,0.875c-0.235,0-0.36-0.133-0.36-0.392
			c0-0.056,0.007-0.14,0.029-0.21l1.006-3.67c0.022-0.07,0.022-0.112,0.022-0.133c0-0.084-0.125-0.154-0.36-0.154h-0.132v-0.112
			c0.433-0.049,0.705-0.098,1.138-0.189l0.044,0.035L27.089,75.81z"/>
	</g>
	<g>
		<g>
			
				<line fill="none" stroke="#0000FF" stroke-width="0.4" stroke-miterlimit="10" stroke-dasharray="12,12" x1="26.123" y1="69.629" x2="28.938" y2="69.629"/>
			<g>
				<polygon fill="#0000FF" points="27.612,71.265 27.34,70.972 28.784,69.63 27.34,68.287 27.612,67.994 29.372,69.63 				"/>
			</g>
		</g>
	</g>
	
		<line fill="none" stroke="#00A300" stroke-width="0.15" stroke-miterlimit="10" stroke-dasharray="2" x1="58.073" y1="52.963" x2="27.581" y2="65.538"/>
	<g>
		<g>
			
				<line fill="none" stroke="#00A300" stroke-width="0.4" stroke-miterlimit="10" x1="35.888" y1="52.598" x2="27.582" y2="65.538"/>
			<g>
				<polygon fill="#00A300" points="33.796,52.83 33.895,53.218 35.805,52.727 36.155,54.668 36.549,54.597 36.122,52.233 				"/>
			</g>
		</g>
	</g>
	<g>
		<path fill="#00A300" d="M44.963,31.838c0.133-0.294,0.371-0.665,0.658-0.966c0.182-0.189,0.393-0.315,0.553-0.315
			c0.196,0,0.33,0.147,0.33,0.357s-0.119,0.378-0.33,0.378c-0.126,0-0.182-0.077-0.245-0.182c-0.042-0.07-0.063-0.098-0.112-0.098
			c-0.126,0-0.322,0.231-0.574,0.658c-0.301,0.518-0.427,0.798-0.777,1.975h-0.533l0.567-2.045c0.098-0.364,0.112-0.427,0.112-0.575
			c0-0.147-0.126-0.182-0.266-0.182c-0.056,0-0.112,0.007-0.217,0.021v-0.119l1.085-0.189l0.021,0.014l-0.385,1.513L44.963,31.838z"
			/>
	</g>
	<g>
		<path fill="#0000FF" d="M60.994,31.105c0.406,0.091,0.561,0.168,0.841,0.581c0.182,0.266,0.315,0.351,0.49,0.351
			c0.112,0,0.189-0.042,0.189-0.105c0-0.028-0.014-0.063-0.035-0.105c-0.042-0.084-0.056-0.14-0.056-0.196
			c0.007-0.119,0.119-0.238,0.231-0.238c0.147,0,0.245,0.105,0.245,0.259c0,0.28-0.259,0.532-0.651,0.532
			c-0.203,0-0.441-0.091-0.792-0.308c-0.329-0.203-0.553-0.294-0.735-0.294c-0.112,0-0.203,0.035-0.315,0.126l-0.063-0.063
			l2.171-2.605h-0.953c-0.364,0-0.497,0.063-0.637,0.42l-0.112-0.028l0.224-0.812h1.982v0.077L60.994,31.105z"/>
	</g>
	<line fill="none" stroke="#00A300" stroke-width="0.2" stroke-miterlimit="10" x1="58.073" y1="49.708" x2="55.281" y2="50.86"/>
	<line fill="none" stroke="#00A300" stroke-width="0.2" stroke-miterlimit="10" x1="55.23" y1="54.136" x2="55.23" y2="50.86"/>
	<g>
		<path fill="#FF00FF" d="M55.153,31.095c-0.456,0.602-0.946,0.819-1.436,0.819c-0.567,0-0.896-0.462-0.896-1.205
			c0-1.506,0.792-2.746,1.555-3.327c0.308-0.231,0.574-0.294,0.854-0.294c0.497,0,0.861,0.336,0.861,1.169
			C56.092,29.393,55.671,30.401,55.153,31.095z M53.612,29.631c-0.133,0.35-0.203,0.714-0.203,1.155
			c0,0.624,0.133,0.981,0.392,0.981c0.672,0,1.275-1.45,1.443-2.136H53.612z M55.293,29.407c0.119-0.406,0.21-0.911,0.21-1.436
			c0-0.448-0.126-0.735-0.371-0.735c-0.609,0-1.296,1.548-1.471,2.171H55.293z"/>
	</g>
	<path fill="none" stroke="#FF00FF" stroke-width="0.269" stroke-miterlimit="10" d="M58.181,34.543
		c-3.291,0-6.349-0.997-8.888-2.706"/>
	
		<line fill="none" stroke="#FF0000" stroke-width="0.1" stroke-miterlimit="10" stroke-dasharray="1,1" x1="58.073" y1="3.066" x2="43.647" y2="9.015"/>
	<g>
		<path fill="#FF0000" d="M62.747,5.814c0.973,0,1.457,0.357,1.457,1.05c0,0.378-0.196,0.624-0.448,0.792
			c-0.217,0.147-0.476,0.21-0.777,0.273v0.007c0.603,0.182,0.882,0.553,0.882,1.05c0,0.938-0.792,1.401-1.926,1.401H60.03v-0.112
			c0.385-0.056,0.462-0.126,0.582-0.56l0.847-3.054c0.049-0.175,0.077-0.343,0.077-0.448c0-0.203-0.098-0.252-0.539-0.287V5.814
			H62.747z M61.529,8.903c-0.14,0.532-0.245,0.89-0.245,0.98c0,0.196,0.175,0.294,0.469,0.294c0.805,0,1.352-0.414,1.352-1.191
			c0-0.434-0.203-0.742-0.469-0.833c-0.14-0.049-0.441-0.084-0.882-0.084L61.529,8.903z M62.089,7.845
			c0.917,0,1.408-0.371,1.408-1.064c0-0.518-0.252-0.756-0.819-0.756c-0.273,0-0.343,0-0.413,0.252l-0.441,1.569H62.089z"/>
		<path fill="#FF0000" d="M64.733,12.421c0.236,0.053,0.326,0.098,0.489,0.338c0.105,0.155,0.183,0.204,0.285,0.204
			c0.065,0,0.11-0.024,0.11-0.062c0-0.016-0.008-0.037-0.021-0.061c-0.024-0.049-0.033-0.082-0.033-0.114
			c0.004-0.069,0.069-0.139,0.135-0.139c0.085,0,0.143,0.061,0.143,0.151c0,0.163-0.151,0.31-0.379,0.31
			c-0.118,0-0.257-0.053-0.46-0.179c-0.191-0.118-0.322-0.171-0.428-0.171c-0.065,0-0.118,0.021-0.184,0.073l-0.037-0.037
			l1.263-1.515h-0.554c-0.212,0-0.289,0.037-0.371,0.244l-0.065-0.016l0.13-0.473h1.153v0.045L64.733,12.421z"/>
	</g>
	<g>
		<g>
			<line fill="none" stroke="#FF0000" stroke-width="0.4" stroke-miterlimit="10" x1="58.076" y1="18.037" x2="58.076" y2="3.5"/>
			<g>
				<polygon fill="#FF0000" points="59.711,4.825 59.419,5.098 58.076,3.653 56.733,5.098 56.44,4.825 58.076,3.066 				"/>
			</g>
		</g>
	</g>
	<g>
		<g>
			<line fill="none" stroke="#0000FF" stroke-width="0.4" stroke-miterlimit="10" x1="58.076" y1="53.18" x2="58.076" y2="40.851"/>
			<g>
				<polygon fill="#0000FF" points="59.711,42.176 59.419,42.449 58.076,41.004 56.733,42.449 56.44,42.176 58.076,40.417 				"/>
			</g>
		</g>
	</g>
	<g>
		<g>
			<path fill="#0000FF" d="M61.737,50.349c0.406,0.091,0.561,0.168,0.841,0.581c0.182,0.267,0.315,0.351,0.49,0.351
				c0.112,0,0.189-0.042,0.189-0.105c0-0.028-0.014-0.063-0.035-0.105c-0.042-0.084-0.056-0.14-0.056-0.196
				c0.007-0.119,0.119-0.238,0.231-0.238c0.147,0,0.245,0.105,0.245,0.259c0,0.28-0.259,0.532-0.651,0.532
				c-0.203,0-0.441-0.091-0.792-0.308c-0.329-0.203-0.553-0.294-0.735-0.294c-0.112,0-0.203,0.035-0.315,0.126l-0.063-0.063
				l2.171-2.605h-0.953c-0.364,0-0.497,0.063-0.637,0.42l-0.112-0.028l0.224-0.812h1.982v0.077L61.737,50.349z"/>
		</g>
		<g>
			<path fill="#0000FF" d="M63.565,46.741l-1.001-2.024h-0.007l-0.995,2.024h-0.476l1.268-2.557h0.42l1.268,2.557H63.565z"/>
		</g>
	</g>
	<g>
		<path fill="#FF00FF" d="M62.189,17.001c1.03,0,1.527,0.364,1.527,1.036c0,0.378-0.189,0.764-0.476,1.002
			c-0.322,0.266-0.812,0.399-1.436,0.399c-0.294,0-0.448-0.014-0.63-0.056l-0.371,1.352c-0.049,0.189-0.098,0.336-0.098,0.441
			c0,0.161,0.105,0.245,0.483,0.287v0.112h-1.709v-0.112c0.399-0.056,0.462-0.119,0.588-0.574l0.812-2.899
			c0.091-0.329,0.119-0.476,0.119-0.582c0-0.189-0.098-0.245-0.498-0.294v-0.112H62.189z M61.236,19.145
			c0.203,0.035,0.238,0.035,0.364,0.035c0.434,0,0.68-0.042,0.896-0.168c0.308-0.175,0.498-0.483,0.498-0.938
			c0-0.623-0.336-0.861-0.911-0.861c-0.196,0-0.322,0.056-0.364,0.217L61.236,19.145z"/>
	</g>
	
		<line fill="none" stroke="#FF0000" stroke-width="0.1" stroke-miterlimit="10" stroke-dasharray="1,1" x1="58.073" y1="18.08" x2="43.647" y2="24.029"/>
	
		<line fill="none" stroke="#FF0000" stroke-width="0.1" stroke-miterlimit="10" stroke-dasharray="1,1" x1="43.647" y1="9.015" x2="43.647" y2="24.029"/>
</g>
<g id="Layer_4">
	
		<line fill="none" stroke="#00A300" stroke-width="0.15" stroke-miterlimit="10" stroke-dasharray="2" x1="58.075" y1="18.037" x2="27.581" y2="65.538"/>
	<g id="XMLID_00000168832977265241940520000018312164260083943586_">
		<g>
			
				<image overflow="visible" width="512" height="512" xlink:href="4A2CAE92.png"  transform="matrix(0.0039 0 0 0.0039 57.0755 17.0368)">
			</image>
		</g>
	</g>
	<g>
	</g>
	<g>
	</g>
	<g>
	</g>
</g>
</svg>
