<?xml version="1.0" encoding="utf-8"?>
<!-- Generator: Adobe Illustrator 26.0.1, SVG Export Plug-In . SVG Version: 6.00 Build 0)  -->
<svg version="1.1" xmlns="http://www.w3.org/2000/svg" xmlns:xlink="http://www.w3.org/1999/xlink" x="0px" y="0px"
	 viewBox="0 0 462.021 258.188" enable-background="new 0 0 462.021 258.188" xml:space="preserve">
<g id="Layer_8" opacity="0.5">
	<g id="Clipped_grid">
		<defs>
			<rect id="SVGID_1_" x="-14.004" width="499.436" height="272.443"/>
		</defs>
		<clipPath id="SVGID_00000050626612112706182670000012906347569914923692_">
			<use xlink:href="#SVGID_1_"  overflow="visible"/>
		</clipPath>
		
			<g id="Grid_00000060005542146034257920000005065612243763103930_" opacity="0.25" clip-path="url(#SVGID_00000050626612112706182670000012906347569914923692_)">
			<g id="Horizontal_1_mm">
				
					<line fill="none" stroke="#00ABEB" stroke-width="0.2111" stroke-miterlimit="10" x1="-50.372" y1="-158.48" x2="751.587" y2="-158.48"/>
				
					<line fill="none" stroke="#00ABEB" stroke-width="0.2111" stroke-miterlimit="10" x1="-50.372" y1="-168.502" x2="751.587" y2="-168.502"/>
				
					<line fill="none" stroke="#00ABEB" stroke-width="0.2111" stroke-miterlimit="10" x1="-50.372" y1="432.785" x2="751.587" y2="432.785"/>
				
					<line fill="none" stroke="#00ABEB" stroke-width="0.2111" stroke-miterlimit="10" x1="-50.372" y1="422.762" x2="751.587" y2="422.762"/>
				
					<line fill="none" stroke="#00ABEB" stroke-width="0.2111" stroke-miterlimit="10" x1="-50.372" y1="412.743" x2="751.587" y2="412.743"/>
				
					<line fill="none" stroke="#00ABEB" stroke-width="0.2111" stroke-miterlimit="10" x1="-50.372" y1="402.72" x2="751.587" y2="402.72"/>
				
					<line fill="none" stroke="#00ABEB" stroke-width="0.2111" stroke-miterlimit="10" x1="-50.372" y1="392.698" x2="751.587" y2="392.698"/>
				
					<line fill="none" stroke="#00ABEB" stroke-width="0.2111" stroke-miterlimit="10" x1="-50.372" y1="382.679" x2="751.587" y2="382.679"/>
				
					<line fill="none" stroke="#00ABEB" stroke-width="0.2111" stroke-miterlimit="10" x1="-50.372" y1="372.656" x2="751.587" y2="372.656"/>
				
					<line fill="none" stroke="#00ABEB" stroke-width="0.2111" stroke-miterlimit="10" x1="-50.372" y1="362.637" x2="751.587" y2="362.637"/>
				
					<line fill="none" stroke="#00ABEB" stroke-width="0.2111" stroke-miterlimit="10" x1="-50.372" y1="352.613" x2="751.587" y2="352.613"/>
				
					<line fill="none" stroke="#00ABEB" stroke-width="0.2111" stroke-miterlimit="10" x1="-50.372" y1="342.59" x2="751.587" y2="342.59"/>
				
					<line fill="none" stroke="#00ABEB" stroke-width="0.2111" stroke-miterlimit="10" x1="-50.372" y1="332.571" x2="751.587" y2="332.571"/>
				
					<line fill="none" stroke="#00ABEB" stroke-width="0.2111" stroke-miterlimit="10" x1="-50.372" y1="322.549" x2="751.587" y2="322.549"/>
				
					<line fill="none" stroke="#00ABEB" stroke-width="0.2111" stroke-miterlimit="10" x1="-50.372" y1="312.526" x2="751.587" y2="312.526"/>
				
					<line fill="none" stroke="#00ABEB" stroke-width="0.2111" stroke-miterlimit="10" x1="-50.372" y1="302.507" x2="751.587" y2="302.507"/>
				
					<line fill="none" stroke="#00ABEB" stroke-width="0.2111" stroke-miterlimit="10" x1="-50.372" y1="292.484" x2="751.587" y2="292.484"/>
				
					<line fill="none" stroke="#00ABEB" stroke-width="0.2111" stroke-miterlimit="10" x1="-50.372" y1="282.462" x2="751.587" y2="282.462"/>
				
					<line fill="none" stroke="#00ABEB" stroke-width="0.2111" stroke-miterlimit="10" x1="-50.372" y1="272.443" x2="751.587" y2="272.443"/>
				
					<line fill="none" stroke="#00ABEB" stroke-width="0.2111" stroke-miterlimit="10" x1="-50.372" y1="262.42" x2="751.587" y2="262.42"/>
				
					<line fill="none" stroke="#00ABEB" stroke-width="0.2111" stroke-miterlimit="10" x1="-50.372" y1="252.398" x2="751.587" y2="252.398"/>
				
					<line fill="none" stroke="#00ABEB" stroke-width="0.2111" stroke-miterlimit="10" x1="-50.372" y1="242.379" x2="751.587" y2="242.379"/>
				
					<line fill="none" stroke="#00ABEB" stroke-width="0.2111" stroke-miterlimit="10" x1="-50.372" y1="232.356" x2="751.587" y2="232.356"/>
				
					<line fill="none" stroke="#00ABEB" stroke-width="0.2111" stroke-miterlimit="10" x1="-50.372" y1="222.332" x2="751.587" y2="222.332"/>
				
					<line fill="none" stroke="#00ABEB" stroke-width="0.2111" stroke-miterlimit="10" x1="-50.372" y1="212.313" x2="751.587" y2="212.313"/>
				
					<line fill="none" stroke="#00ABEB" stroke-width="0.2111" stroke-miterlimit="10" x1="-50.372" y1="202.29" x2="751.587" y2="202.29"/>
				
					<line fill="none" stroke="#00ABEB" stroke-width="0.2111" stroke-miterlimit="10" x1="-50.372" y1="192.271" x2="751.587" y2="192.271"/>
				
					<line fill="none" stroke="#00ABEB" stroke-width="0.2111" stroke-miterlimit="10" x1="-50.372" y1="182.249" x2="751.587" y2="182.249"/>
				
					<line fill="none" stroke="#00ABEB" stroke-width="0.2111" stroke-miterlimit="10" x1="-50.372" y1="172.226" x2="751.587" y2="172.226"/>
				
					<line fill="none" stroke="#00ABEB" stroke-width="0.2111" stroke-miterlimit="10" x1="-50.372" y1="162.207" x2="751.587" y2="162.207"/>
				
					<line fill="none" stroke="#00ABEB" stroke-width="0.2111" stroke-miterlimit="10" x1="-50.372" y1="152.185" x2="751.587" y2="152.185"/>
				
					<line fill="none" stroke="#00ABEB" stroke-width="0.2111" stroke-miterlimit="10" x1="-50.372" y1="142.162" x2="751.587" y2="142.162"/>
				
					<line fill="none" stroke="#00ABEB" stroke-width="0.2111" stroke-miterlimit="10" x1="-50.372" y1="132.143" x2="751.587" y2="132.143"/>
				
					<line fill="none" stroke="#00ABEB" stroke-width="0.2111" stroke-miterlimit="10" x1="-50.372" y1="122.12" x2="751.587" y2="122.12"/>
				
					<line fill="none" stroke="#00ABEB" stroke-width="0.2111" stroke-miterlimit="10" x1="-50.372" y1="112.098" x2="751.587" y2="112.098"/>
				
					<line fill="none" stroke="#00ABEB" stroke-width="0.2111" stroke-miterlimit="10" x1="-50.372" y1="102.079" x2="751.587" y2="102.079"/>
				
					<line fill="none" stroke="#00ABEB" stroke-width="0.2111" stroke-miterlimit="10" x1="-50.372" y1="92.056" x2="751.587" y2="92.056"/>
				
					<line fill="none" stroke="#00ABEB" stroke-width="0.2111" stroke-miterlimit="10" x1="-50.372" y1="82.034" x2="751.587" y2="82.034"/>
				
					<line fill="none" stroke="#00ABEB" stroke-width="0.2111" stroke-miterlimit="10" x1="-50.372" y1="72.014" x2="751.587" y2="72.014"/>
				
					<line fill="none" stroke="#00ABEB" stroke-width="0.2111" stroke-miterlimit="10" x1="-50.372" y1="61.992" x2="751.587" y2="61.992"/>
				
					<line fill="none" stroke="#00ABEB" stroke-width="0.2111" stroke-miterlimit="10" x1="-50.372" y1="51.969" x2="751.587" y2="51.969"/>
				
					<line fill="none" stroke="#00ABEB" stroke-width="0.2111" stroke-miterlimit="10" x1="-50.372" y1="41.95" x2="751.587" y2="41.95"/>
				
					<line fill="none" stroke="#00ABEB" stroke-width="0.2111" stroke-miterlimit="10" x1="-50.372" y1="31.926" x2="751.587" y2="31.926"/>
				
					<line fill="none" stroke="#00ABEB" stroke-width="0.2111" stroke-miterlimit="10" x1="-50.372" y1="21.907" x2="751.587" y2="21.907"/>
				
					<line fill="none" stroke="#00ABEB" stroke-width="0.2111" stroke-miterlimit="10" x1="-50.372" y1="11.884" x2="751.587" y2="11.884"/>
				
					<line fill="none" stroke="#00ABEB" stroke-width="0.2111" stroke-miterlimit="10" x1="-50.372" y1="1.862" x2="751.587" y2="1.862"/>
				
					<line fill="none" stroke="#00ABEB" stroke-width="0.2111" stroke-miterlimit="10" x1="-50.372" y1="-8.157" x2="751.587" y2="-8.157"/>
				
					<line fill="none" stroke="#00ABEB" stroke-width="0.2111" stroke-miterlimit="10" x1="-50.372" y1="-18.18" x2="751.587" y2="-18.18"/>
				
					<line fill="none" stroke="#00ABEB" stroke-width="0.2111" stroke-miterlimit="10" x1="-50.372" y1="-28.202" x2="751.587" y2="-28.202"/>
				
					<line fill="none" stroke="#00ABEB" stroke-width="0.2111" stroke-miterlimit="10" x1="-50.372" y1="-38.222" x2="751.587" y2="-38.222"/>
				
					<line fill="none" stroke="#00ABEB" stroke-width="0.2111" stroke-miterlimit="10" x1="-50.372" y1="-48.244" x2="751.587" y2="-48.244"/>
				
					<line fill="none" stroke="#00ABEB" stroke-width="0.2111" stroke-miterlimit="10" x1="-50.372" y1="-58.267" x2="751.587" y2="-58.267"/>
				
					<line fill="none" stroke="#00ABEB" stroke-width="0.2111" stroke-miterlimit="10" x1="-50.372" y1="-68.286" x2="751.587" y2="-68.286"/>
				
					<line fill="none" stroke="#00ABEB" stroke-width="0.2111" stroke-miterlimit="10" x1="-50.372" y1="-78.308" x2="751.587" y2="-78.308"/>
				
					<line fill="none" stroke="#00ABEB" stroke-width="0.2111" stroke-miterlimit="10" x1="-50.372" y1="-88.331" x2="751.587" y2="-88.331"/>
				
					<line fill="none" stroke="#00ABEB" stroke-width="0.2111" stroke-miterlimit="10" x1="-50.372" y1="-98.35" x2="751.587" y2="-98.35"/>
				
					<line fill="none" stroke="#00ABEB" stroke-width="0.2111" stroke-miterlimit="10" x1="-50.372" y1="-108.374" x2="751.587" y2="-108.374"/>
				
					<line fill="none" stroke="#00ABEB" stroke-width="0.2111" stroke-miterlimit="10" x1="-50.372" y1="-118.393" x2="751.587" y2="-118.393"/>
				
					<line fill="none" stroke="#00ABEB" stroke-width="0.2111" stroke-miterlimit="10" x1="-50.372" y1="-128.416" x2="751.587" y2="-128.416"/>
				
					<line fill="none" stroke="#00ABEB" stroke-width="0.2111" stroke-miterlimit="10" x1="-50.372" y1="-138.438" x2="751.587" y2="-138.438"/>
				
					<line fill="none" stroke="#00ABEB" stroke-width="0.2111" stroke-miterlimit="10" x1="-50.372" y1="-148.457" x2="751.587" y2="-148.457"/>
			</g>
			<g id="Vertical_1_mm">
				<g>
					
						<line fill="none" stroke="#00ABEB" stroke-width="0.2111" stroke-miterlimit="10" x1="-50.106" y1="432.736" x2="-50.106" y2="-168.768"/>
				</g>
				
					<line fill="none" stroke="#00ABEB" stroke-width="0.2111" stroke-miterlimit="10" x1="-40.087" y1="432.736" x2="-40.087" y2="-168.768"/>
				
					<line fill="none" stroke="#00ABEB" stroke-width="0.2111" stroke-miterlimit="10" x1="-30.064" y1="432.736" x2="-30.064" y2="-168.768"/>
				
					<line fill="none" stroke="#00ABEB" stroke-width="0.2111" stroke-miterlimit="10" x1="-20.042" y1="432.736" x2="-20.042" y2="-168.768"/>
				
					<line fill="none" stroke="#00ABEB" stroke-width="0.2111" stroke-miterlimit="10" x1="-10.023" y1="432.736" x2="-10.023" y2="-168.768"/>
				<line fill="none" stroke="#00ABEB" stroke-width="0.2111" stroke-miterlimit="10" x1="0" y1="432.736" x2="0" y2="-168.768"/>
				
					<line fill="none" stroke="#00ABEB" stroke-width="0.2111" stroke-miterlimit="10" x1="10.023" y1="432.736" x2="10.023" y2="-168.768"/>
				
					<line fill="none" stroke="#00ABEB" stroke-width="0.2111" stroke-miterlimit="10" x1="20.041" y1="432.736" x2="20.041" y2="-168.768"/>
				
					<line fill="none" stroke="#00ABEB" stroke-width="0.2111" stroke-miterlimit="10" x1="30.066" y1="432.736" x2="30.066" y2="-168.768"/>
				
					<line fill="none" stroke="#00ABEB" stroke-width="0.2111" stroke-miterlimit="10" x1="40.085" y1="432.736" x2="40.085" y2="-168.768"/>
				
					<line fill="none" stroke="#00ABEB" stroke-width="0.2111" stroke-miterlimit="10" x1="50.107" y1="432.736" x2="50.107" y2="-168.768"/>
				
					<line fill="none" stroke="#00ABEB" stroke-width="0.2111" stroke-miterlimit="10" x1="60.13" y1="432.736" x2="60.13" y2="-168.768"/>
				
					<line fill="none" stroke="#00ABEB" stroke-width="0.2111" stroke-miterlimit="10" x1="70.149" y1="432.736" x2="70.149" y2="-168.768"/>
				
					<line fill="none" stroke="#00ABEB" stroke-width="0.2111" stroke-miterlimit="10" x1="80.172" y1="432.736" x2="80.172" y2="-168.768"/>
				
					<line fill="none" stroke="#00ABEB" stroke-width="0.2111" stroke-miterlimit="10" x1="90.194" y1="432.736" x2="90.194" y2="-168.768"/>
				
					<line fill="none" stroke="#00ABEB" stroke-width="0.2111" stroke-miterlimit="10" x1="100.213" y1="432.736" x2="100.213" y2="-168.768"/>
				
					<line fill="none" stroke="#00ABEB" stroke-width="0.2111" stroke-miterlimit="10" x1="110.236" y1="432.736" x2="110.236" y2="-168.768"/>
				
					<line fill="none" stroke="#00ABEB" stroke-width="0.2111" stroke-miterlimit="10" x1="120.258" y1="432.736" x2="120.258" y2="-168.768"/>
				
					<line fill="none" stroke="#00ABEB" stroke-width="0.2111" stroke-miterlimit="10" x1="130.278" y1="432.736" x2="130.278" y2="-168.768"/>
				
					<line fill="none" stroke="#00ABEB" stroke-width="0.2111" stroke-miterlimit="10" x1="140.3" y1="432.736" x2="140.3" y2="-168.768"/>
				
					<line fill="none" stroke="#00ABEB" stroke-width="0.2111" stroke-miterlimit="10" x1="150.323" y1="432.736" x2="150.323" y2="-168.768"/>
				
					<line fill="none" stroke="#00ABEB" stroke-width="0.2111" stroke-miterlimit="10" x1="160.342" y1="432.736" x2="160.342" y2="-168.768"/>
				
					<line fill="none" stroke="#00ABEB" stroke-width="0.2111" stroke-miterlimit="10" x1="170.364" y1="432.736" x2="170.364" y2="-168.768"/>
				
					<line fill="none" stroke="#00ABEB" stroke-width="0.2111" stroke-miterlimit="10" x1="180.387" y1="432.736" x2="180.387" y2="-168.768"/>
				
					<line fill="none" stroke="#00ABEB" stroke-width="0.2111" stroke-miterlimit="10" x1="190.408" y1="432.736" x2="190.408" y2="-168.768"/>
				
					<line fill="none" stroke="#00ABEB" stroke-width="0.2111" stroke-miterlimit="10" x1="200.43" y1="432.736" x2="200.43" y2="-168.768"/>
				
					<line fill="none" stroke="#00ABEB" stroke-width="0.2111" stroke-miterlimit="10" x1="210.449" y1="432.736" x2="210.449" y2="-168.768"/>
				
					<line fill="none" stroke="#00ABEB" stroke-width="0.2111" stroke-miterlimit="10" x1="220.472" y1="432.736" x2="220.472" y2="-168.768"/>
				
					<line fill="none" stroke="#00ABEB" stroke-width="0.2111" stroke-miterlimit="10" x1="230.494" y1="432.736" x2="230.494" y2="-168.768"/>
				
					<line fill="none" stroke="#00ABEB" stroke-width="0.2111" stroke-miterlimit="10" x1="240.513" y1="432.736" x2="240.513" y2="-168.768"/>
				
					<line fill="none" stroke="#00ABEB" stroke-width="0.2111" stroke-miterlimit="10" x1="250.536" y1="432.736" x2="250.536" y2="-168.768"/>
				
					<line fill="none" stroke="#00ABEB" stroke-width="0.2111" stroke-miterlimit="10" x1="260.559" y1="432.736" x2="260.559" y2="-168.768"/>
				
					<line fill="none" stroke="#00ABEB" stroke-width="0.2111" stroke-miterlimit="10" x1="270.578" y1="432.736" x2="270.578" y2="-168.768"/>
				
					<line fill="none" stroke="#00ABEB" stroke-width="0.2111" stroke-miterlimit="10" x1="280.6" y1="432.736" x2="280.6" y2="-168.768"/>
				
					<line fill="none" stroke="#00ABEB" stroke-width="0.2111" stroke-miterlimit="10" x1="290.623" y1="432.736" x2="290.623" y2="-168.768"/>
				
					<line fill="none" stroke="#00ABEB" stroke-width="0.2111" stroke-miterlimit="10" x1="300.642" y1="432.736" x2="300.642" y2="-168.768"/>
				
					<line fill="none" stroke="#00ABEB" stroke-width="0.2111" stroke-miterlimit="10" x1="310.664" y1="432.736" x2="310.664" y2="-168.768"/>
				
					<line fill="none" stroke="#00ABEB" stroke-width="0.2111" stroke-miterlimit="10" x1="320.687" y1="432.736" x2="320.687" y2="-168.768"/>
				
					<line fill="none" stroke="#00ABEB" stroke-width="0.2111" stroke-miterlimit="10" x1="330.706" y1="432.736" x2="330.706" y2="-168.768"/>
				
					<line fill="none" stroke="#00ABEB" stroke-width="0.2111" stroke-miterlimit="10" x1="340.728" y1="432.736" x2="340.728" y2="-168.768"/>
				
					<line fill="none" stroke="#00ABEB" stroke-width="0.2111" stroke-miterlimit="10" x1="350.747" y1="432.736" x2="350.747" y2="-168.768"/>
				
					<line fill="none" stroke="#00ABEB" stroke-width="0.2111" stroke-miterlimit="10" x1="360.772" y1="432.736" x2="360.772" y2="-168.768"/>
				
					<line fill="none" stroke="#00ABEB" stroke-width="0.2111" stroke-miterlimit="10" x1="370.794" y1="432.736" x2="370.794" y2="-168.768"/>
				
					<line fill="none" stroke="#00ABEB" stroke-width="0.2111" stroke-miterlimit="10" x1="380.813" y1="432.736" x2="380.813" y2="-168.768"/>
				
					<line fill="none" stroke="#00ABEB" stroke-width="0.2111" stroke-miterlimit="10" x1="390.836" y1="432.736" x2="390.836" y2="-168.768"/>
				
					<line fill="none" stroke="#00ABEB" stroke-width="0.2111" stroke-miterlimit="10" x1="400.858" y1="432.736" x2="400.858" y2="-168.768"/>
				
					<line fill="none" stroke="#00ABEB" stroke-width="0.2111" stroke-miterlimit="10" x1="410.878" y1="432.736" x2="410.878" y2="-168.768"/>
				
					<line fill="none" stroke="#00ABEB" stroke-width="0.2111" stroke-miterlimit="10" x1="420.9" y1="432.736" x2="420.9" y2="-168.768"/>
				
					<line fill="none" stroke="#00ABEB" stroke-width="0.2111" stroke-miterlimit="10" x1="430.923" y1="432.736" x2="430.923" y2="-168.768"/>
				
					<line fill="none" stroke="#00ABEB" stroke-width="0.2111" stroke-miterlimit="10" x1="440.942" y1="432.736" x2="440.942" y2="-168.768"/>
				
					<line fill="none" stroke="#00ABEB" stroke-width="0.2111" stroke-miterlimit="10" x1="450.964" y1="432.736" x2="450.964" y2="-168.768"/>
				
					<line fill="none" stroke="#00ABEB" stroke-width="0.2111" stroke-miterlimit="10" x1="460.987" y1="432.736" x2="460.987" y2="-168.768"/>
				
					<line fill="none" stroke="#00ABEB" stroke-width="0.2111" stroke-miterlimit="10" x1="471.006" y1="432.736" x2="471.006" y2="-168.768"/>
				
					<line fill="none" stroke="#00ABEB" stroke-width="0.2111" stroke-miterlimit="10" x1="481.029" y1="432.736" x2="481.029" y2="-168.768"/>
				
					<line fill="none" stroke="#00ABEB" stroke-width="0.2111" stroke-miterlimit="10" x1="491.051" y1="432.736" x2="491.051" y2="-168.768"/>
				
					<line fill="none" stroke="#00ABEB" stroke-width="0.2111" stroke-miterlimit="10" x1="501.07" y1="432.736" x2="501.07" y2="-168.768"/>
				
					<line fill="none" stroke="#00ABEB" stroke-width="0.2111" stroke-miterlimit="10" x1="511.094" y1="432.736" x2="511.094" y2="-168.768"/>
				
					<line fill="none" stroke="#00ABEB" stroke-width="0.2111" stroke-miterlimit="10" x1="521.114" y1="432.736" x2="521.114" y2="-168.768"/>
				
					<line fill="none" stroke="#00ABEB" stroke-width="0.2111" stroke-miterlimit="10" x1="531.136" y1="432.736" x2="531.136" y2="-168.768"/>
				
					<line fill="none" stroke="#00ABEB" stroke-width="0.2111" stroke-miterlimit="10" x1="541.159" y1="432.736" x2="541.159" y2="-168.768"/>
				
					<line fill="none" stroke="#00ABEB" stroke-width="0.2111" stroke-miterlimit="10" x1="551.178" y1="432.736" x2="551.178" y2="-168.768"/>
				
					<line fill="none" stroke="#00ABEB" stroke-width="0.2111" stroke-miterlimit="10" x1="561.2" y1="432.736" x2="561.2" y2="-168.768"/>
				
					<line fill="none" stroke="#00ABEB" stroke-width="0.2111" stroke-miterlimit="10" x1="571.223" y1="432.736" x2="571.223" y2="-168.768"/>
				
					<line fill="none" stroke="#00ABEB" stroke-width="0.2111" stroke-miterlimit="10" x1="581.242" y1="432.736" x2="581.242" y2="-168.768"/>
				
					<line fill="none" stroke="#00ABEB" stroke-width="0.2111" stroke-miterlimit="10" x1="591.264" y1="432.736" x2="591.264" y2="-168.768"/>
				
					<line fill="none" stroke="#00ABEB" stroke-width="0.2111" stroke-miterlimit="10" x1="601.287" y1="432.736" x2="601.287" y2="-168.768"/>
				
					<line fill="none" stroke="#00ABEB" stroke-width="0.2111" stroke-miterlimit="10" x1="611.306" y1="432.736" x2="611.306" y2="-168.768"/>
				
					<line fill="none" stroke="#00ABEB" stroke-width="0.2111" stroke-miterlimit="10" x1="621.328" y1="432.736" x2="621.328" y2="-168.768"/>
				
					<line fill="none" stroke="#00ABEB" stroke-width="0.2111" stroke-miterlimit="10" x1="631.351" y1="432.736" x2="631.351" y2="-168.768"/>
				
					<line fill="none" stroke="#00ABEB" stroke-width="0.2111" stroke-miterlimit="10" x1="641.37" y1="432.736" x2="641.37" y2="-168.768"/>
				
					<line fill="none" stroke="#00ABEB" stroke-width="0.2111" stroke-miterlimit="10" x1="651.393" y1="432.736" x2="651.393" y2="-168.768"/>
				
					<line fill="none" stroke="#00ABEB" stroke-width="0.2111" stroke-miterlimit="10" x1="661.415" y1="432.736" x2="661.415" y2="-168.768"/>
				
					<line fill="none" stroke="#00ABEB" stroke-width="0.2111" stroke-miterlimit="10" x1="671.436" y1="432.736" x2="671.436" y2="-168.768"/>
				
					<line fill="none" stroke="#00ABEB" stroke-width="0.2111" stroke-miterlimit="10" x1="681.458" y1="432.736" x2="681.458" y2="-168.768"/>
				
					<line fill="none" stroke="#00ABEB" stroke-width="0.2111" stroke-miterlimit="10" x1="691.478" y1="432.736" x2="691.478" y2="-168.768"/>
				
					<line fill="none" stroke="#00ABEB" stroke-width="0.2111" stroke-miterlimit="10" x1="701.5" y1="432.736" x2="701.5" y2="-168.768"/>
				
					<line fill="none" stroke="#00ABEB" stroke-width="0.2111" stroke-miterlimit="10" x1="711.523" y1="432.736" x2="711.523" y2="-168.768"/>
				
					<line fill="none" stroke="#00ABEB" stroke-width="0.2111" stroke-miterlimit="10" x1="721.542" y1="432.736" x2="721.542" y2="-168.768"/>
				
					<line fill="none" stroke="#00ABEB" stroke-width="0.2111" stroke-miterlimit="10" x1="731.564" y1="432.736" x2="731.564" y2="-168.768"/>
				
					<line fill="none" stroke="#00ABEB" stroke-width="0.2111" stroke-miterlimit="10" x1="741.587" y1="432.736" x2="741.587" y2="-168.768"/>
				
					<line fill="none" stroke="#00ABEB" stroke-width="0.2111" stroke-miterlimit="10" x1="751.606" y1="432.736" x2="751.606" y2="-168.768"/>
			</g>
			<g id="Horizontal_5_mm_1_">
				
					<line fill="none" stroke="#00ABEB" stroke-width="0.4221" stroke-miterlimit="10" x1="-51.344" y1="432.785" x2="751.587" y2="432.785"/>
				
					<line fill="none" stroke="#00ABEB" stroke-width="0.4221" stroke-miterlimit="10" x1="-51.344" y1="382.679" x2="751.587" y2="382.679"/>
				
					<line fill="none" stroke="#00ABEB" stroke-width="0.4221" stroke-miterlimit="10" x1="-51.344" y1="332.571" x2="751.587" y2="332.571"/>
				
					<line fill="none" stroke="#00ABEB" stroke-width="0.4221" stroke-miterlimit="10" x1="-51.344" y1="282.462" x2="751.587" y2="282.462"/>
				
					<line fill="none" stroke="#00ABEB" stroke-width="0.4221" stroke-miterlimit="10" x1="-51.344" y1="232.356" x2="751.587" y2="232.356"/>
				
					<line fill="none" stroke="#00ABEB" stroke-width="0.4221" stroke-miterlimit="10" x1="-51.344" y1="182.249" x2="751.587" y2="182.249"/>
				
					<line fill="none" stroke="#00ABEB" stroke-width="0.4221" stroke-miterlimit="10" x1="-51.344" y1="132.143" x2="751.587" y2="132.143"/>
				
					<line fill="none" stroke="#00ABEB" stroke-width="0.4221" stroke-miterlimit="10" x1="-51.344" y1="82.034" x2="751.587" y2="82.034"/>
				
					<line fill="none" stroke="#00ABEB" stroke-width="0.4221" stroke-miterlimit="10" x1="-51.344" y1="31.926" x2="751.587" y2="31.926"/>
				
					<line fill="none" stroke="#00ABEB" stroke-width="0.4221" stroke-miterlimit="10" x1="-51.344" y1="-18.18" x2="751.587" y2="-18.18"/>
				
					<line fill="none" stroke="#00ABEB" stroke-width="0.4221" stroke-miterlimit="10" x1="-51.344" y1="-68.286" x2="751.587" y2="-68.286"/>
			</g>
			<g id="Vertical_5_mm">
				
					<line fill="none" stroke="#00ABEB" stroke-width="0.4221" stroke-miterlimit="10" x1="-50.106" y1="432.736" x2="-50.106" y2="-169.74"/>
				<line fill="none" stroke="#00ABEB" stroke-width="0.4221" stroke-miterlimit="10" x1="0" y1="432.736" x2="0" y2="-169.74"/>
				
					<line fill="none" stroke="#00ABEB" stroke-width="0.4221" stroke-miterlimit="10" x1="50.107" y1="432.736" x2="50.107" y2="-169.74"/>
				
					<line fill="none" stroke="#00ABEB" stroke-width="0.4221" stroke-miterlimit="10" x1="100.213" y1="432.736" x2="100.213" y2="-169.74"/>
				
					<line fill="none" stroke="#00ABEB" stroke-width="0.4221" stroke-miterlimit="10" x1="150.323" y1="432.736" x2="150.323" y2="-169.74"/>
				
					<line fill="none" stroke="#00ABEB" stroke-width="0.4221" stroke-miterlimit="10" x1="200.43" y1="432.736" x2="200.43" y2="-169.74"/>
				
					<line fill="none" stroke="#00ABEB" stroke-width="0.4221" stroke-miterlimit="10" x1="250.536" y1="432.736" x2="250.536" y2="-169.74"/>
				
					<line fill="none" stroke="#00ABEB" stroke-width="0.4221" stroke-miterlimit="10" x1="300.642" y1="432.736" x2="300.642" y2="-169.74"/>
				
					<line fill="none" stroke="#00ABEB" stroke-width="0.4221" stroke-miterlimit="10" x1="350.747" y1="432.736" x2="350.747" y2="-169.74"/>
				
					<line fill="none" stroke="#00ABEB" stroke-width="0.4221" stroke-miterlimit="10" x1="400.858" y1="432.736" x2="400.858" y2="-169.74"/>
				
					<line fill="none" stroke="#00ABEB" stroke-width="0.4221" stroke-miterlimit="10" x1="450.964" y1="432.736" x2="450.964" y2="-169.74"/>
				
					<line fill="none" stroke="#00ABEB" stroke-width="0.4221" stroke-miterlimit="10" x1="501.07" y1="432.736" x2="501.07" y2="-169.74"/>
				
					<line fill="none" stroke="#00ABEB" stroke-width="0.4221" stroke-miterlimit="10" x1="551.178" y1="432.736" x2="551.178" y2="-169.74"/>
				
					<line fill="none" stroke="#00ABEB" stroke-width="0.4221" stroke-miterlimit="10" x1="601.287" y1="432.736" x2="601.287" y2="-169.74"/>
				
					<line fill="none" stroke="#00ABEB" stroke-width="0.4221" stroke-miterlimit="10" x1="651.393" y1="432.736" x2="651.393" y2="-169.74"/>
				
					<line fill="none" stroke="#00ABEB" stroke-width="0.4221" stroke-miterlimit="10" x1="701.5" y1="432.736" x2="701.5" y2="-169.74"/>
				
					<line fill="none" stroke="#00ABEB" stroke-width="0.4221" stroke-miterlimit="10" x1="751.606" y1="432.736" x2="751.606" y2="-169.74"/>
			</g>
			<g id="Horizontal_10_mm">
				
					<line id="_x31_9_1_" fill="none" stroke="#00ABEB" stroke-width="0.9849" stroke-miterlimit="10" x1="-51.344" y1="432.785" x2="751.587" y2="432.785"/>
				
					<line id="_x32_0" fill="none" stroke="#00ABEB" stroke-width="0.9849" stroke-miterlimit="10" x1="-51.344" y1="332.571" x2="751.587" y2="332.571"/>
				
					<line id="_x32_1" fill="none" stroke="#00ABEB" stroke-width="0.9849" stroke-miterlimit="10" x1="-51.344" y1="232.356" x2="751.587" y2="232.356"/>
				
					<line id="_x32_2" fill="none" stroke="#00ABEB" stroke-width="0.9849" stroke-miterlimit="10" x1="-51.344" y1="132.143" x2="751.587" y2="132.143"/>
				
					<line id="_x32_3" fill="none" stroke="#00ABEB" stroke-width="0.9849" stroke-miterlimit="10" x1="-51.344" y1="31.926" x2="751.587" y2="31.926"/>
				
					<line id="_x32_4" fill="none" stroke="#00ABEB" stroke-width="0.9849" stroke-miterlimit="10" x1="-51.344" y1="-68.286" x2="751.587" y2="-68.286"/>
				
					<line id="_x32_5" fill="none" stroke="#00ABEB" stroke-width="0.9849" stroke-miterlimit="10" x1="-51.344" y1="-168.502" x2="751.587" y2="-168.502"/>
			</g>
			<g id="Vertical_10_mm">
				
					<line id="_x30_" fill="none" stroke="#00ABEB" stroke-width="0.9849" stroke-miterlimit="10" x1="-50.106" y1="432.736" x2="-50.106" y2="-169.74"/>
				
					<line id="_x31_" fill="none" stroke="#00ABEB" stroke-width="0.9849" stroke-miterlimit="10" x1="50.107" y1="432.736" x2="50.107" y2="-169.74"/>
				
					<line id="_x32_" fill="none" stroke="#00ABEB" stroke-width="0.9849" stroke-miterlimit="10" x1="150.323" y1="432.736" x2="150.323" y2="-169.74"/>
				
					<line id="_x33_" fill="none" stroke="#00ABEB" stroke-width="0.9849" stroke-miterlimit="10" x1="250.536" y1="432.736" x2="250.536" y2="-169.74"/>
				
					<line id="_x34_" fill="none" stroke="#00ABEB" stroke-width="0.9849" stroke-miterlimit="10" x1="350.747" y1="432.736" x2="350.747" y2="-169.74"/>
				
					<line id="_x35_" fill="none" stroke="#00ABEB" stroke-width="0.9849" stroke-miterlimit="10" x1="450.964" y1="432.736" x2="450.964" y2="-169.74"/>
				
					<line id="_x36_" fill="none" stroke="#00ABEB" stroke-width="0.9849" stroke-miterlimit="10" x1="551.178" y1="432.736" x2="551.178" y2="-169.74"/>
				
					<line id="_x37_" fill="none" stroke="#00ABEB" stroke-width="0.9849" stroke-miterlimit="10" x1="651.393" y1="432.736" x2="651.393" y2="-169.74"/>
				
					<line id="_x38_" fill="none" stroke="#00ABEB" stroke-width="0.9849" stroke-miterlimit="10" x1="751.606" y1="432.736" x2="751.606" y2="-169.74"/>
			</g>
		</g>
	</g>
</g>
<g id="base">
	
		<polyline id="blue_00000060001370098905574610000010199169916912830626_" display="none" fill="none" stroke="#0000FF" stroke-width="1.5" stroke-linejoin="round" points="
		127.692,161.273 130.881,151.67 134.07,141.876 137.26,131.989 140.449,122.107 143.638,112.33 146.827,102.755 150.017,93.478 
		153.206,84.59 156.395,76.182 159.585,68.337 162.774,61.134 165.962,54.644 169.153,48.932 172.341,44.056 175.53,40.064 
		178.72,36.996 181.909,34.883 185.098,33.746 188.287,33.595 191.477,34.434 194.666,36.252 197.855,39.033 201.045,42.748 
		204.234,47.36 207.422,52.824 210.613,59.084 213.801,66.077 216.99,73.736 220.18,81.981 223.369,90.732 226.558,99.901 
		229.748,109.395 232.937,119.122 236.126,128.981 239.316,138.878 242.505,148.71 245.693,158.381 248.884,167.794 
		252.072,176.854 255.261,185.472 258.45,193.561 261.64,201.041 264.829,207.835 268.018,213.878 271.208,219.108 274.397,223.473 
		277.586,226.93 280.776,229.443 283.965,230.989 287.153,231.55 290.344,231.122 293.532,229.71 296.721,227.327 299.911,223.996 
		303.1,219.752 306.289,214.637 309.479,208.701 312.668,202.004 315.857,194.613 319.047,186.602 322.236,178.051 325.424,169.046 
		328.615,159.675 331.803,150.034 334.992,140.217 338.181,130.324 341.371,120.454 344.56,110.704 347.749,101.172 350.939,91.953 
		354.128,83.141 357.317,74.822 360.507,67.079 363.696,59.991 366.884,53.628 370.075,48.053 373.263,43.322 376.452,39.483 
		379.642,36.574 382.831,34.623 386.02,33.651 389.21,33.667 392.399,34.671 395.588,36.653 398.778,39.593 401.967,43.462 
		405.156,48.221 408.346,53.822 411.535,60.21 414.723,67.321 417.912,75.083 421.102,83.42 424.291,92.247 427.48,101.477 
		430.67,111.017 433.859,120.773 437.048,130.646 440.238,140.538 443.427,150.35 446.615,159.984 449.806,169.344 452.994,178.336 
		456.183,186.872 459.373,194.864 462.562,202.232 465.751,208.906 468.941,214.816 	"/>
	<g>
		<g>
			<line fill="none" stroke="#000000" x1="-5.979" y1="132.143" x2="445.891" y2="132.143"/>
			<g>
				<polygon points="443.083,135.846 444.656,132.143 443.083,128.44 451.861,132.143 				"/>
			</g>
		</g>
	</g>
	<g>
		<g>
			<line fill="none" stroke="#000000" x1="50.352" y1="234.203" x2="50.352" y2="21.157"/>
			<g>
				<polygon points="54.056,23.966 50.352,22.392 46.649,23.966 50.352,15.187 				"/>
			</g>
		</g>
	</g>
	<g>
		<path d="M447.041,113.03h-2.016l-2.088,7.873c-0.024,0.096-0.048,0.264-0.048,0.336c0,0.312,0.144,0.384,0.36,0.384
			c0.384,0,0.768-0.384,1.944-1.896l0.312,0.168c-1.44,2.208-2.184,2.904-3.432,2.904c-0.648,0-1.104-0.288-1.104-0.888
			c0-0.264,0.192-1.008,0.384-1.776l1.873-7.104h-1.8c-0.024-0.072-0.024-0.144-0.024-0.144c0-0.264,0.216-0.48,0.792-0.6
			c0.768-0.168,2.328-1.344,3.192-2.64c0.096-0.144,0.24-0.216,0.336-0.216c0.144,0,0.216,0.072,0.216,0.192c0,0,0,0.12-0.024,0.168
			l-0.672,2.472h1.92L447.041,113.03z"/>
	</g>
	<path id="g0-69_00000183218417300358836050000000709561863163729834_" fill="#00A300" d="M163.994,57.351
		c-4.995,2.697-5.27,5.919-5.27,6.519c0,1.898,1.848,3.097,4.221,3.097c4.171,0,7.518-3.946,7.518-4.471
		c0-0.15-0.125-0.175-0.25-0.175c-0.3,0-1.249,0.325-1.823,1.099c-0.524,0.724-1.573,2.173-3.796,2.173
		c-1.773,0-3.746-0.924-3.746-2.797c0-1.224,1.399-4.92,5.345-5.07c1.174-0.05,2.048-0.924,2.048-1.199
		c0-0.15-0.125-0.175-0.25-0.175c-3.522-0.15-4.221-1.873-4.221-2.872c0-0.574,0.375-3.297,3.871-3.297
		c0.475,0,2.373,0.075,2.373,1.374c0,0.4-0.2,0.749-0.3,0.899c-0.05,0.075-0.125,0.2-0.125,0.275c0,0.175,0.175,0.175,0.25,0.175
		c0.749,0,2.298-0.974,2.298-2.398c0-1.474-1.723-1.698-2.847-1.698c-3.397,0-7.643,2.697-7.643,5.744
		C161.646,56.027,162.77,56.926,163.994,57.351z"/>
	<g id="GREEN">
		
			<polyline id="red_00000129895420193230694890000003193419256353121465_" fill="none" stroke="#00A300" stroke-width="1.1573" stroke-linecap="round" stroke-linejoin="round" points="
			121.247,132.552 124.437,126.669 127.626,120.844 130.815,115.136 134.004,109.603 137.193,104.298 140.383,99.276 
			143.572,94.586 146.761,90.276 149.95,86.388 153.14,82.962 156.329,80.031 159.518,77.624 162.707,75.767 165.897,74.477 
			169.086,73.767 172.275,73.644 175.464,74.11 178.654,75.16 181.843,76.784 185.032,78.964 188.221,81.681 191.411,84.905 
			194.6,88.605 197.789,92.745 200.979,97.282 204.168,102.172 207.356,107.365 210.547,112.81 213.735,118.453 216.924,124.235 
			220.114,130.102 223.303,135.993 226.492,141.849 229.682,147.612 232.871,153.225 236.06,158.632 239.249,163.777 
			242.439,168.611 245.628,173.084 248.816,177.153 252.007,180.776 255.195,183.917 258.384,186.545 261.574,188.633 
			264.763,190.162 267.952,191.114 271.142,191.481 274.331,191.26 277.52,190.451 280.71,189.065 283.899,187.113 287.087,184.617 
			290.278,181.6 293.466,178.094 296.655,174.132 299.845,169.755 303.034,165.006 306.223,159.933 309.412,154.586 
			312.602,149.019 315.791,143.288 318.98,137.449 322.17,131.562 325.359,125.683 328.547,119.875 331.738,114.192 
			334.926,108.693 338.115,103.433 341.305,98.463 344.494,93.834 347.683,89.592 350.873,85.779 354.062,82.433 357.251,79.588 
			360.441,77.273 363.63,75.51 366.819,74.316 370.009,73.705 373.198,73.681 376.386,74.246 379.577,75.393 382.765,77.112 
			385.954,79.384 389.143,82.188 392.333,85.495 395.522,89.272 398.711,93.481 401.901,98.081 405.09,103.025 408.278,108.265 
			411.469,113.747 414.657,119.417 417.846,125.218 421.036,131.092 424.225,136.981 427.414,142.826 430.604,148.568 
			433.793,154.15 436.982,159.516 440.172,164.613 443.361,169.39 446.55,173.798 449.74,177.794 452.929,181.339 456.117,184.395 
			459.308,186.934 462.496,188.93 465.685,190.362 468.874,191.217 472.064,191.485 475.253,191.165 478.442,190.258 
			481.632,188.776 484.821,186.732 488.01,184.146 491.2,181.044 494.389,177.459 497.577,173.424 500.768,168.981 503.956,164.174 
			507.145,159.051 510.335,153.664 513.524,148.065 516.713,142.312 519.903,136.461 		"/>
		
			<polyline id="red_00000150795640462152472700000003853664664956032692_" fill="none" stroke="#00A300" stroke-width="1.1573" stroke-linecap="round" stroke-linejoin="round" points="
			-79.145,132.552 -75.956,126.669 -72.767,120.844 -69.578,115.136 -66.389,109.603 -63.199,104.298 -60.01,99.276 -56.821,94.586 
			-53.632,90.276 -50.442,86.388 -47.253,82.962 -44.064,80.031 -40.875,77.624 -37.685,75.767 -34.496,74.477 -31.307,73.767 
			-28.118,73.644 -24.928,74.11 -21.739,75.16 -18.55,76.784 -15.361,78.964 -12.171,81.681 -8.982,84.905 -5.793,88.605 
			-2.604,92.745 0.586,97.282 3.775,102.172 6.964,107.365 10.154,112.81 13.343,118.453 16.531,124.235 19.722,130.102 
			22.91,135.993 26.099,141.849 29.289,147.612 32.478,153.225 35.667,158.632 38.856,163.777 42.046,168.611 45.235,173.084 
			48.424,177.153 51.614,180.776 54.803,183.917 57.991,186.545 61.182,188.633 64.37,190.162 67.559,191.114 70.749,191.481 
			73.938,191.26 77.127,190.451 80.317,189.065 83.506,187.113 86.695,184.617 89.885,181.6 93.074,178.094 96.262,174.132 
			99.453,169.755 102.642,165.006 105.83,159.933 109.019,154.586 112.209,149.019 115.398,143.288 118.587,137.449 
			121.777,131.562 124.966,125.683 128.155,119.875 131.345,114.192 134.534,108.693 137.722,103.433 140.913,98.463 
			144.101,93.834 147.29,89.592 150.48,85.779 153.669,82.433 156.858,79.588 160.048,77.273 163.237,75.51 166.426,74.316 
			169.616,73.705 172.805,73.681 175.994,74.246 179.184,75.393 182.373,77.112 185.561,79.384 188.75,82.188 191.94,85.495 
			195.129,89.272 198.318,93.481 201.508,98.081 204.697,103.025 207.886,108.265 211.076,113.747 214.265,119.417 217.453,125.218 
			220.644,131.092 223.832,136.981 227.021,142.826 230.211,148.568 233.4,154.15 236.589,159.516 239.779,164.613 242.968,169.39 
			246.157,173.798 249.347,177.794 252.536,181.339 255.725,184.395 258.915,186.934 262.104,188.93 265.292,190.362 
			268.481,191.217 271.671,191.485 274.86,191.165 278.049,190.258 281.239,188.776 284.428,186.732 287.617,184.146 
			290.807,181.044 293.996,177.459 297.185,173.424 300.375,168.981 303.564,164.174 306.752,159.051 309.943,153.664 
			313.131,148.065 316.32,142.312 319.51,136.461 		"/>
	</g>
	<g id="RED">
		<polyline id="red" fill="none" stroke="#FF0000" stroke-width="1.5" stroke-linecap="round" stroke-linejoin="round" points="
			70.286,132.544 73.475,122.66 76.664,112.874 79.853,103.285 83.042,93.988 86.232,85.077 89.421,76.639 92.61,68.761 
			95.799,61.519 98.989,54.988 102.178,49.231 105.367,44.307 108.556,40.264 111.746,37.143 114.935,34.976 118.124,33.783 
			121.313,33.578 124.503,34.361 127.692,36.125 130.881,38.852 134.07,42.516 137.26,47.079 140.449,52.496 143.638,58.713 
			146.827,65.667 150.017,73.29 153.206,81.505 156.395,90.23 159.585,99.377 162.774,108.856 165.962,118.571 169.153,128.427 
			172.341,138.324 175.53,148.162 178.72,157.845 181.909,167.274 185.098,176.358 188.287,185.002 191.477,193.123 
			194.666,200.638 197.855,207.473 201.045,213.56 204.234,218.837 207.422,223.252 210.613,226.761 213.801,229.328 
			216.99,230.928 220.18,231.545 223.369,231.173 226.558,229.815 229.748,227.485 232.937,224.207 236.126,220.014 
			239.316,214.945 242.505,209.055 245.693,202.399 248.884,195.045 252.072,187.067 255.261,178.544 258.45,169.561 
			261.64,160.208 264.829,150.579 268.018,140.77 271.208,130.88 274.397,121.004 277.586,111.245 280.776,101.699 283.965,92.46 
			287.153,83.622 290.344,75.273 293.532,67.497 296.721,60.37 299.911,53.964 303.1,48.343 306.289,43.564 309.479,39.674 
			312.668,36.712 315.857,34.707 319.047,33.68 322.236,33.64 325.424,34.589 328.615,36.516 331.803,39.403 334.992,43.221 
			338.181,47.931 341.371,53.487 344.56,59.832 347.749,66.904 350.939,74.632 354.128,82.939 357.317,91.741 360.507,100.95 
			363.696,110.476 366.884,120.222 370.075,130.091 373.263,139.985 376.452,149.804 379.642,159.451 382.831,168.829 
			386.02,177.844 389.21,186.407 392.399,194.432 395.588,201.838 398.778,208.551 401.967,214.506 405.156,219.641 
			408.346,223.907 411.535,227.259 414.723,229.665 417.912,231.101 421.102,231.552 424.291,231.013 427.48,229.491 430.67,227 
			433.859,223.566 437.048,219.222 440.238,214.011 443.427,207.987 446.615,201.209 449.806,193.745 452.994,185.669 
			456.183,177.063 459.373,168.012 462.562,158.606 465.751,148.941 468.941,139.111 		"/>
		
			<polyline id="red_00000014600444389741685370000017036723954633458340_" fill="none" stroke="#FF0000" stroke-width="1.5" stroke-linecap="round" stroke-linejoin="round" points="
			-130.125,132.544 -126.936,122.66 -123.747,112.874 -120.558,103.285 -117.368,93.988 -114.179,85.077 -110.99,76.639 
			-107.801,68.761 -104.611,61.519 -101.422,54.988 -98.233,49.231 -95.044,44.307 -91.854,40.264 -88.665,37.143 -85.476,34.976 
			-82.287,33.783 -79.098,33.578 -75.908,34.361 -72.719,36.125 -69.53,38.852 -66.341,42.516 -63.151,47.079 -59.962,52.496 
			-56.773,58.713 -53.584,65.667 -50.394,73.29 -47.205,81.505 -44.016,90.23 -40.826,99.377 -37.637,108.856 -34.449,118.571 
			-31.258,128.427 -28.07,138.324 -24.881,148.162 -21.691,157.845 -18.502,167.274 -15.313,176.358 -12.124,185.002 
			-8.934,193.123 -5.745,200.638 -2.556,207.473 0.634,213.56 3.823,218.837 7.011,223.252 10.202,226.761 13.39,229.328 
			16.579,230.928 19.769,231.545 22.958,231.173 26.147,229.815 29.337,227.485 32.526,224.207 35.715,220.014 38.905,214.945 
			42.094,209.055 45.283,202.399 48.473,195.045 51.662,187.067 54.85,178.544 58.039,169.561 61.229,160.208 64.418,150.579 
			67.607,140.77 70.797,130.88 73.986,121.004 77.175,111.245 80.365,101.699 83.554,92.46 86.742,83.622 89.933,75.273 
			93.121,67.497 96.31,60.37 99.5,53.964 102.689,48.343 105.878,43.564 109.068,39.674 112.257,36.712 115.446,34.707 
			118.636,33.68 121.825,33.64 125.014,34.589 128.204,36.516 131.393,39.403 134.581,43.221 137.77,47.931 140.96,53.487 
			144.149,59.832 147.338,66.904 150.528,74.632 153.717,82.939 156.906,91.741 160.096,100.95 163.285,110.476 166.474,120.222 
			169.664,130.091 172.853,139.985 176.041,149.804 179.232,159.451 182.42,168.829 185.609,177.844 188.799,186.407 
			191.988,194.432 195.177,201.838 198.367,208.551 201.556,214.506 204.745,219.641 207.935,223.907 211.124,227.259 
			214.312,229.665 217.501,231.101 220.691,231.552 223.88,231.013 227.069,229.491 230.259,227 233.448,223.566 236.637,219.222 
			239.827,214.011 243.016,207.987 246.205,201.209 249.395,193.745 252.584,185.669 255.772,177.063 258.963,168.012 
			262.151,158.606 265.34,148.941 268.53,139.111 		"/>
	</g>
	<g>
		<path fill="#FF0000" d="M129.993,24.097c-1.32,2.016-2.088,2.736-3.289,2.736c-0.792,0-1.176-0.432-1.176-1.32
			c0-0.48,0.168-1.32,0.528-2.664l1.152-4.249c0.12-0.432,0.216-0.864,0.216-1.056c0-0.48-0.24-0.552-1.536-0.576v-0.384
			c0.936-0.072,1.416-0.144,3.84-0.6l0.096,0.072l-2.256,8.232c-0.12,0.408-0.24,0.72-0.24,1.056c0,0.24,0.144,0.36,0.336,0.36
			c0.408,0,0.984-0.504,2.016-1.872L129.993,24.097z M129.513,13.416c-0.696,0-1.152-0.504-1.152-1.272
			c0-0.744,0.48-1.272,1.128-1.272c0.648,0,1.2,0.624,1.2,1.32C130.689,12.864,130.137,13.416,129.513,13.416z"/>
		<path fill="#FF0000" d="M136.145,33.204c-0.854,1.078-1.595,1.511-2.645,1.511c-1.301,0-2.057-0.728-2.057-2.155
			c0-1.301,0.728-2.519,1.721-3.316c0.686-0.546,1.483-0.854,2.337-0.854s1.469,0.476,1.469,1.133c0,0.377-0.308,0.671-0.672,0.671
			c-0.392,0-0.545-0.28-0.545-0.56c0-0.252,0.21-0.406,0.21-0.672c0-0.167-0.196-0.28-0.518-0.28c-0.56,0-1.119,0.252-1.525,0.672
			c-0.784,0.826-1.273,2.015-1.273,3.26c0,1.007,0.448,1.595,1.246,1.595c0.741,0,1.273-0.35,2.029-1.147L136.145,33.204z"/>
		<path fill="#FF0000" d="M142.302,33.554c-0.812,0.812-1.708,1.161-2.631,1.161c-1.315,0-2.057-0.728-2.057-1.945
			c0-1.567,1.049-3.176,2.519-3.96c0.545-0.293,1.105-0.419,1.679-0.419c1.133,0,1.973,0.728,1.973,1.958
			C143.785,31.413,143.226,32.645,142.302,33.554z M141.616,28.685c-0.615,0-1.231,0.434-1.791,1.273
			c-0.644,0.979-1.035,2.085-1.035,3.19c0,0.839,0.434,1.273,1.091,1.273c0.616,0,1.147-0.406,1.693-1.161
			c0.644-0.881,1.036-2.197,1.036-3.26C142.61,29.147,142.218,28.685,141.616,28.685z"/>
		<path fill="#FF0000" d="M147.521,33.12c-0.77,1.176-1.217,1.595-1.917,1.595c-0.461,0-0.686-0.252-0.686-0.77
			c0-0.28,0.098-0.77,0.308-1.553l0.671-2.477c0.07-0.252,0.126-0.503,0.126-0.616c0-0.28-0.14-0.322-0.896-0.336v-0.224
			c0.546-0.042,0.826-0.084,2.239-0.35l0.056,0.042l-1.315,4.799c-0.07,0.238-0.14,0.419-0.14,0.616c0,0.14,0.084,0.209,0.196,0.209
			c0.238,0,0.573-0.293,1.175-1.091L147.521,33.12z M147.241,26.894c-0.406,0-0.671-0.293-0.671-0.741
			c0-0.434,0.28-0.742,0.657-0.742c0.378,0,0.7,0.364,0.7,0.77C147.927,26.572,147.605,26.894,147.241,26.894z"/>
		<path fill="#FF0000" d="M149.886,33.26c-0.07,0.252-0.112,0.49-0.112,0.602c0,0.168,0.098,0.252,0.238,0.252
			c0.209,0,0.532-0.224,0.938-0.797l0.35-0.49l0.196,0.14c-0.839,1.33-1.357,1.749-2.113,1.749c-0.448,0-0.686-0.266-0.686-0.784
			c0-0.112,0.014-0.28,0.056-0.419l1.917-7.332c0.042-0.14,0.042-0.224,0.042-0.266c0-0.167-0.238-0.308-0.686-0.308h-0.252v-0.224
			c0.826-0.098,1.343-0.196,2.169-0.377l0.084,0.07L149.886,33.26z"/>
	</g>
	<g>
		<path fill="#00A300" d="M174.738,68.459c-0.77,1.176-1.217,1.595-1.917,1.595c-0.461,0-0.686-0.252-0.686-0.77
			c0-0.28,0.098-0.77,0.308-1.553l0.671-2.477c0.07-0.252,0.126-0.503,0.126-0.616c0-0.28-0.14-0.322-0.896-0.336V64.08
			c0.546-0.042,0.826-0.084,2.239-0.35l0.056,0.042l-1.315,4.799c-0.07,0.238-0.14,0.419-0.14,0.616c0,0.14,0.084,0.209,0.196,0.209
			c0.238,0,0.573-0.293,1.175-1.091L174.738,68.459z M174.458,62.233c-0.406,0-0.671-0.293-0.671-0.741
			c0-0.434,0.28-0.742,0.657-0.742c0.378,0,0.7,0.364,0.7,0.77C175.144,61.911,174.822,62.233,174.458,62.233z"/>
		<path fill="#00A300" d="M181.972,68.446c-0.952,1.301-1.301,1.581-1.959,1.581c-0.35,0-0.658-0.224-0.658-0.756
			c0-0.14,0.028-0.322,0.224-1.049l0.616-2.267c0.112-0.434,0.196-0.938,0.196-1.105c0-0.252-0.126-0.406-0.336-0.406
			c-0.56,0-1.189,0.686-2.071,1.987c-0.629,0.938-0.742,1.259-1.399,3.47h-1.049l1.343-4.897c0.014-0.07,0.028-0.154,0.028-0.238
			c0-0.28-0.196-0.364-0.909-0.378v-0.224c1.133-0.224,1.525-0.28,2.267-0.434l0.056,0.028l-0.938,3.05
			c1.399-2.239,2.336-3.078,3.232-3.078c0.602,0,0.91,0.35,0.91,0.854c0,0.251-0.056,0.545-0.14,0.839l-0.783,2.84
			c-0.14,0.504-0.196,0.742-0.196,0.854c0,0.126,0.056,0.252,0.224,0.252c0.196,0,0.448-0.224,0.854-0.742
			c0.098-0.112,0.196-0.238,0.294-0.364L181.972,68.446z"/>
		<path fill="#00A300" d="M189.71,60.428l-0.546,2.126l-0.839,3.064c-0.434,1.595-0.91,3.218-0.91,3.442
			c0,0.168,0.07,0.28,0.252,0.28c0.238,0,0.392-0.126,1.147-0.994l0.168,0.14c-0.686,1.021-1.357,1.595-2.057,1.595
			c-0.364,0-0.574-0.252-0.574-0.63c0-0.322,0.028-0.546,0.182-1.245c-0.826,1.385-1.539,1.847-2.491,1.847
			c-0.91,0-1.497-0.574-1.497-1.637c0-2.267,2.267-4.687,4.085-4.687c0.588,0,0.826,0.266,0.91,0.812h0.014l0.629-2.281
			c0.21-0.742,0.196-0.798,0.196-0.994c0-0.294-0.125-0.336-0.896-0.364v-0.238c0.896-0.084,1.399-0.168,2.141-0.322L189.71,60.428z
			 M186.66,64.052c-0.392,0-0.882,0.238-1.273,0.644c-0.923,0.979-1.623,2.504-1.623,3.666c0,0.644,0.322,1.021,0.812,1.021
			c1.287,0,2.743-2.407,2.743-4.534C187.317,64.345,186.981,64.052,186.66,64.052z"/>
	</g>
</g>
<g id="two">
	<g>
		<path fill="#0000FF" d="M179.642,20.123c-1.32,2.016-2.088,2.736-3.289,2.736c-0.792,0-1.176-0.432-1.176-1.32
			c0-0.48,0.168-1.32,0.528-2.664l1.152-4.249c0.12-0.432,0.216-0.864,0.216-1.056c0-0.48-0.24-0.552-1.536-0.576v-0.384
			c0.936-0.072,1.416-0.144,3.84-0.6l0.096,0.072l-2.256,8.232c-0.12,0.408-0.24,0.72-0.24,1.056c0,0.24,0.144,0.36,0.336,0.36
			c0.408,0,0.984-0.504,2.016-1.872L179.642,20.123z M179.162,9.442c-0.696,0-1.152-0.504-1.152-1.272
			c0-0.744,0.48-1.272,1.128-1.272c0.648,0,1.2,0.624,1.2,1.32C180.338,8.89,179.786,9.442,179.162,9.442z"/>
		<path fill="#0000FF" d="M183.961,29.146c-0.77,1.176-1.217,1.595-1.917,1.595c-0.461,0-0.686-0.252-0.686-0.77
			c0-0.28,0.098-0.77,0.308-1.553l0.671-2.477c0.07-0.252,0.126-0.503,0.126-0.616c0-0.28-0.14-0.322-0.896-0.336v-0.224
			c0.546-0.042,0.826-0.084,2.239-0.35l0.056,0.042l-1.315,4.799c-0.07,0.238-0.14,0.419-0.14,0.616c0,0.14,0.084,0.209,0.196,0.209
			c0.238,0,0.573-0.293,1.175-1.091L183.961,29.146z M183.682,22.92c-0.406,0-0.671-0.293-0.671-0.741
			c0-0.434,0.28-0.742,0.657-0.742c0.378,0,0.7,0.364,0.7,0.77C184.367,22.598,184.045,22.92,183.682,22.92z"/>
		<path fill="#0000FF" d="M191.196,29.133c-0.952,1.301-1.301,1.581-1.959,1.581c-0.35,0-0.658-0.224-0.658-0.756
			c0-0.14,0.028-0.322,0.224-1.049l0.616-2.267c0.112-0.434,0.196-0.938,0.196-1.105c0-0.252-0.126-0.406-0.336-0.406
			c-0.56,0-1.189,0.686-2.071,1.987c-0.63,0.938-0.742,1.259-1.399,3.47h-1.049l1.343-4.897c0.014-0.07,0.028-0.154,0.028-0.238
			c0-0.28-0.196-0.364-0.91-0.378v-0.224c1.133-0.224,1.525-0.28,2.267-0.434l0.056,0.028l-0.938,3.05
			c1.399-2.239,2.336-3.078,3.232-3.078c0.602,0,0.91,0.35,0.91,0.854c0,0.251-0.056,0.545-0.14,0.839l-0.784,2.84
			c-0.14,0.504-0.196,0.742-0.196,0.854c0,0.126,0.056,0.252,0.224,0.252c0.196,0,0.448-0.224,0.854-0.742
			c0.098-0.112,0.196-0.238,0.294-0.364L191.196,29.133z"/>
		<path fill="#0000FF" d="M198.933,21.115l-0.546,2.126l-0.839,3.064c-0.434,1.595-0.91,3.218-0.91,3.442
			c0,0.168,0.07,0.28,0.252,0.28c0.238,0,0.392-0.126,1.147-0.994l0.168,0.14c-0.686,1.021-1.357,1.595-2.057,1.595
			c-0.364,0-0.574-0.252-0.574-0.63c0-0.322,0.028-0.546,0.182-1.245c-0.826,1.385-1.539,1.847-2.491,1.847
			c-0.91,0-1.497-0.574-1.497-1.637c0-2.267,2.267-4.687,4.085-4.687c0.588,0,0.826,0.266,0.91,0.812h0.014l0.629-2.281
			c0.21-0.742,0.196-0.798,0.196-0.994c0-0.294-0.125-0.336-0.896-0.364v-0.238c0.896-0.084,1.399-0.168,2.141-0.322L198.933,21.115
			z M195.883,24.739c-0.392,0-0.882,0.238-1.273,0.644c-0.923,0.979-1.623,2.504-1.623,3.666c0,0.644,0.322,1.021,0.812,1.021
			c1.287,0,2.743-2.407,2.743-4.534C196.54,25.032,196.205,24.739,195.883,24.739z"/>
	</g>
	<g id="BLUE">
		
			<polyline id="red_00000134932921813929617560000017366898491958358661_" fill="none" stroke="#0000FF" stroke-width="1.5" stroke-linecap="round" stroke-linejoin="round" points="
			121.247,132.544 124.437,122.66 127.626,112.874 130.815,103.285 134.004,93.988 137.193,85.077 140.383,76.639 143.572,68.761 
			146.761,61.519 149.95,54.988 153.14,49.231 156.329,44.307 159.518,40.264 162.707,37.143 165.897,34.976 169.086,33.783 
			172.275,33.578 175.464,34.361 178.654,36.125 181.843,38.852 185.032,42.516 188.221,47.079 191.411,52.496 194.6,58.713 
			197.789,65.667 200.979,73.29 204.168,81.505 207.356,90.23 210.547,99.377 213.735,108.856 216.924,118.571 220.114,128.427 
			223.303,138.324 226.492,148.162 229.682,157.845 232.871,167.274 236.06,176.358 239.249,185.002 242.439,193.123 
			245.628,200.638 248.816,207.473 252.007,213.56 255.195,218.837 258.384,223.252 261.574,226.761 264.763,229.328 
			267.952,230.928 271.142,231.545 274.331,231.173 277.52,229.815 280.71,227.485 283.899,224.207 287.087,220.014 
			290.278,214.945 293.466,209.055 296.655,202.399 299.845,195.045 303.034,187.067 306.223,178.544 309.412,169.561 
			312.602,160.208 315.791,150.579 318.98,140.77 322.17,130.88 325.359,121.004 328.547,111.245 331.738,101.699 334.926,92.46 
			338.115,83.622 341.305,75.273 344.494,67.497 347.683,60.37 350.873,53.964 354.062,48.343 357.251,43.564 360.441,39.674 
			363.63,36.712 366.819,34.707 370.009,33.68 373.198,33.64 376.386,34.589 379.577,36.516 382.765,39.403 385.954,43.221 
			389.143,47.931 392.333,53.487 395.522,59.832 398.711,66.904 401.901,74.632 405.09,82.939 408.278,91.741 411.469,100.95 
			414.657,110.476 417.846,120.222 421.036,130.091 424.225,139.985 427.414,149.804 430.604,159.451 433.793,168.829 
			436.982,177.844 440.172,186.407 443.361,194.432 446.55,201.838 449.74,208.551 452.929,214.506 456.117,219.641 
			459.308,223.907 462.496,227.259 465.685,229.665 468.874,231.101 472.064,231.552 475.253,231.013 478.442,229.491 481.632,227 
			484.821,223.566 488.01,219.222 491.2,214.011 494.389,207.987 497.577,201.209 500.768,193.745 503.956,185.669 507.145,177.063 
			510.335,168.012 513.524,158.606 516.713,148.941 519.903,139.111 		"/>
		
			<polyline id="red_00000000184238094325199240000009174916325179114937_" fill="none" stroke="#0000FF" stroke-width="1.5" stroke-linecap="round" stroke-linejoin="round" points="
			-79.164,132.544 -75.974,122.66 -72.785,112.874 -69.596,103.285 -66.407,93.988 -63.217,85.077 -60.028,76.639 -56.839,68.761 
			-53.65,61.519 -50.46,54.988 -47.271,49.231 -44.082,44.307 -40.893,40.264 -37.703,37.143 -34.514,34.976 -31.325,33.783 
			-28.136,33.578 -24.946,34.361 -21.757,36.125 -18.568,38.852 -15.379,42.516 -12.189,47.079 -9,52.496 -5.811,58.713 
			-2.622,65.667 0.568,73.29 3.757,81.505 6.946,90.23 10.136,99.377 13.325,108.856 16.513,118.571 19.704,128.427 22.892,138.324 
			26.081,148.162 29.271,157.845 32.46,167.274 35.649,176.358 38.838,185.002 42.028,193.123 45.217,200.638 48.405,207.473 
			51.596,213.56 54.784,218.837 57.973,223.252 61.163,226.761 64.352,229.328 67.541,230.928 70.731,231.545 73.92,231.173 
			77.109,229.815 80.299,227.485 83.488,224.207 86.677,220.014 89.867,214.945 93.056,209.055 96.244,202.399 99.435,195.045 
			102.623,187.067 105.812,178.544 109.001,169.561 112.191,160.208 115.38,150.579 118.569,140.77 121.759,130.88 124.948,121.004 
			128.137,111.245 131.327,101.699 134.516,92.46 137.704,83.622 140.895,75.273 144.083,67.497 147.272,60.37 150.462,53.964 
			153.651,48.343 156.84,43.564 160.03,39.674 163.219,36.712 166.408,34.707 169.598,33.68 172.787,33.64 175.975,34.589 
			179.166,36.516 182.354,39.403 185.543,43.221 188.732,47.931 191.922,53.487 195.111,59.832 198.3,66.904 201.49,74.632 
			204.679,82.939 207.868,91.741 211.058,100.95 214.247,110.476 217.435,120.222 220.626,130.091 223.814,139.985 227.003,149.804 
			230.193,159.451 233.382,168.829 236.571,177.844 239.761,186.407 242.95,194.432 246.139,201.838 249.329,208.551 
			252.518,214.506 255.707,219.641 258.897,223.907 262.086,227.259 265.274,229.665 268.463,231.101 271.653,231.552 
			274.842,231.013 278.031,229.491 281.221,227 284.41,223.566 287.599,219.222 290.789,214.011 293.978,207.987 297.166,201.209 
			300.357,193.745 303.545,185.669 306.734,177.063 309.924,168.012 313.113,158.606 316.302,148.941 319.492,139.111 		"/>
	</g>
</g>
<g id="three" display="none">
	<g display="inline">
		<path fill="#0000FF" d="M228.886,20.123c-1.32,2.016-2.088,2.736-3.289,2.736c-0.792,0-1.176-0.432-1.176-1.32
			c0-0.48,0.168-1.32,0.528-2.664l1.152-4.249c0.12-0.432,0.216-0.864,0.216-1.056c0-0.48-0.24-0.552-1.536-0.576v-0.384
			c0.936-0.072,1.416-0.144,3.84-0.6l0.096,0.072l-2.256,8.232c-0.12,0.408-0.24,0.72-0.24,1.056c0,0.24,0.144,0.36,0.336,0.36
			c0.408,0,0.984-0.504,2.016-1.872L228.886,20.123z M228.406,9.442c-0.696,0-1.152-0.504-1.152-1.272
			c0-0.744,0.48-1.272,1.128-1.272c0.648,0,1.2,0.624,1.2,1.32C229.582,8.89,229.03,9.442,228.406,9.442z"/>
		<path fill="#0000FF" d="M233.205,29.146c-0.77,1.176-1.217,1.595-1.917,1.595c-0.461,0-0.686-0.252-0.686-0.77
			c0-0.28,0.098-0.77,0.308-1.553l0.671-2.477c0.07-0.252,0.126-0.503,0.126-0.616c0-0.28-0.14-0.322-0.896-0.336v-0.224
			c0.546-0.042,0.826-0.084,2.239-0.35l0.056,0.042l-1.315,4.799c-0.07,0.238-0.14,0.419-0.14,0.616c0,0.14,0.084,0.209,0.196,0.209
			c0.238,0,0.573-0.293,1.175-1.091L233.205,29.146z M232.925,22.92c-0.406,0-0.671-0.293-0.671-0.741
			c0-0.434,0.28-0.742,0.657-0.742c0.378,0,0.7,0.364,0.7,0.77C233.611,22.598,233.289,22.92,232.925,22.92z"/>
		<path fill="#0000FF" d="M240.439,29.133c-0.952,1.301-1.301,1.581-1.959,1.581c-0.35,0-0.658-0.224-0.658-0.756
			c0-0.14,0.028-0.322,0.224-1.049l0.616-2.267c0.112-0.434,0.196-0.938,0.196-1.105c0-0.252-0.126-0.406-0.336-0.406
			c-0.56,0-1.189,0.686-2.071,1.987c-0.63,0.938-0.742,1.259-1.399,3.47h-1.049l1.343-4.897c0.014-0.07,0.028-0.154,0.028-0.238
			c0-0.28-0.196-0.364-0.91-0.378v-0.224c1.133-0.224,1.525-0.28,2.267-0.434l0.056,0.028l-0.938,3.05
			c1.399-2.239,2.336-3.078,3.232-3.078c0.602,0,0.91,0.35,0.91,0.854c0,0.251-0.056,0.545-0.14,0.839l-0.784,2.84
			c-0.14,0.504-0.196,0.742-0.196,0.854c0,0.126,0.056,0.252,0.224,0.252c0.196,0,0.448-0.224,0.854-0.742
			c0.098-0.112,0.196-0.238,0.294-0.364L240.439,29.133z"/>
		<path fill="#0000FF" d="M248.177,21.115l-0.546,2.126l-0.839,3.064c-0.434,1.595-0.91,3.218-0.91,3.442
			c0,0.168,0.07,0.28,0.252,0.28c0.238,0,0.392-0.126,1.147-0.994l0.168,0.14c-0.686,1.021-1.357,1.595-2.057,1.595
			c-0.364,0-0.574-0.252-0.574-0.63c0-0.322,0.028-0.546,0.182-1.245c-0.826,1.385-1.539,1.847-2.491,1.847
			c-0.91,0-1.497-0.574-1.497-1.637c0-2.267,2.267-4.687,4.085-4.687c0.588,0,0.826,0.266,0.91,0.812h0.014l0.629-2.281
			c0.21-0.742,0.196-0.798,0.196-0.994c0-0.294-0.125-0.336-0.896-0.364v-0.238c0.896-0.084,1.399-0.168,2.141-0.322L248.177,21.115
			z M245.126,24.739c-0.392,0-0.882,0.238-1.273,0.644c-0.923,0.979-1.623,2.504-1.623,3.666c0,0.644,0.322,1.021,0.812,1.021
			c1.287,0,2.743-2.407,2.743-4.534C245.784,25.032,245.448,24.739,245.126,24.739z"/>
	</g>
	<g id="BLUE_00000081642130140977471090000000502700789664842173_" display="inline">
		
			<polyline id="red_00000094612406768453083380000004229529086174269878_" fill="none" stroke="#0000FF" stroke-width="1.5" stroke-linecap="round" stroke-linejoin="round" points="
			170.491,132.544 173.68,122.66 176.869,112.874 180.059,103.285 183.248,93.988 186.437,85.077 189.626,76.639 192.816,68.761 
			196.005,61.519 199.194,54.988 202.383,49.231 205.573,44.307 208.762,40.264 211.951,37.143 215.14,34.976 218.329,33.783 
			221.519,33.578 224.708,34.361 227.897,36.125 231.086,38.852 234.276,42.516 237.465,47.079 240.654,52.496 243.843,58.713 
			247.032,65.667 250.222,73.29 253.411,81.505 256.6,90.23 259.79,99.377 262.979,108.856 266.168,118.571 269.358,128.427 
			272.547,138.324 275.736,148.162 278.926,157.845 282.115,167.274 285.303,176.358 288.492,185.002 291.682,193.123 
			294.871,200.638 298.06,207.473 301.25,213.56 304.439,218.837 307.628,223.252 310.818,226.761 314.007,229.328 317.196,230.928 
			320.386,231.545 323.574,231.173 326.763,229.815 329.954,227.485 333.142,224.207 336.331,220.014 339.521,214.945 
			342.71,209.055 345.899,202.399 349.089,195.045 352.278,187.067 355.467,178.544 358.655,169.561 361.846,160.208 
			365.034,150.579 368.223,140.77 371.413,130.88 374.602,121.004 377.791,111.245 380.981,101.699 384.17,92.46 387.359,83.622 
			390.549,75.273 393.738,67.497 396.927,60.37 400.117,53.964 403.306,48.343 406.494,43.564 409.685,39.674 412.873,36.712 
			416.062,34.707 419.252,33.68 422.441,33.64 425.63,34.589 428.82,36.516 432.009,39.403 435.198,43.221 438.387,47.931 
			441.577,53.487 444.766,59.832 447.954,66.904 451.145,74.632 454.333,82.939 457.522,91.741 460.712,100.95 463.901,110.476 
			467.09,120.222 470.28,130.091 473.469,139.985 476.658,149.804 479.848,159.451 483.037,168.829 486.225,177.844 
			489.416,186.407 492.604,194.432 495.793,201.838 498.983,208.551 502.172,214.506 505.361,219.641 508.551,223.907 
			511.74,227.259 514.929,229.665 518.118,231.101 521.308,231.552 524.497,231.013 527.685,229.491 530.876,227 534.064,223.566 
			537.253,219.222 540.443,214.011 543.632,207.987 546.821,201.209 550.011,193.745 553.2,185.669 556.389,177.063 
			559.579,168.012 562.768,158.606 565.956,148.941 569.147,139.111 		"/>
		
			<polyline id="red_00000026866303645940907490000012629068363436054717_" fill="none" stroke="#0000FF" stroke-width="1.5" stroke-linecap="round" stroke-linejoin="round" points="
			-29.92,132.544 -26.731,122.66 -23.541,112.874 -20.352,103.285 -17.163,93.988 -13.974,85.077 -10.784,76.639 -7.595,68.761 
			-4.406,61.519 -1.217,54.988 1.973,49.231 5.162,44.307 8.351,40.264 11.54,37.143 14.729,34.976 17.919,33.783 21.108,33.578 
			24.297,34.361 27.486,36.125 30.676,38.852 33.865,42.516 37.054,47.079 40.243,52.496 43.433,58.713 46.621,65.667 49.812,73.29 
			53,81.505 56.189,90.23 59.379,99.377 62.568,108.856 65.757,118.571 68.947,128.427 72.136,138.324 75.325,148.162 
			78.515,157.845 81.704,167.274 84.893,176.358 88.081,185.002 91.272,193.123 94.46,200.638 97.649,207.473 100.839,213.56 
			104.028,218.837 107.217,223.252 110.407,226.761 113.596,229.328 116.785,230.928 119.975,231.545 123.164,231.173 
			126.352,229.815 129.543,227.485 132.731,224.207 135.92,220.014 139.11,214.945 142.299,209.055 145.488,202.399 
			148.678,195.045 151.867,187.067 155.056,178.544 158.245,169.561 161.435,160.208 164.624,150.579 167.812,140.77 
			171.003,130.88 174.191,121.004 177.38,111.245 180.57,101.699 183.759,92.46 186.948,83.622 190.138,75.273 193.327,67.497 
			196.516,60.37 199.706,53.964 202.895,48.343 206.083,43.564 209.274,39.674 212.462,36.712 215.651,34.707 218.841,33.68 
			222.03,33.64 225.219,34.589 228.409,36.516 231.598,39.403 234.787,43.221 237.976,47.931 241.166,53.487 244.355,59.832 
			247.543,66.904 250.734,74.632 253.922,82.939 257.111,91.741 260.301,100.95 263.49,110.476 266.679,120.222 269.869,130.091 
			273.058,139.985 276.247,149.804 279.437,159.451 282.626,168.829 285.815,177.844 289.005,186.407 292.194,194.432 
			295.382,201.838 298.573,208.551 301.761,214.506 304.95,219.641 308.14,223.907 311.329,227.259 314.518,229.665 
			317.707,231.101 320.897,231.552 324.086,231.013 327.274,229.491 330.465,227 333.653,223.566 336.842,219.222 340.032,214.011 
			343.221,207.987 346.41,201.209 349.6,193.745 352.789,185.669 355.978,177.063 359.168,168.012 362.357,158.606 365.546,148.941 
			368.736,139.111 		"/>
	</g>
	
		<line display="inline" fill="none" stroke="#0000FF" stroke-width="0.5" stroke-dasharray="6,6" x1="170.491" y1="132.143" x2="170.491" y2="231.55"/>
	
		<line display="inline" fill="none" stroke="#00A300" stroke-width="0.5" stroke-dasharray="6,6" x1="221.284" y1="132.584" x2="221.284" y2="232.356"/>
	<g display="inline">
		<path d="M186.641,249.25c2.737-0.486,4.753-2.377,5.474-5.33c-0.774,0.756-1.639,1.026-2.701,1.026
			c-1.945,0-3.241-1.458-3.241-3.655c0-2.431,1.603-4.249,3.745-4.249c1.152,0,2.125,0.504,2.827,1.368
			c0.72,0.9,1.152,2.197,1.152,3.709c0,2.071-0.72,4.033-2.161,5.348c-1.531,1.387-2.701,1.818-5.042,2.143L186.641,249.25z
			 M192.151,242.119c0-3.025-0.811-4.573-2.377-4.573c-0.54,0-1.008,0.216-1.314,0.612c-0.36,0.486-0.63,1.548-0.63,2.521
			c0,2.143,0.864,3.493,2.214,3.493c0.792,0,2.107-0.396,2.107-1.351V242.119z"/>
		<path d="M199.134,249.466c-3.079,0-4.069-3.349-4.069-6.302c0-3.187,1.242-6.122,4.141-6.122c2.359,0,3.998,2.539,3.998,6.229
			C203.204,246.369,202.069,249.466,199.134,249.466z M199.098,237.51c-1.495,0-2.305,2.125-2.305,5.78
			c0,3.655,0.792,5.708,2.341,5.708c1.53,0,2.341-2.07,2.341-5.635C201.475,239.617,200.683,237.51,199.098,237.51z"/>
		<path d="M207.234,242.192c-1.458,0-2.575-1.134-2.575-2.593c0-1.44,1.134-2.557,2.611-2.557c1.404,0,2.539,1.152,2.539,2.575
			C209.809,241.057,208.674,242.192,207.234,242.192z M207.198,237.654c-0.99,0-1.836,0.9-1.836,1.963
			c0,1.08,0.846,1.962,1.873,1.962s1.873-0.9,1.873-1.98C209.106,238.536,208.242,237.654,207.198,237.654z"/>
	</g>
</g>
</svg>
