<?xml version="1.0" encoding="utf-8"?>
<!-- Generator: Adobe Illustrator 26.0.1, SVG Export Plug-In . SVG Version: 6.00 Build 0)  -->
<svg version="1.1" xmlns="http://www.w3.org/2000/svg" xmlns:xlink="http://www.w3.org/1999/xlink" x="0px" y="0px"
	 viewBox="0 0 282.5522 183.7546" style="enable-background:new 0 0 282.5522 183.7546;" xml:space="preserve">
<style type="text/css">
	.st0{opacity:0.5;}
	.st1{opacity:0.25;clip-path:url(#SVGID_00000106856901920357897140000009644049691906921916_);}
	.st2{fill:none;stroke:#00ABEB;stroke-width:0.2111;stroke-miterlimit:10;}
	.st3{fill:none;stroke:#00ABEB;stroke-width:0.4221;stroke-miterlimit:10;}
	.st4{fill:none;stroke:#00ABEB;stroke-width:0.9849;stroke-miterlimit:10;}
	.st5{fill:#FF0000;}
	.st6{fill:none;stroke:#FF0000;}
	.st7{opacity:0.33;fill:#FFFFFF;}
	.st8{fill:none;stroke:#00B200;stroke-width:0.7112;}
	.st9{stroke:#00B200;stroke-width:0.7112;}
	.st10{fill:#FFFFFF;stroke:#00B200;stroke-width:0.7112;}
	.st11{fill:#00B200;}
	.st12{fill:none;stroke:#00B200;}
	.st13{display:none;}
	.st14{display:inline;}
	.st15{fill:none;stroke:#00B200;stroke-width:2;stroke-miterlimit:10;}
	.st16{fill:none;stroke:#0000FF;stroke-width:0.7142;}
	.st17{stroke:#0000FF;stroke-width:0.7142;}
	.st18{fill:#FFFFFF;stroke:#0000FF;stroke-width:0.7142;}
	.st19{fill:#0000FF;}
	.st20{fill:none;stroke:#0000FF;}
	.st21{fill:none;stroke:#0000FF;stroke-width:2;stroke-miterlimit:10;}
</style>
<g id="Graph_paper" class="st0">
	<g id="Clipped_grid">
		<defs>
			<rect id="SVGID_1_" x="-139.3436" y="-14.0982" width="467.5583" height="271.8773"/>
		</defs>
		<clipPath id="SVGID_00000038408504182016193070000011927218305780622223_">
			<use xlink:href="#SVGID_1_"  style="overflow:visible;"/>
		</clipPath>
		
			<g id="Grid_00000060005542146034257920000005065612243763103930_" style="opacity:0.25;clip-path:url(#SVGID_00000038408504182016193070000011927218305780622223_);">
			<g id="Horizontal_1_mm">
				<line class="st2" x1="-362.8523" y1="-71.5228" x2="439.1065" y2="-71.5228"/>
				<line class="st2" x1="-362.8523" y1="-81.5453" x2="439.1065" y2="-81.5453"/>
				<line class="st2" x1="-362.8523" y1="519.7417" x2="439.1065" y2="519.7417"/>
				<line class="st2" x1="-362.8523" y1="509.719" x2="439.1065" y2="509.719"/>
				<line class="st2" x1="-362.8523" y1="499.6999" x2="439.1065" y2="499.6999"/>
				<line class="st2" x1="-362.8523" y1="489.6775" x2="439.1065" y2="489.6775"/>
				<line class="st2" x1="-362.8523" y1="479.6548" x2="439.1065" y2="479.6548"/>
				<line class="st2" x1="-362.8523" y1="469.6357" x2="439.1065" y2="469.6357"/>
				<line class="st2" x1="-362.8523" y1="459.6134" x2="439.1065" y2="459.6134"/>
				<line class="st2" x1="-362.8523" y1="449.5942" x2="439.1065" y2="449.5942"/>
				<line class="st2" x1="-362.8523" y1="439.5698" x2="439.1065" y2="439.5698"/>
				<line class="st2" x1="-362.8523" y1="429.5475" x2="439.1065" y2="429.5475"/>
				<line class="st2" x1="-362.8523" y1="419.5283" x2="439.1065" y2="419.5283"/>
				<line class="st2" x1="-362.8523" y1="409.5056" x2="439.1065" y2="409.5056"/>
				<line class="st2" x1="-362.8523" y1="399.4833" x2="439.1065" y2="399.4833"/>
				<line class="st2" x1="-362.8523" y1="389.4642" x2="439.1065" y2="389.4642"/>
				<line class="st2" x1="-362.8523" y1="379.4415" x2="439.1065" y2="379.4415"/>
				<line class="st2" x1="-362.8523" y1="369.4192" x2="439.1065" y2="369.4192"/>
				<line class="st2" x1="-362.8523" y1="359.4" x2="439.1065" y2="359.4"/>
				<line class="st2" x1="-362.8523" y1="349.3773" x2="439.1065" y2="349.3773"/>
				<line class="st2" x1="-362.8523" y1="339.3547" x2="439.1065" y2="339.3547"/>
				<line class="st2" x1="-362.8523" y1="329.3359" x2="439.1065" y2="329.3359"/>
				<line class="st2" x1="-362.8523" y1="319.3132" x2="439.1065" y2="319.3132"/>
				<line class="st2" x1="-362.8523" y1="309.2891" x2="439.1065" y2="309.2891"/>
				<line class="st2" x1="-362.8523" y1="299.27" x2="439.1065" y2="299.27"/>
				<line class="st2" x1="-362.8523" y1="289.2473" x2="439.1065" y2="289.2473"/>
				<line class="st2" x1="-362.8523" y1="279.2281" x2="439.1065" y2="279.2281"/>
				<line class="st2" x1="-362.8523" y1="269.2058" x2="439.1065" y2="269.2058"/>
				<line class="st2" x1="-362.8523" y1="259.1831" x2="439.1065" y2="259.1831"/>
				<line class="st2" x1="-362.8523" y1="249.164" x2="439.1065" y2="249.164"/>
				<line class="st2" x1="-362.8523" y1="239.1417" x2="439.1065" y2="239.1417"/>
				<line class="st2" x1="-362.8523" y1="229.119" x2="439.1065" y2="229.119"/>
				<line class="st2" x1="-362.8523" y1="219.0998" x2="439.1065" y2="219.0998"/>
				<line class="st2" x1="-362.8523" y1="209.0775" x2="439.1065" y2="209.0775"/>
				<line class="st2" x1="-362.8523" y1="199.0548" x2="439.1065" y2="199.0548"/>
				<line class="st2" x1="-362.8523" y1="189.0357" x2="439.1065" y2="189.0357"/>
				<line class="st2" x1="-362.8523" y1="179.013" x2="439.1065" y2="179.013"/>
				<line class="st2" x1="-362.8523" y1="168.9907" x2="439.1065" y2="168.9907"/>
				<line class="st2" x1="-362.8523" y1="158.9715" x2="439.1065" y2="158.9715"/>
				<line class="st2" x1="-362.8523" y1="148.9489" x2="439.1065" y2="148.9489"/>
				<line class="st2" x1="-362.8523" y1="138.9265" x2="439.1065" y2="138.9265"/>
				<line class="st2" x1="-362.8523" y1="128.9074" x2="439.1065" y2="128.9074"/>
				<line class="st2" x1="-362.8523" y1="118.8829" x2="439.1065" y2="118.8829"/>
				<line class="st2" x1="-362.8523" y1="108.8642" x2="439.1065" y2="108.8642"/>
				<line class="st2" x1="-362.8523" y1="98.8415" x2="439.1065" y2="98.8415"/>
				<line class="st2" x1="-362.8523" y1="88.8188" x2="439.1065" y2="88.8188"/>
				<line class="st2" x1="-362.8523" y1="78.8" x2="439.1065" y2="78.8"/>
				<line class="st2" x1="-362.8523" y1="68.7773" x2="439.1065" y2="68.7773"/>
				<line class="st2" x1="-362.8523" y1="58.7546" x2="439.1065" y2="58.7546"/>
				<line class="st2" x1="-362.8523" y1="48.7355" x2="439.1065" y2="48.7355"/>
				<line class="st2" x1="-362.8523" y1="38.7132" x2="439.1065" y2="38.7132"/>
				<line class="st2" x1="-362.8523" y1="28.6905" x2="439.1065" y2="28.6905"/>
				<line class="st2" x1="-362.8523" y1="18.6713" x2="439.1065" y2="18.6713"/>
				<line class="st2" x1="-362.8523" y1="8.649" x2="439.1065" y2="8.649"/>
				<line class="st2" x1="-362.8523" y1="-1.3737" x2="439.1065" y2="-1.3737"/>
				<line class="st2" x1="-362.8523" y1="-11.3928" x2="439.1065" y2="-11.3928"/>
				<line class="st2" x1="-362.8523" y1="-21.4169" x2="439.1065" y2="-21.4169"/>
				<line class="st2" x1="-362.8523" y1="-31.436" x2="439.1065" y2="-31.436"/>
				<line class="st2" x1="-362.8523" y1="-41.4587" x2="439.1065" y2="-41.4587"/>
				<line class="st2" x1="-362.8523" y1="-51.4811" x2="439.1065" y2="-51.4811"/>
				<line class="st2" x1="-362.8523" y1="-61.5002" x2="439.1065" y2="-61.5002"/>
			</g>
			<g id="Vertical_1_mm">
				<g>
					<line class="st2" x1="-362.5865" y1="519.6929" x2="-362.5865" y2="-81.8111"/>
				</g>
				<line class="st2" x1="-352.5674" y1="519.6929" x2="-352.5674" y2="-81.8111"/>
				<line class="st2" x1="-342.5448" y1="519.6929" x2="-342.5448" y2="-81.8111"/>
				<line class="st2" x1="-332.5223" y1="519.6929" x2="-332.5223" y2="-81.8111"/>
				<line class="st2" x1="-322.5033" y1="519.6929" x2="-322.5033" y2="-81.8111"/>
				<line class="st2" x1="-312.4807" y1="519.6929" x2="-312.4807" y2="-81.8111"/>
				<line class="st2" x1="-302.458" y1="519.6929" x2="-302.458" y2="-81.8111"/>
				<line class="st2" x1="-292.4392" y1="519.6929" x2="-292.4392" y2="-81.8111"/>
				<line class="st2" x1="-282.4147" y1="519.6929" x2="-282.4147" y2="-81.8111"/>
				<line class="st2" x1="-272.3956" y1="519.6929" x2="-272.3956" y2="-81.8111"/>
				<line class="st2" x1="-262.3733" y1="519.6929" x2="-262.3733" y2="-81.8111"/>
				<line class="st2" x1="-252.3506" y1="519.6929" x2="-252.3506" y2="-81.8111"/>
				<line class="st2" x1="-242.3315" y1="519.6929" x2="-242.3315" y2="-81.8111"/>
				<line class="st2" x1="-232.3091" y1="519.6929" x2="-232.3091" y2="-81.8111"/>
				<line class="st2" x1="-222.2864" y1="519.6929" x2="-222.2864" y2="-81.8111"/>
				<line class="st2" x1="-212.2673" y1="519.6929" x2="-212.2673" y2="-81.8111"/>
				<line class="st2" x1="-202.2446" y1="519.6929" x2="-202.2446" y2="-81.8111"/>
				<line class="st2" x1="-192.2223" y1="519.6929" x2="-192.2223" y2="-81.8111"/>
				<line class="st2" x1="-182.2032" y1="519.6929" x2="-182.2032" y2="-81.8111"/>
				<line class="st2" x1="-172.1805" y1="519.6929" x2="-172.1805" y2="-81.8111"/>
				<line class="st2" x1="-162.1581" y1="519.6929" x2="-162.1581" y2="-81.8111"/>
				<line class="st2" x1="-152.139" y1="519.6929" x2="-152.139" y2="-81.8111"/>
				<line class="st2" x1="-142.1163" y1="519.6929" x2="-142.1163" y2="-81.8111"/>
				<line class="st2" x1="-132.094" y1="519.6929" x2="-132.094" y2="-81.8111"/>
				<line class="st2" x1="-122.0731" y1="519.6929" x2="-122.0731" y2="-81.8111"/>
				<line class="st2" x1="-112.0504" y1="519.6929" x2="-112.0504" y2="-81.8111"/>
				<line class="st2" x1="-102.0316" y1="519.6929" x2="-102.0316" y2="-81.8111"/>
				<line class="st2" x1="-92.0089" y1="519.6929" x2="-92.0089" y2="-81.8111"/>
				<line class="st2" x1="-81.9863" y1="519.6929" x2="-81.9863" y2="-81.8111"/>
				<line class="st2" x1="-71.9675" y1="519.6929" x2="-71.9675" y2="-81.8111"/>
				<line class="st2" x1="-61.9448" y1="519.6929" x2="-61.9448" y2="-81.8111"/>
				<line class="st2" x1="-51.9221" y1="519.6929" x2="-51.9221" y2="-81.8111"/>
				<line class="st2" x1="-41.903" y1="519.6929" x2="-41.903" y2="-81.8111"/>
				<line class="st2" x1="-31.8806" y1="519.6929" x2="-31.8806" y2="-81.8111"/>
				<line class="st2" x1="-21.858" y1="519.6929" x2="-21.858" y2="-81.8111"/>
				<line class="st2" x1="-11.8388" y1="519.6929" x2="-11.8388" y2="-81.8111"/>
				<line class="st2" x1="-1.8165" y1="519.6929" x2="-1.8165" y2="-81.8111"/>
				<line class="st2" x1="8.2062" y1="519.6929" x2="8.2062" y2="-81.8111"/>
				<line class="st2" x1="18.2253" y1="519.6929" x2="18.2253" y2="-81.8111"/>
				<line class="st2" x1="28.2477" y1="519.6929" x2="28.2477" y2="-81.8111"/>
				<line class="st2" x1="38.2668" y1="519.6929" x2="38.2668" y2="-81.8111"/>
				<line class="st2" x1="48.2912" y1="519.6929" x2="48.2912" y2="-81.8111"/>
				<line class="st2" x1="58.3136" y1="519.6929" x2="58.3136" y2="-81.8111"/>
				<line class="st2" x1="68.3327" y1="519.6929" x2="68.3327" y2="-81.8111"/>
				<line class="st2" x1="78.3554" y1="519.6929" x2="78.3554" y2="-81.8111"/>
				<line class="st2" x1="88.3777" y1="519.6929" x2="88.3777" y2="-81.8111"/>
				<line class="st2" x1="98.3969" y1="519.6929" x2="98.3969" y2="-81.8111"/>
				<line class="st2" x1="108.4195" y1="519.6929" x2="108.4195" y2="-81.8111"/>
				<line class="st2" x1="118.4419" y1="519.6929" x2="118.4419" y2="-81.8111"/>
				<line class="st2" x1="128.461" y1="519.6929" x2="128.461" y2="-81.8111"/>
				<line class="st2" x1="138.4837" y1="519.6929" x2="138.4837" y2="-81.8111"/>
				<line class="st2" x1="148.506" y1="519.6929" x2="148.506" y2="-81.8111"/>
				<line class="st2" x1="158.5252" y1="519.6929" x2="158.5252" y2="-81.8111"/>
				<line class="st2" x1="168.5478" y1="519.6929" x2="168.5478" y2="-81.8111"/>
				<line class="st2" x1="178.5702" y1="519.6929" x2="178.5702" y2="-81.8111"/>
				<line class="st2" x1="188.5893" y1="519.6929" x2="188.5893" y2="-81.8111"/>
				<line class="st2" x1="198.6138" y1="519.6929" x2="198.6138" y2="-81.8111"/>
				<line class="st2" x1="208.6329" y1="519.6929" x2="208.6329" y2="-81.8111"/>
				<line class="st2" x1="218.6552" y1="519.6929" x2="218.6552" y2="-81.8111"/>
				<line class="st2" x1="228.6779" y1="519.6929" x2="228.6779" y2="-81.8111"/>
				<line class="st2" x1="238.6971" y1="519.6929" x2="238.6971" y2="-81.8111"/>
				<line class="st2" x1="248.7194" y1="519.6929" x2="248.7194" y2="-81.8111"/>
				<line class="st2" x1="258.7421" y1="519.6929" x2="258.7421" y2="-81.8111"/>
				<line class="st2" x1="268.7612" y1="519.6929" x2="268.7612" y2="-81.8111"/>
				<line class="st2" x1="278.7835" y1="519.6929" x2="278.7835" y2="-81.8111"/>
				<line class="st2" x1="288.8062" y1="519.6929" x2="288.8062" y2="-81.8111"/>
				<line class="st2" x1="298.8253" y1="519.6929" x2="298.8253" y2="-81.8111"/>
				<line class="st2" x1="308.8477" y1="519.6929" x2="308.8477" y2="-81.8111"/>
				<line class="st2" x1="318.8704" y1="519.6929" x2="318.8704" y2="-81.8111"/>
				<line class="st2" x1="328.8895" y1="519.6929" x2="328.8895" y2="-81.8111"/>
				<line class="st2" x1="338.9122" y1="519.6929" x2="338.9122" y2="-81.8111"/>
				<line class="st2" x1="348.9345" y1="519.6929" x2="348.9345" y2="-81.8111"/>
				<line class="st2" x1="358.9554" y1="519.6929" x2="358.9554" y2="-81.8111"/>
				<line class="st2" x1="368.9777" y1="519.6929" x2="368.9777" y2="-81.8111"/>
				<line class="st2" x1="378.9969" y1="519.6929" x2="378.9969" y2="-81.8111"/>
				<line class="st2" x1="389.0196" y1="519.6929" x2="389.0196" y2="-81.8111"/>
				<line class="st2" x1="399.0422" y1="519.6929" x2="399.0422" y2="-81.8111"/>
				<line class="st2" x1="409.061" y1="519.6929" x2="409.061" y2="-81.8111"/>
				<line class="st2" x1="419.0837" y1="519.6929" x2="419.0837" y2="-81.8111"/>
				<line class="st2" x1="429.1064" y1="519.6929" x2="429.1064" y2="-81.8111"/>
				<line class="st2" x1="439.1252" y1="519.6929" x2="439.1252" y2="-81.8111"/>
			</g>
			<g id="Horizontal_5_mm_1_">
				<line class="st3" x1="-363.8242" y1="519.7417" x2="439.1065" y2="519.7417"/>
				<line class="st3" x1="-363.8242" y1="469.6357" x2="439.1065" y2="469.6357"/>
				<line class="st3" x1="-363.8242" y1="419.5283" x2="439.1065" y2="419.5283"/>
				<line class="st3" x1="-363.8242" y1="369.4192" x2="439.1065" y2="369.4192"/>
				<line class="st3" x1="-363.8242" y1="319.3132" x2="439.1065" y2="319.3132"/>
				<line class="st3" x1="-363.8242" y1="269.2058" x2="439.1065" y2="269.2058"/>
				<line class="st3" x1="-363.8242" y1="219.0998" x2="439.1065" y2="219.0998"/>
				<line class="st3" x1="-363.8242" y1="168.9907" x2="439.1065" y2="168.9907"/>
				<line class="st3" x1="-363.8242" y1="118.8829" x2="439.1065" y2="118.8829"/>
				<line class="st3" x1="-363.8242" y1="68.7773" x2="439.1065" y2="68.7773"/>
				<line class="st3" x1="-363.8242" y1="18.6713" x2="439.1065" y2="18.6713"/>
			</g>
			<g id="Vertical_5_mm">
				<line class="st3" x1="-362.5865" y1="519.6929" x2="-362.5865" y2="-82.783"/>
				<line class="st3" x1="-312.4807" y1="519.6929" x2="-312.4807" y2="-82.783"/>
				<line class="st3" x1="-262.3733" y1="519.6929" x2="-262.3733" y2="-82.783"/>
				<line class="st3" x1="-212.2673" y1="519.6929" x2="-212.2673" y2="-82.783"/>
				<line class="st3" x1="-162.1581" y1="519.6929" x2="-162.1581" y2="-82.783"/>
				<line class="st3" x1="-112.0504" y1="519.6929" x2="-112.0504" y2="-82.783"/>
				<line class="st3" x1="-61.9448" y1="519.6929" x2="-61.9448" y2="-82.783"/>
				<line class="st3" x1="-11.8388" y1="519.6929" x2="-11.8388" y2="-82.783"/>
				<line class="st3" x1="38.2668" y1="519.6929" x2="38.2668" y2="-82.783"/>
				<line class="st3" x1="88.3777" y1="519.6929" x2="88.3777" y2="-82.783"/>
				<line class="st3" x1="138.4837" y1="519.6929" x2="138.4837" y2="-82.783"/>
				<line class="st3" x1="188.5893" y1="519.6929" x2="188.5893" y2="-82.783"/>
				<line class="st3" x1="238.6971" y1="519.6929" x2="238.6971" y2="-82.783"/>
				<line class="st3" x1="288.8062" y1="519.6929" x2="288.8062" y2="-82.783"/>
				<line class="st3" x1="338.9122" y1="519.6929" x2="338.9122" y2="-82.783"/>
				<line class="st3" x1="389.0196" y1="519.6929" x2="389.0196" y2="-82.783"/>
				<line class="st3" x1="439.1252" y1="519.6929" x2="439.1252" y2="-82.783"/>
			</g>
			<g id="Horizontal_10_mm">
				<line id="_x31_9_1_" class="st4" x1="-363.8242" y1="519.7417" x2="439.1065" y2="519.7417"/>
				<line id="_x32_0" class="st4" x1="-363.8242" y1="419.5283" x2="439.1065" y2="419.5283"/>
				<line id="_x32_1" class="st4" x1="-363.8242" y1="319.3132" x2="439.1065" y2="319.3132"/>
				<line id="_x32_2" class="st4" x1="-363.8242" y1="219.0998" x2="439.1065" y2="219.0998"/>
				<line id="_x32_3" class="st4" x1="-363.8242" y1="118.8829" x2="439.1065" y2="118.8829"/>
				<line id="_x32_4" class="st4" x1="-363.8242" y1="18.6713" x2="439.1065" y2="18.6713"/>
				<line id="_x32_5" class="st4" x1="-363.8242" y1="-81.5453" x2="439.1065" y2="-81.5453"/>
			</g>
			<g id="Vertical_10_mm">
				<line id="_x30_" class="st4" x1="-362.5865" y1="519.6929" x2="-362.5865" y2="-82.783"/>
				<line id="_x31_" class="st4" x1="-262.3733" y1="519.6929" x2="-262.3733" y2="-82.783"/>
				<line id="_x32_" class="st4" x1="-162.1581" y1="519.6929" x2="-162.1581" y2="-82.783"/>
				<line id="_x33_" class="st4" x1="-61.9448" y1="519.6929" x2="-61.9448" y2="-82.783"/>
				<line id="_x34_" class="st4" x1="38.2668" y1="519.6929" x2="38.2668" y2="-82.783"/>
				<line id="_x35_" class="st4" x1="138.4837" y1="519.6929" x2="138.4837" y2="-82.783"/>
				<line id="_x36_" class="st4" x1="238.6971" y1="519.6929" x2="238.6971" y2="-82.783"/>
				<line id="_x37_" class="st4" x1="338.9122" y1="519.6929" x2="338.9122" y2="-82.783"/>
				<line id="_x38_" class="st4" x1="439.1252" y1="519.6929" x2="439.1252" y2="-82.783"/>
			</g>
		</g>
	</g>
</g>
<g id="F21_00000182494730913233719290000001428164106738209192_">
	<g>
		<path class="st5" d="M117.1834,86.2286l-0.5459-0.0518c0.0781-0.5723,0.0781-0.7021,0.0781-0.8584
			c0-1.8975-0.5986-2.2363-5.1738-2.2363c-1.1963,0-1.5859,0.1562-1.7686,0.832l-1.6641,5.9023
			c4.3682-0.0518,4.4463-0.1035,5.6162-2.4434l0.4678,0.1299l-1.9756,6.1104l-0.4424-0.1309
			c0.1562-0.8057,0.208-1.1699,0.208-1.5859c0-1.04-0.7275-1.1436-1.9502-1.1436c-0.5713,0-1.1953-0.0264-2.1572-0.0781
			l-1.5342,5.5381c-0.1826,0.6504-0.3643,1.1699-0.3643,1.5605c0,0.624,0.4678,0.9102,2.002,1.0137v0.416h-6.5264v-0.416
			c1.5078-0.1035,1.7686-0.6758,2.1582-2.0283l3.1982-11.4922c0.1816-0.6504,0.2598-1.1699,0.2598-1.5859
			c0-0.7285-0.2598-0.8838-1.9756-1.04v-0.416h12.9219L117.1834,86.2286z"/>
		<path class="st5" d="M118.3426,100.0733c0.3643-0.8936,0.7119-1.4092,1.2432-1.8184c0.5908-0.4541,1.2422-0.6367,1.9395-0.6367
			c1.4541,0,2.4541,1.1221,2.4541,2.5615c0,1.0146-0.4697,1.7119-2.2578,3.5449l-2.8486,2.9092v0.0762h2.7432
			c0.8936,0,1.1963-0.2275,1.5605-0.9854l0.2568,0.1064l-0.7568,2.0303h-5.3643v-0.2578l3.1816-3.3936
			c1-1.0605,1.6826-2.0156,2.0459-2.834c0.0908-0.1963,0.1367-0.4844,0.1367-0.8184c0-1.0449-0.6064-1.833-1.8037-1.833
			c-0.9092,0-1.6816,0.4395-2.2119,1.4551L118.3426,100.0733z"/>
		<path class="st5" d="M124.6336,109.543c0.8037-0.5146,1.1523-0.9541,1.1523-1.3633c0-0.1514-0.0605-0.2578-0.3037-0.4395
			c-0.3027-0.2275-0.3789-0.4551-0.3789-0.7422c0-0.3643,0.334-0.667,0.7734-0.667c0.5449,0,0.8789,0.5146,0.8789,1.1211
			c0,0.8486-0.6973,1.6973-1.9697,2.3643L124.6336,109.543z"/>
		<path class="st5" d="M134.1658,97.6182c0.0459,0,0.0762,0.0459,0.0762,0.1064c0,0.0762-0.0303,0.2275-0.0908,0.4395l-2.167,7.8643
			c-0.1064,0.3779-0.2725,0.9697-0.2725,1.1211c0,0.3486,0.333,0.4844,1,0.4844h0.3184v0.2275h-4.2275v-0.2275
			c1.1973-0.0908,1.5303-0.2568,1.6973-0.833l2.0605-7.3945c0.0752-0.2881,0.1211-0.4395,0.1211-0.5449
			c0-0.2881-0.1973-0.4697-0.5303-0.4697h-0.0459c-0.2725,0-0.6055,0.0146-0.8936,0.0303v-0.2275l0.3486-0.0762
			c1.333-0.2871,1.3936-0.2568,2.5605-0.5H134.1658z"/>
	</g>
	<g>
		<g>
			<line class="st6" x1="138.468" y1="68.7449" x2="138.468" y2="107.0609"/>
			<g>
				<polygon class="st5" points="134.3782,103.7474 135.1106,103.0653 138.4671,106.6771 141.8245,103.0653 142.5569,103.7474 
					138.4671,108.1454 				"/>
			</g>
		</g>
	</g>
	<g>
		<g>
			<line class="st6" x1="106.1375" y1="76.5644" x2="117.2459" y2="76.5644"/>
			<g>
				<polygon class="st5" points="113.9324,80.6543 113.2503,79.9218 116.8621,76.5654 113.2503,73.208 113.9324,72.4755 
					118.3304,76.5654 				"/>
			</g>
		</g>
	</g>
</g>
<g id="B2">
	<g id="B_00000052809697788587869230000006868411418433000864_">
		<g id="outof_00000029046391941835224150000001437841641213790619_">
			<circle class="st7" cx="58.7242" cy="169.0057" r="7.1122"/>
			<circle class="st8" cx="58.7242" cy="169.0057" r="7.1122"/>
			<circle class="st9" cx="58.7242" cy="169.0057" r="0.7112"/>
		</g>
		<g id="into_00000042013767797206758110000000770579809026901401_">
			<circle class="st7" cx="58.8715" cy="68.362" r="7.1122"/>
			<circle class="st8" cx="58.8715" cy="68.362" r="7.1122"/>
			<path class="st10" d="M64.2561,63.333L54.198,73.3911 M53.6951,63.333l10.0581,10.0581"/>
		</g>
		<g id="outof_00000183207171219810464950000015812681748256909226_">
			<circle class="st7" cx="99.0254" cy="169.0057" r="7.1122"/>
			<circle class="st8" cx="99.0254" cy="169.0057" r="7.1122"/>
			<circle class="st9" cx="99.0254" cy="169.0057" r="0.7112"/>
		</g>
		<g id="into_00000021103522341433957500000005783012376787652487_">
			<circle class="st7" cx="97.8317" cy="68.362" r="7.1122"/>
			<circle class="st8" cx="97.8317" cy="68.362" r="7.1122"/>
			<path class="st10" d="M103.2164,63.333L93.1582,73.3911 M92.6553,63.333l10.0581,10.0581"/>
		</g>
		<g id="outof_00000119805109055009489920000003353845022204145589_">
			<circle class="st7" cx="138.408" cy="169.0057" r="7.1122"/>
			<circle class="st8" cx="138.408" cy="169.0057" r="7.1122"/>
			<circle class="st9" cx="138.408" cy="169.0057" r="0.7112"/>
		</g>
		<g id="into_00000057109065968041847050000005015808278159222927_">
			<circle class="st7" cx="138.5553" cy="68.362" r="7.1122"/>
			<circle class="st8" cx="138.5553" cy="68.362" r="7.1122"/>
			<path class="st10" d="M143.9399,63.333l-10.0581,10.0581 M133.3789,63.333l10.0581,10.0581"/>
		</g>
		<g id="outof_00000093151037606902874070000009615797969230802105_">
			<circle class="st7" cx="178.9482" cy="169.0057" r="7.1122"/>
			<circle class="st8" cx="178.9482" cy="169.0057" r="7.1122"/>
			<circle class="st9" cx="178.9482" cy="169.0057" r="0.7112"/>
		</g>
		<g id="into_00000013905368766295132320000007180695803159191687_">
			<circle class="st7" cx="179.0955" cy="68.362" r="7.1122"/>
			<circle class="st8" cx="179.0955" cy="68.362" r="7.1122"/>
			<path class="st10" d="M184.4802,63.333L174.422,73.3911 M173.9191,63.333l10.0581,10.0581"/>
		</g>
		<g id="outof_00000153671600595963872800000014886229776113257134_">
			<circle class="st7" cx="218.302" cy="169.0057" r="7.1122"/>
			<circle class="st8" cx="218.302" cy="169.0057" r="7.1122"/>
			<circle class="st9" cx="218.302" cy="169.0057" r="0.7112"/>
		</g>
		<g id="into_00000046300333988136787410000006074960890043479430_">
			<circle class="st7" cx="218.4493" cy="68.362" r="7.1122"/>
			<circle class="st8" cx="218.4493" cy="68.362" r="7.1122"/>
			<path class="st10" d="M223.834,63.333l-10.0581,10.0581 M213.2729,63.333l10.0581,10.0581"/>
		</g>
	</g>
	<g>
		<path class="st11" d="M19.1355,154.0377c3.3359,0,4.9922,1.2246,4.9922,3.6006c0,1.2959-0.6719,2.1367-1.5361,2.7129
			c-0.7441,0.5039-1.6318,0.7197-2.6641,0.9355v0.0244c2.0635,0.624,3.0244,1.8955,3.0244,3.5996
			c0,3.2168-2.7129,4.8008-6.6006,4.8008H9.823v-0.3838c1.3193-0.1924,1.584-0.4326,1.9922-1.9209l2.9033-10.4648
			c0.168-0.5996,0.2646-1.1758,0.2646-1.5361c0-0.6953-0.3359-0.8633-1.8486-0.9834v-0.3848H19.1355z M14.9588,164.6226
			c-0.4795,1.8242-0.8398,3.0488-0.8398,3.3604c0,0.6729,0.5996,1.0088,1.6084,1.0088c2.7598,0,4.6318-1.416,4.6318-4.0811
			c0-1.4873-0.6963-2.5439-1.6084-2.8555c-0.4795-0.168-1.5117-0.2881-3.0234-0.2881L14.9588,164.6226z M16.8787,160.9986
			c3.1445,0,4.8252-1.2715,4.8252-3.6484c0-1.7764-0.8643-2.5918-2.8086-2.5918c-0.9365,0-1.1758,0-1.416,0.8643l-1.5127,5.376
			H16.8787z"/>
		<path class="st11" d="M25.7976,170.5113c0.3359-0.8252,0.6582-1.3008,1.1475-1.6787c0.5459-0.4199,1.1475-0.5879,1.791-0.5879
			c1.3438,0,2.2666,1.0352,2.2666,2.3652c0,0.9375-0.4336,1.5811-2.085,3.2734l-2.6299,2.6865v0.0703h2.5322
			c0.8252,0,1.1055-0.21,1.4414-0.9092l0.2383,0.0977l-0.7002,1.875h-4.9531v-0.2383l2.9385-3.1338
			c0.9238-0.9795,1.5527-1.8613,1.8887-2.6162c0.084-0.1826,0.126-0.4482,0.126-0.7559c0-0.9658-0.5596-1.6934-1.665-1.6934
			c-0.8398,0-1.5527,0.4062-2.043,1.3438L25.7976,170.5113z"/>
	</g>
	<g>
		<g>
			<line class="st12" x1="12.1919" y1="147.8303" x2="23.6517" y2="147.8303"/>
			<g>
				<polygon class="st11" points="20.3382,151.9201 19.6561,151.1877 23.2679,147.8313 19.6561,144.4738 20.3382,143.7414 
					24.7362,147.8313 				"/>
			</g>
		</g>
	</g>
	<g>
		<path class="st11" d="M19.1355,59.9498c3.3359,0,4.9922,1.2246,4.9922,3.6006c0,1.2959-0.6719,2.1367-1.5361,2.7129
			c-0.7441,0.5039-1.6318,0.7197-2.6641,0.9355v0.0244c2.0635,0.624,3.0244,1.8955,3.0244,3.5996
			c0,3.2168-2.7129,4.8008-6.6006,4.8008H9.823v-0.3838c1.3193-0.1924,1.584-0.4326,1.9922-1.9209l2.9033-10.4648
			c0.168-0.5996,0.2646-1.1758,0.2646-1.5361c0-0.6953-0.3359-0.8633-1.8486-0.9834v-0.3848H19.1355z M14.9588,70.5347
			c-0.4795,1.8242-0.8398,3.0488-0.8398,3.3604c0,0.6729,0.5996,1.0088,1.6084,1.0088c2.7598,0,4.6318-1.416,4.6318-4.0811
			c0-1.4873-0.6963-2.5439-1.6084-2.8555c-0.4795-0.168-1.5117-0.2881-3.0234-0.2881L14.9588,70.5347z M16.8787,66.9107
			c3.1445,0,4.8252-1.2715,4.8252-3.6484c0-1.7764-0.8643-2.5918-2.8086-2.5918c-0.9365,0-1.1758,0-1.416,0.8643l-1.5127,5.376
			H16.8787z"/>
		<path class="st11" d="M25.7976,76.4234c0.3359-0.8252,0.6582-1.3008,1.1475-1.6787c0.5459-0.4199,1.1475-0.5879,1.791-0.5879
			c1.3438,0,2.2666,1.0352,2.2666,2.3652c0,0.9375-0.4336,1.5811-2.085,3.2734l-2.6299,2.6865v0.0703h2.5322
			c0.8252,0,1.1055-0.21,1.4414-0.9092l0.2383,0.0977l-0.7002,1.875h-4.9531v-0.2383l2.9385-3.1338
			c0.9238-0.9795,1.5527-1.8613,1.8887-2.6162c0.084-0.1826,0.126-0.4482,0.126-0.7559c0-0.9658-0.5596-1.6934-1.665-1.6934
			c-0.8398,0-1.5527,0.4062-2.043,1.3438L25.7976,76.4234z"/>
	</g>
	<g>
		<g>
			<line class="st12" x1="12.1919" y1="53.7423" x2="23.6517" y2="53.7423"/>
			<g>
				<polygon class="st11" points="20.3382,57.8322 19.6561,57.0998 23.2679,53.7433 19.6561,50.3859 20.3382,49.6535 
					24.7362,53.7433 				"/>
			</g>
		</g>
	</g>
</g>
<g id="F12" class="st13">
	<g class="st14">
		<path class="st5" d="M160.2009,86.2286l-0.5469-0.0518c0.0781-0.5723,0.0781-0.7021,0.0781-0.8584
			c0-1.8975-0.5977-2.2363-5.1738-2.2363c-1.1963,0-1.5859,0.1562-1.7676,0.832l-1.6641,5.9023
			c4.3672-0.0518,4.4453-0.1035,5.6152-2.4434l0.4688,0.1299l-1.9766,6.1104l-0.4414-0.1309
			c0.1562-0.8057,0.208-1.1699,0.208-1.5859c0-1.04-0.7285-1.1436-1.9502-1.1436c-0.5723,0-1.1963-0.0264-2.1582-0.0781
			l-1.5342,5.5381c-0.1816,0.6504-0.3643,1.1699-0.3643,1.5605c0,0.624,0.4688,0.9102,2.0029,1.0137v0.416h-6.5264v-0.416
			c1.5078-0.1035,1.7676-0.6758,2.1582-2.0283l3.1973-11.4922c0.1826-0.6504,0.2607-1.1699,0.2607-1.5859
			c0-0.7285-0.2607-0.8838-1.9766-1.04v-0.416h12.9229L160.2009,86.2286z"/>
		<path class="st5" d="M166.2693,97.6182c0.0459,0,0.0762,0.0459,0.0762,0.1064c0,0.0762-0.0303,0.2275-0.0908,0.4395l-2.167,7.8643
			c-0.1064,0.3779-0.2725,0.9697-0.2725,1.1211c0,0.3486,0.333,0.4844,1,0.4844h0.3184v0.2275h-4.2275v-0.2275
			c1.1973-0.0908,1.5303-0.2568,1.6973-0.833l2.0605-7.3945c0.0752-0.2881,0.1211-0.4395,0.1211-0.5449
			c0-0.2881-0.1973-0.4697-0.5303-0.4697h-0.0459c-0.2725,0-0.6055,0.0146-0.8936,0.0303v-0.2275l0.3486-0.0762
			c1.333-0.2871,1.3936-0.2568,2.5605-0.5H166.2693z"/>
		<path class="st5" d="M167.6502,109.543c0.8037-0.5146,1.1523-0.9541,1.1523-1.3633c0-0.1514-0.0605-0.2578-0.3037-0.4395
			c-0.3027-0.2275-0.3789-0.4551-0.3789-0.7422c0-0.3643,0.334-0.667,0.7734-0.667c0.5449,0,0.8789,0.5146,0.8789,1.1211
			c0,0.8486-0.6973,1.6973-1.9697,2.3643L167.6502,109.543z"/>
		<path class="st5" d="M172.7283,100.0733c0.3643-0.8936,0.7119-1.4092,1.2432-1.8184c0.5908-0.4541,1.2422-0.6367,1.9395-0.6367
			c1.4541,0,2.4541,1.1221,2.4541,2.5615c0,1.0146-0.4697,1.7119-2.2578,3.5449l-2.8486,2.9092v0.0762h2.7432
			c0.8936,0,1.1963-0.2275,1.5605-0.9854l0.2578,0.1064l-0.7578,2.0303h-5.3643v-0.2578l3.1816-3.3936
			c1.001-1.0605,1.6826-2.0156,2.0459-2.834c0.0908-0.1963,0.1367-0.4844,0.1367-0.8184c0-1.0449-0.6064-1.833-1.8037-1.833
			c-0.9092,0-1.6816,0.4395-2.2119,1.4551L172.7283,100.0733z"/>
	</g>
	<g class="st14">
		<g>
			<line class="st6" x1="138.2676" y1="118.2005" x2="138.2676" y2="79.8845"/>
			<g>
				<polygon class="st5" points="142.3574,83.198 141.625,83.8801 138.2686,80.2683 134.9111,83.8801 134.1787,83.198 
					138.2686,78.8 				"/>
			</g>
		</g>
	</g>
	<g class="st14">
		<g>
			<line class="st6" x1="148.9083" y1="76.5644" x2="160.0167" y2="76.5644"/>
			<g>
				<polygon class="st5" points="156.7032,80.6543 156.0211,79.9218 159.6329,76.5654 156.0211,73.208 156.7032,72.4755 
					161.1012,76.5654 				"/>
			</g>
		</g>
	</g>
</g>
<g id="I2">
	<g>
		<g>
			<line class="st15" x1="31.362" y1="118.8221" x2="246.5504" y2="118.8221"/>
			<g>
				<polygon class="st11" points="239.9234,127.0018 238.5591,125.5369 245.7828,118.824 238.5591,112.1092 239.9234,110.6443 
					248.7194,118.824 				"/>
			</g>
		</g>
	</g>
	<g>
		<path class="st11" d="M265.4695,112.3751c-1.3438,0.168-1.5605,0.3838-1.9678,1.8477l-2.8809,10.2974
			c-0.2158,0.7686-0.3594,1.3447-0.3594,1.8242c0,0.6719,0.2871,0.7686,1.6553,0.9365v0.3838h-5.8555v-0.3838
			c1.3193-0.2402,1.6553-0.4561,2.0156-1.8008l2.8799-10.5854c0.168-0.5996,0.3125-1.1035,0.3125-1.4873
			c0-0.6006-0.3838-0.9609-1.7285-1.0322v-0.3848h5.9287V112.3751z"/>
		<path class="st11" d="M265.364,128.4644c0.3359-0.8252,0.6582-1.3008,1.1475-1.6787c0.5459-0.4199,1.1475-0.5879,1.791-0.5879
			c1.3438,0,2.2666,1.0352,2.2666,2.3652c0,0.9375-0.4336,1.5811-2.085,3.2734l-2.6299,2.6865v0.0703h2.5322
			c0.8252,0,1.1055-0.21,1.4414-0.9092l0.2383,0.0977l-0.7002,1.875h-4.9531v-0.2383l2.9385-3.1338
			c0.9238-0.9795,1.5527-1.8613,1.8887-2.6162c0.084-0.1826,0.126-0.4482,0.126-0.7559c0-0.9658-0.5596-1.6934-1.665-1.6934
			c-0.8398,0-1.5527,0.4062-2.043,1.3438L265.364,128.4644z"/>
	</g>
	<g>
		<g>
			<line class="st12" x1="258.4372" y1="106.1635" x2="271.759" y2="106.1635"/>
			<g>
				<polygon class="st11" points="268.4455,110.2533 267.7634,109.5209 271.3752,106.1645 267.7634,102.8071 268.4455,102.0746 
					272.8435,106.1645 				"/>
			</g>
		</g>
	</g>
</g>
<g id="B1" class="st13">
	<g id="B" class="st14">
		<g id="outof">
			<circle class="st7" cx="58.2928" cy="118.9147" r="7.1424"/>
			<circle class="st16" cx="58.2928" cy="118.9147" r="7.1424"/>
			<circle class="st17" cx="58.2928" cy="118.9147" r="0.7142"/>
		</g>
		<g id="into">
			<circle class="st7" cx="58.4407" cy="18.1854" r="7.1424"/>
			<circle class="st16" cx="58.4407" cy="18.1854" r="7.1424"/>
			<path class="st18" d="M63.8483,13.1349L53.7474,23.2358 M53.2423,13.1349l10.1009,10.1009"/>
		</g>
		<g id="outof_00000064340706181775211230000004585634977057804418_">
			<circle class="st7" cx="98.2806" cy="118.9147" r="7.1424"/>
			<circle class="st16" cx="98.2806" cy="118.9147" r="7.1424"/>
			<circle class="st17" cx="98.2806" cy="118.9147" r="0.7142"/>
		</g>
		<g id="into_00000003094013721544258700000014403815420350712236_">
			<circle class="st7" cx="98.4285" cy="18.1854" r="7.1424"/>
			<circle class="st16" cx="98.4285" cy="18.1854" r="7.1424"/>
			<path class="st18" d="M103.8361,13.1349L93.7352,23.2358 M93.2302,13.1349l10.1009,10.1009"/>
		</g>
		<g id="outof_00000063622810641258013820000003297097886880254602_">
			<circle class="st7" cx="138.2676" cy="118.9147" r="7.1424"/>
			<circle class="st16" cx="138.2676" cy="118.9147" r="7.1424"/>
			<circle class="st17" cx="138.2676" cy="118.9147" r="0.7142"/>
		</g>
		<g id="into_00000064329793069929058600000012901521094282966463_">
			<circle class="st7" cx="138.4155" cy="18.1854" r="7.1424"/>
			<circle class="st16" cx="138.4155" cy="18.1854" r="7.1424"/>
			<path class="st18" d="M143.8231,13.1349l-10.1009,10.1009 M133.2172,13.1349l10.1009,10.1009"/>
		</g>
		<g id="outof_00000134211889978168107200000004111146158731928984_">
			<circle class="st7" cx="178.4959" cy="118.9147" r="7.1424"/>
			<circle class="st16" cx="178.4959" cy="118.9147" r="7.1424"/>
			<circle class="st17" cx="178.4959" cy="118.9147" r="0.7142"/>
		</g>
		<g id="into_00000080901535948090451630000007731822613239052705_">
			<circle class="st7" cx="178.6439" cy="18.1854" r="7.1424"/>
			<circle class="st16" cx="178.6439" cy="18.1854" r="7.1424"/>
			<path class="st18" d="M184.0514,13.1349l-10.1009,10.1009 M173.4455,13.1349l10.1009,10.1009"/>
		</g>
		<g id="outof_00000083794360140611013380000003214916169280706713_">
			<circle class="st7" cx="219.0899" cy="118.9147" r="7.1424"/>
			<circle class="st16" cx="219.0899" cy="118.9147" r="7.1424"/>
			<circle class="st17" cx="219.0899" cy="118.9147" r="0.7142"/>
		</g>
		<g id="into_00000117646026582075849700000003602660945540523198_">
			<circle class="st7" cx="219.2378" cy="18.1854" r="7.1424"/>
			<circle class="st16" cx="219.2378" cy="18.1854" r="7.1424"/>
			<path class="st18" d="M224.6454,13.1349l-10.1009,10.1009 M214.0394,13.1349l10.1009,10.1009"/>
		</g>
	</g>
	<g class="st14">
		<path class="st19" d="M19.1355,12.1837c3.3359,0,4.9922,1.2246,4.9922,3.6006c0,1.2959-0.6719,2.1367-1.5361,2.7129
			c-0.7441,0.5039-1.6318,0.7197-2.6641,0.9355v0.0244c2.0635,0.624,3.0244,1.8955,3.0244,3.5996
			c0,3.2168-2.7129,4.8008-6.6006,4.8008H9.823v-0.3838c1.3193-0.1924,1.584-0.4326,1.9922-1.9209l2.9033-10.4648
			c0.168-0.5996,0.2646-1.1758,0.2646-1.5361c0-0.6953-0.3359-0.8633-1.8486-0.9834v-0.3848H19.1355z M14.9588,22.7686
			c-0.4795,1.8242-0.8398,3.0488-0.8398,3.3604c0,0.6729,0.5996,1.0088,1.6084,1.0088c2.7598,0,4.6318-1.416,4.6318-4.0811
			c0-1.4873-0.6963-2.5439-1.6084-2.8555c-0.4795-0.168-1.5117-0.2881-3.0234-0.2881L14.9588,22.7686z M16.8787,19.1446
			c3.1445,0,4.8252-1.2715,4.8252-3.6484c0-1.7764-0.8643-2.5918-2.8086-2.5918c-0.9365,0-1.1758,0-1.416,0.8643l-1.5127,5.376
			H16.8787z"/>
		<path class="st19" d="M30.3318,26.3907c0.042,0,0.0693,0.042,0.0693,0.0977c0,0.0703-0.0273,0.21-0.084,0.4062l-2.001,7.2617
			c-0.0977,0.3496-0.252,0.8955-0.252,1.0361c0,0.3213,0.3086,0.4473,0.9238,0.4473h0.2939v0.21h-3.9043v-0.21
			c1.1055-0.084,1.4141-0.2373,1.5674-0.7695l1.9033-6.8281c0.0693-0.2656,0.1113-0.4062,0.1113-0.5039
			c0-0.2656-0.1816-0.4336-0.4893-0.4336h-0.042c-0.252,0-0.5596,0.0137-0.8252,0.0283v-0.21l0.3213-0.0703
			c1.2314-0.2656,1.2871-0.2383,2.3652-0.4619H30.3318z"/>
	</g>
	<g class="st14">
		<g>
			<line class="st20" x1="12.1919" y1="5.9763" x2="23.6517" y2="5.9763"/>
			<g>
				<polygon class="st19" points="20.3382,10.0661 19.6561,9.3337 23.2679,5.9772 19.6561,2.6198 20.3382,1.8874 24.7362,5.9772 
									"/>
			</g>
		</g>
	</g>
	<g class="st14">
		<path class="st19" d="M19.1355,109.8062c3.3359,0,4.9922,1.2246,4.9922,3.6006c0,1.2959-0.6719,2.1367-1.5361,2.7129
			c-0.7441,0.5039-1.6318,0.7197-2.6641,0.9355v0.0244c2.0635,0.624,3.0244,1.8955,3.0244,3.5996
			c0,3.2168-2.7129,4.8008-6.6006,4.8008H9.823v-0.3838c1.3193-0.1924,1.584-0.4326,1.9922-1.9209l2.9033-10.4648
			c0.168-0.5996,0.2646-1.1758,0.2646-1.5361c0-0.6953-0.3359-0.8633-1.8486-0.9834v-0.3848H19.1355z M14.9588,120.3912
			c-0.4795,1.8242-0.8398,3.0488-0.8398,3.3604c0,0.6729,0.5996,1.0088,1.6084,1.0088c2.7598,0,4.6318-1.416,4.6318-4.0811
			c0-1.4873-0.6963-2.5439-1.6084-2.8555c-0.4795-0.168-1.5117-0.2881-3.0234-0.2881L14.9588,120.3912z M16.8787,116.7671
			c3.1445,0,4.8252-1.2715,4.8252-3.6484c0-1.7764-0.8643-2.5918-2.8086-2.5918c-0.9365,0-1.1758,0-1.416,0.8643l-1.5127,5.376
			H16.8787z"/>
		<path class="st19" d="M30.3318,124.0132c0.042,0,0.0693,0.042,0.0693,0.0977c0,0.0703-0.0273,0.21-0.084,0.4062l-2.001,7.2617
			c-0.0977,0.3496-0.252,0.8955-0.252,1.0361c0,0.3213,0.3086,0.4473,0.9238,0.4473h0.2939v0.21h-3.9043v-0.21
			c1.1055-0.084,1.4141-0.2373,1.5674-0.7695l1.9033-6.8281c0.0693-0.2656,0.1113-0.4062,0.1113-0.5039
			c0-0.2656-0.1816-0.4336-0.4893-0.4336h-0.042c-0.252,0-0.5596,0.0137-0.8252,0.0283v-0.21l0.3213-0.0703
			c1.2314-0.2656,1.2871-0.2383,2.3652-0.4619H30.3318z"/>
	</g>
	<g class="st14">
		<g>
			<line class="st20" x1="12.1919" y1="103.5988" x2="23.6517" y2="103.5988"/>
			<g>
				<polygon class="st19" points="20.3382,107.6887 19.6561,106.9562 23.2679,103.5998 19.6561,100.2424 20.3382,99.5099 
					24.7362,103.5998 				"/>
			</g>
		</g>
	</g>
</g>
<g id="I1">
	<g>
		<g>
			<line class="st21" x1="31.362" y1="68.7449" x2="246.5504" y2="68.7449"/>
			<g>
				<polygon class="st19" points="239.9234,76.9246 238.5591,75.4597 245.7828,68.7468 238.5591,62.032 239.9234,60.5672 
					248.7194,68.7468 				"/>
			</g>
		</g>
	</g>
	<g>
		<path class="st19" d="M265.4695,61.2671c-1.3438,0.168-1.5605,0.3838-1.9678,1.8477l-2.8809,10.2969
			c-0.2158,0.7686-0.3594,1.3447-0.3594,1.8242c0,0.6719,0.2871,0.7686,1.6553,0.9365v0.3838h-5.8555v-0.3838
			c1.3193-0.2402,1.6553-0.4561,2.0156-1.8008l2.8799-10.585c0.168-0.5996,0.3125-1.1035,0.3125-1.4873
			c0-0.6006-0.3838-0.9609-1.7285-1.0322v-0.3848h5.9287V61.2671z"/>
		<path class="st19" d="M269.8982,75.0894c0.042,0,0.0693,0.042,0.0693,0.0977c0,0.0703-0.0273,0.21-0.084,0.4062l-2.001,7.2617
			c-0.0977,0.3496-0.252,0.8955-0.252,1.0361c0,0.3213,0.3086,0.4473,0.9238,0.4473h0.2939v0.21h-3.9043v-0.21
			c1.1055-0.084,1.4141-0.2373,1.5674-0.7695l1.9033-6.8281c0.0693-0.2656,0.1113-0.4062,0.1113-0.5039
			c0-0.2656-0.1816-0.4336-0.4893-0.4336h-0.042c-0.252,0-0.5596,0.0137-0.8252,0.0283v-0.21l0.3213-0.0703
			c1.2314-0.2656,1.2871-0.2383,2.3652-0.4619H269.8982z"/>
	</g>
	<g>
		<g>
			<line class="st20" x1="258.4372" y1="56.0863" x2="271.759" y2="56.0863"/>
			<g>
				<polygon class="st19" points="268.4455,60.1762 267.7634,59.4438 271.3752,56.0873 267.7634,52.7299 268.4455,51.9975 
					272.8435,56.0873 				"/>
			</g>
		</g>
	</g>
	<g>
	</g>
</g>
</svg>
