<?xml version="1.0" encoding="utf-8"?>
<!-- Generator: Adobe Illustrator 26.0.1, SVG Export Plug-In . SVG Version: 6.00 Build 0)  -->
<svg version="1.1" xmlns="http://www.w3.org/2000/svg" xmlns:xlink="http://www.w3.org/1999/xlink" x="0px" y="0px"
	 viewBox="0 0 115.73 80.908" enable-background="new 0 0 115.73 80.908" xml:space="preserve">
<g id="Graph_paper_slanted" opacity="0.5">
	<g id="Clipped_grid_00000003068028900943026870000011536296927355263674_">
		<defs>
			<polygon id="SVGID_1_" points="81.006,97.104 -50.577,97.104 31.97,15.239 163.553,15.239 			"/>
		</defs>
		<clipPath id="SVGID_00000127733504412765490770000009582171414873131964_">
			<use xlink:href="#SVGID_1_"  overflow="visible"/>
		</clipPath>
		
			<g id="Grid_00000142891597197125820610000009767860333217090727_" opacity="0.25" clip-path="url(#SVGID_00000127733504412765490770000009582171414873131964_)">
			<g id="Horizontal_1_mm_00000151508609497893311650000018408800186222605470_">
				
					<line fill="none" stroke="#00ABEB" stroke-width="0.15" stroke-miterlimit="10" x1="3.707" y1="-13.324" x2="230.548" y2="-13.324"/>
				
					<line fill="none" stroke="#00ABEB" stroke-width="0.15" stroke-miterlimit="10" x1="5.695" y1="-15.312" x2="232.536" y2="-15.312"/>
				
					<line fill="none" stroke="#00ABEB" stroke-width="0.15" stroke-miterlimit="10" x1="-113.582" y1="103.964" x2="113.259" y2="103.964"/>
				
					<line fill="none" stroke="#00ABEB" stroke-width="0.15" stroke-miterlimit="10" x1="-111.594" y1="101.976" x2="115.247" y2="101.976"/>
				
					<line fill="none" stroke="#00ABEB" stroke-width="0.15" stroke-miterlimit="10" x1="-109.606" y1="99.988" x2="117.235" y2="99.988"/>
				<line fill="none" stroke="#00ABEB" stroke-width="0.15" stroke-miterlimit="10" x1="-107.618" y1="98" x2="119.223" y2="98"/>
				
					<line fill="none" stroke="#00ABEB" stroke-width="0.15" stroke-miterlimit="10" x1="-105.63" y1="96.012" x2="121.211" y2="96.012"/>
				
					<line fill="none" stroke="#00ABEB" stroke-width="0.15" stroke-miterlimit="10" x1="-103.642" y1="94.025" x2="123.199" y2="94.025"/>
				
					<line fill="none" stroke="#00ABEB" stroke-width="0.15" stroke-miterlimit="10" x1="-101.654" y1="92.037" x2="125.187" y2="92.037"/>
				
					<line fill="none" stroke="#00ABEB" stroke-width="0.15" stroke-miterlimit="10" x1="-99.667" y1="90.049" x2="127.174" y2="90.049"/>
				
					<line fill="none" stroke="#00ABEB" stroke-width="0.15" stroke-miterlimit="10" x1="-97.678" y1="88.061" x2="129.163" y2="88.061"/>
				
					<line fill="none" stroke="#00ABEB" stroke-width="0.15" stroke-miterlimit="10" x1="-95.69" y1="86.072" x2="131.151" y2="86.072"/>
				
					<line fill="none" stroke="#00ABEB" stroke-width="0.15" stroke-miterlimit="10" x1="-93.703" y1="84.085" x2="133.138" y2="84.085"/>
				
					<line fill="none" stroke="#00ABEB" stroke-width="0.15" stroke-miterlimit="10" x1="-91.714" y1="82.097" x2="135.126" y2="82.097"/>
				
					<line fill="none" stroke="#00ABEB" stroke-width="0.15" stroke-miterlimit="10" x1="-89.726" y1="80.109" x2="137.115" y2="80.109"/>
				
					<line fill="none" stroke="#00ABEB" stroke-width="0.15" stroke-miterlimit="10" x1="-87.739" y1="78.121" x2="139.102" y2="78.121"/>
				
					<line fill="none" stroke="#00ABEB" stroke-width="0.15" stroke-miterlimit="10" x1="-85.751" y1="76.133" x2="141.09" y2="76.133"/>
				
					<line fill="none" stroke="#00ABEB" stroke-width="0.15" stroke-miterlimit="10" x1="-83.762" y1="74.145" x2="143.078" y2="74.145"/>
				
					<line fill="none" stroke="#00ABEB" stroke-width="0.15" stroke-miterlimit="10" x1="-81.775" y1="72.157" x2="145.066" y2="72.157"/>
				
					<line fill="none" stroke="#00ABEB" stroke-width="0.15" stroke-miterlimit="10" x1="-79.787" y1="70.169" x2="147.054" y2="70.169"/>
				
					<line fill="none" stroke="#00ABEB" stroke-width="0.15" stroke-miterlimit="10" x1="-77.799" y1="68.181" x2="149.042" y2="68.181"/>
				
					<line fill="none" stroke="#00ABEB" stroke-width="0.15" stroke-miterlimit="10" x1="-75.811" y1="66.194" x2="151.03" y2="66.194"/>
				
					<line fill="none" stroke="#00ABEB" stroke-width="0.15" stroke-miterlimit="10" x1="-73.823" y1="64.205" x2="153.018" y2="64.205"/>
				
					<line fill="none" stroke="#00ABEB" stroke-width="0.15" stroke-miterlimit="10" x1="-71.834" y1="62.217" x2="155.006" y2="62.217"/>
				
					<line fill="none" stroke="#00ABEB" stroke-width="0.15" stroke-miterlimit="10" x1="-69.847" y1="60.23" x2="156.994" y2="60.23"/>
				
					<line fill="none" stroke="#00ABEB" stroke-width="0.15" stroke-miterlimit="10" x1="-67.859" y1="58.241" x2="158.982" y2="58.241"/>
				
					<line fill="none" stroke="#00ABEB" stroke-width="0.15" stroke-miterlimit="10" x1="-65.871" y1="56.254" x2="160.97" y2="56.254"/>
				
					<line fill="none" stroke="#00ABEB" stroke-width="0.15" stroke-miterlimit="10" x1="-63.883" y1="54.266" x2="162.958" y2="54.266"/>
				
					<line fill="none" stroke="#00ABEB" stroke-width="0.15" stroke-miterlimit="10" x1="-61.895" y1="52.278" x2="164.946" y2="52.278"/>
				
					<line fill="none" stroke="#00ABEB" stroke-width="0.15" stroke-miterlimit="10" x1="-59.907" y1="50.29" x2="166.933" y2="50.29"/>
				
					<line fill="none" stroke="#00ABEB" stroke-width="0.15" stroke-miterlimit="10" x1="-57.919" y1="48.302" x2="168.921" y2="48.302"/>
				
					<line fill="none" stroke="#00ABEB" stroke-width="0.15" stroke-miterlimit="10" x1="-55.931" y1="46.314" x2="170.91" y2="46.314"/>
				
					<line fill="none" stroke="#00ABEB" stroke-width="0.15" stroke-miterlimit="10" x1="-53.944" y1="44.326" x2="172.897" y2="44.326"/>
				
					<line fill="none" stroke="#00ABEB" stroke-width="0.15" stroke-miterlimit="10" x1="-51.956" y1="42.338" x2="174.885" y2="42.338"/>
				
					<line fill="none" stroke="#00ABEB" stroke-width="0.15" stroke-miterlimit="10" x1="-49.967" y1="40.35" x2="176.873" y2="40.35"/>
				
					<line fill="none" stroke="#00ABEB" stroke-width="0.15" stroke-miterlimit="10" x1="-47.98" y1="38.363" x2="178.861" y2="38.363"/>
				
					<line fill="none" stroke="#00ABEB" stroke-width="0.15" stroke-miterlimit="10" x1="-45.992" y1="36.374" x2="180.849" y2="36.374"/>
				
					<line fill="none" stroke="#00ABEB" stroke-width="0.15" stroke-miterlimit="10" x1="-44.004" y1="34.386" x2="182.837" y2="34.386"/>
				
					<line fill="none" stroke="#00ABEB" stroke-width="0.15" stroke-miterlimit="10" x1="-42.016" y1="32.399" x2="184.825" y2="32.399"/>
				
					<line fill="none" stroke="#00ABEB" stroke-width="0.15" stroke-miterlimit="10" x1="-40.028" y1="30.411" x2="186.813" y2="30.411"/>
				
					<line fill="none" stroke="#00ABEB" stroke-width="0.15" stroke-miterlimit="10" x1="-38.04" y1="28.422" x2="188.801" y2="28.422"/>
				
					<line fill="none" stroke="#00ABEB" stroke-width="0.15" stroke-miterlimit="10" x1="-36.052" y1="26.435" x2="190.789" y2="26.435"/>
				
					<line fill="none" stroke="#00ABEB" stroke-width="0.15" stroke-miterlimit="10" x1="-34.064" y1="24.446" x2="192.777" y2="24.446"/>
				
					<line fill="none" stroke="#00ABEB" stroke-width="0.15" stroke-miterlimit="10" x1="-32.076" y1="22.459" x2="194.765" y2="22.459"/>
				
					<line fill="none" stroke="#00ABEB" stroke-width="0.15" stroke-miterlimit="10" x1="-30.088" y1="20.471" x2="196.753" y2="20.471"/>
				
					<line fill="none" stroke="#00ABEB" stroke-width="0.15" stroke-miterlimit="10" x1="-28.1" y1="18.483" x2="198.741" y2="18.483"/>
				
					<line fill="none" stroke="#00ABEB" stroke-width="0.15" stroke-miterlimit="10" x1="-26.112" y1="16.495" x2="200.728" y2="16.495"/>
				
					<line fill="none" stroke="#00ABEB" stroke-width="0.15" stroke-miterlimit="10" x1="-24.124" y1="14.507" x2="202.717" y2="14.507"/>
				
					<line fill="none" stroke="#00ABEB" stroke-width="0.15" stroke-miterlimit="10" x1="-22.136" y1="12.519" x2="204.705" y2="12.519"/>
				
					<line fill="none" stroke="#00ABEB" stroke-width="0.15" stroke-miterlimit="10" x1="-20.149" y1="10.531" x2="206.692" y2="10.531"/>
				
					<line fill="none" stroke="#00ABEB" stroke-width="0.15" stroke-miterlimit="10" x1="-18.16" y1="8.543" x2="208.68" y2="8.543"/>
				
					<line fill="none" stroke="#00ABEB" stroke-width="0.15" stroke-miterlimit="10" x1="-16.172" y1="6.555" x2="210.669" y2="6.555"/>
				
					<line fill="none" stroke="#00ABEB" stroke-width="0.15" stroke-miterlimit="10" x1="-14.185" y1="4.568" x2="212.656" y2="4.568"/>
				
					<line fill="none" stroke="#00ABEB" stroke-width="0.15" stroke-miterlimit="10" x1="-12.197" y1="2.58" x2="214.644" y2="2.58"/>
				
					<line fill="none" stroke="#00ABEB" stroke-width="0.15" stroke-miterlimit="10" x1="-10.208" y1="0.591" x2="216.632" y2="0.591"/>
				
					<line fill="none" stroke="#00ABEB" stroke-width="0.15" stroke-miterlimit="10" x1="-8.221" y1="-1.396" x2="218.62" y2="-1.396"/>
				
					<line fill="none" stroke="#00ABEB" stroke-width="0.15" stroke-miterlimit="10" x1="-6.233" y1="-3.385" x2="220.608" y2="-3.385"/>
				
					<line fill="none" stroke="#00ABEB" stroke-width="0.15" stroke-miterlimit="10" x1="-4.245" y1="-5.372" x2="222.596" y2="-5.372"/>
				
					<line fill="none" stroke="#00ABEB" stroke-width="0.15" stroke-miterlimit="10" x1="-2.257" y1="-7.36" x2="224.584" y2="-7.36"/>
				
					<line fill="none" stroke="#00ABEB" stroke-width="0.15" stroke-miterlimit="10" x1="-0.269" y1="-9.348" x2="226.572" y2="-9.348"/>
				
					<line fill="none" stroke="#00ABEB" stroke-width="0.15" stroke-miterlimit="10" x1="1.719" y1="-11.336" x2="228.56" y2="-11.336"/>
			</g>
			<g id="Vertical_1_mm_00000181073523592228201180000012361058669048395659_">
				<g>
					
						<line fill="none" stroke="#00ABEB" stroke-width="0.15" stroke-miterlimit="10" x1="-113.497" y1="103.954" x2="5.823" y2="-15.365"/>
				</g>
				
					<line fill="none" stroke="#00ABEB" stroke-width="0.15" stroke-miterlimit="10" x1="-110.663" y1="103.954" x2="8.657" y2="-15.365"/>
				
					<line fill="none" stroke="#00ABEB" stroke-width="0.15" stroke-miterlimit="10" x1="-107.828" y1="103.954" x2="11.492" y2="-15.365"/>
				
					<line fill="none" stroke="#00ABEB" stroke-width="0.15" stroke-miterlimit="10" x1="-104.993" y1="103.954" x2="14.327" y2="-15.365"/>
				
					<line fill="none" stroke="#00ABEB" stroke-width="0.15" stroke-miterlimit="10" x1="-102.159" y1="103.954" x2="17.161" y2="-15.365"/>
				
					<line fill="none" stroke="#00ABEB" stroke-width="0.15" stroke-miterlimit="10" x1="-99.324" y1="103.954" x2="19.996" y2="-15.365"/>
				
					<line fill="none" stroke="#00ABEB" stroke-width="0.15" stroke-miterlimit="10" x1="-96.489" y1="103.954" x2="22.831" y2="-15.365"/>
				
					<line fill="none" stroke="#00ABEB" stroke-width="0.15" stroke-miterlimit="10" x1="-93.655" y1="103.954" x2="25.665" y2="-15.365"/>
				
					<line fill="none" stroke="#00ABEB" stroke-width="0.15" stroke-miterlimit="10" x1="-90.82" y1="103.954" x2="28.5" y2="-15.365"/>
				
					<line fill="none" stroke="#00ABEB" stroke-width="0.15" stroke-miterlimit="10" x1="-87.986" y1="103.954" x2="31.334" y2="-15.365"/>
				
					<line fill="none" stroke="#00ABEB" stroke-width="0.15" stroke-miterlimit="10" x1="-85.151" y1="103.954" x2="34.169" y2="-15.365"/>
				
					<line fill="none" stroke="#00ABEB" stroke-width="0.15" stroke-miterlimit="10" x1="-82.316" y1="103.954" x2="37.004" y2="-15.365"/>
				
					<line fill="none" stroke="#00ABEB" stroke-width="0.15" stroke-miterlimit="10" x1="-79.482" y1="103.954" x2="39.838" y2="-15.365"/>
				
					<line fill="none" stroke="#00ABEB" stroke-width="0.15" stroke-miterlimit="10" x1="-76.647" y1="103.954" x2="42.673" y2="-15.365"/>
				
					<line fill="none" stroke="#00ABEB" stroke-width="0.15" stroke-miterlimit="10" x1="-73.812" y1="103.954" x2="45.508" y2="-15.365"/>
				
					<line fill="none" stroke="#00ABEB" stroke-width="0.15" stroke-miterlimit="10" x1="-70.978" y1="103.954" x2="48.342" y2="-15.365"/>
				
					<line fill="none" stroke="#00ABEB" stroke-width="0.15" stroke-miterlimit="10" x1="-68.143" y1="103.954" x2="51.177" y2="-15.365"/>
				
					<line fill="none" stroke="#00ABEB" stroke-width="0.15" stroke-miterlimit="10" x1="-65.308" y1="103.954" x2="54.012" y2="-15.365"/>
				
					<line fill="none" stroke="#00ABEB" stroke-width="0.15" stroke-miterlimit="10" x1="-62.474" y1="103.954" x2="56.846" y2="-15.365"/>
				
					<line fill="none" stroke="#00ABEB" stroke-width="0.15" stroke-miterlimit="10" x1="-59.639" y1="103.954" x2="59.681" y2="-15.365"/>
				
					<line fill="none" stroke="#00ABEB" stroke-width="0.15" stroke-miterlimit="10" x1="-56.804" y1="103.954" x2="62.516" y2="-15.365"/>
				
					<line fill="none" stroke="#00ABEB" stroke-width="0.15" stroke-miterlimit="10" x1="-53.97" y1="103.954" x2="65.35" y2="-15.365"/>
				
					<line fill="none" stroke="#00ABEB" stroke-width="0.15" stroke-miterlimit="10" x1="-51.135" y1="103.954" x2="68.185" y2="-15.365"/>
				
					<line fill="none" stroke="#00ABEB" stroke-width="0.15" stroke-miterlimit="10" x1="-48.3" y1="103.954" x2="71.02" y2="-15.365"/>
				
					<line fill="none" stroke="#00ABEB" stroke-width="0.15" stroke-miterlimit="10" x1="-45.466" y1="103.954" x2="73.854" y2="-15.365"/>
				
					<line fill="none" stroke="#00ABEB" stroke-width="0.15" stroke-miterlimit="10" x1="-42.631" y1="103.954" x2="76.689" y2="-15.365"/>
				
					<line fill="none" stroke="#00ABEB" stroke-width="0.15" stroke-miterlimit="10" x1="-39.797" y1="103.954" x2="79.523" y2="-15.365"/>
				
					<line fill="none" stroke="#00ABEB" stroke-width="0.15" stroke-miterlimit="10" x1="-36.962" y1="103.954" x2="82.358" y2="-15.365"/>
				
					<line fill="none" stroke="#00ABEB" stroke-width="0.15" stroke-miterlimit="10" x1="-34.127" y1="103.954" x2="85.193" y2="-15.365"/>
				
					<line fill="none" stroke="#00ABEB" stroke-width="0.15" stroke-miterlimit="10" x1="-31.293" y1="103.954" x2="88.027" y2="-15.365"/>
				
					<line fill="none" stroke="#00ABEB" stroke-width="0.15" stroke-miterlimit="10" x1="-28.458" y1="103.954" x2="90.862" y2="-15.365"/>
				
					<line fill="none" stroke="#00ABEB" stroke-width="0.15" stroke-miterlimit="10" x1="-25.623" y1="103.954" x2="93.697" y2="-15.365"/>
				
					<line fill="none" stroke="#00ABEB" stroke-width="0.15" stroke-miterlimit="10" x1="-22.789" y1="103.954" x2="96.531" y2="-15.365"/>
				
					<line fill="none" stroke="#00ABEB" stroke-width="0.15" stroke-miterlimit="10" x1="-19.954" y1="103.954" x2="99.366" y2="-15.365"/>
				
					<line fill="none" stroke="#00ABEB" stroke-width="0.15" stroke-miterlimit="10" x1="-17.119" y1="103.954" x2="102.201" y2="-15.365"/>
				
					<line fill="none" stroke="#00ABEB" stroke-width="0.15" stroke-miterlimit="10" x1="-14.285" y1="103.954" x2="105.035" y2="-15.365"/>
				
					<line fill="none" stroke="#00ABEB" stroke-width="0.15" stroke-miterlimit="10" x1="-11.45" y1="103.954" x2="107.87" y2="-15.365"/>
				
					<line fill="none" stroke="#00ABEB" stroke-width="0.15" stroke-miterlimit="10" x1="-8.615" y1="103.954" x2="110.705" y2="-15.365"/>
				
					<line fill="none" stroke="#00ABEB" stroke-width="0.15" stroke-miterlimit="10" x1="-5.781" y1="103.954" x2="113.539" y2="-15.365"/>
				
					<line fill="none" stroke="#00ABEB" stroke-width="0.15" stroke-miterlimit="10" x1="-2.946" y1="103.954" x2="116.374" y2="-15.365"/>
				
					<line fill="none" stroke="#00ABEB" stroke-width="0.15" stroke-miterlimit="10" x1="-0.112" y1="103.954" x2="119.208" y2="-15.365"/>
				
					<line fill="none" stroke="#00ABEB" stroke-width="0.15" stroke-miterlimit="10" x1="2.723" y1="103.954" x2="122.043" y2="-15.365"/>
				
					<line fill="none" stroke="#00ABEB" stroke-width="0.15" stroke-miterlimit="10" x1="5.558" y1="103.954" x2="124.878" y2="-15.365"/>
				
					<line fill="none" stroke="#00ABEB" stroke-width="0.15" stroke-miterlimit="10" x1="8.392" y1="103.954" x2="127.712" y2="-15.365"/>
				
					<line fill="none" stroke="#00ABEB" stroke-width="0.15" stroke-miterlimit="10" x1="11.227" y1="103.954" x2="130.547" y2="-15.365"/>
				
					<line fill="none" stroke="#00ABEB" stroke-width="0.15" stroke-miterlimit="10" x1="14.062" y1="103.954" x2="133.382" y2="-15.365"/>
				
					<line fill="none" stroke="#00ABEB" stroke-width="0.15" stroke-miterlimit="10" x1="16.896" y1="103.954" x2="136.216" y2="-15.365"/>
				
					<line fill="none" stroke="#00ABEB" stroke-width="0.15" stroke-miterlimit="10" x1="19.731" y1="103.954" x2="139.051" y2="-15.365"/>
				
					<line fill="none" stroke="#00ABEB" stroke-width="0.15" stroke-miterlimit="10" x1="22.566" y1="103.954" x2="141.886" y2="-15.365"/>
				
					<line fill="none" stroke="#00ABEB" stroke-width="0.15" stroke-miterlimit="10" x1="25.4" y1="103.954" x2="144.72" y2="-15.365"/>
				
					<line fill="none" stroke="#00ABEB" stroke-width="0.15" stroke-miterlimit="10" x1="28.235" y1="103.954" x2="147.555" y2="-15.365"/>
				
					<line fill="none" stroke="#00ABEB" stroke-width="0.15" stroke-miterlimit="10" x1="31.07" y1="103.954" x2="150.39" y2="-15.365"/>
				
					<line fill="none" stroke="#00ABEB" stroke-width="0.15" stroke-miterlimit="10" x1="33.904" y1="103.954" x2="153.224" y2="-15.365"/>
				
					<line fill="none" stroke="#00ABEB" stroke-width="0.15" stroke-miterlimit="10" x1="36.739" y1="103.954" x2="156.059" y2="-15.365"/>
				
					<line fill="none" stroke="#00ABEB" stroke-width="0.15" stroke-miterlimit="10" x1="39.574" y1="103.954" x2="158.894" y2="-15.365"/>
				
					<line fill="none" stroke="#00ABEB" stroke-width="0.15" stroke-miterlimit="10" x1="42.408" y1="103.954" x2="161.728" y2="-15.365"/>
				
					<line fill="none" stroke="#00ABEB" stroke-width="0.15" stroke-miterlimit="10" x1="45.243" y1="103.954" x2="164.563" y2="-15.365"/>
				
					<line fill="none" stroke="#00ABEB" stroke-width="0.15" stroke-miterlimit="10" x1="48.077" y1="103.954" x2="167.397" y2="-15.365"/>
				
					<line fill="none" stroke="#00ABEB" stroke-width="0.15" stroke-miterlimit="10" x1="50.912" y1="103.954" x2="170.232" y2="-15.365"/>
				
					<line fill="none" stroke="#00ABEB" stroke-width="0.15" stroke-miterlimit="10" x1="53.747" y1="103.954" x2="173.067" y2="-15.365"/>
				
					<line fill="none" stroke="#00ABEB" stroke-width="0.15" stroke-miterlimit="10" x1="56.581" y1="103.954" x2="175.901" y2="-15.365"/>
				
					<line fill="none" stroke="#00ABEB" stroke-width="0.15" stroke-miterlimit="10" x1="59.416" y1="103.954" x2="178.736" y2="-15.365"/>
				
					<line fill="none" stroke="#00ABEB" stroke-width="0.15" stroke-miterlimit="10" x1="62.251" y1="103.954" x2="181.571" y2="-15.365"/>
				
					<line fill="none" stroke="#00ABEB" stroke-width="0.15" stroke-miterlimit="10" x1="65.085" y1="103.954" x2="184.405" y2="-15.365"/>
				
					<line fill="none" stroke="#00ABEB" stroke-width="0.15" stroke-miterlimit="10" x1="67.92" y1="103.954" x2="187.24" y2="-15.365"/>
				
					<line fill="none" stroke="#00ABEB" stroke-width="0.15" stroke-miterlimit="10" x1="70.755" y1="103.954" x2="190.075" y2="-15.365"/>
				
					<line fill="none" stroke="#00ABEB" stroke-width="0.15" stroke-miterlimit="10" x1="73.589" y1="103.954" x2="192.909" y2="-15.365"/>
				
					<line fill="none" stroke="#00ABEB" stroke-width="0.15" stroke-miterlimit="10" x1="76.424" y1="103.954" x2="195.744" y2="-15.365"/>
				
					<line fill="none" stroke="#00ABEB" stroke-width="0.15" stroke-miterlimit="10" x1="79.259" y1="103.954" x2="198.579" y2="-15.365"/>
				
					<line fill="none" stroke="#00ABEB" stroke-width="0.15" stroke-miterlimit="10" x1="82.093" y1="103.954" x2="201.413" y2="-15.365"/>
				
					<line fill="none" stroke="#00ABEB" stroke-width="0.15" stroke-miterlimit="10" x1="84.928" y1="103.954" x2="204.248" y2="-15.365"/>
				
					<line fill="none" stroke="#00ABEB" stroke-width="0.15" stroke-miterlimit="10" x1="87.763" y1="103.954" x2="207.083" y2="-15.365"/>
				
					<line fill="none" stroke="#00ABEB" stroke-width="0.15" stroke-miterlimit="10" x1="90.597" y1="103.954" x2="209.917" y2="-15.365"/>
				
					<line fill="none" stroke="#00ABEB" stroke-width="0.15" stroke-miterlimit="10" x1="93.432" y1="103.954" x2="212.752" y2="-15.365"/>
				
					<line fill="none" stroke="#00ABEB" stroke-width="0.15" stroke-miterlimit="10" x1="96.266" y1="103.954" x2="215.586" y2="-15.365"/>
				
					<line fill="none" stroke="#00ABEB" stroke-width="0.15" stroke-miterlimit="10" x1="99.101" y1="103.954" x2="218.421" y2="-15.365"/>
				
					<line fill="none" stroke="#00ABEB" stroke-width="0.15" stroke-miterlimit="10" x1="101.936" y1="103.954" x2="221.256" y2="-15.365"/>
				
					<line fill="none" stroke="#00ABEB" stroke-width="0.15" stroke-miterlimit="10" x1="104.77" y1="103.954" x2="224.09" y2="-15.365"/>
				
					<line fill="none" stroke="#00ABEB" stroke-width="0.15" stroke-miterlimit="10" x1="107.605" y1="103.954" x2="226.925" y2="-15.365"/>
				
					<line fill="none" stroke="#00ABEB" stroke-width="0.15" stroke-miterlimit="10" x1="110.44" y1="103.954" x2="229.76" y2="-15.365"/>
				
					<line fill="none" stroke="#00ABEB" stroke-width="0.15" stroke-miterlimit="10" x1="113.274" y1="103.954" x2="232.594" y2="-15.365"/>
			</g>
			<g id="Horizontal_5_mm_00000011735556503592991880000008134099091165005186_">
				
					<line fill="none" stroke="#00ABEB" stroke-width="0.3" stroke-miterlimit="10" x1="-113.857" y1="103.964" x2="113.259" y2="103.964"/>
				
					<line fill="none" stroke="#00ABEB" stroke-width="0.3" stroke-miterlimit="10" x1="-103.917" y1="94.025" x2="123.199" y2="94.025"/>
				
					<line fill="none" stroke="#00ABEB" stroke-width="0.3" stroke-miterlimit="10" x1="-93.977" y1="84.085" x2="133.138" y2="84.085"/>
				
					<line fill="none" stroke="#00ABEB" stroke-width="0.3" stroke-miterlimit="10" x1="-84.037" y1="74.145" x2="143.078" y2="74.145"/>
				
					<line fill="none" stroke="#00ABEB" stroke-width="0.3" stroke-miterlimit="10" x1="-74.098" y1="64.205" x2="153.018" y2="64.205"/>
				
					<line fill="none" stroke="#00ABEB" stroke-width="0.3" stroke-miterlimit="10" x1="-64.158" y1="54.266" x2="162.958" y2="54.266"/>
				
					<line fill="none" stroke="#00ABEB" stroke-width="0.3" stroke-miterlimit="10" x1="-54.219" y1="44.326" x2="172.897" y2="44.326"/>
				
					<line fill="none" stroke="#00ABEB" stroke-width="0.3" stroke-miterlimit="10" x1="-44.278" y1="34.386" x2="182.837" y2="34.386"/>
				
					<line fill="none" stroke="#00ABEB" stroke-width="0.3" stroke-miterlimit="10" x1="-34.339" y1="24.446" x2="192.777" y2="24.446"/>
				
					<line fill="none" stroke="#00ABEB" stroke-width="0.3" stroke-miterlimit="10" x1="-24.399" y1="14.507" x2="202.717" y2="14.507"/>
				
					<line fill="none" stroke="#00ABEB" stroke-width="0.3" stroke-miterlimit="10" x1="-14.46" y1="4.568" x2="212.656" y2="4.568"/>
			</g>
			<g id="Vertical_5_mm_00000064346364918789686960000003233481195482251947_">
				
					<line fill="none" stroke="#00ABEB" stroke-width="0.3" stroke-miterlimit="10" x1="-113.497" y1="103.954" x2="6.016" y2="-15.558"/>
				
					<line fill="none" stroke="#00ABEB" stroke-width="0.3" stroke-miterlimit="10" x1="-99.324" y1="103.954" x2="20.189" y2="-15.558"/>
				
					<line fill="none" stroke="#00ABEB" stroke-width="0.3" stroke-miterlimit="10" x1="-85.151" y1="103.954" x2="34.362" y2="-15.558"/>
				
					<line fill="none" stroke="#00ABEB" stroke-width="0.3" stroke-miterlimit="10" x1="-70.978" y1="103.954" x2="48.535" y2="-15.558"/>
				
					<line fill="none" stroke="#00ABEB" stroke-width="0.3" stroke-miterlimit="10" x1="-56.804" y1="103.954" x2="62.709" y2="-15.558"/>
				
					<line fill="none" stroke="#00ABEB" stroke-width="0.3" stroke-miterlimit="10" x1="-42.631" y1="103.954" x2="76.882" y2="-15.558"/>
				
					<line fill="none" stroke="#00ABEB" stroke-width="0.3" stroke-miterlimit="10" x1="-28.458" y1="103.954" x2="91.055" y2="-15.558"/>
				
					<line fill="none" stroke="#00ABEB" stroke-width="0.3" stroke-miterlimit="10" x1="-14.285" y1="103.954" x2="105.228" y2="-15.558"/>
				
					<line fill="none" stroke="#00ABEB" stroke-width="0.3" stroke-miterlimit="10" x1="-0.112" y1="103.954" x2="119.401" y2="-15.558"/>
				
					<line fill="none" stroke="#00ABEB" stroke-width="0.3" stroke-miterlimit="10" x1="14.062" y1="103.954" x2="133.575" y2="-15.558"/>
				
					<line fill="none" stroke="#00ABEB" stroke-width="0.3" stroke-miterlimit="10" x1="28.235" y1="103.954" x2="147.748" y2="-15.558"/>
				
					<line fill="none" stroke="#00ABEB" stroke-width="0.3" stroke-miterlimit="10" x1="42.408" y1="103.954" x2="161.921" y2="-15.558"/>
				
					<line fill="none" stroke="#00ABEB" stroke-width="0.3" stroke-miterlimit="10" x1="56.581" y1="103.954" x2="176.094" y2="-15.558"/>
				
					<line fill="none" stroke="#00ABEB" stroke-width="0.3" stroke-miterlimit="10" x1="70.755" y1="103.954" x2="190.268" y2="-15.558"/>
				
					<line fill="none" stroke="#00ABEB" stroke-width="0.3" stroke-miterlimit="10" x1="84.928" y1="103.954" x2="204.441" y2="-15.558"/>
				
					<line fill="none" stroke="#00ABEB" stroke-width="0.3" stroke-miterlimit="10" x1="99.101" y1="103.954" x2="218.614" y2="-15.558"/>
				
					<line fill="none" stroke="#00ABEB" stroke-width="0.3" stroke-miterlimit="10" x1="113.274" y1="103.954" x2="232.787" y2="-15.558"/>
			</g>
			<g id="Horizontal_10_mm_00000163045836177147705350000008480455355013810362_">
				
					<line id="_x31_9_00000057116790517712807720000015084113881736219806_" fill="none" stroke="#00ABEB" stroke-width="0.7" stroke-miterlimit="10" x1="-113.857" y1="103.964" x2="113.259" y2="103.964"/>
				
					<line id="_x32_0_00000024685878617286333290000013167547815532084100_" fill="none" stroke="#00ABEB" stroke-width="0.7" stroke-miterlimit="10" x1="-93.977" y1="84.085" x2="133.138" y2="84.085"/>
				
					<line id="_x32_1_00000138564813020868535020000012777939180148238773_" fill="none" stroke="#00ABEB" stroke-width="0.7" stroke-miterlimit="10" x1="-74.098" y1="64.205" x2="153.018" y2="64.205"/>
				
					<line id="_x32_2_00000052807586205252870140000014502512662559454639_" fill="none" stroke="#00ABEB" stroke-width="0.7" stroke-miterlimit="10" x1="-54.219" y1="44.326" x2="172.897" y2="44.326"/>
				
					<line id="_x32_3_00000051376893246677475670000009295515732899575694_" fill="none" stroke="#00ABEB" stroke-width="0.7" stroke-miterlimit="10" x1="-34.339" y1="24.446" x2="192.777" y2="24.446"/>
				
					<line id="_x32_4_00000099657911357833521510000007853591198542098087_" fill="none" stroke="#00ABEB" stroke-width="0.7" stroke-miterlimit="10" x1="-14.46" y1="4.568" x2="212.656" y2="4.568"/>
				
					<line id="_x32_5_00000155127691660191171140000008292164438978366870_" fill="none" stroke="#00ABEB" stroke-width="0.7" stroke-miterlimit="10" x1="5.42" y1="-15.312" x2="232.536" y2="-15.312"/>
			</g>
			<g id="Vertical_10_mm_00000134969164297783457920000010833503864539426239_">
				
					<line id="_x30__00000151539528360119995570000005083818057555393183_" fill="none" stroke="#00ABEB" stroke-width="0.7" stroke-miterlimit="10" x1="-113.497" y1="103.954" x2="6.016" y2="-15.558"/>
				
					<line id="_x31__00000021823889366233599640000011971139016478256513_" fill="none" stroke="#00ABEB" stroke-width="0.7" stroke-miterlimit="10" x1="-85.151" y1="103.954" x2="34.362" y2="-15.558"/>
				
					<line id="_x32__00000071550223824624162640000006130814236846722696_" fill="none" stroke="#00ABEB" stroke-width="0.7" stroke-miterlimit="10" x1="-56.804" y1="103.954" x2="62.709" y2="-15.558"/>
				
					<line id="_x33__00000042015976804734918030000005045165563697445304_" fill="none" stroke="#00ABEB" stroke-width="0.7" stroke-miterlimit="10" x1="-28.458" y1="103.954" x2="91.055" y2="-15.558"/>
				
					<line id="_x34__00000081637789328126233800000002486991317463304126_" fill="none" stroke="#00ABEB" stroke-width="0.7" stroke-miterlimit="10" x1="-0.112" y1="103.954" x2="119.401" y2="-15.558"/>
				
					<line id="_x35__00000051353690731882489090000004794744233340785543_" fill="none" stroke="#00ABEB" stroke-width="0.7" stroke-miterlimit="10" x1="28.235" y1="103.954" x2="147.748" y2="-15.558"/>
				
					<line id="_x36__00000011745311307505536660000010485558803267122343_" fill="none" stroke="#00ABEB" stroke-width="0.7" stroke-miterlimit="10" x1="56.581" y1="103.954" x2="176.094" y2="-15.558"/>
				
					<line id="_x37__00000045602144989735358580000003937589459941247142_" fill="none" stroke="#00ABEB" stroke-width="0.7" stroke-miterlimit="10" x1="84.928" y1="103.954" x2="204.441" y2="-15.558"/>
				
					<line id="_x38__00000047029857857898873560000014194396358708286345_" fill="none" stroke="#00ABEB" stroke-width="0.7" stroke-miterlimit="10" x1="113.274" y1="103.954" x2="232.787" y2="-15.558"/>
			</g>
		</g>
	</g>
</g>
<g id="base">
	<polygon opacity="0.05" fill="#00A300" points="71.086,24.446 87.864,24.446 107.899,24.446 108.136,24.446 68.377,64.205 
		67.984,64.205 11.291,64.205 51.051,24.446 	"/>
	
		<linearGradient id="SVGID_00000160876535591407694980000012866318921368352385_" gradientUnits="userSpaceOnUse" x1="10.5416" y1="44.326" x2="51.8009" y2="44.326">
		<stop  offset="0" style="stop-color:#B2B2FF"/>
		<stop  offset="1" style="stop-color:#4C4CFF"/>
	</linearGradient>
	
		<line fill="none" stroke="url(#SVGID_00000160876535591407694980000012866318921368352385_)" stroke-width="1.5" stroke-linecap="round" stroke-linejoin="round" stroke-miterlimit="10" x1="11.292" y1="64.205" x2="51.051" y2="24.446"/>
	
		<linearGradient id="SVGID_00000116195055364789967680000018039316970343837593_" gradientUnits="userSpaceOnUse" x1="67.6269" y1="44.326" x2="108.8861" y2="44.326">
		<stop  offset="0" style="stop-color:#B2B2FF"/>
		<stop  offset="1" style="stop-color:#4C4CFF"/>
	</linearGradient>
	
		<line fill="none" stroke="url(#SVGID_00000116195055364789967680000018039316970343837593_)" stroke-width="1.5" stroke-linecap="round" stroke-linejoin="round" stroke-miterlimit="10" x1="108.136" y1="24.446" x2="68.377" y2="64.205"/>
	
		<line fill="none" stroke="#4C4CFF" stroke-width="1.5" stroke-linecap="round" stroke-linejoin="round" stroke-miterlimit="10" x1="51.051" y1="24.446" x2="108.136" y2="24.446"/>
	
		<line fill="none" stroke="#B2B2FF" stroke-width="1.5" stroke-linecap="round" stroke-linejoin="round" stroke-miterlimit="10" x1="68.377" y1="64.205" x2="11.292" y2="64.205"/>
	
		<line display="none" fill="none" stroke="#000000" stroke-linecap="round" stroke-linejoin="round" stroke-miterlimit="10" x1="71.086" y1="24.446" x2="83.014" y2="12.519"/>
	
		<polygon display="none" fill="none" stroke="#000000" stroke-linecap="round" stroke-linejoin="round" stroke-miterlimit="10" points="
		71.086,24.446 87.864,24.446 107.899,24.446 108.136,24.446 68.377,64.205 67.984,64.205 11.291,64.205 51.051,24.446 	"/>
	
		<line display="none" fill="none" stroke="#000000" stroke-linecap="round" stroke-linejoin="round" stroke-miterlimit="10" x1="99.791" y1="12.519" x2="87.864" y2="24.446"/>
	<g display="none">
		<g display="inline">
			
				<line fill="none" stroke="#000000" stroke-width="0.7" stroke-linecap="round" stroke-linejoin="round" x1="79.954" y1="15.592" x2="75.661" y2="19.885"/>
			<g>
				<polygon points="75.276,16.221 75.977,16.246 75.85,19.695 79.3,19.569 79.325,20.269 75.123,20.422 				"/>
			</g>
		</g>
	</g>
	<g display="none">
		<g display="inline">
			
				<line fill="none" stroke="#000000" stroke-width="0.7" stroke-linecap="round" stroke-linejoin="round" x1="96.243" y1="16.129" x2="91.95" y2="20.422"/>
			<g>
				<polygon points="92.579,15.745 92.604,16.445 96.053,16.318 95.927,19.768 96.627,19.793 96.78,15.592 				"/>
			</g>
		</g>
	</g>
	<g display="none">
		<g display="inline">
			
				<line fill="none" stroke="#0000FF" stroke-width="0.5" stroke-linecap="round" stroke-linejoin="round" x1="115.864" y1="24.341" x2="135.033" y2="24.341"/>
			<g>
				<polygon fill="#0000FF" points="117.52,26.386 117.861,26.02 116.056,24.342 117.861,22.663 117.52,22.297 115.321,24.342 				
					"/>
			</g>
		</g>
	</g>
	<g display="none">
		<g display="inline">
			
				<line fill="none" stroke="#0000FF" stroke-width="0.5" stroke-linecap="round" stroke-linejoin="round" x1="95.868" y1="44.337" x2="115.037" y2="44.337"/>
			<g>
				<polygon fill="#0000FF" points="97.524,46.382 97.865,46.016 96.06,44.338 97.865,42.659 97.524,42.293 95.325,44.338 				"/>
			</g>
		</g>
	</g>
	<g display="none">
		<g display="inline">
			
				<line fill="none" stroke="#0000FF" stroke-width="0.5" stroke-linecap="round" stroke-linejoin="round" x1="75.99" y1="64.215" x2="95.16" y2="64.215"/>
			<g>
				<polygon fill="#0000FF" points="77.647,66.26 77.988,65.893 76.182,64.215 77.988,62.536 77.647,62.17 75.448,64.215 				"/>
			</g>
		</g>
	</g>
	<g display="none">
		<g display="inline">
			
				<line fill="none" stroke="#0000FF" stroke-width="0.5" stroke-linecap="round" stroke-linejoin="round" x1="86.095" y1="54.11" x2="105.264" y2="54.11"/>
			<g>
				<polygon fill="#0000FF" points="87.751,56.155 88.092,55.789 86.287,54.111 88.092,52.432 87.751,52.066 85.552,54.111 				"/>
			</g>
		</g>
	</g>
	<g display="none">
		<g display="inline">
			
				<line fill="none" stroke="#0000FF" stroke-width="0.5" stroke-linecap="round" stroke-linejoin="round" x1="105.835" y1="34.37" x2="125.005" y2="34.37"/>
			<g>
				<polygon fill="#0000FF" points="107.492,36.415 107.833,36.048 106.027,34.37 107.833,32.691 107.492,32.325 105.293,34.37 				
					"/>
			</g>
		</g>
	</g>
	<g>
		<path fill="#FF0000" d="M89.442,5.749c1.389,0,2.079,0.51,2.079,1.499c0,0.54-0.28,0.89-0.64,1.129
			c-0.31,0.21-0.68,0.3-1.109,0.39v0.01c0.859,0.26,1.259,0.79,1.259,1.499c0,1.339-1.129,1.999-2.749,1.999h-2.719v-0.16
			c0.55-0.08,0.66-0.18,0.83-0.799l1.209-4.357c0.07-0.25,0.11-0.49,0.11-0.64c0-0.29-0.14-0.36-0.77-0.41v-0.16H89.442z
			 M87.704,10.157c-0.2,0.759-0.35,1.269-0.35,1.399c0,0.28,0.25,0.42,0.67,0.42c1.149,0,1.929-0.59,1.929-1.699
			c0-0.62-0.29-1.059-0.669-1.189c-0.2-0.07-0.63-0.12-1.259-0.12L87.704,10.157z M88.503,8.648c1.309,0,2.009-0.53,2.009-1.519
			c0-0.74-0.36-1.08-1.169-1.08c-0.39,0-0.49,0-0.589,0.36l-0.63,2.239H88.503z"/>
	</g>
	<g>
		<g>
			
				<line fill="none" stroke="#FF0000" stroke-width="0.4" stroke-linecap="round" stroke-linejoin="round" x1="86.655" y1="3.552" x2="91.358" y2="3.552"/>
			<g>
				<polygon fill="#FF0000" points="90.032,5.188 89.759,4.895 91.204,3.553 89.759,2.21 90.032,1.917 91.791,3.553 				"/>
			</g>
		</g>
	</g>
	<g display="none">
		<g display="inline">
			<line fill="none" stroke="#00A300" stroke-width="0.1" stroke-miterlimit="10" x1="31.81" y1="44.232" x2="33.31" y2="44.232"/>
			
				<line fill="none" stroke="#00A300" stroke-width="0.1" stroke-miterlimit="10" stroke-dasharray="3.1312,3.1312" x1="36.441" y1="44.232" x2="84.974" y2="44.232"/>
			<line fill="none" stroke="#00A300" stroke-width="0.1" stroke-miterlimit="10" x1="86.54" y1="44.232" x2="88.04" y2="44.232"/>
		</g>
	</g>
	<g display="none">
		<g display="inline">
			
				<line fill="none" stroke="#FF0000" stroke-width="0.5" stroke-linecap="round" stroke-linejoin="round" x1="87.863" y1="44.326" x2="87.863" y2="28.205"/>
			<g>
				<polygon fill="#FF0000" points="89.908,29.862 89.542,30.203 87.864,28.397 86.185,30.203 85.819,29.862 87.864,27.663 				"/>
			</g>
		</g>
	</g>
	<g display="none">
		<path display="inline" fill="#FF0000" d="M83.578,32.89l-0.21-0.02c0.03-0.22,0.03-0.27,0.03-0.33c0-0.73-0.23-0.86-1.989-0.86
			c-0.46,0-0.61,0.06-0.68,0.32l-0.64,2.269c1.679-0.02,1.709-0.04,2.159-0.939l0.18,0.05l-0.759,2.349l-0.17-0.05
			c0.06-0.31,0.08-0.45,0.08-0.61c0-0.399-0.28-0.439-0.75-0.439c-0.22,0-0.459-0.01-0.829-0.03l-0.59,2.129
			c-0.07,0.25-0.14,0.45-0.14,0.6c0,0.24,0.18,0.35,0.77,0.39v0.16h-2.508v-0.16c0.58-0.04,0.68-0.26,0.83-0.779l1.229-4.417
			c0.07-0.25,0.1-0.45,0.1-0.61c0-0.28-0.1-0.34-0.76-0.4v-0.16h4.967L83.578,32.89z"/>
	</g>
	<g display="none">
		<g display="inline">
			
				<line fill="none" stroke="#FF0000" stroke-width="0.4" stroke-linecap="round" stroke-linejoin="round" x1="79.18" y1="29.153" x2="83.882" y2="29.153"/>
			<g>
				<polygon fill="#FF0000" points="82.557,30.789 82.284,30.496 83.729,29.154 82.284,27.811 82.557,27.518 84.316,29.154 				"/>
			</g>
		</g>
	</g>
	<g>
		<g>
			
				<line fill="none" stroke="#00A300" stroke-width="0.5" stroke-linecap="round" stroke-linejoin="round" x1="53.963" y1="35.473" x2="53.963" y2="5.622"/>
			<g>
				<polygon fill="#00A300" points="56.008,7.279 55.642,7.62 53.964,5.814 52.285,7.62 51.919,7.279 53.964,5.08 				"/>
			</g>
		</g>
	</g>
	<g display="none">
		<path display="inline" fill="#FF0000" d="M41.491,51.567l-0.21-0.02c0.03-0.22,0.03-0.27,0.03-0.33c0-0.73-0.23-0.86-1.989-0.86
			c-0.46,0-0.61,0.06-0.68,0.32l-0.64,2.269c1.679-0.02,1.709-0.04,2.159-0.939l0.18,0.05l-0.759,2.349l-0.17-0.05
			c0.06-0.31,0.08-0.45,0.08-0.61c0-0.399-0.28-0.439-0.75-0.439c-0.22,0-0.459-0.01-0.829-0.03l-0.59,2.129
			c-0.07,0.25-0.14,0.45-0.14,0.6c0,0.24,0.18,0.35,0.77,0.39v0.16h-2.508v-0.16c0.58-0.04,0.68-0.26,0.83-0.779l1.229-4.417
			c0.07-0.25,0.1-0.45,0.1-0.61c0-0.28-0.1-0.34-0.76-0.4v-0.16h4.967L41.491,51.567z"/>
	</g>
	<g display="none">
		<g display="inline">
			
				<line fill="none" stroke="#FF0000" stroke-width="0.4" stroke-linecap="round" stroke-linejoin="round" x1="37.093" y1="47.831" x2="41.795" y2="47.831"/>
			<g>
				<polygon fill="#FF0000" points="40.47,49.467 40.197,49.174 41.642,47.831 40.197,46.488 40.47,46.195 42.229,47.831 				"/>
			</g>
		</g>
	</g>
	<g display="none">
		<path display="inline" fill="#FF00FF" d="M84.809,10.564v-0.19c0.36,0,0.43-0.02,0.55-0.09c0.08-0.04,0.14-0.15,0.14-0.24
			c0-0.15-0.07-0.42-0.19-0.7l-0.41-0.939H82.28L81.82,9.545c-0.05,0.13-0.09,0.3-0.09,0.42c0,0.31,0.22,0.41,0.7,0.41v0.19h-1.989
			v-0.19c0.58-0.06,0.669-0.27,1.259-1.669l2.059-4.877h0.2l2.458,5.627c0.28,0.649,0.42,0.859,0.939,0.919v0.19H84.809z
			 M83.599,5.248L82.45,7.996h2.309L83.599,5.248z"/>
	</g>
	<g display="none">
		<path display="inline" fill="#FF00FF" d="M102.391,7.086c0.66,0.11,0.929,0.29,1.219,0.55c0.32,0.29,0.49,0.709,0.49,1.149
			c0,1.109-0.939,1.779-2.389,1.779h-3.368v-0.19c0.79-0.02,0.959-0.18,0.959-0.939V5.067c0-0.79-0.15-0.879-0.959-0.929v-0.19
			h2.798c1.729,0,2.619,0.609,2.619,1.669c0,0.41-0.16,0.819-0.41,1.04c-0.24,0.21-0.44,0.29-0.959,0.419V7.086z M101.242,6.906
			c1.009,0,1.499-0.41,1.499-1.239c0-0.839-0.58-1.349-1.769-1.349h-0.41c-0.17,0-0.24,0.09-0.24,0.32v2.269H101.242z
			 M100.322,9.745c0,0.34,0.16,0.45,0.62,0.45c0.839,0,1.189-0.04,1.629-0.43c0.25-0.22,0.38-0.56,0.38-0.989
			c0-0.479-0.14-0.85-0.47-1.069c-0.6-0.4-0.979-0.36-2.159-0.4V9.745z"/>
	</g>
	<g>
		<g>
			
				<line fill="none" stroke="#FF0000" stroke-width="0.5" stroke-linecap="round" stroke-linejoin="round" x1="53.963" y1="35.473" x2="83.899" y2="10.58"/>
			<g>
				<polygon fill="#FF0000" points="83.933,13.211 83.436,13.148 83.752,10.703 81.29,10.567 81.318,10.067 84.316,10.234 				"/>
			</g>
		</g>
	</g>
	<g>
		<path fill="#00A300" d="M44.475,4.299l-0.39,1.519l-0.6,2.189c-0.31,1.139-0.65,2.298-0.65,2.458c0,0.12,0.05,0.2,0.18,0.2
			c0.17,0,0.28-0.09,0.819-0.709l0.12,0.1c-0.49,0.729-0.97,1.139-1.469,1.139c-0.26,0-0.41-0.18-0.41-0.45
			c0-0.23,0.02-0.39,0.13-0.89c-0.59,0.99-1.1,1.319-1.779,1.319c-0.649,0-1.069-0.41-1.069-1.169c0-1.619,1.619-3.348,2.918-3.348
			c0.42,0,0.59,0.19,0.649,0.58h0.01l0.45-1.629c0.15-0.53,0.14-0.57,0.14-0.709c0-0.21-0.09-0.24-0.64-0.26v-0.17
			c0.64-0.06,0.999-0.12,1.529-0.23L44.475,4.299z M42.296,6.887c-0.28,0-0.63,0.17-0.91,0.46c-0.66,0.699-1.159,1.789-1.159,2.618
			c0,0.46,0.23,0.73,0.58,0.73c0.919,0,1.959-1.719,1.959-3.238C42.766,7.097,42.526,6.887,42.296,6.887z"/>
		<path fill="#00A300" d="M47.396,11.065v-0.16c0.629-0.03,0.77-0.189,0.77-0.529c0-0.08-0.01-0.17-0.02-0.26l-0.2-1.309h-2.199
			l-0.589,1.109c-0.14,0.26-0.22,0.5-0.22,0.66c0,0.19,0.15,0.31,0.62,0.33v0.16h-1.859v-0.16c0.46-0.09,0.59-0.26,1.339-1.559
			l2.849-4.957h0.26l0.919,5.527c0.14,0.839,0.25,0.95,0.779,0.989v0.16H47.396z M47.446,5.818l-1.489,2.628h1.939L47.446,5.818z"/>
	</g>
	<g>
		<g>
			
				<line fill="none" stroke="#00A300" stroke-width="0.4" stroke-linecap="round" stroke-linejoin="round" x1="45.234" y1="2.341" x2="49.936" y2="2.341"/>
			<g>
				<polygon fill="#00A300" points="48.611,3.977 48.338,3.684 49.783,2.342 48.338,0.999 48.611,0.706 50.37,2.342 				"/>
			</g>
		</g>
	</g>
	<path fill="none" stroke="#0000FF" stroke-width="0.2" stroke-linecap="round" stroke-linejoin="round" stroke-miterlimit="10" d="
		M53.962,12.276c7.171,0,13.582,3.254,17.837,8.365"/>
	<g>
		<path fill="#0000FF" d="M67.807,11.902c-0.65,0.86-1.35,1.169-2.049,1.169c-0.81,0-1.279-0.66-1.279-1.719
			c0-2.149,1.129-3.918,2.219-4.748c0.439-0.33,0.819-0.42,1.219-0.42c0.709,0,1.229,0.48,1.229,1.669
			C69.146,9.474,68.546,10.913,67.807,11.902z M65.608,9.813c-0.19,0.5-0.29,1.02-0.29,1.649c0,0.889,0.19,1.399,0.56,1.399
			c0.959,0,1.819-2.069,2.059-3.048H65.608z M68.007,9.494c0.17-0.58,0.3-1.299,0.3-2.049c0-0.64-0.18-1.049-0.53-1.049
			c-0.869,0-1.849,2.209-2.099,3.098H68.007z"/>
	</g>
	<g display="none">
		<g display="inline">
			<line fill="none" stroke="#00A300" stroke-width="0.2" stroke-miterlimit="10" x1="92.6" y1="11.244" x2="91.539" y2="12.305"/>
			
				<line fill="none" stroke="#00A300" stroke-width="0.2" stroke-miterlimit="10" stroke-dasharray="2.9324,2.9324" x1="89.466" y1="14.378" x2="32.443" y2="71.401"/>
			
				<line fill="none" stroke="#00A300" stroke-width="0.2" stroke-miterlimit="10" x1="31.406" y1="72.437" x2="30.346" y2="73.498"/>
		</g>
	</g>
	<polygon opacity="0.1" fill="#00A300" points="55.067,33.542 56.697,33.542 58.643,33.542 58.666,33.542 54.804,37.405 
		54.766,37.405 49.258,37.405 53.121,33.542 	"/>
</g>
<g id="one" display="none">
	<polygon display="inline" opacity="0.1" fill="#00A300" points="55.067,33.542 56.697,33.542 58.643,33.542 58.666,33.542 
		54.804,37.405 54.766,37.405 49.258,37.405 53.121,33.542 	"/>
	<g display="inline">
		<path fill="#00A300" d="M44.605,41.657l-0.39,1.519l-0.6,2.189c-0.311,1.139-0.65,2.298-0.65,2.458c0,0.12,0.05,0.2,0.181,0.2
			c0.17,0,0.279-0.09,0.819-0.709l0.12,0.1c-0.49,0.729-0.97,1.139-1.47,1.139c-0.26,0-0.409-0.18-0.409-0.45
			c0-0.23,0.02-0.39,0.13-0.89c-0.59,0.99-1.1,1.319-1.779,1.319c-0.649,0-1.069-0.41-1.069-1.169c0-1.619,1.619-3.348,2.918-3.348
			c0.42,0,0.59,0.19,0.649,0.58h0.011l0.449-1.629c0.15-0.53,0.14-0.57,0.14-0.709c0-0.21-0.09-0.24-0.64-0.26v-0.17
			c0.64-0.06,1-0.12,1.529-0.23L44.605,41.657z M42.426,44.246c-0.28,0-0.63,0.17-0.91,0.46c-0.659,0.699-1.159,1.789-1.159,2.618
			c0,0.46,0.23,0.73,0.58,0.73c0.919,0,1.959-1.719,1.959-3.238C42.896,44.456,42.656,44.246,42.426,44.246z"/>
		<path fill="#00A300" d="M46.886,45.445c0.699-1.069,1.069-1.429,1.509-1.429c0.24,0,0.41,0.15,0.41,0.37
			c0,0.209-0.14,0.36-0.34,0.36c-0.189,0-0.28-0.17-0.52-0.17c-0.18,0-0.54,0.439-0.979,1.209c0,0.07,0.02,0.21,0.08,0.45
			l0.319,1.339c0.07,0.28,0.16,0.41,0.3,0.41c0.13,0,0.24-0.1,0.47-0.399c0.09-0.12,0.13-0.18,0.21-0.28l0.15,0.09
			c-0.58,0.899-0.84,1.139-1.22,1.139c-0.319,0-0.47-0.18-0.59-0.68l-0.289-1.189l-0.88,1.189c-0.439,0.59-0.64,0.68-0.949,0.68
			c-0.311,0-0.5-0.16-0.5-0.42c0-0.2,0.14-0.359,0.34-0.359c0.09,0,0.189,0.04,0.319,0.11c0.101,0.06,0.2,0.09,0.26,0.09
			c0.11,0,0.301-0.19,0.51-0.49l0.82-1.159l-0.28-1.24c-0.14-0.6-0.21-0.679-0.46-0.679c-0.08,0-0.199,0.02-0.39,0.07l-0.18,0.05
			l-0.03-0.16l0.11-0.04c0.609-0.22,0.939-0.29,1.169-0.29c0.25,0,0.37,0.18,0.51,0.86L46.886,45.445z"/>
	</g>
	<g display="inline">
		<path fill="#00A300" d="M72.605,35.127l-0.39,1.519l-0.6,2.189c-0.31,1.139-0.65,2.298-0.65,2.458c0,0.12,0.05,0.2,0.18,0.2
			c0.17,0,0.28-0.09,0.819-0.709l0.12,0.1c-0.49,0.729-0.97,1.139-1.469,1.139c-0.26,0-0.41-0.18-0.41-0.45
			c0-0.23,0.02-0.39,0.13-0.89c-0.59,0.99-1.1,1.319-1.779,1.319c-0.649,0-1.069-0.41-1.069-1.169c0-1.619,1.619-3.348,2.918-3.348
			c0.42,0,0.59,0.19,0.649,0.58h0.01l0.45-1.629c0.15-0.53,0.14-0.57,0.14-0.709c0-0.21-0.09-0.24-0.64-0.26v-0.17
			c0.64-0.06,1-0.12,1.529-0.23L72.605,35.127z M70.426,37.715c-0.28,0-0.63,0.17-0.91,0.46c-0.66,0.699-1.159,1.789-1.159,2.618
			c0,0.46,0.23,0.73,0.58,0.73c0.919,0,1.959-1.719,1.959-3.238C70.896,37.925,70.656,37.715,70.426,37.715z"/>
		<path fill="#00A300" d="M74.976,41.133c0.85-1.409,1.219-2.128,1.219-2.568c0-0.14-0.07-0.2-0.26-0.32
			c-0.2-0.13-0.26-0.23-0.26-0.39c0-0.22,0.17-0.37,0.399-0.37c0.3,0,0.52,0.25,0.52,0.55c0,0.57-0.48,1.669-1.31,3.048
			c-1.039,1.719-2.109,2.869-2.678,2.869c-0.3,0-0.51-0.17-0.51-0.43c0-0.22,0.17-0.399,0.39-0.399c0.35,0,0.35,0.28,0.61,0.28
			c0.13,0,0.25-0.08,0.479-0.33c0.18-0.19,0.63-0.779,0.709-0.909c0.06-0.12,0.1-0.24,0.1-0.35c0-0.399-0.55-2.639-0.819-3.318
			c-0.19-0.49-0.37-0.64-0.77-0.64c-0.11,0-0.2,0.01-0.31,0.04v-0.169c0.11-0.02,0.22-0.04,0.32-0.06c0.2-0.04,0.53-0.1,1.069-0.18
			h0.04c0.15,0,0.68,1.659,0.85,2.549L74.976,41.133z"/>
	</g>
	<g display="inline">
		<g>
			<path fill="none" stroke="#00A300" stroke-width="0.2" stroke-miterlimit="10" d="M46.609,42.534
				c1.143-1.369,2.848-1.449,4.286-3.377"/>
			<g>
				<polygon fill="#00A300" points="51.186,40.015 50.739,39.346 49.947,39.203 51.529,38.141 				"/>
			</g>
		</g>
	</g>
	<g display="inline">
		<g>
			<path fill="none" stroke="#00A300" stroke-width="0.2" stroke-miterlimit="10" d="M66.609,40.069
				c-1.846,0-4.194-2.513-7.456-3.758"/>
			<g>
				<polygon fill="#00A300" points="59.912,35.8 59.378,36.402 59.441,37.204 58.012,35.944 				"/>
			</g>
		</g>
	</g>
	
		<polygon display="inline" fill="none" stroke="#00A300" stroke-width="0.2" stroke-linecap="round" stroke-linejoin="round" stroke-miterlimit="10" points="
		55.067,33.542 56.697,33.542 58.643,33.542 58.666,33.542 54.804,37.405 54.766,37.405 49.258,37.405 53.121,33.542 	"/>
	<g display="inline">
		<g>
			
				<line fill="none" stroke="#FF00FF" stroke-width="0.5" stroke-linecap="round" stroke-linejoin="round" x1="53.963" y1="35.473" x2="53.963" y2="19.025"/>
			<g>
				<polygon fill="#FF00FF" points="56.008,20.682 55.642,21.023 53.964,19.217 52.285,21.023 51.919,20.682 53.964,18.483 				"/>
			</g>
		</g>
	</g>
	<g display="inline">
		<path fill="#FF00FF" d="M47.404,20.15l-1.429-2.889h-0.01l-1.419,2.889h-0.68l1.809-3.648h0.6l1.809,3.648H47.404z"/>
	</g>
	<g display="inline">
		<path fill="#FF00FF" d="M48.213,24.695c-0.68,0.93-0.929,1.129-1.399,1.129c-0.25,0-0.47-0.16-0.47-0.54
			c0-0.1,0.02-0.23,0.16-0.75l0.44-1.619c0.08-0.31,0.14-0.67,0.14-0.79c0-0.18-0.09-0.29-0.24-0.29c-0.4,0-0.85,0.49-1.479,1.419
			c-0.45,0.669-0.53,0.899-1,2.479h-0.75l0.959-3.498c0.01-0.05,0.02-0.11,0.02-0.17c0-0.2-0.14-0.26-0.649-0.27v-0.16
			c0.81-0.16,1.089-0.2,1.619-0.31l0.04,0.02l-0.67,2.179c1-1.599,1.669-2.199,2.309-2.199c0.43,0,0.649,0.25,0.649,0.61
			c0,0.18-0.04,0.39-0.1,0.6l-0.56,2.029c-0.1,0.36-0.14,0.53-0.14,0.61c0,0.09,0.04,0.18,0.16,0.18c0.14,0,0.32-0.16,0.61-0.53
			c0.07-0.08,0.14-0.17,0.21-0.26L48.213,24.695z"/>
	</g>
</g>
<g id="two">
	<g>
		<g>
			
				<line fill="none" stroke="#B2B2FF" stroke-linecap="round" stroke-linejoin="round" x1="45.644" y1="64.205" x2="39.898" y2="64.205"/>
			<g>
				<polygon fill="#B2B2FF" points="43.211,60.116 43.893,60.848 40.282,64.204 43.893,67.562 43.211,68.294 38.813,64.204 				"/>
			</g>
		</g>
	</g>
	<g>
		<g>
			
				<line fill="none" stroke="#4C4CFF" stroke-linecap="round" stroke-linejoin="round" x1="74.666" y1="24.446" x2="93.295" y2="24.446"/>
			<g>
				<polygon fill="#4C4CFF" points="89.982,28.536 89.299,27.804 92.911,24.447 89.299,21.09 89.982,20.358 94.38,24.447 				"/>
			</g>
		</g>
	</g>
	<g>
		<g>
			
				<line fill="none" stroke="#FF8000" stroke-width="0.5" stroke-linecap="round" stroke-linejoin="round" x1="51.537" y1="42.706" x2="51.537" y2="60.457"/>
			<g>
				<polygon fill="#FF8000" points="49.492,58.8 49.859,58.459 51.537,60.265 53.215,58.459 53.582,58.8 51.537,60.999 				"/>
			</g>
		</g>
	</g>
	<g>
		<path fill="#4C4CFF" d="M101.112,15.093c-0.56,0.07-0.649,0.16-0.819,0.77l-1.2,4.288c-0.09,0.32-0.15,0.56-0.15,0.759
			c0,0.28,0.12,0.32,0.69,0.39v0.16h-2.439V21.3c0.55-0.1,0.69-0.189,0.84-0.75l1.199-4.407c0.07-0.25,0.13-0.46,0.13-0.62
			c0-0.25-0.16-0.4-0.72-0.43v-0.16h2.469V15.093z"/>
	</g>
	<g>
		<path fill="#FF8000" d="M58.909,51.067c1.389,0,2.079,0.51,2.079,1.499c0,0.54-0.28,0.89-0.64,1.129
			c-0.31,0.21-0.68,0.3-1.109,0.39v0.01c0.859,0.26,1.259,0.79,1.259,1.499c0,1.339-1.129,1.999-2.749,1.999h-2.719v-0.16
			c0.55-0.08,0.66-0.18,0.83-0.799l1.209-4.357c0.07-0.25,0.11-0.49,0.11-0.64c0-0.29-0.14-0.36-0.77-0.41v-0.16H58.909z
			 M57.17,55.475c-0.2,0.759-0.35,1.269-0.35,1.399c0,0.28,0.25,0.42,0.67,0.42c1.149,0,1.929-0.59,1.929-1.699
			c0-0.62-0.29-1.059-0.669-1.189c-0.2-0.07-0.63-0.12-1.259-0.12L57.17,55.475z M57.97,53.965c1.309,0,2.009-0.53,2.009-1.519
			c0-0.74-0.36-1.08-1.169-1.08c-0.39,0-0.49,0-0.589,0.36l-0.63,2.239H57.97z"/>
		<path fill="#FF8000" d="M62.591,60.323c-0.32,0.49-0.507,0.665-0.798,0.665c-0.192,0-0.286-0.105-0.286-0.32
			c0-0.117,0.041-0.321,0.128-0.647l0.28-1.032c0.029-0.105,0.052-0.21,0.052-0.256c0-0.117-0.058-0.134-0.373-0.14v-0.093
			c0.228-0.018,0.344-0.035,0.933-0.146l0.023,0.017l-0.548,2c-0.029,0.099-0.059,0.175-0.059,0.256
			c0,0.059,0.035,0.087,0.082,0.087c0.099,0,0.239-0.122,0.49-0.455L62.591,60.323z M62.475,57.729c-0.169,0-0.28-0.122-0.28-0.309
			c0-0.181,0.116-0.309,0.274-0.309c0.157,0,0.291,0.151,0.291,0.32C62.76,57.595,62.626,57.729,62.475,57.729z"/>
		<path fill="#FF8000" d="M65.604,60.317c-0.396,0.542-0.542,0.659-0.816,0.659c-0.146,0-0.274-0.093-0.274-0.314
			c0-0.059,0.012-0.134,0.093-0.437l0.256-0.944c0.047-0.181,0.082-0.391,0.082-0.46c0-0.105-0.052-0.169-0.14-0.169
			c-0.233,0-0.496,0.286-0.863,0.828c-0.262,0.39-0.309,0.524-0.583,1.445h-0.437l0.56-2.04c0.006-0.029,0.012-0.064,0.012-0.099
			c0-0.117-0.082-0.151-0.379-0.157v-0.093c0.472-0.093,0.635-0.117,0.944-0.181l0.023,0.011l-0.391,1.271
			c0.583-0.933,0.973-1.282,1.346-1.282c0.251,0,0.379,0.146,0.379,0.355c0,0.105-0.023,0.227-0.058,0.35l-0.327,1.183
			c-0.058,0.21-0.082,0.309-0.082,0.356c0,0.052,0.023,0.104,0.093,0.104c0.082,0,0.187-0.093,0.356-0.309
			c0.041-0.047,0.082-0.099,0.122-0.152L65.604,60.317z"/>
		<path fill="#FF8000" d="M68.829,56.977l-0.227,0.886l-0.35,1.276c-0.181,0.665-0.379,1.341-0.379,1.434
			c0,0.07,0.029,0.116,0.105,0.116c0.099,0,0.163-0.052,0.478-0.414l0.07,0.058c-0.286,0.426-0.565,0.665-0.856,0.665
			c-0.152,0-0.239-0.105-0.239-0.262c0-0.134,0.012-0.228,0.076-0.519c-0.344,0.577-0.641,0.769-1.038,0.769
			c-0.379,0-0.624-0.239-0.624-0.682c0-0.944,0.944-1.953,1.702-1.953c0.245,0,0.344,0.11,0.379,0.338h0.006l0.262-0.95
			c0.087-0.309,0.082-0.332,0.082-0.414c0-0.123-0.052-0.14-0.373-0.152v-0.099c0.373-0.035,0.583-0.07,0.892-0.134L68.829,56.977z
			 M67.558,58.487c-0.164,0-0.367,0.099-0.531,0.268c-0.385,0.408-0.676,1.043-0.676,1.527c0,0.268,0.134,0.425,0.338,0.425
			c0.536,0,1.143-1.002,1.143-1.888C67.832,58.609,67.692,58.487,67.558,58.487z"/>
	</g>
	<g>
		<g>
			
				<line fill="none" stroke="#FF8000" stroke-width="0.4" stroke-linecap="round" stroke-linejoin="round" x1="56.303" y1="49.252" x2="61.005" y2="49.252"/>
			<g>
				<polygon fill="#FF8000" points="59.679,50.887 59.407,50.595 60.851,49.252 59.407,47.909 59.679,47.616 61.439,49.252 				"/>
			</g>
		</g>
	</g>
</g>
<g id="Layer_4" display="none">
	
		<line display="inline" fill="none" stroke="#000000" stroke-linecap="round" stroke-linejoin="round" stroke-miterlimit="10" x1="79.502" y1="-4.005" x2="39.638" y2="35.859"/>
	
		<line display="inline" fill="none" stroke="#000000" stroke-linecap="round" stroke-linejoin="round" stroke-miterlimit="10" x1="39.638" y1="35.859" x2="39.638" y2="92.552"/>
	
		<line display="inline" fill="none" stroke="#000000" stroke-linecap="round" stroke-linejoin="round" stroke-miterlimit="10" x1="79.522" y1="-3.995" x2="79.522" y2="15.865"/>
	
		<line display="inline" fill="none" stroke="#000000" stroke-linecap="round" stroke-linejoin="round" stroke-miterlimit="10" x1="79.522" y1="15.865" x2="91.274" y2="4.034"/>
	
		<line display="inline" fill="none" stroke="#000000" stroke-linecap="round" stroke-linejoin="round" stroke-miterlimit="10" x1="79.502" y1="52.688" x2="39.638" y2="92.552"/>
	
		<line display="inline" fill="none" stroke="#000000" stroke-linecap="round" stroke-linejoin="round" stroke-miterlimit="10" x1="79.522" y1="32.778" x2="79.522" y2="52.638"/>
	
		<line display="inline" fill="none" stroke="#000000" stroke-linecap="round" stroke-linejoin="round" stroke-miterlimit="10" x1="79.522" y1="32.778" x2="91.274" y2="20.948"/>
	<g display="inline">
		<g>
			
				<line fill="none" stroke="#0000FF" stroke-width="0.5" stroke-linecap="round" stroke-linejoin="round" x1="115.864" y1="24.341" x2="135.033" y2="24.341"/>
			<g>
				<polygon fill="#0000FF" points="117.52,26.386 117.861,26.02 116.056,24.342 117.861,22.663 117.52,22.297 115.321,24.342 				
					"/>
			</g>
		</g>
	</g>
	<g display="inline">
		<g>
			
				<line fill="none" stroke="#0000FF" stroke-width="0.5" stroke-linecap="round" stroke-linejoin="round" x1="95.868" y1="44.337" x2="115.037" y2="44.337"/>
			<g>
				<polygon fill="#0000FF" points="97.524,46.382 97.865,46.016 96.06,44.338 97.865,42.659 97.524,42.293 95.325,44.338 				"/>
			</g>
		</g>
	</g>
	<g display="inline">
		<g>
			
				<line fill="none" stroke="#0000FF" stroke-width="0.5" stroke-linecap="round" stroke-linejoin="round" x1="75.99" y1="64.215" x2="95.16" y2="64.215"/>
			<g>
				<polygon fill="#0000FF" points="77.647,66.26 77.988,65.893 76.182,64.215 77.988,62.536 77.647,62.17 75.448,64.215 				"/>
			</g>
		</g>
	</g>
	<g display="inline">
		<g>
			
				<line fill="none" stroke="#0000FF" stroke-width="0.5" stroke-linecap="round" stroke-linejoin="round" x1="86.095" y1="54.11" x2="105.264" y2="54.11"/>
			<g>
				<polygon fill="#0000FF" points="87.751,56.155 88.092,55.789 86.287,54.111 88.092,52.432 87.751,52.066 85.552,54.111 				"/>
			</g>
		</g>
	</g>
	<g display="inline">
		<g>
			
				<line fill="none" stroke="#0000FF" stroke-width="0.5" stroke-linecap="round" stroke-linejoin="round" x1="105.835" y1="34.37" x2="125.005" y2="34.37"/>
			<g>
				<polygon fill="#0000FF" points="107.492,36.415 107.833,36.048 106.027,34.37 107.833,32.691 107.492,32.325 105.293,34.37 				
					"/>
			</g>
		</g>
	</g>
	<g display="inline">
		<path fill="#0000FF" d="M122.35,41.897c1.389,0,2.079,0.51,2.079,1.499c0,0.54-0.28,0.89-0.64,1.129
			c-0.31,0.21-0.68,0.3-1.109,0.39v0.01c0.859,0.26,1.259,0.79,1.259,1.499c0,1.339-1.129,1.999-2.749,1.999h-2.719v-0.16
			c0.55-0.08,0.66-0.18,0.83-0.799l1.209-4.357c0.07-0.25,0.11-0.49,0.11-0.64c0-0.29-0.14-0.36-0.77-0.41v-0.16H122.35z
			 M120.611,46.305c-0.2,0.759-0.35,1.269-0.35,1.399c0,0.28,0.25,0.42,0.67,0.42c1.149,0,1.929-0.59,1.929-1.699
			c0-0.62-0.29-1.059-0.669-1.189c-0.2-0.07-0.63-0.12-1.259-0.12L120.611,46.305z M121.411,44.795c1.309,0,2.009-0.53,2.009-1.519
			c0-0.74-0.36-1.08-1.169-1.08c-0.39,0-0.49,0-0.589,0.36l-0.63,2.239H121.411z"/>
	</g>
	<g display="inline">
		<g>
			
				<line fill="none" stroke="#0000FF" stroke-width="0.4" stroke-linecap="round" stroke-linejoin="round" x1="119.563" y1="39.699" x2="124.266" y2="39.699"/>
			<g>
				<polygon fill="#0000FF" points="122.94,41.335 122.667,41.042 124.112,39.7 122.667,38.357 122.94,38.064 124.699,39.7 				"/>
			</g>
		</g>
	</g>
	<g display="inline">
		<g>
			
				<line fill="none" stroke="#000000" stroke-width="0.7" stroke-linecap="round" stroke-linejoin="round" x1="88.148" y1="7.196" x2="83.855" y2="11.49"/>
			<g>
				<polygon points="83.471,7.825 84.171,7.85 84.045,11.299 87.494,11.173 87.519,11.873 83.318,12.026 				"/>
			</g>
		</g>
	</g>
	<g display="inline">
		<g>
			
				<line fill="none" stroke="#000000" stroke-width="0.7" stroke-linecap="round" stroke-linejoin="round" x1="57.096" y1="18.401" x2="52.802" y2="22.694"/>
			<g>
				<polygon points="52.418,19.03 53.118,19.055 52.992,22.504 56.441,22.378 56.466,23.078 52.265,23.231 				"/>
			</g>
		</g>
	</g>
	<g display="inline">
		<g>
			
				<line fill="none" stroke="#000000" stroke-width="0.7" stroke-linecap="round" stroke-linejoin="round" x1="52.266" y1="79.924" x2="56.559" y2="75.631"/>
			<g>
				<polygon points="56.943,79.295 56.243,79.271 56.369,75.821 52.92,75.947 52.895,75.247 57.096,75.095 				"/>
			</g>
		</g>
	</g>
	<g display="inline">
		<g>
			
				<line fill="none" stroke="#000000" stroke-width="0.7" stroke-linecap="round" stroke-linejoin="round" x1="39.638" y1="60.799" x2="39.638" y2="66.871"/>
			<g>
				<polygon points="36.775,64.551 37.288,64.074 39.637,66.602 41.987,64.074 42.5,64.551 39.637,67.63 				"/>
			</g>
		</g>
	</g>
	<g display="inline">
		<g>
			
				<line fill="none" stroke="#000000" stroke-width="0.7" stroke-linecap="round" stroke-linejoin="round" x1="79.522" y1="45.618" x2="79.522" y2="39.546"/>
			<g>
				<polygon points="82.385,41.866 81.872,42.343 79.523,39.815 77.172,42.343 76.66,41.866 79.523,38.787 				"/>
			</g>
		</g>
	</g>
	<g display="inline">
		<g>
			
				<line fill="none" stroke="#000000" stroke-width="0.7" stroke-linecap="round" stroke-linejoin="round" x1="79.522" y1="8.882" x2="79.522" y2="2.81"/>
			<g>
				<polygon points="82.385,5.129 81.872,5.607 79.523,3.079 77.172,5.607 76.66,5.129 79.523,2.051 				"/>
			</g>
		</g>
	</g>
	<g display="inline">
		<g>
			
				<line fill="none" stroke="#000000" stroke-width="0.7" stroke-linecap="round" stroke-linejoin="round" x1="83.318" y1="28.94" x2="87.612" y2="24.647"/>
			<g>
				<polygon points="87.996,28.311 87.296,28.286 87.422,24.837 83.973,24.963 83.948,24.263 88.149,24.11 				"/>
			</g>
		</g>
	</g>
	<g display="inline">
		<path fill="#808080" d="M20.502,75.261c0.006-0.479,0.054-0.695,0.21-0.965c0.156-0.27,0.468-0.432,0.845-0.432
			c0.36,0,0.624,0.156,0.624,0.372c0,0.138-0.108,0.246-0.252,0.246c-0.102,0-0.174-0.054-0.27-0.216
			c-0.108-0.174-0.186-0.234-0.318-0.234c-0.228,0-0.335,0.18-0.335,0.534v0.695h0.731v0.192h-0.731v1.883
			c0,0.45,0.066,0.516,0.558,0.534v0.09h-1.559v-0.09c0.432-0.024,0.498-0.096,0.498-0.534v-1.883h-0.492v-0.192H20.502z"/>
		<path fill="#808080" d="M22.842,75.765c0.3-0.432,0.468-0.563,0.72-0.563c0.204,0,0.33,0.12,0.33,0.318
			c0,0.167-0.09,0.27-0.234,0.27c-0.078,0-0.144-0.03-0.24-0.12c-0.066-0.06-0.12-0.09-0.156-0.09c-0.168,0-0.42,0.3-0.42,0.492
			v1.35c0,0.342,0.102,0.432,0.51,0.45v0.09h-1.439v-0.09c0.384-0.072,0.426-0.114,0.426-0.414v-1.499
			c0-0.264-0.054-0.36-0.204-0.36c-0.072,0-0.126,0.006-0.21,0.024v-0.096c0.354-0.114,0.57-0.198,0.888-0.324l0.03,0.012V75.765z"
			/>
		<path fill="#808080" d="M25.314,78.02c-0.726,0-1.295-0.594-1.295-1.427s0.54-1.391,1.349-1.391c0.732,0,1.295,0.545,1.295,1.373
			C26.663,77.408,26.123,78.02,25.314,78.02z M25.824,75.669c-0.144-0.18-0.312-0.3-0.57-0.3c-0.414,0-0.696,0.354-0.696,0.954
			c0,0.474,0.096,0.906,0.318,1.229c0.132,0.192,0.324,0.3,0.54,0.3c0.444,0,0.708-0.42,0.708-1.115
			C26.123,76.329,26.016,75.915,25.824,75.669z"/>
		<path fill="#808080" d="M28.506,77.959l0.006-0.09c0.3-0.024,0.372-0.144,0.372-0.54v-1.193c0-0.425-0.144-0.605-0.438-0.605
			c-0.198,0-0.342,0.072-0.618,0.342v1.655c0,0.234,0.084,0.318,0.39,0.342v0.09h-1.265v-0.09c0.306-0.024,0.372-0.12,0.372-0.474
			v-1.458c0-0.294-0.042-0.39-0.21-0.39c-0.066,0-0.132,0.006-0.174,0.024v-0.102c0.33-0.096,0.527-0.162,0.821-0.27l0.048,0.018
			v0.468h0.006c0.312-0.354,0.587-0.485,0.863-0.485c0.456,0,0.708,0.33,0.708,0.923v1.325c0,0.324,0.072,0.39,0.366,0.42v0.09
			H28.506z"/>
		<path fill="#808080" d="M31.517,77.563c-0.198,0.312-0.425,0.456-0.726,0.456c-0.348,0-0.527-0.258-0.527-0.762v-1.805h-0.318
			c-0.018-0.012-0.024-0.024-0.024-0.042c0-0.036,0.036-0.072,0.102-0.114c0.156-0.09,0.354-0.312,0.582-0.642
			c0.036-0.054,0.084-0.108,0.12-0.168c0.03,0,0.042,0.018,0.042,0.078v0.695h0.606v0.192h-0.606v1.715
			c0,0.384,0.09,0.54,0.312,0.54c0.132,0,0.228-0.054,0.36-0.21L31.517,77.563z"/>
	</g>
	<g display="inline">
		<path fill="#808080" d="M95.57,7.416c0.3-0.432,0.468-0.563,0.72-0.563c0.204,0,0.33,0.12,0.33,0.318
			c0,0.167-0.09,0.27-0.234,0.27c-0.078,0-0.144-0.03-0.24-0.12c-0.066-0.06-0.12-0.09-0.156-0.09c-0.168,0-0.42,0.3-0.42,0.492
			v1.35c0,0.342,0.102,0.432,0.51,0.45v0.09H94.64v-0.09c0.384-0.072,0.426-0.114,0.426-0.414V7.608c0-0.264-0.054-0.36-0.204-0.36
			c-0.072,0-0.126,0.006-0.21,0.024V7.177c0.354-0.114,0.57-0.198,0.888-0.324l0.03,0.012V7.416z"/>
		<path fill="#808080" d="M99.139,8.67c-0.234,0.653-0.653,1.001-1.253,1.001c-0.708,0-1.139-0.534-1.139-1.361
			c0-0.846,0.486-1.457,1.241-1.457c0.372,0,0.642,0.144,0.833,0.414c0.12,0.168,0.18,0.36,0.204,0.684h-1.847
			c0.03,0.456,0.06,0.689,0.276,0.978c0.168,0.222,0.39,0.33,0.666,0.33c0.402,0,0.63-0.186,0.924-0.629L99.139,8.67z M98.413,7.758
			c-0.066-0.486-0.192-0.689-0.587-0.689c-0.336,0-0.57,0.24-0.636,0.689H98.413z"/>
		<path fill="#808080" d="M101.911,9.383c-0.18,0.228-0.335,0.288-0.54,0.288c-0.222,0-0.354-0.12-0.384-0.438h-0.006
			c-0.318,0.36-0.612,0.438-0.87,0.438c-0.372,0-0.63-0.228-0.63-0.624c0-0.312,0.186-0.546,0.42-0.702
			c0.18-0.12,0.402-0.234,1.08-0.486V7.537c0-0.372-0.198-0.54-0.468-0.54c-0.24,0-0.42,0.132-0.42,0.294
			c0,0.108,0.036,0.126,0.036,0.252c0,0.114-0.12,0.246-0.276,0.246c-0.126,0-0.258-0.114-0.258-0.275
			c0-0.156,0.096-0.348,0.306-0.48c0.168-0.108,0.42-0.18,0.689-0.18c0.336,0,0.564,0.096,0.708,0.27
			c0.144,0.174,0.168,0.3,0.168,0.666v1.146c0,0.276,0.078,0.396,0.186,0.396c0.096,0,0.156-0.03,0.258-0.114V9.383z M100.981,8.004
			c-0.372,0.132-0.618,0.258-0.768,0.396c-0.144,0.132-0.204,0.276-0.204,0.462c0,0.318,0.18,0.461,0.414,0.461
			c0.12,0,0.246-0.03,0.348-0.096c0.174-0.12,0.21-0.204,0.21-0.378V8.004z"/>
		<path fill="#808080" d="M102.884,7.416c0.3-0.432,0.468-0.563,0.72-0.563c0.204,0,0.33,0.12,0.33,0.318
			c0,0.167-0.09,0.27-0.234,0.27c-0.078,0-0.144-0.03-0.24-0.12c-0.066-0.06-0.12-0.09-0.156-0.09c-0.168,0-0.42,0.3-0.42,0.492
			v1.35c0,0.342,0.102,0.432,0.51,0.45v0.09h-1.439v-0.09c0.384-0.072,0.426-0.114,0.426-0.414V7.608c0-0.264-0.054-0.36-0.204-0.36
			c-0.072,0-0.126,0.006-0.21,0.024V7.177c0.354-0.114,0.57-0.198,0.888-0.324l0.03,0.012V7.416z"/>
	</g>
	<g display="inline">
		<path d="M51.52,16.03c-0.56,0.07-0.649,0.16-0.819,0.77l-1.2,4.288c-0.09,0.32-0.15,0.56-0.15,0.759c0,0.28,0.12,0.32,0.69,0.39
			v0.16h-2.439v-0.16c0.55-0.1,0.69-0.189,0.84-0.75l1.199-4.407c0.07-0.25,0.13-0.46,0.13-0.62c0-0.25-0.16-0.4-0.72-0.43v-0.16
			h2.469V16.03z"/>
	</g>
	<g display="inline">
		<g>
			
				<line fill="none" stroke="#FF0000" stroke-width="0.5" stroke-linecap="round" stroke-linejoin="round" x1="63.018" y1="69.628" x2="63.018" y2="85.749"/>
			<g>
				<polygon fill="#FF0000" points="60.973,84.092 61.34,83.751 63.018,85.557 64.697,83.751 65.063,84.092 63.018,86.291 				"/>
			</g>
		</g>
	</g>
	<g display="inline">
		<path fill="#FF0000" d="M53.351,3.603l-0.21-0.02c0.03-0.22,0.03-0.27,0.03-0.33c0-0.73-0.23-0.86-1.989-0.86
			c-0.46,0-0.61,0.06-0.68,0.32l-0.64,2.269c1.679-0.02,1.709-0.04,2.159-0.939l0.18,0.05l-0.759,2.349l-0.17-0.05
			c0.06-0.31,0.08-0.45,0.08-0.61c0-0.399-0.28-0.439-0.75-0.439c-0.22,0-0.459-0.01-0.829-0.03l-0.59,2.129
			c-0.07,0.25-0.14,0.45-0.14,0.6c0,0.24,0.18,0.35,0.77,0.39v0.16h-2.508V8.43c0.58-0.04,0.68-0.26,0.83-0.779l1.229-4.417
			c0.07-0.25,0.1-0.45,0.1-0.61c0-0.28-0.1-0.34-0.76-0.4v-0.16h4.967L53.351,3.603z"/>
	</g>
	<g display="inline">
		<g>
			
				<line fill="none" stroke="#FF0000" stroke-width="0.4" stroke-linecap="round" stroke-linejoin="round" x1="48.954" y1="-0.134" x2="53.656" y2="-0.134"/>
			<g>
				<polygon fill="#FF0000" points="52.331,1.502 52.058,1.209 53.503,-0.133 52.058,-1.476 52.331,-1.769 54.09,-0.133 				"/>
			</g>
		</g>
	</g>
	<g display="inline">
		<g>
			
				<line fill="none" stroke="#FF0000" stroke-width="0.5" stroke-linecap="round" stroke-linejoin="round" x1="58.663" y1="16.922" x2="58.663" y2="0.8"/>
			<g>
				<polygon fill="#FF0000" points="60.708,2.457 60.342,2.798 58.663,0.992 56.985,2.798 56.619,2.457 58.663,0.258 				"/>
			</g>
		</g>
	</g>
	<g display="inline">
		<g>
			
				<line fill="none" stroke="#FF0000" stroke-width="0.5" stroke-linecap="round" stroke-linejoin="round" x1="39.638" y1="59.886" x2="28.238" y2="71.285"/>
			<g>
				<polygon fill="#FF0000" points="27.964,68.668 28.464,68.686 28.373,71.149 30.837,71.059 30.855,71.56 27.854,71.668 				"/>
			</g>
		</g>
	</g>
	<g display="inline">
		<g>
			
				<line fill="none" stroke="#FF0000" stroke-width="0.5" stroke-linecap="round" stroke-linejoin="round" x1="79.661" y1="43.031" x2="91.061" y2="31.631"/>
			<g>
				<polygon fill="#FF0000" points="91.335,34.249 90.835,34.231 90.925,31.767 88.461,31.857 88.443,31.357 91.444,31.248 				"/>
			</g>
		</g>
	</g>
	<g display="inline">
		<g>
			
				<line fill="none" stroke="#FF0000" stroke-width="0.5" stroke-linecap="round" stroke-linejoin="round" x1="79.661" y1="6.569" x2="91.061" y2="-4.831"/>
			<g>
				<polygon fill="#FF0000" points="91.335,-2.213 90.835,-2.231 90.925,-4.695 88.461,-4.605 88.443,-5.105 91.444,-5.214 				"/>
			</g>
		</g>
	</g>
	<g display="inline">
		<g>
			<line fill="none" stroke="#00A300" stroke-width="0.2" stroke-miterlimit="10" x1="92.6" y1="11.244" x2="91.539" y2="12.305"/>
			
				<line fill="none" stroke="#00A300" stroke-width="0.2" stroke-miterlimit="10" stroke-dasharray="2.9324,2.9324" x1="89.466" y1="14.378" x2="32.443" y2="71.401"/>
			
				<line fill="none" stroke="#00A300" stroke-width="0.2" stroke-miterlimit="10" x1="31.406" y1="72.437" x2="30.346" y2="73.498"/>
		</g>
	</g>
</g>
</svg>
