<?xml version="1.0" encoding="utf-8"?>
<!-- Generator: Adobe Illustrator 26.0.1, SVG Export Plug-In . SVG Version: 6.00 Build 0)  -->
<svg version="1.1" xmlns="http://www.w3.org/2000/svg" xmlns:xlink="http://www.w3.org/1999/xlink" x="0px" y="0px"
	 viewBox="0 0 115.73 80.908" enable-background="new 0 0 115.73 80.908" xml:space="preserve">
<g id="Graph_paper_slanted" opacity="0.5">
	<g id="Clipped_grid_00000003068028900943026870000011536296927355263674_">
		<defs>
			<polygon id="SVGID_1_" points="81.006,97.104 -50.577,97.104 31.97,15.239 163.553,15.239 			"/>
		</defs>
		<clipPath id="SVGID_00000024717645630178284280000008087311685780605324_">
			<use xlink:href="#SVGID_1_"  overflow="visible"/>
		</clipPath>
		
			<g id="Grid_00000142891597197125820610000009767860333217090727_" opacity="0.25" clip-path="url(#SVGID_00000024717645630178284280000008087311685780605324_)">
			<g id="Horizontal_1_mm_00000151508609497893311650000018408800186222605470_">
				
					<line fill="none" stroke="#00ABEB" stroke-width="0.15" stroke-miterlimit="10" x1="3.707" y1="-13.324" x2="230.548" y2="-13.324"/>
				
					<line fill="none" stroke="#00ABEB" stroke-width="0.15" stroke-miterlimit="10" x1="5.695" y1="-15.312" x2="232.536" y2="-15.312"/>
				
					<line fill="none" stroke="#00ABEB" stroke-width="0.15" stroke-miterlimit="10" x1="-113.582" y1="103.964" x2="113.259" y2="103.964"/>
				
					<line fill="none" stroke="#00ABEB" stroke-width="0.15" stroke-miterlimit="10" x1="-111.594" y1="101.976" x2="115.247" y2="101.976"/>
				
					<line fill="none" stroke="#00ABEB" stroke-width="0.15" stroke-miterlimit="10" x1="-109.606" y1="99.988" x2="117.235" y2="99.988"/>
				<line fill="none" stroke="#00ABEB" stroke-width="0.15" stroke-miterlimit="10" x1="-107.618" y1="98" x2="119.223" y2="98"/>
				
					<line fill="none" stroke="#00ABEB" stroke-width="0.15" stroke-miterlimit="10" x1="-105.63" y1="96.012" x2="121.211" y2="96.012"/>
				
					<line fill="none" stroke="#00ABEB" stroke-width="0.15" stroke-miterlimit="10" x1="-103.642" y1="94.025" x2="123.199" y2="94.025"/>
				
					<line fill="none" stroke="#00ABEB" stroke-width="0.15" stroke-miterlimit="10" x1="-101.654" y1="92.037" x2="125.187" y2="92.037"/>
				
					<line fill="none" stroke="#00ABEB" stroke-width="0.15" stroke-miterlimit="10" x1="-99.667" y1="90.049" x2="127.174" y2="90.049"/>
				
					<line fill="none" stroke="#00ABEB" stroke-width="0.15" stroke-miterlimit="10" x1="-97.678" y1="88.061" x2="129.163" y2="88.061"/>
				
					<line fill="none" stroke="#00ABEB" stroke-width="0.15" stroke-miterlimit="10" x1="-95.69" y1="86.072" x2="131.151" y2="86.072"/>
				
					<line fill="none" stroke="#00ABEB" stroke-width="0.15" stroke-miterlimit="10" x1="-93.703" y1="84.085" x2="133.138" y2="84.085"/>
				
					<line fill="none" stroke="#00ABEB" stroke-width="0.15" stroke-miterlimit="10" x1="-91.714" y1="82.097" x2="135.126" y2="82.097"/>
				
					<line fill="none" stroke="#00ABEB" stroke-width="0.15" stroke-miterlimit="10" x1="-89.726" y1="80.109" x2="137.115" y2="80.109"/>
				
					<line fill="none" stroke="#00ABEB" stroke-width="0.15" stroke-miterlimit="10" x1="-87.739" y1="78.121" x2="139.102" y2="78.121"/>
				
					<line fill="none" stroke="#00ABEB" stroke-width="0.15" stroke-miterlimit="10" x1="-85.751" y1="76.133" x2="141.09" y2="76.133"/>
				
					<line fill="none" stroke="#00ABEB" stroke-width="0.15" stroke-miterlimit="10" x1="-83.762" y1="74.145" x2="143.078" y2="74.145"/>
				
					<line fill="none" stroke="#00ABEB" stroke-width="0.15" stroke-miterlimit="10" x1="-81.775" y1="72.157" x2="145.066" y2="72.157"/>
				
					<line fill="none" stroke="#00ABEB" stroke-width="0.15" stroke-miterlimit="10" x1="-79.787" y1="70.169" x2="147.054" y2="70.169"/>
				
					<line fill="none" stroke="#00ABEB" stroke-width="0.15" stroke-miterlimit="10" x1="-77.799" y1="68.181" x2="149.042" y2="68.181"/>
				
					<line fill="none" stroke="#00ABEB" stroke-width="0.15" stroke-miterlimit="10" x1="-75.811" y1="66.194" x2="151.03" y2="66.194"/>
				
					<line fill="none" stroke="#00ABEB" stroke-width="0.15" stroke-miterlimit="10" x1="-73.823" y1="64.205" x2="153.018" y2="64.205"/>
				
					<line fill="none" stroke="#00ABEB" stroke-width="0.15" stroke-miterlimit="10" x1="-71.834" y1="62.217" x2="155.006" y2="62.217"/>
				
					<line fill="none" stroke="#00ABEB" stroke-width="0.15" stroke-miterlimit="10" x1="-69.847" y1="60.23" x2="156.994" y2="60.23"/>
				
					<line fill="none" stroke="#00ABEB" stroke-width="0.15" stroke-miterlimit="10" x1="-67.859" y1="58.241" x2="158.982" y2="58.241"/>
				
					<line fill="none" stroke="#00ABEB" stroke-width="0.15" stroke-miterlimit="10" x1="-65.871" y1="56.254" x2="160.97" y2="56.254"/>
				
					<line fill="none" stroke="#00ABEB" stroke-width="0.15" stroke-miterlimit="10" x1="-63.883" y1="54.266" x2="162.958" y2="54.266"/>
				
					<line fill="none" stroke="#00ABEB" stroke-width="0.15" stroke-miterlimit="10" x1="-61.895" y1="52.278" x2="164.946" y2="52.278"/>
				
					<line fill="none" stroke="#00ABEB" stroke-width="0.15" stroke-miterlimit="10" x1="-59.907" y1="50.29" x2="166.933" y2="50.29"/>
				
					<line fill="none" stroke="#00ABEB" stroke-width="0.15" stroke-miterlimit="10" x1="-57.919" y1="48.302" x2="168.921" y2="48.302"/>
				
					<line fill="none" stroke="#00ABEB" stroke-width="0.15" stroke-miterlimit="10" x1="-55.931" y1="46.314" x2="170.91" y2="46.314"/>
				
					<line fill="none" stroke="#00ABEB" stroke-width="0.15" stroke-miterlimit="10" x1="-53.944" y1="44.326" x2="172.897" y2="44.326"/>
				
					<line fill="none" stroke="#00ABEB" stroke-width="0.15" stroke-miterlimit="10" x1="-51.956" y1="42.338" x2="174.885" y2="42.338"/>
				
					<line fill="none" stroke="#00ABEB" stroke-width="0.15" stroke-miterlimit="10" x1="-49.967" y1="40.35" x2="176.873" y2="40.35"/>
				
					<line fill="none" stroke="#00ABEB" stroke-width="0.15" stroke-miterlimit="10" x1="-47.98" y1="38.363" x2="178.861" y2="38.363"/>
				
					<line fill="none" stroke="#00ABEB" stroke-width="0.15" stroke-miterlimit="10" x1="-45.992" y1="36.374" x2="180.849" y2="36.374"/>
				
					<line fill="none" stroke="#00ABEB" stroke-width="0.15" stroke-miterlimit="10" x1="-44.004" y1="34.386" x2="182.837" y2="34.386"/>
				
					<line fill="none" stroke="#00ABEB" stroke-width="0.15" stroke-miterlimit="10" x1="-42.016" y1="32.399" x2="184.825" y2="32.399"/>
				
					<line fill="none" stroke="#00ABEB" stroke-width="0.15" stroke-miterlimit="10" x1="-40.028" y1="30.411" x2="186.813" y2="30.411"/>
				
					<line fill="none" stroke="#00ABEB" stroke-width="0.15" stroke-miterlimit="10" x1="-38.04" y1="28.422" x2="188.801" y2="28.422"/>
				
					<line fill="none" stroke="#00ABEB" stroke-width="0.15" stroke-miterlimit="10" x1="-36.052" y1="26.435" x2="190.789" y2="26.435"/>
				
					<line fill="none" stroke="#00ABEB" stroke-width="0.15" stroke-miterlimit="10" x1="-34.064" y1="24.446" x2="192.777" y2="24.446"/>
				
					<line fill="none" stroke="#00ABEB" stroke-width="0.15" stroke-miterlimit="10" x1="-32.076" y1="22.459" x2="194.765" y2="22.459"/>
				
					<line fill="none" stroke="#00ABEB" stroke-width="0.15" stroke-miterlimit="10" x1="-30.088" y1="20.471" x2="196.753" y2="20.471"/>
				
					<line fill="none" stroke="#00ABEB" stroke-width="0.15" stroke-miterlimit="10" x1="-28.1" y1="18.483" x2="198.741" y2="18.483"/>
				
					<line fill="none" stroke="#00ABEB" stroke-width="0.15" stroke-miterlimit="10" x1="-26.112" y1="16.495" x2="200.728" y2="16.495"/>
				
					<line fill="none" stroke="#00ABEB" stroke-width="0.15" stroke-miterlimit="10" x1="-24.124" y1="14.507" x2="202.717" y2="14.507"/>
				
					<line fill="none" stroke="#00ABEB" stroke-width="0.15" stroke-miterlimit="10" x1="-22.136" y1="12.519" x2="204.705" y2="12.519"/>
				
					<line fill="none" stroke="#00ABEB" stroke-width="0.15" stroke-miterlimit="10" x1="-20.149" y1="10.531" x2="206.692" y2="10.531"/>
				
					<line fill="none" stroke="#00ABEB" stroke-width="0.15" stroke-miterlimit="10" x1="-18.16" y1="8.543" x2="208.68" y2="8.543"/>
				
					<line fill="none" stroke="#00ABEB" stroke-width="0.15" stroke-miterlimit="10" x1="-16.172" y1="6.555" x2="210.669" y2="6.555"/>
				
					<line fill="none" stroke="#00ABEB" stroke-width="0.15" stroke-miterlimit="10" x1="-14.185" y1="4.568" x2="212.656" y2="4.568"/>
				
					<line fill="none" stroke="#00ABEB" stroke-width="0.15" stroke-miterlimit="10" x1="-12.197" y1="2.58" x2="214.644" y2="2.58"/>
				
					<line fill="none" stroke="#00ABEB" stroke-width="0.15" stroke-miterlimit="10" x1="-10.208" y1="0.591" x2="216.632" y2="0.591"/>
				
					<line fill="none" stroke="#00ABEB" stroke-width="0.15" stroke-miterlimit="10" x1="-8.221" y1="-1.396" x2="218.62" y2="-1.396"/>
				
					<line fill="none" stroke="#00ABEB" stroke-width="0.15" stroke-miterlimit="10" x1="-6.233" y1="-3.385" x2="220.608" y2="-3.385"/>
				
					<line fill="none" stroke="#00ABEB" stroke-width="0.15" stroke-miterlimit="10" x1="-4.245" y1="-5.372" x2="222.596" y2="-5.372"/>
				
					<line fill="none" stroke="#00ABEB" stroke-width="0.15" stroke-miterlimit="10" x1="-2.257" y1="-7.36" x2="224.584" y2="-7.36"/>
				
					<line fill="none" stroke="#00ABEB" stroke-width="0.15" stroke-miterlimit="10" x1="-0.269" y1="-9.348" x2="226.572" y2="-9.348"/>
				
					<line fill="none" stroke="#00ABEB" stroke-width="0.15" stroke-miterlimit="10" x1="1.719" y1="-11.336" x2="228.56" y2="-11.336"/>
			</g>
			<g id="Vertical_1_mm_00000181073523592228201180000012361058669048395659_">
				<g>
					
						<line fill="none" stroke="#00ABEB" stroke-width="0.15" stroke-miterlimit="10" x1="-113.497" y1="103.954" x2="5.823" y2="-15.365"/>
				</g>
				
					<line fill="none" stroke="#00ABEB" stroke-width="0.15" stroke-miterlimit="10" x1="-110.663" y1="103.954" x2="8.657" y2="-15.365"/>
				
					<line fill="none" stroke="#00ABEB" stroke-width="0.15" stroke-miterlimit="10" x1="-107.828" y1="103.954" x2="11.492" y2="-15.365"/>
				
					<line fill="none" stroke="#00ABEB" stroke-width="0.15" stroke-miterlimit="10" x1="-104.993" y1="103.954" x2="14.327" y2="-15.365"/>
				
					<line fill="none" stroke="#00ABEB" stroke-width="0.15" stroke-miterlimit="10" x1="-102.159" y1="103.954" x2="17.161" y2="-15.365"/>
				
					<line fill="none" stroke="#00ABEB" stroke-width="0.15" stroke-miterlimit="10" x1="-99.324" y1="103.954" x2="19.996" y2="-15.365"/>
				
					<line fill="none" stroke="#00ABEB" stroke-width="0.15" stroke-miterlimit="10" x1="-96.489" y1="103.954" x2="22.831" y2="-15.365"/>
				
					<line fill="none" stroke="#00ABEB" stroke-width="0.15" stroke-miterlimit="10" x1="-93.655" y1="103.954" x2="25.665" y2="-15.365"/>
				
					<line fill="none" stroke="#00ABEB" stroke-width="0.15" stroke-miterlimit="10" x1="-90.82" y1="103.954" x2="28.5" y2="-15.365"/>
				
					<line fill="none" stroke="#00ABEB" stroke-width="0.15" stroke-miterlimit="10" x1="-87.986" y1="103.954" x2="31.334" y2="-15.365"/>
				
					<line fill="none" stroke="#00ABEB" stroke-width="0.15" stroke-miterlimit="10" x1="-85.151" y1="103.954" x2="34.169" y2="-15.365"/>
				
					<line fill="none" stroke="#00ABEB" stroke-width="0.15" stroke-miterlimit="10" x1="-82.316" y1="103.954" x2="37.004" y2="-15.365"/>
				
					<line fill="none" stroke="#00ABEB" stroke-width="0.15" stroke-miterlimit="10" x1="-79.482" y1="103.954" x2="39.838" y2="-15.365"/>
				
					<line fill="none" stroke="#00ABEB" stroke-width="0.15" stroke-miterlimit="10" x1="-76.647" y1="103.954" x2="42.673" y2="-15.365"/>
				
					<line fill="none" stroke="#00ABEB" stroke-width="0.15" stroke-miterlimit="10" x1="-73.812" y1="103.954" x2="45.508" y2="-15.365"/>
				
					<line fill="none" stroke="#00ABEB" stroke-width="0.15" stroke-miterlimit="10" x1="-70.978" y1="103.954" x2="48.342" y2="-15.365"/>
				
					<line fill="none" stroke="#00ABEB" stroke-width="0.15" stroke-miterlimit="10" x1="-68.143" y1="103.954" x2="51.177" y2="-15.365"/>
				
					<line fill="none" stroke="#00ABEB" stroke-width="0.15" stroke-miterlimit="10" x1="-65.308" y1="103.954" x2="54.012" y2="-15.365"/>
				
					<line fill="none" stroke="#00ABEB" stroke-width="0.15" stroke-miterlimit="10" x1="-62.474" y1="103.954" x2="56.846" y2="-15.365"/>
				
					<line fill="none" stroke="#00ABEB" stroke-width="0.15" stroke-miterlimit="10" x1="-59.639" y1="103.954" x2="59.681" y2="-15.365"/>
				
					<line fill="none" stroke="#00ABEB" stroke-width="0.15" stroke-miterlimit="10" x1="-56.804" y1="103.954" x2="62.516" y2="-15.365"/>
				
					<line fill="none" stroke="#00ABEB" stroke-width="0.15" stroke-miterlimit="10" x1="-53.97" y1="103.954" x2="65.35" y2="-15.365"/>
				
					<line fill="none" stroke="#00ABEB" stroke-width="0.15" stroke-miterlimit="10" x1="-51.135" y1="103.954" x2="68.185" y2="-15.365"/>
				
					<line fill="none" stroke="#00ABEB" stroke-width="0.15" stroke-miterlimit="10" x1="-48.3" y1="103.954" x2="71.02" y2="-15.365"/>
				
					<line fill="none" stroke="#00ABEB" stroke-width="0.15" stroke-miterlimit="10" x1="-45.466" y1="103.954" x2="73.854" y2="-15.365"/>
				
					<line fill="none" stroke="#00ABEB" stroke-width="0.15" stroke-miterlimit="10" x1="-42.631" y1="103.954" x2="76.689" y2="-15.365"/>
				
					<line fill="none" stroke="#00ABEB" stroke-width="0.15" stroke-miterlimit="10" x1="-39.797" y1="103.954" x2="79.523" y2="-15.365"/>
				
					<line fill="none" stroke="#00ABEB" stroke-width="0.15" stroke-miterlimit="10" x1="-36.962" y1="103.954" x2="82.358" y2="-15.365"/>
				
					<line fill="none" stroke="#00ABEB" stroke-width="0.15" stroke-miterlimit="10" x1="-34.127" y1="103.954" x2="85.193" y2="-15.365"/>
				
					<line fill="none" stroke="#00ABEB" stroke-width="0.15" stroke-miterlimit="10" x1="-31.293" y1="103.954" x2="88.027" y2="-15.365"/>
				
					<line fill="none" stroke="#00ABEB" stroke-width="0.15" stroke-miterlimit="10" x1="-28.458" y1="103.954" x2="90.862" y2="-15.365"/>
				
					<line fill="none" stroke="#00ABEB" stroke-width="0.15" stroke-miterlimit="10" x1="-25.623" y1="103.954" x2="93.697" y2="-15.365"/>
				
					<line fill="none" stroke="#00ABEB" stroke-width="0.15" stroke-miterlimit="10" x1="-22.789" y1="103.954" x2="96.531" y2="-15.365"/>
				
					<line fill="none" stroke="#00ABEB" stroke-width="0.15" stroke-miterlimit="10" x1="-19.954" y1="103.954" x2="99.366" y2="-15.365"/>
				
					<line fill="none" stroke="#00ABEB" stroke-width="0.15" stroke-miterlimit="10" x1="-17.119" y1="103.954" x2="102.201" y2="-15.365"/>
				
					<line fill="none" stroke="#00ABEB" stroke-width="0.15" stroke-miterlimit="10" x1="-14.285" y1="103.954" x2="105.035" y2="-15.365"/>
				
					<line fill="none" stroke="#00ABEB" stroke-width="0.15" stroke-miterlimit="10" x1="-11.45" y1="103.954" x2="107.87" y2="-15.365"/>
				
					<line fill="none" stroke="#00ABEB" stroke-width="0.15" stroke-miterlimit="10" x1="-8.615" y1="103.954" x2="110.705" y2="-15.365"/>
				
					<line fill="none" stroke="#00ABEB" stroke-width="0.15" stroke-miterlimit="10" x1="-5.781" y1="103.954" x2="113.539" y2="-15.365"/>
				
					<line fill="none" stroke="#00ABEB" stroke-width="0.15" stroke-miterlimit="10" x1="-2.946" y1="103.954" x2="116.374" y2="-15.365"/>
				
					<line fill="none" stroke="#00ABEB" stroke-width="0.15" stroke-miterlimit="10" x1="-0.112" y1="103.954" x2="119.208" y2="-15.365"/>
				
					<line fill="none" stroke="#00ABEB" stroke-width="0.15" stroke-miterlimit="10" x1="2.723" y1="103.954" x2="122.043" y2="-15.365"/>
				
					<line fill="none" stroke="#00ABEB" stroke-width="0.15" stroke-miterlimit="10" x1="5.558" y1="103.954" x2="124.878" y2="-15.365"/>
				
					<line fill="none" stroke="#00ABEB" stroke-width="0.15" stroke-miterlimit="10" x1="8.392" y1="103.954" x2="127.712" y2="-15.365"/>
				
					<line fill="none" stroke="#00ABEB" stroke-width="0.15" stroke-miterlimit="10" x1="11.227" y1="103.954" x2="130.547" y2="-15.365"/>
				
					<line fill="none" stroke="#00ABEB" stroke-width="0.15" stroke-miterlimit="10" x1="14.062" y1="103.954" x2="133.382" y2="-15.365"/>
				
					<line fill="none" stroke="#00ABEB" stroke-width="0.15" stroke-miterlimit="10" x1="16.896" y1="103.954" x2="136.216" y2="-15.365"/>
				
					<line fill="none" stroke="#00ABEB" stroke-width="0.15" stroke-miterlimit="10" x1="19.731" y1="103.954" x2="139.051" y2="-15.365"/>
				
					<line fill="none" stroke="#00ABEB" stroke-width="0.15" stroke-miterlimit="10" x1="22.566" y1="103.954" x2="141.886" y2="-15.365"/>
				
					<line fill="none" stroke="#00ABEB" stroke-width="0.15" stroke-miterlimit="10" x1="25.4" y1="103.954" x2="144.72" y2="-15.365"/>
				
					<line fill="none" stroke="#00ABEB" stroke-width="0.15" stroke-miterlimit="10" x1="28.235" y1="103.954" x2="147.555" y2="-15.365"/>
				
					<line fill="none" stroke="#00ABEB" stroke-width="0.15" stroke-miterlimit="10" x1="31.07" y1="103.954" x2="150.39" y2="-15.365"/>
				
					<line fill="none" stroke="#00ABEB" stroke-width="0.15" stroke-miterlimit="10" x1="33.904" y1="103.954" x2="153.224" y2="-15.365"/>
				
					<line fill="none" stroke="#00ABEB" stroke-width="0.15" stroke-miterlimit="10" x1="36.739" y1="103.954" x2="156.059" y2="-15.365"/>
				
					<line fill="none" stroke="#00ABEB" stroke-width="0.15" stroke-miterlimit="10" x1="39.574" y1="103.954" x2="158.894" y2="-15.365"/>
				
					<line fill="none" stroke="#00ABEB" stroke-width="0.15" stroke-miterlimit="10" x1="42.408" y1="103.954" x2="161.728" y2="-15.365"/>
				
					<line fill="none" stroke="#00ABEB" stroke-width="0.15" stroke-miterlimit="10" x1="45.243" y1="103.954" x2="164.563" y2="-15.365"/>
				
					<line fill="none" stroke="#00ABEB" stroke-width="0.15" stroke-miterlimit="10" x1="48.077" y1="103.954" x2="167.397" y2="-15.365"/>
				
					<line fill="none" stroke="#00ABEB" stroke-width="0.15" stroke-miterlimit="10" x1="50.912" y1="103.954" x2="170.232" y2="-15.365"/>
				
					<line fill="none" stroke="#00ABEB" stroke-width="0.15" stroke-miterlimit="10" x1="53.747" y1="103.954" x2="173.067" y2="-15.365"/>
				
					<line fill="none" stroke="#00ABEB" stroke-width="0.15" stroke-miterlimit="10" x1="56.581" y1="103.954" x2="175.901" y2="-15.365"/>
				
					<line fill="none" stroke="#00ABEB" stroke-width="0.15" stroke-miterlimit="10" x1="59.416" y1="103.954" x2="178.736" y2="-15.365"/>
				
					<line fill="none" stroke="#00ABEB" stroke-width="0.15" stroke-miterlimit="10" x1="62.251" y1="103.954" x2="181.571" y2="-15.365"/>
				
					<line fill="none" stroke="#00ABEB" stroke-width="0.15" stroke-miterlimit="10" x1="65.085" y1="103.954" x2="184.405" y2="-15.365"/>
				
					<line fill="none" stroke="#00ABEB" stroke-width="0.15" stroke-miterlimit="10" x1="67.92" y1="103.954" x2="187.24" y2="-15.365"/>
				
					<line fill="none" stroke="#00ABEB" stroke-width="0.15" stroke-miterlimit="10" x1="70.755" y1="103.954" x2="190.075" y2="-15.365"/>
				
					<line fill="none" stroke="#00ABEB" stroke-width="0.15" stroke-miterlimit="10" x1="73.589" y1="103.954" x2="192.909" y2="-15.365"/>
				
					<line fill="none" stroke="#00ABEB" stroke-width="0.15" stroke-miterlimit="10" x1="76.424" y1="103.954" x2="195.744" y2="-15.365"/>
				
					<line fill="none" stroke="#00ABEB" stroke-width="0.15" stroke-miterlimit="10" x1="79.259" y1="103.954" x2="198.579" y2="-15.365"/>
				
					<line fill="none" stroke="#00ABEB" stroke-width="0.15" stroke-miterlimit="10" x1="82.093" y1="103.954" x2="201.413" y2="-15.365"/>
				
					<line fill="none" stroke="#00ABEB" stroke-width="0.15" stroke-miterlimit="10" x1="84.928" y1="103.954" x2="204.248" y2="-15.365"/>
				
					<line fill="none" stroke="#00ABEB" stroke-width="0.15" stroke-miterlimit="10" x1="87.763" y1="103.954" x2="207.083" y2="-15.365"/>
				
					<line fill="none" stroke="#00ABEB" stroke-width="0.15" stroke-miterlimit="10" x1="90.597" y1="103.954" x2="209.917" y2="-15.365"/>
				
					<line fill="none" stroke="#00ABEB" stroke-width="0.15" stroke-miterlimit="10" x1="93.432" y1="103.954" x2="212.752" y2="-15.365"/>
				
					<line fill="none" stroke="#00ABEB" stroke-width="0.15" stroke-miterlimit="10" x1="96.266" y1="103.954" x2="215.586" y2="-15.365"/>
				
					<line fill="none" stroke="#00ABEB" stroke-width="0.15" stroke-miterlimit="10" x1="99.101" y1="103.954" x2="218.421" y2="-15.365"/>
				
					<line fill="none" stroke="#00ABEB" stroke-width="0.15" stroke-miterlimit="10" x1="101.936" y1="103.954" x2="221.256" y2="-15.365"/>
				
					<line fill="none" stroke="#00ABEB" stroke-width="0.15" stroke-miterlimit="10" x1="104.77" y1="103.954" x2="224.09" y2="-15.365"/>
				
					<line fill="none" stroke="#00ABEB" stroke-width="0.15" stroke-miterlimit="10" x1="107.605" y1="103.954" x2="226.925" y2="-15.365"/>
				
					<line fill="none" stroke="#00ABEB" stroke-width="0.15" stroke-miterlimit="10" x1="110.44" y1="103.954" x2="229.76" y2="-15.365"/>
				
					<line fill="none" stroke="#00ABEB" stroke-width="0.15" stroke-miterlimit="10" x1="113.274" y1="103.954" x2="232.594" y2="-15.365"/>
			</g>
			<g id="Horizontal_5_mm_00000011735556503592991880000008134099091165005186_">
				
					<line fill="none" stroke="#00ABEB" stroke-width="0.3" stroke-miterlimit="10" x1="-113.857" y1="103.964" x2="113.259" y2="103.964"/>
				
					<line fill="none" stroke="#00ABEB" stroke-width="0.3" stroke-miterlimit="10" x1="-103.917" y1="94.025" x2="123.199" y2="94.025"/>
				
					<line fill="none" stroke="#00ABEB" stroke-width="0.3" stroke-miterlimit="10" x1="-93.977" y1="84.085" x2="133.138" y2="84.085"/>
				
					<line fill="none" stroke="#00ABEB" stroke-width="0.3" stroke-miterlimit="10" x1="-84.037" y1="74.145" x2="143.078" y2="74.145"/>
				
					<line fill="none" stroke="#00ABEB" stroke-width="0.3" stroke-miterlimit="10" x1="-74.098" y1="64.205" x2="153.018" y2="64.205"/>
				
					<line fill="none" stroke="#00ABEB" stroke-width="0.3" stroke-miterlimit="10" x1="-64.158" y1="54.266" x2="162.958" y2="54.266"/>
				
					<line fill="none" stroke="#00ABEB" stroke-width="0.3" stroke-miterlimit="10" x1="-54.219" y1="44.326" x2="172.897" y2="44.326"/>
				
					<line fill="none" stroke="#00ABEB" stroke-width="0.3" stroke-miterlimit="10" x1="-44.278" y1="34.386" x2="182.837" y2="34.386"/>
				
					<line fill="none" stroke="#00ABEB" stroke-width="0.3" stroke-miterlimit="10" x1="-34.339" y1="24.446" x2="192.777" y2="24.446"/>
				
					<line fill="none" stroke="#00ABEB" stroke-width="0.3" stroke-miterlimit="10" x1="-24.399" y1="14.507" x2="202.717" y2="14.507"/>
				
					<line fill="none" stroke="#00ABEB" stroke-width="0.3" stroke-miterlimit="10" x1="-14.46" y1="4.568" x2="212.656" y2="4.568"/>
			</g>
			<g id="Vertical_5_mm_00000064346364918789686960000003233481195482251947_">
				
					<line fill="none" stroke="#00ABEB" stroke-width="0.3" stroke-miterlimit="10" x1="-113.497" y1="103.954" x2="6.016" y2="-15.558"/>
				
					<line fill="none" stroke="#00ABEB" stroke-width="0.3" stroke-miterlimit="10" x1="-99.324" y1="103.954" x2="20.189" y2="-15.558"/>
				
					<line fill="none" stroke="#00ABEB" stroke-width="0.3" stroke-miterlimit="10" x1="-85.151" y1="103.954" x2="34.362" y2="-15.558"/>
				
					<line fill="none" stroke="#00ABEB" stroke-width="0.3" stroke-miterlimit="10" x1="-70.978" y1="103.954" x2="48.535" y2="-15.558"/>
				
					<line fill="none" stroke="#00ABEB" stroke-width="0.3" stroke-miterlimit="10" x1="-56.804" y1="103.954" x2="62.709" y2="-15.558"/>
				
					<line fill="none" stroke="#00ABEB" stroke-width="0.3" stroke-miterlimit="10" x1="-42.631" y1="103.954" x2="76.882" y2="-15.558"/>
				
					<line fill="none" stroke="#00ABEB" stroke-width="0.3" stroke-miterlimit="10" x1="-28.458" y1="103.954" x2="91.055" y2="-15.558"/>
				
					<line fill="none" stroke="#00ABEB" stroke-width="0.3" stroke-miterlimit="10" x1="-14.285" y1="103.954" x2="105.228" y2="-15.558"/>
				
					<line fill="none" stroke="#00ABEB" stroke-width="0.3" stroke-miterlimit="10" x1="-0.112" y1="103.954" x2="119.401" y2="-15.558"/>
				
					<line fill="none" stroke="#00ABEB" stroke-width="0.3" stroke-miterlimit="10" x1="14.062" y1="103.954" x2="133.575" y2="-15.558"/>
				
					<line fill="none" stroke="#00ABEB" stroke-width="0.3" stroke-miterlimit="10" x1="28.235" y1="103.954" x2="147.748" y2="-15.558"/>
				
					<line fill="none" stroke="#00ABEB" stroke-width="0.3" stroke-miterlimit="10" x1="42.408" y1="103.954" x2="161.921" y2="-15.558"/>
				
					<line fill="none" stroke="#00ABEB" stroke-width="0.3" stroke-miterlimit="10" x1="56.581" y1="103.954" x2="176.094" y2="-15.558"/>
				
					<line fill="none" stroke="#00ABEB" stroke-width="0.3" stroke-miterlimit="10" x1="70.755" y1="103.954" x2="190.268" y2="-15.558"/>
				
					<line fill="none" stroke="#00ABEB" stroke-width="0.3" stroke-miterlimit="10" x1="84.928" y1="103.954" x2="204.441" y2="-15.558"/>
				
					<line fill="none" stroke="#00ABEB" stroke-width="0.3" stroke-miterlimit="10" x1="99.101" y1="103.954" x2="218.614" y2="-15.558"/>
				
					<line fill="none" stroke="#00ABEB" stroke-width="0.3" stroke-miterlimit="10" x1="113.274" y1="103.954" x2="232.787" y2="-15.558"/>
			</g>
			<g id="Horizontal_10_mm_00000163045836177147705350000008480455355013810362_">
				
					<line id="_x31_9_00000057116790517712807720000015084113881736219806_" fill="none" stroke="#00ABEB" stroke-width="0.7" stroke-miterlimit="10" x1="-113.857" y1="103.964" x2="113.259" y2="103.964"/>
				
					<line id="_x32_0_00000024685878617286333290000013167547815532084100_" fill="none" stroke="#00ABEB" stroke-width="0.7" stroke-miterlimit="10" x1="-93.977" y1="84.085" x2="133.138" y2="84.085"/>
				
					<line id="_x32_1_00000138564813020868535020000012777939180148238773_" fill="none" stroke="#00ABEB" stroke-width="0.7" stroke-miterlimit="10" x1="-74.098" y1="64.205" x2="153.018" y2="64.205"/>
				
					<line id="_x32_2_00000052807586205252870140000014502512662559454639_" fill="none" stroke="#00ABEB" stroke-width="0.7" stroke-miterlimit="10" x1="-54.219" y1="44.326" x2="172.897" y2="44.326"/>
				
					<line id="_x32_3_00000051376893246677475670000009295515732899575694_" fill="none" stroke="#00ABEB" stroke-width="0.7" stroke-miterlimit="10" x1="-34.339" y1="24.446" x2="192.777" y2="24.446"/>
				
					<line id="_x32_4_00000099657911357833521510000007853591198542098087_" fill="none" stroke="#00ABEB" stroke-width="0.7" stroke-miterlimit="10" x1="-14.46" y1="4.568" x2="212.656" y2="4.568"/>
				
					<line id="_x32_5_00000155127691660191171140000008292164438978366870_" fill="none" stroke="#00ABEB" stroke-width="0.7" stroke-miterlimit="10" x1="5.42" y1="-15.312" x2="232.536" y2="-15.312"/>
			</g>
			<g id="Vertical_10_mm_00000134969164297783457920000010833503864539426239_">
				
					<line id="_x30__00000151539528360119995570000005083818057555393183_" fill="none" stroke="#00ABEB" stroke-width="0.7" stroke-miterlimit="10" x1="-113.497" y1="103.954" x2="6.016" y2="-15.558"/>
				
					<line id="_x31__00000021823889366233599640000011971139016478256513_" fill="none" stroke="#00ABEB" stroke-width="0.7" stroke-miterlimit="10" x1="-85.151" y1="103.954" x2="34.362" y2="-15.558"/>
				
					<line id="_x32__00000071550223824624162640000006130814236846722696_" fill="none" stroke="#00ABEB" stroke-width="0.7" stroke-miterlimit="10" x1="-56.804" y1="103.954" x2="62.709" y2="-15.558"/>
				
					<line id="_x33__00000042015976804734918030000005045165563697445304_" fill="none" stroke="#00ABEB" stroke-width="0.7" stroke-miterlimit="10" x1="-28.458" y1="103.954" x2="91.055" y2="-15.558"/>
				
					<line id="_x34__00000081637789328126233800000002486991317463304126_" fill="none" stroke="#00ABEB" stroke-width="0.7" stroke-miterlimit="10" x1="-0.112" y1="103.954" x2="119.401" y2="-15.558"/>
				
					<line id="_x35__00000051353690731882489090000004794744233340785543_" fill="none" stroke="#00ABEB" stroke-width="0.7" stroke-miterlimit="10" x1="28.235" y1="103.954" x2="147.748" y2="-15.558"/>
				
					<line id="_x36__00000011745311307505536660000010485558803267122343_" fill="none" stroke="#00ABEB" stroke-width="0.7" stroke-miterlimit="10" x1="56.581" y1="103.954" x2="176.094" y2="-15.558"/>
				
					<line id="_x37__00000045602144989735358580000003937589459941247142_" fill="none" stroke="#00ABEB" stroke-width="0.7" stroke-miterlimit="10" x1="84.928" y1="103.954" x2="204.441" y2="-15.558"/>
				
					<line id="_x38__00000047029857857898873560000014194396358708286345_" fill="none" stroke="#00ABEB" stroke-width="0.7" stroke-miterlimit="10" x1="113.274" y1="103.954" x2="232.787" y2="-15.558"/>
			</g>
		</g>
	</g>
</g>
<g id="base">
	<polygon display="none" opacity="0.05" fill="#00A300" points="71.086,24.446 87.864,24.446 107.899,24.446 108.136,24.446 
		68.377,64.205 67.984,64.205 11.291,64.205 51.051,24.446 	"/>
	<g display="none">
		<g display="inline">
			
				<line fill="none" stroke="#FF0000" stroke-width="0.5" stroke-linecap="round" stroke-linejoin="round" x1="87.863" y1="44.326" x2="87.863" y2="28.205"/>
			<g>
				<polygon fill="#FF0000" points="89.908,29.862 89.542,30.203 87.864,28.397 86.185,30.203 85.819,29.862 87.864,27.663 				"/>
			</g>
		</g>
	</g>
	<g display="none">
		<path display="inline" fill="#FF0000" d="M83.578,32.89l-0.21-0.02c0.03-0.22,0.03-0.27,0.03-0.33c0-0.73-0.23-0.86-1.989-0.86
			c-0.46,0-0.61,0.06-0.68,0.32l-0.64,2.269c1.679-0.02,1.709-0.04,2.159-0.939l0.18,0.05l-0.759,2.349l-0.17-0.05
			c0.06-0.31,0.08-0.45,0.08-0.61c0-0.399-0.28-0.439-0.75-0.439c-0.22,0-0.459-0.01-0.829-0.03l-0.59,2.129
			c-0.07,0.25-0.14,0.45-0.14,0.6c0,0.24,0.18,0.35,0.77,0.39v0.16h-2.508v-0.16c0.58-0.04,0.68-0.26,0.83-0.779l1.229-4.417
			c0.07-0.25,0.1-0.45,0.1-0.61c0-0.28-0.1-0.34-0.76-0.4v-0.16h4.967L83.578,32.89z"/>
	</g>
	<g display="none">
		<g display="inline">
			
				<line fill="none" stroke="#FF0000" stroke-width="0.4" stroke-linecap="round" stroke-linejoin="round" x1="79.18" y1="29.153" x2="83.882" y2="29.153"/>
			<g>
				<polygon fill="#FF0000" points="82.557,30.789 82.284,30.496 83.729,29.154 82.284,27.811 82.557,27.518 84.316,29.154 				"/>
			</g>
		</g>
	</g>
	<g display="none">
		<path display="inline" fill="#FF0000" d="M41.491,51.567l-0.21-0.02c0.03-0.22,0.03-0.27,0.03-0.33c0-0.73-0.23-0.86-1.989-0.86
			c-0.46,0-0.61,0.06-0.68,0.32l-0.64,2.269c1.679-0.02,1.709-0.04,2.159-0.939l0.18,0.05l-0.759,2.349l-0.17-0.05
			c0.06-0.31,0.08-0.45,0.08-0.61c0-0.399-0.28-0.439-0.75-0.439c-0.22,0-0.459-0.01-0.829-0.03l-0.59,2.129
			c-0.07,0.25-0.14,0.45-0.14,0.6c0,0.24,0.18,0.35,0.77,0.39v0.16h-2.508v-0.16c0.58-0.04,0.68-0.26,0.83-0.779l1.229-4.417
			c0.07-0.25,0.1-0.45,0.1-0.61c0-0.28-0.1-0.34-0.76-0.4v-0.16h4.967L41.491,51.567z"/>
	</g>
	<g display="none">
		<g display="inline">
			
				<line fill="none" stroke="#FF0000" stroke-width="0.4" stroke-linecap="round" stroke-linejoin="round" x1="37.093" y1="47.831" x2="41.795" y2="47.831"/>
			<g>
				<polygon fill="#FF0000" points="40.47,49.467 40.197,49.174 41.642,47.831 40.197,46.488 40.47,46.195 42.229,47.831 				"/>
			</g>
		</g>
	</g>
	<g display="none">
		<path display="inline" fill="#FF00FF" d="M84.809,10.564v-0.19c0.36,0,0.43-0.02,0.55-0.09c0.08-0.04,0.14-0.15,0.14-0.24
			c0-0.15-0.07-0.42-0.19-0.7l-0.41-0.939H82.28L81.82,9.545c-0.05,0.13-0.09,0.3-0.09,0.42c0,0.31,0.22,0.41,0.7,0.41v0.19h-1.989
			v-0.19c0.58-0.06,0.669-0.27,1.259-1.669l2.059-4.877h0.2l2.458,5.627c0.28,0.649,0.42,0.859,0.939,0.919v0.19H84.809z
			 M83.599,5.248L82.45,7.996h2.309L83.599,5.248z"/>
	</g>
	<g display="none">
		<path display="inline" fill="#FF00FF" d="M102.391,7.086c0.66,0.11,0.929,0.29,1.219,0.55c0.32,0.29,0.49,0.709,0.49,1.149
			c0,1.109-0.939,1.779-2.389,1.779h-3.368v-0.19c0.79-0.02,0.959-0.18,0.959-0.939V5.067c0-0.79-0.15-0.879-0.959-0.929v-0.19
			h2.798c1.729,0,2.619,0.609,2.619,1.669c0,0.41-0.16,0.819-0.41,1.04c-0.24,0.21-0.44,0.29-0.959,0.419V7.086z M101.242,6.906
			c1.009,0,1.499-0.41,1.499-1.239c0-0.839-0.58-1.349-1.769-1.349h-0.41c-0.17,0-0.24,0.09-0.24,0.32v2.269H101.242z
			 M100.322,9.745c0,0.34,0.16,0.45,0.62,0.45c0.839,0,1.189-0.04,1.629-0.43c0.25-0.22,0.38-0.56,0.38-0.989
			c0-0.479-0.14-0.85-0.47-1.069c-0.6-0.4-0.979-0.36-2.159-0.4V9.745z"/>
	</g>
	<g>
		<g>
			<line fill="none" stroke="#00A300" stroke-width="0.2" stroke-miterlimit="10" x1="92.6" y1="11.244" x2="91.539" y2="12.305"/>
			
				<line fill="none" stroke="#00A300" stroke-width="0.2" stroke-miterlimit="10" stroke-dasharray="2.9324,2.9324" x1="89.466" y1="14.378" x2="32.443" y2="71.401"/>
			
				<line fill="none" stroke="#00A300" stroke-width="0.2" stroke-miterlimit="10" x1="31.406" y1="72.437" x2="30.346" y2="73.498"/>
		</g>
	</g>
</g>
<g id="one">
	
		<linearGradient id="SVGID_00000139288300034051090770000006137300321571197071_" gradientUnits="userSpaceOnUse" x1="67.6269" y1="44.326" x2="108.8861" y2="44.326">
		<stop  offset="0" style="stop-color:#B20000"/>
		<stop  offset="1" style="stop-color:#4C0000"/>
	</linearGradient>
	
		<line fill="none" stroke="url(#SVGID_00000139288300034051090770000006137300321571197071_)" stroke-width="1.5" stroke-linecap="round" stroke-linejoin="round" stroke-miterlimit="10" x1="108.136" y1="24.446" x2="68.377" y2="64.205"/>
	
		<polyline fill="none" stroke="#4C0000" stroke-width="1.5" stroke-linecap="round" stroke-linejoin="round" stroke-miterlimit="10" points="
		51.051,24.446 74.083,24.446 86.011,12.519 	"/>
	
		<linearGradient id="SVGID_00000150821460000422279220000013592308477848599700_" gradientUnits="userSpaceOnUse" x1="10.5416" y1="44.326" x2="51.8009" y2="44.326">
		<stop  offset="0" style="stop-color:#B20000"/>
		<stop  offset="1" style="stop-color:#4C0000"/>
	</linearGradient>
	
		<line fill="none" stroke="url(#SVGID_00000150821460000422279220000013592308477848599700_)" stroke-width="1.5" stroke-linecap="round" stroke-linejoin="round" stroke-miterlimit="10" x1="11.292" y1="64.205" x2="51.051" y2="24.446"/>
	
		<polyline fill="none" stroke="#4C0000" stroke-width="1.5" stroke-linecap="round" stroke-linejoin="round" stroke-miterlimit="10" points="
		96.316,12.519 84.389,24.446 108.136,24.446 	"/>
	
		<line fill="none" stroke="#B20000" stroke-width="1.5" stroke-linecap="round" stroke-linejoin="round" stroke-miterlimit="10" x1="11.292" y1="64.205" x2="68.377" y2="64.205"/>
	<g>
		<g>
			<path fill="none" stroke="#000000" stroke-width="0.4809" stroke-miterlimit="10" d="M44.003,68.816
				c-1.182,1.046-2.766,1.661-4.487,1.603c-3.513-0.119-6.267-2.996-6.151-6.428c0.116-3.431,3.058-6.117,6.571-5.999
				s6.267,2.996,6.151,6.428"/>
			<g>
				<polygon points="41.505,68.17 41.457,68.649 43.817,68.882 43.412,71.219 43.886,71.3 44.379,68.454 				"/>
			</g>
		</g>
	</g>
	<g>
		<path d="M52.886,68.059c0.769,0,1.387,0.151,1.794,0.498c0.498,0.422,0.678,1.101,0.678,1.824c0,0.814-0.256,1.583-0.648,2.321
			c-0.799,1.493-1.96,2.141-2.925,2.141c-1.176,0-1.478-0.543-1.719-1.07c-0.588,0.708-1.146,1.07-2.216,1.07
			c-0.965,0-1.944-0.633-1.944-2.126c0-0.407,0.045-0.814,0.15-1.221c0.498-1.824,2.05-3.437,4.176-3.437h0.271V68.3
			c-0.769,0-1.447,0.271-2.02,0.98c-0.753,0.95-1.312,2.578-1.312,3.829c0,1.04,0.377,1.417,0.859,1.417
			c0.678,0,1.553-0.844,1.839-1.673c-0.03-0.226-0.045-0.558-0.045-0.769c0-0.377,0.061-0.845,0.181-1.297
			c0.211-0.784,0.663-1.507,1.221-1.507c0.362,0,0.528,0.286,0.528,0.693c0,0.678-0.301,1.628-0.633,2.201
			c-0.121,0.211-0.316,0.542-0.467,0.769c-0.03,0.106-0.03,0.211-0.03,0.317c0,0.648,0.347,1.266,0.979,1.266
			c0.844,0,1.433-0.708,1.764-1.327c0.467-0.874,0.724-2.201,0.724-3.166c0-0.271-0.015-0.693-0.076-0.919
			c-0.181-0.708-0.769-0.814-1.402-0.814v-0.241H52.886z"/>
	</g>
	<g>
		<path fill="#B20000" d="M78.034,67.513v-0.096c0.498-0.026,0.639-0.161,0.639-0.514v-2.884c0-0.218-0.061-0.315-0.202-0.315
			c-0.067,0-0.182,0.032-0.303,0.077l-0.182,0.064v-0.09l1.205-0.585l0.061,0.02v3.835c0,0.276,0.134,0.392,0.639,0.392v0.096
			H78.034z"/>
	</g>
	<circle fill="none" stroke="#B20000" stroke-width="0.6419" stroke-miterlimit="10" cx="78.989" cy="65.393" r="3.452"/>
</g>
<g id="two" display="none">
	
		<linearGradient id="SVGID_00000130626858551215986800000006682551848245253564_" gradientUnits="userSpaceOnUse" x1="53.3556" y1="68.7985" x2="94.6148" y2="68.7985">
		<stop  offset="0" style="stop-color:#00B200"/>
		<stop  offset="1" style="stop-color:#004C00"/>
	</linearGradient>
	
		<line display="inline" fill="none" stroke="url(#SVGID_00000130626858551215986800000006682551848245253564_)" stroke-width="1.5" stroke-linecap="round" stroke-linejoin="round" stroke-miterlimit="10" x1="93.865" y1="48.919" x2="54.106" y2="88.678"/>
	
		<line display="inline" fill="none" stroke="#004C00" stroke-width="1.5" stroke-linecap="round" stroke-linejoin="round" stroke-miterlimit="10" x1="77.196" y1="20.294" x2="89.123" y2="8.366"/>
	
		<line display="inline" fill="none" stroke="#004C00" stroke-width="1.5" stroke-linecap="round" stroke-linejoin="round" stroke-miterlimit="10" x1="93.865" y1="49.165" x2="82.349" y2="29.219"/>
	
		<line display="inline" fill="none" stroke="#00B200" stroke-width="1.5" stroke-linecap="round" stroke-linejoin="round" stroke-miterlimit="10" x1="25.563" y1="39.487" x2="54.106" y2="88.924"/>
	
		<linearGradient id="SVGID_00000141453087358501488920000015383184038271806122_" gradientUnits="userSpaceOnUse" x1="24.8129" y1="19.6073" x2="66.0722" y2="19.6073">
		<stop  offset="0" style="stop-color:#00B200"/>
		<stop  offset="1" style="stop-color:#004C00"/>
	</linearGradient>
	
		<line display="inline" fill="none" stroke="url(#SVGID_00000141453087358501488920000015383184038271806122_)" stroke-width="1.5" stroke-linecap="round" stroke-linejoin="round" stroke-miterlimit="10" x1="25.563" y1="39.487" x2="65.322" y2="-0.272"/>
	
		<line display="inline" fill="none" stroke="#004C00" stroke-width="1.5" stroke-linecap="round" stroke-linejoin="round" stroke-miterlimit="10" x1="77.196" y1="20.294" x2="65.322" y2="-0.272"/>
	
		<line display="inline" fill="none" stroke="#004C00" stroke-width="1.5" stroke-linecap="round" stroke-linejoin="round" stroke-miterlimit="10" x1="94.276" y1="17.291" x2="82.349" y2="29.219"/>
</g>
<g id="three" display="none">
	
		<linearGradient id="SVGID_00000086675398048469746540000009597236052460151964_" gradientUnits="userSpaceOnUse" x1="24.7927" y1="68.9726" x2="66.0519" y2="68.9726">
		<stop  offset="0" style="stop-color:#B2B2FF"/>
		<stop  offset="1" style="stop-color:#4C4CFF"/>
	</linearGradient>
	
		<line display="inline" fill="none" stroke="url(#SVGID_00000086675398048469746540000009597236052460151964_)" stroke-width="1.5" stroke-linecap="round" stroke-linejoin="round" stroke-miterlimit="10" x1="65.302" y1="49.093" x2="25.543" y2="88.852"/>
	
		<line display="inline" fill="none" stroke="#4C4CFF" stroke-width="1.5" stroke-linecap="round" stroke-linejoin="round" stroke-miterlimit="10" x1="82.453" y1="19.62" x2="94.381" y2="7.693"/>
	
		<line display="inline" fill="none" stroke="#4C4CFF" stroke-width="1.5" stroke-linecap="round" stroke-linejoin="round" stroke-miterlimit="10" x1="93.865" y1="-0.272" x2="82.349" y2="19.674"/>
	
		<line display="inline" fill="none" stroke="#B2B2FF" stroke-width="1.5" stroke-linecap="round" stroke-linejoin="round" stroke-miterlimit="10" x1="25.563" y1="88.924" x2="54.106" y2="39.487"/>
	
		<linearGradient id="SVGID_00000072968629334935399360000015818475074216197558_" gradientUnits="userSpaceOnUse" x1="53.3421" y1="19.654" x2="94.6013" y2="19.654">
		<stop  offset="0" style="stop-color:#B2B2FF"/>
		<stop  offset="1" style="stop-color:#4C4CFF"/>
	</linearGradient>
	
		<line display="inline" fill="none" stroke="url(#SVGID_00000072968629334935399360000015818475074216197558_)" stroke-width="1.5" stroke-linecap="round" stroke-linejoin="round" stroke-miterlimit="10" x1="54.092" y1="39.534" x2="93.851" y2="-0.225"/>
	
		<line display="inline" fill="none" stroke="#4C4CFF" stroke-width="1.5" stroke-linecap="round" stroke-linejoin="round" stroke-miterlimit="10" x1="77.196" y1="28.599" x2="65.322" y2="49.165"/>
	
		<line display="inline" fill="none" stroke="#4C4CFF" stroke-width="1.5" stroke-linecap="round" stroke-linejoin="round" stroke-miterlimit="10" x1="89.181" y1="16.703" x2="77.253" y2="28.63"/>
</g>
</svg>
