<?xml version="1.0" encoding="utf-8"?>
<!-- Generator: Adobe Illustrator 26.0.1, SVG Export Plug-In . SVG Version: 6.00 Build 0)  -->
<svg version="1.1" xmlns="http://www.w3.org/2000/svg" xmlns:xlink="http://www.w3.org/1999/xlink" x="0px" y="0px"
	 viewBox="0 0 215.853 174.037" enable-background="new 0 0 215.853 174.037" xml:space="preserve">
<g id="Layer_8" opacity="0.5">
	<g id="Clipped_grid">
		<defs>
			<rect id="SVGID_1_" x="-102.847" y="-18.429" width="499.436" height="272.443"/>
		</defs>
		<clipPath id="SVGID_00000158030166627255091820000001097276411660005508_">
			<use xlink:href="#SVGID_1_"  overflow="visible"/>
		</clipPath>
		
			<g id="Grid_00000060005542146034257920000005065612243763103930_" opacity="0.25" clip-path="url(#SVGID_00000158030166627255091820000001097276411660005508_)">
			<g id="Horizontal_1_mm">
				
					<line fill="none" stroke="#00ABEB" stroke-width="0.2111" stroke-miterlimit="10" x1="-139.214" y1="-176.909" x2="662.745" y2="-176.909"/>
				
					<line fill="none" stroke="#00ABEB" stroke-width="0.2111" stroke-miterlimit="10" x1="-139.214" y1="-186.932" x2="662.745" y2="-186.932"/>
				
					<line fill="none" stroke="#00ABEB" stroke-width="0.2111" stroke-miterlimit="10" x1="-139.214" y1="414.355" x2="662.745" y2="414.355"/>
				
					<line fill="none" stroke="#00ABEB" stroke-width="0.2111" stroke-miterlimit="10" x1="-139.214" y1="404.332" x2="662.745" y2="404.332"/>
				
					<line fill="none" stroke="#00ABEB" stroke-width="0.2111" stroke-miterlimit="10" x1="-139.214" y1="394.313" x2="662.745" y2="394.313"/>
				
					<line fill="none" stroke="#00ABEB" stroke-width="0.2111" stroke-miterlimit="10" x1="-139.214" y1="384.291" x2="662.745" y2="384.291"/>
				
					<line fill="none" stroke="#00ABEB" stroke-width="0.2111" stroke-miterlimit="10" x1="-139.214" y1="374.268" x2="662.745" y2="374.268"/>
				
					<line fill="none" stroke="#00ABEB" stroke-width="0.2111" stroke-miterlimit="10" x1="-139.214" y1="364.249" x2="662.745" y2="364.249"/>
				
					<line fill="none" stroke="#00ABEB" stroke-width="0.2111" stroke-miterlimit="10" x1="-139.214" y1="354.227" x2="662.745" y2="354.227"/>
				
					<line fill="none" stroke="#00ABEB" stroke-width="0.2111" stroke-miterlimit="10" x1="-139.214" y1="344.208" x2="662.745" y2="344.208"/>
				
					<line fill="none" stroke="#00ABEB" stroke-width="0.2111" stroke-miterlimit="10" x1="-139.214" y1="334.183" x2="662.745" y2="334.183"/>
				
					<line fill="none" stroke="#00ABEB" stroke-width="0.2111" stroke-miterlimit="10" x1="-139.214" y1="324.161" x2="662.745" y2="324.161"/>
				
					<line fill="none" stroke="#00ABEB" stroke-width="0.2111" stroke-miterlimit="10" x1="-139.214" y1="314.142" x2="662.745" y2="314.142"/>
				
					<line fill="none" stroke="#00ABEB" stroke-width="0.2111" stroke-miterlimit="10" x1="-139.214" y1="304.119" x2="662.745" y2="304.119"/>
				
					<line fill="none" stroke="#00ABEB" stroke-width="0.2111" stroke-miterlimit="10" x1="-139.214" y1="294.097" x2="662.745" y2="294.097"/>
				
					<line fill="none" stroke="#00ABEB" stroke-width="0.2111" stroke-miterlimit="10" x1="-139.214" y1="284.078" x2="662.745" y2="284.078"/>
				
					<line fill="none" stroke="#00ABEB" stroke-width="0.2111" stroke-miterlimit="10" x1="-139.214" y1="274.055" x2="662.745" y2="274.055"/>
				
					<line fill="none" stroke="#00ABEB" stroke-width="0.2111" stroke-miterlimit="10" x1="-139.214" y1="264.033" x2="662.745" y2="264.033"/>
				
					<line fill="none" stroke="#00ABEB" stroke-width="0.2111" stroke-miterlimit="10" x1="-139.214" y1="254.014" x2="662.745" y2="254.014"/>
				
					<line fill="none" stroke="#00ABEB" stroke-width="0.2111" stroke-miterlimit="10" x1="-139.214" y1="243.991" x2="662.745" y2="243.991"/>
				
					<line fill="none" stroke="#00ABEB" stroke-width="0.2111" stroke-miterlimit="10" x1="-139.214" y1="233.968" x2="662.745" y2="233.968"/>
				
					<line fill="none" stroke="#00ABEB" stroke-width="0.2111" stroke-miterlimit="10" x1="-139.214" y1="223.949" x2="662.745" y2="223.949"/>
				
					<line fill="none" stroke="#00ABEB" stroke-width="0.2111" stroke-miterlimit="10" x1="-139.214" y1="213.927" x2="662.745" y2="213.927"/>
				
					<line fill="none" stroke="#00ABEB" stroke-width="0.2111" stroke-miterlimit="10" x1="-139.214" y1="203.903" x2="662.745" y2="203.903"/>
				
					<line fill="none" stroke="#00ABEB" stroke-width="0.2111" stroke-miterlimit="10" x1="-139.214" y1="193.883" x2="662.745" y2="193.883"/>
				
					<line fill="none" stroke="#00ABEB" stroke-width="0.2111" stroke-miterlimit="10" x1="-139.214" y1="183.861" x2="662.745" y2="183.861"/>
				
					<line fill="none" stroke="#00ABEB" stroke-width="0.2111" stroke-miterlimit="10" x1="-139.214" y1="173.842" x2="662.745" y2="173.842"/>
				
					<line fill="none" stroke="#00ABEB" stroke-width="0.2111" stroke-miterlimit="10" x1="-139.214" y1="163.819" x2="662.745" y2="163.819"/>
				
					<line fill="none" stroke="#00ABEB" stroke-width="0.2111" stroke-miterlimit="10" x1="-139.214" y1="153.797" x2="662.745" y2="153.797"/>
				
					<line fill="none" stroke="#00ABEB" stroke-width="0.2111" stroke-miterlimit="10" x1="-139.214" y1="143.777" x2="662.745" y2="143.777"/>
				
					<line fill="none" stroke="#00ABEB" stroke-width="0.2111" stroke-miterlimit="10" x1="-139.214" y1="133.755" x2="662.745" y2="133.755"/>
				
					<line fill="none" stroke="#00ABEB" stroke-width="0.2111" stroke-miterlimit="10" x1="-139.214" y1="123.732" x2="662.745" y2="123.732"/>
				
					<line fill="none" stroke="#00ABEB" stroke-width="0.2111" stroke-miterlimit="10" x1="-139.214" y1="113.713" x2="662.745" y2="113.713"/>
				
					<line fill="none" stroke="#00ABEB" stroke-width="0.2111" stroke-miterlimit="10" x1="-139.214" y1="103.691" x2="662.745" y2="103.691"/>
				
					<line fill="none" stroke="#00ABEB" stroke-width="0.2111" stroke-miterlimit="10" x1="-139.214" y1="93.668" x2="662.745" y2="93.668"/>
				
					<line fill="none" stroke="#00ABEB" stroke-width="0.2111" stroke-miterlimit="10" x1="-139.214" y1="83.649" x2="662.745" y2="83.649"/>
				
					<line fill="none" stroke="#00ABEB" stroke-width="0.2111" stroke-miterlimit="10" x1="-139.214" y1="73.627" x2="662.745" y2="73.627"/>
				
					<line fill="none" stroke="#00ABEB" stroke-width="0.2111" stroke-miterlimit="10" x1="-139.214" y1="63.604" x2="662.745" y2="63.604"/>
				
					<line fill="none" stroke="#00ABEB" stroke-width="0.2111" stroke-miterlimit="10" x1="-139.214" y1="53.585" x2="662.745" y2="53.585"/>
				
					<line fill="none" stroke="#00ABEB" stroke-width="0.2111" stroke-miterlimit="10" x1="-139.214" y1="43.562" x2="662.745" y2="43.562"/>
				
					<line fill="none" stroke="#00ABEB" stroke-width="0.2111" stroke-miterlimit="10" x1="-139.214" y1="33.54" x2="662.745" y2="33.54"/>
				
					<line fill="none" stroke="#00ABEB" stroke-width="0.2111" stroke-miterlimit="10" x1="-139.214" y1="23.521" x2="662.745" y2="23.521"/>
				
					<line fill="none" stroke="#00ABEB" stroke-width="0.2111" stroke-miterlimit="10" x1="-139.214" y1="13.496" x2="662.745" y2="13.496"/>
				
					<line fill="none" stroke="#00ABEB" stroke-width="0.2111" stroke-miterlimit="10" x1="-139.214" y1="3.478" x2="662.745" y2="3.478"/>
				
					<line fill="none" stroke="#00ABEB" stroke-width="0.2111" stroke-miterlimit="10" x1="-139.214" y1="-6.545" x2="662.745" y2="-6.545"/>
				
					<line fill="none" stroke="#00ABEB" stroke-width="0.2111" stroke-miterlimit="10" x1="-139.214" y1="-16.568" x2="662.745" y2="-16.568"/>
				
					<line fill="none" stroke="#00ABEB" stroke-width="0.2111" stroke-miterlimit="10" x1="-139.214" y1="-26.587" x2="662.745" y2="-26.587"/>
				
					<line fill="none" stroke="#00ABEB" stroke-width="0.2111" stroke-miterlimit="10" x1="-139.214" y1="-36.609" x2="662.745" y2="-36.609"/>
				
					<line fill="none" stroke="#00ABEB" stroke-width="0.2111" stroke-miterlimit="10" x1="-139.214" y1="-46.632" x2="662.745" y2="-46.632"/>
				
					<line fill="none" stroke="#00ABEB" stroke-width="0.2111" stroke-miterlimit="10" x1="-139.214" y1="-56.651" x2="662.745" y2="-56.651"/>
				
					<line fill="none" stroke="#00ABEB" stroke-width="0.2111" stroke-miterlimit="10" x1="-139.214" y1="-66.673" x2="662.745" y2="-66.673"/>
				
					<line fill="none" stroke="#00ABEB" stroke-width="0.2111" stroke-miterlimit="10" x1="-139.214" y1="-76.696" x2="662.745" y2="-76.696"/>
				
					<line fill="none" stroke="#00ABEB" stroke-width="0.2111" stroke-miterlimit="10" x1="-139.214" y1="-86.715" x2="662.745" y2="-86.715"/>
				
					<line fill="none" stroke="#00ABEB" stroke-width="0.2111" stroke-miterlimit="10" x1="-139.214" y1="-96.737" x2="662.745" y2="-96.737"/>
				
					<line fill="none" stroke="#00ABEB" stroke-width="0.2111" stroke-miterlimit="10" x1="-139.214" y1="-106.76" x2="662.745" y2="-106.76"/>
				
					<line fill="none" stroke="#00ABEB" stroke-width="0.2111" stroke-miterlimit="10" x1="-139.214" y1="-116.779" x2="662.745" y2="-116.779"/>
				
					<line fill="none" stroke="#00ABEB" stroke-width="0.2111" stroke-miterlimit="10" x1="-139.214" y1="-126.803" x2="662.745" y2="-126.803"/>
				
					<line fill="none" stroke="#00ABEB" stroke-width="0.2111" stroke-miterlimit="10" x1="-139.214" y1="-136.823" x2="662.745" y2="-136.823"/>
				
					<line fill="none" stroke="#00ABEB" stroke-width="0.2111" stroke-miterlimit="10" x1="-139.214" y1="-146.845" x2="662.745" y2="-146.845"/>
				
					<line fill="none" stroke="#00ABEB" stroke-width="0.2111" stroke-miterlimit="10" x1="-139.214" y1="-156.868" x2="662.745" y2="-156.868"/>
				
					<line fill="none" stroke="#00ABEB" stroke-width="0.2111" stroke-miterlimit="10" x1="-139.214" y1="-166.887" x2="662.745" y2="-166.887"/>
			</g>
			<g id="Vertical_1_mm">
				<g>
					
						<line fill="none" stroke="#00ABEB" stroke-width="0.2111" stroke-miterlimit="10" x1="-138.948" y1="414.306" x2="-138.948" y2="-187.198"/>
				</g>
				
					<line fill="none" stroke="#00ABEB" stroke-width="0.2111" stroke-miterlimit="10" x1="-128.929" y1="414.306" x2="-128.929" y2="-187.198"/>
				
					<line fill="none" stroke="#00ABEB" stroke-width="0.2111" stroke-miterlimit="10" x1="-118.907" y1="414.306" x2="-118.907" y2="-187.198"/>
				
					<line fill="none" stroke="#00ABEB" stroke-width="0.2111" stroke-miterlimit="10" x1="-108.884" y1="414.306" x2="-108.884" y2="-187.198"/>
				
					<line fill="none" stroke="#00ABEB" stroke-width="0.2111" stroke-miterlimit="10" x1="-98.865" y1="414.306" x2="-98.865" y2="-187.198"/>
				
					<line fill="none" stroke="#00ABEB" stroke-width="0.2111" stroke-miterlimit="10" x1="-88.843" y1="414.306" x2="-88.843" y2="-187.198"/>
				
					<line fill="none" stroke="#00ABEB" stroke-width="0.2111" stroke-miterlimit="10" x1="-78.82" y1="414.306" x2="-78.82" y2="-187.198"/>
				
					<line fill="none" stroke="#00ABEB" stroke-width="0.2111" stroke-miterlimit="10" x1="-68.801" y1="414.306" x2="-68.801" y2="-187.198"/>
				
					<line fill="none" stroke="#00ABEB" stroke-width="0.2111" stroke-miterlimit="10" x1="-58.777" y1="414.306" x2="-58.777" y2="-187.198"/>
				
					<line fill="none" stroke="#00ABEB" stroke-width="0.2111" stroke-miterlimit="10" x1="-48.758" y1="414.306" x2="-48.758" y2="-187.198"/>
				
					<line fill="none" stroke="#00ABEB" stroke-width="0.2111" stroke-miterlimit="10" x1="-38.735" y1="414.306" x2="-38.735" y2="-187.198"/>
				
					<line fill="none" stroke="#00ABEB" stroke-width="0.2111" stroke-miterlimit="10" x1="-28.713" y1="414.306" x2="-28.713" y2="-187.198"/>
				
					<line fill="none" stroke="#00ABEB" stroke-width="0.2111" stroke-miterlimit="10" x1="-18.693" y1="414.306" x2="-18.693" y2="-187.198"/>
				
					<line fill="none" stroke="#00ABEB" stroke-width="0.2111" stroke-miterlimit="10" x1="-8.671" y1="414.306" x2="-8.671" y2="-187.198"/>
				
					<line fill="none" stroke="#00ABEB" stroke-width="0.2111" stroke-miterlimit="10" x1="1.352" y1="414.306" x2="1.352" y2="-187.198"/>
				
					<line fill="none" stroke="#00ABEB" stroke-width="0.2111" stroke-miterlimit="10" x1="11.371" y1="414.306" x2="11.371" y2="-187.198"/>
				
					<line fill="none" stroke="#00ABEB" stroke-width="0.2111" stroke-miterlimit="10" x1="21.393" y1="414.306" x2="21.393" y2="-187.198"/>
				
					<line fill="none" stroke="#00ABEB" stroke-width="0.2111" stroke-miterlimit="10" x1="31.416" y1="414.306" x2="31.416" y2="-187.198"/>
				
					<line fill="none" stroke="#00ABEB" stroke-width="0.2111" stroke-miterlimit="10" x1="41.435" y1="414.306" x2="41.435" y2="-187.198"/>
				
					<line fill="none" stroke="#00ABEB" stroke-width="0.2111" stroke-miterlimit="10" x1="51.458" y1="414.306" x2="51.458" y2="-187.198"/>
				
					<line fill="none" stroke="#00ABEB" stroke-width="0.2111" stroke-miterlimit="10" x1="61.48" y1="414.306" x2="61.48" y2="-187.198"/>
				
					<line fill="none" stroke="#00ABEB" stroke-width="0.2111" stroke-miterlimit="10" x1="71.499" y1="414.306" x2="71.499" y2="-187.198"/>
				
					<line fill="none" stroke="#00ABEB" stroke-width="0.2111" stroke-miterlimit="10" x1="81.522" y1="414.306" x2="81.522" y2="-187.198"/>
				
					<line fill="none" stroke="#00ABEB" stroke-width="0.2111" stroke-miterlimit="10" x1="91.544" y1="414.306" x2="91.544" y2="-187.198"/>
				
					<line fill="none" stroke="#00ABEB" stroke-width="0.2111" stroke-miterlimit="10" x1="101.565" y1="414.306" x2="101.565" y2="-187.198"/>
				
					<line fill="none" stroke="#00ABEB" stroke-width="0.2111" stroke-miterlimit="10" x1="111.588" y1="414.306" x2="111.588" y2="-187.198"/>
				
					<line fill="none" stroke="#00ABEB" stroke-width="0.2111" stroke-miterlimit="10" x1="121.606" y1="414.306" x2="121.606" y2="-187.198"/>
				
					<line fill="none" stroke="#00ABEB" stroke-width="0.2111" stroke-miterlimit="10" x1="131.629" y1="414.306" x2="131.629" y2="-187.198"/>
				
					<line fill="none" stroke="#00ABEB" stroke-width="0.2111" stroke-miterlimit="10" x1="141.652" y1="414.306" x2="141.652" y2="-187.198"/>
				
					<line fill="none" stroke="#00ABEB" stroke-width="0.2111" stroke-miterlimit="10" x1="151.671" y1="414.306" x2="151.671" y2="-187.198"/>
				
					<line fill="none" stroke="#00ABEB" stroke-width="0.2111" stroke-miterlimit="10" x1="161.693" y1="414.306" x2="161.693" y2="-187.198"/>
				
					<line fill="none" stroke="#00ABEB" stroke-width="0.2111" stroke-miterlimit="10" x1="171.716" y1="414.306" x2="171.716" y2="-187.198"/>
				
					<line fill="none" stroke="#00ABEB" stroke-width="0.2111" stroke-miterlimit="10" x1="181.735" y1="414.306" x2="181.735" y2="-187.198"/>
				
					<line fill="none" stroke="#00ABEB" stroke-width="0.2111" stroke-miterlimit="10" x1="191.757" y1="414.306" x2="191.757" y2="-187.198"/>
				
					<line fill="none" stroke="#00ABEB" stroke-width="0.2111" stroke-miterlimit="10" x1="201.78" y1="414.306" x2="201.78" y2="-187.198"/>
				
					<line fill="none" stroke="#00ABEB" stroke-width="0.2111" stroke-miterlimit="10" x1="211.799" y1="414.306" x2="211.799" y2="-187.198"/>
				
					<line fill="none" stroke="#00ABEB" stroke-width="0.2111" stroke-miterlimit="10" x1="221.822" y1="414.306" x2="221.822" y2="-187.198"/>
				
					<line fill="none" stroke="#00ABEB" stroke-width="0.2111" stroke-miterlimit="10" x1="231.844" y1="414.306" x2="231.844" y2="-187.198"/>
				
					<line fill="none" stroke="#00ABEB" stroke-width="0.2111" stroke-miterlimit="10" x1="241.863" y1="414.306" x2="241.863" y2="-187.198"/>
				
					<line fill="none" stroke="#00ABEB" stroke-width="0.2111" stroke-miterlimit="10" x1="251.886" y1="414.306" x2="251.886" y2="-187.198"/>
				
					<line fill="none" stroke="#00ABEB" stroke-width="0.2111" stroke-miterlimit="10" x1="261.905" y1="414.306" x2="261.905" y2="-187.198"/>
				
					<line fill="none" stroke="#00ABEB" stroke-width="0.2111" stroke-miterlimit="10" x1="271.929" y1="414.306" x2="271.929" y2="-187.198"/>
				
					<line fill="none" stroke="#00ABEB" stroke-width="0.2111" stroke-miterlimit="10" x1="281.952" y1="414.306" x2="281.952" y2="-187.198"/>
				
					<line fill="none" stroke="#00ABEB" stroke-width="0.2111" stroke-miterlimit="10" x1="291.971" y1="414.306" x2="291.971" y2="-187.198"/>
				
					<line fill="none" stroke="#00ABEB" stroke-width="0.2111" stroke-miterlimit="10" x1="301.993" y1="414.306" x2="301.993" y2="-187.198"/>
				
					<line fill="none" stroke="#00ABEB" stroke-width="0.2111" stroke-miterlimit="10" x1="312.016" y1="414.306" x2="312.016" y2="-187.198"/>
				
					<line fill="none" stroke="#00ABEB" stroke-width="0.2111" stroke-miterlimit="10" x1="322.035" y1="414.306" x2="322.035" y2="-187.198"/>
				
					<line fill="none" stroke="#00ABEB" stroke-width="0.2111" stroke-miterlimit="10" x1="332.058" y1="414.306" x2="332.058" y2="-187.198"/>
				
					<line fill="none" stroke="#00ABEB" stroke-width="0.2111" stroke-miterlimit="10" x1="342.08" y1="414.306" x2="342.08" y2="-187.198"/>
				
					<line fill="none" stroke="#00ABEB" stroke-width="0.2111" stroke-miterlimit="10" x1="352.099" y1="414.306" x2="352.099" y2="-187.198"/>
				
					<line fill="none" stroke="#00ABEB" stroke-width="0.2111" stroke-miterlimit="10" x1="362.122" y1="414.306" x2="362.122" y2="-187.198"/>
				
					<line fill="none" stroke="#00ABEB" stroke-width="0.2111" stroke-miterlimit="10" x1="372.144" y1="414.306" x2="372.144" y2="-187.198"/>
				
					<line fill="none" stroke="#00ABEB" stroke-width="0.2111" stroke-miterlimit="10" x1="382.163" y1="414.306" x2="382.163" y2="-187.198"/>
				
					<line fill="none" stroke="#00ABEB" stroke-width="0.2111" stroke-miterlimit="10" x1="392.186" y1="414.306" x2="392.186" y2="-187.198"/>
				
					<line fill="none" stroke="#00ABEB" stroke-width="0.2111" stroke-miterlimit="10" x1="402.208" y1="414.306" x2="402.208" y2="-187.198"/>
				
					<line fill="none" stroke="#00ABEB" stroke-width="0.2111" stroke-miterlimit="10" x1="412.227" y1="414.306" x2="412.227" y2="-187.198"/>
				
					<line fill="none" stroke="#00ABEB" stroke-width="0.2111" stroke-miterlimit="10" x1="422.252" y1="414.306" x2="422.252" y2="-187.198"/>
				
					<line fill="none" stroke="#00ABEB" stroke-width="0.2111" stroke-miterlimit="10" x1="432.271" y1="414.306" x2="432.271" y2="-187.198"/>
				
					<line fill="none" stroke="#00ABEB" stroke-width="0.2111" stroke-miterlimit="10" x1="442.293" y1="414.306" x2="442.293" y2="-187.198"/>
				
					<line fill="none" stroke="#00ABEB" stroke-width="0.2111" stroke-miterlimit="10" x1="452.316" y1="414.306" x2="452.316" y2="-187.198"/>
				
					<line fill="none" stroke="#00ABEB" stroke-width="0.2111" stroke-miterlimit="10" x1="462.335" y1="414.306" x2="462.335" y2="-187.198"/>
				
					<line fill="none" stroke="#00ABEB" stroke-width="0.2111" stroke-miterlimit="10" x1="472.357" y1="414.306" x2="472.357" y2="-187.198"/>
				
					<line fill="none" stroke="#00ABEB" stroke-width="0.2111" stroke-miterlimit="10" x1="482.38" y1="414.306" x2="482.38" y2="-187.198"/>
				
					<line fill="none" stroke="#00ABEB" stroke-width="0.2111" stroke-miterlimit="10" x1="492.399" y1="414.306" x2="492.399" y2="-187.198"/>
				
					<line fill="none" stroke="#00ABEB" stroke-width="0.2111" stroke-miterlimit="10" x1="502.422" y1="414.306" x2="502.422" y2="-187.198"/>
				
					<line fill="none" stroke="#00ABEB" stroke-width="0.2111" stroke-miterlimit="10" x1="512.444" y1="414.306" x2="512.444" y2="-187.198"/>
				
					<line fill="none" stroke="#00ABEB" stroke-width="0.2111" stroke-miterlimit="10" x1="522.463" y1="414.306" x2="522.463" y2="-187.198"/>
				
					<line fill="none" stroke="#00ABEB" stroke-width="0.2111" stroke-miterlimit="10" x1="532.486" y1="414.306" x2="532.486" y2="-187.198"/>
				
					<line fill="none" stroke="#00ABEB" stroke-width="0.2111" stroke-miterlimit="10" x1="542.508" y1="414.306" x2="542.508" y2="-187.198"/>
				
					<line fill="none" stroke="#00ABEB" stroke-width="0.2111" stroke-miterlimit="10" x1="552.528" y1="414.306" x2="552.528" y2="-187.198"/>
				
					<line fill="none" stroke="#00ABEB" stroke-width="0.2111" stroke-miterlimit="10" x1="562.55" y1="414.306" x2="562.55" y2="-187.198"/>
				
					<line fill="none" stroke="#00ABEB" stroke-width="0.2111" stroke-miterlimit="10" x1="572.573" y1="414.306" x2="572.573" y2="-187.198"/>
				
					<line fill="none" stroke="#00ABEB" stroke-width="0.2111" stroke-miterlimit="10" x1="582.593" y1="414.306" x2="582.593" y2="-187.198"/>
				
					<line fill="none" stroke="#00ABEB" stroke-width="0.2111" stroke-miterlimit="10" x1="592.616" y1="414.306" x2="592.616" y2="-187.198"/>
				
					<line fill="none" stroke="#00ABEB" stroke-width="0.2111" stroke-miterlimit="10" x1="602.635" y1="414.306" x2="602.635" y2="-187.198"/>
				
					<line fill="none" stroke="#00ABEB" stroke-width="0.2111" stroke-miterlimit="10" x1="612.658" y1="414.306" x2="612.658" y2="-187.198"/>
				
					<line fill="none" stroke="#00ABEB" stroke-width="0.2111" stroke-miterlimit="10" x1="622.68" y1="414.306" x2="622.68" y2="-187.198"/>
				
					<line fill="none" stroke="#00ABEB" stroke-width="0.2111" stroke-miterlimit="10" x1="632.699" y1="414.306" x2="632.699" y2="-187.198"/>
				
					<line fill="none" stroke="#00ABEB" stroke-width="0.2111" stroke-miterlimit="10" x1="642.722" y1="414.306" x2="642.722" y2="-187.198"/>
				
					<line fill="none" stroke="#00ABEB" stroke-width="0.2111" stroke-miterlimit="10" x1="652.744" y1="414.306" x2="652.744" y2="-187.198"/>
				
					<line fill="none" stroke="#00ABEB" stroke-width="0.2111" stroke-miterlimit="10" x1="662.763" y1="414.306" x2="662.763" y2="-187.198"/>
			</g>
			<g id="Horizontal_5_mm_1_">
				
					<line fill="none" stroke="#00ABEB" stroke-width="0.4221" stroke-miterlimit="10" x1="-140.186" y1="414.355" x2="662.745" y2="414.355"/>
				
					<line fill="none" stroke="#00ABEB" stroke-width="0.4221" stroke-miterlimit="10" x1="-140.186" y1="364.249" x2="662.745" y2="364.249"/>
				
					<line fill="none" stroke="#00ABEB" stroke-width="0.4221" stroke-miterlimit="10" x1="-140.186" y1="314.142" x2="662.745" y2="314.142"/>
				
					<line fill="none" stroke="#00ABEB" stroke-width="0.4221" stroke-miterlimit="10" x1="-140.186" y1="264.033" x2="662.745" y2="264.033"/>
				
					<line fill="none" stroke="#00ABEB" stroke-width="0.4221" stroke-miterlimit="10" x1="-140.186" y1="213.927" x2="662.745" y2="213.927"/>
				
					<line fill="none" stroke="#00ABEB" stroke-width="0.4221" stroke-miterlimit="10" x1="-140.186" y1="163.819" x2="662.745" y2="163.819"/>
				
					<line fill="none" stroke="#00ABEB" stroke-width="0.4221" stroke-miterlimit="10" x1="-140.186" y1="113.713" x2="662.745" y2="113.713"/>
				
					<line fill="none" stroke="#00ABEB" stroke-width="0.4221" stroke-miterlimit="10" x1="-140.186" y1="63.604" x2="662.745" y2="63.604"/>
				
					<line fill="none" stroke="#00ABEB" stroke-width="0.4221" stroke-miterlimit="10" x1="-140.186" y1="13.496" x2="662.745" y2="13.496"/>
				
					<line fill="none" stroke="#00ABEB" stroke-width="0.4221" stroke-miterlimit="10" x1="-140.186" y1="-36.609" x2="662.745" y2="-36.609"/>
				
					<line fill="none" stroke="#00ABEB" stroke-width="0.4221" stroke-miterlimit="10" x1="-140.186" y1="-86.715" x2="662.745" y2="-86.715"/>
			</g>
			<g id="Vertical_5_mm">
				
					<line fill="none" stroke="#00ABEB" stroke-width="0.4221" stroke-miterlimit="10" x1="-138.948" y1="414.306" x2="-138.948" y2="-188.17"/>
				
					<line fill="none" stroke="#00ABEB" stroke-width="0.4221" stroke-miterlimit="10" x1="-88.843" y1="414.306" x2="-88.843" y2="-188.17"/>
				
					<line fill="none" stroke="#00ABEB" stroke-width="0.4221" stroke-miterlimit="10" x1="-38.735" y1="414.306" x2="-38.735" y2="-188.17"/>
				
					<line fill="none" stroke="#00ABEB" stroke-width="0.4221" stroke-miterlimit="10" x1="11.371" y1="414.306" x2="11.371" y2="-188.17"/>
				
					<line fill="none" stroke="#00ABEB" stroke-width="0.4221" stroke-miterlimit="10" x1="61.48" y1="414.306" x2="61.48" y2="-188.17"/>
				
					<line fill="none" stroke="#00ABEB" stroke-width="0.4221" stroke-miterlimit="10" x1="111.588" y1="414.306" x2="111.588" y2="-188.17"/>
				
					<line fill="none" stroke="#00ABEB" stroke-width="0.4221" stroke-miterlimit="10" x1="161.693" y1="414.306" x2="161.693" y2="-188.17"/>
				
					<line fill="none" stroke="#00ABEB" stroke-width="0.4221" stroke-miterlimit="10" x1="211.799" y1="414.306" x2="211.799" y2="-188.17"/>
				
					<line fill="none" stroke="#00ABEB" stroke-width="0.4221" stroke-miterlimit="10" x1="261.905" y1="414.306" x2="261.905" y2="-188.17"/>
				
					<line fill="none" stroke="#00ABEB" stroke-width="0.4221" stroke-miterlimit="10" x1="312.016" y1="414.306" x2="312.016" y2="-188.17"/>
				
					<line fill="none" stroke="#00ABEB" stroke-width="0.4221" stroke-miterlimit="10" x1="362.122" y1="414.306" x2="362.122" y2="-188.17"/>
				
					<line fill="none" stroke="#00ABEB" stroke-width="0.4221" stroke-miterlimit="10" x1="412.227" y1="414.306" x2="412.227" y2="-188.17"/>
				
					<line fill="none" stroke="#00ABEB" stroke-width="0.4221" stroke-miterlimit="10" x1="462.335" y1="414.306" x2="462.335" y2="-188.17"/>
				
					<line fill="none" stroke="#00ABEB" stroke-width="0.4221" stroke-miterlimit="10" x1="512.444" y1="414.306" x2="512.444" y2="-188.17"/>
				
					<line fill="none" stroke="#00ABEB" stroke-width="0.4221" stroke-miterlimit="10" x1="562.55" y1="414.306" x2="562.55" y2="-188.17"/>
				
					<line fill="none" stroke="#00ABEB" stroke-width="0.4221" stroke-miterlimit="10" x1="612.658" y1="414.306" x2="612.658" y2="-188.17"/>
				
					<line fill="none" stroke="#00ABEB" stroke-width="0.4221" stroke-miterlimit="10" x1="662.763" y1="414.306" x2="662.763" y2="-188.17"/>
			</g>
			<g id="Horizontal_10_mm">
				
					<line id="_x31_9_1_" fill="none" stroke="#00ABEB" stroke-width="0.9849" stroke-miterlimit="10" x1="-140.186" y1="414.355" x2="662.745" y2="414.355"/>
				
					<line id="_x32_0" fill="none" stroke="#00ABEB" stroke-width="0.9849" stroke-miterlimit="10" x1="-140.186" y1="314.142" x2="662.745" y2="314.142"/>
				
					<line id="_x32_1" fill="none" stroke="#00ABEB" stroke-width="0.9849" stroke-miterlimit="10" x1="-140.186" y1="213.927" x2="662.745" y2="213.927"/>
				
					<line id="_x32_2" fill="none" stroke="#00ABEB" stroke-width="0.9849" stroke-miterlimit="10" x1="-140.186" y1="113.713" x2="662.745" y2="113.713"/>
				
					<line id="_x32_3" fill="none" stroke="#00ABEB" stroke-width="0.9849" stroke-miterlimit="10" x1="-140.186" y1="13.496" x2="662.745" y2="13.496"/>
				
					<line id="_x32_4" fill="none" stroke="#00ABEB" stroke-width="0.9849" stroke-miterlimit="10" x1="-140.186" y1="-86.715" x2="662.745" y2="-86.715"/>
				
					<line id="_x32_5" fill="none" stroke="#00ABEB" stroke-width="0.9849" stroke-miterlimit="10" x1="-140.186" y1="-186.932" x2="662.745" y2="-186.932"/>
			</g>
			<g id="Vertical_10_mm">
				
					<line id="_x30_" fill="none" stroke="#00ABEB" stroke-width="0.9849" stroke-miterlimit="10" x1="-138.948" y1="414.306" x2="-138.948" y2="-188.17"/>
				
					<line id="_x31_" fill="none" stroke="#00ABEB" stroke-width="0.9849" stroke-miterlimit="10" x1="-38.735" y1="414.306" x2="-38.735" y2="-188.17"/>
				
					<line id="_x32_" fill="none" stroke="#00ABEB" stroke-width="0.9849" stroke-miterlimit="10" x1="61.48" y1="414.306" x2="61.48" y2="-188.17"/>
				
					<line id="_x33_" fill="none" stroke="#00ABEB" stroke-width="0.9849" stroke-miterlimit="10" x1="161.693" y1="414.306" x2="161.693" y2="-188.17"/>
				
					<line id="_x34_" fill="none" stroke="#00ABEB" stroke-width="0.9849" stroke-miterlimit="10" x1="261.905" y1="414.306" x2="261.905" y2="-188.17"/>
				
					<line id="_x35_" fill="none" stroke="#00ABEB" stroke-width="0.9849" stroke-miterlimit="10" x1="362.122" y1="414.306" x2="362.122" y2="-188.17"/>
				
					<line id="_x36_" fill="none" stroke="#00ABEB" stroke-width="0.9849" stroke-miterlimit="10" x1="462.335" y1="414.306" x2="462.335" y2="-188.17"/>
				
					<line id="_x37_" fill="none" stroke="#00ABEB" stroke-width="0.9849" stroke-miterlimit="10" x1="562.55" y1="414.306" x2="562.55" y2="-188.17"/>
				
					<line id="_x38_" fill="none" stroke="#00ABEB" stroke-width="0.9849" stroke-miterlimit="10" x1="662.763" y1="414.306" x2="662.763" y2="-188.17"/>
			</g>
		</g>
	</g>
</g>
<g id="base">
	<g>
		<path fill="#FF0000" d="M21.649,93.06v-0.226c1.171-0.061,1.503-0.377,1.503-1.206v-6.769c0-0.513-0.143-0.739-0.475-0.739
			c-0.158,0-0.427,0.076-0.712,0.181l-0.427,0.15V84.24l2.833-1.372l0.142,0.045v9c0,0.648,0.317,0.919,1.503,0.919v0.226H21.649z"
			/>
	</g>
	<circle fill="none" stroke="#FF0000" stroke-width="1.5077" stroke-miterlimit="10" cx="23.89" cy="88.078" r="8.108"/>
	<g>
		<g>
			<path fill="#0000FF" d="M189.122,166.32h-6.187v-0.181l2.816-2.85c1.487-1.492,2.057-2.638,2.057-3.919
				c0-1.372-0.854-2.126-2.2-2.126c-1.139,0-1.693,0.482-2.326,1.96l-0.333-0.075c0.333-1.764,1.345-3,3.292-3
				c1.788,0,2.927,1.161,2.927,2.653c0,1.191-0.617,2.322-2.025,3.739l-2.611,2.653h3.703c0.665,0,0.997-0.166,1.519-1.01
				l0.222,0.09L189.122,166.32z"/>
		</g>
		<circle fill="none" stroke="#0000FF" stroke-width="1.5077" stroke-miterlimit="10" cx="186.584" cy="161.339" r="8.108"/>
	</g>
	<g>
		<g>
			<path fill="#00A300" d="M184.31,11.638c0.459-1.432,1.456-2.442,3.102-2.442c1.472,0,2.468,0.83,2.468,2.065
				c0,0.724-0.411,1.478-1.471,2.081c0.696,0.287,0.981,0.467,1.313,0.799c0.443,0.467,0.696,1.161,0.696,1.944
				c0,0.799-0.269,1.538-0.728,2.111c-0.759,0.965-2.263,1.402-3.671,1.402c-1.155,0-1.772-0.316-1.772-0.859
				c0-0.316,0.285-0.542,0.648-0.542c0.269,0,0.522,0.09,0.965,0.392c0.585,0.392,0.918,0.467,1.361,0.467
				c1.171,0,2.057-1.025,2.057-2.307c0-1.146-0.554-1.884-1.646-2.186c-0.348-0.105-0.712-0.151-1.614-0.151v-0.211
				c0.602-0.196,1.013-0.362,1.329-0.542c0.775-0.422,1.282-1.101,1.282-2.021c0-1.025-0.665-1.538-1.709-1.538
				c-0.981,0-1.709,0.482-2.357,1.598L184.31,11.638z"/>
		</g>
		<circle fill="none" stroke="#00A300" stroke-width="1.5077" stroke-miterlimit="10" cx="187.706" cy="14.406" r="8.108"/>
	</g>
	<g id="back_00000053507417112770269870000007330197037955620771_">
		<path fill="none" stroke="#00004C" stroke-width="1.6132" stroke-linecap="round" stroke-miterlimit="10" d="M129.825,141.004
			c-0.281-0.486,41.081-24.367,40.8-24.853"/>
		<path fill="none" stroke="#00004C" stroke-width="1.6132" stroke-linecap="round" stroke-miterlimit="10" d="M130.947,142.948
			c-0.28-0.486,41.082-24.366,40.801-24.852"/>
		<path fill="none" stroke="#00004C" stroke-width="1.6132" stroke-linecap="round" stroke-miterlimit="10" d="M132.068,144.89
			c-0.28-0.486,41.082-24.366,40.801-24.852"/>
		<path fill="none" stroke="#00004C" stroke-width="1.6132" stroke-linecap="round" stroke-miterlimit="10" d="M133.19,146.832
			c-0.28-0.486,41.082-24.366,40.801-24.852"/>
		<path fill="none" stroke="#00004C" stroke-width="1.6132" stroke-linecap="round" stroke-miterlimit="10" d="M134.311,148.775
			c-0.28-0.485,41.082-24.366,40.802-24.851"/>
		<path fill="none" stroke="#00004C" stroke-width="1.6132" stroke-linecap="round" stroke-miterlimit="10" d="M135.432,150.717
			c-0.28-0.485,41.082-24.365,40.802-24.851"/>
		<path fill="none" stroke="#00004C" stroke-width="1.6132" stroke-linecap="round" stroke-miterlimit="10" d="M136.553,152.658
			c-0.28-0.485,41.082-24.365,40.802-24.851"/>
		<path fill="none" stroke="#00004C" stroke-width="1.6132" stroke-linecap="round" stroke-miterlimit="10" d="M137.673,154.598
			c-0.28-0.485,41.082-24.366,40.802-24.851"/>
		<path fill="none" stroke="#00004C" stroke-width="1.6132" stroke-linecap="round" stroke-miterlimit="10" d="M138.793,156.538
			c-0.28-0.484,41.082-24.365,40.803-24.849"/>
		<path fill="none" stroke="#00004C" stroke-width="1.6132" stroke-linecap="round" stroke-miterlimit="10" d="M139.912,158.475
			c-0.28-0.485,41.082-24.365,40.803-24.849"/>
		<path fill="none" stroke="#00004C" stroke-width="1.6132" stroke-linecap="round" stroke-miterlimit="10" d="M128.702,139.059
			c-0.141-0.243,11.827-7.316,22.093-13.405"/>
		
			<line fill="none" stroke="#00004C" stroke-width="1.6132" stroke-linecap="round" stroke-miterlimit="10" x1="150.795" y1="125.654" x2="172.035" y2="162.479"/>
	</g>
	<g id="front_00000107579625299631593880000017583368993193081529_">
		<path fill="none" stroke="#0000B2" stroke-width="1.6132" stroke-linecap="round" stroke-miterlimit="10" d="M170.625,116.151
			c-0.281-0.486-41.643,23.394-41.924,22.908"/>
		<path fill="none" stroke="#0000B2" stroke-width="1.6132" stroke-linecap="round" stroke-miterlimit="10" d="M171.748,118.096
			c-0.281-0.486-41.643,23.394-41.923,22.908"/>
		<path fill="none" stroke="#0000B2" stroke-width="1.6132" stroke-linecap="round" stroke-miterlimit="10" d="M172.869,120.038
			c-0.28-0.485-41.642,23.395-41.922,22.91"/>
		<path fill="none" stroke="#0000B2" stroke-width="1.6132" stroke-linecap="round" stroke-miterlimit="10" d="M173.991,121.981
			c-0.28-0.486-41.643,23.395-41.923,22.909"/>
		<path fill="none" stroke="#0000B2" stroke-width="1.6132" stroke-linecap="round" stroke-miterlimit="10" d="M175.113,123.924
			c-0.281-0.486-41.643,23.395-41.923,22.909"/>
		<path fill="none" stroke="#0000B2" stroke-width="1.6132" stroke-linecap="round" stroke-miterlimit="10" d="M176.234,125.866
			c-0.28-0.486-41.642,23.395-41.923,22.909"/>
		<path fill="none" stroke="#0000B2" stroke-width="1.6132" stroke-linecap="round" stroke-miterlimit="10" d="M177.355,127.808
			c-0.28-0.486-41.642,23.395-41.923,22.909"/>
		<path fill="none" stroke="#0000B2" stroke-width="1.6132" stroke-linecap="round" stroke-miterlimit="10" d="M178.475,129.747
			c-0.28-0.485-41.642,23.396-41.922,22.911"/>
		<path fill="none" stroke="#0000B2" stroke-width="1.6132" stroke-linecap="round" stroke-miterlimit="10" d="M179.596,131.688
			c-0.28-0.485-41.642,23.395-41.922,22.91"/>
		<path fill="none" stroke="#0000B2" stroke-width="1.6132" stroke-linecap="round" stroke-miterlimit="10" d="M180.714,133.626
			c-0.28-0.484-41.642,23.396-41.921,22.912"/>
		<path fill="none" stroke="#0000B2" stroke-width="1.6132" stroke-linecap="round" stroke-miterlimit="10" d="M159.169,147.978
			c-9.813,5.512-19.124,10.727-19.257,10.497"/>
		
			<line fill="none" stroke="#0000B2" stroke-width="1.6132" stroke-linecap="round" stroke-miterlimit="10" x1="159.18" y1="147.998" x2="168.649" y2="164.434"/>
		<g display="none">
			<g display="inline">
				
					<line fill="none" stroke="#0000B2" stroke-width="1.613" stroke-linecap="round" stroke-miterlimit="10" x1="163.394" y1="155.312" x2="166.104" y2="160.016"/>
				<g>
					<polygon fill="#0000B2" points="160.346,163.237 161.919,163.6 163.702,155.85 171.303,158.194 171.777,156.651 
						162.52,153.797 					"/>
				</g>
			</g>
		</g>
	</g>
	<g id="back_00000134218876744817658980000004554290557090603429_">
		<path fill="none" stroke="#004C00" stroke-width="1.6132" stroke-linecap="round" stroke-miterlimit="10" d="M171.179,60.96
			c-0.281,0.486-41.643-23.394-41.924-22.908"/>
		<path fill="none" stroke="#004C00" stroke-width="1.6132" stroke-linecap="round" stroke-miterlimit="10" d="M172.301,59.016
			c-0.28,0.486-41.642-23.395-41.923-22.909"/>
		<path fill="none" stroke="#004C00" stroke-width="1.6132" stroke-linecap="round" stroke-miterlimit="10" d="M173.422,57.074
			c-0.28,0.486-41.642-23.395-41.923-22.909"/>
		<path fill="none" stroke="#004C00" stroke-width="1.6132" stroke-linecap="round" stroke-miterlimit="10" d="M174.544,55.131
			c-0.28,0.486-41.642-23.395-41.923-22.909"/>
		<path fill="none" stroke="#004C00" stroke-width="1.6132" stroke-linecap="round" stroke-miterlimit="10" d="M175.665,53.189
			c-0.28,0.485-41.642-23.395-41.923-22.91"/>
		<path fill="none" stroke="#004C00" stroke-width="1.6132" stroke-linecap="round" stroke-miterlimit="10" d="M176.786,51.247
			c-0.28,0.485-41.642-23.395-41.922-22.91"/>
		<path fill="none" stroke="#004C00" stroke-width="1.6132" stroke-linecap="round" stroke-miterlimit="10" d="M177.907,49.306
			c-0.28,0.485-41.642-23.395-41.922-22.91"/>
		<path fill="none" stroke="#004C00" stroke-width="1.6132" stroke-linecap="round" stroke-miterlimit="10" d="M179.027,47.366
			c-0.28,0.485-41.642-23.395-41.922-22.91"/>
		<path fill="none" stroke="#004C00" stroke-width="1.6132" stroke-linecap="round" stroke-miterlimit="10" d="M180.147,45.426
			c-0.28,0.485-41.642-23.396-41.921-22.911"/>
		<path fill="none" stroke="#004C00" stroke-width="1.6132" stroke-linecap="round" stroke-miterlimit="10" d="M181.266,43.488
			c-0.28,0.485-41.642-23.396-41.922-22.911"/>
		<path fill="none" stroke="#004C00" stroke-width="1.6132" stroke-linecap="round" stroke-miterlimit="10" d="M170.056,62.905
			c-0.141,0.243-12.249-6.585-22.655-12.431"/>
		
			<line fill="none" stroke="#004C00" stroke-width="1.6132" stroke-linecap="round" stroke-miterlimit="10" x1="147.4" y1="50.474" x2="168.671" y2="13.667"/>
	</g>
	<g id="front_00000008110892648661018170000007478225049685497990_">
		<path fill="none" stroke="#00B200" stroke-width="1.6132" stroke-linecap="round" stroke-miterlimit="10" d="M129.255,38.052
			c-0.281,0.486,41.081,24.367,40.8,24.853"/>
		<path fill="none" stroke="#00B200" stroke-width="1.6132" stroke-linecap="round" stroke-miterlimit="10" d="M130.378,36.107
			c-0.281,0.486,41.081,24.367,40.801,24.853"/>
		<path fill="none" stroke="#00B200" stroke-width="1.6132" stroke-linecap="round" stroke-miterlimit="10" d="M131.499,34.165
			c-0.28,0.485,41.082,24.365,40.802,24.85"/>
		<path fill="none" stroke="#00B200" stroke-width="1.6132" stroke-linecap="round" stroke-miterlimit="10" d="M132.621,32.222
			c-0.28,0.486,41.082,24.366,40.801,24.852"/>
		<path fill="none" stroke="#00B200" stroke-width="1.6132" stroke-linecap="round" stroke-miterlimit="10" d="M133.743,30.279
			c-0.281,0.486,41.081,24.366,40.801,24.852"/>
		<path fill="none" stroke="#00B200" stroke-width="1.6132" stroke-linecap="round" stroke-miterlimit="10" d="M134.864,28.337
			c-0.28,0.486,41.082,24.366,40.801,24.852"/>
		<path fill="none" stroke="#00B200" stroke-width="1.6132" stroke-linecap="round" stroke-miterlimit="10" d="M135.985,26.395
			c-0.28,0.486,41.082,24.366,40.801,24.852"/>
		<path fill="none" stroke="#00B200" stroke-width="1.6132" stroke-linecap="round" stroke-miterlimit="10" d="M137.105,24.456
			c-0.28,0.485,41.082,24.365,40.802,24.85"/>
		<path fill="none" stroke="#00B200" stroke-width="1.6132" stroke-linecap="round" stroke-miterlimit="10" d="M138.226,22.515
			c-0.28,0.485,41.082,24.366,40.802,24.851"/>
		<path fill="none" stroke="#00B200" stroke-width="1.6132" stroke-linecap="round" stroke-miterlimit="10" d="M139.344,20.577
			c-0.28,0.484,41.082,24.365,40.803,24.849"/>
		<path fill="none" stroke="#00B200" stroke-width="1.6132" stroke-linecap="round" stroke-miterlimit="10" d="M162.546,32.06
			c9.68,5.742,18.852,11.199,18.72,11.428"/>
		
			<line fill="none" stroke="#00B200" stroke-width="1.6132" stroke-linecap="round" stroke-miterlimit="10" x1="162.558" y1="32.04" x2="172.057" y2="15.622"/>
		<g display="none">
			<g display="inline">
				
					<line fill="none" stroke="#00B200" stroke-width="1.613" stroke-linecap="round" stroke-miterlimit="10" x1="166.37" y1="25.452" x2="170.056" y2="19.081"/>
				<g>
					<polygon fill="#00B200" points="174.756,24.129 174.285,22.585 166.681,24.917 164.911,17.162 163.338,17.523 165.495,26.967 
											"/>
				</g>
			</g>
		</g>
	</g>
	<g id="back_00000122680052811471511900000015564908790400425123_">
		<path fill="none" stroke="#4C0000" stroke-width="1.6132" stroke-linecap="round" stroke-miterlimit="10" d="M80.891,65.094
			c0.562,0,0.562,47.761,1.123,47.761"/>
		<path fill="none" stroke="#4C0000" stroke-width="1.6132" stroke-linecap="round" stroke-miterlimit="10" d="M78.647,65.094
			c0.561,0,0.561,47.761,1.122,47.761"/>
		<path fill="none" stroke="#4C0000" stroke-width="1.6132" stroke-linecap="round" stroke-miterlimit="10" d="M76.405,65.094
			c0.561,0,0.561,47.761,1.122,47.761"/>
		<path fill="none" stroke="#4C0000" stroke-width="1.6132" stroke-linecap="round" stroke-miterlimit="10" d="M74.162,65.094
			c0.561,0,0.561,47.761,1.121,47.761"/>
		<path fill="none" stroke="#4C0000" stroke-width="1.6132" stroke-linecap="round" stroke-miterlimit="10" d="M71.918,65.094
			c0.561,0,0.561,47.761,1.121,47.761"/>
		<path fill="none" stroke="#4C0000" stroke-width="1.6132" stroke-linecap="round" stroke-miterlimit="10" d="M69.677,65.094
			c0.56,0,0.56,47.761,1.12,47.761"/>
		<path fill="none" stroke="#4C0000" stroke-width="1.6132" stroke-linecap="round" stroke-miterlimit="10" d="M67.435,65.094
			c0.56,0,0.56,47.761,1.12,47.761"/>
		<path fill="none" stroke="#4C0000" stroke-width="1.6132" stroke-linecap="round" stroke-miterlimit="10" d="M65.195,65.094
			c0.56,0,0.56,47.761,1.121,47.761"/>
		<path fill="none" stroke="#4C0000" stroke-width="1.6132" stroke-linecap="round" stroke-miterlimit="10" d="M62.955,65.094
			c0.559,0,0.559,47.761,1.119,47.761"/>
		<path fill="none" stroke="#4C0000" stroke-width="1.6132" stroke-linecap="round" stroke-miterlimit="10" d="M60.718,65.094
			c0.56,0,0.56,47.761,1.119,47.761"/>
		<path fill="none" stroke="#4C0000" stroke-width="1.6132" stroke-linecap="round" stroke-miterlimit="10" d="M83.138,65.094
			c0.281,0,0.422,13.901,0.562,25.835"/>
		
			<line fill="none" stroke="#4C0000" stroke-width="1.6132" stroke-linecap="round" stroke-miterlimit="10" x1="83.7" y1="90.929" x2="41.189" y2="90.912"/>
	</g>
	<g id="front_00000021835981457808784140000000559883809827313083_">
		<path fill="none" stroke="#C90D0C" stroke-width="1.6132" stroke-linecap="round" stroke-miterlimit="10" d="M82.014,112.854
			c0.562,0,0.562-47.761,1.123-47.761"/>
		<path fill="none" stroke="#C90D0C" stroke-width="1.6132" stroke-linecap="round" stroke-miterlimit="10" d="M79.769,112.854
			c0.561,0,0.561-47.761,1.123-47.761"/>
		<path fill="none" stroke="#C90D0C" stroke-width="1.6132" stroke-linecap="round" stroke-miterlimit="10" d="M77.527,112.854
			c0.56,0,0.56-47.761,1.12-47.761"/>
		<path fill="none" stroke="#C90D0C" stroke-width="1.6132" stroke-linecap="round" stroke-miterlimit="10" d="M75.283,112.854
			c0.561,0,0.561-47.761,1.122-47.761"/>
		<path fill="none" stroke="#C90D0C" stroke-width="1.6132" stroke-linecap="round" stroke-miterlimit="10" d="M73.04,112.854
			c0.561,0,0.561-47.761,1.122-47.761"/>
		<path fill="none" stroke="#C90D0C" stroke-width="1.6132" stroke-linecap="round" stroke-miterlimit="10" d="M70.797,112.854
			c0.561,0,0.561-47.761,1.122-47.761"/>
		<path fill="none" stroke="#C90D0C" stroke-width="1.6132" stroke-linecap="round" stroke-miterlimit="10" d="M68.555,112.854
			c0.561,0,0.561-47.761,1.122-47.761"/>
		<path fill="none" stroke="#C90D0C" stroke-width="1.6132" stroke-linecap="round" stroke-miterlimit="10" d="M66.315,112.854
			c0.56,0,0.56-47.761,1.12-47.761"/>
		<path fill="none" stroke="#C90D0C" stroke-width="1.6132" stroke-linecap="round" stroke-miterlimit="10" d="M64.074,112.854
			c0.56,0,0.56-47.761,1.121-47.761"/>
		<path fill="none" stroke="#C90D0C" stroke-width="1.6132" stroke-linecap="round" stroke-miterlimit="10" d="M61.837,112.854
			c0.559,0,0.559-47.761,1.118-47.761"/>
		<path fill="none" stroke="#C90D0C" stroke-width="1.6132" stroke-linecap="round" stroke-miterlimit="10" d="M60.18,87.019
			c0.133-11.254,0.273-21.926,0.537-21.926"/>
		
			<line fill="none" stroke="#C90D0C" stroke-width="1.6132" stroke-linecap="round" stroke-miterlimit="10" x1="60.157" y1="87.019" x2="41.189" y2="87.002"/>
		<g display="none">
			<g display="inline">
				
					<line fill="none" stroke="#C90D0C" stroke-width="1.6" stroke-linecap="round" stroke-miterlimit="10" x1="47.455" y1="87.011" x2="52.153" y2="87.011"/>
				<g>
					<polygon fill="#C90D0C" points="46.852,93.554 45.76,92.382 51.539,87.012 45.76,81.64 46.852,80.468 53.889,87.012 					"/>
				</g>
			</g>
		</g>
	</g>
</g>
<g id="Layer_5">
	<circle fill="#B88455" cx="125.214" cy="87.078" r="34.898"/>
	<circle fill="none" stroke="#000000" stroke-width="0.5" stroke-miterlimit="10" cx="125.214" cy="87.078" r="34.898"/>
	<g>
		<g>
			<path fill="none" stroke="#000000" stroke-width="1.2959" stroke-miterlimit="10" d="M140.819,93.028
				c-1.643,3.922-4.768,7.269-9.013,9.143c-8.665,3.825-18.718,0.065-22.455-8.399s0.259-18.426,8.924-22.251
				s18.718-0.065,22.455,8.399"/>
			<g>
				<polygon points="134.035,94.484 134.496,95.696 140.466,93.419 142.302,99.54 143.544,99.166 141.307,91.712 				"/>
			</g>
		</g>
	</g>
	<g>
		<path d="M149.617,78.111c0.769,0,1.387,0.151,1.794,0.498c0.498,0.422,0.678,1.101,0.678,1.824c0,0.814-0.256,1.583-0.648,2.321
			c-0.799,1.493-1.96,2.141-2.925,2.141c-1.176,0-1.478-0.543-1.719-1.07c-0.588,0.708-1.146,1.07-2.216,1.07
			c-0.965,0-1.944-0.633-1.944-2.126c0-0.407,0.045-0.814,0.15-1.221c0.498-1.824,2.05-3.437,4.176-3.437h0.271v0.241
			c-0.769,0-1.447,0.271-2.02,0.98c-0.753,0.95-1.312,2.578-1.312,3.829c0,1.04,0.377,1.417,0.859,1.417
			c0.678,0,1.553-0.844,1.839-1.673c-0.03-0.226-0.045-0.558-0.045-0.769c0-0.377,0.061-0.845,0.181-1.297
			c0.211-0.784,0.663-1.507,1.221-1.507c0.362,0,0.528,0.286,0.528,0.693c0,0.678-0.301,1.628-0.633,2.201
			c-0.121,0.211-0.316,0.542-0.467,0.769c-0.03,0.106-0.03,0.211-0.03,0.317c0,0.648,0.347,1.266,0.979,1.266
			c0.844,0,1.433-0.708,1.764-1.327c0.467-0.874,0.724-2.201,0.724-3.166c0-0.271-0.015-0.693-0.076-0.919
			c-0.181-0.708-0.769-0.814-1.402-0.814v-0.241H149.617z"/>
	</g>
	<g>
	</g>
</g>
</svg>
