<?xml version="1.0" encoding="utf-8"?>
<!-- Generator: Adobe Illustrator 26.0.1, SVG Export Plug-In . SVG Version: 6.00 Build 0)  -->
<svg version="1.1" xmlns="http://www.w3.org/2000/svg" xmlns:xlink="http://www.w3.org/1999/xlink" x="0px" y="0px"
	 viewBox="0 0 279.7222 176.3926" style="enable-background:new 0 0 279.7222 176.3926;" xml:space="preserve">
<style type="text/css">
	.st0{opacity:0.5;}
	.st1{opacity:0.25;clip-path:url(#SVGID_00000056400469210062834060000001355362668635271816_);}
	.st2{fill:none;stroke:#00ABEB;stroke-width:0.2111;stroke-miterlimit:10;}
	.st3{fill:none;stroke:#00ABEB;stroke-width:0.4221;stroke-miterlimit:10;}
	.st4{fill:none;stroke:#00ABEB;stroke-width:0.9849;stroke-miterlimit:10;}
	.st5{opacity:0.05;}
	.st6{fill:none;stroke:#000000;stroke-miterlimit:10;}
	.st7{opacity:0.7;}
	.st8{fill:none;stroke:#00B200;stroke-miterlimit:10;}
	.st9{fill:#00B200;}
	.st10{fill:none;stroke:#00B200;stroke-width:0.9898;stroke-miterlimit:10;}
	.st11{opacity:0.33;fill:#FFFFFF;}
	.st12{fill:none;stroke:#0000FF;stroke-width:1.289;}
	.st13{fill:#FFFFFF;stroke:#0000FF;stroke-width:1.289;}
	.st14{fill:#0000FF;}
	.st15{fill:none;stroke:#0000FF;}
	.st16{fill:none;stroke:#00B200;}
	.st17{fill:#808080;}
	.st18{fill:none;stroke:#FF0000;stroke-miterlimit:10;}
	.st19{fill:#FF0000;}
	.st20{fill:none;stroke:#FF0000;}
</style>
<g id="Graph_paper" class="st0">
	<g id="Clipped_grid">
		<defs>
			<rect id="SVGID_1_" x="-138.4049" y="-15.5337" width="467.5583" height="271.8773"/>
		</defs>
		<clipPath id="SVGID_00000032635645683028035990000017920065318352956088_">
			<use xlink:href="#SVGID_1_"  style="overflow:visible;"/>
		</clipPath>
		
			<g id="Grid_00000060005542146034257920000005065612243763103930_" style="opacity:0.25;clip-path:url(#SVGID_00000032635645683028035990000017920065318352956088_);">
			<g id="Horizontal_1_mm">
				<line class="st2" x1="-361.9137" y1="-72.9583" x2="440.0451" y2="-72.9583"/>
				<line class="st2" x1="-361.9137" y1="-82.9809" x2="440.0451" y2="-82.9809"/>
				<line class="st2" x1="-361.9137" y1="518.3061" x2="440.0451" y2="518.3061"/>
				<line class="st2" x1="-361.9137" y1="508.2834" x2="440.0451" y2="508.2834"/>
				<line class="st2" x1="-361.9137" y1="498.2643" x2="440.0451" y2="498.2643"/>
				<line class="st2" x1="-361.9137" y1="488.2419" x2="440.0451" y2="488.2419"/>
				<line class="st2" x1="-361.9137" y1="478.2193" x2="440.0451" y2="478.2193"/>
				<line class="st2" x1="-361.9137" y1="468.2001" x2="440.0451" y2="468.2001"/>
				<line class="st2" x1="-361.9137" y1="458.1778" x2="440.0451" y2="458.1778"/>
				<line class="st2" x1="-361.9137" y1="448.1587" x2="440.0451" y2="448.1587"/>
				<line class="st2" x1="-361.9137" y1="438.1342" x2="440.0451" y2="438.1342"/>
				<line class="st2" x1="-361.9137" y1="428.1119" x2="440.0451" y2="428.1119"/>
				<line class="st2" x1="-361.9137" y1="418.0927" x2="440.0451" y2="418.0927"/>
				<line class="st2" x1="-361.9137" y1="408.0701" x2="440.0451" y2="408.0701"/>
				<line class="st2" x1="-361.9137" y1="398.0477" x2="440.0451" y2="398.0477"/>
				<line class="st2" x1="-361.9137" y1="388.0286" x2="440.0451" y2="388.0286"/>
				<line class="st2" x1="-361.9137" y1="378.0059" x2="440.0451" y2="378.0059"/>
				<line class="st2" x1="-361.9137" y1="367.9836" x2="440.0451" y2="367.9836"/>
				<line class="st2" x1="-361.9137" y1="357.9644" x2="440.0451" y2="357.9644"/>
				<line class="st2" x1="-361.9137" y1="347.9418" x2="440.0451" y2="347.9418"/>
				<line class="st2" x1="-361.9137" y1="337.9191" x2="440.0451" y2="337.9191"/>
				<line class="st2" x1="-361.9137" y1="327.9003" x2="440.0451" y2="327.9003"/>
				<line class="st2" x1="-361.9137" y1="317.8776" x2="440.0451" y2="317.8776"/>
				<line class="st2" x1="-361.9137" y1="307.8535" x2="440.0451" y2="307.8535"/>
				<line class="st2" x1="-361.9137" y1="297.8344" x2="440.0451" y2="297.8344"/>
				<line class="st2" x1="-361.9137" y1="287.8117" x2="440.0451" y2="287.8117"/>
				<line class="st2" x1="-361.9137" y1="277.7925" x2="440.0451" y2="277.7925"/>
				<line class="st2" x1="-361.9137" y1="267.7702" x2="440.0451" y2="267.7702"/>
				<line class="st2" x1="-361.9137" y1="257.7476" x2="440.0451" y2="257.7476"/>
				<line class="st2" x1="-361.9137" y1="247.7284" x2="440.0451" y2="247.7284"/>
				<line class="st2" x1="-361.9137" y1="237.7061" x2="440.0451" y2="237.7061"/>
				<line class="st2" x1="-361.9137" y1="227.6834" x2="440.0451" y2="227.6834"/>
				<line class="st2" x1="-361.9137" y1="217.6642" x2="440.0451" y2="217.6642"/>
				<line class="st2" x1="-361.9137" y1="207.6419" x2="440.0451" y2="207.6419"/>
				<line class="st2" x1="-361.9137" y1="197.6192" x2="440.0451" y2="197.6192"/>
				<line class="st2" x1="-361.9137" y1="187.6001" x2="440.0451" y2="187.6001"/>
				<line class="st2" x1="-361.9137" y1="177.5774" x2="440.0451" y2="177.5774"/>
				<line class="st2" x1="-361.9137" y1="167.5551" x2="440.0451" y2="167.5551"/>
				<line class="st2" x1="-361.9137" y1="157.5359" x2="440.0451" y2="157.5359"/>
				<line class="st2" x1="-361.9137" y1="147.5133" x2="440.0451" y2="147.5133"/>
				<line class="st2" x1="-361.9137" y1="137.491" x2="440.0451" y2="137.491"/>
				<line class="st2" x1="-361.9137" y1="127.4718" x2="440.0451" y2="127.4718"/>
				<line class="st2" x1="-361.9137" y1="117.4474" x2="440.0451" y2="117.4474"/>
				<line class="st2" x1="-361.9137" y1="107.4286" x2="440.0451" y2="107.4286"/>
				<line class="st2" x1="-361.9137" y1="97.4059" x2="440.0451" y2="97.4059"/>
				<line class="st2" x1="-361.9137" y1="87.3832" x2="440.0451" y2="87.3832"/>
				<line class="st2" x1="-361.9137" y1="77.3644" x2="440.0451" y2="77.3644"/>
				<line class="st2" x1="-361.9137" y1="67.3417" x2="440.0451" y2="67.3417"/>
				<line class="st2" x1="-361.9137" y1="57.3191" x2="440.0451" y2="57.3191"/>
				<line class="st2" x1="-361.9137" y1="47.2999" x2="440.0451" y2="47.2999"/>
				<line class="st2" x1="-361.9137" y1="37.2776" x2="440.0451" y2="37.2776"/>
				<line class="st2" x1="-361.9137" y1="27.2549" x2="440.0451" y2="27.2549"/>
				<line class="st2" x1="-361.9137" y1="17.2358" x2="440.0451" y2="17.2358"/>
				<line class="st2" x1="-361.9137" y1="7.2134" x2="440.0451" y2="7.2134"/>
				<line class="st2" x1="-361.9137" y1="-2.8092" x2="440.0451" y2="-2.8092"/>
				<line class="st2" x1="-361.9137" y1="-12.8284" x2="440.0451" y2="-12.8284"/>
				<line class="st2" x1="-361.9137" y1="-22.8525" x2="440.0451" y2="-22.8525"/>
				<line class="st2" x1="-361.9137" y1="-32.8716" x2="440.0451" y2="-32.8716"/>
				<line class="st2" x1="-361.9137" y1="-42.8943" x2="440.0451" y2="-42.8943"/>
				<line class="st2" x1="-361.9137" y1="-52.9167" x2="440.0451" y2="-52.9167"/>
				<line class="st2" x1="-361.9137" y1="-62.9358" x2="440.0451" y2="-62.9358"/>
			</g>
			<g id="Vertical_1_mm">
				<g>
					<line class="st2" x1="-361.6478" y1="518.2573" x2="-361.6478" y2="-83.2467"/>
				</g>
				<line class="st2" x1="-351.6287" y1="518.2573" x2="-351.6287" y2="-83.2467"/>
				<line class="st2" x1="-341.6062" y1="518.2573" x2="-341.6062" y2="-83.2467"/>
				<line class="st2" x1="-331.5836" y1="518.2573" x2="-331.5836" y2="-83.2467"/>
				<line class="st2" x1="-321.5647" y1="518.2573" x2="-321.5647" y2="-83.2467"/>
				<line class="st2" x1="-311.542" y1="518.2573" x2="-311.542" y2="-83.2467"/>
				<line class="st2" x1="-301.5193" y1="518.2573" x2="-301.5193" y2="-83.2467"/>
				<line class="st2" x1="-291.5005" y1="518.2573" x2="-291.5005" y2="-83.2467"/>
				<line class="st2" x1="-281.4761" y1="518.2573" x2="-281.4761" y2="-83.2467"/>
				<line class="st2" x1="-271.4569" y1="518.2573" x2="-271.4569" y2="-83.2467"/>
				<line class="st2" x1="-261.4346" y1="518.2573" x2="-261.4346" y2="-83.2467"/>
				<line class="st2" x1="-251.4119" y1="518.2573" x2="-251.4119" y2="-83.2467"/>
				<line class="st2" x1="-241.3928" y1="518.2573" x2="-241.3928" y2="-83.2467"/>
				<line class="st2" x1="-231.3705" y1="518.2573" x2="-231.3705" y2="-83.2467"/>
				<line class="st2" x1="-221.3478" y1="518.2573" x2="-221.3478" y2="-83.2467"/>
				<line class="st2" x1="-211.3286" y1="518.2573" x2="-211.3286" y2="-83.2467"/>
				<line class="st2" x1="-201.306" y1="518.2573" x2="-201.306" y2="-83.2467"/>
				<line class="st2" x1="-191.2836" y1="518.2573" x2="-191.2836" y2="-83.2467"/>
				<line class="st2" x1="-181.2645" y1="518.2573" x2="-181.2645" y2="-83.2467"/>
				<line class="st2" x1="-171.2418" y1="518.2573" x2="-171.2418" y2="-83.2467"/>
				<line class="st2" x1="-161.2195" y1="518.2573" x2="-161.2195" y2="-83.2467"/>
				<line class="st2" x1="-151.2003" y1="518.2573" x2="-151.2003" y2="-83.2467"/>
				<line class="st2" x1="-141.1777" y1="518.2573" x2="-141.1777" y2="-83.2467"/>
				<line class="st2" x1="-131.1553" y1="518.2573" x2="-131.1553" y2="-83.2467"/>
				<line class="st2" x1="-121.1344" y1="518.2573" x2="-121.1344" y2="-83.2467"/>
				<line class="st2" x1="-111.1118" y1="518.2573" x2="-111.1118" y2="-83.2467"/>
				<line class="st2" x1="-101.093" y1="518.2573" x2="-101.093" y2="-83.2467"/>
				<line class="st2" x1="-91.0703" y1="518.2573" x2="-91.0703" y2="-83.2467"/>
				<line class="st2" x1="-81.0476" y1="518.2573" x2="-81.0476" y2="-83.2467"/>
				<line class="st2" x1="-71.0288" y1="518.2573" x2="-71.0288" y2="-83.2467"/>
				<line class="st2" x1="-61.0061" y1="518.2573" x2="-61.0061" y2="-83.2467"/>
				<line class="st2" x1="-50.9835" y1="518.2573" x2="-50.9835" y2="-83.2467"/>
				<line class="st2" x1="-40.9643" y1="518.2573" x2="-40.9643" y2="-83.2467"/>
				<line class="st2" x1="-30.942" y1="518.2573" x2="-30.942" y2="-83.2467"/>
				<line class="st2" x1="-20.9193" y1="518.2573" x2="-20.9193" y2="-83.2467"/>
				<line class="st2" x1="-10.9002" y1="518.2573" x2="-10.9002" y2="-83.2467"/>
				<line class="st2" x1="-0.8778" y1="518.2573" x2="-0.8778" y2="-83.2467"/>
				<line class="st2" x1="9.1448" y1="518.2573" x2="9.1448" y2="-83.2467"/>
				<line class="st2" x1="19.164" y1="518.2573" x2="19.164" y2="-83.2467"/>
				<line class="st2" x1="29.1863" y1="518.2573" x2="29.1863" y2="-83.2467"/>
				<line class="st2" x1="39.2054" y1="518.2573" x2="39.2054" y2="-83.2467"/>
				<line class="st2" x1="49.2299" y1="518.2573" x2="49.2299" y2="-83.2467"/>
				<line class="st2" x1="59.2522" y1="518.2573" x2="59.2522" y2="-83.2467"/>
				<line class="st2" x1="69.2714" y1="518.2573" x2="69.2714" y2="-83.2467"/>
				<line class="st2" x1="79.294" y1="518.2573" x2="79.294" y2="-83.2467"/>
				<line class="st2" x1="89.3164" y1="518.2573" x2="89.3164" y2="-83.2467"/>
				<line class="st2" x1="99.3355" y1="518.2573" x2="99.3355" y2="-83.2467"/>
				<line class="st2" x1="109.3582" y1="518.2573" x2="109.3582" y2="-83.2467"/>
				<line class="st2" x1="119.3805" y1="518.2573" x2="119.3805" y2="-83.2467"/>
				<line class="st2" x1="129.3997" y1="518.2573" x2="129.3997" y2="-83.2467"/>
				<line class="st2" x1="139.4223" y1="518.2573" x2="139.4223" y2="-83.2467"/>
				<line class="st2" x1="149.4447" y1="518.2573" x2="149.4447" y2="-83.2467"/>
				<line class="st2" x1="159.4638" y1="518.2573" x2="159.4638" y2="-83.2467"/>
				<line class="st2" x1="169.4865" y1="518.2573" x2="169.4865" y2="-83.2467"/>
				<line class="st2" x1="179.5088" y1="518.2573" x2="179.5088" y2="-83.2467"/>
				<line class="st2" x1="189.528" y1="518.2573" x2="189.528" y2="-83.2467"/>
				<line class="st2" x1="199.5524" y1="518.2573" x2="199.5524" y2="-83.2467"/>
				<line class="st2" x1="209.5715" y1="518.2573" x2="209.5715" y2="-83.2467"/>
				<line class="st2" x1="219.5939" y1="518.2573" x2="219.5939" y2="-83.2467"/>
				<line class="st2" x1="229.6165" y1="518.2573" x2="229.6165" y2="-83.2467"/>
				<line class="st2" x1="239.6357" y1="518.2573" x2="239.6357" y2="-83.2467"/>
				<line class="st2" x1="249.658" y1="518.2573" x2="249.658" y2="-83.2467"/>
				<line class="st2" x1="259.6807" y1="518.2573" x2="259.6807" y2="-83.2467"/>
				<line class="st2" x1="269.6999" y1="518.2573" x2="269.6999" y2="-83.2467"/>
				<line class="st2" x1="279.7222" y1="518.2573" x2="279.7222" y2="-83.2467"/>
				<line class="st2" x1="289.7448" y1="518.2573" x2="289.7448" y2="-83.2467"/>
				<line class="st2" x1="299.764" y1="518.2573" x2="299.764" y2="-83.2467"/>
				<line class="st2" x1="309.7863" y1="518.2573" x2="309.7863" y2="-83.2467"/>
				<line class="st2" x1="319.809" y1="518.2573" x2="319.809" y2="-83.2467"/>
				<line class="st2" x1="329.8282" y1="518.2573" x2="329.8282" y2="-83.2467"/>
				<line class="st2" x1="339.8508" y1="518.2573" x2="339.8508" y2="-83.2467"/>
				<line class="st2" x1="349.8731" y1="518.2573" x2="349.8731" y2="-83.2467"/>
				<line class="st2" x1="359.8941" y1="518.2573" x2="359.8941" y2="-83.2467"/>
				<line class="st2" x1="369.9164" y1="518.2573" x2="369.9164" y2="-83.2467"/>
				<line class="st2" x1="379.9355" y1="518.2573" x2="379.9355" y2="-83.2467"/>
				<line class="st2" x1="389.9582" y1="518.2573" x2="389.9582" y2="-83.2467"/>
				<line class="st2" x1="399.9809" y1="518.2573" x2="399.9809" y2="-83.2467"/>
				<line class="st2" x1="409.9997" y1="518.2573" x2="409.9997" y2="-83.2467"/>
				<line class="st2" x1="420.0224" y1="518.2573" x2="420.0224" y2="-83.2467"/>
				<line class="st2" x1="430.045" y1="518.2573" x2="430.045" y2="-83.2467"/>
				<line class="st2" x1="440.0638" y1="518.2573" x2="440.0638" y2="-83.2467"/>
			</g>
			<g id="Horizontal_5_mm_1_">
				<line class="st3" x1="-362.8855" y1="518.3061" x2="440.0451" y2="518.3061"/>
				<line class="st3" x1="-362.8855" y1="468.2001" x2="440.0451" y2="468.2001"/>
				<line class="st3" x1="-362.8855" y1="418.0927" x2="440.0451" y2="418.0927"/>
				<line class="st3" x1="-362.8855" y1="367.9836" x2="440.0451" y2="367.9836"/>
				<line class="st3" x1="-362.8855" y1="317.8776" x2="440.0451" y2="317.8776"/>
				<line class="st3" x1="-362.8855" y1="267.7702" x2="440.0451" y2="267.7702"/>
				<line class="st3" x1="-362.8855" y1="217.6642" x2="440.0451" y2="217.6642"/>
				<line class="st3" x1="-362.8855" y1="167.5551" x2="440.0451" y2="167.5551"/>
				<line class="st3" x1="-362.8855" y1="117.4474" x2="440.0451" y2="117.4474"/>
				<line class="st3" x1="-362.8855" y1="67.3417" x2="440.0451" y2="67.3417"/>
				<line class="st3" x1="-362.8855" y1="17.2358" x2="440.0451" y2="17.2358"/>
			</g>
			<g id="Vertical_5_mm">
				<line class="st3" x1="-361.6478" y1="518.2573" x2="-361.6478" y2="-84.2186"/>
				<line class="st3" x1="-311.542" y1="518.2573" x2="-311.542" y2="-84.2186"/>
				<line class="st3" x1="-261.4346" y1="518.2573" x2="-261.4346" y2="-84.2186"/>
				<line class="st3" x1="-211.3286" y1="518.2573" x2="-211.3286" y2="-84.2186"/>
				<line class="st3" x1="-161.2195" y1="518.2573" x2="-161.2195" y2="-84.2186"/>
				<line class="st3" x1="-111.1118" y1="518.2573" x2="-111.1118" y2="-84.2186"/>
				<line class="st3" x1="-61.0061" y1="518.2573" x2="-61.0061" y2="-84.2186"/>
				<line class="st3" x1="-10.9002" y1="518.2573" x2="-10.9002" y2="-84.2186"/>
				<line class="st3" x1="39.2054" y1="518.2573" x2="39.2054" y2="-84.2186"/>
				<line class="st3" x1="89.3164" y1="518.2573" x2="89.3164" y2="-84.2186"/>
				<line class="st3" x1="139.4223" y1="518.2573" x2="139.4223" y2="-84.2186"/>
				<line class="st3" x1="189.528" y1="518.2573" x2="189.528" y2="-84.2186"/>
				<line class="st3" x1="239.6357" y1="518.2573" x2="239.6357" y2="-84.2186"/>
				<line class="st3" x1="289.7448" y1="518.2573" x2="289.7448" y2="-84.2186"/>
				<line class="st3" x1="339.8508" y1="518.2573" x2="339.8508" y2="-84.2186"/>
				<line class="st3" x1="389.9582" y1="518.2573" x2="389.9582" y2="-84.2186"/>
				<line class="st3" x1="440.0638" y1="518.2573" x2="440.0638" y2="-84.2186"/>
			</g>
			<g id="Horizontal_10_mm">
				<line id="_x31_9_1_" class="st4" x1="-362.8855" y1="518.3061" x2="440.0451" y2="518.3061"/>
				<line id="_x32_0" class="st4" x1="-362.8855" y1="418.0927" x2="440.0451" y2="418.0927"/>
				<line id="_x32_1" class="st4" x1="-362.8855" y1="317.8776" x2="440.0451" y2="317.8776"/>
				<line id="_x32_2" class="st4" x1="-362.8855" y1="217.6642" x2="440.0451" y2="217.6642"/>
				<line id="_x32_3" class="st4" x1="-362.8855" y1="117.4474" x2="440.0451" y2="117.4474"/>
				<line id="_x32_4" class="st4" x1="-362.8855" y1="17.2358" x2="440.0451" y2="17.2358"/>
				<line id="_x32_5" class="st4" x1="-362.8855" y1="-82.9809" x2="440.0451" y2="-82.9809"/>
			</g>
			<g id="Vertical_10_mm">
				<line id="_x30_" class="st4" x1="-361.6478" y1="518.2573" x2="-361.6478" y2="-84.2186"/>
				<line id="_x31_" class="st4" x1="-261.4346" y1="518.2573" x2="-261.4346" y2="-84.2186"/>
				<line id="_x32_" class="st4" x1="-161.2195" y1="518.2573" x2="-161.2195" y2="-84.2186"/>
				<line id="_x33_" class="st4" x1="-61.0061" y1="518.2573" x2="-61.0061" y2="-84.2186"/>
				<line id="_x34_" class="st4" x1="39.2054" y1="518.2573" x2="39.2054" y2="-84.2186"/>
				<line id="_x35_" class="st4" x1="139.4223" y1="518.2573" x2="139.4223" y2="-84.2186"/>
				<line id="_x36_" class="st4" x1="239.6357" y1="518.2573" x2="239.6357" y2="-84.2186"/>
				<line id="_x37_" class="st4" x1="339.8508" y1="518.2573" x2="339.8508" y2="-84.2186"/>
				<line id="_x38_" class="st4" x1="440.0638" y1="518.2573" x2="440.0638" y2="-84.2186"/>
			</g>
		</g>
	</g>
</g>
<g id="Layer_2">
	<polygon class="st5" points="159.4638,42.4479 159.4638,67.3417 159.4638,67.6258 209.8893,67.6258 209.8893,137.7423 
		69.0432,137.7423 69.0432,67.6258 119.3805,67.6258 119.3805,67.3417 119.3805,42.4479 33.1227,42.4479 33.1227,162.9202 
		245.8098,162.9202 245.8098,42.4479 	"/>
	<polygon class="st6" points="159.4638,42.4479 159.4638,67.3417 159.4638,67.6258 209.8893,67.6258 209.8893,137.7423 
		69.0432,137.7423 69.0432,67.6258 119.3805,67.6258 119.3805,67.3417 119.3805,42.4479 33.1227,42.4479 33.1227,162.9202 
		245.8098,162.9202 245.8098,42.4479 	"/>
	<g class="st7">
		<g>
			<path class="st8" d="M61.2299,152.319h157.6413c6.6,0,12-5.4,12-12V67.0777c0-6.6-5.4-12-12-12H61.2299c-6.6,0-12,5.4-12,12
				v73.2414c0,6.2348,4.8189,11.3988,10.9162,11.9511"/>
			<g>
				<polygon class="st9" points="56.2565,155.6857 55.6948,154.8573 59.7788,152.0947 56.7249,148.2229 57.5113,147.6038 
					61.2297,152.32 				"/>
			</g>
		</g>
	</g>
	<g class="st7">
		<g>
			<path class="st10" d="M53.0065,157.3916h174.088c7.2886,0,13.252-5.9634,13.252-13.252V63.257
				c0-7.2886-5.9634-13.252-13.252-13.252H53.0065c-7.2886,0-13.252,5.9634-13.252,13.252v80.8826
				c0,6.9275,5.3871,12.6578,12.179,13.2086"/>
			<g>
				<polygon class="st9" points="48.1279,160.7884 47.5613,159.9758 51.5675,157.1884 48.4945,153.3961 49.2648,152.7731 
					53.0064,157.3925 				"/>
			</g>
		</g>
	</g>
	<g class="st7">
		<g>
			<path class="st8" d="M70.2838,146.7341h139.5335c5.8419,0,10.6216-4.7797,10.6216-10.6216V71.2842
				c0-5.8419-4.7797-10.6216-10.6216-10.6216H70.2838c-5.8419,0-10.6216,4.7797-10.6216,10.6216v64.8283
				c0,5.4762,4.2001,10.0191,9.5381,10.5663"/>
			<g>
				<polygon class="st9" points="65.2341,149.9853 64.6917,149.1441 68.8383,146.4764 65.8744,142.5352 66.6749,141.9344 
					70.2836,146.7351 				"/>
			</g>
		</g>
	</g>
	<g id="into">
		<circle class="st11" cx="139.4663" cy="54.8107" r="12.8896"/>
		<circle class="st12" cx="139.4663" cy="54.8107" r="12.8896"/>
		<path class="st13" d="M130.352,45.0519l18.2286,18.2286 M130.352,64.192l18.2286-18.2286"/>
	</g>
	<g>
		<path class="st14" d="M131.3095,81.0147c-1.4561,0.1816-1.6904,0.416-2.1318,2.002l-3.1201,11.1543
			c-0.2344,0.832-0.3906,1.4561-0.3906,1.9766c0,0.7275,0.3125,0.832,1.7949,1.0137v0.416h-6.3447v-0.416
			c1.4297-0.2598,1.7939-0.4941,2.1846-1.9502l3.1191-11.4658c0.1826-0.6504,0.3389-1.1963,0.3389-1.6123
			c0-0.6504-0.416-1.04-1.8721-1.1182v-0.416h6.4219V81.0147z"/>
	</g>
	<g>
		<g>
			<line class="st15" x1="122.9793" y1="75.0456" x2="133.6663" y2="75.0456"/>
			<g>
				<polygon class="st14" points="130.3528,79.1355 129.6707,78.403 133.2825,75.0466 129.6707,71.6892 130.3528,70.9567 
					134.7508,75.0466 				"/>
			</g>
		</g>
	</g>
	<g>
		<path class="st9" d="M23.7207,143.2095c3.6143,0,5.4082,1.3262,5.4082,3.9004c0,1.4033-0.7275,2.3135-1.6641,2.9375
			c-0.8057,0.5459-1.7686,0.7803-2.8857,1.0146v0.0254c2.2354,0.6768,3.2754,2.0547,3.2754,3.9004
			c0,3.4844-2.9375,5.2002-7.1504,5.2002h-7.0713v-0.416c1.4297-0.208,1.7158-0.4678,2.1572-2.0801l3.1465-11.3359
			c0.1816-0.6504,0.2861-1.2744,0.2861-1.6641c0-0.7549-0.3643-0.9365-2.002-1.0664v-0.416H23.7207z M19.1962,154.6763
			c-0.5195,1.9756-0.9102,3.3018-0.9102,3.6396c0,0.7275,0.6504,1.0918,1.7422,1.0918c2.9902,0,5.0186-1.5342,5.0186-4.4199
			c0-1.6123-0.7539-2.7559-1.7422-3.0938c-0.5205-0.1826-1.6377-0.3125-3.2764-0.3125L19.1962,154.6763z M21.2763,150.7495
			c3.4062,0,5.2266-1.3779,5.2266-3.9521c0-1.9238-0.9365-2.8076-3.042-2.8076c-1.0146,0-1.2744,0-1.5342,0.9355l-1.6387,5.8242
			H21.2763z"/>
	</g>
	<g>
		<g>
			<line class="st16" x1="17.1205" y1="138.3074" x2="27.8075" y2="138.3074"/>
			<g>
				<polygon class="st9" points="24.494,142.3972 23.8119,141.6648 27.4237,138.3083 23.8119,134.9509 24.494,134.2185 
					28.892,138.3083 				"/>
			</g>
		</g>
	</g>
	<g>
		<path class="st17" d="M108.2431,52.0493l-0.4688-0.0781c0-2.6523-0.5723-4.2383-3.0938-4.2383
			c-1.7939,0-2.9121,0.9629-2.9121,2.6006c0,1.2744,0.208,1.6904,2.5742,4.0557c2.3662,2.3926,2.9375,3.5107,2.9375,5.2002
			c0,2.9648-2.2617,5.0703-5.252,5.0703c-0.8057,0-1.5078-0.1816-2.7041-0.5977c-0.7021-0.2598-0.9355-0.3125-1.2217-0.3125
			c-0.5205,0-0.9365,0.2344-1.1182,0.832h-0.4678l0.8838-5.8242l0.5195,0.0527c-0.0518,0.2334-0.0518,0.416-0.0518,0.5977
			c0,2.5479,1.5605,4.3418,3.7441,4.3418c2.002,0,3.4062-1.3516,3.4062-3.3281c0-1.1182-0.3643-1.8975-1.5605-3.1982l-1.0137-1.0918
			c-0.3643-0.3896-0.6758-0.7539-1.0137-1.0918c-1.5605-1.6641-1.9502-2.4961-1.9502-3.9004c0-2.7295,2.1318-4.2637,4.6279-4.2637
			c0.8066,0,1.6641,0.1299,2.21,0.3633c0.5459,0.209,0.8584,0.2861,1.1963,0.2861c0.5723,0,0.8057-0.1299,1.1699-0.6758h0.5977
			L108.2431,52.0493z"/>
	</g>
	<g>
		<path class="st17" d="M184.4746,47.6294c-1.6377,0.3643-1.6895,0.416-2.6514,3.7695l-3.7969,13.1826h-0.4678l-5.9805-14.2998
			l-2.9639,10.9717c-0.1562,0.5459-0.2334,1.0664-0.2334,1.4043c0,0.7285,0.4678,1.0146,1.8193,1.1182v0.416h-5.1475v-0.416
			c1.4561-0.208,1.8193-0.624,2.7559-3.9521l3.042-10.79c-0.3896-0.9102-1.0146-1.4043-2.2363-1.4043v-0.416h4.1602l5.3818,12.9746
			l2.7568-10.0889c0.1553-0.5459,0.208-0.832,0.208-1.1436c0-0.9365-0.3125-1.1963-1.7939-1.3262v-0.416h5.1475V47.6294z"/>
	</g>
</g>
<g id="Layer_3">
	<g>
		<g>
			<line class="st18" x1="139.922" y1="54.6219" x2="139.922" y2="12.3851"/>
			<g>
				<polygon class="st19" points="144.0118,15.6986 143.2794,16.3807 139.9229,12.7689 136.5655,16.3807 135.8331,15.6986 
					139.9229,11.3006 				"/>
			</g>
		</g>
	</g>
	<g>
		<path class="st19" d="M163.4668,17.1465l-0.5459-0.0518c0.0771-0.5723,0.0771-0.7021,0.0771-0.8584
			c0-1.8975-0.5977-2.2363-5.1738-2.2363c-1.1963,0-1.5859,0.1562-1.7686,0.832l-1.6641,5.9023
			c4.3691-0.0518,4.4463-0.1035,5.6172-2.4434l0.4678,0.1299L158.5,24.5313l-0.4414-0.1309c0.1553-0.8057,0.208-1.1699,0.208-1.5859
			c0-1.04-0.7285-1.1436-1.9502-1.1436c-0.5723,0-1.1963-0.0264-2.1582-0.0781l-1.5342,5.5381
			c-0.1816,0.6504-0.3643,1.1699-0.3643,1.5605c0,0.624,0.4678,0.9102,2.002,1.0137v0.416h-6.5264v-0.416
			c1.5088-0.1035,1.7686-0.6758,2.1582-2.0283l3.1982-11.4922c0.1826-0.6504,0.2607-1.1699,0.2607-1.5859
			c0-0.7285-0.2607-0.8838-1.9766-1.04v-0.416h12.9229L163.4668,17.1465z"/>
	</g>
	<g>
		<g>
			<line class="st20" x1="151.783" y1="7.9509" x2="164.0811" y2="7.9509"/>
			<g>
				<polygon class="st19" points="160.7677,12.0408 160.0855,11.3083 163.6973,7.9519 160.0855,4.5945 160.7677,3.8621 
					165.1657,7.9519 				"/>
			</g>
		</g>
	</g>
	<g>
	</g>
</g>
</svg>
