<?xml version="1.0" encoding="utf-8"?>
<!-- Generator: Adobe Illustrator 26.0.1, SVG Export Plug-In . SVG Version: 6.00 Build 0)  -->
<svg version="1.1" xmlns="http://www.w3.org/2000/svg" xmlns:xlink="http://www.w3.org/1999/xlink" x="0px" y="0px"
	 viewBox="0 0 118.957 77.798" enable-background="new 0 0 118.957 77.798" xml:space="preserve">
<g id="Graph_paper_slanted" opacity="0.5">
	<g id="Clipped_grid_00000003068028900943026870000011536296927355263674_">
		<defs>
			<polygon id="SVGID_1_" points="84.92,112.674 -76.362,112.674 24.817,10.899 186.098,10.899 			"/>
		</defs>
		<clipPath id="SVGID_00000071517374514610343100000013367903010199165869_">
			<use xlink:href="#SVGID_1_"  overflow="visible"/>
		</clipPath>
		
			<g id="Grid_00000142891597197125820610000009767860333217090727_" opacity="0.25" clip-path="url(#SVGID_00000071517374514610343100000013367903010199165869_)">
			<g id="Horizontal_1_mm_00000151508609497893311650000018408800186222605470_">
				
					<line fill="none" stroke="#00ABEB" stroke-width="0.15" stroke-miterlimit="10" x1="2.087" y1="-6.993" x2="228.928" y2="-6.993"/>
				
					<line fill="none" stroke="#00ABEB" stroke-width="0.15" stroke-miterlimit="10" x1="4.075" y1="-8.981" x2="230.916" y2="-8.981"/>
				
					<line fill="none" stroke="#00ABEB" stroke-width="0.15" stroke-miterlimit="10" x1="-115.201" y1="110.295" x2="111.639" y2="110.295"/>
				
					<line fill="none" stroke="#00ABEB" stroke-width="0.15" stroke-miterlimit="10" x1="-113.213" y1="108.307" x2="113.628" y2="108.307"/>
				
					<line fill="none" stroke="#00ABEB" stroke-width="0.15" stroke-miterlimit="10" x1="-111.226" y1="106.32" x2="115.615" y2="106.32"/>
				
					<line fill="none" stroke="#00ABEB" stroke-width="0.15" stroke-miterlimit="10" x1="-109.238" y1="104.332" x2="117.603" y2="104.332"/>
				
					<line fill="none" stroke="#00ABEB" stroke-width="0.15" stroke-miterlimit="10" x1="-107.249" y1="102.343" x2="119.591" y2="102.343"/>
				
					<line fill="none" stroke="#00ABEB" stroke-width="0.15" stroke-miterlimit="10" x1="-105.262" y1="100.356" x2="121.579" y2="100.356"/>
				
					<line fill="none" stroke="#00ABEB" stroke-width="0.15" stroke-miterlimit="10" x1="-103.274" y1="98.368" x2="123.567" y2="98.368"/>
				
					<line fill="none" stroke="#00ABEB" stroke-width="0.15" stroke-miterlimit="10" x1="-101.286" y1="96.38" x2="125.554" y2="96.38"/>
				
					<line fill="none" stroke="#00ABEB" stroke-width="0.15" stroke-miterlimit="10" x1="-99.298" y1="94.392" x2="127.543" y2="94.392"/>
				
					<line fill="none" stroke="#00ABEB" stroke-width="0.15" stroke-miterlimit="10" x1="-97.31" y1="92.404" x2="129.531" y2="92.404"/>
				
					<line fill="none" stroke="#00ABEB" stroke-width="0.15" stroke-miterlimit="10" x1="-95.322" y1="90.416" x2="131.519" y2="90.416"/>
				
					<line fill="none" stroke="#00ABEB" stroke-width="0.15" stroke-miterlimit="10" x1="-93.334" y1="88.428" x2="133.507" y2="88.428"/>
				
					<line fill="none" stroke="#00ABEB" stroke-width="0.15" stroke-miterlimit="10" x1="-91.346" y1="86.44" x2="135.495" y2="86.44"/>
				
					<line fill="none" stroke="#00ABEB" stroke-width="0.15" stroke-miterlimit="10" x1="-89.358" y1="84.452" x2="137.482" y2="84.452"/>
				
					<line fill="none" stroke="#00ABEB" stroke-width="0.15" stroke-miterlimit="10" x1="-87.37" y1="82.464" x2="139.471" y2="82.464"/>
				
					<line fill="none" stroke="#00ABEB" stroke-width="0.15" stroke-miterlimit="10" x1="-85.382" y1="80.476" x2="141.459" y2="80.476"/>
				
					<line fill="none" stroke="#00ABEB" stroke-width="0.15" stroke-miterlimit="10" x1="-83.395" y1="78.489" x2="143.446" y2="78.489"/>
				
					<line fill="none" stroke="#00ABEB" stroke-width="0.15" stroke-miterlimit="10" x1="-81.406" y1="76.501" x2="145.434" y2="76.501"/>
				
					<line fill="none" stroke="#00ABEB" stroke-width="0.15" stroke-miterlimit="10" x1="-79.418" y1="74.512" x2="147.423" y2="74.512"/>
				
					<line fill="none" stroke="#00ABEB" stroke-width="0.15" stroke-miterlimit="10" x1="-77.431" y1="72.525" x2="149.41" y2="72.525"/>
				
					<line fill="none" stroke="#00ABEB" stroke-width="0.15" stroke-miterlimit="10" x1="-75.443" y1="70.537" x2="151.398" y2="70.537"/>
				
					<line fill="none" stroke="#00ABEB" stroke-width="0.15" stroke-miterlimit="10" x1="-73.454" y1="68.548" x2="153.387" y2="68.548"/>
				
					<line fill="none" stroke="#00ABEB" stroke-width="0.15" stroke-miterlimit="10" x1="-71.467" y1="66.561" x2="155.374" y2="66.561"/>
				
					<line fill="none" stroke="#00ABEB" stroke-width="0.15" stroke-miterlimit="10" x1="-69.478" y1="64.573" x2="157.362" y2="64.573"/>
				
					<line fill="none" stroke="#00ABEB" stroke-width="0.15" stroke-miterlimit="10" x1="-67.491" y1="62.585" x2="159.35" y2="62.585"/>
				
					<line fill="none" stroke="#00ABEB" stroke-width="0.15" stroke-miterlimit="10" x1="-65.503" y1="60.597" x2="161.338" y2="60.597"/>
				
					<line fill="none" stroke="#00ABEB" stroke-width="0.15" stroke-miterlimit="10" x1="-63.515" y1="58.609" x2="163.326" y2="58.609"/>
				
					<line fill="none" stroke="#00ABEB" stroke-width="0.15" stroke-miterlimit="10" x1="-61.527" y1="56.621" x2="165.314" y2="56.621"/>
				
					<line fill="none" stroke="#00ABEB" stroke-width="0.15" stroke-miterlimit="10" x1="-59.539" y1="54.633" x2="167.302" y2="54.633"/>
				
					<line fill="none" stroke="#00ABEB" stroke-width="0.15" stroke-miterlimit="10" x1="-57.551" y1="52.645" x2="169.29" y2="52.645"/>
				
					<line fill="none" stroke="#00ABEB" stroke-width="0.15" stroke-miterlimit="10" x1="-55.563" y1="50.658" x2="171.278" y2="50.658"/>
				
					<line fill="none" stroke="#00ABEB" stroke-width="0.15" stroke-miterlimit="10" x1="-53.575" y1="48.669" x2="173.266" y2="48.669"/>
				
					<line fill="none" stroke="#00ABEB" stroke-width="0.15" stroke-miterlimit="10" x1="-51.587" y1="46.681" x2="175.254" y2="46.681"/>
				
					<line fill="none" stroke="#00ABEB" stroke-width="0.15" stroke-miterlimit="10" x1="-49.6" y1="44.694" x2="177.241" y2="44.694"/>
				
					<line fill="none" stroke="#00ABEB" stroke-width="0.15" stroke-miterlimit="10" x1="-47.611" y1="42.706" x2="179.23" y2="42.706"/>
				
					<line fill="none" stroke="#00ABEB" stroke-width="0.15" stroke-miterlimit="10" x1="-45.623" y1="40.718" x2="181.218" y2="40.718"/>
				
					<line fill="none" stroke="#00ABEB" stroke-width="0.15" stroke-miterlimit="10" x1="-43.636" y1="38.73" x2="183.205" y2="38.73"/>
				
					<line fill="none" stroke="#00ABEB" stroke-width="0.15" stroke-miterlimit="10" x1="-41.648" y1="36.742" x2="185.193" y2="36.742"/>
				
					<line fill="none" stroke="#00ABEB" stroke-width="0.15" stroke-miterlimit="10" x1="-39.659" y1="34.754" x2="187.181" y2="34.754"/>
				
					<line fill="none" stroke="#00ABEB" stroke-width="0.15" stroke-miterlimit="10" x1="-37.672" y1="32.766" x2="189.169" y2="32.766"/>
				
					<line fill="none" stroke="#00ABEB" stroke-width="0.15" stroke-miterlimit="10" x1="-35.683" y1="30.778" x2="191.157" y2="30.778"/>
				
					<line fill="none" stroke="#00ABEB" stroke-width="0.15" stroke-miterlimit="10" x1="-33.696" y1="28.79" x2="193.145" y2="28.79"/>
				
					<line fill="none" stroke="#00ABEB" stroke-width="0.15" stroke-miterlimit="10" x1="-31.708" y1="26.802" x2="195.133" y2="26.802"/>
				
					<line fill="none" stroke="#00ABEB" stroke-width="0.15" stroke-miterlimit="10" x1="-29.72" y1="24.814" x2="197.121" y2="24.814"/>
				
					<line fill="none" stroke="#00ABEB" stroke-width="0.15" stroke-miterlimit="10" x1="-27.732" y1="22.827" x2="199.109" y2="22.827"/>
				
					<line fill="none" stroke="#00ABEB" stroke-width="0.15" stroke-miterlimit="10" x1="-25.744" y1="20.838" x2="201.097" y2="20.838"/>
				
					<line fill="none" stroke="#00ABEB" stroke-width="0.15" stroke-miterlimit="10" x1="-23.756" y1="18.85" x2="203.085" y2="18.85"/>
				
					<line fill="none" stroke="#00ABEB" stroke-width="0.15" stroke-miterlimit="10" x1="-21.768" y1="16.863" x2="205.073" y2="16.863"/>
				
					<line fill="none" stroke="#00ABEB" stroke-width="0.15" stroke-miterlimit="10" x1="-19.78" y1="14.875" x2="207.061" y2="14.875"/>
				
					<line fill="none" stroke="#00ABEB" stroke-width="0.15" stroke-miterlimit="10" x1="-17.792" y1="12.886" x2="209.049" y2="12.886"/>
				
					<line fill="none" stroke="#00ABEB" stroke-width="0.15" stroke-miterlimit="10" x1="-15.804" y1="10.899" x2="211.036" y2="10.899"/>
				
					<line fill="none" stroke="#00ABEB" stroke-width="0.15" stroke-miterlimit="10" x1="-13.816" y1="8.911" x2="213.025" y2="8.911"/>
				
					<line fill="none" stroke="#00ABEB" stroke-width="0.15" stroke-miterlimit="10" x1="-11.828" y1="6.923" x2="215.013" y2="6.923"/>
				<line fill="none" stroke="#00ABEB" stroke-width="0.15" stroke-miterlimit="10" x1="-9.841" y1="4.935" x2="217" y2="4.935"/>
				
					<line fill="none" stroke="#00ABEB" stroke-width="0.15" stroke-miterlimit="10" x1="-7.852" y1="2.947" x2="218.989" y2="2.947"/>
				
					<line fill="none" stroke="#00ABEB" stroke-width="0.15" stroke-miterlimit="10" x1="-5.865" y1="0.959" x2="220.976" y2="0.959"/>
				
					<line fill="none" stroke="#00ABEB" stroke-width="0.15" stroke-miterlimit="10" x1="-3.876" y1="-1.029" x2="222.964" y2="-1.029"/>
				
					<line fill="none" stroke="#00ABEB" stroke-width="0.15" stroke-miterlimit="10" x1="-1.888" y1="-3.017" x2="224.952" y2="-3.017"/>
				
					<line fill="none" stroke="#00ABEB" stroke-width="0.15" stroke-miterlimit="10" x1="0.099" y1="-5.005" x2="226.94" y2="-5.005"/>
			</g>
			<g id="Vertical_1_mm_00000181073523592228201180000012361058669048395659_">
				<g>
					
						<line fill="none" stroke="#00ABEB" stroke-width="0.15" stroke-miterlimit="10" x1="-115.117" y1="110.286" x2="4.203" y2="-9.034"/>
				</g>
				
					<line fill="none" stroke="#00ABEB" stroke-width="0.15" stroke-miterlimit="10" x1="-112.283" y1="110.286" x2="7.037" y2="-9.034"/>
				
					<line fill="none" stroke="#00ABEB" stroke-width="0.15" stroke-miterlimit="10" x1="-109.448" y1="110.286" x2="9.872" y2="-9.034"/>
				
					<line fill="none" stroke="#00ABEB" stroke-width="0.15" stroke-miterlimit="10" x1="-106.613" y1="110.286" x2="12.707" y2="-9.034"/>
				
					<line fill="none" stroke="#00ABEB" stroke-width="0.15" stroke-miterlimit="10" x1="-103.779" y1="110.286" x2="15.541" y2="-9.034"/>
				
					<line fill="none" stroke="#00ABEB" stroke-width="0.15" stroke-miterlimit="10" x1="-100.944" y1="110.286" x2="18.376" y2="-9.034"/>
				
					<line fill="none" stroke="#00ABEB" stroke-width="0.15" stroke-miterlimit="10" x1="-98.109" y1="110.286" x2="21.211" y2="-9.034"/>
				
					<line fill="none" stroke="#00ABEB" stroke-width="0.15" stroke-miterlimit="10" x1="-95.275" y1="110.286" x2="24.045" y2="-9.034"/>
				
					<line fill="none" stroke="#00ABEB" stroke-width="0.15" stroke-miterlimit="10" x1="-92.439" y1="110.286" x2="26.881" y2="-9.034"/>
				
					<line fill="none" stroke="#00ABEB" stroke-width="0.15" stroke-miterlimit="10" x1="-89.605" y1="110.286" x2="29.715" y2="-9.034"/>
				
					<line fill="none" stroke="#00ABEB" stroke-width="0.15" stroke-miterlimit="10" x1="-86.77" y1="110.286" x2="32.55" y2="-9.034"/>
				
					<line fill="none" stroke="#00ABEB" stroke-width="0.15" stroke-miterlimit="10" x1="-83.935" y1="110.286" x2="35.385" y2="-9.034"/>
				
					<line fill="none" stroke="#00ABEB" stroke-width="0.15" stroke-miterlimit="10" x1="-81.101" y1="110.286" x2="38.219" y2="-9.034"/>
				
					<line fill="none" stroke="#00ABEB" stroke-width="0.15" stroke-miterlimit="10" x1="-78.267" y1="110.286" x2="41.053" y2="-9.034"/>
				
					<line fill="none" stroke="#00ABEB" stroke-width="0.15" stroke-miterlimit="10" x1="-75.432" y1="110.286" x2="43.888" y2="-9.034"/>
				
					<line fill="none" stroke="#00ABEB" stroke-width="0.15" stroke-miterlimit="10" x1="-72.598" y1="110.286" x2="46.722" y2="-9.034"/>
				
					<line fill="none" stroke="#00ABEB" stroke-width="0.15" stroke-miterlimit="10" x1="-69.763" y1="110.286" x2="49.557" y2="-9.034"/>
				
					<line fill="none" stroke="#00ABEB" stroke-width="0.15" stroke-miterlimit="10" x1="-66.928" y1="110.286" x2="52.392" y2="-9.034"/>
				
					<line fill="none" stroke="#00ABEB" stroke-width="0.15" stroke-miterlimit="10" x1="-64.094" y1="110.286" x2="55.226" y2="-9.034"/>
				
					<line fill="none" stroke="#00ABEB" stroke-width="0.15" stroke-miterlimit="10" x1="-61.259" y1="110.286" x2="58.061" y2="-9.034"/>
				
					<line fill="none" stroke="#00ABEB" stroke-width="0.15" stroke-miterlimit="10" x1="-58.424" y1="110.286" x2="60.896" y2="-9.034"/>
				
					<line fill="none" stroke="#00ABEB" stroke-width="0.15" stroke-miterlimit="10" x1="-55.59" y1="110.286" x2="63.73" y2="-9.034"/>
				
					<line fill="none" stroke="#00ABEB" stroke-width="0.15" stroke-miterlimit="10" x1="-52.755" y1="110.286" x2="66.565" y2="-9.034"/>
				
					<line fill="none" stroke="#00ABEB" stroke-width="0.15" stroke-miterlimit="10" x1="-49.92" y1="110.286" x2="69.4" y2="-9.034"/>
				
					<line fill="none" stroke="#00ABEB" stroke-width="0.15" stroke-miterlimit="10" x1="-47.085" y1="110.286" x2="72.235" y2="-9.034"/>
				
					<line fill="none" stroke="#00ABEB" stroke-width="0.15" stroke-miterlimit="10" x1="-44.25" y1="110.286" x2="75.07" y2="-9.034"/>
				
					<line fill="none" stroke="#00ABEB" stroke-width="0.15" stroke-miterlimit="10" x1="-41.416" y1="110.286" x2="77.904" y2="-9.034"/>
				
					<line fill="none" stroke="#00ABEB" stroke-width="0.15" stroke-miterlimit="10" x1="-38.581" y1="110.286" x2="80.739" y2="-9.034"/>
				
					<line fill="none" stroke="#00ABEB" stroke-width="0.15" stroke-miterlimit="10" x1="-35.746" y1="110.286" x2="83.574" y2="-9.034"/>
				
					<line fill="none" stroke="#00ABEB" stroke-width="0.15" stroke-miterlimit="10" x1="-32.913" y1="110.286" x2="86.407" y2="-9.034"/>
				
					<line fill="none" stroke="#00ABEB" stroke-width="0.15" stroke-miterlimit="10" x1="-30.078" y1="110.286" x2="89.242" y2="-9.034"/>
				
					<line fill="none" stroke="#00ABEB" stroke-width="0.15" stroke-miterlimit="10" x1="-27.243" y1="110.286" x2="92.077" y2="-9.034"/>
				
					<line fill="none" stroke="#00ABEB" stroke-width="0.15" stroke-miterlimit="10" x1="-24.409" y1="110.286" x2="94.911" y2="-9.034"/>
				
					<line fill="none" stroke="#00ABEB" stroke-width="0.15" stroke-miterlimit="10" x1="-21.574" y1="110.286" x2="97.746" y2="-9.034"/>
				
					<line fill="none" stroke="#00ABEB" stroke-width="0.15" stroke-miterlimit="10" x1="-18.739" y1="110.286" x2="100.581" y2="-9.034"/>
				
					<line fill="none" stroke="#00ABEB" stroke-width="0.15" stroke-miterlimit="10" x1="-15.905" y1="110.286" x2="103.415" y2="-9.034"/>
				
					<line fill="none" stroke="#00ABEB" stroke-width="0.15" stroke-miterlimit="10" x1="-13.07" y1="110.286" x2="106.25" y2="-9.034"/>
				
					<line fill="none" stroke="#00ABEB" stroke-width="0.15" stroke-miterlimit="10" x1="-10.235" y1="110.286" x2="109.085" y2="-9.034"/>
				
					<line fill="none" stroke="#00ABEB" stroke-width="0.15" stroke-miterlimit="10" x1="-7.401" y1="110.286" x2="111.919" y2="-9.034"/>
				
					<line fill="none" stroke="#00ABEB" stroke-width="0.15" stroke-miterlimit="10" x1="-4.566" y1="110.286" x2="114.754" y2="-9.034"/>
				
					<line fill="none" stroke="#00ABEB" stroke-width="0.15" stroke-miterlimit="10" x1="-1.732" y1="110.286" x2="117.588" y2="-9.034"/>
				
					<line fill="none" stroke="#00ABEB" stroke-width="0.15" stroke-miterlimit="10" x1="1.104" y1="110.286" x2="120.424" y2="-9.034"/>
				
					<line fill="none" stroke="#00ABEB" stroke-width="0.15" stroke-miterlimit="10" x1="3.939" y1="110.286" x2="123.259" y2="-9.034"/>
				
					<line fill="none" stroke="#00ABEB" stroke-width="0.15" stroke-miterlimit="10" x1="6.773" y1="110.286" x2="126.093" y2="-9.034"/>
				
					<line fill="none" stroke="#00ABEB" stroke-width="0.15" stroke-miterlimit="10" x1="9.608" y1="110.286" x2="128.928" y2="-9.034"/>
				
					<line fill="none" stroke="#00ABEB" stroke-width="0.15" stroke-miterlimit="10" x1="12.442" y1="110.286" x2="131.762" y2="-9.034"/>
				
					<line fill="none" stroke="#00ABEB" stroke-width="0.15" stroke-miterlimit="10" x1="15.276" y1="110.286" x2="134.596" y2="-9.034"/>
				
					<line fill="none" stroke="#00ABEB" stroke-width="0.15" stroke-miterlimit="10" x1="18.111" y1="110.286" x2="137.431" y2="-9.034"/>
				
					<line fill="none" stroke="#00ABEB" stroke-width="0.15" stroke-miterlimit="10" x1="20.946" y1="110.286" x2="140.266" y2="-9.034"/>
				
					<line fill="none" stroke="#00ABEB" stroke-width="0.15" stroke-miterlimit="10" x1="23.78" y1="110.286" x2="143.1" y2="-9.034"/>
				
					<line fill="none" stroke="#00ABEB" stroke-width="0.15" stroke-miterlimit="10" x1="26.615" y1="110.286" x2="145.935" y2="-9.034"/>
				
					<line fill="none" stroke="#00ABEB" stroke-width="0.15" stroke-miterlimit="10" x1="29.45" y1="110.286" x2="148.77" y2="-9.034"/>
				
					<line fill="none" stroke="#00ABEB" stroke-width="0.15" stroke-miterlimit="10" x1="32.284" y1="110.286" x2="151.604" y2="-9.034"/>
				
					<line fill="none" stroke="#00ABEB" stroke-width="0.15" stroke-miterlimit="10" x1="35.119" y1="110.286" x2="154.439" y2="-9.034"/>
				
					<line fill="none" stroke="#00ABEB" stroke-width="0.15" stroke-miterlimit="10" x1="37.954" y1="110.286" x2="157.274" y2="-9.034"/>
				
					<line fill="none" stroke="#00ABEB" stroke-width="0.15" stroke-miterlimit="10" x1="40.788" y1="110.286" x2="160.108" y2="-9.034"/>
				
					<line fill="none" stroke="#00ABEB" stroke-width="0.15" stroke-miterlimit="10" x1="43.624" y1="110.286" x2="162.944" y2="-9.034"/>
				
					<line fill="none" stroke="#00ABEB" stroke-width="0.15" stroke-miterlimit="10" x1="46.458" y1="110.286" x2="165.778" y2="-9.034"/>
				
					<line fill="none" stroke="#00ABEB" stroke-width="0.15" stroke-miterlimit="10" x1="49.293" y1="110.286" x2="168.613" y2="-9.034"/>
				
					<line fill="none" stroke="#00ABEB" stroke-width="0.15" stroke-miterlimit="10" x1="52.128" y1="110.286" x2="171.448" y2="-9.034"/>
				
					<line fill="none" stroke="#00ABEB" stroke-width="0.15" stroke-miterlimit="10" x1="54.962" y1="110.286" x2="174.282" y2="-9.034"/>
				
					<line fill="none" stroke="#00ABEB" stroke-width="0.15" stroke-miterlimit="10" x1="57.796" y1="110.286" x2="177.116" y2="-9.034"/>
				
					<line fill="none" stroke="#00ABEB" stroke-width="0.15" stroke-miterlimit="10" x1="60.631" y1="110.286" x2="179.951" y2="-9.034"/>
				
					<line fill="none" stroke="#00ABEB" stroke-width="0.15" stroke-miterlimit="10" x1="63.465" y1="110.286" x2="182.785" y2="-9.034"/>
				
					<line fill="none" stroke="#00ABEB" stroke-width="0.15" stroke-miterlimit="10" x1="66.3" y1="110.286" x2="185.62" y2="-9.034"/>
				
					<line fill="none" stroke="#00ABEB" stroke-width="0.15" stroke-miterlimit="10" x1="69.135" y1="110.286" x2="188.455" y2="-9.034"/>
				
					<line fill="none" stroke="#00ABEB" stroke-width="0.15" stroke-miterlimit="10" x1="71.969" y1="110.286" x2="191.289" y2="-9.034"/>
				
					<line fill="none" stroke="#00ABEB" stroke-width="0.15" stroke-miterlimit="10" x1="74.804" y1="110.286" x2="194.124" y2="-9.034"/>
				
					<line fill="none" stroke="#00ABEB" stroke-width="0.15" stroke-miterlimit="10" x1="77.639" y1="110.286" x2="196.959" y2="-9.034"/>
				
					<line fill="none" stroke="#00ABEB" stroke-width="0.15" stroke-miterlimit="10" x1="80.473" y1="110.286" x2="199.793" y2="-9.034"/>
				
					<line fill="none" stroke="#00ABEB" stroke-width="0.15" stroke-miterlimit="10" x1="83.308" y1="110.286" x2="202.628" y2="-9.034"/>
				
					<line fill="none" stroke="#00ABEB" stroke-width="0.15" stroke-miterlimit="10" x1="86.143" y1="110.286" x2="205.463" y2="-9.034"/>
				
					<line fill="none" stroke="#00ABEB" stroke-width="0.15" stroke-miterlimit="10" x1="88.978" y1="110.286" x2="208.298" y2="-9.034"/>
				
					<line fill="none" stroke="#00ABEB" stroke-width="0.15" stroke-miterlimit="10" x1="91.813" y1="110.286" x2="211.133" y2="-9.034"/>
				
					<line fill="none" stroke="#00ABEB" stroke-width="0.15" stroke-miterlimit="10" x1="94.647" y1="110.286" x2="213.967" y2="-9.034"/>
				
					<line fill="none" stroke="#00ABEB" stroke-width="0.15" stroke-miterlimit="10" x1="97.482" y1="110.286" x2="216.802" y2="-9.034"/>
				
					<line fill="none" stroke="#00ABEB" stroke-width="0.15" stroke-miterlimit="10" x1="100.317" y1="110.286" x2="219.637" y2="-9.034"/>
				
					<line fill="none" stroke="#00ABEB" stroke-width="0.15" stroke-miterlimit="10" x1="103.15" y1="110.286" x2="222.47" y2="-9.034"/>
				
					<line fill="none" stroke="#00ABEB" stroke-width="0.15" stroke-miterlimit="10" x1="105.985" y1="110.286" x2="225.305" y2="-9.034"/>
				
					<line fill="none" stroke="#00ABEB" stroke-width="0.15" stroke-miterlimit="10" x1="108.82" y1="110.286" x2="228.14" y2="-9.034"/>
				
					<line fill="none" stroke="#00ABEB" stroke-width="0.15" stroke-miterlimit="10" x1="111.654" y1="110.286" x2="230.974" y2="-9.034"/>
			</g>
			<g id="Horizontal_5_mm_00000011735556503592991880000008134099091165005186_">
				
					<line fill="none" stroke="#00ABEB" stroke-width="0.3" stroke-miterlimit="10" x1="-115.476" y1="110.295" x2="111.639" y2="110.295"/>
				
					<line fill="none" stroke="#00ABEB" stroke-width="0.3" stroke-miterlimit="10" x1="-105.537" y1="100.356" x2="121.579" y2="100.356"/>
				
					<line fill="none" stroke="#00ABEB" stroke-width="0.3" stroke-miterlimit="10" x1="-95.597" y1="90.416" x2="131.519" y2="90.416"/>
				
					<line fill="none" stroke="#00ABEB" stroke-width="0.3" stroke-miterlimit="10" x1="-85.657" y1="80.476" x2="141.459" y2="80.476"/>
				
					<line fill="none" stroke="#00ABEB" stroke-width="0.3" stroke-miterlimit="10" x1="-75.717" y1="70.537" x2="151.398" y2="70.537"/>
				
					<line fill="none" stroke="#00ABEB" stroke-width="0.3" stroke-miterlimit="10" x1="-65.778" y1="60.597" x2="161.338" y2="60.597"/>
				
					<line fill="none" stroke="#00ABEB" stroke-width="0.3" stroke-miterlimit="10" x1="-55.838" y1="50.658" x2="171.278" y2="50.658"/>
				
					<line fill="none" stroke="#00ABEB" stroke-width="0.3" stroke-miterlimit="10" x1="-45.898" y1="40.718" x2="181.218" y2="40.718"/>
				
					<line fill="none" stroke="#00ABEB" stroke-width="0.3" stroke-miterlimit="10" x1="-35.958" y1="30.778" x2="191.157" y2="30.778"/>
				
					<line fill="none" stroke="#00ABEB" stroke-width="0.3" stroke-miterlimit="10" x1="-26.019" y1="20.838" x2="201.097" y2="20.838"/>
				
					<line fill="none" stroke="#00ABEB" stroke-width="0.3" stroke-miterlimit="10" x1="-16.079" y1="10.899" x2="211.036" y2="10.899"/>
			</g>
			<g id="Vertical_5_mm_00000064346364918789686960000003233481195482251947_">
				
					<line fill="none" stroke="#00ABEB" stroke-width="0.3" stroke-miterlimit="10" x1="-115.117" y1="110.286" x2="4.396" y2="-9.226"/>
				
					<line fill="none" stroke="#00ABEB" stroke-width="0.3" stroke-miterlimit="10" x1="-100.944" y1="110.286" x2="18.569" y2="-9.226"/>
				
					<line fill="none" stroke="#00ABEB" stroke-width="0.3" stroke-miterlimit="10" x1="-86.77" y1="110.286" x2="32.742" y2="-9.226"/>
				
					<line fill="none" stroke="#00ABEB" stroke-width="0.3" stroke-miterlimit="10" x1="-72.598" y1="110.286" x2="46.915" y2="-9.226"/>
				
					<line fill="none" stroke="#00ABEB" stroke-width="0.3" stroke-miterlimit="10" x1="-58.424" y1="110.286" x2="61.089" y2="-9.226"/>
				
					<line fill="none" stroke="#00ABEB" stroke-width="0.3" stroke-miterlimit="10" x1="-44.25" y1="110.286" x2="75.262" y2="-9.226"/>
				
					<line fill="none" stroke="#00ABEB" stroke-width="0.3" stroke-miterlimit="10" x1="-30.078" y1="110.286" x2="89.435" y2="-9.226"/>
				
					<line fill="none" stroke="#00ABEB" stroke-width="0.3" stroke-miterlimit="10" x1="-15.905" y1="110.286" x2="103.608" y2="-9.226"/>
				
					<line fill="none" stroke="#00ABEB" stroke-width="0.3" stroke-miterlimit="10" x1="-1.732" y1="110.286" x2="117.781" y2="-9.226"/>
				
					<line fill="none" stroke="#00ABEB" stroke-width="0.3" stroke-miterlimit="10" x1="12.442" y1="110.286" x2="131.955" y2="-9.226"/>
				
					<line fill="none" stroke="#00ABEB" stroke-width="0.3" stroke-miterlimit="10" x1="26.615" y1="110.286" x2="146.128" y2="-9.226"/>
				
					<line fill="none" stroke="#00ABEB" stroke-width="0.3" stroke-miterlimit="10" x1="40.788" y1="110.286" x2="160.301" y2="-9.226"/>
				
					<line fill="none" stroke="#00ABEB" stroke-width="0.3" stroke-miterlimit="10" x1="54.962" y1="110.286" x2="174.474" y2="-9.226"/>
				
					<line fill="none" stroke="#00ABEB" stroke-width="0.3" stroke-miterlimit="10" x1="69.135" y1="110.286" x2="188.648" y2="-9.226"/>
				
					<line fill="none" stroke="#00ABEB" stroke-width="0.3" stroke-miterlimit="10" x1="83.308" y1="110.286" x2="202.821" y2="-9.226"/>
				
					<line fill="none" stroke="#00ABEB" stroke-width="0.3" stroke-miterlimit="10" x1="97.482" y1="110.286" x2="216.994" y2="-9.226"/>
				
					<line fill="none" stroke="#00ABEB" stroke-width="0.3" stroke-miterlimit="10" x1="111.654" y1="110.286" x2="231.167" y2="-9.226"/>
			</g>
			<g id="Horizontal_10_mm_00000163045836177147705350000008480455355013810362_">
				
					<line id="_x31_9_00000057116790517712807720000015084113881736219806_" fill="none" stroke="#00ABEB" stroke-width="0.7" stroke-miterlimit="10" x1="-115.476" y1="110.295" x2="111.639" y2="110.295"/>
				
					<line id="_x32_0_00000024685878617286333290000013167547815532084100_" fill="none" stroke="#00ABEB" stroke-width="0.7" stroke-miterlimit="10" x1="-95.597" y1="90.416" x2="131.519" y2="90.416"/>
				
					<line id="_x32_1_00000138564813020868535020000012777939180148238773_" fill="none" stroke="#00ABEB" stroke-width="0.7" stroke-miterlimit="10" x1="-75.717" y1="70.537" x2="151.398" y2="70.537"/>
				
					<line id="_x32_2_00000052807586205252870140000014502512662559454639_" fill="none" stroke="#00ABEB" stroke-width="0.7" stroke-miterlimit="10" x1="-55.838" y1="50.658" x2="171.278" y2="50.658"/>
				
					<line id="_x32_3_00000051376893246677475670000009295515732899575694_" fill="none" stroke="#00ABEB" stroke-width="0.7" stroke-miterlimit="10" x1="-35.958" y1="30.778" x2="191.157" y2="30.778"/>
				
					<line id="_x32_4_00000099657911357833521510000007853591198542098087_" fill="none" stroke="#00ABEB" stroke-width="0.7" stroke-miterlimit="10" x1="-16.079" y1="10.899" x2="211.036" y2="10.899"/>
				
					<line id="_x32_5_00000155127691660191171140000008292164438978366870_" fill="none" stroke="#00ABEB" stroke-width="0.7" stroke-miterlimit="10" x1="3.801" y1="-8.981" x2="230.916" y2="-8.981"/>
			</g>
			<g id="Vertical_10_mm_00000134969164297783457920000010833503864539426239_">
				
					<line id="_x30__00000151539528360119995570000005083818057555393183_" fill="none" stroke="#00ABEB" stroke-width="0.7" stroke-miterlimit="10" x1="-115.117" y1="110.286" x2="4.396" y2="-9.226"/>
				
					<line id="_x31__00000021823889366233599640000011971139016478256513_" fill="none" stroke="#00ABEB" stroke-width="0.7" stroke-miterlimit="10" x1="-86.77" y1="110.286" x2="32.742" y2="-9.226"/>
				
					<line id="_x32__00000071550223824624162640000006130814236846722696_" fill="none" stroke="#00ABEB" stroke-width="0.7" stroke-miterlimit="10" x1="-58.424" y1="110.286" x2="61.089" y2="-9.226"/>
				
					<line id="_x33__00000042015976804734918030000005045165563697445304_" fill="none" stroke="#00ABEB" stroke-width="0.7" stroke-miterlimit="10" x1="-30.078" y1="110.286" x2="89.435" y2="-9.226"/>
				
					<line id="_x34__00000081637789328126233800000002486991317463304126_" fill="none" stroke="#00ABEB" stroke-width="0.7" stroke-miterlimit="10" x1="-1.732" y1="110.286" x2="117.781" y2="-9.226"/>
				
					<line id="_x35__00000051353690731882489090000004794744233340785543_" fill="none" stroke="#00ABEB" stroke-width="0.7" stroke-miterlimit="10" x1="26.615" y1="110.286" x2="146.128" y2="-9.226"/>
				
					<line id="_x36__00000011745311307505536660000010485558803267122343_" fill="none" stroke="#00ABEB" stroke-width="0.7" stroke-miterlimit="10" x1="54.962" y1="110.286" x2="174.474" y2="-9.226"/>
				
					<line id="_x37__00000045602144989735358580000003937589459941247142_" fill="none" stroke="#00ABEB" stroke-width="0.7" stroke-miterlimit="10" x1="83.308" y1="110.286" x2="202.821" y2="-9.226"/>
				
					<line id="_x38__00000047029857857898873560000014194396358708286345_" fill="none" stroke="#00ABEB" stroke-width="0.7" stroke-miterlimit="10" x1="111.654" y1="110.286" x2="231.167" y2="-9.226"/>
			</g>
		</g>
	</g>
</g>
<g id="Axis" display="none">
	<g id="lines" display="inline">
		<g>
			<g>
				
					<line fill="none" stroke="#000000" stroke-width="0.5" stroke-miterlimit="10" x1="57.901" y1="50.648" x2="57.901" y2="13.439"/>
				<g>
					<polygon points="59.753,14.843 57.901,14.057 56.05,14.843 57.901,10.454 					"/>
				</g>
			</g>
		</g>
		<g>
			<g>
				
					<line fill="none" stroke="#000000" stroke-width="0.5" stroke-miterlimit="10" x1="57.901" y1="50.648" x2="96.107" y2="50.648"/>
				<g>
					<polygon points="94.703,52.499 95.489,50.648 94.703,48.796 99.092,50.648 					"/>
				</g>
			</g>
		</g>
		<g>
			<g>
				
					<line fill="none" stroke="#000000" stroke-width="0.5" stroke-miterlimit="10" x1="57.901" y1="50.648" x2="33.195" y2="75.354"/>
				<g>
					<polygon points="32.879,73.052 33.632,74.917 35.497,75.67 31.084,77.465 					"/>
				</g>
			</g>
		</g>
	</g>
	<g id="names" display="inline">
		<g>
			<path d="M96.888,56.05c0.51-0.846,0.732-1.277,0.732-1.542c0-0.084-0.042-0.12-0.156-0.192c-0.12-0.078-0.156-0.138-0.156-0.234
				c0-0.132,0.102-0.222,0.24-0.222c0.18,0,0.312,0.15,0.312,0.33c0,0.342-0.288,1.001-0.786,1.829
				c-0.624,1.032-1.265,1.721-1.607,1.721c-0.18,0-0.306-0.102-0.306-0.258c0-0.132,0.102-0.24,0.234-0.24
				c0.21,0,0.21,0.167,0.366,0.167c0.078,0,0.15-0.048,0.288-0.198c0.108-0.114,0.378-0.468,0.426-0.545
				c0.036-0.072,0.06-0.144,0.06-0.21c0-0.24-0.33-1.583-0.492-1.991c-0.114-0.293-0.222-0.384-0.462-0.384
				c-0.066,0-0.12,0.006-0.186,0.024v-0.102c0.066-0.012,0.132-0.024,0.192-0.036c0.12-0.024,0.318-0.06,0.642-0.108h0.024
				c0.09,0,0.408,0.996,0.51,1.529L96.888,56.05z"/>
		</g>
		<g>
			<path d="M53.035,12.696c0.348,0.078,0.479,0.144,0.719,0.498c0.156,0.228,0.27,0.3,0.42,0.3c0.096,0,0.162-0.036,0.162-0.09
				c0-0.024-0.012-0.054-0.03-0.09c-0.036-0.072-0.048-0.12-0.048-0.167c0.006-0.102,0.102-0.204,0.198-0.204
				c0.126,0,0.21,0.09,0.21,0.222c0,0.24-0.222,0.456-0.558,0.456c-0.174,0-0.378-0.078-0.678-0.264
				c-0.282-0.174-0.474-0.251-0.629-0.251c-0.096,0-0.174,0.03-0.27,0.108l-0.054-0.054l1.859-2.231H53.52
				c-0.312,0-0.426,0.054-0.545,0.36l-0.096-0.024l0.192-0.695h1.697v0.066L53.035,12.696z"/>
		</g>
		<g>
			<path d="M29.595,73.472c0.419-0.642,0.642-0.857,0.905-0.857c0.144,0,0.246,0.09,0.246,0.222c0,0.126-0.084,0.216-0.204,0.216
				c-0.114,0-0.168-0.102-0.312-0.102c-0.108,0-0.324,0.264-0.588,0.726c0,0.042,0.012,0.126,0.048,0.27l0.192,0.804
				c0.042,0.168,0.096,0.246,0.18,0.246c0.078,0,0.144-0.06,0.282-0.24c0.054-0.072,0.078-0.108,0.126-0.168l0.09,0.054
				c-0.348,0.54-0.504,0.684-0.731,0.684c-0.192,0-0.282-0.108-0.354-0.408l-0.174-0.714l-0.528,0.714
				c-0.264,0.354-0.384,0.408-0.57,0.408c-0.186,0-0.3-0.096-0.3-0.252c0-0.12,0.084-0.216,0.204-0.216
				c0.054,0,0.114,0.024,0.192,0.066c0.06,0.036,0.12,0.054,0.156,0.054c0.066,0,0.18-0.114,0.306-0.294l0.492-0.696l-0.168-0.743
				c-0.084-0.36-0.126-0.408-0.276-0.408c-0.048,0-0.12,0.012-0.234,0.042l-0.108,0.03l-0.018-0.096l0.066-0.024
				c0.366-0.132,0.564-0.174,0.702-0.174c0.15,0,0.222,0.108,0.306,0.516L29.595,73.472z"/>
		</g>
	</g>
</g>
<g id="Layer_5">
	<g>
		<g>
			
				<line fill="none" stroke="#0000FF" stroke-width="0.2" stroke-miterlimit="10" x1="58.074" y1="75.405" x2="58.074" y2="73.905"/>
			
				<line fill="none" stroke="#0000FF" stroke-width="0.2" stroke-miterlimit="10" stroke-dasharray="2.9776,2.9776" x1="58.074" y1="70.927" x2="58.076" y2="6.908"/>
			<line fill="none" stroke="#0000FF" stroke-width="0.2" stroke-miterlimit="10" x1="58.076" y1="5.419" x2="58.076" y2="3.919"/>
		</g>
	</g>
	<g>
		<path fill="#00A300" d="M49.691,46.389c1.188,0,1.836,0.504,1.836,1.27c0,0.432-0.225,0.873-0.594,1.152
			c-0.279,0.216-0.576,0.324-1.179,0.459l0.801,2.116c0.198,0.531,0.378,0.738,0.783,0.738v0.144h-1.323l-1.107-2.917l-0.594-0.045
			l-0.495,1.828c-0.099,0.351-0.117,0.477-0.117,0.567c0,0.271,0.09,0.369,0.604,0.423v0.144h-2.188v-0.144
			c0.495-0.063,0.621-0.234,0.766-0.765l1.071-3.88c0.063-0.243,0.108-0.414,0.108-0.567c0-0.099-0.063-0.207-0.126-0.252
			c-0.099-0.063-0.135-0.072-0.513-0.126v-0.144H49.691z M48.422,48.973c0.225,0.036,0.297,0.045,0.459,0.045
			c1.071,0,1.701-0.513,1.701-1.351c0-0.621-0.378-1.008-1.08-1.008c-0.279,0-0.468,0.099-0.513,0.271L48.422,48.973z"/>
	</g>
	
		<ellipse fill="none" stroke="#000000" stroke-width="0.8" stroke-linecap="round" stroke-linejoin="round" stroke-miterlimit="10" stroke-dasharray="4" cx="58.074" cy="50.773" rx="48.572" ry="16.153"/>
	<path fill="none" stroke="#000000" stroke-width="0.8" stroke-linecap="round" stroke-linejoin="round" stroke-miterlimit="10" d="
		M106.646,50.773c0,8.921-21.747,16.153-48.572,16.153S9.501,59.695,9.501,50.773"/>
	<g>
		<g>
			<path fill="none" stroke="#000000" stroke-width="0.8" stroke-linecap="round" stroke-linejoin="round" d="M82.488,64.741
				c-3.709,0.719-7.73,1.278-11.979,1.652"/>
			<g>
				<polygon points="79.315,61.943 78.876,62.612 82.178,64.771 79.784,67.906 80.421,68.391 83.335,64.572 				"/>
			</g>
		</g>
	</g>
	<g>
		<path d="M78.074,57.613c-0.504,0.063-0.585,0.144-0.738,0.693l-1.08,3.862c-0.081,0.288-0.135,0.504-0.135,0.684
			c0,0.252,0.108,0.288,0.621,0.351v0.144h-2.197v-0.144c0.496-0.09,0.622-0.171,0.756-0.675l1.081-3.97
			c0.063-0.225,0.117-0.414,0.117-0.558c0-0.225-0.144-0.36-0.648-0.387v-0.144h2.224V57.613z"/>
	</g>
	<g>
		<path fill="#FF0000" d="M65.724,9.451c1.251,0,1.873,0.459,1.873,1.351c0,0.486-0.252,0.801-0.576,1.017
			c-0.279,0.189-0.612,0.27-0.999,0.351v0.009c0.774,0.234,1.134,0.711,1.134,1.35c0,1.207-1.018,1.801-2.476,1.801h-2.449v-0.144
			c0.496-0.072,0.594-0.162,0.748-0.72l1.089-3.925c0.063-0.225,0.099-0.441,0.099-0.576c0-0.261-0.126-0.324-0.693-0.369V9.451
			H65.724z M64.158,13.421c-0.18,0.684-0.315,1.144-0.315,1.26c0,0.252,0.225,0.378,0.603,0.378c1.035,0,1.738-0.531,1.738-1.531
			c0-0.558-0.261-0.954-0.604-1.071c-0.18-0.063-0.567-0.108-1.134-0.108L64.158,13.421z M64.878,12.062
			c1.179,0,1.81-0.477,1.81-1.368c0-0.667-0.324-0.973-1.053-0.973c-0.351,0-0.441,0-0.531,0.324l-0.567,2.017H64.878z"/>
	</g>
	<g>
		<g>
			
				<line fill="none" stroke="#FF0000" stroke-width="0.4" stroke-miterlimit="10" stroke-dasharray="12,12" x1="63.58" y1="7.328" x2="67.161" y2="7.328"/>
			<g>
				<polygon fill="#FF0000" points="65.836,8.964 65.563,8.671 67.008,7.329 65.563,5.986 65.836,5.693 67.595,7.329 				"/>
			</g>
		</g>
	</g>
	<g>
		<g>
			<path fill="none" stroke="#0000FF" stroke-width="0.4" stroke-linecap="round" stroke-linejoin="round" d="M31.652,64.33
				c-1.339-0.289-2.633-0.6-3.877-0.93"/>
			<g>
				
					<rect x="30.353" y="64.125" transform="matrix(0.2334 -0.9724 0.9724 0.2334 -38.2844 80.0866)" fill="#0000FF" width="2.6" height="0.4"/>
			</g>
			<g>
				
					<rect x="26.476" y="63.195" transform="matrix(0.2334 -0.9724 0.9724 0.2334 -40.3509 75.6043)" fill="#0000FF" width="2.6" height="0.4"/>
			</g>
		</g>
	</g>
	<g>
		<path fill="#00B200" d="M33.576,56.097c0.171-0.378,0.477-0.855,0.846-1.242c0.234-0.243,0.504-0.405,0.711-0.405
			c0.252,0,0.423,0.189,0.423,0.459c0,0.271-0.153,0.486-0.423,0.486c-0.162,0-0.234-0.099-0.315-0.234
			c-0.054-0.09-0.081-0.126-0.144-0.126c-0.162,0-0.414,0.297-0.738,0.847c-0.387,0.666-0.549,1.026-1,2.539h-0.684l0.729-2.629
			c0.126-0.468,0.144-0.549,0.144-0.738c0-0.189-0.162-0.234-0.342-0.234c-0.072,0-0.145,0.009-0.279,0.027v-0.153l1.396-0.243
			l0.027,0.018l-0.495,1.944L33.576,56.097z"/>
	</g>
	<g>
		<path fill="#00B200" d="M35.439,53.403l-1.288-2.602h-0.009l-1.278,2.602h-0.612l1.629-3.286h0.54l1.63,3.286H35.439z"/>
	</g>
	<g>
		<g>
			
				<line fill="none" stroke="#FF0000" stroke-width="0.8" stroke-miterlimit="10" x1="58.074" y1="50.773" x2="58.074" y2="15.742"/>
			<g>
				<polygon fill="#FF0000" points="61.346,18.393 60.76,18.939 58.075,16.049 55.389,18.939 54.803,18.393 58.075,14.875 				"/>
			</g>
		</g>
	</g>
	<g>
		<path fill="#0000FF" d="M25.907,69.676l-0.328,1.215l-0.503,1.751c-0.26,0.912-0.545,1.839-0.545,1.967
			c0,0.096,0.042,0.16,0.151,0.16c0.143,0,0.235-0.072,0.688-0.568l0.101,0.08c-0.411,0.584-0.814,0.912-1.234,0.912
			c-0.218,0-0.344-0.144-0.344-0.36c0-0.184,0.017-0.312,0.109-0.711c-0.495,0.792-0.923,1.055-1.494,1.055
			c-0.545,0-0.898-0.328-0.898-0.936c0-1.295,1.359-2.678,2.451-2.678c0.352,0,0.495,0.152,0.545,0.463h0.008l0.377-1.303
			c0.126-0.424,0.118-0.456,0.118-0.567c0-0.168-0.076-0.192-0.537-0.208v-0.136c0.537-0.048,0.839-0.096,1.284-0.184L25.907,69.676
			z M24.078,71.747c-0.235,0-0.529,0.136-0.764,0.368c-0.554,0.56-0.974,1.432-0.974,2.095c0,0.368,0.193,0.583,0.487,0.583
			c0.772,0,1.645-1.375,1.645-2.59C24.472,71.915,24.27,71.747,24.078,71.747z"/>
		<path fill="#0000FF" d="M26.735,74.346c-0.042,0.144-0.067,0.28-0.067,0.344c0,0.096,0.059,0.144,0.143,0.144
			c0.126,0,0.319-0.128,0.562-0.456l0.21-0.28l0.117,0.08c-0.503,0.76-0.814,1-1.267,1c-0.269,0-0.411-0.152-0.411-0.448
			c0-0.064,0.008-0.16,0.033-0.24l1.15-4.19c0.025-0.08,0.025-0.128,0.025-0.152c0-0.096-0.143-0.176-0.412-0.176h-0.151v-0.128
			c0.495-0.056,0.806-0.112,1.301-0.216l0.05,0.04L26.735,74.346z"/>
	</g>
	<g>
		<g>
			
				<line fill="none" stroke="#0000FF" stroke-width="0.4" stroke-miterlimit="10" stroke-dasharray="12,12" x1="26.123" y1="67.439" x2="28.938" y2="67.439"/>
			<g>
				<polygon fill="#0000FF" points="27.612,69.075 27.34,68.782 28.784,67.44 27.34,66.097 27.612,65.804 29.372,67.44 				"/>
			</g>
		</g>
	</g>
	
		<line fill="none" stroke="#00A300" stroke-width="0.2" stroke-miterlimit="10" stroke-dasharray="3" x1="58.073" y1="50.773" x2="27.581" y2="63.348"/>
	<g>
		<g>
			
				<line fill="none" stroke="#00A300" stroke-width="0.4" stroke-miterlimit="10" x1="42.427" y1="57.226" x2="27.582" y2="63.348"/>
			<g>
				<polygon fill="#00A300" points="40.578,56.219 40.437,56.594 42.285,57.284 41.461,59.076 41.825,59.243 42.828,57.06 				"/>
			</g>
		</g>
	</g>
</g>
<g id="Layer_4">
	<g>
	</g>
	<g>
	</g>
	<g>
	</g>
</g>
</svg>
