<?xml version="1.0" encoding="utf-8"?>
<!-- Generator: Adobe Illustrator 26.0.1, SVG Export Plug-In . SVG Version: 6.00 Build 0)  -->
<svg version="1.1" xmlns="http://www.w3.org/2000/svg" xmlns:xlink="http://www.w3.org/1999/xlink" x="0px" y="0px"
	 viewBox="0 0 74.945 49.1" enable-background="new 0 0 74.945 49.1" xml:space="preserve">
<g id="Graph_paper_slanted" opacity="0.2">
	<g id="Clipped_grid_00000003068028900943026870000011536296927355263674_">
		<defs>
			<polygon id="SVGID_1_" points="78.385,118.731 -82.897,118.731 18.282,16.956 179.563,16.956 			"/>
		</defs>
		<clipPath id="SVGID_00000103986856389511987900000005696669495972069299_">
			<use xlink:href="#SVGID_1_"  overflow="visible"/>
		</clipPath>
		
			<g id="Grid_00000142891597197125820610000009767860333217090727_" opacity="0.25" clip-path="url(#SVGID_00000103986856389511987900000005696669495972069299_)">
			<g id="Horizontal_1_mm_00000151508609497893311650000018408800186222605470_">
				
					<line fill="none" stroke="#00ABEB" stroke-width="0.15" stroke-miterlimit="10" x1="-4.448" y1="-0.936" x2="222.393" y2="-0.936"/>
				
					<line fill="none" stroke="#00ABEB" stroke-width="0.15" stroke-miterlimit="10" x1="-2.46" y1="-2.924" x2="224.381" y2="-2.924"/>
				
					<line fill="none" stroke="#00ABEB" stroke-width="0.15" stroke-miterlimit="10" x1="-121.737" y1="116.352" x2="105.104" y2="116.352"/>
				
					<line fill="none" stroke="#00ABEB" stroke-width="0.15" stroke-miterlimit="10" x1="-119.748" y1="114.364" x2="107.092" y2="114.364"/>
				
					<line fill="none" stroke="#00ABEB" stroke-width="0.15" stroke-miterlimit="10" x1="-117.761" y1="112.377" x2="109.08" y2="112.377"/>
				
					<line fill="none" stroke="#00ABEB" stroke-width="0.15" stroke-miterlimit="10" x1="-115.773" y1="110.389" x2="111.068" y2="110.389"/>
				
					<line fill="none" stroke="#00ABEB" stroke-width="0.15" stroke-miterlimit="10" x1="-113.785" y1="108.4" x2="113.056" y2="108.4"/>
				
					<line fill="none" stroke="#00ABEB" stroke-width="0.15" stroke-miterlimit="10" x1="-111.797" y1="106.413" x2="115.044" y2="106.413"/>
				
					<line fill="none" stroke="#00ABEB" stroke-width="0.15" stroke-miterlimit="10" x1="-109.809" y1="104.425" x2="117.032" y2="104.425"/>
				
					<line fill="none" stroke="#00ABEB" stroke-width="0.15" stroke-miterlimit="10" x1="-107.822" y1="102.437" x2="119.019" y2="102.437"/>
				
					<line fill="none" stroke="#00ABEB" stroke-width="0.15" stroke-miterlimit="10" x1="-105.833" y1="100.449" x2="121.008" y2="100.449"/>
				
					<line fill="none" stroke="#00ABEB" stroke-width="0.15" stroke-miterlimit="10" x1="-103.845" y1="98.461" x2="122.996" y2="98.461"/>
				
					<line fill="none" stroke="#00ABEB" stroke-width="0.15" stroke-miterlimit="10" x1="-101.857" y1="96.473" x2="124.983" y2="96.473"/>
				
					<line fill="none" stroke="#00ABEB" stroke-width="0.15" stroke-miterlimit="10" x1="-99.869" y1="94.485" x2="126.972" y2="94.485"/>
				
					<line fill="none" stroke="#00ABEB" stroke-width="0.15" stroke-miterlimit="10" x1="-97.881" y1="92.497" x2="128.96" y2="92.497"/>
				
					<line fill="none" stroke="#00ABEB" stroke-width="0.15" stroke-miterlimit="10" x1="-95.894" y1="90.509" x2="130.947" y2="90.509"/>
				
					<line fill="none" stroke="#00ABEB" stroke-width="0.15" stroke-miterlimit="10" x1="-93.905" y1="88.521" x2="132.935" y2="88.521"/>
				
					<line fill="none" stroke="#00ABEB" stroke-width="0.15" stroke-miterlimit="10" x1="-91.917" y1="86.533" x2="134.924" y2="86.533"/>
				
					<line fill="none" stroke="#00ABEB" stroke-width="0.15" stroke-miterlimit="10" x1="-89.93" y1="84.546" x2="136.911" y2="84.546"/>
				
					<line fill="none" stroke="#00ABEB" stroke-width="0.15" stroke-miterlimit="10" x1="-87.942" y1="82.558" x2="138.899" y2="82.558"/>
				
					<line fill="none" stroke="#00ABEB" stroke-width="0.15" stroke-miterlimit="10" x1="-85.953" y1="80.569" x2="140.887" y2="80.569"/>
				
					<line fill="none" stroke="#00ABEB" stroke-width="0.15" stroke-miterlimit="10" x1="-83.966" y1="78.582" x2="142.875" y2="78.582"/>
				
					<line fill="none" stroke="#00ABEB" stroke-width="0.15" stroke-miterlimit="10" x1="-81.978" y1="76.594" x2="144.863" y2="76.594"/>
				
					<line fill="none" stroke="#00ABEB" stroke-width="0.15" stroke-miterlimit="10" x1="-79.989" y1="74.605" x2="146.852" y2="74.605"/>
				
					<line fill="none" stroke="#00ABEB" stroke-width="0.15" stroke-miterlimit="10" x1="-78.002" y1="72.618" x2="148.839" y2="72.618"/>
				
					<line fill="none" stroke="#00ABEB" stroke-width="0.15" stroke-miterlimit="10" x1="-76.014" y1="70.63" x2="150.827" y2="70.63"/>
				
					<line fill="none" stroke="#00ABEB" stroke-width="0.15" stroke-miterlimit="10" x1="-74.026" y1="68.642" x2="152.815" y2="68.642"/>
				
					<line fill="none" stroke="#00ABEB" stroke-width="0.15" stroke-miterlimit="10" x1="-72.038" y1="66.654" x2="154.803" y2="66.654"/>
				
					<line fill="none" stroke="#00ABEB" stroke-width="0.15" stroke-miterlimit="10" x1="-70.05" y1="64.666" x2="156.791" y2="64.666"/>
				
					<line fill="none" stroke="#00ABEB" stroke-width="0.15" stroke-miterlimit="10" x1="-68.062" y1="62.678" x2="158.779" y2="62.678"/>
				
					<line fill="none" stroke="#00ABEB" stroke-width="0.15" stroke-miterlimit="10" x1="-66.074" y1="60.69" x2="160.767" y2="60.69"/>
				
					<line fill="none" stroke="#00ABEB" stroke-width="0.15" stroke-miterlimit="10" x1="-64.086" y1="58.702" x2="162.755" y2="58.702"/>
				
					<line fill="none" stroke="#00ABEB" stroke-width="0.15" stroke-miterlimit="10" x1="-62.098" y1="56.715" x2="164.742" y2="56.715"/>
				
					<line fill="none" stroke="#00ABEB" stroke-width="0.15" stroke-miterlimit="10" x1="-60.11" y1="54.726" x2="166.73" y2="54.726"/>
				
					<line fill="none" stroke="#00ABEB" stroke-width="0.15" stroke-miterlimit="10" x1="-58.122" y1="52.738" x2="168.719" y2="52.738"/>
				
					<line fill="none" stroke="#00ABEB" stroke-width="0.15" stroke-miterlimit="10" x1="-56.135" y1="50.751" x2="170.706" y2="50.751"/>
				
					<line fill="none" stroke="#00ABEB" stroke-width="0.15" stroke-miterlimit="10" x1="-54.146" y1="48.763" x2="172.694" y2="48.763"/>
				
					<line fill="none" stroke="#00ABEB" stroke-width="0.15" stroke-miterlimit="10" x1="-52.158" y1="46.775" x2="174.682" y2="46.775"/>
				
					<line fill="none" stroke="#00ABEB" stroke-width="0.15" stroke-miterlimit="10" x1="-50.171" y1="44.787" x2="176.67" y2="44.787"/>
				
					<line fill="none" stroke="#00ABEB" stroke-width="0.15" stroke-miterlimit="10" x1="-48.183" y1="42.799" x2="178.658" y2="42.799"/>
				
					<line fill="none" stroke="#00ABEB" stroke-width="0.15" stroke-miterlimit="10" x1="-46.195" y1="40.811" x2="180.646" y2="40.811"/>
				
					<line fill="none" stroke="#00ABEB" stroke-width="0.15" stroke-miterlimit="10" x1="-44.207" y1="38.823" x2="182.634" y2="38.823"/>
				
					<line fill="none" stroke="#00ABEB" stroke-width="0.15" stroke-miterlimit="10" x1="-42.219" y1="36.835" x2="184.622" y2="36.835"/>
				
					<line fill="none" stroke="#00ABEB" stroke-width="0.15" stroke-miterlimit="10" x1="-40.231" y1="34.847" x2="186.61" y2="34.847"/>
				
					<line fill="none" stroke="#00ABEB" stroke-width="0.15" stroke-miterlimit="10" x1="-38.243" y1="32.859" x2="188.598" y2="32.859"/>
				
					<line fill="none" stroke="#00ABEB" stroke-width="0.15" stroke-miterlimit="10" x1="-36.255" y1="30.871" x2="190.586" y2="30.871"/>
				
					<line fill="none" stroke="#00ABEB" stroke-width="0.15" stroke-miterlimit="10" x1="-34.267" y1="28.884" x2="192.574" y2="28.884"/>
				
					<line fill="none" stroke="#00ABEB" stroke-width="0.15" stroke-miterlimit="10" x1="-32.279" y1="26.895" x2="194.562" y2="26.895"/>
				
					<line fill="none" stroke="#00ABEB" stroke-width="0.15" stroke-miterlimit="10" x1="-30.291" y1="24.907" x2="196.55" y2="24.907"/>
				
					<line fill="none" stroke="#00ABEB" stroke-width="0.15" stroke-miterlimit="10" x1="-28.303" y1="22.92" x2="198.537" y2="22.92"/>
				
					<line fill="none" stroke="#00ABEB" stroke-width="0.15" stroke-miterlimit="10" x1="-26.315" y1="20.932" x2="200.526" y2="20.932"/>
				
					<line fill="none" stroke="#00ABEB" stroke-width="0.15" stroke-miterlimit="10" x1="-24.327" y1="18.943" x2="202.514" y2="18.943"/>
				
					<line fill="none" stroke="#00ABEB" stroke-width="0.15" stroke-miterlimit="10" x1="-22.34" y1="16.956" x2="204.501" y2="16.956"/>
				
					<line fill="none" stroke="#00ABEB" stroke-width="0.15" stroke-miterlimit="10" x1="-20.351" y1="14.968" x2="206.489" y2="14.968"/>
				
					<line fill="none" stroke="#00ABEB" stroke-width="0.15" stroke-miterlimit="10" x1="-18.363" y1="12.98" x2="208.478" y2="12.98"/>
				
					<line fill="none" stroke="#00ABEB" stroke-width="0.15" stroke-miterlimit="10" x1="-16.376" y1="10.992" x2="210.465" y2="10.992"/>
				
					<line fill="none" stroke="#00ABEB" stroke-width="0.15" stroke-miterlimit="10" x1="-14.387" y1="9.004" x2="212.454" y2="9.004"/>
				
					<line fill="none" stroke="#00ABEB" stroke-width="0.15" stroke-miterlimit="10" x1="-12.4" y1="7.016" x2="214.441" y2="7.016"/>
				
					<line fill="none" stroke="#00ABEB" stroke-width="0.15" stroke-miterlimit="10" x1="-10.412" y1="5.028" x2="216.429" y2="5.028"/>
				<line fill="none" stroke="#00ABEB" stroke-width="0.15" stroke-miterlimit="10" x1="-8.424" y1="3.04" x2="218.417" y2="3.04"/>
				
					<line fill="none" stroke="#00ABEB" stroke-width="0.15" stroke-miterlimit="10" x1="-6.436" y1="1.052" x2="220.405" y2="1.052"/>
			</g>
			<g id="Vertical_1_mm_00000181073523592228201180000012361058669048395659_">
				<g>
					
						<line fill="none" stroke="#00ABEB" stroke-width="0.15" stroke-miterlimit="10" x1="-121.652" y1="116.343" x2="-2.332" y2="-2.977"/>
				</g>
				
					<line fill="none" stroke="#00ABEB" stroke-width="0.15" stroke-miterlimit="10" x1="-118.818" y1="116.343" x2="0.502" y2="-2.977"/>
				
					<line fill="none" stroke="#00ABEB" stroke-width="0.15" stroke-miterlimit="10" x1="-115.983" y1="116.343" x2="3.337" y2="-2.977"/>
				
					<line fill="none" stroke="#00ABEB" stroke-width="0.15" stroke-miterlimit="10" x1="-113.148" y1="116.343" x2="6.172" y2="-2.977"/>
				
					<line fill="none" stroke="#00ABEB" stroke-width="0.15" stroke-miterlimit="10" x1="-110.314" y1="116.343" x2="9.006" y2="-2.977"/>
				
					<line fill="none" stroke="#00ABEB" stroke-width="0.15" stroke-miterlimit="10" x1="-107.479" y1="116.343" x2="11.841" y2="-2.977"/>
				
					<line fill="none" stroke="#00ABEB" stroke-width="0.15" stroke-miterlimit="10" x1="-104.644" y1="116.343" x2="14.676" y2="-2.977"/>
				
					<line fill="none" stroke="#00ABEB" stroke-width="0.15" stroke-miterlimit="10" x1="-101.81" y1="116.343" x2="17.51" y2="-2.977"/>
				
					<line fill="none" stroke="#00ABEB" stroke-width="0.15" stroke-miterlimit="10" x1="-98.975" y1="116.343" x2="20.345" y2="-2.977"/>
				
					<line fill="none" stroke="#00ABEB" stroke-width="0.15" stroke-miterlimit="10" x1="-96.141" y1="116.343" x2="23.179" y2="-2.977"/>
				
					<line fill="none" stroke="#00ABEB" stroke-width="0.15" stroke-miterlimit="10" x1="-93.306" y1="116.343" x2="26.014" y2="-2.977"/>
				
					<line fill="none" stroke="#00ABEB" stroke-width="0.15" stroke-miterlimit="10" x1="-90.471" y1="116.343" x2="28.849" y2="-2.977"/>
				
					<line fill="none" stroke="#00ABEB" stroke-width="0.15" stroke-miterlimit="10" x1="-87.637" y1="116.343" x2="31.683" y2="-2.977"/>
				
					<line fill="none" stroke="#00ABEB" stroke-width="0.15" stroke-miterlimit="10" x1="-84.802" y1="116.343" x2="34.518" y2="-2.977"/>
				
					<line fill="none" stroke="#00ABEB" stroke-width="0.15" stroke-miterlimit="10" x1="-81.967" y1="116.343" x2="37.353" y2="-2.977"/>
				
					<line fill="none" stroke="#00ABEB" stroke-width="0.15" stroke-miterlimit="10" x1="-79.133" y1="116.343" x2="40.187" y2="-2.977"/>
				
					<line fill="none" stroke="#00ABEB" stroke-width="0.15" stroke-miterlimit="10" x1="-76.298" y1="116.343" x2="43.022" y2="-2.977"/>
				
					<line fill="none" stroke="#00ABEB" stroke-width="0.15" stroke-miterlimit="10" x1="-73.463" y1="116.343" x2="45.857" y2="-2.977"/>
				
					<line fill="none" stroke="#00ABEB" stroke-width="0.15" stroke-miterlimit="10" x1="-70.629" y1="116.343" x2="48.691" y2="-2.977"/>
				
					<line fill="none" stroke="#00ABEB" stroke-width="0.15" stroke-miterlimit="10" x1="-67.794" y1="116.343" x2="51.526" y2="-2.977"/>
				
					<line fill="none" stroke="#00ABEB" stroke-width="0.15" stroke-miterlimit="10" x1="-64.959" y1="116.343" x2="54.361" y2="-2.977"/>
				
					<line fill="none" stroke="#00ABEB" stroke-width="0.15" stroke-miterlimit="10" x1="-62.125" y1="116.343" x2="57.195" y2="-2.977"/>
				
					<line fill="none" stroke="#00ABEB" stroke-width="0.15" stroke-miterlimit="10" x1="-59.29" y1="116.343" x2="60.03" y2="-2.977"/>
				
					<line fill="none" stroke="#00ABEB" stroke-width="0.15" stroke-miterlimit="10" x1="-56.455" y1="116.343" x2="62.865" y2="-2.977"/>
				
					<line fill="none" stroke="#00ABEB" stroke-width="0.15" stroke-miterlimit="10" x1="-53.621" y1="116.343" x2="65.699" y2="-2.977"/>
				
					<line fill="none" stroke="#00ABEB" stroke-width="0.15" stroke-miterlimit="10" x1="-50.786" y1="116.343" x2="68.534" y2="-2.977"/>
				
					<line fill="none" stroke="#00ABEB" stroke-width="0.15" stroke-miterlimit="10" x1="-47.952" y1="116.343" x2="71.368" y2="-2.977"/>
				
					<line fill="none" stroke="#00ABEB" stroke-width="0.15" stroke-miterlimit="10" x1="-45.117" y1="116.343" x2="74.203" y2="-2.977"/>
				
					<line fill="none" stroke="#00ABEB" stroke-width="0.15" stroke-miterlimit="10" x1="-42.282" y1="116.343" x2="77.038" y2="-2.977"/>
				
					<line fill="none" stroke="#00ABEB" stroke-width="0.15" stroke-miterlimit="10" x1="-39.448" y1="116.343" x2="79.872" y2="-2.977"/>
				
					<line fill="none" stroke="#00ABEB" stroke-width="0.15" stroke-miterlimit="10" x1="-36.613" y1="116.343" x2="82.707" y2="-2.977"/>
				
					<line fill="none" stroke="#00ABEB" stroke-width="0.15" stroke-miterlimit="10" x1="-33.778" y1="116.343" x2="85.542" y2="-2.977"/>
				
					<line fill="none" stroke="#00ABEB" stroke-width="0.15" stroke-miterlimit="10" x1="-30.944" y1="116.343" x2="88.376" y2="-2.977"/>
				
					<line fill="none" stroke="#00ABEB" stroke-width="0.15" stroke-miterlimit="10" x1="-28.109" y1="116.343" x2="91.211" y2="-2.977"/>
				
					<line fill="none" stroke="#00ABEB" stroke-width="0.15" stroke-miterlimit="10" x1="-25.274" y1="116.343" x2="94.046" y2="-2.977"/>
				
					<line fill="none" stroke="#00ABEB" stroke-width="0.15" stroke-miterlimit="10" x1="-22.44" y1="116.343" x2="96.88" y2="-2.977"/>
				
					<line fill="none" stroke="#00ABEB" stroke-width="0.15" stroke-miterlimit="10" x1="-19.605" y1="116.343" x2="99.715" y2="-2.977"/>
				
					<line fill="none" stroke="#00ABEB" stroke-width="0.15" stroke-miterlimit="10" x1="-16.77" y1="116.343" x2="102.55" y2="-2.977"/>
				
					<line fill="none" stroke="#00ABEB" stroke-width="0.15" stroke-miterlimit="10" x1="-13.936" y1="116.343" x2="105.384" y2="-2.977"/>
				
					<line fill="none" stroke="#00ABEB" stroke-width="0.15" stroke-miterlimit="10" x1="-11.101" y1="116.343" x2="108.219" y2="-2.977"/>
				
					<line fill="none" stroke="#00ABEB" stroke-width="0.15" stroke-miterlimit="10" x1="-8.267" y1="116.343" x2="111.053" y2="-2.977"/>
				
					<line fill="none" stroke="#00ABEB" stroke-width="0.15" stroke-miterlimit="10" x1="-5.432" y1="116.343" x2="113.888" y2="-2.977"/>
				
					<line fill="none" stroke="#00ABEB" stroke-width="0.15" stroke-miterlimit="10" x1="-2.597" y1="116.343" x2="116.723" y2="-2.977"/>
				
					<line fill="none" stroke="#00ABEB" stroke-width="0.15" stroke-miterlimit="10" x1="0.237" y1="116.343" x2="119.557" y2="-2.977"/>
				
					<line fill="none" stroke="#00ABEB" stroke-width="0.15" stroke-miterlimit="10" x1="3.072" y1="116.343" x2="122.392" y2="-2.977"/>
				
					<line fill="none" stroke="#00ABEB" stroke-width="0.15" stroke-miterlimit="10" x1="5.907" y1="116.343" x2="125.227" y2="-2.977"/>
				
					<line fill="none" stroke="#00ABEB" stroke-width="0.15" stroke-miterlimit="10" x1="8.741" y1="116.343" x2="128.061" y2="-2.977"/>
				
					<line fill="none" stroke="#00ABEB" stroke-width="0.15" stroke-miterlimit="10" x1="11.576" y1="116.343" x2="130.896" y2="-2.977"/>
				
					<line fill="none" stroke="#00ABEB" stroke-width="0.15" stroke-miterlimit="10" x1="14.411" y1="116.343" x2="133.731" y2="-2.977"/>
				
					<line fill="none" stroke="#00ABEB" stroke-width="0.15" stroke-miterlimit="10" x1="17.245" y1="116.343" x2="136.565" y2="-2.977"/>
				
					<line fill="none" stroke="#00ABEB" stroke-width="0.15" stroke-miterlimit="10" x1="20.08" y1="116.343" x2="139.4" y2="-2.977"/>
				
					<line fill="none" stroke="#00ABEB" stroke-width="0.15" stroke-miterlimit="10" x1="22.915" y1="116.343" x2="142.235" y2="-2.977"/>
				
					<line fill="none" stroke="#00ABEB" stroke-width="0.15" stroke-miterlimit="10" x1="25.749" y1="116.343" x2="145.069" y2="-2.977"/>
				
					<line fill="none" stroke="#00ABEB" stroke-width="0.15" stroke-miterlimit="10" x1="28.584" y1="116.343" x2="147.904" y2="-2.977"/>
				
					<line fill="none" stroke="#00ABEB" stroke-width="0.15" stroke-miterlimit="10" x1="31.419" y1="116.343" x2="150.739" y2="-2.977"/>
				
					<line fill="none" stroke="#00ABEB" stroke-width="0.15" stroke-miterlimit="10" x1="34.253" y1="116.343" x2="153.573" y2="-2.977"/>
				
					<line fill="none" stroke="#00ABEB" stroke-width="0.15" stroke-miterlimit="10" x1="37.088" y1="116.343" x2="156.408" y2="-2.977"/>
				
					<line fill="none" stroke="#00ABEB" stroke-width="0.15" stroke-miterlimit="10" x1="39.922" y1="116.343" x2="159.242" y2="-2.977"/>
				
					<line fill="none" stroke="#00ABEB" stroke-width="0.15" stroke-miterlimit="10" x1="42.757" y1="116.343" x2="162.077" y2="-2.977"/>
				
					<line fill="none" stroke="#00ABEB" stroke-width="0.15" stroke-miterlimit="10" x1="45.592" y1="116.343" x2="164.912" y2="-2.977"/>
				
					<line fill="none" stroke="#00ABEB" stroke-width="0.15" stroke-miterlimit="10" x1="48.426" y1="116.343" x2="167.746" y2="-2.977"/>
				
					<line fill="none" stroke="#00ABEB" stroke-width="0.15" stroke-miterlimit="10" x1="51.261" y1="116.343" x2="170.581" y2="-2.977"/>
				
					<line fill="none" stroke="#00ABEB" stroke-width="0.15" stroke-miterlimit="10" x1="54.096" y1="116.343" x2="173.416" y2="-2.977"/>
				
					<line fill="none" stroke="#00ABEB" stroke-width="0.15" stroke-miterlimit="10" x1="56.93" y1="116.343" x2="176.25" y2="-2.977"/>
				
					<line fill="none" stroke="#00ABEB" stroke-width="0.15" stroke-miterlimit="10" x1="59.765" y1="116.343" x2="179.085" y2="-2.977"/>
				
					<line fill="none" stroke="#00ABEB" stroke-width="0.15" stroke-miterlimit="10" x1="62.6" y1="116.343" x2="181.92" y2="-2.977"/>
				
					<line fill="none" stroke="#00ABEB" stroke-width="0.15" stroke-miterlimit="10" x1="65.434" y1="116.343" x2="184.754" y2="-2.977"/>
				
					<line fill="none" stroke="#00ABEB" stroke-width="0.15" stroke-miterlimit="10" x1="68.269" y1="116.343" x2="187.589" y2="-2.977"/>
				
					<line fill="none" stroke="#00ABEB" stroke-width="0.15" stroke-miterlimit="10" x1="71.104" y1="116.343" x2="190.424" y2="-2.977"/>
				
					<line fill="none" stroke="#00ABEB" stroke-width="0.15" stroke-miterlimit="10" x1="73.938" y1="116.343" x2="193.258" y2="-2.977"/>
				
					<line fill="none" stroke="#00ABEB" stroke-width="0.15" stroke-miterlimit="10" x1="76.773" y1="116.343" x2="196.093" y2="-2.977"/>
				
					<line fill="none" stroke="#00ABEB" stroke-width="0.15" stroke-miterlimit="10" x1="79.608" y1="116.343" x2="198.928" y2="-2.977"/>
				
					<line fill="none" stroke="#00ABEB" stroke-width="0.15" stroke-miterlimit="10" x1="82.442" y1="116.343" x2="201.762" y2="-2.977"/>
				
					<line fill="none" stroke="#00ABEB" stroke-width="0.15" stroke-miterlimit="10" x1="85.277" y1="116.343" x2="204.597" y2="-2.977"/>
				
					<line fill="none" stroke="#00ABEB" stroke-width="0.15" stroke-miterlimit="10" x1="88.111" y1="116.343" x2="207.431" y2="-2.977"/>
				
					<line fill="none" stroke="#00ABEB" stroke-width="0.15" stroke-miterlimit="10" x1="90.946" y1="116.343" x2="210.266" y2="-2.977"/>
				
					<line fill="none" stroke="#00ABEB" stroke-width="0.15" stroke-miterlimit="10" x1="93.781" y1="116.343" x2="213.101" y2="-2.977"/>
				
					<line fill="none" stroke="#00ABEB" stroke-width="0.15" stroke-miterlimit="10" x1="96.615" y1="116.343" x2="215.935" y2="-2.977"/>
				
					<line fill="none" stroke="#00ABEB" stroke-width="0.15" stroke-miterlimit="10" x1="99.45" y1="116.343" x2="218.77" y2="-2.977"/>
				
					<line fill="none" stroke="#00ABEB" stroke-width="0.15" stroke-miterlimit="10" x1="102.285" y1="116.343" x2="221.605" y2="-2.977"/>
				
					<line fill="none" stroke="#00ABEB" stroke-width="0.15" stroke-miterlimit="10" x1="105.119" y1="116.343" x2="224.439" y2="-2.977"/>
			</g>
			<g id="Horizontal_5_mm_00000011735556503592991880000008134099091165005186_">
				
					<line fill="none" stroke="#00ABEB" stroke-width="0.3" stroke-miterlimit="10" x1="-122.012" y1="116.352" x2="105.104" y2="116.352"/>
				
					<line fill="none" stroke="#00ABEB" stroke-width="0.3" stroke-miterlimit="10" x1="-112.072" y1="106.413" x2="115.044" y2="106.413"/>
				
					<line fill="none" stroke="#00ABEB" stroke-width="0.3" stroke-miterlimit="10" x1="-102.132" y1="96.473" x2="124.983" y2="96.473"/>
				
					<line fill="none" stroke="#00ABEB" stroke-width="0.3" stroke-miterlimit="10" x1="-92.192" y1="86.533" x2="134.924" y2="86.533"/>
				
					<line fill="none" stroke="#00ABEB" stroke-width="0.3" stroke-miterlimit="10" x1="-82.253" y1="76.594" x2="144.863" y2="76.594"/>
				
					<line fill="none" stroke="#00ABEB" stroke-width="0.3" stroke-miterlimit="10" x1="-72.313" y1="66.654" x2="154.803" y2="66.654"/>
				
					<line fill="none" stroke="#00ABEB" stroke-width="0.3" stroke-miterlimit="10" x1="-62.373" y1="56.715" x2="164.742" y2="56.715"/>
				
					<line fill="none" stroke="#00ABEB" stroke-width="0.3" stroke-miterlimit="10" x1="-52.433" y1="46.775" x2="174.682" y2="46.775"/>
				
					<line fill="none" stroke="#00ABEB" stroke-width="0.3" stroke-miterlimit="10" x1="-42.493" y1="36.835" x2="184.622" y2="36.835"/>
				
					<line fill="none" stroke="#00ABEB" stroke-width="0.3" stroke-miterlimit="10" x1="-32.554" y1="26.895" x2="194.562" y2="26.895"/>
				
					<line fill="none" stroke="#00ABEB" stroke-width="0.3" stroke-miterlimit="10" x1="-22.615" y1="16.956" x2="204.501" y2="16.956"/>
			</g>
			<g id="Vertical_5_mm_00000064346364918789686960000003233481195482251947_">
				
					<line fill="none" stroke="#00ABEB" stroke-width="0.3" stroke-miterlimit="10" x1="-121.652" y1="116.343" x2="-2.139" y2="-3.169"/>
				
					<line fill="none" stroke="#00ABEB" stroke-width="0.3" stroke-miterlimit="10" x1="-107.479" y1="116.343" x2="12.034" y2="-3.169"/>
				
					<line fill="none" stroke="#00ABEB" stroke-width="0.3" stroke-miterlimit="10" x1="-93.306" y1="116.343" x2="26.207" y2="-3.169"/>
				
					<line fill="none" stroke="#00ABEB" stroke-width="0.3" stroke-miterlimit="10" x1="-79.133" y1="116.343" x2="40.38" y2="-3.169"/>
				
					<line fill="none" stroke="#00ABEB" stroke-width="0.3" stroke-miterlimit="10" x1="-64.959" y1="116.343" x2="54.554" y2="-3.169"/>
				
					<line fill="none" stroke="#00ABEB" stroke-width="0.3" stroke-miterlimit="10" x1="-50.786" y1="116.343" x2="68.727" y2="-3.169"/>
				
					<line fill="none" stroke="#00ABEB" stroke-width="0.3" stroke-miterlimit="10" x1="-36.613" y1="116.343" x2="82.9" y2="-3.169"/>
				
					<line fill="none" stroke="#00ABEB" stroke-width="0.3" stroke-miterlimit="10" x1="-22.44" y1="116.343" x2="97.073" y2="-3.169"/>
				
					<line fill="none" stroke="#00ABEB" stroke-width="0.3" stroke-miterlimit="10" x1="-8.267" y1="116.343" x2="111.246" y2="-3.169"/>
				
					<line fill="none" stroke="#00ABEB" stroke-width="0.3" stroke-miterlimit="10" x1="5.907" y1="116.343" x2="125.42" y2="-3.169"/>
				
					<line fill="none" stroke="#00ABEB" stroke-width="0.3" stroke-miterlimit="10" x1="20.08" y1="116.343" x2="139.593" y2="-3.169"/>
				
					<line fill="none" stroke="#00ABEB" stroke-width="0.3" stroke-miterlimit="10" x1="34.253" y1="116.343" x2="153.766" y2="-3.169"/>
				
					<line fill="none" stroke="#00ABEB" stroke-width="0.3" stroke-miterlimit="10" x1="48.426" y1="116.343" x2="167.939" y2="-3.169"/>
				
					<line fill="none" stroke="#00ABEB" stroke-width="0.3" stroke-miterlimit="10" x1="62.6" y1="116.343" x2="182.113" y2="-3.169"/>
				
					<line fill="none" stroke="#00ABEB" stroke-width="0.3" stroke-miterlimit="10" x1="76.773" y1="116.343" x2="196.286" y2="-3.169"/>
				
					<line fill="none" stroke="#00ABEB" stroke-width="0.3" stroke-miterlimit="10" x1="90.946" y1="116.343" x2="210.459" y2="-3.169"/>
				
					<line fill="none" stroke="#00ABEB" stroke-width="0.3" stroke-miterlimit="10" x1="105.119" y1="116.343" x2="224.632" y2="-3.169"/>
			</g>
			<g id="Horizontal_10_mm_00000163045836177147705350000008480455355013810362_">
				
					<line id="_x31_9_00000057116790517712807720000015084113881736219806_" fill="none" stroke="#00ABEB" stroke-width="0.7" stroke-miterlimit="10" x1="-122.012" y1="116.352" x2="105.104" y2="116.352"/>
				
					<line id="_x32_0_00000024685878617286333290000013167547815532084100_" fill="none" stroke="#00ABEB" stroke-width="0.7" stroke-miterlimit="10" x1="-102.132" y1="96.473" x2="124.983" y2="96.473"/>
				
					<line id="_x32_1_00000138564813020868535020000012777939180148238773_" fill="none" stroke="#00ABEB" stroke-width="0.7" stroke-miterlimit="10" x1="-82.253" y1="76.594" x2="144.863" y2="76.594"/>
				
					<line id="_x32_2_00000052807586205252870140000014502512662559454639_" fill="none" stroke="#00ABEB" stroke-width="0.7" stroke-miterlimit="10" x1="-62.373" y1="56.715" x2="164.742" y2="56.715"/>
				
					<line id="_x32_3_00000051376893246677475670000009295515732899575694_" fill="none" stroke="#00ABEB" stroke-width="0.7" stroke-miterlimit="10" x1="-42.493" y1="36.835" x2="184.622" y2="36.835"/>
				
					<line id="_x32_4_00000099657911357833521510000007853591198542098087_" fill="none" stroke="#00ABEB" stroke-width="0.7" stroke-miterlimit="10" x1="-22.615" y1="16.956" x2="204.501" y2="16.956"/>
				
					<line id="_x32_5_00000155127691660191171140000008292164438978366870_" fill="none" stroke="#00ABEB" stroke-width="0.7" stroke-miterlimit="10" x1="-2.735" y1="-2.924" x2="224.381" y2="-2.924"/>
			</g>
			<g id="Vertical_10_mm_00000134969164297783457920000010833503864539426239_">
				
					<line id="_x30__00000151539528360119995570000005083818057555393183_" fill="none" stroke="#00ABEB" stroke-width="0.7" stroke-miterlimit="10" x1="-121.652" y1="116.343" x2="-2.139" y2="-3.169"/>
				
					<line id="_x31__00000021823889366233599640000011971139016478256513_" fill="none" stroke="#00ABEB" stroke-width="0.7" stroke-miterlimit="10" x1="-93.306" y1="116.343" x2="26.207" y2="-3.169"/>
				
					<line id="_x32__00000071550223824624162640000006130814236846722696_" fill="none" stroke="#00ABEB" stroke-width="0.7" stroke-miterlimit="10" x1="-64.959" y1="116.343" x2="54.554" y2="-3.169"/>
				
					<line id="_x33__00000042015976804734918030000005045165563697445304_" fill="none" stroke="#00ABEB" stroke-width="0.7" stroke-miterlimit="10" x1="-36.613" y1="116.343" x2="82.9" y2="-3.169"/>
				
					<line id="_x34__00000081637789328126233800000002486991317463304126_" fill="none" stroke="#00ABEB" stroke-width="0.7" stroke-miterlimit="10" x1="-8.267" y1="116.343" x2="111.246" y2="-3.169"/>
				
					<line id="_x35__00000051353690731882489090000004794744233340785543_" fill="none" stroke="#00ABEB" stroke-width="0.7" stroke-miterlimit="10" x1="20.08" y1="116.343" x2="139.593" y2="-3.169"/>
				
					<line id="_x36__00000011745311307505536660000010485558803267122343_" fill="none" stroke="#00ABEB" stroke-width="0.7" stroke-miterlimit="10" x1="48.426" y1="116.343" x2="167.939" y2="-3.169"/>
				
					<line id="_x37__00000045602144989735358580000003937589459941247142_" fill="none" stroke="#00ABEB" stroke-width="0.7" stroke-miterlimit="10" x1="76.773" y1="116.343" x2="196.286" y2="-3.169"/>
				
					<line id="_x38__00000047029857857898873560000014194396358708286345_" fill="none" stroke="#00ABEB" stroke-width="0.7" stroke-miterlimit="10" x1="105.119" y1="116.343" x2="224.632" y2="-3.169"/>
			</g>
		</g>
	</g>
</g>
<g id="base_00000000906162646766924830000016627802069044216996_">
	<g>
		<g>
			
				<line fill="none" stroke="#0000FF" stroke-width="0.3" stroke-linejoin="round" x1="31.651" y1="11.662" x2="31.651" y2="2.605"/>
			<g>
				<polygon fill="#0000FF" points="32.878,3.599 32.658,3.804 31.652,2.72 30.644,3.804 30.425,3.599 31.652,2.28 				"/>
			</g>
		</g>
	</g>
	<g>
		<g>
			<polygon points="33.644,15.205 33.429,14.984 34.521,13.927 33.387,12.916 33.592,12.686 34.973,13.918 			"/>
		</g>
	</g>
	<g id="loop_00000180362507552928770390000014094919536805488529_">
		
			<path fill="none" stroke="#000000" stroke-width="0.3081" stroke-linecap="round" stroke-miterlimit="10" stroke-dasharray="3.2534" d="
			M43.014,11.663c0-1.117-5.328-2.3-10.873-2.303c-5.768-0.003-12.04,1.151-12.04,2.302"/>
		<path fill="none" stroke="#000000" stroke-width="0.3081" stroke-linecap="round" stroke-miterlimit="10" d="M20.101,11.662
			c0,1.191,6.094,2.363,12.006,2.363c5.544,0,10.907-1.246,10.907-2.362"/>
	</g>
	<g>
		<path fill="#0000FF" d="M36.509,5.018c-0.391,0.576-0.58,0.713-0.863,0.713c-0.177,0-0.309-0.102-0.309-0.27
			c0-0.102,0.044-0.312,0.095-0.456l0.208-0.624h-0.006c-0.555,0.936-0.901,1.337-1.279,1.337c-0.12,0-0.195-0.06-0.227-0.168
			c-0.246,0.899-0.284,1.187-0.422,1.343h-0.447c0.088-0.12,0.176-0.294,0.277-0.672L34.36,3.1h0.473L34.36,4.886
			c-0.013,0.054-0.025,0.108-0.025,0.162c0,0.162,0.076,0.288,0.252,0.288c0.372,0,1.059-1.122,1.166-1.505L35.961,3.1h0.485
			l-0.498,1.799c-0.025,0.096-0.12,0.402-0.12,0.462c0,0.048,0.025,0.09,0.069,0.09c0.101,0,0.195-0.078,0.523-0.486L36.509,5.018z"
			/>
	</g>
	<g id="shaded" opacity="0.05">
		<path fill="#00A300" d="M43.014,11.663c0-1.117-5.328-2.3-10.873-2.303c-5.768-0.003-12.04,1.151-12.04,2.302"/>
		<path fill="#00A300" d="M20.101,11.662c0,1.191,6.094,2.363,12.006,2.363c5.544,0,10.907-1.246,10.907-2.362"/>
	</g>
	<g id="loop_00000037658095413942263400000003088347091667881104_">
		
			<path fill="none" stroke="#000000" stroke-width="0.3081" stroke-linecap="round" stroke-miterlimit="10" stroke-dasharray="3.2534" d="
			M43.014,11.663c0-1.117-5.328-2.3-10.873-2.303c-5.768-0.003-12.04,1.151-12.04,2.302"/>
		<path fill="none" stroke="#000000" stroke-width="0.3081" stroke-linecap="round" stroke-miterlimit="10" d="M20.101,11.662
			c0,1.191,6.094,2.363,12.006,2.363c5.544,0,10.907-1.246,10.907-2.362"/>
	</g>
	<g>
		<g>
			<polygon points="33.644,24.856 33.429,24.635 34.521,23.578 33.387,22.567 33.592,22.337 34.973,23.569 			"/>
		</g>
	</g>
	<g id="loop_00000021839803308068560330000010817891156941607080_">
		
			<path fill="none" stroke="#000000" stroke-width="0.3081" stroke-linecap="round" stroke-miterlimit="10" stroke-dasharray="3.2534" d="
			M43.014,21.314c0-1.117-5.328-2.3-10.873-2.303c-5.768-0.003-12.04,1.151-12.04,2.302"/>
		<path fill="none" stroke="#000000" stroke-width="0.3081" stroke-linecap="round" stroke-miterlimit="10" d="M20.101,21.313
			c0,1.191,6.094,2.363,12.006,2.363c5.544,0,10.907-1.246,10.907-2.362"/>
	</g>
	<g id="shaded_00000073679735128739290850000012091599175544015799_" opacity="0.05">
		<path fill="#00A300" d="M43.014,21.314c0-1.117-5.328-2.3-10.873-2.303c-5.768-0.003-12.04,1.151-12.04,2.302"/>
		<path fill="#00A300" d="M20.101,21.313c0,1.191,6.094,2.363,12.006,2.363c5.544,0,10.907-1.246,10.907-2.362"/>
	</g>
	<g id="loop_00000116197397531001357140000006097897634635990716_">
		
			<path fill="none" stroke="#000000" stroke-width="0.3081" stroke-linecap="round" stroke-miterlimit="10" stroke-dasharray="3.2534" d="
			M43.014,21.314c0-1.117-5.328-2.3-10.873-2.303c-5.768-0.003-12.04,1.151-12.04,2.302"/>
		<path fill="none" stroke="#000000" stroke-width="0.3081" stroke-linecap="round" stroke-miterlimit="10" d="M20.101,21.313
			c0,1.191,6.094,2.363,12.006,2.363c5.544,0,10.907-1.246,10.907-2.362"/>
	</g>
	<g>
		<g>
			<polygon points="33.644,34.507 33.429,34.285 34.521,33.229 33.387,32.217 33.592,31.987 34.973,33.22 			"/>
		</g>
	</g>
	<g id="loop_00000132078484827224477350000014108789471846266545_">
		
			<path fill="none" stroke="#000000" stroke-width="0.3081" stroke-linecap="round" stroke-miterlimit="10" stroke-dasharray="3.2534" d="
			M43.014,30.964c0-1.117-5.328-2.3-10.873-2.303c-5.768-0.003-12.04,1.151-12.04,2.302"/>
		<path fill="none" stroke="#000000" stroke-width="0.3081" stroke-linecap="round" stroke-miterlimit="10" d="M20.101,30.963
			c0,1.191,6.094,2.363,12.006,2.363c5.544,0,10.907-1.246,10.907-2.362"/>
	</g>
	<g id="shaded_00000034082191773838239410000017870715857697222035_" opacity="0.05">
		<path fill="#00A300" d="M43.014,30.964c0-1.117-5.328-2.3-10.873-2.303c-5.768-0.003-12.04,1.151-12.04,2.302"/>
		<path fill="#00A300" d="M20.101,30.963c0,1.191,6.094,2.363,12.006,2.363c5.544,0,10.907-1.246,10.907-2.362"/>
	</g>
	<g id="loop_00000102507059275401266520000001917963334253270923_">
		
			<path fill="none" stroke="#000000" stroke-width="0.3081" stroke-linecap="round" stroke-miterlimit="10" stroke-dasharray="3.2534" d="
			M43.014,30.964c0-1.117-5.328-2.3-10.873-2.303c-5.768-0.003-12.04,1.151-12.04,2.302"/>
		<path fill="none" stroke="#000000" stroke-width="0.3081" stroke-linecap="round" stroke-miterlimit="10" d="M20.101,30.963
			c0,1.191,6.094,2.363,12.006,2.363c5.544,0,10.907-1.246,10.907-2.362"/>
	</g>
	<g>
		<g>
			<polygon points="33.644,44.157 33.429,43.936 34.521,42.879 33.387,41.868 33.592,41.638 34.973,42.87 			"/>
		</g>
	</g>
	<g id="loop_00000180343934007468012660000012874632683583509677_">
		
			<path fill="none" stroke="#000000" stroke-width="0.3081" stroke-linecap="round" stroke-miterlimit="10" stroke-dasharray="3.2534" d="
			M43.014,40.615c0-1.117-5.328-2.3-10.873-2.303c-5.768-0.003-12.04,1.151-12.04,2.302"/>
		<path fill="none" stroke="#000000" stroke-width="0.3081" stroke-linecap="round" stroke-miterlimit="10" d="M20.101,40.614
			c0,1.191,6.094,2.363,12.006,2.363c5.544,0,10.907-1.246,10.907-2.362"/>
	</g>
	<g id="shaded_00000057108631645049730590000009057905746512613007_" opacity="0.05">
		<path fill="#00A300" d="M43.014,40.615c0-1.117-5.328-2.3-10.873-2.303c-5.768-0.003-12.04,1.151-12.04,2.302"/>
		<path fill="#00A300" d="M20.101,40.614c0,1.191,6.094,2.363,12.006,2.363c5.544,0,10.907-1.246,10.907-2.362"/>
	</g>
	<g id="loop_00000079487447648542273080000008123728148552370105_">
		
			<path fill="none" stroke="#000000" stroke-width="0.3081" stroke-linecap="round" stroke-miterlimit="10" stroke-dasharray="3.2534" d="
			M43.014,40.615c0-1.117-5.328-2.3-10.873-2.303c-5.768-0.003-12.04,1.151-12.04,2.302"/>
		<path fill="none" stroke="#000000" stroke-width="0.3081" stroke-linecap="round" stroke-miterlimit="10" d="M20.101,40.614
			c0,1.191,6.094,2.363,12.006,2.363c5.544,0,10.907-1.246,10.907-2.362"/>
	</g>
	<g>
		<path fill="#00A300" d="M25.958,12.365v-0.096c0.397-0.018,0.485-0.114,0.485-0.317c0-0.048-0.006-0.102-0.013-0.156l-0.126-0.786
			h-1.386l-0.372,0.666c-0.088,0.156-0.139,0.3-0.139,0.396c0,0.114,0.095,0.186,0.391,0.198v0.096h-1.172v-0.096
			c0.29-0.054,0.372-0.156,0.844-0.935l1.796-2.975h0.164l0.58,3.316c0.088,0.503,0.158,0.569,0.492,0.593v0.096H25.958z
			 M25.99,9.217l-0.939,1.577h1.222L25.99,9.217z"/>
	</g>
	<g>
		<g>
			<polygon points="59.668,15.205 59.454,14.984 60.545,13.927 59.411,12.916 59.617,12.686 60.997,13.918 			"/>
		</g>
	</g>
	<g id="loop_00000024720591088578972590000017200809113604218752_">
		
			<path fill="none" stroke="#000000" stroke-width="0.3081" stroke-linecap="round" stroke-miterlimit="10" stroke-dasharray="3.2534" d="
			M69.038,11.663c0-1.117-5.328-2.3-10.873-2.303c-5.768-0.003-12.04,1.151-12.04,2.302"/>
		<path fill="none" stroke="#000000" stroke-width="0.3081" stroke-linecap="round" stroke-miterlimit="10" d="M46.126,11.662
			c0,1.191,6.094,2.363,12.006,2.363c5.544,0,10.907-1.246,10.907-2.362"/>
	</g>
	<g id="shaded_00000146499295977159645800000015850003475781623704_" opacity="0.05">
		<path fill="#00A300" d="M69.038,11.663c0-1.117-5.328-2.3-10.873-2.303c-5.768-0.003-12.04,1.151-12.04,2.302"/>
		<path fill="#00A300" d="M46.126,11.662c0,1.191,6.094,2.363,12.006,2.363c5.544,0,10.907-1.246,10.907-2.362"/>
	</g>
	<g id="loop_00000144314296741466541060000015998132671506034090_">
		
			<path fill="none" stroke="#000000" stroke-width="0.3081" stroke-linecap="round" stroke-miterlimit="10" stroke-dasharray="3.2534" d="
			M69.038,11.663c0-1.117-5.328-2.3-10.873-2.303c-5.768-0.003-12.04,1.151-12.04,2.302"/>
		<path fill="none" stroke="#000000" stroke-width="0.3081" stroke-linecap="round" stroke-miterlimit="10" d="M46.126,11.662
			c0,1.191,6.094,2.363,12.006,2.363c5.544,0,10.907-1.246,10.907-2.362"/>
	</g>
	<g>
		<g>
			<polygon points="59.668,24.856 59.454,24.635 60.545,23.578 59.411,22.567 59.617,22.337 60.997,23.569 			"/>
		</g>
	</g>
	<g id="loop_00000106126381430128523190000001072751439827278729_">
		
			<path fill="none" stroke="#000000" stroke-width="0.3081" stroke-linecap="round" stroke-miterlimit="10" stroke-dasharray="3.2534" d="
			M69.038,21.314c0-1.117-5.328-2.3-10.873-2.303c-5.768-0.003-12.04,1.151-12.04,2.302"/>
		<path fill="none" stroke="#000000" stroke-width="0.3081" stroke-linecap="round" stroke-miterlimit="10" d="M46.126,21.313
			c0,1.191,6.094,2.363,12.006,2.363c5.544,0,10.907-1.246,10.907-2.362"/>
	</g>
	<g id="shaded_00000096740976400790992120000006168480421381027768_" opacity="0.05">
		<path fill="#00A300" d="M69.038,21.314c0-1.117-5.328-2.3-10.873-2.303c-5.768-0.003-12.04,1.151-12.04,2.302"/>
		<path fill="#00A300" d="M46.126,21.313c0,1.191,6.094,2.363,12.006,2.363c5.544,0,10.907-1.246,10.907-2.362"/>
	</g>
	<g id="loop_00000129896184739285512100000001354669371266419609_">
		
			<path fill="none" stroke="#000000" stroke-width="0.3081" stroke-linecap="round" stroke-miterlimit="10" stroke-dasharray="3.2534" d="
			M69.038,21.314c0-1.117-5.328-2.3-10.873-2.303c-5.768-0.003-12.04,1.151-12.04,2.302"/>
		<path fill="none" stroke="#000000" stroke-width="0.3081" stroke-linecap="round" stroke-miterlimit="10" d="M46.126,21.313
			c0,1.191,6.094,2.363,12.006,2.363c5.544,0,10.907-1.246,10.907-2.362"/>
	</g>
	<g>
		<g>
			<polygon points="59.668,34.507 59.454,34.285 60.545,33.229 59.411,32.217 59.617,31.987 60.997,33.22 			"/>
		</g>
	</g>
	<g id="loop_00000183246680937148466460000011390824976333694604_">
		
			<path fill="none" stroke="#000000" stroke-width="0.3081" stroke-linecap="round" stroke-miterlimit="10" stroke-dasharray="3.2534" d="
			M69.038,30.964c0-1.117-5.328-2.3-10.873-2.303c-5.768-0.003-12.04,1.151-12.04,2.302"/>
		<path fill="none" stroke="#000000" stroke-width="0.3081" stroke-linecap="round" stroke-miterlimit="10" d="M46.126,30.963
			c0,1.191,6.094,2.363,12.006,2.363c5.544,0,10.907-1.246,10.907-2.362"/>
	</g>
	<g id="shaded_00000014606129548350550150000008346714523248934837_" opacity="0.05">
		<path fill="#00A300" d="M69.038,30.964c0-1.117-5.328-2.3-10.873-2.303c-5.768-0.003-12.04,1.151-12.04,2.302"/>
		<path fill="#00A300" d="M46.126,30.963c0,1.191,6.094,2.363,12.006,2.363c5.544,0,10.907-1.246,10.907-2.362"/>
	</g>
	<g id="loop_00000023982344202217412490000008019893528775390888_">
		
			<path fill="none" stroke="#000000" stroke-width="0.3081" stroke-linecap="round" stroke-miterlimit="10" stroke-dasharray="3.2534" d="
			M69.038,30.964c0-1.117-5.328-2.3-10.873-2.303c-5.768-0.003-12.04,1.151-12.04,2.302"/>
		<path fill="none" stroke="#000000" stroke-width="0.3081" stroke-linecap="round" stroke-miterlimit="10" d="M46.126,30.963
			c0,1.191,6.094,2.363,12.006,2.363c5.544,0,10.907-1.246,10.907-2.362"/>
	</g>
	<g>
		<g>
			<polygon points="59.668,44.157 59.454,43.936 60.545,42.879 59.411,41.868 59.617,41.638 60.997,42.87 			"/>
		</g>
	</g>
	<g id="loop_00000060711415555794362790000013921919152095545756_">
		
			<path fill="none" stroke="#000000" stroke-width="0.3081" stroke-linecap="round" stroke-miterlimit="10" stroke-dasharray="3.2534" d="
			M69.038,40.615c0-1.117-5.328-2.3-10.873-2.303c-5.768-0.003-12.04,1.151-12.04,2.302"/>
		<path fill="none" stroke="#000000" stroke-width="0.3081" stroke-linecap="round" stroke-miterlimit="10" d="M46.126,40.614
			c0,1.191,6.094,2.363,12.006,2.363c5.544,0,10.907-1.246,10.907-2.362"/>
	</g>
	<g id="shaded_00000010269742122137874200000004547956259894267530_" opacity="0.05">
		<path fill="#00A300" d="M69.038,40.615c0-1.117-5.328-2.3-10.873-2.303c-5.768-0.003-12.04,1.151-12.04,2.302"/>
		<path fill="#00A300" d="M46.126,40.614c0,1.191,6.094,2.363,12.006,2.363c5.544,0,10.907-1.246,10.907-2.362"/>
	</g>
	<g id="loop_00000146475205794265309400000004375021461529094329_">
		
			<path fill="none" stroke="#000000" stroke-width="0.3081" stroke-linecap="round" stroke-miterlimit="10" stroke-dasharray="3.2534" d="
			M69.038,40.615c0-1.117-5.328-2.3-10.873-2.303c-5.768-0.003-12.04,1.151-12.04,2.302"/>
		<path fill="none" stroke="#000000" stroke-width="0.3081" stroke-linecap="round" stroke-miterlimit="10" d="M46.126,40.614
			c0,1.191,6.094,2.363,12.006,2.363c5.544,0,10.907-1.246,10.907-2.362"/>
	</g>
</g>
<g id="two">
	<g>
		<g>
			
				<line fill="none" stroke="#00A300" stroke-width="0.2" stroke-linejoin="round" x1="15.239" y1="11.762" x2="15.239" y2="40.515"/>
			<g>
				<rect x="14.589" y="11.662" fill="#00A300" width="1.3" height="0.2"/>
			</g>
			<g>
				<rect x="14.589" y="40.415" fill="#00A300" width="1.3" height="0.2"/>
			</g>
		</g>
	</g>
	<g id="volume" opacity="0.05">
		<path fill="#0000FF" d="M43.014,11.663c0-1.117-5.328-2.3-10.873-2.303c-5.768-0.003-12.04,1.151-12.04,2.302"/>
		<rect x="20.101" y="11.662" fill="#0000FF" width="22.913" height="28.953"/>
		<path fill="#0000FF" d="M20.101,40.614c0,1.191,6.094,2.363,12.006,2.363c5.544,0,10.907-1.246,10.907-2.362"/>
	</g>
	<g>
		<path fill="#00A300" d="M1.719,25.354c-0.031,0.108-0.05,0.21-0.05,0.258c0,0.072,0.044,0.108,0.107,0.108
			c0.095,0,0.24-0.096,0.422-0.342l0.158-0.21l0.088,0.06c-0.378,0.57-0.611,0.75-0.951,0.75c-0.202,0-0.309-0.114-0.309-0.336
			c0-0.048,0.006-0.12,0.025-0.18l0.863-3.142c0.019-0.06,0.019-0.096,0.019-0.114c0-0.072-0.107-0.132-0.309-0.132H1.669v-0.096
			c0.372-0.042,0.605-0.083,0.977-0.162l0.038,0.03L1.719,25.354z"/>
		<path fill="#00A300" d="M3.218,23.993v-0.396h3.176v0.396H3.218z M3.218,25.192v-0.396h3.176v0.396H3.218z"/>
		<path fill="#00A300" d="M7.669,25.912v-0.09c0.466-0.024,0.599-0.15,0.599-0.48v-2.692c0-0.204-0.057-0.294-0.189-0.294
			c-0.063,0-0.17,0.03-0.284,0.072l-0.17,0.06v-0.084l1.128-0.545l0.057,0.018v3.58c0,0.258,0.126,0.366,0.599,0.366v0.09H7.669z"/>
		<path fill="#00A300" d="M13.584,25.912v-0.09c0.353-0.036,0.41-0.102,0.41-0.45v-1.235c0-0.474-0.126-0.672-0.485-0.672
			c-0.296,0-0.485,0.108-0.674,0.366v1.511c0,0.39,0.095,0.474,0.454,0.48v0.09h-1.412v-0.09c0.359-0.024,0.429-0.06,0.429-0.426
			V24.13c0-0.414-0.139-0.666-0.41-0.666c-0.233,0-0.542,0.114-0.668,0.258c-0.044,0.048-0.082,0.09-0.082,0.102v1.667
			c0,0.258,0.095,0.318,0.429,0.33v0.09h-1.399v-0.09c0.353-0.006,0.441-0.09,0.441-0.438v-1.487c0-0.293-0.057-0.396-0.221-0.396
			c-0.069,0-0.12,0.006-0.202,0.024v-0.102c0.347-0.09,0.555-0.156,0.876-0.27l0.05,0.018v0.444h0.013
			c0.416-0.408,0.681-0.461,0.964-0.461c0.34,0,0.555,0.162,0.668,0.503c0.34-0.348,0.662-0.503,1.027-0.503
			c0.51,0,0.731,0.372,0.731,1.079v1.217c0,0.27,0.082,0.348,0.271,0.36l0.164,0.012v0.09H13.584z"/>
	</g>
	<g>
		<path fill="#0000FF" d="M37.553,25.321c-0.189,0.018-0.239,0.066-0.41,0.468l-0.807,1.925c-0.094,0.222-0.139,0.3-0.176,0.3
			s-0.069-0.048-0.113-0.156c-0.019-0.03-0.025-0.072-0.051-0.126L35.24,26.01c-0.271-0.618-0.334-0.678-0.574-0.689v-0.09h1.235
			v0.09c-0.214,0.018-0.29,0.06-0.29,0.162c0,0.06,0.019,0.138,0.057,0.228l0.643,1.535l0.624-1.553
			c0.025-0.06,0.038-0.12,0.038-0.18c0-0.114-0.095-0.174-0.296-0.192v-0.09h0.876V25.321z"/>
		<path fill="#0000FF" d="M39.069,27.989c-0.763,0-1.361-0.594-1.361-1.427s0.567-1.391,1.418-1.391
			c0.769,0,1.361,0.545,1.361,1.373C40.487,27.377,39.92,27.989,39.069,27.989z M39.605,25.639c-0.151-0.18-0.328-0.3-0.599-0.3
			c-0.435,0-0.731,0.354-0.731,0.953c0,0.474,0.101,0.906,0.334,1.229c0.139,0.192,0.34,0.3,0.567,0.3
			c0.466,0,0.744-0.42,0.744-1.115C39.92,26.298,39.807,25.884,39.605,25.639z"/>
		<path fill="#0000FF" d="M40.806,27.929v-0.09c0.397-0.03,0.485-0.132,0.485-0.462v-2.812c0-0.288-0.063-0.384-0.265-0.384
			c-0.051,0-0.132,0-0.233,0.012v-0.096c0.435-0.102,0.668-0.162,0.996-0.264l0.032,0.024v3.55c0,0.33,0.069,0.408,0.473,0.432v0.09
			H40.806z"/>
	</g>
	<g>
	</g>
	<g>
	</g>
</g>
</svg>
