<?xml version="1.0" encoding="utf-8"?>
<!-- Generator: Adobe Illustrator 15.0.0, SVG Export Plug-In . SVG Version: 6.00 Build 0)  -->
<!DOCTYPE svg PUBLIC "-//W3C//DTD SVG 1.1//EN" "http://www.w3.org/Graphics/SVG/1.1/DTD/svg11.dtd">
<svg version="1.1" id="Layer_1" xmlns="http://www.w3.org/2000/svg" xmlns:xlink="http://www.w3.org/1999/xlink" x="0px" y="0px"
	 width="442.206px" height="181.417px" viewBox="0 0 442.206 181.417" enable-background="new 0 0 442.206 181.417"
	 xml:space="preserve">
<rect x="62.362" y="79.37" fill="#EAEAFF" stroke="#231F20" stroke-width="2" stroke-miterlimit="10" width="56.693" height="56.693"/>
<g>
	<path fill="#231F20" d="M83.798,106.734v3.647h2.139c0.361,0,0.619,0.069,0.772,0.209c0.154,0.139,0.231,0.321,0.231,0.545
		c0,0.22-0.077,0.399-0.231,0.539c-0.153,0.139-0.411,0.208-0.772,0.208h-4.534c-0.361,0-0.619-0.07-0.773-0.208
		c-0.153-0.14-0.23-0.321-0.23-0.546c0-0.22,0.077-0.399,0.23-0.538c0.154-0.14,0.412-0.209,0.773-0.209h0.894v-3.647h-0.718
		c-0.361,0-0.619-0.069-0.773-0.209c-0.153-0.139-0.23-0.321-0.23-0.545c0-0.22,0.077-0.399,0.23-0.539
		c0.154-0.139,0.412-0.208,0.773-0.208h0.718v-0.571c0-0.654,0.246-1.198,0.736-1.629c0.491-0.433,1.203-0.648,2.135-0.648
		c0.415,0,0.895,0.038,1.439,0.113c0.544,0.076,0.894,0.182,1.048,0.319c0.153,0.137,0.23,0.313,0.23,0.527
		c0,0.229-0.068,0.417-0.205,0.56c-0.137,0.145-0.305,0.216-0.505,0.216c-0.093,0-0.232-0.017-0.417-0.051
		c-0.62-0.122-1.169-0.183-1.648-0.183c-0.498,0-0.841,0.075-1.029,0.223c-0.188,0.149-0.282,0.333-0.282,0.553v0.571h2.314
		c0.361,0,0.619,0.07,0.772,0.208c0.154,0.14,0.231,0.321,0.231,0.546c0,0.22-0.077,0.399-0.231,0.538
		c-0.153,0.14-0.411,0.209-0.772,0.209H83.798z"/>
	<path fill="#231F20" d="M94.162,111.883v-0.352c-0.376,0.2-0.791,0.351-1.245,0.451c-0.454,0.1-0.867,0.15-1.238,0.15
		c-0.806,0-1.46-0.214-1.963-0.641c-0.503-0.427-0.754-0.899-0.754-1.417c0-0.63,0.321-1.214,0.963-1.754
		c0.642-0.54,1.529-0.81,2.662-0.81c0.454,0,0.979,0.049,1.575,0.146v-0.359c0-0.225-0.097-0.408-0.29-0.549
		s-0.56-0.212-1.102-0.212c-0.444,0-1.021,0.088-1.729,0.264c-0.264,0.063-0.469,0.095-0.615,0.095c-0.2,0-0.37-0.072-0.509-0.216
		c-0.139-0.144-0.208-0.329-0.208-0.553c0-0.127,0.024-0.237,0.073-0.33s0.117-0.167,0.205-0.224
		c0.088-0.056,0.271-0.123,0.549-0.201c0.371-0.103,0.75-0.184,1.135-0.245s0.735-0.092,1.047-0.092
		c0.933,0,1.656,0.201,2.172,0.604c0.515,0.402,0.772,0.953,0.772,1.651v3.091h0.256c0.361,0,0.619,0.069,0.773,0.209
		c0.153,0.139,0.23,0.321,0.23,0.545c0,0.22-0.077,0.399-0.23,0.539c-0.154,0.139-0.412,0.208-0.773,0.208H94.162z M94.162,109.195
		c-0.601-0.117-1.155-0.176-1.663-0.176c-0.61,0-1.135,0.149-1.575,0.447c-0.273,0.19-0.41,0.383-0.41,0.579
		c0,0.142,0.066,0.256,0.198,0.344c0.244,0.161,0.579,0.242,1.003,0.242c0.361,0,0.77-0.071,1.227-0.212
		c0.456-0.142,0.863-0.334,1.219-0.579V109.195z"/>
	<path fill="#231F20" d="M100.854,112.207c0.237,0.162,0.414,0.348,0.531,0.561s0.176,0.45,0.176,0.713
		c0,0.284-0.078,0.546-0.232,0.787s-0.379,0.423-0.674,0.547S99.975,115,99.499,115c-0.62,0-1.086-0.096-1.398-0.289
		c-0.174-0.109-0.262-0.24-0.262-0.391c0-0.115,0.039-0.211,0.115-0.291s0.17-0.119,0.279-0.119c0.076,0,0.154,0.026,0.234,0.078
		c0.115,0.078,0.223,0.13,0.324,0.156c0.156,0.037,0.371,0.055,0.645,0.055c0.466,0,0.803-0.061,1.012-0.182
		s0.313-0.292,0.313-0.514c0-0.164-0.061-0.322-0.182-0.475s-0.283-0.27-0.486-0.354c-0.117-0.047-0.315-0.08-0.594-0.098
		c-0.133-0.008-0.235-0.049-0.307-0.123s-0.107-0.166-0.107-0.275c0-0.115,0.039-0.211,0.117-0.289s0.177-0.117,0.297-0.117
		c0.266,0,0.408-0.001,0.426-0.004c0.104-0.01,0.208-0.044,0.313-0.102s0.188-0.136,0.252-0.236s0.096-0.204,0.096-0.311
		c0-0.169-0.075-0.316-0.225-0.439s-0.375-0.186-0.674-0.186c-0.385,0-0.68,0.112-0.883,0.336c-0.06,0.065-0.108,0.107-0.145,0.125
		c-0.055,0.029-0.116,0.043-0.184,0.043c-0.109,0-0.203-0.039-0.281-0.117s-0.117-0.174-0.117-0.289c0-0.18,0.12-0.354,0.359-0.523
		c0.349-0.248,0.785-0.371,1.309-0.371c0.495,0,0.892,0.141,1.191,0.422s0.449,0.62,0.449,1.016c0,0.206-0.044,0.398-0.133,0.576
		S101.031,112.056,100.854,112.207z"/>
</g>
<rect x="147.402" y="79.37" fill="#EAEAFF" stroke="#231F20" stroke-width="2" stroke-miterlimit="10" width="56.693" height="56.693"/>
<g>
	<path fill="#231F20" d="M168.837,106.734v3.647h2.139c0.361,0,0.619,0.069,0.772,0.209c0.154,0.139,0.231,0.321,0.231,0.545
		c0,0.22-0.077,0.399-0.231,0.539c-0.153,0.139-0.411,0.208-0.772,0.208h-4.534c-0.361,0-0.619-0.07-0.773-0.208
		c-0.153-0.14-0.23-0.321-0.23-0.546c0-0.22,0.077-0.399,0.23-0.538c0.154-0.14,0.412-0.209,0.773-0.209h0.894v-3.647h-0.718
		c-0.361,0-0.619-0.069-0.773-0.209c-0.153-0.139-0.23-0.321-0.23-0.545c0-0.22,0.077-0.399,0.23-0.539
		c0.154-0.139,0.412-0.208,0.773-0.208h0.718v-0.571c0-0.654,0.246-1.198,0.736-1.629c0.491-0.433,1.203-0.648,2.135-0.648
		c0.415,0,0.895,0.038,1.439,0.113c0.544,0.076,0.894,0.182,1.048,0.319c0.153,0.137,0.23,0.313,0.23,0.527
		c0,0.229-0.068,0.417-0.205,0.56c-0.137,0.145-0.305,0.216-0.505,0.216c-0.093,0-0.232-0.017-0.417-0.051
		c-0.62-0.122-1.169-0.183-1.648-0.183c-0.498,0-0.841,0.075-1.029,0.223c-0.188,0.149-0.282,0.333-0.282,0.553v0.571h2.314
		c0.361,0,0.619,0.07,0.772,0.208c0.154,0.14,0.231,0.321,0.231,0.546c0,0.22-0.077,0.399-0.231,0.538
		c-0.153,0.14-0.411,0.209-0.772,0.209H168.837z"/>
	<path fill="#231F20" d="M179.201,111.883v-0.352c-0.376,0.2-0.791,0.351-1.245,0.451c-0.454,0.1-0.867,0.15-1.238,0.15
		c-0.806,0-1.46-0.214-1.963-0.641c-0.503-0.427-0.754-0.899-0.754-1.417c0-0.63,0.321-1.214,0.963-1.754
		c0.642-0.54,1.529-0.81,2.662-0.81c0.454,0,0.979,0.049,1.575,0.146v-0.359c0-0.225-0.097-0.408-0.29-0.549
		s-0.56-0.212-1.102-0.212c-0.444,0-1.021,0.088-1.729,0.264c-0.264,0.063-0.469,0.095-0.615,0.095c-0.2,0-0.37-0.072-0.509-0.216
		c-0.139-0.144-0.208-0.329-0.208-0.553c0-0.127,0.024-0.237,0.073-0.33s0.117-0.167,0.205-0.224
		c0.088-0.056,0.271-0.123,0.549-0.201c0.371-0.103,0.75-0.184,1.135-0.245s0.735-0.092,1.047-0.092
		c0.933,0,1.656,0.201,2.172,0.604c0.515,0.402,0.772,0.953,0.772,1.651v3.091h0.256c0.361,0,0.619,0.069,0.773,0.209
		c0.153,0.139,0.23,0.321,0.23,0.545c0,0.22-0.077,0.399-0.23,0.539c-0.154,0.139-0.412,0.208-0.773,0.208H179.201z
		 M179.201,109.195c-0.601-0.117-1.155-0.176-1.663-0.176c-0.61,0-1.135,0.149-1.575,0.447c-0.273,0.19-0.41,0.383-0.41,0.579
		c0,0.142,0.066,0.256,0.198,0.344c0.244,0.161,0.579,0.242,1.003,0.242c0.361,0,0.77-0.071,1.227-0.212
		c0.456-0.142,0.863-0.334,1.219-0.579V109.195z"/>
	<path fill="#231F20" d="M184.002,114.082h1.754c0.096-0.078,0.188-0.117,0.273-0.117c0.123,0,0.219,0.041,0.291,0.121
		s0.107,0.219,0.107,0.414v0.383h-3.648v-0.848c1.443-1.19,2.314-1.956,2.613-2.297c0.151-0.174,0.227-0.34,0.227-0.496
		c0-0.195-0.085-0.368-0.256-0.518s-0.398-0.225-0.682-0.225c-0.287,0-0.525,0.083-0.715,0.25c-0.099,0.088-0.178,0.22-0.238,0.395
		c-0.037,0.109-0.086,0.188-0.15,0.234s-0.143,0.07-0.236,0.07c-0.109,0-0.204-0.039-0.283-0.117s-0.119-0.169-0.119-0.273
		c0-0.156,0.072-0.352,0.217-0.586s0.355-0.422,0.633-0.563s0.579-0.211,0.904-0.211c0.505,0,0.919,0.153,1.242,0.459
		s0.484,0.676,0.484,1.111c0,0.221-0.046,0.426-0.139,0.615s-0.314,0.45-0.666,0.783
		C185.34,112.931,184.802,113.402,184.002,114.082z"/>
</g>
<rect x="232.442" y="79.37" fill="#EAEAFF" stroke="#231F20" stroke-width="2" stroke-miterlimit="10" width="56.693" height="56.693"/>
<g>
	<path fill="#231F20" d="M253.876,106.734v3.647h2.139c0.361,0,0.619,0.069,0.772,0.209c0.154,0.139,0.231,0.321,0.231,0.545
		c0,0.22-0.077,0.399-0.231,0.539c-0.153,0.139-0.411,0.208-0.772,0.208h-4.534c-0.361,0-0.619-0.07-0.773-0.208
		c-0.153-0.14-0.23-0.321-0.23-0.546c0-0.22,0.077-0.399,0.23-0.538c0.154-0.14,0.412-0.209,0.773-0.209h0.894v-3.647h-0.718
		c-0.361,0-0.619-0.069-0.773-0.209c-0.153-0.139-0.23-0.321-0.23-0.545c0-0.22,0.077-0.399,0.23-0.539
		c0.154-0.139,0.412-0.208,0.773-0.208h0.718v-0.571c0-0.654,0.246-1.198,0.736-1.629c0.491-0.433,1.203-0.648,2.135-0.648
		c0.415,0,0.895,0.038,1.439,0.113c0.544,0.076,0.894,0.182,1.048,0.319c0.153,0.137,0.23,0.313,0.23,0.527
		c0,0.229-0.068,0.417-0.205,0.56c-0.137,0.145-0.305,0.216-0.505,0.216c-0.093,0-0.232-0.017-0.417-0.051
		c-0.62-0.122-1.169-0.183-1.648-0.183c-0.498,0-0.841,0.075-1.029,0.223c-0.188,0.149-0.282,0.333-0.282,0.553v0.571h2.314
		c0.361,0,0.619,0.07,0.772,0.208c0.154,0.14,0.231,0.321,0.231,0.546c0,0.22-0.077,0.399-0.231,0.538
		c-0.153,0.14-0.411,0.209-0.772,0.209H253.876z"/>
	<path fill="#231F20" d="M264.24,111.883v-0.352c-0.376,0.2-0.791,0.351-1.245,0.451c-0.454,0.1-0.867,0.15-1.238,0.15
		c-0.806,0-1.46-0.214-1.963-0.641c-0.503-0.427-0.754-0.899-0.754-1.417c0-0.63,0.321-1.214,0.963-1.754
		c0.642-0.54,1.529-0.81,2.662-0.81c0.454,0,0.979,0.049,1.575,0.146v-0.359c0-0.225-0.097-0.408-0.29-0.549
		s-0.56-0.212-1.102-0.212c-0.444,0-1.021,0.088-1.729,0.264c-0.264,0.063-0.469,0.095-0.615,0.095c-0.2,0-0.37-0.072-0.509-0.216
		c-0.139-0.144-0.208-0.329-0.208-0.553c0-0.127,0.024-0.237,0.073-0.33s0.117-0.167,0.205-0.224
		c0.088-0.056,0.271-0.123,0.549-0.201c0.371-0.103,0.75-0.184,1.135-0.245s0.735-0.092,1.047-0.092
		c0.933,0,1.656,0.201,2.172,0.604c0.515,0.402,0.772,0.953,0.772,1.651v3.091h0.256c0.361,0,0.619,0.069,0.773,0.209
		c0.153,0.139,0.23,0.321,0.23,0.545c0,0.22-0.077,0.399-0.23,0.539c-0.154,0.139-0.412,0.208-0.773,0.208H264.24z M264.24,109.195
		c-0.601-0.117-1.155-0.176-1.663-0.176c-0.61,0-1.135,0.149-1.575,0.447c-0.273,0.19-0.41,0.383-0.41,0.579
		c0,0.142,0.066,0.256,0.198,0.344c0.244,0.161,0.579,0.242,1.003,0.242c0.361,0,0.77-0.071,1.227-0.212
		c0.456-0.142,0.863-0.334,1.219-0.579V109.195z"/>
	<path fill="#231F20" d="M270.198,109.699v4.383h0.809c0.193,0,0.33,0.037,0.412,0.111s0.123,0.171,0.123,0.291
		c0,0.117-0.041,0.213-0.123,0.287s-0.219,0.111-0.412,0.111h-2.418c-0.193,0-0.33-0.037-0.412-0.111s-0.123-0.171-0.123-0.291
		c0-0.117,0.041-0.213,0.123-0.287s0.219-0.111,0.412-0.111h0.809v-3.34l-0.715,0.188c-0.115,0.031-0.201,0.047-0.258,0.047
		c-0.102,0-0.189-0.041-0.264-0.121s-0.111-0.18-0.111-0.297c0-0.107,0.027-0.191,0.082-0.252s0.169-0.115,0.344-0.162
		L270.198,109.699z"/>
</g>
<rect x="317.482" y="79.37" fill="#EAEAFF" stroke="#231F20" stroke-width="2" stroke-miterlimit="10" width="56.693" height="56.693"/>
<g>
	<path fill="#231F20" d="M338.917,106.734v3.647h2.139c0.361,0,0.619,0.069,0.772,0.209c0.154,0.139,0.231,0.321,0.231,0.545
		c0,0.22-0.077,0.399-0.231,0.539c-0.153,0.139-0.411,0.208-0.772,0.208h-4.534c-0.361,0-0.619-0.07-0.773-0.208
		c-0.153-0.14-0.23-0.321-0.23-0.546c0-0.22,0.077-0.399,0.23-0.538c0.154-0.14,0.412-0.209,0.773-0.209h0.894v-3.647h-0.718
		c-0.361,0-0.619-0.069-0.773-0.209c-0.153-0.139-0.23-0.321-0.23-0.545c0-0.22,0.077-0.399,0.23-0.539
		c0.154-0.139,0.412-0.208,0.773-0.208h0.718v-0.571c0-0.654,0.246-1.198,0.736-1.629c0.491-0.433,1.203-0.648,2.135-0.648
		c0.415,0,0.895,0.038,1.439,0.113c0.544,0.076,0.894,0.182,1.048,0.319c0.153,0.137,0.23,0.313,0.23,0.527
		c0,0.229-0.068,0.417-0.205,0.56c-0.137,0.145-0.305,0.216-0.505,0.216c-0.093,0-0.232-0.017-0.417-0.051
		c-0.62-0.122-1.169-0.183-1.648-0.183c-0.498,0-0.841,0.075-1.029,0.223c-0.188,0.149-0.282,0.333-0.282,0.553v0.571h2.314
		c0.361,0,0.619,0.07,0.772,0.208c0.154,0.14,0.231,0.321,0.231,0.546c0,0.22-0.077,0.399-0.231,0.538
		c-0.153,0.14-0.411,0.209-0.772,0.209H338.917z"/>
	<path fill="#231F20" d="M349.28,111.883v-0.352c-0.376,0.2-0.791,0.351-1.245,0.451c-0.454,0.1-0.867,0.15-1.238,0.15
		c-0.806,0-1.46-0.214-1.963-0.641c-0.503-0.427-0.754-0.899-0.754-1.417c0-0.63,0.321-1.214,0.963-1.754
		c0.642-0.54,1.529-0.81,2.662-0.81c0.454,0,0.979,0.049,1.575,0.146v-0.359c0-0.225-0.097-0.408-0.29-0.549
		s-0.56-0.212-1.102-0.212c-0.444,0-1.021,0.088-1.729,0.264c-0.264,0.063-0.469,0.095-0.615,0.095c-0.2,0-0.37-0.072-0.509-0.216
		c-0.139-0.144-0.208-0.329-0.208-0.553c0-0.127,0.024-0.237,0.073-0.33s0.117-0.167,0.205-0.224
		c0.088-0.056,0.271-0.123,0.549-0.201c0.371-0.103,0.75-0.184,1.135-0.245s0.735-0.092,1.047-0.092
		c0.933,0,1.656,0.201,2.172,0.604c0.515,0.402,0.772,0.953,0.772,1.651v3.091h0.256c0.361,0,0.619,0.069,0.773,0.209
		c0.153,0.139,0.23,0.321,0.23,0.545c0,0.22-0.077,0.399-0.23,0.539c-0.154,0.139-0.412,0.208-0.773,0.208H349.28z M349.28,109.195
		c-0.601-0.117-1.155-0.176-1.663-0.176c-0.61,0-1.135,0.149-1.575,0.447c-0.273,0.19-0.41,0.383-0.41,0.579
		c0,0.142,0.066,0.256,0.198,0.344c0.244,0.161,0.579,0.242,1.003,0.242c0.361,0,0.77-0.071,1.227-0.212
		c0.456-0.142,0.863-0.334,1.219-0.579V109.195z"/>
	<path fill="#231F20" d="M356.578,111.91v0.879c0,0.521-0.15,1.02-0.451,1.496S355.396,115,354.836,115
		c-0.323,0-0.596-0.071-0.818-0.213s-0.434-0.404-0.633-0.785s-0.299-0.786-0.299-1.213v-0.879c0-0.518,0.15-1.016,0.449-1.494
		s0.729-0.717,1.289-0.717c0.32,0,0.592,0.07,0.814,0.211s0.435,0.402,0.637,0.783S356.578,111.48,356.578,111.91z M355.773,111.91
		c0-0.435-0.121-0.815-0.363-1.141c-0.138-0.18-0.332-0.27-0.582-0.27c-0.242,0-0.44,0.099-0.594,0.297
		c-0.232,0.299-0.348,0.67-0.348,1.113v0.879c0,0.438,0.123,0.818,0.367,1.141c0.135,0.18,0.33,0.27,0.582,0.27
		c0.24,0,0.436-0.099,0.59-0.297c0.232-0.299,0.348-0.67,0.348-1.113V111.91z"/>
</g>
<line fill="none" stroke="#00ADEE" stroke-miterlimit="10" x1="102.048" y1="79.37" x2="102.048" y2="17.008"/>
<line fill="none" stroke="#231F20" stroke-miterlimit="10" x1="391.183" y1="107.716" x2="391.183" y2="17.008"/>
<line fill="none" stroke="#231F20" stroke-miterlimit="10" x1="79.371" y1="79.37" x2="79.371" y2="62.362"/>
<line fill="none" stroke="#00ADEE" stroke-width="0.7071" stroke-miterlimit="10" x1="85.041" y1="39.685" x2="85.041" y2="34.016"/>
<line fill="none" stroke="#00ADEE" stroke-width="0.8944" stroke-miterlimit="10" x1="73.702" y1="39.685" x2="73.702" y2="17.008"/>
<g>
	<g>
		<line fill="none" stroke="#00ADEE" stroke-miterlimit="10" x1="175.749" y1="163.595" x2="175.749" y2="136.063"/>
		<g>
			<polygon fill="#00ADEE" points="178.816,161.11 178.267,160.599 175.75,163.308 173.232,160.599 172.682,161.11 175.75,164.409 
							"/>
		</g>
	</g>
</g>
<g>
	<g>
		<line fill="none" stroke="#00ADEE" stroke-miterlimit="10" x1="90.71" y1="163.596" x2="90.71" y2="136.063"/>
		<g>
			<polygon fill="#00ADEE" points="93.777,161.111 93.228,160.599 90.71,163.308 88.193,160.599 87.643,161.111 90.71,164.409 			
				"/>
		</g>
	</g>
</g>
<line fill="none" stroke="#EC1C24" stroke-miterlimit="10" x1="34.017" y1="124.725" x2="34.017" y2="107.716"/>
<line fill="none" stroke="#EC1C24" stroke-miterlimit="10" x1="22.678" y1="124.725" x2="22.678" y2="68.031"/>
<line fill="none" stroke="#EC1C24" stroke-miterlimit="10" x1="130.395" y1="107.716" x2="130.395" y2="68.031"/>
<g>
	<g>
		<line fill="none" stroke="#EC1C24" stroke-miterlimit="10" x1="28.348" y1="163.596" x2="28.348" y2="141.732"/>
		<g>
			<polygon fill="#EC1C24" points="31.415,161.111 30.866,160.599 28.348,163.308 25.831,160.599 25.281,161.111 28.348,164.409 			
				"/>
		</g>
	</g>
</g>
<g>
	<g>
		<line fill="none" stroke="#00ADEE" stroke-miterlimit="10" x1="260.789" y1="163.596" x2="260.789" y2="136.063"/>
		<g>
			<polygon fill="#00ADEE" points="263.856,161.111 263.307,160.599 260.79,163.308 258.272,160.599 257.722,161.111 
				260.79,164.409 			"/>
		</g>
	</g>
</g>
<g>
	<g>
		<line fill="none" stroke="#00ADEE" stroke-miterlimit="10" x1="345.829" y1="163.596" x2="345.829" y2="136.063"/>
		<g>
			<polygon fill="#00ADEE" points="348.896,161.111 348.347,160.599 345.83,163.308 343.311,160.599 342.762,161.111 
				345.83,164.409 			"/>
		</g>
	</g>
</g>
<line fill="none" x1="442.206" y1="164.409" x2="442.206" y2="136.063"/>
<line fill="none" stroke="#EC1C24" stroke-miterlimit="10" x1="34.017" y1="107.716" x2="62.217" y2="107.716"/>
<line fill="none" stroke="#EC1C24" stroke-miterlimit="10" x1="22.678" y1="68.031" x2="130.395" y2="68.031"/>
<line fill="none" stroke="#00ADEE" stroke-miterlimit="10" x1="85.037" y1="34.016" x2="391.179" y2="34.016"/>
<g>
	<g>
		<line fill="none" stroke="#EC1C24" stroke-miterlimit="10" x1="120.315" y1="107.334" x2="147.701" y2="107.334"/>
		<g>
			<polygon fill="#EC1C24" points="122.8,110.402 123.312,109.853 120.603,107.335 123.312,104.817 122.8,104.268 119.501,107.335 
							"/>
		</g>
	</g>
</g>
<g>
	<g>
		<line fill="none" stroke="#EC1C24" stroke-miterlimit="10" x1="205.354" y1="107.334" x2="232.74" y2="107.334"/>
		<g>
			<polygon fill="#EC1C24" points="207.839,110.402 208.351,109.853 205.642,107.335 208.351,104.817 207.839,104.268 
				204.541,107.335 			"/>
		</g>
	</g>
</g>
<g>
	<g>
		<line fill="none" stroke="#EC1C24" stroke-miterlimit="10" x1="290.394" y1="107.334" x2="317.78" y2="107.334"/>
		<g>
			<polygon fill="#EC1C24" points="292.878,110.402 293.39,109.853 290.681,107.335 293.39,104.817 292.878,104.268 289.58,107.335 
							"/>
		</g>
	</g>
</g>
<g>
	<g>
		<line fill="none" stroke="#231F20" stroke-miterlimit="10" x1="375.58" y1="107.334" x2="391.183" y2="107.334"/>
		<g>
			<polygon fill="#231F20" points="378.064,110.402 378.576,109.853 375.867,107.335 378.576,104.817 378.064,104.268 
				374.766,107.335 			"/>
		</g>
	</g>
</g>
<g>
	<path fill="#00ADEE" d="M101.064,11.338v-0.709c-0.715,0.602-1.479,0.902-2.291,0.902c-0.59,0-1.051-0.149-1.383-0.448
		s-0.498-0.665-0.498-1.099c0-0.477,0.219-0.893,0.656-1.248s1.076-0.533,1.916-0.533c0.227,0,0.473,0.015,0.738,0.044
		s0.553,0.075,0.861,0.138V7.588c0-0.27-0.125-0.504-0.375-0.703s-0.625-0.299-1.125-0.299c-0.383,0-0.92,0.111-1.611,0.334
		c-0.125,0.039-0.205,0.059-0.24,0.059c-0.063,0-0.116-0.023-0.161-0.07s-0.067-0.105-0.067-0.176c0-0.066,0.02-0.119,0.059-0.158
		c0.055-0.059,0.275-0.139,0.662-0.24c0.609-0.164,1.07-0.246,1.383-0.246c0.621,0,1.105,0.153,1.453,0.46s0.521,0.653,0.521,1.04
		v3.258h0.656c0.121,0,0.207,0.022,0.258,0.067s0.076,0.104,0.076,0.179c0,0.07-0.025,0.129-0.076,0.176s-0.137,0.07-0.258,0.07
		H101.064z M101.064,8.889c-0.23-0.066-0.475-0.115-0.732-0.146s-0.529-0.047-0.814-0.047c-0.715,0-1.273,0.154-1.676,0.463
		c-0.305,0.23-0.457,0.506-0.457,0.826c0,0.297,0.116,0.547,0.349,0.75s0.571,0.305,1.017,0.305c0.426,0,0.821-0.085,1.187-0.255
		s0.741-0.44,1.128-0.812V8.889z"/>
	<path fill="#00ADEE" d="M106.324,11.67c0.302,0.135,0.533,0.321,0.691,0.557s0.238,0.481,0.238,0.736
		c0,0.393-0.16,0.74-0.479,1.041s-0.718,0.451-1.197,0.451c-0.281,0-0.573-0.06-0.875-0.18s-0.513-0.242-0.633-0.367
		c-0.039-0.042-0.059-0.086-0.059-0.133c0-0.042,0.015-0.078,0.045-0.109s0.066-0.047,0.107-0.047s0.088,0.02,0.141,0.059
		c0.404,0.299,0.831,0.449,1.281,0.449c0.38,0,0.699-0.119,0.955-0.357s0.385-0.503,0.385-0.795c0-0.195-0.063-0.387-0.189-0.574
		s-0.308-0.335-0.545-0.443s-0.477-0.162-0.719-0.162c-0.078,0-0.134-0.015-0.168-0.045s-0.051-0.07-0.051-0.119
		c0-0.047,0.016-0.086,0.049-0.117s0.082-0.047,0.146-0.047l0.281,0.004c0.294,0,0.537-0.09,0.729-0.27s0.287-0.388,0.287-0.625
		c0-0.245-0.1-0.461-0.301-0.648s-0.462-0.281-0.785-0.281c-0.227,0-0.435,0.039-0.625,0.117s-0.342,0.185-0.457,0.32
		c-0.042,0.052-0.074,0.084-0.096,0.096s-0.047,0.018-0.076,0.018c-0.044,0-0.082-0.015-0.113-0.045s-0.047-0.066-0.047-0.107
		c0-0.104,0.113-0.236,0.34-0.395c0.315-0.221,0.673-0.332,1.074-0.332c0.414,0,0.754,0.125,1.02,0.373s0.398,0.545,0.398,0.889
		c0,0.219-0.064,0.426-0.191,0.621S106.572,11.553,106.324,11.67z"/>
</g>
<g>
	<path fill="#00ADEE" d="M186.104,11.338v-0.709c-0.715,0.602-1.479,0.902-2.291,0.902c-0.59,0-1.051-0.149-1.383-0.448
		s-0.498-0.665-0.498-1.099c0-0.477,0.219-0.893,0.656-1.248s1.076-0.533,1.916-0.533c0.227,0,0.473,0.015,0.738,0.044
		s0.553,0.075,0.861,0.138V7.588c0-0.27-0.125-0.504-0.375-0.703s-0.625-0.299-1.125-0.299c-0.383,0-0.92,0.111-1.611,0.334
		c-0.125,0.039-0.205,0.059-0.24,0.059c-0.063,0-0.116-0.023-0.161-0.07s-0.067-0.105-0.067-0.176c0-0.066,0.02-0.119,0.059-0.158
		c0.055-0.059,0.275-0.139,0.662-0.24c0.609-0.164,1.07-0.246,1.383-0.246c0.621,0,1.105,0.153,1.453,0.46s0.521,0.653,0.521,1.04
		v3.258h0.656c0.121,0,0.207,0.022,0.258,0.067s0.076,0.104,0.076,0.179c0,0.07-0.025,0.129-0.076,0.176s-0.137,0.07-0.258,0.07
		H186.104z M186.104,8.889c-0.23-0.066-0.475-0.115-0.732-0.146s-0.529-0.047-0.814-0.047c-0.715,0-1.273,0.154-1.676,0.463
		c-0.305,0.23-0.457,0.506-0.457,0.826c0,0.297,0.116,0.547,0.349,0.75s0.571,0.305,1.017,0.305c0.426,0,0.821-0.085,1.187-0.255
		s0.741-0.44,1.128-0.812V8.889z"/>
	<path fill="#00ADEE" d="M189.277,14.01h2.52v-0.129c0-0.078,0.016-0.134,0.047-0.168s0.072-0.051,0.121-0.051
		c0.047,0,0.086,0.017,0.117,0.051s0.047,0.09,0.047,0.168v0.457h-3.172v-0.484c0.667-0.599,1.315-1.208,1.945-1.828
		c0.294-0.289,0.496-0.501,0.605-0.637s0.184-0.254,0.225-0.357s0.061-0.207,0.061-0.311c0-0.281-0.113-0.53-0.34-0.746
		s-0.5-0.324-0.82-0.324c-0.287,0-0.541,0.082-0.762,0.246s-0.365,0.367-0.43,0.609c-0.016,0.063-0.035,0.103-0.059,0.121
		c-0.031,0.026-0.068,0.039-0.109,0.039c-0.044,0-0.082-0.015-0.111-0.045s-0.045-0.066-0.045-0.107
		c0-0.125,0.068-0.294,0.205-0.508s0.326-0.381,0.566-0.504s0.488-0.184,0.74-0.184c0.409,0,0.76,0.142,1.055,0.426
		s0.441,0.605,0.441,0.965c0,0.151-0.025,0.29-0.074,0.416s-0.133,0.264-0.252,0.414s-0.332,0.375-0.639,0.678
		c-0.771,0.76-1.398,1.35-1.883,1.77V14.01z"/>
</g>
<g>
	<path fill="#00ADEE" d="M271.143,11.338v-0.709c-0.715,0.602-1.479,0.902-2.291,0.902c-0.59,0-1.051-0.149-1.383-0.448
		s-0.498-0.665-0.498-1.099c0-0.477,0.219-0.893,0.656-1.248s1.076-0.533,1.916-0.533c0.227,0,0.473,0.015,0.738,0.044
		s0.553,0.075,0.861,0.138V7.588c0-0.27-0.125-0.504-0.375-0.703s-0.625-0.299-1.125-0.299c-0.383,0-0.92,0.111-1.611,0.334
		c-0.125,0.039-0.205,0.059-0.24,0.059c-0.063,0-0.116-0.023-0.161-0.07s-0.067-0.105-0.067-0.176c0-0.066,0.02-0.119,0.059-0.158
		c0.055-0.059,0.275-0.139,0.662-0.24c0.609-0.164,1.07-0.246,1.383-0.246c0.621,0,1.105,0.153,1.453,0.46s0.521,0.653,0.521,1.04
		v3.258h0.656c0.121,0,0.207,0.022,0.258,0.067s0.076,0.104,0.076,0.179c0,0.07-0.025,0.129-0.076,0.176s-0.137,0.07-0.258,0.07
		H271.143z M271.143,8.889c-0.23-0.066-0.475-0.115-0.732-0.146s-0.529-0.047-0.814-0.047c-0.715,0-1.273,0.154-1.676,0.463
		c-0.305,0.23-0.457,0.506-0.457,0.826c0,0.297,0.116,0.547,0.349,0.75s0.571,0.305,1.017,0.305c0.426,0,0.821-0.085,1.187-0.255
		s0.741-0.44,1.128-0.812V8.889z"/>
	<path fill="#00ADEE" d="M275.891,9.37v4.641h1.125c0.078,0,0.134,0.015,0.168,0.045s0.051,0.07,0.051,0.119
		c0,0.047-0.017,0.086-0.051,0.117s-0.09,0.047-0.168,0.047h-2.578c-0.078,0-0.134-0.016-0.168-0.047s-0.051-0.07-0.051-0.117
		c0-0.049,0.017-0.089,0.051-0.119s0.09-0.045,0.168-0.045h1.125V9.823l-1.07,0.336c-0.052,0.016-0.09,0.023-0.113,0.023
		c-0.039,0-0.075-0.016-0.107-0.049s-0.049-0.071-0.049-0.115c0-0.039,0.013-0.076,0.039-0.109c0.021-0.021,0.064-0.043,0.129-0.066
		L275.891,9.37z"/>
</g>
<g>
	<path fill="#00ADEE" d="M356.182,11.338v-0.709c-0.715,0.602-1.479,0.902-2.291,0.902c-0.59,0-1.051-0.149-1.383-0.448
		s-0.498-0.665-0.498-1.099c0-0.477,0.219-0.893,0.656-1.248s1.076-0.533,1.916-0.533c0.227,0,0.473,0.015,0.738,0.044
		s0.553,0.075,0.861,0.138V7.588c0-0.27-0.125-0.504-0.375-0.703s-0.625-0.299-1.125-0.299c-0.383,0-0.92,0.111-1.611,0.334
		c-0.125,0.039-0.205,0.059-0.24,0.059c-0.063,0-0.116-0.023-0.161-0.07s-0.067-0.105-0.067-0.176c0-0.066,0.02-0.119,0.059-0.158
		c0.055-0.059,0.275-0.139,0.662-0.24c0.609-0.164,1.07-0.246,1.383-0.246c0.621,0,1.105,0.153,1.453,0.46s0.521,0.653,0.521,1.04
		v3.258h0.656c0.121,0,0.207,0.022,0.258,0.067s0.076,0.104,0.076,0.179c0,0.07-0.025,0.129-0.076,0.176s-0.137,0.07-0.258,0.07
		H356.182z M356.182,8.889c-0.23-0.066-0.475-0.115-0.732-0.146s-0.529-0.047-0.814-0.047c-0.715,0-1.273,0.154-1.676,0.463
		c-0.305,0.23-0.457,0.506-0.457,0.826c0,0.297,0.116,0.547,0.349,0.75s0.571,0.305,1.017,0.305c0.426,0,0.821-0.085,1.187-0.255
		s0.741-0.44,1.128-0.812V8.889z"/>
	<path fill="#00ADEE" d="M362.273,11.483v0.813c0,0.706-0.168,1.264-0.504,1.676c-0.263,0.323-0.595,0.484-0.996,0.484
		c-0.193,0-0.375-0.039-0.545-0.115s-0.316-0.184-0.436-0.322c-0.076-0.086-0.158-0.224-0.248-0.414s-0.154-0.365-0.193-0.523
		c-0.06-0.224-0.09-0.486-0.09-0.785v-0.813c0-0.708,0.168-1.268,0.504-1.68c0.263-0.323,0.595-0.484,0.996-0.484
		c0.195,0,0.377,0.039,0.547,0.115s0.314,0.184,0.434,0.322c0.078,0.088,0.162,0.228,0.25,0.418s0.154,0.363,0.195,0.52
		C362.245,10.918,362.273,11.181,362.273,11.483z M361.945,11.526c0-0.31-0.043-0.598-0.131-0.865s-0.186-0.48-0.295-0.639
		c-0.065-0.091-0.15-0.169-0.254-0.234c-0.148-0.091-0.315-0.137-0.5-0.137c-0.367,0-0.655,0.188-0.863,0.563
		s-0.313,0.813-0.313,1.313v0.723c0,0.31,0.043,0.599,0.131,0.867s0.187,0.482,0.299,0.641c0.063,0.088,0.146,0.166,0.25,0.23
		c0.148,0.094,0.316,0.141,0.504,0.141c0.365,0,0.651-0.188,0.859-0.564s0.313-0.814,0.313-1.314V11.526z"/>
</g>
<g>
	<path fill="#EC1C24" d="M50.678,97.471v-0.164c0-0.121,0.023-0.207,0.07-0.258s0.105-0.076,0.176-0.076
		c0.074,0,0.135,0.025,0.182,0.076s0.07,0.137,0.07,0.258v1.113c-0.004,0.121-0.028,0.207-0.073,0.258s-0.104,0.076-0.179,0.076
		c-0.066,0-0.122-0.022-0.167-0.067s-0.071-0.12-0.079-0.226c-0.023-0.277-0.206-0.541-0.548-0.791s-0.802-0.375-1.38-0.375
		c-0.73,0-1.285,0.229-1.664,0.686s-0.568,0.98-0.568,1.57c0,0.637,0.209,1.162,0.627,1.576s0.959,0.621,1.623,0.621
		c0.383,0,0.772-0.07,1.169-0.211s0.755-0.367,1.075-0.68c0.082-0.078,0.154-0.117,0.217-0.117c0.066,0,0.122,0.022,0.167,0.067
		s0.067,0.101,0.067,0.167c0,0.168-0.197,0.381-0.592,0.639c-0.637,0.418-1.346,0.627-2.127,0.627c-0.793,0-1.444-0.253-1.954-0.759
		s-0.765-1.147-0.765-1.925c0-0.793,0.261-1.451,0.782-1.975s1.179-0.785,1.972-0.785C49.534,96.797,50.167,97.021,50.678,97.471z"
		/>
	<path fill="#EC1C24" d="M55.299,102.379c0.302,0.135,0.533,0.321,0.691,0.557s0.238,0.481,0.238,0.736
		c0,0.393-0.16,0.74-0.479,1.041s-0.718,0.451-1.197,0.451c-0.281,0-0.573-0.06-0.875-0.18s-0.513-0.242-0.633-0.367
		c-0.039-0.042-0.059-0.086-0.059-0.133c0-0.042,0.015-0.078,0.045-0.109s0.066-0.047,0.107-0.047s0.088,0.02,0.141,0.059
		c0.404,0.299,0.831,0.449,1.281,0.449c0.38,0,0.699-0.119,0.955-0.357s0.385-0.503,0.385-0.795c0-0.195-0.063-0.387-0.189-0.574
		s-0.308-0.335-0.545-0.443s-0.477-0.162-0.719-0.162c-0.078,0-0.134-0.015-0.168-0.045s-0.051-0.07-0.051-0.119
		c0-0.047,0.016-0.086,0.049-0.117s0.082-0.047,0.146-0.047l0.281,0.004c0.294,0,0.537-0.09,0.729-0.27s0.287-0.388,0.287-0.625
		c0-0.245-0.1-0.461-0.301-0.648s-0.462-0.281-0.785-0.281c-0.227,0-0.435,0.039-0.625,0.117s-0.342,0.185-0.457,0.32
		c-0.042,0.052-0.074,0.084-0.096,0.096s-0.047,0.018-0.076,0.018c-0.044,0-0.082-0.015-0.113-0.045s-0.047-0.066-0.047-0.107
		c0-0.104,0.113-0.236,0.34-0.395c0.315-0.221,0.673-0.332,1.074-0.332c0.414,0,0.754,0.125,1.02,0.373s0.398,0.545,0.398,0.889
		c0,0.219-0.064,0.426-0.191,0.621S55.547,102.262,55.299,102.379z"/>
</g>
<g>
	<path fill="#EC1C24" d="M135.716,97.471v-0.164c0-0.121,0.023-0.207,0.07-0.258s0.105-0.076,0.176-0.076
		c0.074,0,0.135,0.025,0.182,0.076s0.07,0.137,0.07,0.258v1.113c-0.004,0.121-0.028,0.207-0.073,0.258s-0.104,0.076-0.179,0.076
		c-0.066,0-0.122-0.022-0.167-0.067s-0.071-0.12-0.079-0.226c-0.023-0.277-0.206-0.541-0.548-0.791s-0.802-0.375-1.38-0.375
		c-0.73,0-1.285,0.229-1.664,0.686s-0.568,0.98-0.568,1.57c0,0.637,0.209,1.162,0.627,1.576s0.959,0.621,1.623,0.621
		c0.383,0,0.772-0.07,1.169-0.211s0.755-0.367,1.075-0.68c0.082-0.078,0.154-0.117,0.217-0.117c0.066,0,0.122,0.022,0.167,0.067
		s0.067,0.101,0.067,0.167c0,0.168-0.197,0.381-0.592,0.639c-0.637,0.418-1.346,0.627-2.127,0.627c-0.793,0-1.444-0.253-1.954-0.759
		s-0.765-1.147-0.765-1.925c0-0.793,0.261-1.451,0.782-1.975s1.179-0.785,1.972-0.785C134.572,96.797,135.205,97.021,135.716,97.471
		z"/>
	<path fill="#EC1C24" d="M138.251,104.719h2.52v-0.129c0-0.078,0.016-0.134,0.047-0.168s0.072-0.051,0.121-0.051
		c0.047,0,0.086,0.017,0.117,0.051s0.047,0.09,0.047,0.168v0.457h-3.172v-0.484c0.667-0.599,1.315-1.208,1.945-1.828
		c0.294-0.289,0.496-0.501,0.605-0.637s0.184-0.254,0.225-0.357s0.061-0.207,0.061-0.311c0-0.281-0.113-0.53-0.34-0.746
		s-0.5-0.324-0.82-0.324c-0.287,0-0.541,0.082-0.762,0.246s-0.365,0.367-0.43,0.609c-0.016,0.063-0.035,0.103-0.059,0.121
		c-0.031,0.026-0.068,0.039-0.109,0.039c-0.044,0-0.082-0.015-0.111-0.045s-0.045-0.066-0.045-0.107
		c0-0.125,0.068-0.294,0.205-0.508s0.326-0.381,0.566-0.504s0.488-0.184,0.74-0.184c0.409,0,0.76,0.142,1.055,0.426
		s0.441,0.605,0.441,0.965c0,0.151-0.025,0.29-0.074,0.416s-0.133,0.264-0.252,0.414s-0.332,0.375-0.639,0.678
		c-0.771,0.76-1.398,1.35-1.883,1.77V104.719z"/>
</g>
<g>
	<path fill="#EC1C24" d="M220.756,97.471v-0.164c0-0.121,0.023-0.207,0.07-0.258s0.105-0.076,0.176-0.076
		c0.074,0,0.135,0.025,0.182,0.076s0.07,0.137,0.07,0.258v1.113c-0.004,0.121-0.028,0.207-0.073,0.258s-0.104,0.076-0.179,0.076
		c-0.066,0-0.122-0.022-0.167-0.067s-0.071-0.12-0.079-0.226c-0.023-0.277-0.206-0.541-0.548-0.791s-0.802-0.375-1.38-0.375
		c-0.73,0-1.285,0.229-1.664,0.686s-0.568,0.98-0.568,1.57c0,0.637,0.209,1.162,0.627,1.576s0.959,0.621,1.623,0.621
		c0.383,0,0.772-0.07,1.169-0.211s0.755-0.367,1.075-0.68c0.082-0.078,0.154-0.117,0.217-0.117c0.066,0,0.122,0.022,0.167,0.067
		s0.067,0.101,0.067,0.167c0,0.168-0.197,0.381-0.592,0.639c-0.637,0.418-1.346,0.627-2.127,0.627c-0.793,0-1.444-0.253-1.954-0.759
		s-0.765-1.147-0.765-1.925c0-0.793,0.261-1.451,0.782-1.975s1.179-0.785,1.972-0.785C219.612,96.797,220.245,97.021,220.756,97.471
		z"/>
	<path fill="#EC1C24" d="M224.866,100.078v4.641h1.125c0.078,0,0.134,0.015,0.168,0.045s0.051,0.07,0.051,0.119
		c0,0.047-0.017,0.086-0.051,0.117s-0.09,0.047-0.168,0.047h-2.578c-0.078,0-0.134-0.016-0.168-0.047s-0.051-0.07-0.051-0.117
		c0-0.049,0.017-0.089,0.051-0.119s0.09-0.045,0.168-0.045h1.125v-4.188l-1.07,0.336c-0.052,0.016-0.09,0.023-0.113,0.023
		c-0.039,0-0.075-0.016-0.107-0.049s-0.049-0.071-0.049-0.115c0-0.039,0.013-0.076,0.039-0.109c0.021-0.021,0.064-0.043,0.129-0.066
		L224.866,100.078z"/>
</g>
<g>
	<path fill="#EC1C24" d="M305.795,97.471v-0.164c0-0.121,0.023-0.207,0.07-0.258s0.105-0.076,0.176-0.076
		c0.074,0,0.135,0.025,0.182,0.076s0.07,0.137,0.07,0.258v1.113c-0.004,0.121-0.028,0.207-0.073,0.258s-0.104,0.076-0.179,0.076
		c-0.066,0-0.122-0.022-0.167-0.067s-0.071-0.12-0.079-0.226c-0.023-0.277-0.206-0.541-0.548-0.791s-0.802-0.375-1.38-0.375
		c-0.73,0-1.285,0.229-1.664,0.686s-0.568,0.98-0.568,1.57c0,0.637,0.209,1.162,0.627,1.576s0.959,0.621,1.623,0.621
		c0.383,0,0.772-0.07,1.169-0.211s0.755-0.367,1.075-0.68c0.082-0.078,0.154-0.117,0.217-0.117c0.066,0,0.122,0.022,0.167,0.067
		s0.067,0.101,0.067,0.167c0,0.168-0.197,0.381-0.592,0.639c-0.637,0.418-1.346,0.627-2.127,0.627c-0.793,0-1.444-0.253-1.954-0.759
		s-0.765-1.147-0.765-1.925c0-0.793,0.261-1.451,0.782-1.975s1.179-0.785,1.972-0.785C304.651,96.797,305.284,97.021,305.795,97.471
		z"/>
	<path fill="#EC1C24" d="M311.249,102.191v0.813c0,0.706-0.168,1.264-0.504,1.676c-0.263,0.323-0.595,0.484-0.996,0.484
		c-0.193,0-0.375-0.039-0.545-0.115s-0.316-0.184-0.436-0.322c-0.076-0.086-0.158-0.224-0.248-0.414s-0.154-0.365-0.193-0.523
		c-0.06-0.224-0.09-0.486-0.09-0.785v-0.813c0-0.708,0.168-1.268,0.504-1.68c0.263-0.323,0.595-0.484,0.996-0.484
		c0.195,0,0.377,0.039,0.547,0.115s0.314,0.184,0.434,0.322c0.078,0.088,0.162,0.228,0.25,0.418s0.154,0.363,0.195,0.52
		C311.22,101.626,311.249,101.889,311.249,102.191z M310.92,102.234c0-0.31-0.043-0.598-0.131-0.865s-0.186-0.48-0.295-0.639
		c-0.065-0.091-0.15-0.169-0.254-0.234c-0.148-0.091-0.315-0.137-0.5-0.137c-0.367,0-0.655,0.188-0.863,0.563
		s-0.313,0.813-0.313,1.313v0.723c0,0.31,0.043,0.599,0.131,0.867s0.187,0.482,0.299,0.641c0.063,0.088,0.146,0.166,0.25,0.23
		c0.148,0.094,0.316,0.141,0.504,0.141c0.365,0,0.651-0.188,0.859-0.564s0.313-0.814,0.313-1.314V102.234z"/>
</g>
<g>
	<path fill="#231F20" d="M390.333,8.813c0,0.75-0.269,1.391-0.806,1.922s-1.185,0.797-1.942,0.797c-0.766,0-1.416-0.267-1.951-0.8
		s-0.803-1.173-0.803-1.919c0-0.75,0.268-1.392,0.803-1.925s1.186-0.8,1.951-0.8c0.758,0,1.405,0.266,1.942,0.797
		S390.333,8.059,390.333,8.813z M389.835,8.813c0-0.617-0.22-1.143-0.659-1.576s-0.972-0.65-1.597-0.65s-1.157,0.218-1.597,0.653
		s-0.659,0.96-0.659,1.573c0,0.609,0.22,1.133,0.659,1.57s0.972,0.656,1.597,0.656s1.157-0.218,1.597-0.653
		S389.835,9.426,389.835,8.813z"/>
	<path fill="#231F20" d="M392.929,6.264v0.896c0.293-0.355,0.607-0.623,0.943-0.803s0.732-0.27,1.189-0.27
		c0.484,0,0.932,0.113,1.342,0.34s0.728,0.542,0.952,0.946s0.337,0.829,0.337,1.274c0,0.707-0.253,1.312-0.759,1.813
		s-1.128,0.753-1.866,0.753c-0.879,0-1.592-0.357-2.139-1.072v2.965h1.195c0.117,0,0.201,0.022,0.252,0.067s0.076,0.104,0.076,0.179
		c0,0.07-0.025,0.129-0.076,0.176s-0.135,0.07-0.252,0.07h-2.35c-0.117,0-0.201-0.022-0.252-0.067s-0.076-0.104-0.076-0.179
		s0.025-0.134,0.076-0.179s0.135-0.067,0.252-0.067h0.662V6.762h-0.662c-0.117,0-0.201-0.023-0.252-0.07s-0.076-0.107-0.076-0.182
		c0-0.07,0.025-0.129,0.076-0.176s0.135-0.07,0.252-0.07H392.929z M397.194,8.649c0-0.566-0.206-1.052-0.618-1.456
		s-0.915-0.606-1.509-0.606c-0.598,0-1.104,0.203-1.518,0.609s-0.621,0.891-0.621,1.453c0,0.566,0.207,1.053,0.621,1.459
		s0.92,0.609,1.518,0.609c0.59,0,1.092-0.202,1.506-0.606S397.194,9.219,397.194,8.649z"/>
</g>
<g>
	<path fill="#231F20" d="M401.735,24.777v1.016c0,0.882-0.21,1.581-0.63,2.095c-0.329,0.404-0.744,0.605-1.245,0.605
		c-0.241,0-0.468-0.048-0.681-0.144s-0.395-0.23-0.544-0.403c-0.094-0.107-0.198-0.28-0.31-0.518s-0.193-0.456-0.242-0.654
		c-0.075-0.28-0.112-0.607-0.112-0.981v-1.016c0-0.885,0.21-1.585,0.63-2.1c0.329-0.404,0.744-0.605,1.245-0.605
		c0.244,0,0.472,0.048,0.684,0.144s0.392,0.23,0.542,0.403c0.098,0.111,0.202,0.285,0.313,0.522s0.192,0.454,0.244,0.649
		C401.699,24.07,401.735,24.399,401.735,24.777z M401.325,24.831c0-0.387-0.055-0.748-0.164-1.082s-0.232-0.6-0.369-0.798
		c-0.082-0.114-0.187-0.211-0.317-0.293c-0.186-0.114-0.394-0.171-0.625-0.171c-0.459,0-0.819,0.234-1.079,0.703
		s-0.391,1.016-0.391,1.641v0.903c0,0.387,0.055,0.749,0.164,1.084s0.233,0.602,0.374,0.801c0.078,0.111,0.182,0.207,0.313,0.288
		c0.186,0.117,0.396,0.176,0.63,0.176c0.456,0,0.814-0.235,1.074-0.706s0.391-1.018,0.391-1.643V24.831z"/>
	<path fill="#231F20" d="M411.583,24.533v3.403h1.802c0.098,0,0.167,0.019,0.21,0.056s0.063,0.087,0.063,0.149
		c0,0.059-0.021,0.107-0.063,0.146s-0.112,0.059-0.21,0.059h-3.208c-0.098,0-0.167-0.02-0.21-0.059s-0.063-0.088-0.063-0.146
		c0-0.062,0.021-0.111,0.063-0.149s0.112-0.056,0.21-0.056h0.991v-3.403h-0.889c-0.098,0-0.167-0.02-0.21-0.059
		s-0.063-0.089-0.063-0.151c0-0.059,0.021-0.107,0.063-0.146s0.112-0.059,0.21-0.059h0.889v-0.62c0-0.345,0.14-0.645,0.42-0.898
		s0.651-0.381,1.113-0.381c0.387,0,0.801,0.036,1.24,0.107c0.166,0.026,0.266,0.057,0.3,0.093s0.051,0.083,0.051,0.142
		s-0.02,0.106-0.059,0.144s-0.091,0.056-0.156,0.056c-0.026,0-0.07-0.005-0.132-0.015c-0.492-0.075-0.907-0.112-1.245-0.112
		c-0.358,0-0.634,0.088-0.828,0.264s-0.291,0.376-0.291,0.601v0.62h1.919c0.098,0,0.167,0.02,0.21,0.059s0.063,0.089,0.063,0.151
		c0,0.059-0.021,0.107-0.063,0.146s-0.112,0.059-0.21,0.059H411.583z"/>
	<path fill="#231F20" d="M420.148,26.242c0,0.625-0.224,1.159-0.671,1.602c-0.448,0.443-0.988,0.664-1.619,0.664
		c-0.639,0-1.18-0.222-1.626-0.667c-0.446-0.444-0.669-0.978-0.669-1.599c0-0.625,0.223-1.16,0.669-1.604
		c0.446-0.444,0.987-0.667,1.626-0.667c0.631,0,1.171,0.221,1.619,0.664C419.924,25.078,420.148,25.613,420.148,26.242z
		 M419.733,26.242c0-0.514-0.184-0.952-0.549-1.313c-0.367-0.361-0.811-0.542-1.331-0.542s-0.964,0.182-1.331,0.544
		c-0.366,0.363-0.549,0.8-0.549,1.311c0,0.508,0.183,0.944,0.549,1.309c0.367,0.365,0.811,0.547,1.331,0.547
		s0.964-0.182,1.331-0.544C419.549,27.19,419.733,26.753,419.733,26.242z"/>
	<path fill="#231F20" d="M423.366,24.118v1.035c0.533-0.482,0.934-0.792,1.199-0.93c0.265-0.138,0.51-0.208,0.734-0.208
		c0.244,0,0.471,0.082,0.682,0.247c0.209,0.165,0.314,0.289,0.314,0.374c0,0.062-0.021,0.113-0.061,0.154
		c-0.041,0.041-0.092,0.061-0.154,0.061c-0.033,0-0.061-0.006-0.083-0.017s-0.065-0.048-0.127-0.11
		c-0.114-0.114-0.214-0.192-0.298-0.234s-0.168-0.063-0.249-0.063c-0.179,0-0.395,0.072-0.647,0.215
		c-0.252,0.143-0.689,0.493-1.311,1.05v2.246h1.816c0.102,0,0.172,0.019,0.215,0.056s0.063,0.087,0.063,0.149
		c0,0.059-0.021,0.107-0.063,0.146s-0.113,0.059-0.215,0.059h-3.218c-0.098,0-0.167-0.019-0.21-0.056s-0.063-0.085-0.063-0.144
		c0-0.055,0.021-0.102,0.062-0.139c0.04-0.038,0.111-0.056,0.212-0.056h0.991v-3.418h-0.757c-0.098,0-0.167-0.02-0.21-0.059
		s-0.063-0.089-0.063-0.151c0-0.059,0.021-0.107,0.062-0.146c0.04-0.039,0.111-0.059,0.212-0.059H423.366z"/>
	<path fill="#231F20" d="M436.066,25.695v2.051c0,0.098-0.02,0.167-0.059,0.21s-0.089,0.063-0.151,0.063
		c-0.059,0-0.107-0.021-0.146-0.063s-0.059-0.112-0.059-0.21v-2.051h-1.816c-0.098,0-0.168-0.019-0.21-0.056
		s-0.063-0.087-0.063-0.149s0.021-0.111,0.063-0.149s0.112-0.056,0.21-0.056h1.816v-2.041c0-0.098,0.02-0.167,0.059-0.21
		s0.09-0.063,0.151-0.063c0.059,0,0.107,0.021,0.146,0.063s0.059,0.112,0.059,0.21v2.041h1.816c0.098,0,0.167,0.019,0.21,0.056
		s0.063,0.087,0.063,0.149s-0.021,0.111-0.063,0.149s-0.112,0.056-0.21,0.056H436.066z"/>
	<path fill="#231F20" d="M400.055,34.135v5.801h1.406c0.098,0,0.167,0.019,0.21,0.056s0.063,0.087,0.063,0.149
		c0,0.059-0.021,0.107-0.063,0.146s-0.112,0.059-0.21,0.059h-3.223c-0.098,0-0.167-0.02-0.21-0.059s-0.063-0.088-0.063-0.146
		c0-0.062,0.021-0.111,0.063-0.149s0.112-0.056,0.21-0.056h1.406v-5.234l-1.338,0.42c-0.065,0.02-0.112,0.029-0.142,0.029
		c-0.049,0-0.094-0.021-0.134-0.061s-0.061-0.089-0.061-0.144c0-0.049,0.016-0.094,0.049-0.137c0.026-0.026,0.08-0.054,0.161-0.083
		L400.055,34.135z"/>
	<path fill="#231F20" d="M411.583,36.533v3.403h1.802c0.098,0,0.167,0.019,0.21,0.056s0.063,0.087,0.063,0.149
		c0,0.059-0.021,0.107-0.063,0.146s-0.112,0.059-0.21,0.059h-3.208c-0.098,0-0.167-0.02-0.21-0.059s-0.063-0.088-0.063-0.146
		c0-0.062,0.021-0.111,0.063-0.149s0.112-0.056,0.21-0.056h0.991v-3.403h-0.889c-0.098,0-0.167-0.02-0.21-0.059
		s-0.063-0.089-0.063-0.151c0-0.059,0.021-0.107,0.063-0.146s0.112-0.059,0.21-0.059h0.889v-0.62c0-0.345,0.14-0.645,0.42-0.898
		s0.651-0.381,1.113-0.381c0.387,0,0.801,0.036,1.24,0.107c0.166,0.026,0.266,0.057,0.3,0.093s0.051,0.083,0.051,0.142
		s-0.02,0.106-0.059,0.144s-0.091,0.056-0.156,0.056c-0.026,0-0.07-0.005-0.132-0.015c-0.492-0.075-0.907-0.112-1.245-0.112
		c-0.358,0-0.634,0.088-0.828,0.264s-0.291,0.376-0.291,0.601v0.62h1.919c0.098,0,0.167,0.02,0.21,0.059s0.063,0.089,0.063,0.151
		c0,0.059-0.021,0.107-0.063,0.146s-0.112,0.059-0.21,0.059H411.583z"/>
	<path fill="#231F20" d="M420.148,38.242c0,0.625-0.224,1.159-0.671,1.602c-0.448,0.443-0.988,0.664-1.619,0.664
		c-0.639,0-1.18-0.222-1.626-0.667c-0.446-0.444-0.669-0.978-0.669-1.599c0-0.625,0.223-1.16,0.669-1.604
		c0.446-0.444,0.987-0.667,1.626-0.667c0.631,0,1.171,0.221,1.619,0.664C419.924,37.078,420.148,37.613,420.148,38.242z
		 M419.733,38.242c0-0.514-0.184-0.952-0.549-1.313c-0.367-0.361-0.811-0.542-1.331-0.542s-0.964,0.182-1.331,0.544
		c-0.366,0.363-0.549,0.8-0.549,1.311c0,0.508,0.183,0.944,0.549,1.309c0.367,0.365,0.811,0.547,1.331,0.547
		s0.964-0.182,1.331-0.544C419.549,39.19,419.733,38.753,419.733,38.242z"/>
	<path fill="#231F20" d="M423.366,36.118v1.035c0.533-0.482,0.934-0.792,1.199-0.93c0.265-0.138,0.51-0.208,0.734-0.208
		c0.244,0,0.471,0.082,0.682,0.247c0.209,0.165,0.314,0.289,0.314,0.374c0,0.062-0.021,0.113-0.061,0.154
		c-0.041,0.041-0.092,0.061-0.154,0.061c-0.033,0-0.061-0.006-0.083-0.017s-0.065-0.048-0.127-0.11
		c-0.114-0.114-0.214-0.192-0.298-0.234s-0.168-0.063-0.249-0.063c-0.179,0-0.395,0.072-0.647,0.215
		c-0.252,0.143-0.689,0.493-1.311,1.05v2.246h1.816c0.102,0,0.172,0.019,0.215,0.056s0.063,0.087,0.063,0.149
		c0,0.059-0.021,0.107-0.063,0.146s-0.113,0.059-0.215,0.059h-3.218c-0.098,0-0.167-0.019-0.21-0.056s-0.063-0.085-0.063-0.144
		c0-0.055,0.021-0.102,0.062-0.139c0.04-0.038,0.111-0.056,0.212-0.056h0.991v-3.418h-0.757c-0.098,0-0.167-0.02-0.21-0.059
		s-0.063-0.089-0.063-0.151c0-0.059,0.021-0.107,0.062-0.146c0.04-0.039,0.111-0.059,0.212-0.059H423.366z"/>
	<path fill="#231F20" d="M437.951,37.226v0.586h-4.185v-0.586H437.951z"/>
</g>
<g>
	<path fill="#00ADEE" d="M69.448,3.985v3.264c0.594-0.773,1.311-1.16,2.15-1.16c0.719,0,1.334,0.261,1.846,0.782
		s0.768,1.161,0.768,1.919c0,0.766-0.259,1.414-0.776,1.945s-1.13,0.797-1.837,0.797c-0.859,0-1.576-0.387-2.15-1.16v0.967h-1.154
		c-0.117,0-0.201-0.023-0.252-0.07s-0.076-0.105-0.076-0.176c0-0.074,0.025-0.134,0.076-0.179s0.135-0.067,0.252-0.067h0.662V4.483
		h-0.662c-0.117,0-0.201-0.023-0.252-0.07s-0.076-0.107-0.076-0.182c0-0.07,0.025-0.129,0.076-0.176s0.135-0.07,0.252-0.07H69.448z
		 M73.719,8.813c0-0.621-0.213-1.147-0.639-1.579s-0.924-0.647-1.494-0.647s-1.068,0.216-1.494,0.647s-0.639,0.958-0.639,1.579
		s0.213,1.147,0.639,1.579s0.924,0.647,1.494,0.647s1.068-0.216,1.494-0.647S73.719,9.434,73.719,8.813z"/>
	<path fill="#00ADEE" d="M77.977,11.67c0.302,0.135,0.533,0.321,0.691,0.557s0.238,0.481,0.238,0.736c0,0.393-0.16,0.74-0.479,1.041
		s-0.718,0.451-1.197,0.451c-0.281,0-0.573-0.06-0.875-0.18s-0.513-0.242-0.633-0.367c-0.039-0.042-0.059-0.086-0.059-0.133
		c0-0.042,0.015-0.078,0.045-0.109s0.066-0.047,0.107-0.047s0.088,0.02,0.141,0.059c0.404,0.299,0.831,0.449,1.281,0.449
		c0.38,0,0.699-0.119,0.955-0.357s0.385-0.503,0.385-0.795c0-0.195-0.063-0.387-0.189-0.574s-0.308-0.335-0.545-0.443
		s-0.477-0.162-0.719-0.162c-0.078,0-0.134-0.015-0.168-0.045s-0.051-0.07-0.051-0.119c0-0.047,0.016-0.086,0.049-0.117
		s0.082-0.047,0.146-0.047l0.281,0.004c0.294,0,0.537-0.09,0.729-0.27s0.287-0.388,0.287-0.625c0-0.245-0.1-0.461-0.301-0.648
		s-0.462-0.281-0.785-0.281c-0.227,0-0.435,0.039-0.625,0.117s-0.342,0.185-0.457,0.32c-0.042,0.052-0.074,0.084-0.096,0.096
		s-0.047,0.018-0.076,0.018c-0.044,0-0.082-0.015-0.113-0.045s-0.047-0.066-0.047-0.107c0-0.104,0.113-0.236,0.34-0.395
		c0.315-0.221,0.673-0.332,1.074-0.332c0.414,0,0.754,0.125,1.02,0.373s0.398,0.545,0.398,0.889c0,0.219-0.064,0.426-0.191,0.621
		S78.225,11.553,77.977,11.67z"/>
</g>
<g>
	<path fill="#00ADEE" d="M154.487,3.985v3.264c0.594-0.773,1.311-1.16,2.15-1.16c0.719,0,1.334,0.261,1.846,0.782
		s0.768,1.161,0.768,1.919c0,0.766-0.259,1.414-0.776,1.945s-1.13,0.797-1.837,0.797c-0.859,0-1.576-0.387-2.15-1.16v0.967h-1.154
		c-0.117,0-0.201-0.023-0.252-0.07s-0.076-0.105-0.076-0.176c0-0.074,0.025-0.134,0.076-0.179s0.135-0.067,0.252-0.067h0.662V4.483
		h-0.662c-0.117,0-0.201-0.023-0.252-0.07s-0.076-0.107-0.076-0.182c0-0.07,0.025-0.129,0.076-0.176s0.135-0.07,0.252-0.07H154.487z
		 M158.759,8.813c0-0.621-0.213-1.147-0.639-1.579s-0.924-0.647-1.494-0.647s-1.068,0.216-1.494,0.647s-0.639,0.958-0.639,1.579
		s0.213,1.147,0.639,1.579s0.924,0.647,1.494,0.647s1.068-0.216,1.494-0.647S158.759,9.434,158.759,8.813z"/>
	<path fill="#00ADEE" d="M160.931,14.01h2.52v-0.129c0-0.078,0.016-0.134,0.047-0.168s0.072-0.051,0.121-0.051
		c0.047,0,0.086,0.017,0.117,0.051s0.047,0.09,0.047,0.168v0.457h-3.172v-0.484c0.667-0.599,1.315-1.208,1.945-1.828
		c0.294-0.289,0.496-0.501,0.605-0.637s0.184-0.254,0.225-0.357s0.061-0.207,0.061-0.311c0-0.281-0.113-0.53-0.34-0.746
		s-0.5-0.324-0.82-0.324c-0.287,0-0.541,0.082-0.762,0.246s-0.365,0.367-0.43,0.609c-0.016,0.063-0.035,0.103-0.059,0.121
		c-0.031,0.026-0.068,0.039-0.109,0.039c-0.044,0-0.082-0.015-0.111-0.045s-0.045-0.066-0.045-0.107
		c0-0.125,0.068-0.294,0.205-0.508s0.326-0.381,0.566-0.504s0.488-0.184,0.74-0.184c0.409,0,0.76,0.142,1.055,0.426
		s0.441,0.605,0.441,0.965c0,0.151-0.025,0.29-0.074,0.416s-0.133,0.264-0.252,0.414s-0.332,0.375-0.639,0.678
		c-0.771,0.76-1.398,1.35-1.883,1.77V14.01z"/>
</g>
<g>
	<path fill="#00ADEE" d="M239.526,3.985v3.264c0.594-0.773,1.311-1.16,2.15-1.16c0.719,0,1.334,0.261,1.846,0.782
		s0.768,1.161,0.768,1.919c0,0.766-0.259,1.414-0.776,1.945s-1.13,0.797-1.837,0.797c-0.859,0-1.576-0.387-2.15-1.16v0.967h-1.154
		c-0.117,0-0.201-0.023-0.252-0.07s-0.076-0.105-0.076-0.176c0-0.074,0.025-0.134,0.076-0.179s0.135-0.067,0.252-0.067h0.662V4.483
		h-0.662c-0.117,0-0.201-0.023-0.252-0.07s-0.076-0.107-0.076-0.182c0-0.07,0.025-0.129,0.076-0.176s0.135-0.07,0.252-0.07H239.526z
		 M243.798,8.813c0-0.621-0.213-1.147-0.639-1.579s-0.924-0.647-1.494-0.647s-1.068,0.216-1.494,0.647s-0.639,0.958-0.639,1.579
		s0.213,1.147,0.639,1.579s0.924,0.647,1.494,0.647s1.068-0.216,1.494-0.647S243.798,9.434,243.798,8.813z"/>
	<path fill="#00ADEE" d="M247.544,9.37v4.641h1.125c0.078,0,0.134,0.015,0.168,0.045s0.051,0.07,0.051,0.119
		c0,0.047-0.017,0.086-0.051,0.117s-0.09,0.047-0.168,0.047h-2.578c-0.078,0-0.134-0.016-0.168-0.047s-0.051-0.07-0.051-0.117
		c0-0.049,0.017-0.089,0.051-0.119s0.09-0.045,0.168-0.045h1.125V9.823l-1.07,0.336c-0.052,0.016-0.09,0.023-0.113,0.023
		c-0.039,0-0.075-0.016-0.107-0.049s-0.049-0.071-0.049-0.115c0-0.039,0.013-0.076,0.039-0.109c0.021-0.021,0.064-0.043,0.129-0.066
		L247.544,9.37z"/>
</g>
<g>
	<path fill="#00ADEE" d="M324.565,3.985v3.264c0.594-0.773,1.311-1.16,2.15-1.16c0.719,0,1.334,0.261,1.846,0.782
		s0.768,1.161,0.768,1.919c0,0.766-0.259,1.414-0.776,1.945s-1.13,0.797-1.837,0.797c-0.859,0-1.576-0.387-2.15-1.16v0.967h-1.154
		c-0.117,0-0.201-0.023-0.252-0.07s-0.076-0.105-0.076-0.176c0-0.074,0.025-0.134,0.076-0.179s0.135-0.067,0.252-0.067h0.662V4.483
		h-0.662c-0.117,0-0.201-0.023-0.252-0.07s-0.076-0.107-0.076-0.182c0-0.07,0.025-0.129,0.076-0.176s0.135-0.07,0.252-0.07H324.565z
		 M328.837,8.813c0-0.621-0.213-1.147-0.639-1.579s-0.924-0.647-1.494-0.647s-1.068,0.216-1.494,0.647s-0.639,0.958-0.639,1.579
		s0.213,1.147,0.639,1.579s0.924,0.647,1.494,0.647s1.068-0.216,1.494-0.647S328.837,9.434,328.837,8.813z"/>
	<path fill="#00ADEE" d="M333.927,11.483v0.813c0,0.706-0.168,1.264-0.504,1.676c-0.263,0.323-0.595,0.484-0.996,0.484
		c-0.193,0-0.375-0.039-0.545-0.115s-0.316-0.184-0.436-0.322c-0.076-0.086-0.158-0.224-0.248-0.414s-0.154-0.365-0.193-0.523
		c-0.06-0.224-0.09-0.486-0.09-0.785v-0.813c0-0.708,0.168-1.268,0.504-1.68c0.263-0.323,0.595-0.484,0.996-0.484
		c0.195,0,0.377,0.039,0.547,0.115s0.314,0.184,0.434,0.322c0.078,0.088,0.162,0.228,0.25,0.418s0.154,0.363,0.195,0.52
		C333.898,10.918,333.927,11.181,333.927,11.483z M333.599,11.526c0-0.31-0.043-0.598-0.131-0.865s-0.186-0.48-0.295-0.639
		c-0.065-0.091-0.15-0.169-0.254-0.234c-0.148-0.091-0.315-0.137-0.5-0.137c-0.367,0-0.655,0.188-0.863,0.563
		s-0.313,0.813-0.313,1.313v0.723c0,0.31,0.043,0.599,0.131,0.867s0.187,0.482,0.299,0.641c0.063,0.088,0.146,0.166,0.25,0.23
		c0.148,0.094,0.316,0.141,0.504,0.141c0.365,0,0.651-0.188,0.859-0.564s0.313-0.814,0.313-1.314V11.526z"/>
</g>
<g>
	<path fill="#00ADEE" d="M82.051,170.674v1.242c0.641-0.578,1.12-0.95,1.438-1.116s0.612-0.249,0.882-0.249
		c0.293,0,0.565,0.099,0.817,0.296s0.378,0.347,0.378,0.448c0,0.074-0.024,0.136-0.073,0.185s-0.11,0.073-0.185,0.073
		c-0.039,0-0.072-0.007-0.1-0.021s-0.078-0.058-0.152-0.132c-0.137-0.137-0.256-0.23-0.357-0.281s-0.201-0.076-0.299-0.076
		c-0.215,0-0.474,0.086-0.776,0.258s-0.827,0.592-1.573,1.26v2.695h2.18c0.121,0,0.207,0.022,0.258,0.067s0.076,0.104,0.076,0.179
		c0,0.07-0.025,0.129-0.076,0.176s-0.137,0.07-0.258,0.07H80.37c-0.117,0-0.201-0.022-0.252-0.067s-0.076-0.103-0.076-0.173
		c0-0.066,0.024-0.122,0.073-0.167s0.134-0.067,0.255-0.067h1.189v-4.102h-0.908c-0.117,0-0.201-0.023-0.252-0.07
		s-0.076-0.107-0.076-0.182c0-0.07,0.024-0.129,0.073-0.176s0.134-0.07,0.255-0.07H82.051z"/>
	<path fill="#00ADEE" d="M89.315,176.081c0.302,0.135,0.533,0.321,0.691,0.557s0.238,0.481,0.238,0.736
		c0,0.393-0.16,0.74-0.479,1.041s-0.718,0.451-1.197,0.451c-0.281,0-0.573-0.06-0.875-0.18s-0.513-0.242-0.633-0.367
		c-0.039-0.042-0.059-0.086-0.059-0.133c0-0.042,0.015-0.078,0.045-0.109s0.066-0.047,0.107-0.047s0.088,0.02,0.141,0.059
		c0.404,0.299,0.831,0.449,1.281,0.449c0.38,0,0.699-0.119,0.955-0.357s0.385-0.503,0.385-0.795c0-0.195-0.063-0.387-0.189-0.574
		s-0.308-0.335-0.545-0.443s-0.477-0.162-0.719-0.162c-0.078,0-0.134-0.015-0.168-0.045s-0.051-0.07-0.051-0.119
		c0-0.047,0.016-0.086,0.049-0.117s0.082-0.047,0.146-0.047l0.281,0.004c0.294,0,0.537-0.09,0.729-0.27s0.287-0.388,0.287-0.625
		c0-0.245-0.1-0.461-0.301-0.648s-0.462-0.281-0.785-0.281c-0.227,0-0.435,0.039-0.625,0.117s-0.342,0.185-0.457,0.32
		c-0.042,0.052-0.074,0.084-0.096,0.096s-0.047,0.018-0.076,0.018c-0.044,0-0.082-0.015-0.113-0.045s-0.047-0.066-0.047-0.107
		c0-0.104,0.113-0.236,0.34-0.395c0.315-0.221,0.673-0.332,1.074-0.332c0.414,0,0.754,0.125,1.02,0.373s0.398,0.545,0.398,0.889
		c0,0.219-0.064,0.426-0.191,0.621S89.563,175.963,89.315,176.081z"/>
</g>
<g>
	<path fill="#EC1C24" d="M5.895,173.223c0,0.75-0.269,1.391-0.806,1.922s-1.185,0.797-1.942,0.797c-0.766,0-1.416-0.267-1.951-0.8
		s-0.803-1.173-0.803-1.919c0-0.75,0.268-1.392,0.803-1.925s1.186-0.8,1.951-0.8c0.758,0,1.405,0.266,1.942,0.797
		S5.895,172.469,5.895,173.223z M5.396,173.223c0-0.617-0.22-1.143-0.659-1.576s-0.972-0.65-1.597-0.65s-1.157,0.218-1.597,0.653
		s-0.659,0.96-0.659,1.573c0,0.609,0.22,1.133,0.659,1.57s0.972,0.656,1.597,0.656s1.157-0.218,1.597-0.653
		S5.396,173.836,5.396,173.223z"/>
	<path fill="#EC1C24" d="M10.775,175.748H9.943l-2.021-4.576H7.418c-0.117,0-0.201-0.023-0.252-0.07s-0.076-0.107-0.076-0.182
		c0-0.07,0.025-0.129,0.076-0.176s0.135-0.07,0.252-0.07h1.846c0.117,0,0.201,0.023,0.252,0.07s0.076,0.107,0.076,0.182
		c0,0.07-0.025,0.129-0.076,0.176s-0.135,0.07-0.252,0.07H8.449l1.805,4.084h0.217l1.77-4.084h-0.82
		c-0.117,0-0.201-0.023-0.252-0.07s-0.076-0.107-0.076-0.182c0-0.07,0.025-0.129,0.076-0.176s0.135-0.07,0.252-0.07h1.852
		c0.121,0,0.206,0.023,0.255,0.07s0.073,0.107,0.073,0.182c0,0.07-0.024,0.129-0.073,0.176s-0.134,0.07-0.255,0.07h-0.498
		L10.775,175.748z"/>
	<path fill="#EC1C24" d="M20.209,173.328h-5.016c0.086,0.637,0.353,1.149,0.8,1.538s1.001,0.583,1.661,0.583
		c0.367,0,0.752-0.061,1.154-0.182s0.73-0.281,0.984-0.48c0.074-0.059,0.139-0.088,0.193-0.088c0.063,0,0.117,0.024,0.164,0.073
		s0.07,0.106,0.07,0.173s-0.031,0.131-0.094,0.193c-0.188,0.195-0.521,0.378-0.999,0.548s-0.97,0.255-1.474,0.255
		c-0.844,0-1.548-0.276-2.112-0.829s-0.847-1.222-0.847-2.007c0-0.715,0.265-1.328,0.794-1.84s1.185-0.768,1.966-0.768
		c0.805,0,1.467,0.263,1.986,0.788S20.217,172.492,20.209,173.328z M19.711,172.83c-0.098-0.543-0.354-0.984-0.771-1.324
		s-0.911-0.51-1.485-0.51s-1.068,0.168-1.482,0.504s-0.672,0.779-0.773,1.33H19.711z"/>
	<path fill="#EC1C24" d="M24.158,170.674v1.242c0.641-0.578,1.12-0.95,1.438-1.116s0.612-0.249,0.882-0.249
		c0.293,0,0.565,0.099,0.817,0.296s0.378,0.347,0.378,0.448c0,0.074-0.024,0.136-0.073,0.185s-0.11,0.073-0.185,0.073
		c-0.039,0-0.072-0.007-0.1-0.021s-0.078-0.058-0.152-0.132c-0.137-0.137-0.256-0.23-0.357-0.281s-0.201-0.076-0.299-0.076
		c-0.215,0-0.474,0.086-0.776,0.258s-0.827,0.592-1.573,1.26v2.695h2.18c0.121,0,0.207,0.022,0.258,0.067s0.076,0.104,0.076,0.179
		c0,0.07-0.025,0.129-0.076,0.176s-0.137,0.07-0.258,0.07h-3.861c-0.117,0-0.201-0.022-0.252-0.067s-0.076-0.103-0.076-0.173
		c0-0.066,0.024-0.122,0.073-0.167s0.134-0.067,0.255-0.067h1.189v-4.102h-0.908c-0.117,0-0.201-0.023-0.252-0.07
		s-0.076-0.107-0.076-0.182c0-0.07,0.024-0.129,0.073-0.176s0.134-0.07,0.255-0.07H24.158z"/>
	<path fill="#EC1C24" d="M31.623,171.172v4.084h2.162c0.117,0,0.201,0.022,0.252,0.067s0.076,0.104,0.076,0.179
		c0,0.07-0.025,0.129-0.076,0.176s-0.135,0.07-0.252,0.07h-3.85c-0.117,0-0.201-0.023-0.252-0.07s-0.076-0.105-0.076-0.176
		c0-0.074,0.025-0.134,0.076-0.179s0.135-0.067,0.252-0.067h1.189v-4.084h-1.066c-0.117,0-0.201-0.023-0.252-0.07
		s-0.076-0.107-0.076-0.182c0-0.07,0.025-0.129,0.076-0.176s0.135-0.07,0.252-0.07h1.066v-0.744c0-0.414,0.168-0.773,0.504-1.078
		s0.781-0.457,1.336-0.457c0.465,0,0.961,0.043,1.488,0.129c0.199,0.031,0.319,0.068,0.36,0.111s0.062,0.1,0.062,0.17
		s-0.023,0.128-0.07,0.173s-0.109,0.067-0.188,0.067c-0.031,0-0.084-0.006-0.158-0.018c-0.59-0.09-1.088-0.135-1.494-0.135
		c-0.43,0-0.761,0.105-0.993,0.316s-0.349,0.451-0.349,0.721v0.744h2.303c0.117,0,0.201,0.023,0.252,0.07s0.076,0.107,0.076,0.182
		c0,0.07-0.025,0.129-0.076,0.176s-0.135,0.07-0.252,0.07H31.623z"/>
	<path fill="#EC1C24" d="M39.398,168.395v6.861h1.934c0.121,0,0.207,0.022,0.258,0.067s0.076,0.104,0.076,0.179
		c0,0.07-0.025,0.129-0.076,0.176s-0.137,0.07-0.258,0.07h-4.359c-0.117,0-0.201-0.023-0.252-0.07s-0.076-0.105-0.076-0.176
		c0-0.074,0.025-0.134,0.076-0.179s0.135-0.067,0.252-0.067h1.934v-6.363h-1.418c-0.117,0-0.202-0.023-0.255-0.07
		s-0.079-0.107-0.079-0.182c0-0.07,0.025-0.129,0.076-0.176s0.137-0.07,0.258-0.07H39.398z"/>
	<path fill="#EC1C24" d="M49.102,173.223c0,0.75-0.269,1.391-0.806,1.922s-1.185,0.797-1.942,0.797c-0.766,0-1.416-0.267-1.951-0.8
		s-0.803-1.173-0.803-1.919c0-0.75,0.268-1.392,0.803-1.925s1.186-0.8,1.951-0.8c0.758,0,1.405,0.266,1.942,0.797
		S49.102,172.469,49.102,173.223z M48.604,173.223c0-0.617-0.22-1.143-0.659-1.576s-0.972-0.65-1.597-0.65s-1.157,0.218-1.597,0.653
		s-0.659,0.96-0.659,1.573c0,0.609,0.22,1.133,0.659,1.57s0.972,0.656,1.597,0.656s1.157-0.218,1.597-0.653
		S48.604,173.836,48.604,173.223z"/>
	<path fill="#EC1C24" d="M55.248,175.748l-0.609,0.006l-1.084-3.164l-1.078,3.164l-0.609-0.006l-1.02-4.576h-0.24
		c-0.117,0-0.201-0.023-0.252-0.07s-0.076-0.107-0.076-0.182c0-0.07,0.025-0.129,0.076-0.176s0.135-0.07,0.252-0.07h1.354
		c0.117,0,0.201,0.023,0.252,0.07s0.076,0.107,0.076,0.182c0,0.07-0.025,0.129-0.076,0.176s-0.135,0.07-0.252,0.07h-0.627
		l0.873,3.902l1.049-3.117h0.586l1.078,3.117l0.838-3.902h-0.621c-0.117,0-0.202-0.023-0.255-0.07s-0.079-0.107-0.079-0.182
		c0-0.07,0.025-0.129,0.076-0.176s0.137-0.07,0.258-0.07h1.348c0.121,0,0.207,0.023,0.258,0.07s0.076,0.107,0.076,0.182
		c0,0.07-0.025,0.129-0.076,0.176s-0.137,0.07-0.258,0.07H56.25L55.248,175.748z"/>
</g>
<g>
	<path fill="#00ADEE" d="M167.091,170.674v1.242c0.641-0.578,1.12-0.95,1.438-1.116s0.612-0.249,0.882-0.249
		c0.293,0,0.565,0.099,0.817,0.296s0.378,0.347,0.378,0.448c0,0.074-0.024,0.136-0.073,0.185s-0.11,0.073-0.185,0.073
		c-0.039,0-0.072-0.007-0.1-0.021s-0.078-0.058-0.152-0.132c-0.137-0.137-0.256-0.23-0.357-0.281s-0.201-0.076-0.299-0.076
		c-0.215,0-0.474,0.086-0.776,0.258s-0.827,0.592-1.573,1.26v2.695h2.18c0.121,0,0.207,0.022,0.258,0.067s0.076,0.104,0.076,0.179
		c0,0.07-0.025,0.129-0.076,0.176s-0.137,0.07-0.258,0.07h-3.861c-0.117,0-0.201-0.022-0.252-0.067s-0.076-0.103-0.076-0.173
		c0-0.066,0.024-0.122,0.073-0.167s0.134-0.067,0.255-0.067h1.189v-4.102h-0.908c-0.117,0-0.201-0.023-0.252-0.07
		s-0.076-0.107-0.076-0.182c0-0.07,0.024-0.129,0.073-0.176s0.134-0.07,0.255-0.07H167.091z"/>
	<path fill="#00ADEE" d="M172.269,178.42h2.52v-0.129c0-0.078,0.016-0.134,0.047-0.168s0.072-0.051,0.121-0.051
		c0.047,0,0.086,0.017,0.117,0.051s0.047,0.09,0.047,0.168v0.457h-3.172v-0.484c0.667-0.599,1.315-1.208,1.945-1.828
		c0.294-0.289,0.496-0.501,0.605-0.637s0.184-0.254,0.225-0.357s0.061-0.207,0.061-0.311c0-0.281-0.113-0.53-0.34-0.746
		s-0.5-0.324-0.82-0.324c-0.287,0-0.541,0.082-0.762,0.246s-0.365,0.367-0.43,0.609c-0.016,0.063-0.035,0.103-0.059,0.121
		c-0.031,0.026-0.068,0.039-0.109,0.039c-0.044,0-0.082-0.015-0.111-0.045s-0.045-0.066-0.045-0.107
		c0-0.125,0.068-0.294,0.205-0.508s0.326-0.381,0.566-0.504s0.488-0.184,0.74-0.184c0.409,0,0.76,0.142,1.055,0.426
		s0.441,0.605,0.441,0.965c0,0.151-0.025,0.29-0.074,0.416s-0.133,0.264-0.252,0.414s-0.332,0.375-0.639,0.678
		c-0.771,0.76-1.398,1.35-1.883,1.77V178.42z"/>
</g>
<g>
	<path fill="#00ADEE" d="M252.13,170.674v1.242c0.641-0.578,1.12-0.95,1.438-1.116s0.612-0.249,0.882-0.249
		c0.293,0,0.565,0.099,0.817,0.296s0.378,0.347,0.378,0.448c0,0.074-0.024,0.136-0.073,0.185s-0.11,0.073-0.185,0.073
		c-0.039,0-0.072-0.007-0.1-0.021s-0.078-0.058-0.152-0.132c-0.137-0.137-0.256-0.23-0.357-0.281s-0.201-0.076-0.299-0.076
		c-0.215,0-0.474,0.086-0.776,0.258s-0.827,0.592-1.573,1.26v2.695h2.18c0.121,0,0.207,0.022,0.258,0.067s0.076,0.104,0.076,0.179
		c0,0.07-0.025,0.129-0.076,0.176s-0.137,0.07-0.258,0.07h-3.861c-0.117,0-0.201-0.022-0.252-0.067s-0.076-0.103-0.076-0.173
		c0-0.066,0.024-0.122,0.073-0.167s0.134-0.067,0.255-0.067h1.189v-4.102h-0.908c-0.117,0-0.201-0.023-0.252-0.07
		s-0.076-0.107-0.076-0.182c0-0.07,0.024-0.129,0.073-0.176s0.134-0.07,0.255-0.07H252.13z"/>
	<path fill="#00ADEE" d="M258.882,173.78v4.641h1.125c0.078,0,0.134,0.015,0.168,0.045s0.051,0.07,0.051,0.119
		c0,0.047-0.017,0.086-0.051,0.117s-0.09,0.047-0.168,0.047h-2.578c-0.078,0-0.134-0.016-0.168-0.047s-0.051-0.07-0.051-0.117
		c0-0.049,0.017-0.089,0.051-0.119s0.09-0.045,0.168-0.045h1.125v-4.188l-1.07,0.336c-0.052,0.016-0.09,0.023-0.113,0.023
		c-0.039,0-0.075-0.016-0.107-0.049s-0.049-0.071-0.049-0.115c0-0.039,0.013-0.076,0.039-0.109c0.021-0.021,0.064-0.043,0.129-0.066
		L258.882,173.78z"/>
</g>
<g>
	<path fill="#00ADEE" d="M337.169,170.674v1.242c0.641-0.578,1.12-0.95,1.438-1.116s0.612-0.249,0.882-0.249
		c0.293,0,0.565,0.099,0.817,0.296s0.378,0.347,0.378,0.448c0,0.074-0.024,0.136-0.073,0.185s-0.11,0.073-0.185,0.073
		c-0.039,0-0.072-0.007-0.1-0.021s-0.078-0.058-0.152-0.132c-0.137-0.137-0.256-0.23-0.357-0.281s-0.201-0.076-0.299-0.076
		c-0.215,0-0.474,0.086-0.776,0.258s-0.827,0.592-1.573,1.26v2.695h2.18c0.121,0,0.207,0.022,0.258,0.067s0.076,0.104,0.076,0.179
		c0,0.07-0.025,0.129-0.076,0.176s-0.137,0.07-0.258,0.07h-3.861c-0.117,0-0.201-0.022-0.252-0.067s-0.076-0.103-0.076-0.173
		c0-0.066,0.024-0.122,0.073-0.167s0.134-0.067,0.255-0.067h1.189v-4.102h-0.908c-0.117,0-0.201-0.023-0.252-0.07
		s-0.076-0.107-0.076-0.182c0-0.07,0.024-0.129,0.073-0.176s0.134-0.07,0.255-0.07H337.169z"/>
	<path fill="#00ADEE" d="M345.265,175.893v0.813c0,0.706-0.168,1.264-0.504,1.676c-0.263,0.323-0.595,0.484-0.996,0.484
		c-0.193,0-0.375-0.039-0.545-0.115s-0.316-0.184-0.436-0.322c-0.076-0.086-0.158-0.224-0.248-0.414s-0.154-0.365-0.193-0.523
		c-0.06-0.224-0.09-0.486-0.09-0.785v-0.813c0-0.708,0.168-1.268,0.504-1.68c0.263-0.323,0.595-0.484,0.996-0.484
		c0.195,0,0.377,0.039,0.547,0.115s0.314,0.184,0.434,0.322c0.078,0.088,0.162,0.228,0.25,0.418s0.154,0.363,0.195,0.52
		C345.236,175.328,345.265,175.591,345.265,175.893z M344.937,175.936c0-0.31-0.043-0.598-0.131-0.865s-0.186-0.48-0.295-0.639
		c-0.065-0.091-0.15-0.169-0.254-0.234c-0.148-0.091-0.315-0.137-0.5-0.137c-0.367,0-0.655,0.188-0.863,0.563
		s-0.313,0.813-0.313,1.313v0.723c0,0.31,0.043,0.599,0.131,0.867s0.187,0.482,0.299,0.641c0.063,0.088,0.146,0.166,0.25,0.23
		c0.148,0.094,0.316,0.141,0.504,0.141c0.365,0,0.651-0.188,0.859-0.564s0.313-0.814,0.313-1.314V175.936z"/>
</g>
<g>
</g>
<line fill="none" stroke="#00ADEE" stroke-miterlimit="10" x1="187.088" y1="79.37" x2="187.088" y2="17.008"/>
<line fill="none" stroke="#231F20" stroke-miterlimit="10" x1="164.411" y1="79.37" x2="164.411" y2="62.362"/>
<line fill="none" stroke="#00ADEE" stroke-width="0.8661" stroke-miterlimit="10" x1="170.08" y1="42.52" x2="170.08" y2="34.016"/>
<line fill="none" stroke="#00ADEE" stroke-width="0.9487" stroke-miterlimit="10" x1="158.742" y1="42.52" x2="158.742" y2="17.008"/>
<line fill="none" stroke="#00ADEE" stroke-miterlimit="10" x1="272.127" y1="79.369" x2="272.127" y2="17.007"/>
<line fill="none" stroke="#231F20" stroke-miterlimit="10" x1="249.45" y1="79.369" x2="249.45" y2="62.362"/>
<line fill="none" stroke="#00ADEE" stroke-width="0.8661" stroke-miterlimit="10" x1="255.12" y1="42.52" x2="255.12" y2="34.015"/>
<line fill="none" stroke="#00ADEE" stroke-width="0.9487" stroke-miterlimit="10" x1="243.781" y1="42.52" x2="243.781" y2="17.007"/>
<line fill="none" stroke="#00ADEE" stroke-miterlimit="10" x1="357.167" y1="79.37" x2="357.167" y2="17.008"/>
<line fill="none" stroke="#231F20" stroke-miterlimit="10" x1="334.49" y1="79.37" x2="334.49" y2="62.362"/>
<line fill="none" stroke="#00ADEE" stroke-width="0.8661" stroke-miterlimit="10" x1="340.159" y1="42.52" x2="340.159" y2="34.016"/>
<line fill="none" stroke="#00ADEE" stroke-width="0.9487" stroke-miterlimit="10" x1="328.821" y1="42.52" x2="328.821" y2="17.008"/>
<g>
	<path fill="none" stroke="#2D2D2D" stroke-width="1.2966" d="M323.15,37.606c0.551,0.657,1.158,1.265,1.815,1.816
		c6.194,5.19,15.423,4.377,20.614-1.816"/>
	<path fill="#FFFFFF" stroke="#2D2D2D" stroke-width="1.2966" stroke-linecap="round" stroke-linejoin="round" d="M323.15,40.889
		v8.907c0.588,5.761,4.743,10.977,11.214,14.08c6.472-3.103,10.626-8.319,11.215-14.08v-8.907v0.134
		c-5.19,6.192-14.419,7.007-20.614,1.816c-0.657-0.551-1.265-1.159-1.815-1.816"/>
</g>
<g>
	<path fill="none" stroke="#2D2D2D" stroke-width="1.2966" d="M238.11,37.606c0.551,0.657,1.158,1.265,1.815,1.816
		c6.194,5.19,15.423,4.377,20.614-1.816"/>
	<path fill="#FFFFFF" stroke="#2D2D2D" stroke-width="1.2966" stroke-linecap="round" stroke-linejoin="round" d="M238.11,40.889
		v8.907c0.588,5.761,4.743,10.977,11.214,14.08c6.472-3.103,10.626-8.319,11.215-14.08v-8.907v0.134
		c-5.19,6.192-14.419,7.007-20.614,1.816c-0.657-0.551-1.265-1.159-1.815-1.816"/>
</g>
<g>
	<path fill="none" stroke="#2D2D2D" stroke-width="1.2966" d="M153.319,37.606c0.551,0.657,1.158,1.265,1.815,1.816
		c6.194,5.19,15.423,4.377,20.614-1.816"/>
	<path fill="#FFFFFF" stroke="#2D2D2D" stroke-width="1.2966" stroke-linecap="round" stroke-linejoin="round" d="M153.319,40.889
		v8.907c0.588,5.761,4.743,10.977,11.214,14.08c6.472-3.103,10.626-8.319,11.215-14.08v-8.907v0.134
		c-5.19,6.192-14.419,7.007-20.614,1.816c-0.657-0.551-1.265-1.159-1.815-1.816"/>
</g>
<g>
	<path fill="none" stroke="#2D2D2D" stroke-width="1.2966" d="M17.008,121.133c0.551,0.657,1.158,1.265,1.815,1.816
		c6.194,5.19,15.423,4.377,20.614-1.816"/>
	<path fill="#FFFFFF" stroke="#2D2D2D" stroke-width="1.2966" stroke-linecap="round" stroke-linejoin="round" d="M17.008,124.415
		v8.907c0.588,5.761,4.743,10.977,11.214,14.08c6.472-3.103,10.626-8.319,11.215-14.08v-8.907v0.134
		c-5.19,6.192-14.419,7.007-20.614,1.816c-0.657-0.551-1.265-1.159-1.815-1.816"/>
</g>
<g>
	<path fill="none" stroke="#2D2D2D" stroke-width="1.2966" d="M68.279,36.85c0.551,0.657,1.158,1.265,1.815,1.816
		c6.194,5.19,15.423,4.377,20.614-1.816"/>
	<path fill="#FFFFFF" stroke="#2D2D2D" stroke-width="1.2966" stroke-linecap="round" stroke-linejoin="round" d="M68.279,40.132
		v8.907c0.588,5.761,4.743,10.977,11.214,14.08c6.472-3.103,10.626-8.319,11.215-14.08v-8.907v0.134
		c-5.19,6.192-14.419,7.007-20.614,1.816c-0.657-0.551-1.265-1.159-1.815-1.816"/>
</g>
</svg>
