<?xml version="1.0" encoding="utf-8"?>
<!-- Generator: Adobe Illustrator 15.0.0, SVG Export Plug-In . SVG Version: 6.00 Build 0)  -->
<!DOCTYPE svg PUBLIC "-//W3C//DTD SVG 1.1//EN" "http://www.w3.org/Graphics/SVG/1.1/DTD/svg11.dtd">
<svg version="1.1" id="Layer_1" xmlns="http://www.w3.org/2000/svg" xmlns:xlink="http://www.w3.org/1999/xlink" x="0px" y="0px"
	 width="385.512px" height="221.103px" viewBox="0 0 385.512 221.103" enable-background="new 0 0 385.512 221.103"
	 xml:space="preserve">
<g>
	<g>
		<line fill="none" stroke="#00ADEE" stroke-miterlimit="10" x1="45.417" y1="16.371" x2="45.306" y2="41.892"/>
		<g>
			<polygon fill="#00ADEE" points="42.151,35.967 43.093,35.629 45.307,41.794 47.573,35.648 48.511,35.994 45.294,44.717 			"/>
		</g>
	</g>
</g>
<g>
	<g>
		<line fill="none" stroke="#00ADEE" stroke-miterlimit="10" x1="68.094" y1="16.469" x2="67.983" y2="41.99"/>
		<g>
			<polygon fill="#00ADEE" points="64.828,36.065 65.77,35.727 67.984,41.892 70.25,35.747 71.188,36.092 67.971,44.815 			"/>
		</g>
	</g>
</g>
<g>
	<g>
		<line fill="none" stroke="#00ADEE" stroke-miterlimit="10" x1="136.125" y1="16.763" x2="136.015" y2="42.283"/>
		<g>
			<polygon fill="#00ADEE" points="132.859,36.358 133.801,36.021 136.015,42.186 138.282,36.04 139.22,36.386 136.002,45.109 			
				"/>
		</g>
	</g>
</g>
<g>
	<g>
		<line fill="none" stroke="#00ADEE" stroke-miterlimit="10" x1="158.802" y1="16.861" x2="158.691" y2="42.381"/>
		<g>
			<polygon fill="#00ADEE" points="155.536,36.457 156.478,36.119 158.692,42.284 160.958,36.138 161.896,36.484 158.679,45.207 			
				"/>
		</g>
	</g>
</g>
<g>
	<g>
		<line fill="none" stroke="#00ADEE" stroke-miterlimit="10" x1="227.278" y1="17.157" x2="227.168" y2="42.677"/>
		<g>
			<polygon fill="#00ADEE" points="224.013,36.752 224.955,36.415 227.168,42.58 229.435,36.434 230.373,36.78 227.156,45.503 			
				"/>
		</g>
	</g>
</g>
<g>
	<g>
		<line fill="none" stroke="#00ADEE" stroke-miterlimit="10" x1="249.955" y1="17.255" x2="249.845" y2="42.775"/>
		<g>
			<polygon fill="#00ADEE" points="246.69,36.85 247.632,36.512 249.846,42.677 252.112,36.532 253.05,36.877 249.833,45.601 			"/>
		</g>
	</g>
</g>
<g>
	<g>
		<line fill="none" stroke="#00ADEE" stroke-miterlimit="10" x1="317.541" y1="17.547" x2="317.431" y2="43.067"/>
		<g>
			<polygon fill="#00ADEE" points="314.275,37.142 315.217,36.804 317.431,42.969 319.698,36.824 320.636,37.169 317.418,45.893 			
				"/>
		</g>
	</g>
</g>
<g>
	<g>
		<line fill="none" stroke="#00ADEE" stroke-miterlimit="10" x1="340.218" y1="17.645" x2="340.108" y2="43.165"/>
		<g>
			<polygon fill="#00ADEE" points="336.953,37.24 337.895,36.902 340.108,43.067 342.375,36.922 343.313,37.268 340.096,45.991 			
				"/>
		</g>
	</g>
</g>
<g>
	<g>
		<line fill="none" stroke="#00A551" stroke-miterlimit="10" x1="73.701" y1="135.249" x2="73.701" y2="102.047"/>
		<g>
			<polygon fill="#00A551" points="76.768,132.764 76.219,132.252 73.701,134.961 71.184,132.252 70.634,132.764 73.701,136.063 			
				"/>
		</g>
	</g>
</g>
<g>
	<g>
		<line fill="none" stroke="#00A551" stroke-miterlimit="10" x1="164.409" y1="135.25" x2="164.409" y2="102.048"/>
		<g>
			<polygon fill="#00A551" points="167.477,132.765 166.927,132.253 164.41,134.962 161.892,132.253 161.343,132.765 
				164.41,136.063 			"/>
		</g>
	</g>
</g>
<g>
	<g>
		<line fill="none" stroke="#00A551" stroke-miterlimit="10" x1="255.118" y1="135.25" x2="255.118" y2="102.048"/>
		<g>
			<polygon fill="#00A551" points="258.186,132.765 257.636,132.253 255.119,134.962 252.601,132.253 252.052,132.765 
				255.119,136.063 			"/>
		</g>
	</g>
</g>
<g>
	<g>
		<line fill="none" stroke="#00A551" stroke-miterlimit="10" x1="345.827" y1="135.249" x2="345.827" y2="102.047"/>
		<g>
			<polygon fill="#00A551" points="348.895,132.764 348.345,132.252 345.828,134.961 343.31,132.252 342.761,132.764 
				345.828,136.063 			"/>
		</g>
	</g>
</g>
<line fill="none" x1="408.188" y1="130.394" x2="408.188" y2="102.047"/>
<g>
	<path fill="#00ADEE" d="M72.717,11.338v-0.709c-0.715,0.602-1.479,0.902-2.291,0.902c-0.59,0-1.051-0.149-1.383-0.448
		s-0.498-0.665-0.498-1.099c0-0.477,0.219-0.893,0.656-1.248s1.076-0.533,1.916-0.533c0.227,0,0.473,0.015,0.738,0.044
		s0.553,0.075,0.861,0.138V7.588c0-0.27-0.125-0.504-0.375-0.703s-0.625-0.299-1.125-0.299c-0.383,0-0.92,0.111-1.611,0.334
		c-0.125,0.039-0.205,0.059-0.24,0.059c-0.063,0-0.116-0.023-0.161-0.07s-0.067-0.105-0.067-0.176c0-0.066,0.02-0.119,0.059-0.158
		c0.055-0.059,0.275-0.139,0.662-0.24c0.609-0.164,1.07-0.246,1.383-0.246c0.621,0,1.105,0.153,1.453,0.46s0.521,0.653,0.521,1.04
		v3.258h0.656c0.121,0,0.207,0.022,0.258,0.067s0.076,0.104,0.076,0.179c0,0.07-0.025,0.129-0.076,0.176s-0.137,0.07-0.258,0.07
		H72.717z M72.717,8.889c-0.23-0.066-0.475-0.115-0.732-0.146s-0.529-0.047-0.814-0.047c-0.715,0-1.273,0.154-1.676,0.463
		c-0.305,0.23-0.457,0.506-0.457,0.826c0,0.297,0.116,0.547,0.349,0.75s0.571,0.305,1.017,0.305c0.426,0,0.821-0.085,1.187-0.255
		s0.741-0.44,1.128-0.812V8.889z"/>
	<path fill="#00ADEE" d="M77.977,11.67c0.302,0.135,0.533,0.321,0.691,0.557s0.238,0.481,0.238,0.736c0,0.393-0.16,0.74-0.479,1.041
		s-0.718,0.451-1.197,0.451c-0.281,0-0.573-0.06-0.875-0.18s-0.513-0.242-0.633-0.367c-0.039-0.042-0.059-0.086-0.059-0.133
		c0-0.042,0.015-0.078,0.045-0.109s0.066-0.047,0.107-0.047s0.088,0.02,0.141,0.059c0.404,0.299,0.831,0.449,1.281,0.449
		c0.38,0,0.699-0.119,0.955-0.357s0.385-0.503,0.385-0.795c0-0.195-0.063-0.387-0.189-0.574s-0.308-0.335-0.545-0.443
		s-0.477-0.162-0.719-0.162c-0.078,0-0.134-0.015-0.168-0.045s-0.051-0.07-0.051-0.119c0-0.047,0.016-0.086,0.049-0.117
		s0.082-0.047,0.146-0.047l0.281,0.004c0.294,0,0.537-0.09,0.729-0.27s0.287-0.388,0.287-0.625c0-0.245-0.1-0.461-0.301-0.648
		s-0.462-0.281-0.785-0.281c-0.227,0-0.435,0.039-0.625,0.117s-0.342,0.185-0.457,0.32c-0.042,0.052-0.074,0.084-0.096,0.096
		s-0.047,0.018-0.076,0.018c-0.044,0-0.082-0.015-0.113-0.045s-0.047-0.066-0.047-0.107c0-0.104,0.113-0.236,0.34-0.395
		c0.315-0.221,0.673-0.332,1.074-0.332c0.414,0,0.754,0.125,1.02,0.373s0.398,0.545,0.398,0.889c0,0.219-0.064,0.426-0.191,0.621
		S78.224,11.553,77.977,11.67z"/>
</g>
<g>
	<path fill="#00ADEE" d="M162.98,11.338v-0.709c-0.715,0.602-1.479,0.902-2.291,0.902c-0.59,0-1.051-0.149-1.383-0.448
		s-0.498-0.665-0.498-1.099c0-0.477,0.219-0.893,0.656-1.248s1.076-0.533,1.916-0.533c0.227,0,0.473,0.015,0.738,0.044
		s0.553,0.075,0.861,0.138V7.588c0-0.27-0.125-0.504-0.375-0.703s-0.625-0.299-1.125-0.299c-0.383,0-0.92,0.111-1.611,0.334
		c-0.125,0.039-0.205,0.059-0.24,0.059c-0.063,0-0.116-0.023-0.161-0.07S159.4,6.803,159.4,6.733c0-0.066,0.02-0.119,0.059-0.158
		c0.055-0.059,0.275-0.139,0.662-0.24c0.609-0.164,1.07-0.246,1.383-0.246c0.621,0,1.105,0.153,1.453,0.46s0.521,0.653,0.521,1.04
		v3.258h0.656c0.121,0,0.207,0.022,0.258,0.067s0.076,0.104,0.076,0.179c0,0.07-0.025,0.129-0.076,0.176s-0.137,0.07-0.258,0.07
		H162.98z M162.98,8.889c-0.23-0.066-0.475-0.115-0.732-0.146s-0.529-0.047-0.814-0.047c-0.715,0-1.273,0.154-1.676,0.463
		c-0.305,0.23-0.457,0.506-0.457,0.826c0,0.297,0.116,0.547,0.349,0.75s0.571,0.305,1.017,0.305c0.426,0,0.821-0.085,1.187-0.255
		s0.741-0.44,1.128-0.812V8.889z"/>
	<path fill="#00ADEE" d="M166.154,14.01h2.52v-0.129c0-0.078,0.016-0.134,0.047-0.168s0.072-0.051,0.121-0.051
		c0.047,0,0.086,0.017,0.117,0.051s0.047,0.09,0.047,0.168v0.457h-3.172v-0.484c0.667-0.599,1.315-1.208,1.945-1.828
		c0.294-0.289,0.496-0.501,0.605-0.637s0.184-0.254,0.225-0.357s0.061-0.207,0.061-0.311c0-0.281-0.113-0.53-0.34-0.746
		s-0.5-0.324-0.82-0.324c-0.287,0-0.541,0.082-0.762,0.246s-0.365,0.367-0.43,0.609c-0.016,0.063-0.035,0.103-0.059,0.121
		c-0.031,0.026-0.068,0.039-0.109,0.039c-0.044,0-0.082-0.015-0.111-0.045s-0.045-0.066-0.045-0.107
		c0-0.125,0.068-0.294,0.205-0.508s0.326-0.381,0.566-0.504s0.488-0.184,0.74-0.184c0.409,0,0.76,0.142,1.055,0.426
		s0.441,0.605,0.441,0.965c0,0.151-0.025,0.29-0.074,0.416s-0.133,0.264-0.252,0.414s-0.332,0.375-0.639,0.678
		c-0.771,0.76-1.398,1.35-1.883,1.77V14.01z"/>
</g>
<g>
	<path fill="#00ADEE" d="M254.134,11.338v-0.709c-0.715,0.602-1.479,0.902-2.291,0.902c-0.59,0-1.051-0.149-1.383-0.448
		s-0.498-0.665-0.498-1.099c0-0.477,0.219-0.893,0.656-1.248s1.076-0.533,1.916-0.533c0.227,0,0.473,0.015,0.738,0.044
		s0.553,0.075,0.861,0.138V7.588c0-0.27-0.125-0.504-0.375-0.703s-0.625-0.299-1.125-0.299c-0.383,0-0.92,0.111-1.611,0.334
		c-0.125,0.039-0.205,0.059-0.24,0.059c-0.063,0-0.116-0.023-0.161-0.07s-0.067-0.105-0.067-0.176c0-0.066,0.02-0.119,0.059-0.158
		c0.055-0.059,0.275-0.139,0.662-0.24c0.609-0.164,1.07-0.246,1.383-0.246c0.621,0,1.105,0.153,1.453,0.46s0.521,0.653,0.521,1.04
		v3.258h0.656c0.121,0,0.207,0.022,0.258,0.067s0.076,0.104,0.076,0.179c0,0.07-0.025,0.129-0.076,0.176s-0.137,0.07-0.258,0.07
		H254.134z M254.134,8.889c-0.23-0.066-0.475-0.115-0.732-0.146s-0.529-0.047-0.814-0.047c-0.715,0-1.273,0.154-1.676,0.463
		c-0.305,0.23-0.457,0.506-0.457,0.826c0,0.297,0.116,0.547,0.349,0.75s0.571,0.305,1.017,0.305c0.426,0,0.821-0.085,1.187-0.255
		s0.741-0.44,1.128-0.812V8.889z"/>
	<path fill="#00ADEE" d="M258.882,9.37v4.641h1.125c0.078,0,0.134,0.015,0.168,0.045s0.051,0.07,0.051,0.119
		c0,0.047-0.017,0.086-0.051,0.117s-0.09,0.047-0.168,0.047h-2.578c-0.078,0-0.134-0.016-0.168-0.047s-0.051-0.07-0.051-0.117
		c0-0.049,0.017-0.089,0.051-0.119s0.09-0.045,0.168-0.045h1.125V9.823l-1.07,0.336c-0.052,0.016-0.09,0.023-0.113,0.023
		c-0.039,0-0.075-0.016-0.107-0.049s-0.049-0.071-0.049-0.115c0-0.039,0.013-0.076,0.039-0.109c0.021-0.021,0.064-0.043,0.129-0.066
		L258.882,9.37z"/>
</g>
<g>
	<path fill="#00ADEE" d="M344.842,11.338v-0.709c-0.715,0.602-1.479,0.902-2.291,0.902c-0.59,0-1.051-0.149-1.383-0.448
		s-0.498-0.665-0.498-1.099c0-0.477,0.219-0.893,0.656-1.248s1.076-0.533,1.916-0.533c0.227,0,0.473,0.015,0.738,0.044
		s0.553,0.075,0.861,0.138V7.588c0-0.27-0.125-0.504-0.375-0.703s-0.625-0.299-1.125-0.299c-0.383,0-0.92,0.111-1.611,0.334
		c-0.125,0.039-0.205,0.059-0.24,0.059c-0.063,0-0.116-0.023-0.161-0.07s-0.067-0.105-0.067-0.176c0-0.066,0.02-0.119,0.059-0.158
		c0.055-0.059,0.275-0.139,0.662-0.24c0.609-0.164,1.07-0.246,1.383-0.246c0.621,0,1.105,0.153,1.453,0.46s0.521,0.653,0.521,1.04
		v3.258h0.656c0.121,0,0.207,0.022,0.258,0.067s0.076,0.104,0.076,0.179c0,0.07-0.025,0.129-0.076,0.176s-0.137,0.07-0.258,0.07
		H344.842z M344.842,8.889c-0.23-0.066-0.475-0.115-0.732-0.146s-0.529-0.047-0.814-0.047c-0.715,0-1.273,0.154-1.676,0.463
		c-0.305,0.23-0.457,0.506-0.457,0.826c0,0.297,0.116,0.547,0.349,0.75s0.571,0.305,1.017,0.305c0.426,0,0.821-0.085,1.187-0.255
		s0.741-0.44,1.128-0.812V8.889z"/>
	<path fill="#00ADEE" d="M350.934,11.483v0.813c0,0.706-0.168,1.264-0.504,1.676c-0.263,0.323-0.595,0.484-0.996,0.484
		c-0.193,0-0.375-0.039-0.545-0.115s-0.316-0.184-0.436-0.322c-0.076-0.086-0.158-0.224-0.248-0.414s-0.154-0.365-0.193-0.523
		c-0.06-0.224-0.09-0.486-0.09-0.785v-0.813c0-0.708,0.168-1.268,0.504-1.68c0.263-0.323,0.595-0.484,0.996-0.484
		c0.195,0,0.377,0.039,0.547,0.115s0.314,0.184,0.434,0.322c0.078,0.088,0.162,0.228,0.25,0.418s0.154,0.363,0.195,0.52
		C350.905,10.918,350.934,11.181,350.934,11.483z M350.606,11.526c0-0.31-0.043-0.598-0.131-0.865s-0.186-0.48-0.295-0.639
		c-0.065-0.091-0.15-0.169-0.254-0.234c-0.148-0.091-0.315-0.137-0.5-0.137c-0.367,0-0.655,0.188-0.863,0.563
		s-0.313,0.813-0.313,1.313v0.723c0,0.31,0.043,0.599,0.131,0.867s0.187,0.482,0.299,0.641c0.063,0.088,0.146,0.166,0.25,0.23
		c0.148,0.094,0.316,0.141,0.504,0.141c0.365,0,0.651-0.188,0.859-0.564s0.313-0.814,0.313-1.314V11.526z"/>
</g>
<g>
	<path fill="#00ADEE" d="M41.1,3.985v3.264c0.594-0.773,1.311-1.16,2.15-1.16c0.719,0,1.334,0.261,1.846,0.782
		s0.768,1.161,0.768,1.919c0,0.766-0.259,1.414-0.776,1.945s-1.13,0.797-1.837,0.797c-0.859,0-1.576-0.387-2.15-1.16v0.967h-1.154
		c-0.117,0-0.201-0.023-0.252-0.07s-0.076-0.105-0.076-0.176c0-0.074,0.025-0.134,0.076-0.179s0.135-0.067,0.252-0.067h0.662V4.483
		h-0.662c-0.117,0-0.201-0.023-0.252-0.07s-0.076-0.107-0.076-0.182c0-0.07,0.025-0.129,0.076-0.176s0.135-0.07,0.252-0.07H41.1z
		 M45.372,8.813c0-0.621-0.213-1.147-0.639-1.579s-0.924-0.647-1.494-0.647s-1.068,0.216-1.494,0.647s-0.639,0.958-0.639,1.579
		s0.213,1.147,0.639,1.579s0.924,0.647,1.494,0.647s1.068-0.216,1.494-0.647S45.372,9.434,45.372,8.813z"/>
	<path fill="#00ADEE" d="M49.629,11.67c0.302,0.135,0.533,0.321,0.691,0.557s0.238,0.481,0.238,0.736c0,0.393-0.16,0.74-0.479,1.041
		s-0.718,0.451-1.197,0.451c-0.281,0-0.573-0.06-0.875-0.18s-0.513-0.242-0.633-0.367c-0.039-0.042-0.059-0.086-0.059-0.133
		c0-0.042,0.015-0.078,0.045-0.109s0.066-0.047,0.107-0.047s0.088,0.02,0.141,0.059c0.404,0.299,0.831,0.449,1.281,0.449
		c0.38,0,0.699-0.119,0.955-0.357s0.385-0.503,0.385-0.795c0-0.195-0.063-0.387-0.189-0.574s-0.308-0.335-0.545-0.443
		s-0.477-0.162-0.719-0.162c-0.078,0-0.134-0.015-0.168-0.045s-0.051-0.07-0.051-0.119c0-0.047,0.016-0.086,0.049-0.117
		s0.082-0.047,0.146-0.047l0.281,0.004c0.294,0,0.537-0.09,0.729-0.27s0.287-0.388,0.287-0.625c0-0.245-0.1-0.461-0.301-0.648
		s-0.462-0.281-0.785-0.281c-0.227,0-0.435,0.039-0.625,0.117s-0.342,0.185-0.457,0.32c-0.042,0.052-0.074,0.084-0.096,0.096
		s-0.047,0.018-0.076,0.018c-0.044,0-0.082-0.015-0.113-0.045s-0.047-0.066-0.047-0.107c0-0.104,0.113-0.236,0.34-0.395
		c0.315-0.221,0.673-0.332,1.074-0.332c0.414,0,0.754,0.125,1.02,0.373s0.398,0.545,0.398,0.889c0,0.219-0.064,0.426-0.191,0.621
		S49.877,11.553,49.629,11.67z"/>
</g>
<g>
	<path fill="#00ADEE" d="M131.364,3.985v3.264c0.594-0.773,1.311-1.16,2.15-1.16c0.719,0,1.334,0.261,1.846,0.782
		s0.768,1.161,0.768,1.919c0,0.766-0.259,1.414-0.776,1.945s-1.13,0.797-1.837,0.797c-0.859,0-1.576-0.387-2.15-1.16v0.967h-1.154
		c-0.117,0-0.201-0.023-0.252-0.07s-0.076-0.105-0.076-0.176c0-0.074,0.025-0.134,0.076-0.179s0.135-0.067,0.252-0.067h0.662V4.483
		h-0.662c-0.117,0-0.201-0.023-0.252-0.07s-0.076-0.107-0.076-0.182c0-0.07,0.025-0.129,0.076-0.176s0.135-0.07,0.252-0.07H131.364z
		 M135.635,8.813c0-0.621-0.213-1.147-0.639-1.579s-0.924-0.647-1.494-0.647s-1.068,0.216-1.494,0.647s-0.639,0.958-0.639,1.579
		s0.213,1.147,0.639,1.579s0.924,0.647,1.494,0.647s1.068-0.216,1.494-0.647S135.635,9.434,135.635,8.813z"/>
	<path fill="#00ADEE" d="M137.807,14.01h2.52v-0.129c0-0.078,0.016-0.134,0.047-0.168s0.072-0.051,0.121-0.051
		c0.047,0,0.086,0.017,0.117,0.051s0.047,0.09,0.047,0.168v0.457h-3.172v-0.484c0.667-0.599,1.315-1.208,1.945-1.828
		c0.294-0.289,0.496-0.501,0.605-0.637s0.184-0.254,0.225-0.357s0.061-0.207,0.061-0.311c0-0.281-0.113-0.53-0.34-0.746
		s-0.5-0.324-0.82-0.324c-0.287,0-0.541,0.082-0.762,0.246s-0.365,0.367-0.43,0.609c-0.016,0.063-0.035,0.103-0.059,0.121
		c-0.031,0.026-0.068,0.039-0.109,0.039c-0.044,0-0.082-0.015-0.111-0.045s-0.045-0.066-0.045-0.107
		c0-0.125,0.068-0.294,0.205-0.508s0.326-0.381,0.566-0.504s0.488-0.184,0.74-0.184c0.409,0,0.76,0.142,1.055,0.426
		s0.441,0.605,0.441,0.965c0,0.151-0.025,0.29-0.074,0.416s-0.133,0.264-0.252,0.414s-0.332,0.375-0.639,0.678
		c-0.771,0.76-1.398,1.35-1.883,1.77V14.01z"/>
</g>
<g>
	<path fill="#00ADEE" d="M222.518,3.985v3.264c0.594-0.773,1.311-1.16,2.15-1.16c0.719,0,1.334,0.261,1.846,0.782
		s0.768,1.161,0.768,1.919c0,0.766-0.259,1.414-0.776,1.945s-1.13,0.797-1.837,0.797c-0.859,0-1.576-0.387-2.15-1.16v0.967h-1.154
		c-0.117,0-0.201-0.023-0.252-0.07s-0.076-0.105-0.076-0.176c0-0.074,0.025-0.134,0.076-0.179s0.135-0.067,0.252-0.067h0.662V4.483
		h-0.662c-0.117,0-0.201-0.023-0.252-0.07s-0.076-0.107-0.076-0.182c0-0.07,0.025-0.129,0.076-0.176s0.135-0.07,0.252-0.07H222.518z
		 M226.789,8.813c0-0.621-0.213-1.147-0.639-1.579s-0.924-0.647-1.494-0.647s-1.068,0.216-1.494,0.647s-0.639,0.958-0.639,1.579
		s0.213,1.147,0.639,1.579s0.924,0.647,1.494,0.647s1.068-0.216,1.494-0.647S226.789,9.434,226.789,8.813z"/>
	<path fill="#00ADEE" d="M230.535,9.37v4.641h1.125c0.078,0,0.134,0.015,0.168,0.045s0.051,0.07,0.051,0.119
		c0,0.047-0.017,0.086-0.051,0.117s-0.09,0.047-0.168,0.047h-2.578c-0.078,0-0.134-0.016-0.168-0.047s-0.051-0.07-0.051-0.117
		c0-0.049,0.017-0.089,0.051-0.119s0.09-0.045,0.168-0.045h1.125V9.823l-1.07,0.336c-0.052,0.016-0.09,0.023-0.113,0.023
		c-0.039,0-0.075-0.016-0.107-0.049s-0.049-0.071-0.049-0.115c0-0.039,0.013-0.076,0.039-0.109c0.021-0.021,0.064-0.043,0.129-0.066
		L230.535,9.37z"/>
</g>
<g>
	<path fill="#00ADEE" d="M313.226,3.985v3.264c0.594-0.773,1.311-1.16,2.15-1.16c0.719,0,1.334,0.261,1.846,0.782
		s0.768,1.161,0.768,1.919c0,0.766-0.259,1.414-0.776,1.945s-1.13,0.797-1.837,0.797c-0.859,0-1.576-0.387-2.15-1.16v0.967h-1.154
		c-0.117,0-0.201-0.023-0.252-0.07s-0.076-0.105-0.076-0.176c0-0.074,0.025-0.134,0.076-0.179s0.135-0.067,0.252-0.067h0.662V4.483
		h-0.662c-0.117,0-0.201-0.023-0.252-0.07s-0.076-0.107-0.076-0.182c0-0.07,0.025-0.129,0.076-0.176s0.135-0.07,0.252-0.07H313.226z
		 M317.498,8.813c0-0.621-0.213-1.147-0.639-1.579s-0.924-0.647-1.494-0.647s-1.068,0.216-1.494,0.647s-0.639,0.958-0.639,1.579
		s0.213,1.147,0.639,1.579s0.924,0.647,1.494,0.647s1.068-0.216,1.494-0.647S317.498,9.434,317.498,8.813z"/>
	<path fill="#00ADEE" d="M322.587,11.483v0.813c0,0.706-0.168,1.264-0.504,1.676c-0.263,0.323-0.595,0.484-0.996,0.484
		c-0.193,0-0.375-0.039-0.545-0.115s-0.316-0.184-0.436-0.322c-0.076-0.086-0.158-0.224-0.248-0.414s-0.154-0.365-0.193-0.523
		c-0.06-0.224-0.09-0.486-0.09-0.785v-0.813c0-0.708,0.168-1.268,0.504-1.68c0.263-0.323,0.595-0.484,0.996-0.484
		c0.195,0,0.377,0.039,0.547,0.115s0.314,0.184,0.434,0.322c0.078,0.088,0.162,0.228,0.25,0.418s0.154,0.363,0.195,0.52
		C322.559,10.918,322.587,11.181,322.587,11.483z M322.259,11.526c0-0.31-0.043-0.598-0.131-0.865s-0.186-0.48-0.295-0.639
		c-0.065-0.091-0.15-0.169-0.254-0.234c-0.148-0.091-0.315-0.137-0.5-0.137c-0.367,0-0.655,0.188-0.863,0.563
		s-0.313,0.813-0.313,1.313v0.723c0,0.31,0.043,0.599,0.131,0.867s0.187,0.482,0.299,0.641c0.063,0.088,0.146,0.166,0.25,0.23
		c0.148,0.094,0.316,0.141,0.504,0.141c0.365,0,0.651-0.188,0.859-0.564s0.313-0.814,0.313-1.314V11.526z"/>
</g>
<g>
	<path fill="#EC1C24" d="M96.031,63.455v-0.164c0-0.121,0.023-0.207,0.07-0.258s0.105-0.076,0.176-0.076
		c0.074,0,0.135,0.025,0.182,0.076s0.07,0.137,0.07,0.258v1.113c-0.004,0.121-0.028,0.207-0.073,0.258s-0.104,0.076-0.179,0.076
		c-0.066,0-0.122-0.022-0.167-0.067s-0.071-0.12-0.079-0.226c-0.023-0.277-0.206-0.541-0.548-0.791s-0.802-0.375-1.38-0.375
		c-0.73,0-1.285,0.229-1.664,0.686s-0.568,0.98-0.568,1.57c0,0.637,0.209,1.162,0.627,1.576s0.959,0.621,1.623,0.621
		c0.383,0,0.772-0.07,1.169-0.211s0.755-0.367,1.075-0.68c0.082-0.078,0.154-0.117,0.217-0.117c0.066,0,0.122,0.022,0.167,0.067
		s0.067,0.101,0.067,0.167c0,0.168-0.197,0.381-0.592,0.639c-0.637,0.418-1.346,0.627-2.127,0.627c-0.793,0-1.444-0.253-1.954-0.759
		s-0.765-1.147-0.765-1.925c0-0.793,0.261-1.451,0.782-1.975s1.179-0.785,1.972-0.785C94.887,62.781,95.52,63.006,96.031,63.455z"/>
	<path fill="#EC1C24" d="M98.566,70.703h2.52v-0.129c0-0.078,0.016-0.134,0.047-0.168s0.072-0.051,0.121-0.051
		c0.047,0,0.086,0.017,0.117,0.051s0.047,0.09,0.047,0.168v0.457h-3.172v-0.484c0.667-0.599,1.315-1.208,1.945-1.828
		c0.294-0.289,0.496-0.501,0.605-0.637s0.184-0.254,0.225-0.357s0.061-0.207,0.061-0.311c0-0.281-0.113-0.53-0.34-0.746
		s-0.5-0.324-0.82-0.324c-0.287,0-0.541,0.082-0.762,0.246s-0.365,0.367-0.43,0.609c-0.016,0.063-0.035,0.103-0.059,0.121
		c-0.031,0.026-0.068,0.039-0.109,0.039c-0.044,0-0.082-0.015-0.111-0.045s-0.045-0.066-0.045-0.107
		c0-0.125,0.068-0.294,0.205-0.508s0.326-0.381,0.566-0.504s0.488-0.184,0.74-0.184c0.409,0,0.76,0.142,1.055,0.426
		s0.441,0.605,0.441,0.965c0,0.151-0.025,0.29-0.074,0.416s-0.133,0.264-0.252,0.414s-0.332,0.375-0.639,0.678
		c-0.771,0.76-1.398,1.35-1.883,1.77V70.703z"/>
</g>
<g>
	<path fill="#EC1C24" d="M5.322,142.825v-0.164c0-0.121,0.023-0.207,0.07-0.258s0.105-0.076,0.176-0.076
		c0.074,0,0.135,0.025,0.182,0.076s0.07,0.137,0.07,0.258v1.113c-0.004,0.121-0.028,0.207-0.073,0.258s-0.104,0.076-0.179,0.076
		c-0.066,0-0.122-0.022-0.167-0.067s-0.071-0.12-0.079-0.226c-0.023-0.277-0.206-0.541-0.548-0.791s-0.802-0.375-1.38-0.375
		c-0.73,0-1.285,0.229-1.664,0.686s-0.568,0.98-0.568,1.57c0,0.637,0.209,1.163,0.627,1.577s0.959,0.621,1.623,0.621
		c0.383,0,0.772-0.07,1.169-0.211s0.755-0.367,1.075-0.68c0.082-0.078,0.154-0.117,0.217-0.117c0.066,0,0.122,0.021,0.167,0.066
		s0.067,0.102,0.067,0.168c0,0.168-0.197,0.381-0.592,0.639c-0.637,0.418-1.346,0.627-2.127,0.627c-0.793,0-1.444-0.254-1.954-0.76
		s-0.765-1.147-0.765-1.924c0-0.793,0.261-1.451,0.782-1.975s1.179-0.785,1.972-0.785C4.178,142.151,4.811,142.375,5.322,142.825z"
		/>
	<path fill="#EC1C24" d="M9.943,147.733c0.302,0.135,0.533,0.32,0.691,0.557c0.159,0.235,0.238,0.48,0.238,0.736
		c0,0.393-0.16,0.74-0.479,1.041s-0.718,0.451-1.197,0.451c-0.281,0-0.573-0.061-0.875-0.18c-0.302-0.12-0.513-0.242-0.633-0.367
		c-0.039-0.042-0.059-0.086-0.059-0.133c0-0.042,0.015-0.078,0.045-0.109s0.066-0.047,0.107-0.047s0.088,0.02,0.141,0.059
		c0.404,0.299,0.831,0.449,1.281,0.449c0.38,0,0.699-0.119,0.955-0.357s0.385-0.504,0.385-0.795c0-0.195-0.063-0.387-0.189-0.574
		s-0.308-0.336-0.545-0.443c-0.237-0.108-0.477-0.162-0.719-0.162c-0.078,0-0.134-0.016-0.168-0.045
		c-0.034-0.03-0.051-0.07-0.051-0.119c0-0.047,0.016-0.086,0.049-0.117s0.082-0.047,0.146-0.047l0.281,0.004
		c0.294,0,0.537-0.09,0.729-0.27s0.287-0.389,0.287-0.625c0-0.245-0.1-0.461-0.301-0.648c-0.201-0.188-0.462-0.282-0.785-0.282
		c-0.227,0-0.435,0.039-0.625,0.117s-0.342,0.185-0.457,0.321c-0.042,0.052-0.074,0.084-0.096,0.096s-0.047,0.018-0.076,0.018
		c-0.044,0-0.082-0.016-0.113-0.045c-0.031-0.03-0.047-0.066-0.047-0.107c0-0.104,0.113-0.236,0.34-0.395
		c0.315-0.221,0.673-0.332,1.074-0.332c0.414,0,0.754,0.125,1.02,0.373s0.398,0.545,0.398,0.889c0,0.219-0.064,0.426-0.191,0.621
		S10.191,147.616,9.943,147.733z"/>
</g>
<g>
	<path fill="#EC1C24" d="M186.74,63.455v-0.164c0-0.121,0.023-0.207,0.07-0.258s0.105-0.076,0.176-0.076
		c0.074,0,0.135,0.025,0.182,0.076s0.07,0.137,0.07,0.258v1.113c-0.004,0.121-0.028,0.207-0.073,0.258s-0.104,0.076-0.179,0.076
		c-0.066,0-0.122-0.022-0.167-0.067s-0.071-0.12-0.079-0.226c-0.023-0.277-0.206-0.541-0.548-0.791s-0.802-0.375-1.38-0.375
		c-0.73,0-1.285,0.229-1.664,0.686s-0.568,0.98-0.568,1.57c0,0.637,0.209,1.162,0.627,1.576s0.959,0.621,1.623,0.621
		c0.383,0,0.772-0.07,1.169-0.211s0.755-0.367,1.075-0.68c0.082-0.078,0.154-0.117,0.217-0.117c0.066,0,0.122,0.022,0.167,0.067
		s0.067,0.101,0.067,0.167c0,0.168-0.197,0.381-0.592,0.639c-0.637,0.418-1.346,0.627-2.127,0.627c-0.793,0-1.444-0.253-1.954-0.759
		s-0.765-1.147-0.765-1.925c0-0.793,0.261-1.451,0.782-1.975s1.179-0.785,1.972-0.785C185.596,62.781,186.229,63.006,186.74,63.455z
		"/>
	<path fill="#EC1C24" d="M190.85,66.063v4.641h1.125c0.078,0,0.134,0.015,0.168,0.045s0.051,0.07,0.051,0.119
		c0,0.047-0.017,0.086-0.051,0.117s-0.09,0.047-0.168,0.047h-2.578c-0.078,0-0.134-0.016-0.168-0.047s-0.051-0.07-0.051-0.117
		c0-0.049,0.017-0.089,0.051-0.119s0.09-0.045,0.168-0.045h1.125v-4.188l-1.07,0.336c-0.052,0.016-0.09,0.023-0.113,0.023
		c-0.039,0-0.075-0.016-0.107-0.049s-0.049-0.071-0.049-0.115c0-0.039,0.013-0.076,0.039-0.109c0.021-0.021,0.064-0.043,0.129-0.066
		L190.85,66.063z"/>
</g>
<g>
	<g>
		<line fill="none" stroke="#EC1C24" stroke-miterlimit="10" x1="12.152" y1="153.071" x2="28.346" y2="153.071"/>
		<g>
			<polygon fill="#EC1C24" points="14.637,156.139 15.148,155.59 12.439,153.072 15.148,150.554 14.637,150.005 11.338,153.072 			
				"/>
		</g>
	</g>
</g>
<g>
	<g>
		<polyline fill="none" stroke="#EC1C24" stroke-miterlimit="10" points="85.853,73.7 96.377,73.7 96.377,136.063 		"/>
		<g>
			<polygon fill="#EC1C24" points="88.337,76.768 88.849,76.218 86.14,73.701 88.849,71.183 88.337,70.633 85.039,73.701 			"/>
		</g>
	</g>
</g>
<g>
	<g>
		<polyline fill="none" stroke="#EC1C24" stroke-miterlimit="10" points="176.562,73.701 187.087,73.701 187.087,136.063 		"/>
		<g>
			<polygon fill="#EC1C24" points="179.047,76.768 179.559,76.219 176.85,73.701 179.559,71.184 179.047,70.634 175.749,73.701 			
				"/>
		</g>
	</g>
</g>
<g>
	<g>
		<polyline fill="none" stroke="#EC1C24" stroke-miterlimit="10" points="267.271,73.701 277.795,73.701 277.795,136.063 		"/>
		<g>
			<polygon fill="#EC1C24" points="269.755,76.768 270.267,76.219 267.558,73.701 270.267,71.184 269.755,70.634 266.457,73.701 			
				"/>
		</g>
	</g>
</g>
<g>
	<g>
		<line fill="none" stroke="#EC1C24" stroke-miterlimit="10" x1="358.571" y1="73.318" x2="368.505" y2="73.318"/>
		<g>
			<polygon fill="#EC1C24" points="361.056,76.386 361.568,75.836 358.859,73.319 361.568,70.801 361.056,70.252 357.758,73.319 			
				"/>
		</g>
	</g>
</g>
<g>
	<g>
		<polyline fill="none" stroke="#EC1C24" stroke-miterlimit="10" points="357.979,153.071 368.504,153.071 368.504,73.701 		"/>
		<g>
			<polygon fill="#EC1C24" points="360.464,156.139 360.976,155.589 358.267,153.072 360.976,150.554 360.464,150.005 
				357.166,153.072 			"/>
		</g>
	</g>
</g>
<g>
	<path fill="#EC1C24" d="M277.449,63.455v-0.164c0-0.121,0.023-0.207,0.07-0.258s0.105-0.076,0.176-0.076
		c0.074,0,0.135,0.025,0.182,0.076s0.07,0.137,0.07,0.258v1.113c-0.004,0.121-0.028,0.207-0.073,0.258s-0.104,0.076-0.179,0.076
		c-0.066,0-0.122-0.022-0.167-0.067s-0.071-0.12-0.079-0.226c-0.023-0.277-0.206-0.541-0.548-0.791s-0.802-0.375-1.38-0.375
		c-0.73,0-1.285,0.229-1.664,0.686s-0.568,0.98-0.568,1.57c0,0.637,0.209,1.162,0.627,1.576s0.959,0.621,1.623,0.621
		c0.383,0,0.772-0.07,1.169-0.211s0.755-0.367,1.075-0.68c0.082-0.078,0.154-0.117,0.217-0.117c0.066,0,0.122,0.022,0.167,0.067
		s0.067,0.101,0.067,0.167c0,0.168-0.197,0.381-0.592,0.639c-0.637,0.418-1.346,0.627-2.127,0.627c-0.793,0-1.444-0.253-1.954-0.759
		s-0.765-1.147-0.765-1.925c0-0.793,0.261-1.451,0.782-1.975s1.179-0.785,1.972-0.785C276.304,62.781,276.937,63.006,277.449,63.455
		z"/>
	<path fill="#EC1C24" d="M282.902,68.176v0.813c0,0.706-0.168,1.264-0.504,1.676c-0.263,0.323-0.595,0.484-0.996,0.484
		c-0.193,0-0.375-0.039-0.545-0.115s-0.316-0.184-0.436-0.322c-0.076-0.086-0.158-0.224-0.248-0.414s-0.154-0.365-0.193-0.523
		c-0.06-0.224-0.09-0.486-0.09-0.785v-0.813c0-0.708,0.168-1.268,0.504-1.68c0.263-0.323,0.595-0.484,0.996-0.484
		c0.195,0,0.377,0.039,0.547,0.115s0.314,0.184,0.434,0.322c0.078,0.088,0.162,0.228,0.25,0.418s0.154,0.363,0.195,0.52
		C282.873,67.611,282.902,67.874,282.902,68.176z M282.574,68.219c0-0.31-0.043-0.598-0.131-0.865s-0.186-0.48-0.295-0.639
		c-0.065-0.091-0.15-0.169-0.254-0.234c-0.148-0.091-0.315-0.137-0.5-0.137c-0.367,0-0.655,0.188-0.863,0.563
		s-0.313,0.813-0.313,1.313v0.723c0,0.31,0.043,0.599,0.131,0.867s0.187,0.482,0.299,0.641c0.063,0.088,0.146,0.166,0.25,0.23
		c0.148,0.094,0.316,0.141,0.504,0.141c0.365,0,0.651-0.188,0.859-0.564s0.313-0.814,0.313-1.314V68.219z"/>
</g>
<g>
	<path fill="#EC1C24" d="M379.828,142.825v-0.164c0-0.121,0.023-0.207,0.07-0.258s0.105-0.076,0.176-0.076
		c0.074,0,0.135,0.025,0.182,0.076s0.07,0.137,0.07,0.258v1.113c-0.004,0.121-0.028,0.207-0.073,0.258s-0.104,0.076-0.179,0.076
		c-0.066,0-0.122-0.022-0.167-0.067s-0.071-0.12-0.079-0.226c-0.023-0.277-0.206-0.541-0.548-0.791s-0.802-0.375-1.38-0.375
		c-0.73,0-1.285,0.229-1.664,0.686s-0.568,0.98-0.568,1.57c0,0.637,0.209,1.162,0.627,1.576s0.959,0.621,1.623,0.621
		c0.383,0,0.772-0.07,1.169-0.211s0.755-0.367,1.075-0.68c0.082-0.078,0.154-0.117,0.217-0.117c0.066,0,0.122,0.022,0.167,0.067
		s0.067,0.101,0.067,0.167c0,0.168-0.197,0.381-0.592,0.639c-0.637,0.418-1.346,0.627-2.127,0.627c-0.793,0-1.444-0.253-1.954-0.759
		s-0.765-1.147-0.765-1.925c0-0.793,0.261-1.451,0.782-1.975s1.179-0.785,1.972-0.785
		C378.684,142.151,379.316,142.376,379.828,142.825z"/>
	<path fill="#EC1C24" d="M383.949,147.019v3.055h1.289c0.081,0,0.138,0.016,0.172,0.045s0.051,0.07,0.051,0.119
		c0,0.047-0.017,0.086-0.051,0.117s-0.091,0.047-0.172,0.047h-2.906c-0.078,0-0.134-0.016-0.168-0.047s-0.051-0.07-0.051-0.117
		c0-0.049,0.017-0.09,0.051-0.119s0.09-0.045,0.168-0.045h1.289v-2.723h-0.957c-0.078,0-0.135-0.016-0.17-0.047
		s-0.053-0.07-0.053-0.117c0-0.049,0.017-0.09,0.051-0.121s0.091-0.047,0.172-0.047H383.949z M383.938,145.335v0.848h-0.484v-0.848
		H383.938z"/>
</g>
<rect x="28.347" y="136.063" fill="#EAEAFF" stroke="#231F20" stroke-width="1.9039" stroke-miterlimit="10" width="328.819" height="34.016"/>
<g>
	<g>
		<line fill="none" stroke="#00A551" stroke-miterlimit="10" x1="39.685" y1="135.249" x2="39.685" y2="102.047"/>
		<g>
			<polygon fill="#00A551" points="42.752,132.764 42.203,132.252 39.685,134.961 37.167,132.252 36.618,132.764 39.685,136.063 			
				"/>
		</g>
	</g>
</g>
<g>
	<g>
		<line fill="none" stroke="#00A551" stroke-miterlimit="10" x1="130.393" y1="135.25" x2="130.393" y2="102.048"/>
		<g>
			<polygon fill="#00A551" points="133.46,132.765 132.911,132.253 130.394,134.962 127.875,132.253 127.327,132.765 
				130.394,136.063 			"/>
		</g>
	</g>
</g>
<g>
	<g>
		<line fill="none" stroke="#00A551" stroke-miterlimit="10" x1="221.102" y1="135.25" x2="221.102" y2="102.048"/>
		<g>
			<polygon fill="#00A551" points="224.169,132.765 223.62,132.253 221.103,134.962 218.584,132.253 218.036,132.765 
				221.103,136.063 			"/>
		</g>
	</g>
</g>
<g>
	<g>
		<line fill="none" stroke="#00A551" stroke-miterlimit="10" x1="311.811" y1="135.249" x2="311.811" y2="102.047"/>
		<g>
			<polygon fill="#00A551" points="314.878,132.764 314.329,132.252 311.812,134.961 309.293,132.252 308.745,132.764 
				311.812,136.063 			"/>
		</g>
	</g>
</g>
<g>
	<g>
		<line fill="none" stroke="#FAAF40" stroke-miterlimit="10" x1="56.692" y1="203.283" x2="56.692" y2="175.751"/>
		<g>
			<polygon fill="#FAAF40" points="59.76,200.798 59.21,200.286 56.693,202.995 54.175,200.286 53.625,200.798 56.693,204.097 			
				"/>
		</g>
	</g>
</g>
<g>
	<g>
		<line fill="none" stroke="#FAAF40" stroke-miterlimit="10" x1="147.401" y1="203.283" x2="147.401" y2="175.75"/>
		<g>
			<polygon fill="#FAAF40" points="150.468,200.798 149.919,200.286 147.402,202.995 144.883,200.286 144.334,200.798 
				147.402,204.096 			"/>
		</g>
	</g>
</g>
<g>
	<g>
		<line fill="none" stroke="#FAAF40" stroke-miterlimit="10" x1="238.11" y1="203.283" x2="238.11" y2="175.75"/>
		<g>
			<polygon fill="#FAAF40" points="241.177,200.798 240.628,200.286 238.111,202.995 235.592,200.286 235.043,200.798 
				238.111,204.096 			"/>
		</g>
	</g>
</g>
<g>
	<line fill="none" stroke="#FAAF40" stroke-miterlimit="10" x1="56.692" y1="130.395" x2="56.692" y2="102.048"/>
	<line fill="none" stroke="#FAAF40" stroke-miterlimit="10" x1="147.401" y1="130.395" x2="147.401" y2="102.049"/>
	<line fill="none" stroke="#FAAF40" stroke-miterlimit="10" x1="238.11" y1="130.395" x2="238.11" y2="102.049"/>
	<line fill="none" stroke="#FAAF40" stroke-miterlimit="10" x1="328.819" y1="130.395" x2="328.819" y2="102.048"/>
</g>
<g>
	<g>
		<line fill="none" stroke="#FAAF40" stroke-miterlimit="10" x1="328.819" y1="203.282" x2="328.819" y2="175.75"/>
		<g>
			<polygon fill="#FAAF40" points="331.886,200.797 331.337,200.285 328.82,202.994 326.301,200.285 325.752,200.797 
				328.82,204.096 			"/>
		</g>
	</g>
</g>
<g>
	<path fill="#FAAF40" d="M55.918,210.683c0-0.113,0.023-0.195,0.07-0.246s0.105-0.076,0.176-0.076c0.074,0,0.135,0.025,0.182,0.076
		s0.07,0.137,0.07,0.258v0.844c0,0.117-0.023,0.201-0.07,0.252s-0.107,0.076-0.182,0.076c-0.066,0-0.122-0.021-0.167-0.064
		s-0.071-0.113-0.079-0.211c-0.023-0.234-0.145-0.428-0.363-0.58c-0.32-0.219-0.744-0.328-1.271-0.328
		c-0.551,0-0.979,0.111-1.283,0.334c-0.23,0.168-0.346,0.355-0.346,0.563c0,0.234,0.137,0.43,0.41,0.586
		c0.188,0.109,0.543,0.193,1.066,0.252c0.684,0.074,1.158,0.158,1.424,0.252c0.379,0.137,0.661,0.326,0.847,0.568
		s0.278,0.504,0.278,0.785c0,0.418-0.201,0.789-0.604,1.115s-0.992,0.49-1.77,0.49s-1.414-0.197-1.91-0.592
		c0,0.133-0.008,0.219-0.023,0.258s-0.044,0.072-0.085,0.1s-0.087,0.041-0.138,0.041c-0.07,0-0.129-0.025-0.176-0.076
		s-0.07-0.135-0.07-0.252v-1.014c0-0.117,0.022-0.201,0.067-0.252s0.104-0.076,0.179-0.076c0.07,0,0.13,0.023,0.179,0.072
		s0.073,0.115,0.073,0.197c0,0.18,0.045,0.33,0.135,0.451c0.137,0.188,0.354,0.342,0.653,0.465s0.665,0.186,1.099,0.186
		c0.641,0,1.117-0.119,1.43-0.357s0.469-0.49,0.469-0.756c0-0.305-0.158-0.549-0.475-0.732c-0.32-0.184-0.786-0.307-1.397-0.369
		s-1.05-0.145-1.315-0.246s-0.473-0.254-0.621-0.457s-0.223-0.422-0.223-0.656c0-0.422,0.207-0.758,0.621-1.006
		s0.908-0.371,1.482-0.371C54.94,210.185,55.493,210.351,55.918,210.683z"/>
	<path fill="#FAAF40" d="M60.967,215.767c0.302,0.135,0.533,0.32,0.691,0.557c0.159,0.235,0.238,0.48,0.238,0.736
		c0,0.393-0.16,0.74-0.479,1.041s-0.718,0.451-1.197,0.451c-0.281,0-0.573-0.061-0.875-0.18c-0.302-0.12-0.513-0.242-0.633-0.367
		c-0.039-0.042-0.059-0.086-0.059-0.133c0-0.042,0.015-0.078,0.045-0.109s0.066-0.047,0.107-0.047s0.088,0.02,0.141,0.059
		c0.404,0.299,0.831,0.449,1.281,0.449c0.38,0,0.699-0.119,0.955-0.357s0.385-0.504,0.385-0.795c0-0.195-0.063-0.387-0.189-0.574
		s-0.308-0.336-0.545-0.443c-0.237-0.108-0.477-0.162-0.719-0.162c-0.078,0-0.134-0.016-0.168-0.045
		c-0.034-0.03-0.051-0.07-0.051-0.119c0-0.047,0.016-0.086,0.049-0.117s0.082-0.047,0.146-0.047l0.281,0.004
		c0.294,0,0.537-0.09,0.729-0.27s0.287-0.389,0.287-0.625c0-0.245-0.1-0.461-0.301-0.648s-0.462-0.281-0.785-0.281
		c-0.227,0-0.435,0.039-0.625,0.117s-0.342,0.185-0.457,0.32c-0.042,0.052-0.074,0.084-0.096,0.096s-0.047,0.018-0.076,0.018
		c-0.044,0-0.082-0.016-0.113-0.045c-0.031-0.03-0.047-0.066-0.047-0.107c0-0.104,0.113-0.236,0.34-0.395
		c0.315-0.222,0.673-0.332,1.074-0.332c0.414,0,0.754,0.124,1.02,0.373c0.266,0.248,0.398,0.545,0.398,0.889
		c0,0.219-0.064,0.426-0.191,0.621S61.215,215.649,60.967,215.767z"/>
</g>
<g>
	<path fill="#FAAF40" d="M146.182,210.683c0-0.113,0.023-0.195,0.07-0.246s0.105-0.076,0.176-0.076c0.074,0,0.135,0.025,0.182,0.076
		s0.07,0.137,0.07,0.258v0.844c0,0.117-0.023,0.201-0.07,0.252s-0.107,0.076-0.182,0.076c-0.066,0-0.122-0.021-0.167-0.064
		s-0.071-0.113-0.079-0.211c-0.023-0.234-0.145-0.428-0.363-0.58c-0.32-0.219-0.744-0.328-1.271-0.328
		c-0.551,0-0.979,0.111-1.283,0.334c-0.23,0.168-0.346,0.355-0.346,0.563c0,0.234,0.137,0.43,0.41,0.586
		c0.188,0.109,0.543,0.193,1.066,0.252c0.684,0.074,1.158,0.158,1.424,0.252c0.379,0.137,0.661,0.326,0.847,0.568
		s0.278,0.504,0.278,0.785c0,0.418-0.201,0.789-0.604,1.115s-0.992,0.49-1.77,0.49s-1.414-0.197-1.91-0.592
		c0,0.133-0.008,0.219-0.023,0.258s-0.044,0.072-0.085,0.1s-0.087,0.041-0.138,0.041c-0.07,0-0.129-0.025-0.176-0.076
		s-0.07-0.135-0.07-0.252v-1.014c0-0.117,0.022-0.201,0.067-0.252s0.104-0.076,0.179-0.076c0.07,0,0.13,0.023,0.179,0.072
		s0.073,0.115,0.073,0.197c0,0.18,0.045,0.33,0.135,0.451c0.137,0.188,0.354,0.342,0.653,0.465s0.665,0.186,1.099,0.186
		c0.641,0,1.117-0.119,1.43-0.357s0.469-0.49,0.469-0.756c0-0.305-0.158-0.549-0.475-0.732c-0.32-0.184-0.786-0.307-1.397-0.369
		s-1.05-0.145-1.315-0.246s-0.473-0.254-0.621-0.457s-0.223-0.422-0.223-0.656c0-0.422,0.207-0.758,0.621-1.006
		s0.908-0.371,1.482-0.371C145.204,210.185,145.756,210.351,146.182,210.683z"/>
	<path fill="#FAAF40" d="M149.145,218.106h2.52v-0.129c0-0.078,0.016-0.135,0.047-0.168c0.031-0.034,0.072-0.051,0.121-0.051
		c0.047,0,0.086,0.017,0.117,0.051c0.031,0.033,0.047,0.09,0.047,0.168v0.457h-3.172v-0.484c0.667-0.6,1.315-1.209,1.945-1.828
		c0.294-0.289,0.496-0.502,0.605-0.637c0.109-0.136,0.184-0.255,0.225-0.357c0.041-0.104,0.061-0.207,0.061-0.311
		c0-0.281-0.113-0.53-0.34-0.746c-0.227-0.217-0.5-0.324-0.82-0.324c-0.287,0-0.541,0.082-0.762,0.246s-0.365,0.367-0.43,0.609
		c-0.016,0.063-0.035,0.103-0.059,0.121c-0.031,0.025-0.068,0.039-0.109,0.039c-0.044,0-0.082-0.016-0.111-0.045
		c-0.03-0.03-0.045-0.066-0.045-0.107c0-0.125,0.068-0.295,0.205-0.508c0.137-0.214,0.326-0.382,0.566-0.504
		c0.241-0.123,0.488-0.184,0.74-0.184c0.409,0,0.76,0.142,1.055,0.426c0.294,0.283,0.441,0.605,0.441,0.965
		c0,0.15-0.025,0.289-0.074,0.416c-0.049,0.126-0.133,0.264-0.252,0.414c-0.119,0.149-0.332,0.375-0.639,0.678
		c-0.771,0.76-1.398,1.35-1.883,1.77V218.106z"/>
</g>
<g>
	<path fill="#FAAF40" d="M237.336,210.683c0-0.113,0.023-0.195,0.07-0.246s0.105-0.076,0.176-0.076c0.074,0,0.135,0.025,0.182,0.076
		s0.07,0.137,0.07,0.258v0.844c0,0.117-0.023,0.201-0.07,0.252s-0.107,0.076-0.182,0.076c-0.066,0-0.122-0.021-0.167-0.064
		s-0.071-0.113-0.079-0.211c-0.023-0.234-0.145-0.428-0.363-0.58c-0.32-0.219-0.744-0.328-1.271-0.328
		c-0.551,0-0.979,0.111-1.283,0.334c-0.23,0.168-0.346,0.355-0.346,0.563c0,0.234,0.137,0.43,0.41,0.586
		c0.188,0.109,0.543,0.193,1.066,0.252c0.684,0.074,1.158,0.158,1.424,0.252c0.379,0.137,0.661,0.326,0.847,0.568
		s0.278,0.504,0.278,0.785c0,0.418-0.201,0.789-0.604,1.115s-0.992,0.49-1.77,0.49s-1.414-0.197-1.91-0.592
		c0,0.133-0.008,0.219-0.023,0.258s-0.044,0.072-0.085,0.1s-0.087,0.041-0.138,0.041c-0.07,0-0.129-0.025-0.176-0.076
		s-0.07-0.135-0.07-0.252v-1.014c0-0.117,0.022-0.201,0.067-0.252s0.104-0.076,0.179-0.076c0.07,0,0.13,0.023,0.179,0.072
		s0.073,0.115,0.073,0.197c0,0.18,0.045,0.33,0.135,0.451c0.137,0.188,0.354,0.342,0.653,0.465s0.665,0.186,1.099,0.186
		c0.641,0,1.117-0.119,1.43-0.357s0.469-0.49,0.469-0.756c0-0.305-0.158-0.549-0.475-0.732c-0.32-0.184-0.786-0.307-1.397-0.369
		s-1.05-0.145-1.315-0.246s-0.473-0.254-0.621-0.457s-0.223-0.422-0.223-0.656c0-0.422,0.207-0.758,0.621-1.006
		s0.908-0.371,1.482-0.371C236.357,210.185,236.91,210.351,237.336,210.683z"/>
	<path fill="#FAAF40" d="M241.873,213.466v4.641h1.125c0.078,0,0.134,0.015,0.168,0.045c0.034,0.029,0.051,0.069,0.051,0.119
		c0,0.047-0.017,0.086-0.051,0.117s-0.09,0.047-0.168,0.047h-2.578c-0.078,0-0.134-0.016-0.168-0.047s-0.051-0.07-0.051-0.117
		c0-0.05,0.017-0.09,0.051-0.119c0.034-0.03,0.09-0.045,0.168-0.045h1.125v-4.188l-1.07,0.336c-0.052,0.016-0.09,0.023-0.113,0.023
		c-0.039,0-0.075-0.017-0.107-0.049c-0.033-0.033-0.049-0.071-0.049-0.115c0-0.039,0.013-0.076,0.039-0.109
		c0.021-0.021,0.064-0.043,0.129-0.066L241.873,213.466z"/>
</g>
<g>
	<path fill="#FAAF40" d="M328.044,210.683c0-0.113,0.023-0.195,0.07-0.246s0.105-0.076,0.176-0.076c0.074,0,0.135,0.025,0.182,0.076
		s0.07,0.137,0.07,0.258v0.844c0,0.117-0.023,0.201-0.07,0.252s-0.107,0.076-0.182,0.076c-0.066,0-0.122-0.021-0.167-0.064
		s-0.071-0.113-0.079-0.211c-0.023-0.234-0.145-0.428-0.363-0.58c-0.32-0.219-0.744-0.328-1.271-0.328
		c-0.551,0-0.979,0.111-1.283,0.334c-0.23,0.168-0.346,0.355-0.346,0.563c0,0.234,0.137,0.43,0.41,0.586
		c0.188,0.109,0.543,0.193,1.066,0.252c0.684,0.074,1.158,0.158,1.424,0.252c0.379,0.137,0.661,0.326,0.847,0.568
		s0.278,0.504,0.278,0.785c0,0.418-0.201,0.789-0.604,1.115s-0.992,0.49-1.77,0.49s-1.414-0.197-1.91-0.592
		c0,0.133-0.008,0.219-0.023,0.258s-0.044,0.072-0.085,0.1s-0.087,0.041-0.138,0.041c-0.07,0-0.129-0.025-0.176-0.076
		s-0.07-0.135-0.07-0.252v-1.014c0-0.117,0.022-0.201,0.067-0.252s0.104-0.076,0.179-0.076c0.07,0,0.13,0.023,0.179,0.072
		s0.073,0.115,0.073,0.197c0,0.18,0.045,0.33,0.135,0.451c0.137,0.188,0.354,0.342,0.653,0.465s0.665,0.186,1.099,0.186
		c0.641,0,1.117-0.119,1.43-0.357s0.469-0.49,0.469-0.756c0-0.305-0.158-0.549-0.475-0.732c-0.32-0.184-0.786-0.307-1.397-0.369
		s-1.05-0.145-1.315-0.246s-0.473-0.254-0.621-0.457s-0.223-0.422-0.223-0.656c0-0.422,0.207-0.758,0.621-1.006
		s0.908-0.371,1.482-0.371C327.066,210.185,327.619,210.351,328.044,210.683z"/>
	<path fill="#FAAF40" d="M333.925,215.579v0.813c0,0.705-0.168,1.264-0.504,1.676c-0.263,0.322-0.595,0.484-0.996,0.484
		c-0.193,0-0.375-0.039-0.545-0.115c-0.17-0.077-0.316-0.185-0.436-0.322c-0.076-0.086-0.158-0.225-0.248-0.414
		c-0.09-0.19-0.154-0.365-0.193-0.523c-0.06-0.225-0.09-0.486-0.09-0.785v-0.813c0-0.709,0.168-1.269,0.504-1.68
		c0.263-0.323,0.595-0.484,0.996-0.484c0.195,0,0.377,0.038,0.547,0.115c0.169,0.076,0.314,0.184,0.434,0.322
		c0.078,0.088,0.162,0.228,0.25,0.418c0.088,0.189,0.154,0.363,0.195,0.52C333.896,215.014,333.925,215.276,333.925,215.579z
		 M333.597,215.622c0-0.311-0.043-0.599-0.131-0.865c-0.087-0.268-0.186-0.48-0.295-0.639c-0.065-0.092-0.15-0.17-0.254-0.234
		c-0.148-0.092-0.315-0.137-0.5-0.137c-0.367,0-0.655,0.188-0.863,0.563s-0.313,0.813-0.313,1.313v0.723
		c0,0.31,0.043,0.599,0.131,0.867c0.087,0.268,0.187,0.481,0.299,0.641c0.063,0.088,0.146,0.165,0.25,0.23
		c0.148,0.094,0.316,0.141,0.504,0.141c0.365,0,0.651-0.188,0.859-0.564c0.208-0.377,0.313-0.814,0.313-1.314V215.622z"/>
</g>
<g>
	<path fill="#00A551" d="M47.775,120.553v-0.902h1.154c0.117,0,0.201,0.023,0.252,0.07s0.076,0.107,0.076,0.182
		c0,0.07-0.025,0.129-0.076,0.176s-0.135,0.07-0.252,0.07h-0.662v4.916c0,0.328-0.07,0.621-0.211,0.879
		c-0.094,0.172-0.25,0.35-0.469,0.533s-0.418,0.314-0.598,0.393s-0.42,0.117-0.721,0.117h-1.395c-0.117,0-0.201-0.022-0.252-0.067
		s-0.076-0.104-0.076-0.179s0.025-0.135,0.076-0.182s0.135-0.07,0.252-0.07l1.412,0.006c0.289,0,0.55-0.074,0.782-0.223
		s0.425-0.365,0.577-0.65c0.086-0.164,0.129-0.373,0.129-0.627v-1.477c-0.527,0.723-1.207,1.084-2.039,1.084
		c-0.676,0-1.259-0.251-1.749-0.753s-0.735-1.106-0.735-1.813s0.245-1.311,0.735-1.811s1.073-0.75,1.749-0.75
		C46.568,119.475,47.248,119.834,47.775,120.553z M47.775,122.035c0-0.578-0.198-1.066-0.595-1.465s-0.87-0.598-1.421-0.598
		s-1.023,0.2-1.418,0.601s-0.592,0.888-0.592,1.462c0,0.578,0.197,1.067,0.592,1.468s0.867,0.601,1.418,0.601s1.024-0.2,1.421-0.601
		S47.775,122.613,47.775,122.035z"/>
	<path fill="#00A551" d="M52.794,125.057c0.302,0.135,0.533,0.321,0.691,0.557s0.238,0.481,0.238,0.736
		c0,0.393-0.16,0.74-0.479,1.041s-0.718,0.451-1.197,0.451c-0.281,0-0.573-0.06-0.875-0.18s-0.513-0.242-0.633-0.367
		c-0.039-0.042-0.059-0.086-0.059-0.133c0-0.042,0.015-0.078,0.045-0.109s0.066-0.047,0.107-0.047s0.088,0.02,0.141,0.059
		c0.404,0.299,0.831,0.449,1.281,0.449c0.38,0,0.699-0.119,0.955-0.357s0.385-0.503,0.385-0.795c0-0.195-0.063-0.387-0.189-0.574
		s-0.308-0.335-0.545-0.443s-0.477-0.162-0.719-0.162c-0.078,0-0.134-0.015-0.168-0.045s-0.051-0.07-0.051-0.119
		c0-0.047,0.016-0.086,0.049-0.117s0.082-0.047,0.146-0.047l0.281,0.004c0.294,0,0.537-0.09,0.729-0.27s0.287-0.388,0.287-0.625
		c0-0.245-0.1-0.461-0.301-0.648s-0.462-0.281-0.785-0.281c-0.227,0-0.435,0.039-0.625,0.117s-0.342,0.185-0.457,0.32
		c-0.042,0.052-0.074,0.084-0.096,0.096s-0.047,0.018-0.076,0.018c-0.044,0-0.082-0.015-0.113-0.045s-0.047-0.066-0.047-0.107
		c0-0.104,0.113-0.236,0.34-0.395c0.315-0.221,0.673-0.332,1.074-0.332c0.414,0,0.754,0.125,1.02,0.373s0.398,0.545,0.398,0.889
		c0,0.219-0.064,0.426-0.191,0.621S53.042,124.939,52.794,125.057z"/>
</g>
<g>
	<path fill="#00A551" d="M138.152,120.553v-0.902h1.154c0.117,0,0.201,0.023,0.252,0.07s0.076,0.107,0.076,0.182
		c0,0.07-0.025,0.129-0.076,0.176s-0.135,0.07-0.252,0.07h-0.662v4.916c0,0.328-0.07,0.621-0.211,0.879
		c-0.094,0.172-0.25,0.35-0.469,0.533s-0.418,0.314-0.598,0.393s-0.42,0.117-0.721,0.117h-1.395c-0.117,0-0.201-0.022-0.252-0.067
		s-0.076-0.104-0.076-0.179s0.025-0.135,0.076-0.182s0.135-0.07,0.252-0.07l1.412,0.006c0.289,0,0.55-0.074,0.782-0.223
		s0.425-0.365,0.577-0.65c0.086-0.164,0.129-0.373,0.129-0.627v-1.477c-0.527,0.723-1.207,1.084-2.039,1.084
		c-0.676,0-1.259-0.251-1.749-0.753s-0.735-1.106-0.735-1.813s0.245-1.311,0.735-1.811s1.073-0.75,1.749-0.75
		C136.945,119.475,137.625,119.834,138.152,120.553z M138.152,122.035c0-0.578-0.198-1.066-0.595-1.465s-0.87-0.598-1.421-0.598
		s-1.023,0.2-1.418,0.601s-0.592,0.888-0.592,1.462c0,0.578,0.197,1.067,0.592,1.468s0.867,0.601,1.418,0.601s1.024-0.2,1.421-0.601
		S138.152,122.613,138.152,122.035z"/>
	<path fill="#00A551" d="M141.086,127.396h2.52v-0.129c0-0.078,0.016-0.134,0.047-0.168s0.072-0.051,0.121-0.051
		c0.047,0,0.086,0.017,0.117,0.051s0.047,0.09,0.047,0.168v0.457h-3.172v-0.484c0.667-0.599,1.315-1.208,1.945-1.828
		c0.294-0.289,0.496-0.501,0.605-0.637s0.184-0.254,0.225-0.357s0.061-0.207,0.061-0.311c0-0.281-0.113-0.53-0.34-0.746
		s-0.5-0.324-0.82-0.324c-0.287,0-0.541,0.082-0.762,0.246s-0.365,0.367-0.43,0.609c-0.016,0.063-0.035,0.103-0.059,0.121
		c-0.031,0.026-0.068,0.039-0.109,0.039c-0.044,0-0.082-0.015-0.111-0.045s-0.045-0.066-0.045-0.107
		c0-0.125,0.068-0.294,0.205-0.508s0.326-0.381,0.566-0.504s0.488-0.184,0.74-0.184c0.409,0,0.76,0.142,1.055,0.426
		s0.441,0.605,0.441,0.965c0,0.151-0.025,0.29-0.074,0.416s-0.133,0.264-0.252,0.414s-0.332,0.375-0.639,0.678
		c-0.771,0.76-1.398,1.35-1.883,1.77V127.396z"/>
</g>
<g>
	<path fill="#00A551" d="M228.861,120.553v-0.902h1.154c0.117,0,0.201,0.023,0.252,0.07s0.076,0.107,0.076,0.182
		c0,0.07-0.025,0.129-0.076,0.176s-0.135,0.07-0.252,0.07h-0.662v4.916c0,0.328-0.07,0.621-0.211,0.879
		c-0.094,0.172-0.25,0.35-0.469,0.533s-0.418,0.314-0.598,0.393s-0.42,0.117-0.721,0.117h-1.395c-0.117,0-0.201-0.022-0.252-0.067
		s-0.076-0.104-0.076-0.179s0.025-0.135,0.076-0.182s0.135-0.07,0.252-0.07l1.412,0.006c0.289,0,0.55-0.074,0.782-0.223
		s0.425-0.365,0.577-0.65c0.086-0.164,0.129-0.373,0.129-0.627v-1.477c-0.527,0.723-1.207,1.084-2.039,1.084
		c-0.676,0-1.259-0.251-1.749-0.753s-0.735-1.106-0.735-1.813s0.245-1.311,0.735-1.811s1.073-0.75,1.749-0.75
		C227.654,119.475,228.333,119.834,228.861,120.553z M228.861,122.035c0-0.578-0.198-1.066-0.595-1.465s-0.87-0.598-1.421-0.598
		s-1.023,0.2-1.418,0.601s-0.592,0.888-0.592,1.462c0,0.578,0.197,1.067,0.592,1.468s0.867,0.601,1.418,0.601s1.024-0.2,1.421-0.601
		S228.861,122.613,228.861,122.035z"/>
	<path fill="#00A551" d="M233.369,122.756v4.641h1.125c0.078,0,0.134,0.015,0.168,0.045s0.051,0.07,0.051,0.119
		c0,0.047-0.017,0.086-0.051,0.117s-0.09,0.047-0.168,0.047h-2.578c-0.078,0-0.134-0.016-0.168-0.047s-0.051-0.07-0.051-0.117
		c0-0.049,0.017-0.089,0.051-0.119s0.09-0.045,0.168-0.045h1.125v-4.188l-1.07,0.336c-0.052,0.016-0.09,0.023-0.113,0.023
		c-0.039,0-0.075-0.016-0.107-0.049s-0.049-0.071-0.049-0.115c0-0.039,0.013-0.076,0.039-0.109c0.021-0.021,0.064-0.043,0.129-0.066
		L233.369,122.756z"/>
</g>
<g>
	<path fill="#00A551" d="M319.57,120.553v-0.902h1.154c0.117,0,0.201,0.023,0.252,0.07s0.076,0.107,0.076,0.182
		c0,0.07-0.025,0.129-0.076,0.176s-0.135,0.07-0.252,0.07h-0.662v4.916c0,0.328-0.07,0.621-0.211,0.879
		c-0.094,0.172-0.25,0.35-0.469,0.533s-0.418,0.314-0.598,0.393s-0.42,0.117-0.721,0.117h-1.395c-0.117,0-0.201-0.022-0.252-0.067
		s-0.076-0.104-0.076-0.179s0.025-0.135,0.076-0.182s0.135-0.07,0.252-0.07l1.412,0.006c0.289,0,0.55-0.074,0.782-0.223
		s0.425-0.365,0.577-0.65c0.086-0.164,0.129-0.373,0.129-0.627v-1.477c-0.527,0.723-1.207,1.084-2.039,1.084
		c-0.676,0-1.259-0.251-1.749-0.753s-0.735-1.106-0.735-1.813s0.245-1.311,0.735-1.811s1.073-0.75,1.749-0.75
		C318.363,119.475,319.042,119.834,319.57,120.553z M319.57,122.035c0-0.578-0.198-1.066-0.595-1.465s-0.87-0.598-1.421-0.598
		s-1.023,0.2-1.418,0.601s-0.592,0.888-0.592,1.462c0,0.578,0.197,1.067,0.592,1.468s0.867,0.601,1.418,0.601s1.024-0.2,1.421-0.601
		S319.57,122.613,319.57,122.035z"/>
	<path fill="#00A551" d="M325.421,124.869v0.813c0,0.706-0.168,1.264-0.504,1.676c-0.263,0.323-0.595,0.484-0.996,0.484
		c-0.193,0-0.375-0.039-0.545-0.115s-0.316-0.184-0.436-0.322c-0.076-0.086-0.158-0.224-0.248-0.414s-0.154-0.365-0.193-0.523
		c-0.06-0.224-0.09-0.486-0.09-0.785v-0.813c0-0.708,0.168-1.268,0.504-1.68c0.263-0.323,0.595-0.484,0.996-0.484
		c0.195,0,0.377,0.039,0.547,0.115s0.314,0.184,0.434,0.322c0.078,0.088,0.162,0.228,0.25,0.418s0.154,0.363,0.195,0.52
		C325.393,124.304,325.421,124.567,325.421,124.869z M325.093,124.912c0-0.31-0.043-0.598-0.131-0.865s-0.186-0.48-0.295-0.639
		c-0.065-0.091-0.15-0.169-0.254-0.234c-0.148-0.091-0.315-0.137-0.5-0.137c-0.367,0-0.655,0.188-0.863,0.563
		s-0.313,0.813-0.313,1.313v0.723c0,0.31,0.043,0.599,0.131,0.867s0.187,0.482,0.299,0.641c0.063,0.088,0.146,0.166,0.25,0.23
		c0.148,0.094,0.316,0.141,0.504,0.141c0.365,0,0.651-0.188,0.859-0.564s0.313-0.814,0.313-1.314V124.912z"/>
</g>
<g>
	<path fill="#00A551" d="M78.281,119.65v0.896c0.293-0.355,0.607-0.623,0.943-0.803s0.732-0.27,1.189-0.27
		c0.484,0,0.932,0.113,1.342,0.34s0.728,0.542,0.952,0.946s0.337,0.829,0.337,1.274c0,0.707-0.253,1.312-0.759,1.813
		s-1.128,0.753-1.866,0.753c-0.879,0-1.592-0.357-2.139-1.072v2.965h1.195c0.117,0,0.201,0.022,0.252,0.067s0.076,0.104,0.076,0.179
		c0,0.07-0.025,0.129-0.076,0.176s-0.135,0.07-0.252,0.07h-2.35c-0.117,0-0.201-0.022-0.252-0.067s-0.076-0.104-0.076-0.179
		s0.025-0.134,0.076-0.179s0.135-0.067,0.252-0.067h0.662v-6.346h-0.662c-0.117,0-0.201-0.023-0.252-0.07s-0.076-0.107-0.076-0.182
		c0-0.07,0.025-0.129,0.076-0.176s0.135-0.07,0.252-0.07H78.281z M82.546,122.035c0-0.566-0.206-1.052-0.618-1.456
		s-0.915-0.606-1.509-0.606c-0.598,0-1.104,0.203-1.518,0.609s-0.621,0.891-0.621,1.453c0,0.566,0.207,1.053,0.621,1.459
		s0.92,0.609,1.518,0.609c0.59,0,1.092-0.202,1.506-0.606S82.546,122.605,82.546,122.035z"/>
	<path fill="#00A551" d="M86.81,125.057c0.302,0.135,0.533,0.321,0.691,0.557s0.238,0.481,0.238,0.736
		c0,0.393-0.16,0.74-0.479,1.041s-0.718,0.451-1.197,0.451c-0.281,0-0.573-0.06-0.875-0.18s-0.513-0.242-0.633-0.367
		c-0.039-0.042-0.059-0.086-0.059-0.133c0-0.042,0.015-0.078,0.045-0.109s0.066-0.047,0.107-0.047s0.088,0.02,0.141,0.059
		c0.404,0.299,0.831,0.449,1.281,0.449c0.38,0,0.699-0.119,0.955-0.357s0.385-0.503,0.385-0.795c0-0.195-0.063-0.387-0.189-0.574
		s-0.308-0.335-0.545-0.443s-0.477-0.162-0.719-0.162c-0.078,0-0.134-0.015-0.168-0.045s-0.051-0.07-0.051-0.119
		c0-0.047,0.016-0.086,0.049-0.117s0.082-0.047,0.146-0.047l0.281,0.004c0.294,0,0.537-0.09,0.729-0.27s0.287-0.388,0.287-0.625
		c0-0.245-0.1-0.461-0.301-0.648s-0.462-0.281-0.785-0.281c-0.227,0-0.435,0.039-0.625,0.117s-0.342,0.185-0.457,0.32
		c-0.042,0.052-0.074,0.084-0.096,0.096s-0.047,0.018-0.076,0.018c-0.044,0-0.082-0.015-0.113-0.045s-0.047-0.066-0.047-0.107
		c0-0.104,0.113-0.236,0.34-0.395c0.315-0.221,0.673-0.332,1.074-0.332c0.414,0,0.754,0.125,1.02,0.373s0.398,0.545,0.398,0.889
		c0,0.219-0.064,0.426-0.191,0.621S87.058,124.939,86.81,125.057z"/>
</g>
<g>
	<path fill="#00A551" d="M168.658,119.65v0.896c0.293-0.355,0.607-0.623,0.943-0.803s0.732-0.27,1.189-0.27
		c0.484,0,0.932,0.113,1.342,0.34s0.728,0.542,0.952,0.946s0.337,0.829,0.337,1.274c0,0.707-0.253,1.312-0.759,1.813
		s-1.128,0.753-1.866,0.753c-0.879,0-1.592-0.357-2.139-1.072v2.965h1.195c0.117,0,0.201,0.022,0.252,0.067s0.076,0.104,0.076,0.179
		c0,0.07-0.025,0.129-0.076,0.176s-0.135,0.07-0.252,0.07h-2.35c-0.117,0-0.201-0.022-0.252-0.067s-0.076-0.104-0.076-0.179
		s0.025-0.134,0.076-0.179s0.135-0.067,0.252-0.067h0.662v-6.346h-0.662c-0.117,0-0.201-0.023-0.252-0.07s-0.076-0.107-0.076-0.182
		c0-0.07,0.025-0.129,0.076-0.176s0.135-0.07,0.252-0.07H168.658z M172.924,122.035c0-0.566-0.206-1.052-0.618-1.456
		s-0.915-0.606-1.509-0.606c-0.598,0-1.104,0.203-1.518,0.609s-0.621,0.891-0.621,1.453c0,0.566,0.207,1.053,0.621,1.459
		s0.92,0.609,1.518,0.609c0.59,0,1.092-0.202,1.506-0.606S172.924,122.605,172.924,122.035z"/>
	<path fill="#00A551" d="M175.102,127.396h2.52v-0.129c0-0.078,0.016-0.134,0.047-0.168s0.072-0.051,0.121-0.051
		c0.047,0,0.086,0.017,0.117,0.051s0.047,0.09,0.047,0.168v0.457h-3.172v-0.484c0.667-0.599,1.315-1.208,1.945-1.828
		c0.294-0.289,0.496-0.501,0.605-0.637s0.184-0.254,0.225-0.357s0.061-0.207,0.061-0.311c0-0.281-0.113-0.53-0.34-0.746
		s-0.5-0.324-0.82-0.324c-0.287,0-0.541,0.082-0.762,0.246s-0.365,0.367-0.43,0.609c-0.016,0.063-0.035,0.103-0.059,0.121
		c-0.031,0.026-0.068,0.039-0.109,0.039c-0.044,0-0.082-0.015-0.111-0.045s-0.045-0.066-0.045-0.107
		c0-0.125,0.068-0.294,0.205-0.508s0.326-0.381,0.566-0.504s0.488-0.184,0.74-0.184c0.409,0,0.76,0.142,1.055,0.426
		s0.441,0.605,0.441,0.965c0,0.151-0.025,0.29-0.074,0.416s-0.133,0.264-0.252,0.414s-0.332,0.375-0.639,0.678
		c-0.771,0.76-1.398,1.35-1.883,1.77V127.396z"/>
</g>
<g>
	<path fill="#00A551" d="M259.367,119.65v0.896c0.293-0.355,0.607-0.623,0.943-0.803s0.732-0.27,1.189-0.27
		c0.484,0,0.932,0.113,1.342,0.34s0.728,0.542,0.952,0.946s0.337,0.829,0.337,1.274c0,0.707-0.253,1.312-0.759,1.813
		s-1.128,0.753-1.866,0.753c-0.879,0-1.592-0.357-2.139-1.072v2.965h1.195c0.117,0,0.201,0.022,0.252,0.067s0.076,0.104,0.076,0.179
		c0,0.07-0.025,0.129-0.076,0.176s-0.135,0.07-0.252,0.07h-2.35c-0.117,0-0.201-0.022-0.252-0.067s-0.076-0.104-0.076-0.179
		s0.025-0.134,0.076-0.179s0.135-0.067,0.252-0.067h0.662v-6.346h-0.662c-0.117,0-0.201-0.023-0.252-0.07s-0.076-0.107-0.076-0.182
		c0-0.07,0.025-0.129,0.076-0.176s0.135-0.07,0.252-0.07H259.367z M263.632,122.035c0-0.566-0.206-1.052-0.618-1.456
		s-0.915-0.606-1.509-0.606c-0.598,0-1.104,0.203-1.518,0.609s-0.621,0.891-0.621,1.453c0,0.566,0.207,1.053,0.621,1.459
		s0.92,0.609,1.518,0.609c0.59,0,1.092-0.202,1.506-0.606S263.632,122.605,263.632,122.035z"/>
	<path fill="#00A551" d="M267.384,122.756v4.641h1.125c0.078,0,0.134,0.015,0.168,0.045s0.051,0.07,0.051,0.119
		c0,0.047-0.017,0.086-0.051,0.117s-0.09,0.047-0.168,0.047h-2.578c-0.078,0-0.134-0.016-0.168-0.047s-0.051-0.07-0.051-0.117
		c0-0.049,0.017-0.089,0.051-0.119s0.09-0.045,0.168-0.045h1.125v-4.188l-1.07,0.336c-0.052,0.016-0.09,0.023-0.113,0.023
		c-0.039,0-0.075-0.016-0.107-0.049s-0.049-0.071-0.049-0.115c0-0.039,0.013-0.076,0.039-0.109c0.021-0.021,0.064-0.043,0.129-0.066
		L267.384,122.756z"/>
</g>
<g>
	<path fill="#00A551" d="M350.076,119.65v0.896c0.293-0.355,0.607-0.623,0.943-0.803s0.732-0.27,1.189-0.27
		c0.484,0,0.932,0.113,1.342,0.34s0.728,0.542,0.952,0.946s0.337,0.829,0.337,1.274c0,0.707-0.253,1.312-0.759,1.813
		s-1.128,0.753-1.866,0.753c-0.879,0-1.592-0.357-2.139-1.072v2.965h1.195c0.117,0,0.201,0.022,0.252,0.067s0.076,0.104,0.076,0.179
		c0,0.07-0.025,0.129-0.076,0.176s-0.135,0.07-0.252,0.07h-2.35c-0.117,0-0.201-0.022-0.252-0.067s-0.076-0.104-0.076-0.179
		s0.025-0.134,0.076-0.179s0.135-0.067,0.252-0.067h0.662v-6.346h-0.662c-0.117,0-0.201-0.023-0.252-0.07s-0.076-0.107-0.076-0.182
		c0-0.07,0.025-0.129,0.076-0.176s0.135-0.07,0.252-0.07H350.076z M354.341,122.035c0-0.566-0.206-1.052-0.618-1.456
		s-0.915-0.606-1.509-0.606c-0.598,0-1.104,0.203-1.518,0.609s-0.621,0.891-0.621,1.453c0,0.566,0.207,1.053,0.621,1.459
		s0.92,0.609,1.518,0.609c0.59,0,1.092-0.202,1.506-0.606S354.341,122.605,354.341,122.035z"/>
	<path fill="#00A551" d="M359.437,124.869v0.813c0,0.706-0.168,1.264-0.504,1.676c-0.263,0.323-0.595,0.484-0.996,0.484
		c-0.193,0-0.375-0.039-0.545-0.115s-0.316-0.184-0.436-0.322c-0.076-0.086-0.158-0.224-0.248-0.414s-0.154-0.365-0.193-0.523
		c-0.06-0.224-0.09-0.486-0.09-0.785v-0.813c0-0.708,0.168-1.268,0.504-1.68c0.263-0.323,0.595-0.484,0.996-0.484
		c0.195,0,0.377,0.039,0.547,0.115s0.314,0.184,0.434,0.322c0.078,0.088,0.162,0.228,0.25,0.418s0.154,0.363,0.195,0.52
		C359.408,124.304,359.437,124.567,359.437,124.869z M359.109,124.912c0-0.31-0.043-0.598-0.131-0.865s-0.186-0.48-0.295-0.639
		c-0.065-0.091-0.15-0.169-0.254-0.234c-0.148-0.091-0.315-0.137-0.5-0.137c-0.367,0-0.655,0.188-0.863,0.563
		s-0.313,0.813-0.313,1.313v0.723c0,0.31,0.043,0.599,0.131,0.867s0.187,0.482,0.299,0.641c0.063,0.088,0.146,0.166,0.25,0.23
		c0.148,0.094,0.316,0.141,0.504,0.141c0.365,0,0.651-0.188,0.859-0.564s0.313-0.814,0.313-1.314V124.912z"/>
</g>
<g>
	<path fill="#231F20" d="M180.425,152.361c0.181-0.171,0.366-0.257,0.557-0.257c0.215,0,0.392,0.077,0.531,0.231
		c0.14,0.153,0.209,0.409,0.209,0.765v0.967c0,0.361-0.069,0.618-0.209,0.77c-0.139,0.151-0.321,0.227-0.545,0.227
		c-0.205,0-0.378-0.059-0.52-0.176c-0.103-0.088-0.183-0.267-0.242-0.538c-0.059-0.271-0.2-0.472-0.425-0.604
		c-0.396-0.234-0.901-0.352-1.516-0.352c-0.708,0-1.276,0.208-1.703,0.623s-0.641,0.939-0.641,1.574
		c0,0.586,0.205,1.049,0.615,1.389s1.091,0.509,2.043,0.509c0.625,0,1.135-0.063,1.531-0.19c0.234-0.078,0.457-0.211,0.667-0.399
		c0.21-0.188,0.4-0.282,0.571-0.282c0.205,0,0.382,0.076,0.531,0.228s0.224,0.329,0.224,0.534c0,0.332-0.227,0.647-0.681,0.945
		c-0.674,0.444-1.66,0.666-2.959,0.666c-1.167,0-2.075-0.241-2.725-0.725c-0.879-0.649-1.318-1.538-1.318-2.666
		c0-1.069,0.356-1.954,1.069-2.655c0.713-0.7,1.643-1.051,2.791-1.051c0.415,0,0.801,0.039,1.157,0.117
		S180.123,152.205,180.425,152.361z"/>
	<path fill="#231F20" d="M187.837,149.241v7.998h1.802c0.361,0,0.619,0.069,0.773,0.209c0.153,0.139,0.23,0.32,0.23,0.545
		c0,0.221-0.077,0.399-0.23,0.539c-0.154,0.139-0.412,0.209-0.773,0.209h-5.105c-0.361,0-0.619-0.07-0.772-0.209
		c-0.154-0.14-0.231-0.321-0.231-0.546c0-0.22,0.077-0.399,0.231-0.538c0.153-0.14,0.411-0.209,0.772-0.209h1.802v-6.496h-1.208
		c-0.356,0-0.613-0.07-0.769-0.209c-0.156-0.14-0.234-0.321-0.234-0.546c0-0.22,0.077-0.399,0.23-0.538
		c0.154-0.14,0.412-0.209,0.773-0.209H187.837z"/>
	<path fill="#231F20" d="M197.439,158.741v-0.352c-0.376,0.199-0.791,0.35-1.245,0.45c-0.454,0.1-0.867,0.149-1.238,0.149
		c-0.806,0-1.46-0.213-1.963-0.641c-0.503-0.427-0.754-0.899-0.754-1.417c0-0.63,0.321-1.214,0.963-1.754s1.53-0.81,2.663-0.81
		c0.454,0,0.979,0.049,1.575,0.146v-0.359c0-0.225-0.097-0.407-0.289-0.549c-0.193-0.142-0.561-0.213-1.103-0.213
		c-0.444,0-1.021,0.088-1.729,0.264c-0.264,0.064-0.469,0.096-0.615,0.096c-0.2,0-0.37-0.072-0.509-0.216
		c-0.14-0.144-0.209-0.329-0.209-0.554c0-0.127,0.024-0.236,0.073-0.329s0.117-0.167,0.205-0.224
		c0.088-0.056,0.271-0.123,0.549-0.201c0.371-0.103,0.75-0.184,1.135-0.245s0.735-0.092,1.047-0.092
		c0.933,0,1.656,0.201,2.171,0.604c0.515,0.402,0.773,0.953,0.773,1.651v3.091h0.256c0.361,0,0.619,0.069,0.772,0.209
		c0.154,0.139,0.231,0.32,0.231,0.545c0,0.221-0.077,0.399-0.231,0.539c-0.153,0.139-0.411,0.209-0.772,0.209H197.439z
		 M197.439,156.053c-0.601-0.117-1.155-0.176-1.663-0.176c-0.61,0-1.135,0.149-1.575,0.446c-0.273,0.191-0.41,0.384-0.41,0.579
		c0,0.142,0.066,0.257,0.198,0.345c0.244,0.16,0.579,0.241,1.003,0.241c0.361,0,0.77-0.071,1.227-0.212
		c0.457-0.143,0.863-0.335,1.22-0.579V156.053z"/>
</g>
<rect x="28.346" y="45.354" fill="#EAEAFF" stroke="#231F20" stroke-width="2" stroke-miterlimit="10" width="56.693" height="56.693"/>
<g>
	<path fill="#231F20" d="M43.427,77.04V79.5h0.901c0.361,0,0.619,0.069,0.772,0.209c0.154,0.139,0.231,0.321,0.231,0.545
		c0,0.22-0.077,0.399-0.231,0.539c-0.153,0.139-0.411,0.208-0.772,0.208h-2.659c-0.361,0-0.619-0.07-0.773-0.208
		c-0.153-0.14-0.23-0.319-0.23-0.539c0-0.225,0.078-0.407,0.234-0.545c0.156-0.14,0.413-0.209,0.769-0.209h0.256v-6.782h-0.256
		c-0.361,0-0.619-0.069-0.773-0.209c-0.153-0.139-0.23-0.321-0.23-0.545c0-0.22,0.077-0.399,0.23-0.539
		c0.154-0.139,0.412-0.208,0.773-0.208h1.758v0.513c0.352-0.239,0.715-0.417,1.091-0.535s0.762-0.176,1.157-0.176
		c1.025,0,1.899,0.348,2.622,1.044c0.723,0.695,1.084,1.493,1.084,2.391c0,0.991-0.427,1.809-1.282,2.454
		c-0.713,0.537-1.516,0.806-2.41,0.806c-0.386,0-0.767-0.056-1.143-0.168S43.798,77.264,43.427,77.04z M47.88,74.461
		c0-0.21-0.083-0.477-0.249-0.802s-0.421-0.596-0.765-0.813c-0.345-0.217-0.749-0.326-1.212-0.326c-0.747,0-1.34,0.281-1.78,0.842
		c-0.298,0.386-0.447,0.757-0.447,1.113c0,0.4,0.213,0.79,0.641,1.168c0.427,0.379,0.956,0.568,1.585,0.568
		c0.635,0,1.165-0.188,1.589-0.564S47.88,74.876,47.88,74.461z"/>
	<path fill="#231F20" d="M54.281,72.718v3.647h2.139c0.361,0,0.619,0.069,0.773,0.209c0.153,0.139,0.23,0.321,0.23,0.545
		c0,0.22-0.077,0.399-0.23,0.539c-0.154,0.139-0.412,0.208-0.773,0.208h-4.534c-0.361,0-0.619-0.07-0.772-0.208
		c-0.154-0.14-0.231-0.321-0.231-0.546c0-0.22,0.077-0.399,0.231-0.538c0.153-0.14,0.411-0.209,0.772-0.209h0.894v-3.647h-0.718
		c-0.361,0-0.619-0.069-0.772-0.209c-0.154-0.139-0.231-0.321-0.231-0.545c0-0.22,0.077-0.399,0.231-0.539
		c0.153-0.139,0.411-0.208,0.772-0.208h0.718v-0.571c0-0.654,0.245-1.198,0.736-1.629c0.49-0.433,1.202-0.648,2.135-0.648
		c0.415,0,0.895,0.038,1.439,0.113c0.544,0.076,0.894,0.182,1.047,0.319c0.154,0.137,0.231,0.313,0.231,0.527
		c0,0.229-0.068,0.417-0.205,0.56c-0.137,0.145-0.305,0.216-0.505,0.216c-0.093,0-0.232-0.017-0.417-0.051
		c-0.62-0.122-1.169-0.183-1.648-0.183c-0.498,0-0.841,0.075-1.029,0.223c-0.188,0.149-0.282,0.333-0.282,0.553v0.571h2.314
		c0.361,0,0.619,0.07,0.773,0.208c0.153,0.14,0.23,0.321,0.23,0.546c0,0.22-0.077,0.399-0.23,0.538
		c-0.154,0.14-0.412,0.209-0.773,0.209H54.281z"/>
	<path fill="#231F20" d="M64.645,77.867v-0.352c-0.376,0.2-0.791,0.351-1.245,0.451c-0.454,0.1-0.867,0.15-1.238,0.15
		c-0.806,0-1.46-0.214-1.963-0.641c-0.503-0.427-0.754-0.899-0.754-1.417c0-0.63,0.321-1.214,0.963-1.754s1.53-0.81,2.663-0.81
		c0.454,0,0.979,0.049,1.575,0.146v-0.359c0-0.225-0.097-0.408-0.289-0.549c-0.193-0.142-0.561-0.212-1.103-0.212
		c-0.444,0-1.021,0.088-1.729,0.264c-0.264,0.063-0.469,0.095-0.615,0.095c-0.2,0-0.37-0.072-0.509-0.216
		c-0.14-0.144-0.209-0.329-0.209-0.553c0-0.127,0.024-0.237,0.073-0.33s0.117-0.167,0.205-0.224
		c0.088-0.056,0.271-0.123,0.549-0.201c0.371-0.103,0.75-0.184,1.135-0.245s0.735-0.092,1.047-0.092
		c0.933,0,1.656,0.201,2.171,0.604c0.515,0.402,0.773,0.953,0.773,1.651v3.091h0.256c0.361,0,0.619,0.069,0.772,0.209
		c0.154,0.139,0.231,0.321,0.231,0.545c0,0.22-0.077,0.399-0.231,0.539c-0.153,0.139-0.411,0.208-0.772,0.208H64.645z
		 M64.645,75.179c-0.601-0.117-1.155-0.176-1.663-0.176c-0.61,0-1.135,0.149-1.575,0.447c-0.273,0.19-0.41,0.383-0.41,0.579
		c0,0.142,0.066,0.256,0.198,0.344c0.244,0.161,0.579,0.242,1.003,0.242c0.361,0,0.77-0.071,1.227-0.212s0.863-0.334,1.22-0.579
		V75.179z"/>
	<path fill="#231F20" d="M71.337,78.191c0.237,0.162,0.414,0.348,0.531,0.561s0.176,0.45,0.176,0.713
		c0,0.284-0.078,0.546-0.232,0.787s-0.379,0.423-0.674,0.547s-0.68,0.186-1.156,0.186c-0.62,0-1.086-0.096-1.398-0.289
		c-0.174-0.109-0.262-0.24-0.262-0.391c0-0.115,0.039-0.211,0.115-0.291s0.17-0.119,0.279-0.119c0.076,0,0.154,0.026,0.234,0.078
		c0.115,0.078,0.223,0.13,0.324,0.156c0.156,0.037,0.371,0.055,0.645,0.055c0.466,0,0.803-0.061,1.012-0.182
		s0.313-0.292,0.313-0.514c0-0.164-0.061-0.322-0.182-0.475s-0.283-0.27-0.486-0.354c-0.117-0.047-0.315-0.08-0.594-0.098
		c-0.133-0.008-0.235-0.049-0.307-0.123s-0.107-0.166-0.107-0.275c0-0.115,0.039-0.211,0.117-0.289s0.177-0.117,0.297-0.117
		c0.266,0,0.408-0.001,0.426-0.004c0.104-0.01,0.208-0.044,0.313-0.102s0.188-0.136,0.252-0.236s0.096-0.204,0.096-0.311
		c0-0.169-0.075-0.316-0.225-0.439s-0.375-0.186-0.674-0.186c-0.385,0-0.68,0.112-0.883,0.336c-0.06,0.065-0.108,0.107-0.145,0.125
		c-0.055,0.029-0.116,0.043-0.184,0.043c-0.109,0-0.203-0.039-0.281-0.117s-0.117-0.174-0.117-0.289c0-0.18,0.12-0.354,0.359-0.523
		c0.349-0.248,0.785-0.371,1.309-0.371c0.495,0,0.892,0.141,1.191,0.422s0.449,0.62,0.449,1.016c0,0.206-0.044,0.398-0.133,0.576
		S71.515,78.041,71.337,78.191z"/>
</g>
<rect x="118.609" y="45.354" fill="#EAEAFF" stroke="#231F20" stroke-width="2" stroke-miterlimit="10" width="56.693" height="56.693"/>
<g>
	<path fill="#231F20" d="M133.69,77.04V79.5h0.901c0.361,0,0.619,0.069,0.772,0.209c0.154,0.139,0.231,0.321,0.231,0.545
		c0,0.22-0.077,0.399-0.231,0.539c-0.153,0.139-0.411,0.208-0.772,0.208h-2.659c-0.361,0-0.619-0.07-0.773-0.208
		c-0.153-0.14-0.23-0.319-0.23-0.539c0-0.225,0.078-0.407,0.234-0.545c0.156-0.14,0.413-0.209,0.769-0.209h0.256v-6.782h-0.256
		c-0.361,0-0.619-0.069-0.773-0.209c-0.153-0.139-0.23-0.321-0.23-0.545c0-0.22,0.077-0.399,0.23-0.539
		c0.154-0.139,0.412-0.208,0.773-0.208h1.758v0.513c0.352-0.239,0.715-0.417,1.091-0.535s0.762-0.176,1.157-0.176
		c1.025,0,1.899,0.348,2.622,1.044c0.723,0.695,1.084,1.493,1.084,2.391c0,0.991-0.427,1.809-1.282,2.454
		c-0.713,0.537-1.516,0.806-2.41,0.806c-0.386,0-0.767-0.056-1.143-0.168S134.061,77.264,133.69,77.04z M138.143,74.461
		c0-0.21-0.083-0.477-0.249-0.802s-0.421-0.596-0.765-0.813c-0.345-0.217-0.749-0.326-1.212-0.326c-0.747,0-1.34,0.281-1.78,0.842
		c-0.298,0.386-0.447,0.757-0.447,1.113c0,0.4,0.213,0.79,0.641,1.168c0.427,0.379,0.956,0.568,1.585,0.568
		c0.635,0,1.165-0.188,1.589-0.564S138.143,74.876,138.143,74.461z"/>
	<path fill="#231F20" d="M144.544,72.718v3.647h2.139c0.361,0,0.619,0.069,0.773,0.209c0.153,0.139,0.23,0.321,0.23,0.545
		c0,0.22-0.077,0.399-0.23,0.539c-0.154,0.139-0.412,0.208-0.773,0.208h-4.534c-0.361,0-0.619-0.07-0.772-0.208
		c-0.154-0.14-0.231-0.321-0.231-0.546c0-0.22,0.077-0.399,0.231-0.538c0.153-0.14,0.411-0.209,0.772-0.209h0.894v-3.647h-0.718
		c-0.361,0-0.619-0.069-0.772-0.209c-0.154-0.139-0.231-0.321-0.231-0.545c0-0.22,0.077-0.399,0.231-0.539
		c0.153-0.139,0.411-0.208,0.772-0.208h0.718v-0.571c0-0.654,0.245-1.198,0.736-1.629c0.49-0.433,1.202-0.648,2.135-0.648
		c0.415,0,0.895,0.038,1.439,0.113c0.544,0.076,0.894,0.182,1.047,0.319c0.154,0.137,0.231,0.313,0.231,0.527
		c0,0.229-0.068,0.417-0.205,0.56c-0.137,0.145-0.305,0.216-0.505,0.216c-0.093,0-0.232-0.017-0.417-0.051
		c-0.62-0.122-1.169-0.183-1.648-0.183c-0.498,0-0.841,0.075-1.029,0.223c-0.188,0.149-0.282,0.333-0.282,0.553v0.571h2.314
		c0.361,0,0.619,0.07,0.773,0.208c0.153,0.14,0.23,0.321,0.23,0.546c0,0.22-0.077,0.399-0.23,0.538
		c-0.154,0.14-0.412,0.209-0.773,0.209H144.544z"/>
	<path fill="#231F20" d="M154.908,77.867v-0.352c-0.376,0.2-0.791,0.351-1.245,0.451c-0.454,0.1-0.867,0.15-1.238,0.15
		c-0.806,0-1.46-0.214-1.963-0.641c-0.503-0.427-0.754-0.899-0.754-1.417c0-0.63,0.321-1.214,0.963-1.754s1.53-0.81,2.663-0.81
		c0.454,0,0.979,0.049,1.575,0.146v-0.359c0-0.225-0.097-0.408-0.289-0.549c-0.193-0.142-0.561-0.212-1.103-0.212
		c-0.444,0-1.021,0.088-1.729,0.264c-0.264,0.063-0.469,0.095-0.615,0.095c-0.2,0-0.37-0.072-0.509-0.216
		c-0.14-0.144-0.209-0.329-0.209-0.553c0-0.127,0.024-0.237,0.073-0.33s0.117-0.167,0.205-0.224
		c0.088-0.056,0.271-0.123,0.549-0.201c0.371-0.103,0.75-0.184,1.135-0.245s0.735-0.092,1.047-0.092
		c0.933,0,1.656,0.201,2.171,0.604c0.515,0.402,0.773,0.953,0.773,1.651v3.091h0.256c0.361,0,0.619,0.069,0.772,0.209
		c0.154,0.139,0.231,0.321,0.231,0.545c0,0.22-0.077,0.399-0.231,0.539c-0.153,0.139-0.411,0.208-0.772,0.208H154.908z
		 M154.908,75.179c-0.601-0.117-1.155-0.176-1.663-0.176c-0.61,0-1.135,0.149-1.575,0.447c-0.273,0.19-0.41,0.383-0.41,0.579
		c0,0.142,0.066,0.256,0.198,0.344c0.244,0.161,0.579,0.242,1.003,0.242c0.361,0,0.77-0.071,1.227-0.212s0.863-0.334,1.22-0.579
		V75.179z"/>
	<path fill="#231F20" d="M159.71,80.066h1.754c0.096-0.078,0.188-0.117,0.273-0.117c0.123,0,0.219,0.041,0.291,0.121
		s0.107,0.219,0.107,0.414v0.383h-3.648V80.02c1.443-1.19,2.314-1.956,2.613-2.297c0.151-0.174,0.227-0.34,0.227-0.496
		c0-0.195-0.085-0.368-0.256-0.518s-0.398-0.225-0.682-0.225c-0.287,0-0.525,0.083-0.715,0.25c-0.099,0.088-0.178,0.22-0.238,0.395
		c-0.037,0.109-0.086,0.188-0.15,0.234s-0.143,0.07-0.236,0.07c-0.109,0-0.204-0.039-0.283-0.117s-0.119-0.169-0.119-0.273
		c0-0.156,0.072-0.352,0.217-0.586s0.355-0.422,0.633-0.563s0.579-0.211,0.904-0.211c0.505,0,0.919,0.153,1.242,0.459
		s0.484,0.676,0.484,1.111c0,0.221-0.046,0.426-0.139,0.615s-0.314,0.45-0.666,0.783C161.047,78.916,160.509,79.387,159.71,80.066z"
		/>
</g>
<rect x="209.764" y="45.354" fill="#EAEAFF" stroke="#231F20" stroke-width="2" stroke-miterlimit="10" width="56.693" height="56.693"/>
<rect x="300.472" y="45.354" fill="#EAEAFF" stroke="#231F20" stroke-width="2" stroke-miterlimit="10" width="56.693" height="56.693"/>
<g>
	<path fill="#231F20" d="M224.844,77.04V79.5h0.901c0.361,0,0.619,0.069,0.772,0.209c0.154,0.139,0.231,0.321,0.231,0.545
		c0,0.22-0.077,0.399-0.231,0.539c-0.153,0.139-0.411,0.208-0.772,0.208h-2.659c-0.361,0-0.619-0.07-0.773-0.208
		c-0.153-0.14-0.23-0.319-0.23-0.539c0-0.225,0.078-0.407,0.234-0.545c0.156-0.14,0.413-0.209,0.769-0.209h0.256v-6.782h-0.256
		c-0.361,0-0.619-0.069-0.773-0.209c-0.153-0.139-0.23-0.321-0.23-0.545c0-0.22,0.077-0.399,0.23-0.539
		c0.154-0.139,0.412-0.208,0.773-0.208h1.758v0.513c0.352-0.239,0.715-0.417,1.091-0.535s0.762-0.176,1.157-0.176
		c1.025,0,1.899,0.348,2.622,1.044c0.723,0.695,1.084,1.493,1.084,2.391c0,0.991-0.427,1.809-1.282,2.454
		c-0.713,0.537-1.516,0.806-2.41,0.806c-0.386,0-0.767-0.056-1.143-0.168S225.215,77.264,224.844,77.04z M229.297,74.461
		c0-0.21-0.083-0.477-0.249-0.802s-0.421-0.596-0.765-0.813c-0.345-0.217-0.749-0.326-1.212-0.326c-0.747,0-1.34,0.281-1.78,0.842
		c-0.298,0.386-0.447,0.757-0.447,1.113c0,0.4,0.213,0.79,0.641,1.168c0.427,0.379,0.956,0.568,1.585,0.568
		c0.635,0,1.165-0.188,1.589-0.564S229.297,74.876,229.297,74.461z"/>
	<path fill="#231F20" d="M235.699,72.718v3.647h2.139c0.361,0,0.619,0.069,0.773,0.209c0.153,0.139,0.23,0.321,0.23,0.545
		c0,0.22-0.077,0.399-0.23,0.539c-0.154,0.139-0.412,0.208-0.773,0.208h-4.534c-0.361,0-0.619-0.07-0.772-0.208
		c-0.154-0.14-0.231-0.321-0.231-0.546c0-0.22,0.077-0.399,0.231-0.538c0.153-0.14,0.411-0.209,0.772-0.209h0.894v-3.647h-0.718
		c-0.361,0-0.619-0.069-0.772-0.209c-0.154-0.139-0.231-0.321-0.231-0.545c0-0.22,0.077-0.399,0.231-0.539
		c0.153-0.139,0.411-0.208,0.772-0.208h0.718v-0.571c0-0.654,0.245-1.198,0.736-1.629c0.49-0.433,1.202-0.648,2.135-0.648
		c0.415,0,0.895,0.038,1.439,0.113c0.544,0.076,0.894,0.182,1.047,0.319c0.154,0.137,0.231,0.313,0.231,0.527
		c0,0.229-0.068,0.417-0.205,0.56c-0.137,0.145-0.305,0.216-0.505,0.216c-0.093,0-0.232-0.017-0.417-0.051
		c-0.62-0.122-1.169-0.183-1.648-0.183c-0.498,0-0.841,0.075-1.029,0.223c-0.188,0.149-0.282,0.333-0.282,0.553v0.571h2.314
		c0.361,0,0.619,0.07,0.773,0.208c0.153,0.14,0.23,0.321,0.23,0.546c0,0.22-0.077,0.399-0.23,0.538
		c-0.154,0.14-0.412,0.209-0.773,0.209H235.699z"/>
	<path fill="#231F20" d="M246.063,77.867v-0.352c-0.376,0.2-0.791,0.351-1.245,0.451c-0.454,0.1-0.867,0.15-1.238,0.15
		c-0.806,0-1.46-0.214-1.963-0.641c-0.503-0.427-0.754-0.899-0.754-1.417c0-0.63,0.321-1.214,0.963-1.754s1.53-0.81,2.663-0.81
		c0.454,0,0.979,0.049,1.575,0.146v-0.359c0-0.225-0.097-0.408-0.289-0.549c-0.193-0.142-0.561-0.212-1.103-0.212
		c-0.444,0-1.021,0.088-1.729,0.264c-0.264,0.063-0.469,0.095-0.615,0.095c-0.2,0-0.37-0.072-0.509-0.216
		c-0.14-0.144-0.209-0.329-0.209-0.553c0-0.127,0.024-0.237,0.073-0.33s0.117-0.167,0.205-0.224
		c0.088-0.056,0.271-0.123,0.549-0.201c0.371-0.103,0.75-0.184,1.135-0.245s0.735-0.092,1.047-0.092
		c0.933,0,1.656,0.201,2.171,0.604c0.515,0.402,0.773,0.953,0.773,1.651v3.091h0.256c0.361,0,0.619,0.069,0.772,0.209
		c0.154,0.139,0.231,0.321,0.231,0.545c0,0.22-0.077,0.399-0.231,0.539c-0.153,0.139-0.411,0.208-0.772,0.208H246.063z
		 M246.063,75.179c-0.601-0.117-1.155-0.176-1.663-0.176c-0.61,0-1.135,0.149-1.575,0.447c-0.273,0.19-0.41,0.383-0.41,0.579
		c0,0.142,0.066,0.256,0.198,0.344c0.244,0.161,0.579,0.242,1.003,0.242c0.361,0,0.77-0.071,1.227-0.212s0.863-0.334,1.22-0.579
		V75.179z"/>
	<path fill="#231F20" d="M252.021,75.684v4.383h0.809c0.193,0,0.33,0.037,0.412,0.111s0.123,0.171,0.123,0.291
		c0,0.117-0.041,0.213-0.123,0.287s-0.219,0.111-0.412,0.111h-2.418c-0.193,0-0.33-0.037-0.412-0.111s-0.123-0.171-0.123-0.291
		c0-0.117,0.041-0.213,0.123-0.287s0.219-0.111,0.412-0.111h0.809v-3.34l-0.715,0.188c-0.115,0.031-0.201,0.047-0.258,0.047
		c-0.102,0-0.189-0.041-0.264-0.121s-0.111-0.18-0.111-0.297c0-0.107,0.027-0.191,0.082-0.252s0.169-0.115,0.344-0.162
		L252.021,75.684z"/>
</g>
<g>
	<path fill="#231F20" d="M315.554,77.04V79.5h0.901c0.361,0,0.619,0.069,0.772,0.209c0.154,0.139,0.231,0.321,0.231,0.545
		c0,0.22-0.077,0.399-0.231,0.539c-0.153,0.139-0.411,0.208-0.772,0.208h-2.659c-0.361,0-0.619-0.07-0.773-0.208
		c-0.153-0.14-0.23-0.319-0.23-0.539c0-0.225,0.078-0.407,0.234-0.545c0.156-0.14,0.413-0.209,0.769-0.209h0.256v-6.782h-0.256
		c-0.361,0-0.619-0.069-0.773-0.209c-0.153-0.139-0.23-0.321-0.23-0.545c0-0.22,0.077-0.399,0.23-0.539
		c0.154-0.139,0.412-0.208,0.773-0.208h1.758v0.513c0.352-0.239,0.715-0.417,1.091-0.535s0.762-0.176,1.157-0.176
		c1.025,0,1.899,0.348,2.622,1.044c0.723,0.695,1.084,1.493,1.084,2.391c0,0.991-0.427,1.809-1.282,2.454
		c-0.713,0.537-1.516,0.806-2.41,0.806c-0.386,0-0.767-0.056-1.143-0.168S315.925,77.264,315.554,77.04z M320.007,74.461
		c0-0.21-0.083-0.477-0.249-0.802s-0.421-0.596-0.765-0.813c-0.345-0.217-0.749-0.326-1.212-0.326c-0.747,0-1.34,0.281-1.78,0.842
		c-0.298,0.386-0.447,0.757-0.447,1.113c0,0.4,0.213,0.79,0.641,1.168c0.427,0.379,0.956,0.568,1.585,0.568
		c0.635,0,1.165-0.188,1.589-0.564S320.007,74.876,320.007,74.461z"/>
	<path fill="#231F20" d="M326.408,72.718v3.647h2.139c0.361,0,0.619,0.069,0.773,0.209c0.153,0.139,0.23,0.321,0.23,0.545
		c0,0.22-0.077,0.399-0.23,0.539c-0.154,0.139-0.412,0.208-0.773,0.208h-4.534c-0.361,0-0.619-0.07-0.772-0.208
		c-0.154-0.14-0.231-0.321-0.231-0.546c0-0.22,0.077-0.399,0.231-0.538c0.153-0.14,0.411-0.209,0.772-0.209h0.894v-3.647h-0.718
		c-0.361,0-0.619-0.069-0.772-0.209c-0.154-0.139-0.231-0.321-0.231-0.545c0-0.22,0.077-0.399,0.231-0.539
		c0.153-0.139,0.411-0.208,0.772-0.208h0.718v-0.571c0-0.654,0.245-1.198,0.736-1.629c0.49-0.433,1.202-0.648,2.135-0.648
		c0.415,0,0.895,0.038,1.439,0.113c0.544,0.076,0.894,0.182,1.047,0.319c0.154,0.137,0.231,0.313,0.231,0.527
		c0,0.229-0.068,0.417-0.205,0.56c-0.137,0.145-0.305,0.216-0.505,0.216c-0.093,0-0.232-0.017-0.417-0.051
		c-0.62-0.122-1.169-0.183-1.648-0.183c-0.498,0-0.841,0.075-1.029,0.223c-0.188,0.149-0.282,0.333-0.282,0.553v0.571h2.314
		c0.361,0,0.619,0.07,0.773,0.208c0.153,0.14,0.23,0.321,0.23,0.546c0,0.22-0.077,0.399-0.23,0.538
		c-0.154,0.14-0.412,0.209-0.773,0.209H326.408z"/>
	<path fill="#231F20" d="M336.772,77.867v-0.352c-0.376,0.2-0.791,0.351-1.245,0.451c-0.454,0.1-0.867,0.15-1.238,0.15
		c-0.806,0-1.46-0.214-1.963-0.641c-0.503-0.427-0.754-0.899-0.754-1.417c0-0.63,0.321-1.214,0.963-1.754s1.53-0.81,2.663-0.81
		c0.454,0,0.979,0.049,1.575,0.146v-0.359c0-0.225-0.097-0.408-0.289-0.549c-0.193-0.142-0.561-0.212-1.103-0.212
		c-0.444,0-1.021,0.088-1.729,0.264c-0.264,0.063-0.469,0.095-0.615,0.095c-0.2,0-0.37-0.072-0.509-0.216
		c-0.14-0.144-0.209-0.329-0.209-0.553c0-0.127,0.024-0.237,0.073-0.33s0.117-0.167,0.205-0.224
		c0.088-0.056,0.271-0.123,0.549-0.201c0.371-0.103,0.75-0.184,1.135-0.245s0.735-0.092,1.047-0.092
		c0.933,0,1.656,0.201,2.171,0.604c0.515,0.402,0.773,0.953,0.773,1.651v3.091h0.256c0.361,0,0.619,0.069,0.772,0.209
		c0.154,0.139,0.231,0.321,0.231,0.545c0,0.22-0.077,0.399-0.231,0.539c-0.153,0.139-0.411,0.208-0.772,0.208H336.772z
		 M336.772,75.179c-0.601-0.117-1.155-0.176-1.663-0.176c-0.61,0-1.135,0.149-1.575,0.447c-0.273,0.19-0.41,0.383-0.41,0.579
		c0,0.142,0.066,0.256,0.198,0.344c0.244,0.161,0.579,0.242,1.003,0.242c0.361,0,0.77-0.071,1.227-0.212s0.863-0.334,1.22-0.579
		V75.179z"/>
	<path fill="#231F20" d="M344.07,77.895v0.879c0,0.521-0.15,1.02-0.451,1.496s-0.731,0.715-1.291,0.715
		c-0.323,0-0.596-0.071-0.818-0.213s-0.434-0.404-0.633-0.785s-0.299-0.786-0.299-1.213v-0.879c0-0.518,0.15-1.016,0.449-1.494
		s0.729-0.717,1.289-0.717c0.32,0,0.592,0.07,0.814,0.211s0.435,0.402,0.637,0.783S344.07,77.465,344.07,77.895z M343.265,77.895
		c0-0.435-0.121-0.815-0.363-1.141c-0.138-0.18-0.332-0.27-0.582-0.27c-0.242,0-0.44,0.099-0.594,0.297
		c-0.232,0.299-0.348,0.67-0.348,1.113v0.879c0,0.438,0.123,0.818,0.367,1.141c0.135,0.18,0.33,0.27,0.582,0.27
		c0.24,0,0.436-0.099,0.59-0.297c0.232-0.299,0.348-0.67,0.348-1.113V77.895z"/>
</g>
<line fill="none" stroke="#EC1C24" stroke-miterlimit="10" x1="379.843" y1="153.071" x2="368.504" y2="153.071"/>
</svg>
