<?xml version="1.0" encoding="utf-8"?>
<!-- Generator: Adobe Illustrator 15.0.0, SVG Export Plug-In . SVG Version: 6.00 Build 0)  -->
<!DOCTYPE svg PUBLIC "-//W3C//DTD SVG 1.1//EN" "http://www.w3.org/Graphics/SVG/1.1/DTD/svg11.dtd">
<svg version="1.1" id="Layer_1" xmlns="http://www.w3.org/2000/svg" xmlns:xlink="http://www.w3.org/1999/xlink" x="0px" y="0px"
	 width="236.25px" height="240.5px" viewBox="308.25 123.5 236.25 240.5" enable-background="new 308.25 123.5 236.25 240.5"
	 xml:space="preserve">
<title>glps_renderer figure</title>
<desc>Creator: GL2PS 1.3.8, (C) 1999-2012 C. Geuzaine
For: Octave
CreationDate: Wed Jan 13 09:39:28 2016</desc>
<line fill="none" stroke="#000000" stroke-width="0.5" stroke-dasharray="16,0" x1="336.211" y1="338.477" x2="537.75" y2="338.477"/>
<line fill="none" stroke="#000000" stroke-width="0.5" stroke-dasharray="16,0" x1="336.211" y1="338.477" x2="336.211" y2="127.5"/>
<line fill="none" stroke="#000000" stroke-width="0.5" stroke-dasharray="16,0" x1="336.211" y1="127.5" x2="336.211" y2="130.072"/>
<polyline fill="none" stroke="#00FF00" stroke-width="2" points="332.75,268.15 370.238,187.771 439.722,157.11 510.236,252.252 
	537.4,321.592 "/>
<g>
	<text transform="matrix(0 -1 1 0 322.2305 221.5762)" enable-background="new    "><tspan x="0" y="0" font-family="'STIXMath-Regular'" font-size="15">R</tspan><tspan x="10.005" y="3" font-family="'STIXMath-Regular'" font-size="10">xx</tspan><tspan x="20.005" y="0" font-family="'STIXMath-Regular'" font-size="15">(k)</tspan></text>
	<g>
		<g>
			<line fill="none" stroke="#000000" stroke-dasharray="16,0" x1="318.52" y1="181.738" x2="318.52" y2="153.836"/>
			<g>
				<polygon points="321.7,159.747 320.76,160.089 318.52,153.934 316.279,160.089 315.34,159.747 318.52,151.01 				"/>
			</g>
		</g>
	</g>
</g>
<text transform="matrix(1.2159 0 0 1 472.6338 360.748)" font-family="'STIXMath-Regular'" font-size="12.3366">k</text>
<text transform="matrix(1 0 0 1 426.375 309.1504)" font-family="'STIXMath-Regular'" font-size="15">δ</text>
<text transform="matrix(1.0234 0 0 1 365.8838 348.5)" opacity="0.5" enable-background="new    "><tspan x="0" y="0" font-family="'STIXMath-Regular'" font-size="10">k</tspan><tspan x="5" y="3" font-family="'STIXMath-Regular'" font-size="8">1</tspan></text>
<g>
	<g>
		<line fill="none" stroke="#000000" stroke-dasharray="16,0" x1="481.692" y1="357.476" x2="509.594" y2="357.476"/>
		<g>
			<polygon points="503.684,360.656 503.342,359.716 509.496,357.476 503.342,355.235 503.684,354.296 512.42,357.476 			"/>
		</g>
	</g>
</g>
<g>
	<g>
		
			<line fill="none" stroke="#000000" stroke-width="0.7" stroke-dasharray="16,0" x1="424.978" y1="313.5" x2="437.306" y2="313.5"/>
		<g>
			<polygon points="429.116,315.727 429.355,315.068 425.046,313.5 429.355,311.932 429.116,311.274 423,313.5 			"/>
		</g>
		<g>
			<polygon points="433.167,315.727 432.928,315.068 437.237,313.5 432.928,311.932 433.167,311.274 439.283,313.5 			"/>
		</g>
	</g>
</g>
<line opacity="0.3" fill="none" stroke="#000000" stroke-width="0.5" stroke-dasharray="3,2" x1="370.489" y1="129.5" x2="370.489" y2="339.203"/>
<text transform="matrix(1.0234 0 0 1 434.6787 348.5)" opacity="0.5" enable-background="new    "><tspan x="0" y="0" font-family="'STIXMath-Regular'" font-size="10">k</tspan><tspan x="5" y="3" font-family="'STIXMath-Regular'" font-size="8">2</tspan></text>
<text transform="matrix(1.0234 0 0 1 507.0049 348.5)" opacity="0.5" enable-background="new    "><tspan x="0" y="0" font-family="'STIXMath-Regular'" font-size="10">k</tspan><tspan x="5" y="3" font-family="'STIXMath-Regular'" font-size="8">3</tspan></text>
<line opacity="0.3" fill="none" stroke="#000000" stroke-width="0.5" stroke-dasharray="3,2" x1="439.283" y1="129.5" x2="439.283" y2="339.203"/>
<text transform="matrix(1.0234 0 0 1 418.3955 348.5)" enable-background="new    "><tspan x="0" y="0" font-family="'STIXMath-Regular'" font-size="10">k</tspan><tspan x="5" y="3" font-family="'STIXMath-Regular'" font-size="8">m</tspan></text>
<line opacity="0.3" fill="none" stroke="#000000" stroke-width="0.5" x1="423" y1="129.5" x2="423" y2="338.477"/>
<line opacity="0.3" fill="none" stroke="#000000" stroke-width="0.5" stroke-dasharray="3,2" x1="509.75" y1="129.5" x2="509.75" y2="339.203"/>
<polyline opacity="0.5" fill="none" stroke="#0000FF" stroke-dasharray="16,4" points="332.953,254.555 334.499,251.06 
	336.046,247.625 337.593,244.252 339.14,240.94 340.688,237.689 342.235,234.501 343.782,231.373 345.328,228.306 346.874,225.301 
	348.422,222.356 349.976,219.473 351.522,216.651 353.067,213.891 354.615,211.191 356.162,208.558 357.711,205.981 
	359.256,203.465 360.804,201.011 362.35,198.618 363.898,196.286 365.444,194.016 366.991,191.811 368.538,189.663 370.085,187.575 
	371.639,185.551 373.187,183.585 374.732,181.683 376.279,179.845 377.826,178.065 379.374,176.345 380.92,174.687 382.466,173.09 
	384.013,171.559 385.56,170.084 387.107,168.671 388.655,167.319 390.203,166.028 391.755,164.803 393.302,163.635 394.849,162.528 
	396.396,161.482 397.942,160.502 399.489,159.579 401.035,158.717 402.583,157.921 404.131,157.181 405.679,156.503 
	407.224,155.886 408.771,155.334 410.318,154.84 411.865,154.406 413.419,154.039 414.964,153.728 416.512,153.479 418.058,153.295 
	419.606,153.167 421.152,153.102 422.699,153.102 424.246,153.158 425.794,153.276 427.341,153.459 428.887,153.7 430.435,154.001 
	431.979,154.369 433.528,154.793 435.082,155.283 436.628,155.829 438.176,156.437 439.722,157.11 441.271,157.841 442.815,158.637 
	444.363,159.489 445.909,160.408 447.456,161.383 449.004,162.419 450.55,163.522 452.098,164.681 453.644,165.906 455.192,167.187 
	456.745,168.534 458.291,169.938 459.839,171.408 461.385,172.934 462.932,174.526 464.479,176.175 466.026,177.89 467.571,179.662 
	469.119,181.498 470.667,183.393 472.215,185.353 473.761,187.368 475.308,189.451 476.86,191.589 478.408,193.794 479.955,196.055 
	481.502,198.382 483.047,200.771 484.595,203.216 486.143,205.727 487.69,208.294 489.237,210.927 490.784,213.622 492.33,216.373 
	493.876,219.19 495.424,222.063 496.971,225.004 498.523,228.004 500.07,231.062 501.619,234.185 503.165,237.365 504.712,240.61 
	506.259,243.918 507.806,247.281 509.352,250.711 510.901,254.201 512.446,257.749 513.994,261.362 515.539,265.036 
	517.087,268.768 518.635,272.564 520.188,276.423 521.735,280.342 523.281,284.318 524.828,288.36 526.376,292.463 527.922,296.623 
	529.468,300.849 531.015,305.136 532.563,309.483 534.11,313.888 535.657,318.358 537.204,322.891 "/>
</svg>
