<?xml version="1.0" encoding="utf-8"?>
<!-- Generator: Adobe Illustrator 15.0.0, SVG Export Plug-In . SVG Version: 6.00 Build 0)  -->
<!DOCTYPE svg PUBLIC "-//W3C//DTD SVG 1.1//EN" "http://www.w3.org/Graphics/SVG/1.1/DTD/svg11.dtd">
<svg version="1.1" id="Layer_1" xmlns="http://www.w3.org/2000/svg" xmlns:xlink="http://www.w3.org/1999/xlink" x="0px" y="0px"
	 width="227.645px" height="268.337px" viewBox="49.101 55.164 227.645 268.337"
	 enable-background="new 49.101 55.164 227.645 268.337" xml:space="preserve">
<title>glps_renderer figure</title>
<desc>Creator: GL2PS 1.3.8, (C) 1999-2012 C. Geuzaine
For: Octave
CreationDate: Wed Jan 13 09:40:40 2016</desc>
<line fill="none" stroke="#000000" stroke-width="0.5" stroke-dasharray="16,0" x1="74.883" y1="118.117" x2="76.734" y2="118.117"/>
<line fill="none" stroke="#000000" stroke-width="0.5" stroke-dasharray="16,0" x1="259.945" y1="118.117" x2="258.098" y2="118.117"/>
<g>
	<polyline fill="none" stroke="#0000FF" stroke-width="1.5" points="74.883,94.25 76.125,84.574 77.367,77.691 78.609,75.758 
		79.852,78.98 81.094,83.926 82.336,88.227 83.578,90.594 84.82,88.441 86.063,83.926 87.305,80.488 88.547,81.777 89.789,81.133 
		91.031,74.035 92.273,69.949 93.512,68.23 94.754,72.531 95.996,81.563 97.238,87.582 98.48,94.465 99.723,100.055 
		100.965,100.914 102.207,99.625 103.449,96.184 104.691,94.035 105.934,94.25 107.176,93.391 108.418,96.184 109.66,100.055 
		110.902,101.129 112.145,101.773 113.387,102.422 114.629,106.723 115.871,110.805 117.113,109.945 118.355,108.012 
		119.598,101.344 120.84,91.668 122.082,82.207 123.324,76.188 124.566,76.188 125.805,80.703 127.047,85.434 128.289,89.09 
		129.531,89.949 130.773,86.723 132.016,82.422 133.258,80.918 134.5,82.852 135.742,79.625 136.984,72.746 138.227,69.09 
		139.469,68.016 140.711,74.465 141.953,83.281 143.195,89.52 144.438,96.828 145.68,100.699 146.922,101.129 148.164,98.766 
		149.406,95.109 150.648,93.605 151.891,93.82 153.133,94.035 154.375,97.473 155.617,100.699 156.859,100.914 158.102,101.988 
		159.34,103.281 160.582,108.012 161.824,110.59 163.066,109.516 164.309,106.723 165.551,99.41 166.793,89.305 168.035,80.059 
		169.277,75.109 170.52,76.832 171.762,81.992 173.004,86.938 174.246,90.379 175.488,89.52 176.73,85.648 177.973,81.348 
		179.215,81.133 180.457,83.281 181.699,77.691 182.941,71.242 184.184,68.66 185.426,69.305 186.668,77.262 187.91,85.004 
		189.152,91.023 190.395,98.121 191.637,101.129 192.875,100.914 194.117,98.121 195.359,94.68 196.602,93.82 197.844,93.176 
		199.086,94.035 200.328,98.98 201.57,101.129 202.813,101.559 204.055,101.773 205.297,104.355 206.539,109.301 207.781,110.375 
		209.023,108.871 210.266,105.215 211.508,96.828 212.75,86.723 213.992,78.121 215.234,75.328 216.477,78.121 217.719,83.066 
		218.961,87.582 220.203,90.594 221.445,89.09 222.688,84.359 223.93,80.918 225.172,81.563 226.41,81.992 227.652,75.758 
		228.895,69.949 230.137,68.016 231.379,71.242 232.621,80.059 233.863,86.723 235.105,92.957 236.348,99.195 237.59,101.129 
		238.832,100.699 240.074,97.043 241.316,93.605 242.559,93.82 243.801,93.391 245.043,94.895 246.285,99.625 247.527,100.914 
		248.77,101.773 250.012,102.207 251.254,105.43 252.496,110.375 253.738,109.945 254.98,108.227 256.223,102.852 257.465,93.176 
		258.707,83.926 259.945,77.047 	"/>
</g>
<line fill="none" stroke="#000000" stroke-width="0.5" stroke-dasharray="16,0" x1="74.883" y1="63.07" x2="74.883" y2="64.922"/>
<line fill="none" stroke="#000000" stroke-width="0.5" stroke-dasharray="16,0" x1="74.883" y1="118.117" x2="74.883" y2="116.266"/>
<line fill="none" stroke="#000000" stroke-dasharray="16,0" x1="74.883" y1="207.752" x2="259.945" y2="207.752"/>
<line fill="none" stroke="#000000" stroke-dasharray="16,0" x1="74.883" y1="207.752" x2="74.883" y2="152.706"/>
<line fill="none" stroke="#000000" stroke-width="0.5" stroke-dasharray="16,0" x1="74.883" y1="207.752" x2="74.883" y2="205.901"/>
<line fill="none" stroke="#000000" stroke-width="0.5" stroke-dasharray="16,0" x1="74.883" y1="152.706" x2="74.883" y2="154.558"/>
<line fill="none" stroke="#000000" stroke-width="0.5" stroke-dasharray="16,0" x1="74.883" y1="207.752" x2="76.734" y2="207.752"/>
<line fill="none" stroke="#000000" stroke-width="0.5" stroke-dasharray="16,0" x1="259.945" y1="207.752" x2="258.098" y2="207.752"/>
<line fill="none" stroke="#000000" stroke-width="0.5" stroke-dasharray="16,0" x1="74.883" y1="180.229" x2="76.734" y2="180.229"/>
<line fill="none" stroke="#000000" stroke-dasharray="16,0" x1="74.883" y1="118.117" x2="74.883" y2="63.07"/>
<line fill="none" stroke="#000000" stroke-dasharray="16,0" x1="73.497" y1="305.31" x2="258.559" y2="305.31"/>
<line fill="none" stroke="#000000" stroke-dasharray="16,0" x1="73.497" y1="305.31" x2="73.497" y2="250.263"/>
<line fill="none" stroke="#000000" stroke-width="0.5" stroke-dasharray="16,0" x1="73.497" y1="305.31" x2="73.497" y2="303.458"/>
<line fill="none" stroke="#000000" stroke-width="0.5" stroke-dasharray="16,0" x1="73.497" y1="250.263" x2="73.497" y2="252.114"/>
<line fill="none" stroke="#000000" stroke-width="0.5" stroke-dasharray="16,0" x1="73.497" y1="305.31" x2="75.349" y2="305.31"/>
<line fill="none" stroke="#000000" stroke-width="0.5" stroke-dasharray="16,0" x1="258.559" y1="305.31" x2="256.712" y2="305.31"/>
<line fill="none" stroke="#000000" stroke-width="0.5" stroke-dasharray="16,0" x1="73.497" y1="277.786" x2="75.349" y2="277.786"/>
<polyline fill="none" stroke="#000000" stroke-width="1.5" points="73.497,277.786 74.739,277.786 75.981,277.786 77.224,277.786 
	78.466,277.786 79.708,277.786 80.95,277.786 82.192,277.786 83.435,277.786 84.677,277.786 85.919,277.786 87.161,277.786 
	88.403,277.786 89.646,277.786 90.888,277.786 92.126,277.786 93.368,277.786 94.61,277.786 95.853,277.786 97.095,277.786 
	98.337,277.786 99.579,277.786 100.821,277.786 102.063,277.786 103.305,277.786 104.548,277.786 105.79,277.786 107.032,277.786 
	108.274,277.786 109.516,277.786 110.759,277.786 112.001,277.786 113.243,277.786 114.485,277.786 115.727,277.786 
	116.969,277.786 118.212,277.786 119.454,277.642 120.696,275.95 121.938,271.032 123.18,270.021 124.419,273.614 125.661,276.536 
	126.903,277.657 128.146,277.786 129.387,277.485 130.63,275.806 131.872,274.231 133.114,275.306 134.356,274.017 135.598,267.048 
	136.841,261.657 138.083,259.442 139.325,267.204 140.567,275.388 141.809,277.669 143.052,276.907 144.294,274.313 
	145.536,273.833 146.778,275.106 148.021,276.868 149.262,277.411 150.505,277.356 151.747,277.438 152.989,276.388 
	154.231,274.313 155.473,273.833 156.716,273.157 157.954,272.333 159.196,267.579 160.438,263.099 161.68,264.481 162.923,267.579 
	164.165,274.341 165.407,277.837 166.649,274.575 167.891,269.681 169.134,270.583 170.376,274.696 171.618,277.099 172.86,277.774 
	174.102,277.763 175.344,277.091 176.587,275.04 177.829,274.458 179.071,275.731 180.313,272.646 181.555,265.235 182.798,260.649 
	184.04,260.321 185.282,269.974 186.524,276.302 187.766,277.802 189.009,276.079 190.251,273.919 191.489,273.833 192.731,275.552 
	193.973,277.114 195.216,277.435 196.458,277.485 197.7,277.356 198.942,275.688 200.184,273.919 201.427,273.673 202.669,273.157 
	203.911,271.442 205.153,265.946 206.396,263.411 207.637,265.22 208.88,269.22 210.122,275.79 211.364,277.606 212.606,273.013 
	213.848,269.196 215.091,271.552 216.333,275.435 217.575,277.388 218.817,277.786 220.059,277.728 221.302,276.665 
	222.544,274.536 223.786,274.681 225.024,275.501 226.266,270.833 227.509,263.271 228.751,259.794 229.993,262.817 
	231.235,272.681 232.477,277.001 233.719,277.747 234.962,275.435 236.204,273.751 237.446,273.997 238.688,276.021 239.93,277.341 
	241.173,277.407 242.415,277.524 243.657,277.247 244.899,275.036 246.141,273.833 247.384,273.329 248.626,273.067 
	249.868,270.368 251.11,264.341 252.352,263.876 253.594,266.075 254.837,271.274 256.079,277.2 257.321,276.849 258.559,271.649 
	"/>
<line fill="none" stroke="#000000" stroke-dasharray="16,0" x1="74.883" y1="118.117" x2="259.945" y2="118.117"/>
<g>
	<polyline fill="none" stroke="#FF0000" stroke-width="1.5" points="74.883,180.229 76.125,180.229 77.367,180.229 78.609,180.229 
		79.852,180.229 81.094,180.229 82.336,180.229 83.578,180.229 84.82,180.229 86.063,180.229 87.305,180.229 88.547,180.229 
		89.789,180.229 91.031,180.229 92.273,180.229 93.512,180.229 94.754,180.229 95.996,180.229 97.238,180.229 98.48,180.229 
		99.723,180.229 100.965,180.229 102.207,180.229 103.449,180.229 104.691,180.229 105.934,180.229 107.176,180.229 
		108.418,180.229 109.66,180.229 110.902,180.229 112.145,180.229 113.387,180.229 114.629,180.229 115.871,180.229 
		117.113,180.229 118.355,180.229 119.598,180.229 120.84,183.885 122.082,174.209 123.324,167.327 124.566,165.394 
		125.805,168.616 127.047,173.561 128.289,177.862 129.531,180.229 130.773,178.077 132.016,173.561 133.258,170.124 134.5,171.413 
		135.742,170.769 136.984,163.67 138.227,159.584 	"/>
	<polyline fill="none" stroke="#FF0000" stroke-width="1.5" points="139.469,157.866 140.711,162.167 141.953,171.198 
		143.195,177.217 144.438,184.1 145.68,189.69 146.922,190.549 148.164,189.26 149.406,185.819 150.648,183.67 151.891,183.885 
		153.133,183.026 154.375,185.819 155.617,189.69 156.859,190.764 158.102,191.409 159.34,192.057 160.582,196.358 161.824,200.44 
		163.066,199.581 164.309,197.647 165.551,190.979 166.793,181.303 168.035,171.842 169.277,165.823 170.52,165.823 
		171.762,170.338 173.004,175.069 174.246,178.725 175.488,179.584 176.73,176.358 177.973,172.058 179.215,170.554 
		180.457,172.487 181.699,169.265 182.941,162.381 184.184,158.726 185.426,157.65 186.668,164.101 187.91,172.917 189.152,179.155 
		190.395,186.463 191.637,190.334 192.875,190.764 194.117,188.401 195.359,184.745 196.602,183.241 197.844,183.456 
		199.086,183.67 200.328,187.108 201.57,190.334 202.813,190.549 204.055,191.624 205.297,192.917 206.539,197.647 207.781,200.225 
		209.023,199.151 210.266,196.358 211.508,189.045 212.75,178.94 213.992,169.694 215.234,164.749 216.477,166.467 217.719,171.627 
		218.961,176.573 220.203,180.014 221.445,179.155 222.688,175.284 223.93,170.982 225.172,170.769 226.41,172.917 227.652,167.327 
		228.895,160.877 230.137,158.295 231.379,158.939 232.621,166.896 233.863,174.639 235.105,180.659 236.348,187.756 
		237.59,190.764 238.832,190.549 240.074,187.756 241.316,184.315 242.559,183.456 243.801,182.811 245.043,183.67 246.285,188.616 
		247.527,190.764 248.77,191.194 250.012,191.409 251.254,193.991 252.496,198.936 253.738,200.01 254.98,198.506 256.223,194.85 
		257.465,186.463 258.707,176.358 259.945,167.756 	"/>
	<line fill="none" stroke="#FF0000" stroke-width="1.5" x1="138.227" y1="159.584" x2="139.469" y2="157.866"/>
</g>
<text transform="matrix(1 0 0 1 162.5493 154.1006)" font-family="'ArialMT'" font-size="35">×</text>
<text transform="matrix(1 0 0 1 161.8164 246.9238)" font-family="'ArialMT'" font-size="35">=</text>
<text transform="matrix(1 0 0 1 233.6616 318.4785)" font-family="'STIXMath-Regular'" font-size="15">t</text>
<text transform="matrix(0 -1 1 0 66.1367 107.1216)" enable-background="new    "><tspan x="0" y="0" font-family="'STIXMath-Regular'" font-size="15">s</tspan><tspan x="5.835" y="3" font-family="'STIXMath-Regular'" font-size="11">t</tspan></text>
<g>
	<g>
		
			<line fill="none" stroke="#000000" stroke-width="0.5" stroke-dasharray="16,0" x1="240.832" y1="314.829" x2="270.146" y2="314.829"/>
		<g>
			<polygon points="267.19,316.419 267.02,315.948 270.098,314.829 267.02,313.708 267.19,313.239 271.559,314.829 			"/>
		</g>
	</g>
</g>
<g>
	<g>
		
			<line fill="none" stroke="#000000" stroke-width="0.5" stroke-dasharray="16,0" x1="62.527" y1="94.833" x2="62.527" y2="74.228"/>
		<g>
			<polygon points="64.117,77.183 63.647,77.354 62.527,74.276 61.407,77.354 60.937,77.183 62.527,72.814 			"/>
		</g>
	</g>
</g>
<text transform="matrix(0 -1 1 0 63.9956 199.5527)" enable-background="new    "><tspan x="0" y="0" font-family="'STIXMath-Regular'" font-size="15">s</tspan><tspan x="5.835" y="3" font-family="'STIXMath-Regular'" font-size="11">t+k</tspan></text>
<g>
	<g>
		
			<line fill="none" stroke="#000000" stroke-width="0.5" stroke-dasharray="16,0" x1="60.385" y1="174.229" x2="60.385" y2="153.624"/>
		<g>
			<polygon points="61.976,156.579 61.505,156.75 60.385,153.673 59.265,156.75 58.795,156.579 60.385,152.211 			"/>
		</g>
	</g>
</g>
<text transform="matrix(0 -1 1 0 63.7778 299.752)" enable-background="new    "><tspan x="0" y="0" font-family="'STIXMath-Regular'" font-size="15">s</tspan><tspan x="5.836" y="3" font-family="'STIXMath-Regular'" font-size="11">t</tspan><tspan x="8.894" y="0" font-family="'STIXMath-Regular'" font-size="8"> </tspan><tspan x="10.894" y="0" font-family="'STIXMath-Regular'" font-size="15">s</tspan><tspan x="16.729" y="3" font-family="'STIXMath-Regular'" font-size="11">t+k</tspan></text>
<g>
	<g>
		
			<line fill="none" stroke="#000000" stroke-width="0.5" stroke-dasharray="16,0" x1="60.168" y1="263.534" x2="60.168" y2="242.929"/>
		<g>
			<polygon points="61.758,245.884 61.288,246.056 60.168,242.978 59.048,246.056 58.578,245.884 60.168,241.517 			"/>
		</g>
	</g>
</g>
<text transform="matrix(1 0 0 1 235.0474 220.4121)" font-family="'STIXMath-Regular'" font-size="15">t</text>
<g>
	<g>
		
			<line fill="none" stroke="#000000" stroke-width="0.5" stroke-dasharray="16,0" x1="242.217" y1="216.762" x2="271.532" y2="216.762"/>
		<g>
			<polygon points="268.576,218.352 268.405,217.883 271.483,216.762 268.405,215.642 268.576,215.172 272.945,216.762 			"/>
		</g>
	</g>
</g>
<text transform="matrix(1 0 0 1 235.0474 131.6699)" font-family="'STIXMath-Regular'" font-size="15">t</text>
<g>
	<g>
		
			<line fill="none" stroke="#000000" stroke-width="0.5" stroke-dasharray="16,0" x1="242.217" y1="128.02" x2="271.532" y2="128.02"/>
		<g>
			<polygon points="268.576,129.61 268.405,129.14 271.483,128.02 268.405,126.9 268.576,126.43 272.945,128.02 			"/>
		</g>
	</g>
</g>
</svg>
