<?xml version="1.0" encoding="utf-8"?>
<!-- Generator: Adobe Illustrator 15.0.0, SVG Export Plug-In . SVG Version: 6.00 Build 0)  -->
<!DOCTYPE svg PUBLIC "-//W3C//DTD SVG 1.1//EN" "http://www.w3.org/Graphics/SVG/1.1/DTD/svg11.dtd">
<svg version="1.1" id="Layer_1" xmlns="http://www.w3.org/2000/svg" xmlns:xlink="http://www.w3.org/1999/xlink" x="0px" y="0px"
	 width="540.667px" height="379.833px" viewBox="295.5 28 540.667 379.833" enable-background="new 295.5 28 540.667 379.833"
	 xml:space="preserve">
<title>glps_renderer figure</title>
<desc>Creator: GL2PS 1.3.8, (C) 1999-2012 C. Geuzaine
For: Octave
CreationDate: Wed Jan 13 09:39:28 2016</desc>
<line fill="none" stroke="#000000" stroke-width="0.5" stroke-dasharray="3,2" x1="336.211" y1="101.75" x2="826.926" y2="101.75"/>
<line fill="none" stroke="#000000" stroke-width="0.5" stroke-dasharray="3,2" x1="336.211" y1="48.406" x2="826.926" y2="48.406"/>
<line fill="none" stroke="#000000" stroke-width="0.5" stroke-dasharray="16,0" x1="336.211" y1="384.477" x2="827.61" y2="384.477"/>
<line fill="none" stroke="#000000" stroke-width="0.5" stroke-dasharray="16,0" x1="336.211" y1="384.477" x2="336.211" y2="32.402"/>
<line fill="none" stroke="#000000" stroke-width="0.5" stroke-dasharray="16,0" x1="336.211" y1="384.477" x2="336.211" y2="380.957"/>
<line fill="none" stroke="#000000" stroke-width="0.5" stroke-dasharray="16,0" x1="336.211" y1="32.402" x2="336.211" y2="35.926"/>
<polyline fill="none" stroke="#00FF00" stroke-width="2" points="336.211,48.406 341.989,60.824 347.763,90.965 353.54,127.445 
	359.317,160.559 365.092,184.598 370.87,199.137 376.646,204.984 382.422,205.582 388.198,203.965 393.976,200.742 399.751,198.641 
	405.527,202.297 411.306,216.016 417.08,241.027 422.856,274.352 428.635,310.832 434.408,342.863 440.187,360.914 445.963,359.316 
	451.738,338.625 457.516,306.262 463.292,271.809 469.067,241.977 474.846,221.941 480.604,212.551 486.378,210.766 
	492.155,212.543 497.933,214.762 503.707,217.082 509.485,217.27 515.262,209.77 521.037,190.906 526.814,160.391 532.591,121.625 
	538.366,82.922 544.143,55.371 549.921,49.734 555.695,68.242 561.472,101.098 567.25,137.004 573.025,167.289 578.802,188.137 
	584.579,199.805 590.354,203.668 596.131,203.523 601.907,201.398 607.683,197.773 613.461,196.359 619.234,202.223 
	625.012,219.203 630.79,247.199 636.546,282.191 642.322,318.539 648.101,348.047 653.877,361.563 659.652,354.922 665.43,330.508 
	671.203,297.035 676.981,263.504 682.76,236.289 688.533,220.02 694.311,213.676 700.087,213.734 705.862,215.93 711.641,217.926 
	717.417,220.512 723.191,219.824 728.969,209.789 734.746,187.563 740.521,153.523 746.298,112.785 752.076,75.094 757.851,52.23 
	763.627,53.699 769.405,77.277 775.179,111.371 780.957,145.32 786.733,171.922 792.49,189.34 798.268,198.074 804.045,200.301 
	809.82,199.68 815.597,196.723 821.375,192.637 827.148,191.941 "/>
<text transform="matrix(1 0 0 1 303.7109 51.8555)" font-family="'STIXMath-Regular'" font-size="15">max</text>
<text transform="matrix(1 0 0 1 306.3789 103.4336)" font-family="'STIXMath-Regular'" font-size="15">max</text>
<text transform="matrix(1 0 0 1 300.334 98.7031)" font-family="'STIXMath-Regular'" font-size="10">2</text>
<text transform="matrix(1 0 0 1 300.7246 99.2852)" font-family="'STIXMath-Regular'" font-size="10">_</text>
<text transform="matrix(1 0 0 1 300.7246 108.4893)" font-family="'STIXMath-Regular'" font-size="10">3</text>
<g>
	<text transform="matrix(0 -1 1 0 317.5195 233.7832)" enable-background="new    "><tspan x="0" y="0" font-family="'STIXMath-Regular'" font-size="15">R</tspan><tspan x="10.005" y="3" font-family="'STIXMath-Regular'" font-size="10">xx</tspan><tspan x="20.005" y="0" font-family="'STIXMath-Regular'" font-size="15">(k)</tspan></text>
	<g>
		<g>
			<line fill="none" stroke="#000000" stroke-dasharray="16,0" x1="313.809" y1="193.944" x2="313.809" y2="166.042"/>
			<g>
				<polygon points="316.989,171.954 316.049,172.295 313.809,166.14 311.568,172.295 310.629,171.954 313.809,163.217 				"/>
			</g>
		</g>
	</g>
</g>
<text transform="matrix(1 0 0 1 781.3506 401.6504)" font-family="'STIXMath-Regular'" font-size="15">k</text>
<text transform="matrix(1 0 0 1 544.333 398.5)" enable-background="new    "><tspan x="0" y="0" font-family="'STIXMath-Regular'" font-size="15">k</tspan><tspan x="7.5" y="3" font-family="'STIXMath-Regular'" font-size="10">0</tspan></text>
<g>
	<g>
		<line fill="none" stroke="#000000" stroke-dasharray="16,0" x1="791.909" y1="398" x2="819.812" y2="398"/>
		<g>
			<polygon points="813.899,401.181 813.558,400.24 819.714,398 813.558,395.76 813.899,394.82 822.637,398 			"/>
		</g>
	</g>
</g>
<line opacity="0.8" fill="none" stroke="#000000" stroke-width="0.5" x1="549.992" y1="48.406" x2="549.992" y2="384.477"/>
</svg>
