<?xml version="1.0" encoding="utf-8"?>
<!-- Generator: Adobe Illustrator 15.0.0, SVG Export Plug-In . SVG Version: 6.00 Build 0)  -->
<!DOCTYPE svg PUBLIC "-//W3C//DTD SVG 1.1//EN" "http://www.w3.org/Graphics/SVG/1.1/DTD/svg11.dtd">
<svg version="1.1" id="Layer_1" xmlns="http://www.w3.org/2000/svg" xmlns:xlink="http://www.w3.org/1999/xlink" x="0px" y="0px"
	 width="402px" height="384px" viewBox="106.5 3 402 384" enable-background="new 106.5 3 402 384" xml:space="preserve">
<title>glps_renderer figure</title>
<desc>Creator: GL2PS 1.3.8, (C) 1999-2012 C. Geuzaine
For: Octave
CreationDate: Thu Jan 07 09:52:56 2016</desc>
<line fill="none" stroke="#000000" stroke-width="2" x1="172.34" y1="384.477" x2="172.34" y2="32.402"/>
<g opacity="0.5">
	<line fill="none" stroke="#000000" x1="122.043" y1="207.75" x2="122.043" y2="204.402"/>
	<line fill="none" stroke="#000000" x1="222.637" y1="207.75" x2="222.637" y2="204.402"/>
	<line fill="none" stroke="#000000" x1="272.93" y1="207.75" x2="272.93" y2="204.402"/>
	<line fill="none" stroke="#000000" x1="323.227" y1="207.75" x2="323.227" y2="204.402"/>
	<line fill="none" stroke="#000000" x1="373.523" y1="207.75" x2="373.523" y2="204.402"/>
	<line fill="none" stroke="#000000" x1="423.82" y1="207.75" x2="423.82" y2="204.402"/>
</g>
<line fill="none" stroke="#000000" stroke-dasharray="16,0" x1="172.34" y1="384.477" x2="172.34" y2="380.012"/>
<line fill="none" stroke="#000000" stroke-dasharray="16,0" x1="172.34" y1="32.402" x2="172.34" y2="36.867"/>
<line fill="none" stroke="#0000FF" stroke-dasharray="4,5,1,6" x1="172.34" y1="207.895" x2="172.34" y2="207.906"/>
<line opacity="0.5" fill="none" stroke="#000000" x1="172.375" y1="359.328" x2="176.617" y2="359.328"/>
<line opacity="0.5" fill="none" stroke="#000000" x1="172.375" y1="309.031" x2="176.617" y2="309.031"/>
<line opacity="0.5" fill="none" stroke="#000000" x1="172.375" y1="258.738" x2="176.617" y2="258.738"/>
<line fill="none" stroke="#000000" stroke-width="2" x1="122.043" y1="208.441" x2="466.5" y2="208.441"/>
<line opacity="0.5" fill="none" stroke="#000000" x1="172.375" y1="158.145" x2="176.617" y2="158.145"/>
<line opacity="0.5" fill="none" stroke="#000000" x1="172.375" y1="107.848" x2="176.617" y2="107.848"/>
<line opacity="0.5" fill="none" stroke="#000000" x1="172.375" y1="57.551" x2="176.617" y2="57.551"/>
<line fill="none" stroke="#0000FF" stroke-dasharray="4,5,1,6" x1="172.34" y1="207.879" x2="172.34" y2="207.895"/>
<line fill="none" stroke="#0000FF" stroke-dasharray="4,5,1,6" x1="172.34" y1="207.867" x2="172.34" y2="207.879"/>
<line fill="none" stroke="#0000FF" stroke-dasharray="4,5,1,6" x1="172.34" y1="207.852" x2="172.34" y2="207.867"/>
<line fill="none" stroke="#0000FF" stroke-dasharray="4,5,1,6" x1="172.34" y1="207.84" x2="172.34" y2="207.852"/>
<line fill="none" stroke="#0000FF" stroke-dasharray="4,5,1,6" x1="172.34" y1="207.824" x2="172.34" y2="207.84"/>
<line fill="none" stroke="#0000FF" stroke-dasharray="4,5,1,6" x1="172.34" y1="207.813" x2="172.34" y2="207.824"/>
<line fill="none" stroke="#0000FF" stroke-dasharray="4,5,1,6" x1="172.34" y1="207.797" x2="172.34" y2="207.813"/>
<line fill="none" stroke="#0000FF" stroke-dasharray="4,5,1,6" x1="172.34" y1="207.781" x2="172.34" y2="207.797"/>
<line fill="none" stroke="#0000FF" stroke-dasharray="4,5,1,6" x1="172.34" y1="207.766" x2="172.34" y2="207.781"/>
<line fill="none" stroke="#0000FF" stroke-dasharray="4,5,1,6" x1="172.34" y1="207.75" x2="172.34" y2="207.766"/>
<polyline fill="none" stroke="#0000FF" stroke-width="3" points="423.816,209.621 423.816,209.648 423.816,209.68 423.816,209.707 
	423.813,209.738 423.813,209.766 423.813,209.797 423.813,209.828 423.813,209.863 423.813,209.895 423.813,209.93 423.813,209.965 
	423.813,210 423.813,210.035 423.809,210.074 423.809,210.109 423.809,210.148 423.809,210.191 423.809,210.23 423.809,210.273 
	423.809,210.316 423.805,210.359 423.805,210.402 423.805,210.449 423.805,210.496 423.805,210.543 423.801,210.594 
	423.801,210.645 423.801,210.695 423.801,210.746 423.801,210.801 423.797,210.855 423.797,210.914 423.797,210.973 
	423.793,211.031 423.793,211.09 423.793,211.152 423.789,211.215 423.789,211.281 423.789,211.348 423.785,211.414 423.785,211.484 
	423.781,211.555 423.781,211.629 423.777,211.703 423.777,211.777 423.773,211.855 423.773,211.934 423.77,212.016 423.77,212.102 
	423.766,212.188 423.762,212.273 423.762,212.363 423.758,212.453 423.754,212.547 423.75,212.645 423.746,212.742 423.742,212.84 
	423.742,212.945 423.738,213.051 423.734,213.156 423.727,213.266 423.723,213.379 423.719,213.496 423.715,213.613 
	423.711,213.734 423.703,213.855 423.699,213.984 423.691,214.113 423.688,214.246 423.68,214.379 423.676,214.52 423.668,214.66 
	423.66,214.805 423.652,214.953 423.645,215.105 423.637,215.262 423.629,215.418 423.617,215.582 423.609,215.75 423.598,215.918 
	423.59,216.094 423.578,216.27 423.566,216.453 423.555,216.641 423.539,216.832 423.527,217.027 423.512,217.227 423.5,217.43 
	423.484,217.641 423.469,217.855 423.453,218.074 423.434,218.297 423.414,218.527 423.398,218.762 423.375,219.004 
	423.355,219.246 423.332,219.5 423.313,219.758 423.285,220.02 423.262,220.289 423.234,220.563 423.207,220.844 423.18,221.133 
	423.148,221.426 423.117,221.73 423.082,222.039 423.051,222.352 423.012,222.676 422.973,223.004 422.934,223.344 422.895,223.688 
	422.848,224.043 422.805,224.402 422.754,224.773 422.707,225.148 422.652,225.535 422.598,225.934 422.539,226.336 422.48,226.75 
	422.418,227.172 422.352,227.605 422.281,228.047 422.211,228.496 422.137,228.961 422.055,229.434 421.973,229.914 421.887,230.41 
	421.797,230.914 421.703,231.43 421.602,231.957 421.5,232.496 421.391,233.047 421.277,233.609 421.156,234.184 421.031,234.77 
	420.902,235.371 420.766,235.984 420.625,236.613 420.477,237.254 420.32,237.906 420.156,238.574 419.988,239.258 419.809,239.953 
	419.621,240.664 419.426,241.391 419.223,242.133 419.012,242.887 418.789,243.66 418.555,244.449 418.313,245.254 418.059,246.074 
	417.793,246.91 417.516,247.762 417.223,248.633 416.922,249.52 416.605,250.426 416.273,251.348 415.93,252.285 415.57,253.242 
	415.191,254.219 414.801,255.211 414.391,256.219 413.961,257.25 413.516,258.297 413.051,259.359 412.563,260.445 412.055,261.547 
	411.527,262.664 410.977,263.805 410.402,264.961 409.805,266.133 409.18,267.324 408.531,268.535 407.855,269.762 407.152,271.004 
	406.418,272.266 405.656,273.543 404.863,274.836 404.039,276.145 403.18,277.469 402.289,278.805 401.363,280.156 400.402,281.523 
	399.402,282.902 398.367,284.293 397.289,285.691 396.176,287.105 395.02,288.523 393.82,289.953 392.582,291.387 391.297,292.828 
	389.969,294.273 388.594,295.723 387.172,297.172 385.703,298.625 384.188,300.07 382.621,301.52 381.008,302.961 379.344,304.395 
	377.629,305.82 375.863,307.234 374.047,308.641 372.18,310.027 370.258,311.402 368.289,312.754 366.266,314.09 364.191,315.398 
	362.066,316.684 359.891,317.938 357.668,319.164 355.395,320.359 353.07,321.52 350.699,322.641 348.285,323.723 345.824,324.766 
	343.32,325.762 340.773,326.711 338.188,327.613 335.563,328.465 332.902,329.262 330.207,330.008 327.48,330.695 324.723,331.324 
	321.938,331.898 319.129,332.406 316.301,332.855 313.449,333.238 310.586,333.559 307.707,333.813 304.816,334 301.922,334.121 
	299.023,334.176 298.078,334.18 296.121,334.164 293.223,334.086 290.328,333.941 287.441,333.73 284.57,333.453 281.707,333.109 
	278.867,332.703 276.043,332.234 273.242,331.703 270.469,331.113 267.723,330.461 265.004,329.754 262.32,328.988 259.672,328.172 
	257.063,327.301 254.488,326.383 251.957,325.414 249.469,324.402 247.023,323.348 244.621,322.25 242.27,321.117 239.965,319.945 
	237.707,318.738 235.5,317.5 233.34,316.234 231.234,314.941 229.18,313.625 227.176,312.281 225.223,310.922 223.32,309.543 
	221.473,308.148 219.672,306.742 217.926,305.32 216.227,303.891 214.582,302.453 212.984,301.012 211.438,299.563 209.938,298.113 
	208.484,296.664 207.078,295.215 205.723,293.766 204.406,292.324 203.137,290.883 201.914,289.449 200.73,288.023 199.59,286.609 
	198.488,285.199 197.426,283.805 196.402,282.418 195.418,281.043 194.469,279.684 193.555,278.336 192.676,277 191.828,275.684 
	191.016,274.379 190.234,273.09 189.48,271.82 188.758,270.566 188.063,269.328 187.398,268.109 186.758,266.906 186.145,265.719 
	185.555,264.551 184.988,263.402 184.445,262.27 183.922,261.156 183.426,260.063 182.945,258.984 182.484,257.926 182.047,256.887 
	181.625,255.863 181.223,254.859 180.832,253.875 180.465,252.906 180.109,251.953 179.77,251.02 179.441,250.105 179.129,249.207 
	178.832,248.324 178.547,247.461 178.273,246.613 178.012,245.781 177.762,244.969 177.523,244.168 177.293,243.387 
	177.074,242.621 176.863,241.871 176.664,241.133 176.473,240.414 176.289,239.707 176.113,239.016 175.945,238.34 175.785,237.676 
	175.633,237.027 175.484,236.391 175.344,235.77 175.211,235.16 175.082,234.563 174.961,233.98 174.844,233.41 174.73,232.852 
	174.625,232.305 174.523,231.77 174.426,231.246 174.332,230.734 174.242,230.234 174.156,229.746 174.074,229.266 173.996,228.797 
	173.922,228.34 173.852,227.891 173.785,227.453 173.719,227.023 173.656,226.602 173.598,226.191 173.543,225.793 173.488,225.398 
	173.438,225.016 173.387,224.641 173.34,224.273 173.293,223.918 173.25,223.566 173.211,223.223 173.172,222.891 173.133,222.563 
	173.098,222.242 173.063,221.93 173.031,221.621 173,221.324 172.969,221.031 172.941,220.746 172.914,220.465 172.891,220.191 
	172.863,219.926 172.84,219.664 172.816,219.41 172.797,219.16 172.777,218.918 172.758,218.68 172.738,218.445 172.719,218.219 
	172.703,217.996 172.688,217.777 172.672,217.566 172.656,217.359 172.641,217.156 172.629,216.957 172.613,216.766 
	172.602,216.574 172.59,216.391 172.578,216.207 172.566,216.031 172.559,215.859 172.547,215.691 172.539,215.523 172.531,215.363 
	172.52,215.207 172.512,215.051 172.504,214.902 172.496,214.754 172.488,214.609 172.484,214.469 172.477,214.332 172.469,214.199 
	172.465,214.066 172.457,213.938 172.453,213.813 172.449,213.691 172.445,213.57 172.438,213.453 172.434,213.34 172.43,213.227 
	172.426,213.117 172.422,213.012 172.418,212.906 172.414,212.805 172.41,212.707 172.406,212.609 172.406,212.516 172.402,212.422 
	172.398,212.332 172.395,212.242 172.395,212.156 172.391,212.07 172.391,211.988 172.387,211.906 172.383,211.828 172.383,211.75 
	172.379,211.676 172.379,211.602 172.375,211.531 172.375,211.461 172.375,211.391 172.371,211.324 172.371,211.258 
	172.367,211.191 172.367,211.129 172.367,211.07 172.363,211.008 172.363,210.949 172.363,210.895 172.363,210.836 172.359,210.781 
	172.359,210.73 172.359,210.676 172.359,210.625 172.355,210.574 172.355,210.527 172.355,210.48 172.355,210.434 172.355,210.387 
	172.352,210.344 172.352,210.301 172.352,210.258 172.352,210.215 172.352,210.176 172.352,210.137 172.352,210.098 
	172.348,210.059 172.348,210.023 172.348,209.988 172.348,209.953 172.348,209.918 172.348,209.883 172.348,209.852 
	172.348,209.816 172.348,209.785 172.344,209.758 172.344,209.727 172.344,209.695 172.344,209.668 172.344,209.641 
	172.344,209.613 172.344,209.586 172.344,209.559 172.344,209.535 172.344,209.508 172.344,209.484 172.344,209.461 
	172.344,209.438 172.344,209.414 172.344,209.395 172.344,209.371 172.344,209.352 172.344,209.328 172.34,209.309 172.34,209.289 
	172.34,209.27 172.34,209.25 172.34,209.23 172.34,209.215 172.34,209.195 172.34,209.18 172.34,209.164 172.34,209.145 
	172.34,209.129 172.34,209.113 172.34,209.098 172.34,209.082 172.34,209.07 172.34,209.055 172.34,209.039 172.34,209.027 
	172.34,209.012 172.34,209 172.34,208.988 172.34,208.977 "/>
<polyline fill="none" stroke="#0000FF" stroke-width="3" stroke-dasharray="4,5,1,6" points="423.816,207.258 423.816,207.23 
	423.816,207.203 423.816,207.172 423.813,207.145 423.813,207.113 423.813,207.082 423.813,207.051 423.813,207.02 423.813,206.984 
	423.813,206.953 423.813,206.918 423.813,206.883 423.813,206.844 423.809,206.809 423.809,206.77 423.809,206.73 423.809,206.691 
	423.809,206.648 423.809,206.609 423.809,206.566 423.805,206.52 423.805,206.477 423.805,206.43 423.805,206.383 423.805,206.336 
	423.801,206.285 423.801,206.238 423.801,206.184 423.801,206.133 423.801,206.078 423.797,206.023 423.797,205.969 423.797,205.91 
	423.793,205.852 423.793,205.789 423.793,205.727 423.789,205.664 423.789,205.602 423.789,205.535 423.785,205.465 
	423.785,205.398 423.781,205.324 423.781,205.254 423.777,205.18 423.777,205.102 423.773,205.023 423.773,204.945 423.77,204.863 
	423.77,204.781 423.766,204.695 423.762,204.605 423.762,204.52 423.758,204.426 423.754,204.332 423.75,204.238 423.746,204.141 
	423.742,204.039 423.742,203.938 423.738,203.832 423.734,203.723 423.727,203.613 423.723,203.5 423.719,203.387 423.715,203.27 
	423.711,203.148 423.703,203.023 423.699,202.898 423.691,202.77 423.688,202.637 423.68,202.5 423.676,202.363 423.668,202.219 
	423.66,202.074 423.652,201.926 423.645,201.773 423.637,201.621 423.629,201.461 423.617,201.297 423.609,201.133 423.598,200.961 
	423.59,200.789 423.578,200.609 423.566,200.426 423.555,200.238 423.539,200.051 423.527,199.855 423.512,199.652 423.5,199.449 
	423.484,199.238 423.469,199.027 423.453,198.805 423.434,198.582 423.414,198.352 423.398,198.117 423.375,197.879 
	423.355,197.633 423.332,197.383 423.313,197.125 423.285,196.863 423.262,196.594 423.234,196.316 423.207,196.035 423.18,195.746 
	423.148,195.453 423.117,195.152 423.082,194.844 423.051,194.527 423.012,194.203 422.973,193.875 422.934,193.539 
	422.895,193.191 422.848,192.84 422.805,192.477 422.754,192.109 422.707,191.73 422.652,191.344 422.598,190.949 422.539,190.543 
	422.48,190.133 422.418,189.707 422.352,189.277 422.281,188.836 422.211,188.383 422.137,187.922 422.055,187.449 421.973,186.965 
	421.887,186.473 421.797,185.969 421.703,185.453 421.602,184.926 421.5,184.387 421.391,183.836 421.277,183.273 421.156,182.695 
	421.031,182.109 420.902,181.508 420.766,180.895 420.625,180.27 420.477,179.629 420.32,178.973 420.156,178.305 419.988,177.625 
	419.809,176.926 419.621,176.215 419.426,175.492 419.223,174.75 419.012,173.992 418.789,173.219 418.555,172.434 418.313,171.629 
	418.059,170.809 417.793,169.973 417.516,169.117 417.223,168.246 416.922,167.359 416.605,166.457 416.273,165.535 415.93,164.594 
	415.57,163.637 415.191,162.664 414.801,161.672 414.391,160.66 413.961,159.633 413.516,158.586 413.051,157.52 412.563,156.438 
	412.055,155.336 411.527,154.215 410.977,153.078 410.402,151.922 409.805,150.746 409.18,149.555 408.531,148.348 407.855,147.121 
	407.152,145.875 406.418,144.617 405.656,143.34 404.863,142.047 404.039,140.738 403.18,139.414 402.289,138.074 401.363,136.723 
	400.402,135.355 399.402,133.98 398.367,132.59 397.289,131.188 396.176,129.777 395.02,128.355 393.82,126.926 392.582,125.492 
	391.297,124.051 389.969,122.605 388.594,121.156 387.172,119.707 385.703,118.258 384.188,116.809 382.621,115.363 
	381.008,113.922 379.344,112.484 377.629,111.059 375.863,109.645 374.047,108.242 372.18,106.852 370.258,105.48 368.289,104.125 
	366.266,102.793 364.191,101.48 362.066,100.199 359.891,98.941 357.668,97.715 355.395,96.52 353.07,95.363 350.699,94.238 
	348.285,93.156 345.824,92.117 343.32,91.121 340.773,90.168 338.188,89.266 335.563,88.418 332.902,87.617 330.207,86.871 
	327.48,86.184 324.723,85.555 321.938,84.984 319.129,84.473 316.301,84.027 313.449,83.641 310.586,83.324 307.707,83.07 
	304.816,82.879 301.922,82.758 299.023,82.703 298.078,82.699 296.121,82.715 293.223,82.793 290.328,82.938 287.441,83.148 
	284.57,83.426 281.707,83.77 278.867,84.176 276.043,84.645 273.242,85.176 270.469,85.77 267.723,86.418 265.004,87.129 
	262.32,87.891 259.672,88.707 257.063,89.578 254.488,90.496 251.957,91.465 249.469,92.477 247.023,93.531 244.621,94.629 
	242.27,95.766 239.965,96.938 237.707,98.141 235.5,99.379 233.34,100.645 231.234,101.938 229.18,103.258 227.176,104.598 
	225.223,105.957 223.32,107.336 221.473,108.73 219.672,110.141 217.926,111.559 216.227,112.988 214.582,114.426 212.984,115.867 
	211.438,117.316 209.938,118.766 208.484,120.215 207.078,121.664 205.723,123.113 204.406,124.559 203.137,125.996 201.914,127.43 
	200.73,128.855 199.59,130.273 198.488,131.68 197.426,133.078 196.402,134.465 195.418,135.836 194.469,137.199 193.555,138.547 
	192.676,139.879 191.828,141.199 191.016,142.5 190.234,143.789 189.48,145.059 188.758,146.313 188.063,147.551 187.398,148.773 
	186.758,149.977 186.145,151.16 185.555,152.328 184.988,153.477 184.445,154.609 183.922,155.723 183.426,156.816 182.945,157.895 
	182.484,158.953 182.047,159.992 181.625,161.016 181.223,162.02 180.832,163.008 180.465,163.977 180.109,164.926 179.77,165.859 
	179.441,166.773 179.129,167.672 178.832,168.555 178.547,169.418 178.273,170.266 178.012,171.098 177.762,171.91 177.523,172.711 
	177.293,173.492 177.074,174.258 176.863,175.012 176.664,175.746 176.473,176.469 176.289,177.172 176.113,177.863 
	175.945,178.543 175.785,179.207 175.633,179.855 175.484,180.488 175.344,181.113 175.211,181.723 175.082,182.316 
	174.961,182.898 174.844,183.473 174.73,184.027 174.625,184.574 174.523,185.109 174.426,185.633 174.332,186.145 174.242,186.645 
	174.156,187.137 174.074,187.613 173.996,188.082 173.922,188.543 173.852,188.992 173.785,189.43 173.719,189.859 173.656,190.277 
	173.598,190.688 173.543,191.09 173.488,191.48 173.438,191.863 173.387,192.238 173.34,192.605 173.293,192.965 173.25,193.313 
	173.211,193.656 173.172,193.992 173.133,194.32 173.098,194.641 173.063,194.953 173.031,195.258 173,195.559 172.969,195.848 
	172.941,196.137 172.914,196.414 172.891,196.688 172.863,196.953 172.84,197.215 172.816,197.469 172.797,197.719 172.777,197.965 
	172.758,198.203 172.738,198.434 172.719,198.66 172.703,198.883 172.688,199.102 172.672,199.313 172.656,199.52 172.641,199.723 
	172.629,199.922 172.613,200.117 172.602,200.305 172.59,200.492 172.578,200.672 172.566,200.848 172.559,201.023 172.547,201.191 
	172.539,201.355 172.531,201.516 172.52,201.676 172.512,201.828 172.504,201.98 172.496,202.125 172.488,202.27 172.484,202.41 
	172.477,202.547 172.469,202.684 172.465,202.813 172.457,202.941 172.453,203.066 172.449,203.191 172.445,203.309 
	172.438,203.426 172.434,203.539 172.43,203.652 172.426,203.762 172.422,203.867 172.418,203.973 172.414,204.074 172.41,204.172 
	172.406,204.27 172.406,204.367 172.402,204.457 172.398,204.551 172.395,204.637 172.395,204.727 172.391,204.809 172.391,204.891 
	172.387,204.973 172.383,205.051 172.383,205.129 172.379,205.203 172.379,205.277 172.375,205.352 172.375,205.422 
	172.375,205.488 172.371,205.559 172.371,205.625 172.367,205.688 172.367,205.75 172.367,205.813 172.363,205.871 172.363,205.93 
	172.363,205.988 172.363,206.043 172.359,206.098 172.359,206.152 172.359,206.203 172.359,206.254 172.355,206.305 
	172.355,206.352 172.355,206.402 172.355,206.445 172.355,206.492 172.352,206.535 172.352,206.582 172.352,206.621 
	172.352,206.664 172.352,206.703 172.352,206.746 172.352,206.781 172.348,206.82 172.348,206.859 172.348,206.895 172.348,206.93 
	172.348,206.965 172.348,206.996 172.348,207.031 172.348,207.063 172.348,207.094 172.344,207.125 172.344,207.156 
	172.344,207.184 172.344,207.211 172.344,207.242 172.344,207.27 172.344,207.293 172.344,207.32 172.344,207.348 172.344,207.371 
	172.344,207.395 172.344,207.418 172.344,207.441 172.344,207.465 172.344,207.488 172.344,207.508 172.344,207.531 
	172.344,207.551 172.34,207.57 172.34,207.59 172.34,207.609 172.34,207.629 172.34,207.648 172.34,207.668 172.34,207.684 
	172.34,207.699 172.34,207.719 172.34,207.734 172.34,207.75 "/>
<text transform="matrix(1 0 0 1 152.6416 60.5547)" opacity="0.5" enable-background="new    " font-family="'ArialMT'" font-size="10">0.6</text>
<text transform="matrix(1 0 0 1 152.6416 110.8516)" opacity="0.5" enable-background="new    " font-family="'ArialMT'" font-size="10">0.4</text>
<text transform="matrix(1 0 0 1 152.6416 161.1484)" opacity="0.5" enable-background="new    " font-family="'ArialMT'" font-size="10">0.2</text>
<text transform="matrix(1 0 0 1 149.3115 261.7422)" opacity="0.5" enable-background="new    " font-family="'ArialMT'" font-size="10">-0.2</text>
<text transform="matrix(1 0 0 1 149.3115 312.0352)" opacity="0.5" enable-background="new    " font-family="'ArialMT'" font-size="10">-0.4</text>
<text transform="matrix(1 0 0 1 149.3115 362.332)" opacity="0.5" enable-background="new    " font-family="'ArialMT'" font-size="10">-0.6</text>
<text transform="matrix(1 0 0 1 427.0391 220.4805)" opacity="0.5" enable-background="new    " font-family="'ArialMT'" font-size="10">1</text>
<text transform="matrix(1 0 0 1 366.5723 220.4805)" opacity="0.5" enable-background="new    " font-family="'ArialMT'" font-size="10">0.8</text>
<text transform="matrix(1 0 0 1 316.2764 220.4805)" opacity="0.5" enable-background="new    " font-family="'ArialMT'" font-size="10">0.6</text>
<text transform="matrix(1 0 0 1 265.9795 220.4805)" opacity="0.5" enable-background="new    " font-family="'ArialMT'" font-size="10">0.4</text>
<text transform="matrix(1 0 0 1 215.6865 220.4805)" opacity="0.5" enable-background="new    " font-family="'ArialMT'" font-size="10">0.2</text>
<text transform="matrix(1 0 0 1 113.4272 220.4805)" opacity="0.5" enable-background="new    " font-family="'ArialMT'" font-size="10">-0.2</text>
<g>
	<text transform="matrix(-4.371139e-008 -1 1 -4.371139e-008 138.0308 89.8726)" font-family="'STIX-Regular'" font-size="12">ℑ</text>
	<text transform="matrix(-4.371139e-008 -1 1 -4.371139e-008 138.0308 77.5269)" enable-background="new    "><tspan x="0" y="0" font-family="'STIX-Regular'" font-size="12">{</tspan><tspan x="5.76" y="0" font-family="'STIX-Italic'" font-size="12">H(jω)</tspan><tspan x="30.647" y="0" font-family="'STIX-Regular'" font-size="12">}</tspan></text>
</g>
<g>
	<text transform="matrix(1 0 0 1 441.0508 230.4824)" font-family="'STIX-Regular'" font-size="12">ℜ</text>
	<text transform="matrix(1 0 0 1 452.21 230.4824)" enable-background="new    "><tspan x="0" y="0" font-family="'STIX-Regular'" font-size="12">{</tspan><tspan x="5.76" y="0" font-family="'STIX-Italic'" font-size="12">H(jω)</tspan><tspan x="30.647" y="0" font-family="'STIX-Regular'" font-size="12">}</tspan></text>
</g>
<text transform="matrix(1 0 0 1 171.1611 20.4063)" font-family="'ArialMT'" font-size="15">Nyquist Diagram(jω) for C=470nF, R=100Ω</text>
<g>
	<g>
		<line fill="none" stroke="#0000FF" stroke-width="2" x1="396.176" y1="287.105" x2="392.704" y2="291.178"/>
		<g>
			<polygon fill="#0000FF" points="390.779,280.828 392.778,280.74 393.2,290.592 402.997,289.451 403.227,291.44 391.295,292.827 
							"/>
		</g>
	</g>
</g>
<g>
	<g>
		<line fill="none" stroke="#231F20" stroke-miterlimit="10" x1="145.171" y1="88.873" x2="145.171" y2="41.584"/>
		<g>
			<polygon fill="#231F20" points="149.261,44.898 148.528,45.58 145.172,41.968 141.814,45.58 141.082,44.898 145.172,40.5 			"/>
		</g>
	</g>
</g>
<g>
	<g>
		<line fill="none" stroke="#231F20" stroke-miterlimit="10" x1="441.051" y1="217.5" x2="486.416" y2="217.5"/>
		<g>
			<polygon fill="#231F20" points="483.102,221.59 482.42,220.857 486.031,217.501 482.42,214.144 483.102,213.411 487.5,217.501 
							"/>
		</g>
	</g>
</g>
</svg>
