<?xml version="1.0" encoding="utf-8"?>
<!-- Generator: Adobe Illustrator 15.0.0, SVG Export Plug-In . SVG Version: 6.00 Build 0)  -->
<!DOCTYPE svg PUBLIC "-//W3C//DTD SVG 1.1//EN" "http://www.w3.org/Graphics/SVG/1.1/DTD/svg11.dtd">
<svg version="1.1" id="Layer_1" xmlns="http://www.w3.org/2000/svg" xmlns:xlink="http://www.w3.org/1999/xlink" x="0px" y="0px"
	 width="576px" height="432px" viewBox="0 0 576 432" enable-background="new 0 0 576 432" xml:space="preserve">
<title>glps_renderer figure</title>
<desc>Creator: GL2PS 1.3.8, (C) 1999-2012 C. Geuzaine
For: Octave
CreationDate: Wed Jan 06 11:45:49 2016</desc>
<line fill="none" stroke="#000000" stroke-width="2" stroke-dasharray="16,0" x1="74.883" y1="384.477" x2="521.277" y2="384.477"/>
<line fill="none" stroke="#000000" stroke-width="2" stroke-dasharray="16,0" x1="74.883" y1="384.477" x2="74.883" y2="32.402"/>
<line fill="none" stroke="#000000" stroke-dasharray="16,0" x1="74.883" y1="384.477" x2="74.883" y2="380.012"/>
<line fill="none" stroke="#000000" stroke-dasharray="16,0" x1="74.883" y1="32.402" x2="74.883" y2="36.867"/>
<line fill="none" stroke="#000000" stroke-dasharray="16,0" x1="164.16" y1="384.477" x2="164.16" y2="380.012"/>
<line fill="none" stroke="#000000" stroke-dasharray="16,0" x1="253.441" y1="384.477" x2="253.441" y2="380.012"/>
<line fill="none" stroke="#000000" stroke-dasharray="16,0" x1="342.719" y1="384.477" x2="342.719" y2="380.012"/>
<line fill="none" stroke="#000000" stroke-dasharray="16,0" x1="432" y1="384.477" x2="432" y2="380.012"/>
<line fill="none" stroke="#000000" stroke-dasharray="16,0" x1="521.277" y1="384.477" x2="521.277" y2="380.012"/>
<line opacity="0.5" fill="none" stroke="#000000" stroke-dasharray="0,4,4,4,4,0" enable-background="new    " x1="74.883" y1="149.762" x2="300.734" y2="149.762"/>
<line opacity="0.5" fill="none" stroke="#000000" stroke-width="1.2649" stroke-dasharray="0,5.0597,5.0597,5.0597,5.0597,0" enable-background="new    " x1="300.734" y1="384.477" x2="300.734" y2="149.762"/>
<line fill="none" stroke="#0000FF" stroke-width="3" x1="519.035" y1="293.242" x2="521.277" y2="294.715"/>
<line fill="none" stroke="#0000FF" stroke-width="3" x1="516.789" y1="291.766" x2="519.035" y2="293.242"/>
<line fill="none" stroke="#0000FF" stroke-width="3" x1="514.547" y1="290.293" x2="516.789" y2="291.766"/>
<line fill="none" stroke="#0000FF" stroke-width="3" x1="512.305" y1="288.816" x2="514.547" y2="290.293"/>
<line fill="none" stroke="#000000" stroke-dasharray="16,0" x1="101.758" y1="384.477" x2="101.758" y2="382.246"/>
<line fill="none" stroke="#000000" stroke-dasharray="16,0" x1="117.48" y1="384.477" x2="117.48" y2="382.246"/>
<line fill="none" stroke="#000000" stroke-dasharray="16,0" x1="128.633" y1="384.477" x2="128.633" y2="382.246"/>
<line fill="none" stroke="#000000" stroke-dasharray="16,0" x1="137.285" y1="384.477" x2="137.285" y2="382.246"/>
<line fill="none" stroke="#000000" stroke-dasharray="16,0" x1="144.355" y1="384.477" x2="144.355" y2="382.246"/>
<line fill="none" stroke="#000000" stroke-dasharray="16,0" x1="150.332" y1="384.477" x2="150.332" y2="382.246"/>
<line fill="none" stroke="#000000" stroke-dasharray="16,0" x1="155.508" y1="384.477" x2="155.508" y2="382.246"/>
<line fill="none" stroke="#000000" stroke-dasharray="16,0" x1="160.078" y1="384.477" x2="160.078" y2="382.246"/>
<line fill="none" stroke="#000000" stroke-dasharray="16,0" x1="191.039" y1="384.477" x2="191.039" y2="382.246"/>
<line fill="none" stroke="#000000" stroke-dasharray="16,0" x1="206.758" y1="384.477" x2="206.758" y2="382.246"/>
<line fill="none" stroke="#000000" stroke-dasharray="16,0" x1="217.914" y1="384.477" x2="217.914" y2="382.246"/>
<line fill="none" stroke="#000000" stroke-dasharray="16,0" x1="226.566" y1="384.477" x2="226.566" y2="382.246"/>
<line fill="none" stroke="#000000" stroke-dasharray="16,0" x1="233.633" y1="384.477" x2="233.633" y2="382.246"/>
<line fill="none" stroke="#000000" stroke-dasharray="16,0" x1="239.609" y1="384.477" x2="239.609" y2="382.246"/>
<line fill="none" stroke="#000000" stroke-dasharray="16,0" x1="244.789" y1="384.477" x2="244.789" y2="382.246"/>
<line fill="none" stroke="#000000" stroke-dasharray="16,0" x1="249.355" y1="384.477" x2="249.355" y2="382.246"/>
<line fill="none" stroke="#000000" stroke-dasharray="16,0" x1="280.316" y1="384.477" x2="280.316" y2="382.246"/>
<line fill="none" stroke="#000000" stroke-dasharray="16,0" x1="296.039" y1="384.477" x2="296.039" y2="382.246"/>
<line fill="none" stroke="#000000" stroke-dasharray="16,0" x1="307.191" y1="384.477" x2="307.191" y2="382.246"/>
<line fill="none" stroke="#000000" stroke-dasharray="16,0" x1="315.844" y1="384.477" x2="315.844" y2="382.246"/>
<line fill="none" stroke="#000000" stroke-dasharray="16,0" x1="322.914" y1="384.477" x2="322.914" y2="382.246"/>
<line fill="none" stroke="#000000" stroke-dasharray="16,0" x1="328.891" y1="384.477" x2="328.891" y2="382.246"/>
<line fill="none" stroke="#000000" stroke-dasharray="16,0" x1="334.066" y1="384.477" x2="334.066" y2="382.246"/>
<line fill="none" stroke="#000000" stroke-dasharray="16,0" x1="338.633" y1="384.477" x2="338.633" y2="382.246"/>
<line fill="none" stroke="#000000" stroke-dasharray="16,0" x1="369.594" y1="384.477" x2="369.594" y2="382.246"/>
<line fill="none" stroke="#000000" stroke-dasharray="16,0" x1="385.316" y1="384.477" x2="385.316" y2="382.246"/>
<line fill="none" stroke="#000000" stroke-dasharray="16,0" x1="396.469" y1="384.477" x2="396.469" y2="382.246"/>
<line fill="none" stroke="#000000" stroke-dasharray="16,0" x1="405.121" y1="384.477" x2="405.121" y2="382.246"/>
<line fill="none" stroke="#000000" stroke-dasharray="16,0" x1="412.191" y1="384.477" x2="412.191" y2="382.246"/>
<line fill="none" stroke="#000000" stroke-dasharray="16,0" x1="418.168" y1="384.477" x2="418.168" y2="382.246"/>
<line fill="none" stroke="#000000" stroke-dasharray="16,0" x1="423.348" y1="384.477" x2="423.348" y2="382.246"/>
<line fill="none" stroke="#000000" stroke-dasharray="16,0" x1="427.914" y1="384.477" x2="427.914" y2="382.246"/>
<line fill="none" stroke="#000000" stroke-dasharray="16,0" x1="458.875" y1="384.477" x2="458.875" y2="382.246"/>
<line fill="none" stroke="#000000" stroke-dasharray="16,0" x1="474.594" y1="384.477" x2="474.594" y2="382.246"/>
<line fill="none" stroke="#000000" stroke-dasharray="16,0" x1="485.75" y1="384.477" x2="485.75" y2="382.246"/>
<line fill="none" stroke="#000000" stroke-dasharray="16,0" x1="494.402" y1="384.477" x2="494.402" y2="382.246"/>
<line fill="none" stroke="#000000" stroke-dasharray="16,0" x1="501.469" y1="384.477" x2="501.469" y2="382.246"/>
<line fill="none" stroke="#000000" stroke-dasharray="16,0" x1="507.449" y1="384.477" x2="507.449" y2="382.246"/>
<line fill="none" stroke="#000000" stroke-dasharray="16,0" x1="512.625" y1="384.477" x2="512.625" y2="382.246"/>
<line fill="none" stroke="#000000" stroke-dasharray="16,0" x1="517.191" y1="384.477" x2="517.191" y2="382.246"/>
<line fill="none" stroke="#000000" stroke-dasharray="16,0" x1="74.883" y1="384.477" x2="79.352" y2="384.477"/>
<line fill="none" stroke="#000000" stroke-dasharray="16,0" x1="521.277" y1="384.477" x2="516.809" y2="384.477"/>
<line fill="none" stroke="#000000" stroke-dasharray="16,0" x1="74.883" y1="325.797" x2="79.352" y2="325.797"/>
<line fill="none" stroke="#000000" stroke-dasharray="16,0" x1="74.883" y1="267.117" x2="79.352" y2="267.117"/>
<line fill="none" stroke="#000000" stroke-dasharray="16,0" x1="74.883" y1="208.441" x2="79.352" y2="208.441"/>
<line fill="none" stroke="#000000" stroke-dasharray="16,0" x1="74.883" y1="149.762" x2="79.352" y2="149.762"/>
<line fill="none" stroke="#000000" stroke-dasharray="16,0" x1="74.883" y1="91.082" x2="79.352" y2="91.082"/>
<line fill="none" stroke="#000000" stroke-dasharray="16,0" x1="74.883" y1="32.402" x2="79.352" y2="32.402"/>
<line fill="none" stroke="#0000FF" stroke-width="3" x1="510.063" y1="287.344" x2="512.305" y2="288.816"/>
<line fill="none" stroke="#0000FF" stroke-width="3" x1="507.816" y1="285.867" x2="510.063" y2="287.344"/>
<line fill="none" stroke="#0000FF" stroke-width="3" x1="505.574" y1="284.395" x2="507.816" y2="285.867"/>
<line fill="none" stroke="#0000FF" stroke-width="3" x1="503.332" y1="282.922" x2="505.574" y2="284.395"/>
<line fill="none" stroke="#0000FF" stroke-width="3" x1="501.09" y1="281.445" x2="503.332" y2="282.922"/>
<line fill="none" stroke="#0000FF" stroke-width="3" x1="498.844" y1="279.973" x2="501.09" y2="281.445"/>
<line fill="none" stroke="#0000FF" stroke-width="3" x1="496.602" y1="278.496" x2="498.844" y2="279.973"/>
<line fill="none" stroke="#0000FF" stroke-width="3" x1="494.359" y1="277.023" x2="496.602" y2="278.496"/>
<line fill="none" stroke="#0000FF" stroke-width="3" x1="492.117" y1="275.547" x2="494.359" y2="277.023"/>
<line fill="none" stroke="#0000FF" stroke-width="3" x1="489.871" y1="274.074" x2="492.117" y2="275.547"/>
<polyline fill="none" stroke="#0000FF" stroke-width="3" points="74.883,149.762 77.125,149.762 79.371,149.762 81.613,149.762 
	83.855,149.762 86.098,149.762 88.344,149.762 90.586,149.762 92.828,149.762 95.07,149.762 97.316,149.762 99.559,149.762 
	101.801,149.762 104.043,149.762 106.289,149.762 108.531,149.762 110.773,149.762 113.016,149.762 115.262,149.762 
	117.504,149.762 119.746,149.762 121.988,149.762 124.234,149.762 126.477,149.762 128.719,149.762 130.961,149.762 
	133.207,149.762 135.449,149.766 137.691,149.766 139.934,149.766 142.18,149.766 144.422,149.766 146.664,149.766 148.906,149.766 
	151.152,149.766 153.395,149.766 155.637,149.77 157.879,149.77 160.125,149.77 162.367,149.77 164.609,149.773 166.852,149.773 
	169.098,149.777 171.34,149.777 173.582,149.777 175.828,149.781 178.07,149.785 180.313,149.785 182.555,149.789 184.801,149.793 
	187.043,149.797 189.285,149.801 191.527,149.809 193.773,149.813 196.016,149.82 198.258,149.824 200.5,149.832 202.746,149.844 
	204.988,149.852 207.23,149.863 209.473,149.875 211.719,149.891 213.961,149.906 216.203,149.922 218.445,149.941 220.691,149.965 
	222.934,149.988 225.176,150.016 227.418,150.047 229.664,150.082 231.906,150.121 234.148,150.164 236.391,150.215 238.637,150.27 
	240.879,150.328 243.121,150.398 245.363,150.473 247.609,150.559 249.852,150.652 252.094,150.758 254.336,150.875 
	256.582,151.004 258.824,151.148 261.066,151.309 263.309,151.488 265.555,151.684 267.797,151.902 270.039,152.141 
	272.285,152.402 274.527,152.695 276.77,153.012 279.012,153.359 281.258,153.738 283.5,154.148 285.742,154.598 287.984,155.082 
	290.23,155.602 292.473,156.164 294.715,156.77 296.957,157.414 299.203,158.102 301.445,158.828 303.688,159.602 305.93,160.414 
	308.176,161.273 310.418,162.168 312.66,163.105 314.902,164.082 317.148,165.098 319.391,166.145 321.633,167.23 323.875,168.344 
	326.121,169.492 328.363,170.668 330.605,171.867 332.848,173.094 335.094,174.344 337.336,175.613 339.578,176.902 341.82,178.211 
	344.066,179.535 346.309,180.875 348.551,182.227 350.793,183.594 353.039,184.969 355.281,186.355 357.523,187.75 359.766,189.152 
	362.012,190.566 364.254,191.984 366.496,193.406 368.738,194.836 370.984,196.27 373.227,197.707 375.469,199.148 377.715,200.594 
	379.957,202.043 382.199,203.496 384.441,204.949 386.688,206.402 388.93,207.863 391.172,209.32 393.414,210.785 395.66,212.246 
	397.902,213.711 400.145,215.176 402.387,216.641 404.633,218.109 406.875,219.574 409.117,221.043 411.359,222.516 
	413.605,223.984 415.848,225.453 418.09,226.926 420.332,228.395 422.578,229.867 424.82,231.34 427.063,232.813 429.305,234.281 
	431.551,235.754 433.793,237.227 436.035,238.703 438.277,240.176 440.523,241.648 442.766,243.121 445.008,244.594 447.25,246.066 
	449.496,247.543 451.738,249.016 453.98,250.488 456.223,251.961 458.469,253.438 460.711,254.91 462.953,256.383 465.195,257.859 
	467.441,259.332 469.684,260.805 471.926,262.281 474.172,263.754 476.414,265.23 478.656,266.703 480.898,268.176 483.145,269.652 
	485.387,271.125 487.629,272.602 489.871,274.074 "/>
<text transform="matrix(1 0 0 1 230.1777 417.4805)" font-family="'ArialMT'" font-size="14">frequency [Hz]</text>
<g>
	<g>
		<line fill="none" stroke="#000000" x1="334.5" y1="413.5" x2="365.416" y2="413.5"/>
		<g>
			<polygon points="362.102,417.59 361.42,416.857 365.031,413.501 361.42,410.145 362.102,409.411 366.5,413.501 			"/>
		</g>
	</g>
</g>
<text transform="matrix(1 0 0 1 69.8799 399.4805)" font-family="'ArialMT'" font-size="10">10</text>
<text transform="matrix(1 0 0 1 155.6284 399.4805)" font-family="'ArialMT'" font-size="10">100</text>
<text transform="matrix(1 0 0 1 248.5 399.4805)" font-family="'ArialMT'" font-size="10">1k</text>
<text transform="matrix(1 0 0 1 334.458 399.4805)" font-family="'ArialMT'" font-size="10">10k</text>
<text transform="matrix(1 0 0 1 420.7383 399.4805)" font-family="'ArialMT'" font-size="10">100k</text>
<text transform="matrix(1 0 0 1 513.0176 399.4805)" font-family="'ArialMT'" font-size="10">1M</text>
<text transform="matrix(1 0 0 1 55.4224 389.4805)" font-family="'ArialMT'" font-size="10">-80</text>
<text transform="matrix(1 0 0 1 55.4224 330.7998)" font-family="'ArialMT'" font-size="10">-60</text>
<text transform="matrix(1 0 0 1 55.4224 272.1201)" font-family="'ArialMT'" font-size="10">-40</text>
<text transform="matrix(1 0 0 1 55.4224 213.4404)" font-family="'ArialMT'" font-size="10">-20</text>
<text transform="matrix(1 0 0 1 64.314 154.7598)" font-family="'ArialMT'" font-size="10">0</text>
<text transform="matrix(1 0 0 1 58.7524 96.0801)" font-family="'ArialMT'" font-size="10">20</text>
<text transform="matrix(1 0 0 1 58.7524 37.4004)" font-family="'ArialMT'" font-size="10">40</text>
<text transform="matrix(6.123234e-017 -1 1 6.123234e-017 46.8755 258.9902)" font-family="'ArialMT'" font-size="14">20log| H(j2πf) |</text>
<g>
	<g>
		<line fill="none" stroke="#000000" x1="43.5" y1="184.5" x2="43.5" y2="153.584"/>
		<g>
			<polygon points="47.59,156.898 46.857,157.58 43.501,153.968 40.144,157.58 39.411,156.898 43.501,152.5 			"/>
		</g>
	</g>
</g>
<text transform="matrix(1 0 0 1 283 351.0898)" font-family="'ArialMT'" font-size="14">|p| / 2π</text>
<line opacity="0.5" fill="none" stroke="#000000" stroke-dasharray="0,4,4,4,4,0" enable-background="new    " x1="300.734" y1="149.762" x2="521.277" y2="294.629"/>
<text transform="matrix(1 0 0 1 152.1611 22.4063)" font-family="'ArialMT'" font-size="15">|H(j2πf)| for C=470nF, R=100Ω</text>
</svg>
