<?xml version="1.0" encoding="utf-8"?>
<!-- Generator: Adobe Illustrator 15.0.0, SVG Export Plug-In . SVG Version: 6.00 Build 0)  -->
<!DOCTYPE svg PUBLIC "-//W3C//DTD SVG 1.1//EN" "http://www.w3.org/Graphics/SVG/1.1/DTD/svg11.dtd">
<svg version="1.1" id="Layer_1" xmlns="http://www.w3.org/2000/svg" xmlns:xlink="http://www.w3.org/1999/xlink" x="0px" y="0px"
	 width="576px" height="432px" viewBox="0 0 576 432" enable-background="new 0 0 576 432" xml:space="preserve">
<title>glps_renderer figure</title>
<desc>Creator: GL2PS 1.3.8, (C) 1999-2012 C. Geuzaine
For: Octave
CreationDate: Wed Jan 06 11:46:41 2016</desc>
<line fill="none" stroke="#000000" stroke-width="2" stroke-dasharray="16,0" x1="74.883" y1="384.477" x2="521.277" y2="384.477"/>
<line fill="none" stroke="#000000" stroke-width="2" stroke-dasharray="16,0" x1="74.883" y1="384.477" x2="74.883" y2="32.402"/>
<line fill="none" stroke="#000000" stroke-dasharray="16,0" x1="74.883" y1="384.477" x2="74.883" y2="380.012"/>
<line fill="none" stroke="#000000" stroke-dasharray="16,0" x1="74.883" y1="32.402" x2="74.883" y2="36.867"/>
<line fill="none" stroke="#000000" stroke-dasharray="16,0" x1="186.48" y1="384.477" x2="186.48" y2="380.012"/>
<line fill="none" stroke="#000000" stroke-dasharray="16,0" x1="298.078" y1="384.477" x2="298.078" y2="380.012"/>
<line fill="none" stroke="#000000" stroke-dasharray="16,0" x1="409.68" y1="384.477" x2="409.68" y2="380.012"/>
<line fill="none" stroke="#000000" stroke-dasharray="16,0" x1="521.277" y1="384.477" x2="521.277" y2="380.012"/>
<line fill="none" stroke="#0000FF" stroke-width="3" x1="516.789" y1="208.441" x2="519.035" y2="208.441"/>
<line fill="none" stroke="#0000FF" stroke-width="3" x1="514.547" y1="208.441" x2="516.789" y2="208.441"/>
<line fill="none" stroke="#0000FF" stroke-width="3" x1="512.305" y1="208.441" x2="514.547" y2="208.441"/>
<line fill="none" stroke="#0000FF" stroke-width="3" x1="510.063" y1="208.441" x2="512.305" y2="208.441"/>
<line fill="none" stroke="#0000FF" stroke-width="3" x1="507.816" y1="208.441" x2="510.063" y2="208.441"/>
<line fill="none" stroke="#000000" stroke-dasharray="16,0" x1="74.883" y1="384.477" x2="79.352" y2="384.477"/>
<line fill="none" stroke="#000000" stroke-dasharray="16,0" x1="521.277" y1="384.477" x2="516.809" y2="384.477"/>
<line fill="none" stroke="#000000" stroke-dasharray="16,0" x1="74.883" y1="296.457" x2="79.352" y2="296.457"/>
<line fill="none" stroke="#000000" stroke-dasharray="16,0" x1="74.883" y1="208.441" x2="79.352" y2="208.441"/>
<line fill="none" stroke="#000000" stroke-dasharray="16,0" x1="74.883" y1="120.422" x2="79.352" y2="120.422"/>
<line fill="none" stroke="#000000" stroke-dasharray="16,0" x1="74.883" y1="32.402" x2="79.352" y2="32.402"/>
<line fill="none" stroke="#0000FF" stroke-width="3" x1="505.574" y1="208.441" x2="507.816" y2="208.441"/>
<line fill="none" stroke="#0000FF" stroke-width="3" x1="503.332" y1="208.441" x2="505.574" y2="208.441"/>
<line fill="none" stroke="#0000FF" stroke-width="3" x1="501.09" y1="208.441" x2="503.332" y2="208.441"/>
<line fill="none" stroke="#0000FF" stroke-width="3" x1="498.844" y1="208.441" x2="501.09" y2="208.441"/>
<line fill="none" stroke="#0000FF" stroke-width="3" x1="496.602" y1="208.441" x2="498.844" y2="208.441"/>
<line fill="none" stroke="#0000FF" stroke-width="3" x1="494.359" y1="208.441" x2="496.602" y2="208.441"/>
<line fill="none" stroke="#0000FF" stroke-width="3" x1="492.117" y1="208.441" x2="494.359" y2="208.441"/>
<line fill="none" stroke="#0000FF" stroke-width="3" x1="489.871" y1="208.441" x2="492.117" y2="208.441"/>
<polyline fill="none" stroke="#0000FF" stroke-width="3" points="74.883,384.477 77.125,350.586 79.371,323.223 81.613,301.125 
	83.855,283.281 86.098,268.871 88.344,257.238 90.586,247.844 92.828,240.258 95.07,234.133 97.316,229.188 99.559,225.191 
	101.801,221.969 104.043,219.363 106.289,217.262 108.531,215.563 110.773,214.191 113.016,213.082 115.262,212.191 
	117.504,211.469 119.746,210.887 121.988,210.414 124.234,210.035 126.477,209.727 128.719,209.48 130.961,209.281 133.207,209.117 
	135.449,208.988 137.691,208.883 139.934,208.797 142.18,208.727 144.422,208.672 146.664,208.629 148.906,208.594 151.152,208.563 
	153.395,208.539 155.637,208.52 157.879,208.504 160.125,208.492 162.367,208.48 164.609,208.473 166.852,208.469 169.098,208.461 
	171.34,208.457 173.582,208.453 175.828,208.453 178.07,208.449 180.313,208.449 182.555,208.445 184.801,208.445 187.043,208.445 
	189.285,208.445 191.527,208.441 193.773,208.441 196.016,208.441 198.258,208.441 200.5,208.441 202.746,208.441 204.988,208.441 
	207.23,208.441 209.473,208.441 211.719,208.441 213.961,208.441 216.203,208.441 218.445,208.441 220.691,208.441 222.934,208.441 
	225.176,208.441 227.418,208.441 229.664,208.441 231.906,208.441 234.148,208.441 236.391,208.441 238.637,208.441 
	240.879,208.441 243.121,208.441 245.363,208.441 247.609,208.441 249.852,208.441 252.094,208.441 254.336,208.441 
	256.582,208.441 258.824,208.441 261.066,208.441 263.309,208.441 265.555,208.441 267.797,208.441 270.039,208.441 
	272.285,208.441 274.527,208.441 276.77,208.441 279.012,208.441 281.258,208.441 283.5,208.441 285.742,208.441 287.984,208.441 
	290.23,208.441 292.473,208.441 294.715,208.441 296.957,208.441 299.203,208.441 301.445,208.441 303.688,208.441 305.93,208.441 
	308.176,208.441 310.418,208.441 312.66,208.441 314.902,208.441 317.148,208.441 319.391,208.441 321.633,208.441 323.875,208.441 
	326.121,208.441 328.363,208.441 330.605,208.441 332.848,208.441 335.094,208.441 337.336,208.441 339.578,208.441 341.82,208.441 
	344.066,208.441 346.309,208.441 348.551,208.441 350.793,208.441 353.039,208.441 355.281,208.441 357.523,208.441 
	359.766,208.441 362.012,208.441 364.254,208.441 366.496,208.441 368.738,208.441 370.984,208.441 373.227,208.441 
	375.469,208.441 377.715,208.441 379.957,208.441 382.199,208.441 384.441,208.441 386.688,208.441 388.93,208.441 391.172,208.441 
	393.414,208.441 395.66,208.441 397.902,208.441 400.145,208.441 402.387,208.441 404.633,208.441 406.875,208.441 409.117,208.441 
	411.359,208.441 413.605,208.441 415.848,208.441 418.09,208.441 420.332,208.441 422.578,208.441 424.82,208.441 427.063,208.441 
	429.305,208.441 431.551,208.441 433.793,208.441 436.035,208.441 438.277,208.441 440.523,208.441 442.766,208.441 
	445.008,208.441 447.25,208.441 449.496,208.441 451.738,208.441 453.98,208.441 456.223,208.441 458.469,208.441 460.711,208.441 
	462.953,208.441 465.195,208.441 467.441,208.441 469.684,208.441 471.926,208.441 474.172,208.441 476.414,208.441 
	478.656,208.441 480.898,208.441 483.145,208.441 485.387,208.441 487.629,208.441 489.871,208.441 "/>
<text transform="matrix(1 0 0 1 72.0991 399.4805)" font-family="'ArialMT'" font-size="10">0</text>
<text transform="matrix(1 0 0 1 178.187 399.4805)" font-family="'ArialMT'" font-size="10">0.5</text>
<text transform="matrix(1 0 0 1 293.5684 399.4805)" font-family="'ArialMT'" font-size="10">1</text>
<text transform="matrix(1 0 0 1 401.3867 399.4805)" font-family="'ArialMT'" font-size="10">1.5</text>
<text transform="matrix(1 0 0 1 516.7676 399.4805)" font-family="'ArialMT'" font-size="10">2</text>
<text transform="matrix(1 0 0 1 55.9741 301.46)" font-family="'ArialMT'" font-size="10">0.5</text>
<text transform="matrix(1 0 0 1 64.314 213.4404)" font-family="'ArialMT'" font-size="10">1</text>
<text transform="matrix(1 0 0 1 55.9741 125.4199)" font-family="'ArialMT'" font-size="10">1.5</text>
<text transform="matrix(1 0 0 1 64.314 37.4004)" font-family="'ArialMT'" font-size="10">2</text>
<text transform="matrix(1 0 0 1 274.9668 418.4805)" font-family="'ArialMT'" font-size="14">time [ms]</text>
<text transform="matrix(6.123234e-017 -1 1 6.123234e-017 47.8755 218.5371)" font-family="'ArialMT'" font-size="14">|y(t)|</text>
<g>
	<g>
		<line fill="none" stroke="#000000" x1="334.5" y1="413.5" x2="365.416" y2="413.5"/>
		<g>
			<polygon points="362.102,417.59 361.42,416.857 365.031,413.501 361.42,410.145 362.102,409.411 366.5,413.501 			"/>
		</g>
	</g>
</g>
<g>
	<g>
		<line fill="none" stroke="#000000" x1="43.5" y1="184.5" x2="43.5" y2="153.584"/>
		<g>
			<polygon points="47.59,156.898 46.857,157.58 43.501,153.968 40.144,157.58 39.411,156.898 43.501,152.5 			"/>
		</g>
	</g>
</g>
<text transform="matrix(1 0 0 1 152.1611 22.4063)" font-family="'ArialMT'" font-size="15">y(t) for C=470nF, R=100Ω</text>
</svg>
