<?xml version="1.0" encoding="utf-8"?>
<!-- Generator: Adobe Illustrator 15.0.0, SVG Export Plug-In . SVG Version: 6.00 Build 0)  -->
<!DOCTYPE svg PUBLIC "-//W3C//DTD SVG 1.1//EN" "http://www.w3.org/Graphics/SVG/1.1/DTD/svg11.dtd">
<svg version="1.1" id="Layer_1" xmlns="http://www.w3.org/2000/svg" xmlns:xlink="http://www.w3.org/1999/xlink" x="0px" y="0px"
	 width="500px" height="377.5px" viewBox="31.5 54.5 500 377.5" enable-background="new 31.5 54.5 500 377.5" xml:space="preserve">
<title>glps_renderer figure</title>
<desc>Creator: GL2PS 1.3.8, (C) 1999-2012 C. Geuzaine
For: Octave
CreationDate: Sat Dec 19 14:40:45 2015</desc>
<line fill="none" stroke="#000000" stroke-width="2" stroke-dasharray="16,0" x1="74.88" y1="384.48" x2="521.28" y2="384.48"/>
<line fill="none" stroke="#000000" stroke-width="2" stroke-dasharray="16,0" x1="74.88" y1="384.48" x2="74.88" y2="61.833"/>
<line fill="none" stroke="#000000" stroke-dasharray="16,0" x1="74.88" y1="384.48" x2="79.348" y2="384.48"/>
<line fill="none" stroke="#000000" stroke-dasharray="16,0" x1="521.28" y1="384.48" x2="516.813" y2="384.48"/>
<line fill="none" stroke="#000000" stroke-dasharray="16,0" x1="74.88" y1="177.76" x2="79.348" y2="177.76"/>
<line fill="none" stroke="#000000" stroke-dasharray="16,0" x1="74.88" y1="91.08" x2="79.348" y2="91.08"/>
<text transform="matrix(1 0 0 1 60.9844 182.7598)" font-family="'ArialMT'" font-size="10">-3</text>
<text transform="matrix(1 0 0 1 64.3145 96.0801)" font-family="'ArialMT'" font-size="10">0</text>
<line fill="none" stroke="#0000FF" x1="430.333" y1="384.825" x2="430.336" y2="384.832"/>
<polyline fill="none" stroke="#0000FF" stroke-width="3" points="175.193,384.832 175.205,384.81 175.354,384.534 175.502,384.258 
	175.651,383.982 175.8,383.706 175.949,383.429 176.098,383.152 176.247,382.875 176.396,382.598 176.544,382.32 176.693,382.043 
	176.842,381.765 176.991,381.486 177.14,381.208 177.289,380.929 177.437,380.65 177.586,380.371 177.735,380.091 177.884,379.813 
	178.033,379.532 178.182,379.252 178.33,378.971 178.479,378.691 178.628,378.41 178.777,378.128 178.926,377.847 179.075,377.565 
	179.224,377.283 179.372,377.001 179.521,376.719 179.67,376.436 179.819,376.153 179.968,375.87 180.116,375.587 180.266,375.303 
	180.414,375.02 180.563,374.735 180.712,374.45 180.861,374.166 181.01,373.881 181.159,373.596 181.307,373.31 181.457,373.025 
	181.605,372.739 181.754,372.452 181.903,372.166 182.052,371.879 182.201,371.592 182.349,371.305 182.498,371.018 182.647,370.73 
	182.796,370.442 182.945,370.154 183.094,369.865 183.243,369.576 183.391,369.287 183.54,368.998 183.689,368.709 183.838,368.419 
	183.987,368.129 184.136,367.838 184.284,367.548 184.433,367.257 184.582,366.966 184.731,366.674 184.88,366.383 185.029,366.091 
	185.178,365.799 185.326,365.506 185.475,365.214 185.624,364.921 185.773,364.627 185.922,364.334 186.071,364.04 186.22,363.746 
	186.368,363.452 186.517,363.157 186.666,362.863 186.815,362.567 186.964,362.271 187.113,361.976 187.262,361.681 187.41,361.384 
	187.559,361.088 187.708,360.791 187.857,360.494 188.006,360.197 188.155,359.899 188.303,359.602 188.452,359.304 
	188.601,359.005 188.75,358.707 188.899,358.408 189.048,358.108 189.196,357.809 189.345,357.509 189.494,357.209 189.643,356.909 
	189.792,356.608 189.941,356.308 190.09,356.007 190.238,355.705 190.387,355.404 190.536,355.102 190.685,354.799 190.834,354.497 
	190.982,354.194 191.132,353.891 191.28,353.588 191.429,353.284 191.578,352.98 191.727,352.676 191.876,352.371 192.025,352.067 
	192.173,351.762 192.323,351.456 192.471,351.151 192.62,350.845 192.769,350.538 192.918,350.232 193.067,349.925 193.215,349.618 
	193.364,349.311 193.513,349.003 193.662,348.695 193.811,348.387 193.96,348.079 194.109,347.77 194.257,347.461 194.406,347.151 
	194.555,346.842 194.704,346.532 194.853,346.221 195.002,345.911 195.15,345.6 195.299,345.289 195.448,344.979 195.597,344.666 
	195.746,344.354 195.895,344.041 196.044,343.729 196.192,343.416 196.341,343.104 196.49,342.789 196.639,342.476 196.788,342.161 
	196.937,341.847 197.086,341.532 197.234,341.217 197.383,340.902 197.532,340.586 197.681,340.271 197.83,339.954 197.979,339.638 
	198.127,339.321 198.276,339.004 198.425,338.688 198.574,338.369 198.723,338.051 198.872,337.733 199.021,337.414 
	199.169,337.095 199.318,336.776 199.467,336.456 199.616,336.137 199.765,335.816 199.914,335.496 200.062,335.175 
	200.211,334.854 200.36,334.533 200.509,334.211 200.658,333.889 200.807,333.567 200.956,333.244 201.104,332.921 201.253,332.598 
	201.402,332.274 201.551,331.951 201.7,331.626 201.849,331.302 201.998,330.977 202.147,330.652 202.295,330.327 202.444,330.001 
	202.593,329.675 202.742,329.348 202.891,329.021 203.039,328.695 203.189,328.367 203.337,328.04 203.486,327.712 203.635,327.383 
	203.784,327.055 203.933,326.726 204.081,326.396 204.23,326.067 204.379,325.737 204.528,325.407 204.677,325.077 204.826,324.746 
	204.975,324.414 205.123,324.083 205.272,323.751 205.421,323.419 205.57,323.087 205.719,322.754 205.868,322.421 206.016,322.087 
	206.165,321.753 206.314,321.419 206.463,321.085 206.612,320.75 206.761,320.415 206.91,320.08 207.059,319.744 207.207,319.408 
	207.356,319.072 207.505,318.735 207.654,318.398 207.803,318.06 207.952,317.723 208.1,317.385 208.249,317.046 208.398,316.708 
	208.547,316.368 208.696,316.029 208.845,315.689 208.993,315.349 209.142,315.009 209.291,314.668 209.44,314.327 209.589,313.986 
	209.738,313.645 209.887,313.302 210.036,312.96 210.184,312.617 210.333,312.274 210.482,311.93 210.631,311.587 210.78,311.243 
	210.928,310.898 211.077,310.553 211.226,310.208 211.375,309.863 211.524,309.517 211.673,309.171 211.822,308.824 211.97,308.479 
	212.119,308.131 212.268,307.783 212.417,307.435 212.566,307.087 212.715,306.738 212.864,306.39 213.013,306.04 213.161,305.691 
	213.31,305.341 213.459,304.991 213.608,304.641 213.757,304.289 213.905,303.938 214.054,303.586 214.203,303.234 214.352,302.882 
	214.501,302.529 214.65,302.176 214.799,301.823 214.948,301.469 215.096,301.115 215.245,300.76 215.394,300.406 215.543,300.05 
	215.692,299.695 215.841,299.339 215.989,298.982 216.138,298.626 216.287,298.27 216.436,297.912 216.585,297.555 216.734,297.197 
	216.882,296.838 217.032,296.48 217.18,296.121 217.329,295.761 217.478,295.4 217.627,295.041 217.776,294.682 217.925,294.32 
	218.073,293.959 218.222,293.598 218.371,293.234 218.52,292.873 218.669,292.511 218.818,292.148 218.966,291.784 219.115,291.421 
	219.264,291.057 219.413,290.691 219.562,290.328 219.711,289.962 219.859,289.598 220.008,289.23 220.157,288.865 220.306,288.498 
	220.455,288.131 220.604,287.764 220.752,287.396 220.902,287.029 221.05,286.66 221.199,286.291 221.348,285.922 221.497,285.553 
	221.646,285.184 221.794,284.813 221.943,284.441 222.092,284.071 222.241,283.7 222.39,283.328 222.539,282.956 222.688,282.584 
	222.837,282.211 222.985,281.838 223.134,281.465 223.283,281.091 223.432,280.717 223.581,280.342 223.73,279.967 223.879,279.592 
	224.027,279.216 224.176,278.84 224.325,278.464 224.474,278.087 224.623,277.71 224.771,277.332 224.92,276.955 225.069,276.576 
	225.218,276.198 225.367,275.818 225.516,275.439 225.665,275.061 225.814,274.68 225.962,274.299 226.111,273.918 226.26,273.537 
	226.409,273.156 226.558,272.773 226.707,272.393 226.855,272.009 227.004,271.626 227.153,271.242 227.302,270.859 
	227.451,270.475 227.6,270.09 227.749,269.705 227.898,269.32 228.046,268.934 228.195,268.548 228.344,268.162 228.493,267.775 
	228.642,267.389 228.791,267.001 228.939,266.613 229.088,266.225 229.237,265.836 229.386,265.447 229.535,265.059 
	229.684,264.668 229.832,264.277 229.981,263.889 230.13,263.497 230.279,263.105 230.428,262.715 230.577,262.323 230.726,261.932 
	230.874,261.538 231.023,261.145 231.172,260.752 231.321,260.357 231.47,259.964 231.618,259.568 231.768,259.175 231.916,258.779 
	232.065,258.384 232.214,257.988 232.363,257.592 232.512,257.195 232.66,256.798 232.809,256.4 232.958,256.003 233.107,255.605 
	233.256,255.206 233.405,254.809 233.554,254.408 233.703,254.009 233.851,253.609 234,253.209 234.149,252.809 234.298,252.407 
	234.447,252.006 234.596,251.604 234.745,251.202 234.893,250.799 235.042,250.396 235.191,249.993 235.34,249.59 235.489,249.186 
	235.638,248.782 235.786,248.377 235.935,247.973 236.084,247.566 236.233,247.161 236.382,246.755 236.531,246.35 236.68,245.941 
	236.828,245.535 236.977,245.128 237.126,244.72 237.275,244.313 237.424,243.902 237.573,243.494 237.722,243.085 237.87,242.675 
	238.019,242.266 238.168,241.855 238.317,241.445 238.466,241.034 238.615,240.622 238.763,240.211 238.912,239.799 
	239.061,239.386 239.21,238.975 239.359,238.561 239.508,238.146 239.657,237.734 239.805,237.32 239.954,236.905 240.103,236.491 
	240.252,236.075 240.401,235.66 240.55,235.244 240.698,234.828 240.847,234.412 240.996,233.995 241.145,233.578 241.294,233.161 
	241.443,232.743 241.592,232.325 241.74,231.907 241.889,231.488 242.038,231.068 242.187,230.648 242.336,230.23 242.484,229.811 
	242.634,229.389 242.782,228.969 242.931,228.548 243.08,228.126 243.229,227.705 243.378,227.283 243.527,226.861 243.675,226.438 
	243.825,226.016 243.973,225.592 244.122,225.169 244.271,224.745 244.42,224.32 244.569,223.896 244.717,223.473 244.866,223.047 
	245.015,222.622 245.164,222.195 245.313,221.77 245.461,221.344 245.611,220.917 245.759,220.491 245.908,220.064 246.057,219.636 
	246.206,219.209 246.355,218.781 246.504,218.354 246.652,217.924 246.801,217.495 246.95,217.066 247.099,216.637 247.248,216.207 
	247.397,215.778 247.545,215.348 247.694,214.917 247.843,214.486 247.992,214.056 248.141,213.624 248.29,213.193 248.439,212.761 
	248.588,212.329 248.736,211.897 248.885,211.465 249.034,211.032 249.183,210.599 249.332,210.166 249.481,209.732 
	249.629,209.299 249.778,208.865 249.927,208.431 250.076,207.996 250.225,207.562 250.374,207.127 250.523,206.692 
	250.671,206.257 250.82,205.821 250.969,205.385 251.118,204.949 251.267,204.513 251.416,204.077 251.564,203.64 251.713,203.204 
	251.862,202.767 252.011,202.329 252.16,201.892 252.309,201.455 252.458,201.017 252.606,200.579 252.755,200.141 252.904,199.703 
	253.053,199.264 253.202,198.825 253.35,198.387 253.5,197.948 253.648,197.509 253.797,197.069 253.946,196.63 254.095,196.19 
	254.244,195.751 254.393,195.311 254.541,194.871 254.691,194.43 254.839,193.99 254.988,193.55 255.137,193.109 255.286,192.668 
	255.435,192.228 255.583,191.787 255.732,191.346 255.881,190.905 256.03,190.463 256.179,190.022 256.328,189.58 256.477,189.139 
	256.625,188.697 256.774,188.256 256.923,187.814 257.072,187.372 257.221,186.93 257.37,186.488 257.518,186.046 257.667,185.604 
	257.816,185.162 257.965,184.719 258.114,184.277 258.263,183.835 258.412,183.392 258.56,182.95 258.709,182.508 258.858,182.065 
	259.007,181.623 259.156,181.18 259.305,180.738 259.454,180.295 259.602,179.853 259.751,179.41 259.9,178.968 260.049,178.526 
	260.198,178.083 260.347,177.641 260.495,177.198 260.644,176.756 260.793,176.314 260.942,175.872 261.091,175.43 261.24,174.988 
	261.388,174.546 261.538,174.104 261.686,173.662 261.835,173.22 261.984,172.779 262.133,172.337 262.282,171.896 262.43,171.454 
	262.579,171.013 262.728,170.572 262.877,170.131 263.026,169.69 263.175,169.25 263.324,168.809 263.472,168.369 263.621,167.928 
	263.77,167.488 263.919,167.049 264.068,166.609 264.217,166.17 264.366,165.73 264.515,165.291 264.663,164.852 264.812,164.414 
	264.961,163.975 265.11,163.537 265.259,163.099 265.407,162.662 265.556,162.224 265.705,161.787 265.854,161.35 266.003,160.914 
	266.152,160.477 266.301,160.042 266.449,159.606 266.598,159.17 266.747,158.735 266.896,158.301 267.045,157.866 267.194,157.432 
	267.343,156.999 267.491,156.565 267.64,156.132 267.789,155.7 267.938,155.268 268.087,154.836 268.236,154.404 268.384,153.974 
	268.533,153.543 268.682,153.113 268.831,152.683 268.98,152.254 269.129,151.825 269.278,151.397 269.427,150.969 269.575,150.542 
	269.724,150.115 269.873,149.689 270.022,149.263 270.171,148.838 270.32,148.413 270.468,147.989 270.617,147.565 270.766,147.142 
	270.915,146.72 271.064,146.298 271.213,145.877 271.361,145.456 271.51,145.036 271.659,144.617 271.808,144.198 271.957,143.78 
	272.106,143.362 272.254,142.946 272.404,142.529 272.552,142.114 272.701,141.699 272.85,141.285 272.999,140.872 273.148,140.46 
	273.296,140.048 273.445,139.637 273.594,139.227 273.743,138.817 273.892,138.409 274.041,138.001 274.19,137.594 274.339,137.188 
	274.487,136.782 274.636,136.378 274.785,135.974 274.934,135.572 275.083,135.17 275.232,134.769 275.381,134.369 275.529,133.97 
	275.678,133.572 275.827,133.174 275.976,132.778 276.125,132.383 276.273,131.989 276.422,131.596 276.571,131.203 276.72,130.812 
	276.869,130.422 277.018,130.033 277.167,129.645 277.316,129.258 277.464,128.872 277.613,128.488 277.762,128.104 
	277.911,127.722 278.06,127.34 278.209,126.96 278.357,126.581 278.506,126.204 278.655,125.827 278.804,125.452 278.953,125.078 
	279.102,124.705 279.25,124.333 279.399,123.963 279.548,123.594 279.697,123.226 279.846,122.86 279.995,122.495 280.144,122.131 
	280.293,121.769 280.441,121.408 280.59,121.049 280.739,120.69 280.888,120.334 281.037,119.978 281.186,119.625 281.334,119.272 
	281.483,118.921 281.632,118.572 281.781,118.224 281.93,117.878 282.079,117.533 282.228,117.19 282.376,116.848 282.525,116.508 
	282.674,116.169 282.823,115.832 282.972,115.497 283.12,115.164 283.27,114.832 283.418,114.501 283.567,114.173 283.716,113.846 
	283.865,113.521 284.014,113.197 284.162,112.875 284.311,112.556 284.46,112.237 284.609,111.921 284.758,111.607 284.907,111.294 
	285.056,110.983 285.205,110.674 285.353,110.367 285.502,110.062 285.651,109.758 285.8,109.457 285.949,109.157 286.097,108.86 
	286.247,108.564 286.395,108.271 286.544,107.979 286.693,107.689 286.842,107.402 286.991,107.116 287.139,106.833 
	287.288,106.551 287.437,106.272 287.586,105.995 287.735,105.72 287.884,105.447 288.033,105.176 288.181,104.907 288.33,104.641 
	288.479,104.376 288.628,104.114 288.777,103.854 288.926,103.597 289.075,103.341 289.223,103.088 289.372,102.837 
	289.521,102.589 289.67,102.342 289.818,102.098 289.968,101.857 290.117,101.617 290.266,101.381 290.414,101.146 290.563,100.914 
	290.712,100.684 290.861,100.457 291.01,100.232 291.159,100.009 291.307,99.789 291.456,99.572 291.605,99.356 291.754,99.144 
	291.903,98.934 292.052,98.727 292.2,98.521 292.35,98.319 292.498,98.119 292.646,97.922 292.796,97.727 292.945,97.535 
	293.094,97.345 293.242,97.158 293.391,96.974 293.54,96.792 293.689,96.613 293.838,96.438 293.986,96.264 294.136,96.093 
	294.284,95.924 294.434,95.759 294.582,95.596 294.73,95.436 294.88,95.278 295.029,95.124 295.177,94.972 295.327,94.823 
	295.475,94.677 295.624,94.533 295.773,94.393 295.922,94.255 296.071,94.12 296.219,93.988 296.368,93.858 296.518,93.732 
	296.666,93.608 296.814,93.487 296.963,93.37 297.113,93.255 297.261,93.143 297.41,93.033 297.559,92.927 297.708,92.823 
	297.857,92.723 298.006,92.625 298.154,92.531 298.303,92.439 298.452,92.351 298.602,92.265 298.75,92.182 298.898,92.102 
	299.047,92.025 299.196,91.951 299.345,91.88 299.494,91.813 299.643,91.747 299.792,91.685 299.941,91.626 300.09,91.57 
	300.238,91.518 300.387,91.467 300.536,91.42 300.686,91.376 300.834,91.336 300.982,91.298 301.131,91.263 301.28,91.231 
	301.429,91.202 301.578,91.177 301.727,91.154 301.876,91.134 302.025,91.118 302.173,91.104 302.322,91.093 302.471,91.086 
	302.62,91.082 302.77,91.08 302.918,91.082 303.066,91.086 303.215,91.094 303.364,91.104 303.513,91.119 303.662,91.135 
	303.811,91.155 303.96,91.178 304.107,91.204 304.257,91.233 304.406,91.265 304.555,91.3 304.704,91.338 304.852,91.379 
	305.002,91.423 305.15,91.47 305.299,91.521 305.448,91.573 305.597,91.63 305.746,91.688 305.895,91.751 306.043,91.816 
	306.191,91.884 306.341,91.955 306.49,92.029 306.639,92.106 306.788,92.187 306.938,92.27 307.085,92.355 307.234,92.444 
	307.383,92.536 307.532,92.631 307.682,92.729 307.829,92.829 307.979,92.933 308.127,93.04 308.275,93.149 308.425,93.261 
	308.574,93.376 308.723,93.494 308.872,93.615 309.02,93.739 309.169,93.866 309.318,93.995 309.467,94.127 309.616,94.263 
	309.766,94.401 309.913,94.542 310.063,94.685 310.211,94.832 310.359,94.981 310.509,95.133 310.658,95.288 310.807,95.445 
	310.956,95.605 311.104,95.768 311.253,95.934 311.402,96.103 311.551,96.273 311.7,96.447 311.85,96.624 311.997,96.803 
	312.146,96.984 312.295,97.169 312.443,97.356 312.593,97.546 312.742,97.738 312.891,97.933 313.039,98.13 313.188,98.331 
	313.337,98.533 313.486,98.738 313.635,98.946 313.784,99.156 313.932,99.369 314.081,99.584 314.23,99.802 314.379,100.022 
	314.528,100.245 314.677,100.47 314.826,100.697 314.975,100.927 315.123,101.159 315.271,101.394 315.421,101.631 315.57,101.871 
	315.719,102.112 315.868,102.356 316.018,102.603 316.165,102.852 316.314,103.103 316.463,103.356 316.612,103.611 
	316.761,103.869 316.909,104.129 317.059,104.392 317.207,104.656 317.355,104.923 317.505,105.191 317.654,105.462 
	317.803,105.735 317.951,106.011 318.1,106.288 318.249,106.567 318.398,106.849 318.547,107.133 318.696,107.418 318.845,107.706 
	318.993,107.996 319.143,108.287 319.291,108.581 319.439,108.877 319.589,109.174 319.738,109.474 319.886,109.776 
	320.035,110.079 320.184,110.384 320.333,110.692 320.482,111.001 320.631,111.312 320.78,111.625 320.928,111.939 321.077,112.256 
	321.227,112.574 321.375,112.894 321.523,113.216 321.673,113.539 321.822,113.864 321.97,114.191 322.119,114.52 322.268,114.851 
	322.417,115.183 322.566,115.516 322.715,115.852 322.863,116.189 323.012,116.527 323.161,116.867 323.311,117.209 
	323.459,117.553 323.607,117.897 323.756,118.244 323.906,118.592 324.054,118.941 324.203,119.292 324.352,119.645 
	324.501,119.999 324.65,120.354 324.798,120.711 324.947,121.069 325.096,121.429 325.245,121.79 325.395,122.152 325.543,122.516 
	325.691,122.881 325.84,123.247 325.989,123.615 326.138,123.984 326.287,124.355 326.436,124.726 326.585,125.099 326.734,125.473 
	326.883,125.849 327.031,126.225 327.18,126.603 327.329,126.982 327.479,127.362 327.627,127.744 327.775,128.126 327.924,128.51 
	328.073,128.894 328.222,129.28 328.371,129.667 328.52,130.055 328.669,130.444 328.816,130.835 328.966,131.226 329.115,131.618 
	329.264,132.011 329.413,132.406 329.563,132.801 329.711,133.197 329.859,133.594 330.008,133.993 330.157,134.392 
	330.307,134.792 330.455,135.193 330.604,135.595 330.752,135.997 330.9,136.401 331.05,136.806 331.199,137.211 331.348,137.617 
	331.497,138.024 331.646,138.432 331.795,138.841 331.943,139.25 332.092,139.66 332.241,140.071 332.391,140.483 332.539,140.896 
	332.688,141.309 332.836,141.723 332.984,142.138 333.134,142.553 333.283,142.969 333.432,143.386 333.581,143.804 
	333.729,144.222 333.878,144.641 334.027,145.06 334.176,145.48 334.325,145.901 334.475,146.322 334.622,146.744 334.771,147.167 
	334.92,147.59 335.068,148.013 335.218,148.437 335.367,148.862 335.516,149.287 335.664,149.713 335.813,150.14 335.962,150.566 
	336.111,150.994 336.26,151.422 336.409,151.85 336.559,152.279 336.707,152.708 336.855,153.138 337.004,153.568 337.153,153.998 
	337.302,154.429 337.451,154.861 337.6,155.292 337.749,155.725 337.896,156.157 338.046,156.59 338.195,157.023 338.344,157.457 
	338.493,157.891 338.641,158.326 338.79,158.76 338.939,159.195 339.088,159.631 339.237,160.066 339.386,160.502 339.535,160.939 
	339.684,161.375 339.832,161.812 339.98,162.249 340.13,162.687 340.279,163.124 340.428,163.562 340.577,164.001 340.725,164.439 
	340.874,164.878 341.023,165.316 341.172,165.755 341.321,166.195 341.47,166.634 341.618,167.074 341.768,167.514 341.916,167.954 
	342.064,168.394 342.214,168.834 342.363,169.275 342.512,169.715 342.661,170.156 342.809,170.597 342.958,171.038 343.107,171.48 
	343.256,171.921 343.405,172.362 343.554,172.804 343.702,173.245 343.852,173.687 344,174.129 344.148,174.571 344.298,175.013 
	344.447,175.455 344.596,175.897 344.744,176.339 344.893,176.782 345.042,177.224 345.191,177.666 345.34,178.108 345.488,178.551 
	345.638,178.993 345.786,179.436 345.936,179.878 346.084,180.321 346.232,180.763 346.382,181.206 346.53,181.648 346.679,182.09 
	346.828,182.533 346.977,182.975 347.126,183.418 347.275,183.86 347.424,184.302 347.573,184.745 347.721,185.187 347.87,185.629 
	348.02,186.071 348.168,186.513 348.316,186.955 348.465,187.397 348.615,187.839 348.763,188.281 348.912,188.723 349.061,189.164 
	349.21,189.606 349.359,190.047 349.508,190.489 349.656,190.93 349.805,191.371 349.954,191.812 350.104,192.253 350.252,192.694 
	350.4,193.134 350.549,193.575 350.698,194.015 350.847,194.456 350.996,194.896 351.145,195.336 351.294,195.776 351.443,196.215 
	351.591,196.655 351.74,197.095 351.889,197.534 352.038,197.973 352.188,198.412 352.336,198.851 352.484,199.289 352.633,199.728 
	352.782,200.166 352.932,200.604 353.08,201.042 353.229,201.48 353.378,201.917 353.525,202.355 353.675,202.792 353.824,203.229 
	353.973,203.665 354.122,204.102 354.271,204.538 354.42,204.974 354.568,205.41 354.717,205.846 354.866,206.282 355.016,206.717 
	355.164,207.152 355.313,207.587 355.462,208.021 355.609,208.456 355.759,208.89 355.908,209.324 356.057,209.757 356.206,210.191 
	356.354,210.624 356.504,211.057 356.652,211.489 356.801,211.922 356.95,212.354 357.1,212.786 357.248,213.218 357.396,213.649 
	357.545,214.08 357.693,214.511 357.843,214.942 357.992,215.372 358.141,215.802 358.29,216.232 358.439,216.662 358.587,217.091 
	358.736,217.52 358.885,217.949 359.034,218.377 359.184,218.805 359.331,219.232 359.48,219.661 359.629,220.088 359.778,220.516 
	359.927,220.941 360.076,221.368 360.225,221.795 360.374,222.22 360.521,222.646 360.671,223.07 360.82,223.496 360.969,223.921 
	361.118,224.345 361.268,224.77 361.415,225.193 361.564,225.617 361.713,226.04 361.862,226.462 362.011,226.885 362.16,227.307 
	362.309,227.729 362.458,228.15 362.605,228.572 362.755,228.993 362.904,229.414 363.053,229.834 363.202,230.254 363.352,230.673 
	363.499,231.093 363.648,231.512 363.797,231.932 363.946,232.35 364.095,232.768 364.244,233.186 364.393,233.602 364.541,234.02 
	364.689,234.436 364.839,234.852 364.988,235.268 365.137,235.684 365.286,236.1 365.434,236.514 365.583,236.93 365.732,237.343 
	365.881,237.757 366.03,238.171 366.179,238.584 366.328,238.997 366.477,239.41 366.625,239.822 366.773,240.234 366.923,240.646 
	367.072,241.057 367.22,241.468 367.37,241.879 367.518,242.289 367.667,242.699 367.816,243.107 367.965,243.518 368.114,243.926 
	368.263,244.335 368.411,244.743 368.561,245.15 368.709,245.559 368.857,245.965 369.007,246.372 369.156,246.777 369.305,247.184 
	369.453,247.59 369.602,247.995 369.751,248.4 369.9,248.805 370.049,249.209 370.198,249.613 370.347,250.018 370.495,250.42 
	370.645,250.822 370.793,251.225 370.941,251.627 371.091,252.029 371.24,252.43 371.388,252.831 371.537,253.232 371.686,253.632 
	371.835,254.032 371.984,254.432 372.133,254.83 372.281,255.229 372.43,255.628 372.579,256.025 372.729,256.423 372.877,256.821 
	373.025,257.218 373.175,257.614 373.324,258.011 373.472,258.407 373.621,258.802 373.77,259.197 373.919,259.592 374.068,259.986 
	374.217,260.38 374.365,260.773 374.514,261.167 374.663,261.561 374.813,261.953 374.961,262.345 375.109,262.736 375.258,263.129 
	375.408,263.52 375.557,263.91 375.705,264.301 375.854,264.691 376.003,265.08 376.152,265.47 376.3,265.859 376.449,266.247 
	376.598,266.635 376.747,267.023 376.896,267.411 377.045,267.798 377.193,268.184 377.342,268.571 377.491,268.957 
	377.641,269.342 377.789,269.727 377.938,270.111 378.087,270.497 378.234,270.881 378.385,271.264 378.533,271.648 
	378.682,272.031 378.831,272.413 378.98,272.796 379.129,273.178 379.277,273.559 379.426,273.939 379.575,274.321 379.725,274.702 
	379.873,275.082 380.021,275.461 380.171,275.841 380.318,276.219 380.468,276.598 380.617,276.977 380.766,277.354 
	380.915,277.732 381.064,278.109 381.213,278.484 381.361,278.861 381.51,279.238 381.659,279.613 381.809,279.989 381.957,280.364 
	382.105,280.738 382.254,281.111 382.403,281.486 382.552,281.859 382.701,282.232 382.85,282.605 382.999,282.979 383.148,283.35 
	383.297,283.721 383.445,284.093 383.594,284.464 383.743,284.834 383.893,285.204 384.041,285.574 384.189,285.943 
	384.338,286.313 384.487,286.682 384.636,287.05 384.785,287.418 384.934,287.785 385.083,288.152 385.23,288.52 385.38,288.886 
	385.529,289.252 385.678,289.618 385.827,289.982 385.977,290.348 386.124,290.713 386.273,291.078 386.422,291.441 
	386.571,291.805 386.72,292.169 386.869,292.531 387.018,292.895 387.166,293.256 387.314,293.618 387.464,293.98 387.613,294.341 
	387.762,294.702 387.911,295.063 388.061,295.422 388.208,295.782 388.357,296.141 388.506,296.5 388.655,296.859 388.804,297.217 
	388.953,297.575 389.102,297.934 389.251,298.29 389.398,298.646 389.548,299.003 389.697,299.359 389.846,299.715 389.995,300.071 
	390.143,300.426 390.292,300.781 390.441,301.135 390.59,301.489 390.739,301.843 390.888,302.196 391.037,302.549 391.186,302.902 
	391.334,303.254 391.482,303.605 391.632,303.958 391.781,304.309 391.93,304.66 392.079,305.011 392.227,305.361 392.376,305.711 
	392.525,306.06 392.674,306.41 392.823,306.758 392.972,307.107 393.12,307.455 393.27,307.803 393.418,308.15 393.566,308.498 
	393.716,308.844 393.865,309.191 394.014,309.537 394.163,309.883 394.311,310.229 394.46,310.573 394.609,310.918 394.758,311.262 
	394.907,311.605 395.057,311.95 395.204,312.294 395.354,312.637 395.502,312.979 395.65,313.322 395.8,313.664 395.949,314.005 
	396.098,314.347 396.246,314.688 396.395,315.029 396.544,315.369 396.693,315.709 396.842,316.049 396.99,316.388 397.14,316.727 
	397.288,317.066 397.438,317.404 397.586,317.742 397.735,318.08 397.884,318.417 398.032,318.754 398.181,319.091 398.33,319.427 
	398.479,319.763 398.628,320.099 398.777,320.434 398.926,320.77 399.075,321.104 399.223,321.439 399.372,321.773 399.521,322.105 
	399.67,322.44 399.819,322.773 399.967,323.105 400.117,323.438 400.265,323.77 400.414,324.102 400.563,324.433 400.712,324.765 
	400.861,325.095 401.009,325.426 401.158,325.756 401.307,326.086 401.456,326.416 401.605,326.745 401.754,327.074 
	401.903,327.402 402.051,327.73 402.2,328.058 402.349,328.386 402.498,328.713 402.646,329.04 402.796,329.367 402.944,329.693 
	403.093,330.02 403.242,330.345 403.391,330.671 403.54,330.996 403.689,331.32 403.838,331.645 403.987,331.969 404.135,332.293 
	404.284,332.617 404.433,332.94 404.582,333.263 404.73,333.585 404.88,333.908 405.028,334.229 405.177,334.551 405.326,334.873 
	405.475,335.194 405.624,335.514 405.773,335.835 405.922,336.155 406.07,336.475 406.219,336.794 406.368,337.113 406.517,337.432 
	406.666,337.751 406.814,338.069 406.964,338.387 407.112,338.705 407.261,339.021 407.41,339.339 407.559,339.656 407.708,339.973 
	407.855,340.289 408.006,340.605 408.154,340.92 408.303,341.235 408.452,341.55 408.602,341.865 408.75,342.179 408.898,342.493 
	409.047,342.807 409.196,343.121 409.345,343.434 409.494,343.747 409.643,344.059 409.792,344.372 409.941,344.684 
	410.089,344.995 410.238,345.307 410.387,345.618 410.536,345.929 410.686,346.239 410.833,346.549 410.983,346.859 
	411.131,347.169 411.28,347.479 411.429,347.787 411.578,348.096 411.727,348.405 411.876,348.713 412.023,349.021 412.173,349.328 
	412.322,349.636 412.471,349.943 412.62,350.25 412.77,350.556 412.917,350.862 413.066,351.168 413.215,351.474 413.364,351.779 
	413.513,352.084 413.662,352.389 413.811,352.693 413.959,352.997 414.108,353.301 414.257,353.605 414.406,353.908 
	414.555,354.211 414.704,354.514 414.854,354.817 415.001,355.119 415.15,355.421 415.299,355.722 415.448,356.024 415.597,356.325 
	415.746,356.626 415.895,356.926 416.043,357.227 416.192,357.527 416.341,357.826 416.49,358.126 416.639,358.425 416.788,358.724 
	416.936,359.021 417.085,359.321 417.234,359.619 417.383,359.917 417.532,360.214 417.681,360.511 417.83,360.808 417.979,361.105 
	418.127,361.401 418.276,361.698 418.425,361.993 418.574,362.289 418.722,362.584 418.871,362.879 419.02,363.174 419.169,363.469 
	419.318,363.763 419.467,364.057 419.616,364.351 419.765,364.645 419.913,364.938 420.063,365.23 420.211,365.523 420.36,365.815 
	420.509,366.108 420.658,366.4 420.807,366.691 420.955,366.983 421.104,367.274 421.253,367.564 421.402,367.855 421.551,368.145 
	421.699,368.435 421.849,368.725 421.997,369.015 422.146,369.304 422.295,369.593 422.444,369.882 422.593,370.17 422.742,370.458 
	422.89,370.746 423.039,371.034 423.188,371.322 423.337,371.609 423.486,371.896 423.635,372.182 423.783,372.469 423.932,372.755 
	424.081,373.041 424.23,373.327 424.379,373.612 424.528,373.896 424.677,374.182 424.826,374.467 424.974,374.751 425.123,375.035 
	425.271,375.319 425.421,375.604 425.57,375.886 425.719,376.169 425.867,376.452 426.016,376.735 426.165,377.017 426.314,377.3 
	426.463,377.581 426.612,377.863 426.76,378.145 426.909,378.426 427.058,378.707 427.207,378.987 427.355,379.268 427.505,379.548 
	427.654,379.828 427.802,380.108 427.951,380.387 428.1,380.666 428.249,380.945 428.398,381.224 428.547,381.502 428.696,381.781 
	428.844,382.059 428.993,382.336 429.142,382.614 429.291,382.891 429.439,383.168 429.589,383.445 429.737,383.721 
	429.887,383.998 430.035,384.274 430.184,384.55 430.333,384.825 "/>
<line opacity="0.35" fill="none" stroke="#000000" stroke-dasharray="0,4,4,4,4,0" x1="302.766" y1="384.48" x2="302.766" y2="94.263"/>
<line opacity="0.35" fill="none" stroke="#000000" stroke-dasharray="0,4,4,4,4,0" x1="260.5" y1="384.48" x2="260.5" y2="177.5"/>
<line opacity="0.35" fill="none" stroke="#000000" stroke-dasharray="0,4,4,4,4,0" x1="343.5" y1="384.48" x2="343.5" y2="177.5"/>
<line opacity="0.35" fill="none" stroke="#000000" stroke-dasharray="0,4,4,4,4,0" x1="516.813" y1="177.5" x2="74.88" y2="177.5"/>
<line opacity="0.35" fill="none" stroke="#000000" stroke-dasharray="0,4,4,4,4,0" x1="516.813" y1="91.08" x2="74.88" y2="91.08"/>
<text transform="matrix(1 0 0 1 201.1777 423.4805)" font-family="'ArialMT'" font-size="14">angular frequency [rad/s]</text>
<text transform="matrix(6.123234e-017 -1 1 6.123234e-017 52.8755 286.9902)" font-family="'ArialMT'" font-size="14">20log| H(t)| [dB]</text>
<g>
	<g>
		<line fill="none" stroke="#000000" x1="362.5" y1="419.391" x2="393.416" y2="419.391"/>
		<g>
			<polygon points="390.102,423.48 389.42,422.748 393.031,419.392 389.42,416.035 390.102,415.302 394.5,419.392 			"/>
		</g>
	</g>
</g>
<g>
	<g>
		<line fill="none" stroke="#000000" x1="48.786" y1="187.76" x2="48.786" y2="156.844"/>
		<g>
			<polygon points="52.875,160.158 52.143,160.84 48.787,157.229 45.43,160.84 44.697,160.158 48.787,155.76 			"/>
		</g>
	</g>
</g>
<text transform="matrix(1 0 0 1 292.7344 398.7578)" font-family="'STIXMath-Regular'" font-size="16">ω</text>
<text transform="matrix(1 0 0 1 303.6641 402.7578)" font-family="'STIXMath-Regular'" font-size="10">n</text>
<text transform="matrix(1 0 0 1 335.2539 398.7578)" font-family="'STIXMath-Regular'" font-size="16">ω</text>
<text transform="matrix(1 0 0 1 346.1836 402.7578)" font-family="'STIXMath-Regular'" font-size="10">2</text>
<text transform="matrix(1 0 0 1 252.2534 398.7578)" font-family="'STIXMath-Regular'" font-size="16">ω</text>
<text transform="matrix(1 0 0 1 350.7461 360.7578)" font-family="'STIXMath-Regular'" font-size="15">BW</text>
<text transform="matrix(1 0 0 1 263.1836 402.7578)" font-family="'STIXMath-Regular'" font-size="10">1</text>
<g>
	<g>
		<line fill="none" stroke="#000000" x1="261.584" y1="356.5" x2="342.416" y2="356.5"/>
		<g>
			<polygon points="264.898,360.59 265.58,359.857 261.968,356.501 265.58,353.144 264.898,352.411 260.5,356.501 			"/>
		</g>
		<g>
			<polygon points="339.102,360.59 338.42,359.857 342.031,356.501 338.42,353.144 339.102,352.411 343.5,356.501 			"/>
		</g>
	</g>
</g>
</svg>
