<?xml version="1.0" encoding="utf-8"?>
<!-- Generator: Adobe Illustrator 15.0.0, SVG Export Plug-In . SVG Version: 6.00 Build 0)  -->
<!DOCTYPE svg PUBLIC "-//W3C//DTD SVG 1.1//EN" "http://www.w3.org/Graphics/SVG/1.1/DTD/svg11.dtd">
<svg version="1.1" id="Layer_1" xmlns="http://www.w3.org/2000/svg" xmlns:xlink="http://www.w3.org/1999/xlink" x="0px" y="0px"
	 width="356.5px" height="378.5px" viewBox="120 8 356.5 378.5" enable-background="new 120 8 356.5 378.5" xml:space="preserve">
<title>glps_renderer figure</title>
<desc>Creator: GL2PS 1.3.8, (C) 1999-2012 C. Geuzaine
For: Octave
CreationDate: Thu Jan 07 11:44:43 2016</desc>
<line opacity="0.5" fill="none" stroke="#000000" x1="207.027" y1="208.439" x2="207.027" y2="204"/>
<line fill="none" stroke="#000000" stroke-width="1.0666" x1="267.73" y1="384.477" x2="267.73" y2="32.402"/>
<line opacity="0.5" fill="none" stroke="#000000" x1="328.43" y1="208.439" x2="328.43" y2="204"/>
<line fill="none" stroke="#000000" x1="389.133" y1="208.439" x2="389.133" y2="204"/>
<line opacity="0.5" fill="none" stroke="#000000" x1="449.836" y1="208.439" x2="449.836" y2="204"/>
<line opacity="0.5" fill="none" stroke="#000000" x1="122.043" y1="208.441" x2="474.117" y2="208.441"/>
<g>
	<line opacity="0.5" fill="none" stroke="#000000" x1="267.389" y1="329.844" x2="271.341" y2="329.844"/>
	<line opacity="0.5" fill="none" stroke="#000000" x1="267.389" y1="269.141" x2="271.341" y2="269.141"/>
	<line opacity="0.5" fill="none" stroke="#000000" x1="267.389" y1="147.738" x2="271.341" y2="147.738"/>
	<line opacity="0.5" fill="none" stroke="#000000" x1="267.389" y1="87.035" x2="271.341" y2="87.035"/>
	
		<line opacity="0.5" fill="none" stroke="#000000" stroke-dasharray="1.6953,0" x1="271.341" y1="329.844" x2="271.291" y2="329.844"/>
	
		<line opacity="0.5" fill="none" stroke="#000000" stroke-dasharray="1.6953,0" x1="271.341" y1="269.141" x2="271.291" y2="269.141"/>
</g>
<line fill="none" stroke="#000000" stroke-dasharray="16,0" x1="122.043" y1="208.441" x2="126.508" y2="208.441"/>
<line fill="none" stroke="#000000" stroke-dasharray="16,0" x1="474.117" y1="208.441" x2="469.652" y2="208.441"/>
<line fill="none" stroke="#FF0000" x1="388.891" y1="216.102" x2="389.074" y2="212.273"/>
<line fill="none" stroke="#FF0000" x1="388.59" y1="219.922" x2="388.891" y2="216.102"/>
<polyline fill="none" stroke="#0000FF" stroke-width="3" points="389.133,208.664 389.133,208.668 389.133,208.676 389.133,208.684 
	389.133,208.688 389.133,208.695 389.133,208.703 389.133,208.711 389.133,208.719 389.133,208.727 389.133,208.734 
	389.133,208.742 389.133,208.75 389.133,208.758 389.133,208.77 389.133,208.777 389.133,208.785 389.133,208.797 389.133,208.805 
	389.133,208.816 389.133,208.828 389.133,208.84 389.133,208.848 389.133,208.859 389.133,208.871 389.133,208.887 389.133,208.898 
	389.133,208.91 389.133,208.922 389.133,208.938 389.133,208.949 389.133,208.965 389.133,208.98 389.133,208.996 389.133,209.012 
	389.133,209.027 389.133,209.043 389.129,209.059 389.129,209.078 389.129,209.094 389.129,209.113 389.129,209.133 
	389.129,209.152 389.129,209.172 389.129,209.191 389.129,209.215 389.129,209.234 389.129,209.258 389.129,209.281 
	389.129,209.305 389.129,209.328 389.129,209.352 389.129,209.379 389.125,209.406 389.125,209.434 389.125,209.461 
	389.125,209.488 389.125,209.52 389.125,209.547 389.125,209.578 389.125,209.613 389.121,209.645 389.121,209.68 389.121,209.715 
	389.121,209.75 389.121,209.785 389.117,209.824 389.117,209.863 389.117,209.902 389.117,209.941 389.117,209.984 389.113,210.027 
	389.113,210.074 389.113,210.121 389.109,210.168 389.109,210.215 389.109,210.266 389.105,210.316 389.105,210.367 
	389.105,210.422 389.102,210.477 389.102,210.535 389.098,210.594 389.098,210.656 389.094,210.715 389.09,210.781 389.09,210.848 
	389.086,210.914 389.086,210.984 389.082,211.055 389.078,211.129 389.074,211.203 389.07,211.281 389.066,211.359 389.063,211.441 
	389.059,211.527 389.055,211.613 389.051,211.703 389.047,211.793 389.043,211.887 389.035,211.984 389.031,212.082 
	389.027,212.184 389.02,212.289 389.012,212.398 389.008,212.508 389,212.625 388.992,212.742 388.984,212.859 388.977,212.984 
	388.965,213.113 388.957,213.242 388.945,213.379 388.934,213.516 388.926,213.656 388.91,213.805 388.898,213.953 388.887,214.109 
	388.871,214.266 388.855,214.43 388.84,214.598 388.824,214.77 388.809,214.945 388.789,215.125 388.77,215.313 388.75,215.504 
	388.727,215.703 388.703,215.906 388.68,216.113 388.652,216.328 388.625,216.547 388.598,216.773 388.566,217.004 388.535,217.242 
	388.5,217.488 388.465,217.738 388.426,217.996 388.387,218.262 388.344,218.535 388.301,218.816 388.254,219.102 388.203,219.398 
	388.152,219.699 388.094,220.012 388.035,220.332 387.977,220.66 387.91,220.996 387.84,221.34 387.766,221.695 387.691,222.059 
	387.609,222.434 387.523,222.816 387.434,223.211 387.336,223.613 387.238,224.027 387.129,224.449 387.02,224.887 386.898,225.332 
	386.773,225.789 386.645,226.258 386.504,226.738 386.355,227.23 386.203,227.734 386.039,228.25 385.867,228.781 385.688,229.32 
	385.496,229.875 385.297,230.441 385.082,231.023 384.859,231.613 384.625,232.223 384.379,232.84 384.117,233.473 383.844,234.121 
	383.555,234.781 383.25,235.453 382.934,236.141 382.598,236.844 382.246,237.559 381.875,238.285 381.484,239.027 381.074,239.781 
	380.648,240.547 380.195,241.324 379.723,242.117 379.23,242.922 378.711,243.738 378.164,244.563 377.598,245.402 377,246.25 
	376.375,247.105 375.723,247.973 375.043,248.844 374.332,249.727 373.586,250.613 372.813,251.504 372.004,252.398 
	371.164,253.297 370.285,254.199 369.375,255.098 368.426,256 367.445,256.895 366.422,257.789 365.363,258.676 364.266,259.555 
	363.129,260.426 361.957,261.285 360.746,262.133 359.492,262.965 358.203,263.777 356.875,264.574 355.508,265.348 
	354.105,266.098 352.664,266.82 351.188,267.52 349.68,268.188 348.133,268.824 346.555,269.426 344.949,269.992 343.313,270.52 
	341.645,271.008 339.957,271.453 338.242,271.859 336.508,272.219 334.75,272.531 332.98,272.797 331.195,273.016 329.398,273.184 
	327.594,273.305 325.781,273.375 323.965,273.391 323.484,273.387 322.148,273.359 320.336,273.273 318.527,273.141 
	316.727,272.957 314.938,272.723 313.16,272.438 311.398,272.109 309.656,271.73 307.934,271.309 306.234,270.84 304.559,270.332 
	302.91,269.781 301.289,269.191 299.703,268.563 298.145,267.902 296.621,267.207 295.133,266.48 293.684,265.723 292.266,264.938 
	290.887,264.133 289.547,263.301 288.246,262.449 286.984,261.578 285.762,260.691 284.578,259.789 283.434,258.875 
	282.328,257.949 281.266,257.012 280.238,256.07 279.246,255.121 278.297,254.172 277.383,253.215 276.504,252.258 275.664,251.305 
	274.855,250.352 274.086,249.398 273.348,248.449 272.641,247.508 271.969,246.57 271.324,245.641 270.715,244.715 270.129,243.801 
	269.578,242.895 269.051,242 268.551,241.113 268.078,240.238 267.629,239.371 267.203,238.52 266.801,237.676 266.426,236.848 
	266.066,236.031 265.734,235.227 265.418,234.434 265.125,233.652 264.848,232.887 264.59,232.133 264.352,231.395 264.129,230.668 
	263.922,229.953 263.73,229.254 263.555,228.566 263.395,227.895 263.25,227.234 263.117,226.59 263,225.957 262.895,225.336 
	262.801,224.73 262.719,224.137 262.652,223.555 262.594,222.988 262.543,222.438 262.508,221.895 262.48,221.367 262.461,220.852 
	262.453,220.352 262.453,219.863 262.461,219.387 262.48,218.922 262.504,218.473 262.535,218.035 262.574,217.609 262.621,217.199 
	262.672,216.797 262.73,216.41 262.793,216.035 262.859,215.672 262.934,215.32 263.012,214.98 263.094,214.652 263.18,214.34 
	263.27,214.035 263.363,213.742 263.457,213.461 263.484,213.387 263.555,213.191 263.652,212.934 263.754,212.684 263.855,212.445 
	263.961,212.219 264.066,212.004 264.168,211.797 264.273,211.598 264.379,211.41 264.484,211.23 264.59,211.063 264.691,210.898 
	264.793,210.746 264.895,210.602 264.996,210.465 265.094,210.336 265.191,210.211 265.285,210.098 265.379,209.988 
	265.469,209.887 265.559,209.789 265.645,209.695 265.73,209.613 265.813,209.531 265.895,209.457 265.973,209.387 266.047,209.32 
	266.117,209.258 266.191,209.199 266.258,209.145 266.324,209.094 266.387,209.047 266.449,209.004 266.508,208.965 
	266.563,208.926 266.617,208.891 266.672,208.855 266.719,208.824 266.77,208.797 266.816,208.77 266.859,208.746 266.902,208.723 
	266.941,208.703 266.98,208.684 267.016,208.664 267.051,208.648 267.086,208.633 267.117,208.617 267.148,208.602 267.176,208.59 
	267.207,208.578 267.23,208.566 267.258,208.559 267.281,208.551 267.305,208.539 267.324,208.531 267.348,208.527 267.367,208.52 
	267.387,208.512 267.402,208.508 267.418,208.504 267.438,208.496 267.449,208.492 267.465,208.488 267.48,208.484 267.492,208.48 
	267.504,208.477 267.516,208.477 267.527,208.473 267.539,208.469 267.547,208.469 267.559,208.465 267.566,208.465 
	267.574,208.461 267.582,208.461 267.59,208.457 267.598,208.457 267.605,208.457 267.613,208.453 267.617,208.453 267.625,208.453 
	267.629,208.453 267.637,208.449 267.641,208.449 267.645,208.449 267.648,208.449 267.652,208.449 267.656,208.445 267.66,208.445 
	267.664,208.445 267.668,208.445 267.672,208.445 267.676,208.445 267.676,208.445 267.68,208.445 267.684,208.445 267.684,208.441 
	267.688,208.441 267.691,208.441 267.691,208.441 267.695,208.441 267.695,208.441 267.699,208.441 267.699,208.441 
	267.699,208.441 267.703,208.441 267.703,208.441 267.703,208.441 267.707,208.441 267.707,208.441 267.707,208.441 
	267.711,208.441 267.711,208.441 267.711,208.441 267.711,208.441 267.715,208.441 267.715,208.441 267.715,208.441 
	267.715,208.441 267.715,208.441 267.719,208.441 267.719,208.441 267.719,208.441 267.719,208.441 267.719,208.441 
	267.719,208.441 267.719,208.441 267.723,208.441 267.723,208.441 267.723,208.441 267.723,208.441 267.723,208.441 
	267.723,208.441 267.723,208.441 267.723,208.441 267.723,208.441 267.723,208.441 267.723,208.441 267.723,208.441 
	267.723,208.441 267.727,208.441 267.727,208.441 267.727,208.441 267.727,208.441 267.727,208.441 267.727,208.441 
	267.727,208.441 267.727,208.441 267.727,208.441 267.727,208.441 267.727,208.441 267.727,208.441 267.727,208.441 
	267.727,208.441 267.727,208.441 267.727,208.441 267.727,208.441 267.727,208.441 267.727,208.441 267.727,208.441 
	267.727,208.441 267.727,208.441 267.727,208.441 267.727,208.441 267.727,208.441 267.727,208.441 267.727,208.441 
	267.727,208.441 267.727,208.441 267.727,208.441 267.727,208.441 267.727,208.441 267.727,208.441 267.727,208.441 
	267.727,208.441 267.727,208.441 "/>
<polyline fill="none" stroke="#0000FF" stroke-width="3" stroke-dasharray="4,5,1,6" points="389.133,208.219 389.133,208.211 
	389.133,208.203 389.133,208.199 389.133,208.191 389.133,208.184 389.133,208.176 389.133,208.172 389.133,208.164 
	389.133,208.156 389.133,208.148 389.133,208.137 389.133,208.129 389.133,208.121 389.133,208.113 389.133,208.102 
	389.133,208.094 389.133,208.082 389.133,208.074 389.133,208.063 389.133,208.055 389.133,208.043 389.133,208.031 389.133,208.02 
	389.133,208.008 389.133,207.996 389.133,207.984 389.133,207.969 389.133,207.957 389.133,207.945 389.133,207.93 389.133,207.914 
	389.133,207.902 389.133,207.887 389.133,207.871 389.133,207.855 389.133,207.836 389.129,207.82 389.129,207.805 389.129,207.785 
	389.129,207.766 389.129,207.746 389.129,207.727 389.129,207.707 389.129,207.688 389.129,207.668 389.129,207.645 
	389.129,207.621 389.129,207.602 389.129,207.574 389.129,207.551 389.129,207.527 389.129,207.5 389.125,207.477 389.125,207.449 
	389.125,207.418 389.125,207.391 389.125,207.363 389.125,207.332 389.125,207.301 389.125,207.27 389.121,207.234 389.121,207.203 
	389.121,207.168 389.121,207.133 389.121,207.094 389.117,207.059 389.117,207.02 389.117,206.977 389.117,206.938 389.117,206.895 
	389.113,206.852 389.113,206.809 389.113,206.762 389.109,206.715 389.109,206.664 389.109,206.617 389.105,206.566 
	389.105,206.512 389.105,206.457 389.102,206.402 389.102,206.344 389.098,206.285 389.098,206.227 389.094,206.164 389.09,206.102 
	389.09,206.035 389.086,205.965 389.086,205.898 389.082,205.824 389.078,205.754 389.074,205.676 389.07,205.598 389.066,205.52 
	389.063,205.438 389.059,205.355 389.055,205.266 389.051,205.18 389.047,205.086 389.043,204.992 389.035,204.895 389.031,204.797 
	389.027,204.695 389.02,204.59 389.012,204.48 389.008,204.371 389,204.258 388.992,204.141 388.984,204.02 388.977,203.895 
	388.965,203.77 388.957,203.637 388.945,203.504 388.934,203.363 388.926,203.223 388.91,203.078 388.898,202.926 388.887,202.773 
	388.871,202.613 388.855,202.453 388.84,202.285 388.824,202.113 388.809,201.934 388.789,201.754 388.77,201.566 388.75,201.375 
	388.727,201.18 388.703,200.977 388.68,200.766 388.652,200.555 388.625,200.332 388.598,200.109 388.566,199.875 388.535,199.637 
	388.5,199.395 388.465,199.141 388.426,198.883 388.387,198.617 388.344,198.344 388.301,198.066 388.254,197.777 388.203,197.484 
	388.152,197.18 388.094,196.871 388.035,196.551 387.977,196.223 387.91,195.887 387.84,195.539 387.766,195.184 387.691,194.82 
	387.609,194.449 387.523,194.063 387.434,193.672 387.336,193.266 387.238,192.855 387.129,192.43 387.02,191.996 386.898,191.547 
	386.773,191.09 386.645,190.621 386.504,190.141 386.355,189.648 386.203,189.145 386.039,188.629 385.867,188.102 385.688,187.559 
	385.496,187.004 385.297,186.438 385.082,185.859 384.859,185.266 384.625,184.66 384.379,184.039 384.117,183.406 383.844,182.762 
	383.555,182.102 383.25,181.426 382.934,180.738 382.598,180.039 382.246,179.324 381.875,178.598 381.484,177.855 381.074,177.102 
	380.648,176.332 380.195,175.555 379.723,174.762 379.23,173.957 378.711,173.145 378.164,172.316 377.598,171.48 377,170.633 
	376.375,169.773 375.723,168.91 375.043,168.035 374.332,167.156 373.586,166.27 372.813,165.379 372.004,164.48 371.164,163.582 
	370.285,162.684 369.375,161.781 368.426,160.883 367.445,159.984 366.422,159.09 365.363,158.203 364.266,157.324 363.129,156.453 
	361.957,155.594 360.746,154.746 359.492,153.918 358.203,153.102 356.875,152.309 355.508,151.535 354.105,150.781 
	352.664,150.059 351.188,149.359 349.68,148.691 348.133,148.059 346.555,147.457 344.949,146.891 343.313,146.363 341.645,145.875 
	339.957,145.426 338.242,145.023 336.508,144.664 334.75,144.348 332.98,144.082 331.195,143.863 329.398,143.695 327.594,143.574 
	325.781,143.508 323.965,143.488 323.484,143.492 322.148,143.523 320.336,143.605 318.527,143.738 316.727,143.922 
	314.938,144.156 313.16,144.441 311.398,144.773 309.656,145.148 307.934,145.574 306.234,146.039 304.559,146.551 302.91,147.102 
	301.289,147.691 299.703,148.316 298.145,148.98 296.621,149.676 295.133,150.402 293.684,151.156 292.266,151.941 290.887,152.75 
	289.547,153.582 288.246,154.434 286.984,155.305 285.762,156.191 284.578,157.094 283.434,158.008 282.328,158.934 
	281.266,159.867 280.238,160.809 279.246,161.758 278.297,162.711 277.383,163.664 276.504,164.621 275.664,165.578 
	274.855,166.531 274.086,167.48 273.348,168.43 272.641,169.371 271.969,170.309 271.324,171.242 270.715,172.164 270.129,173.078 
	269.578,173.984 269.051,174.883 268.551,175.766 268.078,176.645 267.629,177.508 267.203,178.363 266.801,179.203 
	266.426,180.031 266.066,180.852 265.734,181.656 265.418,182.449 265.125,183.227 264.848,183.992 264.59,184.746 264.352,185.484 
	264.129,186.211 263.922,186.926 263.73,187.625 263.555,188.313 263.395,188.984 263.25,189.645 263.117,190.293 263,190.926 
	262.895,191.543 262.801,192.152 262.719,192.742 262.652,193.324 262.594,193.891 262.543,194.445 262.508,194.984 262.48,195.512 
	262.461,196.027 262.453,196.527 262.453,197.02 262.461,197.492 262.48,197.957 262.504,198.406 262.535,198.844 262.574,199.27 
	262.621,199.684 262.672,200.082 262.73,200.473 262.793,200.848 262.859,201.211 262.934,201.563 263.012,201.898 263.094,202.227 
	263.18,202.543 263.27,202.848 263.363,203.137 263.457,203.418 263.484,203.496 263.555,203.688 263.652,203.949 263.754,204.195 
	263.855,204.434 263.961,204.66 264.066,204.879 264.168,205.086 264.273,205.281 264.379,205.469 264.484,205.648 264.59,205.82 
	264.691,205.98 264.793,206.133 264.895,206.277 264.996,206.414 265.094,206.547 265.191,206.668 265.285,206.785 265.379,206.895 
	265.469,206.996 265.559,207.094 265.645,207.184 265.73,207.27 265.813,207.348 265.895,207.426 265.973,207.496 266.047,207.563 
	266.117,207.621 266.191,207.68 266.258,207.734 266.324,207.785 266.387,207.832 266.449,207.875 266.508,207.918 266.563,207.957 
	266.617,207.992 266.672,208.023 266.719,208.055 266.77,208.082 266.816,208.109 266.859,208.133 266.902,208.156 266.941,208.18 
	266.98,208.199 267.016,208.215 267.051,208.234 267.086,208.25 267.117,208.266 267.148,208.277 267.176,208.289 267.207,208.301 
	267.23,208.313 267.258,208.32 267.281,208.332 267.305,208.34 267.324,208.348 267.348,208.355 267.367,208.359 267.387,208.367 
	267.402,208.371 267.418,208.379 267.438,208.383 267.449,208.387 267.465,208.391 267.48,208.395 267.492,208.398 267.504,208.402 
	267.516,208.406 267.527,208.406 267.539,208.41 267.547,208.414 267.559,208.414 267.566,208.418 267.574,208.418 267.582,208.422 
	267.59,208.422 267.598,208.422 267.605,208.426 267.613,208.426 267.617,208.426 267.625,208.43 267.629,208.43 267.637,208.43 
	267.641,208.43 267.645,208.43 267.648,208.434 267.652,208.434 267.656,208.434 267.66,208.434 267.664,208.434 267.668,208.434 
	267.672,208.434 267.676,208.438 267.676,208.438 267.68,208.438 267.684,208.438 267.684,208.438 267.688,208.438 267.691,208.438 
	267.691,208.438 267.695,208.438 267.695,208.438 267.699,208.438 267.699,208.438 267.699,208.438 267.703,208.438 
	267.703,208.438 267.703,208.438 267.707,208.438 267.707,208.438 267.707,208.438 267.711,208.438 267.711,208.438 
	267.711,208.438 267.711,208.438 267.715,208.441 267.715,208.441 267.715,208.441 267.715,208.441 267.715,208.441 
	267.719,208.441 267.719,208.441 267.719,208.441 267.719,208.441 267.719,208.441 267.719,208.441 267.719,208.441 
	267.723,208.441 267.723,208.441 267.723,208.441 267.723,208.441 267.723,208.441 267.723,208.441 267.723,208.441 
	267.723,208.441 267.723,208.441 267.723,208.441 267.723,208.441 267.723,208.441 267.723,208.441 267.727,208.441 
	267.727,208.441 267.727,208.441 267.727,208.441 267.727,208.441 267.727,208.441 267.727,208.441 267.727,208.441 
	267.727,208.441 267.727,208.441 267.727,208.441 267.727,208.441 267.727,208.441 267.727,208.441 267.727,208.441 
	267.727,208.441 267.727,208.441 267.727,208.441 267.727,208.441 267.727,208.441 267.727,208.441 267.727,208.441 
	267.727,208.441 267.727,208.441 267.727,208.441 267.727,208.441 267.727,208.441 267.727,208.441 267.727,208.441 
	267.727,208.441 267.727,208.441 267.727,208.441 267.727,208.441 267.727,208.441 267.727,208.441 267.727,208.441 "/>
<polyline opacity="0.2" fill="none" stroke="#000000" points="389.133,208.441 389.074,204.609 388.891,200.777 388.59,196.957 
	388.168,193.148 387.625,189.355 386.961,185.578 386.18,181.824 385.281,178.098 384.266,174.402 383.133,170.742 381.887,167.117 
	380.523,163.535 379.051,159.996 377.465,156.508 375.77,153.066 373.969,149.684 372.063,146.359 370.051,143.098 367.934,139.898 
	365.723,136.77 363.41,133.711 361.004,130.73 358.504,127.824 355.914,125 353.234,122.258 350.473,119.598 347.625,117.031 
	344.699,114.555 341.699,112.172 338.621,109.887 335.477,107.695 332.262,105.609 328.984,103.621 325.645,101.738 322.246,99.965 
	318.797,98.297 315.293,96.742 311.742,95.293 308.148,93.961 304.516,92.742 300.844,91.641 297.141,90.652 293.406,89.781 
	289.648,89.031 285.867,88.398 282.07,87.887 278.258,87.492 274.434,87.223 270.602,87.07 266.77,87.039 262.938,87.129 
	259.109,87.34 255.293,87.676 251.484,88.125 247.695,88.699 243.926,89.391 240.18,90.203 236.461,91.133 232.773,92.176 
	229.121,93.34 225.508,94.613 221.934,96.004 218.406,97.504 214.93,99.117 211.504,100.84 208.137,102.668 204.828,104.602 
	201.578,106.641 198.398,108.777 195.289,111.016 192.246,113.352 189.285,115.781 186.398,118.305 183.594,120.918 
	180.871,123.617 178.238,126.402 175.691,129.266 173.238,132.211 170.879,135.234 168.617,138.328 166.453,141.488 
	164.391,144.719 162.43,148.016 160.574,151.367 158.824,154.781 157.188,158.246 155.656,161.758 154.238,165.32 152.934,168.926 
	151.742,172.566 150.668,176.246 149.711,179.961 148.871,183.699 148.148,187.465 147.547,191.25 147.063,195.051 146.703,198.867 
	146.461,202.691 146.34,206.523 146.34,210.355 146.461,214.188 146.703,218.012 147.063,221.828 147.547,225.633 148.148,229.418 
	148.871,233.18 149.711,236.922 150.668,240.633 151.742,244.313 152.934,247.957 154.238,251.559 155.656,255.121 157.188,258.637 
	158.824,262.102 160.574,265.512 162.43,268.867 164.391,272.16 166.453,275.391 168.617,278.555 170.879,281.648 173.238,284.668 
	175.691,287.613 178.238,290.48 180.871,293.266 183.594,295.965 186.398,298.574 189.285,301.098 192.246,303.527 195.289,305.863 
	198.398,308.102 201.578,310.242 204.828,312.277 208.137,314.211 211.504,316.043 214.93,317.762 218.406,319.375 221.934,320.875 
	225.508,322.266 229.121,323.543 232.773,324.703 236.461,325.75 240.18,326.68 243.926,327.488 247.695,328.18 251.484,328.754 
	255.293,329.207 259.109,329.539 262.938,329.75 266.77,329.84 270.602,329.813 274.434,329.66 278.258,329.387 282.07,328.996 
	285.867,328.48 289.648,327.848 293.406,327.098 297.141,326.227 300.844,325.242 304.516,324.137 308.148,322.918 311.742,321.586 
	315.293,320.141 318.797,318.582 322.246,316.914 325.645,315.141 328.984,313.258 332.262,311.273 335.477,309.184 
	338.621,306.996 341.699,304.707 344.699,302.324 347.625,299.848 350.473,297.281 353.234,294.625 355.914,291.883 
	358.504,289.059 361.004,286.152 363.41,283.168 365.723,280.109 367.934,276.98 370.051,273.781 372.063,270.52 373.969,267.195 
	375.77,263.813 377.465,260.375 379.051,256.883 380.523,253.348 381.887,249.762 383.133,246.137 384.266,242.477 385.281,238.781 
	"/>
<text transform="matrix(1 0 0 1 259.4814 91.0391)" opacity="0.5" enable-background="new    " font-family="'ArialMT'" font-size="10">1</text>
<text transform="matrix(1 0 0 1 251.1416 151.7422)" opacity="0.5" enable-background="new    " font-family="'ArialMT'" font-size="10">0.5</text>
<text transform="matrix(1 0 0 1 247.8115 273.1445)" opacity="0.5" enable-background="new    " font-family="'ArialMT'" font-size="10">-0.5</text>
<text transform="matrix(1 0 0 1 256.1514 333.8477)" opacity="0.5" enable-background="new    " font-family="'ArialMT'" font-size="10">-1</text>
<text transform="matrix(1 0 0 1 442.8848 219.9219)" opacity="0.5" enable-background="new    " font-family="'ArialMT'" font-size="10">1.5</text>
<text transform="matrix(1 0 0 1 391.3525 218.9219)" opacity="0.5" enable-background="new    " font-family="'ArialMT'" font-size="10">1</text>
<text transform="matrix(1 0 0 1 321.4795 219.9219)" opacity="0.5" enable-background="new    " font-family="'ArialMT'" font-size="10">0.5</text>
<text transform="matrix(1 0 0 1 198.4111 219.9219)" opacity="0.5" enable-background="new    " font-family="'ArialMT'" font-size="10">-0.5</text>
<text transform="matrix(1 0 0 1 139.8779 217.9219)" opacity="0.5" enable-background="new    " font-family="'ArialMT'" font-size="10">-1</text>
<text transform="matrix(1 0 0 1 134.8638 22.4063)" font-family="'ArialMT'" font-size="15">Nyquist Diagram(ω), C=47nF, L=47mH, R=3.9kΩ</text>
<line opacity="0.5" fill="none" stroke="#000000" stroke-width="0.8292" stroke-dasharray="1.7708,0" x1="267.457" y1="32.402" x2="271.77" y2="32.402"/>
<line opacity="0.5" fill="none" stroke="#000000" stroke-width="0.8188" stroke-dasharray="1.6033,0" x1="267.278" y1="384.477" x2="270.813" y2="384.477"/>
<g>
	<text transform="matrix(-4.371139e-008 -1 1 -4.371139e-008 245.5264 79.7749)" font-family="'STIX-Regular'" font-size="12">ℑ</text>
	<text transform="matrix(-4.371139e-008 -1 1 -4.371139e-008 245.5264 69.4292)" font-family="'STIX-Regular'" font-size="12">{</text>
	<text transform="matrix(-4.371139e-008 -1 1 -4.371139e-008 245.5264 63.6694)" font-family="'STIX-Italic'" font-size="12">H(ω)</text>
	<text transform="matrix(-4.371139e-008 -1 1 -4.371139e-008 245.5264 38.7827)" font-family="'STIX-Regular'" font-size="12">}</text>
	<g>
		<text transform="matrix(1 0 0 1 419.6602 236.0625)" font-family="'STIX-Regular'" font-size="12">ℜ</text>
		<text transform="matrix(1 0 0 1 430.8193 236.0625)" font-family="'STIX-Regular'" font-size="12">{</text>
		<text transform="matrix(1 0 0 1 436.5791 236.0625)" font-family="'STIX-Italic'" font-size="12">H(ω)</text>
		<text transform="matrix(1 0 0 1 461.4668 236.0625)" font-family="'STIX-Regular'" font-size="12">}</text>
	</g>
	<g>
		<g>
			<line fill="none" stroke="#231F20" stroke-miterlimit="10" x1="419.66" y1="223.08" x2="465.025" y2="223.08"/>
			<g>
				<polygon fill="#231F20" points="461.711,227.17 461.029,226.438 464.641,223.081 461.029,219.725 461.711,218.991 
					466.109,223.081 				"/>
			</g>
		</g>
	</g>
</g>
<g>
	<g>
		<line fill="none" stroke="#231F20" stroke-miterlimit="10" x1="252.667" y1="80.775" x2="252.667" y2="33.486"/>
		<g>
			<polygon fill="#231F20" points="256.756,36.8 256.023,37.482 252.667,33.87 249.31,37.482 248.578,36.8 252.667,32.402 			"/>
		</g>
	</g>
</g>
<line opacity="0.2" fill="none" stroke="#000000" x1="389.074" y1="212.273" x2="389.133" y2="208.441"/>
<line opacity="0.2" fill="none" stroke="#000000" x1="386.961" y1="231.301" x2="387.625" y2="227.527"/>
<line opacity="0.2" fill="none" stroke="#000000" x1="386.18" y1="235.055" x2="386.961" y2="231.301"/>
<line opacity="0.2" fill="none" stroke="#000000" x1="385.281" y1="238.781" x2="386.18" y2="235.055"/>
<line opacity="0.1" fill="none" stroke="#000000" x1="388.891" y1="216.102" x2="389.074" y2="212.273"/>
<line opacity="0.1" fill="none" stroke="#000000" x1="388.59" y1="219.922" x2="388.891" y2="216.102"/>
<line opacity="0.1" fill="none" stroke="#000000" x1="388.168" y1="223.73" x2="388.59" y2="219.922"/>
<line opacity="0.1" fill="none" stroke="#000000" x1="387.625" y1="227.527" x2="388.168" y2="223.73"/>
<line opacity="0.1" fill="none" stroke="#000000" x1="388.891" y1="216.102" x2="389.074" y2="212.273"/>
<line opacity="0.1" fill="none" stroke="#000000" x1="388.59" y1="219.922" x2="388.891" y2="216.102"/>
<line opacity="0.1" fill="none" stroke="#000000" x1="388.168" y1="223.73" x2="388.59" y2="219.922"/>
<line opacity="0.1" fill="none" stroke="#000000" x1="387.625" y1="227.527" x2="388.168" y2="223.73"/>
<g>
	<g>
		<line fill="none" stroke="#0000FF" stroke-width="2" x1="375.476" y1="247.322" x2="372.004" y2="251.395"/>
		<g>
			<polygon fill="#0000FF" points="370.079,241.045 372.078,240.957 372.5,250.809 382.297,249.668 382.526,251.656 
				370.595,253.044 			"/>
		</g>
	</g>
</g>
<circle opacity="0.5" fill="#FF0000" stroke="#FF0000" stroke-width="2" cx="146.505" cy="208.311" r="1.891"/>
</svg>
