<?xml version="1.0" encoding="utf-8"?>
<!-- Generator: Adobe Illustrator 15.0.0, SVG Export Plug-In . SVG Version: 6.00 Build 0)  -->
<!DOCTYPE svg PUBLIC "-//W3C//DTD SVG 1.1//EN" "http://www.w3.org/Graphics/SVG/1.1/DTD/svg11.dtd">
<svg version="1.1" id="Layer_1" xmlns="http://www.w3.org/2000/svg" xmlns:xlink="http://www.w3.org/1999/xlink" x="0px" y="0px"
	 width="576px" height="432px" viewBox="0 0 576 432" enable-background="new 0 0 576 432" xml:space="preserve">
<title>glps_renderer figure</title>
<desc>Creator: GL2PS 1.3.8, (C) 1999-2012 C. Geuzaine
For: Octave
CreationDate: Thu Dec 17 19:25:04 2015</desc>
<line fill="none" stroke="#000000" stroke-width="2" stroke-dasharray="16,0" x1="74.88" y1="384.48" x2="74.88" y2="32.4"/>
<line fill="none" stroke="#000000" stroke-dasharray="16,0" x1="74.88" y1="384.48" x2="74.88" y2="380.015"/>
<line fill="none" stroke="#000000" stroke-dasharray="16,0" x1="74.88" y1="32.4" x2="74.88" y2="36.865"/>
<line fill="none" stroke="#000000" stroke-dasharray="16,0" x1="164.16" y1="384.48" x2="164.16" y2="380.015"/>
<line fill="none" stroke="#000000" stroke-dasharray="16,0" x1="253.44" y1="384.48" x2="253.44" y2="380.015"/>
<line fill="none" stroke="#000000" stroke-dasharray="16,0" x1="342.72" y1="384.48" x2="342.72" y2="380.015"/>
<line fill="none" stroke="#000000" stroke-dasharray="16,0" x1="432" y1="384.48" x2="432" y2="380.015"/>
<line fill="none" stroke="#000000" stroke-dasharray="16,0" x1="521.28" y1="384.48" x2="521.28" y2="380.015"/>
<line fill="none" stroke="#000000" stroke-dasharray="16,0" x1="74.88" y1="384.48" x2="79.348" y2="384.48"/>
<line fill="none" stroke="#000000" stroke-dasharray="16,0" x1="521.28" y1="384.48" x2="516.813" y2="384.48"/>
<line fill="none" stroke="#000000" stroke-dasharray="16,0" x1="74.88" y1="325.8" x2="79.348" y2="325.8"/>
<line fill="none" stroke="#000000" stroke-dasharray="16,0" x1="74.88" y1="267.12" x2="79.348" y2="267.12"/>
<line fill="none" stroke="#000000" stroke-dasharray="16,0" x1="74.88" y1="208.44" x2="79.348" y2="208.44"/>
<line fill="none" stroke="#000000" stroke-dasharray="16,0" x1="74.88" y1="149.76" x2="79.348" y2="149.76"/>
<line fill="none" stroke="#000000" stroke-dasharray="16,0" x1="74.88" y1="91.08" x2="79.348" y2="91.08"/>
<line fill="none" stroke="#000000" stroke-dasharray="16,0" x1="74.88" y1="32.4" x2="79.348" y2="32.4"/>
<text transform="matrix(1 0 0 1 55.4224 389.4805)" font-family="'ArialMT'" font-size="10">-80</text>
<text transform="matrix(1 0 0 1 55.4224 330.7998)" font-family="'ArialMT'" font-size="10">-60</text>
<text transform="matrix(1 0 0 1 55.4224 272.1201)" font-family="'ArialMT'" font-size="10">-40</text>
<text transform="matrix(1 0 0 1 55.4224 213.4404)" font-family="'ArialMT'" font-size="10">-20</text>
<text transform="matrix(1 0 0 1 64.314 154.7598)" font-family="'ArialMT'" font-size="10">0</text>
<text transform="matrix(1 0 0 1 58.7524 96.0801)" font-family="'ArialMT'" font-size="10">20</text>
<text transform="matrix(1 0 0 1 58.7524 37.4004)" font-family="'ArialMT'" font-size="10">40</text>
<polyline fill="none" stroke="#0000FF" stroke-width="3" points="74.88,149.76 77.123,149.76 79.366,149.76 81.61,149.76 
	83.853,149.76 86.096,149.76 88.339,149.76 90.583,149.76 92.826,149.759 95.069,149.759 97.312,149.759 99.556,149.759 
	101.799,149.759 104.042,149.759 106.285,149.759 108.528,149.759 110.771,149.759 113.015,149.758 115.258,149.758 
	117.501,149.758 119.744,149.758 121.988,149.758 124.231,149.757 126.474,149.757 128.717,149.757 130.96,149.756 133.204,149.756 
	135.447,149.755 137.69,149.754 139.933,149.754 142.176,149.753 144.42,149.752 146.663,149.751 148.906,149.75 151.149,149.749 
	153.393,149.748 155.636,149.746 157.879,149.744 160.122,149.742 162.365,149.74 164.609,149.738 166.852,149.735 169.095,149.732 
	171.338,149.729 173.582,149.725 175.825,149.72 178.068,149.716 180.311,149.71 182.554,149.704 184.798,149.697 187.041,149.689 
	189.284,149.681 191.527,149.671 193.77,149.66 196.014,149.648 198.257,149.634 200.5,149.618 202.743,149.601 204.987,149.581 
	207.23,149.559 209.473,149.535 211.716,149.507 213.959,149.475 216.203,149.44 218.446,149.401 220.689,149.357 222.932,149.307 
	225.175,149.251 227.419,149.187 229.662,149.116 231.905,149.036 234.148,148.946 236.392,148.845 238.635,148.73 240.878,148.601 
	243.121,148.455 245.364,148.291 247.608,148.105 249.851,147.895 252.094,147.657 254.337,147.387 256.581,147.081 
	258.824,146.733 261.067,146.338 263.31,145.887 265.553,145.371 267.797,144.781 270.04,144.102 272.283,143.321 274.526,142.416 
	276.769,141.364 279.013,140.135 281.256,138.69 283.499,136.978 285.742,134.931 287.986,132.462 290.229,129.452 292.472,125.755 
	294.715,121.247 296.958,116.082 299.202,111.713 301.445,111.99 303.688,118.117 305.932,126.235 308.174,133.984 310.418,140.917 
	312.661,147.109 314.904,152.71 317.146,157.848 319.391,162.623 321.634,167.108 323.877,171.36 326.12,175.421 328.363,179.325 
	330.607,183.098 332.85,186.761 335.093,190.331 337.336,193.821 339.579,197.243 341.823,200.607 344.066,203.92 346.309,207.189 
	348.552,210.421 350.796,213.618 353.039,216.787 355.282,219.93 357.525,223.051 359.768,226.152 362.012,229.236 364.255,232.305 
	366.498,235.359 368.741,238.402 370.984,241.434 373.229,244.457 375.471,247.473 377.714,250.479 379.957,253.48 382.201,256.475 
	384.443,259.465 386.688,262.45 388.93,265.432 391.173,268.409 393.417,271.384 395.66,274.355 397.903,277.325 400.146,280.292 
	402.39,283.257 404.633,286.22 406.876,289.182 409.119,292.143 411.362,295.102 413.605,298.059 415.849,301.016 418.092,303.971 
	420.335,306.926 422.579,309.881 424.822,312.835 427.064,315.788 429.308,318.741 431.551,321.693 433.795,324.645 
	436.038,327.596 438.281,330.548 440.523,333.499 442.767,336.449 445.011,339.4 447.254,342.35 449.497,345.3 451.74,348.25 
	453.984,351.2 456.227,354.15 458.47,357.1 460.713,360.049 462.956,362.999 465.2,365.948 467.443,368.896 469.686,371.847 
	471.929,374.796 474.172,377.745 476.416,380.694 478.659,383.643 479.563,384.832 "/>
<polyline fill="none" stroke="#007F00" points="74.88,149.76 77.123,149.76 79.366,149.76 81.61,149.76 83.853,149.76 
	86.096,149.76 88.339,149.76 90.583,149.76 92.826,149.76 95.069,149.76 97.312,149.76 99.556,149.759 101.799,149.759 
	104.042,149.759 106.285,149.759 108.528,149.759 110.771,149.759 113.015,149.759 115.258,149.759 117.501,149.759 
	119.744,149.759 121.988,149.758 124.231,149.758 126.474,149.758 128.717,149.758 130.96,149.757 133.204,149.757 135.447,149.757 
	137.69,149.756 139.933,149.756 142.176,149.755 144.42,149.755 146.663,149.754 148.906,149.753 151.149,149.752 153.393,149.752 
	155.636,149.751 157.879,149.749 160.122,149.748 162.365,149.747 164.609,149.745 166.852,149.743 169.095,149.741 
	171.338,149.739 173.582,149.736 175.825,149.733 178.068,149.73 180.311,149.726 182.554,149.722 184.798,149.717 187.041,149.712 
	189.284,149.706 191.527,149.699 193.77,149.692 196.014,149.684 198.257,149.674 200.5,149.664 202.743,149.652 204.987,149.639 
	207.23,149.624 209.473,149.607 211.716,149.589 213.959,149.568 216.203,149.544 218.446,149.518 220.689,149.488 222.932,149.455 
	225.175,149.417 227.419,149.375 "/>
<polyline fill="none" stroke="#007F00" stroke-width="3" points="229.662,149.328 231.905,149.276 234.148,149.216 236.392,149.15 
	238.635,149.076 240.878,148.992 243.121,148.899 245.364,148.794 247.608,148.676 249.851,148.545 252.094,148.398 
	254.337,148.233 256.581,148.049 258.824,147.844 261.067,147.616 263.31,147.362 265.553,147.079 267.797,146.767 270.04,146.423 
	272.283,146.045 274.526,145.634 276.769,145.192 279.013,144.721 281.256,144.231 283.499,143.735 285.742,143.257 
	287.986,142.832 290.229,142.51 292.472,142.36 294.715,142.466 296.958,142.923 299.202,143.814 301.445,145.196 303.688,147.078 
	305.932,149.42 308.174,152.146 310.418,155.161 312.661,158.378 314.904,161.721 317.146,165.133 319.391,168.574 321.634,172.017 
	323.877,175.445 326.12,178.847 328.363,182.219 330.607,185.557 332.85,188.862 335.093,192.135 337.336,195.376 339.579,198.589 
	341.823,201.776 344.066,204.938 346.309,208.078 348.552,211.198 350.796,214.3 353.039,217.386 355.282,220.457 357.525,223.516 
	359.768,226.561 362.012,229.598 364.255,232.624 366.498,235.641 368.741,238.652 370.984,241.656 373.229,244.654 
	375.471,247.646 377.714,250.634 379.957,253.617 382.201,256.598 384.443,259.573 386.688,262.547 388.93,265.518 391.173,268.484 
	393.417,271.452 395.66,274.416 397.903,277.378 400.146,280.339 402.39,283.299 404.633,286.258 406.876,289.215 409.119,292.172 
	411.362,295.127 413.605,298.082 415.849,301.036 418.092,303.99 420.335,306.943 422.579,309.896 424.822,312.848 427.064,315.8 
	429.308,318.751 431.551,321.702 433.795,324.653 436.038,327.604 438.281,330.554 440.523,333.505 442.767,336.455 
	445.011,339.405 447.254,342.354 449.497,345.304 451.74,348.254 453.984,351.203 456.227,354.153 458.47,357.102 460.713,360.051 
	462.956,363.001 465.2,365.95 467.443,368.899 469.686,371.848 471.929,374.797 474.172,377.746 476.416,380.695 478.659,383.645 
	479.563,384.832 "/>
<text transform="matrix(1 0 0 1 279.7339 348.2578)" font-family="'ArialMT'" font-size="14">ω</text>
<text transform="matrix(1 0 0 1 290.665 352.2578)" font-family="'ArialMT'" font-size="10">n</text>
<text transform="matrix(1 0 0 1 298.5 350.2578)" font-family="'ArialMT'" font-size="14">/ 2π</text>
<polyline fill="none" stroke="#FF0000" stroke-width="3" points="74.88,149.76 77.123,149.76 79.366,149.76 81.61,149.76 
	83.853,149.76 86.096,149.76 88.339,149.76 90.583,149.76 92.826,149.76 95.069,149.76 97.312,149.76 99.556,149.76 101.799,149.76 
	104.042,149.76 106.285,149.76 108.528,149.76 110.771,149.76 113.015,149.76 115.258,149.76 117.501,149.76 119.744,149.76 
	121.988,149.76 124.231,149.76 126.474,149.76 128.717,149.76 130.96,149.76 133.204,149.761 135.447,149.761 137.69,149.761 
	139.933,149.761 142.176,149.761 144.42,149.761 146.663,149.761 148.906,149.761 151.149,149.761 153.393,149.762 155.636,149.762 
	157.879,149.762 160.122,149.762 162.365,149.763 164.609,149.763 166.852,149.763 169.095,149.764 171.338,149.764 
	173.582,149.765 175.825,149.765 178.068,149.766 180.311,149.766 182.554,149.767 184.798,149.768 187.041,149.769 189.284,149.77 
	191.527,149.772 193.77,149.773 196.014,149.775 198.257,149.776 200.5,149.779 202.743,149.781 204.987,149.783 207.23,149.786 
	209.473,149.79 211.716,149.794 213.959,149.798 216.203,149.803 218.446,149.808 220.689,149.814 222.932,149.822 225.175,149.83 
	227.419,149.839 229.662,149.85 231.905,149.862 234.148,149.875 236.392,149.891 238.635,149.91 240.878,149.931 243.121,149.955 
	245.364,149.983 247.608,150.016 249.851,150.054 252.094,150.099 254.337,150.151 256.581,150.213 258.824,150.285 261.067,150.37 
	263.31,150.47 265.553,150.589 267.797,150.731 270.04,150.899 272.283,151.098 274.526,151.336 276.769,151.618 279.013,151.954 
	281.256,152.352 283.499,152.823 285.742,153.378 287.986,154.029 290.229,154.788 292.472,155.667 294.715,156.676 
	296.958,157.825 299.202,159.121 301.445,160.568 303.688,162.166 305.932,163.912 308.174,165.801 310.418,167.825 
	312.661,169.972 314.904,172.232 317.146,174.592 319.391,177.04 321.634,179.566 323.877,182.157 326.12,184.805 328.363,187.5 
	330.607,190.236 332.85,193.006 335.093,195.804 337.336,198.626 339.579,201.468 341.823,204.326 344.066,207.199 346.309,210.082 
	348.552,212.976 350.796,215.877 353.039,218.785 355.282,221.7 357.525,224.618 359.768,227.541 362.012,230.468 364.255,233.396 
	366.498,236.329 368.741,239.264 370.984,242.2 373.229,245.137 375.471,248.076 377.714,251.018 379.957,253.958 382.201,256.9 
	384.443,259.843 386.688,262.787 388.93,265.73 391.173,268.676 393.417,271.621 395.66,274.566 397.903,277.514 400.146,280.459 
	402.39,283.406 404.633,286.352 406.876,289.299 409.119,292.247 411.362,295.193 413.605,298.143 415.849,301.089 418.092,304.037 
	420.335,306.985 422.579,309.933 424.822,312.881 427.064,315.829 429.308,318.778 431.551,321.726 433.795,324.674 
	436.038,327.623 438.281,330.571 440.523,333.52 442.767,336.468 445.011,339.416 447.254,342.365 449.497,345.313 451.74,348.262 
	453.984,351.211 456.227,354.159 458.47,357.108 460.713,360.057 462.956,363.005 465.2,365.954 467.443,368.903 469.686,371.851 
	471.929,374.8 474.172,377.749 476.416,380.697 478.659,383.646 479.561,384.832 "/>
<line opacity="0.4" fill="none" stroke="#000000" stroke-dasharray="0,4,4,4,4,0" enable-background="new    " x1="300.734" y1="384.832" x2="300.734" y2="111.713"/>
<line fill="none" stroke="#000000" stroke-width="2" stroke-dasharray="16,0" x1="74.88" y1="384.48" x2="521.28" y2="384.48"/>
<line fill="none" stroke="#007F00" x1="227.419" y1="149.375" x2="229.662" y2="149.328"/>
<line fill="none" stroke="#000000" stroke-width="1.0657" stroke-dasharray="17.0518,0" x1="446.48" y1="85.429" x2="526.895" y2="85.429"/>
<line fill="none" stroke="#000000" stroke-width="1.0657" stroke-dasharray="17.0518,0" x1="446.48" y1="36.4" x2="526.895" y2="36.4"/>
<line fill="none" stroke="#000000" stroke-dasharray="16,0" x1="446.48" y1="85.429" x2="446.48" y2="36.4"/>
<line fill="none" stroke="#000000" stroke-dasharray="16,0" x1="527.28" y1="85.429" x2="527.28" y2="36.4"/>
<text transform="matrix(1 0 0 1 484.4805 49.5713)" font-family="'ArialMT'" font-size="10">R=220Ω</text>
<text transform="matrix(1 0 0 1 484.4805 65.9141)" font-family="'ArialMT'" font-size="10">R=820Ω</text>
<text transform="matrix(1 0 0 1 484.4805 82.2578)" font-family="'ArialMT'" font-size="10">R=1.5kΩ</text>
<line fill="none" stroke="#0000FF" stroke-width="2" x1="450.48" y1="44.571" x2="480.48" y2="44.571"/>
<line fill="none" stroke="#FF0000" stroke-width="2" x1="450.48" y1="77.257" x2="480.48" y2="77.257"/>
<line fill="none" stroke="#007F00" stroke-width="2" x1="450.48" y1="60.914" x2="480.48" y2="60.914"/>
<text transform="matrix(1 0 0 1 138.4155 22.4004)" font-family="'ArialMT'" font-size="15">Bode Magnitude in dB(f,R), C=47nF, L=47mH</text>
<text transform="matrix(1 0 0 1 230.1777 417.4805)" font-family="'ArialMT'" font-size="14">frequency [Hz]</text>
<text transform="matrix(6.123234e-017 -1 1 6.123234e-017 46.8755 258.9902)" font-family="'ArialMT'" font-size="14">20log| H(t)|</text>
<g>
	<g>
		<line fill="none" stroke="#000000" x1="334.5" y1="413.5" x2="365.416" y2="413.5"/>
		<g>
			<polygon points="362.102,417.59 361.42,416.857 365.031,413.501 361.42,410.145 362.102,409.411 366.5,413.501 			"/>
		</g>
	</g>
</g>
<text transform="matrix(1 0 0 1 69.8799 399.4805)" font-family="'ArialMT'" font-size="10">10</text>
<text transform="matrix(1 0 0 1 155.6284 399.4805)" font-family="'ArialMT'" font-size="10">100</text>
<text transform="matrix(1 0 0 1 248.5 399.4805)" font-family="'ArialMT'" font-size="10">1k</text>
<text transform="matrix(1 0 0 1 334.458 399.4805)" font-family="'ArialMT'" font-size="10">10k</text>
<text transform="matrix(1 0 0 1 420.7383 399.4805)" font-family="'ArialMT'" font-size="10">100k</text>
<text transform="matrix(1 0 0 1 513.0176 399.4805)" font-family="'ArialMT'" font-size="10">1M</text>
</svg>
