<?xml version="1.0" encoding="utf-8"?>
<!-- Generator: Adobe Illustrator 15.0.0, SVG Export Plug-In . SVG Version: 6.00 Build 0)  -->
<!DOCTYPE svg PUBLIC "-//W3C//DTD SVG 1.1//EN" "http://www.w3.org/Graphics/SVG/1.1/DTD/svg11.dtd">
<svg version="1.1" id="Layer_1" xmlns="http://www.w3.org/2000/svg" xmlns:xlink="http://www.w3.org/1999/xlink" x="0px" y="0px"
	 width="576px" height="432px" viewBox="0 0 576 432" enable-background="new 0 0 576 432" xml:space="preserve">
<title>glps_renderer figure</title>
<desc>Creator: GL2PS 1.3.8, (C) 1999-2012 C. Geuzaine
For: Octave
CreationDate: Thu Dec 17 19:28:41 2015</desc>
<line fill="none" stroke="#000000" stroke-width="2" stroke-dasharray="16,0" x1="74.88" y1="384.48" x2="74.88" y2="32.4"/>
<line fill="none" stroke="#000000" stroke-dasharray="16,0" x1="74.88" y1="384.48" x2="74.88" y2="380.015"/>
<line fill="none" stroke="#000000" stroke-dasharray="16,0" x1="74.88" y1="32.4" x2="74.88" y2="36.865"/>
<line fill="none" stroke="#000000" stroke-dasharray="16,0" x1="186.48" y1="384.48" x2="186.48" y2="380.015"/>
<line fill="none" stroke="#000000" stroke-dasharray="16,0" x1="298.08" y1="384.48" x2="298.08" y2="380.015"/>
<line fill="none" stroke="#000000" stroke-dasharray="16,0" x1="409.68" y1="384.48" x2="409.68" y2="380.015"/>
<line fill="none" stroke="#000000" stroke-dasharray="16,0" x1="521.28" y1="384.48" x2="521.28" y2="380.015"/>
<line fill="none" stroke="#000000" stroke-dasharray="16,0" x1="74.88" y1="384.48" x2="79.348" y2="384.48"/>
<line fill="none" stroke="#000000" stroke-dasharray="16,0" x1="521.28" y1="384.48" x2="516.813" y2="384.48"/>
<line fill="none" stroke="#000000" stroke-dasharray="16,0" x1="74.88" y1="296.46" x2="79.348" y2="296.46"/>
<line fill="none" stroke="#000000" stroke-dasharray="16,0" x1="74.88" y1="208.44" x2="79.348" y2="208.44"/>
<line fill="none" stroke="#000000" stroke-dasharray="16,0" x1="521.28" y1="208.44" x2="516.813" y2="208.44"/>
<line fill="none" stroke="#000000" stroke-dasharray="16,0" x1="74.88" y1="120.42" x2="79.348" y2="120.42"/>
<line fill="none" stroke="#000000" stroke-dasharray="16,0" x1="74.88" y1="32.4" x2="79.348" y2="32.4"/>
<text transform="matrix(1 0 0 1 64.314 389.4805)" font-family="'ArialMT'" font-size="10">0</text>
<text transform="matrix(1 0 0 1 55.9741 301.46)" font-family="'ArialMT'" font-size="10">0.5</text>
<text transform="matrix(1 0 0 1 64.314 213.4404)" font-family="'ArialMT'" font-size="10">1</text>
<text transform="matrix(1 0 0 1 55.9741 125.4199)" font-family="'ArialMT'" font-size="10">1.5</text>
<text transform="matrix(1 0 0 1 64.314 37.4004)" font-family="'ArialMT'" font-size="10">2</text>
<line fill="none" stroke="#007F00" x1="423.737" y1="60.915" x2="453.737" y2="60.915"/>
<polyline fill="none" stroke="#0000FF" stroke-width="4" points="74.88,384.48 77.123,380.533 79.366,369.109 81.609,351.061 
	83.853,327.497 86.096,299.717 88.339,269.152 90.583,237.292 92.826,205.611 95.069,175.512 97.312,148.261 99.556,124.94 
	101.799,106.407 104.042,93.265 106.285,85.852 108.528,84.234 110.771,88.218 113.015,97.368 115.258,111.04 117.501,128.417 
	119.744,148.557 121.988,170.436 124.231,193 126.474,215.215 128.717,236.107 130.96,254.809 133.204,270.586 135.447,282.874 
	137.69,291.286 139.933,295.624 142.176,295.883 144.42,292.24 146.663,285.036 148.906,274.754 151.149,261.994 153.393,247.438 
	155.636,231.814 157.879,215.869 160.122,200.326 162.365,185.859 164.609,173.061 166.852,162.425 169.095,154.326 
	171.338,149.007 173.582,146.576 175.825,147.011 178.068,150.158 180.311,155.755 182.554,163.438 184.798,172.771 
	187.041,183.262 189.284,194.392 191.527,205.635 193.77,216.486 196.014,226.48 198.257,235.213 200.5,242.354 202.743,247.655 
	204.987,250.97 207.23,252.239 209.473,251.501 211.716,248.881 213.959,244.582 216.203,238.872 218.446,232.07 220.689,224.531 
	222.932,216.621 225.175,208.71 227.419,201.151 229.662,194.264 231.905,188.324 234.148,183.552 236.392,180.107 238.635,178.081 
	240.878,177.499 243.121,178.32 245.364,180.444 247.608,183.716 249.851,187.938 252.094,192.878 254.337,198.283 256.581,203.892 
	258.824,209.446 261.067,214.7 263.31,219.434 265.553,223.46 267.797,226.634 270.04,228.852 272.283,230.061 274.526,230.25 
	276.769,229.462 279.013,227.773 281.256,225.303 283.499,222.195 285.742,218.619 287.986,214.754 290.229,210.785 
	292.472,206.894 294.715,203.251 296.958,200.007 299.202,197.286 301.445,195.187 303.688,193.774 305.932,193.079 
	308.174,193.099 310.418,193.801 312.661,195.122 314.904,196.975 317.146,199.253 319.391,201.835 321.634,204.592 
	323.877,207.394 326.12,210.113 328.363,212.633 330.607,214.851 332.85,216.682 335.093,218.061 337.336,218.95 339.579,219.329 
	341.823,219.207 344.066,218.611 346.309,217.59 348.552,216.209 350.796,214.546 353.039,212.687 355.282,210.725 357.525,208.751 
	359.768,206.854 362.012,205.115 364.255,203.604 366.498,202.377 368.741,201.477 370.984,200.927 373.229,200.738 
	375.471,200.899 377.714,201.389 379.957,202.17 382.201,203.194 384.443,204.405 386.688,205.739 388.93,207.132 391.173,208.52 
	393.417,209.84 395.66,211.037 397.903,212.064 400.146,212.882 402.39,213.465 404.633,213.797 406.876,213.876 409.119,213.71 
	411.362,213.316 413.605,212.724 415.849,211.968 418.092,211.09 420.335,210.134 422.578,209.147 424.822,208.174 427.064,207.258 
	429.308,206.436 431.551,205.741 433.795,205.198 436.038,204.824 438.281,204.629 440.523,204.612 442.767,204.766 
	445.011,205.076 447.254,205.522 449.497,206.077 451.74,206.712 453.984,207.395 456.227,208.093 458.47,208.774 460.713,209.409 
	462.956,209.971 465.2,210.44 467.443,210.798 469.686,211.035 471.929,211.145 474.172,211.13 476.416,210.996 478.659,210.755 
	480.902,210.421 483.145,210.015 485.389,209.557 487.632,209.071 489.875,208.578 492.118,208.103 494.361,207.664 496.605,207.28 
	498.848,206.965 501.091,206.73 503.334,206.582 505.577,206.524 507.821,206.554 510.064,206.666 512.307,206.852 514.55,207.1 
	516.794,207.396 519.037,207.725 521.28,208.071 "/>
<polyline fill="none" stroke="#007F00" stroke-width="4" points="74.88,384.48 77.123,380.695 79.366,370.321 81.609,354.854 
	83.853,335.754 86.096,314.408 88.339,292.068 90.583,269.827 92.826,248.598 95.069,229.105 97.312,211.884 99.556,197.289 
	101.799,185.507 104.042,176.578 106.285,170.417 108.528,166.835 110.771,165.567 113.015,166.295 115.258,168.666 
	117.501,172.318 119.744,176.892 121.988,182.048 124.231,187.478 126.474,192.91 128.717,198.118 130.96,202.919 133.204,207.179 
	135.447,210.806 137.69,213.751 139.933,216 142.176,217.572 144.42,218.51 146.663,218.876 148.906,218.747 151.149,218.208 
	153.393,217.348 155.636,216.254 157.879,215.009 160.122,213.69 162.365,212.364 164.609,211.087 166.852,209.905 169.095,208.852 
	171.338,207.951 173.582,207.215 175.825,206.649 178.068,206.249 180.311,206.005 182.554,205.901 184.798,205.921 
	187.041,206.042 189.284,206.244 191.527,206.506 193.77,206.806 196.014,207.126 198.257,207.45 200.5,207.763 202.743,208.053 
	204.987,208.314 207.23,208.537 209.473,208.721 211.716,208.863 213.959,208.965 216.203,209.029 218.446,209.057 220.689,209.056 
	222.932,209.028 225.175,208.981 227.419,208.919 229.662,208.846 231.905,208.769 234.148,208.69 236.392,208.613 238.635,208.541 
	240.878,208.477 243.121,208.422 245.364,208.376 247.608,208.34 249.851,208.314 252.094,208.298 254.337,208.29 256.581,208.29 
	"/>
<polyline fill="none" stroke="#007F00" points="258.824,208.296 261.067,208.307 263.31,208.322 265.553,208.339 267.797,208.358 
	270.04,208.377 272.283,208.396 274.526,208.413 276.769,208.429 279.013,208.443 281.256,208.455 283.499,208.464 285.742,208.47 
	287.986,208.474 290.229,208.476 292.472,208.477 294.715,208.475 296.958,208.473 299.202,208.469 301.445,208.465 
	303.688,208.461 305.932,208.456 308.174,208.451 310.418,208.447 312.661,208.443 314.904,208.44 317.146,208.437 319.391,208.434 
	321.634,208.433 323.877,208.432 326.12,208.431 328.363,208.431 330.607,208.431 332.85,208.432 335.093,208.433 337.336,208.434 
	339.579,208.435 341.823,208.436 344.066,208.437 346.309,208.438 348.552,208.439 350.796,208.44 353.039,208.441 355.282,208.441 
	357.525,208.442 359.768,208.442 362.012,208.442 364.255,208.442 366.498,208.442 368.741,208.442 370.984,208.442 
	373.229,208.442 375.471,208.441 377.714,208.441 379.957,208.441 382.201,208.44 384.443,208.44 386.688,208.44 388.93,208.44 
	391.173,208.44 393.417,208.44 395.66,208.44 397.903,208.439 400.146,208.439 402.39,208.439 404.633,208.44 406.876,208.44 
	409.119,208.44 411.362,208.44 413.605,208.44 415.849,208.44 418.092,208.44 420.335,208.44 422.578,208.44 424.822,208.44 
	427.064,208.44 429.308,208.44 431.551,208.44 433.795,208.44 436.038,208.44 438.281,208.44 440.523,208.44 442.767,208.44 
	445.011,208.44 447.254,208.44 449.497,208.44 451.74,208.44 453.984,208.44 456.227,208.44 458.47,208.44 460.713,208.44 
	462.956,208.44 465.2,208.44 467.443,208.44 469.686,208.44 471.929,208.44 474.172,208.44 476.416,208.44 478.659,208.44 
	480.902,208.44 483.145,208.44 485.389,208.44 487.632,208.44 489.875,208.44 492.118,208.44 494.361,208.44 496.605,208.44 
	498.848,208.44 501.091,208.44 503.334,208.44 505.577,208.44 507.821,208.44 510.064,208.44 512.307,208.44 514.55,208.44 
	516.794,208.44 519.037,208.44 521.28,208.44 "/>
<polyline fill="none" stroke="#FF0000" stroke-width="4" points="74.88,384.48 77.123,380.867 79.366,371.526 81.609,358.392 
	83.853,343.02 86.096,326.621 88.339,310.116 90.583,294.178 92.826,279.273 95.069,265.697 97.312,253.615 99.556,243.088 
	101.799,234.1 104.042,226.577 106.285,220.412 108.528,215.473 110.771,211.614 113.015,208.691 115.258,206.56 117.501,205.087 
	119.744,204.149 121.988,203.635 124.231,203.45 126.474,203.51 128.717,203.746 130.96,204.1 133.204,204.525 135.447,204.987 
	137.69,205.457 139.933,205.913 142.176,206.343 144.42,206.737 146.663,207.089 148.906,207.397 151.149,207.661 153.393,207.884 
	155.636,208.066 157.879,208.213 160.122,208.329 162.365,208.417 164.609,208.482 166.852,208.528 169.095,208.557 
	171.338,208.574 173.582,208.581 175.825,208.581 178.068,208.575 180.311,208.566 182.554,208.554 184.798,208.541 
	187.041,208.527 189.284,208.514 191.527,208.502 193.77,208.491 196.014,208.48 198.257,208.471 200.5,208.464 202.743,208.457 
	204.987,208.452 207.23,208.447 209.473,208.444 211.716,208.441 213.959,208.439 216.203,208.438 218.446,208.437 220.689,208.436 
	222.932,208.436 225.175,208.436 227.419,208.436 229.662,208.436 231.905,208.437 234.148,208.437 236.392,208.437 
	238.635,208.438 240.878,208.438 243.121,208.438 245.364,208.439 247.608,208.439 249.851,208.439 252.094,208.439 254.337,208.44 
	256.581,208.44 258.824,208.44 261.067,208.44 263.31,208.44 265.553,208.44 267.797,208.44 270.04,208.44 272.283,208.44 
	274.526,208.44 276.769,208.44 279.013,208.44 281.256,208.44 283.499,208.44 285.742,208.44 287.986,208.44 290.229,208.44 
	292.472,208.44 294.715,208.44 296.958,208.44 299.202,208.44 301.445,208.44 303.688,208.44 305.932,208.44 308.174,208.44 
	310.418,208.44 312.661,208.44 314.904,208.44 317.146,208.44 319.391,208.44 321.634,208.44 323.877,208.44 326.12,208.44 
	328.363,208.44 330.607,208.44 332.85,208.44 335.093,208.44 337.336,208.44 339.579,208.44 341.823,208.44 344.066,208.44 
	346.309,208.44 348.552,208.44 350.796,208.44 353.039,208.44 355.282,208.44 357.525,208.44 359.768,208.44 362.012,208.44 
	364.255,208.44 366.498,208.44 368.741,208.44 370.984,208.44 373.229,208.44 375.471,208.44 377.714,208.44 379.957,208.44 
	382.201,208.44 384.443,208.44 386.688,208.44 388.93,208.44 391.173,208.44 393.417,208.44 395.66,208.44 397.903,208.44 
	400.146,208.44 402.39,208.44 404.633,208.44 406.876,208.44 409.119,208.44 411.362,208.44 413.605,208.44 415.849,208.44 
	418.092,208.44 420.335,208.44 422.578,208.44 424.822,208.44 427.064,208.44 429.308,208.44 431.551,208.44 433.795,208.44 
	436.038,208.44 438.281,208.44 440.523,208.44 442.767,208.44 445.011,208.44 447.254,208.44 449.497,208.44 451.74,208.44 
	453.984,208.44 456.227,208.44 458.47,208.44 460.713,208.44 462.956,208.44 465.2,208.44 467.443,208.44 469.686,208.44 
	471.929,208.44 474.172,208.44 476.416,208.44 478.659,208.44 480.902,208.44 483.145,208.44 485.389,208.44 487.632,208.44 
	489.875,208.44 492.118,208.44 494.361,208.44 496.605,208.44 498.848,208.44 501.091,208.44 503.334,208.44 505.577,208.44 
	507.821,208.44 510.064,208.44 512.307,208.44 514.55,208.44 516.794,208.44 519.037,208.44 521.28,208.44 "/>
<line fill="none" stroke="#000000" stroke-width="2" stroke-dasharray="16,0" x1="74.88" y1="384.48" x2="521.28" y2="384.48"/>
<line fill="none" stroke="#007F00" x1="256.581" y1="208.29" x2="258.824" y2="208.296"/>
<line fill="none" stroke="#000000" stroke-dasharray="16,0" x1="419.737" y1="85.429" x2="517.28" y2="85.429"/>
<line fill="none" stroke="#000000" stroke-dasharray="16,0" x1="419.737" y1="36.4" x2="517.28" y2="36.4"/>
<line fill="none" stroke="#000000" stroke-dasharray="16,0" x1="419.737" y1="85.429" x2="419.737" y2="36.4"/>
<line fill="none" stroke="#000000" stroke-dasharray="16,0" x1="517.28" y1="85.429" x2="517.28" y2="36.4"/>
<text transform="matrix(1.1371 0 0 1 457.7373 48.2852)" font-family="'ArialMT'" font-size="12">R=220Ω</text>
<text transform="matrix(1 0 0 1 457.7373 65.9141)" font-family="'ArialMT'" font-size="12">R=820Ω</text>
<text transform="matrix(1 0 0 1 457.7373 82.2578)" font-family="'ArialMT'" font-size="12">R=1.5kΩ</text>
<line fill="none" stroke="#0000FF" x1="423.737" y1="44.571" x2="453.737" y2="44.571"/>
<line fill="none" stroke="#FF0000" x1="423.737" y1="77.257" x2="453.737" y2="77.257"/>
<text transform="matrix(1 0 0 1 160.9341 22.4004)" font-family="'ArialMT'" font-size="15">Step Response(t,R), C=47nF, L=47mH</text>
<text transform="matrix(1 0 0 1 274.9668 418.4805)" font-family="'ArialMT'" font-size="14">time [ms]</text>
<text transform="matrix(6.123234e-017 -1 1 6.123234e-017 47.8755 218.5371)" font-family="'ArialMT'" font-size="14">|h(t)|</text>
<g>
	<g>
		<line fill="none" stroke="#000000" x1="334.5" y1="413.5" x2="365.416" y2="413.5"/>
		<g>
			<polygon points="362.102,417.59 361.42,416.857 365.031,413.501 361.42,410.145 362.102,409.411 366.5,413.501 			"/>
		</g>
	</g>
</g>
<g>
	<g>
		<line fill="none" stroke="#000000" x1="43.5" y1="184.5" x2="43.5" y2="153.584"/>
		<g>
			<polygon points="47.59,156.898 46.857,157.58 43.501,153.968 40.144,157.58 39.411,156.898 43.501,152.5 			"/>
		</g>
	</g>
</g>
<text transform="matrix(1 0 0 1 72.0991 399.4805)" font-family="'ArialMT'" font-size="10">0</text>
<text transform="matrix(1 0 0 1 178.187 399.4805)" font-family="'ArialMT'" font-size="10">0.5</text>
<text transform="matrix(1 0 0 1 293.5684 399.4805)" font-family="'ArialMT'" font-size="10">1</text>
<text transform="matrix(1 0 0 1 401.3867 399.4805)" font-family="'ArialMT'" font-size="10">1.5</text>
<text transform="matrix(1 0 0 1 516.7676 399.4805)" font-family="'ArialMT'" font-size="10">2</text>
</svg>
