<?xml version="1.0" encoding="utf-8"?>
<!-- Generator: Adobe Illustrator 15.0.0, SVG Export Plug-In . SVG Version: 6.00 Build 0)  -->
<!DOCTYPE svg PUBLIC "-//W3C//DTD SVG 1.1//EN" "http://www.w3.org/Graphics/SVG/1.1/DTD/svg11.dtd">
<svg version="1.1" id="Layer_1" xmlns="http://www.w3.org/2000/svg" xmlns:xlink="http://www.w3.org/1999/xlink" x="0px" y="0px"
	 width="576px" height="432px" viewBox="0 0 576 432" enable-background="new 0 0 576 432" xml:space="preserve">
<title>glps_renderer figure</title>
<desc>Creator: GL2PS 1.3.8, (C) 1999-2012 C. Geuzaine
For: Octave
CreationDate: Thu Dec 17 19:24:07 2015</desc>
<line fill="none" stroke="#000000" stroke-width="2" stroke-dasharray="16,0" x1="74.88" y1="384.48" x2="521.28" y2="384.48"/>
<line fill="none" stroke="#000000" stroke-width="2" stroke-dasharray="16,0" x1="74.88" y1="384.48" x2="74.88" y2="32.4"/>
<line fill="none" stroke="#000000" stroke-dasharray="16,0" x1="74.88" y1="384.48" x2="74.88" y2="380.015"/>
<line fill="none" stroke="#000000" stroke-dasharray="16,0" x1="74.88" y1="32.4" x2="74.88" y2="36.865"/>
<line fill="none" stroke="#000000" stroke-dasharray="16,0" x1="164.16" y1="384.48" x2="164.16" y2="380.015"/>
<line fill="none" stroke="#000000" stroke-dasharray="16,0" x1="253.44" y1="384.48" x2="253.44" y2="380.015"/>
<line fill="none" stroke="#000000" stroke-dasharray="16,0" x1="342.72" y1="384.48" x2="342.72" y2="380.015"/>
<line fill="none" stroke="#000000" stroke-dasharray="16,0" x1="432" y1="384.48" x2="432" y2="380.015"/>
<line fill="none" stroke="#000000" stroke-dasharray="16,0" x1="521.28" y1="384.48" x2="521.28" y2="380.015"/>
<line fill="none" stroke="#000000" stroke-dasharray="16,0" x1="74.88" y1="384.48" x2="79.348" y2="384.48"/>
<line fill="none" stroke="#000000" stroke-dasharray="16,0" x1="521.28" y1="384.48" x2="516.813" y2="384.48"/>
<line fill="none" stroke="#000000" stroke-dasharray="16,0" x1="74.88" y1="325.8" x2="79.348" y2="325.8"/>
<line fill="none" stroke="#000000" stroke-dasharray="16,0" x1="74.88" y1="267.12" x2="79.348" y2="267.12"/>
<line fill="none" stroke="#000000" stroke-dasharray="16,0" x1="74.88" y1="208.44" x2="79.348" y2="208.44"/>
<line fill="none" stroke="#000000" stroke-dasharray="16,0" x1="74.88" y1="149.76" x2="79.348" y2="149.76"/>
<line fill="none" stroke="#000000" stroke-dasharray="16,0" x1="74.88" y1="91.08" x2="79.348" y2="91.08"/>
<line fill="none" stroke="#000000" stroke-dasharray="16,0" x1="74.88" y1="32.4" x2="79.348" y2="32.4"/>
<text transform="matrix(1 0 0 1 55.4224 389.4805)" font-family="'ArialMT'" font-size="10">-80</text>
<text transform="matrix(1 0 0 1 55.4224 330.7998)" font-family="'ArialMT'" font-size="10">-60</text>
<text transform="matrix(1 0 0 1 55.4224 272.1201)" font-family="'ArialMT'" font-size="10">-40</text>
<text transform="matrix(1 0 0 1 55.4224 213.4404)" font-family="'ArialMT'" font-size="10">-20</text>
<text transform="matrix(1 0 0 1 64.314 154.7598)" font-family="'ArialMT'" font-size="10">0</text>
<text transform="matrix(1 0 0 1 58.7524 96.0801)" font-family="'ArialMT'" font-size="10">20</text>
<text transform="matrix(1 0 0 1 58.7524 37.4004)" font-family="'ArialMT'" font-size="10">40</text>
<text transform="matrix(1 0 0 1 325.9658 349.0898)" font-family="'ArialMT'" font-size="14">|p</text>
<text transform="matrix(1 0 0 1 337.3877 353.0898)" font-family="'ArialMT'" font-size="10">1</text>
<text transform="matrix(1 0 0 1 342.9492 349.0898)" font-family="'ArialMT'" font-size="14">| / 2π</text>
<polyline fill="none" stroke="#0000FF" stroke-width="3" points="74.88,149.761 77.123,149.762 79.366,149.762 81.61,149.762 
	83.853,149.762 86.096,149.763 88.339,149.763 90.583,149.763 92.826,149.764 95.069,149.764 97.312,149.765 99.556,149.765 
	101.799,149.766 104.042,149.767 106.285,149.767 108.528,149.768 110.771,149.769 113.015,149.77 115.258,149.772 117.501,149.773 
	119.744,149.775 121.988,149.777 124.231,149.779 126.474,149.781 128.717,149.784 130.96,149.786 133.204,149.79 135.447,149.793 
	137.69,149.797 139.933,149.802 142.176,149.807 144.42,149.813 146.663,149.819 148.906,149.827 151.149,149.835 153.393,149.844 
	155.636,149.854 157.879,149.866 160.122,149.879 162.365,149.893 164.609,149.909 166.852,149.928 169.095,149.948 
	171.338,149.971 173.582,149.996 175.825,150.025 178.068,150.057 180.311,150.093 182.554,150.134 184.798,150.179 
	187.041,150.229 189.284,150.286 191.527,150.349 193.77,150.419 196.014,150.498 198.257,150.585 200.5,150.683 202.743,150.792 
	204.987,150.913 207.23,151.047 209.473,151.197 211.716,151.362 213.959,151.546 216.203,151.749 218.446,151.973 220.689,152.22 
	222.932,152.492 225.175,152.791 227.419,153.118 229.662,153.476 231.905,153.866 234.148,154.29 236.392,154.751 238.635,155.249 
	240.878,155.786 243.121,156.364 245.364,156.984 247.608,157.646 249.851,158.352 252.094,159.1 254.337,159.893 256.581,160.729 
	258.824,161.608 261.067,162.529 263.31,163.492 265.553,164.495 267.797,165.537 270.04,166.617 272.283,167.733 274.526,168.884 
	276.769,170.068 279.013,171.283 281.256,172.529 283.499,173.804 285.742,175.106 287.986,176.435 290.229,177.789 
	292.472,179.167 294.715,180.569 296.958,181.994 299.202,183.442 301.445,184.912 303.688,186.405 305.932,187.92 308.174,189.459 
	310.418,191.02 312.661,192.606 314.904,194.217 317.146,195.854 319.391,197.517 321.634,199.209 323.877,200.931 326.12,202.684 
	328.363,204.47 330.607,206.29 332.85,208.145 335.093,210.038 337.336,211.969 339.579,213.94 341.823,215.952 344.066,218.007 
	346.309,220.104 348.552,222.244 350.796,224.428 353.039,226.655 355.282,228.926 357.525,231.24 359.768,233.595 362.012,235.992 
	364.255,238.428 366.498,240.902 368.741,243.414 370.984,245.96 373.229,248.54 375.471,251.15 377.714,253.79 379.957,256.458 
	382.201,259.15 384.443,261.867 386.688,264.605 388.93,267.363 391.173,270.141 393.417,272.934 395.66,275.742 397.903,278.564 
	400.146,281.4 402.39,284.248 404.633,287.105 406.876,289.973 409.119,292.848 411.362,295.73 413.605,298.621 415.849,301.518 
	418.092,304.419 420.335,307.326 422.579,310.237 424.822,313.152 427.064,316.071 429.308,318.993 431.551,321.918 
	433.795,324.846 436.038,327.775 438.281,330.707 440.523,333.641 442.767,336.576 445.011,339.513 447.254,342.451 449.497,345.39 
	451.74,348.33 453.984,351.271 456.227,354.213 458.47,357.156 460.713,360.1 462.956,363.044 465.2,365.988 467.443,368.933 
	469.686,371.878 471.929,374.824 474.172,377.77 476.416,380.716 478.659,383.663 479.549,384.832 "/>
<line opacity="0.4" fill="none" stroke="#000000" stroke-dasharray="0,4,4,4,4,0" enable-background="new    " x1="350.659" y1="384.832" x2="350.659" y2="197.5"/>
<line opacity="0.4" fill="none" stroke="#000000" stroke-dasharray="0,4,4,4,4,0" enable-background="new    " x1="250.5" y1="384.832" x2="250.5" y2="138.5"/>
<polyline opacity="0.4" fill="none" stroke="#000000" stroke-dasharray="0,4,4,4,4,0" enable-background="new    " points="
	74.88,149.76 250.809,149.76 350.659,213.369 481.464,384.832 "/>
<text transform="matrix(1 0 0 1 223.6855 351.0898)" font-family="'ArialMT'" font-size="14">|p</text>
<text transform="matrix(1 0 0 1 235.1084 355.0898)" font-family="'ArialMT'" font-size="10">2</text>
<text transform="matrix(1 0 0 1 240.6694 351.0898)" font-family="'ArialMT'" font-size="14">| / 2π</text>
<text transform="matrix(1 0 0 1 127.0977 22.4004)" font-family="'ArialMT'" font-size="15">Bode Magnitude in dB(f), C=47nF, L=47mH, R=3.9kΩ</text>
<text transform="matrix(1 0 0 1 230.1777 417.4805)" font-family="'ArialMT'" font-size="14">frequency [Hz]</text>
<text transform="matrix(6.123234e-017 -1 1 6.123234e-017 46.8755 258.9902)" font-family="'ArialMT'" font-size="14">20log| H(t)|</text>
<g>
	<g>
		<line fill="none" stroke="#000000" x1="334.5" y1="413.5" x2="365.416" y2="413.5"/>
		<g>
			<polygon points="362.102,417.59 361.42,416.857 365.031,413.501 361.42,410.145 362.102,409.411 366.5,413.501 			"/>
		</g>
	</g>
</g>
<text transform="matrix(1 0 0 1 69.8799 399.4805)" font-family="'ArialMT'" font-size="10">10</text>
<text transform="matrix(1 0 0 1 155.6284 399.4805)" font-family="'ArialMT'" font-size="10">100</text>
<text transform="matrix(1 0 0 1 248.5 399.4805)" font-family="'ArialMT'" font-size="10">1k</text>
<text transform="matrix(1 0 0 1 334.458 399.4805)" font-family="'ArialMT'" font-size="10">10k</text>
<text transform="matrix(1 0 0 1 420.7383 399.4805)" font-family="'ArialMT'" font-size="10">100k</text>
<text transform="matrix(1 0 0 1 513.0176 399.4805)" font-family="'ArialMT'" font-size="10">1M</text>
</svg>
