<?xml version="1.0" encoding="utf-8"?>
<!-- Generator: Adobe Illustrator 15.0.0, SVG Export Plug-In . SVG Version: 6.00 Build 0)  -->
<!DOCTYPE svg PUBLIC "-//W3C//DTD SVG 1.1//EN" "http://www.w3.org/Graphics/SVG/1.1/DTD/svg11.dtd">
<svg version="1.1" id="Layer_1" xmlns="http://www.w3.org/2000/svg" xmlns:xlink="http://www.w3.org/1999/xlink" x="0px" y="0px"
	 width="576px" height="432px" viewBox="0 0 576 432" enable-background="new 0 0 576 432" xml:space="preserve">
<title>glps_renderer figure</title>
<desc>Creator: GL2PS 1.3.8, (C) 1999-2012 C. Geuzaine
For: Octave
CreationDate: Thu Dec 17 19:28:27 2015</desc>
<line fill="none" stroke="#000000" stroke-width="2" stroke-dasharray="16,0" x1="74.88" y1="384.48" x2="521.28" y2="384.48"/>
<line fill="none" stroke="#000000" stroke-width="2" stroke-dasharray="16,0" x1="74.88" y1="384.48" x2="74.88" y2="32.4"/>
<line fill="none" stroke="#000000" stroke-dasharray="16,0" x1="74.88" y1="384.48" x2="74.88" y2="380.015"/>
<line fill="none" stroke="#000000" stroke-dasharray="16,0" x1="74.88" y1="32.4" x2="74.88" y2="36.865"/>
<line fill="none" stroke="#000000" stroke-dasharray="16,0" x1="186.48" y1="384.48" x2="186.48" y2="380.015"/>
<line fill="none" stroke="#000000" stroke-dasharray="16,0" x1="298.08" y1="384.48" x2="298.08" y2="380.015"/>
<line fill="none" stroke="#000000" stroke-dasharray="16,0" x1="409.68" y1="384.48" x2="409.68" y2="380.015"/>
<line fill="none" stroke="#000000" stroke-dasharray="16,0" x1="521.28" y1="384.48" x2="521.28" y2="380.015"/>
<text transform="matrix(1 0 0 1 72.0991 399.4805)" font-family="'ArialMT'" font-size="10">0</text>
<text transform="matrix(1 0 0 1 178.187 399.4805)" font-family="'ArialMT'" font-size="10">0.5</text>
<text transform="matrix(1 0 0 1 293.5684 399.4805)" font-family="'ArialMT'" font-size="10">1</text>
<text transform="matrix(1 0 0 1 401.3867 399.4805)" font-family="'ArialMT'" font-size="10">1.5</text>
<text transform="matrix(1 0 0 1 516.7676 399.4805)" font-family="'ArialMT'" font-size="10">2</text>
<line fill="none" stroke="#000000" stroke-dasharray="16,0" x1="74.88" y1="384.48" x2="79.348" y2="384.48"/>
<line fill="none" stroke="#000000" stroke-dasharray="16,0" x1="521.28" y1="384.48" x2="516.813" y2="384.48"/>
<line fill="none" stroke="#000000" stroke-dasharray="16,0" x1="74.88" y1="296.46" x2="79.348" y2="296.46"/>
<line fill="none" stroke="#000000" stroke-dasharray="16,0" x1="74.88" y1="208.44" x2="79.348" y2="208.44"/>
<line fill="none" stroke="#000000" stroke-dasharray="16,0" x1="74.88" y1="120.42" x2="79.348" y2="120.42"/>
<line fill="none" stroke="#000000" stroke-dasharray="16,0" x1="74.88" y1="32.4" x2="79.348" y2="32.4"/>
<text transform="matrix(1 0 0 1 64.314 389.4805)" font-family="'ArialMT'" font-size="10">0</text>
<text transform="matrix(1 0 0 1 55.9741 301.46)" font-family="'ArialMT'" font-size="10">0.5</text>
<text transform="matrix(1 0 0 1 64.314 213.4404)" font-family="'ArialMT'" font-size="10">1</text>
<text transform="matrix(1 0 0 1 55.9741 125.4199)" font-family="'ArialMT'" font-size="10">1.5</text>
<text transform="matrix(1 0 0 1 64.314 37.4004)" font-family="'ArialMT'" font-size="10">2</text>
<polyline fill="none" stroke="#0000FF" stroke-width="4" points="74.88,384.48 77.123,380.986 79.366,372.313 81.609,360.583 
	83.853,347.296 86.096,333.487 88.339,319.848 90.583,306.826 92.826,294.688 95.069,283.578 97.312,273.549 99.556,264.596 
	101.799,256.678 104.042,249.727 106.285,243.664 108.528,238.406 110.771,233.867 113.015,229.965 115.258,226.622 117.501,223.77 
	119.744,221.341 121.988,219.28 124.231,217.534 126.474,216.058 128.717,214.814 130.96,213.766 133.204,212.886 135.447,212.147 
	137.69,211.528 139.933,211.01 142.176,210.576 144.42,210.215 146.663,209.913 148.906,209.662 151.149,209.453 153.393,209.279 
	155.636,209.135 157.879,209.015 160.122,208.915 162.365,208.833 164.609,208.764 166.852,208.708 169.095,208.661 
	171.338,208.622 173.582,208.59 175.825,208.564 178.068,208.542 180.311,208.524 182.554,208.509 184.798,208.497 187.041,208.487 
	189.284,208.478 191.527,208.472 193.77,208.466 196.014,208.461 198.257,208.458 200.5,208.454 202.743,208.452 204.987,208.45 
	207.23,208.448 209.473,208.447 211.716,208.445 213.959,208.444 216.203,208.444 218.446,208.443 220.689,208.442 222.932,208.442 
	225.175,208.442 227.419,208.441 229.662,208.441 231.905,208.441 234.148,208.441 236.392,208.441 238.635,208.44 240.878,208.44 
	243.121,208.44 245.364,208.44 247.608,208.44 249.851,208.44 252.094,208.44 254.337,208.44 256.581,208.44 258.824,208.44 
	261.067,208.44 263.31,208.44 265.553,208.44 267.797,208.44 270.04,208.44 272.283,208.44 274.526,208.44 276.769,208.44 
	279.013,208.44 281.256,208.44 283.499,208.44 285.742,208.44 287.986,208.44 290.229,208.44 292.472,208.44 294.715,208.44 
	296.958,208.44 299.202,208.44 301.445,208.44 303.688,208.44 305.932,208.44 308.174,208.44 310.418,208.44 312.661,208.44 
	314.904,208.44 317.146,208.44 319.391,208.44 321.634,208.44 323.877,208.44 326.12,208.44 328.363,208.44 330.607,208.44 
	332.85,208.44 335.093,208.44 337.336,208.44 339.579,208.44 341.823,208.44 344.066,208.44 346.309,208.44 348.552,208.44 
	350.796,208.44 353.039,208.44 355.282,208.44 357.525,208.44 359.768,208.44 362.012,208.44 364.255,208.44 366.498,208.44 
	368.741,208.44 370.984,208.44 373.229,208.44 375.471,208.44 377.714,208.44 379.957,208.44 382.201,208.44 384.443,208.44 
	386.688,208.44 388.93,208.44 391.173,208.44 393.417,208.44 395.66,208.44 397.903,208.44 400.146,208.44 402.39,208.44 
	404.633,208.44 406.876,208.44 409.119,208.44 411.362,208.44 413.605,208.44 415.849,208.44 418.092,208.44 420.335,208.44 
	422.578,208.44 424.822,208.44 427.064,208.44 429.308,208.44 431.551,208.44 433.795,208.44 436.038,208.44 438.281,208.44 
	440.523,208.44 442.767,208.44 445.011,208.44 447.254,208.44 449.497,208.44 451.74,208.44 453.984,208.44 456.227,208.44 
	458.47,208.44 460.713,208.44 462.956,208.44 465.2,208.44 467.443,208.44 469.686,208.44 471.929,208.44 474.172,208.44 
	476.416,208.44 478.659,208.44 480.902,208.44 483.145,208.44 485.389,208.44 487.632,208.44 489.875,208.44 492.118,208.44 
	494.361,208.44 496.605,208.44 498.848,208.44 501.091,208.44 503.334,208.44 505.577,208.44 507.821,208.44 510.064,208.44 
	512.307,208.44 514.55,208.44 516.794,208.44 "/>
<text transform="matrix(1 0 0 1 119.8706 22.4004)" font-family="'ArialMT'" font-size="15">Step Response(t), C=47nF, L=47mH, R=2kΩ</text>
<text transform="matrix(1 0 0 1 274.9668 418.4805)" font-family="'ArialMT'" font-size="14">time [ms]</text>
<text transform="matrix(6.123234e-017 -1 1 6.123234e-017 47.8755 218.5371)" font-family="'ArialMT'" font-size="14">|h(t)|</text>
<g>
	<g>
		<line fill="none" stroke="#000000" x1="334.5" y1="413.5" x2="365.416" y2="413.5"/>
		<g>
			<polygon points="362.102,417.59 361.42,416.857 365.031,413.501 361.42,410.145 362.102,409.411 366.5,413.501 			"/>
		</g>
	</g>
</g>
<g>
	<g>
		<line fill="none" stroke="#000000" x1="43.5" y1="184.5" x2="43.5" y2="153.584"/>
		<g>
			<polygon points="47.59,156.898 46.857,157.58 43.501,153.968 40.144,157.58 39.411,156.898 43.501,152.5 			"/>
		</g>
	</g>
</g>
</svg>
