<?xml version="1.0" encoding="utf-8"?>
<!-- Generator: Adobe Illustrator 15.0.0, SVG Export Plug-In . SVG Version: 6.00 Build 0)  -->
<!DOCTYPE svg PUBLIC "-//W3C//DTD SVG 1.1//EN" "http://www.w3.org/Graphics/SVG/1.1/DTD/svg11.dtd">
<svg version="1.1" id="Layer_1" xmlns="http://www.w3.org/2000/svg" xmlns:xlink="http://www.w3.org/1999/xlink" x="0px" y="0px"
	 width="576px" height="432px" viewBox="0 0 576 432" enable-background="new 0 0 576 432" xml:space="preserve">
<title>glps_renderer figure</title>
<desc>Creator: GL2PS 1.3.8, (C) 1999-2012 C. Geuzaine
For: Octave
CreationDate: Thu Dec 17 19:28:03 2015</desc>
<line fill="none" stroke="#000000" stroke-width="2" stroke-dasharray="16,0" x1="74.88" y1="384.48" x2="521.28" y2="384.48"/>
<line fill="none" stroke="#000000" stroke-width="2" stroke-dasharray="16,0" x1="74.88" y1="384.48" x2="74.88" y2="32.4"/>
<line fill="none" stroke="#000000" stroke-dasharray="16,0" x1="74.88" y1="384.48" x2="74.88" y2="380.015"/>
<line fill="none" stroke="#000000" stroke-dasharray="16,0" x1="74.88" y1="32.4" x2="74.88" y2="36.865"/>
<line fill="none" stroke="#000000" stroke-dasharray="16,0" x1="186.48" y1="384.48" x2="186.48" y2="380.015"/>
<line fill="none" stroke="#000000" stroke-dasharray="16,0" x1="298.08" y1="384.48" x2="298.08" y2="380.015"/>
<line fill="none" stroke="#000000" stroke-dasharray="16,0" x1="409.68" y1="384.48" x2="409.68" y2="380.015"/>
<line fill="none" stroke="#000000" stroke-dasharray="16,0" x1="521.28" y1="384.48" x2="521.28" y2="380.015"/>
<line fill="none" stroke="#000000" stroke-dasharray="16,0" x1="74.88" y1="384.48" x2="79.348" y2="384.48"/>
<line fill="none" stroke="#000000" stroke-dasharray="16,0" x1="521.28" y1="384.48" x2="516.813" y2="384.48"/>
<line fill="none" stroke="#000000" stroke-dasharray="16,0" x1="74.88" y1="296.46" x2="79.348" y2="296.46"/>
<line fill="none" stroke="#000000" stroke-dasharray="16,0" x1="74.88" y1="208.44" x2="79.348" y2="208.44"/>
<line fill="none" stroke="#000000" stroke-dasharray="16,0" x1="74.88" y1="120.42" x2="79.348" y2="120.42"/>
<line fill="none" stroke="#000000" stroke-dasharray="16,0" x1="74.88" y1="32.4" x2="79.348" y2="32.4"/>
<text transform="matrix(1 0 0 1 64.314 389.4805)" font-family="'ArialMT'" font-size="10">0</text>
<text transform="matrix(1 0 0 1 55.9741 301.46)" font-family="'ArialMT'" font-size="10">0.5</text>
<text transform="matrix(1 0 0 1 64.314 213.4404)" font-family="'ArialMT'" font-size="10">1</text>
<text transform="matrix(1 0 0 1 55.9741 125.4199)" font-family="'ArialMT'" font-size="10">1.5</text>
<text transform="matrix(1 0 0 1 64.314 37.4004)" font-family="'ArialMT'" font-size="10">2</text>
<text transform="matrix(1 0 0 1 275.9668 418.4805)" font-family="'ArialMT'" font-size="14">time [ms]</text>
<text transform="matrix(6.123234e-017 -1 1 6.123234e-017 47.8755 218.5371)" font-family="'ArialMT'" font-size="14">|h(t)|</text>
<polyline fill="none" stroke="#0000FF" stroke-width="4" points="74.88,384.48 77.123,374.393 79.366,364.885 81.609,355.921 
	83.853,347.471 86.096,339.505 88.339,331.995 90.583,324.916 92.826,318.242 95.069,311.951 97.312,306.02 99.556,300.429 
	101.799,295.158 104.042,290.189 106.285,285.505 108.528,281.09 110.771,276.927 113.015,273.003 115.258,269.304 117.501,265.816 
	119.744,262.529 121.988,259.43 124.231,256.508 126.474,253.754 128.717,251.158 130.96,248.71 133.204,246.402 135.447,244.227 
	137.69,242.177 139.933,240.244 142.176,238.422 144.42,236.704 146.663,235.084 148.906,233.559 151.149,232.119 153.393,230.762 
	155.636,229.482 157.879,228.277 160.122,227.141 162.365,226.068 164.609,225.059 166.852,224.107 169.095,223.209 
	171.338,222.363 173.582,221.564 175.825,220.813 178.068,220.104 180.311,219.436 182.554,218.807 184.798,218.212 
	187.041,217.652 189.284,217.124 191.527,216.627 193.77,216.158 196.014,215.715 198.257,215.298 200.5,214.905 202.743,214.535 
	204.987,214.186 207.23,213.857 209.473,213.546 211.716,213.254 213.959,212.978 216.203,212.718 218.446,212.473 220.689,212.242 
	222.932,212.024 225.175,211.818 227.419,211.625 229.662,211.442 231.905,211.27 234.148,211.108 236.392,210.955 238.635,210.811 
	240.878,210.675 243.121,210.547 245.364,210.427 247.608,210.313 249.851,210.205 252.094,210.104 254.337,210.009 
	256.581,209.919 258.824,209.834 261.067,209.754 263.31,209.679 265.553,209.608 267.797,209.541 270.04,209.478 272.283,209.419 
	274.526,209.363 276.769,209.31 279.013,209.26 281.256,209.213 283.499,209.169 285.742,209.127 287.986,209.087 290.229,209.05 
	292.472,209.015 294.715,208.982 296.958,208.951 299.202,208.922 301.445,208.894 303.688,208.868 305.932,208.844 
	308.174,208.821 310.418,208.799 312.661,208.778 314.904,208.759 317.146,208.741 319.391,208.723 321.634,208.707 
	323.877,208.692 326.12,208.677 328.363,208.664 330.607,208.651 332.85,208.639 335.093,208.628 337.336,208.617 339.579,208.607 
	341.823,208.597 344.066,208.588 346.309,208.58 348.552,208.572 350.796,208.564 353.039,208.557 355.282,208.55 357.525,208.544 
	359.768,208.538 362.012,208.532 364.255,208.527 366.498,208.522 368.741,208.517 370.984,208.513 373.229,208.509 
	375.471,208.505 377.714,208.501 379.957,208.498 382.201,208.494 384.443,208.491 386.688,208.488 388.93,208.486 391.173,208.483 
	393.417,208.48 395.66,208.478 397.903,208.476 400.146,208.474 402.39,208.472 404.633,208.47 406.876,208.468 409.119,208.467 
	411.362,208.465 413.605,208.464 415.849,208.462 418.092,208.461 420.335,208.46 422.578,208.459 424.822,208.458 427.064,208.457 
	429.308,208.456 431.551,208.455 433.795,208.454 436.038,208.453 438.281,208.452 440.523,208.452 442.767,208.451 445.011,208.45 
	447.254,208.45 449.497,208.449 451.74,208.449 453.984,208.448 456.227,208.448 458.47,208.447 460.713,208.447 462.956,208.447 
	465.2,208.446 467.443,208.446 469.686,208.445 471.929,208.445 474.172,208.445 476.416,208.445 478.659,208.444 480.902,208.444 
	483.145,208.444 485.389,208.444 487.632,208.443 489.875,208.443 492.118,208.443 494.361,208.443 496.605,208.443 
	498.848,208.443 501.091,208.442 503.334,208.442 505.577,208.442 507.821,208.442 510.064,208.442 512.307,208.442 514.55,208.442 
	516.794,208.442 "/>
<text transform="matrix(1 0 0 1 113.6157 22.4004)" font-family="'ArialMT'" font-size="15">Step Response(t), C=47nF, L=47mH, R=3.9kΩ</text>
<g>
	<g>
		<line fill="none" stroke="#000000" x1="334.5" y1="413.5" x2="365.416" y2="413.5"/>
		<g>
			<polygon points="362.102,417.59 361.42,416.857 365.031,413.501 361.42,410.145 362.102,409.411 366.5,413.501 			"/>
		</g>
	</g>
</g>
<g>
	<g>
		<line fill="none" stroke="#000000" x1="43.5" y1="184.5" x2="43.5" y2="153.584"/>
		<g>
			<polygon points="47.59,156.898 46.857,157.58 43.501,153.968 40.144,157.58 39.411,156.898 43.501,152.5 			"/>
		</g>
	</g>
</g>
<text transform="matrix(1 0 0 1 72.0991 399.4805)" font-family="'ArialMT'" font-size="10">0</text>
<text transform="matrix(1 0 0 1 178.187 399.4805)" font-family="'ArialMT'" font-size="10">0.5</text>
<text transform="matrix(1 0 0 1 293.5684 399.4805)" font-family="'ArialMT'" font-size="10">1</text>
<text transform="matrix(1 0 0 1 401.3867 399.4805)" font-family="'ArialMT'" font-size="10">1.5</text>
<text transform="matrix(1 0 0 1 516.7676 399.4805)" font-family="'ArialMT'" font-size="10">2</text>
</svg>
