<?xml version="1.0" encoding="utf-8"?>
<!-- Generator: Adobe Illustrator 15.0.0, SVG Export Plug-In . SVG Version: 6.00 Build 0)  -->
<!DOCTYPE svg PUBLIC "-//W3C//DTD SVG 1.0//EN" "http://www.w3.org/TR/2001/REC-SVG-20010904/DTD/svg10.dtd">
<svg version="1.0" id="Layer_1" xmlns="http://www.w3.org/2000/svg" xmlns:xlink="http://www.w3.org/1999/xlink" x="0px" y="0px"
	 width="294.803px" height="124.724px" viewBox="0 0 294.803 124.724" enable-background="new 0 0 294.803 124.724"
	 xml:space="preserve">
<text transform="matrix(1 0 0 1 159.1235 14.1733)" fill="#231F20" font-family="'MyriadPro-Regular'" font-size="14">C</text>
<circle fill="none" stroke="#231F20" stroke-width="2" stroke-miterlimit="10" cx="39.684" cy="70.865" r="17.008"/>
<g>
	<line fill="none" stroke="#231F20" stroke-width="2" stroke-miterlimit="10" x1="181.417" y1="39.685" x2="181.417" y2="11.338"/>
	<line fill="none" stroke="#231F20" stroke-width="2" stroke-miterlimit="10" x1="172.913" y1="39.684" x2="172.913" y2="11.338"/>
</g>
<g>
	<g>
		
			<line fill="none" stroke="#00ADEE" stroke-width="0.952" stroke-miterlimit="10" x1="249.197" y1="31.181" x2="249.197" y2="112.353"/>
		<g>
			<polygon fill="#00ADEE" points="245.304,109.198 246.001,108.549 249.196,111.987 252.393,108.549 253.09,109.198 
				249.196,113.385 			"/>
		</g>
	</g>
</g>
<g>
	<g>
		
			<line fill="none" stroke="#00ADEE" stroke-width="0.952" stroke-miterlimit="10" x1="68.031" y1="31.181" x2="68.031" y2="112.353"/>
		<g>
			<polygon fill="#00ADEE" points="64.138,109.198 64.835,108.549 68.03,111.987 71.227,108.549 71.924,109.198 68.03,113.385 			
				"/>
		</g>
	</g>
</g>
<line fill="none" stroke="#231F20" stroke-miterlimit="10" x1="39.684" y1="119.057" x2="39.684" y2="25.511"/>
<line fill="none" stroke="#231F20" stroke-miterlimit="10" x1="212.347" y1="119.057" x2="212.347" y2="96.377"/>
<line fill="none" stroke="#231F20" stroke-miterlimit="10" x1="212.346" y1="48.189" x2="212.346" y2="25.512"/>
<line fill="none" stroke="#231F20" stroke-miterlimit="10" x1="87.874" y1="25.511" x2="39.685" y2="25.511"/>
<line fill="none" stroke="#231F20" stroke-miterlimit="10" x1="255.117" y1="119.054" x2="39.685" y2="119.054"/>
<line fill="none" stroke="#231F20" stroke-miterlimit="10" x1="172.913" y1="25.511" x2="137.785" y2="25.511"/>
<line fill="none" stroke="#231F20" stroke-miterlimit="10" x1="254.866" y1="25.511" x2="181.417" y2="25.511"/>
<text transform="matrix(1 0 0 1 73.7007 73.7002)" fill="#00ADEE" font-family="'MyriadPro-Regular'" font-size="12">u(t)</text>
<text transform="matrix(1 0 0 1 254.8652 73.7002)" fill="#00ADEE" font-family="'MyriadPro-Regular'" font-size="12">y(t)</text>
<text transform="matrix(1 0 0 1 191.8242 76.5352)" fill="#231F20" font-family="'MyriadPro-Regular'" font-size="14">R</text>
<rect x="206.928" y="48.19" fill="none" stroke="#231F20" stroke-width="1.633" stroke-miterlimit="10" width="11.339" height="48.188"/>
<g>
	<text transform="matrix(1 0 0 1 108.9697 14.1714)" fill="#231F20" font-family="'MyriadPro-Regular'" font-size="14">L</text>
	<g>
		<path fill="none" stroke="#231F20" stroke-width="2" stroke-miterlimit="10" d="M86.762,25.512c0-3.523,2.855-6.379,6.378-6.379
			s6.378,2.856,6.378,6.379"/>
		<path fill="none" stroke="#231F20" stroke-width="2" stroke-miterlimit="10" d="M99.519,25.511c0-3.523,2.854-6.379,6.378-6.379
			c3.522,0,6.378,2.856,6.378,6.379"/>
		<path fill="none" stroke="#231F20" stroke-width="2" stroke-miterlimit="10" d="M112.273,25.511c0-3.523,2.855-6.379,6.378-6.379
			s6.378,2.856,6.378,6.379"/>
		<path fill="none" stroke="#231F20" stroke-width="2" stroke-miterlimit="10" d="M125.029,25.511c0-3.523,2.855-6.379,6.378-6.379
			s6.378,2.856,6.378,6.379"/>
	</g>
</g>
</svg>
