<?xml version="1.0" encoding="utf-8"?>
<!-- Generator: Adobe Illustrator 15.0.0, SVG Export Plug-In . SVG Version: 6.00 Build 0)  -->
<!DOCTYPE svg PUBLIC "-//W3C//DTD SVG 1.1//EN" "http://www.w3.org/Graphics/SVG/1.1/DTD/svg11.dtd">
<svg version="1.1" id="Layer_1" xmlns="http://www.w3.org/2000/svg" xmlns:xlink="http://www.w3.org/1999/xlink" x="0px" y="0px"
	 width="358.5px" height="381.5px" viewBox="119 8 358.5 381.5" enable-background="new 119 8 358.5 381.5" xml:space="preserve">
<line opacity="0.5" fill="none" stroke="#000000" x1="207.027" y1="208.439" x2="207.027" y2="204"/>
<line fill="none" stroke="#000000" stroke-width="1.0666" x1="267.73" y1="384.477" x2="267.73" y2="32.402"/>
<line opacity="0.5" fill="none" stroke="#000000" x1="328.43" y1="208.439" x2="328.43" y2="204"/>
<line fill="none" stroke="#000000" x1="389.133" y1="208.439" x2="389.133" y2="204"/>
<line opacity="0.5" fill="none" stroke="#000000" x1="449.836" y1="208.439" x2="449.836" y2="204"/>
<line fill="none" stroke="#000000" x1="122.043" y1="208.441" x2="474.117" y2="208.441"/>
<g>
	<line opacity="0.5" fill="none" stroke="#000000" x1="267.389" y1="329.844" x2="271.341" y2="329.844"/>
	<line opacity="0.5" fill="none" stroke="#000000" x1="267.389" y1="269.141" x2="271.341" y2="269.141"/>
	<line opacity="0.5" fill="none" stroke="#000000" x1="267.389" y1="147.738" x2="271.341" y2="147.738"/>
	<line opacity="0.5" fill="none" stroke="#000000" x1="267.389" y1="87.035" x2="271.341" y2="87.035"/>
	
		<line opacity="0.5" fill="none" stroke="#000000" stroke-dasharray="1.6953,0" x1="271.341" y1="329.844" x2="271.291" y2="329.844"/>
	
		<line opacity="0.5" fill="none" stroke="#000000" stroke-dasharray="1.6953,0" x1="271.341" y1="269.141" x2="271.291" y2="269.141"/>
</g>
<line fill="none" stroke="#000000" stroke-dasharray="16,0" x1="122.043" y1="208.441" x2="126.508" y2="208.441"/>
<line fill="none" stroke="#000000" stroke-dasharray="16,0" x1="474.117" y1="208.441" x2="469.652" y2="208.441"/>
<line opacity="0.2" fill="none" stroke="#000000" x1="389.074" y1="212.273" x2="389.133" y2="208.441"/>
<line fill="none" stroke="#FF0000" x1="388.891" y1="216.102" x2="389.074" y2="212.273"/>
<line fill="none" stroke="#FF0000" x1="388.59" y1="219.922" x2="388.891" y2="216.102"/>
<line fill="none" stroke="#FF0000" x1="388.168" y1="223.73" x2="388.59" y2="219.922"/>
<line fill="none" stroke="#FF0000" x1="387.625" y1="227.527" x2="388.168" y2="223.73"/>
<line opacity="0.2" fill="none" stroke="#000000" x1="386.961" y1="231.301" x2="387.625" y2="227.527"/>
<line opacity="0.2" fill="none" stroke="#000000" x1="386.18" y1="235.055" x2="386.961" y2="231.301"/>
<line opacity="0.2" fill="none" stroke="#000000" x1="385.281" y1="238.781" x2="386.18" y2="235.055"/>
<polyline opacity="0.2" fill="none" stroke="#000000" points="389.133,208.441 389.074,204.609 388.891,200.777 388.59,196.957 
	388.168,193.148 387.625,189.355 386.961,185.578 386.18,181.824 385.281,178.098 384.266,174.402 383.133,170.742 381.887,167.117 
	380.523,163.535 379.051,159.996 377.465,156.508 375.77,153.066 373.969,149.684 372.063,146.359 370.051,143.098 367.934,139.898 
	365.723,136.77 363.41,133.711 361.004,130.73 358.504,127.824 355.914,125 353.234,122.258 350.473,119.598 347.625,117.031 
	344.699,114.555 341.699,112.172 338.621,109.887 335.477,107.695 332.262,105.609 328.984,103.621 325.645,101.738 322.246,99.965 
	318.797,98.297 315.293,96.742 311.742,95.293 308.148,93.961 304.516,92.742 300.844,91.641 297.141,90.652 293.406,89.781 
	289.648,89.031 285.867,88.398 282.07,87.887 278.258,87.492 274.434,87.223 270.602,87.07 266.77,87.039 262.938,87.129 
	259.109,87.34 255.293,87.676 251.484,88.125 247.695,88.699 243.926,89.391 240.18,90.203 236.461,91.133 232.773,92.176 
	229.121,93.34 225.508,94.613 221.934,96.004 218.406,97.504 214.93,99.117 211.504,100.84 208.137,102.668 204.828,104.602 
	201.578,106.641 198.398,108.777 195.289,111.016 192.246,113.352 189.285,115.781 186.398,118.305 183.594,120.918 
	180.871,123.617 178.238,126.402 175.691,129.266 173.238,132.211 170.879,135.234 168.617,138.328 166.453,141.488 
	164.391,144.719 162.43,148.016 160.574,151.367 158.824,154.781 157.188,158.246 155.656,161.758 154.238,165.32 152.934,168.926 
	151.742,172.566 150.668,176.246 149.711,179.961 148.871,183.699 148.148,187.465 147.547,191.25 147.063,195.051 146.703,198.867 
	146.461,202.691 146.34,206.523 146.34,210.355 146.461,214.188 146.703,218.012 147.063,221.828 147.547,225.633 148.148,229.418 
	148.871,233.18 149.711,236.922 150.668,240.633 151.742,244.313 152.934,247.957 154.238,251.559 155.656,255.121 157.188,258.637 
	158.824,262.102 160.574,265.512 162.43,268.867 164.391,272.16 166.453,275.391 168.617,278.555 170.879,281.648 173.238,284.668 
	175.691,287.613 178.238,290.48 180.871,293.266 183.594,295.965 186.398,298.574 189.285,301.098 192.246,303.527 195.289,305.863 
	198.398,308.102 201.578,310.242 204.828,312.277 208.137,314.211 211.504,316.043 214.93,317.762 218.406,319.375 221.934,320.875 
	225.508,322.266 229.121,323.543 232.773,324.703 236.461,325.75 240.18,326.68 243.926,327.488 247.695,328.18 251.484,328.754 
	255.293,329.207 259.109,329.539 262.938,329.75 266.77,329.84 270.602,329.813 274.434,329.66 278.258,329.387 282.07,328.996 
	285.867,328.48 289.648,327.848 293.406,327.098 297.141,326.227 300.844,325.242 304.516,324.137 308.148,322.918 311.742,321.586 
	315.293,320.141 318.797,318.582 322.246,316.914 325.645,315.141 328.984,313.258 332.262,311.273 335.477,309.184 
	338.621,306.996 341.699,304.707 344.699,302.324 347.625,299.848 350.473,297.281 353.234,294.625 355.914,291.883 
	358.504,289.059 361.004,286.152 363.41,283.168 365.723,280.109 367.934,276.98 370.051,273.781 372.063,270.52 373.969,267.195 
	375.77,263.813 377.465,260.375 379.051,256.883 380.523,253.348 381.887,249.762 383.133,246.137 384.266,242.477 385.281,238.781 
	"/>
<line opacity="0.5" fill="none" stroke="#000000" stroke-width="0.8292" stroke-dasharray="1.7708,0" x1="267.457" y1="32.402" x2="271.77" y2="32.402"/>
<line opacity="0.5" fill="none" stroke="#000000" stroke-width="0.8188" stroke-dasharray="1.6033,0" x1="267.278" y1="384.477" x2="270.813" y2="384.477"/>
<g>
	<text transform="matrix(-4.371139e-008 -1 1 -4.371139e-008 245.5264 79.7749)" font-family="'STIX-Regular'" font-size="12">ℑ</text>
	<text transform="matrix(-4.371139e-008 -1 1 -4.371139e-008 245.5264 69.4292)" font-family="'STIX-Regular'" font-size="12">{</text>
	<text transform="matrix(-4.371139e-008 -1 1 -4.371139e-008 245.5264 63.6694)" font-family="'STIX-Italic'" font-size="12">H(ω)</text>
	<text transform="matrix(-4.371139e-008 -1 1 -4.371139e-008 245.5264 38.7827)" font-family="'STIX-Regular'" font-size="12">}</text>
	<g>
		<text transform="matrix(1 0 0 1 419.6602 236.0625)" font-family="'STIX-Regular'" font-size="12">ℜ</text>
		<text transform="matrix(1 0 0 1 430.8193 236.0625)" font-family="'STIX-Regular'" font-size="12">{</text>
		<text transform="matrix(1 0 0 1 436.5791 236.0625)" font-family="'STIX-Italic'" font-size="12">H(ω)</text>
		<text transform="matrix(1 0 0 1 461.4668 236.0625)" font-family="'STIX-Regular'" font-size="12">}</text>
	</g>
	<g>
		<g>
			<line fill="none" stroke="#231F20" stroke-miterlimit="10" x1="419.66" y1="223.08" x2="465.025" y2="223.08"/>
			<g>
				<polygon fill="#231F20" points="461.711,227.17 461.029,226.438 464.641,223.081 461.029,219.725 461.711,218.991 
					466.109,223.081 				"/>
			</g>
		</g>
	</g>
</g>
<g>
	<g>
		<line fill="none" stroke="#231F20" stroke-miterlimit="10" x1="252.667" y1="80.775" x2="252.667" y2="33.486"/>
		<g>
			<polygon fill="#231F20" points="256.756,36.8 256.023,37.482 252.667,33.87 249.31,37.482 248.578,36.8 252.667,32.402 			"/>
		</g>
	</g>
</g>
<title>glps_renderer figure</title>
<desc>Creator: GL2PS 1.3.8, (C) 1999-2012 C. Geuzaine
For: Octave
CreationDate: Thu Jan 07 11:45:03 2016</desc>
<line fill="none" stroke="#FF0000" x1="388.891" y1="216.102" x2="389.074" y2="212.273"/>
<line fill="none" stroke="#FF0000" x1="388.59" y1="219.922" x2="388.891" y2="216.102"/>
<line fill="none" stroke="#FF0000" x1="388.168" y1="223.73" x2="388.59" y2="219.922"/>
<line fill="none" stroke="#FF0000" x1="387.625" y1="227.527" x2="388.168" y2="223.73"/>
<line opacity="0.2" fill="none" stroke="#000000" x1="386.961" y1="231.301" x2="387.625" y2="227.527"/>
<polyline fill="none" stroke="#0000FF" stroke-width="3" points="389.125,209.582 389.125,209.609 389.125,209.637 389.125,209.664 
	389.125,209.691 389.125,209.723 389.125,209.75 389.121,209.781 389.121,209.813 389.121,209.844 389.121,209.879 389.121,209.91 
	389.121,209.945 389.117,209.98 389.117,210.016 389.117,210.055 389.117,210.09 389.117,210.129 389.117,210.168 389.113,210.211 
	389.113,210.25 389.113,210.293 389.113,210.336 389.109,210.379 389.109,210.426 389.109,210.473 389.105,210.52 389.105,210.566 
	389.105,210.617 389.102,210.668 389.102,210.719 389.102,210.773 389.098,210.828 389.098,210.883 389.094,210.941 389.094,211 
	389.09,211.059 389.09,211.121 389.086,211.184 389.086,211.246 389.082,211.313 389.082,211.379 389.078,211.445 389.074,211.516 
	389.074,211.59 389.07,211.66 389.066,211.738 389.063,211.813 389.059,211.895 389.055,211.973 389.055,212.055 389.051,212.141 
	389.047,212.227 389.039,212.316 389.035,212.406 389.031,212.496 389.027,212.594 389.023,212.688 389.016,212.789 
	389.012,212.891 389.004,212.992 389,213.098 388.992,213.207 388.988,213.32 388.98,213.434 388.973,213.547 388.965,213.668 
	388.957,213.789 388.949,213.914 388.941,214.043 388.93,214.172 388.922,214.305 388.91,214.441 388.902,214.582 388.891,214.723 
	388.879,214.871 388.867,215.02 388.852,215.172 388.84,215.332 388.824,215.492 388.813,215.656 388.797,215.82 388.781,215.992 
	388.766,216.168 388.746,216.348 388.727,216.531 388.711,216.723 388.688,216.914 388.668,217.109 388.645,217.313 
	388.625,217.516 388.598,217.727 388.574,217.941 388.547,218.164 388.52,218.391 388.492,218.621 388.461,218.855 388.43,219.098 
	388.395,219.344 388.359,219.598 388.324,219.855 388.285,220.117 388.246,220.387 388.207,220.664 388.16,220.945 388.117,221.234 
	388.066,221.531 388.02,221.832 387.965,222.141 387.91,222.457 387.852,222.777 387.793,223.109 387.73,223.445 387.664,223.789 
	387.594,224.141 387.523,224.504 387.449,224.871 387.367,225.246 387.285,225.633 387.199,226.023 387.109,226.426 
	387.016,226.836 386.914,227.254 386.813,227.684 386.703,228.121 386.59,228.566 386.473,229.023 386.348,229.488 386.219,229.965 
	386.082,230.449 385.941,230.945 385.793,231.449 385.637,231.969 385.473,232.496 385.305,233.031 385.125,233.582 
	384.941,234.141 384.746,234.711 384.543,235.293 384.332,235.887 384.109,236.492 383.879,237.109 383.637,237.738 
	383.383,238.379 383.121,239.035 382.844,239.699 382.555,240.375 382.254,241.063 381.941,241.766 381.613,242.477 381.27,243.203 
	380.914,243.941 380.543,244.691 380.152,245.453 379.746,246.23 379.324,247.016 378.883,247.813 378.422,248.625 377.941,249.445 
	377.445,250.277 376.922,251.121 376.379,251.977 375.816,252.844 375.227,253.719 374.617,254.605 373.977,255.5 373.316,256.402 
	372.625,257.316 371.91,258.238 371.164,259.164 370.391,260.098 369.586,261.039 368.754,261.984 367.887,262.934 366.988,263.887 
	366.059,264.844 365.094,265.801 364.094,266.758 363.059,267.711 361.984,268.668 360.875,269.617 359.73,270.563 358.543,271.5 
	357.32,272.434 356.059,273.352 354.754,274.262 353.414,275.16 352.031,276.043 350.605,276.906 349.141,277.754 347.637,278.578 
	346.09,279.383 344.504,280.156 342.879,280.906 341.211,281.629 339.508,282.316 337.762,282.969 335.98,283.586 334.164,284.164 
	332.313,284.699 330.426,285.191 328.508,285.637 326.559,286.035 324.578,286.383 322.574,286.676 320.547,286.918 
	318.496,287.098 316.426,287.223 314.34,287.285 312.238,287.289 310.125,287.227 308.008,287.098 305.887,286.902 303.762,286.645 
	301.645,286.316 299.531,285.918 297.426,285.453 295.336,284.922 293.266,284.324 291.219,283.656 289.195,282.922 
	287.199,282.121 285.238,281.258 283.316,280.332 281.43,279.348 279.59,278.305 277.797,277.203 276.055,276.051 274.367,274.848 
	272.73,273.598 271.156,272.305 269.641,270.969 268.188,269.594 267.73,269.141 266.797,268.188 265.473,266.754 264.219,265.293 
	263.027,263.809 261.906,262.305 260.855,260.789 259.871,259.262 258.953,257.73 258.105,256.191 257.324,254.656 256.609,253.125 
	255.961,251.602 255.375,250.086 254.852,248.586 254.387,247.102 253.98,245.641 253.629,244.195 253.332,242.777 253.09,241.387 
	252.895,240.023 252.746,238.691 252.641,237.391 252.578,236.121 252.555,234.887 252.566,233.688 252.613,232.523 
	252.691,231.395 252.801,230.301 252.938,229.246 253.094,228.23 253.277,227.25 253.48,226.305 253.699,225.395 253.938,224.523 
	254.188,223.688 254.449,222.887 254.723,222.117 255.004,221.383 255.297,220.684 255.59,220.016 255.891,219.375 256.195,218.77 
	256.5,218.188 256.809,217.637 257.117,217.113 257.426,216.617 257.73,216.145 258.035,215.699 258.336,215.273 258.633,214.875 
	258.926,214.492 259.215,214.133 259.5,213.793 259.777,213.473 260.051,213.168 260.32,212.883 260.582,212.613 260.836,212.355 
	261.086,212.117 261.328,211.891 261.566,211.676 261.797,211.477 262.02,211.285 262.238,211.109 262.445,210.941 262.652,210.785 
	262.848,210.637 263.039,210.5 263.227,210.367 263.402,210.246 263.578,210.133 263.742,210.023 263.906,209.922 264.059,209.828 
	264.211,209.738 264.355,209.656 264.492,209.578 264.625,209.504 264.754,209.434 264.879,209.371 265,209.309 265.113,209.254 
	265.223,209.199 265.328,209.152 265.43,209.105 265.527,209.063 265.621,209.02 265.711,208.984 265.801,208.949 265.883,208.914 
	265.961,208.883 266.039,208.855 266.109,208.828 266.18,208.801 266.246,208.777 266.313,208.754 266.375,208.734 266.434,208.715 
	266.488,208.695 266.543,208.68 266.594,208.664 266.645,208.648 266.691,208.637 266.738,208.621 266.781,208.609 266.824,208.598 
	266.863,208.59 266.902,208.578 266.938,208.57 266.973,208.563 267.008,208.555 267.039,208.547 267.07,208.539 267.098,208.531 
	267.125,208.527 267.152,208.52 267.18,208.516 267.203,208.512 267.227,208.504 267.25,208.5 267.27,208.496 267.289,208.492 
	267.309,208.488 267.328,208.488 267.348,208.484 267.363,208.48 267.379,208.477 267.395,208.477 267.41,208.473 267.426,208.469 
	267.438,208.469 267.453,208.465 267.465,208.465 267.477,208.465 267.488,208.461 267.496,208.461 267.508,208.461 267.52,208.457 
	267.527,208.457 267.535,208.457 267.547,208.453 267.555,208.453 267.563,208.453 267.57,208.453 267.574,208.449 267.582,208.449 
	267.59,208.449 267.594,208.449 267.602,208.449 267.605,208.449 267.613,208.449 267.617,208.445 267.621,208.445 267.629,208.445 
	267.633,208.445 267.637,208.445 267.641,208.445 267.645,208.445 267.648,208.445 267.652,208.445 267.656,208.445 267.66,208.445 
	267.66,208.441 267.664,208.441 267.668,208.441 267.672,208.441 267.672,208.441 267.676,208.441 267.68,208.441 267.68,208.441 
	267.684,208.441 267.684,208.441 267.688,208.441 267.688,208.441 267.691,208.441 267.691,208.441 267.695,208.441 
	267.695,208.441 267.695,208.441 267.699,208.441 267.699,208.441 267.699,208.441 267.703,208.441 267.703,208.441 
	267.703,208.441 267.707,208.441 267.707,208.441 267.707,208.441 267.707,208.441 267.711,208.441 267.711,208.441 
	267.711,208.441 267.711,208.441 267.711,208.441 267.715,208.441 267.715,208.441 267.715,208.441 267.715,208.441 
	267.715,208.441 267.715,208.441 267.719,208.441 267.719,208.441 267.719,208.441 267.719,208.441 267.719,208.441 
	267.719,208.441 267.719,208.441 267.719,208.441 267.719,208.441 267.723,208.441 267.723,208.441 267.723,208.441 
	267.723,208.441 267.723,208.441 267.723,208.441 267.723,208.441 267.723,208.441 267.723,208.441 267.723,208.441 
	267.723,208.441 267.723,208.441 267.723,208.441 267.723,208.441 267.723,208.441 267.727,208.441 267.727,208.441 
	267.727,208.441 267.727,208.441 267.727,208.441 267.727,208.441 267.727,208.441 267.727,208.441 267.727,208.441 
	267.727,208.441 267.727,208.441 267.727,208.441 267.727,208.441 267.727,208.441 267.727,208.441 267.727,208.441 
	267.727,208.441 267.727,208.441 267.727,208.441 267.727,208.441 267.727,208.441 267.727,208.441 267.727,208.441 
	267.727,208.441 267.727,208.441 267.727,208.441 267.727,208.441 267.727,208.441 267.727,208.441 267.727,208.441 
	267.727,208.441 267.727,208.441 267.727,208.441 267.727,208.441 267.727,208.441 267.727,208.441 267.727,208.441 
	267.727,208.441 267.727,208.441 267.727,208.441 267.727,208.441 267.727,208.441 267.727,208.441 "/>
<polyline fill="none" stroke="#0000FF" stroke-width="3" stroke-dasharray="4,5,1,6" points="389.125,207.301 389.125,207.273 
	389.125,207.246 389.125,207.219 389.125,207.188 389.125,207.16 389.125,207.129 389.121,207.098 389.121,207.066 389.121,207.035 
	389.121,207.004 389.121,206.969 389.121,206.934 389.117,206.898 389.117,206.863 389.117,206.828 389.117,206.789 389.117,206.75 
	389.117,206.711 389.113,206.672 389.113,206.629 389.113,206.586 389.113,206.543 389.109,206.5 389.109,206.453 389.109,206.41 
	389.105,206.359 389.105,206.313 389.105,206.262 389.102,206.211 389.102,206.16 389.102,206.105 389.098,206.055 389.098,205.996 
	389.094,205.941 389.094,205.883 389.09,205.82 389.09,205.762 389.086,205.699 389.086,205.633 389.082,205.57 389.082,205.504 
	389.078,205.434 389.074,205.363 389.074,205.293 389.07,205.219 389.066,205.145 389.063,205.066 389.059,204.988 389.055,204.906 
	389.055,204.824 389.051,204.742 389.047,204.652 389.039,204.566 389.035,204.477 389.031,204.383 389.027,204.289 
	389.023,204.191 389.016,204.094 389.012,203.992 389.004,203.887 389,203.781 388.992,203.672 388.988,203.563 388.98,203.449 
	388.973,203.332 388.965,203.211 388.957,203.09 388.949,202.965 388.941,202.84 388.93,202.707 388.922,202.574 388.91,202.438 
	388.902,202.297 388.891,202.156 388.879,202.008 388.867,201.859 388.852,201.707 388.84,201.551 388.824,201.391 388.813,201.227 
	388.797,201.059 388.781,200.887 388.766,200.711 388.746,200.531 388.727,200.348 388.711,200.16 388.688,199.969 388.668,199.77 
	388.645,199.57 388.625,199.363 388.598,199.152 388.574,198.938 388.547,198.715 388.52,198.492 388.492,198.262 388.461,198.023 
	388.43,197.785 388.395,197.535 388.359,197.285 388.324,197.027 388.285,196.762 388.246,196.492 388.207,196.215 388.16,195.934 
	388.117,195.645 388.066,195.352 388.02,195.047 387.965,194.738 387.91,194.426 387.852,194.102 387.793,193.773 387.73,193.434 
	387.664,193.09 387.594,192.738 387.523,192.379 387.449,192.012 387.367,191.633 387.285,191.25 387.199,190.855 387.109,190.457 
	387.016,190.047 386.914,189.625 386.813,189.199 386.703,188.762 386.59,188.313 386.473,187.859 386.348,187.391 386.219,186.918 
	386.082,186.43 385.941,185.934 385.793,185.43 385.637,184.914 385.473,184.387 385.305,183.848 385.125,183.301 384.941,182.738 
	384.746,182.168 384.543,181.586 384.332,180.992 384.109,180.387 383.879,179.77 383.637,179.141 383.383,178.5 383.121,177.848 
	382.844,177.184 382.555,176.504 382.254,175.816 381.941,175.117 381.613,174.402 381.27,173.676 380.914,172.938 380.543,172.188 
	380.152,171.426 379.746,170.652 379.324,169.863 378.883,169.066 378.422,168.258 377.941,167.434 377.445,166.602 
	376.922,165.758 376.379,164.902 375.816,164.039 375.227,163.16 374.617,162.277 373.977,161.383 373.316,160.477 372.625,159.563 
	371.91,158.645 371.164,157.715 370.391,156.781 369.586,155.84 368.754,154.895 367.887,153.945 366.988,152.992 366.059,152.039 
	365.094,151.082 364.094,150.125 363.059,149.168 361.984,148.215 360.875,147.266 359.73,146.32 358.543,145.379 357.32,144.449 
	356.059,143.527 354.754,142.617 353.414,141.719 352.031,140.84 350.605,139.973 349.141,139.125 347.637,138.301 346.09,137.5 
	344.504,136.723 342.879,135.973 341.211,135.254 339.508,134.566 337.762,133.91 335.98,133.293 334.164,132.719 332.313,132.18 
	330.426,131.688 328.508,131.242 326.559,130.844 324.578,130.496 322.574,130.203 320.547,129.965 318.496,129.781 
	316.426,129.656 314.34,129.594 312.238,129.594 310.125,129.656 308.008,129.781 305.887,129.977 303.762,130.238 301.645,130.566 
	299.531,130.961 297.426,131.426 295.336,131.957 293.266,132.559 291.219,133.227 289.195,133.961 287.199,134.758 
	285.238,135.621 283.316,136.547 281.43,137.531 279.59,138.574 277.797,139.676 276.055,140.828 274.367,142.031 272.73,143.281 
	271.156,144.578 269.641,145.914 268.188,147.285 267.73,147.738 266.797,148.691 265.473,150.125 264.219,151.59 263.027,153.07 
	261.906,154.574 260.855,156.09 259.871,157.617 258.953,159.152 258.105,160.688 257.324,162.223 256.609,163.758 255.961,165.281 
	255.375,166.793 254.852,168.293 254.387,169.777 253.98,171.242 253.629,172.684 253.332,174.102 253.09,175.492 252.895,176.855 
	252.746,178.188 252.641,179.488 252.578,180.758 252.555,181.992 252.566,183.195 252.613,184.359 252.691,185.484 
	252.801,186.578 252.938,187.633 253.094,188.652 253.277,189.633 253.48,190.574 253.699,191.484 253.938,192.355 254.188,193.191 
	254.449,193.996 254.723,194.762 255.004,195.496 255.297,196.195 255.59,196.867 255.891,197.504 256.195,198.113 256.5,198.691 
	256.809,199.242 257.117,199.766 257.426,200.262 257.73,200.734 258.035,201.18 258.336,201.605 258.633,202.008 258.926,202.387 
	259.215,202.746 259.5,203.086 259.777,203.41 260.051,203.711 260.32,204 260.582,204.27 260.836,204.523 261.086,204.766 
	261.328,204.992 261.566,205.203 261.797,205.406 262.02,205.594 262.238,205.77 262.445,205.938 262.652,206.094 262.848,206.242 
	263.039,206.383 263.227,206.512 263.402,206.633 263.578,206.75 263.742,206.855 263.906,206.957 264.059,207.055 264.211,207.141 
	264.355,207.227 264.492,207.305 264.625,207.379 264.754,207.445 264.879,207.512 265,207.57 265.113,207.625 265.223,207.68 
	265.328,207.73 265.43,207.777 265.527,207.82 265.621,207.859 265.711,207.898 265.801,207.934 265.883,207.965 265.961,207.996 
	266.039,208.027 266.109,208.055 266.18,208.078 266.246,208.102 266.313,208.125 266.375,208.145 266.434,208.164 266.488,208.184 
	266.543,208.199 266.594,208.215 266.645,208.23 266.691,208.246 266.738,208.258 266.781,208.27 266.824,208.281 266.863,208.293 
	266.902,208.301 266.938,208.309 266.973,208.32 267.008,208.328 267.039,208.336 267.07,208.34 267.098,208.348 267.125,208.355 
	267.152,208.359 267.18,208.367 267.203,208.371 267.227,208.375 267.25,208.379 267.27,208.383 267.289,208.387 267.309,208.391 
	267.328,208.395 267.348,208.398 267.363,208.398 267.379,208.402 267.395,208.406 267.41,208.406 267.426,208.41 267.438,208.41 
	267.453,208.414 267.465,208.414 267.477,208.418 267.488,208.418 267.496,208.422 267.508,208.422 267.52,208.422 267.527,208.422 
	267.535,208.426 267.547,208.426 267.555,208.426 267.563,208.426 267.57,208.43 267.574,208.43 267.582,208.43 267.59,208.43 
	267.594,208.43 267.602,208.434 267.605,208.434 267.613,208.434 267.617,208.434 267.621,208.434 267.629,208.434 267.633,208.434 
	267.637,208.434 267.641,208.434 267.645,208.438 267.648,208.438 267.652,208.438 267.656,208.438 267.66,208.438 267.66,208.438 
	267.664,208.438 267.668,208.438 267.672,208.438 267.672,208.438 267.676,208.438 267.68,208.438 267.68,208.438 267.684,208.438 
	267.684,208.438 267.688,208.438 267.688,208.438 267.691,208.438 267.691,208.438 267.695,208.438 267.695,208.438 
	267.695,208.438 267.699,208.438 267.699,208.438 267.699,208.438 267.703,208.438 267.703,208.438 267.703,208.441 
	267.707,208.441 267.707,208.441 267.707,208.441 267.707,208.441 267.711,208.441 267.711,208.441 267.711,208.441 
	267.711,208.441 267.711,208.441 267.715,208.441 267.715,208.441 267.715,208.441 267.715,208.441 267.715,208.441 
	267.715,208.441 267.719,208.441 267.719,208.441 267.719,208.441 267.719,208.441 267.719,208.441 267.719,208.441 
	267.719,208.441 267.719,208.441 267.719,208.441 267.723,208.441 267.723,208.441 267.723,208.441 267.723,208.441 
	267.723,208.441 267.723,208.441 267.723,208.441 267.723,208.441 267.723,208.441 267.723,208.441 267.723,208.441 
	267.723,208.441 267.723,208.441 267.723,208.441 267.723,208.441 267.727,208.441 267.727,208.441 267.727,208.441 
	267.727,208.441 267.727,208.441 267.727,208.441 267.727,208.441 267.727,208.441 267.727,208.441 267.727,208.441 
	267.727,208.441 267.727,208.441 267.727,208.441 267.727,208.441 267.727,208.441 267.727,208.441 267.727,208.441 
	267.727,208.441 267.727,208.441 267.727,208.441 267.727,208.441 267.727,208.441 267.727,208.441 267.727,208.441 
	267.727,208.441 267.727,208.441 267.727,208.441 267.727,208.441 267.727,208.441 267.727,208.441 267.727,208.441 
	267.727,208.441 267.727,208.441 267.727,208.441 267.727,208.441 267.727,208.441 267.727,208.441 267.727,208.441 
	267.727,208.441 267.727,208.441 267.727,208.441 267.727,208.441 267.727,208.441 "/>
<text transform="matrix(1 0 0 1 146.3242 22.4063)" font-family="'ArialMT'" font-size="15">Nyquist Diagram(ω), C=47nF, L=47mH, R=2kΩ</text>
<text transform="matrix(1 0 0 1 259.4814 91.0391)" opacity="0.5" enable-background="new    " font-family="'ArialMT'" font-size="10">1</text>
<text transform="matrix(1 0 0 1 251.1416 151.7422)" opacity="0.5" enable-background="new    " font-family="'ArialMT'" font-size="10">0.5</text>
<text transform="matrix(1 0 0 1 247.8115 273.1445)" opacity="0.5" enable-background="new    " font-family="'ArialMT'" font-size="10">-0.5</text>
<text transform="matrix(1 0 0 1 256.1514 333.8477)" opacity="0.5" enable-background="new    " font-family="'ArialMT'" font-size="10">-1</text>
<text transform="matrix(1 0 0 1 442.8848 219.9219)" opacity="0.5" enable-background="new    " font-family="'ArialMT'" font-size="10">1.5</text>
<text transform="matrix(1 0 0 1 321.4795 219.9219)" opacity="0.5" enable-background="new    " font-family="'ArialMT'" font-size="10">0.5</text>
<text transform="matrix(1 0 0 1 198.4111 219.9219)" opacity="0.5" enable-background="new    " font-family="'ArialMT'" font-size="10">-0.5</text>
<text transform="matrix(1 0 0 1 139.8779 217.9219)" opacity="0.5" enable-background="new    " font-family="'ArialMT'" font-size="10">-1</text>
<text transform="matrix(1 0 0 1 391.3525 218.9219)" opacity="0.5" stroke="#000000" stroke-miterlimit="10" enable-background="new    " font-family="'ArialMT'" font-size="10">1</text>
<g>
	<g>
		<line fill="none" stroke="#0000FF" stroke-width="2" x1="379.136" y1="248.187" x2="375.664" y2="252.259"/>
		<g>
			<polygon fill="#0000FF" points="373.739,241.909 375.738,241.821 376.16,251.673 385.957,250.532 386.187,252.521 
				374.255,253.908 			"/>
		</g>
	</g>
</g>
<circle opacity="0.5" fill="#FF0000" stroke="#FF0000" stroke-width="2" cx="146.505" cy="208.311" r="1.891"/>
</svg>
