<?xml version="1.0" encoding="utf-8"?>
<!-- Generator: Adobe Illustrator 15.0.0, SVG Export Plug-In . SVG Version: 6.00 Build 0)  -->
<!DOCTYPE svg PUBLIC "-//W3C//DTD SVG 1.1//EN" "http://www.w3.org/Graphics/SVG/1.1/DTD/svg11.dtd">
<svg version="1.1" id="Layer_1" xmlns="http://www.w3.org/2000/svg" xmlns:xlink="http://www.w3.org/1999/xlink" x="0px" y="0px"
	 width="576px" height="432px" viewBox="0 0 576 432" enable-background="new 0 0 576 432" xml:space="preserve">
<title>glps_renderer figure</title>
<desc>Creator: GL2PS 1.3.8, (C) 1999-2012 C. Geuzaine
For: Octave
CreationDate: Thu Dec 17 19:24:37 2015</desc>
<line fill="none" stroke="#000000" stroke-width="2" stroke-dasharray="16,0" x1="74.88" y1="384.48" x2="521.28" y2="384.48"/>
<line fill="none" stroke="#000000" stroke-width="2" stroke-dasharray="16,0" x1="74.88" y1="384.48" x2="74.88" y2="32.4"/>
<line fill="none" stroke="#000000" stroke-dasharray="16,0" x1="74.88" y1="384.48" x2="74.88" y2="380.015"/>
<line fill="none" stroke="#000000" stroke-dasharray="16,0" x1="74.88" y1="32.4" x2="74.88" y2="36.865"/>
<line fill="none" stroke="#000000" stroke-dasharray="16,0" x1="164.16" y1="384.48" x2="164.16" y2="380.015"/>
<line fill="none" stroke="#000000" stroke-dasharray="16,0" x1="253.44" y1="384.48" x2="253.44" y2="380.015"/>
<line fill="none" stroke="#000000" stroke-dasharray="16,0" x1="342.72" y1="384.48" x2="342.72" y2="380.015"/>
<line fill="none" stroke="#000000" stroke-dasharray="16,0" x1="432" y1="384.48" x2="432" y2="380.015"/>
<line fill="none" stroke="#000000" stroke-dasharray="16,0" x1="521.28" y1="384.48" x2="521.28" y2="380.015"/>
<line fill="none" stroke="#000000" stroke-dasharray="16,0" x1="74.88" y1="384.48" x2="79.348" y2="384.48"/>
<line fill="none" stroke="#000000" stroke-dasharray="16,0" x1="521.28" y1="384.48" x2="516.813" y2="384.48"/>
<line fill="none" stroke="#000000" stroke-dasharray="16,0" x1="74.88" y1="325.8" x2="79.348" y2="325.8"/>
<line fill="none" stroke="#000000" stroke-dasharray="16,0" x1="74.88" y1="267.12" x2="79.348" y2="267.12"/>
<line fill="none" stroke="#000000" stroke-dasharray="16,0" x1="74.88" y1="208.44" x2="79.348" y2="208.44"/>
<line fill="none" stroke="#000000" stroke-dasharray="16,0" x1="74.88" y1="149.76" x2="79.348" y2="149.76"/>
<line fill="none" stroke="#000000" stroke-dasharray="16,0" x1="74.88" y1="91.08" x2="79.348" y2="91.08"/>
<line fill="none" stroke="#000000" stroke-dasharray="16,0" x1="74.88" y1="32.4" x2="79.348" y2="32.4"/>
<text transform="matrix(1 0 0 1 55.4224 389.4805)" font-family="'ArialMT'" font-size="10">-80</text>
<text transform="matrix(1 0 0 1 55.4224 330.7998)" font-family="'ArialMT'" font-size="10">-60</text>
<text transform="matrix(1 0 0 1 55.4224 272.1201)" font-family="'ArialMT'" font-size="10">-40</text>
<text transform="matrix(1 0 0 1 55.4224 213.4404)" font-family="'ArialMT'" font-size="10">-20</text>
<text transform="matrix(1 0 0 1 64.314 154.7598)" font-family="'ArialMT'" font-size="10">0</text>
<text transform="matrix(1 0 0 1 58.7524 96.0801)" font-family="'ArialMT'" font-size="10">20</text>
<text transform="matrix(1 0 0 1 58.7524 37.4004)" font-family="'ArialMT'" font-size="10">40</text>
<text transform="matrix(1 0 0 1 230.1777 417.4805)" font-family="'ArialMT'" font-size="14">frequency [Hz]</text>
<text transform="matrix(6.123234e-017 -1 1 6.123234e-017 46.8755 258.9902)" font-family="'ArialMT'" font-size="14">20log| H(t)|</text>
<line opacity="0.4" fill="none" stroke="#000000" stroke-dasharray="0,4,4,4,4,0" enable-background="new    " x1="74.88" y1="149.76" x2="300.734" y2="149.76"/>
<polyline fill="none" stroke="#0000FF" stroke-width="3" points="74.88,149.76 77.123,149.76 79.366,149.76 81.61,149.76 
	83.853,149.76 86.096,149.76 88.339,149.76 90.583,149.76 92.826,149.761 95.069,149.761 97.312,149.761 99.556,149.761 
	101.799,149.761 104.042,149.761 106.285,149.761 108.528,149.761 110.771,149.761 113.015,149.762 115.258,149.762 
	117.501,149.762 119.744,149.762 121.988,149.763 124.231,149.763 126.474,149.763 128.717,149.764 130.96,149.764 133.204,149.764 
	135.447,149.765 137.69,149.766 139.933,149.766 142.176,149.767 144.42,149.768 146.663,149.769 148.906,149.77 151.149,149.771 
	153.393,149.773 155.636,149.774 157.879,149.776 160.122,149.778 162.365,149.78 164.609,149.783 166.852,149.786 169.095,149.789 
	171.338,149.792 173.582,149.796 175.825,149.801 178.068,149.806 180.311,149.811 182.554,149.817 184.798,149.824 
	187.041,149.832 189.284,149.841 191.527,149.851 193.77,149.862 196.014,149.875 198.257,149.889 200.5,149.904 202.743,149.922 
	204.987,149.942 207.23,149.964 209.473,149.989 211.716,150.017 213.959,150.048 216.203,150.084 218.446,150.123 220.689,150.167 
	222.932,150.217 225.175,150.272 227.419,150.334 229.662,150.404 231.905,150.482 234.148,150.569 236.392,150.666 
	238.635,150.775 240.878,150.897 243.121,151.033 245.364,151.185 247.608,151.354 249.851,151.543 252.094,151.753 
	254.337,151.987 256.581,152.248 258.824,152.537 261.067,152.858 263.31,153.213 265.553,153.606 267.797,154.04 270.04,154.519 
	272.283,155.046 274.526,155.625 276.769,156.26 279.013,156.954 281.256,157.711 283.499,158.536 285.742,159.43 287.986,160.399 
	290.229,161.444 292.472,162.569 294.715,163.775 296.958,165.064 299.202,166.437 301.445,167.896 303.688,169.44 305.932,171.069 
	308.174,172.781 310.418,174.576 312.661,176.451 314.904,178.403 317.146,180.431 319.391,182.53 321.634,184.697 323.877,186.929 
	326.12,189.222 328.363,191.571 330.607,193.975 332.85,196.427 335.093,198.926 337.336,201.467 339.579,204.047 341.823,206.663 
	344.066,209.311 346.309,211.989 348.552,214.695 350.796,217.425 353.039,220.177 355.282,222.949 357.525,225.74 359.768,228.547 
	362.012,231.369 364.255,234.204 366.498,237.052 368.741,239.91 370.984,242.777 373.229,245.652 375.471,248.537 377.714,251.428 
	379.957,254.326 382.201,257.229 384.443,260.136 386.688,263.048 388.93,265.964 391.173,268.884 393.417,271.807 395.66,274.732 
	397.903,277.66 400.146,280.59 402.39,283.523 404.633,286.457 406.876,289.393 409.119,292.33 411.362,295.268 413.605,298.207 
	415.849,301.148 418.092,304.089 420.335,307.032 422.579,309.975 424.822,312.918 427.064,315.862 429.308,318.807 
	431.551,321.752 433.795,324.697 436.038,327.643 438.281,330.589 440.523,333.536 442.767,336.483 445.011,339.429 
	447.254,342.377 449.497,345.324 451.74,348.271 453.984,351.219 456.227,354.167 458.47,357.114 460.713,360.063 462.956,363.01 
	465.2,365.958 467.443,368.907 469.686,371.855 471.929,374.803 474.172,377.752 476.416,380.7 478.659,383.648 479.561,384.832 "/>
<line opacity="0.4" fill="none" stroke="#000000" stroke-dasharray="0,4,4,4,4,0" enable-background="new    " x1="300.734" y1="384.832" x2="300.734" y2="149.76"/>
<text transform="matrix(1 0 0 1 283 351.0898)" font-family="'ArialMT'" font-size="14">|p| / 2π</text>
<line opacity="0.4" fill="none" stroke="#000000" stroke-dasharray="0,4,4,4,4,0" enable-background="new    " x1="300.734" y1="149.76" x2="479.668" y2="384.832"/>
<text transform="matrix(1 0 0 1 142.3525 22.4004)" font-family="'ArialMT'" font-size="15">Bode Magnitude in dB(f), C=47nF, L=47mH, R=2kΩ</text>
<g>
	<g>
		<line fill="none" stroke="#000000" x1="334.5" y1="413.5" x2="365.416" y2="413.5"/>
		<g>
			<polygon points="362.102,417.59 361.42,416.857 365.031,413.501 361.42,410.145 362.102,409.411 366.5,413.501 			"/>
		</g>
	</g>
</g>
<g>
	<g>
		<line fill="none" stroke="#000000" x1="43.5" y1="184.5" x2="43.5" y2="153.584"/>
		<g>
			<polygon points="47.59,156.898 46.857,157.58 43.501,153.968 40.144,157.58 39.411,156.898 43.501,152.5 			"/>
		</g>
	</g>
</g>
<text transform="matrix(1 0 0 1 69.8799 399.4805)" font-family="'ArialMT'" font-size="10">10</text>
<text transform="matrix(1 0 0 1 155.6284 399.4805)" font-family="'ArialMT'" font-size="10">100</text>
<text transform="matrix(1 0 0 1 248.5 399.4805)" font-family="'ArialMT'" font-size="10">1k</text>
<text transform="matrix(1 0 0 1 334.458 399.4805)" font-family="'ArialMT'" font-size="10">10k</text>
<text transform="matrix(1 0 0 1 420.7383 399.4805)" font-family="'ArialMT'" font-size="10">100k</text>
<text transform="matrix(1 0 0 1 513.0176 399.4805)" font-family="'ArialMT'" font-size="10">1M</text>
</svg>
