<?xml version="1.0" encoding="utf-8"?>
<!-- Generator: Adobe Illustrator 15.0.0, SVG Export Plug-In . SVG Version: 6.00 Build 0)  -->
<!DOCTYPE svg PUBLIC "-//W3C//DTD SVG 1.1//EN" "http://www.w3.org/Graphics/SVG/1.1/DTD/svg11.dtd">
<svg version="1.1" id="Layer_1" xmlns="http://www.w3.org/2000/svg" xmlns:xlink="http://www.w3.org/1999/xlink" x="0px" y="0px"
	 width="420px" height="379px" viewBox="117.25 0 420 379" enable-background="new 117.25 0 420 379" xml:space="preserve">
<title>glps_renderer figure</title>
<desc>Creator: GL2PS 1.3.8, (C) 1999-2012 C. Geuzaine
For: Octave
CreationDate: Thu Jan 07 11:45:17 2016</desc>
<line fill="none" stroke="#0000FF" x1="450.477" y1="47" x2="480.477" y2="47"/>
<line fill="none" stroke="#000000" stroke-dasharray="16,0" x1="529.834" y1="85.43" x2="529.834" y2="36.402"/>
<polyline fill="none" stroke="#000000" stroke-width="1.0901" stroke-dasharray="17.4416,0" points="446.477,85.43 446.477,36.402 
	530.61,36.402 "/>
<line fill="none" stroke="#000000" stroke-width="1.0851" stroke-dasharray="17.361,0" x1="446.477" y1="85.43" x2="529.834" y2="85.43"/>
<line fill="none" stroke="#3F3F3F" x1="389.074" y1="212.273" x2="389.133" y2="208.441"/>
<line fill="none" stroke="#3F3F3F" x1="388.891" y1="216.102" x2="389.074" y2="212.273"/>
<line fill="none" stroke="#3F3F3F" x1="388.59" y1="219.922" x2="388.891" y2="216.102"/>
<line fill="none" stroke="#3F3F3F" x1="388.168" y1="223.73" x2="388.59" y2="219.922"/>
<line fill="none" stroke="#3F3F3F" x1="387.625" y1="227.527" x2="388.168" y2="223.73"/>
<line fill="none" stroke="#3F3F3F" x1="386.961" y1="231.301" x2="387.625" y2="227.527"/>
<polyline fill="none" stroke="#0000FF" stroke-width="3" points="389.137,208.566 389.137,208.57 389.137,208.57 389.137,208.574 
	389.137,208.578 389.137,208.582 389.137,208.586 389.137,208.586 389.137,208.59 389.137,208.594 389.137,208.598 389.137,208.602 
	389.137,208.605 389.137,208.609 389.137,208.613 389.141,208.617 389.141,208.621 389.141,208.625 389.141,208.629 
	389.141,208.633 389.141,208.641 389.141,208.645 389.141,208.648 389.141,208.652 389.141,208.66 389.141,208.664 389.141,208.668 
	389.145,208.676 389.145,208.68 389.145,208.684 389.145,208.691 389.145,208.695 389.145,208.703 389.145,208.711 389.145,208.715 
	389.148,208.723 389.148,208.727 389.148,208.734 389.148,208.742 389.148,208.75 389.148,208.758 389.152,208.762 389.152,208.77 
	389.152,208.777 389.152,208.785 389.152,208.793 389.156,208.805 389.156,208.813 389.156,208.82 389.16,208.828 389.16,208.84 
	389.16,208.848 389.16,208.855 389.164,208.867 389.164,208.875 389.168,208.887 389.168,208.898 389.168,208.906 389.172,208.918 
	389.172,208.93 389.176,208.941 389.176,208.953 389.18,208.965 389.18,208.977 389.184,208.988 389.184,209.004 389.188,209.016 
	389.191,209.031 389.191,209.043 389.195,209.059 389.199,209.07 389.203,209.086 389.203,209.102 389.207,209.117 389.211,209.133 
	389.215,209.148 389.219,209.168 389.223,209.184 389.227,209.199 389.23,209.219 389.234,209.238 389.242,209.254 389.246,209.273 
	389.25,209.293 389.258,209.313 389.262,209.336 389.27,209.355 389.273,209.375 389.281,209.398 389.289,209.422 389.297,209.445 
	389.305,209.469 389.313,209.492 389.32,209.516 389.328,209.543 389.34,209.566 389.348,209.594 389.359,209.621 389.367,209.648 
	389.379,209.676 389.391,209.707 389.402,209.738 389.418,209.766 389.43,209.797 389.445,209.832 389.461,209.863 389.473,209.898 
	389.492,209.93 389.508,209.965 389.523,210.004 389.543,210.039 389.563,210.078 389.582,210.117 389.605,210.156 389.629,210.195 
	389.652,210.238 389.676,210.281 389.699,210.324 389.727,210.371 389.754,210.414 389.785,210.461 389.816,210.512 
	389.848,210.563 389.883,210.613 389.918,210.664 389.957,210.715 389.996,210.77 390.035,210.828 390.078,210.887 390.125,210.945 
	390.172,211.004 390.219,211.066 390.27,211.129 390.324,211.195 390.383,211.262 390.441,211.332 390.504,211.402 390.57,211.473 
	390.637,211.547 390.711,211.625 390.785,211.703 390.863,211.785 390.949,211.867 391.035,211.953 391.125,212.039 
	391.223,212.129 391.32,212.223 391.426,212.316 391.539,212.414 391.652,212.516 391.773,212.617 391.902,212.723 392.035,212.836 
	392.176,212.945 392.324,213.063 392.477,213.184 392.641,213.309 392.809,213.434 392.988,213.566 393.176,213.703 
	393.375,213.844 393.582,213.988 393.801,214.137 394.027,214.293 394.27,214.453 394.52,214.617 394.785,214.789 395.066,214.965 
	395.359,215.152 395.668,215.34 395.992,215.539 396.336,215.746 396.695,215.961 397.074,216.18 397.473,216.414 397.895,216.652 
	398.336,216.902 398.805,217.164 399.297,217.438 399.816,217.723 400.363,218.023 400.941,218.336 401.551,218.66 402.199,219.004 
	402.879,219.367 403.602,219.746 404.363,220.145 405.172,220.563 406.027,221.008 406.934,221.477 407.895,221.973 408.914,222.5 
	409.996,223.059 411.145,223.652 412.367,224.285 413.672,224.961 415.055,225.688 416.535,226.461 418.109,227.293 
	419.793,228.191 421.594,229.16 423.52,230.207 425.586,231.344 427.801,232.582 430.18,233.93 432.742,235.41 435.5,237.035 
	438.477,238.828 441.695,240.813 445.176,243.02 448.953,245.484 453.059,248.25 457.523,251.371 462.391,254.91 467.703,258.953 
	473.52,263.594 474.469,264.395 "/>
<polyline fill="none" stroke="#0000FF" stroke-width="3" points="121.691,267.277 133.445,258.238 144.223,250.793 153.914,244.719 
	162.641,239.715 170.512,235.563 177.621,232.086 184.066,229.152 189.918,226.664 195.242,224.539 200.105,222.711 
	204.555,221.137 208.637,219.77 212.387,218.578 215.84,217.535 219.023,216.617 221.969,215.813 224.699,215.098 227.227,214.465 
	229.578,213.902 231.766,213.398 233.805,212.949 235.707,212.547 237.484,212.188 239.145,211.859 240.699,211.566 
	242.156,211.301 243.523,211.063 244.805,210.844 246.012,210.648 247.148,210.469 248.215,210.305 249.219,210.156 250.168,210.02 
	251.063,209.895 251.906,209.781 252.699,209.68 253.453,209.582 254.164,209.496 254.836,209.414 255.473,209.34 256.078,209.273 
	256.648,209.211 257.188,209.152 257.699,209.102 258.188,209.055 258.648,209.008 259.082,208.965 259.5,208.93 259.891,208.895 
	260.266,208.859 260.621,208.828 260.957,208.801 261.281,208.777 261.586,208.754 261.875,208.73 262.148,208.711 262.41,208.691 
	262.66,208.672 262.898,208.656 263.125,208.641 263.34,208.629 263.543,208.613 263.738,208.602 263.922,208.59 264.098,208.582 
	264.266,208.57 264.426,208.563 264.578,208.555 264.727,208.547 264.863,208.539 264.996,208.531 265.121,208.523 265.242,208.52 
	265.355,208.516 265.465,208.508 265.566,208.504 265.668,208.5 265.762,208.496 265.852,208.492 265.938,208.488 266.02,208.484 
	266.098,208.48 266.172,208.48 266.242,208.477 266.313,208.473 266.375,208.473 266.438,208.469 266.496,208.469 266.551,208.465 
	266.605,208.465 266.656,208.461 266.707,208.461 266.75,208.461 266.797,208.457 266.84,208.457 266.879,208.457 266.918,208.453 
	266.953,208.453 266.988,208.453 267.023,208.453 267.055,208.453 267.086,208.449 267.113,208.449 267.141,208.449 
	267.168,208.449 267.195,208.449 267.219,208.449 267.242,208.445 267.262,208.445 267.285,208.445 267.305,208.445 
	267.324,208.445 267.344,208.445 267.359,208.445 267.375,208.445 267.391,208.445 267.406,208.445 267.422,208.445 
	267.438,208.441 267.449,208.441 267.461,208.441 267.473,208.441 267.484,208.441 267.496,208.441 267.508,208.441 
	267.516,208.441 267.527,208.441 267.535,208.441 267.543,208.441 267.551,208.441 267.559,208.441 267.566,208.441 
	267.574,208.441 267.582,208.441 267.59,208.441 267.594,208.441 267.602,208.441 267.605,208.441 267.613,208.441 267.617,208.441 
	267.621,208.441 267.629,208.441 267.633,208.441 267.637,208.441 267.641,208.441 267.645,208.441 267.648,208.441 
	267.652,208.441 267.656,208.441 267.66,208.441 267.66,208.441 267.664,208.441 267.668,208.441 267.672,208.441 267.672,208.441 
	267.676,208.441 267.68,208.441 267.68,208.441 267.684,208.441 267.684,208.441 267.688,208.441 267.688,208.441 267.691,208.441 
	267.691,208.441 267.695,208.441 267.695,208.441 267.695,208.441 267.699,208.441 267.699,208.441 267.699,208.441 
	267.703,208.441 267.703,208.441 267.703,208.441 267.707,208.441 267.707,208.441 267.707,208.441 267.707,208.441 
	267.711,208.441 267.711,208.441 267.711,208.441 267.711,208.441 267.711,208.441 267.715,208.441 267.715,208.441 
	267.715,208.441 267.715,208.441 267.715,208.441 267.715,208.441 267.719,208.441 267.719,208.441 267.719,208.441 
	267.719,208.441 267.719,208.441 267.719,208.441 267.719,208.441 267.719,208.441 267.719,208.441 267.723,208.441 
	267.723,208.441 267.723,208.441 267.723,208.441 267.723,208.441 267.723,208.441 267.723,208.441 267.723,208.441 
	267.723,208.441 267.723,208.441 267.723,208.441 267.723,208.441 267.723,208.441 267.723,208.441 267.723,208.441 
	267.727,208.441 267.727,208.441 267.727,208.441 267.727,208.441 267.727,208.441 267.727,208.441 267.727,208.441 
	267.727,208.441 267.727,208.441 267.727,208.441 267.727,208.441 267.727,208.441 267.727,208.441 267.727,208.441 
	267.727,208.441 267.727,208.441 267.727,208.441 267.727,208.441 267.727,208.441 267.727,208.441 267.727,208.441 
	267.727,208.441 267.727,208.441 267.727,208.441 267.727,208.441 267.727,208.441 267.727,208.441 267.727,208.441 
	267.727,208.441 267.727,208.441 267.727,208.441 267.727,208.441 267.727,208.441 267.727,208.441 267.727,208.441 
	267.727,208.441 267.727,208.441 267.727,208.441 267.727,208.441 267.727,208.441 267.727,208.441 267.727,208.441 
	267.727,208.441 "/>
<polyline fill="none" stroke="#0000FF" stroke-width="3" stroke-dasharray="4,5,1,6" points="389.137,208.316 389.137,208.313 
	389.137,208.309 389.137,208.305 389.137,208.301 389.137,208.301 389.137,208.297 389.137,208.293 389.137,208.289 
	389.137,208.285 389.137,208.281 389.137,208.277 389.137,208.273 389.137,208.27 389.137,208.266 389.141,208.262 389.141,208.258 
	389.141,208.254 389.141,208.25 389.141,208.246 389.141,208.242 389.141,208.238 389.141,208.23 389.141,208.227 389.141,208.223 
	389.141,208.215 389.141,208.211 389.145,208.207 389.145,208.199 389.145,208.195 389.145,208.188 389.145,208.184 
	389.145,208.176 389.145,208.172 389.145,208.164 389.148,208.16 389.148,208.152 389.148,208.145 389.148,208.137 389.148,208.133 
	389.148,208.125 389.152,208.117 389.152,208.109 389.152,208.102 389.152,208.094 389.152,208.086 389.156,208.078 389.156,208.07 
	389.156,208.059 389.16,208.051 389.16,208.043 389.16,208.031 389.16,208.023 389.164,208.012 389.164,208.004 389.168,207.992 
	389.168,207.984 389.168,207.973 389.172,207.961 389.172,207.949 389.176,207.938 389.176,207.926 389.18,207.914 389.18,207.902 
	389.184,207.891 389.184,207.879 389.188,207.863 389.191,207.852 389.191,207.836 389.195,207.824 389.199,207.809 
	389.203,207.793 389.203,207.777 389.207,207.762 389.211,207.746 389.215,207.73 389.219,207.715 389.223,207.695 389.227,207.68 
	389.23,207.66 389.234,207.645 389.242,207.625 389.246,207.605 389.25,207.586 389.258,207.566 389.262,207.547 389.27,207.523 
	389.273,207.504 389.281,207.48 389.289,207.461 389.297,207.438 389.305,207.414 389.313,207.387 389.32,207.363 389.328,207.34 
	389.34,207.313 389.348,207.285 389.359,207.258 389.367,207.23 389.379,207.203 389.391,207.172 389.402,207.145 389.418,207.113 
	389.43,207.082 389.445,207.051 389.461,207.016 389.473,206.984 389.492,206.949 389.508,206.914 389.523,206.879 389.543,206.84 
	389.563,206.805 389.582,206.766 389.605,206.723 389.629,206.684 389.652,206.641 389.676,206.598 389.699,206.555 
	389.727,206.512 389.754,206.465 389.785,206.418 389.816,206.371 389.848,206.32 389.883,206.27 389.918,206.219 389.957,206.164 
	389.996,206.109 390.035,206.055 390.078,205.996 390.125,205.938 390.172,205.875 390.219,205.813 390.27,205.75 390.324,205.684 
	390.383,205.617 390.441,205.551 390.504,205.48 390.57,205.406 390.637,205.332 390.711,205.254 390.785,205.176 390.863,205.098 
	390.949,205.016 391.035,204.93 391.125,204.84 391.223,204.75 391.32,204.66 391.426,204.563 391.539,204.465 391.652,204.367 
	391.773,204.262 391.902,204.156 392.035,204.047 392.176,203.934 392.324,203.816 392.477,203.695 392.641,203.574 
	392.809,203.445 392.988,203.313 393.176,203.18 393.375,203.039 393.582,202.895 393.801,202.742 394.027,202.59 394.27,202.43 
	394.52,202.262 394.785,202.09 395.066,201.914 395.359,201.73 395.668,201.539 395.992,201.34 396.336,201.137 396.695,200.922 
	397.074,200.699 397.473,200.469 397.895,200.227 398.336,199.977 398.805,199.715 399.297,199.441 399.816,199.156 
	400.363,198.859 400.941,198.547 401.551,198.219 402.199,197.875 402.879,197.516 403.602,197.137 404.363,196.738 
	405.172,196.316 406.027,195.871 406.934,195.402 407.895,194.906 408.914,194.379 409.996,193.82 411.145,193.227 412.367,192.594 
	413.672,191.918 415.055,191.195 416.535,190.418 418.109,189.586 419.793,188.688 421.594,187.723 423.52,186.672 425.586,185.535 
	427.801,184.301 430.18,182.949 432.742,181.473 435.5,179.848 438.477,178.055 441.695,176.07 445.176,173.863 448.953,171.398 
	453.059,168.633 457.523,165.512 462.391,161.969 467.703,157.93 473.52,153.289 474.469,152.484 "/>
<polyline fill="none" stroke="#0000FF" stroke-width="3" stroke-dasharray="4,5,1,6" points="121.691,149.602 133.445,158.645 
	144.223,166.09 153.914,172.16 162.641,177.164 170.512,181.32 177.621,184.797 184.066,187.727 189.918,190.219 195.242,192.344 
	200.105,194.168 204.555,195.746 208.637,197.113 212.387,198.305 215.84,199.348 219.023,200.262 221.969,201.07 224.699,201.781 
	227.227,202.414 229.578,202.977 231.766,203.48 233.805,203.93 235.707,204.332 237.484,204.695 239.145,205.02 240.699,205.313 
	242.156,205.578 243.523,205.816 244.805,206.035 246.012,206.234 247.148,206.414 248.215,206.574 249.219,206.727 
	250.168,206.859 251.063,206.984 251.906,207.098 252.699,207.203 253.453,207.297 254.164,207.387 254.836,207.465 
	255.473,207.539 256.078,207.605 256.648,207.668 257.188,207.727 257.699,207.777 258.188,207.828 258.648,207.871 
	259.082,207.914 259.5,207.953 259.891,207.988 260.266,208.02 260.621,208.051 260.957,208.078 261.281,208.105 261.586,208.129 
	261.875,208.148 262.148,208.172 262.41,208.191 262.66,208.207 262.898,208.223 263.125,208.238 263.34,208.254 263.543,208.266 
	263.738,208.277 263.922,208.289 264.098,208.301 264.266,208.309 264.426,208.32 264.578,208.328 264.727,208.336 264.863,208.344 
	264.996,208.348 265.121,208.355 265.242,208.359 265.355,208.367 265.465,208.371 265.566,208.375 265.668,208.379 
	265.762,208.383 265.852,208.387 265.938,208.391 266.02,208.395 266.098,208.398 266.172,208.402 266.242,208.402 266.313,208.406 
	266.375,208.41 266.438,208.41 266.496,208.414 266.551,208.414 266.605,208.418 266.656,208.418 266.707,208.418 266.75,208.422 
	266.797,208.422 266.84,208.422 266.879,208.426 266.918,208.426 266.953,208.426 266.988,208.426 267.023,208.43 267.055,208.43 
	267.086,208.43 267.113,208.43 267.141,208.43 267.168,208.434 267.195,208.434 267.219,208.434 267.242,208.434 267.262,208.434 
	267.285,208.434 267.305,208.434 267.324,208.434 267.344,208.434 267.359,208.438 267.375,208.438 267.391,208.438 
	267.406,208.438 267.422,208.438 267.438,208.438 267.449,208.438 267.461,208.438 267.473,208.438 267.484,208.438 
	267.496,208.438 267.508,208.438 267.516,208.438 267.527,208.438 267.535,208.438 267.543,208.438 267.551,208.438 
	267.559,208.438 267.566,208.438 267.574,208.438 267.582,208.438 267.59,208.438 267.594,208.438 267.602,208.438 267.605,208.438 
	267.613,208.438 267.617,208.438 267.621,208.438 267.629,208.441 267.633,208.441 267.637,208.441 267.641,208.441 
	267.645,208.441 267.648,208.441 267.652,208.441 267.656,208.441 267.66,208.441 267.66,208.441 267.664,208.441 267.668,208.441 
	267.672,208.441 267.672,208.441 267.676,208.441 267.68,208.441 267.68,208.441 267.684,208.441 267.684,208.441 267.688,208.441 
	267.688,208.441 267.691,208.441 267.691,208.441 267.695,208.441 267.695,208.441 267.695,208.441 267.699,208.441 
	267.699,208.441 267.699,208.441 267.703,208.441 267.703,208.441 267.703,208.441 267.707,208.441 267.707,208.441 
	267.707,208.441 267.707,208.441 267.711,208.441 267.711,208.441 267.711,208.441 267.711,208.441 267.711,208.441 
	267.715,208.441 267.715,208.441 267.715,208.441 267.715,208.441 267.715,208.441 267.715,208.441 267.719,208.441 
	267.719,208.441 267.719,208.441 267.719,208.441 267.719,208.441 267.719,208.441 267.719,208.441 267.719,208.441 
	267.719,208.441 267.723,208.441 267.723,208.441 267.723,208.441 267.723,208.441 267.723,208.441 267.723,208.441 
	267.723,208.441 267.723,208.441 267.723,208.441 267.723,208.441 267.723,208.441 267.723,208.441 267.723,208.441 
	267.723,208.441 267.723,208.441 267.727,208.441 267.727,208.441 267.727,208.441 267.727,208.441 267.727,208.441 
	267.727,208.441 267.727,208.441 267.727,208.441 267.727,208.441 267.727,208.441 267.727,208.441 267.727,208.441 
	267.727,208.441 267.727,208.441 267.727,208.441 267.727,208.441 267.727,208.441 267.727,208.441 267.727,208.441 
	267.727,208.441 267.727,208.441 267.727,208.441 267.727,208.441 267.727,208.441 267.727,208.441 267.727,208.441 
	267.727,208.441 267.727,208.441 267.727,208.441 267.727,208.441 267.727,208.441 267.727,208.441 267.727,208.441 
	267.727,208.441 267.727,208.441 267.727,208.441 267.727,208.441 267.727,208.441 267.727,208.441 267.727,208.441 
	267.727,208.441 267.727,208.441 267.727,208.441 "/>
<polyline fill="none" stroke="#007F00" stroke-width="3" points="389.133,208.906 389.133,208.918 389.133,208.93 389.137,208.941 
	389.137,208.953 389.137,208.965 389.137,208.977 389.137,208.988 389.137,209.004 389.137,209.016 389.137,209.031 
	389.137,209.043 389.137,209.059 389.137,209.07 389.137,209.086 389.137,209.102 389.137,209.117 389.137,209.133 389.137,209.148 
	389.137,209.164 389.137,209.184 389.137,209.199 389.137,209.219 389.137,209.234 389.137,209.254 389.137,209.273 
	389.137,209.293 389.137,209.313 389.137,209.332 389.137,209.355 389.137,209.375 389.137,209.398 389.137,209.418 
	389.137,209.441 389.137,209.465 389.137,209.488 389.137,209.516 389.137,209.539 389.141,209.566 389.141,209.59 389.141,209.617 
	389.141,209.645 389.141,209.672 389.141,209.703 389.141,209.73 389.141,209.762 389.141,209.793 389.141,209.824 389.141,209.855 
	389.141,209.891 389.145,209.922 389.145,209.957 389.145,209.992 389.145,210.031 389.145,210.066 389.145,210.105 
	389.145,210.145 389.145,210.184 389.148,210.223 389.148,210.266 389.148,210.309 389.148,210.352 389.148,210.398 
	389.148,210.441 389.152,210.488 389.152,210.539 389.152,210.586 389.152,210.637 389.152,210.688 389.156,210.742 
	389.156,210.793 389.156,210.848 389.156,210.906 389.16,210.965 389.16,211.023 389.16,211.082 389.164,211.145 389.164,211.207 
	389.164,211.273 389.168,211.34 389.168,211.406 389.172,211.477 389.172,211.547 389.176,211.621 389.176,211.695 389.18,211.77 
	389.18,211.848 389.184,211.93 389.184,212.012 389.188,212.094 389.191,212.18 389.191,212.266 389.195,212.355 389.199,212.449 
	389.199,212.543 389.203,212.637 389.207,212.738 389.211,212.836 389.215,212.941 389.219,213.047 389.223,213.156 
	389.227,213.266 389.23,213.379 389.234,213.496 389.238,213.613 389.246,213.734 389.25,213.859 389.254,213.988 389.262,214.117 
	389.266,214.25 389.273,214.387 389.281,214.527 389.285,214.672 389.293,214.82 389.301,214.969 389.309,215.125 389.316,215.281 
	389.328,215.445 389.336,215.609 389.344,215.777 389.355,215.953 389.363,216.129 389.375,216.313 389.387,216.5 389.398,216.691 
	389.41,216.887 389.426,217.09 389.438,217.293 389.453,217.504 389.465,217.723 389.48,217.945 389.5,218.172 389.516,218.402 
	389.531,218.641 389.551,218.887 389.57,219.137 389.59,219.395 389.613,219.66 389.633,219.93 389.656,220.207 389.68,220.492 
	389.707,220.785 389.734,221.086 389.762,221.391 389.789,221.707 389.82,222.031 389.852,222.363 389.883,222.707 389.918,223.059 
	389.953,223.418 389.988,223.789 390.027,224.168 390.066,224.559 390.109,224.961 390.152,225.371 390.199,225.797 
	390.246,226.234 390.293,226.684 390.348,227.145 390.398,227.621 390.453,228.109 390.512,228.613 390.57,229.129 390.633,229.664 
	390.699,230.215 390.766,230.781 390.832,231.367 390.906,231.973 390.977,232.594 391.055,233.234 391.133,233.898 
	391.215,234.586 391.297,235.293 391.383,236.023 391.473,236.781 391.563,237.563 391.656,238.375 391.75,239.211 391.844,240.082 
	391.941,240.98 392.043,241.914 392.141,242.883 392.242,243.887 392.34,244.934 392.441,246.016 392.539,247.145 392.637,248.316 
	392.73,249.539 392.816,250.809 392.902,252.133 392.98,253.516 393.047,254.957 393.105,256.457 393.152,258.031 393.184,259.672 
	393.199,261.387 393.191,263.18 393.156,265.059 393.094,267.027 393,269.086 392.859,271.246 392.676,273.508 392.438,275.883 
	392.133,278.367 391.754,280.977 391.293,283.715 390.734,286.582 390.059,289.586 389.258,292.73 388.309,296.016 387.188,299.453 
	385.875,303.031 384.344,306.758 382.563,310.621 380.504,314.613 378.133,318.727 375.414,322.934 372.305,327.219 
	368.773,331.539 364.781,335.859 360.293,340.125 355.281,344.273 349.719,348.23 343.598,351.914 336.918,355.234 329.703,358.086 
	321.996,360.371 313.855,361.992 305.371,362.855 296.652,362.883 287.828,362.023 279.047,360.246 270.453,357.559 267.73,356.496 
	262.195,353.996 254.414,349.625 247.227,344.543 240.723,338.863 234.969,332.719 230,326.238 225.824,319.559 222.418,312.793 
	219.754,306.059 217.766,299.445 216.398,293.023 215.582,286.855 215.246,280.98 215.316,275.426 215.738,270.211 216.441,265.332 
	217.383,260.793 218.504,256.582 219.77,252.691 221.145,249.105 222.594,245.801 224.094,242.766 225.625,239.977 227.172,237.418 
	228.711,235.074 230.242,232.93 231.746,230.961 233.223,229.16 234.664,227.508 236.066,225.996 237.426,224.609 238.742,223.34 
	240.012,222.176 241.234,221.105 242.414,220.125 243.547,219.227 244.633,218.398 245.672,217.641 246.672,216.941 
	247.625,216.301 248.539,215.707 249.414,215.164 250.25,214.664 251.051,214.199 251.813,213.773 252.543,213.383 253.238,213.02 
	253.902,212.684 254.535,212.375 255.141,212.09 255.719,211.824 256.27,211.582 256.793,211.355 257.297,211.148 257.773,210.953 
	258.23,210.773 258.664,210.609 259.082,210.453 259.477,210.313 259.855,210.18 260.215,210.059 260.559,209.945 260.887,209.84 
	261.199,209.742 261.496,209.652 261.781,209.566 262.055,209.488 262.313,209.414 262.559,209.348 262.793,209.285 263.02,209.227 
	263.234,209.172 263.438,209.121 263.633,209.074 263.82,209.031 263.996,208.992 264.168,208.953 264.328,208.918 264.484,208.887 
	264.633,208.855 264.773,208.828 264.906,208.801 265.035,208.777 265.156,208.754 265.273,208.73 265.383,208.711 265.492,208.691 
	265.594,208.676 265.688,208.66 265.781,208.645 265.871,208.633 265.953,208.617 266.035,208.605 266.109,208.594 266.184,208.586 
	266.254,208.574 266.32,208.566 266.383,208.559 266.445,208.551 266.504,208.543 266.559,208.535 266.613,208.527 266.664,208.523 
	266.711,208.516 266.758,208.512 266.801,208.508 266.844,208.504 266.883,208.5 266.922,208.496 266.957,208.492 266.992,208.488 
	267.023,208.484 267.059,208.48 267.086,208.477 267.117,208.477 267.145,208.473 267.172,208.473 267.195,208.469 267.219,208.469 
	267.242,208.465 267.266,208.465 267.285,208.461 267.305,208.461 267.324,208.461 267.344,208.457 267.359,208.457 
	267.375,208.457 267.395,208.453 267.406,208.453 267.422,208.453 267.438,208.453 267.449,208.449 267.461,208.449 
	267.473,208.449 267.484,208.449 267.496,208.449 267.508,208.449 267.516,208.449 267.527,208.445 267.535,208.445 
	267.543,208.445 267.551,208.445 267.563,208.445 267.566,208.445 267.574,208.445 267.582,208.445 267.59,208.445 267.594,208.445 
	267.602,208.445 267.605,208.441 267.613,208.441 267.617,208.441 267.621,208.441 267.629,208.441 267.633,208.441 
	267.637,208.441 267.641,208.441 267.645,208.441 267.648,208.441 267.652,208.441 267.656,208.441 267.66,208.441 267.66,208.441 
	267.664,208.441 267.668,208.441 267.672,208.441 267.672,208.441 267.676,208.441 267.68,208.441 267.68,208.441 267.684,208.441 
	267.684,208.441 267.688,208.441 267.688,208.441 267.691,208.441 267.691,208.441 267.695,208.441 267.695,208.441 
	267.695,208.441 267.699,208.441 267.699,208.441 267.699,208.441 267.703,208.441 267.703,208.441 267.703,208.441 
	267.707,208.441 267.707,208.441 267.707,208.441 267.707,208.441 267.711,208.441 267.711,208.441 267.711,208.441 
	267.711,208.441 267.711,208.441 267.715,208.441 267.715,208.441 267.715,208.441 267.715,208.441 267.715,208.441 
	267.715,208.441 267.719,208.441 267.719,208.441 267.719,208.441 267.719,208.441 267.719,208.441 267.719,208.441 
	267.719,208.441 267.719,208.441 267.719,208.441 267.723,208.441 267.723,208.441 267.723,208.441 267.723,208.441 
	267.723,208.441 267.723,208.441 267.723,208.441 267.723,208.441 267.723,208.441 267.723,208.441 267.723,208.441 
	267.723,208.441 267.723,208.441 267.723,208.441 267.723,208.441 267.727,208.441 267.727,208.441 267.727,208.441 
	267.727,208.441 267.727,208.441 267.727,208.441 267.727,208.441 267.727,208.441 267.727,208.441 267.727,208.441 
	267.727,208.441 267.727,208.441 267.727,208.441 267.727,208.441 267.727,208.441 267.727,208.441 267.727,208.441 
	267.727,208.441 267.727,208.441 267.727,208.441 267.727,208.441 267.727,208.441 267.727,208.441 267.727,208.441 
	267.727,208.441 267.727,208.441 267.727,208.441 267.727,208.441 267.727,208.441 267.727,208.441 267.727,208.441 
	267.727,208.441 267.727,208.441 267.727,208.441 267.727,208.441 267.727,208.441 267.727,208.441 267.727,208.441 
	267.727,208.441 267.727,208.441 267.727,208.441 267.727,208.441 267.727,208.441 "/>
<polyline fill="none" stroke="#007F00" stroke-width="3" stroke-dasharray="4,5,1,6" points="389.133,207.973 389.133,207.961 
	389.133,207.949 389.137,207.938 389.137,207.926 389.137,207.914 389.137,207.902 389.137,207.891 389.137,207.879 
	389.137,207.863 389.137,207.852 389.137,207.836 389.137,207.824 389.137,207.809 389.137,207.793 389.137,207.777 
	389.137,207.762 389.137,207.746 389.137,207.73 389.137,207.715 389.137,207.699 389.137,207.68 389.137,207.664 389.137,207.645 
	389.137,207.625 389.137,207.605 389.137,207.586 389.137,207.566 389.137,207.547 389.137,207.527 389.137,207.504 
	389.137,207.484 389.137,207.461 389.137,207.438 389.137,207.414 389.137,207.391 389.137,207.367 389.137,207.34 389.141,207.316 
	389.141,207.289 389.141,207.262 389.141,207.234 389.141,207.207 389.141,207.18 389.141,207.148 389.141,207.117 389.141,207.086 
	389.141,207.055 389.141,207.023 389.141,206.992 389.145,206.957 389.145,206.922 389.145,206.887 389.145,206.852 
	389.145,206.813 389.145,206.773 389.145,206.734 389.145,206.695 389.148,206.656 389.148,206.613 389.148,206.57 389.148,206.527 
	389.148,206.484 389.148,206.438 389.152,206.391 389.152,206.344 389.152,206.293 389.152,206.242 389.152,206.191 
	389.156,206.141 389.156,206.086 389.156,206.031 389.156,205.973 389.16,205.918 389.16,205.859 389.16,205.797 389.164,205.734 
	389.164,205.672 389.164,205.609 389.168,205.543 389.168,205.473 389.172,205.402 389.172,205.332 389.176,205.262 
	389.176,205.188 389.18,205.109 389.18,205.031 389.184,204.953 389.184,204.871 389.188,204.785 389.191,204.699 389.191,204.613 
	389.195,204.523 389.199,204.434 389.199,204.34 389.203,204.242 389.207,204.145 389.211,204.043 389.215,203.938 389.219,203.832 
	389.223,203.727 389.227,203.613 389.23,203.5 389.234,203.387 389.238,203.266 389.246,203.145 389.25,203.02 389.254,202.895 
	389.262,202.762 389.266,202.629 389.273,202.492 389.281,202.352 389.285,202.207 389.293,202.063 389.301,201.91 389.309,201.758 
	389.316,201.598 389.328,201.438 389.336,201.27 389.344,201.102 389.355,200.926 389.363,200.75 389.375,200.566 389.387,200.379 
	389.398,200.188 389.41,199.992 389.426,199.793 389.438,199.586 389.453,199.375 389.465,199.16 389.48,198.938 389.5,198.711 
	389.516,198.477 389.531,198.238 389.551,197.992 389.57,197.742 389.59,197.484 389.613,197.219 389.633,196.949 389.656,196.672 
	389.68,196.387 389.707,196.094 389.734,195.797 389.762,195.488 389.789,195.172 389.82,194.848 389.852,194.516 389.883,194.172 
	389.918,193.824 389.953,193.461 389.988,193.094 390.027,192.711 390.066,192.32 390.109,191.922 390.152,191.508 390.199,191.082 
	390.246,190.648 390.293,190.199 390.348,189.734 390.398,189.262 390.453,188.773 390.512,188.27 390.57,187.75 390.633,187.215 
	390.699,186.664 390.766,186.098 390.832,185.512 390.906,184.91 390.977,184.285 391.055,183.645 391.133,182.98 391.215,182.297 
	391.297,181.59 391.383,180.855 391.473,180.102 391.563,179.316 391.656,178.508 391.75,177.668 391.844,176.801 391.941,175.898 
	392.043,174.965 392.141,173.996 392.242,172.992 392.34,171.949 392.441,170.863 392.539,169.734 392.637,168.563 392.73,167.344 
	392.816,166.07 392.902,164.746 392.98,163.367 393.047,161.926 393.105,160.422 393.152,158.852 393.184,157.211 393.199,155.496 
	393.191,153.699 393.156,151.82 393.094,149.855 393,147.793 392.859,145.637 392.676,143.371 392.438,141 392.133,138.512 
	391.754,135.902 391.293,133.168 390.734,130.301 390.059,127.297 389.258,124.152 388.309,120.863 387.188,117.43 385.875,113.848 
	384.344,110.125 382.563,106.262 380.504,102.266 378.133,98.156 375.414,93.945 372.305,89.664 368.773,85.34 364.781,81.023 
	360.293,76.758 355.281,72.609 349.719,68.648 343.598,64.965 336.918,61.648 329.703,58.793 321.996,56.508 313.855,54.887 
	305.371,54.027 296.652,54 287.828,54.859 279.047,56.633 270.453,59.324 267.73,60.387 262.195,62.887 254.414,67.254 
	247.227,72.336 240.723,78.016 234.969,84.16 230,90.641 225.824,97.324 222.418,104.086 219.754,110.82 217.766,117.434 
	216.398,123.855 215.582,130.023 215.246,135.898 215.316,141.453 215.738,146.672 216.441,151.551 217.383,156.09 218.504,160.297 
	219.77,164.188 221.145,167.777 222.594,171.082 224.094,174.117 225.625,176.902 227.172,179.461 228.711,181.805 230.242,183.953 
	231.746,185.918 233.223,187.723 234.664,189.371 236.066,190.883 237.426,192.27 238.742,193.539 240.012,194.707 241.234,195.773 
	242.414,196.754 243.547,197.652 244.633,198.48 245.672,199.242 246.672,199.938 247.625,200.582 248.539,201.172 249.414,201.715 
	250.25,202.219 251.051,202.68 251.813,203.105 252.543,203.5 253.238,203.859 253.902,204.195 254.535,204.504 255.141,204.789 
	255.719,205.055 256.27,205.297 256.793,205.523 257.297,205.734 257.773,205.926 258.23,206.105 258.664,206.273 259.082,206.426 
	259.477,206.566 259.855,206.699 260.215,206.82 260.559,206.938 260.887,207.043 261.199,207.141 261.496,207.23 261.781,207.313 
	262.055,207.391 262.313,207.465 262.559,207.531 262.793,207.594 263.02,207.652 263.234,207.707 263.438,207.758 263.633,207.805 
	263.82,207.848 263.996,207.891 264.168,207.926 264.328,207.961 264.484,207.996 264.633,208.027 264.773,208.055 264.906,208.082 
	265.035,208.105 265.156,208.129 265.273,208.148 265.383,208.168 265.492,208.188 265.594,208.203 265.688,208.219 
	265.781,208.234 265.871,208.25 265.953,208.262 266.035,208.273 266.109,208.285 266.184,208.297 266.254,208.305 266.32,208.316 
	266.383,208.324 266.445,208.332 266.504,208.34 266.559,208.344 266.613,208.352 266.664,208.359 266.711,208.363 266.758,208.367 
	266.801,208.375 266.844,208.379 266.883,208.383 266.922,208.387 266.957,208.391 266.992,208.395 267.023,208.395 
	267.059,208.398 267.086,208.402 267.117,208.406 267.145,208.406 267.172,208.41 267.195,208.41 267.219,208.414 267.242,208.414 
	267.266,208.418 267.285,208.418 267.305,208.418 267.324,208.422 267.344,208.422 267.359,208.422 267.375,208.426 
	267.395,208.426 267.406,208.426 267.422,208.426 267.438,208.43 267.449,208.43 267.461,208.43 267.473,208.43 267.484,208.43 
	267.496,208.434 267.508,208.434 267.516,208.434 267.527,208.434 267.535,208.434 267.543,208.434 267.551,208.434 
	267.563,208.434 267.566,208.434 267.574,208.438 267.582,208.438 267.59,208.438 267.594,208.438 267.602,208.438 267.605,208.438 
	267.613,208.438 267.617,208.438 267.621,208.438 267.629,208.438 267.633,208.438 267.637,208.438 267.641,208.438 
	267.645,208.438 267.648,208.438 267.652,208.438 267.656,208.438 267.66,208.438 267.66,208.438 267.664,208.438 267.668,208.438 
	267.672,208.438 267.672,208.438 267.676,208.438 267.68,208.438 267.68,208.438 267.684,208.438 267.684,208.438 267.688,208.441 
	267.688,208.441 267.691,208.441 267.691,208.441 267.695,208.441 267.695,208.441 267.695,208.441 267.699,208.441 
	267.699,208.441 267.699,208.441 267.703,208.441 267.703,208.441 267.703,208.441 267.707,208.441 267.707,208.441 
	267.707,208.441 267.707,208.441 267.711,208.441 267.711,208.441 267.711,208.441 267.711,208.441 267.711,208.441 
	267.715,208.441 267.715,208.441 267.715,208.441 267.715,208.441 267.715,208.441 267.715,208.441 267.719,208.441 
	267.719,208.441 267.719,208.441 267.719,208.441 267.719,208.441 267.719,208.441 267.719,208.441 267.719,208.441 
	267.719,208.441 267.723,208.441 267.723,208.441 267.723,208.441 267.723,208.441 267.723,208.441 267.723,208.441 
	267.723,208.441 267.723,208.441 267.723,208.441 267.723,208.441 267.723,208.441 267.723,208.441 267.723,208.441 
	267.723,208.441 267.723,208.441 267.727,208.441 267.727,208.441 267.727,208.441 267.727,208.441 267.727,208.441 
	267.727,208.441 267.727,208.441 267.727,208.441 267.727,208.441 267.727,208.441 267.727,208.441 267.727,208.441 
	267.727,208.441 267.727,208.441 267.727,208.441 267.727,208.441 267.727,208.441 267.727,208.441 267.727,208.441 
	267.727,208.441 267.727,208.441 267.727,208.441 267.727,208.441 267.727,208.441 267.727,208.441 267.727,208.441 
	267.727,208.441 267.727,208.441 267.727,208.441 267.727,208.441 267.727,208.441 267.727,208.441 267.727,208.441 
	267.727,208.441 267.727,208.441 267.727,208.441 267.727,208.441 267.727,208.441 267.727,208.441 267.727,208.441 
	267.727,208.441 267.727,208.441 267.727,208.441 "/>
<polyline fill="none" stroke="#FF0000" stroke-width="3" points="389.129,209.297 389.129,209.316 389.129,209.336 389.129,209.355 
	389.129,209.379 389.129,209.402 389.129,209.422 389.129,209.445 389.129,209.469 389.129,209.492 389.129,209.52 389.129,209.543 
	389.129,209.57 389.129,209.594 389.129,209.621 389.129,209.648 389.125,209.68 389.125,209.707 389.125,209.738 389.125,209.766 
	389.125,209.797 389.125,209.828 389.125,209.863 389.125,209.895 389.125,209.93 389.125,209.965 389.121,210 389.121,210.035 
	389.121,210.074 389.121,210.109 389.121,210.148 389.121,210.191 389.117,210.23 389.117,210.273 389.117,210.316 389.117,210.359 
	389.117,210.402 389.117,210.449 389.113,210.496 389.113,210.543 389.113,210.594 389.113,210.645 389.109,210.695 389.109,210.75 
	389.109,210.801 389.105,210.855 389.105,210.914 389.105,210.973 389.102,211.031 389.102,211.09 389.102,211.152 389.098,211.215 
	389.098,211.281 389.094,211.348 389.094,211.414 389.09,211.484 389.09,211.555 389.086,211.629 389.086,211.703 389.082,211.777 
	389.082,211.855 389.078,211.938 389.074,212.02 389.074,212.102 389.07,212.188 389.066,212.273 389.063,212.363 389.059,212.457 
	389.055,212.551 389.055,212.645 389.051,212.742 389.047,212.844 389.039,212.945 389.035,213.051 389.031,213.16 389.027,213.27 
	389.023,213.383 389.016,213.496 389.012,213.613 389.004,213.734 389,213.859 388.992,213.984 388.984,214.113 388.98,214.246 
	388.973,214.383 388.965,214.523 388.957,214.664 388.949,214.809 388.938,214.957 388.93,215.109 388.922,215.266 388.91,215.426 
	388.898,215.586 388.887,215.754 388.879,215.926 388.863,216.098 388.852,216.277 388.84,216.461 388.824,216.648 388.809,216.84 
	388.797,217.035 388.777,217.234 388.762,217.438 388.746,217.648 388.727,217.863 388.707,218.082 388.688,218.309 
	388.664,218.539 388.645,218.773 388.621,219.016 388.598,219.262 388.57,219.512 388.543,219.77 388.516,220.035 388.488,220.305 
	388.457,220.582 388.426,220.863 388.391,221.152 388.355,221.449 388.32,221.75 388.281,222.063 388.238,222.379 388.195,222.703 
	388.152,223.035 388.105,223.375 388.059,223.723 388.008,224.074 387.953,224.441 387.898,224.813 387.84,225.191 387.777,225.582 
	387.711,225.98 387.645,226.387 387.574,226.805 387.5,227.23 387.422,227.664 387.34,228.109 387.254,228.566 387.168,229.035 
	387.074,229.512 386.977,230 386.871,230.496 386.766,231.008 386.652,231.531 386.535,232.063 386.41,232.609 386.281,233.168 
	386.145,233.738 386,234.32 385.852,234.918 385.695,235.527 385.531,236.152 385.359,236.789 385.18,237.441 384.988,238.109 
	384.789,238.789 384.582,239.484 384.363,240.195 384.137,240.922 383.895,241.664 383.645,242.422 383.379,243.195 
	383.105,243.988 382.813,244.797 382.512,245.621 382.191,246.461 381.855,247.324 381.504,248.199 381.137,249.094 380.75,250.008 
	380.348,250.941 379.922,251.891 379.477,252.859 379.008,253.848 378.516,254.855 378.004,255.879 377.461,256.926 
	376.895,257.988 376.301,259.07 375.676,260.172 375.023,261.289 374.336,262.43 373.613,263.582 372.859,264.758 372.066,265.949 
	371.234,267.156 370.363,268.379 369.445,269.617 368.488,270.871 367.48,272.137 366.426,273.414 365.324,274.703 364.164,276.004 
	362.953,277.309 361.68,278.621 360.352,279.938 358.961,281.254 357.504,282.57 355.98,283.883 354.391,285.188 352.73,286.48 
	350.996,287.762 349.188,289.023 347.305,290.266 345.344,291.477 343.301,292.656 341.18,293.797 338.98,294.895 336.699,295.945 
	334.336,296.938 331.895,297.867 329.375,298.727 326.781,299.512 324.109,300.211 321.371,300.82 318.563,301.328 315.695,301.734 
	312.773,302.023 309.801,302.199 306.789,302.242 303.742,302.16 300.672,301.938 297.59,301.574 294.504,301.063 291.426,300.41 
	288.367,299.605 285.344,298.652 282.363,297.555 279.438,296.309 276.582,294.922 273.809,293.402 271.125,291.75 268.543,289.977 
	267.73,289.375 266.074,288.09 263.727,286.102 261.504,284.02 259.418,281.855 257.473,279.621 255.668,277.332 254.008,274.996 
	252.492,272.625 251.125,270.234 249.902,267.836 248.82,265.434 247.879,263.047 247.066,260.684 246.383,258.348 245.82,256.051 
	245.375,253.797 245.039,251.598 244.801,249.457 244.66,247.379 244.605,245.363 244.629,243.418 244.727,241.539 244.887,239.738 
	245.109,238.008 245.379,236.348 245.699,234.762 246.059,233.25 246.453,231.809 246.875,230.438 247.324,229.137 247.793,227.898 
	248.277,226.727 248.777,225.617 249.285,224.57 249.801,223.578 250.32,222.641 250.844,221.758 251.363,220.926 251.883,220.145 
	252.395,219.406 252.906,218.711 253.406,218.059 253.902,217.445 254.387,216.871 254.863,216.328 255.328,215.82 255.781,215.344 
	256.227,214.898 256.66,214.48 257.078,214.09 257.488,213.723 257.883,213.379 258.27,213.055 258.641,212.754 259,212.473 
	259.352,212.207 259.688,211.961 260.012,211.73 260.328,211.512 260.629,211.309 260.922,211.121 261.203,210.945 261.477,210.777 
	261.734,210.625 261.988,210.48 262.227,210.344 262.461,210.219 262.684,210.102 262.898,209.992 263.105,209.887 263.301,209.793 
	263.492,209.703 263.672,209.617 263.848,209.539 264.016,209.469 264.176,209.398 264.328,209.336 264.477,209.277 
	264.617,209.219 264.754,209.168 264.883,209.121 265.008,209.074 265.129,209.031 265.242,208.992 265.352,208.957 
	265.457,208.922 265.555,208.891 265.652,208.859 265.742,208.832 265.832,208.805 265.914,208.781 265.996,208.758 266.07,208.738 
	266.145,208.719 266.215,208.699 266.281,208.684 266.348,208.664 266.406,208.652 266.465,208.637 266.523,208.625 
	266.578,208.609 266.629,208.602 266.676,208.59 266.723,208.578 266.77,208.57 266.813,208.563 266.852,208.555 266.891,208.547 
	266.93,208.539 266.965,208.531 267,208.527 267.031,208.52 267.063,208.516 267.094,208.508 267.121,208.504 267.148,208.5 
	267.176,208.496 267.199,208.492 267.223,208.488 267.246,208.484 267.266,208.484 267.289,208.48 267.309,208.477 267.328,208.477 
	267.344,208.473 267.363,208.469 267.379,208.469 267.395,208.465 267.41,208.465 267.422,208.465 267.438,208.461 267.449,208.461 
	267.465,208.457 267.477,208.457 267.484,208.457 267.496,208.457 267.508,208.453 267.516,208.453 267.527,208.453 
	267.535,208.453 267.543,208.449 267.555,208.449 267.563,208.449 267.57,208.449 267.574,208.449 267.582,208.449 267.59,208.445 
	267.594,208.445 267.602,208.445 267.605,208.445 267.613,208.445 267.617,208.445 267.621,208.445 267.629,208.445 
	267.633,208.445 267.637,208.445 267.641,208.445 267.645,208.445 267.648,208.441 267.652,208.441 267.656,208.441 267.66,208.441 
	267.66,208.441 267.664,208.441 267.668,208.441 267.672,208.441 267.672,208.441 267.676,208.441 267.68,208.441 267.68,208.441 
	267.684,208.441 267.684,208.441 267.688,208.441 267.688,208.441 267.691,208.441 267.691,208.441 267.695,208.441 
	267.695,208.441 267.695,208.441 267.699,208.441 267.699,208.441 267.699,208.441 267.703,208.441 267.703,208.441 
	267.703,208.441 267.707,208.441 267.707,208.441 267.707,208.441 267.707,208.441 267.711,208.441 267.711,208.441 
	267.711,208.441 267.711,208.441 267.711,208.441 267.715,208.441 267.715,208.441 267.715,208.441 267.715,208.441 
	267.715,208.441 267.715,208.441 267.719,208.441 267.719,208.441 267.719,208.441 267.719,208.441 267.719,208.441 
	267.719,208.441 267.719,208.441 267.719,208.441 267.719,208.441 267.723,208.441 267.723,208.441 267.723,208.441 
	267.723,208.441 267.723,208.441 267.723,208.441 267.723,208.441 267.723,208.441 267.723,208.441 267.723,208.441 
	267.723,208.441 267.723,208.441 267.723,208.441 267.723,208.441 267.723,208.441 267.727,208.441 267.727,208.441 
	267.727,208.441 267.727,208.441 267.727,208.441 267.727,208.441 267.727,208.441 267.727,208.441 267.727,208.441 
	267.727,208.441 267.727,208.441 267.727,208.441 267.727,208.441 267.727,208.441 267.727,208.441 267.727,208.441 
	267.727,208.441 267.727,208.441 267.727,208.441 267.727,208.441 267.727,208.441 267.727,208.441 267.727,208.441 
	267.727,208.441 267.727,208.441 267.727,208.441 267.727,208.441 267.727,208.441 267.727,208.441 267.727,208.441 
	267.727,208.441 267.727,208.441 267.727,208.441 267.727,208.441 267.727,208.441 267.727,208.441 267.727,208.441 
	267.727,208.441 267.727,208.441 267.727,208.441 267.727,208.441 267.727,208.441 267.727,208.441 "/>
<polyline fill="none" stroke="#FF0000" stroke-width="3" stroke-dasharray="4,5,1,6" points="389.129,207.586 389.129,207.563 
	389.129,207.543 389.129,207.523 389.129,207.5 389.129,207.48 389.129,207.457 389.129,207.434 389.129,207.41 389.129,207.387 
	389.129,207.363 389.129,207.336 389.129,207.313 389.129,207.285 389.129,207.258 389.129,207.23 389.125,207.203 389.125,207.172 
	389.125,207.145 389.125,207.113 389.125,207.082 389.125,207.051 389.125,207.02 389.125,206.984 389.125,206.949 389.125,206.918 
	389.121,206.879 389.121,206.844 389.121,206.809 389.121,206.77 389.121,206.73 389.121,206.691 389.117,206.648 389.117,206.609 
	389.117,206.566 389.117,206.52 389.117,206.477 389.117,206.43 389.113,206.383 389.113,206.336 389.113,206.285 389.113,206.234 
	389.109,206.184 389.109,206.133 389.109,206.078 389.105,206.023 389.105,205.965 389.105,205.91 389.102,205.852 389.102,205.789 
	389.102,205.727 389.098,205.664 389.098,205.598 389.094,205.531 389.094,205.465 389.09,205.395 389.09,205.324 389.086,205.254 
	389.086,205.176 389.082,205.102 389.082,205.023 389.078,204.945 389.074,204.863 389.074,204.777 389.07,204.691 389.066,204.605 
	389.063,204.516 389.059,204.426 389.055,204.332 389.055,204.234 389.051,204.137 389.047,204.035 389.039,203.934 
	389.035,203.828 389.031,203.723 389.027,203.609 389.023,203.5 389.016,203.383 389.012,203.266 389.004,203.145 389,203.02 
	388.992,202.895 388.984,202.766 388.98,202.633 388.973,202.496 388.965,202.359 388.957,202.219 388.949,202.07 388.938,201.922 
	388.93,201.77 388.922,201.617 388.91,201.457 388.898,201.293 388.887,201.125 388.879,200.957 388.863,200.781 388.852,200.602 
	388.84,200.422 388.824,200.234 388.809,200.043 388.797,199.848 388.777,199.645 388.762,199.441 388.746,199.23 388.727,199.016 
	388.707,198.797 388.688,198.57 388.664,198.344 388.645,198.105 388.621,197.867 388.598,197.621 388.57,197.367 388.543,197.109 
	388.516,196.848 388.488,196.574 388.457,196.301 388.426,196.016 388.391,195.727 388.355,195.434 388.32,195.129 388.281,194.82 
	388.238,194.504 388.195,194.18 388.152,193.848 388.105,193.508 388.059,193.16 388.008,192.805 387.953,192.441 387.898,192.07 
	387.84,191.688 387.777,191.301 387.711,190.902 387.645,190.492 387.574,190.078 387.5,189.652 387.422,189.215 387.34,188.77 
	387.254,188.313 387.168,187.848 387.074,187.371 386.977,186.883 386.871,186.383 386.766,185.871 386.652,185.352 
	386.535,184.816 386.41,184.27 386.281,183.711 386.145,183.141 386,182.559 385.852,181.961 385.695,181.352 385.531,180.727 
	385.359,180.09 385.18,179.438 384.988,178.773 384.789,178.09 384.582,177.395 384.363,176.684 384.137,175.957 383.895,175.215 
	383.645,174.457 383.379,173.684 383.105,172.895 382.813,172.086 382.512,171.262 382.191,170.418 381.855,169.559 381.504,168.68 
	381.137,167.785 380.75,166.871 380.348,165.938 379.922,164.988 379.477,164.02 379.008,163.031 378.516,162.027 378.004,161 
	377.461,159.957 376.895,158.891 376.301,157.809 375.676,156.711 375.023,155.59 374.336,154.453 373.613,153.297 372.859,152.121 
	372.066,150.934 371.234,149.727 370.363,148.5 369.445,147.262 368.488,146.012 367.48,144.746 366.426,143.465 365.324,142.176 
	364.164,140.879 362.953,139.57 361.68,138.258 360.352,136.945 358.961,135.625 357.504,134.309 355.98,132.996 354.391,131.691 
	352.73,130.398 350.996,129.117 349.188,127.855 347.305,126.617 345.344,125.402 343.301,124.223 341.18,123.082 338.98,121.984 
	336.699,120.938 334.336,119.945 331.895,119.016 329.375,118.152 326.781,117.371 324.109,116.668 321.371,116.063 
	318.563,115.551 315.695,115.148 312.773,114.855 309.801,114.684 306.789,114.637 303.742,114.723 300.672,114.945 297.59,115.309 
	294.504,115.816 291.426,116.473 288.367,117.273 285.344,118.227 282.363,119.328 279.438,120.57 276.582,121.957 273.809,123.48 
	271.125,125.129 268.543,126.902 267.73,127.504 266.074,128.789 263.727,130.777 261.504,132.859 259.418,135.023 257.473,137.258 
	255.668,139.551 254.008,141.887 252.492,144.254 251.125,146.645 249.902,149.047 248.82,151.445 247.879,153.832 247.066,156.199 
	246.383,158.535 245.82,160.832 245.375,163.082 245.039,165.281 244.801,167.422 244.66,169.504 244.605,171.52 244.629,173.465 
	244.727,175.34 244.887,177.145 245.109,178.875 245.379,180.531 245.699,182.117 246.059,183.629 246.453,185.07 246.875,186.441 
	247.324,187.746 247.793,188.98 248.277,190.152 248.777,191.262 249.285,192.313 249.801,193.301 250.32,194.238 250.844,195.121 
	251.363,195.953 251.883,196.738 252.395,197.477 252.906,198.168 253.406,198.82 253.902,199.434 254.387,200.012 254.863,200.551 
	255.328,201.059 255.781,201.535 256.227,201.98 256.66,202.398 257.078,202.793 257.488,203.16 257.883,203.504 258.27,203.824 
	258.641,204.125 259,204.41 259.352,204.672 259.688,204.922 260.012,205.152 260.328,205.367 260.629,205.57 260.922,205.758 
	261.203,205.938 261.477,206.102 261.734,206.254 261.988,206.398 262.227,206.535 262.461,206.66 262.684,206.777 262.898,206.891 
	263.105,206.992 263.301,207.09 263.492,207.176 263.672,207.262 263.848,207.34 264.016,207.414 264.176,207.48 264.328,207.543 
	264.477,207.605 264.617,207.66 264.754,207.711 264.883,207.762 265.008,207.805 265.129,207.848 265.242,207.887 265.352,207.926 
	265.457,207.957 265.555,207.992 265.652,208.02 265.742,208.047 265.832,208.074 265.914,208.098 265.996,208.121 266.07,208.145 
	266.145,208.164 266.215,208.18 266.281,208.199 266.348,208.215 266.406,208.23 266.465,208.242 266.523,208.258 266.578,208.27 
	266.629,208.281 266.676,208.293 266.723,208.301 266.77,208.309 266.813,208.32 266.852,208.328 266.891,208.336 266.93,208.34 
	266.965,208.348 267,208.355 267.031,208.359 267.063,208.367 267.094,208.371 267.121,208.375 267.148,208.379 267.176,208.383 
	267.199,208.387 267.223,208.391 267.246,208.395 267.266,208.398 267.289,208.398 267.309,208.402 267.328,208.406 
	267.344,208.406 267.363,208.41 267.379,208.41 267.395,208.414 267.41,208.414 267.422,208.418 267.438,208.418 267.449,208.422 
	267.465,208.422 267.477,208.422 267.484,208.426 267.496,208.426 267.508,208.426 267.516,208.426 267.527,208.43 267.535,208.43 
	267.543,208.43 267.555,208.43 267.563,208.43 267.57,208.43 267.574,208.434 267.582,208.434 267.59,208.434 267.594,208.434 
	267.602,208.434 267.605,208.434 267.613,208.434 267.617,208.434 267.621,208.434 267.629,208.438 267.633,208.438 
	267.637,208.438 267.641,208.438 267.645,208.438 267.648,208.438 267.652,208.438 267.656,208.438 267.66,208.438 267.66,208.438 
	267.664,208.438 267.668,208.438 267.672,208.438 267.672,208.438 267.676,208.438 267.68,208.438 267.68,208.438 267.684,208.438 
	267.684,208.438 267.688,208.438 267.688,208.438 267.691,208.438 267.691,208.438 267.695,208.438 267.695,208.438 
	267.695,208.438 267.699,208.438 267.699,208.441 267.699,208.441 267.703,208.441 267.703,208.441 267.703,208.441 
	267.707,208.441 267.707,208.441 267.707,208.441 267.707,208.441 267.711,208.441 267.711,208.441 267.711,208.441 
	267.711,208.441 267.711,208.441 267.715,208.441 267.715,208.441 267.715,208.441 267.715,208.441 267.715,208.441 
	267.715,208.441 267.719,208.441 267.719,208.441 267.719,208.441 267.719,208.441 267.719,208.441 267.719,208.441 
	267.719,208.441 267.719,208.441 267.719,208.441 267.723,208.441 267.723,208.441 267.723,208.441 267.723,208.441 
	267.723,208.441 267.723,208.441 267.723,208.441 267.723,208.441 267.723,208.441 267.723,208.441 267.723,208.441 
	267.723,208.441 267.723,208.441 267.723,208.441 267.723,208.441 267.727,208.441 267.727,208.441 267.727,208.441 
	267.727,208.441 267.727,208.441 267.727,208.441 267.727,208.441 267.727,208.441 267.727,208.441 267.727,208.441 
	267.727,208.441 267.727,208.441 267.727,208.441 267.727,208.441 267.727,208.441 267.727,208.441 267.727,208.441 
	267.727,208.441 267.727,208.441 267.727,208.441 267.727,208.441 267.727,208.441 267.727,208.441 267.727,208.441 
	267.727,208.441 267.727,208.441 267.727,208.441 267.727,208.441 267.727,208.441 267.727,208.441 267.727,208.441 
	267.727,208.441 267.727,208.441 267.727,208.441 267.727,208.441 267.727,208.441 267.727,208.441 267.727,208.441 
	267.727,208.441 267.727,208.441 267.727,208.441 267.727,208.441 267.727,208.441 "/>
<line fill="none" stroke="#FF0000" x1="450.477" y1="77.258" x2="480.477" y2="77.258"/>
<line fill="none" stroke="#007F00" x1="450.477" y1="63.669" x2="480.477" y2="63.669"/>
<text transform="matrix(1 0 0 1 484.4766 49.5781)" font-family="'ArialMT'" font-size="10">R=220Ω</text>
<text transform="matrix(1 0 0 1 484.4766 65.9219)" font-family="'ArialMT'" font-size="10">R=820Ω</text>
<text transform="matrix(1 0 0 1 484.4766 82.2617)" font-family="'ArialMT'" font-size="10">R=1.5kΩ</text>
<text transform="matrix(1 0 0 1 154.8491 22.4063)" font-family="'ArialMT'" font-size="15">Nyquist Diagram(ω,R), C=47nF, L=47mH</text>
<line opacity="0.5" fill="none" stroke="#000000" enable-background="new    " x1="207.027" y1="208.439" x2="207.027" y2="204"/>
<line fill="none" stroke="#000000" stroke-width="1.0666" x1="267.73" y1="384.477" x2="267.73" y2="32.402"/>
<line opacity="0.5" fill="none" stroke="#000000" enable-background="new    " x1="328.43" y1="208.439" x2="328.43" y2="204"/>
<line fill="none" stroke="#000000" x1="389.133" y1="208.439" x2="389.133" y2="204"/>
<line opacity="0.5" fill="none" stroke="#000000" enable-background="new    " x1="449.836" y1="208.439" x2="449.836" y2="204"/>
<line fill="none" stroke="#000000" x1="122.043" y1="208.441" x2="474.117" y2="208.441"/>
<g>
	
		<line opacity="0.5" fill="none" stroke="#000000" enable-background="new    " x1="267.389" y1="329.844" x2="271.341" y2="329.844"/>
	
		<line opacity="0.5" fill="none" stroke="#000000" enable-background="new    " x1="267.389" y1="269.141" x2="271.341" y2="269.141"/>
	
		<line opacity="0.5" fill="none" stroke="#000000" enable-background="new    " x1="267.389" y1="147.738" x2="271.341" y2="147.738"/>
	
		<line opacity="0.5" fill="none" stroke="#000000" enable-background="new    " x1="267.389" y1="87.035" x2="271.341" y2="87.035"/>
	
		<line opacity="0.5" fill="none" stroke="#000000" stroke-dasharray="1.6953,0" enable-background="new    " x1="271.341" y1="329.844" x2="271.291" y2="329.844"/>
	
		<line opacity="0.5" fill="none" stroke="#000000" stroke-dasharray="1.6953,0" enable-background="new    " x1="271.341" y1="269.141" x2="271.291" y2="269.141"/>
</g>
<line fill="none" stroke="#000000" stroke-dasharray="16,0" x1="122.043" y1="208.441" x2="126.508" y2="208.441"/>
<line fill="none" stroke="#000000" stroke-dasharray="16,0" x1="474.117" y1="208.441" x2="469.652" y2="208.441"/>
<line fill="none" stroke="#FF0000" x1="389.074" y1="212.273" x2="389.133" y2="208.441"/>
<line fill="none" stroke="#FF0000" x1="388.891" y1="216.102" x2="389.074" y2="212.273"/>
<line fill="none" stroke="#FF0000" x1="388.59" y1="219.922" x2="388.891" y2="216.102"/>
<line fill="none" stroke="#FF0000" x1="388.168" y1="223.73" x2="388.59" y2="219.922"/>
<line fill="none" stroke="#FF0000" x1="387.625" y1="227.527" x2="388.168" y2="223.73"/>
<line fill="none" stroke="#FF0000" x1="386.961" y1="231.301" x2="387.625" y2="227.527"/>
<line fill="none" stroke="#FF0000" x1="386.18" y1="235.055" x2="386.961" y2="231.301"/>
<line fill="none" stroke="#FF0000" x1="385.281" y1="238.781" x2="386.18" y2="235.055"/>
<polyline opacity="0.2" fill="none" stroke="#000000" enable-background="new    " points="389.133,208.441 389.074,204.609 
	388.891,200.777 388.59,196.957 388.168,193.148 387.625,189.355 386.961,185.578 386.18,181.824 385.281,178.098 384.266,174.402 
	383.133,170.742 381.887,167.117 380.523,163.535 379.051,159.996 377.465,156.508 375.77,153.066 373.969,149.684 372.063,146.359 
	370.051,143.098 367.934,139.898 365.723,136.77 363.41,133.711 361.004,130.73 358.504,127.824 355.914,125 353.234,122.258 
	350.473,119.598 347.625,117.031 344.699,114.555 341.699,112.172 338.621,109.887 335.477,107.695 332.262,105.609 
	328.984,103.621 325.645,101.738 322.246,99.965 318.797,98.297 315.293,96.742 311.742,95.293 308.148,93.961 304.516,92.742 
	300.844,91.641 297.141,90.652 293.406,89.781 289.648,89.031 285.867,88.398 282.07,87.887 278.258,87.492 274.434,87.223 
	270.602,87.07 266.77,87.039 262.938,87.129 259.109,87.34 255.293,87.676 251.484,88.125 247.695,88.699 243.926,89.391 
	240.18,90.203 236.461,91.133 232.773,92.176 229.121,93.34 225.508,94.613 221.934,96.004 218.406,97.504 214.93,99.117 
	211.504,100.84 208.137,102.668 204.828,104.602 201.578,106.641 198.398,108.777 195.289,111.016 192.246,113.352 189.285,115.781 
	186.398,118.305 183.594,120.918 180.871,123.617 178.238,126.402 175.691,129.266 173.238,132.211 170.879,135.234 
	168.617,138.328 166.453,141.488 164.391,144.719 162.43,148.016 160.574,151.367 158.824,154.781 157.188,158.246 155.656,161.758 
	154.238,165.32 152.934,168.926 151.742,172.566 150.668,176.246 149.711,179.961 148.871,183.699 148.148,187.465 147.547,191.25 
	147.063,195.051 146.703,198.867 146.461,202.691 146.34,206.523 146.34,210.355 146.461,214.188 146.703,218.012 147.063,221.828 
	147.547,225.633 148.148,229.418 148.871,233.18 149.711,236.922 150.668,240.633 151.742,244.313 152.934,247.957 154.238,251.559 
	155.656,255.121 157.188,258.637 158.824,262.102 160.574,265.512 162.43,268.867 164.391,272.16 166.453,275.391 168.617,278.555 
	170.879,281.648 173.238,284.668 175.691,287.613 178.238,290.48 180.871,293.266 183.594,295.965 186.398,298.574 189.285,301.098 
	192.246,303.527 195.289,305.863 198.398,308.102 201.578,310.242 204.828,312.277 208.137,314.211 211.504,316.043 214.93,317.762 
	218.406,319.375 221.934,320.875 225.508,322.266 229.121,323.543 232.773,324.703 236.461,325.75 240.18,326.68 243.926,327.488 
	247.695,328.18 251.484,328.754 255.293,329.207 259.109,329.539 262.938,329.75 266.77,329.84 270.602,329.813 274.434,329.66 
	278.258,329.387 282.07,328.996 285.867,328.48 289.648,327.848 293.406,327.098 297.141,326.227 300.844,325.242 304.516,324.137 
	308.148,322.918 311.742,321.586 315.293,320.141 318.797,318.582 322.246,316.914 325.645,315.141 328.984,313.258 
	332.262,311.273 335.477,309.184 338.621,306.996 341.699,304.707 344.699,302.324 347.625,299.848 350.473,297.281 
	353.234,294.625 355.914,291.883 358.504,289.059 361.004,286.152 363.41,283.168 365.723,280.109 367.934,276.98 370.051,273.781 
	372.063,270.52 373.969,267.195 375.77,263.813 377.465,260.375 379.051,256.883 380.523,253.348 381.887,249.762 383.133,246.137 
	384.266,242.477 385.281,238.781 "/>
<text transform="matrix(1 0 0 1 391.3525 218.9219)" font-family="'ArialMT'" font-size="10">1</text>
<line opacity="0.5" fill="none" stroke="#000000" stroke-width="0.8292" stroke-dasharray="1.7708,0" enable-background="new    " x1="267.457" y1="32.402" x2="271.77" y2="32.402"/>
<line opacity="0.5" fill="none" stroke="#000000" stroke-width="0.8188" stroke-dasharray="1.6033,0" enable-background="new    " x1="267.278" y1="384.477" x2="270.813" y2="384.477"/>
<g>
	<text transform="matrix(-4.371139e-008 -1 1 -4.371139e-008 245.5264 79.7749)" font-family="'STIX-Regular'" font-size="12">ℑ</text>
	<text transform="matrix(-4.371139e-008 -1 1 -4.371139e-008 245.5264 69.4292)" font-family="'STIX-Regular'" font-size="12">{</text>
	<text transform="matrix(-4.371139e-008 -1 1 -4.371139e-008 245.5264 63.6694)" font-family="'STIX-Italic'" font-size="12">H(ω)</text>
	<text transform="matrix(-4.371139e-008 -1 1 -4.371139e-008 245.5264 38.7827)" font-family="'STIX-Regular'" font-size="12">}</text>
	<g>
		<text transform="matrix(1 0 0 1 419.6602 236.0625)" font-family="'STIX-Regular'" font-size="12">ℜ</text>
		<text transform="matrix(1 0 0 1 430.8193 236.0625)" font-family="'STIX-Regular'" font-size="12">{</text>
		<text transform="matrix(1 0 0 1 436.5791 236.0625)" font-family="'STIX-Italic'" font-size="12">H(ω)</text>
		<text transform="matrix(1 0 0 1 461.4668 236.0625)" font-family="'STIX-Regular'" font-size="12">}</text>
	</g>
	<g>
		<g>
			<line fill="none" stroke="#231F20" stroke-miterlimit="10" x1="419.66" y1="223.08" x2="465.025" y2="223.08"/>
			<g>
				<polygon fill="#231F20" points="461.711,227.17 461.029,226.438 464.641,223.081 461.029,219.725 461.711,218.991 
					466.109,223.081 				"/>
			</g>
		</g>
	</g>
</g>
<g>
	<g>
		<line fill="none" stroke="#231F20" stroke-miterlimit="10" x1="252.667" y1="80.775" x2="252.667" y2="33.486"/>
		<g>
			<polygon fill="#231F20" points="256.756,36.8 256.023,37.482 252.667,33.87 249.311,37.482 248.578,36.8 252.667,32.402 			"/>
		</g>
	</g>
</g>
<line opacity="0.2" fill="none" stroke="#000000" enable-background="new    " x1="389.074" y1="212.273" x2="389.133" y2="208.441"/>
<line fill="none" stroke="#FF0000" x1="388.168" y1="223.73" x2="388.59" y2="219.922"/>
<line fill="none" stroke="#FF0000" x1="387.625" y1="227.527" x2="388.168" y2="223.73"/>
<line opacity="0.2" fill="none" stroke="#000000" enable-background="new    " x1="386.961" y1="231.301" x2="387.625" y2="227.527"/>
<line opacity="0.2" fill="none" stroke="#000000" enable-background="new    " x1="386.18" y1="235.055" x2="386.961" y2="231.301"/>
<line opacity="0.2" fill="none" stroke="#000000" enable-background="new    " x1="385.281" y1="238.781" x2="386.18" y2="235.055"/>
<line fill="none" stroke="#FF0000" x1="388.168" y1="223.73" x2="388.59" y2="219.922"/>
<line fill="none" stroke="#FF0000" x1="387.625" y1="227.527" x2="388.168" y2="223.73"/>
<line opacity="0.1" fill="none" stroke="#000000" enable-background="new    " x1="388.891" y1="216.102" x2="389.074" y2="212.273"/>
<line opacity="0.1" fill="none" stroke="#000000" enable-background="new    " x1="388.59" y1="219.922" x2="388.891" y2="216.102"/>
<line opacity="0.1" fill="none" stroke="#000000" enable-background="new    " x1="388.168" y1="223.73" x2="388.59" y2="219.922"/>
<line opacity="0.1" fill="none" stroke="#000000" enable-background="new    " x1="387.625" y1="227.527" x2="388.168" y2="223.73"/>
<line opacity="0.1" fill="none" stroke="#000000" enable-background="new    " x1="388.891" y1="216.102" x2="389.074" y2="212.273"/>
<line opacity="0.1" fill="none" stroke="#000000" enable-background="new    " x1="388.59" y1="219.922" x2="388.891" y2="216.102"/>
<line opacity="0.1" fill="none" stroke="#000000" enable-background="new    " x1="388.168" y1="223.73" x2="388.59" y2="219.922"/>
<line opacity="0.1" fill="none" stroke="#000000" enable-background="new    " x1="387.625" y1="227.527" x2="388.168" y2="223.73"/>
<text transform="matrix(1 0 0 1 259.4814 91.0391)" opacity="0.5" enable-background="new    " font-family="'ArialMT'" font-size="10">1</text>
<text transform="matrix(1 0 0 1 251.1416 151.7422)" opacity="0.5" enable-background="new    " font-family="'ArialMT'" font-size="10">0.5</text>
<text transform="matrix(1 0 0 1 247.8115 273.1445)" opacity="0.5" enable-background="new    " font-family="'ArialMT'" font-size="10">-0.5</text>
<text transform="matrix(1 0 0 1 256.1514 333.8477)" opacity="0.5" enable-background="new    " font-family="'ArialMT'" font-size="10">-1</text>
<text transform="matrix(1 0 0 1 442.8848 219.9219)" opacity="0.5" enable-background="new    " font-family="'ArialMT'" font-size="10">1.5</text>
<text transform="matrix(1 0 0 1 321.4795 219.9219)" opacity="0.5" enable-background="new    " font-family="'ArialMT'" font-size="10">0.5</text>
<text transform="matrix(1 0 0 1 198.4111 219.9219)" opacity="0.5" enable-background="new    " font-family="'ArialMT'" font-size="10">-0.5</text>
<text transform="matrix(1 0 0 1 139.8779 217.9219)" opacity="0.5" enable-background="new    " font-family="'ArialMT'" font-size="10">-1</text>
<text transform="matrix(1 0 0 1 391.3525 218.9219)" opacity="0.5" enable-background="new    " font-family="'ArialMT'" font-size="10">1</text>
<text transform="matrix(1 0 0 1 391.3525 218.9219)" opacity="0.5" fill="none" stroke="#000000" stroke-miterlimit="10" enable-background="new    " font-family="'ArialMT'" font-size="10">1</text>
<g>
	<g>
		<line fill="none" x1="377.482" y1="257.087" x2="374.936" y2="261.792"/>
		<g>
			<polygon fill="#FF0000" points="370.898,252.068 372.835,251.568 375.298,261.116 384.643,257.962 385.281,259.859 
				373.898,263.699 			"/>
		</g>
	</g>
</g>
<g>
	<g>
		<line fill="none" stroke="#0000FF" stroke-width="2" x1="447.232" y1="244.126" x2="451.432" y2="247.441"/>
		<g>
			<polygon fill="#0000FF" points="441.161,249.753 440.999,247.759 450.828,246.969 449.321,237.223 451.299,236.918 
				453.133,248.789 			"/>
		</g>
	</g>
</g>
<g>
	<g>
		<line fill="none" x1="392.709" y1="267.279" x2="392.218" y2="272.607"/>
		<g>
			<polygon fill="#007F00" points="384.682,265.258 386.266,264.034 392.285,271.843 399.636,265.266 400.969,266.759 
				392.016,274.768 			"/>
		</g>
	</g>
</g>
<circle opacity="0.5" fill="#FF0000" stroke="#FF0000" stroke-width="2" enable-background="new    " cx="146.505" cy="208.311" r="1.891"/>
</svg>
