<?xml version="1.0" encoding="utf-8"?>
<!-- Generator: Adobe Illustrator 15.0.0, SVG Export Plug-In . SVG Version: 6.00 Build 0)  -->
<!DOCTYPE svg PUBLIC "-//W3C//DTD SVG 1.1//EN" "http://www.w3.org/Graphics/SVG/1.1/DTD/svg11.dtd">
<svg version="1.1" id="Layer_1" xmlns="http://www.w3.org/2000/svg" xmlns:xlink="http://www.w3.org/1999/xlink" x="0px" y="0px"
	 width="861.086px" height="741.074px" viewBox="-1034.354 -681.003 861.086 741.074"
	 enable-background="new -1034.354 -681.003 861.086 741.074" xml:space="preserve">
<g>
	<g>
		<defs>
			<rect id="SVGID_1_" x="-1014.568" y="-844.656" width="2321.281" height="1881.602"/>
		</defs>
		<clipPath id="SVGID_2_">
			<use xlink:href="#SVGID_1_"  overflow="visible"/>
		</clipPath>
		
			<line clip-path="url(#SVGID_2_)" fill="none" stroke="#FFFFFF" stroke-width="0.48" stroke-linecap="square" stroke-linejoin="bevel" stroke-miterlimit="10" x1="-1014.568" y1="-844.656" x2="1306.713" y2="1036.945"/>
	</g>
	<g>
		<defs>
			<rect id="SVGID_3_" x="-1014.568" y="-844.656" width="2321.281" height="1881.602"/>
		</defs>
		<clipPath id="SVGID_4_">
			<use xlink:href="#SVGID_3_"  overflow="visible"/>
		</clipPath>
		
			<line clip-path="url(#SVGID_4_)" fill="none" stroke="#FFFFFF" stroke-width="0.48" stroke-linecap="square" stroke-linejoin="bevel" stroke-miterlimit="10" x1="1306.713" y1="-844.656" x2="-1014.568" y2="1036.945"/>
	</g>
</g>
<text transform="matrix(1 0 0 1 -781.752 -220.6563)" fill="#505050" font-family="'Tahoma'" font-size="56.64">10</text>
<text transform="matrix(1 0 0 1 -720.248 -220.6563)" fill="#505050" font-family="'Tahoma'" font-size="56.64">k</text>
<text transform="matrix(4.371139e-008 -1 1 4.371139e-008 -444.3232 -416.4971)" fill="#505050" font-family="'Tahoma'" font-size="56.64">1</text>
<text transform="matrix(4.371139e-008 -1 1 4.371139e-008 -444.3232 -447.2471)" fill="#505050" font-family="'Tahoma'" font-size="56.64">k</text>
<text transform="matrix(1 0 0 1 -576.791 44.3125)" fill="#505050" font-family="'Tahoma'" font-size="56.64">GN</text>
<text transform="matrix(1 0 0 1 -501.0723 44.3125)" fill="#505050" font-family="'Tahoma'" font-size="56.64">D</text>
<text transform="matrix(1 0 0 1 -576.7988 -618.0938)" fill="#505050" font-family="'Tahoma'" font-size="56.64">+5V</text>
<text transform="matrix(1 0 0 1 312.1582 -393.4531)" fill="#505050" font-family="'Tahoma'" font-size="56.64">10</text>
<text transform="matrix(1 0 0 1 373.6621 -393.4531)" fill="#505050" font-family="'Tahoma'" font-size="56.64">k</text>
<text transform="matrix(4.371139e-008 -1 1 4.371139e-008 764.8018 -589.2939)" fill="#505050" font-family="'Tahoma'" font-size="56.64">1</text>
<text transform="matrix(4.371139e-008 -1 1 4.371139e-008 764.8018 -620.0439)" fill="#505050" font-family="'Tahoma'" font-size="56.64">k</text>
<text transform="matrix(1 0 0 1 517.1113 44.3047)" fill="#505050" font-family="'Tahoma'" font-size="56.64">GN</text>
<text transform="matrix(1 0 0 1 592.8379 44.3047)" fill="#505050" font-family="'Tahoma'" font-size="56.64">D</text>
<text transform="matrix(1 0 0 1 632.3145 -790.8984)" fill="#505050" font-family="'Tahoma'" font-size="56.64">+5V</text>
<text transform="matrix(1 0 0 1 312.1582 -220.6563)" fill="#505050" font-family="'Tahoma'" font-size="56.64">10</text>
<text transform="matrix(1 0 0 1 373.6621 -220.6563)" fill="#505050" font-family="'Tahoma'" font-size="56.64">k</text>
<text transform="matrix(1 0 0 1 -461.5957 -128.5)" fill="#505050" font-family="'Tahoma'" font-size="56.64">2</text>
<text transform="matrix(1 0 0 1 -430.8418 -128.5)" fill="#505050" font-family="'Tahoma'" font-size="56.64">N</text>
<text transform="matrix(1 0 0 1 -392.9785 -128.5)" fill="#505050" font-family="'Tahoma'" font-size="56.64">390</text>
<text transform="matrix(1 0 0 1 -300.7324 -128.5)" fill="#505050" font-family="'Tahoma'" font-size="56.64">4</text>
<text transform="matrix(1 0 0 1 603.5176 -301.2969)" fill="#505050" font-family="'Tahoma'" font-size="56.64">2</text>
<text transform="matrix(1 0 0 1 634.2676 -301.2969)" fill="#505050" font-family="'Tahoma'" font-size="56.64">N</text>
<text transform="matrix(1 0 0 1 672.1348 -301.2969)" fill="#505050" font-family="'Tahoma'" font-size="56.64">390</text>
<text transform="matrix(1 0 0 1 764.3809 -301.2969)" fill="#505050" font-family="'Tahoma'" font-size="56.64">4</text>
<text transform="matrix(1 0 0 1 833.9238 -128.5)" fill="#505050" font-family="'Tahoma'" font-size="56.64">2</text>
<text transform="matrix(1 0 0 1 864.6738 -128.5)" fill="#505050" font-family="'Tahoma'" font-size="56.64">N</text>
<text transform="matrix(1 0 0 1 902.5332 -128.5)" fill="#505050" font-family="'Tahoma'" font-size="56.64">390</text>
<text transform="matrix(1 0 0 1 994.7793 -128.5)" fill="#505050" font-family="'Tahoma'" font-size="56.64">4</text>
<text transform="matrix(1 0 0 1 747.5332 44.2969)" fill="#505050" font-family="'Tahoma'" font-size="56.64">GN</text>
<text transform="matrix(1 0 0 1 823.2598 44.2969)" fill="#505050" font-family="'Tahoma'" font-size="56.64">D</text>
<text transform="matrix(1 0 0 1 -537.9121 893.4141)" fill="#505050" font-family="'Tahoma'" font-size="56.64">1</text>
<text transform="matrix(1 0 0 1 -507.1621 893.4141)" fill="#505050" font-family="'Tahoma'" font-size="56.64">N</text>
<text transform="matrix(1 0 0 1 -469.3027 893.4141)" fill="#505050" font-family="'Tahoma'" font-size="56.64">414</text>
<text transform="matrix(1 0 0 1 -377.0566 893.4141)" fill="#505050" font-family="'Tahoma'" font-size="56.64">8</text>
<text transform="matrix(1 0 0 1 -749.584 732.1328)" fill="#505050" font-family="'Tahoma'" font-size="56.64">1</text>
<text transform="matrix(1 0 0 1 -718.834 732.1328)" fill="#505050" font-family="'Tahoma'" font-size="56.64">N</text>
<text transform="matrix(1 0 0 1 -680.9746 732.1328)" fill="#505050" font-family="'Tahoma'" font-size="56.64">414</text>
<text transform="matrix(1 0 0 1 -588.7285 732.1328)" fill="#505050" font-family="'Tahoma'" font-size="56.64">8</text>
<text transform="matrix(4.371139e-008 -1 1 4.371139e-008 -156.3232 562.2217)" fill="#505050" font-family="'Tahoma'" font-size="56.64">1</text>
<text transform="matrix(4.371139e-008 -1 1 4.371139e-008 -156.3232 531.4717)" fill="#505050" font-family="'Tahoma'" font-size="56.64">k</text>
<text transform="matrix(1 0 0 1 -288.8027 1022.5469)" fill="#505050" font-family="'Tahoma'" font-size="56.64">GN</text>
<text transform="matrix(1 0 0 1 -213.0762 1022.5469)" fill="#505050" font-family="'Tahoma'" font-size="56.64">D</text>
<text transform="matrix(1 0 0 1 -288.7949 360.625)" fill="#505050" font-family="'Tahoma'" font-size="56.64">+5V</text>
<text transform="matrix(1 0 0 1 -173.5996 850.2266)" fill="#505050" font-family="'Tahoma'" font-size="56.64">2</text>
<text transform="matrix(1 0 0 1 -142.8457 850.2266)" fill="#505050" font-family="'Tahoma'" font-size="56.64">N</text>
<text transform="matrix(1 0 0 1 -104.9902 850.2266)" fill="#505050" font-family="'Tahoma'" font-size="56.64">390</text>
<text transform="matrix(1 0 0 1 -12.7441 850.2266)" fill="#505050" font-family="'Tahoma'" font-size="56.64">4</text>
<text transform="matrix(4.371139e-008 -1 1 4.371139e-008 -444.3232 562.2217)" fill="#505050" font-family="'Tahoma'" font-size="56.64">4</text>
<text transform="matrix(4.371139e-008 -1 1 4.371139e-008 -444.3232 531.4717)" fill="#505050" font-family="'Tahoma'" font-size="56.64">k</text>
<text transform="matrix(4.371139e-008 -1 1 4.371139e-008 -444.3232 503.2061)" fill="#505050" font-family="'Tahoma'" font-size="56.64">7</text>
<text transform="matrix(1 0 0 1 -576.8027 360.625)" fill="#505050" font-family="'Tahoma'" font-size="56.64">+5V</text>
<text transform="matrix(4.371139e-008 -1 1 4.371139e-008 1109.9189 562.2217)" fill="#505050" font-family="'Tahoma'" font-size="56.64">1</text>
<text transform="matrix(4.371139e-008 -1 1 4.371139e-008 1109.9189 531.4717)" fill="#505050" font-family="'Tahoma'" font-size="56.64">k</text>
<text transform="matrix(1 0 0 1 977.916 1022.5469)" fill="#505050" font-family="'Tahoma'" font-size="56.64">GN</text>
<text transform="matrix(1 0 0 1 1053.6426 1022.5469)" fill="#505050" font-family="'Tahoma'" font-size="56.64">D</text>
<text transform="matrix(1 0 0 1 977.9238 360.625)" fill="#505050" font-family="'Tahoma'" font-size="56.64">+5V</text>
<text transform="matrix(1 0 0 1 1092.6348 850.2266)" fill="#505050" font-family="'Tahoma'" font-size="56.64">2</text>
<text transform="matrix(1 0 0 1 1123.3887 850.2266)" fill="#505050" font-family="'Tahoma'" font-size="56.64">N</text>
<text transform="matrix(1 0 0 1 1161.2441 850.2266)" fill="#505050" font-family="'Tahoma'" font-size="56.64">390</text>
<text transform="matrix(1 0 0 1 1253.4902 850.2266)" fill="#505050" font-family="'Tahoma'" font-size="56.64">4</text>
<text transform="matrix(4.371139e-008 -1 1 4.371139e-008 822.4033 562.2217)" fill="#505050" font-family="'Tahoma'" font-size="56.64">4</text>
<text transform="matrix(4.371139e-008 -1 1 4.371139e-008 822.4033 531.4717)" fill="#505050" font-family="'Tahoma'" font-size="56.64">k</text>
<text transform="matrix(4.371139e-008 -1 1 4.371139e-008 822.4033 503.2061)" fill="#505050" font-family="'Tahoma'" font-size="56.64">7</text>
<text transform="matrix(1 0 0 1 689.916 360.625)" fill="#505050" font-family="'Tahoma'" font-size="56.64">+5V</text>
<text transform="matrix(1 0 0 1 661.1113 879.0156)" fill="#505050" font-family="'Tahoma'" font-size="56.64">2</text>
<text transform="matrix(1 0 0 1 691.8613 879.0156)" fill="#505050" font-family="'Tahoma'" font-size="56.64">N</text>
<text transform="matrix(1 0 0 1 729.7207 879.0156)" fill="#505050" font-family="'Tahoma'" font-size="56.64">390</text>
<text transform="matrix(1 0 0 1 821.9668 879.0156)" fill="#505050" font-family="'Tahoma'" font-size="56.64">4</text>
<line fill="none" stroke="#800000" stroke-width="5.76" stroke-linecap="round" stroke-linejoin="round" stroke-miterlimit="10" x1="-692.002" y1="-206.25" x2="-807.209" y2="-206.25"/>
<line fill="none" stroke="#800000" stroke-width="5.76" stroke-linecap="round" stroke-linejoin="round" stroke-miterlimit="10" x1="-807.209" y1="-165.93" x2="-692.002" y2="-165.93"/>
<line fill="none" stroke="#800000" stroke-width="5.76" stroke-linecap="round" stroke-linejoin="round" stroke-miterlimit="10" x1="-807.209" y1="-206.25" x2="-807.209" y2="-165.93"/>
<line fill="none" stroke="#800000" stroke-width="5.76" stroke-linecap="round" stroke-linejoin="round" stroke-miterlimit="10" x1="-692.002" y1="-206.25" x2="-692.002" y2="-165.93"/>
<line fill="none" stroke="#800000" stroke-width="3.84" stroke-linecap="round" stroke-linejoin="round" stroke-miterlimit="10" x1="-864.811" y1="-186.094" x2="-807.209" y2="-186.094"/>
<line fill="none" stroke="#800000" stroke-width="3.84" stroke-linecap="round" stroke-linejoin="round" stroke-miterlimit="10" x1="-634.4" y1="-186.094" x2="-692.002" y2="-186.094"/>
<line fill="none" stroke="#800000" stroke-width="5.76" stroke-linecap="round" stroke-linejoin="round" stroke-miterlimit="10" x1="-499.037" y1="-358.887" x2="-499.037" y2="-474.098"/>
<line fill="none" stroke="#800000" stroke-width="5.76" stroke-linecap="round" stroke-linejoin="round" stroke-miterlimit="10" x1="-539.365" y1="-474.098" x2="-539.365" y2="-358.887"/>
<line fill="none" stroke="#800000" stroke-width="5.76" stroke-linecap="round" stroke-linejoin="round" stroke-miterlimit="10" x1="-499.037" y1="-474.098" x2="-539.365" y2="-474.098"/>
<line fill="none" stroke="#800000" stroke-width="5.76" stroke-linecap="round" stroke-linejoin="round" stroke-miterlimit="10" x1="-499.037" y1="-358.887" x2="-539.365" y2="-358.887"/>
<line fill="none" stroke="#800000" stroke-width="3.84" stroke-linecap="round" stroke-linejoin="round" stroke-miterlimit="10" x1="-519.209" y1="-531.695" x2="-519.209" y2="-474.098"/>
<line fill="none" stroke="#800000" stroke-width="3.84" stroke-linecap="round" stroke-linejoin="round" stroke-miterlimit="10" x1="-519.209" y1="-301.297" x2="-519.209" y2="-358.887"/>
<line fill="none" stroke="#800000" stroke-width="5.76" stroke-linecap="round" stroke-linejoin="round" stroke-miterlimit="10" x1="-562.396" y1="-13.297" x2="-476.006" y2="-13.297"/>
<line fill="none" stroke="#800000" stroke-width="3.84" stroke-linecap="round" stroke-linejoin="round" stroke-miterlimit="10" x1="-519.209" y1="-70.891" x2="-519.209" y2="-13.297"/>
<polyline fill="none" stroke="#800000" stroke-width="5.76" stroke-linecap="round" stroke-linejoin="round" stroke-miterlimit="10" points="
	-490.396,-546.098 -519.209,-589.297 -548.006,-546.098 "/>
<line fill="none" stroke="#800000" stroke-width="3.84" stroke-linecap="round" stroke-linejoin="round" stroke-miterlimit="10" x1="-519.209" y1="-531.695" x2="-519.209" y2="-589.297"/>
<line fill="none" stroke="#800000" stroke-width="5.76" stroke-linecap="round" stroke-linejoin="round" stroke-miterlimit="10" x1="401.916" y1="-379.047" x2="286.713" y2="-379.047"/>
<line fill="none" stroke="#800000" stroke-width="5.76" stroke-linecap="round" stroke-linejoin="round" stroke-miterlimit="10" x1="286.713" y1="-338.727" x2="401.916" y2="-338.727"/>
<line fill="none" stroke="#800000" stroke-width="5.76" stroke-linecap="round" stroke-linejoin="round" stroke-miterlimit="10" x1="286.713" y1="-379.047" x2="286.713" y2="-338.727"/>
<line fill="none" stroke="#800000" stroke-width="5.76" stroke-linecap="round" stroke-linejoin="round" stroke-miterlimit="10" x1="401.916" y1="-379.047" x2="401.916" y2="-338.727"/>
<line fill="none" stroke="#800000" stroke-width="3.84" stroke-linecap="round" stroke-linejoin="round" stroke-miterlimit="10" x1="229.111" y1="-358.887" x2="286.713" y2="-358.887"/>
<line fill="none" stroke="#800000" stroke-width="3.84" stroke-linecap="round" stroke-linejoin="round" stroke-miterlimit="10" x1="459.518" y1="-358.887" x2="401.916" y2="-358.887"/>
<line fill="none" stroke="#800000" stroke-width="5.76" stroke-linecap="round" stroke-linejoin="round" stroke-miterlimit="10" x1="710.072" y1="-531.688" x2="710.072" y2="-646.887"/>
<line fill="none" stroke="#800000" stroke-width="5.76" stroke-linecap="round" stroke-linejoin="round" stroke-miterlimit="10" x1="669.752" y1="-646.887" x2="669.752" y2="-531.688"/>
<line fill="none" stroke="#800000" stroke-width="5.76" stroke-linecap="round" stroke-linejoin="round" stroke-miterlimit="10" x1="710.072" y1="-646.887" x2="669.752" y2="-646.887"/>
<line fill="none" stroke="#800000" stroke-width="5.76" stroke-linecap="round" stroke-linejoin="round" stroke-miterlimit="10" x1="710.072" y1="-531.688" x2="669.752" y2="-531.688"/>
<line fill="none" stroke="#800000" stroke-width="3.84" stroke-linecap="round" stroke-linejoin="round" stroke-miterlimit="10" x1="689.916" y1="-704.488" x2="689.916" y2="-646.887"/>
<line fill="none" stroke="#800000" stroke-width="3.84" stroke-linecap="round" stroke-linejoin="round" stroke-miterlimit="10" x1="689.916" y1="-474.09" x2="689.916" y2="-531.688"/>
<line fill="none" stroke="#800000" stroke-width="5.76" stroke-linecap="round" stroke-linejoin="round" stroke-miterlimit="10" x1="531.518" y1="-13.297" x2="617.916" y2="-13.297"/>
<line fill="none" stroke="#800000" stroke-width="3.84" stroke-linecap="round" stroke-linejoin="round" stroke-miterlimit="10" x1="574.713" y1="-70.891" x2="574.713" y2="-13.297"/>
<polyline fill="none" stroke="#800000" stroke-width="5.76" stroke-linecap="round" stroke-linejoin="round" stroke-miterlimit="10" points="
	718.713,-718.887 689.916,-762.09 661.111,-718.887 "/>
<line fill="none" stroke="#800000" stroke-width="3.84" stroke-linecap="round" stroke-linejoin="round" stroke-miterlimit="10" x1="689.916" y1="-704.488" x2="689.916" y2="-762.09"/>
<line fill="none" stroke="#800000" stroke-width="5.76" stroke-linecap="round" stroke-linejoin="round" stroke-miterlimit="10" x1="401.916" y1="-206.25" x2="286.713" y2="-206.25"/>
<line fill="none" stroke="#800000" stroke-width="5.76" stroke-linecap="round" stroke-linejoin="round" stroke-miterlimit="10" x1="286.713" y1="-165.93" x2="401.916" y2="-165.93"/>
<line fill="none" stroke="#800000" stroke-width="5.76" stroke-linecap="round" stroke-linejoin="round" stroke-miterlimit="10" x1="286.713" y1="-206.25" x2="286.713" y2="-165.93"/>
<line fill="none" stroke="#800000" stroke-width="5.76" stroke-linecap="round" stroke-linejoin="round" stroke-miterlimit="10" x1="401.916" y1="-206.25" x2="401.916" y2="-165.93"/>
<line fill="none" stroke="#800000" stroke-width="3.84" stroke-linecap="round" stroke-linejoin="round" stroke-miterlimit="10" x1="229.111" y1="-186.094" x2="286.713" y2="-186.094"/>
<line fill="none" stroke="#800000" stroke-width="3.84" stroke-linecap="round" stroke-linejoin="round" stroke-miterlimit="10" x1="459.518" y1="-186.094" x2="401.916" y2="-186.094"/>
<line fill="none" stroke="#800000" stroke-width="3.84" stroke-linecap="round" stroke-linejoin="round" stroke-miterlimit="10" x1="-519.209" y1="-243.695" x2="-565.287" y2="-220.656"/>
<polyline fill="none" stroke="#800000" stroke-width="3.84" stroke-linecap="round" stroke-linejoin="round" stroke-miterlimit="10" points="
	-536.49,-151.531 -519.209,-128.484 -548.006,-128.484 -536.49,-151.531 "/>
<line fill="none" stroke="#800000" stroke-width="3.84" stroke-linecap="round" stroke-linejoin="round" stroke-miterlimit="10" x1="-541.771" y1="-140.016" x2="-570.084" y2="-153.938"/>
<polyline fill="none" stroke="#800000" stroke-width="5.76" stroke-linecap="round" stroke-linejoin="round" stroke-miterlimit="10" points="
	-542.248,-131.375 -524.975,-131.375 -536.49,-145.781 -542.248,-134.25 -533.615,-134.25 -536.49,-140.016 "/>
<rect x="-582.568" y="-243.695" fill="#800000" width="17.281" height="115.195"/>
<rect x="-582.568" y="-243.695" fill="none" stroke="#800000" stroke-width="0.48" stroke-linecap="round" stroke-linejoin="round" stroke-miterlimit="10" width="17.281" height="115.195"/>
<path fill="none" stroke="#800000" stroke-width="0.48" stroke-linecap="round" stroke-linejoin="round" stroke-miterlimit="10" d="
	M-582.568-243.695"/>
<line fill="none" stroke="#800000" stroke-width="3.84" stroke-linecap="round" stroke-linejoin="round" stroke-miterlimit="10" x1="-634.4" y1="-186.094" x2="-576.811" y2="-186.094"/>
<line fill="none" stroke="#800000" stroke-width="3.84" stroke-linecap="round" stroke-linejoin="round" stroke-miterlimit="10" x1="-519.209" y1="-70.891" x2="-519.209" y2="-128.484"/>
<line fill="none" stroke="#800000" stroke-width="3.84" stroke-linecap="round" stroke-linejoin="round" stroke-miterlimit="10" x1="-519.209" y1="-301.297" x2="-519.209" y2="-243.695"/>
<line fill="none" stroke="#800000" stroke-width="3.84" stroke-linecap="round" stroke-linejoin="round" stroke-miterlimit="10" x1="574.713" y1="-416.488" x2="528.635" y2="-393.457"/>
<polyline fill="none" stroke="#800000" stroke-width="3.84" stroke-linecap="round" stroke-linejoin="round" stroke-miterlimit="10" points="
	557.432,-324.328 574.713,-301.297 545.916,-301.297 557.432,-324.328 "/>
<line fill="none" stroke="#800000" stroke-width="3.84" stroke-linecap="round" stroke-linejoin="round" stroke-miterlimit="10" x1="552.15" y1="-312.816" x2="523.838" y2="-326.727"/>
<polyline fill="none" stroke="#800000" stroke-width="5.76" stroke-linecap="round" stroke-linejoin="round" stroke-miterlimit="10" points="
	551.666,-304.168 568.963,-304.168 557.432,-318.57 551.666,-307.047 560.322,-307.047 557.432,-312.816 "/>
<rect x="511.354" y="-416.488" fill="#800000" width="17.281" height="115.199"/>
<rect x="511.354" y="-416.488" fill="none" stroke="#800000" stroke-width="0.48" stroke-linecap="round" stroke-linejoin="round" stroke-miterlimit="10" width="17.281" height="115.199"/>
<path fill="none" stroke="#800000" stroke-width="0.48" stroke-linecap="round" stroke-linejoin="round" stroke-miterlimit="10" d="
	M511.354-416.488"/>
<line fill="none" stroke="#800000" stroke-width="3.84" stroke-linecap="round" stroke-linejoin="round" stroke-miterlimit="10" x1="459.518" y1="-358.887" x2="517.111" y2="-358.887"/>
<line fill="none" stroke="#800000" stroke-width="3.84" stroke-linecap="round" stroke-linejoin="round" stroke-miterlimit="10" x1="574.713" y1="-243.688" x2="574.713" y2="-301.297"/>
<line fill="none" stroke="#800000" stroke-width="3.84" stroke-linecap="round" stroke-linejoin="round" stroke-miterlimit="10" x1="574.713" y1="-474.09" x2="574.713" y2="-416.488"/>
<line fill="none" stroke="#800000" stroke-width="3.84" stroke-linecap="round" stroke-linejoin="round" stroke-miterlimit="10" x1="805.111" y1="-243.688" x2="759.025" y2="-220.648"/>
<polyline fill="none" stroke="#800000" stroke-width="3.84" stroke-linecap="round" stroke-linejoin="round" stroke-miterlimit="10" points="
	787.83,-151.531 805.111,-128.484 776.322,-128.484 787.83,-151.531 "/>
<line fill="none" stroke="#800000" stroke-width="3.84" stroke-linecap="round" stroke-linejoin="round" stroke-miterlimit="10" x1="782.072" y1="-140.008" x2="754.236" y2="-153.938"/>
<polyline fill="none" stroke="#800000" stroke-width="5.76" stroke-linecap="round" stroke-linejoin="round" stroke-miterlimit="10" points="
	782.072,-131.367 799.354,-131.367 787.83,-145.781 782.072,-134.25 790.713,-134.25 787.83,-140.008 "/>
<rect x="741.752" y="-243.688" fill="#800000" width="17.273" height="115.203"/>
<rect x="741.752" y="-243.688" fill="none" stroke="#800000" stroke-width="0.48" stroke-linecap="round" stroke-linejoin="round" stroke-miterlimit="10" width="17.273" height="115.203"/>
<path fill="none" stroke="#800000" stroke-width="0.48" stroke-linecap="round" stroke-linejoin="round" stroke-miterlimit="10" d="
	M741.752-243.688"/>
<line fill="none" stroke="#800000" stroke-width="3.84" stroke-linecap="round" stroke-linejoin="round" stroke-miterlimit="10" x1="689.916" y1="-186.094" x2="747.518" y2="-186.094"/>
<line fill="none" stroke="#800000" stroke-width="3.84" stroke-linecap="round" stroke-linejoin="round" stroke-miterlimit="10" x1="805.111" y1="-70.891" x2="805.111" y2="-128.484"/>
<line fill="none" stroke="#800000" stroke-width="3.84" stroke-linecap="round" stroke-linejoin="round" stroke-miterlimit="10" x1="805.111" y1="-301.297" x2="805.111" y2="-243.688"/>
<line fill="none" stroke="#800000" stroke-width="5.76" stroke-linecap="round" stroke-linejoin="round" stroke-miterlimit="10" x1="761.916" y1="-13.297" x2="848.322" y2="-13.297"/>
<line fill="none" stroke="#800000" stroke-width="3.84" stroke-linecap="round" stroke-linejoin="round" stroke-miterlimit="10" x1="805.111" y1="-70.891" x2="805.111" y2="-13.297"/>
<polyline fill="none" stroke="#800000" stroke-width="5.76" stroke-linecap="round" stroke-linejoin="round" stroke-miterlimit="10" points="
	-375.209,763.828 -432.811,792.625 -375.209,821.43 "/>
<line fill="none" stroke="#800000" stroke-width="5.76" stroke-linecap="round" stroke-linejoin="round" stroke-miterlimit="10" x1="-432.811" y1="821.43" x2="-432.811" y2="792.625"/>
<line fill="none" stroke="#800000" stroke-width="5.76" stroke-linecap="round" stroke-linejoin="round" stroke-miterlimit="10" x1="-375.209" y1="821.43" x2="-375.209" y2="763.828"/>
<line fill="none" stroke="#800000" stroke-width="5.76" stroke-linecap="round" stroke-linejoin="round" stroke-miterlimit="10" x1="-432.811" y1="792.625" x2="-432.811" y2="763.828"/>
<line fill="none" stroke="#800000" stroke-width="3.84" stroke-linecap="round" stroke-linejoin="round" stroke-miterlimit="10" x1="-346.396" y1="792.625" x2="-404.006" y2="792.625"/>
<line fill="none" stroke="#800000" stroke-width="3.84" stroke-linecap="round" stroke-linejoin="round" stroke-miterlimit="10" x1="-461.615" y1="792.625" x2="-404.006" y2="792.625"/>
<polyline fill="none" stroke="#800000" stroke-width="5.76" stroke-linecap="round" stroke-linejoin="round" stroke-miterlimit="10" points="
	-663.209,821.43 -605.611,792.625 -663.209,763.828 "/>
<line fill="none" stroke="#800000" stroke-width="5.76" stroke-linecap="round" stroke-linejoin="round" stroke-miterlimit="10" x1="-605.611" y1="763.828" x2="-605.611" y2="792.625"/>
<line fill="none" stroke="#800000" stroke-width="5.76" stroke-linecap="round" stroke-linejoin="round" stroke-miterlimit="10" x1="-663.209" y1="763.828" x2="-663.209" y2="821.43"/>
<line fill="none" stroke="#800000" stroke-width="5.76" stroke-linecap="round" stroke-linejoin="round" stroke-miterlimit="10" x1="-605.611" y1="792.625" x2="-605.611" y2="821.43"/>
<line fill="none" stroke="#800000" stroke-width="3.84" stroke-linecap="round" stroke-linejoin="round" stroke-miterlimit="10" x1="-692.002" y1="792.625" x2="-634.4" y2="792.625"/>
<line fill="none" stroke="#800000" stroke-width="3.84" stroke-linecap="round" stroke-linejoin="round" stroke-miterlimit="10" x1="-576.811" y1="792.625" x2="-634.4" y2="792.625"/>
<line fill="none" stroke="#800000" stroke-width="5.76" stroke-linecap="round" stroke-linejoin="round" stroke-miterlimit="10" x1="-211.037" y1="619.828" x2="-211.037" y2="504.625"/>
<line fill="none" stroke="#800000" stroke-width="5.76" stroke-linecap="round" stroke-linejoin="round" stroke-miterlimit="10" x1="-251.365" y1="504.625" x2="-251.365" y2="619.828"/>
<line fill="none" stroke="#800000" stroke-width="5.76" stroke-linecap="round" stroke-linejoin="round" stroke-miterlimit="10" x1="-211.037" y1="504.625" x2="-251.365" y2="504.625"/>
<line fill="none" stroke="#800000" stroke-width="5.76" stroke-linecap="round" stroke-linejoin="round" stroke-miterlimit="10" x1="-211.037" y1="619.828" x2="-251.365" y2="619.828"/>
<line fill="none" stroke="#800000" stroke-width="3.84" stroke-linecap="round" stroke-linejoin="round" stroke-miterlimit="10" x1="-231.209" y1="447.031" x2="-231.209" y2="504.625"/>
<line fill="none" stroke="#800000" stroke-width="3.84" stroke-linecap="round" stroke-linejoin="round" stroke-miterlimit="10" x1="-231.209" y1="677.43" x2="-231.209" y2="619.828"/>
<line fill="none" stroke="#800000" stroke-width="5.76" stroke-linecap="round" stroke-linejoin="round" stroke-miterlimit="10" x1="-274.396" y1="964.945" x2="-188.006" y2="964.945"/>
<line fill="none" stroke="#800000" stroke-width="3.84" stroke-linecap="round" stroke-linejoin="round" stroke-miterlimit="10" x1="-231.209" y1="907.828" x2="-231.209" y2="964.945"/>
<polyline fill="none" stroke="#800000" stroke-width="5.76" stroke-linecap="round" stroke-linejoin="round" stroke-miterlimit="10" points="
	-202.396,432.625 -231.209,389.43 -260.006,432.625 "/>
<line fill="none" stroke="#800000" stroke-width="3.84" stroke-linecap="round" stroke-linejoin="round" stroke-miterlimit="10" x1="-231.209" y1="447.031" x2="-231.209" y2="389.43"/>
<line fill="none" stroke="#800000" stroke-width="3.84" stroke-linecap="round" stroke-linejoin="round" stroke-miterlimit="10" x1="-231.209" y1="735.031" x2="-277.287" y2="758.07"/>
<polyline fill="none" stroke="#800000" stroke-width="3.84" stroke-linecap="round" stroke-linejoin="round" stroke-miterlimit="10" points="
	-248.49,827.188 -231.209,850.219 -260.006,850.219 -248.49,827.188 "/>
<line fill="none" stroke="#800000" stroke-width="3.84" stroke-linecap="round" stroke-linejoin="round" stroke-miterlimit="10" x1="-254.248" y1="838.711" x2="-282.084" y2="824.797"/>
<polyline fill="none" stroke="#800000" stroke-width="5.76" stroke-linecap="round" stroke-linejoin="round" stroke-miterlimit="10" points="
	-254.248,847.352 -236.975,847.352 -248.49,832.945 -254.248,844.469 -245.615,844.469 -248.49,838.711 "/>
<rect x="-294.568" y="735.031" fill="#800000" width="17.281" height="115.188"/>
<rect x="-294.568" y="735.031" fill="none" stroke="#800000" stroke-width="0.48" stroke-linecap="round" stroke-linejoin="round" stroke-miterlimit="10" width="17.281" height="115.188"/>
<path fill="none" stroke="#800000" stroke-width="0.48" stroke-linecap="round" stroke-linejoin="round" stroke-miterlimit="10" d="
	M-294.568,735.031"/>
<line fill="none" stroke="#800000" stroke-width="3.84" stroke-linecap="round" stroke-linejoin="round" stroke-miterlimit="10" x1="-346.396" y1="792.625" x2="-288.811" y2="792.625"/>
<line fill="none" stroke="#800000" stroke-width="3.84" stroke-linecap="round" stroke-linejoin="round" stroke-miterlimit="10" x1="-231.209" y1="907.828" x2="-231.209" y2="850.219"/>
<line fill="none" stroke="#800000" stroke-width="3.84" stroke-linecap="round" stroke-linejoin="round" stroke-miterlimit="10" x1="-231.209" y1="677.43" x2="-231.209" y2="735.031"/>
<line fill="none" stroke="#800000" stroke-width="5.76" stroke-linecap="round" stroke-linejoin="round" stroke-miterlimit="10" x1="-499.037" y1="619.828" x2="-499.037" y2="504.625"/>
<line fill="none" stroke="#800000" stroke-width="5.76" stroke-linecap="round" stroke-linejoin="round" stroke-miterlimit="10" x1="-539.365" y1="504.625" x2="-539.365" y2="619.828"/>
<line fill="none" stroke="#800000" stroke-width="5.76" stroke-linecap="round" stroke-linejoin="round" stroke-miterlimit="10" x1="-499.037" y1="504.625" x2="-539.365" y2="504.625"/>
<line fill="none" stroke="#800000" stroke-width="5.76" stroke-linecap="round" stroke-linejoin="round" stroke-miterlimit="10" x1="-499.037" y1="619.828" x2="-539.365" y2="619.828"/>
<line fill="none" stroke="#800000" stroke-width="3.84" stroke-linecap="round" stroke-linejoin="round" stroke-miterlimit="10" x1="-519.209" y1="447.031" x2="-519.209" y2="504.625"/>
<line fill="none" stroke="#800000" stroke-width="3.84" stroke-linecap="round" stroke-linejoin="round" stroke-miterlimit="10" x1="-519.209" y1="677.43" x2="-519.209" y2="619.828"/>
<polyline fill="none" stroke="#800000" stroke-width="5.76" stroke-linecap="round" stroke-linejoin="round" stroke-miterlimit="10" points="
	-490.396,432.625 -519.209,389.43 -548.006,432.625 "/>
<line fill="none" stroke="#800000" stroke-width="3.84" stroke-linecap="round" stroke-linejoin="round" stroke-miterlimit="10" x1="-519.209" y1="447.031" x2="-519.209" y2="389.43"/>
<line fill="none" stroke="#800000" stroke-width="5.76" stroke-linecap="round" stroke-linejoin="round" stroke-miterlimit="10" x1="1055.197" y1="619.828" x2="1055.197" y2="504.625"/>
<line fill="none" stroke="#800000" stroke-width="5.76" stroke-linecap="round" stroke-linejoin="round" stroke-miterlimit="10" x1="1014.877" y1="504.625" x2="1014.877" y2="619.828"/>
<line fill="none" stroke="#800000" stroke-width="5.76" stroke-linecap="round" stroke-linejoin="round" stroke-miterlimit="10" x1="1055.197" y1="504.625" x2="1014.877" y2="504.625"/>
<line fill="none" stroke="#800000" stroke-width="5.76" stroke-linecap="round" stroke-linejoin="round" stroke-miterlimit="10" x1="1055.197" y1="619.828" x2="1014.877" y2="619.828"/>
<line fill="none" stroke="#800000" stroke-width="3.84" stroke-linecap="round" stroke-linejoin="round" stroke-miterlimit="10" x1="1035.025" y1="447.031" x2="1035.025" y2="504.625"/>
<line fill="none" stroke="#800000" stroke-width="3.84" stroke-linecap="round" stroke-linejoin="round" stroke-miterlimit="10" x1="1035.025" y1="677.43" x2="1035.025" y2="619.828"/>
<line fill="none" stroke="#800000" stroke-width="5.76" stroke-linecap="round" stroke-linejoin="round" stroke-miterlimit="10" x1="991.838" y1="964.945" x2="1078.236" y2="964.945"/>
<line fill="none" stroke="#800000" stroke-width="3.84" stroke-linecap="round" stroke-linejoin="round" stroke-miterlimit="10" x1="1035.025" y1="907.828" x2="1035.025" y2="964.945"/>
<polyline fill="none" stroke="#800000" stroke-width="5.76" stroke-linecap="round" stroke-linejoin="round" stroke-miterlimit="10" points="
	1063.838,432.625 1035.025,389.43 1006.236,432.625 "/>
<line fill="none" stroke="#800000" stroke-width="3.84" stroke-linecap="round" stroke-linejoin="round" stroke-miterlimit="10" x1="1035.025" y1="447.031" x2="1035.025" y2="389.43"/>
<line fill="none" stroke="#800000" stroke-width="3.84" stroke-linecap="round" stroke-linejoin="round" stroke-miterlimit="10" x1="1035.025" y1="735.031" x2="988.963" y2="758.07"/>
<polyline fill="none" stroke="#800000" stroke-width="3.84" stroke-linecap="round" stroke-linejoin="round" stroke-miterlimit="10" points="
	1017.752,827.188 1035.025,850.219 1006.236,850.219 1017.752,827.188 "/>
<line fill="none" stroke="#800000" stroke-width="3.84" stroke-linecap="round" stroke-linejoin="round" stroke-miterlimit="10" x1="1012.471" y1="838.711" x2="984.635" y2="824.797"/>
<polyline fill="none" stroke="#800000" stroke-width="5.76" stroke-linecap="round" stroke-linejoin="round" stroke-miterlimit="10" points="
	1011.994,847.352 1029.275,847.352 1017.752,832.945 1011.994,844.469 1020.635,844.469 1017.752,838.711 "/>
<rect x="971.666" y="735.031" fill="#800000" width="17.281" height="115.188"/>
<rect x="971.666" y="735.031" fill="none" stroke="#800000" stroke-width="0.48" stroke-linecap="round" stroke-linejoin="round" stroke-miterlimit="10" width="17.281" height="115.188"/>
<path fill="none" stroke="#800000" stroke-width="0.48" stroke-linecap="round" stroke-linejoin="round" stroke-miterlimit="10" d="
	M971.666,735.031"/>
<line fill="none" stroke="#800000" stroke-width="3.84" stroke-linecap="round" stroke-linejoin="round" stroke-miterlimit="10" x1="920.322" y1="792.625" x2="977.432" y2="792.625"/>
<line fill="none" stroke="#800000" stroke-width="3.84" stroke-linecap="round" stroke-linejoin="round" stroke-miterlimit="10" x1="1035.025" y1="907.828" x2="1035.025" y2="850.219"/>
<line fill="none" stroke="#800000" stroke-width="3.84" stroke-linecap="round" stroke-linejoin="round" stroke-miterlimit="10" x1="1035.025" y1="677.43" x2="1035.025" y2="735.031"/>
<line fill="none" stroke="#800000" stroke-width="5.76" stroke-linecap="round" stroke-linejoin="round" stroke-miterlimit="10" x1="767.666" y1="619.828" x2="767.666" y2="504.625"/>
<line fill="none" stroke="#800000" stroke-width="5.76" stroke-linecap="round" stroke-linejoin="round" stroke-miterlimit="10" x1="727.354" y1="504.625" x2="727.354" y2="619.828"/>
<line fill="none" stroke="#800000" stroke-width="5.76" stroke-linecap="round" stroke-linejoin="round" stroke-miterlimit="10" x1="767.666" y1="504.625" x2="727.354" y2="504.625"/>
<line fill="none" stroke="#800000" stroke-width="5.76" stroke-linecap="round" stroke-linejoin="round" stroke-miterlimit="10" x1="767.666" y1="619.828" x2="727.354" y2="619.828"/>
<line fill="none" stroke="#800000" stroke-width="3.84" stroke-linecap="round" stroke-linejoin="round" stroke-miterlimit="10" x1="747.518" y1="447.031" x2="747.518" y2="504.625"/>
<line fill="none" stroke="#800000" stroke-width="3.84" stroke-linecap="round" stroke-linejoin="round" stroke-miterlimit="10" x1="747.518" y1="677.43" x2="747.518" y2="619.828"/>
<polyline fill="none" stroke="#800000" stroke-width="5.76" stroke-linecap="round" stroke-linejoin="round" stroke-miterlimit="10" points="
	776.322,432.625 747.518,389.43 718.713,432.625 "/>
<line fill="none" stroke="#800000" stroke-width="3.84" stroke-linecap="round" stroke-linejoin="round" stroke-miterlimit="10" x1="747.518" y1="447.031" x2="747.518" y2="389.43"/>
<line fill="none" stroke="#800000" stroke-width="3.84" stroke-linecap="round" stroke-linejoin="round" stroke-miterlimit="10" x1="805.111" y1="792.625" x2="782.072" y2="746.547"/>
<polyline fill="none" stroke="#800000" stroke-width="3.84" stroke-linecap="round" stroke-linejoin="round" stroke-miterlimit="10" points="
	712.963,775.352 689.916,792.625 689.916,763.828 712.963,775.352 "/>
<line fill="none" stroke="#800000" stroke-width="3.84" stroke-linecap="round" stroke-linejoin="round" stroke-miterlimit="10" x1="700.963" y1="769.578" x2="714.877" y2="741.75"/>
<polyline fill="none" stroke="#800000" stroke-width="5.76" stroke-linecap="round" stroke-linejoin="round" stroke-miterlimit="10" points="
	692.791,769.578 692.791,786.859 707.197,775.352 695.666,769.578 695.666,778.219 701.432,775.352 "/>
<rect x="689.916" y="729.266" fill="#800000" width="115.195" height="17.281"/>
<rect x="689.916" y="729.266" fill="none" stroke="#800000" stroke-width="0.48" stroke-linecap="round" stroke-linejoin="round" stroke-miterlimit="10" width="115.195" height="17.281"/>
<path fill="none" stroke="#800000" stroke-width="0.48" stroke-linecap="round" stroke-linejoin="round" stroke-miterlimit="10" d="
	M689.916,729.266"/>
<line fill="none" stroke="#800000" stroke-width="3.84" stroke-linecap="round" stroke-linejoin="round" stroke-miterlimit="10" x1="747.518" y1="677.43" x2="747.518" y2="735.031"/>
<line fill="none" stroke="#800000" stroke-width="3.84" stroke-linecap="round" stroke-linejoin="round" stroke-miterlimit="10" x1="632.322" y1="792.625" x2="689.916" y2="792.625"/>
<line fill="none" stroke="#800000" stroke-width="3.84" stroke-linecap="round" stroke-linejoin="round" stroke-miterlimit="10" x1="862.713" y1="792.625" x2="805.111" y2="792.625"/>
<line fill="none" stroke="#008000" stroke-width="3.84" stroke-linecap="round" stroke-linejoin="round" stroke-miterlimit="10" x1="-519.209" y1="-301.297" x2="-288.811" y2="-301.297"/>
<polyline fill="none" stroke="#008000" stroke-width="5.76" stroke-linecap="round" stroke-linejoin="round" stroke-miterlimit="10" points="
	-202.396,-301.297 -236.975,-266.734 -287.85,-266.734 "/>
<polyline fill="none" stroke="#008000" stroke-width="5.76" stroke-linecap="round" stroke-linejoin="round" stroke-miterlimit="10" points="
	-202.396,-301.297 -236.975,-335.848 -287.85,-335.848 "/>
<line fill="none" stroke="#008000" stroke-width="5.76" stroke-linecap="round" stroke-linejoin="round" stroke-miterlimit="10" x1="-287.85" y1="-266.734" x2="-287.85" y2="-335.848"/>
<text transform="matrix(1 0 0 1 -270.0762 -281.1406)" fill="#008000" font-family="'Tahoma'" font-size="56.64">X</text>
<line fill="none" stroke="#008000" stroke-width="3.84" stroke-linecap="round" stroke-linejoin="round" stroke-miterlimit="10" x1="574.713" y1="-474.09" x2="689.916" y2="-474.09"/>
<polyline fill="none" stroke="#008000" stroke-width="5.76" stroke-linecap="round" stroke-linejoin="round" stroke-miterlimit="10" points="
	949.111,-474.09 914.557,-439.527 863.666,-439.527 "/>
<polyline fill="none" stroke="#008000" stroke-width="5.76" stroke-linecap="round" stroke-linejoin="round" stroke-miterlimit="10" points="
	949.111,-474.09 914.557,-508.648 863.666,-508.648 "/>
<line fill="none" stroke="#008000" stroke-width="5.76" stroke-linecap="round" stroke-linejoin="round" stroke-miterlimit="10" x1="863.666" y1="-439.527" x2="863.666" y2="-508.648"/>
<text transform="matrix(1 0 0 1 881.4395 -453.9375)" fill="#008000" font-family="'Tahoma'" font-size="56.64">X</text>
<line fill="none" stroke="#008000" stroke-width="3.84" stroke-linecap="round" stroke-linejoin="round" stroke-miterlimit="10" x1="689.916" y1="-474.09" x2="805.111" y2="-474.09"/>
<path fill="#008000" d="M701.432-474.09c0,6.242-5.281,11.52-11.516,11.52s-11.516-5.277-11.516-11.52
	c0-6.238,5.281-11.52,11.516-11.52C696.15-485.617,701.432-480.328,701.432-474.09"/>
<path fill="none" stroke="#008000" stroke-width="0.48" stroke-linecap="round" stroke-linejoin="round" stroke-miterlimit="10" d="
	M701.432-474.09c0,6.242-5.281,11.52-11.516,11.52s-11.516-5.277-11.516-11.52c0-6.238,5.281-11.52,11.516-11.52
	C696.15-485.617,701.432-480.328,701.432-474.09z"/>
<line fill="none" stroke="#008000" stroke-width="3.84" stroke-linecap="round" stroke-linejoin="round" stroke-miterlimit="10" x1="805.111" y1="-474.09" x2="862.713" y2="-474.09"/>
<line fill="none" stroke="#008000" stroke-width="3.84" stroke-linecap="round" stroke-linejoin="round" stroke-miterlimit="10" x1="805.111" y1="-301.297" x2="805.111" y2="-474.09"/>
<path fill="#008000" d="M816.635-474.09c0,6.242-5.281,11.52-11.516,11.52s-11.516-5.277-11.516-11.52
	c0-6.238,5.281-11.52,11.516-11.52C811.354-485.617,816.635-480.328,816.635-474.09"/>
<path fill="none" stroke="#008000" stroke-width="0.48" stroke-linecap="round" stroke-linejoin="round" stroke-miterlimit="10" d="
	M816.635-474.09c0,6.242-5.281,11.52-11.516,11.52s-11.516-5.277-11.516-11.52c0-6.238,5.281-11.52,11.516-11.52
	C811.354-485.617,816.635-480.328,816.635-474.09z"/>
<line fill="none" stroke="#008000" stroke-width="3.84" stroke-linecap="round" stroke-linejoin="round" stroke-miterlimit="10" x1="-231.209" y1="677.43" x2="-58.889" y2="677.43"/>
<polyline fill="none" stroke="#008000" stroke-width="5.76" stroke-linecap="round" stroke-linejoin="round" stroke-miterlimit="10" points="
	27.51,677.43 -7.037,711.992 -57.451,711.992 "/>
<polyline fill="none" stroke="#008000" stroke-width="5.76" stroke-linecap="round" stroke-linejoin="round" stroke-miterlimit="10" points="
	27.51,677.43 -7.037,642.859 -57.451,642.859 "/>
<line fill="none" stroke="#008000" stroke-width="5.76" stroke-linecap="round" stroke-linejoin="round" stroke-miterlimit="10" x1="-57.451" y1="711.992" x2="-57.451" y2="642.859"/>
<text transform="matrix(1 0 0 1 -40.1699 697.5859)" fill="#008000" font-family="'Tahoma'" font-size="56.64">X</text>
<line fill="none" stroke="#008000" stroke-width="3.84" stroke-linecap="round" stroke-linejoin="round" stroke-miterlimit="10" x1="1035.025" y1="677.43" x2="1207.83" y2="677.43"/>
<polyline fill="none" stroke="#008000" stroke-width="5.76" stroke-linecap="round" stroke-linejoin="round" stroke-miterlimit="10" points="
	1294.236,677.43 1259.666,711.992 1209.275,711.992 "/>
<polyline fill="none" stroke="#008000" stroke-width="5.76" stroke-linecap="round" stroke-linejoin="round" stroke-miterlimit="10" points="
	1294.236,677.43 1259.666,642.859 1209.275,642.859 "/>
<line fill="none" stroke="#008000" stroke-width="5.76" stroke-linecap="round" stroke-linejoin="round" stroke-miterlimit="10" x1="1209.275" y1="711.992" x2="1209.275" y2="642.859"/>
<text transform="matrix(1 0 0 1 1226.5566 697.5859)" fill="#008000" font-family="'Tahoma'" font-size="56.64">X</text>
<line fill="none" stroke="#008000" stroke-width="3.84" stroke-linecap="round" stroke-linejoin="round" stroke-miterlimit="10" x1="574.713" y1="-70.891" x2="574.713" y2="-243.688"/>
<line fill="none" stroke="#008000" stroke-width="3.84" stroke-linecap="round" stroke-linejoin="round" stroke-miterlimit="10" x1="229.111" y1="-186.094" x2="171.518" y2="-186.094"/>
<polyline fill="none" stroke="#008000" stroke-width="5.76" stroke-linecap="round" stroke-linejoin="round" stroke-miterlimit="10" points="
	171.518,-186.094 136.963,-151.531 85.604,-151.531 "/>
<polyline fill="none" stroke="#008000" stroke-width="5.76" stroke-linecap="round" stroke-linejoin="round" stroke-miterlimit="10" points="
	171.518,-186.094 136.963,-220.648 85.604,-220.648 "/>
<line fill="none" stroke="#008000" stroke-width="5.76" stroke-linecap="round" stroke-linejoin="round" stroke-miterlimit="10" x1="85.604" y1="-151.531" x2="85.604" y2="-220.648"/>
<text transform="matrix(1 0 0 1 103.3613 -165.9375)" fill="#008000" font-family="'Tahoma'" font-size="56.64">B</text>
<line fill="none" stroke="#008000" stroke-width="3.84" stroke-linecap="round" stroke-linejoin="round" stroke-miterlimit="10" x1="-864.811" y1="-186.094" x2="-922.4" y2="-186.094"/>
<polyline fill="none" stroke="#008000" stroke-width="5.76" stroke-linecap="round" stroke-linejoin="round" stroke-miterlimit="10" points="
	-922.4,-186.094 -956.971,-151.531 -1008.811,-151.531 "/>
<polyline fill="none" stroke="#008000" stroke-width="5.76" stroke-linecap="round" stroke-linejoin="round" stroke-miterlimit="10" points="
	-922.4,-186.094 -956.971,-220.656 -1008.811,-220.656 "/>
<line fill="none" stroke="#008000" stroke-width="5.76" stroke-linecap="round" stroke-linejoin="round" stroke-miterlimit="10" x1="-1008.811" y1="-151.531" x2="-1008.811" y2="-220.656"/>
<text transform="matrix(1 0 0 1 -991.0293 -165.9375)" fill="#008000" font-family="'Tahoma'" font-size="56.64">A</text>
<line fill="none" stroke="#008000" stroke-width="3.84" stroke-linecap="round" stroke-linejoin="round" stroke-miterlimit="10" x1="229.111" y1="-358.887" x2="171.518" y2="-358.887"/>
<polyline fill="none" stroke="#008000" stroke-width="5.76" stroke-linecap="round" stroke-linejoin="round" stroke-miterlimit="10" points="
	171.518,-358.887 136.963,-324.328 85.111,-324.328 "/>
<polyline fill="none" stroke="#008000" stroke-width="5.76" stroke-linecap="round" stroke-linejoin="round" stroke-miterlimit="10" points="
	171.518,-358.887 136.963,-393.457 85.111,-393.457 "/>
<line fill="none" stroke="#008000" stroke-width="5.76" stroke-linecap="round" stroke-linejoin="round" stroke-miterlimit="10" x1="85.111" y1="-324.328" x2="85.111" y2="-393.457"/>
<text transform="matrix(1 0 0 1 102.8809 -338.7344)" fill="#008000" font-family="'Tahoma'" font-size="56.64">A</text>
<line fill="none" stroke="#008000" stroke-width="3.84" stroke-linecap="round" stroke-linejoin="round" stroke-miterlimit="10" x1="-692.002" y1="792.625" x2="-749.611" y2="792.625"/>
<polyline fill="none" stroke="#008000" stroke-width="5.76" stroke-linecap="round" stroke-linejoin="round" stroke-miterlimit="10" points="
	-749.611,792.625 -784.17,827.188 -836.002,827.188 "/>
<polyline fill="none" stroke="#008000" stroke-width="5.76" stroke-linecap="round" stroke-linejoin="round" stroke-miterlimit="10" points="
	-749.611,792.625 -784.17,758.07 -836.002,758.07 "/>
<line fill="none" stroke="#008000" stroke-width="5.76" stroke-linecap="round" stroke-linejoin="round" stroke-miterlimit="10" x1="-836.002" y1="827.188" x2="-836.002" y2="758.07"/>
<text transform="matrix(1 0 0 1 -818.248 812.7813)" fill="#008000" font-family="'Tahoma'" font-size="56.64">A</text>
<line fill="none" stroke="#008000" stroke-width="3.84" stroke-linecap="round" stroke-linejoin="round" stroke-miterlimit="10" x1="632.322" y1="792.625" x2="574.713" y2="792.625"/>
<polyline fill="none" stroke="#008000" stroke-width="5.76" stroke-linecap="round" stroke-linejoin="round" stroke-miterlimit="10" points="
	574.713,792.625 540.15,827.188 488.322,827.188 "/>
<polyline fill="none" stroke="#008000" stroke-width="5.76" stroke-linecap="round" stroke-linejoin="round" stroke-miterlimit="10" points="
	574.713,792.625 540.15,758.07 488.322,758.07 "/>
<line fill="none" stroke="#008000" stroke-width="5.76" stroke-linecap="round" stroke-linejoin="round" stroke-miterlimit="10" x1="488.322" y1="827.188" x2="488.322" y2="758.07"/>
<text transform="matrix(1 0 0 1 506.0801 812.7813)" fill="#008000" font-family="'Tahoma'" font-size="56.64">A</text>
<line fill="none" stroke="#008000" stroke-width="3.84" stroke-linecap="round" stroke-linejoin="round" stroke-miterlimit="10" x1="689.916" y1="-186.094" x2="459.518" y2="-186.094"/>
<polyline fill="none" stroke="#008000" stroke-width="3.84" stroke-linecap="round" stroke-linejoin="round" stroke-miterlimit="10" points="
	-576.811,792.625 -519.209,792.625 -461.615,792.625 "/>
<line fill="none" stroke="#008000" stroke-width="3.84" stroke-linecap="round" stroke-linejoin="round" stroke-miterlimit="10" x1="-519.209" y1="677.43" x2="-519.209" y2="792.625"/>
<path fill="#008000" d="M-507.678,792.625c0,6.234-5.281,11.516-11.523,11.516s-11.508-5.281-11.508-11.516
	s5.266-11.516,11.508-11.516S-507.678,786.391-507.678,792.625"/>
<path fill="none" stroke="#008000" stroke-width="0.48" stroke-linecap="round" stroke-linejoin="round" stroke-miterlimit="10" d="
	M-507.678,792.625c0,6.234-5.281,11.516-11.523,11.516s-11.508-5.281-11.508-11.516s5.266-11.516,11.508-11.516
	S-507.678,786.391-507.678,792.625z"/>
<line fill="none" stroke="#008000" stroke-width="3.84" stroke-linecap="round" stroke-linejoin="round" stroke-miterlimit="10" x1="920.322" y1="792.625" x2="862.713" y2="792.625"/>
</svg>
