<?xml version="1.0" encoding="utf-8"?>
<!-- Generator: Adobe Illustrator 15.0.0, SVG Export Plug-In . SVG Version: 6.00 Build 0)  -->
<!DOCTYPE svg PUBLIC "-//W3C//DTD SVG 1.0//EN" "http://www.w3.org/TR/2001/REC-SVG-20010904/DTD/svg10.dtd">
<svg version="1.0" id="Layer_1" xmlns="http://www.w3.org/2000/svg" xmlns:xlink="http://www.w3.org/1999/xlink" x="0px" y="0px"
	 width="255.119px" height="189.921px" viewBox="0 0 255.119 189.921" enable-background="new 0 0 255.119 189.921"
	 xml:space="preserve">
<g>
	<g>
		<line fill="none" stroke="#231F20" stroke-miterlimit="10" x1="164.56" y1="20.655" x2="164.56" y2="184.252"/>
		<g>
			<polygon fill="#231F20" points="161.493,23.14 162.042,23.651 164.56,20.942 167.077,23.651 167.627,23.14 164.56,19.841 			"/>
		</g>
	</g>
</g>
<g>
	<g>
		<line fill="none" stroke="#231F20" stroke-miterlimit="10" x1="220.29" y1="121.891" x2="5.669" y2="121.89"/>
		<g>
			<polygon fill="#231F20" points="217.805,118.824 217.293,119.373 220.002,121.89 217.293,124.409 217.805,124.958 
				221.103,121.89 			"/>
		</g>
	</g>
</g>
<g>
	<line fill="none" stroke="#993300" stroke-width="2" stroke-miterlimit="10" x1="45.354" y1="87.875" x2="34.501" y2="77.021"/>
	<line fill="none" stroke="#993300" stroke-width="2" stroke-miterlimit="10" x1="34.016" y1="87.389" x2="44.87" y2="76.536"/>
</g>
<g>
	<line fill="none" stroke="#993300" stroke-width="2" stroke-miterlimit="10" x1="45.354" y1="167.245" x2="34.501" y2="156.391"/>
	<line fill="none" stroke="#993300" stroke-width="2" stroke-miterlimit="10" x1="34.016" y1="166.759" x2="44.87" y2="155.906"/>
</g>
<g>
	<path d="M236.715,126.433c-0.36,0.371-1.235,1.067-1.799,1.391h-0.168c-0.923-0.3-1.188-1.619-1.188-2.507
		c0-0.779-0.072-1.654-0.624-1.835l-0.887,0.216c-0.336,1.439-1.2,2.986-2.363,4.126c-0.324-0.191-1.248-0.72-1.416-0.743
		c-0.084,0.071-0.324,0.275-0.527,0.588l-0.264-0.168l1.127-1.739c0.24,0.144,1.283,0.731,1.439,0.731
		c0.611,0,0.611-2.446,0.611-3.79c0-0.911-0.084-3.106-1.295-3.106c-0.504,0-0.804,0.396-0.804,0.804
		c0,1.188,1.379,1.008,1.379,2.351c0,0.828-0.959,1.596-1.991,1.848l-0.108-0.265c0.336-0.107,0.899-0.455,0.899-0.971
		c0-1.032-1.367-1.176-1.367-2.279c0-1.188,1.02-1.858,2.219-1.858c0.936,0,1.667,0.479,2.123,1.055l1.595-1.163
		c1.559,0,2.351,0.852,2.351,1.787c0,0.888-0.48,1.679-1.487,2.063v0.024c1.475,0.924,0.612,3.742,1.703,3.742
		c0.132,0,0.492-0.372,0.647-0.54L236.715,126.433z M232.493,123.195c1.392-0.3,1.763-1.248,1.763-2.003
		c0-0.468-0.348-1.151-1.115-1.151c-0.468,0-0.768,0.18-1.235,0.647c0.132,0.372,0.24,0.947,0.24,1.295s-0.012,0.912-0.048,1.296
		L232.493,123.195z"/>
	<path d="M241.038,119.716c-1.823,1.728-2.447,4.378-2.447,6.824c0,1.163,0.132,1.896,0.576,3.118l-0.216,0.072
		c-0.768-1.235-1.187-2.795-1.187-4.33c0-1.235,0.264-2.458,0.887-3.478c0.468-0.756,1.127-1.38,2.231-2.387L241.038,119.716z"/>
	<path d="M245.406,123.938h-0.192c-0.12-0.995-0.48-1.392-1.067-1.392c-0.42,0-0.708,0.24-0.708,0.684
		c0,0.324,0.18,0.672,0.648,1.224c0.6,0.695,0.815,1.163,0.815,1.631c0,0.996-0.731,1.607-1.727,1.607
		c-0.204,0-0.384-0.012-0.66-0.12c-0.228-0.096-0.396-0.107-0.528-0.107c-0.132,0-0.264,0.06-0.348,0.252h-0.192l0.24-1.907h0.192
		c0.168,1.14,0.576,1.631,1.199,1.631c0.564,0,0.912-0.336,0.912-0.923c0-0.384-0.204-0.792-0.671-1.38
		c-0.516-0.647-0.756-1.188-0.756-1.571c0-0.791,0.564-1.295,1.451-1.295c0.204,0,0.372,0.036,0.672,0.12
		c0.228,0.071,0.336,0.084,0.432,0.084c0.18,0,0.264-0.048,0.36-0.216h0.168L245.406,123.938z"/>
	<path d="M248.203,119.537c0.563,1.007,0.755,1.475,0.959,2.362c0.144,0.672,0.228,1.367,0.228,2.016
		c0,1.211-0.336,2.351-0.936,3.382c-0.468,0.804-1.092,1.475-2.183,2.423l-0.156-0.181c1.007-1.067,1.451-1.87,1.859-3.142
		c0.372-1.151,0.588-2.531,0.588-3.658c0-1.199-0.18-2.171-0.588-3.143L248.203,119.537z"/>
</g>
<g>
	<path d="M161.287,9.364c-0.324-0.288-0.54-0.359-0.779-0.359c-0.324,0-0.684,0.228-0.684,0.695c0,0.672,1.283,1.512,1.283,2.65
		c0,1.212-1.319,2.231-2.867,2.231c-1.043,0-1.571-0.156-2.003-0.48c-0.419-0.312-0.647-0.659-0.839-1.104
		c-0.18-0.407-0.432-0.6-0.671-0.6c-0.336,0-0.672,0.265-0.84,0.612l-0.276-0.072c0.108-0.468,0.792-1.499,1.715-1.499
		c1.151,0,1.439,0.911,1.703,1.691c0.24,0.695,0.647,0.995,1.307,0.995c0.792,0,1.295-0.516,1.295-1.128
		c0-1.187-1.116-1.715-1.116-2.986c0-0.911,0.828-1.511,1.619-1.511s1.067,0.312,1.367,0.672L161.287,9.364z M161.599,6.173
		c-0.192,0.72-0.6,1.812-1.979,1.812c-1.403,0-1.871-0.947-3.238-0.947c-0.6,0-1.403,0.396-1.403,1.367
		c0,0.815,0.648,1.211,1.224,1.211c0.264,0,0.54-0.06,0.779-0.168l0.096,0.264c-0.348,0.181-0.588,0.24-0.923,0.24
		c-1.235,0-1.991-0.708-1.991-1.739c0-1.223,1.056-2.374,2.603-2.374c1.811,0,2.159,0.947,3.55,0.947c0.6,0,0.923-0.528,1.007-0.696
		L161.599,6.173z"/>
	<path d="M165.993,6.33c-1.823,1.728-2.447,4.378-2.447,6.824c0,1.163,0.132,1.896,0.576,3.118l-0.216,0.072
		c-0.768-1.235-1.187-2.795-1.187-4.33c0-1.235,0.264-2.458,0.887-3.478c0.468-0.756,1.127-1.38,2.231-2.387L165.993,6.33z"/>
	<path d="M170.361,10.551h-0.192c-0.12-0.995-0.48-1.392-1.067-1.392c-0.42,0-0.708,0.24-0.708,0.684
		c0,0.324,0.18,0.672,0.648,1.224c0.6,0.695,0.815,1.163,0.815,1.631c0,0.996-0.731,1.607-1.727,1.607
		c-0.204,0-0.384-0.012-0.66-0.12c-0.228-0.096-0.396-0.107-0.528-0.107c-0.132,0-0.264,0.06-0.348,0.252h-0.192l0.24-1.907h0.192
		c0.168,1.14,0.576,1.631,1.199,1.631c0.564,0,0.912-0.336,0.912-0.923c0-0.384-0.204-0.792-0.671-1.38
		c-0.516-0.647-0.756-1.188-0.756-1.571c0-0.791,0.564-1.295,1.451-1.295c0.204,0,0.372,0.036,0.672,0.12
		c0.228,0.071,0.336,0.084,0.432,0.084c0.18,0,0.264-0.048,0.36-0.216h0.168L170.361,10.551z"/>
	<path d="M173.158,6.15c0.563,1.007,0.755,1.475,0.959,2.362c0.144,0.672,0.228,1.367,0.228,2.016c0,1.211-0.336,2.351-0.936,3.382
		c-0.468,0.804-1.092,1.475-2.183,2.423l-0.156-0.181c1.007-1.067,1.451-1.87,1.859-3.142c0.372-1.151,0.588-2.531,0.588-3.658
		c0-1.199-0.18-2.171-0.588-3.143L173.158,6.15z"/>
</g>
<circle fill="none" stroke="#993300" stroke-width="2" stroke-miterlimit="10" cx="107.958" cy="122.131" r="5.426"/>
<g>
	<path fill="#993300" d="M22.073,81.105c0.647-0.972,1.331-1.355,2.051-1.355c0.887,0,1.379,0.563,1.379,1.499
		c0,1.979-1.811,3.922-3.563,3.922c-0.275,0-0.527-0.048-0.827-0.204c-0.204,0.84-0.48,1.823-0.48,1.991
		c0,0.264,0.18,0.348,0.744,0.348v0.192h-2.435v-0.192c0.516-0.012,0.671-0.191,0.815-0.756l1.379-5.181
		c0.132-0.479,0.192-0.792,0.192-0.852c0-0.288-0.336-0.324-0.528-0.324h-0.264l-0.024-0.18l1.871-0.264
		c0.036,0,0.06,0.024,0.06,0.048c0,0-0.012,0.061-0.024,0.108L22.073,81.105z M23.68,80.265c-0.636,0-1.343,0.647-1.619,1.367
		c-0.348,0.899-0.779,2.446-0.779,2.854c0,0.264,0.24,0.456,0.575,0.456c0.636,0,1.211-0.396,1.739-1.14
		c0.576-0.804,0.828-1.679,0.828-2.519C24.424,80.601,24.22,80.265,23.68,80.265z"/>
	<path fill="#993300" d="M28.446,77.957c0.084,0.042,0.217,0.112,0.441,0.141c0.315,0.042,0.448,0.146,0.448,0.308
		c0,0.176-0.112,0.26-0.266,0.26c-0.105,0-0.189-0.063-0.322-0.225c-0.182-0.23-0.28-0.28-0.497-0.434l-0.126-0.092
		c0.007,0.371,0.035,0.525,0.14,0.819c0.042,0.127,0.056,0.176,0.056,0.238c0,0.168-0.063,0.28-0.259,0.28
		c-0.182,0-0.259-0.112-0.259-0.266c0-0.063,0.021-0.141,0.07-0.287c0.091-0.253,0.126-0.428,0.126-0.785
		c-0.021,0.021-0.049,0.035-0.112,0.07c-0.217,0.133-0.301,0.196-0.497,0.441c-0.119,0.146-0.238,0.231-0.357,0.231
		c-0.133,0-0.245-0.077-0.245-0.225c0-0.168,0.133-0.287,0.434-0.336c0.329-0.057,0.427-0.099,0.729-0.28l-0.084-0.049
		c-0.119-0.07-0.357-0.189-0.651-0.225c-0.287-0.035-0.427-0.14-0.427-0.308c0-0.141,0.091-0.273,0.231-0.273
		c0.112,0,0.203,0.056,0.343,0.217c0.231,0.26,0.364,0.371,0.637,0.532c0-0.301-0.028-0.427-0.126-0.749
		c-0.042-0.14-0.056-0.231-0.056-0.294c0-0.176,0.07-0.294,0.245-0.294c0.161,0,0.252,0.126,0.252,0.287
		c0,0.076-0.028,0.168-0.077,0.336c-0.07,0.224-0.112,0.399-0.112,0.729c0.308-0.203,0.322-0.218,0.7-0.616
		c0.105-0.119,0.175-0.147,0.266-0.147c0.161,0,0.245,0.119,0.245,0.273c0,0.153-0.098,0.266-0.399,0.301
		c-0.33,0.042-0.448,0.098-0.75,0.287L28.446,77.957z"/>
</g>
<g>
	<path fill="#993300" d="M24.908,160.475c0.647-0.972,1.331-1.355,2.051-1.355c0.887,0,1.379,0.563,1.379,1.499
		c0,1.979-1.811,3.922-3.563,3.922c-0.275,0-0.527-0.048-0.827-0.204c-0.204,0.84-0.48,1.823-0.48,1.991
		c0,0.264,0.18,0.348,0.744,0.348v0.192h-2.435v-0.192c0.516-0.012,0.671-0.191,0.815-0.756l1.379-5.181
		c0.132-0.479,0.192-0.792,0.192-0.852c0-0.288-0.336-0.324-0.528-0.324h-0.264l-0.024-0.18l1.871-0.264
		c0.036,0,0.06,0.024,0.06,0.048c0,0-0.012,0.061-0.024,0.108L24.908,160.475z M26.515,159.635c-0.636,0-1.343,0.647-1.619,1.367
		c-0.348,0.899-0.779,2.446-0.779,2.854c0,0.264,0.24,0.456,0.575,0.456c0.636,0,1.211-0.396,1.739-1.14
		c0.576-0.804,0.828-1.679,0.828-2.519C27.258,159.971,27.054,159.635,26.515,159.635z"/>
</g>
<g>
	<path fill="#993300" d="M113.934,134.914c0.696,0.156,0.959,0.288,1.439,0.996c0.312,0.455,0.54,0.6,0.839,0.6
		c0.192,0,0.324-0.072,0.324-0.18c0-0.048-0.024-0.108-0.06-0.181c-0.072-0.144-0.096-0.239-0.096-0.335
		c0.012-0.204,0.204-0.408,0.396-0.408c0.252,0,0.42,0.18,0.42,0.443c0,0.48-0.444,0.912-1.115,0.912
		c-0.348,0-0.756-0.156-1.355-0.528c-0.563-0.348-0.947-0.503-1.259-0.503c-0.192,0-0.348,0.06-0.54,0.216l-0.108-0.108l3.718-4.461
		h-1.631c-0.624,0-0.852,0.107-1.091,0.719l-0.192-0.048l0.384-1.391h3.394v0.132L113.934,134.914z"/>
</g>
<g>
	<path fill="#231F20" d="M169.742,119.194c-1.709,0-2.259-1.858-2.259-3.498c0-1.769,0.69-3.397,2.299-3.397
		c1.309,0,2.219,1.409,2.219,3.458C172.001,117.475,171.372,119.194,169.742,119.194z M169.722,112.558
		c-0.83,0-1.279,1.179-1.279,3.208c0,2.028,0.44,3.168,1.299,3.168c0.85,0,1.299-1.149,1.299-3.128
		C171.042,113.727,170.602,112.558,169.722,112.558z"/>
</g>
</svg>
