<?xml version="1.0" encoding="utf-8"?>
<!-- Generator: Adobe Illustrator 15.0.0, SVG Export Plug-In . SVG Version: 6.00 Build 0)  -->
<!DOCTYPE svg PUBLIC "-//W3C//DTD SVG 1.0//EN" "http://www.w3.org/TR/2001/REC-SVG-20010904/DTD/svg10.dtd">
<svg version="1.0" id="Layer_1" xmlns="http://www.w3.org/2000/svg" xmlns:xlink="http://www.w3.org/1999/xlink" x="0px" y="0px"
	 width="255.119px" height="189.921px" viewBox="0 0 255.119 189.921" enable-background="new 0 0 255.119 189.921"
	 xml:space="preserve">
<g>
	<g>
		<line fill="none" stroke="#231F20" stroke-miterlimit="10" x1="164.56" y1="20.655" x2="164.56" y2="184.252"/>
		<g>
			<polygon fill="#231F20" points="161.493,23.14 162.042,23.651 164.56,20.942 167.077,23.651 167.627,23.14 164.56,19.841 			"/>
		</g>
	</g>
</g>
<g>
	<g>
		<line fill="none" stroke="#231F20" stroke-miterlimit="10" x1="220.29" y1="121.891" x2="5.669" y2="121.89"/>
		<g>
			<polygon fill="#231F20" points="217.805,118.824 217.293,119.373 220.002,121.89 217.293,124.409 217.805,124.958 
				221.103,121.89 			"/>
		</g>
	</g>
</g>
<g>
	<line fill="none" stroke="#993300" stroke-width="2" stroke-miterlimit="10" x1="45.354" y1="87.875" x2="34.501" y2="77.021"/>
	<line fill="none" stroke="#993300" stroke-width="2" stroke-miterlimit="10" x1="34.016" y1="87.389" x2="44.87" y2="76.536"/>
</g>
<g>
	<line fill="none" stroke="#993300" stroke-width="2" stroke-miterlimit="10" x1="45.354" y1="167.245" x2="34.501" y2="156.391"/>
	<line fill="none" stroke="#993300" stroke-width="2" stroke-miterlimit="10" x1="34.016" y1="166.759" x2="44.87" y2="155.906"/>
</g>
<g>
	<path d="M236.715,126.433c-0.36,0.371-1.235,1.067-1.799,1.391h-0.168c-0.923-0.3-1.188-1.619-1.188-2.507
		c0-0.779-0.072-1.654-0.624-1.835l-0.887,0.216c-0.336,1.439-1.2,2.986-2.363,4.126c-0.324-0.191-1.248-0.72-1.416-0.743
		c-0.084,0.071-0.324,0.275-0.527,0.588l-0.264-0.168l1.127-1.739c0.24,0.144,1.283,0.731,1.439,0.731
		c0.611,0,0.611-2.446,0.611-3.79c0-0.911-0.084-3.106-1.295-3.106c-0.504,0-0.804,0.396-0.804,0.804
		c0,1.188,1.379,1.008,1.379,2.351c0,0.828-0.959,1.596-1.991,1.848l-0.108-0.265c0.336-0.107,0.899-0.455,0.899-0.971
		c0-1.032-1.367-1.176-1.367-2.279c0-1.188,1.02-1.858,2.219-1.858c0.936,0,1.667,0.479,2.123,1.055l1.595-1.163
		c1.559,0,2.351,0.852,2.351,1.787c0,0.888-0.48,1.679-1.487,2.063v0.024c1.475,0.924,0.612,3.742,1.703,3.742
		c0.132,0,0.492-0.372,0.647-0.54L236.715,126.433z M232.493,123.195c1.392-0.3,1.763-1.248,1.763-2.003
		c0-0.468-0.348-1.151-1.115-1.151c-0.468,0-0.768,0.18-1.235,0.647c0.132,0.372,0.24,0.947,0.24,1.295s-0.012,0.912-0.048,1.296
		L232.493,123.195z"/>
	<path d="M241.038,119.716c-1.823,1.728-2.447,4.378-2.447,6.824c0,1.163,0.132,1.896,0.576,3.118l-0.216,0.072
		c-0.768-1.235-1.187-2.795-1.187-4.33c0-1.235,0.264-2.458,0.887-3.478c0.468-0.756,1.127-1.38,2.231-2.387L241.038,119.716z"/>
	<path d="M245.406,123.938h-0.192c-0.12-0.995-0.48-1.392-1.067-1.392c-0.42,0-0.708,0.24-0.708,0.684
		c0,0.324,0.18,0.672,0.648,1.224c0.6,0.695,0.815,1.163,0.815,1.631c0,0.996-0.731,1.607-1.727,1.607
		c-0.204,0-0.384-0.012-0.66-0.12c-0.228-0.096-0.396-0.107-0.528-0.107c-0.132,0-0.264,0.06-0.348,0.252h-0.192l0.24-1.907h0.192
		c0.168,1.14,0.576,1.631,1.199,1.631c0.564,0,0.912-0.336,0.912-0.923c0-0.384-0.204-0.792-0.671-1.38
		c-0.516-0.647-0.756-1.188-0.756-1.571c0-0.791,0.564-1.295,1.451-1.295c0.204,0,0.372,0.036,0.672,0.12
		c0.228,0.071,0.336,0.084,0.432,0.084c0.18,0,0.264-0.048,0.36-0.216h0.168L245.406,123.938z"/>
	<path d="M248.203,119.537c0.563,1.007,0.755,1.475,0.959,2.362c0.144,0.672,0.228,1.367,0.228,2.016
		c0,1.211-0.336,2.351-0.936,3.382c-0.468,0.804-1.092,1.475-2.183,2.423l-0.156-0.181c1.007-1.067,1.451-1.87,1.859-3.142
		c0.372-1.151,0.588-2.531,0.588-3.658c0-1.199-0.18-2.171-0.588-3.143L248.203,119.537z"/>
</g>
<g>
	<path d="M161.287,9.364c-0.324-0.288-0.54-0.359-0.779-0.359c-0.324,0-0.684,0.228-0.684,0.695c0,0.672,1.283,1.512,1.283,2.65
		c0,1.212-1.319,2.231-2.867,2.231c-1.043,0-1.571-0.156-2.003-0.48c-0.419-0.312-0.647-0.659-0.839-1.104
		c-0.18-0.407-0.432-0.6-0.671-0.6c-0.336,0-0.672,0.265-0.84,0.612l-0.276-0.072c0.108-0.468,0.792-1.499,1.715-1.499
		c1.151,0,1.439,0.911,1.703,1.691c0.24,0.695,0.647,0.995,1.307,0.995c0.792,0,1.295-0.516,1.295-1.128
		c0-1.187-1.116-1.715-1.116-2.986c0-0.911,0.828-1.511,1.619-1.511s1.067,0.312,1.367,0.672L161.287,9.364z M161.599,6.173
		c-0.192,0.72-0.6,1.812-1.979,1.812c-1.403,0-1.871-0.947-3.238-0.947c-0.6,0-1.403,0.396-1.403,1.367
		c0,0.815,0.648,1.211,1.224,1.211c0.264,0,0.54-0.06,0.779-0.168l0.096,0.264c-0.348,0.181-0.588,0.24-0.923,0.24
		c-1.235,0-1.991-0.708-1.991-1.739c0-1.223,1.056-2.374,2.603-2.374c1.811,0,2.159,0.947,3.55,0.947c0.6,0,0.923-0.528,1.007-0.696
		L161.599,6.173z"/>
	<path d="M165.993,6.33c-1.823,1.728-2.447,4.378-2.447,6.824c0,1.163,0.132,1.896,0.576,3.118l-0.216,0.072
		c-0.768-1.235-1.187-2.795-1.187-4.33c0-1.235,0.264-2.458,0.887-3.478c0.468-0.756,1.127-1.38,2.231-2.387L165.993,6.33z"/>
	<path d="M170.361,10.551h-0.192c-0.12-0.995-0.48-1.392-1.067-1.392c-0.42,0-0.708,0.24-0.708,0.684
		c0,0.324,0.18,0.672,0.648,1.224c0.6,0.695,0.815,1.163,0.815,1.631c0,0.996-0.731,1.607-1.727,1.607
		c-0.204,0-0.384-0.012-0.66-0.12c-0.228-0.096-0.396-0.107-0.528-0.107c-0.132,0-0.264,0.06-0.348,0.252h-0.192l0.24-1.907h0.192
		c0.168,1.14,0.576,1.631,1.199,1.631c0.564,0,0.912-0.336,0.912-0.923c0-0.384-0.204-0.792-0.671-1.38
		c-0.516-0.647-0.756-1.188-0.756-1.571c0-0.791,0.564-1.295,1.451-1.295c0.204,0,0.372,0.036,0.672,0.12
		c0.228,0.071,0.336,0.084,0.432,0.084c0.18,0,0.264-0.048,0.36-0.216h0.168L170.361,10.551z"/>
	<path d="M173.158,6.15c0.563,1.007,0.755,1.475,0.959,2.362c0.144,0.672,0.228,1.367,0.228,2.016c0,1.211-0.336,2.351-0.936,3.382
		c-0.468,0.804-1.092,1.475-2.183,2.423l-0.156-0.181c1.007-1.067,1.451-1.87,1.859-3.142c0.372-1.151,0.588-2.531,0.588-3.658
		c0-1.199-0.18-2.171-0.588-3.143L173.158,6.15z"/>
</g>
<g>
	<path fill="#993300" d="M113.934,134.914c0.696,0.156,0.959,0.288,1.439,0.996c0.312,0.455,0.54,0.6,0.839,0.6
		c0.192,0,0.324-0.072,0.324-0.18c0-0.048-0.024-0.108-0.06-0.181c-0.072-0.144-0.096-0.239-0.096-0.335
		c0.012-0.204,0.204-0.408,0.396-0.408c0.252,0,0.42,0.18,0.42,0.443c0,0.48-0.444,0.912-1.115,0.912
		c-0.348,0-0.756-0.156-1.355-0.528c-0.563-0.348-0.947-0.503-1.259-0.503c-0.192,0-0.348,0.06-0.54,0.216l-0.108-0.108l3.718-4.461
		h-1.631c-0.624,0-0.852,0.107-1.091,0.719l-0.192-0.048l0.384-1.391h3.394v0.132L113.934,134.914z"/>
</g>
<g>
	<path fill="#231F20" d="M68.261,147.401l5.457-5.467l0.5,0.42l-4.368,4.388h4.607v0.659H68.261z"/>
	<path fill="#231F20" d="M78.03,140.865c-1.52,1.438-2.039,3.647-2.039,5.687c0,0.97,0.11,1.579,0.48,2.599l-0.18,0.06
		c-0.64-1.029-0.989-2.328-0.989-3.607c0-1.029,0.22-2.049,0.739-2.898c0.39-0.63,0.939-1.149,1.859-1.989L78.03,140.865z"/>
	<path fill="#231F20" d="M81.669,144.382h-0.16c-0.1-0.829-0.4-1.159-0.89-1.159c-0.35,0-0.59,0.2-0.59,0.569
		c0,0.271,0.15,0.561,0.54,1.02c0.5,0.58,0.679,0.97,0.679,1.359c0,0.83-0.609,1.34-1.439,1.34c-0.17,0-0.32-0.011-0.55-0.101
		c-0.19-0.08-0.33-0.09-0.439-0.09c-0.11,0-0.22,0.05-0.29,0.21h-0.16l0.2-1.589h0.16c0.14,0.949,0.48,1.359,1,1.359
		c0.47,0,0.76-0.28,0.76-0.77c0-0.32-0.17-0.66-0.56-1.149c-0.43-0.54-0.63-0.99-0.63-1.31c0-0.66,0.47-1.079,1.209-1.079
		c0.17,0,0.31,0.029,0.56,0.1c0.19,0.06,0.28,0.07,0.36,0.07c0.15,0,0.22-0.04,0.3-0.181h0.14L81.669,144.382z"/>
	<path fill="#231F20" d="M82.96,145.202v-0.659h5.038v0.659H82.96z"/>
	<path fill="#231F20" d="M90.71,144.123c0.54-0.81,1.109-1.129,1.709-1.129c0.74,0,1.149,0.47,1.149,1.249
		c0,1.649-1.509,3.269-2.968,3.269c-0.23,0-0.44-0.04-0.689-0.17c-0.17,0.699-0.4,1.519-0.4,1.658c0,0.221,0.15,0.29,0.62,0.29v0.16
		h-2.029v-0.16c0.43-0.01,0.56-0.159,0.68-0.629l1.149-4.318c0.11-0.399,0.16-0.659,0.16-0.709c0-0.24-0.28-0.271-0.44-0.271h-0.22
		l-0.02-0.149l1.559-0.22c0.03,0,0.05,0.02,0.05,0.04c0,0-0.01,0.05-0.02,0.09L90.71,144.123z M92.049,143.423
		c-0.53,0-1.12,0.539-1.349,1.139c-0.29,0.75-0.65,2.039-0.65,2.379c0,0.22,0.2,0.38,0.48,0.38c0.53,0,1.009-0.33,1.449-0.949
		c0.479-0.67,0.689-1.399,0.689-2.099C92.669,143.703,92.499,143.423,92.049,143.423z"/>
	<path fill="#231F20" d="M95.79,140.714c0.47,0.84,0.63,1.229,0.8,1.969c0.12,0.561,0.189,1.14,0.189,1.68
		c0,1.009-0.28,1.959-0.779,2.818c-0.39,0.67-0.91,1.229-1.819,2.019l-0.13-0.149c0.84-0.89,1.209-1.56,1.549-2.619
		c0.31-0.959,0.49-2.108,0.49-3.048c0-1-0.15-1.81-0.49-2.619L95.79,140.714z"/>
</g>
<g>
	<path fill="#231F20" d="M169.172,164.409c0,1.419-0.589,2.179-1.699,2.179c-0.54,0-0.93-0.229-0.93-0.55
		c0-0.22,0.18-0.39,0.41-0.39c0.16,0,0.3,0.09,0.48,0.32c0.17,0.209,0.27,0.279,0.42,0.279c0.14,0,0.28-0.08,0.34-0.18
		c0.11-0.2,0.14-0.45,0.14-1.209v-3.788c0-0.43-0.09-0.6-0.32-0.6c-0.1,0-0.24,0-0.4,0.029l-0.05,0.011v-0.16
		c0.59-0.18,0.969-0.31,1.559-0.54l0.05,0.03V164.409z M168.663,158.602c-0.28,0-0.5-0.22-0.5-0.51c0-0.28,0.23-0.51,0.51-0.51
		s0.51,0.229,0.51,0.51C169.183,158.382,168.963,158.602,168.663,158.602z"/>
	<path fill="#231F20" d="M173.631,159.811c1.33,0,2.339,0.74,2.339,2.489c0,0.739-0.16,1.279-0.48,1.648
		c-0.32,0.37-0.689,0.56-1.109,0.56c-0.58,0-1-0.319-1.239-0.959c-0.28,0.64-0.7,0.959-1.259,0.959c-0.4,0-0.759-0.189-1.089-0.56
		c-0.33-0.38-0.479-0.919-0.479-1.629c0-1.749,1.029-2.509,2.338-2.509v0.15c-0.83,0-1.439,0.81-1.439,2.269
		c0,0.919,0.11,1.999,0.81,1.999c0.45,0,0.729-0.46,0.85-1.279c-0.12-0.39-0.18-0.62-0.18-1.05c0-0.729,0.22-0.979,0.45-0.979
		s0.45,0.28,0.45,0.96c0,0.399-0.06,0.649-0.18,1.069c0.09,0.81,0.47,1.279,0.819,1.279c0.76,0,0.84-0.979,0.84-1.899
		c0-1.539-0.51-2.368-1.439-2.368V159.811z"/>
	<path fill="#231F20" d="M177.387,163.741c0.308-0.386,0.616-0.554,1.008-0.554c0.679,0,1.17,0.623,1.17,1.492
		c0,1.015-0.638,1.8-1.471,1.8c-0.294,0-0.455-0.07-0.707-0.302v1.1c0,0.441,0.091,0.519,0.616,0.525v0.126h-1.695v-0.119
		c0.413-0.042,0.49-0.119,0.49-0.482v-3.278c0-0.329-0.049-0.399-0.287-0.399c-0.063,0-0.112,0-0.175,0.007v-0.111
		c0.385-0.119,0.637-0.21,1.009-0.357l0.042,0.014V163.741z M177.387,165.792c0,0.21,0.399,0.462,0.728,0.462
		c0.504,0,0.848-0.525,0.848-1.296c0-0.819-0.343-1.352-0.861-1.352c-0.322,0-0.714,0.252-0.714,0.463V165.792z"/>
</g>
<g>
	<path fill="#231F20" d="M169.742,119.194c-1.709,0-2.259-1.858-2.259-3.498c0-1.769,0.69-3.397,2.299-3.397
		c1.309,0,2.219,1.409,2.219,3.458C172.001,117.475,171.372,119.194,169.742,119.194z M169.722,112.558
		c-0.83,0-1.279,1.179-1.279,3.208c0,2.028,0.44,3.168,1.299,3.168c0.85,0,1.299-1.149,1.299-3.128
		C171.042,113.727,170.602,112.558,169.722,112.558z"/>
</g>
<g>
	<path fill="#231F20" d="M169.172,39.685c0,1.419-0.589,2.179-1.699,2.179c-0.54,0-0.93-0.229-0.93-0.55c0-0.22,0.18-0.39,0.41-0.39
		c0.16,0,0.3,0.09,0.48,0.32c0.17,0.209,0.27,0.279,0.42,0.279c0.14,0,0.28-0.08,0.34-0.18c0.11-0.2,0.14-0.45,0.14-1.209v-3.788
		c0-0.43-0.09-0.6-0.32-0.6c-0.1,0-0.24,0-0.4,0.029l-0.05,0.011v-0.16c0.59-0.18,0.969-0.31,1.559-0.54l0.05,0.03V39.685z
		 M168.663,33.878c-0.28,0-0.5-0.22-0.5-0.51c0-0.28,0.23-0.51,0.51-0.51s0.51,0.229,0.51,0.51
		C169.183,33.658,168.963,33.878,168.663,33.878z"/>
	<path fill="#231F20" d="M173.631,35.087c1.33,0,2.339,0.74,2.339,2.489c0,0.739-0.16,1.279-0.48,1.648
		c-0.32,0.37-0.689,0.56-1.109,0.56c-0.58,0-1-0.319-1.239-0.959c-0.28,0.64-0.7,0.959-1.259,0.959c-0.4,0-0.759-0.189-1.089-0.56
		c-0.33-0.38-0.479-0.919-0.479-1.629c0-1.749,1.029-2.509,2.338-2.509v0.15c-0.83,0-1.439,0.81-1.439,2.269
		c0,0.919,0.11,1.999,0.81,1.999c0.45,0,0.729-0.46,0.85-1.279c-0.12-0.39-0.18-0.62-0.18-1.05c0-0.729,0.22-0.979,0.45-0.979
		s0.45,0.28,0.45,0.96c0,0.399-0.06,0.649-0.18,1.069c0.09,0.81,0.47,1.279,0.819,1.279c0.76,0,0.84-0.979,0.84-1.899
		c0-1.539-0.51-2.368-1.439-2.368V35.087z"/>
</g>
<g>
	<path fill="#231F20" d="M38.613,112.562c0.47,0.72,1.25,0.689,1.25,1.779c0,0.989-1,1.979-2.279,1.979
		c-1.139,0-2.099-1.069-2.099-2.248c0-1.619,0.979-2.349,2.099-2.349h2.789v0.839H38.613z M37.923,112.562
		c-0.58,0-1.539,0.2-1.539,1.319c0,1.149,0.72,2.159,1.419,2.159c0.79,0,1.16-0.78,1.16-1.529
		C38.963,113.702,38.483,112.802,37.923,112.562z"/>
	<path fill="#231F20" d="M41.789,115.552c0.308-0.386,0.616-0.554,1.008-0.554c0.68,0,1.17,0.623,1.17,1.492
		c0,1.015-0.638,1.8-1.471,1.8c-0.294,0-0.455-0.07-0.707-0.302v1.1c0,0.441,0.091,0.519,0.616,0.525v0.126H40.71v-0.119
		c0.413-0.042,0.49-0.119,0.49-0.482v-3.278c0-0.329-0.049-0.399-0.287-0.399c-0.063,0-0.112,0-0.175,0.007v-0.111
		c0.385-0.119,0.637-0.21,1.009-0.357l0.042,0.014V115.552z M41.789,117.604c0,0.21,0.399,0.462,0.728,0.462
		c0.504,0,0.848-0.525,0.848-1.296c0-0.819-0.343-1.352-0.861-1.352c-0.322,0-0.714,0.252-0.714,0.463V117.604z"/>
</g>
<g>
	<path fill="#231F20" d="M139.576,126.735c0.47,0.72,1.25,0.689,1.25,1.779c0,0.989-1,1.979-2.279,1.979
		c-1.139,0-2.099-1.069-2.099-2.248c0-1.619,0.979-2.349,2.099-2.349h2.789v0.839H139.576z M138.886,126.735
		c-0.58,0-1.539,0.2-1.539,1.319c0,1.149,0.72,2.159,1.419,2.159c0.79,0,1.16-0.78,1.16-1.529
		C139.926,127.875,139.446,126.975,138.886,126.735z"/>
</g>
<g>
	<path fill="#231F20" d="M77.136,104.446l-5.293-4.42l0.423-0.506l5.293,4.42L77.136,104.446z"/>
	<path fill="#231F20" d="M79.383,96.827L79.28,96.95c-0.7-0.455-1.146-0.436-1.46-0.061c-0.225,0.269-0.225,0.582,0.059,0.818
		c0.208,0.173,0.527,0.244,1.129,0.238c0.766-0.012,1.18,0.1,1.479,0.35c0.638,0.532,0.639,1.326,0.106,1.963
		c-0.108,0.131-0.212,0.239-0.429,0.358c-0.184,0.095-0.281,0.196-0.352,0.28s-0.103,0.201-0.024,0.356l-0.103,0.122l-1.092-1.171
		l0.103-0.122c0.819,0.5,1.351,0.502,1.685,0.104c0.301-0.36,0.271-0.763-0.104-1.076c-0.246-0.205-0.615-0.293-1.242-0.308
		c-0.689-0.016-1.163-0.151-1.408-0.355c-0.507-0.423-0.527-1.052-0.053-1.62c0.108-0.131,0.221-0.219,0.435-0.365
		c0.167-0.107,0.233-0.17,0.284-0.231c0.096-0.115,0.11-0.194,0.054-0.347l0.09-0.107L79.383,96.827z"/>
	<path fill="#231F20" d="M80.839,96.361l-0.506-0.423l3.229-3.867l0.506,0.423L80.839,96.361z"/>
	<path fill="#231F20" d="M84.977,89.721c-0.275-0.934-0.154-1.576,0.229-2.036c0.474-0.567,1.097-0.581,1.695-0.082
		c1.267,1.058,1.542,3.253,0.606,4.374c-0.147,0.176-0.313,0.312-0.572,0.42c0.428,0.578,0.91,1.28,1.017,1.369
		c0.169,0.143,0.319,0.072,0.62-0.289l0.123,0.103l-1.301,1.558l-0.123-0.103c0.269-0.337,0.236-0.532-0.047-0.925l-2.578-3.65
		c-0.236-0.34-0.404-0.545-0.441-0.576c-0.186-0.154-0.387,0.041-0.49,0.163l-0.141,0.169l-0.127-0.08l0.83-1.338
		c0.02-0.023,0.047-0.025,0.063-0.014c0,0,0.031,0.041,0.057,0.074L84.977,89.721z M85.299,88.245
		c-0.34,0.406-0.304,1.204,0.01,1.765c0.39,0.704,1.148,1.806,1.41,2.024c0.168,0.141,0.419,0.09,0.599-0.125
		c0.339-0.406,0.394-0.986,0.2-1.721c-0.207-0.799-0.633-1.427-1.17-1.875C85.91,87.948,85.588,87.899,85.299,88.245z"/>
	<path fill="#231F20" d="M91.189,87.612l-5.293-4.42l0.424-0.506l5.293,4.42L91.189,87.612z"/>
</g>
<g>
	<path fill="#993300" d="M22.073,81.105c0.647-0.972,1.331-1.355,2.051-1.355c0.887,0,1.379,0.563,1.379,1.499
		c0,1.979-1.811,3.922-3.563,3.922c-0.275,0-0.527-0.048-0.827-0.204c-0.204,0.84-0.48,1.823-0.48,1.991
		c0,0.264,0.18,0.348,0.744,0.348v0.192h-2.435v-0.192c0.516-0.012,0.671-0.191,0.815-0.756l1.379-5.181
		c0.132-0.479,0.192-0.792,0.192-0.852c0-0.288-0.336-0.324-0.528-0.324h-0.264l-0.024-0.18l1.871-0.264
		c0.036,0,0.06,0.024,0.06,0.048c0,0-0.012,0.061-0.024,0.108L22.073,81.105z M23.68,80.265c-0.636,0-1.343,0.647-1.619,1.367
		c-0.348,0.899-0.779,2.446-0.779,2.854c0,0.264,0.24,0.456,0.575,0.456c0.636,0,1.211-0.396,1.739-1.14
		c0.576-0.804,0.828-1.679,0.828-2.519C24.424,80.601,24.22,80.265,23.68,80.265z"/>
	<path fill="#993300" d="M28.446,77.957c0.084,0.042,0.217,0.112,0.441,0.141c0.315,0.042,0.448,0.146,0.448,0.308
		c0,0.176-0.112,0.26-0.266,0.26c-0.105,0-0.189-0.063-0.322-0.225c-0.182-0.23-0.28-0.28-0.497-0.434l-0.126-0.092
		c0.007,0.371,0.035,0.525,0.14,0.819c0.042,0.127,0.056,0.176,0.056,0.238c0,0.168-0.063,0.28-0.259,0.28
		c-0.182,0-0.259-0.112-0.259-0.266c0-0.063,0.021-0.141,0.07-0.287c0.091-0.253,0.126-0.428,0.126-0.785
		c-0.021,0.021-0.049,0.035-0.112,0.07c-0.217,0.133-0.301,0.196-0.497,0.441c-0.119,0.146-0.238,0.231-0.357,0.231
		c-0.133,0-0.245-0.077-0.245-0.225c0-0.168,0.133-0.287,0.434-0.336c0.329-0.057,0.427-0.099,0.729-0.28l-0.084-0.049
		c-0.119-0.07-0.357-0.189-0.651-0.225c-0.287-0.035-0.427-0.14-0.427-0.308c0-0.141,0.091-0.273,0.231-0.273
		c0.112,0,0.203,0.056,0.343,0.217c0.231,0.26,0.364,0.371,0.637,0.532c0-0.301-0.028-0.427-0.126-0.749
		c-0.042-0.14-0.056-0.231-0.056-0.294c0-0.176,0.07-0.294,0.245-0.294c0.161,0,0.252,0.126,0.252,0.287
		c0,0.076-0.028,0.168-0.077,0.336c-0.07,0.224-0.112,0.399-0.112,0.729c0.308-0.203,0.322-0.218,0.7-0.616
		c0.105-0.119,0.175-0.147,0.266-0.147c0.161,0,0.245,0.119,0.245,0.273c0,0.153-0.098,0.266-0.399,0.301
		c-0.33,0.042-0.448,0.098-0.75,0.287L28.446,77.957z"/>
</g>
<g>
	<path fill="#231F20" d="M143.047,24.724h-0.192c-0.12-0.995-0.48-1.392-1.067-1.392c-0.42,0-0.708,0.24-0.708,0.684
		c0,0.324,0.18,0.672,0.648,1.224c0.6,0.695,0.815,1.163,0.815,1.631c0,0.996-0.731,1.607-1.727,1.607
		c-0.204,0-0.384-0.012-0.66-0.12c-0.228-0.096-0.396-0.107-0.528-0.107s-0.264,0.06-0.348,0.252h-0.192l0.24-1.907h0.192
		c0.168,1.14,0.576,1.631,1.2,1.631c0.563,0,0.911-0.336,0.911-0.923c0-0.384-0.204-0.792-0.671-1.38
		c-0.516-0.647-0.756-1.188-0.756-1.571c0-0.791,0.564-1.295,1.451-1.295c0.204,0,0.372,0.036,0.672,0.12
		c0.228,0.071,0.336,0.084,0.432,0.084c0.18,0,0.264-0.048,0.36-0.216h0.168L143.047,24.724z"/>
</g>
<g>
	<g>
		
			<line fill="none" stroke="#00ADEE" stroke-width="0.75" stroke-miterlimit="10" x1="39.686" y1="161.575" x2="134.761" y2="42.05"/>
		<g>
			<polygon fill="#00ADEE" points="135.47,44.513 138.827,36.794 132.059,41.8 			"/>
		</g>
	</g>
</g>
<circle fill="none" stroke="#993300" stroke-width="2" stroke-miterlimit="10" cx="107.958" cy="122.131" r="5.426"/>
<line fill="none" stroke="#231F20" stroke-miterlimit="10" x1="39.685" y1="161.574" x2="39.686" y2="161.575"/>
<g>
	<line fill="#00A551" x1="39.685" y1="161.454" x2="164.409" y2="161.454"/>
	<g>
		
			<line fill="none" stroke="#929497" stroke-width="0.5" stroke-miterlimit="10" x1="39.685" y1="161.454" x2="43.393" y2="161.454"/>
		
			<line fill="none" stroke="#929497" stroke-width="0.5" stroke-miterlimit="10" stroke-dasharray="7.8206,7.8206" x1="51.213" y1="161.454" x2="156.791" y2="161.454"/>
		
			<line fill="none" stroke="#929497" stroke-width="0.5" stroke-miterlimit="10" x1="160.701" y1="161.454" x2="164.409" y2="161.454"/>
	</g>
</g>
<g>
	<line fill="#00A551" x1="138.897" y1="36.85" x2="164.409" y2="36.85"/>
	<g>
		<line fill="none" stroke="#929497" stroke-width="0.5" stroke-miterlimit="10" x1="138.897" y1="36.85" x2="140.575" y2="36.85"/>
		
			<line fill="none" stroke="#929497" stroke-width="0.5" stroke-miterlimit="10" stroke-dasharray="3.1654,3.1654" x1="143.74" y1="36.85" x2="161.149" y2="36.85"/>
		<line fill="none" stroke="#929497" stroke-width="0.5" stroke-miterlimit="10" x1="162.732" y1="36.85" x2="164.409" y2="36.85"/>
	</g>
</g>
<g>
	<line fill="#00A551" x1="39.685" y1="161.574" x2="39.685" y2="121.889"/>
	<g>
		
			<line fill="none" stroke="#929497" stroke-width="0.5" stroke-miterlimit="10" x1="39.685" y1="161.574" x2="39.685" y2="159.482"/>
		
			<line fill="none" stroke="#929497" stroke-width="0.5" stroke-miterlimit="10" stroke-dasharray="3.9446,3.9446" x1="39.685" y1="155.538" x2="39.685" y2="125.953"/>
		
			<line fill="none" stroke="#929497" stroke-width="0.5" stroke-miterlimit="10" x1="39.685" y1="123.981" x2="39.685" y2="121.889"/>
	</g>
</g>
<g>
	<line fill="#00A551" x1="138.897" y1="121.89" x2="138.897" y2="39.686"/>
	<g>
		
			<line fill="none" stroke="#929497" stroke-width="0.5" stroke-miterlimit="10" x1="138.897" y1="121.89" x2="138.897" y2="118.879"/>
		
			<line fill="none" stroke="#929497" stroke-width="0.5" stroke-miterlimit="10" stroke-dasharray="5.8603,5.8603" x1="138.897" y1="113.019" x2="138.897" y2="45.626"/>
		
			<line fill="none" stroke="#929497" stroke-width="0.5" stroke-miterlimit="10" x1="138.897" y1="42.696" x2="138.897" y2="39.686"/>
	</g>
</g>
<g>
	<g>
		<path fill="none" stroke="#231F20" stroke-width="0.5" stroke-miterlimit="10" d="M68.793,161.742
			c-0.745-8.476-6.176-14.082-11.715-19.624"/>
		<g>
			<polygon fill="#231F20" points="59.692,141.884 59.667,142.384 57.205,142.258 57.259,144.723 56.758,144.734 56.693,141.732 			
				"/>
		</g>
	</g>
</g>
<circle fill="#231F20" cx="138.897" cy="36.85" r="2.835"/>
<g>
	<path fill="#993300" d="M24.908,160.475c0.647-0.972,1.331-1.355,2.051-1.355c0.887,0,1.379,0.563,1.379,1.499
		c0,1.979-1.811,3.922-3.563,3.922c-0.275,0-0.527-0.048-0.827-0.204c-0.204,0.84-0.48,1.823-0.48,1.991
		c0,0.264,0.18,0.348,0.744,0.348v0.192h-2.435v-0.192c0.516-0.012,0.671-0.191,0.815-0.756l1.379-5.181
		c0.132-0.479,0.192-0.792,0.192-0.852c0-0.288-0.336-0.324-0.528-0.324h-0.264l-0.024-0.18l1.871-0.264
		c0.036,0,0.06,0.024,0.06,0.048c0,0-0.012,0.061-0.024,0.108L24.908,160.475z M26.515,159.635c-0.636,0-1.343,0.647-1.619,1.367
		c-0.348,0.899-0.779,2.446-0.779,2.854c0,0.264,0.24,0.456,0.575,0.456c0.636,0,1.211-0.396,1.739-1.14
		c0.576-0.804,0.828-1.679,0.828-2.519C27.258,159.971,27.054,159.635,26.515,159.635z"/>
</g>
</svg>
