<?xml version="1.0" encoding="utf-8"?>
<!-- Generator: Adobe Illustrator 15.0.0, SVG Export Plug-In . SVG Version: 6.00 Build 0)  -->
<!DOCTYPE svg PUBLIC "-//W3C//DTD SVG 1.0//EN" "http://www.w3.org/TR/2001/REC-SVG-20010904/DTD/svg10.dtd">
<svg version="1.0" id="Layer_1" xmlns="http://www.w3.org/2000/svg" xmlns:xlink="http://www.w3.org/1999/xlink" x="0px" y="0px"
	 width="433.701px" height="351.496px" viewBox="0 0 433.701 351.496" enable-background="new 0 0 433.701 351.496"
	 xml:space="preserve">
<rect x="79.371" y="195.59" fill="#E8E7F3" width="255.118" height="150.237"/>
<rect x="197.48" y="243.779" fill="#FFFFFF" stroke="#231F20" stroke-miterlimit="10" width="42.992" height="68.032"/>
<polyline fill="none" stroke="#231F20" stroke-miterlimit="10" points="212.441,243.779 219.607,249.963 226.771,243.779 "/>
<polyline fill="#FFFFFF" stroke="#231F20" stroke-miterlimit="10" points="317.48,280.629 348.661,280.629 348.661,283.464 
	354.33,274.96 348.661,266.456 348.661,269.291 317.48,269.291 "/>
<polyline fill="#FFFFFF" stroke="#231F20" stroke-miterlimit="10" points="164.41,280.629 195.59,280.629 195.59,283.464 
	201.26,274.96 195.59,266.456 195.59,269.291 164.41,269.291 "/>
<line fill="none" stroke="#231F20" stroke-miterlimit="10" x1="272.125" y1="269.291" x2="263.622" y2="269.291"/>
<rect x="90.709" y="5.668" fill="#E8E7F3" width="238.11" height="133.229"/>
<text transform="matrix(1 0 0 1 193.8667 25.5117)" fill="#231F20" font-family="'MyriadPro-Regular'" font-size="21">FSM</text>
<g>
	<g>
		<line fill="none" stroke="#231F20" stroke-miterlimit="10" x1="240.945" y1="76.534" x2="273.404" y2="76.534"/>
		<g>
			<polygon fill="#231F20" points="270.091,80.624 269.409,79.892 273.021,76.535 269.409,73.178 270.091,72.445 274.489,76.535 			
				"/>
		</g>
	</g>
</g>
<g>
	<g>
		<line fill="none" stroke="#231F20" stroke-miterlimit="10" x1="164.41" y1="76.534" x2="196.396" y2="76.534"/>
		<g>
			<polygon fill="#231F20" points="193.083,80.624 192.4,79.892 196.012,76.535 192.4,73.178 193.083,72.445 197.48,76.535 			"/>
		</g>
	</g>
</g>
<g>
	<rect x="197.48" y="42.518" fill="#FFFFFF" stroke="#231F20" stroke-miterlimit="10" width="42.992" height="68.032"/>
	<line fill="none" stroke="#231F20" stroke-miterlimit="10" x1="211.812" y1="110.55" x2="218.976" y2="104.366"/>
	<line fill="none" stroke="#231F20" stroke-miterlimit="10" x1="218.976" y1="104.366" x2="226.142" y2="110.55"/>
</g>
<text transform="matrix(1 0 0 1 210.9727 70.8652)"><tspan x="0" y="0" fill="#231F20" font-family="'MyriadPro-Regular'" font-size="9">state</tspan><tspan x="-5.107" y="10.8" fill="#231F20" font-family="'MyriadPro-Regular'" font-size="9">register</tspan></text>
<rect x="274.488" y="42.518" fill="#FFFFFF" stroke="#231F20" stroke-miterlimit="10" width="42.992" height="68.032"/>
<g>
	<g>
		<line fill="none" stroke="#231F20" stroke-miterlimit="10" x1="204.094" y1="150.236" x2="204.094" y2="111.635"/>
		<g>
			<polygon fill="#231F20" points="208.184,114.949 207.452,115.631 204.095,112.019 200.738,115.631 200.005,114.949 
				204.095,110.551 			"/>
		</g>
	</g>
</g>
<line fill="none" stroke="#231F20" stroke-miterlimit="10" x1="218.268" y1="150.236" x2="218.268" y2="110.551"/>
<g>
	<g>
		<line fill="none" stroke="#231F20" stroke-miterlimit="10" x1="204.094" y1="150.236" x2="204.094" y2="242.694"/>
		<g>
			<polygon fill="#231F20" points="200.004,239.381 200.737,238.699 204.093,242.311 207.451,238.699 208.183,239.381 
				204.093,243.779 			"/>
		</g>
	</g>
</g>
<line fill="none" stroke="#231F20" stroke-miterlimit="10" x1="218.268" y1="150.236" x2="218.268" y2="243.779"/>
<g>
	<g>
		<polyline fill="none" stroke="#231F20" stroke-miterlimit="10" points="120.805,76.39 102.047,76.39 102.047,127.559 
			255.118,127.559 255.118,76.535 		"/>
		<g>
			<polygon fill="#231F20" points="117.492,72.3 116.81,73.033 120.421,76.389 116.81,79.747 117.492,80.479 121.89,76.389 			"/>
		</g>
	</g>
</g>
<rect x="121.89" y="42.518" fill="#FFFFFF" stroke="#231F20" stroke-miterlimit="10" width="42.992" height="68.032"/>
<text transform="matrix(1 0 0 1 136.2417 68.0313)"><tspan x="0" y="0" fill="#231F20" font-family="'MyriadPro-Regular'" font-size="9">next</tspan><tspan x="-0.86" y="10.8" fill="#231F20" font-family="'MyriadPro-Regular'" font-size="9">state </tspan><tspan x="-0.792" y="21.6" fill="#231F20" font-family="'MyriadPro-Regular'" font-size="9">logic</tspan></text>
<text transform="matrix(1 0 0 1 285.6182 68.0313)"><tspan x="0" y="0" fill="#231F20" font-family="'MyriadPro-Regular'" font-size="9">state</tspan><tspan x="-3.784" y="10.8" fill="#231F20" font-family="'MyriadPro-Regular'" font-size="9">output </tspan><tspan x="0.068" y="21.6" fill="#231F20" font-family="'MyriadPro-Regular'" font-size="9">logic</tspan></text>
<text transform="matrix(1 0 0 1 359.9995 269.2905)"><tspan x="0" y="0" fill="#231F20" font-family="'MyriadPro-Regular'" font-size="7">rx </tspan><tspan x="0" y="6" fill="#231F20" font-family="'MyriadPro-Regular'" font-size="7">rxValid</tspan><tspan x="0" y="12" fill="#231F20" font-family="'MyriadPro-Regular'" font-size="7">MISO</tspan></text>
<text transform="matrix(1 0 0 1 163.7749 340.1567)" fill="#231F20" font-family="'MyriadPro-Regular'" font-size="21">Data path</text>
<line fill="none" stroke="#231F20" stroke-miterlimit="10" x1="48.189" y1="153.07" x2="218.27" y2="153.07"/>
<line fill="none" stroke="#231F20" stroke-miterlimit="10" x1="317.479" y1="76.535" x2="345.826" y2="76.535"/>
<line fill="none" stroke="#231F20" stroke-miterlimit="10" x1="48.188" y1="164.409" x2="204.095" y2="164.409"/>
<line fill="none" stroke="#231F20" stroke-miterlimit="10" x1="345.827" y1="76.535" x2="345.827" y2="178.582"/>
<text transform="matrix(1 0 0 1 211.792 272.1255)"><tspan x="0" y="0" fill="#231F20" font-family="'MyriadPro-Regular'" font-size="9">data</tspan><tspan x="-7.708" y="10.8" fill="#231F20" font-family="'MyriadPro-Regular'" font-size="9">registers</tspan></text>
<text transform="matrix(1 0 0 1 172.6118 246.6138)"><tspan x="0" y="0" fill="#231F20" font-family="'MyriadPro-Regular'" font-size="7">nData </tspan><tspan x="3.36" y="6" fill="#231F20" font-family="'MyriadPro-Regular'" font-size="7">nRx </tspan><tspan x="-3.798" y="12" fill="#231F20" font-family="'MyriadPro-Regular'" font-size="7">nRxAvail </tspan><tspan x="-2.069" y="18" fill="#231F20" font-family="'MyriadPro-Regular'" font-size="7">nMISOr</tspan></text>
<text transform="matrix(1 0 0 1 324.5098 73.7007)" fill="#231F20" font-family="'MyriadPro-Regular'" font-size="7">state</text>
<text transform="matrix(1 0 0 1 247.9746 73.7007)" fill="#231F20" font-family="'MyriadPro-Regular'" font-size="7">state</text>
<text transform="matrix(1 0 0 1 169.1572 73.7007)" fill="#231F20" font-family="'MyriadPro-Regular'" font-size="7">nState</text>
<text transform="matrix(1 0 0 1 202.2114 107.7163)" fill="#231F20" font-family="'MyriadPro-Regular'" font-size="7">R</text>
<text transform="matrix(1 0 0 1 202.2114 252.2827)" fill="#231F20" font-family="'MyriadPro-Regular'" font-size="7">R</text>
<text transform="matrix(1 0 0 1 251.4463 289.1333)"><tspan x="0" y="0" fill="#231F20" font-family="'MyriadPro-Regular'" font-size="7">data </tspan><tspan x="3.741" y="6" fill="#231F20" font-family="'MyriadPro-Regular'" font-size="7">rx </tspan><tspan x="-3.416" y="12" fill="#231F20" font-family="'MyriadPro-Regular'" font-size="7">rxAvail </tspan><tspan x="-2.426" y="18" fill="#231F20" font-family="'MyriadPro-Regular'" font-size="7">MISOr</tspan></text>
<text transform="matrix(1 0 0 1 23.5078 283.4639)"><tspan x="0" y="0" fill="#231F20" font-family="'MyriadPro-Regular'" font-size="7">MOSI_s </tspan><tspan x="-5.894" y="6" fill="#231F20" font-family="'MyriadPro-Regular'" font-size="7">SS_active </tspan><tspan x="-12.397" y="12" fill="#231F20" font-family="'MyriadPro-Regular'" font-size="7">SCLK_rising </tspan><tspan x="16.289" y="18" fill="#231F20" font-family="'MyriadPro-Regular'" font-size="7">tx</tspan></text>
<text transform="matrix(1 0 0 1 27.5186 155.9048)" fill="#231F20" font-family="'MyriadPro-Regular'" font-size="7">sysClk</text>
<text transform="matrix(1 0 0 1 20.5679 167.2432)" fill="#231F20" font-family="'MyriadPro-Regular'" font-size="7">usrReset</text>
<g>
	<g>
		<path fill="none" stroke="#231F20" stroke-miterlimit="10" d="M345.827,178.582l-274.96-0.122c0,8.626,0,96.5,0,96.5h49.94"/>
		<g>
			<polygon fill="#231F20" points="117.492,279.05 116.81,278.317 120.422,274.961 116.81,271.604 117.492,270.871 121.89,274.961 
							"/>
		</g>
	</g>
</g>
<rect x="121.89" y="243.779" fill="#FFFFFF" stroke="#231F20" stroke-miterlimit="10" width="42.992" height="68.032"/>
<polyline fill="#FFFFFF" stroke="#231F20" stroke-miterlimit="10" points="48.189,297.637 119.055,297.637 119.055,300.472 
	124.725,291.968 119.055,283.464 119.055,286.298 48.189,286.298 "/>
<text transform="matrix(1 0 0 1 136.2417 269.2905)"><tspan x="0" y="0" fill="#231F20" font-family="'MyriadPro-Regular'" font-size="9">next</tspan><tspan x="-0.041" y="10.8" fill="#231F20" font-family="'MyriadPro-Regular'" font-size="9">data </tspan><tspan x="-0.792" y="21.6" fill="#231F20" font-family="'MyriadPro-Regular'" font-size="9">logic</tspan></text>
<rect x="274.488" y="243.779" fill="#FFFFFF" stroke="#231F20" stroke-miterlimit="10" width="42.992" height="68.032"/>
<polyline fill="#FFFFFF" stroke="#231F20" stroke-miterlimit="10" points="240.945,280.629 272.125,280.629 272.125,283.464 
	277.795,274.96 272.125,266.456 272.125,269.291 263.622,269.291 263.622,212.598 87.874,212.598 87.874,263.622 103.464,263.622 
	119.055,263.622 119.055,265.039 119.055,266.457 121.889,262.205 124.724,257.953 121.889,253.701 119.055,249.449 
	119.055,250.866 119.055,252.283 99.212,252.283 99.212,223.937 252.283,223.937 252.283,269.291 240.945,269.291 "/>
<text transform="matrix(1 0 0 1 286.4375 269.2905)"><tspan x="0" y="0" fill="#231F20" font-family="'MyriadPro-Regular'" font-size="9">data </tspan><tspan x="-4.604" y="10.8" fill="#231F20" font-family="'MyriadPro-Regular'" font-size="9">output</tspan><tspan x="-0.751" y="21.6" fill="#231F20" font-family="'MyriadPro-Regular'" font-size="9">logic</tspan></text>
</svg>
