<?xml version="1.0" encoding="utf-8"?>
<!-- Generator: Adobe Illustrator 15.0.0, SVG Export Plug-In . SVG Version: 6.00 Build 0)  -->
<!DOCTYPE svg PUBLIC "-//W3C//DTD SVG 1.0//EN" "http://www.w3.org/TR/2001/REC-SVG-20010904/DTD/svg10.dtd">
<svg version="1.0" id="Layer_1" xmlns="http://www.w3.org/2000/svg" xmlns:xlink="http://www.w3.org/1999/xlink" x="0px" y="0px"
	 width="223.696px" height="110.551px" viewBox="0 110.551 223.696 110.551" enable-background="new 0 110.551 223.696 110.551"
	 xml:space="preserve">
<rect x="93.543" y="119.055" fill="#EAEAFF" stroke="#231F20" stroke-width="2" stroke-miterlimit="10" width="45.354" height="73.701"/>
<text transform="matrix(1 0 0 1 2.856 212.7639)" fill="#231F20" font-family="'MyriadPro-Regular'" font-size="21.3919">sysClk</text>
<text transform="matrix(1 0 0 1 40.4839 158.7405)" fill="#231F20" font-family="'MyriadPro-Regular'" font-size="21.3919">in</text>
<text transform="matrix(1 0 0 1 184.3618 158.7405)" fill="#231F20" font-family="'MyriadPro-Regular'" font-size="21.3919">out</text>
<text transform="matrix(1 0 0 1 98.0508 155.9055)" fill="#231F20" font-family="'MyriadPro-Regular'" font-size="12">D</text>
<line fill="none" stroke="#231F20" stroke-miterlimit="10" x1="110.551" y1="192.756" x2="116.22" y2="187.087"/>
<line fill="none" stroke="#231F20" stroke-miterlimit="10" x1="116.22" y1="187.087" x2="121.889" y2="192.756"/>
<line fill="none" stroke="#231F20" stroke-miterlimit="10" x1="116.22" y1="192.756" x2="116.22" y2="209.764"/>
<g>
	<g>
		<line fill="none" stroke="#231F20" stroke-miterlimit="10" x1="92.458" y1="153.071" x2="62.362" y2="153.071"/>
		<g>
			<polygon fill="#231F20" points="89.145,148.981 88.463,149.714 92.075,153.07 88.463,156.428 89.145,157.16 93.543,153.07 			"/>
		</g>
	</g>
</g>
<g>
	<g>
		<line fill="none" stroke="#231F20" stroke-miterlimit="10" x1="177.498" y1="153.071" x2="138.897" y2="153.071"/>
		<g>
			<polygon fill="#231F20" points="174.184,148.981 173.502,149.714 177.114,153.07 173.502,156.428 174.184,157.16 178.582,153.07 
							"/>
		</g>
	</g>
</g>
<line fill="none" stroke="#231F20" stroke-miterlimit="10" x1="62.362" y1="209.764" x2="116.22" y2="209.764"/>
</svg>
