<?xml version="1.0" encoding="utf-8"?>
<!-- Generator: Adobe Illustrator 15.0.0, SVG Export Plug-In . SVG Version: 6.00 Build 0)  -->
<!DOCTYPE svg PUBLIC "-//W3C//DTD SVG 1.1//EN" "http://www.w3.org/Graphics/SVG/1.1/DTD/svg11.dtd">
<svg version="1.1" id="Layer_1" xmlns="http://www.w3.org/2000/svg" xmlns:xlink="http://www.w3.org/1999/xlink" x="0px" y="0px"
	 width="518.74px" height="198.425px" viewBox="0 0 518.74 198.425" enable-background="new 0 0 518.74 198.425"
	 xml:space="preserve">
<text transform="matrix(1 0 0 1 473.2036 76.5352)" fill="#00ADEE" font-family="'MyriadPro-Regular'" font-size="18">MISO</text>
<text transform="matrix(1 0 0 1 439.188 48.189)" fill="#00A551" font-family="'MyriadPro-Regular'" font-size="18">MOSI</text>
<text transform="matrix(1 0 0 1 381.9624 36.8501)" fill="#231F20" font-family="'MyriadPro-Regular'" font-size="18">SCLK</text>
<text transform="matrix(1 0 0 1 118.6851 136.0635)" fill="#F6921E" font-family="'MyriadPro-Regular'" font-size="18">SS</text>
<line fill="none" stroke="#272525" stroke-miterlimit="10" x1="102.047" y1="42.52" x2="419.528" y2="42.52"/>
<rect x="283.464" y="144.566" fill="#E8E7F3" stroke="#272525" stroke-miterlimit="10" width="85.041" height="42.521"/>
<text transform="matrix(1 0 0 1 293.5127 175.748)" fill="#231F20" font-family="'MyriadPro-Regular'" font-size="24">Slave2</text>
<g>
	<g>
		<line fill="none" stroke="#272525" stroke-miterlimit="10" x1="300.473" y1="42.521" x2="300.473" y2="143.481"/>
		<g>
			<polygon fill="#272525" points="296.383,140.169 297.115,139.486 300.472,143.099 303.829,139.486 304.562,140.169 
				300.472,144.566 			"/>
		</g>
	</g>
</g>
<g>
	<g>
		<line fill="none" stroke="#F6921E" stroke-miterlimit="10" x1="317.48" y1="99.212" x2="317.48" y2="143.481"/>
		<g>
			<polygon fill="#F6921E" points="313.391,140.169 314.123,139.486 317.479,143.099 320.837,139.486 321.569,140.169 
				317.479,144.566 			"/>
		</g>
	</g>
</g>
<g>
	<g>
		<line fill="none" stroke="#00A551" stroke-miterlimit="10" x1="334.488" y1="53.858" x2="334.488" y2="143.481"/>
		<g>
			<polygon fill="#00A551" points="330.398,140.169 331.131,139.486 334.487,143.099 337.845,139.486 338.577,140.169 
				334.487,144.566 			"/>
		</g>
	</g>
</g>
<line fill="none" stroke="#00ADEE" stroke-miterlimit="10" x1="351.496" y1="65.198" x2="351.496" y2="144.565"/>
<rect x="402.52" y="144.566" fill="#E8E7F3" stroke="#272525" stroke-miterlimit="10" width="85.041" height="42.521"/>
<text transform="matrix(1 0 0 1 412.5688 175.748)" fill="#231F20" font-family="'MyriadPro-Regular'" font-size="24">Slave3</text>
<g>
	<g>
		<line fill="none" stroke="#272525" stroke-miterlimit="10" x1="419.529" y1="42.521" x2="419.529" y2="143.483"/>
		<g>
			<polygon fill="#272525" points="415.439,140.169 416.171,139.487 419.528,143.099 422.885,139.487 423.618,140.169 
				419.528,144.567 			"/>
		</g>
	</g>
</g>
<g>
	<g>
		<line fill="none" stroke="#F6921E" stroke-miterlimit="10" x1="436.537" y1="87.874" x2="436.537" y2="143.481"/>
		<g>
			<polygon fill="#F6921E" points="432.447,140.169 433.179,139.486 436.536,143.099 439.893,139.486 440.625,140.169 
				436.536,144.566 			"/>
		</g>
	</g>
</g>
<g>
	<g>
		<line fill="none" stroke="#00A551" stroke-miterlimit="10" x1="453.544" y1="53.858" x2="453.544" y2="143.481"/>
		<g>
			<polygon fill="#00A551" points="449.455,140.169 450.187,139.486 453.543,143.099 456.901,139.486 457.633,140.169 
				453.543,144.566 			"/>
		</g>
	</g>
</g>
<line fill="none" stroke="#00ADEE" stroke-miterlimit="10" x1="470.552" y1="65.198" x2="470.552" y2="144.565"/>
<rect x="164.41" y="144.566" fill="#E8E7F3" stroke="#272525" stroke-miterlimit="10" width="85.041" height="42.521"/>
<text transform="matrix(1 0 0 1 174.458 175.748)" fill="#231F20" font-family="'MyriadPro-Regular'" font-size="24">Slave1</text>
<rect x="11.339" y="17.006" fill="#E8E7F3" stroke="#272525" stroke-miterlimit="10" width="90.71" height="110.553"/>
<text transform="matrix(1 0 0 1 22.6016 82.2046)" fill="#231F20" font-family="'MyriadPro-Regular'" font-size="24">Master</text>
<g>
	<g>
		<line fill="none" stroke="#272525" stroke-miterlimit="10" x1="181.418" y1="42.521" x2="181.418" y2="143.481"/>
		<g>
			<polygon fill="#272525" points="177.328,140.169 178.061,139.486 181.417,143.099 184.774,139.486 185.507,140.169 
				181.417,144.566 			"/>
		</g>
	</g>
</g>
<g>
	<g>
		<line fill="none" stroke="#F6921E" stroke-miterlimit="10" x1="198.426" y1="110.551" x2="198.426" y2="143.481"/>
		<g>
			<polygon fill="#F6921E" points="194.336,140.169 195.068,139.486 198.425,143.099 201.782,139.486 202.515,140.169 
				198.425,144.566 			"/>
		</g>
	</g>
</g>
<line fill="none" stroke="#F6921E" stroke-miterlimit="10" x1="102.047" y1="110.551" x2="198.425" y2="110.551"/>
<line fill="none" stroke="#F6921E" stroke-miterlimit="10" x1="102.047" y1="99.212" x2="317.48" y2="99.212"/>
<line fill="none" stroke="#F6921E" stroke-miterlimit="10" x1="102.047" y1="87.874" x2="436.536" y2="87.874"/>
<g>
	<g>
		<line fill="none" stroke="#00A551" stroke-miterlimit="10" x1="215.433" y1="53.858" x2="215.435" y2="143.481"/>
		<g>
			<polygon fill="#00A551" points="211.345,140.169 212.077,139.486 215.434,143.099 218.791,139.486 219.523,140.168 
				215.434,144.566 			"/>
		</g>
	</g>
</g>
<line fill="none" stroke="#00ADEE" stroke-miterlimit="10" x1="232.441" y1="65.198" x2="232.441" y2="144.565"/>
<g>
	<g>
		<line fill="none" stroke="#00ADEE" stroke-miterlimit="10" x1="470.551" y1="65.198" x2="103.132" y2="65.198"/>
		<g>
			<polygon fill="#00ADEE" points="106.446,61.108 107.128,61.84 103.516,65.197 107.128,68.554 106.446,69.287 102.048,65.197 			
				"/>
		</g>
	</g>
</g>
<line fill="none" stroke="#00A551" stroke-miterlimit="10" x1="102.047" y1="53.858" x2="453.543" y2="53.858"/>
<ellipse fill="none" stroke="#231F20" stroke-width="0.5" stroke-miterlimit="10" cx="127.559" cy="99.212" rx="2.835" ry="22.678"/>
</svg>
