<?xml version="1.0" encoding="utf-8"?>
<!-- Generator: Adobe Illustrator 15.0.0, SVG Export Plug-In . SVG Version: 6.00 Build 0)  -->
<!DOCTYPE svg PUBLIC "-//W3C//DTD SVG 1.0//EN" "http://www.w3.org/TR/2001/REC-SVG-20010904/DTD/svg10.dtd">
<svg version="1.0" id="Layer_1" xmlns="http://www.w3.org/2000/svg" xmlns:xlink="http://www.w3.org/1999/xlink" x="0px" y="0px"
	 width="555.59px" height="396.851px" viewBox="0 0 555.59 396.851" enable-background="new 0 0 555.59 396.851"
	 xml:space="preserve">
<text transform="matrix(1 0.0037 -0.0037 1 130.3975 187.0024)" fill="#231F20" font-family="'MyriadPro-Regular'" font-size="14">STATUS</text>
<text transform="matrix(0.6916 -0.7223 0.7223 0.6916 369.979 192.2251)" fill="#231F20" font-family="'MyriadPro-Regular'" font-size="14">byteId==3</text>
<text transform="matrix(0.7784 0.6278 -0.6278 0.7784 321.9629 298.2319)" fill="#231F20" font-family="'MyriadPro-Regular'" font-size="14">byteId==3</text>
<circle fill="#EAEAFF" cx="266.457" cy="232.441" r="51.023"/>
<g>
	<g>
		<path fill="none" stroke="#231F20" stroke-width="1.5" stroke-miterlimit="10" d="M430.867,124.724
			c-22.39,50.378-55.833,78.649-116.701,95.727"/>
		<g>
			<polygon fill="#231F20" points="318.725,209.492 320.661,210.643 314.981,220.173 324.902,225.142 323.892,227.154 
				311.811,221.101 			"/>
		</g>
	</g>
</g>
<g>
	<g>
		<path fill="none" stroke="#231F20" stroke-width="1.5" stroke-miterlimit="10" d="M225.255,258.275
			c-59.941,23.189-114.083,29.62-151.554,8.182"/>
		<g>
			<polygon fill="#231F20" points="218.439,254.261 217.867,255.649 224.709,258.458 221.408,265.077 222.752,265.746 
				226.771,257.684 			"/>
		</g>
	</g>
</g>
<g>
	<g>
		<path fill="none" stroke="#231F20" stroke-width="1.5" stroke-miterlimit="10" d="M408.189,68.032
			c-55.143-29.749,24.172-92.918,33.711-25.099"/>
		<g>
			<polygon fill="#231F20" points="431.464,37.155 432.829,35.364 441.645,42.099 447.718,32.813 449.602,34.048 442.203,45.355 			
				"/>
		</g>
	</g>
</g>
<g>
	<g>
		<path fill="none" stroke="#231F20" stroke-width="1.5" stroke-miterlimit="10" d="M486.259,319.475
			c41.699-46.765,84.806,45.013,16.619,38.604"/>
		<g>
			<polygon fill="#231F20" points="510.913,349.262 512.339,351.004 503.748,358.023 511.377,366.08 509.74,367.626 
				500.451,357.813 			"/>
		</g>
	</g>
</g>
<g>
	<g>
		<path fill="none" stroke="#231F20" stroke-width="1.5" stroke-miterlimit="10" d="M289.134,192.756
			c27.966-50.339,55.933-73.088,111.12-95.466"/>
		<g>
			<polygon fill="#231F20" points="397.046,108.732 394.987,107.822 399.484,97.681 389.04,93.936 389.802,91.816 402.521,96.38 			
				"/>
		</g>
	</g>
</g>
<g>
	<g>
		<g>
			<path fill="none" stroke="#231F20" stroke-width="1.5" stroke-miterlimit="10" d="M422.115,353.339
				c-54.75-6.467-91.656-30.039-125.993-83.12"/>
			<g>
				<polygon fill="#231F20" points="307.94,271.33 307.414,273.519 296.63,270.917 294.822,281.864 292.601,281.495 
					294.805,268.163 				"/>
			</g>
		</g>
	</g>
	<g>
		<g>
			<path fill="none" stroke="#231F20" stroke-width="1.5" stroke-miterlimit="10" d="M315.162,238.11
				c56.364,11.805,86.374,31.78,124.09,77.864"/>
			<g>
				<polygon fill="#231F20" points="427.374,316.3 427.633,314.062 438.652,315.355 439.136,304.271 441.386,304.371 
					440.793,317.871 				"/>
			</g>
		</g>
	</g>
</g>
<g>
	<g>
		<path fill="none" stroke="#231F20" stroke-width="1.5" stroke-miterlimit="10" d="M79.615,203.758
			c56.535-17.59,91.155-12.064,147.157,6.005"/>
		<g>
			<polygon fill="#231F20" points="86.136,208.241 86.803,206.896 80.173,203.618 83.927,197.245 82.633,196.484 78.063,204.247 			
				"/>
		</g>
	</g>
</g>
<g>
	<circle fill="#FFFFFF" stroke="#000000" stroke-width="3" stroke-miterlimit="10" cx="51.023" cy="232.441" r="39.685"/>
	<text transform="matrix(1 0 0 1 35.6338 249.436)" fill="#EAEAFF" font-family="'MyriadPro-Regular'" font-size="60">1</text>
	<text transform="matrix(1 0 0 1 25.4312 232.4277)"><tspan x="0" y="0" fill="#231F20" font-family="'MyriadPro-Regular'" font-size="14">Transmit </tspan><tspan x="8.183" y="16.8" fill="#231F20" font-family="'MyriadPro-Regular'" font-size="14">status</tspan></text>
</g>
<g>
	<circle fill="#FFFFFF" stroke="#000000" stroke-width="3" stroke-miterlimit="10" cx="442.205" cy="85.04" r="39.685"/>
	<text transform="matrix(1 0 0 1 426.8164 102.0342)" fill="#EAEAFF" font-family="'MyriadPro-Regular'" font-size="60">2</text>
	<text transform="matrix(1 0 0 1 416.6138 85.0259)"><tspan x="0" y="0" fill="#231F20" font-family="'MyriadPro-Regular'" font-size="14">Transmit </tspan><tspan x="3.36" y="16.8" fill="#231F20" font-family="'MyriadPro-Regular'" font-size="14">register</tspan></text>
</g>
<g>
	<path fill="#FFFFFF" stroke="#000000" stroke-width="3" stroke-miterlimit="10" d="M498.898,351.499
		c0,21.916-17.765,39.684-39.685,39.684c-21.917,0-39.685-17.768-39.685-39.684c0-21.92,17.768-39.688,39.685-39.688
		C481.133,311.811,498.898,329.579,498.898,351.499z"/>
	<text transform="matrix(1 0 0 1 443.8237 368.5054)" fill="#EAEAFF" font-family="'MyriadPro-Regular'" font-size="60">3</text>
	<text transform="matrix(1 0 0 1 436.7915 351.4966)"><tspan x="0" y="0" fill="#231F20" font-family="'MyriadPro-Regular'" font-size="14">Receive </tspan><tspan x="0.196" y="16.8" fill="#231F20" font-family="'MyriadPro-Regular'" font-size="14">register</tspan></text>
</g>
<g>
	<circle fill="#FFFFFF" stroke="#000000" stroke-width="3" stroke-miterlimit="10" cx="266.457" cy="232.442" r="45.354"/>
	<path fill="#FFFFFF" stroke="#000000" stroke-width="3" stroke-miterlimit="10" d="M266.458,192.755
		c21.918,0,39.684,17.768,39.684,39.688c0,21.916-17.766,39.684-39.684,39.684s-39.686-17.768-39.686-39.684
		C226.773,210.522,244.541,192.755,266.458,192.755"/>
	<text transform="matrix(1 0 0 1 251.0674 255.1177)" fill="#EAEAFF" font-family="'MyriadPro-Regular'" font-size="60">0</text>
	<text transform="matrix(1 0 0 1 255.6753 238.1104)" fill="#231F20" font-family="'MyriadPro-Regular'" font-size="14">Idle</text>
</g>
<g>
	
		<text transform="matrix(0.8311 0.5561 -0.5561 0.8311 387.9629 235.248)" fill="#231F20" font-family="'MyriadPro-Regular'" font-size="14">WRREG</text>
	
		<text transform="matrix(0.8311 0.5561 -0.5561 0.8311 374.2935 246.5659)" fill="#231F20" font-family="'MyriadPro-Regular'" font-size="14">byteId=0</text>
	<line fill="none" stroke="#272525" stroke-miterlimit="10" x1="379.843" y1="234.931" x2="426.959" y2="266.458"/>
</g>
<text transform="matrix(1 0 0 1 330.6782 17.0083)" fill="#231F20" font-family="'MyriadPro-Regular'" font-size="14">byteId&lt;3</text>
<text transform="matrix(1 0 0 1 330.0972 34.0161)" fill="#231F20" font-family="'MyriadPro-Regular'" font-size="14">byteId++</text>
<line fill="none" stroke="#272525" stroke-miterlimit="10" x1="328.82" y1="21.26" x2="385.512" y2="21.26"/>
<text transform="matrix(1 0 0 1 489.4185 283.4653)" fill="#231F20" font-family="'MyriadPro-Regular'" font-size="14">byteId&lt;3</text>
<text transform="matrix(1 0 0 1 488.8374 300.4731)" fill="#231F20" font-family="'MyriadPro-Regular'" font-size="14">byteId++</text>
<line fill="none" stroke="#272525" stroke-miterlimit="10" x1="487.561" y1="287.717" x2="544.252" y2="287.717"/>
<g>
	
		<text transform="matrix(0.6947 -0.7193 0.7193 0.6947 298.4507 134.9688)" fill="#231F20" font-family="'MyriadPro-Regular'" font-size="14">RDREG</text>
	
		<text transform="matrix(0.6947 -0.7193 0.7193 0.6947 306.2881 151.3345)" fill="#231F20" font-family="'MyriadPro-Regular'" font-size="14">byteId=0</text>
	<line fill="none" stroke="#272525" stroke-miterlimit="10" x1="294.803" y1="142.824" x2="334.189" y2="102.048"/>
</g>
</svg>
