<?xml version="1.0" encoding="utf-8"?>
<!-- Generator: Adobe Illustrator 15.0.0, SVG Export Plug-In . SVG Version: 6.00 Build 0)  -->
<!DOCTYPE svg PUBLIC "-//W3C//DTD SVG 1.0//EN" "http://www.w3.org/TR/2001/REC-SVG-20010904/DTD/svg10.dtd">
<svg version="1.0" id="Layer_1" xmlns="http://www.w3.org/2000/svg" xmlns:xlink="http://www.w3.org/1999/xlink" x="0px" y="0px"
	 width="164.409px" height="110.551px" viewBox="0 0 164.409 110.551" enable-background="new 0 0 164.409 110.551"
	 xml:space="preserve">
<text transform="matrix(1 0 0 1 100.1846 62.3623)" fill="#231F20" font-family="'MyriadPro-Regular'" font-size="14">R</text>
<circle fill="#231F20" stroke="#231F20" stroke-width="0.3333" stroke-miterlimit="10" cx="42.52" cy="48.189" r="2.834"/>
<g>
	<g>
		
			<line fill="none" stroke="#EC1C24" stroke-width="0.625" stroke-miterlimit="10" x1="42.52" y1="103.464" x2="65.937" y2="103.464"/>
		<g>
			<polygon fill="#EC1C24" points="63.866,106.021 63.439,105.563 65.697,103.465 63.439,101.367 63.866,100.909 66.614,103.465 			
				"/>
		</g>
	</g>
</g>
<g>
	<g>
		
			<line fill="none" stroke="#EC1C24" stroke-width="0.5417" stroke-miterlimit="10" x1="42.52" y1="70.866" x2="42.52" y2="71.497"/>
		
			<line fill="none" stroke="#EC1C24" stroke-width="0.5417" stroke-miterlimit="10" stroke-dasharray="1.2761,2.5523" x1="42.52" y1="74.049" x2="42.52" y2="107.228"/>
		
			<line fill="none" stroke="#EC1C24" stroke-width="0.5417" stroke-miterlimit="10" x1="42.52" y1="108.504" x2="42.52" y2="109.134"/>
	</g>
</g>
<g>
	<g>
		
			<line fill="none" stroke="#00ADEE" stroke-width="0.625" stroke-miterlimit="10" x1="1.417" y1="48.189" x2="36.172" y2="48.189"/>
		<g>
			<polygon fill="#00ADEE" points="34.102,50.745 33.675,50.288 35.933,48.189 33.675,46.091 34.102,45.633 36.85,48.189 			"/>
		</g>
	</g>
</g>
<g>
	<g>
		
			<line fill="none" stroke="#00ADEE" stroke-width="0.4677" stroke-miterlimit="10" x1="70.866" y1="68.032" x2="51.531" y2="68.032"/>
		<g>
			<polygon fill="#00ADEE" points="53.081,66.119 53.399,66.461 51.71,68.031 53.399,69.602 53.081,69.944 51.023,68.031 			"/>
		</g>
	</g>
</g>
<line fill="none" stroke="#231F20" stroke-miterlimit="10" x1="155.562" y1="87.874" x2="155.562" y2="11.339"/>
<line fill="none" stroke="#231F20" stroke-width="2" stroke-miterlimit="10" x1="155.562" y1="22.678" x2="124.381" y2="22.678"/>
<line fill="none" stroke="#231F20" stroke-width="2" stroke-miterlimit="10" x1="155.562" y1="73.701" x2="127.559" y2="73.701"/>
<line fill="none" stroke="#231F20" stroke-width="0.7746" stroke-miterlimit="10" x1="161.574" y1="19.843" x2="155.562" y2="13.83"/>
<line fill="none" stroke="#231F20" stroke-width="0.7746" stroke-miterlimit="10" x1="161.574" y1="25.512" x2="155.562" y2="19.499"/>
<line fill="none" stroke="#231F20" stroke-width="0.7746" stroke-miterlimit="10" x1="161.574" y1="31.181" x2="155.562" y2="25.168"/>
<line fill="none" stroke="#231F20" stroke-width="0.7746" stroke-miterlimit="10" x1="161.574" y1="37.194" x2="155.562" y2="31.181"/>
<line fill="none" stroke="#231F20" stroke-width="0.7746" stroke-miterlimit="10" x1="161.574" y1="42.863" x2="155.562" y2="36.85"/>
<line fill="none" stroke="#231F20" stroke-width="0.7746" stroke-miterlimit="10" x1="161.574" y1="48.533" x2="155.562" y2="42.52"/>
<line fill="none" stroke="#231F20" stroke-width="0.7746" stroke-miterlimit="10" x1="161.574" y1="54.202" x2="155.562" y2="48.189"/>
<line fill="none" stroke="#231F20" stroke-width="0.7746" stroke-miterlimit="10" x1="161.574" y1="59.871" x2="155.562" y2="53.858"/>
<line fill="none" stroke="#231F20" stroke-width="0.7746" stroke-miterlimit="10" x1="161.574" y1="65.541" x2="155.562" y2="59.527"/>
<line fill="none" stroke="#231F20" stroke-width="0.7746" stroke-miterlimit="10" x1="161.574" y1="71.554" x2="155.562" y2="65.541"/>
<line fill="none" stroke="#231F20" stroke-width="0.7746" stroke-miterlimit="10" x1="161.574" y1="77.223" x2="155.562" y2="71.209"/>
<line fill="none" stroke="#231F20" stroke-width="0.7746" stroke-miterlimit="10" x1="161.574" y1="82.892" x2="155.562" y2="76.879"/>
<line fill="none" stroke="#231F20" stroke-width="0.7746" stroke-miterlimit="10" x1="161.574" y1="87.874" x2="155.562" y2="81.861"/>
<polyline fill="none" stroke="#231F20" stroke-width="2" stroke-miterlimit="10" points="107.717,73.701 42.52,73.702 
	42.519,22.678 79.37,22.677 "/>
<text transform="matrix(1 0 0 1 8.5039 42.5195)"><tspan x="0" y="0" fill="#00ADEE" font-family="'MyriadPro-Regular'" font-size="12">f</tspan><tspan x="3.504" y="2" fill="#00ADEE" font-family="'MyriadPro-Regular'" font-size="9">ext</tspan><tspan x="15.159" y="0" fill="#00ADEE" font-family="'MyriadPro-Regular'" font-size="12">(t)</tspan></text>
<text transform="matrix(1 0 0 1 53.7451 62.3623)"><tspan x="0" y="0" fill="#00ADEE" font-family="'MyriadPro-Regular'" font-size="12">f</tspan><tspan x="3.504" y="2" fill="#00ADEE" font-family="'MyriadPro-Regular'" font-size="9">r</tspan><tspan x="6.447" y="0" fill="#00ADEE" font-family="'MyriadPro-Regular'" font-size="12">(t)</tspan></text>
<g>
	<g>
		
			<line fill="none" stroke="#00ADEE" stroke-width="0.4677" stroke-miterlimit="10" x1="70.866" y1="17.008" x2="51.531" y2="17.008"/>
		<g>
			<polygon fill="#00ADEE" points="53.081,15.095 53.399,15.438 51.71,17.008 53.399,18.578 53.081,18.921 51.023,17.008 			"/>
		</g>
	</g>
</g>
<text transform="matrix(1 0 0 1 53.4346 11.3389)"><tspan x="0" y="0" fill="#00ADEE" font-family="'MyriadPro-Regular'" font-size="12">f</tspan><tspan x="3.504" y="2" fill="#00ADEE" font-family="'MyriadPro-Regular'" font-size="9">s</tspan><tspan x="7.068" y="0" fill="#00ADEE" font-family="'MyriadPro-Regular'" font-size="12">(t)</tspan></text>
<text transform="matrix(1 0 0 1 68.0317 106.2993)" fill="#EC1C24" font-family="'MyriadPro-Regular'" font-size="12">x(t)  displacement</text>
<text transform="matrix(1 0 0 1 98.5952 11.3389)" fill="#231F20" font-family="'MyriadPro-Regular'" font-size="14">S</text>
<polyline fill="none" stroke="#231F20" stroke-width="2" stroke-miterlimit="10" points="79.37,68.031 127.559,68.031 
	127.559,79.37 79.37,79.37 "/>
<g>
	<path fill="none" stroke="#231F20" stroke-width="2.7236" stroke-miterlimit="10" d="M92.512,17.008
		c4.381,0,9.966,17.008,4.381,17.008c-4.381,0,0-17.008,4.38-17.008"/>
	<path fill="none" stroke="#231F20" stroke-width="2.7236" stroke-miterlimit="10" d="M83.75,17.008
		c4.382,0,9.966,17.008,4.382,17.008c-4.382,0,0-17.008,4.38-17.008"/>
	<path fill="none" stroke="#231F20" stroke-width="2.7236" stroke-miterlimit="10" d="M79.37,23.812c0,0,0-6.803,4.381-6.803"/>
	<path fill="none" stroke="#231F20" stroke-width="2.7236" stroke-miterlimit="10" d="M101.272,17.008
		c4.381,0,9.966,17.008,4.381,17.008c-4.381,0,0-17.008,4.38-17.008"/>
	<path fill="none" stroke="#231F20" stroke-width="2.7236" stroke-miterlimit="10" d="M110.034,17.008
		c4.382,0,9.966,17.008,4.382,17.008c-4.382,0,0-17.008,4.381-17.008"/>
	<path fill="none" stroke="#231F20" stroke-width="2.7236" stroke-miterlimit="10" d="M118.798,17.008
		c4.382,0,9.966,17.008,4.382,17.008c-4.382,0-4.382-10.205-0.003-10.205"/>
	<path fill="none" stroke="#231F20" stroke-width="2.7236" stroke-miterlimit="10" d="M127.559,23.812"/>
</g>
<path fill="none" stroke="#231F20" stroke-width="2.1909" stroke-miterlimit="10" d="M68.032,37.984"/>
<line fill="none" stroke="#231F20" stroke-width="2" stroke-miterlimit="10" x1="107.716" y1="68.031" x2="107.716" y2="79.37"/>
</svg>
