<?xml version="1.0" encoding="utf-8"?>
<!-- Generator: Adobe Illustrator 15.0.0, SVG Export Plug-In . SVG Version: 6.00 Build 0)  -->
<!DOCTYPE svg PUBLIC "-//W3C//DTD SVG 1.0//EN" "http://www.w3.org/TR/2001/REC-SVG-20010904/DTD/svg10.dtd">
<svg version="1.0" id="Layer_1" xmlns="http://www.w3.org/2000/svg" xmlns:xlink="http://www.w3.org/1999/xlink" x="0px" y="0px"
	 width="232.441px" height="96.377px" viewBox="0 0 232.441 96.377" enable-background="new 0 0 232.441 96.377"
	 xml:space="preserve">
<g>
</g>
<rect x="79.372" y="8.504" fill="#EAEAFF" stroke="#231F20" stroke-width="2" stroke-miterlimit="10" width="79.368" height="79.368"/>
<g>
	<path fill="#231F20" d="M110.026,44.417v3.95h4.566v-3.95h1.233v9.441h-1.233v-4.426h-4.566v4.426h-1.232v-9.441H110.026z"/>
	<path fill="#231F20" d="M120.555,44.137c-1.022,1.387-1.751,3.194-1.751,5.743c0,2.493,0.771,4.272,1.751,5.673h-0.953
		c-0.882-1.163-1.835-2.956-1.835-5.687c0.014-2.746,0.953-4.552,1.835-5.729H120.555z"/>
	<path fill="#231F20" d="M121.702,52.611c0.378,0.224,1.022,0.476,1.639,0.476c0.883,0,1.303-0.434,1.303-1.008
		c0-0.588-0.35-0.896-1.247-1.233c-1.232-0.448-1.807-1.106-1.807-1.919c0-1.093,0.896-1.989,2.339-1.989
		c0.687,0,1.289,0.182,1.653,0.42l-0.294,0.896c-0.266-0.168-0.756-0.406-1.387-0.406c-0.729,0-1.121,0.42-1.121,0.924
		c0,0.561,0.392,0.813,1.274,1.163c1.163,0.434,1.779,1.022,1.779,2.031c0,1.205-0.938,2.045-2.521,2.045
		c-0.742,0-1.429-0.196-1.905-0.477L121.702,52.611z"/>
	<path fill="#231F20" d="M126.671,55.553c0.98-1.387,1.751-3.194,1.751-5.715c0-2.521-0.756-4.3-1.751-5.701h0.953
		c0.882,1.148,1.835,2.956,1.835,5.701c-0.014,2.745-0.953,4.538-1.835,5.715H126.671z"/>
</g>
<g>
	<path fill="#231F20" d="M11.903,53.858l-1.219-2.087c-0.49-0.799-0.784-1.317-1.079-1.863H9.578
		c-0.266,0.546-0.546,1.051-1.022,1.877L7.42,53.858H6.02l2.886-4.776l-2.773-4.665h1.415l1.247,2.213
		c0.351,0.617,0.617,1.093,0.869,1.597h0.042c0.266-0.561,0.504-0.995,0.854-1.597l1.275-2.213h1.415l-2.872,4.594l2.941,4.847
		H11.903z"/>
	<path fill="#231F20" d="M17.348,44.137c-1.022,1.387-1.751,3.194-1.751,5.743c0,2.493,0.771,4.272,1.751,5.673h-0.953
		c-0.882-1.163-1.835-2.956-1.835-5.687c0.014-2.746,0.953-4.552,1.835-5.729H17.348z"/>
	<path fill="#231F20" d="M18.494,52.611c0.378,0.224,1.022,0.476,1.639,0.476c0.883,0,1.303-0.434,1.303-1.008
		c0-0.588-0.35-0.896-1.247-1.233c-1.232-0.448-1.807-1.106-1.807-1.919c0-1.093,0.896-1.989,2.339-1.989
		c0.687,0,1.289,0.182,1.653,0.42l-0.294,0.896c-0.266-0.168-0.756-0.406-1.387-0.406c-0.729,0-1.121,0.42-1.121,0.924
		c0,0.561,0.392,0.813,1.274,1.163c1.163,0.434,1.779,1.022,1.779,2.031c0,1.205-0.938,2.045-2.521,2.045
		c-0.742,0-1.429-0.196-1.905-0.477L18.494,52.611z"/>
	<path fill="#231F20" d="M23.463,55.553c0.98-1.387,1.751-3.194,1.751-5.715c0-2.521-0.756-4.3-1.751-5.701h0.953
		c0.882,1.148,1.835,2.956,1.835,5.701c-0.014,2.745-0.953,4.538-1.835,5.715H23.463z"/>
</g>
<g>
	<path fill="#231F20" d="M211.702,53.858v-4.006l-2.998-5.435h1.401l1.331,2.605c0.351,0.715,0.645,1.289,0.938,1.947h0.028
		c0.252-0.616,0.588-1.232,0.952-1.947l1.358-2.605h1.373l-3.151,5.421v4.02H211.702z"/>
	<path fill="#231F20" d="M219.794,44.137c-1.022,1.387-1.751,3.194-1.751,5.743c0,2.493,0.771,4.272,1.751,5.673h-0.952
		c-0.883-1.163-1.836-2.956-1.836-5.687c0.015-2.746,0.953-4.552,1.836-5.729H219.794z"/>
	<path fill="#231F20" d="M220.941,52.611c0.378,0.224,1.022,0.476,1.639,0.476c0.883,0,1.303-0.434,1.303-1.008
		c0-0.588-0.351-0.896-1.247-1.233c-1.232-0.448-1.807-1.106-1.807-1.919c0-1.093,0.896-1.989,2.34-1.989
		c0.686,0,1.288,0.182,1.652,0.42l-0.294,0.896c-0.267-0.168-0.757-0.406-1.387-0.406c-0.729,0-1.12,0.42-1.12,0.924
		c0,0.561,0.392,0.813,1.273,1.163c1.163,0.434,1.779,1.022,1.779,2.031c0,1.205-0.938,2.045-2.521,2.045
		c-0.742,0-1.428-0.196-1.904-0.477L220.941,52.611z"/>
	<path fill="#231F20" d="M225.911,55.553c0.98-1.387,1.751-3.194,1.751-5.715c0-2.521-0.757-4.3-1.751-5.701h0.952
		c0.883,1.148,1.835,2.956,1.835,5.701c-0.014,2.745-0.952,4.538-1.835,5.715H225.911z"/>
</g>
<g>
	<g>
		<line fill="none" stroke="#231F20" stroke-width="2" stroke-miterlimit="10" x1="158.742" y1="51.023" x2="204.76" y2="51.023"/>
		<g>
			<polygon fill="#231F20" points="198.133,59.203 196.769,57.738 203.993,51.025 196.769,44.311 198.133,42.846 206.929,51.025 			
				"/>
		</g>
	</g>
</g>
<line fill="none" stroke="#231F20" stroke-width="2" stroke-miterlimit="10" x1="31.181" y1="51.023" x2="79.368" y2="51.023"/>
</svg>
