<?xml version="1.0" encoding="utf-8"?>
<!-- Generator: Adobe Illustrator 25.4.1, SVG Export Plug-In . SVG Version: 6.00 Build 0)  -->
<svg version="1.1" xmlns="http://www.w3.org/2000/svg" xmlns:xlink="http://www.w3.org/1999/xlink" x="0px" y="0px"
	 viewBox="0 0 68.963 68.687" enable-background="new 0 0 68.963 68.687" xml:space="preserve">
<g id="Graph_paper" opacity="0.5">
	<g id="Clipped_grid">
		<defs>
			<rect id="SVGID_1_" x="-1.16" y="-5.135" width="71.724" height="75.534"/>
		</defs>
		<clipPath id="SVGID_00000104664839099997731710000017359547358409109438_">
			<use xlink:href="#SVGID_1_"  overflow="visible"/>
		</clipPath>
		<g id="Grid" opacity="0.25" clip-path="url(#SVGID_00000104664839099997731710000017359547358409109438_)">
			<g id="Horizontal_1_mm">
				
					<line fill="none" stroke="#00ABEB" stroke-width="0.15" stroke-miterlimit="10" x1="-55.369" y1="-38.519" x2="171.472" y2="-38.519"/>
				
					<line fill="none" stroke="#00ABEB" stroke-width="0.15" stroke-miterlimit="10" x1="-55.369" y1="-41.354" x2="171.472" y2="-41.354"/>
				
					<line fill="none" stroke="#00ABEB" stroke-width="0.15" stroke-miterlimit="10" x1="-55.369" y1="128.725" x2="171.472" y2="128.725"/>
				
					<line fill="none" stroke="#00ABEB" stroke-width="0.15" stroke-miterlimit="10" x1="-55.369" y1="125.89" x2="171.472" y2="125.89"/>
				
					<line fill="none" stroke="#00ABEB" stroke-width="0.15" stroke-miterlimit="10" x1="-55.369" y1="123.056" x2="171.472" y2="123.056"/>
				
					<line fill="none" stroke="#00ABEB" stroke-width="0.15" stroke-miterlimit="10" x1="-55.369" y1="120.222" x2="171.472" y2="120.222"/>
				
					<line fill="none" stroke="#00ABEB" stroke-width="0.15" stroke-miterlimit="10" x1="-55.369" y1="117.387" x2="171.472" y2="117.387"/>
				
					<line fill="none" stroke="#00ABEB" stroke-width="0.15" stroke-miterlimit="10" x1="-55.369" y1="114.553" x2="171.472" y2="114.553"/>
				
					<line fill="none" stroke="#00ABEB" stroke-width="0.15" stroke-miterlimit="10" x1="-55.369" y1="111.718" x2="171.472" y2="111.718"/>
				
					<line fill="none" stroke="#00ABEB" stroke-width="0.15" stroke-miterlimit="10" x1="-55.369" y1="108.884" x2="171.472" y2="108.884"/>
				
					<line fill="none" stroke="#00ABEB" stroke-width="0.15" stroke-miterlimit="10" x1="-55.369" y1="106.048" x2="171.472" y2="106.048"/>
				
					<line fill="none" stroke="#00ABEB" stroke-width="0.15" stroke-miterlimit="10" x1="-55.369" y1="103.213" x2="171.472" y2="103.213"/>
				
					<line fill="none" stroke="#00ABEB" stroke-width="0.15" stroke-miterlimit="10" x1="-55.369" y1="100.379" x2="171.472" y2="100.379"/>
				
					<line fill="none" stroke="#00ABEB" stroke-width="0.15" stroke-miterlimit="10" x1="-55.369" y1="97.544" x2="171.472" y2="97.544"/>
				
					<line fill="none" stroke="#00ABEB" stroke-width="0.15" stroke-miterlimit="10" x1="-55.369" y1="94.709" x2="171.472" y2="94.709"/>
				
					<line fill="none" stroke="#00ABEB" stroke-width="0.15" stroke-miterlimit="10" x1="-55.369" y1="91.875" x2="171.472" y2="91.875"/>
				
					<line fill="none" stroke="#00ABEB" stroke-width="0.15" stroke-miterlimit="10" x1="-55.369" y1="89.04" x2="171.472" y2="89.04"/>
				
					<line fill="none" stroke="#00ABEB" stroke-width="0.15" stroke-miterlimit="10" x1="-55.369" y1="86.205" x2="171.472" y2="86.205"/>
				
					<line fill="none" stroke="#00ABEB" stroke-width="0.15" stroke-miterlimit="10" x1="-55.369" y1="83.371" x2="171.472" y2="83.371"/>
				
					<line fill="none" stroke="#00ABEB" stroke-width="0.15" stroke-miterlimit="10" x1="-55.369" y1="80.536" x2="171.472" y2="80.536"/>
				
					<line fill="none" stroke="#00ABEB" stroke-width="0.15" stroke-miterlimit="10" x1="-55.369" y1="77.701" x2="171.472" y2="77.701"/>
				
					<line fill="none" stroke="#00ABEB" stroke-width="0.15" stroke-miterlimit="10" x1="-55.369" y1="74.868" x2="171.472" y2="74.868"/>
				
					<line fill="none" stroke="#00ABEB" stroke-width="0.15" stroke-miterlimit="10" x1="-55.369" y1="72.033" x2="171.472" y2="72.033"/>
				
					<line fill="none" stroke="#00ABEB" stroke-width="0.15" stroke-miterlimit="10" x1="-55.369" y1="69.197" x2="171.472" y2="69.197"/>
				
					<line fill="none" stroke="#00ABEB" stroke-width="0.15" stroke-miterlimit="10" x1="-55.369" y1="66.363" x2="171.472" y2="66.363"/>
				
					<line fill="none" stroke="#00ABEB" stroke-width="0.15" stroke-miterlimit="10" x1="-55.369" y1="63.528" x2="171.472" y2="63.528"/>
				
					<line fill="none" stroke="#00ABEB" stroke-width="0.15" stroke-miterlimit="10" x1="-55.369" y1="60.694" x2="171.472" y2="60.694"/>
				
					<line fill="none" stroke="#00ABEB" stroke-width="0.15" stroke-miterlimit="10" x1="-55.369" y1="57.859" x2="171.472" y2="57.859"/>
				
					<line fill="none" stroke="#00ABEB" stroke-width="0.15" stroke-miterlimit="10" x1="-55.369" y1="55.024" x2="171.472" y2="55.024"/>
				
					<line fill="none" stroke="#00ABEB" stroke-width="0.15" stroke-miterlimit="10" x1="-55.369" y1="52.19" x2="171.472" y2="52.19"/>
				
					<line fill="none" stroke="#00ABEB" stroke-width="0.15" stroke-miterlimit="10" x1="-55.369" y1="49.355" x2="171.472" y2="49.355"/>
				
					<line fill="none" stroke="#00ABEB" stroke-width="0.15" stroke-miterlimit="10" x1="-55.369" y1="46.52" x2="171.472" y2="46.52"/>
				
					<line fill="none" stroke="#00ABEB" stroke-width="0.15" stroke-miterlimit="10" x1="-55.369" y1="43.686" x2="171.472" y2="43.686"/>
				
					<line fill="none" stroke="#00ABEB" stroke-width="0.15" stroke-miterlimit="10" x1="-55.369" y1="40.851" x2="171.472" y2="40.851"/>
				
					<line fill="none" stroke="#00ABEB" stroke-width="0.15" stroke-miterlimit="10" x1="-55.369" y1="38.016" x2="171.472" y2="38.016"/>
				
					<line fill="none" stroke="#00ABEB" stroke-width="0.15" stroke-miterlimit="10" x1="-55.369" y1="35.182" x2="171.472" y2="35.182"/>
				
					<line fill="none" stroke="#00ABEB" stroke-width="0.15" stroke-miterlimit="10" x1="-55.369" y1="32.347" x2="171.472" y2="32.347"/>
				
					<line fill="none" stroke="#00ABEB" stroke-width="0.15" stroke-miterlimit="10" x1="-55.369" y1="29.513" x2="171.472" y2="29.513"/>
				
					<line fill="none" stroke="#00ABEB" stroke-width="0.15" stroke-miterlimit="10" x1="-55.369" y1="26.679" x2="171.472" y2="26.679"/>
				
					<line fill="none" stroke="#00ABEB" stroke-width="0.15" stroke-miterlimit="10" x1="-55.369" y1="23.844" x2="171.472" y2="23.844"/>
				
					<line fill="none" stroke="#00ABEB" stroke-width="0.15" stroke-miterlimit="10" x1="-55.369" y1="21.009" x2="171.472" y2="21.009"/>
				
					<line fill="none" stroke="#00ABEB" stroke-width="0.15" stroke-miterlimit="10" x1="-55.369" y1="18.175" x2="171.472" y2="18.175"/>
				
					<line fill="none" stroke="#00ABEB" stroke-width="0.15" stroke-miterlimit="10" x1="-55.369" y1="15.339" x2="171.472" y2="15.339"/>
				
					<line fill="none" stroke="#00ABEB" stroke-width="0.15" stroke-miterlimit="10" x1="-55.369" y1="12.505" x2="171.472" y2="12.505"/>
				
					<line fill="none" stroke="#00ABEB" stroke-width="0.15" stroke-miterlimit="10" x1="-55.369" y1="9.67" x2="171.472" y2="9.67"/>
				
					<line fill="none" stroke="#00ABEB" stroke-width="0.15" stroke-miterlimit="10" x1="-55.369" y1="6.835" x2="171.472" y2="6.835"/>
				
					<line fill="none" stroke="#00ABEB" stroke-width="0.15" stroke-miterlimit="10" x1="-55.369" y1="4.001" x2="171.472" y2="4.001"/>
				
					<line fill="none" stroke="#00ABEB" stroke-width="0.15" stroke-miterlimit="10" x1="-55.369" y1="1.166" x2="171.472" y2="1.166"/>
				
					<line fill="none" stroke="#00ABEB" stroke-width="0.15" stroke-miterlimit="10" x1="-55.369" y1="-1.669" x2="171.472" y2="-1.669"/>
				
					<line fill="none" stroke="#00ABEB" stroke-width="0.15" stroke-miterlimit="10" x1="-55.369" y1="-4.503" x2="171.472" y2="-4.503"/>
				
					<line fill="none" stroke="#00ABEB" stroke-width="0.15" stroke-miterlimit="10" x1="-55.369" y1="-7.338" x2="171.472" y2="-7.338"/>
				
					<line fill="none" stroke="#00ABEB" stroke-width="0.15" stroke-miterlimit="10" x1="-55.369" y1="-10.173" x2="171.472" y2="-10.173"/>
				
					<line fill="none" stroke="#00ABEB" stroke-width="0.15" stroke-miterlimit="10" x1="-55.369" y1="-13.007" x2="171.472" y2="-13.007"/>
				
					<line fill="none" stroke="#00ABEB" stroke-width="0.15" stroke-miterlimit="10" x1="-55.369" y1="-15.841" x2="171.472" y2="-15.841"/>
				
					<line fill="none" stroke="#00ABEB" stroke-width="0.15" stroke-miterlimit="10" x1="-55.369" y1="-18.676" x2="171.472" y2="-18.676"/>
				
					<line fill="none" stroke="#00ABEB" stroke-width="0.15" stroke-miterlimit="10" x1="-55.369" y1="-21.51" x2="171.472" y2="-21.51"/>
				
					<line fill="none" stroke="#00ABEB" stroke-width="0.15" stroke-miterlimit="10" x1="-55.369" y1="-24.346" x2="171.472" y2="-24.346"/>
				
					<line fill="none" stroke="#00ABEB" stroke-width="0.15" stroke-miterlimit="10" x1="-55.369" y1="-27.18" x2="171.472" y2="-27.18"/>
				
					<line fill="none" stroke="#00ABEB" stroke-width="0.15" stroke-miterlimit="10" x1="-55.369" y1="-30.015" x2="171.472" y2="-30.015"/>
				
					<line fill="none" stroke="#00ABEB" stroke-width="0.15" stroke-miterlimit="10" x1="-55.369" y1="-32.85" x2="171.472" y2="-32.85"/>
				
					<line fill="none" stroke="#00ABEB" stroke-width="0.15" stroke-miterlimit="10" x1="-55.369" y1="-35.684" x2="171.472" y2="-35.684"/>
			</g>
			<g id="Vertical_1_mm">
				<g>
					
						<line fill="none" stroke="#00ABEB" stroke-width="0.15" stroke-miterlimit="10" x1="-55.294" y1="128.712" x2="-55.294" y2="-41.429"/>
				</g>
				
					<line fill="none" stroke="#00ABEB" stroke-width="0.15" stroke-miterlimit="10" x1="-52.46" y1="128.712" x2="-52.46" y2="-41.429"/>
				
					<line fill="none" stroke="#00ABEB" stroke-width="0.15" stroke-miterlimit="10" x1="-49.625" y1="128.712" x2="-49.625" y2="-41.429"/>
				
					<line fill="none" stroke="#00ABEB" stroke-width="0.15" stroke-miterlimit="10" x1="-46.79" y1="128.712" x2="-46.79" y2="-41.429"/>
				
					<line fill="none" stroke="#00ABEB" stroke-width="0.15" stroke-miterlimit="10" x1="-43.956" y1="128.712" x2="-43.956" y2="-41.429"/>
				
					<line fill="none" stroke="#00ABEB" stroke-width="0.15" stroke-miterlimit="10" x1="-41.121" y1="128.712" x2="-41.121" y2="-41.429"/>
				
					<line fill="none" stroke="#00ABEB" stroke-width="0.15" stroke-miterlimit="10" x1="-38.286" y1="128.712" x2="-38.286" y2="-41.429"/>
				
					<line fill="none" stroke="#00ABEB" stroke-width="0.15" stroke-miterlimit="10" x1="-35.452" y1="128.712" x2="-35.452" y2="-41.429"/>
				
					<line fill="none" stroke="#00ABEB" stroke-width="0.15" stroke-miterlimit="10" x1="-32.617" y1="128.712" x2="-32.617" y2="-41.429"/>
				
					<line fill="none" stroke="#00ABEB" stroke-width="0.15" stroke-miterlimit="10" x1="-29.783" y1="128.712" x2="-29.783" y2="-41.429"/>
				
					<line fill="none" stroke="#00ABEB" stroke-width="0.15" stroke-miterlimit="10" x1="-26.948" y1="128.712" x2="-26.948" y2="-41.429"/>
				
					<line fill="none" stroke="#00ABEB" stroke-width="0.15" stroke-miterlimit="10" x1="-24.113" y1="128.712" x2="-24.113" y2="-41.429"/>
				
					<line fill="none" stroke="#00ABEB" stroke-width="0.15" stroke-miterlimit="10" x1="-21.279" y1="128.712" x2="-21.279" y2="-41.429"/>
				
					<line fill="none" stroke="#00ABEB" stroke-width="0.15" stroke-miterlimit="10" x1="-18.444" y1="128.712" x2="-18.444" y2="-41.429"/>
				
					<line fill="none" stroke="#00ABEB" stroke-width="0.15" stroke-miterlimit="10" x1="-15.609" y1="128.712" x2="-15.609" y2="-41.429"/>
				
					<line fill="none" stroke="#00ABEB" stroke-width="0.15" stroke-miterlimit="10" x1="-12.775" y1="128.712" x2="-12.775" y2="-41.429"/>
				
					<line fill="none" stroke="#00ABEB" stroke-width="0.15" stroke-miterlimit="10" x1="-9.94" y1="128.712" x2="-9.94" y2="-41.429"/>
				
					<line fill="none" stroke="#00ABEB" stroke-width="0.15" stroke-miterlimit="10" x1="-7.105" y1="128.712" x2="-7.105" y2="-41.429"/>
				
					<line fill="none" stroke="#00ABEB" stroke-width="0.15" stroke-miterlimit="10" x1="-4.271" y1="128.712" x2="-4.271" y2="-41.429"/>
				
					<line fill="none" stroke="#00ABEB" stroke-width="0.15" stroke-miterlimit="10" x1="-1.436" y1="128.712" x2="-1.436" y2="-41.429"/>
				
					<line fill="none" stroke="#00ABEB" stroke-width="0.15" stroke-miterlimit="10" x1="1.399" y1="128.712" x2="1.399" y2="-41.429"/>
				
					<line fill="none" stroke="#00ABEB" stroke-width="0.15" stroke-miterlimit="10" x1="4.233" y1="128.712" x2="4.233" y2="-41.429"/>
				
					<line fill="none" stroke="#00ABEB" stroke-width="0.15" stroke-miterlimit="10" x1="7.068" y1="128.712" x2="7.068" y2="-41.429"/>
				
					<line fill="none" stroke="#00ABEB" stroke-width="0.15" stroke-miterlimit="10" x1="9.903" y1="128.712" x2="9.903" y2="-41.429"/>
				
					<line fill="none" stroke="#00ABEB" stroke-width="0.15" stroke-miterlimit="10" x1="12.737" y1="128.712" x2="12.737" y2="-41.429"/>
				
					<line fill="none" stroke="#00ABEB" stroke-width="0.15" stroke-miterlimit="10" x1="15.572" y1="128.712" x2="15.572" y2="-41.429"/>
				
					<line fill="none" stroke="#00ABEB" stroke-width="0.15" stroke-miterlimit="10" x1="18.406" y1="128.712" x2="18.406" y2="-41.429"/>
				
					<line fill="none" stroke="#00ABEB" stroke-width="0.15" stroke-miterlimit="10" x1="21.241" y1="128.712" x2="21.241" y2="-41.429"/>
				
					<line fill="none" stroke="#00ABEB" stroke-width="0.15" stroke-miterlimit="10" x1="24.076" y1="128.712" x2="24.076" y2="-41.429"/>
				
					<line fill="none" stroke="#00ABEB" stroke-width="0.15" stroke-miterlimit="10" x1="26.91" y1="128.712" x2="26.91" y2="-41.429"/>
				
					<line fill="none" stroke="#00ABEB" stroke-width="0.15" stroke-miterlimit="10" x1="29.745" y1="128.712" x2="29.745" y2="-41.429"/>
				
					<line fill="none" stroke="#00ABEB" stroke-width="0.15" stroke-miterlimit="10" x1="32.58" y1="128.712" x2="32.58" y2="-41.429"/>
				
					<line fill="none" stroke="#00ABEB" stroke-width="0.15" stroke-miterlimit="10" x1="35.414" y1="128.712" x2="35.414" y2="-41.429"/>
				
					<line fill="none" stroke="#00ABEB" stroke-width="0.15" stroke-miterlimit="10" x1="38.249" y1="128.712" x2="38.249" y2="-41.429"/>
				
					<line fill="none" stroke="#00ABEB" stroke-width="0.15" stroke-miterlimit="10" x1="41.084" y1="128.712" x2="41.084" y2="-41.429"/>
				
					<line fill="none" stroke="#00ABEB" stroke-width="0.15" stroke-miterlimit="10" x1="43.918" y1="128.712" x2="43.918" y2="-41.429"/>
				
					<line fill="none" stroke="#00ABEB" stroke-width="0.15" stroke-miterlimit="10" x1="46.753" y1="128.712" x2="46.753" y2="-41.429"/>
				
					<line fill="none" stroke="#00ABEB" stroke-width="0.15" stroke-miterlimit="10" x1="49.588" y1="128.712" x2="49.588" y2="-41.429"/>
				
					<line fill="none" stroke="#00ABEB" stroke-width="0.15" stroke-miterlimit="10" x1="52.422" y1="128.712" x2="52.422" y2="-41.429"/>
				
					<line fill="none" stroke="#00ABEB" stroke-width="0.15" stroke-miterlimit="10" x1="55.257" y1="128.712" x2="55.257" y2="-41.429"/>
				
					<line fill="none" stroke="#00ABEB" stroke-width="0.15" stroke-miterlimit="10" x1="58.091" y1="128.712" x2="58.091" y2="-41.429"/>
				
					<line fill="none" stroke="#00ABEB" stroke-width="0.15" stroke-miterlimit="10" x1="60.926" y1="128.712" x2="60.926" y2="-41.429"/>
				
					<line fill="none" stroke="#00ABEB" stroke-width="0.15" stroke-miterlimit="10" x1="63.761" y1="128.712" x2="63.761" y2="-41.429"/>
				
					<line fill="none" stroke="#00ABEB" stroke-width="0.15" stroke-miterlimit="10" x1="66.595" y1="128.712" x2="66.595" y2="-41.429"/>
				
					<line fill="none" stroke="#00ABEB" stroke-width="0.15" stroke-miterlimit="10" x1="69.43" y1="128.712" x2="69.43" y2="-41.429"/>
				
					<line fill="none" stroke="#00ABEB" stroke-width="0.15" stroke-miterlimit="10" x1="72.265" y1="128.712" x2="72.265" y2="-41.429"/>
				
					<line fill="none" stroke="#00ABEB" stroke-width="0.15" stroke-miterlimit="10" x1="75.099" y1="128.712" x2="75.099" y2="-41.429"/>
				
					<line fill="none" stroke="#00ABEB" stroke-width="0.15" stroke-miterlimit="10" x1="77.934" y1="128.712" x2="77.934" y2="-41.429"/>
				
					<line fill="none" stroke="#00ABEB" stroke-width="0.15" stroke-miterlimit="10" x1="80.769" y1="128.712" x2="80.769" y2="-41.429"/>
				
					<line fill="none" stroke="#00ABEB" stroke-width="0.15" stroke-miterlimit="10" x1="83.603" y1="128.712" x2="83.603" y2="-41.429"/>
				
					<line fill="none" stroke="#00ABEB" stroke-width="0.15" stroke-miterlimit="10" x1="86.438" y1="128.712" x2="86.438" y2="-41.429"/>
				
					<line fill="none" stroke="#00ABEB" stroke-width="0.15" stroke-miterlimit="10" x1="89.273" y1="128.712" x2="89.273" y2="-41.429"/>
				
					<line fill="none" stroke="#00ABEB" stroke-width="0.15" stroke-miterlimit="10" x1="92.107" y1="128.712" x2="92.107" y2="-41.429"/>
				
					<line fill="none" stroke="#00ABEB" stroke-width="0.15" stroke-miterlimit="10" x1="94.942" y1="128.712" x2="94.942" y2="-41.429"/>
				
					<line fill="none" stroke="#00ABEB" stroke-width="0.15" stroke-miterlimit="10" x1="97.777" y1="128.712" x2="97.777" y2="-41.429"/>
				
					<line fill="none" stroke="#00ABEB" stroke-width="0.15" stroke-miterlimit="10" x1="100.611" y1="128.712" x2="100.611" y2="-41.429"/>
				
					<line fill="none" stroke="#00ABEB" stroke-width="0.15" stroke-miterlimit="10" x1="103.446" y1="128.712" x2="103.446" y2="-41.429"/>
				
					<line fill="none" stroke="#00ABEB" stroke-width="0.15" stroke-miterlimit="10" x1="106.28" y1="128.712" x2="106.28" y2="-41.429"/>
				
					<line fill="none" stroke="#00ABEB" stroke-width="0.15" stroke-miterlimit="10" x1="109.115" y1="128.712" x2="109.115" y2="-41.429"/>
				
					<line fill="none" stroke="#00ABEB" stroke-width="0.15" stroke-miterlimit="10" x1="111.95" y1="128.712" x2="111.95" y2="-41.429"/>
				
					<line fill="none" stroke="#00ABEB" stroke-width="0.15" stroke-miterlimit="10" x1="114.784" y1="128.712" x2="114.784" y2="-41.429"/>
				
					<line fill="none" stroke="#00ABEB" stroke-width="0.15" stroke-miterlimit="10" x1="117.619" y1="128.712" x2="117.619" y2="-41.429"/>
				
					<line fill="none" stroke="#00ABEB" stroke-width="0.15" stroke-miterlimit="10" x1="120.454" y1="128.712" x2="120.454" y2="-41.429"/>
				
					<line fill="none" stroke="#00ABEB" stroke-width="0.15" stroke-miterlimit="10" x1="123.288" y1="128.712" x2="123.288" y2="-41.429"/>
				
					<line fill="none" stroke="#00ABEB" stroke-width="0.15" stroke-miterlimit="10" x1="126.123" y1="128.712" x2="126.123" y2="-41.429"/>
				
					<line fill="none" stroke="#00ABEB" stroke-width="0.15" stroke-miterlimit="10" x1="128.958" y1="128.712" x2="128.958" y2="-41.429"/>
				
					<line fill="none" stroke="#00ABEB" stroke-width="0.15" stroke-miterlimit="10" x1="131.792" y1="128.712" x2="131.792" y2="-41.429"/>
				
					<line fill="none" stroke="#00ABEB" stroke-width="0.15" stroke-miterlimit="10" x1="134.627" y1="128.712" x2="134.627" y2="-41.429"/>
				
					<line fill="none" stroke="#00ABEB" stroke-width="0.15" stroke-miterlimit="10" x1="137.462" y1="128.712" x2="137.462" y2="-41.429"/>
				
					<line fill="none" stroke="#00ABEB" stroke-width="0.15" stroke-miterlimit="10" x1="140.296" y1="128.712" x2="140.296" y2="-41.429"/>
				
					<line fill="none" stroke="#00ABEB" stroke-width="0.15" stroke-miterlimit="10" x1="143.131" y1="128.712" x2="143.131" y2="-41.429"/>
				
					<line fill="none" stroke="#00ABEB" stroke-width="0.15" stroke-miterlimit="10" x1="145.966" y1="128.712" x2="145.966" y2="-41.429"/>
				
					<line fill="none" stroke="#00ABEB" stroke-width="0.15" stroke-miterlimit="10" x1="148.8" y1="128.712" x2="148.8" y2="-41.429"/>
				
					<line fill="none" stroke="#00ABEB" stroke-width="0.15" stroke-miterlimit="10" x1="151.635" y1="128.712" x2="151.635" y2="-41.429"/>
				
					<line fill="none" stroke="#00ABEB" stroke-width="0.15" stroke-miterlimit="10" x1="154.469" y1="128.712" x2="154.469" y2="-41.429"/>
				
					<line fill="none" stroke="#00ABEB" stroke-width="0.15" stroke-miterlimit="10" x1="157.304" y1="128.712" x2="157.304" y2="-41.429"/>
				
					<line fill="none" stroke="#00ABEB" stroke-width="0.15" stroke-miterlimit="10" x1="160.139" y1="128.712" x2="160.139" y2="-41.429"/>
				
					<line fill="none" stroke="#00ABEB" stroke-width="0.15" stroke-miterlimit="10" x1="162.973" y1="128.712" x2="162.973" y2="-41.429"/>
				
					<line fill="none" stroke="#00ABEB" stroke-width="0.15" stroke-miterlimit="10" x1="165.808" y1="128.712" x2="165.808" y2="-41.429"/>
				
					<line fill="none" stroke="#00ABEB" stroke-width="0.15" stroke-miterlimit="10" x1="168.643" y1="128.712" x2="168.643" y2="-41.429"/>
				
					<line fill="none" stroke="#00ABEB" stroke-width="0.15" stroke-miterlimit="10" x1="171.477" y1="128.712" x2="171.477" y2="-41.429"/>
			</g>
			<g id="Horizontal_5_mm_1_">
				
					<line fill="none" stroke="#00ABEB" stroke-width="0.3" stroke-miterlimit="10" x1="-55.644" y1="128.725" x2="171.472" y2="128.725"/>
				
					<line fill="none" stroke="#00ABEB" stroke-width="0.3" stroke-miterlimit="10" x1="-55.644" y1="114.553" x2="171.472" y2="114.553"/>
				
					<line fill="none" stroke="#00ABEB" stroke-width="0.3" stroke-miterlimit="10" x1="-55.644" y1="100.379" x2="171.472" y2="100.379"/>
				
					<line fill="none" stroke="#00ABEB" stroke-width="0.3" stroke-miterlimit="10" x1="-55.644" y1="86.205" x2="171.472" y2="86.205"/>
				
					<line fill="none" stroke="#00ABEB" stroke-width="0.3" stroke-miterlimit="10" x1="-55.644" y1="72.033" x2="171.472" y2="72.033"/>
				
					<line fill="none" stroke="#00ABEB" stroke-width="0.3" stroke-miterlimit="10" x1="-55.644" y1="57.859" x2="171.472" y2="57.859"/>
				
					<line fill="none" stroke="#00ABEB" stroke-width="0.3" stroke-miterlimit="10" x1="-55.644" y1="43.686" x2="171.472" y2="43.686"/>
				
					<line fill="none" stroke="#00ABEB" stroke-width="0.3" stroke-miterlimit="10" x1="-55.644" y1="29.513" x2="171.472" y2="29.513"/>
				
					<line fill="none" stroke="#00ABEB" stroke-width="0.3" stroke-miterlimit="10" x1="-55.644" y1="15.339" x2="171.472" y2="15.339"/>
				
					<line fill="none" stroke="#00ABEB" stroke-width="0.3" stroke-miterlimit="10" x1="-55.644" y1="1.166" x2="171.472" y2="1.166"/>
				
					<line fill="none" stroke="#00ABEB" stroke-width="0.3" stroke-miterlimit="10" x1="-55.644" y1="-13.007" x2="171.472" y2="-13.007"/>
			</g>
			<g id="Vertical_5_mm">
				
					<line fill="none" stroke="#00ABEB" stroke-width="0.3" stroke-miterlimit="10" x1="-55.294" y1="128.712" x2="-55.294" y2="-41.704"/>
				
					<line fill="none" stroke="#00ABEB" stroke-width="0.3" stroke-miterlimit="10" x1="-41.121" y1="128.712" x2="-41.121" y2="-41.704"/>
				
					<line fill="none" stroke="#00ABEB" stroke-width="0.3" stroke-miterlimit="10" x1="-26.948" y1="128.712" x2="-26.948" y2="-41.704"/>
				
					<line fill="none" stroke="#00ABEB" stroke-width="0.3" stroke-miterlimit="10" x1="-12.775" y1="128.712" x2="-12.775" y2="-41.704"/>
				
					<line fill="none" stroke="#00ABEB" stroke-width="0.3" stroke-miterlimit="10" x1="1.399" y1="128.712" x2="1.399" y2="-41.704"/>
				
					<line fill="none" stroke="#00ABEB" stroke-width="0.3" stroke-miterlimit="10" x1="15.572" y1="128.712" x2="15.572" y2="-41.704"/>
				
					<line fill="none" stroke="#00ABEB" stroke-width="0.3" stroke-miterlimit="10" x1="29.745" y1="128.712" x2="29.745" y2="-41.704"/>
				
					<line fill="none" stroke="#00ABEB" stroke-width="0.3" stroke-miterlimit="10" x1="43.918" y1="128.712" x2="43.918" y2="-41.704"/>
				
					<line fill="none" stroke="#00ABEB" stroke-width="0.3" stroke-miterlimit="10" x1="58.091" y1="128.712" x2="58.091" y2="-41.704"/>
				
					<line fill="none" stroke="#00ABEB" stroke-width="0.3" stroke-miterlimit="10" x1="72.265" y1="128.712" x2="72.265" y2="-41.704"/>
				
					<line fill="none" stroke="#00ABEB" stroke-width="0.3" stroke-miterlimit="10" x1="86.438" y1="128.712" x2="86.438" y2="-41.704"/>
				
					<line fill="none" stroke="#00ABEB" stroke-width="0.3" stroke-miterlimit="10" x1="100.611" y1="128.712" x2="100.611" y2="-41.704"/>
				
					<line fill="none" stroke="#00ABEB" stroke-width="0.3" stroke-miterlimit="10" x1="114.784" y1="128.712" x2="114.784" y2="-41.704"/>
				
					<line fill="none" stroke="#00ABEB" stroke-width="0.3" stroke-miterlimit="10" x1="128.958" y1="128.712" x2="128.958" y2="-41.704"/>
				
					<line fill="none" stroke="#00ABEB" stroke-width="0.3" stroke-miterlimit="10" x1="143.131" y1="128.712" x2="143.131" y2="-41.704"/>
				
					<line fill="none" stroke="#00ABEB" stroke-width="0.3" stroke-miterlimit="10" x1="157.304" y1="128.712" x2="157.304" y2="-41.704"/>
				
					<line fill="none" stroke="#00ABEB" stroke-width="0.3" stroke-miterlimit="10" x1="171.477" y1="128.712" x2="171.477" y2="-41.704"/>
			</g>
			<g id="Horizontal_10_mm">
				
					<line id="_x31_9_1_" fill="none" stroke="#00ABEB" stroke-width="0.7" stroke-miterlimit="10" x1="-55.644" y1="128.725" x2="171.472" y2="128.725"/>
				
					<line id="_x32_0" fill="none" stroke="#00ABEB" stroke-width="0.7" stroke-miterlimit="10" x1="-55.644" y1="100.379" x2="171.472" y2="100.379"/>
				
					<line id="_x32_1" fill="none" stroke="#00ABEB" stroke-width="0.7" stroke-miterlimit="10" x1="-55.644" y1="72.033" x2="171.472" y2="72.033"/>
				
					<line id="_x32_2" fill="none" stroke="#00ABEB" stroke-width="0.7" stroke-miterlimit="10" x1="-55.644" y1="43.686" x2="171.472" y2="43.686"/>
				
					<line id="_x32_3" fill="none" stroke="#00ABEB" stroke-width="0.7" stroke-miterlimit="10" x1="-55.644" y1="15.339" x2="171.472" y2="15.339"/>
				
					<line id="_x32_4" fill="none" stroke="#00ABEB" stroke-width="0.7" stroke-miterlimit="10" x1="-55.644" y1="-13.007" x2="171.472" y2="-13.007"/>
				
					<line id="_x32_5" fill="none" stroke="#00ABEB" stroke-width="0.7" stroke-miterlimit="10" x1="-55.644" y1="-41.354" x2="171.472" y2="-41.354"/>
			</g>
			<g id="Vertical_10_mm">
				
					<line id="_x30_" fill="none" stroke="#00ABEB" stroke-width="0.7" stroke-miterlimit="10" x1="-55.294" y1="128.712" x2="-55.294" y2="-41.704"/>
				
					<line id="_x31_" fill="none" stroke="#00ABEB" stroke-width="0.7" stroke-miterlimit="10" x1="-26.948" y1="128.712" x2="-26.948" y2="-41.704"/>
				
					<line id="_x32_" fill="none" stroke="#00ABEB" stroke-width="0.7" stroke-miterlimit="10" x1="1.399" y1="128.712" x2="1.399" y2="-41.704"/>
				
					<line id="_x33_" fill="none" stroke="#00ABEB" stroke-width="0.7" stroke-miterlimit="10" x1="29.745" y1="128.712" x2="29.745" y2="-41.704"/>
				
					<line id="_x34_" fill="none" stroke="#00ABEB" stroke-width="0.7" stroke-miterlimit="10" x1="58.091" y1="128.712" x2="58.091" y2="-41.704"/>
				
					<line id="_x35_" fill="none" stroke="#00ABEB" stroke-width="0.7" stroke-miterlimit="10" x1="86.438" y1="128.712" x2="86.438" y2="-41.704"/>
				
					<line id="_x36_" fill="none" stroke="#00ABEB" stroke-width="0.7" stroke-miterlimit="10" x1="114.784" y1="128.712" x2="114.784" y2="-41.704"/>
				
					<line id="_x37_" fill="none" stroke="#00ABEB" stroke-width="0.7" stroke-miterlimit="10" x1="143.131" y1="128.712" x2="143.131" y2="-41.704"/>
				
					<line id="_x38_" fill="none" stroke="#00ABEB" stroke-width="0.7" stroke-miterlimit="10" x1="171.477" y1="128.712" x2="171.477" y2="-41.704"/>
			</g>
		</g>
	</g>
</g>
<g id="Layer_2">
	<g>
		<g>
			<line fill="none" stroke="#000000" stroke-width="0.2" stroke-miterlimit="10" x1="29.745" y1="89.04" x2="29.745" y2="2.188"/>
			<g>
				<polygon points="30.485,2.75 29.745,2.435 29.004,2.75 29.745,0.994 				"/>
			</g>
		</g>
	</g>
	<g>
		<g>
			<line fill="none" stroke="#000000" stroke-width="0.2" stroke-miterlimit="10" x1="-2.994" y1="60.68" x2="65.174" y2="60.68"/>
			<g>
				<polygon points="64.612,61.421 64.927,60.68 64.612,59.939 66.368,60.68 				"/>
			</g>
		</g>
	</g>
	<g>
		<path d="M63.506,63.181c0.114-0.251,0.318-0.569,0.563-0.827c0.156-0.162,0.336-0.27,0.474-0.27c0.168,0,0.282,0.126,0.282,0.306
			c0,0.18-0.102,0.324-0.282,0.324c-0.108,0-0.156-0.066-0.21-0.156c-0.036-0.06-0.054-0.084-0.096-0.084
			c-0.108,0-0.276,0.198-0.492,0.564c-0.258,0.444-0.366,0.684-0.666,1.691h-0.456l0.485-1.751c0.084-0.312,0.096-0.366,0.096-0.492
			s-0.108-0.156-0.228-0.156c-0.048,0-0.096,0.006-0.186,0.018v-0.102l0.929-0.162l0.018,0.012l-0.33,1.295L63.506,63.181z"/>
	</g>
	<g>
		<path d="M25.64,3.346c0.348,0.078,0.479,0.144,0.719,0.498c0.156,0.228,0.27,0.3,0.42,0.3c0.096,0,0.162-0.036,0.162-0.09
			c0-0.024-0.012-0.054-0.03-0.09c-0.036-0.072-0.048-0.12-0.048-0.167c0.006-0.102,0.102-0.204,0.198-0.204
			c0.126,0,0.21,0.09,0.21,0.222c0,0.24-0.222,0.456-0.558,0.456c-0.174,0-0.378-0.078-0.678-0.264
			c-0.282-0.174-0.474-0.251-0.629-0.251c-0.096,0-0.174,0.03-0.27,0.108l-0.054-0.054l1.859-2.231h-0.816
			c-0.312,0-0.426,0.054-0.545,0.36l-0.096-0.024l0.192-0.695h1.697v0.066L25.64,3.346z"/>
	</g>
	<circle opacity="0.05" fill="#FF0000" cx="29.372" cy="36.586" r="24.095"/>
	<circle fill="none" stroke="#FF0000" stroke-width="0.3" stroke-miterlimit="10" cx="29.372" cy="36.586" r="24.095"/>
	<g>
		<path fill="#0000FF" d="M23.42,31.759c0.144-0.354,0.282-0.558,0.492-0.719c0.234-0.18,0.492-0.252,0.768-0.252
			c0.576,0,0.971,0.444,0.971,1.013c0,0.402-0.186,0.678-0.894,1.403l-1.127,1.151v0.03h1.085c0.354,0,0.474-0.09,0.618-0.39
			l0.102,0.042l-0.3,0.804h-2.123V34.74l1.259-1.343c0.396-0.419,0.666-0.797,0.81-1.121c0.036-0.078,0.054-0.192,0.054-0.324
			c0-0.414-0.24-0.726-0.714-0.726c-0.359,0-0.666,0.174-0.875,0.576L23.42,31.759z"/>
		<path fill="#0000FF" d="M28.795,34.242c-0.45,0.545-0.594,0.66-0.833,0.66c-0.168,0-0.24-0.072-0.24-0.246
			c0-0.15,0.012-0.198,0.138-0.689c-0.45,0.678-0.797,0.941-1.217,0.941c-0.336,0-0.6-0.24-0.6-0.696
			c0-0.929,0.917-2.015,1.715-2.015c0.258,0,0.432,0.126,0.48,0.348l0.066-0.288l0.018-0.018l0.366-0.042l0.042,0.018
			c-0.012,0.054-0.018,0.066-0.036,0.126c-0.282,1.025-0.534,2.057-0.534,2.177c0,0.042,0.036,0.078,0.084,0.078
			c0.054,0,0.132-0.048,0.312-0.246l0.162-0.174L28.795,34.242z M27.793,32.329c-0.27,0-0.534,0.186-0.786,0.552
			c-0.252,0.378-0.462,0.912-0.462,1.289c0,0.33,0.144,0.444,0.36,0.444c0.3,0,0.582-0.33,0.762-0.587
			c0.282-0.408,0.462-0.924,0.462-1.35C28.129,32.467,28.003,32.329,27.793,32.329z"/>
	</g>
	<g>
		<g>
			
				<line fill="none" stroke="#0000FF" stroke-width="0.1" stroke-linecap="round" stroke-linejoin="round" x1="50.443" y1="25.021" x2="50.317" y2="25.238"/>
			
				<line fill="none" stroke="#0000FF" stroke-width="0.1" stroke-linecap="round" stroke-linejoin="round" stroke-dasharray="0.5029,0.5029" x1="50.065" y1="25.673" x2="29.991" y2="60.246"/>
			
				<line fill="none" stroke="#0000FF" stroke-width="0.1" stroke-linecap="round" stroke-linejoin="round" x1="29.865" y1="60.464" x2="29.739" y2="60.68"/>
		</g>
	</g>
	<g>
		<path fill="#0000FF" d="M34.428,44.703c0.276,0,0.438,0.006,0.606,0.072c0.294,0.114,0.479,0.33,0.479,0.756
			c0,0.695-0.653,1.877-1.835,1.883l-0.324,1.164h-0.468l0.324-1.164c-0.258,0-0.492-0.018-0.642-0.066
			c-0.312-0.102-0.461-0.384-0.461-0.768c0-0.605,0.671-1.877,1.769-1.877h0.09l0.402-1.451h0.461L34.428,44.703z M33.931,44.829
			c-0.696,0-1.319,1.067-1.319,1.913c0,0.251,0.102,0.426,0.288,0.498c0.096,0.036,0.21,0.048,0.348,0.048L33.931,44.829z
			 M33.715,47.288c0.15,0,0.246-0.012,0.414-0.096c0.492-0.246,0.882-1.308,0.882-1.805c0-0.27-0.114-0.42-0.27-0.516
			c-0.06-0.036-0.222-0.042-0.348-0.042L33.715,47.288z"/>
	</g>
	<g>
		<g>
			<path fill="none" stroke="#0000FF" stroke-width="0.1" stroke-miterlimit="10" d="M29.926,48.754c1.913,0,3.72,0.45,5.322,1.25"
				/>
			<g>
				<polygon fill="#0000FF" points="34.824,50.235 35.126,49.97 35.146,49.568 35.775,50.284 				"/>
			</g>
		</g>
	</g>
	<circle cx="29.569" cy="60.68" r="1.344"/>
	<g>
		<path d="M28.085,64.908c-0.318,0.444-0.582,0.642-0.864,0.642c-0.156,0-0.24-0.096-0.24-0.276c0-0.06,0.018-0.162,0.078-0.396
			l0.348-1.361c0.03-0.12,0.042-0.198,0.042-0.228c0-0.072-0.054-0.125-0.12-0.125c-0.18,0-0.486,0.282-0.786,0.702
			c-0.293,0.414-0.414,0.708-0.647,1.631h-0.45l0.162-0.558c0.264-0.912,0.408-1.547,0.408-1.625c0-0.096-0.054-0.15-0.132-0.15
			c-0.204,0-0.558,0.348-0.894,0.857c-0.204,0.312-0.288,0.528-0.576,1.475h-0.45l0.258-0.863c0.24-0.798,0.33-1.295,0.33-1.368
			c0-0.09-0.084-0.132-0.246-0.132h-0.15v-0.096l0.972-0.186l0.018,0.012l-0.348,1.253c0.534-0.869,0.954-1.265,1.319-1.265
			c0.24,0,0.36,0.144,0.36,0.36c0,0.114-0.078,0.45-0.24,0.912c0.42-0.666,0.666-0.966,0.959-1.151
			c0.144-0.09,0.258-0.12,0.378-0.12c0.222,0,0.348,0.162,0.348,0.378c0,0.042-0.012,0.138-0.018,0.168l-0.408,1.505
			c-0.036,0.138-0.06,0.246-0.06,0.27c0,0.066,0.024,0.096,0.072,0.096c0.102,0,0.209-0.096,0.39-0.318l0.126-0.156l0.09,0.072
			L28.085,64.908z"/>
	</g>
	<g>
		<g>
			
				<line fill="none" stroke="#0000FF" stroke-width="0.1" stroke-linecap="round" stroke-linejoin="round" x1="50.443" y1="25.021" x2="50.229" y2="24.892"/>
			
				<line fill="none" stroke="#0000FF" stroke-width="0.1" stroke-linecap="round" stroke-linejoin="round" stroke-dasharray="0.5042,0.5042" x1="49.798" y1="24.631" x2="30.174" y2="12.751"/>
			
				<line fill="none" stroke="#0000FF" stroke-width="0.1" stroke-linecap="round" stroke-linejoin="round" x1="29.958" y1="12.62" x2="29.745" y2="12.491"/>
		</g>
	</g>
	
		<line fill="none" stroke="#0000FF" stroke-width="0.1" stroke-linecap="round" stroke-linejoin="round" stroke-miterlimit="10" x1="48.944" y1="24.114" x2="48.015" y2="25.713"/>
	
		<line fill="none" stroke="#0000FF" stroke-width="0.1" stroke-linecap="round" stroke-linejoin="round" stroke-miterlimit="10" x1="49.514" y1="26.621" x2="48.015" y2="25.713"/>
	<g>
		<path fill="#0000FF" d="M43.477,40.298c0.276-1.062,0.875-1.739,1.517-1.739c0.318,0,0.911,0,0.911,0.821
			c0,0.924-0.935,1.889-1.787,1.889c-0.138,0-0.27-0.024-0.408-0.102l-0.216,0.846c-0.036,0.144-0.096,0.294-0.186,0.42h-0.468
			c0.084-0.126,0.144-0.264,0.186-0.42L43.477,40.298z M44.976,38.685c-0.336,0-0.726,0.444-0.906,1.085
			c-0.108,0.39-0.276,1.013-0.276,1.163c0,0.126,0.126,0.222,0.294,0.222c0.798-0.012,1.283-1.116,1.283-1.823
			C45.371,38.979,45.234,38.685,44.976,38.685z"/>
		<path fill="#0000FF" d="M46.62,39.285v-0.396h3.022v0.396H46.62z M46.62,40.484v-0.396h3.022v0.396H46.62z"/>
		<path fill="#0000FF" d="M50.635,38.121c0.144-0.354,0.282-0.558,0.492-0.719c0.234-0.18,0.492-0.252,0.768-0.252
			c0.576,0,0.971,0.444,0.971,1.013c0,0.402-0.186,0.678-0.894,1.403l-1.127,1.151v0.03h1.085c0.354,0,0.474-0.09,0.618-0.39
			l0.102,0.042l-0.3,0.804h-2.123v-0.102l1.259-1.343c0.396-0.419,0.666-0.797,0.81-1.121c0.036-0.078,0.054-0.192,0.054-0.324
			c0-0.414-0.24-0.726-0.714-0.726c-0.359,0-0.666,0.174-0.875,0.576L50.635,38.121z"/>
		<path fill="#0000FF" d="M56.009,40.604c-0.45,0.545-0.594,0.66-0.833,0.66c-0.168,0-0.24-0.072-0.24-0.246
			c0-0.15,0.012-0.198,0.138-0.689c-0.45,0.678-0.797,0.941-1.217,0.941c-0.336,0-0.6-0.24-0.6-0.696
			c0-0.929,0.917-2.015,1.715-2.015c0.258,0,0.432,0.126,0.48,0.348l0.066-0.288l0.018-0.018l0.366-0.042l0.042,0.018
			c-0.012,0.054-0.018,0.066-0.036,0.126c-0.282,1.025-0.534,2.057-0.534,2.177c0,0.042,0.036,0.078,0.084,0.078
			c0.054,0,0.132-0.048,0.312-0.246l0.162-0.174L56.009,40.604z M55.008,38.691c-0.27,0-0.534,0.186-0.786,0.552
			c-0.252,0.378-0.462,0.912-0.462,1.289c0,0.33,0.144,0.444,0.36,0.444c0.3,0,0.582-0.33,0.762-0.587
			c0.282-0.408,0.462-0.924,0.462-1.35C55.344,38.829,55.218,38.691,55.008,38.691z"/>
		<path fill="#0000FF" d="M58.632,40.322c-0.192,0.372-0.312,0.545-0.492,0.689c-0.204,0.168-0.432,0.252-0.69,0.252
			c-0.666,0-1.139-0.558-1.139-1.332c0-0.498,0.18-0.911,0.504-1.181c0.24-0.198,0.527-0.306,0.81-0.306
			c0.503,0,0.923,0.282,0.923,0.618c0,0.138-0.126,0.251-0.282,0.251c-0.132,0-0.24-0.102-0.288-0.276l-0.036-0.132
			c-0.06-0.222-0.138-0.288-0.354-0.288c-0.486,0-0.815,0.419-0.815,1.043c0,0.689,0.377,1.169,0.929,1.169
			c0.342,0,0.558-0.144,0.846-0.564L58.632,40.322z"/>
		<path fill="#0000FF" d="M60.294,41.264c-0.726,0-1.295-0.594-1.295-1.427s0.54-1.391,1.349-1.391c0.732,0,1.295,0.545,1.295,1.373
			C61.643,40.652,61.104,41.264,60.294,41.264z M60.804,38.913c-0.144-0.18-0.312-0.3-0.57-0.3c-0.414,0-0.696,0.354-0.696,0.954
			c0,0.474,0.096,0.906,0.318,1.229c0.132,0.192,0.324,0.3,0.54,0.3c0.443,0,0.708-0.42,0.708-1.115
			C61.104,39.573,60.996,39.159,60.804,38.913z"/>
		<path fill="#0000FF" d="M63.384,39.776c0.384,0.234,0.528,0.396,0.528,0.738c0,0.401-0.384,0.75-0.84,0.75
			c-0.125,0-0.3-0.006-0.438-0.054c-0.144-0.048-0.21-0.054-0.276-0.054c-0.072,0-0.108,0.012-0.144,0.072h-0.078v-0.941h0.096
			c0.126,0.582,0.348,0.846,0.762,0.846c0.306,0,0.498-0.198,0.498-0.444c0-0.186-0.12-0.342-0.318-0.45l-0.324-0.18
			c-0.498-0.276-0.72-0.563-0.72-0.869c0-0.474,0.336-0.738,0.828-0.738c0.144,0,0.276,0.006,0.402,0.066
			c0.066,0.03,0.126,0.048,0.168,0.048c0.024,0,0.048-0.006,0.096-0.06h0.066l0.03,0.816h-0.09c-0.138-0.54-0.318-0.738-0.678-0.738
			c-0.258,0-0.45,0.126-0.45,0.408c0,0.132,0.09,0.306,0.258,0.408L63.384,39.776z"/>
		<path fill="#0000FF" d="M66.641,38.559c0.276,0,0.438,0.006,0.606,0.072c0.294,0.114,0.479,0.33,0.479,0.756
			c0,0.695-0.653,1.877-1.835,1.883l-0.324,1.164H65.1l0.324-1.164c-0.258,0-0.492-0.018-0.642-0.066
			c-0.312-0.102-0.461-0.384-0.461-0.768c0-0.605,0.671-1.877,1.769-1.877h0.09l0.402-1.451h0.461L66.641,38.559z M66.143,38.685
			c-0.696,0-1.319,1.067-1.319,1.913c0,0.251,0.102,0.426,0.288,0.498c0.096,0.036,0.21,0.048,0.348,0.048L66.143,38.685z
			 M65.928,41.143c0.15,0,0.246-0.012,0.414-0.096c0.492-0.246,0.882-1.308,0.882-1.805c0-0.27-0.114-0.42-0.27-0.516
			c-0.06-0.036-0.222-0.042-0.348-0.042L65.928,41.143z"/>
	</g>
	<g>
		<path fill="#FF0000" d="M16.017,11.198c-0.342,0.054-0.402,0.138-0.486,0.444l-0.737,2.656c-0.042,0.15-0.084,0.276-0.084,0.372
			c0,0.156,0.108,0.24,0.486,0.252l-0.006,0.096h-1.625v-0.096c0.39-0.042,0.51-0.144,0.612-0.516l0.755-2.752l-2.254,3.364h-0.102
			l-0.372-3.274l-0.708,2.567c-0.03,0.108-0.054,0.258-0.054,0.324c0,0.168,0.114,0.264,0.419,0.288v0.096H10.68v-0.096
			c0.312-0.036,0.408-0.132,0.6-0.804l0.684-2.405c0.048-0.162,0.072-0.264,0.072-0.312c0-0.114-0.144-0.186-0.443-0.204v-0.096
			h1.085l0.335,2.951l2.009-2.951h0.995V11.198z"/>
	</g>
</g>
<g id="Layer_3">
	<circle fill="#0000FF" cx="50.443" cy="25.021" r="0.709"/>
	<g>
	</g>
</g>
</svg>
