<?xml version="1.0" encoding="utf-8"?>
<!-- Generator: Adobe Illustrator 25.4.1, SVG Export Plug-In . SVG Version: 6.00 Build 0)  -->
<svg version="1.1" xmlns="http://www.w3.org/2000/svg" xmlns:xlink="http://www.w3.org/1999/xlink" x="0px" y="0px"
	 viewBox="0 0 78.258 79.518" enable-background="new 0 0 78.258 79.518" xml:space="preserve">
<g id="Graph_paper_slanted" opacity="0.5">
	<g id="Clipped_grid_00000003068028900943026870000011536296927355263674_">
		<defs>
			<polygon id="SVGID_1_" points="55.203,79.699 -36.227,79.699 11.863,31.609 103.294,31.609 			"/>
		</defs>
		<clipPath id="SVGID_00000104696346544375338660000003076247397361058703_">
			<use xlink:href="#SVGID_1_"  overflow="visible"/>
		</clipPath>
		
			<g id="Grid_00000142891597197125820610000009767860333217090727_" opacity="0.25" clip-path="url(#SVGID_00000104696346544375338660000003076247397361058703_)">
			<g id="Horizontal_1_mm_00000151508609497893311650000018408800186222605470_">
				
					<line fill="none" stroke="#00ABEB" stroke-width="0.15" stroke-miterlimit="10" x1="-22.281" y1="-1.987" x2="204.56" y2="-1.987"/>
				
					<line fill="none" stroke="#00ABEB" stroke-width="0.15" stroke-miterlimit="10" x1="-20.293" y1="-3.975" x2="206.548" y2="-3.975"/>
				
					<line fill="none" stroke="#00ABEB" stroke-width="0.15" stroke-miterlimit="10" x1="-139.57" y1="115.302" x2="87.271" y2="115.302"/>
				
					<line fill="none" stroke="#00ABEB" stroke-width="0.15" stroke-miterlimit="10" x1="-137.581" y1="113.313" x2="89.259" y2="113.313"/>
				
					<line fill="none" stroke="#00ABEB" stroke-width="0.15" stroke-miterlimit="10" x1="-135.594" y1="111.326" x2="91.247" y2="111.326"/>
				
					<line fill="none" stroke="#00ABEB" stroke-width="0.15" stroke-miterlimit="10" x1="-133.606" y1="109.338" x2="93.235" y2="109.338"/>
				
					<line fill="none" stroke="#00ABEB" stroke-width="0.15" stroke-miterlimit="10" x1="-131.618" y1="107.35" x2="95.223" y2="107.35"/>
				
					<line fill="none" stroke="#00ABEB" stroke-width="0.15" stroke-miterlimit="10" x1="-129.63" y1="105.362" x2="97.211" y2="105.362"/>
				
					<line fill="none" stroke="#00ABEB" stroke-width="0.15" stroke-miterlimit="10" x1="-127.642" y1="103.374" x2="99.199" y2="103.374"/>
				
					<line fill="none" stroke="#00ABEB" stroke-width="0.15" stroke-miterlimit="10" x1="-125.654" y1="101.387" x2="101.186" y2="101.387"/>
				
					<line fill="none" stroke="#00ABEB" stroke-width="0.15" stroke-miterlimit="10" x1="-123.666" y1="99.398" x2="103.175" y2="99.398"/>
				
					<line fill="none" stroke="#00ABEB" stroke-width="0.15" stroke-miterlimit="10" x1="-121.678" y1="97.41" x2="105.163" y2="97.41"/>
				
					<line fill="none" stroke="#00ABEB" stroke-width="0.15" stroke-miterlimit="10" x1="-119.69" y1="95.422" x2="107.151" y2="95.422"/>
				
					<line fill="none" stroke="#00ABEB" stroke-width="0.15" stroke-miterlimit="10" x1="-117.702" y1="93.434" x2="109.139" y2="93.434"/>
				
					<line fill="none" stroke="#00ABEB" stroke-width="0.15" stroke-miterlimit="10" x1="-115.714" y1="91.446" x2="111.127" y2="91.446"/>
				
					<line fill="none" stroke="#00ABEB" stroke-width="0.15" stroke-miterlimit="10" x1="-113.726" y1="89.459" x2="113.114" y2="89.459"/>
				
					<line fill="none" stroke="#00ABEB" stroke-width="0.15" stroke-miterlimit="10" x1="-111.738" y1="87.47" x2="115.103" y2="87.47"/>
				
					<line fill="none" stroke="#00ABEB" stroke-width="0.15" stroke-miterlimit="10" x1="-109.75" y1="85.482" x2="117.091" y2="85.482"/>
				
					<line fill="none" stroke="#00ABEB" stroke-width="0.15" stroke-miterlimit="10" x1="-107.763" y1="83.495" x2="119.078" y2="83.495"/>
				
					<line fill="none" stroke="#00ABEB" stroke-width="0.15" stroke-miterlimit="10" x1="-105.774" y1="81.507" x2="121.066" y2="81.507"/>
				
					<line fill="none" stroke="#00ABEB" stroke-width="0.15" stroke-miterlimit="10" x1="-103.786" y1="79.518" x2="123.055" y2="79.518"/>
				
					<line fill="none" stroke="#00ABEB" stroke-width="0.15" stroke-miterlimit="10" x1="-101.799" y1="77.531" x2="125.042" y2="77.531"/>
				
					<line fill="none" stroke="#00ABEB" stroke-width="0.15" stroke-miterlimit="10" x1="-99.811" y1="75.543" x2="127.03" y2="75.543"/>
				
					<line fill="none" stroke="#00ABEB" stroke-width="0.15" stroke-miterlimit="10" x1="-97.822" y1="73.554" x2="129.019" y2="73.554"/>
				
					<line fill="none" stroke="#00ABEB" stroke-width="0.15" stroke-miterlimit="10" x1="-95.835" y1="71.567" x2="131.006" y2="71.567"/>
				
					<line fill="none" stroke="#00ABEB" stroke-width="0.15" stroke-miterlimit="10" x1="-93.847" y1="69.579" x2="132.994" y2="69.579"/>
				
					<line fill="none" stroke="#00ABEB" stroke-width="0.15" stroke-miterlimit="10" x1="-91.859" y1="67.591" x2="134.982" y2="67.591"/>
				
					<line fill="none" stroke="#00ABEB" stroke-width="0.15" stroke-miterlimit="10" x1="-89.871" y1="65.603" x2="136.97" y2="65.603"/>
				
					<line fill="none" stroke="#00ABEB" stroke-width="0.15" stroke-miterlimit="10" x1="-87.883" y1="63.615" x2="138.958" y2="63.615"/>
				
					<line fill="none" stroke="#00ABEB" stroke-width="0.15" stroke-miterlimit="10" x1="-85.895" y1="61.627" x2="140.946" y2="61.627"/>
				
					<line fill="none" stroke="#00ABEB" stroke-width="0.15" stroke-miterlimit="10" x1="-83.907" y1="59.639" x2="142.934" y2="59.639"/>
				
					<line fill="none" stroke="#00ABEB" stroke-width="0.15" stroke-miterlimit="10" x1="-81.919" y1="57.651" x2="144.922" y2="57.651"/>
				
					<line fill="none" stroke="#00ABEB" stroke-width="0.15" stroke-miterlimit="10" x1="-79.931" y1="55.664" x2="146.909" y2="55.664"/>
				
					<line fill="none" stroke="#00ABEB" stroke-width="0.15" stroke-miterlimit="10" x1="-77.943" y1="53.676" x2="148.898" y2="53.676"/>
				
					<line fill="none" stroke="#00ABEB" stroke-width="0.15" stroke-miterlimit="10" x1="-75.955" y1="51.687" x2="150.886" y2="51.687"/>
				
					<line fill="none" stroke="#00ABEB" stroke-width="0.15" stroke-miterlimit="10" x1="-73.968" y1="49.7" x2="152.873" y2="49.7"/>
				
					<line fill="none" stroke="#00ABEB" stroke-width="0.15" stroke-miterlimit="10" x1="-71.979" y1="47.712" x2="154.861" y2="47.712"/>
				
					<line fill="none" stroke="#00ABEB" stroke-width="0.15" stroke-miterlimit="10" x1="-69.991" y1="45.724" x2="156.85" y2="45.724"/>
				
					<line fill="none" stroke="#00ABEB" stroke-width="0.15" stroke-miterlimit="10" x1="-68.004" y1="43.736" x2="158.837" y2="43.736"/>
				
					<line fill="none" stroke="#00ABEB" stroke-width="0.15" stroke-miterlimit="10" x1="-66.016" y1="41.748" x2="160.825" y2="41.748"/>
				
					<line fill="none" stroke="#00ABEB" stroke-width="0.15" stroke-miterlimit="10" x1="-64.027" y1="39.76" x2="162.813" y2="39.76"/>
				
					<line fill="none" stroke="#00ABEB" stroke-width="0.15" stroke-miterlimit="10" x1="-62.04" y1="37.772" x2="164.801" y2="37.772"/>
				
					<line fill="none" stroke="#00ABEB" stroke-width="0.15" stroke-miterlimit="10" x1="-60.051" y1="35.784" x2="166.789" y2="35.784"/>
				
					<line fill="none" stroke="#00ABEB" stroke-width="0.15" stroke-miterlimit="10" x1="-58.064" y1="33.796" x2="168.777" y2="33.796"/>
				
					<line fill="none" stroke="#00ABEB" stroke-width="0.15" stroke-miterlimit="10" x1="-56.076" y1="31.808" x2="170.765" y2="31.808"/>
				
					<line fill="none" stroke="#00ABEB" stroke-width="0.15" stroke-miterlimit="10" x1="-54.088" y1="29.82" x2="172.753" y2="29.82"/>
				
					<line fill="none" stroke="#00ABEB" stroke-width="0.15" stroke-miterlimit="10" x1="-52.1" y1="27.833" x2="174.741" y2="27.833"/>
				
					<line fill="none" stroke="#00ABEB" stroke-width="0.15" stroke-miterlimit="10" x1="-50.112" y1="25.845" x2="176.729" y2="25.845"/>
				
					<line fill="none" stroke="#00ABEB" stroke-width="0.15" stroke-miterlimit="10" x1="-48.124" y1="23.856" x2="178.717" y2="23.856"/>
				
					<line fill="none" stroke="#00ABEB" stroke-width="0.15" stroke-miterlimit="10" x1="-46.136" y1="21.869" x2="180.704" y2="21.869"/>
				
					<line fill="none" stroke="#00ABEB" stroke-width="0.15" stroke-miterlimit="10" x1="-44.148" y1="19.881" x2="182.693" y2="19.881"/>
				
					<line fill="none" stroke="#00ABEB" stroke-width="0.15" stroke-miterlimit="10" x1="-42.16" y1="17.893" x2="184.681" y2="17.893"/>
				
					<line fill="none" stroke="#00ABEB" stroke-width="0.15" stroke-miterlimit="10" x1="-40.173" y1="15.905" x2="186.668" y2="15.905"/>
				
					<line fill="none" stroke="#00ABEB" stroke-width="0.15" stroke-miterlimit="10" x1="-38.184" y1="13.917" x2="188.656" y2="13.917"/>
				
					<line fill="none" stroke="#00ABEB" stroke-width="0.15" stroke-miterlimit="10" x1="-36.196" y1="11.929" x2="190.645" y2="11.929"/>
				
					<line fill="none" stroke="#00ABEB" stroke-width="0.15" stroke-miterlimit="10" x1="-34.209" y1="9.941" x2="192.632" y2="9.941"/>
				
					<line fill="none" stroke="#00ABEB" stroke-width="0.15" stroke-miterlimit="10" x1="-32.22" y1="7.953" x2="194.621" y2="7.953"/>
				
					<line fill="none" stroke="#00ABEB" stroke-width="0.15" stroke-miterlimit="10" x1="-30.233" y1="5.965" x2="196.608" y2="5.965"/>
				
					<line fill="none" stroke="#00ABEB" stroke-width="0.15" stroke-miterlimit="10" x1="-28.245" y1="3.977" x2="198.596" y2="3.977"/>
				
					<line fill="none" stroke="#00ABEB" stroke-width="0.15" stroke-miterlimit="10" x1="-26.256" y1="1.989" x2="200.584" y2="1.989"/>
				
					<line fill="none" stroke="#00ABEB" stroke-width="0.15" stroke-miterlimit="10" x1="-24.269" y1="0.002" x2="202.572" y2="0.002"/>
			</g>
			<g id="Vertical_1_mm_00000181073523592228201180000012361058669048395659_">
				<g>
					
						<line fill="none" stroke="#00ABEB" stroke-width="0.15" stroke-miterlimit="10" x1="-139.485" y1="115.292" x2="-20.165" y2="-4.027"/>
				</g>
				
					<line fill="none" stroke="#00ABEB" stroke-width="0.15" stroke-miterlimit="10" x1="-136.651" y1="115.292" x2="-17.331" y2="-4.027"/>
				
					<line fill="none" stroke="#00ABEB" stroke-width="0.15" stroke-miterlimit="10" x1="-133.816" y1="115.292" x2="-14.496" y2="-4.027"/>
				
					<line fill="none" stroke="#00ABEB" stroke-width="0.15" stroke-miterlimit="10" x1="-130.981" y1="115.292" x2="-11.661" y2="-4.027"/>
				
					<line fill="none" stroke="#00ABEB" stroke-width="0.15" stroke-miterlimit="10" x1="-128.147" y1="115.292" x2="-8.827" y2="-4.027"/>
				
					<line fill="none" stroke="#00ABEB" stroke-width="0.15" stroke-miterlimit="10" x1="-125.312" y1="115.292" x2="-5.992" y2="-4.027"/>
				
					<line fill="none" stroke="#00ABEB" stroke-width="0.15" stroke-miterlimit="10" x1="-122.477" y1="115.292" x2="-3.157" y2="-4.027"/>
				
					<line fill="none" stroke="#00ABEB" stroke-width="0.15" stroke-miterlimit="10" x1="-119.643" y1="115.292" x2="-0.323" y2="-4.027"/>
				
					<line fill="none" stroke="#00ABEB" stroke-width="0.15" stroke-miterlimit="10" x1="-116.807" y1="115.292" x2="2.513" y2="-4.027"/>
				
					<line fill="none" stroke="#00ABEB" stroke-width="0.15" stroke-miterlimit="10" x1="-113.973" y1="115.292" x2="5.347" y2="-4.027"/>
				
					<line fill="none" stroke="#00ABEB" stroke-width="0.15" stroke-miterlimit="10" x1="-111.139" y1="115.292" x2="8.181" y2="-4.027"/>
				
					<line fill="none" stroke="#00ABEB" stroke-width="0.15" stroke-miterlimit="10" x1="-108.304" y1="115.292" x2="11.016" y2="-4.027"/>
				
					<line fill="none" stroke="#00ABEB" stroke-width="0.15" stroke-miterlimit="10" x1="-105.47" y1="115.292" x2="13.85" y2="-4.027"/>
				
					<line fill="none" stroke="#00ABEB" stroke-width="0.15" stroke-miterlimit="10" x1="-102.635" y1="115.292" x2="16.685" y2="-4.027"/>
				
					<line fill="none" stroke="#00ABEB" stroke-width="0.15" stroke-miterlimit="10" x1="-99.8" y1="115.292" x2="19.52" y2="-4.027"/>
				
					<line fill="none" stroke="#00ABEB" stroke-width="0.15" stroke-miterlimit="10" x1="-96.966" y1="115.292" x2="22.354" y2="-4.027"/>
				
					<line fill="none" stroke="#00ABEB" stroke-width="0.15" stroke-miterlimit="10" x1="-94.131" y1="115.292" x2="25.189" y2="-4.027"/>
				
					<line fill="none" stroke="#00ABEB" stroke-width="0.15" stroke-miterlimit="10" x1="-91.296" y1="115.292" x2="28.024" y2="-4.027"/>
				
					<line fill="none" stroke="#00ABEB" stroke-width="0.15" stroke-miterlimit="10" x1="-88.462" y1="115.292" x2="30.858" y2="-4.027"/>
				
					<line fill="none" stroke="#00ABEB" stroke-width="0.15" stroke-miterlimit="10" x1="-85.627" y1="115.292" x2="33.693" y2="-4.027"/>
				
					<line fill="none" stroke="#00ABEB" stroke-width="0.15" stroke-miterlimit="10" x1="-82.792" y1="115.292" x2="36.528" y2="-4.027"/>
				
					<line fill="none" stroke="#00ABEB" stroke-width="0.15" stroke-miterlimit="10" x1="-79.958" y1="115.292" x2="39.362" y2="-4.027"/>
				
					<line fill="none" stroke="#00ABEB" stroke-width="0.15" stroke-miterlimit="10" x1="-77.123" y1="115.292" x2="42.197" y2="-4.027"/>
				
					<line fill="none" stroke="#00ABEB" stroke-width="0.15" stroke-miterlimit="10" x1="-74.288" y1="115.292" x2="45.032" y2="-4.027"/>
				
					<line fill="none" stroke="#00ABEB" stroke-width="0.15" stroke-miterlimit="10" x1="-71.453" y1="115.292" x2="47.867" y2="-4.027"/>
				
					<line fill="none" stroke="#00ABEB" stroke-width="0.15" stroke-miterlimit="10" x1="-68.618" y1="115.292" x2="50.702" y2="-4.027"/>
				
					<line fill="none" stroke="#00ABEB" stroke-width="0.15" stroke-miterlimit="10" x1="-65.785" y1="115.292" x2="53.535" y2="-4.027"/>
				
					<line fill="none" stroke="#00ABEB" stroke-width="0.15" stroke-miterlimit="10" x1="-62.95" y1="115.292" x2="56.37" y2="-4.027"/>
				
					<line fill="none" stroke="#00ABEB" stroke-width="0.15" stroke-miterlimit="10" x1="-60.115" y1="115.292" x2="59.205" y2="-4.027"/>
				
					<line fill="none" stroke="#00ABEB" stroke-width="0.15" stroke-miterlimit="10" x1="-57.281" y1="115.292" x2="62.039" y2="-4.027"/>
				
					<line fill="none" stroke="#00ABEB" stroke-width="0.15" stroke-miterlimit="10" x1="-54.446" y1="115.292" x2="64.874" y2="-4.027"/>
				
					<line fill="none" stroke="#00ABEB" stroke-width="0.15" stroke-miterlimit="10" x1="-51.611" y1="115.292" x2="67.709" y2="-4.027"/>
				
					<line fill="none" stroke="#00ABEB" stroke-width="0.15" stroke-miterlimit="10" x1="-48.777" y1="115.292" x2="70.543" y2="-4.027"/>
				
					<line fill="none" stroke="#00ABEB" stroke-width="0.15" stroke-miterlimit="10" x1="-45.942" y1="115.292" x2="73.378" y2="-4.027"/>
				
					<line fill="none" stroke="#00ABEB" stroke-width="0.15" stroke-miterlimit="10" x1="-43.107" y1="115.292" x2="76.213" y2="-4.027"/>
				
					<line fill="none" stroke="#00ABEB" stroke-width="0.15" stroke-miterlimit="10" x1="-40.273" y1="115.292" x2="79.047" y2="-4.027"/>
				
					<line fill="none" stroke="#00ABEB" stroke-width="0.15" stroke-miterlimit="10" x1="-37.438" y1="115.292" x2="81.882" y2="-4.027"/>
				
					<line fill="none" stroke="#00ABEB" stroke-width="0.15" stroke-miterlimit="10" x1="-34.603" y1="115.292" x2="84.717" y2="-4.027"/>
				
					<line fill="none" stroke="#00ABEB" stroke-width="0.15" stroke-miterlimit="10" x1="-31.769" y1="115.292" x2="87.551" y2="-4.027"/>
				
					<line fill="none" stroke="#00ABEB" stroke-width="0.15" stroke-miterlimit="10" x1="-28.934" y1="115.292" x2="90.386" y2="-4.027"/>
				
					<line fill="none" stroke="#00ABEB" stroke-width="0.15" stroke-miterlimit="10" x1="-26.1" y1="115.292" x2="93.22" y2="-4.027"/>
				
					<line fill="none" stroke="#00ABEB" stroke-width="0.15" stroke-miterlimit="10" x1="-23.264" y1="115.292" x2="96.056" y2="-4.027"/>
				
					<line fill="none" stroke="#00ABEB" stroke-width="0.15" stroke-miterlimit="10" x1="-20.43" y1="115.292" x2="98.89" y2="-4.027"/>
				
					<line fill="none" stroke="#00ABEB" stroke-width="0.15" stroke-miterlimit="10" x1="-17.596" y1="115.292" x2="101.724" y2="-4.027"/>
				
					<line fill="none" stroke="#00ABEB" stroke-width="0.15" stroke-miterlimit="10" x1="-14.761" y1="115.292" x2="104.559" y2="-4.027"/>
				
					<line fill="none" stroke="#00ABEB" stroke-width="0.15" stroke-miterlimit="10" x1="-11.926" y1="115.292" x2="107.394" y2="-4.027"/>
				
					<line fill="none" stroke="#00ABEB" stroke-width="0.15" stroke-miterlimit="10" x1="-9.092" y1="115.292" x2="110.228" y2="-4.027"/>
				
					<line fill="none" stroke="#00ABEB" stroke-width="0.15" stroke-miterlimit="10" x1="-6.257" y1="115.292" x2="113.063" y2="-4.027"/>
				
					<line fill="none" stroke="#00ABEB" stroke-width="0.15" stroke-miterlimit="10" x1="-3.422" y1="115.292" x2="115.898" y2="-4.027"/>
				
					<line fill="none" stroke="#00ABEB" stroke-width="0.15" stroke-miterlimit="10" x1="-0.588" y1="115.292" x2="118.732" y2="-4.027"/>
				
					<line fill="none" stroke="#00ABEB" stroke-width="0.15" stroke-miterlimit="10" x1="2.247" y1="115.292" x2="121.567" y2="-4.027"/>
				
					<line fill="none" stroke="#00ABEB" stroke-width="0.15" stroke-miterlimit="10" x1="5.082" y1="115.292" x2="124.402" y2="-4.027"/>
				
					<line fill="none" stroke="#00ABEB" stroke-width="0.15" stroke-miterlimit="10" x1="7.916" y1="115.292" x2="127.236" y2="-4.027"/>
				
					<line fill="none" stroke="#00ABEB" stroke-width="0.15" stroke-miterlimit="10" x1="10.751" y1="115.292" x2="130.071" y2="-4.027"/>
				
					<line fill="none" stroke="#00ABEB" stroke-width="0.15" stroke-miterlimit="10" x1="13.586" y1="115.292" x2="132.906" y2="-4.027"/>
				
					<line fill="none" stroke="#00ABEB" stroke-width="0.15" stroke-miterlimit="10" x1="16.42" y1="115.292" x2="135.74" y2="-4.027"/>
				
					<line fill="none" stroke="#00ABEB" stroke-width="0.15" stroke-miterlimit="10" x1="19.256" y1="115.292" x2="138.576" y2="-4.027"/>
				
					<line fill="none" stroke="#00ABEB" stroke-width="0.15" stroke-miterlimit="10" x1="22.09" y1="115.292" x2="141.41" y2="-4.027"/>
				
					<line fill="none" stroke="#00ABEB" stroke-width="0.15" stroke-miterlimit="10" x1="24.924" y1="115.292" x2="144.244" y2="-4.027"/>
				
					<line fill="none" stroke="#00ABEB" stroke-width="0.15" stroke-miterlimit="10" x1="27.759" y1="115.292" x2="147.079" y2="-4.027"/>
				
					<line fill="none" stroke="#00ABEB" stroke-width="0.15" stroke-miterlimit="10" x1="30.593" y1="115.292" x2="149.913" y2="-4.027"/>
				
					<line fill="none" stroke="#00ABEB" stroke-width="0.15" stroke-miterlimit="10" x1="33.428" y1="115.292" x2="152.748" y2="-4.027"/>
				
					<line fill="none" stroke="#00ABEB" stroke-width="0.15" stroke-miterlimit="10" x1="36.263" y1="115.292" x2="155.583" y2="-4.027"/>
				
					<line fill="none" stroke="#00ABEB" stroke-width="0.15" stroke-miterlimit="10" x1="39.097" y1="115.292" x2="158.417" y2="-4.027"/>
				
					<line fill="none" stroke="#00ABEB" stroke-width="0.15" stroke-miterlimit="10" x1="41.932" y1="115.292" x2="161.252" y2="-4.027"/>
				
					<line fill="none" stroke="#00ABEB" stroke-width="0.15" stroke-miterlimit="10" x1="44.767" y1="115.292" x2="164.087" y2="-4.027"/>
				
					<line fill="none" stroke="#00ABEB" stroke-width="0.15" stroke-miterlimit="10" x1="47.601" y1="115.292" x2="166.921" y2="-4.027"/>
				
					<line fill="none" stroke="#00ABEB" stroke-width="0.15" stroke-miterlimit="10" x1="50.436" y1="115.292" x2="169.756" y2="-4.027"/>
				
					<line fill="none" stroke="#00ABEB" stroke-width="0.15" stroke-miterlimit="10" x1="53.271" y1="115.292" x2="172.591" y2="-4.027"/>
				
					<line fill="none" stroke="#00ABEB" stroke-width="0.15" stroke-miterlimit="10" x1="56.105" y1="115.292" x2="175.425" y2="-4.027"/>
				
					<line fill="none" stroke="#00ABEB" stroke-width="0.15" stroke-miterlimit="10" x1="58.94" y1="115.292" x2="178.26" y2="-4.027"/>
				
					<line fill="none" stroke="#00ABEB" stroke-width="0.15" stroke-miterlimit="10" x1="61.775" y1="115.292" x2="181.095" y2="-4.027"/>
				
					<line fill="none" stroke="#00ABEB" stroke-width="0.15" stroke-miterlimit="10" x1="64.61" y1="115.292" x2="183.93" y2="-4.027"/>
				
					<line fill="none" stroke="#00ABEB" stroke-width="0.15" stroke-miterlimit="10" x1="67.444" y1="115.292" x2="186.764" y2="-4.027"/>
				
					<line fill="none" stroke="#00ABEB" stroke-width="0.15" stroke-miterlimit="10" x1="70.278" y1="115.292" x2="189.598" y2="-4.027"/>
				
					<line fill="none" stroke="#00ABEB" stroke-width="0.15" stroke-miterlimit="10" x1="73.113" y1="115.292" x2="192.433" y2="-4.027"/>
				
					<line fill="none" stroke="#00ABEB" stroke-width="0.15" stroke-miterlimit="10" x1="75.948" y1="115.292" x2="195.268" y2="-4.027"/>
				
					<line fill="none" stroke="#00ABEB" stroke-width="0.15" stroke-miterlimit="10" x1="78.782" y1="115.292" x2="198.102" y2="-4.027"/>
				
					<line fill="none" stroke="#00ABEB" stroke-width="0.15" stroke-miterlimit="10" x1="81.617" y1="115.292" x2="200.937" y2="-4.027"/>
				
					<line fill="none" stroke="#00ABEB" stroke-width="0.15" stroke-miterlimit="10" x1="84.452" y1="115.292" x2="203.772" y2="-4.027"/>
				
					<line fill="none" stroke="#00ABEB" stroke-width="0.15" stroke-miterlimit="10" x1="87.286" y1="115.292" x2="206.606" y2="-4.027"/>
			</g>
			<g id="Horizontal_5_mm_00000011735556503592991880000008134099091165005186_">
				
					<line fill="none" stroke="#00ABEB" stroke-width="0.3" stroke-miterlimit="10" x1="-139.844" y1="115.302" x2="87.271" y2="115.302"/>
				
					<line fill="none" stroke="#00ABEB" stroke-width="0.3" stroke-miterlimit="10" x1="-129.905" y1="105.362" x2="97.211" y2="105.362"/>
				
					<line fill="none" stroke="#00ABEB" stroke-width="0.3" stroke-miterlimit="10" x1="-119.965" y1="95.422" x2="107.151" y2="95.422"/>
				
					<line fill="none" stroke="#00ABEB" stroke-width="0.3" stroke-miterlimit="10" x1="-110.025" y1="85.482" x2="117.091" y2="85.482"/>
				
					<line fill="none" stroke="#00ABEB" stroke-width="0.3" stroke-miterlimit="10" x1="-100.086" y1="75.543" x2="127.03" y2="75.543"/>
				
					<line fill="none" stroke="#00ABEB" stroke-width="0.3" stroke-miterlimit="10" x1="-90.146" y1="65.603" x2="136.97" y2="65.603"/>
				
					<line fill="none" stroke="#00ABEB" stroke-width="0.3" stroke-miterlimit="10" x1="-80.206" y1="55.664" x2="146.909" y2="55.664"/>
				
					<line fill="none" stroke="#00ABEB" stroke-width="0.3" stroke-miterlimit="10" x1="-70.266" y1="45.724" x2="156.85" y2="45.724"/>
				
					<line fill="none" stroke="#00ABEB" stroke-width="0.3" stroke-miterlimit="10" x1="-60.326" y1="35.784" x2="166.789" y2="35.784"/>
				
					<line fill="none" stroke="#00ABEB" stroke-width="0.3" stroke-miterlimit="10" x1="-50.387" y1="25.845" x2="176.729" y2="25.845"/>
				
					<line fill="none" stroke="#00ABEB" stroke-width="0.3" stroke-miterlimit="10" x1="-40.447" y1="15.905" x2="186.668" y2="15.905"/>
			</g>
			<g id="Vertical_5_mm_00000064346364918789686960000003233481195482251947_">
				
					<line fill="none" stroke="#00ABEB" stroke-width="0.3" stroke-miterlimit="10" x1="-139.485" y1="115.292" x2="-19.972" y2="-4.22"/>
				
					<line fill="none" stroke="#00ABEB" stroke-width="0.3" stroke-miterlimit="10" x1="-125.312" y1="115.292" x2="-5.799" y2="-4.22"/>
				
					<line fill="none" stroke="#00ABEB" stroke-width="0.3" stroke-miterlimit="10" x1="-111.139" y1="115.292" x2="8.374" y2="-4.22"/>
				
					<line fill="none" stroke="#00ABEB" stroke-width="0.3" stroke-miterlimit="10" x1="-96.966" y1="115.292" x2="22.547" y2="-4.22"/>
				
					<line fill="none" stroke="#00ABEB" stroke-width="0.3" stroke-miterlimit="10" x1="-82.792" y1="115.292" x2="36.721" y2="-4.22"/>
				
					<line fill="none" stroke="#00ABEB" stroke-width="0.3" stroke-miterlimit="10" x1="-68.618" y1="115.292" x2="50.894" y2="-4.22"/>
				
					<line fill="none" stroke="#00ABEB" stroke-width="0.3" stroke-miterlimit="10" x1="-54.446" y1="115.292" x2="65.067" y2="-4.22"/>
				
					<line fill="none" stroke="#00ABEB" stroke-width="0.3" stroke-miterlimit="10" x1="-40.273" y1="115.292" x2="79.24" y2="-4.22"/>
				
					<line fill="none" stroke="#00ABEB" stroke-width="0.3" stroke-miterlimit="10" x1="-26.1" y1="115.292" x2="93.413" y2="-4.22"/>
				
					<line fill="none" stroke="#00ABEB" stroke-width="0.3" stroke-miterlimit="10" x1="-11.926" y1="115.292" x2="107.587" y2="-4.22"/>
				
					<line fill="none" stroke="#00ABEB" stroke-width="0.3" stroke-miterlimit="10" x1="2.247" y1="115.292" x2="121.76" y2="-4.22"/>
				
					<line fill="none" stroke="#00ABEB" stroke-width="0.3" stroke-miterlimit="10" x1="16.42" y1="115.292" x2="135.933" y2="-4.22"/>
				
					<line fill="none" stroke="#00ABEB" stroke-width="0.3" stroke-miterlimit="10" x1="30.593" y1="115.292" x2="150.106" y2="-4.22"/>
				
					<line fill="none" stroke="#00ABEB" stroke-width="0.3" stroke-miterlimit="10" x1="44.767" y1="115.292" x2="164.28" y2="-4.22"/>
				
					<line fill="none" stroke="#00ABEB" stroke-width="0.3" stroke-miterlimit="10" x1="58.94" y1="115.292" x2="178.453" y2="-4.22"/>
				
					<line fill="none" stroke="#00ABEB" stroke-width="0.3" stroke-miterlimit="10" x1="73.113" y1="115.292" x2="192.626" y2="-4.22"/>
				
					<line fill="none" stroke="#00ABEB" stroke-width="0.3" stroke-miterlimit="10" x1="87.286" y1="115.292" x2="206.799" y2="-4.22"/>
			</g>
			<g id="Horizontal_10_mm_00000163045836177147705350000008480455355013810362_">
				
					<line id="_x31_9_00000057116790517712807720000015084113881736219806_" fill="none" stroke="#00ABEB" stroke-width="0.7" stroke-miterlimit="10" x1="-139.844" y1="115.302" x2="87.271" y2="115.302"/>
				
					<line id="_x32_0_00000024685878617286333290000013167547815532084100_" fill="none" stroke="#00ABEB" stroke-width="0.7" stroke-miterlimit="10" x1="-119.965" y1="95.422" x2="107.151" y2="95.422"/>
				
					<line id="_x32_1_00000138564813020868535020000012777939180148238773_" fill="none" stroke="#00ABEB" stroke-width="0.7" stroke-miterlimit="10" x1="-100.086" y1="75.543" x2="127.03" y2="75.543"/>
				
					<line id="_x32_2_00000052807586205252870140000014502512662559454639_" fill="none" stroke="#00ABEB" stroke-width="0.7" stroke-miterlimit="10" x1="-80.206" y1="55.664" x2="146.909" y2="55.664"/>
				
					<line id="_x32_3_00000051376893246677475670000009295515732899575694_" fill="none" stroke="#00ABEB" stroke-width="0.7" stroke-miterlimit="10" x1="-60.326" y1="35.784" x2="166.789" y2="35.784"/>
				
					<line id="_x32_4_00000099657911357833521510000007853591198542098087_" fill="none" stroke="#00ABEB" stroke-width="0.7" stroke-miterlimit="10" x1="-40.447" y1="15.905" x2="186.668" y2="15.905"/>
				
					<line id="_x32_5_00000155127691660191171140000008292164438978366870_" fill="none" stroke="#00ABEB" stroke-width="0.7" stroke-miterlimit="10" x1="-20.568" y1="-3.975" x2="206.548" y2="-3.975"/>
			</g>
			<g id="Vertical_10_mm_00000134969164297783457920000010833503864539426239_">
				
					<line id="_x30__00000151539528360119995570000005083818057555393183_" fill="none" stroke="#00ABEB" stroke-width="0.7" stroke-miterlimit="10" x1="-139.485" y1="115.292" x2="-19.972" y2="-4.22"/>
				
					<line id="_x31__00000021823889366233599640000011971139016478256513_" fill="none" stroke="#00ABEB" stroke-width="0.7" stroke-miterlimit="10" x1="-111.139" y1="115.292" x2="8.374" y2="-4.22"/>
				
					<line id="_x32__00000071550223824624162640000006130814236846722696_" fill="none" stroke="#00ABEB" stroke-width="0.7" stroke-miterlimit="10" x1="-82.792" y1="115.292" x2="36.721" y2="-4.22"/>
				
					<line id="_x33__00000042015976804734918030000005045165563697445304_" fill="none" stroke="#00ABEB" stroke-width="0.7" stroke-miterlimit="10" x1="-54.446" y1="115.292" x2="65.067" y2="-4.22"/>
				
					<line id="_x34__00000081637789328126233800000002486991317463304126_" fill="none" stroke="#00ABEB" stroke-width="0.7" stroke-miterlimit="10" x1="-26.1" y1="115.292" x2="93.413" y2="-4.22"/>
				
					<line id="_x35__00000051353690731882489090000004794744233340785543_" fill="none" stroke="#00ABEB" stroke-width="0.7" stroke-miterlimit="10" x1="2.247" y1="115.292" x2="121.76" y2="-4.22"/>
				
					<line id="_x36__00000011745311307505536660000010485558803267122343_" fill="none" stroke="#00ABEB" stroke-width="0.7" stroke-miterlimit="10" x1="30.593" y1="115.292" x2="150.106" y2="-4.22"/>
				
					<line id="_x37__00000045602144989735358580000003937589459941247142_" fill="none" stroke="#00ABEB" stroke-width="0.7" stroke-miterlimit="10" x1="58.94" y1="115.292" x2="178.453" y2="-4.22"/>
				
					<line id="_x38__00000047029857857898873560000014194396358708286345_" fill="none" stroke="#00ABEB" stroke-width="0.7" stroke-miterlimit="10" x1="87.286" y1="115.292" x2="206.799" y2="-4.22"/>
			</g>
		</g>
	</g>
</g>
<g id="Layer_3">
</g>
<g id="Axis">
	<g id="lines">
		<g>
			<g>
				
					<line fill="none" stroke="#000000" stroke-width="0.5" stroke-miterlimit="10" x1="33.533" y1="55.654" x2="33.533" y2="3.427"/>
				<g>
					<polygon points="35.385,4.831 33.533,4.044 31.682,4.831 33.533,0.442 					"/>
				</g>
			</g>
		</g>
		<g>
			<g>
				
					<line fill="none" stroke="#000000" stroke-width="0.5" stroke-miterlimit="10" x1="33.533" y1="55.654" x2="74.12" y2="55.654"/>
				<g>
					<polygon points="72.716,57.505 73.503,55.654 72.716,53.802 77.105,55.654 					"/>
				</g>
			</g>
		</g>
		<g>
			<g>
				
					<line fill="none" stroke="#000000" stroke-width="0.5" stroke-miterlimit="10" x1="33.533" y1="55.654" x2="12.232" y2="76.955"/>
				<g>
					<polygon points="11.916,74.653 12.669,76.519 14.534,77.272 10.121,79.066 					"/>
				</g>
			</g>
		</g>
	</g>
	<g id="names">
		<g>
			<path d="M75.054,61.056c0.51-0.846,0.732-1.277,0.732-1.542c0-0.084-0.042-0.12-0.156-0.192c-0.12-0.078-0.156-0.138-0.156-0.234
				c0-0.132,0.102-0.222,0.24-0.222c0.18,0,0.312,0.15,0.312,0.33c0,0.342-0.288,1.001-0.786,1.829
				c-0.624,1.032-1.265,1.721-1.607,1.721c-0.18,0-0.306-0.102-0.306-0.258c0-0.132,0.102-0.24,0.234-0.24
				c0.21,0,0.21,0.167,0.366,0.167c0.078,0,0.15-0.048,0.288-0.198c0.108-0.114,0.378-0.468,0.426-0.545
				c0.036-0.072,0.06-0.144,0.06-0.21c0-0.24-0.33-1.583-0.492-1.991c-0.114-0.293-0.222-0.384-0.462-0.384
				c-0.066,0-0.12,0.006-0.186,0.024v-0.102c0.066-0.012,0.132-0.024,0.192-0.036c0.12-0.024,0.318-0.06,0.642-0.108h0.024
				c0.09,0,0.408,0.996,0.51,1.529L75.054,61.056z"/>
		</g>
		<g>
			<path d="M29.403,2.678c0.348,0.078,0.479,0.144,0.719,0.498c0.156,0.228,0.27,0.3,0.42,0.3c0.096,0,0.162-0.036,0.162-0.09
				c0-0.024-0.012-0.054-0.03-0.09c-0.036-0.072-0.048-0.12-0.048-0.167c0.006-0.102,0.102-0.204,0.198-0.204
				c0.126,0,0.21,0.09,0.21,0.222c0,0.24-0.222,0.456-0.558,0.456c-0.174,0-0.378-0.078-0.678-0.264
				c-0.282-0.174-0.474-0.251-0.629-0.251c-0.096,0-0.174,0.03-0.27,0.108L28.845,3.14l1.859-2.231h-0.816
				c-0.312,0-0.426,0.054-0.545,0.36l-0.096-0.024l0.192-0.695h1.697v0.066L29.403,2.678z"/>
		</g>
		<g>
			<path d="M7.881,76.785c0.419-0.642,0.642-0.857,0.905-0.857c0.144,0,0.246,0.09,0.246,0.222c0,0.126-0.084,0.216-0.204,0.216
				c-0.114,0-0.168-0.102-0.312-0.102c-0.108,0-0.324,0.264-0.588,0.726c0,0.042,0.012,0.126,0.048,0.27l0.192,0.804
				c0.042,0.168,0.096,0.246,0.18,0.246c0.078,0,0.144-0.06,0.282-0.24c0.054-0.072,0.078-0.108,0.126-0.168l0.09,0.054
				c-0.348,0.54-0.504,0.684-0.731,0.684c-0.192,0-0.282-0.108-0.354-0.408l-0.174-0.714L7.06,78.23
				c-0.264,0.354-0.384,0.408-0.57,0.408c-0.186,0-0.3-0.096-0.3-0.252c0-0.12,0.084-0.216,0.204-0.216
				c0.054,0,0.114,0.024,0.192,0.066c0.06,0.036,0.12,0.054,0.156,0.054c0.066,0,0.18-0.114,0.306-0.294l0.492-0.696l-0.168-0.743
				c-0.084-0.36-0.126-0.408-0.276-0.408c-0.048,0-0.12,0.012-0.234,0.042l-0.108,0.03l-0.018-0.096l0.066-0.024
				c0.366-0.132,0.564-0.174,0.702-0.174c0.15,0,0.222,0.108,0.306,0.516L7.881,76.785z"/>
		</g>
	</g>
	<polygon display="none" opacity="0.3" fill="#B4B4B4" points="64.956,72.386 64.956,17.174 33.533,0.442 33.533,0.442 
		33.533,55.654 33.533,55.654 64.957,72.386 	"/>
	
		<ellipse transform="matrix(0.9896 -0.1441 0.1441 0.9896 -3.5616 8.4947)" display="none" cx="56.841" cy="28.826" rx="1.535" ry="0.676"/>
	
		<line display="none" fill="none" stroke="#0000FF" stroke-width="0.2" stroke-miterlimit="10" stroke-dasharray="2,2" x1="33.533" y1="55.654" x2="56.841" y2="68.065"/>
	
		<line display="none" fill="none" stroke="#0000FF" stroke-width="0.1" stroke-miterlimit="10" stroke-dasharray="2,2" x1="56.843" y1="28.826" x2="56.843" y2="68.065"/>
	<g display="none">
		<g display="inline">
			<path fill="none" stroke="#FF00FF" stroke-width="0.2" stroke-miterlimit="10" d="M43.73,62.008
				c-5.427,1.407-12.097,2.302-18.958,2.398"/>
			<g>
				<polygon fill="#FF00FF" points="43,61.388 43.479,62.034 43.346,62.828 44.88,61.697 				"/>
			</g>
		</g>
	</g>
	<g display="none">
		<path display="inline" fill="#FF00FF" d="M35.279,67.766c-0.39,0.516-0.81,0.702-1.229,0.702c-0.486,0-0.768-0.396-0.768-1.031
			c0-1.29,0.677-2.351,1.331-2.849c0.264-0.198,0.492-0.252,0.731-0.252c0.426,0,0.738,0.288,0.738,1.001
			C36.082,66.309,35.723,67.172,35.279,67.766z M33.959,66.512c-0.114,0.3-0.174,0.612-0.174,0.99c0,0.534,0.114,0.839,0.336,0.839
			c0.576,0,1.091-1.241,1.235-1.829H33.959z M35.399,66.32c0.102-0.348,0.18-0.779,0.18-1.229c0-0.384-0.108-0.63-0.318-0.63
			c-0.521,0-1.109,1.325-1.259,1.859H35.399z"/>
	</g>
	<g display="none">
		<path display="inline" fill="#0000FF" d="M64.129,25.91c-0.912,0.864-1.224,2.189-1.224,3.412c0,0.582,0.066,0.948,0.288,1.559
			l-0.108,0.036c-0.384-0.618-0.594-1.397-0.594-2.165c0-0.618,0.132-1.229,0.444-1.739c0.234-0.378,0.563-0.69,1.115-1.193
			L64.129,25.91z"/>
		<path display="inline" fill="#0000FF" d="M64.634,28.927c0.276-1.062,0.875-1.739,1.517-1.739c0.318,0,0.911,0,0.911,0.821
			c0,0.924-0.935,1.889-1.787,1.889c-0.138,0-0.27-0.024-0.408-0.102l-0.216,0.846c-0.036,0.144-0.096,0.294-0.186,0.42h-0.468
			c0.084-0.126,0.144-0.264,0.186-0.42L64.634,28.927z M66.133,27.313c-0.336,0-0.726,0.444-0.906,1.085
			c-0.108,0.39-0.276,1.013-0.276,1.163c0,0.126,0.126,0.222,0.294,0.222c0.798-0.012,1.283-1.116,1.283-1.823
			C66.528,27.607,66.391,27.313,66.133,27.313z"/>
		<path display="inline" fill="#0000FF" d="M67.232,30.498c0.317-0.204,0.456-0.377,0.456-0.54c0-0.06-0.024-0.102-0.12-0.174
			c-0.12-0.09-0.15-0.18-0.15-0.294c0-0.144,0.132-0.264,0.306-0.264c0.216,0,0.348,0.204,0.348,0.443
			c0,0.336-0.276,0.672-0.78,0.936L67.232,30.498z"/>
		<path display="inline" fill="#0000FF" d="M71.244,27.188c0.276,0,0.438,0.006,0.606,0.072c0.294,0.114,0.479,0.33,0.479,0.756
			c0,0.695-0.653,1.877-1.835,1.883l-0.324,1.164h-0.468l0.324-1.164c-0.258,0-0.492-0.018-0.642-0.066
			c-0.312-0.102-0.461-0.384-0.461-0.768c0-0.605,0.671-1.877,1.769-1.877h0.09l0.402-1.451h0.461L71.244,27.188z M70.747,27.313
			c-0.696,0-1.319,1.067-1.319,1.913c0,0.251,0.102,0.426,0.288,0.498c0.096,0.036,0.21,0.048,0.348,0.048L70.747,27.313z
			 M70.531,29.772c0.15,0,0.246-0.012,0.414-0.096c0.492-0.246,0.882-1.308,0.882-1.805c0-0.27-0.114-0.42-0.27-0.516
			c-0.06-0.036-0.222-0.042-0.348-0.042L70.531,29.772z"/>
		<path display="inline" fill="#0000FF" d="M72.494,30.498c0.318-0.204,0.456-0.377,0.456-0.54c0-0.06-0.024-0.102-0.12-0.174
			c-0.12-0.09-0.15-0.18-0.15-0.294c0-0.144,0.132-0.264,0.306-0.264c0.216,0,0.348,0.204,0.348,0.443
			c0,0.336-0.276,0.672-0.78,0.936L72.494,30.498z"/>
		<path display="inline" fill="#0000FF" d="M76.183,29.196c-0.39,0.516-0.81,0.702-1.229,0.702c-0.486,0-0.768-0.396-0.768-1.031
			c0-1.29,0.677-2.351,1.331-2.849c0.264-0.198,0.492-0.252,0.731-0.252c0.426,0,0.738,0.288,0.738,1.001
			C76.986,27.739,76.626,28.603,76.183,29.196z M74.863,27.943c-0.114,0.3-0.174,0.612-0.174,0.99c0,0.534,0.114,0.839,0.336,0.839
			c0.576,0,1.091-1.241,1.235-1.829H74.863z M76.303,27.751c0.102-0.348,0.18-0.779,0.18-1.229c0-0.384-0.108-0.63-0.318-0.63
			c-0.521,0-1.109,1.325-1.259,1.859H76.303z"/>
		<path display="inline" fill="#0000FF" d="M78.043,25.82c0.282,0.503,0.378,0.737,0.48,1.181c0.072,0.336,0.114,0.684,0.114,1.007
			c0,0.606-0.168,1.176-0.468,1.691c-0.234,0.402-0.545,0.737-1.091,1.211l-0.078-0.09c0.504-0.534,0.726-0.935,0.93-1.571
			c0.186-0.576,0.294-1.266,0.294-1.829c0-0.6-0.09-1.085-0.294-1.571L78.043,25.82z"/>
	</g>
	<g display="none">
		<path display="inline" d="M46.338,10.13c0.114-0.251,0.318-0.569,0.563-0.827c0.156-0.162,0.336-0.27,0.474-0.27
			c0.168,0,0.282,0.126,0.282,0.306c0,0.18-0.102,0.324-0.282,0.324c-0.108,0-0.156-0.066-0.21-0.156
			c-0.036-0.06-0.054-0.084-0.096-0.084c-0.108,0-0.276,0.198-0.492,0.564c-0.258,0.444-0.366,0.684-0.666,1.691h-0.456l0.485-1.751
			c0.084-0.312,0.096-0.366,0.096-0.492S45.93,9.279,45.81,9.279c-0.048,0-0.096,0.006-0.186,0.018V9.195l0.929-0.162l0.018,0.012
			l-0.33,1.295L46.338,10.13z"/>
		<path display="inline" d="M48.061,11.24c0.348,0.078,0.479,0.144,0.719,0.498c0.156,0.228,0.27,0.3,0.42,0.3
			c0.096,0,0.162-0.036,0.162-0.09c0-0.024-0.012-0.054-0.03-0.09c-0.036-0.072-0.048-0.12-0.048-0.167
			c0.006-0.102,0.102-0.204,0.198-0.204c0.126,0,0.21,0.09,0.21,0.222c0,0.24-0.222,0.456-0.558,0.456
			c-0.174,0-0.378-0.078-0.678-0.264c-0.282-0.174-0.474-0.251-0.629-0.251c-0.096,0-0.174,0.03-0.27,0.108l-0.054-0.054
			l1.859-2.231h-0.816c-0.312,0-0.426,0.054-0.545,0.36l-0.096-0.024l0.192-0.695h1.697v0.066L48.061,11.24z"/>
		<path display="inline" d="M51.462,10.526h-1.319l0.084-0.378h1.313L51.462,10.526z"/>
		<path display="inline" d="M52.962,9.711c0.324-0.486,0.666-0.678,1.025-0.678c0.444,0,0.69,0.282,0.69,0.75
			c0,0.99-0.906,1.961-1.781,1.961c-0.138,0-0.264-0.024-0.414-0.102c-0.102,0.42-0.24,0.912-0.24,0.996
			c0,0.132,0.09,0.174,0.372,0.174v0.096h-1.217v-0.096c0.258-0.006,0.336-0.096,0.408-0.378l0.689-2.59
			c0.066-0.24,0.096-0.396,0.096-0.426c0-0.144-0.168-0.162-0.264-0.162h-0.132l-0.012-0.09l0.936-0.132
			c0.018,0,0.03,0.012,0.03,0.024c0,0-0.006,0.03-0.012,0.054L52.962,9.711z M53.766,9.291c-0.318,0-0.672,0.324-0.81,0.684
			c-0.174,0.45-0.39,1.224-0.39,1.427c0,0.132,0.12,0.228,0.288,0.228c0.318,0,0.606-0.198,0.87-0.57
			c0.288-0.402,0.414-0.839,0.414-1.259C54.137,9.459,54.036,9.291,53.766,9.291z"/>
		<path display="inline" d="M55.626,11.12c-0.03,0.108-0.048,0.21-0.048,0.258c0,0.072,0.042,0.108,0.102,0.108
			c0.09,0,0.228-0.096,0.402-0.342l0.15-0.21l0.084,0.06c-0.36,0.57-0.582,0.75-0.906,0.75c-0.192,0-0.293-0.114-0.293-0.336
			c0-0.048,0.006-0.12,0.024-0.18l0.821-3.142c0.018-0.06,0.018-0.096,0.018-0.114c0-0.072-0.102-0.132-0.294-0.132h-0.108V7.744
			c0.354-0.042,0.576-0.084,0.93-0.162l0.036,0.03L55.626,11.12z"/>
		<path display="inline" d="M59.393,11.078c-0.45,0.545-0.594,0.66-0.833,0.66c-0.168,0-0.24-0.072-0.24-0.246
			c0-0.15,0.012-0.198,0.138-0.689c-0.45,0.678-0.797,0.941-1.217,0.941c-0.336,0-0.6-0.24-0.6-0.696
			c0-0.929,0.917-2.015,1.715-2.015c0.258,0,0.432,0.126,0.48,0.348l0.066-0.288l0.018-0.018l0.366-0.042l0.042,0.018
			c-0.012,0.054-0.018,0.066-0.036,0.126c-0.282,1.025-0.534,2.057-0.534,2.177c0,0.042,0.036,0.078,0.084,0.078
			c0.054,0,0.132-0.048,0.312-0.246l0.162-0.174L59.393,11.078z M58.392,9.165c-0.27,0-0.534,0.186-0.786,0.552
			c-0.252,0.378-0.462,0.912-0.462,1.289c0,0.33,0.144,0.444,0.36,0.444c0.3,0,0.582-0.33,0.762-0.587
			c0.282-0.408,0.462-0.924,0.462-1.35C58.728,9.303,58.602,9.165,58.392,9.165z"/>
		<path display="inline" d="M62.387,11.054c-0.408,0.558-0.558,0.678-0.839,0.678c-0.15,0-0.282-0.096-0.282-0.324
			c0-0.06,0.012-0.138,0.096-0.45l0.264-0.971c0.048-0.186,0.084-0.402,0.084-0.474c0-0.108-0.054-0.174-0.144-0.174
			c-0.24,0-0.51,0.294-0.888,0.852c-0.27,0.402-0.318,0.54-0.6,1.487h-0.45l0.576-2.099c0.006-0.03,0.012-0.066,0.012-0.102
			c0-0.12-0.083-0.156-0.39-0.162V9.219c0.486-0.096,0.654-0.12,0.972-0.186l0.024,0.012l-0.402,1.307
			c0.6-0.959,1.001-1.319,1.385-1.319c0.258,0,0.39,0.15,0.39,0.366c0,0.108-0.024,0.234-0.06,0.36l-0.335,1.217
			c-0.06,0.216-0.084,0.318-0.084,0.366c0,0.054,0.024,0.108,0.096,0.108c0.084,0,0.192-0.096,0.366-0.318
			c0.042-0.048,0.084-0.102,0.126-0.156L62.387,11.054z"/>
		<path display="inline" d="M64.763,11.096c-0.342,0.419-0.726,0.647-1.223,0.647c-0.486,0-0.81-0.324-0.81-0.821
			c0-0.93,0.894-1.889,1.793-1.889c0.318,0,0.492,0.156,0.492,0.408c0,0.516-0.63,0.983-1.703,1.122
			c-0.06,0.12-0.06,0.276-0.06,0.366c0,0.33,0.222,0.545,0.558,0.545c0.264,0,0.45-0.096,0.882-0.45L64.763,11.096z M63.354,10.431
			c0.516-0.126,0.744-0.234,0.965-0.444c0.186-0.18,0.3-0.396,0.3-0.582c0-0.144-0.042-0.234-0.21-0.234
			c-0.342,0-0.75,0.462-0.953,0.996L63.354,10.431z"/>
	</g>
	
		<line display="none" fill="none" stroke="#0000FF" stroke-width="0.1" stroke-miterlimit="10" stroke-dasharray="2,2" x1="56.841" y1="28.826" x2="33.533" y2="55.654"/>
	<g display="none">
		<g display="inline">
			<path fill="none" stroke="#00B200" stroke-width="0.2" stroke-miterlimit="10" d="M33.533,33.099
				c5.231,0,10.046,1.781,13.872,4.769"/>
			<g>
				<polygon fill="#00B200" points="46.491,38.113 47.199,37.73 47.414,36.954 48.326,38.627 				"/>
			</g>
		</g>
	</g>
	<g display="none">
		<path display="inline" fill="#00B200" d="M43.176,29.792c0.276,0,0.438,0.006,0.606,0.072c0.294,0.114,0.479,0.33,0.479,0.756
			c0,0.695-0.653,1.877-1.835,1.883l-0.324,1.164h-0.468l0.324-1.164c-0.258,0-0.492-0.018-0.642-0.066
			c-0.312-0.102-0.461-0.384-0.461-0.768c0-0.605,0.671-1.877,1.769-1.877h0.09l0.402-1.451h0.461L43.176,29.792z M42.679,29.918
			c-0.696,0-1.319,1.067-1.319,1.913c0,0.251,0.102,0.426,0.288,0.498c0.096,0.036,0.21,0.048,0.348,0.048L42.679,29.918z
			 M42.463,32.376c0.15,0,0.246-0.012,0.414-0.096c0.492-0.246,0.882-1.308,0.882-1.805c0-0.27-0.114-0.42-0.27-0.516
			c-0.06-0.036-0.222-0.042-0.348-0.042L42.463,32.376z"/>
	</g>
	<g display="none">
		<path display="inline" fill="#0000FF" d="M47.03,42.3c0.276-1.062,0.875-1.739,1.517-1.739c0.318,0,0.911,0,0.911,0.821
			c0,0.924-0.935,1.889-1.787,1.889c-0.138,0-0.27-0.024-0.408-0.102l-0.216,0.846c-0.036,0.144-0.096,0.294-0.186,0.42h-0.468
			c0.084-0.126,0.144-0.264,0.186-0.42L47.03,42.3z M48.529,40.687c-0.336,0-0.726,0.444-0.906,1.085
			c-0.108,0.39-0.276,1.013-0.276,1.163c0,0.126,0.126,0.222,0.294,0.222c0.798-0.012,1.283-1.116,1.283-1.823
			C48.924,40.981,48.787,40.687,48.529,40.687z"/>
	</g>
	<g display="none">
		<path display="inline" d="M48.025,59.964c0.114-0.251,0.318-0.569,0.563-0.827c0.156-0.162,0.336-0.27,0.474-0.27
			c0.168,0,0.282,0.126,0.282,0.306c0,0.18-0.102,0.324-0.282,0.324c-0.108,0-0.156-0.066-0.21-0.156
			c-0.036-0.06-0.054-0.084-0.096-0.084c-0.108,0-0.276,0.198-0.492,0.564c-0.258,0.444-0.366,0.684-0.666,1.691h-0.456l0.485-1.751
			c0.084-0.312,0.096-0.366,0.096-0.492s-0.108-0.156-0.228-0.156c-0.048,0-0.096,0.006-0.186,0.018v-0.102l0.929-0.162l0.018,0.012
			l-0.33,1.295L48.025,59.964z"/>
	</g>
</g>
<g id="Layer_4">
	<path opacity="0.05" fill="#FF0000" d="M33.785,13.257c6.948-1.104,11.707,0.425,15.685,6.492
		c3.152,4.807-1.769,16.513-7.421,18.383c-1.901,0.629-4.923,0.891-8.265,0.816c-3.342,0.075-6.364-0.187-8.265-0.816
		c-5.653-1.87-10.573-13.577-7.421-18.383c3.978-6.067,8.737-7.596,15.685-6.492H33.785z"/>
	<path fill="none" stroke="#FF0000" stroke-width="0.5" stroke-miterlimit="10" d="M33.785,13.257
		c6.948-1.104,11.707,0.425,15.685,6.492c3.152,4.807-1.769,16.513-7.421,18.383c-1.901,0.629-4.923,0.891-8.265,0.816
		c-3.342,0.075-6.364-0.187-8.265-0.816c-5.653-1.87-10.573-13.577-7.421-18.383c3.978-6.067,8.737-7.596,15.685-6.492H33.785z"/>
	
		<rect x="56.843" y="26.196" display="none" opacity="0.15" fill="#FF0000" stroke="#000000" stroke-width="0.1" stroke-linecap="round" stroke-linejoin="round" stroke-miterlimit="10" width="3.648" height="2.629"/>
	
		<rect x="56.843" y="26.196" display="none" fill="none" stroke="#FF0000" stroke-width="0.1" stroke-linecap="round" stroke-linejoin="round" stroke-miterlimit="10" width="3.648" height="2.629"/>
	<polygon display="none" opacity="0.15" fill="#FF0000" points="60.49,26.196 56.843,26.196 57.995,24.936 61.614,24.936 
		61.643,24.936 	"/>
	
		<polygon display="none" fill="none" stroke="#FF0000" stroke-width="0.1" stroke-linecap="round" stroke-linejoin="round" stroke-miterlimit="10" points="
		60.49,26.196 56.843,26.196 57.995,24.936 61.614,24.936 61.643,24.936 	"/>
	<polygon display="none" opacity="0.15" fill="#FF0000" points="60.49,28.826 60.49,26.196 61.643,24.936 61.642,24.936 
		61.642,27.576 61.643,27.565 	"/>
	
		<polygon display="none" fill="none" stroke="#FF0000" stroke-width="0.1" stroke-linecap="round" stroke-linejoin="round" stroke-miterlimit="10" points="
		60.49,28.826 60.49,26.196 61.643,24.936 61.642,24.936 61.642,27.576 61.643,27.565 	"/>
	<g display="none">
		<g display="inline">
			
				<line fill="none" stroke="#FF0000" stroke-width="0.1" stroke-linecap="round" stroke-linejoin="round" x1="57.995" y1="24.936" x2="57.995" y2="25.436"/>
			
				<line fill="none" stroke="#FF0000" stroke-width="0.1" stroke-linecap="round" stroke-linejoin="round" stroke-dasharray="0.5432,0.5432" x1="57.995" y1="25.979" x2="57.995" y2="26.794"/>
			
				<line fill="none" stroke="#FF0000" stroke-width="0.1" stroke-linecap="round" stroke-linejoin="round" x1="57.995" y1="27.065" x2="57.995" y2="27.565"/>
		</g>
	</g>
	<g display="none">
		<g display="inline">
			
				<line fill="none" stroke="#FF0000" stroke-width="0.1" stroke-linecap="round" stroke-linejoin="round" x1="61.643" y1="27.565" x2="61.143" y2="27.565"/>
			
				<line fill="none" stroke="#FF0000" stroke-width="0.1" stroke-linecap="round" stroke-linejoin="round" stroke-dasharray="0.8825,0.8825" x1="60.261" y1="27.565" x2="58.937" y2="27.565"/>
			
				<line fill="none" stroke="#FF0000" stroke-width="0.1" stroke-linecap="round" stroke-linejoin="round" x1="58.495" y1="27.565" x2="57.995" y2="27.565"/>
		</g>
	</g>
	<g display="none">
		<g display="inline">
			
				<line fill="none" stroke="#FF0000" stroke-width="0.1" stroke-linecap="round" stroke-linejoin="round" x1="56.843" y1="28.826" x2="57.18" y2="28.457"/>
			
				<line fill="none" stroke="#FF0000" stroke-width="0.1" stroke-linecap="round" stroke-linejoin="round" x1="57.658" y1="27.934" x2="57.995" y2="27.565"/>
		</g>
	</g>
	<g display="none">
		<path display="inline" fill="#FF0000" d="M62.479,26.604l2.399-4.006h0.156l0.792,4.006H62.479z M64.614,23.45l-1.529,2.591h2.051
			L64.614,23.45z"/>
		<path display="inline" fill="#FF0000" d="M70.529,26.016c-0.318,0.444-0.582,0.642-0.864,0.642c-0.156,0-0.24-0.096-0.24-0.276
			c0-0.06,0.018-0.162,0.078-0.396l0.348-1.361c0.03-0.12,0.042-0.198,0.042-0.228c0-0.072-0.054-0.125-0.12-0.125
			c-0.18,0-0.486,0.282-0.786,0.702c-0.293,0.414-0.414,0.708-0.647,1.631h-0.45l0.162-0.558c0.264-0.912,0.408-1.547,0.408-1.625
			c0-0.096-0.054-0.15-0.132-0.15c-0.204,0-0.558,0.348-0.894,0.857c-0.204,0.312-0.288,0.528-0.576,1.475h-0.45l0.258-0.863
			c0.24-0.798,0.33-1.295,0.33-1.368c0-0.09-0.084-0.132-0.246-0.132h-0.15v-0.096l0.972-0.186l0.018,0.012l-0.348,1.253
			c0.534-0.869,0.954-1.265,1.319-1.265c0.24,0,0.36,0.144,0.36,0.36c0,0.114-0.078,0.45-0.24,0.912
			c0.42-0.666,0.666-0.966,0.959-1.151c0.144-0.09,0.258-0.12,0.378-0.12c0.222,0,0.348,0.162,0.348,0.378
			c0,0.042-0.012,0.138-0.018,0.168l-0.408,1.505c-0.036,0.138-0.06,0.246-0.06,0.27c0,0.066,0.024,0.096,0.072,0.096
			c0.102,0,0.209-0.096,0.39-0.318l0.126-0.156l0.09,0.072L70.529,26.016z"/>
	</g>
	<circle cx="33.532" cy="55.654" r="1.344"/>
	<g>
		<path d="M29.986,55.775c-0.318,0.444-0.582,0.642-0.864,0.642c-0.156,0-0.24-0.096-0.24-0.276c0-0.06,0.018-0.162,0.078-0.396
			l0.348-1.361c0.03-0.12,0.042-0.198,0.042-0.228c0-0.072-0.054-0.125-0.12-0.125c-0.18,0-0.486,0.282-0.786,0.702
			c-0.293,0.414-0.414,0.708-0.647,1.631h-0.45l0.162-0.558c0.264-0.912,0.408-1.547,0.408-1.625c0-0.096-0.054-0.15-0.132-0.15
			c-0.204,0-0.558,0.348-0.894,0.857c-0.204,0.312-0.288,0.528-0.576,1.475h-0.45l0.258-0.863c0.24-0.798,0.33-1.295,0.33-1.368
			c0-0.09-0.084-0.132-0.246-0.132h-0.15v-0.096l0.972-0.186l0.018,0.012L26.7,54.984c0.534-0.869,0.954-1.265,1.319-1.265
			c0.24,0,0.36,0.144,0.36,0.36c0,0.114-0.078,0.45-0.24,0.912c0.42-0.666,0.666-0.966,0.959-1.151
			c0.144-0.09,0.258-0.12,0.378-0.12c0.222,0,0.348,0.162,0.348,0.378c0,0.042-0.012,0.138-0.018,0.168l-0.408,1.505
			c-0.036,0.138-0.06,0.246-0.06,0.27c0,0.066,0.024,0.096,0.072,0.096c0.102,0,0.209-0.096,0.39-0.318l0.126-0.156l0.09,0.072
			L29.986,55.775z"/>
	</g>
	<g>
		<path fill="#FF0000" d="M56.6,15.395c-0.342,0.054-0.402,0.138-0.486,0.444l-0.737,2.656c-0.042,0.15-0.084,0.276-0.084,0.372
			c0,0.156,0.108,0.24,0.486,0.252l-0.006,0.096h-1.625v-0.096c0.39-0.042,0.51-0.144,0.612-0.516l0.755-2.752l-2.254,3.364h-0.102
			l-0.372-3.274l-0.708,2.567c-0.03,0.108-0.054,0.258-0.054,0.324c0,0.168,0.114,0.264,0.419,0.288v0.096h-1.181v-0.096
			c0.312-0.036,0.408-0.132,0.6-0.804l0.684-2.405c0.048-0.162,0.072-0.264,0.072-0.312c0-0.114-0.144-0.186-0.443-0.204v-0.096
			h1.085l0.335,2.951l2.009-2.951H56.6V15.395z"/>
	</g>
	<g>
	</g>
</g>
</svg>
