<?xml version="1.0" encoding="utf-8"?>
<!-- Generator: Adobe Illustrator 25.4.1, SVG Export Plug-In . SVG Version: 6.00 Build 0)  -->
<svg version="1.1" xmlns="http://www.w3.org/2000/svg" xmlns:xlink="http://www.w3.org/1999/xlink" x="0px" y="0px"
	 viewBox="0 0 39.018 21.92" enable-background="new 0 0 39.018 21.92" xml:space="preserve">
<g id="Graph_paper_slanted" opacity="0.25">
	<g id="Clipped_grid_00000003068028900943026870000011536296927355263674_">
		<defs>
			<polygon id="SVGID_1_" points="25.082,37.123 -47.666,37.123 -9.402,-1.141 63.346,-1.141 			"/>
		</defs>
		<clipPath id="SVGID_00000055670097373075640580000018186259232619257226_">
			<use xlink:href="#SVGID_1_"  overflow="visible"/>
		</clipPath>
		
			<g id="Grid_00000142891597197125820610000009767860333217090727_" opacity="0.25" clip-path="url(#SVGID_00000055670097373075640580000018186259232619257226_)">
			<g id="Horizontal_1_mm_00000151508609497893311650000018408800186222605470_">
				
					<line fill="none" stroke="#00ABEB" stroke-width="0.15" stroke-miterlimit="10" x1="-47.974" y1="-36.146" x2="178.867" y2="-36.146"/>
				
					<line fill="none" stroke="#00ABEB" stroke-width="0.15" stroke-miterlimit="10" x1="-45.986" y1="-38.134" x2="180.855" y2="-38.134"/>
				
					<line fill="none" stroke="#00ABEB" stroke-width="0.15" stroke-miterlimit="10" x1="-165.263" y1="81.142" x2="61.578" y2="81.142"/>
				
					<line fill="none" stroke="#00ABEB" stroke-width="0.15" stroke-miterlimit="10" x1="-163.275" y1="79.154" x2="63.566" y2="79.154"/>
				
					<line fill="none" stroke="#00ABEB" stroke-width="0.15" stroke-miterlimit="10" x1="-161.287" y1="77.166" x2="65.554" y2="77.166"/>
				
					<line fill="none" stroke="#00ABEB" stroke-width="0.15" stroke-miterlimit="10" x1="-159.299" y1="75.178" x2="67.542" y2="75.178"/>
				
					<line fill="none" stroke="#00ABEB" stroke-width="0.15" stroke-miterlimit="10" x1="-157.311" y1="73.19" x2="69.53" y2="73.19"/>
				
					<line fill="none" stroke="#00ABEB" stroke-width="0.15" stroke-miterlimit="10" x1="-155.323" y1="71.203" x2="71.518" y2="71.203"/>
				
					<line fill="none" stroke="#00ABEB" stroke-width="0.15" stroke-miterlimit="10" x1="-153.335" y1="69.214" x2="73.506" y2="69.214"/>
				
					<line fill="none" stroke="#00ABEB" stroke-width="0.15" stroke-miterlimit="10" x1="-151.348" y1="67.227" x2="75.493" y2="67.227"/>
				
					<line fill="none" stroke="#00ABEB" stroke-width="0.15" stroke-miterlimit="10" x1="-149.359" y1="65.238" x2="77.482" y2="65.238"/>
				
					<line fill="none" stroke="#00ABEB" stroke-width="0.15" stroke-miterlimit="10" x1="-147.371" y1="63.25" x2="79.47" y2="63.25"/>
				
					<line fill="none" stroke="#00ABEB" stroke-width="0.15" stroke-miterlimit="10" x1="-145.384" y1="61.263" x2="81.457" y2="61.263"/>
				
					<line fill="none" stroke="#00ABEB" stroke-width="0.15" stroke-miterlimit="10" x1="-143.395" y1="59.275" x2="83.445" y2="59.275"/>
				
					<line fill="none" stroke="#00ABEB" stroke-width="0.15" stroke-miterlimit="10" x1="-141.407" y1="57.287" x2="85.434" y2="57.287"/>
				
					<line fill="none" stroke="#00ABEB" stroke-width="0.15" stroke-miterlimit="10" x1="-139.42" y1="55.299" x2="87.421" y2="55.299"/>
				
					<line fill="none" stroke="#00ABEB" stroke-width="0.15" stroke-miterlimit="10" x1="-137.432" y1="53.311" x2="89.409" y2="53.311"/>
				
					<line fill="none" stroke="#00ABEB" stroke-width="0.15" stroke-miterlimit="10" x1="-135.443" y1="51.323" x2="91.397" y2="51.323"/>
				
					<line fill="none" stroke="#00ABEB" stroke-width="0.15" stroke-miterlimit="10" x1="-133.456" y1="49.335" x2="93.385" y2="49.335"/>
				
					<line fill="none" stroke="#00ABEB" stroke-width="0.15" stroke-miterlimit="10" x1="-131.468" y1="47.347" x2="95.373" y2="47.347"/>
				
					<line fill="none" stroke="#00ABEB" stroke-width="0.15" stroke-miterlimit="10" x1="-129.48" y1="45.359" x2="97.361" y2="45.359"/>
				
					<line fill="none" stroke="#00ABEB" stroke-width="0.15" stroke-miterlimit="10" x1="-127.492" y1="43.372" x2="99.349" y2="43.372"/>
				
					<line fill="none" stroke="#00ABEB" stroke-width="0.15" stroke-miterlimit="10" x1="-125.504" y1="41.383" x2="101.337" y2="41.383"/>
				
					<line fill="none" stroke="#00ABEB" stroke-width="0.15" stroke-miterlimit="10" x1="-123.515" y1="39.395" x2="103.325" y2="39.395"/>
				
					<line fill="none" stroke="#00ABEB" stroke-width="0.15" stroke-miterlimit="10" x1="-121.528" y1="37.407" x2="105.313" y2="37.407"/>
				
					<line fill="none" stroke="#00ABEB" stroke-width="0.15" stroke-miterlimit="10" x1="-119.54" y1="35.419" x2="107.301" y2="35.419"/>
				
					<line fill="none" stroke="#00ABEB" stroke-width="0.15" stroke-miterlimit="10" x1="-117.552" y1="33.432" x2="109.289" y2="33.432"/>
				
					<line fill="none" stroke="#00ABEB" stroke-width="0.15" stroke-miterlimit="10" x1="-115.564" y1="31.444" x2="111.277" y2="31.444"/>
				
					<line fill="none" stroke="#00ABEB" stroke-width="0.15" stroke-miterlimit="10" x1="-113.576" y1="29.455" x2="113.265" y2="29.455"/>
				
					<line fill="none" stroke="#00ABEB" stroke-width="0.15" stroke-miterlimit="10" x1="-111.588" y1="27.468" x2="115.252" y2="27.468"/>
				
					<line fill="none" stroke="#00ABEB" stroke-width="0.15" stroke-miterlimit="10" x1="-109.6" y1="25.48" x2="117.24" y2="25.48"/>
				
					<line fill="none" stroke="#00ABEB" stroke-width="0.15" stroke-miterlimit="10" x1="-107.612" y1="23.492" x2="119.229" y2="23.492"/>
				
					<line fill="none" stroke="#00ABEB" stroke-width="0.15" stroke-miterlimit="10" x1="-105.625" y1="21.504" x2="121.216" y2="21.504"/>
				
					<line fill="none" stroke="#00ABEB" stroke-width="0.15" stroke-miterlimit="10" x1="-103.637" y1="19.516" x2="123.204" y2="19.516"/>
				
					<line fill="none" stroke="#00ABEB" stroke-width="0.15" stroke-miterlimit="10" x1="-101.648" y1="17.528" x2="125.192" y2="17.528"/>
				
					<line fill="none" stroke="#00ABEB" stroke-width="0.15" stroke-miterlimit="10" x1="-99.661" y1="15.54" x2="127.18" y2="15.54"/>
				
					<line fill="none" stroke="#00ABEB" stroke-width="0.15" stroke-miterlimit="10" x1="-97.673" y1="13.552" x2="129.168" y2="13.552"/>
				
					<line fill="none" stroke="#00ABEB" stroke-width="0.15" stroke-miterlimit="10" x1="-95.685" y1="11.564" x2="131.156" y2="11.564"/>
				
					<line fill="none" stroke="#00ABEB" stroke-width="0.15" stroke-miterlimit="10" x1="-93.697" y1="9.577" x2="133.144" y2="9.577"/>
				
					<line fill="none" stroke="#00ABEB" stroke-width="0.15" stroke-miterlimit="10" x1="-91.709" y1="7.588" x2="135.132" y2="7.588"/>
				<line fill="none" stroke="#00ABEB" stroke-width="0.15" stroke-miterlimit="10" x1="-89.721" y1="5.6" x2="137.12" y2="5.6"/>
				
					<line fill="none" stroke="#00ABEB" stroke-width="0.15" stroke-miterlimit="10" x1="-87.733" y1="3.613" x2="139.108" y2="3.613"/>
				
					<line fill="none" stroke="#00ABEB" stroke-width="0.15" stroke-miterlimit="10" x1="-85.745" y1="1.624" x2="141.096" y2="1.624"/>
				
					<line fill="none" stroke="#00ABEB" stroke-width="0.15" stroke-miterlimit="10" x1="-83.757" y1="-0.363" x2="143.084" y2="-0.363"/>
				
					<line fill="none" stroke="#00ABEB" stroke-width="0.15" stroke-miterlimit="10" x1="-81.769" y1="-2.351" x2="145.072" y2="-2.351"/>
				
					<line fill="none" stroke="#00ABEB" stroke-width="0.15" stroke-miterlimit="10" x1="-79.781" y1="-4.339" x2="147.06" y2="-4.339"/>
				
					<line fill="none" stroke="#00ABEB" stroke-width="0.15" stroke-miterlimit="10" x1="-77.793" y1="-6.327" x2="149.047" y2="-6.327"/>
				
					<line fill="none" stroke="#00ABEB" stroke-width="0.15" stroke-miterlimit="10" x1="-75.805" y1="-8.315" x2="151.036" y2="-8.315"/>
				
					<line fill="none" stroke="#00ABEB" stroke-width="0.15" stroke-miterlimit="10" x1="-73.817" y1="-10.303" x2="153.024" y2="-10.303"/>
				
					<line fill="none" stroke="#00ABEB" stroke-width="0.15" stroke-miterlimit="10" x1="-71.83" y1="-12.291" x2="155.011" y2="-12.291"/>
				
					<line fill="none" stroke="#00ABEB" stroke-width="0.15" stroke-miterlimit="10" x1="-69.841" y1="-14.279" x2="156.999" y2="-14.279"/>
				
					<line fill="none" stroke="#00ABEB" stroke-width="0.15" stroke-miterlimit="10" x1="-67.853" y1="-16.267" x2="158.988" y2="-16.267"/>
				
					<line fill="none" stroke="#00ABEB" stroke-width="0.15" stroke-miterlimit="10" x1="-65.866" y1="-18.254" x2="160.975" y2="-18.254"/>
				
					<line fill="none" stroke="#00ABEB" stroke-width="0.15" stroke-miterlimit="10" x1="-63.878" y1="-20.243" x2="162.963" y2="-20.243"/>
				
					<line fill="none" stroke="#00ABEB" stroke-width="0.15" stroke-miterlimit="10" x1="-61.889" y1="-22.231" x2="164.951" y2="-22.231"/>
				
					<line fill="none" stroke="#00ABEB" stroke-width="0.15" stroke-miterlimit="10" x1="-59.902" y1="-24.218" x2="166.939" y2="-24.218"/>
				
					<line fill="none" stroke="#00ABEB" stroke-width="0.15" stroke-miterlimit="10" x1="-57.914" y1="-26.207" x2="168.927" y2="-26.207"/>
				
					<line fill="none" stroke="#00ABEB" stroke-width="0.15" stroke-miterlimit="10" x1="-55.926" y1="-28.194" x2="170.915" y2="-28.194"/>
				
					<line fill="none" stroke="#00ABEB" stroke-width="0.15" stroke-miterlimit="10" x1="-53.938" y1="-30.182" x2="172.903" y2="-30.182"/>
				
					<line fill="none" stroke="#00ABEB" stroke-width="0.15" stroke-miterlimit="10" x1="-51.95" y1="-32.17" x2="174.891" y2="-32.17"/>
				
					<line fill="none" stroke="#00ABEB" stroke-width="0.15" stroke-miterlimit="10" x1="-49.962" y1="-34.158" x2="176.879" y2="-34.158"/>
			</g>
			<g id="Vertical_1_mm_00000181073523592228201180000012361058669048395659_">
				<g>
					
						<line fill="none" stroke="#00ABEB" stroke-width="0.15" stroke-miterlimit="10" x1="-165.178" y1="81.132" x2="-45.858" y2="-38.187"/>
				</g>
				
					<line fill="none" stroke="#00ABEB" stroke-width="0.15" stroke-miterlimit="10" x1="-162.344" y1="81.132" x2="-43.024" y2="-38.187"/>
				
					<line fill="none" stroke="#00ABEB" stroke-width="0.15" stroke-miterlimit="10" x1="-159.509" y1="81.132" x2="-40.189" y2="-38.187"/>
				
					<line fill="none" stroke="#00ABEB" stroke-width="0.15" stroke-miterlimit="10" x1="-156.674" y1="81.132" x2="-37.354" y2="-38.187"/>
				
					<line fill="none" stroke="#00ABEB" stroke-width="0.15" stroke-miterlimit="10" x1="-153.84" y1="81.132" x2="-34.52" y2="-38.187"/>
				
					<line fill="none" stroke="#00ABEB" stroke-width="0.15" stroke-miterlimit="10" x1="-151.005" y1="81.132" x2="-31.685" y2="-38.187"/>
				
					<line fill="none" stroke="#00ABEB" stroke-width="0.15" stroke-miterlimit="10" x1="-148.17" y1="81.132" x2="-28.85" y2="-38.187"/>
				
					<line fill="none" stroke="#00ABEB" stroke-width="0.15" stroke-miterlimit="10" x1="-145.336" y1="81.132" x2="-26.016" y2="-38.187"/>
				
					<line fill="none" stroke="#00ABEB" stroke-width="0.15" stroke-miterlimit="10" x1="-142.501" y1="81.132" x2="-23.181" y2="-38.187"/>
				
					<line fill="none" stroke="#00ABEB" stroke-width="0.15" stroke-miterlimit="10" x1="-139.667" y1="81.132" x2="-20.347" y2="-38.187"/>
				
					<line fill="none" stroke="#00ABEB" stroke-width="0.15" stroke-miterlimit="10" x1="-136.832" y1="81.132" x2="-17.512" y2="-38.187"/>
				
					<line fill="none" stroke="#00ABEB" stroke-width="0.15" stroke-miterlimit="10" x1="-133.997" y1="81.132" x2="-14.677" y2="-38.187"/>
				
					<line fill="none" stroke="#00ABEB" stroke-width="0.15" stroke-miterlimit="10" x1="-131.163" y1="81.132" x2="-11.843" y2="-38.187"/>
				
					<line fill="none" stroke="#00ABEB" stroke-width="0.15" stroke-miterlimit="10" x1="-128.328" y1="81.132" x2="-9.008" y2="-38.187"/>
				
					<line fill="none" stroke="#00ABEB" stroke-width="0.15" stroke-miterlimit="10" x1="-125.493" y1="81.132" x2="-6.173" y2="-38.187"/>
				
					<line fill="none" stroke="#00ABEB" stroke-width="0.15" stroke-miterlimit="10" x1="-122.659" y1="81.132" x2="-3.339" y2="-38.187"/>
				
					<line fill="none" stroke="#00ABEB" stroke-width="0.15" stroke-miterlimit="10" x1="-119.824" y1="81.132" x2="-0.504" y2="-38.187"/>
				
					<line fill="none" stroke="#00ABEB" stroke-width="0.15" stroke-miterlimit="10" x1="-116.989" y1="81.132" x2="2.331" y2="-38.187"/>
				
					<line fill="none" stroke="#00ABEB" stroke-width="0.15" stroke-miterlimit="10" x1="-114.155" y1="81.132" x2="5.165" y2="-38.187"/>
				<line fill="none" stroke="#00ABEB" stroke-width="0.15" stroke-miterlimit="10" x1="-111.32" y1="81.132" x2="8" y2="-38.187"/>
				
					<line fill="none" stroke="#00ABEB" stroke-width="0.15" stroke-miterlimit="10" x1="-108.485" y1="81.132" x2="10.835" y2="-38.187"/>
				
					<line fill="none" stroke="#00ABEB" stroke-width="0.15" stroke-miterlimit="10" x1="-105.651" y1="81.132" x2="13.669" y2="-38.187"/>
				
					<line fill="none" stroke="#00ABEB" stroke-width="0.15" stroke-miterlimit="10" x1="-102.816" y1="81.132" x2="16.504" y2="-38.187"/>
				
					<line fill="none" stroke="#00ABEB" stroke-width="0.15" stroke-miterlimit="10" x1="-99.981" y1="81.132" x2="19.339" y2="-38.187"/>
				
					<line fill="none" stroke="#00ABEB" stroke-width="0.15" stroke-miterlimit="10" x1="-97.147" y1="81.132" x2="22.173" y2="-38.187"/>
				
					<line fill="none" stroke="#00ABEB" stroke-width="0.15" stroke-miterlimit="10" x1="-94.312" y1="81.132" x2="25.008" y2="-38.187"/>
				
					<line fill="none" stroke="#00ABEB" stroke-width="0.15" stroke-miterlimit="10" x1="-91.478" y1="81.132" x2="27.842" y2="-38.187"/>
				
					<line fill="none" stroke="#00ABEB" stroke-width="0.15" stroke-miterlimit="10" x1="-88.643" y1="81.132" x2="30.677" y2="-38.187"/>
				
					<line fill="none" stroke="#00ABEB" stroke-width="0.15" stroke-miterlimit="10" x1="-85.808" y1="81.132" x2="33.512" y2="-38.187"/>
				
					<line fill="none" stroke="#00ABEB" stroke-width="0.15" stroke-miterlimit="10" x1="-82.974" y1="81.132" x2="36.346" y2="-38.187"/>
				
					<line fill="none" stroke="#00ABEB" stroke-width="0.15" stroke-miterlimit="10" x1="-80.139" y1="81.132" x2="39.181" y2="-38.187"/>
				
					<line fill="none" stroke="#00ABEB" stroke-width="0.15" stroke-miterlimit="10" x1="-77.304" y1="81.132" x2="42.016" y2="-38.187"/>
				
					<line fill="none" stroke="#00ABEB" stroke-width="0.15" stroke-miterlimit="10" x1="-74.47" y1="81.132" x2="44.85" y2="-38.187"/>
				
					<line fill="none" stroke="#00ABEB" stroke-width="0.15" stroke-miterlimit="10" x1="-71.635" y1="81.132" x2="47.685" y2="-38.187"/>
				
					<line fill="none" stroke="#00ABEB" stroke-width="0.15" stroke-miterlimit="10" x1="-68.8" y1="81.132" x2="50.52" y2="-38.187"/>
				
					<line fill="none" stroke="#00ABEB" stroke-width="0.15" stroke-miterlimit="10" x1="-65.966" y1="81.132" x2="53.354" y2="-38.187"/>
				
					<line fill="none" stroke="#00ABEB" stroke-width="0.15" stroke-miterlimit="10" x1="-63.131" y1="81.132" x2="56.189" y2="-38.187"/>
				
					<line fill="none" stroke="#00ABEB" stroke-width="0.15" stroke-miterlimit="10" x1="-60.296" y1="81.132" x2="59.024" y2="-38.187"/>
				
					<line fill="none" stroke="#00ABEB" stroke-width="0.15" stroke-miterlimit="10" x1="-57.462" y1="81.132" x2="61.858" y2="-38.187"/>
				
					<line fill="none" stroke="#00ABEB" stroke-width="0.15" stroke-miterlimit="10" x1="-54.627" y1="81.132" x2="64.693" y2="-38.187"/>
				
					<line fill="none" stroke="#00ABEB" stroke-width="0.15" stroke-miterlimit="10" x1="-51.793" y1="81.132" x2="67.527" y2="-38.187"/>
				
					<line fill="none" stroke="#00ABEB" stroke-width="0.15" stroke-miterlimit="10" x1="-48.958" y1="81.132" x2="70.362" y2="-38.187"/>
				
					<line fill="none" stroke="#00ABEB" stroke-width="0.15" stroke-miterlimit="10" x1="-46.123" y1="81.132" x2="73.197" y2="-38.187"/>
				
					<line fill="none" stroke="#00ABEB" stroke-width="0.15" stroke-miterlimit="10" x1="-43.289" y1="81.132" x2="76.031" y2="-38.187"/>
				
					<line fill="none" stroke="#00ABEB" stroke-width="0.15" stroke-miterlimit="10" x1="-40.454" y1="81.132" x2="78.866" y2="-38.187"/>
				
					<line fill="none" stroke="#00ABEB" stroke-width="0.15" stroke-miterlimit="10" x1="-37.619" y1="81.132" x2="81.701" y2="-38.187"/>
				
					<line fill="none" stroke="#00ABEB" stroke-width="0.15" stroke-miterlimit="10" x1="-34.785" y1="81.132" x2="84.535" y2="-38.187"/>
				
					<line fill="none" stroke="#00ABEB" stroke-width="0.15" stroke-miterlimit="10" x1="-31.95" y1="81.132" x2="87.37" y2="-38.187"/>
				
					<line fill="none" stroke="#00ABEB" stroke-width="0.15" stroke-miterlimit="10" x1="-29.115" y1="81.132" x2="90.205" y2="-38.187"/>
				
					<line fill="none" stroke="#00ABEB" stroke-width="0.15" stroke-miterlimit="10" x1="-26.281" y1="81.132" x2="93.039" y2="-38.187"/>
				
					<line fill="none" stroke="#00ABEB" stroke-width="0.15" stroke-miterlimit="10" x1="-23.446" y1="81.132" x2="95.874" y2="-38.187"/>
				
					<line fill="none" stroke="#00ABEB" stroke-width="0.15" stroke-miterlimit="10" x1="-20.611" y1="81.132" x2="98.709" y2="-38.187"/>
				
					<line fill="none" stroke="#00ABEB" stroke-width="0.15" stroke-miterlimit="10" x1="-17.777" y1="81.132" x2="101.543" y2="-38.187"/>
				
					<line fill="none" stroke="#00ABEB" stroke-width="0.15" stroke-miterlimit="10" x1="-14.942" y1="81.132" x2="104.378" y2="-38.187"/>
				
					<line fill="none" stroke="#00ABEB" stroke-width="0.15" stroke-miterlimit="10" x1="-12.107" y1="81.132" x2="107.213" y2="-38.187"/>
				
					<line fill="none" stroke="#00ABEB" stroke-width="0.15" stroke-miterlimit="10" x1="-9.273" y1="81.132" x2="110.047" y2="-38.187"/>
				
					<line fill="none" stroke="#00ABEB" stroke-width="0.15" stroke-miterlimit="10" x1="-6.438" y1="81.132" x2="112.882" y2="-38.187"/>
				
					<line fill="none" stroke="#00ABEB" stroke-width="0.15" stroke-miterlimit="10" x1="-3.604" y1="81.132" x2="115.716" y2="-38.187"/>
				
					<line fill="none" stroke="#00ABEB" stroke-width="0.15" stroke-miterlimit="10" x1="-0.769" y1="81.132" x2="118.551" y2="-38.187"/>
				
					<line fill="none" stroke="#00ABEB" stroke-width="0.15" stroke-miterlimit="10" x1="2.066" y1="81.132" x2="121.386" y2="-38.187"/>
				
					<line fill="none" stroke="#00ABEB" stroke-width="0.15" stroke-miterlimit="10" x1="4.9" y1="81.132" x2="124.22" y2="-38.187"/>
				
					<line fill="none" stroke="#00ABEB" stroke-width="0.15" stroke-miterlimit="10" x1="7.735" y1="81.132" x2="127.055" y2="-38.187"/>
				
					<line fill="none" stroke="#00ABEB" stroke-width="0.15" stroke-miterlimit="10" x1="10.57" y1="81.132" x2="129.89" y2="-38.187"/>
				
					<line fill="none" stroke="#00ABEB" stroke-width="0.15" stroke-miterlimit="10" x1="13.404" y1="81.132" x2="132.724" y2="-38.187"/>
				
					<line fill="none" stroke="#00ABEB" stroke-width="0.15" stroke-miterlimit="10" x1="16.239" y1="81.132" x2="135.559" y2="-38.187"/>
				
					<line fill="none" stroke="#00ABEB" stroke-width="0.15" stroke-miterlimit="10" x1="19.074" y1="81.132" x2="138.394" y2="-38.187"/>
				
					<line fill="none" stroke="#00ABEB" stroke-width="0.15" stroke-miterlimit="10" x1="21.908" y1="81.132" x2="141.228" y2="-38.187"/>
				
					<line fill="none" stroke="#00ABEB" stroke-width="0.15" stroke-miterlimit="10" x1="24.743" y1="81.132" x2="144.063" y2="-38.187"/>
				
					<line fill="none" stroke="#00ABEB" stroke-width="0.15" stroke-miterlimit="10" x1="27.578" y1="81.132" x2="146.898" y2="-38.187"/>
				
					<line fill="none" stroke="#00ABEB" stroke-width="0.15" stroke-miterlimit="10" x1="30.412" y1="81.132" x2="149.732" y2="-38.187"/>
				
					<line fill="none" stroke="#00ABEB" stroke-width="0.15" stroke-miterlimit="10" x1="33.247" y1="81.132" x2="152.567" y2="-38.187"/>
				
					<line fill="none" stroke="#00ABEB" stroke-width="0.15" stroke-miterlimit="10" x1="36.082" y1="81.132" x2="155.402" y2="-38.187"/>
				
					<line fill="none" stroke="#00ABEB" stroke-width="0.15" stroke-miterlimit="10" x1="38.916" y1="81.132" x2="158.236" y2="-38.187"/>
				
					<line fill="none" stroke="#00ABEB" stroke-width="0.15" stroke-miterlimit="10" x1="41.751" y1="81.132" x2="161.071" y2="-38.187"/>
				
					<line fill="none" stroke="#00ABEB" stroke-width="0.15" stroke-miterlimit="10" x1="44.585" y1="81.132" x2="163.905" y2="-38.187"/>
				
					<line fill="none" stroke="#00ABEB" stroke-width="0.15" stroke-miterlimit="10" x1="47.42" y1="81.132" x2="166.74" y2="-38.187"/>
				
					<line fill="none" stroke="#00ABEB" stroke-width="0.15" stroke-miterlimit="10" x1="50.255" y1="81.132" x2="169.575" y2="-38.187"/>
				
					<line fill="none" stroke="#00ABEB" stroke-width="0.15" stroke-miterlimit="10" x1="53.089" y1="81.132" x2="172.409" y2="-38.187"/>
				
					<line fill="none" stroke="#00ABEB" stroke-width="0.15" stroke-miterlimit="10" x1="55.924" y1="81.132" x2="175.244" y2="-38.187"/>
				
					<line fill="none" stroke="#00ABEB" stroke-width="0.15" stroke-miterlimit="10" x1="58.759" y1="81.132" x2="178.079" y2="-38.187"/>
				
					<line fill="none" stroke="#00ABEB" stroke-width="0.15" stroke-miterlimit="10" x1="61.593" y1="81.132" x2="180.913" y2="-38.187"/>
			</g>
			<g id="Horizontal_5_mm_00000011735556503592991880000008134099091165005186_">
				
					<line fill="none" stroke="#00ABEB" stroke-width="0.3" stroke-miterlimit="10" x1="-165.538" y1="81.142" x2="61.578" y2="81.142"/>
				
					<line fill="none" stroke="#00ABEB" stroke-width="0.3" stroke-miterlimit="10" x1="-155.598" y1="71.203" x2="71.518" y2="71.203"/>
				
					<line fill="none" stroke="#00ABEB" stroke-width="0.3" stroke-miterlimit="10" x1="-145.658" y1="61.263" x2="81.457" y2="61.263"/>
				
					<line fill="none" stroke="#00ABEB" stroke-width="0.3" stroke-miterlimit="10" x1="-135.718" y1="51.323" x2="91.397" y2="51.323"/>
				
					<line fill="none" stroke="#00ABEB" stroke-width="0.3" stroke-miterlimit="10" x1="-125.779" y1="41.383" x2="101.337" y2="41.383"/>
				
					<line fill="none" stroke="#00ABEB" stroke-width="0.3" stroke-miterlimit="10" x1="-115.839" y1="31.444" x2="111.277" y2="31.444"/>
				
					<line fill="none" stroke="#00ABEB" stroke-width="0.3" stroke-miterlimit="10" x1="-105.9" y1="21.504" x2="121.216" y2="21.504"/>
				
					<line fill="none" stroke="#00ABEB" stroke-width="0.3" stroke-miterlimit="10" x1="-95.959" y1="11.564" x2="131.156" y2="11.564"/>
				
					<line fill="none" stroke="#00ABEB" stroke-width="0.3" stroke-miterlimit="10" x1="-86.02" y1="1.624" x2="141.096" y2="1.624"/>
				
					<line fill="none" stroke="#00ABEB" stroke-width="0.3" stroke-miterlimit="10" x1="-76.08" y1="-8.315" x2="151.036" y2="-8.315"/>
				
					<line fill="none" stroke="#00ABEB" stroke-width="0.3" stroke-miterlimit="10" x1="-66.141" y1="-18.254" x2="160.975" y2="-18.254"/>
			</g>
			<g id="Vertical_5_mm_00000064346364918789686960000003233481195482251947_">
				
					<line fill="none" stroke="#00ABEB" stroke-width="0.3" stroke-miterlimit="10" x1="-165.178" y1="81.132" x2="-45.665" y2="-38.38"/>
				
					<line fill="none" stroke="#00ABEB" stroke-width="0.3" stroke-miterlimit="10" x1="-151.005" y1="81.132" x2="-31.492" y2="-38.38"/>
				
					<line fill="none" stroke="#00ABEB" stroke-width="0.3" stroke-miterlimit="10" x1="-136.832" y1="81.132" x2="-17.319" y2="-38.38"/>
				
					<line fill="none" stroke="#00ABEB" stroke-width="0.3" stroke-miterlimit="10" x1="-122.659" y1="81.132" x2="-3.146" y2="-38.38"/>
				
					<line fill="none" stroke="#00ABEB" stroke-width="0.3" stroke-miterlimit="10" x1="-108.485" y1="81.132" x2="11.028" y2="-38.38"/>
				
					<line fill="none" stroke="#00ABEB" stroke-width="0.3" stroke-miterlimit="10" x1="-94.312" y1="81.132" x2="25.201" y2="-38.38"/>
				
					<line fill="none" stroke="#00ABEB" stroke-width="0.3" stroke-miterlimit="10" x1="-80.139" y1="81.132" x2="39.374" y2="-38.38"/>
				
					<line fill="none" stroke="#00ABEB" stroke-width="0.3" stroke-miterlimit="10" x1="-65.966" y1="81.132" x2="53.547" y2="-38.38"/>
				
					<line fill="none" stroke="#00ABEB" stroke-width="0.3" stroke-miterlimit="10" x1="-51.793" y1="81.132" x2="67.72" y2="-38.38"/>
				
					<line fill="none" stroke="#00ABEB" stroke-width="0.3" stroke-miterlimit="10" x1="-37.619" y1="81.132" x2="81.894" y2="-38.38"/>
				
					<line fill="none" stroke="#00ABEB" stroke-width="0.3" stroke-miterlimit="10" x1="-23.446" y1="81.132" x2="96.067" y2="-38.38"/>
				
					<line fill="none" stroke="#00ABEB" stroke-width="0.3" stroke-miterlimit="10" x1="-9.273" y1="81.132" x2="110.24" y2="-38.38"/>
				<line fill="none" stroke="#00ABEB" stroke-width="0.3" stroke-miterlimit="10" x1="4.9" y1="81.132" x2="124.413" y2="-38.38"/>
				
					<line fill="none" stroke="#00ABEB" stroke-width="0.3" stroke-miterlimit="10" x1="19.074" y1="81.132" x2="138.587" y2="-38.38"/>
				
					<line fill="none" stroke="#00ABEB" stroke-width="0.3" stroke-miterlimit="10" x1="33.247" y1="81.132" x2="152.76" y2="-38.38"/>
				
					<line fill="none" stroke="#00ABEB" stroke-width="0.3" stroke-miterlimit="10" x1="47.42" y1="81.132" x2="166.933" y2="-38.38"/>
				
					<line fill="none" stroke="#00ABEB" stroke-width="0.3" stroke-miterlimit="10" x1="61.593" y1="81.132" x2="181.106" y2="-38.38"/>
			</g>
			<g id="Horizontal_10_mm_00000163045836177147705350000008480455355013810362_">
				
					<line id="_x31_9_00000057116790517712807720000015084113881736219806_" fill="none" stroke="#00ABEB" stroke-width="0.7" stroke-miterlimit="10" x1="-165.538" y1="81.142" x2="61.578" y2="81.142"/>
				
					<line id="_x32_0_00000024685878617286333290000013167547815532084100_" fill="none" stroke="#00ABEB" stroke-width="0.7" stroke-miterlimit="10" x1="-145.658" y1="61.263" x2="81.457" y2="61.263"/>
				
					<line id="_x32_1_00000138564813020868535020000012777939180148238773_" fill="none" stroke="#00ABEB" stroke-width="0.7" stroke-miterlimit="10" x1="-125.779" y1="41.383" x2="101.337" y2="41.383"/>
				
					<line id="_x32_2_00000052807586205252870140000014502512662559454639_" fill="none" stroke="#00ABEB" stroke-width="0.7" stroke-miterlimit="10" x1="-105.9" y1="21.504" x2="121.216" y2="21.504"/>
				
					<line id="_x32_3_00000051376893246677475670000009295515732899575694_" fill="none" stroke="#00ABEB" stroke-width="0.7" stroke-miterlimit="10" x1="-86.02" y1="1.624" x2="141.096" y2="1.624"/>
				
					<line id="_x32_4_00000099657911357833521510000007853591198542098087_" fill="none" stroke="#00ABEB" stroke-width="0.7" stroke-miterlimit="10" x1="-66.141" y1="-18.254" x2="160.975" y2="-18.254"/>
				
					<line id="_x32_5_00000155127691660191171140000008292164438978366870_" fill="none" stroke="#00ABEB" stroke-width="0.7" stroke-miterlimit="10" x1="-46.261" y1="-38.134" x2="180.855" y2="-38.134"/>
			</g>
			<g id="Vertical_10_mm_00000134969164297783457920000010833503864539426239_">
				
					<line id="_x30__00000151539528360119995570000005083818057555393183_" fill="none" stroke="#00ABEB" stroke-width="0.7" stroke-miterlimit="10" x1="-165.178" y1="81.132" x2="-45.665" y2="-38.38"/>
				
					<line id="_x31__00000021823889366233599640000011971139016478256513_" fill="none" stroke="#00ABEB" stroke-width="0.7" stroke-miterlimit="10" x1="-136.832" y1="81.132" x2="-17.319" y2="-38.38"/>
				
					<line id="_x32__00000071550223824624162640000006130814236846722696_" fill="none" stroke="#00ABEB" stroke-width="0.7" stroke-miterlimit="10" x1="-108.485" y1="81.132" x2="11.028" y2="-38.38"/>
				
					<line id="_x33__00000042015976804734918030000005045165563697445304_" fill="none" stroke="#00ABEB" stroke-width="0.7" stroke-miterlimit="10" x1="-80.139" y1="81.132" x2="39.374" y2="-38.38"/>
				
					<line id="_x34__00000081637789328126233800000002486991317463304126_" fill="none" stroke="#00ABEB" stroke-width="0.7" stroke-miterlimit="10" x1="-51.793" y1="81.132" x2="67.72" y2="-38.38"/>
				
					<line id="_x35__00000051353690731882489090000004794744233340785543_" fill="none" stroke="#00ABEB" stroke-width="0.7" stroke-miterlimit="10" x1="-23.446" y1="81.132" x2="96.067" y2="-38.38"/>
				
					<line id="_x36__00000011745311307505536660000010485558803267122343_" fill="none" stroke="#00ABEB" stroke-width="0.7" stroke-miterlimit="10" x1="4.9" y1="81.132" x2="124.413" y2="-38.38"/>
				
					<line id="_x37__00000045602144989735358580000003937589459941247142_" fill="none" stroke="#00ABEB" stroke-width="0.7" stroke-miterlimit="10" x1="33.247" y1="81.132" x2="152.76" y2="-38.38"/>
				
					<line id="_x38__00000047029857857898873560000014194396358708286345_" fill="none" stroke="#00ABEB" stroke-width="0.7" stroke-miterlimit="10" x1="61.593" y1="81.132" x2="181.106" y2="-38.38"/>
			</g>
		</g>
	</g>
</g>
<g id="Layer_4">
	<circle opacity="0.05" fill="#0000FF" cx="7.84" cy="21.497" r="28.347"/>
	
		<path opacity="0.5" fill="#0000FF" stroke="#0000FF" stroke-width="0.1" stroke-linecap="round" stroke-linejoin="round" stroke-miterlimit="10" d="
		M19.951,7.644c0.433,1.576,0.794,3.245,1.075,4.989c-1.58,0.192-3.275,0.351-5.061,0.471h0c-0.169-1.824-0.392-3.569-0.663-5.215v0
		C16.941,7.826,18.498,7.744,19.951,7.644L19.951,7.644z"/>
	<path opacity="0.2" fill="none" stroke="#0000FF" stroke-width="0.1" stroke-miterlimit="10" d="M7.84-6.852
		c7.664,0,13.878,12.691,13.878,28.347S15.505,49.841,7.84,49.841"/>
	<path opacity="0.2" fill="none" stroke="#0000FF" stroke-width="0.1" stroke-miterlimit="10" d="M7.84-6.852
		c4.697,0,8.504,12.691,8.504,28.347S12.537,49.841,7.84,49.841"/>
	<path opacity="0.2" fill="none" stroke="#0000FF" stroke-width="0.1" stroke-miterlimit="10" d="M31.17,5.39
		c0,1.456-10.445,2.636-23.33,2.636s-23.33-1.18-23.33-2.636"/>
	<path opacity="0.2" fill="none" stroke="#0000FF" stroke-width="0.1" stroke-miterlimit="10" d="M32.99,8.406
		c0,2.741-11.26,4.963-25.15,4.963s-25.15-2.222-25.15-4.963"/>
	<g>
		<path fill="#FF00FF" d="M12.506,5.142l1.203-2.008h0.078l0.396,2.008H12.506z M13.576,3.561L12.81,4.859h1.028L13.576,3.561z"/>
		<path fill="#FF00FF" d="M15.517,4.823c-0.195,0.259-0.406,0.352-0.616,0.352c-0.243,0-0.385-0.199-0.385-0.517
			c0-0.646,0.34-1.178,0.667-1.428c0.132-0.1,0.247-0.126,0.367-0.126c0.213,0,0.37,0.145,0.37,0.502
			C15.92,4.092,15.74,4.526,15.517,4.823z M14.856,4.195c-0.057,0.15-0.087,0.307-0.087,0.496c0,0.267,0.057,0.42,0.168,0.42
			c0.289,0,0.547-0.622,0.619-0.917H14.856z M15.577,4.099c0.051-0.174,0.09-0.391,0.09-0.616c0-0.192-0.054-0.316-0.159-0.316
			c-0.262,0-0.556,0.665-0.631,0.932H15.577z"/>
	</g>
	<g>
		<path fill="#009400" d="M11.806,18.942l1.203-2.008h0.078l0.396,2.008H11.806z M12.877,17.361l-0.767,1.298h1.028L12.877,17.361z"
			/>
		<path fill="#009400" d="M14.98,17.616c0.138,0,0.219,0.003,0.303,0.036c0.147,0.057,0.241,0.166,0.241,0.379
			c0,0.349-0.328,0.941-0.92,0.944l-0.162,0.583h-0.234l0.162-0.583c-0.129,0-0.247-0.009-0.322-0.033
			c-0.156-0.051-0.231-0.192-0.231-0.385c0-0.304,0.337-0.941,0.887-0.941h0.045l0.201-0.728h0.231L14.98,17.616z M14.731,17.679
			c-0.349,0-0.662,0.535-0.662,0.959c0,0.126,0.051,0.213,0.145,0.25c0.048,0.018,0.105,0.024,0.174,0.024L14.731,17.679z
			 M14.622,18.912c0.075,0,0.123-0.006,0.208-0.048c0.247-0.123,0.442-0.655,0.442-0.905c0-0.135-0.057-0.21-0.135-0.259
			c-0.03-0.018-0.111-0.021-0.174-0.021L14.622,18.912z"/>
	</g>
	<path fill="none" stroke="#00A300" stroke-width="0.1" stroke-miterlimit="10" d="M10.817,15.894
		c0.513,0.279,0.983,0.628,1.397,1.033"/>
	<g>
		<path fill="#009400" d="M11.015,12.508c0.139-0.532,0.439-0.872,0.761-0.872c0.159,0,0.457,0,0.457,0.412
			c0,0.463-0.469,0.947-0.896,0.947c-0.069,0-0.135-0.012-0.205-0.051l-0.108,0.424c-0.018,0.072-0.048,0.147-0.093,0.21h-0.234
			c0.042-0.063,0.072-0.132,0.093-0.21L11.015,12.508z M11.767,11.7c-0.168,0-0.364,0.223-0.454,0.544
			c-0.054,0.195-0.138,0.508-0.138,0.583c0,0.063,0.063,0.111,0.147,0.111c0.4-0.006,0.644-0.559,0.644-0.914
			C11.965,11.847,11.896,11.7,11.767,11.7z"/>
	</g>
	<g>
		<path fill="#FF00FF" d="M6.7,6.652c0.057-0.126,0.159-0.286,0.283-0.415C7.061,6.156,7.15,6.102,7.22,6.102
			c0.084,0,0.141,0.063,0.141,0.153S7.31,6.418,7.22,6.418c-0.054,0-0.078-0.033-0.105-0.079c-0.018-0.03-0.027-0.042-0.048-0.042
			c-0.054,0-0.138,0.099-0.247,0.283C6.691,6.802,6.637,6.923,6.486,7.427H6.258l0.244-0.878c0.042-0.156,0.048-0.183,0.048-0.246
			c0-0.063-0.054-0.078-0.114-0.078c-0.024,0-0.048,0.003-0.093,0.009V6.183l0.466-0.081l0.009,0.006L6.651,6.757L6.7,6.652z"/>
		<path fill="#FF00FF" d="M7.548,6.465V6.267h1.515v0.198H7.548z M7.548,7.067V6.868h1.515v0.198H7.548z"/>
		<path fill="#FF00FF" d="M10.745,7.127c-0.225,0.274-0.297,0.331-0.417,0.331c-0.084,0-0.121-0.036-0.121-0.124
			c0-0.075,0.006-0.099,0.069-0.346c-0.226,0.34-0.4,0.472-0.61,0.472c-0.168,0-0.3-0.121-0.3-0.349c0-0.466,0.46-1.01,0.859-1.01
			c0.129,0,0.217,0.063,0.241,0.174l0.033-0.144l0.009-0.009l0.184-0.021l0.021,0.009c-0.006,0.027-0.009,0.033-0.018,0.063
			c-0.142,0.514-0.268,1.031-0.268,1.091c0,0.021,0.018,0.039,0.042,0.039c0.027,0,0.066-0.024,0.156-0.124l0.081-0.087
			L10.745,7.127z M10.243,6.168c-0.135,0-0.268,0.093-0.394,0.276C9.723,6.634,9.618,6.902,9.618,7.09
			c0,0.166,0.072,0.223,0.18,0.223c0.15,0,0.292-0.166,0.382-0.294c0.141-0.205,0.231-0.463,0.231-0.676
			C10.412,6.237,10.349,6.168,10.243,6.168z"/>
	</g>
	<g>
		<path d="M24,14.31c0.088-0.11,0.176-0.158,0.288-0.158c0.194,0,0.334,0.178,0.334,0.426c0,0.29-0.182,0.514-0.42,0.514
			c-0.084,0-0.13-0.02-0.202-0.086v0.314c0,0.126,0.026,0.148,0.176,0.15v0.036h-0.484v-0.034c0.118-0.012,0.14-0.034,0.14-0.138
			v-0.936c0-0.094-0.014-0.114-0.082-0.114c-0.018,0-0.032,0-0.05,0.002v-0.032c0.11-0.034,0.182-0.06,0.288-0.102L24,14.156V14.31z
			 M24,14.896c0,0.06,0.114,0.132,0.208,0.132c0.144,0,0.242-0.15,0.242-0.37c0-0.234-0.098-0.386-0.246-0.386
			c-0.092,0-0.204,0.072-0.204,0.132V14.896z"/>
		<path d="M24.714,15.072v-0.03c0.138-0.008,0.158-0.026,0.158-0.178V14.41c0-0.094-0.016-0.126-0.066-0.126
			c-0.018,0-0.048,0-0.084,0.01v-0.032l0.31-0.11l0.008,0.008v0.702c0,0.148,0.016,0.17,0.148,0.18v0.03H24.714z M24.938,13.911
			c-0.056,0-0.1-0.044-0.1-0.102c0-0.056,0.046-0.102,0.102-0.102c0.058,0,0.102,0.046,0.102,0.102
			C25.042,13.866,24.998,13.911,24.938,13.911z"/>
		<path d="M26.086,14.758c-0.078,0.218-0.218,0.334-0.418,0.334c-0.236,0-0.38-0.178-0.38-0.454c0-0.282,0.162-0.486,0.414-0.486
			c0.124,0,0.214,0.048,0.278,0.138c0.04,0.056,0.06,0.12,0.068,0.228h-0.616c0.01,0.152,0.02,0.23,0.092,0.326
			c0.056,0.074,0.13,0.11,0.222,0.11c0.134,0,0.21-0.062,0.308-0.209L26.086,14.758z M25.844,14.454
			c-0.022-0.162-0.064-0.23-0.196-0.23c-0.112,0-0.19,0.08-0.212,0.23H25.844z"/>
		<path d="M26.95,14.778c-0.064,0.124-0.104,0.182-0.164,0.23c-0.068,0.056-0.144,0.084-0.23,0.084c-0.222,0-0.38-0.186-0.38-0.444
			c0-0.166,0.06-0.304,0.168-0.394c0.08-0.066,0.176-0.102,0.27-0.102c0.168,0,0.308,0.094,0.308,0.206
			c0,0.046-0.042,0.083-0.094,0.083c-0.044,0-0.08-0.034-0.096-0.092l-0.012-0.044c-0.02-0.074-0.046-0.096-0.118-0.096
			c-0.162,0-0.271,0.14-0.271,0.348c0,0.23,0.125,0.39,0.31,0.39c0.114,0,0.186-0.048,0.282-0.188L26.95,14.778z"/>
		<path d="M27.862,14.758c-0.078,0.218-0.218,0.334-0.418,0.334c-0.236,0-0.38-0.178-0.38-0.454c0-0.282,0.162-0.486,0.414-0.486
			c0.124,0,0.214,0.048,0.278,0.138c0.04,0.056,0.06,0.12,0.068,0.228h-0.616c0.01,0.152,0.02,0.23,0.092,0.326
			c0.056,0.074,0.13,0.11,0.222,0.11c0.134,0,0.21-0.062,0.308-0.209L27.862,14.758z M27.62,14.454
			c-0.022-0.162-0.064-0.23-0.196-0.23c-0.112,0-0.19,0.08-0.212,0.23H27.62z"/>
		<path d="M28.893,15.092c-0.242,0-0.432-0.198-0.432-0.476s0.18-0.464,0.45-0.464c0.244,0,0.432,0.182,0.432,0.458
			C29.342,14.888,29.163,15.092,28.893,15.092z M29.063,14.308c-0.048-0.06-0.104-0.1-0.19-0.1c-0.138,0-0.232,0.118-0.232,0.317
			c0,0.158,0.032,0.302,0.106,0.41c0.044,0.064,0.108,0.1,0.18,0.1c0.148,0,0.236-0.14,0.236-0.372
			C29.163,14.528,29.127,14.39,29.063,14.308z"/>
		<path d="M29.609,14.173c0.002-0.16,0.018-0.232,0.07-0.322c0.052-0.09,0.156-0.144,0.282-0.144c0.12,0,0.208,0.052,0.208,0.124
			c0,0.046-0.036,0.082-0.084,0.082c-0.034,0-0.058-0.018-0.09-0.072c-0.036-0.058-0.062-0.078-0.106-0.078
			c-0.076,0-0.112,0.06-0.112,0.178v0.232h0.244v0.064h-0.244v0.627c0,0.15,0.022,0.172,0.186,0.178v0.03h-0.52v-0.03
			c0.144-0.008,0.166-0.032,0.166-0.178v-0.627h-0.164v-0.064H29.609z"/>
		<path d="M31.393,14.778c-0.064,0.124-0.104,0.182-0.164,0.23c-0.068,0.056-0.144,0.084-0.23,0.084c-0.222,0-0.38-0.186-0.38-0.444
			c0-0.166,0.06-0.304,0.168-0.394c0.08-0.066,0.176-0.102,0.27-0.102c0.168,0,0.308,0.094,0.308,0.206
			c0,0.046-0.042,0.083-0.094,0.083c-0.044,0-0.08-0.034-0.096-0.092l-0.012-0.044c-0.02-0.074-0.046-0.096-0.118-0.096
			c-0.162,0-0.271,0.14-0.271,0.348c0,0.23,0.125,0.39,0.31,0.39c0.114,0,0.186-0.048,0.282-0.188L31.393,14.778z"/>
		<path d="M31.489,15.072v-0.03c0.138-0.008,0.158-0.026,0.158-0.178V14.41c0-0.094-0.016-0.126-0.066-0.126
			c-0.018,0-0.048,0-0.084,0.01v-0.032l0.31-0.11l0.008,0.008v0.702c0,0.148,0.016,0.17,0.148,0.18v0.03H31.489z M31.713,13.911
			c-0.056,0-0.1-0.044-0.1-0.102c0-0.056,0.046-0.102,0.102-0.102c0.058,0,0.102,0.046,0.102,0.102
			C31.817,13.866,31.773,13.911,31.713,13.911z"/>
		<path d="M32.333,14.34c0.1-0.144,0.156-0.188,0.24-0.188c0.068,0,0.11,0.04,0.11,0.106c0,0.056-0.03,0.09-0.078,0.09
			c-0.026,0-0.048-0.01-0.08-0.04c-0.022-0.02-0.04-0.03-0.052-0.03c-0.056,0-0.14,0.1-0.14,0.164v0.45
			c0,0.114,0.034,0.144,0.17,0.15v0.03h-0.48v-0.03c0.128-0.024,0.142-0.038,0.142-0.138v-0.5c0-0.088-0.018-0.12-0.068-0.12
			c-0.024,0-0.042,0.002-0.07,0.008V14.26c0.118-0.038,0.19-0.066,0.296-0.108l0.01,0.004V14.34z"/>
		<path d="M33.499,14.778c-0.064,0.124-0.104,0.182-0.164,0.23c-0.068,0.056-0.144,0.084-0.23,0.084c-0.222,0-0.38-0.186-0.38-0.444
			c0-0.166,0.06-0.304,0.168-0.394c0.08-0.066,0.176-0.102,0.27-0.102c0.168,0,0.308,0.094,0.308,0.206
			c0,0.046-0.042,0.083-0.094,0.083c-0.044,0-0.08-0.034-0.096-0.092l-0.012-0.044c-0.02-0.074-0.046-0.096-0.118-0.096
			c-0.162,0-0.271,0.14-0.271,0.348c0,0.23,0.125,0.39,0.31,0.39c0.114,0,0.186-0.048,0.282-0.188L33.499,14.778z"/>
		<path d="M33.606,15.072v-0.03c0.126-0.01,0.154-0.044,0.154-0.154V13.95c0-0.096-0.02-0.128-0.084-0.128
			c-0.016,0-0.042,0-0.074,0.004v-0.032c0.138-0.034,0.212-0.054,0.316-0.088l0.01,0.008v1.184c0,0.11,0.022,0.136,0.15,0.144v0.03
			H33.606z"/>
		<path d="M34.967,14.758c-0.078,0.218-0.218,0.334-0.418,0.334c-0.236,0-0.38-0.178-0.38-0.454c0-0.282,0.162-0.486,0.414-0.486
			c0.124,0,0.214,0.048,0.278,0.138c0.04,0.056,0.06,0.12,0.068,0.228h-0.616c0.01,0.152,0.02,0.23,0.092,0.326
			c0.056,0.074,0.13,0.11,0.222,0.11c0.134,0,0.21-0.062,0.308-0.209L34.967,14.758z M34.725,14.454
			c-0.022-0.162-0.064-0.23-0.196-0.23c-0.112,0-0.19,0.08-0.212,0.23H34.725z"/>
		<path d="M24.172,16.892c-0.242,0-0.432-0.198-0.432-0.476s0.18-0.464,0.45-0.464c0.244,0,0.432,0.182,0.432,0.458
			C24.622,16.688,24.442,16.892,24.172,16.892z M24.342,16.108c-0.048-0.06-0.104-0.1-0.19-0.1c-0.138,0-0.232,0.118-0.232,0.317
			c0,0.158,0.032,0.302,0.106,0.41c0.044,0.064,0.108,0.1,0.18,0.1c0.148,0,0.236-0.14,0.236-0.372
			C24.442,16.328,24.406,16.19,24.342,16.108z"/>
		<path d="M24.888,15.972c0.002-0.16,0.018-0.232,0.07-0.322c0.052-0.09,0.156-0.144,0.282-0.144c0.12,0,0.208,0.052,0.208,0.124
			c0,0.046-0.036,0.082-0.084,0.082c-0.034,0-0.058-0.018-0.09-0.072c-0.036-0.058-0.062-0.078-0.106-0.078
			c-0.076,0-0.112,0.06-0.112,0.178v0.232H25.3v0.064h-0.244v0.627c0,0.15,0.022,0.172,0.186,0.178v0.03h-0.52v-0.03
			c0.144-0.008,0.166-0.032,0.166-0.178v-0.627h-0.164v-0.064H24.888z"/>
		<path d="M26.168,16.14c0.1-0.144,0.156-0.188,0.24-0.188c0.068,0,0.11,0.04,0.11,0.106c0,0.056-0.03,0.09-0.078,0.09
			c-0.026,0-0.048-0.01-0.08-0.04c-0.022-0.02-0.04-0.03-0.052-0.03c-0.056,0-0.14,0.1-0.14,0.164v0.45
			c0,0.114,0.034,0.144,0.17,0.15v0.03h-0.48v-0.03C25.986,16.818,26,16.804,26,16.704v-0.5c0-0.088-0.018-0.12-0.068-0.12
			c-0.024,0-0.042,0.002-0.07,0.008V16.06c0.118-0.038,0.19-0.066,0.296-0.108l0.01,0.004V16.14z"/>
		<path d="M27.394,16.796c-0.06,0.076-0.112,0.096-0.18,0.096c-0.074,0-0.118-0.04-0.128-0.146h-0.002
			c-0.106,0.12-0.204,0.146-0.29,0.146c-0.124,0-0.21-0.076-0.21-0.208c0-0.104,0.062-0.182,0.14-0.234
			c0.06-0.04,0.134-0.078,0.36-0.162V16.18c0-0.124-0.066-0.18-0.156-0.18c-0.08,0-0.14,0.044-0.14,0.098
			c0,0.036,0.012,0.042,0.012,0.084c0,0.038-0.04,0.082-0.092,0.082c-0.042,0-0.086-0.038-0.086-0.092
			c0-0.052,0.032-0.116,0.102-0.16c0.056-0.036,0.14-0.06,0.23-0.06c0.112,0,0.188,0.032,0.236,0.09
			c0.048,0.058,0.056,0.1,0.056,0.222v0.381c0,0.092,0.026,0.132,0.062,0.132c0.032,0,0.052-0.01,0.086-0.038V16.796z
			 M27.084,16.336c-0.124,0.044-0.206,0.086-0.256,0.132c-0.048,0.044-0.068,0.092-0.068,0.154c0,0.106,0.06,0.154,0.138,0.154
			c0.04,0,0.082-0.01,0.116-0.032c0.058-0.04,0.07-0.068,0.07-0.126V16.336z"/>
		<path d="M28.086,16.892l-0.008-0.006v-0.128c-0.068,0.094-0.144,0.134-0.256,0.134c-0.222,0-0.37-0.174-0.37-0.43
			c0-0.284,0.186-0.51,0.416-0.51c0.08,0,0.134,0.022,0.21,0.086v-0.312c0-0.082-0.018-0.102-0.092-0.102
			c-0.016,0-0.028,0-0.044,0.002v-0.032c0.128-0.034,0.198-0.054,0.294-0.088l0.01,0.004v1.133c0,0.092,0.016,0.114,0.088,0.114
			c0.01,0,0.012,0,0.046-0.002v0.032L28.086,16.892z M28.078,16.208c0-0.106-0.096-0.2-0.204-0.2c-0.152,0-0.25,0.147-0.25,0.374
			c0,0.246,0.108,0.406,0.276,0.406c0.062,0,0.112-0.022,0.147-0.064c0.018-0.02,0.03-0.042,0.03-0.056V16.208z"/>
		<path d="M28.43,16.872v-0.03c0.138-0.008,0.158-0.026,0.158-0.178V16.21c0-0.094-0.016-0.126-0.066-0.126
			c-0.018,0-0.048,0-0.084,0.01v-0.032l0.31-0.11l0.008,0.008v0.702c0,0.148,0.016,0.17,0.148,0.18v0.03H28.43z M28.654,15.711
			c-0.056,0-0.1-0.044-0.1-0.102c0-0.056,0.046-0.102,0.102-0.102c0.058,0,0.102,0.046,0.102,0.102
			C28.758,15.666,28.714,15.711,28.654,15.711z"/>
		<path d="M29.914,16.8c-0.102,0.028-0.174,0.05-0.274,0.09l-0.01-0.006V16.72h-0.004c-0.098,0.134-0.212,0.172-0.286,0.172
			c-0.154,0-0.244-0.102-0.244-0.256v-0.502c0-0.1-0.028-0.128-0.124-0.134v-0.028h0.292v0.646c0,0.092,0.064,0.158,0.142,0.158
			c0.058,0,0.118-0.018,0.168-0.062c0.032-0.028,0.046-0.046,0.046-0.116v-0.461c0-0.106-0.028-0.122-0.148-0.13v-0.034h0.316v0.686
			c0,0.092,0.022,0.114,0.114,0.114h0.012V16.8z"/>
		<path d="M30.474,16.396c0.128,0.078,0.176,0.132,0.176,0.246c0,0.134-0.128,0.25-0.28,0.25c-0.042,0-0.1-0.002-0.146-0.018
			c-0.048-0.016-0.07-0.018-0.092-0.018c-0.024,0-0.036,0.004-0.048,0.024h-0.026v-0.313h0.032c0.042,0.194,0.116,0.282,0.254,0.282
			c0.102,0,0.166-0.066,0.166-0.148c0-0.062-0.04-0.114-0.106-0.15l-0.108-0.06c-0.166-0.092-0.24-0.188-0.24-0.29
			c0-0.158,0.112-0.246,0.276-0.246c0.048,0,0.092,0.002,0.134,0.022c0.022,0.01,0.042,0.016,0.056,0.016
			c0.008,0,0.016-0.002,0.032-0.02h0.022l0.01,0.272h-0.03c-0.046-0.18-0.106-0.246-0.226-0.246c-0.086,0-0.15,0.042-0.15,0.136
			c0,0.044,0.03,0.102,0.086,0.136L30.474,16.396z"/>
		<path d="M31.616,16.356c0.038-0.084,0.106-0.19,0.188-0.276c0.052-0.054,0.112-0.09,0.158-0.09c0.056,0,0.094,0.042,0.094,0.102
			c0,0.06-0.034,0.108-0.094,0.108c-0.036,0-0.052-0.022-0.07-0.052c-0.012-0.02-0.018-0.028-0.032-0.028
			c-0.036,0-0.092,0.066-0.164,0.188c-0.086,0.147-0.122,0.228-0.222,0.563h-0.152l0.162-0.583c0.028-0.104,0.032-0.122,0.032-0.164
			s-0.036-0.052-0.076-0.052c-0.016,0-0.032,0.002-0.062,0.006v-0.034l0.31-0.054l0.006,0.004l-0.11,0.432L31.616,16.356z"/>
		<path d="M32.182,16.232V16.1h1.007v0.132H32.182z M32.182,16.632V16.5h1.007v0.132H32.182z"/>
		<path d="M34.312,16.672c-0.15,0.182-0.198,0.22-0.278,0.22c-0.056,0-0.08-0.024-0.08-0.082c0-0.05,0.004-0.066,0.046-0.23
			c-0.15,0.226-0.266,0.314-0.406,0.314c-0.112,0-0.2-0.08-0.2-0.232c0-0.31,0.306-0.671,0.571-0.671
			c0.086,0,0.144,0.042,0.16,0.116l0.022-0.096l0.006-0.006l0.122-0.014l0.014,0.006c-0.004,0.018-0.006,0.022-0.012,0.042
			c-0.094,0.342-0.178,0.686-0.178,0.726c0,0.014,0.012,0.026,0.028,0.026c0.018,0,0.044-0.016,0.104-0.082l0.054-0.058
			L34.312,16.672z M33.978,16.034c-0.09,0-0.178,0.062-0.262,0.184c-0.084,0.126-0.154,0.304-0.154,0.43
			c0,0.11,0.048,0.147,0.12,0.147c0.1,0,0.194-0.11,0.254-0.196c0.094-0.136,0.154-0.308,0.154-0.45
			C34.089,16.08,34.047,16.034,33.978,16.034z"/>
		<path d="M34.522,16.894c-0.056,0-0.106-0.05-0.106-0.108c0-0.064,0.05-0.114,0.11-0.114c0.06,0,0.112,0.052,0.112,0.114
			C34.638,16.846,34.586,16.894,34.522,16.894z"/>
		<path d="M35.553,16.268h-0.032c-0.02-0.166-0.08-0.232-0.178-0.232c-0.07,0-0.118,0.04-0.118,0.114
			c0,0.054,0.03,0.112,0.108,0.204c0.1,0.116,0.136,0.194,0.136,0.271c0,0.166-0.122,0.268-0.288,0.268
			c-0.034,0-0.064-0.002-0.11-0.02c-0.038-0.016-0.066-0.018-0.088-0.018s-0.044,0.01-0.058,0.042h-0.032l0.04-0.318h0.032
			c0.028,0.19,0.096,0.272,0.2,0.272c0.094,0,0.152-0.056,0.152-0.154c0-0.064-0.034-0.132-0.112-0.23
			c-0.086-0.108-0.126-0.198-0.126-0.262c0-0.132,0.094-0.216,0.242-0.216c0.034,0,0.062,0.006,0.112,0.02
			c0.038,0.012,0.056,0.014,0.072,0.014c0.03,0,0.044-0.008,0.06-0.036h0.028L35.553,16.268z"/>
		<path d="M36.109,16.666c-0.11,0.168-0.174,0.228-0.274,0.228c-0.066,0-0.098-0.036-0.098-0.11c0-0.04,0.014-0.11,0.044-0.222
			l0.096-0.354c0.01-0.036,0.018-0.072,0.018-0.088c0-0.04-0.02-0.046-0.128-0.048V16.04c0.078-0.006,0.118-0.012,0.32-0.05
			l0.008,0.006l-0.188,0.686c-0.01,0.034-0.02,0.06-0.02,0.088c0,0.02,0.012,0.03,0.028,0.03c0.034,0,0.082-0.042,0.168-0.156
			L36.109,16.666z M36.069,15.777c-0.058,0-0.096-0.042-0.096-0.106c0-0.062,0.04-0.106,0.094-0.106c0.054,0,0.1,0.052,0.1,0.11
			C36.168,15.73,36.122,15.777,36.069,15.777z"/>
		<path d="M37.143,16.664c-0.136,0.186-0.186,0.226-0.28,0.226c-0.05,0-0.094-0.032-0.094-0.108c0-0.02,0.004-0.046,0.032-0.15
			l0.088-0.324c0.016-0.062,0.028-0.134,0.028-0.158c0-0.036-0.018-0.058-0.048-0.058c-0.08,0-0.17,0.098-0.296,0.284
			c-0.09,0.134-0.106,0.18-0.2,0.496h-0.15l0.192-0.7c0.002-0.01,0.004-0.022,0.004-0.034c0-0.04-0.028-0.052-0.13-0.054v-0.032
			c0.162-0.032,0.218-0.04,0.324-0.062l0.008,0.004l-0.134,0.436c0.2-0.32,0.333-0.439,0.461-0.439c0.086,0,0.13,0.05,0.13,0.122
			c0,0.036-0.008,0.078-0.02,0.12l-0.112,0.406c-0.02,0.072-0.028,0.106-0.028,0.122c0,0.018,0.008,0.036,0.032,0.036
			c0.028,0,0.064-0.032,0.122-0.106c0.014-0.016,0.028-0.034,0.042-0.052L37.143,16.664z"/>
		<path d="M38.024,15.99c0.092,0,0.146,0.002,0.202,0.024c0.098,0.038,0.16,0.11,0.16,0.252c0,0.231-0.218,0.625-0.612,0.627
			l-0.108,0.388H37.51l0.108-0.388c-0.086,0-0.164-0.006-0.214-0.022c-0.104-0.034-0.154-0.128-0.154-0.256
			c0-0.202,0.224-0.625,0.589-0.625h0.03l0.134-0.484h0.154L38.024,15.99z M37.857,16.032c-0.232,0-0.44,0.355-0.44,0.638
			c0,0.083,0.034,0.142,0.096,0.166c0.032,0.012,0.07,0.016,0.116,0.016L37.857,16.032z M37.786,16.852
			c0.05,0,0.082-0.004,0.138-0.032c0.164-0.082,0.294-0.436,0.294-0.602c0-0.09-0.038-0.14-0.09-0.172
			c-0.02-0.012-0.074-0.014-0.116-0.014L37.786,16.852z"/>
	</g>
	<g>
		<path d="M23.734,19.557v-0.03c0.126-0.01,0.154-0.044,0.154-0.154v-0.938c0-0.096-0.02-0.128-0.084-0.128
			c-0.016,0-0.042,0-0.074,0.004v-0.032c0.138-0.034,0.212-0.054,0.316-0.088l0.01,0.008v1.184c0,0.11,0.022,0.136,0.15,0.144v0.03
			H23.734z"/>
		<path d="M25.096,19.243c-0.078,0.218-0.218,0.334-0.418,0.334c-0.236,0-0.38-0.178-0.38-0.454c0-0.282,0.162-0.486,0.414-0.486
			c0.124,0,0.214,0.048,0.278,0.138c0.04,0.056,0.06,0.12,0.068,0.228h-0.616c0.01,0.152,0.02,0.23,0.092,0.326
			c0.056,0.074,0.13,0.11,0.222,0.11c0.134,0,0.21-0.062,0.308-0.209L25.096,19.243z M24.854,18.939
			c-0.022-0.162-0.064-0.23-0.196-0.23c-0.112,0-0.19,0.08-0.212,0.23H24.854z"/>
		<path d="M25.69,19.557l0.002-0.03c0.1-0.008,0.124-0.048,0.124-0.18v-0.397c0-0.142-0.048-0.202-0.146-0.202
			c-0.066,0-0.114,0.024-0.206,0.114v0.552c0,0.078,0.028,0.106,0.13,0.114v0.03h-0.421v-0.03c0.102-0.008,0.124-0.04,0.124-0.158
			v-0.486c0-0.098-0.014-0.13-0.07-0.13c-0.022,0-0.044,0.002-0.058,0.008v-0.034c0.11-0.032,0.176-0.054,0.274-0.09l0.016,0.006
			v0.156h0.002c0.104-0.118,0.196-0.162,0.288-0.162c0.152,0,0.236,0.11,0.236,0.308v0.442c0,0.108,0.024,0.13,0.122,0.14v0.03
			H25.69z"/>
		<path d="M26.909,18.781c0.028,0.064,0.038,0.11,0.038,0.168c0,0.104-0.032,0.178-0.104,0.231
			c-0.064,0.048-0.138,0.078-0.208,0.078c-0.012,0-0.04-0.002-0.076-0.006l-0.038-0.004c-0.054,0.016-0.12,0.086-0.12,0.125
			c0,0.032,0.048,0.048,0.156,0.054l0.258,0.012c0.148,0.006,0.242,0.09,0.242,0.214c0,0.08-0.038,0.146-0.12,0.209
			c-0.104,0.08-0.256,0.128-0.4,0.128c-0.192,0-0.346-0.088-0.346-0.194c0-0.074,0.052-0.14,0.196-0.244
			c-0.084-0.04-0.106-0.062-0.106-0.106c0-0.04,0.026-0.08,0.092-0.138c0.03-0.026,0.058-0.052,0.086-0.08
			c-0.134-0.066-0.186-0.142-0.186-0.268c0-0.182,0.148-0.326,0.334-0.326c0.052,0,0.106,0.01,0.16,0.03l0.044,0.016
			c0.04,0.014,0.07,0.02,0.11,0.02h0.154v0.078H26.909z M26.753,19.587c-0.098,0-0.256-0.012-0.324-0.026
			c-0.08,0.096-0.098,0.126-0.098,0.172c0,0.088,0.114,0.146,0.29,0.146c0.228,0,0.38-0.078,0.38-0.194
			C27.002,19.611,26.935,19.587,26.753,19.587z M26.44,18.887c0,0.192,0.082,0.322,0.206,0.322c0.09,0,0.148-0.07,0.148-0.18
			c0-0.082-0.022-0.172-0.06-0.242c-0.032-0.06-0.084-0.094-0.146-0.094c-0.092,0-0.148,0.07-0.148,0.188V18.887z"/>
		<path d="M27.693,19.425c-0.066,0.104-0.142,0.152-0.242,0.152c-0.116,0-0.176-0.086-0.176-0.254v-0.602H27.17
			c-0.006-0.004-0.008-0.008-0.008-0.014c0-0.012,0.012-0.024,0.034-0.038c0.052-0.03,0.118-0.104,0.194-0.214
			c0.012-0.018,0.028-0.036,0.04-0.056c0.01,0,0.014,0.006,0.014,0.026v0.232h0.202v0.064h-0.202v0.572
			c0,0.128,0.03,0.18,0.104,0.18c0.044,0,0.076-0.018,0.12-0.07L27.693,19.425z"/>
		<path d="M28.258,19.557v-0.03c0.116-0.012,0.136-0.036,0.136-0.174v-0.396c0-0.14-0.05-0.212-0.148-0.212
			c-0.08,0-0.14,0.034-0.224,0.126v0.481c0,0.138,0.02,0.162,0.136,0.174v0.03h-0.432v-0.03c0.116-0.016,0.128-0.034,0.128-0.174
			v-0.941c0-0.086-0.016-0.102-0.102-0.102c-0.008,0-0.018,0-0.024,0.002v-0.032l0.054-0.016c0.114-0.034,0.16-0.048,0.23-0.072
			l0.01,0.006v0.608c0.092-0.12,0.176-0.168,0.294-0.168c0.164,0,0.246,0.108,0.246,0.318v0.397c0,0.138,0.012,0.154,0.12,0.174
			v0.03H28.258z"/>
		<path d="M28.804,18.917v-0.132h1.177v0.132H28.804z M28.804,19.317v-0.132h1.177v0.132H28.804z"/>
		<path d="M31.029,19.357c-0.15,0.182-0.198,0.22-0.278,0.22c-0.056,0-0.08-0.024-0.08-0.082c0-0.05,0.004-0.066,0.046-0.23
			c-0.15,0.226-0.266,0.314-0.406,0.314c-0.112,0-0.2-0.08-0.2-0.232c0-0.31,0.306-0.671,0.571-0.671
			c0.086,0,0.144,0.042,0.16,0.116l0.022-0.096l0.006-0.006l0.122-0.014l0.014,0.006c-0.004,0.018-0.006,0.022-0.012,0.042
			c-0.094,0.342-0.178,0.686-0.178,0.726c0,0.014,0.012,0.026,0.028,0.026c0.018,0,0.044-0.016,0.104-0.082l0.054-0.058
			L31.029,19.357z M30.695,18.719c-0.09,0-0.178,0.062-0.262,0.184c-0.084,0.126-0.154,0.304-0.154,0.43
			c0,0.11,0.048,0.147,0.12,0.147c0.1,0,0.194-0.11,0.254-0.196c0.094-0.136,0.154-0.308,0.154-0.45
			C30.807,18.765,30.765,18.719,30.695,18.719z"/>
		<path d="M31.24,19.579c-0.056,0-0.106-0.05-0.106-0.108c0-0.064,0.05-0.114,0.11-0.114c0.06,0,0.112,0.052,0.112,0.114
			C31.356,19.531,31.303,19.579,31.24,19.579z"/>
		<path d="M32.271,18.953h-0.032c-0.02-0.166-0.08-0.232-0.178-0.232c-0.07,0-0.118,0.04-0.118,0.114
			c0,0.054,0.03,0.112,0.108,0.204c0.1,0.116,0.136,0.194,0.136,0.271c0,0.166-0.122,0.268-0.288,0.268
			c-0.034,0-0.064-0.002-0.11-0.02c-0.038-0.016-0.066-0.018-0.088-0.018s-0.044,0.01-0.058,0.042h-0.032l0.04-0.318h0.032
			c0.028,0.19,0.096,0.272,0.2,0.272c0.094,0,0.152-0.056,0.152-0.154c0-0.064-0.034-0.132-0.112-0.23
			c-0.086-0.108-0.126-0.198-0.126-0.262c0-0.132,0.094-0.216,0.242-0.216c0.034,0,0.062,0.006,0.112,0.02
			c0.038,0.012,0.056,0.014,0.072,0.014c0.03,0,0.044-0.008,0.06-0.036h0.028L32.271,18.953z"/>
		<path d="M32.828,19.351c-0.11,0.168-0.174,0.228-0.274,0.228c-0.066,0-0.098-0.036-0.098-0.11c0-0.04,0.014-0.11,0.044-0.222
			l0.096-0.354c0.01-0.036,0.018-0.072,0.018-0.088c0-0.04-0.02-0.046-0.128-0.048v-0.032c0.078-0.006,0.118-0.012,0.32-0.05
			l0.008,0.006l-0.188,0.686c-0.01,0.034-0.02,0.06-0.02,0.088c0,0.02,0.012,0.03,0.028,0.03c0.034,0,0.082-0.042,0.168-0.156
			L32.828,19.351z M32.788,18.462c-0.058,0-0.096-0.042-0.096-0.106c0-0.062,0.04-0.106,0.094-0.106c0.054,0,0.1,0.052,0.1,0.11
			C32.886,18.415,32.84,18.462,32.788,18.462z"/>
		<path d="M33.861,19.349c-0.136,0.186-0.186,0.226-0.28,0.226c-0.05,0-0.094-0.032-0.094-0.108c0-0.02,0.004-0.046,0.032-0.15
			l0.088-0.324c0.016-0.062,0.028-0.134,0.028-0.158c0-0.036-0.018-0.058-0.048-0.058c-0.08,0-0.17,0.098-0.296,0.284
			c-0.09,0.134-0.106,0.18-0.2,0.496h-0.15l0.192-0.7c0.002-0.01,0.004-0.022,0.004-0.034c0-0.04-0.028-0.052-0.13-0.054v-0.032
			c0.162-0.032,0.218-0.04,0.324-0.062l0.008,0.004l-0.134,0.436c0.2-0.32,0.333-0.439,0.461-0.439c0.086,0,0.13,0.05,0.13,0.122
			c0,0.036-0.008,0.078-0.02,0.12l-0.112,0.406c-0.02,0.072-0.028,0.106-0.028,0.122c0,0.018,0.008,0.036,0.032,0.036
			c0.028,0,0.064-0.032,0.122-0.106c0.014-0.016,0.028-0.034,0.042-0.052L33.861,19.349z"/>
		<path d="M34.741,18.675c0.092,0,0.146,0.002,0.202,0.024c0.098,0.038,0.16,0.11,0.16,0.252c0,0.231-0.218,0.625-0.612,0.627
			l-0.108,0.388h-0.156l0.108-0.388c-0.086,0-0.164-0.006-0.214-0.022c-0.104-0.034-0.154-0.128-0.154-0.256
			c0-0.202,0.224-0.625,0.589-0.625h0.03l0.134-0.484h0.154L34.741,18.675z M34.575,18.717c-0.232,0-0.44,0.355-0.44,0.638
			c0,0.083,0.034,0.142,0.096,0.166c0.032,0.012,0.07,0.016,0.116,0.016L34.575,18.717z M34.503,19.537
			c0.05,0,0.082-0.004,0.138-0.032c0.164-0.082,0.294-0.436,0.294-0.602c0-0.09-0.038-0.14-0.09-0.172
			c-0.02-0.012-0.074-0.014-0.116-0.014L34.503,19.537z"/>
		<path d="M35.328,19.579c-0.056,0-0.105-0.05-0.105-0.108c0-0.064,0.05-0.114,0.11-0.114s0.112,0.052,0.112,0.114
			C35.444,19.531,35.392,19.579,35.328,19.579z"/>
		<path d="M35.604,19.557l0.8-1.335h0.052l0.264,1.335H35.604z M36.316,18.506l-0.51,0.863h0.684L36.316,18.506z"/>
		<path d="M37.609,19.345c-0.13,0.172-0.27,0.234-0.41,0.234c-0.162,0-0.256-0.132-0.256-0.344c0-0.43,0.226-0.784,0.443-0.95
			c0.088-0.066,0.164-0.084,0.244-0.084c0.142,0,0.246,0.096,0.246,0.334C37.877,18.859,37.757,19.147,37.609,19.345z M37.17,18.927
			c-0.038,0.1-0.058,0.204-0.058,0.33c0,0.178,0.038,0.28,0.112,0.28c0.192,0,0.364-0.414,0.412-0.61H37.17z M37.649,18.863
			c0.034-0.116,0.06-0.26,0.06-0.41c0-0.128-0.036-0.21-0.106-0.21c-0.174,0-0.37,0.442-0.419,0.62H37.649z"/>
	</g>
	<g>
		<path d="M24.058,4.129c0.088-0.11,0.176-0.158,0.288-0.158c0.194,0,0.334,0.178,0.334,0.426c0,0.29-0.182,0.514-0.42,0.514
			c-0.084,0-0.13-0.02-0.202-0.086v0.314c0,0.126,0.026,0.148,0.176,0.15v0.036H23.75V5.291c0.118-0.012,0.14-0.034,0.14-0.138
			V4.217c0-0.094-0.014-0.114-0.082-0.114c-0.018,0-0.032,0-0.05,0.002V4.073c0.11-0.034,0.182-0.06,0.288-0.102l0.012,0.004V4.129z
			 M24.058,4.715c0,0.06,0.114,0.132,0.208,0.132c0.144,0,0.242-0.15,0.242-0.37c0-0.234-0.098-0.386-0.246-0.386
			c-0.092,0-0.204,0.072-0.204,0.132V4.715z"/>
		<path d="M24.773,4.891v-0.03c0.138-0.008,0.158-0.026,0.158-0.178V4.229c0-0.094-0.016-0.126-0.066-0.126
			c-0.018,0-0.048,0-0.084,0.01V4.081l0.31-0.11l0.008,0.008v0.702c0,0.148,0.016,0.17,0.148,0.18v0.03H24.773z M24.996,3.73
			c-0.056,0-0.1-0.044-0.1-0.102c0-0.056,0.046-0.102,0.102-0.102c0.058,0,0.102,0.046,0.102,0.102
			C25.1,3.685,25.056,3.73,24.996,3.73z"/>
		<path d="M26.144,4.577c-0.078,0.218-0.218,0.334-0.418,0.334c-0.236,0-0.38-0.178-0.38-0.454c0-0.282,0.162-0.486,0.414-0.486
			c0.124,0,0.214,0.048,0.278,0.138c0.04,0.056,0.06,0.12,0.068,0.228H25.49c0.01,0.152,0.02,0.23,0.092,0.326
			c0.056,0.074,0.13,0.11,0.222,0.11c0.134,0,0.21-0.062,0.308-0.209L26.144,4.577z M25.902,4.273
			c-0.022-0.162-0.064-0.23-0.196-0.23c-0.112,0-0.19,0.08-0.212,0.23H25.902z"/>
		<path d="M27.008,4.597c-0.064,0.124-0.104,0.182-0.164,0.23c-0.068,0.056-0.144,0.084-0.23,0.084c-0.222,0-0.38-0.186-0.38-0.444
			c0-0.166,0.06-0.304,0.168-0.394c0.08-0.066,0.176-0.102,0.27-0.102c0.168,0,0.308,0.094,0.308,0.206
			c0,0.046-0.042,0.083-0.094,0.083c-0.044,0-0.08-0.034-0.096-0.092l-0.012-0.044c-0.02-0.074-0.046-0.096-0.118-0.096
			c-0.162,0-0.271,0.14-0.271,0.348c0,0.23,0.125,0.39,0.31,0.39c0.114,0,0.186-0.048,0.282-0.188L27.008,4.597z"/>
		<path d="M27.92,4.577c-0.078,0.218-0.218,0.334-0.418,0.334c-0.236,0-0.38-0.178-0.38-0.454c0-0.282,0.162-0.486,0.414-0.486
			c0.124,0,0.214,0.048,0.278,0.138c0.04,0.056,0.06,0.12,0.068,0.228h-0.616c0.01,0.152,0.02,0.23,0.092,0.326
			c0.056,0.074,0.13,0.11,0.222,0.11c0.134,0,0.21-0.062,0.308-0.209L27.92,4.577z M27.678,4.273
			c-0.022-0.162-0.064-0.23-0.196-0.23c-0.112,0-0.19,0.08-0.212,0.23H27.678z"/>
		<path d="M28.951,4.911c-0.242,0-0.432-0.198-0.432-0.476s0.18-0.464,0.45-0.464c0.244,0,0.432,0.182,0.432,0.458
			C29.4,4.707,29.221,4.911,28.951,4.911z M29.121,4.127c-0.048-0.06-0.104-0.1-0.19-0.1c-0.138,0-0.232,0.118-0.232,0.317
			c0,0.158,0.032,0.302,0.106,0.41c0.044,0.064,0.108,0.1,0.18,0.1c0.148,0,0.236-0.14,0.236-0.372
			C29.221,4.347,29.185,4.209,29.121,4.127z"/>
		<path d="M29.667,3.991c0.002-0.16,0.018-0.232,0.07-0.322c0.052-0.09,0.156-0.144,0.282-0.144c0.12,0,0.208,0.052,0.208,0.124
			c0,0.046-0.036,0.082-0.084,0.082c-0.034,0-0.058-0.018-0.09-0.072c-0.036-0.058-0.062-0.078-0.106-0.078
			c-0.076,0-0.112,0.06-0.112,0.178v0.232h0.244v0.064h-0.244v0.627c0,0.15,0.022,0.172,0.186,0.178v0.03h-0.52v-0.03
			c0.144-0.008,0.166-0.032,0.166-0.178V4.055h-0.164V3.991H29.667z"/>
		<path d="M31.451,4.597c-0.064,0.124-0.104,0.182-0.164,0.23c-0.068,0.056-0.144,0.084-0.23,0.084c-0.222,0-0.38-0.186-0.38-0.444
			c0-0.166,0.06-0.304,0.168-0.394c0.08-0.066,0.176-0.102,0.27-0.102c0.168,0,0.308,0.094,0.308,0.206
			c0,0.046-0.042,0.083-0.094,0.083c-0.044,0-0.08-0.034-0.096-0.092l-0.012-0.044c-0.02-0.074-0.046-0.096-0.118-0.096
			c-0.162,0-0.271,0.14-0.271,0.348c0,0.23,0.125,0.39,0.31,0.39c0.114,0,0.186-0.048,0.282-0.188L31.451,4.597z"/>
		<path d="M31.547,4.891v-0.03c0.138-0.008,0.158-0.026,0.158-0.178V4.229c0-0.094-0.016-0.126-0.066-0.126
			c-0.018,0-0.048,0-0.084,0.01V4.081l0.31-0.11l0.008,0.008v0.702c0,0.148,0.016,0.17,0.148,0.18v0.03H31.547z M31.771,3.73
			c-0.056,0-0.1-0.044-0.1-0.102c0-0.056,0.046-0.102,0.102-0.102c0.058,0,0.102,0.046,0.102,0.102
			C31.875,3.685,31.831,3.73,31.771,3.73z"/>
		<path d="M32.391,4.159c0.1-0.144,0.156-0.188,0.24-0.188c0.068,0,0.11,0.04,0.11,0.106c0,0.056-0.03,0.09-0.078,0.09
			c-0.026,0-0.048-0.01-0.08-0.04c-0.022-0.02-0.04-0.03-0.052-0.03c-0.056,0-0.14,0.1-0.14,0.164v0.45
			c0,0.114,0.034,0.144,0.17,0.15v0.03h-0.48v-0.03c0.128-0.024,0.142-0.038,0.142-0.138v-0.5c0-0.088-0.018-0.12-0.068-0.12
			c-0.024,0-0.042,0.002-0.07,0.008V4.079c0.118-0.038,0.19-0.066,0.296-0.108l0.01,0.004V4.159z"/>
		<path d="M33.557,4.597c-0.064,0.124-0.104,0.182-0.164,0.23c-0.068,0.056-0.144,0.084-0.23,0.084c-0.222,0-0.38-0.186-0.38-0.444
			c0-0.166,0.06-0.304,0.168-0.394c0.08-0.066,0.176-0.102,0.27-0.102c0.168,0,0.308,0.094,0.308,0.206
			c0,0.046-0.042,0.083-0.094,0.083c-0.044,0-0.08-0.034-0.096-0.092l-0.012-0.044c-0.02-0.074-0.046-0.096-0.118-0.096
			c-0.162,0-0.271,0.14-0.271,0.348c0,0.23,0.125,0.39,0.31,0.39c0.114,0,0.186-0.048,0.282-0.188L33.557,4.597z"/>
		<path d="M33.664,4.891v-0.03c0.126-0.01,0.154-0.044,0.154-0.154V3.769c0-0.096-0.02-0.128-0.084-0.128
			c-0.016,0-0.042,0-0.074,0.004V3.613c0.138-0.034,0.212-0.054,0.316-0.088l0.01,0.008v1.184c0,0.11,0.022,0.136,0.15,0.144v0.03
			H33.664z"/>
		<path d="M35.025,4.577c-0.078,0.218-0.218,0.334-0.418,0.334c-0.236,0-0.38-0.178-0.38-0.454c0-0.282,0.162-0.486,0.414-0.486
			c0.124,0,0.214,0.048,0.278,0.138c0.04,0.056,0.06,0.12,0.068,0.228h-0.616c0.01,0.152,0.02,0.23,0.092,0.326
			c0.056,0.074,0.13,0.11,0.222,0.11c0.134,0,0.21-0.062,0.308-0.209L35.025,4.577z M34.783,4.273
			c-0.022-0.162-0.064-0.23-0.196-0.23c-0.112,0-0.19,0.08-0.212,0.23H34.783z"/>
		<path d="M24.23,6.711c-0.242,0-0.432-0.198-0.432-0.476s0.18-0.464,0.45-0.464c0.244,0,0.432,0.182,0.432,0.458
			C24.68,6.507,24.5,6.711,24.23,6.711z M24.4,5.927c-0.048-0.06-0.104-0.1-0.19-0.1c-0.138,0-0.232,0.118-0.232,0.317
			c0,0.158,0.032,0.302,0.106,0.41c0.044,0.064,0.108,0.1,0.18,0.1c0.148,0,0.236-0.14,0.236-0.372
			C24.5,6.147,24.464,6.009,24.4,5.927z"/>
		<path d="M24.946,5.791c0.002-0.16,0.018-0.232,0.07-0.322c0.052-0.09,0.156-0.144,0.282-0.144c0.12,0,0.208,0.052,0.208,0.124
			c0,0.046-0.036,0.082-0.084,0.082c-0.034,0-0.058-0.018-0.09-0.072c-0.036-0.058-0.062-0.078-0.106-0.078
			c-0.076,0-0.112,0.06-0.112,0.178v0.232h0.244v0.064h-0.244v0.627c0,0.15,0.022,0.172,0.186,0.178v0.03h-0.52v-0.03
			c0.144-0.008,0.166-0.032,0.166-0.178V5.855h-0.164V5.791H24.946z"/>
		<path d="M26.226,5.959c0.1-0.144,0.156-0.188,0.24-0.188c0.068,0,0.11,0.04,0.11,0.106c0,0.056-0.03,0.09-0.078,0.09
			c-0.026,0-0.048-0.01-0.08-0.04c-0.022-0.02-0.04-0.03-0.052-0.03c-0.056,0-0.14,0.1-0.14,0.164v0.45
			c0,0.114,0.034,0.144,0.17,0.15v0.03h-0.48v-0.03c0.128-0.024,0.142-0.038,0.142-0.138v-0.5c0-0.088-0.018-0.12-0.068-0.12
			c-0.024,0-0.042,0.002-0.07,0.008V5.879c0.118-0.038,0.19-0.066,0.296-0.108l0.01,0.004V5.959z"/>
		<path d="M27.452,6.614c-0.06,0.076-0.112,0.096-0.18,0.096c-0.074,0-0.118-0.04-0.128-0.146h-0.002
			c-0.106,0.12-0.204,0.146-0.29,0.146c-0.124,0-0.21-0.076-0.21-0.208c0-0.104,0.062-0.182,0.14-0.234
			c0.06-0.04,0.134-0.078,0.36-0.162V5.999c0-0.124-0.066-0.18-0.156-0.18c-0.08,0-0.14,0.044-0.14,0.098
			c0,0.036,0.012,0.042,0.012,0.084c0,0.038-0.04,0.082-0.092,0.082c-0.042,0-0.086-0.038-0.086-0.092
			c0-0.052,0.032-0.116,0.102-0.16c0.056-0.036,0.14-0.06,0.23-0.06c0.112,0,0.188,0.032,0.236,0.09s0.056,0.1,0.056,0.222v0.381
			c0,0.092,0.026,0.132,0.062,0.132c0.032,0,0.052-0.01,0.086-0.038V6.614z M27.142,6.155c-0.124,0.044-0.206,0.086-0.256,0.132
			c-0.048,0.044-0.068,0.092-0.068,0.154c0,0.106,0.06,0.154,0.138,0.154c0.04,0,0.082-0.01,0.116-0.032
			c0.058-0.04,0.07-0.068,0.07-0.126V6.155z"/>
		<path d="M28.144,6.711l-0.008-0.006V6.577c-0.068,0.094-0.144,0.134-0.256,0.134c-0.222,0-0.37-0.174-0.37-0.43
			c0-0.284,0.186-0.51,0.416-0.51c0.08,0,0.134,0.022,0.21,0.086V5.545c0-0.082-0.018-0.102-0.092-0.102
			c-0.016,0-0.028,0-0.044,0.002V5.413c0.128-0.034,0.198-0.054,0.294-0.088l0.01,0.004v1.133c0,0.092,0.016,0.114,0.088,0.114
			c0.01,0,0.012,0,0.046-0.002v0.032L28.144,6.711z M28.136,6.027c0-0.106-0.096-0.2-0.204-0.2c-0.152,0-0.25,0.147-0.25,0.374
			c0,0.246,0.108,0.406,0.276,0.406c0.062,0,0.112-0.022,0.147-0.064c0.018-0.02,0.03-0.042,0.03-0.056V6.027z"/>
		<path d="M28.488,6.691v-0.03c0.138-0.008,0.158-0.026,0.158-0.178V6.029c0-0.094-0.016-0.126-0.066-0.126
			c-0.018,0-0.048,0-0.084,0.01V5.881l0.31-0.11l0.008,0.008v0.702c0,0.148,0.016,0.17,0.148,0.18v0.03H28.488z M28.712,5.529
			c-0.056,0-0.1-0.044-0.1-0.102c0-0.056,0.046-0.102,0.102-0.102c0.058,0,0.102,0.046,0.102,0.102
			C28.816,5.485,28.773,5.529,28.712,5.529z"/>
		<path d="M29.972,6.619c-0.102,0.028-0.174,0.05-0.274,0.09l-0.01-0.006V6.539h-0.004c-0.098,0.134-0.212,0.172-0.286,0.172
			c-0.154,0-0.244-0.102-0.244-0.256V5.953c0-0.1-0.028-0.128-0.124-0.134V5.791h0.292v0.646c0,0.092,0.064,0.158,0.142,0.158
			c0.058,0,0.118-0.018,0.168-0.062c0.032-0.028,0.046-0.046,0.046-0.116V5.955c0-0.106-0.028-0.122-0.148-0.13V5.791h0.316v0.686
			c0,0.092,0.022,0.114,0.114,0.114h0.012V6.619z"/>
		<path d="M30.532,6.215c0.128,0.078,0.176,0.132,0.176,0.246c0,0.134-0.128,0.25-0.28,0.25c-0.042,0-0.1-0.002-0.146-0.018
			c-0.048-0.016-0.07-0.018-0.092-0.018c-0.024,0-0.036,0.004-0.048,0.024h-0.026V6.385h0.032c0.042,0.194,0.116,0.282,0.254,0.282
			c0.102,0,0.166-0.066,0.166-0.148c0-0.062-0.04-0.114-0.106-0.15l-0.108-0.06c-0.166-0.092-0.24-0.188-0.24-0.29
			c0-0.158,0.112-0.246,0.276-0.246c0.048,0,0.092,0.002,0.134,0.022c0.022,0.01,0.042,0.016,0.056,0.016
			c0.008,0,0.016-0.002,0.032-0.02h0.022l0.01,0.272h-0.03c-0.046-0.18-0.106-0.246-0.226-0.246c-0.086,0-0.15,0.042-0.15,0.136
			c0,0.044,0.03,0.102,0.086,0.136L30.532,6.215z"/>
		<path d="M32.242,6.491c-0.15,0.182-0.198,0.22-0.278,0.22c-0.056,0-0.08-0.024-0.08-0.082c0-0.05,0.004-0.066,0.046-0.23
			c-0.15,0.226-0.266,0.314-0.406,0.314c-0.112,0-0.2-0.08-0.2-0.232c0-0.31,0.306-0.671,0.571-0.671
			c0.086,0,0.144,0.042,0.16,0.116l0.022-0.096l0.006-0.006l0.122-0.014l0.014,0.006c-0.004,0.018-0.006,0.022-0.012,0.042
			c-0.094,0.342-0.178,0.686-0.178,0.726c0,0.014,0.012,0.026,0.028,0.026c0.018,0,0.044-0.016,0.104-0.082l0.054-0.058
			L32.242,6.491z M31.908,5.853c-0.09,0-0.178,0.062-0.262,0.184c-0.084,0.126-0.154,0.304-0.154,0.43
			c0,0.11,0.048,0.147,0.12,0.147c0.1,0,0.194-0.11,0.254-0.196c0.094-0.136,0.154-0.308,0.154-0.45
			C32.02,5.899,31.978,5.853,31.908,5.853z"/>
	</g>
	<g>
		<path d="M23.734,9.374v-0.03c0.126-0.01,0.154-0.044,0.154-0.154V8.252c0-0.096-0.02-0.128-0.084-0.128
			c-0.016,0-0.042,0-0.074,0.004V8.096c0.138-0.034,0.212-0.054,0.316-0.088l0.01,0.008V9.2c0,0.11,0.022,0.136,0.15,0.144v0.03
			H23.734z"/>
		<path d="M25.096,9.06c-0.078,0.218-0.218,0.334-0.418,0.334c-0.236,0-0.38-0.178-0.38-0.454c0-0.282,0.162-0.486,0.414-0.486
			c0.124,0,0.214,0.048,0.278,0.138c0.04,0.056,0.06,0.12,0.068,0.228h-0.616c0.01,0.152,0.02,0.23,0.092,0.326
			c0.056,0.074,0.13,0.11,0.222,0.11c0.134,0,0.21-0.062,0.308-0.209L25.096,9.06z M24.854,8.756
			c-0.022-0.162-0.064-0.23-0.196-0.23c-0.112,0-0.19,0.08-0.212,0.23H24.854z"/>
		<path d="M25.69,9.374l0.002-0.03c0.1-0.008,0.124-0.048,0.124-0.18V8.766c0-0.142-0.048-0.202-0.146-0.202
			c-0.066,0-0.114,0.024-0.206,0.114V9.23c0,0.078,0.028,0.106,0.13,0.114v0.03h-0.421v-0.03c0.102-0.008,0.124-0.04,0.124-0.158
			V8.7c0-0.098-0.014-0.13-0.07-0.13c-0.022,0-0.044,0.002-0.058,0.008V8.544c0.11-0.032,0.176-0.054,0.274-0.09l0.016,0.006v0.156
			h0.002c0.104-0.118,0.196-0.162,0.288-0.162c0.152,0,0.236,0.11,0.236,0.308v0.442c0,0.108,0.024,0.13,0.122,0.14v0.03H25.69z"/>
		<path d="M26.909,8.598c0.028,0.064,0.038,0.11,0.038,0.168c0,0.104-0.032,0.178-0.104,0.231c-0.064,0.048-0.138,0.078-0.208,0.078
			c-0.012,0-0.04-0.002-0.076-0.006l-0.038-0.004c-0.054,0.016-0.12,0.086-0.12,0.125c0,0.032,0.048,0.048,0.156,0.054l0.258,0.012
			c0.148,0.006,0.242,0.09,0.242,0.214c0,0.08-0.038,0.146-0.12,0.209c-0.104,0.08-0.256,0.128-0.4,0.128
			c-0.192,0-0.346-0.088-0.346-0.194c0-0.074,0.052-0.14,0.196-0.244c-0.084-0.04-0.106-0.062-0.106-0.106
			c0-0.04,0.026-0.08,0.092-0.138c0.03-0.026,0.058-0.052,0.086-0.08c-0.134-0.066-0.186-0.142-0.186-0.268
			c0-0.182,0.148-0.326,0.334-0.326c0.052,0,0.106,0.01,0.16,0.03L26.812,8.5c0.04,0.014,0.07,0.02,0.11,0.02h0.154v0.078H26.909z
			 M26.753,9.403c-0.098,0-0.256-0.012-0.324-0.026c-0.08,0.096-0.098,0.126-0.098,0.172c0,0.088,0.114,0.146,0.29,0.146
			c0.228,0,0.38-0.078,0.38-0.194C27.002,9.428,26.935,9.403,26.753,9.403z M26.44,8.704c0,0.192,0.082,0.322,0.206,0.322
			c0.09,0,0.148-0.07,0.148-0.18c0-0.082-0.022-0.172-0.06-0.242c-0.032-0.06-0.084-0.094-0.146-0.094
			c-0.092,0-0.148,0.07-0.148,0.188V8.704z"/>
		<path d="M27.693,9.242c-0.066,0.104-0.142,0.152-0.242,0.152c-0.116,0-0.176-0.086-0.176-0.254V8.538H27.17
			c-0.006-0.004-0.008-0.008-0.008-0.014c0-0.012,0.012-0.024,0.034-0.038c0.052-0.03,0.118-0.104,0.194-0.214
			c0.012-0.018,0.028-0.036,0.04-0.056c0.01,0,0.014,0.006,0.014,0.026v0.232h0.202v0.064h-0.202V9.11c0,0.128,0.03,0.18,0.104,0.18
			c0.044,0,0.076-0.018,0.12-0.07L27.693,9.242z"/>
		<path d="M28.258,9.374v-0.03c0.116-0.012,0.136-0.036,0.136-0.174V8.774c0-0.14-0.05-0.212-0.148-0.212
			c-0.08,0-0.14,0.034-0.224,0.126V9.17c0,0.138,0.02,0.162,0.136,0.174v0.03h-0.432v-0.03c0.116-0.016,0.128-0.034,0.128-0.174
			V8.228c0-0.086-0.016-0.102-0.102-0.102c-0.008,0-0.018,0-0.024,0.002V8.096l0.054-0.016c0.114-0.034,0.16-0.048,0.23-0.072
			l0.01,0.006v0.608c0.092-0.12,0.176-0.168,0.294-0.168c0.164,0,0.246,0.108,0.246,0.318V9.17c0,0.138,0.012,0.154,0.12,0.174v0.03
			H28.258z"/>
		<path d="M28.804,8.734V8.602h1.177v0.132H28.804z M28.804,9.134V9.002h1.177v0.132H28.804z"/>
		<path d="M31.029,9.174c-0.15,0.182-0.198,0.22-0.278,0.22c-0.056,0-0.08-0.024-0.08-0.082c0-0.05,0.004-0.066,0.046-0.23
			c-0.15,0.226-0.266,0.314-0.406,0.314c-0.112,0-0.2-0.08-0.2-0.232c0-0.31,0.306-0.671,0.571-0.671
			c0.086,0,0.144,0.042,0.16,0.116l0.022-0.096l0.006-0.006l0.122-0.014l0.014,0.006c-0.004,0.018-0.006,0.022-0.012,0.042
			c-0.094,0.342-0.178,0.686-0.178,0.726c0,0.014,0.012,0.026,0.028,0.026c0.018,0,0.044-0.016,0.104-0.082l0.054-0.058
			L31.029,9.174z M30.695,8.536c-0.09,0-0.178,0.062-0.262,0.184c-0.084,0.126-0.154,0.304-0.154,0.43
			c0,0.11,0.048,0.147,0.12,0.147c0.1,0,0.194-0.11,0.254-0.196c0.094-0.136,0.154-0.308,0.154-0.45
			C30.807,8.582,30.765,8.536,30.695,8.536z"/>
		<path d="M31.24,9.396c-0.056,0-0.106-0.05-0.106-0.108c0-0.064,0.05-0.114,0.11-0.114c0.06,0,0.112,0.052,0.112,0.114
			C31.356,9.348,31.303,9.396,31.24,9.396z"/>
		<path d="M31.516,9.374l0.799-1.335h0.052l0.264,1.335H31.516z M32.227,8.322l-0.51,0.863h0.684L32.227,8.322z"/>
		<path d="M33.629,8.492c0.092,0,0.146,0.002,0.202,0.024c0.098,0.038,0.16,0.11,0.16,0.252c0,0.231-0.218,0.625-0.612,0.627
			l-0.108,0.388h-0.156l0.108-0.388c-0.086,0-0.164-0.006-0.214-0.022c-0.104-0.034-0.154-0.128-0.154-0.256
			c0-0.202,0.224-0.625,0.589-0.625h0.03l0.134-0.484h0.154L33.629,8.492z M33.463,8.534c-0.232,0-0.44,0.355-0.44,0.638
			c0,0.083,0.034,0.142,0.096,0.166c0.032,0.012,0.07,0.016,0.116,0.016L33.463,8.534z M33.392,9.354
			c0.05,0,0.082-0.004,0.138-0.032c0.164-0.082,0.294-0.436,0.294-0.602c0-0.09-0.038-0.14-0.09-0.172
			c-0.02-0.012-0.074-0.014-0.116-0.014L33.392,9.354z"/>
	</g>
</g>
<g id="delta_phi">
	<line fill="none" stroke="#00A300" stroke-width="0.1" stroke-miterlimit="10" x1="7.84" y1="21.387" x2="15.302" y2="7.888"/>
	<line fill="none" stroke="#00A300" stroke-width="0.1" stroke-miterlimit="10" x1="7.84" y1="21.387" x2="15.965" y2="13.104"/>
	<polygon opacity="0.03" fill="#00A300" points="15.965,13.104 7.84,21.387 15.302,7.888 	"/>
	<polygon opacity="0.03" fill="#00A300" points="21.014,12.559 7.84,21.387 19.951,7.644 	"/>
</g>
<g id="delta_theta">
	<line fill="none" stroke="#FF00FF" stroke-width="0.1" stroke-miterlimit="10" x1="15.302" y1="7.888" x2="7.839" y2="4.307"/>
	<line fill="none" stroke="#FF00FF" stroke-width="0.1" stroke-miterlimit="10" x1="19.951" y1="7.644" x2="7.839" y2="4.307"/>
	<polyline opacity="0.03" fill="#FF00FF" points="7.839,4.307 15.302,7.888 19.951,7.644 7.839,4.307 	"/>
	<polyline display="none" opacity="0.03" fill="#FF00FF" points="7.822,9.055 15.965,13.104 21.026,12.632 7.73,8.906 	"/>
	<polygon opacity="0.03" fill="#FF00FF" points="15.965,13.104 7.843,8.938 7.839,4.307 15.302,7.888 	"/>
	<polygon display="none" opacity="0.1" fill="#FF00FF" points="21.026,12.632 7.843,8.938 7.839,4.307 19.951,7.644 	"/>
	<path fill="none" stroke="#FF00FF" stroke-width="0.1" stroke-miterlimit="10" d="M13.15,5.771
		c-0.306,0.207-0.675,0.395-1.095,0.56"/>
</g>
<g id="Layer_7">
	<g>
		<g>
			<path fill="none" stroke="#000000" stroke-width="0.1" stroke-miterlimit="10" d="M19.078,13.899
				c0.93,1.282,3.515,1.874,5.161,1.874"/>
			<g>
				<polygon points="18.906,14.316 19.154,13.999 19.555,13.958 18.807,13.368 				"/>
			</g>
		</g>
	</g>
	<g>
		<g>
			<path fill="none" stroke="#000000" stroke-width="0.1" stroke-miterlimit="10" d="M21.334,9.193
				c1.063-1.89,1.427-3.69,3.421-3.69"/>
			<g>
				<polygon points="21.771,9.114 21.371,9.074 21.121,8.759 21.026,9.707 				"/>
			</g>
		</g>
	</g>
</g>
<g id="Layer_8">
	<path opacity="0.2" fill="none" stroke="#0000FF" stroke-width="0.1" stroke-miterlimit="10" d="M7.84-6.852
		c7.664,0,13.878,12.691,13.878,28.347S15.505,49.841,7.84,49.841"/>
	<path opacity="0.2" fill="none" stroke="#0000FF" stroke-width="0.1" stroke-miterlimit="10" d="M7.84-6.852
		c4.697,0,8.504,12.691,8.504,28.347S12.537,49.841,7.84,49.841"/>
	<path opacity="0.2" fill="none" stroke="#0000FF" stroke-width="0.1" stroke-miterlimit="10" d="M31.17,5.39
		c0,1.456-10.445,2.636-23.33,2.636s-23.33-1.18-23.33-2.636"/>
	<path opacity="0.2" fill="none" stroke="#0000FF" stroke-width="0.1" stroke-miterlimit="10" d="M32.99,8.406
		c0,2.741-11.26,4.963-25.15,4.963s-25.15-2.222-25.15-4.963"/>
	<g>
		<path d="M16.575,11.228l1.05-1.753h0.068l0.346,1.753H16.575z M17.509,9.848l-0.669,1.134h0.897L17.509,9.848z"/>
		<path d="M19.494,10.003l-0.047-0.008c0-0.268-0.058-0.428-0.312-0.428c-0.181,0-0.294,0.097-0.294,0.262
			c0,0.128,0.021,0.17,0.26,0.41c0.239,0.241,0.297,0.354,0.297,0.525c0,0.299-0.229,0.512-0.53,0.512
			c-0.082,0-0.152-0.019-0.273-0.061c-0.071-0.026-0.095-0.031-0.124-0.031c-0.052,0-0.094,0.023-0.113,0.084H18.31l0.089-0.588
			l0.053,0.005c-0.005,0.024-0.005,0.042-0.005,0.061c0,0.257,0.157,0.438,0.378,0.438c0.202,0,0.344-0.137,0.344-0.336
			c0-0.113-0.037-0.192-0.158-0.323l-0.102-0.11c-0.037-0.04-0.068-0.076-0.103-0.11c-0.157-0.168-0.197-0.252-0.197-0.394
			c0-0.276,0.215-0.431,0.467-0.431c0.082,0,0.168,0.013,0.223,0.037c0.055,0.021,0.086,0.029,0.121,0.029
			c0.058,0,0.082-0.013,0.118-0.068h0.06L19.494,10.003z"/>
	</g>
	<line fill="none" stroke="#000000" stroke-width="0.1" stroke-miterlimit="10" x1="7.84" y1="-6.852" x2="7.84" y2="49.841"/>
	<g>
	</g>
</g>
</svg>
