<?xml version="1.0" encoding="utf-8"?>
<!-- Generator: Adobe Illustrator 25.4.1, SVG Export Plug-In . SVG Version: 6.00 Build 0)  -->
<svg version="1.1" xmlns="http://www.w3.org/2000/svg" xmlns:xlink="http://www.w3.org/1999/xlink" x="0px" y="0px"
	 viewBox="0 0 92.813 76.362" enable-background="new 0 0 92.813 76.362" xml:space="preserve">
<g id="Graph_paper" opacity="0.5">
	<g id="Clipped_grid">
		<defs>
			<rect id="SVGID_1_" x="-2.137" y="-2.577" width="97.233" height="83.205"/>
		</defs>
		<clipPath id="SVGID_00000112629791439785102960000007532495197381859747_">
			<use xlink:href="#SVGID_1_"  overflow="visible"/>
		</clipPath>
		<g id="Grid" opacity="0.25" clip-path="url(#SVGID_00000112629791439785102960000007532495197381859747_)">
			<g id="Horizontal_1_mm">
				
					<line fill="none" stroke="#00ABEB" stroke-width="0.15" stroke-miterlimit="10" x1="-76.61" y1="-35.592" x2="150.23" y2="-35.592"/>
				
					<line fill="none" stroke="#00ABEB" stroke-width="0.15" stroke-miterlimit="10" x1="-76.61" y1="-38.427" x2="150.23" y2="-38.427"/>
				
					<line fill="none" stroke="#00ABEB" stroke-width="0.15" stroke-miterlimit="10" x1="-76.61" y1="131.652" x2="150.23" y2="131.652"/>
				
					<line fill="none" stroke="#00ABEB" stroke-width="0.15" stroke-miterlimit="10" x1="-76.61" y1="128.817" x2="150.23" y2="128.817"/>
				
					<line fill="none" stroke="#00ABEB" stroke-width="0.15" stroke-miterlimit="10" x1="-76.61" y1="125.983" x2="150.23" y2="125.983"/>
				
					<line fill="none" stroke="#00ABEB" stroke-width="0.15" stroke-miterlimit="10" x1="-76.61" y1="123.148" x2="150.23" y2="123.148"/>
				
					<line fill="none" stroke="#00ABEB" stroke-width="0.15" stroke-miterlimit="10" x1="-76.61" y1="120.313" x2="150.23" y2="120.313"/>
				
					<line fill="none" stroke="#00ABEB" stroke-width="0.15" stroke-miterlimit="10" x1="-76.61" y1="117.479" x2="150.23" y2="117.479"/>
				
					<line fill="none" stroke="#00ABEB" stroke-width="0.15" stroke-miterlimit="10" x1="-76.61" y1="114.644" x2="150.23" y2="114.644"/>
				
					<line fill="none" stroke="#00ABEB" stroke-width="0.15" stroke-miterlimit="10" x1="-76.61" y1="111.81" x2="150.23" y2="111.81"/>
				
					<line fill="none" stroke="#00ABEB" stroke-width="0.15" stroke-miterlimit="10" x1="-76.61" y1="108.975" x2="150.23" y2="108.975"/>
				
					<line fill="none" stroke="#00ABEB" stroke-width="0.15" stroke-miterlimit="10" x1="-76.61" y1="106.14" x2="150.23" y2="106.14"/>
				
					<line fill="none" stroke="#00ABEB" stroke-width="0.15" stroke-miterlimit="10" x1="-76.61" y1="103.306" x2="150.23" y2="103.306"/>
				
					<line fill="none" stroke="#00ABEB" stroke-width="0.15" stroke-miterlimit="10" x1="-76.61" y1="100.471" x2="150.23" y2="100.471"/>
				
					<line fill="none" stroke="#00ABEB" stroke-width="0.15" stroke-miterlimit="10" x1="-76.61" y1="97.636" x2="150.23" y2="97.636"/>
				
					<line fill="none" stroke="#00ABEB" stroke-width="0.15" stroke-miterlimit="10" x1="-76.61" y1="94.802" x2="150.23" y2="94.802"/>
				
					<line fill="none" stroke="#00ABEB" stroke-width="0.15" stroke-miterlimit="10" x1="-76.61" y1="91.967" x2="150.23" y2="91.967"/>
				
					<line fill="none" stroke="#00ABEB" stroke-width="0.15" stroke-miterlimit="10" x1="-76.61" y1="89.132" x2="150.23" y2="89.132"/>
				
					<line fill="none" stroke="#00ABEB" stroke-width="0.15" stroke-miterlimit="10" x1="-76.61" y1="86.298" x2="150.23" y2="86.298"/>
				
					<line fill="none" stroke="#00ABEB" stroke-width="0.15" stroke-miterlimit="10" x1="-76.61" y1="83.463" x2="150.23" y2="83.463"/>
				
					<line fill="none" stroke="#00ABEB" stroke-width="0.15" stroke-miterlimit="10" x1="-76.61" y1="80.628" x2="150.23" y2="80.628"/>
				
					<line fill="none" stroke="#00ABEB" stroke-width="0.15" stroke-miterlimit="10" x1="-76.61" y1="77.794" x2="150.23" y2="77.794"/>
				
					<line fill="none" stroke="#00ABEB" stroke-width="0.15" stroke-miterlimit="10" x1="-76.61" y1="74.959" x2="150.23" y2="74.959"/>
				
					<line fill="none" stroke="#00ABEB" stroke-width="0.15" stroke-miterlimit="10" x1="-76.61" y1="72.124" x2="150.23" y2="72.124"/>
				
					<line fill="none" stroke="#00ABEB" stroke-width="0.15" stroke-miterlimit="10" x1="-76.61" y1="69.29" x2="150.23" y2="69.29"/>
				
					<line fill="none" stroke="#00ABEB" stroke-width="0.15" stroke-miterlimit="10" x1="-76.61" y1="66.455" x2="150.23" y2="66.455"/>
				
					<line fill="none" stroke="#00ABEB" stroke-width="0.15" stroke-miterlimit="10" x1="-76.61" y1="63.621" x2="150.23" y2="63.621"/>
				
					<line fill="none" stroke="#00ABEB" stroke-width="0.15" stroke-miterlimit="10" x1="-76.61" y1="60.786" x2="150.23" y2="60.786"/>
				
					<line fill="none" stroke="#00ABEB" stroke-width="0.15" stroke-miterlimit="10" x1="-76.61" y1="57.951" x2="150.23" y2="57.951"/>
				
					<line fill="none" stroke="#00ABEB" stroke-width="0.15" stroke-miterlimit="10" x1="-76.61" y1="55.117" x2="150.23" y2="55.117"/>
				
					<line fill="none" stroke="#00ABEB" stroke-width="0.15" stroke-miterlimit="10" x1="-76.61" y1="52.282" x2="150.23" y2="52.282"/>
				
					<line fill="none" stroke="#00ABEB" stroke-width="0.15" stroke-miterlimit="10" x1="-76.61" y1="49.447" x2="150.23" y2="49.447"/>
				
					<line fill="none" stroke="#00ABEB" stroke-width="0.15" stroke-miterlimit="10" x1="-76.61" y1="46.613" x2="150.23" y2="46.613"/>
				
					<line fill="none" stroke="#00ABEB" stroke-width="0.15" stroke-miterlimit="10" x1="-76.61" y1="43.778" x2="150.23" y2="43.778"/>
				
					<line fill="none" stroke="#00ABEB" stroke-width="0.15" stroke-miterlimit="10" x1="-76.61" y1="40.943" x2="150.23" y2="40.943"/>
				
					<line fill="none" stroke="#00ABEB" stroke-width="0.15" stroke-miterlimit="10" x1="-76.61" y1="38.109" x2="150.23" y2="38.109"/>
				
					<line fill="none" stroke="#00ABEB" stroke-width="0.15" stroke-miterlimit="10" x1="-76.61" y1="35.274" x2="150.23" y2="35.274"/>
				
					<line fill="none" stroke="#00ABEB" stroke-width="0.15" stroke-miterlimit="10" x1="-76.61" y1="32.439" x2="150.23" y2="32.439"/>
				
					<line fill="none" stroke="#00ABEB" stroke-width="0.15" stroke-miterlimit="10" x1="-76.61" y1="29.605" x2="150.23" y2="29.605"/>
				
					<line fill="none" stroke="#00ABEB" stroke-width="0.15" stroke-miterlimit="10" x1="-76.61" y1="26.77" x2="150.23" y2="26.77"/>
				
					<line fill="none" stroke="#00ABEB" stroke-width="0.15" stroke-miterlimit="10" x1="-76.61" y1="23.935" x2="150.23" y2="23.935"/>
				
					<line fill="none" stroke="#00ABEB" stroke-width="0.15" stroke-miterlimit="10" x1="-76.61" y1="21.101" x2="150.23" y2="21.101"/>
				
					<line fill="none" stroke="#00ABEB" stroke-width="0.15" stroke-miterlimit="10" x1="-76.61" y1="18.266" x2="150.23" y2="18.266"/>
				
					<line fill="none" stroke="#00ABEB" stroke-width="0.15" stroke-miterlimit="10" x1="-76.61" y1="15.432" x2="150.23" y2="15.432"/>
				
					<line fill="none" stroke="#00ABEB" stroke-width="0.15" stroke-miterlimit="10" x1="-76.61" y1="12.597" x2="150.23" y2="12.597"/>
				
					<line fill="none" stroke="#00ABEB" stroke-width="0.15" stroke-miterlimit="10" x1="-76.61" y1="9.762" x2="150.23" y2="9.762"/>
				
					<line fill="none" stroke="#00ABEB" stroke-width="0.15" stroke-miterlimit="10" x1="-76.61" y1="6.928" x2="150.23" y2="6.928"/>
				
					<line fill="none" stroke="#00ABEB" stroke-width="0.15" stroke-miterlimit="10" x1="-76.61" y1="4.093" x2="150.23" y2="4.093"/>
				
					<line fill="none" stroke="#00ABEB" stroke-width="0.15" stroke-miterlimit="10" x1="-76.61" y1="1.258" x2="150.23" y2="1.258"/>
				
					<line fill="none" stroke="#00ABEB" stroke-width="0.15" stroke-miterlimit="10" x1="-76.61" y1="-1.576" x2="150.23" y2="-1.576"/>
				
					<line fill="none" stroke="#00ABEB" stroke-width="0.15" stroke-miterlimit="10" x1="-76.61" y1="-4.411" x2="150.23" y2="-4.411"/>
				
					<line fill="none" stroke="#00ABEB" stroke-width="0.15" stroke-miterlimit="10" x1="-76.61" y1="-7.246" x2="150.23" y2="-7.246"/>
				
					<line fill="none" stroke="#00ABEB" stroke-width="0.15" stroke-miterlimit="10" x1="-76.61" y1="-10.08" x2="150.23" y2="-10.08"/>
				
					<line fill="none" stroke="#00ABEB" stroke-width="0.15" stroke-miterlimit="10" x1="-76.61" y1="-12.915" x2="150.23" y2="-12.915"/>
				
					<line fill="none" stroke="#00ABEB" stroke-width="0.15" stroke-miterlimit="10" x1="-76.61" y1="-15.75" x2="150.23" y2="-15.75"/>
				
					<line fill="none" stroke="#00ABEB" stroke-width="0.15" stroke-miterlimit="10" x1="-76.61" y1="-18.584" x2="150.23" y2="-18.584"/>
				
					<line fill="none" stroke="#00ABEB" stroke-width="0.15" stroke-miterlimit="10" x1="-76.61" y1="-21.419" x2="150.23" y2="-21.419"/>
				
					<line fill="none" stroke="#00ABEB" stroke-width="0.15" stroke-miterlimit="10" x1="-76.61" y1="-24.253" x2="150.23" y2="-24.253"/>
				
					<line fill="none" stroke="#00ABEB" stroke-width="0.15" stroke-miterlimit="10" x1="-76.61" y1="-27.088" x2="150.23" y2="-27.088"/>
				
					<line fill="none" stroke="#00ABEB" stroke-width="0.15" stroke-miterlimit="10" x1="-76.61" y1="-29.923" x2="150.23" y2="-29.923"/>
				
					<line fill="none" stroke="#00ABEB" stroke-width="0.15" stroke-miterlimit="10" x1="-76.61" y1="-32.757" x2="150.23" y2="-32.757"/>
			</g>
			<g id="Vertical_1_mm">
				<g>
					
						<line fill="none" stroke="#00ABEB" stroke-width="0.15" stroke-miterlimit="10" x1="-76.535" y1="131.638" x2="-76.535" y2="-38.502"/>
				</g>
				
					<line fill="none" stroke="#00ABEB" stroke-width="0.15" stroke-miterlimit="10" x1="-73.701" y1="131.638" x2="-73.701" y2="-38.502"/>
				
					<line fill="none" stroke="#00ABEB" stroke-width="0.15" stroke-miterlimit="10" x1="-70.866" y1="131.638" x2="-70.866" y2="-38.502"/>
				
					<line fill="none" stroke="#00ABEB" stroke-width="0.15" stroke-miterlimit="10" x1="-68.031" y1="131.638" x2="-68.031" y2="-38.502"/>
				
					<line fill="none" stroke="#00ABEB" stroke-width="0.15" stroke-miterlimit="10" x1="-65.197" y1="131.638" x2="-65.197" y2="-38.502"/>
				
					<line fill="none" stroke="#00ABEB" stroke-width="0.15" stroke-miterlimit="10" x1="-62.362" y1="131.638" x2="-62.362" y2="-38.502"/>
				
					<line fill="none" stroke="#00ABEB" stroke-width="0.15" stroke-miterlimit="10" x1="-59.527" y1="131.638" x2="-59.527" y2="-38.502"/>
				
					<line fill="none" stroke="#00ABEB" stroke-width="0.15" stroke-miterlimit="10" x1="-56.693" y1="131.638" x2="-56.693" y2="-38.502"/>
				
					<line fill="none" stroke="#00ABEB" stroke-width="0.15" stroke-miterlimit="10" x1="-53.858" y1="131.638" x2="-53.858" y2="-38.502"/>
				
					<line fill="none" stroke="#00ABEB" stroke-width="0.15" stroke-miterlimit="10" x1="-51.024" y1="131.638" x2="-51.024" y2="-38.502"/>
				
					<line fill="none" stroke="#00ABEB" stroke-width="0.15" stroke-miterlimit="10" x1="-48.189" y1="131.638" x2="-48.189" y2="-38.502"/>
				
					<line fill="none" stroke="#00ABEB" stroke-width="0.15" stroke-miterlimit="10" x1="-45.354" y1="131.638" x2="-45.354" y2="-38.502"/>
				
					<line fill="none" stroke="#00ABEB" stroke-width="0.15" stroke-miterlimit="10" x1="-42.52" y1="131.638" x2="-42.52" y2="-38.502"/>
				
					<line fill="none" stroke="#00ABEB" stroke-width="0.15" stroke-miterlimit="10" x1="-39.685" y1="131.638" x2="-39.685" y2="-38.502"/>
				
					<line fill="none" stroke="#00ABEB" stroke-width="0.15" stroke-miterlimit="10" x1="-36.85" y1="131.638" x2="-36.85" y2="-38.502"/>
				
					<line fill="none" stroke="#00ABEB" stroke-width="0.15" stroke-miterlimit="10" x1="-34.016" y1="131.638" x2="-34.016" y2="-38.502"/>
				
					<line fill="none" stroke="#00ABEB" stroke-width="0.15" stroke-miterlimit="10" x1="-31.181" y1="131.638" x2="-31.181" y2="-38.502"/>
				
					<line fill="none" stroke="#00ABEB" stroke-width="0.15" stroke-miterlimit="10" x1="-28.346" y1="131.638" x2="-28.346" y2="-38.502"/>
				
					<line fill="none" stroke="#00ABEB" stroke-width="0.15" stroke-miterlimit="10" x1="-25.512" y1="131.638" x2="-25.512" y2="-38.502"/>
				
					<line fill="none" stroke="#00ABEB" stroke-width="0.15" stroke-miterlimit="10" x1="-22.677" y1="131.638" x2="-22.677" y2="-38.502"/>
				
					<line fill="none" stroke="#00ABEB" stroke-width="0.15" stroke-miterlimit="10" x1="-19.842" y1="131.638" x2="-19.842" y2="-38.502"/>
				
					<line fill="none" stroke="#00ABEB" stroke-width="0.15" stroke-miterlimit="10" x1="-17.008" y1="131.638" x2="-17.008" y2="-38.502"/>
				
					<line fill="none" stroke="#00ABEB" stroke-width="0.15" stroke-miterlimit="10" x1="-14.173" y1="131.638" x2="-14.173" y2="-38.502"/>
				
					<line fill="none" stroke="#00ABEB" stroke-width="0.15" stroke-miterlimit="10" x1="-11.338" y1="131.638" x2="-11.338" y2="-38.502"/>
				
					<line fill="none" stroke="#00ABEB" stroke-width="0.15" stroke-miterlimit="10" x1="-8.504" y1="131.638" x2="-8.504" y2="-38.502"/>
				
					<line fill="none" stroke="#00ABEB" stroke-width="0.15" stroke-miterlimit="10" x1="-5.669" y1="131.638" x2="-5.669" y2="-38.502"/>
				
					<line fill="none" stroke="#00ABEB" stroke-width="0.15" stroke-miterlimit="10" x1="-2.835" y1="131.638" x2="-2.835" y2="-38.502"/>
				<line fill="none" stroke="#00ABEB" stroke-width="0.15" stroke-miterlimit="10" x1="0" y1="131.638" x2="0" y2="-38.502"/>
				
					<line fill="none" stroke="#00ABEB" stroke-width="0.15" stroke-miterlimit="10" x1="2.835" y1="131.638" x2="2.835" y2="-38.502"/>
				
					<line fill="none" stroke="#00ABEB" stroke-width="0.15" stroke-miterlimit="10" x1="5.669" y1="131.638" x2="5.669" y2="-38.502"/>
				
					<line fill="none" stroke="#00ABEB" stroke-width="0.15" stroke-miterlimit="10" x1="8.504" y1="131.638" x2="8.504" y2="-38.502"/>
				
					<line fill="none" stroke="#00ABEB" stroke-width="0.15" stroke-miterlimit="10" x1="11.339" y1="131.638" x2="11.339" y2="-38.502"/>
				
					<line fill="none" stroke="#00ABEB" stroke-width="0.15" stroke-miterlimit="10" x1="14.173" y1="131.638" x2="14.173" y2="-38.502"/>
				
					<line fill="none" stroke="#00ABEB" stroke-width="0.15" stroke-miterlimit="10" x1="17.008" y1="131.638" x2="17.008" y2="-38.502"/>
				
					<line fill="none" stroke="#00ABEB" stroke-width="0.15" stroke-miterlimit="10" x1="19.843" y1="131.638" x2="19.843" y2="-38.502"/>
				
					<line fill="none" stroke="#00ABEB" stroke-width="0.15" stroke-miterlimit="10" x1="22.677" y1="131.638" x2="22.677" y2="-38.502"/>
				
					<line fill="none" stroke="#00ABEB" stroke-width="0.15" stroke-miterlimit="10" x1="25.512" y1="131.638" x2="25.512" y2="-38.502"/>
				
					<line fill="none" stroke="#00ABEB" stroke-width="0.15" stroke-miterlimit="10" x1="28.347" y1="131.638" x2="28.347" y2="-38.502"/>
				
					<line fill="none" stroke="#00ABEB" stroke-width="0.15" stroke-miterlimit="10" x1="31.181" y1="131.638" x2="31.181" y2="-38.502"/>
				
					<line fill="none" stroke="#00ABEB" stroke-width="0.15" stroke-miterlimit="10" x1="34.016" y1="131.638" x2="34.016" y2="-38.502"/>
				
					<line fill="none" stroke="#00ABEB" stroke-width="0.15" stroke-miterlimit="10" x1="36.85" y1="131.638" x2="36.85" y2="-38.502"/>
				
					<line fill="none" stroke="#00ABEB" stroke-width="0.15" stroke-miterlimit="10" x1="39.685" y1="131.638" x2="39.685" y2="-38.502"/>
				
					<line fill="none" stroke="#00ABEB" stroke-width="0.15" stroke-miterlimit="10" x1="42.52" y1="131.638" x2="42.52" y2="-38.502"/>
				
					<line fill="none" stroke="#00ABEB" stroke-width="0.15" stroke-miterlimit="10" x1="45.354" y1="131.638" x2="45.354" y2="-38.502"/>
				
					<line fill="none" stroke="#00ABEB" stroke-width="0.15" stroke-miterlimit="10" x1="48.189" y1="131.638" x2="48.189" y2="-38.502"/>
				
					<line fill="none" stroke="#00ABEB" stroke-width="0.15" stroke-miterlimit="10" x1="51.024" y1="131.638" x2="51.024" y2="-38.502"/>
				
					<line fill="none" stroke="#00ABEB" stroke-width="0.15" stroke-miterlimit="10" x1="53.858" y1="131.638" x2="53.858" y2="-38.502"/>
				
					<line fill="none" stroke="#00ABEB" stroke-width="0.15" stroke-miterlimit="10" x1="56.693" y1="131.638" x2="56.693" y2="-38.502"/>
				
					<line fill="none" stroke="#00ABEB" stroke-width="0.15" stroke-miterlimit="10" x1="59.528" y1="131.638" x2="59.528" y2="-38.502"/>
				
					<line fill="none" stroke="#00ABEB" stroke-width="0.15" stroke-miterlimit="10" x1="62.362" y1="131.638" x2="62.362" y2="-38.502"/>
				
					<line fill="none" stroke="#00ABEB" stroke-width="0.15" stroke-miterlimit="10" x1="65.197" y1="131.638" x2="65.197" y2="-38.502"/>
				
					<line fill="none" stroke="#00ABEB" stroke-width="0.15" stroke-miterlimit="10" x1="68.032" y1="131.638" x2="68.032" y2="-38.502"/>
				
					<line fill="none" stroke="#00ABEB" stroke-width="0.15" stroke-miterlimit="10" x1="70.866" y1="131.638" x2="70.866" y2="-38.502"/>
				
					<line fill="none" stroke="#00ABEB" stroke-width="0.15" stroke-miterlimit="10" x1="73.701" y1="131.638" x2="73.701" y2="-38.502"/>
				
					<line fill="none" stroke="#00ABEB" stroke-width="0.15" stroke-miterlimit="10" x1="76.536" y1="131.638" x2="76.536" y2="-38.502"/>
				
					<line fill="none" stroke="#00ABEB" stroke-width="0.15" stroke-miterlimit="10" x1="79.37" y1="131.638" x2="79.37" y2="-38.502"/>
				
					<line fill="none" stroke="#00ABEB" stroke-width="0.15" stroke-miterlimit="10" x1="82.205" y1="131.638" x2="82.205" y2="-38.502"/>
				
					<line fill="none" stroke="#00ABEB" stroke-width="0.15" stroke-miterlimit="10" x1="85.039" y1="131.638" x2="85.039" y2="-38.502"/>
				
					<line fill="none" stroke="#00ABEB" stroke-width="0.15" stroke-miterlimit="10" x1="87.874" y1="131.638" x2="87.874" y2="-38.502"/>
				
					<line fill="none" stroke="#00ABEB" stroke-width="0.15" stroke-miterlimit="10" x1="90.709" y1="131.638" x2="90.709" y2="-38.502"/>
				
					<line fill="none" stroke="#00ABEB" stroke-width="0.15" stroke-miterlimit="10" x1="93.543" y1="131.638" x2="93.543" y2="-38.502"/>
				
					<line fill="none" stroke="#00ABEB" stroke-width="0.15" stroke-miterlimit="10" x1="96.378" y1="131.638" x2="96.378" y2="-38.502"/>
				
					<line fill="none" stroke="#00ABEB" stroke-width="0.15" stroke-miterlimit="10" x1="99.213" y1="131.638" x2="99.213" y2="-38.502"/>
				
					<line fill="none" stroke="#00ABEB" stroke-width="0.15" stroke-miterlimit="10" x1="102.047" y1="131.638" x2="102.047" y2="-38.502"/>
				
					<line fill="none" stroke="#00ABEB" stroke-width="0.15" stroke-miterlimit="10" x1="104.882" y1="131.638" x2="104.882" y2="-38.502"/>
				
					<line fill="none" stroke="#00ABEB" stroke-width="0.15" stroke-miterlimit="10" x1="107.717" y1="131.638" x2="107.717" y2="-38.502"/>
				
					<line fill="none" stroke="#00ABEB" stroke-width="0.15" stroke-miterlimit="10" x1="110.551" y1="131.638" x2="110.551" y2="-38.502"/>
				
					<line fill="none" stroke="#00ABEB" stroke-width="0.15" stroke-miterlimit="10" x1="113.386" y1="131.638" x2="113.386" y2="-38.502"/>
				
					<line fill="none" stroke="#00ABEB" stroke-width="0.15" stroke-miterlimit="10" x1="116.221" y1="131.638" x2="116.221" y2="-38.502"/>
				
					<line fill="none" stroke="#00ABEB" stroke-width="0.15" stroke-miterlimit="10" x1="119.055" y1="131.638" x2="119.055" y2="-38.502"/>
				
					<line fill="none" stroke="#00ABEB" stroke-width="0.15" stroke-miterlimit="10" x1="121.89" y1="131.638" x2="121.89" y2="-38.502"/>
				
					<line fill="none" stroke="#00ABEB" stroke-width="0.15" stroke-miterlimit="10" x1="124.725" y1="131.638" x2="124.725" y2="-38.502"/>
				
					<line fill="none" stroke="#00ABEB" stroke-width="0.15" stroke-miterlimit="10" x1="127.559" y1="131.638" x2="127.559" y2="-38.502"/>
				
					<line fill="none" stroke="#00ABEB" stroke-width="0.15" stroke-miterlimit="10" x1="130.394" y1="131.638" x2="130.394" y2="-38.502"/>
				
					<line fill="none" stroke="#00ABEB" stroke-width="0.15" stroke-miterlimit="10" x1="133.228" y1="131.638" x2="133.228" y2="-38.502"/>
				
					<line fill="none" stroke="#00ABEB" stroke-width="0.15" stroke-miterlimit="10" x1="136.063" y1="131.638" x2="136.063" y2="-38.502"/>
				
					<line fill="none" stroke="#00ABEB" stroke-width="0.15" stroke-miterlimit="10" x1="138.898" y1="131.638" x2="138.898" y2="-38.502"/>
				
					<line fill="none" stroke="#00ABEB" stroke-width="0.15" stroke-miterlimit="10" x1="141.732" y1="131.638" x2="141.732" y2="-38.502"/>
				
					<line fill="none" stroke="#00ABEB" stroke-width="0.15" stroke-miterlimit="10" x1="144.567" y1="131.638" x2="144.567" y2="-38.502"/>
				
					<line fill="none" stroke="#00ABEB" stroke-width="0.15" stroke-miterlimit="10" x1="147.402" y1="131.638" x2="147.402" y2="-38.502"/>
				
					<line fill="none" stroke="#00ABEB" stroke-width="0.15" stroke-miterlimit="10" x1="150.236" y1="131.638" x2="150.236" y2="-38.502"/>
			</g>
			<g id="Horizontal_5_mm_1_">
				
					<line fill="none" stroke="#00ABEB" stroke-width="0.3" stroke-miterlimit="10" x1="-76.885" y1="131.652" x2="150.23" y2="131.652"/>
				
					<line fill="none" stroke="#00ABEB" stroke-width="0.3" stroke-miterlimit="10" x1="-76.885" y1="117.479" x2="150.23" y2="117.479"/>
				
					<line fill="none" stroke="#00ABEB" stroke-width="0.3" stroke-miterlimit="10" x1="-76.885" y1="103.306" x2="150.23" y2="103.306"/>
				
					<line fill="none" stroke="#00ABEB" stroke-width="0.3" stroke-miterlimit="10" x1="-76.885" y1="89.132" x2="150.23" y2="89.132"/>
				
					<line fill="none" stroke="#00ABEB" stroke-width="0.3" stroke-miterlimit="10" x1="-76.885" y1="74.959" x2="150.23" y2="74.959"/>
				
					<line fill="none" stroke="#00ABEB" stroke-width="0.3" stroke-miterlimit="10" x1="-76.885" y1="60.786" x2="150.23" y2="60.786"/>
				
					<line fill="none" stroke="#00ABEB" stroke-width="0.3" stroke-miterlimit="10" x1="-76.885" y1="46.613" x2="150.23" y2="46.613"/>
				
					<line fill="none" stroke="#00ABEB" stroke-width="0.3" stroke-miterlimit="10" x1="-76.885" y1="32.439" x2="150.23" y2="32.439"/>
				
					<line fill="none" stroke="#00ABEB" stroke-width="0.3" stroke-miterlimit="10" x1="-76.885" y1="18.266" x2="150.23" y2="18.266"/>
				
					<line fill="none" stroke="#00ABEB" stroke-width="0.3" stroke-miterlimit="10" x1="-76.885" y1="4.093" x2="150.23" y2="4.093"/>
				
					<line fill="none" stroke="#00ABEB" stroke-width="0.3" stroke-miterlimit="10" x1="-76.885" y1="-10.08" x2="150.23" y2="-10.08"/>
			</g>
			<g id="Vertical_5_mm">
				
					<line fill="none" stroke="#00ABEB" stroke-width="0.3" stroke-miterlimit="10" x1="-76.535" y1="131.638" x2="-76.535" y2="-38.777"/>
				
					<line fill="none" stroke="#00ABEB" stroke-width="0.3" stroke-miterlimit="10" x1="-62.362" y1="131.638" x2="-62.362" y2="-38.777"/>
				
					<line fill="none" stroke="#00ABEB" stroke-width="0.3" stroke-miterlimit="10" x1="-48.189" y1="131.638" x2="-48.189" y2="-38.777"/>
				
					<line fill="none" stroke="#00ABEB" stroke-width="0.3" stroke-miterlimit="10" x1="-34.016" y1="131.638" x2="-34.016" y2="-38.777"/>
				
					<line fill="none" stroke="#00ABEB" stroke-width="0.3" stroke-miterlimit="10" x1="-19.842" y1="131.638" x2="-19.842" y2="-38.777"/>
				
					<line fill="none" stroke="#00ABEB" stroke-width="0.3" stroke-miterlimit="10" x1="-5.669" y1="131.638" x2="-5.669" y2="-38.777"/>
				
					<line fill="none" stroke="#00ABEB" stroke-width="0.3" stroke-miterlimit="10" x1="8.504" y1="131.638" x2="8.504" y2="-38.777"/>
				
					<line fill="none" stroke="#00ABEB" stroke-width="0.3" stroke-miterlimit="10" x1="22.677" y1="131.638" x2="22.677" y2="-38.777"/>
				
					<line fill="none" stroke="#00ABEB" stroke-width="0.3" stroke-miterlimit="10" x1="36.85" y1="131.638" x2="36.85" y2="-38.777"/>
				
					<line fill="none" stroke="#00ABEB" stroke-width="0.3" stroke-miterlimit="10" x1="51.024" y1="131.638" x2="51.024" y2="-38.777"/>
				
					<line fill="none" stroke="#00ABEB" stroke-width="0.3" stroke-miterlimit="10" x1="65.197" y1="131.638" x2="65.197" y2="-38.777"/>
				
					<line fill="none" stroke="#00ABEB" stroke-width="0.3" stroke-miterlimit="10" x1="79.37" y1="131.638" x2="79.37" y2="-38.777"/>
				
					<line fill="none" stroke="#00ABEB" stroke-width="0.3" stroke-miterlimit="10" x1="93.543" y1="131.638" x2="93.543" y2="-38.777"/>
				
					<line fill="none" stroke="#00ABEB" stroke-width="0.3" stroke-miterlimit="10" x1="107.717" y1="131.638" x2="107.717" y2="-38.777"/>
				
					<line fill="none" stroke="#00ABEB" stroke-width="0.3" stroke-miterlimit="10" x1="121.89" y1="131.638" x2="121.89" y2="-38.777"/>
				
					<line fill="none" stroke="#00ABEB" stroke-width="0.3" stroke-miterlimit="10" x1="136.063" y1="131.638" x2="136.063" y2="-38.777"/>
				
					<line fill="none" stroke="#00ABEB" stroke-width="0.3" stroke-miterlimit="10" x1="150.236" y1="131.638" x2="150.236" y2="-38.777"/>
			</g>
			<g id="Horizontal_10_mm">
				
					<line id="_x31_9_1_" fill="none" stroke="#00ABEB" stroke-width="0.7" stroke-miterlimit="10" x1="-76.885" y1="131.652" x2="150.23" y2="131.652"/>
				
					<line id="_x32_0" fill="none" stroke="#00ABEB" stroke-width="0.7" stroke-miterlimit="10" x1="-76.885" y1="103.306" x2="150.23" y2="103.306"/>
				
					<line id="_x32_1" fill="none" stroke="#00ABEB" stroke-width="0.7" stroke-miterlimit="10" x1="-76.885" y1="74.959" x2="150.23" y2="74.959"/>
				
					<line id="_x32_2" fill="none" stroke="#00ABEB" stroke-width="0.7" stroke-miterlimit="10" x1="-76.885" y1="46.613" x2="150.23" y2="46.613"/>
				
					<line id="_x32_3" fill="none" stroke="#00ABEB" stroke-width="0.7" stroke-miterlimit="10" x1="-76.885" y1="18.266" x2="150.23" y2="18.266"/>
				
					<line id="_x32_4" fill="none" stroke="#00ABEB" stroke-width="0.7" stroke-miterlimit="10" x1="-76.885" y1="-10.08" x2="150.23" y2="-10.08"/>
				
					<line id="_x32_5" fill="none" stroke="#00ABEB" stroke-width="0.7" stroke-miterlimit="10" x1="-76.885" y1="-38.427" x2="150.23" y2="-38.427"/>
			</g>
			<g id="Vertical_10_mm">
				
					<line id="_x30_" fill="none" stroke="#00ABEB" stroke-width="0.7" stroke-miterlimit="10" x1="-76.535" y1="131.638" x2="-76.535" y2="-38.777"/>
				
					<line id="_x31_" fill="none" stroke="#00ABEB" stroke-width="0.7" stroke-miterlimit="10" x1="-48.189" y1="131.638" x2="-48.189" y2="-38.777"/>
				
					<line id="_x32_" fill="none" stroke="#00ABEB" stroke-width="0.7" stroke-miterlimit="10" x1="-19.842" y1="131.638" x2="-19.842" y2="-38.777"/>
				
					<line id="_x33_" fill="none" stroke="#00ABEB" stroke-width="0.7" stroke-miterlimit="10" x1="8.504" y1="131.638" x2="8.504" y2="-38.777"/>
				
					<line id="_x34_" fill="none" stroke="#00ABEB" stroke-width="0.7" stroke-miterlimit="10" x1="36.85" y1="131.638" x2="36.85" y2="-38.777"/>
				
					<line id="_x35_" fill="none" stroke="#00ABEB" stroke-width="0.7" stroke-miterlimit="10" x1="65.197" y1="131.638" x2="65.197" y2="-38.777"/>
				
					<line id="_x36_" fill="none" stroke="#00ABEB" stroke-width="0.7" stroke-miterlimit="10" x1="93.543" y1="131.638" x2="93.543" y2="-38.777"/>
				
					<line id="_x37_" fill="none" stroke="#00ABEB" stroke-width="0.7" stroke-miterlimit="10" x1="121.89" y1="131.638" x2="121.89" y2="-38.777"/>
				
					<line id="_x38_" fill="none" stroke="#00ABEB" stroke-width="0.7" stroke-miterlimit="10" x1="150.236" y1="131.638" x2="150.236" y2="-38.777"/>
			</g>
		</g>
	</g>
</g>
<g id="Layer_2">
	<g>
		<g>
			<line fill="none" stroke="#000000" stroke-width="0.2" stroke-miterlimit="10" x1="8.504" y1="91.967" x2="8.504" y2="2.298"/>
			<g>
				<polygon points="9.244,2.86 8.504,2.545 7.763,2.86 8.504,1.104 				"/>
			</g>
		</g>
	</g>
	<g>
		<g>
			
				<line fill="none" stroke="#000000" stroke-width="0.2" stroke-miterlimit="10" x1="-24.235" y1="46.599" x2="53.209" y2="46.599"/>
			<g>
				<polygon points="52.647,47.339 52.962,46.599 52.647,45.858 54.403,46.599 				"/>
			</g>
		</g>
	</g>
	<g>
		<path d="M52.755,49.1c0.114-0.251,0.318-0.569,0.563-0.827c0.156-0.162,0.336-0.27,0.474-0.27c0.168,0,0.282,0.126,0.282,0.306
			c0,0.18-0.102,0.324-0.282,0.324c-0.108,0-0.156-0.066-0.21-0.156c-0.036-0.06-0.054-0.084-0.096-0.084
			c-0.108,0-0.276,0.198-0.492,0.564c-0.258,0.444-0.366,0.684-0.666,1.691h-0.456l0.485-1.751c0.084-0.312,0.096-0.366,0.096-0.492
			s-0.108-0.156-0.228-0.156c-0.048,0-0.096,0.006-0.186,0.018v-0.102l0.929-0.162l0.018,0.012l-0.33,1.295L52.755,49.1z"/>
	</g>
	<g>
		<path d="M4.399,4.395c0.348,0.078,0.479,0.144,0.719,0.498c0.156,0.228,0.27,0.3,0.42,0.3c0.096,0,0.162-0.036,0.162-0.09
			c0-0.024-0.012-0.054-0.03-0.09c-0.036-0.072-0.048-0.12-0.048-0.167C5.628,4.743,5.725,4.641,5.82,4.641
			c0.126,0,0.21,0.09,0.21,0.222c0,0.24-0.222,0.456-0.558,0.456c-0.174,0-0.378-0.078-0.678-0.264
			C4.513,4.881,4.321,4.803,4.166,4.803c-0.096,0-0.174,0.03-0.27,0.108L3.841,4.857l1.859-2.231H4.885
			c-0.312,0-0.426,0.054-0.545,0.36L4.243,2.962l0.192-0.695h1.697v0.066L4.399,4.395z"/>
	</g>
	<g>
		<path d="M39.647,48.915h-0.012l-0.678,0.366l-0.102-0.401l0.852-0.456h0.45v3.898h-0.51V48.915z"/>
	</g>
	<circle opacity="0.05" fill="#0000FF" cx="8.498" cy="46.599" r="28.347"/>
	<circle fill="none" stroke="#0000FF" stroke-width="0.3" stroke-miterlimit="10" cx="8.498" cy="46.599" r="28.346"/>
	<g>
		<path d="M6.299,13.705H6.288L5.61,14.07l-0.102-0.401l0.852-0.456h0.45v3.898h-0.51V13.705z"/>
	</g>
	<line fill="none" stroke="#FF0000" stroke-width="0.3" stroke-miterlimit="10" x1="-24.176" y1="26.341" x2="58.761" y2="26.711"/>
	<g>
		<g>
			
				<line fill="none" stroke="#FF00FF" stroke-width="0.1" stroke-miterlimit="10" x1="28.563" y1="26.576" x2="28.209" y2="26.929"/>
			
				<line fill="none" stroke="#FF00FF" stroke-width="0.1" stroke-miterlimit="10" stroke-dasharray="1.0128,1.0128" x1="27.492" y1="27.645" x2="9.21" y2="45.888"/>
			<line fill="none" stroke="#FF00FF" stroke-width="0.1" stroke-miterlimit="10" x1="8.852" y1="46.245" x2="8.498" y2="46.599"/>
		</g>
	</g>
	<g>
		<path fill="#FF0000" d="M42.263,21.501c0.018,0,0.03,0.018,0.03,0.042c0,0.03-0.012,0.09-0.036,0.174l-0.857,3.112
			c-0.042,0.15-0.108,0.384-0.108,0.444c0,0.138,0.132,0.192,0.396,0.192h0.126v0.09H40.14v-0.09
			c0.474-0.036,0.605-0.102,0.672-0.33l0.815-2.926c0.03-0.114,0.048-0.174,0.048-0.216c0-0.114-0.078-0.186-0.21-0.186h-0.018
			c-0.108,0-0.24,0.006-0.354,0.012v-0.09l0.138-0.03c0.528-0.114,0.552-0.102,1.014-0.198H42.263z"/>
		<path fill="#FF0000" d="M42.888,25.663h-0.438l2.267-4.102h0.438L42.888,25.663z"/>
		<path fill="#FF0000" d="M46.601,26.124h-0.384l-0.954-2.567l-0.45,0.192L44.7,23.468l0.828-0.348l0.737,2.075
			c0.048,0.126,0.09,0.27,0.114,0.384h0.012c0.018-0.102,0.048-0.258,0.078-0.39l1.115-4.594h0.396L46.601,26.124z"/>
		<path fill="#FF0000" d="M48.36,22.472c0.144-0.354,0.282-0.558,0.492-0.719c0.234-0.18,0.492-0.252,0.768-0.252
			c0.576,0,0.971,0.444,0.971,1.013c0,0.402-0.186,0.678-0.894,1.403l-1.127,1.151v0.03h1.085c0.354,0,0.474-0.09,0.618-0.39
			l0.102,0.042l-0.3,0.804h-2.123v-0.102l1.259-1.343c0.396-0.419,0.666-0.797,0.81-1.121c0.036-0.078,0.054-0.192,0.054-0.324
			c0-0.414-0.24-0.726-0.714-0.726c-0.359,0-0.666,0.174-0.875,0.576L48.36,22.472z"/>
	</g>
	<g>
		<g>
			<line fill="none" stroke="#FF00FF" stroke-width="0.1" stroke-miterlimit="10" x1="8.498" y1="18.252" x2="8.498" y2="18.752"/>
			
				<line fill="none" stroke="#FF00FF" stroke-width="0.1" stroke-miterlimit="10" stroke-dasharray="1.0128,1.0128" x1="8.498" y1="19.765" x2="8.498" y2="45.592"/>
			<line fill="none" stroke="#FF00FF" stroke-width="0.1" stroke-miterlimit="10" x1="8.498" y1="46.099" x2="8.498" y2="46.599"/>
		</g>
	</g>
	<g>
		<path fill="#FF00FF" d="M14.899,31.505c0.276,0,0.438,0.006,0.606,0.072c0.294,0.114,0.479,0.33,0.479,0.756
			c0,0.695-0.653,1.877-1.835,1.883l-0.324,1.164h-0.468l0.324-1.164c-0.258,0-0.492-0.018-0.642-0.066
			c-0.312-0.102-0.461-0.384-0.461-0.768c0-0.605,0.671-1.877,1.769-1.877h0.09l0.402-1.451h0.461L14.899,31.505z M14.401,31.631
			c-0.696,0-1.319,1.067-1.319,1.913c0,0.251,0.102,0.426,0.288,0.498c0.096,0.036,0.21,0.048,0.348,0.048L14.401,31.631z
			 M14.186,34.09c0.15,0,0.246-0.012,0.414-0.096c0.492-0.246,0.882-1.308,0.882-1.805c0-0.27-0.114-0.42-0.27-0.516
			c-0.06-0.036-0.222-0.042-0.348-0.042L14.186,34.09z"/>
	</g>
	<g>
		<g>
			<path fill="none" stroke="#FF00FF" stroke-width="0.1" stroke-miterlimit="10" d="M8.685,34.672c3.024,0,5.784,1.125,7.886,2.98"
				/>
			<g>
				<polygon fill="#FF00FF" points="16.106,37.752 16.47,37.579 16.598,37.198 17.009,38.057 				"/>
			</g>
		</g>
	</g>
</g>
<g id="Layer_3">
	
		<path opacity="0.3" fill="#009400" stroke="#009400" stroke-width="0.5" stroke-linecap="round" stroke-linejoin="round" stroke-miterlimit="10" d="
		M-11.684,26.4l40.162,0h0C17.388,15.349-0.633,15.306-11.684,26.395L-11.684,26.4z"/>
	<path fill="none" stroke="#009400" stroke-width="0.5" stroke-linecap="round" stroke-linejoin="round" stroke-miterlimit="10" d="
		M-11.684,26.4l40.162,0h0C17.388,15.349-0.633,15.306-11.684,26.395L-11.684,26.4z"/>
	<g>
		<g>
			<path fill="none" stroke="#009400" stroke-width="0.2" stroke-miterlimit="10" d="M15.107,21.235
				c0.864-4.159,5.829-10.354,11.146-10.354"/>
			<g>
				<polygon fill="#009400" points="15.943,20.779 15.167,20.992 14.474,20.582 14.975,22.42 				"/>
			</g>
		</g>
	</g>
	<g>
		<path fill="#009400" d="M18.275,7.684c0.324-0.486,0.666-0.678,1.025-0.678c0.444,0,0.69,0.282,0.69,0.75
			c0,0.99-0.906,1.961-1.781,1.961c-0.138,0-0.264-0.024-0.414-0.102c-0.102,0.42-0.24,0.912-0.24,0.996
			c0,0.132,0.09,0.174,0.372,0.174v0.096H16.71v-0.096c0.258-0.006,0.336-0.096,0.408-0.378l0.689-2.59
			c0.066-0.24,0.096-0.396,0.096-0.426c0-0.144-0.168-0.162-0.264-0.162h-0.132l-0.012-0.09l0.936-0.132
			c0.018,0,0.03,0.012,0.03,0.024c0,0-0.006,0.03-0.012,0.054L18.275,7.684z M19.079,7.264c-0.318,0-0.671,0.324-0.81,0.684
			c-0.174,0.45-0.39,1.224-0.39,1.427c0,0.132,0.12,0.228,0.288,0.228c0.318,0,0.606-0.198,0.87-0.57
			c0.288-0.402,0.414-0.839,0.414-1.259C19.451,7.432,19.349,7.264,19.079,7.264z"/>
		<path fill="#009400" d="M20.939,9.093c-0.03,0.108-0.048,0.21-0.048,0.258c0,0.072,0.042,0.108,0.102,0.108
			c0.09,0,0.228-0.096,0.402-0.342l0.15-0.21l0.084,0.06c-0.36,0.57-0.582,0.75-0.906,0.75c-0.192,0-0.293-0.114-0.293-0.336
			c0-0.048,0.006-0.12,0.024-0.18l0.821-3.142c0.018-0.06,0.018-0.096,0.018-0.114c0-0.072-0.102-0.132-0.294-0.132h-0.108V5.717
			c0.354-0.042,0.576-0.084,0.93-0.162l0.036,0.03L20.939,9.093z"/>
		<path fill="#009400" d="M24.707,9.051c-0.45,0.545-0.594,0.66-0.833,0.66c-0.168,0-0.24-0.072-0.24-0.246
			c0-0.15,0.012-0.198,0.138-0.689c-0.45,0.678-0.797,0.941-1.217,0.941c-0.336,0-0.6-0.24-0.6-0.696
			c0-0.929,0.917-2.015,1.715-2.015c0.258,0,0.432,0.126,0.48,0.348l0.066-0.288l0.018-0.018l0.366-0.042l0.042,0.018
			c-0.012,0.054-0.018,0.066-0.036,0.126c-0.282,1.025-0.534,2.057-0.534,2.177c0,0.042,0.036,0.078,0.084,0.078
			c0.054,0,0.132-0.048,0.312-0.246l0.162-0.174L24.707,9.051z M23.705,7.138c-0.27,0-0.534,0.186-0.786,0.552
			c-0.252,0.378-0.462,0.912-0.462,1.289c0,0.33,0.144,0.444,0.36,0.444c0.3,0,0.582-0.33,0.762-0.587
			c0.282-0.408,0.462-0.924,0.462-1.35C24.041,7.276,23.915,7.138,23.705,7.138z"/>
		<path fill="#009400" d="M27.7,9.027c-0.408,0.558-0.558,0.678-0.839,0.678c-0.15,0-0.282-0.096-0.282-0.324
			c0-0.06,0.012-0.138,0.096-0.45l0.264-0.971c0.048-0.186,0.084-0.402,0.084-0.474c0-0.108-0.054-0.174-0.144-0.174
			c-0.24,0-0.51,0.294-0.888,0.852c-0.27,0.402-0.318,0.54-0.6,1.487h-0.45l0.576-2.099c0.006-0.03,0.012-0.066,0.012-0.102
			c0-0.12-0.084-0.156-0.39-0.162V7.192c0.486-0.096,0.654-0.12,0.972-0.186l0.024,0.012l-0.402,1.307
			c0.6-0.959,1.001-1.319,1.385-1.319c0.258,0,0.39,0.15,0.39,0.366c0,0.108-0.024,0.234-0.06,0.36l-0.336,1.217
			c-0.06,0.216-0.084,0.318-0.084,0.366c0,0.054,0.024,0.108,0.096,0.108c0.084,0,0.192-0.096,0.366-0.318
			c0.042-0.048,0.084-0.102,0.126-0.156L27.7,9.027z"/>
		<path fill="#009400" d="M30.077,9.069c-0.342,0.419-0.726,0.647-1.223,0.647c-0.486,0-0.81-0.324-0.81-0.821
			c0-0.93,0.894-1.889,1.793-1.889c0.318,0,0.492,0.156,0.492,0.408c0,0.516-0.63,0.983-1.703,1.122
			c-0.06,0.12-0.06,0.276-0.06,0.366c0,0.33,0.222,0.545,0.558,0.545c0.264,0,0.45-0.096,0.882-0.45L30.077,9.069z M28.668,8.403
			c0.516-0.126,0.744-0.234,0.965-0.444c0.186-0.18,0.3-0.396,0.3-0.582c0-0.144-0.042-0.234-0.21-0.234
			c-0.342,0-0.75,0.462-0.953,0.996L28.668,8.403z"/>
		<path fill="#009400" d="M33.431,9.033c-0.33,0.504-0.521,0.684-0.821,0.684c-0.198,0-0.294-0.108-0.294-0.33
			c0-0.12,0.042-0.33,0.132-0.666l0.288-1.061c0.03-0.108,0.054-0.216,0.054-0.264c0-0.12-0.06-0.138-0.384-0.144V7.156
			c0.234-0.018,0.354-0.036,0.959-0.15l0.024,0.018l-0.563,2.057c-0.03,0.102-0.06,0.18-0.06,0.264c0,0.06,0.036,0.09,0.084,0.09
			c0.102,0,0.246-0.126,0.503-0.468L33.431,9.033z M33.311,6.364c-0.174,0-0.288-0.126-0.288-0.318c0-0.186,0.12-0.318,0.282-0.318
			c0.162,0,0.3,0.156,0.3,0.33C33.605,6.226,33.467,6.364,33.311,6.364z"/>
		<path fill="#009400" d="M35.765,7.839h-0.096c-0.06-0.498-0.24-0.696-0.534-0.696c-0.21,0-0.354,0.12-0.354,0.342
			c0,0.162,0.09,0.336,0.324,0.612c0.3,0.348,0.408,0.582,0.408,0.815c0,0.498-0.366,0.804-0.864,0.804
			c-0.102,0-0.192-0.006-0.33-0.06c-0.114-0.048-0.198-0.054-0.264-0.054s-0.132,0.03-0.174,0.126h-0.096l0.12-0.954h0.096
			c0.084,0.57,0.288,0.815,0.6,0.815c0.282,0,0.456-0.168,0.456-0.461c0-0.192-0.102-0.396-0.336-0.69
			c-0.258-0.324-0.377-0.594-0.377-0.786c0-0.396,0.282-0.647,0.726-0.647c0.102,0,0.186,0.018,0.335,0.06
			c0.114,0.036,0.168,0.042,0.216,0.042c0.09,0,0.132-0.024,0.18-0.108h0.084L35.765,7.839z"/>
		<path fill="#009400" d="M38.507,7.911c0.408-0.677,0.738-0.905,1.157-0.905c0.402,0,0.696,0.258,0.696,0.72
			c0,0.947-0.989,1.991-1.919,1.991c-0.342,0-0.78-0.138-0.78-0.318V9.362l0.852-3.136c0.036-0.144,0.054-0.228,0.054-0.282
			c0-0.132-0.03-0.138-0.384-0.15V5.692c0.402-0.048,0.618-0.084,0.917-0.138l0.03,0.03l-0.126,0.492l-0.503,1.835H38.507z
			 M39.431,7.3c-0.288,0-0.563,0.252-0.821,0.689c-0.264,0.444-0.432,1.025-0.432,1.385c0,0.138,0.09,0.204,0.276,0.204
			c0.258,0,0.516-0.126,0.737-0.354c0.36-0.372,0.66-0.965,0.66-1.409C39.851,7.45,39.695,7.3,39.431,7.3z"/>
		<path fill="#009400" d="M42.743,9.069c-0.342,0.419-0.726,0.647-1.223,0.647c-0.486,0-0.81-0.324-0.81-0.821
			c0-0.93,0.894-1.889,1.793-1.889c0.318,0,0.492,0.156,0.492,0.408c0,0.516-0.63,0.983-1.703,1.122
			c-0.06,0.12-0.06,0.276-0.06,0.366c0,0.33,0.222,0.545,0.558,0.545c0.264,0,0.45-0.096,0.882-0.45L42.743,9.069z M41.334,8.403
			c0.516-0.126,0.744-0.234,0.965-0.444c0.186-0.18,0.3-0.396,0.3-0.582c0-0.144-0.042-0.234-0.21-0.234
			c-0.342,0-0.75,0.462-0.953,0.996L41.334,8.403z"/>
		<path fill="#009400" d="M43.943,9.093c-0.03,0.108-0.048,0.21-0.048,0.258c0,0.072,0.042,0.108,0.102,0.108
			c0.09,0,0.228-0.096,0.402-0.342l0.15-0.21l0.084,0.06c-0.36,0.57-0.582,0.75-0.906,0.75c-0.192,0-0.293-0.114-0.293-0.336
			c0-0.048,0.006-0.12,0.024-0.18l0.821-3.142c0.018-0.06,0.018-0.096,0.018-0.114c0-0.072-0.102-0.132-0.294-0.132h-0.108V5.717
			c0.354-0.042,0.576-0.084,0.93-0.162l0.036,0.03L43.943,9.093z"/>
		<path fill="#009400" d="M47.027,9.219c-0.348,0.348-0.731,0.498-1.127,0.498c-0.564,0-0.881-0.312-0.881-0.833
			c0-0.672,0.45-1.361,1.079-1.697c0.234-0.126,0.474-0.18,0.72-0.18c0.486,0,0.846,0.312,0.846,0.839
			C47.663,8.301,47.422,8.829,47.027,9.219z M46.733,7.132c-0.264,0-0.528,0.186-0.768,0.545c-0.276,0.42-0.444,0.894-0.444,1.368
			c0,0.359,0.186,0.545,0.468,0.545c0.264,0,0.492-0.174,0.726-0.498c0.276-0.378,0.444-0.941,0.444-1.397
			C47.159,7.33,46.991,7.132,46.733,7.132z"/>
		<path fill="#009400" d="M50.393,9.207c0.786-0.983,0.99-1.301,0.99-1.559c0-0.072-0.036-0.12-0.132-0.21
			c-0.096-0.09-0.126-0.162-0.126-0.246c0-0.096,0.102-0.186,0.234-0.186c0.18,0,0.312,0.144,0.312,0.336
			c0,0.384-0.444,1.085-1.271,2.093L50.345,9.5c-0.162,0.198-0.216,0.258-0.27,0.258c-0.042,0-0.054-0.054-0.066-0.21l-0.174-1.859
			l-0.534,0.912c-0.108,0.18-0.216,0.377-0.33,0.594c-0.216,0.414-0.318,0.563-0.384,0.563c-0.054,0-0.066-0.048-0.078-0.282
			l-0.024-0.546c-0.024-0.521-0.09-1.163-0.162-1.451c-0.054-0.222-0.108-0.252-0.282-0.252h-0.168V7.15
			c0.186-0.03,0.39-0.054,0.57-0.102c0.078-0.018,0.132-0.042,0.174-0.042c0.066,0,0.072,0.012,0.114,0.204
			c0.084,0.408,0.168,1.157,0.192,1.685l1.151-1.823c0.03-0.048,0.048-0.06,0.078-0.06c0.036,0,0.048,0.018,0.048,0.084
			L50.393,9.207z"/>
		<path fill="#009400" d="M28.889,12.276h-0.504l-0.521,1.967c-0.006,0.024-0.012,0.066-0.012,0.084c0,0.078,0.036,0.096,0.09,0.096
			c0.096,0,0.192-0.096,0.486-0.474l0.078,0.042c-0.36,0.552-0.546,0.726-0.857,0.726c-0.162,0-0.276-0.072-0.276-0.222
			c0-0.066,0.048-0.252,0.096-0.444l0.468-1.775h-0.45c-0.006-0.018-0.006-0.036-0.006-0.036c0-0.066,0.054-0.12,0.198-0.15
			c0.192-0.042,0.582-0.336,0.797-0.66c0.024-0.036,0.06-0.054,0.084-0.054c0.036,0,0.054,0.018,0.054,0.048c0,0,0,0.03-0.006,0.042
			l-0.168,0.618h0.479L28.889,12.276z"/>
		<path fill="#009400" d="M31.654,14.02c-0.366,0.522-0.569,0.684-0.875,0.684c-0.162,0-0.264-0.096-0.264-0.252
			c0-0.072,0.042-0.258,0.12-0.552l0.33-1.241c0.024-0.096,0.042-0.174,0.042-0.198c0-0.09-0.03-0.15-0.168-0.15
			c-0.216,0-0.6,0.366-0.912,0.84c-0.24,0.366-0.335,0.576-0.576,1.499h-0.45l0.875-3.322c0.048-0.186,0.078-0.288,0.078-0.372
			c0-0.102-0.138-0.15-0.246-0.15h-0.162v-0.09c0.36-0.042,0.594-0.084,0.941-0.162l0.042,0.036l-0.726,2.68
			c0.54-0.875,1.007-1.265,1.379-1.265c0.276,0,0.39,0.18,0.39,0.402c0,0.15-0.108,0.594-0.288,1.157
			c-0.102,0.312-0.198,0.684-0.198,0.75c0,0.06,0.042,0.108,0.096,0.108c0.096,0,0.168-0.072,0.492-0.479L31.654,14.02z"/>
		<path fill="#009400" d="M34.007,14.069c-0.342,0.419-0.726,0.647-1.223,0.647c-0.486,0-0.81-0.324-0.81-0.821
			c0-0.93,0.894-1.889,1.793-1.889c0.318,0,0.492,0.156,0.492,0.408c0,0.516-0.63,0.983-1.703,1.122
			c-0.06,0.12-0.06,0.276-0.06,0.366c0,0.33,0.222,0.545,0.558,0.545c0.264,0,0.45-0.096,0.882-0.45L34.007,14.069z M32.598,13.403
			c0.516-0.126,0.744-0.234,0.965-0.444c0.186-0.18,0.3-0.396,0.3-0.582c0-0.144-0.042-0.234-0.21-0.234
			c-0.342,0-0.75,0.462-0.953,0.996L32.598,13.403z"/>
		<path fill="#009400" d="M38.027,12.839h-0.096c-0.06-0.498-0.24-0.696-0.534-0.696c-0.21,0-0.354,0.12-0.354,0.342
			c0,0.162,0.09,0.336,0.324,0.612c0.3,0.348,0.408,0.582,0.408,0.815c0,0.498-0.366,0.804-0.863,0.804
			c-0.102,0-0.192-0.006-0.33-0.06c-0.114-0.048-0.198-0.054-0.264-0.054s-0.132,0.03-0.174,0.126h-0.096l0.12-0.954h0.096
			c0.084,0.57,0.288,0.815,0.6,0.815c0.282,0,0.456-0.168,0.456-0.461c0-0.192-0.102-0.396-0.336-0.69
			c-0.258-0.324-0.377-0.594-0.377-0.786c0-0.396,0.282-0.647,0.726-0.647c0.102,0,0.186,0.018,0.335,0.06
			c0.114,0.036,0.168,0.042,0.216,0.042c0.09,0,0.132-0.024,0.18-0.108h0.084L38.027,12.839z"/>
		<path fill="#009400" d="M39.401,12.684c0.324-0.486,0.666-0.678,1.025-0.678c0.444,0,0.69,0.282,0.69,0.75
			c0,0.99-0.906,1.961-1.781,1.961c-0.138,0-0.264-0.024-0.414-0.102c-0.102,0.42-0.24,0.912-0.24,0.996
			c0,0.132,0.09,0.174,0.372,0.174v0.096h-1.217v-0.096c0.258-0.006,0.336-0.096,0.408-0.378l0.689-2.59
			c0.066-0.24,0.096-0.396,0.096-0.426c0-0.144-0.168-0.162-0.264-0.162h-0.132l-0.012-0.09l0.936-0.132
			c0.018,0,0.03,0.012,0.03,0.024c0,0-0.006,0.03-0.012,0.054L39.401,12.684z M40.205,12.264c-0.318,0-0.671,0.324-0.81,0.684
			c-0.174,0.45-0.39,1.224-0.39,1.427c0,0.132,0.12,0.228,0.288,0.228c0.318,0,0.606-0.198,0.87-0.57
			c0.288-0.402,0.414-0.839,0.414-1.259C40.577,12.432,40.475,12.264,40.205,12.264z"/>
		<path fill="#009400" d="M44.176,14.02c-0.366,0.522-0.569,0.684-0.875,0.684c-0.162,0-0.264-0.096-0.264-0.252
			c0-0.072,0.042-0.258,0.12-0.552l0.33-1.241c0.024-0.096,0.042-0.174,0.042-0.198c0-0.09-0.03-0.15-0.168-0.15
			c-0.216,0-0.6,0.366-0.912,0.84c-0.24,0.366-0.335,0.576-0.576,1.499h-0.45l0.875-3.322c0.048-0.186,0.078-0.288,0.078-0.372
			c0-0.102-0.138-0.15-0.246-0.15H41.97v-0.09c0.36-0.042,0.594-0.084,0.941-0.162l0.042,0.036l-0.726,2.68
			c0.54-0.875,1.007-1.265,1.379-1.265c0.276,0,0.39,0.18,0.39,0.402c0,0.15-0.108,0.594-0.288,1.157
			c-0.102,0.312-0.198,0.684-0.198,0.75c0,0.06,0.042,0.108,0.096,0.108c0.096,0,0.168-0.072,0.492-0.479L44.176,14.02z"/>
		<path fill="#009400" d="M46.529,14.069c-0.342,0.419-0.726,0.647-1.223,0.647c-0.486,0-0.81-0.324-0.81-0.821
			c0-0.93,0.894-1.889,1.793-1.889c0.318,0,0.492,0.156,0.492,0.408c0,0.516-0.63,0.983-1.703,1.122
			c-0.06,0.12-0.06,0.276-0.06,0.366c0,0.33,0.222,0.545,0.558,0.545c0.264,0,0.45-0.096,0.882-0.45L46.529,14.069z M45.12,13.403
			c0.516-0.126,0.744-0.234,0.965-0.444c0.186-0.18,0.3-0.396,0.3-0.582c0-0.144-0.042-0.234-0.21-0.234
			c-0.342,0-0.75,0.462-0.953,0.996L45.12,13.403z"/>
		<path fill="#009400" d="M48.126,13.103c0.114-0.251,0.318-0.569,0.563-0.827c0.156-0.162,0.336-0.27,0.474-0.27
			c0.168,0,0.282,0.126,0.282,0.306c0,0.18-0.102,0.324-0.282,0.324c-0.108,0-0.156-0.066-0.21-0.156
			c-0.036-0.06-0.054-0.084-0.096-0.084c-0.108,0-0.276,0.198-0.492,0.564C48.107,13.403,48,13.643,47.7,14.65h-0.456l0.485-1.751
			c0.084-0.312,0.096-0.366,0.096-0.492s-0.108-0.156-0.228-0.156c-0.048,0-0.096,0.006-0.186,0.018v-0.102l0.929-0.162l0.018,0.012
			l-0.33,1.295L48.126,13.103z"/>
		<path fill="#009400" d="M51.341,14.069c-0.342,0.419-0.726,0.647-1.223,0.647c-0.486,0-0.81-0.324-0.81-0.821
			c0-0.93,0.894-1.889,1.793-1.889c0.318,0,0.492,0.156,0.492,0.408c0,0.516-0.63,0.983-1.703,1.122
			c-0.06,0.12-0.06,0.276-0.06,0.366c0,0.33,0.222,0.545,0.558,0.545c0.264,0,0.45-0.096,0.882-0.45L51.341,14.069z M49.932,13.403
			c0.516-0.126,0.744-0.234,0.965-0.444c0.186-0.18,0.3-0.396,0.3-0.582c0-0.144-0.042-0.234-0.21-0.234
			c-0.342,0-0.75,0.462-0.953,0.996L49.932,13.403z"/>
	</g>
	<g>
		<g>
			<path fill="none" stroke="#FF00FF" stroke-width="0.2" stroke-miterlimit="10" d="M31.64,27.866
				c6.464,2.939,5.451,4.22,11.007,4.22"/>
			<g>
				<polygon fill="#FF00FF" points="31.831,28.79 31.854,27.986 32.45,27.445 30.545,27.384 				"/>
			</g>
		</g>
	</g>
	<g>
		<path fill="#FF00FF" d="M43.927,32.795c0.276-1.062,0.875-1.739,1.517-1.739c0.318,0,0.911,0,0.911,0.821
			c0,0.924-0.935,1.889-1.787,1.889c-0.138,0-0.27-0.024-0.408-0.102l-0.216,0.846c-0.036,0.144-0.096,0.294-0.186,0.42h-0.468
			c0.084-0.126,0.144-0.264,0.186-0.42L43.927,32.795z M45.426,31.182c-0.336,0-0.726,0.444-0.906,1.085
			c-0.108,0.39-0.276,1.013-0.276,1.163c0,0.126,0.126,0.222,0.294,0.222c0.798-0.012,1.283-1.116,1.283-1.823
			C45.821,31.476,45.684,31.182,45.426,31.182z"/>
		<path fill="#FF00FF" d="M47.07,31.782v-0.396h3.022v0.396H47.07z M47.07,32.981v-0.396h3.022v0.396H47.07z"/>
		<path fill="#FF00FF" d="M53.027,29.647c0.018,0,0.03,0.018,0.03,0.042c0,0.03-0.012,0.09-0.036,0.174l-0.857,3.112
			c-0.042,0.15-0.108,0.384-0.108,0.444c0,0.138,0.132,0.192,0.396,0.192h0.126v0.09h-1.673v-0.09
			c0.474-0.036,0.605-0.102,0.672-0.33l0.815-2.926c0.03-0.114,0.048-0.174,0.048-0.216c0-0.114-0.078-0.186-0.21-0.186h-0.018
			c-0.108,0-0.24,0.006-0.354,0.012v-0.09l0.138-0.03c0.528-0.114,0.552-0.102,1.014-0.198H53.027z"/>
		<path fill="#FF00FF" d="M56.994,29.779c-0.912,0.864-1.224,2.189-1.224,3.412c0,0.582,0.066,0.948,0.288,1.559l-0.108,0.036
			c-0.384-0.618-0.594-1.397-0.594-2.165c0-0.618,0.132-1.229,0.444-1.739c0.234-0.378,0.563-0.69,1.115-1.193L56.994,29.779z"/>
		<path fill="#FF00FF" d="M59.177,31.89h-0.096c-0.06-0.498-0.24-0.696-0.534-0.696c-0.21,0-0.354,0.12-0.354,0.342
			c0,0.162,0.09,0.336,0.324,0.612c0.3,0.348,0.408,0.582,0.408,0.815c0,0.498-0.366,0.804-0.863,0.804
			c-0.102,0-0.192-0.006-0.33-0.06c-0.114-0.048-0.198-0.054-0.264-0.054s-0.132,0.03-0.174,0.126h-0.096l0.12-0.954h0.096
			c0.084,0.57,0.288,0.815,0.6,0.815c0.282,0,0.456-0.168,0.456-0.461c0-0.192-0.102-0.396-0.336-0.69
			c-0.258-0.324-0.377-0.594-0.377-0.786c0-0.396,0.282-0.647,0.726-0.647c0.102,0,0.186,0.018,0.335,0.06
			c0.114,0.036,0.168,0.042,0.216,0.042c0.09,0,0.132-0.024,0.18-0.108h0.084L59.177,31.89z"/>
		<path fill="#FF00FF" d="M60.552,31.734c0.324-0.486,0.666-0.678,1.025-0.678c0.444,0,0.69,0.282,0.69,0.75
			c0,0.99-0.906,1.961-1.781,1.961c-0.138,0-0.264-0.024-0.414-0.102c-0.102,0.42-0.24,0.912-0.24,0.996
			c0,0.132,0.09,0.174,0.372,0.174v0.096h-1.217v-0.096c0.258-0.006,0.336-0.096,0.408-0.378l0.689-2.59
			c0.066-0.24,0.096-0.396,0.096-0.426c0-0.144-0.168-0.162-0.264-0.162h-0.132l-0.012-0.09l0.936-0.132
			c0.018,0,0.03,0.012,0.03,0.024c0,0-0.006,0.03-0.012,0.054L60.552,31.734z M61.356,31.314c-0.318,0-0.671,0.324-0.81,0.684
			c-0.174,0.45-0.39,1.224-0.39,1.427c0,0.132,0.12,0.228,0.288,0.228c0.318,0,0.606-0.198,0.87-0.57
			c0.288-0.402,0.414-0.839,0.414-1.259C61.727,31.482,61.626,31.314,61.356,31.314z"/>
		<path fill="#FF00FF" d="M65.327,33.071c-0.366,0.522-0.569,0.684-0.875,0.684c-0.162,0-0.264-0.096-0.264-0.252
			c0-0.072,0.042-0.258,0.12-0.552l0.33-1.241c0.024-0.096,0.042-0.174,0.042-0.198c0-0.09-0.03-0.15-0.168-0.15
			c-0.216,0-0.6,0.366-0.912,0.84c-0.24,0.366-0.335,0.576-0.576,1.499h-0.45l0.875-3.322c0.048-0.186,0.078-0.288,0.078-0.372
			c0-0.102-0.138-0.15-0.246-0.15H63.12v-0.09c0.36-0.042,0.594-0.084,0.941-0.162l0.042,0.036l-0.726,2.68
			c0.54-0.875,1.007-1.265,1.379-1.265c0.276,0,0.39,0.18,0.39,0.402c0,0.15-0.108,0.594-0.288,1.157
			c-0.102,0.312-0.198,0.684-0.198,0.75c0,0.06,0.042,0.108,0.096,0.108c0.096,0,0.168-0.072,0.492-0.479L65.327,33.071z"/>
		<path fill="#FF00FF" d="M67.679,33.119c-0.342,0.419-0.726,0.647-1.223,0.647c-0.486,0-0.81-0.324-0.81-0.821
			c0-0.93,0.894-1.889,1.793-1.889c0.318,0,0.492,0.156,0.492,0.408c0,0.516-0.63,0.983-1.703,1.122
			c-0.06,0.12-0.06,0.276-0.06,0.366c0,0.33,0.222,0.545,0.558,0.545c0.264,0,0.45-0.096,0.882-0.45L67.679,33.119z M66.27,32.454
			c0.516-0.126,0.744-0.234,0.965-0.444c0.186-0.18,0.3-0.396,0.3-0.582c0-0.144-0.042-0.234-0.21-0.234
			c-0.342,0-0.75,0.462-0.953,0.996L66.27,32.454z"/>
		<path fill="#FF00FF" d="M69.276,32.153c0.114-0.251,0.318-0.569,0.563-0.827c0.156-0.162,0.336-0.27,0.474-0.27
			c0.168,0,0.282,0.126,0.282,0.306c0,0.18-0.102,0.324-0.282,0.324c-0.108,0-0.156-0.066-0.21-0.156
			c-0.036-0.06-0.054-0.084-0.096-0.084c-0.108,0-0.276,0.198-0.492,0.564c-0.258,0.444-0.366,0.684-0.666,1.691h-0.456l0.485-1.751
			c0.084-0.312,0.096-0.366,0.096-0.492s-0.108-0.156-0.228-0.156c-0.048,0-0.096,0.006-0.186,0.018v-0.102l0.929-0.162l0.018,0.012
			l-0.33,1.295L69.276,32.153z"/>
		<path fill="#FF00FF" d="M72.491,33.119c-0.342,0.419-0.726,0.647-1.223,0.647c-0.486,0-0.81-0.324-0.81-0.821
			c0-0.93,0.894-1.889,1.793-1.889c0.318,0,0.492,0.156,0.492,0.408c0,0.516-0.63,0.983-1.703,1.122
			c-0.06,0.12-0.06,0.276-0.06,0.366c0,0.33,0.222,0.545,0.558,0.545c0.264,0,0.45-0.096,0.882-0.45L72.491,33.119z M71.082,32.454
			c0.516-0.126,0.744-0.234,0.965-0.444c0.186-0.18,0.3-0.396,0.3-0.582c0-0.144-0.042-0.234-0.21-0.234
			c-0.342,0-0.75,0.462-0.953,0.996L71.082,32.454z"/>
		<path fill="#FF00FF" d="M74.076,29.689c0.282,0.503,0.378,0.737,0.48,1.181c0.072,0.336,0.114,0.684,0.114,1.007
			c0,0.606-0.168,1.176-0.468,1.691c-0.234,0.402-0.545,0.737-1.091,1.211l-0.078-0.09c0.503-0.534,0.726-0.935,0.929-1.571
			c0.186-0.576,0.294-1.266,0.294-1.829c0-0.6-0.09-1.085-0.294-1.571L74.076,29.689z"/>
		<path fill="#FF00FF" d="M43.927,37.795c0.276-1.062,0.875-1.739,1.517-1.739c0.318,0,0.911,0,0.911,0.821
			c0,0.924-0.935,1.889-1.787,1.889c-0.138,0-0.27-0.024-0.408-0.102l-0.216,0.846c-0.036,0.144-0.096,0.294-0.186,0.42h-0.468
			c0.084-0.126,0.144-0.264,0.186-0.42L43.927,37.795z M45.426,36.182c-0.336,0-0.726,0.444-0.906,1.085
			c-0.108,0.39-0.276,1.013-0.276,1.163c0,0.126,0.126,0.222,0.294,0.222c0.798-0.012,1.283-1.116,1.283-1.823
			C45.821,36.476,45.684,36.182,45.426,36.182z"/>
		<path fill="#FF00FF" d="M49.025,37.819c-0.192,0.372-0.312,0.545-0.492,0.689c-0.204,0.168-0.432,0.252-0.69,0.252
			c-0.666,0-1.139-0.558-1.139-1.332c0-0.498,0.18-0.911,0.504-1.181c0.24-0.198,0.527-0.306,0.81-0.306
			c0.503,0,0.923,0.282,0.923,0.618c0,0.138-0.126,0.251-0.282,0.251c-0.132,0-0.24-0.102-0.288-0.276l-0.036-0.132
			c-0.06-0.222-0.138-0.288-0.354-0.288c-0.486,0-0.815,0.419-0.815,1.043c0,0.689,0.377,1.169,0.929,1.169
			c0.342,0,0.558-0.144,0.846-0.564L49.025,37.819z"/>
		<path fill="#FF00FF" d="M50.688,38.761c-0.726,0-1.295-0.594-1.295-1.427s0.54-1.391,1.349-1.391c0.732,0,1.295,0.545,1.295,1.373
			C52.037,38.149,51.498,38.761,50.688,38.761z M51.198,36.41c-0.144-0.18-0.312-0.3-0.57-0.3c-0.414,0-0.696,0.354-0.696,0.954
			c0,0.474,0.096,0.906,0.318,1.229c0.132,0.192,0.324,0.3,0.54,0.3c0.444,0,0.708-0.42,0.708-1.115
			C51.498,37.07,51.39,36.656,51.198,36.41z"/>
		<path fill="#FF00FF" d="M53.778,37.273c0.384,0.234,0.528,0.396,0.528,0.738c0,0.401-0.384,0.75-0.839,0.75
			c-0.126,0-0.3-0.006-0.438-0.054c-0.144-0.048-0.21-0.054-0.276-0.054c-0.072,0-0.108,0.012-0.144,0.072h-0.078v-0.941h0.096
			c0.126,0.582,0.348,0.846,0.762,0.846c0.306,0,0.498-0.198,0.498-0.444c0-0.186-0.12-0.342-0.318-0.45l-0.324-0.18
			c-0.498-0.276-0.72-0.563-0.72-0.869c0-0.474,0.336-0.738,0.828-0.738c0.144,0,0.276,0.006,0.402,0.066
			c0.066,0.03,0.126,0.048,0.168,0.048c0.024,0,0.048-0.006,0.096-0.06h0.066l0.03,0.816h-0.09c-0.138-0.54-0.318-0.738-0.678-0.738
			c-0.258,0-0.45,0.126-0.45,0.408c0,0.132,0.09,0.306,0.258,0.408L53.778,37.273z"/>
		<path fill="#FF00FF" d="M57.035,36.056c0.276,0,0.438,0.006,0.606,0.072c0.294,0.114,0.479,0.33,0.479,0.756
			c0,0.695-0.653,1.877-1.835,1.883l-0.324,1.164h-0.468l0.324-1.164c-0.258,0-0.492-0.018-0.642-0.066
			c-0.312-0.102-0.461-0.384-0.461-0.768c0-0.605,0.671-1.877,1.769-1.877h0.09l0.402-1.451h0.461L57.035,36.056z M56.538,36.182
			c-0.696,0-1.319,1.067-1.319,1.913c0,0.251,0.102,0.426,0.288,0.498c0.096,0.036,0.21,0.048,0.348,0.048L56.538,36.182z
			 M56.322,38.641c0.15,0,0.246-0.012,0.414-0.096c0.492-0.246,0.882-1.308,0.882-1.805c0-0.27-0.114-0.42-0.27-0.516
			c-0.06-0.036-0.222-0.042-0.348-0.042L56.322,38.641z"/>
		<path fill="#FF00FF" d="M58.831,36.782v-0.396h3.022v0.396H58.831z M58.831,37.981v-0.396h3.022v0.396H58.831z"/>
		<path fill="#FF00FF" d="M64.788,34.647c0.018,0,0.03,0.018,0.03,0.042c0,0.03-0.012,0.09-0.036,0.174l-0.857,3.112
			c-0.042,0.15-0.108,0.384-0.108,0.444c0,0.138,0.132,0.192,0.396,0.192h0.126v0.09h-1.673v-0.09
			c0.474-0.036,0.605-0.102,0.672-0.33l0.815-2.926c0.03-0.114,0.048-0.174,0.048-0.216c0-0.114-0.078-0.186-0.21-0.186h-0.018
			c-0.108,0-0.24,0.006-0.354,0.012v-0.09l0.138-0.03c0.528-0.114,0.552-0.102,1.014-0.198H64.788z"/>
		<path fill="#FF00FF" d="M65.413,38.809h-0.438l2.267-4.102h0.438L65.413,38.809z"/>
		<path fill="#FF00FF" d="M69.126,39.27h-0.384l-0.954-2.567l-0.45,0.192l-0.114-0.282l0.828-0.348l0.737,2.075
			c0.048,0.126,0.09,0.27,0.114,0.384h0.012c0.018-0.102,0.048-0.258,0.078-0.39l1.115-4.594h0.396L69.126,39.27z"/>
		<path fill="#FF00FF" d="M70.884,35.618c0.144-0.354,0.282-0.558,0.492-0.719c0.234-0.18,0.492-0.252,0.768-0.252
			c0.576,0,0.971,0.444,0.971,1.013c0,0.402-0.186,0.678-0.894,1.403l-1.127,1.151v0.03h1.085c0.354,0,0.474-0.09,0.618-0.39
			l0.102,0.042l-0.3,0.804h-2.123v-0.102l1.259-1.343c0.396-0.419,0.666-0.797,0.81-1.121c0.036-0.078,0.054-0.192,0.054-0.324
			c0-0.414-0.24-0.726-0.714-0.726c-0.359,0-0.666,0.174-0.875,0.576L70.884,35.618z"/>
		<path fill="#FF00FF" d="M76.794,34.779c-0.912,0.864-1.224,2.189-1.224,3.412c0,0.582,0.066,0.948,0.288,1.559l-0.108,0.036
			c-0.384-0.618-0.594-1.397-0.594-2.165c0-0.618,0.132-1.229,0.444-1.739c0.234-0.378,0.563-0.69,1.115-1.193L76.794,34.779z"/>
		<path fill="#FF00FF" d="M78.018,36.734c0.324-0.486,0.666-0.678,1.025-0.678c0.444,0,0.69,0.282,0.69,0.75
			c0,0.99-0.906,1.961-1.781,1.961c-0.138,0-0.264-0.024-0.414-0.102c-0.102,0.42-0.24,0.912-0.24,0.996
			c0,0.132,0.09,0.174,0.372,0.174v0.096h-1.217v-0.096c0.258-0.006,0.336-0.096,0.408-0.378l0.689-2.59
			c0.066-0.24,0.096-0.396,0.096-0.426c0-0.144-0.168-0.162-0.264-0.162H77.25l-0.012-0.09l0.936-0.132
			c0.018,0,0.03,0.012,0.03,0.024c0,0-0.006,0.03-0.012,0.054L78.018,36.734z M78.821,36.314c-0.318,0-0.671,0.324-0.81,0.684
			c-0.174,0.45-0.39,1.224-0.39,1.427c0,0.132,0.12,0.228,0.288,0.228c0.318,0,0.606-0.198,0.87-0.57
			c0.288-0.402,0.414-0.839,0.414-1.259C79.193,36.482,79.091,36.314,78.821,36.314z"/>
		<path fill="#FF00FF" d="M80.682,38.143c-0.03,0.108-0.048,0.21-0.048,0.258c0,0.072,0.042,0.108,0.102,0.108
			c0.09,0,0.228-0.096,0.402-0.342l0.15-0.21l0.084,0.06c-0.36,0.57-0.582,0.75-0.906,0.75c-0.192,0-0.293-0.114-0.293-0.336
			c0-0.048,0.006-0.12,0.024-0.18l0.821-3.142c0.018-0.06,0.018-0.096,0.018-0.114c0-0.072-0.102-0.132-0.294-0.132h-0.108v-0.096
			c0.354-0.042,0.576-0.084,0.93-0.162l0.036,0.03L80.682,38.143z"/>
		<path fill="#FF00FF" d="M84.449,38.101c-0.45,0.545-0.594,0.66-0.833,0.66c-0.168,0-0.24-0.072-0.24-0.246
			c0-0.15,0.012-0.198,0.138-0.689c-0.45,0.678-0.797,0.941-1.217,0.941c-0.336,0-0.6-0.24-0.6-0.696
			c0-0.929,0.917-2.015,1.715-2.015c0.258,0,0.432,0.126,0.48,0.348l0.066-0.288l0.018-0.018l0.366-0.042l0.042,0.018
			c-0.012,0.054-0.018,0.066-0.036,0.126c-0.282,1.025-0.534,2.057-0.534,2.177c0,0.042,0.036,0.078,0.084,0.078
			c0.054,0,0.132-0.048,0.312-0.246l0.162-0.174L84.449,38.101z M83.447,36.188c-0.27,0-0.534,0.186-0.786,0.552
			c-0.252,0.378-0.462,0.912-0.462,1.289c0,0.33,0.144,0.444,0.36,0.444c0.3,0,0.582-0.33,0.762-0.587
			c0.282-0.408,0.462-0.924,0.462-1.35C83.783,36.326,83.657,36.188,83.447,36.188z"/>
		<path fill="#FF00FF" d="M87.442,38.077c-0.408,0.558-0.558,0.678-0.839,0.678c-0.15,0-0.282-0.096-0.282-0.324
			c0-0.06,0.012-0.138,0.096-0.45l0.264-0.971c0.048-0.186,0.084-0.402,0.084-0.474c0-0.108-0.054-0.174-0.144-0.174
			c-0.24,0-0.51,0.294-0.888,0.852c-0.27,0.402-0.318,0.54-0.6,1.487h-0.45l0.576-2.099c0.006-0.03,0.012-0.066,0.012-0.102
			c0-0.12-0.084-0.156-0.39-0.162v-0.096c0.486-0.096,0.654-0.12,0.972-0.186l0.024,0.012l-0.402,1.307
			c0.6-0.959,1.001-1.319,1.385-1.319c0.258,0,0.39,0.15,0.39,0.366c0,0.108-0.024,0.234-0.06,0.36l-0.336,1.217
			c-0.06,0.216-0.084,0.318-0.084,0.366c0,0.054,0.024,0.108,0.096,0.108c0.084,0,0.192-0.096,0.366-0.318
			c0.042-0.048,0.084-0.102,0.126-0.156L87.442,38.077z"/>
		<path fill="#FF00FF" d="M89.819,38.119c-0.342,0.419-0.726,0.647-1.223,0.647c-0.486,0-0.81-0.324-0.81-0.821
			c0-0.93,0.894-1.889,1.793-1.889c0.318,0,0.492,0.156,0.492,0.408c0,0.516-0.63,0.983-1.703,1.122
			c-0.06,0.12-0.06,0.276-0.06,0.366c0,0.33,0.222,0.545,0.558,0.545c0.264,0,0.45-0.096,0.882-0.45L89.819,38.119z M88.41,37.454
			c0.516-0.126,0.744-0.234,0.965-0.444c0.186-0.18,0.3-0.396,0.3-0.582c0-0.144-0.042-0.234-0.21-0.234
			c-0.342,0-0.75,0.462-0.953,0.996L88.41,37.454z"/>
		<path fill="#FF00FF" d="M91.403,34.689c0.282,0.503,0.378,0.737,0.48,1.181c0.072,0.336,0.114,0.684,0.114,1.007
			c0,0.606-0.168,1.176-0.468,1.691c-0.234,0.402-0.545,0.737-1.091,1.211l-0.078-0.09c0.504-0.534,0.726-0.935,0.93-1.571
			c0.186-0.576,0.294-1.266,0.294-1.829c0-0.6-0.09-1.085-0.294-1.571L91.403,34.689z"/>
	</g>
	<g>
	</g>
</g>
</svg>
