<?xml version="1.0" encoding="utf-8"?>
<!-- Generator: Adobe Illustrator 25.4.1, SVG Export Plug-In . SVG Version: 6.00 Build 0)  -->
<svg version="1.1" xmlns="http://www.w3.org/2000/svg" xmlns:xlink="http://www.w3.org/1999/xlink" x="0px" y="0px"
	 viewBox="0 0 83.19 79.739" enable-background="new 0 0 83.19 79.739" xml:space="preserve">
<g id="Graph_paper_slanted" opacity="0.5">
	<g id="Clipped_grid_00000003068028900943026870000011536296927355263674_">
		<defs>
			<polygon id="SVGID_1_" points="55.203,79.92 -36.227,79.92 11.863,31.83 103.294,31.83 			"/>
		</defs>
		<clipPath id="SVGID_00000138555742807227592230000011124755000003263922_">
			<use xlink:href="#SVGID_1_"  overflow="visible"/>
		</clipPath>
		
			<g id="Grid_00000142891597197125820610000009767860333217090727_" opacity="0.25" clip-path="url(#SVGID_00000138555742807227592230000011124755000003263922_)">
			<g id="Horizontal_1_mm_00000151508609497893311650000018408800186222605470_">
				
					<line fill="none" stroke="#00ABEB" stroke-width="0.15" stroke-miterlimit="10" x1="-22.281" y1="-1.766" x2="204.56" y2="-1.766"/>
				
					<line fill="none" stroke="#00ABEB" stroke-width="0.15" stroke-miterlimit="10" x1="-20.293" y1="-3.754" x2="206.548" y2="-3.754"/>
				
					<line fill="none" stroke="#00ABEB" stroke-width="0.15" stroke-miterlimit="10" x1="-139.57" y1="115.522" x2="87.271" y2="115.522"/>
				
					<line fill="none" stroke="#00ABEB" stroke-width="0.15" stroke-miterlimit="10" x1="-137.581" y1="113.534" x2="89.259" y2="113.534"/>
				
					<line fill="none" stroke="#00ABEB" stroke-width="0.15" stroke-miterlimit="10" x1="-135.594" y1="111.547" x2="91.247" y2="111.547"/>
				
					<line fill="none" stroke="#00ABEB" stroke-width="0.15" stroke-miterlimit="10" x1="-133.606" y1="109.559" x2="93.235" y2="109.559"/>
				
					<line fill="none" stroke="#00ABEB" stroke-width="0.15" stroke-miterlimit="10" x1="-131.618" y1="107.57" x2="95.223" y2="107.57"/>
				
					<line fill="none" stroke="#00ABEB" stroke-width="0.15" stroke-miterlimit="10" x1="-129.63" y1="105.583" x2="97.211" y2="105.583"/>
				
					<line fill="none" stroke="#00ABEB" stroke-width="0.15" stroke-miterlimit="10" x1="-127.642" y1="103.595" x2="99.199" y2="103.595"/>
				
					<line fill="none" stroke="#00ABEB" stroke-width="0.15" stroke-miterlimit="10" x1="-125.654" y1="101.607" x2="101.186" y2="101.607"/>
				
					<line fill="none" stroke="#00ABEB" stroke-width="0.15" stroke-miterlimit="10" x1="-123.666" y1="99.619" x2="103.175" y2="99.619"/>
				
					<line fill="none" stroke="#00ABEB" stroke-width="0.15" stroke-miterlimit="10" x1="-121.678" y1="97.631" x2="105.163" y2="97.631"/>
				
					<line fill="none" stroke="#00ABEB" stroke-width="0.15" stroke-miterlimit="10" x1="-119.69" y1="95.643" x2="107.151" y2="95.643"/>
				
					<line fill="none" stroke="#00ABEB" stroke-width="0.15" stroke-miterlimit="10" x1="-117.702" y1="93.655" x2="109.139" y2="93.655"/>
				
					<line fill="none" stroke="#00ABEB" stroke-width="0.15" stroke-miterlimit="10" x1="-115.714" y1="91.667" x2="111.127" y2="91.667"/>
				
					<line fill="none" stroke="#00ABEB" stroke-width="0.15" stroke-miterlimit="10" x1="-113.726" y1="89.679" x2="113.114" y2="89.679"/>
				
					<line fill="none" stroke="#00ABEB" stroke-width="0.15" stroke-miterlimit="10" x1="-111.738" y1="87.691" x2="115.103" y2="87.691"/>
				
					<line fill="none" stroke="#00ABEB" stroke-width="0.15" stroke-miterlimit="10" x1="-109.75" y1="85.703" x2="117.091" y2="85.703"/>
				
					<line fill="none" stroke="#00ABEB" stroke-width="0.15" stroke-miterlimit="10" x1="-107.763" y1="83.716" x2="119.078" y2="83.716"/>
				
					<line fill="none" stroke="#00ABEB" stroke-width="0.15" stroke-miterlimit="10" x1="-105.774" y1="81.728" x2="121.066" y2="81.728"/>
				
					<line fill="none" stroke="#00ABEB" stroke-width="0.15" stroke-miterlimit="10" x1="-103.786" y1="79.739" x2="123.055" y2="79.739"/>
				
					<line fill="none" stroke="#00ABEB" stroke-width="0.15" stroke-miterlimit="10" x1="-101.799" y1="77.752" x2="125.042" y2="77.752"/>
				
					<line fill="none" stroke="#00ABEB" stroke-width="0.15" stroke-miterlimit="10" x1="-99.811" y1="75.764" x2="127.03" y2="75.764"/>
				
					<line fill="none" stroke="#00ABEB" stroke-width="0.15" stroke-miterlimit="10" x1="-97.822" y1="73.775" x2="129.019" y2="73.775"/>
				
					<line fill="none" stroke="#00ABEB" stroke-width="0.15" stroke-miterlimit="10" x1="-95.835" y1="71.788" x2="131.006" y2="71.788"/>
				
					<line fill="none" stroke="#00ABEB" stroke-width="0.15" stroke-miterlimit="10" x1="-93.847" y1="69.8" x2="132.994" y2="69.8"/>
				
					<line fill="none" stroke="#00ABEB" stroke-width="0.15" stroke-miterlimit="10" x1="-91.859" y1="67.812" x2="134.982" y2="67.812"/>
				
					<line fill="none" stroke="#00ABEB" stroke-width="0.15" stroke-miterlimit="10" x1="-89.871" y1="65.824" x2="136.97" y2="65.824"/>
				
					<line fill="none" stroke="#00ABEB" stroke-width="0.15" stroke-miterlimit="10" x1="-87.883" y1="63.836" x2="138.958" y2="63.836"/>
				
					<line fill="none" stroke="#00ABEB" stroke-width="0.15" stroke-miterlimit="10" x1="-85.895" y1="61.848" x2="140.946" y2="61.848"/>
				
					<line fill="none" stroke="#00ABEB" stroke-width="0.15" stroke-miterlimit="10" x1="-83.907" y1="59.86" x2="142.934" y2="59.86"/>
				
					<line fill="none" stroke="#00ABEB" stroke-width="0.15" stroke-miterlimit="10" x1="-81.919" y1="57.872" x2="144.922" y2="57.872"/>
				
					<line fill="none" stroke="#00ABEB" stroke-width="0.15" stroke-miterlimit="10" x1="-79.931" y1="55.885" x2="146.909" y2="55.885"/>
				
					<line fill="none" stroke="#00ABEB" stroke-width="0.15" stroke-miterlimit="10" x1="-77.943" y1="53.896" x2="148.898" y2="53.896"/>
				
					<line fill="none" stroke="#00ABEB" stroke-width="0.15" stroke-miterlimit="10" x1="-75.955" y1="51.908" x2="150.886" y2="51.908"/>
				
					<line fill="none" stroke="#00ABEB" stroke-width="0.15" stroke-miterlimit="10" x1="-73.968" y1="49.921" x2="152.873" y2="49.921"/>
				
					<line fill="none" stroke="#00ABEB" stroke-width="0.15" stroke-miterlimit="10" x1="-71.979" y1="47.933" x2="154.861" y2="47.933"/>
				
					<line fill="none" stroke="#00ABEB" stroke-width="0.15" stroke-miterlimit="10" x1="-69.991" y1="45.945" x2="156.85" y2="45.945"/>
				
					<line fill="none" stroke="#00ABEB" stroke-width="0.15" stroke-miterlimit="10" x1="-68.004" y1="43.957" x2="158.837" y2="43.957"/>
				
					<line fill="none" stroke="#00ABEB" stroke-width="0.15" stroke-miterlimit="10" x1="-66.016" y1="41.969" x2="160.825" y2="41.969"/>
				
					<line fill="none" stroke="#00ABEB" stroke-width="0.15" stroke-miterlimit="10" x1="-64.027" y1="39.981" x2="162.813" y2="39.981"/>
				
					<line fill="none" stroke="#00ABEB" stroke-width="0.15" stroke-miterlimit="10" x1="-62.04" y1="37.993" x2="164.801" y2="37.993"/>
				
					<line fill="none" stroke="#00ABEB" stroke-width="0.15" stroke-miterlimit="10" x1="-60.051" y1="36.005" x2="166.789" y2="36.005"/>
				
					<line fill="none" stroke="#00ABEB" stroke-width="0.15" stroke-miterlimit="10" x1="-58.064" y1="34.017" x2="168.777" y2="34.017"/>
				
					<line fill="none" stroke="#00ABEB" stroke-width="0.15" stroke-miterlimit="10" x1="-56.076" y1="32.029" x2="170.765" y2="32.029"/>
				
					<line fill="none" stroke="#00ABEB" stroke-width="0.15" stroke-miterlimit="10" x1="-54.088" y1="30.041" x2="172.753" y2="30.041"/>
				
					<line fill="none" stroke="#00ABEB" stroke-width="0.15" stroke-miterlimit="10" x1="-52.1" y1="28.054" x2="174.741" y2="28.054"/>
				
					<line fill="none" stroke="#00ABEB" stroke-width="0.15" stroke-miterlimit="10" x1="-50.112" y1="26.065" x2="176.729" y2="26.065"/>
				
					<line fill="none" stroke="#00ABEB" stroke-width="0.15" stroke-miterlimit="10" x1="-48.124" y1="24.077" x2="178.717" y2="24.077"/>
				
					<line fill="none" stroke="#00ABEB" stroke-width="0.15" stroke-miterlimit="10" x1="-46.136" y1="22.09" x2="180.704" y2="22.09"/>
				
					<line fill="none" stroke="#00ABEB" stroke-width="0.15" stroke-miterlimit="10" x1="-44.148" y1="20.102" x2="182.693" y2="20.102"/>
				
					<line fill="none" stroke="#00ABEB" stroke-width="0.15" stroke-miterlimit="10" x1="-42.16" y1="18.113" x2="184.681" y2="18.113"/>
				
					<line fill="none" stroke="#00ABEB" stroke-width="0.15" stroke-miterlimit="10" x1="-40.173" y1="16.126" x2="186.668" y2="16.126"/>
				
					<line fill="none" stroke="#00ABEB" stroke-width="0.15" stroke-miterlimit="10" x1="-38.184" y1="14.138" x2="188.656" y2="14.138"/>
				
					<line fill="none" stroke="#00ABEB" stroke-width="0.15" stroke-miterlimit="10" x1="-36.196" y1="12.15" x2="190.645" y2="12.15"/>
				
					<line fill="none" stroke="#00ABEB" stroke-width="0.15" stroke-miterlimit="10" x1="-34.209" y1="10.162" x2="192.632" y2="10.162"/>
				
					<line fill="none" stroke="#00ABEB" stroke-width="0.15" stroke-miterlimit="10" x1="-32.22" y1="8.174" x2="194.621" y2="8.174"/>
				
					<line fill="none" stroke="#00ABEB" stroke-width="0.15" stroke-miterlimit="10" x1="-30.233" y1="6.186" x2="196.608" y2="6.186"/>
				
					<line fill="none" stroke="#00ABEB" stroke-width="0.15" stroke-miterlimit="10" x1="-28.245" y1="4.198" x2="198.596" y2="4.198"/>
				
					<line fill="none" stroke="#00ABEB" stroke-width="0.15" stroke-miterlimit="10" x1="-26.256" y1="2.21" x2="200.584" y2="2.21"/>
				
					<line fill="none" stroke="#00ABEB" stroke-width="0.15" stroke-miterlimit="10" x1="-24.269" y1="0.222" x2="202.572" y2="0.222"/>
			</g>
			<g id="Vertical_1_mm_00000181073523592228201180000012361058669048395659_">
				<g>
					
						<line fill="none" stroke="#00ABEB" stroke-width="0.15" stroke-miterlimit="10" x1="-139.485" y1="115.513" x2="-20.165" y2="-3.807"/>
				</g>
				
					<line fill="none" stroke="#00ABEB" stroke-width="0.15" stroke-miterlimit="10" x1="-136.651" y1="115.513" x2="-17.331" y2="-3.807"/>
				
					<line fill="none" stroke="#00ABEB" stroke-width="0.15" stroke-miterlimit="10" x1="-133.816" y1="115.513" x2="-14.496" y2="-3.807"/>
				
					<line fill="none" stroke="#00ABEB" stroke-width="0.15" stroke-miterlimit="10" x1="-130.981" y1="115.513" x2="-11.661" y2="-3.807"/>
				
					<line fill="none" stroke="#00ABEB" stroke-width="0.15" stroke-miterlimit="10" x1="-128.147" y1="115.513" x2="-8.827" y2="-3.807"/>
				
					<line fill="none" stroke="#00ABEB" stroke-width="0.15" stroke-miterlimit="10" x1="-125.312" y1="115.513" x2="-5.992" y2="-3.807"/>
				
					<line fill="none" stroke="#00ABEB" stroke-width="0.15" stroke-miterlimit="10" x1="-122.477" y1="115.513" x2="-3.157" y2="-3.807"/>
				
					<line fill="none" stroke="#00ABEB" stroke-width="0.15" stroke-miterlimit="10" x1="-119.643" y1="115.513" x2="-0.323" y2="-3.807"/>
				
					<line fill="none" stroke="#00ABEB" stroke-width="0.15" stroke-miterlimit="10" x1="-116.807" y1="115.513" x2="2.513" y2="-3.807"/>
				
					<line fill="none" stroke="#00ABEB" stroke-width="0.15" stroke-miterlimit="10" x1="-113.973" y1="115.513" x2="5.347" y2="-3.807"/>
				
					<line fill="none" stroke="#00ABEB" stroke-width="0.15" stroke-miterlimit="10" x1="-111.139" y1="115.513" x2="8.181" y2="-3.807"/>
				
					<line fill="none" stroke="#00ABEB" stroke-width="0.15" stroke-miterlimit="10" x1="-108.304" y1="115.513" x2="11.016" y2="-3.807"/>
				
					<line fill="none" stroke="#00ABEB" stroke-width="0.15" stroke-miterlimit="10" x1="-105.47" y1="115.513" x2="13.85" y2="-3.807"/>
				
					<line fill="none" stroke="#00ABEB" stroke-width="0.15" stroke-miterlimit="10" x1="-102.635" y1="115.513" x2="16.685" y2="-3.807"/>
				
					<line fill="none" stroke="#00ABEB" stroke-width="0.15" stroke-miterlimit="10" x1="-99.8" y1="115.513" x2="19.52" y2="-3.807"/>
				
					<line fill="none" stroke="#00ABEB" stroke-width="0.15" stroke-miterlimit="10" x1="-96.966" y1="115.513" x2="22.354" y2="-3.807"/>
				
					<line fill="none" stroke="#00ABEB" stroke-width="0.15" stroke-miterlimit="10" x1="-94.131" y1="115.513" x2="25.189" y2="-3.807"/>
				
					<line fill="none" stroke="#00ABEB" stroke-width="0.15" stroke-miterlimit="10" x1="-91.296" y1="115.513" x2="28.024" y2="-3.807"/>
				
					<line fill="none" stroke="#00ABEB" stroke-width="0.15" stroke-miterlimit="10" x1="-88.462" y1="115.513" x2="30.858" y2="-3.807"/>
				
					<line fill="none" stroke="#00ABEB" stroke-width="0.15" stroke-miterlimit="10" x1="-85.627" y1="115.513" x2="33.693" y2="-3.807"/>
				
					<line fill="none" stroke="#00ABEB" stroke-width="0.15" stroke-miterlimit="10" x1="-82.792" y1="115.513" x2="36.528" y2="-3.807"/>
				
					<line fill="none" stroke="#00ABEB" stroke-width="0.15" stroke-miterlimit="10" x1="-79.958" y1="115.513" x2="39.362" y2="-3.807"/>
				
					<line fill="none" stroke="#00ABEB" stroke-width="0.15" stroke-miterlimit="10" x1="-77.123" y1="115.513" x2="42.197" y2="-3.807"/>
				
					<line fill="none" stroke="#00ABEB" stroke-width="0.15" stroke-miterlimit="10" x1="-74.288" y1="115.513" x2="45.032" y2="-3.807"/>
				
					<line fill="none" stroke="#00ABEB" stroke-width="0.15" stroke-miterlimit="10" x1="-71.453" y1="115.513" x2="47.867" y2="-3.807"/>
				
					<line fill="none" stroke="#00ABEB" stroke-width="0.15" stroke-miterlimit="10" x1="-68.618" y1="115.513" x2="50.702" y2="-3.807"/>
				
					<line fill="none" stroke="#00ABEB" stroke-width="0.15" stroke-miterlimit="10" x1="-65.785" y1="115.513" x2="53.535" y2="-3.807"/>
				
					<line fill="none" stroke="#00ABEB" stroke-width="0.15" stroke-miterlimit="10" x1="-62.95" y1="115.513" x2="56.37" y2="-3.807"/>
				
					<line fill="none" stroke="#00ABEB" stroke-width="0.15" stroke-miterlimit="10" x1="-60.115" y1="115.513" x2="59.205" y2="-3.807"/>
				
					<line fill="none" stroke="#00ABEB" stroke-width="0.15" stroke-miterlimit="10" x1="-57.281" y1="115.513" x2="62.039" y2="-3.807"/>
				
					<line fill="none" stroke="#00ABEB" stroke-width="0.15" stroke-miterlimit="10" x1="-54.446" y1="115.513" x2="64.874" y2="-3.807"/>
				
					<line fill="none" stroke="#00ABEB" stroke-width="0.15" stroke-miterlimit="10" x1="-51.611" y1="115.513" x2="67.709" y2="-3.807"/>
				
					<line fill="none" stroke="#00ABEB" stroke-width="0.15" stroke-miterlimit="10" x1="-48.777" y1="115.513" x2="70.543" y2="-3.807"/>
				
					<line fill="none" stroke="#00ABEB" stroke-width="0.15" stroke-miterlimit="10" x1="-45.942" y1="115.513" x2="73.378" y2="-3.807"/>
				
					<line fill="none" stroke="#00ABEB" stroke-width="0.15" stroke-miterlimit="10" x1="-43.107" y1="115.513" x2="76.213" y2="-3.807"/>
				
					<line fill="none" stroke="#00ABEB" stroke-width="0.15" stroke-miterlimit="10" x1="-40.273" y1="115.513" x2="79.047" y2="-3.807"/>
				
					<line fill="none" stroke="#00ABEB" stroke-width="0.15" stroke-miterlimit="10" x1="-37.438" y1="115.513" x2="81.882" y2="-3.807"/>
				
					<line fill="none" stroke="#00ABEB" stroke-width="0.15" stroke-miterlimit="10" x1="-34.603" y1="115.513" x2="84.717" y2="-3.807"/>
				
					<line fill="none" stroke="#00ABEB" stroke-width="0.15" stroke-miterlimit="10" x1="-31.769" y1="115.513" x2="87.551" y2="-3.807"/>
				
					<line fill="none" stroke="#00ABEB" stroke-width="0.15" stroke-miterlimit="10" x1="-28.934" y1="115.513" x2="90.386" y2="-3.807"/>
				
					<line fill="none" stroke="#00ABEB" stroke-width="0.15" stroke-miterlimit="10" x1="-26.1" y1="115.513" x2="93.22" y2="-3.807"/>
				
					<line fill="none" stroke="#00ABEB" stroke-width="0.15" stroke-miterlimit="10" x1="-23.264" y1="115.513" x2="96.056" y2="-3.807"/>
				
					<line fill="none" stroke="#00ABEB" stroke-width="0.15" stroke-miterlimit="10" x1="-20.43" y1="115.513" x2="98.89" y2="-3.807"/>
				
					<line fill="none" stroke="#00ABEB" stroke-width="0.15" stroke-miterlimit="10" x1="-17.596" y1="115.513" x2="101.724" y2="-3.807"/>
				
					<line fill="none" stroke="#00ABEB" stroke-width="0.15" stroke-miterlimit="10" x1="-14.761" y1="115.513" x2="104.559" y2="-3.807"/>
				
					<line fill="none" stroke="#00ABEB" stroke-width="0.15" stroke-miterlimit="10" x1="-11.926" y1="115.513" x2="107.394" y2="-3.807"/>
				
					<line fill="none" stroke="#00ABEB" stroke-width="0.15" stroke-miterlimit="10" x1="-9.092" y1="115.513" x2="110.228" y2="-3.807"/>
				
					<line fill="none" stroke="#00ABEB" stroke-width="0.15" stroke-miterlimit="10" x1="-6.257" y1="115.513" x2="113.063" y2="-3.807"/>
				
					<line fill="none" stroke="#00ABEB" stroke-width="0.15" stroke-miterlimit="10" x1="-3.422" y1="115.513" x2="115.898" y2="-3.807"/>
				
					<line fill="none" stroke="#00ABEB" stroke-width="0.15" stroke-miterlimit="10" x1="-0.588" y1="115.513" x2="118.732" y2="-3.807"/>
				
					<line fill="none" stroke="#00ABEB" stroke-width="0.15" stroke-miterlimit="10" x1="2.247" y1="115.513" x2="121.567" y2="-3.807"/>
				
					<line fill="none" stroke="#00ABEB" stroke-width="0.15" stroke-miterlimit="10" x1="5.082" y1="115.513" x2="124.402" y2="-3.807"/>
				
					<line fill="none" stroke="#00ABEB" stroke-width="0.15" stroke-miterlimit="10" x1="7.916" y1="115.513" x2="127.236" y2="-3.807"/>
				
					<line fill="none" stroke="#00ABEB" stroke-width="0.15" stroke-miterlimit="10" x1="10.751" y1="115.513" x2="130.071" y2="-3.807"/>
				
					<line fill="none" stroke="#00ABEB" stroke-width="0.15" stroke-miterlimit="10" x1="13.586" y1="115.513" x2="132.906" y2="-3.807"/>
				
					<line fill="none" stroke="#00ABEB" stroke-width="0.15" stroke-miterlimit="10" x1="16.42" y1="115.513" x2="135.74" y2="-3.807"/>
				
					<line fill="none" stroke="#00ABEB" stroke-width="0.15" stroke-miterlimit="10" x1="19.256" y1="115.513" x2="138.576" y2="-3.807"/>
				
					<line fill="none" stroke="#00ABEB" stroke-width="0.15" stroke-miterlimit="10" x1="22.09" y1="115.513" x2="141.41" y2="-3.807"/>
				
					<line fill="none" stroke="#00ABEB" stroke-width="0.15" stroke-miterlimit="10" x1="24.924" y1="115.513" x2="144.244" y2="-3.807"/>
				
					<line fill="none" stroke="#00ABEB" stroke-width="0.15" stroke-miterlimit="10" x1="27.759" y1="115.513" x2="147.079" y2="-3.807"/>
				
					<line fill="none" stroke="#00ABEB" stroke-width="0.15" stroke-miterlimit="10" x1="30.593" y1="115.513" x2="149.913" y2="-3.807"/>
				
					<line fill="none" stroke="#00ABEB" stroke-width="0.15" stroke-miterlimit="10" x1="33.428" y1="115.513" x2="152.748" y2="-3.807"/>
				
					<line fill="none" stroke="#00ABEB" stroke-width="0.15" stroke-miterlimit="10" x1="36.263" y1="115.513" x2="155.583" y2="-3.807"/>
				
					<line fill="none" stroke="#00ABEB" stroke-width="0.15" stroke-miterlimit="10" x1="39.097" y1="115.513" x2="158.417" y2="-3.807"/>
				
					<line fill="none" stroke="#00ABEB" stroke-width="0.15" stroke-miterlimit="10" x1="41.932" y1="115.513" x2="161.252" y2="-3.807"/>
				
					<line fill="none" stroke="#00ABEB" stroke-width="0.15" stroke-miterlimit="10" x1="44.767" y1="115.513" x2="164.087" y2="-3.807"/>
				
					<line fill="none" stroke="#00ABEB" stroke-width="0.15" stroke-miterlimit="10" x1="47.601" y1="115.513" x2="166.921" y2="-3.807"/>
				
					<line fill="none" stroke="#00ABEB" stroke-width="0.15" stroke-miterlimit="10" x1="50.436" y1="115.513" x2="169.756" y2="-3.807"/>
				
					<line fill="none" stroke="#00ABEB" stroke-width="0.15" stroke-miterlimit="10" x1="53.271" y1="115.513" x2="172.591" y2="-3.807"/>
				
					<line fill="none" stroke="#00ABEB" stroke-width="0.15" stroke-miterlimit="10" x1="56.105" y1="115.513" x2="175.425" y2="-3.807"/>
				
					<line fill="none" stroke="#00ABEB" stroke-width="0.15" stroke-miterlimit="10" x1="58.94" y1="115.513" x2="178.26" y2="-3.807"/>
				
					<line fill="none" stroke="#00ABEB" stroke-width="0.15" stroke-miterlimit="10" x1="61.775" y1="115.513" x2="181.095" y2="-3.807"/>
				
					<line fill="none" stroke="#00ABEB" stroke-width="0.15" stroke-miterlimit="10" x1="64.61" y1="115.513" x2="183.93" y2="-3.807"/>
				
					<line fill="none" stroke="#00ABEB" stroke-width="0.15" stroke-miterlimit="10" x1="67.444" y1="115.513" x2="186.764" y2="-3.807"/>
				
					<line fill="none" stroke="#00ABEB" stroke-width="0.15" stroke-miterlimit="10" x1="70.278" y1="115.513" x2="189.598" y2="-3.807"/>
				
					<line fill="none" stroke="#00ABEB" stroke-width="0.15" stroke-miterlimit="10" x1="73.113" y1="115.513" x2="192.433" y2="-3.807"/>
				
					<line fill="none" stroke="#00ABEB" stroke-width="0.15" stroke-miterlimit="10" x1="75.948" y1="115.513" x2="195.268" y2="-3.807"/>
				
					<line fill="none" stroke="#00ABEB" stroke-width="0.15" stroke-miterlimit="10" x1="78.782" y1="115.513" x2="198.102" y2="-3.807"/>
				
					<line fill="none" stroke="#00ABEB" stroke-width="0.15" stroke-miterlimit="10" x1="81.617" y1="115.513" x2="200.937" y2="-3.807"/>
				
					<line fill="none" stroke="#00ABEB" stroke-width="0.15" stroke-miterlimit="10" x1="84.452" y1="115.513" x2="203.772" y2="-3.807"/>
				
					<line fill="none" stroke="#00ABEB" stroke-width="0.15" stroke-miterlimit="10" x1="87.286" y1="115.513" x2="206.606" y2="-3.807"/>
			</g>
			<g id="Horizontal_5_mm_00000011735556503592991880000008134099091165005186_">
				
					<line fill="none" stroke="#00ABEB" stroke-width="0.3" stroke-miterlimit="10" x1="-139.844" y1="115.522" x2="87.271" y2="115.522"/>
				
					<line fill="none" stroke="#00ABEB" stroke-width="0.3" stroke-miterlimit="10" x1="-129.905" y1="105.583" x2="97.211" y2="105.583"/>
				
					<line fill="none" stroke="#00ABEB" stroke-width="0.3" stroke-miterlimit="10" x1="-119.965" y1="95.643" x2="107.151" y2="95.643"/>
				
					<line fill="none" stroke="#00ABEB" stroke-width="0.3" stroke-miterlimit="10" x1="-110.025" y1="85.703" x2="117.091" y2="85.703"/>
				
					<line fill="none" stroke="#00ABEB" stroke-width="0.3" stroke-miterlimit="10" x1="-100.086" y1="75.764" x2="127.03" y2="75.764"/>
				
					<line fill="none" stroke="#00ABEB" stroke-width="0.3" stroke-miterlimit="10" x1="-90.146" y1="65.824" x2="136.97" y2="65.824"/>
				
					<line fill="none" stroke="#00ABEB" stroke-width="0.3" stroke-miterlimit="10" x1="-80.206" y1="55.885" x2="146.909" y2="55.885"/>
				
					<line fill="none" stroke="#00ABEB" stroke-width="0.3" stroke-miterlimit="10" x1="-70.266" y1="45.945" x2="156.85" y2="45.945"/>
				
					<line fill="none" stroke="#00ABEB" stroke-width="0.3" stroke-miterlimit="10" x1="-60.326" y1="36.005" x2="166.789" y2="36.005"/>
				
					<line fill="none" stroke="#00ABEB" stroke-width="0.3" stroke-miterlimit="10" x1="-50.387" y1="26.065" x2="176.729" y2="26.065"/>
				
					<line fill="none" stroke="#00ABEB" stroke-width="0.3" stroke-miterlimit="10" x1="-40.447" y1="16.126" x2="186.668" y2="16.126"/>
			</g>
			<g id="Vertical_5_mm_00000064346364918789686960000003233481195482251947_">
				
					<line fill="none" stroke="#00ABEB" stroke-width="0.3" stroke-miterlimit="10" x1="-139.485" y1="115.513" x2="-19.972" y2="-3.999"/>
				
					<line fill="none" stroke="#00ABEB" stroke-width="0.3" stroke-miterlimit="10" x1="-125.312" y1="115.513" x2="-5.799" y2="-3.999"/>
				
					<line fill="none" stroke="#00ABEB" stroke-width="0.3" stroke-miterlimit="10" x1="-111.139" y1="115.513" x2="8.374" y2="-3.999"/>
				
					<line fill="none" stroke="#00ABEB" stroke-width="0.3" stroke-miterlimit="10" x1="-96.966" y1="115.513" x2="22.547" y2="-3.999"/>
				
					<line fill="none" stroke="#00ABEB" stroke-width="0.3" stroke-miterlimit="10" x1="-82.792" y1="115.513" x2="36.721" y2="-3.999"/>
				
					<line fill="none" stroke="#00ABEB" stroke-width="0.3" stroke-miterlimit="10" x1="-68.618" y1="115.513" x2="50.894" y2="-3.999"/>
				
					<line fill="none" stroke="#00ABEB" stroke-width="0.3" stroke-miterlimit="10" x1="-54.446" y1="115.513" x2="65.067" y2="-3.999"/>
				
					<line fill="none" stroke="#00ABEB" stroke-width="0.3" stroke-miterlimit="10" x1="-40.273" y1="115.513" x2="79.24" y2="-3.999"/>
				
					<line fill="none" stroke="#00ABEB" stroke-width="0.3" stroke-miterlimit="10" x1="-26.1" y1="115.513" x2="93.413" y2="-3.999"/>
				
					<line fill="none" stroke="#00ABEB" stroke-width="0.3" stroke-miterlimit="10" x1="-11.926" y1="115.513" x2="107.587" y2="-3.999"/>
				
					<line fill="none" stroke="#00ABEB" stroke-width="0.3" stroke-miterlimit="10" x1="2.247" y1="115.513" x2="121.76" y2="-3.999"/>
				
					<line fill="none" stroke="#00ABEB" stroke-width="0.3" stroke-miterlimit="10" x1="16.42" y1="115.513" x2="135.933" y2="-3.999"/>
				
					<line fill="none" stroke="#00ABEB" stroke-width="0.3" stroke-miterlimit="10" x1="30.593" y1="115.513" x2="150.106" y2="-3.999"/>
				
					<line fill="none" stroke="#00ABEB" stroke-width="0.3" stroke-miterlimit="10" x1="44.767" y1="115.513" x2="164.28" y2="-3.999"/>
				
					<line fill="none" stroke="#00ABEB" stroke-width="0.3" stroke-miterlimit="10" x1="58.94" y1="115.513" x2="178.453" y2="-3.999"/>
				
					<line fill="none" stroke="#00ABEB" stroke-width="0.3" stroke-miterlimit="10" x1="73.113" y1="115.513" x2="192.626" y2="-3.999"/>
				
					<line fill="none" stroke="#00ABEB" stroke-width="0.3" stroke-miterlimit="10" x1="87.286" y1="115.513" x2="206.799" y2="-3.999"/>
			</g>
			<g id="Horizontal_10_mm_00000163045836177147705350000008480455355013810362_">
				
					<line id="_x31_9_00000057116790517712807720000015084113881736219806_" fill="none" stroke="#00ABEB" stroke-width="0.7" stroke-miterlimit="10" x1="-139.844" y1="115.522" x2="87.271" y2="115.522"/>
				
					<line id="_x32_0_00000024685878617286333290000013167547815532084100_" fill="none" stroke="#00ABEB" stroke-width="0.7" stroke-miterlimit="10" x1="-119.965" y1="95.643" x2="107.151" y2="95.643"/>
				
					<line id="_x32_1_00000138564813020868535020000012777939180148238773_" fill="none" stroke="#00ABEB" stroke-width="0.7" stroke-miterlimit="10" x1="-100.086" y1="75.764" x2="127.03" y2="75.764"/>
				
					<line id="_x32_2_00000052807586205252870140000014502512662559454639_" fill="none" stroke="#00ABEB" stroke-width="0.7" stroke-miterlimit="10" x1="-80.206" y1="55.885" x2="146.909" y2="55.885"/>
				
					<line id="_x32_3_00000051376893246677475670000009295515732899575694_" fill="none" stroke="#00ABEB" stroke-width="0.7" stroke-miterlimit="10" x1="-60.326" y1="36.005" x2="166.789" y2="36.005"/>
				
					<line id="_x32_4_00000099657911357833521510000007853591198542098087_" fill="none" stroke="#00ABEB" stroke-width="0.7" stroke-miterlimit="10" x1="-40.447" y1="16.126" x2="186.668" y2="16.126"/>
				
					<line id="_x32_5_00000155127691660191171140000008292164438978366870_" fill="none" stroke="#00ABEB" stroke-width="0.7" stroke-miterlimit="10" x1="-20.568" y1="-3.754" x2="206.548" y2="-3.754"/>
			</g>
			<g id="Vertical_10_mm_00000134969164297783457920000010833503864539426239_">
				
					<line id="_x30__00000151539528360119995570000005083818057555393183_" fill="none" stroke="#00ABEB" stroke-width="0.7" stroke-miterlimit="10" x1="-139.485" y1="115.513" x2="-19.972" y2="-3.999"/>
				
					<line id="_x31__00000021823889366233599640000011971139016478256513_" fill="none" stroke="#00ABEB" stroke-width="0.7" stroke-miterlimit="10" x1="-111.139" y1="115.513" x2="8.374" y2="-3.999"/>
				
					<line id="_x32__00000071550223824624162640000006130814236846722696_" fill="none" stroke="#00ABEB" stroke-width="0.7" stroke-miterlimit="10" x1="-82.792" y1="115.513" x2="36.721" y2="-3.999"/>
				
					<line id="_x33__00000042015976804734918030000005045165563697445304_" fill="none" stroke="#00ABEB" stroke-width="0.7" stroke-miterlimit="10" x1="-54.446" y1="115.513" x2="65.067" y2="-3.999"/>
				
					<line id="_x34__00000081637789328126233800000002486991317463304126_" fill="none" stroke="#00ABEB" stroke-width="0.7" stroke-miterlimit="10" x1="-26.1" y1="115.513" x2="93.413" y2="-3.999"/>
				
					<line id="_x35__00000051353690731882489090000004794744233340785543_" fill="none" stroke="#00ABEB" stroke-width="0.7" stroke-miterlimit="10" x1="2.247" y1="115.513" x2="121.76" y2="-3.999"/>
				
					<line id="_x36__00000011745311307505536660000010485558803267122343_" fill="none" stroke="#00ABEB" stroke-width="0.7" stroke-miterlimit="10" x1="30.593" y1="115.513" x2="150.106" y2="-3.999"/>
				
					<line id="_x37__00000045602144989735358580000003937589459941247142_" fill="none" stroke="#00ABEB" stroke-width="0.7" stroke-miterlimit="10" x1="58.94" y1="115.513" x2="178.453" y2="-3.999"/>
				
					<line id="_x38__00000047029857857898873560000014194396358708286345_" fill="none" stroke="#00ABEB" stroke-width="0.7" stroke-miterlimit="10" x1="87.286" y1="115.513" x2="206.799" y2="-3.999"/>
			</g>
		</g>
	</g>
</g>
<g id="Layer_3">
</g>
<g id="Axis">
	<g id="lines">
		<g>
			<g>
				
					<line fill="none" stroke="#000000" stroke-width="0.5" stroke-miterlimit="10" x1="33.533" y1="55.875" x2="33.533" y2="3.647"/>
				<g>
					<polygon points="35.385,5.052 33.533,4.265 31.682,5.052 33.533,0.663 					"/>
				</g>
			</g>
		</g>
		<g>
			<g>
				
					<line fill="none" stroke="#000000" stroke-width="0.5" stroke-miterlimit="10" x1="33.533" y1="55.875" x2="74.12" y2="55.875"/>
				<g>
					<polygon points="72.716,57.726 73.503,55.875 72.716,54.023 77.105,55.875 					"/>
				</g>
			</g>
		</g>
		<g>
			<g>
				
					<line fill="none" stroke="#000000" stroke-width="0.5" stroke-miterlimit="10" x1="33.533" y1="55.875" x2="12.232" y2="77.176"/>
				<g>
					<polygon points="11.916,74.874 12.669,76.739 14.534,77.492 10.121,79.287 					"/>
				</g>
			</g>
		</g>
	</g>
	<g id="names">
		<g>
			<path d="M75.054,61.277c0.51-0.846,0.732-1.277,0.732-1.542c0-0.084-0.042-0.12-0.156-0.192c-0.12-0.078-0.156-0.138-0.156-0.234
				c0-0.132,0.102-0.222,0.24-0.222c0.18,0,0.312,0.15,0.312,0.33c0,0.342-0.288,1.001-0.786,1.829
				c-0.624,1.032-1.265,1.721-1.607,1.721c-0.18,0-0.306-0.102-0.306-0.258c0-0.132,0.102-0.24,0.234-0.24
				c0.21,0,0.21,0.167,0.366,0.167c0.078,0,0.15-0.048,0.288-0.198c0.108-0.114,0.378-0.468,0.426-0.545
				c0.036-0.072,0.06-0.144,0.06-0.21c0-0.24-0.33-1.583-0.492-1.991c-0.114-0.293-0.222-0.384-0.462-0.384
				c-0.066,0-0.12,0.006-0.186,0.024v-0.102c0.066-0.012,0.132-0.024,0.192-0.036c0.12-0.024,0.318-0.06,0.642-0.108h0.024
				c0.09,0,0.408,0.996,0.51,1.529L75.054,61.277z"/>
		</g>
		<g>
			<path d="M29.403,2.899c0.348,0.078,0.479,0.144,0.719,0.498c0.156,0.228,0.27,0.3,0.42,0.3c0.096,0,0.162-0.036,0.162-0.09
				c0-0.024-0.012-0.054-0.03-0.09c-0.036-0.072-0.048-0.12-0.048-0.167c0.006-0.102,0.102-0.204,0.198-0.204
				c0.126,0,0.21,0.09,0.21,0.222c0,0.24-0.222,0.456-0.558,0.456c-0.174,0-0.378-0.078-0.678-0.264
				c-0.282-0.174-0.474-0.251-0.629-0.251c-0.096,0-0.174,0.03-0.27,0.108l-0.054-0.054l1.859-2.231h-0.816
				c-0.312,0-0.426,0.054-0.545,0.36l-0.096-0.024l0.192-0.695h1.697v0.066L29.403,2.899z"/>
		</g>
		<g>
			<path d="M7.881,77.006c0.419-0.642,0.642-0.857,0.905-0.857c0.144,0,0.246,0.09,0.246,0.222c0,0.126-0.084,0.216-0.204,0.216
				c-0.114,0-0.168-0.102-0.312-0.102c-0.108,0-0.324,0.264-0.588,0.726c0,0.042,0.012,0.126,0.048,0.27l0.192,0.804
				c0.042,0.168,0.096,0.246,0.18,0.246c0.078,0,0.144-0.06,0.282-0.24c0.054-0.072,0.078-0.108,0.126-0.168l0.09,0.054
				c-0.348,0.54-0.504,0.684-0.731,0.684c-0.192,0-0.282-0.108-0.354-0.408l-0.174-0.714L7.06,78.451
				c-0.264,0.354-0.384,0.408-0.57,0.408c-0.186,0-0.3-0.096-0.3-0.252c0-0.12,0.084-0.216,0.204-0.216
				c0.054,0,0.114,0.024,0.192,0.066c0.06,0.036,0.12,0.054,0.156,0.054c0.066,0,0.18-0.114,0.306-0.294l0.492-0.696l-0.168-0.743
				c-0.084-0.36-0.126-0.408-0.276-0.408c-0.048,0-0.12,0.012-0.234,0.042l-0.108,0.03l-0.018-0.096l0.066-0.024
				c0.366-0.132,0.564-0.174,0.702-0.174c0.15,0,0.222,0.108,0.306,0.516L7.881,77.006z"/>
		</g>
	</g>
	<polygon display="none" opacity="0.3" fill="#B4B4B4" points="64.956,72.607 64.956,17.395 33.533,0.663 33.533,0.663 
		33.533,55.875 33.533,55.875 64.957,72.607 	"/>
	
		<ellipse transform="matrix(0.9896 -0.1441 0.1441 0.9896 -3.5934 8.497)" display="none" cx="56.841" cy="29.047" rx="1.535" ry="0.676"/>
	
		<line display="none" fill="none" stroke="#0000FF" stroke-width="0.2" stroke-miterlimit="10" stroke-dasharray="2,2" x1="33.533" y1="55.875" x2="56.841" y2="68.286"/>
	
		<line display="none" fill="none" stroke="#0000FF" stroke-width="0.1" stroke-miterlimit="10" stroke-dasharray="2,2" x1="56.843" y1="29.047" x2="56.843" y2="68.286"/>
	<g display="none">
		<g display="inline">
			<path fill="none" stroke="#FF00FF" stroke-width="0.2" stroke-miterlimit="10" d="M43.73,62.229
				c-5.427,1.407-12.097,2.302-18.958,2.398"/>
			<g>
				<polygon fill="#FF00FF" points="43,61.608 43.479,62.255 43.346,63.049 44.88,61.918 				"/>
			</g>
		</g>
	</g>
	<g display="none">
		<path display="inline" fill="#FF00FF" d="M35.279,67.986c-0.39,0.516-0.81,0.702-1.229,0.702c-0.486,0-0.768-0.396-0.768-1.031
			c0-1.29,0.677-2.351,1.331-2.849c0.264-0.198,0.492-0.252,0.731-0.252c0.426,0,0.738,0.288,0.738,1.001
			C36.082,66.529,35.723,67.393,35.279,67.986z M33.959,66.733c-0.114,0.3-0.174,0.612-0.174,0.99c0,0.534,0.114,0.839,0.336,0.839
			c0.576,0,1.091-1.241,1.235-1.829H33.959z M35.399,66.541c0.102-0.348,0.18-0.779,0.18-1.229c0-0.384-0.108-0.63-0.318-0.63
			c-0.521,0-1.109,1.325-1.259,1.859H35.399z"/>
	</g>
	<g display="none">
		<path display="inline" fill="#0000FF" d="M64.129,26.131c-0.912,0.864-1.224,2.189-1.224,3.412c0,0.582,0.066,0.948,0.288,1.559
			l-0.108,0.036c-0.384-0.618-0.594-1.397-0.594-2.165c0-0.618,0.132-1.229,0.444-1.739c0.234-0.378,0.563-0.69,1.115-1.193
			L64.129,26.131z"/>
		<path display="inline" fill="#0000FF" d="M64.634,29.148c0.276-1.062,0.875-1.739,1.517-1.739c0.318,0,0.911,0,0.911,0.821
			c0,0.924-0.935,1.889-1.787,1.889c-0.138,0-0.27-0.024-0.408-0.102l-0.216,0.846c-0.036,0.144-0.096,0.294-0.186,0.42h-0.468
			c0.084-0.126,0.144-0.264,0.186-0.42L64.634,29.148z M66.133,27.534c-0.336,0-0.726,0.444-0.906,1.085
			c-0.108,0.39-0.276,1.013-0.276,1.163c0,0.126,0.126,0.222,0.294,0.222c0.798-0.012,1.283-1.116,1.283-1.823
			C66.528,27.828,66.391,27.534,66.133,27.534z"/>
		<path display="inline" fill="#0000FF" d="M67.232,30.718c0.317-0.204,0.456-0.377,0.456-0.54c0-0.06-0.024-0.102-0.12-0.174
			c-0.12-0.09-0.15-0.18-0.15-0.294c0-0.144,0.132-0.264,0.306-0.264c0.216,0,0.348,0.204,0.348,0.443
			c0,0.336-0.276,0.672-0.78,0.936L67.232,30.718z"/>
		<path display="inline" fill="#0000FF" d="M71.244,27.408c0.276,0,0.438,0.006,0.606,0.072c0.294,0.114,0.479,0.33,0.479,0.756
			c0,0.695-0.653,1.877-1.835,1.883l-0.324,1.164h-0.468l0.324-1.164c-0.258,0-0.492-0.018-0.642-0.066
			c-0.312-0.102-0.461-0.384-0.461-0.768c0-0.605,0.671-1.877,1.769-1.877h0.09l0.402-1.451h0.461L71.244,27.408z M70.747,27.534
			c-0.696,0-1.319,1.067-1.319,1.913c0,0.251,0.102,0.426,0.288,0.498c0.096,0.036,0.21,0.048,0.348,0.048L70.747,27.534z
			 M70.531,29.993c0.15,0,0.246-0.012,0.414-0.096c0.492-0.246,0.882-1.308,0.882-1.805c0-0.27-0.114-0.42-0.27-0.516
			c-0.06-0.036-0.222-0.042-0.348-0.042L70.531,29.993z"/>
		<path display="inline" fill="#0000FF" d="M72.494,30.718c0.318-0.204,0.456-0.377,0.456-0.54c0-0.06-0.024-0.102-0.12-0.174
			c-0.12-0.09-0.15-0.18-0.15-0.294c0-0.144,0.132-0.264,0.306-0.264c0.216,0,0.348,0.204,0.348,0.443
			c0,0.336-0.276,0.672-0.78,0.936L72.494,30.718z"/>
		<path display="inline" fill="#0000FF" d="M76.183,29.417c-0.39,0.516-0.81,0.702-1.229,0.702c-0.486,0-0.768-0.396-0.768-1.031
			c0-1.29,0.677-2.351,1.331-2.849c0.264-0.198,0.492-0.252,0.731-0.252c0.426,0,0.738,0.288,0.738,1.001
			C76.986,27.96,76.626,28.823,76.183,29.417z M74.863,28.164c-0.114,0.3-0.174,0.612-0.174,0.99c0,0.534,0.114,0.839,0.336,0.839
			c0.576,0,1.091-1.241,1.235-1.829H74.863z M76.303,27.972c0.102-0.348,0.18-0.779,0.18-1.229c0-0.384-0.108-0.63-0.318-0.63
			c-0.521,0-1.109,1.325-1.259,1.859H76.303z"/>
		<path display="inline" fill="#0000FF" d="M78.043,26.041c0.282,0.503,0.378,0.737,0.48,1.181c0.072,0.336,0.114,0.684,0.114,1.007
			c0,0.606-0.168,1.176-0.468,1.691c-0.234,0.402-0.545,0.737-1.091,1.211l-0.078-0.09c0.504-0.534,0.726-0.935,0.93-1.571
			c0.186-0.576,0.294-1.266,0.294-1.829c0-0.6-0.09-1.085-0.294-1.571L78.043,26.041z"/>
	</g>
	<g display="none">
		<path display="inline" d="M46.338,10.351c0.114-0.251,0.318-0.569,0.563-0.827c0.156-0.162,0.336-0.27,0.474-0.27
			c0.168,0,0.282,0.126,0.282,0.306c0,0.18-0.102,0.324-0.282,0.324c-0.108,0-0.156-0.066-0.21-0.156
			c-0.036-0.06-0.054-0.084-0.096-0.084c-0.108,0-0.276,0.198-0.492,0.564c-0.258,0.444-0.366,0.684-0.666,1.691h-0.456l0.485-1.751
			c0.084-0.312,0.096-0.366,0.096-0.492S45.93,9.5,45.81,9.5c-0.048,0-0.096,0.006-0.186,0.018V9.416l0.929-0.162l0.018,0.012
			l-0.33,1.295L46.338,10.351z"/>
		<path display="inline" d="M48.061,11.461c0.348,0.078,0.479,0.144,0.719,0.498c0.156,0.228,0.27,0.3,0.42,0.3
			c0.096,0,0.162-0.036,0.162-0.09c0-0.024-0.012-0.054-0.03-0.09c-0.036-0.072-0.048-0.12-0.048-0.167
			c0.006-0.102,0.102-0.204,0.198-0.204c0.126,0,0.21,0.09,0.21,0.222c0,0.24-0.222,0.456-0.558,0.456
			c-0.174,0-0.378-0.078-0.678-0.264c-0.282-0.174-0.474-0.251-0.629-0.251c-0.096,0-0.174,0.03-0.27,0.108l-0.054-0.054
			l1.859-2.231h-0.816c-0.312,0-0.426,0.054-0.545,0.36l-0.096-0.024l0.192-0.695h1.697v0.066L48.061,11.461z"/>
		<path display="inline" d="M51.462,10.747h-1.319l0.084-0.378h1.313L51.462,10.747z"/>
		<path display="inline" d="M52.962,9.932c0.324-0.486,0.666-0.678,1.025-0.678c0.444,0,0.69,0.282,0.69,0.75
			c0,0.99-0.906,1.961-1.781,1.961c-0.138,0-0.264-0.024-0.414-0.102c-0.102,0.42-0.24,0.912-0.24,0.996
			c0,0.132,0.09,0.174,0.372,0.174v0.096h-1.217v-0.096c0.258-0.006,0.336-0.096,0.408-0.378l0.689-2.59
			c0.066-0.24,0.096-0.396,0.096-0.426c0-0.144-0.168-0.162-0.264-0.162h-0.132l-0.012-0.09l0.936-0.132
			c0.018,0,0.03,0.012,0.03,0.024c0,0-0.006,0.03-0.012,0.054L52.962,9.932z M53.766,9.512c-0.318,0-0.672,0.324-0.81,0.684
			c-0.174,0.45-0.39,1.224-0.39,1.427c0,0.132,0.12,0.228,0.288,0.228c0.318,0,0.606-0.198,0.87-0.57
			c0.288-0.402,0.414-0.839,0.414-1.259C54.137,9.68,54.036,9.512,53.766,9.512z"/>
		<path display="inline" d="M55.626,11.341c-0.03,0.108-0.048,0.21-0.048,0.258c0,0.072,0.042,0.108,0.102,0.108
			c0.09,0,0.228-0.096,0.402-0.342l0.15-0.21l0.084,0.06c-0.36,0.57-0.582,0.75-0.906,0.75c-0.192,0-0.293-0.114-0.293-0.336
			c0-0.048,0.006-0.12,0.024-0.18l0.821-3.142c0.018-0.06,0.018-0.096,0.018-0.114c0-0.072-0.102-0.132-0.294-0.132h-0.108V7.965
			c0.354-0.042,0.576-0.084,0.93-0.162l0.036,0.03L55.626,11.341z"/>
		<path display="inline" d="M59.393,11.299c-0.45,0.545-0.594,0.66-0.833,0.66c-0.168,0-0.24-0.072-0.24-0.246
			c0-0.15,0.012-0.198,0.138-0.689c-0.45,0.678-0.797,0.941-1.217,0.941c-0.336,0-0.6-0.24-0.6-0.696
			c0-0.929,0.917-2.015,1.715-2.015c0.258,0,0.432,0.126,0.48,0.348l0.066-0.288l0.018-0.018l0.366-0.042l0.042,0.018
			c-0.012,0.054-0.018,0.066-0.036,0.126c-0.282,1.025-0.534,2.057-0.534,2.177c0,0.042,0.036,0.078,0.084,0.078
			c0.054,0,0.132-0.048,0.312-0.246l0.162-0.174L59.393,11.299z M58.392,9.386c-0.27,0-0.534,0.186-0.786,0.552
			c-0.252,0.378-0.462,0.912-0.462,1.289c0,0.33,0.144,0.444,0.36,0.444c0.3,0,0.582-0.33,0.762-0.587
			c0.282-0.408,0.462-0.924,0.462-1.35C58.728,9.524,58.602,9.386,58.392,9.386z"/>
		<path display="inline" d="M62.387,11.275c-0.408,0.558-0.558,0.678-0.839,0.678c-0.15,0-0.282-0.096-0.282-0.324
			c0-0.06,0.012-0.138,0.096-0.45l0.264-0.971c0.048-0.186,0.084-0.402,0.084-0.474c0-0.108-0.054-0.174-0.144-0.174
			c-0.24,0-0.51,0.294-0.888,0.852c-0.27,0.402-0.318,0.54-0.6,1.487h-0.45L60.204,9.8c0.006-0.03,0.012-0.066,0.012-0.102
			c0-0.12-0.083-0.156-0.39-0.162V9.44c0.486-0.096,0.654-0.12,0.972-0.186l0.024,0.012l-0.402,1.307
			c0.6-0.959,1.001-1.319,1.385-1.319c0.258,0,0.39,0.15,0.39,0.366c0,0.108-0.024,0.234-0.06,0.36l-0.335,1.217
			c-0.06,0.216-0.084,0.318-0.084,0.366c0,0.054,0.024,0.108,0.096,0.108c0.084,0,0.192-0.096,0.366-0.318
			c0.042-0.048,0.084-0.102,0.126-0.156L62.387,11.275z"/>
		<path display="inline" d="M64.763,11.317c-0.342,0.419-0.726,0.647-1.223,0.647c-0.486,0-0.81-0.324-0.81-0.821
			c0-0.93,0.894-1.889,1.793-1.889c0.318,0,0.492,0.156,0.492,0.408c0,0.516-0.63,0.983-1.703,1.122
			c-0.06,0.12-0.06,0.276-0.06,0.366c0,0.33,0.222,0.545,0.558,0.545c0.264,0,0.45-0.096,0.882-0.45L64.763,11.317z M63.354,10.652
			c0.516-0.126,0.744-0.234,0.965-0.444c0.186-0.18,0.3-0.396,0.3-0.582c0-0.144-0.042-0.234-0.21-0.234
			c-0.342,0-0.75,0.462-0.953,0.996L63.354,10.652z"/>
	</g>
	
		<line fill="none" stroke="#0000FF" stroke-width="0.2" stroke-miterlimit="10" stroke-dasharray="2,2" x1="56.841" y1="29.047" x2="33.533" y2="55.875"/>
	<g display="none">
		<g display="inline">
			<path fill="none" stroke="#00B200" stroke-width="0.2" stroke-miterlimit="10" d="M33.533,33.32
				c5.231,0,10.046,1.781,13.872,4.769"/>
			<g>
				<polygon fill="#00B200" points="46.491,38.334 47.199,37.95 47.414,37.175 48.326,38.848 				"/>
			</g>
		</g>
	</g>
	<g display="none">
		<path display="inline" fill="#00B200" d="M43.176,30.013c0.276,0,0.438,0.006,0.606,0.072c0.294,0.114,0.479,0.33,0.479,0.756
			c0,0.695-0.653,1.877-1.835,1.883l-0.324,1.164h-0.468l0.324-1.164c-0.258,0-0.492-0.018-0.642-0.066
			c-0.312-0.102-0.461-0.384-0.461-0.768c0-0.605,0.671-1.877,1.769-1.877h0.09l0.402-1.451h0.461L43.176,30.013z M42.679,30.139
			c-0.696,0-1.319,1.067-1.319,1.913c0,0.251,0.102,0.426,0.288,0.498c0.096,0.036,0.21,0.048,0.348,0.048L42.679,30.139z
			 M42.463,32.597c0.15,0,0.246-0.012,0.414-0.096c0.492-0.246,0.882-1.308,0.882-1.805c0-0.27-0.114-0.42-0.27-0.516
			c-0.06-0.036-0.222-0.042-0.348-0.042L42.463,32.597z"/>
	</g>
	<g>
		<path fill="#0000FF" d="M43.202,40.386c0.276-1.062,0.875-1.739,1.517-1.739c0.318,0,0.911,0,0.911,0.821
			c0,0.924-0.935,1.889-1.787,1.889c-0.138,0-0.27-0.024-0.408-0.102l-0.216,0.846c-0.036,0.144-0.096,0.294-0.186,0.42h-0.468
			c0.084-0.126,0.144-0.264,0.186-0.42L43.202,40.386z M44.701,38.773c-0.336,0-0.726,0.444-0.906,1.085
			c-0.108,0.39-0.276,1.013-0.276,1.163c0,0.126,0.126,0.222,0.294,0.222c0.798-0.012,1.283-1.116,1.283-1.823
			C45.096,39.067,44.958,38.773,44.701,38.773z"/>
	</g>
	<g display="none">
		<path display="inline" d="M48.025,60.185c0.114-0.251,0.318-0.569,0.563-0.827c0.156-0.162,0.336-0.27,0.474-0.27
			c0.168,0,0.282,0.126,0.282,0.306c0,0.18-0.102,0.324-0.282,0.324c-0.108,0-0.156-0.066-0.21-0.156
			c-0.036-0.06-0.054-0.084-0.096-0.084c-0.108,0-0.276,0.198-0.492,0.564c-0.258,0.444-0.366,0.684-0.666,1.691h-0.456l0.485-1.751
			c0.084-0.312,0.096-0.366,0.096-0.492s-0.108-0.156-0.228-0.156c-0.048,0-0.096,0.006-0.186,0.018V59.25l0.929-0.162l0.018,0.012
			l-0.33,1.295L48.025,60.185z"/>
	</g>
</g>
<g id="Layer_4">
	<polygon opacity="0.05" fill="#00B200" points="56.843,67.11 33.532,55.885 33.532,17.833 56.843,29.059 	"/>
	<path opacity="0.05" fill="#FF0000" d="M77.106,36.258c-5.344,5.344-10.515,5.694-17.51,2.834
		c-14.363-5.872-7.73-5.963-13.201-20.945c-2.592-7.099,20.647-5.183,27.189-1.399C78.737,19.73,81.17,32.193,77.106,36.258z"/>
	<path fill="none" stroke="#FF0000" stroke-width="0.5" stroke-miterlimit="10" d="M77.106,36.258
		c-5.344,5.344-10.515,5.694-17.51,2.834c-14.363-5.872-7.73-5.963-13.201-20.945c-2.592-7.099,20.647-5.183,27.189-1.399
		C78.737,19.73,81.17,32.193,77.106,36.258z"/>
	
		<rect x="56.843" y="26.417" opacity="0.15" fill="#FF0000" stroke="#000000" stroke-width="0.1" stroke-linecap="round" stroke-linejoin="round" stroke-miterlimit="10" width="3.648" height="2.629"/>
	
		<rect x="56.843" y="26.417" fill="none" stroke="#FF0000" stroke-width="0.1" stroke-linecap="round" stroke-linejoin="round" stroke-miterlimit="10" width="3.648" height="2.629"/>
	<polygon opacity="0.15" fill="#FF0000" points="60.49,26.417 56.843,26.417 57.995,25.156 61.614,25.156 61.643,25.156 	"/>
	
		<polygon fill="none" stroke="#FF0000" stroke-width="0.1" stroke-linecap="round" stroke-linejoin="round" stroke-miterlimit="10" points="
		60.49,26.417 56.843,26.417 57.995,25.156 61.614,25.156 61.643,25.156 	"/>
	<polygon opacity="0.15" fill="#FF0000" points="60.49,29.047 60.49,26.417 61.643,25.156 61.642,25.156 61.642,27.797 
		61.643,27.786 	"/>
	
		<polygon fill="none" stroke="#FF0000" stroke-width="0.1" stroke-linecap="round" stroke-linejoin="round" stroke-miterlimit="10" points="
		60.49,29.047 60.49,26.417 61.643,25.156 61.642,25.156 61.642,27.797 61.643,27.786 	"/>
	<g>
		<g>
			
				<line fill="none" stroke="#FF0000" stroke-width="0.1" stroke-linecap="round" stroke-linejoin="round" x1="57.995" y1="25.156" x2="57.995" y2="25.656"/>
			
				<line fill="none" stroke="#FF0000" stroke-width="0.1" stroke-linecap="round" stroke-linejoin="round" stroke-dasharray="0.5432,0.5432" x1="57.995" y1="26.2" x2="57.995" y2="27.014"/>
			
				<line fill="none" stroke="#FF0000" stroke-width="0.1" stroke-linecap="round" stroke-linejoin="round" x1="57.995" y1="27.286" x2="57.995" y2="27.786"/>
		</g>
	</g>
	<g>
		<g>
			
				<line fill="none" stroke="#FF0000" stroke-width="0.1" stroke-linecap="round" stroke-linejoin="round" x1="61.643" y1="27.786" x2="61.143" y2="27.786"/>
			
				<line fill="none" stroke="#FF0000" stroke-width="0.1" stroke-linecap="round" stroke-linejoin="round" stroke-dasharray="0.8825,0.8825" x1="60.261" y1="27.786" x2="58.937" y2="27.786"/>
			
				<line fill="none" stroke="#FF0000" stroke-width="0.1" stroke-linecap="round" stroke-linejoin="round" x1="58.495" y1="27.786" x2="57.995" y2="27.786"/>
		</g>
	</g>
	<g>
		<g>
			
				<line fill="none" stroke="#FF0000" stroke-width="0.1" stroke-linecap="round" stroke-linejoin="round" x1="56.843" y1="29.047" x2="57.18" y2="28.678"/>
			
				<line fill="none" stroke="#FF0000" stroke-width="0.1" stroke-linecap="round" stroke-linejoin="round" x1="57.658" y1="28.155" x2="57.995" y2="27.786"/>
		</g>
	</g>
	<g>
		<path fill="#FF0000" d="M62.479,26.825l2.399-4.006h0.156l0.792,4.006H62.479z M64.614,23.671l-1.529,2.591h2.051L64.614,23.671z"
			/>
		<path fill="#FF0000" d="M71.566,23.005c-0.342,0.054-0.402,0.138-0.486,0.444l-0.737,2.656c-0.042,0.15-0.084,0.276-0.084,0.372
			c0,0.156,0.108,0.24,0.486,0.252l-0.006,0.096h-1.625v-0.096c0.39-0.042,0.51-0.144,0.612-0.516l0.755-2.752l-2.254,3.364h-0.102
			l-0.372-3.274l-0.708,2.567c-0.03,0.108-0.054,0.258-0.054,0.324c0,0.168,0.114,0.264,0.419,0.288v0.096h-1.181v-0.096
			c0.312-0.036,0.408-0.132,0.6-0.804l0.684-2.405c0.048-0.162,0.072-0.264,0.072-0.312c0-0.114-0.144-0.186-0.443-0.204v-0.096
			h1.085l0.335,2.951l2.009-2.951h0.995V23.005z"/>
	</g>
	<circle cx="33.532" cy="55.875" r="1.344"/>
	<g>
		<path d="M29.986,55.996c-0.318,0.444-0.582,0.642-0.864,0.642c-0.156,0-0.24-0.096-0.24-0.276c0-0.06,0.018-0.162,0.078-0.396
			l0.348-1.361c0.03-0.12,0.042-0.198,0.042-0.228c0-0.072-0.054-0.125-0.12-0.125c-0.18,0-0.486,0.282-0.786,0.702
			c-0.293,0.414-0.414,0.708-0.647,1.631h-0.45l0.162-0.558c0.264-0.912,0.408-1.547,0.408-1.625c0-0.096-0.054-0.15-0.132-0.15
			c-0.204,0-0.558,0.348-0.894,0.857c-0.204,0.312-0.288,0.528-0.576,1.475h-0.45l0.258-0.863c0.24-0.798,0.33-1.295,0.33-1.368
			c0-0.09-0.084-0.132-0.246-0.132h-0.15v-0.096l0.972-0.186l0.018,0.012L26.7,55.205c0.534-0.869,0.954-1.265,1.319-1.265
			c0.24,0,0.36,0.144,0.36,0.36c0,0.114-0.078,0.45-0.24,0.912c0.42-0.666,0.666-0.966,0.959-1.151
			c0.144-0.09,0.258-0.12,0.378-0.12c0.222,0,0.348,0.162,0.348,0.378c0,0.042-0.012,0.138-0.018,0.168l-0.408,1.505
			c-0.036,0.138-0.06,0.246-0.06,0.27c0,0.066,0.024,0.096,0.072,0.096c0.102,0,0.209-0.096,0.39-0.318l0.126-0.156l0.09,0.072
			L29.986,55.996z"/>
	</g>
	<g>
		<g>
			
				<line fill="none" stroke="#00B200" stroke-width="0.1" stroke-miterlimit="10" x1="56.843" y1="29.047" x2="56.843" y2="30.047"/>
			
				<line fill="none" stroke="#00B200" stroke-width="0.1" stroke-miterlimit="10" stroke-dasharray="1.8987,1.8987" x1="56.843" y1="31.945" x2="56.843" y2="65.173"/>
			
				<line fill="none" stroke="#00B200" stroke-width="0.1" stroke-miterlimit="10" x1="56.843" y1="66.123" x2="56.843" y2="67.123"/>
		</g>
	</g>
	<g>
		<g>
			
				<line fill="none" stroke="#00B200" stroke-width="0.1" stroke-miterlimit="10" x1="68.054" y1="55.875" x2="67.348" y2="56.583"/>
			
				<line fill="none" stroke="#00B200" stroke-width="0.1" stroke-miterlimit="10" stroke-dasharray="1.983,1.983" x1="65.948" y1="57.987" x2="58.249" y2="65.712"/>
			
				<line fill="none" stroke="#00B200" stroke-width="0.1" stroke-miterlimit="10" x1="57.549" y1="66.414" x2="56.843" y2="67.123"/>
		</g>
	</g>
	<g>
		<g>
			
				<line fill="none" stroke="#00B200" stroke-width="0.1" stroke-miterlimit="10" x1="22.285" y1="67.123" x2="23.285" y2="67.123"/>
			
				<line fill="none" stroke="#00B200" stroke-width="0.1" stroke-miterlimit="10" stroke-dasharray="1.9151,1.9151" x1="25.2" y1="67.123" x2="54.885" y2="67.123"/>
			
				<line fill="none" stroke="#00B200" stroke-width="0.1" stroke-miterlimit="10" x1="55.843" y1="67.123" x2="56.843" y2="67.123"/>
		</g>
	</g>
	<g>
		<path fill="#00B200" d="M19.507,65.794c0.419-0.642,0.642-0.857,0.905-0.857c0.144,0,0.246,0.09,0.246,0.222
			c0,0.126-0.084,0.216-0.204,0.216c-0.114,0-0.168-0.102-0.312-0.102c-0.108,0-0.324,0.264-0.588,0.726
			c0,0.042,0.012,0.126,0.048,0.27l0.192,0.804c0.042,0.168,0.096,0.246,0.18,0.246c0.078,0,0.144-0.06,0.282-0.24
			c0.054-0.072,0.078-0.108,0.126-0.168l0.09,0.054c-0.348,0.54-0.504,0.684-0.731,0.684c-0.192,0-0.282-0.108-0.354-0.408
			l-0.174-0.714l-0.528,0.714c-0.264,0.354-0.384,0.408-0.57,0.408c-0.186,0-0.3-0.096-0.3-0.252c0-0.12,0.084-0.216,0.204-0.216
			c0.054,0,0.114,0.024,0.192,0.066c0.06,0.036,0.12,0.054,0.156,0.054c0.066,0,0.18-0.114,0.306-0.294l0.492-0.696l-0.168-0.743
			c-0.084-0.36-0.126-0.408-0.276-0.408c-0.048,0-0.12,0.012-0.234,0.042l-0.108,0.03l-0.018-0.096l0.066-0.024
			c0.366-0.132,0.564-0.174,0.702-0.174c0.15,0,0.222,0.108,0.306,0.516L19.507,65.794z"/>
	</g>
	<g>
		<path fill="#00B200" d="M68.389,53.482c0.51-0.846,0.732-1.277,0.732-1.542c0-0.084-0.042-0.12-0.156-0.192
			c-0.12-0.078-0.156-0.138-0.156-0.234c0-0.132,0.102-0.222,0.24-0.222c0.18,0,0.312,0.15,0.312,0.33
			c0,0.342-0.288,1.001-0.786,1.829c-0.624,1.032-1.265,1.721-1.607,1.721c-0.18,0-0.306-0.102-0.306-0.258
			c0-0.132,0.102-0.24,0.234-0.24c0.21,0,0.21,0.167,0.366,0.167c0.078,0,0.15-0.048,0.288-0.198
			c0.108-0.114,0.378-0.468,0.426-0.545c0.036-0.072,0.06-0.144,0.06-0.21c0-0.24-0.33-1.583-0.492-1.991
			c-0.114-0.293-0.222-0.384-0.462-0.384c-0.066,0-0.12,0.006-0.186,0.024v-0.102c0.066-0.012,0.132-0.024,0.192-0.036
			c0.12-0.024,0.318-0.06,0.642-0.108h0.024c0.09,0,0.408,0.996,0.51,1.529L68.389,53.482z"/>
	</g>
	<g>
		<path fill="#00B200" d="M30.564,18.107c0.348,0.078,0.479,0.144,0.719,0.498c0.156,0.228,0.27,0.3,0.42,0.3
			c0.096,0,0.162-0.036,0.162-0.09c0-0.024-0.012-0.054-0.03-0.09c-0.036-0.072-0.048-0.12-0.048-0.167
			c0.006-0.102,0.102-0.204,0.198-0.204c0.126,0,0.21,0.09,0.21,0.222c0,0.24-0.222,0.456-0.558,0.456
			c-0.174,0-0.378-0.078-0.678-0.264c-0.282-0.174-0.474-0.251-0.629-0.251c-0.096,0-0.174,0.03-0.27,0.108l-0.054-0.054
			l1.859-2.231H31.05c-0.312,0-0.426,0.054-0.545,0.36l-0.096-0.024l0.192-0.695h1.697v0.066L30.564,18.107z"/>
	</g>
	<g>
		<path fill="#FF0000" d="M75.047,10.637c-0.342,0.054-0.402,0.138-0.486,0.444l-0.737,2.656c-0.042,0.15-0.084,0.276-0.084,0.372
			c0,0.156,0.108,0.24,0.486,0.252l-0.006,0.096h-1.625v-0.096c0.39-0.042,0.51-0.144,0.612-0.516l0.755-2.752l-2.254,3.364h-0.102
			l-0.372-3.274l-0.708,2.567c-0.03,0.108-0.054,0.258-0.054,0.324c0,0.168,0.114,0.264,0.419,0.288v0.096H69.71v-0.096
			c0.312-0.036,0.408-0.132,0.6-0.804l0.684-2.405c0.048-0.162,0.072-0.264,0.072-0.312c0-0.114-0.144-0.186-0.443-0.204v-0.096
			h1.085l0.335,2.951l2.009-2.951h0.995V10.637z"/>
	</g>
	<g>
	</g>
</g>
</svg>
