<?xml version="1.0" encoding="utf-8"?>
<!-- Generator: Adobe Illustrator 25.4.1, SVG Export Plug-In . SVG Version: 6.00 Build 0)  -->
<svg version="1.1" xmlns="http://www.w3.org/2000/svg" xmlns:xlink="http://www.w3.org/1999/xlink" x="0px" y="0px"
	 viewBox="0 0 86.466 85.133" enable-background="new 0 0 86.466 85.133" xml:space="preserve">
<g id="Graph_paper_slanted" opacity="0.5">
	<g id="Clipped_grid_00000003068028900943026870000011536296927355263674_">
		<defs>
			<polygon id="SVGID_1_" points="60.634,85.133 -50.265,85.133 8.065,26.803 118.964,26.803 			"/>
		</defs>
		<clipPath id="SVGID_00000104706907781213870890000007770439869186300332_">
			<use xlink:href="#SVGID_1_"  overflow="visible"/>
		</clipPath>
		
			<g id="Grid_00000142891597197125820610000009767860333217090727_" opacity="0.25" clip-path="url(#SVGID_00000104706907781213870890000007770439869186300332_)">
			<g id="Horizontal_1_mm_00000151508609497893311650000018408800186222605470_">
				
					<line fill="none" stroke="#00ABEB" stroke-width="0.15" stroke-miterlimit="10" x1="-21.465" y1="-2.336" x2="205.376" y2="-2.336"/>
				
					<line fill="none" stroke="#00ABEB" stroke-width="0.15" stroke-miterlimit="10" x1="-19.477" y1="-4.324" x2="207.364" y2="-4.324"/>
				
					<line fill="none" stroke="#00ABEB" stroke-width="0.15" stroke-miterlimit="10" x1="-138.754" y1="114.952" x2="88.087" y2="114.952"/>
				
					<line fill="none" stroke="#00ABEB" stroke-width="0.15" stroke-miterlimit="10" x1="-136.765" y1="112.964" x2="90.075" y2="112.964"/>
				
					<line fill="none" stroke="#00ABEB" stroke-width="0.15" stroke-miterlimit="10" x1="-134.778" y1="110.976" x2="92.063" y2="110.976"/>
				
					<line fill="none" stroke="#00ABEB" stroke-width="0.15" stroke-miterlimit="10" x1="-132.79" y1="108.988" x2="94.051" y2="108.988"/>
				<line fill="none" stroke="#00ABEB" stroke-width="0.15" stroke-miterlimit="10" x1="-130.802" y1="107" x2="96.039" y2="107"/>
				
					<line fill="none" stroke="#00ABEB" stroke-width="0.15" stroke-miterlimit="10" x1="-128.814" y1="105.012" x2="98.027" y2="105.012"/>
				
					<line fill="none" stroke="#00ABEB" stroke-width="0.15" stroke-miterlimit="10" x1="-126.826" y1="103.024" x2="100.015" y2="103.024"/>
				
					<line fill="none" stroke="#00ABEB" stroke-width="0.15" stroke-miterlimit="10" x1="-124.839" y1="101.037" x2="102.002" y2="101.037"/>
				
					<line fill="none" stroke="#00ABEB" stroke-width="0.15" stroke-miterlimit="10" x1="-122.85" y1="99.048" x2="103.991" y2="99.048"/>
				
					<line fill="none" stroke="#00ABEB" stroke-width="0.15" stroke-miterlimit="10" x1="-120.862" y1="97.06" x2="105.979" y2="97.06"/>
				
					<line fill="none" stroke="#00ABEB" stroke-width="0.15" stroke-miterlimit="10" x1="-118.874" y1="95.073" x2="107.967" y2="95.073"/>
				
					<line fill="none" stroke="#00ABEB" stroke-width="0.15" stroke-miterlimit="10" x1="-116.886" y1="93.085" x2="109.955" y2="93.085"/>
				
					<line fill="none" stroke="#00ABEB" stroke-width="0.15" stroke-miterlimit="10" x1="-114.898" y1="91.096" x2="111.943" y2="91.096"/>
				
					<line fill="none" stroke="#00ABEB" stroke-width="0.15" stroke-miterlimit="10" x1="-112.911" y1="89.109" x2="113.93" y2="89.109"/>
				
					<line fill="none" stroke="#00ABEB" stroke-width="0.15" stroke-miterlimit="10" x1="-110.922" y1="87.121" x2="115.919" y2="87.121"/>
				
					<line fill="none" stroke="#00ABEB" stroke-width="0.15" stroke-miterlimit="10" x1="-108.934" y1="85.133" x2="117.907" y2="85.133"/>
				
					<line fill="none" stroke="#00ABEB" stroke-width="0.15" stroke-miterlimit="10" x1="-106.947" y1="83.145" x2="119.894" y2="83.145"/>
				
					<line fill="none" stroke="#00ABEB" stroke-width="0.15" stroke-miterlimit="10" x1="-104.959" y1="81.157" x2="121.882" y2="81.157"/>
				
					<line fill="none" stroke="#00ABEB" stroke-width="0.15" stroke-miterlimit="10" x1="-102.97" y1="79.169" x2="123.871" y2="79.169"/>
				
					<line fill="none" stroke="#00ABEB" stroke-width="0.15" stroke-miterlimit="10" x1="-100.983" y1="77.181" x2="125.858" y2="77.181"/>
				
					<line fill="none" stroke="#00ABEB" stroke-width="0.15" stroke-miterlimit="10" x1="-98.995" y1="75.193" x2="127.846" y2="75.193"/>
				
					<line fill="none" stroke="#00ABEB" stroke-width="0.15" stroke-miterlimit="10" x1="-97.006" y1="73.205" x2="129.835" y2="73.205"/>
				
					<line fill="none" stroke="#00ABEB" stroke-width="0.15" stroke-miterlimit="10" x1="-95.019" y1="71.217" x2="131.822" y2="71.217"/>
				
					<line fill="none" stroke="#00ABEB" stroke-width="0.15" stroke-miterlimit="10" x1="-93.031" y1="69.229" x2="133.81" y2="69.229"/>
				
					<line fill="none" stroke="#00ABEB" stroke-width="0.15" stroke-miterlimit="10" x1="-91.043" y1="67.242" x2="135.798" y2="67.242"/>
				
					<line fill="none" stroke="#00ABEB" stroke-width="0.15" stroke-miterlimit="10" x1="-89.055" y1="65.253" x2="137.786" y2="65.253"/>
				
					<line fill="none" stroke="#00ABEB" stroke-width="0.15" stroke-miterlimit="10" x1="-87.067" y1="63.265" x2="139.774" y2="63.265"/>
				
					<line fill="none" stroke="#00ABEB" stroke-width="0.15" stroke-miterlimit="10" x1="-85.079" y1="61.278" x2="141.762" y2="61.278"/>
				
					<line fill="none" stroke="#00ABEB" stroke-width="0.15" stroke-miterlimit="10" x1="-83.091" y1="59.29" x2="143.75" y2="59.29"/>
				
					<line fill="none" stroke="#00ABEB" stroke-width="0.15" stroke-miterlimit="10" x1="-81.103" y1="57.302" x2="145.738" y2="57.302"/>
				
					<line fill="none" stroke="#00ABEB" stroke-width="0.15" stroke-miterlimit="10" x1="-79.115" y1="55.314" x2="147.725" y2="55.314"/>
				
					<line fill="none" stroke="#00ABEB" stroke-width="0.15" stroke-miterlimit="10" x1="-77.127" y1="53.326" x2="149.714" y2="53.326"/>
				
					<line fill="none" stroke="#00ABEB" stroke-width="0.15" stroke-miterlimit="10" x1="-75.139" y1="51.338" x2="151.702" y2="51.338"/>
				
					<line fill="none" stroke="#00ABEB" stroke-width="0.15" stroke-miterlimit="10" x1="-73.152" y1="49.35" x2="153.689" y2="49.35"/>
				
					<line fill="none" stroke="#00ABEB" stroke-width="0.15" stroke-miterlimit="10" x1="-71.163" y1="47.362" x2="155.677" y2="47.362"/>
				
					<line fill="none" stroke="#00ABEB" stroke-width="0.15" stroke-miterlimit="10" x1="-69.175" y1="45.374" x2="157.665" y2="45.374"/>
				
					<line fill="none" stroke="#00ABEB" stroke-width="0.15" stroke-miterlimit="10" x1="-67.188" y1="43.387" x2="159.653" y2="43.387"/>
				
					<line fill="none" stroke="#00ABEB" stroke-width="0.15" stroke-miterlimit="10" x1="-65.2" y1="41.398" x2="161.641" y2="41.398"/>
				
					<line fill="none" stroke="#00ABEB" stroke-width="0.15" stroke-miterlimit="10" x1="-63.212" y1="39.41" x2="163.629" y2="39.41"/>
				
					<line fill="none" stroke="#00ABEB" stroke-width="0.15" stroke-miterlimit="10" x1="-61.224" y1="37.423" x2="165.617" y2="37.423"/>
				
					<line fill="none" stroke="#00ABEB" stroke-width="0.15" stroke-miterlimit="10" x1="-59.236" y1="35.434" x2="167.605" y2="35.434"/>
				
					<line fill="none" stroke="#00ABEB" stroke-width="0.15" stroke-miterlimit="10" x1="-57.248" y1="33.447" x2="169.593" y2="33.447"/>
				
					<line fill="none" stroke="#00ABEB" stroke-width="0.15" stroke-miterlimit="10" x1="-55.26" y1="31.459" x2="171.581" y2="31.459"/>
				
					<line fill="none" stroke="#00ABEB" stroke-width="0.15" stroke-miterlimit="10" x1="-53.272" y1="29.47" x2="173.569" y2="29.47"/>
				
					<line fill="none" stroke="#00ABEB" stroke-width="0.15" stroke-miterlimit="10" x1="-51.284" y1="27.483" x2="175.557" y2="27.483"/>
				
					<line fill="none" stroke="#00ABEB" stroke-width="0.15" stroke-miterlimit="10" x1="-49.296" y1="25.495" x2="177.545" y2="25.495"/>
				
					<line fill="none" stroke="#00ABEB" stroke-width="0.15" stroke-miterlimit="10" x1="-47.308" y1="23.507" x2="179.533" y2="23.507"/>
				
					<line fill="none" stroke="#00ABEB" stroke-width="0.15" stroke-miterlimit="10" x1="-45.32" y1="21.519" x2="181.52" y2="21.519"/>
				
					<line fill="none" stroke="#00ABEB" stroke-width="0.15" stroke-miterlimit="10" x1="-43.332" y1="19.531" x2="183.509" y2="19.531"/>
				
					<line fill="none" stroke="#00ABEB" stroke-width="0.15" stroke-miterlimit="10" x1="-41.344" y1="17.543" x2="185.497" y2="17.543"/>
				
					<line fill="none" stroke="#00ABEB" stroke-width="0.15" stroke-miterlimit="10" x1="-39.357" y1="15.555" x2="187.484" y2="15.555"/>
				
					<line fill="none" stroke="#00ABEB" stroke-width="0.15" stroke-miterlimit="10" x1="-37.368" y1="13.567" x2="189.472" y2="13.567"/>
				
					<line fill="none" stroke="#00ABEB" stroke-width="0.15" stroke-miterlimit="10" x1="-35.38" y1="11.579" x2="191.461" y2="11.579"/>
				
					<line fill="none" stroke="#00ABEB" stroke-width="0.15" stroke-miterlimit="10" x1="-33.393" y1="9.592" x2="193.448" y2="9.592"/>
				
					<line fill="none" stroke="#00ABEB" stroke-width="0.15" stroke-miterlimit="10" x1="-31.404" y1="7.603" x2="195.437" y2="7.603"/>
				
					<line fill="none" stroke="#00ABEB" stroke-width="0.15" stroke-miterlimit="10" x1="-29.417" y1="5.616" x2="197.424" y2="5.616"/>
				
					<line fill="none" stroke="#00ABEB" stroke-width="0.15" stroke-miterlimit="10" x1="-27.429" y1="3.628" x2="199.412" y2="3.628"/>
				<line fill="none" stroke="#00ABEB" stroke-width="0.15" stroke-miterlimit="10" x1="-25.44" y1="1.639" x2="201.4" y2="1.639"/>
				
					<line fill="none" stroke="#00ABEB" stroke-width="0.15" stroke-miterlimit="10" x1="-23.453" y1="-0.348" x2="203.388" y2="-0.348"/>
			</g>
			<g id="Vertical_1_mm_00000181073523592228201180000012361058669048395659_">
				<g>
					
						<line fill="none" stroke="#00ABEB" stroke-width="0.15" stroke-miterlimit="10" x1="-138.669" y1="114.942" x2="-19.349" y2="-4.377"/>
				</g>
				
					<line fill="none" stroke="#00ABEB" stroke-width="0.15" stroke-miterlimit="10" x1="-135.835" y1="114.942" x2="-16.515" y2="-4.377"/>
				
					<line fill="none" stroke="#00ABEB" stroke-width="0.15" stroke-miterlimit="10" x1="-133" y1="114.942" x2="-13.68" y2="-4.377"/>
				
					<line fill="none" stroke="#00ABEB" stroke-width="0.15" stroke-miterlimit="10" x1="-130.165" y1="114.942" x2="-10.845" y2="-4.377"/>
				
					<line fill="none" stroke="#00ABEB" stroke-width="0.15" stroke-miterlimit="10" x1="-127.331" y1="114.942" x2="-8.011" y2="-4.377"/>
				
					<line fill="none" stroke="#00ABEB" stroke-width="0.15" stroke-miterlimit="10" x1="-124.496" y1="114.942" x2="-5.176" y2="-4.377"/>
				
					<line fill="none" stroke="#00ABEB" stroke-width="0.15" stroke-miterlimit="10" x1="-121.661" y1="114.942" x2="-2.341" y2="-4.377"/>
				
					<line fill="none" stroke="#00ABEB" stroke-width="0.15" stroke-miterlimit="10" x1="-118.827" y1="114.942" x2="0.493" y2="-4.377"/>
				
					<line fill="none" stroke="#00ABEB" stroke-width="0.15" stroke-miterlimit="10" x1="-115.991" y1="114.942" x2="3.329" y2="-4.377"/>
				
					<line fill="none" stroke="#00ABEB" stroke-width="0.15" stroke-miterlimit="10" x1="-113.157" y1="114.942" x2="6.163" y2="-4.377"/>
				
					<line fill="none" stroke="#00ABEB" stroke-width="0.15" stroke-miterlimit="10" x1="-110.323" y1="114.942" x2="8.997" y2="-4.377"/>
				
					<line fill="none" stroke="#00ABEB" stroke-width="0.15" stroke-miterlimit="10" x1="-107.488" y1="114.942" x2="11.832" y2="-4.377"/>
				
					<line fill="none" stroke="#00ABEB" stroke-width="0.15" stroke-miterlimit="10" x1="-104.654" y1="114.942" x2="14.666" y2="-4.377"/>
				
					<line fill="none" stroke="#00ABEB" stroke-width="0.15" stroke-miterlimit="10" x1="-101.819" y1="114.942" x2="17.501" y2="-4.377"/>
				
					<line fill="none" stroke="#00ABEB" stroke-width="0.15" stroke-miterlimit="10" x1="-98.984" y1="114.942" x2="20.336" y2="-4.377"/>
				
					<line fill="none" stroke="#00ABEB" stroke-width="0.15" stroke-miterlimit="10" x1="-96.15" y1="114.942" x2="23.17" y2="-4.377"/>
				
					<line fill="none" stroke="#00ABEB" stroke-width="0.15" stroke-miterlimit="10" x1="-93.315" y1="114.942" x2="26.005" y2="-4.377"/>
				
					<line fill="none" stroke="#00ABEB" stroke-width="0.15" stroke-miterlimit="10" x1="-90.48" y1="114.942" x2="28.84" y2="-4.377"/>
				
					<line fill="none" stroke="#00ABEB" stroke-width="0.15" stroke-miterlimit="10" x1="-87.646" y1="114.942" x2="31.674" y2="-4.377"/>
				
					<line fill="none" stroke="#00ABEB" stroke-width="0.15" stroke-miterlimit="10" x1="-84.811" y1="114.942" x2="34.509" y2="-4.377"/>
				
					<line fill="none" stroke="#00ABEB" stroke-width="0.15" stroke-miterlimit="10" x1="-81.976" y1="114.942" x2="37.344" y2="-4.377"/>
				
					<line fill="none" stroke="#00ABEB" stroke-width="0.15" stroke-miterlimit="10" x1="-79.142" y1="114.942" x2="40.178" y2="-4.377"/>
				
					<line fill="none" stroke="#00ABEB" stroke-width="0.15" stroke-miterlimit="10" x1="-76.307" y1="114.942" x2="43.013" y2="-4.377"/>
				
					<line fill="none" stroke="#00ABEB" stroke-width="0.15" stroke-miterlimit="10" x1="-73.472" y1="114.942" x2="45.848" y2="-4.377"/>
				
					<line fill="none" stroke="#00ABEB" stroke-width="0.15" stroke-miterlimit="10" x1="-70.637" y1="114.942" x2="48.683" y2="-4.377"/>
				
					<line fill="none" stroke="#00ABEB" stroke-width="0.15" stroke-miterlimit="10" x1="-67.802" y1="114.942" x2="51.518" y2="-4.377"/>
				
					<line fill="none" stroke="#00ABEB" stroke-width="0.15" stroke-miterlimit="10" x1="-64.969" y1="114.942" x2="54.351" y2="-4.377"/>
				
					<line fill="none" stroke="#00ABEB" stroke-width="0.15" stroke-miterlimit="10" x1="-62.134" y1="114.942" x2="57.186" y2="-4.377"/>
				
					<line fill="none" stroke="#00ABEB" stroke-width="0.15" stroke-miterlimit="10" x1="-59.299" y1="114.942" x2="60.021" y2="-4.377"/>
				
					<line fill="none" stroke="#00ABEB" stroke-width="0.15" stroke-miterlimit="10" x1="-56.465" y1="114.942" x2="62.855" y2="-4.377"/>
				
					<line fill="none" stroke="#00ABEB" stroke-width="0.15" stroke-miterlimit="10" x1="-53.63" y1="114.942" x2="65.69" y2="-4.377"/>
				
					<line fill="none" stroke="#00ABEB" stroke-width="0.15" stroke-miterlimit="10" x1="-50.795" y1="114.942" x2="68.525" y2="-4.377"/>
				
					<line fill="none" stroke="#00ABEB" stroke-width="0.15" stroke-miterlimit="10" x1="-47.961" y1="114.942" x2="71.359" y2="-4.377"/>
				
					<line fill="none" stroke="#00ABEB" stroke-width="0.15" stroke-miterlimit="10" x1="-45.126" y1="114.942" x2="74.194" y2="-4.377"/>
				
					<line fill="none" stroke="#00ABEB" stroke-width="0.15" stroke-miterlimit="10" x1="-42.291" y1="114.942" x2="77.029" y2="-4.377"/>
				
					<line fill="none" stroke="#00ABEB" stroke-width="0.15" stroke-miterlimit="10" x1="-39.457" y1="114.942" x2="79.863" y2="-4.377"/>
				
					<line fill="none" stroke="#00ABEB" stroke-width="0.15" stroke-miterlimit="10" x1="-36.622" y1="114.942" x2="82.698" y2="-4.377"/>
				
					<line fill="none" stroke="#00ABEB" stroke-width="0.15" stroke-miterlimit="10" x1="-33.787" y1="114.942" x2="85.533" y2="-4.377"/>
				
					<line fill="none" stroke="#00ABEB" stroke-width="0.15" stroke-miterlimit="10" x1="-30.953" y1="114.942" x2="88.367" y2="-4.377"/>
				
					<line fill="none" stroke="#00ABEB" stroke-width="0.15" stroke-miterlimit="10" x1="-28.118" y1="114.942" x2="91.202" y2="-4.377"/>
				
					<line fill="none" stroke="#00ABEB" stroke-width="0.15" stroke-miterlimit="10" x1="-25.284" y1="114.942" x2="94.036" y2="-4.377"/>
				
					<line fill="none" stroke="#00ABEB" stroke-width="0.15" stroke-miterlimit="10" x1="-22.448" y1="114.942" x2="96.871" y2="-4.377"/>
				
					<line fill="none" stroke="#00ABEB" stroke-width="0.15" stroke-miterlimit="10" x1="-19.614" y1="114.942" x2="99.706" y2="-4.377"/>
				
					<line fill="none" stroke="#00ABEB" stroke-width="0.15" stroke-miterlimit="10" x1="-16.78" y1="114.942" x2="102.54" y2="-4.377"/>
				
					<line fill="none" stroke="#00ABEB" stroke-width="0.15" stroke-miterlimit="10" x1="-13.945" y1="114.942" x2="105.375" y2="-4.377"/>
				
					<line fill="none" stroke="#00ABEB" stroke-width="0.15" stroke-miterlimit="10" x1="-11.11" y1="114.942" x2="108.21" y2="-4.377"/>
				
					<line fill="none" stroke="#00ABEB" stroke-width="0.15" stroke-miterlimit="10" x1="-8.276" y1="114.942" x2="111.044" y2="-4.377"/>
				
					<line fill="none" stroke="#00ABEB" stroke-width="0.15" stroke-miterlimit="10" x1="-5.441" y1="114.942" x2="113.879" y2="-4.377"/>
				
					<line fill="none" stroke="#00ABEB" stroke-width="0.15" stroke-miterlimit="10" x1="-2.606" y1="114.942" x2="116.714" y2="-4.377"/>
				
					<line fill="none" stroke="#00ABEB" stroke-width="0.15" stroke-miterlimit="10" x1="0.228" y1="114.942" x2="119.548" y2="-4.377"/>
				
					<line fill="none" stroke="#00ABEB" stroke-width="0.15" stroke-miterlimit="10" x1="3.063" y1="114.942" x2="122.383" y2="-4.377"/>
				
					<line fill="none" stroke="#00ABEB" stroke-width="0.15" stroke-miterlimit="10" x1="5.898" y1="114.942" x2="125.218" y2="-4.377"/>
				
					<line fill="none" stroke="#00ABEB" stroke-width="0.15" stroke-miterlimit="10" x1="8.732" y1="114.942" x2="128.052" y2="-4.377"/>
				
					<line fill="none" stroke="#00ABEB" stroke-width="0.15" stroke-miterlimit="10" x1="11.567" y1="114.942" x2="130.887" y2="-4.377"/>
				
					<line fill="none" stroke="#00ABEB" stroke-width="0.15" stroke-miterlimit="10" x1="14.402" y1="114.942" x2="133.722" y2="-4.377"/>
				
					<line fill="none" stroke="#00ABEB" stroke-width="0.15" stroke-miterlimit="10" x1="17.236" y1="114.942" x2="136.556" y2="-4.377"/>
				
					<line fill="none" stroke="#00ABEB" stroke-width="0.15" stroke-miterlimit="10" x1="20.072" y1="114.942" x2="139.391" y2="-4.377"/>
				
					<line fill="none" stroke="#00ABEB" stroke-width="0.15" stroke-miterlimit="10" x1="22.906" y1="114.942" x2="142.225" y2="-4.377"/>
				
					<line fill="none" stroke="#00ABEB" stroke-width="0.15" stroke-miterlimit="10" x1="25.74" y1="114.942" x2="145.06" y2="-4.377"/>
				
					<line fill="none" stroke="#00ABEB" stroke-width="0.15" stroke-miterlimit="10" x1="28.575" y1="114.942" x2="147.895" y2="-4.377"/>
				
					<line fill="none" stroke="#00ABEB" stroke-width="0.15" stroke-miterlimit="10" x1="31.409" y1="114.942" x2="150.729" y2="-4.377"/>
				
					<line fill="none" stroke="#00ABEB" stroke-width="0.15" stroke-miterlimit="10" x1="34.244" y1="114.942" x2="153.564" y2="-4.377"/>
				
					<line fill="none" stroke="#00ABEB" stroke-width="0.15" stroke-miterlimit="10" x1="37.079" y1="114.942" x2="156.399" y2="-4.377"/>
				
					<line fill="none" stroke="#00ABEB" stroke-width="0.15" stroke-miterlimit="10" x1="39.913" y1="114.942" x2="159.233" y2="-4.377"/>
				
					<line fill="none" stroke="#00ABEB" stroke-width="0.15" stroke-miterlimit="10" x1="42.748" y1="114.942" x2="162.068" y2="-4.377"/>
				
					<line fill="none" stroke="#00ABEB" stroke-width="0.15" stroke-miterlimit="10" x1="45.583" y1="114.942" x2="164.903" y2="-4.377"/>
				
					<line fill="none" stroke="#00ABEB" stroke-width="0.15" stroke-miterlimit="10" x1="48.417" y1="114.942" x2="167.737" y2="-4.377"/>
				
					<line fill="none" stroke="#00ABEB" stroke-width="0.15" stroke-miterlimit="10" x1="51.252" y1="114.942" x2="170.572" y2="-4.377"/>
				
					<line fill="none" stroke="#00ABEB" stroke-width="0.15" stroke-miterlimit="10" x1="54.087" y1="114.942" x2="173.407" y2="-4.377"/>
				
					<line fill="none" stroke="#00ABEB" stroke-width="0.15" stroke-miterlimit="10" x1="56.921" y1="114.942" x2="176.241" y2="-4.377"/>
				
					<line fill="none" stroke="#00ABEB" stroke-width="0.15" stroke-miterlimit="10" x1="59.756" y1="114.942" x2="179.076" y2="-4.377"/>
				
					<line fill="none" stroke="#00ABEB" stroke-width="0.15" stroke-miterlimit="10" x1="62.591" y1="114.942" x2="181.911" y2="-4.377"/>
				
					<line fill="none" stroke="#00ABEB" stroke-width="0.15" stroke-miterlimit="10" x1="65.426" y1="114.942" x2="184.745" y2="-4.377"/>
				
					<line fill="none" stroke="#00ABEB" stroke-width="0.15" stroke-miterlimit="10" x1="68.26" y1="114.942" x2="187.58" y2="-4.377"/>
				
					<line fill="none" stroke="#00ABEB" stroke-width="0.15" stroke-miterlimit="10" x1="71.094" y1="114.942" x2="190.414" y2="-4.377"/>
				
					<line fill="none" stroke="#00ABEB" stroke-width="0.15" stroke-miterlimit="10" x1="73.929" y1="114.942" x2="193.249" y2="-4.377"/>
				
					<line fill="none" stroke="#00ABEB" stroke-width="0.15" stroke-miterlimit="10" x1="76.764" y1="114.942" x2="196.084" y2="-4.377"/>
				
					<line fill="none" stroke="#00ABEB" stroke-width="0.15" stroke-miterlimit="10" x1="79.598" y1="114.942" x2="198.918" y2="-4.377"/>
				
					<line fill="none" stroke="#00ABEB" stroke-width="0.15" stroke-miterlimit="10" x1="82.433" y1="114.942" x2="201.753" y2="-4.377"/>
				
					<line fill="none" stroke="#00ABEB" stroke-width="0.15" stroke-miterlimit="10" x1="85.268" y1="114.942" x2="204.588" y2="-4.377"/>
				
					<line fill="none" stroke="#00ABEB" stroke-width="0.15" stroke-miterlimit="10" x1="88.102" y1="114.942" x2="207.422" y2="-4.377"/>
			</g>
			<g id="Horizontal_5_mm_00000011735556503592991880000008134099091165005186_">
				
					<line fill="none" stroke="#00ABEB" stroke-width="0.3" stroke-miterlimit="10" x1="-139.029" y1="114.952" x2="88.087" y2="114.952"/>
				
					<line fill="none" stroke="#00ABEB" stroke-width="0.3" stroke-miterlimit="10" x1="-129.089" y1="105.012" x2="98.027" y2="105.012"/>
				
					<line fill="none" stroke="#00ABEB" stroke-width="0.3" stroke-miterlimit="10" x1="-119.149" y1="95.073" x2="107.967" y2="95.073"/>
				
					<line fill="none" stroke="#00ABEB" stroke-width="0.3" stroke-miterlimit="10" x1="-109.209" y1="85.133" x2="117.907" y2="85.133"/>
				
					<line fill="none" stroke="#00ABEB" stroke-width="0.3" stroke-miterlimit="10" x1="-99.27" y1="75.193" x2="127.846" y2="75.193"/>
				
					<line fill="none" stroke="#00ABEB" stroke-width="0.3" stroke-miterlimit="10" x1="-89.33" y1="65.253" x2="137.786" y2="65.253"/>
				
					<line fill="none" stroke="#00ABEB" stroke-width="0.3" stroke-miterlimit="10" x1="-79.39" y1="55.314" x2="147.725" y2="55.314"/>
				
					<line fill="none" stroke="#00ABEB" stroke-width="0.3" stroke-miterlimit="10" x1="-69.45" y1="45.374" x2="157.665" y2="45.374"/>
				
					<line fill="none" stroke="#00ABEB" stroke-width="0.3" stroke-miterlimit="10" x1="-59.51" y1="35.434" x2="167.605" y2="35.434"/>
				
					<line fill="none" stroke="#00ABEB" stroke-width="0.3" stroke-miterlimit="10" x1="-49.571" y1="25.495" x2="177.545" y2="25.495"/>
				
					<line fill="none" stroke="#00ABEB" stroke-width="0.3" stroke-miterlimit="10" x1="-39.631" y1="15.555" x2="187.484" y2="15.555"/>
			</g>
			<g id="Vertical_5_mm_00000064346364918789686960000003233481195482251947_">
				
					<line fill="none" stroke="#00ABEB" stroke-width="0.3" stroke-miterlimit="10" x1="-138.669" y1="114.942" x2="-19.156" y2="-4.57"/>
				
					<line fill="none" stroke="#00ABEB" stroke-width="0.3" stroke-miterlimit="10" x1="-124.496" y1="114.942" x2="-4.983" y2="-4.57"/>
				
					<line fill="none" stroke="#00ABEB" stroke-width="0.3" stroke-miterlimit="10" x1="-110.323" y1="114.942" x2="9.19" y2="-4.57"/>
				
					<line fill="none" stroke="#00ABEB" stroke-width="0.3" stroke-miterlimit="10" x1="-96.15" y1="114.942" x2="23.363" y2="-4.57"/>
				
					<line fill="none" stroke="#00ABEB" stroke-width="0.3" stroke-miterlimit="10" x1="-81.976" y1="114.942" x2="37.537" y2="-4.57"/>
				
					<line fill="none" stroke="#00ABEB" stroke-width="0.3" stroke-miterlimit="10" x1="-67.802" y1="114.942" x2="51.71" y2="-4.57"/>
				
					<line fill="none" stroke="#00ABEB" stroke-width="0.3" stroke-miterlimit="10" x1="-53.63" y1="114.942" x2="65.883" y2="-4.57"/>
				
					<line fill="none" stroke="#00ABEB" stroke-width="0.3" stroke-miterlimit="10" x1="-39.457" y1="114.942" x2="80.056" y2="-4.57"/>
				
					<line fill="none" stroke="#00ABEB" stroke-width="0.3" stroke-miterlimit="10" x1="-25.284" y1="114.942" x2="94.229" y2="-4.57"/>
				
					<line fill="none" stroke="#00ABEB" stroke-width="0.3" stroke-miterlimit="10" x1="-11.11" y1="114.942" x2="108.403" y2="-4.57"/>
				
					<line fill="none" stroke="#00ABEB" stroke-width="0.3" stroke-miterlimit="10" x1="3.063" y1="114.942" x2="122.576" y2="-4.57"/>
				
					<line fill="none" stroke="#00ABEB" stroke-width="0.3" stroke-miterlimit="10" x1="17.236" y1="114.942" x2="136.749" y2="-4.57"/>
				
					<line fill="none" stroke="#00ABEB" stroke-width="0.3" stroke-miterlimit="10" x1="31.409" y1="114.942" x2="150.922" y2="-4.57"/>
				
					<line fill="none" stroke="#00ABEB" stroke-width="0.3" stroke-miterlimit="10" x1="45.583" y1="114.942" x2="165.096" y2="-4.57"/>
				
					<line fill="none" stroke="#00ABEB" stroke-width="0.3" stroke-miterlimit="10" x1="59.756" y1="114.942" x2="179.269" y2="-4.57"/>
				
					<line fill="none" stroke="#00ABEB" stroke-width="0.3" stroke-miterlimit="10" x1="73.929" y1="114.942" x2="193.442" y2="-4.57"/>
				
					<line fill="none" stroke="#00ABEB" stroke-width="0.3" stroke-miterlimit="10" x1="88.102" y1="114.942" x2="207.615" y2="-4.57"/>
			</g>
			<g id="Horizontal_10_mm_00000163045836177147705350000008480455355013810362_">
				
					<line id="_x31_9_00000057116790517712807720000015084113881736219806_" fill="none" stroke="#00ABEB" stroke-width="0.7" stroke-miterlimit="10" x1="-139.029" y1="114.952" x2="88.087" y2="114.952"/>
				
					<line id="_x32_0_00000024685878617286333290000013167547815532084100_" fill="none" stroke="#00ABEB" stroke-width="0.7" stroke-miterlimit="10" x1="-119.149" y1="95.073" x2="107.967" y2="95.073"/>
				
					<line id="_x32_1_00000138564813020868535020000012777939180148238773_" fill="none" stroke="#00ABEB" stroke-width="0.7" stroke-miterlimit="10" x1="-99.27" y1="75.193" x2="127.846" y2="75.193"/>
				
					<line id="_x32_2_00000052807586205252870140000014502512662559454639_" fill="none" stroke="#00ABEB" stroke-width="0.7" stroke-miterlimit="10" x1="-79.39" y1="55.314" x2="147.725" y2="55.314"/>
				
					<line id="_x32_3_00000051376893246677475670000009295515732899575694_" fill="none" stroke="#00ABEB" stroke-width="0.7" stroke-miterlimit="10" x1="-59.51" y1="35.434" x2="167.605" y2="35.434"/>
				
					<line id="_x32_4_00000099657911357833521510000007853591198542098087_" fill="none" stroke="#00ABEB" stroke-width="0.7" stroke-miterlimit="10" x1="-39.631" y1="15.555" x2="187.484" y2="15.555"/>
				
					<line id="_x32_5_00000155127691660191171140000008292164438978366870_" fill="none" stroke="#00ABEB" stroke-width="0.7" stroke-miterlimit="10" x1="-19.752" y1="-4.324" x2="207.364" y2="-4.324"/>
			</g>
			<g id="Vertical_10_mm_00000134969164297783457920000010833503864539426239_">
				
					<line id="_x30__00000151539528360119995570000005083818057555393183_" fill="none" stroke="#00ABEB" stroke-width="0.7" stroke-miterlimit="10" x1="-138.669" y1="114.942" x2="-19.156" y2="-4.57"/>
				
					<line id="_x31__00000021823889366233599640000011971139016478256513_" fill="none" stroke="#00ABEB" stroke-width="0.7" stroke-miterlimit="10" x1="-110.323" y1="114.942" x2="9.19" y2="-4.57"/>
				
					<line id="_x32__00000071550223824624162640000006130814236846722696_" fill="none" stroke="#00ABEB" stroke-width="0.7" stroke-miterlimit="10" x1="-81.976" y1="114.942" x2="37.537" y2="-4.57"/>
				
					<line id="_x33__00000042015976804734918030000005045165563697445304_" fill="none" stroke="#00ABEB" stroke-width="0.7" stroke-miterlimit="10" x1="-53.63" y1="114.942" x2="65.883" y2="-4.57"/>
				
					<line id="_x34__00000081637789328126233800000002486991317463304126_" fill="none" stroke="#00ABEB" stroke-width="0.7" stroke-miterlimit="10" x1="-25.284" y1="114.942" x2="94.229" y2="-4.57"/>
				
					<line id="_x35__00000051353690731882489090000004794744233340785543_" fill="none" stroke="#00ABEB" stroke-width="0.7" stroke-miterlimit="10" x1="3.063" y1="114.942" x2="122.576" y2="-4.57"/>
				
					<line id="_x36__00000011745311307505536660000010485558803267122343_" fill="none" stroke="#00ABEB" stroke-width="0.7" stroke-miterlimit="10" x1="31.409" y1="114.942" x2="150.922" y2="-4.57"/>
				
					<line id="_x37__00000045602144989735358580000003937589459941247142_" fill="none" stroke="#00ABEB" stroke-width="0.7" stroke-miterlimit="10" x1="59.756" y1="114.942" x2="179.269" y2="-4.57"/>
				
					<line id="_x38__00000047029857857898873560000014194396358708286345_" fill="none" stroke="#00ABEB" stroke-width="0.7" stroke-miterlimit="10" x1="88.102" y1="114.942" x2="207.615" y2="-4.57"/>
			</g>
		</g>
	</g>
</g>
<g id="Axis">
	<g id="lines">
		<g>
			<g>
				
					<line fill="none" stroke="#000000" stroke-width="0.5" stroke-miterlimit="10" x1="34.349" y1="55.304" x2="34.349" y2="4.431"/>
				<g>
					<polygon points="36.201,5.835 34.349,5.048 32.498,5.835 34.349,1.446 					"/>
				</g>
			</g>
		</g>
		<g>
			<g>
				
					<line fill="none" stroke="#000000" stroke-width="0.5" stroke-miterlimit="10" x1="34.349" y1="55.304" x2="82.388" y2="55.304"/>
				<g>
					<polygon points="80.984,57.156 81.771,55.304 80.984,53.453 85.373,55.304 					"/>
				</g>
			</g>
		</g>
		<g>
			<g>
				<line fill="none" stroke="#000000" stroke-width="0.5" stroke-miterlimit="10" x1="34.349" y1="55.304" x2="8.113" y2="81.54"/>
				<g>
					<polygon points="7.797,79.238 8.55,81.103 10.416,81.856 6.003,83.651 					"/>
				</g>
			</g>
		</g>
	</g>
	<g id="names">
		<g>
			<path d="M81.287,60.706c0.51-0.846,0.732-1.277,0.732-1.542c0-0.084-0.042-0.12-0.156-0.192c-0.12-0.078-0.156-0.138-0.156-0.234
				c0-0.132,0.102-0.222,0.24-0.222c0.18,0,0.312,0.15,0.312,0.33c0,0.342-0.288,1.001-0.786,1.829
				c-0.624,1.032-1.265,1.721-1.607,1.721c-0.18,0-0.306-0.102-0.306-0.258c0-0.132,0.102-0.24,0.234-0.24
				c0.21,0,0.21,0.167,0.366,0.167c0.078,0,0.15-0.048,0.288-0.198c0.108-0.114,0.378-0.468,0.426-0.545
				c0.036-0.072,0.06-0.144,0.06-0.21c0-0.24-0.33-1.583-0.492-1.991c-0.114-0.293-0.222-0.384-0.462-0.384
				c-0.066,0-0.12,0.006-0.186,0.024v-0.102c0.066-0.012,0.132-0.024,0.192-0.036c0.12-0.024,0.318-0.06,0.642-0.108h0.024
				c0.09,0,0.408,0.996,0.51,1.529L81.287,60.706z"/>
		</g>
		<g>
			<path d="M29.483,6.677c0.348,0.078,0.479,0.144,0.719,0.498c0.156,0.228,0.27,0.3,0.42,0.3c0.096,0,0.162-0.036,0.162-0.09
				c0-0.024-0.012-0.054-0.03-0.09c-0.036-0.072-0.048-0.12-0.048-0.167c0.006-0.102,0.102-0.204,0.198-0.204
				c0.126,0,0.21,0.09,0.21,0.222c0,0.24-0.222,0.456-0.558,0.456c-0.174,0-0.378-0.078-0.678-0.264
				c-0.282-0.174-0.474-0.251-0.629-0.251c-0.096,0-0.174,0.03-0.27,0.108l-0.054-0.054l1.859-2.231h-0.816
				c-0.312,0-0.426,0.054-0.545,0.36l-0.096-0.024l0.192-0.695h1.697v0.066L29.483,6.677z"/>
		</g>
		<g>
			<path d="M4.697,79.029c0.419-0.642,0.642-0.857,0.905-0.857c0.144,0,0.246,0.09,0.246,0.222c0,0.126-0.084,0.216-0.204,0.216
				c-0.114,0-0.168-0.102-0.312-0.102c-0.108,0-0.324,0.264-0.588,0.726c0,0.042,0.012,0.126,0.048,0.27l0.192,0.804
				c0.042,0.168,0.096,0.246,0.18,0.246c0.078,0,0.144-0.06,0.282-0.24c0.054-0.072,0.078-0.108,0.126-0.168l0.09,0.054
				c-0.348,0.54-0.504,0.684-0.731,0.684c-0.192,0-0.282-0.108-0.354-0.408l-0.174-0.714l-0.528,0.714
				c-0.264,0.354-0.384,0.408-0.57,0.408c-0.186,0-0.3-0.096-0.3-0.252c0-0.12,0.084-0.216,0.204-0.216
				c0.054,0,0.114,0.024,0.192,0.066c0.06,0.036,0.12,0.054,0.156,0.054c0.066,0,0.18-0.114,0.306-0.294l0.492-0.696l-0.168-0.743
				c-0.084-0.36-0.126-0.408-0.276-0.408c-0.048,0-0.12,0.012-0.234,0.042l-0.108,0.03L3.552,78.37l0.066-0.024
				c0.366-0.132,0.564-0.174,0.702-0.174c0.15,0,0.222,0.108,0.306,0.516L4.697,79.029z"/>
		</g>
	</g>
</g>
<g id="Layer_5">
	<circle opacity="0.05" fill="#0000FF" cx="34.349" cy="55.304" r="28.347"/>
	
		<circle display="none" fill="none" stroke="#0000FF" stroke-width="0.5" stroke-miterlimit="10" cx="34.349" cy="55.304" r="28.347"/>
	
		<circle fill="none" stroke="#0000FF" stroke-width="0.3" stroke-miterlimit="10" stroke-dasharray="3,3" cx="34.349" cy="55.304" r="28.347"/>
	<path fill="none" stroke="#0000FF" stroke-width="0.3" stroke-miterlimit="10" d="M52.969,76.678
		c-4.981,4.343-11.493,6.973-18.62,6.973c-15.655,0-28.347-12.691-28.347-28.347c0-7.784,3.138-14.836,8.218-19.959"/>
	<path fill="none" stroke="#0000FF" stroke-width="0.5" stroke-miterlimit="10" d="M34.349,26.958
		c15.655,0,28.347,12.691,28.347,28.347"/>
	
		<ellipse fill="none" stroke="#0000FF" stroke-width="0.3" stroke-miterlimit="10" stroke-dasharray="3,3" cx="34.349" cy="55.304" rx="28.347" ry="8.504"/>
	<path display="none" fill="none" stroke="#0000FF" stroke-width="0.5" stroke-miterlimit="10" d="M62.696,55.304
		c0,4.697-12.691,8.504-28.347,8.504S6.003,60.001,6.003,55.304"/>
	<path fill="none" stroke="#0000FF" stroke-width="0.3" stroke-miterlimit="10" d="M40.704,63.594
		c-2.043,0.14-4.169,0.214-6.354,0.214c-15.655,0-28.347-3.807-28.347-8.504"/>
	<path display="none" fill="none" stroke="#0000FF" stroke-width="0.5" stroke-miterlimit="10" d="M62.696,55.304
		c0,4.697-12.691,8.504-28.347,8.504"/>
</g>
<g id="Layer_6">
	<polygon opacity="0.05" fill="#FF0000" points="54.192,77.981 76.869,55.304 76.869,55.304 76.869,55.304 34.349,9.95 34.349,9.95 
		11.672,32.627 	"/>
	<polygon fill="none" stroke="#FF0000" stroke-width="0.3" stroke-miterlimit="10" points="54.192,77.981 76.869,55.304 
		76.869,55.304 76.869,55.304 34.349,9.95 34.349,9.95 11.672,32.627 	"/>
</g>
<g id="Layer_7">
	
		<ellipse transform="matrix(0.7071 -0.7071 0.7071 0.7071 -14.8737 46.3569)" display="none" opacity="0.3" fill="#009400" cx="48.521" cy="41.133" rx="3.618" ry="19.69"/>
	
		<ellipse transform="matrix(0.7071 -0.7071 0.7071 0.7071 -14.8737 46.3569)" fill="none" stroke="#009400" stroke-width="0.2" stroke-miterlimit="10" stroke-dasharray="2,2" cx="48.521" cy="41.133" rx="3.618" ry="19.69"/>
	<path fill="none" stroke="#000000" stroke-width="0.2" stroke-miterlimit="10" d="M62.444,55.055
		c-1.413,1.413-8.792-3.675-16.481-11.365S33.185,28.623,34.598,27.21"/>
	<g>
		<path d="M32.654,21.035c0.018,0,0.03,0.018,0.03,0.042c0,0.03-0.012,0.09-0.036,0.174l-0.857,3.112
			c-0.042,0.15-0.108,0.384-0.108,0.444c0,0.138,0.132,0.192,0.396,0.192h0.126v0.09h-1.673v-0.09
			c0.474-0.036,0.605-0.102,0.672-0.33l0.815-2.926c0.03-0.114,0.048-0.174,0.048-0.216c0-0.114-0.078-0.186-0.21-0.186h-0.018
			c-0.108,0-0.24,0.006-0.354,0.012v-0.09l0.138-0.03c0.528-0.114,0.552-0.102,1.014-0.198H32.654z"/>
	</g>
	<g>
		<path d="M65.119,56.342c0.018,0,0.03,0.018,0.03,0.042c0,0.03-0.012,0.09-0.036,0.174l-0.857,3.112
			c-0.042,0.15-0.108,0.384-0.108,0.444c0,0.138,0.132,0.192,0.396,0.192h0.126v0.09h-1.673v-0.09
			c0.474-0.036,0.605-0.102,0.672-0.33l0.815-2.926c0.03-0.114,0.048-0.174,0.048-0.216c0-0.114-0.078-0.186-0.21-0.186h-0.018
			c-0.108,0-0.24,0.006-0.354,0.012v-0.09l0.138-0.03c0.528-0.114,0.552-0.102,1.014-0.198H65.119z"/>
	</g>
</g>
<g id="Layer_8">
	<path opacity="0.3" fill="#00A300" d="M34.657,26.959c15.424,0.164,27.894,12.646,28.038,28.075h0
		c-1.413,1.413-9.042-3.654-16.732-11.343S33.244,28.372,34.657,26.959L34.657,26.959z"/>
	<path fill="none" stroke="#00A300" stroke-width="0.5" stroke-miterlimit="10" d="M34.656,26.959
		C50.08,27.123,62.55,39.605,62.694,55.034h0c-1.413,1.413-9.042-3.654-16.732-11.343S33.244,28.372,34.656,26.959L34.656,26.959z"
		/>
	<g>
		<g>
			<path fill="none" stroke="#009400" stroke-width="0.2" stroke-miterlimit="10" d="M42.881,32.157
				c0.864-4.159,5.829-10.354,11.146-10.354"/>
			<g>
				<polygon fill="#009400" points="43.716,31.701 42.94,31.914 42.248,31.504 42.749,33.343 				"/>
			</g>
		</g>
	</g>
	<g>
		<path fill="#009400" d="M46.049,18.606c0.324-0.486,0.666-0.678,1.025-0.678c0.444,0,0.69,0.282,0.69,0.75
			c0,0.99-0.906,1.961-1.781,1.961c-0.138,0-0.264-0.024-0.414-0.102c-0.102,0.42-0.24,0.912-0.24,0.996
			c0,0.132,0.09,0.174,0.372,0.174v0.096h-1.217v-0.096c0.258-0.006,0.336-0.096,0.408-0.378l0.689-2.59
			c0.066-0.24,0.096-0.396,0.096-0.426c0-0.144-0.168-0.162-0.264-0.162h-0.132l-0.012-0.09l0.936-0.132
			c0.018,0,0.03,0.012,0.03,0.024c0,0-0.006,0.03-0.012,0.054L46.049,18.606z M46.853,18.186c-0.318,0-0.671,0.324-0.81,0.684
			c-0.174,0.45-0.39,1.224-0.39,1.427c0,0.132,0.12,0.228,0.288,0.228c0.318,0,0.606-0.198,0.87-0.57
			c0.288-0.402,0.414-0.839,0.414-1.259C47.225,18.354,47.123,18.186,46.853,18.186z"/>
		<path fill="#009400" d="M48.713,20.015c-0.03,0.108-0.048,0.21-0.048,0.258c0,0.072,0.042,0.108,0.102,0.108
			c0.09,0,0.228-0.096,0.402-0.342l0.15-0.21l0.084,0.06c-0.36,0.57-0.582,0.75-0.906,0.75c-0.192,0-0.293-0.114-0.293-0.336
			c0-0.048,0.006-0.12,0.024-0.18l0.821-3.142c0.018-0.06,0.018-0.096,0.018-0.114c0-0.072-0.102-0.132-0.294-0.132h-0.108v-0.096
			c0.354-0.042,0.576-0.084,0.93-0.162l0.036,0.03L48.713,20.015z"/>
		<path fill="#009400" d="M52.48,19.973c-0.45,0.545-0.594,0.66-0.833,0.66c-0.168,0-0.24-0.072-0.24-0.246
			c0-0.15,0.012-0.198,0.138-0.689c-0.45,0.678-0.797,0.941-1.217,0.941c-0.336,0-0.6-0.24-0.6-0.696
			c0-0.929,0.917-2.015,1.715-2.015c0.258,0,0.432,0.126,0.48,0.348l0.066-0.288l0.018-0.018l0.366-0.042l0.042,0.018
			c-0.012,0.054-0.018,0.066-0.036,0.126c-0.282,1.025-0.534,2.057-0.534,2.177c0,0.042,0.036,0.078,0.084,0.078
			c0.054,0,0.132-0.048,0.312-0.246l0.162-0.174L52.48,19.973z M51.479,18.06c-0.27,0-0.534,0.186-0.786,0.552
			c-0.252,0.378-0.462,0.912-0.462,1.289c0,0.33,0.144,0.444,0.36,0.444c0.3,0,0.582-0.33,0.762-0.587
			c0.282-0.408,0.462-0.924,0.462-1.35C51.815,18.198,51.689,18.06,51.479,18.06z"/>
		<path fill="#009400" d="M55.474,19.949c-0.408,0.558-0.558,0.678-0.839,0.678c-0.15,0-0.282-0.096-0.282-0.324
			c0-0.06,0.012-0.138,0.096-0.45l0.264-0.971c0.048-0.186,0.084-0.402,0.084-0.474c0-0.108-0.054-0.174-0.144-0.174
			c-0.24,0-0.51,0.294-0.888,0.852c-0.27,0.402-0.318,0.54-0.6,1.487h-0.45l0.576-2.099c0.006-0.03,0.012-0.066,0.012-0.102
			c0-0.12-0.084-0.156-0.39-0.162v-0.096c0.486-0.096,0.654-0.12,0.972-0.186l0.024,0.012l-0.402,1.307
			c0.6-0.959,1.001-1.319,1.385-1.319c0.258,0,0.39,0.15,0.39,0.366c0,0.108-0.024,0.234-0.06,0.36l-0.336,1.217
			c-0.06,0.216-0.084,0.318-0.084,0.366c0,0.054,0.024,0.108,0.096,0.108c0.084,0,0.192-0.096,0.366-0.318
			c0.042-0.048,0.084-0.102,0.126-0.156L55.474,19.949z"/>
		<path fill="#009400" d="M57.851,19.991c-0.342,0.419-0.726,0.647-1.223,0.647c-0.486,0-0.81-0.324-0.81-0.821
			c0-0.93,0.894-1.889,1.793-1.889c0.318,0,0.492,0.156,0.492,0.408c0,0.516-0.63,0.983-1.703,1.122
			c-0.06,0.12-0.06,0.276-0.06,0.366c0,0.33,0.222,0.545,0.558,0.545c0.264,0,0.45-0.096,0.882-0.45L57.851,19.991z M56.441,19.326
			c0.516-0.126,0.744-0.234,0.965-0.444c0.186-0.18,0.3-0.396,0.3-0.582c0-0.144-0.042-0.234-0.21-0.234
			c-0.342,0-0.75,0.462-0.953,0.996L56.441,19.326z"/>
		<path fill="#009400" d="M61.205,19.955c-0.33,0.504-0.521,0.684-0.821,0.684c-0.198,0-0.294-0.108-0.294-0.33
			c0-0.12,0.042-0.33,0.132-0.666l0.288-1.061c0.03-0.108,0.054-0.216,0.054-0.264c0-0.12-0.06-0.138-0.384-0.144v-0.096
			c0.234-0.018,0.354-0.036,0.959-0.15l0.024,0.018L60.6,20.003c-0.03,0.102-0.06,0.18-0.06,0.264c0,0.06,0.036,0.09,0.084,0.09
			c0.102,0,0.246-0.126,0.503-0.468L61.205,19.955z M61.085,17.287c-0.174,0-0.288-0.126-0.288-0.318
			c0-0.186,0.12-0.318,0.282-0.318c0.162,0,0.3,0.156,0.3,0.33C61.379,17.148,61.241,17.287,61.085,17.287z"/>
		<path fill="#009400" d="M63.539,18.762h-0.096c-0.06-0.498-0.24-0.696-0.534-0.696c-0.21,0-0.354,0.12-0.354,0.342
			c0,0.162,0.09,0.336,0.324,0.612c0.3,0.348,0.408,0.582,0.408,0.815c0,0.498-0.366,0.804-0.864,0.804
			c-0.102,0-0.192-0.006-0.33-0.06c-0.114-0.048-0.198-0.054-0.264-0.054s-0.132,0.03-0.174,0.126H61.56l0.12-0.954h0.096
			c0.084,0.57,0.288,0.815,0.6,0.815c0.282,0,0.456-0.168,0.456-0.461c0-0.192-0.102-0.396-0.336-0.69
			c-0.258-0.324-0.377-0.594-0.377-0.786c0-0.396,0.282-0.647,0.726-0.647c0.102,0,0.186,0.018,0.335,0.06
			c0.114,0.036,0.168,0.042,0.216,0.042c0.09,0,0.132-0.024,0.18-0.108h0.084L63.539,18.762z"/>
		<path fill="#009400" d="M66.281,18.833c0.408-0.677,0.738-0.905,1.157-0.905c0.402,0,0.696,0.258,0.696,0.72
			c0,0.947-0.989,1.991-1.919,1.991c-0.342,0-0.78-0.138-0.78-0.318v-0.036l0.852-3.136c0.036-0.144,0.054-0.228,0.054-0.282
			c0-0.132-0.03-0.138-0.384-0.15v-0.102c0.402-0.048,0.618-0.084,0.917-0.138l0.03,0.03l-0.126,0.492l-0.503,1.835H66.281z
			 M67.205,18.222c-0.288,0-0.563,0.252-0.821,0.689c-0.264,0.444-0.432,1.025-0.432,1.385c0,0.138,0.09,0.204,0.276,0.204
			c0.258,0,0.516-0.126,0.737-0.354c0.36-0.372,0.66-0.965,0.66-1.409C67.625,18.372,67.469,18.222,67.205,18.222z"/>
		<path fill="#009400" d="M70.517,19.991c-0.342,0.419-0.726,0.647-1.223,0.647c-0.486,0-0.81-0.324-0.81-0.821
			c0-0.93,0.894-1.889,1.793-1.889c0.318,0,0.492,0.156,0.492,0.408c0,0.516-0.63,0.983-1.703,1.122
			c-0.06,0.12-0.06,0.276-0.06,0.366c0,0.33,0.222,0.545,0.558,0.545c0.264,0,0.45-0.096,0.882-0.45L70.517,19.991z M69.107,19.326
			c0.516-0.126,0.744-0.234,0.965-0.444c0.186-0.18,0.3-0.396,0.3-0.582c0-0.144-0.042-0.234-0.21-0.234
			c-0.342,0-0.75,0.462-0.953,0.996L69.107,19.326z"/>
		<path fill="#009400" d="M71.717,20.015c-0.03,0.108-0.048,0.21-0.048,0.258c0,0.072,0.042,0.108,0.102,0.108
			c0.09,0,0.228-0.096,0.402-0.342l0.15-0.21l0.084,0.06c-0.36,0.57-0.582,0.75-0.906,0.75c-0.192,0-0.293-0.114-0.293-0.336
			c0-0.048,0.006-0.12,0.024-0.18l0.821-3.142c0.018-0.06,0.018-0.096,0.018-0.114c0-0.072-0.102-0.132-0.294-0.132h-0.108v-0.096
			c0.354-0.042,0.576-0.084,0.93-0.162l0.036,0.03L71.717,20.015z"/>
		<path fill="#009400" d="M74.801,20.141c-0.348,0.348-0.731,0.498-1.127,0.498c-0.564,0-0.881-0.312-0.881-0.833
			c0-0.672,0.45-1.361,1.079-1.697c0.234-0.126,0.474-0.18,0.72-0.18c0.486,0,0.846,0.312,0.846,0.839
			C75.437,19.224,75.196,19.751,74.801,20.141z M74.507,18.054c-0.264,0-0.528,0.186-0.768,0.545
			c-0.276,0.42-0.444,0.894-0.444,1.368c0,0.359,0.186,0.545,0.468,0.545c0.264,0,0.492-0.174,0.726-0.498
			c0.276-0.378,0.444-0.941,0.444-1.397C74.933,18.252,74.765,18.054,74.507,18.054z"/>
		<path fill="#009400" d="M78.166,20.129c0.786-0.983,0.99-1.301,0.99-1.559c0-0.072-0.036-0.12-0.132-0.21
			c-0.096-0.09-0.126-0.162-0.126-0.246c0-0.096,0.102-0.186,0.234-0.186c0.18,0,0.312,0.144,0.312,0.336
			c0,0.384-0.444,1.085-1.271,2.093l-0.054,0.066c-0.162,0.198-0.216,0.258-0.27,0.258c-0.042,0-0.054-0.054-0.066-0.21
			l-0.174-1.859l-0.534,0.912c-0.108,0.18-0.216,0.377-0.33,0.594c-0.216,0.414-0.318,0.563-0.384,0.563
			c-0.054,0-0.066-0.048-0.078-0.282l-0.024-0.546c-0.024-0.521-0.09-1.163-0.162-1.451c-0.054-0.222-0.108-0.252-0.282-0.252
			h-0.168v-0.078c0.186-0.03,0.39-0.054,0.57-0.102c0.078-0.018,0.132-0.042,0.174-0.042c0.066,0,0.072,0.012,0.114,0.204
			c0.084,0.408,0.168,1.157,0.192,1.685l1.151-1.823c0.03-0.048,0.048-0.06,0.078-0.06c0.036,0,0.048,0.018,0.048,0.084
			L78.166,20.129z"/>
		<path fill="#009400" d="M56.663,23.198h-0.504l-0.521,1.967c-0.006,0.024-0.012,0.066-0.012,0.084c0,0.078,0.036,0.096,0.09,0.096
			c0.096,0,0.192-0.096,0.486-0.474l0.078,0.042c-0.36,0.552-0.546,0.726-0.857,0.726c-0.162,0-0.276-0.072-0.276-0.222
			c0-0.066,0.048-0.252,0.096-0.444l0.468-1.775h-0.45c-0.006-0.018-0.006-0.036-0.006-0.036c0-0.066,0.054-0.12,0.198-0.15
			c0.192-0.042,0.582-0.336,0.797-0.66c0.024-0.036,0.06-0.054,0.084-0.054c0.036,0,0.054,0.018,0.054,0.048c0,0,0,0.03-0.006,0.042
			l-0.168,0.618h0.479L56.663,23.198z"/>
		<path fill="#009400" d="M59.428,24.943c-0.366,0.522-0.569,0.684-0.875,0.684c-0.162,0-0.264-0.096-0.264-0.252
			c0-0.072,0.042-0.258,0.12-0.552l0.33-1.241c0.024-0.096,0.042-0.174,0.042-0.198c0-0.09-0.03-0.15-0.168-0.15
			c-0.216,0-0.6,0.366-0.912,0.84c-0.24,0.366-0.335,0.576-0.576,1.499h-0.45l0.875-3.322c0.048-0.186,0.078-0.288,0.078-0.372
			c0-0.102-0.138-0.15-0.246-0.15h-0.162v-0.09c0.36-0.042,0.594-0.084,0.941-0.162l0.042,0.036l-0.726,2.68
			c0.54-0.875,1.007-1.265,1.379-1.265c0.276,0,0.39,0.18,0.39,0.402c0,0.15-0.108,0.594-0.288,1.157
			c-0.102,0.312-0.198,0.684-0.198,0.75c0,0.06,0.042,0.108,0.096,0.108c0.096,0,0.168-0.072,0.492-0.479L59.428,24.943z"/>
		<path fill="#009400" d="M61.781,24.991c-0.342,0.419-0.726,0.647-1.223,0.647c-0.486,0-0.81-0.324-0.81-0.821
			c0-0.93,0.894-1.889,1.793-1.889c0.318,0,0.492,0.156,0.492,0.408c0,0.516-0.63,0.983-1.703,1.122
			c-0.06,0.12-0.06,0.276-0.06,0.366c0,0.33,0.222,0.545,0.558,0.545c0.264,0,0.45-0.096,0.882-0.45L61.781,24.991z M60.372,24.326
			c0.516-0.126,0.744-0.234,0.965-0.444c0.186-0.18,0.3-0.396,0.3-0.582c0-0.144-0.042-0.234-0.21-0.234
			c-0.342,0-0.75,0.462-0.953,0.996L60.372,24.326z"/>
		<path fill="#009400" d="M65.801,23.762h-0.096c-0.06-0.498-0.24-0.696-0.534-0.696c-0.21,0-0.354,0.12-0.354,0.342
			c0,0.162,0.09,0.336,0.324,0.612c0.3,0.348,0.408,0.582,0.408,0.815c0,0.498-0.366,0.804-0.863,0.804
			c-0.102,0-0.192-0.006-0.33-0.06c-0.114-0.048-0.198-0.054-0.264-0.054s-0.132,0.03-0.174,0.126h-0.096l0.12-0.954h0.096
			c0.084,0.57,0.288,0.815,0.6,0.815c0.282,0,0.456-0.168,0.456-0.461c0-0.192-0.102-0.396-0.336-0.69
			c-0.258-0.324-0.377-0.594-0.377-0.786c0-0.396,0.282-0.647,0.726-0.647c0.102,0,0.186,0.018,0.335,0.06
			c0.114,0.036,0.168,0.042,0.216,0.042c0.09,0,0.132-0.024,0.18-0.108h0.084L65.801,23.762z"/>
		<path fill="#009400" d="M67.175,23.606c0.324-0.486,0.666-0.678,1.025-0.678c0.444,0,0.69,0.282,0.69,0.75
			c0,0.99-0.906,1.961-1.781,1.961c-0.138,0-0.264-0.024-0.414-0.102c-0.102,0.42-0.24,0.912-0.24,0.996
			c0,0.132,0.09,0.174,0.372,0.174v0.096H65.61v-0.096c0.258-0.006,0.336-0.096,0.408-0.378l0.689-2.59
			c0.066-0.24,0.096-0.396,0.096-0.426c0-0.144-0.168-0.162-0.264-0.162h-0.132l-0.012-0.09l0.936-0.132
			c0.018,0,0.03,0.012,0.03,0.024c0,0-0.006,0.03-0.012,0.054L67.175,23.606z M67.979,23.186c-0.318,0-0.671,0.324-0.81,0.684
			c-0.174,0.45-0.39,1.224-0.39,1.427c0,0.132,0.12,0.228,0.288,0.228c0.318,0,0.606-0.198,0.87-0.57
			c0.288-0.402,0.414-0.839,0.414-1.259C68.351,23.354,68.249,23.186,67.979,23.186z"/>
		<path fill="#009400" d="M71.95,24.943c-0.366,0.522-0.569,0.684-0.875,0.684c-0.162,0-0.264-0.096-0.264-0.252
			c0-0.072,0.042-0.258,0.12-0.552l0.33-1.241c0.024-0.096,0.042-0.174,0.042-0.198c0-0.09-0.03-0.15-0.168-0.15
			c-0.216,0-0.6,0.366-0.912,0.84c-0.24,0.366-0.335,0.576-0.576,1.499h-0.45l0.875-3.322c0.048-0.186,0.078-0.288,0.078-0.372
			c0-0.102-0.138-0.15-0.246-0.15h-0.162v-0.09c0.36-0.042,0.594-0.084,0.941-0.162l0.042,0.036l-0.726,2.68
			c0.54-0.875,1.007-1.265,1.379-1.265c0.276,0,0.39,0.18,0.39,0.402c0,0.15-0.108,0.594-0.288,1.157
			c-0.102,0.312-0.198,0.684-0.198,0.75c0,0.06,0.042,0.108,0.096,0.108c0.096,0,0.168-0.072,0.492-0.479L71.95,24.943z"/>
		<path fill="#009400" d="M74.303,24.991c-0.342,0.419-0.726,0.647-1.223,0.647c-0.486,0-0.81-0.324-0.81-0.821
			c0-0.93,0.894-1.889,1.793-1.889c0.318,0,0.492,0.156,0.492,0.408c0,0.516-0.63,0.983-1.703,1.122
			c-0.06,0.12-0.06,0.276-0.06,0.366c0,0.33,0.222,0.545,0.558,0.545c0.264,0,0.45-0.096,0.882-0.45L74.303,24.991z M72.894,24.326
			c0.516-0.126,0.744-0.234,0.965-0.444c0.186-0.18,0.3-0.396,0.3-0.582c0-0.144-0.042-0.234-0.21-0.234
			c-0.342,0-0.75,0.462-0.953,0.996L72.894,24.326z"/>
		<path fill="#009400" d="M75.899,24.025c0.114-0.251,0.318-0.569,0.563-0.827c0.156-0.162,0.336-0.27,0.474-0.27
			c0.168,0,0.282,0.126,0.282,0.306c0,0.18-0.102,0.324-0.282,0.324c-0.108,0-0.156-0.066-0.21-0.156
			c-0.036-0.06-0.054-0.084-0.096-0.084c-0.108,0-0.276,0.198-0.492,0.564c-0.258,0.444-0.366,0.684-0.666,1.691h-0.456l0.485-1.751
			c0.084-0.312,0.096-0.366,0.096-0.492s-0.108-0.156-0.228-0.156c-0.048,0-0.096,0.006-0.186,0.018V23.09l0.929-0.162l0.018,0.012
			l-0.33,1.295L75.899,24.025z"/>
		<path fill="#009400" d="M79.114,24.991c-0.342,0.419-0.726,0.647-1.223,0.647c-0.486,0-0.81-0.324-0.81-0.821
			c0-0.93,0.894-1.889,1.793-1.889c0.318,0,0.492,0.156,0.492,0.408c0,0.516-0.63,0.983-1.703,1.122
			c-0.06,0.12-0.06,0.276-0.06,0.366c0,0.33,0.222,0.545,0.558,0.545c0.264,0,0.45-0.096,0.882-0.45L79.114,24.991z M77.705,24.326
			c0.516-0.126,0.744-0.234,0.965-0.444c0.186-0.18,0.3-0.396,0.3-0.582c0-0.144-0.042-0.234-0.21-0.234
			c-0.342,0-0.75,0.462-0.953,0.996L77.705,24.326z"/>
	</g>
	<g>
	</g>
</g>
</svg>
