<?xml version="1.0" encoding="utf-8"?>
<!-- Generator: Adobe Illustrator 25.4.1, SVG Export Plug-In . SVG Version: 6.00 Build 0)  -->
<svg version="1.1" xmlns="http://www.w3.org/2000/svg" xmlns:xlink="http://www.w3.org/1999/xlink" x="0px" y="0px"
	 viewBox="0 0 83.19 82.61" enable-background="new 0 0 83.19 82.61" xml:space="preserve">
<g id="Graph_paper_slanted" opacity="0.5">
	<g id="Clipped_grid_00000003068028900943026870000011536296927355263674_">
		<defs>
			<polygon id="SVGID_1_" points="87.281,118.384 -139.491,118.384 -20.214,-0.892 206.558,-0.892 			"/>
		</defs>
		<clipPath id="SVGID_00000178177514710456429480000015098637508963364272_">
			<use xlink:href="#SVGID_1_"  overflow="visible"/>
		</clipPath>
		
			<g id="Grid_00000142891597197125820610000009767860333217090727_" opacity="0.25" clip-path="url(#SVGID_00000178177514710456429480000015098637508963364272_)">
			<g id="Horizontal_1_mm_00000151508609497893311650000018408800186222605470_">
				
					<line fill="none" stroke="#00ABEB" stroke-width="0.15" stroke-miterlimit="10" x1="-22.281" y1="1.105" x2="204.56" y2="1.105"/>
				
					<line fill="none" stroke="#00ABEB" stroke-width="0.15" stroke-miterlimit="10" x1="-20.293" y1="-0.883" x2="206.548" y2="-0.883"/>
				
					<line fill="none" stroke="#00ABEB" stroke-width="0.15" stroke-miterlimit="10" x1="-139.57" y1="118.394" x2="87.271" y2="118.394"/>
				
					<line fill="none" stroke="#00ABEB" stroke-width="0.15" stroke-miterlimit="10" x1="-137.581" y1="116.405" x2="89.259" y2="116.405"/>
				
					<line fill="none" stroke="#00ABEB" stroke-width="0.15" stroke-miterlimit="10" x1="-135.594" y1="114.418" x2="91.247" y2="114.418"/>
				
					<line fill="none" stroke="#00ABEB" stroke-width="0.15" stroke-miterlimit="10" x1="-133.606" y1="112.43" x2="93.235" y2="112.43"/>
				
					<line fill="none" stroke="#00ABEB" stroke-width="0.15" stroke-miterlimit="10" x1="-131.618" y1="110.442" x2="95.223" y2="110.442"/>
				
					<line fill="none" stroke="#00ABEB" stroke-width="0.15" stroke-miterlimit="10" x1="-129.63" y1="108.454" x2="97.211" y2="108.454"/>
				
					<line fill="none" stroke="#00ABEB" stroke-width="0.15" stroke-miterlimit="10" x1="-127.642" y1="106.466" x2="99.199" y2="106.466"/>
				
					<line fill="none" stroke="#00ABEB" stroke-width="0.15" stroke-miterlimit="10" x1="-125.654" y1="104.479" x2="101.186" y2="104.479"/>
				
					<line fill="none" stroke="#00ABEB" stroke-width="0.15" stroke-miterlimit="10" x1="-123.666" y1="102.49" x2="103.175" y2="102.49"/>
				
					<line fill="none" stroke="#00ABEB" stroke-width="0.15" stroke-miterlimit="10" x1="-121.678" y1="100.502" x2="105.163" y2="100.502"/>
				
					<line fill="none" stroke="#00ABEB" stroke-width="0.15" stroke-miterlimit="10" x1="-119.69" y1="98.514" x2="107.151" y2="98.514"/>
				
					<line fill="none" stroke="#00ABEB" stroke-width="0.15" stroke-miterlimit="10" x1="-117.702" y1="96.526" x2="109.139" y2="96.526"/>
				
					<line fill="none" stroke="#00ABEB" stroke-width="0.15" stroke-miterlimit="10" x1="-115.714" y1="94.538" x2="111.127" y2="94.538"/>
				
					<line fill="none" stroke="#00ABEB" stroke-width="0.15" stroke-miterlimit="10" x1="-113.726" y1="92.551" x2="113.114" y2="92.551"/>
				
					<line fill="none" stroke="#00ABEB" stroke-width="0.15" stroke-miterlimit="10" x1="-111.738" y1="90.562" x2="115.103" y2="90.562"/>
				
					<line fill="none" stroke="#00ABEB" stroke-width="0.15" stroke-miterlimit="10" x1="-109.75" y1="88.574" x2="117.091" y2="88.574"/>
				
					<line fill="none" stroke="#00ABEB" stroke-width="0.15" stroke-miterlimit="10" x1="-107.763" y1="86.587" x2="119.078" y2="86.587"/>
				
					<line fill="none" stroke="#00ABEB" stroke-width="0.15" stroke-miterlimit="10" x1="-105.774" y1="84.599" x2="121.066" y2="84.599"/>
				
					<line fill="none" stroke="#00ABEB" stroke-width="0.15" stroke-miterlimit="10" x1="-103.786" y1="82.61" x2="123.055" y2="82.61"/>
				
					<line fill="none" stroke="#00ABEB" stroke-width="0.15" stroke-miterlimit="10" x1="-101.799" y1="80.623" x2="125.042" y2="80.623"/>
				
					<line fill="none" stroke="#00ABEB" stroke-width="0.15" stroke-miterlimit="10" x1="-99.811" y1="78.635" x2="127.03" y2="78.635"/>
				
					<line fill="none" stroke="#00ABEB" stroke-width="0.15" stroke-miterlimit="10" x1="-97.822" y1="76.646" x2="129.019" y2="76.646"/>
				
					<line fill="none" stroke="#00ABEB" stroke-width="0.15" stroke-miterlimit="10" x1="-95.835" y1="74.659" x2="131.006" y2="74.659"/>
				
					<line fill="none" stroke="#00ABEB" stroke-width="0.15" stroke-miterlimit="10" x1="-93.847" y1="72.671" x2="132.994" y2="72.671"/>
				
					<line fill="none" stroke="#00ABEB" stroke-width="0.15" stroke-miterlimit="10" x1="-91.859" y1="70.683" x2="134.982" y2="70.683"/>
				
					<line fill="none" stroke="#00ABEB" stroke-width="0.15" stroke-miterlimit="10" x1="-89.871" y1="68.695" x2="136.97" y2="68.695"/>
				
					<line fill="none" stroke="#00ABEB" stroke-width="0.15" stroke-miterlimit="10" x1="-87.883" y1="66.707" x2="138.958" y2="66.707"/>
				
					<line fill="none" stroke="#00ABEB" stroke-width="0.15" stroke-miterlimit="10" x1="-85.895" y1="64.72" x2="140.946" y2="64.72"/>
				
					<line fill="none" stroke="#00ABEB" stroke-width="0.15" stroke-miterlimit="10" x1="-83.907" y1="62.731" x2="142.934" y2="62.731"/>
				
					<line fill="none" stroke="#00ABEB" stroke-width="0.15" stroke-miterlimit="10" x1="-81.919" y1="60.743" x2="144.922" y2="60.743"/>
				
					<line fill="none" stroke="#00ABEB" stroke-width="0.15" stroke-miterlimit="10" x1="-79.931" y1="58.756" x2="146.909" y2="58.756"/>
				
					<line fill="none" stroke="#00ABEB" stroke-width="0.15" stroke-miterlimit="10" x1="-77.943" y1="56.768" x2="148.898" y2="56.768"/>
				
					<line fill="none" stroke="#00ABEB" stroke-width="0.15" stroke-miterlimit="10" x1="-75.955" y1="54.779" x2="150.886" y2="54.779"/>
				
					<line fill="none" stroke="#00ABEB" stroke-width="0.15" stroke-miterlimit="10" x1="-73.968" y1="52.792" x2="152.873" y2="52.792"/>
				
					<line fill="none" stroke="#00ABEB" stroke-width="0.15" stroke-miterlimit="10" x1="-71.979" y1="50.804" x2="154.861" y2="50.804"/>
				
					<line fill="none" stroke="#00ABEB" stroke-width="0.15" stroke-miterlimit="10" x1="-69.991" y1="48.816" x2="156.85" y2="48.816"/>
				
					<line fill="none" stroke="#00ABEB" stroke-width="0.15" stroke-miterlimit="10" x1="-68.004" y1="46.828" x2="158.837" y2="46.828"/>
				
					<line fill="none" stroke="#00ABEB" stroke-width="0.15" stroke-miterlimit="10" x1="-66.016" y1="44.84" x2="160.825" y2="44.84"/>
				
					<line fill="none" stroke="#00ABEB" stroke-width="0.15" stroke-miterlimit="10" x1="-64.027" y1="42.852" x2="162.813" y2="42.852"/>
				
					<line fill="none" stroke="#00ABEB" stroke-width="0.15" stroke-miterlimit="10" x1="-62.04" y1="40.864" x2="164.801" y2="40.864"/>
				
					<line fill="none" stroke="#00ABEB" stroke-width="0.15" stroke-miterlimit="10" x1="-60.051" y1="38.876" x2="166.789" y2="38.876"/>
				
					<line fill="none" stroke="#00ABEB" stroke-width="0.15" stroke-miterlimit="10" x1="-58.064" y1="36.888" x2="168.777" y2="36.888"/>
				
					<line fill="none" stroke="#00ABEB" stroke-width="0.15" stroke-miterlimit="10" x1="-56.076" y1="34.9" x2="170.765" y2="34.9"/>
				
					<line fill="none" stroke="#00ABEB" stroke-width="0.15" stroke-miterlimit="10" x1="-54.088" y1="32.912" x2="172.753" y2="32.912"/>
				
					<line fill="none" stroke="#00ABEB" stroke-width="0.15" stroke-miterlimit="10" x1="-52.1" y1="30.925" x2="174.741" y2="30.925"/>
				
					<line fill="none" stroke="#00ABEB" stroke-width="0.15" stroke-miterlimit="10" x1="-50.112" y1="28.937" x2="176.729" y2="28.937"/>
				
					<line fill="none" stroke="#00ABEB" stroke-width="0.15" stroke-miterlimit="10" x1="-48.124" y1="26.948" x2="178.717" y2="26.948"/>
				
					<line fill="none" stroke="#00ABEB" stroke-width="0.15" stroke-miterlimit="10" x1="-46.136" y1="24.961" x2="180.704" y2="24.961"/>
				
					<line fill="none" stroke="#00ABEB" stroke-width="0.15" stroke-miterlimit="10" x1="-44.148" y1="22.973" x2="182.693" y2="22.973"/>
				
					<line fill="none" stroke="#00ABEB" stroke-width="0.15" stroke-miterlimit="10" x1="-42.16" y1="20.985" x2="184.681" y2="20.985"/>
				
					<line fill="none" stroke="#00ABEB" stroke-width="0.15" stroke-miterlimit="10" x1="-40.173" y1="18.997" x2="186.668" y2="18.997"/>
				
					<line fill="none" stroke="#00ABEB" stroke-width="0.15" stroke-miterlimit="10" x1="-38.184" y1="17.009" x2="188.656" y2="17.009"/>
				
					<line fill="none" stroke="#00ABEB" stroke-width="0.15" stroke-miterlimit="10" x1="-36.196" y1="15.021" x2="190.645" y2="15.021"/>
				
					<line fill="none" stroke="#00ABEB" stroke-width="0.15" stroke-miterlimit="10" x1="-34.209" y1="13.033" x2="192.632" y2="13.033"/>
				
					<line fill="none" stroke="#00ABEB" stroke-width="0.15" stroke-miterlimit="10" x1="-32.22" y1="11.045" x2="194.621" y2="11.045"/>
				
					<line fill="none" stroke="#00ABEB" stroke-width="0.15" stroke-miterlimit="10" x1="-30.233" y1="9.057" x2="196.608" y2="9.057"/>
				
					<line fill="none" stroke="#00ABEB" stroke-width="0.15" stroke-miterlimit="10" x1="-28.245" y1="7.069" x2="198.596" y2="7.069"/>
				
					<line fill="none" stroke="#00ABEB" stroke-width="0.15" stroke-miterlimit="10" x1="-26.256" y1="5.081" x2="200.584" y2="5.081"/>
				
					<line fill="none" stroke="#00ABEB" stroke-width="0.15" stroke-miterlimit="10" x1="-24.269" y1="3.094" x2="202.572" y2="3.094"/>
			</g>
			<g id="Vertical_1_mm_00000181073523592228201180000012361058669048395659_">
				<g>
					
						<line fill="none" stroke="#00ABEB" stroke-width="0.15" stroke-miterlimit="10" x1="-139.485" y1="118.384" x2="-20.165" y2="-0.935"/>
				</g>
				
					<line fill="none" stroke="#00ABEB" stroke-width="0.15" stroke-miterlimit="10" x1="-136.651" y1="118.384" x2="-17.331" y2="-0.935"/>
				
					<line fill="none" stroke="#00ABEB" stroke-width="0.15" stroke-miterlimit="10" x1="-133.816" y1="118.384" x2="-14.496" y2="-0.935"/>
				
					<line fill="none" stroke="#00ABEB" stroke-width="0.15" stroke-miterlimit="10" x1="-130.981" y1="118.384" x2="-11.661" y2="-0.935"/>
				
					<line fill="none" stroke="#00ABEB" stroke-width="0.15" stroke-miterlimit="10" x1="-128.147" y1="118.384" x2="-8.827" y2="-0.935"/>
				
					<line fill="none" stroke="#00ABEB" stroke-width="0.15" stroke-miterlimit="10" x1="-125.312" y1="118.384" x2="-5.992" y2="-0.935"/>
				
					<line fill="none" stroke="#00ABEB" stroke-width="0.15" stroke-miterlimit="10" x1="-122.477" y1="118.384" x2="-3.157" y2="-0.935"/>
				
					<line fill="none" stroke="#00ABEB" stroke-width="0.15" stroke-miterlimit="10" x1="-119.643" y1="118.384" x2="-0.323" y2="-0.935"/>
				
					<line fill="none" stroke="#00ABEB" stroke-width="0.15" stroke-miterlimit="10" x1="-116.807" y1="118.384" x2="2.513" y2="-0.935"/>
				
					<line fill="none" stroke="#00ABEB" stroke-width="0.15" stroke-miterlimit="10" x1="-113.973" y1="118.384" x2="5.347" y2="-0.935"/>
				
					<line fill="none" stroke="#00ABEB" stroke-width="0.15" stroke-miterlimit="10" x1="-111.139" y1="118.384" x2="8.181" y2="-0.935"/>
				
					<line fill="none" stroke="#00ABEB" stroke-width="0.15" stroke-miterlimit="10" x1="-108.304" y1="118.384" x2="11.016" y2="-0.935"/>
				
					<line fill="none" stroke="#00ABEB" stroke-width="0.15" stroke-miterlimit="10" x1="-105.47" y1="118.384" x2="13.85" y2="-0.935"/>
				
					<line fill="none" stroke="#00ABEB" stroke-width="0.15" stroke-miterlimit="10" x1="-102.635" y1="118.384" x2="16.685" y2="-0.935"/>
				
					<line fill="none" stroke="#00ABEB" stroke-width="0.15" stroke-miterlimit="10" x1="-99.8" y1="118.384" x2="19.52" y2="-0.935"/>
				
					<line fill="none" stroke="#00ABEB" stroke-width="0.15" stroke-miterlimit="10" x1="-96.966" y1="118.384" x2="22.354" y2="-0.935"/>
				
					<line fill="none" stroke="#00ABEB" stroke-width="0.15" stroke-miterlimit="10" x1="-94.131" y1="118.384" x2="25.189" y2="-0.935"/>
				
					<line fill="none" stroke="#00ABEB" stroke-width="0.15" stroke-miterlimit="10" x1="-91.296" y1="118.384" x2="28.024" y2="-0.935"/>
				
					<line fill="none" stroke="#00ABEB" stroke-width="0.15" stroke-miterlimit="10" x1="-88.462" y1="118.384" x2="30.858" y2="-0.935"/>
				
					<line fill="none" stroke="#00ABEB" stroke-width="0.15" stroke-miterlimit="10" x1="-85.627" y1="118.384" x2="33.693" y2="-0.935"/>
				
					<line fill="none" stroke="#00ABEB" stroke-width="0.15" stroke-miterlimit="10" x1="-82.792" y1="118.384" x2="36.528" y2="-0.935"/>
				
					<line fill="none" stroke="#00ABEB" stroke-width="0.15" stroke-miterlimit="10" x1="-79.958" y1="118.384" x2="39.362" y2="-0.935"/>
				
					<line fill="none" stroke="#00ABEB" stroke-width="0.15" stroke-miterlimit="10" x1="-77.123" y1="118.384" x2="42.197" y2="-0.935"/>
				
					<line fill="none" stroke="#00ABEB" stroke-width="0.15" stroke-miterlimit="10" x1="-74.288" y1="118.384" x2="45.032" y2="-0.935"/>
				
					<line fill="none" stroke="#00ABEB" stroke-width="0.15" stroke-miterlimit="10" x1="-71.453" y1="118.384" x2="47.867" y2="-0.935"/>
				
					<line fill="none" stroke="#00ABEB" stroke-width="0.15" stroke-miterlimit="10" x1="-68.618" y1="118.384" x2="50.702" y2="-0.935"/>
				
					<line fill="none" stroke="#00ABEB" stroke-width="0.15" stroke-miterlimit="10" x1="-65.785" y1="118.384" x2="53.535" y2="-0.935"/>
				
					<line fill="none" stroke="#00ABEB" stroke-width="0.15" stroke-miterlimit="10" x1="-62.95" y1="118.384" x2="56.37" y2="-0.935"/>
				
					<line fill="none" stroke="#00ABEB" stroke-width="0.15" stroke-miterlimit="10" x1="-60.115" y1="118.384" x2="59.205" y2="-0.935"/>
				
					<line fill="none" stroke="#00ABEB" stroke-width="0.15" stroke-miterlimit="10" x1="-57.281" y1="118.384" x2="62.039" y2="-0.935"/>
				
					<line fill="none" stroke="#00ABEB" stroke-width="0.15" stroke-miterlimit="10" x1="-54.446" y1="118.384" x2="64.874" y2="-0.935"/>
				
					<line fill="none" stroke="#00ABEB" stroke-width="0.15" stroke-miterlimit="10" x1="-51.611" y1="118.384" x2="67.709" y2="-0.935"/>
				
					<line fill="none" stroke="#00ABEB" stroke-width="0.15" stroke-miterlimit="10" x1="-48.777" y1="118.384" x2="70.543" y2="-0.935"/>
				
					<line fill="none" stroke="#00ABEB" stroke-width="0.15" stroke-miterlimit="10" x1="-45.942" y1="118.384" x2="73.378" y2="-0.935"/>
				
					<line fill="none" stroke="#00ABEB" stroke-width="0.15" stroke-miterlimit="10" x1="-43.107" y1="118.384" x2="76.213" y2="-0.935"/>
				
					<line fill="none" stroke="#00ABEB" stroke-width="0.15" stroke-miterlimit="10" x1="-40.273" y1="118.384" x2="79.047" y2="-0.935"/>
				
					<line fill="none" stroke="#00ABEB" stroke-width="0.15" stroke-miterlimit="10" x1="-37.438" y1="118.384" x2="81.882" y2="-0.935"/>
				
					<line fill="none" stroke="#00ABEB" stroke-width="0.15" stroke-miterlimit="10" x1="-34.603" y1="118.384" x2="84.717" y2="-0.935"/>
				
					<line fill="none" stroke="#00ABEB" stroke-width="0.15" stroke-miterlimit="10" x1="-31.769" y1="118.384" x2="87.551" y2="-0.935"/>
				
					<line fill="none" stroke="#00ABEB" stroke-width="0.15" stroke-miterlimit="10" x1="-28.934" y1="118.384" x2="90.386" y2="-0.935"/>
				
					<line fill="none" stroke="#00ABEB" stroke-width="0.15" stroke-miterlimit="10" x1="-26.1" y1="118.384" x2="93.22" y2="-0.935"/>
				
					<line fill="none" stroke="#00ABEB" stroke-width="0.15" stroke-miterlimit="10" x1="-23.264" y1="118.384" x2="96.056" y2="-0.935"/>
				
					<line fill="none" stroke="#00ABEB" stroke-width="0.15" stroke-miterlimit="10" x1="-20.43" y1="118.384" x2="98.89" y2="-0.935"/>
				
					<line fill="none" stroke="#00ABEB" stroke-width="0.15" stroke-miterlimit="10" x1="-17.596" y1="118.384" x2="101.724" y2="-0.935"/>
				
					<line fill="none" stroke="#00ABEB" stroke-width="0.15" stroke-miterlimit="10" x1="-14.761" y1="118.384" x2="104.559" y2="-0.935"/>
				
					<line fill="none" stroke="#00ABEB" stroke-width="0.15" stroke-miterlimit="10" x1="-11.926" y1="118.384" x2="107.394" y2="-0.935"/>
				
					<line fill="none" stroke="#00ABEB" stroke-width="0.15" stroke-miterlimit="10" x1="-9.092" y1="118.384" x2="110.228" y2="-0.935"/>
				
					<line fill="none" stroke="#00ABEB" stroke-width="0.15" stroke-miterlimit="10" x1="-6.257" y1="118.384" x2="113.063" y2="-0.935"/>
				
					<line fill="none" stroke="#00ABEB" stroke-width="0.15" stroke-miterlimit="10" x1="-3.422" y1="118.384" x2="115.898" y2="-0.935"/>
				
					<line fill="none" stroke="#00ABEB" stroke-width="0.15" stroke-miterlimit="10" x1="-0.588" y1="118.384" x2="118.732" y2="-0.935"/>
				
					<line fill="none" stroke="#00ABEB" stroke-width="0.15" stroke-miterlimit="10" x1="2.247" y1="118.384" x2="121.567" y2="-0.935"/>
				
					<line fill="none" stroke="#00ABEB" stroke-width="0.15" stroke-miterlimit="10" x1="5.082" y1="118.384" x2="124.402" y2="-0.935"/>
				
					<line fill="none" stroke="#00ABEB" stroke-width="0.15" stroke-miterlimit="10" x1="7.916" y1="118.384" x2="127.236" y2="-0.935"/>
				
					<line fill="none" stroke="#00ABEB" stroke-width="0.15" stroke-miterlimit="10" x1="10.751" y1="118.384" x2="130.071" y2="-0.935"/>
				
					<line fill="none" stroke="#00ABEB" stroke-width="0.15" stroke-miterlimit="10" x1="13.586" y1="118.384" x2="132.906" y2="-0.935"/>
				
					<line fill="none" stroke="#00ABEB" stroke-width="0.15" stroke-miterlimit="10" x1="16.42" y1="118.384" x2="135.74" y2="-0.935"/>
				
					<line fill="none" stroke="#00ABEB" stroke-width="0.15" stroke-miterlimit="10" x1="19.256" y1="118.384" x2="138.576" y2="-0.935"/>
				
					<line fill="none" stroke="#00ABEB" stroke-width="0.15" stroke-miterlimit="10" x1="22.09" y1="118.384" x2="141.41" y2="-0.935"/>
				
					<line fill="none" stroke="#00ABEB" stroke-width="0.15" stroke-miterlimit="10" x1="24.924" y1="118.384" x2="144.244" y2="-0.935"/>
				
					<line fill="none" stroke="#00ABEB" stroke-width="0.15" stroke-miterlimit="10" x1="27.759" y1="118.384" x2="147.079" y2="-0.935"/>
				
					<line fill="none" stroke="#00ABEB" stroke-width="0.15" stroke-miterlimit="10" x1="30.593" y1="118.384" x2="149.913" y2="-0.935"/>
				
					<line fill="none" stroke="#00ABEB" stroke-width="0.15" stroke-miterlimit="10" x1="33.428" y1="118.384" x2="152.748" y2="-0.935"/>
				
					<line fill="none" stroke="#00ABEB" stroke-width="0.15" stroke-miterlimit="10" x1="36.263" y1="118.384" x2="155.583" y2="-0.935"/>
				
					<line fill="none" stroke="#00ABEB" stroke-width="0.15" stroke-miterlimit="10" x1="39.097" y1="118.384" x2="158.417" y2="-0.935"/>
				
					<line fill="none" stroke="#00ABEB" stroke-width="0.15" stroke-miterlimit="10" x1="41.932" y1="118.384" x2="161.252" y2="-0.935"/>
				
					<line fill="none" stroke="#00ABEB" stroke-width="0.15" stroke-miterlimit="10" x1="44.767" y1="118.384" x2="164.087" y2="-0.935"/>
				
					<line fill="none" stroke="#00ABEB" stroke-width="0.15" stroke-miterlimit="10" x1="47.601" y1="118.384" x2="166.921" y2="-0.935"/>
				
					<line fill="none" stroke="#00ABEB" stroke-width="0.15" stroke-miterlimit="10" x1="50.436" y1="118.384" x2="169.756" y2="-0.935"/>
				
					<line fill="none" stroke="#00ABEB" stroke-width="0.15" stroke-miterlimit="10" x1="53.271" y1="118.384" x2="172.591" y2="-0.935"/>
				
					<line fill="none" stroke="#00ABEB" stroke-width="0.15" stroke-miterlimit="10" x1="56.105" y1="118.384" x2="175.425" y2="-0.935"/>
				
					<line fill="none" stroke="#00ABEB" stroke-width="0.15" stroke-miterlimit="10" x1="58.94" y1="118.384" x2="178.26" y2="-0.935"/>
				
					<line fill="none" stroke="#00ABEB" stroke-width="0.15" stroke-miterlimit="10" x1="61.775" y1="118.384" x2="181.095" y2="-0.935"/>
				
					<line fill="none" stroke="#00ABEB" stroke-width="0.15" stroke-miterlimit="10" x1="64.61" y1="118.384" x2="183.93" y2="-0.935"/>
				
					<line fill="none" stroke="#00ABEB" stroke-width="0.15" stroke-miterlimit="10" x1="67.444" y1="118.384" x2="186.764" y2="-0.935"/>
				
					<line fill="none" stroke="#00ABEB" stroke-width="0.15" stroke-miterlimit="10" x1="70.278" y1="118.384" x2="189.598" y2="-0.935"/>
				
					<line fill="none" stroke="#00ABEB" stroke-width="0.15" stroke-miterlimit="10" x1="73.113" y1="118.384" x2="192.433" y2="-0.935"/>
				
					<line fill="none" stroke="#00ABEB" stroke-width="0.15" stroke-miterlimit="10" x1="75.948" y1="118.384" x2="195.268" y2="-0.935"/>
				
					<line fill="none" stroke="#00ABEB" stroke-width="0.15" stroke-miterlimit="10" x1="78.782" y1="118.384" x2="198.102" y2="-0.935"/>
				
					<line fill="none" stroke="#00ABEB" stroke-width="0.15" stroke-miterlimit="10" x1="81.617" y1="118.384" x2="200.937" y2="-0.935"/>
				
					<line fill="none" stroke="#00ABEB" stroke-width="0.15" stroke-miterlimit="10" x1="84.452" y1="118.384" x2="203.772" y2="-0.935"/>
				
					<line fill="none" stroke="#00ABEB" stroke-width="0.15" stroke-miterlimit="10" x1="87.286" y1="118.384" x2="206.606" y2="-0.935"/>
			</g>
			<g id="Horizontal_5_mm_00000011735556503592991880000008134099091165005186_">
				
					<line fill="none" stroke="#00ABEB" stroke-width="0.3" stroke-miterlimit="10" x1="-139.844" y1="118.394" x2="87.271" y2="118.394"/>
				
					<line fill="none" stroke="#00ABEB" stroke-width="0.3" stroke-miterlimit="10" x1="-129.905" y1="108.454" x2="97.211" y2="108.454"/>
				
					<line fill="none" stroke="#00ABEB" stroke-width="0.3" stroke-miterlimit="10" x1="-119.965" y1="98.514" x2="107.151" y2="98.514"/>
				
					<line fill="none" stroke="#00ABEB" stroke-width="0.3" stroke-miterlimit="10" x1="-110.025" y1="88.574" x2="117.091" y2="88.574"/>
				
					<line fill="none" stroke="#00ABEB" stroke-width="0.3" stroke-miterlimit="10" x1="-100.086" y1="78.635" x2="127.03" y2="78.635"/>
				
					<line fill="none" stroke="#00ABEB" stroke-width="0.3" stroke-miterlimit="10" x1="-90.146" y1="68.695" x2="136.97" y2="68.695"/>
				
					<line fill="none" stroke="#00ABEB" stroke-width="0.3" stroke-miterlimit="10" x1="-80.206" y1="58.756" x2="146.909" y2="58.756"/>
				
					<line fill="none" stroke="#00ABEB" stroke-width="0.3" stroke-miterlimit="10" x1="-70.266" y1="48.816" x2="156.85" y2="48.816"/>
				
					<line fill="none" stroke="#00ABEB" stroke-width="0.3" stroke-miterlimit="10" x1="-60.326" y1="38.876" x2="166.789" y2="38.876"/>
				
					<line fill="none" stroke="#00ABEB" stroke-width="0.3" stroke-miterlimit="10" x1="-50.387" y1="28.937" x2="176.729" y2="28.937"/>
				
					<line fill="none" stroke="#00ABEB" stroke-width="0.3" stroke-miterlimit="10" x1="-40.447" y1="18.997" x2="186.668" y2="18.997"/>
			</g>
			<g id="Vertical_5_mm_00000064346364918789686960000003233481195482251947_">
				
					<line fill="none" stroke="#00ABEB" stroke-width="0.3" stroke-miterlimit="10" x1="-139.485" y1="118.384" x2="-19.972" y2="-1.128"/>
				
					<line fill="none" stroke="#00ABEB" stroke-width="0.3" stroke-miterlimit="10" x1="-125.312" y1="118.384" x2="-5.799" y2="-1.128"/>
				
					<line fill="none" stroke="#00ABEB" stroke-width="0.3" stroke-miterlimit="10" x1="-111.139" y1="118.384" x2="8.374" y2="-1.128"/>
				
					<line fill="none" stroke="#00ABEB" stroke-width="0.3" stroke-miterlimit="10" x1="-96.966" y1="118.384" x2="22.547" y2="-1.128"/>
				
					<line fill="none" stroke="#00ABEB" stroke-width="0.3" stroke-miterlimit="10" x1="-82.792" y1="118.384" x2="36.721" y2="-1.128"/>
				
					<line fill="none" stroke="#00ABEB" stroke-width="0.3" stroke-miterlimit="10" x1="-68.618" y1="118.384" x2="50.894" y2="-1.128"/>
				
					<line fill="none" stroke="#00ABEB" stroke-width="0.3" stroke-miterlimit="10" x1="-54.446" y1="118.384" x2="65.067" y2="-1.128"/>
				
					<line fill="none" stroke="#00ABEB" stroke-width="0.3" stroke-miterlimit="10" x1="-40.273" y1="118.384" x2="79.24" y2="-1.128"/>
				
					<line fill="none" stroke="#00ABEB" stroke-width="0.3" stroke-miterlimit="10" x1="-26.1" y1="118.384" x2="93.413" y2="-1.128"/>
				
					<line fill="none" stroke="#00ABEB" stroke-width="0.3" stroke-miterlimit="10" x1="-11.926" y1="118.384" x2="107.587" y2="-1.128"/>
				
					<line fill="none" stroke="#00ABEB" stroke-width="0.3" stroke-miterlimit="10" x1="2.247" y1="118.384" x2="121.76" y2="-1.128"/>
				
					<line fill="none" stroke="#00ABEB" stroke-width="0.3" stroke-miterlimit="10" x1="16.42" y1="118.384" x2="135.933" y2="-1.128"/>
				
					<line fill="none" stroke="#00ABEB" stroke-width="0.3" stroke-miterlimit="10" x1="30.593" y1="118.384" x2="150.106" y2="-1.128"/>
				
					<line fill="none" stroke="#00ABEB" stroke-width="0.3" stroke-miterlimit="10" x1="44.767" y1="118.384" x2="164.28" y2="-1.128"/>
				
					<line fill="none" stroke="#00ABEB" stroke-width="0.3" stroke-miterlimit="10" x1="58.94" y1="118.384" x2="178.453" y2="-1.128"/>
				
					<line fill="none" stroke="#00ABEB" stroke-width="0.3" stroke-miterlimit="10" x1="73.113" y1="118.384" x2="192.626" y2="-1.128"/>
				
					<line fill="none" stroke="#00ABEB" stroke-width="0.3" stroke-miterlimit="10" x1="87.286" y1="118.384" x2="206.799" y2="-1.128"/>
			</g>
			<g id="Horizontal_10_mm_00000163045836177147705350000008480455355013810362_">
				
					<line id="_x31_9_00000057116790517712807720000015084113881736219806_" fill="none" stroke="#00ABEB" stroke-width="0.7" stroke-miterlimit="10" x1="-139.844" y1="118.394" x2="87.271" y2="118.394"/>
				
					<line id="_x32_0_00000024685878617286333290000013167547815532084100_" fill="none" stroke="#00ABEB" stroke-width="0.7" stroke-miterlimit="10" x1="-119.965" y1="98.514" x2="107.151" y2="98.514"/>
				
					<line id="_x32_1_00000138564813020868535020000012777939180148238773_" fill="none" stroke="#00ABEB" stroke-width="0.7" stroke-miterlimit="10" x1="-100.086" y1="78.635" x2="127.03" y2="78.635"/>
				
					<line id="_x32_2_00000052807586205252870140000014502512662559454639_" fill="none" stroke="#00ABEB" stroke-width="0.7" stroke-miterlimit="10" x1="-80.206" y1="58.756" x2="146.909" y2="58.756"/>
				
					<line id="_x32_3_00000051376893246677475670000009295515732899575694_" fill="none" stroke="#00ABEB" stroke-width="0.7" stroke-miterlimit="10" x1="-60.326" y1="38.876" x2="166.789" y2="38.876"/>
				
					<line id="_x32_4_00000099657911357833521510000007853591198542098087_" fill="none" stroke="#00ABEB" stroke-width="0.7" stroke-miterlimit="10" x1="-40.447" y1="18.997" x2="186.668" y2="18.997"/>
				
					<line id="_x32_5_00000155127691660191171140000008292164438978366870_" fill="none" stroke="#00ABEB" stroke-width="0.7" stroke-miterlimit="10" x1="-20.568" y1="-0.883" x2="206.548" y2="-0.883"/>
			</g>
			<g id="Vertical_10_mm_00000134969164297783457920000010833503864539426239_">
				
					<line id="_x30__00000151539528360119995570000005083818057555393183_" fill="none" stroke="#00ABEB" stroke-width="0.7" stroke-miterlimit="10" x1="-139.485" y1="118.384" x2="-19.972" y2="-1.128"/>
				
					<line id="_x31__00000021823889366233599640000011971139016478256513_" fill="none" stroke="#00ABEB" stroke-width="0.7" stroke-miterlimit="10" x1="-111.139" y1="118.384" x2="8.374" y2="-1.128"/>
				
					<line id="_x32__00000071550223824624162640000006130814236846722696_" fill="none" stroke="#00ABEB" stroke-width="0.7" stroke-miterlimit="10" x1="-82.792" y1="118.384" x2="36.721" y2="-1.128"/>
				
					<line id="_x33__00000042015976804734918030000005045165563697445304_" fill="none" stroke="#00ABEB" stroke-width="0.7" stroke-miterlimit="10" x1="-54.446" y1="118.384" x2="65.067" y2="-1.128"/>
				
					<line id="_x34__00000081637789328126233800000002486991317463304126_" fill="none" stroke="#00ABEB" stroke-width="0.7" stroke-miterlimit="10" x1="-26.1" y1="118.384" x2="93.413" y2="-1.128"/>
				
					<line id="_x35__00000051353690731882489090000004794744233340785543_" fill="none" stroke="#00ABEB" stroke-width="0.7" stroke-miterlimit="10" x1="2.247" y1="118.384" x2="121.76" y2="-1.128"/>
				
					<line id="_x36__00000011745311307505536660000010485558803267122343_" fill="none" stroke="#00ABEB" stroke-width="0.7" stroke-miterlimit="10" x1="30.593" y1="118.384" x2="150.106" y2="-1.128"/>
				
					<line id="_x37__00000045602144989735358580000003937589459941247142_" fill="none" stroke="#00ABEB" stroke-width="0.7" stroke-miterlimit="10" x1="58.94" y1="118.384" x2="178.453" y2="-1.128"/>
				
					<line id="_x38__00000047029857857898873560000014194396358708286345_" fill="none" stroke="#00ABEB" stroke-width="0.7" stroke-miterlimit="10" x1="87.286" y1="118.384" x2="206.799" y2="-1.128"/>
			</g>
		</g>
	</g>
</g>
<g id="Axis">
	<g id="lines">
		<g>
			<g>
				
					<line fill="none" stroke="#000000" stroke-width="0.5" stroke-miterlimit="10" x1="33.533" y1="58.746" x2="33.533" y2="6.519"/>
				<g>
					<polygon points="35.385,7.923 33.533,7.136 31.682,7.923 33.533,3.534 					"/>
				</g>
			</g>
		</g>
		<g>
			<g>
				
					<line fill="none" stroke="#000000" stroke-width="0.5" stroke-miterlimit="10" x1="33.533" y1="58.746" x2="74.12" y2="58.746"/>
				<g>
					<polygon points="72.716,60.597 73.503,58.746 72.716,56.894 77.105,58.746 					"/>
				</g>
			</g>
		</g>
		<g>
			<g>
				
					<line fill="none" stroke="#000000" stroke-width="0.5" stroke-miterlimit="10" x1="33.533" y1="58.746" x2="12.232" y2="80.047"/>
				<g>
					<polygon points="11.916,77.745 12.669,79.611 14.534,80.364 10.121,82.158 					"/>
				</g>
			</g>
		</g>
	</g>
	<g id="names">
		<g>
			<path d="M75.054,64.148c0.51-0.846,0.732-1.277,0.732-1.542c0-0.084-0.042-0.12-0.156-0.192c-0.12-0.078-0.156-0.138-0.156-0.234
				c0-0.132,0.102-0.222,0.24-0.222c0.18,0,0.312,0.15,0.312,0.33c0,0.342-0.288,1.001-0.786,1.829
				c-0.624,1.032-1.265,1.721-1.607,1.721c-0.18,0-0.306-0.102-0.306-0.258c0-0.132,0.102-0.24,0.234-0.24
				c0.21,0,0.21,0.167,0.366,0.167c0.078,0,0.15-0.048,0.288-0.198c0.108-0.114,0.378-0.468,0.426-0.545
				c0.036-0.072,0.06-0.144,0.06-0.21c0-0.24-0.33-1.583-0.492-1.991c-0.114-0.293-0.222-0.384-0.462-0.384
				c-0.066,0-0.12,0.006-0.186,0.024v-0.102c0.066-0.012,0.132-0.024,0.192-0.036c0.12-0.024,0.318-0.06,0.642-0.108h0.024
				c0.09,0,0.408,0.996,0.51,1.529L75.054,64.148z"/>
		</g>
		<g>
			<path d="M29.403,5.77c0.348,0.078,0.479,0.144,0.719,0.498c0.156,0.228,0.27,0.3,0.42,0.3c0.096,0,0.162-0.036,0.162-0.09
				c0-0.024-0.012-0.054-0.03-0.09c-0.036-0.072-0.048-0.12-0.048-0.167c0.006-0.102,0.102-0.204,0.198-0.204
				c0.126,0,0.21,0.09,0.21,0.222c0,0.24-0.222,0.456-0.558,0.456c-0.174,0-0.378-0.078-0.678-0.264
				c-0.282-0.174-0.474-0.251-0.629-0.251c-0.096,0-0.174,0.03-0.27,0.108l-0.054-0.054l1.859-2.231h-0.816
				c-0.312,0-0.426,0.054-0.545,0.36l-0.096-0.024l0.192-0.695h1.697v0.066L29.403,5.77z"/>
		</g>
		<g>
			<path d="M7.881,79.877c0.419-0.642,0.642-0.857,0.905-0.857c0.144,0,0.246,0.09,0.246,0.222c0,0.126-0.084,0.216-0.204,0.216
				c-0.114,0-0.168-0.102-0.312-0.102c-0.108,0-0.324,0.264-0.588,0.726c0,0.042,0.012,0.126,0.048,0.27l0.192,0.804
				c0.042,0.168,0.096,0.246,0.18,0.246c0.078,0,0.144-0.06,0.282-0.24c0.054-0.072,0.078-0.108,0.126-0.168l0.09,0.054
				c-0.348,0.54-0.504,0.684-0.731,0.684c-0.192,0-0.282-0.108-0.354-0.408l-0.174-0.714L7.06,81.323
				c-0.264,0.354-0.384,0.408-0.57,0.408c-0.186,0-0.3-0.096-0.3-0.252c0-0.12,0.084-0.216,0.204-0.216
				c0.054,0,0.114,0.024,0.192,0.066c0.06,0.036,0.12,0.054,0.156,0.054c0.066,0,0.18-0.114,0.306-0.294l0.492-0.696L7.372,79.65
				c-0.084-0.36-0.126-0.408-0.276-0.408c-0.048,0-0.12,0.012-0.234,0.042l-0.108,0.03l-0.018-0.096l0.066-0.024
				c0.366-0.132,0.564-0.174,0.702-0.174c0.15,0,0.222,0.108,0.306,0.516L7.881,79.877z"/>
		</g>
	</g>
	<ellipse transform="matrix(0.9896 -0.1441 0.1441 0.9896 -4.0073 8.527)" cx="56.841" cy="31.918" rx="1.535" ry="0.676"/>
	<line fill="none" stroke="#0000FF" stroke-width="0.2" stroke-miterlimit="10" x1="33.533" y1="58.746" x2="56.841" y2="71.157"/>
	
		<line fill="none" stroke="#0000FF" stroke-width="0.2" stroke-miterlimit="10" stroke-dasharray="2,2" x1="33.533" y1="19.507" x2="56.841" y2="31.917"/>
	
		<line fill="none" stroke="#0000FF" stroke-width="0.1" stroke-miterlimit="10" stroke-dasharray="2,2" x1="56.843" y1="31.402" x2="56.843" y2="71.157"/>
	<g>
		<path fill="#0000FF" d="M30.002,19.933c0.348,0.078,0.479,0.144,0.719,0.498c0.156,0.228,0.27,0.3,0.42,0.3
			c0.096,0,0.162-0.036,0.162-0.09c0-0.024-0.012-0.054-0.03-0.09c-0.036-0.072-0.048-0.12-0.048-0.167
			c0.006-0.102,0.102-0.204,0.198-0.204c0.126,0,0.21,0.09,0.21,0.222c0,0.24-0.222,0.456-0.558,0.456
			c-0.174,0-0.378-0.078-0.678-0.264c-0.282-0.174-0.474-0.251-0.629-0.251c-0.096,0-0.174,0.03-0.27,0.108l-0.054-0.054
			l1.859-2.231h-0.816c-0.312,0-0.426,0.054-0.545,0.36L29.846,18.5l0.192-0.695h1.697v0.066L30.002,19.933z"/>
	</g>
	<g>
		<path fill="#0000FF" d="M49.026,63.902c0.114-0.251,0.318-0.569,0.563-0.827c0.156-0.162,0.336-0.27,0.474-0.27
			c0.168,0,0.282,0.126,0.282,0.306c0,0.18-0.102,0.324-0.282,0.324c-0.108,0-0.156-0.066-0.21-0.156
			c-0.036-0.06-0.054-0.084-0.096-0.084c-0.108,0-0.276,0.198-0.492,0.564c-0.258,0.444-0.366,0.684-0.666,1.691h-0.456l0.485-1.751
			c0.084-0.312,0.096-0.366,0.096-0.492s-0.108-0.156-0.228-0.156c-0.048,0-0.096,0.006-0.186,0.018v-0.102l0.929-0.162l0.018,0.012
			l-0.33,1.295L49.026,63.902z"/>
	</g>
	<g>
		<g>
			<path fill="none" stroke="#FF00FF" stroke-width="0.2" stroke-miterlimit="10" d="M43.73,65.1
				c-5.427,1.407-12.097,2.302-18.958,2.398"/>
			<g>
				<polygon fill="#FF00FF" points="43,64.48 43.479,65.126 43.346,65.92 44.88,64.789 				"/>
			</g>
		</g>
	</g>
	<g>
		<path fill="#FF00FF" d="M35.279,70.858c-0.39,0.516-0.81,0.702-1.229,0.702c-0.486,0-0.768-0.396-0.768-1.031
			c0-1.29,0.677-2.351,1.331-2.849c0.264-0.198,0.492-0.252,0.731-0.252c0.426,0,0.738,0.288,0.738,1.001
			C36.082,69.401,35.723,70.264,35.279,70.858z M33.959,69.604c-0.114,0.3-0.174,0.612-0.174,0.99c0,0.534,0.114,0.839,0.336,0.839
			c0.576,0,1.091-1.241,1.235-1.829H33.959z M35.399,69.412c0.102-0.348,0.18-0.779,0.18-1.229c0-0.384-0.108-0.63-0.318-0.63
			c-0.521,0-1.109,1.325-1.259,1.859H35.399z"/>
	</g>
	<g>
		<path d="M60.264,25.387c-0.912,0.864-1.224,2.189-1.224,3.412c0,0.582,0.066,0.948,0.288,1.559l-0.108,0.036
			c-0.384-0.618-0.594-1.397-0.594-2.165c0-0.618,0.132-1.229,0.444-1.739c0.234-0.378,0.563-0.69,1.115-1.193L60.264,25.387z"/>
		<path d="M61.524,27.762c0.114-0.251,0.318-0.569,0.563-0.827c0.156-0.162,0.336-0.27,0.474-0.27c0.168,0,0.282,0.126,0.282,0.306
			c0,0.18-0.102,0.324-0.282,0.324c-0.108,0-0.156-0.066-0.21-0.156c-0.036-0.06-0.054-0.084-0.096-0.084
			c-0.108,0-0.276,0.198-0.492,0.564c-0.258,0.444-0.366,0.684-0.666,1.691h-0.456l0.485-1.751c0.084-0.312,0.096-0.366,0.096-0.492
			s-0.108-0.156-0.228-0.156c-0.048,0-0.096,0.006-0.186,0.018v-0.102l0.929-0.162l0.018,0.012l-0.33,1.295L61.524,27.762z"/>
		<path d="M62.335,29.975c0.317-0.204,0.456-0.377,0.456-0.54c0-0.06-0.024-0.102-0.12-0.174c-0.12-0.09-0.15-0.18-0.15-0.294
			c0-0.144,0.132-0.264,0.306-0.264c0.216,0,0.348,0.204,0.348,0.443c0,0.336-0.276,0.672-0.78,0.936L62.335,29.975z"/>
		<path d="M66.023,28.674c-0.39,0.516-0.81,0.702-1.229,0.702c-0.486,0-0.768-0.396-0.768-1.031c0-1.29,0.677-2.351,1.331-2.849
			c0.264-0.198,0.492-0.252,0.731-0.252c0.426,0,0.738,0.288,0.738,1.001C66.827,27.217,66.467,28.08,66.023,28.674z M64.704,27.42
			c-0.114,0.3-0.174,0.612-0.174,0.99c0,0.534,0.114,0.839,0.336,0.839c0.576,0,1.091-1.241,1.235-1.829H64.704z M66.144,27.228
			c0.102-0.348,0.18-0.779,0.18-1.229c0-0.384-0.108-0.63-0.318-0.63c-0.521,0-1.109,1.325-1.259,1.859H66.144z"/>
		<path d="M66.715,29.975c0.318-0.204,0.456-0.377,0.456-0.54c0-0.06-0.024-0.102-0.12-0.174c-0.12-0.09-0.15-0.18-0.15-0.294
			c0-0.144,0.132-0.264,0.306-0.264c0.216,0,0.348,0.204,0.348,0.443c0,0.336-0.276,0.672-0.78,0.936L66.715,29.975z"/>
		<path d="M68.791,28.871c0.348,0.078,0.479,0.144,0.719,0.498c0.156,0.228,0.27,0.3,0.42,0.3c0.096,0,0.162-0.036,0.162-0.09
			c0-0.024-0.012-0.054-0.03-0.09c-0.036-0.072-0.048-0.12-0.048-0.167c0.006-0.102,0.102-0.204,0.198-0.204
			c0.126,0,0.21,0.09,0.21,0.222c0,0.24-0.222,0.456-0.558,0.456c-0.174,0-0.378-0.078-0.678-0.264
			c-0.282-0.174-0.474-0.251-0.629-0.251c-0.096,0-0.174,0.03-0.27,0.108l-0.054-0.054l1.859-2.231h-0.816
			c-0.312,0-0.426,0.054-0.545,0.36l-0.096-0.024l0.192-0.695h1.697v0.066L68.791,28.871z"/>
		<path d="M71.718,25.298c0.282,0.503,0.378,0.737,0.48,1.181c0.072,0.336,0.114,0.684,0.114,1.007c0,0.606-0.168,1.176-0.468,1.691
			c-0.234,0.402-0.545,0.737-1.091,1.211l-0.078-0.09c0.504-0.534,0.726-0.935,0.93-1.571c0.186-0.576,0.294-1.266,0.294-1.829
			c0-0.6-0.09-1.085-0.294-1.571L71.718,25.298z"/>
	</g>
</g>
<g id="Layer_3">
	<g>
	</g>
</g>
</svg>
