<?xml version="1.0" encoding="utf-8"?>
<!-- Generator: Adobe Illustrator 25.4.1, SVG Export Plug-In . SVG Version: 6.00 Build 0)  -->
<svg version="1.1" xmlns="http://www.w3.org/2000/svg" xmlns:xlink="http://www.w3.org/1999/xlink" x="0px" y="0px"
	 viewBox="0 0 100.503 92.844" enable-background="new 0 0 100.503 92.844" xml:space="preserve">
<g id="Graph_paper_slanted" opacity="0.5">
	<g id="Clipped_grid_00000003068028900943026870000011536296927355263674_">
		<defs>
			<polygon id="SVGID_1_" points="103.433,128.617 -123.339,128.617 -4.063,9.341 222.709,9.341 			"/>
		</defs>
		<clipPath id="SVGID_00000027585315366743980090000004640541920491006094_">
			<use xlink:href="#SVGID_1_"  overflow="visible"/>
		</clipPath>
		
			<g id="Grid_00000142891597197125820610000009767860333217090727_" opacity="0.25" clip-path="url(#SVGID_00000027585315366743980090000004640541920491006094_)">
			<g id="Horizontal_1_mm_00000151508609497893311650000018408800186222605470_">
				
					<line fill="none" stroke="#00ABEB" stroke-width="0.15" stroke-miterlimit="10" x1="-6.129" y1="11.339" x2="220.712" y2="11.339"/>
				<line fill="none" stroke="#00ABEB" stroke-width="0.15" stroke-miterlimit="10" x1="-4.141" y1="9.35" x2="222.7" y2="9.35"/>
				
					<line fill="none" stroke="#00ABEB" stroke-width="0.15" stroke-miterlimit="10" x1="-123.418" y1="128.627" x2="103.423" y2="128.627"/>
				
					<line fill="none" stroke="#00ABEB" stroke-width="0.15" stroke-miterlimit="10" x1="-121.43" y1="126.639" x2="105.411" y2="126.639"/>
				
					<line fill="none" stroke="#00ABEB" stroke-width="0.15" stroke-miterlimit="10" x1="-119.442" y1="124.651" x2="107.399" y2="124.651"/>
				
					<line fill="none" stroke="#00ABEB" stroke-width="0.15" stroke-miterlimit="10" x1="-117.454" y1="122.663" x2="109.387" y2="122.663"/>
				
					<line fill="none" stroke="#00ABEB" stroke-width="0.15" stroke-miterlimit="10" x1="-115.466" y1="120.675" x2="111.375" y2="120.675"/>
				
					<line fill="none" stroke="#00ABEB" stroke-width="0.15" stroke-miterlimit="10" x1="-113.478" y1="118.687" x2="113.362" y2="118.687"/>
				
					<line fill="none" stroke="#00ABEB" stroke-width="0.15" stroke-miterlimit="10" x1="-111.49" y1="116.699" x2="115.351" y2="116.699"/>
				
					<line fill="none" stroke="#00ABEB" stroke-width="0.15" stroke-miterlimit="10" x1="-109.503" y1="114.712" x2="117.338" y2="114.712"/>
				
					<line fill="none" stroke="#00ABEB" stroke-width="0.15" stroke-miterlimit="10" x1="-107.514" y1="112.723" x2="119.327" y2="112.723"/>
				
					<line fill="none" stroke="#00ABEB" stroke-width="0.15" stroke-miterlimit="10" x1="-105.526" y1="110.735" x2="121.315" y2="110.735"/>
				
					<line fill="none" stroke="#00ABEB" stroke-width="0.15" stroke-miterlimit="10" x1="-103.539" y1="108.748" x2="123.302" y2="108.748"/>
				
					<line fill="none" stroke="#00ABEB" stroke-width="0.15" stroke-miterlimit="10" x1="-101.55" y1="106.759" x2="125.29" y2="106.759"/>
				
					<line fill="none" stroke="#00ABEB" stroke-width="0.15" stroke-miterlimit="10" x1="-99.562" y1="104.771" x2="127.279" y2="104.771"/>
				
					<line fill="none" stroke="#00ABEB" stroke-width="0.15" stroke-miterlimit="10" x1="-97.575" y1="102.784" x2="129.266" y2="102.784"/>
				
					<line fill="none" stroke="#00ABEB" stroke-width="0.15" stroke-miterlimit="10" x1="-95.587" y1="100.796" x2="131.254" y2="100.796"/>
				
					<line fill="none" stroke="#00ABEB" stroke-width="0.15" stroke-miterlimit="10" x1="-93.599" y1="98.807" x2="133.242" y2="98.807"/>
				
					<line fill="none" stroke="#00ABEB" stroke-width="0.15" stroke-miterlimit="10" x1="-91.611" y1="96.82" x2="135.23" y2="96.82"/>
				
					<line fill="none" stroke="#00ABEB" stroke-width="0.15" stroke-miterlimit="10" x1="-89.623" y1="94.832" x2="137.218" y2="94.832"/>
				
					<line fill="none" stroke="#00ABEB" stroke-width="0.15" stroke-miterlimit="10" x1="-87.635" y1="92.844" x2="139.206" y2="92.844"/>
				
					<line fill="none" stroke="#00ABEB" stroke-width="0.15" stroke-miterlimit="10" x1="-85.647" y1="90.856" x2="141.194" y2="90.856"/>
				
					<line fill="none" stroke="#00ABEB" stroke-width="0.15" stroke-miterlimit="10" x1="-83.659" y1="88.868" x2="143.182" y2="88.868"/>
				
					<line fill="none" stroke="#00ABEB" stroke-width="0.15" stroke-miterlimit="10" x1="-81.671" y1="86.88" x2="145.17" y2="86.88"/>
				
					<line fill="none" stroke="#00ABEB" stroke-width="0.15" stroke-miterlimit="10" x1="-79.683" y1="84.892" x2="147.158" y2="84.892"/>
				
					<line fill="none" stroke="#00ABEB" stroke-width="0.15" stroke-miterlimit="10" x1="-77.695" y1="82.904" x2="149.146" y2="82.904"/>
				
					<line fill="none" stroke="#00ABEB" stroke-width="0.15" stroke-miterlimit="10" x1="-75.707" y1="80.916" x2="151.133" y2="80.916"/>
				
					<line fill="none" stroke="#00ABEB" stroke-width="0.15" stroke-miterlimit="10" x1="-73.719" y1="78.928" x2="153.122" y2="78.928"/>
				
					<line fill="none" stroke="#00ABEB" stroke-width="0.15" stroke-miterlimit="10" x1="-71.731" y1="76.94" x2="155.11" y2="76.94"/>
				
					<line fill="none" stroke="#00ABEB" stroke-width="0.15" stroke-miterlimit="10" x1="-69.744" y1="74.953" x2="157.097" y2="74.953"/>
				
					<line fill="none" stroke="#00ABEB" stroke-width="0.15" stroke-miterlimit="10" x1="-67.755" y1="72.965" x2="159.085" y2="72.965"/>
				
					<line fill="none" stroke="#00ABEB" stroke-width="0.15" stroke-miterlimit="10" x1="-65.767" y1="70.976" x2="161.074" y2="70.976"/>
				
					<line fill="none" stroke="#00ABEB" stroke-width="0.15" stroke-miterlimit="10" x1="-63.78" y1="68.989" x2="163.061" y2="68.989"/>
				
					<line fill="none" stroke="#00ABEB" stroke-width="0.15" stroke-miterlimit="10" x1="-61.792" y1="67.001" x2="165.049" y2="67.001"/>
				
					<line fill="none" stroke="#00ABEB" stroke-width="0.15" stroke-miterlimit="10" x1="-59.803" y1="65.013" x2="167.037" y2="65.013"/>
				
					<line fill="none" stroke="#00ABEB" stroke-width="0.15" stroke-miterlimit="10" x1="-57.816" y1="63.025" x2="169.025" y2="63.025"/>
				
					<line fill="none" stroke="#00ABEB" stroke-width="0.15" stroke-miterlimit="10" x1="-55.828" y1="61.037" x2="171.013" y2="61.037"/>
				
					<line fill="none" stroke="#00ABEB" stroke-width="0.15" stroke-miterlimit="10" x1="-53.84" y1="59.049" x2="173.001" y2="59.049"/>
				
					<line fill="none" stroke="#00ABEB" stroke-width="0.15" stroke-miterlimit="10" x1="-51.852" y1="57.061" x2="174.989" y2="57.061"/>
				
					<line fill="none" stroke="#00ABEB" stroke-width="0.15" stroke-miterlimit="10" x1="-49.864" y1="55.073" x2="176.977" y2="55.073"/>
				
					<line fill="none" stroke="#00ABEB" stroke-width="0.15" stroke-miterlimit="10" x1="-47.876" y1="53.085" x2="178.965" y2="53.085"/>
				
					<line fill="none" stroke="#00ABEB" stroke-width="0.15" stroke-miterlimit="10" x1="-45.888" y1="51.098" x2="180.952" y2="51.098"/>
				
					<line fill="none" stroke="#00ABEB" stroke-width="0.15" stroke-miterlimit="10" x1="-43.9" y1="49.109" x2="182.941" y2="49.109"/>
				
					<line fill="none" stroke="#00ABEB" stroke-width="0.15" stroke-miterlimit="10" x1="-41.912" y1="47.122" x2="184.928" y2="47.122"/>
				
					<line fill="none" stroke="#00ABEB" stroke-width="0.15" stroke-miterlimit="10" x1="-39.924" y1="45.133" x2="186.917" y2="45.133"/>
				
					<line fill="none" stroke="#00ABEB" stroke-width="0.15" stroke-miterlimit="10" x1="-37.936" y1="43.145" x2="188.905" y2="43.145"/>
				
					<line fill="none" stroke="#00ABEB" stroke-width="0.15" stroke-miterlimit="10" x1="-35.949" y1="41.158" x2="190.892" y2="41.158"/>
				
					<line fill="none" stroke="#00ABEB" stroke-width="0.15" stroke-miterlimit="10" x1="-33.96" y1="39.17" x2="192.88" y2="39.17"/>
				
					<line fill="none" stroke="#00ABEB" stroke-width="0.15" stroke-miterlimit="10" x1="-31.972" y1="37.181" x2="194.869" y2="37.181"/>
				
					<line fill="none" stroke="#00ABEB" stroke-width="0.15" stroke-miterlimit="10" x1="-29.985" y1="35.194" x2="196.856" y2="35.194"/>
				
					<line fill="none" stroke="#00ABEB" stroke-width="0.15" stroke-miterlimit="10" x1="-27.997" y1="33.206" x2="198.844" y2="33.206"/>
				
					<line fill="none" stroke="#00ABEB" stroke-width="0.15" stroke-miterlimit="10" x1="-26.008" y1="31.218" x2="200.832" y2="31.218"/>
				
					<line fill="none" stroke="#00ABEB" stroke-width="0.15" stroke-miterlimit="10" x1="-24.021" y1="29.23" x2="202.82" y2="29.23"/>
				
					<line fill="none" stroke="#00ABEB" stroke-width="0.15" stroke-miterlimit="10" x1="-22.033" y1="27.242" x2="204.808" y2="27.242"/>
				
					<line fill="none" stroke="#00ABEB" stroke-width="0.15" stroke-miterlimit="10" x1="-20.045" y1="25.254" x2="206.796" y2="25.254"/>
				
					<line fill="none" stroke="#00ABEB" stroke-width="0.15" stroke-miterlimit="10" x1="-18.057" y1="23.266" x2="208.784" y2="23.266"/>
				
					<line fill="none" stroke="#00ABEB" stroke-width="0.15" stroke-miterlimit="10" x1="-16.069" y1="21.278" x2="210.772" y2="21.278"/>
				
					<line fill="none" stroke="#00ABEB" stroke-width="0.15" stroke-miterlimit="10" x1="-14.081" y1="19.291" x2="212.76" y2="19.291"/>
				
					<line fill="none" stroke="#00ABEB" stroke-width="0.15" stroke-miterlimit="10" x1="-12.093" y1="17.302" x2="214.748" y2="17.302"/>
				
					<line fill="none" stroke="#00ABEB" stroke-width="0.15" stroke-miterlimit="10" x1="-10.105" y1="15.314" x2="216.736" y2="15.314"/>
				
					<line fill="none" stroke="#00ABEB" stroke-width="0.15" stroke-miterlimit="10" x1="-8.117" y1="13.327" x2="218.724" y2="13.327"/>
			</g>
			<g id="Vertical_1_mm_00000181073523592228201180000012361058669048395659_">
				<g>
					
						<line fill="none" stroke="#00ABEB" stroke-width="0.15" stroke-miterlimit="10" x1="-123.333" y1="128.617" x2="-4.013" y2="9.298"/>
				</g>
				
					<line fill="none" stroke="#00ABEB" stroke-width="0.15" stroke-miterlimit="10" x1="-120.499" y1="128.617" x2="-1.179" y2="9.298"/>
				
					<line fill="none" stroke="#00ABEB" stroke-width="0.15" stroke-miterlimit="10" x1="-117.664" y1="128.617" x2="1.656" y2="9.298"/>
				
					<line fill="none" stroke="#00ABEB" stroke-width="0.15" stroke-miterlimit="10" x1="-114.829" y1="128.617" x2="4.491" y2="9.298"/>
				
					<line fill="none" stroke="#00ABEB" stroke-width="0.15" stroke-miterlimit="10" x1="-111.995" y1="128.617" x2="7.325" y2="9.298"/>
				
					<line fill="none" stroke="#00ABEB" stroke-width="0.15" stroke-miterlimit="10" x1="-109.16" y1="128.617" x2="10.16" y2="9.298"/>
				
					<line fill="none" stroke="#00ABEB" stroke-width="0.15" stroke-miterlimit="10" x1="-106.325" y1="128.617" x2="12.995" y2="9.298"/>
				
					<line fill="none" stroke="#00ABEB" stroke-width="0.15" stroke-miterlimit="10" x1="-103.491" y1="128.617" x2="15.829" y2="9.298"/>
				
					<line fill="none" stroke="#00ABEB" stroke-width="0.15" stroke-miterlimit="10" x1="-100.656" y1="128.617" x2="18.664" y2="9.298"/>
				
					<line fill="none" stroke="#00ABEB" stroke-width="0.15" stroke-miterlimit="10" x1="-97.822" y1="128.617" x2="21.498" y2="9.298"/>
				
					<line fill="none" stroke="#00ABEB" stroke-width="0.15" stroke-miterlimit="10" x1="-94.987" y1="128.617" x2="24.333" y2="9.298"/>
				
					<line fill="none" stroke="#00ABEB" stroke-width="0.15" stroke-miterlimit="10" x1="-92.152" y1="128.617" x2="27.168" y2="9.298"/>
				
					<line fill="none" stroke="#00ABEB" stroke-width="0.15" stroke-miterlimit="10" x1="-89.318" y1="128.617" x2="30.002" y2="9.298"/>
				
					<line fill="none" stroke="#00ABEB" stroke-width="0.15" stroke-miterlimit="10" x1="-86.483" y1="128.617" x2="32.837" y2="9.298"/>
				
					<line fill="none" stroke="#00ABEB" stroke-width="0.15" stroke-miterlimit="10" x1="-83.648" y1="128.617" x2="35.672" y2="9.298"/>
				
					<line fill="none" stroke="#00ABEB" stroke-width="0.15" stroke-miterlimit="10" x1="-80.814" y1="128.617" x2="38.506" y2="9.298"/>
				
					<line fill="none" stroke="#00ABEB" stroke-width="0.15" stroke-miterlimit="10" x1="-77.979" y1="128.617" x2="41.341" y2="9.298"/>
				
					<line fill="none" stroke="#00ABEB" stroke-width="0.15" stroke-miterlimit="10" x1="-75.144" y1="128.617" x2="44.176" y2="9.298"/>
				
					<line fill="none" stroke="#00ABEB" stroke-width="0.15" stroke-miterlimit="10" x1="-72.31" y1="128.617" x2="47.01" y2="9.298"/>
				
					<line fill="none" stroke="#00ABEB" stroke-width="0.15" stroke-miterlimit="10" x1="-69.475" y1="128.617" x2="49.845" y2="9.298"/>
				
					<line fill="none" stroke="#00ABEB" stroke-width="0.15" stroke-miterlimit="10" x1="-66.64" y1="128.617" x2="52.68" y2="9.298"/>
				
					<line fill="none" stroke="#00ABEB" stroke-width="0.15" stroke-miterlimit="10" x1="-63.806" y1="128.617" x2="55.514" y2="9.298"/>
				
					<line fill="none" stroke="#00ABEB" stroke-width="0.15" stroke-miterlimit="10" x1="-60.971" y1="128.617" x2="58.349" y2="9.298"/>
				
					<line fill="none" stroke="#00ABEB" stroke-width="0.15" stroke-miterlimit="10" x1="-58.136" y1="128.617" x2="61.184" y2="9.298"/>
				
					<line fill="none" stroke="#00ABEB" stroke-width="0.15" stroke-miterlimit="10" x1="-55.302" y1="128.617" x2="64.018" y2="9.298"/>
				
					<line fill="none" stroke="#00ABEB" stroke-width="0.15" stroke-miterlimit="10" x1="-52.467" y1="128.617" x2="66.853" y2="9.298"/>
				
					<line fill="none" stroke="#00ABEB" stroke-width="0.15" stroke-miterlimit="10" x1="-49.633" y1="128.617" x2="69.687" y2="9.298"/>
				
					<line fill="none" stroke="#00ABEB" stroke-width="0.15" stroke-miterlimit="10" x1="-46.798" y1="128.617" x2="72.522" y2="9.298"/>
				
					<line fill="none" stroke="#00ABEB" stroke-width="0.15" stroke-miterlimit="10" x1="-43.963" y1="128.617" x2="75.357" y2="9.298"/>
				
					<line fill="none" stroke="#00ABEB" stroke-width="0.15" stroke-miterlimit="10" x1="-41.129" y1="128.617" x2="78.191" y2="9.298"/>
				
					<line fill="none" stroke="#00ABEB" stroke-width="0.15" stroke-miterlimit="10" x1="-38.294" y1="128.617" x2="81.026" y2="9.298"/>
				
					<line fill="none" stroke="#00ABEB" stroke-width="0.15" stroke-miterlimit="10" x1="-35.459" y1="128.617" x2="83.861" y2="9.298"/>
				
					<line fill="none" stroke="#00ABEB" stroke-width="0.15" stroke-miterlimit="10" x1="-32.625" y1="128.617" x2="86.695" y2="9.298"/>
				
					<line fill="none" stroke="#00ABEB" stroke-width="0.15" stroke-miterlimit="10" x1="-29.79" y1="128.617" x2="89.53" y2="9.298"/>
				
					<line fill="none" stroke="#00ABEB" stroke-width="0.15" stroke-miterlimit="10" x1="-26.955" y1="128.617" x2="92.365" y2="9.298"/>
				
					<line fill="none" stroke="#00ABEB" stroke-width="0.15" stroke-miterlimit="10" x1="-24.121" y1="128.617" x2="95.199" y2="9.298"/>
				
					<line fill="none" stroke="#00ABEB" stroke-width="0.15" stroke-miterlimit="10" x1="-21.286" y1="128.617" x2="98.034" y2="9.298"/>
				
					<line fill="none" stroke="#00ABEB" stroke-width="0.15" stroke-miterlimit="10" x1="-18.451" y1="128.617" x2="100.869" y2="9.298"/>
				
					<line fill="none" stroke="#00ABEB" stroke-width="0.15" stroke-miterlimit="10" x1="-15.617" y1="128.617" x2="103.703" y2="9.298"/>
				
					<line fill="none" stroke="#00ABEB" stroke-width="0.15" stroke-miterlimit="10" x1="-12.782" y1="128.617" x2="106.538" y2="9.298"/>
				
					<line fill="none" stroke="#00ABEB" stroke-width="0.15" stroke-miterlimit="10" x1="-9.948" y1="128.617" x2="109.372" y2="9.298"/>
				
					<line fill="none" stroke="#00ABEB" stroke-width="0.15" stroke-miterlimit="10" x1="-7.113" y1="128.617" x2="112.207" y2="9.298"/>
				
					<line fill="none" stroke="#00ABEB" stroke-width="0.15" stroke-miterlimit="10" x1="-4.278" y1="128.617" x2="115.042" y2="9.298"/>
				
					<line fill="none" stroke="#00ABEB" stroke-width="0.15" stroke-miterlimit="10" x1="-1.444" y1="128.617" x2="117.876" y2="9.298"/>
				
					<line fill="none" stroke="#00ABEB" stroke-width="0.15" stroke-miterlimit="10" x1="1.391" y1="128.617" x2="120.711" y2="9.298"/>
				
					<line fill="none" stroke="#00ABEB" stroke-width="0.15" stroke-miterlimit="10" x1="4.226" y1="128.617" x2="123.546" y2="9.298"/>
				
					<line fill="none" stroke="#00ABEB" stroke-width="0.15" stroke-miterlimit="10" x1="7.06" y1="128.617" x2="126.38" y2="9.298"/>
				
					<line fill="none" stroke="#00ABEB" stroke-width="0.15" stroke-miterlimit="10" x1="9.895" y1="128.617" x2="129.215" y2="9.298"/>
				
					<line fill="none" stroke="#00ABEB" stroke-width="0.15" stroke-miterlimit="10" x1="12.73" y1="128.617" x2="132.05" y2="9.298"/>
				
					<line fill="none" stroke="#00ABEB" stroke-width="0.15" stroke-miterlimit="10" x1="15.564" y1="128.617" x2="134.884" y2="9.298"/>
				
					<line fill="none" stroke="#00ABEB" stroke-width="0.15" stroke-miterlimit="10" x1="18.399" y1="128.617" x2="137.719" y2="9.298"/>
				
					<line fill="none" stroke="#00ABEB" stroke-width="0.15" stroke-miterlimit="10" x1="21.234" y1="128.617" x2="140.554" y2="9.298"/>
				
					<line fill="none" stroke="#00ABEB" stroke-width="0.15" stroke-miterlimit="10" x1="24.068" y1="128.617" x2="143.388" y2="9.298"/>
				
					<line fill="none" stroke="#00ABEB" stroke-width="0.15" stroke-miterlimit="10" x1="26.903" y1="128.617" x2="146.223" y2="9.298"/>
				
					<line fill="none" stroke="#00ABEB" stroke-width="0.15" stroke-miterlimit="10" x1="29.738" y1="128.617" x2="149.058" y2="9.298"/>
				
					<line fill="none" stroke="#00ABEB" stroke-width="0.15" stroke-miterlimit="10" x1="32.572" y1="128.617" x2="151.892" y2="9.298"/>
				
					<line fill="none" stroke="#00ABEB" stroke-width="0.15" stroke-miterlimit="10" x1="35.407" y1="128.617" x2="154.727" y2="9.298"/>
				
					<line fill="none" stroke="#00ABEB" stroke-width="0.15" stroke-miterlimit="10" x1="38.241" y1="128.617" x2="157.561" y2="9.298"/>
				
					<line fill="none" stroke="#00ABEB" stroke-width="0.15" stroke-miterlimit="10" x1="41.076" y1="128.617" x2="160.396" y2="9.298"/>
				
					<line fill="none" stroke="#00ABEB" stroke-width="0.15" stroke-miterlimit="10" x1="43.911" y1="128.617" x2="163.231" y2="9.298"/>
				
					<line fill="none" stroke="#00ABEB" stroke-width="0.15" stroke-miterlimit="10" x1="46.745" y1="128.617" x2="166.065" y2="9.298"/>
				
					<line fill="none" stroke="#00ABEB" stroke-width="0.15" stroke-miterlimit="10" x1="49.58" y1="128.617" x2="168.9" y2="9.298"/>
				
					<line fill="none" stroke="#00ABEB" stroke-width="0.15" stroke-miterlimit="10" x1="52.415" y1="128.617" x2="171.735" y2="9.298"/>
				
					<line fill="none" stroke="#00ABEB" stroke-width="0.15" stroke-miterlimit="10" x1="55.249" y1="128.617" x2="174.569" y2="9.298"/>
				
					<line fill="none" stroke="#00ABEB" stroke-width="0.15" stroke-miterlimit="10" x1="58.084" y1="128.617" x2="177.404" y2="9.298"/>
				
					<line fill="none" stroke="#00ABEB" stroke-width="0.15" stroke-miterlimit="10" x1="60.919" y1="128.617" x2="180.239" y2="9.298"/>
				
					<line fill="none" stroke="#00ABEB" stroke-width="0.15" stroke-miterlimit="10" x1="63.753" y1="128.617" x2="183.073" y2="9.298"/>
				
					<line fill="none" stroke="#00ABEB" stroke-width="0.15" stroke-miterlimit="10" x1="66.588" y1="128.617" x2="185.908" y2="9.298"/>
				
					<line fill="none" stroke="#00ABEB" stroke-width="0.15" stroke-miterlimit="10" x1="69.423" y1="128.617" x2="188.743" y2="9.298"/>
				
					<line fill="none" stroke="#00ABEB" stroke-width="0.15" stroke-miterlimit="10" x1="72.257" y1="128.617" x2="191.577" y2="9.298"/>
				
					<line fill="none" stroke="#00ABEB" stroke-width="0.15" stroke-miterlimit="10" x1="75.092" y1="128.617" x2="194.412" y2="9.298"/>
				
					<line fill="none" stroke="#00ABEB" stroke-width="0.15" stroke-miterlimit="10" x1="77.927" y1="128.617" x2="197.247" y2="9.298"/>
				
					<line fill="none" stroke="#00ABEB" stroke-width="0.15" stroke-miterlimit="10" x1="80.761" y1="128.617" x2="200.081" y2="9.298"/>
				
					<line fill="none" stroke="#00ABEB" stroke-width="0.15" stroke-miterlimit="10" x1="83.596" y1="128.617" x2="202.916" y2="9.298"/>
				
					<line fill="none" stroke="#00ABEB" stroke-width="0.15" stroke-miterlimit="10" x1="86.43" y1="128.617" x2="205.75" y2="9.298"/>
				
					<line fill="none" stroke="#00ABEB" stroke-width="0.15" stroke-miterlimit="10" x1="89.265" y1="128.617" x2="208.585" y2="9.298"/>
				
					<line fill="none" stroke="#00ABEB" stroke-width="0.15" stroke-miterlimit="10" x1="92.1" y1="128.617" x2="211.42" y2="9.298"/>
				
					<line fill="none" stroke="#00ABEB" stroke-width="0.15" stroke-miterlimit="10" x1="94.934" y1="128.617" x2="214.254" y2="9.298"/>
				
					<line fill="none" stroke="#00ABEB" stroke-width="0.15" stroke-miterlimit="10" x1="97.769" y1="128.617" x2="217.089" y2="9.298"/>
				
					<line fill="none" stroke="#00ABEB" stroke-width="0.15" stroke-miterlimit="10" x1="100.604" y1="128.617" x2="219.924" y2="9.298"/>
				
					<line fill="none" stroke="#00ABEB" stroke-width="0.15" stroke-miterlimit="10" x1="103.438" y1="128.617" x2="222.758" y2="9.298"/>
			</g>
			<g id="Horizontal_5_mm_00000011735556503592991880000008134099091165005186_">
				
					<line fill="none" stroke="#00ABEB" stroke-width="0.3" stroke-miterlimit="10" x1="-123.693" y1="128.627" x2="103.423" y2="128.627"/>
				
					<line fill="none" stroke="#00ABEB" stroke-width="0.3" stroke-miterlimit="10" x1="-113.753" y1="118.687" x2="113.362" y2="118.687"/>
				
					<line fill="none" stroke="#00ABEB" stroke-width="0.3" stroke-miterlimit="10" x1="-103.814" y1="108.748" x2="123.302" y2="108.748"/>
				
					<line fill="none" stroke="#00ABEB" stroke-width="0.3" stroke-miterlimit="10" x1="-93.873" y1="98.807" x2="133.242" y2="98.807"/>
				
					<line fill="none" stroke="#00ABEB" stroke-width="0.3" stroke-miterlimit="10" x1="-83.934" y1="88.868" x2="143.182" y2="88.868"/>
				
					<line fill="none" stroke="#00ABEB" stroke-width="0.3" stroke-miterlimit="10" x1="-73.994" y1="78.928" x2="153.122" y2="78.928"/>
				
					<line fill="none" stroke="#00ABEB" stroke-width="0.3" stroke-miterlimit="10" x1="-64.055" y1="68.989" x2="163.061" y2="68.989"/>
				
					<line fill="none" stroke="#00ABEB" stroke-width="0.3" stroke-miterlimit="10" x1="-54.115" y1="59.049" x2="173.001" y2="59.049"/>
				
					<line fill="none" stroke="#00ABEB" stroke-width="0.3" stroke-miterlimit="10" x1="-44.175" y1="49.109" x2="182.941" y2="49.109"/>
				
					<line fill="none" stroke="#00ABEB" stroke-width="0.3" stroke-miterlimit="10" x1="-34.235" y1="39.17" x2="192.88" y2="39.17"/>
				
					<line fill="none" stroke="#00ABEB" stroke-width="0.3" stroke-miterlimit="10" x1="-24.296" y1="29.23" x2="202.82" y2="29.23"/>
			</g>
			<g id="Vertical_5_mm_00000064346364918789686960000003233481195482251947_">
				
					<line fill="none" stroke="#00ABEB" stroke-width="0.3" stroke-miterlimit="10" x1="-123.333" y1="128.617" x2="-3.82" y2="9.105"/>
				
					<line fill="none" stroke="#00ABEB" stroke-width="0.3" stroke-miterlimit="10" x1="-109.16" y1="128.617" x2="10.353" y2="9.105"/>
				
					<line fill="none" stroke="#00ABEB" stroke-width="0.3" stroke-miterlimit="10" x1="-94.987" y1="128.617" x2="24.526" y2="9.105"/>
				
					<line fill="none" stroke="#00ABEB" stroke-width="0.3" stroke-miterlimit="10" x1="-80.814" y1="128.617" x2="38.699" y2="9.105"/>
				
					<line fill="none" stroke="#00ABEB" stroke-width="0.3" stroke-miterlimit="10" x1="-66.64" y1="128.617" x2="52.873" y2="9.105"/>
				
					<line fill="none" stroke="#00ABEB" stroke-width="0.3" stroke-miterlimit="10" x1="-52.467" y1="128.617" x2="67.046" y2="9.105"/>
				
					<line fill="none" stroke="#00ABEB" stroke-width="0.3" stroke-miterlimit="10" x1="-38.294" y1="128.617" x2="81.219" y2="9.105"/>
				
					<line fill="none" stroke="#00ABEB" stroke-width="0.3" stroke-miterlimit="10" x1="-24.121" y1="128.617" x2="95.392" y2="9.105"/>
				
					<line fill="none" stroke="#00ABEB" stroke-width="0.3" stroke-miterlimit="10" x1="-9.948" y1="128.617" x2="109.564" y2="9.105"/>
				
					<line fill="none" stroke="#00ABEB" stroke-width="0.3" stroke-miterlimit="10" x1="4.226" y1="128.617" x2="123.739" y2="9.105"/>
				
					<line fill="none" stroke="#00ABEB" stroke-width="0.3" stroke-miterlimit="10" x1="18.399" y1="128.617" x2="137.912" y2="9.105"/>
				
					<line fill="none" stroke="#00ABEB" stroke-width="0.3" stroke-miterlimit="10" x1="32.572" y1="128.617" x2="152.084" y2="9.105"/>
				
					<line fill="none" stroke="#00ABEB" stroke-width="0.3" stroke-miterlimit="10" x1="46.745" y1="128.617" x2="166.258" y2="9.105"/>
				
					<line fill="none" stroke="#00ABEB" stroke-width="0.3" stroke-miterlimit="10" x1="60.919" y1="128.617" x2="180.432" y2="9.105"/>
				
					<line fill="none" stroke="#00ABEB" stroke-width="0.3" stroke-miterlimit="10" x1="75.092" y1="128.617" x2="194.605" y2="9.105"/>
				
					<line fill="none" stroke="#00ABEB" stroke-width="0.3" stroke-miterlimit="10" x1="89.265" y1="128.617" x2="208.778" y2="9.105"/>
				
					<line fill="none" stroke="#00ABEB" stroke-width="0.3" stroke-miterlimit="10" x1="103.438" y1="128.617" x2="222.951" y2="9.105"/>
			</g>
			<g id="Horizontal_10_mm_00000163045836177147705350000008480455355013810362_">
				
					<line id="_x31_9_00000057116790517712807720000015084113881736219806_" fill="none" stroke="#00ABEB" stroke-width="0.7" stroke-miterlimit="10" x1="-123.693" y1="128.627" x2="103.423" y2="128.627"/>
				
					<line id="_x32_0_00000024685878617286333290000013167547815532084100_" fill="none" stroke="#00ABEB" stroke-width="0.7" stroke-miterlimit="10" x1="-103.814" y1="108.748" x2="123.302" y2="108.748"/>
				
					<line id="_x32_1_00000138564813020868535020000012777939180148238773_" fill="none" stroke="#00ABEB" stroke-width="0.7" stroke-miterlimit="10" x1="-83.934" y1="88.868" x2="143.182" y2="88.868"/>
				
					<line id="_x32_2_00000052807586205252870140000014502512662559454639_" fill="none" stroke="#00ABEB" stroke-width="0.7" stroke-miterlimit="10" x1="-64.055" y1="68.989" x2="163.061" y2="68.989"/>
				
					<line id="_x32_3_00000051376893246677475670000009295515732899575694_" fill="none" stroke="#00ABEB" stroke-width="0.7" stroke-miterlimit="10" x1="-44.175" y1="49.109" x2="182.941" y2="49.109"/>
				
					<line id="_x32_4_00000099657911357833521510000007853591198542098087_" fill="none" stroke="#00ABEB" stroke-width="0.7" stroke-miterlimit="10" x1="-24.296" y1="29.23" x2="202.82" y2="29.23"/>
				
					<line id="_x32_5_00000155127691660191171140000008292164438978366870_" fill="none" stroke="#00ABEB" stroke-width="0.7" stroke-miterlimit="10" x1="-4.416" y1="9.35" x2="222.7" y2="9.35"/>
			</g>
			<g id="Vertical_10_mm_00000134969164297783457920000010833503864539426239_">
				
					<line id="_x30__00000151539528360119995570000005083818057555393183_" fill="none" stroke="#00ABEB" stroke-width="0.7" stroke-miterlimit="10" x1="-123.333" y1="128.617" x2="-3.82" y2="9.105"/>
				
					<line id="_x31__00000021823889366233599640000011971139016478256513_" fill="none" stroke="#00ABEB" stroke-width="0.7" stroke-miterlimit="10" x1="-94.987" y1="128.617" x2="24.526" y2="9.105"/>
				
					<line id="_x32__00000071550223824624162640000006130814236846722696_" fill="none" stroke="#00ABEB" stroke-width="0.7" stroke-miterlimit="10" x1="-66.64" y1="128.617" x2="52.873" y2="9.105"/>
				
					<line id="_x33__00000042015976804734918030000005045165563697445304_" fill="none" stroke="#00ABEB" stroke-width="0.7" stroke-miterlimit="10" x1="-38.294" y1="128.617" x2="81.219" y2="9.105"/>
				
					<line id="_x34__00000081637789328126233800000002486991317463304126_" fill="none" stroke="#00ABEB" stroke-width="0.7" stroke-miterlimit="10" x1="-9.948" y1="128.617" x2="109.564" y2="9.105"/>
				
					<line id="_x35__00000051353690731882489090000004794744233340785543_" fill="none" stroke="#00ABEB" stroke-width="0.7" stroke-miterlimit="10" x1="18.399" y1="128.617" x2="137.912" y2="9.105"/>
				
					<line id="_x36__00000011745311307505536660000010485558803267122343_" fill="none" stroke="#00ABEB" stroke-width="0.7" stroke-miterlimit="10" x1="46.745" y1="128.617" x2="166.258" y2="9.105"/>
				
					<line id="_x37__00000045602144989735358580000003937589459941247142_" fill="none" stroke="#00ABEB" stroke-width="0.7" stroke-miterlimit="10" x1="75.092" y1="128.617" x2="194.605" y2="9.105"/>
				
					<line id="_x38__00000047029857857898873560000014194396358708286345_" fill="none" stroke="#00ABEB" stroke-width="0.7" stroke-miterlimit="10" x1="103.438" y1="128.617" x2="222.951" y2="9.105"/>
			</g>
		</g>
	</g>
</g>
<g id="Axis">
	<g id="lines">
		<g>
			<g>
				
					<line fill="none" stroke="#000000" stroke-width="0.5" stroke-miterlimit="10" x1="49.685" y1="68.979" x2="49.685" y2="4.604"/>
				<g>
					<polygon points="51.536,6.009 49.685,5.222 47.833,6.009 49.685,1.62 					"/>
				</g>
			</g>
		</g>
		<g>
			<g>
				
					<line fill="none" stroke="#000000" stroke-width="0.5" stroke-miterlimit="10" x1="49.685" y1="68.979" x2="90.272" y2="68.979"/>
				<g>
					<polygon points="88.868,70.83 89.654,68.979 88.868,67.127 93.257,68.979 					"/>
				</g>
			</g>
		</g>
		<g>
			<g>
				
					<line fill="none" stroke="#000000" stroke-width="0.5" stroke-miterlimit="10" x1="49.685" y1="68.979" x2="28.383" y2="90.281"/>
				<g>
					<polygon points="28.067,87.978 28.82,89.844 30.686,90.597 26.273,92.391 					"/>
				</g>
			</g>
		</g>
	</g>
	<g id="names">
		<g>
			<path d="M91.206,74.381c0.51-0.846,0.732-1.277,0.732-1.542c0-0.084-0.042-0.12-0.156-0.192c-0.12-0.078-0.156-0.138-0.156-0.234
				c0-0.132,0.102-0.222,0.24-0.222c0.18,0,0.312,0.15,0.312,0.33c0,0.342-0.288,1.001-0.786,1.829
				c-0.624,1.032-1.265,1.721-1.607,1.721c-0.18,0-0.306-0.102-0.306-0.258c0-0.132,0.102-0.24,0.234-0.24
				c0.21,0,0.21,0.167,0.366,0.167c0.078,0,0.15-0.048,0.288-0.198c0.108-0.114,0.378-0.468,0.426-0.545
				c0.036-0.072,0.06-0.144,0.06-0.21c0-0.24-0.33-1.583-0.492-1.991c-0.114-0.293-0.222-0.384-0.462-0.384
				c-0.066,0-0.12,0.006-0.186,0.024v-0.102c0.066-0.012,0.132-0.024,0.192-0.036c0.12-0.024,0.318-0.06,0.642-0.108h0.024
				c0.09,0,0.408,0.996,0.51,1.529L91.206,74.381z"/>
		</g>
		<g>
			<path d="M44.819,6.383c0.348,0.078,0.479,0.144,0.719,0.498c0.156,0.228,0.27,0.3,0.42,0.3c0.096,0,0.162-0.036,0.162-0.09
				c0-0.024-0.012-0.054-0.03-0.09c-0.036-0.072-0.048-0.12-0.048-0.167c0.006-0.102,0.102-0.204,0.198-0.204
				c0.126,0,0.21,0.09,0.21,0.222c0,0.24-0.222,0.456-0.558,0.456c-0.174,0-0.378-0.078-0.678-0.264
				c-0.282-0.174-0.474-0.251-0.629-0.251c-0.096,0-0.174,0.03-0.27,0.108l-0.054-0.054l1.859-2.231h-0.816
				c-0.312,0-0.426,0.054-0.545,0.36L44.662,4.95l0.192-0.695h1.697v0.066L44.819,6.383z"/>
		</g>
		<g>
			<path d="M24.033,90.11c0.419-0.642,0.642-0.857,0.905-0.857c0.144,0,0.246,0.09,0.246,0.222c0,0.126-0.084,0.216-0.204,0.216
				c-0.114,0-0.168-0.102-0.312-0.102c-0.108,0-0.324,0.264-0.588,0.726c0,0.042,0.012,0.126,0.048,0.27l0.192,0.804
				c0.042,0.168,0.096,0.246,0.18,0.246c0.078,0,0.144-0.06,0.282-0.24c0.054-0.072,0.078-0.108,0.126-0.168l0.09,0.054
				c-0.348,0.54-0.504,0.684-0.731,0.684c-0.192,0-0.282-0.108-0.354-0.408l-0.174-0.714l-0.528,0.714
				c-0.264,0.354-0.384,0.408-0.57,0.408c-0.186,0-0.3-0.096-0.3-0.252c0-0.12,0.084-0.216,0.204-0.216
				c0.054,0,0.114,0.024,0.192,0.066c0.06,0.036,0.12,0.054,0.156,0.054c0.066,0,0.18-0.114,0.306-0.294l0.492-0.696l-0.168-0.743
				c-0.084-0.36-0.126-0.408-0.276-0.408c-0.048,0-0.12,0.012-0.234,0.042l-0.108,0.03l-0.018-0.096l0.066-0.024
				c0.366-0.132,0.564-0.174,0.702-0.174c0.15,0,0.222,0.108,0.306,0.516L24.033,90.11z"/>
		</g>
	</g>
	
		<ellipse fill="none" stroke="#009400" stroke-width="0.5" stroke-miterlimit="10" cx="49.685" cy="22.207" rx="31.181" ry="9.921"/>
	<line fill="none" stroke="#009400" stroke-width="0.5" stroke-miterlimit="10" x1="49.684" y1="68.979" x2="25.552" y2="33.589"/>
	
		<line fill="none" stroke="#009400" stroke-width="0.5" stroke-miterlimit="10" stroke-dasharray="2,2" x1="25.751" y1="33.871" x2="19.046" y2="24.047"/>
	<line fill="none" stroke="#0000FF" stroke-width="0.3" stroke-miterlimit="10" x1="49.686" y1="68.705" x2="73.581" y2="33.871"/>
	
		<line fill="none" stroke="#009400" stroke-width="0.5" stroke-miterlimit="10" stroke-dasharray="2,2" x1="49.685" y1="68.705" x2="80.39" y2="23.942"/>
</g>
<g id="Layer_4">
	<path opacity="0.2" fill="#009400" d="M49.685,32.128c-15.241,0-27.928-3.479-30.644-8.078l0.006-0.003l30.638,44.888
		l30.706-44.993C77.812,28.594,65.046,32.128,49.685,32.128"/>
	<ellipse opacity="0.2" fill="#009400" cx="49.685" cy="22.207" rx="31.181" ry="9.921"/>
	<line fill="none" stroke="#000000" stroke-width="0.1" stroke-miterlimit="10" x1="48.762" y1="22.207" x2="50.548" y2="22.207"/>
	
		<ellipse opacity="0.3" fill="#FF00FF" stroke="#000000" stroke-width="0.2" stroke-miterlimit="10" cx="49.685" cy="45.562" rx="15.696" ry="4.994"/>
</g>
<g id="Layer_3">
	<polygon fill="none" stroke="#FF0000" stroke-width="0.2" stroke-miterlimit="10" stroke-dasharray="2,2" points="98.67,10.543 
		75.342,33.871 2.427,33.871 25.755,10.543 	"/>
	<polygon opacity="0.2" fill="#FF0000" points="98.67,10.543 75.342,33.871 2.427,33.871 25.755,10.543 	"/>
	<polyline fill="none" stroke="#FF0000" stroke-width="0.2" stroke-miterlimit="10" points="75.047,33.871 2.427,33.871 
		25.755,10.543 	"/>
	<g>
		<path d="M46.038,21.714c0.408-0.677,0.738-0.905,1.157-0.905c0.402,0,0.696,0.258,0.696,0.72c0,0.947-0.989,1.991-1.919,1.991
			c-0.342,0-0.78-0.138-0.78-0.318v-0.036l0.852-3.136c0.036-0.144,0.054-0.228,0.054-0.282c0-0.132-0.03-0.138-0.384-0.15v-0.102
			c0.402-0.048,0.618-0.084,0.917-0.138l0.03,0.03l-0.126,0.492l-0.503,1.835H46.038z M46.962,21.103
			c-0.288,0-0.563,0.252-0.821,0.689c-0.264,0.444-0.432,1.025-0.432,1.385c0,0.138,0.09,0.204,0.276,0.204
			c0.258,0,0.516-0.126,0.737-0.354c0.36-0.372,0.66-0.965,0.66-1.409C47.382,21.252,47.226,21.103,46.962,21.103z"/>
	</g>
	<g>
		<path fill="#FF0000" d="M66.457,8.314c0.348,0.078,0.479,0.144,0.719,0.498c0.156,0.228,0.27,0.3,0.42,0.3
			c0.096,0,0.162-0.036,0.162-0.09c0-0.024-0.012-0.054-0.03-0.09c-0.036-0.072-0.048-0.12-0.048-0.167
			c0.006-0.102,0.102-0.204,0.198-0.204c0.126,0,0.21,0.09,0.21,0.222c0,0.24-0.222,0.456-0.558,0.456
			c-0.174,0-0.378-0.078-0.678-0.264c-0.282-0.174-0.474-0.251-0.629-0.251c-0.096,0-0.174,0.03-0.27,0.108l-0.054-0.054
			l1.859-2.231h-0.816c-0.312,0-0.426,0.054-0.545,0.36l-0.096-0.024l0.192-0.695h1.697v0.066L66.457,8.314z"/>
		<path fill="#FF0000" d="M68.761,6.833V6.437h3.022v0.396H68.761z M68.761,8.032V7.637h3.022v0.396H68.761z"/>
		<path fill="#FF0000" d="M73.278,7.013c0.408-0.677,0.738-0.905,1.157-0.905c0.402,0,0.696,0.258,0.696,0.72
			c0,0.947-0.989,1.991-1.919,1.991c-0.342,0-0.78-0.138-0.78-0.318V8.464l0.852-3.136c0.036-0.144,0.054-0.228,0.054-0.282
			c0-0.132-0.03-0.138-0.384-0.15V4.794c0.402-0.048,0.618-0.084,0.917-0.138l0.03,0.03l-0.126,0.492l-0.503,1.835H73.278z
			 M74.201,6.401c-0.288,0-0.563,0.252-0.821,0.689c-0.264,0.444-0.432,1.025-0.432,1.385c0,0.138,0.09,0.204,0.276,0.204
			c0.258,0,0.516-0.126,0.737-0.354c0.36-0.372,0.66-0.965,0.66-1.409C74.621,6.551,74.466,6.401,74.201,6.401z"/>
	</g>
	<g>
		<path fill="#0000FF" d="M85.516,4.468c0.348,0.078,0.479,0.144,0.719,0.498c0.156,0.228,0.27,0.3,0.42,0.3
			c0.096,0,0.162-0.036,0.162-0.09c0-0.024-0.012-0.054-0.03-0.09c-0.036-0.072-0.048-0.12-0.048-0.167
			c0.006-0.102,0.102-0.204,0.198-0.204c0.126,0,0.21,0.09,0.21,0.222c0,0.24-0.222,0.456-0.558,0.456
			c-0.174,0-0.378-0.078-0.678-0.264c-0.282-0.174-0.474-0.251-0.629-0.251c-0.096,0-0.174,0.03-0.27,0.108L84.958,4.93l1.859-2.231
			h-0.816c-0.312,0-0.426,0.054-0.545,0.36L85.36,3.035l0.192-0.695h1.697v0.066L85.516,4.468z"/>
		<path fill="#0000FF" d="M87.82,2.987V2.591h3.022v0.396H87.82z M87.82,4.186V3.79h3.022v0.396H87.82z"/>
		<path fill="#0000FF" d="M94.209,4.306c-0.45,0.545-0.594,0.66-0.833,0.66c-0.168,0-0.24-0.072-0.24-0.246
			c0-0.15,0.012-0.198,0.138-0.689c-0.45,0.678-0.797,0.941-1.217,0.941c-0.336,0-0.6-0.24-0.6-0.696
			c0-0.929,0.917-2.015,1.715-2.015c0.258,0,0.432,0.126,0.48,0.348l0.066-0.288l0.018-0.018l0.366-0.042l0.042,0.018
			c-0.012,0.054-0.018,0.066-0.036,0.126c-0.282,1.025-0.534,2.057-0.534,2.177c0,0.042,0.036,0.078,0.084,0.078
			c0.054,0,0.132-0.048,0.312-0.246l0.162-0.174L94.209,4.306z M93.207,2.393c-0.27,0-0.534,0.186-0.786,0.552
			C92.17,3.323,91.96,3.856,91.96,4.234c0,0.33,0.144,0.444,0.36,0.444c0.3,0,0.582-0.33,0.762-0.587
			c0.282-0.408,0.462-0.924,0.462-1.35C93.543,2.531,93.417,2.393,93.207,2.393z"/>
		<path fill="#0000FF" d="M95.511,3.358c0.114-0.251,0.318-0.569,0.563-0.827c0.156-0.162,0.336-0.27,0.474-0.27
			c0.168,0,0.282,0.126,0.282,0.306c0,0.18-0.102,0.324-0.282,0.324c-0.108,0-0.156-0.066-0.21-0.156
			c-0.036-0.06-0.054-0.084-0.096-0.084c-0.108,0-0.276,0.198-0.492,0.564c-0.258,0.444-0.366,0.684-0.666,1.691H94.63l0.485-1.751
			c0.084-0.312,0.096-0.366,0.096-0.492s-0.108-0.156-0.228-0.156c-0.048,0-0.096,0.006-0.186,0.018V2.423l0.929-0.162l0.018,0.012
			l-0.33,1.295L95.511,3.358z"/>
	</g>
	<g>
		<path fill="#FF00FF" d="M15.883,46.889l-0.024-0.018v-0.384c-0.204,0.282-0.432,0.402-0.768,0.402
			c-0.666,0-1.109-0.522-1.109-1.29c0-0.852,0.558-1.529,1.247-1.529c0.24,0,0.402,0.066,0.63,0.258v-0.936
			c0-0.246-0.054-0.306-0.276-0.306c-0.048,0-0.084,0-0.132,0.006v-0.096c0.384-0.102,0.594-0.162,0.882-0.264l0.03,0.012v3.4
			c0,0.276,0.048,0.342,0.264,0.342c0.03,0,0.036,0,0.138-0.006v0.096L15.883,46.889z M15.859,44.838c0-0.318-0.288-0.6-0.612-0.6
			c-0.456,0-0.75,0.444-0.75,1.122c0,0.738,0.324,1.217,0.828,1.217c0.186,0,0.335-0.066,0.443-0.192
			c0.054-0.06,0.09-0.126,0.09-0.168V44.838z"/>
		<path fill="#FF00FF" d="M16.915,46.829v-0.09c0.414-0.024,0.474-0.078,0.474-0.534v-1.361c0-0.282-0.048-0.378-0.198-0.378
			c-0.054,0-0.144,0-0.251,0.03V44.4l0.929-0.33l0.024,0.024v2.104c0,0.444,0.048,0.51,0.444,0.54v0.09H16.915z M17.587,43.345
			c-0.168,0-0.3-0.132-0.3-0.306c0-0.168,0.138-0.306,0.306-0.306c0.174,0,0.306,0.138,0.306,0.306
			C17.899,43.213,17.767,43.345,17.587,43.345z"/>
		<path fill="#FF00FF" d="M20.047,45.402c0.384,0.234,0.528,0.396,0.528,0.738c0,0.401-0.384,0.75-0.84,0.75
			c-0.125,0-0.3-0.006-0.438-0.054c-0.144-0.048-0.21-0.054-0.276-0.054c-0.072,0-0.108,0.012-0.144,0.072H18.8v-0.941h0.096
			c0.126,0.582,0.348,0.846,0.762,0.846c0.306,0,0.498-0.198,0.498-0.444c0-0.186-0.12-0.342-0.318-0.45l-0.324-0.18
			c-0.498-0.276-0.72-0.563-0.72-0.869c0-0.474,0.336-0.738,0.828-0.738c0.144,0,0.276,0.006,0.402,0.066
			c0.066,0.03,0.126,0.048,0.168,0.048c0.024,0,0.048-0.006,0.096-0.06h0.066l0.03,0.816h-0.09c-0.138-0.54-0.318-0.738-0.678-0.738
			c-0.258,0-0.45,0.126-0.45,0.408c0,0.132,0.09,0.306,0.258,0.408L20.047,45.402z"/>
		<path fill="#FF00FF" d="M22.543,46.829v-0.09h0.114c0.072,0,0.126-0.036,0.126-0.09c0-0.03-0.018-0.078-0.066-0.138l-0.899-1.188
			v1.104c0,0.21,0.09,0.294,0.33,0.306l0.12,0.006v0.09h-1.403v-0.09c0.432-0.072,0.45-0.09,0.45-0.402v-2.891
			c0-0.288-0.054-0.366-0.258-0.366c-0.06,0-0.114,0.006-0.192,0.012v-0.096l0.18-0.048c0.36-0.096,0.516-0.144,0.75-0.216
			l0.024,0.012v2.519l0.821-0.732c0.084-0.078,0.138-0.156,0.138-0.21c0-0.078-0.066-0.102-0.3-0.108V44.13H23.7v0.09
			c-0.384,0-0.558,0.072-1.295,0.755l-0.174,0.162l0.917,1.163c0.246,0.312,0.438,0.42,0.702,0.438v0.09H22.543z"/>
		<path fill="#FF00FF" d="M26.791,46.889c-0.726,0-1.295-0.594-1.295-1.427s0.54-1.391,1.349-1.391c0.732,0,1.295,0.545,1.295,1.373
			C28.14,46.277,27.6,46.889,26.791,46.889z M27.301,44.539c-0.144-0.18-0.312-0.3-0.57-0.3c-0.414,0-0.696,0.354-0.696,0.954
			c0,0.474,0.096,0.906,0.318,1.229c0.132,0.192,0.324,0.3,0.54,0.3c0.443,0,0.708-0.42,0.708-1.115
			C27.6,45.198,27.492,44.784,27.301,44.539z"/>
		<path fill="#FF00FF" d="M28.939,44.13c0.006-0.479,0.054-0.695,0.21-0.965c0.156-0.27,0.468-0.432,0.845-0.432
			c0.36,0,0.624,0.156,0.624,0.372c0,0.138-0.108,0.246-0.252,0.246c-0.102,0-0.174-0.054-0.27-0.216
			c-0.108-0.174-0.186-0.234-0.318-0.234c-0.228,0-0.335,0.18-0.335,0.534v0.695h0.731v0.192h-0.731v1.883
			c0,0.45,0.066,0.516,0.558,0.534v0.09h-1.559v-0.09c0.432-0.024,0.498-0.096,0.498-0.534v-1.883h-0.492V44.13H28.939z"/>
		<path fill="#FF00FF" d="M8.119,49.634c0.3-0.432,0.468-0.563,0.72-0.563c0.204,0,0.33,0.12,0.33,0.318
			c0,0.167-0.09,0.27-0.234,0.27c-0.078,0-0.144-0.03-0.24-0.12c-0.066-0.06-0.12-0.09-0.156-0.09c-0.168,0-0.42,0.3-0.42,0.492
			v1.35c0,0.342,0.102,0.432,0.51,0.45v0.09H7.19v-0.09c0.384-0.072,0.426-0.114,0.426-0.414v-1.499c0-0.264-0.054-0.36-0.204-0.36
			c-0.072,0-0.126,0.006-0.21,0.024v-0.096c0.354-0.114,0.57-0.198,0.888-0.324l0.03,0.012V49.634z"/>
		<path fill="#FF00FF" d="M11.796,51.601c-0.18,0.228-0.335,0.288-0.54,0.288c-0.222,0-0.354-0.12-0.384-0.438h-0.006
			c-0.318,0.36-0.612,0.438-0.87,0.438c-0.372,0-0.63-0.228-0.63-0.624c0-0.312,0.186-0.546,0.42-0.702
			c0.18-0.12,0.402-0.234,1.08-0.486v-0.324c0-0.372-0.198-0.54-0.468-0.54c-0.24,0-0.42,0.132-0.42,0.294
			c0,0.108,0.036,0.126,0.036,0.252c0,0.114-0.12,0.246-0.276,0.246c-0.126,0-0.258-0.114-0.258-0.275
			c0-0.156,0.096-0.348,0.306-0.48c0.168-0.108,0.42-0.18,0.689-0.18c0.336,0,0.564,0.096,0.708,0.27
			c0.144,0.174,0.168,0.3,0.168,0.666v1.146c0,0.276,0.078,0.396,0.186,0.396c0.096,0,0.156-0.03,0.258-0.114V51.601z
			 M10.867,50.222c-0.372,0.132-0.618,0.258-0.768,0.396c-0.144,0.132-0.204,0.276-0.204,0.462c0,0.318,0.18,0.461,0.414,0.461
			c0.12,0,0.246-0.03,0.348-0.096c0.174-0.12,0.21-0.204,0.21-0.378V50.222z"/>
		<path fill="#FF00FF" d="M13.873,51.889l-0.024-0.018v-0.384c-0.204,0.282-0.432,0.402-0.768,0.402
			c-0.666,0-1.109-0.522-1.109-1.29c0-0.852,0.558-1.529,1.247-1.529c0.24,0,0.402,0.066,0.63,0.258v-0.936
			c0-0.246-0.054-0.306-0.276-0.306c-0.048,0-0.084,0-0.132,0.006v-0.096c0.384-0.102,0.594-0.162,0.882-0.264l0.03,0.012v3.4
			c0,0.276,0.048,0.342,0.264,0.342c0.03,0,0.036,0,0.138-0.006v0.096L13.873,51.889z M13.849,49.838c0-0.318-0.288-0.6-0.612-0.6
			c-0.456,0-0.75,0.444-0.75,1.122c0,0.738,0.324,1.217,0.828,1.217c0.186,0,0.335-0.066,0.443-0.192
			c0.054-0.06,0.09-0.126,0.09-0.168V49.838z"/>
		<path fill="#FF00FF" d="M14.906,51.829v-0.09c0.414-0.024,0.474-0.078,0.474-0.534v-1.361c0-0.282-0.048-0.378-0.198-0.378
			c-0.054,0-0.144,0-0.251,0.03V49.4l0.929-0.33l0.024,0.024v2.104c0,0.444,0.048,0.51,0.444,0.54v0.09H14.906z M15.577,48.345
			c-0.168,0-0.3-0.132-0.3-0.306c0-0.168,0.138-0.306,0.306-0.306c0.174,0,0.306,0.138,0.306,0.306
			C15.889,48.213,15.757,48.345,15.577,48.345z"/>
		<path fill="#FF00FF" d="M19.356,51.613c-0.306,0.084-0.521,0.15-0.822,0.27l-0.03-0.018v-0.492h-0.012
			c-0.293,0.401-0.635,0.516-0.857,0.516c-0.461,0-0.731-0.306-0.731-0.768v-1.505c0-0.3-0.084-0.384-0.372-0.402V49.13h0.875v1.937
			c0,0.276,0.192,0.474,0.426,0.474c0.174,0,0.354-0.054,0.503-0.186c0.096-0.084,0.138-0.138,0.138-0.348v-1.385
			c0-0.317-0.084-0.366-0.444-0.39V49.13h0.947v2.057c0,0.276,0.066,0.342,0.342,0.342h0.036V51.613z"/>
		<path fill="#FF00FF" d="M21.037,50.402c0.384,0.234,0.528,0.396,0.528,0.738c0,0.401-0.384,0.75-0.84,0.75
			c-0.125,0-0.3-0.006-0.438-0.054c-0.144-0.048-0.21-0.054-0.276-0.054c-0.072,0-0.108,0.012-0.144,0.072H19.79v-0.941h0.096
			c0.126,0.582,0.348,0.846,0.762,0.846c0.306,0,0.498-0.198,0.498-0.444c0-0.186-0.12-0.342-0.318-0.45l-0.324-0.18
			c-0.498-0.276-0.72-0.563-0.72-0.869c0-0.474,0.336-0.738,0.828-0.738c0.144,0,0.276,0.006,0.402,0.066
			c0.066,0.03,0.126,0.048,0.168,0.048c0.024,0,0.048-0.006,0.096-0.06h0.066l0.03,0.816h-0.09c-0.138-0.54-0.318-0.738-0.678-0.738
			c-0.258,0-0.45,0.126-0.45,0.408c0,0.132,0.09,0.306,0.258,0.408L21.037,50.402z"/>
		<path fill="#FF00FF" d="M23.858,51.391c0.348,0.078,0.479,0.144,0.719,0.498c0.156,0.228,0.27,0.3,0.42,0.3
			c0.096,0,0.162-0.036,0.162-0.09c0-0.024-0.012-0.054-0.03-0.09c-0.036-0.072-0.048-0.12-0.048-0.167
			c0.006-0.102,0.102-0.204,0.198-0.204c0.126,0,0.21,0.09,0.21,0.222c0,0.24-0.222,0.456-0.558,0.456
			c-0.174,0-0.378-0.078-0.678-0.264c-0.282-0.174-0.474-0.251-0.629-0.251c-0.096,0-0.174,0.03-0.27,0.108L23.3,51.853l1.859-2.231
			h-0.816c-0.312,0-0.426,0.054-0.545,0.36l-0.096-0.024l0.192-0.695h1.697v0.066L23.858,51.391z"/>
		<path fill="#FF00FF" d="M25.694,51.937h-0.438l2.267-4.102h0.438L25.694,51.937z"/>
		<path fill="#FF00FF" d="M30.168,51.229c-0.45,0.545-0.594,0.66-0.833,0.66c-0.168,0-0.24-0.072-0.24-0.246
			c0-0.15,0.012-0.198,0.138-0.689c-0.45,0.678-0.797,0.941-1.217,0.941c-0.336,0-0.6-0.24-0.6-0.696
			c0-0.929,0.917-2.015,1.715-2.015c0.258,0,0.432,0.126,0.48,0.348l0.066-0.288l0.018-0.018l0.366-0.042l0.042,0.018
			c-0.012,0.054-0.018,0.066-0.036,0.126c-0.282,1.025-0.534,2.057-0.534,2.177c0,0.042,0.036,0.078,0.084,0.078
			c0.054,0,0.132-0.048,0.312-0.246l0.162-0.174L30.168,51.229z M29.167,49.316c-0.27,0-0.534,0.186-0.786,0.552
			c-0.252,0.378-0.462,0.912-0.462,1.289c0,0.33,0.144,0.444,0.36,0.444c0.3,0,0.582-0.33,0.762-0.587
			c0.282-0.408,0.462-0.924,0.462-1.35C29.503,49.455,29.377,49.316,29.167,49.316z"/>
	</g>
	<g>
		<path fill="#FF00FF" d="M46.216,46.075c0.348,0.078,0.479,0.144,0.719,0.498c0.156,0.228,0.27,0.3,0.42,0.3
			c0.096,0,0.162-0.036,0.162-0.09c0-0.024-0.012-0.054-0.03-0.09c-0.036-0.072-0.048-0.12-0.048-0.167
			c0.006-0.102,0.102-0.204,0.198-0.204c0.126,0,0.21,0.09,0.21,0.222c0,0.24-0.222,0.456-0.558,0.456
			c-0.174,0-0.378-0.078-0.678-0.264c-0.282-0.174-0.474-0.251-0.629-0.251c-0.096,0-0.174,0.03-0.27,0.108l-0.054-0.054
			l1.859-2.231h-0.816c-0.312,0-0.426,0.054-0.545,0.36l-0.096-0.024l0.192-0.695h1.697v0.066L46.216,46.075z"/>
	</g>
	<line fill="none" stroke="#0000FF" stroke-width="0.3" stroke-miterlimit="10" x1="19.047" y1="24.047" x2="6.471" y2="5.546"/>
	<line fill="none" stroke="#0000FF" stroke-width="0.3" stroke-miterlimit="10" x1="80.657" y1="23.519" x2="92.955" y2="5.546"/>
	<line fill="none" stroke="#FF00FF" stroke-width="0.2" stroke-miterlimit="10" x1="48.761" y1="45.133" x2="50.547" y2="45.133"/>
	<g>
	</g>
</g>
</svg>
