<?xml version="1.0" encoding="utf-8"?>
<!-- Generator: Adobe Illustrator 25.4.1, SVG Export Plug-In . SVG Version: 6.00 Build 0)  -->
<svg version="1.1" xmlns="http://www.w3.org/2000/svg" xmlns:xlink="http://www.w3.org/1999/xlink" x="0px" y="0px"
	 viewBox="0 0 151.804 144.442" enable-background="new 0 0 151.804 144.442" xml:space="preserve">
<g id="Layer_2" opacity="0.5">
	<g id="Clipped_grid">
		<defs>
			<rect id="SVGID_1_" x="-101.234" y="-100.258" width="276.823" height="275.337"/>
		</defs>
		<clipPath id="SVGID_00000133511845286198505990000000013058392851982493_">
			<use xlink:href="#SVGID_1_"  overflow="visible"/>
		</clipPath>
		<g id="Grid" opacity="0.25" clip-path="url(#SVGID_00000133511845286198505990000000013058392851982493_)">
			<g id="Horizontal_1_mm">
				
					<line fill="none" stroke="#00ABEB" stroke-width="0.15" stroke-miterlimit="10" x1="-347.7" y1="-106.051" x2="262.382" y2="-106.051"/>
				
					<line fill="none" stroke="#00ABEB" stroke-width="0.15" stroke-miterlimit="10" x1="-347.7" y1="-113.679" x2="262.382" y2="-113.679"/>
				
					<line fill="none" stroke="#00ABEB" stroke-width="0.15" stroke-miterlimit="10" x1="-347.7" y1="343.969" x2="262.382" y2="343.969"/>
				
					<line fill="none" stroke="#00ABEB" stroke-width="0.15" stroke-miterlimit="10" x1="-347.7" y1="336.34" x2="262.382" y2="336.34"/>
				
					<line fill="none" stroke="#00ABEB" stroke-width="0.15" stroke-miterlimit="10" x1="-347.7" y1="328.715" x2="262.382" y2="328.715"/>
				
					<line fill="none" stroke="#00ABEB" stroke-width="0.15" stroke-miterlimit="10" x1="-347.7" y1="321.087" x2="262.382" y2="321.087"/>
				
					<line fill="none" stroke="#00ABEB" stroke-width="0.15" stroke-miterlimit="10" x1="-347.7" y1="313.458" x2="262.382" y2="313.458"/>
				
					<line fill="none" stroke="#00ABEB" stroke-width="0.15" stroke-miterlimit="10" x1="-347.7" y1="305.832" x2="262.382" y2="305.832"/>
				
					<line fill="none" stroke="#00ABEB" stroke-width="0.15" stroke-miterlimit="10" x1="-347.7" y1="298.204" x2="262.382" y2="298.204"/>
				
					<line fill="none" stroke="#00ABEB" stroke-width="0.15" stroke-miterlimit="10" x1="-347.7" y1="290.579" x2="262.382" y2="290.579"/>
				
					<line fill="none" stroke="#00ABEB" stroke-width="0.15" stroke-miterlimit="10" x1="-347.7" y1="282.949" x2="262.382" y2="282.949"/>
				
					<line fill="none" stroke="#00ABEB" stroke-width="0.15" stroke-miterlimit="10" x1="-347.7" y1="275.321" x2="262.382" y2="275.321"/>
				
					<line fill="none" stroke="#00ABEB" stroke-width="0.15" stroke-miterlimit="10" x1="-347.7" y1="267.695" x2="262.382" y2="267.695"/>
				
					<line fill="none" stroke="#00ABEB" stroke-width="0.15" stroke-miterlimit="10" x1="-347.7" y1="260.067" x2="262.382" y2="260.067"/>
				
					<line fill="none" stroke="#00ABEB" stroke-width="0.15" stroke-miterlimit="10" x1="-347.7" y1="252.438" x2="262.382" y2="252.438"/>
				
					<line fill="none" stroke="#00ABEB" stroke-width="0.15" stroke-miterlimit="10" x1="-347.7" y1="244.813" x2="262.382" y2="244.813"/>
				
					<line fill="none" stroke="#00ABEB" stroke-width="0.15" stroke-miterlimit="10" x1="-347.7" y1="237.184" x2="262.382" y2="237.184"/>
				
					<line fill="none" stroke="#00ABEB" stroke-width="0.15" stroke-miterlimit="10" x1="-347.7" y1="229.556" x2="262.382" y2="229.556"/>
				
					<line fill="none" stroke="#00ABEB" stroke-width="0.15" stroke-miterlimit="10" x1="-347.7" y1="221.93" x2="262.382" y2="221.93"/>
				
					<line fill="none" stroke="#00ABEB" stroke-width="0.15" stroke-miterlimit="10" x1="-347.7" y1="214.302" x2="262.382" y2="214.302"/>
				
					<line fill="none" stroke="#00ABEB" stroke-width="0.15" stroke-miterlimit="10" x1="-347.7" y1="206.674" x2="262.382" y2="206.674"/>
				
					<line fill="none" stroke="#00ABEB" stroke-width="0.15" stroke-miterlimit="10" x1="-347.7" y1="199.048" x2="262.382" y2="199.048"/>
				
					<line fill="none" stroke="#00ABEB" stroke-width="0.15" stroke-miterlimit="10" x1="-347.7" y1="191.42" x2="262.382" y2="191.42"/>
				
					<line fill="none" stroke="#00ABEB" stroke-width="0.15" stroke-miterlimit="10" x1="-347.7" y1="183.79" x2="262.382" y2="183.79"/>
				
					<line fill="none" stroke="#00ABEB" stroke-width="0.15" stroke-miterlimit="10" x1="-347.7" y1="176.165" x2="262.382" y2="176.165"/>
				
					<line fill="none" stroke="#00ABEB" stroke-width="0.15" stroke-miterlimit="10" x1="-347.7" y1="168.536" x2="262.382" y2="168.536"/>
				
					<line fill="none" stroke="#00ABEB" stroke-width="0.15" stroke-miterlimit="10" x1="-347.7" y1="160.911" x2="262.382" y2="160.911"/>
				
					<line fill="none" stroke="#00ABEB" stroke-width="0.15" stroke-miterlimit="10" x1="-347.7" y1="153.282" x2="262.382" y2="153.282"/>
				
					<line fill="none" stroke="#00ABEB" stroke-width="0.15" stroke-miterlimit="10" x1="-347.7" y1="145.654" x2="262.382" y2="145.654"/>
				
					<line fill="none" stroke="#00ABEB" stroke-width="0.15" stroke-miterlimit="10" x1="-347.7" y1="138.028" x2="262.382" y2="138.028"/>
				
					<line fill="none" stroke="#00ABEB" stroke-width="0.15" stroke-miterlimit="10" x1="-347.7" y1="130.4" x2="262.382" y2="130.4"/>
				
					<line fill="none" stroke="#00ABEB" stroke-width="0.15" stroke-miterlimit="10" x1="-347.7" y1="122.772" x2="262.382" y2="122.772"/>
				
					<line fill="none" stroke="#00ABEB" stroke-width="0.15" stroke-miterlimit="10" x1="-347.7" y1="115.146" x2="262.382" y2="115.146"/>
				
					<line fill="none" stroke="#00ABEB" stroke-width="0.15" stroke-miterlimit="10" x1="-347.7" y1="107.518" x2="262.382" y2="107.518"/>
				
					<line fill="none" stroke="#00ABEB" stroke-width="0.15" stroke-miterlimit="10" x1="-347.7" y1="99.889" x2="262.382" y2="99.889"/>
				
					<line fill="none" stroke="#00ABEB" stroke-width="0.15" stroke-miterlimit="10" x1="-347.7" y1="92.264" x2="262.382" y2="92.264"/>
				
					<line fill="none" stroke="#00ABEB" stroke-width="0.15" stroke-miterlimit="10" x1="-347.7" y1="84.635" x2="262.382" y2="84.635"/>
				
					<line fill="none" stroke="#00ABEB" stroke-width="0.15" stroke-miterlimit="10" x1="-347.7" y1="77.007" x2="262.382" y2="77.007"/>
				
					<line fill="none" stroke="#00ABEB" stroke-width="0.15" stroke-miterlimit="10" x1="-347.7" y1="69.382" x2="262.382" y2="69.382"/>
				
					<line fill="none" stroke="#00ABEB" stroke-width="0.15" stroke-miterlimit="10" x1="-347.7" y1="61.753" x2="262.382" y2="61.753"/>
				
					<line fill="none" stroke="#00ABEB" stroke-width="0.15" stroke-miterlimit="10" x1="-347.7" y1="54.125" x2="262.382" y2="54.125"/>
				
					<line fill="none" stroke="#00ABEB" stroke-width="0.15" stroke-miterlimit="10" x1="-347.7" y1="46.499" x2="262.382" y2="46.499"/>
				
					<line fill="none" stroke="#00ABEB" stroke-width="0.15" stroke-miterlimit="10" x1="-347.7" y1="38.87" x2="262.382" y2="38.87"/>
				
					<line fill="none" stroke="#00ABEB" stroke-width="0.15" stroke-miterlimit="10" x1="-347.7" y1="31.244" x2="262.382" y2="31.244"/>
				
					<line fill="none" stroke="#00ABEB" stroke-width="0.15" stroke-miterlimit="10" x1="-347.7" y1="23.616" x2="262.382" y2="23.616"/>
				
					<line fill="none" stroke="#00ABEB" stroke-width="0.15" stroke-miterlimit="10" x1="-347.7" y1="15.987" x2="262.382" y2="15.987"/>
				
					<line fill="none" stroke="#00ABEB" stroke-width="0.15" stroke-miterlimit="10" x1="-347.7" y1="8.362" x2="262.382" y2="8.362"/>
				
					<line fill="none" stroke="#00ABEB" stroke-width="0.15" stroke-miterlimit="10" x1="-347.7" y1="0.733" x2="262.382" y2="0.733"/>
				
					<line fill="none" stroke="#00ABEB" stroke-width="0.15" stroke-miterlimit="10" x1="-347.7" y1="-6.895" x2="262.382" y2="-6.895"/>
				
					<line fill="none" stroke="#00ABEB" stroke-width="0.15" stroke-miterlimit="10" x1="-347.7" y1="-14.521" x2="262.382" y2="-14.521"/>
				
					<line fill="none" stroke="#00ABEB" stroke-width="0.15" stroke-miterlimit="10" x1="-347.7" y1="-22.149" x2="262.382" y2="-22.149"/>
				
					<line fill="none" stroke="#00ABEB" stroke-width="0.15" stroke-miterlimit="10" x1="-347.7" y1="-29.777" x2="262.382" y2="-29.777"/>
				
					<line fill="none" stroke="#00ABEB" stroke-width="0.15" stroke-miterlimit="10" x1="-347.7" y1="-37.403" x2="262.382" y2="-37.403"/>
				
					<line fill="none" stroke="#00ABEB" stroke-width="0.15" stroke-miterlimit="10" x1="-347.7" y1="-45.031" x2="262.382" y2="-45.031"/>
				
					<line fill="none" stroke="#00ABEB" stroke-width="0.15" stroke-miterlimit="10" x1="-347.7" y1="-52.66" x2="262.382" y2="-52.66"/>
				
					<line fill="none" stroke="#00ABEB" stroke-width="0.15" stroke-miterlimit="10" x1="-347.7" y1="-60.285" x2="262.382" y2="-60.285"/>
				
					<line fill="none" stroke="#00ABEB" stroke-width="0.15" stroke-miterlimit="10" x1="-347.7" y1="-67.915" x2="262.382" y2="-67.915"/>
				
					<line fill="none" stroke="#00ABEB" stroke-width="0.15" stroke-miterlimit="10" x1="-347.7" y1="-75.54" x2="262.382" y2="-75.54"/>
				
					<line fill="none" stroke="#00ABEB" stroke-width="0.15" stroke-miterlimit="10" x1="-347.7" y1="-83.169" x2="262.382" y2="-83.169"/>
				
					<line fill="none" stroke="#00ABEB" stroke-width="0.15" stroke-miterlimit="10" x1="-347.7" y1="-90.797" x2="262.382" y2="-90.797"/>
				
					<line fill="none" stroke="#00ABEB" stroke-width="0.15" stroke-miterlimit="10" x1="-347.7" y1="-98.423" x2="262.382" y2="-98.423"/>
			</g>
			<g id="Vertical_1_mm">
				<g>
					
						<line fill="none" stroke="#00ABEB" stroke-width="0.15" stroke-miterlimit="10" x1="-347.498" y1="343.932" x2="-347.498" y2="-113.882"/>
				</g>
				
					<line fill="none" stroke="#00ABEB" stroke-width="0.15" stroke-miterlimit="10" x1="-339.876" y1="343.932" x2="-339.876" y2="-113.882"/>
				
					<line fill="none" stroke="#00ABEB" stroke-width="0.15" stroke-miterlimit="10" x1="-332.252" y1="343.932" x2="-332.252" y2="-113.882"/>
				
					<line fill="none" stroke="#00ABEB" stroke-width="0.15" stroke-miterlimit="10" x1="-324.627" y1="343.932" x2="-324.627" y2="-113.882"/>
				
					<line fill="none" stroke="#00ABEB" stroke-width="0.15" stroke-miterlimit="10" x1="-317.005" y1="343.932" x2="-317.005" y2="-113.882"/>
				
					<line fill="none" stroke="#00ABEB" stroke-width="0.15" stroke-miterlimit="10" x1="-309.381" y1="343.932" x2="-309.381" y2="-113.882"/>
				
					<line fill="none" stroke="#00ABEB" stroke-width="0.15" stroke-miterlimit="10" x1="-301.756" y1="343.932" x2="-301.756" y2="-113.882"/>
				
					<line fill="none" stroke="#00ABEB" stroke-width="0.15" stroke-miterlimit="10" x1="-294.134" y1="343.932" x2="-294.134" y2="-113.882"/>
				
					<line fill="none" stroke="#00ABEB" stroke-width="0.15" stroke-miterlimit="10" x1="-286.508" y1="343.932" x2="-286.508" y2="-113.882"/>
				
					<line fill="none" stroke="#00ABEB" stroke-width="0.15" stroke-miterlimit="10" x1="-278.886" y1="343.932" x2="-278.886" y2="-113.882"/>
				
					<line fill="none" stroke="#00ABEB" stroke-width="0.15" stroke-miterlimit="10" x1="-271.262" y1="343.932" x2="-271.262" y2="-113.882"/>
				
					<line fill="none" stroke="#00ABEB" stroke-width="0.15" stroke-miterlimit="10" x1="-263.637" y1="343.932" x2="-263.637" y2="-113.882"/>
				
					<line fill="none" stroke="#00ABEB" stroke-width="0.15" stroke-miterlimit="10" x1="-256.015" y1="343.932" x2="-256.015" y2="-113.882"/>
				
					<line fill="none" stroke="#00ABEB" stroke-width="0.15" stroke-miterlimit="10" x1="-248.391" y1="343.932" x2="-248.391" y2="-113.882"/>
				
					<line fill="none" stroke="#00ABEB" stroke-width="0.15" stroke-miterlimit="10" x1="-240.766" y1="343.932" x2="-240.766" y2="-113.882"/>
				
					<line fill="none" stroke="#00ABEB" stroke-width="0.15" stroke-miterlimit="10" x1="-233.144" y1="343.932" x2="-233.144" y2="-113.882"/>
				
					<line fill="none" stroke="#00ABEB" stroke-width="0.15" stroke-miterlimit="10" x1="-225.52" y1="343.932" x2="-225.52" y2="-113.882"/>
				
					<line fill="none" stroke="#00ABEB" stroke-width="0.15" stroke-miterlimit="10" x1="-217.895" y1="343.932" x2="-217.895" y2="-113.882"/>
				
					<line fill="none" stroke="#00ABEB" stroke-width="0.15" stroke-miterlimit="10" x1="-210.273" y1="343.932" x2="-210.273" y2="-113.882"/>
				
					<line fill="none" stroke="#00ABEB" stroke-width="0.15" stroke-miterlimit="10" x1="-202.649" y1="343.932" x2="-202.649" y2="-113.882"/>
				
					<line fill="none" stroke="#00ABEB" stroke-width="0.15" stroke-miterlimit="10" x1="-195.024" y1="343.932" x2="-195.024" y2="-113.882"/>
				
					<line fill="none" stroke="#00ABEB" stroke-width="0.15" stroke-miterlimit="10" x1="-187.402" y1="343.932" x2="-187.402" y2="-113.882"/>
				
					<line fill="none" stroke="#00ABEB" stroke-width="0.15" stroke-miterlimit="10" x1="-179.778" y1="343.932" x2="-179.778" y2="-113.882"/>
				
					<line fill="none" stroke="#00ABEB" stroke-width="0.15" stroke-miterlimit="10" x1="-172.153" y1="343.932" x2="-172.153" y2="-113.882"/>
				
					<line fill="none" stroke="#00ABEB" stroke-width="0.15" stroke-miterlimit="10" x1="-164.53" y1="343.932" x2="-164.53" y2="-113.882"/>
				
					<line fill="none" stroke="#00ABEB" stroke-width="0.15" stroke-miterlimit="10" x1="-156.905" y1="343.932" x2="-156.905" y2="-113.882"/>
				
					<line fill="none" stroke="#00ABEB" stroke-width="0.15" stroke-miterlimit="10" x1="-149.284" y1="343.932" x2="-149.284" y2="-113.882"/>
				
					<line fill="none" stroke="#00ABEB" stroke-width="0.15" stroke-miterlimit="10" x1="-141.659" y1="343.932" x2="-141.659" y2="-113.882"/>
				
					<line fill="none" stroke="#00ABEB" stroke-width="0.15" stroke-miterlimit="10" x1="-134.034" y1="343.932" x2="-134.034" y2="-113.882"/>
				
					<line fill="none" stroke="#00ABEB" stroke-width="0.15" stroke-miterlimit="10" x1="-126.413" y1="343.932" x2="-126.413" y2="-113.882"/>
				
					<line fill="none" stroke="#00ABEB" stroke-width="0.15" stroke-miterlimit="10" x1="-118.788" y1="343.932" x2="-118.788" y2="-113.882"/>
				
					<line fill="none" stroke="#00ABEB" stroke-width="0.15" stroke-miterlimit="10" x1="-111.163" y1="343.932" x2="-111.163" y2="-113.882"/>
				
					<line fill="none" stroke="#00ABEB" stroke-width="0.15" stroke-miterlimit="10" x1="-103.541" y1="343.932" x2="-103.541" y2="-113.882"/>
				
					<line fill="none" stroke="#00ABEB" stroke-width="0.15" stroke-miterlimit="10" x1="-95.917" y1="343.932" x2="-95.917" y2="-113.882"/>
				
					<line fill="none" stroke="#00ABEB" stroke-width="0.15" stroke-miterlimit="10" x1="-88.292" y1="343.932" x2="-88.292" y2="-113.882"/>
				
					<line fill="none" stroke="#00ABEB" stroke-width="0.15" stroke-miterlimit="10" x1="-80.67" y1="343.932" x2="-80.67" y2="-113.882"/>
				
					<line fill="none" stroke="#00ABEB" stroke-width="0.15" stroke-miterlimit="10" x1="-73.046" y1="343.932" x2="-73.046" y2="-113.882"/>
				
					<line fill="none" stroke="#00ABEB" stroke-width="0.15" stroke-miterlimit="10" x1="-65.421" y1="343.932" x2="-65.421" y2="-113.882"/>
				
					<line fill="none" stroke="#00ABEB" stroke-width="0.15" stroke-miterlimit="10" x1="-57.799" y1="343.932" x2="-57.799" y2="-113.882"/>
				
					<line fill="none" stroke="#00ABEB" stroke-width="0.15" stroke-miterlimit="10" x1="-50.175" y1="343.932" x2="-50.175" y2="-113.882"/>
				
					<line fill="none" stroke="#00ABEB" stroke-width="0.15" stroke-miterlimit="10" x1="-42.553" y1="343.932" x2="-42.553" y2="-113.882"/>
				
					<line fill="none" stroke="#00ABEB" stroke-width="0.15" stroke-miterlimit="10" x1="-34.927" y1="343.932" x2="-34.927" y2="-113.882"/>
				
					<line fill="none" stroke="#00ABEB" stroke-width="0.15" stroke-miterlimit="10" x1="-27.303" y1="343.932" x2="-27.303" y2="-113.882"/>
				
					<line fill="none" stroke="#00ABEB" stroke-width="0.15" stroke-miterlimit="10" x1="-19.681" y1="343.932" x2="-19.681" y2="-113.882"/>
				
					<line fill="none" stroke="#00ABEB" stroke-width="0.15" stroke-miterlimit="10" x1="-12.056" y1="343.932" x2="-12.056" y2="-113.882"/>
				
					<line fill="none" stroke="#00ABEB" stroke-width="0.15" stroke-miterlimit="10" x1="-4.432" y1="343.932" x2="-4.432" y2="-113.882"/>
				
					<line fill="none" stroke="#00ABEB" stroke-width="0.15" stroke-miterlimit="10" x1="3.19" y1="343.932" x2="3.19" y2="-113.882"/>
				
					<line fill="none" stroke="#00ABEB" stroke-width="0.15" stroke-miterlimit="10" x1="10.815" y1="343.932" x2="10.815" y2="-113.882"/>
				
					<line fill="none" stroke="#00ABEB" stroke-width="0.15" stroke-miterlimit="10" x1="18.439" y1="343.932" x2="18.439" y2="-113.882"/>
				
					<line fill="none" stroke="#00ABEB" stroke-width="0.15" stroke-miterlimit="10" x1="26.061" y1="343.932" x2="26.061" y2="-113.882"/>
				
					<line fill="none" stroke="#00ABEB" stroke-width="0.15" stroke-miterlimit="10" x1="33.686" y1="343.932" x2="33.686" y2="-113.882"/>
				
					<line fill="none" stroke="#00ABEB" stroke-width="0.15" stroke-miterlimit="10" x1="41.31" y1="343.932" x2="41.31" y2="-113.882"/>
				
					<line fill="none" stroke="#00ABEB" stroke-width="0.15" stroke-miterlimit="10" x1="48.932" y1="343.932" x2="48.932" y2="-113.882"/>
				
					<line fill="none" stroke="#00ABEB" stroke-width="0.15" stroke-miterlimit="10" x1="56.557" y1="343.932" x2="56.557" y2="-113.882"/>
				
					<line fill="none" stroke="#00ABEB" stroke-width="0.15" stroke-miterlimit="10" x1="64.181" y1="343.932" x2="64.181" y2="-113.882"/>
				
					<line fill="none" stroke="#00ABEB" stroke-width="0.15" stroke-miterlimit="10" x1="71.803" y1="343.932" x2="71.803" y2="-113.882"/>
				
					<line fill="none" stroke="#00ABEB" stroke-width="0.15" stroke-miterlimit="10" x1="79.429" y1="343.932" x2="79.429" y2="-113.882"/>
				
					<line fill="none" stroke="#00ABEB" stroke-width="0.15" stroke-miterlimit="10" x1="87.051" y1="343.932" x2="87.051" y2="-113.882"/>
				
					<line fill="none" stroke="#00ABEB" stroke-width="0.15" stroke-miterlimit="10" x1="94.676" y1="343.932" x2="94.676" y2="-113.882"/>
				
					<line fill="none" stroke="#00ABEB" stroke-width="0.15" stroke-miterlimit="10" x1="102.3" y1="343.932" x2="102.3" y2="-113.882"/>
				
					<line fill="none" stroke="#00ABEB" stroke-width="0.15" stroke-miterlimit="10" x1="109.922" y1="343.932" x2="109.922" y2="-113.882"/>
				
					<line fill="none" stroke="#00ABEB" stroke-width="0.15" stroke-miterlimit="10" x1="117.547" y1="343.932" x2="117.547" y2="-113.882"/>
				
					<line fill="none" stroke="#00ABEB" stroke-width="0.15" stroke-miterlimit="10" x1="125.171" y1="343.932" x2="125.171" y2="-113.882"/>
				
					<line fill="none" stroke="#00ABEB" stroke-width="0.15" stroke-miterlimit="10" x1="132.793" y1="343.932" x2="132.793" y2="-113.882"/>
				
					<line fill="none" stroke="#00ABEB" stroke-width="0.15" stroke-miterlimit="10" x1="140.418" y1="343.932" x2="140.418" y2="-113.882"/>
				
					<line fill="none" stroke="#00ABEB" stroke-width="0.15" stroke-miterlimit="10" x1="148.042" y1="343.932" x2="148.042" y2="-113.882"/>
				
					<line fill="none" stroke="#00ABEB" stroke-width="0.15" stroke-miterlimit="10" x1="155.664" y1="343.932" x2="155.664" y2="-113.882"/>
				
					<line fill="none" stroke="#00ABEB" stroke-width="0.15" stroke-miterlimit="10" x1="163.289" y1="343.932" x2="163.289" y2="-113.882"/>
				
					<line fill="none" stroke="#00ABEB" stroke-width="0.15" stroke-miterlimit="10" x1="170.913" y1="343.932" x2="170.913" y2="-113.882"/>
				
					<line fill="none" stroke="#00ABEB" stroke-width="0.15" stroke-miterlimit="10" x1="178.535" y1="343.932" x2="178.535" y2="-113.882"/>
				
					<line fill="none" stroke="#00ABEB" stroke-width="0.15" stroke-miterlimit="10" x1="186.16" y1="343.932" x2="186.16" y2="-113.882"/>
				
					<line fill="none" stroke="#00ABEB" stroke-width="0.15" stroke-miterlimit="10" x1="193.784" y1="343.932" x2="193.784" y2="-113.882"/>
				
					<line fill="none" stroke="#00ABEB" stroke-width="0.15" stroke-miterlimit="10" x1="201.407" y1="343.932" x2="201.407" y2="-113.882"/>
				
					<line fill="none" stroke="#00ABEB" stroke-width="0.15" stroke-miterlimit="10" x1="209.032" y1="343.932" x2="209.032" y2="-113.882"/>
				
					<line fill="none" stroke="#00ABEB" stroke-width="0.15" stroke-miterlimit="10" x1="216.654" y1="343.932" x2="216.654" y2="-113.882"/>
				
					<line fill="none" stroke="#00ABEB" stroke-width="0.15" stroke-miterlimit="10" x1="224.278" y1="343.932" x2="224.278" y2="-113.882"/>
				
					<line fill="none" stroke="#00ABEB" stroke-width="0.15" stroke-miterlimit="10" x1="231.903" y1="343.932" x2="231.903" y2="-113.882"/>
				
					<line fill="none" stroke="#00ABEB" stroke-width="0.15" stroke-miterlimit="10" x1="239.525" y1="343.932" x2="239.525" y2="-113.882"/>
				
					<line fill="none" stroke="#00ABEB" stroke-width="0.15" stroke-miterlimit="10" x1="247.149" y1="343.932" x2="247.149" y2="-113.882"/>
				
					<line fill="none" stroke="#00ABEB" stroke-width="0.15" stroke-miterlimit="10" x1="254.774" y1="343.932" x2="254.774" y2="-113.882"/>
				
					<line fill="none" stroke="#00ABEB" stroke-width="0.15" stroke-miterlimit="10" x1="262.396" y1="343.932" x2="262.396" y2="-113.882"/>
			</g>
			<g id="Horizontal_5_mm_1_">
				
					<line fill="none" stroke="#00ABEB" stroke-width="0.3" stroke-miterlimit="10" x1="-348.44" y1="343.969" x2="262.382" y2="343.969"/>
				
					<line fill="none" stroke="#00ABEB" stroke-width="0.3" stroke-miterlimit="10" x1="-348.44" y1="305.832" x2="262.382" y2="305.832"/>
				
					<line fill="none" stroke="#00ABEB" stroke-width="0.3" stroke-miterlimit="10" x1="-348.44" y1="267.695" x2="262.382" y2="267.695"/>
				
					<line fill="none" stroke="#00ABEB" stroke-width="0.3" stroke-miterlimit="10" x1="-348.44" y1="229.556" x2="262.382" y2="229.556"/>
				
					<line fill="none" stroke="#00ABEB" stroke-width="0.3" stroke-miterlimit="10" x1="-348.44" y1="191.42" x2="262.382" y2="191.42"/>
				
					<line fill="none" stroke="#00ABEB" stroke-width="0.3" stroke-miterlimit="10" x1="-348.44" y1="153.282" x2="262.382" y2="153.282"/>
				
					<line fill="none" stroke="#00ABEB" stroke-width="0.3" stroke-miterlimit="10" x1="-348.44" y1="115.146" x2="262.382" y2="115.146"/>
				
					<line fill="none" stroke="#00ABEB" stroke-width="0.3" stroke-miterlimit="10" x1="-348.44" y1="77.007" x2="262.382" y2="77.007"/>
				
					<line fill="none" stroke="#00ABEB" stroke-width="0.3" stroke-miterlimit="10" x1="-348.44" y1="38.87" x2="262.382" y2="38.87"/>
				
					<line fill="none" stroke="#00ABEB" stroke-width="0.3" stroke-miterlimit="10" x1="-348.44" y1="0.733" x2="262.382" y2="0.733"/>
				
					<line fill="none" stroke="#00ABEB" stroke-width="0.3" stroke-miterlimit="10" x1="-348.44" y1="-37.403" x2="262.382" y2="-37.403"/>
			</g>
			<g id="Vertical_5_mm">
				
					<line fill="none" stroke="#00ABEB" stroke-width="0.3" stroke-miterlimit="10" x1="-347.498" y1="343.932" x2="-347.498" y2="-114.621"/>
				
					<line fill="none" stroke="#00ABEB" stroke-width="0.3" stroke-miterlimit="10" x1="-309.381" y1="343.932" x2="-309.381" y2="-114.621"/>
				
					<line fill="none" stroke="#00ABEB" stroke-width="0.3" stroke-miterlimit="10" x1="-271.262" y1="343.932" x2="-271.262" y2="-114.621"/>
				
					<line fill="none" stroke="#00ABEB" stroke-width="0.3" stroke-miterlimit="10" x1="-233.144" y1="343.932" x2="-233.144" y2="-114.621"/>
				
					<line fill="none" stroke="#00ABEB" stroke-width="0.3" stroke-miterlimit="10" x1="-195.024" y1="343.932" x2="-195.024" y2="-114.621"/>
				
					<line fill="none" stroke="#00ABEB" stroke-width="0.3" stroke-miterlimit="10" x1="-156.905" y1="343.932" x2="-156.905" y2="-114.621"/>
				
					<line fill="none" stroke="#00ABEB" stroke-width="0.3" stroke-miterlimit="10" x1="-118.788" y1="343.932" x2="-118.788" y2="-114.621"/>
				
					<line fill="none" stroke="#00ABEB" stroke-width="0.3" stroke-miterlimit="10" x1="-80.67" y1="343.932" x2="-80.67" y2="-114.621"/>
				
					<line fill="none" stroke="#00ABEB" stroke-width="0.3" stroke-miterlimit="10" x1="-42.553" y1="343.932" x2="-42.553" y2="-114.621"/>
				
					<line fill="none" stroke="#00ABEB" stroke-width="0.3" stroke-miterlimit="10" x1="-4.432" y1="343.932" x2="-4.432" y2="-114.621"/>
				
					<line fill="none" stroke="#00ABEB" stroke-width="0.3" stroke-miterlimit="10" x1="33.686" y1="343.932" x2="33.686" y2="-114.621"/>
				
					<line fill="none" stroke="#00ABEB" stroke-width="0.3" stroke-miterlimit="10" x1="71.803" y1="343.932" x2="71.803" y2="-114.621"/>
				
					<line fill="none" stroke="#00ABEB" stroke-width="0.3" stroke-miterlimit="10" x1="109.922" y1="343.932" x2="109.922" y2="-114.621"/>
				
					<line fill="none" stroke="#00ABEB" stroke-width="0.3" stroke-miterlimit="10" x1="148.042" y1="343.932" x2="148.042" y2="-114.621"/>
				
					<line fill="none" stroke="#00ABEB" stroke-width="0.3" stroke-miterlimit="10" x1="186.16" y1="343.932" x2="186.16" y2="-114.621"/>
				
					<line fill="none" stroke="#00ABEB" stroke-width="0.3" stroke-miterlimit="10" x1="224.278" y1="343.932" x2="224.278" y2="-114.621"/>
				
					<line fill="none" stroke="#00ABEB" stroke-width="0.3" stroke-miterlimit="10" x1="262.396" y1="343.932" x2="262.396" y2="-114.621"/>
			</g>
			<g id="Horizontal_10_mm">
				
					<line id="_x31_9_1_" fill="none" stroke="#00ABEB" stroke-width="0.7" stroke-miterlimit="10" x1="-348.44" y1="343.969" x2="262.382" y2="343.969"/>
				
					<line id="_x32_0" fill="none" stroke="#00ABEB" stroke-width="0.7" stroke-miterlimit="10" x1="-348.44" y1="267.695" x2="262.382" y2="267.695"/>
				
					<line id="_x32_1" fill="none" stroke="#00ABEB" stroke-width="0.7" stroke-miterlimit="10" x1="-348.44" y1="191.42" x2="262.382" y2="191.42"/>
				
					<line id="_x32_2" fill="none" stroke="#00ABEB" stroke-width="0.7" stroke-miterlimit="10" x1="-348.44" y1="115.146" x2="262.382" y2="115.146"/>
				
					<line id="_x32_3" fill="none" stroke="#00ABEB" stroke-width="0.7" stroke-miterlimit="10" x1="-348.44" y1="38.87" x2="262.382" y2="38.87"/>
				
					<line id="_x32_4" fill="none" stroke="#00ABEB" stroke-width="0.7" stroke-miterlimit="10" x1="-348.44" y1="-37.403" x2="262.382" y2="-37.403"/>
				
					<line id="_x32_5" fill="none" stroke="#00ABEB" stroke-width="0.7" stroke-miterlimit="10" x1="-348.44" y1="-113.679" x2="262.382" y2="-113.679"/>
			</g>
			<g id="Vertical_10_mm">
				
					<line id="_x30_" fill="none" stroke="#00ABEB" stroke-width="0.7" stroke-miterlimit="10" x1="-347.498" y1="343.932" x2="-347.498" y2="-114.621"/>
				
					<line id="_x31_" fill="none" stroke="#00ABEB" stroke-width="0.7" stroke-miterlimit="10" x1="-271.262" y1="343.932" x2="-271.262" y2="-114.621"/>
				
					<line id="_x32_" fill="none" stroke="#00ABEB" stroke-width="0.7" stroke-miterlimit="10" x1="-195.024" y1="343.932" x2="-195.024" y2="-114.621"/>
				
					<line id="_x33_" fill="none" stroke="#00ABEB" stroke-width="0.7" stroke-miterlimit="10" x1="-118.788" y1="343.932" x2="-118.788" y2="-114.621"/>
				
					<line id="_x34_" fill="none" stroke="#00ABEB" stroke-width="0.7" stroke-miterlimit="10" x1="-42.553" y1="343.932" x2="-42.553" y2="-114.621"/>
				
					<line id="_x35_" fill="none" stroke="#00ABEB" stroke-width="0.7" stroke-miterlimit="10" x1="33.686" y1="343.932" x2="33.686" y2="-114.621"/>
				
					<line id="_x36_" fill="none" stroke="#00ABEB" stroke-width="0.7" stroke-miterlimit="10" x1="109.922" y1="343.932" x2="109.922" y2="-114.621"/>
				
					<line id="_x37_" fill="none" stroke="#00ABEB" stroke-width="0.7" stroke-miterlimit="10" x1="186.16" y1="343.932" x2="186.16" y2="-114.621"/>
				
					<line id="_x38_" fill="none" stroke="#00ABEB" stroke-width="0.7" stroke-miterlimit="10" x1="262.396" y1="343.932" x2="262.396" y2="-114.621"/>
			</g>
		</g>
	</g>
</g>
<g id="Layer_3">
	<g enable-background="new    ">
		<path fill="#262626" d="M27.236,7.379c1.185-1.964,1.7-2.968,1.7-3.581c0-0.195-0.098-0.279-0.362-0.446
			c-0.279-0.181-0.362-0.32-0.362-0.543c0-0.306,0.236-0.515,0.557-0.515c0.418,0,0.725,0.348,0.725,0.766
			c0,0.794-0.669,2.327-1.825,4.249c-1.448,2.396-2.939,3.998-3.733,3.998c-0.418,0-0.71-0.237-0.71-0.599
			c0-0.307,0.236-0.558,0.543-0.558c0.487,0,0.487,0.39,0.85,0.39c0.182,0,0.349-0.111,0.669-0.459
			c0.251-0.265,0.878-1.087,0.989-1.268c0.083-0.167,0.139-0.334,0.139-0.487c0-0.557-0.766-3.678-1.142-4.625
			c-0.265-0.683-0.516-0.892-1.073-0.892c-0.153,0-0.278,0.014-0.432,0.056V2.628c0.153-0.028,0.307-0.056,0.445-0.083
			c0.279-0.056,0.739-0.139,1.491-0.25h0.056c0.209,0,0.947,2.312,1.185,3.552L27.236,7.379z"/>
	</g>
	<g enable-background="new    ">
		<path fill="#262626" d="M147.828,122.933c0.953-1.457,1.456-1.946,2.056-1.946c0.326,0,0.558,0.204,0.558,0.503
			c0,0.286-0.19,0.49-0.463,0.49c-0.259,0-0.381-0.231-0.708-0.231c-0.244,0-0.734,0.599-1.333,1.647
			c0,0.095,0.026,0.285,0.108,0.612l0.436,1.823c0.096,0.382,0.218,0.559,0.408,0.559c0.177,0,0.327-0.137,0.64-0.545
			c0.123-0.163,0.177-0.245,0.286-0.381l0.204,0.122c-0.789,1.226-1.144,1.552-1.66,1.552c-0.436,0-0.64-0.245-0.804-0.925
			l-0.395-1.62l-1.197,1.62c-0.6,0.803-0.871,0.925-1.293,0.925c-0.423,0-0.681-0.218-0.681-0.571c0-0.272,0.19-0.49,0.463-0.49
			c0.122,0,0.258,0.055,0.436,0.149c0.136,0.082,0.271,0.123,0.354,0.123c0.149,0,0.408-0.259,0.694-0.667l1.116-1.579l-0.382-1.688
			c-0.19-0.816-0.285-0.926-0.626-0.926c-0.108,0-0.271,0.027-0.53,0.096l-0.245,0.068l-0.041-0.219l0.149-0.054
			c0.831-0.3,1.279-0.395,1.593-0.395c0.34,0,0.504,0.244,0.694,1.17L147.828,122.933z"/>
	</g>
	<g>
		<line fill="none" stroke="#0000FF" stroke-width="0.2" x1="33.803" y1="115.316" x2="33.803" y2="113.108"/>
		<line fill="none" stroke="#0000FF" stroke-width="0.2" x1="72.218" y1="115.316" x2="72.218" y2="113.108"/>
		<line fill="none" stroke="#0000FF" stroke-width="0.2" x1="110.633" y1="115.316" x2="110.633" y2="113.108"/>
		<line fill="none" stroke="#0000FF" stroke-width="0.2" x1="33.803" y1="115.316" x2="36.008" y2="115.316"/>
		
			<line fill="none" stroke="#0000FF" stroke-width="0.2" stroke-linejoin="round" x1="14.595" y1="134.523" x2="17.156" y2="137.084"/>
		
			<line fill="none" stroke="#0000FF" stroke-width="0.2" stroke-linejoin="round" x1="14.595" y1="115.316" x2="14.595" y2="117.877"/>
		
			<line fill="none" stroke="#0000FF" stroke-width="0.2" stroke-linejoin="round" x1="14.595" y1="96.108" x2="12.034" y2="98.669"/>
		<line fill="none" stroke="#0000FF" stroke-width="0.2" stroke-linejoin="round" x1="14.595" y1="76.9" x2="9.473" y2="79.461"/>
		<line fill="none" stroke="#0000FF" stroke-width="0.2" stroke-linejoin="round" x1="14.595" y1="57.693" x2="6.912" y2="60.254"/>
		<line fill="none" stroke="#0000FF" stroke-width="0.2" stroke-linejoin="round" x1="14.595" y1="38.485" x2="4.352" y2="41.046"/>
		<line fill="none" stroke="#0000FF" stroke-width="0.2" stroke-linejoin="round" x1="14.595" y1="19.278" x2="1.79" y2="21.839"/>
		
			<line fill="none" stroke="#0000FF" stroke-width="0.2" stroke-linejoin="round" x1="33.803" y1="134.523" x2="36.363" y2="134.523"/>
		
			<line fill="none" stroke="#0000FF" stroke-width="0.2" stroke-linejoin="round" x1="33.803" y1="115.316" x2="33.803" y2="115.316"/>
		
			<line fill="none" stroke="#0000FF" stroke-width="0.2" stroke-linejoin="round" x1="33.803" y1="96.108" x2="31.242" y2="96.108"/>
		<line fill="none" stroke="#0000FF" stroke-width="0.2" stroke-linejoin="round" x1="33.803" y1="76.9" x2="28.681" y2="76.9"/>
		<line fill="none" stroke="#0000FF" stroke-width="0.2" stroke-linejoin="round" x1="33.803" y1="57.693" x2="26.12" y2="57.693"/>
		
			<line fill="none" stroke="#0000FF" stroke-width="0.2" stroke-linejoin="round" x1="33.803" y1="38.485" x2="23.559" y2="38.485"/>
		
			<line fill="none" stroke="#0000FF" stroke-width="0.2" stroke-linejoin="round" x1="33.803" y1="19.278" x2="20.998" y2="19.278"/>
		
			<line fill="none" stroke="#0000FF" stroke-width="0.2" stroke-linejoin="round" x1="53.01" y1="134.523" x2="55.571" y2="131.962"/>
		
			<line fill="none" stroke="#0000FF" stroke-width="0.2" stroke-linejoin="round" x1="53.01" y1="115.316" x2="53.01" y2="112.755"/>
		<line fill="none" stroke="#0000FF" stroke-width="0.2" stroke-linejoin="round" x1="53.01" y1="96.108" x2="50.449" y2="93.547"/>
		<line fill="none" stroke="#0000FF" stroke-width="0.2" stroke-linejoin="round" x1="53.01" y1="76.9" x2="47.888" y2="74.339"/>
		<line fill="none" stroke="#0000FF" stroke-width="0.2" stroke-linejoin="round" x1="53.01" y1="57.693" x2="45.327" y2="55.132"/>
		<line fill="none" stroke="#0000FF" stroke-width="0.2" stroke-linejoin="round" x1="53.01" y1="38.485" x2="42.766" y2="35.924"/>
		<line fill="none" stroke="#0000FF" stroke-width="0.2" stroke-linejoin="round" x1="53.01" y1="19.278" x2="40.205" y2="16.717"/>
		
			<line fill="none" stroke="#0000FF" stroke-width="0.2" stroke-linejoin="round" x1="72.218" y1="134.523" x2="74.779" y2="129.401"/>
		
			<line fill="none" stroke="#0000FF" stroke-width="0.2" stroke-linejoin="round" x1="72.218" y1="115.316" x2="72.218" y2="110.193"/>
		
			<line fill="none" stroke="#0000FF" stroke-width="0.2" stroke-linejoin="round" x1="72.218" y1="96.108" x2="69.657" y2="90.986"/>
		<line fill="none" stroke="#0000FF" stroke-width="0.2" stroke-linejoin="round" x1="72.218" y1="76.9" x2="67.096" y2="71.778"/>
		
			<line fill="none" stroke="#0000FF" stroke-width="0.2" stroke-linejoin="round" x1="72.218" y1="57.693" x2="64.535" y2="52.571"/>
		
			<line fill="none" stroke="#0000FF" stroke-width="0.2" stroke-linejoin="round" x1="72.218" y1="38.485" x2="61.974" y2="33.363"/>
		
			<line fill="none" stroke="#0000FF" stroke-width="0.2" stroke-linejoin="round" x1="72.218" y1="19.278" x2="59.413" y2="14.156"/>
		
			<line fill="none" stroke="#0000FF" stroke-width="0.2" stroke-linejoin="round" x1="91.425" y1="134.523" x2="93.986" y2="126.84"/>
		
			<line fill="none" stroke="#0000FF" stroke-width="0.2" stroke-linejoin="round" x1="91.425" y1="115.316" x2="91.425" y2="107.632"/>
		
			<line fill="none" stroke="#0000FF" stroke-width="0.2" stroke-linejoin="round" x1="91.425" y1="96.108" x2="88.865" y2="88.425"/>
		<line fill="none" stroke="#0000FF" stroke-width="0.2" stroke-linejoin="round" x1="91.425" y1="76.9" x2="86.304" y2="69.217"/>
		<line fill="none" stroke="#0000FF" stroke-width="0.2" stroke-linejoin="round" x1="91.425" y1="57.693" x2="83.743" y2="50.01"/>
		
			<line fill="none" stroke="#0000FF" stroke-width="0.2" stroke-linejoin="round" x1="91.425" y1="38.485" x2="81.181" y2="30.802"/>
		<line fill="none" stroke="#0000FF" stroke-width="0.2" stroke-linejoin="round" x1="91.425" y1="19.278" x2="78.62" y2="11.595"/>
		
			<line fill="none" stroke="#0000FF" stroke-width="0.2" stroke-linejoin="round" x1="110.633" y1="134.523" x2="113.194" y2="124.279"/>
		
			<line fill="none" stroke="#0000FF" stroke-width="0.2" stroke-linejoin="round" x1="110.633" y1="115.316" x2="110.633" y2="105.071"/>
		
			<line fill="none" stroke="#0000FF" stroke-width="0.2" stroke-linejoin="round" x1="110.633" y1="96.108" x2="108.072" y2="85.864"/>
		
			<line fill="none" stroke="#0000FF" stroke-width="0.2" stroke-linejoin="round" x1="110.633" y1="76.9" x2="105.511" y2="66.656"/>
		
			<line fill="none" stroke="#0000FF" stroke-width="0.2" stroke-linejoin="round" x1="110.633" y1="57.693" x2="102.95" y2="47.449"/>
		
			<line fill="none" stroke="#0000FF" stroke-width="0.2" stroke-linejoin="round" x1="110.633" y1="38.485" x2="100.389" y2="28.241"/>
		
			<line fill="none" stroke="#0000FF" stroke-width="0.2" stroke-linejoin="round" x1="110.633" y1="19.278" x2="97.828" y2="9.034"/>
		
			<line fill="none" stroke="#0000FF" stroke-width="0.2" stroke-linejoin="round" x1="129.84" y1="134.523" x2="132.401" y2="121.718"/>
		
			<line fill="none" stroke="#0000FF" stroke-width="0.2" stroke-linejoin="round" x1="129.84" y1="115.316" x2="129.84" y2="102.51"/>
		
			<line fill="none" stroke="#0000FF" stroke-width="0.2" stroke-linejoin="round" x1="129.84" y1="96.108" x2="127.279" y2="83.303"/>
		<line fill="none" stroke="#0000FF" stroke-width="0.2" stroke-linejoin="round" x1="129.84" y1="76.9" x2="124.718" y2="64.095"/>
		
			<line fill="none" stroke="#0000FF" stroke-width="0.2" stroke-linejoin="round" x1="129.84" y1="57.693" x2="122.157" y2="44.888"/>
		
			<line fill="none" stroke="#0000FF" stroke-width="0.2" stroke-linejoin="round" x1="129.84" y1="38.485" x2="119.596" y2="25.68"/>
		
			<line fill="none" stroke="#0000FF" stroke-width="0.2" stroke-linejoin="round" x1="129.84" y1="19.278" x2="117.036" y2="6.473"/>
		<polyline fill="none" stroke="#0000FF" stroke-width="0.2" stroke-linejoin="round" points="16.018,136.514 17.156,137.084 
			16.587,135.946 		"/>
		<polyline fill="none" stroke="#0000FF" stroke-width="0.2" stroke-linejoin="round" points="14.311,117.023 14.595,117.877 
			14.88,117.023 		"/>
		<polyline fill="none" stroke="#0000FF" stroke-width="0.2" stroke-linejoin="round" points="12.604,97.53 12.034,98.669 
			13.172,98.1 		"/>
		<polyline fill="none" stroke="#0000FF" stroke-width="0.2" stroke-linejoin="round" points="10.896,78.039 9.473,79.461 
			11.465,79.177 		"/>
		<polyline fill="none" stroke="#0000FF" stroke-width="0.2" stroke-linejoin="round" points="9.189,58.546 6.912,60.254 
			9.758,60.254 		"/>
		<polyline fill="none" stroke="#0000FF" stroke-width="0.2" stroke-linejoin="round" points="7.481,39.055 4.352,41.046 
			8.05,41.331 		"/>
		<polyline fill="none" stroke="#0000FF" stroke-width="0.2" stroke-linejoin="round" points="5.774,19.562 1.79,21.839 
			6.343,22.408 		"/>
		<polyline fill="none" stroke="#0000FF" stroke-width="0.2" stroke-linejoin="round" points="35.51,134.807 36.363,134.523 
			35.51,134.239 		"/>
		<polyline fill="none" stroke="#0000FF" stroke-width="0.2" stroke-linejoin="round" points="33.803,115.316 33.803,115.316 
			33.803,115.316 		"/>
		<polyline fill="none" stroke="#0000FF" stroke-width="0.2" stroke-linejoin="round" points="32.095,95.823 31.242,96.108 
			32.095,96.393 		"/>
		<polyline fill="none" stroke="#0000FF" stroke-width="0.2" stroke-linejoin="round" points="30.388,76.332 28.681,76.9 
			30.388,77.469 		"/>
		<polyline fill="none" stroke="#0000FF" stroke-width="0.2" stroke-linejoin="round" points="28.681,56.839 26.12,57.693 
			28.681,58.546 		"/>
		<polyline fill="none" stroke="#0000FF" stroke-width="0.2" stroke-linejoin="round" points="26.973,37.347 23.559,38.485 
			26.973,39.623 		"/>
		<polyline fill="none" stroke="#0000FF" stroke-width="0.2" stroke-linejoin="round" points="25.266,17.855 20.998,19.278 
			25.266,20.701 		"/>
		<polyline fill="none" stroke="#0000FF" stroke-width="0.2" stroke-linejoin="round" points="55.002,133.1 55.571,131.962 
			54.433,132.531 		"/>
		<polyline fill="none" stroke="#0000FF" stroke-width="0.2" stroke-linejoin="round" points="53.295,113.608 53.01,112.755 
			52.726,113.608 		"/>
		<polyline fill="none" stroke="#0000FF" stroke-width="0.2" stroke-linejoin="round" points="51.588,94.116 50.449,93.547 
			51.018,94.685 		"/>
		<polyline fill="none" stroke="#0000FF" stroke-width="0.2" stroke-linejoin="round" points="49.881,74.624 47.888,74.339 
			49.311,75.762 		"/>
		<polyline fill="none" stroke="#0000FF" stroke-width="0.2" stroke-linejoin="round" points="48.173,55.132 45.327,55.132 
			47.604,56.839 		"/>
		<polyline fill="none" stroke="#0000FF" stroke-width="0.2" stroke-linejoin="round" points="46.466,35.64 42.766,35.924 
			45.897,37.916 		"/>
		<polyline fill="none" stroke="#0000FF" stroke-width="0.2" stroke-linejoin="round" points="44.758,16.148 40.205,16.717 
			44.189,18.993 		"/>
		<polyline fill="none" stroke="#0000FF" stroke-width="0.2" stroke-linejoin="round" points="74.494,131.393 74.779,129.401 
			73.356,130.824 		"/>
		<polyline fill="none" stroke="#0000FF" stroke-width="0.2" stroke-linejoin="round" points="72.787,111.901 72.218,110.193 
			71.649,111.901 		"/>
		<polyline fill="none" stroke="#0000FF" stroke-width="0.2" stroke-linejoin="round" points="71.079,92.409 69.657,90.986 
			69.941,92.978 		"/>
		<polyline fill="none" stroke="#0000FF" stroke-width="0.2" stroke-linejoin="round" points="69.372,72.917 67.096,71.778 
			68.234,74.055 		"/>
		<polyline fill="none" stroke="#0000FF" stroke-width="0.2" stroke-linejoin="round" points="67.665,53.425 64.535,52.571 
			66.527,55.132 		"/>
		<polyline fill="none" stroke="#0000FF" stroke-width="0.2" stroke-linejoin="round" points="65.957,33.932 61.974,33.363 
			64.82,36.209 		"/>
		<polyline fill="none" stroke="#0000FF" stroke-width="0.2" stroke-linejoin="round" points="64.25,14.44 59.413,14.156 
			63.112,17.286 		"/>
		<polyline fill="none" stroke="#0000FF" stroke-width="0.2" stroke-linejoin="round" points="93.986,129.685 93.986,126.84 
			92.279,129.116 		"/>
		<polyline fill="none" stroke="#0000FF" stroke-width="0.2" stroke-linejoin="round" points="92.279,110.193 91.425,107.632 
			90.572,110.193 		"/>
		<polyline fill="none" stroke="#0000FF" stroke-width="0.2" stroke-linejoin="round" points="90.572,90.701 88.865,88.425 
			88.865,91.271 		"/>
		<polyline fill="none" stroke="#0000FF" stroke-width="0.2" stroke-linejoin="round" points="88.865,71.209 86.304,69.217 
			87.157,72.348 		"/>
		<polyline fill="none" stroke="#0000FF" stroke-width="0.2" stroke-linejoin="round" points="87.157,51.717 83.743,50.01 
			85.45,53.425 		"/>
		<polyline fill="none" stroke="#0000FF" stroke-width="0.2" stroke-linejoin="round" points="85.45,32.225 81.181,30.802 
			83.743,34.502 		"/>
		<polyline fill="none" stroke="#0000FF" stroke-width="0.2" stroke-linejoin="round" points="83.743,12.733 78.62,11.595 
			82.035,15.579 		"/>
		<polyline fill="none" stroke="#0000FF" stroke-width="0.2" stroke-linejoin="round" points="113.478,127.978 113.194,124.279 
			111.202,127.409 		"/>
		<polyline fill="none" stroke="#0000FF" stroke-width="0.2" stroke-linejoin="round" points="111.771,108.486 110.633,105.071 
			109.495,108.486 		"/>
		<polyline fill="none" stroke="#0000FF" stroke-width="0.2" stroke-linejoin="round" points="110.063,88.994 108.072,85.864 
			107.788,89.563 		"/>
		<polyline fill="none" stroke="#0000FF" stroke-width="0.2" stroke-linejoin="round" points="108.356,69.502 105.511,66.656 
			106.08,70.64 		"/>
		<polyline fill="none" stroke="#0000FF" stroke-width="0.2" stroke-linejoin="round" points="106.649,50.01 102.95,47.449 
			104.373,51.717 		"/>
		<polyline fill="none" stroke="#0000FF" stroke-width="0.2" stroke-linejoin="round" points="104.942,30.518 100.389,28.241 
			102.665,32.794 		"/>
		<polyline fill="none" stroke="#0000FF" stroke-width="0.2" stroke-linejoin="round" points="103.234,11.026 97.828,9.034 
			100.958,13.871 		"/>
		<polyline fill="none" stroke="#0000FF" stroke-width="0.2" stroke-linejoin="round" points="132.97,126.271 132.401,121.718 
			130.125,125.701 		"/>
		<polyline fill="none" stroke="#0000FF" stroke-width="0.2" stroke-linejoin="round" points="131.263,106.779 129.84,102.51 
			128.418,106.779 		"/>
		<polyline fill="none" stroke="#0000FF" stroke-width="0.2" stroke-linejoin="round" points="129.556,87.287 127.279,83.303 
			126.71,87.856 		"/>
		<polyline fill="none" stroke="#0000FF" stroke-width="0.2" stroke-linejoin="round" points="127.849,67.794 124.718,64.095 
			125.003,68.933 		"/>
		<polyline fill="none" stroke="#0000FF" stroke-width="0.2" stroke-linejoin="round" points="126.141,48.303 122.157,44.888 
			123.295,50.01 		"/>
		<polyline fill="none" stroke="#0000FF" stroke-width="0.2" stroke-linejoin="round" points="124.434,28.81 119.596,25.68 
			121.588,31.087 		"/>
		<polyline fill="none" stroke="#0000FF" stroke-width="0.2" stroke-linejoin="round" points="122.727,9.318 117.036,6.473 
			119.881,12.164 		"/>
	</g>
	<g>
		<g>
			<line fill="none" stroke="#262626" stroke-width="0.5" x1="-43.305" y1="115.316" x2="143.502" y2="115.316"/>
			<g>
				<polygon fill="#262626" points="142.098,117.167 142.884,115.316 142.098,113.464 146.487,115.316 				"/>
			</g>
		</g>
	</g>
	<g>
		<g>
			<line fill="none" stroke="#262626" stroke-width="0.5" x1="33.803" y1="158.852" x2="33.803" y2="2.985"/>
			<g>
				<polygon fill="#262626" points="35.655,4.389 33.803,3.603 31.952,4.389 33.803,0 				"/>
			</g>
		</g>
	</g>
	<polyline fill="none" stroke="#FF0000" stroke-width="2" stroke-linecap="round" stroke-linejoin="round" points="33.803,115.316 
		37.847,115.103 41.89,114.464 45.934,113.4 49.978,111.91 54.022,109.995 58.065,107.654 62.109,104.887 66.153,101.694 
		70.196,98.077 74.24,94.033 78.284,89.563 82.327,84.669 86.371,79.348 90.415,73.602 94.458,67.43 98.502,60.832 102.546,53.809 
		106.589,46.36 110.633,38.485 	"/>
	<g enable-background="new    ">
		<path fill="#262626" d="M118.84,45.356c-2.15-1.225-3.321-3.525-3.321-5.839c0-2.519,1.185-4.479,3.362-5.771l0.122,0.218
			c-1.892,1.62-2.313,2.886-2.313,5.513c0,2.531,0.408,4.069,2.313,5.662L118.84,45.356z"/>
		<path fill="#262626" d="M121.003,42.947v-0.204c1.007-0.055,1.293-0.34,1.293-1.089v-6.111c0-0.463-0.123-0.667-0.408-0.667
			c-0.137,0-0.368,0.068-0.613,0.163l-0.367,0.137v-0.19l2.437-1.239l0.122,0.041v8.126c0,0.585,0.272,0.83,1.293,0.83v0.204
			H121.003z"/>
		<path fill="#262626" d="M127.193,44.607c0.749-0.503,1.13-1.007,1.13-1.456c0-0.096-0.081-0.177-0.19-0.177
			c-0.108,0-0.245,0.055-0.395,0.055c-0.504,0-0.789-0.231-0.789-0.694s0.326-0.776,0.816-0.776c0.612,0,1.089,0.477,1.089,1.185
			c0,0.816-0.585,1.674-1.524,2.123L127.193,44.607z"/>
		<path fill="#262626" d="M131.209,42.947v-0.204c1.007-0.055,1.293-0.34,1.293-1.089v-6.111c0-0.463-0.123-0.667-0.408-0.667
			c-0.137,0-0.368,0.068-0.613,0.163l-0.367,0.137v-0.19l2.437-1.239l0.122,0.041v8.126c0,0.585,0.272,0.83,1.293,0.83v0.204
			H131.209z"/>
		<path fill="#262626" d="M136.964,33.746c2.083,1.253,3.321,3.525,3.321,5.839c0,2.519-1.197,4.451-3.361,5.771l-0.123-0.218
			c1.933-1.593,2.314-2.872,2.314-5.513c0-2.545-0.341-4.11-2.314-5.662L136.964,33.746z"/>
	</g>
	<g enable-background="new    ">
		<path fill="#0000FF" d="M13.535,91.512l-0.42-0.04c0.06-0.439,0.06-0.54,0.06-0.66c0-1.46-0.46-1.72-3.98-1.72
			c-0.921,0-1.221,0.12-1.36,0.64l-1.28,4.541c3.36-0.04,3.42-0.08,4.32-1.88l0.36,0.1l-1.521,4.701l-0.34-0.101
			c0.12-0.62,0.16-0.899,0.16-1.22c0-0.8-0.561-0.88-1.501-0.88c-0.439,0-0.92-0.021-1.66-0.061l-1.18,4.261
			c-0.141,0.5-0.28,0.9-0.28,1.2c0,0.48,0.36,0.7,1.54,0.78v0.32H1.433v-0.32c1.16-0.08,1.36-0.52,1.66-1.561l2.46-8.842
			c0.141-0.5,0.2-0.899,0.2-1.22c0-0.561-0.2-0.681-1.521-0.801v-0.319h9.942L13.535,91.512z"/>
	</g>
	<g>
		<g>
			<line fill="none" stroke="#0000FF" stroke-width="0.5" x1="4.657" y1="84.46" x2="14.855" y2="84.46"/>
			<g>
				<polygon fill="#0000FF" points="13.199,86.505 12.858,86.139 14.664,84.461 12.858,82.782 13.199,82.416 15.398,84.461 				"/>
			</g>
		</g>
	</g>
	<g enable-background="new    ">
		<path fill="#FF0000" d="M107.926,72.31l-0.36-0.061c-0.24-2.141-1.22-3.261-2.98-3.261c-1.48,0-2.881,0.761-3.98,1.94
			c-1.44,1.54-2.161,3.821-2.161,6.021c0,2.801,1.28,4.101,3.501,4.101c1.641,0,2.841-0.58,4.581-2.38l0.36,0.3
			c-1.801,2.12-3.401,2.98-5.462,2.98c-3.061,0-5.221-1.921-5.221-5.221c0-2.821,1.54-5.441,3.741-7.002
			c1.28-0.92,2.8-1.46,4.381-1.46c0.66,0,1.5,0.04,2.34,0.34c0.4,0.14,0.641,0.14,0.82,0.14c0.4,0,0.601-0.12,0.761-0.439h0.42
			L107.926,72.31z"/>
	</g>
	<g>
	</g>
	<g>
	</g>
</g>
</svg>
