<?xml version="1.0" encoding="utf-8"?>
<!-- Generator: Adobe Illustrator 25.4.1, SVG Export Plug-In . SVG Version: 6.00 Build 0)  -->
<svg version="1.1" xmlns="http://www.w3.org/2000/svg" xmlns:xlink="http://www.w3.org/1999/xlink" x="0px" y="0px"
	 viewBox="0 0 137.006 71.632" enable-background="new 0 0 137.006 71.632" xml:space="preserve">
<g id="Layer_2" opacity="0.5">
	<g id="Clipped_grid">
		<defs>
			<rect id="SVGID_1_" x="-79.141" y="-64.894" width="251.19" height="254.581"/>
		</defs>
		<clipPath id="SVGID_00000031901873409870007670000016708580417438842041_">
			<use xlink:href="#SVGID_1_"  overflow="visible"/>
		</clipPath>
		<g id="Grid" opacity="0.25" clip-path="url(#SVGID_00000031901873409870007670000016708580417438842041_)">
			<g id="Horizontal_1_mm">
				
					<line fill="none" stroke="#00ABEB" stroke-width="0.15" stroke-miterlimit="10" x1="-175.803" y1="-91.761" x2="259.725" y2="-91.761"/>
				
					<line fill="none" stroke="#00ABEB" stroke-width="0.15" stroke-miterlimit="10" x1="-175.803" y1="-97.135" x2="259.725" y2="-97.135"/>
				
					<line fill="none" stroke="#00ABEB" stroke-width="0.15" stroke-miterlimit="10" x1="-175.803" y1="225.273" x2="259.725" y2="225.273"/>
				
					<line fill="none" stroke="#00ABEB" stroke-width="0.15" stroke-miterlimit="10" x1="-175.803" y1="219.899" x2="259.725" y2="219.899"/>
				
					<line fill="none" stroke="#00ABEB" stroke-width="0.15" stroke-miterlimit="10" x1="-175.803" y1="214.527" x2="259.725" y2="214.527"/>
				
					<line fill="none" stroke="#00ABEB" stroke-width="0.15" stroke-miterlimit="10" x1="-175.803" y1="209.153" x2="259.725" y2="209.153"/>
				
					<line fill="none" stroke="#00ABEB" stroke-width="0.15" stroke-miterlimit="10" x1="-175.803" y1="203.779" x2="259.725" y2="203.779"/>
				
					<line fill="none" stroke="#00ABEB" stroke-width="0.15" stroke-miterlimit="10" x1="-175.803" y1="198.406" x2="259.725" y2="198.406"/>
				
					<line fill="none" stroke="#00ABEB" stroke-width="0.15" stroke-miterlimit="10" x1="-175.803" y1="193.032" x2="259.725" y2="193.032"/>
				
					<line fill="none" stroke="#00ABEB" stroke-width="0.15" stroke-miterlimit="10" x1="-175.803" y1="187.66" x2="259.725" y2="187.66"/>
				
					<line fill="none" stroke="#00ABEB" stroke-width="0.15" stroke-miterlimit="10" x1="-175.803" y1="182.285" x2="259.725" y2="182.285"/>
				
					<line fill="none" stroke="#00ABEB" stroke-width="0.15" stroke-miterlimit="10" x1="-175.803" y1="176.911" x2="259.725" y2="176.911"/>
				
					<line fill="none" stroke="#00ABEB" stroke-width="0.15" stroke-miterlimit="10" x1="-175.803" y1="171.539" x2="259.725" y2="171.539"/>
				
					<line fill="none" stroke="#00ABEB" stroke-width="0.15" stroke-miterlimit="10" x1="-175.803" y1="166.165" x2="259.725" y2="166.165"/>
				
					<line fill="none" stroke="#00ABEB" stroke-width="0.15" stroke-miterlimit="10" x1="-175.803" y1="160.791" x2="259.725" y2="160.791"/>
				
					<line fill="none" stroke="#00ABEB" stroke-width="0.15" stroke-miterlimit="10" x1="-175.803" y1="155.419" x2="259.725" y2="155.419"/>
				
					<line fill="none" stroke="#00ABEB" stroke-width="0.15" stroke-miterlimit="10" x1="-175.803" y1="150.044" x2="259.725" y2="150.044"/>
				
					<line fill="none" stroke="#00ABEB" stroke-width="0.15" stroke-miterlimit="10" x1="-175.803" y1="144.671" x2="259.725" y2="144.671"/>
				
					<line fill="none" stroke="#00ABEB" stroke-width="0.15" stroke-miterlimit="10" x1="-175.803" y1="139.298" x2="259.725" y2="139.298"/>
				
					<line fill="none" stroke="#00ABEB" stroke-width="0.15" stroke-miterlimit="10" x1="-175.803" y1="133.924" x2="259.725" y2="133.924"/>
				
					<line fill="none" stroke="#00ABEB" stroke-width="0.15" stroke-miterlimit="10" x1="-175.803" y1="128.55" x2="259.725" y2="128.55"/>
				
					<line fill="none" stroke="#00ABEB" stroke-width="0.15" stroke-miterlimit="10" x1="-175.803" y1="123.178" x2="259.725" y2="123.178"/>
				
					<line fill="none" stroke="#00ABEB" stroke-width="0.15" stroke-miterlimit="10" x1="-175.803" y1="117.804" x2="259.725" y2="117.804"/>
				
					<line fill="none" stroke="#00ABEB" stroke-width="0.15" stroke-miterlimit="10" x1="-175.803" y1="112.429" x2="259.725" y2="112.429"/>
				
					<line fill="none" stroke="#00ABEB" stroke-width="0.15" stroke-miterlimit="10" x1="-175.803" y1="107.057" x2="259.725" y2="107.057"/>
				
					<line fill="none" stroke="#00ABEB" stroke-width="0.15" stroke-miterlimit="10" x1="-175.803" y1="101.683" x2="259.725" y2="101.683"/>
				
					<line fill="none" stroke="#00ABEB" stroke-width="0.15" stroke-miterlimit="10" x1="-175.803" y1="96.31" x2="259.725" y2="96.31"/>
				
					<line fill="none" stroke="#00ABEB" stroke-width="0.15" stroke-miterlimit="10" x1="-175.803" y1="90.937" x2="259.725" y2="90.937"/>
				
					<line fill="none" stroke="#00ABEB" stroke-width="0.15" stroke-miterlimit="10" x1="-175.803" y1="85.562" x2="259.725" y2="85.562"/>
				
					<line fill="none" stroke="#00ABEB" stroke-width="0.15" stroke-miterlimit="10" x1="-175.803" y1="80.19" x2="259.725" y2="80.19"/>
				
					<line fill="none" stroke="#00ABEB" stroke-width="0.15" stroke-miterlimit="10" x1="-175.803" y1="74.816" x2="259.725" y2="74.816"/>
				
					<line fill="none" stroke="#00ABEB" stroke-width="0.15" stroke-miterlimit="10" x1="-175.803" y1="69.442" x2="259.725" y2="69.442"/>
				
					<line fill="none" stroke="#00ABEB" stroke-width="0.15" stroke-miterlimit="10" x1="-175.803" y1="64.07" x2="259.725" y2="64.07"/>
				
					<line fill="none" stroke="#00ABEB" stroke-width="0.15" stroke-miterlimit="10" x1="-175.803" y1="58.696" x2="259.725" y2="58.696"/>
				
					<line fill="none" stroke="#00ABEB" stroke-width="0.15" stroke-miterlimit="10" x1="-175.803" y1="53.322" x2="259.725" y2="53.322"/>
				
					<line fill="none" stroke="#00ABEB" stroke-width="0.15" stroke-miterlimit="10" x1="-175.803" y1="47.95" x2="259.725" y2="47.95"/>
				
					<line fill="none" stroke="#00ABEB" stroke-width="0.15" stroke-miterlimit="10" x1="-175.803" y1="42.575" x2="259.725" y2="42.575"/>
				
					<line fill="none" stroke="#00ABEB" stroke-width="0.15" stroke-miterlimit="10" x1="-175.803" y1="37.202" x2="259.725" y2="37.202"/>
				
					<line fill="none" stroke="#00ABEB" stroke-width="0.15" stroke-miterlimit="10" x1="-175.803" y1="31.829" x2="259.725" y2="31.829"/>
				
					<line fill="none" stroke="#00ABEB" stroke-width="0.15" stroke-miterlimit="10" x1="-175.803" y1="26.455" x2="259.725" y2="26.455"/>
				
					<line fill="none" stroke="#00ABEB" stroke-width="0.15" stroke-miterlimit="10" x1="-175.803" y1="21.081" x2="259.725" y2="21.081"/>
				
					<line fill="none" stroke="#00ABEB" stroke-width="0.15" stroke-miterlimit="10" x1="-175.803" y1="15.709" x2="259.725" y2="15.709"/>
				
					<line fill="none" stroke="#00ABEB" stroke-width="0.15" stroke-miterlimit="10" x1="-175.803" y1="10.334" x2="259.725" y2="10.334"/>
				
					<line fill="none" stroke="#00ABEB" stroke-width="0.15" stroke-miterlimit="10" x1="-175.803" y1="4.962" x2="259.725" y2="4.962"/>
				
					<line fill="none" stroke="#00ABEB" stroke-width="0.15" stroke-miterlimit="10" x1="-175.803" y1="-0.412" x2="259.725" y2="-0.412"/>
				
					<line fill="none" stroke="#00ABEB" stroke-width="0.15" stroke-miterlimit="10" x1="-175.803" y1="-5.786" x2="259.725" y2="-5.786"/>
				
					<line fill="none" stroke="#00ABEB" stroke-width="0.15" stroke-miterlimit="10" x1="-175.803" y1="-11.158" x2="259.725" y2="-11.158"/>
				
					<line fill="none" stroke="#00ABEB" stroke-width="0.15" stroke-miterlimit="10" x1="-175.803" y1="-16.533" x2="259.725" y2="-16.533"/>
				
					<line fill="none" stroke="#00ABEB" stroke-width="0.15" stroke-miterlimit="10" x1="-175.803" y1="-21.907" x2="259.725" y2="-21.907"/>
				
					<line fill="none" stroke="#00ABEB" stroke-width="0.15" stroke-miterlimit="10" x1="-175.803" y1="-27.279" x2="259.725" y2="-27.279"/>
				
					<line fill="none" stroke="#00ABEB" stroke-width="0.15" stroke-miterlimit="10" x1="-175.803" y1="-32.653" x2="259.725" y2="-32.653"/>
				
					<line fill="none" stroke="#00ABEB" stroke-width="0.15" stroke-miterlimit="10" x1="-175.803" y1="-38.027" x2="259.725" y2="-38.027"/>
				
					<line fill="none" stroke="#00ABEB" stroke-width="0.15" stroke-miterlimit="10" x1="-175.803" y1="-43.399" x2="259.725" y2="-43.399"/>
				
					<line fill="none" stroke="#00ABEB" stroke-width="0.15" stroke-miterlimit="10" x1="-175.803" y1="-48.773" x2="259.725" y2="-48.773"/>
				
					<line fill="none" stroke="#00ABEB" stroke-width="0.15" stroke-miterlimit="10" x1="-175.803" y1="-54.147" x2="259.725" y2="-54.147"/>
				
					<line fill="none" stroke="#00ABEB" stroke-width="0.15" stroke-miterlimit="10" x1="-175.803" y1="-59.519" x2="259.725" y2="-59.519"/>
				
					<line fill="none" stroke="#00ABEB" stroke-width="0.15" stroke-miterlimit="10" x1="-175.803" y1="-64.894" x2="259.725" y2="-64.894"/>
				
					<line fill="none" stroke="#00ABEB" stroke-width="0.15" stroke-miterlimit="10" x1="-175.803" y1="-70.267" x2="259.725" y2="-70.267"/>
				
					<line fill="none" stroke="#00ABEB" stroke-width="0.15" stroke-miterlimit="10" x1="-175.803" y1="-75.641" x2="259.725" y2="-75.641"/>
				
					<line fill="none" stroke="#00ABEB" stroke-width="0.15" stroke-miterlimit="10" x1="-175.803" y1="-81.015" x2="259.725" y2="-81.015"/>
				
					<line fill="none" stroke="#00ABEB" stroke-width="0.15" stroke-miterlimit="10" x1="-175.803" y1="-86.387" x2="259.725" y2="-86.387"/>
			</g>
			<g id="Vertical_1_mm">
				<g>
					
						<line fill="none" stroke="#00ABEB" stroke-width="0.15" stroke-miterlimit="10" x1="-175.658" y1="225.247" x2="-175.658" y2="-97.278"/>
				</g>
				
					<line fill="none" stroke="#00ABEB" stroke-width="0.15" stroke-miterlimit="10" x1="-170.217" y1="225.247" x2="-170.217" y2="-97.278"/>
				
					<line fill="none" stroke="#00ABEB" stroke-width="0.15" stroke-miterlimit="10" x1="-164.774" y1="225.247" x2="-164.774" y2="-97.278"/>
				
					<line fill="none" stroke="#00ABEB" stroke-width="0.15" stroke-miterlimit="10" x1="-159.331" y1="225.247" x2="-159.331" y2="-97.278"/>
				
					<line fill="none" stroke="#00ABEB" stroke-width="0.15" stroke-miterlimit="10" x1="-153.89" y1="225.247" x2="-153.89" y2="-97.278"/>
				
					<line fill="none" stroke="#00ABEB" stroke-width="0.15" stroke-miterlimit="10" x1="-148.447" y1="225.247" x2="-148.447" y2="-97.278"/>
				
					<line fill="none" stroke="#00ABEB" stroke-width="0.15" stroke-miterlimit="10" x1="-143.004" y1="225.247" x2="-143.004" y2="-97.278"/>
				
					<line fill="none" stroke="#00ABEB" stroke-width="0.15" stroke-miterlimit="10" x1="-137.563" y1="225.247" x2="-137.563" y2="-97.278"/>
				
					<line fill="none" stroke="#00ABEB" stroke-width="0.15" stroke-miterlimit="10" x1="-132.119" y1="225.247" x2="-132.119" y2="-97.278"/>
				
					<line fill="none" stroke="#00ABEB" stroke-width="0.15" stroke-miterlimit="10" x1="-126.678" y1="225.247" x2="-126.678" y2="-97.278"/>
				
					<line fill="none" stroke="#00ABEB" stroke-width="0.15" stroke-miterlimit="10" x1="-121.235" y1="225.247" x2="-121.235" y2="-97.278"/>
				
					<line fill="none" stroke="#00ABEB" stroke-width="0.15" stroke-miterlimit="10" x1="-115.792" y1="225.247" x2="-115.792" y2="-97.278"/>
				
					<line fill="none" stroke="#00ABEB" stroke-width="0.15" stroke-miterlimit="10" x1="-110.35" y1="225.247" x2="-110.35" y2="-97.278"/>
				
					<line fill="none" stroke="#00ABEB" stroke-width="0.15" stroke-miterlimit="10" x1="-104.907" y1="225.247" x2="-104.907" y2="-97.278"/>
				
					<line fill="none" stroke="#00ABEB" stroke-width="0.15" stroke-miterlimit="10" x1="-99.464" y1="225.247" x2="-99.464" y2="-97.278"/>
				
					<line fill="none" stroke="#00ABEB" stroke-width="0.15" stroke-miterlimit="10" x1="-94.023" y1="225.247" x2="-94.023" y2="-97.278"/>
				
					<line fill="none" stroke="#00ABEB" stroke-width="0.15" stroke-miterlimit="10" x1="-88.58" y1="225.247" x2="-88.58" y2="-97.278"/>
				
					<line fill="none" stroke="#00ABEB" stroke-width="0.15" stroke-miterlimit="10" x1="-83.137" y1="225.247" x2="-83.137" y2="-97.278"/>
				
					<line fill="none" stroke="#00ABEB" stroke-width="0.15" stroke-miterlimit="10" x1="-77.696" y1="225.247" x2="-77.696" y2="-97.278"/>
				
					<line fill="none" stroke="#00ABEB" stroke-width="0.15" stroke-miterlimit="10" x1="-72.253" y1="225.247" x2="-72.253" y2="-97.278"/>
				
					<line fill="none" stroke="#00ABEB" stroke-width="0.15" stroke-miterlimit="10" x1="-66.81" y1="225.247" x2="-66.81" y2="-97.278"/>
				
					<line fill="none" stroke="#00ABEB" stroke-width="0.15" stroke-miterlimit="10" x1="-61.369" y1="225.247" x2="-61.369" y2="-97.278"/>
				
					<line fill="none" stroke="#00ABEB" stroke-width="0.15" stroke-miterlimit="10" x1="-55.926" y1="225.247" x2="-55.926" y2="-97.278"/>
				
					<line fill="none" stroke="#00ABEB" stroke-width="0.15" stroke-miterlimit="10" x1="-50.483" y1="225.247" x2="-50.483" y2="-97.278"/>
				
					<line fill="none" stroke="#00ABEB" stroke-width="0.15" stroke-miterlimit="10" x1="-45.041" y1="225.247" x2="-45.041" y2="-97.278"/>
				
					<line fill="none" stroke="#00ABEB" stroke-width="0.15" stroke-miterlimit="10" x1="-39.597" y1="225.247" x2="-39.597" y2="-97.278"/>
				
					<line fill="none" stroke="#00ABEB" stroke-width="0.15" stroke-miterlimit="10" x1="-34.156" y1="225.247" x2="-34.156" y2="-97.278"/>
				
					<line fill="none" stroke="#00ABEB" stroke-width="0.15" stroke-miterlimit="10" x1="-28.713" y1="225.247" x2="-28.713" y2="-97.278"/>
				
					<line fill="none" stroke="#00ABEB" stroke-width="0.15" stroke-miterlimit="10" x1="-23.27" y1="225.247" x2="-23.27" y2="-97.278"/>
				
					<line fill="none" stroke="#00ABEB" stroke-width="0.15" stroke-miterlimit="10" x1="-17.829" y1="225.247" x2="-17.829" y2="-97.278"/>
				
					<line fill="none" stroke="#00ABEB" stroke-width="0.15" stroke-miterlimit="10" x1="-12.386" y1="225.247" x2="-12.386" y2="-97.278"/>
				
					<line fill="none" stroke="#00ABEB" stroke-width="0.15" stroke-miterlimit="10" x1="-6.943" y1="225.247" x2="-6.943" y2="-97.278"/>
				
					<line fill="none" stroke="#00ABEB" stroke-width="0.15" stroke-miterlimit="10" x1="-1.502" y1="225.247" x2="-1.502" y2="-97.278"/>
				
					<line fill="none" stroke="#00ABEB" stroke-width="0.15" stroke-miterlimit="10" x1="3.941" y1="225.247" x2="3.941" y2="-97.278"/>
				
					<line fill="none" stroke="#00ABEB" stroke-width="0.15" stroke-miterlimit="10" x1="9.384" y1="225.247" x2="9.384" y2="-97.278"/>
				
					<line fill="none" stroke="#00ABEB" stroke-width="0.15" stroke-miterlimit="10" x1="14.825" y1="225.247" x2="14.825" y2="-97.278"/>
				
					<line fill="none" stroke="#00ABEB" stroke-width="0.15" stroke-miterlimit="10" x1="20.268" y1="225.247" x2="20.268" y2="-97.278"/>
				
					<line fill="none" stroke="#00ABEB" stroke-width="0.15" stroke-miterlimit="10" x1="25.712" y1="225.247" x2="25.712" y2="-97.278"/>
				
					<line fill="none" stroke="#00ABEB" stroke-width="0.15" stroke-miterlimit="10" x1="31.153" y1="225.247" x2="31.153" y2="-97.278"/>
				
					<line fill="none" stroke="#00ABEB" stroke-width="0.15" stroke-miterlimit="10" x1="36.596" y1="225.247" x2="36.596" y2="-97.278"/>
				
					<line fill="none" stroke="#00ABEB" stroke-width="0.15" stroke-miterlimit="10" x1="42.037" y1="225.247" x2="42.037" y2="-97.278"/>
				
					<line fill="none" stroke="#00ABEB" stroke-width="0.15" stroke-miterlimit="10" x1="47.481" y1="225.247" x2="47.481" y2="-97.278"/>
				
					<line fill="none" stroke="#00ABEB" stroke-width="0.15" stroke-miterlimit="10" x1="52.924" y1="225.247" x2="52.924" y2="-97.278"/>
				
					<line fill="none" stroke="#00ABEB" stroke-width="0.15" stroke-miterlimit="10" x1="58.365" y1="225.247" x2="58.365" y2="-97.278"/>
				
					<line fill="none" stroke="#00ABEB" stroke-width="0.15" stroke-miterlimit="10" x1="63.808" y1="225.247" x2="63.808" y2="-97.278"/>
				
					<line fill="none" stroke="#00ABEB" stroke-width="0.15" stroke-miterlimit="10" x1="69.251" y1="225.247" x2="69.251" y2="-97.278"/>
				
					<line fill="none" stroke="#00ABEB" stroke-width="0.15" stroke-miterlimit="10" x1="74.692" y1="225.247" x2="74.692" y2="-97.278"/>
				
					<line fill="none" stroke="#00ABEB" stroke-width="0.15" stroke-miterlimit="10" x1="80.135" y1="225.247" x2="80.135" y2="-97.278"/>
				
					<line fill="none" stroke="#00ABEB" stroke-width="0.15" stroke-miterlimit="10" x1="85.578" y1="225.247" x2="85.578" y2="-97.278"/>
				
					<line fill="none" stroke="#00ABEB" stroke-width="0.15" stroke-miterlimit="10" x1="91.019" y1="225.247" x2="91.019" y2="-97.278"/>
				
					<line fill="none" stroke="#00ABEB" stroke-width="0.15" stroke-miterlimit="10" x1="96.463" y1="225.247" x2="96.463" y2="-97.278"/>
				
					<line fill="none" stroke="#00ABEB" stroke-width="0.15" stroke-miterlimit="10" x1="101.905" y1="225.247" x2="101.905" y2="-97.278"/>
				
					<line fill="none" stroke="#00ABEB" stroke-width="0.15" stroke-miterlimit="10" x1="107.347" y1="225.247" x2="107.347" y2="-97.278"/>
				
					<line fill="none" stroke="#00ABEB" stroke-width="0.15" stroke-miterlimit="10" x1="112.79" y1="225.247" x2="112.79" y2="-97.278"/>
				
					<line fill="none" stroke="#00ABEB" stroke-width="0.15" stroke-miterlimit="10" x1="118.233" y1="225.247" x2="118.233" y2="-97.278"/>
				
					<line fill="none" stroke="#00ABEB" stroke-width="0.15" stroke-miterlimit="10" x1="123.674" y1="225.247" x2="123.674" y2="-97.278"/>
				
					<line fill="none" stroke="#00ABEB" stroke-width="0.15" stroke-miterlimit="10" x1="129.118" y1="225.247" x2="129.118" y2="-97.278"/>
				
					<line fill="none" stroke="#00ABEB" stroke-width="0.15" stroke-miterlimit="10" x1="134.559" y1="225.247" x2="134.559" y2="-97.278"/>
				
					<line fill="none" stroke="#00ABEB" stroke-width="0.15" stroke-miterlimit="10" x1="140.002" y1="225.247" x2="140.002" y2="-97.278"/>
				
					<line fill="none" stroke="#00ABEB" stroke-width="0.15" stroke-miterlimit="10" x1="145.445" y1="225.247" x2="145.445" y2="-97.278"/>
				
					<line fill="none" stroke="#00ABEB" stroke-width="0.15" stroke-miterlimit="10" x1="150.886" y1="225.247" x2="150.886" y2="-97.278"/>
				
					<line fill="none" stroke="#00ABEB" stroke-width="0.15" stroke-miterlimit="10" x1="156.329" y1="225.247" x2="156.329" y2="-97.278"/>
				
					<line fill="none" stroke="#00ABEB" stroke-width="0.15" stroke-miterlimit="10" x1="161.772" y1="225.247" x2="161.772" y2="-97.278"/>
				
					<line fill="none" stroke="#00ABEB" stroke-width="0.15" stroke-miterlimit="10" x1="167.214" y1="225.247" x2="167.214" y2="-97.278"/>
				
					<line fill="none" stroke="#00ABEB" stroke-width="0.15" stroke-miterlimit="10" x1="172.657" y1="225.247" x2="172.657" y2="-97.278"/>
				
					<line fill="none" stroke="#00ABEB" stroke-width="0.15" stroke-miterlimit="10" x1="178.1" y1="225.247" x2="178.1" y2="-97.278"/>
				
					<line fill="none" stroke="#00ABEB" stroke-width="0.15" stroke-miterlimit="10" x1="183.541" y1="225.247" x2="183.541" y2="-97.278"/>
				
					<line fill="none" stroke="#00ABEB" stroke-width="0.15" stroke-miterlimit="10" x1="188.984" y1="225.247" x2="188.984" y2="-97.278"/>
				
					<line fill="none" stroke="#00ABEB" stroke-width="0.15" stroke-miterlimit="10" x1="194.427" y1="225.247" x2="194.427" y2="-97.278"/>
				
					<line fill="none" stroke="#00ABEB" stroke-width="0.15" stroke-miterlimit="10" x1="199.868" y1="225.247" x2="199.868" y2="-97.278"/>
				
					<line fill="none" stroke="#00ABEB" stroke-width="0.15" stroke-miterlimit="10" x1="205.311" y1="225.247" x2="205.311" y2="-97.278"/>
				
					<line fill="none" stroke="#00ABEB" stroke-width="0.15" stroke-miterlimit="10" x1="210.754" y1="225.247" x2="210.754" y2="-97.278"/>
				
					<line fill="none" stroke="#00ABEB" stroke-width="0.15" stroke-miterlimit="10" x1="216.196" y1="225.247" x2="216.196" y2="-97.278"/>
				
					<line fill="none" stroke="#00ABEB" stroke-width="0.15" stroke-miterlimit="10" x1="221.639" y1="225.247" x2="221.639" y2="-97.278"/>
				
					<line fill="none" stroke="#00ABEB" stroke-width="0.15" stroke-miterlimit="10" x1="227.08" y1="225.247" x2="227.08" y2="-97.278"/>
				
					<line fill="none" stroke="#00ABEB" stroke-width="0.15" stroke-miterlimit="10" x1="232.523" y1="225.247" x2="232.523" y2="-97.278"/>
				
					<line fill="none" stroke="#00ABEB" stroke-width="0.15" stroke-miterlimit="10" x1="237.967" y1="225.247" x2="237.967" y2="-97.278"/>
				
					<line fill="none" stroke="#00ABEB" stroke-width="0.15" stroke-miterlimit="10" x1="243.408" y1="225.247" x2="243.408" y2="-97.278"/>
				
					<line fill="none" stroke="#00ABEB" stroke-width="0.15" stroke-miterlimit="10" x1="248.851" y1="225.247" x2="248.851" y2="-97.278"/>
				
					<line fill="none" stroke="#00ABEB" stroke-width="0.15" stroke-miterlimit="10" x1="254.294" y1="225.247" x2="254.294" y2="-97.278"/>
				
					<line fill="none" stroke="#00ABEB" stroke-width="0.15" stroke-miterlimit="10" x1="259.735" y1="225.247" x2="259.735" y2="-97.278"/>
			</g>
			<g id="Horizontal_5_mm_1_">
				
					<line fill="none" stroke="#00ABEB" stroke-width="0.3" stroke-miterlimit="10" x1="-176.331" y1="225.273" x2="259.725" y2="225.273"/>
				
					<line fill="none" stroke="#00ABEB" stroke-width="0.3" stroke-miterlimit="10" x1="-176.331" y1="198.406" x2="259.725" y2="198.406"/>
				
					<line fill="none" stroke="#00ABEB" stroke-width="0.3" stroke-miterlimit="10" x1="-176.331" y1="171.539" x2="259.725" y2="171.539"/>
				
					<line fill="none" stroke="#00ABEB" stroke-width="0.3" stroke-miterlimit="10" x1="-176.331" y1="144.671" x2="259.725" y2="144.671"/>
				
					<line fill="none" stroke="#00ABEB" stroke-width="0.3" stroke-miterlimit="10" x1="-176.331" y1="117.804" x2="259.725" y2="117.804"/>
				
					<line fill="none" stroke="#00ABEB" stroke-width="0.3" stroke-miterlimit="10" x1="-176.331" y1="90.937" x2="259.725" y2="90.937"/>
				
					<line fill="none" stroke="#00ABEB" stroke-width="0.3" stroke-miterlimit="10" x1="-176.331" y1="64.07" x2="259.725" y2="64.07"/>
				
					<line fill="none" stroke="#00ABEB" stroke-width="0.3" stroke-miterlimit="10" x1="-176.331" y1="37.202" x2="259.725" y2="37.202"/>
				
					<line fill="none" stroke="#00ABEB" stroke-width="0.3" stroke-miterlimit="10" x1="-176.331" y1="10.334" x2="259.725" y2="10.334"/>
				
					<line fill="none" stroke="#00ABEB" stroke-width="0.3" stroke-miterlimit="10" x1="-176.331" y1="-16.533" x2="259.725" y2="-16.533"/>
				
					<line fill="none" stroke="#00ABEB" stroke-width="0.3" stroke-miterlimit="10" x1="-176.331" y1="-43.399" x2="259.725" y2="-43.399"/>
			</g>
			<g id="Vertical_5_mm">
				
					<line fill="none" stroke="#00ABEB" stroke-width="0.3" stroke-miterlimit="10" x1="-175.658" y1="225.247" x2="-175.658" y2="-97.799"/>
				
					<line fill="none" stroke="#00ABEB" stroke-width="0.3" stroke-miterlimit="10" x1="-148.447" y1="225.247" x2="-148.447" y2="-97.799"/>
				
					<line fill="none" stroke="#00ABEB" stroke-width="0.3" stroke-miterlimit="10" x1="-121.235" y1="225.247" x2="-121.235" y2="-97.799"/>
				
					<line fill="none" stroke="#00ABEB" stroke-width="0.3" stroke-miterlimit="10" x1="-94.023" y1="225.247" x2="-94.023" y2="-97.799"/>
				
					<line fill="none" stroke="#00ABEB" stroke-width="0.3" stroke-miterlimit="10" x1="-66.81" y1="225.247" x2="-66.81" y2="-97.799"/>
				
					<line fill="none" stroke="#00ABEB" stroke-width="0.3" stroke-miterlimit="10" x1="-39.597" y1="225.247" x2="-39.597" y2="-97.799"/>
				
					<line fill="none" stroke="#00ABEB" stroke-width="0.3" stroke-miterlimit="10" x1="-12.386" y1="225.247" x2="-12.386" y2="-97.799"/>
				
					<line fill="none" stroke="#00ABEB" stroke-width="0.3" stroke-miterlimit="10" x1="14.825" y1="225.247" x2="14.825" y2="-97.799"/>
				
					<line fill="none" stroke="#00ABEB" stroke-width="0.3" stroke-miterlimit="10" x1="42.037" y1="225.247" x2="42.037" y2="-97.799"/>
				
					<line fill="none" stroke="#00ABEB" stroke-width="0.3" stroke-miterlimit="10" x1="69.251" y1="225.247" x2="69.251" y2="-97.799"/>
				
					<line fill="none" stroke="#00ABEB" stroke-width="0.3" stroke-miterlimit="10" x1="96.463" y1="225.247" x2="96.463" y2="-97.799"/>
				
					<line fill="none" stroke="#00ABEB" stroke-width="0.3" stroke-miterlimit="10" x1="123.674" y1="225.247" x2="123.674" y2="-97.799"/>
				
					<line fill="none" stroke="#00ABEB" stroke-width="0.3" stroke-miterlimit="10" x1="150.886" y1="225.247" x2="150.886" y2="-97.799"/>
				
					<line fill="none" stroke="#00ABEB" stroke-width="0.3" stroke-miterlimit="10" x1="178.1" y1="225.247" x2="178.1" y2="-97.799"/>
				
					<line fill="none" stroke="#00ABEB" stroke-width="0.3" stroke-miterlimit="10" x1="205.311" y1="225.247" x2="205.311" y2="-97.799"/>
				
					<line fill="none" stroke="#00ABEB" stroke-width="0.3" stroke-miterlimit="10" x1="232.523" y1="225.247" x2="232.523" y2="-97.799"/>
				
					<line fill="none" stroke="#00ABEB" stroke-width="0.3" stroke-miterlimit="10" x1="259.735" y1="225.247" x2="259.735" y2="-97.799"/>
			</g>
			<g id="Horizontal_10_mm">
				
					<line id="_x31_9_1_" fill="none" stroke="#00ABEB" stroke-width="0.7" stroke-miterlimit="10" x1="-176.331" y1="225.273" x2="259.725" y2="225.273"/>
				
					<line id="_x32_0" fill="none" stroke="#00ABEB" stroke-width="0.7" stroke-miterlimit="10" x1="-176.331" y1="171.539" x2="259.725" y2="171.539"/>
				
					<line id="_x32_1" fill="none" stroke="#00ABEB" stroke-width="0.7" stroke-miterlimit="10" x1="-176.331" y1="117.804" x2="259.725" y2="117.804"/>
				
					<line id="_x32_2" fill="none" stroke="#00ABEB" stroke-width="0.7" stroke-miterlimit="10" x1="-176.331" y1="64.07" x2="259.725" y2="64.07"/>
				
					<line id="_x32_3" fill="none" stroke="#00ABEB" stroke-width="0.7" stroke-miterlimit="10" x1="-176.331" y1="10.334" x2="259.725" y2="10.334"/>
				
					<line id="_x32_4" fill="none" stroke="#00ABEB" stroke-width="0.7" stroke-miterlimit="10" x1="-176.331" y1="-43.399" x2="259.725" y2="-43.399"/>
				
					<line id="_x32_5" fill="none" stroke="#00ABEB" stroke-width="0.7" stroke-miterlimit="10" x1="-176.331" y1="-97.135" x2="259.725" y2="-97.135"/>
			</g>
			<g id="Vertical_10_mm">
				
					<line id="_x30_" fill="none" stroke="#00ABEB" stroke-width="0.7" stroke-miterlimit="10" x1="-175.658" y1="225.247" x2="-175.658" y2="-97.799"/>
				
					<line id="_x31_" fill="none" stroke="#00ABEB" stroke-width="0.7" stroke-miterlimit="10" x1="-121.235" y1="225.247" x2="-121.235" y2="-97.799"/>
				
					<line id="_x32_" fill="none" stroke="#00ABEB" stroke-width="0.7" stroke-miterlimit="10" x1="-66.81" y1="225.247" x2="-66.81" y2="-97.799"/>
				
					<line id="_x33_" fill="none" stroke="#00ABEB" stroke-width="0.7" stroke-miterlimit="10" x1="-12.386" y1="225.247" x2="-12.386" y2="-97.799"/>
				
					<line id="_x34_" fill="none" stroke="#00ABEB" stroke-width="0.7" stroke-miterlimit="10" x1="42.037" y1="225.247" x2="42.037" y2="-97.799"/>
				
					<line id="_x35_" fill="none" stroke="#00ABEB" stroke-width="0.7" stroke-miterlimit="10" x1="96.463" y1="225.247" x2="96.463" y2="-97.799"/>
				
					<line id="_x36_" fill="none" stroke="#00ABEB" stroke-width="0.7" stroke-miterlimit="10" x1="150.886" y1="225.247" x2="150.886" y2="-97.799"/>
				
					<line id="_x37_" fill="none" stroke="#00ABEB" stroke-width="0.7" stroke-miterlimit="10" x1="205.311" y1="225.247" x2="205.311" y2="-97.799"/>
				
					<line id="_x38_" fill="none" stroke="#00ABEB" stroke-width="0.7" stroke-miterlimit="10" x1="259.735" y1="225.247" x2="259.735" y2="-97.799"/>
			</g>
		</g>
	</g>
</g>
<g id="Layer_3">
	<path fill="none" stroke="#FF0000" stroke-width="0.7" stroke-linecap="round" stroke-linejoin="round" stroke-miterlimit="10" d="
		M1.84,83.558c30.331-53.006,94.622-12.81,133.252-80.319"/>
	<g>
		<g>
			
				<line fill="none" stroke="#0000FF" stroke-width="0.6" stroke-linecap="round" stroke-linejoin="round" x1="91.019" y1="41.966" x2="104.143" y2="10.395"/>
			<g>
				<polygon fill="#0000FF" points="105.646,13.173 105.083,13.382 104.055,10.608 101.363,11.836 101.114,11.289 104.393,9.794 
									"/>
			</g>
		</g>
	</g>
	<g>
		<g>
			
				<line fill="none" stroke="#00B200" stroke-width="0.8" stroke-linecap="round" stroke-linejoin="round" x1="91.019" y1="41.966" x2="106.215" y2="34.374"/>
			<g>
				<polygon fill="#00B200" points="105.306,38.486 104.556,38.205 105.941,34.512 102.156,33.4 102.382,32.632 106.992,33.987 				
					"/>
			</g>
		</g>
	</g>
	<g>
		<path fill="#00B200" d="M102.221,46.692l4.797-8.012h0.312l1.583,8.012H102.221z M106.49,40.383l-3.058,5.181h4.102L106.49,40.383
			z"/>
		<path fill="#00B200" d="M112.239,43.597c0.228-0.504,0.636-1.14,1.127-1.655c0.312-0.324,0.671-0.54,0.947-0.54
			c0.336,0,0.564,0.252,0.564,0.612s-0.204,0.647-0.564,0.647c-0.216,0-0.312-0.132-0.419-0.312
			c-0.072-0.12-0.108-0.168-0.192-0.168c-0.216,0-0.552,0.396-0.983,1.127c-0.516,0.888-0.732,1.368-1.332,3.382h-0.912l0.972-3.502
			c0.168-0.624,0.192-0.732,0.192-0.983c0-0.252-0.216-0.312-0.456-0.312c-0.096,0-0.192,0.012-0.372,0.036v-0.204l1.859-0.324
			l0.036,0.024l-0.66,2.591L112.239,43.597z"/>
	</g>
	<g>
		<path fill="#0000FF" d="M98.576,7.989l-0.252-0.024C98.36,7.702,98.36,7.642,98.36,7.57c0-0.875-0.276-1.032-2.387-1.032
			c-0.552,0-0.732,0.072-0.815,0.384L94.39,9.645c2.015-0.024,2.051-0.048,2.59-1.127l0.216,0.06l-0.912,2.818l-0.204-0.06
			c0.072-0.372,0.096-0.54,0.096-0.731c0-0.48-0.335-0.528-0.899-0.528c-0.264,0-0.552-0.012-0.996-0.036l-0.708,2.554
			c-0.084,0.3-0.168,0.54-0.168,0.72c0,0.288,0.216,0.42,0.924,0.468v0.192h-3.01v-0.192c0.695-0.048,0.815-0.312,0.995-0.936
			l1.475-5.301c0.084-0.3,0.12-0.54,0.12-0.731c0-0.336-0.12-0.408-0.912-0.479V6.143h5.961L98.576,7.989z"/>
	</g>
	<g>
		<g>
			
				<line fill="none" stroke="#0000FF" stroke-width="0.5" stroke-linecap="round" stroke-linejoin="round" x1="92.54" y1="3.828" x2="98.421" y2="3.828"/>
			<g>
				<polygon fill="#0000FF" points="96.765,5.873 96.424,5.507 98.229,3.829 96.424,2.15 96.765,1.784 98.964,3.829 				"/>
			</g>
		</g>
	</g>
	<g>
		<g>
			
				<line fill="none" stroke="#00B200" stroke-width="0.5" stroke-linecap="round" stroke-linejoin="round" x1="110.494" y1="39.387" x2="114.82" y2="39.387"/>
			<g>
				<polygon fill="#00B200" points="113.163,41.431 112.822,41.065 114.628,39.387 112.822,37.708 113.163,37.342 115.362,39.387 
									"/>
			</g>
		</g>
	</g>
	<g>
		<g>
			
				<line fill="none" stroke="#0000FF" stroke-width="0.6" stroke-linecap="round" stroke-linejoin="round" x1="24.478" y1="60.837" x2="11.425" y2="39.938"/>
			<g>
				<polygon fill="#0000FF" points="14.559,40.325 14.403,40.905 11.547,40.133 10.986,43.039 10.397,42.924 11.08,39.386 				"/>
			</g>
		</g>
	</g>
	<g>
		<g>
			
				<line fill="none" stroke="#00B200" stroke-width="0.8" stroke-linecap="round" stroke-linejoin="round" x1="24.478" y1="60.837" x2="38.483" y2="55.096"/>
			<g>
				<polygon fill="#00B200" points="37.271,59.129 36.544,58.794 38.199,55.214 34.507,53.824 34.789,53.075 39.286,54.768 				"/>
			</g>
		</g>
	</g>
	<g>
		<g>
			
				<line fill="none" stroke="#0000FF" stroke-width="0.6" stroke-linecap="round" stroke-linejoin="round" x1="61.995" y1="49.565" x2="63.477" y2="18.685"/>
			<g>
				<polygon fill="#0000FF" points="65.833,20.788 65.374,21.176 63.466,18.915 61.35,20.983 60.931,20.553 63.509,18.035 				"/>
			</g>
		</g>
	</g>
	<g>
		<g>
			
				<line fill="none" stroke="#00B200" stroke-width="0.8" stroke-linecap="round" stroke-linejoin="round" x1="61.995" y1="49.565" x2="78.237" y2="45.909"/>
			<g>
				<polygon fill="#00B200" points="76.369,49.683 75.708,49.231 77.937,45.977 74.529,43.991 74.932,43.3 79.083,45.719 				"/>
			</g>
		</g>
	</g>
	<g>
		<path fill="#FF0000" d="M53.919,56.831l-0.216-0.036c-0.144-1.283-0.732-1.955-1.787-1.955c-0.888,0-1.727,0.456-2.387,1.163
			c-0.864,0.924-1.295,2.291-1.295,3.61c0,1.679,0.768,2.458,2.099,2.458c0.983,0,1.703-0.348,2.746-1.427l0.216,0.18
			c-1.079,1.271-2.039,1.787-3.274,1.787c-1.835,0-3.13-1.151-3.13-3.13c0-1.691,0.923-3.262,2.243-4.198
			c0.768-0.551,1.679-0.875,2.626-0.875c0.396,0,0.9,0.024,1.403,0.204c0.24,0.084,0.384,0.084,0.492,0.084
			c0.24,0,0.36-0.072,0.456-0.264h0.252L53.919,56.831z"/>
	</g>
</g>
<g id="axis" display="none">
	<g display="inline">
		<g>
			<line fill="none" stroke="#262626" stroke-width="0.5" x1="42.184" y1="177.423" x2="42.184" y2="-44.721"/>
			<g>
				<polygon fill="#262626" points="44.036,-43.316 42.184,-44.103 40.332,-43.316 42.184,-47.706 				"/>
			</g>
		</g>
	</g>
	<g display="inline">
		<g>
			<line fill="none" stroke="#262626" stroke-width="0.5" x1="-70.16" y1="63.624" x2="157.432" y2="63.624"/>
			<g>
				<polygon fill="#262626" points="156.028,65.475 156.815,63.624 156.028,61.772 160.417,63.624 				"/>
			</g>
		</g>
	</g>
	<g display="inline" enable-background="new    ">
		<path fill="#262626" d="M34.913-46.625c1.448-2.401,2.078-3.627,2.078-4.376c0-0.239-0.119-0.341-0.443-0.545
			c-0.34-0.222-0.442-0.392-0.442-0.665c0-0.375,0.29-0.63,0.682-0.63c0.511,0,0.885,0.426,0.885,0.937
			c0,0.971-0.817,2.844-2.23,5.194c-1.771,2.929-3.593,4.887-4.563,4.887c-0.511,0-0.869-0.29-0.869-0.732
			c0-0.375,0.29-0.681,0.665-0.681c0.596,0,0.596,0.477,1.038,0.477c0.222,0,0.426-0.136,0.817-0.562
			c0.307-0.323,1.073-1.328,1.209-1.549c0.103-0.205,0.171-0.409,0.171-0.596c0-0.681-0.937-4.496-1.396-5.654
			c-0.324-0.834-0.63-1.09-1.312-1.09c-0.188,0-0.341,0.017-0.527,0.068v-0.29c0.187-0.034,0.374-0.068,0.545-0.102
			c0.34-0.068,0.902-0.17,1.821-0.307h0.068c0.256,0,1.158,2.827,1.447,4.342L34.913-46.625z"/>
	</g>
	<g display="inline" enable-background="new    ">
		<path fill="#262626" d="M160.338,69.065c1.192-1.822,1.822-2.436,2.571-2.436c0.409,0,0.698,0.256,0.698,0.63
			c0,0.357-0.238,0.613-0.579,0.613c-0.323,0-0.477-0.289-0.885-0.289c-0.307,0-0.92,0.749-1.669,2.06
			c0,0.12,0.034,0.358,0.136,0.767l0.545,2.282c0.119,0.477,0.272,0.698,0.511,0.698c0.222,0,0.409-0.171,0.801-0.682
			c0.153-0.204,0.222-0.307,0.357-0.477l0.256,0.153c-0.988,1.532-1.431,1.941-2.078,1.941c-0.545,0-0.8-0.307-1.004-1.158
			l-0.494-2.026l-1.499,2.026c-0.749,1.005-1.09,1.158-1.617,1.158c-0.528,0-0.852-0.272-0.852-0.716
			c0-0.34,0.238-0.612,0.579-0.612c0.153,0,0.323,0.067,0.545,0.188c0.17,0.102,0.341,0.152,0.442,0.152
			c0.188,0,0.511-0.323,0.869-0.834l1.396-1.976l-0.477-2.111c-0.238-1.021-0.357-1.158-0.783-1.158
			c-0.136,0-0.341,0.034-0.664,0.119l-0.307,0.085l-0.051-0.271l0.188-0.068c1.038-0.375,1.601-0.494,1.992-0.494
			c0.426,0,0.63,0.307,0.868,1.465L160.338,69.065z"/>
	</g>
</g>
</svg>
