<?xml version="1.0" encoding="utf-8"?>
<!-- Generator: Adobe Illustrator 25.4.1, SVG Export Plug-In . SVG Version: 6.00 Build 0)  -->
<svg version="1.1" xmlns="http://www.w3.org/2000/svg" xmlns:xlink="http://www.w3.org/1999/xlink" x="0px" y="0px"
	 viewBox="0 0 89.89 60.079" enable-background="new 0 0 89.89 60.079" xml:space="preserve">
<g id="Layer_2" opacity="0.5">
	<g id="Clipped_grid">
		<defs>
			<rect id="SVGID_1_" x="-155.595" y="-48.362" width="251.19" height="254.581"/>
		</defs>
		<clipPath id="SVGID_00000165931631230438409930000000604311716023299494_">
			<use xlink:href="#SVGID_1_"  overflow="visible"/>
		</clipPath>
		<g id="Grid" opacity="0.25" clip-path="url(#SVGID_00000165931631230438409930000000604311716023299494_)">
			<g id="Horizontal_1_mm">
				
					<line fill="none" stroke="#00ABEB" stroke-width="0.15" stroke-miterlimit="10" x1="-252.257" y1="-75.228" x2="183.271" y2="-75.228"/>
				
					<line fill="none" stroke="#00ABEB" stroke-width="0.15" stroke-miterlimit="10" x1="-252.257" y1="-80.602" x2="183.271" y2="-80.602"/>
				
					<line fill="none" stroke="#00ABEB" stroke-width="0.15" stroke-miterlimit="10" x1="-252.257" y1="241.805" x2="183.271" y2="241.805"/>
				
					<line fill="none" stroke="#00ABEB" stroke-width="0.15" stroke-miterlimit="10" x1="-252.257" y1="236.431" x2="183.271" y2="236.431"/>
				
					<line fill="none" stroke="#00ABEB" stroke-width="0.15" stroke-miterlimit="10" x1="-252.257" y1="231.059" x2="183.271" y2="231.059"/>
				
					<line fill="none" stroke="#00ABEB" stroke-width="0.15" stroke-miterlimit="10" x1="-252.257" y1="225.685" x2="183.271" y2="225.685"/>
				
					<line fill="none" stroke="#00ABEB" stroke-width="0.15" stroke-miterlimit="10" x1="-252.257" y1="220.311" x2="183.271" y2="220.311"/>
				
					<line fill="none" stroke="#00ABEB" stroke-width="0.15" stroke-miterlimit="10" x1="-252.257" y1="214.939" x2="183.271" y2="214.939"/>
				
					<line fill="none" stroke="#00ABEB" stroke-width="0.15" stroke-miterlimit="10" x1="-252.257" y1="209.565" x2="183.271" y2="209.565"/>
				
					<line fill="none" stroke="#00ABEB" stroke-width="0.15" stroke-miterlimit="10" x1="-252.257" y1="204.193" x2="183.271" y2="204.193"/>
				
					<line fill="none" stroke="#00ABEB" stroke-width="0.15" stroke-miterlimit="10" x1="-252.257" y1="198.818" x2="183.271" y2="198.818"/>
				
					<line fill="none" stroke="#00ABEB" stroke-width="0.15" stroke-miterlimit="10" x1="-252.257" y1="193.444" x2="183.271" y2="193.444"/>
				
					<line fill="none" stroke="#00ABEB" stroke-width="0.15" stroke-miterlimit="10" x1="-252.257" y1="188.071" x2="183.271" y2="188.071"/>
				
					<line fill="none" stroke="#00ABEB" stroke-width="0.15" stroke-miterlimit="10" x1="-252.257" y1="182.697" x2="183.271" y2="182.697"/>
				
					<line fill="none" stroke="#00ABEB" stroke-width="0.15" stroke-miterlimit="10" x1="-252.257" y1="177.323" x2="183.271" y2="177.323"/>
				
					<line fill="none" stroke="#00ABEB" stroke-width="0.15" stroke-miterlimit="10" x1="-252.257" y1="171.951" x2="183.271" y2="171.951"/>
				
					<line fill="none" stroke="#00ABEB" stroke-width="0.15" stroke-miterlimit="10" x1="-252.257" y1="166.577" x2="183.271" y2="166.577"/>
				
					<line fill="none" stroke="#00ABEB" stroke-width="0.15" stroke-miterlimit="10" x1="-252.257" y1="161.203" x2="183.271" y2="161.203"/>
				
					<line fill="none" stroke="#00ABEB" stroke-width="0.15" stroke-miterlimit="10" x1="-252.257" y1="155.831" x2="183.271" y2="155.831"/>
				
					<line fill="none" stroke="#00ABEB" stroke-width="0.15" stroke-miterlimit="10" x1="-252.257" y1="150.457" x2="183.271" y2="150.457"/>
				
					<line fill="none" stroke="#00ABEB" stroke-width="0.15" stroke-miterlimit="10" x1="-252.257" y1="145.083" x2="183.271" y2="145.083"/>
				
					<line fill="none" stroke="#00ABEB" stroke-width="0.15" stroke-miterlimit="10" x1="-252.257" y1="139.711" x2="183.271" y2="139.711"/>
				
					<line fill="none" stroke="#00ABEB" stroke-width="0.15" stroke-miterlimit="10" x1="-252.257" y1="134.336" x2="183.271" y2="134.336"/>
				
					<line fill="none" stroke="#00ABEB" stroke-width="0.15" stroke-miterlimit="10" x1="-252.257" y1="128.962" x2="183.271" y2="128.962"/>
				
					<line fill="none" stroke="#00ABEB" stroke-width="0.15" stroke-miterlimit="10" x1="-252.257" y1="123.589" x2="183.271" y2="123.589"/>
				
					<line fill="none" stroke="#00ABEB" stroke-width="0.15" stroke-miterlimit="10" x1="-252.257" y1="118.215" x2="183.271" y2="118.215"/>
				
					<line fill="none" stroke="#00ABEB" stroke-width="0.15" stroke-miterlimit="10" x1="-252.257" y1="112.843" x2="183.271" y2="112.843"/>
				
					<line fill="none" stroke="#00ABEB" stroke-width="0.15" stroke-miterlimit="10" x1="-252.257" y1="107.469" x2="183.271" y2="107.469"/>
				
					<line fill="none" stroke="#00ABEB" stroke-width="0.15" stroke-miterlimit="10" x1="-252.257" y1="102.095" x2="183.271" y2="102.095"/>
				
					<line fill="none" stroke="#00ABEB" stroke-width="0.15" stroke-miterlimit="10" x1="-252.257" y1="96.723" x2="183.271" y2="96.723"/>
				
					<line fill="none" stroke="#00ABEB" stroke-width="0.15" stroke-miterlimit="10" x1="-252.257" y1="91.349" x2="183.271" y2="91.349"/>
				
					<line fill="none" stroke="#00ABEB" stroke-width="0.15" stroke-miterlimit="10" x1="-252.257" y1="85.975" x2="183.271" y2="85.975"/>
				
					<line fill="none" stroke="#00ABEB" stroke-width="0.15" stroke-miterlimit="10" x1="-252.257" y1="80.602" x2="183.271" y2="80.602"/>
				
					<line fill="none" stroke="#00ABEB" stroke-width="0.15" stroke-miterlimit="10" x1="-252.257" y1="75.228" x2="183.271" y2="75.228"/>
				
					<line fill="none" stroke="#00ABEB" stroke-width="0.15" stroke-miterlimit="10" x1="-252.257" y1="69.854" x2="183.271" y2="69.854"/>
				
					<line fill="none" stroke="#00ABEB" stroke-width="0.15" stroke-miterlimit="10" x1="-252.257" y1="64.482" x2="183.271" y2="64.482"/>
				
					<line fill="none" stroke="#00ABEB" stroke-width="0.15" stroke-miterlimit="10" x1="-252.257" y1="59.108" x2="183.271" y2="59.108"/>
				
					<line fill="none" stroke="#00ABEB" stroke-width="0.15" stroke-miterlimit="10" x1="-252.257" y1="53.734" x2="183.271" y2="53.734"/>
				
					<line fill="none" stroke="#00ABEB" stroke-width="0.15" stroke-miterlimit="10" x1="-252.257" y1="48.362" x2="183.271" y2="48.362"/>
				
					<line fill="none" stroke="#00ABEB" stroke-width="0.15" stroke-miterlimit="10" x1="-252.257" y1="42.988" x2="183.271" y2="42.988"/>
				
					<line fill="none" stroke="#00ABEB" stroke-width="0.15" stroke-miterlimit="10" x1="-252.257" y1="37.614" x2="183.271" y2="37.614"/>
				
					<line fill="none" stroke="#00ABEB" stroke-width="0.15" stroke-miterlimit="10" x1="-252.257" y1="32.242" x2="183.271" y2="32.242"/>
				
					<line fill="none" stroke="#00ABEB" stroke-width="0.15" stroke-miterlimit="10" x1="-252.257" y1="26.866" x2="183.271" y2="26.866"/>
				
					<line fill="none" stroke="#00ABEB" stroke-width="0.15" stroke-miterlimit="10" x1="-252.257" y1="21.494" x2="183.271" y2="21.494"/>
				
					<line fill="none" stroke="#00ABEB" stroke-width="0.15" stroke-miterlimit="10" x1="-252.257" y1="16.12" x2="183.271" y2="16.12"/>
				
					<line fill="none" stroke="#00ABEB" stroke-width="0.15" stroke-miterlimit="10" x1="-252.257" y1="10.746" x2="183.271" y2="10.746"/>
				
					<line fill="none" stroke="#00ABEB" stroke-width="0.15" stroke-miterlimit="10" x1="-252.257" y1="5.374" x2="183.271" y2="5.374"/>
				<line fill="none" stroke="#00ABEB" stroke-width="0.15" stroke-miterlimit="10" x1="-252.257" y1="0" x2="183.271" y2="0"/>
				
					<line fill="none" stroke="#00ABEB" stroke-width="0.15" stroke-miterlimit="10" x1="-252.257" y1="-5.374" x2="183.271" y2="-5.374"/>
				
					<line fill="none" stroke="#00ABEB" stroke-width="0.15" stroke-miterlimit="10" x1="-252.257" y1="-10.746" x2="183.271" y2="-10.746"/>
				
					<line fill="none" stroke="#00ABEB" stroke-width="0.15" stroke-miterlimit="10" x1="-252.257" y1="-16.12" x2="183.271" y2="-16.12"/>
				
					<line fill="none" stroke="#00ABEB" stroke-width="0.15" stroke-miterlimit="10" x1="-252.257" y1="-21.494" x2="183.271" y2="-21.494"/>
				
					<line fill="none" stroke="#00ABEB" stroke-width="0.15" stroke-miterlimit="10" x1="-252.257" y1="-26.867" x2="183.271" y2="-26.867"/>
				
					<line fill="none" stroke="#00ABEB" stroke-width="0.15" stroke-miterlimit="10" x1="-252.257" y1="-32.241" x2="183.271" y2="-32.241"/>
				
					<line fill="none" stroke="#00ABEB" stroke-width="0.15" stroke-miterlimit="10" x1="-252.257" y1="-37.615" x2="183.271" y2="-37.615"/>
				
					<line fill="none" stroke="#00ABEB" stroke-width="0.15" stroke-miterlimit="10" x1="-252.257" y1="-42.987" x2="183.271" y2="-42.987"/>
				
					<line fill="none" stroke="#00ABEB" stroke-width="0.15" stroke-miterlimit="10" x1="-252.257" y1="-48.362" x2="183.271" y2="-48.362"/>
				
					<line fill="none" stroke="#00ABEB" stroke-width="0.15" stroke-miterlimit="10" x1="-252.257" y1="-53.734" x2="183.271" y2="-53.734"/>
				
					<line fill="none" stroke="#00ABEB" stroke-width="0.15" stroke-miterlimit="10" x1="-252.257" y1="-59.108" x2="183.271" y2="-59.108"/>
				
					<line fill="none" stroke="#00ABEB" stroke-width="0.15" stroke-miterlimit="10" x1="-252.257" y1="-64.482" x2="183.271" y2="-64.482"/>
				
					<line fill="none" stroke="#00ABEB" stroke-width="0.15" stroke-miterlimit="10" x1="-252.257" y1="-69.854" x2="183.271" y2="-69.854"/>
			</g>
			<g id="Vertical_1_mm">
				<g>
					
						<line fill="none" stroke="#00ABEB" stroke-width="0.15" stroke-miterlimit="10" x1="-252.112" y1="241.779" x2="-252.112" y2="-80.745"/>
				</g>
				
					<line fill="none" stroke="#00ABEB" stroke-width="0.15" stroke-miterlimit="10" x1="-246.671" y1="241.779" x2="-246.671" y2="-80.745"/>
				
					<line fill="none" stroke="#00ABEB" stroke-width="0.15" stroke-miterlimit="10" x1="-241.228" y1="241.779" x2="-241.228" y2="-80.745"/>
				
					<line fill="none" stroke="#00ABEB" stroke-width="0.15" stroke-miterlimit="10" x1="-235.785" y1="241.779" x2="-235.785" y2="-80.745"/>
				
					<line fill="none" stroke="#00ABEB" stroke-width="0.15" stroke-miterlimit="10" x1="-230.344" y1="241.779" x2="-230.344" y2="-80.745"/>
				
					<line fill="none" stroke="#00ABEB" stroke-width="0.15" stroke-miterlimit="10" x1="-224.901" y1="241.779" x2="-224.901" y2="-80.745"/>
				
					<line fill="none" stroke="#00ABEB" stroke-width="0.15" stroke-miterlimit="10" x1="-219.458" y1="241.779" x2="-219.458" y2="-80.745"/>
				
					<line fill="none" stroke="#00ABEB" stroke-width="0.15" stroke-miterlimit="10" x1="-214.017" y1="241.779" x2="-214.017" y2="-80.745"/>
				
					<line fill="none" stroke="#00ABEB" stroke-width="0.15" stroke-miterlimit="10" x1="-208.573" y1="241.779" x2="-208.573" y2="-80.745"/>
				
					<line fill="none" stroke="#00ABEB" stroke-width="0.15" stroke-miterlimit="10" x1="-203.132" y1="241.779" x2="-203.132" y2="-80.745"/>
				
					<line fill="none" stroke="#00ABEB" stroke-width="0.15" stroke-miterlimit="10" x1="-197.689" y1="241.779" x2="-197.689" y2="-80.745"/>
				
					<line fill="none" stroke="#00ABEB" stroke-width="0.15" stroke-miterlimit="10" x1="-192.246" y1="241.779" x2="-192.246" y2="-80.745"/>
				
					<line fill="none" stroke="#00ABEB" stroke-width="0.15" stroke-miterlimit="10" x1="-186.804" y1="241.779" x2="-186.804" y2="-80.745"/>
				
					<line fill="none" stroke="#00ABEB" stroke-width="0.15" stroke-miterlimit="10" x1="-181.361" y1="241.779" x2="-181.361" y2="-80.745"/>
				
					<line fill="none" stroke="#00ABEB" stroke-width="0.15" stroke-miterlimit="10" x1="-175.918" y1="241.779" x2="-175.918" y2="-80.745"/>
				
					<line fill="none" stroke="#00ABEB" stroke-width="0.15" stroke-miterlimit="10" x1="-170.477" y1="241.779" x2="-170.477" y2="-80.745"/>
				
					<line fill="none" stroke="#00ABEB" stroke-width="0.15" stroke-miterlimit="10" x1="-165.034" y1="241.779" x2="-165.034" y2="-80.745"/>
				
					<line fill="none" stroke="#00ABEB" stroke-width="0.15" stroke-miterlimit="10" x1="-159.591" y1="241.779" x2="-159.591" y2="-80.745"/>
				
					<line fill="none" stroke="#00ABEB" stroke-width="0.15" stroke-miterlimit="10" x1="-154.15" y1="241.779" x2="-154.15" y2="-80.745"/>
				
					<line fill="none" stroke="#00ABEB" stroke-width="0.15" stroke-miterlimit="10" x1="-148.707" y1="241.779" x2="-148.707" y2="-80.745"/>
				
					<line fill="none" stroke="#00ABEB" stroke-width="0.15" stroke-miterlimit="10" x1="-143.264" y1="241.779" x2="-143.264" y2="-80.745"/>
				
					<line fill="none" stroke="#00ABEB" stroke-width="0.15" stroke-miterlimit="10" x1="-137.823" y1="241.779" x2="-137.823" y2="-80.745"/>
				
					<line fill="none" stroke="#00ABEB" stroke-width="0.15" stroke-miterlimit="10" x1="-132.38" y1="241.779" x2="-132.38" y2="-80.745"/>
				
					<line fill="none" stroke="#00ABEB" stroke-width="0.15" stroke-miterlimit="10" x1="-126.937" y1="241.779" x2="-126.937" y2="-80.745"/>
				
					<line fill="none" stroke="#00ABEB" stroke-width="0.15" stroke-miterlimit="10" x1="-121.494" y1="241.779" x2="-121.494" y2="-80.745"/>
				
					<line fill="none" stroke="#00ABEB" stroke-width="0.15" stroke-miterlimit="10" x1="-116.051" y1="241.779" x2="-116.051" y2="-80.745"/>
				
					<line fill="none" stroke="#00ABEB" stroke-width="0.15" stroke-miterlimit="10" x1="-110.61" y1="241.779" x2="-110.61" y2="-80.745"/>
				
					<line fill="none" stroke="#00ABEB" stroke-width="0.15" stroke-miterlimit="10" x1="-105.167" y1="241.779" x2="-105.167" y2="-80.745"/>
				
					<line fill="none" stroke="#00ABEB" stroke-width="0.15" stroke-miterlimit="10" x1="-99.724" y1="241.779" x2="-99.724" y2="-80.745"/>
				
					<line fill="none" stroke="#00ABEB" stroke-width="0.15" stroke-miterlimit="10" x1="-94.283" y1="241.779" x2="-94.283" y2="-80.745"/>
				
					<line fill="none" stroke="#00ABEB" stroke-width="0.15" stroke-miterlimit="10" x1="-88.84" y1="241.779" x2="-88.84" y2="-80.745"/>
				
					<line fill="none" stroke="#00ABEB" stroke-width="0.15" stroke-miterlimit="10" x1="-83.397" y1="241.779" x2="-83.397" y2="-80.745"/>
				
					<line fill="none" stroke="#00ABEB" stroke-width="0.15" stroke-miterlimit="10" x1="-77.956" y1="241.779" x2="-77.956" y2="-80.745"/>
				
					<line fill="none" stroke="#00ABEB" stroke-width="0.15" stroke-miterlimit="10" x1="-72.513" y1="241.779" x2="-72.513" y2="-80.745"/>
				
					<line fill="none" stroke="#00ABEB" stroke-width="0.15" stroke-miterlimit="10" x1="-67.07" y1="241.779" x2="-67.07" y2="-80.745"/>
				
					<line fill="none" stroke="#00ABEB" stroke-width="0.15" stroke-miterlimit="10" x1="-61.629" y1="241.779" x2="-61.629" y2="-80.745"/>
				
					<line fill="none" stroke="#00ABEB" stroke-width="0.15" stroke-miterlimit="10" x1="-56.186" y1="241.779" x2="-56.186" y2="-80.745"/>
				
					<line fill="none" stroke="#00ABEB" stroke-width="0.15" stroke-miterlimit="10" x1="-50.742" y1="241.779" x2="-50.742" y2="-80.745"/>
				
					<line fill="none" stroke="#00ABEB" stroke-width="0.15" stroke-miterlimit="10" x1="-45.301" y1="241.779" x2="-45.301" y2="-80.745"/>
				
					<line fill="none" stroke="#00ABEB" stroke-width="0.15" stroke-miterlimit="10" x1="-39.858" y1="241.779" x2="-39.858" y2="-80.745"/>
				
					<line fill="none" stroke="#00ABEB" stroke-width="0.15" stroke-miterlimit="10" x1="-34.417" y1="241.779" x2="-34.417" y2="-80.745"/>
				
					<line fill="none" stroke="#00ABEB" stroke-width="0.15" stroke-miterlimit="10" x1="-28.973" y1="241.779" x2="-28.973" y2="-80.745"/>
				
					<line fill="none" stroke="#00ABEB" stroke-width="0.15" stroke-miterlimit="10" x1="-23.53" y1="241.779" x2="-23.53" y2="-80.745"/>
				
					<line fill="none" stroke="#00ABEB" stroke-width="0.15" stroke-miterlimit="10" x1="-18.089" y1="241.779" x2="-18.089" y2="-80.745"/>
				
					<line fill="none" stroke="#00ABEB" stroke-width="0.15" stroke-miterlimit="10" x1="-12.646" y1="241.779" x2="-12.646" y2="-80.745"/>
				
					<line fill="none" stroke="#00ABEB" stroke-width="0.15" stroke-miterlimit="10" x1="-7.203" y1="241.779" x2="-7.203" y2="-80.745"/>
				
					<line fill="none" stroke="#00ABEB" stroke-width="0.15" stroke-miterlimit="10" x1="-1.762" y1="241.779" x2="-1.762" y2="-80.745"/>
				
					<line fill="none" stroke="#00ABEB" stroke-width="0.15" stroke-miterlimit="10" x1="3.681" y1="241.779" x2="3.681" y2="-80.745"/>
				
					<line fill="none" stroke="#00ABEB" stroke-width="0.15" stroke-miterlimit="10" x1="9.124" y1="241.779" x2="9.124" y2="-80.745"/>
				
					<line fill="none" stroke="#00ABEB" stroke-width="0.15" stroke-miterlimit="10" x1="14.565" y1="241.779" x2="14.565" y2="-80.745"/>
				
					<line fill="none" stroke="#00ABEB" stroke-width="0.15" stroke-miterlimit="10" x1="20.009" y1="241.779" x2="20.009" y2="-80.745"/>
				
					<line fill="none" stroke="#00ABEB" stroke-width="0.15" stroke-miterlimit="10" x1="25.451" y1="241.779" x2="25.451" y2="-80.745"/>
				
					<line fill="none" stroke="#00ABEB" stroke-width="0.15" stroke-miterlimit="10" x1="30.893" y1="241.779" x2="30.893" y2="-80.745"/>
				
					<line fill="none" stroke="#00ABEB" stroke-width="0.15" stroke-miterlimit="10" x1="36.336" y1="241.779" x2="36.336" y2="-80.745"/>
				
					<line fill="none" stroke="#00ABEB" stroke-width="0.15" stroke-miterlimit="10" x1="41.779" y1="241.779" x2="41.779" y2="-80.745"/>
				
					<line fill="none" stroke="#00ABEB" stroke-width="0.15" stroke-miterlimit="10" x1="47.22" y1="241.779" x2="47.22" y2="-80.745"/>
				
					<line fill="none" stroke="#00ABEB" stroke-width="0.15" stroke-miterlimit="10" x1="52.664" y1="241.779" x2="52.664" y2="-80.745"/>
				
					<line fill="none" stroke="#00ABEB" stroke-width="0.15" stroke-miterlimit="10" x1="58.105" y1="241.779" x2="58.105" y2="-80.745"/>
				
					<line fill="none" stroke="#00ABEB" stroke-width="0.15" stroke-miterlimit="10" x1="63.548" y1="241.779" x2="63.548" y2="-80.745"/>
				
					<line fill="none" stroke="#00ABEB" stroke-width="0.15" stroke-miterlimit="10" x1="68.991" y1="241.779" x2="68.991" y2="-80.745"/>
				
					<line fill="none" stroke="#00ABEB" stroke-width="0.15" stroke-miterlimit="10" x1="74.432" y1="241.779" x2="74.432" y2="-80.745"/>
				
					<line fill="none" stroke="#00ABEB" stroke-width="0.15" stroke-miterlimit="10" x1="79.875" y1="241.779" x2="79.875" y2="-80.745"/>
				
					<line fill="none" stroke="#00ABEB" stroke-width="0.15" stroke-miterlimit="10" x1="85.318" y1="241.779" x2="85.318" y2="-80.745"/>
				
					<line fill="none" stroke="#00ABEB" stroke-width="0.15" stroke-miterlimit="10" x1="90.76" y1="241.779" x2="90.76" y2="-80.745"/>
				
					<line fill="none" stroke="#00ABEB" stroke-width="0.15" stroke-miterlimit="10" x1="96.203" y1="241.779" x2="96.203" y2="-80.745"/>
				
					<line fill="none" stroke="#00ABEB" stroke-width="0.15" stroke-miterlimit="10" x1="101.646" y1="241.779" x2="101.646" y2="-80.745"/>
				
					<line fill="none" stroke="#00ABEB" stroke-width="0.15" stroke-miterlimit="10" x1="107.087" y1="241.779" x2="107.087" y2="-80.745"/>
				
					<line fill="none" stroke="#00ABEB" stroke-width="0.15" stroke-miterlimit="10" x1="112.53" y1="241.779" x2="112.53" y2="-80.745"/>
				
					<line fill="none" stroke="#00ABEB" stroke-width="0.15" stroke-miterlimit="10" x1="117.973" y1="241.779" x2="117.973" y2="-80.745"/>
				
					<line fill="none" stroke="#00ABEB" stroke-width="0.15" stroke-miterlimit="10" x1="123.414" y1="241.779" x2="123.414" y2="-80.745"/>
				
					<line fill="none" stroke="#00ABEB" stroke-width="0.15" stroke-miterlimit="10" x1="128.857" y1="241.779" x2="128.857" y2="-80.745"/>
				
					<line fill="none" stroke="#00ABEB" stroke-width="0.15" stroke-miterlimit="10" x1="134.3" y1="241.779" x2="134.3" y2="-80.745"/>
				
					<line fill="none" stroke="#00ABEB" stroke-width="0.15" stroke-miterlimit="10" x1="139.742" y1="241.779" x2="139.742" y2="-80.745"/>
				
					<line fill="none" stroke="#00ABEB" stroke-width="0.15" stroke-miterlimit="10" x1="145.185" y1="241.779" x2="145.185" y2="-80.745"/>
				
					<line fill="none" stroke="#00ABEB" stroke-width="0.15" stroke-miterlimit="10" x1="150.626" y1="241.779" x2="150.626" y2="-80.745"/>
				
					<line fill="none" stroke="#00ABEB" stroke-width="0.15" stroke-miterlimit="10" x1="156.069" y1="241.779" x2="156.069" y2="-80.745"/>
				
					<line fill="none" stroke="#00ABEB" stroke-width="0.15" stroke-miterlimit="10" x1="161.513" y1="241.779" x2="161.513" y2="-80.745"/>
				
					<line fill="none" stroke="#00ABEB" stroke-width="0.15" stroke-miterlimit="10" x1="166.954" y1="241.779" x2="166.954" y2="-80.745"/>
				
					<line fill="none" stroke="#00ABEB" stroke-width="0.15" stroke-miterlimit="10" x1="172.397" y1="241.779" x2="172.397" y2="-80.745"/>
				
					<line fill="none" stroke="#00ABEB" stroke-width="0.15" stroke-miterlimit="10" x1="177.84" y1="241.779" x2="177.84" y2="-80.745"/>
				
					<line fill="none" stroke="#00ABEB" stroke-width="0.15" stroke-miterlimit="10" x1="183.281" y1="241.779" x2="183.281" y2="-80.745"/>
			</g>
			<g id="Horizontal_5_mm_1_">
				
					<line fill="none" stroke="#00ABEB" stroke-width="0.3" stroke-miterlimit="10" x1="-252.785" y1="241.805" x2="183.271" y2="241.805"/>
				
					<line fill="none" stroke="#00ABEB" stroke-width="0.3" stroke-miterlimit="10" x1="-252.785" y1="214.939" x2="183.271" y2="214.939"/>
				
					<line fill="none" stroke="#00ABEB" stroke-width="0.3" stroke-miterlimit="10" x1="-252.785" y1="188.071" x2="183.271" y2="188.071"/>
				
					<line fill="none" stroke="#00ABEB" stroke-width="0.3" stroke-miterlimit="10" x1="-252.785" y1="161.203" x2="183.271" y2="161.203"/>
				
					<line fill="none" stroke="#00ABEB" stroke-width="0.3" stroke-miterlimit="10" x1="-252.785" y1="134.336" x2="183.271" y2="134.336"/>
				
					<line fill="none" stroke="#00ABEB" stroke-width="0.3" stroke-miterlimit="10" x1="-252.785" y1="107.469" x2="183.271" y2="107.469"/>
				
					<line fill="none" stroke="#00ABEB" stroke-width="0.3" stroke-miterlimit="10" x1="-252.785" y1="80.602" x2="183.271" y2="80.602"/>
				
					<line fill="none" stroke="#00ABEB" stroke-width="0.3" stroke-miterlimit="10" x1="-252.785" y1="53.734" x2="183.271" y2="53.734"/>
				
					<line fill="none" stroke="#00ABEB" stroke-width="0.3" stroke-miterlimit="10" x1="-252.785" y1="26.866" x2="183.271" y2="26.866"/>
				<line fill="none" stroke="#00ABEB" stroke-width="0.3" stroke-miterlimit="10" x1="-252.785" y1="0" x2="183.271" y2="0"/>
				
					<line fill="none" stroke="#00ABEB" stroke-width="0.3" stroke-miterlimit="10" x1="-252.785" y1="-26.867" x2="183.271" y2="-26.867"/>
			</g>
			<g id="Vertical_5_mm">
				
					<line fill="none" stroke="#00ABEB" stroke-width="0.3" stroke-miterlimit="10" x1="-252.112" y1="241.779" x2="-252.112" y2="-81.266"/>
				
					<line fill="none" stroke="#00ABEB" stroke-width="0.3" stroke-miterlimit="10" x1="-224.901" y1="241.779" x2="-224.901" y2="-81.266"/>
				
					<line fill="none" stroke="#00ABEB" stroke-width="0.3" stroke-miterlimit="10" x1="-197.689" y1="241.779" x2="-197.689" y2="-81.266"/>
				
					<line fill="none" stroke="#00ABEB" stroke-width="0.3" stroke-miterlimit="10" x1="-170.477" y1="241.779" x2="-170.477" y2="-81.266"/>
				
					<line fill="none" stroke="#00ABEB" stroke-width="0.3" stroke-miterlimit="10" x1="-143.264" y1="241.779" x2="-143.264" y2="-81.266"/>
				
					<line fill="none" stroke="#00ABEB" stroke-width="0.3" stroke-miterlimit="10" x1="-116.051" y1="241.779" x2="-116.051" y2="-81.266"/>
				
					<line fill="none" stroke="#00ABEB" stroke-width="0.3" stroke-miterlimit="10" x1="-88.84" y1="241.779" x2="-88.84" y2="-81.266"/>
				
					<line fill="none" stroke="#00ABEB" stroke-width="0.3" stroke-miterlimit="10" x1="-61.629" y1="241.779" x2="-61.629" y2="-81.266"/>
				
					<line fill="none" stroke="#00ABEB" stroke-width="0.3" stroke-miterlimit="10" x1="-34.417" y1="241.779" x2="-34.417" y2="-81.266"/>
				
					<line fill="none" stroke="#00ABEB" stroke-width="0.3" stroke-miterlimit="10" x1="-7.203" y1="241.779" x2="-7.203" y2="-81.266"/>
				
					<line fill="none" stroke="#00ABEB" stroke-width="0.3" stroke-miterlimit="10" x1="20.009" y1="241.779" x2="20.009" y2="-81.266"/>
				
					<line fill="none" stroke="#00ABEB" stroke-width="0.3" stroke-miterlimit="10" x1="47.22" y1="241.779" x2="47.22" y2="-81.266"/>
				
					<line fill="none" stroke="#00ABEB" stroke-width="0.3" stroke-miterlimit="10" x1="74.432" y1="241.779" x2="74.432" y2="-81.266"/>
				
					<line fill="none" stroke="#00ABEB" stroke-width="0.3" stroke-miterlimit="10" x1="101.646" y1="241.779" x2="101.646" y2="-81.266"/>
				
					<line fill="none" stroke="#00ABEB" stroke-width="0.3" stroke-miterlimit="10" x1="128.857" y1="241.779" x2="128.857" y2="-81.266"/>
				
					<line fill="none" stroke="#00ABEB" stroke-width="0.3" stroke-miterlimit="10" x1="156.069" y1="241.779" x2="156.069" y2="-81.266"/>
				
					<line fill="none" stroke="#00ABEB" stroke-width="0.3" stroke-miterlimit="10" x1="183.281" y1="241.779" x2="183.281" y2="-81.266"/>
			</g>
			<g id="Horizontal_10_mm">
				
					<line id="_x31_9_1_" fill="none" stroke="#00ABEB" stroke-width="0.7" stroke-miterlimit="10" x1="-252.785" y1="241.805" x2="183.271" y2="241.805"/>
				
					<line id="_x32_0" fill="none" stroke="#00ABEB" stroke-width="0.7" stroke-miterlimit="10" x1="-252.785" y1="188.071" x2="183.271" y2="188.071"/>
				
					<line id="_x32_1" fill="none" stroke="#00ABEB" stroke-width="0.7" stroke-miterlimit="10" x1="-252.785" y1="134.336" x2="183.271" y2="134.336"/>
				
					<line id="_x32_2" fill="none" stroke="#00ABEB" stroke-width="0.7" stroke-miterlimit="10" x1="-252.785" y1="80.602" x2="183.271" y2="80.602"/>
				
					<line id="_x32_3" fill="none" stroke="#00ABEB" stroke-width="0.7" stroke-miterlimit="10" x1="-252.785" y1="26.866" x2="183.271" y2="26.866"/>
				
					<line id="_x32_4" fill="none" stroke="#00ABEB" stroke-width="0.7" stroke-miterlimit="10" x1="-252.785" y1="-26.867" x2="183.271" y2="-26.867"/>
				
					<line id="_x32_5" fill="none" stroke="#00ABEB" stroke-width="0.7" stroke-miterlimit="10" x1="-252.785" y1="-80.602" x2="183.271" y2="-80.602"/>
			</g>
			<g id="Vertical_10_mm">
				
					<line id="_x30_" fill="none" stroke="#00ABEB" stroke-width="0.7" stroke-miterlimit="10" x1="-252.112" y1="241.779" x2="-252.112" y2="-81.266"/>
				
					<line id="_x31_" fill="none" stroke="#00ABEB" stroke-width="0.7" stroke-miterlimit="10" x1="-197.689" y1="241.779" x2="-197.689" y2="-81.266"/>
				
					<line id="_x32_" fill="none" stroke="#00ABEB" stroke-width="0.7" stroke-miterlimit="10" x1="-143.264" y1="241.779" x2="-143.264" y2="-81.266"/>
				
					<line id="_x33_" fill="none" stroke="#00ABEB" stroke-width="0.7" stroke-miterlimit="10" x1="-88.84" y1="241.779" x2="-88.84" y2="-81.266"/>
				
					<line id="_x34_" fill="none" stroke="#00ABEB" stroke-width="0.7" stroke-miterlimit="10" x1="-34.417" y1="241.779" x2="-34.417" y2="-81.266"/>
				
					<line id="_x35_" fill="none" stroke="#00ABEB" stroke-width="0.7" stroke-miterlimit="10" x1="20.009" y1="241.779" x2="20.009" y2="-81.266"/>
				
					<line id="_x36_" fill="none" stroke="#00ABEB" stroke-width="0.7" stroke-miterlimit="10" x1="74.432" y1="241.779" x2="74.432" y2="-81.266"/>
				
					<line id="_x37_" fill="none" stroke="#00ABEB" stroke-width="0.7" stroke-miterlimit="10" x1="128.857" y1="241.779" x2="128.857" y2="-81.266"/>
				
					<line id="_x38_" fill="none" stroke="#00ABEB" stroke-width="0.7" stroke-miterlimit="10" x1="183.281" y1="241.779" x2="183.281" y2="-81.266"/>
			</g>
		</g>
	</g>
</g>
<g id="Layer_3">
	<path fill="none" stroke="#FF0000" stroke-width="0.5" stroke-linecap="round" stroke-linejoin="round" stroke-miterlimit="10" d="
		M-18.089,71.3C42.11,65.526,23.859,12.368,84.883,38.434"/>
	<g>
		<g>
			
				<line fill="none" stroke="#000000" stroke-width="0.6" stroke-linecap="round" stroke-linejoin="round" x1="34.215" y1="41.563" x2="52.255" y2="19.284"/>
			<g>
				<polygon points="52.911,22.373 52.311,22.414 52.11,19.463 49.181,19.88 49.097,19.285 52.664,18.778 				"/>
			</g>
		</g>
	</g>
	<g>
		<g>
			
				<line fill="none" stroke="#00B200" stroke-width="0.8" stroke-linecap="round" stroke-linejoin="round" x1="34.215" y1="41.563" x2="48.981" y2="32.596"/>
			<g>
				<polygon fill="#00B200" points="48.413,36.769 47.643,36.551 48.719,32.756 44.855,31.96 45.017,31.176 49.723,32.147 				"/>
			</g>
		</g>
	</g>
	<g id="Layer_4">
		<g>
			<g>
				<path fill="none" stroke="#0000FF" stroke-width="0.7" stroke-linecap="round" stroke-linejoin="round" d="M34.289,41.727
					c4.414-4.333,8.974-7.875,15.094-9.494"/>
				<g>
					
						<rect x="33.946" y="39.46" transform="matrix(0.734 -0.6791 0.6791 0.734 -19.2215 34.3926)" fill="#0000FF" width="0.7" height="4.55"/>
				</g>
				<g>
					
						<rect x="49.037" y="29.972" transform="matrix(0.9579 -0.2872 0.2872 0.9579 -7.1809 15.5434)" fill="#0000FF" width="0.7" height="4.55"/>
				</g>
			</g>
		</g>
	</g>
	<g>
		<path d="M48.945,14.998l-0.204-0.024c0.024-0.204,0.036-0.396,0.036-0.552c0-0.636-0.432-0.972-1.211-0.972H46.87l-1.643,5.877
			c-0.072,0.252-0.168,0.528-0.168,0.792c0,0.372,0.144,0.468,0.636,0.516l0.42,0.036v0.192h-3.454v-0.192
			c0.827-0.072,1.103-0.252,1.283-0.899l1.715-6.321c-1.895,0-2.279,0.192-2.854,1.487l-0.216-0.048l0.504-1.859h6.38L48.945,14.998
			z"/>
	</g>
	<g>
		<g>
			<path fill="#00B200" d="M21.35,37.344l4.797-8.012h0.312l1.583,8.012H21.35z M25.619,31.036l-3.058,5.181h4.102L25.619,31.036z"
				/>
			<path fill="#00B200" d="M31.368,34.25c0.228-0.504,0.636-1.14,1.127-1.655c0.312-0.324,0.671-0.54,0.947-0.54
				c0.336,0,0.564,0.252,0.564,0.612s-0.204,0.647-0.564,0.647c-0.216,0-0.312-0.132-0.419-0.312
				c-0.072-0.12-0.108-0.168-0.192-0.168c-0.216,0-0.552,0.396-0.983,1.127c-0.516,0.888-0.732,1.368-1.332,3.382h-0.912
				l0.972-3.502c0.168-0.624,0.192-0.732,0.192-0.983c0-0.252-0.216-0.312-0.456-0.312c-0.096,0-0.192,0.012-0.372,0.036v-0.204
				l1.859-0.324l0.036,0.024l-0.66,2.591L31.368,34.25z"/>
		</g>
		<g>
			<g>
				
					<line fill="none" stroke="#00B200" stroke-width="0.5" stroke-linecap="round" stroke-linejoin="round" x1="29.623" y1="30.039" x2="33.949" y2="30.039"/>
				<g>
					<polygon fill="#00B200" points="32.292,32.084 31.951,31.718 33.757,30.04 31.951,28.361 32.292,27.995 34.491,30.04 					"/>
				</g>
			</g>
		</g>
	</g>
	<g>
		<path fill="none" d="M-65.374,55.919"/>
	</g>
	<g>
		<path fill="none" d="M-51.976,77.369"/>
	</g>
	<g>
		<path fill="none" d="M-37.168,71.3"/>
	</g>
	<g>
		<path fill="none" d="M-51.976,77.369"/>
	</g>
	<g>
		<path fill="none" d="M-12.946,34.567"/>
	</g>
	<g>
		<path fill="none" d="M-14.459,66.098"/>
	</g>
	<g>
		<path fill="none" d="M2.629,62.251"/>
	</g>
	<g>
		<path fill="none" d="M-14.459,66.098"/>
	</g>
	<g>
		<path d="M47.598,11.284l-1.715-3.466h-0.012l-1.703,3.466h-0.815l2.171-4.378h0.72l2.17,4.378H47.598z"/>
	</g>
	<g>
		<path fill="#0000FF" d="M42.573,47.416l4.797-8.012h0.312l1.583,8.012H42.573z M46.842,41.107l-3.058,5.181h4.102L46.842,41.107z"
			/>
		<path fill="#0000FF" d="M54.439,43.794h-0.192c-0.12-0.996-0.479-1.391-1.067-1.391c-0.42,0-0.708,0.24-0.708,0.684
			c0,0.324,0.181,0.671,0.648,1.223c0.6,0.696,0.815,1.164,0.815,1.631c0,0.996-0.731,1.607-1.728,1.607
			c-0.204,0-0.384-0.012-0.659-0.12c-0.229-0.096-0.396-0.108-0.528-0.108c-0.132,0-0.264,0.06-0.348,0.251h-0.191l0.239-1.907
			h0.192c0.168,1.139,0.575,1.631,1.199,1.631c0.563,0,0.911-0.335,0.911-0.923c0-0.384-0.203-0.792-0.671-1.379
			c-0.516-0.647-0.756-1.187-0.756-1.571c0-0.792,0.563-1.295,1.451-1.295c0.204,0,0.372,0.036,0.672,0.12
			c0.228,0.072,0.336,0.084,0.432,0.084c0.18,0,0.264-0.048,0.359-0.216h0.168L54.439,43.794z"/>
	</g>
</g>
<g id="axis" display="none">
	<g display="inline">
		<g>
			<line fill="none" stroke="#262626" stroke-width="0.5" x1="-34.27" y1="193.956" x2="-34.27" y2="-28.188"/>
			<g>
				<polygon fill="#262626" points="-32.418,-26.784 -34.27,-27.57 -36.121,-26.784 -34.27,-31.173 				"/>
			</g>
		</g>
	</g>
	<g display="inline">
		<g>
			<line fill="none" stroke="#262626" stroke-width="0.5" x1="-146.613" y1="80.156" x2="80.978" y2="80.156"/>
			<g>
				<polygon fill="#262626" points="79.574,82.008 80.361,80.156 79.574,78.304 83.963,80.156 				"/>
			</g>
		</g>
	</g>
	<g display="inline" enable-background="new    ">
		<path fill="#262626" d="M-41.541-30.092c1.448-2.401,2.078-3.627,2.078-4.376c0-0.239-0.119-0.341-0.443-0.545
			c-0.34-0.222-0.442-0.392-0.442-0.665c0-0.375,0.29-0.63,0.682-0.63c0.511,0,0.885,0.426,0.885,0.937
			c0,0.971-0.817,2.844-2.23,5.194c-1.771,2.929-3.593,4.887-4.563,4.887c-0.511,0-0.869-0.29-0.869-0.732
			c0-0.375,0.29-0.681,0.665-0.681c0.596,0,0.596,0.477,1.038,0.477c0.222,0,0.426-0.136,0.817-0.562
			c0.307-0.323,1.073-1.328,1.209-1.549c0.103-0.205,0.171-0.409,0.171-0.596c0-0.681-0.937-4.496-1.396-5.654
			c-0.324-0.834-0.63-1.09-1.312-1.09c-0.188,0-0.341,0.017-0.527,0.068v-0.29c0.187-0.034,0.374-0.068,0.545-0.102
			c0.34-0.068,0.902-0.17,1.821-0.307h0.068c0.256,0,1.158,2.827,1.447,4.342L-41.541-30.092z"/>
	</g>
	<g display="inline" enable-background="new    ">
		<path fill="#262626" d="M83.884,85.597c1.192-1.822,1.822-2.436,2.571-2.436c0.409,0,0.698,0.256,0.698,0.63
			c0,0.357-0.238,0.613-0.579,0.613c-0.323,0-0.477-0.289-0.885-0.289c-0.307,0-0.92,0.749-1.669,2.06
			c0,0.12,0.034,0.358,0.136,0.767l0.545,2.282c0.119,0.477,0.272,0.698,0.511,0.698c0.222,0,0.409-0.171,0.801-0.682
			c0.153-0.204,0.222-0.307,0.357-0.477l0.256,0.153c-0.988,1.532-1.431,1.941-2.078,1.941c-0.545,0-0.8-0.307-1.004-1.158
			l-0.494-2.026l-1.499,2.026c-0.749,1.005-1.09,1.158-1.617,1.158c-0.528,0-0.852-0.272-0.852-0.716
			c0-0.34,0.238-0.612,0.579-0.612c0.153,0,0.323,0.067,0.545,0.188c0.17,0.102,0.341,0.152,0.442,0.152
			c0.188,0,0.511-0.323,0.869-0.834l1.396-1.976l-0.477-2.111c-0.238-1.021-0.357-1.158-0.783-1.158
			c-0.136,0-0.341,0.034-0.664,0.119l-0.307,0.085l-0.051-0.271l0.188-0.068c1.038-0.375,1.601-0.494,1.992-0.494
			c0.426,0,0.63,0.307,0.868,1.465L83.884,85.597z"/>
	</g>
</g>
</svg>
