<?xml version="1.0" encoding="utf-8"?>
<!-- Generator: Adobe Illustrator 25.4.1, SVG Export Plug-In . SVG Version: 6.00 Build 0)  -->
<svg version="1.1" xmlns="http://www.w3.org/2000/svg" xmlns:xlink="http://www.w3.org/1999/xlink" x="0px" y="0px"
	 viewBox="0 0 94.454 55.015" enable-background="new 0 0 94.454 55.015" xml:space="preserve">
<g id="Layer_2" opacity="0.5">
	<g id="Clipped_grid">
		<defs>
			<rect id="SVGID_1_" x="-133.988" y="-63.201" width="251.19" height="254.581"/>
		</defs>
		<clipPath id="SVGID_00000179609099733609618770000007004150621286197679_">
			<use xlink:href="#SVGID_1_"  overflow="visible"/>
		</clipPath>
		<g id="Grid" opacity="0.25" clip-path="url(#SVGID_00000179609099733609618770000007004150621286197679_)">
			<g id="Horizontal_1_mm">
				
					<line fill="none" stroke="#00ABEB" stroke-width="0.15" stroke-miterlimit="10" x1="-230.649" y1="-90.068" x2="204.878" y2="-90.068"/>
				
					<line fill="none" stroke="#00ABEB" stroke-width="0.15" stroke-miterlimit="10" x1="-230.649" y1="-95.442" x2="204.878" y2="-95.442"/>
				
					<line fill="none" stroke="#00ABEB" stroke-width="0.15" stroke-miterlimit="10" x1="-230.649" y1="226.966" x2="204.878" y2="226.966"/>
				
					<line fill="none" stroke="#00ABEB" stroke-width="0.15" stroke-miterlimit="10" x1="-230.649" y1="221.592" x2="204.878" y2="221.592"/>
				
					<line fill="none" stroke="#00ABEB" stroke-width="0.15" stroke-miterlimit="10" x1="-230.649" y1="216.22" x2="204.878" y2="216.22"/>
				
					<line fill="none" stroke="#00ABEB" stroke-width="0.15" stroke-miterlimit="10" x1="-230.649" y1="210.846" x2="204.878" y2="210.846"/>
				
					<line fill="none" stroke="#00ABEB" stroke-width="0.15" stroke-miterlimit="10" x1="-230.649" y1="205.472" x2="204.878" y2="205.472"/>
				
					<line fill="none" stroke="#00ABEB" stroke-width="0.15" stroke-miterlimit="10" x1="-230.649" y1="200.1" x2="204.878" y2="200.1"/>
				
					<line fill="none" stroke="#00ABEB" stroke-width="0.15" stroke-miterlimit="10" x1="-230.649" y1="194.726" x2="204.878" y2="194.726"/>
				
					<line fill="none" stroke="#00ABEB" stroke-width="0.15" stroke-miterlimit="10" x1="-230.649" y1="189.353" x2="204.878" y2="189.353"/>
				
					<line fill="none" stroke="#00ABEB" stroke-width="0.15" stroke-miterlimit="10" x1="-230.649" y1="183.978" x2="204.878" y2="183.978"/>
				
					<line fill="none" stroke="#00ABEB" stroke-width="0.15" stroke-miterlimit="10" x1="-230.649" y1="178.604" x2="204.878" y2="178.604"/>
				
					<line fill="none" stroke="#00ABEB" stroke-width="0.15" stroke-miterlimit="10" x1="-230.649" y1="173.232" x2="204.878" y2="173.232"/>
				
					<line fill="none" stroke="#00ABEB" stroke-width="0.15" stroke-miterlimit="10" x1="-230.649" y1="167.858" x2="204.878" y2="167.858"/>
				
					<line fill="none" stroke="#00ABEB" stroke-width="0.15" stroke-miterlimit="10" x1="-230.649" y1="162.484" x2="204.878" y2="162.484"/>
				
					<line fill="none" stroke="#00ABEB" stroke-width="0.15" stroke-miterlimit="10" x1="-230.649" y1="157.112" x2="204.878" y2="157.112"/>
				
					<line fill="none" stroke="#00ABEB" stroke-width="0.15" stroke-miterlimit="10" x1="-230.649" y1="151.738" x2="204.878" y2="151.738"/>
				
					<line fill="none" stroke="#00ABEB" stroke-width="0.15" stroke-miterlimit="10" x1="-230.649" y1="146.364" x2="204.878" y2="146.364"/>
				
					<line fill="none" stroke="#00ABEB" stroke-width="0.15" stroke-miterlimit="10" x1="-230.649" y1="140.992" x2="204.878" y2="140.992"/>
				
					<line fill="none" stroke="#00ABEB" stroke-width="0.15" stroke-miterlimit="10" x1="-230.649" y1="135.617" x2="204.878" y2="135.617"/>
				
					<line fill="none" stroke="#00ABEB" stroke-width="0.15" stroke-miterlimit="10" x1="-230.649" y1="130.243" x2="204.878" y2="130.243"/>
				
					<line fill="none" stroke="#00ABEB" stroke-width="0.15" stroke-miterlimit="10" x1="-230.649" y1="124.871" x2="204.878" y2="124.871"/>
				
					<line fill="none" stroke="#00ABEB" stroke-width="0.15" stroke-miterlimit="10" x1="-230.649" y1="119.497" x2="204.878" y2="119.497"/>
				
					<line fill="none" stroke="#00ABEB" stroke-width="0.15" stroke-miterlimit="10" x1="-230.649" y1="114.122" x2="204.878" y2="114.122"/>
				
					<line fill="none" stroke="#00ABEB" stroke-width="0.15" stroke-miterlimit="10" x1="-230.649" y1="108.75" x2="204.878" y2="108.75"/>
				
					<line fill="none" stroke="#00ABEB" stroke-width="0.15" stroke-miterlimit="10" x1="-230.649" y1="103.376" x2="204.878" y2="103.376"/>
				
					<line fill="none" stroke="#00ABEB" stroke-width="0.15" stroke-miterlimit="10" x1="-230.649" y1="98.004" x2="204.878" y2="98.004"/>
				
					<line fill="none" stroke="#00ABEB" stroke-width="0.15" stroke-miterlimit="10" x1="-230.649" y1="92.63" x2="204.878" y2="92.63"/>
				
					<line fill="none" stroke="#00ABEB" stroke-width="0.15" stroke-miterlimit="10" x1="-230.649" y1="87.256" x2="204.878" y2="87.256"/>
				
					<line fill="none" stroke="#00ABEB" stroke-width="0.15" stroke-miterlimit="10" x1="-230.649" y1="81.883" x2="204.878" y2="81.883"/>
				
					<line fill="none" stroke="#00ABEB" stroke-width="0.15" stroke-miterlimit="10" x1="-230.649" y1="76.509" x2="204.878" y2="76.509"/>
				
					<line fill="none" stroke="#00ABEB" stroke-width="0.15" stroke-miterlimit="10" x1="-230.649" y1="71.135" x2="204.878" y2="71.135"/>
				
					<line fill="none" stroke="#00ABEB" stroke-width="0.15" stroke-miterlimit="10" x1="-230.649" y1="65.763" x2="204.878" y2="65.763"/>
				
					<line fill="none" stroke="#00ABEB" stroke-width="0.15" stroke-miterlimit="10" x1="-230.649" y1="60.389" x2="204.878" y2="60.389"/>
				
					<line fill="none" stroke="#00ABEB" stroke-width="0.15" stroke-miterlimit="10" x1="-230.649" y1="55.015" x2="204.878" y2="55.015"/>
				
					<line fill="none" stroke="#00ABEB" stroke-width="0.15" stroke-miterlimit="10" x1="-230.649" y1="49.643" x2="204.878" y2="49.643"/>
				
					<line fill="none" stroke="#00ABEB" stroke-width="0.15" stroke-miterlimit="10" x1="-230.649" y1="44.269" x2="204.878" y2="44.269"/>
				
					<line fill="none" stroke="#00ABEB" stroke-width="0.15" stroke-miterlimit="10" x1="-230.649" y1="38.895" x2="204.878" y2="38.895"/>
				
					<line fill="none" stroke="#00ABEB" stroke-width="0.15" stroke-miterlimit="10" x1="-230.649" y1="33.523" x2="204.878" y2="33.523"/>
				
					<line fill="none" stroke="#00ABEB" stroke-width="0.15" stroke-miterlimit="10" x1="-230.649" y1="28.148" x2="204.878" y2="28.148"/>
				
					<line fill="none" stroke="#00ABEB" stroke-width="0.15" stroke-miterlimit="10" x1="-230.649" y1="22.774" x2="204.878" y2="22.774"/>
				
					<line fill="none" stroke="#00ABEB" stroke-width="0.15" stroke-miterlimit="10" x1="-230.649" y1="17.402" x2="204.878" y2="17.402"/>
				
					<line fill="none" stroke="#00ABEB" stroke-width="0.15" stroke-miterlimit="10" x1="-230.649" y1="12.027" x2="204.878" y2="12.027"/>
				
					<line fill="none" stroke="#00ABEB" stroke-width="0.15" stroke-miterlimit="10" x1="-230.649" y1="6.655" x2="204.878" y2="6.655"/>
				
					<line fill="none" stroke="#00ABEB" stroke-width="0.15" stroke-miterlimit="10" x1="-230.649" y1="1.281" x2="204.878" y2="1.281"/>
				
					<line fill="none" stroke="#00ABEB" stroke-width="0.15" stroke-miterlimit="10" x1="-230.649" y1="-4.093" x2="204.878" y2="-4.093"/>
				
					<line fill="none" stroke="#00ABEB" stroke-width="0.15" stroke-miterlimit="10" x1="-230.649" y1="-9.465" x2="204.878" y2="-9.465"/>
				
					<line fill="none" stroke="#00ABEB" stroke-width="0.15" stroke-miterlimit="10" x1="-230.649" y1="-14.839" x2="204.878" y2="-14.839"/>
				
					<line fill="none" stroke="#00ABEB" stroke-width="0.15" stroke-miterlimit="10" x1="-230.649" y1="-20.213" x2="204.878" y2="-20.213"/>
				
					<line fill="none" stroke="#00ABEB" stroke-width="0.15" stroke-miterlimit="10" x1="-230.649" y1="-25.586" x2="204.878" y2="-25.586"/>
				
					<line fill="none" stroke="#00ABEB" stroke-width="0.15" stroke-miterlimit="10" x1="-230.649" y1="-30.96" x2="204.878" y2="-30.96"/>
				
					<line fill="none" stroke="#00ABEB" stroke-width="0.15" stroke-miterlimit="10" x1="-230.649" y1="-36.334" x2="204.878" y2="-36.334"/>
				
					<line fill="none" stroke="#00ABEB" stroke-width="0.15" stroke-miterlimit="10" x1="-230.649" y1="-41.706" x2="204.878" y2="-41.706"/>
				
					<line fill="none" stroke="#00ABEB" stroke-width="0.15" stroke-miterlimit="10" x1="-230.649" y1="-47.08" x2="204.878" y2="-47.08"/>
				
					<line fill="none" stroke="#00ABEB" stroke-width="0.15" stroke-miterlimit="10" x1="-230.649" y1="-52.454" x2="204.878" y2="-52.454"/>
				
					<line fill="none" stroke="#00ABEB" stroke-width="0.15" stroke-miterlimit="10" x1="-230.649" y1="-57.826" x2="204.878" y2="-57.826"/>
				
					<line fill="none" stroke="#00ABEB" stroke-width="0.15" stroke-miterlimit="10" x1="-230.649" y1="-63.201" x2="204.878" y2="-63.201"/>
				
					<line fill="none" stroke="#00ABEB" stroke-width="0.15" stroke-miterlimit="10" x1="-230.649" y1="-68.573" x2="204.878" y2="-68.573"/>
				
					<line fill="none" stroke="#00ABEB" stroke-width="0.15" stroke-miterlimit="10" x1="-230.649" y1="-73.947" x2="204.878" y2="-73.947"/>
				
					<line fill="none" stroke="#00ABEB" stroke-width="0.15" stroke-miterlimit="10" x1="-230.649" y1="-79.321" x2="204.878" y2="-79.321"/>
				
					<line fill="none" stroke="#00ABEB" stroke-width="0.15" stroke-miterlimit="10" x1="-230.649" y1="-84.694" x2="204.878" y2="-84.694"/>
			</g>
			<g id="Vertical_1_mm">
				<g>
					
						<line fill="none" stroke="#00ABEB" stroke-width="0.15" stroke-miterlimit="10" x1="-230.505" y1="226.94" x2="-230.505" y2="-95.584"/>
				</g>
				
					<line fill="none" stroke="#00ABEB" stroke-width="0.15" stroke-miterlimit="10" x1="-225.064" y1="226.94" x2="-225.064" y2="-95.584"/>
				
					<line fill="none" stroke="#00ABEB" stroke-width="0.15" stroke-miterlimit="10" x1="-219.621" y1="226.94" x2="-219.621" y2="-95.584"/>
				
					<line fill="none" stroke="#00ABEB" stroke-width="0.15" stroke-miterlimit="10" x1="-214.178" y1="226.94" x2="-214.178" y2="-95.584"/>
				
					<line fill="none" stroke="#00ABEB" stroke-width="0.15" stroke-miterlimit="10" x1="-208.737" y1="226.94" x2="-208.737" y2="-95.584"/>
				
					<line fill="none" stroke="#00ABEB" stroke-width="0.15" stroke-miterlimit="10" x1="-203.294" y1="226.94" x2="-203.294" y2="-95.584"/>
				
					<line fill="none" stroke="#00ABEB" stroke-width="0.15" stroke-miterlimit="10" x1="-197.85" y1="226.94" x2="-197.85" y2="-95.584"/>
				
					<line fill="none" stroke="#00ABEB" stroke-width="0.15" stroke-miterlimit="10" x1="-192.41" y1="226.94" x2="-192.41" y2="-95.584"/>
				
					<line fill="none" stroke="#00ABEB" stroke-width="0.15" stroke-miterlimit="10" x1="-186.965" y1="226.94" x2="-186.965" y2="-95.584"/>
				
					<line fill="none" stroke="#00ABEB" stroke-width="0.15" stroke-miterlimit="10" x1="-181.524" y1="226.94" x2="-181.524" y2="-95.584"/>
				
					<line fill="none" stroke="#00ABEB" stroke-width="0.15" stroke-miterlimit="10" x1="-176.081" y1="226.94" x2="-176.081" y2="-95.584"/>
				
					<line fill="none" stroke="#00ABEB" stroke-width="0.15" stroke-miterlimit="10" x1="-170.638" y1="226.94" x2="-170.638" y2="-95.584"/>
				
					<line fill="none" stroke="#00ABEB" stroke-width="0.15" stroke-miterlimit="10" x1="-165.197" y1="226.94" x2="-165.197" y2="-95.584"/>
				
					<line fill="none" stroke="#00ABEB" stroke-width="0.15" stroke-miterlimit="10" x1="-159.754" y1="226.94" x2="-159.754" y2="-95.584"/>
				
					<line fill="none" stroke="#00ABEB" stroke-width="0.15" stroke-miterlimit="10" x1="-154.311" y1="226.94" x2="-154.311" y2="-95.584"/>
				
					<line fill="none" stroke="#00ABEB" stroke-width="0.15" stroke-miterlimit="10" x1="-148.87" y1="226.94" x2="-148.87" y2="-95.584"/>
				
					<line fill="none" stroke="#00ABEB" stroke-width="0.15" stroke-miterlimit="10" x1="-143.427" y1="226.94" x2="-143.427" y2="-95.584"/>
				
					<line fill="none" stroke="#00ABEB" stroke-width="0.15" stroke-miterlimit="10" x1="-137.984" y1="226.94" x2="-137.984" y2="-95.584"/>
				
					<line fill="none" stroke="#00ABEB" stroke-width="0.15" stroke-miterlimit="10" x1="-132.543" y1="226.94" x2="-132.543" y2="-95.584"/>
				
					<line fill="none" stroke="#00ABEB" stroke-width="0.15" stroke-miterlimit="10" x1="-127.099" y1="226.94" x2="-127.099" y2="-95.584"/>
				
					<line fill="none" stroke="#00ABEB" stroke-width="0.15" stroke-miterlimit="10" x1="-121.657" y1="226.94" x2="-121.657" y2="-95.584"/>
				
					<line fill="none" stroke="#00ABEB" stroke-width="0.15" stroke-miterlimit="10" x1="-116.215" y1="226.94" x2="-116.215" y2="-95.584"/>
				
					<line fill="none" stroke="#00ABEB" stroke-width="0.15" stroke-miterlimit="10" x1="-110.772" y1="226.94" x2="-110.772" y2="-95.584"/>
				
					<line fill="none" stroke="#00ABEB" stroke-width="0.15" stroke-miterlimit="10" x1="-105.329" y1="226.94" x2="-105.329" y2="-95.584"/>
				
					<line fill="none" stroke="#00ABEB" stroke-width="0.15" stroke-miterlimit="10" x1="-99.887" y1="226.94" x2="-99.887" y2="-95.584"/>
				
					<line fill="none" stroke="#00ABEB" stroke-width="0.15" stroke-miterlimit="10" x1="-94.444" y1="226.94" x2="-94.444" y2="-95.584"/>
				
					<line fill="none" stroke="#00ABEB" stroke-width="0.15" stroke-miterlimit="10" x1="-89.003" y1="226.94" x2="-89.003" y2="-95.584"/>
				
					<line fill="none" stroke="#00ABEB" stroke-width="0.15" stroke-miterlimit="10" x1="-83.56" y1="226.94" x2="-83.56" y2="-95.584"/>
				
					<line fill="none" stroke="#00ABEB" stroke-width="0.15" stroke-miterlimit="10" x1="-78.117" y1="226.94" x2="-78.117" y2="-95.584"/>
				
					<line fill="none" stroke="#00ABEB" stroke-width="0.15" stroke-miterlimit="10" x1="-72.676" y1="226.94" x2="-72.676" y2="-95.584"/>
				
					<line fill="none" stroke="#00ABEB" stroke-width="0.15" stroke-miterlimit="10" x1="-67.233" y1="226.94" x2="-67.233" y2="-95.584"/>
				
					<line fill="none" stroke="#00ABEB" stroke-width="0.15" stroke-miterlimit="10" x1="-61.79" y1="226.94" x2="-61.79" y2="-95.584"/>
				
					<line fill="none" stroke="#00ABEB" stroke-width="0.15" stroke-miterlimit="10" x1="-56.348" y1="226.94" x2="-56.348" y2="-95.584"/>
				
					<line fill="none" stroke="#00ABEB" stroke-width="0.15" stroke-miterlimit="10" x1="-50.905" y1="226.94" x2="-50.905" y2="-95.584"/>
				
					<line fill="none" stroke="#00ABEB" stroke-width="0.15" stroke-miterlimit="10" x1="-45.462" y1="226.94" x2="-45.462" y2="-95.584"/>
				
					<line fill="none" stroke="#00ABEB" stroke-width="0.15" stroke-miterlimit="10" x1="-40.021" y1="226.94" x2="-40.021" y2="-95.584"/>
				
					<line fill="none" stroke="#00ABEB" stroke-width="0.15" stroke-miterlimit="10" x1="-34.578" y1="226.94" x2="-34.578" y2="-95.584"/>
				
					<line fill="none" stroke="#00ABEB" stroke-width="0.15" stroke-miterlimit="10" x1="-29.135" y1="226.94" x2="-29.135" y2="-95.584"/>
				
					<line fill="none" stroke="#00ABEB" stroke-width="0.15" stroke-miterlimit="10" x1="-23.694" y1="226.94" x2="-23.694" y2="-95.584"/>
				
					<line fill="none" stroke="#00ABEB" stroke-width="0.15" stroke-miterlimit="10" x1="-18.251" y1="226.94" x2="-18.251" y2="-95.584"/>
				
					<line fill="none" stroke="#00ABEB" stroke-width="0.15" stroke-miterlimit="10" x1="-12.81" y1="226.94" x2="-12.81" y2="-95.584"/>
				
					<line fill="none" stroke="#00ABEB" stroke-width="0.15" stroke-miterlimit="10" x1="-7.366" y1="226.94" x2="-7.366" y2="-95.584"/>
				
					<line fill="none" stroke="#00ABEB" stroke-width="0.15" stroke-miterlimit="10" x1="-1.923" y1="226.94" x2="-1.923" y2="-95.584"/>
				
					<line fill="none" stroke="#00ABEB" stroke-width="0.15" stroke-miterlimit="10" x1="3.518" y1="226.94" x2="3.518" y2="-95.584"/>
				
					<line fill="none" stroke="#00ABEB" stroke-width="0.15" stroke-miterlimit="10" x1="8.961" y1="226.94" x2="8.961" y2="-95.584"/>
				
					<line fill="none" stroke="#00ABEB" stroke-width="0.15" stroke-miterlimit="10" x1="14.404" y1="226.94" x2="14.404" y2="-95.584"/>
				
					<line fill="none" stroke="#00ABEB" stroke-width="0.15" stroke-miterlimit="10" x1="19.846" y1="226.94" x2="19.846" y2="-95.584"/>
				
					<line fill="none" stroke="#00ABEB" stroke-width="0.15" stroke-miterlimit="10" x1="25.289" y1="226.94" x2="25.289" y2="-95.584"/>
				
					<line fill="none" stroke="#00ABEB" stroke-width="0.15" stroke-miterlimit="10" x1="30.732" y1="226.94" x2="30.732" y2="-95.584"/>
				
					<line fill="none" stroke="#00ABEB" stroke-width="0.15" stroke-miterlimit="10" x1="36.173" y1="226.94" x2="36.173" y2="-95.584"/>
				
					<line fill="none" stroke="#00ABEB" stroke-width="0.15" stroke-miterlimit="10" x1="41.616" y1="226.94" x2="41.616" y2="-95.584"/>
				
					<line fill="none" stroke="#00ABEB" stroke-width="0.15" stroke-miterlimit="10" x1="47.059" y1="226.94" x2="47.059" y2="-95.584"/>
				<line fill="none" stroke="#00ABEB" stroke-width="0.15" stroke-miterlimit="10" x1="52.5" y1="226.94" x2="52.5" y2="-95.584"/>
				
					<line fill="none" stroke="#00ABEB" stroke-width="0.15" stroke-miterlimit="10" x1="57.943" y1="226.94" x2="57.943" y2="-95.584"/>
				
					<line fill="none" stroke="#00ABEB" stroke-width="0.15" stroke-miterlimit="10" x1="63.386" y1="226.94" x2="63.386" y2="-95.584"/>
				
					<line fill="none" stroke="#00ABEB" stroke-width="0.15" stroke-miterlimit="10" x1="68.827" y1="226.94" x2="68.827" y2="-95.584"/>
				
					<line fill="none" stroke="#00ABEB" stroke-width="0.15" stroke-miterlimit="10" x1="74.271" y1="226.94" x2="74.271" y2="-95.584"/>
				
					<line fill="none" stroke="#00ABEB" stroke-width="0.15" stroke-miterlimit="10" x1="79.713" y1="226.94" x2="79.713" y2="-95.584"/>
				
					<line fill="none" stroke="#00ABEB" stroke-width="0.15" stroke-miterlimit="10" x1="85.155" y1="226.94" x2="85.155" y2="-95.584"/>
				
					<line fill="none" stroke="#00ABEB" stroke-width="0.15" stroke-miterlimit="10" x1="90.599" y1="226.94" x2="90.599" y2="-95.584"/>
				
					<line fill="none" stroke="#00ABEB" stroke-width="0.15" stroke-miterlimit="10" x1="96.04" y1="226.94" x2="96.04" y2="-95.584"/>
				
					<line fill="none" stroke="#00ABEB" stroke-width="0.15" stroke-miterlimit="10" x1="101.483" y1="226.94" x2="101.483" y2="-95.584"/>
				
					<line fill="none" stroke="#00ABEB" stroke-width="0.15" stroke-miterlimit="10" x1="106.926" y1="226.94" x2="106.926" y2="-95.584"/>
				
					<line fill="none" stroke="#00ABEB" stroke-width="0.15" stroke-miterlimit="10" x1="112.367" y1="226.94" x2="112.367" y2="-95.584"/>
				
					<line fill="none" stroke="#00ABEB" stroke-width="0.15" stroke-miterlimit="10" x1="117.81" y1="226.94" x2="117.81" y2="-95.584"/>
				
					<line fill="none" stroke="#00ABEB" stroke-width="0.15" stroke-miterlimit="10" x1="123.253" y1="226.94" x2="123.253" y2="-95.584"/>
				
					<line fill="none" stroke="#00ABEB" stroke-width="0.15" stroke-miterlimit="10" x1="128.694" y1="226.94" x2="128.694" y2="-95.584"/>
				
					<line fill="none" stroke="#00ABEB" stroke-width="0.15" stroke-miterlimit="10" x1="134.137" y1="226.94" x2="134.137" y2="-95.584"/>
				
					<line fill="none" stroke="#00ABEB" stroke-width="0.15" stroke-miterlimit="10" x1="139.58" y1="226.94" x2="139.58" y2="-95.584"/>
				
					<line fill="none" stroke="#00ABEB" stroke-width="0.15" stroke-miterlimit="10" x1="145.021" y1="226.94" x2="145.021" y2="-95.584"/>
				
					<line fill="none" stroke="#00ABEB" stroke-width="0.15" stroke-miterlimit="10" x1="150.465" y1="226.94" x2="150.465" y2="-95.584"/>
				
					<line fill="none" stroke="#00ABEB" stroke-width="0.15" stroke-miterlimit="10" x1="155.907" y1="226.94" x2="155.907" y2="-95.584"/>
				
					<line fill="none" stroke="#00ABEB" stroke-width="0.15" stroke-miterlimit="10" x1="161.35" y1="226.94" x2="161.35" y2="-95.584"/>
				
					<line fill="none" stroke="#00ABEB" stroke-width="0.15" stroke-miterlimit="10" x1="166.793" y1="226.94" x2="166.793" y2="-95.584"/>
				
					<line fill="none" stroke="#00ABEB" stroke-width="0.15" stroke-miterlimit="10" x1="172.234" y1="226.94" x2="172.234" y2="-95.584"/>
				
					<line fill="none" stroke="#00ABEB" stroke-width="0.15" stroke-miterlimit="10" x1="177.677" y1="226.94" x2="177.677" y2="-95.584"/>
				
					<line fill="none" stroke="#00ABEB" stroke-width="0.15" stroke-miterlimit="10" x1="183.12" y1="226.94" x2="183.12" y2="-95.584"/>
				
					<line fill="none" stroke="#00ABEB" stroke-width="0.15" stroke-miterlimit="10" x1="188.561" y1="226.94" x2="188.561" y2="-95.584"/>
				
					<line fill="none" stroke="#00ABEB" stroke-width="0.15" stroke-miterlimit="10" x1="194.004" y1="226.94" x2="194.004" y2="-95.584"/>
				
					<line fill="none" stroke="#00ABEB" stroke-width="0.15" stroke-miterlimit="10" x1="199.447" y1="226.94" x2="199.447" y2="-95.584"/>
				
					<line fill="none" stroke="#00ABEB" stroke-width="0.15" stroke-miterlimit="10" x1="204.888" y1="226.94" x2="204.888" y2="-95.584"/>
			</g>
			<g id="Horizontal_5_mm_1_">
				
					<line fill="none" stroke="#00ABEB" stroke-width="0.3" stroke-miterlimit="10" x1="-231.177" y1="226.966" x2="204.878" y2="226.966"/>
				
					<line fill="none" stroke="#00ABEB" stroke-width="0.3" stroke-miterlimit="10" x1="-231.177" y1="200.1" x2="204.878" y2="200.1"/>
				
					<line fill="none" stroke="#00ABEB" stroke-width="0.3" stroke-miterlimit="10" x1="-231.177" y1="173.232" x2="204.878" y2="173.232"/>
				
					<line fill="none" stroke="#00ABEB" stroke-width="0.3" stroke-miterlimit="10" x1="-231.177" y1="146.364" x2="204.878" y2="146.364"/>
				
					<line fill="none" stroke="#00ABEB" stroke-width="0.3" stroke-miterlimit="10" x1="-231.177" y1="119.497" x2="204.878" y2="119.497"/>
				
					<line fill="none" stroke="#00ABEB" stroke-width="0.3" stroke-miterlimit="10" x1="-231.177" y1="92.63" x2="204.878" y2="92.63"/>
				
					<line fill="none" stroke="#00ABEB" stroke-width="0.3" stroke-miterlimit="10" x1="-231.177" y1="65.763" x2="204.878" y2="65.763"/>
				
					<line fill="none" stroke="#00ABEB" stroke-width="0.3" stroke-miterlimit="10" x1="-231.177" y1="38.895" x2="204.878" y2="38.895"/>
				
					<line fill="none" stroke="#00ABEB" stroke-width="0.3" stroke-miterlimit="10" x1="-231.177" y1="12.027" x2="204.878" y2="12.027"/>
				
					<line fill="none" stroke="#00ABEB" stroke-width="0.3" stroke-miterlimit="10" x1="-231.177" y1="-14.839" x2="204.878" y2="-14.839"/>
				
					<line fill="none" stroke="#00ABEB" stroke-width="0.3" stroke-miterlimit="10" x1="-231.177" y1="-41.706" x2="204.878" y2="-41.706"/>
			</g>
			<g id="Vertical_5_mm">
				
					<line fill="none" stroke="#00ABEB" stroke-width="0.3" stroke-miterlimit="10" x1="-230.505" y1="226.94" x2="-230.505" y2="-96.105"/>
				
					<line fill="none" stroke="#00ABEB" stroke-width="0.3" stroke-miterlimit="10" x1="-203.294" y1="226.94" x2="-203.294" y2="-96.105"/>
				
					<line fill="none" stroke="#00ABEB" stroke-width="0.3" stroke-miterlimit="10" x1="-176.081" y1="226.94" x2="-176.081" y2="-96.105"/>
				
					<line fill="none" stroke="#00ABEB" stroke-width="0.3" stroke-miterlimit="10" x1="-148.87" y1="226.94" x2="-148.87" y2="-96.105"/>
				
					<line fill="none" stroke="#00ABEB" stroke-width="0.3" stroke-miterlimit="10" x1="-121.657" y1="226.94" x2="-121.657" y2="-96.105"/>
				
					<line fill="none" stroke="#00ABEB" stroke-width="0.3" stroke-miterlimit="10" x1="-94.444" y1="226.94" x2="-94.444" y2="-96.105"/>
				
					<line fill="none" stroke="#00ABEB" stroke-width="0.3" stroke-miterlimit="10" x1="-67.233" y1="226.94" x2="-67.233" y2="-96.105"/>
				
					<line fill="none" stroke="#00ABEB" stroke-width="0.3" stroke-miterlimit="10" x1="-40.021" y1="226.94" x2="-40.021" y2="-96.105"/>
				
					<line fill="none" stroke="#00ABEB" stroke-width="0.3" stroke-miterlimit="10" x1="-12.81" y1="226.94" x2="-12.81" y2="-96.105"/>
				
					<line fill="none" stroke="#00ABEB" stroke-width="0.3" stroke-miterlimit="10" x1="14.404" y1="226.94" x2="14.404" y2="-96.105"/>
				
					<line fill="none" stroke="#00ABEB" stroke-width="0.3" stroke-miterlimit="10" x1="41.616" y1="226.94" x2="41.616" y2="-96.105"/>
				
					<line fill="none" stroke="#00ABEB" stroke-width="0.3" stroke-miterlimit="10" x1="68.827" y1="226.94" x2="68.827" y2="-96.105"/>
				
					<line fill="none" stroke="#00ABEB" stroke-width="0.3" stroke-miterlimit="10" x1="96.04" y1="226.94" x2="96.04" y2="-96.105"/>
				
					<line fill="none" stroke="#00ABEB" stroke-width="0.3" stroke-miterlimit="10" x1="123.253" y1="226.94" x2="123.253" y2="-96.105"/>
				
					<line fill="none" stroke="#00ABEB" stroke-width="0.3" stroke-miterlimit="10" x1="150.465" y1="226.94" x2="150.465" y2="-96.105"/>
				
					<line fill="none" stroke="#00ABEB" stroke-width="0.3" stroke-miterlimit="10" x1="177.677" y1="226.94" x2="177.677" y2="-96.105"/>
				
					<line fill="none" stroke="#00ABEB" stroke-width="0.3" stroke-miterlimit="10" x1="204.888" y1="226.94" x2="204.888" y2="-96.105"/>
			</g>
			<g id="Horizontal_10_mm">
				
					<line id="_x31_9_1_" fill="none" stroke="#00ABEB" stroke-width="0.7" stroke-miterlimit="10" x1="-231.177" y1="226.966" x2="204.878" y2="226.966"/>
				
					<line id="_x32_0" fill="none" stroke="#00ABEB" stroke-width="0.7" stroke-miterlimit="10" x1="-231.177" y1="173.232" x2="204.878" y2="173.232"/>
				
					<line id="_x32_1" fill="none" stroke="#00ABEB" stroke-width="0.7" stroke-miterlimit="10" x1="-231.177" y1="119.497" x2="204.878" y2="119.497"/>
				
					<line id="_x32_2" fill="none" stroke="#00ABEB" stroke-width="0.7" stroke-miterlimit="10" x1="-231.177" y1="65.763" x2="204.878" y2="65.763"/>
				
					<line id="_x32_3" fill="none" stroke="#00ABEB" stroke-width="0.7" stroke-miterlimit="10" x1="-231.177" y1="12.027" x2="204.878" y2="12.027"/>
				
					<line id="_x32_4" fill="none" stroke="#00ABEB" stroke-width="0.7" stroke-miterlimit="10" x1="-231.177" y1="-41.706" x2="204.878" y2="-41.706"/>
				
					<line id="_x32_5" fill="none" stroke="#00ABEB" stroke-width="0.7" stroke-miterlimit="10" x1="-231.177" y1="-95.442" x2="204.878" y2="-95.442"/>
			</g>
			<g id="Vertical_10_mm">
				
					<line id="_x30_" fill="none" stroke="#00ABEB" stroke-width="0.7" stroke-miterlimit="10" x1="-230.505" y1="226.94" x2="-230.505" y2="-96.105"/>
				
					<line id="_x31_" fill="none" stroke="#00ABEB" stroke-width="0.7" stroke-miterlimit="10" x1="-176.081" y1="226.94" x2="-176.081" y2="-96.105"/>
				
					<line id="_x32_" fill="none" stroke="#00ABEB" stroke-width="0.7" stroke-miterlimit="10" x1="-121.657" y1="226.94" x2="-121.657" y2="-96.105"/>
				
					<line id="_x33_" fill="none" stroke="#00ABEB" stroke-width="0.7" stroke-miterlimit="10" x1="-67.233" y1="226.94" x2="-67.233" y2="-96.105"/>
				
					<line id="_x34_" fill="none" stroke="#00ABEB" stroke-width="0.7" stroke-miterlimit="10" x1="-12.81" y1="226.94" x2="-12.81" y2="-96.105"/>
				
					<line id="_x35_" fill="none" stroke="#00ABEB" stroke-width="0.7" stroke-miterlimit="10" x1="41.616" y1="226.94" x2="41.616" y2="-96.105"/>
				
					<line id="_x36_" fill="none" stroke="#00ABEB" stroke-width="0.7" stroke-miterlimit="10" x1="96.04" y1="226.94" x2="96.04" y2="-96.105"/>
				
					<line id="_x37_" fill="none" stroke="#00ABEB" stroke-width="0.7" stroke-miterlimit="10" x1="150.465" y1="226.94" x2="150.465" y2="-96.105"/>
				
					<line id="_x38_" fill="none" stroke="#00ABEB" stroke-width="0.7" stroke-miterlimit="10" x1="204.888" y1="226.94" x2="204.888" y2="-96.105"/>
			</g>
		</g>
	</g>
</g>
<g id="Layer_3">
	<path display="none" fill="none" stroke="#FF0000" stroke-width="0.7" stroke-miterlimit="10" d="M-53.006,85.252
		c30.331-53.006,94.622-12.81,133.252-80.319"/>
	<g>
		<g>
			
				<line fill="none" stroke="#0000FF" stroke-width="0.7" stroke-linecap="round" stroke-linejoin="round" x1="36.173" y1="43.659" x2="49.255" y2="12.188"/>
			<g>
				<polygon fill="#0000FF" points="51.008,15.429 50.351,15.673 49.152,12.437 46.012,13.869 45.721,13.231 49.547,11.488 				"/>
			</g>
		</g>
	</g>
	<g>
		<g>
			
				<line fill="none" stroke="#00B200" stroke-width="0.4" stroke-linecap="round" stroke-linejoin="round" x1="36.173" y1="43.659" x2="52.456" y2="37.121"/>
			<g>
				<polygon fill="#00B200" points="51.836,39.133 51.474,38.963 52.314,37.179 50.473,36.471 50.617,36.097 52.859,36.96 				"/>
			</g>
		</g>
	</g>
	<g>
		<path fill="#00B200" d="M47.374,48.385l4.797-8.012h0.312l1.583,8.012H47.374z M51.644,42.076l-3.058,5.181h4.102L51.644,42.076z"
			/>
		<path fill="#00B200" d="M57.393,45.291c0.228-0.504,0.636-1.14,1.127-1.655c0.312-0.324,0.671-0.54,0.947-0.54
			c0.336,0,0.564,0.252,0.564,0.612s-0.204,0.647-0.564,0.647c-0.216,0-0.312-0.132-0.419-0.312
			c-0.072-0.12-0.108-0.168-0.192-0.168c-0.216,0-0.552,0.396-0.983,1.127c-0.516,0.888-0.732,1.368-1.332,3.382h-0.912l0.972-3.502
			c0.168-0.624,0.192-0.732,0.192-0.983c0-0.252-0.216-0.312-0.456-0.312c-0.096,0-0.192,0.012-0.372,0.036V43.42l1.859-0.324
			l0.036,0.024l-0.66,2.591L57.393,45.291z"/>
	</g>
	<g>
		<path fill="#0000FF" d="M43.729,9.683l-0.252-0.024c0.036-0.264,0.036-0.324,0.036-0.396c0-0.875-0.276-1.032-2.387-1.032
			c-0.552,0-0.732,0.072-0.815,0.384l-0.768,2.723c2.015-0.024,2.051-0.048,2.59-1.127l0.216,0.06l-0.912,2.818l-0.204-0.06
			c0.072-0.372,0.096-0.54,0.096-0.731c0-0.48-0.335-0.528-0.899-0.528c-0.264,0-0.552-0.012-0.996-0.036l-0.708,2.554
			c-0.084,0.3-0.168,0.54-0.168,0.72c0,0.288,0.216,0.42,0.924,0.468v0.192h-3.01v-0.192c0.695-0.048,0.815-0.312,0.995-0.936
			l1.475-5.301c0.084-0.3,0.12-0.54,0.12-0.731c0-0.336-0.12-0.408-0.912-0.479V7.836h5.961L43.729,9.683z"/>
	</g>
	<g>
		<g>
			
				<line fill="none" stroke="#0000FF" stroke-width="0.5" stroke-linecap="round" stroke-linejoin="round" x1="37.693" y1="5.043" x2="43.575" y2="5.043"/>
			<g>
				<polygon fill="#0000FF" points="41.918,7.088 41.577,6.722 43.383,5.043 41.577,3.365 41.918,2.999 44.117,5.043 				"/>
			</g>
		</g>
	</g>
	<g>
		<g>
			
				<line fill="none" stroke="#00B200" stroke-width="0.5" stroke-linecap="round" stroke-linejoin="round" x1="55.647" y1="40.369" x2="59.973" y2="40.369"/>
			<g>
				<polygon fill="#00B200" points="58.316,42.414 57.975,42.047 59.781,40.369 57.975,38.69 58.316,38.324 60.515,40.369 				"/>
			</g>
		</g>
	</g>
</g>
<g id="axis" display="none">
	<g display="inline">
		<g>
			<line fill="none" stroke="#262626" stroke-width="0.5" x1="-12.663" y1="179.117" x2="-12.663" y2="-43.027"/>
			<g>
				<polygon fill="#262626" points="-10.811,-41.623 -12.663,-42.41 -14.514,-41.623 -12.663,-46.012 				"/>
			</g>
		</g>
	</g>
	<g display="inline">
		<g>
			<line fill="none" stroke="#262626" stroke-width="0.5" x1="-125.006" y1="65.317" x2="102.586" y2="65.317"/>
			<g>
				<polygon fill="#262626" points="101.181,67.168 101.968,65.317 101.181,63.465 105.571,65.317 				"/>
			</g>
		</g>
	</g>
	<g display="inline" enable-background="new    ">
		<path fill="#262626" d="M-19.934-44.932c1.448-2.401,2.078-3.627,2.078-4.376c0-0.239-0.119-0.341-0.443-0.545
			c-0.34-0.222-0.442-0.392-0.442-0.665c0-0.375,0.29-0.63,0.682-0.63c0.511,0,0.885,0.426,0.885,0.937
			c0,0.971-0.817,2.844-2.23,5.194c-1.771,2.929-3.593,4.887-4.563,4.887c-0.511,0-0.869-0.29-0.869-0.732
			c0-0.375,0.29-0.681,0.665-0.681c0.596,0,0.596,0.477,1.038,0.477c0.222,0,0.426-0.136,0.817-0.562
			c0.307-0.323,1.073-1.328,1.209-1.549c0.103-0.205,0.171-0.409,0.171-0.596c0-0.681-0.937-4.496-1.396-5.654
			c-0.324-0.834-0.63-1.09-1.312-1.09c-0.188,0-0.341,0.017-0.527,0.068v-0.29c0.187-0.034,0.374-0.068,0.545-0.102
			c0.34-0.068,0.902-0.17,1.821-0.307h0.068c0.256,0,1.158,2.827,1.447,4.342L-19.934-44.932z"/>
	</g>
	<g display="inline" enable-background="new    ">
		<path fill="#262626" d="M105.492,70.758c1.192-1.822,1.822-2.436,2.571-2.436c0.409,0,0.698,0.256,0.698,0.63
			c0,0.357-0.238,0.613-0.579,0.613c-0.323,0-0.477-0.289-0.885-0.289c-0.307,0-0.92,0.749-1.669,2.06
			c0,0.12,0.034,0.358,0.136,0.767l0.545,2.282c0.119,0.477,0.272,0.698,0.511,0.698c0.222,0,0.409-0.171,0.801-0.682
			c0.153-0.204,0.222-0.307,0.357-0.477l0.256,0.153c-0.988,1.532-1.431,1.941-2.078,1.941c-0.545,0-0.8-0.307-1.004-1.158
			l-0.494-2.026l-1.499,2.026c-0.749,1.005-1.09,1.158-1.617,1.158c-0.528,0-0.852-0.272-0.852-0.716
			c0-0.34,0.238-0.612,0.579-0.612c0.153,0,0.323,0.067,0.545,0.188c0.17,0.102,0.341,0.152,0.442,0.152
			c0.188,0,0.511-0.323,0.869-0.834l1.396-1.976l-0.477-2.111c-0.238-1.021-0.357-1.158-0.783-1.158
			c-0.136,0-0.341,0.034-0.664,0.119l-0.307,0.085l-0.051-0.271l0.188-0.068c1.038-0.375,1.601-0.494,1.992-0.494
			c0.426,0,0.63,0.307,0.868,1.465L105.492,70.758z"/>
	</g>
</g>
</svg>
