<?xml version="1.0" encoding="utf-8"?>
<!-- Generator: Adobe Illustrator 25.4.1, SVG Export Plug-In . SVG Version: 6.00 Build 0)  -->
<svg version="1.1" id="Layer_1" xmlns="http://www.w3.org/2000/svg" xmlns:xlink="http://www.w3.org/1999/xlink" x="0px" y="0px"
	 viewBox="0 0 238.252 216" enable-background="new 0 0 238.252 216" xml:space="preserve">
<line fill="none" stroke="#00A651" stroke-linecap="round" stroke-linejoin="round" stroke-miterlimit="10" x1="85.252" y1="144" x2="229.252" y2="144"/>
<line fill="none" stroke="#2E3192" stroke-linecap="round" stroke-linejoin="round" stroke-miterlimit="10" x1="85.252" y1="144" x2="85.252" y2="0"/>
<line fill="none" stroke="#ED1C24" stroke-linecap="round" stroke-linejoin="round" stroke-miterlimit="10" x1="85.252" y1="144" x2="13.252" y2="216"/>
<g>
	<g>
		
			<line fill="none" stroke="#ED1C24" stroke-width="2" stroke-linecap="round" stroke-linejoin="round" x1="85.252" y1="144" x2="59.785" y2="169.466"/>
		<g>
			<polygon fill="#ED1C24" points="58.687,158.996 60.688,159.068 60.327,168.922 70.183,168.562 70.254,170.563 58.25,170.999 			
				"/>
		</g>
	</g>
</g>
<g>
	<g>
		
			<line fill="none" stroke="#00A651" stroke-width="2" stroke-linecap="round" stroke-linejoin="round" x1="85.252" y1="144" x2="128.083" y2="144"/>
		<g>
			<polygon fill="#00A651" points="121.456,152.18 120.091,150.715 127.315,144.002 120.091,137.287 121.456,135.822 
				130.252,144.002 			"/>
		</g>
	</g>
</g>
<g>
	<g>
		
			<line fill="none" stroke="#2E3192" stroke-width="2" stroke-linecap="round" stroke-linejoin="round" x1="85.252" y1="144" x2="85.252" y2="101.169"/>
		<g>
			<polygon fill="#2E3192" points="93.431,107.796 91.966,109.16 85.253,101.937 78.539,109.16 77.074,107.796 85.253,99 			"/>
		</g>
	</g>
</g>
<g>
	<path fill="#ED1C24" d="M9.353,201.039c1.4-2.141,2.141-2.861,3.021-2.861c0.48,0,0.82,0.301,0.82,0.74
		c0,0.42-0.28,0.721-0.68,0.721c-0.38,0-0.56-0.34-1.04-0.34c-0.36,0-1.081,0.88-1.96,2.42c0,0.141,0.04,0.42,0.16,0.9l0.64,2.681
		c0.14,0.56,0.32,0.82,0.6,0.82c0.26,0,0.48-0.2,0.94-0.801c0.18-0.239,0.26-0.359,0.42-0.56l0.3,0.18
		c-1.16,1.801-1.68,2.28-2.44,2.28c-0.64,0-0.94-0.359-1.18-1.36l-0.58-2.38l-1.761,2.38c-0.88,1.181-1.28,1.36-1.9,1.36
		s-1-0.319-1-0.84c0-0.4,0.28-0.72,0.68-0.72c0.18,0,0.38,0.079,0.64,0.22c0.2,0.12,0.4,0.18,0.52,0.18c0.22,0,0.6-0.38,1.02-0.979
		l1.641-2.321l-0.56-2.48c-0.28-1.2-0.42-1.36-0.92-1.36c-0.16,0-0.4,0.04-0.78,0.141l-0.36,0.1l-0.06-0.32l0.22-0.08
		c1.22-0.439,1.88-0.58,2.34-0.58c0.5,0,0.74,0.36,1.02,1.721L9.353,201.039z"/>
</g>
<g>
	<path fill="#00A651" d="M225.533,160.479c1.7-2.82,2.44-4.261,2.44-5.141c0-0.28-0.141-0.4-0.521-0.641
		c-0.4-0.26-0.52-0.46-0.52-0.78c0-0.439,0.34-0.74,0.8-0.74c0.6,0,1.04,0.5,1.04,1.101c0,1.141-0.96,3.341-2.62,6.102
		c-2.081,3.44-4.222,5.741-5.361,5.741c-0.601,0-1.021-0.34-1.021-0.86c0-0.44,0.34-0.8,0.78-0.8c0.7,0,0.7,0.56,1.221,0.56
		c0.26,0,0.5-0.16,0.96-0.66c0.36-0.38,1.26-1.561,1.42-1.82c0.12-0.24,0.2-0.48,0.2-0.7c0-0.8-1.101-5.281-1.641-6.642
		c-0.38-0.979-0.74-1.28-1.54-1.28c-0.22,0-0.4,0.021-0.62,0.08v-0.34c0.22-0.04,0.44-0.08,0.641-0.12
		c0.399-0.08,1.06-0.2,2.14-0.36h0.08c0.301,0,1.36,3.321,1.7,5.102L225.533,160.479z"/>
</g>
<g id="j-hat">
	<path fill="#00A651" d="M133.092,134.439c-0.82,3.241-2.001,4.701-3.741,4.701c-0.92,0-1.58-0.5-1.58-1.22
		c0-0.48,0.359-0.881,0.82-0.881c0.54,0,0.779,0.32,0.779,0.74c0,0.44-0.239,0.381-0.239,0.681c0,0.14,0.12,0.24,0.359,0.24
		c0.801,0,1.261-0.881,1.94-3.642l1.44-5.841c0.24-0.98,0.32-1.4,0.32-1.601c0-0.439-0.24-0.62-0.96-0.62h-0.521v-0.32
		c0.641-0.039,1.7-0.199,3.381-0.5l0.08,0.061L133.092,134.439z"/>
	<g>
		<path fill="#00A651" d="M136.715,125.889l-2.861-5.781h-0.02l-2.841,5.781h-1.36l3.621-7.302h1.2l3.621,7.302H136.715z"/>
	</g>
</g>
<g>
	<path fill="#2E3192" d="M103.474,90.758c-0.94,0.061-1.561,0.461-4.501,3.081l0.74,1.761c0.78,1.84,1.241,2.58,1.621,2.58
		c0.3,0,0.54-0.22,0.9-0.84c0.1-0.16,0.2-0.34,0.3-0.521l0.3,0.221c-0.92,1.68-1.42,2.18-2.221,2.18c-0.58,0-0.98-0.38-1.62-1.64
		c-0.36-0.7-0.88-1.94-1.201-2.821l-0.8,0.641L96.032,99h-1.5l2.82-10.562c0.26-0.96,0.32-1.42,0.36-1.76
		c-0.04-0.36-0.34-0.48-1.021-0.48h-0.36v-0.32c1.18-0.14,1.96-0.28,3.141-0.54l0.12,0.12l-2.401,9.122l0.86-0.66
		c1.88-1.44,2.861-2.4,2.861-2.801c0-0.22-0.24-0.36-0.74-0.36h-0.28v-0.319h3.581V90.758z"/>
</g>
<g id="i-hat">
	<path fill="#ED1C24" d="M53.953,159.762c-1.101,1.681-1.741,2.28-2.741,2.28c-0.66,0-0.98-0.359-0.98-1.1
		c0-0.4,0.14-1.101,0.44-2.221l0.96-3.541c0.1-0.36,0.18-0.72,0.18-0.88c0-0.4-0.2-0.46-1.28-0.48v-0.32
		c0.78-0.06,1.18-0.119,3.201-0.5l0.08,0.061l-1.88,6.861c-0.1,0.34-0.2,0.601-0.2,0.88c0,0.2,0.12,0.301,0.28,0.301
		c0.34,0,0.82-0.421,1.68-1.561L53.953,159.762z"/>
	<g>
		<path fill="#ED1C24" d="M56.333,152.183l-2.861-5.781h-0.02l-2.84,5.781h-1.36l3.621-7.302h1.2l3.621,7.302H56.333z"/>
	</g>
</g>
<g id="z-hat">
	<g>
		<path fill="#2E3192" d="M69.072,7.54c1.16,0.26,1.601,0.479,2.4,1.66c0.521,0.76,0.9,1,1.4,1c0.32,0,0.54-0.12,0.54-0.3
			c0-0.08-0.04-0.181-0.1-0.3c-0.12-0.24-0.16-0.4-0.16-0.561c0.02-0.34,0.34-0.681,0.66-0.681c0.42,0,0.7,0.301,0.7,0.74
			c0,0.801-0.74,1.521-1.86,1.521c-0.581,0-1.26-0.26-2.261-0.88c-0.94-0.58-1.58-0.84-2.101-0.84c-0.32,0-0.58,0.1-0.9,0.359
			l-0.18-0.18l6.201-7.441h-2.72c-1.041,0-1.42,0.18-1.821,1.2l-0.32-0.08l0.64-2.32h5.661v0.22L69.072,7.54z"/>
	</g>
	<g>
		<path fill="#2E3192" d="M101.91,85.386l-2.861-5.781h-0.02l-2.84,5.781h-1.36l3.621-7.302h1.2l3.621,7.302H101.91z"/>
	</g>
</g>
<g>
</g>
<g>
</g>
<g>
</g>
<g>
</g>
<g>
</g>
<g>
</g>
<g>
</g>
</svg>
