<?xml version="1.0" encoding="utf-8"?>
<!-- Generator: Adobe Illustrator 15.0.0, SVG Export Plug-In . SVG Version: 6.00 Build 0)  -->
<!DOCTYPE svg PUBLIC "-//W3C//DTD SVG 1.0//EN" "http://www.w3.org/TR/2001/REC-SVG-20010904/DTD/svg10.dtd">
<svg version="1.0" id="Layer_1" xmlns="http://www.w3.org/2000/svg" xmlns:xlink="http://www.w3.org/1999/xlink" x="0px" y="0px"
	 width="255.119px" height="189.921px" viewBox="0 0 255.119 189.921" enable-background="new 0 0 255.119 189.921"
	 xml:space="preserve">
<g>
	<g>
		<line fill="none" stroke="#231F20" stroke-miterlimit="10" x1="164.56" y1="20.655" x2="164.56" y2="184.252"/>
		<g>
			<polygon fill="#231F20" points="161.493,23.14 162.042,23.651 164.56,20.942 167.077,23.651 167.627,23.14 164.56,19.841 			"/>
		</g>
	</g>
</g>
<g>
	<g>
		<line fill="none" stroke="#231F20" stroke-miterlimit="10" x1="220.29" y1="121.891" x2="5.669" y2="121.89"/>
		<g>
			<polygon fill="#231F20" points="217.805,118.824 217.293,119.373 220.002,121.89 217.293,124.409 217.805,124.958 
				221.103,121.89 			"/>
		</g>
	</g>
</g>
<g>
	<line fill="none" stroke="#993300" stroke-width="2" stroke-miterlimit="10" x1="45.354" y1="127.558" x2="34.501" y2="116.705"/>
	<line fill="none" stroke="#993300" stroke-width="2" stroke-miterlimit="10" x1="34.016" y1="127.073" x2="44.87" y2="116.219"/>
</g>
<g>
	
		<line fill="none" stroke="#993300" stroke-width="2" stroke-miterlimit="10" x1="133.228" y1="127.558" x2="122.375" y2="116.705"/>
	<line fill="none" stroke="#993300" stroke-width="2" stroke-miterlimit="10" x1="121.89" y1="127.073" x2="132.743" y2="116.219"/>
</g>
<text transform="matrix(1 0 0 1 226.7725 127.5601)"><tspan x="0" y="0" font-family="'STIX-Regular'" font-size="12">ℜ</tspan><tspan x="10.488" y="0" font-family="'STIX-Italic'" font-size="12">(s)</tspan></text>
<text transform="matrix(1 0 0 1 153.0713 14.1733)"><tspan x="0" y="0" font-family="'STIX-Regular'" font-size="12">ℑ</tspan><tspan x="9.144" y="0" font-family="'STIX-Italic'" font-size="12">(s)</tspan></text>
<text transform="matrix(1 0 0 1 121.8892 136.062)"><tspan x="0" y="0" fill="#993300" font-family="'STIX-Italic'" font-size="12">p</tspan><tspan x="6.048" y="4" fill="#993300" font-family="'STIX-Italic'" font-size="7">2</tspan></text>
<text transform="matrix(1 0 0 1 34.0156 136.062)"><tspan x="0" y="0" fill="#993300" font-family="'STIX-Italic'" font-size="12">p</tspan><tspan x="6.048" y="4" fill="#993300" font-family="'STIX-Italic'" font-size="7">1</tspan></text>
<g>
	<g>
		
			<line fill="none" stroke="#00ADEE" stroke-width="0.75" stroke-miterlimit="10" x1="39.685" y1="121.889" x2="158.804" y2="46.087"/>
		<g>
			<polygon fill="#00ADEE" points="158.671,48.646 164.362,42.444 156.332,44.97 			"/>
		</g>
	</g>
</g>
<g>
	<g>
		
			<line fill="none" stroke="#00ADEE" stroke-width="0.75" stroke-miterlimit="10" x1="127.559" y1="121.889" x2="161.612" y2="48.545"/>
		<g>
			<polygon fill="#00ADEE" points="162.879,50.772 164.329,42.481 158.927,48.938 			"/>
		</g>
	</g>
</g>
<text transform="matrix(1 0 0 1 170.0791 48.1895)" fill="#00ADEE" font-family="'STIX-Regular'" font-size="12">jω</text>
</svg>
