<?xml version="1.0" encoding="utf-8"?>
<!-- Generator: Adobe Illustrator 15.0.0, SVG Export Plug-In . SVG Version: 6.00 Build 0)  -->
<!DOCTYPE svg PUBLIC "-//W3C//DTD SVG 1.1//EN" "http://www.w3.org/Graphics/SVG/1.1/DTD/svg11.dtd">
<svg version="1.1" id="Layer_1" xmlns="http://www.w3.org/2000/svg" xmlns:xlink="http://www.w3.org/1999/xlink" x="0px" y="0px"
	 width="339.5px" height="252.5px" viewBox="-41.44 -33.04 339.5 252.5" enable-background="new -41.44 -33.04 339.5 252.5"
	 xml:space="preserve">
<g>
	<g>
		
			<line fill="none" stroke="#231F20" stroke-width="1.35" stroke-miterlimit="10" x1="179.643" y1="-6.84" x2="179.643" y2="214.015"/>
		<g>
			<polygon fill="#231F20" points="175.503,-3.485 176.244,-2.796 179.643,-6.453 183.041,-2.796 183.783,-3.485 179.643,-7.939 			
				"/>
		</g>
	</g>
</g>
<g>
	<g>
		
			<line fill="none" stroke="#231F20" stroke-width="1.35" stroke-miterlimit="10" x1="254.879" y1="129.829" x2="-34.86" y2="129.828"/>
		<g>
			<polygon fill="#231F20" points="251.523,125.688 250.833,126.428 254.49,129.828 250.833,133.229 251.523,133.969 
				255.976,129.828 			"/>
		</g>
	</g>
</g>
<g>
	
		<line fill="none" stroke="#993300" stroke-width="2.7" stroke-miterlimit="10" x1="79.465" y1="137.479" x2="64.813" y2="122.827"/>
	<line fill="none" stroke="#993300" stroke-width="2.7" stroke-miterlimit="10" x1="64.159" y1="136.825" x2="78.812" y2="122.17"/>
</g>
<text transform="matrix(1 0 0 1 263.6309 137.4819)" font-family="'STIX-Regular'" font-size="16.2">ℜ</text>
<text transform="matrix(1 0 0 1 277.79 137.4819)" font-family="'STIX-Italic'" font-size="16.2">(s)</text>
<text transform="matrix(1 0 0 1 164.1338 -15.5898)" font-family="'STIX-Regular'" font-size="16.2">ℑ</text>
<text transform="matrix(1 0 0 1 176.4795 -15.5898)" font-family="'STIX-Italic'" font-size="16.2">(s)</text>
<text transform="matrix(1 0 0 1 68.209 148.9595)" fill="#993300" font-family="'STIX-Italic'" font-size="16.2">p</text>
</svg>
