<?xml version="1.0" encoding="utf-8"?>
<!-- Generator: Adobe Illustrator 15.0.0, SVG Export Plug-In . SVG Version: 6.00 Build 0)  -->
<!DOCTYPE svg PUBLIC "-//W3C//DTD SVG 1.0//EN" "http://www.w3.org/TR/2001/REC-SVG-20010904/DTD/svg10.dtd">
<svg version="1.0" id="Layer_1" xmlns="http://www.w3.org/2000/svg" xmlns:xlink="http://www.w3.org/1999/xlink" x="0px" y="0px"
	 width="255.119px" height="226.813px" viewBox="0 0 255.119 226.813" enable-background="new 0 0 255.119 226.813"
	 xml:space="preserve">
<g opacity="0.2">
	<g>
		<g>
			
				<line fill="none" stroke="#231F20" stroke-width="1.1142" stroke-miterlimit="10" x1="116.37" y1="20.748" x2="116.37" y2="223.936"/>
			<g>
				<polygon fill="#231F20" points="112.953,23.516 113.564,24.086 116.369,21.068 119.175,24.086 119.787,23.516 116.369,19.841 
									"/>
			</g>
		</g>
	</g>
	<g>
		<g>
			<line fill="none" stroke="#231F20" stroke-miterlimit="10" x1="220.29" y1="121.891" x2="5.669" y2="121.89"/>
			<g>
				<polygon fill="#231F20" points="217.805,118.824 217.293,119.373 220.002,121.89 217.293,124.409 217.805,124.958 
					221.103,121.89 				"/>
			</g>
		</g>
	</g>
</g>
<g opacity="0.2">
	
		<line fill="none" stroke="#993300" stroke-width="2" stroke-miterlimit="10" x1="155.905" y1="195.589" x2="145.052" y2="184.736"/>
	<line fill="none" stroke="#993300" stroke-width="2" stroke-miterlimit="10" x1="144.567" y1="195.104" x2="155.42" y2="184.25"/>
</g>
<g opacity="0.2">
	<g>
		<path d="M236.715,126.433c-0.36,0.371-1.235,1.067-1.799,1.391h-0.168c-0.923-0.3-1.188-1.619-1.188-2.507
			c0-0.779-0.072-1.654-0.624-1.835l-0.887,0.216c-0.336,1.439-1.2,2.986-2.363,4.126c-0.324-0.191-1.248-0.72-1.416-0.743
			c-0.084,0.071-0.324,0.275-0.527,0.588l-0.264-0.168l1.127-1.739c0.24,0.144,1.283,0.731,1.439,0.731
			c0.611,0,0.611-2.446,0.611-3.79c0-0.911-0.084-3.106-1.295-3.106c-0.504,0-0.804,0.396-0.804,0.804
			c0,1.188,1.379,1.008,1.379,2.351c0,0.828-0.959,1.596-1.991,1.848l-0.108-0.265c0.336-0.107,0.899-0.455,0.899-0.971
			c0-1.032-1.367-1.176-1.367-2.279c0-1.188,1.02-1.858,2.219-1.858c0.936,0,1.667,0.479,2.123,1.055l1.595-1.163
			c1.559,0,2.351,0.852,2.351,1.787c0,0.888-0.48,1.679-1.487,2.063v0.024c1.475,0.924,0.612,3.742,1.703,3.742
			c0.132,0,0.492-0.372,0.647-0.54L236.715,126.433z M232.493,123.195c1.392-0.3,1.763-1.248,1.763-2.003
			c0-0.468-0.348-1.151-1.115-1.151c-0.468,0-0.768,0.18-1.235,0.647c0.132,0.372,0.24,0.947,0.24,1.295s-0.012,0.912-0.048,1.296
			L232.493,123.195z"/>
		<path d="M241.038,119.716c-1.823,1.728-2.447,4.378-2.447,6.824c0,1.163,0.132,1.896,0.576,3.118l-0.216,0.072
			c-0.768-1.235-1.187-2.795-1.187-4.33c0-1.235,0.264-2.458,0.887-3.478c0.468-0.756,1.127-1.38,2.231-2.387L241.038,119.716z"/>
		<path d="M242.348,126.684c0.696,0.156,0.959,0.288,1.439,0.996c0.312,0.455,0.54,0.6,0.839,0.6c0.192,0,0.324-0.072,0.324-0.18
			c0-0.048-0.024-0.108-0.06-0.181c-0.072-0.144-0.096-0.239-0.096-0.335c0.012-0.204,0.204-0.408,0.396-0.408
			c0.251,0,0.419,0.18,0.419,0.443c0,0.48-0.444,0.912-1.115,0.912c-0.348,0-0.756-0.156-1.355-0.528
			c-0.563-0.348-0.947-0.503-1.259-0.503c-0.192,0-0.348,0.06-0.54,0.216l-0.108-0.108l3.718-4.461h-1.631
			c-0.624,0-0.852,0.107-1.091,0.719l-0.192-0.048l0.384-1.391h3.394v0.132L242.348,126.684z"/>
		<path d="M248.203,119.537c0.563,1.007,0.755,1.475,0.959,2.362c0.144,0.672,0.228,1.367,0.228,2.016
			c0,1.211-0.336,2.351-0.936,3.382c-0.468,0.804-1.092,1.475-2.183,2.423l-0.156-0.181c1.007-1.067,1.451-1.87,1.859-3.142
			c0.372-1.151,0.588-2.531,0.588-3.658c0-1.199-0.18-2.171-0.588-3.143L248.203,119.537z"/>
	</g>
	<g>
		<path d="M113.097,9.364c-0.324-0.288-0.54-0.359-0.779-0.359c-0.324,0-0.684,0.228-0.684,0.695c0,0.672,1.283,1.512,1.283,2.65
			c0,1.212-1.319,2.231-2.867,2.231c-1.043,0-1.571-0.156-2.003-0.48c-0.419-0.312-0.647-0.659-0.839-1.104
			c-0.18-0.407-0.432-0.6-0.671-0.6c-0.336,0-0.672,0.265-0.84,0.612l-0.276-0.072c0.108-0.468,0.792-1.499,1.715-1.499
			c1.151,0,1.439,0.911,1.703,1.691c0.24,0.695,0.647,0.995,1.307,0.995c0.792,0,1.295-0.516,1.295-1.128
			c0-1.187-1.116-1.715-1.116-2.986c0-0.911,0.828-1.511,1.619-1.511s1.067,0.312,1.367,0.672L113.097,9.364z M113.409,6.173
			c-0.192,0.72-0.6,1.812-1.979,1.812c-1.403,0-1.871-0.947-3.238-0.947c-0.6,0-1.403,0.396-1.403,1.367
			c0,0.815,0.648,1.211,1.224,1.211c0.264,0,0.54-0.06,0.779-0.168l0.096,0.264c-0.348,0.181-0.588,0.24-0.923,0.24
			c-1.235,0-1.991-0.708-1.991-1.739c0-1.223,1.056-2.374,2.603-2.374c1.811,0,2.159,0.947,3.55,0.947
			c0.6,0,0.923-0.528,1.007-0.696L113.409,6.173z"/>
		<path d="M117.803,6.33c-1.823,1.728-2.447,4.378-2.447,6.824c0,1.163,0.132,1.896,0.576,3.118l-0.216,0.072
			c-0.768-1.235-1.187-2.795-1.187-4.33c0-1.235,0.264-2.458,0.887-3.478c0.468-0.756,1.127-1.38,2.231-2.387L117.803,6.33z"/>
		<path d="M119.113,13.297c0.696,0.156,0.959,0.288,1.439,0.996c0.312,0.455,0.54,0.6,0.839,0.6c0.192,0,0.324-0.072,0.324-0.18
			c0-0.048-0.024-0.108-0.06-0.181c-0.072-0.144-0.096-0.239-0.096-0.335c0.012-0.204,0.204-0.408,0.396-0.408
			c0.251,0,0.419,0.18,0.419,0.443c0,0.48-0.444,0.912-1.115,0.912c-0.348,0-0.756-0.156-1.355-0.528
			c-0.563-0.348-0.947-0.503-1.259-0.503c-0.192,0-0.348,0.06-0.54,0.216l-0.108-0.108l3.718-4.461h-1.631
			c-0.624,0-0.852,0.107-1.091,0.719l-0.192-0.048l0.384-1.391h3.394v0.132L119.113,13.297z"/>
		<path d="M124.968,6.15c0.563,1.007,0.755,1.475,0.959,2.362c0.144,0.672,0.228,1.367,0.228,2.016c0,1.211-0.336,2.351-0.936,3.382
			c-0.468,0.804-1.092,1.475-2.183,2.423l-0.156-0.181c1.007-1.067,1.451-1.87,1.859-3.142c0.372-1.151,0.588-2.531,0.588-3.658
			c0-1.199-0.18-2.171-0.588-3.143L124.968,6.15z"/>
	</g>
</g>
<g>
	<path fill="#231F20" d="M170.354,178.582l6.548-6.561l0.6,0.504l-5.241,5.265h5.529v0.792H170.354z"/>
	<path fill="#231F20" d="M180.529,174.648c0.647-0.972,1.331-1.355,2.051-1.355c0.887,0,1.379,0.563,1.379,1.499
		c0,1.979-1.811,3.922-3.563,3.922c-0.275,0-0.527-0.048-0.827-0.204c-0.204,0.84-0.48,1.823-0.48,1.991
		c0,0.264,0.18,0.348,0.744,0.348v0.192h-2.435v-0.192c0.516-0.012,0.671-0.191,0.815-0.756l1.379-5.181
		c0.132-0.479,0.192-0.792,0.192-0.852c0-0.288-0.336-0.324-0.528-0.324h-0.264l-0.024-0.18l1.871-0.264
		c0.036,0,0.06,0.024,0.06,0.048c0,0-0.012,0.061-0.024,0.108L180.529,174.648z M182.136,173.808c-0.636,0-1.343,0.647-1.619,1.367
		c-0.348,0.899-0.779,2.446-0.779,2.854c0,0.264,0.24,0.456,0.575,0.456c0.636,0,1.211-0.396,1.739-1.14
		c0.576-0.804,0.828-1.679,0.828-2.519C182.879,174.144,182.675,173.808,182.136,173.808z"/>
	<path fill="#231F20" d="M187.576,176.176c0.024,0,0.04,0.024,0.04,0.057c0,0.039-0.016,0.119-0.048,0.231l-1.144,4.149
		c-0.056,0.2-0.144,0.512-0.144,0.592c0,0.184,0.176,0.256,0.527,0.256h0.168v0.12h-2.23v-0.12c0.631-0.048,0.808-0.136,0.896-0.439
		l1.087-3.902c0.04-0.151,0.064-0.231,0.064-0.287c0-0.152-0.104-0.248-0.28-0.248h-0.024c-0.144,0-0.32,0.008-0.472,0.016v-0.12
		l0.184-0.04c0.704-0.151,0.735-0.136,1.351-0.264H187.576z"/>
	<path fill="#231F20" d="M188.286,179.913c0.636-0.407,0.912-0.756,0.912-1.079c0-0.12-0.048-0.204-0.24-0.348
		c-0.24-0.18-0.3-0.36-0.3-0.588c0-0.288,0.264-0.527,0.611-0.527c0.432,0,0.696,0.407,0.696,0.887c0,0.672-0.552,1.344-1.559,1.871
		L188.286,179.913z"/>
	<path fill="#231F20" d="M192.438,177.706c0.696,0.156,0.959,0.288,1.439,0.996c0.312,0.455,0.54,0.6,0.839,0.6
		c0.192,0,0.324-0.072,0.324-0.18c0-0.048-0.024-0.108-0.06-0.181c-0.072-0.144-0.096-0.239-0.096-0.335
		c0.012-0.204,0.204-0.408,0.396-0.408c0.251,0,0.419,0.18,0.419,0.443c0,0.48-0.444,0.912-1.115,0.912
		c-0.348,0-0.756-0.156-1.355-0.528c-0.563-0.348-0.947-0.503-1.259-0.503c-0.192,0-0.348,0.06-0.54,0.216l-0.108-0.108l3.718-4.461
		h-1.631c-0.624,0-0.852,0.107-1.091,0.719l-0.192-0.048l0.384-1.391h3.394v0.132L192.438,177.706z"/>
</g>
<g>
	<path fill="#231F20" d="M164.685,48.188l6.548-6.561l0.6,0.504l-5.241,5.265h5.529v0.792H164.685z"/>
	<path fill="#231F20" d="M174.86,44.255c0.647-0.972,1.331-1.355,2.051-1.355c0.887,0,1.379,0.563,1.379,1.499
		c0,1.979-1.811,3.922-3.563,3.922c-0.275,0-0.527-0.048-0.827-0.204c-0.204,0.84-0.48,1.823-0.48,1.991
		c0,0.264,0.18,0.348,0.744,0.348v0.192h-2.435v-0.192c0.516-0.012,0.671-0.191,0.815-0.756l1.379-5.181
		c0.132-0.479,0.192-0.792,0.192-0.852c0-0.288-0.336-0.324-0.528-0.324h-0.264l-0.024-0.18l1.871-0.264
		c0.036,0,0.06,0.024,0.06,0.048c0,0-0.012,0.061-0.024,0.108L174.86,44.255z M176.467,43.415c-0.636,0-1.343,0.647-1.619,1.367
		c-0.348,0.899-0.779,2.446-0.779,2.854c0,0.264,0.24,0.456,0.575,0.456c0.636,0,1.211-0.396,1.739-1.14
		c0.576-0.804,0.828-1.679,0.828-2.519C177.21,43.751,177.006,43.415,176.467,43.415z"/>
	<path fill="#231F20" d="M179.317,47.079c0.192-0.472,0.376-0.744,0.656-0.96c0.312-0.24,0.655-0.336,1.023-0.336
		c0.768,0,1.295,0.592,1.295,1.352c0,0.535-0.248,0.903-1.191,1.871l-1.503,1.535v0.04h1.447c0.472,0,0.632-0.12,0.824-0.52
		l0.136,0.056l-0.4,1.071h-2.83v-0.136l1.679-1.791c0.528-0.56,0.888-1.063,1.08-1.495c0.048-0.104,0.072-0.256,0.072-0.432
		c0-0.552-0.32-0.968-0.951-0.968c-0.48,0-0.888,0.231-1.167,0.768L179.317,47.079z"/>
	<path fill="#231F20" d="M182.617,49.52c0.636-0.407,0.912-0.756,0.912-1.079c0-0.12-0.048-0.204-0.24-0.348
		c-0.24-0.18-0.3-0.36-0.3-0.588c0-0.288,0.264-0.527,0.611-0.527c0.432,0,0.696,0.407,0.696,0.887c0,0.672-0.552,1.344-1.559,1.871
		L182.617,49.52z"/>
	<path fill="#231F20" d="M186.769,47.313c0.696,0.156,0.959,0.288,1.439,0.996c0.312,0.455,0.54,0.6,0.839,0.6
		c0.192,0,0.324-0.072,0.324-0.18c0-0.048-0.024-0.108-0.06-0.181c-0.072-0.144-0.096-0.239-0.096-0.335
		c0.012-0.204,0.204-0.408,0.396-0.408c0.251,0,0.419,0.18,0.419,0.443c0,0.48-0.444,0.912-1.115,0.912
		c-0.348,0-0.756-0.156-1.355-0.528c-0.563-0.348-0.947-0.503-1.259-0.503c-0.192,0-0.348,0.06-0.54,0.216l-0.108-0.108l3.718-4.461
		h-1.631c-0.624,0-0.852,0.107-1.091,0.719l-0.192-0.048l0.384-1.391h3.394v0.132L186.769,47.313z"/>
</g>
<g>
	<path fill="#231F20" d="M156.181,116.22l6.548-6.561l0.6,0.504l-5.241,5.265h5.529v0.792H156.181z"/>
	<path fill="#231F20" d="M167.951,118.031c-0.012,0.049-0.024,0.097-0.024,0.133c0,0.228,0.24,0.371,0.684,0.371h0.18v0.192h-2.842
		v-0.192c0.755-0.048,0.959-0.228,1.091-0.671l1.079-3.479c-0.959,1.523-1.571,1.967-2.495,1.967c-0.755,0-1.199-0.54-1.199-1.392
		c0-1.895,1.871-4.029,3.514-4.029c0.492,0,0.804,0.204,0.923,0.743l0.192-0.587h0.875L167.951,118.031z M167.975,111.195
		c-0.348,0-0.732,0.228-1.116,0.588c-0.815,0.779-1.403,2.015-1.403,3.011c0,0.563,0.192,0.923,0.636,0.923
		c0.3,0,0.672-0.155,0.983-0.432c0.816-0.708,1.607-2.375,1.607-3.37C168.683,111.519,168.371,111.195,167.975,111.195z"/>
	<path fill="#231F20" d="M173.355,113.815c0.024,0,0.04,0.024,0.04,0.057c0,0.039-0.016,0.119-0.048,0.231l-1.143,4.149
		c-0.056,0.2-0.144,0.512-0.144,0.592c0,0.184,0.176,0.256,0.528,0.256h0.167v0.12h-2.23v-0.12c0.631-0.048,0.808-0.136,0.896-0.439
		l1.087-3.902c0.04-0.151,0.064-0.231,0.064-0.287c0-0.152-0.104-0.248-0.28-0.248h-0.024c-0.144,0-0.319,0.008-0.472,0.016v-0.12
		l0.184-0.04c0.704-0.151,0.736-0.136,1.351-0.264H173.355z"/>
	<path fill="#231F20" d="M174.065,117.551c0.636-0.407,0.912-0.756,0.912-1.079c0-0.12-0.048-0.204-0.24-0.348
		c-0.24-0.18-0.3-0.36-0.3-0.588c0-0.288,0.264-0.527,0.611-0.527c0.432,0,0.696,0.407,0.696,0.887c0,0.672-0.552,1.344-1.559,1.871
		L174.065,117.551z"/>
	<path fill="#231F20" d="M178.216,115.344c0.696,0.156,0.959,0.288,1.439,0.996c0.312,0.455,0.54,0.6,0.839,0.6
		c0.192,0,0.324-0.072,0.324-0.18c0-0.048-0.024-0.108-0.06-0.181c-0.072-0.144-0.096-0.239-0.096-0.335
		c0.012-0.204,0.204-0.408,0.396-0.408c0.252,0,0.42,0.18,0.42,0.443c0,0.48-0.444,0.912-1.115,0.912
		c-0.348,0-0.756-0.156-1.355-0.528c-0.563-0.348-0.947-0.503-1.259-0.503c-0.192,0-0.348,0.06-0.54,0.216l-0.108-0.108l3.718-4.461
		h-1.631c-0.624,0-0.852,0.107-1.091,0.719l-0.192-0.048l0.384-1.391h3.394v0.132L178.216,115.344z"/>
</g>
<g>
	<path fill="#231F20" d="M79.646,130.393l6.548-6.561l0.6,0.504l-5.241,5.265h5.529v0.792H79.646z"/>
	<path fill="#231F20" d="M91.415,132.204c-0.012,0.049-0.024,0.097-0.024,0.133c0,0.228,0.24,0.371,0.684,0.371h0.18v0.192h-2.842
		v-0.192c0.755-0.048,0.959-0.228,1.091-0.671l1.079-3.479c-0.959,1.523-1.571,1.967-2.495,1.967c-0.755,0-1.199-0.54-1.199-1.392
		c0-1.895,1.871-4.029,3.514-4.029c0.492,0,0.804,0.204,0.923,0.743l0.192-0.587h0.875L91.415,132.204z M91.439,125.368
		c-0.348,0-0.732,0.228-1.116,0.588c-0.815,0.779-1.403,2.015-1.403,3.011c0,0.563,0.192,0.923,0.636,0.923
		c0.3,0,0.672-0.155,0.983-0.432c0.816-0.708,1.607-2.375,1.607-3.37C92.147,125.692,91.835,125.368,91.439,125.368z"/>
	<path fill="#231F20" d="M94.229,129.284c0.192-0.472,0.376-0.744,0.656-0.96c0.312-0.24,0.656-0.336,1.023-0.336
		c0.768,0,1.295,0.592,1.295,1.352c0,0.535-0.248,0.903-1.191,1.871l-1.503,1.535v0.04h1.447c0.472,0,0.632-0.12,0.824-0.52
		l0.136,0.056l-0.4,1.071h-2.831v-0.136l1.679-1.791c0.528-0.56,0.888-1.063,1.08-1.495c0.048-0.104,0.072-0.256,0.072-0.432
		c0-0.552-0.32-0.968-0.951-0.968c-0.48,0-0.888,0.231-1.167,0.768L94.229,129.284z"/>
	<path fill="#231F20" d="M97.529,131.724c0.636-0.407,0.912-0.756,0.912-1.079c0-0.12-0.048-0.204-0.24-0.348
		c-0.24-0.18-0.3-0.36-0.3-0.588c0-0.288,0.264-0.527,0.611-0.527c0.432,0,0.696,0.407,0.696,0.887c0,0.672-0.552,1.344-1.559,1.871
		L97.529,131.724z"/>
	<path fill="#231F20" d="M101.681,129.517c0.696,0.156,0.959,0.288,1.439,0.996c0.312,0.455,0.54,0.6,0.839,0.6
		c0.192,0,0.324-0.072,0.324-0.18c0-0.048-0.024-0.108-0.06-0.181c-0.072-0.144-0.096-0.239-0.096-0.335
		c0.012-0.204,0.204-0.408,0.396-0.408c0.252,0,0.42,0.18,0.42,0.443c0,0.48-0.444,0.912-1.115,0.912
		c-0.348,0-0.756-0.156-1.355-0.528c-0.563-0.348-0.947-0.503-1.259-0.503c-0.192,0-0.348,0.06-0.54,0.216l-0.108-0.108l3.718-4.461
		h-1.631c-0.624,0-0.852,0.107-1.091,0.719l-0.192-0.048l0.384-1.391h3.394v0.132L101.681,129.517z"/>
</g>
<g>
	<path fill="#231F20" d="M202.351,78.493c0.696,0.156,0.959,0.288,1.439,0.996c0.312,0.455,0.54,0.6,0.839,0.6
		c0.192,0,0.324-0.072,0.324-0.18c0-0.048-0.024-0.108-0.06-0.181c-0.072-0.144-0.096-0.239-0.096-0.335
		c0.012-0.204,0.204-0.408,0.396-0.408c0.252,0,0.42,0.18,0.42,0.443c0,0.48-0.444,0.912-1.115,0.912
		c-0.348,0-0.756-0.156-1.355-0.528c-0.563-0.348-0.947-0.503-1.259-0.503c-0.192,0-0.348,0.06-0.54,0.216l-0.108-0.108l3.718-4.461
		h-1.631c-0.624,0-0.852,0.107-1.091,0.719l-0.192-0.048l0.384-1.391h3.394v0.132L202.351,78.493z"/>
	<path fill="#231F20" d="M206.958,75.531v-0.792h6.045v0.792H206.958z M206.958,77.929v-0.791h6.045v0.791H206.958z"/>
	<path fill="#231F20" d="M219.112,77.486c-0.467,1.308-1.307,2.003-2.506,2.003c-1.415,0-2.279-1.067-2.279-2.723
		c0-1.691,0.972-2.914,2.482-2.914c0.744,0,1.284,0.287,1.667,0.827c0.24,0.336,0.36,0.72,0.408,1.367h-3.694
		c0.06,0.911,0.12,1.379,0.551,1.955c0.336,0.443,0.78,0.659,1.332,0.659c0.804,0,1.259-0.371,1.847-1.259L219.112,77.486z
		 M217.661,75.663c-0.132-0.972-0.384-1.379-1.175-1.379c-0.671,0-1.139,0.479-1.271,1.379H217.661z"/>
	<path fill="#231F20" d="M222.383,75.117c-0.369,1.458-0.9,2.115-1.684,2.115c-0.414,0-0.711-0.225-0.711-0.549
		c0-0.216,0.162-0.396,0.369-0.396c0.243,0,0.351,0.145,0.351,0.333c0,0.198-0.108,0.172-0.108,0.307
		c0,0.063,0.054,0.107,0.162,0.107c0.36,0,0.567-0.396,0.874-1.638l0.648-2.629c0.108-0.441,0.144-0.631,0.144-0.721
		c0-0.198-0.108-0.278-0.432-0.278h-0.234v-0.145c0.288-0.018,0.765-0.09,1.521-0.225l0.036,0.026L222.383,75.117z M223.167,70.435
		c-0.27,0-0.486-0.188-0.486-0.468c0-0.271,0.225-0.469,0.477-0.469c0.243,0,0.459,0.234,0.459,0.486
		C223.617,70.228,223.401,70.435,223.167,70.435z"/>
	<path fill="#231F20" d="M228.018,71.417c0.459,0,0.829,0.09,1.071,0.297c0.297,0.252,0.405,0.657,0.405,1.09
		c0,0.485-0.153,0.945-0.387,1.386c-0.477,0.892-1.17,1.278-1.747,1.278c-0.702,0-0.882-0.323-1.026-0.639
		c-0.351,0.423-0.685,0.639-1.324,0.639c-0.576,0-1.161-0.378-1.161-1.269c0-0.243,0.027-0.486,0.09-0.729
		c0.297-1.09,1.225-2.053,2.494-2.053h0.162v0.144c-0.459,0-0.864,0.162-1.206,0.586c-0.45,0.566-0.783,1.539-0.783,2.286
		c0,0.621,0.225,0.847,0.513,0.847c0.405,0,0.927-0.504,1.098-0.999c-0.018-0.136-0.027-0.334-0.027-0.46
		c0-0.225,0.036-0.504,0.108-0.773c0.126-0.469,0.396-0.9,0.729-0.9c0.216,0,0.315,0.171,0.315,0.414
		c0,0.405-0.18,0.972-0.378,1.314c-0.072,0.126-0.189,0.324-0.279,0.459c-0.018,0.063-0.018,0.126-0.018,0.188
		c0,0.388,0.207,0.757,0.585,0.757c0.504,0,0.855-0.423,1.053-0.792c0.279-0.522,0.432-1.314,0.432-1.891
		c0-0.162-0.009-0.414-0.045-0.55c-0.108-0.423-0.459-0.486-0.837-0.486v-0.144H228.018z"/>
	<path fill="#231F20" d="M235.083,70.966l-0.153-0.018c0.018-0.153,0.027-0.298,0.027-0.414c0-0.478-0.324-0.729-0.91-0.729h-0.522
		l-1.233,4.411c-0.054,0.189-0.126,0.396-0.126,0.594c0,0.279,0.108,0.352,0.477,0.388l0.315,0.027v0.144h-2.593v-0.144
		c0.622-0.055,0.829-0.189,0.963-0.676l1.288-4.744c-1.422,0-1.71,0.144-2.143,1.116l-0.162-0.036l0.378-1.396h4.79L235.083,70.966z
		"/>
</g>
<g>
	<path fill="#929497" d="M207.991,130.393v-0.135c0.666-0.036,0.855-0.226,0.855-0.721v-4.042c0-0.306-0.081-0.441-0.27-0.441
		c-0.09,0-0.243,0.045-0.405,0.108l-0.243,0.09v-0.126l1.611-0.819l0.081,0.027v5.374c0,0.388,0.18,0.55,0.855,0.55v0.135H207.991z"
		/>
</g>
<g>
	<path fill="#929497" d="M121.305,130.519c-1.539,0-2.035-1.675-2.035-3.15c0-1.594,0.622-3.062,2.071-3.062
		c1.179,0,1.999,1.27,1.999,3.115C123.34,128.97,122.773,130.519,121.305,130.519z M121.287,124.542
		c-0.747,0-1.152,1.063-1.152,2.89s0.396,2.854,1.17,2.854c0.766,0,1.17-1.035,1.17-2.817
		C122.476,125.594,122.08,124.542,121.287,124.542z"/>
</g>
<line fill="none" stroke="#231F20" stroke-miterlimit="10" x1="39.685" y1="161.574" x2="39.686" y2="161.575"/>
<g>
	<g>
		<line fill="none" stroke="#00ADEE" stroke-miterlimit="10" x1="150.236" y1="53.858" x2="190.789" y2="77.711"/>
		<g>
			<polygon fill="#00ADEE" points="187.669,79.106 198.486,82.1 190.616,74.098 			"/>
		</g>
	</g>
</g>
<g>
	<g>
		<polyline fill="none" stroke="#00ADEE" stroke-miterlimit="10" points="149.864,189.921 158.81,170.078 194.784,90.28 		"/>
		<g>
			<polygon fill="#00ADEE" points="196.507,93.23 198.315,82.154 191.209,90.842 			"/>
		</g>
	</g>
</g>
<g>
	<g>
		<line fill="none" stroke="#00ADEE" stroke-miterlimit="10" x1="132.985" y1="122.131" x2="190.862" y2="86.818"/>
		<g>
			<polygon fill="#00ADEE" points="190.62,90.226 198.362,82.101 187.594,85.266 			"/>
		</g>
	</g>
</g>
<g opacity="0.2">
	<g>
		<line fill="none" stroke="#993300" stroke-width="2" stroke-miterlimit="10" x1="155.905" y1="59.528" x2="145.052" y2="48.674"/>
		<line fill="none" stroke="#993300" stroke-width="2" stroke-miterlimit="10" x1="144.567" y1="59.042" x2="155.42" y2="48.188"/>
	</g>
	<g>
		<path fill="#993300" d="M132.624,183.152c0.647-0.972,1.331-1.355,2.051-1.355c0.887,0,1.379,0.563,1.379,1.499
			c0,1.979-1.811,3.922-3.563,3.922c-0.275,0-0.527-0.048-0.827-0.204c-0.204,0.84-0.48,1.823-0.48,1.991
			c0,0.264,0.18,0.348,0.744,0.348v0.192h-2.435v-0.192c0.516-0.012,0.671-0.191,0.815-0.756l1.379-5.181
			c0.132-0.479,0.192-0.792,0.192-0.852c0-0.288-0.336-0.324-0.528-0.324h-0.264l-0.024-0.18l1.871-0.264
			c0.036,0,0.06,0.024,0.06,0.048c0,0-0.012,0.061-0.024,0.108L132.624,183.152z M134.231,182.312c-0.636,0-1.343,0.647-1.619,1.367
			c-0.348,0.899-0.779,2.446-0.779,2.854c0,0.264,0.24,0.456,0.575,0.456c0.636,0,1.211-0.396,1.739-1.14
			c0.576-0.804,0.828-1.679,0.828-2.519C134.975,182.648,134.771,182.312,134.231,182.312z"/>
		<path fill="#993300" d="M140.078,185c0.027,0,0.045,0.027,0.045,0.063c0,0.045-0.018,0.135-0.054,0.261l-1.287,4.673
			c-0.063,0.225-0.162,0.576-0.162,0.666c0,0.207,0.198,0.288,0.594,0.288h0.189v0.135h-2.512v-0.135
			c0.711-0.055,0.909-0.153,1.008-0.495l1.224-4.394c0.045-0.171,0.072-0.261,0.072-0.324c0-0.171-0.117-0.279-0.315-0.279h-0.027
			c-0.162,0-0.36,0.009-0.531,0.019v-0.136l0.208-0.045c0.792-0.171,0.828-0.152,1.521-0.297H140.078z"/>
	</g>
	<g>
		<path fill="#993300" d="M139.888,135.039c-0.012,0.049-0.024,0.097-0.024,0.133c0,0.228,0.24,0.371,0.684,0.371h0.18v0.192h-2.842
			v-0.192c0.755-0.048,0.959-0.228,1.091-0.671l1.079-3.479c-0.959,1.523-1.571,1.967-2.495,1.967c-0.755,0-1.199-0.54-1.199-1.392
			c0-1.895,1.871-4.029,3.514-4.029c0.492,0,0.804,0.204,0.923,0.743l0.192-0.587h0.875L139.888,135.039z M139.913,128.203
			c-0.348,0-0.732,0.228-1.116,0.588c-0.815,0.779-1.403,2.015-1.403,3.011c0,0.563,0.192,0.923,0.636,0.923
			c0.3,0,0.672-0.155,0.983-0.432c0.816-0.708,1.607-2.375,1.607-3.37C140.62,128.527,140.308,128.203,139.913,128.203z"/>
		<path fill="#993300" d="M145.7,131.142c0.027,0,0.045,0.027,0.045,0.063c0,0.045-0.018,0.135-0.054,0.261l-1.287,4.673
			c-0.063,0.225-0.162,0.576-0.162,0.666c0,0.207,0.198,0.288,0.594,0.288h0.189v0.135h-2.512v-0.135
			c0.711-0.055,0.909-0.153,1.008-0.495l1.224-4.394c0.045-0.171,0.072-0.261,0.072-0.324c0-0.171-0.117-0.279-0.315-0.279h-0.027
			c-0.162,0-0.36,0.009-0.531,0.019v-0.136l0.208-0.045c0.792-0.171,0.828-0.152,1.521-0.297H145.7z"/>
	</g>
	<g>
		<path fill="#993300" d="M54.849,137.873c-0.012,0.049-0.024,0.097-0.024,0.133c0,0.228,0.24,0.371,0.684,0.371h0.18v0.192h-2.842
			v-0.192c0.755-0.048,0.959-0.228,1.091-0.671l1.079-3.479c-0.959,1.523-1.571,1.967-2.495,1.967c-0.755,0-1.199-0.54-1.199-1.392
			c0-1.895,1.871-4.029,3.514-4.029c0.492,0,0.804,0.204,0.923,0.743l0.192-0.587h0.875L54.849,137.873z M54.874,131.037
			c-0.348,0-0.732,0.228-1.116,0.588c-0.815,0.779-1.403,2.015-1.403,3.011c0,0.563,0.192,0.923,0.636,0.923
			c0.3,0,0.672-0.155,0.983-0.432c0.816-0.708,1.607-2.375,1.607-3.37C55.581,131.361,55.269,131.037,54.874,131.037z"/>
		<path fill="#993300" d="M57.744,135.435c0.216-0.531,0.423-0.838,0.738-1.081c0.351-0.27,0.738-0.378,1.152-0.378
			c0.864,0,1.458,0.666,1.458,1.521c0,0.604-0.279,1.018-1.341,2.106l-1.693,1.729v0.045h1.63c0.531,0,0.711-0.135,0.927-0.585
			l0.153,0.063l-0.45,1.206h-3.187v-0.153l1.891-2.017c0.594-0.63,1-1.197,1.215-1.684c0.054-0.116,0.081-0.288,0.081-0.485
			c0-0.622-0.36-1.09-1.071-1.09c-0.54,0-0.999,0.261-1.314,0.864L57.744,135.435z"/>
	</g>
	<g>
		<path fill="#993300" d="M132.624,47.089c0.647-0.972,1.331-1.355,2.051-1.355c0.887,0,1.379,0.563,1.379,1.499
			c0,1.979-1.811,3.922-3.563,3.922c-0.275,0-0.527-0.048-0.827-0.204c-0.204,0.84-0.48,1.823-0.48,1.991
			c0,0.264,0.18,0.348,0.744,0.348v0.192h-2.435V53.29c0.516-0.012,0.671-0.191,0.815-0.756l1.379-5.181
			c0.132-0.479,0.192-0.792,0.192-0.852c0-0.288-0.336-0.324-0.528-0.324h-0.264l-0.024-0.18l1.871-0.264
			c0.036,0,0.06,0.024,0.06,0.048c0,0-0.012,0.061-0.024,0.108L132.624,47.089z M134.231,46.25c-0.636,0-1.343,0.647-1.619,1.367
			c-0.348,0.899-0.779,2.446-0.779,2.854c0,0.264,0.24,0.456,0.575,0.456c0.636,0,1.211-0.396,1.739-1.14
			c0.576-0.804,0.828-1.679,0.828-2.519C134.975,46.585,134.771,46.25,134.231,46.25z"/>
		<path fill="#993300" d="M137.161,50.396c0.216-0.531,0.423-0.838,0.738-1.081c0.351-0.27,0.738-0.378,1.152-0.378
			c0.864,0,1.458,0.666,1.458,1.521c0,0.604-0.279,1.018-1.341,2.106l-1.693,1.729v0.045h1.63c0.531,0,0.711-0.135,0.927-0.585
			l0.153,0.063l-0.45,1.206h-3.187V54.87l1.891-2.017c0.594-0.63,1-1.197,1.215-1.684c0.054-0.116,0.081-0.288,0.081-0.485
			c0-0.622-0.36-1.09-1.071-1.09c-0.54,0-0.999,0.261-1.314,0.864L137.161,50.396z"/>
	</g>
	<circle fill="none" stroke="#993300" stroke-width="2" stroke-miterlimit="10" cx="56.45" cy="121.646" r="5.426"/>
	<circle fill="none" stroke="#993300" stroke-width="2" stroke-miterlimit="10" cx="132.985" cy="122.131" r="5.426"/>
</g>
<g>
	<g>
		<line fill="none" stroke="#00ADEE" stroke-miterlimit="10" x1="56.45" y1="121.647" x2="189.889" y2="84.575"/>
		<g>
			<polygon fill="#00ADEE" points="188.725,87.788 198.393,82.088 187.169,82.189 			"/>
		</g>
	</g>
</g>
<g>
	<g>
		<g>
			<path fill="#EC1C24" d="M200.001,116.772c0.459,0,0.829,0.09,1.071,0.297c0.297,0.252,0.405,0.657,0.405,1.09
				c0,0.485-0.153,0.945-0.387,1.386c-0.477,0.892-1.17,1.278-1.747,1.278c-0.702,0-0.882-0.323-1.026-0.639
				c-0.351,0.423-0.685,0.639-1.324,0.639c-0.576,0-1.161-0.378-1.161-1.269c0-0.243,0.027-0.486,0.09-0.729
				c0.297-1.09,1.225-2.053,2.494-2.053h0.162v0.144c-0.459,0-0.864,0.162-1.206,0.586c-0.45,0.566-0.783,1.539-0.783,2.286
				c0,0.621,0.225,0.847,0.513,0.847c0.405,0,0.927-0.504,1.098-0.999c-0.018-0.136-0.027-0.334-0.027-0.46
				c0-0.225,0.036-0.504,0.108-0.773c0.126-0.469,0.396-0.9,0.729-0.9c0.216,0,0.315,0.171,0.315,0.414
				c0,0.405-0.18,0.972-0.378,1.314c-0.072,0.126-0.189,0.324-0.279,0.459c-0.018,0.063-0.018,0.126-0.018,0.188
				c0,0.388,0.207,0.757,0.585,0.757c0.504,0,0.855-0.423,1.053-0.792c0.279-0.522,0.432-1.314,0.432-1.891
				c0-0.162-0.009-0.414-0.045-0.55c-0.108-0.423-0.459-0.486-0.837-0.486v-0.144H200.001z"/>
			<path fill="#EC1C24" d="M207.066,116.322l-0.153-0.018c0.018-0.153,0.027-0.298,0.027-0.414c0-0.478-0.324-0.729-0.91-0.729
				h-0.522l-1.233,4.411c-0.054,0.189-0.126,0.396-0.126,0.594c0,0.279,0.108,0.352,0.477,0.388l0.315,0.027v0.144h-2.593v-0.144
				c0.622-0.055,0.829-0.189,0.963-0.676l1.288-4.744c-1.422,0-1.71,0.144-2.143,1.116l-0.162-0.036l0.378-1.396h4.79
				L207.066,116.322z"/>
			<path fill="#EC1C24" d="M207.542,117.843v-0.594h4.537v0.594H207.542z M207.542,119.644v-0.595h4.537v0.595H207.542z"/>
			<path fill="#EC1C24" d="M215.688,120.4c-0.369,0.261-0.756,0.388-1.134,0.388c-0.918,0-1.422-0.757-1.422-2.008
				c0-2.116,1.341-4.142,2.755-4.142c0.918,0,1.431,0.802,1.431,2.26C217.317,118.221,216.615,119.743,215.688,120.4z
				 M215.85,114.89c-0.405,0-0.756,0.271-1.08,0.855c-0.468,0.847-0.927,2.61-0.927,3.574c0,0.765,0.297,1.215,0.729,1.215
				c0.414,0,0.828-0.306,1.161-0.899c0.522-0.919,0.874-2.404,0.874-3.574C216.606,115.34,216.39,114.89,215.85,114.89z"/>
		</g>
		<g>
			<path fill="#EC1C24" d="M19.028,111.102c0.459,0,0.829,0.09,1.071,0.297c0.297,0.252,0.405,0.657,0.405,1.09
				c0,0.485-0.153,0.945-0.387,1.386c-0.477,0.892-1.17,1.278-1.747,1.278c-0.702,0-0.882-0.323-1.026-0.639
				c-0.351,0.423-0.685,0.639-1.324,0.639c-0.576,0-1.161-0.378-1.161-1.269c0-0.243,0.027-0.486,0.09-0.729
				c0.297-1.09,1.225-2.053,2.494-2.053h0.162v0.144c-0.459,0-0.864,0.162-1.206,0.586c-0.45,0.566-0.783,1.539-0.783,2.286
				c0,0.621,0.225,0.847,0.513,0.847c0.405,0,0.927-0.504,1.098-0.999c-0.018-0.136-0.027-0.334-0.027-0.46
				c0-0.225,0.036-0.504,0.108-0.773c0.126-0.469,0.396-0.9,0.729-0.9c0.216,0,0.315,0.171,0.315,0.414
				c0,0.405-0.18,0.972-0.378,1.314c-0.072,0.126-0.189,0.324-0.279,0.459c-0.018,0.063-0.018,0.126-0.018,0.188
				c0,0.388,0.207,0.757,0.585,0.757c0.504,0,0.855-0.423,1.053-0.792c0.279-0.522,0.432-1.314,0.432-1.891
				c0-0.162-0.009-0.414-0.045-0.55c-0.108-0.423-0.459-0.486-0.837-0.486v-0.144H19.028z"/>
			<path fill="#EC1C24" d="M26.094,110.652l-0.153-0.018c0.018-0.153,0.027-0.298,0.027-0.414c0-0.478-0.324-0.729-0.91-0.729
				h-0.522l-1.233,4.411c-0.054,0.189-0.126,0.396-0.126,0.594c0,0.279,0.108,0.352,0.477,0.388l0.315,0.027v0.144h-2.593v-0.144
				c0.622-0.055,0.829-0.189,0.963-0.676l1.288-4.744c-1.422,0-1.71,0.144-2.143,1.116l-0.162-0.036l0.378-1.396h4.79
				L26.094,110.652z"/>
			<path fill="#EC1C24" d="M26.569,112.173v-0.594h4.537v0.594H26.569z M26.569,113.974v-0.595h4.537v0.595H26.569z"/>
			<path fill="#EC1C24" d="M36.506,111.868h-0.918c-0.126,0.449-0.604,1.998-0.604,2.178c0,0.208,0.09,0.379,0.279,0.379
				c0.18,0,0.423-0.063,0.639-0.55h0.144c-0.135,0.559-0.558,1.278-1.233,1.278c-0.387,0-0.531-0.323-0.531-0.675
				c0-0.207,0.09-0.549,0.153-0.72l0.684-1.891h-0.937c-0.405,1.098-0.639,2.664-1.368,3.24c-0.099,0.072-0.225,0.108-0.324,0.108
				c-0.234,0-0.45-0.18-0.45-0.396c0-0.135,0.045-0.378,0.27-0.44c0.378-0.1,0.559-0.396,0.648-0.631l0.738-1.881h-0.054
				c-0.468,0-0.711,0.009-1.107,0.495h-0.144c0.486-0.819,0.955-1.162,1.864-1.162h2.439L36.506,111.868z"/>
		</g>
		<g>
			<path fill="#EC1C24" d="M17.53,128.11c0.459,0,0.829,0.09,1.071,0.297c0.297,0.252,0.405,0.657,0.405,1.09
				c0,0.485-0.153,0.945-0.387,1.386c-0.477,0.892-1.17,1.278-1.747,1.278c-0.702,0-0.882-0.323-1.026-0.639
				c-0.352,0.423-0.685,0.639-1.324,0.639c-0.576,0-1.161-0.378-1.161-1.269c0-0.243,0.027-0.486,0.09-0.729
				c0.297-1.09,1.225-2.053,2.494-2.053h0.162v0.144c-0.459,0-0.864,0.162-1.206,0.586c-0.45,0.566-0.783,1.539-0.783,2.286
				c0,0.621,0.225,0.847,0.513,0.847c0.405,0,0.928-0.504,1.099-0.999c-0.018-0.136-0.027-0.334-0.027-0.46
				c0-0.225,0.036-0.504,0.108-0.773c0.126-0.469,0.396-0.9,0.729-0.9c0.216,0,0.315,0.171,0.315,0.414
				c0,0.405-0.18,0.972-0.378,1.314c-0.072,0.126-0.189,0.324-0.279,0.459c-0.018,0.063-0.018,0.126-0.018,0.188
				c0,0.388,0.207,0.757,0.585,0.757c0.504,0,0.855-0.423,1.053-0.792c0.279-0.522,0.432-1.314,0.432-1.891
				c0-0.162-0.009-0.414-0.045-0.55c-0.108-0.423-0.459-0.486-0.837-0.486v-0.144H17.53z"/>
			<path fill="#EC1C24" d="M24.595,127.66l-0.153-0.018c0.018-0.153,0.027-0.298,0.027-0.414c0-0.478-0.324-0.729-0.91-0.729h-0.522
				l-1.233,4.411c-0.054,0.189-0.126,0.396-0.126,0.594c0,0.279,0.108,0.352,0.477,0.388l0.315,0.027v0.144h-2.593v-0.144
				c0.622-0.055,0.829-0.189,0.963-0.676l1.288-4.744c-1.422,0-1.71,0.144-2.143,1.116l-0.162-0.036l0.378-1.396h4.79L24.595,127.66
				z"/>
			<path fill="#EC1C24" d="M25.071,129.181v-0.594h4.537v0.594H25.071z M25.071,130.982v-0.595h4.537v0.595H25.071z"/>
			<path fill="#EC1C24" d="M32.793,130.333h-1.981l0.126-0.567h1.971L32.793,130.333z"/>
			<path fill="#EC1C24" d="M38.004,128.875h-0.918c-0.126,0.449-0.604,1.998-0.604,2.178c0,0.208,0.09,0.379,0.279,0.379
				c0.18,0,0.423-0.063,0.639-0.55h0.144c-0.135,0.559-0.558,1.278-1.233,1.278c-0.387,0-0.531-0.323-0.531-0.675
				c0-0.207,0.09-0.549,0.153-0.72l0.684-1.891h-0.937c-0.405,1.098-0.639,2.664-1.368,3.24c-0.099,0.072-0.225,0.108-0.324,0.108
				c-0.234,0-0.45-0.18-0.45-0.396c0-0.135,0.045-0.378,0.27-0.44c0.378-0.1,0.559-0.396,0.648-0.631l0.738-1.881h-0.054
				c-0.468,0-0.711,0.009-1.107,0.495H33.89c0.486-0.819,0.955-1.162,1.864-1.162h2.439L38.004,128.875z"/>
		</g>
	</g>
	<g>
		<g opacity="0.25">
			<g>
				
					<line fill="none" stroke="#EC1C24" stroke-width="0.866" stroke-miterlimit="10" x1="25.512" y1="113.385" x2="25.512" y2="118.806"/>
				<g>
					<path fill="#EC1C24" d="M25.512,118.458c0.905-0.905,2.694-1.337,3.936-1.372c-1.667,1.241-3.121,2.854-3.936,4.804
						c-0.781-1.95-2.322-3.492-3.936-4.804C22.905,117.192,24.519,117.517,25.512,118.458z"/>
				</g>
			</g>
		</g>
		<g>
			<circle opacity="0.25" fill="none" stroke="#EC1C24" stroke-miterlimit="10" cx="116.22" cy="121.889" r="90.708"/>
			<g opacity="0.25">
				<g>
					
						<line fill="none" stroke="#EC1C24" stroke-width="0.866" stroke-miterlimit="10" x1="25.512" y1="130.393" x2="25.512" y2="124.972"/>
					<g>
						<path fill="#EC1C24" d="M25.512,125.321c-0.905,0.905-2.694,1.337-3.936,1.372c1.667-1.241,3.121-2.854,3.936-4.804
							c0.781,1.95,2.322,3.492,3.936,4.804C28.118,126.586,26.504,126.261,25.512,125.321z"/>
					</g>
				</g>
			</g>
		</g>
	</g>
</g>
<g>
	<g>
		<path fill="none" stroke="#00A551" stroke-width="0.5" stroke-miterlimit="10" d="M155.905,121.889c0-3.938-1-7.639-2.762-10.863"
			/>
		<g>
			<polygon fill="#00A551" points="155.686,111.617 155.509,112.084 153.204,111.21 152.5,113.574 152.021,113.431 152.878,110.553 
							"/>
		</g>
	</g>
</g>
<g>
	<g>
		<path fill="none" stroke="#00A551" stroke-width="0.5" stroke-miterlimit="10" d="M172.913,53.858
			c0,3.938-1.001,7.641-2.764,10.867"/>
		<g>
			<polygon fill="#00A551" points="169.027,62.319 169.506,62.176 170.208,64.539 172.515,63.666 172.691,64.134 169.883,65.197 			
				"/>
		</g>
	</g>
</g>
<g>
	<g>
		<path fill="none" stroke="#00A551" stroke-width="0.5" stroke-miterlimit="10" d="M170.078,189.92
			c0-8.032-4.76-14.941-11.617-18.064"/>
		<g>
			<polygon fill="#00A551" points="160.837,170.758 160.984,171.237 158.627,171.958 159.519,174.257 159.052,174.438 
				157.966,171.638 			"/>
		</g>
	</g>
</g>
<g>
	<g>
		<path fill="none" stroke="#00A551" stroke-width="0.5" stroke-miterlimit="10" d="M87.874,121.889c0-2.711-0.478-5.425-1.35-8.06"
			/>
		<g>
			<polygon fill="#00A551" points="88.952,114.814 88.703,115.248 86.566,114.017 85.495,116.238 85.044,116.02 86.35,113.316 			
				"/>
		</g>
	</g>
</g>
<g>
	<line fill="#00A551" x1="150.236" y1="53.858" x2="187.086" y2="53.858"/>
	<g>
		
			<line fill="none" stroke="#929497" stroke-width="0.3348" stroke-miterlimit="10" x1="150.236" y1="53.858" x2="152.251" y2="53.858"/>
		
			<line fill="none" stroke="#929497" stroke-width="0.3348" stroke-miterlimit="10" stroke-dasharray="3.6465,3.6465" x1="155.898" y1="53.858" x2="183.247" y2="53.858"/>
		
			<line fill="none" stroke="#929497" stroke-width="0.3348" stroke-miterlimit="10" x1="185.07" y1="53.858" x2="187.086" y2="53.858"/>
	</g>
</g>
<g>
	<line fill="#00A551" x1="150.236" y1="189.92" x2="187.086" y2="189.92"/>
	<g>
		
			<line fill="none" stroke="#929497" stroke-width="0.3348" stroke-miterlimit="10" x1="150.236" y1="189.92" x2="152.251" y2="189.92"/>
		
			<line fill="none" stroke="#929497" stroke-width="0.3348" stroke-miterlimit="10" stroke-dasharray="3.6465,3.6465" x1="155.898" y1="189.92" x2="183.247" y2="189.92"/>
		
			<line fill="none" stroke="#929497" stroke-width="0.3348" stroke-miterlimit="10" x1="185.07" y1="189.92" x2="187.086" y2="189.92"/>
	</g>
</g>
<circle fill="#231F20" cx="197.706" cy="82.958" r="2.835"/>
</svg>
