<?xml version="1.0" encoding="utf-8"?>
<!-- Generator: Adobe Illustrator 15.0.0, SVG Export Plug-In . SVG Version: 6.00 Build 0)  -->
<!DOCTYPE svg PUBLIC "-//W3C//DTD SVG 1.0//EN" "http://www.w3.org/TR/2001/REC-SVG-20010904/DTD/svg10.dtd">
<svg version="1.0" id="Layer_1" xmlns="http://www.w3.org/2000/svg" xmlns:xlink="http://www.w3.org/1999/xlink" x="0px" y="0px"
	 width="255.119px" height="226.813px" viewBox="0 0 255.119 226.813" enable-background="new 0 0 255.119 226.813"
	 xml:space="preserve">
<g>
	<g>
		<g>
			<line fill="none" stroke="#231F20" stroke-miterlimit="10" x1="116.37" y1="20.655" x2="116.37" y2="223.936"/>
			<g>
				<polygon fill="#231F20" points="113.303,23.14 113.852,23.651 116.369,20.942 118.888,23.651 119.437,23.14 116.369,19.841 				
					"/>
			</g>
		</g>
	</g>
	<g>
		<g>
			<line fill="none" stroke="#231F20" stroke-miterlimit="10" x1="220.29" y1="121.891" x2="5.669" y2="121.89"/>
			<g>
				<polygon fill="#231F20" points="217.805,118.824 217.293,119.373 220.002,121.89 217.293,124.409 217.805,124.958 
					221.103,121.89 				"/>
			</g>
		</g>
	</g>
</g>
<g opacity="0.2">
	<g>
		<path d="M236.715,126.433c-0.36,0.371-1.235,1.067-1.799,1.391h-0.168c-0.923-0.3-1.188-1.619-1.188-2.507
			c0-0.779-0.072-1.654-0.624-1.835l-0.887,0.216c-0.336,1.439-1.2,2.986-2.363,4.126c-0.324-0.191-1.248-0.72-1.416-0.743
			c-0.084,0.071-0.324,0.275-0.527,0.588l-0.264-0.168l1.127-1.739c0.24,0.144,1.283,0.731,1.439,0.731
			c0.611,0,0.611-2.446,0.611-3.79c0-0.911-0.084-3.106-1.295-3.106c-0.504,0-0.804,0.396-0.804,0.804
			c0,1.188,1.379,1.008,1.379,2.351c0,0.828-0.959,1.596-1.991,1.848l-0.108-0.265c0.336-0.107,0.899-0.455,0.899-0.971
			c0-1.032-1.367-1.176-1.367-2.279c0-1.188,1.02-1.858,2.219-1.858c0.936,0,1.667,0.479,2.123,1.055l1.595-1.163
			c1.559,0,2.351,0.852,2.351,1.787c0,0.888-0.48,1.679-1.487,2.063v0.024c1.475,0.924,0.612,3.742,1.703,3.742
			c0.132,0,0.492-0.372,0.647-0.54L236.715,126.433z M232.493,123.195c1.392-0.3,1.763-1.248,1.763-2.003
			c0-0.468-0.348-1.151-1.115-1.151c-0.468,0-0.768,0.18-1.235,0.647c0.132,0.372,0.24,0.947,0.24,1.295s-0.012,0.912-0.048,1.296
			L232.493,123.195z"/>
		<path d="M241.038,119.716c-1.823,1.728-2.447,4.378-2.447,6.824c0,1.163,0.132,1.896,0.576,3.118l-0.216,0.072
			c-0.768-1.235-1.187-2.795-1.187-4.33c0-1.235,0.264-2.458,0.887-3.478c0.468-0.756,1.127-1.38,2.231-2.387L241.038,119.716z"/>
		<path d="M242.348,126.684c0.696,0.156,0.959,0.288,1.439,0.996c0.312,0.455,0.54,0.6,0.839,0.6c0.192,0,0.324-0.072,0.324-0.18
			c0-0.048-0.024-0.108-0.06-0.181c-0.072-0.144-0.096-0.239-0.096-0.335c0.012-0.204,0.204-0.408,0.396-0.408
			c0.251,0,0.419,0.18,0.419,0.443c0,0.48-0.444,0.912-1.115,0.912c-0.348,0-0.756-0.156-1.355-0.528
			c-0.563-0.348-0.947-0.503-1.259-0.503c-0.192,0-0.348,0.06-0.54,0.216l-0.108-0.108l3.718-4.461h-1.631
			c-0.624,0-0.852,0.107-1.091,0.719l-0.192-0.048l0.384-1.391h3.394v0.132L242.348,126.684z"/>
		<path d="M248.203,119.537c0.563,1.007,0.755,1.475,0.959,2.362c0.144,0.672,0.228,1.367,0.228,2.016
			c0,1.211-0.336,2.351-0.936,3.382c-0.468,0.804-1.092,1.475-2.183,2.423l-0.156-0.181c1.007-1.067,1.451-1.87,1.859-3.142
			c0.372-1.151,0.588-2.531,0.588-3.658c0-1.199-0.18-2.171-0.588-3.143L248.203,119.537z"/>
	</g>
	<g>
		<path d="M113.097,9.364c-0.324-0.288-0.54-0.359-0.779-0.359c-0.324,0-0.684,0.228-0.684,0.695c0,0.672,1.283,1.512,1.283,2.65
			c0,1.212-1.319,2.231-2.867,2.231c-1.043,0-1.571-0.156-2.003-0.48c-0.419-0.312-0.647-0.659-0.839-1.104
			c-0.18-0.407-0.432-0.6-0.671-0.6c-0.336,0-0.672,0.265-0.84,0.612l-0.276-0.072c0.108-0.468,0.792-1.499,1.715-1.499
			c1.151,0,1.439,0.911,1.703,1.691c0.24,0.695,0.647,0.995,1.307,0.995c0.792,0,1.295-0.516,1.295-1.128
			c0-1.187-1.116-1.715-1.116-2.986c0-0.911,0.828-1.511,1.619-1.511s1.067,0.312,1.367,0.672L113.097,9.364z M113.409,6.173
			c-0.192,0.72-0.6,1.812-1.979,1.812c-1.403,0-1.871-0.947-3.238-0.947c-0.6,0-1.403,0.396-1.403,1.367
			c0,0.815,0.648,1.211,1.224,1.211c0.264,0,0.54-0.06,0.779-0.168l0.096,0.264c-0.348,0.181-0.588,0.24-0.923,0.24
			c-1.235,0-1.991-0.708-1.991-1.739c0-1.223,1.056-2.374,2.603-2.374c1.811,0,2.159,0.947,3.55,0.947
			c0.6,0,0.923-0.528,1.007-0.696L113.409,6.173z"/>
		<path d="M117.803,6.33c-1.823,1.728-2.447,4.378-2.447,6.824c0,1.163,0.132,1.896,0.576,3.118l-0.216,0.072
			c-0.768-1.235-1.187-2.795-1.187-4.33c0-1.235,0.264-2.458,0.887-3.478c0.468-0.756,1.127-1.38,2.231-2.387L117.803,6.33z"/>
		<path d="M119.113,13.297c0.696,0.156,0.959,0.288,1.439,0.996c0.312,0.455,0.54,0.6,0.839,0.6c0.192,0,0.324-0.072,0.324-0.18
			c0-0.048-0.024-0.108-0.06-0.181c-0.072-0.144-0.096-0.239-0.096-0.335c0.012-0.204,0.204-0.408,0.396-0.408
			c0.251,0,0.419,0.18,0.419,0.443c0,0.48-0.444,0.912-1.115,0.912c-0.348,0-0.756-0.156-1.355-0.528
			c-0.563-0.348-0.947-0.503-1.259-0.503c-0.192,0-0.348,0.06-0.54,0.216l-0.108-0.108l3.718-4.461h-1.631
			c-0.624,0-0.852,0.107-1.091,0.719l-0.192-0.048l0.384-1.391h3.394v0.132L119.113,13.297z"/>
		<path d="M124.968,6.15c0.563,1.007,0.755,1.475,0.959,2.362c0.144,0.672,0.228,1.367,0.228,2.016c0,1.211-0.336,2.351-0.936,3.382
			c-0.468,0.804-1.092,1.475-2.183,2.423l-0.156-0.181c1.007-1.067,1.451-1.87,1.859-3.142c0.372-1.151,0.588-2.531,0.588-3.658
			c0-1.199-0.18-2.171-0.588-3.143L124.968,6.15z"/>
	</g>
</g>
<g>
	<path fill="#231F20" d="M202.351,75.659c0.696,0.156,0.959,0.289,1.439,0.996c0.312,0.455,0.54,0.6,0.839,0.6
		c0.192,0,0.324-0.072,0.324-0.18c0-0.047-0.024-0.107-0.06-0.18c-0.072-0.145-0.096-0.24-0.096-0.336
		c0.012-0.203,0.204-0.408,0.396-0.408c0.252,0,0.42,0.18,0.42,0.443c0,0.48-0.444,0.912-1.115,0.912
		c-0.348,0-0.756-0.156-1.355-0.527c-0.563-0.348-0.947-0.504-1.259-0.504c-0.192,0-0.348,0.061-0.54,0.217l-0.108-0.109l3.718-4.46
		h-1.631c-0.624,0-0.852,0.107-1.091,0.719l-0.192-0.048l0.384-1.391h3.394v0.132L202.351,75.659z"/>
	<path fill="#231F20" d="M206.958,72.697v-0.792h6.045v0.792H206.958z M206.958,75.096v-0.792h6.045v0.792H206.958z"/>
	<path fill="#231F20" d="M219.112,74.652c-0.467,1.307-1.307,2.002-2.506,2.002c-1.415,0-2.279-1.066-2.279-2.722
		c0-1.691,0.972-2.914,2.482-2.914c0.744,0,1.284,0.287,1.667,0.827c0.24,0.336,0.36,0.72,0.408,1.367h-3.694
		c0.06,0.911,0.12,1.379,0.551,1.956c0.336,0.443,0.78,0.658,1.332,0.658c0.804,0,1.259-0.371,1.847-1.258L219.112,74.652z
		 M217.661,72.829c-0.132-0.972-0.384-1.379-1.175-1.379c-0.671,0-1.139,0.479-1.271,1.379H217.661z"/>
	<path fill="#231F20" d="M222.383,72.283c-0.369,1.458-0.9,2.115-1.684,2.115c-0.414,0-0.711-0.225-0.711-0.549
		c0-0.216,0.162-0.396,0.369-0.396c0.243,0,0.351,0.145,0.351,0.333c0,0.198-0.108,0.172-0.108,0.307
		c0,0.063,0.054,0.107,0.162,0.107c0.36,0,0.567-0.396,0.874-1.638l0.648-2.629c0.108-0.441,0.144-0.631,0.144-0.721
		c0-0.198-0.108-0.278-0.432-0.278h-0.234V68.79c0.288-0.018,0.765-0.09,1.521-0.225l0.036,0.026L222.383,72.283z M223.167,67.602
		c-0.27,0-0.486-0.188-0.486-0.468c0-0.271,0.225-0.469,0.477-0.469c0.243,0,0.459,0.234,0.459,0.486
		C223.617,67.395,223.401,67.602,223.167,67.602z"/>
	<path fill="#231F20" d="M228.018,68.583c0.459,0,0.829,0.09,1.071,0.297c0.297,0.252,0.405,0.657,0.405,1.09
		c0,0.485-0.153,0.945-0.387,1.386c-0.477,0.892-1.17,1.278-1.747,1.278c-0.702,0-0.882-0.323-1.026-0.639
		c-0.351,0.423-0.685,0.639-1.324,0.639c-0.576,0-1.161-0.378-1.161-1.269c0-0.243,0.027-0.486,0.09-0.729
		c0.297-1.09,1.225-2.053,2.494-2.053h0.162v0.144c-0.459,0-0.864,0.162-1.206,0.586c-0.45,0.566-0.783,1.539-0.783,2.286
		c0,0.621,0.225,0.847,0.513,0.847c0.405,0,0.927-0.504,1.098-0.999c-0.018-0.136-0.027-0.334-0.027-0.46
		c0-0.225,0.036-0.504,0.108-0.773c0.126-0.469,0.396-0.9,0.729-0.9c0.216,0,0.315,0.171,0.315,0.414
		c0,0.405-0.18,0.972-0.378,1.314c-0.072,0.126-0.189,0.324-0.279,0.459c-0.018,0.063-0.018,0.126-0.018,0.188
		c0,0.388,0.207,0.757,0.585,0.757c0.504,0,0.855-0.423,1.053-0.792c0.279-0.522,0.432-1.314,0.432-1.891
		c0-0.162-0.009-0.414-0.045-0.55c-0.108-0.423-0.459-0.486-0.837-0.486v-0.144H228.018z"/>
	<path fill="#231F20" d="M235.083,68.133l-0.153-0.018c0.018-0.153,0.027-0.298,0.027-0.414c0-0.478-0.324-0.729-0.91-0.729h-0.522
		l-1.233,4.411c-0.054,0.189-0.126,0.396-0.126,0.594c0,0.279,0.108,0.352,0.477,0.388l0.315,0.027v0.144h-2.593v-0.144
		c0.622-0.055,0.829-0.189,0.963-0.676l1.288-4.744c-1.422,0-1.71,0.144-2.143,1.116l-0.162-0.036l0.378-1.396h4.79L235.083,68.133z
		"/>
</g>
<g>
	<path fill="#929497" d="M207.991,130.393v-0.135c0.666-0.036,0.855-0.226,0.855-0.721v-4.042c0-0.306-0.081-0.441-0.27-0.441
		c-0.09,0-0.243,0.045-0.405,0.108l-0.243,0.09v-0.126l1.611-0.819l0.081,0.027v5.374c0,0.388,0.18,0.55,0.855,0.55v0.135H207.991z"
		/>
</g>
<g>
	<path fill="#929497" d="M121.305,130.519c-1.539,0-2.035-1.675-2.035-3.15c0-1.594,0.622-3.062,2.071-3.062
		c1.179,0,1.999,1.27,1.999,3.115C123.34,128.97,122.773,130.519,121.305,130.519z M121.287,124.542
		c-0.747,0-1.152,1.063-1.152,2.89s0.396,2.854,1.17,2.854c0.766,0,1.17-1.035,1.17-2.817
		C122.476,125.594,122.08,124.542,121.287,124.542z"/>
</g>
<line fill="none" stroke="#231F20" stroke-miterlimit="10" x1="39.685" y1="161.574" x2="39.686" y2="161.575"/>
<g>
	<path fill="#231F20" d="M164.333,150.589l-6.196-3.025l0.29-0.593l6.195,3.025L164.333,150.589z"/>
	<path fill="#231F20" d="M165.632,145.949c0.371-0.464,0.566-0.612,1.271-0.714c0.455-0.066,0.646-0.185,0.756-0.409
		c0.07-0.144,0.065-0.269-0.016-0.308c-0.035-0.018-0.09-0.021-0.156-0.021c-0.135,0.002-0.216-0.016-0.287-0.051
		c-0.148-0.084-0.23-0.301-0.16-0.445c0.092-0.188,0.287-0.248,0.484-0.152c0.36,0.176,0.521,0.666,0.275,1.169
		c-0.127,0.26-0.393,0.509-0.891,0.821c-0.467,0.295-0.724,0.525-0.838,0.76c-0.07,0.144-0.082,0.281-0.035,0.482l-0.12,0.041
		l-1.981-4.415l-0.596,1.222c-0.229,0.467-0.231,0.677,0.139,1.08l-0.105,0.126l-0.902-0.796l1.242-2.541l0.098,0.047
		L165.632,145.949z"/>
	<path fill="#231F20" d="M165.997,141.854l-0.593-0.289l2.211-4.527l0.592,0.289L165.997,141.854z"/>
	<path fill="#231F20" d="M168.428,134.417c-0.49-0.84-0.528-1.492-0.265-2.031c0.324-0.664,0.927-0.826,1.627-0.484
		c1.482,0.724,2.274,2.791,1.635,4.102c-0.102,0.207-0.229,0.377-0.456,0.545c0.554,0.459,1.189,1.025,1.315,1.087
		c0.197,0.097,0.326-0.008,0.532-0.43l0.144,0.07l-0.891,1.823l-0.144-0.07c0.181-0.391,0.103-0.572-0.267-0.887l-3.376-2.928
		c-0.311-0.274-0.522-0.433-0.567-0.455c-0.216-0.105-0.365,0.133-0.436,0.277l-0.097,0.197l-0.144-0.048l0.487-1.497
		c0.013-0.027,0.039-0.037,0.058-0.027c0,0,0.041,0.031,0.072,0.057L168.428,134.417z M168.387,132.907
		c-0.232,0.476-0.007,1.242,0.432,1.711c0.547,0.59,1.547,1.479,1.853,1.628c0.197,0.097,0.429-0.013,0.552-0.265
		c0.232-0.476,0.146-1.051-0.217-1.719c-0.392-0.725-0.955-1.233-1.583-1.54C168.91,132.472,168.585,132.502,168.387,132.907z"/>
	<path fill="#231F20" d="M172.452,129.694c0.01-0.02,0.034-0.023,0.06-0.011c0.032,0.016,0.089,0.06,0.164,0.127l2.827,2.495
		c0.135,0.121,0.347,0.311,0.41,0.341c0.145,0.071,0.269-0.04,0.404-0.317l0.064-0.132l0.095,0.046l-0.858,1.756l-0.094-0.046
		c0.204-0.516,0.203-0.688-0.002-0.874l-2.654-2.355c-0.104-0.09-0.157-0.14-0.201-0.161c-0.119-0.058-0.234-0.014-0.303,0.125
		l-0.009,0.02c-0.056,0.113-0.117,0.255-0.169,0.377l-0.095-0.046l0.039-0.16c0.151-0.612,0.177-0.631,0.313-1.165L172.452,129.694z
		"/>
	<path fill="#231F20" d="M175.492,127.74l-6.196-3.026l0.289-0.593l6.197,3.026L175.492,127.74z"/>
</g>
<g>
	<path fill="#231F20" d="M164.973,57.154l3.576-5.896l0.564,0.342l-3.576,5.896L164.973,57.154z"/>
	<path fill="#231F20" d="M169.477,58.869c0.428,0.412,0.559,0.62,0.595,1.331c0.025,0.459,0.125,0.66,0.339,0.79
		c0.136,0.083,0.261,0.089,0.308,0.013c0.021-0.035,0.03-0.088,0.035-0.154c0.011-0.135,0.035-0.213,0.077-0.281
		c0.097-0.141,0.321-0.202,0.458-0.119c0.18,0.109,0.221,0.309,0.107,0.497c-0.208,0.343-0.71,0.458-1.188,0.168
		c-0.248-0.15-0.471-0.438-0.737-0.962c-0.251-0.491-0.458-0.768-0.68-0.903c-0.136-0.083-0.273-0.106-0.478-0.079l-0.03-0.123
		l4.577-1.573l-1.162-0.704c-0.445-0.27-0.653-0.291-1.089,0.041l-0.116-0.117l0.875-0.826l2.418,1.467l-0.057,0.094L169.477,58.869
		z"/>
	<path fill="#231F20" d="M173.522,59.604l0.342-0.564l4.308,2.613l-0.342,0.563L173.522,59.604z"/>
	<path fill="#231F20" d="M180.708,62.7c0.881-0.412,1.534-0.391,2.046-0.079c0.633,0.384,0.739,0.998,0.335,1.664
		c-0.855,1.41-2.985,2.013-4.233,1.255c-0.197-0.119-0.355-0.262-0.501-0.502c-0.508,0.51-1.129,1.09-1.202,1.21
		c-0.114,0.188-0.022,0.326,0.379,0.569l-0.083,0.137l-1.735-1.052l0.083-0.137c0.373,0.214,0.561,0.153,0.907-0.186l3.222-3.097
		c0.301-0.284,0.479-0.48,0.504-0.523c0.125-0.205-0.099-0.376-0.236-0.459l-0.188-0.114l0.06-0.138l1.447,0.621
		c0.026,0.016,0.033,0.042,0.022,0.06c0,0-0.034,0.037-0.063,0.066L180.708,62.7z M182.215,62.795
		c-0.453-0.273-1.237-0.119-1.744,0.275c-0.636,0.49-1.613,1.406-1.789,1.696c-0.114,0.188-0.026,0.429,0.213,0.573
		c0.453,0.275,1.034,0.242,1.731-0.06c0.757-0.323,1.315-0.839,1.678-1.437C182.601,63.357,182.6,63.03,182.215,62.795z"/>
	<path fill="#231F20" d="M182.518,66.93c0.358-0.266,0.619-0.387,0.927-0.422c0.342-0.037,0.644,0.047,0.919,0.214
		c0.575,0.349,0.701,1.032,0.356,1.601c-0.243,0.4-0.595,0.564-1.742,0.86l-1.823,0.467l-0.018,0.03l1.084,0.657
		c0.353,0.214,0.527,0.196,0.853-0.015l0.077,0.103l-0.786,0.622l-2.12-1.287l0.062-0.102l2.071-0.578
		c0.649-0.18,1.148-0.394,1.488-0.63c0.083-0.056,0.169-0.159,0.25-0.29c0.251-0.414,0.2-0.871-0.272-1.158
		c-0.36-0.217-0.771-0.229-1.224,0.045L182.518,66.93z"/>
	<path fill="#231F20" d="M186.716,70.341l3.576-5.896l0.564,0.342l-3.576,5.896L186.716,70.341z"/>
</g>
<g>
	<path fill="#231F20" d="M141.284,113.632l-3.534-5.921l0.566-0.338l3.534,5.92L141.284,113.632z"/>
	<path fill="#231F20" d="M144.909,110.457c0.563-0.187,0.81-0.203,1.454,0.097c0.418,0.193,0.643,0.199,0.857,0.07
		c0.137-0.081,0.201-0.188,0.154-0.266c-0.02-0.035-0.063-0.068-0.119-0.104c-0.113-0.072-0.172-0.131-0.213-0.199
		c-0.078-0.152-0.027-0.379,0.109-0.461c0.181-0.107,0.377-0.051,0.49,0.138c0.205,0.345,0.072,0.843-0.408,1.13
		c-0.25,0.148-0.607,0.211-1.195,0.201c-0.553-0.009-0.893,0.043-1.117,0.177c-0.137,0.082-0.223,0.191-0.293,0.385l-0.124-0.031
		l0.755-4.78l-1.166,0.697c-0.447,0.267-0.564,0.441-0.475,0.98l-0.158,0.049l-0.319-1.16l2.429-1.449l0.057,0.094L144.909,110.457z
		"/>
	<path fill="#231F20" d="M147.453,107.227l-0.338-0.566l4.325-2.582l0.338,0.566L147.453,107.227z"/>
	<path fill="#231F20" d="M157.148,105.756c0.012,0.04,0.024,0.079,0.04,0.105c0.097,0.162,0.33,0.164,0.647-0.025l0.129-0.078
		l0.082,0.138l-2.034,1.214l-0.082-0.137c0.521-0.357,0.59-0.573,0.495-0.947l-0.714-2.949c-0.036,1.5-0.284,2.078-0.944,2.473
		c-0.541,0.323-1.089,0.126-1.453-0.483c-0.809-1.356-0.383-3.683,0.793-4.384c0.352-0.21,0.662-0.197,0.979,0.137l-0.113-0.502
		l0.627-0.374L157.148,105.756z M154.246,100.856c-0.248,0.148-0.426,0.475-0.547,0.896c-0.25,0.907-0.144,2.042,0.281,2.754
		c0.241,0.403,0.533,0.579,0.85,0.39c0.215-0.129,0.414-0.398,0.52-0.729c0.281-0.855,0.135-2.387-0.289-3.098
		C154.891,100.785,154.529,100.686,154.246,100.856z"/>
	<path fill="#231F20" d="M159.472,100.593c0.019-0.011,0.04-0.001,0.056,0.024c0.018,0.029,0.041,0.098,0.067,0.195l1.003,3.635
		c0.047,0.175,0.121,0.449,0.157,0.51c0.083,0.139,0.247,0.113,0.512-0.045l0.126-0.076l0.055,0.091l-1.678,1.002l-0.055-0.091
		c0.453-0.319,0.547-0.464,0.477-0.732l-0.934-3.423c-0.038-0.132-0.057-0.202-0.082-0.245c-0.068-0.113-0.188-0.139-0.321-0.061
		l-0.019,0.012c-0.107,0.064-0.236,0.148-0.348,0.223l-0.053-0.09l0.119-0.113c0.461-0.43,0.493-0.432,0.898-0.805L159.472,100.593z
		"/>
	<path fill="#231F20" d="M163.085,100.618l-3.534-5.92l0.566-0.338l3.534,5.92L163.085,100.618z"/>
</g>
<g opacity="0.2">
	<g>
		<line fill="none" stroke="#993300" stroke-width="2" stroke-miterlimit="10" x1="155.905" y1="59.528" x2="145.052" y2="48.674"/>
		<line fill="none" stroke="#993300" stroke-width="2" stroke-miterlimit="10" x1="144.567" y1="59.042" x2="155.42" y2="48.188"/>
	</g>
	<g>
		
			<line fill="none" stroke="#993300" stroke-width="2" stroke-miterlimit="10" x1="155.905" y1="195.589" x2="145.052" y2="184.736"/>
		<line fill="none" stroke="#993300" stroke-width="2" stroke-miterlimit="10" x1="144.567" y1="195.104" x2="155.42" y2="184.25"/>
	</g>
	<g>
		<path fill="#993300" d="M132.624,183.152c0.647-0.972,1.331-1.355,2.051-1.355c0.887,0,1.379,0.563,1.379,1.499
			c0,1.979-1.811,3.922-3.563,3.922c-0.275,0-0.527-0.048-0.827-0.204c-0.204,0.84-0.48,1.823-0.48,1.991
			c0,0.264,0.18,0.348,0.744,0.348v0.192h-2.435v-0.192c0.516-0.012,0.671-0.191,0.815-0.756l1.379-5.181
			c0.132-0.479,0.192-0.792,0.192-0.852c0-0.288-0.336-0.324-0.528-0.324h-0.264l-0.024-0.18l1.871-0.264
			c0.036,0,0.06,0.024,0.06,0.048c0,0-0.012,0.061-0.024,0.108L132.624,183.152z M134.231,182.312c-0.636,0-1.343,0.647-1.619,1.367
			c-0.348,0.899-0.779,2.446-0.779,2.854c0,0.264,0.24,0.456,0.575,0.456c0.636,0,1.211-0.396,1.739-1.14
			c0.576-0.804,0.828-1.679,0.828-2.519C134.975,182.648,134.771,182.312,134.231,182.312z"/>
		<path fill="#993300" d="M140.078,185c0.027,0,0.045,0.027,0.045,0.063c0,0.045-0.018,0.135-0.054,0.261l-1.287,4.673
			c-0.063,0.225-0.162,0.576-0.162,0.666c0,0.207,0.198,0.288,0.594,0.288h0.189v0.135h-2.512v-0.135
			c0.711-0.055,0.909-0.153,1.008-0.495l1.224-4.394c0.045-0.171,0.072-0.261,0.072-0.324c0-0.171-0.117-0.279-0.315-0.279h-0.027
			c-0.162,0-0.36,0.009-0.531,0.019v-0.136l0.208-0.045c0.792-0.171,0.828-0.152,1.521-0.297H140.078z"/>
	</g>
	<g>
		<path fill="#993300" d="M139.888,135.039c-0.012,0.049-0.024,0.097-0.024,0.133c0,0.228,0.24,0.371,0.684,0.371h0.18v0.192h-2.842
			v-0.192c0.755-0.048,0.959-0.228,1.091-0.671l1.079-3.479c-0.959,1.523-1.571,1.967-2.495,1.967c-0.755,0-1.199-0.54-1.199-1.392
			c0-1.895,1.871-4.029,3.514-4.029c0.492,0,0.804,0.204,0.923,0.743l0.192-0.587h0.875L139.888,135.039z M139.913,128.203
			c-0.348,0-0.732,0.228-1.116,0.588c-0.815,0.779-1.403,2.015-1.403,3.011c0,0.563,0.192,0.923,0.636,0.923
			c0.3,0,0.672-0.155,0.983-0.432c0.816-0.708,1.607-2.375,1.607-3.37C140.62,128.527,140.308,128.203,139.913,128.203z"/>
		<path fill="#993300" d="M145.7,131.142c0.027,0,0.045,0.027,0.045,0.063c0,0.045-0.018,0.135-0.054,0.261l-1.287,4.673
			c-0.063,0.225-0.162,0.576-0.162,0.666c0,0.207,0.198,0.288,0.594,0.288h0.189v0.135h-2.512v-0.135
			c0.711-0.055,0.909-0.153,1.008-0.495l1.224-4.394c0.045-0.171,0.072-0.261,0.072-0.324c0-0.171-0.117-0.279-0.315-0.279h-0.027
			c-0.162,0-0.36,0.009-0.531,0.019v-0.136l0.208-0.045c0.792-0.171,0.828-0.152,1.521-0.297H145.7z"/>
	</g>
	<g>
		<path fill="#993300" d="M54.849,137.873c-0.012,0.049-0.024,0.097-0.024,0.133c0,0.228,0.24,0.371,0.684,0.371h0.18v0.192h-2.842
			v-0.192c0.755-0.048,0.959-0.228,1.091-0.671l1.079-3.479c-0.959,1.523-1.571,1.967-2.495,1.967c-0.755,0-1.199-0.54-1.199-1.392
			c0-1.895,1.871-4.029,3.514-4.029c0.492,0,0.804,0.204,0.923,0.743l0.192-0.587h0.875L54.849,137.873z M54.874,131.037
			c-0.348,0-0.732,0.228-1.116,0.588c-0.815,0.779-1.403,2.015-1.403,3.011c0,0.563,0.192,0.923,0.636,0.923
			c0.3,0,0.672-0.155,0.983-0.432c0.816-0.708,1.607-2.375,1.607-3.37C55.581,131.361,55.269,131.037,54.874,131.037z"/>
		<path fill="#993300" d="M57.744,135.435c0.216-0.531,0.423-0.838,0.738-1.081c0.351-0.27,0.738-0.378,1.152-0.378
			c0.864,0,1.458,0.666,1.458,1.521c0,0.604-0.279,1.018-1.341,2.106l-1.693,1.729v0.045h1.63c0.531,0,0.711-0.135,0.927-0.585
			l0.153,0.063l-0.45,1.206h-3.187v-0.153l1.891-2.017c0.594-0.63,1-1.197,1.215-1.684c0.054-0.116,0.081-0.288,0.081-0.485
			c0-0.622-0.36-1.09-1.071-1.09c-0.54,0-0.999,0.261-1.314,0.864L57.744,135.435z"/>
	</g>
	<g>
		<path fill="#993300" d="M132.624,47.089c0.647-0.972,1.331-1.355,2.051-1.355c0.887,0,1.379,0.563,1.379,1.499
			c0,1.979-1.811,3.922-3.563,3.922c-0.275,0-0.527-0.048-0.827-0.204c-0.204,0.84-0.48,1.823-0.48,1.991
			c0,0.264,0.18,0.348,0.744,0.348v0.192h-2.435V53.29c0.516-0.012,0.671-0.191,0.815-0.756l1.379-5.181
			c0.132-0.479,0.192-0.792,0.192-0.852c0-0.288-0.336-0.324-0.528-0.324h-0.264l-0.024-0.18l1.871-0.264
			c0.036,0,0.06,0.024,0.06,0.048c0,0-0.012,0.061-0.024,0.108L132.624,47.089z M134.231,46.25c-0.636,0-1.343,0.647-1.619,1.367
			c-0.348,0.899-0.779,2.446-0.779,2.854c0,0.264,0.24,0.456,0.575,0.456c0.636,0,1.211-0.396,1.739-1.14
			c0.576-0.804,0.828-1.679,0.828-2.519C134.975,46.585,134.771,46.25,134.231,46.25z"/>
		<path fill="#993300" d="M137.161,50.396c0.216-0.531,0.423-0.838,0.738-1.081c0.351-0.27,0.738-0.378,1.152-0.378
			c0.864,0,1.458,0.666,1.458,1.521c0,0.604-0.279,1.018-1.341,2.106l-1.693,1.729v0.045h1.63c0.531,0,0.711-0.135,0.927-0.585
			l0.153,0.063l-0.45,1.206h-3.187V54.87l1.891-2.017c0.594-0.63,1-1.197,1.215-1.684c0.054-0.116,0.081-0.288,0.081-0.485
			c0-0.622-0.36-1.09-1.071-1.09c-0.54,0-0.999,0.261-1.314,0.864L137.161,50.396z"/>
	</g>
	<circle fill="none" stroke="#993300" stroke-width="2" stroke-miterlimit="10" cx="56.45" cy="121.646" r="5.426"/>
	<circle fill="none" stroke="#993300" stroke-width="2" stroke-miterlimit="10" cx="132.985" cy="122.131" r="5.426"/>
</g>
<g>
	<g>
		<g>
			<line fill="none" stroke="#00ADEE" stroke-miterlimit="10" x1="150.236" y1="53.858" x2="190.789" y2="77.711"/>
			<g>
				<polygon fill="#00ADEE" points="187.669,79.106 198.486,82.1 190.616,74.098 				"/>
			</g>
		</g>
	</g>
	<g>
		<g>
			<line fill="none" stroke="#00ADEE" stroke-miterlimit="10" x1="149.864" y1="189.921" x2="194.784" y2="90.28"/>
			<g>
				<polygon fill="#00ADEE" points="196.507,93.23 198.315,82.154 191.209,90.842 				"/>
			</g>
		</g>
	</g>
	<g>
		<g>
			<line fill="none" stroke="#00ADEE" stroke-miterlimit="10" x1="132.985" y1="122.131" x2="190.862" y2="86.818"/>
			<g>
				<polygon fill="#00ADEE" points="190.62,90.226 198.362,82.101 187.594,85.266 				"/>
			</g>
		</g>
	</g>
	<g>
		<g>
			<line fill="none" stroke="#00ADEE" stroke-miterlimit="10" x1="56.45" y1="121.647" x2="189.889" y2="84.575"/>
			<g>
				<polygon fill="#00ADEE" points="188.725,87.788 198.393,82.088 187.169,82.189 				"/>
			</g>
		</g>
	</g>
</g>
<g>
	<path fill="#231F20" d="M79.15,111.34l-1.882-6.633l0.635-0.181l1.882,6.634L79.15,111.34z"/>
	<path fill="#231F20" d="M83.474,109.211c0.594-0.033,0.835,0.013,1.381,0.471c0.353,0.295,0.568,0.357,0.809,0.29
		c0.154-0.044,0.243-0.131,0.219-0.218c-0.011-0.038-0.044-0.082-0.089-0.131c-0.091-0.1-0.132-0.171-0.153-0.248
		c-0.037-0.166,0.07-0.372,0.225-0.416c0.202-0.057,0.378,0.049,0.438,0.26c0.109,0.386-0.148,0.832-0.687,0.984
		c-0.279,0.079-0.642,0.047-1.206-0.114c-0.531-0.151-0.875-0.188-1.125-0.117c-0.153,0.043-0.266,0.126-0.384,0.295l-0.111-0.062
		l1.966-4.422l-1.307,0.371c-0.5,0.142-0.658,0.279-0.711,0.824l-0.166,0.006l-0.008-1.203l2.721-0.771l0.03,0.105L83.474,109.211z"
		/>
	<path fill="#231F20" d="M86.767,106.75l-0.18-0.634l4.847-1.375l0.18,0.635L86.767,106.75z"/>
	<path fill="#231F20" d="M96.514,107.84c0.001,0.041,0.003,0.082,0.011,0.111c0.052,0.182,0.276,0.243,0.632,0.143l0.145-0.041
		l0.044,0.154l-2.279,0.646l-0.043-0.154c0.595-0.211,0.717-0.4,0.722-0.787l0.074-3.033c-0.423,1.439-0.812,1.934-1.552,2.145
		c-0.605,0.172-1.085-0.161-1.278-0.844c-0.431-1.52,0.584-3.655,1.901-4.029c0.394-0.111,0.69-0.02,0.909,0.386l0.021-0.515
		l0.701-0.199L96.514,107.84z M94.978,102.354c-0.278,0.079-0.534,0.35-0.76,0.725c-0.477,0.812-0.667,1.936-0.44,2.732
		c0.128,0.452,0.363,0.697,0.719,0.596c0.241-0.068,0.503-0.277,0.69-0.569c0.493-0.753,0.749-2.27,0.522-3.067
		C95.619,102.453,95.296,102.264,94.978,102.354z"/>
	<path fill="#231F20" d="M98.22,105.165c0.049-0.443,0.139-0.717,0.323-0.966c0.205-0.276,0.472-0.439,0.782-0.527
		c0.646-0.183,1.232,0.189,1.414,0.829c0.128,0.451,0.007,0.82-0.557,1.861l-0.899,1.653l0.009,0.033l1.22-0.346
		c0.397-0.112,0.503-0.253,0.569-0.635l0.129,0.015l-0.081,0.998l-2.386,0.677l-0.032-0.114l0.986-1.91
		c0.312-0.598,0.494-1.108,0.553-1.519c0.016-0.099,0-0.233-0.042-0.382c-0.133-0.465-0.501-0.738-1.033-0.588
		c-0.404,0.115-0.693,0.408-0.801,0.927L98.22,105.165z"/>
	<path fill="#231F20" d="M103.577,104.414l-1.882-6.634l0.635-0.18l1.882,6.634L103.577,104.414z"/>
</g>
<g>
	<g>
		<g>
			<path fill="#EC1C24" d="M200.001,116.772c0.459,0,0.829,0.09,1.071,0.297c0.297,0.252,0.405,0.657,0.405,1.09
				c0,0.485-0.153,0.945-0.387,1.386c-0.477,0.892-1.17,1.278-1.747,1.278c-0.702,0-0.882-0.323-1.026-0.639
				c-0.351,0.423-0.685,0.639-1.324,0.639c-0.576,0-1.161-0.378-1.161-1.269c0-0.243,0.027-0.486,0.09-0.729
				c0.297-1.09,1.225-2.053,2.494-2.053h0.162v0.144c-0.459,0-0.864,0.162-1.206,0.586c-0.45,0.566-0.783,1.539-0.783,2.286
				c0,0.621,0.225,0.847,0.513,0.847c0.405,0,0.927-0.504,1.098-0.999c-0.018-0.136-0.027-0.334-0.027-0.46
				c0-0.225,0.036-0.504,0.108-0.773c0.126-0.469,0.396-0.9,0.729-0.9c0.216,0,0.315,0.171,0.315,0.414
				c0,0.405-0.18,0.972-0.378,1.314c-0.072,0.126-0.189,0.324-0.279,0.459c-0.018,0.063-0.018,0.126-0.018,0.188
				c0,0.388,0.207,0.757,0.585,0.757c0.504,0,0.855-0.423,1.053-0.792c0.279-0.522,0.432-1.314,0.432-1.891
				c0-0.162-0.009-0.414-0.045-0.55c-0.108-0.423-0.459-0.486-0.837-0.486v-0.144H200.001z"/>
			<path fill="#EC1C24" d="M207.066,116.322l-0.153-0.018c0.018-0.153,0.027-0.298,0.027-0.414c0-0.478-0.324-0.729-0.91-0.729
				h-0.522l-1.233,4.411c-0.054,0.189-0.126,0.396-0.126,0.594c0,0.279,0.108,0.352,0.477,0.388l0.315,0.027v0.144h-2.593v-0.144
				c0.622-0.055,0.829-0.189,0.963-0.676l1.288-4.744c-1.422,0-1.71,0.144-2.143,1.116l-0.162-0.036l0.378-1.396h4.79
				L207.066,116.322z"/>
			<path fill="#EC1C24" d="M207.542,117.843v-0.594h4.537v0.594H207.542z M207.542,119.644v-0.595h4.537v0.595H207.542z"/>
			<path fill="#EC1C24" d="M215.688,120.4c-0.369,0.261-0.756,0.388-1.134,0.388c-0.918,0-1.422-0.757-1.422-2.008
				c0-2.116,1.341-4.142,2.755-4.142c0.918,0,1.431,0.802,1.431,2.26C217.317,118.221,216.615,119.743,215.688,120.4z
				 M215.85,114.89c-0.405,0-0.756,0.271-1.08,0.855c-0.468,0.847-0.927,2.61-0.927,3.574c0,0.765,0.297,1.215,0.729,1.215
				c0.414,0,0.828-0.306,1.161-0.899c0.522-0.919,0.874-2.404,0.874-3.574C216.606,115.34,216.39,114.89,215.85,114.89z"/>
		</g>
		<g>
			<path fill="#EC1C24" d="M19.028,111.102c0.459,0,0.829,0.09,1.071,0.297c0.297,0.252,0.405,0.657,0.405,1.09
				c0,0.485-0.153,0.945-0.387,1.386c-0.477,0.892-1.17,1.278-1.747,1.278c-0.702,0-0.882-0.323-1.026-0.639
				c-0.351,0.423-0.685,0.639-1.324,0.639c-0.576,0-1.161-0.378-1.161-1.269c0-0.243,0.027-0.486,0.09-0.729
				c0.297-1.09,1.225-2.053,2.494-2.053h0.162v0.144c-0.459,0-0.864,0.162-1.206,0.586c-0.45,0.566-0.783,1.539-0.783,2.286
				c0,0.621,0.225,0.847,0.513,0.847c0.405,0,0.927-0.504,1.098-0.999c-0.018-0.136-0.027-0.334-0.027-0.46
				c0-0.225,0.036-0.504,0.108-0.773c0.126-0.469,0.396-0.9,0.729-0.9c0.216,0,0.315,0.171,0.315,0.414
				c0,0.405-0.18,0.972-0.378,1.314c-0.072,0.126-0.189,0.324-0.279,0.459c-0.018,0.063-0.018,0.126-0.018,0.188
				c0,0.388,0.207,0.757,0.585,0.757c0.504,0,0.855-0.423,1.053-0.792c0.279-0.522,0.432-1.314,0.432-1.891
				c0-0.162-0.009-0.414-0.045-0.55c-0.108-0.423-0.459-0.486-0.837-0.486v-0.144H19.028z"/>
			<path fill="#EC1C24" d="M26.094,110.652l-0.153-0.018c0.018-0.153,0.027-0.298,0.027-0.414c0-0.478-0.324-0.729-0.91-0.729
				h-0.522l-1.233,4.411c-0.054,0.189-0.126,0.396-0.126,0.594c0,0.279,0.108,0.352,0.477,0.388l0.315,0.027v0.144h-2.593v-0.144
				c0.622-0.055,0.829-0.189,0.963-0.676l1.288-4.744c-1.422,0-1.71,0.144-2.143,1.116l-0.162-0.036l0.378-1.396h4.79
				L26.094,110.652z"/>
			<path fill="#EC1C24" d="M26.569,112.173v-0.594h4.537v0.594H26.569z M26.569,113.974v-0.595h4.537v0.595H26.569z"/>
			<path fill="#EC1C24" d="M36.506,111.868h-0.918c-0.126,0.449-0.604,1.998-0.604,2.178c0,0.208,0.09,0.379,0.279,0.379
				c0.18,0,0.423-0.063,0.639-0.55h0.144c-0.135,0.559-0.558,1.278-1.233,1.278c-0.387,0-0.531-0.323-0.531-0.675
				c0-0.207,0.09-0.549,0.153-0.72l0.684-1.891h-0.937c-0.405,1.098-0.639,2.664-1.368,3.24c-0.099,0.072-0.225,0.108-0.324,0.108
				c-0.234,0-0.45-0.18-0.45-0.396c0-0.135,0.045-0.378,0.27-0.44c0.378-0.1,0.559-0.396,0.648-0.631l0.738-1.881h-0.054
				c-0.468,0-0.711,0.009-1.107,0.495h-0.144c0.486-0.819,0.955-1.162,1.864-1.162h2.439L36.506,111.868z"/>
		</g>
		<g>
			<path fill="#EC1C24" d="M17.53,128.11c0.459,0,0.829,0.09,1.071,0.297c0.297,0.252,0.405,0.657,0.405,1.09
				c0,0.485-0.153,0.945-0.387,1.386c-0.477,0.892-1.17,1.278-1.747,1.278c-0.702,0-0.882-0.323-1.026-0.639
				c-0.352,0.423-0.685,0.639-1.324,0.639c-0.576,0-1.161-0.378-1.161-1.269c0-0.243,0.027-0.486,0.09-0.729
				c0.297-1.09,1.225-2.053,2.494-2.053h0.162v0.144c-0.459,0-0.864,0.162-1.206,0.586c-0.45,0.566-0.783,1.539-0.783,2.286
				c0,0.621,0.225,0.847,0.513,0.847c0.405,0,0.928-0.504,1.099-0.999c-0.018-0.136-0.027-0.334-0.027-0.46
				c0-0.225,0.036-0.504,0.108-0.773c0.126-0.469,0.396-0.9,0.729-0.9c0.216,0,0.315,0.171,0.315,0.414
				c0,0.405-0.18,0.972-0.378,1.314c-0.072,0.126-0.189,0.324-0.279,0.459c-0.018,0.063-0.018,0.126-0.018,0.188
				c0,0.388,0.207,0.757,0.585,0.757c0.504,0,0.855-0.423,1.053-0.792c0.279-0.522,0.432-1.314,0.432-1.891
				c0-0.162-0.009-0.414-0.045-0.55c-0.108-0.423-0.459-0.486-0.837-0.486v-0.144H17.53z"/>
			<path fill="#EC1C24" d="M24.595,127.66l-0.153-0.018c0.018-0.153,0.027-0.298,0.027-0.414c0-0.478-0.324-0.729-0.91-0.729h-0.522
				l-1.233,4.411c-0.054,0.189-0.126,0.396-0.126,0.594c0,0.279,0.108,0.352,0.477,0.388l0.315,0.027v0.144h-2.593v-0.144
				c0.622-0.055,0.829-0.189,0.963-0.676l1.288-4.744c-1.422,0-1.71,0.144-2.143,1.116l-0.162-0.036l0.378-1.396h4.79L24.595,127.66
				z"/>
			<path fill="#EC1C24" d="M25.071,129.181v-0.594h4.537v0.594H25.071z M25.071,130.982v-0.595h4.537v0.595H25.071z"/>
			<path fill="#EC1C24" d="M32.793,130.333h-1.981l0.126-0.567h1.971L32.793,130.333z"/>
			<path fill="#EC1C24" d="M38.004,128.875h-0.918c-0.126,0.449-0.604,1.998-0.604,2.178c0,0.208,0.09,0.379,0.279,0.379
				c0.18,0,0.423-0.063,0.639-0.55h0.144c-0.135,0.559-0.558,1.278-1.233,1.278c-0.387,0-0.531-0.323-0.531-0.675
				c0-0.207,0.09-0.549,0.153-0.72l0.684-1.891h-0.937c-0.405,1.098-0.639,2.664-1.368,3.24c-0.099,0.072-0.225,0.108-0.324,0.108
				c-0.234,0-0.45-0.18-0.45-0.396c0-0.135,0.045-0.378,0.27-0.44c0.378-0.1,0.559-0.396,0.648-0.631l0.738-1.881h-0.054
				c-0.468,0-0.711,0.009-1.107,0.495H33.89c0.486-0.819,0.955-1.162,1.864-1.162h2.439L38.004,128.875z"/>
		</g>
	</g>
	<g>
		<g opacity="0.25">
			<g>
				
					<line fill="none" stroke="#EC1C24" stroke-width="0.866" stroke-miterlimit="10" x1="25.512" y1="113.385" x2="25.512" y2="118.806"/>
				<g>
					<path fill="#EC1C24" d="M25.512,118.458c0.905-0.905,2.694-1.337,3.936-1.372c-1.667,1.241-3.121,2.854-3.936,4.804
						c-0.781-1.95-2.322-3.492-3.936-4.804C22.905,117.192,24.519,117.517,25.512,118.458z"/>
				</g>
			</g>
		</g>
		<g>
			<circle opacity="0.25" fill="none" stroke="#EC1C24" stroke-miterlimit="10" cx="116.22" cy="121.889" r="90.708"/>
			<g opacity="0.25">
				<g>
					
						<line fill="none" stroke="#EC1C24" stroke-width="0.866" stroke-miterlimit="10" x1="25.512" y1="130.393" x2="25.512" y2="124.972"/>
					<g>
						<path fill="#EC1C24" d="M25.512,125.321c-0.905,0.905-2.694,1.337-3.936,1.372c1.667-1.241,3.121-2.854,3.936-4.804
							c0.781,1.95,2.322,3.492,3.936,4.804C28.118,126.586,26.504,126.261,25.512,125.321z"/>
					</g>
				</g>
			</g>
		</g>
	</g>
</g>
<circle fill="#231F20" cx="197.706" cy="82.958" r="2.835"/>
</svg>
